<?xml version="1.0" encoding="utf-8" ?>
<svg baseProfile="tiny" height="104.286611624" version="1.2" width="54.786612834" xmlns="http://www.w3.org/2000/svg" xmlns:ev="http://www.w3.org/2001/xml-events" xmlns:xlink="http://www.w3.org/1999/xlink"><defs /><g id="paths" stroke="blue"><path d="M 4.893306967,99.393304657 L 49.893305867,99.393304657 L 49.893305867,4.893306967 L 4.893306967,4.893306967 L 4.893306967,99.393304657 Z" fill-opacity="0" stroke-linejoin="round" stroke-width="1.0" /></g><g fill="red" id="holes"><circle cx="9.3933" cy="11.6433" r="1.8602" stroke-width="0.0" /><circle cx="9.3933" cy="20.6433" r="1.8602" stroke-width="0.0" /><circle cx="9.3933" cy="29.6433" r="1.8602" stroke-width="0.0" /><circle cx="9.3933" cy="38.6433" r="1.8602" stroke-width="0.0" /><circle cx="9.3933" cy="47.6433" r="1.8602" stroke-width="0.0" /><circle cx="9.3933" cy="56.6433" r="1.8602" stroke-width="0.0" /><circle cx="9.3933" cy="65.6433" r="1.8602" stroke-width="0.0" /><circle cx="9.3933" cy="74.6433" r="1.8602" stroke-width="0.0" /><circle cx="9.3933" cy="83.6433" r="1.8602" stroke-width="0.0" /><circle cx="9.3933" cy="92.6433" r="1.8602" stroke-width="0.0" /><circle cx="22.8933" cy="11.6433" r="1.8602" stroke-width="0.0" /><circle cx="22.8933" cy="20.6433" r="1.8602" stroke-width="0.0" /><circle cx="22.8933" cy="29.6433" r="1.8602" stroke-width="0.0" /><circle cx="22.8933" cy="38.6433" r="1.8602" stroke-width="0.0" /><circle cx="22.8933" cy="47.6433" r="1.8602" stroke-width="0.0" /><circle cx="22.8933" cy="56.6433" r="1.8602" stroke-width="0.0" /><circle cx="22.8933" cy="65.6433" r="1.8602" stroke-width="0.0" /><circle cx="22.8933" cy="74.6433" r="1.8602" stroke-width="0.0" /><circle cx="22.8933" cy="83.6433" r="1.8602" stroke-width="0.0" /><circle cx="22.8933" cy="92.6433" r="1.8602" stroke-width="0.0" /><circle cx="31.8933" cy="11.6433" r="1.8602" stroke-width="0.0" /><circle cx="31.8933" cy="20.6433" r="1.8602" stroke-width="0.0" /><circle cx="31.8933" cy="29.6433" r="1.8602" stroke-width="0.0" /><circle cx="31.8933" cy="38.6433" r="1.8602" stroke-width="0.0" /><circle cx="31.8933" cy="47.6433" r="1.8602" stroke-width="0.0" /><circle cx="31.8933" cy="56.6433" r="1.8602" stroke-width="0.0" /><circle cx="31.8933" cy="65.6433" r="1.8602" stroke-width="0.0" /><circle cx="31.8933" cy="74.6433" r="1.8602" stroke-width="0.0" /><circle cx="31.8933" cy="83.6433" r="1.8602" stroke-width="0.0" /><circle cx="31.8933" cy="92.6433" r="1.8602" stroke-width="0.0" /><circle cx="45.3933" cy="11.6433" r="1.8602" stroke-width="0.0" /><circle cx="45.3933" cy="20.6433" r="1.8602" stroke-width="0.0" /><circle cx="45.3933" cy="29.6433" r="1.8602" stroke-width="0.0" /><circle cx="45.3933" cy="38.6433" r="1.8602" stroke-width="0.0" /><circle cx="45.3933" cy="47.6433" r="1.8602" stroke-width="0.0" /><circle cx="45.3933" cy="56.6433" r="1.8602" stroke-width="0.0" /><circle cx="45.3933" cy="65.6433" r="1.8602" stroke-width="0.0" /><circle cx="45.3933" cy="74.6433" r="1.8602" stroke-width="0.0" /><circle cx="45.3933" cy="83.6433" r="1.8602" stroke-width="0.0" /><circle cx="45.3933" cy="92.6433" r="1.8602" stroke-width="0.0" /></g><g id="rulers" stroke="black" /></svg>