<?xml-stylesheet href="https://s3.amazonaws.com/maker.works.boards/css/blackpcb.css" type="text/css"?><svg xmlns="http://www.w3.org/2000/svg" version="1.1" xmlns:xlink="http://www.w3.org/1999/xlink" stroke-width="0" stroke-linecap="round" stroke-linejoin="round" width="0.7874in" height="1.3386in" id="pcb_bottom" viewBox="7.5 7.5 787.4 1338.6"><defs><circle cx="0" cy="0" r="19.5" id="tool-T10-pad-1000"/><circle cx="0" cy="0" r="22.5" id="tool-T11-pad-1001"/><rect x="-13.203" y="-25.998" width="26.406" height="51.996" transform="rotate(180)" id="tool-D11-pad-1003"/><rect x="-29.55" y="-29.55" width="59.1" height="59.1" id="tool-D12-pad-1004"/><circle cx="0" cy="0" r="29.55" id="tool-D13-pad-1005"/><rect x="-34.45" y="-34.45" width="68.9" height="68.9" id="tool-D14-pad-1006"/><circle cx="0" cy="0" r="34.45" id="tool-D15-pad-1007"/><rect x="-13.203" y="-25.998" width="26.406" height="51.996" transform="rotate(180)" id="tool-D10-pad-1010"/><rect x="-29.55" y="-29.55" width="59.1" height="59.1" id="tool-D11-pad-1011"/><circle cx="0" cy="0" r="29.55" id="tool-D12-pad-1012"/><rect x="-34.45" y="-34.45" width="68.9" height="68.9" id="tool-D13-pad-1013"/><circle cx="0" cy="0" r="34.45" id="tool-D14-pad-1014"/><g id="pcb_bottom-cu" fill="currentColor" stroke="currentColor"><path stroke-width="9.8" fill="none" d="M 273.2 588.2 L 327.4 642.3 M 124.6 60.6 L 76.4 108.9 M 153.2 1116.2 L 153.2 1218.1 M 153.2 918.1 L 153.2 1018.1 M 377.6 198.4 L 377.6 1293.3 M 457.9 118.1 L 377.6 198.4 M 653.2 1118.1 L 653.2 1218.1 M 273.2 328.4 L 327.4 382.5 M 327.4 797.9 L 273.2 852 M 273.2 60.6 L 124.6 60.6 M 460.3 1293.3 L 529.1 1293.3 M 153.2 218.1 L 263.4 328.4 M 460.3 765.8 L 529.2 765.8 M 228.4 1293.3 L 269.3 1293.3 M 327.4 382.5 L 327.4 534.1 M 465.2 237.8 L 522.3 237.8 M 76.4 186.6 L 107.9 218.1 M 327.4 1062 L 273.2 1116.2 M 653.2 118.1 L 457.9 118.1 M 153.2 118.1 L 297.3 118.1 M 327.4 906.1 L 327.4 1062 M 297.3 118.1 L 377.6 198.4 M 153.2 518.1 L 153.2 618.1 M 460.3 501.6 L 528.7 501.6 M 653.2 718.1 L 653.2 818.1 M 460.3 1029.2 L 535.1 1029.2 M 653.2 518.1 L 653.2 618.1 M 107.9 218.1 L 153.2 218.1 M 153.2 1218.1 L 228.4 1293.3 M 327.4 642.3 L 327.4 797.9 M 263.4 328.4 L 273.2 328.4 M 153.2 318.1 L 153.2 418.1 M 76.4 108.9 L 76.4 186.6 M 653.2 918.1 L 653.2 1018.1 M 153.2 718.1 L 153.2 818.1 M 273.2 852 L 327.4 906.1 M 327.4 534.1 L 273.2 588.2 M 653.2 318.1 L 653.2 418.1"/><use x="460.3" y="1293.4" xlink:href="#tool-D11-pad-1003"/><use x="377.6" y="1293.4" xlink:href="#tool-D11-pad-1003"/><use x="273.2" y="501.6" xlink:href="#tool-D12-pad-1004"/><use x="273.2" y="324.4" xlink:href="#tool-D13-pad-1005"/><use x="529.2" y="324.4" xlink:href="#tool-D13-pad-1005"/><use x="529.2" y="501.6" xlink:href="#tool-D13-pad-1005"/><use x="273.2" y="1293.3" xlink:href="#tool-D12-pad-1004"/><use x="273.2" y="1116.2" xlink:href="#tool-D13-pad-1005"/><use x="529.2" y="1116.2" xlink:href="#tool-D13-pad-1005"/><use x="529.2" y="1293.3" xlink:href="#tool-D13-pad-1005"/><use x="460.3" y="238.2" xlink:href="#tool-D11-pad-1003"/><use x="377.6" y="238.2" xlink:href="#tool-D11-pad-1003"/><use x="273.2" y="237.8" xlink:href="#tool-D12-pad-1004"/><use x="273.2" y="60.6" xlink:href="#tool-D13-pad-1005"/><use x="529.2" y="60.6" xlink:href="#tool-D13-pad-1005"/><use x="529.2" y="237.8" xlink:href="#tool-D13-pad-1005"/><use x="460.3" y="765.8" xlink:href="#tool-D11-pad-1003"/><use x="377.6" y="765.8" xlink:href="#tool-D11-pad-1003"/><use x="460.3" y="1028.6" xlink:href="#tool-D11-pad-1003"/><use x="377.6" y="1028.6" xlink:href="#tool-D11-pad-1003"/><use x="460.3" y="502" xlink:href="#tool-D11-pad-1003"/><use x="377.6" y="502" xlink:href="#tool-D11-pad-1003"/><use x="273.2" y="765.4" xlink:href="#tool-D12-pad-1004"/><use x="273.2" y="588.2" xlink:href="#tool-D13-pad-1005"/><use x="529.2" y="588.2" xlink:href="#tool-D13-pad-1005"/><use x="529.2" y="765.4" xlink:href="#tool-D13-pad-1005"/><use x="653.2" y="1218.1" xlink:href="#tool-D14-pad-1006"/><use x="653.2" y="1118.1" xlink:href="#tool-D15-pad-1007"/><use x="653.2" y="1018.1" xlink:href="#tool-D15-pad-1007"/><use x="653.2" y="918.1" xlink:href="#tool-D15-pad-1007"/><use x="653.2" y="818.1" xlink:href="#tool-D15-pad-1007"/><use x="653.2" y="718.1" xlink:href="#tool-D15-pad-1007"/><use x="653.2" y="618.1" xlink:href="#tool-D15-pad-1007"/><use x="653.2" y="518.1" xlink:href="#tool-D15-pad-1007"/><use x="653.2" y="418.1" xlink:href="#tool-D15-pad-1007"/><use x="653.2" y="318.1" xlink:href="#tool-D15-pad-1007"/><use x="653.2" y="218.1" xlink:href="#tool-D15-pad-1007"/><use x="653.2" y="118.1" xlink:href="#tool-D15-pad-1007"/><use x="153.2" y="1218.1" xlink:href="#tool-D14-pad-1006"/><use x="153.2" y="1118.1" xlink:href="#tool-D15-pad-1007"/><use x="153.2" y="1018.1" xlink:href="#tool-D15-pad-1007"/><use x="153.2" y="918.1" xlink:href="#tool-D15-pad-1007"/><use x="153.2" y="818.1" xlink:href="#tool-D15-pad-1007"/><use x="153.2" y="718.1" xlink:href="#tool-D15-pad-1007"/><use x="153.2" y="618.1" xlink:href="#tool-D15-pad-1007"/><use x="153.2" y="518.1" xlink:href="#tool-D15-pad-1007"/><use x="153.2" y="418.1" xlink:href="#tool-D15-pad-1007"/><use x="153.2" y="318.1" xlink:href="#tool-D15-pad-1007"/><use x="153.2" y="218.1" xlink:href="#tool-D15-pad-1007"/><use x="153.2" y="118.1" xlink:href="#tool-D15-pad-1007"/><use x="273.2" y="1029.2" xlink:href="#tool-D12-pad-1004"/><use x="273.2" y="852" xlink:href="#tool-D13-pad-1005"/><use x="529.2" y="852" xlink:href="#tool-D13-pad-1005"/><use x="529.2" y="1029.2" xlink:href="#tool-D13-pad-1005"/></g><mask id="pcb_bottom_mech-mask" fill="#fff" stroke="#fff" fill-rule="evenodd"><path stroke-width="0" d="M 125.6 7.5 Z M 125.6 7.5 A 196.8527622361444 196.8527622361444 0 0 0 7.5 125.6 L 7.5 1228 A 196.8527622361444 196.8527622361444 0 0 0 125.6 1346.1 L 676.8 1346.1 A 196.8527622361444 196.8527622361444 0 0 0 794.9 1228 L 794.9 125.6 A 196.8527622361444 196.8527622361444 0 0 0 676.8 7.5 Z"/><g id="pcb_bottom-drl" fill="#000" stroke="#000"><use x="273.2" y="501.6" xlink:href="#tool-T10-pad-1000"/><use x="273.2" y="324.4" xlink:href="#tool-T10-pad-1000"/><use x="529.2" y="324.4" xlink:href="#tool-T10-pad-1000"/><use x="529.2" y="501.6" xlink:href="#tool-T10-pad-1000"/><use x="273.2" y="1293.3" xlink:href="#tool-T10-pad-1000"/><use x="273.2" y="1116.2" xlink:href="#tool-T10-pad-1000"/><use x="529.2" y="1116.2" xlink:href="#tool-T10-pad-1000"/><use x="529.2" y="1293.3" xlink:href="#tool-T10-pad-1000"/><use x="273.2" y="237.8" xlink:href="#tool-T10-pad-1000"/><use x="273.2" y="60.6" xlink:href="#tool-T10-pad-1000"/><use x="529.2" y="60.6" xlink:href="#tool-T10-pad-1000"/><use x="529.2" y="237.8" xlink:href="#tool-T10-pad-1000"/><use x="273.2" y="765.4" xlink:href="#tool-T10-pad-1000"/><use x="273.2" y="588.2" xlink:href="#tool-T10-pad-1000"/><use x="529.2" y="588.2" xlink:href="#tool-T10-pad-1000"/><use x="529.2" y="765.4" xlink:href="#tool-T10-pad-1000"/><use x="273.2" y="1029.2" xlink:href="#tool-T10-pad-1000"/><use x="273.2" y="852" xlink:href="#tool-T10-pad-1000"/><use x="529.2" y="852" xlink:href="#tool-T10-pad-1000"/><use x="529.2" y="1029.2" xlink:href="#tool-T10-pad-1000"/><use x="653.2" y="1218.1" xlink:href="#tool-T11-pad-1001"/><use x="653.2" y="1118.1" xlink:href="#tool-T11-pad-1001"/><use x="653.2" y="1018.1" xlink:href="#tool-T11-pad-1001"/><use x="653.2" y="918.1" xlink:href="#tool-T11-pad-1001"/><use x="653.2" y="818.1" xlink:href="#tool-T11-pad-1001"/><use x="653.2" y="718.1" xlink:href="#tool-T11-pad-1001"/><use x="653.2" y="618.1" xlink:href="#tool-T11-pad-1001"/><use x="653.2" y="518.1" xlink:href="#tool-T11-pad-1001"/><use x="653.2" y="418.1" xlink:href="#tool-T11-pad-1001"/><use x="653.2" y="318.1" xlink:href="#tool-T11-pad-1001"/><use x="653.2" y="218.1" xlink:href="#tool-T11-pad-1001"/><use x="653.2" y="118.1" xlink:href="#tool-T11-pad-1001"/><use x="153.2" y="1218.1" xlink:href="#tool-T11-pad-1001"/><use x="153.2" y="1118.1" xlink:href="#tool-T11-pad-1001"/><use x="153.2" y="1018.1" xlink:href="#tool-T11-pad-1001"/><use x="153.2" y="918.1" xlink:href="#tool-T11-pad-1001"/><use x="153.2" y="818.1" xlink:href="#tool-T11-pad-1001"/><use x="153.2" y="718.1" xlink:href="#tool-T11-pad-1001"/><use x="153.2" y="618.1" xlink:href="#tool-T11-pad-1001"/><use x="153.2" y="518.1" xlink:href="#tool-T11-pad-1001"/><use x="153.2" y="418.1" xlink:href="#tool-T11-pad-1001"/><use x="153.2" y="318.1" xlink:href="#tool-T11-pad-1001"/><use x="153.2" y="218.1" xlink:href="#tool-T11-pad-1001"/><use x="153.2" y="118.1" xlink:href="#tool-T11-pad-1001"/></g></mask></defs><g mask="url(#pcb_bottom_mech-mask)" transform="translate(802.4,1353.6) scale(-1,-1)"><rect x="7.5" y="7.5" width="787.4" height="1338.6" fill="currentColor" class="pcb_board-fr4"/><use class="pcb_board-cu" xlink:href="#pcb_bottom-cu"/><g><defs><g id="pcb_bottom-sm" fill="currentColor" stroke="currentColor"><use x="460.3" y="1293.4" xlink:href="#tool-D10-pad-1010"/><use x="377.6" y="1293.4" xlink:href="#tool-D10-pad-1010"/><use x="273.2" y="501.6" xlink:href="#tool-D11-pad-1011"/><use x="273.2" y="324.4" xlink:href="#tool-D12-pad-1012"/><use x="529.2" y="324.4" xlink:href="#tool-D12-pad-1012"/><use x="529.2" y="501.6" xlink:href="#tool-D12-pad-1012"/><use x="273.2" y="1293.3" xlink:href="#tool-D11-pad-1011"/><use x="273.2" y="1116.2" xlink:href="#tool-D12-pad-1012"/><use x="529.2" y="1116.2" xlink:href="#tool-D12-pad-1012"/><use x="529.2" y="1293.3" xlink:href="#tool-D12-pad-1012"/><use x="460.3" y="238.2" xlink:href="#tool-D10-pad-1010"/><use x="377.6" y="238.2" xlink:href="#tool-D10-pad-1010"/><use x="273.2" y="237.8" xlink:href="#tool-D11-pad-1011"/><use x="273.2" y="60.6" xlink:href="#tool-D12-pad-1012"/><use x="529.2" y="60.6" xlink:href="#tool-D12-pad-1012"/><use x="529.2" y="237.8" xlink:href="#tool-D12-pad-1012"/><use x="460.3" y="765.8" xlink:href="#tool-D10-pad-1010"/><use x="377.6" y="765.8" xlink:href="#tool-D10-pad-1010"/><use x="460.3" y="1028.6" xlink:href="#tool-D10-pad-1010"/><use x="377.6" y="1028.6" xlink:href="#tool-D10-pad-1010"/><use x="460.3" y="502" xlink:href="#tool-D10-pad-1010"/><use x="377.6" y="502" xlink:href="#tool-D10-pad-1010"/><use x="273.2" y="765.4" xlink:href="#tool-D11-pad-1011"/><use x="273.2" y="588.2" xlink:href="#tool-D12-pad-1012"/><use x="529.2" y="588.2" xlink:href="#tool-D12-pad-1012"/><use x="529.2" y="765.4" xlink:href="#tool-D12-pad-1012"/><use x="653.2" y="1218.1" xlink:href="#tool-D13-pad-1013"/><use x="653.2" y="1118.1" xlink:href="#tool-D14-pad-1014"/><use x="653.2" y="1018.1" xlink:href="#tool-D14-pad-1014"/><use x="653.2" y="918.1" xlink:href="#tool-D14-pad-1014"/><use x="653.2" y="818.1" xlink:href="#tool-D14-pad-1014"/><use x="653.2" y="718.1" xlink:href="#tool-D14-pad-1014"/><use x="653.2" y="618.1" xlink:href="#tool-D14-pad-1014"/><use x="653.2" y="518.1" xlink:href="#tool-D14-pad-1014"/><use x="653.2" y="418.1" xlink:href="#tool-D14-pad-1014"/><use x="653.2" y="318.1" xlink:href="#tool-D14-pad-1014"/><use x="653.2" y="218.1" xlink:href="#tool-D14-pad-1014"/><use x="653.2" y="118.1" xlink:href="#tool-D14-pad-1014"/><use x="153.2" y="1218.1" xlink:href="#tool-D13-pad-1013"/><use x="153.2" y="1118.1" xlink:href="#tool-D14-pad-1014"/><use x="153.2" y="1018.1" xlink:href="#tool-D14-pad-1014"/><use x="153.2" y="918.1" xlink:href="#tool-D14-pad-1014"/><use x="153.2" y="818.1" xlink:href="#tool-D14-pad-1014"/><use x="153.2" y="718.1" xlink:href="#tool-D14-pad-1014"/><use x="153.2" y="618.1" xlink:href="#tool-D14-pad-1014"/><use x="153.2" y="518.1" xlink:href="#tool-D14-pad-1014"/><use x="153.2" y="418.1" xlink:href="#tool-D14-pad-1014"/><use x="153.2" y="318.1" xlink:href="#tool-D14-pad-1014"/><use x="153.2" y="218.1" xlink:href="#tool-D14-pad-1014"/><use x="153.2" y="118.1" xlink:href="#tool-D14-pad-1014"/><use x="273.2" y="1029.2" xlink:href="#tool-D11-pad-1011"/><use x="273.2" y="852" xlink:href="#tool-D12-pad-1012"/><use x="529.2" y="852" xlink:href="#tool-D12-pad-1012"/><use x="529.2" y="1029.2" xlink:href="#tool-D12-pad-1012"/></g><mask id="pcb_bottom-sm_mask" color="#000"><rect x="7.5" y="7.5" width="787.4" height="1338.6" fill="#fff"/><use xlink:href="#pcb_bottom-sm"/></mask><mask id="pcb_bottom-cu_finish-mask" color="#fff"><use xlink:href="#pcb_bottom-cu"/></mask></defs><g mask="url(#pcb_bottom-sm_mask)"><rect x="7.5" y="7.5" width="787.4" height="1338.6" fill="currentColor" class="pcb_board-sm"/><g id="pcb_bottom-ss" class="pcb_board-ss" fill="currentColor" stroke="currentColor"><path stroke-width="5.9" fill="none" d="M 359.5 1322.9 L 359.5 1263.8 M 359.5 1263.8 L 478.4 1263.8 M 478.4 1263.8 L 478.4 1322.9 M 478.4 1322.9 L 359.5 1322.9"/><path stroke-width="8" fill="none" d="M 476.4 1238.2 L 476.4 1238.2 M 476.4 1238.2 L 476.4 1238.2 M 476.4 1238.2 L 472 1238.2 M 472 1238.2 L 472 1238.2 M 472 1238.2 L 471.4 1238.2 M 471.4 1238.2 L 471.4 1238.2 M 471.4 1238.2 L 470.8 1238.1 M 470.8 1238.1 L 470.8 1238.1 M 470.8 1238.1 L 470.3 1238.1 M 470.3 1238.1 L 470.3 1238.1 M 470.3 1238.1 L 469.9 1238.1 M 469.9 1238.1 L 469.9 1238.1 M 469.9 1238.1 L 469.5 1237.9 M 469.5 1237.9 L 469.5 1237.9 M 469.5 1237.9 L 469.1 1237.7 M 469.1 1237.7 L 469.1 1237.7 M 469.1 1237.7 L 468.7 1237.5 M 468.7 1237.5 L 468.7 1237.5 M 468.7 1237.5 L 468.2 1237.3 M 468.2 1237.3 L 468.2 1237.3 M 468.2 1237.3 L 467.8 1236.9 M 467.8 1236.9 L 467.8 1236.9 M 467.8 1236.9 L 467.3 1236.6 M 467.3 1236.6 L 467.3 1236.6 M 467.3 1236.6 L 466.9 1236 M 466.9 1236 L 466.9 1236 M 466.9 1236 L 466.4 1235.4 M 466.4 1235.4 L 466.4 1235.4 M 466.4 1235.4 L 465.8 1234.7 M 465.8 1234.7 L 465.8 1234.7 M 465.8 1234.7 L 465.1 1233.8 M 465.1 1233.8 L 465.1 1233.8 M 465.1 1233.8 L 464.4 1232.7 M 464.4 1232.7 L 464.4 1232.7 M 464.4 1232.7 L 463.6 1231.5 M 463.6 1231.5 L 463.6 1231.5 M 463.6 1231.5 L 459.9 1225.6 M 459.9 1225.6 L 455.3 1225.6 M 455.3 1225.6 L 460.2 1233.3 M 460.2 1233.3 L 460.9 1234.4 M 460.9 1234.4 L 461.7 1235.4 M 461.7 1235.4 L 462.5 1236.2 M 462.5 1236.2 L 463.3 1237 M 463.3 1237 L 463.7 1237.4 M 463.7 1237.4 L 464.2 1237.7 M 464.2 1237.7 L 464.8 1238.1 M 464.8 1238.1 L 465.5 1238.4 M 465.5 1238.4 L 465.5 1238.5 M 465.5 1238.5 L 463.6 1238.8 M 463.6 1238.8 L 462 1239.4 M 462 1239.4 L 460.6 1240.2 M 460.6 1240.2 L 459.5 1241.1 M 459.5 1241.1 L 458.7 1242.2 M 458.7 1242.2 L 458.1 1243.4 M 458.1 1243.4 L 457.7 1244.7 M 457.7 1244.7 L 457.6 1246.1 M 457.6 1246.1 L 457.7 1247.3 M 457.7 1247.3 L 457.9 1248.4 M 457.9 1248.4 L 458.2 1249.4 M 458.2 1249.4 L 458.8 1250.4 M 458.8 1250.4 L 459.4 1251.2 M 459.4 1251.2 L 460.1 1252 M 460.1 1252 L 461 1252.6 M 461 1252.6 L 461.9 1253.1 M 461.9 1253.1 L 463 1253.4 M 463 1253.4 L 464.3 1253.6 M 464.3 1253.6 L 465.8 1253.8 M 465.8 1253.8 L 467.6 1253.8 M 467.6 1253.8 L 480.1 1253.8 M 480.1 1253.8 L 480.1 1225.6 M 480.1 1225.6 L 476.4 1225.6 M 476.4 1225.6 L 476.4 1238.2 M 476.4 1241.4 L 476.4 1241.4 M 476.4 1241.4 L 468.4 1241.4 M 468.4 1241.4 L 467.1 1241.4 M 467.1 1241.4 L 466.1 1241.5 M 466.1 1241.5 L 465.1 1241.7 M 465.1 1241.7 L 464.4 1241.9 M 464.4 1241.9 L 463.7 1242.2 M 463.7 1242.2 L 463.1 1242.6 M 463.1 1242.6 L 462.6 1243.1 M 462.6 1243.1 L 462.1 1243.6 M 462.1 1243.6 L 461.8 1244.2 M 461.8 1244.2 L 461.6 1244.8 M 461.6 1244.8 L 461.4 1245.5 M 461.4 1245.5 L 461.4 1246.1 M 461.4 1246.1 L 461.5 1247.1 M 461.5 1247.1 L 461.8 1248 M 461.8 1248 L 462.2 1248.7 M 462.2 1248.7 L 462.9 1249.4 M 462.9 1249.4 L 463.7 1250 M 463.7 1250 L 464.7 1250.4 M 464.7 1250.4 L 466 1250.6 M 466 1250.6 L 467.5 1250.7 M 467.5 1250.7 L 476.4 1250.7 M 476.4 1250.7 L 476.4 1241.4 M 440.1 1253.9 L 440.1 1253.9 M 440.1 1253.9 L 442.3 1253.9 M 442.3 1253.9 L 442.8 1253 M 442.8 1253 L 442.9 1253 M 442.9 1253 L 443.5 1252.1 M 443.5 1252.1 L 443.5 1252.1 M 443.5 1252.1 L 444.4 1251.1 M 444.4 1251.1 L 444.4 1251.1 M 444.4 1251.1 L 445.4 1250.1 M 445.4 1250.1 L 445.4 1250.1 M 445.4 1250.1 L 446.5 1249.2 M 446.5 1249.2 L 446.5 1249.2 M 446.5 1249.2 L 447.7 1248.4 M 447.7 1248.4 L 447.7 1248.4 M 447.7 1248.4 L 449.1 1247.6 M 449.1 1247.6 L 449.1 1247.6 M 449.1 1247.6 L 450.5 1246.9 M 450.5 1246.9 L 450.5 1243.6 M 450.5 1243.6 L 449.6 1243.9 M 449.6 1243.9 L 448.8 1244.3 M 448.8 1244.3 L 447.8 1244.8 M 447.8 1244.8 L 446.8 1245.3 M 446.8 1245.3 L 445.9 1245.9 M 445.9 1245.9 L 445 1246.5 M 445 1246.5 L 444.2 1247.1 M 444.2 1247.1 L 443.6 1247.7 M 443.6 1247.7 L 443.5 1247.7 M 443.5 1247.7 L 443.5 1225.6 M 443.5 1225.6 L 440.1 1225.6 M 440.1 1225.6 L 440.1 1253.9"/><path stroke-width="5.9" fill="none" d="M 359.5 267.8 L 359.5 208.7 M 359.5 208.7 L 478.4 208.7 M 478.4 208.7 L 478.4 267.8 M 478.4 267.8 L 359.5 267.8"/><path stroke-width="8" fill="none" d="M 476.4 183.1 L 476.4 183.1 M 476.4 183.1 L 476.4 183.1 M 476.4 183.1 L 472 183.1 M 472 183.1 L 472 183.1 M 472 183.1 L 471.4 183.1 M 471.4 183.1 L 471.4 183.1 M 471.4 183.1 L 470.8 183 M 470.8 183 L 470.8 183 M 470.8 183 L 470.3 183 M 470.3 183 L 470.3 183 M 470.3 183 L 469.9 182.9 M 469.9 182.9 L 469.9 182.9 M 469.9 182.9 L 469.5 182.8 M 469.5 182.8 L 469.5 182.8 M 469.5 182.8 L 469.1 182.6 M 469.1 182.6 L 469.1 182.6 M 469.1 182.6 L 468.7 182.4 M 468.7 182.4 L 468.7 182.4 M 468.7 182.4 L 468.2 182.2 M 468.2 182.2 L 468.2 182.2 M 468.2 182.2 L 467.8 181.8 M 467.8 181.8 L 467.8 181.8 M 467.8 181.8 L 467.3 181.4 M 467.3 181.4 L 467.3 181.4 M 467.3 181.4 L 466.9 180.9 M 466.9 180.9 L 466.9 180.9 M 466.9 180.9 L 466.4 180.3 M 466.4 180.3 L 466.4 180.3 M 466.4 180.3 L 465.8 179.5 M 465.8 179.5 L 465.8 179.5 M 465.8 179.5 L 465.1 178.6 M 465.1 178.6 L 465.1 178.6 M 465.1 178.6 L 464.4 177.6 M 464.4 177.6 L 464.4 177.6 M 464.4 177.6 L 463.6 176.4 M 463.6 176.4 L 463.6 176.4 M 463.6 176.4 L 459.9 170.5 M 459.9 170.5 L 455.3 170.5 M 455.3 170.5 L 460.2 178.2 M 460.2 178.2 L 460.9 179.3 M 460.9 179.3 L 461.7 180.3 M 461.7 180.3 L 462.5 181.1 M 462.5 181.1 L 463.3 181.9 M 463.3 181.9 L 463.7 182.3 M 463.7 182.3 L 464.2 182.6 M 464.2 182.6 L 464.8 183 M 464.8 183 L 465.5 183.3 M 465.5 183.3 L 465.5 183.4 M 465.5 183.4 L 463.6 183.7 M 463.6 183.7 L 462 184.3 M 462 184.3 L 460.6 185.1 M 460.6 185.1 L 459.5 186 M 459.5 186 L 458.7 187.1 M 458.7 187.1 L 458.1 188.2 M 458.1 188.2 L 457.7 189.6 M 457.7 189.6 L 457.6 191 M 457.6 191 L 457.7 192.1 M 457.7 192.1 L 457.9 193.2 M 457.9 193.2 L 458.2 194.3 M 458.2 194.3 L 458.8 195.3 M 458.8 195.3 L 459.4 196.1 M 459.4 196.1 L 460.1 196.9 M 460.1 196.9 L 461 197.5 M 461 197.5 L 461.9 197.9 M 461.9 197.9 L 463 198.2 M 463 198.2 L 464.3 198.5 M 464.3 198.5 L 465.8 198.6 M 465.8 198.6 L 467.6 198.7 M 467.6 198.7 L 480.1 198.7 M 480.1 198.7 L 480.1 170.5 M 480.1 170.5 L 476.4 170.5 M 476.4 170.5 L 476.4 183.1 M 476.4 186.3 L 476.4 186.3 M 476.4 186.3 L 468.4 186.3 M 468.4 186.3 L 467.1 186.3 M 467.1 186.3 L 466.1 186.4 M 466.1 186.4 L 465.1 186.6 M 465.1 186.6 L 464.4 186.8 M 464.4 186.8 L 463.7 187.1 M 463.7 187.1 L 463.1 187.5 M 463.1 187.5 L 462.6 187.9 M 462.6 187.9 L 462.1 188.5 M 462.1 188.5 L 461.8 189.1 M 461.8 189.1 L 461.6 189.7 M 461.6 189.7 L 461.4 190.3 M 461.4 190.3 L 461.4 191 M 461.4 191 L 461.5 192 M 461.5 192 L 461.8 192.9 M 461.8 192.9 L 462.2 193.6 M 462.2 193.6 L 462.9 194.3 M 462.9 194.3 L 463.7 194.9 M 463.7 194.9 L 464.7 195.3 M 464.7 195.3 L 466 195.5 M 466 195.5 L 467.5 195.6 M 467.5 195.6 L 476.4 195.6 M 476.4 195.6 L 476.4 186.3 M 441.9 170.3 L 441.9 170.3 M 441.9 170.3 L 439.9 170.9 M 439.9 170.9 L 438.2 172 M 438.2 172 L 436.7 173.5 M 436.7 173.5 L 435.7 174.9 M 435.7 174.9 L 435 176.5 M 435 176.5 L 434.6 178.2 M 434.6 178.2 L 434.5 180.1 M 434.5 180.1 L 434.6 182 M 434.6 182 L 435.1 183.7 M 435.1 183.7 L 435.9 185.3 M 435.9 185.3 L 437 186.6 M 437 186.6 L 438.3 187.7 M 438.3 187.7 L 439.8 188.6 M 439.8 188.6 L 441.4 189 M 441.4 189 L 443.2 189.2 M 443.2 189.2 L 444.6 189.1 M 444.6 189.1 L 445.9 188.8 M 445.9 188.8 L 447.2 188.2 M 447.2 188.2 L 448.5 187.4 M 448.5 187.4 L 448.6 187.4 M 448.6 187.4 L 447 195 M 447 195 L 447 195 M 447 195 L 435.8 195 M 435.8 195 L 435.8 198.3 M 435.8 198.3 L 449.7 198.3 M 449.7 198.3 L 452.5 183.9 M 452.5 183.9 L 449.3 183.4 M 449.3 183.4 L 448.8 184 M 448.8 184 L 448.8 184 M 448.8 184 L 448.4 184.5 M 448.4 184.5 L 448.4 184.5 M 448.4 184.5 L 447.8 185 M 447.8 185 L 447.8 185 M 447.8 185 L 447.1 185.4 M 447.1 185.4 L 447.1 185.4 M 447.1 185.4 L 446.5 185.7 M 446.5 185.7 L 446.5 185.7 M 446.5 185.7 L 445.7 186 M 445.7 186 L 445.7 186 M 445.7 186 L 444.9 186.1 M 444.9 186.1 L 444.9 186.1 M 444.9 186.1 L 444.1 186.2 M 444.1 186.2 L 444.1 186.2 M 444.1 186.2 L 442.9 186.1 M 442.9 186.1 L 442.9 186.1 M 442.9 186.1 L 441.7 185.7 M 441.7 185.7 L 441.7 185.7 M 441.7 185.7 L 440.6 185.2 M 440.6 185.2 L 440.6 185.2 M 440.6 185.2 L 439.7 184.5 M 439.7 184.5 L 439.7 184.5 M 439.7 184.5 L 439 183.5 M 439 183.5 L 439 183.5 M 439 183.5 L 438.5 182.4 M 438.5 182.4 L 438.5 182.4 M 438.5 182.4 L 438.2 181.2 M 438.2 181.2 L 438.2 181.2 M 438.2 181.2 L 438.1 179.8 M 438.1 179.8 L 438.1 179.8 M 438.1 179.8 L 438.2 178.3 M 438.2 178.3 L 438.2 178.3 M 438.2 178.3 L 438.5 176.9 M 438.5 176.9 L 438.5 176.9 M 438.5 176.9 L 439.1 175.8 M 439.1 175.8 L 439.1 175.8 M 439.1 175.8 L 439.8 174.7 M 439.8 174.7 L 439.8 174.7 M 439.8 174.7 L 440.7 173.9 M 440.7 173.9 L 440.7 173.9 M 440.7 173.9 L 441.8 173.3 M 441.8 173.3 L 441.8 173.3 M 441.8 173.3 L 442.9 173 M 442.9 173 L 442.9 173 M 442.9 173 L 444.1 172.9 M 444.1 172.9 L 444.1 172.9 M 444.1 172.9 L 445.1 172.9 M 445.1 172.9 L 445.1 172.9 M 445.1 172.9 L 446 173.2 M 446 173.2 L 446 173.2 M 446 173.2 L 446.9 173.6 M 446.9 173.6 L 446.9 173.6 M 446.9 173.6 L 447.6 174.2 M 447.6 174.2 L 447.6 174.2 M 447.6 174.2 L 448.3 175 M 448.3 175 L 448.3 175 M 448.3 175 L 448.8 175.9 M 448.8 175.9 L 448.8 175.9 M 448.8 175.9 L 449.2 176.9 M 449.2 176.9 L 449.2 176.9 M 449.2 176.9 L 449.5 178.2 M 449.5 178.2 L 453.1 177.9 M 453.1 177.9 L 452.8 176.2 M 452.8 176.2 L 452.2 174.7 M 452.2 174.7 L 451.4 173.4 M 451.4 173.4 L 450.3 172.2 M 450.3 172.2 L 449 171.3 M 449 171.3 L 447.5 170.6 M 447.5 170.6 L 445.9 170.2 M 445.9 170.2 L 444.1 170.1 M 444.1 170.1 L 441.9 170.3"/><path stroke-width="5.9" fill="none" d="M 359.5 795.3 L 359.5 736.3 M 359.5 736.3 L 478.4 736.3 M 478.4 736.3 L 478.4 795.3 M 478.4 795.3 L 359.5 795.3"/><path stroke-width="8" fill="none" d="M 476.4 710.6 L 476.4 710.6 M 476.4 710.6 L 476.4 710.6 M 476.4 710.6 L 472 710.6 M 472 710.6 L 472 710.6 M 472 710.6 L 471.4 710.6 M 471.4 710.6 L 471.4 710.6 M 471.4 710.6 L 470.8 710.6 M 470.8 710.6 L 470.8 710.6 M 470.8 710.6 L 470.3 710.5 M 470.3 710.5 L 470.3 710.5 M 470.3 710.5 L 469.9 710.5 M 469.9 710.5 L 469.9 710.5 M 469.9 710.5 L 469.5 710.4 M 469.5 710.4 L 469.5 710.4 M 469.5 710.4 L 469.1 710.2 M 469.1 710.2 L 469.1 710.2 M 469.1 710.2 L 468.7 710 M 468.7 710 L 468.7 710 M 468.7 710 L 468.2 709.7 M 468.2 709.7 L 468.2 709.7 M 468.2 709.7 L 467.8 709.4 M 467.8 709.4 L 467.8 709.4 M 467.8 709.4 L 467.3 709 M 467.3 709 L 467.3 709 M 467.3 709 L 466.9 708.5 M 466.9 708.5 L 466.9 708.4 M 466.9 708.4 L 466.4 707.9 M 466.4 707.9 L 466.4 707.9 M 466.4 707.9 L 465.8 707.1 M 465.8 707.1 L 465.8 707.1 M 465.8 707.1 L 465.1 706.2 M 465.1 706.2 L 465.1 706.2 M 465.1 706.2 L 464.4 705.1 M 464.4 705.1 L 464.4 705.1 M 464.4 705.1 L 463.6 704 M 463.6 704 L 463.6 704 M 463.6 704 L 459.9 698.1 M 459.9 698.1 L 455.3 698.1 M 455.3 698.1 L 460.2 705.7 M 460.2 705.7 L 460.9 706.8 M 460.9 706.8 L 461.7 707.8 M 461.7 707.8 L 462.5 708.7 M 462.5 708.7 L 463.3 709.5 M 463.3 709.5 L 463.7 709.8 M 463.7 709.8 L 464.2 710.2 M 464.2 710.2 L 464.8 710.5 M 464.8 710.5 L 465.5 710.9 M 465.5 710.9 L 465.5 710.9 M 465.5 710.9 L 463.6 711.3 M 463.6 711.3 L 462 711.9 M 462 711.9 L 460.6 712.6 M 460.6 712.6 L 459.5 713.5 M 459.5 713.5 L 458.7 714.6 M 458.7 714.6 L 458.1 715.8 M 458.1 715.8 L 457.7 717.1 M 457.7 717.1 L 457.6 718.6 M 457.6 718.6 L 457.7 719.7 M 457.7 719.7 L 457.9 720.8 M 457.9 720.8 L 458.2 721.8 M 458.2 721.8 L 458.8 722.8 M 458.8 722.8 L 459.4 723.7 M 459.4 723.7 L 460.1 724.4 M 460.1 724.4 L 461 725 M 461 725 L 461.9 725.5 M 461.9 725.5 L 463 725.8 M 463 725.8 L 464.3 726 M 464.3 726 L 465.8 726.2 M 465.8 726.2 L 467.6 726.2 M 467.6 726.2 L 480.1 726.2 M 480.1 726.2 L 480.1 698.1 M 480.1 698.1 L 476.4 698.1 M 476.4 698.1 L 476.4 710.6 M 476.4 713.8 L 476.4 713.8 M 476.4 713.8 L 468.4 713.8 M 468.4 713.8 L 467.1 713.9 M 467.1 713.9 L 466.1 714 M 466.1 714 L 465.1 714.1 M 465.1 714.1 L 464.4 714.4 M 464.4 714.4 L 463.7 714.7 M 463.7 714.7 L 463.1 715.1 M 463.1 715.1 L 462.6 715.5 M 462.6 715.5 L 462.1 716 M 462.1 716 L 461.8 716.6 M 461.8 716.6 L 461.6 717.3 M 461.6 717.3 L 461.4 717.9 M 461.4 717.9 L 461.4 718.6 M 461.4 718.6 L 461.5 719.5 M 461.5 719.5 L 461.8 720.4 M 461.8 720.4 L 462.2 721.2 M 462.2 721.2 L 462.9 721.9 M 462.9 721.9 L 463.7 722.4 M 463.7 722.4 L 464.7 722.8 M 464.7 722.8 L 466 723.1 M 466 723.1 L 467.5 723.2 M 467.5 723.2 L 476.4 723.2 M 476.4 723.2 L 476.4 713.8 M 442.2 697.8 L 442.2 697.8 M 442.2 697.8 L 440.4 698.2 M 440.4 698.2 L 438.8 699 M 438.8 699 L 437.3 700.2 M 437.3 700.2 L 436.2 701.5 M 436.2 701.5 L 435.3 703 M 435.3 703 L 434.8 704.6 M 434.8 704.6 L 434.7 706.4 M 434.7 706.4 L 434.7 707.7 M 434.7 707.7 L 435 708.9 M 435 708.9 L 435.5 710 M 435.5 710 L 436 710.9 M 436 710.9 L 436.8 711.8 M 436.8 711.8 L 437.7 712.5 M 437.7 712.5 L 438.8 713 M 438.8 713 L 439.9 713.3 M 439.9 713.3 L 439.9 713.4 M 439.9 713.4 L 439 713.8 M 439 713.8 L 438.2 714.4 M 438.2 714.4 L 437.6 715 M 437.6 715 L 437 715.7 M 437 715.7 L 436.6 716.5 M 436.6 716.5 L 436.3 717.3 M 436.3 717.3 L 436.1 718.2 M 436.1 718.2 L 436 719.1 M 436 719.1 L 436.1 720 M 436.1 720 L 436.3 720.9 M 436.3 720.9 L 436.6 721.8 M 436.6 721.8 L 437.1 722.7 M 437.1 722.7 L 437.7 723.5 M 437.7 723.5 L 438.3 724.2 M 438.3 724.2 L 439.1 724.8 M 439.1 724.8 L 440.1 725.4 M 440.1 725.4 L 441 725.8 M 441 725.8 L 442.1 726.1 M 442.1 726.1 L 443.2 726.3 M 443.2 726.3 L 444.3 726.4 M 444.3 726.4 L 445.9 726.2 M 445.9 726.2 L 447.3 725.9 M 447.3 725.9 L 448.7 725.3 M 448.7 725.3 L 449.9 724.5 M 449.9 724.5 L 450.9 723.4 M 450.9 723.4 L 451.7 722.1 M 451.7 722.1 L 452.3 720.7 M 452.3 720.7 L 452.7 719.1 M 452.7 719.1 L 449.3 718.5 M 449.3 718.5 L 449.1 719.7 M 449.1 719.7 L 449.1 719.7 M 449.1 719.7 L 448.7 720.7 M 448.7 720.7 L 448.7 720.7 M 448.7 720.7 L 448.2 721.6 M 448.2 721.6 L 448.2 721.6 M 448.2 721.6 L 447.6 722.3 M 447.6 722.3 L 447.6 722.3 M 447.6 722.3 L 446.9 722.9 M 446.9 722.9 L 446.9 722.9 M 446.9 722.9 L 446 723.2 M 446 723.2 L 446 723.2 M 446 723.2 L 445.2 723.5 M 445.2 723.5 L 445.2 723.5 M 445.2 723.5 L 444.2 723.6 M 444.2 723.6 L 444.2 723.6 M 444.2 723.6 L 443.2 723.5 M 443.2 723.5 L 443.2 723.5 M 443.2 723.5 L 442.3 723.2 M 442.3 723.2 L 442.3 723.2 M 442.3 723.2 L 441.6 722.9 M 441.6 722.9 L 441.6 722.9 M 441.6 722.9 L 440.8 722.3 M 440.8 722.3 L 440.8 722.3 M 440.8 722.3 L 440.3 721.6 M 440.3 721.6 L 440.3 721.6 M 440.3 721.6 L 439.9 720.9 M 439.9 720.9 L 439.9 720.9 M 439.9 720.9 L 439.7 720.1 M 439.7 720.1 L 439.7 720.1 M 439.7 720.1 L 439.6 719.1 M 439.6 719.1 L 439.6 719.1 M 439.6 719.1 L 439.7 718 M 439.7 718 L 439.7 718 M 439.7 718 L 440 717 M 440 717 L 440 717 M 440 717 L 440.6 716.2 M 440.6 716.2 L 440.6 716.2 M 440.6 716.2 L 441.4 715.6 M 441.4 715.6 L 441.4 715.6 M 441.4 715.6 L 442.3 715.1 M 442.3 715.1 L 442.3 715.1 M 442.3 715.1 L 443.2 714.7 M 443.2 714.7 L 443.2 714.7 M 443.2 714.7 L 444.3 714.5 M 444.3 714.5 L 444.3 714.5 M 444.3 714.5 L 445.3 714.4 M 445.3 714.4 L 445.3 714.4 M 445.3 714.4 L 445.5 714.4 M 445.5 714.4 L 445.5 714.4 M 445.5 714.4 L 445.6 714.4 M 445.6 714.4 L 445.6 714.4 M 445.6 714.4 L 445.7 714.4 M 445.7 714.4 L 445.7 714.4 M 445.7 714.4 L 445.9 714.4 M 445.9 714.4 L 446.2 711.4 M 446.2 711.4 L 445.6 711.6 M 445.6 711.6 L 445.6 711.6 M 445.6 711.6 L 444.9 711.7 M 444.9 711.7 L 444.9 711.7 M 444.9 711.7 L 444.4 711.8 M 444.4 711.8 L 444.4 711.8 M 444.4 711.8 L 443.8 711.8 M 443.8 711.8 L 443.8 711.8 M 443.8 711.8 L 442.7 711.7 M 442.7 711.7 L 442.7 711.7 M 442.7 711.7 L 441.6 711.4 M 441.6 711.4 L 441.6 711.4 M 441.6 711.4 L 440.7 711 M 440.7 711 L 440.7 711 M 440.7 711 L 439.9 710.3 M 439.9 710.3 L 439.9 710.3 M 439.9 710.3 L 439.2 709.4 M 439.2 709.4 L 439.2 709.4 M 439.2 709.4 L 438.7 708.5 M 438.7 708.5 L 438.7 708.5 M 438.7 708.5 L 438.4 707.5 M 438.4 707.5 L 438.4 707.5 M 438.4 707.5 L 438.3 706.3 M 438.3 706.3 L 438.3 706.3 M 438.3 706.3 L 438.4 705.1 M 438.4 705.1 L 438.4 705.1 M 438.4 705.1 L 438.7 704 M 438.7 704 L 438.7 704 M 438.7 704 L 439.2 703 M 439.2 703 L 439.2 703 M 439.2 703 L 440 702.1 M 440 702.1 L 440 702.1 M 440 702.1 L 440.9 701.4 M 440.9 701.4 L 440.9 701.4 M 440.9 701.4 L 441.9 700.8 M 441.9 700.8 L 441.9 700.8 M 441.9 700.8 L 442.9 700.5 M 442.9 700.5 L 442.9 700.5 M 442.9 700.5 L 444.1 700.4 M 444.1 700.4 L 444.1 700.4 M 444.1 700.4 L 445.1 700.5 M 445.1 700.5 L 445.1 700.5 M 445.1 700.5 L 446 700.8 M 446 700.8 L 446 700.8 M 446 700.8 L 446.9 701.2 M 446.9 701.2 L 446.9 701.2 M 446.9 701.2 L 447.6 701.7 M 447.6 701.7 L 447.6 701.7 M 447.6 701.7 L 448.3 702.5 M 448.3 702.5 L 448.3 702.5 M 448.3 702.5 L 448.8 703.4 M 448.8 703.4 L 448.8 703.4 M 448.8 703.4 L 449.3 704.6 M 449.3 704.6 L 449.3 704.6 M 449.3 704.6 L 449.7 706 M 449.7 706 L 453.1 705.5 M 453.1 705.5 L 452.8 703.8 M 452.8 703.8 L 452.2 702.3 M 452.2 702.3 L 451.4 701 M 451.4 701 L 450.3 699.8 M 450.3 699.8 L 449 698.8 M 449 698.8 L 447.5 698.2 M 447.5 698.2 L 445.9 697.7 M 445.9 697.7 L 444.2 697.6 M 444.2 697.6 L 442.2 697.8"/><path stroke-width="5.9" fill="none" d="M 359.5 1058.1 L 359.5 999.1 M 359.5 999.1 L 478.4 999.1 M 478.4 999.1 L 478.4 1058.1 M 478.4 1058.1 L 359.5 1058.1"/><path stroke-width="8" fill="none" d="M 476.4 973.4 L 476.4 973.4 M 476.4 973.4 L 476.4 973.4 M 476.4 973.4 L 472 973.4 M 472 973.4 L 472 973.4 M 472 973.4 L 471.4 973.4 M 471.4 973.4 L 471.4 973.4 M 471.4 973.4 L 470.8 973.4 M 470.8 973.4 L 470.8 973.4 M 470.8 973.4 L 470.3 973.3 M 470.3 973.3 L 470.3 973.3 M 470.3 973.3 L 469.9 973.3 M 469.9 973.3 L 469.9 973.3 M 469.9 973.3 L 469.5 973.2 M 469.5 973.2 L 469.5 973.2 M 469.5 973.2 L 469.1 973 M 469.1 973 L 469.1 973 M 469.1 973 L 468.7 972.8 M 468.7 972.8 L 468.7 972.8 M 468.7 972.8 L 468.2 972.5 M 468.2 972.5 L 468.2 972.5 M 468.2 972.5 L 467.8 972.2 M 467.8 972.2 L 467.8 972.2 M 467.8 972.2 L 467.3 971.8 M 467.3 971.8 L 467.3 971.8 M 467.3 971.8 L 466.9 971.3 M 466.9 971.3 L 466.9 971.2 M 466.9 971.2 L 466.4 970.6 M 466.4 970.6 L 466.4 970.6 M 466.4 970.6 L 465.8 969.9 M 465.8 969.9 L 465.8 969.9 M 465.8 969.9 L 465.1 969 M 465.1 969 L 465.1 969 M 465.1 969 L 464.4 967.9 M 464.4 967.9 L 464.4 967.9 M 464.4 967.9 L 463.6 966.8 M 463.6 966.8 L 463.6 966.8 M 463.6 966.8 L 459.9 960.9 M 459.9 960.9 L 455.3 960.9 M 455.3 960.9 L 460.2 968.5 M 460.2 968.5 L 460.9 969.6 M 460.9 969.6 L 461.7 970.6 M 461.7 970.6 L 462.5 971.5 M 462.5 971.5 L 463.3 972.3 M 463.3 972.3 L 463.7 972.6 M 463.7 972.6 L 464.2 973 M 464.2 973 L 464.8 973.3 M 464.8 973.3 L 465.5 973.7 M 465.5 973.7 L 465.5 973.7 M 465.5 973.7 L 463.6 974.1 M 463.6 974.1 L 462 974.7 M 462 974.7 L 460.6 975.4 M 460.6 975.4 L 459.5 976.3 M 459.5 976.3 L 458.7 977.4 M 458.7 977.4 L 458.1 978.6 M 458.1 978.6 L 457.7 979.9 M 457.7 979.9 L 457.6 981.4 M 457.6 981.4 L 457.7 982.5 M 457.7 982.5 L 457.9 983.6 M 457.9 983.6 L 458.2 984.6 M 458.2 984.6 L 458.8 985.6 M 458.8 985.6 L 459.4 986.5 M 459.4 986.5 L 460.1 987.2 M 460.1 987.2 L 461 987.8 M 461 987.8 L 461.9 988.3 M 461.9 988.3 L 463 988.6 M 463 988.6 L 464.3 988.8 M 464.3 988.8 L 465.8 989 M 465.8 989 L 467.6 989 M 467.6 989 L 480.1 989 M 480.1 989 L 480.1 960.9 M 480.1 960.9 L 476.4 960.9 M 476.4 960.9 L 476.4 973.4 M 476.4 976.6 L 476.4 976.6 M 476.4 976.6 L 468.4 976.6 M 468.4 976.6 L 467.1 976.7 M 467.1 976.7 L 466.1 976.8 M 466.1 976.8 L 465.1 976.9 M 465.1 976.9 L 464.4 977.1 M 464.4 977.1 L 463.7 977.5 M 463.7 977.5 L 463.1 977.9 M 463.1 977.9 L 462.6 978.3 M 462.6 978.3 L 462.1 978.8 M 462.1 978.8 L 461.8 979.4 M 461.8 979.4 L 461.6 980.1 M 461.6 980.1 L 461.4 980.7 M 461.4 980.7 L 461.4 981.4 M 461.4 981.4 L 461.5 982.3 M 461.5 982.3 L 461.8 983.2 M 461.8 983.2 L 462.2 984 M 462.2 984 L 462.9 984.7 M 462.9 984.7 L 463.7 985.2 M 463.7 985.2 L 464.7 985.6 M 464.7 985.6 L 466 985.8 M 466 985.8 L 467.5 986 M 467.5 986 L 476.4 986 M 476.4 986 L 476.4 976.6 M 434.9 964.2 L 434.9 964.2 M 434.9 964.2 L 448.8 964.2 M 448.8 964.2 L 448.8 964.2 M 448.8 964.2 L 448.5 964.7 M 448.5 964.7 L 448.5 964.7 M 448.5 964.7 L 448.1 965.1 M 448.1 965.1 L 448.1 965.1 M 448.1 965.1 L 447.7 965.6 M 447.7 965.6 L 447.7 965.6 M 447.7 965.6 L 447.3 966.1 M 447.3 966.1 L 447.3 966.1 M 447.3 966.1 L 446.7 966.7 M 446.7 966.7 L 446.7 966.7 M 446.7 966.7 L 445.9 967.5 M 445.9 967.5 L 445.9 967.5 M 445.9 967.5 L 444.7 968.4 M 444.7 968.4 L 444.7 968.4 M 444.7 968.4 L 443.3 969.6 M 443.3 969.6 L 441.6 971.1 M 441.6 971.1 L 440.1 972.5 M 440.1 972.5 L 438.9 973.6 M 438.9 973.6 L 438 974.6 M 438 974.6 L 437.2 975.5 M 437.2 975.5 L 436.6 976.4 M 436.6 976.4 L 436.1 977.2 M 436.1 977.2 L 435.7 978.1 M 435.7 978.1 L 435.4 978.8 M 435.4 978.8 L 435.2 979.7 M 435.2 979.7 L 435.1 980.5 M 435.1 980.5 L 435 981.4 M 435 981.4 L 435.1 982.9 M 435.1 982.9 L 435.6 984.4 M 435.6 984.4 L 436.3 985.7 M 436.3 985.7 L 437.3 986.9 M 437.3 986.9 L 438.6 987.9 M 438.6 987.9 L 440.1 988.6 M 440.1 988.6 L 441.8 989 M 441.8 989 L 443.8 989.2 M 443.8 989.2 L 445.6 989 M 445.6 989 L 447.4 988.6 M 447.4 988.6 L 448.9 988 M 448.9 988 L 450.1 987.1 M 450.1 987.1 L 451.2 985.9 M 451.2 985.9 L 452 984.5 M 452 984.5 L 452.6 982.9 M 452.6 982.9 L 452.9 981 M 452.9 981 L 449.4 980.7 M 449.4 980.7 L 449.3 981.9 M 449.3 981.9 L 449.3 981.9 M 449.3 981.9 L 449 983 M 449 983 L 449 983 M 449 983 L 448.5 984 M 448.5 984 L 448.5 984 M 448.5 984 L 447.9 984.8 M 447.9 984.8 L 447.9 984.8 M 447.9 984.8 L 447 985.5 M 447 985.5 L 447 985.5 M 447 985.5 L 446.1 986 M 446.1 986 L 446.1 986 M 446.1 986 L 445 986.2 M 445 986.2 L 445 986.2 M 445 986.2 L 443.8 986.3 M 443.8 986.3 L 443.8 986.3 M 443.8 986.3 L 442.7 986.2 M 442.7 986.2 L 442.7 986.2 M 442.7 986.2 L 441.7 986 M 441.7 986 L 441.7 986 M 441.7 986 L 440.8 985.5 M 440.8 985.5 L 440.8 985.5 M 440.8 985.5 L 440 984.9 M 440 984.9 L 440 984.9 M 440 984.9 L 439.4 984.2 M 439.4 984.2 L 439.4 984.2 M 439.4 984.2 L 438.9 983.3 M 438.9 983.3 L 438.9 983.3 M 438.9 983.3 L 438.6 982.4 M 438.6 982.4 L 438.6 982.4 M 438.6 982.4 L 438.5 981.4 M 438.5 981.4 L 438.5 981.4 M 438.5 981.4 L 438.6 980.4 M 438.6 980.4 L 438.6 980.4 M 438.6 980.4 L 438.9 979.4 M 438.9 979.4 L 438.9 979.4 M 438.9 979.4 L 439.4 978.3 M 439.4 978.3 L 439.4 978.3 M 439.4 978.3 L 440.1 977.3 M 440.1 977.3 L 440.1 977.3 M 440.1 977.3 L 441.1 976 M 441.1 976 L 441.1 976 M 441.1 976 L 442.5 974.7 M 442.5 974.7 L 442.5 974.7 M 442.5 974.7 L 444.2 973.1 M 444.2 973.1 L 444.2 973.1 M 444.2 973.1 L 446.4 971.3 M 446.4 971.3 L 446.4 971.3 M 446.4 971.3 L 447.7 970.1 M 447.7 970.1 L 449 969 M 449 969 L 450 968 M 450 968 L 450.9 967 M 450.9 967 L 451.6 966.1 M 451.6 966.1 L 452.2 965.2 M 452.2 965.2 L 452.7 964.2 M 452.7 964.2 L 453.1 963.3 M 453.1 963.3 L 453.3 962.7 M 453.3 962.7 L 453.4 962.1 M 453.4 962.1 L 453.5 961.5 M 453.5 961.5 L 453.6 960.9 M 453.6 960.9 L 434.9 960.9 M 434.9 960.9 L 434.9 964.2"/><path stroke-width="5.9" fill="none" d="M 359.5 531.6 L 359.5 472.5 M 359.5 472.5 L 478.4 472.5 M 478.4 472.5 L 478.4 531.6 M 478.4 531.6 L 359.5 531.6"/><path stroke-width="8" fill="none" d="M 476.4 446.8 L 476.4 446.8 M 476.4 446.8 L 476.4 446.8 M 476.4 446.8 L 472 446.8 M 472 446.8 L 472 446.8 M 472 446.8 L 471.4 446.8 M 471.4 446.8 L 471.4 446.8 M 471.4 446.8 L 470.8 446.8 M 470.8 446.8 L 470.8 446.8 M 470.8 446.8 L 470.3 446.8 M 470.3 446.8 L 470.3 446.8 M 470.3 446.8 L 469.9 446.7 M 469.9 446.7 L 469.9 446.7 M 469.9 446.7 L 469.5 446.6 M 469.5 446.6 L 469.5 446.6 M 469.5 446.6 L 469.1 446.4 M 469.1 446.4 L 469.1 446.4 M 469.1 446.4 L 468.7 446.2 M 468.7 446.2 L 468.7 446.2 M 468.7 446.2 L 468.2 446 M 468.2 446 L 468.2 446 M 468.2 446 L 467.8 445.6 M 467.8 445.6 L 467.8 445.6 M 467.8 445.6 L 467.3 445.2 M 467.3 445.2 L 467.3 445.2 M 467.3 445.2 L 466.9 444.7 M 466.9 444.7 L 466.9 444.7 M 466.9 444.7 L 466.4 444.1 M 466.4 444.1 L 466.4 444.1 M 466.4 444.1 L 465.8 443.3 M 465.8 443.3 L 465.8 443.3 M 465.8 443.3 L 465.1 442.4 M 465.1 442.4 L 465.1 442.4 M 465.1 442.4 L 464.4 441.4 M 464.4 441.4 L 464.4 441.4 M 464.4 441.4 L 463.6 440.2 M 463.6 440.2 L 463.6 440.2 M 463.6 440.2 L 459.9 434.3 M 459.9 434.3 L 455.3 434.3 M 455.3 434.3 L 460.2 441.9 M 460.2 441.9 L 460.9 443.1 M 460.9 443.1 L 461.7 444 M 461.7 444 L 462.5 444.9 M 462.5 444.9 L 463.3 445.7 M 463.3 445.7 L 463.7 446 M 463.7 446 L 464.2 446.4 M 464.2 446.4 L 464.8 446.8 M 464.8 446.8 L 465.5 447.1 M 465.5 447.1 L 465.5 447.1 M 465.5 447.1 L 463.6 447.5 M 463.6 447.5 L 462 448.1 M 462 448.1 L 460.6 448.8 M 460.6 448.8 L 459.5 449.7 M 459.5 449.7 L 458.7 450.8 M 458.7 450.8 L 458.1 452 M 458.1 452 L 457.7 453.4 M 457.7 453.4 L 457.6 454.8 M 457.6 454.8 L 457.7 455.9 M 457.7 455.9 L 457.9 457 M 457.9 457 L 458.2 458.1 M 458.2 458.1 L 458.8 459 M 458.8 459 L 459.4 459.9 M 459.4 459.9 L 460.1 460.6 M 460.1 460.6 L 461 461.2 M 461 461.2 L 461.9 461.7 M 461.9 461.7 L 463 462 M 463 462 L 464.3 462.3 M 464.3 462.3 L 465.8 462.4 M 465.8 462.4 L 467.6 462.5 M 467.6 462.5 L 480.1 462.5 M 480.1 462.5 L 480.1 434.3 M 480.1 434.3 L 476.4 434.3 M 476.4 434.3 L 476.4 446.8 M 476.4 450.1 L 476.4 450.1 M 476.4 450.1 L 468.4 450.1 M 468.4 450.1 L 467.1 450.1 M 467.1 450.1 L 466.1 450.2 M 466.1 450.2 L 465.1 450.3 M 465.1 450.3 L 464.4 450.6 M 464.4 450.6 L 463.7 450.9 M 463.7 450.9 L 463.1 451.3 M 463.1 451.3 L 462.6 451.7 M 462.6 451.7 L 462.1 452.3 M 462.1 452.3 L 461.8 452.9 M 461.8 452.9 L 461.6 453.5 M 461.6 453.5 L 461.4 454.1 M 461.4 454.1 L 461.4 454.8 M 461.4 454.8 L 461.5 455.8 M 461.5 455.8 L 461.8 456.6 M 461.8 456.6 L 462.2 457.4 M 462.2 457.4 L 462.9 458.1 M 462.9 458.1 L 463.7 458.6 M 463.7 458.6 L 464.7 459 M 464.7 459 L 466 459.3 M 466 459.3 L 467.5 459.4 M 467.5 459.4 L 476.4 459.4 M 476.4 459.4 L 476.4 450.1 M 438.6 441 L 438.6 441 M 438.6 441 L 438.6 441.1 M 438.6 441.1 L 434.8 441.1 M 434.8 441.1 L 434.8 444.2 M 434.8 444.2 L 438.6 444.2 M 438.6 444.2 L 438.6 444.2 M 438.6 444.2 L 438.6 462.5 M 438.6 462.5 L 441.4 462.5 M 441.4 462.5 L 454.2 444.2 M 454.2 444.2 L 454.2 441.1 M 454.2 441.1 L 442 441.1 M 442 441.1 L 442 441 M 442 441 L 442 434.3 M 442 434.3 L 438.6 434.3 M 438.6 434.3 L 438.6 441 M 442.1 456.9 L 442.1 456.9 M 442.1 456.9 L 450.8 444.2 M 450.8 444.2 L 442.1 444.2 M 442.1 444.2 L 442.1 456.9"/></g></g><use class="pcb_board-cf" mask="url(#pcb_bottom-cu_finish-mask)" xlink:href="#pcb_bottom-sm"/></g></g></svg>