<?xml-stylesheet href="https://s3.amazonaws.com/maker.works.boards/css/blackpcb.css" type="text/css"?><svg xmlns="http://www.w3.org/2000/svg" version="1.1" xmlns:xlink="http://www.w3.org/1999/xlink" stroke-width="0" stroke-linecap="round" stroke-linejoin="round" width="0.7874in" height="1.3386in" id="pcb_bottom" viewBox="7.5 7.5 787.4 1338.6"><defs><circle cx="0" cy="0" r="19.5" id="tool-T10-pad-1000"/><circle cx="0" cy="0" r="22.5" id="tool-T11-pad-1001"/><rect x="-13.203" y="-25.998" width="26.406" height="51.996" transform="rotate(180)" id="tool-D11-pad-1003"/><rect x="-29.55" y="-29.55" width="59.1" height="59.1" id="tool-D12-pad-1004"/><circle cx="0" cy="0" r="29.55" id="tool-D13-pad-1005"/><rect x="-34.45" y="-34.45" width="68.9" height="68.9" id="tool-D14-pad-1006"/><circle cx="0" cy="0" r="34.45" id="tool-D15-pad-1007"/><rect x="-13.203" y="-25.998" width="26.406" height="51.996" transform="rotate(180)" id="tool-D10-pad-1009"/><rect x="-29.55" y="-29.55" width="59.1" height="59.1" id="tool-D11-pad-1010"/><circle cx="0" cy="0" r="29.55" id="tool-D12-pad-1011"/><rect x="-34.45" y="-34.45" width="68.9" height="68.9" id="tool-D13-pad-1012"/><circle cx="0" cy="0" r="34.45" id="tool-D14-pad-1013"/><g id="pcb_bottom-cu" fill="currentColor" stroke="currentColor"><path stroke-width="9.8" fill="none" d="M 273.2 588.2 L 327.4 642.3 M 124.6 60.6 L 76.4 108.9 M 153.2 1116.2 L 153.2 1218.1 M 153.2 918.1 L 153.2 1018.1 M 153.2 318.1 L 153.2 418.1 M 457.9 118.1 L 377.6 198.4 M 653.2 1118.1 L 653.2 1218.1 M 153.2 218.1 L 263.4 328.4 M 460.3 1029.2 L 535.1 1029.2 M 273.2 60.6 L 124.6 60.6 M 460.3 1293.3 L 529.1 1293.3 M 273.2 328.4 L 327.4 382.5 M 460.3 765.8 L 529.2 765.8 M 228.4 1293.3 L 269.3 1293.3 M 327.4 382.5 L 327.4 534.1 M 76.4 108.9 L 76.4 186.6 M 465.2 237.8 L 522.3 237.8 M 76.4 186.6 L 107.9 218.1 M 327.4 1062 L 273.2 1116.2 M 653.2 118.1 L 457.9 118.1 M 153.2 118.1 L 297.3 118.1 M 327.4 906.1 L 327.4 1062 M 297.3 118.1 L 377.6 198.4 M 153.2 518.1 L 153.2 618.1 M 460.3 501.6 L 528.7 501.6 M 653.2 718.1 L 653.2 818.1 M 327.4 797.9 L 273.2 852 M 653.2 518.1 L 653.2 618.1 M 107.9 218.1 L 153.2 218.1 M 153.2 1218.1 L 228.4 1293.3 M 327.4 642.3 L 327.4 797.9 M 263.4 328.4 L 273.2 328.4 M 377.6 198.4 L 377.6 1293.3 M 653.2 918.1 L 653.2 1018.1 M 153.2 718.1 L 153.2 818.1 M 273.2 852 L 327.4 906.1 M 327.4 534.1 L 273.2 588.2 M 653.2 318.1 L 653.2 418.1"/><use x="460.3" y="1293.4" xlink:href="#tool-D11-pad-1003"/><use x="377.6" y="1293.4" xlink:href="#tool-D11-pad-1003"/><use x="273.2" y="501.6" xlink:href="#tool-D12-pad-1004"/><use x="273.2" y="324.4" xlink:href="#tool-D13-pad-1005"/><use x="529.2" y="324.4" xlink:href="#tool-D13-pad-1005"/><use x="529.2" y="501.6" xlink:href="#tool-D13-pad-1005"/><use x="273.2" y="1293.3" xlink:href="#tool-D12-pad-1004"/><use x="273.2" y="1116.2" xlink:href="#tool-D13-pad-1005"/><use x="529.2" y="1116.2" xlink:href="#tool-D13-pad-1005"/><use x="529.2" y="1293.3" xlink:href="#tool-D13-pad-1005"/><use x="653.2" y="1218.1" xlink:href="#tool-D14-pad-1006"/><use x="653.2" y="1118.1" xlink:href="#tool-D15-pad-1007"/><use x="653.2" y="1018.1" xlink:href="#tool-D15-pad-1007"/><use x="653.2" y="918.1" xlink:href="#tool-D15-pad-1007"/><use x="653.2" y="818.1" xlink:href="#tool-D15-pad-1007"/><use x="653.2" y="718.1" xlink:href="#tool-D15-pad-1007"/><use x="653.2" y="618.1" xlink:href="#tool-D15-pad-1007"/><use x="653.2" y="518.1" xlink:href="#tool-D15-pad-1007"/><use x="653.2" y="418.1" xlink:href="#tool-D15-pad-1007"/><use x="653.2" y="318.1" xlink:href="#tool-D15-pad-1007"/><use x="653.2" y="218.1" xlink:href="#tool-D15-pad-1007"/><use x="653.2" y="118.1" xlink:href="#tool-D15-pad-1007"/><use x="460.3" y="238.2" xlink:href="#tool-D11-pad-1003"/><use x="377.6" y="238.2" xlink:href="#tool-D11-pad-1003"/><use x="153.2" y="1218.1" xlink:href="#tool-D14-pad-1006"/><use x="153.2" y="1118.1" xlink:href="#tool-D15-pad-1007"/><use x="153.2" y="1018.1" xlink:href="#tool-D15-pad-1007"/><use x="153.2" y="918.1" xlink:href="#tool-D15-pad-1007"/><use x="153.2" y="818.1" xlink:href="#tool-D15-pad-1007"/><use x="153.2" y="718.1" xlink:href="#tool-D15-pad-1007"/><use x="153.2" y="618.1" xlink:href="#tool-D15-pad-1007"/><use x="153.2" y="518.1" xlink:href="#tool-D15-pad-1007"/><use x="153.2" y="418.1" xlink:href="#tool-D15-pad-1007"/><use x="153.2" y="318.1" xlink:href="#tool-D15-pad-1007"/><use x="153.2" y="218.1" xlink:href="#tool-D15-pad-1007"/><use x="153.2" y="118.1" xlink:href="#tool-D15-pad-1007"/><use x="460.3" y="1028.6" xlink:href="#tool-D11-pad-1003"/><use x="377.6" y="1028.6" xlink:href="#tool-D11-pad-1003"/><use x="460.3" y="502" xlink:href="#tool-D11-pad-1003"/><use x="377.6" y="502" xlink:href="#tool-D11-pad-1003"/><use x="273.2" y="765.4" xlink:href="#tool-D12-pad-1004"/><use x="273.2" y="588.2" xlink:href="#tool-D13-pad-1005"/><use x="529.2" y="588.2" xlink:href="#tool-D13-pad-1005"/><use x="529.2" y="765.4" xlink:href="#tool-D13-pad-1005"/><use x="460.3" y="765.8" xlink:href="#tool-D11-pad-1003"/><use x="377.6" y="765.8" xlink:href="#tool-D11-pad-1003"/><use x="273.2" y="237.8" xlink:href="#tool-D12-pad-1004"/><use x="273.2" y="60.6" xlink:href="#tool-D13-pad-1005"/><use x="529.2" y="60.6" xlink:href="#tool-D13-pad-1005"/><use x="529.2" y="237.8" xlink:href="#tool-D13-pad-1005"/><use x="273.2" y="1029.2" xlink:href="#tool-D12-pad-1004"/><use x="273.2" y="852" xlink:href="#tool-D13-pad-1005"/><use x="529.2" y="852" xlink:href="#tool-D13-pad-1005"/><use x="529.2" y="1029.2" xlink:href="#tool-D13-pad-1005"/></g><mask id="pcb_bottom_mech-mask" fill="#fff" stroke="#fff" fill-rule="evenodd"><path stroke-width="0" d="M 125.6 7.5 Z M 125.6 7.5 A 196.8527622361444 196.8527622361444 0 0 0 7.5 125.6 L 7.5 1228 A 196.8527622361444 196.8527622361444 0 0 0 125.6 1346.1 L 676.8 1346.1 A 196.8527622361444 196.8527622361444 0 0 0 794.9 1228 L 794.9 125.6 A 196.8527622361444 196.8527622361444 0 0 0 676.8 7.5 Z"/><g id="pcb_bottom-drl" fill="#000" stroke="#000"><use x="273.2" y="501.6" xlink:href="#tool-T10-pad-1000"/><use x="273.2" y="324.4" xlink:href="#tool-T10-pad-1000"/><use x="529.2" y="324.4" xlink:href="#tool-T10-pad-1000"/><use x="529.2" y="501.6" xlink:href="#tool-T10-pad-1000"/><use x="273.2" y="1293.3" xlink:href="#tool-T10-pad-1000"/><use x="273.2" y="1116.2" xlink:href="#tool-T10-pad-1000"/><use x="529.2" y="1116.2" xlink:href="#tool-T10-pad-1000"/><use x="529.2" y="1293.3" xlink:href="#tool-T10-pad-1000"/><use x="273.2" y="765.4" xlink:href="#tool-T10-pad-1000"/><use x="273.2" y="588.2" xlink:href="#tool-T10-pad-1000"/><use x="529.2" y="588.2" xlink:href="#tool-T10-pad-1000"/><use x="529.2" y="765.4" xlink:href="#tool-T10-pad-1000"/><use x="273.2" y="237.8" xlink:href="#tool-T10-pad-1000"/><use x="273.2" y="60.6" xlink:href="#tool-T10-pad-1000"/><use x="529.2" y="60.6" xlink:href="#tool-T10-pad-1000"/><use x="529.2" y="237.8" xlink:href="#tool-T10-pad-1000"/><use x="273.2" y="1029.2" xlink:href="#tool-T10-pad-1000"/><use x="273.2" y="852" xlink:href="#tool-T10-pad-1000"/><use x="529.2" y="852" xlink:href="#tool-T10-pad-1000"/><use x="529.2" y="1029.2" xlink:href="#tool-T10-pad-1000"/><use x="653.2" y="1218.1" xlink:href="#tool-T11-pad-1001"/><use x="653.2" y="1118.1" xlink:href="#tool-T11-pad-1001"/><use x="653.2" y="1018.1" xlink:href="#tool-T11-pad-1001"/><use x="653.2" y="918.1" xlink:href="#tool-T11-pad-1001"/><use x="653.2" y="818.1" xlink:href="#tool-T11-pad-1001"/><use x="653.2" y="718.1" xlink:href="#tool-T11-pad-1001"/><use x="653.2" y="618.1" xlink:href="#tool-T11-pad-1001"/><use x="653.2" y="518.1" xlink:href="#tool-T11-pad-1001"/><use x="653.2" y="418.1" xlink:href="#tool-T11-pad-1001"/><use x="653.2" y="318.1" xlink:href="#tool-T11-pad-1001"/><use x="653.2" y="218.1" xlink:href="#tool-T11-pad-1001"/><use x="653.2" y="118.1" xlink:href="#tool-T11-pad-1001"/><use x="153.2" y="1218.1" xlink:href="#tool-T11-pad-1001"/><use x="153.2" y="1118.1" xlink:href="#tool-T11-pad-1001"/><use x="153.2" y="1018.1" xlink:href="#tool-T11-pad-1001"/><use x="153.2" y="918.1" xlink:href="#tool-T11-pad-1001"/><use x="153.2" y="818.1" xlink:href="#tool-T11-pad-1001"/><use x="153.2" y="718.1" xlink:href="#tool-T11-pad-1001"/><use x="153.2" y="618.1" xlink:href="#tool-T11-pad-1001"/><use x="153.2" y="518.1" xlink:href="#tool-T11-pad-1001"/><use x="153.2" y="418.1" xlink:href="#tool-T11-pad-1001"/><use x="153.2" y="318.1" xlink:href="#tool-T11-pad-1001"/><use x="153.2" y="218.1" xlink:href="#tool-T11-pad-1001"/><use x="153.2" y="118.1" xlink:href="#tool-T11-pad-1001"/></g></mask></defs><g mask="url(#pcb_bottom_mech-mask)" transform="translate(802.4,1353.6) scale(-1,-1)"><rect x="7.5" y="7.5" width="787.4" height="1338.6" fill="currentColor" class="pcb_board-fr4"/><use class="pcb_board-cu" xlink:href="#pcb_bottom-cu"/><g><defs><g id="pcb_bottom-sm" fill="currentColor" stroke="currentColor"><use x="460.3" y="1293.4" xlink:href="#tool-D10-pad-1009"/><use x="377.6" y="1293.4" xlink:href="#tool-D10-pad-1009"/><use x="273.2" y="501.6" xlink:href="#tool-D11-pad-1010"/><use x="273.2" y="324.4" xlink:href="#tool-D12-pad-1011"/><use x="529.2" y="324.4" xlink:href="#tool-D12-pad-1011"/><use x="529.2" y="501.6" xlink:href="#tool-D12-pad-1011"/><use x="273.2" y="1293.3" xlink:href="#tool-D11-pad-1010"/><use x="273.2" y="1116.2" xlink:href="#tool-D12-pad-1011"/><use x="529.2" y="1116.2" xlink:href="#tool-D12-pad-1011"/><use x="529.2" y="1293.3" xlink:href="#tool-D12-pad-1011"/><use x="653.2" y="1218.1" xlink:href="#tool-D13-pad-1012"/><use x="653.2" y="1118.1" xlink:href="#tool-D14-pad-1013"/><use x="653.2" y="1018.1" xlink:href="#tool-D14-pad-1013"/><use x="653.2" y="918.1" xlink:href="#tool-D14-pad-1013"/><use x="653.2" y="818.1" xlink:href="#tool-D14-pad-1013"/><use x="653.2" y="718.1" xlink:href="#tool-D14-pad-1013"/><use x="653.2" y="618.1" xlink:href="#tool-D14-pad-1013"/><use x="653.2" y="518.1" xlink:href="#tool-D14-pad-1013"/><use x="653.2" y="418.1" xlink:href="#tool-D14-pad-1013"/><use x="653.2" y="318.1" xlink:href="#tool-D14-pad-1013"/><use x="653.2" y="218.1" xlink:href="#tool-D14-pad-1013"/><use x="653.2" y="118.1" xlink:href="#tool-D14-pad-1013"/><use x="460.3" y="238.2" xlink:href="#tool-D10-pad-1009"/><use x="377.6" y="238.2" xlink:href="#tool-D10-pad-1009"/><use x="153.2" y="1218.1" xlink:href="#tool-D13-pad-1012"/><use x="153.2" y="1118.1" xlink:href="#tool-D14-pad-1013"/><use x="153.2" y="1018.1" xlink:href="#tool-D14-pad-1013"/><use x="153.2" y="918.1" xlink:href="#tool-D14-pad-1013"/><use x="153.2" y="818.1" xlink:href="#tool-D14-pad-1013"/><use x="153.2" y="718.1" xlink:href="#tool-D14-pad-1013"/><use x="153.2" y="618.1" xlink:href="#tool-D14-pad-1013"/><use x="153.2" y="518.1" xlink:href="#tool-D14-pad-1013"/><use x="153.2" y="418.1" xlink:href="#tool-D14-pad-1013"/><use x="153.2" y="318.1" xlink:href="#tool-D14-pad-1013"/><use x="153.2" y="218.1" xlink:href="#tool-D14-pad-1013"/><use x="153.2" y="118.1" xlink:href="#tool-D14-pad-1013"/><use x="460.3" y="1028.6" xlink:href="#tool-D10-pad-1009"/><use x="377.6" y="1028.6" xlink:href="#tool-D10-pad-1009"/><use x="460.3" y="502" xlink:href="#tool-D10-pad-1009"/><use x="377.6" y="502" xlink:href="#tool-D10-pad-1009"/><use x="273.2" y="765.4" xlink:href="#tool-D11-pad-1010"/><use x="273.2" y="588.2" xlink:href="#tool-D12-pad-1011"/><use x="529.2" y="588.2" xlink:href="#tool-D12-pad-1011"/><use x="529.2" y="765.4" xlink:href="#tool-D12-pad-1011"/><use x="460.3" y="765.8" xlink:href="#tool-D10-pad-1009"/><use x="377.6" y="765.8" xlink:href="#tool-D10-pad-1009"/><use x="273.2" y="237.8" xlink:href="#tool-D11-pad-1010"/><use x="273.2" y="60.6" xlink:href="#tool-D12-pad-1011"/><use x="529.2" y="60.6" xlink:href="#tool-D12-pad-1011"/><use x="529.2" y="237.8" xlink:href="#tool-D12-pad-1011"/><use x="273.2" y="1029.2" xlink:href="#tool-D11-pad-1010"/><use x="273.2" y="852" xlink:href="#tool-D12-pad-1011"/><use x="529.2" y="852" xlink:href="#tool-D12-pad-1011"/><use x="529.2" y="1029.2" xlink:href="#tool-D12-pad-1011"/></g><mask id="pcb_bottom-sm_mask" color="#000"><rect x="7.5" y="7.5" width="787.4" height="1338.6" fill="#fff"/><use xlink:href="#pcb_bottom-sm"/></mask><mask id="pcb_bottom-cu_finish-mask" color="#fff"><use xlink:href="#pcb_bottom-cu"/></mask></defs><g mask="url(#pcb_bottom-sm_mask)"><rect x="7.5" y="7.5" width="787.4" height="1338.6" fill="currentColor" class="pcb_board-sm"/><g id="pcb_bottom-ss" class="pcb_board-ss" fill="currentColor" stroke="currentColor"><path stroke-width="5.9" fill="none" d="M 359.5 1322.9 L 359.5 1263.8 M 359.5 1263.8 L 478.4 1263.8 M 478.4 1263.8 L 478.4 1322.9 M 478.4 1322.9 L 359.5 1322.9"/><path d="M 480.1 1220.7 L 480.1 1248.9 L 467.6 1248.9 L 465.8 1248.8 L 464.3 1248.7 L 463 1248.5 L 461.9 1248.1 L 460.9 1247.7 L 460.1 1247.1 L 459.4 1246.4 L 458.7 1245.5 L 458.2 1244.5 L 457.9 1243.4 L 457.7 1242.3 L 457.6 1241.2 L 457.7 1239.8 L 458.1 1238.4 L 458.6 1237.3 L 459.5 1236.2 L 460.6 1235.2 L 462 1234.5 L 463.6 1233.9 L 464.5 1233.7 L 465.1 1236.8 L 464.4 1237 L 463.7 1237.3 L 463.1 1237.7 L 462.6 1238.1 L 462.1 1238.7 L 461.8 1239.3 L 461.6 1239.9 L 461.4 1240.5 L 461.4 1241.2 L 461.5 1242.2 L 461.8 1243.1 L 462.2 1243.8 L 462.9 1244.5 L 463.7 1245.1 L 464.7 1245.5 L 466 1245.7 L 467.5 1245.8 L 476.4 1245.8 L 476.4 1236.5 L 476.4 1236.5 L 468.4 1236.5 L 467.1 1236.5 L 466.1 1236.6 L 465.1 1236.8 L 464.5 1233.7 L 465.5 1233.5 L 464.8 1233.2 L 464.2 1232.9 L 463.7 1232.5 L 463.2 1232.1 L 462.5 1231.4 L 461.7 1230.5 L 460.9 1229.5 L 460.2 1228.4 L 455.3 1220.7 L 459.9 1220.7 L 463.7 1226.6 L 464.5 1227.8 L 465.2 1228.8 L 465.8 1229.7 L 466.4 1230.5 L 466.9 1231.1 L 467.4 1231.6 L 467.8 1232 L 468.2 1232.3 L 468.7 1232.6 L 469.1 1232.8 L 469.5 1233 L 470 1233.1 L 470.3 1233.2 L 470.8 1233.2 L 471.4 1233.2 L 472 1233.2 L 476.4 1233.2 L 476.4 1220.7 L 480.1 1220.7 L 480.1 1220.7 Z"/><path d="M 440.1 1220.7 L 443.6 1220.7 L 443.6 1242.8 L 444.2 1242.2 L 445 1241.6 L 445.8 1241 L 446.8 1240.4 L 447.8 1239.8 L 448.8 1239.4 L 449.6 1238.9 L 450.5 1238.6 L 450.5 1241.9 L 449.1 1242.7 L 447.7 1243.4 L 446.5 1244.3 L 445.4 1245.3 L 444.4 1246.2 L 443.5 1247.1 L 442.9 1248.1 L 442.3 1249 L 440.1 1249 L 440.1 1220.7 L 440.1 1220.7 Z"/><path stroke-width="5.9" fill="none" d="M 359.5 267.8 L 359.5 208.7 M 359.5 208.7 L 478.4 208.7 M 478.4 208.7 L 478.4 267.8 M 478.4 267.8 L 359.5 267.8"/><path d="M 480.1 165.6 L 480.1 193.8 L 467.6 193.8 L 465.8 193.7 L 464.3 193.6 L 463 193.4 L 461.9 193 L 460.9 192.6 L 460.1 192 L 459.4 191.2 L 458.7 190.3 L 458.2 189.4 L 457.9 188.3 L 457.7 187.2 L 457.6 186.1 L 457.7 184.7 L 458.1 183.3 L 458.6 182.1 L 459.5 181 L 460.6 180.1 L 462 179.4 L 463.6 178.8 L 464.5 178.6 L 465.1 181.6 L 464.4 181.9 L 463.7 182.2 L 463.1 182.6 L 462.6 183 L 462.1 183.6 L 461.8 184.2 L 461.6 184.8 L 461.4 185.4 L 461.4 186.1 L 461.5 187.1 L 461.8 187.9 L 462.2 188.7 L 462.9 189.4 L 463.7 189.9 L 464.7 190.3 L 466 190.6 L 467.5 190.7 L 476.4 190.7 L 476.4 181.4 L 476.4 181.4 L 468.4 181.4 L 467.1 181.4 L 466.1 181.5 L 465.1 181.6 L 464.5 178.6 L 465.5 178.4 L 464.8 178.1 L 464.2 177.7 L 463.7 177.4 L 463.2 177 L 462.5 176.2 L 461.7 175.3 L 460.9 174.4 L 460.2 173.3 L 455.3 165.6 L 459.9 165.6 L 463.7 171.5 L 464.5 172.7 L 465.2 173.7 L 465.8 174.6 L 466.4 175.3 L 466.9 176 L 467.4 176.5 L 467.8 176.9 L 468.2 177.2 L 468.7 177.5 L 469.1 177.7 L 469.5 177.9 L 470 178 L 470.3 178.1 L 470.8 178.1 L 471.4 178.1 L 472 178.1 L 476.4 178.1 L 476.4 165.6 L 480.1 165.6 L 480.1 165.6 Z"/><path d="M 453.1 173 L 449.5 173.3 L 449.2 172.1 L 448.8 171 L 448.3 170.1 L 447.6 169.3 L 446.8 168.7 L 446 168.3 L 445.1 168.1 L 444.1 168 L 442.9 168.1 L 441.8 168.4 L 440.8 169 L 439.8 169.9 L 439.1 170.9 L 438.5 172 L 438.2 173.4 L 438.1 174.9 L 438.2 176.2 L 438.5 177.5 L 439 178.6 L 439.8 179.5 L 440.6 180.3 L 441.7 180.8 L 442.9 181.1 L 444.1 181.2 L 444.9 181.2 L 445.7 181 L 446.4 180.8 L 447.1 180.5 L 447.8 180.1 L 448.4 179.6 L 448.8 179.1 L 449.3 178.5 L 452.5 178.9 L 449.8 193.4 L 435.8 193.4 L 435.8 190.1 L 447 190.1 L 448.5 182.5 L 447.3 183.3 L 445.9 183.8 L 444.6 184.2 L 443.2 184.3 L 441.4 184.1 L 439.8 183.6 L 438.3 182.9 L 437 181.7 L 435.8 180.4 L 435.1 178.8 L 434.6 177.1 L 434.4 175.1 L 434.6 173.3 L 435 171.6 L 435.7 170 L 436.7 168.6 L 438.1 167 L 439.9 166 L 441.8 165.3 L 444.1 165.1 L 445.9 165.3 L 447.6 165.6 L 449 166.3 L 450.3 167.3 L 451.4 168.4 L 452.3 169.8 L 452.8 171.3 L 453.1 173 L 453.1 173 Z"/><path stroke-width="5.9" fill="none" d="M 359.5 1058.1 L 359.5 999.1 M 359.5 999.1 L 478.4 999.1 M 478.4 999.1 L 478.4 1058.1 M 478.4 1058.1 L 359.5 1058.1"/><path d="M 480.1 956 L 480.1 984.2 L 467.6 984.2 L 465.8 984.1 L 464.3 984 L 463 983.7 L 461.9 983.4 L 460.9 982.9 L 460.1 982.3 L 459.4 981.6 L 458.7 980.7 L 458.2 979.7 L 457.9 978.7 L 457.7 977.6 L 457.6 976.4 L 457.7 975 L 458.1 973.7 L 458.6 972.5 L 459.5 971.4 L 460.6 970.5 L 462 969.7 L 463.6 969.2 L 464.5 969 L 465.1 972 L 464.4 972.2 L 463.7 972.5 L 463.1 972.9 L 462.6 973.4 L 462.1 973.9 L 461.8 974.5 L 461.6 975.1 L 461.4 975.8 L 461.4 976.4 L 461.5 977.4 L 461.8 978.3 L 462.2 979 L 462.9 979.7 L 463.7 980.3 L 464.7 980.7 L 466 980.9 L 467.5 981 L 476.4 981 L 476.4 971.7 L 476.4 971.7 L 468.4 971.7 L 467.1 971.8 L 466.1 971.8 L 465.1 972 L 464.5 969 L 465.5 968.8 L 464.8 968.4 L 464.2 968.1 L 463.7 967.7 L 463.2 967.4 L 462.5 966.6 L 461.7 965.7 L 460.9 964.7 L 460.2 963.6 L 455.3 956 L 459.9 956 L 463.7 961.8 L 464.5 963 L 465.2 964.1 L 465.8 964.9 L 466.4 965.7 L 466.9 966.3 L 467.4 966.8 L 467.8 967.3 L 468.2 967.6 L 468.7 967.9 L 469.1 968.1 L 469.5 968.2 L 470 968.3 L 470.3 968.4 L 470.8 968.4 L 471.4 968.4 L 472 968.5 L 476.4 968.5 L 476.4 956 L 480.1 956 L 480.1 956 Z"/><path d="M 434.9 959.3 L 434.9 956 L 453.6 956 L 453.6 956.6 L 453.5 957.2 L 453.4 957.8 L 453.2 958.4 L 452.7 959.3 L 452.2 960.3 L 451.6 961.2 L 450.9 962.1 L 450 963.1 L 449 964.1 L 447.7 965.2 L 446.4 966.4 L 444.2 968.2 L 442.5 969.7 L 441.1 971.2 L 440.1 972.3 L 439.4 973.4 L 438.9 974.5 L 438.6 975.5 L 438.5 976.5 L 438.6 977.5 L 438.9 978.4 L 439.4 979.2 L 440 980 L 440.8 980.6 L 441.7 981 L 442.7 981.3 L 443.8 981.4 L 445 981.3 L 446.1 981 L 447 980.5 L 447.9 979.9 L 448.5 979.1 L 449 978.1 L 449.3 977 L 449.4 975.7 L 452.9 976.1 L 452.6 978 L 452 979.6 L 451.2 981 L 450.2 982.2 L 448.9 983.1 L 447.4 983.7 L 445.6 984.1 L 443.8 984.3 L 441.8 984.1 L 440.1 983.7 L 438.6 983 L 437.3 982 L 436.3 980.8 L 435.6 979.5 L 435.1 978 L 435 976.4 L 435 975.6 L 435.1 974.7 L 435.4 973.9 L 435.6 973.1 L 436.1 972.3 L 436.6 971.4 L 437.2 970.6 L 438 969.7 L 438.9 968.7 L 440.1 967.5 L 441.6 966.2 L 443.3 964.7 L 444.7 963.5 L 445.8 962.5 L 446.7 961.7 L 447.3 961.2 L 447.7 960.7 L 448.1 960.2 L 448.4 959.7 L 448.8 959.3 L 434.9 959.3 L 434.9 959.3 Z"/><path stroke-width="5.9" fill="none" d="M 359.5 531.6 L 359.5 472.5 M 359.5 472.5 L 478.4 472.5 M 478.4 472.5 L 478.4 531.6 M 478.4 531.6 L 359.5 531.6"/><path d="M 480.1 429.4 L 480.1 457.6 L 467.6 457.6 L 465.8 457.5 L 464.3 457.4 L 463 457.1 L 461.9 456.8 L 460.9 456.4 L 460.1 455.8 L 459.4 455 L 458.7 454.1 L 458.2 453.1 L 457.9 452.1 L 457.7 451 L 457.6 449.9 L 457.7 448.4 L 458.1 447.1 L 458.6 445.9 L 459.5 444.8 L 460.6 443.9 L 462 443.1 L 463.6 442.6 L 464.5 442.4 L 465.1 445.4 L 464.4 445.6 L 463.7 446 L 463.1 446.4 L 462.6 446.8 L 462.1 447.3 L 461.8 447.9 L 461.6 448.6 L 461.4 449.2 L 461.4 449.9 L 461.5 450.8 L 461.8 451.7 L 462.2 452.5 L 462.9 453.2 L 463.7 453.7 L 464.7 454.1 L 466 454.4 L 467.5 454.5 L 476.4 454.5 L 476.4 445.1 L 476.4 445.1 L 468.4 445.1 L 467.1 445.2 L 466.1 445.3 L 465.1 445.4 L 464.5 442.4 L 465.5 442.2 L 464.8 441.8 L 464.2 441.5 L 463.7 441.2 L 463.2 440.8 L 462.5 440 L 461.7 439.1 L 460.9 438.1 L 460.2 437.1 L 455.3 429.4 L 459.9 429.4 L 463.7 435.3 L 464.5 436.4 L 465.2 437.5 L 465.8 438.4 L 466.4 439.1 L 466.9 439.7 L 467.4 440.3 L 467.8 440.7 L 468.2 441 L 468.7 441.3 L 469.1 441.5 L 469.5 441.6 L 470 441.8 L 470.3 441.8 L 470.8 441.9 L 471.4 441.9 L 472 441.9 L 476.4 441.9 L 476.4 429.4 L 480.1 429.4 L 480.1 429.4 Z"/><path d="M 442 429.4 L 442 436.1 L 454.3 436.1 L 454.3 439.3 L 444.2 453.6 L 442 452 L 450.8 439.3 L 442 439.3 L 442 439.3 L 442 452 L 444.2 453.6 L 441.4 457.6 L 438.6 457.6 L 438.6 439.3 L 434.8 439.3 L 434.8 436.1 L 438.6 436.1 L 438.6 429.4 L 442 429.4 L 442 429.4 Z"/><path stroke-width="5.9" fill="none" d="M 359.5 795.3 L 359.5 736.3 M 359.5 736.3 L 478.4 736.3 M 478.4 736.3 L 478.4 795.3 M 478.4 795.3 L 359.5 795.3"/><path d="M 480.1 693.2 L 480.1 721.4 L 467.6 721.4 L 465.8 721.3 L 464.3 721.2 L 463 720.9 L 461.9 720.6 L 460.9 720.1 L 460.1 719.5 L 459.4 718.8 L 458.7 717.9 L 458.2 716.9 L 457.9 715.9 L 457.7 714.8 L 457.6 713.6 L 457.7 712.2 L 458.1 710.9 L 458.6 709.7 L 459.5 708.6 L 460.6 707.7 L 462 706.9 L 463.6 706.4 L 464.5 706.2 L 465.1 709.2 L 464.4 709.4 L 463.7 709.7 L 463.1 710.1 L 462.6 710.6 L 462.1 711.1 L 461.8 711.7 L 461.6 712.3 L 461.4 713 L 461.4 713.6 L 461.5 714.6 L 461.8 715.5 L 462.2 716.2 L 462.9 716.9 L 463.7 717.5 L 464.7 717.9 L 466 718.1 L 467.5 718.2 L 476.4 718.2 L 476.4 708.9 L 476.4 708.9 L 468.4 708.9 L 467.1 709 L 466.1 709 L 465.1 709.2 L 464.5 706.2 L 465.5 706 L 464.8 705.6 L 464.2 705.3 L 463.7 704.9 L 463.2 704.6 L 462.5 703.8 L 461.7 702.9 L 460.9 701.9 L 460.2 700.8 L 455.3 693.2 L 459.9 693.2 L 463.7 699 L 464.5 700.2 L 465.2 701.3 L 465.8 702.1 L 466.4 702.9 L 466.9 703.5 L 467.4 704 L 467.8 704.5 L 468.2 704.8 L 468.7 705.1 L 469.1 705.3 L 469.5 705.4 L 470 705.5 L 470.3 705.6 L 470.8 705.6 L 471.4 705.6 L 472 705.7 L 476.4 705.7 L 476.4 693.2 L 480.1 693.2 L 480.1 693.2 Z"/><path d="M 453.1 700.6 L 449.6 701 L 449.3 699.7 L 448.8 698.5 L 448.3 697.6 L 447.6 696.8 L 446.9 696.2 L 446 695.8 L 445.1 695.6 L 444.1 695.5 L 443 695.6 L 441.9 696 L 440.9 696.5 L 440 697.2 L 439.3 698.1 L 438.8 699.1 L 438.4 700.2 L 438.3 701.4 L 438.4 702.5 L 438.7 703.6 L 439.2 704.5 L 439.9 705.3 L 440.7 706 L 441.6 706.5 L 442.7 706.8 L 443.8 706.9 L 444.4 706.9 L 444.9 706.8 L 445.6 706.7 L 446.3 706.5 L 445.9 709.5 L 445.7 709.5 L 445.6 709.5 L 445.5 709.5 L 445.3 709.5 L 444.3 709.6 L 443.2 709.8 L 442.3 710.1 L 441.4 710.6 L 440.6 711.3 L 440 712.1 L 439.7 713.1 L 439.6 714.2 L 439.7 715.1 L 439.9 716 L 440.3 716.7 L 440.9 717.4 L 441.6 717.9 L 442.3 718.3 L 443.2 718.5 L 444.2 718.6 L 445.2 718.5 L 446 718.3 L 446.9 717.9 L 447.6 717.3 L 448.2 716.6 L 448.7 715.8 L 449 714.7 L 449.3 713.5 L 452.8 714.2 L 452.3 715.8 L 451.7 717.2 L 450.9 718.5 L 449.9 719.5 L 448.7 720.4 L 447.3 721 L 445.9 721.4 L 444.3 721.5 L 443.2 721.4 L 442.1 721.2 L 441 720.9 L 440 720.5 L 439.1 719.9 L 438.3 719.3 L 437.6 718.6 L 437.1 717.8 L 436.6 716.9 L 436.3 716 L 436.1 715.1 L 436 714.2 L 436.1 713.2 L 436.3 712.4 L 436.6 711.6 L 437 710.8 L 437.6 710.1 L 438.2 709.5 L 439 708.9 L 439.9 708.4 L 438.7 708.1 L 437.7 707.5 L 436.8 706.9 L 436 706 L 435.4 705.1 L 435 704 L 434.7 702.8 L 434.7 701.5 L 434.8 699.7 L 435.3 698.1 L 436.2 696.6 L 437.3 695.2 L 438.8 694.1 L 440.4 693.3 L 442.2 692.8 L 444.2 692.7 L 445.9 692.8 L 447.5 693.2 L 449 693.9 L 450.3 694.9 L 451.4 696 L 452.2 697.4 L 452.8 698.9 L 453.1 700.6 L 453.1 700.6 Z"/></g></g><use class="pcb_board-cf" mask="url(#pcb_bottom-cu_finish-mask)" xlink:href="#pcb_bottom-sm"/></g></g></svg>