<?xml-stylesheet href="https://s3.amazonaws.com/maker.works.boards/css/blackpcb.css" type="text/css"?><svg xmlns="http://www.w3.org/2000/svg" version="1.1" xmlns:xlink="http://www.w3.org/1999/xlink" stroke-width="0" stroke-linecap="round" stroke-linejoin="round" width="0.7874in" height="1.3386in" id="pcb_top" viewBox="7.5 7.5 787.4 1338.6"><defs><circle cx="0" cy="0" r="19.5" id="tool-T10-pad-1000"/><circle cx="0" cy="0" r="22.5" id="tool-T11-pad-1001"/><rect x="-29.55" y="-29.55" width="59.1" height="59.1" id="tool-D11-pad-1015"/><circle cx="0" cy="0" r="29.55" id="tool-D12-pad-1016"/><rect x="-34.45" y="-34.45" width="68.9" height="68.9" id="tool-D13-pad-1017"/><circle cx="0" cy="0" r="34.45" id="tool-D14-pad-1018"/><circle cx="0" cy="0" r="9.85" id="tool-D11-pad-1020"/><rect x="-29.55" y="-29.55" width="59.1" height="59.1" id="tool-D10-pad-1021"/><circle cx="0" cy="0" r="29.55" id="tool-D11-pad-1022"/><rect x="-34.45" y="-34.45" width="68.9" height="68.9" id="tool-D12-pad-1023"/><circle cx="0" cy="0" r="34.45" id="tool-D13-pad-1024"/><g id="pcb_top-cu" fill="currentColor" stroke="currentColor"><path stroke-width="9.8" fill="none" d="M 220.1 151.2 L 586.2 151.2 M 344.5 430.7 L 565.8 430.7 M 153.2 1018.1 L 262.8 1018.1 M 273.2 1028.6 L 341.6 960.3 M 269.3 1293.3 L 340.6 1222.1 M 340.6 1222.1 L 649.2 1222.1 M 341.6 960.3 L 595.3 960.3 M 273.2 765.4 L 320.5 718.1 M 153.2 718.1 L 226 718.1 M 565.8 430.7 L 653.2 518.1 M 273.2 237.8 L 417.9 382.5 M 653.2 218.1 L 586.2 151.2 M 273.2 502 L 344.5 430.7 M 226 718.1 L 273.2 765.4 M 153.2 518.1 L 256.7 518.1 M 262.8 1018.1 L 273.2 1028.6 M 220.1 151.2 L 153.2 218.1 M 320.5 718.1 L 653.2 718.1 M 233.5 237.8 L 273.2 237.8 M 417.9 382.5 L 588.8 382.5 M 153.2 318.1 L 233.5 237.8 M 256.7 518.1 L 273.2 501.6 M 595.3 960.3 L 653.2 1018.1 M 588.8 382.5 L 653.2 318.1"/><use x="273.2" y="501.6" xlink:href="#tool-D11-pad-1015"/><use x="273.2" y="324.4" xlink:href="#tool-D12-pad-1016"/><use x="529.2" y="324.4" xlink:href="#tool-D12-pad-1016"/><use x="529.2" y="501.6" xlink:href="#tool-D12-pad-1016"/><use x="273.2" y="1293.3" xlink:href="#tool-D11-pad-1015"/><use x="273.2" y="1116.2" xlink:href="#tool-D12-pad-1016"/><use x="529.2" y="1116.2" xlink:href="#tool-D12-pad-1016"/><use x="529.2" y="1293.3" xlink:href="#tool-D12-pad-1016"/><use x="653.2" y="1218.1" xlink:href="#tool-D13-pad-1017"/><use x="653.2" y="1118.1" xlink:href="#tool-D14-pad-1018"/><use x="653.2" y="1018.1" xlink:href="#tool-D14-pad-1018"/><use x="653.2" y="918.1" xlink:href="#tool-D14-pad-1018"/><use x="653.2" y="818.1" xlink:href="#tool-D14-pad-1018"/><use x="653.2" y="718.1" xlink:href="#tool-D14-pad-1018"/><use x="653.2" y="618.1" xlink:href="#tool-D14-pad-1018"/><use x="653.2" y="518.1" xlink:href="#tool-D14-pad-1018"/><use x="653.2" y="418.1" xlink:href="#tool-D14-pad-1018"/><use x="653.2" y="318.1" xlink:href="#tool-D14-pad-1018"/><use x="653.2" y="218.1" xlink:href="#tool-D14-pad-1018"/><use x="653.2" y="118.1" xlink:href="#tool-D14-pad-1018"/><use x="153.2" y="1218.1" xlink:href="#tool-D13-pad-1017"/><use x="153.2" y="1118.1" xlink:href="#tool-D14-pad-1018"/><use x="153.2" y="1018.1" xlink:href="#tool-D14-pad-1018"/><use x="153.2" y="918.1" xlink:href="#tool-D14-pad-1018"/><use x="153.2" y="818.1" xlink:href="#tool-D14-pad-1018"/><use x="153.2" y="718.1" xlink:href="#tool-D14-pad-1018"/><use x="153.2" y="618.1" xlink:href="#tool-D14-pad-1018"/><use x="153.2" y="518.1" xlink:href="#tool-D14-pad-1018"/><use x="153.2" y="418.1" xlink:href="#tool-D14-pad-1018"/><use x="153.2" y="318.1" xlink:href="#tool-D14-pad-1018"/><use x="153.2" y="218.1" xlink:href="#tool-D14-pad-1018"/><use x="153.2" y="118.1" xlink:href="#tool-D14-pad-1018"/><use x="273.2" y="765.4" xlink:href="#tool-D11-pad-1015"/><use x="273.2" y="588.2" xlink:href="#tool-D12-pad-1016"/><use x="529.2" y="588.2" xlink:href="#tool-D12-pad-1016"/><use x="529.2" y="765.4" xlink:href="#tool-D12-pad-1016"/><use x="273.2" y="237.8" xlink:href="#tool-D11-pad-1015"/><use x="273.2" y="60.6" xlink:href="#tool-D12-pad-1016"/><use x="529.2" y="60.6" xlink:href="#tool-D12-pad-1016"/><use x="529.2" y="237.8" xlink:href="#tool-D12-pad-1016"/><use x="273.2" y="1029.2" xlink:href="#tool-D11-pad-1015"/><use x="273.2" y="852" xlink:href="#tool-D12-pad-1016"/><use x="529.2" y="852" xlink:href="#tool-D12-pad-1016"/><use x="529.2" y="1029.2" xlink:href="#tool-D12-pad-1016"/></g><mask id="pcb_top_mech-mask" fill="#fff" stroke="#fff" fill-rule="evenodd"><path stroke-width="0" d="M 125.6 7.5 Z M 125.6 7.5 A 196.8527622361444 196.8527622361444 0 0 0 7.5 125.6 L 7.5 1228 A 196.8527622361444 196.8527622361444 0 0 0 125.6 1346.1 L 676.8 1346.1 A 196.8527622361444 196.8527622361444 0 0 0 794.9 1228 L 794.9 125.6 A 196.8527622361444 196.8527622361444 0 0 0 676.8 7.5 Z"/><g id="pcb_top-drl" fill="#000" stroke="#000"><use x="273.2" y="501.6" xlink:href="#tool-T10-pad-1000"/><use x="273.2" y="324.4" xlink:href="#tool-T10-pad-1000"/><use x="529.2" y="324.4" xlink:href="#tool-T10-pad-1000"/><use x="529.2" y="501.6" xlink:href="#tool-T10-pad-1000"/><use x="273.2" y="1293.3" xlink:href="#tool-T10-pad-1000"/><use x="273.2" y="1116.2" xlink:href="#tool-T10-pad-1000"/><use x="529.2" y="1116.2" xlink:href="#tool-T10-pad-1000"/><use x="529.2" y="1293.3" xlink:href="#tool-T10-pad-1000"/><use x="273.2" y="765.4" xlink:href="#tool-T10-pad-1000"/><use x="273.2" y="588.2" xlink:href="#tool-T10-pad-1000"/><use x="529.2" y="588.2" xlink:href="#tool-T10-pad-1000"/><use x="529.2" y="765.4" xlink:href="#tool-T10-pad-1000"/><use x="273.2" y="237.8" xlink:href="#tool-T10-pad-1000"/><use x="273.2" y="60.6" xlink:href="#tool-T10-pad-1000"/><use x="529.2" y="60.6" xlink:href="#tool-T10-pad-1000"/><use x="529.2" y="237.8" xlink:href="#tool-T10-pad-1000"/><use x="273.2" y="1029.2" xlink:href="#tool-T10-pad-1000"/><use x="273.2" y="852" xlink:href="#tool-T10-pad-1000"/><use x="529.2" y="852" xlink:href="#tool-T10-pad-1000"/><use x="529.2" y="1029.2" xlink:href="#tool-T10-pad-1000"/><use x="653.2" y="1218.1" xlink:href="#tool-T11-pad-1001"/><use x="653.2" y="1118.1" xlink:href="#tool-T11-pad-1001"/><use x="653.2" y="1018.1" xlink:href="#tool-T11-pad-1001"/><use x="653.2" y="918.1" xlink:href="#tool-T11-pad-1001"/><use x="653.2" y="818.1" xlink:href="#tool-T11-pad-1001"/><use x="653.2" y="718.1" xlink:href="#tool-T11-pad-1001"/><use x="653.2" y="618.1" xlink:href="#tool-T11-pad-1001"/><use x="653.2" y="518.1" xlink:href="#tool-T11-pad-1001"/><use x="653.2" y="418.1" xlink:href="#tool-T11-pad-1001"/><use x="653.2" y="318.1" xlink:href="#tool-T11-pad-1001"/><use x="653.2" y="218.1" xlink:href="#tool-T11-pad-1001"/><use x="653.2" y="118.1" xlink:href="#tool-T11-pad-1001"/><use x="153.2" y="1218.1" xlink:href="#tool-T11-pad-1001"/><use x="153.2" y="1118.1" xlink:href="#tool-T11-pad-1001"/><use x="153.2" y="1018.1" xlink:href="#tool-T11-pad-1001"/><use x="153.2" y="918.1" xlink:href="#tool-T11-pad-1001"/><use x="153.2" y="818.1" xlink:href="#tool-T11-pad-1001"/><use x="153.2" y="718.1" xlink:href="#tool-T11-pad-1001"/><use x="153.2" y="618.1" xlink:href="#tool-T11-pad-1001"/><use x="153.2" y="518.1" xlink:href="#tool-T11-pad-1001"/><use x="153.2" y="418.1" xlink:href="#tool-T11-pad-1001"/><use x="153.2" y="318.1" xlink:href="#tool-T11-pad-1001"/><use x="153.2" y="218.1" xlink:href="#tool-T11-pad-1001"/><use x="153.2" y="118.1" xlink:href="#tool-T11-pad-1001"/></g></mask></defs><g mask="url(#pcb_top_mech-mask)" transform="translate(0,1353.6) scale(1,-1)"><rect x="7.5" y="7.5" width="787.4" height="1338.6" fill="currentColor" class="pcb_board-fr4"/><use class="pcb_board-cu" xlink:href="#pcb_top-cu"/><g><defs><g id="pcb_top-sm" fill="currentColor" stroke="currentColor"><use x="273.2" y="501.6" xlink:href="#tool-D10-pad-1021"/><use x="273.2" y="324.4" xlink:href="#tool-D11-pad-1022"/><use x="529.2" y="324.4" xlink:href="#tool-D11-pad-1022"/><use x="529.2" y="501.6" xlink:href="#tool-D11-pad-1022"/><use x="273.2" y="1293.3" xlink:href="#tool-D10-pad-1021"/><use x="273.2" y="1116.2" xlink:href="#tool-D11-pad-1022"/><use x="529.2" y="1116.2" xlink:href="#tool-D11-pad-1022"/><use x="529.2" y="1293.3" xlink:href="#tool-D11-pad-1022"/><use x="653.2" y="1218.1" xlink:href="#tool-D12-pad-1023"/><use x="653.2" y="1118.1" xlink:href="#tool-D13-pad-1024"/><use x="653.2" y="1018.1" xlink:href="#tool-D13-pad-1024"/><use x="653.2" y="918.1" xlink:href="#tool-D13-pad-1024"/><use x="653.2" y="818.1" xlink:href="#tool-D13-pad-1024"/><use x="653.2" y="718.1" xlink:href="#tool-D13-pad-1024"/><use x="653.2" y="618.1" xlink:href="#tool-D13-pad-1024"/><use x="653.2" y="518.1" xlink:href="#tool-D13-pad-1024"/><use x="653.2" y="418.1" xlink:href="#tool-D13-pad-1024"/><use x="653.2" y="318.1" xlink:href="#tool-D13-pad-1024"/><use x="653.2" y="218.1" xlink:href="#tool-D13-pad-1024"/><use x="653.2" y="118.1" xlink:href="#tool-D13-pad-1024"/><use x="153.2" y="1218.1" xlink:href="#tool-D12-pad-1023"/><use x="153.2" y="1118.1" xlink:href="#tool-D13-pad-1024"/><use x="153.2" y="1018.1" xlink:href="#tool-D13-pad-1024"/><use x="153.2" y="918.1" xlink:href="#tool-D13-pad-1024"/><use x="153.2" y="818.1" xlink:href="#tool-D13-pad-1024"/><use x="153.2" y="718.1" xlink:href="#tool-D13-pad-1024"/><use x="153.2" y="618.1" xlink:href="#tool-D13-pad-1024"/><use x="153.2" y="518.1" xlink:href="#tool-D13-pad-1024"/><use x="153.2" y="418.1" xlink:href="#tool-D13-pad-1024"/><use x="153.2" y="318.1" xlink:href="#tool-D13-pad-1024"/><use x="153.2" y="218.1" xlink:href="#tool-D13-pad-1024"/><use x="153.2" y="118.1" xlink:href="#tool-D13-pad-1024"/><use x="273.2" y="765.4" xlink:href="#tool-D10-pad-1021"/><use x="273.2" y="588.2" xlink:href="#tool-D11-pad-1022"/><use x="529.2" y="588.2" xlink:href="#tool-D11-pad-1022"/><use x="529.2" y="765.4" xlink:href="#tool-D11-pad-1022"/><use x="273.2" y="237.8" xlink:href="#tool-D10-pad-1021"/><use x="273.2" y="60.6" xlink:href="#tool-D11-pad-1022"/><use x="529.2" y="60.6" xlink:href="#tool-D11-pad-1022"/><use x="529.2" y="237.8" xlink:href="#tool-D11-pad-1022"/><use x="273.2" y="1029.2" xlink:href="#tool-D10-pad-1021"/><use x="273.2" y="852" xlink:href="#tool-D11-pad-1022"/><use x="529.2" y="852" xlink:href="#tool-D11-pad-1022"/><use x="529.2" y="1029.2" xlink:href="#tool-D11-pad-1022"/></g><mask id="pcb_top-sm_mask" color="#000"><rect x="7.5" y="7.5" width="787.4" height="1338.6" fill="#fff"/><use xlink:href="#pcb_top-sm"/></mask><mask id="pcb_top-cu_finish-mask" color="#fff"><use xlink:href="#pcb_top-cu"/></mask></defs><g mask="url(#pcb_top-sm_mask)"><rect x="7.5" y="7.5" width="787.4" height="1338.6" fill="currentColor" class="pcb_board-sm"/><g id="pcb_top-ss" class="pcb_board-ss" fill="currentColor" stroke="currentColor"><path stroke-width="5.9" fill="none" d="M 238.8 287 L 238.8 539 M 238.8 539 L 563.6 539 M 563.6 539 L 563.6 287 M 563.6 287 L 238.8 287"/><use x="219.1" y="501.6" xlink:href="#tool-D11-pad-1020"/><path d="M 357.9 408.3 L 361.4 408.6 L 361.6 407.6 L 361.8 406.7 L 362.1 405.9 L 362.6 405.2 L 363.1 404.5 L 363.7 404 L 364.5 403.4 L 365.4 403 L 366.4 402.6 L 367.5 402.3 L 368.6 402.2 L 369.7 402.1 L 370.8 402.2 L 371.8 402.3 L 372.7 402.5 L 373.5 402.8 L 374.3 403.1 L 374.9 403.5 L 375.5 404 L 375.9 404.5 L 376.3 405.1 L 376.5 405.7 L 376.7 406.3 L 376.7 406.9 L 376.7 407.6 L 376.6 408.2 L 376.3 408.7 L 376 409.2 L 375.5 409.7 L 374.9 410.2 L 374.2 410.6 L 373.4 410.9 L 372.7 411.2 L 371.6 411.5 L 370.2 411.8 L 368.4 412.3 L 366.6 412.7 L 365.1 413.2 L 363.9 413.6 L 363 414 L 362 414.6 L 361.2 415.2 L 360.5 415.9 L 359.9 416.7 L 359.5 417.5 L 359.2 418.3 L 359 419.2 L 359 420.2 L 359 421.2 L 359.3 422.2 L 359.7 423.2 L 360.2 424.2 L 360.8 425 L 361.7 425.8 L 362.6 426.4 L 363.7 427 L 364.9 427.4 L 366.2 427.7 L 367.5 427.9 L 368.9 427.9 L 370.4 427.9 L 371.8 427.7 L 373.2 427.4 L 374.4 426.9 L 375.5 426.4 L 376.5 425.7 L 377.4 424.9 L 378.1 424 L 378.7 422.9 L 379.1 421.9 L 379.4 420.7 L 379.5 419.5 L 375.9 419.3 L 375.7 420.5 L 375.3 421.6 L 374.7 422.5 L 374 423.3 L 373 423.9 L 371.9 424.3 L 370.6 424.6 L 369 424.7 L 367.5 424.6 L 366.1 424.4 L 365 424 L 364.1 423.4 L 363.4 422.8 L 362.9 422.1 L 362.7 421.3 L 362.6 420.4 L 362.6 419.7 L 362.9 419 L 363.2 418.4 L 363.6 417.9 L 364.4 417.4 L 365.6 416.9 L 367.2 416.4 L 369.3 415.9 L 371.4 415.4 L 373.1 414.9 L 374.5 414.5 L 375.5 414.1 L 376.7 413.5 L 377.7 412.8 L 378.5 412.1 L 379.2 411.2 L 379.7 410.3 L 380 409.4 L 380.3 408.3 L 380.3 407.2 L 380.3 406.1 L 380 405.1 L 379.6 404 L 379 403 L 378.3 402.1 L 377.5 401.2 L 376.5 400.5 L 375.3 399.9 L 374.1 399.4 L 372.8 399.1 L 371.4 398.9 L 369.9 398.8 L 368.1 398.9 L 366.4 399.1 L 364.9 399.4 L 363.5 399.9 L 362.3 400.5 L 361.2 401.3 L 360.3 402.2 L 359.4 403.3 L 358.8 404.4 L 358.3 405.6 L 358 406.9 L 357.9 408.3 L 357.9 408.3 Z"/><path d="M 390.3 399.3 L 382.9 427.5 L 386.7 427.5 L 391 409 L 391.3 407.5 L 391.6 406.1 L 391.9 404.7 L 392.2 403.2 L 392.7 405.3 L 393 406.8 L 393.3 407.9 L 393.4 408.4 L 398.8 427.5 L 403.3 427.5 L 407.3 413.2 L 408.1 410.6 L 408.6 408.1 L 409.2 405.6 L 409.5 403.2 L 409.8 404.6 L 410.1 406.1 L 410.5 407.7 L 410.9 409.4 L 415.3 427.5 L 419.1 427.5 L 411.4 399.3 L 407.8 399.3 L 401.8 420.8 L 401.5 421.9 L 401.2 422.9 L 401 423.6 L 401 424.1 L 400.7 423.1 L 400.5 422.3 L 400.3 421.5 L 400.1 420.8 L 394.2 399.3 L 390.3 399.3 L 390.3 399.3 Z"/><path d="M 432.3 399.3 L 432.3 406 L 420.1 406 L 420.1 409.2 L 430.1 423.4 L 432.3 421.9 L 423.4 409.2 L 432.3 409.2 L 432.3 409.2 L 432.3 421.9 L 430.1 423.4 L 432.9 427.5 L 435.7 427.5 L 435.7 409.2 L 439.5 409.2 L 439.5 406 L 435.7 406 L 435.7 399.3 L 432.3 399.3 L 432.3 399.3 Z"/><path stroke-width="5.9" fill="none" d="M 238.8 1078.7 L 238.8 1330.8 M 238.8 1330.8 L 563.6 1330.8 M 563.6 1330.8 L 563.6 1078.7 M 563.6 1078.7 L 238.8 1078.7"/><use x="219.1" y="1293.3" xlink:href="#tool-D11-pad-1020"/><path d="M 357.9 1199.7 L 361.4 1200 L 361.6 1199 L 361.8 1198.1 L 362.1 1197.2 L 362.6 1196.5 L 363.1 1195.8 L 363.7 1195.3 L 364.5 1194.8 L 365.4 1194.3 L 366.4 1194 L 367.5 1193.7 L 368.6 1193.5 L 369.7 1193.5 L 370.8 1193.5 L 371.8 1193.6 L 372.7 1193.8 L 373.5 1194.1 L 374.3 1194.5 L 374.9 1194.9 L 375.5 1195.3 L 375.9 1195.8 L 376.3 1196.4 L 376.5 1197 L 376.7 1197.6 L 376.7 1198.3 L 376.7 1198.9 L 376.6 1199.5 L 376.3 1200.1 L 376 1200.6 L 375.5 1201 L 374.9 1201.5 L 374.2 1201.9 L 373.4 1202.3 L 372.7 1202.5 L 371.6 1202.8 L 370.2 1203.2 L 368.4 1203.6 L 366.6 1204.1 L 365.1 1204.5 L 363.9 1205 L 363 1205.4 L 362 1205.9 L 361.2 1206.6 L 360.5 1207.3 L 359.9 1208 L 359.5 1208.8 L 359.2 1209.7 L 359 1210.6 L 359 1211.5 L 359 1212.6 L 359.3 1213.6 L 359.7 1214.5 L 360.2 1215.5 L 360.8 1216.4 L 361.7 1217.1 L 362.6 1217.8 L 363.7 1218.3 L 364.9 1218.7 L 366.2 1219 L 367.5 1219.2 L 368.9 1219.3 L 370.4 1219.2 L 371.8 1219 L 373.2 1218.7 L 374.4 1218.3 L 375.5 1217.7 L 376.5 1217 L 377.4 1216.2 L 378.1 1215.3 L 378.7 1214.3 L 379.1 1213.2 L 379.4 1212.1 L 379.5 1210.8 L 375.9 1210.6 L 375.7 1211.8 L 375.3 1212.9 L 374.7 1213.9 L 374 1214.6 L 373 1215.2 L 371.9 1215.6 L 370.6 1215.9 L 369 1216 L 367.5 1215.9 L 366.1 1215.7 L 365 1215.3 L 364.1 1214.7 L 363.4 1214.1 L 362.9 1213.4 L 362.7 1212.6 L 362.6 1211.8 L 362.6 1211 L 362.9 1210.4 L 363.2 1209.8 L 363.6 1209.3 L 364.4 1208.8 L 365.6 1208.3 L 367.2 1207.8 L 369.3 1207.3 L 371.4 1206.8 L 373.1 1206.3 L 374.5 1205.8 L 375.5 1205.5 L 376.7 1204.9 L 377.7 1204.2 L 378.5 1203.4 L 379.2 1202.6 L 379.7 1201.7 L 380 1200.7 L 380.3 1199.7 L 380.3 1198.6 L 380.3 1197.5 L 380 1196.4 L 379.6 1195.3 L 379 1194.4 L 378.3 1193.4 L 377.5 1192.6 L 376.5 1191.9 L 375.3 1191.2 L 374.1 1190.8 L 372.8 1190.4 L 371.4 1190.2 L 369.9 1190.1 L 368.1 1190.2 L 366.4 1190.4 L 364.9 1190.8 L 363.5 1191.2 L 362.3 1191.9 L 361.2 1192.7 L 360.3 1193.6 L 359.4 1194.6 L 358.8 1195.8 L 358.3 1197 L 358 1198.3 L 357.9 1199.7 L 357.9 1199.7 Z"/><path d="M 390.3 1190.6 L 382.9 1218.8 L 386.7 1218.8 L 391 1200.3 L 391.3 1198.9 L 391.6 1197.4 L 391.9 1196 L 392.2 1194.5 L 392.7 1196.6 L 393 1198.1 L 393.3 1199.2 L 393.4 1199.8 L 398.8 1218.8 L 403.3 1218.8 L 407.3 1204.5 L 408.1 1201.9 L 408.6 1199.4 L 409.2 1196.9 L 409.5 1194.5 L 409.8 1195.9 L 410.1 1197.4 L 410.5 1199 L 410.9 1200.7 L 415.3 1218.8 L 419.1 1218.8 L 411.4 1190.6 L 407.8 1190.6 L 401.8 1212.1 L 401.5 1213.3 L 401.2 1214.3 L 401 1214.9 L 401 1215.4 L 400.7 1214.5 L 400.5 1213.6 L 400.3 1212.8 L 400.1 1212.1 L 394.2 1190.6 L 390.3 1190.6 L 390.3 1190.6 Z"/><path d="M 434.2 1190.6 L 430.8 1190.6 L 430.8 1212.7 L 430.1 1212.1 L 429.3 1211.5 L 428.4 1210.9 L 427.5 1210.3 L 426.5 1209.7 L 425.5 1209.2 L 424.7 1208.8 L 423.8 1208.5 L 423.8 1211.8 L 425.2 1212.6 L 426.6 1213.4 L 427.8 1214.2 L 428.9 1215.1 L 429.9 1216.1 L 430.8 1217.1 L 431.4 1218 L 432 1218.9 L 434.2 1218.9 L 434.2 1190.6 L 434.2 1190.6 Z"/><path stroke-width="5.9" fill="none" d="M 593.3 66.4 L 593.3 1269.9 M 593.3 1269.9 L 713 1269.9 M 713 1269.9 L 713 66.4 M 713 66.4 L 593.3 66.4"/><use x="573.6" y="1218.1" xlink:href="#tool-D11-pad-1020"/><path d="M 632.3 1291.4 L 635.7 1291.8 L 635.8 1290.3 L 636.1 1289.1 L 636.4 1288.1 L 636.9 1287.4 L 637.5 1286.9 L 638.2 1286.5 L 639 1286.3 L 639.9 1286.2 L 640.6 1286.2 L 641.2 1286.4 L 641.8 1286.6 L 642.3 1286.9 L 642.8 1287.2 L 643.2 1287.6 L 643.5 1288.1 L 643.7 1288.6 L 643.9 1289.2 L 644 1290 L 644.1 1291 L 644.1 1292.1 L 644.1 1311.6 L 647.8 1311.6 L 647.8 1292.3 L 647.8 1290.7 L 647.6 1289.2 L 647.3 1287.9 L 647 1286.9 L 646.5 1286 L 645.8 1285.1 L 645.1 1284.5 L 644.3 1283.9 L 643.3 1283.4 L 642.2 1283.1 L 641.1 1282.9 L 639.9 1282.9 L 638.2 1283 L 636.6 1283.4 L 635.3 1284.1 L 634.2 1285 L 633.4 1286.2 L 632.8 1287.7 L 632.4 1289.4 L 632.3 1291.4 L 632.3 1291.4 Z"/><path d="M 670.7 1286.7 L 670.7 1283.4 L 652.1 1283.4 L 652.1 1284 L 652.1 1284.6 L 652.3 1285.2 L 652.5 1285.8 L 652.9 1286.7 L 653.4 1287.7 L 654 1288.6 L 654.7 1289.5 L 655.6 1290.5 L 656.7 1291.5 L 657.9 1292.6 L 659.3 1293.8 L 661.4 1295.6 L 663.1 1297.1 L 664.5 1298.6 L 665.5 1299.7 L 666.2 1300.8 L 666.7 1301.9 L 667 1302.9 L 667.1 1303.9 L 667 1304.9 L 666.8 1305.8 L 666.3 1306.6 L 665.6 1307.4 L 664.9 1308 L 664 1308.4 L 662.9 1308.7 L 661.8 1308.8 L 660.6 1308.7 L 659.5 1308.4 L 658.6 1308 L 657.8 1307.3 L 657.1 1306.5 L 656.7 1305.5 L 656.4 1304.4 L 656.3 1303.1 L 652.7 1303.5 L 653.1 1305.4 L 653.6 1307 L 654.4 1308.4 L 655.5 1309.6 L 656.8 1310.5 L 658.3 1311.2 L 660 1311.5 L 661.9 1311.7 L 663.8 1311.5 L 665.5 1311.1 L 667 1310.4 L 668.3 1309.4 L 669.4 1308.2 L 670.1 1306.9 L 670.5 1305.5 L 670.6 1303.8 L 670.6 1303 L 670.5 1302.1 L 670.3 1301.3 L 670 1300.5 L 669.6 1299.7 L 669 1298.8 L 668.4 1298 L 667.7 1297.1 L 666.8 1296.1 L 665.5 1294.9 L 664.1 1293.6 L 662.3 1292.1 L 660.9 1290.9 L 659.8 1289.9 L 658.9 1289.2 L 658.3 1288.6 L 657.9 1288.1 L 657.5 1287.6 L 657.2 1287.1 L 656.9 1286.7 L 670.7 1286.7 L 670.7 1286.7 Z"/><path stroke-width="5.9" fill="none" d="M 93.3 66.4 L 93.3 1269.9 M 93.3 1269.9 L 213 1269.9 M 213 1269.9 L 213 66.4 M 213 66.4 L 93.3 66.4"/><use x="73.6" y="1218.1" xlink:href="#tool-D11-pad-1020"/><path d="M 132.3 1291.4 L 135.7 1291.8 L 135.8 1290.3 L 136.1 1289.1 L 136.4 1288.1 L 136.9 1287.4 L 137.5 1286.9 L 138.2 1286.5 L 139 1286.3 L 139.9 1286.2 L 140.6 1286.2 L 141.2 1286.4 L 141.8 1286.6 L 142.3 1286.9 L 142.8 1287.2 L 143.2 1287.6 L 143.5 1288.1 L 143.7 1288.6 L 143.9 1289.2 L 144 1290 L 144.1 1291 L 144.1 1292.1 L 144.1 1311.6 L 147.8 1311.6 L 147.8 1292.3 L 147.8 1290.7 L 147.6 1289.2 L 147.3 1287.9 L 147 1286.9 L 146.5 1286 L 145.8 1285.1 L 145.1 1284.5 L 144.3 1283.9 L 143.3 1283.4 L 142.2 1283.1 L 141.1 1282.9 L 139.9 1282.9 L 138.2 1283 L 136.6 1283.4 L 135.3 1284.1 L 134.2 1285 L 133.4 1286.2 L 132.8 1287.7 L 132.4 1289.4 L 132.3 1291.4 L 132.3 1291.4 Z"/><path d="M 165.5 1283.4 L 162.1 1283.4 L 162.1 1305.4 L 161.4 1304.8 L 160.6 1304.2 L 159.8 1303.6 L 158.8 1303.1 L 157.8 1302.5 L 156.9 1302 L 156 1301.6 L 155.2 1301.2 L 155.2 1304.6 L 156.6 1305.3 L 157.9 1306.1 L 159.1 1306.9 L 160.3 1307.9 L 161.2 1308.9 L 162.1 1309.8 L 162.8 1310.7 L 163.3 1311.7 L 165.5 1311.7 L 165.5 1283.4 L 165.5 1283.4 Z"/><path stroke-width="5.9" fill="none" d="M 238.8 550.8 L 238.8 802.8 M 238.8 802.8 L 563.6 802.8 M 563.6 802.8 L 563.6 550.8 M 563.6 550.8 L 238.8 550.8"/><use x="219.1" y="765.4" xlink:href="#tool-D11-pad-1020"/><path d="M 357.9 670.1 L 361.4 670.5 L 361.6 669.4 L 361.8 668.5 L 362.1 667.7 L 362.6 667 L 363.1 666.3 L 363.7 665.8 L 364.5 665.3 L 365.4 664.8 L 366.4 664.4 L 367.5 664.2 L 368.6 664 L 369.7 664 L 370.8 664 L 371.8 664.1 L 372.7 664.3 L 373.5 664.6 L 374.3 664.9 L 374.9 665.3 L 375.5 665.8 L 375.9 666.3 L 376.3 666.9 L 376.5 667.5 L 376.7 668.1 L 376.7 668.8 L 376.7 669.4 L 376.6 670 L 376.3 670.5 L 376 671 L 375.5 671.5 L 374.9 672 L 374.2 672.4 L 373.4 672.7 L 372.7 673 L 371.6 673.3 L 370.2 673.6 L 368.4 674.1 L 366.6 674.5 L 365.1 675 L 363.9 675.5 L 363 675.8 L 362 676.4 L 361.2 677 L 360.5 677.7 L 359.9 678.5 L 359.5 679.3 L 359.2 680.1 L 359 681 L 359 682 L 359 683.1 L 359.3 684 L 359.7 685 L 360.2 686 L 360.8 686.8 L 361.7 687.6 L 362.6 688.2 L 363.7 688.8 L 364.9 689.2 L 366.2 689.5 L 367.5 689.7 L 368.9 689.7 L 370.4 689.7 L 371.8 689.5 L 373.2 689.2 L 374.4 688.8 L 375.5 688.2 L 376.5 687.5 L 377.4 686.7 L 378.1 685.8 L 378.7 684.7 L 379.1 683.7 L 379.4 682.5 L 379.5 681.3 L 375.9 681.1 L 375.7 682.3 L 375.3 683.4 L 374.7 684.4 L 374 685.1 L 373 685.7 L 371.9 686.1 L 370.6 686.4 L 369 686.5 L 367.5 686.4 L 366.1 686.2 L 365 685.8 L 364.1 685.2 L 363.4 684.6 L 362.9 683.9 L 362.7 683.1 L 362.6 682.2 L 362.6 681.5 L 362.9 680.8 L 363.2 680.3 L 363.6 679.7 L 364.4 679.2 L 365.6 678.8 L 367.2 678.2 L 369.3 677.7 L 371.4 677.2 L 373.1 676.8 L 374.5 676.3 L 375.5 675.9 L 376.7 675.3 L 377.7 674.6 L 378.5 673.9 L 379.2 673.1 L 379.7 672.1 L 380 671.2 L 380.3 670.1 L 380.3 669 L 380.3 667.9 L 380 666.9 L 379.6 665.8 L 379 664.8 L 378.3 663.9 L 377.5 663.1 L 376.5 662.3 L 375.3 661.7 L 374.1 661.2 L 372.8 660.9 L 371.4 660.7 L 369.9 660.6 L 368.1 660.7 L 366.4 660.9 L 364.9 661.2 L 363.5 661.7 L 362.3 662.3 L 361.2 663.1 L 360.3 664 L 359.4 665.1 L 358.8 666.2 L 358.3 667.5 L 358 668.8 L 357.9 670.1 L 357.9 670.1 Z"/><path d="M 390.3 661.1 L 382.9 689.3 L 386.7 689.3 L 391 670.8 L 391.3 669.4 L 391.6 667.9 L 391.9 666.5 L 392.2 665 L 392.7 667.1 L 393 668.6 L 393.3 669.7 L 393.4 670.3 L 398.8 689.3 L 403.3 689.3 L 407.3 675 L 408.1 672.4 L 408.6 669.9 L 409.2 667.4 L 409.5 665 L 409.8 666.4 L 410.1 667.9 L 410.5 669.5 L 410.9 671.2 L 415.3 689.3 L 419.1 689.3 L 411.4 661.1 L 407.8 661.1 L 401.8 682.6 L 401.5 683.8 L 401.2 684.7 L 401 685.4 L 401 685.9 L 400.7 684.9 L 400.5 684.1 L 400.3 683.3 L 400.1 682.6 L 394.2 661.1 L 390.3 661.1 L 390.3 661.1 Z"/><path d="M 421.2 668.5 L 424.7 669 L 425 667.6 L 425.5 666.5 L 426 665.5 L 426.7 664.7 L 427.4 664.2 L 428.3 663.8 L 429.2 663.5 L 430.2 663.4 L 431.4 663.6 L 432.4 663.9 L 433.4 664.4 L 434.3 665.1 L 435 666 L 435.6 667 L 435.9 668.1 L 436 669.4 L 435.9 670.5 L 435.6 671.5 L 435.1 672.5 L 434.4 673.3 L 433.6 674 L 432.7 674.4 L 431.6 674.7 L 430.5 674.8 L 429.9 674.8 L 429.4 674.7 L 428.7 674.6 L 428 674.4 L 428.4 677.5 L 428.6 677.5 L 428.7 677.4 L 428.8 677.4 L 429 677.4 L 430.1 677.5 L 431 677.7 L 432 678.1 L 432.9 678.6 L 433.7 679.2 L 434.3 680.1 L 434.6 681 L 434.7 682.1 L 434.6 683.1 L 434.4 683.9 L 434 684.6 L 433.4 685.3 L 432.7 685.8 L 431.9 686.2 L 431.1 686.5 L 430.1 686.6 L 429.1 686.5 L 428.2 686.2 L 427.5 685.8 L 426.7 685.3 L 426.1 684.5 L 425.6 683.7 L 425.3 682.7 L 425 681.5 L 421.6 682.1 L 421.9 683.7 L 422.6 685.2 L 423.4 686.4 L 424.4 687.5 L 425.6 688.3 L 426.9 688.9 L 428.4 689.3 L 430 689.4 L 431.2 689.3 L 432.2 689.2 L 433.3 688.8 L 434.3 688.4 L 435.2 687.9 L 436 687.2 L 436.7 686.5 L 437.2 685.7 L 437.7 684.8 L 438 683.9 L 438.2 683 L 438.2 682.1 L 438.2 681.2 L 438 680.3 L 437.7 679.5 L 437.3 678.7 L 436.8 678 L 436.1 677.4 L 435.3 676.8 L 434.4 676.4 L 435.6 676 L 436.6 675.5 L 437.5 674.8 L 438.2 674 L 438.9 673 L 439.3 671.9 L 439.5 670.7 L 439.7 669.4 L 439.5 667.7 L 439 666 L 438.1 664.5 L 436.9 663.2 L 435.5 662 L 433.9 661.2 L 432.1 660.8 L 430.1 660.6 L 428.4 660.7 L 426.8 661.2 L 425.3 661.8 L 424 662.8 L 422.9 664 L 422.1 665.3 L 421.5 666.9 L 421.2 668.5 L 421.2 668.5 Z"/><path stroke-width="5.9" fill="none" d="M 238.8 23.2 L 238.8 275.3 M 238.8 275.3 L 563.6 275.3 M 563.6 275.3 L 563.6 23.2 M 563.6 23.2 L 238.8 23.2"/><use x="219.1" y="237.8" xlink:href="#tool-D11-pad-1020"/><path d="M 357.9 144.5 L 361.4 144.9 L 361.6 143.8 L 361.8 142.9 L 362.1 142.1 L 362.6 141.4 L 363.1 140.7 L 363.7 140.2 L 364.5 139.7 L 365.4 139.2 L 366.4 138.8 L 367.5 138.6 L 368.6 138.4 L 369.7 138.4 L 370.8 138.4 L 371.8 138.5 L 372.7 138.7 L 373.5 139 L 374.3 139.4 L 374.9 139.7 L 375.5 140.2 L 375.9 140.7 L 376.3 141.3 L 376.5 141.9 L 376.7 142.5 L 376.7 143.2 L 376.7 143.8 L 376.6 144.4 L 376.3 144.9 L 376 145.5 L 375.5 145.9 L 374.9 146.4 L 374.2 146.8 L 373.4 147.1 L 372.7 147.4 L 371.6 147.7 L 370.2 148.1 L 368.4 148.5 L 366.6 149 L 365.1 149.4 L 363.9 149.9 L 363 150.3 L 362 150.8 L 361.2 151.4 L 360.5 152.1 L 359.9 152.9 L 359.5 153.7 L 359.2 154.5 L 359 155.5 L 359 156.4 L 359 157.5 L 359.3 158.4 L 359.7 159.4 L 360.2 160.4 L 360.8 161.2 L 361.7 162 L 362.6 162.7 L 363.7 163.2 L 364.9 163.6 L 366.2 163.9 L 367.5 164.1 L 368.9 164.2 L 370.4 164.1 L 371.8 163.9 L 373.2 163.6 L 374.4 163.2 L 375.5 162.6 L 376.5 161.9 L 377.4 161.1 L 378.1 160.2 L 378.7 159.2 L 379.1 158.1 L 379.4 156.9 L 379.5 155.7 L 375.9 155.5 L 375.7 156.7 L 375.3 157.8 L 374.7 158.8 L 374 159.5 L 373 160.1 L 371.9 160.5 L 370.6 160.8 L 369 160.9 L 367.5 160.8 L 366.1 160.6 L 365 160.2 L 364.1 159.6 L 363.4 159 L 362.9 158.3 L 362.7 157.5 L 362.6 156.6 L 362.6 155.9 L 362.9 155.3 L 363.2 154.7 L 363.6 154.2 L 364.4 153.6 L 365.6 153.2 L 367.2 152.7 L 369.3 152.1 L 371.4 151.6 L 373.1 151.2 L 374.5 150.7 L 375.5 150.3 L 376.7 149.7 L 377.7 149 L 378.5 148.3 L 379.2 147.5 L 379.7 146.6 L 380 145.6 L 380.3 144.5 L 380.3 143.4 L 380.3 142.3 L 380 141.3 L 379.6 140.2 L 379 139.2 L 378.3 138.3 L 377.5 137.5 L 376.5 136.8 L 375.3 136.1 L 374.1 135.6 L 372.8 135.3 L 371.4 135.1 L 369.9 135 L 368.1 135.1 L 366.4 135.3 L 364.9 135.6 L 363.5 136.1 L 362.3 136.8 L 361.2 137.5 L 360.3 138.4 L 359.4 139.5 L 358.8 140.6 L 358.3 141.9 L 358 143.2 L 357.9 144.5 L 357.9 144.5 Z"/><path d="M 390.3 135.5 L 382.9 163.7 L 386.7 163.7 L 391 145.2 L 391.3 143.8 L 391.6 142.3 L 391.9 140.9 L 392.2 139.4 L 392.7 141.5 L 393 143 L 393.3 144.1 L 393.4 144.7 L 398.8 163.7 L 403.3 163.7 L 407.3 149.4 L 408.1 146.8 L 408.6 144.3 L 409.2 141.8 L 409.5 139.4 L 409.8 140.8 L 410.1 142.3 L 410.5 143.9 L 410.9 145.6 L 415.3 163.7 L 419.1 163.7 L 411.4 135.5 L 407.8 135.5 L 401.8 157 L 401.5 158.2 L 401.2 159.2 L 401 159.8 L 401 160.3 L 400.7 159.4 L 400.5 158.5 L 400.3 157.7 L 400.1 157 L 394.2 135.5 L 390.3 135.5 L 390.3 135.5 Z"/><path d="M 421.2 142.9 L 424.8 143.2 L 425.1 141.9 L 425.5 140.8 L 426 139.9 L 426.7 139.2 L 427.5 138.6 L 428.3 138.2 L 429.2 137.9 L 430.2 137.9 L 431.4 138 L 432.5 138.3 L 433.6 138.9 L 434.5 139.7 L 435.2 140.8 L 435.8 141.9 L 436.1 143.2 L 436.2 144.7 L 436.1 146.2 L 435.8 147.4 L 435.3 148.5 L 434.5 149.4 L 433.6 150.2 L 432.6 150.7 L 431.4 151 L 430.2 151.1 L 429.4 151.1 L 428.6 150.9 L 427.9 150.7 L 427.1 150.4 L 426.5 150 L 426 149.5 L 425.5 149 L 425.1 148.4 L 421.8 148.8 L 424.5 163.3 L 438.5 163.3 L 438.5 160 L 427.3 160 L 425.8 152.4 L 427.1 153.2 L 428.4 153.8 L 429.7 154.1 L 431.1 154.2 L 432.9 154 L 434.5 153.6 L 436 152.7 L 437.3 151.6 L 438.4 150.3 L 439.2 148.7 L 439.7 147 L 439.9 145.1 L 439.7 143.2 L 439.3 141.5 L 438.6 139.9 L 437.6 138.4 L 436.2 136.9 L 434.4 135.9 L 432.5 135.2 L 430.2 135 L 428.4 135.1 L 426.8 135.6 L 425.3 136.2 L 424 137.2 L 422.9 138.3 L 422 139.7 L 421.5 141.2 L 421.2 142.9 L 421.2 142.9 Z"/><path stroke-width="5.9" fill="none" d="M 238.8 814.5 L 238.8 1066.6 M 238.8 1066.6 L 563.6 1066.6 M 563.6 1066.6 L 563.6 814.5 M 563.6 814.5 L 238.8 814.5"/><use x="219.1" y="1029.2" xlink:href="#tool-D11-pad-1020"/><path d="M 357.9 933.9 L 361.4 934.2 L 361.6 933.2 L 361.8 932.3 L 362.1 931.5 L 362.6 930.8 L 363.1 930.1 L 363.7 929.5 L 364.5 929 L 365.4 928.6 L 366.4 928.2 L 367.5 927.9 L 368.6 927.8 L 369.7 927.7 L 370.8 927.8 L 371.8 927.9 L 372.7 928.1 L 373.5 928.4 L 374.3 928.7 L 374.9 929.1 L 375.5 929.6 L 375.9 930.1 L 376.3 930.7 L 376.5 931.3 L 376.7 931.9 L 376.7 932.5 L 376.7 933.2 L 376.6 933.8 L 376.3 934.3 L 376 934.8 L 375.5 935.3 L 374.9 935.8 L 374.2 936.2 L 373.4 936.5 L 372.7 936.8 L 371.6 937.1 L 370.2 937.4 L 368.4 937.9 L 366.6 938.3 L 365.1 938.8 L 363.9 939.2 L 363 939.6 L 362 940.2 L 361.2 940.8 L 360.5 941.5 L 359.9 942.3 L 359.5 943.1 L 359.2 943.9 L 359 944.8 L 359 945.8 L 359 946.8 L 359.3 947.8 L 359.7 948.8 L 360.2 949.7 L 360.8 950.6 L 361.7 951.4 L 362.6 952 L 363.7 952.6 L 364.9 953 L 366.2 953.3 L 367.5 953.5 L 368.9 953.5 L 370.4 953.5 L 371.8 953.3 L 373.2 953 L 374.4 952.5 L 375.5 951.9 L 376.5 951.3 L 377.4 950.5 L 378.1 949.5 L 378.7 948.5 L 379.1 947.5 L 379.4 946.3 L 379.5 945.1 L 375.9 944.9 L 375.7 946.1 L 375.3 947.2 L 374.7 948.1 L 374 948.9 L 373 949.5 L 371.9 949.9 L 370.6 950.2 L 369 950.3 L 367.5 950.2 L 366.1 949.9 L 365 949.5 L 364.1 949 L 363.4 948.4 L 362.9 947.7 L 362.7 946.9 L 362.6 946 L 362.6 945.3 L 362.9 944.6 L 363.2 944 L 363.6 943.5 L 364.4 943 L 365.6 942.5 L 367.2 942 L 369.3 941.5 L 371.4 941 L 373.1 940.5 L 374.5 940.1 L 375.5 939.7 L 376.7 939.1 L 377.7 938.4 L 378.5 937.7 L 379.2 936.8 L 379.7 935.9 L 380 935 L 380.3 933.9 L 380.3 932.8 L 380.3 931.7 L 380 930.6 L 379.6 929.6 L 379 928.6 L 378.3 927.7 L 377.5 926.8 L 376.5 926.1 L 375.3 925.5 L 374.1 925 L 372.8 924.7 L 371.4 924.5 L 369.9 924.4 L 368.1 924.5 L 366.4 924.7 L 364.9 925 L 363.5 925.5 L 362.3 926.1 L 361.2 926.9 L 360.3 927.8 L 359.4 928.9 L 358.8 930 L 358.3 931.2 L 358 932.5 L 357.9 933.9 L 357.9 933.9 Z"/><path d="M 390.3 924.9 L 382.9 953.1 L 386.7 953.1 L 391 934.6 L 391.3 933.1 L 391.6 931.7 L 391.9 930.3 L 392.2 928.8 L 392.7 930.8 L 393 932.4 L 393.3 933.4 L 393.4 934 L 398.8 953.1 L 403.3 953.1 L 407.3 938.8 L 408.1 936.2 L 408.6 933.6 L 409.2 931.2 L 409.5 928.8 L 409.8 930.2 L 410.1 931.7 L 410.5 933.2 L 410.9 934.9 L 415.3 953.1 L 419.1 953.1 L 411.4 924.9 L 407.8 924.9 L 401.8 946.4 L 401.5 947.5 L 401.2 948.5 L 401 949.2 L 401 949.7 L 400.7 948.7 L 400.5 947.9 L 400.3 947.1 L 400.1 946.4 L 394.2 924.9 L 390.3 924.9 L 390.3 924.9 Z"/><path d="M 439.4 928.2 L 439.4 924.9 L 420.7 924.9 L 420.7 925.5 L 420.8 926.1 L 421 926.7 L 421.1 927.3 L 421.6 928.2 L 422.1 929.2 L 422.7 930.1 L 423.4 931 L 424.3 932 L 425.3 933 L 426.6 934.1 L 427.9 935.3 L 430.1 937.1 L 431.8 938.7 L 433.2 940.1 L 434.2 941.2 L 434.9 942.3 L 435.4 943.4 L 435.6 944.4 L 435.8 945.4 L 435.7 946.4 L 435.4 947.3 L 434.9 948.1 L 434.3 948.9 L 433.5 949.5 L 432.6 949.9 L 431.6 950.2 L 430.5 950.3 L 429.3 950.2 L 428.2 949.9 L 427.3 949.5 L 426.5 948.8 L 425.8 948 L 425.3 947 L 425.1 945.9 L 424.9 944.7 L 421.4 945 L 421.7 946.9 L 422.3 948.5 L 423.1 949.9 L 424.2 951.1 L 425.4 952 L 426.9 952.7 L 428.6 953.1 L 430.5 953.2 L 432.5 953 L 434.2 952.6 L 435.7 951.9 L 436.9 950.9 L 438 949.7 L 438.7 948.4 L 439.2 946.9 L 439.3 945.3 L 439.3 944.5 L 439.2 943.7 L 438.9 942.9 L 438.6 942 L 438.2 941.2 L 437.7 940.3 L 437.1 939.5 L 436.3 938.6 L 435.4 937.6 L 434.2 936.4 L 432.7 935.1 L 431 933.6 L 429.6 932.4 L 428.4 931.4 L 427.6 930.6 L 427 930.1 L 426.6 929.6 L 426.2 929.2 L 425.8 928.7 L 425.5 928.2 L 439.4 928.2 L 439.4 928.2 Z"/><path d="M 36.8 201.4 L 49.6 234.8 L 53 233.5 L 52.6 231.8 L 52.2 230 L 51.7 228.3 L 51.1 226.6 L 47.1 216.1 L 47.1 216.1 L 59.3 216.1 L 55.5 226 L 54.7 228.2 L 54 230.2 L 53.5 231.9 L 53 233.5 L 49.6 234.8 L 50.6 237.2 L 55.6 237.2 L 70.3 201.4 L 64.9 201.4 L 60.7 212.3 L 45.8 212.3 L 41.8 201.4 L 36.8 201.4 L 36.8 201.4 Z"/><path d="M 751.6 1203.6 L 747.2 1203.6 L 747.2 1231.6 L 746.4 1230.8 L 745.4 1230.1 L 744.3 1229.3 L 743.1 1228.5 L 741.8 1227.8 L 740.6 1227.2 L 739.5 1226.7 L 738.4 1226.3 L 738.4 1230.5 L 740.2 1231.4 L 741.9 1232.4 L 743.4 1233.5 L 744.9 1234.7 L 746.1 1235.9 L 747.2 1237.1 L 748.1 1238.3 L 748.8 1239.5 L 751.6 1239.5 L 751.6 1203.6 L 751.6 1203.6 Z"/><path d="M 744.6 103.6 L 744.6 139.4 L 749.3 139.4 L 749.3 103.6 L 744.6 103.6 L 744.6 103.6 Z"/><path d="M 64.8 1005.6 L 64.8 1001.4 L 41.2 1001.4 L 41.2 1002.2 L 41.3 1003 L 41.4 1003.8 L 41.7 1004.5 L 42.2 1005.7 L 42.9 1006.9 L 43.6 1008.1 L 44.6 1009.2 L 45.7 1010.5 L 47 1011.8 L 48.6 1013.2 L 50.3 1014.7 L 53 1016.9 L 55.2 1019 L 56.9 1020.7 L 58.2 1022.3 L 59.1 1023.6 L 59.7 1025 L 60.1 1026.3 L 60.3 1027.5 L 60.1 1028.8 L 59.8 1029.9 L 59.2 1031 L 58.4 1031.9 L 57.4 1032.7 L 56.2 1033.3 L 54.9 1033.6 L 53.5 1033.7 L 52 1033.6 L 50.7 1033.2 L 49.5 1032.7 L 48.4 1031.8 L 47.6 1030.8 L 47 1029.5 L 46.6 1028.2 L 46.5 1026.6 L 42 1027 L 42.4 1029.4 L 43.1 1031.5 L 44.2 1033.2 L 45.5 1034.7 L 47.1 1035.9 L 49 1036.7 L 51.2 1037.2 L 53.6 1037.4 L 56.1 1037.2 L 58.2 1036.7 L 60.1 1035.8 L 61.8 1034.5 L 63.1 1033 L 64 1031.3 L 64.6 1029.5 L 64.8 1027.4 L 64.7 1026.4 L 64.5 1025.3 L 64.3 1024.3 L 63.9 1023.2 L 63.4 1022.1 L 62.7 1021.1 L 61.9 1020 L 61 1018.8 L 59.8 1017.6 L 58.3 1016.1 L 56.4 1014.4 L 54.2 1012.5 L 52.4 1011 L 51 1009.7 L 49.9 1008.8 L 49.1 1008.1 L 48.6 1007.5 L 48.1 1006.9 L 47.7 1006.2 L 47.3 1005.6 L 64.8 1005.6 L 64.8 1005.6 Z"/><path d="M 64.8 905.6 L 64.8 901.4 L 41.2 901.4 L 41.2 902.2 L 41.3 903 L 41.4 903.8 L 41.7 904.5 L 42.2 905.7 L 42.9 906.9 L 43.6 908.1 L 44.6 909.2 L 45.7 910.5 L 47 911.8 L 48.6 913.2 L 50.3 914.7 L 53 916.9 L 55.2 919 L 56.9 920.7 L 58.2 922.3 L 59.1 923.6 L 59.7 925 L 60.1 926.3 L 60.3 927.5 L 60.1 928.8 L 59.8 929.9 L 59.2 931 L 58.4 931.9 L 57.4 932.7 L 56.2 933.3 L 54.9 933.6 L 53.5 933.7 L 52 933.6 L 50.7 933.2 L 49.5 932.7 L 48.4 931.8 L 47.6 930.8 L 47 929.5 L 46.6 928.2 L 46.5 926.6 L 42 927 L 42.4 929.4 L 43.1 931.5 L 44.2 933.2 L 45.5 934.7 L 47.1 935.9 L 49 936.7 L 51.2 937.2 L 53.6 937.4 L 56.1 937.2 L 58.2 936.7 L 60.1 935.8 L 61.8 934.5 L 63.1 933 L 64 931.3 L 64.6 929.5 L 64.8 927.4 L 64.7 926.4 L 64.5 925.3 L 64.3 924.3 L 63.9 923.2 L 63.4 922.1 L 62.7 921.1 L 61.9 920 L 61 918.8 L 59.8 917.6 L 58.3 916.1 L 56.4 914.4 L 54.2 912.5 L 52.4 911 L 51 909.7 L 49.9 908.8 L 49.1 908.1 L 48.6 907.5 L 48.1 906.9 L 47.7 906.2 L 47.3 905.6 L 64.8 905.6 L 64.8 905.6 Z"/><path d="M 730.1 203.6 L 742.9 236.9 L 746.3 235.6 L 745.9 233.9 L 745.5 232.1 L 745 230.5 L 744.4 228.8 L 740.5 218.2 L 740.5 218.2 L 752.6 218.2 L 748.8 228.2 L 748.1 230.3 L 747.3 232.3 L 746.8 234 L 746.3 235.6 L 742.9 236.9 L 743.9 239.4 L 749 239.4 L 763.6 203.6 L 758.2 203.6 L 754 214.4 L 739.1 214.4 L 735.1 203.6 L 730.1 203.6 L 730.1 203.6 Z"/><path d="M 58.3 1101.4 L 53.9 1101.4 L 53.9 1129.4 L 53.1 1128.7 L 52.1 1127.9 L 51 1127.2 L 49.7 1126.4 L 48.5 1125.7 L 47.3 1125.1 L 46.2 1124.6 L 45.1 1124.2 L 45.1 1128.4 L 46.9 1129.3 L 48.6 1130.3 L 50.1 1131.4 L 51.6 1132.6 L 52.8 1133.8 L 53.9 1135 L 54.8 1136.2 L 55.5 1137.4 L 58.3 1137.4 L 58.3 1101.4 L 58.3 1101.4 Z"/><path d="M 735.1 713 L 739.5 713.6 L 739.9 711.9 L 740.5 710.4 L 741.2 709.2 L 742 708.2 L 743 707.5 L 744 707 L 745.2 706.7 L 746.5 706.6 L 748 706.7 L 749.3 707.1 L 750.6 707.8 L 751.7 708.7 L 752.7 709.9 L 753.3 711.1 L 753.7 712.5 L 753.8 714 L 753.7 715.5 L 753.3 716.8 L 752.7 718 L 751.9 719 L 750.8 719.9 L 749.6 720.5 L 748.3 720.9 L 746.8 721 L 746.2 721 L 745.5 720.9 L 744.6 720.7 L 743.7 720.5 L 744.2 724.4 L 744.4 724.4 L 744.6 724.3 L 744.8 724.3 L 744.9 724.3 L 746.3 724.4 L 747.6 724.7 L 748.8 725.1 L 750 725.8 L 751 726.6 L 751.7 727.7 L 752.1 728.9 L 752.2 730.3 L 752.1 731.4 L 751.8 732.5 L 751.3 733.4 L 750.6 734.3 L 749.7 735 L 748.7 735.5 L 747.6 735.8 L 746.4 735.9 L 745.1 735.8 L 744 735.5 L 743 735 L 742.1 734.3 L 741.3 733.4 L 740.7 732.3 L 740.2 731 L 739.9 729.4 L 735.5 730.2 L 736 732.3 L 736.8 734.2 L 737.9 735.7 L 739.2 737.1 L 740.7 738.1 L 742.4 738.9 L 744.2 739.4 L 746.3 739.5 L 747.7 739.4 L 749.1 739.2 L 750.4 738.8 L 751.7 738.2 L 752.8 737.5 L 753.8 736.8 L 754.7 735.8 L 755.5 734.8 L 756 733.7 L 756.4 732.6 L 756.7 731.4 L 756.8 730.2 L 756.7 729.1 L 756.4 728 L 756 726.9 L 755.5 726 L 754.8 725.1 L 754 724.3 L 753 723.6 L 751.8 722.9 L 753.3 722.5 L 754.6 721.8 L 755.8 721 L 756.8 719.9 L 757.5 718.7 L 758.1 717.3 L 758.4 715.8 L 758.5 714.2 L 758.3 711.9 L 757.7 709.8 L 756.6 707.9 L 755.1 706.2 L 753.2 704.7 L 751.2 703.8 L 749 703.1 L 746.4 702.9 L 744.2 703.1 L 742.1 703.6 L 740.3 704.5 L 738.6 705.7 L 737.2 707.2 L 736.2 709 L 735.5 710.9 L 735.1 713 L 735.1 713 Z"/><path d="M 41.8 310.8 L 46.4 311.2 L 46.7 309.6 L 47.2 308.2 L 47.9 307.1 L 48.7 306.1 L 49.7 305.4 L 50.8 304.9 L 51.9 304.5 L 53.2 304.4 L 54.7 304.6 L 56.2 305 L 57.5 305.8 L 58.6 306.8 L 59.5 308.1 L 60.3 309.6 L 60.6 311.3 L 60.8 313.2 L 60.7 315 L 60.3 316.6 L 59.6 317.9 L 58.7 319.1 L 57.5 320.1 L 56.2 320.7 L 54.8 321.2 L 53.2 321.3 L 52.1 321.2 L 51.1 321 L 50.2 320.7 L 49.3 320.3 L 48.5 319.8 L 47.8 319.2 L 47.2 318.6 L 46.6 317.8 L 42.5 318.4 L 46 336.8 L 63.8 336.8 L 63.8 332.5 L 49.5 332.5 L 47.6 322.9 L 49.2 323.9 L 50.9 324.6 L 52.6 325 L 54.4 325.2 L 56.6 325 L 58.6 324.4 L 60.5 323.3 L 62.2 321.9 L 63.6 320.2 L 64.7 318.2 L 65.3 316 L 65.5 313.6 L 65.3 311.2 L 64.7 309 L 63.9 307 L 62.6 305.2 L 60.8 303.3 L 58.6 301.9 L 56 301.1 L 53.2 300.8 L 50.9 301 L 48.8 301.5 L 46.9 302.4 L 45.3 303.6 L 43.9 305.1 L 42.9 306.8 L 42.1 308.7 L 41.8 310.8 L 41.8 310.8 Z"/><path d="M 735.1 813 L 739.5 813.6 L 739.9 811.9 L 740.5 810.4 L 741.2 809.2 L 742 808.2 L 743 807.5 L 744 807 L 745.2 806.7 L 746.5 806.6 L 748 806.7 L 749.3 807.1 L 750.6 807.8 L 751.7 808.7 L 752.7 809.9 L 753.3 811.1 L 753.7 812.5 L 753.8 814 L 753.7 815.5 L 753.3 816.8 L 752.7 818 L 751.9 819 L 750.8 819.9 L 749.6 820.5 L 748.3 820.9 L 746.8 821 L 746.2 821 L 745.5 820.9 L 744.6 820.7 L 743.7 820.5 L 744.2 824.4 L 744.4 824.4 L 744.6 824.3 L 744.8 824.3 L 744.9 824.3 L 746.3 824.4 L 747.6 824.7 L 748.8 825.1 L 750 825.8 L 751 826.6 L 751.7 827.7 L 752.1 828.9 L 752.2 830.3 L 752.1 831.4 L 751.8 832.5 L 751.3 833.4 L 750.6 834.3 L 749.7 835 L 748.7 835.5 L 747.6 835.8 L 746.4 835.9 L 745.1 835.8 L 744 835.5 L 743 835 L 742.1 834.3 L 741.3 833.4 L 740.7 832.3 L 740.2 831 L 739.9 829.4 L 735.5 830.2 L 736 832.3 L 736.8 834.2 L 737.9 835.7 L 739.2 837.1 L 740.7 838.1 L 742.4 838.9 L 744.2 839.4 L 746.3 839.5 L 747.7 839.4 L 749.1 839.2 L 750.4 838.8 L 751.7 838.2 L 752.8 837.5 L 753.8 836.8 L 754.7 835.8 L 755.5 834.8 L 756 833.7 L 756.4 832.6 L 756.7 831.4 L 756.8 830.2 L 756.7 829.1 L 756.4 828 L 756 826.9 L 755.5 826 L 754.8 825.1 L 754 824.3 L 753 823.6 L 751.8 822.9 L 753.3 822.5 L 754.6 821.8 L 755.8 821 L 756.8 819.9 L 757.5 818.7 L 758.1 817.3 L 758.4 815.8 L 758.5 814.2 L 758.3 811.9 L 757.7 809.8 L 756.6 807.9 L 755.1 806.2 L 753.2 804.7 L 751.2 803.8 L 749 803.1 L 746.4 802.9 L 744.2 803.1 L 742.1 803.6 L 740.3 804.5 L 738.6 805.7 L 737.2 807.2 L 736.2 809 L 735.5 810.9 L 735.1 813 L 735.1 813 Z"/><path d="M 51.3 101.4 L 51.3 137.2 L 56 137.2 L 56 101.4 L 51.3 101.4 L 51.3 101.4 Z"/><path d="M 758.1 907.8 L 758.1 903.6 L 734.5 903.6 L 734.5 904.4 L 734.6 905.1 L 734.7 905.9 L 735 906.6 L 735.5 907.8 L 736.2 909 L 736.9 910.2 L 737.9 911.4 L 739 912.6 L 740.3 913.9 L 741.9 915.3 L 743.6 916.8 L 746.3 919.1 L 748.5 921.1 L 750.3 922.9 L 751.5 924.4 L 752.4 925.8 L 753.1 927.1 L 753.4 928.4 L 753.6 929.7 L 753.4 930.9 L 753.1 932.1 L 752.5 933.1 L 751.7 934.1 L 750.7 934.9 L 749.5 935.4 L 748.2 935.8 L 746.8 935.8 L 745.3 935.7 L 744 935.4 L 742.8 934.8 L 741.8 934 L 740.9 932.9 L 740.3 931.7 L 739.9 930.3 L 739.8 928.7 L 735.3 929.2 L 735.7 931.5 L 736.4 933.6 L 737.5 935.4 L 738.8 936.9 L 740.5 938 L 742.3 938.8 L 744.5 939.4 L 746.9 939.5 L 749.4 939.3 L 751.6 938.8 L 753.4 937.9 L 755.1 936.6 L 756.4 935.1 L 757.3 933.4 L 757.9 931.6 L 758.1 929.5 L 758.1 928.5 L 757.9 927.4 L 757.6 926.4 L 757.2 925.3 L 756.7 924.3 L 756 923.2 L 755.3 922.1 L 754.3 921 L 753.1 919.7 L 751.6 918.2 L 749.7 916.6 L 747.5 914.7 L 745.7 913.1 L 744.3 911.9 L 743.2 910.9 L 742.4 910.2 L 741.9 909.6 L 741.4 909 L 741 908.4 L 740.6 907.8 L 758.1 907.8 L 758.1 907.8 Z"/><path d="M 751.6 1103.6 L 747.2 1103.6 L 747.2 1131.6 L 746.4 1130.8 L 745.4 1130.1 L 744.3 1129.3 L 743.1 1128.5 L 741.8 1127.8 L 740.6 1127.2 L 739.5 1126.7 L 738.4 1126.3 L 738.4 1130.5 L 740.2 1131.4 L 741.9 1132.4 L 743.4 1133.5 L 744.9 1134.7 L 746.1 1135.9 L 747.2 1137.1 L 748.1 1138.3 L 748.8 1139.5 L 751.6 1139.5 L 751.6 1103.6 L 751.6 1103.6 Z"/><path d="M 41.8 710.9 L 46.2 711.5 L 46.6 709.7 L 47.2 708.2 L 47.9 707 L 48.7 706.1 L 49.7 705.4 L 50.7 704.9 L 51.9 704.5 L 53.2 704.4 L 54.7 704.6 L 56 705 L 57.3 705.6 L 58.4 706.6 L 59.4 707.7 L 60 709 L 60.4 710.4 L 60.5 711.9 L 60.4 713.4 L 60 714.7 L 59.4 715.8 L 58.6 716.9 L 57.5 717.8 L 56.3 718.4 L 55 718.8 L 53.5 718.9 L 52.9 718.8 L 52.1 718.8 L 51.3 718.6 L 50.4 718.4 L 50.9 722.2 L 51.1 722.2 L 51.3 722.2 L 51.5 722.2 L 51.6 722.2 L 53 722.3 L 54.3 722.5 L 55.5 723 L 56.7 723.6 L 57.7 724.5 L 58.4 725.5 L 58.8 726.8 L 58.9 728.2 L 58.8 729.3 L 58.5 730.4 L 58 731.3 L 57.3 732.2 L 56.4 732.9 L 55.4 733.4 L 54.3 733.7 L 53.1 733.8 L 51.8 733.6 L 50.7 733.4 L 49.7 732.9 L 48.8 732.1 L 48 731.2 L 47.4 730.1 L 46.9 728.8 L 46.6 727.3 L 42.2 728.1 L 42.7 730.2 L 43.5 732 L 44.5 733.6 L 45.8 734.9 L 47.4 736 L 49.1 736.8 L 50.9 737.2 L 53 737.4 L 54.4 737.3 L 55.8 737.1 L 57.1 736.7 L 58.4 736.1 L 59.5 735.4 L 60.5 734.6 L 61.4 733.7 L 62.1 732.7 L 62.7 731.6 L 63.1 730.5 L 63.4 729.3 L 63.4 728.1 L 63.4 726.9 L 63.1 725.8 L 62.7 724.8 L 62.2 723.8 L 61.5 722.9 L 60.6 722.1 L 59.7 721.4 L 58.5 720.8 L 60 720.4 L 61.3 719.7 L 62.5 718.8 L 63.4 717.8 L 64.2 716.6 L 64.7 715.2 L 65.1 713.7 L 65.2 712 L 65 709.7 L 64.4 707.7 L 63.3 705.8 L 61.8 704.1 L 59.9 702.6 L 57.9 701.6 L 55.6 701 L 53.1 700.8 L 50.9 701 L 48.8 701.5 L 46.9 702.4 L 45.3 703.6 L 43.9 705.1 L 42.9 706.8 L 42.1 708.8 L 41.8 710.9 L 41.8 710.9 Z"/><path d="M 735.1 412.9 L 739.7 413.3 L 740 411.8 L 740.5 410.4 L 741.2 409.2 L 742 408.2 L 743 407.5 L 744.1 407 L 745.3 406.7 L 746.6 406.6 L 748.1 406.7 L 749.5 407.1 L 750.8 407.9 L 751.9 409 L 752.9 410.3 L 753.6 411.8 L 754 413.4 L 754.1 415.3 L 754 417.1 L 753.6 418.7 L 752.9 420.1 L 752 421.2 L 750.8 422.2 L 749.5 422.9 L 748.1 423.3 L 746.5 423.4 L 745.4 423.4 L 744.4 423.2 L 743.5 422.9 L 742.6 422.5 L 741.8 421.9 L 741.1 421.4 L 740.5 420.7 L 739.9 419.9 L 735.8 420.5 L 739.3 438.9 L 757.1 438.9 L 757.1 434.7 L 742.8 434.7 L 740.9 425.1 L 742.5 426 L 744.2 426.7 L 745.9 427.1 L 747.7 427.3 L 749.9 427.1 L 751.9 426.5 L 753.8 425.5 L 755.5 424 L 756.9 422.3 L 758 420.3 L 758.6 418.1 L 758.8 415.7 L 758.6 413.4 L 758.1 411.2 L 757.2 409.2 L 755.9 407.3 L 754.1 405.4 L 751.9 404 L 749.4 403.2 L 746.6 402.9 L 744.2 403.1 L 742.1 403.6 L 740.2 404.5 L 738.6 405.7 L 737.2 407.2 L 736.2 408.9 L 735.4 410.8 L 735.1 412.9 L 735.1 412.9 Z"/><path d="M 55.8 601.4 L 55.8 610 L 40.3 610 L 40.3 614 L 53.1 632.1 L 55.8 630.2 L 44.6 614 L 55.8 614 L 55.8 614 L 55.8 630.2 L 53.1 632.1 L 56.6 637.2 L 60.2 637.2 L 60.2 614 L 65.1 614 L 65.1 610 L 60.2 610 L 60.2 601.4 L 55.8 601.4 L 55.8 601.4 Z"/><path d="M 758.1 1007.8 L 758.1 1003.6 L 734.5 1003.6 L 734.5 1004.4 L 734.6 1005.1 L 734.7 1005.9 L 735 1006.6 L 735.5 1007.8 L 736.2 1009 L 736.9 1010.2 L 737.9 1011.4 L 739 1012.6 L 740.3 1013.9 L 741.9 1015.3 L 743.6 1016.8 L 746.3 1019.1 L 748.5 1021.1 L 750.3 1022.9 L 751.5 1024.4 L 752.4 1025.8 L 753.1 1027.1 L 753.4 1028.4 L 753.6 1029.7 L 753.4 1030.9 L 753.1 1032.1 L 752.5 1033.1 L 751.7 1034.1 L 750.7 1034.9 L 749.5 1035.4 L 748.2 1035.8 L 746.8 1035.8 L 745.3 1035.7 L 744 1035.4 L 742.8 1034.8 L 741.8 1034 L 740.9 1032.9 L 740.3 1031.7 L 739.9 1030.3 L 739.8 1028.7 L 735.3 1029.2 L 735.7 1031.5 L 736.4 1033.6 L 737.5 1035.4 L 738.8 1036.9 L 740.5 1038 L 742.3 1038.8 L 744.5 1039.4 L 746.9 1039.5 L 749.4 1039.3 L 751.6 1038.8 L 753.4 1037.9 L 755.1 1036.6 L 756.4 1035.1 L 757.3 1033.4 L 757.9 1031.6 L 758.1 1029.5 L 758.1 1028.5 L 757.9 1027.4 L 757.6 1026.4 L 757.2 1025.3 L 756.7 1024.3 L 756 1023.2 L 755.3 1022.1 L 754.3 1021 L 753.1 1019.7 L 751.6 1018.2 L 749.7 1016.6 L 747.5 1014.7 L 745.7 1013.1 L 744.3 1011.9 L 743.2 1010.9 L 742.4 1010.2 L 741.9 1009.6 L 741.4 1009 L 741 1008.4 L 740.6 1007.8 L 758.1 1007.8 L 758.1 1007.8 Z"/><path d="M 55.8 501.4 L 55.8 510 L 40.3 510 L 40.3 514 L 53.1 532.1 L 55.8 530.2 L 44.6 514 L 55.8 514 L 55.8 514 L 55.8 530.2 L 53.1 532.1 L 56.6 537.2 L 60.2 537.2 L 60.2 514 L 65.1 514 L 65.1 510 L 60.2 510 L 60.2 501.4 L 55.8 501.4 L 55.8 501.4 Z"/><path d="M 749.1 503.6 L 749.1 512.1 L 733.6 512.1 L 733.6 516.2 L 746.4 534.3 L 749.1 532.3 L 737.9 516.2 L 749.1 516.2 L 749.1 516.2 L 749.1 532.3 L 746.4 534.3 L 749.9 539.4 L 753.5 539.4 L 753.5 516.2 L 758.4 516.2 L 758.4 512.1 L 753.5 512.1 L 753.5 503.6 L 749.1 503.6 L 749.1 503.6 Z"/><path d="M 54.4 1201.4 L 49.9 1201.4 L 49.9 1229.4 L 49.1 1228.7 L 48.1 1227.9 L 47 1227.2 L 45.8 1226.4 L 44.5 1225.7 L 43.4 1225.1 L 42.2 1224.6 L 41.2 1224.2 L 41.2 1228.4 L 42.9 1229.3 L 44.6 1230.3 L 46.2 1231.4 L 47.6 1232.6 L 48.9 1233.8 L 50 1235 L 50.8 1236.2 L 51.5 1237.4 L 54.4 1237.4 L 54.4 1201.4 L 54.4 1201.4 Z"/><path d="M 735.1 312.9 L 739.7 313.3 L 740 311.8 L 740.5 310.4 L 741.2 309.2 L 742 308.2 L 743 307.5 L 744.1 307 L 745.3 306.7 L 746.6 306.6 L 748.1 306.7 L 749.5 307.1 L 750.8 307.9 L 751.9 309 L 752.9 310.3 L 753.6 311.8 L 754 313.4 L 754.1 315.3 L 754 317.1 L 753.6 318.7 L 752.9 320.1 L 752 321.2 L 750.8 322.2 L 749.5 322.9 L 748.1 323.3 L 746.5 323.4 L 745.4 323.4 L 744.4 323.2 L 743.5 322.9 L 742.6 322.5 L 741.8 321.9 L 741.1 321.4 L 740.5 320.7 L 739.9 319.9 L 735.8 320.5 L 739.3 338.9 L 757.1 338.9 L 757.1 334.7 L 742.8 334.7 L 740.9 325.1 L 742.5 326 L 744.2 326.7 L 745.9 327.1 L 747.7 327.3 L 749.9 327.1 L 751.9 326.5 L 753.8 325.5 L 755.5 324 L 756.9 322.3 L 758 320.3 L 758.6 318.1 L 758.8 315.7 L 758.6 313.4 L 758.1 311.2 L 757.2 309.2 L 755.9 307.3 L 754.1 305.4 L 751.9 304 L 749.4 303.2 L 746.6 302.9 L 744.2 303.1 L 742.1 303.6 L 740.2 304.5 L 738.6 305.7 L 737.2 307.2 L 736.2 308.9 L 735.4 310.8 L 735.1 312.9 L 735.1 312.9 Z"/><path d="M 41.8 410.8 L 46.4 411.2 L 46.7 409.6 L 47.2 408.2 L 47.9 407.1 L 48.7 406.1 L 49.7 405.4 L 50.8 404.9 L 51.9 404.5 L 53.2 404.4 L 54.7 404.6 L 56.2 405 L 57.5 405.8 L 58.6 406.8 L 59.5 408.1 L 60.3 409.6 L 60.6 411.3 L 60.8 413.2 L 60.7 415 L 60.3 416.6 L 59.6 417.9 L 58.7 419.1 L 57.5 420.1 L 56.2 420.7 L 54.8 421.2 L 53.2 421.3 L 52.1 421.2 L 51.1 421 L 50.2 420.7 L 49.3 420.3 L 48.5 419.8 L 47.8 419.2 L 47.2 418.6 L 46.6 417.8 L 42.5 418.4 L 46 436.8 L 63.8 436.8 L 63.8 432.5 L 49.5 432.5 L 47.6 422.9 L 49.2 423.9 L 50.9 424.6 L 52.6 425 L 54.4 425.2 L 56.6 425 L 58.6 424.4 L 60.5 423.3 L 62.2 421.9 L 63.6 420.2 L 64.7 418.2 L 65.3 416 L 65.5 413.6 L 65.3 411.2 L 64.7 409 L 63.9 407 L 62.6 405.2 L 60.8 403.3 L 58.6 401.9 L 56 401.1 L 53.2 400.8 L 50.9 401 L 48.8 401.5 L 46.9 402.4 L 45.3 403.6 L 43.9 405.1 L 42.9 406.8 L 42.1 408.7 L 41.8 410.8 L 41.8 410.8 Z"/><path d="M 41.8 810.9 L 46.2 811.5 L 46.6 809.7 L 47.2 808.2 L 47.9 807 L 48.7 806.1 L 49.7 805.4 L 50.7 804.9 L 51.9 804.5 L 53.2 804.4 L 54.7 804.6 L 56 805 L 57.3 805.6 L 58.4 806.6 L 59.4 807.7 L 60 809 L 60.4 810.4 L 60.5 811.9 L 60.4 813.4 L 60 814.7 L 59.4 815.8 L 58.6 816.9 L 57.5 817.8 L 56.3 818.4 L 55 818.8 L 53.5 818.9 L 52.9 818.8 L 52.1 818.8 L 51.3 818.6 L 50.4 818.4 L 50.9 822.2 L 51.1 822.2 L 51.3 822.2 L 51.5 822.2 L 51.6 822.2 L 53 822.3 L 54.3 822.5 L 55.5 823 L 56.7 823.6 L 57.7 824.5 L 58.4 825.5 L 58.8 826.8 L 58.9 828.2 L 58.8 829.3 L 58.5 830.4 L 58 831.3 L 57.3 832.2 L 56.4 832.9 L 55.4 833.4 L 54.3 833.7 L 53.1 833.8 L 51.8 833.6 L 50.7 833.4 L 49.7 832.9 L 48.8 832.1 L 48 831.2 L 47.4 830.1 L 46.9 828.8 L 46.6 827.3 L 42.2 828.1 L 42.7 830.2 L 43.5 832 L 44.5 833.6 L 45.8 834.9 L 47.4 836 L 49.1 836.8 L 50.9 837.2 L 53 837.4 L 54.4 837.3 L 55.8 837.1 L 57.1 836.7 L 58.4 836.1 L 59.5 835.4 L 60.5 834.6 L 61.4 833.7 L 62.1 832.7 L 62.7 831.6 L 63.1 830.5 L 63.4 829.3 L 63.4 828.1 L 63.4 826.9 L 63.1 825.8 L 62.7 824.8 L 62.2 823.8 L 61.5 822.9 L 60.6 822.1 L 59.7 821.4 L 58.5 820.8 L 60 820.4 L 61.3 819.7 L 62.5 818.8 L 63.4 817.8 L 64.2 816.6 L 64.7 815.2 L 65.1 813.7 L 65.2 812 L 65 809.7 L 64.4 807.7 L 63.3 805.8 L 61.8 804.1 L 59.9 802.6 L 57.9 801.6 L 55.6 801 L 53.1 800.8 L 50.9 801 L 48.8 801.5 L 46.9 802.4 L 45.3 803.6 L 43.9 805.1 L 42.9 806.8 L 42.1 808.8 L 41.8 810.9 L 41.8 810.9 Z"/><path d="M 749.1 603.6 L 749.1 612.1 L 733.6 612.1 L 733.6 616.2 L 746.4 634.3 L 749.1 632.3 L 737.9 616.2 L 749.1 616.2 L 749.1 616.2 L 749.1 632.3 L 746.4 634.3 L 749.9 639.4 L 753.5 639.4 L 753.5 616.2 L 758.4 616.2 L 758.4 612.1 L 753.5 612.1 L 753.5 603.6 L 749.1 603.6 L 749.1 603.6 Z"/></g></g><use class="pcb_board-cf" mask="url(#pcb_top-cu_finish-mask)" xlink:href="#pcb_top-sm"/></g></g></svg>