%FSLAX33Y33*%
%MOMM*%
%AMRect-W670710-H1320710-RO1.000*
21,1,0.67071,1.32071,0.,0.,180*%
%ADD10C,0.25*%
%ADD11Rect-W670710-H1320710-RO1.000*%
%ADD12R,1.5X1.5*%
%ADD13C,1.5*%
%ADD14R,1.75X1.75*%
%ADD15C,1.75*%
D10*
%LNbottom copper_traces*%
G01*
X6750Y14750D02*
X8125Y16125D01*
X2975Y1350D02*
X1750Y2575D01*
X3700Y28160D02*
X3700Y30750D01*
X3700Y23130D02*
X3700Y25670D01*
X9400Y4850D02*
X9400Y32660D01*
X11440Y2810D02*
X9400Y4850D01*
X16400Y28210D02*
X16400Y30750D01*
X6750Y8150D02*
X8125Y9525D01*
X8125Y20075D02*
X6750Y21450D01*
X6750Y1350D02*
X2975Y1350D01*
X11500Y32660D02*
X13249Y32660D01*
X3700Y5350D02*
X6500Y8150D01*
X11500Y19261D02*
X13250Y19261D01*
X5610Y32660D02*
X6650Y32660D01*
X8125Y9525D02*
X8125Y13375D01*
X11625Y5850D02*
X13075Y5850D01*
X1750Y4550D02*
X2550Y5350D01*
X8125Y26785D02*
X6750Y28160D01*
X16400Y2810D02*
X11440Y2810D01*
X3700Y2810D02*
X7360Y2810D01*
X8125Y22825D02*
X8125Y26785D01*
X7360Y2810D02*
X9400Y4850D01*
X3700Y12970D02*
X3700Y15510D01*
X11500Y12550D02*
X13239Y12550D01*
X16400Y18050D02*
X16400Y20590D01*
X11500Y25950D02*
X13400Y25950D01*
X16400Y12970D02*
X16400Y15510D01*
X2550Y5350D02*
X3700Y5350D01*
X3700Y30750D02*
X5610Y32660D01*
X8125Y16125D02*
X8125Y20075D01*
X6500Y8150D02*
X6750Y8150D01*
X3700Y7890D02*
X3700Y10430D01*
X1750Y2575D02*
X1750Y4550D01*
X16400Y23130D02*
X16400Y25670D01*
X3700Y18050D02*
X3700Y20590D01*
X6750Y21450D02*
X8125Y22825D01*
X8125Y13375D02*
X6750Y14750D01*
X16400Y7890D02*
X16400Y10430D01*
%LNbottom copper component 1fd03bca117f9aec*%
D11*
X11500Y32661D03*
X9400Y32661D03*
%LNbottom copper component b5b981657f2f8731*%
D12*
X6750Y12550D03*
D13*
X6750Y8050D03*
X13250Y8050D03*
X13250Y12550D03*
%LNbottom copper component fb49618feed99df2*%
D12*
X6750Y32660D03*
D13*
X6750Y28160D03*
X13250Y28160D03*
X13250Y32660D03*
%LNbottom copper component 48f42d382d4c7276*%
D11*
X11500Y5861D03*
X9400Y5861D03*
%LNbottom copper component 71733dfa736b678a*%
D12*
X6750Y5850D03*
D13*
X6750Y1350D03*
X13250Y1350D03*
X13250Y5850D03*
%LNbottom copper component 23d714dbf6837599*%
D11*
X11500Y19261D03*
X9400Y19261D03*
%LNbottom copper component 145f1bd0c0621054*%
X11500Y25936D03*
X9400Y25936D03*
%LNbottom copper component 5d6e294dc6e30267*%
X11500Y12561D03*
X9400Y12561D03*
%LNbottom copper component 144fe9a21d20c8f6*%
D12*
X6750Y19250D03*
D13*
X6750Y14750D03*
X13250Y14750D03*
X13250Y19250D03*
%LNbottom copper component 37417e4259248a20*%
D14*
X16400Y30750D03*
D15*
X16400Y28210D03*
X16400Y25670D03*
X16400Y23130D03*
X16400Y20590D03*
X16400Y18050D03*
X16400Y15510D03*
X16400Y12970D03*
X16400Y10430D03*
X16400Y7890D03*
X16400Y5350D03*
X16400Y2810D03*
%LNbottom copper component e1d5e43d5734db6b*%
D14*
X3700Y30750D03*
D15*
X3700Y28210D03*
X3700Y25670D03*
X3700Y23130D03*
X3700Y20590D03*
X3700Y18050D03*
X3700Y15510D03*
X3700Y12970D03*
X3700Y10430D03*
X3700Y7890D03*
X3700Y5350D03*
X3700Y2810D03*
%LNbottom copper component 6d5c9a98175d7d20*%
D12*
X6750Y25950D03*
D13*
X6750Y21450D03*
X13250Y21450D03*
X13250Y25950D03*
M02*