%FSLAX33Y33*%
%MOMM*%
%ADD10C,1.524*%
%ADD11R,1.6X1.6*%
%ADD12C,1.6*%
D10*
%LNbottom copper_traces*%
G01*
X1270Y1905D02*
X5080Y1905D01*
X1270Y6985D02*
X5080Y6985D01*
X1270Y17145D02*
X5080Y17145D01*
X1270Y22225D02*
X5080Y22225D01*
X7620Y1905D02*
X11430Y1905D01*
X1270Y12065D02*
X5080Y12065D01*
X11430Y4445D02*
X7620Y4445D01*
X5080Y19685D02*
X1270Y19685D01*
X11430Y9525D02*
X7620Y9525D01*
X11430Y22225D02*
X7620Y22225D01*
X11430Y17145D02*
X7620Y17145D01*
X5080Y14605D02*
X1270Y14605D01*
X7620Y19685D02*
X11430Y19685D01*
X11430Y14605D02*
X7620Y14605D01*
X7620Y12065D02*
X11430Y12065D01*
X7620Y24765D02*
X11430Y24765D01*
X5080Y4445D02*
X1270Y4445D01*
X5080Y24765D02*
X1270Y24765D01*
X5080Y9525D02*
X1270Y9525D01*
X7620Y6985D02*
X11430Y6985D01*
%LNbottom copper component 309694ad8b3f13a2*%
D11*
X1270Y24765D03*
D12*
X1270Y22225D03*
X1270Y19685D03*
X1270Y17145D03*
X1270Y14605D03*
X1270Y12065D03*
X1270Y9525D03*
X1270Y6985D03*
X1270Y4445D03*
X1270Y1905D03*
%LNbottom copper component c8eb11d80bf9654a*%
D11*
X5080Y24765D03*
D12*
X5080Y22225D03*
X5080Y19685D03*
X5080Y17145D03*
X5080Y14605D03*
X5080Y12065D03*
X5080Y9525D03*
X5080Y6985D03*
X5080Y4445D03*
X5080Y1905D03*
X7620Y24765D03*
X7620Y22225D03*
X7620Y19685D03*
X7620Y17145D03*
X7620Y14605D03*
X7620Y12065D03*
X7620Y9525D03*
X7620Y6985D03*
X7620Y4445D03*
X7620Y1905D03*
%LNbottom copper component cb1a5b1a6717c329*%
D11*
X11430Y24765D03*
D12*
X11430Y22225D03*
X11430Y19685D03*
X11430Y17145D03*
X11430Y14605D03*
X11430Y12065D03*
X11430Y9525D03*
X11430Y6985D03*
X11430Y4445D03*
X11430Y1905D03*
M02*