<?xml version='1.0' encoding='UTF-8' standalone='no'?>
<svg xmlns="http://www.w3.org/2000/svg" width="732" height="350" x="0" y="0"><text x="670" y="128" font-size="10" font-family="sans-serif" text-anchor="start" alignment-baseline="hanging">J2</text><text x="490" y="120" font-size="10" font-family="sans-serif" text-anchor="start" alignment-baseline="hanging">J1</text><text x="630" y="80" font-size="10" font-family="sans-serif" text-anchor="start" alignment-baseline="hanging">VCC</text><text x="425" y="120" font-size="10" font-family="sans-serif" text-anchor="start" alignment-baseline="hanging">FTDI Header</text><text x="200" y="330" font-size="10" font-family="sans-serif" text-anchor="start" alignment-baseline="hanging">GND</text><text x="630" y="220" font-size="10" font-family="sans-serif" text-anchor="start" alignment-baseline="hanging">GND</text><text x="70" y="290" font-size="10" font-family="sans-serif" text-anchor="start" alignment-baseline="hanging">padi</text><text x="380" y="300" font-size="10" font-family="sans-serif" text-anchor="start" alignment-baseline="hanging">GND</text><text x="70" y="60" font-size="10" font-family="sans-serif" text-anchor="start" alignment-baseline="hanging">U1</text><text x="670" y="170" font-size="10" font-family="sans-serif" text-anchor="start" alignment-baseline="hanging">282836-2A</text><text x="10" y="10" font-size="10" font-family="sans-serif" text-anchor="start" alignment-baseline="hanging">VCC</text><line x1="47" y1="237" x2="53" y2="243" stroke-width="2" stroke="black"></line><line x1="47" y1="243" x2="53" y2="237" stroke-width="2" stroke="black"></line><line x1="47" y1="107" x2="53" y2="113" stroke-width="2" stroke="black"></line><line x1="47" y1="113" x2="53" y2="107" stroke-width="2" stroke="black"></line><line x1="47" y1="177" x2="53" y2="183" stroke-width="2" stroke="black"></line><line x1="47" y1="183" x2="53" y2="177" stroke-width="2" stroke="black"></line><line x1="47" y1="117" x2="53" y2="123" stroke-width="2" stroke="black"></line><line x1="47" y1="123" x2="53" y2="117" stroke-width="2" stroke="black"></line><line x1="47" y1="217" x2="53" y2="223" stroke-width="2" stroke="black"></line><line x1="47" y1="223" x2="53" y2="217" stroke-width="2" stroke="black"></line><line x1="47" y1="137" x2="53" y2="143" stroke-width="2" stroke="black"></line><line x1="47" y1="143" x2="53" y2="137" stroke-width="2" stroke="black"></line><line x1="47" y1="187" x2="53" y2="193" stroke-width="2" stroke="black"></line><line x1="47" y1="193" x2="53" y2="187" stroke-width="2" stroke="black"></line><line x1="640" y1="110" x2="640" y2="90" stroke-width="2" stroke="black"></line><line x1="640" y1="90" x2="633" y2="97" stroke-width="2" stroke="black"></line><line x1="640" y1="90" x2="647" y2="97" stroke-width="2" stroke="black"></line><line x1="47" y1="257" x2="53" y2="263" stroke-width="2" stroke="black"></line><line x1="47" y1="263" x2="53" y2="257" stroke-width="2" stroke="black"></line><line x1="47" y1="227" x2="53" y2="233" stroke-width="2" stroke="black"></line><line x1="47" y1="233" x2="53" y2="227" stroke-width="2" stroke="black"></line><line x1="47" y1="267" x2="53" y2="273" stroke-width="2" stroke="black"></line><line x1="47" y1="273" x2="53" y2="267" stroke-width="2" stroke="black"></line><rect width="100" height="210" x="70" y="70" style="stroke: #000; stroke-width: 1; fill: none;"></rect><line x1="60" y1="80" x2="70" y2="80" stroke-width="2" stroke="black"></line><text x="72" y="80" font-size="10" font-family="sans-serif" text-anchor="start" alignment-baseline="middle">VDD33</text><line x1="60" y1="100" x2="70" y2="100" stroke-width="2" stroke="black"></line><text x="72" y="100" font-size="10" font-family="sans-serif" text-anchor="start" alignment-baseline="middle">GC0</text><line x1="60" y1="110" x2="70" y2="110" stroke-width="2" stroke="black"></line><text x="72" y="110" font-size="10" font-family="sans-serif" text-anchor="start" alignment-baseline="middle">GC1</text><line x1="60" y1="120" x2="70" y2="120" stroke-width="2" stroke="black"></line><text x="72" y="120" font-size="10" font-family="sans-serif" text-anchor="start" alignment-baseline="middle">GC3</text><line x1="60" y1="130" x2="70" y2="130" stroke-width="2" stroke="black"></line><text x="72" y="130" font-size="10" font-family="sans-serif" text-anchor="start" alignment-baseline="middle">GC4</text><line x1="60" y1="140" x2="70" y2="140" stroke-width="2" stroke="black"></line><text x="72" y="140" font-size="10" font-family="sans-serif" text-anchor="start" alignment-baseline="middle">GC5</text><line x1="60" y1="160" x2="70" y2="160" stroke-width="2" stroke="black"></line><text x="72" y="160" font-size="10" font-family="sans-serif" text-anchor="start" alignment-baseline="middle">GE0</text><line x1="60" y1="170" x2="70" y2="170" stroke-width="2" stroke="black"></line><text x="72" y="170" font-size="10" font-family="sans-serif" text-anchor="start" alignment-baseline="middle">GE1</text><line x1="60" y1="180" x2="70" y2="180" stroke-width="2" stroke="black"></line><text x="72" y="180" font-size="10" font-family="sans-serif" text-anchor="start" alignment-baseline="middle">GE2</text><line x1="60" y1="190" x2="70" y2="190" stroke-width="2" stroke="black"></line><text x="72" y="190" font-size="10" font-family="sans-serif" text-anchor="start" alignment-baseline="middle">GE3</text><line x1="60" y1="200" x2="70" y2="200" stroke-width="2" stroke="black"></line><text x="72" y="200" font-size="10" font-family="sans-serif" text-anchor="start" alignment-baseline="middle">GE4</text><line x1="60" y1="220" x2="70" y2="220" stroke-width="2" stroke="black"></line><text x="72" y="220" font-size="10" font-family="sans-serif" text-anchor="start" alignment-baseline="middle">GA0</text><line x1="60" y1="230" x2="70" y2="230" stroke-width="2" stroke="black"></line><text x="72" y="230" font-size="10" font-family="sans-serif" text-anchor="start" alignment-baseline="middle">GA1</text><line x1="60" y1="240" x2="70" y2="240" stroke-width="2" stroke="black"></line><text x="72" y="240" font-size="10" font-family="sans-serif" text-anchor="start" alignment-baseline="middle">GA2</text><line x1="60" y1="250" x2="70" y2="250" stroke-width="2" stroke="black"></line><text x="72" y="250" font-size="10" font-family="sans-serif" text-anchor="start" alignment-baseline="middle">GA3</text><line x1="60" y1="260" x2="70" y2="260" stroke-width="2" stroke="black"></line><text x="72" y="260" font-size="10" font-family="sans-serif" text-anchor="start" alignment-baseline="middle">GA4</text><line x1="60" y1="270" x2="70" y2="270" stroke-width="2" stroke="black"></line><text x="72" y="270" font-size="10" font-family="sans-serif" text-anchor="start" alignment-baseline="middle">GA5</text><line x1="180" y1="80" x2="170" y2="80" stroke-width="2" stroke="black"></line><text x="168" y="80" font-size="10" font-family="sans-serif" text-anchor="end" alignment-baseline="middle">CHIP-EN</text><line x1="180" y1="90" x2="170" y2="90" stroke-width="2" stroke="black"></line><text x="168" y="90" font-size="10" font-family="sans-serif" text-anchor="end" alignment-baseline="middle">GPIOC_2</text><line x1="180" y1="110" x2="170" y2="110" stroke-width="2" stroke="black"></line><text x="168" y="110" font-size="10" font-family="sans-serif" text-anchor="end" alignment-baseline="middle">GB0</text><line x1="180" y1="120" x2="170" y2="120" stroke-width="2" stroke="black"></line><text x="168" y="120" font-size="10" font-family="sans-serif" text-anchor="end" alignment-baseline="middle">GB1</text><line x1="180" y1="270" x2="170" y2="270" stroke-width="2" stroke="black"></line><text x="168" y="270" font-size="10" font-family="sans-serif" text-anchor="end" alignment-baseline="middle">GND</text><line x1="47" y1="127" x2="53" y2="133" stroke-width="2" stroke="black"></line><line x1="47" y1="133" x2="53" y2="127" stroke-width="2" stroke="black"></line><line x1="387" y1="137" x2="393" y2="143" stroke-width="2" stroke="black"></line><line x1="387" y1="143" x2="393" y2="137" stroke-width="2" stroke="black"></line><line x1="187" y1="77" x2="193" y2="83" stroke-width="2" stroke="black"></line><line x1="187" y1="83" x2="193" y2="77" stroke-width="2" stroke="black"></line><rect width="20" height="30" x="670" y="140" style="stroke: #000; stroke-width: 1; fill: none;"></rect><line x1="660" y1="150" x2="670" y2="150" stroke-width="2" stroke="black"></line><text x="672" y="150" font-size="10" font-family="sans-serif" text-anchor="start" alignment-baseline="middle">1</text><line x1="660" y1="160" x2="670" y2="160" stroke-width="2" stroke="black"></line><text x="672" y="160" font-size="10" font-family="sans-serif" text-anchor="start" alignment-baseline="middle">2</text><line x1="387" y1="217" x2="393" y2="223" stroke-width="2" stroke="black"></line><line x1="387" y1="223" x2="393" y2="217" stroke-width="2" stroke="black"></line><line x1="390" y1="270" x2="390" y2="280" stroke-width="2" stroke="black"></line><line x1="380" y1="280" x2="400" y2="280" stroke-width="2" stroke="black"></line><line x1="383" y1="285" x2="397" y2="285" stroke-width="2" stroke="black"></line><line x1="386" y1="290" x2="394" y2="290" stroke-width="2" stroke="black"></line><line x1="47" y1="157" x2="53" y2="163" stroke-width="2" stroke="black"></line><line x1="47" y1="163" x2="53" y2="157" stroke-width="2" stroke="black"></line><line x1="47" y1="247" x2="53" y2="253" stroke-width="2" stroke="black"></line><line x1="47" y1="253" x2="53" y2="247" stroke-width="2" stroke="black"></line><line x1="47" y1="197" x2="53" y2="203" stroke-width="2" stroke="black"></line><line x1="47" y1="203" x2="53" y2="197" stroke-width="2" stroke="black"></line><line x1="47" y1="97" x2="53" y2="103" stroke-width="2" stroke="black"></line><line x1="47" y1="103" x2="53" y2="97" stroke-width="2" stroke="black"></line><line x1="47" y1="167" x2="53" y2="173" stroke-width="2" stroke="black"></line><line x1="47" y1="173" x2="53" y2="167" stroke-width="2" stroke="black"></line><line x1="210" y1="300" x2="210" y2="310" stroke-width="2" stroke="black"></line><line x1="200" y1="310" x2="220" y2="310" stroke-width="2" stroke="black"></line><line x1="203" y1="315" x2="217" y2="315" stroke-width="2" stroke="black"></line><line x1="206" y1="320" x2="214" y2="320" stroke-width="2" stroke="black"></line><line x1="640" y1="190" x2="640" y2="200" stroke-width="2" stroke="black"></line><line x1="630" y1="200" x2="650" y2="200" stroke-width="2" stroke="black"></line><line x1="633" y1="205" x2="647" y2="205" stroke-width="2" stroke="black"></line><line x1="636" y1="210" x2="644" y2="210" stroke-width="2" stroke="black"></line><line x1="20" y1="40" x2="20" y2="20" stroke-width="2" stroke="black"></line><line x1="20" y1="20" x2="13" y2="27" stroke-width="2" stroke="black"></line><line x1="20" y1="20" x2="27" y2="27" stroke-width="2" stroke="black"></line><line x1="187" y1="87" x2="193" y2="93" stroke-width="2" stroke="black"></line><line x1="187" y1="93" x2="193" y2="87" stroke-width="2" stroke="black"></line><rect width="80" height="130" x="345" y="255" transform="rotate(180 425,255)" style="stroke: #000; stroke-width: 1; fill: none;"></rect><line x1="420" y1="240" x2="425" y2="240" stroke-width="2" stroke="black"></line><text x="430" y="240" font-size="10" font-family="sans-serif" text-anchor="start" alignment-baseline="middle">GND/BLACK</text><line x1="420" y1="220" x2="425" y2="220" stroke-width="2" stroke="black"></line><text x="430" y="220" font-size="10" font-family="sans-serif" text-anchor="start" alignment-baseline="middle">CTS/BROWN</text><line x1="420" y1="200" x2="425" y2="200" stroke-width="2" stroke="black"></line><text x="430" y="200" font-size="10" font-family="sans-serif" text-anchor="start" alignment-baseline="middle">VCC/RED</text><line x1="420" y1="180" x2="425" y2="180" stroke-width="2" stroke="black"></line><text x="430" y="180" font-size="10" font-family="sans-serif" text-anchor="start" alignment-baseline="middle">TxD/ORANGE</text><line x1="420" y1="160" x2="425" y2="160" stroke-width="2" stroke="black"></line><text x="430" y="160" font-size="10" font-family="sans-serif" text-anchor="start" alignment-baseline="middle">RxD/YELLOW</text><line x1="420" y1="140" x2="425" y2="140" stroke-width="2" stroke="black"></line><text x="430" y="140" font-size="10" font-family="sans-serif" text-anchor="start" alignment-baseline="middle">RTS/GREEN</text><line x1="387" y1="197" x2="393" y2="203" stroke-width="2" stroke="black"></line><line x1="387" y1="203" x2="393" y2="197" stroke-width="2" stroke="black"></line><line x1="290" y1="120" x2="290" y2="180" stroke-width="2" stroke="black"></line><line x1="420" y1="160" x2="300" y2="160" stroke-width="2" stroke="black"></line><line x1="210" y1="300" x2="210" y2="270" stroke-width="2" stroke="black"></line><line x1="420" y1="180" x2="290" y2="180" stroke-width="2" stroke="black"></line><line x1="60" y1="200" x2="50" y2="200" stroke-width="2" stroke="black"></line><line x1="640" y1="150" x2="640" y2="110" stroke-width="2" stroke="black"></line><line x1="180" y1="120" x2="290" y2="120" stroke-width="2" stroke="black"></line><line x1="60" y1="110" x2="50" y2="110" stroke-width="2" stroke="black"></line><line x1="20" y1="80" x2="20" y2="40" stroke-width="2" stroke="black"></line><line x1="20" y1="80" x2="60" y2="80" stroke-width="2" stroke="black"></line><line x1="190" y1="80" x2="180" y2="80" stroke-width="2" stroke="black"></line><line x1="390" y1="220" x2="420" y2="220" stroke-width="2" stroke="black"></line><line x1="60" y1="240" x2="50" y2="240" stroke-width="2" stroke="black"></line><line x1="60" y1="170" x2="50" y2="170" stroke-width="2" stroke="black"></line><line x1="50" y1="100" x2="60" y2="100" stroke-width="2" stroke="black"></line><line x1="60" y1="180" x2="50" y2="180" stroke-width="2" stroke="black"></line><line x1="420" y1="140" x2="390" y2="140" stroke-width="2" stroke="black"></line><line x1="300" y1="110" x2="180" y2="110" stroke-width="2" stroke="black"></line><line x1="300" y1="110" x2="300" y2="160" stroke-width="2" stroke="black"></line><line x1="60" y1="250" x2="50" y2="250" stroke-width="2" stroke="black"></line><line x1="390" y1="240" x2="420" y2="240" stroke-width="2" stroke="black"></line><line x1="420" y1="200" x2="390" y2="200" stroke-width="2" stroke="black"></line><line x1="640" y1="160" x2="640" y2="190" stroke-width="2" stroke="black"></line><line x1="180" y1="90" x2="190" y2="90" stroke-width="2" stroke="black"></line><line x1="50" y1="230" x2="60" y2="230" stroke-width="2" stroke="black"></line><line x1="50" y1="140" x2="60" y2="140" stroke-width="2" stroke="black"></line><line x1="60" y1="160" x2="50" y2="160" stroke-width="2" stroke="black"></line><line x1="50" y1="220" x2="60" y2="220" stroke-width="2" stroke="black"></line><line x1="60" y1="270" x2="50" y2="270" stroke-width="2" stroke="black"></line><line x1="60" y1="260" x2="50" y2="260" stroke-width="2" stroke="black"></line><line x1="50" y1="190" x2="60" y2="190" stroke-width="2" stroke="black"></line><line x1="60" y1="130" x2="50" y2="130" stroke-width="2" stroke="black"></line><line x1="390" y1="270" x2="390" y2="240" stroke-width="2" stroke="black"></line><line x1="660" y1="160" x2="640" y2="160" stroke-width="2" stroke="black"></line><line x1="180" y1="270" x2="210" y2="270" stroke-width="2" stroke="black"></line><line x1="50" y1="120" x2="60" y2="120" stroke-width="2" stroke="black"></line><line x1="660" y1="150" x2="640" y2="150" stroke-width="2" stroke="black"></line></svg>