<?xml version="1.0" encoding="utf-8" ?>
<svg baseProfile="tiny" height="75.337793434" version="1.2" width="158.605507934" xmlns="http://www.w3.org/2000/svg" xmlns:ev="http://www.w3.org/2001/xml-events" xmlns:xlink="http://www.w3.org/1999/xlink"><defs /><g id="paths" stroke="green"><path d="M 4.893306967,70.444486467 L 153.712200967,70.444486467 L 153.712200967,4.893306967 L 4.893306967,4.893306967 L 4.893306967,70.444486467 Z" fill-opacity="0" stroke-linejoin="round" stroke-width="1.0" /></g><g fill="red" id="top_parts" stroke="red"><line stroke-linecap="round" stroke-width="0.5" x1="60.8257" x2="49.4871" y1="28.8625" y2="28.8625" /><line stroke-linecap="round" stroke-width="0.5" x1="49.4871" x2="49.4871" y1="28.8625" y2="17.8783" /><line stroke-linecap="round" stroke-width="0.5" x1="49.4871" x2="60.8257" y1="17.8783" y2="17.8783" /><line stroke-linecap="round" stroke-width="0.5" x1="60.8257" x2="60.8257" y1="17.8783" y2="28.8625" /><text font-family="monospace" font-size="2" stroke-width="0.1" text-anchor="middle" x="55.156374636" y="23.370395098">Q2</text><line stroke-linecap="round" stroke-width="0.5" x1="76.2543" x2="91.2095" y1="31.7339" y2="31.7339" /><line stroke-linecap="round" stroke-width="0.5" x1="91.2095" x2="91.2095" y1="31.7339" y2="38.289" /><line stroke-linecap="round" stroke-width="0.5" x1="91.2095" x2="76.2543" y1="38.289" y2="38.289" /><line stroke-linecap="round" stroke-width="0.5" x1="76.2543" x2="76.2543" y1="38.289" y2="31.7339" /><text font-family="monospace" font-size="2" stroke-width="0.1" text-anchor="middle" x="83.731887717" y="35.011416467">R8</text><line stroke-linecap="round" stroke-width="0.5" x1="6.7713" x2="19.3146" y1="26.8972" y2="26.8972" /><line stroke-linecap="round" stroke-width="0.5" x1="19.3146" x2="19.3146" y1="26.8972" y2="48.4405" /><line stroke-linecap="round" stroke-width="0.5" x1="19.3146" x2="6.7713" y1="48.4405" y2="48.4405" /><line stroke-linecap="round" stroke-width="0.5" x1="6.7713" x2="6.7713" y1="48.4405" y2="26.8972" /><text font-family="monospace" font-size="2" stroke-width="0.1" text-anchor="middle" x="13.042913067" y="37.668896717">J1</text><line stroke-linecap="round" stroke-width="0.5" x1="23.1046" x2="38.0599" y1="58.3087" y2="58.3087" /><line stroke-linecap="round" stroke-width="0.5" x1="38.0599" x2="38.0599" y1="58.3087" y2="64.8638" /><line stroke-linecap="round" stroke-width="0.5" x1="38.0599" x2="23.1046" y1="64.8638" y2="64.8638" /><line stroke-linecap="round" stroke-width="0.5" x1="23.1046" x2="23.1046" y1="64.8638" y2="58.3087" /><text font-family="monospace" font-size="2" stroke-width="0.1" text-anchor="middle" x="30.582282717" y="61.586218967">R1</text><line stroke-linecap="round" stroke-width="0.5" x1="49.6794" x2="64.6347" y1="31.7339" y2="31.7339" /><line stroke-linecap="round" stroke-width="0.5" x1="64.6347" x2="64.6347" y1="31.7339" y2="38.289" /><line stroke-linecap="round" stroke-width="0.5" x1="64.6347" x2="49.6794" y1="38.289" y2="38.289" /><line stroke-linecap="round" stroke-width="0.5" x1="49.6794" x2="49.6794" y1="38.289" y2="31.7339" /><text font-family="monospace" font-size="2" stroke-width="0.1" text-anchor="middle" x="57.157085217" y="35.011416467">R7</text><line stroke-linecap="round" stroke-width="0.5" x1="76.2543" x2="91.2095" y1="49.4504" y2="49.4504" /><line stroke-linecap="round" stroke-width="0.5" x1="91.2095" x2="91.2095" y1="49.4504" y2="56.0055" /><line stroke-linecap="round" stroke-width="0.5" x1="91.2095" x2="76.2543" y1="56.0055" y2="56.0055" /><line stroke-linecap="round" stroke-width="0.5" x1="76.2543" x2="76.2543" y1="56.0055" y2="49.4504" /><text font-family="monospace" font-size="2" stroke-width="0.1" text-anchor="middle" x="83.731887717" y="52.727951467">D3</text><line stroke-linecap="round" stroke-width="0.5" x1="23.1046" x2="38.0599" y1="49.4504" y2="49.4504" /><line stroke-linecap="round" stroke-width="0.5" x1="38.0599" x2="38.0599" y1="49.4504" y2="56.0055" /><line stroke-linecap="round" stroke-width="0.5" x1="38.0599" x2="23.1046" y1="56.0055" y2="56.0055" /><line stroke-linecap="round" stroke-width="0.5" x1="23.1046" x2="23.1046" y1="56.0055" y2="49.4504" /><text font-family="monospace" font-size="2" stroke-width="0.1" text-anchor="middle" x="30.582282717" y="52.727951467">D1</text><line stroke-linecap="round" stroke-width="0.5" x1="140.0186" x2="128.68" y1="28.8625" y2="28.8625" /><line stroke-linecap="round" stroke-width="0.5" x1="128.68" x2="128.68" y1="28.8625" y2="17.8783" /><line stroke-linecap="round" stroke-width="0.5" x1="128.68" x2="140.0186" y1="17.8783" y2="17.8783" /><line stroke-linecap="round" stroke-width="0.5" x1="140.0186" x2="140.0186" y1="17.8783" y2="28.8625" /><text font-family="monospace" font-size="2" stroke-width="0.1" text-anchor="middle" x="134.349286086" y="23.370395098">Q5</text><line stroke-linecap="round" stroke-width="0.5" x1="49.6794" x2="64.6347" y1="49.4504" y2="49.4504" /><line stroke-linecap="round" stroke-width="0.5" x1="64.6347" x2="64.6347" y1="49.4504" y2="56.0055" /><line stroke-linecap="round" stroke-width="0.5" x1="64.6347" x2="49.6794" y1="56.0055" y2="56.0055" /><line stroke-linecap="round" stroke-width="0.5" x1="49.6794" x2="49.6794" y1="56.0055" y2="49.4504" /><text font-family="monospace" font-size="2" stroke-width="0.1" text-anchor="middle" x="57.157085217" y="52.727951467">D2</text><line stroke-linecap="round" stroke-width="0.5" x1="129.4039" x2="144.3591" y1="31.7339" y2="31.7339" /><line stroke-linecap="round" stroke-width="0.5" x1="144.3591" x2="144.3591" y1="31.7339" y2="38.289" /><line stroke-linecap="round" stroke-width="0.5" x1="144.3591" x2="129.4039" y1="38.289" y2="38.289" /><line stroke-linecap="round" stroke-width="0.5" x1="129.4039" x2="129.4039" y1="38.289" y2="31.7339" /><text font-family="monospace" font-size="2" stroke-width="0.1" text-anchor="middle" x="136.881492717" y="35.011416467">R10</text><line stroke-linecap="round" stroke-width="0.5" x1="91.2095" x2="76.2543" y1="47.1472" y2="47.1472" /><line stroke-linecap="round" stroke-width="0.5" x1="76.2543" x2="76.2543" y1="47.1472" y2="40.5921" /><line stroke-linecap="round" stroke-width="0.5" x1="76.2543" x2="91.2095" y1="40.5921" y2="40.5921" /><line stroke-linecap="round" stroke-width="0.5" x1="91.2095" x2="91.2095" y1="40.5921" y2="47.1472" /><text font-family="monospace" font-size="2" stroke-width="0.1" text-anchor="middle" x="83.731887717" y="43.869683967">C3</text><line stroke-linecap="round" stroke-width="0.5" x1="76.2543" x2="91.2095" y1="58.3087" y2="58.3087" /><line stroke-linecap="round" stroke-width="0.5" x1="91.2095" x2="91.2095" y1="58.3087" y2="64.8638" /><line stroke-linecap="round" stroke-width="0.5" x1="91.2095" x2="76.2543" y1="64.8638" y2="64.8638" /><line stroke-linecap="round" stroke-width="0.5" x1="76.2543" x2="76.2543" y1="64.8638" y2="58.3087" /><text font-family="monospace" font-size="2" stroke-width="0.1" text-anchor="middle" x="83.731887717" y="61.586218967">R3</text><line stroke-linecap="round" stroke-width="0.5" x1="102.8291" x2="117.7843" y1="49.4504" y2="49.4504" /><line stroke-linecap="round" stroke-width="0.5" x1="117.7843" x2="117.7843" y1="49.4504" y2="56.0055" /><line stroke-linecap="round" stroke-width="0.5" x1="117.7843" x2="102.8291" y1="56.0055" y2="56.0055" /><line stroke-linecap="round" stroke-width="0.5" x1="102.8291" x2="102.8291" y1="56.0055" y2="49.4504" /><text font-family="monospace" font-size="2" stroke-width="0.1" text-anchor="middle" x="110.306690217" y="52.727951467">D4</text><line stroke-linecap="round" stroke-width="0.5" x1="117.7843" x2="102.8291" y1="47.1472" y2="47.1472" /><line stroke-linecap="round" stroke-width="0.5" x1="102.8291" x2="102.8291" y1="47.1472" y2="40.5921" /><line stroke-linecap="round" stroke-width="0.5" x1="102.8291" x2="117.7843" y1="40.5921" y2="40.5921" /><line stroke-linecap="round" stroke-width="0.5" x1="117.7843" x2="117.7843" y1="40.5921" y2="47.1472" /><text font-family="monospace" font-size="2" stroke-width="0.1" text-anchor="middle" x="110.306690217" y="43.869683967">C4</text><line stroke-linecap="round" stroke-width="0.5" x1="38.0599" x2="23.1046" y1="47.1472" y2="47.1472" /><line stroke-linecap="round" stroke-width="0.5" x1="23.1046" x2="23.1046" y1="47.1472" y2="40.5921" /><line stroke-linecap="round" stroke-width="0.5" x1="23.1046" x2="38.0599" y1="40.5921" y2="40.5921" /><line stroke-linecap="round" stroke-width="0.5" x1="38.0599" x2="38.0599" y1="40.5921" y2="47.1472" /><text font-family="monospace" font-size="2" stroke-width="0.1" text-anchor="middle" x="30.582282717" y="43.869683967">C1</text><line stroke-linecap="round" stroke-width="0.5" x1="49.6794" x2="64.6347" y1="58.3087" y2="58.3087" /><line stroke-linecap="round" stroke-width="0.5" x1="64.6347" x2="64.6347" y1="58.3087" y2="64.8638" /><line stroke-linecap="round" stroke-width="0.5" x1="64.6347" x2="49.6794" y1="64.8638" y2="64.8638" /><line stroke-linecap="round" stroke-width="0.5" x1="49.6794" x2="49.6794" y1="64.8638" y2="58.3087" /><text font-family="monospace" font-size="2" stroke-width="0.1" text-anchor="middle" x="57.157085217" y="61.586218967">R2</text><line stroke-linecap="round" stroke-width="0.5" x1="113.9753" x2="102.6367" y1="28.8625" y2="28.8625" /><line stroke-linecap="round" stroke-width="0.5" x1="102.6367" x2="102.6367" y1="28.8625" y2="17.8783" /><line stroke-linecap="round" stroke-width="0.5" x1="102.6367" x2="113.9753" y1="17.8783" y2="17.8783" /><line stroke-linecap="round" stroke-width="0.5" x1="113.9753" x2="113.9753" y1="17.8783" y2="28.8625" /><text font-family="monospace" font-size="2" stroke-width="0.1" text-anchor="middle" x="108.305979636" y="23.370395098">Q4</text><line stroke-linecap="round" stroke-width="0.5" x1="102.8291" x2="117.7843" y1="31.7339" y2="31.7339" /><line stroke-linecap="round" stroke-width="0.5" x1="117.7843" x2="117.7843" y1="31.7339" y2="38.289" /><line stroke-linecap="round" stroke-width="0.5" x1="117.7843" x2="102.8291" y1="38.289" y2="38.289" /><line stroke-linecap="round" stroke-width="0.5" x1="102.8291" x2="102.8291" y1="38.289" y2="31.7339" /><text font-family="monospace" font-size="2" stroke-width="0.1" text-anchor="middle" x="110.306690217" y="35.011416467">R9</text><line stroke-linecap="round" stroke-width="0.5" x1="129.4039" x2="144.3591" y1="58.3087" y2="58.3087" /><line stroke-linecap="round" stroke-width="0.5" x1="144.3591" x2="144.3591" y1="58.3087" y2="64.8638" /><line stroke-linecap="round" stroke-width="0.5" x1="144.3591" x2="129.4039" y1="64.8638" y2="64.8638" /><line stroke-linecap="round" stroke-width="0.5" x1="129.4039" x2="129.4039" y1="64.8638" y2="58.3087" /><text font-family="monospace" font-size="2" stroke-width="0.1" text-anchor="middle" x="136.881492717" y="61.586218967">R5</text><line stroke-linecap="round" stroke-width="0.5" x1="144.3591" x2="129.4039" y1="47.1472" y2="47.1472" /><line stroke-linecap="round" stroke-width="0.5" x1="129.4039" x2="129.4039" y1="47.1472" y2="40.5921" /><line stroke-linecap="round" stroke-width="0.5" x1="129.4039" x2="144.3591" y1="40.5921" y2="40.5921" /><line stroke-linecap="round" stroke-width="0.5" x1="144.3591" x2="144.3591" y1="40.5921" y2="47.1472" /><text font-family="monospace" font-size="2" stroke-width="0.1" text-anchor="middle" x="136.881492717" y="43.869683967">C5</text><line stroke-linecap="round" stroke-width="0.5" x1="64.6347" x2="49.6794" y1="47.1472" y2="47.1472" /><line stroke-linecap="round" stroke-width="0.5" x1="49.6794" x2="49.6794" y1="47.1472" y2="40.5921" /><line stroke-linecap="round" stroke-width="0.5" x1="49.6794" x2="64.6347" y1="40.5921" y2="40.5921" /><line stroke-linecap="round" stroke-width="0.5" x1="64.6347" x2="64.6347" y1="40.5921" y2="47.1472" /><text font-family="monospace" font-size="2" stroke-width="0.1" text-anchor="middle" x="57.157085217" y="43.869683967">C2</text><line stroke-linecap="round" stroke-width="0.5" x1="129.4039" x2="144.3591" y1="49.4504" y2="49.4504" /><line stroke-linecap="round" stroke-width="0.5" x1="144.3591" x2="144.3591" y1="49.4504" y2="56.0055" /><line stroke-linecap="round" stroke-width="0.5" x1="144.3591" x2="129.4039" y1="56.0055" y2="56.0055" /><line stroke-linecap="round" stroke-width="0.5" x1="129.4039" x2="129.4039" y1="56.0055" y2="49.4504" /><text font-family="monospace" font-size="2" stroke-width="0.1" text-anchor="middle" x="136.881492717" y="52.727951467">D5</text><line stroke-linecap="round" stroke-width="0.5" x1="6.9307" x2="6.9307" y1="68.3552" y2="53.3999" /><line stroke-linecap="round" stroke-width="0.5" x1="6.9307" x2="13.4858" y1="53.3999" y2="53.3999" /><line stroke-linecap="round" stroke-width="0.5" x1="13.4858" x2="13.4858" y1="53.3999" y2="68.3552" /><line stroke-linecap="round" stroke-width="0.5" x1="13.4858" x2="6.9307" y1="68.3552" y2="68.3552" /><text font-family="monospace" font-size="2" stroke-width="0.1" text-anchor="middle" x="10.208267467" y="60.877557567">C0</text><line stroke-linecap="round" stroke-width="0.5" x1="87.4005" x2="76.0619" y1="28.8625" y2="28.8625" /><line stroke-linecap="round" stroke-width="0.5" x1="76.0619" x2="76.0619" y1="28.8625" y2="17.8783" /><line stroke-linecap="round" stroke-width="0.5" x1="76.0619" x2="87.4005" y1="17.8783" y2="17.8783" /><line stroke-linecap="round" stroke-width="0.5" x1="87.4005" x2="87.4005" y1="17.8783" y2="28.8625" /><text font-family="monospace" font-size="2" stroke-width="0.1" text-anchor="middle" x="81.731177136" y="23.370395098">Q3</text><line stroke-linecap="round" stroke-width="0.5" x1="102.8291" x2="117.7843" y1="58.3087" y2="58.3087" /><line stroke-linecap="round" stroke-width="0.5" x1="117.7843" x2="117.7843" y1="58.3087" y2="64.8638" /><line stroke-linecap="round" stroke-width="0.5" x1="117.7843" x2="102.8291" y1="64.8638" y2="64.8638" /><line stroke-linecap="round" stroke-width="0.5" x1="102.8291" x2="102.8291" y1="64.8638" y2="58.3087" /><text font-family="monospace" font-size="2" stroke-width="0.1" text-anchor="middle" x="110.306690217" y="61.586218967">R4</text><line stroke-linecap="round" stroke-width="0.5" x1="23.1046" x2="38.0599" y1="31.7339" y2="31.7339" /><line stroke-linecap="round" stroke-width="0.5" x1="38.0599" x2="38.0599" y1="31.7339" y2="38.289" /><line stroke-linecap="round" stroke-width="0.5" x1="38.0599" x2="23.1046" y1="38.289" y2="38.289" /><line stroke-linecap="round" stroke-width="0.5" x1="23.1046" x2="23.1046" y1="38.289" y2="31.7339" /><text font-family="monospace" font-size="2" stroke-width="0.1" text-anchor="middle" x="30.582282717" y="35.011416467">R6</text><line stroke-linecap="round" stroke-width="0.5" x1="34.2509" x2="22.9123" y1="28.8625" y2="28.8625" /><line stroke-linecap="round" stroke-width="0.5" x1="22.9123" x2="22.9123" y1="28.8625" y2="17.8783" /><line stroke-linecap="round" stroke-width="0.5" x1="22.9123" x2="34.2509" y1="17.8783" y2="17.8783" /><line stroke-linecap="round" stroke-width="0.5" x1="34.2509" x2="34.2509" y1="17.8783" y2="28.8625" /><text font-family="monospace" font-size="2" stroke-width="0.1" text-anchor="middle" x="28.581572136" y="23.370395098">Q1</text></g><g fill="blue" id="bottom_parts" stroke="blue" /></svg>