<?xml version='1.0' encoding='UTF-8' standalone='no'?>
<svg xmlns="http://www.w3.org/2000/svg" width="1471" height="617" x="0" y="0"><text x="325" y="401" font-size="10" font-family="sans-serif" text-anchor="middle" alignment-baseline="middle">Q1-DRAIN</text><text x="895" y="601" font-size="10" font-family="sans-serif" text-anchor="middle" alignment-baseline="middle">Q1-GATE</text><text x="610" y="401" font-size="10" font-family="sans-serif" text-anchor="middle" alignment-baseline="middle">Q2-DRAIN</text><text x="505" y="401" font-size="10" font-family="sans-serif" text-anchor="middle" alignment-baseline="middle">Q2-GATE</text><text x="835" y="401" font-size="10" font-family="sans-serif" text-anchor="middle" alignment-baseline="middle">Q3-DRAIN</text><text x="735" y="401" font-size="10" font-family="sans-serif" text-anchor="middle" alignment-baseline="middle">Q3-GATE</text><text x="1055" y="396" font-size="10" font-family="sans-serif" text-anchor="middle" alignment-baseline="middle" transform="rotate(270 1055 396)">Q4-DRAIN</text><text x="955" y="401" font-size="10" font-family="sans-serif" text-anchor="middle" alignment-baseline="middle">Q4-GATE</text><text x="1285" y="401" font-size="10" font-family="sans-serif" text-anchor="middle" alignment-baseline="middle">Q5-DRAIN</text><text x="1185" y="401" font-size="10" font-family="sans-serif" text-anchor="middle" alignment-baseline="middle">Q5-GATE</text><text x="10" y="256" font-size="10" font-family="sans-serif" text-anchor="start" alignment-baseline="hanging">Power input header</text><text x="944" y="456" font-size="10" font-family="sans-serif" text-anchor="start" alignment-baseline="hanging">5v</text><text x="860" y="426" font-size="10" font-family="sans-serif" text-anchor="start" alignment-baseline="hanging">5K</text><text x="254" y="346" font-size="10" font-family="sans-serif" text-anchor="start" alignment-baseline="hanging">10uF</text><text x="425" y="40" font-size="10" font-family="sans-serif" text-anchor="start" alignment-baseline="hanging">TODO: Choose resistor values</text><text x="810" y="206" font-size="10" font-family="sans-serif" text-anchor="start" alignment-baseline="hanging">VCC</text><text x="415" y="70" font-size="10" font-family="sans-serif" text-anchor="start" alignment-baseline="hanging">TODO: Choose capacitor values</text><text x="1310" y="426" font-size="10" font-family="sans-serif" text-anchor="start" alignment-baseline="hanging">5K</text><text x="810" y="536" font-size="10" font-family="sans-serif" text-anchor="start" alignment-baseline="hanging">GND</text><text x="1078" y="302" font-size="10" font-family="sans-serif" text-anchor="end" alignment-baseline="hanging">5K</text><text x="860" y="416" font-size="10" font-family="sans-serif" text-anchor="start" alignment-baseline="hanging">R8</text><text x="724" y="466" font-size="10" font-family="sans-serif" text-anchor="start" alignment-baseline="hanging">10uF</text><text x="424" y="93" font-size="10" font-family="sans-serif" text-anchor="start" alignment-baseline="hanging">TODO: Choose FET</text><text x="552" y="359" font-size="10" font-family="sans-serif" text-anchor="start" alignment-baseline="hanging">D2</text><text x="20" y="296" font-size="10" font-family="sans-serif" text-anchor="start" alignment-baseline="hanging">VCC</text><text x="1174" y="456" font-size="10" font-family="sans-serif" text-anchor="start" alignment-baseline="hanging">5v</text><text x="617" y="302" font-size="10" font-family="sans-serif" text-anchor="end" alignment-baseline="hanging">5K</text><text x="1260" y="536" font-size="10" font-family="sans-serif" text-anchor="start" alignment-baseline="hanging">GND</text><text x="425" y="10" font-size="10" font-family="sans-serif" text-anchor="start" alignment-baseline="hanging">TODO: Choose VCC</text><text x="700" y="536" font-size="10" font-family="sans-serif" text-anchor="start" alignment-baseline="hanging">GND</text><text x="836" y="302" font-size="10" font-family="sans-serif" text-anchor="start" alignment-baseline="hanging">5K</text><text x="320" y="358" font-size="10" font-family="sans-serif" text-anchor="start" alignment-baseline="hanging">D1</text><text x="1404" y="445" font-size="10" font-family="sans-serif" text-anchor="start" alignment-baseline="hanging">C5</text><text x="70" y="346" font-size="10" font-family="sans-serif" text-anchor="start" alignment-baseline="hanging">J1</text><text x="494" y="466" font-size="10" font-family="sans-serif" text-anchor="start" alignment-baseline="hanging">10uF</text><text x="1090" y="416" font-size="10" font-family="sans-serif" text-anchor="start" alignment-baseline="hanging">R9</text><text x="1310" y="416" font-size="10" font-family="sans-serif" text-anchor="start" alignment-baseline="hanging">R10</text><text x="1243" y="426" font-size="10" font-family="sans-serif" text-anchor="start" alignment-baseline="hanging">Q5</text><text x="494" y="456" font-size="10" font-family="sans-serif" text-anchor="start" alignment-baseline="hanging">5v</text><text x="1040" y="536" font-size="10" font-family="sans-serif" text-anchor="start" alignment-baseline="hanging">GND</text><text x="724" y="456" font-size="10" font-family="sans-serif" text-anchor="start" alignment-baseline="hanging">5v</text><text x="617" y="312" font-size="10" font-family="sans-serif" text-anchor="end" alignment-baseline="hanging">R2</text><text x="724" y="445" font-size="10" font-family="sans-serif" text-anchor="start" alignment-baseline="hanging">C2</text><text x="640" y="426" font-size="10" font-family="sans-serif" text-anchor="start" alignment-baseline="hanging">5K</text><text x="920" y="536" font-size="10" font-family="sans-serif" text-anchor="start" alignment-baseline="hanging">GND</text><text x="1404" y="456" font-size="10" font-family="sans-serif" text-anchor="start" alignment-baseline="hanging">5v</text><text x="1174" y="466" font-size="10" font-family="sans-serif" text-anchor="start" alignment-baseline="hanging">10uF</text><text x="254" y="336" font-size="10" font-family="sans-serif" text-anchor="start" alignment-baseline="hanging">5v</text><text x="20" y="446" font-size="10" font-family="sans-serif" text-anchor="start" alignment-baseline="hanging">GND</text><text x="388" y="312" font-size="10" font-family="sans-serif" text-anchor="end" alignment-baseline="hanging">R1</text><text x="836" y="292" font-size="10" font-family="sans-serif" text-anchor="start" alignment-baseline="hanging">R3</text><text x="1286" y="302" font-size="10" font-family="sans-serif" text-anchor="start" alignment-baseline="hanging">5K</text><text x="1233" y="356" font-size="10" font-family="sans-serif" text-anchor="start" alignment-baseline="hanging">D5</text><text x="781" y="357" font-size="10" font-family="sans-serif" text-anchor="start" alignment-baseline="hanging">D3</text><text x="580" y="206" font-size="10" font-family="sans-serif" text-anchor="start" alignment-baseline="hanging">VCC</text><text x="1150" y="536" font-size="10" font-family="sans-serif" text-anchor="start" alignment-baseline="hanging">GND</text><text x="781" y="367" font-size="10" font-family="sans-serif" text-anchor="start" alignment-baseline="hanging">LED</text><text x="1380" y="536" font-size="10" font-family="sans-serif" text-anchor="start" alignment-baseline="hanging">GND</text><text x="470" y="536" font-size="10" font-family="sans-serif" text-anchor="start" alignment-baseline="hanging">GND</text><text x="350" y="536" font-size="10" font-family="sans-serif" text-anchor="start" alignment-baseline="hanging">GND</text><text x="350" y="206" font-size="10" font-family="sans-serif" text-anchor="start" alignment-baseline="hanging">VCC</text><text x="944" y="466" font-size="10" font-family="sans-serif" text-anchor="start" alignment-baseline="hanging">10uF</text><text x="563" y="426" font-size="10" font-family="sans-serif" text-anchor="start" alignment-baseline="hanging">Q2</text><text x="333" y="426" font-size="10" font-family="sans-serif" text-anchor="start" alignment-baseline="hanging">Q1</text><text x="320" y="368" font-size="10" font-family="sans-serif" text-anchor="start" alignment-baseline="hanging">LED</text><text x="793" y="426" font-size="10" font-family="sans-serif" text-anchor="start" alignment-baseline="hanging">Q3</text><text x="254" y="325" font-size="10" font-family="sans-serif" text-anchor="start" alignment-baseline="hanging">C0</text><text x="410" y="416" font-size="10" font-family="sans-serif" text-anchor="start" alignment-baseline="hanging">R6</text><text x="1023" y="426" font-size="10" font-family="sans-serif" text-anchor="start" alignment-baseline="hanging">Q4</text><text x="1090" y="426" font-size="10" font-family="sans-serif" text-anchor="start" alignment-baseline="hanging">5K</text><text x="494" y="445" font-size="10" font-family="sans-serif" text-anchor="start" alignment-baseline="hanging">C1</text><text x="1233" y="366" font-size="10" font-family="sans-serif" text-anchor="start" alignment-baseline="hanging">LED</text><text x="1260" y="206" font-size="10" font-family="sans-serif" text-anchor="start" alignment-baseline="hanging">VCC</text><text x="580" y="536" font-size="10" font-family="sans-serif" text-anchor="start" alignment-baseline="hanging">GND</text><text x="410" y="426" font-size="10" font-family="sans-serif" text-anchor="start" alignment-baseline="hanging">5K</text><text x="552" y="369" font-size="10" font-family="sans-serif" text-anchor="start" alignment-baseline="hanging">LED</text><text x="944" y="445" font-size="10" font-family="sans-serif" text-anchor="start" alignment-baseline="hanging">C3</text><text x="1174" y="445" font-size="10" font-family="sans-serif" text-anchor="start" alignment-baseline="hanging">C4</text><text x="1404" y="466" font-size="10" font-family="sans-serif" text-anchor="start" alignment-baseline="hanging">10uF</text><text x="640" y="416" font-size="10" font-family="sans-serif" text-anchor="start" alignment-baseline="hanging">R7</text><text x="1078" y="312" font-size="10" font-family="sans-serif" text-anchor="end" alignment-baseline="hanging">R4</text><text x="1013" y="367" font-size="10" font-family="sans-serif" text-anchor="start" alignment-baseline="hanging">LED</text><text x="1286" y="292" font-size="10" font-family="sans-serif" text-anchor="start" alignment-baseline="hanging">R5</text><text x="1013" y="357" font-size="10" font-family="sans-serif" text-anchor="start" alignment-baseline="hanging">D4</text><text x="1040" y="206" font-size="10" font-family="sans-serif" text-anchor="start" alignment-baseline="hanging">VCC</text><text x="388" y="303" font-size="10" font-family="sans-serif" text-anchor="end" alignment-baseline="hanging">5K</text><line x1="1060" y1="356" x2="1040" y2="356" stroke-width="2" stroke="black"></line><line x1="1060" y1="376" x2="1040" y2="376" stroke-width="2" stroke="black"></line><line x1="1060" y1="356" x2="1050" y2="376" stroke-width="2" stroke="black"></line><line x1="1040" y1="356" x2="1050" y2="376" stroke-width="2" stroke="black"></line><line x1="1062" y1="361" x2="1072" y2="371" stroke-width="2" stroke="black"></line><line x1="1072" y1="371" x2="1072" y2="366" stroke-width="2" stroke="black"></line><line x1="1072" y1="371" x2="1067" y2="371" stroke-width="2" stroke="black"></line><line x1="1058" y1="368" x2="1068" y2="378" stroke-width="2" stroke="black"></line><line x1="1068" y1="378" x2="1068" y2="373" stroke-width="2" stroke="black"></line><line x1="1068" y1="378" x2="1063" y2="378" stroke-width="2" stroke="black"></line><line x1="1050" y1="346" x2="1050" y2="356" stroke-width="2" stroke="black"></line><line x1="1050" y1="376" x2="1050" y2="386" stroke-width="2" stroke="black"></line><line x1="360" y1="236" x2="360" y2="216" stroke-width="2" stroke="black"></line><line x1="360" y1="216" x2="353" y2="223" stroke-width="2" stroke="black"></line><line x1="360" y1="216" x2="367" y2="223" stroke-width="2" stroke="black"></line><line x1="804" y1="466" x2="804" y2="446" stroke-width="2" stroke="black"></line><line x1="807" y1="450" x2="807" y2="446" stroke-width="2" stroke="black"></line><line x1="807" y1="464" x2="820" y2="464" stroke-width="2" stroke="black"></line><line x1="807" y1="448" x2="820" y2="448" stroke-width="2" stroke="black"></line><line x1="810" y1="456" x2="820" y2="456" stroke-width="2" stroke="black"></line><line x1="809" y1="456" x2="814" y2="453" stroke-width="2" stroke="black"></line><line x1="809" y1="456" x2="814" y2="459" stroke-width="2" stroke="black"></line><line x1="814" y1="453" x2="814" y2="459" stroke-width="2" stroke="black"></line><line x1="790" y1="456" x2="804" y2="456" stroke-width="2" stroke="black"></line><line x1="820" y1="456" x2="820" y2="476" stroke-width="2" stroke="black"></line><line x1="820" y1="448" x2="820" y2="436" stroke-width="2" stroke="black"></line><line x1="813" y1="455" x2="813" y2="458" stroke-width="2" stroke="black"></line><line x1="807" y1="462" x2="807" y2="466" stroke-width="2" stroke="black"></line><line x1="807" y1="454" x2="807" y2="458" stroke-width="2" stroke="black"></line><line x1="820" y1="464" x2="827" y2="464" stroke-width="2" stroke="black"></line><line x1="827" y1="464" x2="827" y2="448" stroke-width="2" stroke="black"></line><line x1="827" y1="448" x2="820" y2="448" stroke-width="2" stroke="black"></line><circle cx="820" cy="448" r="1" style="stroke: #000; stroke-width: 1; fill: none;"></circle><circle cx="820" cy="464" r="1" style="stroke: #000; stroke-width: 1; fill: none;"></circle><line x1="827" y1="454" x2="825" y2="458" stroke-width="2" stroke="black"></line><line x1="825" y1="458" x2="829" y2="458" stroke-width="2" stroke="black"></line><line x1="829" y1="458" x2="827" y2="454" stroke-width="2" stroke="black"></line><line x1="827" y1="454" x2="829" y2="454" stroke-width="2" stroke="black"></line><line x1="829" y1="454" x2="830" y2="453" stroke-width="2" stroke="black"></line><line x1="827" y1="454" x2="825" y2="454" stroke-width="2" stroke="black"></line><line x1="825" y1="454" x2="824" y2="455" stroke-width="2" stroke="black"></line><line x1="490" y1="453" x2="470" y2="453" stroke-width="2" stroke="black"></line><line x1="490" y1="459" x2="470" y2="459" stroke-width="2" stroke="black"></line><line x1="480" y1="446" x2="480" y2="453" stroke-width="2" stroke="black"></line><line x1="480" y1="460" x2="480" y2="466" stroke-width="2" stroke="black"></line><line x1="1090" y1="406" x2="1093" y2="401" stroke-width="2" stroke="black"></line><line x1="1093" y1="401" x2="1098" y2="411" stroke-width="2" stroke="black"></line><line x1="1098" y1="411" x2="1103" y2="401" stroke-width="2" stroke="black"></line><line x1="1103" y1="401" x2="1108" y2="411" stroke-width="2" stroke="black"></line><line x1="1108" y1="411" x2="1113" y2="401" stroke-width="2" stroke="black"></line><line x1="1113" y1="401" x2="1118" y2="411" stroke-width="2" stroke="black"></line><line x1="1118" y1="411" x2="1120" y2="406" stroke-width="2" stroke="black"></line><line x1="1080" y1="406" x2="1090" y2="406" stroke-width="2" stroke="black"></line><line x1="1120" y1="406" x2="1130" y2="406" stroke-width="2" stroke="black"></line><line x1="820" y1="286" x2="825" y2="289" stroke-width="2" stroke="black"></line><line x1="825" y1="289" x2="815" y2="294" stroke-width="2" stroke="black"></line><line x1="815" y1="294" x2="825" y2="299" stroke-width="2" stroke="black"></line><line x1="825" y1="299" x2="815" y2="304" stroke-width="2" stroke="black"></line><line x1="815" y1="304" x2="825" y2="309" stroke-width="2" stroke="black"></line><line x1="825" y1="309" x2="815" y2="314" stroke-width="2" stroke="black"></line><line x1="815" y1="314" x2="820" y2="316" stroke-width="2" stroke="black"></line><line x1="820" y1="276" x2="820" y2="286" stroke-width="2" stroke="black"></line><line x1="820" y1="316" x2="820" y2="326" stroke-width="2" stroke="black"></line><line x1="410" y1="406" x2="413" y2="401" stroke-width="2" stroke="black"></line><line x1="413" y1="401" x2="418" y2="411" stroke-width="2" stroke="black"></line><line x1="418" y1="411" x2="423" y2="401" stroke-width="2" stroke="black"></line><line x1="423" y1="401" x2="428" y2="411" stroke-width="2" stroke="black"></line><line x1="428" y1="411" x2="433" y2="401" stroke-width="2" stroke="black"></line><line x1="433" y1="401" x2="438" y2="411" stroke-width="2" stroke="black"></line><line x1="438" y1="411" x2="440" y2="406" stroke-width="2" stroke="black"></line><line x1="400" y1="406" x2="410" y2="406" stroke-width="2" stroke="black"></line><line x1="440" y1="406" x2="450" y2="406" stroke-width="2" stroke="black"></line><line x1="1050" y1="286" x2="1055" y2="289" stroke-width="2" stroke="black"></line><line x1="1055" y1="289" x2="1045" y2="294" stroke-width="2" stroke="black"></line><line x1="1045" y1="294" x2="1055" y2="299" stroke-width="2" stroke="black"></line><line x1="1055" y1="299" x2="1045" y2="304" stroke-width="2" stroke="black"></line><line x1="1045" y1="304" x2="1055" y2="309" stroke-width="2" stroke="black"></line><line x1="1055" y1="309" x2="1045" y2="314" stroke-width="2" stroke="black"></line><line x1="1045" y1="314" x2="1050" y2="316" stroke-width="2" stroke="black"></line><line x1="1050" y1="276" x2="1050" y2="286" stroke-width="2" stroke="black"></line><line x1="1050" y1="316" x2="1050" y2="326" stroke-width="2" stroke="black"></line><rect width="20" height="30" x="50" y="386" transform="rotate(180 70,386)" style="stroke: #000; stroke-width: 1; fill: none;"></rect><line x1="60" y1="376" x2="70" y2="376" stroke-width="2" stroke="black"></line><text x="72" y="376" font-size="10" font-family="sans-serif" text-anchor="start" alignment-baseline="middle">1</text><line x1="60" y1="366" x2="70" y2="366" stroke-width="2" stroke="black"></line><text x="72" y="366" font-size="10" font-family="sans-serif" text-anchor="start" alignment-baseline="middle">2</text><line x1="300" y1="333" x2="280" y2="333" stroke-width="2" stroke="black"></line><line x1="300" y1="339" x2="280" y2="339" stroke-width="2" stroke="black"></line><line x1="290" y1="326" x2="290" y2="333" stroke-width="2" stroke="black"></line><line x1="290" y1="340" x2="290" y2="346" stroke-width="2" stroke="black"></line><line x1="830" y1="356" x2="810" y2="356" stroke-width="2" stroke="black"></line><line x1="830" y1="376" x2="810" y2="376" stroke-width="2" stroke="black"></line><line x1="830" y1="356" x2="820" y2="376" stroke-width="2" stroke="black"></line><line x1="810" y1="356" x2="820" y2="376" stroke-width="2" stroke="black"></line><line x1="832" y1="361" x2="842" y2="371" stroke-width="2" stroke="black"></line><line x1="842" y1="371" x2="842" y2="366" stroke-width="2" stroke="black"></line><line x1="842" y1="371" x2="837" y2="371" stroke-width="2" stroke="black"></line><line x1="828" y1="368" x2="838" y2="378" stroke-width="2" stroke="black"></line><line x1="838" y1="378" x2="838" y2="373" stroke-width="2" stroke="black"></line><line x1="838" y1="378" x2="833" y2="378" stroke-width="2" stroke="black"></line><line x1="820" y1="346" x2="820" y2="356" stroke-width="2" stroke="black"></line><line x1="820" y1="376" x2="820" y2="386" stroke-width="2" stroke="black"></line><line x1="710" y1="506" x2="710" y2="516" stroke-width="2" stroke="black"></line><line x1="700" y1="516" x2="720" y2="516" stroke-width="2" stroke="black"></line><line x1="703" y1="521" x2="717" y2="521" stroke-width="2" stroke="black"></line><line x1="706" y1="526" x2="714" y2="526" stroke-width="2" stroke="black"></line><line x1="1050" y1="236" x2="1050" y2="216" stroke-width="2" stroke="black"></line><line x1="1050" y1="216" x2="1043" y2="223" stroke-width="2" stroke="black"></line><line x1="1050" y1="216" x2="1057" y2="223" stroke-width="2" stroke="black"></line><line x1="860" y1="406" x2="863" y2="401" stroke-width="2" stroke="black"></line><line x1="863" y1="401" x2="868" y2="411" stroke-width="2" stroke="black"></line><line x1="868" y1="411" x2="873" y2="401" stroke-width="2" stroke="black"></line><line x1="873" y1="401" x2="878" y2="411" stroke-width="2" stroke="black"></line><line x1="878" y1="411" x2="883" y2="401" stroke-width="2" stroke="black"></line><line x1="883" y1="401" x2="888" y2="411" stroke-width="2" stroke="black"></line><line x1="888" y1="411" x2="890" y2="406" stroke-width="2" stroke="black"></line><line x1="850" y1="406" x2="860" y2="406" stroke-width="2" stroke="black"></line><line x1="890" y1="406" x2="900" y2="406" stroke-width="2" stroke="black"></line><line x1="720" y1="453" x2="700" y2="453" stroke-width="2" stroke="black"></line><line x1="720" y1="459" x2="700" y2="459" stroke-width="2" stroke="black"></line><line x1="710" y1="446" x2="710" y2="453" stroke-width="2" stroke="black"></line><line x1="710" y1="460" x2="710" y2="466" stroke-width="2" stroke="black"></line><line x1="820" y1="236" x2="820" y2="216" stroke-width="2" stroke="black"></line><line x1="820" y1="216" x2="813" y2="223" stroke-width="2" stroke="black"></line><line x1="820" y1="216" x2="827" y2="223" stroke-width="2" stroke="black"></line><line x1="480" y1="506" x2="480" y2="516" stroke-width="2" stroke="black"></line><line x1="470" y1="516" x2="490" y2="516" stroke-width="2" stroke="black"></line><line x1="473" y1="521" x2="487" y2="521" stroke-width="2" stroke="black"></line><line x1="476" y1="526" x2="484" y2="526" stroke-width="2" stroke="black"></line><line x1="590" y1="236" x2="590" y2="216" stroke-width="2" stroke="black"></line><line x1="590" y1="216" x2="583" y2="223" stroke-width="2" stroke="black"></line><line x1="590" y1="216" x2="597" y2="223" stroke-width="2" stroke="black"></line><line x1="370" y1="356" x2="350" y2="356" stroke-width="2" stroke="black"></line><line x1="370" y1="376" x2="350" y2="376" stroke-width="2" stroke="black"></line><line x1="370" y1="356" x2="360" y2="376" stroke-width="2" stroke="black"></line><line x1="350" y1="356" x2="360" y2="376" stroke-width="2" stroke="black"></line><line x1="372" y1="361" x2="382" y2="371" stroke-width="2" stroke="black"></line><line x1="382" y1="371" x2="382" y2="366" stroke-width="2" stroke="black"></line><line x1="382" y1="371" x2="377" y2="371" stroke-width="2" stroke="black"></line><line x1="368" y1="368" x2="378" y2="378" stroke-width="2" stroke="black"></line><line x1="378" y1="378" x2="378" y2="373" stroke-width="2" stroke="black"></line><line x1="378" y1="378" x2="373" y2="378" stroke-width="2" stroke="black"></line><line x1="360" y1="346" x2="360" y2="356" stroke-width="2" stroke="black"></line><line x1="360" y1="376" x2="360" y2="386" stroke-width="2" stroke="black"></line><line x1="30" y1="416" x2="30" y2="426" stroke-width="2" stroke="black"></line><line x1="20" y1="426" x2="40" y2="426" stroke-width="2" stroke="black"></line><line x1="23" y1="431" x2="37" y2="431" stroke-width="2" stroke="black"></line><line x1="26" y1="436" x2="34" y2="436" stroke-width="2" stroke="black"></line><line x1="1390" y1="506" x2="1390" y2="516" stroke-width="2" stroke="black"></line><line x1="1380" y1="516" x2="1400" y2="516" stroke-width="2" stroke="black"></line><line x1="1383" y1="521" x2="1397" y2="521" stroke-width="2" stroke="black"></line><line x1="1386" y1="526" x2="1394" y2="526" stroke-width="2" stroke="black"></line><line x1="1160" y1="506" x2="1160" y2="516" stroke-width="2" stroke="black"></line><line x1="1150" y1="516" x2="1170" y2="516" stroke-width="2" stroke="black"></line><line x1="1153" y1="521" x2="1167" y2="521" stroke-width="2" stroke="black"></line><line x1="1156" y1="526" x2="1164" y2="526" stroke-width="2" stroke="black"></line><line x1="30" y1="326" x2="30" y2="306" stroke-width="2" stroke="black"></line><line x1="30" y1="306" x2="23" y2="313" stroke-width="2" stroke="black"></line><line x1="30" y1="306" x2="37" y2="313" stroke-width="2" stroke="black"></line><line x1="940" y1="453" x2="920" y2="453" stroke-width="2" stroke="black"></line><line x1="940" y1="459" x2="920" y2="459" stroke-width="2" stroke="black"></line><line x1="930" y1="446" x2="930" y2="453" stroke-width="2" stroke="black"></line><line x1="930" y1="460" x2="930" y2="466" stroke-width="2" stroke="black"></line><line x1="640" y1="406" x2="643" y2="401" stroke-width="2" stroke="black"></line><line x1="643" y1="401" x2="648" y2="411" stroke-width="2" stroke="black"></line><line x1="648" y1="411" x2="653" y2="401" stroke-width="2" stroke="black"></line><line x1="653" y1="401" x2="658" y2="411" stroke-width="2" stroke="black"></line><line x1="658" y1="411" x2="663" y2="401" stroke-width="2" stroke="black"></line><line x1="663" y1="401" x2="668" y2="411" stroke-width="2" stroke="black"></line><line x1="668" y1="411" x2="670" y2="406" stroke-width="2" stroke="black"></line><line x1="630" y1="406" x2="640" y2="406" stroke-width="2" stroke="black"></line><line x1="670" y1="406" x2="680" y2="406" stroke-width="2" stroke="black"></line><line x1="1170" y1="453" x2="1150" y2="453" stroke-width="2" stroke="black"></line><line x1="1170" y1="459" x2="1150" y2="459" stroke-width="2" stroke="black"></line><line x1="1160" y1="446" x2="1160" y2="453" stroke-width="2" stroke="black"></line><line x1="1160" y1="460" x2="1160" y2="466" stroke-width="2" stroke="black"></line><line x1="1050" y1="506" x2="1050" y2="516" stroke-width="2" stroke="black"></line><line x1="1040" y1="516" x2="1060" y2="516" stroke-width="2" stroke="black"></line><line x1="1043" y1="521" x2="1057" y2="521" stroke-width="2" stroke="black"></line><line x1="1046" y1="526" x2="1054" y2="526" stroke-width="2" stroke="black"></line><line x1="930" y1="506" x2="930" y2="516" stroke-width="2" stroke="black"></line><line x1="920" y1="516" x2="940" y2="516" stroke-width="2" stroke="black"></line><line x1="923" y1="521" x2="937" y2="521" stroke-width="2" stroke="black"></line><line x1="926" y1="526" x2="934" y2="526" stroke-width="2" stroke="black"></line><line x1="1270" y1="236" x2="1270" y2="216" stroke-width="2" stroke="black"></line><line x1="1270" y1="216" x2="1263" y2="223" stroke-width="2" stroke="black"></line><line x1="1270" y1="216" x2="1277" y2="223" stroke-width="2" stroke="black"></line><line x1="574" y1="466" x2="574" y2="446" stroke-width="2" stroke="black"></line><line x1="577" y1="450" x2="577" y2="446" stroke-width="2" stroke="black"></line><line x1="577" y1="464" x2="590" y2="464" stroke-width="2" stroke="black"></line><line x1="577" y1="448" x2="590" y2="448" stroke-width="2" stroke="black"></line><line x1="580" y1="456" x2="590" y2="456" stroke-width="2" stroke="black"></line><line x1="579" y1="456" x2="584" y2="453" stroke-width="2" stroke="black"></line><line x1="579" y1="456" x2="584" y2="459" stroke-width="2" stroke="black"></line><line x1="584" y1="453" x2="584" y2="459" stroke-width="2" stroke="black"></line><line x1="560" y1="456" x2="574" y2="456" stroke-width="2" stroke="black"></line><line x1="590" y1="456" x2="590" y2="476" stroke-width="2" stroke="black"></line><line x1="590" y1="448" x2="590" y2="436" stroke-width="2" stroke="black"></line><line x1="583" y1="455" x2="583" y2="458" stroke-width="2" stroke="black"></line><line x1="577" y1="462" x2="577" y2="466" stroke-width="2" stroke="black"></line><line x1="577" y1="454" x2="577" y2="458" stroke-width="2" stroke="black"></line><line x1="590" y1="464" x2="597" y2="464" stroke-width="2" stroke="black"></line><line x1="597" y1="464" x2="597" y2="448" stroke-width="2" stroke="black"></line><line x1="597" y1="448" x2="590" y2="448" stroke-width="2" stroke="black"></line><circle cx="590" cy="448" r="1" style="stroke: #000; stroke-width: 1; fill: none;"></circle><circle cx="590" cy="464" r="1" style="stroke: #000; stroke-width: 1; fill: none;"></circle><line x1="597" y1="454" x2="595" y2="458" stroke-width="2" stroke="black"></line><line x1="595" y1="458" x2="599" y2="458" stroke-width="2" stroke="black"></line><line x1="599" y1="458" x2="597" y2="454" stroke-width="2" stroke="black"></line><line x1="597" y1="454" x2="599" y2="454" stroke-width="2" stroke="black"></line><line x1="599" y1="454" x2="600" y2="453" stroke-width="2" stroke="black"></line><line x1="597" y1="454" x2="595" y2="454" stroke-width="2" stroke="black"></line><line x1="595" y1="454" x2="594" y2="455" stroke-width="2" stroke="black"></line><line x1="1034" y1="466" x2="1034" y2="446" stroke-width="2" stroke="black"></line><line x1="1037" y1="450" x2="1037" y2="446" stroke-width="2" stroke="black"></line><line x1="1037" y1="464" x2="1050" y2="464" stroke-width="2" stroke="black"></line><line x1="1037" y1="448" x2="1050" y2="448" stroke-width="2" stroke="black"></line><line x1="1040" y1="456" x2="1050" y2="456" stroke-width="2" stroke="black"></line><line x1="1039" y1="456" x2="1044" y2="453" stroke-width="2" stroke="black"></line><line x1="1039" y1="456" x2="1044" y2="459" stroke-width="2" stroke="black"></line><line x1="1044" y1="453" x2="1044" y2="459" stroke-width="2" stroke="black"></line><line x1="1020" y1="456" x2="1034" y2="456" stroke-width="2" stroke="black"></line><line x1="1050" y1="456" x2="1050" y2="476" stroke-width="2" stroke="black"></line><line x1="1050" y1="448" x2="1050" y2="436" stroke-width="2" stroke="black"></line><line x1="1043" y1="455" x2="1043" y2="458" stroke-width="2" stroke="black"></line><line x1="1037" y1="462" x2="1037" y2="466" stroke-width="2" stroke="black"></line><line x1="1037" y1="454" x2="1037" y2="458" stroke-width="2" stroke="black"></line><line x1="1050" y1="464" x2="1057" y2="464" stroke-width="2" stroke="black"></line><line x1="1057" y1="464" x2="1057" y2="448" stroke-width="2" stroke="black"></line><line x1="1057" y1="448" x2="1050" y2="448" stroke-width="2" stroke="black"></line><circle cx="1050" cy="448" r="1" style="stroke: #000; stroke-width: 1; fill: none;"></circle><circle cx="1050" cy="464" r="1" style="stroke: #000; stroke-width: 1; fill: none;"></circle><line x1="1057" y1="454" x2="1055" y2="458" stroke-width="2" stroke="black"></line><line x1="1055" y1="458" x2="1059" y2="458" stroke-width="2" stroke="black"></line><line x1="1059" y1="458" x2="1057" y2="454" stroke-width="2" stroke="black"></line><line x1="1057" y1="454" x2="1059" y2="454" stroke-width="2" stroke="black"></line><line x1="1059" y1="454" x2="1060" y2="453" stroke-width="2" stroke="black"></line><line x1="1057" y1="454" x2="1055" y2="454" stroke-width="2" stroke="black"></line><line x1="1055" y1="454" x2="1054" y2="455" stroke-width="2" stroke="black"></line><line x1="590" y1="286" x2="595" y2="289" stroke-width="2" stroke="black"></line><line x1="595" y1="289" x2="585" y2="294" stroke-width="2" stroke="black"></line><line x1="585" y1="294" x2="595" y2="299" stroke-width="2" stroke="black"></line><line x1="595" y1="299" x2="585" y2="304" stroke-width="2" stroke="black"></line><line x1="585" y1="304" x2="595" y2="309" stroke-width="2" stroke="black"></line><line x1="595" y1="309" x2="585" y2="314" stroke-width="2" stroke="black"></line><line x1="585" y1="314" x2="590" y2="316" stroke-width="2" stroke="black"></line><line x1="590" y1="276" x2="590" y2="286" stroke-width="2" stroke="black"></line><line x1="590" y1="316" x2="590" y2="326" stroke-width="2" stroke="black"></line><line x1="590" y1="506" x2="590" y2="516" stroke-width="2" stroke="black"></line><line x1="580" y1="516" x2="600" y2="516" stroke-width="2" stroke="black"></line><line x1="583" y1="521" x2="597" y2="521" stroke-width="2" stroke="black"></line><line x1="586" y1="526" x2="594" y2="526" stroke-width="2" stroke="black"></line><line x1="360" y1="286" x2="365" y2="289" stroke-width="2" stroke="black"></line><line x1="365" y1="289" x2="355" y2="294" stroke-width="2" stroke="black"></line><line x1="355" y1="294" x2="365" y2="299" stroke-width="2" stroke="black"></line><line x1="365" y1="299" x2="355" y2="304" stroke-width="2" stroke="black"></line><line x1="355" y1="304" x2="365" y2="309" stroke-width="2" stroke="black"></line><line x1="365" y1="309" x2="355" y2="314" stroke-width="2" stroke="black"></line><line x1="355" y1="314" x2="360" y2="316" stroke-width="2" stroke="black"></line><line x1="360" y1="276" x2="360" y2="286" stroke-width="2" stroke="black"></line><line x1="360" y1="316" x2="360" y2="326" stroke-width="2" stroke="black"></line><line x1="1280" y1="356" x2="1260" y2="356" stroke-width="2" stroke="black"></line><line x1="1280" y1="376" x2="1260" y2="376" stroke-width="2" stroke="black"></line><line x1="1280" y1="356" x2="1270" y2="376" stroke-width="2" stroke="black"></line><line x1="1260" y1="356" x2="1270" y2="376" stroke-width="2" stroke="black"></line><line x1="1282" y1="361" x2="1292" y2="371" stroke-width="2" stroke="black"></line><line x1="1292" y1="371" x2="1292" y2="366" stroke-width="2" stroke="black"></line><line x1="1292" y1="371" x2="1287" y2="371" stroke-width="2" stroke="black"></line><line x1="1278" y1="368" x2="1288" y2="378" stroke-width="2" stroke="black"></line><line x1="1288" y1="378" x2="1288" y2="373" stroke-width="2" stroke="black"></line><line x1="1288" y1="378" x2="1283" y2="378" stroke-width="2" stroke="black"></line><line x1="1270" y1="346" x2="1270" y2="356" stroke-width="2" stroke="black"></line><line x1="1270" y1="376" x2="1270" y2="386" stroke-width="2" stroke="black"></line><line x1="820" y1="506" x2="820" y2="516" stroke-width="2" stroke="black"></line><line x1="810" y1="516" x2="830" y2="516" stroke-width="2" stroke="black"></line><line x1="813" y1="521" x2="827" y2="521" stroke-width="2" stroke="black"></line><line x1="816" y1="526" x2="824" y2="526" stroke-width="2" stroke="black"></line><line x1="1254" y1="466" x2="1254" y2="446" stroke-width="2" stroke="black"></line><line x1="1257" y1="450" x2="1257" y2="446" stroke-width="2" stroke="black"></line><line x1="1257" y1="464" x2="1270" y2="464" stroke-width="2" stroke="black"></line><line x1="1257" y1="448" x2="1270" y2="448" stroke-width="2" stroke="black"></line><line x1="1260" y1="456" x2="1270" y2="456" stroke-width="2" stroke="black"></line><line x1="1259" y1="456" x2="1264" y2="453" stroke-width="2" stroke="black"></line><line x1="1259" y1="456" x2="1264" y2="459" stroke-width="2" stroke="black"></line><line x1="1264" y1="453" x2="1264" y2="459" stroke-width="2" stroke="black"></line><line x1="1240" y1="456" x2="1254" y2="456" stroke-width="2" stroke="black"></line><line x1="1270" y1="456" x2="1270" y2="476" stroke-width="2" stroke="black"></line><line x1="1270" y1="448" x2="1270" y2="436" stroke-width="2" stroke="black"></line><line x1="1263" y1="455" x2="1263" y2="458" stroke-width="2" stroke="black"></line><line x1="1257" y1="462" x2="1257" y2="466" stroke-width="2" stroke="black"></line><line x1="1257" y1="454" x2="1257" y2="458" stroke-width="2" stroke="black"></line><line x1="1270" y1="464" x2="1277" y2="464" stroke-width="2" stroke="black"></line><line x1="1277" y1="464" x2="1277" y2="448" stroke-width="2" stroke="black"></line><line x1="1277" y1="448" x2="1270" y2="448" stroke-width="2" stroke="black"></line><circle cx="1270" cy="448" r="1" style="stroke: #000; stroke-width: 1; fill: none;"></circle><circle cx="1270" cy="464" r="1" style="stroke: #000; stroke-width: 1; fill: none;"></circle><line x1="1277" y1="454" x2="1275" y2="458" stroke-width="2" stroke="black"></line><line x1="1275" y1="458" x2="1279" y2="458" stroke-width="2" stroke="black"></line><line x1="1279" y1="458" x2="1277" y2="454" stroke-width="2" stroke="black"></line><line x1="1277" y1="454" x2="1279" y2="454" stroke-width="2" stroke="black"></line><line x1="1279" y1="454" x2="1280" y2="453" stroke-width="2" stroke="black"></line><line x1="1277" y1="454" x2="1275" y2="454" stroke-width="2" stroke="black"></line><line x1="1275" y1="454" x2="1274" y2="455" stroke-width="2" stroke="black"></line><line x1="1270" y1="506" x2="1270" y2="516" stroke-width="2" stroke="black"></line><line x1="1260" y1="516" x2="1280" y2="516" stroke-width="2" stroke="black"></line><line x1="1263" y1="521" x2="1277" y2="521" stroke-width="2" stroke="black"></line><line x1="1266" y1="526" x2="1274" y2="526" stroke-width="2" stroke="black"></line><line x1="344" y1="466" x2="344" y2="446" stroke-width="2" stroke="black"></line><line x1="347" y1="450" x2="347" y2="446" stroke-width="2" stroke="black"></line><line x1="347" y1="464" x2="360" y2="464" stroke-width="2" stroke="black"></line><line x1="347" y1="448" x2="360" y2="448" stroke-width="2" stroke="black"></line><line x1="350" y1="456" x2="360" y2="456" stroke-width="2" stroke="black"></line><line x1="349" y1="456" x2="354" y2="453" stroke-width="2" stroke="black"></line><line x1="349" y1="456" x2="354" y2="459" stroke-width="2" stroke="black"></line><line x1="354" y1="453" x2="354" y2="459" stroke-width="2" stroke="black"></line><line x1="330" y1="456" x2="344" y2="456" stroke-width="2" stroke="black"></line><line x1="360" y1="456" x2="360" y2="476" stroke-width="2" stroke="black"></line><line x1="360" y1="448" x2="360" y2="436" stroke-width="2" stroke="black"></line><line x1="353" y1="455" x2="353" y2="458" stroke-width="2" stroke="black"></line><line x1="347" y1="462" x2="347" y2="466" stroke-width="2" stroke="black"></line><line x1="347" y1="454" x2="347" y2="458" stroke-width="2" stroke="black"></line><line x1="360" y1="464" x2="367" y2="464" stroke-width="2" stroke="black"></line><line x1="367" y1="464" x2="367" y2="448" stroke-width="2" stroke="black"></line><line x1="367" y1="448" x2="360" y2="448" stroke-width="2" stroke="black"></line><circle cx="360" cy="448" r="1" style="stroke: #000; stroke-width: 1; fill: none;"></circle><circle cx="360" cy="464" r="1" style="stroke: #000; stroke-width: 1; fill: none;"></circle><line x1="367" y1="454" x2="365" y2="458" stroke-width="2" stroke="black"></line><line x1="365" y1="458" x2="369" y2="458" stroke-width="2" stroke="black"></line><line x1="369" y1="458" x2="367" y2="454" stroke-width="2" stroke="black"></line><line x1="367" y1="454" x2="369" y2="454" stroke-width="2" stroke="black"></line><line x1="369" y1="454" x2="370" y2="453" stroke-width="2" stroke="black"></line><line x1="367" y1="454" x2="365" y2="454" stroke-width="2" stroke="black"></line><line x1="365" y1="454" x2="364" y2="455" stroke-width="2" stroke="black"></line><line x1="1310" y1="406" x2="1313" y2="401" stroke-width="2" stroke="black"></line><line x1="1313" y1="401" x2="1318" y2="411" stroke-width="2" stroke="black"></line><line x1="1318" y1="411" x2="1323" y2="401" stroke-width="2" stroke="black"></line><line x1="1323" y1="401" x2="1328" y2="411" stroke-width="2" stroke="black"></line><line x1="1328" y1="411" x2="1333" y2="401" stroke-width="2" stroke="black"></line><line x1="1333" y1="401" x2="1338" y2="411" stroke-width="2" stroke="black"></line><line x1="1338" y1="411" x2="1340" y2="406" stroke-width="2" stroke="black"></line><line x1="1300" y1="406" x2="1310" y2="406" stroke-width="2" stroke="black"></line><line x1="1340" y1="406" x2="1350" y2="406" stroke-width="2" stroke="black"></line><line x1="1270" y1="286" x2="1275" y2="289" stroke-width="2" stroke="black"></line><line x1="1275" y1="289" x2="1265" y2="294" stroke-width="2" stroke="black"></line><line x1="1265" y1="294" x2="1275" y2="299" stroke-width="2" stroke="black"></line><line x1="1275" y1="299" x2="1265" y2="304" stroke-width="2" stroke="black"></line><line x1="1265" y1="304" x2="1275" y2="309" stroke-width="2" stroke="black"></line><line x1="1275" y1="309" x2="1265" y2="314" stroke-width="2" stroke="black"></line><line x1="1265" y1="314" x2="1270" y2="316" stroke-width="2" stroke="black"></line><line x1="1270" y1="276" x2="1270" y2="286" stroke-width="2" stroke="black"></line><line x1="1270" y1="316" x2="1270" y2="326" stroke-width="2" stroke="black"></line><line x1="360" y1="506" x2="360" y2="516" stroke-width="2" stroke="black"></line><line x1="350" y1="516" x2="370" y2="516" stroke-width="2" stroke="black"></line><line x1="353" y1="521" x2="367" y2="521" stroke-width="2" stroke="black"></line><line x1="356" y1="526" x2="364" y2="526" stroke-width="2" stroke="black"></line><line x1="1400" y1="453" x2="1380" y2="453" stroke-width="2" stroke="black"></line><line x1="1400" y1="459" x2="1380" y2="459" stroke-width="2" stroke="black"></line><line x1="1390" y1="446" x2="1390" y2="453" stroke-width="2" stroke="black"></line><line x1="1390" y1="460" x2="1390" y2="466" stroke-width="2" stroke="black"></line><line x1="600" y1="356" x2="580" y2="356" stroke-width="2" stroke="black"></line><line x1="600" y1="376" x2="580" y2="376" stroke-width="2" stroke="black"></line><line x1="600" y1="356" x2="590" y2="376" stroke-width="2" stroke="black"></line><line x1="580" y1="356" x2="590" y2="376" stroke-width="2" stroke="black"></line><line x1="602" y1="361" x2="612" y2="371" stroke-width="2" stroke="black"></line><line x1="612" y1="371" x2="612" y2="366" stroke-width="2" stroke="black"></line><line x1="612" y1="371" x2="607" y2="371" stroke-width="2" stroke="black"></line><line x1="598" y1="368" x2="608" y2="378" stroke-width="2" stroke="black"></line><line x1="608" y1="378" x2="608" y2="373" stroke-width="2" stroke="black"></line><line x1="608" y1="378" x2="603" y2="378" stroke-width="2" stroke="black"></line><line x1="590" y1="346" x2="590" y2="356" stroke-width="2" stroke="black"></line><line x1="590" y1="376" x2="590" y2="386" stroke-width="2" stroke="black"></line><circle cx="480" cy="406" r="2" style="stroke: #000; stroke-width: 1; fill: none;"></circle><circle cx="1390" cy="406" r="2" style="stroke: #000; stroke-width: 1; fill: none;"></circle><circle cx="590" cy="406" r="2" style="stroke: #000; stroke-width: 1; fill: none;"></circle><circle cx="360" cy="256" r="2" style="stroke: #000; stroke-width: 1; fill: none;"></circle><circle cx="820" cy="406" r="2" style="stroke: #000; stroke-width: 1; fill: none;"></circle><circle cx="1050" cy="406" r="2" style="stroke: #000; stroke-width: 1; fill: none;"></circle><circle cx="1270" cy="406" r="2" style="stroke: #000; stroke-width: 1; fill: none;"></circle><circle cx="710" cy="406" r="2" style="stroke: #000; stroke-width: 1; fill: none;"></circle><circle cx="930" cy="406" r="2" style="stroke: #000; stroke-width: 1; fill: none;"></circle><circle cx="1160" cy="406" r="2" style="stroke: #000; stroke-width: 1; fill: none;"></circle><circle cx="360" cy="406" r="2" style="stroke: #000; stroke-width: 1; fill: none;"></circle><line x1="480" y1="446" x2="480" y2="406" stroke-width="2" stroke="black"></line><line x1="1050" y1="476" x2="1050" y2="506" stroke-width="2" stroke="black"></line><line x1="1050" y1="236" x2="1050" y2="256" stroke-width="2" stroke="black"></line><line x1="590" y1="256" x2="590" y2="276" stroke-width="2" stroke="black"></line><line x1="230" y1="606" x2="330" y2="606" stroke-width="2" stroke="black"></line><line x1="360" y1="346" x2="360" y2="326" stroke-width="2" stroke="black"></line><line x1="710" y1="506" x2="710" y2="486" stroke-width="2" stroke="black"></line><line x1="1270" y1="326" x2="1270" y2="346" stroke-width="2" stroke="black"></line><line x1="590" y1="506" x2="590" y2="476" stroke-width="2" stroke="black"></line><line x1="590" y1="236" x2="590" y2="256" stroke-width="2" stroke="black"></line><line x1="980" y1="456" x2="1020" y2="456" stroke-width="2" stroke="black"></line><line x1="790" y1="456" x2="760" y2="456" stroke-width="2" stroke="black"></line><line x1="590" y1="406" x2="590" y2="386" stroke-width="2" stroke="black"></line><line x1="590" y1="406" x2="590" y2="436" stroke-width="2" stroke="black"></line><line x1="820" y1="346" x2="820" y2="326" stroke-width="2" stroke="black"></line><line x1="1050" y1="276" x2="1050" y2="256" stroke-width="2" stroke="black"></line><line x1="760" y1="406" x2="760" y2="456" stroke-width="2" stroke="black"></line><line x1="1460" y1="406" x2="1390" y2="406" stroke-width="2" stroke="black"></line><line x1="1350" y1="406" x2="1390" y2="406" stroke-width="2" stroke="black"></line><line x1="1390" y1="446" x2="1390" y2="406" stroke-width="2" stroke="black"></line><line x1="360" y1="256" x2="360" y2="276" stroke-width="2" stroke="black"></line><line x1="360" y1="256" x2="360" y2="236" stroke-width="2" stroke="black"></line><line x1="360" y1="256" x2="290" y2="256" stroke-width="2" stroke="black"></line><line x1="820" y1="406" x2="820" y2="436" stroke-width="2" stroke="black"></line><line x1="820" y1="406" x2="820" y2="386" stroke-width="2" stroke="black"></line><line x1="530" y1="406" x2="530" y2="456" stroke-width="2" stroke="black"></line><line x1="530" y1="406" x2="480" y2="406" stroke-width="2" stroke="black"></line><line x1="1390" y1="486" x2="1390" y2="506" stroke-width="2" stroke="black"></line><line x1="1390" y1="486" x2="1390" y2="466" stroke-width="2" stroke="black"></line><line x1="290" y1="326" x2="290" y2="256" stroke-width="2" stroke="black"></line><line x1="1050" y1="406" x2="1050" y2="436" stroke-width="2" stroke="black"></line><line x1="1050" y1="406" x2="1080" y2="406" stroke-width="2" stroke="black"></line><line x1="630" y1="406" x2="590" y2="406" stroke-width="2" stroke="black"></line><line x1="1460" y1="606" x2="330" y2="606" stroke-width="2" stroke="black"></line><line x1="1460" y1="606" x2="1460" y2="406" stroke-width="2" stroke="black"></line><line x1="1270" y1="406" x2="1270" y2="436" stroke-width="2" stroke="black"></line><line x1="450" y1="406" x2="480" y2="406" stroke-width="2" stroke="black"></line><line x1="710" y1="406" x2="680" y2="406" stroke-width="2" stroke="black"></line><line x1="710" y1="406" x2="710" y2="446" stroke-width="2" stroke="black"></line><line x1="710" y1="406" x2="760" y2="406" stroke-width="2" stroke="black"></line><line x1="930" y1="406" x2="900" y2="406" stroke-width="2" stroke="black"></line><line x1="930" y1="406" x2="930" y2="446" stroke-width="2" stroke="black"></line><line x1="60" y1="366" x2="30" y2="366" stroke-width="2" stroke="black"></line><line x1="930" y1="506" x2="930" y2="486" stroke-width="2" stroke="black"></line><line x1="1160" y1="486" x2="1160" y2="506" stroke-width="2" stroke="black"></line><line x1="1160" y1="486" x2="1160" y2="466" stroke-width="2" stroke="black"></line><line x1="710" y1="466" x2="710" y2="486" stroke-width="2" stroke="black"></line><line x1="590" y1="346" x2="590" y2="326" stroke-width="2" stroke="black"></line><line x1="1270" y1="256" x2="1270" y2="276" stroke-width="2" stroke="black"></line><line x1="1270" y1="256" x2="1270" y2="236" stroke-width="2" stroke="black"></line><line x1="1270" y1="476" x2="1270" y2="506" stroke-width="2" stroke="black"></line><line x1="1050" y1="386" x2="1050" y2="406" stroke-width="2" stroke="black"></line><line x1="1300" y1="406" x2="1270" y2="406" stroke-width="2" stroke="black"></line><line x1="1240" y1="456" x2="1210" y2="456" stroke-width="2" stroke="black"></line><line x1="850" y1="406" x2="820" y2="406" stroke-width="2" stroke="black"></line><line x1="1210" y1="406" x2="1210" y2="456" stroke-width="2" stroke="black"></line><line x1="1160" y1="406" x2="1130" y2="406" stroke-width="2" stroke="black"></line><line x1="1160" y1="406" x2="1160" y2="446" stroke-width="2" stroke="black"></line><line x1="1160" y1="406" x2="1210" y2="406" stroke-width="2" stroke="black"></line><line x1="820" y1="476" x2="820" y2="506" stroke-width="2" stroke="black"></line><line x1="230" y1="456" x2="330" y2="456" stroke-width="2" stroke="black"></line><line x1="230" y1="456" x2="230" y2="606" stroke-width="2" stroke="black"></line><line x1="360" y1="406" x2="400" y2="406" stroke-width="2" stroke="black"></line><line x1="360" y1="406" x2="360" y2="386" stroke-width="2" stroke="black"></line><line x1="360" y1="406" x2="290" y2="406" stroke-width="2" stroke="black"></line><line x1="560" y1="456" x2="530" y2="456" stroke-width="2" stroke="black"></line><line x1="820" y1="256" x2="820" y2="276" stroke-width="2" stroke="black"></line><line x1="820" y1="256" x2="820" y2="236" stroke-width="2" stroke="black"></line><line x1="1270" y1="386" x2="1270" y2="406" stroke-width="2" stroke="black"></line><line x1="360" y1="436" x2="360" y2="406" stroke-width="2" stroke="black"></line><line x1="30" y1="326" x2="30" y2="366" stroke-width="2" stroke="black"></line><line x1="480" y1="486" x2="480" y2="506" stroke-width="2" stroke="black"></line><line x1="480" y1="466" x2="480" y2="486" stroke-width="2" stroke="black"></line><line x1="930" y1="466" x2="930" y2="486" stroke-width="2" stroke="black"></line><line x1="1050" y1="326" x2="1050" y2="346" stroke-width="2" stroke="black"></line><line x1="980" y1="406" x2="980" y2="456" stroke-width="2" stroke="black"></line><line x1="980" y1="406" x2="930" y2="406" stroke-width="2" stroke="black"></line><line x1="30" y1="376" x2="60" y2="376" stroke-width="2" stroke="black"></line><line x1="30" y1="376" x2="30" y2="416" stroke-width="2" stroke="black"></line><line x1="360" y1="476" x2="360" y2="506" stroke-width="2" stroke="black"></line><line x1="290" y1="346" x2="290" y2="406" stroke-width="2" stroke="black"></line></svg>