<?xml-stylesheet href="https://s3.amazonaws.com/maker.works.boards/css/blackpcb.css" type="text/css"?><svg xmlns="http://www.w3.org/2000/svg" version="1.1" xmlns:xlink="http://www.w3.org/1999/xlink" stroke-width="0" stroke-linecap="round" stroke-linejoin="round" width="2.9528000000000003in" height="1.7717in" id="pcb_bottom" viewBox="7.5 7.5 2952.8 1771.7"><defs><circle cx="0" cy="0" r="7.5" id="tool-T10-pad-1000"/><circle cx="0" cy="0" r="63" id="tool-T11-pad-1001"/><circle cx="0" cy="0" r="26.5" id="tool-T12-pad-1002"/><circle cx="0" cy="0" r="25.5" id="tool-T13-pad-1003"/><circle cx="0" cy="0" r="17.5" id="tool-T14-pad-1004"/><circle cx="0" cy="0" r="23" id="tool-T15-pad-1005"/><circle cx="0" cy="0" r="17.5" id="tool-T16-pad-1006"/><circle cx="0" cy="0" r="27.5" id="tool-T17-pad-1007"/><circle cx="0" cy="0" r="22.5" id="tool-T18-pad-1008"/><circle cx="0" cy="0" r="15" id="tool-D12-pad-1011"/><circle cx="0" cy="0" r="108.25" id="tool-D13-pad-1012"/><rect x="-40.35" y="-40.35" width="80.7" height="80.7" id="tool-D14-pad-1013"/><circle cx="0" cy="0" r="40.35" id="tool-D15-pad-1014"/><rect x="-39.35" y="-39.35" width="78.7" height="78.7" id="tool-D16-pad-1015"/><circle cx="0" cy="0" r="39.35" id="tool-D17-pad-1016"/><circle cx="0" cy="0" r="27.55" id="tool-D18-pad-1017"/><rect x="-27.559" y="-27.559" width="55.118" height="55.118" transform="rotate(180)" id="tool-D19-pad-1018"/><rect x="-35.85" y="-35.85" width="71.7" height="71.7" id="tool-D20-pad-1019"/><circle cx="0" cy="0" r="35.85" id="tool-D21-pad-1020"/><rect x="-27.55" y="-27.55" width="55.1" height="55.1" id="tool-D22-pad-1021"/><circle cx="0" cy="0" r="27.55" id="tool-D23-pad-1022"/><circle cx="0" cy="0" r="39.35" id="tool-D24-pad-1023"/><circle cx="0" cy="0" r="34.45" id="tool-D25-pad-1024"/><rect x="-34.449" y="-34.449" width="68.898" height="68.898" transform="rotate(180)" id="tool-D26-pad-1025"/><circle cx="0" cy="0" r="15" id="tool-D10-pad-1026"/><circle cx="0" cy="0" r="108.25" id="tool-D11-pad-1027"/><rect x="-40.35" y="-40.35" width="80.7" height="80.7" id="tool-D12-pad-1028"/><circle cx="0" cy="0" r="40.35" id="tool-D13-pad-1029"/><rect x="-39.35" y="-39.35" width="78.7" height="78.7" id="tool-D14-pad-1030"/><circle cx="0" cy="0" r="39.35" id="tool-D15-pad-1031"/><circle cx="0" cy="0" r="27.55" id="tool-D16-pad-1032"/><rect x="-27.559" y="-27.559" width="55.118" height="55.118" transform="rotate(180)" id="tool-D17-pad-1033"/><rect x="-35.85" y="-35.85" width="71.7" height="71.7" id="tool-D18-pad-1034"/><circle cx="0" cy="0" r="35.85" id="tool-D19-pad-1035"/><rect x="-27.55" y="-27.55" width="55.1" height="55.1" id="tool-D20-pad-1036"/><circle cx="0" cy="0" r="27.55" id="tool-D21-pad-1037"/><circle cx="0" cy="0" r="39.35" id="tool-D22-pad-1038"/><circle cx="0" cy="0" r="34.45" id="tool-D23-pad-1039"/><rect x="-34.449" y="-34.449" width="68.898" height="68.898" transform="rotate(180)" id="tool-D24-pad-1040"/><g id="pcb_bottom-cu" fill="currentColor" stroke="currentColor"><path stroke-width="40" fill="none" d="M 678.4 1193.3 L 909.7 1424.7"/><path stroke-width="8" fill="none" d="M 2087.4 1024.7 L 2172.5 1109.9"/><path stroke-width="40" fill="none" d="M 1731.9 352 L 1645.3 438.6 M 1686.6 1024.7 L 1772.1 1024.7 M 2062.6 841 L 1979 924.7"/><path stroke-width="8" fill="none" d="M 1235.8 352 L 1343.3 244.5"/><path stroke-width="40" fill="none" d="M 1009.7 924.7 L 1102.8 924.7 M 678.4 793.3 L 909.7 1024.7 M 1401.2 352 L 1401.2 1369.6"/><path stroke-width="8" fill="none" d="M 1872.1 1024.7 L 2087.4 1024.7"/><path stroke-width="40" fill="none" d="M 909.7 1424.7 L 1102.8 1424.7"/><path stroke-width="8" fill="none" d="M 2172.5 913 L 2100.6 841"/><path stroke-width="40" fill="none" d="M 909.7 1024.7 L 1102.8 1024.7"/><path stroke-width="8" fill="none" d="M 1872.1 1424.7 L 2054.5 1424.7"/><path stroke-width="40" fill="none" d="M 1645.3 438.6 L 1645.3 983.4 M 1202.8 1424.7 L 1346.1 1424.7"/><path stroke-width="8" fill="none" d="M 1484.5 271.5 L 1484.5 519.9"/><path stroke-width="40" fill="none" d="M 1979 924.7 L 1872.1 924.7 M 678.4 593.3 L 1009.7 924.7 M 1566.6 186.6 L 1566.6 135.5 M 578.4 513.4 L 578.4 598.1 M 739.8 135.5 L 739.8 352 M 1731.9 352 L 1566.6 186.6"/><path stroke-width="8" fill="none" d="M 2100.6 841 L 2062.6 841 M 1457.5 244.5 L 1484.5 271.5 M 2054.5 1424.7 L 2172.5 1306.7"/><path stroke-width="40" fill="none" d="M 1401.2 1369.6 L 1346.1 1424.7 M 739.8 352 L 578.4 513.4"/><path stroke-width="8" fill="none" d="M 1343.3 244.5 L 1457.5 244.5"/><path stroke-width="40" fill="none" d="M 1645.3 983.4 L 1686.6 1024.7 M 2062.6 352 L 2062.6 841"/><use x="2172.5" y="1109.9" xlink:href="#tool-D12-pad-1011"/><use x="2172.5" y="1306.7" xlink:href="#tool-D12-pad-1011"/><use x="2172.5" y="913" xlink:href="#tool-D12-pad-1011"/><use x="2763.4" y="204.4" xlink:href="#tool-D13-pad-1012"/><use x="1102.8" y="1424.7" xlink:href="#tool-D14-pad-1013"/><use x="1102.8" y="1324.7" xlink:href="#tool-D15-pad-1014"/><use x="1102.8" y="1224.7" xlink:href="#tool-D15-pad-1014"/><use x="1102.8" y="1124.7" xlink:href="#tool-D15-pad-1014"/><use x="1102.8" y="1024.7" xlink:href="#tool-D15-pad-1014"/><use x="1102.8" y="924.7" xlink:href="#tool-D15-pad-1014"/><use x="1102.8" y="824.7" xlink:href="#tool-D15-pad-1014"/><use x="1102.8" y="724.7" xlink:href="#tool-D15-pad-1014"/><use x="1202.8" y="1424.7" xlink:href="#tool-D15-pad-1014"/><use x="1202.8" y="1324.7" xlink:href="#tool-D15-pad-1014"/><use x="1202.8" y="1224.7" xlink:href="#tool-D15-pad-1014"/><use x="1202.8" y="1124.7" xlink:href="#tool-D15-pad-1014"/><use x="1202.8" y="1024.7" xlink:href="#tool-D15-pad-1014"/><use x="1202.8" y="924.7" xlink:href="#tool-D15-pad-1014"/><use x="1202.8" y="824.7" xlink:href="#tool-D15-pad-1014"/><use x="1202.8" y="724.7" xlink:href="#tool-D15-pad-1014"/><use x="578.4" y="1188.6" xlink:href="#tool-D16-pad-1015"/><use x="578.4" y="991.8" xlink:href="#tool-D17-pad-1016"/><use x="578.4" y="794.9" xlink:href="#tool-D17-pad-1016"/><use x="578.4" y="598.1" xlink:href="#tool-D17-pad-1016"/><use x="2763.4" y="1582.3" xlink:href="#tool-D13-pad-1012"/><use x="204.4" y="204.4" xlink:href="#tool-D13-pad-1012"/><use x="1772.1" y="1424.7" xlink:href="#tool-D14-pad-1013"/><use x="1772.1" y="1324.7" xlink:href="#tool-D15-pad-1014"/><use x="1772.1" y="1224.7" xlink:href="#tool-D15-pad-1014"/><use x="1772.1" y="1124.7" xlink:href="#tool-D15-pad-1014"/><use x="1772.1" y="1024.7" xlink:href="#tool-D15-pad-1014"/><use x="1772.1" y="924.7" xlink:href="#tool-D15-pad-1014"/><use x="1772.1" y="824.7" xlink:href="#tool-D15-pad-1014"/><use x="1772.1" y="724.7" xlink:href="#tool-D15-pad-1014"/><use x="1872.1" y="1424.7" xlink:href="#tool-D15-pad-1014"/><use x="1872.1" y="1324.7" xlink:href="#tool-D15-pad-1014"/><use x="1872.1" y="1224.7" xlink:href="#tool-D15-pad-1014"/><use x="1872.1" y="1124.7" xlink:href="#tool-D15-pad-1014"/><use x="1872.1" y="1024.7" xlink:href="#tool-D15-pad-1014"/><use x="1872.1" y="924.7" xlink:href="#tool-D15-pad-1014"/><use x="1872.1" y="824.7" xlink:href="#tool-D15-pad-1014"/><use x="1872.1" y="724.7" xlink:href="#tool-D15-pad-1014"/><use x="2516.6" y="1109.9" xlink:href="#tool-D18-pad-1017"/><use x="2616.6" y="1109.9" xlink:href="#tool-D19-pad-1018"/><use x="478.4" y="593.3" xlink:href="#tool-D20-pad-1019"/><use x="678.4" y="593.3" xlink:href="#tool-D21-pad-1020"/><use x="478.4" y="993.3" xlink:href="#tool-D20-pad-1019"/><use x="678.4" y="993.3" xlink:href="#tool-D21-pad-1020"/><use x="478.4" y="793.3" xlink:href="#tool-D20-pad-1019"/><use x="678.4" y="793.3" xlink:href="#tool-D21-pad-1020"/><use x="2516.6" y="1306.7" xlink:href="#tool-D22-pad-1021"/><use x="2616.6" y="1306.7" xlink:href="#tool-D23-pad-1022"/><use x="2516.6" y="913" xlink:href="#tool-D18-pad-1017"/><use x="2616.6" y="913" xlink:href="#tool-D19-pad-1018"/><use x="204.4" y="1582.3" xlink:href="#tool-D13-pad-1012"/><use x="478.4" y="1193.3" xlink:href="#tool-D20-pad-1019"/><use x="678.4" y="1193.3" xlink:href="#tool-D21-pad-1020"/><use x="2393.3" y="135.5" xlink:href="#tool-D24-pad-1023"/><use x="2228" y="135.5" xlink:href="#tool-D24-pad-1023"/><use x="2062.6" y="135.5" xlink:href="#tool-D24-pad-1023"/><use x="1897.3" y="135.5" xlink:href="#tool-D24-pad-1023"/><use x="1731.9" y="135.5" xlink:href="#tool-D24-pad-1023"/><use x="1566.6" y="135.5" xlink:href="#tool-D24-pad-1023"/><use x="1401.2" y="135.5" xlink:href="#tool-D24-pad-1023"/><use x="1235.8" y="135.5" xlink:href="#tool-D24-pad-1023"/><use x="1070.5" y="135.5" xlink:href="#tool-D24-pad-1023"/><use x="905.1" y="135.5" xlink:href="#tool-D24-pad-1023"/><use x="739.8" y="135.5" xlink:href="#tool-D24-pad-1023"/><use x="574.4" y="135.5" xlink:href="#tool-D24-pad-1023"/><use x="2393.3" y="352" xlink:href="#tool-D24-pad-1023"/><use x="2228" y="352" xlink:href="#tool-D24-pad-1023"/><use x="2062.6" y="352" xlink:href="#tool-D24-pad-1023"/><use x="1897.3" y="352" xlink:href="#tool-D24-pad-1023"/><use x="1731.9" y="352" xlink:href="#tool-D24-pad-1023"/><use x="1566.6" y="352" xlink:href="#tool-D24-pad-1023"/><use x="1401.2" y="352" xlink:href="#tool-D24-pad-1023"/><use x="1235.8" y="352" xlink:href="#tool-D24-pad-1023"/><use x="1070.5" y="352" xlink:href="#tool-D24-pad-1023"/><use x="905.1" y="352" xlink:href="#tool-D24-pad-1023"/><use x="739.8" y="352" xlink:href="#tool-D24-pad-1023"/><use x="574.4" y="352" xlink:href="#tool-D24-pad-1023"/><use x="1483.9" y="620.5" xlink:href="#tool-D25-pad-1024"/><use x="1483.9" y="520.5" xlink:href="#tool-D26-pad-1025"/></g><mask id="pcb_bottom_mech-mask" fill="#fff" stroke="#fff" fill-rule="evenodd"><path stroke-width="0" d="M 7.5 7.5 L 7.5 1779.2 L 2960.3 1779.2 L 2960.3 7.5 Z"/><g id="pcb_bottom-drl" fill="#000" stroke="#000"><use x="2172.5" y="1109.9" xlink:href="#tool-T10-pad-1000"/><use x="2172.5" y="1306.7" xlink:href="#tool-T10-pad-1000"/><use x="2172.5" y="913" xlink:href="#tool-T10-pad-1000"/><use x="2763.4" y="204.4" xlink:href="#tool-T11-pad-1001"/><use x="2763.4" y="1582.3" xlink:href="#tool-T11-pad-1001"/><use x="204.4" y="204.4" xlink:href="#tool-T11-pad-1001"/><use x="204.4" y="1582.3" xlink:href="#tool-T11-pad-1001"/><use x="1102.8" y="1424.7" xlink:href="#tool-T12-pad-1002"/><use x="1102.8" y="1324.7" xlink:href="#tool-T12-pad-1002"/><use x="1102.8" y="1224.7" xlink:href="#tool-T12-pad-1002"/><use x="1102.8" y="1124.7" xlink:href="#tool-T12-pad-1002"/><use x="1102.8" y="1024.7" xlink:href="#tool-T12-pad-1002"/><use x="1102.8" y="924.7" xlink:href="#tool-T12-pad-1002"/><use x="1102.8" y="824.7" xlink:href="#tool-T12-pad-1002"/><use x="1102.8" y="724.7" xlink:href="#tool-T12-pad-1002"/><use x="1202.8" y="1424.7" xlink:href="#tool-T12-pad-1002"/><use x="1202.8" y="1324.7" xlink:href="#tool-T12-pad-1002"/><use x="1202.8" y="1224.7" xlink:href="#tool-T12-pad-1002"/><use x="1202.8" y="1124.7" xlink:href="#tool-T12-pad-1002"/><use x="1202.8" y="1024.7" xlink:href="#tool-T12-pad-1002"/><use x="1202.8" y="924.7" xlink:href="#tool-T12-pad-1002"/><use x="1202.8" y="824.7" xlink:href="#tool-T12-pad-1002"/><use x="1202.8" y="724.7" xlink:href="#tool-T12-pad-1002"/><use x="1772.1" y="1424.7" xlink:href="#tool-T12-pad-1002"/><use x="1772.1" y="1324.7" xlink:href="#tool-T12-pad-1002"/><use x="1772.1" y="1224.7" xlink:href="#tool-T12-pad-1002"/><use x="1772.1" y="1124.7" xlink:href="#tool-T12-pad-1002"/><use x="1772.1" y="1024.7" xlink:href="#tool-T12-pad-1002"/><use x="1772.1" y="924.7" xlink:href="#tool-T12-pad-1002"/><use x="1772.1" y="824.7" xlink:href="#tool-T12-pad-1002"/><use x="1772.1" y="724.7" xlink:href="#tool-T12-pad-1002"/><use x="1872.1" y="1424.7" xlink:href="#tool-T12-pad-1002"/><use x="1872.1" y="1324.7" xlink:href="#tool-T12-pad-1002"/><use x="1872.1" y="1224.7" xlink:href="#tool-T12-pad-1002"/><use x="1872.1" y="1124.7" xlink:href="#tool-T12-pad-1002"/><use x="1872.1" y="1024.7" xlink:href="#tool-T12-pad-1002"/><use x="1872.1" y="924.7" xlink:href="#tool-T12-pad-1002"/><use x="1872.1" y="824.7" xlink:href="#tool-T12-pad-1002"/><use x="1872.1" y="724.7" xlink:href="#tool-T12-pad-1002"/><use x="578.4" y="1188.6" xlink:href="#tool-T13-pad-1003"/><use x="578.4" y="991.8" xlink:href="#tool-T13-pad-1003"/><use x="578.4" y="794.9" xlink:href="#tool-T13-pad-1003"/><use x="578.4" y="598.1" xlink:href="#tool-T13-pad-1003"/><use x="2616.6" y="1109.9" xlink:href="#tool-T14-pad-1004"/><use x="2516.6" y="1109.9" xlink:href="#tool-T14-pad-1004"/><use x="2616.6" y="913" xlink:href="#tool-T14-pad-1004"/><use x="2516.6" y="913" xlink:href="#tool-T14-pad-1004"/><use x="478.4" y="593.3" xlink:href="#tool-T15-pad-1005"/><use x="678.4" y="593.3" xlink:href="#tool-T15-pad-1005"/><use x="478.4" y="993.3" xlink:href="#tool-T15-pad-1005"/><use x="678.4" y="993.3" xlink:href="#tool-T15-pad-1005"/><use x="478.4" y="793.3" xlink:href="#tool-T15-pad-1005"/><use x="678.4" y="793.3" xlink:href="#tool-T15-pad-1005"/><use x="478.4" y="1193.3" xlink:href="#tool-T15-pad-1005"/><use x="678.4" y="1193.3" xlink:href="#tool-T15-pad-1005"/><use x="2516.6" y="1306.7" xlink:href="#tool-T16-pad-1006"/><use x="2616.6" y="1306.7" xlink:href="#tool-T16-pad-1006"/><use x="2393.3" y="135.5" xlink:href="#tool-T17-pad-1007"/><use x="2228" y="135.5" xlink:href="#tool-T17-pad-1007"/><use x="2062.6" y="135.5" xlink:href="#tool-T17-pad-1007"/><use x="1897.3" y="135.5" xlink:href="#tool-T17-pad-1007"/><use x="1731.9" y="135.5" xlink:href="#tool-T17-pad-1007"/><use x="1566.6" y="135.5" xlink:href="#tool-T17-pad-1007"/><use x="1401.2" y="135.5" xlink:href="#tool-T17-pad-1007"/><use x="1235.8" y="135.5" xlink:href="#tool-T17-pad-1007"/><use x="1070.5" y="135.5" xlink:href="#tool-T17-pad-1007"/><use x="905.1" y="135.5" xlink:href="#tool-T17-pad-1007"/><use x="739.8" y="135.5" xlink:href="#tool-T17-pad-1007"/><use x="574.4" y="135.5" xlink:href="#tool-T17-pad-1007"/><use x="2393.3" y="352" xlink:href="#tool-T17-pad-1007"/><use x="2228" y="352" xlink:href="#tool-T17-pad-1007"/><use x="2062.6" y="352" xlink:href="#tool-T17-pad-1007"/><use x="1897.3" y="352" xlink:href="#tool-T17-pad-1007"/><use x="1731.9" y="352" xlink:href="#tool-T17-pad-1007"/><use x="1566.6" y="352" xlink:href="#tool-T17-pad-1007"/><use x="1401.2" y="352" xlink:href="#tool-T17-pad-1007"/><use x="1235.8" y="352" xlink:href="#tool-T17-pad-1007"/><use x="1070.5" y="352" xlink:href="#tool-T17-pad-1007"/><use x="905.1" y="352" xlink:href="#tool-T17-pad-1007"/><use x="739.8" y="352" xlink:href="#tool-T17-pad-1007"/><use x="574.4" y="352" xlink:href="#tool-T17-pad-1007"/><use x="1483.9" y="520.5" xlink:href="#tool-T18-pad-1008"/><use x="1483.9" y="620.5" xlink:href="#tool-T18-pad-1008"/></g></mask></defs><g mask="url(#pcb_bottom_mech-mask)" transform="translate(2967.8,1786.7) scale(-1,-1)"><rect x="7.5" y="7.5" width="2952.8" height="1771.7" fill="currentColor" class="pcb_board-fr4"/><use class="pcb_board-cu" xlink:href="#pcb_bottom-cu"/><g><defs><g id="pcb_bottom-sm" fill="currentColor" stroke="currentColor"><use x="2172.5" y="1109.9" xlink:href="#tool-D10-pad-1026"/><use x="2172.5" y="1306.7" xlink:href="#tool-D10-pad-1026"/><use x="2172.5" y="913" xlink:href="#tool-D10-pad-1026"/><use x="2763.4" y="204.4" xlink:href="#tool-D11-pad-1027"/><use x="1102.8" y="1424.7" xlink:href="#tool-D12-pad-1028"/><use x="1102.8" y="1324.7" xlink:href="#tool-D13-pad-1029"/><use x="1102.8" y="1224.7" xlink:href="#tool-D13-pad-1029"/><use x="1102.8" y="1124.7" xlink:href="#tool-D13-pad-1029"/><use x="1102.8" y="1024.7" xlink:href="#tool-D13-pad-1029"/><use x="1102.8" y="924.7" xlink:href="#tool-D13-pad-1029"/><use x="1102.8" y="824.7" xlink:href="#tool-D13-pad-1029"/><use x="1102.8" y="724.7" xlink:href="#tool-D13-pad-1029"/><use x="1202.8" y="1424.7" xlink:href="#tool-D13-pad-1029"/><use x="1202.8" y="1324.7" xlink:href="#tool-D13-pad-1029"/><use x="1202.8" y="1224.7" xlink:href="#tool-D13-pad-1029"/><use x="1202.8" y="1124.7" xlink:href="#tool-D13-pad-1029"/><use x="1202.8" y="1024.7" xlink:href="#tool-D13-pad-1029"/><use x="1202.8" y="924.7" xlink:href="#tool-D13-pad-1029"/><use x="1202.8" y="824.7" xlink:href="#tool-D13-pad-1029"/><use x="1202.8" y="724.7" xlink:href="#tool-D13-pad-1029"/><use x="578.4" y="1188.6" xlink:href="#tool-D14-pad-1030"/><use x="578.4" y="991.8" xlink:href="#tool-D15-pad-1031"/><use x="578.4" y="794.9" xlink:href="#tool-D15-pad-1031"/><use x="578.4" y="598.1" xlink:href="#tool-D15-pad-1031"/><use x="2763.4" y="1582.3" xlink:href="#tool-D11-pad-1027"/><use x="204.4" y="204.4" xlink:href="#tool-D11-pad-1027"/><use x="1772.1" y="1424.7" xlink:href="#tool-D12-pad-1028"/><use x="1772.1" y="1324.7" xlink:href="#tool-D13-pad-1029"/><use x="1772.1" y="1224.7" xlink:href="#tool-D13-pad-1029"/><use x="1772.1" y="1124.7" xlink:href="#tool-D13-pad-1029"/><use x="1772.1" y="1024.7" xlink:href="#tool-D13-pad-1029"/><use x="1772.1" y="924.7" xlink:href="#tool-D13-pad-1029"/><use x="1772.1" y="824.7" xlink:href="#tool-D13-pad-1029"/><use x="1772.1" y="724.7" xlink:href="#tool-D13-pad-1029"/><use x="1872.1" y="1424.7" xlink:href="#tool-D13-pad-1029"/><use x="1872.1" y="1324.7" xlink:href="#tool-D13-pad-1029"/><use x="1872.1" y="1224.7" xlink:href="#tool-D13-pad-1029"/><use x="1872.1" y="1124.7" xlink:href="#tool-D13-pad-1029"/><use x="1872.1" y="1024.7" xlink:href="#tool-D13-pad-1029"/><use x="1872.1" y="924.7" xlink:href="#tool-D13-pad-1029"/><use x="1872.1" y="824.7" xlink:href="#tool-D13-pad-1029"/><use x="1872.1" y="724.7" xlink:href="#tool-D13-pad-1029"/><use x="2516.6" y="1109.9" xlink:href="#tool-D16-pad-1032"/><use x="2616.6" y="1109.9" xlink:href="#tool-D17-pad-1033"/><use x="478.4" y="593.3" xlink:href="#tool-D18-pad-1034"/><use x="678.4" y="593.3" xlink:href="#tool-D19-pad-1035"/><use x="478.4" y="993.3" xlink:href="#tool-D18-pad-1034"/><use x="678.4" y="993.3" xlink:href="#tool-D19-pad-1035"/><use x="478.4" y="793.3" xlink:href="#tool-D18-pad-1034"/><use x="678.4" y="793.3" xlink:href="#tool-D19-pad-1035"/><use x="2516.6" y="1306.7" xlink:href="#tool-D20-pad-1036"/><use x="2616.6" y="1306.7" xlink:href="#tool-D21-pad-1037"/><use x="2516.6" y="913" xlink:href="#tool-D16-pad-1032"/><use x="2616.6" y="913" xlink:href="#tool-D17-pad-1033"/><use x="204.4" y="1582.3" xlink:href="#tool-D11-pad-1027"/><use x="478.4" y="1193.3" xlink:href="#tool-D18-pad-1034"/><use x="678.4" y="1193.3" xlink:href="#tool-D19-pad-1035"/><use x="2393.3" y="135.5" xlink:href="#tool-D22-pad-1038"/><use x="2228" y="135.5" xlink:href="#tool-D22-pad-1038"/><use x="2062.6" y="135.5" xlink:href="#tool-D22-pad-1038"/><use x="1897.3" y="135.5" xlink:href="#tool-D22-pad-1038"/><use x="1731.9" y="135.5" xlink:href="#tool-D22-pad-1038"/><use x="1566.6" y="135.5" xlink:href="#tool-D22-pad-1038"/><use x="1401.2" y="135.5" xlink:href="#tool-D22-pad-1038"/><use x="1235.8" y="135.5" xlink:href="#tool-D22-pad-1038"/><use x="1070.5" y="135.5" xlink:href="#tool-D22-pad-1038"/><use x="905.1" y="135.5" xlink:href="#tool-D22-pad-1038"/><use x="739.8" y="135.5" xlink:href="#tool-D22-pad-1038"/><use x="574.4" y="135.5" xlink:href="#tool-D22-pad-1038"/><use x="2393.3" y="352" xlink:href="#tool-D22-pad-1038"/><use x="2228" y="352" xlink:href="#tool-D22-pad-1038"/><use x="2062.6" y="352" xlink:href="#tool-D22-pad-1038"/><use x="1897.3" y="352" xlink:href="#tool-D22-pad-1038"/><use x="1731.9" y="352" xlink:href="#tool-D22-pad-1038"/><use x="1566.6" y="352" xlink:href="#tool-D22-pad-1038"/><use x="1401.2" y="352" xlink:href="#tool-D22-pad-1038"/><use x="1235.8" y="352" xlink:href="#tool-D22-pad-1038"/><use x="1070.5" y="352" xlink:href="#tool-D22-pad-1038"/><use x="905.1" y="352" xlink:href="#tool-D22-pad-1038"/><use x="739.8" y="352" xlink:href="#tool-D22-pad-1038"/><use x="574.4" y="352" xlink:href="#tool-D22-pad-1038"/><use x="1483.9" y="620.5" xlink:href="#tool-D23-pad-1039"/><use x="1483.9" y="520.5" xlink:href="#tool-D24-pad-1040"/></g><mask id="pcb_bottom-sm_mask" color="#000"><rect x="7.5" y="7.5" width="2952.8" height="1771.7" fill="#fff"/><use xlink:href="#pcb_bottom-sm"/></mask><mask id="pcb_bottom-cu_finish-mask" color="#fff"><use xlink:href="#pcb_bottom-cu"/></mask></defs><g mask="url(#pcb_bottom-sm_mask)"><rect x="7.5" y="7.5" width="2952.8" height="1771.7" fill="currentColor" class="pcb_board-sm"/><g id="pcb_bottom-ss" class="pcb_board-ss" fill="currentColor" stroke="currentColor"></g></g><use class="pcb_board-cf" mask="url(#pcb_bottom-cu_finish-mask)" xlink:href="#pcb_bottom-sm"/></g></g></svg>