<?xml version='1.0' encoding='UTF-8' standalone='no'?>
<svg xmlns="http://www.w3.org/2000/svg" width="342" height="118" x="0" y="0"><text x="138" y="39" font-size="10" font-family="sans-serif" text-anchor="middle" alignment-baseline="middle">center</text><text x="138" y="69" font-size="10" font-family="sans-serif" text-anchor="middle" alignment-baseline="middle">outer</text><text x="13" y="84" font-size="10" font-family="sans-serif" text-anchor="start" alignment-baseline="hanging">PJ-102A</text><text x="248" y="10" font-size="10" font-family="sans-serif" text-anchor="end" alignment-baseline="hanging">J2</text><text x="332" y="98" font-size="10" font-family="sans-serif" text-anchor="end" alignment-baseline="hanging">4 pin (2x2) 2.54 mm 0.1" header</text><text x="10" y="26" font-size="10" font-family="sans-serif" text-anchor="start" alignment-baseline="hanging">J1</text><line x1="80" y1="51" x2="86" y2="57" stroke-width="2" stroke="black"></line><line x1="80" y1="57" x2="86" y2="51" stroke-width="2" stroke="black"></line><rect width="20" height="50" x="243" y="34" style="stroke: #000; stroke-width: 1; fill: none;"></rect><line x1="233" y1="44" x2="243" y2="44" stroke-width="2" stroke="black"></line><text x="245" y="44" font-size="10" font-family="sans-serif" text-anchor="start" alignment-baseline="middle">1</text><line x1="233" y1="54" x2="243" y2="54" stroke-width="2" stroke="black"></line><text x="245" y="54" font-size="10" font-family="sans-serif" text-anchor="start" alignment-baseline="middle">2</text><line x1="233" y1="64" x2="243" y2="64" stroke-width="2" stroke="black"></line><text x="245" y="64" font-size="10" font-family="sans-serif" text-anchor="start" alignment-baseline="middle">3</text><line x1="233" y1="74" x2="243" y2="74" stroke-width="2" stroke="black"></line><text x="245" y="74" font-size="10" font-family="sans-serif" text-anchor="start" alignment-baseline="middle">4</text><rect width="40" height="10" x="12" y="38" style="stroke: #000; stroke-width: 1; fill: none;"></rect><line x1="53" y1="54" x2="33" y2="54" stroke-width="2" stroke="black"></line><line x1="33" y1="60" x2="33" y2="70" stroke-width="2" stroke="black"></line><line x1="30" y1="68" x2="33" y2="73" stroke-width="2" stroke="black"></line><line x1="36" y1="68" x2="33" y2="73" stroke-width="2" stroke="black"></line><line x1="12" y1="74" x2="17" y2="69" stroke-width="2" stroke="black"></line><line x1="17" y1="69" x2="22" y2="74" stroke-width="2" stroke="black"></line><line x1="23" y1="74" x2="53" y2="74" stroke-width="2" stroke="black"></line><line x1="33" y1="55" x2="33" y2="60" stroke-width="2" stroke="black"></line><line x1="63" y1="44" x2="53" y2="44" stroke-width="2" stroke="black"></line><line x1="63" y1="74" x2="53" y2="74" stroke-width="2" stroke="black"></line><line x1="63" y1="54" x2="53" y2="54" stroke-width="2" stroke="black"></line><circle cx="213" cy="44" r="2" style="stroke: #000; stroke-width: 1; fill: none;"></circle><circle cx="213" cy="74" r="2" style="stroke: #000; stroke-width: 1; fill: none;"></circle><line x1="73" y1="54" x2="63" y2="54" stroke-width="2" stroke="black"></line><line x1="83" y1="54" x2="73" y2="54" stroke-width="2" stroke="black"></line><line x1="213" y1="54" x2="233" y2="54" stroke-width="2" stroke="black"></line><line x1="213" y1="44" x2="213" y2="54" stroke-width="2" stroke="black"></line><line x1="233" y1="44" x2="213" y2="44" stroke-width="2" stroke="black"></line><line x1="63" y1="44" x2="213" y2="44" stroke-width="2" stroke="black"></line><line x1="213" y1="74" x2="233" y2="74" stroke-width="2" stroke="black"></line><line x1="213" y1="64" x2="233" y2="64" stroke-width="2" stroke="black"></line><line x1="213" y1="64" x2="213" y2="74" stroke-width="2" stroke="black"></line><line x1="63" y1="74" x2="213" y2="74" stroke-width="2" stroke="black"></line></svg>