<?xml version='1.0' encoding='UTF-8' standalone='no'?>
<svg xmlns="http://www.w3.org/2000/svg" width="371" height="178" x="0" y="0"><text x="167" y="85" font-size="10" font-family="sans-serif" text-anchor="middle" alignment-baseline="middle">center</text><text x="167" y="105" font-size="10" font-family="sans-serif" text-anchor="middle" alignment-baseline="middle">outer</text><text x="361" y="144" font-size="10" font-family="sans-serif" text-anchor="end" alignment-baseline="hanging">4 pin (2x2) 2.54 mm 0.1" header</text><text x="277" y="56" font-size="10" font-family="sans-serif" text-anchor="end" alignment-baseline="hanging">J2</text><text x="10" y="56" font-size="10" font-family="sans-serif" text-anchor="start" alignment-baseline="hanging">J1</text><text x="12" y="10" font-size="10" font-family="sans-serif" text-anchor="start" alignment-baseline="hanging">TODO: Decide what connector part I want to use ... something common</text><text x="10" y="158" font-size="10" font-family="sans-serif" text-anchor="start" alignment-baseline="hanging">PJ-063BH</text><line x1="36" y1="110" x2="39" y2="106" stroke-width="2" stroke="black"></line><line x1="39" y1="106" x2="42" y2="110" stroke-width="2" stroke="black"></line><line x1="65" y1="80" x2="59" y2="80" stroke-width="2" stroke="black"></line><line x1="65" y1="80" x2="65" y2="100" stroke-width="2" stroke="black"></line><line x1="59" y1="80" x2="59" y2="100" stroke-width="2" stroke="black"></line><line x1="59" y1="100" x2="65" y2="100" stroke-width="2" stroke="black"></line><line x1="92" y1="110" x2="42" y2="110" stroke-width="2" stroke="black"></line><line x1="65" y1="90" x2="92" y2="90" stroke-width="2" stroke="black"></line><rect width="40" height="10" x="19" y="85" style="stroke: #000; stroke-width: 1; fill: none;"></rect><rect width="70" height="80" x="12" y="70" style="stroke: #000; stroke-width: 1; fill: none;"></rect><line x1="92" y1="130" x2="82" y2="130" stroke-width="2" stroke="black"></line><text x="80" y="130" font-size="10" font-family="sans-serif" text-anchor="end" alignment-baseline="middle">MNT_1</text><line x1="92" y1="140" x2="82" y2="140" stroke-width="2" stroke="black"></line><text x="80" y="140" font-size="10" font-family="sans-serif" text-anchor="end" alignment-baseline="middle">MNT_2</text><line x1="119" y1="137" x2="125" y2="143" stroke-width="2" stroke="black"></line><line x1="119" y1="143" x2="125" y2="137" stroke-width="2" stroke="black"></line><rect width="20" height="50" x="272" y="80" style="stroke: #000; stroke-width: 1; fill: none;"></rect><line x1="262" y1="90" x2="272" y2="90" stroke-width="2" stroke="black"></line><text x="274" y="90" font-size="10" font-family="sans-serif" text-anchor="start" alignment-baseline="middle">1</text><line x1="262" y1="100" x2="272" y2="100" stroke-width="2" stroke="black"></line><text x="274" y="100" font-size="10" font-family="sans-serif" text-anchor="start" alignment-baseline="middle">2</text><line x1="262" y1="110" x2="272" y2="110" stroke-width="2" stroke="black"></line><text x="274" y="110" font-size="10" font-family="sans-serif" text-anchor="start" alignment-baseline="middle">3</text><line x1="262" y1="120" x2="272" y2="120" stroke-width="2" stroke="black"></line><text x="274" y="120" font-size="10" font-family="sans-serif" text-anchor="start" alignment-baseline="middle">4</text><line x1="119" y1="127" x2="125" y2="133" stroke-width="2" stroke="black"></line><line x1="119" y1="133" x2="125" y2="127" stroke-width="2" stroke="black"></line><circle cx="242" cy="110" r="2" style="stroke: #000; stroke-width: 1; fill: none;"></circle><circle cx="242" cy="90" r="2" style="stroke: #000; stroke-width: 1; fill: none;"></circle><line x1="242" y1="120" x2="242" y2="110" stroke-width="2" stroke="black"></line><line x1="262" y1="120" x2="242" y2="120" stroke-width="2" stroke="black"></line><line x1="242" y1="90" x2="92" y2="90" stroke-width="2" stroke="black"></line><line x1="242" y1="100" x2="262" y2="100" stroke-width="2" stroke="black"></line><line x1="242" y1="100" x2="242" y2="90" stroke-width="2" stroke="black"></line><line x1="262" y1="110" x2="242" y2="110" stroke-width="2" stroke="black"></line><line x1="92" y1="110" x2="242" y2="110" stroke-width="2" stroke="black"></line><line x1="122" y1="130" x2="92" y2="130" stroke-width="2" stroke="black"></line><line x1="262" y1="90" x2="242" y2="90" stroke-width="2" stroke="black"></line><line x1="92" y1="140" x2="122" y2="140" stroke-width="2" stroke="black"></line></svg>