%FSLAX33Y33*%
%MOMM*%
%ADD10C,0.0508*%
%ADD11C,0.508*%
%ADD12C,0.68834*%
%ADD13R,1.778X1.778*%
%ADD14C,1.778*%
D10*
%LNpour fill*%
G01*
X41475Y17975D02*
X41475Y17975D01*
X0525Y17975*
X0525Y0525*
X41475Y0525*
X41475Y17975*
X3189Y9427D02*
X2402Y9427D01*
X2402Y9682*
X2198Y9682*
X2198Y9427*
X1411Y9427*
X1379Y9429*
X1348Y9437*
X1318Y9449*
X1291Y9466*
X1267Y9487*
X1246Y9511*
X1229Y9538*
X1217Y9568*
X1209Y9599*
X1207Y9631*
X1207Y10418*
X1462Y10418*
X1462Y10622*
X1207Y10622*
X1207Y11409*
X1209Y11441*
X1217Y11472*
X1229Y11502*
X1246Y11529*
X1267Y11553*
X1291Y11574*
X1318Y11591*
X1348Y11603*
X1379Y11611*
X1411Y11613*
X2198Y11613*
X2198Y11358*
X2402Y11358*
X2402Y11613*
X3189Y11613*
X3221Y11611*
X3252Y11603*
X3282Y11591*
X3309Y11574*
X3333Y11553*
X3354Y11529*
X3371Y11502*
X3383Y11472*
X3391Y11441*
X3393Y11409*
X3393Y10622*
X3138Y10622*
X3138Y10418*
X3393Y10418*
X3393Y9631*
X3391Y9599*
X3383Y9568*
X3371Y9538*
X3354Y9511*
X3333Y9487*
X3309Y9466*
X3282Y9449*
X3252Y9437*
X3221Y9429*
X3189Y9427*
X2432Y6895D02*
X2168Y6895D01*
X1912Y6958*
X1679Y7080*
X1482Y7255*
X1332Y7472*
X1239Y7718*
X1207Y7980*
X1239Y8242*
X1332Y8488*
X1482Y8705*
X1679Y8880*
X1912Y9002*
X2168Y9065*
X2432Y9065*
X2688Y9002*
X2921Y8880*
X3118Y8705*
X3268Y8488*
X3361Y8242*
X3393Y7980*
X3361Y7718*
X3268Y7472*
X3118Y7255*
X2921Y7080*
X2688Y6958*
X2432Y6895*
X1566Y4656D02*
X1434Y4656D01*
X1306Y4687*
X1188Y4749*
X1090Y4836*
X1014Y4945*
X0968Y5069*
X0952Y5200*
X0968Y5331*
X1014Y5455*
X1090Y5564*
X1188Y5651*
X1306Y5713*
X1434Y5744*
X1566Y5744*
X1694Y5713*
X1798Y5658*
X6387Y5658*
X6491Y5713*
X6619Y5744*
X6751Y5744*
X6880Y5713*
X6997Y5651*
X7096Y5564*
X7171Y5455*
X7218Y5331*
X7234Y5200*
X7218Y5069*
X7171Y4945*
X7096Y4836*
X6997Y4749*
X6880Y4687*
X6751Y4656*
X6619Y4656*
X6491Y4687*
X6387Y4742*
X1798Y4742*
X1694Y4687*
X1566Y4656*
X0500Y0550D02*
X41500Y0550D01*
X0500Y0599D02*
X41500Y0599D01*
X0500Y0649D02*
X41500Y0649D01*
X0500Y0698D02*
X41500Y0698D01*
X0500Y0748D02*
X41500Y0748D01*
X0500Y0797D02*
X41500Y0797D01*
X0500Y0847D02*
X41500Y0847D01*
X0500Y0896D02*
X41500Y0896D01*
X0500Y0946D02*
X41500Y0946D01*
X0500Y0995D02*
X41500Y0995D01*
X0500Y1045D02*
X41500Y1045D01*
X0500Y1094D02*
X41500Y1094D01*
X0500Y1144D02*
X41500Y1144D01*
X0500Y1193D02*
X41500Y1193D01*
X0500Y1243D02*
X41500Y1243D01*
X0500Y1292D02*
X41500Y1292D01*
X0500Y1342D02*
X41500Y1342D01*
X0500Y1392D02*
X41500Y1392D01*
X0500Y1441D02*
X41500Y1441D01*
X0500Y1491D02*
X41500Y1491D01*
X0500Y1540D02*
X41500Y1540D01*
X0500Y1590D02*
X41500Y1590D01*
X0500Y1639D02*
X41500Y1639D01*
X0500Y1689D02*
X41500Y1689D01*
X0500Y1738D02*
X41500Y1738D01*
X0500Y1788D02*
X41500Y1788D01*
X0500Y1837D02*
X41500Y1837D01*
X0500Y1887D02*
X41500Y1887D01*
X0500Y1936D02*
X41500Y1936D01*
X0500Y1986D02*
X41500Y1986D01*
X0500Y2035D02*
X41500Y2035D01*
X0500Y2085D02*
X41500Y2085D01*
X0500Y2134D02*
X41500Y2134D01*
X0500Y2184D02*
X41500Y2184D01*
X0500Y2234D02*
X41500Y2234D01*
X0500Y2283D02*
X41500Y2283D01*
X0500Y2333D02*
X41500Y2333D01*
X0500Y2382D02*
X41500Y2382D01*
X0500Y2432D02*
X41500Y2432D01*
X0500Y2481D02*
X41500Y2481D01*
X0500Y2531D02*
X41500Y2531D01*
X0500Y2580D02*
X41500Y2580D01*
X0500Y2630D02*
X41500Y2630D01*
X0500Y2679D02*
X41500Y2679D01*
X0500Y2729D02*
X41500Y2729D01*
X0500Y2778D02*
X41500Y2778D01*
X0500Y2828D02*
X41500Y2828D01*
X0500Y2877D02*
X41500Y2877D01*
X0500Y2927D02*
X41500Y2927D01*
X0500Y2977D02*
X41500Y2977D01*
X0500Y3026D02*
X41500Y3026D01*
X0500Y3076D02*
X41500Y3076D01*
X0500Y3125D02*
X41500Y3125D01*
X0500Y3175D02*
X41500Y3175D01*
X0500Y3224D02*
X41500Y3224D01*
X0500Y3274D02*
X41500Y3274D01*
X0500Y3323D02*
X41500Y3323D01*
X0500Y3373D02*
X41500Y3373D01*
X0500Y3422D02*
X41500Y3422D01*
X0500Y3472D02*
X41500Y3472D01*
X0500Y3521D02*
X41500Y3521D01*
X0500Y3571D02*
X41500Y3571D01*
X0500Y3620D02*
X41500Y3620D01*
X0500Y3670D02*
X41500Y3670D01*
X0500Y3719D02*
X41500Y3719D01*
X0500Y3769D02*
X41500Y3769D01*
X0500Y3819D02*
X41500Y3819D01*
X0500Y3868D02*
X41500Y3868D01*
X0500Y3918D02*
X41500Y3918D01*
X0500Y3967D02*
X41500Y3967D01*
X0500Y4017D02*
X41500Y4017D01*
X0500Y4066D02*
X41500Y4066D01*
X0500Y4116D02*
X41500Y4116D01*
X0500Y4165D02*
X41500Y4165D01*
X0500Y4215D02*
X41500Y4215D01*
X0500Y4264D02*
X41500Y4264D01*
X0500Y4314D02*
X41500Y4314D01*
X0500Y4363D02*
X41500Y4363D01*
X0500Y4413D02*
X41500Y4413D01*
X0500Y4462D02*
X41500Y4462D01*
X0500Y4512D02*
X41500Y4512D01*
X0500Y4561D02*
X41500Y4561D01*
X0500Y4611D02*
X41500Y4611D01*
X0500Y4661D02*
X1308Y4661D01*
X1692Y4661D02*
X6493Y4661D01*
X6877Y4661D02*
X41500Y4661D01*
X0500Y4710D02*
X1207Y4710D01*
X1793Y4710D02*
X6393Y4710D01*
X6978Y4710D02*
X41500Y4710D01*
X0500Y4760D02*
X1138Y4760D01*
X7047Y4760D02*
X41500Y4760D01*
X0500Y4809D02*
X1082Y4809D01*
X7103Y4809D02*
X41500Y4809D01*
X0500Y4859D02*
X1043Y4859D01*
X7142Y4859D02*
X41500Y4859D01*
X0500Y4908D02*
X1009Y4908D01*
X7176Y4908D02*
X41500Y4908D01*
X0500Y4958D02*
X0983Y4958D01*
X7203Y4958D02*
X41500Y4958D01*
X0500Y5007D02*
X0964Y5007D01*
X7222Y5007D02*
X41500Y5007D01*
X0500Y5057D02*
X0945Y5057D01*
X7240Y5057D02*
X41500Y5057D01*
X0500Y5106D02*
X0937Y5106D01*
X7248Y5106D02*
X41500Y5106D01*
X0500Y5156D02*
X0931Y5156D01*
X7254Y5156D02*
X41500Y5156D01*
X0500Y5205D02*
X0927Y5205D01*
X7259Y5205D02*
X41500Y5205D01*
X0500Y5255D02*
X0933Y5255D01*
X7253Y5255D02*
X41500Y5255D01*
X0500Y5304D02*
X0939Y5304D01*
X7247Y5304D02*
X41500Y5304D01*
X0500Y5354D02*
X0949Y5354D01*
X7236Y5354D02*
X41500Y5354D01*
X0500Y5403D02*
X0968Y5403D01*
X7218Y5403D02*
X41500Y5403D01*
X0500Y5453D02*
X0987Y5453D01*
X7199Y5453D02*
X41500Y5453D01*
X0500Y5503D02*
X1016Y5503D01*
X7169Y5503D02*
X41500Y5503D01*
X0500Y5552D02*
X1051Y5552D01*
X7135Y5552D02*
X41500Y5552D01*
X0500Y5602D02*
X1094Y5602D01*
X7091Y5602D02*
X41500Y5602D01*
X0500Y5651D02*
X1150Y5651D01*
X7035Y5651D02*
X41500Y5651D01*
X0500Y5701D02*
X1228Y5701D01*
X1772Y5701D02*
X6413Y5701D01*
X6957Y5701D02*
X41500Y5701D01*
X0500Y5750D02*
X41500Y5750D01*
X0500Y5800D02*
X41500Y5800D01*
X0500Y5849D02*
X41500Y5849D01*
X0500Y5899D02*
X41500Y5899D01*
X0500Y5948D02*
X41500Y5948D01*
X0500Y5998D02*
X41500Y5998D01*
X0500Y6047D02*
X41500Y6047D01*
X0500Y6097D02*
X41500Y6097D01*
X0500Y6146D02*
X41500Y6146D01*
X0500Y6196D02*
X41500Y6196D01*
X0500Y6245D02*
X41500Y6245D01*
X0500Y6295D02*
X41500Y6295D01*
X0500Y6345D02*
X41500Y6345D01*
X0500Y6394D02*
X41500Y6394D01*
X0500Y6444D02*
X41500Y6444D01*
X0500Y6493D02*
X41500Y6493D01*
X0500Y6543D02*
X41500Y6543D01*
X0500Y6592D02*
X41500Y6592D01*
X0500Y6642D02*
X41500Y6642D01*
X0500Y6691D02*
X41500Y6691D01*
X0500Y6741D02*
X41500Y6741D01*
X0500Y6790D02*
X41500Y6790D01*
X0500Y6840D02*
X41500Y6840D01*
X0500Y6889D02*
X41500Y6889D01*
X0500Y6939D02*
X1894Y6939D01*
X2706Y6939D02*
X41500Y6939D01*
X0500Y6988D02*
X1799Y6988D01*
X2801Y6988D02*
X41500Y6988D01*
X0500Y7038D02*
X1705Y7038D01*
X2895Y7038D02*
X41500Y7038D01*
X0500Y7087D02*
X1633Y7087D01*
X2967Y7087D02*
X41500Y7087D01*
X0500Y7137D02*
X1577Y7137D01*
X3023Y7137D02*
X41500Y7137D01*
X0500Y7187D02*
X1521Y7187D01*
X3079Y7187D02*
X41500Y7187D01*
X0500Y7236D02*
X1465Y7236D01*
X3135Y7236D02*
X41500Y7236D01*
X0500Y7286D02*
X1430Y7286D01*
X3170Y7286D02*
X41500Y7286D01*
X0500Y7335D02*
X1396Y7335D01*
X3204Y7335D02*
X41500Y7335D01*
X0500Y7385D02*
X1361Y7385D01*
X3239Y7385D02*
X41500Y7385D01*
X0500Y7434D02*
X1327Y7434D01*
X3273Y7434D02*
X41500Y7434D01*
X0500Y7484D02*
X1300Y7484D01*
X3300Y7484D02*
X41500Y7484D01*
X0500Y7533D02*
X1282Y7533D01*
X3318Y7533D02*
X41500Y7533D01*
X0500Y7583D02*
X1263Y7583D01*
X3337Y7583D02*
X41500Y7583D01*
X0500Y7632D02*
X1244Y7632D01*
X3356Y7632D02*
X41500Y7632D01*
X0500Y7682D02*
X1225Y7682D01*
X3375Y7682D02*
X41500Y7682D01*
X0500Y7731D02*
X1211Y7731D01*
X3389Y7731D02*
X41500Y7731D01*
X0500Y7781D02*
X1205Y7781D01*
X3395Y7781D02*
X41500Y7781D01*
X0500Y7830D02*
X1199Y7830D01*
X3401Y7830D02*
X41500Y7830D01*
X0500Y7880D02*
X1193Y7880D01*
X3407Y7880D02*
X41500Y7880D01*
X0500Y7929D02*
X1187Y7929D01*
X3413Y7929D02*
X41500Y7929D01*
X0500Y7979D02*
X1181Y7979D01*
X3419Y7979D02*
X41500Y7979D01*
X0500Y8029D02*
X1187Y8029D01*
X3413Y8029D02*
X41500Y8029D01*
X0500Y8078D02*
X1193Y8078D01*
X3407Y8078D02*
X41500Y8078D01*
X0500Y8128D02*
X1199Y8128D01*
X3401Y8128D02*
X41500Y8128D01*
X0500Y8177D02*
X1205Y8177D01*
X3395Y8177D02*
X41500Y8177D01*
X0500Y8227D02*
X1211Y8227D01*
X3389Y8227D02*
X41500Y8227D01*
X0500Y8276D02*
X1225Y8276D01*
X3375Y8276D02*
X41500Y8276D01*
X0500Y8326D02*
X1243Y8326D01*
X3357Y8326D02*
X41500Y8326D01*
X0500Y8375D02*
X1262Y8375D01*
X3338Y8375D02*
X41500Y8375D01*
X0500Y8425D02*
X1281Y8425D01*
X3319Y8425D02*
X41500Y8425D01*
X0500Y8474D02*
X1300Y8474D01*
X3300Y8474D02*
X41500Y8474D01*
X0500Y8524D02*
X1326Y8524D01*
X3274Y8524D02*
X41500Y8524D01*
X0500Y8573D02*
X1360Y8573D01*
X3240Y8573D02*
X41500Y8573D01*
X0500Y8623D02*
X1394Y8623D01*
X3206Y8623D02*
X41500Y8623D01*
X0500Y8672D02*
X1428Y8672D01*
X3172Y8672D02*
X41500Y8672D01*
X0500Y8722D02*
X1463Y8722D01*
X3137Y8722D02*
X41500Y8722D01*
X0500Y8772D02*
X1519Y8772D01*
X3081Y8772D02*
X41500Y8772D01*
X0500Y8821D02*
X1574Y8821D01*
X3026Y8821D02*
X41500Y8821D01*
X0500Y8871D02*
X1630Y8871D01*
X2970Y8871D02*
X41500Y8871D01*
X0500Y8920D02*
X1701Y8920D01*
X2899Y8920D02*
X41500Y8920D01*
X0500Y8970D02*
X1796Y8970D01*
X2804Y8970D02*
X41500Y8970D01*
X0500Y9019D02*
X1890Y9019D01*
X2710Y9019D02*
X41500Y9019D01*
X0500Y9069D02*
X41500Y9069D01*
X0500Y9118D02*
X41500Y9118D01*
X0500Y9168D02*
X41500Y9168D01*
X0500Y9217D02*
X41500Y9217D01*
X0500Y9267D02*
X41500Y9267D01*
X0500Y9316D02*
X41500Y9316D01*
X0500Y9366D02*
X41500Y9366D01*
X0500Y9415D02*
X41500Y9415D01*
X0500Y9465D02*
X1253Y9465D01*
X2224Y9465D02*
X2376Y9465D01*
X3347Y9465D02*
X41500Y9465D01*
X0500Y9514D02*
X1214Y9514D01*
X2224Y9514D02*
X2376Y9514D01*
X3386Y9514D02*
X41500Y9514D01*
X0500Y9564D02*
X1192Y9564D01*
X2224Y9564D02*
X2376Y9564D01*
X3408Y9564D02*
X41500Y9564D01*
X0500Y9614D02*
X1183Y9614D01*
X2224Y9614D02*
X2376Y9614D01*
X3417Y9614D02*
X41500Y9614D01*
X0500Y9663D02*
X1181Y9663D01*
X3419Y9663D02*
X41500Y9663D01*
X0500Y9713D02*
X1181Y9713D01*
X3419Y9713D02*
X41500Y9713D01*
X0500Y9762D02*
X1181Y9762D01*
X3419Y9762D02*
X41500Y9762D01*
X0500Y9812D02*
X1181Y9812D01*
X3419Y9812D02*
X41500Y9812D01*
X0500Y9861D02*
X1181Y9861D01*
X3419Y9861D02*
X41500Y9861D01*
X0500Y9911D02*
X1181Y9911D01*
X3419Y9911D02*
X41500Y9911D01*
X0500Y9960D02*
X1181Y9960D01*
X3419Y9960D02*
X41500Y9960D01*
X0500Y10010D02*
X1181Y10010D01*
X3419Y10010D02*
X41500Y10010D01*
X0500Y10059D02*
X1181Y10059D01*
X3419Y10059D02*
X41500Y10059D01*
X0500Y10109D02*
X1181Y10109D01*
X3419Y10109D02*
X41500Y10109D01*
X0500Y10158D02*
X1181Y10158D01*
X3419Y10158D02*
X41500Y10158D01*
X0500Y10208D02*
X1181Y10208D01*
X3419Y10208D02*
X41500Y10208D01*
X0500Y10257D02*
X1181Y10257D01*
X3419Y10257D02*
X41500Y10257D01*
X0500Y10307D02*
X1181Y10307D01*
X3419Y10307D02*
X41500Y10307D01*
X0500Y10356D02*
X1181Y10356D01*
X3419Y10356D02*
X41500Y10356D01*
X0500Y10406D02*
X1181Y10406D01*
X3419Y10406D02*
X41500Y10406D01*
X0500Y10456D02*
X1436Y10456D01*
X3164Y10456D02*
X41500Y10456D01*
X0500Y10505D02*
X1436Y10505D01*
X3164Y10505D02*
X41500Y10505D01*
X0500Y10555D02*
X1436Y10555D01*
X3164Y10555D02*
X41500Y10555D01*
X0500Y10604D02*
X1188Y10604D01*
X3412Y10604D02*
X41500Y10604D01*
X0500Y10654D02*
X1181Y10654D01*
X3419Y10654D02*
X41500Y10654D01*
X0500Y10703D02*
X1181Y10703D01*
X3419Y10703D02*
X41500Y10703D01*
X0500Y10753D02*
X1181Y10753D01*
X3419Y10753D02*
X41500Y10753D01*
X0500Y10802D02*
X1181Y10802D01*
X3419Y10802D02*
X41500Y10802D01*
X0500Y10852D02*
X1181Y10852D01*
X3419Y10852D02*
X41500Y10852D01*
X0500Y10901D02*
X1181Y10901D01*
X3419Y10901D02*
X41500Y10901D01*
X0500Y10951D02*
X1181Y10951D01*
X3419Y10951D02*
X41500Y10951D01*
X0500Y11000D02*
X1181Y11000D01*
X3419Y11000D02*
X41500Y11000D01*
X0500Y11050D02*
X1181Y11050D01*
X3419Y11050D02*
X41500Y11050D01*
X0500Y11099D02*
X1181Y11099D01*
X3419Y11099D02*
X41500Y11099D01*
X0500Y11149D02*
X1181Y11149D01*
X3419Y11149D02*
X41500Y11149D01*
X0500Y11198D02*
X1181Y11198D01*
X3419Y11198D02*
X41500Y11198D01*
X0500Y11248D02*
X1181Y11248D01*
X3419Y11248D02*
X41500Y11248D01*
X0500Y11298D02*
X1181Y11298D01*
X3419Y11298D02*
X41500Y11298D01*
X0500Y11347D02*
X1181Y11347D01*
X3419Y11347D02*
X41500Y11347D01*
X0500Y11397D02*
X1181Y11397D01*
X2224Y11397D02*
X2376Y11397D01*
X3419Y11397D02*
X41500Y11397D01*
X0500Y11446D02*
X1184Y11446D01*
X2224Y11446D02*
X2376Y11446D01*
X3416Y11446D02*
X41500Y11446D01*
X0500Y11496D02*
X1199Y11496D01*
X2224Y11496D02*
X2376Y11496D01*
X3401Y11496D02*
X41500Y11496D01*
X0500Y11545D02*
X1226Y11545D01*
X2224Y11545D02*
X2376Y11545D01*
X3374Y11545D02*
X41500Y11545D01*
X0500Y11595D02*
X1276Y11595D01*
X2224Y11595D02*
X2376Y11595D01*
X3324Y11595D02*
X41500Y11595D01*
X0500Y11644D02*
X41500Y11644D01*
X0500Y11694D02*
X41500Y11694D01*
X0500Y11743D02*
X41500Y11743D01*
X0500Y11793D02*
X41500Y11793D01*
X0500Y11842D02*
X41500Y11842D01*
X0500Y11892D02*
X41500Y11892D01*
X0500Y11941D02*
X41500Y11941D01*
X0500Y11991D02*
X41500Y11991D01*
X0500Y12040D02*
X41500Y12040D01*
X0500Y12090D02*
X41500Y12090D01*
X0500Y12140D02*
X41500Y12140D01*
X0500Y12189D02*
X41500Y12189D01*
X0500Y12239D02*
X41500Y12239D01*
X0500Y12288D02*
X41500Y12288D01*
X0500Y12338D02*
X41500Y12338D01*
X0500Y12387D02*
X41500Y12387D01*
X0500Y12437D02*
X41500Y12437D01*
X0500Y12486D02*
X41500Y12486D01*
X0500Y12536D02*
X41500Y12536D01*
X0500Y12585D02*
X41500Y12585D01*
X0500Y12635D02*
X41500Y12635D01*
X0500Y12684D02*
X41500Y12684D01*
X0500Y12734D02*
X41500Y12734D01*
X0500Y12783D02*
X41500Y12783D01*
X0500Y12833D02*
X41500Y12833D01*
X0500Y12883D02*
X41500Y12883D01*
X0500Y12932D02*
X41500Y12932D01*
X0500Y12982D02*
X41500Y12982D01*
X0500Y13031D02*
X41500Y13031D01*
X0500Y13081D02*
X41500Y13081D01*
X0500Y13130D02*
X41500Y13130D01*
X0500Y13180D02*
X41500Y13180D01*
X0500Y13229D02*
X41500Y13229D01*
X0500Y13279D02*
X41500Y13279D01*
X0500Y13328D02*
X41500Y13328D01*
X0500Y13378D02*
X41500Y13378D01*
X0500Y13427D02*
X41500Y13427D01*
X0500Y13477D02*
X41500Y13477D01*
X0500Y13526D02*
X41500Y13526D01*
X0500Y13576D02*
X41500Y13576D01*
X0500Y13625D02*
X41500Y13625D01*
X0500Y13675D02*
X41500Y13675D01*
X0500Y13725D02*
X41500Y13725D01*
X0500Y13774D02*
X41500Y13774D01*
X0500Y13824D02*
X41500Y13824D01*
X0500Y13873D02*
X41500Y13873D01*
X0500Y13923D02*
X41500Y13923D01*
X0500Y13972D02*
X41500Y13972D01*
X0500Y14022D02*
X41500Y14022D01*
X0500Y14071D02*
X41500Y14071D01*
X0500Y14121D02*
X41500Y14121D01*
X0500Y14170D02*
X41500Y14170D01*
X0500Y14220D02*
X41500Y14220D01*
X0500Y14269D02*
X41500Y14269D01*
X0500Y14319D02*
X41500Y14319D01*
X0500Y14368D02*
X41500Y14368D01*
X0500Y14418D02*
X41500Y14418D01*
X0500Y14467D02*
X41500Y14467D01*
X0500Y14517D02*
X41500Y14517D01*
X0500Y14567D02*
X41500Y14567D01*
X0500Y14616D02*
X41500Y14616D01*
X0500Y14666D02*
X41500Y14666D01*
X0500Y14715D02*
X41500Y14715D01*
X0500Y14765D02*
X41500Y14765D01*
X0500Y14814D02*
X41500Y14814D01*
X0500Y14864D02*
X41500Y14864D01*
X0500Y14913D02*
X41500Y14913D01*
X0500Y14963D02*
X41500Y14963D01*
X0500Y15012D02*
X41500Y15012D01*
X0500Y15062D02*
X41500Y15062D01*
X0500Y15111D02*
X41500Y15111D01*
X0500Y15161D02*
X41500Y15161D01*
X0500Y15210D02*
X41500Y15210D01*
X0500Y15260D02*
X41500Y15260D01*
X0500Y15309D02*
X41500Y15309D01*
X0500Y15359D02*
X41500Y15359D01*
X0500Y15409D02*
X41500Y15409D01*
X0500Y15458D02*
X41500Y15458D01*
X0500Y15508D02*
X41500Y15508D01*
X0500Y15557D02*
X41500Y15557D01*
X0500Y15607D02*
X41500Y15607D01*
X0500Y15656D02*
X41500Y15656D01*
X0500Y15706D02*
X41500Y15706D01*
X0500Y15755D02*
X41500Y15755D01*
X0500Y15805D02*
X41500Y15805D01*
X0500Y15854D02*
X41500Y15854D01*
X0500Y15904D02*
X41500Y15904D01*
X0500Y15953D02*
X41500Y15953D01*
X0500Y16003D02*
X41500Y16003D01*
X0500Y16052D02*
X41500Y16052D01*
X0500Y16102D02*
X41500Y16102D01*
X0500Y16151D02*
X41500Y16151D01*
X0500Y16201D02*
X41500Y16201D01*
X0500Y16251D02*
X41500Y16251D01*
X0500Y16300D02*
X41500Y16300D01*
X0500Y16350D02*
X41500Y16350D01*
X0500Y16399D02*
X41500Y16399D01*
X0500Y16449D02*
X41500Y16449D01*
X0500Y16498D02*
X41500Y16498D01*
X0500Y16548D02*
X41500Y16548D01*
X0500Y16597D02*
X41500Y16597D01*
X0500Y16647D02*
X41500Y16647D01*
X0500Y16696D02*
X41500Y16696D01*
X0500Y16746D02*
X41500Y16746D01*
X0500Y16795D02*
X41500Y16795D01*
X0500Y16845D02*
X41500Y16845D01*
X0500Y16894D02*
X41500Y16894D01*
X0500Y16944D02*
X41500Y16944D01*
X0500Y16993D02*
X41500Y16993D01*
X0500Y17043D02*
X41500Y17043D01*
X0500Y17093D02*
X41500Y17093D01*
X0500Y17142D02*
X41500Y17142D01*
X0500Y17192D02*
X41500Y17192D01*
X0500Y17241D02*
X41500Y17241D01*
X0500Y17291D02*
X41500Y17291D01*
X0500Y17340D02*
X41500Y17340D01*
X0500Y17390D02*
X41500Y17390D01*
X0500Y17439D02*
X41500Y17439D01*
X0500Y17489D02*
X41500Y17489D01*
X0500Y17538D02*
X41500Y17538D01*
X0500Y17588D02*
X41500Y17588D01*
X0500Y17637D02*
X41500Y17637D01*
X0500Y17687D02*
X41500Y17687D01*
X0500Y17736D02*
X41500Y17736D01*
X0500Y17786D02*
X41500Y17786D01*
X0500Y17835D02*
X41500Y17835D01*
X0500Y17885D02*
X41500Y17885D01*
X0500Y17935D02*
X41500Y17935D01*
X0500Y17984D02*
X41500Y17984D01*
%LNbottom copper_traces*%
D11*
X6685Y5200D02*
X1500Y5200D01*
D12*
X21675Y7500D03*
X12235Y14285D03*
X6685Y5200D03*
X14175Y7500D03*
X27235Y14285D03*
X6675Y7500D03*
X1500Y5200D03*
X19735Y14285D03*
X36675Y7500D03*
X29175Y7500D03*
X34585Y14285D03*
X4735Y14285D03*
%LNbottom copper component 4188e9859e8afcf0*%
D13*
X2300Y10520D03*
D14*
X2300Y7980D03*
M02*