%FSLAX33Y33*%
%MOMM*%
%AMRect-W800000-H900000-RO1.000*
21,1,0.8,0.9,0.,0.,180*%
%AMRect-W820710-H1670710-RO1.000*
21,1,0.82071,1.67071,0.,0.,180*%
%AMRect-W820710-H1670710-RO1.500*
21,1,0.82071,1.67071,0.,0.,90*%
%ADD10C,0.508*%
%ADD11C,0.68834*%
%ADD12Rect-W800000-H900000-RO1.000*%
%ADD13R,0.82071X1.67071*%
%ADD14R,1.778X1.778*%
%ADD15C,1.778*%
%ADD16Rect-W820710-H1670710-RO1.000*%
%ADD17Rect-W820710-H1670710-RO1.500*%
D10*
%LNtop copper_traces*%
G01*
X14185Y11010D02*
X14185Y12285D01*
X1500Y4275D02*
X1500Y5200D01*
X35675Y2500D02*
X34375Y1200D01*
X13235Y14285D02*
X12235Y14285D01*
X34675Y9000D02*
X36535Y10860D01*
X19175Y1200D02*
X14475Y1200D01*
X31325Y2500D02*
X31325Y5000D01*
X25110Y13285D02*
X29135Y13285D01*
X16325Y7500D02*
X16325Y12000D01*
X36535Y12285D02*
X36535Y10860D01*
X27175Y9000D02*
X29185Y11010D01*
X25110Y13285D02*
X23825Y12000D01*
X38825Y16060D02*
X37485Y17400D01*
X19675Y6000D02*
X20675Y5000D01*
X14475Y1200D02*
X13175Y2500D01*
X2300Y5875D02*
X2300Y7980D01*
X28235Y14285D02*
X27235Y14285D01*
X28175Y7500D02*
X29185Y7500D01*
X29185Y11010D02*
X29185Y12285D01*
X12175Y6000D02*
X13175Y5000D01*
X32610Y13285D02*
X36485Y13285D01*
X20675Y14285D02*
X19735Y14285D01*
X21635Y13285D02*
X22635Y14285D01*
X14135Y13285D02*
X15135Y14285D01*
X2875Y2500D02*
X1500Y1125D01*
X8825Y2500D02*
X8825Y5000D01*
X28175Y2500D02*
X26875Y1200D01*
X31325Y7500D02*
X31325Y12000D01*
X5675Y14285D02*
X4735Y14285D01*
X35675Y7500D02*
X36675Y7500D01*
X17610Y13285D02*
X21635Y13285D01*
X37485Y17400D02*
X10750Y17400D01*
X27175Y6000D02*
X28175Y5000D01*
X19675Y6000D02*
X19675Y9000D01*
X4675Y9000D02*
X6685Y11010D01*
X10750Y17400D02*
X7635Y14285D01*
X38825Y7500D02*
X38825Y16060D01*
X20675Y7500D02*
X21685Y7500D01*
X2300Y5875D02*
X6975Y1200D01*
X16325Y2500D02*
X16325Y5000D01*
X5675Y2500D02*
X2875Y2500D01*
X21775Y1200D02*
X20475Y2500D01*
X29135Y13285D02*
X30135Y14285D01*
X35585Y14285D02*
X34585Y14285D01*
X10110Y13285D02*
X8825Y12000D01*
X6685Y11010D02*
X6685Y12285D01*
X29475Y1200D02*
X28175Y2500D01*
X12175Y6000D02*
X12175Y9000D01*
X4675Y6000D02*
X4675Y9000D01*
X34675Y6000D02*
X35675Y5000D01*
X19175Y1200D02*
X20475Y2500D01*
X13175Y7500D02*
X14185Y7500D01*
X21685Y11010D02*
X21685Y12285D01*
X4675Y6000D02*
X5675Y5000D01*
X31325Y12000D02*
X32610Y13285D01*
X38825Y5000D02*
X38825Y2500D01*
X11675Y1200D02*
X6975Y1200D01*
X17610Y13285D02*
X16325Y12000D01*
X26675Y1200D02*
X21775Y1200D01*
X27175Y6000D02*
X27175Y9000D01*
X10110Y13285D02*
X14135Y13285D01*
X8825Y7500D02*
X8825Y12000D01*
X6685Y5200D02*
X5675Y5200D01*
X36485Y13285D02*
X37485Y14285D01*
X23825Y5000D02*
X23825Y2500D01*
X23825Y7500D02*
X23825Y12000D01*
X34175Y1200D02*
X29475Y1200D01*
X19675Y9000D02*
X21685Y11010D01*
X5675Y7500D02*
X6685Y7500D01*
X12175Y9000D02*
X14185Y11010D01*
X34675Y6000D02*
X34675Y9000D01*
X13175Y2500D02*
X11875Y1200D01*
D11*
X21675Y7500D03*
X12235Y14285D03*
X6685Y5200D03*
X14175Y7500D03*
X27235Y14285D03*
X6675Y7500D03*
X1500Y5200D03*
X19735Y14285D03*
X36675Y7500D03*
X29175Y7500D03*
X34585Y14285D03*
X4735Y14285D03*
%LNtop copper component 05d2d36842009d63*%
D12*
X15135Y14285D03*
X13235Y14285D03*
X14185Y12285D03*
%LNtop copper component 822d2e54c25a04ce*%
D13*
X20675Y10000D03*
X23825Y10000D03*
%LNtop copper component 4188e9859e8afcf0*%
D14*
X2300Y10520D03*
D15*
X2300Y7980D03*
%LNtop copper component 5790a80edc5a0cfb*%
D13*
X5675Y2500D03*
X8825Y2500D03*
%LNtop copper component 8f47c0f87a48434a*%
X13175Y10000D03*
X16325Y10000D03*
%LNtop copper component 41bb835b16e20d78*%
X20675Y5000D03*
X23825Y5000D03*
%LNtop copper component 7dcfd0ba6a5a263a*%
X5675Y5000D03*
X8825Y5000D03*
%LNtop copper component b5f8715c32184e16*%
D12*
X37485Y14285D03*
X35585Y14285D03*
X36535Y12285D03*
%LNtop copper component 2a257863ed8e7bb5*%
D13*
X13175Y5000D03*
X16325Y5000D03*
%LNtop copper component 25cd0881f7f84887*%
X35675Y10000D03*
X38825Y10000D03*
%LNtop copper component cc4562fc70e2dc54*%
D16*
X23825Y7500D03*
X20675Y7500D03*
%LNtop copper component 11c3ea52300c4394*%
D13*
X20675Y2500D03*
X23825Y2500D03*
%LNtop copper component c185fbd77206e2e9*%
X28175Y5000D03*
X31325Y5000D03*
%LNtop copper component fb552f706cb5b883*%
D16*
X31325Y7500D03*
X28175Y7500D03*
%LNtop copper component 32ce1469a01fd207*%
X8825Y7500D03*
X5675Y7500D03*
%LNtop copper component 810d07a0d8483d25*%
D13*
X13175Y2500D03*
X16325Y2500D03*
%LNtop copper component 291e9fd76b66e9cf*%
D12*
X30135Y14285D03*
X28235Y14285D03*
X29185Y12285D03*
%LNtop copper component f3abb73a7aa5f313*%
D13*
X28175Y10000D03*
X31325Y10000D03*
%LNtop copper component 33285f67f051bd9b*%
X35675Y2500D03*
X38825Y2500D03*
%LNtop copper component ba19ab7b144902aa*%
D16*
X38825Y7500D03*
X35675Y7500D03*
%LNtop copper component a90bda53b775e81a*%
X16325Y7500D03*
X13175Y7500D03*
%LNtop copper component f381318732445cbf*%
D13*
X35675Y5000D03*
X38825Y5000D03*
%LNtop copper component 210a273ce5ceec44*%
D17*
X1500Y1125D03*
X1500Y4275D03*
%LNtop copper component f74f637f440bfcb7*%
D12*
X22635Y14285D03*
X20735Y14285D03*
X21685Y12285D03*
%LNtop copper component 01dbd6e6fffea23b*%
D13*
X28175Y2500D03*
X31325Y2500D03*
%LNtop copper component 3f41ef9e9d047ec7*%
X5675Y10000D03*
X8825Y10000D03*
%LNtop copper component 86bc5d89f9f877d3*%
D12*
X7635Y14285D03*
X5735Y14285D03*
X6685Y12285D03*
M02*