%FSLAX33Y33*%
%MOMM*%
%AMRR-H1920000-W2520000-R960000-RO0.000*
21,1,0.6,1.92,0.,0.,360*
1,1,1.92,-0.3,0.*
1,1,1.92,0.3,0.*
1,1,1.92,0.3,-0.*
1,1,1.92,-0.3,0.*%
%AMRect-W1500000-H1500000-RO0.500*
21,1,1.5,1.5,0.,0.,270*%
%ADD10C,0.0508*%
%ADD11C,0.508*%
%ADD12R,1.65X1.65*%
%ADD13C,1.65*%
%ADD14R,1.92X2.52*%
%ADD15RR-H1920000-W2520000-R960000-RO0.000*%
%ADD16C,1.5*%
%ADD17Rect-W1500000-H1500000-RO0.500*%
D10*
%LNpour fill*%
G01*
X27000Y17000D02*
X27000Y17000D01*
X18500Y17000*
X16500Y15500*
X16500Y15500*
X0500Y15500*
X0500Y2000*
X16500Y2000*
X16500Y2000*
X18500Y0500*
X27000Y0500*
X27000Y17000*
X20825Y14071D02*
X20200Y14071D01*
X20200Y14326*
X19800Y14326*
X19800Y14071*
X19175Y14071*
X19143Y14073*
X19112Y14081*
X19082Y14093*
X19055Y14110*
X19031Y14131*
X19010Y14155*
X18993Y14182*
X18981Y14212*
X18973Y14243*
X18971Y14275*
X18971Y14900*
X19226Y14900*
X19226Y15300*
X18971Y15300*
X18971Y15925*
X18973Y15957*
X18981Y15988*
X18993Y16018*
X19010Y16045*
X19031Y16069*
X19055Y16090*
X19082Y16107*
X19112Y16119*
X19143Y16127*
X19175Y16129*
X19800Y16129*
X19800Y15874*
X20200Y15874*
X20200Y16129*
X20825Y16129*
X20857Y16127*
X20888Y16119*
X20918Y16107*
X20945Y16090*
X20969Y16069*
X20990Y16045*
X21007Y16018*
X21019Y15988*
X21027Y15957*
X21029Y15925*
X21029Y15300*
X20774Y15300*
X20774Y14900*
X21029Y14900*
X21029Y14275*
X21027Y14243*
X21019Y14212*
X21007Y14182*
X20990Y14155*
X20969Y14131*
X20945Y14110*
X20918Y14093*
X20888Y14081*
X20857Y14073*
X20825Y14071*
X23365Y14071D02*
X22740Y14071D01*
X22740Y14326*
X22340Y14326*
X22340Y14071*
X21715Y14071*
X21683Y14073*
X21652Y14081*
X21622Y14093*
X21595Y14110*
X21571Y14131*
X21550Y14155*
X21533Y14182*
X21521Y14212*
X21513Y14243*
X21511Y14275*
X21511Y14900*
X21766Y14900*
X21766Y15300*
X21511Y15300*
X21511Y15925*
X21513Y15957*
X21521Y15988*
X21533Y16018*
X21550Y16045*
X21571Y16069*
X21595Y16090*
X21622Y16107*
X21652Y16119*
X21683Y16127*
X21715Y16129*
X22340Y16129*
X22340Y15874*
X22740Y15874*
X22740Y16129*
X23365Y16129*
X23397Y16127*
X23428Y16119*
X23458Y16107*
X23485Y16090*
X23509Y16069*
X23530Y16045*
X23547Y16018*
X23559Y15988*
X23567Y15957*
X23569Y15925*
X23569Y15300*
X23314Y15300*
X23314Y14900*
X23569Y14900*
X23569Y14275*
X23567Y14243*
X23559Y14212*
X23547Y14182*
X23530Y14155*
X23509Y14131*
X23485Y14110*
X23458Y14093*
X23428Y14081*
X23397Y14073*
X23365Y14071*
X8650Y12587D02*
X8050Y12587D01*
X7848Y12604*
X7652Y12657*
X7468Y12743*
X7302Y12859*
X7159Y13002*
X7043Y13168*
X6957Y13352*
X6904Y13548*
X6887Y13750*
X6904Y13952*
X6957Y14148*
X7043Y14332*
X7159Y14498*
X7302Y14641*
X7468Y14757*
X7652Y14843*
X7848Y14896*
X8050Y14913*
X8650Y14913*
X8852Y14896*
X9048Y14843*
X9232Y14757*
X9398Y14641*
X9541Y14498*
X9657Y14332*
X9743Y14148*
X9796Y13952*
X9813Y13750*
X9796Y13548*
X9743Y13352*
X9657Y13168*
X9541Y13002*
X9398Y12859*
X9232Y12743*
X9048Y12657*
X8852Y12604*
X8650Y12587*
X3471Y12753D02*
X3229Y12753D01*
X2994Y12811*
X2780Y12924*
X2598Y13084*
X2461Y13283*
X2375Y13510*
X2346Y13750*
X2375Y13990*
X2461Y14217*
X2598Y14416*
X2780Y14576*
X2994Y14689*
X3229Y14747*
X3471Y14747*
X3706Y14689*
X3920Y14576*
X4102Y14416*
X4239Y14217*
X4325Y13990*
X4354Y13750*
X4325Y13510*
X4239Y13283*
X4102Y13084*
X3920Y12924*
X3706Y12811*
X3471Y12753*
X20124Y11538D02*
X19876Y11538D01*
X19635Y11598*
X19415Y11713*
X19230Y11878*
X19089Y12082*
X19001Y12314*
X18971Y12560*
X19001Y12806*
X19089Y13038*
X19230Y13242*
X19415Y13407*
X19635Y13522*
X19876Y13582*
X20124Y13582*
X20365Y13522*
X20585Y13407*
X20770Y13242*
X20911Y13038*
X20999Y12806*
X21029Y12560*
X20999Y12314*
X20911Y12082*
X20770Y11878*
X20585Y11713*
X20365Y11598*
X20124Y11538*
X22664Y11538D02*
X22416Y11538D01*
X22175Y11598*
X21955Y11713*
X21770Y11878*
X21629Y12082*
X21541Y12314*
X21511Y12560*
X21541Y12806*
X21629Y13038*
X21770Y13242*
X21955Y13407*
X22175Y13522*
X22416Y13582*
X22664Y13582*
X22905Y13522*
X23125Y13407*
X23310Y13242*
X23451Y13038*
X23539Y12806*
X23569Y12560*
X23539Y12314*
X23451Y12082*
X23310Y11878*
X23125Y11713*
X22905Y11598*
X22664Y11538*
X8650Y2587D02*
X8050Y2587D01*
X7848Y2604*
X7652Y2657*
X7468Y2743*
X7302Y2859*
X7159Y3002*
X7043Y3168*
X6957Y3352*
X6904Y3548*
X6887Y3750*
X6904Y3952*
X6957Y4148*
X7043Y4332*
X7159Y4498*
X7302Y4641*
X7468Y4757*
X7652Y4843*
X7848Y4896*
X8050Y4913*
X8650Y4913*
X8848Y4896*
X10201Y6249*
X10270Y6306*
X10350Y6348*
X10436Y6374*
X10525Y6383*
X11342Y6383*
X11342Y9475*
X11351Y9564*
X11377Y9650*
X11419Y9730*
X11476Y9799*
X12696Y11019*
X12696Y12075*
X12698Y12107*
X12706Y12138*
X12718Y12168*
X12735Y12195*
X12756Y12219*
X12780Y12240*
X12807Y12257*
X12837Y12269*
X12868Y12277*
X12900Y12279*
X14400Y12279*
X14432Y12277*
X14463Y12269*
X14493Y12257*
X14520Y12240*
X14544Y12219*
X14565Y12195*
X14582Y12168*
X14594Y12138*
X14602Y12107*
X14604Y12075*
X14604Y10575*
X14602Y10543*
X14594Y10512*
X14582Y10482*
X14565Y10455*
X14544Y10431*
X14520Y10410*
X14493Y10393*
X14463Y10381*
X14432Y10373*
X14400Y10371*
X13344Y10371*
X12258Y9285*
X12258Y6115*
X13290Y5083*
X15060Y5083*
X16037Y6060*
X16024Y6097*
X15996Y6325*
X16024Y6553*
X16105Y6768*
X16236Y6958*
X16408Y7110*
X16612Y7217*
X16835Y7272*
X17065Y7272*
X17288Y7217*
X17492Y7110*
X17664Y6958*
X17795Y6768*
X17876Y6553*
X17904Y6325*
X17876Y6097*
X17795Y5882*
X17664Y5692*
X17492Y5540*
X17288Y5433*
X17065Y5378*
X16835Y5378*
X16687Y5414*
X15574Y4301*
X15505Y4244*
X15425Y4202*
X15339Y4176*
X15250Y4167*
X13100Y4167*
X13011Y4176*
X12925Y4202*
X12845Y4244*
X12776Y4301*
X11610Y5467*
X10715Y5467*
X9625Y4377*
X9657Y4332*
X9743Y4148*
X9796Y3952*
X9813Y3750*
X9796Y3548*
X9743Y3352*
X9657Y3168*
X9541Y3002*
X9398Y2859*
X9232Y2743*
X9048Y2657*
X8852Y2604*
X8650Y2587*
X13765Y5378D02*
X13535Y5378D01*
X13312Y5433*
X13108Y5540*
X12936Y5692*
X12805Y5882*
X12724Y6097*
X12696Y6325*
X12724Y6553*
X12805Y6768*
X12936Y6958*
X13108Y7110*
X13312Y7217*
X13535Y7272*
X13765Y7272*
X13913Y7236*
X15042Y8365*
X15042Y10025*
X15051Y10114*
X15077Y10200*
X15119Y10280*
X15176Y10349*
X16013Y11186*
X15996Y11325*
X16024Y11553*
X16105Y11768*
X16236Y11958*
X16408Y12110*
X16612Y12217*
X16835Y12272*
X17065Y12272*
X17288Y12217*
X17492Y12110*
X17664Y11958*
X17795Y11768*
X17876Y11553*
X17904Y11325*
X17876Y11097*
X17795Y10882*
X17664Y10692*
X17492Y10540*
X17288Y10433*
X17065Y10378*
X16835Y10378*
X16612Y10433*
X16575Y10452*
X15958Y9835*
X15958Y9175*
X16062Y9156*
X16105Y9268*
X16236Y9458*
X16408Y9610*
X16612Y9717*
X16835Y9772*
X17065Y9772*
X17288Y9717*
X17492Y9610*
X17664Y9458*
X17795Y9268*
X17876Y9053*
X17904Y8825*
X17876Y8597*
X17863Y8560*
X18485Y7938*
X19075Y7938*
X19230Y8162*
X19415Y8327*
X19635Y8442*
X19876Y8502*
X20124Y8502*
X20365Y8442*
X20585Y8327*
X20770Y8162*
X20925Y7938*
X21615Y7938*
X21770Y8162*
X21955Y8327*
X22175Y8442*
X22416Y8502*
X22664Y8502*
X22905Y8442*
X23125Y8327*
X23310Y8162*
X23451Y7958*
X23539Y7726*
X23569Y7480*
X23539Y7234*
X23451Y7002*
X23310Y6798*
X23125Y6633*
X22905Y6518*
X22664Y6458*
X22416Y6458*
X22175Y6518*
X21955Y6633*
X21770Y6798*
X21615Y7022*
X20925Y7022*
X20770Y6798*
X20585Y6633*
X20365Y6518*
X20124Y6458*
X19876Y6458*
X19635Y6518*
X19415Y6633*
X19230Y6798*
X19075Y7022*
X18295Y7022*
X18206Y7031*
X18120Y7057*
X18040Y7099*
X17971Y7156*
X17213Y7914*
X17065Y7878*
X16835Y7878*
X16612Y7933*
X16408Y8040*
X16236Y8192*
X16105Y8382*
X16062Y8494*
X15958Y8475*
X15958Y8175*
X15949Y8086*
X15923Y8000*
X15881Y7920*
X15824Y7851*
X14563Y6590*
X14576Y6553*
X14604Y6325*
X14576Y6097*
X14495Y5882*
X14364Y5692*
X14192Y5540*
X13988Y5433*
X13765Y5378*
X20124Y8998D02*
X19876Y8998D01*
X19635Y9058*
X19415Y9173*
X19230Y9338*
X19089Y9542*
X19001Y9774*
X18971Y10020*
X19001Y10266*
X19089Y10498*
X19230Y10702*
X19415Y10867*
X19635Y10982*
X19876Y11042*
X20124Y11042*
X20365Y10982*
X20585Y10867*
X20770Y10702*
X20911Y10498*
X20999Y10266*
X21029Y10020*
X20999Y9774*
X20911Y9542*
X20770Y9338*
X20585Y9173*
X20365Y9058*
X20124Y8998*
X22664Y8998D02*
X22416Y8998D01*
X22175Y9058*
X21955Y9173*
X21770Y9338*
X21629Y9542*
X21541Y9774*
X21511Y10020*
X21541Y10266*
X21629Y10498*
X21770Y10702*
X21955Y10867*
X22175Y10982*
X22416Y11042*
X22664Y11042*
X22905Y10982*
X23125Y10867*
X23310Y10702*
X23451Y10498*
X23539Y10266*
X23569Y10020*
X23539Y9774*
X23451Y9542*
X23310Y9338*
X23125Y9173*
X22905Y9058*
X22664Y8998*
X4310Y7286D02*
X3452Y7286D01*
X3452Y7541*
X3248Y7541*
X3248Y7286*
X2390Y7286*
X2358Y7288*
X2327Y7296*
X2297Y7308*
X2270Y7325*
X2246Y7346*
X2225Y7370*
X2208Y7397*
X2196Y7427*
X2188Y7458*
X2186Y7490*
X2186Y8648*
X2441Y8648*
X2441Y8852*
X2186Y8852*
X2186Y10010*
X2188Y10042*
X2196Y10073*
X2208Y10103*
X2225Y10130*
X2246Y10154*
X2270Y10175*
X2297Y10192*
X2327Y10204*
X2358Y10212*
X2390Y10214*
X3248Y10214*
X3248Y9959*
X3452Y9959*
X3452Y10214*
X4310Y10214*
X4342Y10212*
X4373Y10204*
X4403Y10192*
X4430Y10175*
X4454Y10154*
X4475Y10130*
X4492Y10103*
X4504Y10073*
X4512Y10042*
X4514Y10010*
X4514Y8852*
X4259Y8852*
X4259Y8648*
X4514Y8648*
X4514Y7490*
X4512Y7458*
X4504Y7427*
X4492Y7397*
X4475Y7370*
X4454Y7346*
X4430Y7325*
X4403Y7308*
X4373Y7296*
X4342Y7288*
X4310Y7286*
X13765Y7878D02*
X13535Y7878D01*
X13312Y7933*
X13108Y8040*
X12936Y8192*
X12805Y8382*
X12724Y8597*
X12696Y8825*
X12724Y9053*
X12805Y9268*
X12936Y9458*
X13108Y9610*
X13312Y9717*
X13535Y9772*
X13765Y9772*
X13988Y9717*
X14192Y9610*
X14364Y9458*
X14495Y9268*
X14576Y9053*
X14604Y8825*
X14576Y8597*
X14495Y8382*
X14364Y8192*
X14192Y8040*
X13988Y7933*
X13765Y7878*
X8471Y7753D02*
X8229Y7753D01*
X7994Y7811*
X7780Y7924*
X7598Y8084*
X7461Y8283*
X7375Y8510*
X7346Y8750*
X7375Y8990*
X7461Y9217*
X7598Y9416*
X7780Y9576*
X7994Y9689*
X8229Y9747*
X8471Y9747*
X8706Y9689*
X8920Y9576*
X9102Y9416*
X9239Y9217*
X9325Y8990*
X9354Y8750*
X9325Y8510*
X9239Y8283*
X9102Y8084*
X8920Y7924*
X8706Y7811*
X8471Y7753*
X20124Y3918D02*
X19876Y3918D01*
X19635Y3978*
X19415Y4093*
X19230Y4258*
X19089Y4462*
X19001Y4694*
X18971Y4940*
X19001Y5186*
X19089Y5418*
X19230Y5622*
X19415Y5787*
X19635Y5902*
X19876Y5962*
X20124Y5962*
X20365Y5902*
X20585Y5787*
X20770Y5622*
X20911Y5418*
X20999Y5186*
X21029Y4940*
X20999Y4694*
X20911Y4462*
X20770Y4258*
X20585Y4093*
X20365Y3978*
X20124Y3918*
X22664Y3918D02*
X22416Y3918D01*
X22175Y3978*
X21955Y4093*
X21770Y4258*
X21629Y4462*
X21541Y4694*
X21511Y4940*
X21541Y5186*
X21629Y5418*
X21770Y5622*
X21955Y5787*
X22175Y5902*
X22416Y5962*
X22664Y5962*
X22905Y5902*
X23125Y5787*
X23310Y5622*
X23451Y5418*
X23539Y5186*
X23569Y4940*
X23539Y4694*
X23451Y4462*
X23310Y4258*
X23125Y4093*
X22905Y3978*
X22664Y3918*
X3471Y2753D02*
X3229Y2753D01*
X2994Y2811*
X2780Y2924*
X2598Y3084*
X2461Y3283*
X2375Y3510*
X2346Y3750*
X2375Y3990*
X2461Y4217*
X2598Y4416*
X2780Y4576*
X2994Y4689*
X3229Y4747*
X3471Y4747*
X3706Y4689*
X3920Y4576*
X4102Y4416*
X4239Y4217*
X4325Y3990*
X4354Y3750*
X4325Y3510*
X4239Y3283*
X4102Y3084*
X3920Y2924*
X3706Y2811*
X3471Y2753*
X20124Y1378D02*
X19876Y1378D01*
X19635Y1438*
X19415Y1553*
X19230Y1718*
X19089Y1922*
X19001Y2154*
X18971Y2400*
X19001Y2646*
X19089Y2878*
X19230Y3082*
X19415Y3247*
X19635Y3362*
X19876Y3422*
X20124Y3422*
X20365Y3362*
X20585Y3247*
X20770Y3082*
X20911Y2878*
X20999Y2646*
X21029Y2400*
X20999Y2154*
X20911Y1922*
X20770Y1718*
X20585Y1553*
X20365Y1438*
X20124Y1378*
X22664Y1378D02*
X22416Y1378D01*
X22175Y1438*
X21955Y1553*
X21770Y1718*
X21629Y1922*
X21541Y2154*
X21511Y2400*
X21541Y2646*
X21629Y2878*
X21770Y3082*
X21955Y3247*
X22175Y3362*
X22416Y3422*
X22664Y3422*
X22905Y3362*
X23125Y3247*
X23310Y3082*
X23451Y2878*
X23539Y2646*
X23569Y2400*
X23539Y2154*
X23451Y1922*
X23310Y1718*
X23125Y1553*
X22905Y1438*
X22664Y1378*
X18434Y0550D02*
X27000Y0550D01*
X18368Y0599D02*
X27000Y0599D01*
X18302Y0649D02*
X27000Y0649D01*
X18236Y0698D02*
X27000Y0698D01*
X18170Y0748D02*
X27000Y0748D01*
X18104Y0797D02*
X27000Y0797D01*
X18038Y0847D02*
X27000Y0847D01*
X17972Y0896D02*
X27000Y0896D01*
X17906Y0946D02*
X27000Y0946D01*
X17840Y0995D02*
X27000Y0995D01*
X17774Y1045D02*
X27000Y1045D01*
X17708Y1094D02*
X27000Y1094D01*
X17641Y1144D02*
X27000Y1144D01*
X17575Y1193D02*
X27000Y1193D01*
X17509Y1243D02*
X27000Y1243D01*
X17443Y1292D02*
X27000Y1292D01*
X17377Y1342D02*
X27000Y1342D01*
X17311Y1392D02*
X19821Y1392D01*
X20179Y1392D02*
X22361Y1392D01*
X22719Y1392D02*
X27000Y1392D01*
X17245Y1441D02*
X19628Y1441D01*
X20372Y1441D02*
X22168Y1441D01*
X22912Y1441D02*
X27000Y1441D01*
X17179Y1491D02*
X19534Y1491D01*
X20466Y1491D02*
X22074Y1491D01*
X23006Y1491D02*
X27000Y1491D01*
X17113Y1540D02*
X19439Y1540D01*
X20561Y1540D02*
X21979Y1540D01*
X23101Y1540D02*
X27000Y1540D01*
X17047Y1590D02*
X19374Y1590D01*
X20626Y1590D02*
X21914Y1590D01*
X23166Y1590D02*
X27000Y1590D01*
X16981Y1639D02*
X19318Y1639D01*
X20682Y1639D02*
X21858Y1639D01*
X23222Y1639D02*
X27000Y1639D01*
X16915Y1689D02*
X19262Y1689D01*
X20738Y1689D02*
X21802Y1689D01*
X23278Y1689D02*
X27000Y1689D01*
X16849Y1738D02*
X19215Y1738D01*
X20785Y1738D02*
X21755Y1738D01*
X23325Y1738D02*
X27000Y1738D01*
X16783Y1788D02*
X19181Y1788D01*
X20819Y1788D02*
X21721Y1788D01*
X23359Y1788D02*
X27000Y1788D01*
X16717Y1837D02*
X19147Y1837D01*
X20853Y1837D02*
X21687Y1837D01*
X23393Y1837D02*
X27000Y1837D01*
X16651Y1887D02*
X19112Y1887D01*
X20888Y1887D02*
X21652Y1887D01*
X23428Y1887D02*
X27000Y1887D01*
X16585Y1936D02*
X19083Y1936D01*
X20917Y1936D02*
X21623Y1936D01*
X23457Y1936D02*
X27000Y1936D01*
X16519Y1986D02*
X19064Y1986D01*
X20936Y1986D02*
X21604Y1986D01*
X23476Y1986D02*
X27000Y1986D01*
X0500Y2035D02*
X19045Y2035D01*
X20955Y2035D02*
X21585Y2035D01*
X23495Y2035D02*
X27000Y2035D01*
X0500Y2085D02*
X19027Y2085D01*
X20973Y2085D02*
X21567Y2085D01*
X23513Y2085D02*
X27000Y2085D01*
X0500Y2134D02*
X19008Y2134D01*
X20992Y2134D02*
X21548Y2134D01*
X23532Y2134D02*
X27000Y2134D01*
X0500Y2184D02*
X18997Y2184D01*
X21003Y2184D02*
X21537Y2184D01*
X23543Y2184D02*
X27000Y2184D01*
X0500Y2234D02*
X18991Y2234D01*
X21009Y2234D02*
X21531Y2234D01*
X23549Y2234D02*
X27000Y2234D01*
X0500Y2283D02*
X18985Y2283D01*
X21015Y2283D02*
X21525Y2283D01*
X23555Y2283D02*
X27000Y2283D01*
X0500Y2333D02*
X18979Y2333D01*
X21021Y2333D02*
X21519Y2333D01*
X23561Y2333D02*
X27000Y2333D01*
X0500Y2382D02*
X18973Y2382D01*
X21027Y2382D02*
X21513Y2382D01*
X23567Y2382D02*
X27000Y2382D01*
X0500Y2432D02*
X18974Y2432D01*
X21026Y2432D02*
X21514Y2432D01*
X23566Y2432D02*
X27000Y2432D01*
X0500Y2481D02*
X18980Y2481D01*
X21020Y2481D02*
X21520Y2481D01*
X23560Y2481D02*
X27000Y2481D01*
X0500Y2531D02*
X18986Y2531D01*
X21014Y2531D02*
X21526Y2531D01*
X23554Y2531D02*
X27000Y2531D01*
X0500Y2580D02*
X18992Y2580D01*
X21008Y2580D02*
X21532Y2580D01*
X23548Y2580D02*
X27000Y2580D01*
X0500Y2630D02*
X7753Y2630D01*
X8947Y2630D02*
X18998Y2630D01*
X21002Y2630D02*
X21538Y2630D01*
X23542Y2630D02*
X27000Y2630D01*
X0500Y2679D02*
X7604Y2679D01*
X9096Y2679D02*
X19013Y2679D01*
X20987Y2679D02*
X21553Y2679D01*
X23527Y2679D02*
X27000Y2679D01*
X0500Y2729D02*
X7497Y2729D01*
X9203Y2729D02*
X19032Y2729D01*
X20968Y2729D02*
X21572Y2729D01*
X23508Y2729D02*
X27000Y2729D01*
X0500Y2778D02*
X3125Y2778D01*
X3575Y2778D02*
X7417Y2778D01*
X9283Y2778D02*
X19051Y2778D01*
X20949Y2778D02*
X21591Y2778D01*
X23489Y2778D02*
X27000Y2778D01*
X0500Y2828D02*
X2961Y2828D01*
X3739Y2828D02*
X7346Y2828D01*
X9354Y2828D02*
X19069Y2828D01*
X20931Y2828D02*
X21609Y2828D01*
X23471Y2828D02*
X27000Y2828D01*
X0500Y2877D02*
X2867Y2877D01*
X3833Y2877D02*
X7283Y2877D01*
X9417Y2877D02*
X19088Y2877D01*
X20912Y2877D02*
X21628Y2877D01*
X23452Y2877D02*
X27000Y2877D01*
X0500Y2927D02*
X2775Y2927D01*
X3925Y2927D02*
X7234Y2927D01*
X9466Y2927D02*
X19122Y2927D01*
X20878Y2927D02*
X21662Y2927D01*
X23418Y2927D02*
X27000Y2927D01*
X0500Y2977D02*
X2719Y2977D01*
X3981Y2977D02*
X7184Y2977D01*
X9516Y2977D02*
X19156Y2977D01*
X20844Y2977D02*
X21696Y2977D01*
X23384Y2977D02*
X27000Y2977D01*
X0500Y3026D02*
X2663Y3026D01*
X4036Y3026D02*
X7142Y3026D01*
X9558Y3026D02*
X19190Y3026D01*
X20810Y3026D02*
X21730Y3026D01*
X23350Y3026D02*
X27000Y3026D01*
X0500Y3076D02*
X2608Y3076D01*
X4092Y3076D02*
X7107Y3076D01*
X9593Y3076D02*
X19225Y3076D01*
X20775Y3076D02*
X21765Y3076D01*
X23315Y3076D02*
X27000Y3076D01*
X0500Y3125D02*
X2570Y3125D01*
X4130Y3125D02*
X7073Y3125D01*
X9627Y3125D02*
X19277Y3125D01*
X20723Y3125D02*
X21817Y3125D01*
X23263Y3125D02*
X27000Y3125D01*
X0500Y3175D02*
X2536Y3175D01*
X4164Y3175D02*
X7039Y3175D01*
X9661Y3175D02*
X19333Y3175D01*
X20667Y3175D02*
X21873Y3175D01*
X23207Y3175D02*
X27000Y3175D01*
X0500Y3224D02*
X2501Y3224D01*
X4199Y3224D02*
X7016Y3224D01*
X9684Y3224D02*
X19389Y3224D01*
X20611Y3224D02*
X21929Y3224D01*
X23151Y3224D02*
X27000Y3224D01*
X0500Y3274D02*
X2467Y3274D01*
X4233Y3274D02*
X6993Y3274D01*
X9707Y3274D02*
X19466Y3274D01*
X20534Y3274D02*
X22006Y3274D01*
X23074Y3274D02*
X27000Y3274D01*
X0500Y3323D02*
X2445Y3323D01*
X4255Y3323D02*
X6970Y3323D01*
X9730Y3323D02*
X19560Y3323D01*
X20440Y3323D02*
X22100Y3323D01*
X22980Y3323D02*
X27000Y3323D01*
X0500Y3373D02*
X2427Y3373D01*
X4273Y3373D02*
X6951Y3373D01*
X9749Y3373D02*
X19676Y3373D01*
X20324Y3373D02*
X22216Y3373D01*
X22864Y3373D02*
X27000Y3373D01*
X0500Y3422D02*
X2408Y3422D01*
X4292Y3422D02*
X6938Y3422D01*
X9762Y3422D02*
X27000Y3422D01*
X0500Y3472D02*
X2389Y3472D01*
X4311Y3472D02*
X6925Y3472D01*
X9775Y3472D02*
X27000Y3472D01*
X0500Y3521D02*
X2373Y3521D01*
X4327Y3521D02*
X6911Y3521D01*
X9789Y3521D02*
X27000Y3521D01*
X0500Y3571D02*
X2367Y3571D01*
X4333Y3571D02*
X6902Y3571D01*
X9798Y3571D02*
X27000Y3571D01*
X0500Y3620D02*
X2361Y3620D01*
X4339Y3620D02*
X6898Y3620D01*
X9802Y3620D02*
X27000Y3620D01*
X0500Y3670D02*
X2355Y3670D01*
X4345Y3670D02*
X6894Y3670D01*
X9806Y3670D02*
X27000Y3670D01*
X0500Y3719D02*
X2349Y3719D01*
X4351Y3719D02*
X6889Y3719D01*
X9811Y3719D02*
X27000Y3719D01*
X0500Y3769D02*
X2348Y3769D01*
X4352Y3769D02*
X6888Y3769D01*
X9812Y3769D02*
X27000Y3769D01*
X0500Y3819D02*
X2354Y3819D01*
X4346Y3819D02*
X6893Y3819D01*
X9807Y3819D02*
X27000Y3819D01*
X0500Y3868D02*
X2360Y3868D01*
X4340Y3868D02*
X6897Y3868D01*
X9803Y3868D02*
X27000Y3868D01*
X0500Y3918D02*
X2366Y3918D01*
X4334Y3918D02*
X6901Y3918D01*
X9799Y3918D02*
X27000Y3918D01*
X0500Y3967D02*
X2372Y3967D01*
X4328Y3967D02*
X6908Y3967D01*
X9792Y3967D02*
X19677Y3967D01*
X20323Y3967D02*
X22217Y3967D01*
X22863Y3967D02*
X27000Y3967D01*
X0500Y4017D02*
X2385Y4017D01*
X4315Y4017D02*
X6922Y4017D01*
X9778Y4017D02*
X19560Y4017D01*
X20440Y4017D02*
X22100Y4017D01*
X22980Y4017D02*
X27000Y4017D01*
X0500Y4066D02*
X2403Y4066D01*
X4297Y4066D02*
X6935Y4066D01*
X9765Y4066D02*
X19466Y4066D01*
X20534Y4066D02*
X22006Y4066D01*
X23074Y4066D02*
X27000Y4066D01*
X0500Y4116D02*
X2422Y4116D01*
X4278Y4116D02*
X6948Y4116D01*
X9752Y4116D02*
X19389Y4116D01*
X20611Y4116D02*
X21929Y4116D01*
X23151Y4116D02*
X27000Y4116D01*
X0500Y4165D02*
X2441Y4165D01*
X4259Y4165D02*
X6965Y4165D01*
X9735Y4165D02*
X19333Y4165D01*
X20667Y4165D02*
X21873Y4165D01*
X23207Y4165D02*
X27000Y4165D01*
X0500Y4215D02*
X2460Y4215D01*
X4240Y4215D02*
X6988Y4215D01*
X9712Y4215D02*
X12900Y4215D01*
X15450Y4215D02*
X19278Y4215D01*
X20722Y4215D02*
X21818Y4215D01*
X23262Y4215D02*
X27000Y4215D01*
X0500Y4264D02*
X2493Y4264D01*
X4207Y4264D02*
X7011Y4264D01*
X9689Y4264D02*
X12820Y4264D01*
X15530Y4264D02*
X19225Y4264D01*
X20775Y4264D02*
X21765Y4264D01*
X23315Y4264D02*
X27000Y4264D01*
X0500Y4314D02*
X2528Y4314D01*
X4172Y4314D02*
X7034Y4314D01*
X9666Y4314D02*
X12763Y4314D01*
X15587Y4314D02*
X19190Y4314D01*
X20810Y4314D02*
X21730Y4314D01*
X23350Y4314D02*
X27000Y4314D01*
X0500Y4363D02*
X2562Y4363D01*
X4138Y4363D02*
X7065Y4363D01*
X9635Y4363D02*
X12713Y4363D01*
X15637Y4363D02*
X19156Y4363D01*
X20844Y4363D02*
X21696Y4363D01*
X23384Y4363D02*
X27000Y4363D01*
X0500Y4413D02*
X2596Y4413D01*
X4104Y4413D02*
X7099Y4413D01*
X9661Y4413D02*
X12664Y4413D01*
X15686Y4413D02*
X19122Y4413D01*
X20878Y4413D02*
X21662Y4413D01*
X23418Y4413D02*
X27000Y4413D01*
X0500Y4462D02*
X2650Y4462D01*
X4050Y4462D02*
X7134Y4462D01*
X9711Y4462D02*
X12614Y4462D01*
X15736Y4462D02*
X19088Y4462D01*
X20912Y4462D02*
X21628Y4462D01*
X23452Y4462D02*
X27000Y4462D01*
X0500Y4512D02*
X2706Y4512D01*
X3994Y4512D02*
X7173Y4512D01*
X9760Y4512D02*
X12565Y4512D01*
X15785Y4512D02*
X19069Y4512D01*
X20931Y4512D02*
X21609Y4512D01*
X23471Y4512D02*
X27000Y4512D01*
X0500Y4561D02*
X2762Y4561D01*
X3938Y4561D02*
X7222Y4561D01*
X9810Y4561D02*
X12515Y4561D01*
X15835Y4561D02*
X19051Y4561D01*
X20949Y4561D02*
X21591Y4561D01*
X23489Y4561D02*
X27000Y4561D01*
X0500Y4611D02*
X2845Y4611D01*
X3855Y4611D02*
X7272Y4611D01*
X9859Y4611D02*
X12466Y4611D01*
X15884Y4611D02*
X19032Y4611D01*
X20968Y4611D02*
X21572Y4611D01*
X23508Y4611D02*
X27000Y4611D01*
X0500Y4661D02*
X2939Y4661D01*
X3761Y4661D02*
X7330Y4661D01*
X9909Y4661D02*
X12416Y4661D01*
X15934Y4661D02*
X19013Y4661D01*
X20987Y4661D02*
X21553Y4661D01*
X23527Y4661D02*
X27000Y4661D01*
X0500Y4710D02*
X3078Y4710D01*
X3622Y4710D02*
X7400Y4710D01*
X9958Y4710D02*
X12367Y4710D01*
X15983Y4710D02*
X18998Y4710D01*
X21002Y4710D02*
X21538Y4710D01*
X23542Y4710D02*
X27000Y4710D01*
X0500Y4760D02*
X7473Y4760D01*
X10008Y4760D02*
X12317Y4760D01*
X16033Y4760D02*
X18992Y4760D01*
X21008Y4760D02*
X21532Y4760D01*
X23548Y4760D02*
X27000Y4760D01*
X0500Y4809D02*
X7579Y4809D01*
X10057Y4809D02*
X12268Y4809D01*
X16082Y4809D02*
X18986Y4809D01*
X21014Y4809D02*
X21526Y4809D01*
X23554Y4809D02*
X27000Y4809D01*
X0500Y4859D02*
X7709Y4859D01*
X10107Y4859D02*
X12218Y4859D01*
X16132Y4859D02*
X18980Y4859D01*
X21020Y4859D02*
X21520Y4859D01*
X23560Y4859D02*
X27000Y4859D01*
X0500Y4908D02*
X7990Y4908D01*
X8710Y4908D02*
X8860Y4908D01*
X10157Y4908D02*
X12168Y4908D01*
X16182Y4908D02*
X18974Y4908D01*
X21026Y4908D02*
X21514Y4908D01*
X23566Y4908D02*
X27000Y4908D01*
X0500Y4958D02*
X8909Y4958D01*
X10206Y4958D02*
X12119Y4958D01*
X16231Y4958D02*
X18973Y4958D01*
X21027Y4958D02*
X21513Y4958D01*
X23567Y4958D02*
X27000Y4958D01*
X0500Y5007D02*
X8959Y5007D01*
X10256Y5007D02*
X12069Y5007D01*
X16281Y5007D02*
X18979Y5007D01*
X21021Y5007D02*
X21519Y5007D01*
X23561Y5007D02*
X27000Y5007D01*
X0500Y5057D02*
X9008Y5057D01*
X10305Y5057D02*
X12020Y5057D01*
X16330Y5057D02*
X18985Y5057D01*
X21015Y5057D02*
X21525Y5057D01*
X23555Y5057D02*
X27000Y5057D01*
X0500Y5106D02*
X9058Y5106D01*
X10355Y5106D02*
X11970Y5106D01*
X13267Y5106D02*
X15083Y5106D01*
X16380Y5106D02*
X18991Y5106D01*
X21009Y5106D02*
X21531Y5106D01*
X23549Y5106D02*
X27000Y5106D01*
X0500Y5156D02*
X9107Y5156D01*
X10404Y5156D02*
X11921Y5156D01*
X13218Y5156D02*
X15132Y5156D01*
X16429Y5156D02*
X18997Y5156D01*
X21003Y5156D02*
X21537Y5156D01*
X23543Y5156D02*
X27000Y5156D01*
X0500Y5205D02*
X9157Y5205D01*
X10454Y5205D02*
X11871Y5205D01*
X13168Y5205D02*
X15182Y5205D01*
X16479Y5205D02*
X19008Y5205D01*
X20992Y5205D02*
X21548Y5205D01*
X23532Y5205D02*
X27000Y5205D01*
X0500Y5255D02*
X9207Y5255D01*
X10503Y5255D02*
X11822Y5255D01*
X13118Y5255D02*
X15232Y5255D01*
X16528Y5255D02*
X19026Y5255D01*
X20974Y5255D02*
X21566Y5255D01*
X23514Y5255D02*
X27000Y5255D01*
X0500Y5304D02*
X9256Y5304D01*
X10553Y5304D02*
X11772Y5304D01*
X13069Y5304D02*
X15281Y5304D01*
X16578Y5304D02*
X19045Y5304D01*
X20955Y5304D02*
X21585Y5304D01*
X23495Y5304D02*
X27000Y5304D01*
X0500Y5354D02*
X9306Y5354D01*
X10602Y5354D02*
X11723Y5354D01*
X13019Y5354D02*
X15331Y5354D01*
X16627Y5354D02*
X19064Y5354D01*
X20936Y5354D02*
X21604Y5354D01*
X23476Y5354D02*
X27000Y5354D01*
X0500Y5403D02*
X9355Y5403D01*
X10652Y5403D02*
X11673Y5403D01*
X12970Y5403D02*
X13430Y5403D01*
X13870Y5403D02*
X15380Y5403D01*
X16677Y5403D02*
X16730Y5403D01*
X17170Y5403D02*
X19083Y5403D01*
X20917Y5403D02*
X21623Y5403D01*
X23457Y5403D02*
X27000Y5403D01*
X0500Y5453D02*
X9405Y5453D01*
X10701Y5453D02*
X11624Y5453D01*
X12920Y5453D02*
X13273Y5453D01*
X14027Y5453D02*
X15430Y5453D01*
X17327Y5453D02*
X19112Y5453D01*
X20888Y5453D02*
X21652Y5453D01*
X23428Y5453D02*
X27000Y5453D01*
X0500Y5503D02*
X9454Y5503D01*
X12871Y5503D02*
X13178Y5503D01*
X14122Y5503D02*
X15479Y5503D01*
X17422Y5503D02*
X19147Y5503D01*
X20853Y5503D02*
X21687Y5503D01*
X23393Y5503D02*
X27000Y5503D01*
X0500Y5552D02*
X9504Y5552D01*
X12821Y5552D02*
X13094Y5552D01*
X14206Y5552D02*
X15529Y5552D01*
X17506Y5552D02*
X19181Y5552D01*
X20819Y5552D02*
X21721Y5552D01*
X23359Y5552D02*
X27000Y5552D01*
X0500Y5602D02*
X9553Y5602D01*
X12772Y5602D02*
X13038Y5602D01*
X14262Y5602D02*
X15578Y5602D01*
X17562Y5602D02*
X19215Y5602D01*
X20785Y5602D02*
X21755Y5602D01*
X23325Y5602D02*
X27000Y5602D01*
X0500Y5651D02*
X9603Y5651D01*
X12722Y5651D02*
X12982Y5651D01*
X14318Y5651D02*
X15628Y5651D01*
X17618Y5651D02*
X19262Y5651D01*
X20738Y5651D02*
X21802Y5651D01*
X23278Y5651D02*
X27000Y5651D01*
X0500Y5701D02*
X9652Y5701D01*
X12673Y5701D02*
X12930Y5701D01*
X14370Y5701D02*
X15677Y5701D01*
X17670Y5701D02*
X19317Y5701D01*
X20683Y5701D02*
X21857Y5701D01*
X23223Y5701D02*
X27000Y5701D01*
X0500Y5750D02*
X9702Y5750D01*
X12623Y5750D02*
X12895Y5750D01*
X14405Y5750D02*
X15727Y5750D01*
X17705Y5750D02*
X19373Y5750D01*
X20627Y5750D02*
X21913Y5750D01*
X23167Y5750D02*
X27000Y5750D01*
X0500Y5800D02*
X9751Y5800D01*
X12574Y5800D02*
X12861Y5800D01*
X14439Y5800D02*
X15776Y5800D01*
X17739Y5800D02*
X19439Y5800D01*
X20561Y5800D02*
X21979Y5800D01*
X23101Y5800D02*
X27000Y5800D01*
X0500Y5849D02*
X9801Y5849D01*
X12524Y5849D02*
X12827Y5849D01*
X14473Y5849D02*
X15826Y5849D01*
X17773Y5849D02*
X19533Y5849D01*
X20467Y5849D02*
X22073Y5849D01*
X23007Y5849D02*
X27000Y5849D01*
X0500Y5899D02*
X9850Y5899D01*
X12475Y5899D02*
X12798Y5899D01*
X14502Y5899D02*
X15875Y5899D01*
X17802Y5899D02*
X19628Y5899D01*
X20372Y5899D02*
X22168Y5899D01*
X22912Y5899D02*
X27000Y5899D01*
X0500Y5948D02*
X9900Y5948D01*
X12425Y5948D02*
X12780Y5948D01*
X14520Y5948D02*
X15925Y5948D01*
X17820Y5948D02*
X19821Y5948D01*
X20179Y5948D02*
X22361Y5948D01*
X22719Y5948D02*
X27000Y5948D01*
X0500Y5998D02*
X9949Y5998D01*
X12376Y5998D02*
X12761Y5998D01*
X14539Y5998D02*
X15974Y5998D01*
X17839Y5998D02*
X27000Y5998D01*
X0500Y6047D02*
X9999Y6047D01*
X12326Y6047D02*
X12742Y6047D01*
X14558Y6047D02*
X16024Y6047D01*
X17858Y6047D02*
X27000Y6047D01*
X0500Y6097D02*
X10049Y6097D01*
X12276Y6097D02*
X12723Y6097D01*
X14577Y6097D02*
X16023Y6097D01*
X17877Y6097D02*
X27000Y6097D01*
X0500Y6146D02*
X10098Y6146D01*
X12258Y6146D02*
X12717Y6146D01*
X14583Y6146D02*
X16017Y6146D01*
X17883Y6146D02*
X27000Y6146D01*
X0500Y6196D02*
X10148Y6196D01*
X12258Y6196D02*
X12711Y6196D01*
X14589Y6196D02*
X16011Y6196D01*
X17889Y6196D02*
X27000Y6196D01*
X0500Y6245D02*
X10197Y6245D01*
X12258Y6245D02*
X12705Y6245D01*
X14595Y6245D02*
X16005Y6245D01*
X17895Y6245D02*
X27000Y6245D01*
X0500Y6295D02*
X10257Y6295D01*
X12258Y6295D02*
X12699Y6295D01*
X14601Y6295D02*
X15999Y6295D01*
X17901Y6295D02*
X27000Y6295D01*
X0500Y6345D02*
X10342Y6345D01*
X12258Y6345D02*
X12698Y6345D01*
X14602Y6345D02*
X15998Y6345D01*
X17902Y6345D02*
X27000Y6345D01*
X0500Y6394D02*
X11342Y6394D01*
X12258Y6394D02*
X12704Y6394D01*
X14596Y6394D02*
X16004Y6394D01*
X17896Y6394D02*
X27000Y6394D01*
X0500Y6444D02*
X11342Y6444D01*
X12258Y6444D02*
X12710Y6444D01*
X14590Y6444D02*
X16010Y6444D01*
X17890Y6444D02*
X27000Y6444D01*
X0500Y6493D02*
X11342Y6493D01*
X12258Y6493D02*
X12716Y6493D01*
X14584Y6493D02*
X16016Y6493D01*
X17884Y6493D02*
X19734Y6493D01*
X20266Y6493D02*
X22274Y6493D01*
X22806Y6493D02*
X27000Y6493D01*
X0500Y6543D02*
X11342Y6543D01*
X12258Y6543D02*
X12722Y6543D01*
X14578Y6543D02*
X16022Y6543D01*
X17878Y6543D02*
X19587Y6543D01*
X20413Y6543D02*
X22127Y6543D01*
X22953Y6543D02*
X27000Y6543D01*
X0500Y6592D02*
X11342Y6592D01*
X12258Y6592D02*
X12738Y6592D01*
X14566Y6592D02*
X16038Y6592D01*
X17862Y6592D02*
X19493Y6592D01*
X20507Y6592D02*
X22033Y6592D01*
X23047Y6592D02*
X27000Y6592D01*
X0500Y6642D02*
X11342Y6642D01*
X12258Y6642D02*
X12757Y6642D01*
X14615Y6642D02*
X16057Y6642D01*
X17843Y6642D02*
X19405Y6642D01*
X20595Y6642D02*
X21945Y6642D01*
X23135Y6642D02*
X27000Y6642D01*
X0500Y6691D02*
X11342Y6691D01*
X12258Y6691D02*
X12776Y6691D01*
X14665Y6691D02*
X16076Y6691D01*
X17824Y6691D02*
X19349Y6691D01*
X20651Y6691D02*
X21889Y6691D01*
X23191Y6691D02*
X27000Y6691D01*
X0500Y6741D02*
X11342Y6741D01*
X12258Y6741D02*
X12794Y6741D01*
X14714Y6741D02*
X16094Y6741D01*
X17806Y6741D02*
X19293Y6741D01*
X20707Y6741D02*
X21833Y6741D01*
X23247Y6741D02*
X27000Y6741D01*
X0500Y6790D02*
X11342Y6790D01*
X12258Y6790D02*
X12820Y6790D01*
X14764Y6790D02*
X16120Y6790D01*
X17780Y6790D02*
X19237Y6790D01*
X20763Y6790D02*
X21777Y6790D01*
X23303Y6790D02*
X27000Y6790D01*
X0500Y6840D02*
X11342Y6840D01*
X12258Y6840D02*
X12854Y6840D01*
X14813Y6840D02*
X16154Y6840D01*
X17746Y6840D02*
X19200Y6840D01*
X20800Y6840D02*
X21740Y6840D01*
X23340Y6840D02*
X27000Y6840D01*
X0500Y6889D02*
X11342Y6889D01*
X12258Y6889D02*
X12888Y6889D01*
X14863Y6889D02*
X16188Y6889D01*
X17712Y6889D02*
X19166Y6889D01*
X20834Y6889D02*
X21706Y6889D01*
X23374Y6889D02*
X27000Y6889D01*
X0500Y6939D02*
X11342Y6939D01*
X12258Y6939D02*
X12922Y6939D01*
X14912Y6939D02*
X16222Y6939D01*
X17678Y6939D02*
X19132Y6939D01*
X20868Y6939D02*
X21672Y6939D01*
X23408Y6939D02*
X27000Y6939D01*
X0500Y6988D02*
X11342Y6988D01*
X12258Y6988D02*
X12970Y6988D01*
X14962Y6988D02*
X16270Y6988D01*
X17630Y6988D02*
X19098Y6988D01*
X20902Y6988D02*
X21638Y6988D01*
X23442Y6988D02*
X27000Y6988D01*
X0500Y7038D02*
X11342Y7038D01*
X12258Y7038D02*
X13026Y7038D01*
X15011Y7038D02*
X16326Y7038D01*
X17574Y7038D02*
X18180Y7038D01*
X23465Y7038D02*
X27000Y7038D01*
X0500Y7087D02*
X11342Y7087D01*
X12258Y7087D02*
X13082Y7087D01*
X15061Y7087D02*
X16382Y7087D01*
X17518Y7087D02*
X18061Y7087D01*
X23484Y7087D02*
X27000Y7087D01*
X0500Y7137D02*
X11342Y7137D01*
X12258Y7137D02*
X13158Y7137D01*
X15110Y7137D02*
X16458Y7137D01*
X17442Y7137D02*
X17994Y7137D01*
X23503Y7137D02*
X27000Y7137D01*
X0500Y7187D02*
X11342Y7187D01*
X12258Y7187D02*
X13253Y7187D01*
X15160Y7187D02*
X16553Y7187D01*
X17347Y7187D02*
X17940Y7187D01*
X23522Y7187D02*
X27000Y7187D01*
X0500Y7236D02*
X11342Y7236D01*
X12258Y7236D02*
X13387Y7236D01*
X15209Y7236D02*
X16687Y7236D01*
X17213Y7236D02*
X17891Y7236D01*
X23540Y7236D02*
X27000Y7236D01*
X0500Y7286D02*
X11342Y7286D01*
X12258Y7286D02*
X13962Y7286D01*
X15259Y7286D02*
X17841Y7286D01*
X23546Y7286D02*
X27000Y7286D01*
X0500Y7335D02*
X2257Y7335D01*
X3249Y7335D02*
X3451Y7335D01*
X4443Y7335D02*
X11342Y7335D01*
X12258Y7335D02*
X14012Y7335D01*
X15308Y7335D02*
X17792Y7335D01*
X23552Y7335D02*
X27000Y7335D01*
X0500Y7385D02*
X2215Y7385D01*
X3249Y7385D02*
X3451Y7385D01*
X4485Y7385D02*
X11342Y7385D01*
X12258Y7385D02*
X14061Y7385D01*
X15358Y7385D02*
X17742Y7385D01*
X23558Y7385D02*
X27000Y7385D01*
X0500Y7434D02*
X2194Y7434D01*
X3249Y7434D02*
X3451Y7434D01*
X4506Y7434D02*
X11342Y7434D01*
X12258Y7434D02*
X14111Y7434D01*
X15408Y7434D02*
X17692Y7434D01*
X23564Y7434D02*
X27000Y7434D01*
X0500Y7484D02*
X2186Y7484D01*
X3249Y7484D02*
X3451Y7484D01*
X4514Y7484D02*
X11342Y7484D01*
X12258Y7484D02*
X14160Y7484D01*
X15457Y7484D02*
X17643Y7484D01*
X23569Y7484D02*
X27000Y7484D01*
X0500Y7533D02*
X2186Y7533D01*
X3249Y7533D02*
X3451Y7533D01*
X4514Y7533D02*
X11342Y7533D01*
X12258Y7533D02*
X14210Y7533D01*
X15507Y7533D02*
X17593Y7533D01*
X23563Y7533D02*
X27000Y7533D01*
X0500Y7583D02*
X2186Y7583D01*
X4514Y7583D02*
X11342Y7583D01*
X12258Y7583D02*
X14259Y7583D01*
X15556Y7583D02*
X17544Y7583D01*
X23557Y7583D02*
X27000Y7583D01*
X0500Y7632D02*
X2186Y7632D01*
X4514Y7632D02*
X11342Y7632D01*
X12258Y7632D02*
X14309Y7632D01*
X15606Y7632D02*
X17494Y7632D01*
X23551Y7632D02*
X27000Y7632D01*
X0500Y7682D02*
X2186Y7682D01*
X4514Y7682D02*
X11342Y7682D01*
X12258Y7682D02*
X14358Y7682D01*
X15655Y7682D02*
X17445Y7682D01*
X23545Y7682D02*
X27000Y7682D01*
X0500Y7731D02*
X2186Y7731D01*
X4514Y7731D02*
X11342Y7731D01*
X12258Y7731D02*
X14408Y7731D01*
X15705Y7731D02*
X17395Y7731D01*
X23538Y7731D02*
X27000Y7731D01*
X0500Y7781D02*
X2186Y7781D01*
X4514Y7781D02*
X8115Y7781D01*
X8585Y7781D02*
X11342Y7781D01*
X12258Y7781D02*
X14458Y7781D01*
X15754Y7781D02*
X17346Y7781D01*
X23519Y7781D02*
X27000Y7781D01*
X0500Y7830D02*
X2186Y7830D01*
X4514Y7830D02*
X7956Y7830D01*
X8744Y7830D02*
X11342Y7830D01*
X12258Y7830D02*
X14507Y7830D01*
X15804Y7830D02*
X17296Y7830D01*
X23500Y7830D02*
X27000Y7830D01*
X0500Y7880D02*
X2186Y7880D01*
X4514Y7880D02*
X7862Y7880D01*
X8838Y7880D02*
X11342Y7880D01*
X12258Y7880D02*
X13525Y7880D01*
X13775Y7880D02*
X14557Y7880D01*
X15848Y7880D02*
X16825Y7880D01*
X17075Y7880D02*
X17247Y7880D01*
X23481Y7880D02*
X27000Y7880D01*
X0500Y7929D02*
X2186Y7929D01*
X4514Y7929D02*
X7772Y7929D01*
X8928Y7929D02*
X11342Y7929D01*
X12258Y7929D02*
X13324Y7929D01*
X13976Y7929D02*
X14606Y7929D01*
X15886Y7929D02*
X16624Y7929D01*
X23463Y7929D02*
X27000Y7929D01*
X0500Y7979D02*
X2186Y7979D01*
X4514Y7979D02*
X7717Y7979D01*
X8983Y7979D02*
X11342Y7979D01*
X12258Y7979D02*
X13223Y7979D01*
X14077Y7979D02*
X14656Y7979D01*
X15913Y7979D02*
X16523Y7979D01*
X18444Y7979D02*
X19103Y7979D01*
X20897Y7979D02*
X21643Y7979D01*
X23437Y7979D02*
X27000Y7979D01*
X0500Y8029D02*
X2186Y8029D01*
X4514Y8029D02*
X7661Y8029D01*
X9039Y8029D02*
X11342Y8029D01*
X12258Y8029D02*
X13129Y8029D01*
X14171Y8029D02*
X14705Y8029D01*
X15932Y8029D02*
X16429Y8029D01*
X18395Y8029D02*
X19137Y8029D01*
X20863Y8029D02*
X21677Y8029D01*
X23403Y8029D02*
X27000Y8029D01*
X0500Y8078D02*
X2186Y8078D01*
X4514Y8078D02*
X7605Y8078D01*
X9095Y8078D02*
X11342Y8078D01*
X12258Y8078D02*
X13064Y8078D01*
X14236Y8078D02*
X14755Y8078D01*
X15947Y8078D02*
X16364Y8078D01*
X18345Y8078D02*
X19171Y8078D01*
X20829Y8078D02*
X21711Y8078D01*
X23369Y8078D02*
X27000Y8078D01*
X0500Y8128D02*
X2186Y8128D01*
X4514Y8128D02*
X7568Y8128D01*
X9132Y8128D02*
X11342Y8128D01*
X12258Y8128D02*
X13008Y8128D01*
X14292Y8128D02*
X14804Y8128D01*
X15954Y8128D02*
X16308Y8128D01*
X18296Y8128D02*
X19205Y8128D01*
X20795Y8128D02*
X21745Y8128D01*
X23335Y8128D02*
X27000Y8128D01*
X0500Y8177D02*
X2186Y8177D01*
X4514Y8177D02*
X7534Y8177D01*
X9166Y8177D02*
X11342Y8177D01*
X12258Y8177D02*
X12952Y8177D01*
X14348Y8177D02*
X14854Y8177D01*
X15958Y8177D02*
X16252Y8177D01*
X18246Y8177D02*
X19246Y8177D01*
X20754Y8177D02*
X21786Y8177D01*
X23294Y8177D02*
X27000Y8177D01*
X0500Y8227D02*
X2186Y8227D01*
X4514Y8227D02*
X7500Y8227D01*
X9200Y8227D02*
X11342Y8227D01*
X12258Y8227D02*
X12912Y8227D01*
X14388Y8227D02*
X14903Y8227D01*
X15958Y8227D02*
X16212Y8227D01*
X18197Y8227D02*
X19302Y8227D01*
X20698Y8227D02*
X21842Y8227D01*
X23238Y8227D02*
X27000Y8227D01*
X0500Y8276D02*
X2186Y8276D01*
X4514Y8276D02*
X7465Y8276D01*
X9235Y8276D02*
X11342Y8276D01*
X12258Y8276D02*
X12878Y8276D01*
X14422Y8276D02*
X14953Y8276D01*
X15958Y8276D02*
X16178Y8276D01*
X18147Y8276D02*
X19358Y8276D01*
X20642Y8276D02*
X21898Y8276D01*
X23182Y8276D02*
X27000Y8276D01*
X0500Y8326D02*
X2186Y8326D01*
X4514Y8326D02*
X7444Y8326D01*
X9256Y8326D02*
X11342Y8326D01*
X12258Y8326D02*
X12843Y8326D01*
X14457Y8326D02*
X15002Y8326D01*
X15958Y8326D02*
X16143Y8326D01*
X18098Y8326D02*
X19414Y8326D01*
X20586Y8326D02*
X21954Y8326D01*
X23126Y8326D02*
X27000Y8326D01*
X0500Y8375D02*
X2186Y8375D01*
X4514Y8375D02*
X7426Y8375D01*
X9274Y8375D02*
X11342Y8375D01*
X12258Y8375D02*
X12809Y8375D01*
X14491Y8375D02*
X15042Y8375D01*
X15958Y8375D02*
X16109Y8375D01*
X18048Y8375D02*
X19507Y8375D01*
X20493Y8375D02*
X22047Y8375D01*
X23033Y8375D02*
X27000Y8375D01*
X0500Y8425D02*
X2186Y8425D01*
X4514Y8425D02*
X7407Y8425D01*
X9293Y8425D02*
X11342Y8425D01*
X12258Y8425D02*
X12788Y8425D01*
X14512Y8425D02*
X15042Y8425D01*
X15958Y8425D02*
X16088Y8425D01*
X17999Y8425D02*
X19601Y8425D01*
X20399Y8425D02*
X22141Y8425D01*
X22939Y8425D02*
X27000Y8425D01*
X0500Y8474D02*
X2186Y8474D01*
X4514Y8474D02*
X7388Y8474D01*
X9312Y8474D02*
X11342Y8474D01*
X12258Y8474D02*
X12770Y8474D01*
X14530Y8474D02*
X15042Y8474D01*
X15958Y8474D02*
X16070Y8474D01*
X17949Y8474D02*
X19764Y8474D01*
X20236Y8474D02*
X22304Y8474D01*
X22776Y8474D02*
X27000Y8474D01*
X0500Y8524D02*
X2186Y8524D01*
X4514Y8524D02*
X7373Y8524D01*
X9327Y8524D02*
X11342Y8524D01*
X12258Y8524D02*
X12751Y8524D01*
X14549Y8524D02*
X15042Y8524D01*
X17899Y8524D02*
X27000Y8524D01*
X0500Y8573D02*
X2186Y8573D01*
X4514Y8573D02*
X7367Y8573D01*
X9333Y8573D02*
X11342Y8573D01*
X12258Y8573D02*
X12732Y8573D01*
X14568Y8573D02*
X15042Y8573D01*
X17868Y8573D02*
X27000Y8573D01*
X0500Y8623D02*
X2186Y8623D01*
X4514Y8623D02*
X7361Y8623D01*
X9339Y8623D02*
X11342Y8623D01*
X12258Y8623D02*
X12720Y8623D01*
X14580Y8623D02*
X15042Y8623D01*
X17880Y8623D02*
X27000Y8623D01*
X0500Y8672D02*
X2441Y8672D01*
X4259Y8672D02*
X7355Y8672D01*
X9345Y8672D02*
X11342Y8672D01*
X12258Y8672D02*
X12714Y8672D01*
X14586Y8672D02*
X15042Y8672D01*
X17886Y8672D02*
X27000Y8672D01*
X0500Y8722D02*
X2441Y8722D01*
X4259Y8722D02*
X7349Y8722D01*
X9351Y8722D02*
X11342Y8722D01*
X12258Y8722D02*
X12708Y8722D01*
X14592Y8722D02*
X15042Y8722D01*
X17892Y8722D02*
X27000Y8722D01*
X0500Y8772D02*
X2441Y8772D01*
X4259Y8772D02*
X7348Y8772D01*
X9352Y8772D02*
X11342Y8772D01*
X12258Y8772D02*
X12702Y8772D01*
X14598Y8772D02*
X15042Y8772D01*
X17898Y8772D02*
X27000Y8772D01*
X0500Y8821D02*
X2441Y8821D01*
X4259Y8821D02*
X7354Y8821D01*
X9346Y8821D02*
X11342Y8821D01*
X12258Y8821D02*
X12696Y8821D01*
X14604Y8821D02*
X15042Y8821D01*
X17904Y8821D02*
X27000Y8821D01*
X0500Y8871D02*
X2186Y8871D01*
X4514Y8871D02*
X7360Y8871D01*
X9340Y8871D02*
X11342Y8871D01*
X12258Y8871D02*
X12701Y8871D01*
X14599Y8871D02*
X15042Y8871D01*
X17899Y8871D02*
X27000Y8871D01*
X0500Y8920D02*
X2186Y8920D01*
X4514Y8920D02*
X7366Y8920D01*
X9334Y8920D02*
X11342Y8920D01*
X12258Y8920D02*
X12707Y8920D01*
X14593Y8920D02*
X15042Y8920D01*
X17893Y8920D02*
X27000Y8920D01*
X0500Y8970D02*
X2186Y8970D01*
X4514Y8970D02*
X7372Y8970D01*
X9328Y8970D02*
X11342Y8970D01*
X12258Y8970D02*
X12713Y8970D01*
X14587Y8970D02*
X15042Y8970D01*
X17887Y8970D02*
X27000Y8970D01*
X0500Y9019D02*
X2186Y9019D01*
X4514Y9019D02*
X7386Y9019D01*
X9314Y9019D02*
X11342Y9019D01*
X12258Y9019D02*
X12719Y9019D01*
X14581Y9019D02*
X15042Y9019D01*
X17881Y9019D02*
X19790Y9019D01*
X20210Y9019D02*
X22330Y9019D01*
X22750Y9019D02*
X27000Y9019D01*
X0500Y9069D02*
X2186Y9069D01*
X4514Y9069D02*
X7404Y9069D01*
X9296Y9069D02*
X11342Y9069D01*
X12258Y9069D02*
X12729Y9069D01*
X14571Y9069D02*
X15042Y9069D01*
X17871Y9069D02*
X19614Y9069D01*
X20386Y9069D02*
X22154Y9069D01*
X22926Y9069D02*
X27000Y9069D01*
X0500Y9118D02*
X2186Y9118D01*
X4514Y9118D02*
X7423Y9118D01*
X9277Y9118D02*
X11342Y9118D01*
X12258Y9118D02*
X12748Y9118D01*
X14552Y9118D02*
X15042Y9118D01*
X17852Y9118D02*
X19519Y9118D01*
X20481Y9118D02*
X22059Y9118D01*
X23021Y9118D02*
X27000Y9118D01*
X0500Y9168D02*
X2186Y9168D01*
X4514Y9168D02*
X7442Y9168D01*
X9258Y9168D02*
X11342Y9168D01*
X12258Y9168D02*
X12767Y9168D01*
X14533Y9168D02*
X15042Y9168D01*
X15997Y9168D02*
X16067Y9168D01*
X17833Y9168D02*
X19425Y9168D01*
X20575Y9168D02*
X21965Y9168D01*
X23115Y9168D02*
X27000Y9168D01*
X0500Y9217D02*
X2186Y9217D01*
X4514Y9217D02*
X7461Y9217D01*
X9239Y9217D02*
X11342Y9217D01*
X12258Y9217D02*
X12785Y9217D01*
X14515Y9217D02*
X15042Y9217D01*
X15958Y9217D02*
X16085Y9217D01*
X17815Y9217D02*
X19365Y9217D01*
X20635Y9217D02*
X21905Y9217D01*
X23175Y9217D02*
X27000Y9217D01*
X0500Y9267D02*
X2186Y9267D01*
X4514Y9267D02*
X7495Y9267D01*
X9205Y9267D02*
X11342Y9267D01*
X12258Y9267D02*
X12804Y9267D01*
X14496Y9267D02*
X15042Y9267D01*
X15958Y9267D02*
X16104Y9267D01*
X17796Y9267D02*
X19309Y9267D01*
X20691Y9267D02*
X21849Y9267D01*
X23231Y9267D02*
X27000Y9267D01*
X0500Y9316D02*
X2186Y9316D01*
X4514Y9316D02*
X7529Y9316D01*
X9171Y9316D02*
X11342Y9316D01*
X12290Y9316D02*
X12838Y9316D01*
X14462Y9316D02*
X15042Y9316D01*
X15958Y9316D02*
X16138Y9316D01*
X17762Y9316D02*
X19253Y9316D01*
X20747Y9316D02*
X21793Y9316D01*
X23287Y9316D02*
X27000Y9316D01*
X0500Y9366D02*
X2186Y9366D01*
X4514Y9366D02*
X7563Y9366D01*
X9137Y9366D02*
X11342Y9366D01*
X12339Y9366D02*
X12872Y9366D01*
X14428Y9366D02*
X15042Y9366D01*
X15958Y9366D02*
X16172Y9366D01*
X17728Y9366D02*
X19210Y9366D01*
X20790Y9366D02*
X21750Y9366D01*
X23330Y9366D02*
X27000Y9366D01*
X0500Y9415D02*
X2186Y9415D01*
X4514Y9415D02*
X7598Y9415D01*
X9102Y9415D02*
X11342Y9415D01*
X12389Y9415D02*
X12906Y9415D01*
X14394Y9415D02*
X15042Y9415D01*
X15958Y9415D02*
X16206Y9415D01*
X17694Y9415D02*
X19176Y9415D01*
X20824Y9415D02*
X21716Y9415D01*
X23364Y9415D02*
X27000Y9415D01*
X0500Y9465D02*
X2186Y9465D01*
X4514Y9465D02*
X7653Y9465D01*
X9047Y9465D02*
X11342Y9465D01*
X12438Y9465D02*
X12943Y9465D01*
X14357Y9465D02*
X15042Y9465D01*
X15958Y9465D02*
X16243Y9465D01*
X17657Y9465D02*
X19141Y9465D01*
X20859Y9465D02*
X21681Y9465D01*
X23399Y9465D02*
X27000Y9465D01*
X0500Y9514D02*
X2186Y9514D01*
X4514Y9514D02*
X7709Y9514D01*
X8991Y9514D02*
X11345Y9514D01*
X12488Y9514D02*
X12999Y9514D01*
X14301Y9514D02*
X15042Y9514D01*
X15958Y9514D02*
X16299Y9514D01*
X17601Y9514D02*
X19107Y9514D01*
X20893Y9514D02*
X21647Y9514D01*
X23433Y9514D02*
X27000Y9514D01*
X0500Y9564D02*
X2186Y9564D01*
X4514Y9564D02*
X7765Y9564D01*
X8935Y9564D02*
X11350Y9564D01*
X12537Y9564D02*
X13055Y9564D01*
X14245Y9564D02*
X15042Y9564D01*
X15958Y9564D02*
X16355Y9564D01*
X17545Y9564D02*
X19080Y9564D01*
X20920Y9564D02*
X21620Y9564D01*
X23460Y9564D02*
X27000Y9564D01*
X0500Y9614D02*
X2186Y9614D01*
X4514Y9614D02*
X7850Y9614D01*
X8850Y9614D02*
X11365Y9614D01*
X12587Y9614D02*
X13114Y9614D01*
X14186Y9614D02*
X15042Y9614D01*
X15958Y9614D02*
X16414Y9614D01*
X17486Y9614D02*
X19061Y9614D01*
X20939Y9614D02*
X21601Y9614D01*
X23479Y9614D02*
X27000Y9614D01*
X0500Y9663D02*
X2186Y9663D01*
X4514Y9663D02*
X7944Y9663D01*
X8756Y9663D02*
X11383Y9663D01*
X12636Y9663D02*
X13208Y9663D01*
X14092Y9663D02*
X15042Y9663D01*
X15958Y9663D02*
X16508Y9663D01*
X17392Y9663D02*
X19042Y9663D01*
X20958Y9663D02*
X21582Y9663D01*
X23498Y9663D02*
X27000Y9663D01*
X0500Y9713D02*
X2186Y9713D01*
X4514Y9713D02*
X8089Y9713D01*
X8611Y9713D02*
X11410Y9713D01*
X12686Y9713D02*
X13302Y9713D01*
X13998Y9713D02*
X15042Y9713D01*
X15958Y9713D02*
X16602Y9713D01*
X17298Y9713D02*
X19024Y9713D01*
X20976Y9713D02*
X21564Y9713D01*
X23516Y9713D02*
X27000Y9713D01*
X0500Y9762D02*
X2186Y9762D01*
X4514Y9762D02*
X11445Y9762D01*
X12735Y9762D02*
X13493Y9762D01*
X13807Y9762D02*
X15042Y9762D01*
X15958Y9762D02*
X16793Y9762D01*
X17107Y9762D02*
X19005Y9762D01*
X20995Y9762D02*
X21545Y9762D01*
X23535Y9762D02*
X27000Y9762D01*
X0500Y9812D02*
X2186Y9812D01*
X4514Y9812D02*
X11488Y9812D01*
X12785Y9812D02*
X15042Y9812D01*
X15958Y9812D02*
X18996Y9812D01*
X21004Y9812D02*
X21536Y9812D01*
X23544Y9812D02*
X27000Y9812D01*
X0500Y9861D02*
X2186Y9861D01*
X4514Y9861D02*
X11538Y9861D01*
X12835Y9861D02*
X15042Y9861D01*
X15985Y9861D02*
X18990Y9861D01*
X21010Y9861D02*
X21530Y9861D01*
X23550Y9861D02*
X27000Y9861D01*
X0500Y9911D02*
X2186Y9911D01*
X4514Y9911D02*
X11587Y9911D01*
X12884Y9911D02*
X15042Y9911D01*
X16034Y9911D02*
X18984Y9911D01*
X21016Y9911D02*
X21524Y9911D01*
X23556Y9911D02*
X27000Y9911D01*
X0500Y9960D02*
X2186Y9960D01*
X3249Y9960D02*
X3451Y9960D01*
X4514Y9960D02*
X11637Y9960D01*
X12934Y9960D02*
X15042Y9960D01*
X16084Y9960D02*
X18978Y9960D01*
X21022Y9960D02*
X21518Y9960D01*
X23562Y9960D02*
X27000Y9960D01*
X0500Y10010D02*
X2186Y10010D01*
X3249Y10010D02*
X3451Y10010D01*
X4514Y10010D02*
X11686Y10010D01*
X12983Y10010D02*
X15042Y10010D01*
X16133Y10010D02*
X18972Y10010D01*
X21028Y10010D02*
X21512Y10010D01*
X23568Y10010D02*
X27000Y10010D01*
X0500Y10059D02*
X2192Y10059D01*
X3249Y10059D02*
X3451Y10059D01*
X4508Y10059D02*
X11736Y10059D01*
X13033Y10059D02*
X15045Y10059D01*
X16183Y10059D02*
X18975Y10059D01*
X21025Y10059D02*
X21515Y10059D01*
X23565Y10059D02*
X27000Y10059D01*
X0500Y10109D02*
X2212Y10109D01*
X3249Y10109D02*
X3451Y10109D01*
X4488Y10109D02*
X11785Y10109D01*
X13082Y10109D02*
X15050Y10109D01*
X16232Y10109D02*
X18981Y10109D01*
X21019Y10109D02*
X21521Y10109D01*
X23559Y10109D02*
X27000Y10109D01*
X0500Y10158D02*
X2250Y10158D01*
X3249Y10158D02*
X3451Y10158D01*
X4450Y10158D02*
X11835Y10158D01*
X13132Y10158D02*
X15064Y10158D01*
X16282Y10158D02*
X18987Y10158D01*
X21013Y10158D02*
X21527Y10158D01*
X23553Y10158D02*
X27000Y10158D01*
X0500Y10208D02*
X2341Y10208D01*
X3249Y10208D02*
X3451Y10208D01*
X4359Y10208D02*
X11885Y10208D01*
X13181Y10208D02*
X15080Y10208D01*
X16331Y10208D02*
X18993Y10208D01*
X21007Y10208D02*
X21533Y10208D01*
X23547Y10208D02*
X27000Y10208D01*
X0500Y10257D02*
X11934Y10257D01*
X13231Y10257D02*
X15107Y10257D01*
X16381Y10257D02*
X18999Y10257D01*
X21001Y10257D02*
X21539Y10257D01*
X23541Y10257D02*
X27000Y10257D01*
X0500Y10307D02*
X11984Y10307D01*
X13280Y10307D02*
X15141Y10307D01*
X16430Y10307D02*
X19016Y10307D01*
X20984Y10307D02*
X21556Y10307D01*
X23524Y10307D02*
X27000Y10307D01*
X0500Y10356D02*
X12033Y10356D01*
X13330Y10356D02*
X15183Y10356D01*
X16480Y10356D02*
X19035Y10356D01*
X20965Y10356D02*
X21575Y10356D01*
X23505Y10356D02*
X27000Y10356D01*
X0500Y10406D02*
X12083Y10406D01*
X14514Y10406D02*
X15233Y10406D01*
X16529Y10406D02*
X16719Y10406D01*
X17181Y10406D02*
X19053Y10406D01*
X20947Y10406D02*
X21593Y10406D01*
X23487Y10406D02*
X27000Y10406D01*
X0500Y10456D02*
X12132Y10456D01*
X14566Y10456D02*
X15282Y10456D01*
X17332Y10456D02*
X19072Y10456D01*
X20928Y10456D02*
X21612Y10456D01*
X23468Y10456D02*
X27000Y10456D01*
X0500Y10505D02*
X12182Y10505D01*
X14592Y10505D02*
X15332Y10505D01*
X17427Y10505D02*
X19093Y10505D01*
X20907Y10505D02*
X21633Y10505D01*
X23447Y10505D02*
X27000Y10505D01*
X0500Y10555D02*
X12231Y10555D01*
X14603Y10555D02*
X15381Y10555D01*
X17509Y10555D02*
X19127Y10555D01*
X20873Y10555D02*
X21667Y10555D01*
X23413Y10555D02*
X27000Y10555D01*
X0500Y10604D02*
X12281Y10604D01*
X14604Y10604D02*
X15431Y10604D01*
X17565Y10604D02*
X19161Y10604D01*
X20839Y10604D02*
X21701Y10604D01*
X23379Y10604D02*
X27000Y10604D01*
X0500Y10654D02*
X12330Y10654D01*
X14604Y10654D02*
X15480Y10654D01*
X17621Y10654D02*
X19196Y10654D01*
X20804Y10654D02*
X21736Y10654D01*
X23344Y10654D02*
X27000Y10654D01*
X0500Y10703D02*
X12380Y10703D01*
X14604Y10703D02*
X15530Y10703D01*
X17672Y10703D02*
X19230Y10703D01*
X20770Y10703D02*
X21770Y10703D01*
X23310Y10703D02*
X27000Y10703D01*
X0500Y10753D02*
X12429Y10753D01*
X14604Y10753D02*
X15579Y10753D01*
X17706Y10753D02*
X19286Y10753D01*
X20714Y10753D02*
X21826Y10753D01*
X23254Y10753D02*
X27000Y10753D01*
X0500Y10802D02*
X12479Y10802D01*
X14604Y10802D02*
X15629Y10802D01*
X17740Y10802D02*
X19342Y10802D01*
X20658Y10802D02*
X21882Y10802D01*
X23198Y10802D02*
X27000Y10802D01*
X0500Y10852D02*
X12528Y10852D01*
X14604Y10852D02*
X15678Y10852D01*
X17775Y10852D02*
X19398Y10852D01*
X20602Y10852D02*
X21938Y10852D01*
X23142Y10852D02*
X27000Y10852D01*
X0500Y10901D02*
X12578Y10901D01*
X14604Y10901D02*
X15728Y10901D01*
X17803Y10901D02*
X19480Y10901D01*
X20520Y10901D02*
X22020Y10901D01*
X23060Y10901D02*
X27000Y10901D01*
X0500Y10951D02*
X12627Y10951D01*
X14604Y10951D02*
X15777Y10951D01*
X17821Y10951D02*
X19574Y10951D01*
X20426Y10951D02*
X22114Y10951D01*
X22966Y10951D02*
X27000Y10951D01*
X0500Y11000D02*
X12677Y11000D01*
X14604Y11000D02*
X15827Y11000D01*
X17840Y11000D02*
X19707Y11000D01*
X20293Y11000D02*
X22247Y11000D01*
X22833Y11000D02*
X27000Y11000D01*
X0500Y11050D02*
X12696Y11050D01*
X14604Y11050D02*
X15877Y11050D01*
X17859Y11050D02*
X27000Y11050D01*
X0500Y11099D02*
X12696Y11099D01*
X14604Y11099D02*
X15926Y11099D01*
X17877Y11099D02*
X27000Y11099D01*
X0500Y11149D02*
X12696Y11149D01*
X14604Y11149D02*
X15976Y11149D01*
X17883Y11149D02*
X27000Y11149D01*
X0500Y11198D02*
X12696Y11198D01*
X14604Y11198D02*
X16011Y11198D01*
X17889Y11198D02*
X27000Y11198D01*
X0500Y11248D02*
X12696Y11248D01*
X14604Y11248D02*
X16005Y11248D01*
X17895Y11248D02*
X27000Y11248D01*
X0500Y11298D02*
X12696Y11298D01*
X14604Y11298D02*
X15999Y11298D01*
X17901Y11298D02*
X27000Y11298D01*
X0500Y11347D02*
X12696Y11347D01*
X14604Y11347D02*
X15998Y11347D01*
X17902Y11347D02*
X27000Y11347D01*
X0500Y11397D02*
X12696Y11397D01*
X14604Y11397D02*
X16004Y11397D01*
X17896Y11397D02*
X27000Y11397D01*
X0500Y11446D02*
X12696Y11446D01*
X14604Y11446D02*
X16010Y11446D01*
X17890Y11446D02*
X27000Y11446D01*
X0500Y11496D02*
X12696Y11496D01*
X14604Y11496D02*
X16016Y11496D01*
X17884Y11496D02*
X27000Y11496D01*
X0500Y11545D02*
X12696Y11545D01*
X14604Y11545D02*
X16022Y11545D01*
X17878Y11545D02*
X19847Y11545D01*
X20153Y11545D02*
X22387Y11545D01*
X22693Y11545D02*
X27000Y11545D01*
X0500Y11595D02*
X12696Y11595D01*
X14604Y11595D02*
X16039Y11595D01*
X17861Y11595D02*
X19646Y11595D01*
X20354Y11595D02*
X22186Y11595D01*
X22894Y11595D02*
X27000Y11595D01*
X0500Y11644D02*
X12696Y11644D01*
X14604Y11644D02*
X16058Y11644D01*
X17842Y11644D02*
X19546Y11644D01*
X20454Y11644D02*
X22086Y11644D01*
X22994Y11644D02*
X27000Y11644D01*
X0500Y11694D02*
X12696Y11694D01*
X14604Y11694D02*
X16077Y11694D01*
X17823Y11694D02*
X19451Y11694D01*
X20549Y11694D02*
X21991Y11694D01*
X23089Y11694D02*
X27000Y11694D01*
X0500Y11743D02*
X12696Y11743D01*
X14604Y11743D02*
X16095Y11743D01*
X17805Y11743D02*
X19381Y11743D01*
X20619Y11743D02*
X21921Y11743D01*
X23159Y11743D02*
X27000Y11743D01*
X0500Y11793D02*
X12696Y11793D01*
X14604Y11793D02*
X16122Y11793D01*
X17778Y11793D02*
X19325Y11793D01*
X20675Y11793D02*
X21865Y11793D01*
X23215Y11793D02*
X27000Y11793D01*
X0500Y11842D02*
X12696Y11842D01*
X14604Y11842D02*
X16156Y11842D01*
X17744Y11842D02*
X19269Y11842D01*
X20731Y11842D02*
X21809Y11842D01*
X23271Y11842D02*
X27000Y11842D01*
X0500Y11892D02*
X12696Y11892D01*
X14604Y11892D02*
X16190Y11892D01*
X17710Y11892D02*
X19219Y11892D01*
X20781Y11892D02*
X21759Y11892D01*
X23321Y11892D02*
X27000Y11892D01*
X0500Y11941D02*
X12696Y11941D01*
X14604Y11941D02*
X16224Y11941D01*
X17676Y11941D02*
X19185Y11941D01*
X20815Y11941D02*
X21725Y11941D01*
X23355Y11941D02*
X27000Y11941D01*
X0500Y11991D02*
X12696Y11991D01*
X14604Y11991D02*
X16273Y11991D01*
X17627Y11991D02*
X19151Y11991D01*
X20849Y11991D02*
X21691Y11991D01*
X23389Y11991D02*
X27000Y11991D01*
X0500Y12040D02*
X12696Y12040D01*
X14604Y12040D02*
X16329Y12040D01*
X17571Y12040D02*
X19117Y12040D01*
X20883Y12040D02*
X21657Y12040D01*
X23423Y12040D02*
X27000Y12040D01*
X0500Y12090D02*
X12697Y12090D01*
X14603Y12090D02*
X16385Y12090D01*
X17515Y12090D02*
X19085Y12090D01*
X20915Y12090D02*
X21625Y12090D01*
X23455Y12090D02*
X27000Y12090D01*
X0500Y12140D02*
X12706Y12140D01*
X14594Y12140D02*
X16463Y12140D01*
X17437Y12140D02*
X19066Y12140D01*
X20934Y12140D02*
X21606Y12140D01*
X23474Y12140D02*
X27000Y12140D01*
X0500Y12189D02*
X12731Y12189D01*
X14569Y12189D02*
X16558Y12189D01*
X17342Y12189D02*
X19048Y12189D01*
X20952Y12189D02*
X21588Y12189D01*
X23492Y12189D02*
X27000Y12189D01*
X0500Y12239D02*
X12778Y12239D01*
X14522Y12239D02*
X16697Y12239D01*
X17203Y12239D02*
X19029Y12239D01*
X20971Y12239D02*
X21569Y12239D01*
X23511Y12239D02*
X27000Y12239D01*
X0500Y12288D02*
X19010Y12288D01*
X20990Y12288D02*
X21550Y12288D01*
X23530Y12288D02*
X27000Y12288D01*
X0500Y12338D02*
X18998Y12338D01*
X21002Y12338D02*
X21538Y12338D01*
X23542Y12338D02*
X27000Y12338D01*
X0500Y12387D02*
X18992Y12387D01*
X21008Y12387D02*
X21532Y12387D01*
X23548Y12387D02*
X27000Y12387D01*
X0500Y12437D02*
X18986Y12437D01*
X21014Y12437D02*
X21526Y12437D01*
X23554Y12437D02*
X27000Y12437D01*
X0500Y12486D02*
X18979Y12486D01*
X21021Y12486D02*
X21519Y12486D01*
X23561Y12486D02*
X27000Y12486D01*
X0500Y12536D02*
X18973Y12536D01*
X21027Y12536D02*
X21513Y12536D01*
X23567Y12536D02*
X27000Y12536D01*
X0500Y12585D02*
X18974Y12585D01*
X21026Y12585D02*
X21514Y12585D01*
X23566Y12585D02*
X27000Y12585D01*
X0500Y12635D02*
X7734Y12635D01*
X8966Y12635D02*
X18980Y12635D01*
X21020Y12635D02*
X21520Y12635D01*
X23560Y12635D02*
X27000Y12635D01*
X0500Y12684D02*
X7593Y12684D01*
X9107Y12684D02*
X18986Y12684D01*
X21014Y12684D02*
X21526Y12684D01*
X23554Y12684D02*
X27000Y12684D01*
X0500Y12734D02*
X7487Y12734D01*
X9213Y12734D02*
X18992Y12734D01*
X21008Y12734D02*
X21532Y12734D01*
X23548Y12734D02*
X27000Y12734D01*
X0500Y12783D02*
X3105Y12783D01*
X3595Y12783D02*
X7410Y12783D01*
X9290Y12783D02*
X18998Y12783D01*
X21002Y12783D02*
X21538Y12783D01*
X23542Y12783D02*
X27000Y12783D01*
X0500Y12833D02*
X2952Y12833D01*
X3748Y12833D02*
X7339Y12833D01*
X9361Y12833D02*
X19011Y12833D01*
X20989Y12833D02*
X21551Y12833D01*
X23529Y12833D02*
X27000Y12833D01*
X0500Y12883D02*
X2857Y12883D01*
X3843Y12883D02*
X7278Y12883D01*
X9422Y12883D02*
X19029Y12883D01*
X20971Y12883D02*
X21569Y12883D01*
X23511Y12883D02*
X27000Y12883D01*
X0500Y12932D02*
X2770Y12932D01*
X3930Y12932D02*
X7229Y12932D01*
X9471Y12932D02*
X19048Y12932D01*
X20952Y12932D02*
X21588Y12932D01*
X23492Y12932D02*
X27000Y12932D01*
X0500Y12982D02*
X2714Y12982D01*
X3986Y12982D02*
X7179Y12982D01*
X9521Y12982D02*
X19067Y12982D01*
X20933Y12982D02*
X21607Y12982D01*
X23473Y12982D02*
X27000Y12982D01*
X0500Y13031D02*
X2658Y13031D01*
X4042Y13031D02*
X7138Y13031D01*
X9562Y13031D02*
X19086Y13031D01*
X20914Y13031D02*
X21626Y13031D01*
X23454Y13031D02*
X27000Y13031D01*
X0500Y13081D02*
X2602Y13081D01*
X4098Y13081D02*
X7104Y13081D01*
X9596Y13081D02*
X19118Y13081D01*
X20882Y13081D02*
X21658Y13081D01*
X23422Y13081D02*
X27000Y13081D01*
X0500Y13130D02*
X2566Y13130D01*
X4134Y13130D02*
X7069Y13130D01*
X9631Y13130D02*
X19152Y13130D01*
X20848Y13130D02*
X21692Y13130D01*
X23388Y13130D02*
X27000Y13130D01*
X0500Y13180D02*
X2532Y13180D01*
X4168Y13180D02*
X7037Y13180D01*
X9663Y13180D02*
X19186Y13180D01*
X20814Y13180D02*
X21726Y13180D01*
X23354Y13180D02*
X27000Y13180D01*
X0500Y13229D02*
X2498Y13229D01*
X4202Y13229D02*
X7014Y13229D01*
X9686Y13229D02*
X19220Y13229D01*
X20780Y13229D02*
X21760Y13229D01*
X23320Y13229D02*
X27000Y13229D01*
X0500Y13279D02*
X2464Y13279D01*
X4236Y13279D02*
X6991Y13279D01*
X9709Y13279D02*
X19270Y13279D01*
X20730Y13279D02*
X21810Y13279D01*
X23270Y13279D02*
X27000Y13279D01*
X0500Y13328D02*
X2444Y13328D01*
X4256Y13328D02*
X6968Y13328D01*
X9732Y13328D02*
X19326Y13328D01*
X20674Y13328D02*
X21866Y13328D01*
X23214Y13328D02*
X27000Y13328D01*
X0500Y13378D02*
X2425Y13378D01*
X4275Y13378D02*
X6950Y13378D01*
X9750Y13378D02*
X19382Y13378D01*
X20618Y13378D02*
X21922Y13378D01*
X23158Y13378D02*
X27000Y13378D01*
X0500Y13427D02*
X2406Y13427D01*
X4294Y13427D02*
X6937Y13427D01*
X9763Y13427D02*
X19454Y13427D01*
X20546Y13427D02*
X21994Y13427D01*
X23086Y13427D02*
X27000Y13427D01*
X0500Y13477D02*
X2387Y13477D01*
X4313Y13477D02*
X6923Y13477D01*
X9777Y13477D02*
X19548Y13477D01*
X20452Y13477D02*
X22088Y13477D01*
X22992Y13477D02*
X27000Y13477D01*
X0500Y13526D02*
X2373Y13526D01*
X4327Y13526D02*
X6910Y13526D01*
X9790Y13526D02*
X19650Y13526D01*
X20350Y13526D02*
X22190Y13526D01*
X22890Y13526D02*
X27000Y13526D01*
X0500Y13576D02*
X2367Y13576D01*
X4333Y13576D02*
X6902Y13576D01*
X9798Y13576D02*
X19851Y13576D01*
X20149Y13576D02*
X22391Y13576D01*
X22689Y13576D02*
X27000Y13576D01*
X0500Y13625D02*
X2361Y13625D01*
X4339Y13625D02*
X6897Y13625D01*
X9803Y13625D02*
X27000Y13625D01*
X0500Y13675D02*
X2355Y13675D01*
X4345Y13675D02*
X6893Y13675D01*
X9807Y13675D02*
X27000Y13675D01*
X0500Y13725D02*
X2349Y13725D01*
X4351Y13725D02*
X6889Y13725D01*
X9811Y13725D02*
X27000Y13725D01*
X0500Y13774D02*
X2348Y13774D01*
X4352Y13774D02*
X6889Y13774D01*
X9811Y13774D02*
X27000Y13774D01*
X0500Y13824D02*
X2354Y13824D01*
X4346Y13824D02*
X6893Y13824D01*
X9807Y13824D02*
X27000Y13824D01*
X0500Y13873D02*
X2360Y13873D01*
X4340Y13873D02*
X6897Y13873D01*
X9803Y13873D02*
X27000Y13873D01*
X0500Y13923D02*
X2367Y13923D01*
X4333Y13923D02*
X6902Y13923D01*
X9798Y13923D02*
X27000Y13923D01*
X0500Y13972D02*
X2373Y13972D01*
X4327Y13972D02*
X6910Y13972D01*
X9790Y13972D02*
X27000Y13972D01*
X0500Y14022D02*
X2387Y14022D01*
X4313Y14022D02*
X6923Y14022D01*
X9777Y14022D02*
X27000Y14022D01*
X0500Y14071D02*
X2405Y14071D01*
X4295Y14071D02*
X6936Y14071D01*
X9764Y14071D02*
X19166Y14071D01*
X19800Y14071D02*
X20200Y14071D01*
X20834Y14071D02*
X21706Y14071D01*
X22340Y14071D02*
X22740Y14071D01*
X23374Y14071D02*
X27000Y14071D01*
X0500Y14121D02*
X2424Y14121D01*
X4276Y14121D02*
X6949Y14121D01*
X9751Y14121D02*
X19042Y14121D01*
X19800Y14121D02*
X20200Y14121D01*
X20958Y14121D02*
X21582Y14121D01*
X22340Y14121D02*
X22740Y14121D01*
X23498Y14121D02*
X27000Y14121D01*
X0500Y14170D02*
X2443Y14170D01*
X4257Y14170D02*
X6967Y14170D01*
X9733Y14170D02*
X19000Y14170D01*
X19800Y14170D02*
X20200Y14170D01*
X21000Y14170D02*
X21540Y14170D01*
X22340Y14170D02*
X22740Y14170D01*
X23540Y14170D02*
X27000Y14170D01*
X0500Y14220D02*
X2463Y14220D01*
X4237Y14220D02*
X6990Y14220D01*
X9710Y14220D02*
X18979Y14220D01*
X19800Y14220D02*
X20200Y14220D01*
X21021Y14220D02*
X21519Y14220D01*
X22340Y14220D02*
X22740Y14220D01*
X23561Y14220D02*
X27000Y14220D01*
X0500Y14269D02*
X2497Y14269D01*
X4203Y14269D02*
X7013Y14269D01*
X9687Y14269D02*
X18971Y14269D01*
X19800Y14269D02*
X20200Y14269D01*
X21029Y14269D02*
X21511Y14269D01*
X22340Y14269D02*
X22740Y14269D01*
X23569Y14269D02*
X27000Y14269D01*
X0500Y14319D02*
X2531Y14319D01*
X4169Y14319D02*
X7036Y14319D01*
X9664Y14319D02*
X18971Y14319D01*
X19800Y14319D02*
X20200Y14319D01*
X21029Y14319D02*
X21511Y14319D01*
X22340Y14319D02*
X22740Y14319D01*
X23569Y14319D02*
X27000Y14319D01*
X0500Y14368D02*
X2565Y14368D01*
X4135Y14368D02*
X7068Y14368D01*
X9632Y14368D02*
X18971Y14368D01*
X21029Y14368D02*
X21511Y14368D01*
X23569Y14368D02*
X27000Y14368D01*
X0500Y14418D02*
X2600Y14418D01*
X4100Y14418D02*
X7103Y14418D01*
X9597Y14418D02*
X18971Y14418D01*
X21029Y14418D02*
X21511Y14418D01*
X23569Y14418D02*
X27000Y14418D01*
X0500Y14467D02*
X2656Y14467D01*
X4044Y14467D02*
X7137Y14467D01*
X9563Y14467D02*
X18971Y14467D01*
X21029Y14467D02*
X21511Y14467D01*
X23569Y14467D02*
X27000Y14467D01*
X0500Y14517D02*
X2712Y14517D01*
X3988Y14517D02*
X7178Y14517D01*
X9522Y14517D02*
X18971Y14517D01*
X21029Y14517D02*
X21511Y14517D01*
X23569Y14517D02*
X27000Y14517D01*
X0500Y14567D02*
X2768Y14567D01*
X3932Y14567D02*
X7227Y14567D01*
X9473Y14567D02*
X18971Y14567D01*
X21029Y14567D02*
X21511Y14567D01*
X23569Y14567D02*
X27000Y14567D01*
X0500Y14616D02*
X2854Y14616D01*
X3846Y14616D02*
X7277Y14616D01*
X9423Y14616D02*
X18971Y14616D01*
X21029Y14616D02*
X21511Y14616D01*
X23569Y14616D02*
X27000Y14616D01*
X0500Y14666D02*
X2949Y14666D01*
X3751Y14666D02*
X7337Y14666D01*
X9363Y14666D02*
X18971Y14666D01*
X21029Y14666D02*
X21511Y14666D01*
X23569Y14666D02*
X27000Y14666D01*
X0500Y14715D02*
X3099Y14715D01*
X3601Y14715D02*
X7408Y14715D01*
X9292Y14715D02*
X18971Y14715D01*
X21029Y14715D02*
X21511Y14715D01*
X23569Y14715D02*
X27000Y14715D01*
X0500Y14765D02*
X7483Y14765D01*
X9217Y14765D02*
X18971Y14765D01*
X21029Y14765D02*
X21511Y14765D01*
X23569Y14765D02*
X27000Y14765D01*
X0500Y14814D02*
X7590Y14814D01*
X9110Y14814D02*
X18971Y14814D01*
X21029Y14814D02*
X21511Y14814D01*
X23569Y14814D02*
X27000Y14814D01*
X0500Y14864D02*
X7728Y14864D01*
X8972Y14864D02*
X18971Y14864D01*
X21029Y14864D02*
X21511Y14864D01*
X23569Y14864D02*
X27000Y14864D01*
X0500Y14913D02*
X19226Y14913D01*
X20774Y14913D02*
X21766Y14913D01*
X23314Y14913D02*
X27000Y14913D01*
X0500Y14963D02*
X19226Y14963D01*
X20774Y14963D02*
X21766Y14963D01*
X23314Y14963D02*
X27000Y14963D01*
X0500Y15012D02*
X19226Y15012D01*
X20774Y15012D02*
X21766Y15012D01*
X23314Y15012D02*
X27000Y15012D01*
X0500Y15062D02*
X19226Y15062D01*
X20774Y15062D02*
X21766Y15062D01*
X23314Y15062D02*
X27000Y15062D01*
X0500Y15111D02*
X19226Y15111D01*
X20774Y15111D02*
X21766Y15111D01*
X23314Y15111D02*
X27000Y15111D01*
X0500Y15161D02*
X19226Y15161D01*
X20774Y15161D02*
X21766Y15161D01*
X23314Y15161D02*
X27000Y15161D01*
X0500Y15210D02*
X19226Y15210D01*
X20774Y15210D02*
X21766Y15210D01*
X23314Y15210D02*
X27000Y15210D01*
X0500Y15260D02*
X19226Y15260D01*
X20774Y15260D02*
X21766Y15260D01*
X23314Y15260D02*
X27000Y15260D01*
X0500Y15309D02*
X18971Y15309D01*
X21029Y15309D02*
X21511Y15309D01*
X23569Y15309D02*
X27000Y15309D01*
X0500Y15359D02*
X18971Y15359D01*
X21029Y15359D02*
X21511Y15359D01*
X23569Y15359D02*
X27000Y15359D01*
X0500Y15409D02*
X18971Y15409D01*
X21029Y15409D02*
X21511Y15409D01*
X23569Y15409D02*
X27000Y15409D01*
X0500Y15458D02*
X18971Y15458D01*
X21029Y15458D02*
X21511Y15458D01*
X23569Y15458D02*
X27000Y15458D01*
X16510Y15508D02*
X18971Y15508D01*
X21029Y15508D02*
X21511Y15508D01*
X23569Y15508D02*
X27000Y15508D01*
X16576Y15557D02*
X18971Y15557D01*
X21029Y15557D02*
X21511Y15557D01*
X23569Y15557D02*
X27000Y15557D01*
X16642Y15607D02*
X18971Y15607D01*
X21029Y15607D02*
X21511Y15607D01*
X23569Y15607D02*
X27000Y15607D01*
X16708Y15656D02*
X18971Y15656D01*
X21029Y15656D02*
X21511Y15656D01*
X23569Y15656D02*
X27000Y15656D01*
X16774Y15706D02*
X18971Y15706D01*
X21029Y15706D02*
X21511Y15706D01*
X23569Y15706D02*
X27000Y15706D01*
X16840Y15755D02*
X18971Y15755D01*
X21029Y15755D02*
X21511Y15755D01*
X23569Y15755D02*
X27000Y15755D01*
X16906Y15805D02*
X18971Y15805D01*
X21029Y15805D02*
X21511Y15805D01*
X23569Y15805D02*
X27000Y15805D01*
X16972Y15854D02*
X18971Y15854D01*
X21029Y15854D02*
X21511Y15854D01*
X23569Y15854D02*
X27000Y15854D01*
X17038Y15904D02*
X18971Y15904D01*
X19800Y15904D02*
X20200Y15904D01*
X21029Y15904D02*
X21511Y15904D01*
X22340Y15904D02*
X22740Y15904D01*
X23569Y15904D02*
X27000Y15904D01*
X17104Y15953D02*
X18973Y15953D01*
X19800Y15953D02*
X20200Y15953D01*
X21027Y15953D02*
X21513Y15953D01*
X22340Y15953D02*
X22740Y15953D01*
X23567Y15953D02*
X27000Y15953D01*
X17171Y16003D02*
X18987Y16003D01*
X19800Y16003D02*
X20200Y16003D01*
X21013Y16003D02*
X21527Y16003D01*
X22340Y16003D02*
X22740Y16003D01*
X23553Y16003D02*
X27000Y16003D01*
X17237Y16052D02*
X19016Y16052D01*
X19800Y16052D02*
X20200Y16052D01*
X20984Y16052D02*
X21556Y16052D01*
X22340Y16052D02*
X22740Y16052D01*
X23524Y16052D02*
X27000Y16052D01*
X17303Y16102D02*
X19074Y16102D01*
X19800Y16102D02*
X20200Y16102D01*
X20926Y16102D02*
X21614Y16102D01*
X22340Y16102D02*
X22740Y16102D01*
X23466Y16102D02*
X27000Y16102D01*
X17369Y16151D02*
X27000Y16151D01*
X17435Y16201D02*
X27000Y16201D01*
X17501Y16251D02*
X27000Y16251D01*
X17567Y16300D02*
X27000Y16300D01*
X17633Y16350D02*
X27000Y16350D01*
X17699Y16399D02*
X27000Y16399D01*
X17765Y16449D02*
X27000Y16449D01*
X17831Y16498D02*
X27000Y16498D01*
X17897Y16548D02*
X27000Y16548D01*
X17963Y16597D02*
X27000Y16597D01*
X18029Y16647D02*
X27000Y16647D01*
X18095Y16696D02*
X27000Y16696D01*
X18161Y16746D02*
X27000Y16746D01*
X18227Y16795D02*
X27000Y16795D01*
X18293Y16845D02*
X27000Y16845D01*
X18359Y16894D02*
X27000Y16894D01*
X18425Y16944D02*
X27000Y16944D01*
X18491Y16993D02*
X27000Y16993D01*
%LNbottom copper_traces*%
D11*
X11800Y5925D02*
X11800Y9475D01*
X8350Y3750D02*
X10525Y5925D01*
X16950Y8825D02*
X18295Y7480D01*
X10525Y5925D02*
X11800Y5925D01*
X16950Y6325D02*
X15250Y4625D01*
X13100Y4625D02*
X11800Y5925D01*
X15500Y10025D02*
X16800Y11325D01*
X13650Y6325D02*
X15500Y8175D01*
X15500Y10025*
X15250Y4625D02*
X13100Y4625D01*
X11800Y9475D02*
X13650Y11325D01*
X18295Y7480D02*
X22540Y7480D01*
%LNbottom copper component c2d88ae8127456ea*%
D12*
X22540Y15100D03*
D13*
X22540Y12560D03*
X22540Y10020D03*
X22540Y7480D03*
X22540Y4940D03*
X22540Y2400D03*
%LNbottom copper component c722fa041d0273cc*%
D14*
X3350Y8750D03*
D15*
X8350Y3750D03*
X8350Y13750D03*
%LNbottom copper component 6aa30f8fa41a1bc1*%
D12*
X20000Y15100D03*
D13*
X20000Y12560D03*
X20000Y10020D03*
X20000Y7480D03*
X20000Y4940D03*
X20000Y2400D03*
%LNbottom copper component a2ea2ed2c523916f*%
D16*
X13650Y8825D03*
X13650Y6325D03*
X16950Y6325D03*
X16950Y8825D03*
X16950Y11325D03*
D17*
X13650Y11325D03*
M02*