%FSLAX33Y33*%
%MOMM*%
%AMRR-H2630000-W1359999-R680000-RO0.000*
21,1,1.359999,1.270001,0.,0.,360*
1,1,1.359999,0.,0.6350005*
1,1,1.359999,0.,0.6350005*
1,1,1.359999,0.,-0.6350005*
1,1,1.359999,-0.,-0.6350005*%
%ADD10C,0.508*%
%ADD11C,1.49*%
%ADD12C,1.49*%
%ADD13RR-H2630000-W1359999-R680000-RO0.000*%
%ADD14C,1.49*%
D10*
%LNtop copper_traces*%
G01*
X29900Y13815D02*
X25070Y18645D01*
X19359Y19286D02*
X20000Y18645D01*
X13500Y6695D02*
X13500Y9620D01*
X25070Y18645D02*
X23960Y18645D01*
X11360Y6369D02*
X10000Y7729D01*
X10000Y12000D02*
X11815Y13815D01*
X22400Y6555D02*
X20000Y4155D01*
X20629Y24460D02*
X20629Y20781D01*
X21450Y10435D02*
X20000Y8985D01*
X25004Y13815D02*
X23960Y13815D01*
X28640Y5099D02*
X24904Y5099D01*
X28640Y7639D02*
X25306Y7639D01*
X13500Y9620D02*
X11671Y11449D01*
X31180Y8909D02*
X29900Y10189D01*
X16040Y4155D02*
X13500Y6695D01*
X23169Y24460D02*
X23169Y20729D01*
X22400Y19960*
X8611Y15300D02*
X13330Y15300D01*
X24904Y5099D02*
X23960Y4155D01*
X21450Y19960D02*
X21450Y10435D01*
X18089Y15726D02*
X20000Y13815D01*
X7300Y9159D02*
X7300Y13989D01*
X19359Y27000D02*
X19359Y19286D01*
X20629Y20781D02*
X21450Y19960D01*
X25306Y7639D02*
X23960Y8985D01*
X10000Y7729D02*
X10000Y12000D01*
X7300Y13989D02*
X8611Y15300D01*
X22400Y19960D02*
X22400Y6555D01*
X28640Y10179D02*
X25004Y13815D01*
X13330Y15300D02*
X16040Y18010D01*
X8820Y7639D02*
X7300Y9159D01*
X11815Y13815D02*
X16040Y13815D01*
X18089Y24460D02*
X18089Y15726D01*
X29900Y10189D02*
X29900Y13815D01*
%LNtop copper component 528083829f38ff3a*%
D11*
X11360Y11449D03*
X11360Y8909D03*
X11360Y6369D03*
X11360Y3829D03*
X8820Y5099D03*
X8820Y7639D03*
X8820Y10179D03*
X8820Y12719D03*
%LNtop copper component e80d9c547b7992d0*%
D12*
X28640Y5099D03*
X28640Y7639D03*
X28640Y10179D03*
X28640Y12719D03*
X31180Y11449D03*
X31180Y8909D03*
X31180Y6369D03*
X31180Y3829D03*
%LNtop copper component 022b9f9361636321*%
D13*
X16040Y4155D03*
X20000Y4155D03*
X23960Y4155D03*
X16040Y8985D03*
X20000Y8985D03*
X23960Y8985D03*
X16040Y13815D03*
X20000Y13815D03*
X23960Y13815D03*
X16040Y18645D03*
X20000Y18645D03*
X23960Y18645D03*
%LNtop copper component 54b5fff6b965416f*%
D14*
X23169Y24460D03*
X20629Y24460D03*
X18089Y24460D03*
X15549Y24460D03*
X16819Y27000D03*
X19359Y27000D03*
X21899Y27000D03*
X24439Y27000D03*
M02*