%FSLAX33Y33*%
%MOMM*%
%AMRR-H5000000-W10000000-R2500000-RO0.000*
21,1,5.,5.,0.,0.,360*
1,1,5.,-2.5,0.*
1,1,5.,2.5,0.*
1,1,5.,2.5,-0.*
1,1,5.,-2.5,0.*%
%AMRR-H2029999-W760000-R380000-RO0.000*
21,1,0.76,1.269999,0.,0.,360*
1,1,0.76,0.,0.6349995*
1,1,0.76,0.,0.6349995*
1,1,0.76,0.,-0.6349995*
1,1,0.76,-0.,-0.6349995*%
%ADD10C,4.5*%
%ADD11RR-H5000000-W10000000-R2500000-RO0.000*%
%ADD12C,0.89*%
%ADD13C,3.25*%
%ADD14C,0.89*%
%ADD15C,3.25*%
%ADD16RR-H2029999-W760000-R380000-RO0.000*%
%ADD17C,0.89*%
%ADD18C,3.25*%
D10*
%LNhole_traces*%
G01*
X7279Y26900D03*
X32709Y26900D03*
D11*
X6710Y19874D03*
X33210Y19874D03*
%LNhole component 528083829f38ff3a*%
D12*
X11360Y11449D03*
X11360Y8909D03*
X11360Y6369D03*
X11360Y3829D03*
X8820Y5099D03*
X8820Y7639D03*
X8820Y10179D03*
X8820Y12719D03*
D13*
X2470Y13989D03*
X2470Y2559D03*
%LNhole component e80d9c547b7992d0*%
D14*
X28640Y5099D03*
X28640Y7639D03*
X28640Y10179D03*
X28640Y12719D03*
X31180Y11449D03*
X31180Y8909D03*
X31180Y6369D03*
X31180Y3829D03*
D15*
X37530Y2559D03*
X37530Y13989D03*
%LNhole component 022b9f9361636321*%
D16*
X16040Y4155D03*
X20000Y4155D03*
X23960Y4155D03*
X16040Y8985D03*
X20000Y8985D03*
X23960Y8985D03*
X16040Y13815D03*
X20000Y13815D03*
X23960Y13815D03*
X16040Y18645D03*
X20000Y18645D03*
X23960Y18645D03*
%LNhole component 54b5fff6b965416f*%
D17*
X23169Y24460D03*
X20629Y24460D03*
X18089Y24460D03*
X15549Y24460D03*
X16819Y27000D03*
X19359Y27000D03*
X21899Y27000D03*
X24439Y27000D03*
D18*
X25709Y33350D03*
X14279Y33350D03*
M02*