%FSLAX33Y33*%
%MOMM*%
%ADD10C,0.15*%
%ADD11C,0.5*%
%ADD12C,0.5*%
D10*
%LNtop silkscreen_traces*%
%LNtop silkscreen component 8278d696741b52da*%
G01*
X6000Y9600D02*
X6000Y13400D01*
X46000Y13400*
X46000Y9600*
X6000Y9600*
D11*
X5375Y11800D03*
G36*
X3579Y10178D02*
X3664Y10190D01*
X3667Y10152D01*
X3674Y10121D01*
X3683Y10096D01*
X3695Y10078D01*
X3710Y10064D01*
X3728Y10055D01*
X3748Y10049D01*
X3771Y10047D01*
X3788Y10048D01*
X3804Y10051D01*
X3819Y10056D01*
X3832Y10064D01*
X3844Y10073D01*
X3854Y10083D01*
X3862Y10095D01*
X3868Y10108D01*
X3872Y10124D01*
X3875Y10144D01*
X3877Y10169D01*
X3878Y10198D01*
X3878Y10691D01*
X3972Y10691D01*
X3972Y10203D01*
X3971Y10161D01*
X3967Y10123D01*
X3960Y10091D01*
X3951Y10064D01*
X3938Y10041D01*
X3923Y10020D01*
X3904Y10003D01*
X3882Y9989D01*
X3857Y9977D01*
X3831Y9969D01*
X3802Y9964D01*
X3771Y9963D01*
X3727Y9966D01*
X3688Y9976D01*
X3655Y9993D01*
X3627Y10017D01*
X3605Y10047D01*
X3590Y10084D01*
X3581Y10128D01*
X3579Y10178D01*
X3579Y10178D01*
X4423Y9975D02*
X4335Y9975D01*
X4335Y10535D01*
X4318Y10520D01*
X4298Y10505D01*
X4276Y10490D01*
X4251Y10475D01*
X4226Y10460D01*
X4203Y10448D01*
X4180Y10438D01*
X4159Y10429D01*
X4159Y10514D01*
X4195Y10532D01*
X4228Y10552D01*
X4259Y10574D01*
X4288Y10598D01*
X4313Y10623D01*
X4335Y10647D01*
X4352Y10670D01*
X4366Y10694D01*
X4423Y10694D01*
X4423Y9975D01*
X4423Y9975D01*
X4648Y10162D02*
X4740Y10170D01*
X4747Y10139D01*
X4757Y10111D01*
X4771Y10088D01*
X4788Y10069D01*
X4807Y10054D01*
X4829Y10044D01*
X4852Y10037D01*
X4878Y10035D01*
X4908Y10038D01*
X4936Y10047D01*
X4962Y10062D01*
X4985Y10083D01*
X5004Y10109D01*
X5018Y10139D01*
X5026Y10172D01*
X5029Y10210D01*
X5026Y10245D01*
X5018Y10277D01*
X5005Y10305D01*
X4987Y10329D01*
X4964Y10348D01*
X4938Y10361D01*
X4909Y10369D01*
X4876Y10372D01*
X4855Y10371D01*
X4836Y10367D01*
X4817Y10361D01*
X4800Y10353D01*
X4783Y10342D01*
X4769Y10331D01*
X4757Y10317D01*
X4746Y10303D01*
X4663Y10313D01*
X4733Y10681D01*
X5089Y10681D01*
X5089Y10597D01*
X4803Y10597D01*
X4764Y10405D01*
X4797Y10424D01*
X4830Y10438D01*
X4865Y10447D01*
X4900Y10450D01*
X4945Y10446D01*
X4986Y10433D01*
X5024Y10413D01*
X5058Y10385D01*
X5086Y10350D01*
X5106Y10310D01*
X5118Y10266D01*
X5122Y10218D01*
X5119Y10171D01*
X5108Y10127D01*
X5090Y10087D01*
X5066Y10050D01*
X5028Y10012D01*
X4984Y9985D01*
X4934Y9968D01*
X4878Y9963D01*
X4831Y9966D01*
X4789Y9976D01*
X4751Y9994D01*
X4718Y10017D01*
X4691Y10047D01*
X4670Y10081D01*
X4655Y10120D01*
X4648Y10162D01*
X4648Y10162D01*
G37*
%LNtop silkscreen component 08ce969612039e64*%
D10*
X54000Y43400D02*
X54000Y39600D01*
X31500Y39600*
X31500Y43400*
X54000Y43400*
D12*
X54625Y41200D03*
G36*
X54829Y40178D02*
X54914Y40190D01*
X54917Y40152D01*
X54924Y40121D01*
X54933Y40096D01*
X54945Y40078D01*
X54960Y40064D01*
X54978Y40055D01*
X54998Y40049D01*
X55021Y40047D01*
X55038Y40048D01*
X55054Y40051D01*
X55069Y40056D01*
X55082Y40064D01*
X55094Y40073D01*
X55104Y40083D01*
X55112Y40095D01*
X55118Y40108D01*
X55122Y40124D01*
X55125Y40144D01*
X55127Y40169D01*
X55128Y40198D01*
X55128Y40691D01*
X55222Y40691D01*
X55222Y40203D01*
X55221Y40161D01*
X55217Y40123D01*
X55210Y40091D01*
X55201Y40064D01*
X55188Y40041D01*
X55173Y40020D01*
X55154Y40003D01*
X55132Y39989D01*
X55107Y39977D01*
X55081Y39969D01*
X55052Y39964D01*
X55021Y39963D01*
X54977Y39966D01*
X54938Y39976D01*
X54905Y39993D01*
X54877Y40017D01*
X54855Y40047D01*
X54840Y40084D01*
X54831Y40128D01*
X54829Y40178D01*
X54829Y40178D01*
X55477Y40363D02*
X55506Y40308D01*
X55493Y40302D01*
X55472Y40284D01*
X55454Y40262D01*
X55441Y40238D01*
X55433Y40211D01*
X55431Y40182D01*
X55431Y40182D01*
X55432Y40163D01*
X55435Y40145D01*
X55441Y40127D01*
X55449Y40109D01*
X55459Y40092D01*
X55471Y40078D01*
X55485Y40065D01*
X55502Y40054D01*
X55520Y40046D01*
X55538Y40040D01*
X55557Y40036D01*
X55577Y40035D01*
X55607Y40038D01*
X55635Y40045D01*
X55659Y40058D01*
X55681Y40076D01*
X55699Y40097D01*
X55712Y40122D01*
X55720Y40149D01*
X55722Y40179D01*
X55720Y40209D01*
X55712Y40237D01*
X55699Y40261D01*
X55680Y40284D01*
X55658Y40302D01*
X55633Y40315D01*
X55605Y40323D01*
X55574Y40325D01*
X55545Y40323D01*
X55518Y40315D01*
X55506Y40308D01*
X55477Y40363D01*
X55510Y40415D01*
X55530Y40405D01*
X55552Y40399D01*
X55577Y40397D01*
X55601Y40399D01*
X55623Y40405D01*
X55643Y40415D01*
X55660Y40429D01*
X55674Y40446D01*
X55684Y40464D01*
X55691Y40485D01*
X55693Y40507D01*
X55691Y40530D01*
X55684Y40552D01*
X55674Y40571D01*
X55659Y40589D01*
X55641Y40603D01*
X55622Y40613D01*
X55600Y40619D01*
X55576Y40621D01*
X55552Y40619D01*
X55530Y40613D01*
X55510Y40603D01*
X55492Y40589D01*
X55478Y40572D01*
X55468Y40554D01*
X55461Y40534D01*
X55459Y40512D01*
X55459Y40512D01*
X55461Y40488D01*
X55467Y40466D01*
X55478Y40446D01*
X55492Y40429D01*
X55510Y40415D01*
X55477Y40363D01*
X55451Y40374D01*
X55429Y40387D01*
X55411Y40403D01*
X55396Y40420D01*
X55384Y40440D01*
X55376Y40461D01*
X55371Y40484D01*
X55369Y40509D01*
X55373Y40547D01*
X55383Y40581D01*
X55401Y40612D01*
X55426Y40641D01*
X55456Y40664D01*
X55491Y40680D01*
X55531Y40690D01*
X55575Y40694D01*
X55620Y40690D01*
X55660Y40680D01*
X55695Y40663D01*
X55726Y40639D01*
X55751Y40611D01*
X55769Y40579D01*
X55779Y40544D01*
X55783Y40507D01*
X55781Y40483D01*
X55776Y40460D01*
X55768Y40439D01*
X55757Y40420D01*
X55742Y40403D01*
X55724Y40387D01*
X55702Y40374D01*
X55677Y40363D01*
X55708Y40351D01*
X55736Y40335D01*
X55759Y40316D01*
X55778Y40294D01*
X55793Y40269D01*
X55804Y40241D01*
X55810Y40212D01*
X55812Y40180D01*
X55808Y40136D01*
X55796Y40095D01*
X55776Y40058D01*
X55747Y40025D01*
X55712Y39998D01*
X55672Y39978D01*
X55627Y39967D01*
X55576Y39963D01*
X55526Y39967D01*
X55481Y39978D01*
X55441Y39998D01*
X55406Y40026D01*
X55377Y40059D01*
X55357Y40096D01*
X55345Y40137D01*
X55341Y40182D01*
X55343Y40216D01*
X55349Y40246D01*
X55360Y40274D01*
X55376Y40299D01*
X55396Y40321D01*
X55419Y40339D01*
X55446Y40353D01*
X55477Y40363D01*
X55477Y40363D01*
G37*
%LNtop silkscreen component e805279d35b13680*%
D10*
X54000Y38400D02*
X54000Y34600D01*
X34000Y34600*
X34000Y38400*
X54000Y38400*
D12*
X54625Y36200D03*
G36*
X54829Y35178D02*
X54914Y35190D01*
X54917Y35152D01*
X54924Y35121D01*
X54933Y35096D01*
X54945Y35078D01*
X54960Y35064D01*
X54978Y35055D01*
X54998Y35049D01*
X55021Y35047D01*
X55038Y35048D01*
X55054Y35051D01*
X55069Y35056D01*
X55082Y35064D01*
X55094Y35073D01*
X55104Y35083D01*
X55112Y35095D01*
X55118Y35108D01*
X55122Y35124D01*
X55125Y35144D01*
X55127Y35169D01*
X55128Y35198D01*
X55128Y35691D01*
X55222Y35691D01*
X55222Y35203D01*
X55221Y35161D01*
X55217Y35123D01*
X55210Y35091D01*
X55201Y35064D01*
X55188Y35041D01*
X55173Y35020D01*
X55154Y35003D01*
X55132Y34989D01*
X55107Y34977D01*
X55081Y34969D01*
X55052Y34964D01*
X55021Y34963D01*
X54977Y34966D01*
X54938Y34976D01*
X54905Y34993D01*
X54877Y35017D01*
X54855Y35047D01*
X54840Y35084D01*
X54831Y35128D01*
X54829Y35178D01*
X54829Y35178D01*
X55347Y35597D02*
X55347Y35682D01*
X55811Y35682D01*
X55811Y35613D01*
X55777Y35574D01*
X55743Y35528D01*
X55709Y35477D01*
X55675Y35420D01*
X55644Y35359D01*
X55616Y35298D01*
X55592Y35235D01*
X55572Y35172D01*
X55560Y35126D01*
X55550Y35078D01*
X55543Y35027D01*
X55538Y34975D01*
X55447Y34975D01*
X55450Y35019D01*
X55457Y35068D01*
X55467Y35121D01*
X55481Y35179D01*
X55498Y35238D01*
X55519Y35297D01*
X55544Y35354D01*
X55572Y35410D01*
X55602Y35463D01*
X55633Y35512D01*
X55665Y35557D01*
X55698Y35597D01*
X55347Y35597D01*
X55347Y35597D01*
G37*
%LNtop silkscreen component 16fab53d32d5a67c*%
D10*
X54000Y13400D02*
X54000Y9600D01*
X46500Y9600*
X46500Y13400*
X54000Y13400*
D12*
X54625Y11200D03*
G36*
X54829Y9928D02*
X54914Y9940D01*
X54917Y9902D01*
X54924Y9871D01*
X54933Y9846D01*
X54945Y9828D01*
X54960Y9814D01*
X54978Y9805D01*
X54998Y9799D01*
X55021Y9797D01*
X55038Y9798D01*
X55054Y9801D01*
X55069Y9806D01*
X55082Y9814D01*
X55094Y9823D01*
X55104Y9833D01*
X55112Y9845D01*
X55118Y9858D01*
X55122Y9874D01*
X55125Y9894D01*
X55127Y9919D01*
X55128Y9948D01*
X55128Y10441D01*
X55222Y10441D01*
X55222Y9953D01*
X55221Y9911D01*
X55217Y9873D01*
X55210Y9841D01*
X55201Y9814D01*
X55188Y9791D01*
X55173Y9770D01*
X55154Y9753D01*
X55132Y9739D01*
X55107Y9727D01*
X55081Y9719D01*
X55052Y9714D01*
X55021Y9713D01*
X54977Y9716D01*
X54938Y9726D01*
X54905Y9743D01*
X54877Y9767D01*
X54855Y9797D01*
X54840Y9834D01*
X54831Y9878D01*
X54829Y9928D01*
X54829Y9928D01*
X55803Y9809D02*
X55803Y9725D01*
X55330Y9725D01*
X55331Y9741D01*
X55332Y9756D01*
X55336Y9771D01*
X55341Y9786D01*
X55351Y9810D01*
X55364Y9834D01*
X55380Y9858D01*
X55398Y9881D01*
X55421Y9906D01*
X55447Y9932D01*
X55478Y9960D01*
X55513Y9990D01*
X55567Y10035D01*
X55611Y10075D01*
X55646Y10111D01*
X55671Y10141D01*
X55689Y10169D01*
X55702Y10196D01*
X55710Y10222D01*
X55712Y10247D01*
X55710Y10272D01*
X55703Y10295D01*
X55691Y10316D01*
X55675Y10335D01*
X55655Y10351D01*
X55632Y10362D01*
X55606Y10369D01*
X55577Y10371D01*
X55547Y10369D01*
X55520Y10361D01*
X55496Y10350D01*
X55476Y10333D01*
X55459Y10312D01*
X55447Y10287D01*
X55440Y10259D01*
X55437Y10227D01*
X55347Y10237D01*
X55355Y10284D01*
X55369Y10326D01*
X55390Y10361D01*
X55417Y10391D01*
X55450Y10414D01*
X55488Y10431D01*
X55531Y10440D01*
X55579Y10444D01*
X55628Y10440D01*
X55672Y10429D01*
X55710Y10412D01*
X55742Y10387D01*
X55769Y10356D01*
X55787Y10323D01*
X55799Y10286D01*
X55802Y10245D01*
X55801Y10224D01*
X55798Y10202D01*
X55793Y10181D01*
X55785Y10161D01*
X55775Y10140D01*
X55762Y10118D01*
X55745Y10096D01*
X55727Y10073D01*
X55703Y10048D01*
X55672Y10019D01*
X55635Y9985D01*
X55591Y9947D01*
X55555Y9917D01*
X55526Y9891D01*
X55504Y9872D01*
X55489Y9857D01*
X55479Y9845D01*
X55469Y9833D01*
X55460Y9821D01*
X55452Y9809D01*
X55803Y9809D01*
X55803Y9809D01*
G37*
%LNtop silkscreen component a015b0e8d900f81e*%
D10*
X54000Y18400D02*
X54000Y14600D01*
X44000Y14600*
X44000Y18400*
X54000Y18400*
D12*
X54625Y16200D03*
G36*
X54829Y15178D02*
X54914Y15190D01*
X54917Y15152D01*
X54924Y15121D01*
X54933Y15096D01*
X54945Y15078D01*
X54960Y15064D01*
X54978Y15055D01*
X54998Y15049D01*
X55021Y15047D01*
X55038Y15048D01*
X55054Y15051D01*
X55069Y15056D01*
X55082Y15064D01*
X55094Y15073D01*
X55104Y15083D01*
X55112Y15095D01*
X55118Y15108D01*
X55122Y15124D01*
X55125Y15144D01*
X55127Y15169D01*
X55128Y15198D01*
X55128Y15691D01*
X55222Y15691D01*
X55222Y15203D01*
X55221Y15161D01*
X55217Y15123D01*
X55210Y15091D01*
X55201Y15064D01*
X55188Y15041D01*
X55173Y15020D01*
X55154Y15003D01*
X55132Y14989D01*
X55107Y14977D01*
X55081Y14969D01*
X55052Y14964D01*
X55021Y14963D01*
X54977Y14966D01*
X54938Y14976D01*
X54905Y14993D01*
X54877Y15017D01*
X54855Y15047D01*
X54840Y15084D01*
X54831Y15128D01*
X54829Y15178D01*
X54829Y15178D01*
X55342Y15164D02*
X55430Y15176D01*
X55439Y15141D01*
X55450Y15111D01*
X55465Y15087D01*
X55481Y15068D01*
X55501Y15054D01*
X55522Y15043D01*
X55545Y15037D01*
X55570Y15035D01*
X55600Y15038D01*
X55627Y15046D01*
X55652Y15059D01*
X55675Y15078D01*
X55693Y15101D01*
X55707Y15126D01*
X55715Y15154D01*
X55718Y15184D01*
X55715Y15213D01*
X55708Y15240D01*
X55695Y15263D01*
X55678Y15284D01*
X55657Y15302D01*
X55633Y15314D01*
X55607Y15321D01*
X55577Y15324D01*
X55564Y15323D01*
X55549Y15321D01*
X55533Y15318D01*
X55515Y15314D01*
X55525Y15391D01*
X55529Y15391D01*
X55533Y15390D01*
X55536Y15390D01*
X55539Y15390D01*
X55567Y15392D01*
X55593Y15397D01*
X55617Y15407D01*
X55640Y15419D01*
X55660Y15436D01*
X55674Y15457D01*
X55682Y15481D01*
X55685Y15510D01*
X55683Y15533D01*
X55677Y15554D01*
X55667Y15573D01*
X55653Y15590D01*
X55635Y15604D01*
X55615Y15614D01*
X55593Y15620D01*
X55568Y15621D01*
X55544Y15619D01*
X55521Y15613D01*
X55501Y15603D01*
X55483Y15589D01*
X55467Y15571D01*
X55455Y15549D01*
X55445Y15523D01*
X55439Y15493D01*
X55351Y15508D01*
X55361Y15550D01*
X55377Y15587D01*
X55398Y15618D01*
X55424Y15645D01*
X55454Y15666D01*
X55488Y15682D01*
X55525Y15691D01*
X55566Y15694D01*
X55595Y15692D01*
X55622Y15687D01*
X55649Y15680D01*
X55674Y15669D01*
X55697Y15655D01*
X55718Y15639D01*
X55735Y15621D01*
X55749Y15600D01*
X55761Y15578D01*
X55769Y15555D01*
X55774Y15532D01*
X55776Y15508D01*
X55774Y15485D01*
X55769Y15463D01*
X55762Y15443D01*
X55751Y15423D01*
X55737Y15405D01*
X55720Y15389D01*
X55700Y15375D01*
X55677Y15363D01*
X55707Y15353D01*
X55733Y15340D01*
X55756Y15323D01*
X55776Y15302D01*
X55791Y15277D01*
X55802Y15250D01*
X55809Y15220D01*
X55811Y15186D01*
X55807Y15141D01*
X55794Y15100D01*
X55772Y15062D01*
X55742Y15027D01*
X55706Y14999D01*
X55665Y14979D01*
X55620Y14966D01*
X55570Y14962D01*
X55524Y14966D01*
X55483Y14976D01*
X55446Y14994D01*
X55413Y15018D01*
X55385Y15049D01*
X55364Y15083D01*
X55350Y15121D01*
X55342Y15164D01*
X55342Y15164D01*
G37*
%LNtop silkscreen component b3f41ef893718b1e*%
D10*
X6000Y24600D02*
X6000Y28400D01*
X38500Y28400*
X38500Y24600*
X6000Y24600*
D11*
X5375Y26800D03*
G36*
X3579Y25178D02*
X3664Y25190D01*
X3667Y25152D01*
X3674Y25121D01*
X3683Y25096D01*
X3695Y25078D01*
X3710Y25064D01*
X3728Y25055D01*
X3748Y25049D01*
X3771Y25047D01*
X3788Y25048D01*
X3804Y25051D01*
X3819Y25056D01*
X3832Y25064D01*
X3844Y25073D01*
X3854Y25083D01*
X3862Y25095D01*
X3868Y25108D01*
X3872Y25124D01*
X3875Y25144D01*
X3877Y25169D01*
X3878Y25198D01*
X3878Y25691D01*
X3972Y25691D01*
X3972Y25203D01*
X3971Y25161D01*
X3967Y25123D01*
X3960Y25091D01*
X3951Y25064D01*
X3938Y25041D01*
X3923Y25020D01*
X3904Y25003D01*
X3882Y24989D01*
X3857Y24977D01*
X3831Y24969D01*
X3802Y24964D01*
X3771Y24963D01*
X3727Y24966D01*
X3688Y24976D01*
X3655Y24993D01*
X3627Y25017D01*
X3605Y25047D01*
X3590Y25084D01*
X3581Y25128D01*
X3579Y25178D01*
X3579Y25178D01*
X4423Y24975D02*
X4335Y24975D01*
X4335Y25535D01*
X4318Y25520D01*
X4298Y25505D01*
X4276Y25490D01*
X4251Y25475D01*
X4226Y25460D01*
X4203Y25448D01*
X4180Y25438D01*
X4159Y25429D01*
X4159Y25514D01*
X4195Y25532D01*
X4228Y25552D01*
X4259Y25574D01*
X4288Y25598D01*
X4313Y25623D01*
X4335Y25647D01*
X4352Y25670D01*
X4366Y25694D01*
X4423Y25694D01*
X4423Y24975D01*
X4423Y24975D01*
X5110Y25059D02*
X5110Y24975D01*
X4636Y24975D01*
X4637Y24991D01*
X4639Y25006D01*
X4642Y25021D01*
X4647Y25036D01*
X4657Y25060D01*
X4670Y25084D01*
X4686Y25108D01*
X4705Y25131D01*
X4727Y25156D01*
X4753Y25182D01*
X4784Y25210D01*
X4820Y25240D01*
X4873Y25285D01*
X4917Y25325D01*
X4952Y25361D01*
X4977Y25391D01*
X4995Y25419D01*
X5008Y25446D01*
X5016Y25472D01*
X5018Y25497D01*
X5016Y25522D01*
X5009Y25545D01*
X4997Y25566D01*
X4981Y25585D01*
X4961Y25601D01*
X4938Y25612D01*
X4912Y25619D01*
X4884Y25621D01*
X4853Y25619D01*
X4826Y25611D01*
X4803Y25600D01*
X4782Y25583D01*
X4765Y25562D01*
X4753Y25537D01*
X4746Y25509D01*
X4743Y25477D01*
X4653Y25487D01*
X4661Y25534D01*
X4675Y25576D01*
X4696Y25611D01*
X4723Y25641D01*
X4756Y25664D01*
X4794Y25681D01*
X4837Y25690D01*
X4885Y25694D01*
X4934Y25690D01*
X4978Y25679D01*
X5016Y25662D01*
X5049Y25637D01*
X5075Y25606D01*
X5094Y25573D01*
X5105Y25536D01*
X5109Y25495D01*
X5108Y25474D01*
X5104Y25452D01*
X5099Y25431D01*
X5091Y25411D01*
X5081Y25390D01*
X5068Y25368D01*
X5052Y25346D01*
X5033Y25323D01*
X5009Y25298D01*
X4978Y25269D01*
X4941Y25235D01*
X4897Y25197D01*
X4861Y25167D01*
X4832Y25141D01*
X4810Y25122D01*
X4796Y25107D01*
X4785Y25095D01*
X4775Y25083D01*
X4766Y25071D01*
X4759Y25059D01*
X5110Y25059D01*
X5110Y25059D01*
G37*
%LNtop silkscreen component ad3850c414a05864*%
D10*
X54000Y33400D02*
X54000Y29600D01*
X36500Y29600*
X36500Y33400*
X54000Y33400*
D12*
X54625Y31200D03*
G36*
X54829Y30178D02*
X54914Y30190D01*
X54917Y30152D01*
X54924Y30121D01*
X54933Y30096D01*
X54945Y30078D01*
X54960Y30064D01*
X54978Y30055D01*
X54998Y30049D01*
X55021Y30047D01*
X55038Y30048D01*
X55054Y30051D01*
X55069Y30056D01*
X55082Y30064D01*
X55094Y30073D01*
X55104Y30083D01*
X55112Y30095D01*
X55118Y30108D01*
X55122Y30124D01*
X55125Y30144D01*
X55127Y30169D01*
X55128Y30198D01*
X55128Y30691D01*
X55222Y30691D01*
X55222Y30203D01*
X55221Y30161D01*
X55217Y30123D01*
X55210Y30091D01*
X55201Y30064D01*
X55188Y30041D01*
X55173Y30020D01*
X55154Y30003D01*
X55132Y29989D01*
X55107Y29977D01*
X55081Y29969D01*
X55052Y29964D01*
X55021Y29963D01*
X54977Y29966D01*
X54938Y29976D01*
X54905Y29993D01*
X54877Y30017D01*
X54855Y30047D01*
X54840Y30084D01*
X54831Y30128D01*
X54829Y30178D01*
X54829Y30178D01*
X55798Y30516D02*
X55710Y30509D01*
X55704Y30533D01*
X55696Y30553D01*
X55687Y30570D01*
X55677Y30584D01*
X55658Y30600D01*
X55637Y30612D01*
X55614Y30619D01*
X55589Y30621D01*
X55569Y30620D01*
X55550Y30616D01*
X55532Y30608D01*
X55515Y30598D01*
X55496Y30581D01*
X55478Y30561D01*
X55463Y30537D01*
X55450Y30510D01*
X55439Y30478D01*
X55432Y30439D01*
X55427Y30395D01*
X55425Y30344D01*
X55471Y30308D01*
X55462Y30296D01*
X55449Y30270D01*
X55441Y30240D01*
X55439Y30207D01*
X55439Y30207D01*
X55440Y30184D01*
X55444Y30162D01*
X55450Y30141D01*
X55458Y30120D01*
X55469Y30101D01*
X55481Y30083D01*
X55496Y30069D01*
X55512Y30057D01*
X55529Y30047D01*
X55547Y30040D01*
X55566Y30036D01*
X55585Y30035D01*
X55612Y30038D01*
X55636Y30046D01*
X55659Y30060D01*
X55680Y30080D01*
X55698Y30104D01*
X55710Y30133D01*
X55718Y30165D01*
X55720Y30202D01*
X55718Y30237D01*
X55711Y30268D01*
X55698Y30296D01*
X55681Y30319D01*
X55660Y30338D01*
X55636Y30351D01*
X55610Y30359D01*
X55581Y30362D01*
X55553Y30359D01*
X55526Y30351D01*
X55502Y30338D01*
X55480Y30319D01*
X55471Y30308D01*
X55425Y30344D01*
X55442Y30367D01*
X55460Y30386D01*
X55481Y30403D01*
X55503Y30416D01*
X55526Y30426D01*
X55550Y30433D01*
X55574Y30438D01*
X55599Y30439D01*
X55641Y30435D01*
X55680Y30423D01*
X55716Y30403D01*
X55749Y30375D01*
X55776Y30340D01*
X55795Y30300D01*
X55806Y30256D01*
X55810Y30207D01*
X55808Y30174D01*
X55803Y30142D01*
X55794Y30112D01*
X55781Y30082D01*
X55765Y30055D01*
X55747Y30031D01*
X55725Y30011D01*
X55701Y29994D01*
X55675Y29980D01*
X55647Y29970D01*
X55618Y29965D01*
X55586Y29963D01*
X55534Y29968D01*
X55486Y29983D01*
X55444Y30008D01*
X55407Y30044D01*
X55377Y30091D01*
X55355Y30151D01*
X55342Y30224D01*
X55338Y30310D01*
X55342Y30407D01*
X55357Y30489D01*
X55381Y30558D01*
X55414Y30612D01*
X55451Y30648D01*
X55493Y30673D01*
X55541Y30689D01*
X55594Y30694D01*
X55635Y30691D01*
X55671Y30682D01*
X55704Y30667D01*
X55733Y30646D01*
X55757Y30620D01*
X55776Y30590D01*
X55790Y30555D01*
X55798Y30516D01*
X55798Y30516D01*
G37*
%LNtop silkscreen component da7bfe2cf6314d72*%
D10*
X6000Y14600D02*
X6000Y18400D01*
X43500Y18400*
X43500Y14600*
X6000Y14600*
D11*
X5375Y16800D03*
G36*
X3579Y15178D02*
X3664Y15190D01*
X3667Y15152D01*
X3674Y15121D01*
X3683Y15096D01*
X3695Y15078D01*
X3710Y15064D01*
X3728Y15055D01*
X3748Y15049D01*
X3771Y15047D01*
X3788Y15048D01*
X3804Y15051D01*
X3819Y15056D01*
X3832Y15064D01*
X3844Y15073D01*
X3854Y15083D01*
X3862Y15095D01*
X3868Y15108D01*
X3872Y15124D01*
X3875Y15144D01*
X3877Y15169D01*
X3878Y15198D01*
X3878Y15691D01*
X3972Y15691D01*
X3972Y15203D01*
X3971Y15161D01*
X3967Y15123D01*
X3960Y15091D01*
X3951Y15064D01*
X3938Y15041D01*
X3923Y15020D01*
X3904Y15003D01*
X3882Y14989D01*
X3857Y14977D01*
X3831Y14969D01*
X3802Y14964D01*
X3771Y14963D01*
X3727Y14966D01*
X3688Y14976D01*
X3655Y14993D01*
X3627Y15017D01*
X3605Y15047D01*
X3590Y15084D01*
X3581Y15128D01*
X3579Y15178D01*
X3579Y15178D01*
X4423Y14975D02*
X4335Y14975D01*
X4335Y15535D01*
X4318Y15520D01*
X4298Y15505D01*
X4276Y15490D01*
X4251Y15475D01*
X4226Y15460D01*
X4203Y15448D01*
X4180Y15438D01*
X4159Y15429D01*
X4159Y15514D01*
X4195Y15532D01*
X4228Y15552D01*
X4259Y15574D01*
X4288Y15598D01*
X4313Y15623D01*
X4335Y15647D01*
X4352Y15670D01*
X4366Y15694D01*
X4423Y15694D01*
X4423Y14975D01*
X4423Y14975D01*
X4929Y14975D02*
X4929Y15146D01*
X4619Y15146D01*
X4619Y15227D01*
X4874Y15589D01*
X4929Y15550D01*
X4705Y15227D01*
X4929Y15227D01*
X4929Y15227D01*
X4929Y15550D01*
X4874Y15589D01*
X4946Y15691D01*
X5017Y15691D01*
X5017Y15227D01*
X5114Y15227D01*
X5114Y15146D01*
X5017Y15146D01*
X5017Y14975D01*
X4929Y14975D01*
X4929Y14975D01*
G37*
%LNtop silkscreen component 228893982379df3f*%
D10*
X54000Y23400D02*
X54000Y19600D01*
X41500Y19600*
X41500Y23400*
X54000Y23400*
D12*
X54625Y21200D03*
G36*
X54829Y20178D02*
X54914Y20190D01*
X54917Y20152D01*
X54924Y20121D01*
X54933Y20096D01*
X54945Y20078D01*
X54960Y20064D01*
X54978Y20055D01*
X54998Y20049D01*
X55021Y20047D01*
X55038Y20048D01*
X55054Y20051D01*
X55069Y20056D01*
X55082Y20064D01*
X55094Y20073D01*
X55104Y20083D01*
X55112Y20095D01*
X55118Y20108D01*
X55122Y20124D01*
X55125Y20144D01*
X55127Y20169D01*
X55128Y20198D01*
X55128Y20691D01*
X55222Y20691D01*
X55222Y20203D01*
X55221Y20161D01*
X55217Y20123D01*
X55210Y20091D01*
X55201Y20064D01*
X55188Y20041D01*
X55173Y20020D01*
X55154Y20003D01*
X55132Y19989D01*
X55107Y19977D01*
X55081Y19969D01*
X55052Y19964D01*
X55021Y19963D01*
X54977Y19966D01*
X54938Y19976D01*
X54905Y19993D01*
X54877Y20017D01*
X54855Y20047D01*
X54840Y20084D01*
X54831Y20128D01*
X54829Y20178D01*
X54829Y20178D01*
X55623Y19975D02*
X55623Y20146D01*
X55313Y20146D01*
X55313Y20227D01*
X55568Y20589D01*
X55623Y20550D01*
X55399Y20227D01*
X55623Y20227D01*
X55623Y20227D01*
X55623Y20550D01*
X55568Y20589D01*
X55639Y20691D01*
X55711Y20691D01*
X55711Y20227D01*
X55808Y20227D01*
X55808Y20146D01*
X55711Y20146D01*
X55711Y19975D01*
X55623Y19975D01*
X55623Y19975D01*
G37*
%LNtop silkscreen component da574c27139357db*%
D10*
X6000Y19600D02*
X6000Y23400D01*
X41000Y23400*
X41000Y19600*
X6000Y19600*
D11*
X5375Y21800D03*
G36*
X3579Y20178D02*
X3664Y20190D01*
X3667Y20152D01*
X3674Y20121D01*
X3683Y20096D01*
X3695Y20078D01*
X3710Y20064D01*
X3728Y20055D01*
X3748Y20049D01*
X3771Y20047D01*
X3788Y20048D01*
X3804Y20051D01*
X3819Y20056D01*
X3832Y20064D01*
X3844Y20073D01*
X3854Y20083D01*
X3862Y20095D01*
X3868Y20108D01*
X3872Y20124D01*
X3875Y20144D01*
X3877Y20169D01*
X3878Y20198D01*
X3878Y20691D01*
X3972Y20691D01*
X3972Y20203D01*
X3971Y20161D01*
X3967Y20123D01*
X3960Y20091D01*
X3951Y20064D01*
X3938Y20041D01*
X3923Y20020D01*
X3904Y20003D01*
X3882Y19989D01*
X3857Y19977D01*
X3831Y19969D01*
X3802Y19964D01*
X3771Y19963D01*
X3727Y19966D01*
X3688Y19976D01*
X3655Y19993D01*
X3627Y20017D01*
X3605Y20047D01*
X3590Y20084D01*
X3581Y20128D01*
X3579Y20178D01*
X3579Y20178D01*
X4423Y19975D02*
X4335Y19975D01*
X4335Y20535D01*
X4318Y20520D01*
X4298Y20505D01*
X4276Y20490D01*
X4251Y20475D01*
X4226Y20460D01*
X4203Y20448D01*
X4180Y20438D01*
X4159Y20429D01*
X4159Y20514D01*
X4195Y20532D01*
X4228Y20552D01*
X4259Y20574D01*
X4288Y20598D01*
X4313Y20623D01*
X4335Y20647D01*
X4352Y20670D01*
X4366Y20694D01*
X4423Y20694D01*
X4423Y19975D01*
X4423Y19975D01*
X4648Y20164D02*
X4736Y20176D01*
X4745Y20141D01*
X4757Y20111D01*
X4771Y20087D01*
X4788Y20068D01*
X4807Y20054D01*
X4828Y20043D01*
X4851Y20037D01*
X4876Y20035D01*
X4906Y20038D01*
X4933Y20046D01*
X4958Y20059D01*
X4981Y20078D01*
X5000Y20101D01*
X5013Y20126D01*
X5021Y20154D01*
X5024Y20184D01*
X5021Y20213D01*
X5014Y20240D01*
X5001Y20263D01*
X4984Y20284D01*
X4963Y20302D01*
X4939Y20314D01*
X4913Y20321D01*
X4884Y20324D01*
X4870Y20323D01*
X4856Y20321D01*
X4839Y20318D01*
X4822Y20314D01*
X4831Y20391D01*
X4835Y20391D01*
X4839Y20390D01*
X4843Y20390D01*
X4845Y20390D01*
X4873Y20392D01*
X4899Y20397D01*
X4923Y20407D01*
X4947Y20419D01*
X4966Y20436D01*
X4980Y20457D01*
X4989Y20481D01*
X4991Y20510D01*
X4989Y20533D01*
X4983Y20554D01*
X4973Y20573D01*
X4959Y20590D01*
X4941Y20604D01*
X4921Y20614D01*
X4899Y20619D01*
X4874Y20621D01*
X4850Y20619D01*
X4827Y20613D01*
X4807Y20603D01*
X4789Y20589D01*
X4773Y20571D01*
X4761Y20549D01*
X4751Y20523D01*
X4745Y20493D01*
X4657Y20508D01*
X4668Y20550D01*
X4683Y20587D01*
X4704Y20618D01*
X4730Y20645D01*
X4761Y20666D01*
X4794Y20682D01*
X4832Y20691D01*
X4872Y20694D01*
X4901Y20692D01*
X4929Y20687D01*
X4955Y20680D01*
X4980Y20669D01*
X5003Y20655D01*
X5024Y20639D01*
X5041Y20621D01*
X5056Y20600D01*
X5067Y20578D01*
X5075Y20555D01*
X5080Y20532D01*
X5082Y20508D01*
X5080Y20485D01*
X5076Y20463D01*
X5068Y20443D01*
X5057Y20423D01*
X5043Y20405D01*
X5026Y20389D01*
X5006Y20375D01*
X4983Y20363D01*
X5013Y20353D01*
X5040Y20340D01*
X5062Y20323D01*
X5082Y20302D01*
X5097Y20277D01*
X5108Y20250D01*
X5115Y20220D01*
X5117Y20186D01*
X5113Y20141D01*
X5100Y20100D01*
X5078Y20062D01*
X5049Y20027D01*
X5012Y19999D01*
X4971Y19979D01*
X4926Y19966D01*
X4876Y19962D01*
X4831Y19966D01*
X4789Y19976D01*
X4752Y19994D01*
X4719Y20018D01*
X4691Y20049D01*
X4670Y20083D01*
X4656Y20121D01*
X4648Y20164D01*
X4648Y20164D01*
G37*
%LNtop silkscreen component eafc2537431a66c3*%
D10*
X6000Y39600D02*
X6000Y43400D01*
X31000Y43400*
X31000Y39600*
X6000Y39600*
D11*
X5375Y41800D03*
G36*
X4079Y40178D02*
X4164Y40190D01*
X4167Y40152D01*
X4174Y40121D01*
X4183Y40096D01*
X4195Y40078D01*
X4210Y40064D01*
X4228Y40055D01*
X4248Y40049D01*
X4271Y40047D01*
X4288Y40048D01*
X4304Y40051D01*
X4319Y40056D01*
X4332Y40064D01*
X4344Y40073D01*
X4354Y40083D01*
X4362Y40095D01*
X4368Y40108D01*
X4372Y40124D01*
X4375Y40144D01*
X4377Y40169D01*
X4378Y40198D01*
X4378Y40691D01*
X4472Y40691D01*
X4472Y40203D01*
X4471Y40161D01*
X4467Y40123D01*
X4460Y40091D01*
X4451Y40064D01*
X4438Y40041D01*
X4423Y40020D01*
X4404Y40003D01*
X4382Y39989D01*
X4357Y39977D01*
X4331Y39969D01*
X4302Y39964D01*
X4271Y39963D01*
X4227Y39966D01*
X4188Y39976D01*
X4155Y39993D01*
X4127Y40017D01*
X4105Y40047D01*
X4090Y40084D01*
X4081Y40128D01*
X4079Y40178D01*
X4079Y40178D01*
X4605Y40141D02*
X4689Y40148D01*
X4696Y40121D01*
X4705Y40097D01*
X4716Y40077D01*
X4730Y40062D01*
X4746Y40050D01*
X4765Y40042D01*
X4785Y40037D01*
X4808Y40035D01*
X4827Y40036D01*
X4846Y40040D01*
X4863Y40045D01*
X4879Y40054D01*
X4893Y40064D01*
X4907Y40075D01*
X4918Y40088D01*
X4929Y40103D01*
X4938Y40120D01*
X4947Y40140D01*
X4955Y40162D01*
X4962Y40187D01*
X4967Y40213D01*
X4972Y40240D01*
X4974Y40267D01*
X4975Y40294D01*
X4975Y40298D01*
X4975Y40302D01*
X4975Y40306D01*
X4974Y40312D01*
X4930Y40344D01*
X4942Y40361D01*
X4955Y40389D01*
X4962Y40421D01*
X4965Y40456D01*
X4965Y40456D01*
X4962Y40492D01*
X4955Y40524D01*
X4942Y40552D01*
X4924Y40577D01*
X4903Y40596D01*
X4880Y40610D01*
X4855Y40618D01*
X4827Y40621D01*
X4799Y40618D01*
X4773Y40609D01*
X4748Y40594D01*
X4725Y40573D01*
X4706Y40547D01*
X4693Y40518D01*
X4685Y40485D01*
X4682Y40449D01*
X4684Y40417D01*
X4692Y40387D01*
X4705Y40361D01*
X4723Y40338D01*
X4745Y40319D01*
X4769Y40306D01*
X4796Y40298D01*
X4825Y40295D01*
X4854Y40298D01*
X4881Y40306D01*
X4904Y40319D01*
X4925Y40338D01*
X4930Y40344D01*
X4974Y40312D01*
X4960Y40292D01*
X4943Y40274D01*
X4924Y40258D01*
X4902Y40244D01*
X4879Y40232D01*
X4855Y40224D01*
X4830Y40219D01*
X4803Y40218D01*
X4761Y40222D01*
X4721Y40234D01*
X4686Y40254D01*
X4653Y40282D01*
X4626Y40317D01*
X4607Y40357D01*
X4595Y40402D01*
X4592Y40452D01*
X4596Y40504D01*
X4608Y40550D01*
X4628Y40591D01*
X4656Y40627D01*
X4690Y40656D01*
X4728Y40677D01*
X4770Y40690D01*
X4817Y40694D01*
X4851Y40691D01*
X4883Y40684D01*
X4915Y40673D01*
X4944Y40656D01*
X4972Y40635D01*
X4995Y40611D01*
X5015Y40582D01*
X5032Y40549D01*
X5045Y40510D01*
X5055Y40464D01*
X5060Y40410D01*
X5062Y40348D01*
X5060Y40282D01*
X5055Y40224D01*
X5045Y40173D01*
X5032Y40129D01*
X5016Y40091D01*
X4995Y40057D01*
X4971Y40029D01*
X4944Y40005D01*
X4913Y39987D01*
X4880Y39973D01*
X4844Y39965D01*
X4806Y39963D01*
X4766Y39966D01*
X4730Y39974D01*
X4697Y39989D01*
X4669Y40009D01*
X4645Y40035D01*
X4626Y40066D01*
X4613Y40101D01*
X4605Y40141D01*
X4605Y40141D01*
G37*
%LNtop silkscreen component b7702b93b57b5186*%
D10*
X6000Y29600D02*
X6000Y33400D01*
X36000Y33400*
X36000Y29600*
X6000Y29600*
D11*
X5375Y31800D03*
G36*
X3579Y30178D02*
X3664Y30190D01*
X3667Y30152D01*
X3674Y30121D01*
X3683Y30096D01*
X3695Y30078D01*
X3710Y30064D01*
X3728Y30055D01*
X3748Y30049D01*
X3771Y30047D01*
X3788Y30048D01*
X3804Y30051D01*
X3819Y30056D01*
X3832Y30064D01*
X3844Y30073D01*
X3854Y30083D01*
X3862Y30095D01*
X3868Y30108D01*
X3872Y30124D01*
X3875Y30144D01*
X3877Y30169D01*
X3878Y30198D01*
X3878Y30691D01*
X3972Y30691D01*
X3972Y30203D01*
X3971Y30161D01*
X3967Y30123D01*
X3960Y30091D01*
X3951Y30064D01*
X3938Y30041D01*
X3923Y30020D01*
X3904Y30003D01*
X3882Y29989D01*
X3857Y29977D01*
X3831Y29969D01*
X3802Y29964D01*
X3771Y29963D01*
X3727Y29966D01*
X3688Y29976D01*
X3655Y29993D01*
X3627Y30017D01*
X3605Y30047D01*
X3590Y30084D01*
X3581Y30128D01*
X3579Y30178D01*
X3579Y30178D01*
X4423Y29975D02*
X4335Y29975D01*
X4335Y30535D01*
X4318Y30520D01*
X4298Y30505D01*
X4276Y30490D01*
X4251Y30475D01*
X4226Y30460D01*
X4203Y30448D01*
X4180Y30438D01*
X4159Y30429D01*
X4159Y30514D01*
X4195Y30532D01*
X4228Y30552D01*
X4259Y30574D01*
X4288Y30598D01*
X4313Y30623D01*
X4335Y30647D01*
X4352Y30670D01*
X4366Y30694D01*
X4423Y30694D01*
X4423Y29975D01*
X4423Y29975D01*
X4905Y29975D02*
X4817Y29975D01*
X4817Y30535D01*
X4800Y30520D01*
X4780Y30505D01*
X4758Y30490D01*
X4733Y30475D01*
X4708Y30460D01*
X4684Y30448D01*
X4662Y30438D01*
X4641Y30429D01*
X4641Y30514D01*
X4677Y30532D01*
X4710Y30552D01*
X4741Y30574D01*
X4770Y30598D01*
X4795Y30623D01*
X4817Y30647D01*
X4834Y30670D01*
X4848Y30694D01*
X4905Y30694D01*
X4905Y29975D01*
X4905Y29975D01*
G37*
%LNtop silkscreen component f237f16fae055c2f*%
D10*
X6000Y34600D02*
X6000Y38400D01*
X33500Y38400*
X33500Y34600*
X6000Y34600*
D11*
X5375Y36800D03*
G36*
X3579Y35178D02*
X3664Y35190D01*
X3667Y35152D01*
X3674Y35121D01*
X3683Y35096D01*
X3695Y35078D01*
X3710Y35064D01*
X3728Y35055D01*
X3748Y35049D01*
X3771Y35047D01*
X3788Y35048D01*
X3804Y35051D01*
X3819Y35056D01*
X3832Y35064D01*
X3844Y35073D01*
X3854Y35083D01*
X3862Y35095D01*
X3868Y35108D01*
X3872Y35124D01*
X3875Y35144D01*
X3877Y35169D01*
X3878Y35198D01*
X3878Y35691D01*
X3972Y35691D01*
X3972Y35203D01*
X3971Y35161D01*
X3967Y35123D01*
X3960Y35091D01*
X3951Y35064D01*
X3938Y35041D01*
X3923Y35020D01*
X3904Y35003D01*
X3882Y34989D01*
X3857Y34977D01*
X3831Y34969D01*
X3802Y34964D01*
X3771Y34963D01*
X3727Y34966D01*
X3688Y34976D01*
X3655Y34993D01*
X3627Y35017D01*
X3605Y35047D01*
X3590Y35084D01*
X3581Y35128D01*
X3579Y35178D01*
X3579Y35178D01*
X4423Y34975D02*
X4335Y34975D01*
X4335Y35535D01*
X4318Y35520D01*
X4298Y35505D01*
X4276Y35490D01*
X4251Y35475D01*
X4226Y35460D01*
X4203Y35448D01*
X4180Y35438D01*
X4159Y35429D01*
X4159Y35514D01*
X4195Y35532D01*
X4228Y35552D01*
X4259Y35574D01*
X4288Y35598D01*
X4313Y35623D01*
X4335Y35647D01*
X4352Y35670D01*
X4366Y35694D01*
X4423Y35694D01*
X4423Y34975D01*
X4423Y34975D01*
X4648Y35328D02*
X4649Y35388D01*
X4654Y35443D01*
X4662Y35491D01*
X4674Y35532D01*
X4688Y35569D01*
X4706Y35601D01*
X4727Y35629D01*
X4751Y35652D01*
X4779Y35670D01*
X4810Y35683D01*
X4844Y35691D01*
X4881Y35694D01*
X4909Y35692D01*
X4935Y35688D01*
X4960Y35681D01*
X4982Y35671D01*
X5003Y35658D01*
X5022Y35642D01*
X5039Y35624D01*
X5054Y35604D01*
X5067Y35581D01*
X5079Y35555D01*
X5090Y35527D01*
X5098Y35497D01*
X5105Y35463D01*
X5110Y35424D01*
X5113Y35379D01*
X5114Y35328D01*
X5113Y35268D01*
X5108Y35214D01*
X5100Y35166D01*
X5089Y35125D01*
X5074Y35088D01*
X5056Y35056D01*
X5035Y35028D01*
X5011Y35005D01*
X4984Y34987D01*
X4953Y34973D01*
X4919Y34965D01*
X4881Y34963D01*
X4874Y34963D01*
X4881Y35035D01*
X4910Y35039D01*
X4937Y35050D01*
X4961Y35068D01*
X4983Y35094D01*
X5001Y35130D01*
X5014Y35182D01*
X5022Y35247D01*
X5024Y35328D01*
X5022Y35409D01*
X5014Y35475D01*
X5001Y35526D01*
X4983Y35563D01*
X4961Y35588D01*
X4937Y35606D01*
X4910Y35617D01*
X4880Y35621D01*
X4851Y35618D01*
X4826Y35608D01*
X4803Y35592D01*
X4783Y35570D01*
X4764Y35530D01*
X4749Y35477D01*
X4741Y35409D01*
X4738Y35328D01*
X4738Y35328D01*
X4741Y35247D01*
X4748Y35181D01*
X4761Y35130D01*
X4779Y35093D01*
X4801Y35068D01*
X4825Y35050D01*
X4852Y35039D01*
X4881Y35035D01*
X4874Y34963D01*
X4832Y34967D01*
X4789Y34981D01*
X4751Y35005D01*
X4718Y35037D01*
X4688Y35089D01*
X4665Y35154D01*
X4652Y35234D01*
X4648Y35328D01*
X4648Y35328D01*
G37*
%LNtop silkscreen component 33b1766a393aa792*%
D10*
X54000Y28400D02*
X54000Y24600D01*
X39000Y24600*
X39000Y28400*
X54000Y28400*
D12*
X54625Y26200D03*
G36*
X54829Y25178D02*
X54914Y25190D01*
X54917Y25152D01*
X54924Y25121D01*
X54933Y25096D01*
X54945Y25078D01*
X54960Y25064D01*
X54978Y25055D01*
X54998Y25049D01*
X55021Y25047D01*
X55038Y25048D01*
X55054Y25051D01*
X55069Y25056D01*
X55082Y25064D01*
X55094Y25073D01*
X55104Y25083D01*
X55112Y25095D01*
X55118Y25108D01*
X55122Y25124D01*
X55125Y25144D01*
X55127Y25169D01*
X55128Y25198D01*
X55128Y25691D01*
X55222Y25691D01*
X55222Y25203D01*
X55221Y25161D01*
X55217Y25123D01*
X55210Y25091D01*
X55201Y25064D01*
X55188Y25041D01*
X55173Y25020D01*
X55154Y25003D01*
X55132Y24989D01*
X55107Y24977D01*
X55081Y24969D01*
X55052Y24964D01*
X55021Y24963D01*
X54977Y24966D01*
X54938Y24976D01*
X54905Y24993D01*
X54877Y25017D01*
X54855Y25047D01*
X54840Y25084D01*
X54831Y25128D01*
X54829Y25178D01*
X54829Y25178D01*
X55342Y25163D02*
X55434Y25170D01*
X55441Y25139D01*
X55451Y25111D01*
X55464Y25088D01*
X55481Y25069D01*
X55501Y25054D01*
X55523Y25044D01*
X55546Y25037D01*
X55572Y25035D01*
X55602Y25038D01*
X55630Y25047D01*
X55656Y25062D01*
X55679Y25083D01*
X55698Y25109D01*
X55712Y25139D01*
X55720Y25172D01*
X55723Y25210D01*
X55720Y25245D01*
X55712Y25277D01*
X55699Y25305D01*
X55681Y25329D01*
X55658Y25348D01*
X55632Y25361D01*
X55603Y25369D01*
X55570Y25372D01*
X55549Y25371D01*
X55530Y25367D01*
X55511Y25361D01*
X55493Y25353D01*
X55477Y25342D01*
X55463Y25331D01*
X55450Y25317D01*
X55440Y25303D01*
X55357Y25313D01*
X55426Y25681D01*
X55782Y25681D01*
X55782Y25597D01*
X55497Y25597D01*
X55458Y25405D01*
X55491Y25424D01*
X55524Y25438D01*
X55558Y25447D01*
X55593Y25450D01*
X55639Y25446D01*
X55680Y25433D01*
X55718Y25413D01*
X55752Y25385D01*
X55780Y25350D01*
X55800Y25310D01*
X55812Y25266D01*
X55816Y25218D01*
X55813Y25171D01*
X55802Y25127D01*
X55784Y25087D01*
X55760Y25050D01*
X55722Y25012D01*
X55678Y24985D01*
X55628Y24968D01*
X55572Y24963D01*
X55525Y24966D01*
X55483Y24976D01*
X55445Y24994D01*
X55412Y25017D01*
X55385Y25047D01*
X55364Y25081D01*
X55349Y25120D01*
X55342Y25163D01*
X55342Y25163D01*
G37*
%LNtext*%
G36*
X15493Y0701D02*
X15604Y0716D01*
X15616Y0672D01*
X15630Y0634D01*
X15648Y0603D01*
X15670Y0579D01*
X15694Y0561D01*
X15721Y0548D01*
X15750Y0540D01*
X15782Y0537D01*
X15820Y0541D01*
X15855Y0551D01*
X15887Y0568D01*
X15915Y0592D01*
X15939Y0621D01*
X15956Y0653D01*
X15966Y0688D01*
X15970Y0727D01*
X15966Y0764D01*
X15957Y0797D01*
X15941Y0827D01*
X15919Y0854D01*
X15892Y0876D01*
X15862Y0891D01*
X15829Y0901D01*
X15792Y0904D01*
X15775Y0903D01*
X15756Y0901D01*
X15735Y0897D01*
X15713Y0891D01*
X15725Y0989D01*
X15730Y0989D01*
X15735Y0988D01*
X15739Y0988D01*
X15743Y0988D01*
X15778Y0990D01*
X15811Y0997D01*
X15842Y1009D01*
X15872Y1025D01*
X15896Y1046D01*
X15914Y1073D01*
X15925Y1104D01*
X15929Y1140D01*
X15926Y1169D01*
X15918Y1196D01*
X15905Y1220D01*
X15887Y1242D01*
X15865Y1259D01*
X15839Y1272D01*
X15811Y1279D01*
X15780Y1282D01*
X15749Y1279D01*
X15720Y1272D01*
X15694Y1259D01*
X15671Y1241D01*
X15651Y1218D01*
X15636Y1190D01*
X15624Y1157D01*
X15615Y1118D01*
X15504Y1138D01*
X15517Y1191D01*
X15537Y1238D01*
X15564Y1278D01*
X15597Y1312D01*
X15635Y1339D01*
X15678Y1358D01*
X15726Y1370D01*
X15777Y1374D01*
X15814Y1372D01*
X15849Y1366D01*
X15882Y1356D01*
X15914Y1342D01*
X15944Y1324D01*
X15970Y1304D01*
X15992Y1281D01*
X16010Y1255D01*
X16025Y1227D01*
X16035Y1198D01*
X16041Y1168D01*
X16043Y1138D01*
X16041Y1109D01*
X16035Y1081D01*
X16026Y1055D01*
X16012Y1030D01*
X15994Y1007D01*
X15972Y0987D01*
X15947Y0969D01*
X15918Y0953D01*
X15956Y0942D01*
X15990Y0925D01*
X16019Y0903D01*
X16043Y0876D01*
X16063Y0845D01*
X16077Y0810D01*
X16085Y0772D01*
X16088Y0729D01*
X16083Y0672D01*
X16066Y0619D01*
X16039Y0571D01*
X16001Y0528D01*
X15955Y0491D01*
X15903Y0466D01*
X15845Y0450D01*
X15782Y0445D01*
X15724Y0449D01*
X15672Y0463D01*
X15625Y0485D01*
X15583Y0516D01*
X15548Y0554D01*
X15521Y0598D01*
X15502Y0647D01*
X15493Y0701D01*
X15493Y0701D01*
X25665Y1251D02*
X25665Y1358D01*
X26254Y1358D01*
X26254Y1271D01*
X26210Y1221D01*
X26167Y1164D01*
X26124Y1099D01*
X26082Y1026D01*
X26042Y0949D01*
X26006Y0871D01*
X25976Y0791D01*
X25950Y0711D01*
X25935Y0652D01*
X25923Y0591D01*
X25913Y0528D01*
X25907Y0461D01*
X25792Y0461D01*
X25796Y0517D01*
X25804Y0579D01*
X25817Y0647D01*
X25835Y0720D01*
X25857Y0795D01*
X25884Y0869D01*
X25915Y0942D01*
X25950Y1013D01*
X25989Y1081D01*
X26028Y1143D01*
X26069Y1200D01*
X26111Y1251D01*
X25665Y1251D01*
X25665Y1251D01*
X45957Y0461D02*
X45845Y0461D01*
X45845Y1172D01*
X45823Y1153D01*
X45799Y1134D01*
X45771Y1115D01*
X45739Y1095D01*
X45708Y1077D01*
X45677Y1062D01*
X45649Y1048D01*
X45622Y1038D01*
X45622Y1146D01*
X45667Y1169D01*
X45710Y1194D01*
X45749Y1222D01*
X45786Y1252D01*
X45818Y1283D01*
X45845Y1314D01*
X45868Y1344D01*
X45885Y1374D01*
X45957Y1374D01*
X45957Y0461D01*
X45957Y0461D01*
X46243Y0699D02*
X46360Y0709D01*
X46369Y0669D01*
X46381Y0634D01*
X46399Y0605D01*
X46420Y0580D01*
X46445Y0561D01*
X46473Y0548D01*
X46502Y0540D01*
X46535Y0537D01*
X46573Y0541D01*
X46609Y0552D01*
X46642Y0571D01*
X46671Y0598D01*
X46696Y0631D01*
X46713Y0669D01*
X46723Y0711D01*
X46727Y0759D01*
X46724Y0804D01*
X46714Y0845D01*
X46697Y0880D01*
X46673Y0910D01*
X46644Y0934D01*
X46611Y0951D01*
X46574Y0962D01*
X46533Y0965D01*
X46507Y0964D01*
X46482Y0959D01*
X46458Y0951D01*
X46436Y0941D01*
X46415Y0927D01*
X46397Y0912D01*
X46381Y0896D01*
X46367Y0877D01*
X46263Y0891D01*
X46351Y1358D01*
X46803Y1358D01*
X46803Y1251D01*
X46440Y1251D01*
X46391Y1007D01*
X46432Y1032D01*
X46475Y1049D01*
X46518Y1060D01*
X46563Y1064D01*
X46620Y1059D01*
X46672Y1043D01*
X46720Y1017D01*
X46764Y0981D01*
X46799Y0937D01*
X46825Y0887D01*
X46840Y0831D01*
X46845Y0769D01*
X46841Y0710D01*
X46827Y0654D01*
X46805Y0603D01*
X46773Y0556D01*
X46726Y0508D01*
X46670Y0473D01*
X46606Y0452D01*
X46535Y0445D01*
X46476Y0450D01*
X46422Y0463D01*
X46374Y0485D01*
X46332Y0515D01*
X46297Y0552D01*
X46271Y0596D01*
X46252Y0645D01*
X46243Y0699D01*
X46243Y0699D01*
X18375Y0461D02*
X18375Y0679D01*
X17981Y0679D01*
X17981Y0781D01*
X18304Y1241D01*
X18375Y1191D01*
X18090Y0781D01*
X18375Y0781D01*
X18375Y0781D01*
X18375Y1191D01*
X18304Y1241D01*
X18396Y1370D01*
X18487Y1370D01*
X18487Y0781D01*
X18610Y0781D01*
X18610Y0679D01*
X18487Y0679D01*
X18487Y0461D01*
X18375Y0461D01*
X18375Y0461D01*
X33316Y0526D02*
X33204Y0526D01*
X33204Y1237D01*
X33182Y1218D01*
X33157Y1199D01*
X33129Y1179D01*
X33098Y1160D01*
X33066Y1142D01*
X33036Y1126D01*
X33008Y1113D01*
X32981Y1102D01*
X32981Y1210D01*
X33026Y1233D01*
X33069Y1259D01*
X33108Y1287D01*
X33145Y1317D01*
X33177Y1348D01*
X33204Y1379D01*
X33227Y1409D01*
X33244Y1439D01*
X33316Y1439D01*
X33316Y0526D01*
X33316Y0526D01*
X33602Y0974D02*
X33604Y1051D01*
X33610Y1120D01*
X33620Y1180D01*
X33635Y1234D01*
X33653Y1280D01*
X33676Y1321D01*
X33703Y1356D01*
X33733Y1385D01*
X33768Y1409D01*
X33807Y1425D01*
X33850Y1435D01*
X33898Y1439D01*
X33933Y1437D01*
X33967Y1431D01*
X33998Y1422D01*
X34026Y1409D01*
X34053Y1393D01*
X34077Y1373D01*
X34098Y1350D01*
X34117Y1324D01*
X34135Y1295D01*
X34150Y1263D01*
X34163Y1227D01*
X34174Y1189D01*
X34183Y1146D01*
X34189Y1095D01*
X34193Y1038D01*
X34194Y0974D01*
X34192Y0898D01*
X34186Y0829D01*
X34176Y0769D01*
X34162Y0716D01*
X34143Y0669D01*
X34121Y0629D01*
X34094Y0593D01*
X34063Y0564D01*
X34028Y0540D01*
X33989Y0524D01*
X33946Y0514D01*
X33898Y0510D01*
X33889Y0511D01*
X33898Y0602D01*
X33935Y0607D01*
X33969Y0621D01*
X34000Y0644D01*
X34027Y0676D01*
X34050Y0723D01*
X34067Y0788D01*
X34076Y0872D01*
X34080Y0974D01*
X34076Y1077D01*
X34067Y1161D01*
X34050Y1226D01*
X34027Y1272D01*
X33999Y1305D01*
X33968Y1328D01*
X33934Y1342D01*
X33897Y1346D01*
X33860Y1342D01*
X33828Y1330D01*
X33799Y1309D01*
X33774Y1281D01*
X33749Y1231D01*
X33731Y1163D01*
X33720Y1077D01*
X33716Y0974D01*
X33716Y0974D01*
X33720Y0871D01*
X33729Y0788D01*
X33746Y0722D01*
X33769Y0676D01*
X33796Y0644D01*
X33827Y0621D01*
X33861Y0607D01*
X33898Y0602D01*
X33889Y0511D01*
X33836Y0516D01*
X33781Y0534D01*
X33733Y0563D01*
X33691Y0604D01*
X33652Y0670D01*
X33624Y0754D01*
X33607Y0855D01*
X33602Y0974D01*
X33602Y0974D01*
X38366Y0461D02*
X38255Y0461D01*
X38255Y1172D01*
X38233Y1153D01*
X38208Y1134D01*
X38180Y1115D01*
X38149Y1095D01*
X38117Y1077D01*
X38087Y1062D01*
X38058Y1048D01*
X38031Y1038D01*
X38031Y1146D01*
X38077Y1169D01*
X38119Y1194D01*
X38159Y1222D01*
X38195Y1252D01*
X38228Y1283D01*
X38255Y1314D01*
X38277Y1344D01*
X38294Y1374D01*
X38366Y1374D01*
X38366Y0461D01*
X38366Y0461D01*
X39239Y0568D02*
X39239Y0461D01*
X38638Y0461D01*
X38638Y0481D01*
X38640Y0500D01*
X38645Y0520D01*
X38651Y0538D01*
X38664Y0569D01*
X38681Y0599D01*
X38701Y0630D01*
X38724Y0659D01*
X38752Y0690D01*
X38786Y0724D01*
X38825Y0759D01*
X38870Y0797D01*
X38938Y0855D01*
X38995Y0906D01*
X39039Y0951D01*
X39071Y0990D01*
X39093Y1025D01*
X39110Y1059D01*
X39120Y1092D01*
X39123Y1124D01*
X39120Y1156D01*
X39111Y1185D01*
X39096Y1212D01*
X39075Y1236D01*
X39050Y1256D01*
X39021Y1270D01*
X38988Y1279D01*
X38952Y1281D01*
X38913Y1278D01*
X38879Y1269D01*
X38849Y1254D01*
X38823Y1233D01*
X38801Y1206D01*
X38786Y1175D01*
X38777Y1140D01*
X38774Y1099D01*
X38659Y1111D01*
X38669Y1171D01*
X38687Y1224D01*
X38713Y1269D01*
X38748Y1306D01*
X38789Y1336D01*
X38838Y1357D01*
X38893Y1370D01*
X38954Y1374D01*
X39016Y1369D01*
X39071Y1356D01*
X39120Y1333D01*
X39161Y1301D01*
X39195Y1263D01*
X39218Y1220D01*
X39233Y1173D01*
X39237Y1121D01*
X39236Y1094D01*
X39232Y1067D01*
X39225Y1041D01*
X39215Y1014D01*
X39202Y0987D01*
X39185Y0960D01*
X39165Y0932D01*
X39141Y0903D01*
X39111Y0871D01*
X39072Y0834D01*
X39025Y0791D01*
X38969Y0743D01*
X38923Y0704D01*
X38887Y0672D01*
X38859Y0647D01*
X38840Y0629D01*
X38826Y0614D01*
X38814Y0599D01*
X38803Y0583D01*
X38793Y0568D01*
X39239Y0568D01*
X39239Y0568D01*
X23712Y1147D02*
X23601Y1139D01*
X23593Y1169D01*
X23583Y1195D01*
X23571Y1217D01*
X23559Y1234D01*
X23535Y1255D01*
X23508Y1270D01*
X23479Y1279D01*
X23447Y1282D01*
X23421Y1280D01*
X23397Y1275D01*
X23374Y1265D01*
X23353Y1252D01*
X23328Y1231D01*
X23306Y1205D01*
X23287Y1175D01*
X23270Y1140D01*
X23257Y1099D01*
X23247Y1051D01*
X23241Y0994D01*
X23239Y0930D01*
X23297Y0883D01*
X23286Y0869D01*
X23269Y0835D01*
X23259Y0797D01*
X23256Y0756D01*
X23256Y0756D01*
X23258Y0727D01*
X23262Y0699D01*
X23270Y0672D01*
X23280Y0645D01*
X23294Y0620D01*
X23310Y0599D01*
X23328Y0580D01*
X23349Y0565D01*
X23371Y0553D01*
X23394Y0544D01*
X23418Y0539D01*
X23441Y0537D01*
X23476Y0541D01*
X23507Y0551D01*
X23536Y0569D01*
X23563Y0594D01*
X23585Y0625D01*
X23601Y0662D01*
X23611Y0703D01*
X23614Y0749D01*
X23611Y0794D01*
X23601Y0834D01*
X23586Y0868D01*
X23564Y0898D01*
X23537Y0922D01*
X23507Y0939D01*
X23474Y0949D01*
X23437Y0952D01*
X23401Y0949D01*
X23367Y0939D01*
X23337Y0922D01*
X23309Y0898D01*
X23297Y0883D01*
X23239Y0930D01*
X23260Y0958D01*
X23283Y0983D01*
X23309Y1004D01*
X23337Y1021D01*
X23367Y1034D01*
X23397Y1043D01*
X23428Y1049D01*
X23459Y1051D01*
X23513Y1046D01*
X23563Y1030D01*
X23608Y1004D01*
X23649Y0969D01*
X23684Y0924D01*
X23708Y0874D01*
X23723Y0818D01*
X23728Y0756D01*
X23726Y0714D01*
X23719Y0674D01*
X23707Y0635D01*
X23691Y0597D01*
X23671Y0562D01*
X23647Y0532D01*
X23620Y0506D01*
X23590Y0485D01*
X23556Y0467D01*
X23521Y0455D01*
X23483Y0448D01*
X23443Y0445D01*
X23377Y0452D01*
X23317Y0471D01*
X23263Y0503D01*
X23216Y0548D01*
X23177Y0608D01*
X23150Y0684D01*
X23133Y0777D01*
X23128Y0886D01*
X23134Y1009D01*
X23152Y1114D01*
X23182Y1201D01*
X23225Y1270D01*
X23271Y1315D01*
X23325Y1348D01*
X23386Y1367D01*
X23454Y1374D01*
X23505Y1370D01*
X23551Y1359D01*
X23593Y1340D01*
X23630Y1314D01*
X23660Y1281D01*
X23684Y1242D01*
X23702Y1198D01*
X23712Y1147D01*
X23712Y1147D01*
X20607Y0699D02*
X20725Y0709D01*
X20733Y0669D01*
X20746Y0634D01*
X20763Y0605D01*
X20785Y0580D01*
X20810Y0561D01*
X20837Y0548D01*
X20867Y0540D01*
X20899Y0537D01*
X20938Y0541D01*
X20974Y0552D01*
X21006Y0571D01*
X21036Y0598D01*
X21060Y0631D01*
X21078Y0669D01*
X21088Y0711D01*
X21092Y0759D01*
X21088Y0804D01*
X21078Y0845D01*
X21061Y0880D01*
X21038Y0910D01*
X21009Y0934D01*
X20976Y0951D01*
X20939Y0962D01*
X20898Y0965D01*
X20871Y0964D01*
X20846Y0959D01*
X20823Y0951D01*
X20800Y0941D01*
X20780Y0927D01*
X20761Y0912D01*
X20746Y0896D01*
X20732Y0877D01*
X20627Y0891D01*
X20715Y1358D01*
X21167Y1358D01*
X21167Y1251D01*
X20805Y1251D01*
X20756Y1007D01*
X20797Y1032D01*
X20839Y1049D01*
X20883Y1060D01*
X20927Y1064D01*
X20985Y1059D01*
X21037Y1043D01*
X21085Y1017D01*
X21128Y0981D01*
X21164Y0937D01*
X21190Y0887D01*
X21205Y0831D01*
X21210Y0769D01*
X21206Y0710D01*
X21192Y0654D01*
X21170Y0603D01*
X21138Y0556D01*
X21090Y0508D01*
X21035Y0473D01*
X20971Y0452D01*
X20899Y0445D01*
X20840Y0450D01*
X20787Y0463D01*
X20739Y0485D01*
X20697Y0515D01*
X20662Y0552D01*
X20635Y0596D01*
X20617Y0645D01*
X20607Y0699D01*
X20607Y0699D01*
X40892Y0461D02*
X40780Y0461D01*
X40780Y1172D01*
X40758Y1153D01*
X40733Y1134D01*
X40705Y1115D01*
X40674Y1095D01*
X40642Y1077D01*
X40612Y1062D01*
X40584Y1048D01*
X40557Y1038D01*
X40557Y1146D01*
X40602Y1169D01*
X40644Y1194D01*
X40684Y1222D01*
X40720Y1252D01*
X40753Y1283D01*
X40780Y1314D01*
X40802Y1344D01*
X40820Y1374D01*
X40892Y1374D01*
X40892Y0461D01*
X40892Y0461D01*
X41178Y0701D02*
X41290Y0716D01*
X41301Y0672D01*
X41316Y0634D01*
X41334Y0603D01*
X41355Y0579D01*
X41379Y0561D01*
X41406Y0548D01*
X41436Y0540D01*
X41468Y0537D01*
X41505Y0541D01*
X41540Y0551D01*
X41572Y0568D01*
X41601Y0592D01*
X41624Y0621D01*
X41641Y0653D01*
X41651Y0688D01*
X41655Y0727D01*
X41652Y0764D01*
X41642Y0797D01*
X41627Y0827D01*
X41605Y0854D01*
X41578Y0876D01*
X41548Y0891D01*
X41514Y0901D01*
X41477Y0904D01*
X41460Y0903D01*
X41441Y0901D01*
X41421Y0897D01*
X41398Y0891D01*
X41411Y0989D01*
X41416Y0989D01*
X41421Y0988D01*
X41425Y0988D01*
X41429Y0988D01*
X41463Y0990D01*
X41496Y0997D01*
X41527Y1009D01*
X41557Y1025D01*
X41582Y1046D01*
X41600Y1073D01*
X41610Y1104D01*
X41614Y1140D01*
X41611Y1169D01*
X41604Y1196D01*
X41591Y1220D01*
X41572Y1242D01*
X41550Y1259D01*
X41525Y1272D01*
X41496Y1279D01*
X41465Y1282D01*
X41434Y1279D01*
X41405Y1272D01*
X41380Y1259D01*
X41357Y1241D01*
X41337Y1218D01*
X41321Y1190D01*
X41309Y1157D01*
X41301Y1118D01*
X41189Y1138D01*
X41203Y1191D01*
X41223Y1238D01*
X41249Y1278D01*
X41282Y1312D01*
X41321Y1339D01*
X41364Y1358D01*
X41411Y1370D01*
X41463Y1374D01*
X41499Y1372D01*
X41534Y1366D01*
X41568Y1356D01*
X41600Y1342D01*
X41629Y1324D01*
X41655Y1304D01*
X41677Y1281D01*
X41695Y1255D01*
X41710Y1227D01*
X41720Y1198D01*
X41727Y1168D01*
X41729Y1138D01*
X41727Y1109D01*
X41721Y1081D01*
X41711Y1055D01*
X41697Y1030D01*
X41679Y1007D01*
X41658Y0987D01*
X41633Y0969D01*
X41603Y0953D01*
X41641Y0942D01*
X41675Y0925D01*
X41704Y0903D01*
X41729Y0876D01*
X41748Y0845D01*
X41762Y0810D01*
X41771Y0772D01*
X41773Y0729D01*
X41768Y0672D01*
X41752Y0619D01*
X41724Y0571D01*
X41687Y0528D01*
X41640Y0491D01*
X41588Y0466D01*
X41530Y0450D01*
X41467Y0445D01*
X41410Y0449D01*
X41357Y0463D01*
X41310Y0485D01*
X41268Y0516D01*
X41233Y0554D01*
X41206Y0598D01*
X41188Y0647D01*
X41178Y0701D01*
X41178Y0701D01*
X13553Y0568D02*
X13553Y0461D01*
X12952Y0461D01*
X12953Y0481D01*
X12955Y0500D01*
X12959Y0520D01*
X12966Y0538D01*
X12979Y0569D01*
X12995Y0599D01*
X13015Y0630D01*
X13039Y0659D01*
X13067Y0690D01*
X13101Y0724D01*
X13140Y0759D01*
X13185Y0797D01*
X13253Y0855D01*
X13309Y0906D01*
X13353Y0951D01*
X13385Y0990D01*
X13408Y1025D01*
X13424Y1059D01*
X13434Y1092D01*
X13437Y1124D01*
X13434Y1156D01*
X13426Y1185D01*
X13411Y1212D01*
X13390Y1236D01*
X13364Y1256D01*
X13335Y1270D01*
X13303Y1279D01*
X13266Y1281D01*
X13228Y1278D01*
X13194Y1269D01*
X13163Y1254D01*
X13137Y1233D01*
X13116Y1206D01*
X13101Y1175D01*
X13092Y1140D01*
X13088Y1099D01*
X12974Y1111D01*
X12984Y1171D01*
X13002Y1224D01*
X13028Y1269D01*
X13062Y1306D01*
X13104Y1336D01*
X13152Y1357D01*
X13207Y1370D01*
X13269Y1374D01*
X13331Y1369D01*
X13386Y1356D01*
X13434Y1333D01*
X13476Y1301D01*
X13509Y1263D01*
X13533Y1220D01*
X13547Y1173D01*
X13552Y1121D01*
X13551Y1094D01*
X13547Y1067D01*
X13540Y1041D01*
X13530Y1014D01*
X13517Y0987D01*
X13500Y0960D01*
X13480Y0932D01*
X13456Y0903D01*
X13426Y0871D01*
X13387Y0834D01*
X13339Y0791D01*
X13284Y0743D01*
X13238Y0704D01*
X13201Y0672D01*
X13173Y0647D01*
X13155Y0629D01*
X13141Y0614D01*
X13129Y0599D01*
X13117Y0583D01*
X13108Y0568D01*
X13553Y0568D01*
X13553Y0568D01*
X10797Y0461D02*
X10686Y0461D01*
X10686Y1172D01*
X10664Y1153D01*
X10639Y1134D01*
X10611Y1115D01*
X10580Y1095D01*
X10548Y1077D01*
X10518Y1062D01*
X10489Y1048D01*
X10462Y1038D01*
X10462Y1146D01*
X10508Y1169D01*
X10550Y1194D01*
X10589Y1222D01*
X10626Y1252D01*
X10658Y1283D01*
X10686Y1314D01*
X10708Y1344D01*
X10725Y1374D01*
X10797Y1374D01*
X10797Y0461D01*
X10797Y0461D01*
X43482Y0396D02*
X43370Y0396D01*
X43370Y1107D01*
X43348Y1088D01*
X43323Y1069D01*
X43295Y1050D01*
X43264Y1031D01*
X43232Y1013D01*
X43202Y0997D01*
X43174Y0984D01*
X43147Y0973D01*
X43147Y1081D01*
X43192Y1104D01*
X43234Y1129D01*
X43274Y1157D01*
X43310Y1187D01*
X43343Y1219D01*
X43370Y1249D01*
X43392Y1279D01*
X43410Y1309D01*
X43482Y1309D01*
X43482Y0396D01*
X43482Y0396D01*
X44125Y0396D02*
X44125Y0614D01*
X43731Y0614D01*
X43731Y0716D01*
X44055Y1176D01*
X44125Y1126D01*
X43841Y0716D01*
X44125Y0716D01*
X44125Y0716D01*
X44125Y1126D01*
X44055Y1176D01*
X44146Y1305D01*
X44237Y1305D01*
X44237Y0716D01*
X44360Y0716D01*
X44360Y0614D01*
X44237Y0614D01*
X44237Y0396D01*
X44125Y0396D01*
X44125Y0396D01*
X35973Y0500D02*
X35862Y0500D01*
X35862Y1211D01*
X35840Y1192D01*
X35815Y1173D01*
X35787Y1154D01*
X35756Y1134D01*
X35724Y1116D01*
X35694Y1101D01*
X35665Y1088D01*
X35638Y1077D01*
X35638Y1185D01*
X35684Y1208D01*
X35726Y1233D01*
X35765Y1261D01*
X35802Y1291D01*
X35834Y1322D01*
X35862Y1353D01*
X35884Y1383D01*
X35901Y1413D01*
X35973Y1413D01*
X35973Y0500D01*
X35973Y0500D01*
X36585Y0500D02*
X36474Y0500D01*
X36474Y1211D01*
X36452Y1192D01*
X36427Y1173D01*
X36399Y1154D01*
X36368Y1134D01*
X36336Y1116D01*
X36306Y1101D01*
X36277Y1088D01*
X36250Y1077D01*
X36250Y1185D01*
X36296Y1208D01*
X36338Y1233D01*
X36378Y1261D01*
X36414Y1291D01*
X36447Y1322D01*
X36474Y1353D01*
X36496Y1383D01*
X36513Y1413D01*
X36585Y1413D01*
X36585Y0500D01*
X36585Y0500D01*
X30775Y0736D02*
X30882Y0746D01*
X30891Y0711D01*
X30902Y0681D01*
X30917Y0656D01*
X30935Y0636D01*
X30955Y0621D01*
X30978Y0611D01*
X31004Y0604D01*
X31033Y0602D01*
X31058Y0603D01*
X31081Y0608D01*
X31103Y0615D01*
X31123Y0626D01*
X31142Y0638D01*
X31159Y0653D01*
X31174Y0670D01*
X31187Y0688D01*
X31199Y0710D01*
X31210Y0735D01*
X31220Y0763D01*
X31229Y0795D01*
X31236Y0828D01*
X31241Y0862D01*
X31244Y0897D01*
X31245Y0931D01*
X31245Y0935D01*
X31245Y0941D01*
X31245Y0947D01*
X31245Y0954D01*
X31188Y0995D01*
X31204Y1017D01*
X31220Y1051D01*
X31229Y1092D01*
X31232Y1137D01*
X31232Y1137D01*
X31229Y1183D01*
X31219Y1223D01*
X31203Y1259D01*
X31181Y1290D01*
X31154Y1314D01*
X31125Y1332D01*
X31093Y1343D01*
X31058Y1346D01*
X31022Y1342D01*
X30988Y1331D01*
X30957Y1312D01*
X30928Y1285D01*
X30904Y1253D01*
X30887Y1216D01*
X30877Y1174D01*
X30873Y1128D01*
X30876Y1086D01*
X30886Y1049D01*
X30903Y1016D01*
X30926Y0987D01*
X30953Y0963D01*
X30984Y0946D01*
X31018Y0936D01*
X31055Y0933D01*
X31092Y0936D01*
X31125Y0946D01*
X31156Y0963D01*
X31182Y0987D01*
X31188Y0995D01*
X31245Y0954D01*
X31226Y0928D01*
X31205Y0905D01*
X31181Y0885D01*
X31153Y0867D01*
X31124Y0853D01*
X31093Y0842D01*
X31061Y0836D01*
X31028Y0834D01*
X30973Y0839D01*
X30923Y0854D01*
X30878Y0880D01*
X30837Y0916D01*
X30802Y0960D01*
X30778Y1011D01*
X30763Y1068D01*
X30758Y1132D01*
X30764Y1197D01*
X30779Y1256D01*
X30804Y1309D01*
X30840Y1354D01*
X30883Y1391D01*
X30932Y1417D01*
X30986Y1433D01*
X31044Y1439D01*
X31088Y1436D01*
X31129Y1427D01*
X31169Y1412D01*
X31206Y1391D01*
X31241Y1364D01*
X31271Y1333D01*
X31297Y1296D01*
X31318Y1255D01*
X31335Y1206D01*
X31347Y1147D01*
X31354Y1078D01*
X31356Y0999D01*
X31354Y0916D01*
X31347Y0842D01*
X31335Y0777D01*
X31318Y0721D01*
X31297Y0673D01*
X31271Y0630D01*
X31241Y0594D01*
X31206Y0564D01*
X31167Y0541D01*
X31125Y0524D01*
X31079Y0514D01*
X31031Y0510D01*
X30980Y0514D01*
X30934Y0525D01*
X30893Y0544D01*
X30856Y0569D01*
X30826Y0602D01*
X30802Y0641D01*
X30785Y0685D01*
X30775Y0736D01*
X30775Y0736D01*
X28420Y1019D02*
X28456Y0949D01*
X28441Y0941D01*
X28413Y0918D01*
X28391Y0891D01*
X28374Y0860D01*
X28365Y0825D01*
X28361Y0788D01*
X28361Y0788D01*
X28363Y0764D01*
X28367Y0741D01*
X28374Y0718D01*
X28384Y0696D01*
X28397Y0675D01*
X28412Y0656D01*
X28430Y0640D01*
X28451Y0626D01*
X28474Y0616D01*
X28498Y0608D01*
X28522Y0604D01*
X28547Y0602D01*
X28586Y0605D01*
X28620Y0615D01*
X28652Y0631D01*
X28680Y0653D01*
X28702Y0681D01*
X28719Y0712D01*
X28728Y0746D01*
X28732Y0784D01*
X28728Y0823D01*
X28718Y0858D01*
X28701Y0890D01*
X28678Y0918D01*
X28649Y0941D01*
X28618Y0957D01*
X28582Y0967D01*
X28544Y0970D01*
X28506Y0967D01*
X28472Y0957D01*
X28456Y0949D01*
X28420Y1019D01*
X28461Y1085D01*
X28487Y1072D01*
X28515Y1064D01*
X28547Y1061D01*
X28578Y1064D01*
X28605Y1072D01*
X28630Y1084D01*
X28653Y1102D01*
X28671Y1124D01*
X28683Y1147D01*
X28691Y1173D01*
X28694Y1202D01*
X28691Y1231D01*
X28683Y1258D01*
X28670Y1283D01*
X28651Y1305D01*
X28629Y1323D01*
X28604Y1336D01*
X28576Y1344D01*
X28546Y1347D01*
X28515Y1344D01*
X28487Y1337D01*
X28462Y1324D01*
X28440Y1306D01*
X28421Y1284D01*
X28408Y1261D01*
X28400Y1235D01*
X28397Y1208D01*
X28397Y1208D01*
X28400Y1177D01*
X28408Y1149D01*
X28421Y1124D01*
X28439Y1102D01*
X28461Y1085D01*
X28420Y1019D01*
X28387Y1033D01*
X28359Y1050D01*
X28336Y1069D01*
X28317Y1091D01*
X28302Y1116D01*
X28292Y1143D01*
X28285Y1172D01*
X28283Y1204D01*
X28288Y1252D01*
X28301Y1295D01*
X28323Y1335D01*
X28355Y1371D01*
X28393Y1401D01*
X28438Y1422D01*
X28488Y1434D01*
X28544Y1439D01*
X28601Y1434D01*
X28652Y1421D01*
X28697Y1400D01*
X28736Y1369D01*
X28768Y1333D01*
X28790Y1293D01*
X28804Y1249D01*
X28808Y1201D01*
X28806Y1170D01*
X28800Y1142D01*
X28790Y1115D01*
X28775Y1091D01*
X28757Y1069D01*
X28734Y1049D01*
X28706Y1033D01*
X28675Y1019D01*
X28714Y1003D01*
X28748Y0983D01*
X28778Y0959D01*
X28802Y0931D01*
X28821Y0899D01*
X28835Y0864D01*
X28843Y0826D01*
X28846Y0786D01*
X28841Y0730D01*
X28825Y0678D01*
X28799Y0632D01*
X28763Y0590D01*
X28719Y0555D01*
X28668Y0530D01*
X28610Y0515D01*
X28546Y0510D01*
X28482Y0515D01*
X28425Y0530D01*
X28374Y0555D01*
X28329Y0590D01*
X28293Y0632D01*
X28267Y0679D01*
X28252Y0732D01*
X28247Y0789D01*
X28249Y0831D01*
X28258Y0870D01*
X28272Y0905D01*
X28292Y0937D01*
X28316Y0965D01*
X28346Y0987D01*
X28381Y1005D01*
X28420Y1019D01*
X28420Y1019D01*
X10411Y47109D02*
X10668Y47145D01*
X10677Y47031D01*
X10696Y46937D01*
X10724Y46863D01*
X10760Y46808D01*
X10805Y46768D01*
X10858Y46740D01*
X10919Y46722D01*
X10987Y46717D01*
X11039Y46720D01*
X11087Y46729D01*
X11131Y46744D01*
X11172Y46766D01*
X11207Y46793D01*
X11237Y46824D01*
X11261Y46859D01*
X11279Y46899D01*
X11291Y46948D01*
X11301Y47008D01*
X11306Y47082D01*
X11308Y47168D01*
X11308Y48647D01*
X11592Y48647D01*
X11592Y47184D01*
X11588Y47057D01*
X11576Y46945D01*
X11555Y46848D01*
X11527Y46767D01*
X11490Y46697D01*
X11443Y46636D01*
X11386Y46584D01*
X11320Y46541D01*
X11247Y46507D01*
X11167Y46483D01*
X11081Y46468D01*
X10989Y46463D01*
X10856Y46474D01*
X10739Y46504D01*
X10639Y46555D01*
X10556Y46626D01*
X10490Y46717D01*
X10445Y46828D01*
X10418Y46959D01*
X10411Y47109D01*
X10411Y47109D01*
X11960Y47190D02*
X12228Y47213D01*
X12241Y47136D01*
X12260Y47067D01*
X12285Y47004D01*
X12317Y46949D01*
X12356Y46900D01*
X12405Y46856D01*
X12464Y46816D01*
X12533Y46782D01*
X12608Y46754D01*
X12688Y46734D01*
X12773Y46722D01*
X12862Y46718D01*
X12941Y46721D01*
X13015Y46730D01*
X13085Y46745D01*
X13149Y46767D01*
X13208Y46793D01*
X13258Y46824D01*
X13300Y46859D01*
X13335Y46899D01*
X13361Y46942D01*
X13380Y46987D01*
X13392Y47034D01*
X13395Y47083D01*
X13392Y47132D01*
X13381Y47178D01*
X13362Y47220D01*
X13337Y47260D01*
X13303Y47296D01*
X13259Y47329D01*
X13206Y47359D01*
X13143Y47386D01*
X13087Y47405D01*
X13005Y47429D01*
X12896Y47458D01*
X12761Y47491D01*
X12624Y47526D01*
X12510Y47560D01*
X12417Y47593D01*
X12347Y47625D01*
X12275Y47668D01*
X12212Y47715D01*
X12160Y47768D01*
X12117Y47825D01*
X12084Y47886D01*
X12061Y47951D01*
X12047Y48020D01*
X12042Y48092D01*
X12048Y48172D01*
X12065Y48250D01*
X12094Y48324D01*
X12134Y48396D01*
X12186Y48463D01*
X12248Y48521D01*
X12320Y48570D01*
X12404Y48611D01*
X12495Y48643D01*
X12591Y48666D01*
X12692Y48680D01*
X12798Y48684D01*
X12914Y48679D01*
X13022Y48665D01*
X13124Y48641D01*
X13219Y48607D01*
X13305Y48564D01*
X13380Y48512D01*
X13445Y48451D01*
X13499Y48381D01*
X13543Y48304D01*
X13575Y48222D01*
X13596Y48134D01*
X13605Y48042D01*
X13332Y48022D01*
X13315Y48118D01*
X13284Y48201D01*
X13241Y48271D01*
X13184Y48330D01*
X13113Y48375D01*
X13027Y48408D01*
X12926Y48427D01*
X12809Y48434D01*
X12689Y48428D01*
X12587Y48410D01*
X12501Y48380D01*
X12434Y48339D01*
X12382Y48289D01*
X12345Y48235D01*
X12323Y48176D01*
X12316Y48111D01*
X12321Y48056D01*
X12337Y48006D01*
X12363Y47961D01*
X12399Y47921D01*
X12457Y47883D01*
X12547Y47845D01*
X12671Y47807D01*
X12828Y47768D01*
X12987Y47730D01*
X13120Y47694D01*
X13225Y47661D01*
X13303Y47631D01*
X13391Y47585D01*
X13466Y47533D01*
X13529Y47475D01*
X13580Y47412D01*
X13619Y47343D01*
X13647Y47269D01*
X13664Y47190D01*
X13669Y47106D01*
X13663Y47022D01*
X13645Y46940D01*
X13614Y46860D01*
X13571Y46783D01*
X13517Y46712D01*
X13452Y46649D01*
X13376Y46594D01*
X13289Y46548D01*
X13194Y46511D01*
X13094Y46484D01*
X12987Y46469D01*
X12875Y46463D01*
X12736Y46469D01*
X12608Y46485D01*
X12491Y46511D01*
X12387Y46548D01*
X12294Y46596D01*
X12211Y46655D01*
X12139Y46724D01*
X12078Y46804D01*
X12028Y46892D01*
X11992Y46986D01*
X11969Y47085D01*
X11960Y47190D01*
X11960Y47190D01*
X14604Y46500D02*
X14604Y48394D01*
X13896Y48394D01*
X13896Y48647D01*
X15599Y48647D01*
X15599Y48394D01*
X14888Y48394D01*
X14888Y46500D01*
X14604Y46500D01*
X14604Y46500D01*
X15588Y47145D02*
X15588Y47410D01*
X16398Y47410D01*
X16398Y47145D01*
X15588Y47145D01*
X15588Y47145D01*
X16729Y46500D02*
X16729Y48647D01*
X18282Y48647D01*
X18282Y48394D01*
X17014Y48394D01*
X17014Y47736D01*
X18202Y47736D01*
X18202Y47484D01*
X17014Y47484D01*
X17014Y46753D01*
X18332Y46753D01*
X18332Y46500D01*
X16729Y46500D01*
X16729Y46500D01*
X18733Y46500D02*
X18733Y48647D01*
X19017Y48647D01*
X19017Y47766D01*
X20134Y47766D01*
X20134Y48647D01*
X20418Y48647D01*
X20418Y46500D01*
X20134Y46500D01*
X20134Y47512D01*
X19017Y47512D01*
X19017Y46500D01*
X18733Y46500D01*
X18733Y46500D01*
X22706Y46692D02*
X22633Y46634D01*
X22623Y46627D01*
X22523Y46774D01*
X22570Y46817D01*
X22610Y46866D01*
X22642Y46920D01*
X22660Y46970D01*
X22673Y47031D01*
X22681Y47102D01*
X22684Y47184D01*
X22684Y47281D01*
X22684Y47281D01*
X22603Y47253D01*
X22505Y47227D01*
X22388Y47203D01*
X22253Y47181D01*
X22178Y47169D01*
X22115Y47156D01*
X22063Y47143D01*
X22023Y47128D01*
X21992Y47112D01*
X21964Y47092D01*
X21940Y47069D01*
X21919Y47043D01*
X21903Y47014D01*
X21892Y46983D01*
X21885Y46951D01*
X21883Y46917D01*
X21888Y46867D01*
X21903Y46821D01*
X21928Y46779D01*
X21963Y46742D01*
X22007Y46711D01*
X22061Y46689D01*
X22124Y46676D01*
X22196Y46671D01*
X22270Y46676D01*
X22340Y46688D01*
X22406Y46709D01*
X22467Y46738D01*
X22523Y46774D01*
X22623Y46627D01*
X22562Y46586D01*
X22492Y46546D01*
X22424Y46516D01*
X22355Y46494D01*
X22284Y46478D01*
X22210Y46468D01*
X22133Y46465D01*
X22012Y46473D01*
X21907Y46496D01*
X21815Y46535D01*
X21739Y46590D01*
X21679Y46657D01*
X21636Y46733D01*
X21610Y46817D01*
X21601Y46910D01*
X21605Y46966D01*
X21614Y47019D01*
X21631Y47070D01*
X21653Y47119D01*
X21681Y47164D01*
X21714Y47204D01*
X21750Y47240D01*
X21790Y47271D01*
X21833Y47297D01*
X21879Y47321D01*
X21928Y47341D01*
X21979Y47357D01*
X22023Y47367D01*
X22077Y47377D01*
X22140Y47387D01*
X22214Y47396D01*
X22363Y47416D01*
X22491Y47438D01*
X22598Y47462D01*
X22684Y47487D01*
X22685Y47512D01*
X22685Y47532D01*
X22685Y47546D01*
X22685Y47556D01*
X22681Y47631D01*
X22667Y47693D01*
X22643Y47744D01*
X22611Y47783D01*
X22554Y47822D01*
X22485Y47850D01*
X22404Y47867D01*
X22310Y47873D01*
X22224Y47868D01*
X22149Y47856D01*
X22086Y47836D01*
X22036Y47807D01*
X21994Y47769D01*
X21959Y47717D01*
X21929Y47653D01*
X21905Y47577D01*
X21647Y47612D01*
X21667Y47691D01*
X21693Y47761D01*
X21725Y47824D01*
X21763Y47879D01*
X21807Y47927D01*
X21861Y47969D01*
X21924Y48005D01*
X21996Y48036D01*
X22075Y48060D01*
X22160Y48077D01*
X22251Y48087D01*
X22349Y48091D01*
X22443Y48088D01*
X22529Y48079D01*
X22605Y48064D01*
X22672Y48044D01*
X22730Y48019D01*
X22780Y47991D01*
X22822Y47960D01*
X22855Y47926D01*
X22882Y47888D01*
X22905Y47846D01*
X22923Y47798D01*
X22937Y47747D01*
X22943Y47706D01*
X22947Y47652D01*
X22950Y47585D01*
X22951Y47503D01*
X22951Y47152D01*
X22952Y46985D01*
X22955Y46852D01*
X22960Y46752D01*
X22967Y46687D01*
X22978Y46639D01*
X22993Y46591D01*
X23011Y46545D01*
X23034Y46500D01*
X22759Y46500D01*
X22740Y46543D01*
X22725Y46589D01*
X22714Y46639D01*
X22706Y46692D01*
X22706Y46692D01*
X24369Y46500D02*
X24369Y46696D01*
X24249Y46820D01*
X24252Y46823D01*
X24305Y46903D01*
X24343Y47002D01*
X24365Y47119D01*
X24373Y47254D01*
X24365Y47403D01*
X24342Y47531D01*
X24304Y47638D01*
X24250Y47723D01*
X24185Y47789D01*
X24113Y47835D01*
X24033Y47863D01*
X23947Y47873D01*
X23862Y47864D01*
X23785Y47837D01*
X23716Y47792D01*
X23653Y47729D01*
X23601Y47647D01*
X23565Y47544D01*
X23542Y47421D01*
X23535Y47276D01*
X23535Y47276D01*
X23543Y47136D01*
X23567Y47015D01*
X23606Y46913D01*
X23661Y46830D01*
X23727Y46765D01*
X23798Y46719D01*
X23876Y46691D01*
X23958Y46682D01*
X24042Y46690D01*
X24118Y46717D01*
X24188Y46761D01*
X24249Y46820D01*
X24369Y46696D01*
X24286Y46595D01*
X24186Y46523D01*
X24068Y46479D01*
X23934Y46465D01*
X23842Y46471D01*
X23755Y46490D01*
X23671Y46523D01*
X23591Y46567D01*
X23518Y46624D01*
X23453Y46690D01*
X23397Y46767D01*
X23350Y46854D01*
X23312Y46949D01*
X23286Y47051D01*
X23269Y47160D01*
X23264Y47276D01*
X23269Y47390D01*
X23283Y47498D01*
X23308Y47601D01*
X23342Y47699D01*
X23385Y47788D01*
X23439Y47867D01*
X23502Y47934D01*
X23575Y47990D01*
X23655Y48034D01*
X23739Y48066D01*
X23828Y48085D01*
X23922Y48091D01*
X23990Y48087D01*
X24055Y48076D01*
X24115Y48057D01*
X24172Y48031D01*
X24225Y48000D01*
X24272Y47963D01*
X24314Y47922D01*
X24351Y47877D01*
X24351Y48647D01*
X24613Y48647D01*
X24613Y46500D01*
X24369Y46500D01*
X24369Y46500D01*
X26043Y46692D02*
X25970Y46634D01*
X25960Y46627D01*
X25860Y46774D01*
X25907Y46817D01*
X25947Y46866D01*
X25978Y46920D01*
X25997Y46970D01*
X26010Y47031D01*
X26018Y47102D01*
X26021Y47184D01*
X26021Y47281D01*
X26021Y47281D01*
X25940Y47253D01*
X25841Y47227D01*
X25725Y47203D01*
X25590Y47181D01*
X25515Y47169D01*
X25451Y47156D01*
X25400Y47143D01*
X25360Y47128D01*
X25329Y47112D01*
X25301Y47092D01*
X25277Y47069D01*
X25256Y47043D01*
X25240Y47014D01*
X25229Y46983D01*
X25222Y46951D01*
X25220Y46917D01*
X25225Y46867D01*
X25240Y46821D01*
X25265Y46779D01*
X25300Y46742D01*
X25344Y46711D01*
X25398Y46689D01*
X25461Y46676D01*
X25533Y46671D01*
X25607Y46676D01*
X25677Y46688D01*
X25743Y46709D01*
X25804Y46738D01*
X25860Y46774D01*
X25960Y46627D01*
X25899Y46586D01*
X25829Y46546D01*
X25761Y46516D01*
X25692Y46494D01*
X25620Y46478D01*
X25547Y46468D01*
X25470Y46465D01*
X25349Y46473D01*
X25243Y46496D01*
X25152Y46535D01*
X25076Y46590D01*
X25016Y46657D01*
X24973Y46733D01*
X24947Y46817D01*
X24938Y46910D01*
X24942Y46966D01*
X24951Y47019D01*
X24968Y47070D01*
X24990Y47119D01*
X25018Y47164D01*
X25050Y47204D01*
X25087Y47240D01*
X25127Y47271D01*
X25170Y47297D01*
X25216Y47321D01*
X25265Y47341D01*
X25316Y47357D01*
X25360Y47367D01*
X25414Y47377D01*
X25477Y47387D01*
X25551Y47396D01*
X25700Y47416D01*
X25828Y47438D01*
X25935Y47462D01*
X26021Y47487D01*
X26022Y47512D01*
X26022Y47532D01*
X26022Y47546D01*
X26022Y47556D01*
X26018Y47631D01*
X26004Y47693D01*
X25980Y47744D01*
X25948Y47783D01*
X25891Y47822D01*
X25822Y47850D01*
X25741Y47867D01*
X25647Y47873D01*
X25560Y47868D01*
X25486Y47856D01*
X25423Y47836D01*
X25373Y47807D01*
X25331Y47769D01*
X25296Y47717D01*
X25266Y47653D01*
X25242Y47577D01*
X24984Y47612D01*
X25004Y47691D01*
X25030Y47761D01*
X25062Y47824D01*
X25100Y47879D01*
X25144Y47927D01*
X25198Y47969D01*
X25261Y48005D01*
X25332Y48036D01*
X25412Y48060D01*
X25497Y48077D01*
X25588Y48087D01*
X25685Y48091D01*
X25780Y48088D01*
X25866Y48079D01*
X25942Y48064D01*
X26009Y48044D01*
X26067Y48019D01*
X26117Y47991D01*
X26159Y47960D01*
X26192Y47926D01*
X26219Y47888D01*
X26242Y47846D01*
X26260Y47798D01*
X26274Y47747D01*
X26280Y47706D01*
X26284Y47652D01*
X26287Y47585D01*
X26288Y47503D01*
X26288Y47152D01*
X26289Y46985D01*
X26292Y46852D01*
X26297Y46752D01*
X26304Y46687D01*
X26315Y46639D01*
X26329Y46591D01*
X26348Y46545D01*
X26371Y46500D01*
X26096Y46500D01*
X26077Y46543D01*
X26062Y46589D01*
X26051Y46639D01*
X26043Y46692D01*
X26043Y46692D01*
X26696Y45904D02*
X26696Y48056D01*
X26936Y48056D01*
X26936Y47854D01*
X27065Y47728D01*
X27065Y47727D01*
X27008Y47639D01*
X26967Y47534D01*
X26943Y47410D01*
X26935Y47269D01*
X26935Y47269D01*
X26943Y47129D01*
X26965Y47008D01*
X27003Y46907D01*
X27057Y46825D01*
X27121Y46762D01*
X27191Y46718D01*
X27268Y46691D01*
X27351Y46682D01*
X27436Y46691D01*
X27514Y46719D01*
X27586Y46765D01*
X27652Y46830D01*
X27707Y46915D01*
X27746Y47020D01*
X27769Y47145D01*
X27777Y47291D01*
X27770Y47430D01*
X27747Y47551D01*
X27709Y47653D01*
X27655Y47736D01*
X27591Y47801D01*
X27521Y47847D01*
X27445Y47875D01*
X27363Y47884D01*
X27281Y47874D01*
X27204Y47845D01*
X27132Y47796D01*
X27065Y47728D01*
X26936Y47854D01*
X26980Y47909D01*
X27027Y47957D01*
X27076Y47998D01*
X27128Y48031D01*
X27185Y48057D01*
X27247Y48076D01*
X27314Y48087D01*
X27388Y48091D01*
X27484Y48084D01*
X27575Y48065D01*
X27660Y48033D01*
X27739Y47988D01*
X27811Y47932D01*
X27873Y47865D01*
X27926Y47787D01*
X27969Y47699D01*
X28003Y47603D01*
X28027Y47503D01*
X28042Y47399D01*
X28047Y47290D01*
X28041Y47173D01*
X28025Y47063D01*
X27999Y46958D01*
X27961Y46860D01*
X27913Y46770D01*
X27856Y46691D01*
X27789Y46623D01*
X27712Y46567D01*
X27629Y46522D01*
X27545Y46490D01*
X27458Y46471D01*
X27369Y46465D01*
X27304Y46468D01*
X27244Y46479D01*
X27186Y46496D01*
X27132Y46521D01*
X27082Y46550D01*
X27037Y46583D01*
X26996Y46620D01*
X26960Y46661D01*
X26960Y45904D01*
X26696Y45904D01*
X26696Y45904D01*
X28940Y46736D02*
X28979Y46503D01*
X28924Y46493D01*
X28873Y46485D01*
X28825Y46481D01*
X28779Y46479D01*
X28712Y46482D01*
X28652Y46491D01*
X28600Y46505D01*
X28557Y46525D01*
X28520Y46549D01*
X28489Y46577D01*
X28464Y46609D01*
X28445Y46644D01*
X28431Y46691D01*
X28421Y46759D01*
X28415Y46847D01*
X28413Y46956D01*
X28413Y47851D01*
X28220Y47851D01*
X28220Y48056D01*
X28413Y48056D01*
X28413Y48441D01*
X28675Y48599D01*
X28675Y48056D01*
X28940Y48056D01*
X28940Y47851D01*
X28675Y47851D01*
X28675Y46941D01*
X28676Y46890D01*
X28679Y46848D01*
X28683Y46817D01*
X28689Y46796D01*
X28697Y46781D01*
X28708Y46767D01*
X28720Y46755D01*
X28735Y46745D01*
X28752Y46736D01*
X28773Y46730D01*
X28797Y46727D01*
X28825Y46726D01*
X28848Y46726D01*
X28876Y46728D01*
X28906Y46731D01*
X28940Y46736D01*
X28940Y46736D01*
X30263Y47001D02*
X30536Y46967D01*
X30497Y46855D01*
X30444Y46755D01*
X30377Y46669D01*
X30297Y46597D01*
X30204Y46539D01*
X30098Y46498D01*
X29981Y46473D01*
X29852Y46465D01*
X29690Y46478D01*
X29546Y46517D01*
X29419Y46583D01*
X29310Y46675D01*
X29223Y46791D01*
X29160Y46928D01*
X29123Y47086D01*
X29110Y47265D01*
X29123Y47450D01*
X29161Y47613D01*
X29224Y47755D01*
X29312Y47874D01*
X29421Y47969D01*
X29545Y48037D01*
X29683Y48077D01*
X29837Y48091D01*
X29859Y48089D01*
X29840Y47874D01*
X29753Y47866D01*
X29673Y47844D01*
X29600Y47806D01*
X29534Y47752D01*
X29479Y47687D01*
X29438Y47610D01*
X29411Y47524D01*
X29397Y47427D01*
X29397Y47427D01*
X30266Y47427D01*
X30253Y47519D01*
X30232Y47599D01*
X30203Y47666D01*
X30166Y47722D01*
X30099Y47788D01*
X30022Y47836D01*
X29935Y47865D01*
X29840Y47874D01*
X29859Y48089D01*
X29986Y48078D01*
X30120Y48038D01*
X30241Y47971D01*
X30347Y47878D01*
X30433Y47761D01*
X30495Y47623D01*
X30532Y47463D01*
X30544Y47281D01*
X30544Y47268D01*
X30544Y47251D01*
X30544Y47232D01*
X30543Y47210D01*
X29383Y47210D01*
X29397Y47090D01*
X29426Y46984D01*
X29470Y46893D01*
X29528Y46818D01*
X29597Y46758D01*
X29674Y46716D01*
X29760Y46690D01*
X29853Y46682D01*
X29923Y46686D01*
X29987Y46701D01*
X30047Y46724D01*
X30101Y46758D01*
X30149Y46802D01*
X30192Y46857D01*
X30230Y46923D01*
X30263Y47001D01*
X30263Y47001D01*
X30864Y46500D02*
X30864Y48056D01*
X31101Y48056D01*
X31101Y47820D01*
X31146Y47896D01*
X31188Y47957D01*
X31229Y48005D01*
X31269Y48038D01*
X31308Y48061D01*
X31350Y48078D01*
X31393Y48088D01*
X31438Y48091D01*
X31505Y48086D01*
X31572Y48070D01*
X31640Y48043D01*
X31709Y48006D01*
X31618Y47761D01*
X31570Y47786D01*
X31521Y47804D01*
X31473Y47815D01*
X31425Y47818D01*
X31383Y47815D01*
X31343Y47805D01*
X31305Y47789D01*
X31270Y47766D01*
X31238Y47738D01*
X31211Y47704D01*
X31188Y47666D01*
X31171Y47622D01*
X31152Y47550D01*
X31138Y47475D01*
X31130Y47396D01*
X31127Y47314D01*
X31127Y46500D01*
X30864Y46500D01*
X30864Y46500D01*
X32597Y47145D02*
X32597Y47410D01*
X33407Y47410D01*
X33407Y47145D01*
X32597Y47145D01*
X32597Y47145D01*
X35179Y46500D02*
X34347Y48647D01*
X34655Y48647D01*
X35213Y47087D01*
X35245Y46995D01*
X35275Y46906D01*
X35301Y46819D01*
X35326Y46736D01*
X35351Y46824D01*
X35379Y46912D01*
X35409Y47000D01*
X35441Y47087D01*
X36021Y48647D01*
X36311Y48647D01*
X35471Y46500D01*
X35179Y46500D01*
X35179Y46500D01*
X37432Y47001D02*
X37705Y46967D01*
X37665Y46855D01*
X37613Y46755D01*
X37546Y46669D01*
X37466Y46597D01*
X37373Y46539D01*
X37267Y46498D01*
X37150Y46473D01*
X37020Y46465D01*
X36859Y46478D01*
X36714Y46517D01*
X36588Y46583D01*
X36479Y46675D01*
X36392Y46791D01*
X36329Y46928D01*
X36292Y47086D01*
X36279Y47265D01*
X36292Y47450D01*
X36330Y47613D01*
X36393Y47755D01*
X36481Y47874D01*
X36590Y47969D01*
X36714Y48037D01*
X36852Y48077D01*
X37006Y48091D01*
X37028Y48089D01*
X37009Y47874D01*
X36922Y47866D01*
X36842Y47844D01*
X36769Y47806D01*
X36703Y47752D01*
X36648Y47687D01*
X36607Y47610D01*
X36580Y47524D01*
X36566Y47427D01*
X36566Y47427D01*
X37435Y47427D01*
X37422Y47519D01*
X37401Y47599D01*
X37372Y47666D01*
X37335Y47722D01*
X37268Y47788D01*
X37191Y47836D01*
X37104Y47865D01*
X37009Y47874D01*
X37028Y48089D01*
X37155Y48078D01*
X37289Y48038D01*
X37410Y47971D01*
X37516Y47878D01*
X37602Y47761D01*
X37664Y47623D01*
X37701Y47463D01*
X37713Y47281D01*
X37713Y47268D01*
X37713Y47251D01*
X37712Y47232D01*
X37712Y47210D01*
X36552Y47210D01*
X36566Y47090D01*
X36595Y46984D01*
X36639Y46893D01*
X36697Y46818D01*
X36766Y46758D01*
X36843Y46716D01*
X36929Y46690D01*
X37022Y46682D01*
X37092Y46686D01*
X37156Y46701D01*
X37216Y46724D01*
X37269Y46758D01*
X37318Y46802D01*
X37361Y46857D01*
X37399Y46923D01*
X37432Y47001D01*
X37432Y47001D01*
X38033Y46500D02*
X38033Y48056D01*
X38270Y48056D01*
X38270Y47820D01*
X38315Y47896D01*
X38357Y47957D01*
X38398Y48005D01*
X38438Y48038D01*
X38477Y48061D01*
X38518Y48078D01*
X38562Y48088D01*
X38607Y48091D01*
X38674Y48086D01*
X38741Y48070D01*
X38809Y48043D01*
X38878Y48006D01*
X38787Y47761D01*
X38739Y47786D01*
X38690Y47804D01*
X38642Y47815D01*
X38594Y47818D01*
X38552Y47815D01*
X38512Y47805D01*
X38474Y47789D01*
X38438Y47766D01*
X38406Y47738D01*
X38379Y47704D01*
X38357Y47666D01*
X38340Y47622D01*
X38321Y47550D01*
X38307Y47475D01*
X38299Y47396D01*
X38296Y47314D01*
X38296Y46500D01*
X38033Y46500D01*
X38033Y46500D01*
X38929Y46964D02*
X39190Y47005D01*
X39206Y46932D01*
X39231Y46867D01*
X39267Y46811D01*
X39312Y46765D01*
X39367Y46729D01*
X39432Y46703D01*
X39508Y46687D01*
X39593Y46682D01*
X39678Y46686D01*
X39751Y46700D01*
X39812Y46723D01*
X39862Y46756D01*
X39901Y46794D01*
X39928Y46836D01*
X39945Y46881D01*
X39950Y46929D01*
X39945Y46971D01*
X39931Y47009D01*
X39906Y47042D01*
X39872Y47070D01*
X39835Y47089D01*
X39778Y47110D01*
X39701Y47133D01*
X39603Y47159D01*
X39469Y47195D01*
X39357Y47227D01*
X39268Y47258D01*
X39201Y47286D01*
X39148Y47315D01*
X39102Y47350D01*
X39063Y47389D01*
X39031Y47434D01*
X39006Y47482D01*
X38988Y47533D01*
X38977Y47587D01*
X38973Y47643D01*
X38976Y47694D01*
X38985Y47743D01*
X39000Y47790D01*
X39021Y47835D01*
X39047Y47878D01*
X39077Y47916D01*
X39111Y47951D01*
X39150Y47982D01*
X39184Y48004D01*
X39223Y48024D01*
X39268Y48043D01*
X39318Y48059D01*
X39372Y48073D01*
X39428Y48083D01*
X39486Y48089D01*
X39546Y48091D01*
X39635Y48088D01*
X39718Y48078D01*
X39795Y48061D01*
X39867Y48038D01*
X39932Y48009D01*
X39988Y47976D01*
X40034Y47938D01*
X40072Y47895D01*
X40102Y47846D01*
X40127Y47790D01*
X40147Y47726D01*
X40162Y47654D01*
X39905Y47619D01*
X39892Y47676D01*
X39870Y47726D01*
X39841Y47770D01*
X39803Y47807D01*
X39756Y47836D01*
X39701Y47857D01*
X39637Y47870D01*
X39565Y47874D01*
X39481Y47870D01*
X39409Y47859D01*
X39351Y47840D01*
X39306Y47814D01*
X39272Y47783D01*
X39247Y47749D01*
X39233Y47712D01*
X39228Y47673D01*
X39230Y47648D01*
X39236Y47625D01*
X39246Y47602D01*
X39260Y47581D01*
X39279Y47561D01*
X39302Y47542D01*
X39329Y47526D01*
X39361Y47511D01*
X39391Y47501D01*
X39439Y47487D01*
X39507Y47467D01*
X39594Y47443D01*
X39723Y47408D01*
X39832Y47375D01*
X39919Y47347D01*
X39985Y47321D01*
X40037Y47295D01*
X40083Y47263D01*
X40124Y47225D01*
X40158Y47183D01*
X40186Y47134D01*
X40205Y47081D01*
X40217Y47022D01*
X40221Y46957D01*
X40216Y46892D01*
X40202Y46829D01*
X40178Y46768D01*
X40144Y46709D01*
X40101Y46654D01*
X40050Y46605D01*
X39991Y46564D01*
X39922Y46529D01*
X39847Y46501D01*
X39768Y46481D01*
X39683Y46469D01*
X39594Y46465D01*
X39452Y46473D01*
X39327Y46496D01*
X39220Y46536D01*
X39132Y46591D01*
X39060Y46661D01*
X39002Y46747D01*
X38958Y46848D01*
X38929Y46964D01*
X38929Y46964D01*
X40536Y46500D02*
X40536Y48056D01*
X40800Y48056D01*
X40800Y46500D01*
X40536Y46500D01*
X40536Y46500D01*
X40536Y48344D02*
X40536Y48647D01*
X40800Y48647D01*
X40800Y48344D01*
X40536Y48344D01*
X40536Y48344D01*
X41103Y47278D02*
X41118Y47480D01*
X41163Y47654D01*
X41238Y47800D01*
X41343Y47918D01*
X41449Y47994D01*
X41566Y48048D01*
X41694Y48080D01*
X41832Y48091D01*
X41986Y48078D01*
X42124Y48038D01*
X42248Y47973D01*
X42357Y47881D01*
X42446Y47765D01*
X42510Y47630D01*
X42548Y47475D01*
X42560Y47300D01*
X42555Y47158D01*
X42538Y47032D01*
X42510Y46921D01*
X42470Y46827D01*
X42420Y46746D01*
X42360Y46674D01*
X42289Y46612D01*
X42208Y46560D01*
X42120Y46518D01*
X42028Y46489D01*
X41932Y46471D01*
X41832Y46465D01*
X41814Y46466D01*
X41832Y46682D01*
X41926Y46691D01*
X42012Y46719D01*
X42090Y46766D01*
X42159Y46831D01*
X42216Y46916D01*
X42257Y47020D01*
X42281Y47143D01*
X42289Y47287D01*
X42281Y47422D01*
X42257Y47540D01*
X42216Y47641D01*
X42158Y47724D01*
X42089Y47789D01*
X42011Y47835D01*
X41926Y47863D01*
X41832Y47873D01*
X41738Y47863D01*
X41652Y47836D01*
X41574Y47789D01*
X41504Y47725D01*
X41447Y47641D01*
X41407Y47539D01*
X41382Y47418D01*
X41374Y47278D01*
X41374Y47278D01*
X41382Y47138D01*
X41407Y47017D01*
X41447Y46914D01*
X41504Y46830D01*
X41574Y46765D01*
X41652Y46719D01*
X41738Y46691D01*
X41832Y46682D01*
X41814Y46466D01*
X41677Y46478D01*
X41537Y46517D01*
X41413Y46583D01*
X41304Y46674D01*
X41216Y46791D01*
X41153Y46930D01*
X41116Y47092D01*
X41103Y47278D01*
X41103Y47278D01*
X42870Y46500D02*
X42870Y48056D01*
X43107Y48056D01*
X43107Y47834D01*
X43202Y47947D01*
X43316Y48027D01*
X43450Y48075D01*
X43602Y48091D01*
X43671Y48088D01*
X43737Y48078D01*
X43800Y48062D01*
X43861Y48040D01*
X43916Y48013D01*
X43964Y47982D01*
X44004Y47947D01*
X44037Y47908D01*
X44064Y47865D01*
X44087Y47818D01*
X44105Y47767D01*
X44119Y47713D01*
X44125Y47669D01*
X44130Y47612D01*
X44133Y47541D01*
X44134Y47457D01*
X44134Y46500D01*
X43870Y46500D01*
X43870Y47446D01*
X43868Y47522D01*
X43862Y47587D01*
X43853Y47642D01*
X43839Y47687D01*
X43821Y47725D01*
X43797Y47759D01*
X43766Y47789D01*
X43730Y47815D01*
X43689Y47836D01*
X43645Y47850D01*
X43597Y47859D01*
X43546Y47862D01*
X43465Y47856D01*
X43389Y47836D01*
X43320Y47802D01*
X43256Y47755D01*
X43202Y47690D01*
X43164Y47600D01*
X43141Y47487D01*
X43133Y47350D01*
X43133Y46500D01*
X42870Y46500D01*
X42870Y46500D01*
X46291Y46500D02*
X46028Y46500D01*
X46028Y48180D01*
X45976Y48135D01*
X45918Y48089D01*
X45852Y48044D01*
X45778Y47999D01*
X45703Y47956D01*
X45631Y47919D01*
X45564Y47888D01*
X45500Y47862D01*
X45500Y48117D01*
X45608Y48172D01*
X45708Y48232D01*
X45801Y48298D01*
X45887Y48369D01*
X45964Y48443D01*
X46029Y48515D01*
X46081Y48586D01*
X46122Y48656D01*
X46291Y48656D01*
X46291Y46500D01*
X46291Y46500D01*
X47115Y46500D02*
X47115Y46800D01*
X47415Y46800D01*
X47415Y46500D01*
X47115Y46500D01*
X47115Y46500D01*
X48793Y46500D02*
X48530Y46500D01*
X48530Y48180D01*
X48478Y48135D01*
X48420Y48089D01*
X48354Y48044D01*
X48280Y47999D01*
X48205Y47956D01*
X48133Y47919D01*
X48066Y47888D01*
X48002Y47862D01*
X48002Y48117D01*
X48109Y48172D01*
X48210Y48232D01*
X48303Y48298D01*
X48389Y48369D01*
X48466Y48443D01*
X48530Y48515D01*
X48583Y48586D01*
X48623Y48656D01*
X48793Y48656D01*
X48793Y46500D01*
X48793Y46500D01*
G37*
M02*