%FSLAX33Y33*%
%MOMM*%
%AMRect-W1650000-H1650000-RO1.500*
21,1,1.65,1.65,0.,0.,90*%
%AMRect-W1400000-H1400000-RO1.000*
21,1,1.4,1.4,0.,0.,180*%
%ADD10C,1.*%
%ADD11C,5.5*%
%ADD12C,1.65*%
%ADD13Rect-W1650000-H1650000-RO1.500*%
%ADD14R,1.4X1.4*%
%ADD15C,1.4*%
%ADD16C,1.4*%
%ADD17Rect-W1400000-H1400000-RO1.000*%
D10*
%LNtop copper_traces*%
G01*
X36000Y8660D02*
X36000Y26300D01*
X23500Y8460D02*
X23500Y41300D01*
X16000Y8340D02*
X16000Y41300D01*
X31040Y6000D02*
X28500Y8540D01*
X15800Y6000D02*
X13500Y8300D01*
X33500Y8620D02*
X33500Y31300D01*
X43500Y8780D02*
X43500Y11300D01*
X46500Y15700D02*
X46500Y40700D01*
X23420Y6000D02*
X21000Y8420D01*
X11000Y8465D02*
X11000Y41300D01*
X28500Y6000D02*
X28500Y3000D01*
X11000Y8465D02*
X13260Y6205D01*
X10720Y6000D02*
X10720Y3000D01*
X15800Y3000D02*
X15800Y6000D01*
X41200Y6000D02*
X38500Y8700D01*
X41200Y3000D02*
X41200Y6000D01*
X36120Y6000D02*
X33500Y8620D01*
X8500Y8220D02*
X8500Y41300D01*
X21000Y8420D02*
X21000Y41300D01*
X43740Y6000D02*
X43740Y3000D01*
X39000Y40700D02*
X39000Y30700D01*
X51500Y10700D02*
X51500Y40700D01*
X26000Y8500D02*
X26000Y41300D01*
X18340Y6000D02*
X16000Y8340D01*
X31040Y3000D02*
X31040Y6000D01*
X25960Y6000D02*
X23500Y8460D01*
X38660Y6000D02*
X38660Y3000D01*
X18340Y6000D02*
X18340Y3000D01*
X23420Y6000D02*
X23420Y3000D01*
X10720Y6000D02*
X8500Y8220D01*
X46280Y6000D02*
X43500Y8780D01*
X41500Y25700D02*
X41500Y40700D01*
X18500Y8380D02*
X18500Y41300D01*
X20880Y6000D02*
X18500Y8380D01*
X33580Y6000D02*
X31000Y8580D01*
X36500Y35700D02*
X36500Y40700D01*
X28500Y8540D02*
X28500Y41300D01*
X41000Y8740D02*
X41000Y16300D01*
X31000Y8580D02*
X31000Y36300D01*
X38500Y8700D02*
X38500Y21300D01*
X46280Y3000D02*
X46280Y6000D01*
X44000Y20700D02*
X44000Y40700D01*
X36120Y3000D02*
X36120Y6000D01*
X49000Y10700D02*
X49000Y40700D01*
X38660Y6000D02*
X36000Y8660D01*
X43740Y6000D02*
X41000Y8740D01*
X13260Y3000D02*
X13260Y6000D01*
X28500Y6000D02*
X26000Y8500D01*
X33580Y6000D02*
X33580Y3000D01*
X20880Y3000D02*
X20880Y6000D01*
X13500Y8300D02*
X13500Y41300D01*
X25960Y3000D02*
X25960Y6000D01*
%LNtop copper component 312304718256dca2*%
D11*
X4000Y5000D03*
%LNtop copper component af4949e430c5f950*%
D12*
X13260Y3000D03*
X15800Y3000D03*
X18340Y3000D03*
X20880Y3000D03*
X23420Y3000D03*
X25960Y3000D03*
X28500Y3000D03*
X31040Y3000D03*
X33580Y3000D03*
X36120Y3000D03*
X38660Y3000D03*
X41200Y3000D03*
X43740Y3000D03*
X46280Y3000D03*
D13*
X10720Y3000D03*
%LNtop copper component 8278d696741b52da*%
D14*
X8500Y11300D03*
D15*
X11000Y11300D03*
X13500Y11300D03*
X16000Y11300D03*
X18500Y11300D03*
X21000Y11300D03*
X23500Y11300D03*
X26000Y11300D03*
X28500Y11300D03*
X31000Y11300D03*
X33500Y11300D03*
X36000Y11300D03*
X38500Y11300D03*
X41000Y11300D03*
X43500Y11300D03*
%LNtop copper component 08ce969612039e64*%
D16*
X49000Y40700D03*
X46500Y40700D03*
X44000Y40700D03*
X41500Y40700D03*
X39000Y40700D03*
X36500Y40700D03*
X34000Y40700D03*
D17*
X51500Y40700D03*
%LNtop copper component e805279d35b13680*%
D16*
X49000Y35700D03*
X46500Y35700D03*
X44000Y35700D03*
X41500Y35700D03*
X39000Y35700D03*
X36500Y35700D03*
D17*
X51500Y35700D03*
%LNtop copper component 16fab53d32d5a67c*%
D16*
X49000Y10700D03*
D17*
X51500Y10700D03*
%LNtop copper component a015b0e8d900f81e*%
D16*
X49000Y15700D03*
X46500Y15700D03*
D17*
X51500Y15700D03*
%LNtop copper component b3f41ef893718b1e*%
D14*
X8500Y26300D03*
D15*
X11000Y26300D03*
X13500Y26300D03*
X16000Y26300D03*
X18500Y26300D03*
X21000Y26300D03*
X23500Y26300D03*
X26000Y26300D03*
X28500Y26300D03*
X31000Y26300D03*
X33500Y26300D03*
X36000Y26300D03*
%LNtop copper component ad3850c414a05864*%
D16*
X49000Y30700D03*
X46500Y30700D03*
X44000Y30700D03*
X41500Y30700D03*
X39000Y30700D03*
D17*
X51500Y30700D03*
%LNtop copper component da7bfe2cf6314d72*%
D14*
X8500Y16300D03*
D15*
X11000Y16300D03*
X13500Y16300D03*
X16000Y16300D03*
X18500Y16300D03*
X21000Y16300D03*
X23500Y16300D03*
X26000Y16300D03*
X28500Y16300D03*
X31000Y16300D03*
X33500Y16300D03*
X36000Y16300D03*
X38500Y16300D03*
X41000Y16300D03*
%LNtop copper component 228893982379df3f*%
D16*
X49000Y20700D03*
X46500Y20700D03*
X44000Y20700D03*
D17*
X51500Y20700D03*
%LNtop copper component ae4397b8c1491a36*%
D12*
X13260Y6000D03*
X15800Y6000D03*
X18340Y6000D03*
X20880Y6000D03*
X23420Y6000D03*
X25960Y6000D03*
X28500Y6000D03*
X31040Y6000D03*
X33580Y6000D03*
X36120Y6000D03*
X38660Y6000D03*
X41200Y6000D03*
X43740Y6000D03*
X46280Y6000D03*
D13*
X10720Y6000D03*
%LNtop copper component 5071099a7d24bbfe*%
D11*
X56000Y5000D03*
%LNtop copper component da574c27139357db*%
D14*
X8500Y21300D03*
D15*
X11000Y21300D03*
X13500Y21300D03*
X16000Y21300D03*
X18500Y21300D03*
X21000Y21300D03*
X23500Y21300D03*
X26000Y21300D03*
X28500Y21300D03*
X31000Y21300D03*
X33500Y21300D03*
X36000Y21300D03*
X38500Y21300D03*
%LNtop copper component eafc2537431a66c3*%
D14*
X8500Y41300D03*
D15*
X11000Y41300D03*
X13500Y41300D03*
X16000Y41300D03*
X18500Y41300D03*
X21000Y41300D03*
X23500Y41300D03*
X26000Y41300D03*
X28500Y41300D03*
%LNtop copper component 0d8454b4dea2efd4*%
D11*
X4000Y47000D03*
%LNtop copper component b7702b93b57b5186*%
D14*
X8500Y31300D03*
D15*
X11000Y31300D03*
X13500Y31300D03*
X16000Y31300D03*
X18500Y31300D03*
X21000Y31300D03*
X23500Y31300D03*
X26000Y31300D03*
X28500Y31300D03*
X31000Y31300D03*
X33500Y31300D03*
%LNtop copper component b3d13cb211f619d0*%
D11*
X56000Y47000D03*
%LNtop copper component f237f16fae055c2f*%
D14*
X8500Y36300D03*
D15*
X11000Y36300D03*
X13500Y36300D03*
X16000Y36300D03*
X18500Y36300D03*
X21000Y36300D03*
X23500Y36300D03*
X26000Y36300D03*
X28500Y36300D03*
X31000Y36300D03*
%LNtop copper component 33b1766a393aa792*%
D16*
X49000Y25700D03*
X46500Y25700D03*
X44000Y25700D03*
X41500Y25700D03*
D17*
X51500Y25700D03*
M02*