%FSLAX33Y33*%
%MOMM*%
%AMRect-W1650000-H1650000-RO1.500*
21,1,1.65,1.65,0.,0.,90*%
%AMRect-W1400000-H1400000-RO1.000*
21,1,1.4,1.4,0.,0.,180*%
%ADD10C,5.5*%
%ADD11C,1.65*%
%ADD12Rect-W1650000-H1650000-RO1.500*%
%ADD13R,1.4X1.4*%
%ADD14C,1.4*%
%ADD15C,1.4*%
%ADD16Rect-W1400000-H1400000-RO1.000*%
D10*
%LNtop solder mask_traces*%
%LNtop solder mask component 312304718256dca2*%
G01*
X4000Y4000D03*
%LNtop solder mask component af4949e430c5f950*%
D11*
X13260Y2000D03*
X15800Y2000D03*
X18340Y2000D03*
X20880Y2000D03*
X23420Y2000D03*
X25960Y2000D03*
X28500Y2000D03*
X31040Y2000D03*
X33580Y2000D03*
X36120Y2000D03*
X38660Y2000D03*
X41200Y2000D03*
X43740Y2000D03*
X46280Y2000D03*
D12*
X10720Y2000D03*
%LNtop solder mask component 8278d696741b52da*%
D13*
X8500Y10300D03*
D14*
X11000Y10300D03*
X13500Y10300D03*
X16000Y10300D03*
X18500Y10300D03*
X21000Y10300D03*
X23500Y10300D03*
X26000Y10300D03*
X28500Y10300D03*
X31000Y10300D03*
X33500Y10300D03*
X36000Y10300D03*
X38500Y10300D03*
X41000Y10300D03*
X43500Y10300D03*
%LNtop solder mask component 08ce969612039e64*%
D15*
X49000Y39700D03*
X46500Y39700D03*
X44000Y39700D03*
X41500Y39700D03*
X39000Y39700D03*
X36500Y39700D03*
X34000Y39700D03*
D16*
X51500Y39700D03*
%LNtop solder mask component e805279d35b13680*%
D15*
X49000Y34700D03*
X46500Y34700D03*
X44000Y34700D03*
X41500Y34700D03*
X39000Y34700D03*
X36500Y34700D03*
D16*
X51500Y34700D03*
%LNtop solder mask component 16fab53d32d5a67c*%
D15*
X49000Y9700D03*
D16*
X51500Y9700D03*
%LNtop solder mask component a015b0e8d900f81e*%
D15*
X49000Y14700D03*
X46500Y14700D03*
D16*
X51500Y14700D03*
%LNtop solder mask component b3f41ef893718b1e*%
D13*
X8500Y25300D03*
D14*
X11000Y25300D03*
X13500Y25300D03*
X16000Y25300D03*
X18500Y25300D03*
X21000Y25300D03*
X23500Y25300D03*
X26000Y25300D03*
X28500Y25300D03*
X31000Y25300D03*
X33500Y25300D03*
X36000Y25300D03*
%LNtop solder mask component ad3850c414a05864*%
D15*
X49000Y29700D03*
X46500Y29700D03*
X44000Y29700D03*
X41500Y29700D03*
X39000Y29700D03*
D16*
X51500Y29700D03*
%LNtop solder mask component da7bfe2cf6314d72*%
D13*
X8500Y15300D03*
D14*
X11000Y15300D03*
X13500Y15300D03*
X16000Y15300D03*
X18500Y15300D03*
X21000Y15300D03*
X23500Y15300D03*
X26000Y15300D03*
X28500Y15300D03*
X31000Y15300D03*
X33500Y15300D03*
X36000Y15300D03*
X38500Y15300D03*
X41000Y15300D03*
%LNtop solder mask component 228893982379df3f*%
D15*
X49000Y19700D03*
X46500Y19700D03*
X44000Y19700D03*
D16*
X51500Y19700D03*
%LNtop solder mask component ae4397b8c1491a36*%
D11*
X13260Y5000D03*
X15800Y5000D03*
X18340Y5000D03*
X20880Y5000D03*
X23420Y5000D03*
X25960Y5000D03*
X28500Y5000D03*
X31040Y5000D03*
X33580Y5000D03*
X36120Y5000D03*
X38660Y5000D03*
X41200Y5000D03*
X43740Y5000D03*
X46280Y5000D03*
D12*
X10720Y5000D03*
%LNtop solder mask component 5071099a7d24bbfe*%
D10*
X56000Y4000D03*
%LNtop solder mask component da574c27139357db*%
D13*
X8500Y20300D03*
D14*
X11000Y20300D03*
X13500Y20300D03*
X16000Y20300D03*
X18500Y20300D03*
X21000Y20300D03*
X23500Y20300D03*
X26000Y20300D03*
X28500Y20300D03*
X31000Y20300D03*
X33500Y20300D03*
X36000Y20300D03*
X38500Y20300D03*
%LNtop solder mask component eafc2537431a66c3*%
D13*
X8500Y40300D03*
D14*
X11000Y40300D03*
X13500Y40300D03*
X16000Y40300D03*
X18500Y40300D03*
X21000Y40300D03*
X23500Y40300D03*
X26000Y40300D03*
X28500Y40300D03*
%LNtop solder mask component 0d8454b4dea2efd4*%
D10*
X4000Y46000D03*
%LNtop solder mask component b7702b93b57b5186*%
D13*
X8500Y30300D03*
D14*
X11000Y30300D03*
X13500Y30300D03*
X16000Y30300D03*
X18500Y30300D03*
X21000Y30300D03*
X23500Y30300D03*
X26000Y30300D03*
X28500Y30300D03*
X31000Y30300D03*
X33500Y30300D03*
%LNtop solder mask component b3d13cb211f619d0*%
D10*
X56000Y46000D03*
%LNtop solder mask component f237f16fae055c2f*%
D13*
X8500Y35300D03*
D14*
X11000Y35300D03*
X13500Y35300D03*
X16000Y35300D03*
X18500Y35300D03*
X21000Y35300D03*
X23500Y35300D03*
X26000Y35300D03*
X28500Y35300D03*
X31000Y35300D03*
%LNtop solder mask component 33b1766a393aa792*%
D15*
X49000Y24700D03*
X46500Y24700D03*
X44000Y24700D03*
X41500Y24700D03*
D16*
X51500Y24700D03*
M02*