%FSLAX33Y33*%
%MOMM*%
%ADD10C,0.15*%
%ADD11C,0.5*%
%ADD12C,0.5*%
D10*
%LNtop silkscreen_traces*%
%LNtop silkscreen component 8278d696741b52da*%
G01*
X6000Y8100D02*
X6000Y11900D01*
X46000Y11900*
X46000Y8100*
X6000Y8100*
D11*
X5375Y10300D03*
G36*
X3579Y8678D02*
X3664Y8690D01*
X3667Y8652D01*
X3674Y8621D01*
X3683Y8596D01*
X3695Y8578D01*
X3710Y8564D01*
X3728Y8555D01*
X3748Y8549D01*
X3771Y8547D01*
X3788Y8548D01*
X3804Y8551D01*
X3819Y8556D01*
X3832Y8564D01*
X3844Y8573D01*
X3854Y8583D01*
X3862Y8595D01*
X3868Y8608D01*
X3872Y8624D01*
X3875Y8644D01*
X3877Y8669D01*
X3878Y8698D01*
X3878Y9191D01*
X3972Y9191D01*
X3972Y8703D01*
X3971Y8661D01*
X3967Y8623D01*
X3960Y8591D01*
X3951Y8564D01*
X3938Y8541D01*
X3923Y8520D01*
X3904Y8503D01*
X3882Y8489D01*
X3857Y8477D01*
X3831Y8469D01*
X3802Y8464D01*
X3771Y8463D01*
X3727Y8466D01*
X3688Y8476D01*
X3655Y8493D01*
X3627Y8517D01*
X3605Y8547D01*
X3590Y8584D01*
X3581Y8628D01*
X3579Y8678D01*
X3579Y8678D01*
X4423Y8475D02*
X4335Y8475D01*
X4335Y9035D01*
X4318Y9020D01*
X4298Y9005D01*
X4276Y8990D01*
X4251Y8975D01*
X4226Y8960D01*
X4203Y8948D01*
X4180Y8938D01*
X4159Y8929D01*
X4159Y9014D01*
X4195Y9032D01*
X4228Y9052D01*
X4259Y9074D01*
X4288Y9098D01*
X4313Y9123D01*
X4335Y9147D01*
X4352Y9170D01*
X4366Y9194D01*
X4423Y9194D01*
X4423Y8475D01*
X4423Y8475D01*
X4648Y8662D02*
X4740Y8670D01*
X4747Y8639D01*
X4757Y8611D01*
X4771Y8588D01*
X4788Y8569D01*
X4807Y8554D01*
X4829Y8544D01*
X4852Y8537D01*
X4878Y8535D01*
X4908Y8538D01*
X4936Y8547D01*
X4962Y8562D01*
X4985Y8583D01*
X5004Y8609D01*
X5018Y8639D01*
X5026Y8672D01*
X5029Y8710D01*
X5026Y8745D01*
X5018Y8777D01*
X5005Y8805D01*
X4987Y8829D01*
X4964Y8848D01*
X4938Y8861D01*
X4909Y8869D01*
X4876Y8872D01*
X4855Y8871D01*
X4836Y8867D01*
X4817Y8861D01*
X4800Y8853D01*
X4783Y8842D01*
X4769Y8831D01*
X4757Y8817D01*
X4746Y8803D01*
X4663Y8813D01*
X4733Y9181D01*
X5089Y9181D01*
X5089Y9097D01*
X4803Y9097D01*
X4764Y8905D01*
X4797Y8924D01*
X4830Y8938D01*
X4865Y8947D01*
X4900Y8950D01*
X4945Y8946D01*
X4986Y8933D01*
X5024Y8913D01*
X5058Y8885D01*
X5086Y8850D01*
X5106Y8810D01*
X5118Y8766D01*
X5122Y8718D01*
X5119Y8671D01*
X5108Y8627D01*
X5090Y8587D01*
X5066Y8550D01*
X5028Y8512D01*
X4984Y8485D01*
X4934Y8468D01*
X4878Y8463D01*
X4831Y8466D01*
X4789Y8476D01*
X4751Y8494D01*
X4718Y8517D01*
X4691Y8547D01*
X4670Y8581D01*
X4655Y8620D01*
X4648Y8662D01*
X4648Y8662D01*
G37*
%LNtop silkscreen component 08ce969612039e64*%
D10*
X54000Y41900D02*
X54000Y38100D01*
X31500Y38100*
X31500Y41900*
X54000Y41900*
D12*
X54625Y39700D03*
G36*
X54829Y38678D02*
X54914Y38690D01*
X54917Y38652D01*
X54924Y38621D01*
X54933Y38596D01*
X54945Y38578D01*
X54960Y38564D01*
X54978Y38555D01*
X54998Y38549D01*
X55021Y38547D01*
X55038Y38548D01*
X55054Y38551D01*
X55069Y38556D01*
X55082Y38564D01*
X55094Y38573D01*
X55104Y38583D01*
X55112Y38595D01*
X55118Y38608D01*
X55122Y38624D01*
X55125Y38644D01*
X55127Y38669D01*
X55128Y38698D01*
X55128Y39191D01*
X55222Y39191D01*
X55222Y38703D01*
X55221Y38661D01*
X55217Y38623D01*
X55210Y38591D01*
X55201Y38564D01*
X55188Y38541D01*
X55173Y38520D01*
X55154Y38503D01*
X55132Y38489D01*
X55107Y38477D01*
X55081Y38469D01*
X55052Y38464D01*
X55021Y38463D01*
X54977Y38466D01*
X54938Y38476D01*
X54905Y38493D01*
X54877Y38517D01*
X54855Y38547D01*
X54840Y38584D01*
X54831Y38628D01*
X54829Y38678D01*
X54829Y38678D01*
X55477Y38863D02*
X55506Y38808D01*
X55493Y38802D01*
X55472Y38784D01*
X55454Y38762D01*
X55441Y38738D01*
X55433Y38711D01*
X55431Y38682D01*
X55431Y38682D01*
X55432Y38663D01*
X55435Y38645D01*
X55441Y38627D01*
X55449Y38609D01*
X55459Y38592D01*
X55471Y38578D01*
X55485Y38565D01*
X55502Y38554D01*
X55520Y38546D01*
X55538Y38540D01*
X55557Y38536D01*
X55577Y38535D01*
X55607Y38538D01*
X55635Y38545D01*
X55659Y38558D01*
X55681Y38576D01*
X55699Y38597D01*
X55712Y38622D01*
X55720Y38649D01*
X55722Y38679D01*
X55720Y38709D01*
X55712Y38737D01*
X55699Y38761D01*
X55680Y38784D01*
X55658Y38802D01*
X55633Y38815D01*
X55605Y38823D01*
X55574Y38825D01*
X55545Y38823D01*
X55518Y38815D01*
X55506Y38808D01*
X55477Y38863D01*
X55510Y38915D01*
X55530Y38905D01*
X55552Y38899D01*
X55577Y38897D01*
X55601Y38899D01*
X55623Y38905D01*
X55643Y38915D01*
X55660Y38929D01*
X55674Y38946D01*
X55684Y38964D01*
X55691Y38985D01*
X55693Y39007D01*
X55691Y39030D01*
X55684Y39052D01*
X55674Y39071D01*
X55659Y39089D01*
X55641Y39103D01*
X55622Y39113D01*
X55600Y39119D01*
X55576Y39121D01*
X55552Y39119D01*
X55530Y39113D01*
X55510Y39103D01*
X55492Y39089D01*
X55478Y39072D01*
X55468Y39054D01*
X55461Y39034D01*
X55459Y39012D01*
X55459Y39012D01*
X55461Y38988D01*
X55467Y38966D01*
X55478Y38946D01*
X55492Y38929D01*
X55510Y38915D01*
X55477Y38863D01*
X55451Y38874D01*
X55429Y38887D01*
X55411Y38903D01*
X55396Y38920D01*
X55384Y38940D01*
X55376Y38961D01*
X55371Y38984D01*
X55369Y39009D01*
X55373Y39047D01*
X55383Y39081D01*
X55401Y39112D01*
X55426Y39141D01*
X55456Y39164D01*
X55491Y39180D01*
X55531Y39190D01*
X55575Y39194D01*
X55620Y39190D01*
X55660Y39180D01*
X55695Y39163D01*
X55726Y39139D01*
X55751Y39111D01*
X55769Y39079D01*
X55779Y39044D01*
X55783Y39007D01*
X55781Y38983D01*
X55776Y38960D01*
X55768Y38939D01*
X55757Y38920D01*
X55742Y38903D01*
X55724Y38887D01*
X55702Y38874D01*
X55677Y38863D01*
X55708Y38851D01*
X55736Y38835D01*
X55759Y38816D01*
X55778Y38794D01*
X55793Y38769D01*
X55804Y38741D01*
X55810Y38712D01*
X55812Y38680D01*
X55808Y38636D01*
X55796Y38595D01*
X55776Y38558D01*
X55747Y38525D01*
X55712Y38498D01*
X55672Y38478D01*
X55627Y38467D01*
X55576Y38463D01*
X55526Y38467D01*
X55481Y38478D01*
X55441Y38498D01*
X55406Y38526D01*
X55377Y38559D01*
X55357Y38596D01*
X55345Y38637D01*
X55341Y38682D01*
X55343Y38716D01*
X55349Y38746D01*
X55360Y38774D01*
X55376Y38799D01*
X55396Y38821D01*
X55419Y38839D01*
X55446Y38853D01*
X55477Y38863D01*
X55477Y38863D01*
G37*
%LNtop silkscreen component e805279d35b13680*%
D10*
X54000Y36900D02*
X54000Y33100D01*
X34000Y33100*
X34000Y36900*
X54000Y36900*
D12*
X54625Y34700D03*
G36*
X54829Y33678D02*
X54914Y33690D01*
X54917Y33652D01*
X54924Y33621D01*
X54933Y33596D01*
X54945Y33578D01*
X54960Y33564D01*
X54978Y33555D01*
X54998Y33549D01*
X55021Y33547D01*
X55038Y33548D01*
X55054Y33551D01*
X55069Y33556D01*
X55082Y33564D01*
X55094Y33573D01*
X55104Y33583D01*
X55112Y33595D01*
X55118Y33608D01*
X55122Y33624D01*
X55125Y33644D01*
X55127Y33669D01*
X55128Y33698D01*
X55128Y34191D01*
X55222Y34191D01*
X55222Y33703D01*
X55221Y33661D01*
X55217Y33623D01*
X55210Y33591D01*
X55201Y33564D01*
X55188Y33541D01*
X55173Y33520D01*
X55154Y33503D01*
X55132Y33489D01*
X55107Y33477D01*
X55081Y33469D01*
X55052Y33464D01*
X55021Y33463D01*
X54977Y33466D01*
X54938Y33476D01*
X54905Y33493D01*
X54877Y33517D01*
X54855Y33547D01*
X54840Y33584D01*
X54831Y33628D01*
X54829Y33678D01*
X54829Y33678D01*
X55347Y34097D02*
X55347Y34182D01*
X55811Y34182D01*
X55811Y34113D01*
X55777Y34074D01*
X55743Y34028D01*
X55709Y33977D01*
X55675Y33920D01*
X55644Y33859D01*
X55616Y33798D01*
X55592Y33735D01*
X55572Y33672D01*
X55560Y33626D01*
X55550Y33578D01*
X55543Y33527D01*
X55538Y33475D01*
X55447Y33475D01*
X55450Y33519D01*
X55457Y33568D01*
X55467Y33621D01*
X55481Y33679D01*
X55498Y33738D01*
X55519Y33797D01*
X55544Y33854D01*
X55572Y33910D01*
X55602Y33963D01*
X55633Y34012D01*
X55665Y34057D01*
X55698Y34097D01*
X55347Y34097D01*
X55347Y34097D01*
G37*
%LNtop silkscreen component 16fab53d32d5a67c*%
D10*
X54000Y11900D02*
X54000Y8100D01*
X46500Y8100*
X46500Y11900*
X54000Y11900*
D12*
X54625Y9700D03*
G36*
X54829Y8428D02*
X54914Y8440D01*
X54917Y8402D01*
X54924Y8371D01*
X54933Y8346D01*
X54945Y8328D01*
X54960Y8314D01*
X54978Y8305D01*
X54998Y8299D01*
X55021Y8297D01*
X55038Y8298D01*
X55054Y8301D01*
X55069Y8306D01*
X55082Y8314D01*
X55094Y8323D01*
X55104Y8333D01*
X55112Y8345D01*
X55118Y8358D01*
X55122Y8374D01*
X55125Y8394D01*
X55127Y8419D01*
X55128Y8448D01*
X55128Y8941D01*
X55222Y8941D01*
X55222Y8453D01*
X55221Y8411D01*
X55217Y8373D01*
X55210Y8341D01*
X55201Y8314D01*
X55188Y8291D01*
X55173Y8270D01*
X55154Y8253D01*
X55132Y8239D01*
X55107Y8227D01*
X55081Y8219D01*
X55052Y8214D01*
X55021Y8213D01*
X54977Y8216D01*
X54938Y8226D01*
X54905Y8243D01*
X54877Y8267D01*
X54855Y8297D01*
X54840Y8334D01*
X54831Y8378D01*
X54829Y8428D01*
X54829Y8428D01*
X55803Y8309D02*
X55803Y8225D01*
X55330Y8225D01*
X55331Y8241D01*
X55332Y8256D01*
X55336Y8271D01*
X55341Y8286D01*
X55351Y8310D01*
X55364Y8334D01*
X55380Y8358D01*
X55398Y8381D01*
X55421Y8406D01*
X55447Y8432D01*
X55478Y8460D01*
X55513Y8490D01*
X55567Y8535D01*
X55611Y8575D01*
X55646Y8611D01*
X55671Y8641D01*
X55689Y8669D01*
X55702Y8696D01*
X55710Y8722D01*
X55712Y8747D01*
X55710Y8772D01*
X55703Y8795D01*
X55691Y8816D01*
X55675Y8835D01*
X55655Y8851D01*
X55632Y8862D01*
X55606Y8869D01*
X55577Y8871D01*
X55547Y8869D01*
X55520Y8861D01*
X55496Y8850D01*
X55476Y8833D01*
X55459Y8812D01*
X55447Y8787D01*
X55440Y8759D01*
X55437Y8727D01*
X55347Y8737D01*
X55355Y8784D01*
X55369Y8826D01*
X55390Y8861D01*
X55417Y8891D01*
X55450Y8914D01*
X55488Y8931D01*
X55531Y8940D01*
X55579Y8944D01*
X55628Y8940D01*
X55672Y8929D01*
X55710Y8912D01*
X55742Y8887D01*
X55769Y8856D01*
X55787Y8823D01*
X55799Y8786D01*
X55802Y8745D01*
X55801Y8724D01*
X55798Y8702D01*
X55793Y8681D01*
X55785Y8661D01*
X55775Y8640D01*
X55762Y8618D01*
X55745Y8596D01*
X55727Y8573D01*
X55703Y8548D01*
X55672Y8519D01*
X55635Y8485D01*
X55591Y8447D01*
X55555Y8417D01*
X55526Y8391D01*
X55504Y8372D01*
X55489Y8357D01*
X55479Y8345D01*
X55469Y8333D01*
X55460Y8321D01*
X55452Y8309D01*
X55803Y8309D01*
X55803Y8309D01*
G37*
%LNtop silkscreen component a015b0e8d900f81e*%
D10*
X54000Y16900D02*
X54000Y13100D01*
X44000Y13100*
X44000Y16900*
X54000Y16900*
D12*
X54625Y14700D03*
G36*
X54829Y13678D02*
X54914Y13690D01*
X54917Y13652D01*
X54924Y13621D01*
X54933Y13596D01*
X54945Y13578D01*
X54960Y13564D01*
X54978Y13555D01*
X54998Y13549D01*
X55021Y13547D01*
X55038Y13548D01*
X55054Y13551D01*
X55069Y13556D01*
X55082Y13564D01*
X55094Y13573D01*
X55104Y13583D01*
X55112Y13595D01*
X55118Y13608D01*
X55122Y13624D01*
X55125Y13644D01*
X55127Y13669D01*
X55128Y13698D01*
X55128Y14191D01*
X55222Y14191D01*
X55222Y13703D01*
X55221Y13661D01*
X55217Y13623D01*
X55210Y13591D01*
X55201Y13564D01*
X55188Y13541D01*
X55173Y13520D01*
X55154Y13503D01*
X55132Y13489D01*
X55107Y13477D01*
X55081Y13469D01*
X55052Y13464D01*
X55021Y13463D01*
X54977Y13466D01*
X54938Y13476D01*
X54905Y13493D01*
X54877Y13517D01*
X54855Y13547D01*
X54840Y13584D01*
X54831Y13628D01*
X54829Y13678D01*
X54829Y13678D01*
X55342Y13664D02*
X55430Y13676D01*
X55439Y13641D01*
X55450Y13611D01*
X55465Y13587D01*
X55481Y13568D01*
X55501Y13554D01*
X55522Y13543D01*
X55545Y13537D01*
X55570Y13535D01*
X55600Y13538D01*
X55627Y13546D01*
X55652Y13559D01*
X55675Y13578D01*
X55693Y13601D01*
X55707Y13626D01*
X55715Y13654D01*
X55718Y13684D01*
X55715Y13713D01*
X55708Y13740D01*
X55695Y13763D01*
X55678Y13784D01*
X55657Y13802D01*
X55633Y13814D01*
X55607Y13821D01*
X55577Y13824D01*
X55564Y13823D01*
X55549Y13821D01*
X55533Y13818D01*
X55515Y13814D01*
X55525Y13891D01*
X55529Y13891D01*
X55533Y13890D01*
X55536Y13890D01*
X55539Y13890D01*
X55567Y13892D01*
X55593Y13897D01*
X55617Y13907D01*
X55640Y13919D01*
X55660Y13936D01*
X55674Y13957D01*
X55682Y13981D01*
X55685Y14010D01*
X55683Y14033D01*
X55677Y14054D01*
X55667Y14073D01*
X55653Y14090D01*
X55635Y14104D01*
X55615Y14114D01*
X55593Y14120D01*
X55568Y14121D01*
X55544Y14119D01*
X55521Y14113D01*
X55501Y14103D01*
X55483Y14089D01*
X55467Y14071D01*
X55455Y14049D01*
X55445Y14023D01*
X55439Y13993D01*
X55351Y14008D01*
X55361Y14050D01*
X55377Y14087D01*
X55398Y14118D01*
X55424Y14145D01*
X55454Y14166D01*
X55488Y14182D01*
X55525Y14191D01*
X55566Y14194D01*
X55595Y14192D01*
X55622Y14187D01*
X55649Y14180D01*
X55674Y14169D01*
X55697Y14155D01*
X55718Y14139D01*
X55735Y14121D01*
X55749Y14100D01*
X55761Y14078D01*
X55769Y14055D01*
X55774Y14032D01*
X55776Y14008D01*
X55774Y13985D01*
X55769Y13963D01*
X55762Y13943D01*
X55751Y13923D01*
X55737Y13905D01*
X55720Y13889D01*
X55700Y13875D01*
X55677Y13863D01*
X55707Y13853D01*
X55733Y13840D01*
X55756Y13823D01*
X55776Y13802D01*
X55791Y13777D01*
X55802Y13750D01*
X55809Y13720D01*
X55811Y13686D01*
X55807Y13641D01*
X55794Y13600D01*
X55772Y13562D01*
X55742Y13527D01*
X55706Y13499D01*
X55665Y13479D01*
X55620Y13466D01*
X55570Y13462D01*
X55524Y13466D01*
X55483Y13476D01*
X55446Y13494D01*
X55413Y13518D01*
X55385Y13549D01*
X55364Y13583D01*
X55350Y13621D01*
X55342Y13664D01*
X55342Y13664D01*
G37*
%LNtop silkscreen component b3f41ef893718b1e*%
D10*
X6000Y23100D02*
X6000Y26900D01*
X38500Y26900*
X38500Y23100*
X6000Y23100*
D11*
X5375Y25300D03*
G36*
X3579Y23678D02*
X3664Y23690D01*
X3667Y23652D01*
X3674Y23621D01*
X3683Y23596D01*
X3695Y23578D01*
X3710Y23564D01*
X3728Y23555D01*
X3748Y23549D01*
X3771Y23547D01*
X3788Y23548D01*
X3804Y23551D01*
X3819Y23556D01*
X3832Y23564D01*
X3844Y23573D01*
X3854Y23583D01*
X3862Y23595D01*
X3868Y23608D01*
X3872Y23624D01*
X3875Y23644D01*
X3877Y23669D01*
X3878Y23698D01*
X3878Y24191D01*
X3972Y24191D01*
X3972Y23703D01*
X3971Y23661D01*
X3967Y23623D01*
X3960Y23591D01*
X3951Y23564D01*
X3938Y23541D01*
X3923Y23520D01*
X3904Y23503D01*
X3882Y23489D01*
X3857Y23477D01*
X3831Y23469D01*
X3802Y23464D01*
X3771Y23463D01*
X3727Y23466D01*
X3688Y23476D01*
X3655Y23493D01*
X3627Y23517D01*
X3605Y23547D01*
X3590Y23584D01*
X3581Y23628D01*
X3579Y23678D01*
X3579Y23678D01*
X4423Y23475D02*
X4335Y23475D01*
X4335Y24035D01*
X4318Y24020D01*
X4298Y24005D01*
X4276Y23990D01*
X4251Y23975D01*
X4226Y23960D01*
X4203Y23948D01*
X4180Y23938D01*
X4159Y23929D01*
X4159Y24014D01*
X4195Y24032D01*
X4228Y24052D01*
X4259Y24074D01*
X4288Y24098D01*
X4313Y24123D01*
X4335Y24147D01*
X4352Y24170D01*
X4366Y24194D01*
X4423Y24194D01*
X4423Y23475D01*
X4423Y23475D01*
X5110Y23559D02*
X5110Y23475D01*
X4636Y23475D01*
X4637Y23491D01*
X4639Y23506D01*
X4642Y23521D01*
X4647Y23536D01*
X4657Y23560D01*
X4670Y23584D01*
X4686Y23608D01*
X4705Y23631D01*
X4727Y23656D01*
X4753Y23682D01*
X4784Y23710D01*
X4820Y23740D01*
X4873Y23785D01*
X4917Y23825D01*
X4952Y23861D01*
X4977Y23891D01*
X4995Y23919D01*
X5008Y23946D01*
X5016Y23972D01*
X5018Y23997D01*
X5016Y24022D01*
X5009Y24045D01*
X4997Y24066D01*
X4981Y24085D01*
X4961Y24101D01*
X4938Y24112D01*
X4912Y24119D01*
X4884Y24121D01*
X4853Y24119D01*
X4826Y24111D01*
X4803Y24100D01*
X4782Y24083D01*
X4765Y24062D01*
X4753Y24037D01*
X4746Y24009D01*
X4743Y23977D01*
X4653Y23987D01*
X4661Y24034D01*
X4675Y24076D01*
X4696Y24111D01*
X4723Y24141D01*
X4756Y24164D01*
X4794Y24181D01*
X4837Y24190D01*
X4885Y24194D01*
X4934Y24190D01*
X4978Y24179D01*
X5016Y24162D01*
X5049Y24137D01*
X5075Y24106D01*
X5094Y24073D01*
X5105Y24036D01*
X5109Y23995D01*
X5108Y23974D01*
X5104Y23952D01*
X5099Y23931D01*
X5091Y23911D01*
X5081Y23890D01*
X5068Y23868D01*
X5052Y23846D01*
X5033Y23823D01*
X5009Y23798D01*
X4978Y23769D01*
X4941Y23735D01*
X4897Y23697D01*
X4861Y23667D01*
X4832Y23641D01*
X4810Y23622D01*
X4796Y23607D01*
X4785Y23595D01*
X4775Y23583D01*
X4766Y23571D01*
X4759Y23559D01*
X5110Y23559D01*
X5110Y23559D01*
G37*
%LNtop silkscreen component ad3850c414a05864*%
D10*
X54000Y31900D02*
X54000Y28100D01*
X36500Y28100*
X36500Y31900*
X54000Y31900*
D12*
X54625Y29700D03*
G36*
X54829Y28678D02*
X54914Y28690D01*
X54917Y28652D01*
X54924Y28621D01*
X54933Y28596D01*
X54945Y28578D01*
X54960Y28564D01*
X54978Y28555D01*
X54998Y28549D01*
X55021Y28547D01*
X55038Y28548D01*
X55054Y28551D01*
X55069Y28556D01*
X55082Y28564D01*
X55094Y28573D01*
X55104Y28583D01*
X55112Y28595D01*
X55118Y28608D01*
X55122Y28624D01*
X55125Y28644D01*
X55127Y28669D01*
X55128Y28698D01*
X55128Y29191D01*
X55222Y29191D01*
X55222Y28703D01*
X55221Y28661D01*
X55217Y28623D01*
X55210Y28591D01*
X55201Y28564D01*
X55188Y28541D01*
X55173Y28520D01*
X55154Y28503D01*
X55132Y28489D01*
X55107Y28477D01*
X55081Y28469D01*
X55052Y28464D01*
X55021Y28463D01*
X54977Y28466D01*
X54938Y28476D01*
X54905Y28493D01*
X54877Y28517D01*
X54855Y28547D01*
X54840Y28584D01*
X54831Y28628D01*
X54829Y28678D01*
X54829Y28678D01*
X55798Y29016D02*
X55710Y29009D01*
X55704Y29033D01*
X55696Y29053D01*
X55687Y29070D01*
X55677Y29084D01*
X55658Y29100D01*
X55637Y29112D01*
X55614Y29119D01*
X55589Y29121D01*
X55569Y29120D01*
X55550Y29116D01*
X55532Y29108D01*
X55515Y29098D01*
X55496Y29081D01*
X55478Y29061D01*
X55463Y29037D01*
X55450Y29010D01*
X55439Y28978D01*
X55432Y28939D01*
X55427Y28895D01*
X55425Y28844D01*
X55471Y28808D01*
X55462Y28796D01*
X55449Y28770D01*
X55441Y28740D01*
X55439Y28707D01*
X55439Y28707D01*
X55440Y28684D01*
X55444Y28662D01*
X55450Y28641D01*
X55458Y28620D01*
X55469Y28601D01*
X55481Y28583D01*
X55496Y28569D01*
X55512Y28557D01*
X55529Y28547D01*
X55547Y28540D01*
X55566Y28536D01*
X55585Y28535D01*
X55612Y28538D01*
X55636Y28546D01*
X55659Y28560D01*
X55680Y28580D01*
X55698Y28604D01*
X55710Y28633D01*
X55718Y28665D01*
X55720Y28702D01*
X55718Y28737D01*
X55711Y28768D01*
X55698Y28796D01*
X55681Y28819D01*
X55660Y28838D01*
X55636Y28851D01*
X55610Y28859D01*
X55581Y28862D01*
X55553Y28859D01*
X55526Y28851D01*
X55502Y28838D01*
X55480Y28819D01*
X55471Y28808D01*
X55425Y28844D01*
X55442Y28867D01*
X55460Y28886D01*
X55481Y28903D01*
X55503Y28916D01*
X55526Y28926D01*
X55550Y28933D01*
X55574Y28938D01*
X55599Y28939D01*
X55641Y28935D01*
X55680Y28923D01*
X55716Y28903D01*
X55749Y28875D01*
X55776Y28840D01*
X55795Y28800D01*
X55806Y28756D01*
X55810Y28707D01*
X55808Y28674D01*
X55803Y28642D01*
X55794Y28612D01*
X55781Y28582D01*
X55765Y28555D01*
X55747Y28531D01*
X55725Y28511D01*
X55701Y28494D01*
X55675Y28480D01*
X55647Y28470D01*
X55618Y28465D01*
X55586Y28463D01*
X55534Y28468D01*
X55486Y28483D01*
X55444Y28508D01*
X55407Y28544D01*
X55377Y28591D01*
X55355Y28651D01*
X55342Y28724D01*
X55338Y28810D01*
X55342Y28907D01*
X55357Y28989D01*
X55381Y29058D01*
X55414Y29112D01*
X55451Y29148D01*
X55493Y29173D01*
X55541Y29189D01*
X55594Y29194D01*
X55635Y29191D01*
X55671Y29182D01*
X55704Y29167D01*
X55733Y29146D01*
X55757Y29120D01*
X55776Y29090D01*
X55790Y29055D01*
X55798Y29016D01*
X55798Y29016D01*
G37*
%LNtop silkscreen component da7bfe2cf6314d72*%
D10*
X6000Y13100D02*
X6000Y16900D01*
X43500Y16900*
X43500Y13100*
X6000Y13100*
D11*
X5375Y15300D03*
G36*
X3579Y13678D02*
X3664Y13690D01*
X3667Y13652D01*
X3674Y13621D01*
X3683Y13596D01*
X3695Y13578D01*
X3710Y13564D01*
X3728Y13555D01*
X3748Y13549D01*
X3771Y13547D01*
X3788Y13548D01*
X3804Y13551D01*
X3819Y13556D01*
X3832Y13564D01*
X3844Y13573D01*
X3854Y13583D01*
X3862Y13595D01*
X3868Y13608D01*
X3872Y13624D01*
X3875Y13644D01*
X3877Y13669D01*
X3878Y13698D01*
X3878Y14191D01*
X3972Y14191D01*
X3972Y13703D01*
X3971Y13661D01*
X3967Y13623D01*
X3960Y13591D01*
X3951Y13564D01*
X3938Y13541D01*
X3923Y13520D01*
X3904Y13503D01*
X3882Y13489D01*
X3857Y13477D01*
X3831Y13469D01*
X3802Y13464D01*
X3771Y13463D01*
X3727Y13466D01*
X3688Y13476D01*
X3655Y13493D01*
X3627Y13517D01*
X3605Y13547D01*
X3590Y13584D01*
X3581Y13628D01*
X3579Y13678D01*
X3579Y13678D01*
X4423Y13475D02*
X4335Y13475D01*
X4335Y14035D01*
X4318Y14020D01*
X4298Y14005D01*
X4276Y13990D01*
X4251Y13975D01*
X4226Y13960D01*
X4203Y13948D01*
X4180Y13938D01*
X4159Y13929D01*
X4159Y14014D01*
X4195Y14032D01*
X4228Y14052D01*
X4259Y14074D01*
X4288Y14098D01*
X4313Y14123D01*
X4335Y14147D01*
X4352Y14170D01*
X4366Y14194D01*
X4423Y14194D01*
X4423Y13475D01*
X4423Y13475D01*
X4929Y13475D02*
X4929Y13646D01*
X4619Y13646D01*
X4619Y13727D01*
X4874Y14089D01*
X4929Y14050D01*
X4705Y13727D01*
X4929Y13727D01*
X4929Y13727D01*
X4929Y14050D01*
X4874Y14089D01*
X4946Y14191D01*
X5017Y14191D01*
X5017Y13727D01*
X5114Y13727D01*
X5114Y13646D01*
X5017Y13646D01*
X5017Y13475D01*
X4929Y13475D01*
X4929Y13475D01*
G37*
%LNtop silkscreen component 228893982379df3f*%
D10*
X54000Y21900D02*
X54000Y18100D01*
X41500Y18100*
X41500Y21900*
X54000Y21900*
D12*
X54625Y19700D03*
G36*
X54829Y18678D02*
X54914Y18690D01*
X54917Y18652D01*
X54924Y18621D01*
X54933Y18596D01*
X54945Y18578D01*
X54960Y18564D01*
X54978Y18555D01*
X54998Y18549D01*
X55021Y18547D01*
X55038Y18548D01*
X55054Y18551D01*
X55069Y18556D01*
X55082Y18564D01*
X55094Y18573D01*
X55104Y18583D01*
X55112Y18595D01*
X55118Y18608D01*
X55122Y18624D01*
X55125Y18644D01*
X55127Y18669D01*
X55128Y18698D01*
X55128Y19191D01*
X55222Y19191D01*
X55222Y18703D01*
X55221Y18661D01*
X55217Y18623D01*
X55210Y18591D01*
X55201Y18564D01*
X55188Y18541D01*
X55173Y18520D01*
X55154Y18503D01*
X55132Y18489D01*
X55107Y18477D01*
X55081Y18469D01*
X55052Y18464D01*
X55021Y18463D01*
X54977Y18466D01*
X54938Y18476D01*
X54905Y18493D01*
X54877Y18517D01*
X54855Y18547D01*
X54840Y18584D01*
X54831Y18628D01*
X54829Y18678D01*
X54829Y18678D01*
X55623Y18475D02*
X55623Y18646D01*
X55313Y18646D01*
X55313Y18727D01*
X55568Y19089D01*
X55623Y19050D01*
X55399Y18727D01*
X55623Y18727D01*
X55623Y18727D01*
X55623Y19050D01*
X55568Y19089D01*
X55639Y19191D01*
X55711Y19191D01*
X55711Y18727D01*
X55808Y18727D01*
X55808Y18646D01*
X55711Y18646D01*
X55711Y18475D01*
X55623Y18475D01*
X55623Y18475D01*
G37*
%LNtop silkscreen component da574c27139357db*%
D10*
X6000Y18100D02*
X6000Y21900D01*
X41000Y21900*
X41000Y18100*
X6000Y18100*
D11*
X5375Y20300D03*
G36*
X3579Y18678D02*
X3664Y18690D01*
X3667Y18652D01*
X3674Y18621D01*
X3683Y18596D01*
X3695Y18578D01*
X3710Y18564D01*
X3728Y18555D01*
X3748Y18549D01*
X3771Y18547D01*
X3788Y18548D01*
X3804Y18551D01*
X3819Y18556D01*
X3832Y18564D01*
X3844Y18573D01*
X3854Y18583D01*
X3862Y18595D01*
X3868Y18608D01*
X3872Y18624D01*
X3875Y18644D01*
X3877Y18669D01*
X3878Y18698D01*
X3878Y19191D01*
X3972Y19191D01*
X3972Y18703D01*
X3971Y18661D01*
X3967Y18623D01*
X3960Y18591D01*
X3951Y18564D01*
X3938Y18541D01*
X3923Y18520D01*
X3904Y18503D01*
X3882Y18489D01*
X3857Y18477D01*
X3831Y18469D01*
X3802Y18464D01*
X3771Y18463D01*
X3727Y18466D01*
X3688Y18476D01*
X3655Y18493D01*
X3627Y18517D01*
X3605Y18547D01*
X3590Y18584D01*
X3581Y18628D01*
X3579Y18678D01*
X3579Y18678D01*
X4423Y18475D02*
X4335Y18475D01*
X4335Y19035D01*
X4318Y19020D01*
X4298Y19005D01*
X4276Y18990D01*
X4251Y18975D01*
X4226Y18960D01*
X4203Y18948D01*
X4180Y18938D01*
X4159Y18929D01*
X4159Y19014D01*
X4195Y19032D01*
X4228Y19052D01*
X4259Y19074D01*
X4288Y19098D01*
X4313Y19123D01*
X4335Y19147D01*
X4352Y19170D01*
X4366Y19194D01*
X4423Y19194D01*
X4423Y18475D01*
X4423Y18475D01*
X4648Y18664D02*
X4736Y18676D01*
X4745Y18641D01*
X4757Y18611D01*
X4771Y18587D01*
X4788Y18568D01*
X4807Y18554D01*
X4828Y18543D01*
X4851Y18537D01*
X4876Y18535D01*
X4906Y18538D01*
X4933Y18546D01*
X4958Y18559D01*
X4981Y18578D01*
X5000Y18601D01*
X5013Y18626D01*
X5021Y18654D01*
X5024Y18684D01*
X5021Y18713D01*
X5014Y18740D01*
X5001Y18763D01*
X4984Y18784D01*
X4963Y18802D01*
X4939Y18814D01*
X4913Y18821D01*
X4884Y18824D01*
X4870Y18823D01*
X4856Y18821D01*
X4839Y18818D01*
X4822Y18814D01*
X4831Y18891D01*
X4835Y18891D01*
X4839Y18890D01*
X4843Y18890D01*
X4845Y18890D01*
X4873Y18892D01*
X4899Y18897D01*
X4923Y18907D01*
X4947Y18919D01*
X4966Y18936D01*
X4980Y18957D01*
X4989Y18981D01*
X4991Y19010D01*
X4989Y19033D01*
X4983Y19054D01*
X4973Y19073D01*
X4959Y19090D01*
X4941Y19104D01*
X4921Y19114D01*
X4899Y19119D01*
X4874Y19121D01*
X4850Y19119D01*
X4827Y19113D01*
X4807Y19103D01*
X4789Y19089D01*
X4773Y19071D01*
X4761Y19049D01*
X4751Y19023D01*
X4745Y18993D01*
X4657Y19008D01*
X4668Y19050D01*
X4683Y19087D01*
X4704Y19118D01*
X4730Y19145D01*
X4761Y19166D01*
X4794Y19182D01*
X4832Y19191D01*
X4872Y19194D01*
X4901Y19192D01*
X4929Y19187D01*
X4955Y19180D01*
X4980Y19169D01*
X5003Y19155D01*
X5024Y19139D01*
X5041Y19121D01*
X5056Y19100D01*
X5067Y19078D01*
X5075Y19055D01*
X5080Y19032D01*
X5082Y19008D01*
X5080Y18985D01*
X5076Y18963D01*
X5068Y18943D01*
X5057Y18923D01*
X5043Y18905D01*
X5026Y18889D01*
X5006Y18875D01*
X4983Y18863D01*
X5013Y18853D01*
X5040Y18840D01*
X5062Y18823D01*
X5082Y18802D01*
X5097Y18777D01*
X5108Y18750D01*
X5115Y18720D01*
X5117Y18686D01*
X5113Y18641D01*
X5100Y18600D01*
X5078Y18562D01*
X5049Y18527D01*
X5012Y18499D01*
X4971Y18479D01*
X4926Y18466D01*
X4876Y18462D01*
X4831Y18466D01*
X4789Y18476D01*
X4752Y18494D01*
X4719Y18518D01*
X4691Y18549D01*
X4670Y18583D01*
X4656Y18621D01*
X4648Y18664D01*
X4648Y18664D01*
G37*
%LNtop silkscreen component eafc2537431a66c3*%
D10*
X6000Y38100D02*
X6000Y41900D01*
X31000Y41900*
X31000Y38100*
X6000Y38100*
D11*
X5375Y40300D03*
G36*
X4079Y38678D02*
X4164Y38690D01*
X4167Y38652D01*
X4174Y38621D01*
X4183Y38596D01*
X4195Y38578D01*
X4210Y38564D01*
X4228Y38555D01*
X4248Y38549D01*
X4271Y38547D01*
X4288Y38548D01*
X4304Y38551D01*
X4319Y38556D01*
X4332Y38564D01*
X4344Y38573D01*
X4354Y38583D01*
X4362Y38595D01*
X4368Y38608D01*
X4372Y38624D01*
X4375Y38644D01*
X4377Y38669D01*
X4378Y38698D01*
X4378Y39191D01*
X4472Y39191D01*
X4472Y38703D01*
X4471Y38661D01*
X4467Y38623D01*
X4460Y38591D01*
X4451Y38564D01*
X4438Y38541D01*
X4423Y38520D01*
X4404Y38503D01*
X4382Y38489D01*
X4357Y38477D01*
X4331Y38469D01*
X4302Y38464D01*
X4271Y38463D01*
X4227Y38466D01*
X4188Y38476D01*
X4155Y38493D01*
X4127Y38517D01*
X4105Y38547D01*
X4090Y38584D01*
X4081Y38628D01*
X4079Y38678D01*
X4079Y38678D01*
X4605Y38641D02*
X4689Y38648D01*
X4696Y38621D01*
X4705Y38597D01*
X4716Y38577D01*
X4730Y38562D01*
X4746Y38550D01*
X4765Y38542D01*
X4785Y38537D01*
X4808Y38535D01*
X4827Y38536D01*
X4846Y38540D01*
X4863Y38545D01*
X4879Y38554D01*
X4893Y38564D01*
X4907Y38575D01*
X4918Y38588D01*
X4929Y38603D01*
X4938Y38620D01*
X4947Y38640D01*
X4955Y38662D01*
X4962Y38687D01*
X4967Y38713D01*
X4972Y38740D01*
X4974Y38767D01*
X4975Y38794D01*
X4975Y38798D01*
X4975Y38802D01*
X4975Y38806D01*
X4974Y38812D01*
X4930Y38844D01*
X4942Y38861D01*
X4955Y38889D01*
X4962Y38921D01*
X4965Y38956D01*
X4965Y38956D01*
X4962Y38992D01*
X4955Y39024D01*
X4942Y39052D01*
X4924Y39077D01*
X4903Y39096D01*
X4880Y39110D01*
X4855Y39118D01*
X4827Y39121D01*
X4799Y39118D01*
X4773Y39109D01*
X4748Y39094D01*
X4725Y39073D01*
X4706Y39047D01*
X4693Y39018D01*
X4685Y38985D01*
X4682Y38949D01*
X4684Y38917D01*
X4692Y38887D01*
X4705Y38861D01*
X4723Y38838D01*
X4745Y38819D01*
X4769Y38806D01*
X4796Y38798D01*
X4825Y38795D01*
X4854Y38798D01*
X4881Y38806D01*
X4904Y38819D01*
X4925Y38838D01*
X4930Y38844D01*
X4974Y38812D01*
X4960Y38792D01*
X4943Y38774D01*
X4924Y38758D01*
X4902Y38744D01*
X4879Y38732D01*
X4855Y38724D01*
X4830Y38719D01*
X4803Y38718D01*
X4761Y38722D01*
X4721Y38734D01*
X4686Y38754D01*
X4653Y38782D01*
X4626Y38817D01*
X4607Y38857D01*
X4595Y38902D01*
X4592Y38952D01*
X4596Y39004D01*
X4608Y39050D01*
X4628Y39091D01*
X4656Y39127D01*
X4690Y39156D01*
X4728Y39177D01*
X4770Y39190D01*
X4817Y39194D01*
X4851Y39191D01*
X4883Y39184D01*
X4915Y39173D01*
X4944Y39156D01*
X4972Y39135D01*
X4995Y39111D01*
X5015Y39082D01*
X5032Y39049D01*
X5045Y39010D01*
X5055Y38964D01*
X5060Y38910D01*
X5062Y38848D01*
X5060Y38782D01*
X5055Y38724D01*
X5045Y38673D01*
X5032Y38629D01*
X5016Y38591D01*
X4995Y38557D01*
X4971Y38529D01*
X4944Y38505D01*
X4913Y38487D01*
X4880Y38473D01*
X4844Y38465D01*
X4806Y38463D01*
X4766Y38466D01*
X4730Y38474D01*
X4697Y38489D01*
X4669Y38509D01*
X4645Y38535D01*
X4626Y38566D01*
X4613Y38601D01*
X4605Y38641D01*
X4605Y38641D01*
G37*
%LNtop silkscreen component b7702b93b57b5186*%
D10*
X6000Y28100D02*
X6000Y31900D01*
X36000Y31900*
X36000Y28100*
X6000Y28100*
D11*
X5375Y30300D03*
G36*
X3579Y28678D02*
X3664Y28690D01*
X3667Y28652D01*
X3674Y28621D01*
X3683Y28596D01*
X3695Y28578D01*
X3710Y28564D01*
X3728Y28555D01*
X3748Y28549D01*
X3771Y28547D01*
X3788Y28548D01*
X3804Y28551D01*
X3819Y28556D01*
X3832Y28564D01*
X3844Y28573D01*
X3854Y28583D01*
X3862Y28595D01*
X3868Y28608D01*
X3872Y28624D01*
X3875Y28644D01*
X3877Y28669D01*
X3878Y28698D01*
X3878Y29191D01*
X3972Y29191D01*
X3972Y28703D01*
X3971Y28661D01*
X3967Y28623D01*
X3960Y28591D01*
X3951Y28564D01*
X3938Y28541D01*
X3923Y28520D01*
X3904Y28503D01*
X3882Y28489D01*
X3857Y28477D01*
X3831Y28469D01*
X3802Y28464D01*
X3771Y28463D01*
X3727Y28466D01*
X3688Y28476D01*
X3655Y28493D01*
X3627Y28517D01*
X3605Y28547D01*
X3590Y28584D01*
X3581Y28628D01*
X3579Y28678D01*
X3579Y28678D01*
X4423Y28475D02*
X4335Y28475D01*
X4335Y29035D01*
X4318Y29020D01*
X4298Y29005D01*
X4276Y28990D01*
X4251Y28975D01*
X4226Y28960D01*
X4203Y28948D01*
X4180Y28938D01*
X4159Y28929D01*
X4159Y29014D01*
X4195Y29032D01*
X4228Y29052D01*
X4259Y29074D01*
X4288Y29098D01*
X4313Y29123D01*
X4335Y29147D01*
X4352Y29170D01*
X4366Y29194D01*
X4423Y29194D01*
X4423Y28475D01*
X4423Y28475D01*
X4905Y28475D02*
X4817Y28475D01*
X4817Y29035D01*
X4800Y29020D01*
X4780Y29005D01*
X4758Y28990D01*
X4733Y28975D01*
X4708Y28960D01*
X4684Y28948D01*
X4662Y28938D01*
X4641Y28929D01*
X4641Y29014D01*
X4677Y29032D01*
X4710Y29052D01*
X4741Y29074D01*
X4770Y29098D01*
X4795Y29123D01*
X4817Y29147D01*
X4834Y29170D01*
X4848Y29194D01*
X4905Y29194D01*
X4905Y28475D01*
X4905Y28475D01*
G37*
%LNtop silkscreen component f237f16fae055c2f*%
D10*
X6000Y33100D02*
X6000Y36900D01*
X33500Y36900*
X33500Y33100*
X6000Y33100*
D11*
X5375Y35300D03*
G36*
X3579Y33678D02*
X3664Y33690D01*
X3667Y33652D01*
X3674Y33621D01*
X3683Y33596D01*
X3695Y33578D01*
X3710Y33564D01*
X3728Y33555D01*
X3748Y33549D01*
X3771Y33547D01*
X3788Y33548D01*
X3804Y33551D01*
X3819Y33556D01*
X3832Y33564D01*
X3844Y33573D01*
X3854Y33583D01*
X3862Y33595D01*
X3868Y33608D01*
X3872Y33624D01*
X3875Y33644D01*
X3877Y33669D01*
X3878Y33698D01*
X3878Y34191D01*
X3972Y34191D01*
X3972Y33703D01*
X3971Y33661D01*
X3967Y33623D01*
X3960Y33591D01*
X3951Y33564D01*
X3938Y33541D01*
X3923Y33520D01*
X3904Y33503D01*
X3882Y33489D01*
X3857Y33477D01*
X3831Y33469D01*
X3802Y33464D01*
X3771Y33463D01*
X3727Y33466D01*
X3688Y33476D01*
X3655Y33493D01*
X3627Y33517D01*
X3605Y33547D01*
X3590Y33584D01*
X3581Y33628D01*
X3579Y33678D01*
X3579Y33678D01*
X4423Y33475D02*
X4335Y33475D01*
X4335Y34035D01*
X4318Y34020D01*
X4298Y34005D01*
X4276Y33990D01*
X4251Y33975D01*
X4226Y33960D01*
X4203Y33948D01*
X4180Y33938D01*
X4159Y33929D01*
X4159Y34014D01*
X4195Y34032D01*
X4228Y34052D01*
X4259Y34074D01*
X4288Y34098D01*
X4313Y34123D01*
X4335Y34147D01*
X4352Y34170D01*
X4366Y34194D01*
X4423Y34194D01*
X4423Y33475D01*
X4423Y33475D01*
X4648Y33828D02*
X4649Y33888D01*
X4654Y33943D01*
X4662Y33991D01*
X4674Y34032D01*
X4688Y34069D01*
X4706Y34101D01*
X4727Y34129D01*
X4751Y34152D01*
X4779Y34170D01*
X4810Y34183D01*
X4844Y34191D01*
X4881Y34194D01*
X4909Y34192D01*
X4935Y34188D01*
X4960Y34181D01*
X4982Y34171D01*
X5003Y34158D01*
X5022Y34142D01*
X5039Y34124D01*
X5054Y34104D01*
X5067Y34081D01*
X5079Y34055D01*
X5090Y34027D01*
X5098Y33997D01*
X5105Y33963D01*
X5110Y33924D01*
X5113Y33879D01*
X5114Y33828D01*
X5113Y33768D01*
X5108Y33714D01*
X5100Y33666D01*
X5089Y33625D01*
X5074Y33588D01*
X5056Y33556D01*
X5035Y33528D01*
X5011Y33505D01*
X4984Y33487D01*
X4953Y33473D01*
X4919Y33465D01*
X4881Y33463D01*
X4874Y33463D01*
X4881Y33535D01*
X4910Y33539D01*
X4937Y33550D01*
X4961Y33568D01*
X4983Y33594D01*
X5001Y33630D01*
X5014Y33682D01*
X5022Y33747D01*
X5024Y33828D01*
X5022Y33909D01*
X5014Y33975D01*
X5001Y34026D01*
X4983Y34063D01*
X4961Y34088D01*
X4937Y34106D01*
X4910Y34117D01*
X4880Y34121D01*
X4851Y34118D01*
X4826Y34108D01*
X4803Y34092D01*
X4783Y34070D01*
X4764Y34030D01*
X4749Y33977D01*
X4741Y33909D01*
X4738Y33828D01*
X4738Y33828D01*
X4741Y33747D01*
X4748Y33681D01*
X4761Y33630D01*
X4779Y33593D01*
X4801Y33568D01*
X4825Y33550D01*
X4852Y33539D01*
X4881Y33535D01*
X4874Y33463D01*
X4832Y33467D01*
X4789Y33481D01*
X4751Y33505D01*
X4718Y33537D01*
X4688Y33589D01*
X4665Y33654D01*
X4652Y33734D01*
X4648Y33828D01*
X4648Y33828D01*
G37*
%LNtop silkscreen component 33b1766a393aa792*%
D10*
X54000Y26900D02*
X54000Y23100D01*
X39000Y23100*
X39000Y26900*
X54000Y26900*
D12*
X54625Y24700D03*
G36*
X54829Y23678D02*
X54914Y23690D01*
X54917Y23652D01*
X54924Y23621D01*
X54933Y23596D01*
X54945Y23578D01*
X54960Y23564D01*
X54978Y23555D01*
X54998Y23549D01*
X55021Y23547D01*
X55038Y23548D01*
X55054Y23551D01*
X55069Y23556D01*
X55082Y23564D01*
X55094Y23573D01*
X55104Y23583D01*
X55112Y23595D01*
X55118Y23608D01*
X55122Y23624D01*
X55125Y23644D01*
X55127Y23669D01*
X55128Y23698D01*
X55128Y24191D01*
X55222Y24191D01*
X55222Y23703D01*
X55221Y23661D01*
X55217Y23623D01*
X55210Y23591D01*
X55201Y23564D01*
X55188Y23541D01*
X55173Y23520D01*
X55154Y23503D01*
X55132Y23489D01*
X55107Y23477D01*
X55081Y23469D01*
X55052Y23464D01*
X55021Y23463D01*
X54977Y23466D01*
X54938Y23476D01*
X54905Y23493D01*
X54877Y23517D01*
X54855Y23547D01*
X54840Y23584D01*
X54831Y23628D01*
X54829Y23678D01*
X54829Y23678D01*
X55342Y23663D02*
X55434Y23670D01*
X55441Y23639D01*
X55451Y23611D01*
X55464Y23588D01*
X55481Y23569D01*
X55501Y23554D01*
X55523Y23544D01*
X55546Y23537D01*
X55572Y23535D01*
X55602Y23538D01*
X55630Y23547D01*
X55656Y23562D01*
X55679Y23583D01*
X55698Y23609D01*
X55712Y23639D01*
X55720Y23672D01*
X55723Y23710D01*
X55720Y23745D01*
X55712Y23777D01*
X55699Y23805D01*
X55681Y23829D01*
X55658Y23848D01*
X55632Y23861D01*
X55603Y23869D01*
X55570Y23872D01*
X55549Y23871D01*
X55530Y23867D01*
X55511Y23861D01*
X55493Y23853D01*
X55477Y23842D01*
X55463Y23831D01*
X55450Y23817D01*
X55440Y23803D01*
X55357Y23813D01*
X55426Y24181D01*
X55782Y24181D01*
X55782Y24097D01*
X55497Y24097D01*
X55458Y23905D01*
X55491Y23924D01*
X55524Y23938D01*
X55558Y23947D01*
X55593Y23950D01*
X55639Y23946D01*
X55680Y23933D01*
X55718Y23913D01*
X55752Y23885D01*
X55780Y23850D01*
X55800Y23810D01*
X55812Y23766D01*
X55816Y23718D01*
X55813Y23671D01*
X55802Y23627D01*
X55784Y23587D01*
X55760Y23550D01*
X55722Y23512D01*
X55678Y23485D01*
X55628Y23468D01*
X55572Y23463D01*
X55525Y23466D01*
X55483Y23476D01*
X55445Y23494D01*
X55412Y23517D01*
X55385Y23547D01*
X55364Y23581D01*
X55349Y23620D01*
X55342Y23663D01*
X55342Y23663D01*
G37*
%LNtext*%
G36*
X10411Y45609D02*
X10668Y45645D01*
X10677Y45531D01*
X10696Y45437D01*
X10724Y45363D01*
X10760Y45308D01*
X10805Y45268D01*
X10858Y45240D01*
X10919Y45222D01*
X10987Y45217D01*
X11039Y45220D01*
X11087Y45229D01*
X11131Y45244D01*
X11172Y45266D01*
X11207Y45293D01*
X11237Y45324D01*
X11261Y45359D01*
X11279Y45399D01*
X11291Y45448D01*
X11301Y45508D01*
X11306Y45582D01*
X11308Y45668D01*
X11308Y47147D01*
X11592Y47147D01*
X11592Y45684D01*
X11588Y45557D01*
X11576Y45445D01*
X11555Y45348D01*
X11527Y45267D01*
X11490Y45197D01*
X11443Y45136D01*
X11386Y45084D01*
X11320Y45041D01*
X11247Y45007D01*
X11167Y44983D01*
X11081Y44968D01*
X10989Y44963D01*
X10856Y44974D01*
X10739Y45004D01*
X10639Y45055D01*
X10556Y45126D01*
X10490Y45217D01*
X10445Y45328D01*
X10418Y45459D01*
X10411Y45609D01*
X10411Y45609D01*
X11960Y45690D02*
X12228Y45713D01*
X12241Y45636D01*
X12260Y45567D01*
X12285Y45504D01*
X12317Y45449D01*
X12356Y45400D01*
X12405Y45356D01*
X12464Y45316D01*
X12533Y45282D01*
X12608Y45254D01*
X12688Y45234D01*
X12773Y45222D01*
X12862Y45218D01*
X12941Y45221D01*
X13015Y45230D01*
X13085Y45245D01*
X13149Y45267D01*
X13208Y45293D01*
X13258Y45324D01*
X13300Y45359D01*
X13335Y45399D01*
X13361Y45442D01*
X13380Y45487D01*
X13392Y45534D01*
X13395Y45583D01*
X13392Y45632D01*
X13381Y45678D01*
X13362Y45720D01*
X13337Y45760D01*
X13303Y45796D01*
X13259Y45829D01*
X13206Y45859D01*
X13143Y45886D01*
X13087Y45905D01*
X13005Y45929D01*
X12896Y45958D01*
X12761Y45991D01*
X12624Y46026D01*
X12510Y46060D01*
X12417Y46093D01*
X12347Y46125D01*
X12275Y46168D01*
X12212Y46215D01*
X12160Y46268D01*
X12117Y46325D01*
X12084Y46386D01*
X12061Y46451D01*
X12047Y46520D01*
X12042Y46592D01*
X12048Y46672D01*
X12065Y46750D01*
X12094Y46824D01*
X12134Y46896D01*
X12186Y46963D01*
X12248Y47021D01*
X12320Y47070D01*
X12404Y47111D01*
X12495Y47143D01*
X12591Y47166D01*
X12692Y47180D01*
X12798Y47184D01*
X12914Y47179D01*
X13022Y47165D01*
X13124Y47141D01*
X13219Y47107D01*
X13305Y47064D01*
X13380Y47012D01*
X13445Y46951D01*
X13499Y46881D01*
X13543Y46804D01*
X13575Y46722D01*
X13596Y46634D01*
X13605Y46542D01*
X13332Y46522D01*
X13315Y46618D01*
X13284Y46701D01*
X13241Y46771D01*
X13184Y46830D01*
X13113Y46875D01*
X13027Y46908D01*
X12926Y46927D01*
X12809Y46934D01*
X12689Y46928D01*
X12587Y46910D01*
X12501Y46880D01*
X12434Y46839D01*
X12382Y46789D01*
X12345Y46735D01*
X12323Y46676D01*
X12316Y46611D01*
X12321Y46556D01*
X12337Y46506D01*
X12363Y46461D01*
X12399Y46421D01*
X12457Y46383D01*
X12547Y46345D01*
X12671Y46307D01*
X12828Y46268D01*
X12987Y46230D01*
X13120Y46194D01*
X13225Y46161D01*
X13303Y46131D01*
X13391Y46085D01*
X13466Y46033D01*
X13529Y45975D01*
X13580Y45912D01*
X13619Y45843D01*
X13647Y45769D01*
X13664Y45690D01*
X13669Y45606D01*
X13663Y45522D01*
X13645Y45440D01*
X13614Y45360D01*
X13571Y45283D01*
X13517Y45212D01*
X13452Y45149D01*
X13376Y45094D01*
X13289Y45048D01*
X13194Y45011D01*
X13094Y44984D01*
X12987Y44969D01*
X12875Y44963D01*
X12736Y44969D01*
X12608Y44985D01*
X12491Y45011D01*
X12387Y45048D01*
X12294Y45096D01*
X12211Y45155D01*
X12139Y45224D01*
X12078Y45304D01*
X12028Y45392D01*
X11992Y45486D01*
X11969Y45585D01*
X11960Y45690D01*
X11960Y45690D01*
X14604Y45000D02*
X14604Y46894D01*
X13896Y46894D01*
X13896Y47147D01*
X15599Y47147D01*
X15599Y46894D01*
X14888Y46894D01*
X14888Y45000D01*
X14604Y45000D01*
X14604Y45000D01*
X15588Y45645D02*
X15588Y45910D01*
X16398Y45910D01*
X16398Y45645D01*
X15588Y45645D01*
X15588Y45645D01*
X16729Y45000D02*
X16729Y47147D01*
X18282Y47147D01*
X18282Y46894D01*
X17014Y46894D01*
X17014Y46236D01*
X18202Y46236D01*
X18202Y45984D01*
X17014Y45984D01*
X17014Y45253D01*
X18332Y45253D01*
X18332Y45000D01*
X16729Y45000D01*
X16729Y45000D01*
X18733Y45000D02*
X18733Y47147D01*
X19017Y47147D01*
X19017Y46266D01*
X20134Y46266D01*
X20134Y47147D01*
X20418Y47147D01*
X20418Y45000D01*
X20134Y45000D01*
X20134Y46012D01*
X19017Y46012D01*
X19017Y45000D01*
X18733Y45000D01*
X18733Y45000D01*
X22706Y45192D02*
X22633Y45134D01*
X22623Y45127D01*
X22523Y45274D01*
X22570Y45317D01*
X22610Y45366D01*
X22642Y45420D01*
X22660Y45470D01*
X22673Y45531D01*
X22681Y45602D01*
X22684Y45684D01*
X22684Y45781D01*
X22684Y45781D01*
X22603Y45753D01*
X22505Y45727D01*
X22388Y45703D01*
X22253Y45681D01*
X22178Y45669D01*
X22115Y45656D01*
X22063Y45643D01*
X22023Y45628D01*
X21992Y45612D01*
X21964Y45592D01*
X21940Y45569D01*
X21919Y45543D01*
X21903Y45514D01*
X21892Y45483D01*
X21885Y45451D01*
X21883Y45417D01*
X21888Y45367D01*
X21903Y45321D01*
X21928Y45279D01*
X21963Y45242D01*
X22007Y45211D01*
X22061Y45189D01*
X22124Y45176D01*
X22196Y45171D01*
X22270Y45176D01*
X22340Y45188D01*
X22406Y45209D01*
X22467Y45238D01*
X22523Y45274D01*
X22623Y45127D01*
X22562Y45086D01*
X22492Y45046D01*
X22424Y45016D01*
X22355Y44994D01*
X22284Y44978D01*
X22210Y44968D01*
X22133Y44965D01*
X22012Y44973D01*
X21907Y44996D01*
X21815Y45035D01*
X21739Y45090D01*
X21679Y45157D01*
X21636Y45233D01*
X21610Y45317D01*
X21601Y45410D01*
X21605Y45466D01*
X21614Y45519D01*
X21631Y45570D01*
X21653Y45619D01*
X21681Y45664D01*
X21714Y45704D01*
X21750Y45740D01*
X21790Y45771D01*
X21833Y45797D01*
X21879Y45821D01*
X21928Y45841D01*
X21979Y45857D01*
X22023Y45867D01*
X22077Y45877D01*
X22140Y45887D01*
X22214Y45896D01*
X22363Y45916D01*
X22491Y45938D01*
X22598Y45962D01*
X22684Y45987D01*
X22685Y46012D01*
X22685Y46032D01*
X22685Y46046D01*
X22685Y46056D01*
X22681Y46131D01*
X22667Y46193D01*
X22643Y46244D01*
X22611Y46283D01*
X22554Y46322D01*
X22485Y46350D01*
X22404Y46367D01*
X22310Y46373D01*
X22224Y46368D01*
X22149Y46356D01*
X22086Y46336D01*
X22036Y46307D01*
X21994Y46269D01*
X21959Y46217D01*
X21929Y46153D01*
X21905Y46077D01*
X21647Y46112D01*
X21667Y46191D01*
X21693Y46261D01*
X21725Y46324D01*
X21763Y46379D01*
X21807Y46427D01*
X21861Y46469D01*
X21924Y46505D01*
X21996Y46536D01*
X22075Y46560D01*
X22160Y46577D01*
X22251Y46587D01*
X22349Y46591D01*
X22443Y46588D01*
X22529Y46579D01*
X22605Y46564D01*
X22672Y46544D01*
X22730Y46519D01*
X22780Y46491D01*
X22822Y46460D01*
X22855Y46426D01*
X22882Y46388D01*
X22905Y46346D01*
X22923Y46298D01*
X22937Y46247D01*
X22943Y46206D01*
X22947Y46152D01*
X22950Y46085D01*
X22951Y46003D01*
X22951Y45652D01*
X22952Y45485D01*
X22955Y45352D01*
X22960Y45252D01*
X22967Y45187D01*
X22978Y45139D01*
X22993Y45091D01*
X23011Y45045D01*
X23034Y45000D01*
X22759Y45000D01*
X22740Y45043D01*
X22725Y45089D01*
X22714Y45139D01*
X22706Y45192D01*
X22706Y45192D01*
X24369Y45000D02*
X24369Y45196D01*
X24249Y45320D01*
X24252Y45323D01*
X24305Y45403D01*
X24343Y45502D01*
X24365Y45619D01*
X24373Y45754D01*
X24365Y45903D01*
X24342Y46031D01*
X24304Y46138D01*
X24250Y46223D01*
X24185Y46289D01*
X24113Y46335D01*
X24033Y46363D01*
X23947Y46373D01*
X23862Y46364D01*
X23785Y46337D01*
X23716Y46292D01*
X23653Y46229D01*
X23601Y46147D01*
X23565Y46044D01*
X23542Y45921D01*
X23535Y45776D01*
X23535Y45776D01*
X23543Y45636D01*
X23567Y45515D01*
X23606Y45413D01*
X23661Y45330D01*
X23727Y45265D01*
X23798Y45219D01*
X23876Y45191D01*
X23958Y45182D01*
X24042Y45190D01*
X24118Y45217D01*
X24188Y45261D01*
X24249Y45320D01*
X24369Y45196D01*
X24286Y45095D01*
X24186Y45023D01*
X24068Y44979D01*
X23934Y44965D01*
X23842Y44971D01*
X23755Y44990D01*
X23671Y45023D01*
X23591Y45067D01*
X23518Y45124D01*
X23453Y45190D01*
X23397Y45267D01*
X23350Y45354D01*
X23312Y45449D01*
X23286Y45551D01*
X23269Y45660D01*
X23264Y45776D01*
X23269Y45890D01*
X23283Y45998D01*
X23308Y46101D01*
X23342Y46199D01*
X23385Y46288D01*
X23439Y46367D01*
X23502Y46434D01*
X23575Y46490D01*
X23655Y46534D01*
X23739Y46566D01*
X23828Y46585D01*
X23922Y46591D01*
X23990Y46587D01*
X24055Y46576D01*
X24115Y46557D01*
X24172Y46531D01*
X24225Y46500D01*
X24272Y46463D01*
X24314Y46422D01*
X24351Y46377D01*
X24351Y47147D01*
X24613Y47147D01*
X24613Y45000D01*
X24369Y45000D01*
X24369Y45000D01*
X26043Y45192D02*
X25970Y45134D01*
X25960Y45127D01*
X25860Y45274D01*
X25907Y45317D01*
X25947Y45366D01*
X25978Y45420D01*
X25997Y45470D01*
X26010Y45531D01*
X26018Y45602D01*
X26021Y45684D01*
X26021Y45781D01*
X26021Y45781D01*
X25940Y45753D01*
X25841Y45727D01*
X25725Y45703D01*
X25590Y45681D01*
X25515Y45669D01*
X25451Y45656D01*
X25400Y45643D01*
X25360Y45628D01*
X25329Y45612D01*
X25301Y45592D01*
X25277Y45569D01*
X25256Y45543D01*
X25240Y45514D01*
X25229Y45483D01*
X25222Y45451D01*
X25220Y45417D01*
X25225Y45367D01*
X25240Y45321D01*
X25265Y45279D01*
X25300Y45242D01*
X25344Y45211D01*
X25398Y45189D01*
X25461Y45176D01*
X25533Y45171D01*
X25607Y45176D01*
X25677Y45188D01*
X25743Y45209D01*
X25804Y45238D01*
X25860Y45274D01*
X25960Y45127D01*
X25899Y45086D01*
X25829Y45046D01*
X25761Y45016D01*
X25692Y44994D01*
X25620Y44978D01*
X25547Y44968D01*
X25470Y44965D01*
X25349Y44973D01*
X25243Y44996D01*
X25152Y45035D01*
X25076Y45090D01*
X25016Y45157D01*
X24973Y45233D01*
X24947Y45317D01*
X24938Y45410D01*
X24942Y45466D01*
X24951Y45519D01*
X24968Y45570D01*
X24990Y45619D01*
X25018Y45664D01*
X25050Y45704D01*
X25087Y45740D01*
X25127Y45771D01*
X25170Y45797D01*
X25216Y45821D01*
X25265Y45841D01*
X25316Y45857D01*
X25360Y45867D01*
X25414Y45877D01*
X25477Y45887D01*
X25551Y45896D01*
X25700Y45916D01*
X25828Y45938D01*
X25935Y45962D01*
X26021Y45987D01*
X26022Y46012D01*
X26022Y46032D01*
X26022Y46046D01*
X26022Y46056D01*
X26018Y46131D01*
X26004Y46193D01*
X25980Y46244D01*
X25948Y46283D01*
X25891Y46322D01*
X25822Y46350D01*
X25741Y46367D01*
X25647Y46373D01*
X25560Y46368D01*
X25486Y46356D01*
X25423Y46336D01*
X25373Y46307D01*
X25331Y46269D01*
X25296Y46217D01*
X25266Y46153D01*
X25242Y46077D01*
X24984Y46112D01*
X25004Y46191D01*
X25030Y46261D01*
X25062Y46324D01*
X25100Y46379D01*
X25144Y46427D01*
X25198Y46469D01*
X25261Y46505D01*
X25332Y46536D01*
X25412Y46560D01*
X25497Y46577D01*
X25588Y46587D01*
X25685Y46591D01*
X25780Y46588D01*
X25866Y46579D01*
X25942Y46564D01*
X26009Y46544D01*
X26067Y46519D01*
X26117Y46491D01*
X26159Y46460D01*
X26192Y46426D01*
X26219Y46388D01*
X26242Y46346D01*
X26260Y46298D01*
X26274Y46247D01*
X26280Y46206D01*
X26284Y46152D01*
X26287Y46085D01*
X26288Y46003D01*
X26288Y45652D01*
X26289Y45485D01*
X26292Y45352D01*
X26297Y45252D01*
X26304Y45187D01*
X26315Y45139D01*
X26329Y45091D01*
X26348Y45045D01*
X26371Y45000D01*
X26096Y45000D01*
X26077Y45043D01*
X26062Y45089D01*
X26051Y45139D01*
X26043Y45192D01*
X26043Y45192D01*
X26696Y44404D02*
X26696Y46556D01*
X26936Y46556D01*
X26936Y46354D01*
X27065Y46228D01*
X27065Y46227D01*
X27008Y46139D01*
X26967Y46034D01*
X26943Y45910D01*
X26935Y45769D01*
X26935Y45769D01*
X26943Y45629D01*
X26965Y45508D01*
X27003Y45407D01*
X27057Y45325D01*
X27121Y45262D01*
X27191Y45218D01*
X27268Y45191D01*
X27351Y45182D01*
X27436Y45191D01*
X27514Y45219D01*
X27586Y45265D01*
X27652Y45330D01*
X27707Y45415D01*
X27746Y45520D01*
X27769Y45645D01*
X27777Y45791D01*
X27770Y45930D01*
X27747Y46051D01*
X27709Y46153D01*
X27655Y46236D01*
X27591Y46301D01*
X27521Y46347D01*
X27445Y46375D01*
X27363Y46384D01*
X27281Y46374D01*
X27204Y46345D01*
X27132Y46296D01*
X27065Y46228D01*
X26936Y46354D01*
X26980Y46409D01*
X27027Y46457D01*
X27076Y46498D01*
X27128Y46531D01*
X27185Y46557D01*
X27247Y46576D01*
X27314Y46587D01*
X27388Y46591D01*
X27484Y46584D01*
X27575Y46565D01*
X27660Y46533D01*
X27739Y46488D01*
X27811Y46432D01*
X27873Y46365D01*
X27926Y46287D01*
X27969Y46199D01*
X28003Y46103D01*
X28027Y46003D01*
X28042Y45899D01*
X28047Y45790D01*
X28041Y45673D01*
X28025Y45563D01*
X27999Y45458D01*
X27961Y45360D01*
X27913Y45270D01*
X27856Y45191D01*
X27789Y45123D01*
X27712Y45067D01*
X27629Y45022D01*
X27545Y44990D01*
X27458Y44971D01*
X27369Y44965D01*
X27304Y44968D01*
X27244Y44979D01*
X27186Y44996D01*
X27132Y45021D01*
X27082Y45050D01*
X27037Y45083D01*
X26996Y45120D01*
X26960Y45161D01*
X26960Y44404D01*
X26696Y44404D01*
X26696Y44404D01*
X28940Y45236D02*
X28979Y45003D01*
X28924Y44993D01*
X28873Y44985D01*
X28825Y44981D01*
X28779Y44979D01*
X28712Y44982D01*
X28652Y44991D01*
X28600Y45005D01*
X28557Y45025D01*
X28520Y45049D01*
X28489Y45077D01*
X28464Y45109D01*
X28445Y45144D01*
X28431Y45191D01*
X28421Y45259D01*
X28415Y45347D01*
X28413Y45456D01*
X28413Y46351D01*
X28220Y46351D01*
X28220Y46556D01*
X28413Y46556D01*
X28413Y46941D01*
X28675Y47099D01*
X28675Y46556D01*
X28940Y46556D01*
X28940Y46351D01*
X28675Y46351D01*
X28675Y45441D01*
X28676Y45390D01*
X28679Y45348D01*
X28683Y45317D01*
X28689Y45296D01*
X28697Y45281D01*
X28708Y45267D01*
X28720Y45255D01*
X28735Y45245D01*
X28752Y45236D01*
X28773Y45230D01*
X28797Y45227D01*
X28825Y45226D01*
X28848Y45226D01*
X28876Y45228D01*
X28906Y45231D01*
X28940Y45236D01*
X28940Y45236D01*
X30263Y45501D02*
X30536Y45467D01*
X30497Y45355D01*
X30444Y45255D01*
X30377Y45169D01*
X30297Y45097D01*
X30204Y45039D01*
X30098Y44998D01*
X29981Y44973D01*
X29852Y44965D01*
X29690Y44978D01*
X29546Y45017D01*
X29419Y45083D01*
X29310Y45175D01*
X29223Y45291D01*
X29160Y45428D01*
X29123Y45586D01*
X29110Y45765D01*
X29123Y45950D01*
X29161Y46113D01*
X29224Y46255D01*
X29312Y46374D01*
X29421Y46469D01*
X29545Y46537D01*
X29683Y46577D01*
X29837Y46591D01*
X29859Y46589D01*
X29840Y46374D01*
X29753Y46366D01*
X29673Y46344D01*
X29600Y46306D01*
X29534Y46252D01*
X29479Y46187D01*
X29438Y46110D01*
X29411Y46024D01*
X29397Y45927D01*
X29397Y45927D01*
X30266Y45927D01*
X30253Y46019D01*
X30232Y46099D01*
X30203Y46166D01*
X30166Y46222D01*
X30099Y46288D01*
X30022Y46336D01*
X29935Y46365D01*
X29840Y46374D01*
X29859Y46589D01*
X29986Y46578D01*
X30120Y46538D01*
X30241Y46471D01*
X30347Y46378D01*
X30433Y46261D01*
X30495Y46123D01*
X30532Y45963D01*
X30544Y45781D01*
X30544Y45768D01*
X30544Y45751D01*
X30544Y45732D01*
X30543Y45710D01*
X29383Y45710D01*
X29397Y45590D01*
X29426Y45484D01*
X29470Y45393D01*
X29528Y45318D01*
X29597Y45258D01*
X29674Y45216D01*
X29760Y45190D01*
X29853Y45182D01*
X29923Y45186D01*
X29987Y45201D01*
X30047Y45224D01*
X30101Y45258D01*
X30149Y45302D01*
X30192Y45357D01*
X30230Y45423D01*
X30263Y45501D01*
X30263Y45501D01*
X30864Y45000D02*
X30864Y46556D01*
X31101Y46556D01*
X31101Y46320D01*
X31146Y46396D01*
X31188Y46457D01*
X31229Y46505D01*
X31269Y46538D01*
X31308Y46561D01*
X31350Y46578D01*
X31393Y46588D01*
X31438Y46591D01*
X31505Y46586D01*
X31572Y46570D01*
X31640Y46543D01*
X31709Y46506D01*
X31618Y46261D01*
X31570Y46286D01*
X31521Y46304D01*
X31473Y46315D01*
X31425Y46318D01*
X31383Y46315D01*
X31343Y46305D01*
X31305Y46289D01*
X31270Y46266D01*
X31238Y46238D01*
X31211Y46204D01*
X31188Y46166D01*
X31171Y46122D01*
X31152Y46050D01*
X31138Y45975D01*
X31130Y45896D01*
X31127Y45814D01*
X31127Y45000D01*
X30864Y45000D01*
X30864Y45000D01*
X32597Y45645D02*
X32597Y45910D01*
X33407Y45910D01*
X33407Y45645D01*
X32597Y45645D01*
X32597Y45645D01*
X35179Y45000D02*
X34347Y47147D01*
X34655Y47147D01*
X35213Y45587D01*
X35245Y45495D01*
X35275Y45406D01*
X35301Y45319D01*
X35326Y45236D01*
X35351Y45324D01*
X35379Y45412D01*
X35409Y45500D01*
X35441Y45587D01*
X36021Y47147D01*
X36311Y47147D01*
X35471Y45000D01*
X35179Y45000D01*
X35179Y45000D01*
X37432Y45501D02*
X37705Y45467D01*
X37665Y45355D01*
X37613Y45255D01*
X37546Y45169D01*
X37466Y45097D01*
X37373Y45039D01*
X37267Y44998D01*
X37150Y44973D01*
X37020Y44965D01*
X36859Y44978D01*
X36714Y45017D01*
X36588Y45083D01*
X36479Y45175D01*
X36392Y45291D01*
X36329Y45428D01*
X36292Y45586D01*
X36279Y45765D01*
X36292Y45950D01*
X36330Y46113D01*
X36393Y46255D01*
X36481Y46374D01*
X36590Y46469D01*
X36714Y46537D01*
X36852Y46577D01*
X37006Y46591D01*
X37028Y46589D01*
X37009Y46374D01*
X36922Y46366D01*
X36842Y46344D01*
X36769Y46306D01*
X36703Y46252D01*
X36648Y46187D01*
X36607Y46110D01*
X36580Y46024D01*
X36566Y45927D01*
X36566Y45927D01*
X37435Y45927D01*
X37422Y46019D01*
X37401Y46099D01*
X37372Y46166D01*
X37335Y46222D01*
X37268Y46288D01*
X37191Y46336D01*
X37104Y46365D01*
X37009Y46374D01*
X37028Y46589D01*
X37155Y46578D01*
X37289Y46538D01*
X37410Y46471D01*
X37516Y46378D01*
X37602Y46261D01*
X37664Y46123D01*
X37701Y45963D01*
X37713Y45781D01*
X37713Y45768D01*
X37713Y45751D01*
X37712Y45732D01*
X37712Y45710D01*
X36552Y45710D01*
X36566Y45590D01*
X36595Y45484D01*
X36639Y45393D01*
X36697Y45318D01*
X36766Y45258D01*
X36843Y45216D01*
X36929Y45190D01*
X37022Y45182D01*
X37092Y45186D01*
X37156Y45201D01*
X37216Y45224D01*
X37269Y45258D01*
X37318Y45302D01*
X37361Y45357D01*
X37399Y45423D01*
X37432Y45501D01*
X37432Y45501D01*
X38033Y45000D02*
X38033Y46556D01*
X38270Y46556D01*
X38270Y46320D01*
X38315Y46396D01*
X38357Y46457D01*
X38398Y46505D01*
X38438Y46538D01*
X38477Y46561D01*
X38518Y46578D01*
X38562Y46588D01*
X38607Y46591D01*
X38674Y46586D01*
X38741Y46570D01*
X38809Y46543D01*
X38878Y46506D01*
X38787Y46261D01*
X38739Y46286D01*
X38690Y46304D01*
X38642Y46315D01*
X38594Y46318D01*
X38552Y46315D01*
X38512Y46305D01*
X38474Y46289D01*
X38438Y46266D01*
X38406Y46238D01*
X38379Y46204D01*
X38357Y46166D01*
X38340Y46122D01*
X38321Y46050D01*
X38307Y45975D01*
X38299Y45896D01*
X38296Y45814D01*
X38296Y45000D01*
X38033Y45000D01*
X38033Y45000D01*
X38929Y45464D02*
X39190Y45505D01*
X39206Y45432D01*
X39231Y45367D01*
X39267Y45311D01*
X39312Y45265D01*
X39367Y45229D01*
X39432Y45203D01*
X39508Y45187D01*
X39593Y45182D01*
X39678Y45186D01*
X39751Y45200D01*
X39812Y45223D01*
X39862Y45256D01*
X39901Y45294D01*
X39928Y45336D01*
X39945Y45381D01*
X39950Y45429D01*
X39945Y45471D01*
X39931Y45509D01*
X39906Y45542D01*
X39872Y45570D01*
X39835Y45589D01*
X39778Y45610D01*
X39701Y45633D01*
X39603Y45659D01*
X39469Y45695D01*
X39357Y45727D01*
X39268Y45758D01*
X39201Y45786D01*
X39148Y45815D01*
X39102Y45850D01*
X39063Y45889D01*
X39031Y45934D01*
X39006Y45982D01*
X38988Y46033D01*
X38977Y46087D01*
X38973Y46143D01*
X38976Y46194D01*
X38985Y46243D01*
X39000Y46290D01*
X39021Y46335D01*
X39047Y46378D01*
X39077Y46416D01*
X39111Y46451D01*
X39150Y46482D01*
X39184Y46504D01*
X39223Y46524D01*
X39268Y46543D01*
X39318Y46559D01*
X39372Y46573D01*
X39428Y46583D01*
X39486Y46589D01*
X39546Y46591D01*
X39635Y46588D01*
X39718Y46578D01*
X39795Y46561D01*
X39867Y46538D01*
X39932Y46509D01*
X39988Y46476D01*
X40034Y46438D01*
X40072Y46395D01*
X40102Y46346D01*
X40127Y46290D01*
X40147Y46226D01*
X40162Y46154D01*
X39905Y46119D01*
X39892Y46176D01*
X39870Y46226D01*
X39841Y46270D01*
X39803Y46307D01*
X39756Y46336D01*
X39701Y46357D01*
X39637Y46370D01*
X39565Y46374D01*
X39481Y46370D01*
X39409Y46359D01*
X39351Y46340D01*
X39306Y46314D01*
X39272Y46283D01*
X39247Y46249D01*
X39233Y46212D01*
X39228Y46173D01*
X39230Y46148D01*
X39236Y46125D01*
X39246Y46102D01*
X39260Y46081D01*
X39279Y46061D01*
X39302Y46042D01*
X39329Y46026D01*
X39361Y46011D01*
X39391Y46001D01*
X39439Y45987D01*
X39507Y45967D01*
X39594Y45943D01*
X39723Y45908D01*
X39832Y45875D01*
X39919Y45847D01*
X39985Y45821D01*
X40037Y45795D01*
X40083Y45763D01*
X40124Y45725D01*
X40158Y45683D01*
X40186Y45634D01*
X40205Y45581D01*
X40217Y45522D01*
X40221Y45457D01*
X40216Y45392D01*
X40202Y45329D01*
X40178Y45268D01*
X40144Y45209D01*
X40101Y45154D01*
X40050Y45105D01*
X39991Y45064D01*
X39922Y45029D01*
X39847Y45001D01*
X39768Y44981D01*
X39683Y44969D01*
X39594Y44965D01*
X39452Y44973D01*
X39327Y44996D01*
X39220Y45036D01*
X39132Y45091D01*
X39060Y45161D01*
X39002Y45247D01*
X38958Y45348D01*
X38929Y45464D01*
X38929Y45464D01*
X40536Y45000D02*
X40536Y46556D01*
X40800Y46556D01*
X40800Y45000D01*
X40536Y45000D01*
X40536Y45000D01*
X40536Y46844D02*
X40536Y47147D01*
X40800Y47147D01*
X40800Y46844D01*
X40536Y46844D01*
X40536Y46844D01*
X41103Y45778D02*
X41118Y45980D01*
X41163Y46154D01*
X41238Y46300D01*
X41343Y46418D01*
X41449Y46494D01*
X41566Y46548D01*
X41694Y46580D01*
X41832Y46591D01*
X41986Y46578D01*
X42124Y46538D01*
X42248Y46473D01*
X42357Y46381D01*
X42446Y46265D01*
X42510Y46130D01*
X42548Y45975D01*
X42560Y45800D01*
X42555Y45658D01*
X42538Y45532D01*
X42510Y45421D01*
X42470Y45327D01*
X42420Y45246D01*
X42360Y45174D01*
X42289Y45112D01*
X42208Y45060D01*
X42120Y45018D01*
X42028Y44989D01*
X41932Y44971D01*
X41832Y44965D01*
X41814Y44966D01*
X41832Y45182D01*
X41926Y45191D01*
X42012Y45219D01*
X42090Y45266D01*
X42159Y45331D01*
X42216Y45416D01*
X42257Y45520D01*
X42281Y45643D01*
X42289Y45787D01*
X42281Y45922D01*
X42257Y46040D01*
X42216Y46141D01*
X42158Y46224D01*
X42089Y46289D01*
X42011Y46335D01*
X41926Y46363D01*
X41832Y46373D01*
X41738Y46363D01*
X41652Y46336D01*
X41574Y46289D01*
X41504Y46225D01*
X41447Y46141D01*
X41407Y46039D01*
X41382Y45918D01*
X41374Y45778D01*
X41374Y45778D01*
X41382Y45638D01*
X41407Y45517D01*
X41447Y45414D01*
X41504Y45330D01*
X41574Y45265D01*
X41652Y45219D01*
X41738Y45191D01*
X41832Y45182D01*
X41814Y44966D01*
X41677Y44978D01*
X41537Y45017D01*
X41413Y45083D01*
X41304Y45174D01*
X41216Y45291D01*
X41153Y45430D01*
X41116Y45592D01*
X41103Y45778D01*
X41103Y45778D01*
X42870Y45000D02*
X42870Y46556D01*
X43107Y46556D01*
X43107Y46334D01*
X43202Y46447D01*
X43316Y46527D01*
X43450Y46575D01*
X43602Y46591D01*
X43671Y46588D01*
X43737Y46578D01*
X43800Y46562D01*
X43861Y46540D01*
X43916Y46513D01*
X43964Y46482D01*
X44004Y46447D01*
X44037Y46408D01*
X44064Y46365D01*
X44087Y46318D01*
X44105Y46267D01*
X44119Y46213D01*
X44125Y46169D01*
X44130Y46112D01*
X44133Y46041D01*
X44134Y45957D01*
X44134Y45000D01*
X43870Y45000D01*
X43870Y45946D01*
X43868Y46022D01*
X43862Y46087D01*
X43853Y46142D01*
X43839Y46187D01*
X43821Y46225D01*
X43797Y46259D01*
X43766Y46289D01*
X43730Y46315D01*
X43689Y46336D01*
X43645Y46350D01*
X43597Y46359D01*
X43546Y46362D01*
X43465Y46356D01*
X43389Y46336D01*
X43320Y46302D01*
X43256Y46255D01*
X43202Y46190D01*
X43164Y46100D01*
X43141Y45987D01*
X43133Y45850D01*
X43133Y45000D01*
X42870Y45000D01*
X42870Y45000D01*
X46291Y45000D02*
X46028Y45000D01*
X46028Y46680D01*
X45976Y46635D01*
X45918Y46589D01*
X45852Y46544D01*
X45778Y46499D01*
X45703Y46456D01*
X45631Y46419D01*
X45564Y46388D01*
X45500Y46362D01*
X45500Y46617D01*
X45608Y46672D01*
X45708Y46732D01*
X45801Y46798D01*
X45887Y46869D01*
X45964Y46943D01*
X46029Y47015D01*
X46081Y47086D01*
X46122Y47156D01*
X46291Y47156D01*
X46291Y45000D01*
X46291Y45000D01*
X47115Y45000D02*
X47115Y45300D01*
X47415Y45300D01*
X47415Y45000D01*
X47115Y45000D01*
X47115Y45000D01*
X47800Y46059D02*
X47805Y46240D01*
X47820Y46403D01*
X47844Y46547D01*
X47879Y46672D01*
X47923Y46782D01*
X47976Y46878D01*
X48039Y46961D01*
X48112Y47030D01*
X48194Y47085D01*
X48286Y47125D01*
X48388Y47148D01*
X48500Y47156D01*
X48584Y47152D01*
X48663Y47139D01*
X48736Y47117D01*
X48804Y47087D01*
X48866Y47048D01*
X48923Y47002D01*
X48974Y46948D01*
X49019Y46886D01*
X49059Y46817D01*
X49095Y46741D01*
X49126Y46657D01*
X49152Y46567D01*
X49173Y46464D01*
X49189Y46346D01*
X49198Y46211D01*
X49201Y46059D01*
X49196Y45879D01*
X49181Y45718D01*
X49157Y45574D01*
X49123Y45449D01*
X49079Y45339D01*
X49026Y45243D01*
X48963Y45160D01*
X48891Y45090D01*
X48808Y45035D01*
X48716Y44995D01*
X48613Y44971D01*
X48500Y44963D01*
X48480Y44965D01*
X48500Y45180D01*
X48588Y45191D01*
X48668Y45224D01*
X48740Y45279D01*
X48806Y45356D01*
X48860Y45466D01*
X48899Y45620D01*
X48922Y45817D01*
X48930Y46059D01*
X48922Y46302D01*
X48899Y46500D01*
X48860Y46654D01*
X48806Y46764D01*
X48740Y46840D01*
X48667Y46894D01*
X48586Y46927D01*
X48497Y46938D01*
X48411Y46928D01*
X48334Y46900D01*
X48266Y46851D01*
X48207Y46784D01*
X48148Y46665D01*
X48105Y46505D01*
X48080Y46303D01*
X48071Y46059D01*
X48071Y46059D01*
X48079Y45817D01*
X48102Y45619D01*
X48141Y45465D01*
X48195Y45355D01*
X48261Y45279D01*
X48333Y45224D01*
X48413Y45191D01*
X48500Y45180D01*
X48480Y44965D01*
X48353Y44977D01*
X48223Y45019D01*
X48110Y45089D01*
X48013Y45186D01*
X47920Y45341D01*
X47853Y45538D01*
X47814Y45778D01*
X47800Y46059D01*
X47800Y46059D01*
G37*
M02*