%FSLAX33Y33*%
%MOMM*%
%ADD10C,0.254*%
%ADD11C,3.2*%
%ADD12C,1.05*%
%ADD13C,1.1*%
D10*
%LNhole_traces*%
G01*
X22900Y6050D03*
X16000Y12000D03*
X25400Y17614D03*
X23400Y7264D03*
X23900Y4875D03*
X24900Y11230D03*
X10700Y13800D03*
X9000Y0750D03*
X20000Y12000D03*
X24350Y15875D03*
X15000Y0750D03*
X13000Y12000D03*
D11*
X34000Y3000D03*
D10*
X17000Y20425D03*
X17000Y2064D03*
X22175Y16310D03*
X18825Y4225D03*
X15325Y7475D03*
X3000Y0750D03*
X21000Y12000D03*
X11325Y21075D03*
X8545Y10725D03*
X7000Y0750D03*
X17000Y0750D03*
X21000Y0750D03*
X11325Y16325D03*
X13000Y0750D03*
X19000Y0750D03*
X23400Y14575D03*
X18950Y15225D03*
X15325Y18475D03*
X17000Y9425D03*
X23000Y0750D03*
X8770Y17580D03*
X11325Y10075D03*
X25000Y0750D03*
X22900Y3575D03*
X17000Y13275D03*
X23400Y18475D03*
X23900Y8690D03*
X11325Y15040D03*
X17000Y12000D03*
X14000Y12000D03*
X24900Y2275D03*
X1000Y0750D03*
X25400Y19775D03*
X5000Y0750D03*
X24400Y10075D03*
X2230Y17580D03*
X22175Y8775D03*
X29000Y0750D03*
X18000Y12000D03*
D11*
X34000Y22000D03*
D10*
X19000Y12000D03*
X11000Y0750D03*
X10700Y21715D03*
D11*
X3000Y3000D03*
D10*
X27000Y0750D03*
%LNhole component 133d3bada370a9dd*%
D12*
X4230Y17580D03*
X4230Y15040D03*
X4230Y12500D03*
X4230Y9960D03*
X4230Y7420D03*
X6770Y17580D03*
X6770Y15040D03*
X6770Y12500D03*
X6770Y9960D03*
X6770Y7420D03*
%LNhole component d35b117345b5d75e*%
D13*
X29770Y18850D03*
X29770Y16310D03*
X29770Y13770D03*
X29770Y11230D03*
X29770Y8690D03*
X29770Y6150D03*
X27230Y13770D03*
X27230Y16310D03*
X27230Y18850D03*
X27230Y6150D03*
X27230Y8690D03*
X27230Y11230D03*
M02*