%FSLAX33Y33*%
%MOMM*%
%ADD10C,0.15*%
%ADD11C,0.5*%
%ADD12C,0.5*%
D10*
%LNtop silkscreen_traces*%
%LNtop silkscreen component 496cb8801b6f2685*%
G01*
X21577Y11725D02*
X21577Y1275D01*
X12423Y1275*
X12423Y11725*
X21577Y11725*
D11*
X21950Y2275D03*
%LNtop silkscreen component 16f672dc61fb389c*%
D10*
X21577Y22725D02*
X21577Y12275D01*
X12423Y12275*
X12423Y22725*
X21577Y22725*
D11*
X21950Y13275D03*
%LNtop silkscreen component 133d3bada370a9dd*%
D10*
X1157Y2340D02*
X1157Y22660D01*
X9843Y22660*
X9843Y2340*
X1157Y2340*
X1157Y16310D02*
X9843Y16310D01*
D12*
X0532Y17580D03*
%LNtop silkscreen component d35b117345b5d75e*%
D10*
X25960Y4880D02*
X25960Y20120D01*
X31040Y20120*
X31040Y4880*
X25960Y4880*
G36*
X31840Y18780D02*
X31840Y18865D01*
X32148Y18865D01*
X32148Y18596D01*
X32112Y18569D01*
X32076Y18546D01*
X32039Y18527D01*
X32001Y18511D01*
X31963Y18498D01*
X31925Y18489D01*
X31886Y18484D01*
X31847Y18482D01*
X31794Y18485D01*
X31744Y18493D01*
X31697Y18508D01*
X31652Y18528D01*
X31611Y18553D01*
X31575Y18584D01*
X31545Y18620D01*
X31520Y18661D01*
X31500Y18705D01*
X31486Y18752D01*
X31478Y18802D01*
X31475Y18855D01*
X31478Y18907D01*
X31486Y18957D01*
X31500Y19006D01*
X31519Y19053D01*
X31544Y19096D01*
X31574Y19133D01*
X31608Y19164D01*
X31647Y19189D01*
X31690Y19209D01*
X31737Y19223D01*
X31786Y19231D01*
X31839Y19234D01*
X31878Y19232D01*
X31914Y19228D01*
X31949Y19220D01*
X31982Y19209D01*
X32012Y19194D01*
X32039Y19178D01*
X32062Y19159D01*
X32082Y19137D01*
X32099Y19113D01*
X32114Y19085D01*
X32126Y19053D01*
X32137Y19018D01*
X32050Y18994D01*
X32041Y19021D01*
X32032Y19044D01*
X32021Y19064D01*
X32009Y19082D01*
X31996Y19097D01*
X31980Y19110D01*
X31961Y19122D01*
X31940Y19133D01*
X31917Y19141D01*
X31892Y19147D01*
X31867Y19151D01*
X31840Y19152D01*
X31808Y19150D01*
X31778Y19147D01*
X31751Y19140D01*
X31726Y19132D01*
X31703Y19121D01*
X31682Y19108D01*
X31664Y19094D01*
X31648Y19079D01*
X31634Y19062D01*
X31622Y19044D01*
X31611Y19026D01*
X31602Y19007D01*
X31590Y18972D01*
X31581Y18937D01*
X31576Y18899D01*
X31574Y18861D01*
X31576Y18814D01*
X31583Y18771D01*
X31593Y18733D01*
X31608Y18698D01*
X31626Y18667D01*
X31649Y18641D01*
X31675Y18619D01*
X31705Y18601D01*
X31738Y18587D01*
X31771Y18577D01*
X31806Y18571D01*
X31841Y18569D01*
X31872Y18570D01*
X31903Y18575D01*
X31933Y18582D01*
X31963Y18593D01*
X31991Y18605D01*
X32016Y18618D01*
X32036Y18631D01*
X32054Y18644D01*
X32054Y18780D01*
X31840Y18780D01*
X31840Y18780D01*
X32289Y18494D02*
X32289Y19222D01*
X32387Y19222D01*
X32769Y18651D01*
X32769Y19222D01*
X32862Y19222D01*
X32862Y18494D01*
X32763Y18494D01*
X32381Y19066D01*
X32381Y18494D01*
X32289Y18494D01*
X32289Y18494D01*
X33023Y18494D02*
X33023Y19222D01*
X33272Y19222D01*
X33272Y19136D01*
X33120Y19136D01*
X33120Y18580D01*
X33120Y18580D01*
X33275Y18580D01*
X33309Y18581D01*
X33339Y18584D01*
X33365Y18588D01*
X33388Y18594D01*
X33407Y18601D01*
X33425Y18610D01*
X33440Y18620D01*
X33453Y18631D01*
X33469Y18650D01*
X33483Y18671D01*
X33496Y18696D01*
X33506Y18723D01*
X33515Y18754D01*
X33521Y18787D01*
X33524Y18824D01*
X33525Y18863D01*
X33523Y18917D01*
X33516Y18964D01*
X33504Y19005D01*
X33488Y19039D01*
X33468Y19067D01*
X33447Y19090D01*
X33423Y19108D01*
X33397Y19121D01*
X33375Y19127D01*
X33346Y19132D01*
X33312Y19135D01*
X33272Y19136D01*
X33272Y19222D01*
X33274Y19222D01*
X33314Y19221D01*
X33349Y19219D01*
X33379Y19216D01*
X33403Y19211D01*
X33434Y19203D01*
X33461Y19191D01*
X33487Y19177D01*
X33510Y19159D01*
X33537Y19133D01*
X33560Y19104D01*
X33580Y19071D01*
X33596Y19035D01*
X33609Y18996D01*
X33618Y18954D01*
X33623Y18909D01*
X33625Y18862D01*
X33623Y18822D01*
X33620Y18784D01*
X33614Y18748D01*
X33605Y18715D01*
X33595Y18685D01*
X33583Y18657D01*
X33570Y18632D01*
X33556Y18609D01*
X33540Y18589D01*
X33524Y18572D01*
X33507Y18556D01*
X33489Y18543D01*
X33471Y18532D01*
X33450Y18522D01*
X33427Y18514D01*
X33403Y18507D01*
X33376Y18501D01*
X33348Y18497D01*
X33318Y18495D01*
X33286Y18494D01*
X33023Y18494D01*
X33023Y18494D01*
X31707Y13414D02*
X31425Y14142D01*
X31530Y14142D01*
X31719Y13613D01*
X31730Y13582D01*
X31740Y13552D01*
X31749Y13523D01*
X31757Y13494D01*
X31766Y13524D01*
X31775Y13554D01*
X31785Y13584D01*
X31796Y13613D01*
X31992Y14142D01*
X32091Y14142D01*
X31806Y13414D01*
X31707Y13414D01*
X31707Y13414D01*
X32696Y13669D02*
X32792Y13645D01*
X32774Y13589D01*
X32750Y13541D01*
X32720Y13499D01*
X32683Y13464D01*
X32642Y13437D01*
X32596Y13418D01*
X32546Y13406D01*
X32491Y13402D01*
X32435Y13405D01*
X32384Y13414D01*
X32339Y13429D01*
X32300Y13450D01*
X32265Y13476D01*
X32235Y13508D01*
X32209Y13546D01*
X32188Y13589D01*
X32171Y13635D01*
X32159Y13683D01*
X32152Y13732D01*
X32149Y13783D01*
X32152Y13838D01*
X32160Y13890D01*
X32174Y13938D01*
X32193Y13982D01*
X32217Y14021D01*
X32245Y14056D01*
X32278Y14086D01*
X32316Y14110D01*
X32357Y14129D01*
X32400Y14143D01*
X32445Y14151D01*
X32493Y14154D01*
X32545Y14151D01*
X32593Y14140D01*
X32637Y14123D01*
X32676Y14099D01*
X32711Y14068D01*
X32739Y14032D01*
X32762Y13990D01*
X32780Y13942D01*
X32685Y13920D01*
X32671Y13957D01*
X32654Y13989D01*
X32634Y14015D01*
X32612Y14036D01*
X32586Y14051D01*
X32557Y14063D01*
X32526Y14069D01*
X32491Y14072D01*
X32450Y14069D01*
X32414Y14062D01*
X32380Y14049D01*
X32350Y14032D01*
X32324Y14010D01*
X32303Y13984D01*
X32285Y13956D01*
X32271Y13924D01*
X32261Y13890D01*
X32254Y13855D01*
X32250Y13820D01*
X32249Y13784D01*
X32250Y13739D01*
X32255Y13697D01*
X32264Y13658D01*
X32276Y13622D01*
X32291Y13590D01*
X32310Y13562D01*
X32333Y13538D01*
X32360Y13519D01*
X32389Y13504D01*
X32419Y13493D01*
X32451Y13486D01*
X32483Y13484D01*
X32522Y13487D01*
X32558Y13496D01*
X32590Y13511D01*
X32620Y13531D01*
X32646Y13557D01*
X32667Y13589D01*
X32684Y13626D01*
X32696Y13669D01*
X32696Y13669D01*
X33430Y13669D02*
X33526Y13645D01*
X33508Y13589D01*
X33484Y13541D01*
X33453Y13499D01*
X33417Y13464D01*
X33376Y13437D01*
X33330Y13418D01*
X33279Y13406D01*
X33225Y13402D01*
X33169Y13405D01*
X33118Y13414D01*
X33073Y13429D01*
X33034Y13450D01*
X32999Y13476D01*
X32969Y13508D01*
X32943Y13546D01*
X32921Y13589D01*
X32905Y13635D01*
X32893Y13683D01*
X32885Y13732D01*
X32883Y13783D01*
X32886Y13838D01*
X32894Y13890D01*
X32907Y13938D01*
X32926Y13982D01*
X32950Y14021D01*
X32979Y14056D01*
X33012Y14086D01*
X33050Y14110D01*
X33091Y14129D01*
X33134Y14143D01*
X33179Y14151D01*
X33226Y14154D01*
X33279Y14151D01*
X33327Y14140D01*
X33370Y14123D01*
X33410Y14099D01*
X33444Y14068D01*
X33473Y14032D01*
X33496Y13990D01*
X33514Y13942D01*
X33419Y13920D01*
X33405Y13957D01*
X33388Y13989D01*
X33368Y14015D01*
X33345Y14036D01*
X33320Y14051D01*
X33291Y14063D01*
X33259Y14069D01*
X33224Y14072D01*
X33184Y14069D01*
X33147Y14062D01*
X33114Y14049D01*
X33084Y14032D01*
X33058Y14010D01*
X33036Y13984D01*
X33019Y13956D01*
X33005Y13924D01*
X32995Y13890D01*
X32988Y13855D01*
X32984Y13820D01*
X32982Y13784D01*
X32984Y13739D01*
X32989Y13697D01*
X32997Y13658D01*
X33009Y13622D01*
X33025Y13590D01*
X33044Y13562D01*
X33067Y13538D01*
X33093Y13519D01*
X33122Y13504D01*
X33153Y13493D01*
X33184Y13486D01*
X33217Y13484D01*
X33256Y13487D01*
X33292Y13496D01*
X33324Y13511D01*
X33354Y13531D01*
X33380Y13557D01*
X33401Y13589D01*
X33418Y13626D01*
X33430Y13669D01*
X33430Y13669D01*
X32018Y16209D02*
X32115Y16185D01*
X32096Y16129D01*
X32072Y16081D01*
X32042Y16039D01*
X32006Y16004D01*
X31964Y15977D01*
X31918Y15958D01*
X31868Y15946D01*
X31813Y15942D01*
X31757Y15945D01*
X31707Y15954D01*
X31662Y15969D01*
X31622Y15990D01*
X31588Y16016D01*
X31557Y16048D01*
X31531Y16086D01*
X31510Y16129D01*
X31493Y16175D01*
X31481Y16223D01*
X31474Y16272D01*
X31472Y16323D01*
X31474Y16378D01*
X31482Y16430D01*
X31496Y16478D01*
X31515Y16522D01*
X31539Y16561D01*
X31568Y16596D01*
X31601Y16626D01*
X31639Y16650D01*
X31680Y16669D01*
X31723Y16683D01*
X31768Y16691D01*
X31815Y16694D01*
X31867Y16691D01*
X31915Y16680D01*
X31959Y16663D01*
X31998Y16639D01*
X32033Y16608D01*
X32062Y16572D01*
X32085Y16530D01*
X32102Y16482D01*
X32007Y16460D01*
X31993Y16497D01*
X31976Y16529D01*
X31957Y16555D01*
X31934Y16576D01*
X31908Y16591D01*
X31880Y16603D01*
X31848Y16609D01*
X31813Y16612D01*
X31773Y16609D01*
X31736Y16602D01*
X31703Y16589D01*
X31673Y16572D01*
X31647Y16550D01*
X31625Y16524D01*
X31607Y16496D01*
X31594Y16464D01*
X31584Y16430D01*
X31577Y16395D01*
X31572Y16360D01*
X31571Y16324D01*
X31573Y16279D01*
X31578Y16237D01*
X31586Y16198D01*
X31598Y16162D01*
X31613Y16130D01*
X31632Y16102D01*
X31655Y16078D01*
X31682Y16059D01*
X31711Y16044D01*
X31741Y16033D01*
X31773Y16026D01*
X31805Y16024D01*
X31844Y16027D01*
X31880Y16036D01*
X31913Y16051D01*
X31942Y16071D01*
X31968Y16097D01*
X31989Y16129D01*
X32006Y16166D01*
X32018Y16209D01*
X32018Y16209D01*
X32418Y15954D02*
X32418Y16596D01*
X32179Y16596D01*
X32179Y16682D01*
X32755Y16682D01*
X32755Y16596D01*
X32514Y16596D01*
X32514Y15954D01*
X32418Y15954D01*
X32418Y15954D01*
X32821Y16188D02*
X32912Y16196D01*
X32916Y16170D01*
X32922Y16146D01*
X32931Y16125D01*
X32942Y16106D01*
X32955Y16090D01*
X32972Y16075D01*
X32992Y16062D01*
X33015Y16050D01*
X33041Y16040D01*
X33068Y16034D01*
X33096Y16030D01*
X33127Y16028D01*
X33153Y16029D01*
X33178Y16032D01*
X33202Y16038D01*
X33224Y16045D01*
X33244Y16054D01*
X33261Y16064D01*
X33275Y16076D01*
X33287Y16090D01*
X33296Y16104D01*
X33302Y16119D01*
X33306Y16135D01*
X33307Y16152D01*
X33306Y16168D01*
X33302Y16184D01*
X33296Y16198D01*
X33287Y16212D01*
X33276Y16224D01*
X33261Y16235D01*
X33243Y16245D01*
X33222Y16255D01*
X33203Y16261D01*
X33175Y16269D01*
X33138Y16279D01*
X33092Y16290D01*
X33046Y16302D01*
X33007Y16313D01*
X32976Y16325D01*
X32952Y16335D01*
X32928Y16350D01*
X32906Y16366D01*
X32889Y16384D01*
X32874Y16403D01*
X32863Y16424D01*
X32855Y16446D01*
X32850Y16469D01*
X32849Y16494D01*
X32851Y16521D01*
X32857Y16547D01*
X32866Y16572D01*
X32880Y16597D01*
X32897Y16619D01*
X32918Y16639D01*
X32943Y16655D01*
X32971Y16669D01*
X33002Y16680D01*
X33035Y16688D01*
X33069Y16693D01*
X33105Y16694D01*
X33144Y16692D01*
X33181Y16688D01*
X33215Y16679D01*
X33247Y16668D01*
X33276Y16653D01*
X33302Y16636D01*
X33324Y16615D01*
X33342Y16591D01*
X33357Y16565D01*
X33368Y16537D01*
X33375Y16508D01*
X33378Y16477D01*
X33286Y16470D01*
X33280Y16502D01*
X33269Y16530D01*
X33255Y16554D01*
X33235Y16574D01*
X33211Y16589D01*
X33182Y16600D01*
X33148Y16607D01*
X33109Y16609D01*
X33068Y16607D01*
X33033Y16601D01*
X33004Y16591D01*
X32981Y16577D01*
X32964Y16560D01*
X32951Y16542D01*
X32944Y16522D01*
X32942Y16500D01*
X32943Y16481D01*
X32949Y16464D01*
X32957Y16449D01*
X32970Y16436D01*
X32989Y16423D01*
X33020Y16410D01*
X33062Y16397D01*
X33115Y16384D01*
X33169Y16371D01*
X33214Y16359D01*
X33249Y16348D01*
X33276Y16337D01*
X33306Y16322D01*
X33331Y16304D01*
X33352Y16285D01*
X33370Y16263D01*
X33383Y16240D01*
X33392Y16215D01*
X33398Y16188D01*
X33400Y16160D01*
X33398Y16131D01*
X33392Y16103D01*
X33381Y16076D01*
X33367Y16050D01*
X33348Y16026D01*
X33326Y16005D01*
X33300Y15986D01*
X33271Y15971D01*
X33239Y15958D01*
X33205Y15949D01*
X33169Y15944D01*
X33131Y15942D01*
X33084Y15944D01*
X33040Y15949D01*
X33001Y15958D01*
X32966Y15971D01*
X32934Y15987D01*
X32906Y16007D01*
X32882Y16030D01*
X32861Y16057D01*
X32844Y16087D01*
X32832Y16119D01*
X32824Y16153D01*
X32821Y16188D01*
X32821Y16188D01*
X31684Y10874D02*
X31684Y11516D01*
X31445Y11516D01*
X31445Y11602D01*
X32021Y11602D01*
X32021Y11516D01*
X31781Y11516D01*
X31781Y10874D01*
X31684Y10874D01*
X31684Y10874D01*
X32046Y10874D02*
X32327Y11253D01*
X32079Y11602D01*
X32194Y11602D01*
X32326Y11415D01*
X32345Y11388D01*
X32361Y11364D01*
X32374Y11343D01*
X32384Y11326D01*
X32397Y11346D01*
X32411Y11366D01*
X32426Y11387D01*
X32442Y11409D01*
X32588Y11602D01*
X32693Y11602D01*
X32437Y11259D01*
X32713Y10874D01*
X32594Y10874D01*
X32411Y11134D01*
X32403Y11145D01*
X32395Y11157D01*
X32387Y11170D01*
X32379Y11182D01*
X32368Y11164D01*
X32358Y11149D01*
X32350Y11137D01*
X32344Y11128D01*
X32162Y10874D01*
X32046Y10874D01*
X32046Y10874D01*
X32798Y10874D02*
X32798Y11602D01*
X33047Y11602D01*
X33047Y11516D01*
X32894Y11516D01*
X32894Y10960D01*
X32894Y10960D01*
X33049Y10960D01*
X33083Y10961D01*
X33113Y10964D01*
X33140Y10968D01*
X33162Y10974D01*
X33181Y10981D01*
X33199Y10990D01*
X33214Y11000D01*
X33227Y11011D01*
X33243Y11030D01*
X33258Y11051D01*
X33270Y11076D01*
X33281Y11103D01*
X33289Y11134D01*
X33295Y11167D01*
X33299Y11204D01*
X33300Y11243D01*
X33297Y11297D01*
X33290Y11344D01*
X33279Y11385D01*
X33262Y11419D01*
X33243Y11447D01*
X33221Y11470D01*
X33197Y11488D01*
X33171Y11501D01*
X33149Y11507D01*
X33121Y11512D01*
X33087Y11515D01*
X33047Y11516D01*
X33047Y11602D01*
X33048Y11602D01*
X33088Y11601D01*
X33123Y11599D01*
X33153Y11596D01*
X33178Y11591D01*
X33208Y11583D01*
X33236Y11571D01*
X33261Y11557D01*
X33284Y11539D01*
X33311Y11513D01*
X33335Y11484D01*
X33354Y11451D01*
X33370Y11415D01*
X33383Y11376D01*
X33392Y11334D01*
X33397Y11289D01*
X33399Y11242D01*
X33398Y11202D01*
X33394Y11164D01*
X33388Y11128D01*
X33380Y11095D01*
X33369Y11065D01*
X33357Y11037D01*
X33344Y11012D01*
X33330Y10989D01*
X33314Y10969D01*
X33298Y10952D01*
X33281Y10936D01*
X33264Y10923D01*
X33245Y10912D01*
X33224Y10902D01*
X33201Y10894D01*
X33177Y10887D01*
X33151Y10881D01*
X33122Y10877D01*
X33092Y10875D01*
X33060Y10874D01*
X32798Y10874D01*
X32798Y10874D01*
X31501Y8334D02*
X31501Y9062D01*
X31823Y9062D01*
X31869Y9060D01*
X31909Y9057D01*
X31943Y9051D01*
X31971Y9042D01*
X31995Y9030D01*
X32017Y9015D01*
X32036Y8996D01*
X32052Y8973D01*
X32065Y8947D01*
X32075Y8921D01*
X32080Y8893D01*
X32082Y8863D01*
X32079Y8826D01*
X32070Y8792D01*
X32054Y8761D01*
X32032Y8733D01*
X32004Y8709D01*
X31968Y8689D01*
X31926Y8675D01*
X31902Y8670D01*
X31887Y8748D01*
X31907Y8754D01*
X31925Y8762D01*
X31940Y8772D01*
X31953Y8784D01*
X31964Y8798D01*
X31972Y8813D01*
X31978Y8829D01*
X31982Y8846D01*
X31983Y8863D01*
X31981Y8888D01*
X31974Y8910D01*
X31962Y8930D01*
X31946Y8948D01*
X31924Y8963D01*
X31897Y8973D01*
X31865Y8979D01*
X31827Y8981D01*
X31597Y8981D01*
X31597Y8741D01*
X31597Y8741D01*
X31804Y8741D01*
X31835Y8742D01*
X31863Y8744D01*
X31887Y8748D01*
X31902Y8670D01*
X31877Y8665D01*
X31895Y8656D01*
X31911Y8647D01*
X31924Y8638D01*
X31935Y8629D01*
X31956Y8609D01*
X31977Y8586D01*
X31996Y8560D01*
X32015Y8532D01*
X32142Y8334D01*
X32021Y8334D01*
X31925Y8486D01*
X31904Y8517D01*
X31886Y8544D01*
X31870Y8567D01*
X31855Y8586D01*
X31842Y8602D01*
X31829Y8615D01*
X31817Y8626D01*
X31806Y8635D01*
X31795Y8641D01*
X31784Y8646D01*
X31773Y8651D01*
X31762Y8654D01*
X31753Y8655D01*
X31741Y8656D01*
X31726Y8657D01*
X31709Y8657D01*
X31597Y8657D01*
X31597Y8334D01*
X31501Y8334D01*
X31501Y8334D01*
X32159Y8334D02*
X32440Y8713D01*
X32192Y9062D01*
X32307Y9062D01*
X32439Y8875D01*
X32458Y8848D01*
X32474Y8824D01*
X32487Y8803D01*
X32498Y8786D01*
X32510Y8806D01*
X32524Y8826D01*
X32539Y8847D01*
X32555Y8869D01*
X32701Y9062D01*
X32806Y9062D01*
X32551Y8719D01*
X32826Y8334D01*
X32707Y8334D01*
X32524Y8594D01*
X32516Y8605D01*
X32508Y8617D01*
X32500Y8630D01*
X32492Y8642D01*
X32481Y8624D01*
X32471Y8609D01*
X32463Y8597D01*
X32457Y8588D01*
X32275Y8334D01*
X32159Y8334D01*
X32159Y8334D01*
X32911Y8334D02*
X32911Y9062D01*
X33160Y9062D01*
X33160Y8976D01*
X33007Y8976D01*
X33007Y8420D01*
X33007Y8420D01*
X33162Y8420D01*
X33196Y8421D01*
X33226Y8424D01*
X33253Y8428D01*
X33275Y8434D01*
X33295Y8441D01*
X33312Y8450D01*
X33327Y8460D01*
X33340Y8471D01*
X33357Y8490D01*
X33371Y8511D01*
X33383Y8536D01*
X33394Y8563D01*
X33402Y8594D01*
X33408Y8627D01*
X33412Y8664D01*
X33413Y8703D01*
X33410Y8757D01*
X33403Y8804D01*
X33392Y8845D01*
X33375Y8879D01*
X33356Y8907D01*
X33334Y8930D01*
X33310Y8948D01*
X33284Y8961D01*
X33262Y8967D01*
X33234Y8972D01*
X33200Y8975D01*
X33160Y8976D01*
X33160Y9062D01*
X33161Y9062D01*
X33201Y9061D01*
X33236Y9059D01*
X33266Y9056D01*
X33291Y9051D01*
X33321Y9043D01*
X33349Y9031D01*
X33374Y9017D01*
X33397Y8999D01*
X33424Y8973D01*
X33448Y8944D01*
X33467Y8911D01*
X33484Y8875D01*
X33496Y8836D01*
X33505Y8794D01*
X33510Y8749D01*
X33512Y8702D01*
X33511Y8662D01*
X33507Y8624D01*
X33501Y8588D01*
X33493Y8555D01*
X33482Y8525D01*
X33471Y8497D01*
X33458Y8472D01*
X33443Y8449D01*
X33428Y8429D01*
X33411Y8412D01*
X33394Y8396D01*
X33377Y8383D01*
X33358Y8372D01*
X33337Y8362D01*
X33315Y8354D01*
X33290Y8347D01*
X33264Y8341D01*
X33235Y8338D01*
X33205Y8335D01*
X33173Y8334D01*
X32911Y8334D01*
X32911Y8334D01*
X31501Y5794D02*
X31501Y6522D01*
X31823Y6522D01*
X31869Y6520D01*
X31909Y6517D01*
X31943Y6511D01*
X31971Y6502D01*
X31995Y6490D01*
X32017Y6475D01*
X32036Y6456D01*
X32052Y6433D01*
X32065Y6407D01*
X32075Y6381D01*
X32080Y6353D01*
X32082Y6323D01*
X32079Y6286D01*
X32070Y6252D01*
X32054Y6221D01*
X32032Y6193D01*
X32004Y6169D01*
X31968Y6149D01*
X31926Y6135D01*
X31902Y6130D01*
X31887Y6208D01*
X31907Y6214D01*
X31925Y6222D01*
X31940Y6232D01*
X31953Y6244D01*
X31964Y6258D01*
X31972Y6273D01*
X31978Y6289D01*
X31982Y6306D01*
X31983Y6323D01*
X31981Y6348D01*
X31974Y6370D01*
X31962Y6390D01*
X31946Y6408D01*
X31924Y6423D01*
X31897Y6433D01*
X31865Y6439D01*
X31827Y6441D01*
X31597Y6441D01*
X31597Y6201D01*
X31597Y6201D01*
X31804Y6201D01*
X31835Y6202D01*
X31863Y6204D01*
X31887Y6208D01*
X31902Y6130D01*
X31877Y6125D01*
X31895Y6116D01*
X31911Y6107D01*
X31924Y6098D01*
X31935Y6089D01*
X31956Y6069D01*
X31977Y6046D01*
X31996Y6020D01*
X32015Y5992D01*
X32142Y5794D01*
X32021Y5794D01*
X31925Y5946D01*
X31904Y5977D01*
X31886Y6004D01*
X31870Y6027D01*
X31855Y6046D01*
X31842Y6062D01*
X31829Y6075D01*
X31817Y6086D01*
X31806Y6095D01*
X31795Y6101D01*
X31784Y6106D01*
X31773Y6111D01*
X31762Y6114D01*
X31753Y6115D01*
X31741Y6116D01*
X31726Y6117D01*
X31709Y6117D01*
X31597Y6117D01*
X31597Y5794D01*
X31501Y5794D01*
X31501Y5794D01*
X32400Y5794D02*
X32400Y6436D01*
X32160Y6436D01*
X32160Y6522D01*
X32737Y6522D01*
X32737Y6436D01*
X32496Y6436D01*
X32496Y5794D01*
X32400Y5794D01*
X32400Y5794D01*
X32803Y6028D02*
X32893Y6036D01*
X32898Y6010D01*
X32904Y5986D01*
X32913Y5965D01*
X32923Y5946D01*
X32937Y5930D01*
X32953Y5915D01*
X32973Y5902D01*
X32997Y5890D01*
X33022Y5880D01*
X33049Y5874D01*
X33078Y5870D01*
X33108Y5868D01*
X33135Y5869D01*
X33160Y5872D01*
X33184Y5878D01*
X33205Y5885D01*
X33225Y5894D01*
X33242Y5904D01*
X33257Y5916D01*
X33268Y5930D01*
X33277Y5944D01*
X33284Y5959D01*
X33288Y5975D01*
X33289Y5992D01*
X33288Y6008D01*
X33284Y6024D01*
X33278Y6038D01*
X33269Y6052D01*
X33257Y6064D01*
X33243Y6075D01*
X33225Y6085D01*
X33203Y6095D01*
X33184Y6101D01*
X33156Y6109D01*
X33120Y6119D01*
X33074Y6130D01*
X33028Y6142D01*
X32989Y6153D01*
X32957Y6165D01*
X32934Y6175D01*
X32909Y6190D01*
X32888Y6206D01*
X32870Y6224D01*
X32856Y6243D01*
X32845Y6264D01*
X32837Y6286D01*
X32832Y6309D01*
X32830Y6334D01*
X32832Y6361D01*
X32838Y6387D01*
X32848Y6412D01*
X32862Y6437D01*
X32879Y6459D01*
X32900Y6479D01*
X32925Y6495D01*
X32953Y6509D01*
X32984Y6520D01*
X33016Y6528D01*
X33051Y6533D01*
X33086Y6534D01*
X33126Y6532D01*
X33162Y6528D01*
X33197Y6519D01*
X33229Y6508D01*
X33258Y6493D01*
X33284Y6476D01*
X33306Y6455D01*
X33324Y6431D01*
X33339Y6405D01*
X33350Y6377D01*
X33357Y6348D01*
X33360Y6317D01*
X33267Y6310D01*
X33262Y6342D01*
X33251Y6370D01*
X33236Y6394D01*
X33217Y6414D01*
X33193Y6429D01*
X33164Y6440D01*
X33130Y6447D01*
X33090Y6449D01*
X33050Y6447D01*
X33015Y6441D01*
X32986Y6431D01*
X32963Y6417D01*
X32946Y6400D01*
X32933Y6382D01*
X32926Y6362D01*
X32923Y6340D01*
X32925Y6321D01*
X32930Y6304D01*
X32939Y6289D01*
X32951Y6276D01*
X32971Y6263D01*
X33002Y6250D01*
X33043Y6237D01*
X33097Y6224D01*
X33151Y6211D01*
X33195Y6199D01*
X33231Y6188D01*
X33258Y6177D01*
X33287Y6162D01*
X33313Y6144D01*
X33334Y6125D01*
X33351Y6103D01*
X33365Y6080D01*
X33374Y6055D01*
X33380Y6028D01*
X33382Y6000D01*
X33379Y5971D01*
X33373Y5943D01*
X33363Y5916D01*
X33348Y5890D01*
X33330Y5866D01*
X33308Y5845D01*
X33282Y5826D01*
X33253Y5811D01*
X33221Y5798D01*
X33187Y5789D01*
X33151Y5784D01*
X33113Y5782D01*
X33065Y5784D01*
X33022Y5789D01*
X32983Y5798D01*
X32947Y5811D01*
X32916Y5827D01*
X32888Y5847D01*
X32863Y5870D01*
X32843Y5897D01*
X32826Y5927D01*
X32814Y5959D01*
X32806Y5993D01*
X32803Y6028D01*
X32803Y6028D01*
G37*
%LNtext*%
G36*
X30234Y1289D02*
X29325Y1289D01*
X29325Y1632D01*
X29325Y1674D01*
X29327Y1711D01*
X29330Y1743D01*
X29334Y1770D01*
X29340Y1802D01*
X29350Y1831D01*
X29362Y1858D01*
X29376Y1882D01*
X29393Y1904D01*
X29414Y1923D01*
X29437Y1940D01*
X29464Y1955D01*
X29493Y1967D01*
X29523Y1976D01*
X29555Y1981D01*
X29588Y1982D01*
X29644Y1978D01*
X29695Y1964D01*
X29742Y1941D01*
X29784Y1909D01*
X29819Y1864D01*
X29844Y1805D01*
X29859Y1731D01*
X29861Y1704D01*
X29754Y1698D01*
X29746Y1744D01*
X29733Y1781D01*
X29714Y1809D01*
X29690Y1831D01*
X29661Y1846D01*
X29629Y1855D01*
X29592Y1858D01*
X29564Y1857D01*
X29539Y1851D01*
X29515Y1842D01*
X29494Y1830D01*
X29475Y1814D01*
X29460Y1796D01*
X29448Y1776D01*
X29440Y1754D01*
X29437Y1735D01*
X29434Y1710D01*
X29433Y1679D01*
X29432Y1641D01*
X29432Y1409D01*
X29757Y1409D01*
X29757Y1409D01*
X29757Y1644D01*
X29754Y1698D01*
X29861Y1704D01*
X29864Y1642D01*
X29864Y1409D01*
X30234Y1409D01*
X30234Y1289D01*
X30234Y1289D01*
X29905Y2080D02*
X29819Y2086D01*
X29746Y2105D01*
X29684Y2137D01*
X29634Y2182D01*
X29602Y2226D01*
X29579Y2276D01*
X29565Y2330D01*
X29561Y2389D01*
X29566Y2453D01*
X29583Y2512D01*
X29611Y2564D01*
X29650Y2611D01*
X29698Y2648D01*
X29756Y2675D01*
X29821Y2691D01*
X29895Y2697D01*
X29956Y2695D01*
X30009Y2687D01*
X30056Y2675D01*
X30095Y2659D01*
X30130Y2638D01*
X30160Y2612D01*
X30186Y2582D01*
X30209Y2548D01*
X30226Y2510D01*
X30239Y2472D01*
X30246Y2431D01*
X30249Y2389D01*
X30248Y2381D01*
X30157Y2389D01*
X30153Y2428D01*
X30141Y2465D01*
X30122Y2498D01*
X30094Y2527D01*
X30058Y2551D01*
X30014Y2568D01*
X29962Y2579D01*
X29901Y2582D01*
X29844Y2579D01*
X29794Y2568D01*
X29751Y2551D01*
X29716Y2527D01*
X29688Y2497D01*
X29669Y2464D01*
X29657Y2428D01*
X29653Y2389D01*
X29657Y2349D01*
X29669Y2312D01*
X29688Y2279D01*
X29716Y2250D01*
X29751Y2226D01*
X29794Y2208D01*
X29845Y2198D01*
X29905Y2195D01*
X29905Y2195D01*
X29964Y2198D01*
X30015Y2208D01*
X30059Y2226D01*
X30094Y2250D01*
X30122Y2279D01*
X30141Y2312D01*
X30153Y2349D01*
X30157Y2389D01*
X30248Y2381D01*
X30243Y2323D01*
X30227Y2264D01*
X30199Y2211D01*
X30160Y2165D01*
X30111Y2128D01*
X30052Y2101D01*
X29983Y2085D01*
X29905Y2080D01*
X29905Y2080D01*
X30234Y2826D02*
X29575Y2826D01*
X29575Y2927D01*
X29675Y2927D01*
X29643Y2946D01*
X29617Y2964D01*
X29597Y2981D01*
X29583Y2998D01*
X29573Y3015D01*
X29566Y3032D01*
X29562Y3050D01*
X29561Y3070D01*
X29563Y3098D01*
X29570Y3126D01*
X29581Y3155D01*
X29597Y3184D01*
X29700Y3146D01*
X29689Y3125D01*
X29682Y3105D01*
X29677Y3084D01*
X29676Y3064D01*
X29677Y3046D01*
X29681Y3029D01*
X29688Y3013D01*
X29698Y2998D01*
X29710Y2985D01*
X29724Y2973D01*
X29741Y2964D01*
X29759Y2957D01*
X29789Y2949D01*
X29821Y2943D01*
X29855Y2939D01*
X29889Y2938D01*
X30234Y2938D01*
X30234Y2826D01*
X30234Y2826D01*
X30134Y3494D02*
X30233Y3510D01*
X30237Y3488D01*
X30240Y3466D01*
X30242Y3445D01*
X30243Y3426D01*
X30241Y3397D01*
X30238Y3372D01*
X30232Y3350D01*
X30223Y3332D01*
X30213Y3316D01*
X30201Y3303D01*
X30188Y3293D01*
X30173Y3285D01*
X30153Y3279D01*
X30124Y3275D01*
X30087Y3272D01*
X30041Y3271D01*
X29662Y3271D01*
X29662Y3189D01*
X29575Y3189D01*
X29575Y3271D01*
X29412Y3271D01*
X29345Y3382D01*
X29575Y3382D01*
X29575Y3494D01*
X29662Y3494D01*
X29662Y3382D01*
X30047Y3382D01*
X30069Y3382D01*
X30087Y3384D01*
X30100Y3385D01*
X30109Y3388D01*
X30115Y3391D01*
X30121Y3396D01*
X30126Y3401D01*
X30130Y3407D01*
X30134Y3415D01*
X30136Y3423D01*
X30138Y3434D01*
X30139Y3445D01*
X30138Y3455D01*
X30137Y3467D01*
X30136Y3480D01*
X30134Y3494D01*
X30134Y3494D01*
X30234Y4346D02*
X30234Y4234D01*
X29523Y4234D01*
X29542Y4212D01*
X29561Y4188D01*
X29580Y4160D01*
X29600Y4128D01*
X29618Y4097D01*
X29633Y4066D01*
X29646Y4038D01*
X29657Y4011D01*
X29549Y4011D01*
X29526Y4056D01*
X29501Y4099D01*
X29473Y4138D01*
X29443Y4175D01*
X29412Y4207D01*
X29381Y4234D01*
X29351Y4257D01*
X29321Y4274D01*
X29321Y4346D01*
X30234Y4346D01*
X30234Y4346D01*
X27697Y20514D02*
X26788Y20514D01*
X26788Y20857D01*
X26788Y20899D01*
X26790Y20937D01*
X26793Y20969D01*
X26797Y20995D01*
X26803Y21027D01*
X26813Y21057D01*
X26825Y21083D01*
X26839Y21107D01*
X26856Y21129D01*
X26877Y21148D01*
X26900Y21165D01*
X26927Y21180D01*
X26956Y21192D01*
X26986Y21201D01*
X27018Y21206D01*
X27051Y21208D01*
X27107Y21203D01*
X27158Y21189D01*
X27205Y21166D01*
X27247Y21134D01*
X27282Y21090D01*
X27307Y21031D01*
X27322Y20956D01*
X27324Y20929D01*
X27217Y20923D01*
X27209Y20969D01*
X27196Y21006D01*
X27177Y21035D01*
X27153Y21056D01*
X27124Y21072D01*
X27092Y21081D01*
X27055Y21084D01*
X27027Y21082D01*
X27002Y21077D01*
X26978Y21068D01*
X26957Y21055D01*
X26938Y21039D01*
X26923Y21022D01*
X26911Y21001D01*
X26903Y20979D01*
X26900Y20961D01*
X26897Y20936D01*
X26896Y20905D01*
X26895Y20867D01*
X26895Y20634D01*
X27220Y20634D01*
X27220Y20634D01*
X27220Y20869D01*
X27217Y20923D01*
X27324Y20929D01*
X27327Y20867D01*
X27327Y20634D01*
X27697Y20634D01*
X27697Y20514D01*
X27697Y20514D01*
X27368Y21305D02*
X27282Y21312D01*
X27209Y21331D01*
X27147Y21362D01*
X27097Y21407D01*
X27065Y21452D01*
X27042Y21501D01*
X27028Y21555D01*
X27024Y21614D01*
X27029Y21679D01*
X27046Y21737D01*
X27074Y21790D01*
X27113Y21836D01*
X27161Y21874D01*
X27219Y21901D01*
X27284Y21917D01*
X27358Y21922D01*
X27419Y21920D01*
X27472Y21913D01*
X27519Y21901D01*
X27558Y21884D01*
X27593Y21863D01*
X27623Y21837D01*
X27649Y21807D01*
X27672Y21773D01*
X27689Y21736D01*
X27702Y21697D01*
X27709Y21656D01*
X27712Y21614D01*
X27711Y21606D01*
X27620Y21614D01*
X27616Y21654D01*
X27604Y21690D01*
X27585Y21723D01*
X27557Y21752D01*
X27521Y21777D01*
X27477Y21794D01*
X27425Y21804D01*
X27364Y21808D01*
X27307Y21804D01*
X27257Y21794D01*
X27214Y21776D01*
X27179Y21752D01*
X27151Y21723D01*
X27132Y21690D01*
X27120Y21654D01*
X27116Y21614D01*
X27120Y21574D01*
X27132Y21538D01*
X27151Y21505D01*
X27179Y21475D01*
X27214Y21451D01*
X27257Y21434D01*
X27308Y21423D01*
X27368Y21420D01*
X27368Y21420D01*
X27427Y21423D01*
X27478Y21434D01*
X27522Y21451D01*
X27557Y21475D01*
X27585Y21505D01*
X27604Y21538D01*
X27616Y21574D01*
X27620Y21614D01*
X27711Y21606D01*
X27706Y21548D01*
X27690Y21489D01*
X27662Y21436D01*
X27623Y21391D01*
X27574Y21353D01*
X27515Y21327D01*
X27446Y21311D01*
X27368Y21305D01*
X27368Y21305D01*
X27697Y22052D02*
X27038Y22052D01*
X27038Y22152D01*
X27138Y22152D01*
X27106Y22171D01*
X27080Y22189D01*
X27060Y22207D01*
X27046Y22223D01*
X27036Y22240D01*
X27029Y22258D01*
X27025Y22276D01*
X27024Y22295D01*
X27026Y22323D01*
X27033Y22352D01*
X27044Y22381D01*
X27060Y22410D01*
X27163Y22371D01*
X27152Y22351D01*
X27145Y22330D01*
X27140Y22310D01*
X27139Y22289D01*
X27140Y22272D01*
X27144Y22255D01*
X27151Y22239D01*
X27161Y22224D01*
X27173Y22210D01*
X27187Y22199D01*
X27204Y22189D01*
X27222Y22182D01*
X27252Y22174D01*
X27284Y22168D01*
X27318Y22165D01*
X27352Y22164D01*
X27697Y22164D01*
X27697Y22052D01*
X27697Y22052D01*
X27597Y22720D02*
X27696Y22736D01*
X27700Y22713D01*
X27703Y22691D01*
X27705Y22671D01*
X27706Y22652D01*
X27704Y22623D01*
X27701Y22598D01*
X27695Y22576D01*
X27686Y22557D01*
X27676Y22542D01*
X27664Y22529D01*
X27651Y22518D01*
X27636Y22510D01*
X27616Y22504D01*
X27587Y22500D01*
X27550Y22497D01*
X27504Y22497D01*
X27125Y22497D01*
X27125Y22415D01*
X27038Y22415D01*
X27038Y22497D01*
X26875Y22497D01*
X26808Y22608D01*
X27038Y22608D01*
X27038Y22720D01*
X27125Y22720D01*
X27125Y22608D01*
X27510Y22608D01*
X27532Y22608D01*
X27550Y22609D01*
X27563Y22611D01*
X27572Y22613D01*
X27578Y22617D01*
X27584Y22621D01*
X27589Y22626D01*
X27593Y22633D01*
X27597Y22640D01*
X27599Y22649D01*
X27601Y22659D01*
X27602Y22671D01*
X27601Y22681D01*
X27600Y22692D01*
X27599Y22705D01*
X27597Y22720D01*
X27597Y22720D01*
X27590Y23737D02*
X27697Y23737D01*
X27697Y23136D01*
X27677Y23137D01*
X27657Y23139D01*
X27638Y23143D01*
X27619Y23149D01*
X27589Y23163D01*
X27559Y23179D01*
X27528Y23199D01*
X27499Y23223D01*
X27468Y23251D01*
X27434Y23285D01*
X27399Y23324D01*
X27361Y23369D01*
X27303Y23437D01*
X27252Y23493D01*
X27207Y23537D01*
X27168Y23569D01*
X27133Y23592D01*
X27099Y23608D01*
X27066Y23618D01*
X27034Y23621D01*
X27002Y23618D01*
X26973Y23610D01*
X26946Y23595D01*
X26922Y23574D01*
X26902Y23548D01*
X26888Y23519D01*
X26879Y23487D01*
X26877Y23450D01*
X26880Y23412D01*
X26889Y23378D01*
X26904Y23347D01*
X26925Y23321D01*
X26951Y23300D01*
X26983Y23285D01*
X27018Y23276D01*
X27059Y23272D01*
X27047Y23158D01*
X26987Y23167D01*
X26934Y23186D01*
X26889Y23212D01*
X26851Y23246D01*
X26822Y23288D01*
X26801Y23336D01*
X26788Y23391D01*
X26784Y23453D01*
X26789Y23515D01*
X26802Y23570D01*
X26825Y23618D01*
X26857Y23660D01*
X26895Y23693D01*
X26938Y23717D01*
X26985Y23731D01*
X27037Y23736D01*
X27064Y23735D01*
X27091Y23731D01*
X27117Y23724D01*
X27144Y23714D01*
X27171Y23701D01*
X27198Y23684D01*
X27226Y23664D01*
X27255Y23640D01*
X27287Y23609D01*
X27324Y23571D01*
X27367Y23523D01*
X27415Y23468D01*
X27454Y23422D01*
X27486Y23385D01*
X27511Y23357D01*
X27529Y23339D01*
X27544Y23325D01*
X27559Y23313D01*
X27575Y23301D01*
X27590Y23291D01*
X27590Y23737D01*
X27590Y23737D01*
X27669Y1289D02*
X26760Y1289D01*
X26760Y1632D01*
X26760Y1674D01*
X26762Y1711D01*
X26764Y1743D01*
X26768Y1770D01*
X26775Y1802D01*
X26784Y1831D01*
X26796Y1858D01*
X26811Y1882D01*
X26828Y1904D01*
X26848Y1923D01*
X26872Y1940D01*
X26898Y1955D01*
X26927Y1967D01*
X26958Y1976D01*
X26989Y1981D01*
X27022Y1982D01*
X27078Y1978D01*
X27129Y1964D01*
X27176Y1941D01*
X27219Y1909D01*
X27254Y1864D01*
X27279Y1805D01*
X27294Y1731D01*
X27296Y1704D01*
X27189Y1698D01*
X27181Y1744D01*
X27167Y1781D01*
X27148Y1809D01*
X27124Y1831D01*
X27096Y1846D01*
X27063Y1855D01*
X27026Y1858D01*
X26999Y1857D01*
X26973Y1851D01*
X26950Y1842D01*
X26928Y1830D01*
X26910Y1814D01*
X26895Y1796D01*
X26883Y1776D01*
X26875Y1754D01*
X26871Y1735D01*
X26869Y1710D01*
X26867Y1679D01*
X26867Y1641D01*
X26867Y1409D01*
X27192Y1409D01*
X27192Y1409D01*
X27192Y1644D01*
X27189Y1698D01*
X27296Y1704D01*
X27299Y1642D01*
X27299Y1409D01*
X27669Y1409D01*
X27669Y1289D01*
X27669Y1289D01*
X27339Y2080D02*
X27254Y2086D01*
X27180Y2105D01*
X27118Y2137D01*
X27068Y2182D01*
X27036Y2226D01*
X27013Y2276D01*
X27000Y2330D01*
X26995Y2389D01*
X27001Y2453D01*
X27017Y2512D01*
X27045Y2564D01*
X27084Y2611D01*
X27133Y2648D01*
X27190Y2675D01*
X27256Y2691D01*
X27330Y2697D01*
X27390Y2695D01*
X27444Y2687D01*
X27490Y2675D01*
X27530Y2659D01*
X27564Y2638D01*
X27595Y2612D01*
X27621Y2582D01*
X27643Y2548D01*
X27661Y2510D01*
X27673Y2472D01*
X27681Y2431D01*
X27683Y2389D01*
X27683Y2381D01*
X27592Y2389D01*
X27588Y2428D01*
X27576Y2465D01*
X27556Y2498D01*
X27528Y2527D01*
X27493Y2551D01*
X27449Y2568D01*
X27396Y2579D01*
X27336Y2582D01*
X27278Y2579D01*
X27228Y2568D01*
X27186Y2551D01*
X27150Y2527D01*
X27123Y2497D01*
X27103Y2464D01*
X27091Y2428D01*
X27088Y2389D01*
X27091Y2349D01*
X27103Y2312D01*
X27123Y2279D01*
X27150Y2250D01*
X27185Y2226D01*
X27229Y2208D01*
X27280Y2198D01*
X27339Y2195D01*
X27339Y2195D01*
X27399Y2198D01*
X27450Y2208D01*
X27493Y2226D01*
X27529Y2250D01*
X27556Y2279D01*
X27576Y2312D01*
X27588Y2349D01*
X27592Y2389D01*
X27683Y2381D01*
X27678Y2323D01*
X27661Y2264D01*
X27634Y2211D01*
X27595Y2165D01*
X27546Y2128D01*
X27487Y2101D01*
X27418Y2085D01*
X27339Y2080D01*
X27339Y2080D01*
X27669Y2826D02*
X27010Y2826D01*
X27010Y2927D01*
X27110Y2927D01*
X27078Y2946D01*
X27052Y2964D01*
X27032Y2981D01*
X27017Y2998D01*
X27008Y3015D01*
X27001Y3032D01*
X26997Y3050D01*
X26995Y3070D01*
X26997Y3098D01*
X27004Y3126D01*
X27015Y3155D01*
X27031Y3184D01*
X27135Y3146D01*
X27124Y3125D01*
X27117Y3105D01*
X27112Y3084D01*
X27110Y3064D01*
X27112Y3046D01*
X27116Y3029D01*
X27123Y3013D01*
X27133Y2998D01*
X27145Y2985D01*
X27159Y2973D01*
X27175Y2964D01*
X27194Y2957D01*
X27224Y2949D01*
X27256Y2943D01*
X27289Y2939D01*
X27324Y2938D01*
X27669Y2938D01*
X27669Y2826D01*
X27669Y2826D01*
X27569Y3494D02*
X27667Y3510D01*
X27672Y3488D01*
X27675Y3466D01*
X27677Y3445D01*
X27677Y3426D01*
X27676Y3397D01*
X27672Y3372D01*
X27666Y3350D01*
X27658Y3332D01*
X27648Y3316D01*
X27636Y3303D01*
X27622Y3293D01*
X27608Y3285D01*
X27588Y3279D01*
X27559Y3275D01*
X27522Y3272D01*
X27476Y3271D01*
X27097Y3271D01*
X27097Y3189D01*
X27010Y3189D01*
X27010Y3271D01*
X26847Y3271D01*
X26780Y3382D01*
X27010Y3382D01*
X27010Y3494D01*
X27097Y3494D01*
X27097Y3382D01*
X27482Y3382D01*
X27504Y3382D01*
X27521Y3384D01*
X27534Y3385D01*
X27543Y3388D01*
X27550Y3391D01*
X27556Y3396D01*
X27561Y3401D01*
X27565Y3407D01*
X27569Y3415D01*
X27571Y3423D01*
X27573Y3434D01*
X27573Y3445D01*
X27573Y3455D01*
X27572Y3467D01*
X27571Y3480D01*
X27569Y3494D01*
X27569Y3494D01*
X27561Y4512D02*
X27669Y4512D01*
X27669Y3911D01*
X27649Y3911D01*
X27629Y3914D01*
X27610Y3918D01*
X27591Y3924D01*
X27561Y3937D01*
X27530Y3954D01*
X27500Y3974D01*
X27470Y3998D01*
X27439Y4026D01*
X27406Y4059D01*
X27370Y4099D01*
X27332Y4144D01*
X27275Y4212D01*
X27224Y4268D01*
X27179Y4312D01*
X27140Y4344D01*
X27105Y4367D01*
X27071Y4383D01*
X27038Y4393D01*
X27006Y4396D01*
X26974Y4393D01*
X26945Y4384D01*
X26918Y4369D01*
X26894Y4349D01*
X26874Y4323D01*
X26860Y4294D01*
X26851Y4261D01*
X26848Y4225D01*
X26851Y4187D01*
X26860Y4152D01*
X26875Y4122D01*
X26897Y4096D01*
X26923Y4075D01*
X26954Y4059D01*
X26990Y4050D01*
X27030Y4047D01*
X27019Y3932D01*
X26958Y3942D01*
X26906Y3960D01*
X26861Y3986D01*
X26823Y4021D01*
X26794Y4063D01*
X26773Y4111D01*
X26760Y4166D01*
X26756Y4227D01*
X26760Y4289D01*
X26774Y4345D01*
X26797Y4393D01*
X26828Y4434D01*
X26867Y4468D01*
X26910Y4492D01*
X26957Y4506D01*
X27008Y4511D01*
X27035Y4509D01*
X27062Y4505D01*
X27089Y4498D01*
X27115Y4488D01*
X27142Y4475D01*
X27170Y4459D01*
X27198Y4438D01*
X27226Y4414D01*
X27258Y4384D01*
X27296Y4345D01*
X27338Y4298D01*
X27386Y4242D01*
X27425Y4196D01*
X27457Y4160D01*
X27482Y4132D01*
X27501Y4113D01*
X27516Y4100D01*
X27531Y4087D01*
X27546Y4076D01*
X27561Y4066D01*
X27561Y4512D01*
X27561Y4512D01*
X30237Y20514D02*
X29328Y20514D01*
X29328Y20857D01*
X29328Y20899D01*
X29330Y20937D01*
X29333Y20969D01*
X29337Y20995D01*
X29343Y21027D01*
X29353Y21057D01*
X29365Y21083D01*
X29379Y21107D01*
X29396Y21129D01*
X29417Y21148D01*
X29440Y21165D01*
X29467Y21180D01*
X29496Y21192D01*
X29526Y21201D01*
X29558Y21206D01*
X29591Y21208D01*
X29647Y21203D01*
X29698Y21189D01*
X29745Y21166D01*
X29787Y21134D01*
X29822Y21090D01*
X29847Y21031D01*
X29862Y20956D01*
X29864Y20929D01*
X29757Y20923D01*
X29749Y20969D01*
X29736Y21006D01*
X29717Y21035D01*
X29693Y21056D01*
X29664Y21072D01*
X29632Y21081D01*
X29595Y21084D01*
X29567Y21082D01*
X29542Y21077D01*
X29518Y21068D01*
X29497Y21055D01*
X29478Y21039D01*
X29463Y21022D01*
X29451Y21001D01*
X29443Y20979D01*
X29440Y20961D01*
X29437Y20936D01*
X29436Y20905D01*
X29435Y20867D01*
X29435Y20634D01*
X29760Y20634D01*
X29760Y20634D01*
X29760Y20869D01*
X29757Y20923D01*
X29864Y20929D01*
X29867Y20867D01*
X29867Y20634D01*
X30237Y20634D01*
X30237Y20514D01*
X30237Y20514D01*
X29908Y21305D02*
X29822Y21312D01*
X29749Y21331D01*
X29687Y21362D01*
X29637Y21407D01*
X29605Y21452D01*
X29582Y21501D01*
X29568Y21555D01*
X29564Y21614D01*
X29569Y21679D01*
X29586Y21737D01*
X29614Y21790D01*
X29653Y21836D01*
X29701Y21874D01*
X29759Y21901D01*
X29824Y21917D01*
X29898Y21922D01*
X29959Y21920D01*
X30012Y21913D01*
X30059Y21901D01*
X30098Y21884D01*
X30133Y21863D01*
X30163Y21837D01*
X30189Y21807D01*
X30212Y21773D01*
X30229Y21736D01*
X30242Y21697D01*
X30249Y21656D01*
X30252Y21614D01*
X30251Y21606D01*
X30160Y21614D01*
X30156Y21654D01*
X30144Y21690D01*
X30125Y21723D01*
X30097Y21752D01*
X30061Y21777D01*
X30017Y21794D01*
X29965Y21804D01*
X29904Y21808D01*
X29847Y21804D01*
X29797Y21794D01*
X29754Y21776D01*
X29719Y21752D01*
X29691Y21723D01*
X29672Y21690D01*
X29660Y21654D01*
X29656Y21614D01*
X29660Y21574D01*
X29672Y21538D01*
X29691Y21505D01*
X29719Y21475D01*
X29754Y21451D01*
X29797Y21434D01*
X29848Y21423D01*
X29908Y21420D01*
X29908Y21420D01*
X29967Y21423D01*
X30018Y21434D01*
X30062Y21451D01*
X30097Y21475D01*
X30125Y21505D01*
X30144Y21538D01*
X30156Y21574D01*
X30160Y21614D01*
X30251Y21606D01*
X30246Y21548D01*
X30230Y21489D01*
X30202Y21436D01*
X30163Y21391D01*
X30114Y21353D01*
X30055Y21327D01*
X29986Y21311D01*
X29908Y21305D01*
X29908Y21305D01*
X30237Y22052D02*
X29578Y22052D01*
X29578Y22152D01*
X29678Y22152D01*
X29646Y22171D01*
X29620Y22189D01*
X29600Y22207D01*
X29586Y22223D01*
X29576Y22240D01*
X29569Y22258D01*
X29565Y22276D01*
X29564Y22295D01*
X29566Y22323D01*
X29573Y22352D01*
X29584Y22381D01*
X29600Y22410D01*
X29703Y22371D01*
X29692Y22351D01*
X29685Y22330D01*
X29680Y22310D01*
X29679Y22289D01*
X29680Y22272D01*
X29684Y22255D01*
X29691Y22239D01*
X29701Y22224D01*
X29713Y22210D01*
X29727Y22199D01*
X29744Y22189D01*
X29762Y22182D01*
X29792Y22174D01*
X29824Y22168D01*
X29858Y22165D01*
X29892Y22164D01*
X30237Y22164D01*
X30237Y22052D01*
X30237Y22052D01*
X30137Y22720D02*
X30236Y22736D01*
X30240Y22713D01*
X30243Y22691D01*
X30245Y22671D01*
X30246Y22652D01*
X30244Y22623D01*
X30241Y22598D01*
X30235Y22576D01*
X30226Y22557D01*
X30216Y22542D01*
X30204Y22529D01*
X30191Y22518D01*
X30176Y22510D01*
X30156Y22504D01*
X30127Y22500D01*
X30090Y22497D01*
X30044Y22497D01*
X29665Y22497D01*
X29665Y22415D01*
X29578Y22415D01*
X29578Y22497D01*
X29415Y22497D01*
X29348Y22608D01*
X29578Y22608D01*
X29578Y22720D01*
X29665Y22720D01*
X29665Y22608D01*
X30050Y22608D01*
X30072Y22608D01*
X30090Y22609D01*
X30103Y22611D01*
X30112Y22613D01*
X30118Y22617D01*
X30124Y22621D01*
X30129Y22626D01*
X30133Y22633D01*
X30137Y22640D01*
X30139Y22649D01*
X30141Y22659D01*
X30142Y22671D01*
X30141Y22681D01*
X30140Y22692D01*
X30139Y22705D01*
X30137Y22720D01*
X30137Y22720D01*
X30237Y23571D02*
X30237Y23460D01*
X29526Y23460D01*
X29545Y23438D01*
X29564Y23413D01*
X29583Y23385D01*
X29603Y23354D01*
X29621Y23322D01*
X29636Y23292D01*
X29649Y23263D01*
X29660Y23236D01*
X29552Y23236D01*
X29529Y23282D01*
X29504Y23324D01*
X29476Y23363D01*
X29446Y23400D01*
X29415Y23432D01*
X29384Y23460D01*
X29354Y23482D01*
X29324Y23499D01*
X29324Y23571D01*
X30237Y23571D01*
X30237Y23571D01*
G37*
M02*