%FSLAX33Y33*%
%MOMM*%
%AMRect-W2052833-H422672-RO1.000*
21,1,2.052833,0.422672,0.,0.,180*%
%AMRR-H422672-W2052833-R211336-RO1.000*
21,1,1.630161,0.422672,0.,0.,180*
1,1,0.422672,0.8150805,-0.*
1,1,0.422672,-0.8150805,-0.*
1,1,0.422672,-0.8150805,0.*
1,1,0.422672,0.8150805,0.*%
%ADD10C,0.0508*%
%ADD11C,0.2032*%
%ADD12C,0.508*%
%ADD13Rect-W2052833-H422672-RO1.000*%
%ADD14RR-H422672-W2052833-R211336-RO1.000*%
%ADD15R,1.6X1.6*%
%ADD16C,1.6*%
%ADD17R,1.65X1.65*%
%ADD18C,1.65*%
D10*
%LNpour fill*%
G01*
X36500Y24500D02*
X36500Y24500D01*
X0500Y24500*
X0500Y0500*
X36500Y0500*
X36500Y24500*
X34000Y20196D02*
X33599Y20241D01*
X33217Y20374*
X32875Y20589*
X32589Y20875*
X32374Y21217*
X32241Y21599*
X32196Y22000*
X32241Y22401*
X32374Y22783*
X32589Y23125*
X32875Y23411*
X33217Y23626*
X33599Y23759*
X34000Y23804*
X34401Y23759*
X34783Y23626*
X35125Y23411*
X35411Y23125*
X35626Y22783*
X35759Y22401*
X35804Y22000*
X35759Y21599*
X35626Y21217*
X35411Y20875*
X35125Y20589*
X34783Y20374*
X34401Y20241*
X34000Y20196*
X14390Y12860D02*
X12760Y12860D01*
X12679Y12868*
X12601Y12892*
X12529Y12930*
X12467Y12982*
X12415Y13045*
X12377Y13116*
X12353Y13194*
X12345Y13275*
X12353Y13356*
X12377Y13434*
X12415Y13505*
X12493Y13600*
X12415Y13695*
X12377Y13766*
X12353Y13844*
X12345Y13925*
X12353Y14006*
X12377Y14084*
X12415Y14155*
X12493Y14250*
X12415Y14345*
X12377Y14416*
X12359Y14473*
X12599Y14473*
X12599Y14677*
X12359Y14677*
X12377Y14734*
X12415Y14805*
X12493Y14900*
X12415Y14995*
X12377Y15066*
X12359Y15123*
X12599Y15123*
X12599Y15327*
X12359Y15327*
X12377Y15384*
X12415Y15455*
X12493Y15550*
X12415Y15645*
X12377Y15716*
X12353Y15794*
X12345Y15875*
X12353Y15956*
X12377Y16034*
X12415Y16105*
X12493Y16200*
X12415Y16295*
X12377Y16366*
X12353Y16444*
X12345Y16525*
X12353Y16606*
X12377Y16684*
X12415Y16755*
X12493Y16850*
X12415Y16945*
X12377Y17016*
X12353Y17094*
X12345Y17175*
X12353Y17256*
X12377Y17334*
X12415Y17405*
X12493Y17500*
X12415Y17595*
X12377Y17666*
X12359Y17723*
X12599Y17723*
X12599Y17927*
X12359Y17927*
X12377Y17984*
X12415Y18055*
X12493Y18150*
X12415Y18245*
X12377Y18316*
X12353Y18394*
X12345Y18475*
X12353Y18556*
X12377Y18634*
X12415Y18705*
X12493Y18800*
X12415Y18895*
X12377Y18966*
X12353Y19044*
X12345Y19125*
X12353Y19206*
X12377Y19284*
X12415Y19355*
X12493Y19450*
X12415Y19545*
X12377Y19616*
X12359Y19673*
X12599Y19673*
X12599Y19877*
X12359Y19877*
X12377Y19934*
X12415Y20005*
X12493Y20100*
X12415Y20195*
X12377Y20266*
X12353Y20344*
X12345Y20425*
X12353Y20506*
X12377Y20584*
X12415Y20655*
X12449Y20696*
X12415Y20769*
X11666Y20769*
X11585Y20698*
X11487Y20647*
X11380Y20620*
X11270Y20620*
X11163Y20647*
X11065Y20698*
X10982Y20771*
X10919Y20862*
X10880Y20965*
X10867Y21075*
X10880Y21185*
X10895Y21224*
X10844Y21282*
X10755Y21260*
X10645Y21260*
X10538Y21286*
X10440Y21338*
X10357Y21411*
X10294Y21502*
X10255Y21605*
X10242Y21715*
X10255Y21824*
X10294Y21928*
X10357Y22018*
X10440Y22092*
X10538Y22143*
X10645Y22170*
X10755Y22170*
X10862Y22143*
X10960Y22092*
X11041Y22020*
X12469Y22020*
X12529Y22070*
X12601Y22108*
X12679Y22132*
X12760Y22140*
X14390Y22140*
X14471Y22132*
X14549Y22108*
X14620Y22070*
X14683Y22018*
X14735Y21955*
X14773Y21884*
X14797Y21806*
X14804Y21725*
X14797Y21644*
X14773Y21566*
X14735Y21495*
X14657Y21400*
X14735Y21305*
X14773Y21234*
X14797Y21156*
X14804Y21075*
X14797Y20994*
X14773Y20916*
X14735Y20845*
X14701Y20804*
X14735Y20731*
X16659Y20731*
X16740Y20802*
X16838Y20853*
X16945Y20880*
X17055Y20880*
X17162Y20853*
X17260Y20802*
X17343Y20729*
X17406Y20638*
X17445Y20535*
X17458Y20425*
X17445Y20315*
X17406Y20212*
X17343Y20121*
X17260Y20048*
X17162Y19997*
X17055Y19970*
X16945Y19970*
X16838Y19997*
X16740Y20048*
X16659Y20119*
X14735Y20119*
X14701Y20046*
X14735Y20005*
X14773Y19934*
X14790Y19877*
X14550Y19877*
X14550Y19673*
X14790Y19673*
X14773Y19616*
X14735Y19545*
X14657Y19450*
X14735Y19355*
X14773Y19284*
X14797Y19206*
X14804Y19125*
X14797Y19044*
X14773Y18966*
X14735Y18895*
X14701Y18854*
X14735Y18781*
X14984Y18781*
X15065Y18852*
X15163Y18903*
X15270Y18930*
X15380Y18930*
X15487Y18903*
X15585Y18852*
X15668Y18779*
X15731Y18688*
X15770Y18585*
X15783Y18475*
X15770Y18365*
X15731Y18262*
X15668Y18171*
X15585Y18098*
X15487Y18047*
X15380Y18020*
X15270Y18020*
X15163Y18047*
X15065Y18098*
X14984Y18169*
X14735Y18169*
X14701Y18096*
X14735Y18055*
X14773Y17984*
X14790Y17927*
X14550Y17927*
X14550Y17723*
X14790Y17723*
X14773Y17666*
X14735Y17595*
X14657Y17500*
X14735Y17405*
X14773Y17334*
X14797Y17256*
X14804Y17175*
X14797Y17094*
X14773Y17016*
X14735Y16945*
X14657Y16850*
X14735Y16755*
X14773Y16684*
X14797Y16606*
X14804Y16525*
X14797Y16444*
X14773Y16366*
X14735Y16295*
X14657Y16200*
X14735Y16105*
X14773Y16034*
X14797Y15956*
X14804Y15875*
X14797Y15794*
X14773Y15716*
X14735Y15645*
X14657Y15550*
X14735Y15455*
X14773Y15384*
X14797Y15306*
X14804Y15225*
X14797Y15144*
X14773Y15066*
X14735Y14995*
X14657Y14900*
X14735Y14805*
X14773Y14734*
X14790Y14677*
X14550Y14677*
X14550Y14473*
X14790Y14473*
X14773Y14416*
X14735Y14345*
X14657Y14250*
X14735Y14155*
X14773Y14084*
X14797Y14006*
X14804Y13925*
X14797Y13844*
X14773Y13766*
X14735Y13695*
X14657Y13600*
X14735Y13505*
X14773Y13434*
X14797Y13356*
X14804Y13275*
X14797Y13194*
X14773Y13116*
X14735Y13045*
X14683Y12982*
X14620Y12930*
X14549Y12892*
X14471Y12868*
X14390Y12860*
X27354Y5128D02*
X27106Y5128D01*
X26865Y5188*
X26645Y5303*
X26460Y5468*
X26319Y5672*
X26291Y5744*
X23241Y5744*
X23160Y5673*
X23062Y5622*
X22955Y5595*
X22845Y5595*
X22738Y5622*
X22640Y5673*
X22557Y5746*
X22494Y5837*
X22455Y5940*
X22442Y6050*
X22455Y6160*
X22494Y6263*
X22557Y6354*
X22640Y6427*
X22738Y6478*
X22845Y6505*
X22955Y6505*
X23062Y6478*
X23160Y6427*
X23241Y6356*
X26215Y6356*
X26319Y6628*
X26460Y6832*
X26509Y6876*
X26478Y6958*
X23741Y6958*
X23660Y6887*
X23562Y6835*
X23455Y6809*
X23345Y6809*
X23238Y6835*
X23140Y6887*
X23057Y6960*
X22994Y7051*
X22955Y7154*
X22942Y7264*
X22955Y7373*
X22994Y7477*
X23057Y7568*
X23140Y7641*
X23238Y7692*
X23345Y7719*
X23455Y7719*
X23562Y7692*
X23660Y7641*
X23741Y7569*
X27040Y7569*
X27054Y7681*
X26865Y7728*
X26645Y7843*
X26460Y8008*
X26319Y8212*
X26253Y8384*
X24241Y8384*
X24160Y8313*
X24062Y8262*
X23955Y8235*
X23845Y8235*
X23738Y8262*
X23640Y8313*
X23557Y8386*
X23494Y8477*
X23455Y8580*
X23442Y8690*
X23455Y8800*
X23494Y8903*
X23557Y8994*
X23640Y9067*
X23738Y9118*
X23845Y9145*
X23955Y9145*
X24062Y9118*
X24160Y9067*
X24241Y8996*
X26253Y8996*
X26319Y9168*
X26460Y9372*
X26645Y9537*
X26904Y9673*
X26880Y9769*
X24741Y9769*
X24660Y9698*
X24562Y9647*
X24455Y9620*
X24345Y9620*
X24238Y9647*
X24140Y9698*
X24057Y9771*
X23994Y9862*
X23955Y9965*
X23942Y10075*
X23955Y10185*
X23994Y10288*
X24057Y10379*
X24140Y10452*
X24238Y10503*
X24345Y10530*
X24455Y10530*
X24562Y10503*
X24660Y10452*
X24741Y10381*
X26524Y10381*
X26555Y10463*
X26460Y10548*
X26319Y10752*
X26253Y10924*
X25241Y10924*
X25160Y10853*
X25062Y10802*
X24955Y10775*
X24845Y10775*
X24738Y10802*
X24640Y10853*
X24557Y10926*
X24494Y11017*
X24455Y11120*
X24442Y11230*
X24455Y11340*
X24494Y11443*
X24557Y11534*
X24640Y11607*
X24738Y11658*
X24845Y11685*
X24955Y11685*
X25062Y11658*
X25160Y11607*
X25241Y11536*
X26253Y11536*
X26319Y11708*
X26460Y11912*
X26629Y12062*
X26598Y12144*
X20425Y12144*
X20365Y12150*
X20308Y12167*
X20255Y12196*
X20209Y12234*
X20171Y12280*
X20143Y12333*
X20125Y12390*
X20119Y12450*
X20119Y12859*
X19399Y12859*
X19367Y12862*
X19336Y12869*
X19306Y12882*
X19279Y12898*
X19254Y12919*
X19234Y12944*
X19217Y12971*
X19205Y13001*
X19197Y13032*
X19195Y13064*
X19195Y13486*
X19197Y13518*
X19205Y13549*
X19217Y13579*
X19234Y13606*
X19282Y13663*
X19227Y13766*
X19203Y13844*
X19196Y13925*
X19203Y14006*
X19227Y14084*
X19265Y14155*
X19343Y14250*
X19265Y14345*
X19227Y14416*
X19203Y14494*
X19196Y14575*
X19203Y14656*
X19240Y14775*
X19175Y14829*
X19112Y14797*
X19005Y14770*
X18895Y14770*
X18788Y14797*
X18690Y14848*
X18607Y14921*
X18544Y15012*
X18505Y15115*
X18492Y15225*
X18505Y15335*
X18544Y15438*
X18607Y15529*
X18690Y15602*
X18788Y15653*
X18895Y15680*
X19005Y15680*
X19112Y15653*
X19175Y15621*
X19240Y15675*
X19203Y15794*
X19196Y15875*
X19203Y15956*
X19227Y16034*
X19265Y16105*
X19343Y16200*
X19265Y16295*
X19227Y16366*
X19203Y16444*
X19196Y16525*
X19203Y16606*
X19227Y16684*
X19265Y16755*
X19343Y16850*
X19265Y16945*
X19227Y17016*
X19210Y17073*
X19450Y17073*
X19450Y17277*
X19210Y17277*
X19227Y17334*
X19265Y17405*
X19343Y17500*
X19265Y17595*
X19227Y17666*
X19203Y17744*
X19196Y17825*
X19203Y17906*
X19227Y17984*
X19265Y18055*
X19343Y18150*
X19265Y18245*
X19227Y18316*
X19203Y18394*
X19196Y18475*
X19203Y18556*
X19227Y18634*
X19265Y18705*
X19343Y18800*
X19265Y18895*
X19227Y18966*
X19203Y19044*
X19196Y19125*
X19203Y19206*
X19227Y19284*
X19265Y19355*
X19343Y19450*
X19265Y19545*
X19227Y19616*
X19203Y19694*
X19196Y19775*
X19203Y19856*
X19227Y19934*
X19265Y20005*
X19343Y20100*
X19265Y20195*
X19227Y20266*
X19203Y20344*
X19196Y20425*
X19203Y20506*
X19227Y20584*
X19265Y20655*
X19343Y20750*
X19265Y20845*
X19227Y20916*
X19203Y20994*
X19196Y21075*
X19203Y21156*
X19227Y21234*
X19265Y21305*
X19343Y21400*
X19265Y21495*
X19227Y21566*
X19203Y21644*
X19196Y21725*
X19203Y21806*
X19227Y21884*
X19265Y21955*
X19317Y22018*
X19380Y22070*
X19451Y22108*
X19529Y22132*
X19610Y22140*
X21240Y22140*
X21321Y22132*
X21399Y22108*
X21471Y22070*
X21533Y22018*
X21585Y21955*
X21623Y21884*
X21647Y21806*
X21655Y21725*
X21647Y21644*
X21623Y21566*
X21585Y21495*
X21507Y21400*
X21585Y21305*
X21623Y21234*
X21647Y21156*
X21655Y21075*
X21647Y20994*
X21623Y20916*
X21585Y20845*
X21507Y20750*
X21585Y20655*
X21623Y20584*
X21647Y20506*
X21655Y20425*
X21647Y20344*
X21623Y20266*
X21585Y20195*
X21551Y20154*
X21585Y20081*
X25059Y20081*
X25140Y20152*
X25238Y20203*
X25345Y20230*
X25455Y20230*
X25562Y20203*
X25660Y20152*
X25743Y20079*
X25806Y19988*
X25845Y19885*
X25858Y19775*
X25845Y19665*
X25806Y19562*
X25743Y19471*
X25660Y19398*
X25562Y19347*
X25455Y19320*
X25345Y19320*
X25238Y19347*
X25140Y19398*
X25059Y19469*
X21585Y19469*
X21551Y19396*
X21585Y19355*
X21623Y19284*
X21647Y19206*
X21655Y19125*
X21647Y19044*
X21623Y18966*
X21585Y18895*
X21507Y18800*
X21585Y18705*
X21623Y18634*
X21647Y18556*
X21655Y18475*
X21647Y18394*
X21623Y18316*
X21585Y18245*
X21507Y18150*
X21585Y18055*
X21623Y17984*
X21647Y17906*
X21655Y17825*
X21647Y17744*
X21623Y17666*
X21585Y17595*
X21507Y17500*
X21585Y17405*
X21623Y17334*
X21641Y17277*
X21401Y17277*
X21401Y17073*
X21641Y17073*
X21623Y17016*
X21585Y16945*
X21507Y16850*
X21585Y16755*
X21623Y16684*
X21647Y16606*
X21657Y16506*
X21742Y16484*
X21832Y16614*
X21915Y16687*
X22013Y16738*
X22120Y16765*
X22230Y16765*
X22337Y16738*
X22435Y16687*
X22516Y16616*
X26253Y16616*
X26319Y16788*
X26460Y16992*
X26645Y17157*
X26749Y17211*
X26725Y17308*
X25741Y17308*
X25660Y17237*
X25562Y17185*
X25455Y17159*
X25345Y17159*
X25238Y17185*
X25140Y17237*
X25057Y17310*
X24994Y17401*
X24955Y17504*
X24942Y17614*
X24955Y17723*
X24994Y17827*
X25057Y17918*
X25140Y17991*
X25238Y18042*
X25345Y18069*
X25455Y18069*
X25562Y18042*
X25660Y17991*
X25741Y17919*
X26221Y17919*
X26203Y17993*
X26201Y18025*
X26201Y18748*
X26456Y18748*
X26456Y18952*
X26201Y18952*
X26201Y19675*
X26203Y19707*
X26211Y19738*
X26223Y19768*
X26240Y19795*
X26261Y19819*
X26285Y19840*
X26312Y19857*
X26342Y19869*
X26373Y19877*
X26405Y19879*
X27128Y19879*
X27128Y19624*
X27332Y19624*
X27332Y19879*
X28055Y19879*
X28087Y19877*
X28118Y19869*
X28148Y19857*
X28175Y19840*
X28199Y19819*
X28220Y19795*
X28237Y19768*
X28249Y19738*
X28257Y19707*
X28259Y19675*
X28259Y18952*
X28004Y18952*
X28004Y18748*
X28259Y18748*
X28259Y18025*
X28257Y17993*
X28239Y17919*
X28466Y17919*
X28526Y17914*
X28583Y17896*
X28636Y17868*
X28721Y17798*
X28730Y17806*
X28719Y17793*
X29297Y17216*
X29405Y17272*
X29646Y17332*
X29894Y17332*
X30135Y17272*
X30355Y17157*
X30540Y16992*
X30681Y16788*
X30769Y16556*
X30799Y16310*
X30769Y16064*
X30681Y15832*
X30540Y15628*
X30355Y15463*
X30135Y15348*
X29894Y15288*
X29646Y15288*
X29405Y15348*
X29185Y15463*
X29000Y15628*
X28859Y15832*
X28771Y16064*
X28741Y16310*
X28771Y16556*
X28859Y16789*
X28340Y17308*
X27735Y17308*
X27711Y17211*
X27815Y17157*
X28000Y16992*
X28141Y16788*
X28229Y16556*
X28259Y16310*
X28229Y16064*
X28141Y15832*
X28000Y15628*
X27815Y15463*
X27595Y15348*
X27354Y15288*
X27106Y15288*
X26865Y15348*
X26645Y15463*
X26460Y15628*
X26319Y15832*
X26253Y16004*
X24793Y16004*
X24808Y15875*
X24795Y15765*
X24756Y15662*
X24693Y15571*
X24610Y15498*
X24512Y15447*
X24405Y15420*
X24295Y15420*
X24188Y15447*
X24090Y15498*
X24009Y15569*
X21585Y15569*
X21551Y15496*
X21585Y15455*
X21623Y15384*
X21647Y15306*
X21655Y15225*
X21647Y15144*
X21623Y15066*
X21585Y14995*
X21551Y14954*
X21585Y14881*
X23059Y14881*
X23140Y14952*
X23238Y15003*
X23345Y15030*
X23455Y15030*
X23562Y15003*
X23660Y14952*
X23743Y14879*
X23806Y14788*
X23845Y14685*
X23858Y14575*
X23845Y14465*
X23806Y14362*
X23743Y14271*
X23660Y14198*
X23562Y14147*
X23455Y14120*
X23345Y14120*
X23238Y14147*
X23140Y14198*
X23059Y14269*
X21585Y14269*
X21551Y14196*
X21585Y14155*
X21623Y14084*
X21647Y14006*
X21655Y13925*
X21647Y13844*
X21623Y13766*
X21568Y13663*
X21617Y13606*
X21634Y13579*
X21646Y13549*
X21653Y13518*
X21656Y13486*
X21656Y13064*
X21653Y13032*
X21646Y13001*
X21634Y12971*
X21617Y12944*
X21596Y12919*
X21572Y12898*
X21544Y12882*
X21487Y12858*
X21507Y12756*
X26756Y12756*
X26780Y12852*
X26645Y12923*
X26460Y13088*
X26319Y13292*
X26231Y13524*
X26201Y13770*
X26231Y14016*
X26319Y14248*
X26460Y14452*
X26645Y14617*
X26865Y14732*
X27106Y14792*
X27354Y14792*
X27595Y14732*
X27815Y14617*
X28000Y14452*
X28141Y14248*
X28229Y14016*
X28259Y13770*
X28229Y13524*
X28141Y13292*
X28000Y13088*
X27815Y12923*
X27680Y12852*
X27704Y12756*
X28466Y12756*
X28526Y12750*
X28583Y12733*
X28636Y12704*
X28683Y12666*
X29242Y12107*
X29405Y12192*
X29646Y12252*
X29894Y12252*
X30135Y12192*
X30355Y12077*
X30540Y11912*
X30681Y11708*
X30769Y11476*
X30799Y11230*
X30769Y10984*
X30681Y10752*
X30540Y10548*
X30355Y10383*
X30135Y10268*
X29894Y10208*
X29646Y10208*
X29405Y10268*
X29185Y10383*
X29000Y10548*
X28859Y10752*
X28771Y10984*
X28741Y11230*
X28771Y11476*
X28836Y11648*
X28340Y12144*
X27862Y12144*
X27831Y12062*
X28000Y11912*
X28141Y11708*
X28229Y11476*
X28259Y11230*
X28229Y10984*
X28141Y10752*
X28000Y10548*
X27905Y10463*
X27936Y10381*
X28466Y10381*
X28526Y10375*
X28583Y10358*
X28636Y10329*
X28683Y10291*
X29350Y9624*
X29405Y9652*
X29646Y9712*
X29894Y9712*
X30135Y9652*
X30355Y9537*
X30540Y9372*
X30681Y9168*
X30769Y8936*
X30799Y8690*
X30769Y8444*
X30681Y8212*
X30540Y8008*
X30355Y7843*
X30135Y7728*
X29894Y7668*
X29646Y7668*
X29405Y7728*
X29185Y7843*
X29000Y8008*
X28859Y8212*
X28771Y8444*
X28741Y8690*
X28771Y8936*
X28859Y9168*
X28892Y9217*
X28340Y9769*
X27580Y9769*
X27556Y9673*
X27815Y9537*
X28000Y9372*
X28141Y9168*
X28229Y8936*
X28259Y8690*
X28229Y8444*
X28141Y8212*
X28000Y8008*
X27815Y7843*
X27595Y7728*
X27406Y7681*
X27420Y7569*
X28500Y7569*
X28560Y7564*
X28617Y7546*
X28670Y7518*
X28716Y7480*
X28754Y7434*
X28783Y7379*
X29172Y6990*
X29405Y7112*
X29646Y7172*
X29894Y7172*
X30135Y7112*
X30355Y6997*
X30540Y6832*
X30681Y6628*
X30769Y6396*
X30799Y6150*
X30769Y5904*
X30681Y5672*
X30540Y5468*
X30355Y5303*
X30135Y5188*
X29894Y5128*
X29646Y5128*
X29405Y5188*
X29185Y5303*
X29000Y5468*
X28859Y5672*
X28771Y5904*
X28741Y6150*
X28771Y6396*
X28807Y6491*
X28340Y6958*
X27982Y6958*
X27951Y6876*
X28000Y6832*
X28141Y6628*
X28229Y6396*
X28259Y6150*
X28229Y5904*
X28141Y5672*
X28000Y5468*
X27815Y5303*
X27595Y5188*
X27354Y5128*
X30595Y17821D02*
X29970Y17821D01*
X29970Y18076*
X29570Y18076*
X29570Y17821*
X28945Y17821*
X28913Y17823*
X28882Y17831*
X28852Y17843*
X28797Y17877*
X28763Y17932*
X28751Y17962*
X28743Y17993*
X28741Y18025*
X28741Y18650*
X28996Y18650*
X28996Y19050*
X28741Y19050*
X28741Y19675*
X28743Y19707*
X28751Y19738*
X28763Y19768*
X28780Y19795*
X28801Y19819*
X28825Y19840*
X28852Y19857*
X28882Y19869*
X28913Y19877*
X28945Y19879*
X29570Y19879*
X29570Y19624*
X29970Y19624*
X29970Y19879*
X30595Y19879*
X30627Y19877*
X30658Y19869*
X30688Y19857*
X30715Y19840*
X30739Y19819*
X30760Y19795*
X30777Y19768*
X30789Y19738*
X30797Y19707*
X30799Y19675*
X30799Y19050*
X30544Y19050*
X30544Y18650*
X30799Y18650*
X30799Y18025*
X30797Y17993*
X30789Y17962*
X30777Y17932*
X30760Y17905*
X30739Y17881*
X30715Y17860*
X30688Y17843*
X30658Y17831*
X30627Y17823*
X30595Y17821*
X5030Y16576D02*
X3430Y16576D01*
X3398Y16578*
X3367Y16586*
X3337Y16598*
X3310Y16615*
X3286Y16636*
X3265Y16660*
X3248Y16687*
X3236Y16717*
X3228Y16748*
X3226Y16780*
X3226Y18380*
X3228Y18412*
X3236Y18443*
X3248Y18473*
X3265Y18500*
X3286Y18524*
X3310Y18545*
X3337Y18562*
X3367Y18574*
X3398Y18582*
X3430Y18584*
X5030Y18584*
X5062Y18582*
X5093Y18574*
X5123Y18562*
X5150Y18545*
X5174Y18524*
X5195Y18500*
X5212Y18473*
X5224Y18443*
X5232Y18412*
X5234Y18380*
X5234Y16780*
X5232Y16748*
X5224Y16717*
X5212Y16687*
X5195Y16660*
X5174Y16636*
X5150Y16615*
X5123Y16598*
X5093Y16586*
X5062Y16578*
X5030Y16576*
X4351Y11503D02*
X4109Y11503D01*
X3874Y11561*
X3660Y11674*
X3478Y11834*
X3341Y12033*
X3255Y12260*
X3226Y12500*
X3255Y12740*
X3341Y12967*
X3478Y13166*
X3660Y13326*
X3874Y13439*
X4109Y13497*
X4351Y13497*
X4586Y13439*
X4685Y13387*
X5314Y14016*
X5360Y14054*
X5413Y14083*
X5470Y14100*
X5530Y14106*
X6198Y14106*
X6229Y14188*
X6018Y14374*
X5881Y14573*
X5795Y14800*
X5766Y15040*
X5795Y15280*
X5881Y15507*
X6018Y15706*
X6200Y15866*
X6285Y15911*
X6261Y16008*
X5630Y16008*
X5122Y15499*
X5205Y15280*
X5234Y15040*
X5205Y14800*
X5119Y14573*
X4982Y14374*
X4800Y14214*
X4586Y14101*
X4351Y14043*
X4109Y14043*
X3874Y14101*
X3660Y14214*
X3478Y14374*
X3341Y14573*
X3255Y14800*
X3226Y15040*
X3255Y15280*
X3341Y15507*
X3478Y15706*
X3660Y15866*
X3874Y15979*
X4109Y16037*
X4351Y16037*
X4586Y15979*
X4685Y15927*
X5287Y16530*
X5334Y16568*
X5387Y16596*
X5444Y16614*
X5504Y16619*
X6247Y16619*
X6271Y16716*
X6200Y16754*
X6018Y16914*
X5881Y17113*
X5795Y17340*
X5766Y17580*
X5795Y17820*
X5881Y18047*
X6018Y18246*
X6200Y18406*
X6414Y18519*
X6649Y18577*
X6891Y18577*
X7126Y18519*
X7340Y18406*
X7522Y18246*
X7659Y18047*
X7745Y17820*
X7774Y17580*
X7745Y17340*
X7659Y17113*
X7522Y16914*
X7340Y16754*
X7269Y16716*
X7293Y16619*
X10971Y16619*
X11065Y16702*
X11163Y16753*
X11270Y16780*
X11380Y16780*
X11487Y16753*
X11585Y16702*
X11668Y16629*
X11731Y16538*
X11770Y16435*
X11783Y16325*
X11770Y16215*
X11731Y16112*
X11668Y16021*
X11585Y15948*
X11487Y15897*
X11380Y15870*
X11270Y15870*
X11163Y15897*
X11065Y15948*
X10997Y16008*
X7279Y16008*
X7255Y15911*
X7340Y15866*
X7522Y15706*
X7659Y15507*
X7720Y15346*
X10984Y15346*
X11065Y15417*
X11163Y15468*
X11270Y15495*
X11380Y15495*
X11487Y15468*
X11585Y15417*
X11668Y15344*
X11731Y15253*
X11770Y15150*
X11783Y15040*
X11770Y14930*
X11731Y14827*
X11668Y14736*
X11585Y14663*
X11487Y14612*
X11380Y14585*
X11270Y14585*
X11163Y14612*
X11065Y14663*
X10984Y14734*
X7720Y14734*
X7659Y14573*
X7522Y14374*
X7311Y14188*
X7342Y14106*
X10359Y14106*
X10440Y14177*
X10538Y14228*
X10645Y14255*
X10755Y14255*
X10862Y14228*
X10960Y14177*
X11043Y14104*
X11106Y14013*
X11145Y13910*
X11158Y13800*
X11145Y13690*
X11106Y13587*
X11043Y13496*
X10960Y13423*
X10862Y13372*
X10755Y13345*
X10645Y13345*
X10538Y13372*
X10440Y13423*
X10359Y13494*
X7229Y13494*
X7205Y13398*
X7340Y13326*
X7522Y13166*
X7659Y12967*
X7745Y12740*
X7774Y12500*
X7745Y12260*
X7659Y12033*
X7522Y11834*
X7340Y11674*
X7126Y11561*
X6891Y11503*
X6649Y11503*
X6414Y11561*
X6200Y11674*
X6018Y11834*
X5881Y12033*
X5795Y12260*
X5766Y12500*
X5795Y12740*
X5881Y12967*
X6018Y13166*
X6200Y13326*
X6335Y13398*
X6311Y13494*
X5657Y13494*
X5122Y12959*
X5205Y12740*
X5234Y12500*
X5205Y12260*
X5119Y12033*
X4982Y11834*
X4800Y11674*
X4586Y11561*
X4351Y11503*
X29894Y12748D02*
X29646Y12748D01*
X29405Y12808*
X29185Y12923*
X29000Y13088*
X28859Y13292*
X28771Y13524*
X28741Y13770*
X28771Y14016*
X28859Y14248*
X29000Y14452*
X29185Y14617*
X29405Y14732*
X29646Y14792*
X29894Y14792*
X30135Y14732*
X30355Y14617*
X30540Y14452*
X30681Y14248*
X30769Y14016*
X30799Y13770*
X30769Y13524*
X30681Y13292*
X30540Y13088*
X30355Y12923*
X30135Y12808*
X29894Y12748*
X14390Y1860D02*
X12760Y1860D01*
X12679Y1868*
X12601Y1892*
X12529Y1930*
X12467Y1982*
X12415Y2045*
X12377Y2116*
X12353Y2194*
X12345Y2275*
X12353Y2356*
X12377Y2434*
X12415Y2505*
X12493Y2600*
X12415Y2695*
X12377Y2766*
X12353Y2844*
X12345Y2925*
X12353Y3006*
X12377Y3084*
X12415Y3155*
X12493Y3250*
X12415Y3345*
X12377Y3416*
X12359Y3473*
X12599Y3473*
X12599Y3677*
X12359Y3677*
X12377Y3734*
X12415Y3805*
X12493Y3900*
X12415Y3995*
X12377Y4066*
X12359Y4123*
X12599Y4123*
X12599Y4327*
X12359Y4327*
X12377Y4384*
X12415Y4455*
X12493Y4550*
X12415Y4645*
X12377Y4716*
X12353Y4794*
X12345Y4875*
X12353Y4956*
X12377Y5034*
X12415Y5105*
X12493Y5200*
X12415Y5295*
X12377Y5366*
X12353Y5444*
X12345Y5525*
X12353Y5606*
X12377Y5684*
X12415Y5755*
X12493Y5850*
X12415Y5945*
X12377Y6016*
X12353Y6094*
X12345Y6175*
X12353Y6256*
X12377Y6334*
X12415Y6405*
X12493Y6500*
X12415Y6595*
X12377Y6666*
X12359Y6723*
X12599Y6723*
X12599Y6927*
X12359Y6927*
X12377Y6984*
X12415Y7055*
X12493Y7150*
X12415Y7245*
X12377Y7316*
X12353Y7394*
X12345Y7475*
X12353Y7556*
X12377Y7634*
X12415Y7705*
X12493Y7800*
X12415Y7895*
X12377Y7966*
X12353Y8044*
X12345Y8125*
X12353Y8206*
X12377Y8284*
X12415Y8355*
X12493Y8450*
X12415Y8545*
X12377Y8616*
X12359Y8673*
X12599Y8673*
X12599Y8877*
X12359Y8877*
X12377Y8934*
X12415Y9005*
X12493Y9100*
X12415Y9195*
X12377Y9266*
X12353Y9344*
X12345Y9425*
X12353Y9506*
X12377Y9584*
X12415Y9655*
X12449Y9696*
X12415Y9769*
X11666Y9769*
X11585Y9698*
X11487Y9647*
X11380Y9620*
X11270Y9620*
X11163Y9647*
X11065Y9698*
X10982Y9771*
X10919Y9862*
X10880Y9965*
X10867Y10075*
X10880Y10185*
X10919Y10288*
X10963Y10351*
X10927Y10419*
X8886Y10419*
X8805Y10348*
X8707Y10297*
X8600Y10270*
X8490Y10270*
X8383Y10297*
X8285Y10348*
X8202Y10421*
X8139Y10512*
X8100Y10615*
X8087Y10725*
X8100Y10835*
X8139Y10938*
X8202Y11029*
X8285Y11102*
X8383Y11153*
X8490Y11180*
X8600Y11180*
X8707Y11153*
X8805Y11102*
X8886Y11031*
X12482Y11031*
X12529Y11070*
X12601Y11108*
X12679Y11132*
X12760Y11140*
X14390Y11140*
X14471Y11132*
X14549Y11108*
X14620Y11070*
X14683Y11018*
X14735Y10955*
X14773Y10884*
X14797Y10806*
X14804Y10725*
X14797Y10644*
X14773Y10566*
X14735Y10495*
X14657Y10400*
X14735Y10305*
X14773Y10234*
X14797Y10156*
X14804Y10075*
X14797Y9994*
X14773Y9916*
X14735Y9845*
X14701Y9804*
X14735Y9731*
X16659Y9731*
X16740Y9802*
X16838Y9853*
X16945Y9880*
X17055Y9880*
X17162Y9853*
X17260Y9802*
X17343Y9729*
X17406Y9638*
X17445Y9535*
X17458Y9425*
X17445Y9315*
X17406Y9212*
X17343Y9121*
X17260Y9048*
X17162Y8997*
X17055Y8970*
X16945Y8970*
X16838Y8997*
X16740Y9048*
X16659Y9119*
X14735Y9119*
X14701Y9046*
X14735Y9005*
X14773Y8934*
X14790Y8877*
X14550Y8877*
X14550Y8673*
X14790Y8673*
X14773Y8616*
X14735Y8545*
X14657Y8450*
X14735Y8355*
X14773Y8284*
X14797Y8206*
X14804Y8125*
X14797Y8044*
X14773Y7966*
X14735Y7895*
X14701Y7854*
X14735Y7781*
X14984Y7781*
X15065Y7852*
X15163Y7903*
X15270Y7930*
X15380Y7930*
X15487Y7903*
X15585Y7852*
X15668Y7779*
X15731Y7688*
X15770Y7585*
X15783Y7475*
X15770Y7365*
X15731Y7262*
X15668Y7171*
X15585Y7098*
X15487Y7047*
X15380Y7020*
X15270Y7020*
X15163Y7047*
X15065Y7098*
X14984Y7169*
X14735Y7169*
X14701Y7096*
X14735Y7055*
X14773Y6984*
X14790Y6927*
X14550Y6927*
X14550Y6723*
X14790Y6723*
X14773Y6666*
X14735Y6595*
X14657Y6500*
X14735Y6405*
X14773Y6334*
X14797Y6256*
X14804Y6175*
X14797Y6094*
X14773Y6016*
X14735Y5945*
X14657Y5850*
X14735Y5755*
X14773Y5684*
X14797Y5606*
X14804Y5525*
X14797Y5444*
X14773Y5366*
X14735Y5295*
X14657Y5200*
X14735Y5105*
X14773Y5034*
X14797Y4956*
X14804Y4875*
X14797Y4794*
X14773Y4716*
X14735Y4645*
X14657Y4550*
X14735Y4455*
X14773Y4384*
X14797Y4306*
X14804Y4225*
X14797Y4144*
X14773Y4066*
X14735Y3995*
X14657Y3900*
X14735Y3805*
X14773Y3734*
X14790Y3677*
X14550Y3677*
X14550Y3473*
X14790Y3473*
X14773Y3416*
X14735Y3345*
X14657Y3250*
X14735Y3155*
X14773Y3084*
X14797Y3006*
X14804Y2925*
X14797Y2844*
X14773Y2766*
X14735Y2695*
X14657Y2600*
X14735Y2505*
X14773Y2434*
X14797Y2356*
X14804Y2275*
X14797Y2194*
X14773Y2116*
X14735Y2045*
X14683Y1982*
X14620Y1930*
X14549Y1892*
X14471Y1868*
X14390Y1860*
X24955Y1820D02*
X24845Y1820D01*
X24738Y1847*
X24640Y1898*
X24559Y1969*
X21639Y1969*
X21596Y1919*
X21572Y1898*
X21544Y1882*
X21515Y1869*
X21484Y1862*
X21452Y1859*
X19399Y1859*
X19367Y1862*
X19336Y1869*
X19306Y1882*
X19279Y1898*
X19254Y1919*
X19234Y1944*
X19217Y1971*
X19205Y2001*
X19197Y2032*
X19195Y2064*
X19195Y2486*
X19197Y2518*
X19205Y2549*
X19217Y2579*
X19234Y2606*
X19282Y2663*
X19227Y2766*
X19203Y2844*
X19196Y2925*
X19203Y3006*
X19227Y3084*
X19265Y3155*
X19343Y3250*
X19265Y3345*
X19227Y3416*
X19203Y3494*
X19196Y3575*
X19203Y3656*
X19227Y3734*
X19265Y3805*
X19299Y3846*
X19265Y3919*
X19166Y3919*
X19085Y3848*
X18987Y3797*
X18880Y3770*
X18770Y3770*
X18663Y3797*
X18565Y3848*
X18482Y3921*
X18419Y4012*
X18380Y4115*
X18367Y4225*
X18380Y4335*
X18419Y4438*
X18482Y4529*
X18565Y4602*
X18663Y4653*
X18770Y4680*
X18880Y4680*
X18987Y4653*
X19085Y4602*
X19166Y4531*
X19265Y4531*
X19299Y4604*
X19265Y4645*
X19227Y4716*
X19203Y4794*
X19196Y4875*
X19203Y4956*
X19227Y5034*
X19265Y5105*
X19343Y5200*
X19265Y5295*
X19227Y5366*
X19203Y5444*
X19196Y5525*
X19203Y5606*
X19227Y5684*
X19265Y5755*
X19343Y5850*
X19265Y5945*
X19227Y6016*
X19210Y6073*
X19450Y6073*
X19450Y6277*
X19210Y6277*
X19227Y6334*
X19265Y6405*
X19343Y6500*
X19265Y6595*
X19227Y6666*
X19203Y6744*
X19196Y6825*
X19203Y6906*
X19227Y6984*
X19265Y7055*
X19343Y7150*
X19265Y7245*
X19227Y7316*
X19203Y7394*
X19196Y7475*
X19203Y7556*
X19227Y7634*
X19265Y7705*
X19343Y7800*
X19265Y7895*
X19227Y7966*
X19203Y8044*
X19196Y8125*
X19203Y8206*
X19227Y8284*
X19265Y8355*
X19343Y8450*
X19265Y8545*
X19227Y8616*
X19203Y8694*
X19196Y8775*
X19203Y8856*
X19227Y8934*
X19265Y9005*
X19343Y9100*
X19265Y9195*
X19227Y9266*
X19203Y9344*
X19196Y9425*
X19203Y9506*
X19227Y9584*
X19265Y9655*
X19343Y9750*
X19265Y9845*
X19227Y9916*
X19203Y9994*
X19196Y10075*
X19203Y10156*
X19227Y10234*
X19265Y10305*
X19343Y10400*
X19265Y10495*
X19227Y10566*
X19203Y10644*
X19196Y10725*
X19203Y10806*
X19227Y10884*
X19265Y10955*
X19317Y11018*
X19380Y11070*
X19451Y11108*
X19529Y11132*
X19610Y11140*
X21240Y11140*
X21321Y11132*
X21399Y11108*
X21471Y11070*
X21533Y11018*
X21585Y10955*
X21623Y10884*
X21647Y10806*
X21655Y10725*
X21647Y10644*
X21623Y10566*
X21585Y10495*
X21507Y10400*
X21585Y10305*
X21623Y10234*
X21647Y10156*
X21655Y10075*
X21647Y9994*
X21623Y9916*
X21585Y9845*
X21507Y9750*
X21585Y9655*
X21623Y9584*
X21647Y9506*
X21655Y9425*
X21647Y9344*
X21623Y9266*
X21585Y9195*
X21551Y9154*
X21585Y9081*
X21834Y9081*
X21915Y9152*
X22013Y9203*
X22120Y9230*
X22230Y9230*
X22337Y9203*
X22435Y9152*
X22518Y9079*
X22581Y8988*
X22620Y8885*
X22633Y8775*
X22620Y8665*
X22581Y8562*
X22518Y8471*
X22435Y8398*
X22337Y8347*
X22230Y8320*
X22120Y8320*
X22013Y8347*
X21915Y8398*
X21834Y8469*
X21585Y8469*
X21551Y8396*
X21585Y8355*
X21623Y8284*
X21647Y8206*
X21655Y8125*
X21647Y8044*
X21623Y7966*
X21585Y7895*
X21507Y7800*
X21585Y7705*
X21623Y7634*
X21647Y7556*
X21655Y7475*
X21647Y7394*
X21623Y7316*
X21585Y7245*
X21507Y7150*
X21585Y7055*
X21623Y6984*
X21647Y6906*
X21655Y6825*
X21647Y6744*
X21623Y6666*
X21585Y6595*
X21507Y6500*
X21585Y6405*
X21623Y6334*
X21641Y6277*
X21401Y6277*
X21401Y6073*
X21641Y6073*
X21623Y6016*
X21585Y5945*
X21507Y5850*
X21585Y5755*
X21623Y5684*
X21647Y5606*
X21655Y5525*
X21647Y5444*
X21623Y5366*
X21585Y5295*
X21551Y5254*
X21585Y5181*
X23559Y5181*
X23640Y5252*
X23738Y5303*
X23845Y5330*
X23955Y5330*
X24062Y5303*
X24160Y5252*
X24243Y5179*
X24306Y5088*
X24345Y4985*
X24358Y4875*
X24345Y4765*
X24306Y4662*
X24243Y4571*
X24160Y4498*
X24062Y4447*
X23955Y4420*
X23845Y4420*
X23738Y4447*
X23640Y4498*
X23559Y4569*
X21585Y4569*
X21551Y4496*
X21585Y4455*
X21623Y4384*
X21647Y4306*
X21655Y4225*
X21647Y4144*
X21623Y4066*
X21585Y3995*
X21551Y3954*
X21585Y3881*
X22559Y3881*
X22640Y3952*
X22738Y4003*
X22845Y4030*
X22955Y4030*
X23062Y4003*
X23160Y3952*
X23243Y3879*
X23306Y3788*
X23345Y3685*
X23358Y3575*
X23345Y3465*
X23306Y3362*
X23243Y3271*
X23160Y3198*
X23062Y3147*
X22955Y3120*
X22845Y3120*
X22738Y3147*
X22640Y3198*
X22559Y3269*
X21585Y3269*
X21551Y3196*
X21585Y3155*
X21623Y3084*
X21647Y3006*
X21655Y2925*
X21647Y2844*
X21623Y2766*
X21568Y2663*
X21639Y2581*
X24559Y2581*
X24640Y2652*
X24738Y2703*
X24845Y2730*
X24955Y2730*
X25062Y2703*
X25160Y2652*
X25243Y2579*
X25306Y2488*
X25345Y2385*
X25358Y2275*
X25345Y2165*
X25306Y2062*
X25243Y1971*
X25160Y1898*
X25062Y1847*
X24955Y1820*
X4430Y8983D02*
X4430Y9217D01*
X4030Y9217*
X4030Y8983*
X3874Y9021*
X3660Y9134*
X3478Y9294*
X3341Y9493*
X3255Y9720*
X3250Y9760*
X3481Y9760*
X3481Y10160*
X3250Y10160*
X3255Y10200*
X3341Y10427*
X3478Y10626*
X3660Y10786*
X3874Y10899*
X4030Y10937*
X4030Y10703*
X4430Y10703*
X4430Y10937*
X4586Y10899*
X4800Y10786*
X4982Y10626*
X5119Y10427*
X5205Y10200*
X5234Y9960*
X5205Y9720*
X5119Y9493*
X4982Y9294*
X4800Y9134*
X4586Y9021*
X4430Y8983*
X6970Y8983D02*
X6970Y9217D01*
X6570Y9217*
X6570Y8983*
X6414Y9021*
X6200Y9134*
X6018Y9294*
X5881Y9493*
X5795Y9720*
X5766Y9960*
X5795Y10200*
X5881Y10427*
X6018Y10626*
X6200Y10786*
X6414Y10899*
X6570Y10937*
X6570Y10703*
X6970Y10703*
X6970Y10937*
X7126Y10899*
X7340Y10786*
X7522Y10626*
X7659Y10427*
X7745Y10200*
X7750Y10160*
X7519Y10160*
X7519Y9760*
X7750Y9760*
X7745Y9720*
X7659Y9493*
X7522Y9294*
X7340Y9134*
X7126Y9021*
X6970Y8983*
X4430Y6443D02*
X4430Y6677D01*
X4030Y6677*
X4030Y6443*
X3874Y6481*
X3660Y6594*
X3478Y6754*
X3341Y6953*
X3255Y7180*
X3250Y7220*
X3481Y7220*
X3481Y7620*
X3250Y7620*
X3255Y7660*
X3341Y7887*
X3478Y8086*
X3660Y8246*
X3874Y8359*
X4030Y8397*
X4030Y8163*
X4430Y8163*
X4430Y8397*
X4586Y8359*
X4800Y8246*
X4982Y8086*
X5119Y7887*
X5205Y7660*
X5234Y7420*
X5205Y7180*
X5119Y6953*
X4982Y6754*
X4800Y6594*
X4586Y6481*
X4430Y6443*
X6970Y6443D02*
X6970Y6677D01*
X6570Y6677*
X6570Y6443*
X6414Y6481*
X6200Y6594*
X6018Y6754*
X5881Y6953*
X5795Y7180*
X5766Y7420*
X5795Y7660*
X5881Y7887*
X6018Y8086*
X6200Y8246*
X6414Y8359*
X6570Y8397*
X6570Y8163*
X6970Y8163*
X6970Y8397*
X7126Y8359*
X7340Y8246*
X7522Y8086*
X7659Y7887*
X7745Y7660*
X7750Y7620*
X7519Y7620*
X7519Y7220*
X7750Y7220*
X7745Y7180*
X7659Y6953*
X7522Y6754*
X7340Y6594*
X7126Y6481*
X6970Y6443*
X34000Y1196D02*
X33599Y1241D01*
X33217Y1374*
X32875Y1589*
X32589Y1875*
X32374Y2217*
X32241Y2599*
X32196Y3000*
X32241Y3401*
X32374Y3783*
X32589Y4125*
X32875Y4411*
X33217Y4626*
X33599Y4759*
X34000Y4804*
X34401Y4759*
X34783Y4626*
X35125Y4411*
X35411Y4125*
X35626Y3783*
X35759Y3401*
X35804Y3000*
X35759Y2599*
X35626Y2217*
X35411Y1875*
X35125Y1589*
X34783Y1374*
X34401Y1241*
X34000Y1196*
X3000Y1196D02*
X2599Y1241D01*
X2217Y1374*
X1875Y1589*
X1589Y1875*
X1374Y2217*
X1241Y2599*
X1196Y3000*
X1241Y3401*
X1374Y3783*
X1589Y4125*
X1875Y4411*
X2217Y4626*
X2599Y4759*
X3000Y4804*
X3401Y4759*
X3783Y4626*
X4125Y4411*
X4411Y4125*
X4626Y3783*
X4759Y3401*
X4804Y3000*
X4759Y2599*
X4626Y2217*
X4411Y1875*
X4125Y1589*
X3783Y1374*
X3401Y1241*
X3000Y1196*
X0500Y0550D02*
X36500Y0550D01*
X0500Y0599D02*
X36500Y0599D01*
X0500Y0649D02*
X36500Y0649D01*
X0500Y0698D02*
X36500Y0698D01*
X0500Y0748D02*
X36500Y0748D01*
X0500Y0797D02*
X36500Y0797D01*
X0500Y0847D02*
X36500Y0847D01*
X0500Y0896D02*
X36500Y0896D01*
X0500Y0946D02*
X36500Y0946D01*
X0500Y0995D02*
X36500Y0995D01*
X0500Y1045D02*
X36500Y1045D01*
X0500Y1094D02*
X36500Y1094D01*
X0500Y1144D02*
X36500Y1144D01*
X0500Y1193D02*
X36500Y1193D01*
X0500Y1243D02*
X2592Y1243D01*
X3408Y1243D02*
X33592Y1243D01*
X34408Y1243D02*
X36500Y1243D01*
X0500Y1292D02*
X2451Y1292D01*
X3549Y1292D02*
X33451Y1292D01*
X34549Y1292D02*
X36500Y1292D01*
X0500Y1342D02*
X2309Y1342D01*
X3691Y1342D02*
X33309Y1342D01*
X34691Y1342D02*
X36500Y1342D01*
X0500Y1392D02*
X2190Y1392D01*
X3810Y1392D02*
X33190Y1392D01*
X34810Y1392D02*
X36500Y1392D01*
X0500Y1441D02*
X2111Y1441D01*
X3889Y1441D02*
X33111Y1441D01*
X34889Y1441D02*
X36500Y1441D01*
X0500Y1491D02*
X2032Y1491D01*
X3968Y1491D02*
X33032Y1491D01*
X34968Y1491D02*
X36500Y1491D01*
X0500Y1540D02*
X1953Y1540D01*
X4047Y1540D02*
X32953Y1540D01*
X35047Y1540D02*
X36500Y1540D01*
X0500Y1590D02*
X1874Y1590D01*
X4126Y1590D02*
X32874Y1590D01*
X35126Y1590D02*
X36500Y1590D01*
X0500Y1639D02*
X1825Y1639D01*
X4175Y1639D02*
X32825Y1639D01*
X35175Y1639D02*
X36500Y1639D01*
X0500Y1689D02*
X1775Y1689D01*
X4225Y1689D02*
X32775Y1689D01*
X35225Y1689D02*
X36500Y1689D01*
X0500Y1738D02*
X1726Y1738D01*
X4274Y1738D02*
X32726Y1738D01*
X35274Y1738D02*
X36500Y1738D01*
X0500Y1788D02*
X1676Y1788D01*
X4324Y1788D02*
X32676Y1788D01*
X35324Y1788D02*
X36500Y1788D01*
X0500Y1837D02*
X1627Y1837D01*
X4373Y1837D02*
X24774Y1837D01*
X25026Y1837D02*
X32627Y1837D01*
X35373Y1837D02*
X36500Y1837D01*
X0500Y1887D02*
X1582Y1887D01*
X4418Y1887D02*
X12617Y1887D01*
X14532Y1887D02*
X19297Y1887D01*
X21553Y1887D02*
X24660Y1887D01*
X25140Y1887D02*
X32582Y1887D01*
X35418Y1887D02*
X36500Y1887D01*
X0500Y1936D02*
X1551Y1936D01*
X4449Y1936D02*
X12522Y1936D01*
X14628Y1936D02*
X19239Y1936D01*
X21611Y1936D02*
X24596Y1936D01*
X25204Y1936D02*
X32551Y1936D01*
X35449Y1936D02*
X36500Y1936D01*
X0500Y1986D02*
X1519Y1986D01*
X4481Y1986D02*
X12463Y1986D01*
X14687Y1986D02*
X19210Y1986D01*
X25253Y1986D02*
X32519Y1986D01*
X35481Y1986D02*
X36500Y1986D01*
X0500Y2035D02*
X1488Y2035D01*
X4512Y2035D02*
X12422Y2035D01*
X14727Y2035D02*
X19196Y2035D01*
X25288Y2035D02*
X32488Y2035D01*
X35512Y2035D02*
X36500Y2035D01*
X0500Y2085D02*
X1457Y2085D01*
X4543Y2085D02*
X12393Y2085D01*
X14756Y2085D02*
X19194Y2085D01*
X25315Y2085D02*
X32457Y2085D01*
X35543Y2085D02*
X36500Y2085D01*
X0500Y2134D02*
X1426Y2134D01*
X4574Y2134D02*
X12371Y2134D01*
X14779Y2134D02*
X19194Y2134D01*
X25333Y2134D02*
X32426Y2134D01*
X35574Y2134D02*
X36500Y2134D01*
X0500Y2184D02*
X1395Y2184D01*
X4605Y2184D02*
X12356Y2184D01*
X14794Y2184D02*
X19194Y2184D01*
X25347Y2184D02*
X32395Y2184D01*
X35605Y2184D02*
X36500Y2184D01*
X0500Y2234D02*
X1368Y2234D01*
X4632Y2234D02*
X12349Y2234D01*
X14801Y2234D02*
X19194Y2234D01*
X25353Y2234D02*
X32368Y2234D01*
X35632Y2234D02*
X36500Y2234D01*
X0500Y2283D02*
X1351Y2283D01*
X4649Y2283D02*
X12346Y2283D01*
X14804Y2283D02*
X19194Y2283D01*
X25357Y2283D02*
X32351Y2283D01*
X35649Y2283D02*
X36500Y2283D01*
X0500Y2333D02*
X1334Y2333D01*
X4666Y2333D02*
X12351Y2333D01*
X14799Y2333D02*
X19194Y2333D01*
X25351Y2333D02*
X32334Y2333D01*
X35666Y2333D02*
X36500Y2333D01*
X0500Y2382D02*
X1316Y2382D01*
X4684Y2382D02*
X12361Y2382D01*
X14789Y2382D02*
X19194Y2382D01*
X25345Y2382D02*
X32316Y2382D01*
X35684Y2382D02*
X36500Y2382D01*
X0500Y2432D02*
X1299Y2432D01*
X4701Y2432D02*
X12376Y2432D01*
X14774Y2432D02*
X19194Y2432D01*
X25327Y2432D02*
X32299Y2432D01*
X35701Y2432D02*
X36500Y2432D01*
X0500Y2481D02*
X1282Y2481D01*
X4718Y2481D02*
X12402Y2481D01*
X14748Y2481D02*
X19194Y2481D01*
X25309Y2481D02*
X32282Y2481D01*
X35718Y2481D02*
X36500Y2481D01*
X0500Y2531D02*
X1264Y2531D01*
X4736Y2531D02*
X12436Y2531D01*
X14714Y2531D02*
X19200Y2531D01*
X25276Y2531D02*
X32264Y2531D01*
X35736Y2531D02*
X36500Y2531D01*
X0500Y2580D02*
X1247Y2580D01*
X4753Y2580D02*
X12476Y2580D01*
X14673Y2580D02*
X19217Y2580D01*
X25242Y2580D02*
X32247Y2580D01*
X35753Y2580D02*
X36500Y2580D01*
X0500Y2630D02*
X1237Y2630D01*
X4763Y2630D02*
X12468Y2630D01*
X14682Y2630D02*
X19253Y2630D01*
X21597Y2630D02*
X24614Y2630D01*
X25186Y2630D02*
X32237Y2630D01*
X35763Y2630D02*
X36500Y2630D01*
X0500Y2679D02*
X1232Y2679D01*
X4768Y2679D02*
X12427Y2679D01*
X14722Y2679D02*
X19273Y2679D01*
X21577Y2679D02*
X24691Y2679D01*
X25109Y2679D02*
X32232Y2679D01*
X35768Y2679D02*
X36500Y2679D01*
X0500Y2729D02*
X1226Y2729D01*
X4774Y2729D02*
X12397Y2729D01*
X14753Y2729D02*
X19247Y2729D01*
X21603Y2729D02*
X24840Y2729D01*
X24960Y2729D02*
X32226Y2729D01*
X35774Y2729D02*
X36500Y2729D01*
X0500Y2778D02*
X1221Y2778D01*
X4779Y2778D02*
X12373Y2778D01*
X14777Y2778D02*
X19223Y2778D01*
X21627Y2778D02*
X32221Y2778D01*
X35779Y2778D02*
X36500Y2778D01*
X0500Y2828D02*
X1215Y2828D01*
X4785Y2828D02*
X12358Y2828D01*
X14792Y2828D02*
X19208Y2828D01*
X21642Y2828D02*
X32215Y2828D01*
X35785Y2828D02*
X36500Y2828D01*
X0500Y2877D02*
X1209Y2877D01*
X4791Y2877D02*
X12350Y2877D01*
X14800Y2877D02*
X19200Y2877D01*
X21650Y2877D02*
X32209Y2877D01*
X35791Y2877D02*
X36500Y2877D01*
X0500Y2927D02*
X1204Y2927D01*
X4796Y2927D02*
X12345Y2927D01*
X14805Y2927D02*
X19195Y2927D01*
X21655Y2927D02*
X32204Y2927D01*
X35796Y2927D02*
X36500Y2927D01*
X0500Y2977D02*
X1198Y2977D01*
X4802Y2977D02*
X12350Y2977D01*
X14800Y2977D02*
X19200Y2977D01*
X21650Y2977D02*
X32198Y2977D01*
X35802Y2977D02*
X36500Y2977D01*
X0500Y3026D02*
X1198Y3026D01*
X4802Y3026D02*
X12359Y3026D01*
X14791Y3026D02*
X19209Y3026D01*
X21641Y3026D02*
X32198Y3026D01*
X35802Y3026D02*
X36500Y3026D01*
X0500Y3076D02*
X1204Y3076D01*
X4796Y3076D02*
X12374Y3076D01*
X14776Y3076D02*
X19224Y3076D01*
X21626Y3076D02*
X32204Y3076D01*
X35796Y3076D02*
X36500Y3076D01*
X0500Y3125D02*
X1210Y3125D01*
X4790Y3125D02*
X12399Y3125D01*
X14751Y3125D02*
X19249Y3125D01*
X21601Y3125D02*
X22824Y3125D01*
X22976Y3125D02*
X32210Y3125D01*
X35790Y3125D02*
X36500Y3125D01*
X0500Y3175D02*
X1215Y3175D01*
X4785Y3175D02*
X12431Y3175D01*
X14719Y3175D02*
X19281Y3175D01*
X21569Y3175D02*
X22684Y3175D01*
X23116Y3175D02*
X32215Y3175D01*
X35785Y3175D02*
X36500Y3175D01*
X0500Y3224D02*
X1221Y3224D01*
X4779Y3224D02*
X12471Y3224D01*
X14678Y3224D02*
X19322Y3224D01*
X21564Y3224D02*
X22610Y3224D01*
X23190Y3224D02*
X32221Y3224D01*
X35779Y3224D02*
X36500Y3224D01*
X0500Y3274D02*
X1226Y3274D01*
X4774Y3274D02*
X12473Y3274D01*
X14677Y3274D02*
X19323Y3274D01*
X23245Y3274D02*
X32226Y3274D01*
X35774Y3274D02*
X36500Y3274D01*
X0500Y3323D02*
X1232Y3323D01*
X4768Y3323D02*
X12432Y3323D01*
X14717Y3323D02*
X19283Y3323D01*
X23279Y3323D02*
X32232Y3323D01*
X35768Y3323D02*
X36500Y3323D01*
X0500Y3373D02*
X1238Y3373D01*
X4762Y3373D02*
X12400Y3373D01*
X14750Y3373D02*
X19250Y3373D01*
X23310Y3373D02*
X32238Y3373D01*
X35762Y3373D02*
X36500Y3373D01*
X0500Y3422D02*
X1248Y3422D01*
X4752Y3422D02*
X12375Y3422D01*
X14775Y3422D02*
X19225Y3422D01*
X23329Y3422D02*
X32248Y3422D01*
X35752Y3422D02*
X36500Y3422D01*
X0500Y3472D02*
X1265Y3472D01*
X4735Y3472D02*
X12360Y3472D01*
X14790Y3472D02*
X19210Y3472D01*
X23346Y3472D02*
X32265Y3472D01*
X35735Y3472D02*
X36500Y3472D01*
X0500Y3521D02*
X1283Y3521D01*
X4717Y3521D02*
X12599Y3521D01*
X14551Y3521D02*
X19201Y3521D01*
X23352Y3521D02*
X32283Y3521D01*
X35717Y3521D02*
X36500Y3521D01*
X0500Y3571D02*
X1300Y3571D01*
X4700Y3571D02*
X12599Y3571D01*
X14551Y3571D02*
X19196Y3571D01*
X23358Y3571D02*
X32300Y3571D01*
X35700Y3571D02*
X36500Y3571D01*
X0500Y3620D02*
X1317Y3620D01*
X4683Y3620D02*
X12599Y3620D01*
X14551Y3620D02*
X19200Y3620D01*
X23353Y3620D02*
X32317Y3620D01*
X35683Y3620D02*
X36500Y3620D01*
X0500Y3670D02*
X1335Y3670D01*
X4665Y3670D02*
X12599Y3670D01*
X14551Y3670D02*
X19207Y3670D01*
X23347Y3670D02*
X32335Y3670D01*
X35665Y3670D02*
X36500Y3670D01*
X0500Y3719D02*
X1352Y3719D01*
X4648Y3719D02*
X12372Y3719D01*
X14777Y3719D02*
X19223Y3719D01*
X23332Y3719D02*
X32352Y3719D01*
X35648Y3719D02*
X36500Y3719D01*
X0500Y3769D02*
X1369Y3769D01*
X4631Y3769D02*
X12395Y3769D01*
X14754Y3769D02*
X19246Y3769D01*
X23313Y3769D02*
X32369Y3769D01*
X35631Y3769D02*
X36500Y3769D01*
X0500Y3819D02*
X1397Y3819D01*
X4603Y3819D02*
X12426Y3819D01*
X14724Y3819D02*
X18620Y3819D01*
X19030Y3819D02*
X19276Y3819D01*
X23285Y3819D02*
X32397Y3819D01*
X35603Y3819D02*
X36500Y3819D01*
X0500Y3868D02*
X1428Y3868D01*
X4572Y3868D02*
X12466Y3868D01*
X14683Y3868D02*
X18542Y3868D01*
X19108Y3868D02*
X19289Y3868D01*
X23251Y3868D02*
X32428Y3868D01*
X35572Y3868D02*
X36500Y3868D01*
X0500Y3918D02*
X1459Y3918D01*
X4541Y3918D02*
X12478Y3918D01*
X14672Y3918D02*
X18486Y3918D01*
X19164Y3918D02*
X19265Y3918D01*
X21568Y3918D02*
X22600Y3918D01*
X23200Y3918D02*
X32459Y3918D01*
X35541Y3918D02*
X36500Y3918D01*
X0500Y3967D02*
X1490Y3967D01*
X4510Y3967D02*
X12437Y3967D01*
X14712Y3967D02*
X18450Y3967D01*
X21563Y3967D02*
X22668Y3967D01*
X23132Y3967D02*
X32490Y3967D01*
X35510Y3967D02*
X36500Y3967D01*
X0500Y4017D02*
X1521Y4017D01*
X4479Y4017D02*
X12403Y4017D01*
X14747Y4017D02*
X18417Y4017D01*
X21597Y4017D02*
X22790Y4017D01*
X23010Y4017D02*
X32521Y4017D01*
X35479Y4017D02*
X36500Y4017D01*
X0500Y4066D02*
X1552Y4066D01*
X4448Y4066D02*
X12377Y4066D01*
X14773Y4066D02*
X18398Y4066D01*
X21623Y4066D02*
X32552Y4066D01*
X35448Y4066D02*
X36500Y4066D01*
X0500Y4116D02*
X1583Y4116D01*
X4417Y4116D02*
X12362Y4116D01*
X14788Y4116D02*
X18380Y4116D01*
X21638Y4116D02*
X32583Y4116D01*
X35417Y4116D02*
X36500Y4116D01*
X0500Y4165D02*
X1629Y4165D01*
X4371Y4165D02*
X12599Y4165D01*
X14799Y4165D02*
X18374Y4165D01*
X21649Y4165D02*
X32629Y4165D01*
X35371Y4165D02*
X36500Y4165D01*
X0500Y4215D02*
X1679Y4215D01*
X4321Y4215D02*
X12599Y4215D01*
X14804Y4215D02*
X18368Y4215D01*
X21654Y4215D02*
X32679Y4215D01*
X35321Y4215D02*
X36500Y4215D01*
X0500Y4264D02*
X1728Y4264D01*
X4272Y4264D02*
X12599Y4264D01*
X14801Y4264D02*
X18371Y4264D01*
X21651Y4264D02*
X32728Y4264D01*
X35272Y4264D02*
X36500Y4264D01*
X0500Y4314D02*
X1778Y4314D01*
X4222Y4314D02*
X12599Y4314D01*
X14794Y4314D02*
X18377Y4314D01*
X21645Y4314D02*
X32778Y4314D01*
X35222Y4314D02*
X36500Y4314D01*
X0500Y4363D02*
X1827Y4363D01*
X4172Y4363D02*
X12370Y4363D01*
X14779Y4363D02*
X18391Y4363D01*
X21630Y4363D02*
X32827Y4363D01*
X35172Y4363D02*
X36500Y4363D01*
X0500Y4413D02*
X1878Y4413D01*
X4122Y4413D02*
X12392Y4413D01*
X14758Y4413D02*
X18410Y4413D01*
X21608Y4413D02*
X32878Y4413D01*
X35122Y4413D02*
X36500Y4413D01*
X0500Y4462D02*
X1957Y4462D01*
X4043Y4462D02*
X12421Y4462D01*
X14729Y4462D02*
X18436Y4462D01*
X21579Y4462D02*
X23707Y4462D01*
X24093Y4462D02*
X32957Y4462D01*
X35043Y4462D02*
X36500Y4462D01*
X0500Y4512D02*
X2036Y4512D01*
X3964Y4512D02*
X12461Y4512D01*
X14688Y4512D02*
X18470Y4512D01*
X21559Y4512D02*
X23623Y4512D01*
X24176Y4512D02*
X33036Y4512D01*
X34964Y4512D02*
X36500Y4512D01*
X0500Y4561D02*
X2115Y4561D01*
X3885Y4561D02*
X12483Y4561D01*
X14667Y4561D02*
X18518Y4561D01*
X19132Y4561D02*
X19279Y4561D01*
X21582Y4561D02*
X23568Y4561D01*
X24232Y4561D02*
X33115Y4561D01*
X34885Y4561D02*
X36500Y4561D01*
X0500Y4611D02*
X2194Y4611D01*
X3806Y4611D02*
X12442Y4611D01*
X14707Y4611D02*
X18581Y4611D01*
X19069Y4611D02*
X19293Y4611D01*
X24271Y4611D02*
X33194Y4611D01*
X34806Y4611D02*
X36500Y4611D01*
X0500Y4661D02*
X2316Y4661D01*
X3684Y4661D02*
X12406Y4661D01*
X14743Y4661D02*
X18690Y4661D01*
X18960Y4661D02*
X19257Y4661D01*
X24305Y4661D02*
X33316Y4661D01*
X34684Y4661D02*
X36500Y4661D01*
X0500Y4710D02*
X2458Y4710D01*
X3542Y4710D02*
X12380Y4710D01*
X14770Y4710D02*
X19230Y4710D01*
X24324Y4710D02*
X33458Y4710D01*
X34542Y4710D02*
X36500Y4710D01*
X0500Y4760D02*
X2602Y4760D01*
X3398Y4760D02*
X12363Y4760D01*
X14786Y4760D02*
X19214Y4760D01*
X24343Y4760D02*
X33602Y4760D01*
X34398Y4760D02*
X36500Y4760D01*
X0500Y4809D02*
X12351Y4809D01*
X14798Y4809D02*
X19202Y4809D01*
X24350Y4809D02*
X36500Y4809D01*
X0500Y4859D02*
X12347Y4859D01*
X14803Y4859D02*
X19197Y4859D01*
X24356Y4859D02*
X36500Y4859D01*
X0500Y4908D02*
X12348Y4908D01*
X14801Y4908D02*
X19199Y4908D01*
X24354Y4908D02*
X36500Y4908D01*
X0500Y4958D02*
X12353Y4958D01*
X14796Y4958D02*
X19204Y4958D01*
X24348Y4958D02*
X36500Y4958D01*
X0500Y5007D02*
X12369Y5007D01*
X14781Y5007D02*
X19219Y5007D01*
X24337Y5007D02*
X36500Y5007D01*
X0500Y5057D02*
X12389Y5057D01*
X14761Y5057D02*
X19239Y5057D01*
X24318Y5057D02*
X36500Y5057D01*
X0500Y5106D02*
X12416Y5106D01*
X14734Y5106D02*
X19266Y5106D01*
X24293Y5106D02*
X36500Y5106D01*
X0500Y5156D02*
X12456Y5156D01*
X14693Y5156D02*
X19307Y5156D01*
X24259Y5156D02*
X26993Y5156D01*
X27467Y5156D02*
X29533Y5156D01*
X30007Y5156D02*
X36500Y5156D01*
X0500Y5205D02*
X12488Y5205D01*
X14662Y5205D02*
X19338Y5205D01*
X21574Y5205D02*
X23587Y5205D01*
X24213Y5205D02*
X26831Y5205D01*
X27629Y5205D02*
X29371Y5205D01*
X30169Y5205D02*
X36500Y5205D01*
X0500Y5255D02*
X12447Y5255D01*
X14702Y5255D02*
X19298Y5255D01*
X21553Y5255D02*
X23644Y5255D01*
X24156Y5255D02*
X26736Y5255D01*
X27724Y5255D02*
X29276Y5255D01*
X30264Y5255D02*
X36500Y5255D01*
X0500Y5304D02*
X12410Y5304D01*
X14740Y5304D02*
X19260Y5304D01*
X21590Y5304D02*
X23740Y5304D01*
X24060Y5304D02*
X26643Y5304D01*
X27817Y5304D02*
X29183Y5304D01*
X30357Y5304D02*
X36500Y5304D01*
X0500Y5354D02*
X12383Y5354D01*
X14767Y5354D02*
X19233Y5354D01*
X21617Y5354D02*
X26587Y5354D01*
X27873Y5354D02*
X29127Y5354D01*
X30413Y5354D02*
X36500Y5354D01*
X0500Y5403D02*
X12365Y5403D01*
X14784Y5403D02*
X19216Y5403D01*
X21635Y5403D02*
X26532Y5403D01*
X27928Y5403D02*
X29072Y5403D01*
X30468Y5403D02*
X36500Y5403D01*
X0500Y5453D02*
X12352Y5453D01*
X14798Y5453D02*
X19202Y5453D01*
X21648Y5453D02*
X26476Y5453D01*
X27984Y5453D02*
X29016Y5453D01*
X30524Y5453D02*
X36500Y5453D01*
X0500Y5503D02*
X12347Y5503D01*
X14803Y5503D02*
X19197Y5503D01*
X21653Y5503D02*
X26435Y5503D01*
X28025Y5503D02*
X28975Y5503D01*
X30565Y5503D02*
X36500Y5503D01*
X0500Y5552D02*
X12348Y5552D01*
X14802Y5552D02*
X19198Y5552D01*
X21652Y5552D02*
X26401Y5552D01*
X28059Y5552D02*
X28941Y5552D01*
X30599Y5552D02*
X36500Y5552D01*
X0500Y5602D02*
X12353Y5602D01*
X14797Y5602D02*
X19203Y5602D01*
X21647Y5602D02*
X22818Y5602D01*
X22982Y5602D02*
X26367Y5602D01*
X28093Y5602D02*
X28907Y5602D01*
X30633Y5602D02*
X36500Y5602D01*
X0500Y5651D02*
X12367Y5651D01*
X14783Y5651D02*
X19217Y5651D01*
X21633Y5651D02*
X22681Y5651D01*
X23119Y5651D02*
X26333Y5651D01*
X28127Y5651D02*
X28873Y5651D01*
X30667Y5651D02*
X36500Y5651D01*
X0500Y5701D02*
X12386Y5701D01*
X14764Y5701D02*
X19236Y5701D01*
X21614Y5701D02*
X22608Y5701D01*
X23192Y5701D02*
X26307Y5701D01*
X28153Y5701D02*
X28847Y5701D01*
X30693Y5701D02*
X36500Y5701D01*
X0500Y5750D02*
X12412Y5750D01*
X14738Y5750D02*
X19262Y5750D01*
X21588Y5750D02*
X22554Y5750D01*
X28171Y5750D02*
X28829Y5750D01*
X30711Y5750D02*
X36500Y5750D01*
X0500Y5800D02*
X12451Y5800D01*
X14698Y5800D02*
X19302Y5800D01*
X21549Y5800D02*
X22520Y5800D01*
X28190Y5800D02*
X28810Y5800D01*
X30730Y5800D02*
X36500Y5800D01*
X0500Y5849D02*
X12492Y5849D01*
X14658Y5849D02*
X19342Y5849D01*
X21508Y5849D02*
X22489Y5849D01*
X28209Y5849D02*
X28791Y5849D01*
X30749Y5849D02*
X36500Y5849D01*
X0500Y5899D02*
X12452Y5899D01*
X14697Y5899D02*
X19303Y5899D01*
X21548Y5899D02*
X22471Y5899D01*
X28228Y5899D02*
X28772Y5899D01*
X30768Y5899D02*
X36500Y5899D01*
X0500Y5948D02*
X12413Y5948D01*
X14737Y5948D02*
X19263Y5948D01*
X21587Y5948D02*
X22454Y5948D01*
X28235Y5948D02*
X28765Y5948D01*
X30775Y5948D02*
X36500Y5948D01*
X0500Y5998D02*
X12386Y5998D01*
X14763Y5998D02*
X19237Y5998D01*
X21614Y5998D02*
X22448Y5998D01*
X28241Y5998D02*
X28759Y5998D01*
X30781Y5998D02*
X36500Y5998D01*
X0500Y6047D02*
X12367Y6047D01*
X14783Y6047D02*
X19217Y6047D01*
X21633Y6047D02*
X22442Y6047D01*
X28247Y6047D02*
X28753Y6047D01*
X30787Y6047D02*
X36500Y6047D01*
X0500Y6097D02*
X12353Y6097D01*
X14797Y6097D02*
X19449Y6097D01*
X21401Y6097D02*
X22447Y6097D01*
X28253Y6097D02*
X28747Y6097D01*
X30793Y6097D02*
X36500Y6097D01*
X0500Y6146D02*
X12348Y6146D01*
X14802Y6146D02*
X19449Y6146D01*
X21401Y6146D02*
X22453Y6146D01*
X28259Y6146D02*
X28741Y6146D01*
X30799Y6146D02*
X36500Y6146D01*
X0500Y6196D02*
X12347Y6196D01*
X14803Y6196D02*
X19449Y6196D01*
X21401Y6196D02*
X22469Y6196D01*
X28254Y6196D02*
X28746Y6196D01*
X30794Y6196D02*
X36500Y6196D01*
X0500Y6245D02*
X12352Y6245D01*
X14798Y6245D02*
X19449Y6245D01*
X21401Y6245D02*
X22487Y6245D01*
X28248Y6245D02*
X28752Y6245D01*
X30788Y6245D02*
X36500Y6245D01*
X0500Y6295D02*
X12365Y6295D01*
X14785Y6295D02*
X19215Y6295D01*
X21635Y6295D02*
X22516Y6295D01*
X28242Y6295D02*
X28758Y6295D01*
X30782Y6295D02*
X36500Y6295D01*
X0500Y6345D02*
X12382Y6345D01*
X14767Y6345D02*
X19233Y6345D01*
X21618Y6345D02*
X22550Y6345D01*
X28236Y6345D02*
X28764Y6345D01*
X30776Y6345D02*
X36500Y6345D01*
X0500Y6394D02*
X12409Y6394D01*
X14741Y6394D02*
X19259Y6394D01*
X21591Y6394D02*
X22602Y6394D01*
X23198Y6394D02*
X26230Y6394D01*
X28230Y6394D02*
X28770Y6394D01*
X30770Y6394D02*
X36500Y6394D01*
X0500Y6444D02*
X4025Y6444D01*
X4030Y6444D02*
X4430Y6444D01*
X4435Y6444D02*
X6565Y6444D01*
X6570Y6444D02*
X6970Y6444D01*
X6975Y6444D02*
X12446Y6444D01*
X14704Y6444D02*
X19296Y6444D01*
X21554Y6444D02*
X22671Y6444D01*
X23129Y6444D02*
X26248Y6444D01*
X28212Y6444D02*
X28788Y6444D01*
X30752Y6444D02*
X36500Y6444D01*
X0500Y6493D02*
X3850Y6493D01*
X4030Y6493D02*
X4430Y6493D01*
X4610Y6493D02*
X6390Y6493D01*
X6570Y6493D02*
X6970Y6493D01*
X7150Y6493D02*
X12487Y6493D01*
X14663Y6493D02*
X19337Y6493D01*
X21513Y6493D02*
X22796Y6493D01*
X23004Y6493D02*
X26267Y6493D01*
X28193Y6493D02*
X28804Y6493D01*
X30733Y6493D02*
X36500Y6493D01*
X0500Y6543D02*
X3756Y6543D01*
X4030Y6543D02*
X4430Y6543D01*
X4704Y6543D02*
X6296Y6543D01*
X6570Y6543D02*
X6970Y6543D01*
X7244Y6543D02*
X12457Y6543D01*
X14692Y6543D02*
X19308Y6543D01*
X21543Y6543D02*
X26286Y6543D01*
X28174Y6543D02*
X28755Y6543D01*
X30714Y6543D02*
X36500Y6543D01*
X0500Y6592D02*
X3662Y6592D01*
X4030Y6592D02*
X4430Y6592D01*
X4798Y6592D02*
X6202Y6592D01*
X6570Y6592D02*
X6970Y6592D01*
X7338Y6592D02*
X12417Y6592D01*
X14733Y6592D02*
X19267Y6592D01*
X21583Y6592D02*
X26305Y6592D01*
X28155Y6592D02*
X28705Y6592D01*
X30695Y6592D02*
X36500Y6592D01*
X0500Y6642D02*
X3605Y6642D01*
X4030Y6642D02*
X4430Y6642D01*
X4855Y6642D02*
X6145Y6642D01*
X6570Y6642D02*
X6970Y6642D01*
X7395Y6642D02*
X12390Y6642D01*
X14760Y6642D02*
X19240Y6642D01*
X21610Y6642D02*
X26328Y6642D01*
X28132Y6642D02*
X28655Y6642D01*
X30672Y6642D02*
X36500Y6642D01*
X0500Y6691D02*
X3549Y6691D01*
X4911Y6691D02*
X6089Y6691D01*
X7451Y6691D02*
X12369Y6691D01*
X14781Y6691D02*
X19219Y6691D01*
X21631Y6691D02*
X26362Y6691D01*
X28098Y6691D02*
X28606Y6691D01*
X30638Y6691D02*
X36500Y6691D01*
X0500Y6741D02*
X3493Y6741D01*
X4967Y6741D02*
X6033Y6741D01*
X7507Y6741D02*
X12599Y6741D01*
X14551Y6741D02*
X19204Y6741D01*
X21646Y6741D02*
X26396Y6741D01*
X28064Y6741D02*
X28556Y6741D01*
X30604Y6741D02*
X36500Y6741D01*
X0500Y6790D02*
X3453Y6790D01*
X5007Y6790D02*
X5993Y6790D01*
X7547Y6790D02*
X12599Y6790D01*
X14551Y6790D02*
X19199Y6790D01*
X21652Y6790D02*
X26430Y6790D01*
X28030Y6790D02*
X28507Y6790D01*
X30570Y6790D02*
X36500Y6790D01*
X0500Y6840D02*
X3419Y6840D01*
X5041Y6840D02*
X5959Y6840D01*
X7581Y6840D02*
X12599Y6840D01*
X14551Y6840D02*
X19197Y6840D01*
X21654Y6840D02*
X23228Y6840D01*
X23572Y6840D02*
X26468Y6840D01*
X27992Y6840D02*
X28457Y6840D01*
X30532Y6840D02*
X36500Y6840D01*
X0500Y6889D02*
X3385Y6889D01*
X5075Y6889D02*
X5925Y6889D01*
X7615Y6889D02*
X12599Y6889D01*
X14551Y6889D02*
X19202Y6889D01*
X21649Y6889D02*
X23136Y6889D01*
X23664Y6889D02*
X26503Y6889D01*
X27957Y6889D02*
X28408Y6889D01*
X30477Y6889D02*
X36500Y6889D01*
X0500Y6939D02*
X3350Y6939D01*
X5110Y6939D02*
X5890Y6939D01*
X7650Y6939D02*
X12363Y6939D01*
X14787Y6939D02*
X19213Y6939D01*
X21637Y6939D02*
X23080Y6939D01*
X23720Y6939D02*
X26484Y6939D01*
X27976Y6939D02*
X28358Y6939D01*
X30421Y6939D02*
X36500Y6939D01*
X0500Y6988D02*
X3327Y6988D01*
X5133Y6988D02*
X5867Y6988D01*
X7673Y6988D02*
X12379Y6988D01*
X14771Y6988D02*
X19229Y6988D01*
X21621Y6988D02*
X23037Y6988D01*
X30365Y6988D02*
X36500Y6988D01*
X0500Y7038D02*
X3308Y7038D01*
X5152Y7038D02*
X5848Y7038D01*
X7692Y7038D02*
X12406Y7038D01*
X14744Y7038D02*
X15196Y7038D01*
X15454Y7038D02*
X19256Y7038D01*
X21594Y7038D02*
X23003Y7038D01*
X29125Y7038D02*
X29263Y7038D01*
X30277Y7038D02*
X36500Y7038D01*
X0500Y7087D02*
X3290Y7087D01*
X5170Y7087D02*
X5830Y7087D01*
X7710Y7087D02*
X12441Y7087D01*
X14709Y7087D02*
X15084Y7087D01*
X15566Y7087D02*
X19291Y7087D01*
X21559Y7087D02*
X22980Y7087D01*
X29075Y7087D02*
X29357Y7087D01*
X30183Y7087D02*
X36500Y7087D01*
X0500Y7137D02*
X3271Y7137D01*
X5189Y7137D02*
X5811Y7137D01*
X7729Y7137D02*
X12482Y7137D01*
X14720Y7137D02*
X15020Y7137D01*
X15630Y7137D02*
X19332Y7137D01*
X21518Y7137D02*
X22961Y7137D01*
X29026Y7137D02*
X29504Y7137D01*
X30036Y7137D02*
X36500Y7137D01*
X0500Y7187D02*
X3254Y7187D01*
X5206Y7187D02*
X5794Y7187D01*
X7746Y7187D02*
X12462Y7187D01*
X15679Y7187D02*
X19313Y7187D01*
X21538Y7187D02*
X22951Y7187D01*
X28976Y7187D02*
X36500Y7187D01*
X0500Y7236D02*
X3481Y7236D01*
X5212Y7236D02*
X5788Y7236D01*
X7519Y7236D02*
X12422Y7236D01*
X15713Y7236D02*
X19272Y7236D01*
X21578Y7236D02*
X22945Y7236D01*
X28927Y7236D02*
X36500Y7236D01*
X0500Y7286D02*
X3481Y7286D01*
X5218Y7286D02*
X5782Y7286D01*
X7519Y7286D02*
X12393Y7286D01*
X15740Y7286D02*
X19243Y7286D01*
X21607Y7286D02*
X22944Y7286D01*
X28877Y7286D02*
X36500Y7286D01*
X0500Y7335D02*
X3481Y7335D01*
X5224Y7335D02*
X5776Y7335D01*
X7519Y7335D02*
X12371Y7335D01*
X15759Y7335D02*
X19221Y7335D01*
X21629Y7335D02*
X22950Y7335D01*
X28828Y7335D02*
X36500Y7335D01*
X0500Y7385D02*
X3481Y7385D01*
X5230Y7385D02*
X5770Y7385D01*
X7519Y7385D02*
X12356Y7385D01*
X15772Y7385D02*
X19206Y7385D01*
X21644Y7385D02*
X22959Y7385D01*
X28781Y7385D02*
X36500Y7385D01*
X0500Y7434D02*
X3481Y7434D01*
X5233Y7434D02*
X5767Y7434D01*
X7519Y7434D02*
X12349Y7434D01*
X15779Y7434D02*
X19199Y7434D01*
X21651Y7434D02*
X22978Y7434D01*
X28754Y7434D02*
X36500Y7434D01*
X0500Y7484D02*
X3481Y7484D01*
X5227Y7484D02*
X5773Y7484D01*
X7519Y7484D02*
X12346Y7484D01*
X15782Y7484D02*
X19196Y7484D01*
X21654Y7484D02*
X22999Y7484D01*
X28712Y7484D02*
X36500Y7484D01*
X0500Y7533D02*
X3481Y7533D01*
X5221Y7533D02*
X5779Y7533D01*
X7519Y7533D02*
X12351Y7533D01*
X15776Y7533D02*
X19201Y7533D01*
X21649Y7533D02*
X23033Y7533D01*
X28642Y7533D02*
X36500Y7533D01*
X0500Y7583D02*
X3481Y7583D01*
X5215Y7583D02*
X5785Y7583D01*
X7519Y7583D02*
X12361Y7583D01*
X15770Y7583D02*
X19211Y7583D01*
X21639Y7583D02*
X23074Y7583D01*
X23726Y7583D02*
X27042Y7583D01*
X27418Y7583D02*
X36500Y7583D01*
X0500Y7632D02*
X3251Y7632D01*
X5209Y7632D02*
X5791Y7632D01*
X7749Y7632D02*
X12376Y7632D01*
X15752Y7632D02*
X19226Y7632D01*
X21624Y7632D02*
X23130Y7632D01*
X23670Y7632D02*
X27048Y7632D01*
X27412Y7632D02*
X36500Y7632D01*
X0500Y7682D02*
X3263Y7682D01*
X5197Y7682D02*
X5803Y7682D01*
X7737Y7682D02*
X12402Y7682D01*
X15733Y7682D02*
X19253Y7682D01*
X21598Y7682D02*
X23217Y7682D01*
X23583Y7682D02*
X27050Y7682D01*
X27410Y7682D02*
X29590Y7682D01*
X29950Y7682D02*
X36500Y7682D01*
X0500Y7731D02*
X3282Y7731D01*
X5178Y7731D02*
X5822Y7731D01*
X7718Y7731D02*
X12436Y7731D01*
X15701Y7731D02*
X19286Y7731D01*
X21564Y7731D02*
X26857Y7731D01*
X27603Y7731D02*
X29397Y7731D01*
X30143Y7731D02*
X36500Y7731D01*
X0500Y7781D02*
X3300Y7781D01*
X5160Y7781D02*
X5840Y7781D01*
X7700Y7781D02*
X12477Y7781D01*
X15666Y7781D02*
X19327Y7781D01*
X21523Y7781D02*
X26763Y7781D01*
X27697Y7781D02*
X29303Y7781D01*
X30237Y7781D02*
X36500Y7781D01*
X0500Y7830D02*
X3319Y7830D01*
X5141Y7830D02*
X5859Y7830D01*
X7681Y7830D02*
X12468Y7830D01*
X14712Y7830D02*
X15040Y7830D01*
X15610Y7830D02*
X19318Y7830D01*
X21532Y7830D02*
X26669Y7830D01*
X27791Y7830D02*
X29209Y7830D01*
X30331Y7830D02*
X36500Y7830D01*
X0500Y7880D02*
X3338Y7880D01*
X5122Y7880D02*
X5878Y7880D01*
X7662Y7880D02*
X12427Y7880D01*
X14723Y7880D02*
X15117Y7880D01*
X15533Y7880D02*
X19277Y7880D01*
X21573Y7880D02*
X26603Y7880D01*
X27857Y7880D02*
X29143Y7880D01*
X30397Y7880D02*
X36500Y7880D01*
X0500Y7929D02*
X3370Y7929D01*
X5090Y7929D02*
X5910Y7929D01*
X7630Y7929D02*
X12396Y7929D01*
X14754Y7929D02*
X15267Y7929D01*
X15383Y7929D02*
X19246Y7929D01*
X21604Y7929D02*
X26547Y7929D01*
X27913Y7929D02*
X29087Y7929D01*
X30453Y7929D02*
X36500Y7929D01*
X0500Y7979D02*
X3404Y7979D01*
X5056Y7979D02*
X5944Y7979D01*
X7596Y7979D02*
X12373Y7979D01*
X14777Y7979D02*
X19223Y7979D01*
X21627Y7979D02*
X26491Y7979D01*
X27969Y7979D02*
X29031Y7979D01*
X30509Y7979D02*
X36500Y7979D01*
X0500Y8029D02*
X3438Y8029D01*
X5022Y8029D02*
X5978Y8029D01*
X7562Y8029D02*
X12358Y8029D01*
X14792Y8029D02*
X19208Y8029D01*
X21642Y8029D02*
X26445Y8029D01*
X28015Y8029D02*
X28985Y8029D01*
X30555Y8029D02*
X36500Y8029D01*
X0500Y8078D02*
X3473Y8078D01*
X4987Y8078D02*
X6013Y8078D01*
X7527Y8078D02*
X12350Y8078D01*
X14800Y8078D02*
X19200Y8078D01*
X21650Y8078D02*
X26411Y8078D01*
X28049Y8078D02*
X28951Y8078D01*
X30589Y8078D02*
X36500Y8078D01*
X0500Y8128D02*
X3525Y8128D01*
X4935Y8128D02*
X6065Y8128D01*
X7475Y8128D02*
X12345Y8128D01*
X14804Y8128D02*
X19196Y8128D01*
X21655Y8128D02*
X26376Y8128D01*
X28084Y8128D02*
X28916Y8128D01*
X30624Y8128D02*
X36500Y8128D01*
X0500Y8177D02*
X3581Y8177D01*
X4030Y8177D02*
X4430Y8177D01*
X4879Y8177D02*
X6121Y8177D01*
X6570Y8177D02*
X6970Y8177D01*
X7419Y8177D02*
X12350Y8177D01*
X14800Y8177D02*
X19200Y8177D01*
X21650Y8177D02*
X26342Y8177D01*
X28118Y8177D02*
X28882Y8177D01*
X30658Y8177D02*
X36500Y8177D01*
X0500Y8227D02*
X3637Y8227D01*
X4030Y8227D02*
X4430Y8227D01*
X4823Y8227D02*
X6177Y8227D01*
X6570Y8227D02*
X6970Y8227D01*
X7363Y8227D02*
X12359Y8227D01*
X14790Y8227D02*
X19210Y8227D01*
X21641Y8227D02*
X26313Y8227D01*
X28147Y8227D02*
X28853Y8227D01*
X30687Y8227D02*
X36500Y8227D01*
X0500Y8276D02*
X3716Y8276D01*
X4030Y8276D02*
X4430Y8276D01*
X4744Y8276D02*
X6256Y8276D01*
X6570Y8276D02*
X6970Y8276D01*
X7284Y8276D02*
X12374Y8276D01*
X14775Y8276D02*
X19225Y8276D01*
X21626Y8276D02*
X23709Y8276D01*
X24091Y8276D02*
X26294Y8276D01*
X28166Y8276D02*
X28834Y8276D01*
X30706Y8276D02*
X36500Y8276D01*
X0500Y8326D02*
X3810Y8326D01*
X4030Y8326D02*
X4430Y8326D01*
X4650Y8326D02*
X6350Y8326D01*
X6570Y8326D02*
X6970Y8326D01*
X7190Y8326D02*
X12399Y8326D01*
X14751Y8326D02*
X19249Y8326D01*
X21601Y8326D02*
X22096Y8326D01*
X22254Y8326D02*
X23625Y8326D01*
X24175Y8326D02*
X26275Y8326D01*
X28185Y8326D02*
X28815Y8326D01*
X30725Y8326D02*
X36500Y8326D01*
X0500Y8375D02*
X3939Y8375D01*
X4030Y8375D02*
X4430Y8375D01*
X4521Y8375D02*
X6479Y8375D01*
X6570Y8375D02*
X6970Y8375D01*
X7061Y8375D02*
X12431Y8375D01*
X14719Y8375D02*
X19281Y8375D01*
X21569Y8375D02*
X21957Y8375D01*
X22393Y8375D02*
X23569Y8375D01*
X24231Y8375D02*
X26256Y8375D01*
X28204Y8375D02*
X28796Y8375D01*
X30744Y8375D02*
X36500Y8375D01*
X0500Y8425D02*
X12472Y8425D01*
X14678Y8425D02*
X19322Y8425D01*
X21565Y8425D02*
X21884Y8425D01*
X22466Y8425D02*
X23530Y8425D01*
X28222Y8425D02*
X28778Y8425D01*
X30762Y8425D02*
X36500Y8425D01*
X0500Y8474D02*
X12473Y8474D01*
X14677Y8474D02*
X19323Y8474D01*
X22520Y8474D02*
X23496Y8474D01*
X28233Y8474D02*
X28767Y8474D01*
X30773Y8474D02*
X36500Y8474D01*
X0500Y8524D02*
X12432Y8524D01*
X14718Y8524D02*
X19282Y8524D01*
X22555Y8524D02*
X23476Y8524D01*
X28239Y8524D02*
X28761Y8524D01*
X30779Y8524D02*
X36500Y8524D01*
X0500Y8573D02*
X12399Y8573D01*
X14750Y8573D02*
X19250Y8573D01*
X22585Y8573D02*
X23457Y8573D01*
X28245Y8573D02*
X28755Y8573D01*
X30785Y8573D02*
X36500Y8573D01*
X0500Y8623D02*
X12375Y8623D01*
X14775Y8623D02*
X19225Y8623D01*
X22604Y8623D02*
X23450Y8623D01*
X28251Y8623D02*
X28749Y8623D01*
X30791Y8623D02*
X36500Y8623D01*
X0500Y8672D02*
X12360Y8672D01*
X14790Y8672D02*
X19210Y8672D01*
X22621Y8672D02*
X23444Y8672D01*
X28257Y8672D02*
X28743Y8672D01*
X30797Y8672D02*
X36500Y8672D01*
X0500Y8722D02*
X12599Y8722D01*
X14551Y8722D02*
X19200Y8722D01*
X22627Y8722D02*
X23445Y8722D01*
X28256Y8722D02*
X28744Y8722D01*
X30796Y8722D02*
X36500Y8722D01*
X0500Y8772D02*
X12599Y8772D01*
X14551Y8772D02*
X19196Y8772D01*
X22633Y8772D02*
X23451Y8772D01*
X28250Y8772D02*
X28750Y8772D01*
X30790Y8772D02*
X36500Y8772D01*
X0500Y8821D02*
X12599Y8821D01*
X14551Y8821D02*
X19200Y8821D01*
X22628Y8821D02*
X23463Y8821D01*
X28244Y8821D02*
X28756Y8821D01*
X30784Y8821D02*
X36500Y8821D01*
X0500Y8871D02*
X12599Y8871D01*
X14551Y8871D02*
X19208Y8871D01*
X22622Y8871D02*
X23482Y8871D01*
X28238Y8871D02*
X28762Y8871D01*
X30778Y8871D02*
X36500Y8871D01*
X0500Y8920D02*
X12372Y8920D01*
X14777Y8920D02*
X19223Y8920D01*
X22607Y8920D02*
X23506Y8920D01*
X28232Y8920D02*
X28768Y8920D01*
X30772Y8920D02*
X36500Y8920D01*
X0500Y8970D02*
X12396Y8970D01*
X14754Y8970D02*
X19246Y8970D01*
X22588Y8970D02*
X23540Y8970D01*
X28217Y8970D02*
X28783Y8970D01*
X30757Y8970D02*
X36500Y8970D01*
X0500Y9019D02*
X3881Y9019D01*
X4030Y9019D02*
X4430Y9019D01*
X4579Y9019D02*
X6421Y9019D01*
X6570Y9019D02*
X6970Y9019D01*
X7119Y9019D02*
X12426Y9019D01*
X14724Y9019D02*
X16794Y9019D01*
X17206Y9019D02*
X19276Y9019D01*
X22559Y9019D02*
X23585Y9019D01*
X24215Y9019D02*
X26262Y9019D01*
X28198Y9019D02*
X28802Y9019D01*
X30738Y9019D02*
X36500Y9019D01*
X0500Y9069D02*
X3783Y9069D01*
X4030Y9069D02*
X4430Y9069D01*
X4677Y9069D02*
X6323Y9069D01*
X6570Y9069D02*
X6970Y9069D01*
X7217Y9069D02*
X12467Y9069D01*
X14712Y9069D02*
X16716Y9069D01*
X17284Y9069D02*
X19317Y9069D01*
X22525Y9069D02*
X23642Y9069D01*
X24158Y9069D02*
X26281Y9069D01*
X28179Y9069D02*
X28821Y9069D01*
X30719Y9069D02*
X36500Y9069D01*
X0500Y9118D02*
X3688Y9118D01*
X4030Y9118D02*
X4430Y9118D01*
X4772Y9118D02*
X6228Y9118D01*
X6570Y9118D02*
X6970Y9118D01*
X7312Y9118D02*
X12478Y9118D01*
X14735Y9118D02*
X16660Y9118D01*
X17340Y9118D02*
X19328Y9118D01*
X21568Y9118D02*
X21876Y9118D01*
X22474Y9118D02*
X23737Y9118D01*
X24063Y9118D02*
X26299Y9118D01*
X28161Y9118D02*
X28839Y9118D01*
X30701Y9118D02*
X36500Y9118D01*
X0500Y9168D02*
X3621Y9168D01*
X4030Y9168D02*
X4430Y9168D01*
X4839Y9168D02*
X6161Y9168D01*
X6570Y9168D02*
X6970Y9168D01*
X7379Y9168D02*
X12437Y9168D01*
X17375Y9168D02*
X19287Y9168D01*
X21563Y9168D02*
X21944Y9168D01*
X22406Y9168D02*
X26318Y9168D01*
X28142Y9168D02*
X28858Y9168D01*
X30682Y9168D02*
X36500Y9168D01*
X0500Y9217D02*
X3565Y9217D01*
X4895Y9217D02*
X6105Y9217D01*
X7435Y9217D02*
X12403Y9217D01*
X17408Y9217D02*
X19253Y9217D01*
X21597Y9217D02*
X22068Y9217D01*
X22282Y9217D02*
X26352Y9217D01*
X28108Y9217D02*
X28891Y9217D01*
X30648Y9217D02*
X36500Y9217D01*
X0500Y9267D02*
X3509Y9267D01*
X4951Y9267D02*
X6049Y9267D01*
X7491Y9267D02*
X12376Y9267D01*
X17427Y9267D02*
X19227Y9267D01*
X21624Y9267D02*
X26386Y9267D01*
X28074Y9267D02*
X28842Y9267D01*
X30614Y9267D02*
X36500Y9267D01*
X0500Y9316D02*
X3463Y9316D01*
X4997Y9316D02*
X6003Y9316D01*
X7537Y9316D02*
X12361Y9316D01*
X17445Y9316D02*
X19212Y9316D01*
X21639Y9316D02*
X26421Y9316D01*
X28039Y9316D02*
X28792Y9316D01*
X30579Y9316D02*
X36500Y9316D01*
X0500Y9366D02*
X3428Y9366D01*
X5032Y9366D02*
X5968Y9366D01*
X7572Y9366D02*
X12351Y9366D01*
X17451Y9366D02*
X19201Y9366D01*
X21649Y9366D02*
X26455Y9366D01*
X28005Y9366D02*
X28743Y9366D01*
X30545Y9366D02*
X36500Y9366D01*
X0500Y9415D02*
X3394Y9415D01*
X5066Y9415D02*
X5934Y9415D01*
X7606Y9415D02*
X12346Y9415D01*
X17457Y9415D02*
X19196Y9415D01*
X21654Y9415D02*
X26508Y9415D01*
X27952Y9415D02*
X28693Y9415D01*
X30492Y9415D02*
X36500Y9415D01*
X0500Y9465D02*
X3360Y9465D01*
X5100Y9465D02*
X5900Y9465D01*
X7640Y9465D02*
X12349Y9465D01*
X17454Y9465D02*
X19199Y9465D01*
X21651Y9465D02*
X26564Y9465D01*
X27896Y9465D02*
X28644Y9465D01*
X30436Y9465D02*
X36500Y9465D01*
X0500Y9514D02*
X3333Y9514D01*
X5127Y9514D02*
X5873Y9514D01*
X7667Y9514D02*
X12356Y9514D01*
X17448Y9514D02*
X19206Y9514D01*
X21644Y9514D02*
X26620Y9514D01*
X27840Y9514D02*
X28594Y9514D01*
X30380Y9514D02*
X36500Y9514D01*
X0500Y9564D02*
X3314Y9564D01*
X5146Y9564D02*
X5854Y9564D01*
X7686Y9564D02*
X12371Y9564D01*
X17434Y9564D02*
X19221Y9564D01*
X21629Y9564D02*
X26696Y9564D01*
X27764Y9564D02*
X28545Y9564D01*
X30304Y9564D02*
X36500Y9564D01*
X0500Y9614D02*
X3295Y9614D01*
X5165Y9614D02*
X5835Y9614D01*
X7705Y9614D02*
X12392Y9614D01*
X17415Y9614D02*
X19243Y9614D01*
X21608Y9614D02*
X26791Y9614D01*
X27669Y9614D02*
X28495Y9614D01*
X30209Y9614D02*
X36500Y9614D01*
X0500Y9663D02*
X3276Y9663D01*
X5184Y9663D02*
X5816Y9663D01*
X7724Y9663D02*
X11131Y9663D01*
X11519Y9663D02*
X12421Y9663D01*
X17389Y9663D02*
X19271Y9663D01*
X21579Y9663D02*
X24206Y9663D01*
X24594Y9663D02*
X26885Y9663D01*
X27575Y9663D02*
X28445Y9663D01*
X29311Y9663D02*
X29448Y9663D01*
X30092Y9663D02*
X36500Y9663D01*
X0500Y9713D02*
X3257Y9713D01*
X5203Y9713D02*
X5797Y9713D01*
X7743Y9713D02*
X11048Y9713D01*
X11602Y9713D02*
X12441Y9713D01*
X17355Y9713D02*
X19312Y9713D01*
X21538Y9713D02*
X24123Y9713D01*
X24677Y9713D02*
X26894Y9713D01*
X27566Y9713D02*
X28396Y9713D01*
X29262Y9713D02*
X36500Y9713D01*
X0500Y9762D02*
X3481Y9762D01*
X5210Y9762D02*
X5790Y9762D01*
X7519Y9762D02*
X10992Y9762D01*
X11658Y9762D02*
X12418Y9762D01*
X14721Y9762D02*
X16694Y9762D01*
X17306Y9762D02*
X19333Y9762D01*
X21517Y9762D02*
X24067Y9762D01*
X24733Y9762D02*
X26881Y9762D01*
X27579Y9762D02*
X28346Y9762D01*
X29212Y9762D02*
X36500Y9762D01*
X0500Y9812D02*
X3481Y9812D01*
X5216Y9812D02*
X5784Y9812D01*
X7519Y9812D02*
X10954Y9812D01*
X14708Y9812D02*
X16757Y9812D01*
X17243Y9812D02*
X19292Y9812D01*
X21558Y9812D02*
X24029Y9812D01*
X29163Y9812D02*
X36500Y9812D01*
X0500Y9861D02*
X3481Y9861D01*
X5222Y9861D02*
X5778Y9861D01*
X7519Y9861D02*
X10920Y9861D01*
X14744Y9861D02*
X16868Y9861D01*
X17132Y9861D02*
X19256Y9861D01*
X21594Y9861D02*
X23995Y9861D01*
X29113Y9861D02*
X36500Y9861D01*
X0500Y9911D02*
X3481Y9911D01*
X5228Y9911D02*
X5772Y9911D01*
X7519Y9911D02*
X10901Y9911D01*
X14770Y9911D02*
X19230Y9911D01*
X21620Y9911D02*
X23976Y9911D01*
X29063Y9911D02*
X36500Y9911D01*
X0500Y9960D02*
X3481Y9960D01*
X5234Y9960D02*
X5766Y9960D01*
X7519Y9960D02*
X10882Y9960D01*
X14786Y9960D02*
X19214Y9960D01*
X21637Y9960D02*
X23957Y9960D01*
X29014Y9960D02*
X36500Y9960D01*
X0500Y10010D02*
X3481Y10010D01*
X5228Y10010D02*
X5772Y10010D01*
X7519Y10010D02*
X10874Y10010D01*
X14798Y10010D02*
X19202Y10010D01*
X21649Y10010D02*
X23949Y10010D01*
X28964Y10010D02*
X36500Y10010D01*
X0500Y10059D02*
X3481Y10059D01*
X5222Y10059D02*
X5778Y10059D01*
X7519Y10059D02*
X10868Y10059D01*
X14803Y10059D02*
X19197Y10059D01*
X21653Y10059D02*
X23943Y10059D01*
X28915Y10059D02*
X36500Y10059D01*
X0500Y10109D02*
X3481Y10109D01*
X5216Y10109D02*
X5784Y10109D01*
X7519Y10109D02*
X10871Y10109D01*
X14801Y10109D02*
X19199Y10109D01*
X21652Y10109D02*
X23946Y10109D01*
X28865Y10109D02*
X36500Y10109D01*
X0500Y10158D02*
X3481Y10158D01*
X5210Y10158D02*
X5790Y10158D01*
X7519Y10158D02*
X10877Y10158D01*
X14796Y10158D02*
X19204Y10158D01*
X21646Y10158D02*
X23952Y10158D01*
X28816Y10158D02*
X36500Y10158D01*
X0500Y10208D02*
X3258Y10208D01*
X5202Y10208D02*
X5798Y10208D01*
X7742Y10208D02*
X10889Y10208D01*
X14781Y10208D02*
X19219Y10208D01*
X21631Y10208D02*
X23964Y10208D01*
X28766Y10208D02*
X36500Y10208D01*
X0500Y10257D02*
X3276Y10257D01*
X5184Y10257D02*
X5816Y10257D01*
X7724Y10257D02*
X10907Y10257D01*
X14761Y10257D02*
X19239Y10257D01*
X21611Y10257D02*
X23982Y10257D01*
X28717Y10257D02*
X29446Y10257D01*
X30094Y10257D02*
X36500Y10257D01*
X0500Y10307D02*
X3295Y10307D01*
X5165Y10307D02*
X5835Y10307D01*
X7705Y10307D02*
X8362Y10307D01*
X8728Y10307D02*
X10932Y10307D01*
X14734Y10307D02*
X19266Y10307D01*
X21584Y10307D02*
X24007Y10307D01*
X28664Y10307D02*
X29330Y10307D01*
X30210Y10307D02*
X36500Y10307D01*
X0500Y10356D02*
X3314Y10356D01*
X5146Y10356D02*
X5854Y10356D01*
X7686Y10356D02*
X8275Y10356D01*
X8815Y10356D02*
X10960Y10356D01*
X14693Y10356D02*
X19307Y10356D01*
X21543Y10356D02*
X24041Y10356D01*
X28586Y10356D02*
X29235Y10356D01*
X30305Y10356D02*
X36500Y10356D01*
X0500Y10406D02*
X3333Y10406D01*
X5127Y10406D02*
X5873Y10406D01*
X7667Y10406D02*
X8219Y10406D01*
X8871Y10406D02*
X10934Y10406D01*
X14662Y10406D02*
X19338Y10406D01*
X21512Y10406D02*
X24087Y10406D01*
X24713Y10406D02*
X26533Y10406D01*
X27927Y10406D02*
X29159Y10406D01*
X30381Y10406D02*
X36500Y10406D01*
X0500Y10456D02*
X3360Y10456D01*
X5100Y10456D02*
X5900Y10456D01*
X7640Y10456D02*
X8178Y10456D01*
X14703Y10456D02*
X19297Y10456D01*
X21553Y10456D02*
X24146Y10456D01*
X24654Y10456D02*
X26552Y10456D01*
X27908Y10456D02*
X29103Y10456D01*
X30437Y10456D02*
X36500Y10456D01*
X0500Y10505D02*
X3395Y10505D01*
X5065Y10505D02*
X5935Y10505D01*
X7605Y10505D02*
X8144Y10505D01*
X14740Y10505D02*
X19260Y10505D01*
X21591Y10505D02*
X24243Y10505D01*
X24557Y10505D02*
X26507Y10505D01*
X27953Y10505D02*
X29047Y10505D01*
X30493Y10505D02*
X36500Y10505D01*
X0500Y10555D02*
X3429Y10555D01*
X5031Y10555D02*
X5969Y10555D01*
X7571Y10555D02*
X8123Y10555D01*
X14767Y10555D02*
X19233Y10555D01*
X21617Y10555D02*
X26454Y10555D01*
X28006Y10555D02*
X28994Y10555D01*
X30546Y10555D02*
X36500Y10555D01*
X0500Y10604D02*
X3463Y10604D01*
X4997Y10604D02*
X6003Y10604D01*
X7537Y10604D02*
X8104Y10604D01*
X14785Y10604D02*
X19215Y10604D01*
X21635Y10604D02*
X26420Y10604D01*
X28040Y10604D02*
X28960Y10604D01*
X30580Y10604D02*
X36500Y10604D01*
X0500Y10654D02*
X3509Y10654D01*
X4951Y10654D02*
X6049Y10654D01*
X7491Y10654D02*
X8095Y10654D01*
X14798Y10654D02*
X19202Y10654D01*
X21648Y10654D02*
X26386Y10654D01*
X28074Y10654D02*
X28926Y10654D01*
X30614Y10654D02*
X36500Y10654D01*
X0500Y10703D02*
X3565Y10703D01*
X4895Y10703D02*
X6105Y10703D01*
X7435Y10703D02*
X8089Y10703D01*
X14803Y10703D02*
X19197Y10703D01*
X21653Y10703D02*
X26352Y10703D01*
X28108Y10703D02*
X28892Y10703D01*
X30648Y10703D02*
X36500Y10703D01*
X0500Y10753D02*
X3621Y10753D01*
X4030Y10753D02*
X4430Y10753D01*
X4839Y10753D02*
X6161Y10753D01*
X6570Y10753D02*
X6970Y10753D01*
X7379Y10753D02*
X8090Y10753D01*
X14802Y10753D02*
X19198Y10753D01*
X21652Y10753D02*
X26318Y10753D01*
X28142Y10753D02*
X28858Y10753D01*
X30682Y10753D02*
X36500Y10753D01*
X0500Y10802D02*
X3689Y10802D01*
X4030Y10802D02*
X4430Y10802D01*
X4771Y10802D02*
X6229Y10802D01*
X6570Y10802D02*
X6970Y10802D01*
X7311Y10802D02*
X8096Y10802D01*
X14797Y10802D02*
X19203Y10802D01*
X21647Y10802D02*
X24736Y10802D01*
X25064Y10802D02*
X26299Y10802D01*
X28161Y10802D02*
X28839Y10802D01*
X30701Y10802D02*
X36500Y10802D01*
X0500Y10852D02*
X3783Y10852D01*
X4030Y10852D02*
X4430Y10852D01*
X4677Y10852D02*
X6323Y10852D01*
X6570Y10852D02*
X6970Y10852D01*
X7217Y10852D02*
X8106Y10852D01*
X14783Y10852D02*
X19217Y10852D01*
X21633Y10852D02*
X24641Y10852D01*
X25159Y10852D02*
X26280Y10852D01*
X28180Y10852D02*
X28820Y10852D01*
X30720Y10852D02*
X36500Y10852D01*
X0500Y10901D02*
X3882Y10901D01*
X4030Y10901D02*
X4430Y10901D01*
X4578Y10901D02*
X6422Y10901D01*
X6570Y10901D02*
X6970Y10901D01*
X7118Y10901D02*
X8125Y10901D01*
X14764Y10901D02*
X19236Y10901D01*
X21614Y10901D02*
X24585Y10901D01*
X25215Y10901D02*
X26262Y10901D01*
X28198Y10901D02*
X28802Y10901D01*
X30738Y10901D02*
X36500Y10901D01*
X0500Y10951D02*
X8148Y10951D01*
X14737Y10951D02*
X19263Y10951D01*
X21588Y10951D02*
X24540Y10951D01*
X28217Y10951D02*
X28783Y10951D01*
X30757Y10951D02*
X36500Y10951D01*
X0500Y11000D02*
X8182Y11000D01*
X14698Y11000D02*
X19302Y11000D01*
X21548Y11000D02*
X24506Y11000D01*
X28232Y11000D02*
X28768Y11000D01*
X30772Y11000D02*
X36500Y11000D01*
X0500Y11050D02*
X8225Y11050D01*
X8865Y11050D02*
X12505Y11050D01*
X14645Y11050D02*
X19355Y11050D01*
X21495Y11050D02*
X24482Y11050D01*
X28238Y11050D02*
X28762Y11050D01*
X30778Y11050D02*
X36500Y11050D01*
X0500Y11099D02*
X8281Y11099D01*
X8809Y11099D02*
X12585Y11099D01*
X14565Y11099D02*
X19435Y11099D01*
X21415Y11099D02*
X24463Y11099D01*
X28244Y11099D02*
X28756Y11099D01*
X30784Y11099D02*
X36500Y11099D01*
X0500Y11149D02*
X8373Y11149D01*
X8717Y11149D02*
X24451Y11149D01*
X28250Y11149D02*
X28750Y11149D01*
X30790Y11149D02*
X36500Y11149D01*
X0500Y11198D02*
X24445Y11198D01*
X28256Y11198D02*
X28744Y11198D01*
X30796Y11198D02*
X36500Y11198D01*
X0500Y11248D02*
X24444Y11248D01*
X28257Y11248D02*
X28743Y11248D01*
X30797Y11248D02*
X36500Y11248D01*
X0500Y11298D02*
X24450Y11298D01*
X28251Y11298D02*
X28749Y11298D01*
X30791Y11298D02*
X36500Y11298D01*
X0500Y11347D02*
X24458Y11347D01*
X28245Y11347D02*
X28755Y11347D01*
X30785Y11347D02*
X36500Y11347D01*
X0500Y11397D02*
X24476Y11397D01*
X28239Y11397D02*
X28761Y11397D01*
X30779Y11397D02*
X36500Y11397D01*
X0500Y11446D02*
X24496Y11446D01*
X28233Y11446D02*
X28767Y11446D01*
X30773Y11446D02*
X36500Y11446D01*
X0500Y11496D02*
X24530Y11496D01*
X28222Y11496D02*
X28778Y11496D01*
X30762Y11496D02*
X36500Y11496D01*
X0500Y11545D02*
X3937Y11545D01*
X4523Y11545D02*
X6477Y11545D01*
X7063Y11545D02*
X24569Y11545D01*
X25231Y11545D02*
X26257Y11545D01*
X28203Y11545D02*
X28797Y11545D01*
X30743Y11545D02*
X36500Y11545D01*
X0500Y11595D02*
X3809Y11595D01*
X4651Y11595D02*
X6349Y11595D01*
X7191Y11595D02*
X24625Y11595D01*
X25175Y11595D02*
X26275Y11595D01*
X28185Y11595D02*
X28815Y11595D01*
X30725Y11595D02*
X36500Y11595D01*
X0500Y11644D02*
X3715Y11644D01*
X4745Y11644D02*
X6255Y11644D01*
X7285Y11644D02*
X24710Y11644D01*
X25090Y11644D02*
X26294Y11644D01*
X28166Y11644D02*
X28834Y11644D01*
X30706Y11644D02*
X36500Y11644D01*
X0500Y11694D02*
X3636Y11694D01*
X4824Y11694D02*
X6176Y11694D01*
X7364Y11694D02*
X26313Y11694D01*
X28147Y11694D02*
X28790Y11694D01*
X30687Y11694D02*
X36500Y11694D01*
X0500Y11743D02*
X3580Y11743D01*
X4880Y11743D02*
X6120Y11743D01*
X7420Y11743D02*
X26343Y11743D01*
X28117Y11743D02*
X28740Y11743D01*
X30657Y11743D02*
X36500Y11743D01*
X0500Y11793D02*
X3525Y11793D01*
X4935Y11793D02*
X6065Y11793D01*
X7475Y11793D02*
X26377Y11793D01*
X28083Y11793D02*
X28691Y11793D01*
X30623Y11793D02*
X36500Y11793D01*
X0500Y11842D02*
X3472Y11842D01*
X4988Y11842D02*
X6012Y11842D01*
X7528Y11842D02*
X26411Y11842D01*
X28049Y11842D02*
X28641Y11842D01*
X30589Y11842D02*
X36500Y11842D01*
X0500Y11892D02*
X3438Y11892D01*
X5022Y11892D02*
X5978Y11892D01*
X7562Y11892D02*
X26445Y11892D01*
X28015Y11892D02*
X28592Y11892D01*
X30555Y11892D02*
X36500Y11892D01*
X0500Y11941D02*
X3404Y11941D01*
X5056Y11941D02*
X5944Y11941D01*
X7596Y11941D02*
X26492Y11941D01*
X27968Y11941D02*
X28542Y11941D01*
X30508Y11941D02*
X36500Y11941D01*
X0500Y11991D02*
X3370Y11991D01*
X5090Y11991D02*
X5910Y11991D01*
X7630Y11991D02*
X26548Y11991D01*
X27912Y11991D02*
X28493Y11991D01*
X30452Y11991D02*
X36500Y11991D01*
X0500Y12040D02*
X3338Y12040D01*
X5122Y12040D02*
X5878Y12040D01*
X7662Y12040D02*
X26604Y12040D01*
X27856Y12040D02*
X28443Y12040D01*
X30396Y12040D02*
X36500Y12040D01*
X0500Y12090D02*
X3319Y12090D01*
X5141Y12090D02*
X5859Y12090D01*
X7681Y12090D02*
X26618Y12090D01*
X27842Y12090D02*
X28393Y12090D01*
X30330Y12090D02*
X36500Y12090D01*
X0500Y12140D02*
X3300Y12140D01*
X5160Y12140D02*
X5840Y12140D01*
X7700Y12140D02*
X26599Y12140D01*
X27861Y12140D02*
X28344Y12140D01*
X29210Y12140D02*
X29304Y12140D01*
X30236Y12140D02*
X36500Y12140D01*
X0500Y12189D02*
X3281Y12189D01*
X5179Y12189D02*
X5821Y12189D01*
X7719Y12189D02*
X20267Y12189D01*
X29160Y12189D02*
X29398Y12189D01*
X30142Y12189D02*
X36500Y12189D01*
X0500Y12239D02*
X3263Y12239D01*
X5197Y12239D02*
X5803Y12239D01*
X7737Y12239D02*
X20205Y12239D01*
X29111Y12239D02*
X29592Y12239D01*
X29948Y12239D02*
X36500Y12239D01*
X0500Y12288D02*
X3251Y12288D01*
X5209Y12288D02*
X5791Y12288D01*
X7749Y12288D02*
X20166Y12288D01*
X29061Y12288D02*
X36500Y12288D01*
X0500Y12338D02*
X3245Y12338D01*
X5215Y12338D02*
X5785Y12338D01*
X7755Y12338D02*
X20141Y12338D01*
X29011Y12338D02*
X36500Y12338D01*
X0500Y12387D02*
X3239Y12387D01*
X5221Y12387D02*
X5779Y12387D01*
X7761Y12387D02*
X20126Y12387D01*
X28962Y12387D02*
X36500Y12387D01*
X0500Y12437D02*
X3233Y12437D01*
X5227Y12437D02*
X5773Y12437D01*
X7767Y12437D02*
X20120Y12437D01*
X28912Y12437D02*
X36500Y12437D01*
X0500Y12486D02*
X3227Y12486D01*
X5233Y12486D02*
X5767Y12486D01*
X7773Y12486D02*
X20119Y12486D01*
X28863Y12486D02*
X36500Y12486D01*
X0500Y12536D02*
X3230Y12536D01*
X5230Y12536D02*
X5770Y12536D01*
X7770Y12536D02*
X20119Y12536D01*
X28813Y12536D02*
X36500Y12536D01*
X0500Y12585D02*
X3236Y12585D01*
X5224Y12585D02*
X5776Y12585D01*
X7764Y12585D02*
X20119Y12585D01*
X28764Y12585D02*
X36500Y12585D01*
X0500Y12635D02*
X3242Y12635D01*
X5218Y12635D02*
X5782Y12635D01*
X7758Y12635D02*
X20119Y12635D01*
X28714Y12635D02*
X36500Y12635D01*
X0500Y12684D02*
X3248Y12684D01*
X5212Y12684D02*
X5788Y12684D01*
X7752Y12684D02*
X20119Y12684D01*
X28661Y12684D02*
X36500Y12684D01*
X0500Y12734D02*
X3254Y12734D01*
X5206Y12734D02*
X5794Y12734D01*
X7746Y12734D02*
X20119Y12734D01*
X28580Y12734D02*
X36500Y12734D01*
X0500Y12783D02*
X3271Y12783D01*
X5189Y12783D02*
X5811Y12783D01*
X7729Y12783D02*
X20119Y12783D01*
X21502Y12783D02*
X26763Y12783D01*
X27697Y12783D02*
X29502Y12783D01*
X30038Y12783D02*
X36500Y12783D01*
X0500Y12833D02*
X3290Y12833D01*
X5170Y12833D02*
X5830Y12833D01*
X7710Y12833D02*
X20119Y12833D01*
X21492Y12833D02*
X26775Y12833D01*
X27685Y12833D02*
X29356Y12833D01*
X30184Y12833D02*
X36500Y12833D01*
X0500Y12883D02*
X3309Y12883D01*
X5151Y12883D02*
X5849Y12883D01*
X7691Y12883D02*
X12632Y12883D01*
X14518Y12883D02*
X19304Y12883D01*
X21546Y12883D02*
X26722Y12883D01*
X27738Y12883D02*
X29262Y12883D01*
X30278Y12883D02*
X36500Y12883D01*
X0500Y12932D02*
X3327Y12932D01*
X5133Y12932D02*
X5867Y12932D01*
X7673Y12932D02*
X12527Y12932D01*
X14623Y12932D02*
X19243Y12932D01*
X21607Y12932D02*
X26635Y12932D01*
X27825Y12932D02*
X29175Y12932D01*
X30365Y12932D02*
X36500Y12932D01*
X0500Y12982D02*
X3351Y12982D01*
X5144Y12982D02*
X5891Y12982D01*
X7649Y12982D02*
X12467Y12982D01*
X14683Y12982D02*
X19212Y12982D01*
X21638Y12982D02*
X26579Y12982D01*
X27881Y12982D02*
X29119Y12982D01*
X30421Y12982D02*
X36500Y12982D01*
X0500Y13031D02*
X3385Y13031D01*
X5194Y13031D02*
X5925Y13031D01*
X7615Y13031D02*
X12426Y13031D01*
X14724Y13031D02*
X19197Y13031D01*
X21653Y13031D02*
X26523Y13031D01*
X27937Y13031D02*
X29063Y13031D01*
X30477Y13031D02*
X36500Y13031D01*
X0500Y13081D02*
X3419Y13081D01*
X5243Y13081D02*
X5959Y13081D01*
X7581Y13081D02*
X12396Y13081D01*
X14754Y13081D02*
X19194Y13081D01*
X21656Y13081D02*
X26467Y13081D01*
X27993Y13081D02*
X29007Y13081D01*
X30533Y13081D02*
X36500Y13081D01*
X0500Y13130D02*
X3453Y13130D01*
X5293Y13130D02*
X5993Y13130D01*
X7547Y13130D02*
X12372Y13130D01*
X14777Y13130D02*
X19194Y13130D01*
X21656Y13130D02*
X26430Y13130D01*
X28030Y13130D02*
X28970Y13130D01*
X30570Y13130D02*
X36500Y13130D01*
X0500Y13180D02*
X3494Y13180D01*
X5343Y13180D02*
X6034Y13180D01*
X7506Y13180D02*
X12357Y13180D01*
X14792Y13180D02*
X19194Y13180D01*
X21656Y13180D02*
X26396Y13180D01*
X28064Y13180D02*
X28936Y13180D01*
X30604Y13180D02*
X36500Y13180D01*
X0500Y13229D02*
X3549Y13229D01*
X5392Y13229D02*
X6089Y13229D01*
X7451Y13229D02*
X12349Y13229D01*
X14800Y13229D02*
X19194Y13229D01*
X21656Y13229D02*
X26362Y13229D01*
X28098Y13229D02*
X28902Y13229D01*
X30638Y13229D02*
X36500Y13229D01*
X0500Y13279D02*
X3605Y13279D01*
X5442Y13279D02*
X6145Y13279D01*
X7395Y13279D02*
X12345Y13279D01*
X14804Y13279D02*
X19194Y13279D01*
X21656Y13279D02*
X26327Y13279D01*
X28133Y13279D02*
X28867Y13279D01*
X30673Y13279D02*
X36500Y13279D01*
X0500Y13328D02*
X3662Y13328D01*
X5491Y13328D02*
X6202Y13328D01*
X7338Y13328D02*
X12350Y13328D01*
X14799Y13328D02*
X19194Y13328D01*
X21656Y13328D02*
X26305Y13328D01*
X28155Y13328D02*
X28845Y13328D01*
X30695Y13328D02*
X36500Y13328D01*
X0500Y13378D02*
X3757Y13378D01*
X5541Y13378D02*
X6297Y13378D01*
X7243Y13378D02*
X10525Y13378D01*
X10875Y13378D02*
X12360Y13378D01*
X14790Y13378D02*
X19194Y13378D01*
X21656Y13378D02*
X26286Y13378D01*
X28174Y13378D02*
X28826Y13378D01*
X30714Y13378D02*
X36500Y13378D01*
X0500Y13427D02*
X3851Y13427D01*
X4609Y13427D02*
X4725Y13427D01*
X5590Y13427D02*
X6328Y13427D01*
X7212Y13427D02*
X10434Y13427D01*
X10966Y13427D02*
X12375Y13427D01*
X14775Y13427D02*
X19194Y13427D01*
X21656Y13427D02*
X26267Y13427D01*
X28193Y13427D02*
X28807Y13427D01*
X30733Y13427D02*
X36500Y13427D01*
X0500Y13477D02*
X4027Y13477D01*
X4433Y13477D02*
X4774Y13477D01*
X5640Y13477D02*
X6315Y13477D01*
X7225Y13477D02*
X10378Y13477D01*
X11022Y13477D02*
X12400Y13477D01*
X14750Y13477D02*
X19194Y13477D01*
X21656Y13477D02*
X26248Y13477D01*
X28212Y13477D02*
X28788Y13477D01*
X30752Y13477D02*
X36500Y13477D01*
X0500Y13526D02*
X4824Y13526D01*
X11064Y13526D02*
X12432Y13526D01*
X14718Y13526D02*
X19199Y13526D01*
X21652Y13526D02*
X26230Y13526D01*
X28230Y13526D02*
X28770Y13526D01*
X30770Y13526D02*
X36500Y13526D01*
X0500Y13576D02*
X4873Y13576D01*
X11098Y13576D02*
X12473Y13576D01*
X14677Y13576D02*
X19215Y13576D01*
X21635Y13576D02*
X26224Y13576D01*
X28236Y13576D02*
X28764Y13576D01*
X30776Y13576D02*
X36500Y13576D01*
X0500Y13625D02*
X4923Y13625D01*
X11121Y13625D02*
X12472Y13625D01*
X14678Y13625D02*
X19249Y13625D01*
X21601Y13625D02*
X26218Y13625D01*
X28242Y13625D02*
X28758Y13625D01*
X30782Y13625D02*
X36500Y13625D01*
X0500Y13675D02*
X4972Y13675D01*
X11139Y13675D02*
X12431Y13675D01*
X14719Y13675D02*
X19276Y13675D01*
X21575Y13675D02*
X26212Y13675D01*
X28248Y13675D02*
X28752Y13675D01*
X30788Y13675D02*
X36500Y13675D01*
X0500Y13725D02*
X5022Y13725D01*
X11149Y13725D02*
X12399Y13725D01*
X14751Y13725D02*
X19249Y13725D01*
X21601Y13725D02*
X26206Y13725D01*
X28254Y13725D02*
X28746Y13725D01*
X30794Y13725D02*
X36500Y13725D01*
X0500Y13774D02*
X5071Y13774D01*
X11155Y13774D02*
X12374Y13774D01*
X14776Y13774D02*
X19224Y13774D01*
X21626Y13774D02*
X26201Y13774D01*
X28259Y13774D02*
X28741Y13774D01*
X30799Y13774D02*
X36500Y13774D01*
X0500Y13824D02*
X5121Y13824D01*
X11156Y13824D02*
X12359Y13824D01*
X14791Y13824D02*
X19209Y13824D01*
X21641Y13824D02*
X26207Y13824D01*
X28253Y13824D02*
X28747Y13824D01*
X30793Y13824D02*
X36500Y13824D01*
X0500Y13873D02*
X5170Y13873D01*
X11150Y13873D02*
X12350Y13873D01*
X14800Y13873D02*
X19200Y13873D01*
X21650Y13873D02*
X26213Y13873D01*
X28247Y13873D02*
X28753Y13873D01*
X30787Y13873D02*
X36500Y13873D01*
X0500Y13923D02*
X5220Y13923D01*
X11140Y13923D02*
X12345Y13923D01*
X14804Y13923D02*
X19196Y13923D01*
X21655Y13923D02*
X26219Y13923D01*
X28241Y13923D02*
X28759Y13923D01*
X30781Y13923D02*
X36500Y13923D01*
X0500Y13972D02*
X5269Y13972D01*
X11121Y13972D02*
X12350Y13972D01*
X14800Y13972D02*
X19200Y13972D01*
X21650Y13972D02*
X26225Y13972D01*
X28235Y13972D02*
X28765Y13972D01*
X30775Y13972D02*
X36500Y13972D01*
X0500Y14022D02*
X5320Y14022D01*
X11100Y14022D02*
X12358Y14022D01*
X14792Y14022D02*
X19208Y14022D01*
X21642Y14022D02*
X26232Y14022D01*
X28228Y14022D02*
X28772Y14022D01*
X30768Y14022D02*
X36500Y14022D01*
X0500Y14071D02*
X3994Y14071D01*
X4466Y14071D02*
X5391Y14071D01*
X11066Y14071D02*
X12373Y14071D01*
X14777Y14071D02*
X19223Y14071D01*
X21627Y14071D02*
X26251Y14071D01*
X28209Y14071D02*
X28791Y14071D01*
X30749Y14071D02*
X36500Y14071D01*
X0500Y14121D02*
X3836Y14121D01*
X4624Y14121D02*
X6203Y14121D01*
X7337Y14121D02*
X10376Y14121D01*
X11024Y14121D02*
X12396Y14121D01*
X14753Y14121D02*
X19247Y14121D01*
X21604Y14121D02*
X23341Y14121D01*
X23459Y14121D02*
X26270Y14121D01*
X28190Y14121D02*
X28810Y14121D01*
X30730Y14121D02*
X36500Y14121D01*
X0500Y14170D02*
X3741Y14170D01*
X4719Y14170D02*
X6222Y14170D01*
X7318Y14170D02*
X10432Y14170D01*
X10968Y14170D02*
X12427Y14170D01*
X14723Y14170D02*
X19277Y14170D01*
X21573Y14170D02*
X23192Y14170D01*
X23608Y14170D02*
X26289Y14170D01*
X28171Y14170D02*
X28829Y14170D01*
X30711Y14170D02*
X36500Y14170D01*
X0500Y14220D02*
X3652Y14220D01*
X4808Y14220D02*
X6192Y14220D01*
X7348Y14220D02*
X10521Y14220D01*
X10879Y14220D02*
X12468Y14220D01*
X14682Y14220D02*
X19318Y14220D01*
X21562Y14220D02*
X23115Y14220D01*
X23685Y14220D02*
X26308Y14220D01*
X28152Y14220D02*
X28848Y14220D01*
X30692Y14220D02*
X36500Y14220D01*
X0500Y14269D02*
X3596Y14269D01*
X4864Y14269D02*
X6136Y14269D01*
X7404Y14269D02*
X12477Y14269D01*
X14673Y14269D02*
X19327Y14269D01*
X23741Y14269D02*
X26333Y14269D01*
X28127Y14269D02*
X28873Y14269D01*
X30667Y14269D02*
X36500Y14269D01*
X0500Y14319D02*
X3540Y14319D01*
X4920Y14319D02*
X6080Y14319D01*
X7460Y14319D02*
X12436Y14319D01*
X14714Y14319D02*
X19286Y14319D01*
X23776Y14319D02*
X26367Y14319D01*
X28093Y14319D02*
X28907Y14319D01*
X30633Y14319D02*
X36500Y14319D01*
X0500Y14368D02*
X3484Y14368D01*
X4976Y14368D02*
X6024Y14368D01*
X7516Y14368D02*
X12402Y14368D01*
X14748Y14368D02*
X19252Y14368D01*
X23808Y14368D02*
X26401Y14368D01*
X28059Y14368D02*
X28941Y14368D01*
X30599Y14368D02*
X36500Y14368D01*
X0500Y14418D02*
X3448Y14418D01*
X5012Y14418D02*
X5988Y14418D01*
X7552Y14418D02*
X12376Y14418D01*
X14774Y14418D02*
X19226Y14418D01*
X23827Y14418D02*
X26435Y14418D01*
X28025Y14418D02*
X28975Y14418D01*
X30565Y14418D02*
X36500Y14418D01*
X0500Y14467D02*
X3414Y14467D01*
X5046Y14467D02*
X5954Y14467D01*
X7586Y14467D02*
X12361Y14467D01*
X14789Y14467D02*
X19211Y14467D01*
X23845Y14467D02*
X26476Y14467D01*
X27984Y14467D02*
X29016Y14467D01*
X30524Y14467D02*
X36500Y14467D01*
X0500Y14517D02*
X3379Y14517D01*
X5081Y14517D02*
X5919Y14517D01*
X7621Y14517D02*
X12599Y14517D01*
X14551Y14517D02*
X19201Y14517D01*
X23851Y14517D02*
X26532Y14517D01*
X27928Y14517D02*
X29072Y14517D01*
X30468Y14517D02*
X36500Y14517D01*
X0500Y14567D02*
X3345Y14567D01*
X5115Y14567D02*
X5885Y14567D01*
X7655Y14567D02*
X12599Y14567D01*
X14551Y14567D02*
X19196Y14567D01*
X23857Y14567D02*
X26588Y14567D01*
X27872Y14567D02*
X29128Y14567D01*
X30412Y14567D02*
X36500Y14567D01*
X0500Y14616D02*
X3324Y14616D01*
X5136Y14616D02*
X5864Y14616D01*
X7676Y14616D02*
X11153Y14616D01*
X11497Y14616D02*
X12599Y14616D01*
X14551Y14616D02*
X19199Y14616D01*
X23853Y14616D02*
X26644Y14616D01*
X27816Y14616D02*
X29184Y14616D01*
X30356Y14616D02*
X36500Y14616D01*
X0500Y14666D02*
X3306Y14666D01*
X5154Y14666D02*
X5846Y14666D01*
X7694Y14666D02*
X11061Y14666D01*
X11589Y14666D02*
X12599Y14666D01*
X14551Y14666D02*
X19206Y14666D01*
X23847Y14666D02*
X26737Y14666D01*
X27723Y14666D02*
X29277Y14666D01*
X30263Y14666D02*
X36500Y14666D01*
X0500Y14715D02*
X3287Y14715D01*
X5173Y14715D02*
X5827Y14715D01*
X7713Y14715D02*
X11005Y14715D01*
X11645Y14715D02*
X12371Y14715D01*
X14779Y14715D02*
X19221Y14715D01*
X23834Y14715D02*
X26832Y14715D01*
X27628Y14715D02*
X29372Y14715D01*
X30168Y14715D02*
X36500Y14715D01*
X0500Y14765D02*
X3268Y14765D01*
X5192Y14765D02*
X5808Y14765D01*
X11688Y14765D02*
X12393Y14765D01*
X14757Y14765D02*
X19236Y14765D01*
X23815Y14765D02*
X26995Y14765D01*
X27465Y14765D02*
X29535Y14765D01*
X30005Y14765D02*
X36500Y14765D01*
X0500Y14814D02*
X3253Y14814D01*
X5207Y14814D02*
X5793Y14814D01*
X11722Y14814D02*
X12422Y14814D01*
X14728Y14814D02*
X18753Y14814D01*
X19147Y14814D02*
X19192Y14814D01*
X23788Y14814D02*
X36500Y14814D01*
X0500Y14864D02*
X3247Y14864D01*
X5213Y14864D02*
X5787Y14864D01*
X11745Y14864D02*
X12463Y14864D01*
X14687Y14864D02*
X18672Y14864D01*
X23754Y14864D02*
X36500Y14864D01*
X0500Y14913D02*
X3241Y14913D01*
X5219Y14913D02*
X5781Y14913D01*
X11764Y14913D02*
X12482Y14913D01*
X14668Y14913D02*
X18616Y14913D01*
X21570Y14913D02*
X23095Y14913D01*
X23705Y14913D02*
X36500Y14913D01*
X0500Y14963D02*
X3235Y14963D01*
X5225Y14963D02*
X5775Y14963D01*
X11774Y14963D02*
X12441Y14963D01*
X14709Y14963D02*
X18578Y14963D01*
X21559Y14963D02*
X23159Y14963D01*
X23641Y14963D02*
X36500Y14963D01*
X0500Y15012D02*
X3229Y15012D01*
X5231Y15012D02*
X5769Y15012D01*
X11780Y15012D02*
X12405Y15012D01*
X14744Y15012D02*
X18544Y15012D01*
X21595Y15012D02*
X23272Y15012D01*
X23528Y15012D02*
X36500Y15012D01*
X0500Y15062D02*
X3228Y15062D01*
X5232Y15062D02*
X5768Y15062D01*
X11781Y15062D02*
X12379Y15062D01*
X14771Y15062D02*
X18525Y15062D01*
X21621Y15062D02*
X36500Y15062D01*
X0500Y15111D02*
X3234Y15111D01*
X5226Y15111D02*
X5774Y15111D01*
X11775Y15111D02*
X12363Y15111D01*
X14787Y15111D02*
X18506Y15111D01*
X21637Y15111D02*
X36500Y15111D01*
X0500Y15161D02*
X3240Y15161D01*
X5220Y15161D02*
X5780Y15161D01*
X11766Y15161D02*
X12599Y15161D01*
X14798Y15161D02*
X18499Y15161D01*
X21649Y15161D02*
X36500Y15161D01*
X0500Y15210D02*
X3246Y15210D01*
X5214Y15210D02*
X5786Y15210D01*
X11747Y15210D02*
X12599Y15210D01*
X14803Y15210D02*
X18493Y15210D01*
X21654Y15210D02*
X36500Y15210D01*
X0500Y15260D02*
X3252Y15260D01*
X5208Y15260D02*
X5792Y15260D01*
X11726Y15260D02*
X12599Y15260D01*
X14801Y15260D02*
X18496Y15260D01*
X21652Y15260D02*
X36500Y15260D01*
X0500Y15309D02*
X3266Y15309D01*
X5194Y15309D02*
X5806Y15309D01*
X11692Y15309D02*
X12599Y15309D01*
X14796Y15309D02*
X18502Y15309D01*
X21646Y15309D02*
X27019Y15309D01*
X27441Y15309D02*
X29559Y15309D01*
X29981Y15309D02*
X36500Y15309D01*
X0500Y15359D02*
X3285Y15359D01*
X5175Y15359D02*
X5825Y15359D01*
X7715Y15359D02*
X10999Y15359D01*
X11651Y15359D02*
X12369Y15359D01*
X14781Y15359D02*
X18514Y15359D01*
X21631Y15359D02*
X26843Y15359D01*
X27617Y15359D02*
X29383Y15359D01*
X30157Y15359D02*
X36500Y15359D01*
X0500Y15409D02*
X3303Y15409D01*
X5157Y15409D02*
X5843Y15409D01*
X7697Y15409D02*
X11055Y15409D01*
X11595Y15409D02*
X12390Y15409D01*
X14760Y15409D02*
X18533Y15409D01*
X21610Y15409D02*
X26749Y15409D01*
X27711Y15409D02*
X29289Y15409D01*
X30251Y15409D02*
X36500Y15409D01*
X0500Y15458D02*
X3322Y15458D01*
X5138Y15458D02*
X5862Y15458D01*
X7678Y15458D02*
X11142Y15458D01*
X11508Y15458D02*
X12417Y15458D01*
X14733Y15458D02*
X18558Y15458D01*
X21583Y15458D02*
X24165Y15458D01*
X24535Y15458D02*
X26654Y15458D01*
X27806Y15458D02*
X29194Y15458D01*
X30346Y15458D02*
X36500Y15458D01*
X0500Y15508D02*
X3341Y15508D01*
X5130Y15508D02*
X5881Y15508D01*
X7659Y15508D02*
X12458Y15508D01*
X14692Y15508D02*
X18592Y15508D01*
X21557Y15508D02*
X24078Y15508D01*
X24622Y15508D02*
X26595Y15508D01*
X27865Y15508D02*
X29135Y15508D01*
X30405Y15508D02*
X36500Y15508D01*
X0500Y15557D02*
X3375Y15557D01*
X5180Y15557D02*
X5915Y15557D01*
X7625Y15557D02*
X12487Y15557D01*
X14663Y15557D02*
X18639Y15557D01*
X21580Y15557D02*
X24022Y15557D01*
X24678Y15557D02*
X26539Y15557D01*
X27921Y15557D02*
X29079Y15557D01*
X30461Y15557D02*
X36500Y15557D01*
X0500Y15607D02*
X3410Y15607D01*
X5229Y15607D02*
X5950Y15607D01*
X7590Y15607D02*
X12446Y15607D01*
X14704Y15607D02*
X18698Y15607D01*
X24718Y15607D02*
X26483Y15607D01*
X27977Y15607D02*
X29023Y15607D01*
X30517Y15607D02*
X36500Y15607D01*
X0500Y15656D02*
X3444Y15656D01*
X5279Y15656D02*
X5984Y15656D01*
X7556Y15656D02*
X12409Y15656D01*
X14741Y15656D02*
X18798Y15656D01*
X19102Y15656D02*
X19217Y15656D01*
X24752Y15656D02*
X26440Y15656D01*
X28020Y15656D02*
X28980Y15656D01*
X30560Y15656D02*
X36500Y15656D01*
X0500Y15706D02*
X3478Y15706D01*
X5329Y15706D02*
X6018Y15706D01*
X7522Y15706D02*
X12382Y15706D01*
X14768Y15706D02*
X19230Y15706D01*
X24773Y15706D02*
X26405Y15706D01*
X28055Y15706D02*
X28945Y15706D01*
X30595Y15706D02*
X36500Y15706D01*
X0500Y15755D02*
X3534Y15755D01*
X5378Y15755D02*
X6074Y15755D01*
X7466Y15755D02*
X12365Y15755D01*
X14785Y15755D02*
X19215Y15755D01*
X24791Y15755D02*
X26371Y15755D01*
X28089Y15755D02*
X28911Y15755D01*
X30629Y15755D02*
X36500Y15755D01*
X0500Y15805D02*
X3590Y15805D01*
X5428Y15805D02*
X6130Y15805D01*
X7410Y15805D02*
X12352Y15805D01*
X14798Y15805D02*
X19202Y15805D01*
X24800Y15805D02*
X26337Y15805D01*
X28123Y15805D02*
X28877Y15805D01*
X30663Y15805D02*
X36500Y15805D01*
X0500Y15854D02*
X3645Y15854D01*
X5477Y15854D02*
X6185Y15854D01*
X7355Y15854D02*
X12347Y15854D01*
X14803Y15854D02*
X19197Y15854D01*
X24806Y15854D02*
X26310Y15854D01*
X28150Y15854D02*
X28850Y15854D01*
X30690Y15854D02*
X36500Y15854D01*
X0500Y15904D02*
X3730Y15904D01*
X5527Y15904D02*
X6270Y15904D01*
X7270Y15904D02*
X11148Y15904D01*
X11502Y15904D02*
X12348Y15904D01*
X14802Y15904D02*
X19198Y15904D01*
X24805Y15904D02*
X26291Y15904D01*
X28169Y15904D02*
X28831Y15904D01*
X30709Y15904D02*
X36500Y15904D01*
X0500Y15953D02*
X3825Y15953D01*
X4635Y15953D02*
X4711Y15953D01*
X5576Y15953D02*
X6274Y15953D01*
X7266Y15953D02*
X11058Y15953D01*
X11592Y15953D02*
X12353Y15953D01*
X14797Y15953D02*
X19203Y15953D01*
X24799Y15953D02*
X26272Y15953D01*
X28188Y15953D02*
X28812Y15953D01*
X30728Y15953D02*
X36500Y15953D01*
X0500Y16003D02*
X3970Y16003D01*
X4490Y16003D02*
X4760Y16003D01*
X5626Y16003D02*
X6262Y16003D01*
X7278Y16003D02*
X11002Y16003D01*
X11648Y16003D02*
X12367Y16003D01*
X14783Y16003D02*
X19217Y16003D01*
X24793Y16003D02*
X26253Y16003D01*
X28207Y16003D02*
X28793Y16003D01*
X30747Y16003D02*
X36500Y16003D01*
X0500Y16052D02*
X4810Y16052D01*
X11690Y16052D02*
X12387Y16052D01*
X14763Y16052D02*
X19237Y16052D01*
X28225Y16052D02*
X28775Y16052D01*
X30765Y16052D02*
X36500Y16052D01*
X0500Y16102D02*
X4859Y16102D01*
X11724Y16102D02*
X12413Y16102D01*
X14737Y16102D02*
X19263Y16102D01*
X28234Y16102D02*
X28766Y16102D01*
X30774Y16102D02*
X36500Y16102D01*
X0500Y16151D02*
X4909Y16151D01*
X11746Y16151D02*
X12453Y16151D01*
X14697Y16151D02*
X19303Y16151D01*
X28240Y16151D02*
X28760Y16151D01*
X30780Y16151D02*
X36500Y16151D01*
X0500Y16201D02*
X4958Y16201D01*
X11765Y16201D02*
X12492Y16201D01*
X14658Y16201D02*
X19342Y16201D01*
X28246Y16201D02*
X28754Y16201D01*
X30786Y16201D02*
X36500Y16201D01*
X0500Y16251D02*
X5008Y16251D01*
X11774Y16251D02*
X12451Y16251D01*
X14699Y16251D02*
X19301Y16251D01*
X28252Y16251D02*
X28748Y16251D01*
X30792Y16251D02*
X36500Y16251D01*
X0500Y16300D02*
X5057Y16300D01*
X11780Y16300D02*
X12412Y16300D01*
X14738Y16300D02*
X19262Y16300D01*
X28258Y16300D02*
X28742Y16300D01*
X30798Y16300D02*
X36500Y16300D01*
X0500Y16350D02*
X5107Y16350D01*
X11780Y16350D02*
X12385Y16350D01*
X14764Y16350D02*
X19236Y16350D01*
X28255Y16350D02*
X28745Y16350D01*
X30795Y16350D02*
X36500Y16350D01*
X0500Y16399D02*
X5156Y16399D01*
X11774Y16399D02*
X12367Y16399D01*
X14783Y16399D02*
X19217Y16399D01*
X28249Y16399D02*
X28751Y16399D01*
X30789Y16399D02*
X36500Y16399D01*
X0500Y16449D02*
X5206Y16449D01*
X11765Y16449D02*
X12353Y16449D01*
X14797Y16449D02*
X19203Y16449D01*
X28243Y16449D02*
X28757Y16449D01*
X30783Y16449D02*
X36500Y16449D01*
X0500Y16498D02*
X5255Y16498D01*
X11746Y16498D02*
X12348Y16498D01*
X14802Y16498D02*
X19198Y16498D01*
X21689Y16498D02*
X21752Y16498D01*
X28237Y16498D02*
X28763Y16498D01*
X30777Y16498D02*
X36500Y16498D01*
X0500Y16548D02*
X5309Y16548D01*
X11724Y16548D02*
X12347Y16548D01*
X14802Y16548D02*
X19198Y16548D01*
X21653Y16548D02*
X21786Y16548D01*
X28231Y16548D02*
X28769Y16548D01*
X30771Y16548D02*
X36500Y16548D01*
X0500Y16597D02*
X3339Y16597D01*
X5121Y16597D02*
X5389Y16597D01*
X11690Y16597D02*
X12352Y16597D01*
X14798Y16597D02*
X19202Y16597D01*
X21648Y16597D02*
X21820Y16597D01*
X28214Y16597D02*
X28786Y16597D01*
X30754Y16597D02*
X36500Y16597D01*
X0500Y16647D02*
X3276Y16647D01*
X5184Y16647D02*
X6254Y16647D01*
X7286Y16647D02*
X11002Y16647D01*
X11648Y16647D02*
X12365Y16647D01*
X14784Y16647D02*
X19216Y16647D01*
X21635Y16647D02*
X21869Y16647D01*
X22481Y16647D02*
X26265Y16647D01*
X28195Y16647D02*
X28805Y16647D01*
X30735Y16647D02*
X36500Y16647D01*
X0500Y16696D02*
X3244Y16696D01*
X5216Y16696D02*
X6266Y16696D01*
X7274Y16696D02*
X11058Y16696D01*
X11592Y16696D02*
X12383Y16696D01*
X14766Y16696D02*
X19234Y16696D01*
X21617Y16696D02*
X21932Y16696D01*
X22418Y16696D02*
X26284Y16696D01*
X28176Y16696D02*
X28824Y16696D01*
X30716Y16696D02*
X36500Y16696D01*
X0500Y16746D02*
X3229Y16746D01*
X5231Y16746D02*
X6214Y16746D01*
X7326Y16746D02*
X11148Y16746D01*
X11502Y16746D02*
X12410Y16746D01*
X14740Y16746D02*
X19260Y16746D01*
X21590Y16746D02*
X22042Y16746D01*
X22308Y16746D02*
X26302Y16746D01*
X28158Y16746D02*
X28842Y16746D01*
X30698Y16746D02*
X36500Y16746D01*
X0500Y16795D02*
X3226Y16795D01*
X5234Y16795D02*
X6152Y16795D01*
X7388Y16795D02*
X12448Y16795D01*
X14702Y16795D02*
X19298Y16795D01*
X21552Y16795D02*
X26323Y16795D01*
X28137Y16795D02*
X28852Y16795D01*
X30677Y16795D02*
X36500Y16795D01*
X0500Y16845D02*
X3226Y16845D01*
X5234Y16845D02*
X6096Y16845D01*
X7444Y16845D02*
X12488Y16845D01*
X14661Y16845D02*
X19339Y16845D01*
X21512Y16845D02*
X26357Y16845D01*
X28103Y16845D02*
X28802Y16845D01*
X30643Y16845D02*
X36500Y16845D01*
X0500Y16894D02*
X3226Y16894D01*
X5234Y16894D02*
X6040Y16894D01*
X7500Y16894D02*
X12456Y16894D01*
X14694Y16894D02*
X19306Y16894D01*
X21544Y16894D02*
X26392Y16894D01*
X28068Y16894D02*
X28753Y16894D01*
X30608Y16894D02*
X36500Y16894D01*
X0500Y16944D02*
X3226Y16944D01*
X5234Y16944D02*
X5997Y16944D01*
X7543Y16944D02*
X12415Y16944D01*
X14734Y16944D02*
X19266Y16944D01*
X21585Y16944D02*
X26426Y16944D01*
X28034Y16944D02*
X28703Y16944D01*
X30574Y16944D02*
X36500Y16944D01*
X0500Y16993D02*
X3226Y16993D01*
X5234Y16993D02*
X5963Y16993D01*
X7577Y16993D02*
X12389Y16993D01*
X14761Y16993D02*
X19239Y16993D01*
X21611Y16993D02*
X26460Y16993D01*
X28000Y16993D02*
X28654Y16993D01*
X30540Y16993D02*
X36500Y16993D01*
X0500Y17043D02*
X3226Y17043D01*
X5234Y17043D02*
X5929Y17043D01*
X7611Y17043D02*
X12368Y17043D01*
X14781Y17043D02*
X19219Y17043D01*
X21632Y17043D02*
X26516Y17043D01*
X27944Y17043D02*
X28604Y17043D01*
X30484Y17043D02*
X36500Y17043D01*
X0500Y17093D02*
X3226Y17093D01*
X5234Y17093D02*
X5895Y17093D01*
X7645Y17093D02*
X12353Y17093D01*
X14796Y17093D02*
X19449Y17093D01*
X21401Y17093D02*
X26572Y17093D01*
X27888Y17093D02*
X28555Y17093D01*
X30428Y17093D02*
X36500Y17093D01*
X0500Y17142D02*
X3226Y17142D01*
X5234Y17142D02*
X5870Y17142D01*
X7670Y17142D02*
X12348Y17142D01*
X14801Y17142D02*
X19449Y17142D01*
X21401Y17142D02*
X26628Y17142D01*
X27832Y17142D02*
X28505Y17142D01*
X30372Y17142D02*
X36500Y17142D01*
X0500Y17192D02*
X3226Y17192D01*
X5234Y17192D02*
X5851Y17192D01*
X7689Y17192D02*
X12347Y17192D01*
X14803Y17192D02*
X19449Y17192D01*
X21401Y17192D02*
X25225Y17192D01*
X25575Y17192D02*
X26711Y17192D01*
X27749Y17192D02*
X28456Y17192D01*
X30289Y17192D02*
X36500Y17192D01*
X0500Y17241D02*
X3226Y17241D01*
X5234Y17241D02*
X5832Y17241D01*
X7708Y17241D02*
X12351Y17241D01*
X14798Y17241D02*
X19449Y17241D01*
X21401Y17241D02*
X25134Y17241D01*
X25666Y17241D02*
X26741Y17241D01*
X27719Y17241D02*
X28406Y17241D01*
X29272Y17241D02*
X29345Y17241D01*
X30195Y17241D02*
X36500Y17241D01*
X0500Y17291D02*
X3226Y17291D01*
X5234Y17291D02*
X5813Y17291D01*
X7727Y17291D02*
X12363Y17291D01*
X14786Y17291D02*
X19214Y17291D01*
X21637Y17291D02*
X25078Y17291D01*
X25722Y17291D02*
X26729Y17291D01*
X27731Y17291D02*
X28357Y17291D01*
X29222Y17291D02*
X29478Y17291D01*
X30062Y17291D02*
X36500Y17291D01*
X0500Y17340D02*
X3226Y17340D01*
X5234Y17340D02*
X5795Y17340D01*
X7745Y17340D02*
X12380Y17340D01*
X14770Y17340D02*
X19230Y17340D01*
X21620Y17340D02*
X25036Y17340D01*
X29173Y17340D02*
X36500Y17340D01*
X0500Y17390D02*
X3226Y17390D01*
X5234Y17390D02*
X5789Y17390D01*
X7751Y17390D02*
X12406Y17390D01*
X14743Y17390D02*
X19257Y17390D01*
X21594Y17390D02*
X25002Y17390D01*
X29123Y17390D02*
X36500Y17390D01*
X0500Y17439D02*
X3226Y17439D01*
X5234Y17439D02*
X5783Y17439D01*
X7757Y17439D02*
X12443Y17439D01*
X14707Y17439D02*
X19293Y17439D01*
X21557Y17439D02*
X24979Y17439D01*
X29074Y17439D02*
X36500Y17439D01*
X0500Y17489D02*
X3226Y17489D01*
X5234Y17489D02*
X5777Y17489D01*
X7763Y17489D02*
X12483Y17489D01*
X14666Y17489D02*
X19334Y17489D01*
X21517Y17489D02*
X24961Y17489D01*
X29024Y17489D02*
X36500Y17489D01*
X0500Y17538D02*
X3226Y17538D01*
X5234Y17538D02*
X5771Y17538D01*
X7769Y17538D02*
X12461Y17538D01*
X14689Y17538D02*
X19311Y17538D01*
X21539Y17538D02*
X24951Y17538D01*
X28975Y17538D02*
X36500Y17538D01*
X0500Y17588D02*
X3226Y17588D01*
X5234Y17588D02*
X5766Y17588D01*
X7774Y17588D02*
X12420Y17588D01*
X14729Y17588D02*
X19271Y17588D01*
X21580Y17588D02*
X24945Y17588D01*
X28925Y17588D02*
X36500Y17588D01*
X0500Y17637D02*
X3226Y17637D01*
X5234Y17637D02*
X5773Y17637D01*
X7767Y17637D02*
X12392Y17637D01*
X14758Y17637D02*
X19242Y17637D01*
X21608Y17637D02*
X24944Y17637D01*
X28875Y17637D02*
X36500Y17637D01*
X0500Y17687D02*
X3226Y17687D01*
X5234Y17687D02*
X5779Y17687D01*
X7761Y17687D02*
X12370Y17687D01*
X14779Y17687D02*
X19221Y17687D01*
X21630Y17687D02*
X24950Y17687D01*
X28826Y17687D02*
X36500Y17687D01*
X0500Y17736D02*
X3226Y17736D01*
X5234Y17736D02*
X5785Y17736D01*
X7755Y17736D02*
X12599Y17736D01*
X14551Y17736D02*
X19206Y17736D01*
X21645Y17736D02*
X24960Y17736D01*
X28776Y17736D02*
X36500Y17736D01*
X0500Y17786D02*
X3226Y17786D01*
X5234Y17786D02*
X5791Y17786D01*
X7749Y17786D02*
X12599Y17786D01*
X14551Y17786D02*
X19199Y17786D01*
X21651Y17786D02*
X24979Y17786D01*
X28727Y17786D02*
X36500Y17786D01*
X0500Y17835D02*
X3226Y17835D01*
X5234Y17835D02*
X5800Y17835D01*
X7740Y17835D02*
X12599Y17835D01*
X14551Y17835D02*
X19196Y17835D01*
X21654Y17835D02*
X25000Y17835D01*
X28676Y17835D02*
X28870Y17835D01*
X29570Y17835D02*
X29970Y17835D01*
X30670Y17835D02*
X36500Y17835D01*
X0500Y17885D02*
X3226Y17885D01*
X5234Y17885D02*
X5819Y17885D01*
X7721Y17885D02*
X12599Y17885D01*
X14551Y17885D02*
X19201Y17885D01*
X21649Y17885D02*
X25034Y17885D01*
X28605Y17885D02*
X28792Y17885D01*
X29570Y17885D02*
X29970Y17885D01*
X30744Y17885D02*
X36500Y17885D01*
X0500Y17935D02*
X3226Y17935D01*
X5234Y17935D02*
X5838Y17935D01*
X7702Y17935D02*
X12362Y17935D01*
X14788Y17935D02*
X19212Y17935D01*
X21638Y17935D02*
X25076Y17935D01*
X25724Y17935D02*
X26217Y17935D01*
X28243Y17935D02*
X28762Y17935D01*
X29570Y17935D02*
X29970Y17935D01*
X30778Y17935D02*
X36500Y17935D01*
X0500Y17984D02*
X3226Y17984D01*
X5234Y17984D02*
X5857Y17984D01*
X7683Y17984D02*
X12377Y17984D01*
X14773Y17984D02*
X19227Y17984D01*
X21623Y17984D02*
X25132Y17984D01*
X25668Y17984D02*
X26205Y17984D01*
X28255Y17984D02*
X28745Y17984D01*
X29570Y17984D02*
X29970Y17984D01*
X30795Y17984D02*
X36500Y17984D01*
X0500Y18034D02*
X3226Y18034D01*
X5234Y18034D02*
X5876Y18034D01*
X7664Y18034D02*
X12403Y18034D01*
X14746Y18034D02*
X15214Y18034D01*
X15436Y18034D02*
X19254Y18034D01*
X21597Y18034D02*
X25221Y18034D01*
X25579Y18034D02*
X26201Y18034D01*
X28259Y18034D02*
X28741Y18034D01*
X29570Y18034D02*
X29970Y18034D01*
X30799Y18034D02*
X36500Y18034D01*
X0500Y18083D02*
X3226Y18083D01*
X5234Y18083D02*
X5906Y18083D01*
X7634Y18083D02*
X12438Y18083D01*
X14712Y18083D02*
X15092Y18083D01*
X15558Y18083D02*
X19288Y18083D01*
X21562Y18083D02*
X26201Y18083D01*
X28259Y18083D02*
X28741Y18083D01*
X30799Y18083D02*
X36500Y18083D01*
X0500Y18133D02*
X3226Y18133D01*
X5234Y18133D02*
X5940Y18133D01*
X7600Y18133D02*
X12478Y18133D01*
X14718Y18133D02*
X15025Y18133D01*
X15625Y18133D02*
X19329Y18133D01*
X21522Y18133D02*
X26201Y18133D01*
X28259Y18133D02*
X28741Y18133D01*
X30799Y18133D02*
X36500Y18133D01*
X0500Y18182D02*
X3226Y18182D01*
X5234Y18182D02*
X5974Y18182D01*
X7566Y18182D02*
X12466Y18182D01*
X15676Y18182D02*
X19316Y18182D01*
X21534Y18182D02*
X26201Y18182D01*
X28259Y18182D02*
X28741Y18182D01*
X30799Y18182D02*
X36500Y18182D01*
X0500Y18232D02*
X3226Y18232D01*
X5234Y18232D02*
X6008Y18232D01*
X7532Y18232D02*
X12425Y18232D01*
X15710Y18232D02*
X19276Y18232D01*
X21575Y18232D02*
X26201Y18232D01*
X28259Y18232D02*
X28741Y18232D01*
X30799Y18232D02*
X36500Y18232D01*
X0500Y18281D02*
X3226Y18281D01*
X5234Y18281D02*
X6058Y18281D01*
X7482Y18281D02*
X12395Y18281D01*
X15738Y18281D02*
X19246Y18281D01*
X21605Y18281D02*
X26201Y18281D01*
X28259Y18281D02*
X28741Y18281D01*
X30799Y18281D02*
X36500Y18281D01*
X0500Y18331D02*
X3226Y18331D01*
X5234Y18331D02*
X6114Y18331D01*
X7426Y18331D02*
X12372Y18331D01*
X15757Y18331D02*
X19222Y18331D01*
X21628Y18331D02*
X26201Y18331D01*
X28259Y18331D02*
X28741Y18331D01*
X30799Y18331D02*
X36500Y18331D01*
X0500Y18380D02*
X3226Y18380D01*
X5234Y18380D02*
X6170Y18380D01*
X7370Y18380D02*
X12357Y18380D01*
X15772Y18380D02*
X19207Y18380D01*
X21643Y18380D02*
X26201Y18380D01*
X28259Y18380D02*
X28741Y18380D01*
X30799Y18380D02*
X36500Y18380D01*
X0500Y18430D02*
X3232Y18430D01*
X5228Y18430D02*
X6244Y18430D01*
X7296Y18430D02*
X12349Y18430D01*
X15778Y18430D02*
X19200Y18430D01*
X21651Y18430D02*
X26201Y18430D01*
X28259Y18430D02*
X28741Y18430D01*
X30799Y18430D02*
X36500Y18430D01*
X0500Y18479D02*
X3252Y18479D01*
X5208Y18479D02*
X6338Y18479D01*
X7202Y18479D02*
X12345Y18479D01*
X15783Y18479D02*
X19196Y18479D01*
X21655Y18479D02*
X26201Y18479D01*
X28259Y18479D02*
X28741Y18479D01*
X30799Y18479D02*
X36500Y18479D01*
X0500Y18529D02*
X3291Y18529D01*
X5169Y18529D02*
X6453Y18529D01*
X7087Y18529D02*
X12350Y18529D01*
X15777Y18529D02*
X19201Y18529D01*
X21650Y18529D02*
X26201Y18529D01*
X28259Y18529D02*
X28741Y18529D01*
X30799Y18529D02*
X36500Y18529D01*
X0500Y18578D02*
X3383Y18578D01*
X5077Y18578D02*
X12360Y18578D01*
X15771Y18578D02*
X19210Y18578D01*
X21640Y18578D02*
X26201Y18578D01*
X28259Y18578D02*
X28741Y18578D01*
X30799Y18578D02*
X36500Y18578D01*
X0500Y18628D02*
X12375Y18628D01*
X15754Y18628D02*
X19225Y18628D01*
X21625Y18628D02*
X26201Y18628D01*
X28259Y18628D02*
X28741Y18628D01*
X30799Y18628D02*
X36500Y18628D01*
X0500Y18678D02*
X12400Y18678D01*
X15735Y18678D02*
X19250Y18678D01*
X21600Y18678D02*
X26201Y18678D01*
X28259Y18678D02*
X28996Y18678D01*
X30544Y18678D02*
X36500Y18678D01*
X0500Y18727D02*
X12433Y18727D01*
X15704Y18727D02*
X19283Y18727D01*
X21567Y18727D02*
X26201Y18727D01*
X28259Y18727D02*
X28996Y18727D01*
X30544Y18727D02*
X36500Y18727D01*
X0500Y18777D02*
X12473Y18777D01*
X15670Y18777D02*
X19324Y18777D01*
X21527Y18777D02*
X26456Y18777D01*
X28004Y18777D02*
X28996Y18777D01*
X30544Y18777D02*
X36500Y18777D01*
X0500Y18826D02*
X12471Y18826D01*
X14714Y18826D02*
X15035Y18826D01*
X15615Y18826D02*
X19321Y18826D01*
X21529Y18826D02*
X26456Y18826D01*
X28004Y18826D02*
X28996Y18826D01*
X30544Y18826D02*
X36500Y18826D01*
X0500Y18876D02*
X12430Y18876D01*
X14719Y18876D02*
X15109Y18876D01*
X15541Y18876D02*
X19281Y18876D01*
X21570Y18876D02*
X26456Y18876D01*
X28004Y18876D02*
X28996Y18876D01*
X30544Y18876D02*
X36500Y18876D01*
X0500Y18925D02*
X12399Y18925D01*
X14751Y18925D02*
X15250Y18925D01*
X15400Y18925D02*
X19249Y18925D01*
X21601Y18925D02*
X26456Y18925D01*
X28004Y18925D02*
X28996Y18925D01*
X30544Y18925D02*
X36500Y18925D01*
X0500Y18975D02*
X12374Y18975D01*
X14776Y18975D02*
X19224Y18975D01*
X21626Y18975D02*
X26201Y18975D01*
X28259Y18975D02*
X28996Y18975D01*
X30544Y18975D02*
X36500Y18975D01*
X0500Y19024D02*
X12359Y19024D01*
X14791Y19024D02*
X19209Y19024D01*
X21641Y19024D02*
X26201Y19024D01*
X28259Y19024D02*
X28996Y19024D01*
X30544Y19024D02*
X36500Y19024D01*
X0500Y19074D02*
X12350Y19074D01*
X14800Y19074D02*
X19200Y19074D01*
X21650Y19074D02*
X26201Y19074D01*
X28259Y19074D02*
X28741Y19074D01*
X30799Y19074D02*
X36500Y19074D01*
X0500Y19123D02*
X12345Y19123D01*
X14805Y19123D02*
X19195Y19123D01*
X21655Y19123D02*
X26201Y19123D01*
X28259Y19123D02*
X28741Y19123D01*
X30799Y19123D02*
X36500Y19123D01*
X0500Y19173D02*
X12350Y19173D01*
X14800Y19173D02*
X19200Y19173D01*
X21650Y19173D02*
X26201Y19173D01*
X28259Y19173D02*
X28741Y19173D01*
X30799Y19173D02*
X36500Y19173D01*
X0500Y19222D02*
X12358Y19222D01*
X14792Y19222D02*
X19208Y19222D01*
X21642Y19222D02*
X26201Y19222D01*
X28259Y19222D02*
X28741Y19222D01*
X30799Y19222D02*
X36500Y19222D01*
X0500Y19272D02*
X12373Y19272D01*
X14777Y19272D02*
X19223Y19272D01*
X21627Y19272D02*
X26201Y19272D01*
X28259Y19272D02*
X28741Y19272D01*
X30799Y19272D02*
X36500Y19272D01*
X0500Y19321D02*
X12397Y19321D01*
X14753Y19321D02*
X19247Y19321D01*
X21603Y19321D02*
X25339Y19321D01*
X25461Y19321D02*
X26201Y19321D01*
X28259Y19321D02*
X28741Y19321D01*
X30799Y19321D02*
X36500Y19321D01*
X0500Y19371D02*
X12428Y19371D01*
X14722Y19371D02*
X19278Y19371D01*
X21572Y19371D02*
X25191Y19371D01*
X25609Y19371D02*
X26201Y19371D01*
X28259Y19371D02*
X28741Y19371D01*
X30799Y19371D02*
X36500Y19371D01*
X0500Y19420D02*
X12468Y19420D01*
X14681Y19420D02*
X19319Y19420D01*
X21563Y19420D02*
X25114Y19420D01*
X25686Y19420D02*
X26201Y19420D01*
X28259Y19420D02*
X28741Y19420D01*
X30799Y19420D02*
X36500Y19420D01*
X0500Y19470D02*
X12476Y19470D01*
X14674Y19470D02*
X19326Y19470D01*
X25742Y19470D02*
X26201Y19470D01*
X28259Y19470D02*
X28741Y19470D01*
X30799Y19470D02*
X36500Y19470D01*
X0500Y19520D02*
X12435Y19520D01*
X14714Y19520D02*
X19286Y19520D01*
X25777Y19520D02*
X26201Y19520D01*
X28259Y19520D02*
X28741Y19520D01*
X30799Y19520D02*
X36500Y19520D01*
X0500Y19569D02*
X12402Y19569D01*
X14748Y19569D02*
X19252Y19569D01*
X25809Y19569D02*
X26201Y19569D01*
X28259Y19569D02*
X28741Y19569D01*
X30799Y19569D02*
X36500Y19569D01*
X0500Y19619D02*
X12376Y19619D01*
X14774Y19619D02*
X19226Y19619D01*
X25827Y19619D02*
X26201Y19619D01*
X28259Y19619D02*
X28741Y19619D01*
X30799Y19619D02*
X36500Y19619D01*
X0500Y19668D02*
X12361Y19668D01*
X14789Y19668D02*
X19211Y19668D01*
X25845Y19668D02*
X26201Y19668D01*
X27129Y19668D02*
X27331Y19668D01*
X28259Y19668D02*
X28741Y19668D01*
X29570Y19668D02*
X29970Y19668D01*
X30799Y19668D02*
X36500Y19668D01*
X0500Y19718D02*
X12599Y19718D01*
X14551Y19718D02*
X19201Y19718D01*
X25851Y19718D02*
X26206Y19718D01*
X27129Y19718D02*
X27331Y19718D01*
X28254Y19718D02*
X28746Y19718D01*
X29570Y19718D02*
X29970Y19718D01*
X30794Y19718D02*
X36500Y19718D01*
X0500Y19767D02*
X12599Y19767D01*
X14551Y19767D02*
X19196Y19767D01*
X25858Y19767D02*
X26223Y19767D01*
X27129Y19767D02*
X27331Y19767D01*
X28237Y19767D02*
X28763Y19767D01*
X29570Y19767D02*
X29970Y19767D01*
X30777Y19767D02*
X36500Y19767D01*
X0500Y19817D02*
X12599Y19817D01*
X14551Y19817D02*
X19199Y19817D01*
X25853Y19817D02*
X26258Y19817D01*
X27129Y19817D02*
X27331Y19817D01*
X28202Y19817D02*
X28798Y19817D01*
X29570Y19817D02*
X29970Y19817D01*
X30742Y19817D02*
X36500Y19817D01*
X0500Y19866D02*
X12599Y19866D01*
X14551Y19866D02*
X19206Y19866D01*
X25847Y19866D02*
X26334Y19866D01*
X27129Y19866D02*
X27331Y19866D01*
X28126Y19866D02*
X28874Y19866D01*
X29570Y19866D02*
X29970Y19866D01*
X30666Y19866D02*
X36500Y19866D01*
X0500Y19916D02*
X12371Y19916D01*
X14779Y19916D02*
X19221Y19916D01*
X25833Y19916D02*
X36500Y19916D01*
X0500Y19965D02*
X12393Y19965D01*
X14756Y19965D02*
X19244Y19965D01*
X25815Y19965D02*
X36500Y19965D01*
X0500Y20015D02*
X12423Y20015D01*
X14727Y20015D02*
X16802Y20015D01*
X17198Y20015D02*
X19273Y20015D01*
X25787Y20015D02*
X36500Y20015D01*
X0500Y20064D02*
X12463Y20064D01*
X14710Y20064D02*
X16721Y20064D01*
X17279Y20064D02*
X19314Y20064D01*
X25753Y20064D02*
X36500Y20064D01*
X0500Y20114D02*
X12481Y20114D01*
X14733Y20114D02*
X16665Y20114D01*
X17335Y20114D02*
X19331Y20114D01*
X21570Y20114D02*
X25096Y20114D01*
X25704Y20114D02*
X36500Y20114D01*
X0500Y20163D02*
X12440Y20163D01*
X17372Y20163D02*
X19291Y20163D01*
X21560Y20163D02*
X25161Y20163D01*
X25639Y20163D02*
X36500Y20163D01*
X0500Y20213D02*
X12405Y20213D01*
X17406Y20213D02*
X19255Y20213D01*
X21595Y20213D02*
X25275Y20213D01*
X25525Y20213D02*
X33846Y20213D01*
X34154Y20213D02*
X36500Y20213D01*
X0500Y20262D02*
X12379Y20262D01*
X17425Y20262D02*
X19229Y20262D01*
X21621Y20262D02*
X33536Y20262D01*
X34463Y20262D02*
X36500Y20262D01*
X0500Y20312D02*
X12363Y20312D01*
X17444Y20312D02*
X19213Y20312D01*
X21637Y20312D02*
X33395Y20312D01*
X34605Y20312D02*
X36500Y20312D01*
X0500Y20362D02*
X12351Y20362D01*
X17451Y20362D02*
X19202Y20362D01*
X21649Y20362D02*
X33253Y20362D01*
X34747Y20362D02*
X36500Y20362D01*
X0500Y20411D02*
X12346Y20411D01*
X17457Y20411D02*
X19197Y20411D01*
X21654Y20411D02*
X33158Y20411D01*
X34842Y20411D02*
X36500Y20411D01*
X0500Y20461D02*
X12348Y20461D01*
X17454Y20461D02*
X19199Y20461D01*
X21652Y20461D02*
X33080Y20461D01*
X34920Y20461D02*
X36500Y20461D01*
X0500Y20510D02*
X12354Y20510D01*
X17448Y20510D02*
X19205Y20510D01*
X21646Y20510D02*
X33001Y20510D01*
X34999Y20510D02*
X36500Y20510D01*
X0500Y20560D02*
X12369Y20560D01*
X17436Y20560D02*
X19220Y20560D01*
X21631Y20560D02*
X32922Y20560D01*
X35078Y20560D02*
X36500Y20560D01*
X0500Y20609D02*
X12390Y20609D01*
X17417Y20609D02*
X19240Y20609D01*
X21610Y20609D02*
X32855Y20609D01*
X35145Y20609D02*
X36500Y20609D01*
X0500Y20659D02*
X11139Y20659D01*
X11511Y20659D02*
X12418Y20659D01*
X17392Y20659D02*
X19268Y20659D01*
X21582Y20659D02*
X32805Y20659D01*
X35195Y20659D02*
X36500Y20659D01*
X0500Y20708D02*
X11053Y20708D01*
X11597Y20708D02*
X12443Y20708D01*
X17357Y20708D02*
X19309Y20708D01*
X21542Y20708D02*
X32756Y20708D01*
X35244Y20708D02*
X36500Y20708D01*
X0500Y20758D02*
X10997Y20758D01*
X11653Y20758D02*
X12420Y20758D01*
X14723Y20758D02*
X16689Y20758D01*
X17311Y20758D02*
X19336Y20758D01*
X21514Y20758D02*
X32706Y20758D01*
X35294Y20758D02*
X36500Y20758D01*
X0500Y20807D02*
X10957Y20807D01*
X14704Y20807D02*
X16749Y20807D01*
X17251Y20807D02*
X19296Y20807D01*
X21555Y20807D02*
X32657Y20807D01*
X35343Y20807D02*
X36500Y20807D01*
X0500Y20857D02*
X10923Y20857D01*
X14741Y20857D02*
X16850Y20857D01*
X17150Y20857D02*
X19259Y20857D01*
X21592Y20857D02*
X32607Y20857D01*
X35393Y20857D02*
X36500Y20857D01*
X0500Y20906D02*
X10902Y20906D01*
X14768Y20906D02*
X19232Y20906D01*
X21618Y20906D02*
X32569Y20906D01*
X35431Y20906D02*
X36500Y20906D01*
X0500Y20956D02*
X10883Y20956D01*
X14785Y20956D02*
X19215Y20956D01*
X21635Y20956D02*
X32538Y20956D01*
X35462Y20956D02*
X36500Y20956D01*
X0500Y21005D02*
X10875Y21005D01*
X14798Y21005D02*
X19202Y21005D01*
X21648Y21005D02*
X32507Y21005D01*
X35493Y21005D02*
X36500Y21005D01*
X0500Y21055D02*
X10869Y21055D01*
X14803Y21055D02*
X19197Y21055D01*
X21653Y21055D02*
X32476Y21055D01*
X35524Y21055D02*
X36500Y21055D01*
X0500Y21104D02*
X10870Y21104D01*
X14802Y21104D02*
X19198Y21104D01*
X21652Y21104D02*
X32445Y21104D01*
X35555Y21104D02*
X36500Y21104D01*
X0500Y21154D02*
X10876Y21154D01*
X14797Y21154D02*
X19203Y21154D01*
X21647Y21154D02*
X32414Y21154D01*
X35586Y21154D02*
X36500Y21154D01*
X0500Y21204D02*
X10887Y21204D01*
X14782Y21204D02*
X19218Y21204D01*
X21633Y21204D02*
X32383Y21204D01*
X35617Y21204D02*
X36500Y21204D01*
X0500Y21253D02*
X10869Y21253D01*
X14763Y21253D02*
X19237Y21253D01*
X21613Y21253D02*
X32362Y21253D01*
X35638Y21253D02*
X36500Y21253D01*
X0500Y21303D02*
X10506Y21303D01*
X14736Y21303D02*
X19264Y21303D01*
X21587Y21303D02*
X32344Y21303D01*
X35656Y21303D02*
X36500Y21303D01*
X0500Y21352D02*
X10423Y21352D01*
X14697Y21352D02*
X19303Y21352D01*
X21547Y21352D02*
X32327Y21352D01*
X35673Y21352D02*
X36500Y21352D01*
X0500Y21402D02*
X10367Y21402D01*
X14659Y21402D02*
X19341Y21402D01*
X21509Y21402D02*
X32310Y21402D01*
X35690Y21402D02*
X36500Y21402D01*
X0500Y21451D02*
X10329Y21451D01*
X14699Y21451D02*
X19301Y21451D01*
X21550Y21451D02*
X32292Y21451D01*
X35708Y21451D02*
X36500Y21451D01*
X0500Y21501D02*
X10295Y21501D01*
X14738Y21501D02*
X19262Y21501D01*
X21588Y21501D02*
X32275Y21501D01*
X35725Y21501D02*
X36500Y21501D01*
X0500Y21550D02*
X10276Y21550D01*
X14765Y21550D02*
X19235Y21550D01*
X21615Y21550D02*
X32258Y21550D01*
X35742Y21550D02*
X36500Y21550D01*
X0500Y21600D02*
X10257Y21600D01*
X14783Y21600D02*
X19217Y21600D01*
X21634Y21600D02*
X32241Y21600D01*
X35759Y21600D02*
X36500Y21600D01*
X0500Y21649D02*
X10249Y21649D01*
X14797Y21649D02*
X19203Y21649D01*
X21648Y21649D02*
X32235Y21649D01*
X35765Y21649D02*
X36500Y21649D01*
X0500Y21699D02*
X10243Y21699D01*
X14802Y21699D02*
X19198Y21699D01*
X21652Y21699D02*
X32229Y21699D01*
X35771Y21699D02*
X36500Y21699D01*
X0500Y21748D02*
X10246Y21748D01*
X14802Y21748D02*
X19198Y21748D01*
X21653Y21748D02*
X32224Y21748D01*
X35776Y21748D02*
X36500Y21748D01*
X0500Y21798D02*
X10252Y21798D01*
X14798Y21798D02*
X19202Y21798D01*
X21648Y21798D02*
X32218Y21798D01*
X35782Y21798D02*
X36500Y21798D01*
X0500Y21847D02*
X10264Y21847D01*
X14784Y21847D02*
X19216Y21847D01*
X21634Y21847D02*
X32213Y21847D01*
X35787Y21847D02*
X36500Y21847D01*
X0500Y21897D02*
X10282Y21897D01*
X14766Y21897D02*
X19234Y21897D01*
X21616Y21897D02*
X32207Y21897D01*
X35793Y21897D02*
X36500Y21897D01*
X0500Y21946D02*
X10307Y21946D01*
X14740Y21946D02*
X19260Y21946D01*
X21590Y21946D02*
X32202Y21946D01*
X35798Y21946D02*
X36500Y21946D01*
X0500Y21996D02*
X10341Y21996D01*
X14702Y21996D02*
X19298Y21996D01*
X21552Y21996D02*
X32196Y21996D01*
X35804Y21996D02*
X36500Y21996D01*
X0500Y22046D02*
X10387Y22046D01*
X11013Y22046D02*
X12500Y22046D01*
X14650Y22046D02*
X19350Y22046D01*
X21500Y22046D02*
X32201Y22046D01*
X35799Y22046D02*
X36500Y22046D01*
X0500Y22095D02*
X10446Y22095D01*
X10954Y22095D02*
X12576Y22095D01*
X14573Y22095D02*
X19427Y22095D01*
X21424Y22095D02*
X32206Y22095D01*
X35794Y22095D02*
X36500Y22095D01*
X0500Y22145D02*
X10543Y22145D01*
X10857Y22145D02*
X32212Y22145D01*
X35788Y22145D02*
X36500Y22145D01*
X0500Y22194D02*
X32217Y22194D01*
X35783Y22194D02*
X36500Y22194D01*
X0500Y22244D02*
X32223Y22244D01*
X35777Y22244D02*
X36500Y22244D01*
X0500Y22293D02*
X32229Y22293D01*
X35771Y22293D02*
X36500Y22293D01*
X0500Y22343D02*
X32234Y22343D01*
X35766Y22343D02*
X36500Y22343D01*
X0500Y22392D02*
X32240Y22392D01*
X35760Y22392D02*
X36500Y22392D01*
X0500Y22442D02*
X32255Y22442D01*
X35745Y22442D02*
X36500Y22442D01*
X0500Y22491D02*
X32272Y22491D01*
X35728Y22491D02*
X36500Y22491D01*
X0500Y22541D02*
X32290Y22541D01*
X35710Y22541D02*
X36500Y22541D01*
X0500Y22590D02*
X32307Y22590D01*
X35693Y22590D02*
X36500Y22590D01*
X0500Y22640D02*
X32324Y22640D01*
X35676Y22640D02*
X36500Y22640D01*
X0500Y22689D02*
X32342Y22689D01*
X35658Y22689D02*
X36500Y22689D01*
X0500Y22739D02*
X32359Y22739D01*
X35641Y22739D02*
X36500Y22739D01*
X0500Y22788D02*
X32378Y22788D01*
X35622Y22788D02*
X36500Y22788D01*
X0500Y22838D02*
X32409Y22838D01*
X35591Y22838D02*
X36500Y22838D01*
X0500Y22888D02*
X32440Y22888D01*
X35560Y22888D02*
X36500Y22888D01*
X0500Y22937D02*
X32471Y22937D01*
X35529Y22937D02*
X36500Y22937D01*
X0500Y22987D02*
X32502Y22987D01*
X35498Y22987D02*
X36500Y22987D01*
X0500Y23036D02*
X32533Y23036D01*
X35467Y23036D02*
X36500Y23036D01*
X0500Y23086D02*
X32564Y23086D01*
X35436Y23086D02*
X36500Y23086D01*
X0500Y23135D02*
X32599Y23135D01*
X35401Y23135D02*
X36500Y23135D01*
X0500Y23185D02*
X32649Y23185D01*
X35351Y23185D02*
X36500Y23185D01*
X0500Y23234D02*
X32698Y23234D01*
X35302Y23234D02*
X36500Y23234D01*
X0500Y23284D02*
X32748Y23284D01*
X35252Y23284D02*
X36500Y23284D01*
X0500Y23333D02*
X32797Y23333D01*
X35203Y23333D02*
X36500Y23333D01*
X0500Y23383D02*
X32847Y23383D01*
X35153Y23383D02*
X36500Y23383D01*
X0500Y23432D02*
X32909Y23432D01*
X35091Y23432D02*
X36500Y23432D01*
X0500Y23482D02*
X32988Y23482D01*
X35012Y23482D02*
X36500Y23482D01*
X0500Y23531D02*
X33067Y23531D01*
X34933Y23531D02*
X36500Y23531D01*
X0500Y23581D02*
X33146Y23581D01*
X34854Y23581D02*
X36500Y23581D01*
X0500Y23631D02*
X33231Y23631D01*
X34769Y23631D02*
X36500Y23631D01*
X0500Y23680D02*
X33372Y23680D01*
X34628Y23680D02*
X36500Y23680D01*
X0500Y23730D02*
X33514Y23730D01*
X34486Y23730D02*
X36500Y23730D01*
X0500Y23779D02*
X33775Y23779D01*
X34225Y23779D02*
X36500Y23779D01*
X0500Y23829D02*
X36500Y23829D01*
X0500Y23878D02*
X36500Y23878D01*
X0500Y23928D02*
X36500Y23928D01*
X0500Y23977D02*
X36500Y23977D01*
X0500Y24027D02*
X36500Y24027D01*
X0500Y24076D02*
X36500Y24076D01*
X0500Y24126D02*
X36500Y24126D01*
X0500Y24175D02*
X36500Y24175D01*
X0500Y24225D02*
X36500Y24225D01*
X0500Y24274D02*
X36500Y24274D01*
X0500Y24324D02*
X36500Y24324D01*
X0500Y24373D02*
X36500Y24373D01*
X0500Y24423D02*
X36500Y24423D01*
X0500Y24473D02*
X36500Y24473D01*
X21712Y16345D02*
X21712Y16345D01*
X21621Y16362*
X21585Y16295*
X21585Y16295*
X21551Y16253*
X21586Y16181*
X21732Y16181*
X21712Y16345*
X21562Y16230D02*
X21726Y16230D01*
X21573Y16280D02*
X21720Y16280D01*
X21603Y16329D02*
X21714Y16329D01*
%LNtop copper_traces*%
D11*
X13575Y20425D02*
X17000Y20425D01*
X20425Y19775D02*
X25400Y19775D01*
X27230Y16310D02*
X22179Y16310D01*
X20425Y8775D02*
X22175Y8775D01*
X28466Y12450D02*
X29686Y11230D01*
X18825Y4225D02*
X20425Y4225D01*
X20425Y3575D02*
X22900Y3575D01*
X11325Y21075D02*
X13575Y21075D01*
X18950Y15225D02*
X20425Y15225D01*
X22900Y6050D02*
X27230Y6050D01*
X10700Y13800D02*
X5530Y13800D01*
X20425Y2275D02*
X24900Y2275D01*
X13575Y18475D02*
X15325Y18475D01*
X28466Y7264D02*
X29580Y6150D01*
X20425Y12450D02*
X20425Y13064D01*
X24900Y11230D02*
X27230Y11230D01*
X23900Y8690D02*
X27230Y8690D01*
X20425Y15875D02*
X24350Y15875D01*
X6770Y15040D02*
X11325Y15040D01*
X15325Y7475D02*
X13575Y7475D01*
X20425Y4875D02*
X23900Y4875D01*
X28466Y10075D02*
X29770Y8771D01*
X28466Y17614D02*
X29770Y16310D01*
X10700Y21715D02*
X13565Y21715D01*
X11325Y10075D02*
X13575Y10075D01*
X4230Y12500D02*
X5530Y13800D01*
X25400Y17614D02*
X28466Y17614D01*
X20425Y14575D02*
X23175Y14575D01*
X20425Y12450D02*
X28466Y12450D01*
X5504Y16314D02*
X11325Y16314D01*
X23400Y7264D02*
X28500Y7264D01*
X5504Y16314D02*
X4230Y15040D01*
X24400Y10075D02*
X28466Y10075D01*
X13575Y9425D02*
X17000Y9425D01*
X8545Y10725D02*
X13575Y10725D01*
D12*
X16000Y12000D03*
X25400Y17614D03*
X23400Y7264D03*
X24350Y15875D03*
X23900Y4875D03*
X24900Y11230D03*
X10700Y13800D03*
X9000Y0750D03*
X14000Y12000D03*
X13000Y12000D03*
X22900Y6050D03*
X17000Y20425D03*
X17000Y2064D03*
X22175Y16310D03*
X18825Y4225D03*
X15000Y0750D03*
X15325Y7475D03*
X11000Y0750D03*
X21000Y12000D03*
X11325Y21075D03*
X8545Y10725D03*
X2230Y17580D03*
X7000Y0750D03*
X17000Y0750D03*
X21000Y0750D03*
X23400Y14575D03*
X11325Y16325D03*
X13000Y0750D03*
X19000Y0750D03*
X18950Y15225D03*
X15325Y18475D03*
X17000Y9425D03*
X23000Y0750D03*
X8770Y17580D03*
X25000Y0750D03*
X22900Y3575D03*
X17000Y13275D03*
X23400Y18475D03*
X23900Y8690D03*
X11325Y15040D03*
X17000Y12000D03*
X22175Y8775D03*
X3000Y0750D03*
X24900Y2275D03*
X20000Y12000D03*
X1000Y0750D03*
X5000Y0750D03*
X24400Y10075D03*
X29000Y0750D03*
X18000Y12000D03*
X25400Y19775D03*
X19000Y12000D03*
X11325Y10075D03*
X10700Y21715D03*
X27000Y0750D03*
%LNtop copper component 496cb8801b6f2685*%
D13*
X20425Y2275D03*
D14*
X20425Y2925D03*
X20425Y3575D03*
X20425Y4225D03*
X20425Y4875D03*
X20425Y5525D03*
X20425Y6175D03*
X20425Y6825D03*
X20425Y7475D03*
X20425Y8125D03*
X20425Y8775D03*
X20425Y9425D03*
X20425Y10075D03*
X20425Y10725D03*
X13575Y10725D03*
X13575Y10075D03*
X13575Y9425D03*
X13575Y8775D03*
X13575Y8125D03*
X13575Y7475D03*
X13575Y6825D03*
X13575Y6175D03*
X13575Y5525D03*
X13575Y4875D03*
X13575Y4225D03*
X13575Y3575D03*
X13575Y2925D03*
X13575Y2275D03*
%LNtop copper component 16f672dc61fb389c*%
D13*
X20425Y13275D03*
D14*
X20425Y13925D03*
X20425Y14575D03*
X20425Y15225D03*
X20425Y15875D03*
X20425Y16525D03*
X20425Y17175D03*
X20425Y17825D03*
X20425Y18475D03*
X20425Y19125D03*
X20425Y19775D03*
X20425Y20425D03*
X20425Y21075D03*
X20425Y21725D03*
X13575Y21725D03*
X13575Y21075D03*
X13575Y20425D03*
X13575Y19775D03*
X13575Y19125D03*
X13575Y18475D03*
X13575Y17825D03*
X13575Y17175D03*
X13575Y16525D03*
X13575Y15875D03*
X13575Y15225D03*
X13575Y14575D03*
X13575Y13925D03*
X13575Y13275D03*
%LNtop copper component 133d3bada370a9dd*%
D15*
X4230Y17580D03*
D16*
X4230Y15040D03*
X4230Y12500D03*
X4230Y9960D03*
X4230Y7420D03*
X6770Y17580D03*
X6770Y15040D03*
X6770Y12500D03*
X6770Y9960D03*
X6770Y7420D03*
%LNtop copper component d35b117345b5d75e*%
D17*
X29770Y18850D03*
D18*
X29770Y16310D03*
X29770Y13770D03*
X29770Y11230D03*
X29770Y8690D03*
X29770Y6150D03*
X27230Y13770D03*
X27230Y16310D03*
D17*
X27230Y18850D03*
D18*
X27230Y6150D03*
X27230Y8690D03*
X27230Y11230D03*
M02*