%FSLAX33Y33*%
%MOMM*%
%AMRR-H1470000-W1285000-R300000-RO1.500*
21,1,0.685,1.47,0.,0.,90*
21,1,1.285,0.87,0.,0.,90*
1,1,0.6,-0.435,-0.3425*
1,1,0.6,-0.435,0.3425*
1,1,0.6,0.435,0.3425*
1,1,0.6,0.435,-0.3425*%
%AMRect-W670710-H1320710-RO0.500*
21,1,0.67071,1.32071,0.,0.,270*%
%AMRect-W670710-H1320710-RO1.500*
21,1,0.67071,1.32071,0.,0.,90*%
%ADD10C,0.508*%
%ADD11RR-H1470000-W1285000-R300000-RO1.500*%
%ADD12Rect-W670710-H1320710-RO0.500*%
%ADD13Rect-W670710-H1320710-RO1.500*%
%ADD14R,1.6X1.6*%
%ADD15C,1.6*%
%ADD16R,1.65X1.65*%
%ADD17C,1.65*%
D10*
%LNbottom solder mask_traces*%
G01*
X16000Y12000D03*
X25400Y17614D03*
X23400Y7264D03*
X24350Y15875D03*
X23900Y4875D03*
X24900Y11230D03*
X10700Y13800D03*
X9000Y0750D03*
X14000Y12000D03*
X13000Y12000D03*
X22900Y6050D03*
X17000Y20425D03*
X17000Y2064D03*
X22175Y16310D03*
X18825Y4225D03*
X15000Y0750D03*
X15325Y7475D03*
X11000Y0750D03*
X21000Y12000D03*
X11325Y21075D03*
X8545Y10725D03*
X2230Y17580D03*
X7000Y0750D03*
X17000Y0750D03*
X21000Y0750D03*
X23400Y14575D03*
X11325Y16325D03*
X13000Y0750D03*
X19000Y0750D03*
X18950Y15225D03*
X15325Y18475D03*
X17000Y9425D03*
X23000Y0750D03*
X8770Y17580D03*
X25000Y0750D03*
X22900Y3575D03*
X17000Y13275D03*
X23400Y18475D03*
X23900Y8690D03*
X11325Y15040D03*
X17000Y12000D03*
X22175Y8775D03*
X3000Y0750D03*
X24900Y2275D03*
X20000Y12000D03*
X1000Y0750D03*
X5000Y0750D03*
X24400Y10075D03*
X29000Y0750D03*
X18000Y12000D03*
X25400Y19775D03*
X19000Y12000D03*
X11325Y10075D03*
X10700Y21715D03*
X27000Y0750D03*
%LNbottom solder mask component da4715df17963b43*%
D11*
X5000Y20027D03*
X5000Y21973D03*
%LNbottom solder mask component a382895390425a59*%
D12*
X7000Y22050D03*
X7000Y19950D03*
%LNbottom solder mask component c67acca82e982272*%
D13*
X9000Y19950D03*
X9000Y22050D03*
%LNbottom solder mask component 37d77bcb1c3adade*%
D12*
X3000Y22050D03*
X3000Y19950D03*
%LNbottom solder mask component d124a8ff4e911a43*%
X17000Y7550D03*
X17000Y5450D03*
%LNbottom solder mask component 133d3bada370a9dd*%
D14*
X4230Y17580D03*
D15*
X4230Y15040D03*
X4230Y12500D03*
X4230Y9960D03*
X4230Y7420D03*
X6770Y17580D03*
X6770Y15040D03*
X6770Y12500D03*
X6770Y9960D03*
X6770Y7420D03*
%LNbottom solder mask component 28ac0c2b65682105*%
D12*
X17000Y18550D03*
X17000Y16450D03*
%LNbottom solder mask component d35b117345b5d75e*%
D16*
X29770Y18850D03*
D17*
X29770Y16310D03*
X29770Y13770D03*
X29770Y11230D03*
X29770Y8690D03*
X29770Y6150D03*
X27230Y13770D03*
X27230Y16310D03*
D16*
X27230Y18850D03*
D17*
X27230Y6150D03*
X27230Y8690D03*
X27230Y11230D03*
M02*