%FSLAX33Y33*%
%MOMM*%
%ADD10C,0.15*%
%ADD11C,0.5*%
%ADD12C,0.5*%
D10*
%LNbottom silkscreen_traces*%
%LNbottom silkscreen component da4715df17963b43*%
G01*
X4140Y19260D02*
X5860Y19260D01*
X5860Y22740*
X4140Y22740*
X4140Y19260*
G36*
X5527Y23200D02*
X5527Y23916D01*
X5432Y23916D01*
X5432Y23284D01*
X5079Y23284D01*
X5079Y23200D01*
X5527Y23200D01*
X5527Y23200D01*
X4671Y23200D02*
X4759Y23200D01*
X4759Y23760D01*
X4776Y23745D01*
X4796Y23730D01*
X4818Y23715D01*
X4842Y23700D01*
X4868Y23685D01*
X4891Y23673D01*
X4914Y23663D01*
X4935Y23654D01*
X4935Y23739D01*
X4899Y23757D01*
X4866Y23777D01*
X4835Y23799D01*
X4806Y23823D01*
X4780Y23848D01*
X4759Y23872D01*
X4741Y23895D01*
X4728Y23919D01*
X4671Y23919D01*
X4671Y23200D01*
X4671Y23200D01*
G37*
%LNbottom silkscreen component a382895390425a59*%
X7750Y22510D02*
X6250Y22510D01*
X6250Y19490*
X7750Y19490*
X7750Y22510*
G36*
X7087Y23426D02*
X6992Y23402D01*
X7010Y23347D01*
X7034Y23299D01*
X7063Y23258D01*
X7099Y23224D01*
X7140Y23197D01*
X7185Y23178D01*
X7235Y23167D01*
X7288Y23163D01*
X7343Y23166D01*
X7393Y23175D01*
X7438Y23189D01*
X7477Y23210D01*
X7511Y23236D01*
X7540Y23268D01*
X7566Y23304D01*
X7587Y23346D01*
X7603Y23392D01*
X7615Y23439D01*
X7622Y23488D01*
X7625Y23538D01*
X7622Y23592D01*
X7614Y23643D01*
X7601Y23690D01*
X7582Y23733D01*
X7558Y23772D01*
X7530Y23807D01*
X7498Y23836D01*
X7460Y23860D01*
X7420Y23879D01*
X7378Y23892D01*
X7333Y23900D01*
X7287Y23903D01*
X7235Y23900D01*
X7188Y23889D01*
X7145Y23872D01*
X7106Y23848D01*
X7072Y23818D01*
X7044Y23783D01*
X7021Y23741D01*
X7004Y23695D01*
X7097Y23673D01*
X7111Y23709D01*
X7128Y23740D01*
X7147Y23766D01*
X7170Y23786D01*
X7195Y23802D01*
X7223Y23813D01*
X7254Y23820D01*
X7289Y23822D01*
X7328Y23820D01*
X7365Y23812D01*
X7397Y23800D01*
X7427Y23782D01*
X7452Y23761D01*
X7474Y23736D01*
X7491Y23708D01*
X7505Y23676D01*
X7514Y23643D01*
X7521Y23609D01*
X7526Y23574D01*
X7527Y23539D01*
X7525Y23495D01*
X7520Y23453D01*
X7512Y23415D01*
X7500Y23379D01*
X7485Y23347D01*
X7466Y23320D01*
X7444Y23297D01*
X7418Y23278D01*
X7389Y23263D01*
X7359Y23252D01*
X7328Y23246D01*
X7296Y23244D01*
X7258Y23247D01*
X7223Y23255D01*
X7190Y23270D01*
X7161Y23290D01*
X7136Y23315D01*
X7115Y23347D01*
X7099Y23384D01*
X7087Y23426D01*
X7087Y23426D01*
X6449Y23259D02*
X6449Y23175D01*
X6922Y23175D01*
X6922Y23191D01*
X6920Y23206D01*
X6917Y23221D01*
X6912Y23236D01*
X6901Y23260D01*
X6888Y23284D01*
X6872Y23308D01*
X6854Y23331D01*
X6832Y23356D01*
X6805Y23382D01*
X6774Y23410D01*
X6739Y23440D01*
X6685Y23485D01*
X6641Y23525D01*
X6606Y23561D01*
X6581Y23591D01*
X6563Y23619D01*
X6550Y23646D01*
X6543Y23672D01*
X6540Y23697D01*
X6543Y23722D01*
X6550Y23745D01*
X6561Y23766D01*
X6578Y23785D01*
X6598Y23801D01*
X6621Y23812D01*
X6646Y23819D01*
X6675Y23821D01*
X6705Y23819D01*
X6732Y23811D01*
X6756Y23800D01*
X6777Y23783D01*
X6793Y23762D01*
X6805Y23737D01*
X6813Y23709D01*
X6815Y23677D01*
X6905Y23687D01*
X6898Y23734D01*
X6883Y23776D01*
X6863Y23811D01*
X6836Y23841D01*
X6803Y23864D01*
X6765Y23881D01*
X6721Y23890D01*
X6673Y23894D01*
X6624Y23890D01*
X6581Y23879D01*
X6543Y23862D01*
X6510Y23837D01*
X6484Y23806D01*
X6465Y23773D01*
X6454Y23736D01*
X6450Y23695D01*
X6451Y23674D01*
X6454Y23652D01*
X6460Y23631D01*
X6467Y23611D01*
X6478Y23590D01*
X6491Y23568D01*
X6507Y23546D01*
X6526Y23523D01*
X6550Y23498D01*
X6580Y23469D01*
X6617Y23435D01*
X6661Y23397D01*
X6697Y23367D01*
X6726Y23341D01*
X6748Y23322D01*
X6763Y23307D01*
X6774Y23295D01*
X6783Y23283D01*
X6792Y23271D01*
X6800Y23259D01*
X6449Y23259D01*
X6449Y23259D01*
G37*
%LNbottom silkscreen component c67acca82e982272*%
X8250Y19490D02*
X9750Y19490D01*
X9750Y22510*
X8250Y22510*
X8250Y19490*
D11*
X9000Y19240D03*
G36*
X9087Y23426D02*
X8992Y23402D01*
X9010Y23347D01*
X9034Y23299D01*
X9063Y23258D01*
X9099Y23224D01*
X9140Y23197D01*
X9185Y23178D01*
X9235Y23167D01*
X9288Y23163D01*
X9343Y23166D01*
X9393Y23175D01*
X9438Y23189D01*
X9477Y23210D01*
X9511Y23236D01*
X9540Y23268D01*
X9566Y23304D01*
X9587Y23346D01*
X9603Y23392D01*
X9615Y23439D01*
X9622Y23488D01*
X9625Y23538D01*
X9622Y23592D01*
X9614Y23643D01*
X9601Y23690D01*
X9582Y23733D01*
X9558Y23772D01*
X9530Y23807D01*
X9498Y23836D01*
X9460Y23860D01*
X9420Y23879D01*
X9378Y23892D01*
X9333Y23900D01*
X9287Y23903D01*
X9235Y23900D01*
X9188Y23889D01*
X9145Y23872D01*
X9106Y23848D01*
X9072Y23818D01*
X9044Y23783D01*
X9021Y23741D01*
X9004Y23695D01*
X9097Y23673D01*
X9111Y23709D01*
X9128Y23740D01*
X9147Y23766D01*
X9170Y23786D01*
X9195Y23802D01*
X9223Y23813D01*
X9254Y23820D01*
X9289Y23822D01*
X9328Y23820D01*
X9365Y23812D01*
X9397Y23800D01*
X9427Y23782D01*
X9452Y23761D01*
X9474Y23736D01*
X9491Y23708D01*
X9505Y23676D01*
X9514Y23643D01*
X9521Y23609D01*
X9526Y23574D01*
X9527Y23539D01*
X9525Y23495D01*
X9520Y23453D01*
X9512Y23415D01*
X9500Y23379D01*
X9485Y23347D01*
X9466Y23320D01*
X9444Y23297D01*
X9418Y23278D01*
X9389Y23263D01*
X9359Y23252D01*
X9328Y23246D01*
X9296Y23244D01*
X9258Y23247D01*
X9223Y23255D01*
X9190Y23270D01*
X9161Y23290D01*
X9136Y23315D01*
X9115Y23347D01*
X9099Y23384D01*
X9087Y23426D01*
X9087Y23426D01*
X8910Y23364D02*
X8822Y23376D01*
X8814Y23341D01*
X8802Y23311D01*
X8788Y23287D01*
X8771Y23268D01*
X8752Y23254D01*
X8731Y23243D01*
X8707Y23237D01*
X8682Y23235D01*
X8653Y23238D01*
X8625Y23246D01*
X8600Y23259D01*
X8578Y23278D01*
X8559Y23301D01*
X8546Y23326D01*
X8538Y23354D01*
X8535Y23384D01*
X8537Y23413D01*
X8545Y23440D01*
X8557Y23463D01*
X8574Y23484D01*
X8596Y23502D01*
X8619Y23514D01*
X8646Y23521D01*
X8675Y23524D01*
X8688Y23523D01*
X8703Y23521D01*
X8719Y23518D01*
X8737Y23514D01*
X8727Y23591D01*
X8723Y23591D01*
X8719Y23590D01*
X8716Y23590D01*
X8713Y23590D01*
X8686Y23592D01*
X8660Y23597D01*
X8635Y23607D01*
X8612Y23619D01*
X8592Y23636D01*
X8578Y23657D01*
X8570Y23681D01*
X8567Y23710D01*
X8569Y23733D01*
X8575Y23754D01*
X8585Y23773D01*
X8600Y23790D01*
X8617Y23804D01*
X8637Y23814D01*
X8660Y23820D01*
X8684Y23821D01*
X8709Y23819D01*
X8731Y23813D01*
X8752Y23803D01*
X8770Y23789D01*
X8785Y23771D01*
X8798Y23749D01*
X8807Y23723D01*
X8814Y23693D01*
X8902Y23708D01*
X8891Y23750D01*
X8875Y23787D01*
X8854Y23818D01*
X8828Y23845D01*
X8798Y23866D01*
X8764Y23882D01*
X8727Y23891D01*
X8686Y23894D01*
X8658Y23892D01*
X8630Y23887D01*
X8604Y23880D01*
X8578Y23869D01*
X8555Y23855D01*
X8535Y23839D01*
X8517Y23821D01*
X8503Y23800D01*
X8491Y23778D01*
X8483Y23755D01*
X8478Y23732D01*
X8477Y23708D01*
X8478Y23685D01*
X8483Y23663D01*
X8491Y23643D01*
X8502Y23623D01*
X8516Y23605D01*
X8533Y23589D01*
X8552Y23575D01*
X8575Y23563D01*
X8545Y23553D01*
X8519Y23540D01*
X8496Y23523D01*
X8477Y23502D01*
X8461Y23477D01*
X8450Y23450D01*
X8444Y23420D01*
X8442Y23386D01*
X8446Y23341D01*
X8459Y23300D01*
X8480Y23262D01*
X8510Y23227D01*
X8546Y23199D01*
X8587Y23179D01*
X8633Y23166D01*
X8683Y23162D01*
X8728Y23166D01*
X8769Y23176D01*
X8806Y23194D01*
X8839Y23218D01*
X8867Y23249D01*
X8888Y23283D01*
X8903Y23321D01*
X8910Y23364D01*
X8910Y23364D01*
G37*
%LNbottom silkscreen component 37d77bcb1c3adade*%
D10*
X3750Y22510D02*
X2250Y22510D01*
X2250Y19490*
X3750Y19490*
X3750Y22510*
D12*
X3000Y22760D03*
G36*
X3087Y21426D02*
X2992Y21402D01*
X3010Y21347D01*
X3034Y21299D01*
X3063Y21258D01*
X3099Y21224D01*
X3140Y21197D01*
X3185Y21178D01*
X3235Y21167D01*
X3288Y21163D01*
X3343Y21166D01*
X3393Y21175D01*
X3438Y21189D01*
X3477Y21210D01*
X3511Y21236D01*
X3540Y21268D01*
X3566Y21304D01*
X3587Y21346D01*
X3603Y21392D01*
X3615Y21439D01*
X3622Y21488D01*
X3625Y21538D01*
X3622Y21592D01*
X3614Y21643D01*
X3601Y21690D01*
X3582Y21733D01*
X3558Y21772D01*
X3530Y21807D01*
X3498Y21836D01*
X3460Y21860D01*
X3420Y21879D01*
X3378Y21892D01*
X3333Y21900D01*
X3287Y21903D01*
X3235Y21900D01*
X3188Y21889D01*
X3145Y21872D01*
X3106Y21848D01*
X3072Y21818D01*
X3044Y21783D01*
X3021Y21741D01*
X3004Y21695D01*
X3097Y21673D01*
X3111Y21709D01*
X3128Y21740D01*
X3147Y21766D01*
X3170Y21786D01*
X3195Y21802D01*
X3223Y21813D01*
X3254Y21820D01*
X3289Y21822D01*
X3328Y21820D01*
X3365Y21812D01*
X3397Y21800D01*
X3427Y21782D01*
X3452Y21761D01*
X3474Y21736D01*
X3491Y21708D01*
X3505Y21676D01*
X3514Y21643D01*
X3521Y21609D01*
X3526Y21574D01*
X3527Y21539D01*
X3525Y21495D01*
X3520Y21453D01*
X3512Y21415D01*
X3500Y21379D01*
X3485Y21347D01*
X3466Y21320D01*
X3444Y21297D01*
X3418Y21278D01*
X3389Y21263D01*
X3359Y21252D01*
X3328Y21246D01*
X3296Y21244D01*
X3258Y21247D01*
X3223Y21255D01*
X3190Y21270D01*
X3161Y21290D01*
X3136Y21315D01*
X3115Y21347D01*
X3099Y21384D01*
X3087Y21426D01*
X3087Y21426D01*
X2580Y21175D02*
X2668Y21175D01*
X2668Y21735D01*
X2685Y21720D01*
X2704Y21705D01*
X2726Y21690D01*
X2751Y21675D01*
X2776Y21660D01*
X2800Y21648D01*
X2822Y21638D01*
X2843Y21629D01*
X2843Y21714D01*
X2808Y21732D01*
X2774Y21752D01*
X2743Y21774D01*
X2715Y21798D01*
X2689Y21823D01*
X2667Y21847D01*
X2650Y21870D01*
X2636Y21894D01*
X2580Y21894D01*
X2580Y21175D01*
X2580Y21175D01*
G37*
%LNbottom silkscreen component d124a8ff4e911a43*%
D10*
X17750Y8010D02*
X16250Y8010D01*
X16250Y4990*
X17750Y4990*
X17750Y8010*
G36*
X16937Y8626D02*
X16842Y8602D01*
X16860Y8547D01*
X16884Y8499D01*
X16913Y8458D01*
X16949Y8424D01*
X16990Y8397D01*
X17035Y8378D01*
X17085Y8367D01*
X17138Y8363D01*
X17193Y8366D01*
X17243Y8375D01*
X17288Y8389D01*
X17327Y8410D01*
X17361Y8436D01*
X17390Y8468D01*
X17416Y8504D01*
X17437Y8546D01*
X17453Y8592D01*
X17465Y8639D01*
X17472Y8688D01*
X17475Y8738D01*
X17472Y8792D01*
X17464Y8843D01*
X17451Y8890D01*
X17432Y8933D01*
X17408Y8972D01*
X17380Y9007D01*
X17348Y9036D01*
X17310Y9060D01*
X17270Y9079D01*
X17228Y9092D01*
X17183Y9100D01*
X17137Y9103D01*
X17085Y9100D01*
X17038Y9089D01*
X16995Y9072D01*
X16956Y9048D01*
X16922Y9018D01*
X16894Y8983D01*
X16871Y8941D01*
X16854Y8895D01*
X16947Y8873D01*
X16961Y8909D01*
X16978Y8940D01*
X16997Y8966D01*
X17020Y8986D01*
X17045Y9002D01*
X17073Y9013D01*
X17104Y9020D01*
X17139Y9022D01*
X17178Y9020D01*
X17215Y9012D01*
X17247Y9000D01*
X17277Y8982D01*
X17302Y8961D01*
X17324Y8936D01*
X17341Y8908D01*
X17355Y8876D01*
X17364Y8843D01*
X17371Y8809D01*
X17376Y8774D01*
X17377Y8739D01*
X17375Y8695D01*
X17370Y8653D01*
X17362Y8615D01*
X17350Y8579D01*
X17335Y8547D01*
X17316Y8520D01*
X17294Y8497D01*
X17268Y8478D01*
X17239Y8463D01*
X17209Y8452D01*
X17178Y8446D01*
X17146Y8444D01*
X17108Y8447D01*
X17073Y8455D01*
X17040Y8470D01*
X17011Y8490D01*
X16986Y8515D01*
X16965Y8547D01*
X16949Y8584D01*
X16937Y8626D01*
X16937Y8626D01*
X16761Y8563D02*
X16669Y8570D01*
X16662Y8539D01*
X16652Y8511D01*
X16638Y8488D01*
X16621Y8469D01*
X16601Y8454D01*
X16580Y8444D01*
X16556Y8437D01*
X16531Y8435D01*
X16500Y8438D01*
X16472Y8447D01*
X16447Y8462D01*
X16423Y8483D01*
X16404Y8509D01*
X16390Y8539D01*
X16382Y8572D01*
X16379Y8610D01*
X16382Y8645D01*
X16390Y8677D01*
X16403Y8705D01*
X16422Y8729D01*
X16444Y8748D01*
X16470Y8761D01*
X16500Y8769D01*
X16532Y8772D01*
X16553Y8771D01*
X16573Y8767D01*
X16591Y8761D01*
X16609Y8753D01*
X16625Y8742D01*
X16640Y8731D01*
X16652Y8717D01*
X16663Y8703D01*
X16745Y8713D01*
X16676Y9081D01*
X16320Y9081D01*
X16320Y8997D01*
X16606Y8997D01*
X16644Y8805D01*
X16612Y8824D01*
X16578Y8838D01*
X16544Y8847D01*
X16509Y8850D01*
X16464Y8846D01*
X16422Y8833D01*
X16385Y8813D01*
X16351Y8785D01*
X16322Y8750D01*
X16302Y8710D01*
X16290Y8666D01*
X16286Y8618D01*
X16290Y8571D01*
X16300Y8527D01*
X16318Y8487D01*
X16343Y8450D01*
X16380Y8412D01*
X16424Y8385D01*
X16474Y8368D01*
X16531Y8363D01*
X16577Y8366D01*
X16620Y8376D01*
X16657Y8394D01*
X16690Y8417D01*
X16718Y8447D01*
X16739Y8481D01*
X16753Y8520D01*
X16761Y8563D01*
X16761Y8563D01*
G37*
%LNbottom silkscreen component 28ac0c2b65682105*%
X17750Y19010D02*
X16250Y19010D01*
X16250Y15990*
X17750Y15990*
X17750Y19010*
G36*
X17044Y19444D02*
X16949Y19420D01*
X16967Y19365D01*
X16991Y19317D01*
X17021Y19276D01*
X17057Y19242D01*
X17097Y19215D01*
X17143Y19196D01*
X17192Y19185D01*
X17246Y19181D01*
X17301Y19184D01*
X17351Y19193D01*
X17395Y19207D01*
X17434Y19228D01*
X17468Y19254D01*
X17498Y19286D01*
X17523Y19322D01*
X17544Y19364D01*
X17561Y19410D01*
X17573Y19457D01*
X17580Y19506D01*
X17582Y19556D01*
X17580Y19610D01*
X17572Y19661D01*
X17558Y19708D01*
X17539Y19751D01*
X17516Y19790D01*
X17488Y19825D01*
X17455Y19854D01*
X17418Y19878D01*
X17377Y19897D01*
X17335Y19910D01*
X17291Y19918D01*
X17244Y19921D01*
X17193Y19918D01*
X17145Y19907D01*
X17102Y19890D01*
X17064Y19866D01*
X17030Y19836D01*
X17002Y19800D01*
X16979Y19759D01*
X16962Y19712D01*
X17055Y19691D01*
X17069Y19727D01*
X17085Y19758D01*
X17105Y19784D01*
X17127Y19804D01*
X17152Y19820D01*
X17181Y19831D01*
X17212Y19838D01*
X17246Y19840D01*
X17286Y19837D01*
X17322Y19830D01*
X17355Y19818D01*
X17384Y19800D01*
X17410Y19779D01*
X17431Y19754D01*
X17449Y19726D01*
X17462Y19694D01*
X17472Y19661D01*
X17479Y19626D01*
X17483Y19592D01*
X17485Y19557D01*
X17483Y19513D01*
X17478Y19471D01*
X17470Y19433D01*
X17458Y19397D01*
X17443Y19365D01*
X17424Y19338D01*
X17401Y19314D01*
X17375Y19295D01*
X17347Y19281D01*
X17317Y19270D01*
X17286Y19264D01*
X17254Y19262D01*
X17215Y19265D01*
X17180Y19273D01*
X17148Y19288D01*
X17119Y19308D01*
X17093Y19333D01*
X17073Y19365D01*
X17056Y19402D01*
X17044Y19444D01*
X17044Y19444D01*
X16587Y19193D02*
X16587Y19364D01*
X16897Y19364D01*
X16897Y19445D01*
X16642Y19807D01*
X16587Y19768D01*
X16811Y19445D01*
X16587Y19445D01*
X16587Y19445D01*
X16587Y19768D01*
X16642Y19807D01*
X16570Y19909D01*
X16499Y19909D01*
X16499Y19445D01*
X16402Y19445D01*
X16402Y19364D01*
X16499Y19364D01*
X16499Y19193D01*
X16587Y19193D01*
X16587Y19193D01*
G37*
M02*