<?xml-stylesheet href="https://s3.amazonaws.com/maker.works.boards/css/blackpcb.css" type="text/css"?><svg xmlns="http://www.w3.org/2000/svg" version="1.1" xmlns:xlink="http://www.w3.org/1999/xlink" stroke-width="0" stroke-linecap="round" stroke-linejoin="round" width="1.3780000000000001in" height="0.9843in" id="pcb_bottom" viewBox="7.5 7.5 1378 984.3"><defs><circle cx="0" cy="0" r="25.5" id="tool-T10-pad-1000"/><circle cx="0" cy="0" r="39.5" id="tool-T11-pad-1001"/><circle cx="0" cy="0" r="75" id="tool-T12-pad-1002"/><circle cx="0" cy="0" r="39.35" id="tool-D11-pad-1004"/><rect x="-39.37" y="-39.37" width="78.74" height="78.74" transform="rotate(180)" id="tool-D12-pad-1005"/><circle cx="0" cy="0" r="59.05" id="tool-D13-pad-1006"/><circle cx="0" cy="0" r="125" id="tool-D14-pad-1007"/><circle cx="0" cy="0" r="39.35" id="tool-D10-pad-1008"/><rect x="-39.37" y="-39.37" width="78.74" height="78.74" transform="rotate(180)" id="tool-D11-pad-1009"/><circle cx="0" cy="0" r="59.05" id="tool-D12-pad-1010"/><circle cx="0" cy="0" r="125" id="tool-D13-pad-1011"/><g id="pcb_bottom-cu" fill="currentColor" stroke="currentColor"><path stroke-width="2" fill="none" d="M 1364.8 971.1 L 1364.8 971.1 M 1364.8 971.1 L 28.2 971.1 M 28.2 971.1 L 28.2 697.5 M 28.2 697.5 L 444.4 697.5 M 444.4 697.5 L 447.3 724.3 M 447.3 724.3 L 447.3 724.4 M 447.3 724.4 L 455.9 751 M 455.9 751 L 455.9 751 M 455.9 751 L 469.9 775.2 M 469.9 775.2 L 469.9 775.3 M 469.9 775.3 L 488.6 796 M 488.6 796 L 488.7 796.1 M 488.7 796.1 L 511.3 812.5 M 511.3 812.5 L 511.4 812.6 M 511.4 812.6 L 536.9 824 M 536.9 824 L 537 824 M 537 824 L 564.3 829.8 M 564.3 829.8 L 564.4 829.8 M 564.4 829.8 L 592.3 829.8 M 592.3 829.8 L 592.4 829.8 M 592.4 829.8 L 619.7 824 M 619.7 824 L 619.8 824 M 619.8 824 L 645.3 812.6 M 645.3 812.6 L 645.4 812.5 M 645.4 812.5 L 668 796.1 M 668 796.1 L 668.1 796 M 668.1 796 L 686.8 775.3 M 686.8 775.3 L 686.8 775.2 M 686.8 775.2 L 700.8 751 M 700.8 751 L 700.8 751 M 700.8 751 L 709.5 724.4 M 709.5 724.4 L 709.5 724.3 M 709.5 724.3 L 712.3 697.5 M 712.3 697.5 L 1364.8 697.5 M 1364.8 697.5 L 1364.8 971.1 M 219.4 733.2 L 219.4 733.2 M 219.4 733.2 L 219.5 733.2 M 219.5 733.2 L 233.8 738.2 M 233.8 738.2 L 234 738.3 M 234 738.3 L 246.8 746.4 M 246.8 746.4 L 246.9 746.4 M 246.9 746.4 L 257.5 757.1 M 257.5 757.1 L 257.6 757.2 M 257.6 757.2 L 265.7 770 M 265.7 770 L 265.7 770.1 M 265.7 770.1 L 270.7 784.4 M 270.7 784.4 L 270.8 784.5 M 270.8 784.5 L 271.5 791.1 M 271.5 791.1 L 270.9 791.8 M 270.9 791.8 L 262.4 791.8 M 262.4 791.8 L 262.4 807.5 M 262.4 807.5 L 270.9 807.5 M 270.9 807.5 L 271.5 808.2 M 271.5 808.2 L 270.8 814.7 M 270.8 814.7 L 270.7 814.8 M 270.7 814.8 L 265.7 829.1 M 265.7 829.1 L 265.7 829.2 M 265.7 829.2 L 257.6 842 M 257.6 842 L 257.5 842.1 M 257.5 842.1 L 246.9 852.8 M 246.9 852.8 L 246.8 852.9 M 246.8 852.9 L 234 861 M 234 861 L 233.8 861 M 233.8 861 L 219.5 866 M 219.5 866 L 219.4 866 M 219.4 866 L 212.9 866.8 M 212.9 866.8 L 212.2 866.2 M 212.2 866.2 L 212.2 857.7 M 212.2 857.7 L 196.5 857.7 M 196.5 857.7 L 196.5 866.2 M 196.5 866.2 L 195.8 866.8 M 195.8 866.8 L 189.3 866 M 189.3 866 L 189.2 866 M 189.2 866 L 174.9 861 M 174.9 861 L 174.7 861 M 174.7 861 L 161.9 852.9 M 161.9 852.9 L 161.8 852.8 M 161.8 852.8 L 151.2 842.1 M 151.2 842.1 L 151.1 842 M 151.1 842 L 143 829.2 M 143 829.2 L 143 829.1 M 143 829.1 L 138 814.8 M 138 814.8 L 137.9 814.7 M 137.9 814.7 L 137.2 808.2 M 137.2 808.2 L 137.8 807.5 M 137.8 807.5 L 146.3 807.5 M 146.3 807.5 L 146.3 791.8 M 146.3 791.8 L 137.8 791.8 M 137.8 791.8 L 137.2 791.1 M 137.2 791.1 L 137.9 784.5 M 137.9 784.5 L 138 784.4 M 138 784.4 L 143 770.1 M 143 770.1 L 143 770 M 143 770 L 151.1 757.2 M 151.1 757.2 L 151.2 757.1 M 151.2 757.1 L 161.8 746.4 M 161.8 746.4 L 161.9 746.4 M 161.9 746.4 L 174.7 738.3 M 174.7 738.3 L 174.9 738.2 M 174.9 738.2 L 189.2 733.2 M 189.2 733.2 L 189.3 733.2 M 189.3 733.2 L 195.8 732.5 M 195.8 732.5 L 196.5 733.1 M 196.5 733.1 L 196.5 741.6 M 196.5 741.6 L 212.2 741.6 M 212.2 741.6 L 212.2 733.1 M 212.2 733.1 L 212.9 732.5 M 212.9 732.5 L 219.4 733.2 M 949.4 747.1 L 949.4 747.1 M 949.4 747.1 L 949.4 756.5 M 949.4 756.5 L 955.4 756.5 M 955.4 756.5 L 955.4 747.1 M 955.4 747.1 L 956 746.5 M 956 746.5 L 991.8 746.5 M 991.8 746.5 L 991.8 746.5 M 991.8 746.5 L 993.1 746.6 M 993.1 746.6 L 993.2 746.6 M 993.2 746.6 L 994.5 746.9 M 994.5 746.9 L 994.6 746.9 M 994.6 746.9 L 995.8 747.5 M 995.8 747.5 L 995.9 747.5 M 995.9 747.5 L 997 748.2 M 997 748.2 L 997.1 748.2 M 997.1 748.2 L 998.1 749.1 M 998.1 749.1 L 998.2 749.2 M 998.2 749.2 L 999 750.2 M 999 750.2 L 999.1 750.3 M 999.1 750.3 L 999.8 751.4 M 999.8 751.4 L 999.8 751.5 M 999.8 751.5 L 1000.3 752.7 M 1000.3 752.7 L 1000.4 752.8 M 1000.4 752.8 L 1000.7 754.1 M 1000.7 754.1 L 1000.7 754.2 M 1000.7 754.2 L 1000.8 755.5 M 1000.8 755.5 L 1000.8 755.5 M 1000.8 755.5 L 1000.8 791.3 M 1000.8 791.3 L 1000.2 791.9 M 1000.2 791.9 L 990.8 791.9 M 990.8 791.9 L 990.8 797.9 M 990.8 797.9 L 1000.2 797.9 M 1000.2 797.9 L 1000.8 798.5 M 1000.8 798.5 L 1000.8 834.3 M 1000.8 834.3 L 1000.8 834.3 M 1000.8 834.3 L 1000.7 835.6 M 1000.7 835.6 L 1000.7 835.7 M 1000.7 835.7 L 1000.4 837 M 1000.4 837 L 1000.3 837.1 M 1000.3 837.1 L 999.8 838.3 M 999.8 838.3 L 999.8 838.4 M 999.8 838.4 L 999.1 839.5 M 999.1 839.5 L 999 839.6 M 999 839.6 L 998.2 840.6 M 998.2 840.6 L 998.1 840.7 M 998.1 840.7 L 997.1 841.6 M 997.1 841.6 L 997 841.6 M 997 841.6 L 995.9 842.3 M 995.9 842.3 L 995.8 842.3 M 995.8 842.3 L 994.6 842.9 M 994.6 842.9 L 994.5 842.9 M 994.5 842.9 L 993.2 843.2 M 993.2 843.2 L 993.1 843.2 M 993.1 843.2 L 991.8 843.3 M 991.8 843.3 L 991.8 843.3 M 991.8 843.3 L 956 843.3 M 956 843.3 L 955.4 842.7 M 955.4 842.7 L 955.4 833.3 M 955.4 833.3 L 949.4 833.3 M 949.4 833.3 L 949.4 842.7 M 949.4 842.7 L 948.8 843.3 M 948.8 843.3 L 913 843.3 M 913 843.3 L 913 843.3 M 913 843.3 L 911.6 843.2 M 911.6 843.2 L 911.6 843.2 M 911.6 843.2 L 910.3 842.9 M 910.3 842.9 L 910.2 842.9 M 910.2 842.9 L 909 842.3 M 909 842.3 L 908.9 842.3 M 908.9 842.3 L 907.7 841.6 M 907.7 841.6 L 907.7 841.6 M 907.7 841.6 L 906.6 840.7 M 906.6 840.7 L 906.6 840.6 M 906.6 840.6 L 905.7 839.6 M 905.7 839.6 L 905.7 839.5 M 905.7 839.5 L 905 838.4 M 905 838.4 L 904.9 838.3 M 904.9 838.3 L 904.4 837.1 M 904.4 837.1 L 904.4 837 M 904.4 837 L 904.1 835.7 M 904.1 835.7 L 904.1 835.6 M 904.1 835.6 L 904 834.4 M 904 834.4 L 904 834.3 M 904 834.3 L 904 798.5 M 904 798.5 L 904.5 797.9 M 904.5 797.9 L 914 797.9 M 914 797.9 L 914 791.9 M 914 791.9 L 904.5 791.9 M 904.5 791.9 L 904 791.3 M 904 791.3 L 904 755.5 M 904 755.5 L 904 755.5 M 904 755.5 L 904.1 754.2 M 904.1 754.2 L 904.1 754.1 M 904.1 754.1 L 904.4 752.8 M 904.4 752.8 L 904.4 752.7 M 904.4 752.7 L 904.9 751.5 M 904.9 751.5 L 905 751.4 M 905 751.4 L 905.7 750.3 M 905.7 750.3 L 905.7 750.2 M 905.7 750.2 L 906.6 749.2 M 906.6 749.2 L 906.6 749.1 M 906.6 749.1 L 907.7 748.2 M 907.7 748.2 L 907.7 748.2 M 907.7 748.2 L 908.9 747.5 M 908.9 747.5 L 909 747.5 M 909 747.5 L 910.2 746.9 M 910.2 746.9 L 910.3 746.9 M 910.3 746.9 L 911.6 746.6 M 911.6 746.6 L 911.6 746.6 M 911.6 746.6 L 912.9 746.5 M 912.9 746.5 L 913 746.5 M 913 746.5 L 948.8 746.5 M 948.8 746.5 L 949.4 747.1 M 28.2 698.4 L 444.5 698.4 M 712.2 698.4 L 1364.8 698.4 M 28.2 700.4 L 444.7 700.4 M 712 700.4 L 1364.8 700.4 M 28.2 702.3 L 444.9 702.3 M 711.8 702.3 L 1364.8 702.3 M 28.2 704.3 L 445.1 704.3 M 711.6 704.3 L 1364.8 704.3 M 28.2 706.2 L 445.3 706.2 M 711.4 706.2 L 1364.8 706.2 M 28.2 708.2 L 445.5 708.2 M 711.2 708.2 L 1364.8 708.2 M 28.2 710.1 L 445.8 710.1 M 711 710.1 L 1364.8 710.1 M 28.2 712.1 L 446 712.1 M 710.8 712.1 L 1364.8 712.1 M 28.2 714 L 446.2 714 M 710.6 714 L 1364.8 714 M 28.2 716 L 446.4 716 M 710.4 716 L 1364.8 716 M 28.2 717.9 L 446.6 717.9 M 710.1 717.9 L 1364.8 717.9 M 28.2 719.9 L 446.8 719.9 M 709.9 719.9 L 1364.8 719.9 M 28.2 721.8 L 447 721.8 M 709.7 721.8 L 1364.8 721.8 M 28.2 723.8 L 447.2 723.8 M 709.5 723.8 L 1364.8 723.8 M 28.2 725.7 L 447.7 725.7 M 709 725.7 L 1364.8 725.7 M 28.2 727.7 L 448.3 727.7 M 708.4 727.7 L 1364.8 727.7 M 28.2 729.6 L 449 729.6 M 707.8 729.6 L 1364.8 729.6 M 28.2 731.6 L 449.6 731.6 M 707.1 731.6 L 1364.8 731.6 M 28.2 733.5 L 188.4 733.5 M 196.5 733.5 L 212.2 733.5 M 220.3 733.5 L 450.2 733.5 M 706.5 733.5 L 1364.8 733.5 M 28.2 735.5 L 182.8 735.5 M 196.5 735.5 L 212.2 735.5 M 225.9 735.5 L 450.9 735.5 M 705.8 735.5 L 1364.8 735.5 M 28.2 737.4 L 177.2 737.4 M 196.5 737.4 L 212.2 737.4 M 231.5 737.4 L 451.5 737.4 M 705.2 737.4 L 1364.8 737.4 M 28.2 739.4 L 173.1 739.4 M 196.5 739.4 L 212.2 739.4 M 235.6 739.4 L 452.1 739.4 M 704.6 739.4 L 1364.8 739.4 M 28.2 741.3 L 169.9 741.3 M 196.5 741.3 L 212.2 741.3 M 238.8 741.3 L 452.8 741.3 M 704 741.3 L 1364.8 741.3 M 28.2 743.3 L 166.8 743.3 M 241.9 743.3 L 453.4 743.3 M 703.3 743.3 L 1364.8 743.3 M 28.2 745.2 L 163.7 745.2 M 245 745.2 L 454 745.2 M 702.7 745.2 L 1364.8 745.2 M 28.2 747.2 L 161.1 747.2 M 247.6 747.2 L 454.7 747.2 M 702.1 747.2 L 909.6 747.2 M 949.4 747.2 L 955.4 747.2 M 995.1 747.2 L 1364.8 747.2 M 28.2 749.1 L 159.2 749.1 M 249.5 749.1 L 455.3 749.1 M 701.4 749.1 L 906.6 749.1 M 949.4 749.1 L 955.4 749.1 M 998.1 749.1 L 1364.8 749.1 M 28.2 751.1 L 157.2 751.1 M 251.5 751.1 L 456 751.1 M 700.8 751.1 L 905.2 751.1 M 949.4 751.1 L 955.4 751.1 M 999.6 751.1 L 1364.8 751.1 M 28.2 753 L 155.3 753 M 253.4 753 L 457.1 753 M 699.7 753 L 904.4 753 M 949.4 753 L 955.4 753 M 1000.4 753 L 1364.8 753 M 28.2 755 L 153.3 755 M 255.4 755 L 458.2 755 M 698.5 755 L 904 755 M 949.4 755 L 955.4 755 M 1000.8 755 L 1364.8 755 M 28.2 756.9 L 151.4 756.9 M 257.3 756.9 L 459.4 756.9 M 697.4 756.9 L 904 756.9 M 1000.8 756.9 L 1364.8 756.9 M 28.2 758.9 L 150 758.9 M 258.7 758.9 L 460.5 758.9 M 696.3 758.9 L 904 758.9 M 1000.8 758.9 L 1364.8 758.9 M 28.2 760.8 L 148.8 760.8 M 259.9 760.8 L 461.6 760.8 M 695.1 760.8 L 904 760.8 M 1000.8 760.8 L 1364.8 760.8 M 28.2 762.8 L 147.6 762.8 M 261.1 762.8 L 462.7 762.8 M 694 762.8 L 904 762.8 M 1000.8 762.8 L 1364.8 762.8 M 28.2 764.7 L 146.4 764.7 M 262.3 764.7 L 463.8 764.7 M 692.9 764.7 L 904 764.7 M 1000.8 764.7 L 1364.8 764.7 M 28.2 766.7 L 145.1 766.7 M 263.6 766.7 L 465 766.7 M 691.8 766.7 L 904 766.7 M 1000.8 766.7 L 1364.8 766.7 M 28.2 768.6 L 143.9 768.6 M 264.8 768.6 L 466.1 768.6 M 690.6 768.6 L 904 768.6 M 1000.8 768.6 L 1364.8 768.6 M 28.2 770.6 L 142.8 770.6 M 265.9 770.6 L 467.2 770.6 M 689.5 770.6 L 904 770.6 M 1000.8 770.6 L 1364.8 770.6 M 28.2 772.5 L 142.1 772.5 M 266.6 772.5 L 468.3 772.5 M 688.4 772.5 L 904 772.5 M 1000.8 772.5 L 1364.8 772.5 M 28.2 774.5 L 141.4 774.5 M 267.3 774.5 L 469.5 774.5 M 687.3 774.5 L 904 774.5 M 1000.8 774.5 L 1364.8 774.5 M 28.2 776.4 L 140.8 776.4 M 267.9 776.4 L 471 776.4 M 685.8 776.4 L 904 776.4 M 1000.8 776.4 L 1364.8 776.4 M 28.2 778.4 L 140.1 778.4 M 268.6 778.4 L 472.7 778.4 M 684 778.4 L 904 778.4 M 1000.8 778.4 L 1364.8 778.4 M 28.2 780.3 L 139.4 780.3 M 269.3 780.3 L 474.5 780.3 M 682.3 780.3 L 904 780.3 M 1000.8 780.3 L 1364.8 780.3 M 28.2 782.3 L 138.7 782.3 M 270 782.3 L 476.2 782.3 M 680.5 782.3 L 904 782.3 M 1000.8 782.3 L 1364.8 782.3 M 28.2 784.2 L 138.1 784.2 M 270.6 784.2 L 478 784.2 M 678.8 784.2 L 904 784.2 M 1000.8 784.2 L 1364.8 784.2 M 28.2 786.2 L 137.8 786.2 M 270.9 786.2 L 479.7 786.2 M 677 786.2 L 904 786.2 M 1000.8 786.2 L 1364.8 786.2 M 28.2 788.1 L 137.5 788.1 M 271.2 788.1 L 481.5 788.1 M 675.2 788.1 L 904 788.1 M 1000.8 788.1 L 1364.8 788.1 M 28.2 790.1 L 137.3 790.1 M 271.4 790.1 L 483.2 790.1 M 673.5 790.1 L 904 790.1 M 1000.8 790.1 L 1364.8 790.1 M 28.2 792 L 146.3 792 M 262.4 792 L 485 792 M 671.7 792 L 914 792 M 990.8 792 L 1364.8 792 M 28.2 794 L 146.3 794 M 262.4 794 L 486.8 794 M 670 794 L 914 794 M 990.8 794 L 1364.8 794 M 28.2 795.9 L 146.3 795.9 M 262.4 795.9 L 488.5 795.9 M 668.2 795.9 L 914 795.9 M 990.8 795.9 L 1364.8 795.9 M 28.2 797.9 L 146.3 797.9 M 262.4 797.9 L 491.1 797.9 M 665.6 797.9 L 914 797.9 M 990.8 797.9 L 1364.8 797.9 M 28.2 799.8 L 146.3 799.8 M 262.4 799.8 L 493.8 799.8 M 662.9 799.8 L 904 799.8 M 1000.8 799.8 L 1364.8 799.8 M 28.2 801.8 L 146.3 801.8 M 262.4 801.8 L 496.5 801.8 M 660.2 801.8 L 904 801.8 M 1000.8 801.8 L 1364.8 801.8 M 28.2 803.7 L 146.3 803.7 M 262.4 803.7 L 499.2 803.7 M 657.5 803.7 L 904 803.7 M 1000.8 803.7 L 1364.8 803.7 M 28.2 805.7 L 146.3 805.7 M 262.4 805.7 L 501.9 805.7 M 654.9 805.7 L 904 805.7 M 1000.8 805.7 L 1364.8 805.7 M 28.2 807.6 L 137.7 807.6 M 271 807.6 L 504.5 807.6 M 652.2 807.6 L 904 807.6 M 1000.8 807.6 L 1364.8 807.6 M 28.2 809.6 L 137.4 809.6 M 271.3 809.6 L 507.2 809.6 M 649.5 809.6 L 904 809.6 M 1000.8 809.6 L 1364.8 809.6 M 28.2 811.5 L 137.6 811.5 M 271.1 811.5 L 509.9 811.5 M 646.8 811.5 L 904 811.5 M 1000.8 811.5 L 1364.8 811.5 M 28.2 813.5 L 137.8 813.5 M 270.9 813.5 L 513.4 813.5 M 643.3 813.5 L 904 813.5 M 1000.8 813.5 L 1364.8 813.5 M 28.2 815.4 L 138.2 815.4 M 270.5 815.4 L 517.8 815.4 M 639 815.4 L 904 815.4 M 1000.8 815.4 L 1364.8 815.4 M 28.2 817.4 L 138.9 817.4 M 269.8 817.4 L 522.1 817.4 M 634.6 817.4 L 904 817.4 M 1000.8 817.4 L 1364.8 817.4 M 28.2 819.3 L 139.5 819.3 M 269.2 819.3 L 526.5 819.3 M 630.2 819.3 L 904 819.3 M 1000.8 819.3 L 1364.8 819.3 M 28.2 821.3 L 140.2 821.3 M 268.5 821.3 L 530.9 821.3 M 625.8 821.3 L 904 821.3 M 1000.8 821.3 L 1364.8 821.3 M 28.2 823.2 L 140.9 823.2 M 267.8 823.2 L 535.3 823.2 M 621.4 823.2 L 904 823.2 M 1000.8 823.2 L 1364.8 823.2 M 28.2 825.2 L 141.6 825.2 M 267.1 825.2 L 542.7 825.2 M 614.1 825.2 L 904 825.2 M 1000.8 825.2 L 1364.8 825.2 M 28.2 827.1 L 142.3 827.1 M 266.4 827.1 L 551.8 827.1 M 604.9 827.1 L 904 827.1 M 1000.8 827.1 L 1364.8 827.1 M 28.2 829.1 L 143 829.1 M 265.7 829.1 L 561 829.1 M 595.7 829.1 L 904 829.1 M 1000.8 829.1 L 1364.8 829.1 M 28.2 831 L 144.2 831 M 264.5 831 L 904 831 M 1000.8 831 L 1364.8 831 M 28.2 833 L 145.4 833 M 263.3 833 L 904 833 M 1000.8 833 L 1364.8 833 M 28.2 834.9 L 146.6 834.9 M 262.1 834.9 L 904 834.9 M 949.4 834.9 L 955.4 834.9 M 1000.7 834.9 L 1364.8 834.9 M 28.2 836.9 L 147.8 836.9 M 260.9 836.9 L 904.4 836.9 M 949.4 836.9 L 955.4 836.9 M 1000.4 836.9 L 1364.8 836.9 M 28.2 838.8 L 149.1 838.8 M 259.6 838.8 L 905.2 838.8 M 949.4 838.8 L 955.4 838.8 M 999.5 838.8 L 1364.8 838.8 M 28.2 840.8 L 150.3 840.8 M 258.4 840.8 L 906.8 840.8 M 949.4 840.8 L 955.4 840.8 M 998 840.8 L 1364.8 840.8 M 28.2 842.7 L 151.8 842.7 M 256.9 842.7 L 909.9 842.7 M 949.4 842.7 L 955.4 842.7 M 994.9 842.7 L 1364.8 842.7 M 28.2 844.7 L 153.7 844.7 M 255 844.7 L 1364.8 844.7 M 28.2 846.6 L 155.6 846.6 M 253.1 846.6 L 1364.8 846.6 M 28.2 848.6 L 157.6 848.6 M 251.1 848.6 L 1364.8 848.6 M 28.2 850.5 L 159.5 850.5 M 249.2 850.5 L 1364.8 850.5 M 28.2 852.5 L 161.5 852.5 M 247.2 852.5 L 1364.8 852.5 M 28.2 854.4 L 164.4 854.4 M 244.4 854.4 L 1364.8 854.4 M 28.2 856.4 L 167.5 856.4 M 241.2 856.4 L 1364.8 856.4 M 28.2 858.3 L 170.6 858.3 M 196.5 858.3 L 212.2 858.3 M 238.1 858.3 L 1364.8 858.3 M 28.2 860.3 L 173.7 860.3 M 196.5 860.3 L 212.2 860.3 M 235 860.3 L 1364.8 860.3 M 28.2 862.2 L 178.4 862.2 M 196.5 862.2 L 212.2 862.2 M 230.3 862.2 L 1364.8 862.2 M 28.2 864.2 L 183.9 864.2 M 196.5 864.2 L 212.2 864.2 M 224.8 864.2 L 1364.8 864.2 M 28.2 866.1 L 190.1 866.1 M 196.5 866.1 L 212.2 866.1 M 218.6 866.1 L 1364.8 866.1 M 28.2 868.1 L 1364.8 868.1 M 28.2 870 L 1364.8 870 M 28.2 872 L 1364.8 872 M 28.2 873.9 L 1364.8 873.9 M 28.2 875.9 L 1364.8 875.9 M 28.2 877.8 L 1364.8 877.8 M 28.2 879.8 L 1364.8 879.8 M 28.2 881.7 L 1364.8 881.7 M 28.2 883.7 L 1364.8 883.7 M 28.2 885.6 L 1364.8 885.6 M 28.2 887.6 L 1364.8 887.6 M 28.2 889.5 L 1364.8 889.5 M 28.2 891.5 L 1364.8 891.5 M 28.2 893.4 L 1364.8 893.4 M 28.2 895.4 L 1364.8 895.4 M 28.2 897.3 L 1364.8 897.3 M 28.2 899.3 L 1364.8 899.3 M 28.2 901.2 L 1364.8 901.2 M 28.2 903.2 L 1364.8 903.2 M 28.2 905.1 L 1364.8 905.1 M 28.2 907.1 L 1364.8 907.1 M 28.2 909 L 1364.8 909 M 28.2 911 L 1364.8 911 M 28.2 912.9 L 1364.8 912.9 M 28.2 914.9 L 1364.8 914.9 M 28.2 916.8 L 1364.8 916.8 M 28.2 918.8 L 1364.8 918.8 M 28.2 920.7 L 1364.8 920.7 M 28.2 922.7 L 1364.8 922.7 M 28.2 924.6 L 1364.8 924.6 M 28.2 926.6 L 1364.8 926.6 M 28.2 928.5 L 1364.8 928.5 M 28.2 930.5 L 1364.8 930.5 M 28.2 932.4 L 1364.8 932.4 M 28.2 934.4 L 1364.8 934.4 M 28.2 936.3 L 1364.8 936.3 M 28.2 938.3 L 1364.8 938.3 M 28.2 940.2 L 1364.8 940.2 M 28.2 942.2 L 1364.8 942.2 M 28.2 944.1 L 1364.8 944.1 M 28.2 946.1 L 1364.8 946.1 M 28.2 948 L 1364.8 948 M 28.2 950 L 1364.8 950 M 28.2 951.9 L 1364.8 951.9 M 28.2 953.9 L 1364.8 953.9 M 28.2 955.8 L 1364.8 955.8 M 28.2 957.8 L 1364.8 957.8 M 28.2 959.7 L 1364.8 959.7 M 28.2 961.7 L 1364.8 961.7 M 28.2 963.6 L 1364.8 963.6 M 28.2 965.6 L 1364.8 965.6 M 28.2 967.5 L 1364.8 967.5 M 28.2 969.5 L 1364.8 969.5 M 1364.8 301.8 L 1364.8 301.8 M 1364.8 301.8 L 712.3 301.8 M 712.3 301.8 L 709.5 274.9 M 709.5 274.9 L 709.5 274.9 M 709.5 274.9 L 700.8 248.3 M 700.8 248.3 L 700.8 248.2 M 700.8 248.2 L 686.8 224 M 686.8 224 L 686.8 224 M 686.8 224 L 668.1 203.2 M 668.1 203.2 L 668 203.1 M 668 203.1 L 645.4 186.7 M 645.4 186.7 L 645.3 186.7 M 645.3 186.7 L 619.8 175.3 M 619.8 175.3 L 619.7 175.3 M 619.7 175.3 L 592.4 169.5 M 592.4 169.5 L 592.3 169.5 M 592.3 169.5 L 564.4 169.5 M 564.4 169.5 L 564.3 169.5 M 564.3 169.5 L 537 175.3 M 537 175.3 L 536.9 175.3 M 536.9 175.3 L 511.4 186.7 M 511.4 186.7 L 511.3 186.7 M 511.3 186.7 L 488.7 203.1 M 488.7 203.1 L 488.6 203.2 M 488.6 203.2 L 469.9 224 M 469.9 224 L 469.9 224 M 469.9 224 L 455.9 248.2 M 455.9 248.2 L 455.9 248.3 M 455.9 248.3 L 447.3 274.9 M 447.3 274.9 L 447.3 274.9 M 447.3 274.9 L 444.4 301.8 M 444.4 301.8 L 28.2 301.8 M 28.2 301.8 L 28.2 28.2 M 28.2 28.2 L 1364.8 28.2 M 1364.8 28.2 L 1364.8 301.8 M 219.4 133.2 L 219.4 133.2 M 219.4 133.2 L 219.5 133.2 M 219.5 133.2 L 233.8 138.2 M 233.8 138.2 L 234 138.3 M 234 138.3 L 246.8 146.4 M 246.8 146.4 L 246.9 146.4 M 246.9 146.4 L 257.5 157.1 M 257.5 157.1 L 257.6 157.2 M 257.6 157.2 L 265.7 170 M 265.7 170 L 265.7 170.1 M 265.7 170.1 L 270.7 184.4 M 270.7 184.4 L 270.8 184.5 M 270.8 184.5 L 271.5 191.1 M 271.5 191.1 L 270.9 191.8 M 270.9 191.8 L 262.4 191.8 M 262.4 191.8 L 262.4 207.5 M 262.4 207.5 L 270.9 207.5 M 270.9 207.5 L 271.5 208.2 M 271.5 208.2 L 270.8 214.7 M 270.8 214.7 L 270.7 214.8 M 270.7 214.8 L 265.7 229.1 M 265.7 229.1 L 265.7 229.2 M 265.7 229.2 L 257.6 242 M 257.6 242 L 257.5 242.1 M 257.5 242.1 L 246.9 252.8 M 246.9 252.8 L 246.8 252.9 M 246.8 252.9 L 234 261 M 234 261 L 233.8 261 M 233.8 261 L 219.5 266 M 219.5 266 L 219.4 266 M 219.4 266 L 212.9 266.8 M 212.9 266.8 L 212.2 266.2 M 212.2 266.2 L 212.2 257.7 M 212.2 257.7 L 196.5 257.7 M 196.5 257.7 L 196.5 266.2 M 196.5 266.2 L 195.8 266.8 M 195.8 266.8 L 189.3 266 M 189.3 266 L 189.2 266 M 189.2 266 L 174.9 261 M 174.9 261 L 174.7 261 M 174.7 261 L 161.9 252.9 M 161.9 252.9 L 161.8 252.8 M 161.8 252.8 L 151.2 242.1 M 151.2 242.1 L 151.1 242 M 151.1 242 L 143 229.2 M 143 229.2 L 143 229.1 M 143 229.1 L 138 214.8 M 138 214.8 L 137.9 214.7 M 137.9 214.7 L 137.2 208.2 M 137.2 208.2 L 137.8 207.5 M 137.8 207.5 L 146.3 207.5 M 146.3 207.5 L 146.3 191.8 M 146.3 191.8 L 137.8 191.8 M 137.8 191.8 L 137.2 191.1 M 137.2 191.1 L 137.9 184.5 M 137.9 184.5 L 138 184.4 M 138 184.4 L 143 170.1 M 143 170.1 L 143 170 M 143 170 L 151.1 157.2 M 151.1 157.2 L 151.2 157.1 M 151.2 157.1 L 161.8 146.4 M 161.8 146.4 L 161.9 146.4 M 161.9 146.4 L 174.7 138.3 M 174.7 138.3 L 174.9 138.2 M 174.9 138.2 L 189.2 133.2 M 189.2 133.2 L 189.3 133.2 M 189.3 133.2 L 195.8 132.5 M 195.8 132.5 L 196.5 133.1 M 196.5 133.1 L 196.5 141.6 M 196.5 141.6 L 212.2 141.6 M 212.2 141.6 L 212.2 133.1 M 212.2 133.1 L 212.9 132.5 M 212.9 132.5 L 219.4 133.2 M 963.1 157.1 L 963.1 157.1 M 963.1 157.1 L 963.2 157.2 M 963.2 157.2 L 973.3 160.7 M 973.3 160.7 L 973.4 160.8 M 973.4 160.8 L 982.5 166.5 M 982.5 166.5 L 982.6 166.6 M 982.6 166.6 L 990.2 174.1 M 990.2 174.1 L 990.3 174.2 M 990.3 174.2 L 996 183.3 M 996 183.3 L 996 183.4 M 996 183.4 L 999.5 193.5 M 999.5 193.5 L 999.6 193.6 M 999.6 193.6 L 1000.4 200.7 M 1000.4 200.7 L 999.8 201.4 M 999.8 201.4 L 990.8 201.4 M 990.8 201.4 L 990.8 207.3 M 990.8 207.3 L 999.8 207.3 M 999.8 207.3 L 1000.4 208 M 1000.4 208 L 999.6 215.1 M 999.6 215.1 L 999.5 215.2 M 999.5 215.2 L 996 225.3 M 996 225.3 L 996 225.4 M 996 225.4 L 990.3 234.5 M 990.3 234.5 L 990.2 234.6 M 990.2 234.6 L 982.6 242.1 M 982.6 242.1 L 982.5 242.2 M 982.5 242.2 L 973.4 247.9 M 973.4 247.9 L 973.3 248 M 973.3 248 L 963.2 251.5 M 963.2 251.5 L 963.1 251.6 M 963.1 251.6 L 956 252.3 M 956 252.3 L 955.4 251.8 M 955.4 251.8 L 955.4 242.4 M 955.4 242.4 L 949.4 242.4 M 949.4 242.4 L 949.4 251.8 M 949.4 251.8 L 948.7 252.3 M 948.7 252.3 L 941.7 251.6 M 941.7 251.6 L 941.6 251.5 M 941.6 251.5 L 931.4 248 M 931.4 248 L 931.3 247.9 M 931.3 247.9 L 922.2 242.2 M 922.2 242.2 L 922.1 242.1 M 922.1 242.1 L 914.6 234.6 M 914.6 234.6 L 914.5 234.5 M 914.5 234.5 L 908.8 225.4 M 908.8 225.4 L 908.8 225.3 M 908.8 225.3 L 905.2 215.2 M 905.2 215.2 L 905.2 215.1 M 905.2 215.1 L 904.4 208 M 904.4 208 L 905 207.3 M 905 207.3 L 914 207.3 M 914 207.3 L 914 201.4 M 914 201.4 L 905 201.4 M 905 201.4 L 904.4 200.7 M 904.4 200.7 L 905.2 193.6 M 905.2 193.6 L 905.2 193.5 M 905.2 193.5 L 908.8 183.4 M 908.8 183.4 L 908.8 183.3 M 908.8 183.3 L 914.5 174.2 M 914.5 174.2 L 914.6 174.1 M 914.6 174.1 L 922.1 166.6 M 922.1 166.6 L 922.2 166.5 M 922.2 166.5 L 931.3 160.8 M 931.3 160.8 L 931.4 160.7 M 931.4 160.7 L 941.6 157.2 M 941.6 157.2 L 941.7 157.1 M 941.7 157.1 L 948.7 156.4 M 948.7 156.4 L 949.4 156.9 M 949.4 156.9 L 949.4 166.3 M 949.4 166.3 L 955.4 166.3 M 955.4 166.3 L 955.4 156.9 M 955.4 156.9 L 956 156.4 M 956 156.4 L 963.1 157.1 M 28.2 29.2 L 1364.8 29.2 M 28.2 31.1 L 1364.8 31.1 M 28.2 33.1 L 1364.8 33.1 M 28.2 35 L 1364.8 35 M 28.2 36.9 L 1364.8 36.9 M 28.2 38.9 L 1364.8 38.9 M 28.2 40.8 L 1364.8 40.8 M 28.2 42.8 L 1364.8 42.8 M 28.2 44.7 L 1364.8 44.7 M 28.2 46.7 L 1364.8 46.7 M 28.2 48.6 L 1364.8 48.6 M 28.2 50.6 L 1364.8 50.6 M 28.2 52.5 L 1364.8 52.5 M 28.2 54.5 L 1364.8 54.5 M 28.2 56.4 L 1364.8 56.4 M 28.2 58.4 L 1364.8 58.4 M 28.2 60.3 L 1364.8 60.3 M 28.2 62.3 L 1364.8 62.3 M 28.2 64.2 L 1364.8 64.2 M 28.2 66.2 L 1364.8 66.2 M 28.2 68.1 L 1364.8 68.1 M 28.2 70.1 L 1364.8 70.1 M 28.2 72 L 1364.8 72 M 28.2 74 L 1364.8 74 M 28.2 75.9 L 1364.8 75.9 M 28.2 77.9 L 1364.8 77.9 M 28.2 79.8 L 1364.8 79.8 M 28.2 81.8 L 1364.8 81.8 M 28.2 83.7 L 1364.8 83.7 M 28.2 85.7 L 1364.8 85.7 M 28.2 87.6 L 1364.8 87.6 M 28.2 89.6 L 1364.8 89.6 M 28.2 91.5 L 1364.8 91.5 M 28.2 93.5 L 1364.8 93.5 M 28.2 95.5 L 1364.8 95.5 M 28.2 97.4 L 1364.8 97.4 M 28.2 99.4 L 1364.8 99.4 M 28.2 101.3 L 1364.8 101.3 M 28.2 103.2 L 1364.8 103.2 M 28.2 105.2 L 1364.8 105.2 M 28.2 107.1 L 1364.8 107.1 M 28.2 109.1 L 1364.8 109.1 M 28.2 111 L 1364.8 111 M 28.2 113 L 1364.8 113 M 28.2 114.9 L 1364.8 114.9 M 28.2 116.9 L 1364.8 116.9 M 28.2 118.8 L 1364.8 118.8 M 28.2 120.8 L 1364.8 120.8 M 28.2 122.7 L 1364.8 122.7 M 28.2 124.7 L 1364.8 124.7 M 28.2 126.6 L 1364.8 126.6 M 28.2 128.6 L 1364.8 128.6 M 28.2 130.5 L 1364.8 130.5 M 28.2 132.5 L 1364.8 132.5 M 28.2 134.4 L 185.8 134.4 M 196.5 134.4 L 212.2 134.4 M 222.9 134.4 L 1364.8 134.4 M 28.2 136.4 L 180.2 136.4 M 196.5 136.4 L 212.2 136.4 M 228.5 136.4 L 1364.8 136.4 M 28.2 138.3 L 174.7 138.3 M 196.5 138.3 L 212.2 138.3 M 234 138.3 L 1364.8 138.3 M 28.2 140.3 L 171.6 140.3 M 196.5 140.3 L 212.2 140.3 M 237.1 140.3 L 1364.8 140.3 M 28.2 142.2 L 168.5 142.2 M 240.2 142.2 L 1364.8 142.2 M 28.2 144.2 L 165.4 144.2 M 243.3 144.2 L 1364.8 144.2 M 28.2 146.1 L 162.3 146.1 M 246.4 146.1 L 1364.8 146.1 M 28.2 148.1 L 160.2 148.1 M 248.5 148.1 L 1364.8 148.1 M 28.2 150 L 158.2 150 M 250.5 150 L 1364.8 150 M 28.2 152 L 156.3 152 M 252.4 152 L 1364.8 152 M 28.2 153.9 L 154.4 153.9 M 254.4 153.9 L 1364.8 153.9 M 28.2 155.9 L 152.4 155.9 M 256.3 155.9 L 1364.8 155.9 M 28.2 157.9 L 150.7 157.9 M 258 157.9 L 939.7 157.9 M 949.4 157.9 L 955.4 157.9 M 965.1 157.9 L 1364.8 157.9 M 28.2 159.8 L 149.5 159.8 M 259.2 159.8 L 934.1 159.8 M 949.4 159.8 L 955.4 159.8 M 970.7 159.8 L 1364.8 159.8 M 28.2 161.8 L 148.2 161.8 M 260.5 161.8 L 929.8 161.8 M 949.4 161.8 L 955.4 161.8 M 975 161.8 L 1364.8 161.8 M 28.2 163.7 L 147 163.7 M 261.7 163.7 L 926.7 163.7 M 949.4 163.7 L 955.4 163.7 M 978.1 163.7 L 1364.8 163.7 M 28.2 165.6 L 145.8 165.6 M 262.9 165.6 L 923.6 165.6 M 949.4 165.6 L 955.4 165.6 M 981.2 165.6 L 1364.8 165.6 M 28.2 167.6 L 144.5 167.6 M 264.2 167.6 L 921.1 167.6 M 983.6 167.6 L 1364.8 167.6 M 28.2 169.5 L 143.3 169.5 M 265.4 169.5 L 564 169.5 M 592.7 169.5 L 919.2 169.5 M 985.6 169.5 L 1364.8 169.5 M 28.2 171.5 L 142.5 171.5 M 266.2 171.5 L 554.9 171.5 M 601.9 171.5 L 917.2 171.5 M 987.5 171.5 L 1364.8 171.5 M 28.2 173.4 L 141.8 173.4 M 266.9 173.4 L 545.7 173.4 M 611 173.4 L 915.3 173.4 M 989.5 173.4 L 1364.8 173.4 M 28.2 175.4 L 141.1 175.4 M 267.6 175.4 L 536.8 175.4 M 620 175.4 L 913.8 175.4 M 991 175.4 L 1364.8 175.4 M 28.2 177.3 L 140.5 177.3 M 268.2 177.3 L 532.3 177.3 M 624.4 177.3 L 912.5 177.3 M 992.2 177.3 L 1364.8 177.3 M 28.2 179.3 L 139.8 179.3 M 268.9 179.3 L 528 179.3 M 628.8 179.3 L 911.3 179.3 M 993.4 179.3 L 1364.8 179.3 M 28.2 181.2 L 139.1 181.2 M 269.6 181.2 L 523.6 181.2 M 633.1 181.2 L 910.1 181.2 M 994.7 181.2 L 1364.8 181.2 M 28.2 183.2 L 138.4 183.2 M 270.3 183.2 L 519.2 183.2 M 637.5 183.2 L 908.9 183.2 M 995.9 183.2 L 1364.8 183.2 M 28.2 185.1 L 137.9 185.1 M 270.8 185.1 L 514.8 185.1 M 641.9 185.1 L 908.1 185.1 M 996.6 185.1 L 1364.8 185.1 M 28.2 187.1 L 137.7 187.1 M 271 187.1 L 510.8 187.1 M 645.9 187.1 L 907.5 187.1 M 997.3 187.1 L 1364.8 187.1 M 28.2 189 L 137.5 189 M 271.2 189 L 508.1 189 M 648.6 189 L 906.8 189 M 998 189 L 1364.8 189 M 28.2 191 L 137.2 191 M 271.5 191 L 505.4 191 M 651.3 191 L 906.1 191 M 998.7 191 L 1364.8 191 M 28.2 192.9 L 146.3 192.9 M 262.4 192.9 L 502.7 192.9 M 654 192.9 L 905.4 192.9 M 999.4 192.9 L 1364.8 192.9 M 28.2 194.9 L 146.3 194.9 M 262.4 194.9 L 500.1 194.9 M 656.7 194.9 L 905 194.9 M 999.7 194.9 L 1364.8 194.9 M 28.2 196.8 L 146.3 196.8 M 262.4 196.8 L 497.4 196.8 M 659.4 196.8 L 904.8 196.8 M 999.9 196.8 L 1364.8 196.8 M 28.2 198.8 L 146.3 198.8 M 262.4 198.8 L 494.7 198.8 M 662 198.8 L 904.6 198.8 M 1000.2 198.8 L 1364.8 198.8 M 28.2 200.7 L 146.3 200.7 M 262.4 200.7 L 492 200.7 M 664.7 200.7 L 904.4 200.7 M 1000.3 200.7 L 1364.8 200.7 M 28.2 202.7 L 146.3 202.7 M 262.4 202.7 L 489.3 202.7 M 667.4 202.7 L 914 202.7 M 990.8 202.7 L 1364.8 202.7 M 28.2 204.6 L 146.3 204.6 M 262.4 204.6 L 487.3 204.6 M 669.4 204.6 L 914 204.6 M 990.8 204.6 L 1364.8 204.6 M 28.2 206.6 L 146.3 206.6 M 262.4 206.6 L 485.6 206.6 M 671.2 206.6 L 914 206.6 M 990.8 206.6 L 1364.8 206.6 M 28.2 208.5 L 137.3 208.5 M 271.4 208.5 L 483.8 208.5 M 672.9 208.5 L 904.4 208.5 M 1000.3 208.5 L 1364.8 208.5 M 28.2 210.5 L 137.5 210.5 M 271.2 210.5 L 482.1 210.5 M 674.7 210.5 L 904.7 210.5 M 1000.1 210.5 L 1364.8 210.5 M 28.2 212.4 L 137.7 212.4 M 271 212.4 L 480.3 212.4 M 676.4 212.4 L 904.9 212.4 M 999.9 212.4 L 1364.8 212.4 M 28.2 214.4 L 137.9 214.4 M 270.8 214.4 L 478.6 214.4 M 678.2 214.4 L 905.1 214.4 M 999.7 214.4 L 1364.8 214.4 M 28.2 216.3 L 138.5 216.3 M 270.2 216.3 L 476.8 216.3 M 679.9 216.3 L 905.6 216.3 M 999.2 216.3 L 1364.8 216.3 M 28.2 218.3 L 139.2 218.3 M 269.5 218.3 L 475.1 218.3 M 681.7 218.3 L 906.3 218.3 M 998.5 218.3 L 1364.8 218.3 M 28.2 220.2 L 139.9 220.2 M 268.8 220.2 L 473.3 220.2 M 683.4 220.2 L 906.9 220.2 M 997.8 220.2 L 1364.8 220.2 M 28.2 222.2 L 140.5 222.2 M 268.2 222.2 L 471.6 222.2 M 685.2 222.2 L 907.7 222.2 M 997.1 222.2 L 1364.8 222.2 M 28.2 224.2 L 141.2 224.2 M 267.5 224.2 L 469.8 224.2 M 686.9 224.2 L 908.3 224.2 M 996.4 224.2 L 1364.8 224.2 M 28.2 226.1 L 141.9 226.1 M 266.8 226.1 L 468.7 226.1 M 688 226.1 L 909.2 226.1 M 995.5 226.1 L 1364.8 226.1 M 28.2 228.1 L 142.6 228.1 M 266.1 228.1 L 467.6 228.1 M 689.2 228.1 L 910.5 228.1 M 994.3 228.1 L 1364.8 228.1 M 28.2 230 L 143.5 230 M 265.2 230 L 466.5 230 M 690.3 230 L 911.7 230 M 993.1 230 L 1364.8 230 M 28.2 231.9 L 144.7 231.9 M 264 231.9 L 465.3 231.9 M 691.4 231.9 L 912.9 231.9 M 991.9 231.9 L 1364.8 231.9 M 28.2 233.9 L 146 233.9 M 262.7 233.9 L 464.2 233.9 M 692.5 233.9 L 914.1 233.9 M 990.6 233.9 L 1364.8 233.9 M 28.2 235.8 L 147.2 235.8 M 261.5 235.8 L 463.1 235.8 M 693.6 235.8 L 915.8 235.8 M 988.9 235.8 L 1364.8 235.8 M 28.2 237.8 L 148.4 237.8 M 260.3 237.8 L 461.9 237.8 M 694.8 237.8 L 917.8 237.8 M 987 237.8 L 1364.8 237.8 M 28.2 239.7 L 149.6 239.7 M 259.1 239.7 L 460.8 239.7 M 695.9 239.7 L 919.7 239.7 M 985 239.7 L 1364.8 239.7 M 28.2 241.7 L 150.8 241.7 M 257.9 241.7 L 459.7 241.7 M 697 241.7 L 921.7 241.7 M 983.1 241.7 L 1364.8 241.7 M 28.2 243.6 L 152.7 243.6 M 256 243.6 L 458.6 243.6 M 698.2 243.6 L 924.5 243.6 M 949.4 243.6 L 955.4 243.6 M 980.3 243.6 L 1364.8 243.6 M 28.2 245.6 L 154.6 245.6 M 254.1 245.6 L 457.5 245.6 M 699.3 245.6 L 927.6 245.6 M 949.4 245.6 L 955.4 245.6 M 977.2 245.6 L 1364.8 245.6 M 28.2 247.5 L 156.6 247.5 M 252.1 247.5 L 456.3 247.5 M 700.4 247.5 L 930.7 247.5 M 949.4 247.5 L 955.4 247.5 M 974.1 247.5 L 1364.8 247.5 M 28.2 249.5 L 158.5 249.5 M 250.2 249.5 L 455.5 249.5 M 701.2 249.5 L 935.7 249.5 M 949.4 249.5 L 955.4 249.5 M 969.1 249.5 L 1364.8 249.5 M 28.2 251.4 L 160.5 251.4 M 248.2 251.4 L 454.9 251.4 M 701.9 251.4 L 941.3 251.4 M 949.4 251.4 L 955.4 251.4 M 963.5 251.4 L 1364.8 251.4 M 28.2 253.4 L 162.7 253.4 M 246 253.4 L 454.2 253.4 M 702.5 253.4 L 1364.8 253.4 M 28.2 255.3 L 165.8 255.3 M 242.9 255.3 L 453.6 255.3 M 703.1 255.3 L 1364.8 255.3 M 28.2 257.3 L 168.9 257.3 M 239.8 257.3 L 453 257.3 M 703.8 257.3 L 1364.8 257.3 M 28.2 259.2 L 172 259.2 M 196.5 259.2 L 212.2 259.2 M 236.7 259.2 L 452.3 259.2 M 704.4 259.2 L 1364.8 259.2 M 28.2 261.2 L 175.4 261.2 M 196.5 261.2 L 212.2 261.2 M 233.3 261.2 L 451.7 261.2 M 705 261.2 L 1364.8 261.2 M 28.2 263.1 L 181 263.1 M 196.5 263.1 L 212.2 263.1 M 227.7 263.1 L 451.1 263.1 M 705.6 263.1 L 1364.8 263.1 M 28.2 265.1 L 186.5 265.1 M 196.5 265.1 L 212.2 265.1 M 222.2 265.1 L 450.5 265.1 M 706.3 265.1 L 1364.8 265.1 M 28.2 267 L 449.8 267 M 706.9 267 L 1364.8 267 M 28.2 269 L 449.2 269 M 707.5 269 L 1364.8 269 M 28.2 270.9 L 448.5 270.9 M 708.2 270.9 L 1364.8 270.9 M 28.2 272.9 L 447.9 272.9 M 708.8 272.9 L 1364.8 272.9 M 28.2 274.8 L 447.3 274.8 M 709.5 274.8 L 1364.8 274.8 M 28.2 276.8 L 447.1 276.8 M 709.7 276.8 L 1364.8 276.8 M 28.2 278.7 L 446.8 278.7 M 709.9 278.7 L 1364.8 278.7 M 28.2 280.7 L 446.6 280.7 M 710.1 280.7 L 1364.8 280.7 M 28.2 282.6 L 446.4 282.6 M 710.3 282.6 L 1364.8 282.6 M 28.2 284.6 L 446.2 284.6 M 710.5 284.6 L 1364.8 284.6 M 28.2 286.5 L 446 286.5 M 710.7 286.5 L 1364.8 286.5 M 28.2 288.5 L 445.8 288.5 M 710.9 288.5 L 1364.8 288.5 M 28.2 290.5 L 445.6 290.5 M 711.1 290.5 L 1364.8 290.5 M 28.2 292.4 L 445.4 292.4 M 711.3 292.4 L 1364.8 292.4 M 28.2 294.4 L 445.2 294.4 M 711.5 294.4 L 1364.8 294.4 M 28.2 296.3 L 445 296.3 M 711.7 296.3 L 1364.8 296.3 M 28.2 298.2 L 444.8 298.2 M 711.9 298.2 L 1364.8 298.2 M 28.2 300.2 L 444.6 300.2 M 712.1 300.2 L 1364.8 300.2 M 1364.8 687.5 L 1364.8 687.5 M 1364.8 687.5 L 711.5 687.5 M 711.5 687.5 L 709.5 668.6 M 709.5 668.6 L 709.5 668.6 M 709.5 668.6 L 700.8 642 M 700.8 642 L 700.8 641.9 M 700.8 641.9 L 686.8 617.7 M 686.8 617.7 L 686.8 617.7 M 686.8 617.7 L 668.1 596.9 M 668.1 596.9 L 668 596.8 M 668 596.8 L 645.4 580.4 M 645.4 580.4 L 645.3 580.4 M 645.3 580.4 L 619.8 569 M 619.8 569 L 619.7 569 M 619.7 569 L 592.4 563.2 M 592.4 563.2 L 592.3 563.2 M 592.3 563.2 L 581.9 563.2 M 581.9 563.2 L 581.4 563.8 M 581.4 563.8 L 581.4 572.5 M 581.4 572.5 L 575.4 572.5 M 575.4 572.5 L 575.4 563.8 M 575.4 563.8 L 574.8 563.2 M 574.8 563.2 L 564.4 563.2 M 564.4 563.2 L 564.3 563.2 M 564.3 563.2 L 537 569 M 537 569 L 536.9 569 M 536.9 569 L 511.4 580.4 M 511.4 580.4 L 511.3 580.4 M 511.3 580.4 L 488.7 596.8 M 488.7 596.8 L 488.6 596.9 M 488.6 596.9 L 469.9 617.7 M 469.9 617.7 L 469.9 617.7 M 469.9 617.7 L 455.9 641.9 M 455.9 641.9 L 455.9 642 M 455.9 642 L 447.3 668.6 M 447.3 668.6 L 447.3 668.6 M 447.3 668.6 L 445.3 687.5 M 445.3 687.5 L 28.2 687.5 M 28.2 687.5 L 28.2 311.8 M 28.2 311.8 L 445.3 311.8 M 445.3 311.8 L 447.3 330.6 M 447.3 330.6 L 447.3 330.7 M 447.3 330.7 L 455.9 357.3 M 455.9 357.3 L 455.9 357.3 M 455.9 357.3 L 469.9 381.5 M 469.9 381.5 L 469.9 381.6 M 469.9 381.6 L 488.6 402.3 M 488.6 402.3 L 488.7 402.4 M 488.7 402.4 L 511.3 418.8 M 511.3 418.8 L 511.4 418.9 M 511.4 418.9 L 536.9 430.3 M 536.9 430.3 L 537 430.3 M 537 430.3 L 564.3 436.1 M 564.3 436.1 L 564.4 436.1 M 564.4 436.1 L 574.8 436.1 M 574.8 436.1 L 575.4 435.5 M 575.4 435.5 L 575.4 426.8 M 575.4 426.8 L 581.4 426.8 M 581.4 426.8 L 581.4 435.5 M 581.4 435.5 L 581.9 436.1 M 581.9 436.1 L 592.3 436.1 M 592.3 436.1 L 592.4 436.1 M 592.4 436.1 L 619.7 430.3 M 619.7 430.3 L 619.8 430.3 M 619.8 430.3 L 645.3 418.9 M 645.3 418.9 L 645.4 418.8 M 645.4 418.8 L 668 402.4 M 668 402.4 L 668.1 402.3 M 668.1 402.3 L 686.8 381.6 M 686.8 381.6 L 686.8 381.5 M 686.8 381.5 L 700.8 357.3 M 700.8 357.3 L 700.8 357.3 M 700.8 357.3 L 709.5 330.7 M 709.5 330.7 L 709.5 330.6 M 709.5 330.6 L 711.5 311.8 M 711.5 311.8 L 1364.8 311.8 M 1364.8 311.8 L 1364.8 687.5 M 219.4 533.2 L 219.4 533.2 M 219.4 533.2 L 219.5 533.2 M 219.5 533.2 L 233.8 538.2 M 233.8 538.2 L 234 538.3 M 234 538.3 L 246.8 546.4 M 246.8 546.4 L 246.9 546.4 M 246.9 546.4 L 257.5 557.1 M 257.5 557.1 L 257.6 557.2 M 257.6 557.2 L 265.7 570 M 265.7 570 L 265.7 570.1 M 265.7 570.1 L 270.7 584.4 M 270.7 584.4 L 270.8 584.5 M 270.8 584.5 L 271.5 591.1 M 271.5 591.1 L 270.9 591.8 M 270.9 591.8 L 262.4 591.8 M 262.4 591.8 L 262.4 607.5 M 262.4 607.5 L 270.9 607.5 M 270.9 607.5 L 271.5 608.2 M 271.5 608.2 L 270.8 614.7 M 270.8 614.7 L 270.7 614.8 M 270.7 614.8 L 265.7 629.1 M 265.7 629.1 L 265.7 629.2 M 265.7 629.2 L 257.6 642 M 257.6 642 L 257.5 642.1 M 257.5 642.1 L 246.9 652.8 M 246.9 652.8 L 246.8 652.9 M 246.8 652.9 L 234 661 M 234 661 L 233.8 661 M 233.8 661 L 219.5 666 M 219.5 666 L 219.4 666 M 219.4 666 L 212.9 666.8 M 212.9 666.8 L 212.2 666.2 M 212.2 666.2 L 212.2 657.7 M 212.2 657.7 L 196.5 657.7 M 196.5 657.7 L 196.5 666.2 M 196.5 666.2 L 195.8 666.8 M 195.8 666.8 L 189.3 666 M 189.3 666 L 189.2 666 M 189.2 666 L 174.9 661 M 174.9 661 L 174.7 661 M 174.7 661 L 161.9 652.9 M 161.9 652.9 L 161.8 652.8 M 161.8 652.8 L 151.2 642.1 M 151.2 642.1 L 151.1 642 M 151.1 642 L 143 629.2 M 143 629.2 L 143 629.1 M 143 629.1 L 138 614.8 M 138 614.8 L 137.9 614.7 M 137.9 614.7 L 137.2 608.2 M 137.2 608.2 L 137.8 607.5 M 137.8 607.5 L 146.3 607.5 M 146.3 607.5 L 146.3 591.8 M 146.3 591.8 L 137.8 591.8 M 137.8 591.8 L 137.2 591.1 M 137.2 591.1 L 137.9 584.5 M 137.9 584.5 L 138 584.4 M 138 584.4 L 143 570.1 M 143 570.1 L 143 570 M 143 570 L 151.1 557.2 M 151.1 557.2 L 151.2 557.1 M 151.2 557.1 L 161.8 546.4 M 161.8 546.4 L 161.9 546.4 M 161.9 546.4 L 174.7 538.3 M 174.7 538.3 L 174.9 538.2 M 174.9 538.2 L 189.2 533.2 M 189.2 533.2 L 189.3 533.2 M 189.3 533.2 L 204.3 531.5 M 204.3 531.5 L 204.4 531.5 M 204.4 531.5 L 219.4 533.2 M 963.1 550.8 L 963.1 550.8 M 963.1 550.8 L 963.2 550.9 M 963.2 550.9 L 973.3 554.4 M 973.3 554.4 L 973.4 554.5 M 973.4 554.5 L 982.5 560.2 M 982.5 560.2 L 982.6 560.3 M 982.6 560.3 L 990.2 567.8 M 990.2 567.8 L 990.3 567.9 M 990.3 567.9 L 996 577 M 996 577 L 996 577.1 M 996 577.1 L 999.5 587.2 M 999.5 587.2 L 999.6 587.3 M 999.6 587.3 L 1000.4 594.4 M 1000.4 594.4 L 999.8 595.1 M 999.8 595.1 L 990.8 595.1 M 990.8 595.1 L 990.8 601 M 990.8 601 L 999.8 601 M 999.8 601 L 1000.4 601.7 M 1000.4 601.7 L 999.6 608.8 M 999.6 608.8 L 999.5 608.9 M 999.5 608.9 L 996 619 M 996 619 L 996 619.1 M 996 619.1 L 990.3 628.2 M 990.3 628.2 L 990.2 628.3 M 990.2 628.3 L 982.6 635.8 M 982.6 635.8 L 982.5 635.9 M 982.5 635.9 L 973.4 641.6 M 973.4 641.6 L 973.3 641.7 M 973.3 641.7 L 963.2 645.2 M 963.2 645.2 L 963.1 645.3 M 963.1 645.3 L 956 646 M 956 646 L 955.4 645.5 M 955.4 645.5 L 955.4 636.1 M 955.4 636.1 L 949.4 636.1 M 949.4 636.1 L 949.4 645.5 M 949.4 645.5 L 948.7 646 M 948.7 646 L 941.7 645.3 M 941.7 645.3 L 941.6 645.2 M 941.6 645.2 L 931.4 641.7 M 931.4 641.7 L 931.3 641.6 M 931.3 641.6 L 922.2 635.9 M 922.2 635.9 L 922.1 635.8 M 922.1 635.8 L 914.6 628.3 M 914.6 628.3 L 914.5 628.2 M 914.5 628.2 L 908.8 619.1 M 908.8 619.1 L 908.8 619 M 908.8 619 L 905.2 608.9 M 905.2 608.9 L 905.2 608.8 M 905.2 608.8 L 904.4 601.7 M 904.4 601.7 L 905 601 M 905 601 L 914 601 M 914 601 L 914 595.1 M 914 595.1 L 905 595.1 M 905 595.1 L 904.4 594.4 M 904.4 594.4 L 905.2 587.3 M 905.2 587.3 L 905.2 587.2 M 905.2 587.2 L 908.8 577.1 M 908.8 577.1 L 908.8 577 M 908.8 577 L 914.5 567.9 M 914.5 567.9 L 914.6 567.8 M 914.6 567.8 L 922.1 560.3 M 922.1 560.3 L 922.2 560.2 M 922.2 560.2 L 931.3 554.5 M 931.3 554.5 L 931.4 554.4 M 931.4 554.4 L 941.6 550.9 M 941.6 550.9 L 941.7 550.8 M 941.7 550.8 L 948.7 550.1 M 948.7 550.1 L 949.4 550.6 M 949.4 550.6 L 949.4 560 M 949.4 560 L 955.4 560 M 955.4 560 L 955.4 550.6 M 955.4 550.6 L 956 550.1 M 956 550.1 L 963.1 550.8 M 219.4 333.2 L 219.4 333.2 M 219.4 333.2 L 219.5 333.2 M 219.5 333.2 L 233.8 338.2 M 233.8 338.2 L 234 338.3 M 234 338.3 L 246.8 346.4 M 246.8 346.4 L 246.9 346.4 M 246.9 346.4 L 257.5 357.1 M 257.5 357.1 L 257.6 357.2 M 257.6 357.2 L 265.7 370 M 265.7 370 L 265.7 370.1 M 265.7 370.1 L 270.7 384.4 M 270.7 384.4 L 270.8 384.5 M 270.8 384.5 L 271.5 391.1 M 271.5 391.1 L 270.9 391.8 M 270.9 391.8 L 262.4 391.8 M 262.4 391.8 L 262.4 407.5 M 262.4 407.5 L 270.9 407.5 M 270.9 407.5 L 271.5 408.2 M 271.5 408.2 L 270.8 414.7 M 270.8 414.7 L 270.7 414.8 M 270.7 414.8 L 265.7 429.1 M 265.7 429.1 L 265.7 429.2 M 265.7 429.2 L 257.6 442 M 257.6 442 L 257.5 442.1 M 257.5 442.1 L 246.9 452.8 M 246.9 452.8 L 246.8 452.9 M 246.8 452.9 L 234 461 M 234 461 L 233.8 461 M 233.8 461 L 219.5 466 M 219.5 466 L 219.4 466 M 219.4 466 L 204.4 467.7 M 204.4 467.7 L 204.3 467.7 M 204.3 467.7 L 189.3 466 M 189.3 466 L 189.2 466 M 189.2 466 L 174.9 461 M 174.9 461 L 174.7 461 M 174.7 461 L 161.9 452.9 M 161.9 452.9 L 161.8 452.8 M 161.8 452.8 L 151.2 442.1 M 151.2 442.1 L 151.1 442 M 151.1 442 L 143 429.2 M 143 429.2 L 143 429.1 M 143 429.1 L 138 414.8 M 138 414.8 L 137.9 414.7 M 137.9 414.7 L 137.2 408.2 M 137.2 408.2 L 137.8 407.5 M 137.8 407.5 L 146.3 407.5 M 146.3 407.5 L 146.3 391.8 M 146.3 391.8 L 137.8 391.8 M 137.8 391.8 L 137.2 391.1 M 137.2 391.1 L 137.9 384.5 M 137.9 384.5 L 138 384.4 M 138 384.4 L 143 370.1 M 143 370.1 L 143 370 M 143 370 L 151.1 357.2 M 151.1 357.2 L 151.2 357.1 M 151.2 357.1 L 161.8 346.4 M 161.8 346.4 L 161.9 346.4 M 161.9 346.4 L 174.7 338.3 M 174.7 338.3 L 174.9 338.2 M 174.9 338.2 L 189.2 333.2 M 189.2 333.2 L 189.3 333.2 M 189.3 333.2 L 195.8 332.5 M 195.8 332.5 L 196.5 333.1 M 196.5 333.1 L 196.5 341.6 M 196.5 341.6 L 212.2 341.6 M 212.2 341.6 L 212.2 333.1 M 212.2 333.1 L 212.9 332.5 M 212.9 332.5 L 219.4 333.2 M 963.1 354 L 963.1 354 M 963.1 354 L 963.2 354 M 963.2 354 L 973.3 357.6 M 973.3 357.6 L 973.4 357.6 M 973.4 357.6 L 982.5 363.3 M 982.5 363.3 L 982.6 363.4 M 982.6 363.4 L 990.2 371 M 990.2 371 L 990.3 371 M 990.3 371 L 996 380.1 M 996 380.1 L 996 380.3 M 996 380.3 L 999.5 390.4 M 999.5 390.4 L 999.6 390.5 M 999.6 390.5 L 1000.4 397.5 M 1000.4 397.5 L 999.8 398.2 M 999.8 398.2 L 990.8 398.2 M 990.8 398.2 L 990.8 404.2 M 990.8 404.2 L 999.8 404.2 M 999.8 404.2 L 1000.4 404.9 M 1000.4 404.9 L 999.6 411.9 M 999.6 411.9 L 999.5 412 M 999.5 412 L 996 422.1 M 996 422.1 L 996 422.3 M 996 422.3 L 990.3 431.4 M 990.3 431.4 L 990.2 431.4 M 990.2 431.4 L 982.6 439 M 982.6 439 L 982.5 439.1 M 982.5 439.1 L 973.4 444.8 M 973.4 444.8 L 973.3 444.8 M 973.3 444.8 L 963.2 448.4 M 963.2 448.4 L 963.1 448.4 M 963.1 448.4 L 956 449.2 M 956 449.2 L 955.4 448.6 M 955.4 448.6 L 955.4 439.3 M 955.4 439.3 L 949.4 439.3 M 949.4 439.3 L 949.4 448.6 M 949.4 448.6 L 948.7 449.2 M 948.7 449.2 L 941.7 448.4 M 941.7 448.4 L 941.6 448.4 M 941.6 448.4 L 931.4 444.8 M 931.4 444.8 L 931.3 444.8 M 931.3 444.8 L 922.2 439.1 M 922.2 439.1 L 922.1 439 M 922.1 439 L 914.6 431.4 M 914.6 431.4 L 914.5 431.4 M 914.5 431.4 L 908.8 422.3 M 908.8 422.3 L 908.8 422.1 M 908.8 422.1 L 905.2 412 M 905.2 412 L 905.2 411.9 M 905.2 411.9 L 904.4 404.9 M 904.4 404.9 L 905 404.2 M 905 404.2 L 914 404.2 M 914 404.2 L 914 398.2 M 914 398.2 L 905 398.2 M 905 398.2 L 904.4 397.5 M 904.4 397.5 L 905.2 390.5 M 905.2 390.5 L 905.2 390.4 M 905.2 390.4 L 908.8 380.3 M 908.8 380.3 L 908.8 380.1 M 908.8 380.1 L 914.5 371 M 914.5 371 L 914.6 371 M 914.6 371 L 922.1 363.4 M 922.1 363.4 L 922.2 363.3 M 922.2 363.3 L 931.3 357.6 M 931.3 357.6 L 931.4 357.6 M 931.4 357.6 L 941.6 354 M 941.6 354 L 941.7 354 M 941.7 354 L 948.7 353.2 M 948.7 353.2 L 949.4 353.8 M 949.4 353.8 L 949.4 363.1 M 949.4 363.1 L 955.4 363.1 M 955.4 363.1 L 955.4 353.8 M 955.4 353.8 L 956 353.2 M 956 353.2 L 963.1 354 M 28.2 312.7 L 445.4 312.7 M 711.4 312.7 L 1364.8 312.7 M 28.2 314.7 L 445.6 314.7 M 711.2 314.7 L 1364.8 314.7 M 28.2 316.6 L 445.8 316.6 M 711 316.6 L 1364.8 316.6 M 28.2 318.6 L 446 318.6 M 710.8 318.6 L 1364.8 318.6 M 28.2 320.5 L 446.2 320.5 M 710.5 320.5 L 1364.8 320.5 M 28.2 322.5 L 446.4 322.5 M 710.3 322.5 L 1364.8 322.5 M 28.2 324.4 L 446.6 324.4 M 710.1 324.4 L 1364.8 324.4 M 28.2 326.4 L 446.8 326.4 M 709.9 326.4 L 1364.8 326.4 M 28.2 328.3 L 447 328.3 M 709.7 328.3 L 1364.8 328.3 M 28.2 330.3 L 447.2 330.3 M 709.5 330.3 L 1364.8 330.3 M 28.2 332.2 L 447.8 332.2 M 709 332.2 L 1364.8 332.2 M 28.2 334.2 L 186.5 334.2 M 196.5 334.2 L 212.2 334.2 M 222.2 334.2 L 448.4 334.2 M 708.3 334.2 L 1364.8 334.2 M 28.2 336.1 L 180.9 336.1 M 196.5 336.1 L 212.2 336.1 M 227.8 336.1 L 449 336.1 M 707.7 336.1 L 1364.8 336.1 M 28.2 338.1 L 175.4 338.1 M 196.5 338.1 L 212.2 338.1 M 233.3 338.1 L 449.7 338.1 M 707.1 338.1 L 1364.8 338.1 M 28.2 340 L 172 340 M 196.5 340 L 212.2 340 M 236.7 340 L 450.3 340 M 706.4 340 L 1364.8 340 M 28.2 342 L 168.9 342 M 239.8 342 L 450.9 342 M 705.8 342 L 1364.8 342 M 28.2 343.9 L 165.8 343.9 M 242.9 343.9 L 451.6 343.9 M 705.2 343.9 L 1364.8 343.9 M 28.2 345.9 L 162.7 345.9 M 246 345.9 L 452.2 345.9 M 704.5 345.9 L 1364.8 345.9 M 28.2 347.8 L 160.5 347.8 M 248.2 347.8 L 452.8 347.8 M 703.9 347.8 L 1364.8 347.8 M 28.2 349.8 L 158.5 349.8 M 250.2 349.8 L 453.5 349.8 M 703.2 349.8 L 1364.8 349.8 M 28.2 351.7 L 156.6 351.7 M 252.1 351.7 L 454.1 351.7 M 702.6 351.7 L 1364.8 351.7 M 28.2 353.7 L 154.6 353.7 M 254.1 353.7 L 454.7 353.7 M 702 353.7 L 944.5 353.7 M 949.2 353.7 L 955.5 353.7 M 960.3 353.7 L 1364.8 353.7 M 28.2 355.6 L 152.7 355.6 M 256 355.6 L 455.4 355.6 M 701.4 355.6 L 936.9 355.6 M 949.4 355.6 L 955.4 355.6 M 967.8 355.6 L 1364.8 355.6 M 28.2 357.6 L 150.8 357.6 M 257.9 357.6 L 456.1 357.6 M 700.6 357.6 L 931.4 357.6 M 949.4 357.6 L 955.4 357.6 M 973.4 357.6 L 1364.8 357.6 M 28.2 359.5 L 149.6 359.5 M 259.1 359.5 L 457.2 359.5 M 699.5 359.5 L 928.3 359.5 M 949.4 359.5 L 955.4 359.5 M 976.5 359.5 L 1364.8 359.5 M 28.2 361.5 L 148.4 361.5 M 260.3 361.5 L 458.3 361.5 M 698.4 361.5 L 925.2 361.5 M 949.4 361.5 L 955.4 361.5 M 979.6 361.5 L 1364.8 361.5 M 28.2 363.4 L 147.2 363.4 M 261.5 363.4 L 459.4 363.4 M 697.3 363.4 L 922.1 363.4 M 982.7 363.4 L 1364.8 363.4 M 28.2 365.4 L 146 365.4 M 262.7 365.4 L 460.6 365.4 M 696.2 365.4 L 920.2 365.4 M 984.6 365.4 L 1364.8 365.4 M 28.2 367.3 L 144.7 367.3 M 264 367.3 L 461.7 367.3 M 695 367.3 L 918.2 367.3 M 986.6 367.3 L 1364.8 367.3 M 28.2 369.3 L 143.5 369.3 M 265.2 369.3 L 462.8 369.3 M 693.9 369.3 L 916.3 369.3 M 988.5 369.3 L 1364.8 369.3 M 28.2 371.2 L 142.6 371.2 M 266.1 371.2 L 464 371.2 M 692.8 371.2 L 914.4 371.2 M 990.4 371.2 L 1364.8 371.2 M 28.2 373.2 L 141.9 373.2 M 266.8 373.2 L 465.1 373.2 M 691.7 373.2 L 913.2 373.2 M 991.6 373.2 L 1364.8 373.2 M 28.2 375.1 L 141.2 375.1 M 267.5 375.1 L 466.2 375.1 M 690.5 375.1 L 911.9 375.1 M 992.8 375.1 L 1364.8 375.1 M 28.2 377.1 L 140.5 377.1 M 268.2 377.1 L 467.3 377.1 M 689.4 377.1 L 910.7 377.1 M 994 377.1 L 1364.8 377.1 M 28.2 379 L 139.9 379 M 268.8 379 L 468.4 379 M 688.3 379 L 909.5 379 M 995.3 379 L 1364.8 379 M 28.2 381 L 139.2 381 M 269.5 381 L 469.6 381 M 687.1 381 L 908.5 381 M 996.3 381 L 1364.8 381 M 28.2 382.9 L 138.5 382.9 M 270.2 382.9 L 471.2 382.9 M 685.6 382.9 L 907.8 382.9 M 996.9 382.9 L 1364.8 382.9 M 28.2 384.9 L 137.9 384.9 M 270.8 384.9 L 472.9 384.9 M 683.8 384.9 L 907.1 384.9 M 997.7 384.9 L 1364.8 384.9 M 28.2 386.8 L 137.7 386.8 M 271 386.8 L 474.7 386.8 M 682.1 386.8 L 906.4 386.8 M 998.3 386.8 L 1364.8 386.8 M 28.2 388.8 L 137.5 388.8 M 271.2 388.8 L 476.4 388.8 M 680.3 388.8 L 905.8 388.8 M 999 388.8 L 1364.8 388.8 M 28.2 390.7 L 137.3 390.7 M 271.4 390.7 L 478.2 390.7 M 678.6 390.7 L 905.1 390.7 M 999.6 390.7 L 1364.8 390.7 M 28.2 392.7 L 146.3 392.7 M 262.4 392.7 L 479.9 392.7 M 676.8 392.7 L 904.9 392.7 M 999.8 392.7 L 1364.8 392.7 M 28.2 394.6 L 146.3 394.6 M 262.4 394.6 L 481.7 394.6 M 675.1 394.6 L 904.7 394.6 M 1000.1 394.6 L 1364.8 394.6 M 28.2 396.6 L 146.3 396.6 M 262.4 396.6 L 483.4 396.6 M 673.3 396.6 L 904.5 396.6 M 1000.3 396.6 L 1364.8 396.6 M 28.2 398.5 L 146.3 398.5 M 262.4 398.5 L 485.2 398.5 M 671.6 398.5 L 914 398.5 M 990.8 398.5 L 1364.8 398.5 M 28.2 400.5 L 146.3 400.5 M 262.4 400.5 L 486.9 400.5 M 669.8 400.5 L 914 400.5 M 990.8 400.5 L 1364.8 400.5 M 28.2 402.4 L 146.3 402.4 M 262.4 402.4 L 488.7 402.4 M 668 402.4 L 914 402.4 M 990.8 402.4 L 1364.8 402.4 M 28.2 404.4 L 146.3 404.4 M 262.4 404.4 L 491.4 404.4 M 665.3 404.4 L 904.8 404.4 M 999.9 404.4 L 1364.8 404.4 M 28.2 406.3 L 146.3 406.3 M 262.4 406.3 L 494.1 406.3 M 662.7 406.3 L 904.5 406.3 M 1000.2 406.3 L 1364.8 406.3 M 28.2 408.3 L 137.2 408.3 M 271.5 408.3 L 496.8 408.3 M 659.9 408.3 L 904.7 408.3 M 1000 408.3 L 1364.8 408.3 M 28.2 410.2 L 137.5 410.2 M 271.2 410.2 L 499.5 410.2 M 657.3 410.2 L 905 410.2 M 999.8 410.2 L 1364.8 410.2 M 28.2 412.2 L 137.7 412.2 M 271 412.2 L 502.1 412.2 M 654.6 412.2 L 905.3 412.2 M 999.5 412.2 L 1364.8 412.2 M 28.2 414.1 L 137.9 414.1 M 270.8 414.1 L 504.8 414.1 M 651.9 414.1 L 905.9 414.1 M 998.8 414.1 L 1364.8 414.1 M 28.2 416.1 L 138.4 416.1 M 270.3 416.1 L 507.5 416.1 M 649.2 416.1 L 906.6 416.1 M 998.1 416.1 L 1364.8 416.1 M 28.2 418 L 139.1 418 M 269.6 418 L 510.2 418 M 646.6 418 L 907.3 418 M 997.5 418 L 1364.8 418 M 28.2 420 L 139.8 420 M 268.9 420 L 513.8 420 M 642.9 420 L 908 420 M 996.8 420 L 1364.8 420 M 28.2 421.9 L 140.5 421.9 M 268.2 421.9 L 518.2 421.9 M 638.5 421.9 L 908.7 421.9 M 996.1 421.9 L 1364.8 421.9 M 28.2 423.9 L 141.1 423.9 M 267.6 423.9 L 522.6 423.9 M 634.1 423.9 L 909.8 423.9 M 994.9 423.9 L 1364.8 423.9 M 28.2 425.8 L 141.8 425.8 M 266.9 425.8 L 527 425.8 M 629.7 425.8 L 911 425.8 M 993.7 425.8 L 1364.8 425.8 M 28.2 427.8 L 142.5 427.8 M 266.2 427.8 L 531.4 427.8 M 575.4 427.8 L 581.4 427.8 M 625.4 427.8 L 912.3 427.8 M 992.5 427.8 L 1364.8 427.8 M 28.2 429.7 L 143.3 429.7 M 265.4 429.7 L 535.7 429.7 M 575.4 429.7 L 581.4 429.7 M 621 429.7 L 913.5 429.7 M 991.3 429.7 L 1364.8 429.7 M 28.2 431.7 L 144.5 431.7 M 264.2 431.7 L 543.6 431.7 M 575.4 431.7 L 581.4 431.7 M 613.1 431.7 L 914.8 431.7 M 989.9 431.7 L 1364.8 431.7 M 28.2 433.6 L 145.8 433.6 M 262.9 433.6 L 552.8 433.6 M 575.4 433.6 L 581.4 433.6 M 604 433.6 L 916.8 433.6 M 988 433.6 L 1364.8 433.6 M 28.2 435.6 L 147 435.6 M 261.7 435.6 L 561.9 435.6 M 575.3 435.6 L 581.4 435.6 M 594.8 435.6 L 918.7 435.6 M 986 435.6 L 1364.8 435.6 M 28.2 437.5 L 148.2 437.5 M 260.5 437.5 L 920.6 437.5 M 984.1 437.5 L 1364.8 437.5 M 28.2 439.5 L 149.5 439.5 M 259.2 439.5 L 922.9 439.5 M 949.4 439.5 L 955.4 439.5 M 981.9 439.5 L 1364.8 439.5 M 28.2 441.4 L 150.7 441.4 M 258 441.4 L 926 441.4 M 949.4 441.4 L 955.4 441.4 M 978.8 441.4 L 1364.8 441.4 M 28.2 443.4 L 152.4 443.4 M 256.3 443.4 L 929.1 443.4 M 949.4 443.4 L 955.4 443.4 M 975.7 443.4 L 1364.8 443.4 M 28.2 445.3 L 154.4 445.3 M 254.4 445.3 L 932.8 445.3 M 949.4 445.3 L 955.4 445.3 M 971.9 445.3 L 1364.8 445.3 M 28.2 447.3 L 156.3 447.3 M 252.4 447.3 L 938.4 447.3 M 949.4 447.3 L 955.4 447.3 M 966.4 447.3 L 1364.8 447.3 M 28.2 449.2 L 158.2 449.2 M 250.5 449.2 L 1364.8 449.2 M 28.2 451.2 L 160.2 451.2 M 248.5 451.2 L 1364.8 451.2 M 28.2 453.1 L 162.3 453.1 M 246.4 453.1 L 1364.8 453.1 M 28.2 455.1 L 165.4 455.1 M 243.3 455.1 L 1364.8 455.1 M 28.2 457 L 168.5 457 M 240.2 457 L 1364.8 457 M 28.2 459 L 171.6 459 M 237.1 459 L 1364.8 459 M 28.2 460.9 L 174.7 460.9 M 234 460.9 L 1364.8 460.9 M 28.2 462.9 L 180.2 462.9 M 228.5 462.9 L 1364.8 462.9 M 28.2 464.8 L 185.8 464.8 M 222.9 464.8 L 1364.8 464.8 M 28.2 466.8 L 195.9 466.8 M 212.8 466.8 L 1364.8 466.8 M 28.2 468.7 L 1364.8 468.7 M 28.2 470.7 L 1364.8 470.7 M 28.2 472.6 L 1364.8 472.6 M 28.2 474.6 L 1364.8 474.6 M 28.2 476.5 L 1364.8 476.5 M 28.2 478.5 L 1364.8 478.5 M 28.2 480.4 L 1364.8 480.4 M 28.2 482.4 L 1364.8 482.4 M 28.2 484.3 L 1364.8 484.3 M 28.2 486.3 L 1364.8 486.3 M 28.2 488.2 L 1364.8 488.2 M 28.2 490.2 L 1364.8 490.2 M 28.2 492.1 L 1364.8 492.1 M 28.2 494.1 L 1364.8 494.1 M 28.2 496 L 1364.8 496 M 28.2 498 L 1364.8 498 M 28.2 499.9 L 1364.8 499.9 M 28.2 501.9 L 1364.8 501.9 M 28.2 503.8 L 1364.8 503.8 M 28.2 505.8 L 1364.8 505.8 M 28.2 507.7 L 1364.8 507.7 M 28.2 509.7 L 1364.8 509.7 M 28.2 511.6 L 1364.8 511.6 M 28.2 513.6 L 1364.8 513.6 M 28.2 515.5 L 1364.8 515.5 M 28.2 517.5 L 1364.8 517.5 M 28.2 519.4 L 1364.8 519.4 M 28.2 521.4 L 1364.8 521.4 M 28.2 523.3 L 1364.8 523.3 M 28.2 525.3 L 1364.8 525.3 M 28.2 527.2 L 1364.8 527.2 M 28.2 529.2 L 1364.8 529.2 M 28.2 531.1 L 1364.8 531.1 M 28.2 533.1 L 190.6 533.1 M 218.1 533.1 L 1364.8 533.1 M 28.2 535 L 184.1 535 M 224.6 535 L 1364.8 535 M 28.2 537 L 178.5 537 M 230.2 537 L 1364.8 537 M 28.2 538.9 L 173.8 538.9 M 234.9 538.9 L 1364.8 538.9 M 28.2 540.9 L 170.6 540.9 M 238.1 540.9 L 1364.8 540.9 M 28.2 542.8 L 167.5 542.8 M 241.2 542.8 L 1364.8 542.8 M 28.2 544.8 L 164.4 544.8 M 244.3 544.8 L 1364.8 544.8 M 28.2 546.7 L 161.6 546.7 M 247.1 546.7 L 1364.8 546.7 M 28.2 548.7 L 159.6 548.7 M 249.1 548.7 L 1364.8 548.7 M 28.2 550.6 L 157.7 550.6 M 251 550.6 L 943.6 550.6 M 949.4 550.6 L 955.4 550.6 M 961.2 550.6 L 1364.8 550.6 M 28.2 552.6 L 155.7 552.6 M 253 552.6 L 936.7 552.6 M 949.4 552.6 L 955.4 552.6 M 968.1 552.6 L 1364.8 552.6 M 28.2 554.5 L 153.8 554.5 M 254.9 554.5 L 931.2 554.5 M 949.4 554.5 L 955.4 554.5 M 973.5 554.5 L 1364.8 554.5 M 28.2 556.5 L 151.8 556.5 M 256.9 556.5 L 928.1 556.5 M 949.4 556.5 L 955.4 556.5 M 976.6 556.5 L 1364.8 556.5 M 28.2 558.4 L 150.3 558.4 M 258.4 558.4 L 925 558.4 M 949.4 558.4 L 955.4 558.4 M 979.7 558.4 L 1364.8 558.4 M 28.2 560.4 L 149.1 560.4 M 259.6 560.4 L 922 560.4 M 982.7 560.4 L 1364.8 560.4 M 28.2 562.3 L 147.9 562.3 M 260.8 562.3 L 920.1 562.3 M 984.7 562.3 L 1364.8 562.3 M 28.2 564.3 L 146.6 564.3 M 262.1 564.3 L 559.1 564.3 M 575.4 564.3 L 581.4 564.3 M 597.6 564.3 L 918.1 564.3 M 986.6 564.3 L 1364.8 564.3 M 28.2 566.2 L 145.4 566.2 M 263.3 566.2 L 549.9 566.2 M 575.4 566.2 L 581.4 566.2 M 606.8 566.2 L 916.2 566.2 M 988.6 566.2 L 1364.8 566.2 M 28.2 568.2 L 144.2 568.2 M 264.5 568.2 L 540.8 568.2 M 575.4 568.2 L 581.4 568.2 M 616 568.2 L 914.4 568.2 M 990.4 568.2 L 1364.8 568.2 M 28.2 570.1 L 143 570.1 M 265.7 570.1 L 534.4 570.1 M 575.4 570.1 L 581.4 570.1 M 622.3 570.1 L 913.1 570.1 M 991.7 570.1 L 1364.8 570.1 M 28.2 572.1 L 142.3 572.1 M 266.4 572.1 L 530 572.1 M 575.4 572.1 L 581.4 572.1 M 626.7 572.1 L 911.9 572.1 M 992.9 572.1 L 1364.8 572.1 M 28.2 574 L 141.6 574 M 267.1 574 L 525.6 574 M 631.1 574 L 910.6 574 M 994.1 574 L 1364.8 574 M 28.2 576 L 140.9 576 M 267.8 576 L 521.2 576 M 635.5 576 L 909.4 576 M 995.3 576 L 1364.8 576 M 28.2 577.9 L 140.3 577.9 M 268.4 577.9 L 516.9 577.9 M 639.9 577.9 L 908.4 577.9 M 996.3 577.9 L 1364.8 577.9 M 28.2 579.9 L 139.5 579.9 M 269.2 579.9 L 512.5 579.9 M 644.2 579.9 L 907.8 579.9 M 997 579.9 L 1364.8 579.9 M 28.2 581.8 L 138.9 581.8 M 269.8 581.8 L 509.4 581.8 M 647.4 581.8 L 907.1 581.8 M 997.7 581.8 L 1364.8 581.8 M 28.2 583.8 L 138.2 583.8 M 270.5 583.8 L 506.7 583.8 M 650.1 583.8 L 906.4 583.8 M 998.4 583.8 L 1364.8 583.8 M 28.2 585.7 L 137.8 585.7 M 270.9 585.7 L 504 585.7 M 652.7 585.7 L 905.7 585.7 M 999 585.7 L 1364.8 585.7 M 28.2 587.7 L 137.6 587.7 M 271.1 587.7 L 501.3 587.7 M 655.4 587.7 L 905.1 587.7 M 999.6 587.7 L 1364.8 587.7 M 28.2 589.6 L 137.4 589.6 M 271.3 589.6 L 498.6 589.6 M 658.1 589.6 L 904.9 589.6 M 999.9 589.6 L 1364.8 589.6 M 28.2 591.6 L 137.6 591.6 M 271.1 591.6 L 496 591.6 M 660.8 591.6 L 904.7 591.6 M 1000.1 591.6 L 1364.8 591.6 M 28.2 593.5 L 146.3 593.5 M 262.4 593.5 L 493.2 593.5 M 663.5 593.5 L 904.5 593.5 M 1000.3 593.5 L 1364.8 593.5 M 28.2 595.5 L 146.3 595.5 M 262.4 595.5 L 490.6 595.5 M 666.2 595.5 L 914 595.5 M 990.8 595.5 L 1364.8 595.5 M 28.2 597.4 L 146.3 597.4 M 262.4 597.4 L 488.2 597.4 M 668.6 597.4 L 914 597.4 M 990.8 597.4 L 1364.8 597.4 M 28.2 599.4 L 146.3 599.4 M 262.4 599.4 L 486.4 599.4 M 670.3 599.4 L 914 599.4 M 990.8 599.4 L 1364.8 599.4 M 28.2 601.3 L 146.3 601.3 M 262.4 601.3 L 484.7 601.3 M 672.1 601.3 L 904.7 601.3 M 1000 601.3 L 1364.8 601.3 M 28.2 603.3 L 146.3 603.3 M 262.4 603.3 L 482.9 603.3 M 673.8 603.3 L 904.5 603.3 M 1000.2 603.3 L 1364.8 603.3 M 28.2 605.2 L 146.3 605.2 M 262.4 605.2 L 481.1 605.2 M 675.6 605.2 L 904.8 605.2 M 1000 605.2 L 1364.8 605.2 M 28.2 607.2 L 146.3 607.2 M 262.4 607.2 L 479.4 607.2 M 677.3 607.2 L 905 607.2 M 999.8 607.2 L 1364.8 607.2 M 28.2 609.1 L 137.3 609.1 M 271.4 609.1 L 477.6 609.1 M 679.1 609.1 L 905.3 609.1 M 999.5 609.1 L 1364.8 609.1 M 28.2 611.1 L 137.5 611.1 M 271.2 611.1 L 475.9 611.1 M 680.8 611.1 L 906 611.1 M 998.8 611.1 L 1364.8 611.1 M 28.2 613 L 137.8 613 M 270.9 613 L 474.1 613 M 682.6 613 L 906.6 613 M 998.1 613 L 1364.8 613 M 28.2 615 L 138 615 M 270.7 615 L 472.4 615 M 684.4 615 L 907.3 615 M 997.4 615 L 1364.8 615 M 28.2 616.9 L 138.7 616.9 M 270 616.9 L 470.6 616.9 M 686.1 616.9 L 908 616.9 M 996.8 616.9 L 1364.8 616.9 M 28.2 618.9 L 139.4 618.9 M 269.3 618.9 L 469.2 618.9 M 687.5 618.9 L 908.7 618.9 M 996.1 618.9 L 1364.8 618.9 M 28.2 620.8 L 140.1 620.8 M 268.6 620.8 L 468.1 620.8 M 688.6 620.8 L 909.9 620.8 M 994.9 620.8 L 1364.8 620.8 M 28.2 622.8 L 140.8 622.8 M 267.9 622.8 L 467 622.8 M 689.7 622.8 L 911.1 622.8 M 993.7 622.8 L 1364.8 622.8 M 28.2 624.7 L 141.4 624.7 M 267.3 624.7 L 465.8 624.7 M 690.9 624.7 L 912.3 624.7 M 992.5 624.7 L 1364.8 624.7 M 28.2 626.7 L 142.1 626.7 M 266.6 626.7 L 464.7 626.7 M 692 626.7 L 913.6 626.7 M 991.2 626.7 L 1364.8 626.7 M 28.2 628.6 L 142.8 628.6 M 265.9 628.6 L 463.6 628.6 M 693.1 628.6 L 914.9 628.6 M 989.9 628.6 L 1364.8 628.6 M 28.2 630.6 L 143.9 630.6 M 264.8 630.6 L 462.5 630.6 M 694.3 630.6 L 916.9 630.6 M 987.9 630.6 L 1364.8 630.6 M 28.2 632.5 L 145.1 632.5 M 263.6 632.5 L 461.4 632.5 M 695.4 632.5 L 918.8 632.5 M 986 632.5 L 1364.8 632.5 M 28.2 634.5 L 146.3 634.5 M 262.4 634.5 L 460.2 634.5 M 696.5 634.5 L 920.8 634.5 M 984 634.5 L 1364.8 634.5 M 28.2 636.4 L 147.5 636.4 M 261.2 636.4 L 459.1 636.4 M 697.6 636.4 L 923 636.4 M 949.4 636.4 L 955.4 636.4 M 981.8 636.4 L 1364.8 636.4 M 28.2 638.4 L 148.8 638.4 M 259.9 638.4 L 458 638.4 M 698.8 638.4 L 926.1 638.4 M 949.4 638.4 L 955.4 638.4 M 978.6 638.4 L 1364.8 638.4 M 28.2 640.3 L 150 640.3 M 258.7 640.3 L 456.9 640.3 M 699.9 640.3 L 929.2 640.3 M 949.4 640.3 L 955.4 640.3 M 975.5 640.3 L 1364.8 640.3 M 28.2 642.3 L 151.3 642.3 M 257.4 642.3 L 455.8 642.3 M 700.9 642.3 L 933.1 642.3 M 949.4 642.3 L 955.4 642.3 M 971.7 642.3 L 1364.8 642.3 M 28.2 644.2 L 153.2 644.2 M 255.5 644.2 L 455.2 644.2 M 701.6 644.2 L 938.7 644.2 M 949.4 644.2 L 955.4 644.2 M 966.1 644.2 L 1364.8 644.2 M 28.2 646.2 L 155.2 646.2 M 253.5 646.2 L 454.5 646.2 M 702.2 646.2 L 1364.8 646.2 M 28.2 648.1 L 157.1 648.1 M 251.6 648.1 L 453.9 648.1 M 702.8 648.1 L 1364.8 648.1 M 28.2 650.1 L 159.1 650.1 M 249.6 650.1 L 453.3 650.1 M 703.4 650.1 L 1364.8 650.1 M 28.2 652 L 161 652 M 247.7 652 L 452.7 652 M 704.1 652 L 1364.8 652 M 28.2 654 L 163.6 654 M 245.1 654 L 452 654 M 704.7 654 L 1364.8 654 M 28.2 655.9 L 166.8 655.9 M 241.9 655.9 L 451.4 655.9 M 705.4 655.9 L 1364.8 655.9 M 28.2 657.9 L 169.9 657.9 M 196.5 657.9 L 212.2 657.9 M 238.8 657.9 L 450.7 657.9 M 706 657.9 L 1364.8 657.9 M 28.2 659.8 L 173 659.8 M 196.5 659.8 L 212.2 659.8 M 235.7 659.8 L 450.1 659.8 M 706.6 659.8 L 1364.8 659.8 M 28.2 661.8 L 177.1 661.8 M 196.5 661.8 L 212.2 661.8 M 231.6 661.8 L 449.5 661.8 M 707.3 661.8 L 1364.8 661.8 M 28.2 663.7 L 182.7 663.7 M 196.5 663.7 L 212.2 663.7 M 226 663.7 L 448.8 663.7 M 707.9 663.7 L 1364.8 663.7 M 28.2 665.7 L 188.2 665.7 M 196.5 665.7 L 212.2 665.7 M 220.5 665.7 L 448.2 665.7 M 708.5 665.7 L 1364.8 665.7 M 28.2 667.6 L 447.6 667.6 M 709.2 667.6 L 1364.8 667.6 M 28.2 669.6 L 447.1 669.6 M 709.6 669.6 L 1364.8 669.6 M 28.2 671.5 L 446.9 671.5 M 709.8 671.5 L 1364.8 671.5 M 28.2 673.5 L 446.8 673.5 M 710 673.5 L 1364.8 673.5 M 28.2 675.4 L 446.5 675.4 M 710.2 675.4 L 1364.8 675.4 M 28.2 677.4 L 446.3 677.4 M 710.4 677.4 L 1364.8 677.4 M 28.2 679.3 L 446.1 679.3 M 710.6 679.3 L 1364.8 679.3 M 28.2 681.3 L 445.9 681.3 M 710.8 681.3 L 1364.8 681.3 M 28.2 683.2 L 445.7 683.2 M 711 683.2 L 1364.8 683.2 M 28.2 685.2 L 445.5 685.2 M 711.2 685.2 L 1364.8 685.2 M 28.2 687.1 L 445.3 687.1 M 711.4 687.1 L 1364.8 687.1"/><use x="952.4" y="204.4" xlink:href="#tool-D11-pad-1004"/><use x="952.4" y="401.2" xlink:href="#tool-D11-pad-1004"/><use x="952.4" y="598.1" xlink:href="#tool-D11-pad-1004"/><use x="952.4" y="794.9" xlink:href="#tool-D12-pad-1005"/><use x="204.4" y="799.6" xlink:href="#tool-D13-pad-1006"/><use x="204.4" y="599.6" xlink:href="#tool-D13-pad-1006"/><use x="204.4" y="399.6" xlink:href="#tool-D13-pad-1006"/><use x="204.4" y="199.6" xlink:href="#tool-D13-pad-1006"/><use x="578.4" y="696.5" xlink:href="#tool-D14-pad-1007"/><use x="578.4" y="302.8" xlink:href="#tool-D14-pad-1007"/></g><mask id="pcb_bottom_mech-mask" fill="#fff" stroke="#fff" fill-rule="evenodd"><path stroke-width="0" d="M 7.5 7.5 L 7.5 991.8 L 1385.5 991.8 L 1385.5 7.5 Z"/><g id="pcb_bottom-drl" fill="#000" stroke="#000"><use x="952.4" y="204.4" xlink:href="#tool-T10-pad-1000"/><use x="952.4" y="401.2" xlink:href="#tool-T10-pad-1000"/><use x="952.4" y="598.1" xlink:href="#tool-T10-pad-1000"/><use x="952.4" y="794.9" xlink:href="#tool-T10-pad-1000"/><use x="204.4" y="799.6" xlink:href="#tool-T11-pad-1001"/><use x="204.4" y="599.6" xlink:href="#tool-T11-pad-1001"/><use x="204.4" y="399.6" xlink:href="#tool-T11-pad-1001"/><use x="204.4" y="199.6" xlink:href="#tool-T11-pad-1001"/><use x="578.4" y="696.5" xlink:href="#tool-T12-pad-1002"/><use x="578.4" y="302.8" xlink:href="#tool-T12-pad-1002"/></g></mask></defs><g mask="url(#pcb_bottom_mech-mask)" transform="translate(1393,999.3) scale(-1,-1)"><rect x="7.5" y="7.5" width="1378" height="984.3" fill="currentColor" class="pcb_board-fr4"/><use class="pcb_board-cu" xlink:href="#pcb_bottom-cu"/><g><defs><g id="pcb_bottom-sm" fill="currentColor" stroke="currentColor"><use x="952.4" y="204.4" xlink:href="#tool-D10-pad-1008"/><use x="952.4" y="401.2" xlink:href="#tool-D10-pad-1008"/><use x="952.4" y="598.1" xlink:href="#tool-D10-pad-1008"/><use x="952.4" y="794.9" xlink:href="#tool-D11-pad-1009"/><use x="204.4" y="799.6" xlink:href="#tool-D12-pad-1010"/><use x="204.4" y="599.6" xlink:href="#tool-D12-pad-1010"/><use x="204.4" y="399.6" xlink:href="#tool-D12-pad-1010"/><use x="204.4" y="199.6" xlink:href="#tool-D12-pad-1010"/><use x="578.4" y="696.5" xlink:href="#tool-D13-pad-1011"/><use x="578.4" y="302.8" xlink:href="#tool-D13-pad-1011"/></g><mask id="pcb_bottom-sm_mask" color="#000"><rect x="7.5" y="7.5" width="1378" height="984.3" fill="#fff"/><use xlink:href="#pcb_bottom-sm"/></mask><mask id="pcb_bottom-cu_finish-mask" color="#fff"><use xlink:href="#pcb_bottom-cu"/></mask></defs><g mask="url(#pcb_bottom-sm_mask)"><rect x="7.5" y="7.5" width="1378" height="984.3" fill="currentColor" class="pcb_board-sm"/><g id="pcb_bottom-ss" class="pcb_board-ss" fill="currentColor" stroke="currentColor"></g></g><use class="pcb_board-cf" mask="url(#pcb_bottom-cu_finish-mask)" xlink:href="#pcb_bottom-sm"/></g></g></svg>