%FSLAX33Y33*%
%MOMM*%
%AMRR-H1500000-W3000000-R750000-RO0.000*
21,1,1.5,1.5,0.,0.,360*
1,1,1.5,-0.75,0.*
1,1,1.5,0.75,0.*
1,1,1.5,0.75,-0.*
1,1,1.5,-0.75,0.*%
%AMRR-H1500000-W3000000-R750000-RO1.000*
21,1,1.5,1.5,0.,0.,180*
1,1,1.5,0.75,-0.*
1,1,1.5,-0.75,-0.*
1,1,1.5,-0.75,0.*
1,1,1.5,0.75,0.*%
%AMRR-H1500000-W3000000-R750000-RO1.500*
21,1,1.5,1.5,0.,0.,90*
1,1,1.5,-0.,-0.75*
1,1,1.5,-0.,0.75*
1,1,1.5,0.,0.75*
1,1,1.5,0.,-0.75*%
%ADD10RR-H1500000-W3000000-R750000-RO0.000*%
%ADD11RR-H1500000-W3000000-R750000-RO1.000*%
%ADD12C,2.*%
%ADD13RR-H1500000-W3000000-R750000-RO1.500*%
D10*
%LNtop solder mask_traces*%
%LNtop solder mask component 3d45d2e2db06df1d*%
G01*
X9601Y18923D03*
X9601Y16383D03*
X9601Y13843D03*
X9601Y11303D03*
%LNtop solder mask component a203c9d8601a111d*%
D11*
X35585Y23114D03*
X35585Y25654D03*
X35585Y28194D03*
X35585Y30734D03*
%LNtop solder mask component 2107499bac4653bb*%
X35585Y34900D03*
X35585Y37440D03*
X35585Y39980D03*
X35585Y42520D03*
%LNtop solder mask component b6efed6a83d816d4*%
D10*
X9601Y30734D03*
X9601Y28194D03*
X9601Y25654D03*
X9601Y23114D03*
%LNtop solder mask component de9b23b3ca07d20f*%
D11*
X35585Y11327D03*
X35585Y13867D03*
X35585Y16407D03*
X35585Y18947D03*
%LNtop solder mask component 1fd8dfbc606b4cc2*%
D12*
X30226Y40894D03*
X30226Y38354D03*
X30226Y35814D03*
X30226Y33274D03*
X30226Y30734D03*
X30226Y28194D03*
X30226Y25654D03*
X30226Y23114D03*
X30226Y20574D03*
X30226Y18034D03*
X30226Y15494D03*
X30226Y12954D03*
X27686Y12954D03*
X25146Y12954D03*
X22606Y12954D03*
X20066Y12954D03*
X17526Y12954D03*
X14986Y12954D03*
X14986Y15494D03*
X14986Y18034D03*
X14986Y20574D03*
X14986Y23114D03*
X14986Y25654D03*
X14986Y28194D03*
X14986Y30734D03*
X14986Y33274D03*
X14986Y35814D03*
X14986Y38354D03*
X14986Y40894D03*
%LNtop solder mask component 033f7e3a28d45462*%
D10*
X9601Y42520D03*
X9601Y39980D03*
X9601Y37440D03*
X9601Y34900D03*
%LNtop solder mask component 0209c6da91707408*%
D13*
X17526Y7036D03*
X20066Y7036D03*
X22606Y7036D03*
X25146Y7036D03*
X27686Y7036D03*
M02*