<?xml-stylesheet href="https://s3.amazonaws.com/maker.works.boards/css/blackpcb.css" type="text/css"?><svg xmlns="http://www.w3.org/2000/svg" version="1.1" xmlns:xlink="http://www.w3.org/1999/xlink" stroke-width="0" stroke-linecap="round" stroke-linejoin="round" width="0.7000000000000001in" height="0.85in" id="pcb_bottom" viewBox="7.5 7.5 700 850"><defs><circle cx="0" cy="0" r="20.5" id="tool-T10-pad-1000"/><circle cx="0" cy="0" r="21.5" id="tool-T11-pad-1001"/><circle cx="0" cy="0" r="31.5" id="tool-D11-pad-1003"/><rect x="-31.496" y="-31.496" width="62.992" height="62.992" transform="rotate(90)" id="tool-D12-pad-1004"/><circle cx="0" cy="0" r="32.5" id="tool-D13-pad-1005"/><rect x="-32.4805" y="-32.4805" width="64.961" height="64.961" transform="rotate(270)" id="tool-D14-pad-1006"/><circle cx="0" cy="0" r="31.5" id="tool-D10-pad-1008"/><rect x="-31.496" y="-31.496" width="62.992" height="62.992" transform="rotate(90)" id="tool-D11-pad-1009"/><circle cx="0" cy="0" r="32.5" id="tool-D12-pad-1010"/><rect x="-32.4805" y="-32.4805" width="64.961" height="64.961" transform="rotate(270)" id="tool-D13-pad-1011"/><g id="pcb_bottom-cu" fill="currentColor" stroke="currentColor"><path stroke-width="20" fill="none" d="M 645.3 351 L 645.3 722.1 M 307.5 207.5 L 377.2 277.2 M 457.5 607.5 L 395.9 545.9 M 525.2 774.2 L 457.5 711.4 M 62.6 335.3 L 190.4 207.5 M 588.2 774.2 L 525.2 774.2 M 62.6 335.3 L 62.6 477 M 131.5 545.9 L 395.9 545.9 M 131.5 545.9 L 62.6 477 M 645.3 722.1 L 588.2 774.2 M 377.2 277.2 L 571.5 277.2 M 571.5 277.2 L 645.3 351"/><use x="257.5" y="607.5" xlink:href="#tool-D11-pad-1003"/><use x="357.5" y="607.5" xlink:href="#tool-D11-pad-1003"/><use x="457.5" y="607.5" xlink:href="#tool-D11-pad-1003"/><use x="557.5" y="607.5" xlink:href="#tool-D11-pad-1003"/><use x="157.5" y="707.5" xlink:href="#tool-D11-pad-1003"/><use x="257.5" y="707.5" xlink:href="#tool-D11-pad-1003"/><use x="357.5" y="707.5" xlink:href="#tool-D11-pad-1003"/><use x="457.5" y="707.5" xlink:href="#tool-D11-pad-1003"/><use x="557.5" y="707.5" xlink:href="#tool-D11-pad-1003"/><use x="157.5" y="607.5" xlink:href="#tool-D12-pad-1004"/><use x="507.5" y="207.5" xlink:href="#tool-D13-pad-1005"/><use x="407.5" y="207.5" xlink:href="#tool-D13-pad-1005"/><use x="307.5" y="207.5" xlink:href="#tool-D13-pad-1005"/><use x="207.5" y="207.5" xlink:href="#tool-D13-pad-1005"/><use x="107.5" y="207.5" xlink:href="#tool-D13-pad-1005"/><use x="607.5" y="207.5" xlink:href="#tool-D14-pad-1006"/></g><mask id="pcb_bottom_mech-mask" fill="#fff" stroke="#fff" fill-rule="evenodd"><path stroke-width="0" d="M 7.5 7.5 L 7.5 857.5 L 707.5 857.5 L 707.5 7.5 Z"/><g id="pcb_bottom-drl" fill="#000" stroke="#000"><use x="157.5" y="607.5" xlink:href="#tool-T10-pad-1000"/><use x="257.5" y="607.5" xlink:href="#tool-T10-pad-1000"/><use x="357.5" y="607.5" xlink:href="#tool-T10-pad-1000"/><use x="457.5" y="607.5" xlink:href="#tool-T10-pad-1000"/><use x="557.5" y="607.5" xlink:href="#tool-T10-pad-1000"/><use x="157.5" y="707.5" xlink:href="#tool-T10-pad-1000"/><use x="257.5" y="707.5" xlink:href="#tool-T10-pad-1000"/><use x="357.5" y="707.5" xlink:href="#tool-T10-pad-1000"/><use x="457.5" y="707.5" xlink:href="#tool-T10-pad-1000"/><use x="557.5" y="707.5" xlink:href="#tool-T10-pad-1000"/><use x="607.5" y="207.5" xlink:href="#tool-T11-pad-1001"/><use x="507.5" y="207.5" xlink:href="#tool-T11-pad-1001"/><use x="407.5" y="207.5" xlink:href="#tool-T11-pad-1001"/><use x="307.5" y="207.5" xlink:href="#tool-T11-pad-1001"/><use x="207.5" y="207.5" xlink:href="#tool-T11-pad-1001"/><use x="107.5" y="207.5" xlink:href="#tool-T11-pad-1001"/></g></mask></defs><g mask="url(#pcb_bottom_mech-mask)" transform="translate(715,865) scale(-1,-1)"><rect x="7.5" y="7.5" width="700" height="850" fill="currentColor" class="pcb_board-fr4"/><use class="pcb_board-cu" xlink:href="#pcb_bottom-cu"/><g><defs><g id="pcb_bottom-sm" fill="currentColor" stroke="currentColor"><use x="257.5" y="607.5" xlink:href="#tool-D10-pad-1008"/><use x="357.5" y="607.5" xlink:href="#tool-D10-pad-1008"/><use x="457.5" y="607.5" xlink:href="#tool-D10-pad-1008"/><use x="557.5" y="607.5" xlink:href="#tool-D10-pad-1008"/><use x="157.5" y="707.5" xlink:href="#tool-D10-pad-1008"/><use x="257.5" y="707.5" xlink:href="#tool-D10-pad-1008"/><use x="357.5" y="707.5" xlink:href="#tool-D10-pad-1008"/><use x="457.5" y="707.5" xlink:href="#tool-D10-pad-1008"/><use x="557.5" y="707.5" xlink:href="#tool-D10-pad-1008"/><use x="157.5" y="607.5" xlink:href="#tool-D11-pad-1009"/><use x="507.5" y="207.5" xlink:href="#tool-D12-pad-1010"/><use x="407.5" y="207.5" xlink:href="#tool-D12-pad-1010"/><use x="307.5" y="207.5" xlink:href="#tool-D12-pad-1010"/><use x="207.5" y="207.5" xlink:href="#tool-D12-pad-1010"/><use x="107.5" y="207.5" xlink:href="#tool-D12-pad-1010"/><use x="607.5" y="207.5" xlink:href="#tool-D13-pad-1011"/></g><mask id="pcb_bottom-sm_mask" color="#000"><rect x="7.5" y="7.5" width="700" height="850" fill="#fff"/><use xlink:href="#pcb_bottom-sm"/></mask><mask id="pcb_bottom-cu_finish-mask" color="#fff"><use xlink:href="#pcb_bottom-cu"/></mask></defs><g mask="url(#pcb_bottom-sm_mask)"><rect x="7.5" y="7.5" width="700" height="850" fill="currentColor" class="pcb_board-sm"/><g id="pcb_bottom-ss" class="pcb_board-ss" fill="currentColor" stroke="currentColor"><path d="M 585.7 384.5 L 585.7 420.3 L 561.6 420.3 L 561.6 416.1 L 581 416.1 L 581 405 L 564.2 405 L 564.2 400.8 L 581 400.8 L 581 384.5 L 585.7 384.5 L 585.7 384.5 Z"/><path d="M 546.3 384.5 L 546.3 416.1 L 558.1 416.1 L 558.1 420.3 L 529.7 420.3 L 529.7 416.1 L 541.6 416.1 L 541.6 384.5 L 546.3 384.5 L 546.3 384.5 Z"/><path d="M 524.9 384.5 L 524.9 420.3 L 512.6 420.3 L 512.6 416.1 L 520.1 416.1 L 520.1 388.8 L 520.1 388.8 L 512.5 388.8 L 510.8 388.8 L 509.3 388.9 L 508.1 389.1 L 506.9 389.4 L 506 389.8 L 505.1 390.2 L 504.4 390.7 L 503.7 391.3 L 502.9 392.2 L 502.2 393.2 L 501.6 394.5 L 501.1 395.8 L 500.7 397.3 L 500.4 399 L 500.2 400.7 L 500.1 402.7 L 500.3 405.3 L 500.6 407.7 L 501.2 409.7 L 502 411.3 L 503 412.7 L 504 413.8 L 505.2 414.7 L 506.5 415.4 L 507.6 415.7 L 509 415.9 L 510.6 416 L 512.6 416.1 L 512.6 420.3 L 512.5 420.3 L 510.6 420.3 L 508.8 420.2 L 507.4 420 L 506.2 419.8 L 504.7 419.4 L 503.3 418.8 L 502.1 418.1 L 500.9 417.3 L 499.6 416 L 498.4 414.5 L 497.5 412.9 L 496.7 411.1 L 496.1 409.2 L 495.6 407.1 L 495.4 404.9 L 495.3 402.6 L 495.3 400.6 L 495.5 398.8 L 495.8 397 L 496.2 395.4 L 496.8 393.9 L 497.3 392.5 L 498 391.3 L 498.7 390.2 L 499.4 389.2 L 500.2 388.3 L 501 387.6 L 501.9 386.9 L 502.9 386.4 L 503.9 385.9 L 505 385.5 L 506.2 385.1 L 507.5 384.9 L 508.9 384.7 L 510.4 384.6 L 511.9 384.5 L 524.9 384.5 L 524.9 384.5 Z"/><path d="M 487.9 384.5 L 487.9 420.3 L 483.2 420.3 L 483.2 384.5 L 487.9 384.5 L 487.9 384.5 Z"/><path d="M 461.5 384.5 L 461.5 420.3 L 457.1 420.3 L 457.1 407.5 L 455.5 409 L 453.6 410.1 L 451.6 410.8 L 449.4 411 L 448 411 L 446.7 410.8 L 445.5 410.4 L 444.4 409.9 L 443.4 409.3 L 442.5 408.6 L 441.9 407.7 L 441.3 406.8 L 440.9 405.6 L 440.6 404.3 L 440.5 402.7 L 440.4 401 L 440.4 384.5 L 444.8 384.5 L 444.8 401 L 444.9 402.5 L 445.2 403.8 L 445.6 404.9 L 446.2 405.8 L 447 406.4 L 448 406.9 L 449 407.2 L 450.3 407.3 L 451.2 407.2 L 452.2 407 L 453.1 406.7 L 454 406.2 L 454.7 405.7 L 455.4 405.1 L 456 404.3 L 456.4 403.5 L 456.7 402.5 L 456.9 401.4 L 457.1 400.2 L 457.1 398.7 L 457.1 384.5 L 461.5 384.5 L 461.5 384.5 Z"/><path d="M 416 392.9 L 411.4 392.3 L 412.1 390.5 L 413 388.8 L 414.1 387.3 L 415.4 386.2 L 417 385.2 L 418.7 384.5 L 420.7 384.1 L 422.9 384 L 425.5 384.2 L 427.9 384.8 L 430.1 385.9 L 431.9 387.5 L 433.3 389.4 L 434.4 391.7 L 435 394.3 L 435.2 397.3 L 435 400.4 L 434.4 403.1 L 433.3 405.5 L 431.8 407.4 L 430 409 L 428 410.1 L 425.6 410.8 L 423.1 411 L 422.7 411 L 423.1 407.4 L 424.5 407.3 L 425.8 406.9 L 427 406.3 L 428.1 405.4 L 429 404.3 L 429.7 403.1 L 430.2 401.6 L 430.4 400 L 430.4 400 L 415.9 400 L 416.2 401.5 L 416.5 402.9 L 417 404 L 417.6 404.9 L 418.7 406 L 420 406.8 L 421.4 407.3 L 423.1 407.4 L 422.7 411 L 420.6 410.8 L 418.4 410.2 L 416.4 409 L 414.6 407.5 L 413.1 405.6 L 412.1 403.2 L 411.5 400.6 L 411.3 397.5 L 411.3 397.3 L 411.3 397.1 L 411.3 396.8 L 411.3 396.4 L 430.6 396.4 L 430.4 394.4 L 429.9 392.6 L 429.2 391.1 L 428.2 389.8 L 427.1 388.8 L 425.8 388.1 L 424.4 387.7 L 422.8 387.5 L 421.6 387.7 L 420.6 387.9 L 419.6 388.3 L 418.7 388.8 L 417.9 389.5 L 417.1 390.5 L 416.5 391.6 L 416 392.9 L 416 392.9 Z"/><path d="M 389 387.7 L 390.2 386.8 L 390.4 386.6 L 392.1 389.1 L 391.3 389.8 L 390.6 390.6 L 390.1 391.6 L 389.8 392.4 L 389.5 393.4 L 389.4 394.6 L 389.4 395.9 L 389.4 397.5 L 389.4 397.5 L 390.7 397.1 L 392.3 396.6 L 394.3 396.2 L 396.6 395.9 L 397.8 395.7 L 398.8 395.5 L 399.7 395.3 L 400.4 395 L 400.9 394.7 L 401.4 394.4 L 401.8 394 L 402.1 393.6 L 402.4 393.1 L 402.6 392.6 L 402.7 392.1 L 402.7 391.5 L 402.6 390.6 L 402.4 389.9 L 402 389.2 L 401.4 388.6 L 400.6 388.1 L 399.7 387.7 L 398.7 387.5 L 397.5 387.4 L 396.3 387.5 L 395.1 387.7 L 394 388 L 393 388.5 L 392.1 389.1 L 390.4 386.6 L 391.4 386 L 392.5 385.3 L 393.7 384.8 L 394.9 384.4 L 396 384.2 L 397.3 384 L 398.6 384 L 400.6 384.1 L 402.3 384.5 L 403.8 385.1 L 405.1 386 L 406.1 387.1 L 406.8 388.4 L 407.3 389.8 L 407.4 391.4 L 407.3 392.3 L 407.2 393.2 L 406.9 394 L 406.6 394.9 L 406.1 395.6 L 405.5 396.3 L 404.9 396.9 L 404.3 397.4 L 403.6 397.8 L 402.8 398.2 L 401.9 398.5 L 401.1 398.8 L 400.4 399 L 399.5 399.2 L 398.4 399.3 L 397.2 399.5 L 394.7 399.8 L 392.6 400.2 L 390.8 400.6 L 389.4 401 L 389.4 401.4 L 389.4 401.7 L 389.4 402 L 389.4 402.1 L 389.4 403.4 L 389.7 404.4 L 390.1 405.3 L 390.6 405.9 L 391.5 406.6 L 392.7 407 L 394 407.3 L 395.6 407.4 L 397 407.3 L 398.3 407.1 L 399.3 406.8 L 400.2 406.3 L 400.8 405.7 L 401.4 404.8 L 401.9 403.8 L 402.3 402.5 L 406.6 403.1 L 406.3 404.4 L 405.9 405.6 L 405.3 406.6 L 404.7 407.5 L 404 408.3 L 403.1 409 L 402 409.6 L 400.8 410.1 L 399.5 410.5 L 398.1 410.8 L 396.6 411 L 394.9 411 L 393.4 411 L 391.9 410.8 L 390.7 410.6 L 389.5 410.3 L 388.6 409.9 L 387.8 409.4 L 387.1 408.9 L 386.5 408.3 L 386 407.7 L 385.7 406.9 L 385.4 406.2 L 385.1 405.3 L 385.1 404.6 L 385 403.7 L 384.9 402.6 L 384.9 401.2 L 384.9 395.4 L 384.9 392.6 L 384.9 390.4 L 384.8 388.7 L 384.6 387.7 L 384.5 386.8 L 384.2 386 L 383.9 385.3 L 383.5 384.5 L 388.1 384.5 L 388.4 385.3 L 388.7 386 L 388.9 386.8 L 389 387.7 L 389 387.7 Z"/><path d="M 361.3 384.5 L 361.3 387.8 L 363.3 389.9 L 363.2 389.9 L 362.3 391.2 L 361.7 392.9 L 361.4 394.9 L 361.2 397.1 L 361.4 399.6 L 361.7 401.7 L 362.4 403.5 L 363.2 404.9 L 364.4 406 L 365.6 406.8 L 366.9 407.3 L 368.3 407.4 L 369.7 407.3 L 371 406.8 L 372.2 406 L 373.2 405 L 374.1 403.6 L 374.7 401.9 L 375.1 399.9 L 375.2 397.5 L 375.2 397.5 L 375.1 395.1 L 374.7 393.1 L 374 391.4 L 373.1 390 L 372 389 L 370.8 388.2 L 369.5 387.7 L 368.1 387.5 L 366.8 387.7 L 365.5 388.1 L 364.3 388.9 L 363.3 389.9 L 361.3 387.8 L 362.7 386.1 L 364.4 384.9 L 366.3 384.2 L 368.5 384 L 370.1 384 L 371.5 384.4 L 372.9 384.9 L 374.2 385.6 L 375.5 386.6 L 376.6 387.7 L 377.5 389 L 378.3 390.4 L 378.9 392 L 379.4 393.7 L 379.6 395.5 L 379.7 397.5 L 379.6 399.4 L 379.4 401.2 L 379 402.9 L 378.4 404.5 L 377.7 406 L 376.8 407.3 L 375.7 408.4 L 374.5 409.4 L 373.2 410.1 L 371.8 410.6 L 370.3 410.9 L 368.7 411 L 367.6 411 L 366.5 410.8 L 365.5 410.5 L 364.5 410.1 L 363.7 409.5 L 362.9 408.9 L 362.2 408.2 L 361.6 407.5 L 361.6 420.3 L 357.2 420.3 L 357.2 384.5 L 361.3 384.5 L 361.3 384.5 Z"/><path d="M 332.5 392.9 L 328 392.3 L 328.7 390.5 L 329.5 388.8 L 330.6 387.3 L 332 386.2 L 333.6 385.2 L 335.3 384.5 L 337.3 384.1 L 339.4 384 L 342.1 384.2 L 344.5 384.8 L 346.6 385.9 L 348.4 387.5 L 349.9 389.4 L 350.9 391.7 L 351.6 394.3 L 351.8 397.3 L 351.6 400.4 L 350.9 403.1 L 349.9 405.5 L 348.4 407.4 L 346.6 409 L 344.5 410.1 L 342.2 410.8 L 339.7 411 L 339.3 411 L 339.6 407.4 L 341 407.3 L 342.4 406.9 L 343.6 406.3 L 344.7 405.4 L 345.6 404.3 L 346.3 403.1 L 346.8 401.6 L 347 400 L 347 400 L 332.5 400 L 332.7 401.5 L 333.1 402.9 L 333.6 404 L 334.2 404.9 L 335.3 406 L 336.6 406.8 L 338 407.3 L 339.6 407.4 L 339.3 411 L 337.2 410.8 L 334.9 410.2 L 332.9 409 L 331.2 407.5 L 329.7 405.6 L 328.7 403.2 L 328.1 400.6 L 327.9 397.5 L 327.9 397.3 L 327.9 397.1 L 327.9 396.8 L 327.9 396.4 L 347.2 396.4 L 347 394.4 L 346.5 392.6 L 345.8 391.1 L 344.8 389.8 L 343.6 388.8 L 342.4 388.1 L 341 387.7 L 339.4 387.5 L 338.2 387.7 L 337.1 387.9 L 336.2 388.3 L 335.3 388.8 L 334.5 389.5 L 333.7 390.5 L 333.1 391.6 L 332.5 392.9 L 332.5 392.9 Z"/><path d="M 322.5 384.5 L 322.5 410.5 L 318.6 410.5 L 318.6 406.5 L 317.9 407.8 L 317.1 408.8 L 316.4 409.6 L 315.8 410.2 L 315.1 410.5 L 314.4 410.8 L 313.7 411 L 313 411 L 311.9 411 L 310.7 410.7 L 309.6 410.3 L 308.4 409.6 L 310 405.6 L 310.8 406 L 311.6 406.3 L 312.4 406.4 L 313.2 406.5 L 313.9 406.4 L 314.5 406.3 L 315.2 406 L 315.8 405.6 L 316.3 405.2 L 316.8 404.6 L 317.1 404 L 317.4 403.2 L 317.7 402 L 318 400.8 L 318.1 399.5 L 318.1 398.1 L 318.1 384.5 L 322.5 384.5 L 322.5 384.5 Z"/><path d="M 275 387.7 L 276.2 386.8 L 276.4 386.6 L 278.1 389.1 L 277.3 389.8 L 276.6 390.6 L 276.1 391.6 L 275.8 392.4 L 275.6 393.4 L 275.5 394.6 L 275.4 395.9 L 275.4 397.5 L 275.4 397.5 L 276.8 397.1 L 278.4 396.6 L 280.3 396.2 L 282.6 395.9 L 283.8 395.7 L 284.9 395.5 L 285.8 395.3 L 286.4 395 L 286.9 394.7 L 287.4 394.4 L 287.8 394 L 288.1 393.6 L 288.4 393.1 L 288.6 392.6 L 288.7 392.1 L 288.8 391.5 L 288.7 390.6 L 288.4 389.9 L 288 389.2 L 287.4 388.6 L 286.7 388.1 L 285.8 387.7 L 284.7 387.5 L 283.5 387.4 L 282.3 387.5 L 281.1 387.7 L 280 388 L 279 388.5 L 278.1 389.1 L 276.4 386.6 L 277.4 386 L 278.6 385.3 L 279.7 384.8 L 280.9 384.4 L 282.1 384.2 L 283.3 384 L 284.6 384 L 286.6 384.1 L 288.4 384.5 L 289.9 385.1 L 291.2 386 L 292.1 387.1 L 292.9 388.4 L 293.3 389.8 L 293.4 391.4 L 293.4 392.3 L 293.2 393.2 L 293 394 L 292.6 394.9 L 292.1 395.6 L 291.6 396.3 L 291 396.9 L 290.3 397.4 L 289.6 397.8 L 288.8 398.2 L 288 398.5 L 287.1 398.8 L 286.4 399 L 285.5 399.2 L 284.5 399.3 L 283.2 399.5 L 280.8 399.8 L 278.6 400.2 L 276.8 400.6 L 275.4 401 L 275.4 401.4 L 275.4 401.7 L 275.4 402 L 275.4 402.1 L 275.5 403.4 L 275.7 404.4 L 276.1 405.3 L 276.6 405.9 L 277.6 406.6 L 278.7 407 L 280.1 407.3 L 281.6 407.4 L 283.1 407.3 L 284.3 407.1 L 285.4 406.8 L 286.2 406.3 L 286.9 405.7 L 287.5 404.8 L 288 403.8 L 288.4 402.5 L 292.7 403.1 L 292.3 404.4 L 291.9 405.6 L 291.4 406.6 L 290.8 407.5 L 290 408.3 L 289.1 409 L 288.1 409.6 L 286.9 410.1 L 285.6 410.5 L 284.2 410.8 L 282.6 411 L 281 411 L 279.4 411 L 278 410.8 L 276.7 410.6 L 275.6 410.3 L 274.6 409.9 L 273.8 409.4 L 273.1 408.9 L 272.5 408.3 L 272.1 407.7 L 271.7 406.9 L 271.4 406.2 L 271.2 405.3 L 271.1 404.6 L 271 403.7 L 271 402.6 L 271 401.2 L 271 395.4 L 270.9 392.6 L 270.9 390.4 L 270.8 388.7 L 270.7 387.7 L 270.5 386.8 L 270.3 386 L 269.9 385.3 L 269.5 384.5 L 274.2 384.5 L 274.5 385.3 L 274.7 386 L 274.9 386.8 L 275 387.7 L 275 387.7 Z"/><path d="M 247.3 384.5 L 247.3 387.8 L 249.3 389.9 L 249.3 389.9 L 248.4 391.2 L 247.7 392.9 L 247.4 394.9 L 247.3 397.1 L 247.4 399.6 L 247.8 401.7 L 248.4 403.5 L 249.3 404.9 L 250.4 406 L 251.6 406.8 L 252.9 407.3 L 254.4 407.4 L 255.8 407.3 L 257 406.8 L 258.2 406 L 259.2 405 L 260.1 403.6 L 260.7 401.9 L 261.1 399.9 L 261.2 397.5 L 261.2 397.5 L 261.1 395.1 L 260.7 393.1 L 260 391.4 L 259.1 390 L 258 389 L 256.8 388.2 L 255.5 387.7 L 254.2 387.5 L 252.8 387.7 L 251.5 388.1 L 250.3 388.9 L 249.3 389.9 L 247.3 387.8 L 248.7 386.1 L 250.4 384.9 L 252.3 384.2 L 254.6 384 L 256.1 384 L 257.5 384.4 L 259 384.9 L 260.3 385.6 L 261.5 386.6 L 262.6 387.7 L 263.5 389 L 264.3 390.4 L 264.9 392 L 265.4 393.7 L 265.6 395.5 L 265.7 397.5 L 265.6 399.4 L 265.4 401.2 L 265 402.9 L 264.4 404.5 L 263.7 406 L 262.8 407.3 L 261.8 408.4 L 260.6 409.4 L 259.2 410.1 L 257.8 410.6 L 256.3 410.9 L 254.8 411 L 253.6 411 L 252.5 410.8 L 251.6 410.5 L 250.6 410.1 L 249.7 409.5 L 248.9 408.9 L 248.2 408.2 L 247.6 407.5 L 247.6 420.3 L 243.2 420.3 L 243.2 384.5 L 247.3 384.5 L 247.3 384.5 Z"/><path d="M 219.4 387.7 L 220.6 386.8 L 220.8 386.6 L 222.5 389.1 L 221.7 389.8 L 221 390.6 L 220.5 391.6 L 220.2 392.4 L 220 393.4 L 219.8 394.6 L 219.8 395.9 L 219.8 397.5 L 219.8 397.5 L 221.1 397.1 L 222.8 396.6 L 224.7 396.2 L 226.9 395.9 L 228.2 395.7 L 229.3 395.5 L 230.1 395.3 L 230.8 395 L 231.3 394.7 L 231.8 394.4 L 232.2 394 L 232.5 393.6 L 232.8 393.1 L 233 392.6 L 233.1 392.1 L 233.1 391.5 L 233.1 390.6 L 232.8 389.9 L 232.4 389.2 L 231.8 388.6 L 231.1 388.1 L 230.2 387.7 L 229.1 387.5 L 227.9 387.4 L 226.7 387.5 L 225.5 387.7 L 224.4 388 L 223.4 388.5 L 222.5 389.1 L 220.8 386.6 L 221.8 386 L 223 385.3 L 224.1 384.8 L 225.3 384.4 L 226.5 384.2 L 227.7 384 L 229 384 L 231 384.1 L 232.7 384.5 L 234.3 385.1 L 235.5 386 L 236.6 387.1 L 237.3 388.4 L 237.7 389.8 L 237.8 391.4 L 237.8 392.3 L 237.6 393.2 L 237.3 394 L 236.9 394.9 L 236.5 395.6 L 236 396.3 L 235.4 396.9 L 234.7 397.4 L 234 397.8 L 233.2 398.2 L 232.4 398.5 L 231.5 398.8 L 230.8 399 L 229.9 399.2 L 228.8 399.3 L 227.6 399.5 L 225.1 399.8 L 223 400.2 L 221.2 400.6 L 219.8 401 L 219.8 401.4 L 219.8 401.7 L 219.7 402 L 219.7 402.1 L 219.8 403.4 L 220.1 404.4 L 220.5 405.3 L 221 405.9 L 221.9 406.6 L 223.1 407 L 224.5 407.3 L 226 407.4 L 227.5 407.3 L 228.7 407.1 L 229.7 406.8 L 230.6 406.3 L 231.3 405.7 L 231.9 404.8 L 232.4 403.8 L 232.8 402.5 L 237.1 403.1 L 236.7 404.4 L 236.3 405.6 L 235.8 406.6 L 235.1 407.5 L 234.4 408.3 L 233.5 409 L 232.5 409.6 L 231.2 410.1 L 229.9 410.5 L 228.5 410.8 L 227 411 L 225.4 411 L 223.8 411 L 222.4 410.8 L 221.1 410.6 L 220 410.3 L 219 409.9 L 218.2 409.4 L 217.5 408.9 L 216.9 408.3 L 216.5 407.7 L 216.1 406.9 L 215.8 406.2 L 215.6 405.3 L 215.5 404.6 L 215.4 403.7 L 215.4 402.6 L 215.3 401.2 L 215.3 395.4 L 215.3 392.6 L 215.3 390.4 L 215.2 388.7 L 215.1 387.7 L 214.9 386.8 L 214.6 386 L 214.4 385.3 L 214 384.5 L 218.5 384.5 L 218.8 385.3 L 219.1 386 L 219.3 386.8 L 219.4 387.7 L 219.4 387.7 Z"/><path d="M 208.5 374.6 L 208.5 410.5 L 204.5 410.5 L 204.5 407.1 L 202.4 405 L 202.4 405 L 203.3 403.5 L 204 401.8 L 204.4 399.7 L 204.5 397.3 L 204.5 397.3 L 204.4 395 L 204 393 L 203.4 391.3 L 202.5 389.9 L 201.5 388.9 L 200.3 388.2 L 199 387.7 L 197.6 387.5 L 196.2 387.7 L 194.9 388.2 L 193.7 389 L 192.6 390 L 191.7 391.4 L 191 393.2 L 190.6 395.3 L 190.5 397.7 L 190.6 400 L 191 402.1 L 191.7 403.8 L 192.5 405.1 L 193.6 406.2 L 194.8 407 L 196 407.5 L 197.4 407.6 L 198.8 407.4 L 200.1 406.9 L 201.3 406.1 L 202.4 405 L 204.5 407.1 L 203.8 408 L 203 408.8 L 202.2 409.5 L 201.3 410.1 L 200.4 410.5 L 199.4 410.8 L 198.2 411 L 197 411 L 195.4 410.9 L 193.9 410.6 L 192.5 410.1 L 191.2 409.4 L 189.9 408.4 L 188.9 407.3 L 188.1 406 L 187.3 404.5 L 186.8 402.9 L 186.4 401.2 L 186.1 399.5 L 186 397.7 L 186.1 395.8 L 186.4 393.9 L 186.8 392.2 L 187.5 390.5 L 188.2 389 L 189.2 387.7 L 190.3 386.6 L 191.6 385.6 L 193 384.9 L 194.4 384.4 L 195.8 384 L 197.3 384 L 198.4 384 L 199.4 384.2 L 200.4 384.5 L 201.3 384.9 L 202.1 385.4 L 202.9 385.9 L 203.5 386.6 L 204.2 387.2 L 204.2 374.6 L 208.5 374.6 L 208.5 374.6 Z"/><path d="M 171.1 388.4 L 170.5 384.6 L 171.4 384.4 L 172.3 384.3 L 173.1 384.2 L 173.8 384.2 L 174.9 384.2 L 175.9 384.4 L 176.8 384.6 L 177.5 384.9 L 178.1 385.4 L 178.6 385.8 L 179.1 386.4 L 179.4 386.9 L 179.6 387.7 L 179.8 388.8 L 179.9 390.3 L 179.9 392.1 L 179.9 407 L 183.1 407 L 183.1 410.5 L 179.9 410.5 L 179.9 416.9 L 175.5 419.5 L 175.5 410.5 L 171.1 410.5 L 171.1 407 L 175.5 407 L 175.5 391.9 L 175.5 391 L 175.5 390.3 L 175.4 389.8 L 175.3 389.5 L 175.2 389.2 L 175 389 L 174.8 388.8 L 174.5 388.6 L 174.3 388.5 L 173.9 388.4 L 173.5 388.3 L 173.1 388.3 L 172.7 388.3 L 172.2 388.3 L 171.7 388.4 L 171.1 388.4 L 171.1 388.4 Z"/><path d="M 168.5 397.5 L 168.2 400.8 L 167.5 403.8 L 166.2 406.2 L 164.5 408.2 L 162.7 409.4 L 160.8 410.3 L 158.6 410.8 L 156.3 411 L 153.8 410.8 L 151.4 410.2 L 149.4 409.1 L 147.6 407.5 L 146.1 405.6 L 145 403.4 L 144.4 400.8 L 144.2 397.9 L 144.3 395.5 L 144.5 393.4 L 145 391.6 L 145.7 390 L 146.5 388.6 L 147.5 387.4 L 148.7 386.4 L 150.1 385.5 L 151.5 384.8 L 153.1 384.4 L 154.6 384 L 156.3 384 L 156.6 384 L 156.3 387.5 L 154.7 387.7 L 153.3 388.2 L 152 389 L 150.8 390.1 L 149.9 391.5 L 149.2 393.2 L 148.8 395.3 L 148.7 397.7 L 148.8 399.9 L 149.2 401.9 L 149.9 403.6 L 150.9 404.9 L 152 406 L 153.3 406.8 L 154.7 407.3 L 156.3 407.4 L 157.9 407.3 L 159.3 406.8 L 160.6 406 L 161.8 404.9 L 162.7 403.6 L 163.4 401.8 L 163.8 399.8 L 164 397.5 L 164 397.5 L 163.8 395.2 L 163.4 393.1 L 162.7 391.4 L 161.8 390 L 160.6 389 L 159.3 388.2 L 157.9 387.7 L 156.3 387.5 L 156.6 384 L 158.9 384.2 L 161.2 384.8 L 163.3 385.9 L 165.1 387.4 L 166.6 389.4 L 167.6 391.7 L 168.2 394.4 L 168.5 397.5 L 168.5 397.5 Z"/><path d="M 139.1 384.5 L 139.1 410.5 L 135.1 410.5 L 135.1 406.5 L 134.4 407.8 L 133.6 408.8 L 133 409.6 L 132.3 410.2 L 131.7 410.5 L 131 410.8 L 130.3 411 L 129.5 411 L 128.4 411 L 127.3 410.7 L 126.1 410.3 L 125 409.6 L 126.5 405.6 L 127.3 406 L 128.1 406.3 L 128.9 406.4 L 129.7 406.5 L 130.4 406.4 L 131.1 406.3 L 131.7 406 L 132.3 405.6 L 132.9 405.2 L 133.3 404.6 L 133.6 404 L 134 403.2 L 134.3 402 L 134.5 400.8 L 134.6 399.5 L 134.7 398.1 L 134.7 384.5 L 139.1 384.5 L 139.1 384.5 Z"/><path d="M 468.7 330.8 L 482.6 366.6 L 477.5 366.6 L 468.2 340.6 L 467.6 339 L 467.1 337.5 L 466.7 336.1 L 466.3 334.7 L 465.8 336.2 L 465.4 337.7 L 464.9 339.1 L 464.4 340.6 L 454.7 366.6 L 449.9 366.6 L 463.9 330.8 L 468.7 330.8 L 468.7 330.8 Z"/><path d="M 431.2 339.2 L 426.6 338.6 L 427.3 336.7 L 428.2 335.1 L 429.3 333.6 L 430.6 332.4 L 432.2 331.4 L 433.9 330.8 L 435.9 330.3 L 438.1 330.2 L 440.7 330.4 L 443.1 331.1 L 445.3 332.2 L 447.1 333.7 L 448.5 335.6 L 449.5 337.9 L 450.2 340.5 L 450.4 343.5 L 450.2 346.6 L 449.5 349.4 L 448.5 351.7 L 447 353.7 L 445.2 355.3 L 443.2 356.4 L 440.8 357.1 L 438.3 357.3 L 437.9 357.3 L 438.2 353.7 L 439.7 353.6 L 441 353.2 L 442.2 352.5 L 443.3 351.7 L 444.2 350.6 L 444.9 349.3 L 445.4 347.9 L 445.6 346.2 L 445.6 346.2 L 431.1 346.2 L 431.4 347.8 L 431.7 349.1 L 432.2 350.2 L 432.8 351.2 L 433.9 352.3 L 435.2 353.1 L 436.6 353.5 L 438.2 353.7 L 437.9 357.3 L 435.8 357.1 L 433.6 356.4 L 431.6 355.3 L 429.8 353.8 L 428.4 351.8 L 427.3 349.5 L 426.7 346.8 L 426.5 343.8 L 426.5 343.6 L 426.5 343.3 L 426.5 343 L 426.5 342.6 L 445.8 342.6 L 445.6 340.6 L 445.1 338.9 L 444.4 337.3 L 443.4 336.1 L 442.3 335.1 L 441 334.4 L 439.6 334 L 438 333.8 L 436.9 333.9 L 435.8 334.2 L 434.8 334.5 L 433.9 335.1 L 433.1 335.8 L 432.4 336.8 L 431.7 337.9 L 431.2 339.2 L 431.2 339.2 Z"/><path d="M 421.2 330.8 L 421.2 356.7 L 417.2 356.7 L 417.2 352.8 L 416.5 354 L 415.8 355.1 L 415.1 355.9 L 414.4 356.4 L 413.8 356.8 L 413.1 357.1 L 412.3 357.3 L 411.6 357.3 L 410.5 357.2 L 409.4 356.9 L 408.2 356.5 L 407.1 355.9 L 408.6 351.8 L 409.4 352.2 L 410.2 352.5 L 411 352.7 L 411.8 352.8 L 412.5 352.7 L 413.2 352.5 L 413.8 352.3 L 414.4 351.9 L 414.9 351.4 L 415.4 350.8 L 415.8 350.2 L 416 349.5 L 416.4 348.3 L 416.6 347 L 416.8 345.7 L 416.8 344.4 L 416.8 330.8 L 421.2 330.8 L 421.2 330.8 Z"/><path d="M 406.2 338.5 L 401.9 339.2 L 401.6 338 L 401.2 336.9 L 400.6 336 L 399.9 335.2 L 398.9 334.6 L 397.9 334.2 L 396.6 333.9 L 395.2 333.8 L 393.8 333.9 L 392.5 334.1 L 391.5 334.5 L 390.7 335.1 L 390.1 335.7 L 389.6 336.4 L 389.3 337.1 L 389.2 337.9 L 389.3 338.6 L 389.5 339.3 L 389.9 339.8 L 390.5 340.3 L 391.1 340.6 L 392.1 341 L 393.4 341.4 L 395 341.8 L 397.2 342.4 L 399.1 342.9 L 400.6 343.4 L 401.7 343.9 L 402.6 344.4 L 403.4 344.9 L 404 345.6 L 404.5 346.4 L 404.9 347.1 L 405.3 348 L 405.5 348.9 L 405.5 349.8 L 405.5 350.7 L 405.3 351.5 L 405.1 352.3 L 404.7 353.1 L 404.3 353.8 L 403.8 354.4 L 403.2 355 L 402.5 355.5 L 402 355.8 L 401.3 356.2 L 400.6 356.5 L 399.7 356.8 L 398.8 357 L 397.9 357.2 L 396.9 357.3 L 396 357.3 L 394.5 357.3 L 393.1 357.1 L 391.8 356.8 L 390.6 356.4 L 389.5 356 L 388.6 355.4 L 387.8 354.7 L 387.2 354 L 386.7 353.2 L 386.3 352.3 L 385.9 351.2 L 385.7 350 L 390 349.4 L 390.2 350.4 L 390.5 351.2 L 391 351.9 L 391.7 352.6 L 392.5 353.1 L 393.4 353.4 L 394.4 353.6 L 395.6 353.7 L 397 353.6 L 398.2 353.4 L 399.2 353.1 L 399.9 352.7 L 400.5 352.2 L 400.9 351.6 L 401.2 351 L 401.2 350.3 L 401.2 349.9 L 401.1 349.5 L 401 349.2 L 400.7 348.8 L 400.4 348.5 L 400 348.2 L 399.6 347.9 L 399 347.6 L 398.5 347.5 L 397.7 347.2 L 396.6 346.9 L 395.1 346.5 L 393 345.9 L 391.2 345.4 L 389.7 344.9 L 388.6 344.5 L 387.8 344 L 387 343.5 L 386.3 342.9 L 385.8 342.2 L 385.3 341.4 L 385 340.5 L 384.8 339.5 L 384.7 338.4 L 384.8 337.3 L 385 336.3 L 385.4 335.3 L 386 334.3 L 386.7 333.4 L 387.5 332.5 L 388.6 331.9 L 389.7 331.3 L 390.9 330.8 L 392.3 330.5 L 393.7 330.3 L 395.1 330.2 L 397.5 330.3 L 399.6 330.7 L 401.4 331.4 L 402.9 332.3 L 404.1 333.5 L 405 334.9 L 405.8 336.6 L 406.2 338.5 L 406.2 338.5 Z"/><path d="M 379.5 330.8 L 379.5 356.7 L 375.1 356.7 L 375.1 330.8 L 379.5 330.8 L 379.5 330.8 Z"/><path d="M 379.5 361.5 L 379.5 366.6 L 375.1 366.6 L 375.1 361.5 L 379.5 361.5 L 379.5 361.5 Z"/><path d="M 370 343.8 L 369.7 347.1 L 369 350 L 367.7 352.5 L 366 354.4 L 364.2 355.7 L 362.3 356.6 L 360.2 357.1 L 357.9 357.3 L 355.3 357.1 L 353 356.4 L 350.9 355.3 L 349.1 353.8 L 347.6 351.9 L 346.6 349.6 L 345.9 347 L 345.7 344.1 L 345.8 341.8 L 346.1 339.7 L 346.6 337.8 L 347.2 336.2 L 348.1 334.9 L 349.1 333.7 L 350.2 332.7 L 351.6 331.8 L 353.1 331.1 L 354.6 330.6 L 356.2 330.3 L 357.9 330.2 L 358.1 330.2 L 357.9 333.8 L 356.3 334 L 354.9 334.4 L 353.6 335.2 L 352.4 336.3 L 351.4 337.7 L 350.8 339.5 L 350.4 341.5 L 350.2 343.9 L 350.4 346.2 L 350.8 348.1 L 351.5 349.8 L 352.4 351.2 L 353.6 352.3 L 354.9 353.1 L 356.3 353.5 L 357.9 353.7 L 359.4 353.5 L 360.8 353.1 L 362.1 352.3 L 363.3 351.2 L 364.3 349.8 L 364.9 348.1 L 365.3 346.1 L 365.5 343.8 L 365.5 343.8 L 365.3 341.4 L 364.9 339.4 L 364.3 337.7 L 363.3 336.3 L 362.1 335.2 L 360.8 334.4 L 359.4 334 L 357.9 333.8 L 358.1 330.2 L 360.5 330.4 L 362.8 331.1 L 364.8 332.2 L 366.6 333.7 L 368.1 335.6 L 369.2 338 L 369.8 340.6 L 370 343.8 L 370 343.8 Z"/><path d="M 340.6 330.8 L 340.6 356.7 L 336.6 356.7 L 336.6 353.1 L 335 354.9 L 333.1 356.2 L 330.9 357 L 328.4 357.3 L 327.2 357.3 L 326.1 357.1 L 325.1 356.8 L 324 356.5 L 323.1 356 L 322.3 355.5 L 321.6 354.9 L 321.1 354.3 L 320.6 353.5 L 320.3 352.8 L 320 351.9 L 319.7 351 L 319.6 350.3 L 319.5 349.3 L 319.5 348.1 L 319.5 346.8 L 319.5 330.8 L 323.9 330.8 L 323.9 346.6 L 323.9 347.8 L 324 348.9 L 324.2 349.8 L 324.4 350.6 L 324.7 351.2 L 325.1 351.8 L 325.6 352.3 L 326.2 352.7 L 326.9 353.1 L 327.6 353.3 L 328.4 353.4 L 329.3 353.5 L 330.6 353.4 L 331.9 353.1 L 333.1 352.5 L 334.1 351.7 L 335 350.6 L 335.6 349.1 L 336 347.2 L 336.2 344.9 L 336.2 330.8 L 340.6 330.8 L 340.6 330.8 Z"/><path d="M 283.5 330.8 L 287.9 330.8 L 287.9 358.8 L 288.8 358.1 L 289.7 357.3 L 290.8 356.5 L 292.1 355.8 L 293.3 355.1 L 294.5 354.4 L 295.6 353.9 L 296.7 353.5 L 296.7 357.7 L 294.9 358.6 L 293.2 359.7 L 291.7 360.8 L 290.3 361.9 L 289 363.2 L 287.9 364.4 L 287 365.6 L 286.4 366.7 L 283.5 366.7 L 283.5 330.8 L 283.5 330.8 Z"/><path d="M 269.8 330.8 L 269.8 335.8 L 264.8 335.8 L 264.8 330.8 L 269.8 330.8 L 269.8 330.8 Z"/><path d="M 258.4 348.4 L 258.3 351.5 L 258.1 354.2 L 257.7 356.6 L 257.1 358.6 L 256.4 360.5 L 255.5 362.1 L 254.4 363.5 L 253.2 364.6 L 251.8 365.5 L 250.3 366.2 L 248.6 366.6 L 246.7 366.7 L 245.3 366.7 L 244 366.4 L 242.8 366.1 L 241.7 365.6 L 240.6 364.9 L 239.7 364.2 L 238.8 363.2 L 238.1 362.2 L 237.4 361.1 L 236.8 359.8 L 236.3 358.4 L 235.8 356.9 L 235.5 355.2 L 235.3 353.2 L 235.1 351 L 235.1 348.4 L 235.1 345.5 L 235.4 342.7 L 235.8 340.4 L 236.3 338.3 L 237.1 336.4 L 237.9 334.9 L 239 333.4 L 240.2 332.3 L 241.6 331.4 L 243.1 330.7 L 244.8 330.3 L 246.7 330.2 L 247.1 330.2 L 246.7 333.8 L 245.3 334 L 243.9 334.5 L 242.7 335.5 L 241.6 336.7 L 240.7 338.6 L 240.1 341.1 L 239.7 344.4 L 239.5 348.4 L 239.7 352.5 L 240.1 355.8 L 240.7 358.4 L 241.6 360.2 L 242.7 361.5 L 244 362.4 L 245.3 362.9 L 246.8 363.1 L 248.2 362.9 L 249.5 362.5 L 250.6 361.6 L 251.6 360.5 L 252.6 358.6 L 253.3 355.9 L 253.7 352.5 L 253.9 348.4 L 253.9 348.4 L 253.7 344.4 L 253.4 341.1 L 252.7 338.5 L 251.8 336.7 L 250.7 335.5 L 249.5 334.5 L 248.2 334 L 246.7 333.8 L 247.1 330.2 L 249.2 330.4 L 251.3 331.1 L 253.2 332.3 L 254.9 333.9 L 256.4 336.5 L 257.5 339.7 L 258.2 343.8 L 258.4 348.4 L 258.4 348.4 Z"/><path d="M 459.5 438.3 L 459.5 474.1 L 446 474.1 L 444.4 474 L 442.9 474 L 441.6 473.9 L 440.6 473.7 L 439.3 473.4 L 438.2 473.1 L 437.1 472.6 L 436.2 472.1 L 435.3 471.4 L 434.5 470.6 L 433.9 469.6 L 433.3 468.6 L 432.8 467.5 L 432.5 466.3 L 432.3 465 L 432.2 463.7 L 432.4 461.5 L 432.9 459.5 L 433.8 457.7 L 435.1 456 L 436.8 454.6 L 439.2 453.6 L 442.1 453 L 443.2 453 L 443.4 457.1 L 441.6 457.5 L 440.1 458 L 439 458.8 L 438.2 459.7 L 437.6 460.8 L 437.2 462.1 L 437.1 463.6 L 437.1 464.7 L 437.4 465.6 L 437.7 466.6 L 438.2 467.4 L 438.8 468.1 L 439.5 468.7 L 440.3 469.2 L 441.2 469.5 L 441.9 469.7 L 442.9 469.7 L 444.2 469.8 L 445.6 469.8 L 454.8 469.8 L 454.8 457 L 454.8 457 L 445.5 457 L 443.4 457.1 L 443.2 453 L 445.6 452.8 L 454.8 452.8 L 454.8 438.3 L 459.5 438.3 L 459.5 438.3 Z"/><path d="M 426.7 438.3 L 426.7 464.2 L 422.3 464.2 L 422.3 438.3 L 426.7 438.3 L 426.7 438.3 Z"/><path d="M 426.7 469 L 426.7 474.1 L 422.3 474.1 L 422.3 469 L 426.7 469 L 426.7 469 Z"/><path d="M 415.6 438.3 L 415.6 464.2 L 411.7 464.2 L 411.7 460.5 L 410.1 462.4 L 408.2 463.7 L 406 464.5 L 403.4 464.8 L 402.3 464.7 L 401.2 464.6 L 400.1 464.3 L 399.1 464 L 398.2 463.5 L 397.4 463 L 396.7 462.4 L 396.2 461.8 L 395.7 461 L 395.3 460.3 L 395 459.4 L 394.8 458.5 L 394.7 457.8 L 394.6 456.8 L 394.6 455.6 L 394.5 454.2 L 394.5 438.3 L 399 438.3 L 399 454 L 399 455.3 L 399.1 456.4 L 399.2 457.3 L 399.5 458.1 L 399.8 458.7 L 400.2 459.3 L 400.7 459.7 L 401.3 460.2 L 401.9 460.5 L 402.7 460.8 L 403.5 460.9 L 404.4 461 L 405.7 460.8 L 406.9 460.5 L 408.1 460 L 409.2 459.2 L 410.1 458.1 L 410.7 456.6 L 411.1 454.7 L 411.2 452.4 L 411.2 438.3 L 415.6 438.3 L 415.6 438.3 Z"/><path d="M 370.1 446.6 L 365.5 446 L 366.2 444.2 L 367.1 442.5 L 368.2 441.1 L 369.5 439.9 L 371 438.9 L 372.8 438.2 L 374.8 437.8 L 376.9 437.7 L 379.6 437.9 L 382 438.6 L 384.1 439.7 L 386 441.2 L 387.4 443.1 L 388.4 445.4 L 389.1 448 L 389.3 451 L 389.1 454.1 L 388.4 456.8 L 387.4 459.2 L 385.9 461.2 L 384.1 462.7 L 382 463.9 L 379.7 464.5 L 377.2 464.8 L 376.8 464.7 L 377.1 461.2 L 378.6 461 L 379.9 460.6 L 381.1 460 L 382.2 459.2 L 383.1 458.1 L 383.8 456.8 L 384.3 455.3 L 384.5 453.7 L 384.5 453.7 L 370 453.7 L 370.2 455.3 L 370.6 456.6 L 371 457.7 L 371.7 458.6 L 372.8 459.7 L 374.1 460.5 L 375.5 461 L 377.1 461.2 L 376.8 464.7 L 374.7 464.5 L 372.5 463.9 L 370.5 462.8 L 368.7 461.2 L 367.2 459.3 L 366.2 457 L 365.6 454.3 L 365.4 451.3 L 365.4 451.1 L 365.4 450.8 L 365.4 450.5 L 365.4 450.1 L 384.7 450.1 L 384.5 448.1 L 384 446.4 L 383.3 444.8 L 382.3 443.6 L 381.2 442.6 L 379.9 441.9 L 378.4 441.4 L 376.9 441.3 L 375.7 441.4 L 374.7 441.6 L 373.7 442 L 372.8 442.6 L 371.9 443.3 L 371.2 444.2 L 370.6 445.3 L 370.1 446.6 L 370.1 446.6 Z"/><path d="M 338.4 465.3 L 342.8 464.9 L 343.1 466.2 L 343.5 467.2 L 344 468.1 L 344.5 468.7 L 345.4 469.5 L 346.4 470.1 L 347.6 470.5 L 348.8 470.6 L 349.9 470.5 L 350.8 470.3 L 351.7 469.9 L 352.5 469.4 L 353.5 468.6 L 354.4 467.6 L 355.1 466.4 L 355.8 465 L 356.3 463.4 L 356.7 461.5 L 356.9 459.3 L 357.1 456.7 L 354.7 454.9 L 355.2 454.3 L 355.8 453 L 356.2 451.5 L 356.4 449.9 L 356.4 449.9 L 356.3 448.8 L 356.1 447.7 L 355.8 446.6 L 355.4 445.5 L 354.9 444.5 L 354.2 443.7 L 353.5 443 L 352.7 442.3 L 351.8 441.9 L 350.9 441.6 L 350 441.4 L 349.1 441.3 L 347.7 441.4 L 346.5 441.8 L 345.3 442.5 L 344.3 443.5 L 343.4 444.7 L 342.8 446.2 L 342.4 447.8 L 342.3 449.6 L 342.4 451.4 L 342.8 452.9 L 343.4 454.3 L 344.3 455.5 L 345.3 456.4 L 346.5 457.1 L 347.8 457.5 L 349.2 457.6 L 350.7 457.5 L 352 457.1 L 353.2 456.4 L 354.3 455.5 L 354.7 454.9 L 357.1 456.7 L 356.2 457.9 L 355.3 458.8 L 354.3 459.7 L 353.2 460.3 L 352 460.8 L 350.8 461.2 L 349.6 461.4 L 348.4 461.5 L 346.2 461.3 L 344.3 460.7 L 342.5 459.7 L 340.9 458.2 L 339.5 456.5 L 338.6 454.5 L 338 452.3 L 337.8 449.9 L 337.9 448.2 L 338.2 446.6 L 338.6 445.1 L 339.2 443.6 L 340 442.3 L 341 441.1 L 342 440.1 L 343.2 439.2 L 344.5 438.5 L 345.9 438.1 L 347.4 437.8 L 349 437.7 L 351.6 437.9 L 354 438.7 L 356.1 439.9 L 358 441.7 L 359.5 444 L 360.6 447.1 L 361.2 450.7 L 361.4 455 L 361.2 459.9 L 360.5 464 L 359.3 467.4 L 357.6 470.1 L 355.8 471.9 L 353.7 473.2 L 351.3 474 L 348.6 474.2 L 346.6 474.1 L 344.7 473.6 L 343.1 472.9 L 341.7 471.8 L 340.5 470.5 L 339.5 469 L 338.8 467.3 L 338.4 465.3 L 338.4 465.3 Z"/><path d="M 319.4 438.3 L 319.4 446.8 L 334.9 446.8 L 334.9 450.9 L 322.1 469 L 319.4 467 L 330.5 450.9 L 319.4 450.9 L 319.4 450.9 L 319.4 467 L 322.1 469 L 318.5 474.1 L 314.9 474.1 L 314.9 450.9 L 310.1 450.9 L 310.1 446.8 L 314.9 446.8 L 314.9 438.3 L 319.4 438.3 L 319.4 438.3 Z"/><path d="M 280.9 442.2 L 280.3 438.3 L 281.2 438.1 L 282 438 L 282.8 438 L 283.6 437.9 L 284.7 438 L 285.7 438.1 L 286.6 438.4 L 287.3 438.7 L 287.9 439.1 L 288.4 439.5 L 288.8 440.1 L 289.2 440.7 L 289.4 441.5 L 289.5 442.6 L 289.7 444.1 L 289.7 445.8 L 289.7 460.8 L 292.9 460.8 L 292.9 464.2 L 289.7 464.2 L 289.7 470.6 L 285.3 473.2 L 285.3 464.2 L 280.9 464.2 L 280.9 460.8 L 285.3 460.8 L 285.3 445.6 L 285.3 444.8 L 285.3 444.1 L 285.2 443.6 L 285.1 443.2 L 284.9 442.9 L 284.8 442.7 L 284.6 442.5 L 284.4 442.3 L 284 442.2 L 283.7 442.1 L 283.3 442.1 L 282.8 442 L 282.4 442 L 282 442.1 L 281.5 442.1 L 280.9 442.2 L 280.9 442.2 Z"/><path d="M 278.2 451.2 L 278 454.6 L 277.2 457.5 L 276 459.9 L 274.2 461.9 L 272.5 463.2 L 270.5 464.1 L 268.4 464.6 L 266.1 464.8 L 263.5 464.5 L 261.2 463.9 L 259.2 462.8 L 257.3 461.3 L 255.8 459.4 L 254.8 457.1 L 254.2 454.5 L 254 451.6 L 254 449.2 L 254.3 447.1 L 254.8 445.3 L 255.5 443.7 L 256.3 442.4 L 257.3 441.2 L 258.5 440.1 L 259.8 439.3 L 261.3 438.6 L 262.8 438.1 L 264.4 437.8 L 266.1 437.7 L 266.4 437.7 L 266.1 441.3 L 264.5 441.4 L 263.1 441.9 L 261.8 442.7 L 260.6 443.8 L 259.7 445.2 L 259 446.9 L 258.6 449 L 258.5 451.4 L 258.6 453.6 L 259 455.6 L 259.7 457.3 L 260.6 458.7 L 261.8 459.7 L 263.1 460.5 L 264.5 461 L 266.1 461.2 L 267.7 461 L 269.1 460.5 L 270.4 459.7 L 271.6 458.7 L 272.5 457.3 L 273.2 455.6 L 273.6 453.6 L 273.7 451.2 L 273.7 451.2 L 273.6 448.9 L 273.2 446.9 L 272.5 445.2 L 271.6 443.8 L 270.4 442.7 L 269.1 441.9 L 267.7 441.4 L 266.1 441.3 L 266.4 437.7 L 268.7 437.9 L 271 438.6 L 273.1 439.7 L 274.9 441.2 L 276.4 443.1 L 277.4 445.5 L 278.1 448.1 L 278.2 451.2 L 278.2 451.2 Z"/></g></g><use class="pcb_board-cf" mask="url(#pcb_bottom-cu_finish-mask)" xlink:href="#pcb_bottom-sm"/></g></g></svg>