<?xml-stylesheet href="https://s3.amazonaws.com/maker.works.boards/css/blackpcb.css" type="text/css"?><svg xmlns="http://www.w3.org/2000/svg" version="1.1" xmlns:xlink="http://www.w3.org/1999/xlink" stroke-width="0" stroke-linecap="round" stroke-linejoin="round" width="0.7000000000000001in" height="0.85in" id="pcb_top" viewBox="7.5 7.5 700 850"><defs><circle cx="0" cy="0" r="20.5" id="tool-T10-pad-1000"/><circle cx="0" cy="0" r="21.5" id="tool-T11-pad-1001"/><circle cx="0" cy="0" r="31.5" id="tool-D11-pad-1013"/><rect x="-31.496" y="-31.496" width="62.992" height="62.992" transform="rotate(90)" id="tool-D12-pad-1014"/><circle cx="0" cy="0" r="32.5" id="tool-D13-pad-1015"/><rect x="-32.4805" y="-32.4805" width="64.961" height="64.961" transform="rotate(270)" id="tool-D14-pad-1016"/><circle cx="0" cy="0" r="31.5" id="tool-D10-pad-1019"/><rect x="-31.496" y="-31.496" width="62.992" height="62.992" transform="rotate(90)" id="tool-D11-pad-1020"/><circle cx="0" cy="0" r="32.5" id="tool-D12-pad-1021"/><rect x="-32.4805" y="-32.4805" width="64.961" height="64.961" transform="rotate(270)" id="tool-D13-pad-1022"/><g id="pcb_top-cu" fill="currentColor" stroke="currentColor"><path stroke-width="2" fill="none" d="M 691 841 L 691 841 M 691 841 L 24 841 M 24 841 L 24 24 M 24 24 L 691 24 M 691 24 L 691 841 M 162.4 667.3 L 152.6 667.3 M 152.6 667.3 L 143.1 669.6 M 143.1 669.6 L 134.5 674.2 M 134.5 674.2 L 127.1 680.6 M 127.1 680.6 L 121.6 688.7 M 121.6 688.7 L 118.1 697.8 M 118.1 697.8 L 116.9 707.5 M 116.9 707.5 L 118.1 717.2 M 118.1 717.2 L 121.6 726.3 M 121.6 726.3 L 127.1 734.4 M 127.1 734.4 L 134.5 740.8 M 134.5 740.8 L 143.1 745.4 M 143.1 745.4 L 152.6 747.7 M 152.6 747.7 L 162.4 747.7 M 162.4 747.7 L 171.9 745.4 M 171.9 745.4 L 180.5 740.8 M 180.5 740.8 L 187.9 734.4 M 187.9 734.4 L 193.4 726.3 M 193.4 726.3 L 196.9 717.2 M 196.9 717.2 L 198.1 707.5 M 198.1 707.5 L 196.9 697.8 M 196.9 697.8 L 193.4 688.7 M 193.4 688.7 L 187.9 680.6 M 187.9 680.6 L 180.5 674.2 M 180.5 674.2 L 171.9 669.6 M 171.9 669.6 L 162.4 667.3 M 262.4 667.3 L 252.6 667.3 M 252.6 667.3 L 243.1 669.6 M 243.1 669.6 L 234.5 674.2 M 234.5 674.2 L 227.1 680.6 M 227.1 680.6 L 221.6 688.7 M 221.6 688.7 L 218.1 697.8 M 218.1 697.8 L 216.9 707.5 M 216.9 707.5 L 218.1 717.2 M 218.1 717.2 L 221.6 726.3 M 221.6 726.3 L 227.1 734.4 M 227.1 734.4 L 234.5 740.8 M 234.5 740.8 L 243.1 745.4 M 243.1 745.4 L 252.6 747.7 M 252.6 747.7 L 262.4 747.7 M 262.4 747.7 L 271.9 745.4 M 271.9 745.4 L 280.5 740.8 M 280.5 740.8 L 287.9 734.4 M 287.9 734.4 L 293.4 726.3 M 293.4 726.3 L 296.9 717.2 M 296.9 717.2 L 298.1 707.5 M 298.1 707.5 L 296.9 697.8 M 296.9 697.8 L 293.4 688.7 M 293.4 688.7 L 287.9 680.6 M 287.9 680.6 L 280.5 674.2 M 280.5 674.2 L 271.9 669.6 M 271.9 669.6 L 262.4 667.3 M 462.4 667.3 L 452.6 667.3 M 452.6 667.3 L 443.1 669.6 M 443.1 669.6 L 434.5 674.2 M 434.5 674.2 L 427.1 680.6 M 427.1 680.6 L 421.6 688.7 M 421.6 688.7 L 418.1 697.8 M 418.1 697.8 L 416.9 707.5 M 416.9 707.5 L 418.1 717.2 M 418.1 717.2 L 421.6 726.3 M 421.6 726.3 L 427.1 734.4 M 427.1 734.4 L 434.5 740.8 M 434.5 740.8 L 443.1 745.4 M 443.1 745.4 L 452.6 747.7 M 452.6 747.7 L 462.4 747.7 M 462.4 747.7 L 471.9 745.4 M 471.9 745.4 L 480.5 740.8 M 480.5 740.8 L 487.9 734.4 M 487.9 734.4 L 493.4 726.3 M 493.4 726.3 L 496.9 717.2 M 496.9 717.2 L 498.1 707.5 M 498.1 707.5 L 496.9 697.8 M 496.9 697.8 L 493.4 688.7 M 493.4 688.7 L 487.9 680.6 M 487.9 680.6 L 480.5 674.2 M 480.5 674.2 L 471.9 669.6 M 471.9 669.6 L 462.4 667.3 M 562.4 667.3 L 552.6 667.3 M 552.6 667.3 L 543.1 669.6 M 543.1 669.6 L 534.5 674.2 M 534.5 674.2 L 527.1 680.6 M 527.1 680.6 L 521.6 688.7 M 521.6 688.7 L 518.1 697.8 M 518.1 697.8 L 516.9 707.5 M 516.9 707.5 L 518.1 717.2 M 518.1 717.2 L 521.6 726.3 M 521.6 726.3 L 527.1 734.4 M 527.1 734.4 L 534.5 740.8 M 534.5 740.8 L 543.1 745.4 M 543.1 745.4 L 552.6 747.7 M 552.6 747.7 L 562.4 747.7 M 562.4 747.7 L 571.9 745.4 M 571.9 745.4 L 580.5 740.8 M 580.5 740.8 L 587.9 734.4 M 587.9 734.4 L 593.4 726.3 M 593.4 726.3 L 596.9 717.2 M 596.9 717.2 L 598.1 707.5 M 598.1 707.5 L 596.9 697.8 M 596.9 697.8 L 593.4 688.7 M 593.4 688.7 L 587.9 680.6 M 587.9 680.6 L 580.5 674.2 M 580.5 674.2 L 571.9 669.6 M 571.9 669.6 L 562.4 667.3 M 349.6 668 L 343.1 669.6 M 343.1 669.6 L 334.5 674.2 M 334.5 674.2 L 327.1 680.6 M 327.1 680.6 L 321.6 688.7 M 321.6 688.7 L 318.1 697.8 M 318.1 697.8 L 316.9 707.5 M 316.9 707.5 L 318.1 717.2 M 318.1 717.2 L 321.6 726.3 M 321.6 726.3 L 327.1 734.4 M 327.1 734.4 L 334.5 740.8 M 334.5 740.8 L 343.1 745.4 M 343.1 745.4 L 349.6 747 M 349.6 747 L 349.6 736.5 M 349.6 736.5 L 365.4 736.5 M 365.4 736.5 L 365.4 747 M 365.4 747 L 371.9 745.4 M 371.9 745.4 L 380.5 740.8 M 380.5 740.8 L 387.9 734.4 M 387.9 734.4 L 393.4 726.3 M 393.4 726.3 L 396.9 717.2 M 396.9 717.2 L 398.1 707.5 M 398.1 707.5 L 396.9 697.8 M 396.9 697.8 L 393.4 688.7 M 393.4 688.7 L 387.9 680.6 M 387.9 680.6 L 380.5 674.2 M 380.5 674.2 L 371.9 669.6 M 371.9 669.6 L 365.4 668 M 365.4 668 L 365.4 678.5 M 365.4 678.5 L 349.6 678.5 M 349.6 678.5 L 349.6 668 M 189 566.9 L 126 566.9 M 126 566.9 L 124.6 567.1 M 124.6 567.1 L 123.2 567.4 M 123.2 567.4 L 121.9 567.9 M 121.9 567.9 L 120.7 568.7 M 120.7 568.7 L 119.6 569.6 M 119.6 569.6 L 118.7 570.7 M 118.7 570.7 L 117.9 571.9 M 117.9 571.9 L 117.4 573.2 M 117.4 573.2 L 117.1 574.6 M 117.1 574.6 L 116.9 576 M 116.9 576 L 116.9 639 M 116.9 639 L 117.1 640.4 M 117.1 640.4 L 117.4 641.8 M 117.4 641.8 L 117.9 643.1 M 117.9 643.1 L 118.7 644.3 M 118.7 644.3 L 119.6 645.4 M 119.6 645.4 L 120.7 646.3 M 120.7 646.3 L 121.9 647.1 M 121.9 647.1 L 123.2 647.6 M 123.2 647.6 L 124.6 647.9 M 124.6 647.9 L 126 648.1 M 126 648.1 L 189 648.1 M 189 648.1 L 190.4 647.9 M 190.4 647.9 L 191.8 647.6 M 191.8 647.6 L 193.1 647.1 M 193.1 647.1 L 194.3 646.3 M 194.3 646.3 L 195.4 645.4 M 195.4 645.4 L 196.3 644.3 M 196.3 644.3 L 197.1 643.1 M 197.1 643.1 L 197.6 641.8 M 197.6 641.8 L 197.9 640.4 M 197.9 640.4 L 198.1 639 M 198.1 639 L 198.1 576 M 198.1 576 L 197.9 574.6 M 197.9 574.6 L 197.6 573.2 M 197.6 573.2 L 197.1 571.9 M 197.1 571.9 L 196.3 570.7 M 196.3 570.7 L 195.4 569.6 M 195.4 569.6 L 194.3 568.7 M 194.3 568.7 L 193.1 567.9 M 193.1 567.9 L 191.8 567.4 M 191.8 567.4 L 190.4 567.1 M 190.4 567.1 L 189 566.9 M 262.4 567.3 L 252.6 567.3 M 252.6 567.3 L 243.1 569.6 M 243.1 569.6 L 234.5 574.2 M 234.5 574.2 L 227.1 580.6 M 227.1 580.6 L 221.6 588.7 M 221.6 588.7 L 218.1 597.8 M 218.1 597.8 L 216.9 607.5 M 216.9 607.5 L 218.1 617.2 M 218.1 617.2 L 221.6 626.3 M 221.6 626.3 L 227.1 634.4 M 227.1 634.4 L 234.5 640.8 M 234.5 640.8 L 243.1 645.4 M 243.1 645.4 L 252.6 647.7 M 252.6 647.7 L 262.4 647.7 M 262.4 647.7 L 271.9 645.4 M 271.9 645.4 L 280.5 640.8 M 280.5 640.8 L 287.9 634.4 M 287.9 634.4 L 293.4 626.3 M 293.4 626.3 L 296.9 617.2 M 296.9 617.2 L 298.1 607.5 M 298.1 607.5 L 296.9 597.8 M 296.9 597.8 L 293.4 588.7 M 293.4 588.7 L 287.9 580.6 M 287.9 580.6 L 280.5 574.2 M 280.5 574.2 L 271.9 569.6 M 271.9 569.6 L 262.4 567.3 M 362.4 567.3 L 352.6 567.3 M 352.6 567.3 L 343.1 569.6 M 343.1 569.6 L 334.5 574.2 M 334.5 574.2 L 327.1 580.6 M 327.1 580.6 L 321.6 588.7 M 321.6 588.7 L 318.1 597.8 M 318.1 597.8 L 316.9 607.5 M 316.9 607.5 L 318.1 617.2 M 318.1 617.2 L 321.6 626.3 M 321.6 626.3 L 327.1 634.4 M 327.1 634.4 L 334.5 640.8 M 334.5 640.8 L 343.1 645.4 M 343.1 645.4 L 352.6 647.7 M 352.6 647.7 L 362.4 647.7 M 362.4 647.7 L 371.9 645.4 M 371.9 645.4 L 380.5 640.8 M 380.5 640.8 L 387.9 634.4 M 387.9 634.4 L 393.4 626.3 M 393.4 626.3 L 396.9 617.2 M 396.9 617.2 L 398.1 607.5 M 398.1 607.5 L 396.9 597.8 M 396.9 597.8 L 393.4 588.7 M 393.4 588.7 L 387.9 580.6 M 387.9 580.6 L 380.5 574.2 M 380.5 574.2 L 371.9 569.6 M 371.9 569.6 L 362.4 567.3 M 462.4 567.3 L 452.6 567.3 M 452.6 567.3 L 443.1 569.6 M 443.1 569.6 L 434.5 574.2 M 434.5 574.2 L 427.1 580.6 M 427.1 580.6 L 421.6 588.7 M 421.6 588.7 L 418.1 597.8 M 418.1 597.8 L 416.9 607.5 M 416.9 607.5 L 418.1 617.2 M 418.1 617.2 L 421.6 626.3 M 421.6 626.3 L 427.1 634.4 M 427.1 634.4 L 434.5 640.8 M 434.5 640.8 L 443.1 645.4 M 443.1 645.4 L 452.6 647.7 M 452.6 647.7 L 462.4 647.7 M 462.4 647.7 L 471.9 645.4 M 471.9 645.4 L 480.5 640.8 M 480.5 640.8 L 487.9 634.4 M 487.9 634.4 L 493.4 626.3 M 493.4 626.3 L 496.9 617.2 M 496.9 617.2 L 498.1 607.5 M 498.1 607.5 L 496.9 597.8 M 496.9 597.8 L 493.4 588.7 M 493.4 588.7 L 487.9 580.6 M 487.9 580.6 L 480.5 574.2 M 480.5 574.2 L 471.9 569.6 M 471.9 569.6 L 462.4 567.3 M 549.6 568 L 543.1 569.6 M 543.1 569.6 L 534.5 574.2 M 534.5 574.2 L 527.1 580.6 M 527.1 580.6 L 521.6 588.7 M 521.6 588.7 L 518.1 597.8 M 518.1 597.8 L 516.9 607.5 M 516.9 607.5 L 518.1 617.2 M 518.1 617.2 L 521.6 626.3 M 521.6 626.3 L 527.1 634.4 M 527.1 634.4 L 534.5 640.8 M 534.5 640.8 L 543.1 645.4 M 543.1 645.4 L 549.6 647 M 549.6 647 L 549.6 636.5 M 549.6 636.5 L 565.4 636.5 M 565.4 636.5 L 565.4 647 M 565.4 647 L 571.9 645.4 M 571.9 645.4 L 580.5 640.8 M 580.5 640.8 L 587.9 634.4 M 587.9 634.4 L 593.4 626.3 M 593.4 626.3 L 596.9 617.2 M 596.9 617.2 L 598.1 607.5 M 598.1 607.5 L 596.9 597.8 M 596.9 597.8 L 593.4 588.7 M 593.4 588.7 L 587.9 580.6 M 587.9 580.6 L 580.5 574.2 M 580.5 574.2 L 571.9 569.6 M 571.9 569.6 L 565.4 568 M 565.4 568 L 565.4 578.5 M 565.4 578.5 L 549.6 578.5 M 549.6 578.5 L 549.6 568 M 640 166 L 615.4 166 M 615.4 166 L 615.4 177.3 M 615.4 177.3 L 599.6 177.3 M 599.6 177.3 L 599.6 166 M 599.6 166 L 575 166 M 575 166 L 573.6 166.1 M 573.6 166.1 L 572.2 166.4 M 572.2 166.4 L 570.9 166.9 M 570.9 166.9 L 569.7 167.7 M 569.7 167.7 L 568.6 168.6 M 568.6 168.6 L 567.7 169.7 M 567.7 169.7 L 566.9 170.9 M 566.9 170.9 L 566.4 172.2 M 566.4 172.2 L 566.1 173.6 M 566.1 173.6 L 566 175 M 566 175 L 566 199.6 M 566 199.6 L 577.3 199.6 M 577.3 199.6 L 577.3 215.4 M 577.3 215.4 L 566 215.4 M 566 215.4 L 566 240 M 566 240 L 566.1 241.4 M 566.1 241.4 L 566.4 242.8 M 566.4 242.8 L 566.9 244.1 M 566.9 244.1 L 567.7 245.3 M 567.7 245.3 L 568.6 246.4 M 568.6 246.4 L 569.7 247.3 M 569.7 247.3 L 570.9 248.1 M 570.9 248.1 L 572.2 248.6 M 572.2 248.6 L 573.6 248.9 M 573.6 248.9 L 575 249 M 575 249 L 599.6 249 M 599.6 249 L 599.6 237.7 M 599.6 237.7 L 615.4 237.7 M 615.4 237.7 L 615.4 249 M 615.4 249 L 640 249 M 640 249 L 641.4 248.9 M 641.4 248.9 L 642.8 248.6 M 642.8 248.6 L 644.1 248.1 M 644.1 248.1 L 645.3 247.3 M 645.3 247.3 L 646.4 246.4 M 646.4 246.4 L 647.3 245.3 M 647.3 245.3 L 648.1 244.1 M 648.1 244.1 L 648.6 242.8 M 648.6 242.8 L 648.9 241.4 M 648.9 241.4 L 649 240 M 649 240 L 649 215.4 M 649 215.4 L 637.7 215.4 M 637.7 215.4 L 637.7 199.6 M 637.7 199.6 L 649 199.6 M 649 199.6 L 649 175 M 649 175 L 648.9 173.6 M 648.9 173.6 L 648.6 172.2 M 648.6 172.2 L 648.1 170.9 M 648.1 170.9 L 647.3 169.7 M 647.3 169.7 L 646.4 168.6 M 646.4 168.6 L 645.3 167.7 M 645.3 167.7 L 644.1 166.9 M 644.1 166.9 L 642.8 166.4 M 642.8 166.4 L 641.4 166.1 M 641.4 166.1 L 640 166 M 112.5 166.3 L 102.5 166.3 M 102.5 166.3 L 92.8 168.7 M 92.8 168.7 L 83.9 173.3 M 83.9 173.3 L 76.4 180 M 76.4 180 L 70.7 188.2 M 70.7 188.2 L 67.2 197.6 M 67.2 197.6 L 66 207.5 M 66 207.5 L 67.2 217.4 M 67.2 217.4 L 70.7 226.8 M 70.7 226.8 L 76.4 235 M 76.4 235 L 83.9 241.7 M 83.9 241.7 L 92.8 246.3 M 92.8 246.3 L 102.5 248.7 M 102.5 248.7 L 112.5 248.7 M 112.5 248.7 L 122.2 246.3 M 122.2 246.3 L 131.1 241.7 M 131.1 241.7 L 138.6 235 M 138.6 235 L 144.3 226.8 M 144.3 226.8 L 147.8 217.4 M 147.8 217.4 L 149 207.5 M 149 207.5 L 147.8 197.6 M 147.8 197.6 L 144.3 188.2 M 144.3 188.2 L 138.6 180 M 138.6 180 L 131.1 173.3 M 131.1 173.3 L 122.2 168.7 M 122.2 168.7 L 112.5 166.3 M 212.5 166.3 L 202.5 166.3 M 202.5 166.3 L 192.8 168.7 M 192.8 168.7 L 183.9 173.3 M 183.9 173.3 L 176.4 180 M 176.4 180 L 170.7 188.2 M 170.7 188.2 L 167.2 197.6 M 167.2 197.6 L 166 207.5 M 166 207.5 L 167.2 217.4 M 167.2 217.4 L 170.7 226.8 M 170.7 226.8 L 176.4 235 M 176.4 235 L 183.9 241.7 M 183.9 241.7 L 192.8 246.3 M 192.8 246.3 L 202.5 248.7 M 202.5 248.7 L 212.5 248.7 M 212.5 248.7 L 222.2 246.3 M 222.2 246.3 L 231.1 241.7 M 231.1 241.7 L 238.6 235 M 238.6 235 L 244.3 226.8 M 244.3 226.8 L 247.8 217.4 M 247.8 217.4 L 249 207.5 M 249 207.5 L 247.8 197.6 M 247.8 197.6 L 244.3 188.2 M 244.3 188.2 L 238.6 180 M 238.6 180 L 231.1 173.3 M 231.1 173.3 L 222.2 168.7 M 222.2 168.7 L 212.5 166.3 M 312.5 166.3 L 302.5 166.3 M 302.5 166.3 L 292.8 168.7 M 292.8 168.7 L 283.9 173.3 M 283.9 173.3 L 276.4 180 M 276.4 180 L 270.7 188.2 M 270.7 188.2 L 267.2 197.6 M 267.2 197.6 L 266 207.5 M 266 207.5 L 267.2 217.4 M 267.2 217.4 L 270.7 226.8 M 270.7 226.8 L 276.4 235 M 276.4 235 L 283.9 241.7 M 283.9 241.7 L 292.8 246.3 M 292.8 246.3 L 302.5 248.7 M 302.5 248.7 L 312.5 248.7 M 312.5 248.7 L 322.2 246.3 M 322.2 246.3 L 331.1 241.7 M 331.1 241.7 L 338.6 235 M 338.6 235 L 344.3 226.8 M 344.3 226.8 L 347.8 217.4 M 347.8 217.4 L 349 207.5 M 349 207.5 L 347.8 197.6 M 347.8 197.6 L 344.3 188.2 M 344.3 188.2 L 338.6 180 M 338.6 180 L 331.1 173.3 M 331.1 173.3 L 322.2 168.7 M 322.2 168.7 L 312.5 166.3 M 412.5 166.3 L 402.5 166.3 M 402.5 166.3 L 392.8 168.7 M 392.8 168.7 L 383.9 173.3 M 383.9 173.3 L 376.4 180 M 376.4 180 L 370.7 188.2 M 370.7 188.2 L 367.2 197.6 M 367.2 197.6 L 366 207.5 M 366 207.5 L 367.2 217.4 M 367.2 217.4 L 370.7 226.8 M 370.7 226.8 L 376.4 235 M 376.4 235 L 383.9 241.7 M 383.9 241.7 L 392.8 246.3 M 392.8 246.3 L 402.5 248.7 M 402.5 248.7 L 412.5 248.7 M 412.5 248.7 L 422.2 246.3 M 422.2 246.3 L 431.1 241.7 M 431.1 241.7 L 438.6 235 M 438.6 235 L 444.3 226.8 M 444.3 226.8 L 447.8 217.4 M 447.8 217.4 L 449 207.5 M 449 207.5 L 447.8 197.6 M 447.8 197.6 L 444.3 188.2 M 444.3 188.2 L 438.6 180 M 438.6 180 L 431.1 173.3 M 431.1 173.3 L 422.2 168.7 M 422.2 168.7 L 412.5 166.3 M 512.5 166.3 L 502.5 166.3 M 502.5 166.3 L 492.8 168.7 M 492.8 168.7 L 483.9 173.3 M 483.9 173.3 L 476.4 180 M 476.4 180 L 470.7 188.2 M 470.7 188.2 L 467.2 197.6 M 467.2 197.6 L 466 207.5 M 466 207.5 L 467.2 217.4 M 467.2 217.4 L 470.7 226.8 M 470.7 226.8 L 476.4 235 M 476.4 235 L 483.9 241.7 M 483.9 241.7 L 492.8 246.3 M 492.8 246.3 L 502.5 248.7 M 502.5 248.7 L 512.5 248.7 M 512.5 248.7 L 522.2 246.3 M 522.2 246.3 L 531.1 241.7 M 531.1 241.7 L 538.6 235 M 538.6 235 L 544.3 226.8 M 544.3 226.8 L 547.8 217.4 M 547.8 217.4 L 549 207.5 M 549 207.5 L 547.8 197.6 M 547.8 197.6 L 544.3 188.2 M 544.3 188.2 L 538.6 180 M 538.6 180 L 531.1 173.3 M 531.1 173.3 L 522.2 168.7 M 522.2 168.7 L 512.5 166.3 M 24 26 L 691 26 M 24 27.9 L 691 27.9 M 24 29.9 L 691 29.9 M 24 31.8 L 691 31.8 M 24 33.8 L 691 33.8 M 24 35.7 L 691 35.7 M 24 37.7 L 691 37.7 M 24 39.6 L 691 39.6 M 24 41.6 L 691 41.6 M 24 43.5 L 691 43.5 M 24 45.5 L 691 45.5 M 24 47.4 L 691 47.4 M 24 49.4 L 691 49.4 M 24 51.4 L 691 51.4 M 24 53.3 L 691 53.3 M 24 55.3 L 691 55.3 M 24 57.2 L 691 57.2 M 24 59.2 L 691 59.2 M 24 61.1 L 691 61.1 M 24 63.1 L 691 63.1 M 24 65 L 691 65 M 24 66.9 L 691 66.9 M 24 68.9 L 691 68.9 M 24 70.8 L 691 70.8 M 24 72.8 L 691 72.8 M 24 74.7 L 691 74.7 M 24 76.7 L 691 76.7 M 24 78.6 L 691 78.6 M 24 80.6 L 691 80.6 M 24 82.5 L 691 82.5 M 24 84.5 L 691 84.5 M 24 86.4 L 691 86.4 M 24 88.4 L 691 88.4 M 24 90.3 L 691 90.3 M 24 92.3 L 691 92.3 M 24 94.2 L 691 94.2 M 24 96.2 L 691 96.2 M 24 98.1 L 691 98.1 M 24 100.1 L 691 100.1 M 24 102 L 691 102 M 24 104 L 691 104 M 24 105.9 L 691 105.9 M 24 107.9 L 691 107.9 M 24 109.8 L 691 109.8 M 24 111.8 L 691 111.8 M 24 113.7 L 691 113.7 M 24 115.7 L 691 115.7 M 24 117.7 L 691 117.7 M 24 119.6 L 691 119.6 M 24 121.6 L 691 121.6 M 24 123.5 L 691 123.5 M 24 125.5 L 691 125.5 M 24 127.4 L 691 127.4 M 24 129.4 L 691 129.4 M 24 131.3 L 691 131.3 M 24 133.2 L 691 133.2 M 24 135.2 L 691 135.2 M 24 137.1 L 691 137.1 M 24 139.1 L 691 139.1 M 24 141 L 691 141 M 24 143 L 691 143 M 24 144.9 L 691 144.9 M 24 146.9 L 691 146.9 M 24 148.8 L 691 148.8 M 24 150.8 L 691 150.8 M 24 152.7 L 691 152.7 M 24 154.7 L 691 154.7 M 24 156.6 L 691 156.6 M 24 158.6 L 691 158.6 M 24 160.5 L 691 160.5 M 24 162.5 L 691 162.5 M 24 164.4 L 691 164.4 M 24 166.4 L 102 166.4 M 113 166.4 L 202 166.4 M 213 166.4 L 302 166.4 M 313 166.4 L 402 166.4 M 413 166.4 L 502 166.4 M 513 166.4 L 572.3 166.4 M 599.6 166.4 L 615.4 166.4 M 642.7 166.4 L 691 166.4 M 24 168.3 L 94.1 168.3 M 120.9 168.3 L 194.1 168.3 M 220.9 168.3 L 294.1 168.3 M 320.9 168.3 L 394.1 168.3 M 420.9 168.3 L 494.1 168.3 M 520.9 168.3 L 569 168.3 M 599.6 168.3 L 615.4 168.3 M 646 168.3 L 691 168.3 M 24 170.3 L 89.7 170.3 M 125.3 170.3 L 189.7 170.3 M 225.3 170.3 L 289.7 170.3 M 325.3 170.3 L 389.7 170.3 M 425.3 170.3 L 489.7 170.3 M 525.3 170.3 L 567.3 170.3 M 599.6 170.3 L 615.4 170.3 M 647.7 170.3 L 691 170.3 M 24 172.2 L 86 172.2 M 129 172.2 L 186 172.2 M 229 172.2 L 286 172.2 M 329 172.2 L 386 172.2 M 429 172.2 L 486 172.2 M 529 172.2 L 566.4 172.2 M 599.6 172.2 L 615.4 172.2 M 648.6 172.2 L 691 172.2 M 24 174.2 L 82.9 174.2 M 132.1 174.2 L 182.9 174.2 M 232.1 174.2 L 282.9 174.2 M 332.1 174.2 L 382.9 174.2 M 432.1 174.2 L 482.9 174.2 M 532.1 174.2 L 566 174.2 M 599.6 174.2 L 615.4 174.2 M 649 174.2 L 691 174.2 M 24 176.1 L 80.7 176.1 M 134.3 176.1 L 180.7 176.1 M 234.3 176.1 L 280.7 176.1 M 334.3 176.1 L 380.7 176.1 M 434.3 176.1 L 480.7 176.1 M 534.3 176.1 L 566 176.1 M 599.6 176.1 L 615.4 176.1 M 649 176.1 L 691 176.1 M 24 178.1 L 78.5 178.1 M 136.5 178.1 L 178.5 178.1 M 236.5 178.1 L 278.5 178.1 M 336.5 178.1 L 378.5 178.1 M 436.5 178.1 L 478.5 178.1 M 536.5 178.1 L 566 178.1 M 649 178.1 L 691 178.1 M 24 180.1 L 76.4 180.1 M 138.6 180.1 L 176.4 180.1 M 238.6 180.1 L 276.4 180.1 M 338.6 180.1 L 376.4 180.1 M 438.6 180.1 L 476.4 180.1 M 538.6 180.1 L 566 180.1 M 649 180.1 L 691 180.1 M 24 182 L 75 182 M 140 182 L 175 182 M 240 182 L 275 182 M 340 182 L 375 182 M 440 182 L 475 182 M 540 182 L 566 182 M 649 182 L 691 182 M 24 184 L 73.7 184 M 141.3 184 L 173.7 184 M 241.3 184 L 273.7 184 M 341.3 184 L 373.7 184 M 441.3 184 L 473.7 184 M 541.3 184 L 566 184 M 649 184 L 691 184 M 24 185.9 L 72.3 185.9 M 142.7 185.9 L 172.3 185.9 M 242.7 185.9 L 272.3 185.9 M 342.7 185.9 L 372.3 185.9 M 442.7 185.9 L 472.3 185.9 M 542.7 185.9 L 566 185.9 M 649 185.9 L 691 185.9 M 24 187.9 L 71 187.9 M 144 187.9 L 171 187.9 M 244 187.9 L 271 187.9 M 344 187.9 L 371 187.9 M 444 187.9 L 471 187.9 M 544 187.9 L 566 187.9 M 649 187.9 L 691 187.9 M 24 189.8 L 70.1 189.8 M 144.9 189.8 L 170.1 189.8 M 244.9 189.8 L 270.1 189.8 M 344.9 189.8 L 370.1 189.8 M 444.9 189.8 L 470.1 189.8 M 544.9 189.8 L 566 189.8 M 649 189.8 L 691 189.8 M 24 191.8 L 69.4 191.8 M 145.6 191.8 L 169.4 191.8 M 245.6 191.8 L 269.4 191.8 M 345.6 191.8 L 369.4 191.8 M 445.6 191.8 L 469.4 191.8 M 545.6 191.8 L 566 191.8 M 649 191.8 L 691 191.8 M 24 193.7 L 68.6 193.7 M 146.4 193.7 L 168.6 193.7 M 246.4 193.7 L 268.6 193.7 M 346.4 193.7 L 368.6 193.7 M 446.4 193.7 L 468.6 193.7 M 546.4 193.7 L 566 193.7 M 649 193.7 L 691 193.7 M 24 195.6 L 67.9 195.6 M 147.1 195.6 L 167.9 195.6 M 247.1 195.6 L 267.9 195.6 M 347.1 195.6 L 367.9 195.6 M 447.1 195.6 L 467.9 195.6 M 547.1 195.6 L 566 195.6 M 649 195.6 L 691 195.6 M 24 197.6 L 67.2 197.6 M 147.8 197.6 L 167.2 197.6 M 247.8 197.6 L 267.2 197.6 M 347.8 197.6 L 367.2 197.6 M 447.8 197.6 L 467.2 197.6 M 547.8 197.6 L 566 197.6 M 649 197.6 L 691 197.6 M 24 199.5 L 66.9 199.5 M 148.1 199.5 L 166.9 199.5 M 248.1 199.5 L 266.9 199.5 M 348.1 199.5 L 366.9 199.5 M 448.1 199.5 L 466.9 199.5 M 548.1 199.5 L 566 199.5 M 649 199.5 L 691 199.5 M 24 201.5 L 66.7 201.5 M 148.3 201.5 L 166.7 201.5 M 248.3 201.5 L 266.7 201.5 M 348.3 201.5 L 366.7 201.5 M 448.3 201.5 L 466.7 201.5 M 548.3 201.5 L 577.3 201.5 M 637.7 201.5 L 691 201.5 M 24 203.4 L 66.5 203.4 M 148.5 203.4 L 166.5 203.4 M 248.5 203.4 L 266.5 203.4 M 348.5 203.4 L 366.5 203.4 M 448.5 203.4 L 466.5 203.4 M 548.5 203.4 L 577.3 203.4 M 637.7 203.4 L 691 203.4 M 24 205.4 L 66.2 205.4 M 148.8 205.4 L 166.2 205.4 M 248.8 205.4 L 266.2 205.4 M 348.8 205.4 L 366.2 205.4 M 448.8 205.4 L 466.2 205.4 M 548.8 205.4 L 577.3 205.4 M 637.7 205.4 L 691 205.4 M 24 207.3 L 66 207.3 M 149 207.3 L 166 207.3 M 249 207.3 L 266 207.3 M 349 207.3 L 366 207.3 M 449 207.3 L 466 207.3 M 549 207.3 L 577.3 207.3 M 637.7 207.3 L 691 207.3 M 24 209.3 L 66.2 209.3 M 148.8 209.3 L 166.2 209.3 M 248.8 209.3 L 266.2 209.3 M 348.8 209.3 L 366.2 209.3 M 448.8 209.3 L 466.2 209.3 M 548.8 209.3 L 577.3 209.3 M 637.7 209.3 L 691 209.3 M 24 211.2 L 66.4 211.2 M 148.6 211.2 L 166.4 211.2 M 248.6 211.2 L 266.4 211.2 M 348.6 211.2 L 366.4 211.2 M 448.6 211.2 L 466.4 211.2 M 548.6 211.2 L 577.3 211.2 M 637.7 211.2 L 691 211.2 M 24 213.2 L 66.7 213.2 M 148.3 213.2 L 166.7 213.2 M 248.3 213.2 L 266.7 213.2 M 348.3 213.2 L 366.7 213.2 M 448.3 213.2 L 466.7 213.2 M 548.3 213.2 L 577.3 213.2 M 637.7 213.2 L 691 213.2 M 24 215.1 L 66.9 215.1 M 148.1 215.1 L 166.9 215.1 M 248.1 215.1 L 266.9 215.1 M 348.1 215.1 L 366.9 215.1 M 448.1 215.1 L 466.9 215.1 M 548.1 215.1 L 577.3 215.1 M 637.7 215.1 L 691 215.1 M 24 217.1 L 67.1 217.1 M 147.9 217.1 L 167.1 217.1 M 247.9 217.1 L 267.1 217.1 M 347.9 217.1 L 367.1 217.1 M 447.9 217.1 L 467.1 217.1 M 547.9 217.1 L 566 217.1 M 649 217.1 L 691 217.1 M 24 219 L 67.8 219 M 147.2 219 L 167.8 219 M 247.2 219 L 267.8 219 M 347.2 219 L 367.8 219 M 447.2 219 L 467.8 219 M 547.2 219 L 566 219 M 649 219 L 691 219 M 24 221 L 68.5 221 M 146.5 221 L 168.5 221 M 246.5 221 L 268.5 221 M 346.5 221 L 368.5 221 M 446.5 221 L 468.5 221 M 546.5 221 L 566 221 M 649 221 L 691 221 M 24 222.9 L 69.3 222.9 M 145.7 222.9 L 169.3 222.9 M 245.7 222.9 L 269.3 222.9 M 345.7 222.9 L 369.3 222.9 M 445.7 222.9 L 469.3 222.9 M 545.7 222.9 L 566 222.9 M 649 222.9 L 691 222.9 M 24 224.9 L 70 224.9 M 145 224.9 L 170 224.9 M 245 224.9 L 270 224.9 M 345 224.9 L 370 224.9 M 445 224.9 L 470 224.9 M 545 224.9 L 566 224.9 M 649 224.9 L 691 224.9 M 24 226.8 L 70.8 226.8 M 144.2 226.8 L 170.8 226.8 M 244.2 226.8 L 270.8 226.8 M 344.2 226.8 L 370.8 226.8 M 444.2 226.8 L 470.8 226.8 M 544.2 226.8 L 566 226.8 M 649 226.8 L 691 226.8 M 24 228.8 L 72.1 228.8 M 142.9 228.8 L 172.1 228.8 M 242.9 228.8 L 272.1 228.8 M 342.9 228.8 L 372.1 228.8 M 442.9 228.8 L 472.1 228.8 M 542.9 228.8 L 566 228.8 M 649 228.8 L 691 228.8 M 24 230.7 L 73.4 230.7 M 141.6 230.7 L 173.4 230.7 M 241.6 230.7 L 273.4 230.7 M 341.6 230.7 L 373.4 230.7 M 441.6 230.7 L 473.4 230.7 M 541.6 230.7 L 566 230.7 M 649 230.7 L 691 230.7 M 24 232.7 L 74.8 232.7 M 140.2 232.7 L 174.8 232.7 M 240.2 232.7 L 274.8 232.7 M 340.2 232.7 L 374.8 232.7 M 440.2 232.7 L 474.8 232.7 M 540.2 232.7 L 566 232.7 M 649 232.7 L 691 232.7 M 24 234.6 L 76.1 234.6 M 138.9 234.6 L 176.1 234.6 M 238.9 234.6 L 276.1 234.6 M 338.9 234.6 L 376.1 234.6 M 438.9 234.6 L 476.1 234.6 M 538.9 234.6 L 566 234.6 M 649 234.6 L 691 234.6 M 24 236.6 L 78.2 236.6 M 136.8 236.6 L 178.2 236.6 M 236.8 236.6 L 278.2 236.6 M 336.8 236.6 L 378.2 236.6 M 436.8 236.6 L 478.2 236.6 M 536.8 236.6 L 566 236.6 M 649 236.6 L 691 236.6 M 24 238.5 L 80.4 238.5 M 134.6 238.5 L 180.4 238.5 M 234.6 238.5 L 280.4 238.5 M 334.6 238.5 L 380.4 238.5 M 434.6 238.5 L 480.4 238.5 M 534.6 238.5 L 566 238.5 M 599.6 238.5 L 615.4 238.5 M 649 238.5 L 691 238.5 M 24 240.5 L 82.6 240.5 M 132.4 240.5 L 182.6 240.5 M 232.4 240.5 L 282.6 240.5 M 332.4 240.5 L 382.6 240.5 M 432.4 240.5 L 482.6 240.5 M 532.4 240.5 L 566 240.5 M 599.6 240.5 L 615.4 240.5 M 649 240.5 L 691 240.5 M 24 242.4 L 85.4 242.4 M 129.6 242.4 L 185.4 242.4 M 229.6 242.4 L 285.4 242.4 M 329.6 242.4 L 385.4 242.4 M 429.6 242.4 L 485.4 242.4 M 529.6 242.4 L 566.3 242.4 M 599.6 242.4 L 615.4 242.4 M 648.7 242.4 L 691 242.4 M 24 244.4 L 89.1 244.4 M 125.9 244.4 L 189.1 244.4 M 225.9 244.4 L 289.1 244.4 M 325.9 244.4 L 389.1 244.4 M 425.9 244.4 L 489.1 244.4 M 525.9 244.4 L 567.1 244.4 M 599.6 244.4 L 615.4 244.4 M 647.9 244.4 L 691 244.4 M 24 246.4 L 92.8 246.4 M 122.2 246.4 L 192.8 246.4 M 222.2 246.4 L 292.8 246.4 M 322.2 246.4 L 392.8 246.4 M 422.2 246.4 L 492.8 246.4 M 522.2 246.4 L 568.6 246.4 M 599.6 246.4 L 615.4 246.4 M 646.4 246.4 L 691 246.4 M 24 248.3 L 100.7 248.3 M 114.3 248.3 L 200.7 248.3 M 214.3 248.3 L 300.7 248.3 M 314.3 248.3 L 400.7 248.3 M 414.3 248.3 L 500.7 248.3 M 514.3 248.3 L 571.5 248.3 M 599.6 248.3 L 615.4 248.3 M 643.5 248.3 L 691 248.3 M 24 250.3 L 691 250.3 M 24 252.2 L 691 252.2 M 24 254.2 L 691 254.2 M 24 256.1 L 691 256.1 M 24 258.1 L 691 258.1 M 24 260 L 691 260 M 24 261.9 L 691 261.9 M 24 263.9 L 691 263.9 M 24 265.8 L 691 265.8 M 24 267.8 L 691 267.8 M 24 269.7 L 691 269.7 M 24 271.7 L 691 271.7 M 24 273.6 L 691 273.6 M 24 275.6 L 691 275.6 M 24 277.5 L 691 277.5 M 24 279.5 L 691 279.5 M 24 281.4 L 691 281.4 M 24 283.4 L 691 283.4 M 24 285.3 L 691 285.3 M 24 287.3 L 691 287.3 M 24 289.2 L 691 289.2 M 24 291.2 L 691 291.2 M 24 293.1 L 691 293.1 M 24 295.1 L 691 295.1 M 24 297 L 691 297 M 24 299 L 691 299 M 24 300.9 L 691 300.9 M 24 302.9 L 691 302.9 M 24 304.8 L 691 304.8 M 24 306.8 L 691 306.8 M 24 308.7 L 691 308.7 M 24 310.7 L 691 310.7 M 24 312.7 L 691 312.7 M 24 314.6 L 691 314.6 M 24 316.6 L 691 316.6 M 24 318.5 L 691 318.5 M 24 320.5 L 691 320.5 M 24 322.4 L 691 322.4 M 24 324.4 L 691 324.4 M 24 326.3 L 691 326.3 M 24 328.2 L 691 328.2 M 24 330.2 L 691 330.2 M 24 332.1 L 691 332.1 M 24 334.1 L 691 334.1 M 24 336 L 691 336 M 24 338 L 691 338 M 24 339.9 L 691 339.9 M 24 341.9 L 691 341.9 M 24 343.8 L 691 343.8 M 24 345.8 L 691 345.8 M 24 347.7 L 691 347.7 M 24 349.7 L 691 349.7 M 24 351.6 L 691 351.6 M 24 353.6 L 691 353.6 M 24 355.5 L 691 355.5 M 24 357.5 L 691 357.5 M 24 359.4 L 691 359.4 M 24 361.4 L 691 361.4 M 24 363.3 L 691 363.3 M 24 365.3 L 691 365.3 M 24 367.2 L 691 367.2 M 24 369.2 L 691 369.2 M 24 371.1 L 691 371.1 M 24 373.1 L 691 373.1 M 24 375.1 L 691 375.1 M 24 377 L 691 377 M 24 379 L 691 379 M 24 380.9 L 691 380.9 M 24 382.9 L 691 382.9 M 24 384.8 L 691 384.8 M 24 386.8 L 691 386.8 M 24 388.7 L 691 388.7 M 24 390.6 L 691 390.6 M 24 392.6 L 691 392.6 M 24 394.5 L 691 394.5 M 24 396.5 L 691 396.5 M 24 398.4 L 691 398.4 M 24 400.4 L 691 400.4 M 24 402.3 L 691 402.3 M 24 404.3 L 691 404.3 M 24 406.2 L 691 406.2 M 24 408.2 L 691 408.2 M 24 410.1 L 691 410.1 M 24 412.1 L 691 412.1 M 24 414 L 691 414 M 24 416 L 691 416 M 24 417.9 L 691 417.9 M 24 419.9 L 691 419.9 M 24 421.8 L 691 421.8 M 24 423.8 L 691 423.8 M 24 425.7 L 691 425.7 M 24 427.7 L 691 427.7 M 24 429.6 L 691 429.6 M 24 431.6 L 691 431.6 M 24 433.5 L 691 433.5 M 24 435.5 L 691 435.5 M 24 437.4 L 691 437.4 M 24 439.4 L 691 439.4 M 24 441.4 L 691 441.4 M 24 443.3 L 691 443.3 M 24 445.3 L 691 445.3 M 24 447.2 L 691 447.2 M 24 449.2 L 691 449.2 M 24 451.1 L 691 451.1 M 24 453.1 L 691 453.1 M 24 455 L 691 455 M 24 456.9 L 691 456.9 M 24 458.9 L 691 458.9 M 24 460.8 L 691 460.8 M 24 462.8 L 691 462.8 M 24 464.7 L 691 464.7 M 24 466.7 L 691 466.7 M 24 468.6 L 691 468.6 M 24 470.6 L 691 470.6 M 24 472.5 L 691 472.5 M 24 474.5 L 691 474.5 M 24 476.4 L 691 476.4 M 24 478.4 L 691 478.4 M 24 480.3 L 691 480.3 M 24 482.3 L 691 482.3 M 24 484.2 L 691 484.2 M 24 486.2 L 691 486.2 M 24 488.1 L 691 488.1 M 24 490.1 L 691 490.1 M 24 492 L 691 492 M 24 494 L 691 494 M 24 495.9 L 691 495.9 M 24 497.9 L 691 497.9 M 24 499.8 L 691 499.8 M 24 501.8 L 691 501.8 M 24 503.7 L 691 503.7 M 24 505.7 L 691 505.7 M 24 507.7 L 691 507.7 M 24 509.6 L 691 509.6 M 24 511.6 L 691 511.6 M 24 513.5 L 691 513.5 M 24 515.5 L 691 515.5 M 24 517.4 L 691 517.4 M 24 519.4 L 691 519.4 M 24 521.3 L 691 521.3 M 24 523.2 L 691 523.2 M 24 525.2 L 691 525.2 M 24 527.1 L 691 527.1 M 24 529.1 L 691 529.1 M 24 531 L 691 531 M 24 533 L 691 533 M 24 534.9 L 691 534.9 M 24 536.9 L 691 536.9 M 24 538.8 L 691 538.8 M 24 540.8 L 691 540.8 M 24 542.7 L 691 542.7 M 24 544.7 L 691 544.7 M 24 546.6 L 691 546.6 M 24 548.6 L 691 548.6 M 24 550.5 L 691 550.5 M 24 552.5 L 691 552.5 M 24 554.4 L 691 554.4 M 24 556.4 L 691 556.4 M 24 558.3 L 691 558.3 M 24 560.3 L 691 560.3 M 24 562.2 L 691 562.2 M 24 564.2 L 691 564.2 M 24 566.1 L 691 566.1 M 24 568.1 L 121.6 568.1 M 193.4 568.1 L 249.2 568.1 M 265.8 568.1 L 349.2 568.1 M 365.8 568.1 L 449.2 568.1 M 465.8 568.1 L 549.2 568.1 M 549.6 568.1 L 565.4 568.1 M 565.8 568.1 L 691 568.1 M 24 570.1 L 119.2 570.1 M 195.8 570.1 L 242.3 570.1 M 272.7 570.1 L 342.3 570.1 M 372.7 570.1 L 442.3 570.1 M 472.7 570.1 L 542.3 570.1 M 549.6 570.1 L 565.4 570.1 M 572.7 570.1 L 691 570.1 M 24 572 L 117.9 572 M 197.1 572 L 238.6 572 M 276.4 572 L 338.6 572 M 376.4 572 L 438.6 572 M 476.4 572 L 538.6 572 M 549.6 572 L 565.4 572 M 576.4 572 L 691 572 M 24 574 L 117.2 574 M 197.8 574 L 234.8 574 M 280.2 574 L 334.8 574 M 380.2 574 L 434.8 574 M 480.2 574 L 534.8 574 M 549.6 574 L 565.4 574 M 580.2 574 L 691 574 M 24 575.9 L 116.9 575.9 M 198.1 575.9 L 232.5 575.9 M 282.5 575.9 L 332.5 575.9 M 382.5 575.9 L 432.5 575.9 M 482.5 575.9 L 532.5 575.9 M 549.6 575.9 L 565.4 575.9 M 582.5 575.9 L 691 575.9 M 24 577.9 L 116.9 577.9 M 198.1 577.9 L 230.3 577.9 M 284.7 577.9 L 330.3 577.9 M 384.7 577.9 L 430.3 577.9 M 484.7 577.9 L 530.3 577.9 M 549.6 577.9 L 565.4 577.9 M 584.7 577.9 L 691 577.9 M 24 579.8 L 116.9 579.8 M 198.1 579.8 L 228.1 579.8 M 286.9 579.8 L 328.1 579.8 M 386.9 579.8 L 428.1 579.8 M 486.9 579.8 L 528.1 579.8 M 586.9 579.8 L 691 579.8 M 24 581.8 L 116.9 581.8 M 198.1 581.8 L 226.4 581.8 M 288.6 581.8 L 326.4 581.8 M 388.6 581.8 L 426.4 581.8 M 488.6 581.8 L 526.4 581.8 M 588.6 581.8 L 691 581.8 M 24 583.7 L 116.9 583.7 M 198.1 583.7 L 225 583.7 M 290 583.7 L 325 583.7 M 390 583.7 L 425 583.7 M 490 583.7 L 525 583.7 M 590 583.7 L 691 583.7 M 24 585.6 L 116.9 585.6 M 198.1 585.6 L 223.7 585.6 M 291.3 585.6 L 323.7 585.6 M 391.3 585.6 L 423.7 585.6 M 491.3 585.6 L 523.7 585.6 M 591.3 585.6 L 691 585.6 M 24 587.6 L 116.9 587.6 M 198.1 587.6 L 222.3 587.6 M 292.7 587.6 L 322.3 587.6 M 392.7 587.6 L 422.3 587.6 M 492.7 587.6 L 522.3 587.6 M 592.7 587.6 L 691 587.6 M 24 589.5 L 116.9 589.5 M 198.1 589.5 L 221.3 589.5 M 293.7 589.5 L 321.3 589.5 M 393.7 589.5 L 421.3 589.5 M 493.7 589.5 L 521.3 589.5 M 593.7 589.5 L 691 589.5 M 24 591.5 L 116.9 591.5 M 198.1 591.5 L 220.5 591.5 M 294.5 591.5 L 320.5 591.5 M 394.5 591.5 L 420.5 591.5 M 494.5 591.5 L 520.5 591.5 M 594.5 591.5 L 691 591.5 M 24 593.4 L 116.9 593.4 M 198.1 593.4 L 219.8 593.4 M 295.2 593.4 L 319.8 593.4 M 395.2 593.4 L 419.8 593.4 M 495.2 593.4 L 519.8 593.4 M 595.2 593.4 L 691 593.4 M 24 595.4 L 116.9 595.4 M 198.1 595.4 L 219 595.4 M 296 595.4 L 319 595.4 M 396 595.4 L 419 595.4 M 496 595.4 L 519 595.4 M 596 595.4 L 691 595.4 M 24 597.3 L 116.9 597.3 M 198.1 597.3 L 218.3 597.3 M 296.7 597.3 L 318.3 597.3 M 396.7 597.3 L 418.3 597.3 M 496.7 597.3 L 518.3 597.3 M 596.7 597.3 L 691 597.3 M 24 599.3 L 116.9 599.3 M 198.1 599.3 L 217.9 599.3 M 297.1 599.3 L 317.9 599.3 M 397.1 599.3 L 417.9 599.3 M 497.1 599.3 L 517.9 599.3 M 597.1 599.3 L 691 599.3 M 24 601.2 L 116.9 601.2 M 198.1 601.2 L 217.7 601.2 M 297.3 601.2 L 317.7 601.2 M 397.3 601.2 L 417.7 601.2 M 497.3 601.2 L 517.7 601.2 M 597.3 601.2 L 691 601.2 M 24 603.2 L 116.9 603.2 M 198.1 603.2 L 217.5 603.2 M 297.5 603.2 L 317.5 603.2 M 397.5 603.2 L 417.5 603.2 M 497.5 603.2 L 517.5 603.2 M 597.5 603.2 L 691 603.2 M 24 605.1 L 116.9 605.1 M 198.1 605.1 L 217.2 605.1 M 297.8 605.1 L 317.2 605.1 M 397.8 605.1 L 417.2 605.1 M 497.8 605.1 L 517.2 605.1 M 597.8 605.1 L 691 605.1 M 24 607.1 L 116.9 607.1 M 198.1 607.1 L 217 607.1 M 298 607.1 L 317 607.1 M 398 607.1 L 417 607.1 M 498 607.1 L 517 607.1 M 598 607.1 L 691 607.1 M 24 609 L 116.9 609 M 198.1 609 L 217.1 609 M 297.9 609 L 317.1 609 M 397.9 609 L 417.1 609 M 497.9 609 L 517.1 609 M 597.9 609 L 691 609 M 24 611 L 116.9 611 M 198.1 611 L 217.4 611 M 297.6 611 L 317.4 611 M 397.6 611 L 417.4 611 M 497.6 611 L 517.4 611 M 597.6 611 L 691 611 M 24 612.9 L 116.9 612.9 M 198.1 612.9 L 217.6 612.9 M 297.4 612.9 L 317.6 612.9 M 397.4 612.9 L 417.6 612.9 M 497.4 612.9 L 517.6 612.9 M 597.4 612.9 L 691 612.9 M 24 614.9 L 116.9 614.9 M 198.1 614.9 L 217.9 614.9 M 297.1 614.9 L 317.9 614.9 M 397.1 614.9 L 417.9 614.9 M 497.1 614.9 L 517.9 614.9 M 597.1 614.9 L 691 614.9 M 24 616.8 L 116.9 616.8 M 198.1 616.8 L 218.1 616.8 M 296.9 616.8 L 318.1 616.8 M 396.9 616.8 L 418.1 616.8 M 496.9 616.8 L 518.1 616.8 M 596.9 616.8 L 691 616.8 M 24 618.8 L 116.9 618.8 M 198.1 618.8 L 218.7 618.8 M 296.3 618.8 L 318.7 618.8 M 396.3 618.8 L 418.7 618.8 M 496.3 618.8 L 518.7 618.8 M 596.3 618.8 L 691 618.8 M 24 620.7 L 116.9 620.7 M 198.1 620.7 L 219.5 620.7 M 295.5 620.7 L 319.5 620.7 M 395.5 620.7 L 419.5 620.7 M 495.5 620.7 L 519.5 620.7 M 595.5 620.7 L 691 620.7 M 24 622.7 L 116.9 622.7 M 198.1 622.7 L 220.2 622.7 M 294.8 622.7 L 320.2 622.7 M 394.8 622.7 L 420.2 622.7 M 494.8 622.7 L 520.2 622.7 M 594.8 622.7 L 691 622.7 M 24 624.6 L 116.9 624.6 M 198.1 624.6 L 221 624.6 M 294 624.6 L 321 624.6 M 394 624.6 L 421 624.6 M 494 624.6 L 521 624.6 M 594 624.6 L 691 624.6 M 24 626.6 L 116.9 626.6 M 198.1 626.6 L 221.8 626.6 M 293.2 626.6 L 321.8 626.6 M 393.2 626.6 L 421.8 626.6 M 493.2 626.6 L 521.8 626.6 M 593.2 626.6 L 691 626.6 M 24 628.5 L 116.9 628.5 M 198.1 628.5 L 223.1 628.5 M 291.9 628.5 L 323.1 628.5 M 391.9 628.5 L 423.1 628.5 M 491.9 628.5 L 523.1 628.5 M 591.9 628.5 L 691 628.5 M 24 630.5 L 116.9 630.5 M 198.1 630.5 L 224.5 630.5 M 290.5 630.5 L 324.5 630.5 M 390.5 630.5 L 424.5 630.5 M 490.5 630.5 L 524.5 630.5 M 590.5 630.5 L 691 630.5 M 24 632.4 L 116.9 632.4 M 198.1 632.4 L 225.8 632.4 M 289.2 632.4 L 325.8 632.4 M 389.2 632.4 L 425.8 632.4 M 489.2 632.4 L 525.8 632.4 M 589.2 632.4 L 691 632.4 M 24 634.4 L 116.9 634.4 M 198.1 634.4 L 227.1 634.4 M 287.9 634.4 L 327.1 634.4 M 387.9 634.4 L 427.1 634.4 M 487.9 634.4 L 527.1 634.4 M 587.9 634.4 L 691 634.4 M 24 636.4 L 116.9 636.4 M 198.1 636.4 L 229.4 636.4 M 285.6 636.4 L 329.4 636.4 M 385.6 636.4 L 429.4 636.4 M 485.6 636.4 L 529.4 636.4 M 585.6 636.4 L 691 636.4 M 24 638.3 L 116.9 638.3 M 198.1 638.3 L 231.6 638.3 M 283.4 638.3 L 331.6 638.3 M 383.4 638.3 L 431.6 638.3 M 483.4 638.3 L 531.6 638.3 M 549.6 638.3 L 565.4 638.3 M 583.4 638.3 L 691 638.3 M 24 640.3 L 117.1 640.3 M 197.9 640.3 L 233.8 640.3 M 281.2 640.3 L 333.8 640.3 M 381.2 640.3 L 433.8 640.3 M 481.2 640.3 L 533.8 640.3 M 549.6 640.3 L 565.4 640.3 M 581.2 640.3 L 691 640.3 M 24 642.2 L 117.6 642.2 M 197.4 642.2 L 237 642.2 M 278 642.2 L 337 642.2 M 378 642.2 L 437 642.2 M 478 642.2 L 537 642.2 M 549.6 642.2 L 565.4 642.2 M 578 642.2 L 691 642.2 M 24 644.2 L 118.6 644.2 M 196.4 644.2 L 240.7 644.2 M 274.3 644.2 L 340.7 644.2 M 374.3 644.2 L 440.7 644.2 M 474.3 644.2 L 540.7 644.2 M 549.6 644.2 L 565.4 644.2 M 574.3 644.2 L 691 644.2 M 24 646.1 L 120.4 646.1 M 194.6 646.1 L 245.9 646.1 M 269.1 646.1 L 345.9 646.1 M 369.1 646.1 L 445.9 646.1 M 469.1 646.1 L 545.9 646.1 M 549.6 646.1 L 565.4 646.1 M 569.1 646.1 L 691 646.1 M 24 648.1 L 691 648.1 M 24 650 L 691 650 M 24 651.9 L 691 651.9 M 24 653.9 L 691 653.9 M 24 655.8 L 691 655.8 M 24 657.8 L 691 657.8 M 24 659.7 L 691 659.7 M 24 661.7 L 691 661.7 M 24 663.6 L 691 663.6 M 24 665.6 L 691 665.6 M 24 667.5 L 151.4 667.5 M 163.6 667.5 L 251.4 667.5 M 263.6 667.5 L 451.4 667.5 M 463.6 667.5 L 551.4 667.5 M 563.6 667.5 L 691 667.5 M 24 669.5 L 143.5 669.5 M 171.5 669.5 L 243.5 669.5 M 271.5 669.5 L 343.5 669.5 M 349.6 669.5 L 365.4 669.5 M 371.5 669.5 L 443.5 669.5 M 471.5 669.5 L 543.5 669.5 M 571.5 669.5 L 691 669.5 M 24 671.4 L 139.6 671.4 M 175.4 671.4 L 239.6 671.4 M 275.4 671.4 L 339.6 671.4 M 349.6 671.4 L 365.4 671.4 M 375.4 671.4 L 439.6 671.4 M 475.4 671.4 L 539.6 671.4 M 575.4 671.4 L 691 671.4 M 24 673.4 L 135.9 673.4 M 179.1 673.4 L 235.9 673.4 M 279.1 673.4 L 335.9 673.4 M 349.6 673.4 L 365.4 673.4 M 379.1 673.4 L 435.9 673.4 M 479.1 673.4 L 535.9 673.4 M 579.1 673.4 L 691 673.4 M 24 675.3 L 133.1 675.3 M 181.9 675.3 L 233.1 675.3 M 281.9 675.3 L 333.1 675.3 M 349.6 675.3 L 365.4 675.3 M 381.9 675.3 L 433.1 675.3 M 481.9 675.3 L 533.1 675.3 M 581.9 675.3 L 691 675.3 M 24 677.3 L 130.9 677.3 M 184.1 677.3 L 230.9 677.3 M 284.1 677.3 L 330.9 677.3 M 349.6 677.3 L 365.4 677.3 M 384.1 677.3 L 430.9 677.3 M 484.1 677.3 L 530.9 677.3 M 584.1 677.3 L 691 677.3 M 24 679.2 L 128.7 679.2 M 186.3 679.2 L 228.7 679.2 M 286.3 679.2 L 328.7 679.2 M 386.3 679.2 L 428.7 679.2 M 486.3 679.2 L 528.7 679.2 M 586.3 679.2 L 691 679.2 M 24 681.2 L 126.8 681.2 M 188.2 681.2 L 226.8 681.2 M 288.2 681.2 L 326.8 681.2 M 388.2 681.2 L 426.8 681.2 M 488.2 681.2 L 526.8 681.2 M 588.2 681.2 L 691 681.2 M 24 683.1 L 125.4 683.1 M 189.6 683.1 L 225.4 683.1 M 289.6 683.1 L 325.4 683.1 M 389.6 683.1 L 425.4 683.1 M 489.6 683.1 L 525.4 683.1 M 589.6 683.1 L 691 683.1 M 24 685.1 L 124.1 685.1 M 190.9 685.1 L 224.1 685.1 M 290.9 685.1 L 324.1 685.1 M 390.9 685.1 L 424.1 685.1 M 490.9 685.1 L 524.1 685.1 M 590.9 685.1 L 691 685.1 M 24 687 L 122.7 687 M 192.3 687 L 222.7 687 M 292.3 687 L 322.7 687 M 392.3 687 L 422.7 687 M 492.3 687 L 522.7 687 M 592.3 687 L 691 687 M 24 689 L 121.5 689 M 193.5 689 L 221.5 689 M 293.5 689 L 321.5 689 M 393.5 689 L 421.5 689 M 493.5 689 L 521.5 689 M 593.5 689 L 691 689 M 24 690.9 L 120.7 690.9 M 194.3 690.9 L 220.7 690.9 M 294.3 690.9 L 320.7 690.9 M 394.3 690.9 L 420.7 690.9 M 494.3 690.9 L 520.7 690.9 M 594.3 690.9 L 691 690.9 M 24 692.9 L 120 692.9 M 195 692.9 L 220 692.9 M 295 692.9 L 320 692.9 M 395 692.9 L 420 692.9 M 495 692.9 L 520 692.9 M 595 692.9 L 691 692.9 M 24 694.8 L 119.3 694.8 M 195.7 694.8 L 219.3 694.8 M 295.7 694.8 L 319.3 694.8 M 395.7 694.8 L 419.3 694.8 M 495.7 694.8 L 519.3 694.8 M 595.7 694.8 L 691 694.8 M 24 696.8 L 118.5 696.8 M 196.5 696.8 L 218.5 696.8 M 296.5 696.8 L 318.5 696.8 M 396.5 696.8 L 418.5 696.8 M 496.5 696.8 L 518.5 696.8 M 596.5 696.8 L 691 696.8 M 24 698.7 L 118 698.7 M 197 698.7 L 218 698.7 M 297 698.7 L 318 698.7 M 397 698.7 L 418 698.7 M 497 698.7 L 518 698.7 M 597 698.7 L 691 698.7 M 24 700.7 L 117.8 700.7 M 197.2 700.7 L 217.8 700.7 M 297.2 700.7 L 317.8 700.7 M 397.2 700.7 L 417.8 700.7 M 497.2 700.7 L 517.8 700.7 M 597.2 700.7 L 691 700.7 M 24 702.7 L 117.5 702.7 M 197.5 702.7 L 217.5 702.7 M 297.5 702.7 L 317.5 702.7 M 397.5 702.7 L 417.5 702.7 M 497.5 702.7 L 517.5 702.7 M 597.5 702.7 L 691 702.7 M 24 704.6 L 117.3 704.6 M 197.7 704.6 L 217.3 704.6 M 297.7 704.6 L 317.3 704.6 M 397.7 704.6 L 417.3 704.6 M 497.7 704.6 L 517.3 704.6 M 597.7 704.6 L 691 704.6 M 24 706.6 L 117.1 706.6 M 197.9 706.6 L 217.1 706.6 M 297.9 706.6 L 317.1 706.6 M 397.9 706.6 L 417.1 706.6 M 497.9 706.6 L 517.1 706.6 M 597.9 706.6 L 691 706.6 M 24 708.5 L 117.1 708.5 M 197.9 708.5 L 217.1 708.5 M 297.9 708.5 L 317.1 708.5 M 397.9 708.5 L 417.1 708.5 M 497.9 708.5 L 517.1 708.5 M 597.9 708.5 L 691 708.5 M 24 710.5 L 117.3 710.5 M 197.7 710.5 L 217.3 710.5 M 297.7 710.5 L 317.3 710.5 M 397.7 710.5 L 417.3 710.5 M 497.7 710.5 L 517.3 710.5 M 597.7 710.5 L 691 710.5 M 24 712.4 L 117.5 712.4 M 197.5 712.4 L 217.5 712.4 M 297.5 712.4 L 317.5 712.4 M 397.5 712.4 L 417.5 712.4 M 497.5 712.4 L 517.5 712.4 M 597.5 712.4 L 691 712.4 M 24 714.4 L 117.8 714.4 M 197.2 714.4 L 217.8 714.4 M 297.2 714.4 L 317.8 714.4 M 397.2 714.4 L 417.8 714.4 M 497.2 714.4 L 517.8 714.4 M 597.2 714.4 L 691 714.4 M 24 716.3 L 118 716.3 M 197 716.3 L 218 716.3 M 297 716.3 L 318 716.3 M 397 716.3 L 418 716.3 M 497 716.3 L 518 716.3 M 597 716.3 L 691 716.3 M 24 718.2 L 118.5 718.2 M 196.5 718.2 L 218.5 718.2 M 296.5 718.2 L 318.5 718.2 M 396.5 718.2 L 418.5 718.2 M 496.5 718.2 L 518.5 718.2 M 596.5 718.2 L 691 718.2 M 24 720.2 L 119.3 720.2 M 195.7 720.2 L 219.3 720.2 M 295.7 720.2 L 319.3 720.2 M 395.7 720.2 L 419.3 720.2 M 495.7 720.2 L 519.3 720.2 M 595.7 720.2 L 691 720.2 M 24 722.1 L 120 722.1 M 195 722.1 L 220 722.1 M 295 722.1 L 320 722.1 M 395 722.1 L 420 722.1 M 495 722.1 L 520 722.1 M 595 722.1 L 691 722.1 M 24 724.1 L 120.7 724.1 M 194.3 724.1 L 220.7 724.1 M 294.3 724.1 L 320.7 724.1 M 394.3 724.1 L 420.7 724.1 M 494.3 724.1 L 520.7 724.1 M 594.3 724.1 L 691 724.1 M 24 726 L 121.5 726 M 193.5 726 L 221.5 726 M 293.5 726 L 321.5 726 M 393.5 726 L 421.5 726 M 493.5 726 L 521.5 726 M 593.5 726 L 691 726 M 24 728 L 122.7 728 M 192.3 728 L 222.7 728 M 292.3 728 L 322.7 728 M 392.3 728 L 422.7 728 M 492.3 728 L 522.7 728 M 592.3 728 L 691 728 M 24 729.9 L 124.1 729.9 M 190.9 729.9 L 224.1 729.9 M 290.9 729.9 L 324.1 729.9 M 390.9 729.9 L 424.1 729.9 M 490.9 729.9 L 524.1 729.9 M 590.9 729.9 L 691 729.9 M 24 731.9 L 125.4 731.9 M 189.6 731.9 L 225.4 731.9 M 289.6 731.9 L 325.4 731.9 M 389.6 731.9 L 425.4 731.9 M 489.6 731.9 L 525.4 731.9 M 589.6 731.9 L 691 731.9 M 24 733.8 L 126.8 733.8 M 188.2 733.8 L 226.8 733.8 M 288.2 733.8 L 326.8 733.8 M 388.2 733.8 L 426.8 733.8 M 488.2 733.8 L 526.8 733.8 M 588.2 733.8 L 691 733.8 M 24 735.8 L 128.7 735.8 M 186.3 735.8 L 228.7 735.8 M 286.3 735.8 L 328.7 735.8 M 386.3 735.8 L 428.7 735.8 M 486.3 735.8 L 528.7 735.8 M 586.3 735.8 L 691 735.8 M 24 737.7 L 130.9 737.7 M 184.1 737.7 L 230.9 737.7 M 284.1 737.7 L 330.9 737.7 M 349.6 737.7 L 365.4 737.7 M 384.1 737.7 L 430.9 737.7 M 484.1 737.7 L 530.9 737.7 M 584.1 737.7 L 691 737.7 M 24 739.7 L 133.1 739.7 M 181.9 739.7 L 233.1 739.7 M 281.9 739.7 L 333.1 739.7 M 349.6 739.7 L 365.4 739.7 M 381.9 739.7 L 433.1 739.7 M 481.9 739.7 L 533.1 739.7 M 581.9 739.7 L 691 739.7 M 24 741.6 L 135.9 741.6 M 179.1 741.6 L 235.9 741.6 M 279.1 741.6 L 335.9 741.6 M 349.6 741.6 L 365.4 741.6 M 379.1 741.6 L 435.9 741.6 M 479.1 741.6 L 535.9 741.6 M 579.1 741.6 L 691 741.6 M 24 743.6 L 139.7 743.6 M 175.3 743.6 L 239.7 743.6 M 275.3 743.6 L 339.7 743.6 M 349.6 743.6 L 365.4 743.6 M 375.3 743.6 L 439.7 743.6 M 475.3 743.6 L 539.7 743.6 M 575.3 743.6 L 691 743.6 M 24 745.5 L 143.6 745.5 M 171.4 745.5 L 243.6 745.5 M 271.4 745.5 L 343.6 745.5 M 349.6 745.5 L 365.4 745.5 M 371.4 745.5 L 443.6 745.5 M 471.4 745.5 L 543.6 745.5 M 571.4 745.5 L 691 745.5 M 24 747.5 L 151.6 747.5 M 163.4 747.5 L 251.6 747.5 M 263.4 747.5 L 451.6 747.5 M 463.4 747.5 L 551.6 747.5 M 563.4 747.5 L 691 747.5 M 24 749.4 L 691 749.4 M 24 751.4 L 691 751.4 M 24 753.3 L 691 753.3 M 24 755.3 L 691 755.3 M 24 757.2 L 691 757.2 M 24 759.2 L 691 759.2 M 24 761.1 L 691 761.1 M 24 763.1 L 691 763.1 M 24 765.1 L 691 765.1 M 24 767 L 691 767 M 24 769 L 691 769 M 24 770.9 L 691 770.9 M 24 772.9 L 691 772.9 M 24 774.8 L 691 774.8 M 24 776.8 L 691 776.8 M 24 778.7 L 691 778.7 M 24 780.6 L 691 780.6 M 24 782.6 L 691 782.6 M 24 784.5 L 691 784.5 M 24 786.5 L 691 786.5 M 24 788.4 L 691 788.4 M 24 790.4 L 691 790.4 M 24 792.3 L 691 792.3 M 24 794.3 L 691 794.3 M 24 796.2 L 691 796.2 M 24 798.2 L 691 798.2 M 24 800.1 L 691 800.1 M 24 802.1 L 691 802.1 M 24 804 L 691 804 M 24 806 L 691 806 M 24 807.9 L 691 807.9 M 24 809.9 L 691 809.9 M 24 811.8 L 691 811.8 M 24 813.8 L 691 813.8 M 24 815.7 L 691 815.7 M 24 817.7 L 691 817.7 M 24 819.6 L 691 819.6 M 24 821.6 L 691 821.6 M 24 823.5 L 691 823.5 M 24 825.5 L 691 825.5 M 24 827.4 L 691 827.4 M 24 829.4 L 691 829.4 M 24 831.4 L 691 831.4 M 24 833.3 L 691 833.3 M 24 835.3 L 691 835.3 M 24 837.2 L 691 837.2 M 24 839.2 L 691 839.2"/><use x="257.5" y="607.5" xlink:href="#tool-D11-pad-1013"/><use x="357.5" y="607.5" xlink:href="#tool-D11-pad-1013"/><use x="457.5" y="607.5" xlink:href="#tool-D11-pad-1013"/><use x="557.5" y="607.5" xlink:href="#tool-D11-pad-1013"/><use x="157.5" y="707.5" xlink:href="#tool-D11-pad-1013"/><use x="257.5" y="707.5" xlink:href="#tool-D11-pad-1013"/><use x="357.5" y="707.5" xlink:href="#tool-D11-pad-1013"/><use x="457.5" y="707.5" xlink:href="#tool-D11-pad-1013"/><use x="557.5" y="707.5" xlink:href="#tool-D11-pad-1013"/><use x="157.5" y="607.5" xlink:href="#tool-D12-pad-1014"/><use x="507.5" y="207.5" xlink:href="#tool-D13-pad-1015"/><use x="407.5" y="207.5" xlink:href="#tool-D13-pad-1015"/><use x="307.5" y="207.5" xlink:href="#tool-D13-pad-1015"/><use x="207.5" y="207.5" xlink:href="#tool-D13-pad-1015"/><use x="107.5" y="207.5" xlink:href="#tool-D13-pad-1015"/><use x="607.5" y="207.5" xlink:href="#tool-D14-pad-1016"/></g><mask id="pcb_top_mech-mask" fill="#fff" stroke="#fff" fill-rule="evenodd"><path stroke-width="0" d="M 7.5 7.5 L 7.5 857.5 L 707.5 857.5 L 707.5 7.5 Z"/><g id="pcb_top-drl" fill="#000" stroke="#000"><use x="157.5" y="607.5" xlink:href="#tool-T10-pad-1000"/><use x="257.5" y="607.5" xlink:href="#tool-T10-pad-1000"/><use x="357.5" y="607.5" xlink:href="#tool-T10-pad-1000"/><use x="457.5" y="607.5" xlink:href="#tool-T10-pad-1000"/><use x="557.5" y="607.5" xlink:href="#tool-T10-pad-1000"/><use x="157.5" y="707.5" xlink:href="#tool-T10-pad-1000"/><use x="257.5" y="707.5" xlink:href="#tool-T10-pad-1000"/><use x="357.5" y="707.5" xlink:href="#tool-T10-pad-1000"/><use x="457.5" y="707.5" xlink:href="#tool-T10-pad-1000"/><use x="557.5" y="707.5" xlink:href="#tool-T10-pad-1000"/><use x="607.5" y="207.5" xlink:href="#tool-T11-pad-1001"/><use x="507.5" y="207.5" xlink:href="#tool-T11-pad-1001"/><use x="407.5" y="207.5" xlink:href="#tool-T11-pad-1001"/><use x="307.5" y="207.5" xlink:href="#tool-T11-pad-1001"/><use x="207.5" y="207.5" xlink:href="#tool-T11-pad-1001"/><use x="107.5" y="207.5" xlink:href="#tool-T11-pad-1001"/></g></mask></defs><g mask="url(#pcb_top_mech-mask)" transform="translate(0,865) scale(1,-1)"><rect x="7.5" y="7.5" width="700" height="850" fill="currentColor" class="pcb_board-fr4"/><use class="pcb_board-cu" xlink:href="#pcb_top-cu"/><g><defs><g id="pcb_top-sm" fill="currentColor" stroke="currentColor"><use x="257.5" y="607.5" xlink:href="#tool-D10-pad-1019"/><use x="357.5" y="607.5" xlink:href="#tool-D10-pad-1019"/><use x="457.5" y="607.5" xlink:href="#tool-D10-pad-1019"/><use x="557.5" y="607.5" xlink:href="#tool-D10-pad-1019"/><use x="157.5" y="707.5" xlink:href="#tool-D10-pad-1019"/><use x="257.5" y="707.5" xlink:href="#tool-D10-pad-1019"/><use x="357.5" y="707.5" xlink:href="#tool-D10-pad-1019"/><use x="457.5" y="707.5" xlink:href="#tool-D10-pad-1019"/><use x="557.5" y="707.5" xlink:href="#tool-D10-pad-1019"/><use x="157.5" y="607.5" xlink:href="#tool-D11-pad-1020"/><use x="507.5" y="207.5" xlink:href="#tool-D12-pad-1021"/><use x="407.5" y="207.5" xlink:href="#tool-D12-pad-1021"/><use x="307.5" y="207.5" xlink:href="#tool-D12-pad-1021"/><use x="207.5" y="207.5" xlink:href="#tool-D12-pad-1021"/><use x="107.5" y="207.5" xlink:href="#tool-D12-pad-1021"/><use x="607.5" y="207.5" xlink:href="#tool-D13-pad-1022"/></g><mask id="pcb_top-sm_mask" color="#000"><rect x="7.5" y="7.5" width="700" height="850" fill="#fff"/><use xlink:href="#pcb_top-sm"/></mask><mask id="pcb_top-cu_finish-mask" color="#fff"><use xlink:href="#pcb_top-cu"/></mask></defs><g mask="url(#pcb_top-sm_mask)"><rect x="7.5" y="7.5" width="700" height="850" fill="currentColor" class="pcb_board-sm"/><g id="pcb_top-ss" class="pcb_board-ss" fill="currentColor" stroke="currentColor"><path stroke-width="5" fill="none" d="M 657.5 477.5 L 57.5 477.5"/><path d="M 110.8 759.5 L 110.8 754.4 L 82.4 754.4 L 82.5 755.3 L 82.5 756.2 L 82.7 757.1 L 83.1 758.1 L 83.7 759.5 L 84.5 760.9 L 85.4 762.3 L 86.5 763.8 L 87.9 765.2 L 89.4 766.8 L 91.3 768.5 L 93.4 770.3 L 96.6 773 L 99.3 775.4 L 101.4 777.5 L 102.9 779.4 L 104 781 L 104.7 782.6 L 105.2 784.2 L 105.3 785.7 L 105.2 787.2 L 104.8 788.6 L 104.1 789.9 L 103.1 791 L 101.9 791.9 L 100.5 792.6 L 99 793 L 97.3 793.1 L 95.5 793 L 93.8 792.6 L 92.4 791.9 L 91.2 790.8 L 90.1 789.6 L 89.4 788.1 L 89 786.4 L 88.8 784.5 L 83.4 785.1 L 83.9 787.9 L 84.7 790.5 L 86 792.6 L 87.6 794.4 L 89.6 795.7 L 91.9 796.7 L 94.5 797.3 L 97.4 797.5 L 100.3 797.3 L 102.9 796.7 L 105.2 795.6 L 107.1 794.1 L 108.7 792.3 L 109.9 790.3 L 110.5 788 L 110.8 785.6 L 110.7 784.3 L 110.5 783.1 L 110.2 781.8 L 109.7 780.5 L 109.1 779.3 L 108.3 778 L 107.3 776.6 L 106.2 775.3 L 104.8 773.8 L 102.9 772 L 100.7 770 L 98.1 767.7 L 95.9 765.9 L 94.2 764.4 L 92.9 763.2 L 92 762.3 L 91.3 761.6 L 90.7 760.9 L 90.2 760.2 L 89.7 759.5 L 110.8 759.5 L 110.8 759.5 Z"/><path d="M 600 754.4 L 594.7 754.4 L 594.7 788 L 593.7 787.1 L 592.5 786.2 L 591.2 785.3 L 589.7 784.4 L 588.2 783.5 L 586.8 782.8 L 585.5 782.1 L 584.2 781.6 L 584.2 786.8 L 586.3 787.8 L 588.3 789 L 590.2 790.3 L 591.9 791.8 L 593.4 793.2 L 594.7 794.7 L 595.8 796.1 L 596.6 797.5 L 600 797.5 L 600 754.4 L 600 754.4 Z"/><path d="M 613.5 775.6 L 613.6 779.2 L 613.9 782.5 L 614.4 785.3 L 615.1 787.8 L 616 790 L 617 791.9 L 618.3 793.6 L 619.7 795 L 621.4 796.1 L 623.2 796.9 L 625.3 797.3 L 627.5 797.5 L 629.2 797.4 L 630.8 797.2 L 632.2 796.7 L 633.6 796.1 L 634.8 795.3 L 636 794.4 L 637 793.3 L 637.9 792.1 L 638.7 790.7 L 639.4 789.2 L 640 787.5 L 640.6 785.7 L 641 783.7 L 641.3 781.3 L 641.5 778.6 L 641.5 775.6 L 641.4 772 L 641.1 768.8 L 640.6 765.9 L 640 763.4 L 639.1 761.2 L 638 759.3 L 636.8 757.6 L 635.3 756.2 L 633.7 755.1 L 631.8 754.3 L 629.8 753.8 L 627.5 753.6 L 627.1 753.7 L 627.5 758 L 629.3 758.2 L 630.8 758.9 L 632.3 760 L 633.6 761.5 L 634.7 763.7 L 635.5 766.8 L 635.9 770.7 L 636.1 775.6 L 635.9 780.4 L 635.5 784.4 L 634.7 787.5 L 633.6 789.7 L 632.3 791.2 L 630.8 792.3 L 629.2 792.9 L 627.5 793.1 L 625.7 793 L 624.2 792.4 L 622.8 791.4 L 621.7 790.1 L 620.5 787.7 L 619.6 784.5 L 619.1 780.5 L 618.9 775.6 L 618.9 775.6 L 619.1 770.7 L 619.5 766.8 L 620.3 763.7 L 621.4 761.5 L 622.7 760 L 624.2 758.9 L 625.8 758.2 L 627.5 758 L 627.1 753.7 L 624.6 753.9 L 622 754.8 L 619.7 756.2 L 617.8 758.1 L 615.9 761.2 L 614.6 765.1 L 613.8 769.9 L 613.5 775.6 L 613.5 775.6 Z"/><path d="M 283.8 765.5 L 283.8 822.8 L 325.2 822.8 L 325.2 816 L 291.4 816 L 291.4 798.5 L 323.1 798.5 L 323.1 791.8 L 291.4 791.8 L 291.4 772.3 L 326.5 772.3 L 326.5 765.5 L 283.8 765.5 L 283.8 765.5 Z"/><path d="M 331.2 765.5 L 353.3 795.3 L 333.8 822.8 L 342.8 822.8 L 353.2 808.1 L 354.7 805.9 L 356 804 L 357 802.4 L 357.8 801 L 358.8 802.6 L 359.9 804.2 L 361.1 805.9 L 362.3 807.6 L 373.9 822.8 L 382.1 822.8 L 362 795.8 L 383.7 765.5 L 374.3 765.5 L 359.9 785.9 L 359.3 786.8 L 358.6 787.8 L 358 788.8 L 357.4 789.7 L 356.5 788.3 L 355.7 787.1 L 355.1 786.2 L 354.7 785.5 L 340.3 765.5 L 331.2 765.5 L 331.2 765.5 Z"/><path d="M 390.3 765.5 L 390.3 822.8 L 411.9 822.8 L 414.6 822.7 L 417 822.6 L 419 822.5 L 420.6 822.2 L 422.7 821.8 L 424.5 821.2 L 426.2 820.5 L 427.7 819.5 L 429.1 818.4 L 430.3 817.2 L 431.4 815.7 L 432.3 814 L 433.1 812.2 L 433.6 810.3 L 434 808.3 L 434.1 806.2 L 433.8 802.7 L 432.9 799.5 L 431.4 796.5 L 429.4 793.8 L 426.6 791.6 L 422.9 790.1 L 418.2 789.1 L 416.5 789 L 416.1 795.7 L 419 796.2 L 421.4 797.1 L 423.2 798.3 L 424.5 799.8 L 425.5 801.6 L 426 803.6 L 426.2 806 L 426.1 807.7 L 425.8 809.3 L 425.2 810.8 L 424.4 812.1 L 423.4 813.3 L 422.3 814.2 L 421 815 L 419.7 815.5 L 418.5 815.7 L 416.9 815.9 L 414.9 816 L 412.6 816 L 397.9 816 L 397.9 795.5 L 397.9 795.5 L 412.7 795.5 L 416.1 795.7 L 416.5 789 L 412.6 788.8 L 397.9 788.8 L 397.9 765.5 L 390.3 765.5 L 390.3 765.5 Z"/><path stroke-width="5.9" fill="none" d="M 692.1 305.9 L 692.1 109.1 M 692.1 305.9 L 22.9 305.9 M 22.9 305.9 L 22.9 109.1 M 22.9 109.1 L 692.1 109.1"/><path d="M 102.3 412.2 L 105.6 412.2 L 105.6 400.1 L 95 400.1 L 94 401.5 L 93.1 402.9 L 92.3 404.4 L 91.7 405.8 L 91.2 407.3 L 90.8 408.8 L 90.6 410.4 L 90.6 411.9 L 90.6 414 L 91 415.9 L 91.6 417.8 L 92.3 419.6 L 93.4 421.2 L 94.6 422.6 L 96 423.8 L 97.6 424.8 L 99.4 425.6 L 101.2 426.1 L 103.2 426.4 L 105.2 426.6 L 107.3 426.4 L 109.3 426.1 L 111.2 425.6 L 113 424.8 L 114.7 423.8 L 116.2 422.7 L 117.4 421.3 L 118.4 419.8 L 119.2 418.1 L 119.7 416.2 L 120.1 414.3 L 120.2 412.2 L 120.1 410.7 L 119.9 409.2 L 119.6 407.9 L 119.2 406.6 L 118.6 405.4 L 118 404.4 L 117.2 403.4 L 116.4 402.7 L 115.4 402 L 114.3 401.4 L 113.1 400.9 L 111.7 400.5 L 110.7 403.9 L 111.8 404.2 L 112.7 404.6 L 113.5 405.1 L 114.2 405.5 L 114.7 406 L 115.3 406.7 L 115.8 407.4 L 116.2 408.2 L 116.5 409.2 L 116.8 410.1 L 116.9 411.1 L 116.9 412.2 L 116.9 413.4 L 116.7 414.6 L 116.5 415.7 L 116.1 416.7 L 115.7 417.6 L 115.2 418.4 L 114.7 419.1 L 114 419.7 L 113.4 420.3 L 112.7 420.8 L 112 421.2 L 111.2 421.6 L 109.9 422 L 108.4 422.4 L 107 422.6 L 105.5 422.7 L 103.6 422.5 L 101.9 422.3 L 100.4 421.9 L 99 421.3 L 97.9 420.6 L 96.8 419.7 L 95.9 418.7 L 95.2 417.5 L 94.7 416.2 L 94.3 414.9 L 94 413.5 L 94 412.1 L 94 410.9 L 94.2 409.7 L 94.5 408.5 L 94.9 407.3 L 95.4 406.2 L 95.9 405.3 L 96.4 404.4 L 96.9 403.8 L 102.3 403.8 L 102.3 412.2 L 102.3 412.2 Z"/><path d="M 91 395 L 111.8 395 L 111.8 391.8 L 108.6 391.8 L 109.7 391.2 L 110.5 390.6 L 111.1 390.1 L 111.6 389.5 L 111.9 389 L 112.1 388.5 L 112.2 387.9 L 112.3 387.3 L 112.2 386.4 L 112 385.5 L 111.6 384.6 L 111.1 383.7 L 107.9 384.9 L 108.2 385.5 L 108.4 386.2 L 108.6 386.8 L 108.6 387.5 L 108.6 388.1 L 108.4 388.6 L 108.2 389.1 L 107.9 389.5 L 107.5 390 L 107.1 390.3 L 106.6 390.6 L 106 390.8 L 105.1 391.1 L 104 391.3 L 103 391.4 L 101.9 391.4 L 91 391.4 L 91 395 L 91 395 Z"/><path d="M 97.7 367.4 L 97.3 363.8 L 95.8 364.3 L 94.4 365 L 93.3 365.9 L 92.3 366.9 L 91.6 368.2 L 91 369.6 L 90.7 371.2 L 90.6 372.9 L 90.8 375.1 L 91.3 377 L 92.1 378.6 L 93.4 380.1 L 94.9 381.3 L 96.8 382.1 L 98.8 382.6 L 101.2 382.8 L 103.7 382.6 L 105.9 382.1 L 107.8 381.2 L 109.4 380.1 L 110.6 378.6 L 111.5 377 L 112.1 375.1 L 112.3 373.1 L 112.2 372.8 L 109.4 373.1 L 109.3 374.2 L 109 375.3 L 108.4 376.2 L 107.7 377.1 L 106.9 377.9 L 105.8 378.4 L 104.7 378.8 L 103.4 379 L 103.4 379 L 103.4 367.4 L 104.6 367.5 L 105.7 367.8 L 106.6 368.2 L 107.3 368.7 L 108.2 369.6 L 108.8 370.6 L 109.2 371.8 L 109.4 373.1 L 112.2 372.8 L 112.1 371.1 L 111.6 369.3 L 110.6 367.7 L 109.4 366.3 L 107.9 365.1 L 106 364.3 L 103.9 363.8 L 101.4 363.6 L 101.3 363.6 L 101 363.6 L 100.8 363.7 L 100.5 363.7 L 100.5 379.2 L 98.9 379 L 97.5 378.6 L 96.3 378 L 95.3 377.2 L 94.5 376.3 L 93.9 375.3 L 93.6 374.1 L 93.5 372.9 L 93.5 371.9 L 93.7 371.1 L 94 370.3 L 94.5 369.6 L 95.1 368.9 L 95.8 368.3 L 96.7 367.9 L 97.7 367.4 L 97.7 367.4 Z"/><path d="M 97.7 345.1 L 97.3 341.5 L 95.8 342 L 94.4 342.7 L 93.3 343.6 L 92.3 344.7 L 91.6 346 L 91 347.3 L 90.7 348.9 L 90.6 350.6 L 90.8 352.8 L 91.3 354.7 L 92.1 356.4 L 93.4 357.9 L 94.9 359 L 96.8 359.9 L 98.8 360.4 L 101.2 360.5 L 103.7 360.4 L 105.9 359.9 L 107.8 359 L 109.4 357.8 L 110.6 356.4 L 111.5 354.7 L 112.1 352.9 L 112.3 350.8 L 112.2 350.5 L 109.4 350.8 L 109.3 351.9 L 109 353 L 108.4 354 L 107.7 354.9 L 106.9 355.6 L 105.8 356.2 L 104.7 356.5 L 103.4 356.7 L 103.4 356.7 L 103.4 345.1 L 104.6 345.3 L 105.7 345.6 L 106.6 346 L 107.3 346.4 L 108.2 347.3 L 108.8 348.4 L 109.2 349.5 L 109.4 350.8 L 112.2 350.5 L 112.1 348.8 L 111.6 347.1 L 110.6 345.5 L 109.4 344 L 107.9 342.9 L 106 342.1 L 103.9 341.6 L 101.4 341.4 L 101.3 341.4 L 101 341.4 L 100.8 341.4 L 100.5 341.4 L 100.5 356.9 L 98.9 356.7 L 97.5 356.3 L 96.3 355.7 L 95.3 355 L 94.5 354 L 93.9 353 L 93.6 351.9 L 93.5 350.6 L 93.5 349.7 L 93.7 348.8 L 94 348.1 L 94.5 347.3 L 95.1 346.7 L 95.8 346.1 L 96.7 345.6 L 97.7 345.1 L 97.7 345.1 Z"/><path d="M 91 337.1 L 111.8 337.1 L 111.8 334 L 108.8 334 L 110.3 332.7 L 111.4 331.2 L 112 329.4 L 112.3 327.3 L 112.2 326.4 L 112.1 325.5 L 111.9 324.7 L 111.6 323.9 L 111.2 323.2 L 110.8 322.5 L 110.3 322 L 109.8 321.6 L 109.2 321.2 L 108.6 320.9 L 107.9 320.6 L 107.2 320.5 L 106.6 320.4 L 105.9 320.3 L 104.9 320.3 L 103.8 320.3 L 91 320.3 L 91 323.8 L 103.6 323.8 L 104.7 323.8 L 105.5 323.9 L 106.3 324 L 106.9 324.2 L 107.4 324.4 L 107.8 324.7 L 108.2 325.1 L 108.6 325.6 L 108.8 326.2 L 109 326.8 L 109.2 327.4 L 109.2 328.1 L 109.1 329.2 L 108.8 330.2 L 108.4 331.1 L 107.8 331.9 L 106.9 332.7 L 105.7 333.2 L 104.2 333.5 L 102.4 333.6 L 91 333.6 L 91 337.1 L 91 337.1 Z"/><path d="M 66.7 50.7 L 72.9 51.6 L 73.5 49.1 L 74.3 47.1 L 75.3 45.3 L 76.5 44 L 77.8 43 L 79.3 42.3 L 80.9 41.8 L 82.7 41.7 L 84.8 41.9 L 86.7 42.5 L 88.4 43.4 L 90 44.7 L 91.3 46.3 L 92.3 48.1 L 92.8 50 L 93 52.1 L 92.8 54.2 L 92.3 56 L 91.4 57.7 L 90.2 59.2 L 88.8 60.4 L 87.1 61.2 L 85.2 61.8 L 83.2 61.9 L 82.3 61.9 L 81.2 61.8 L 80.1 61.5 L 78.8 61.2 L 79.5 66.6 L 79.8 66.6 L 80.1 66.6 L 80.3 66.6 L 80.5 66.6 L 82.5 66.7 L 84.3 67.1 L 86 67.7 L 87.6 68.6 L 89 69.8 L 89.9 71.2 L 90.5 72.9 L 90.7 74.9 L 90.6 76.6 L 90.2 78 L 89.5 79.4 L 88.4 80.5 L 87.2 81.5 L 85.8 82.2 L 84.3 82.6 L 82.5 82.7 L 80.8 82.6 L 79.3 82.2 L 77.8 81.5 L 76.6 80.5 L 75.5 79.2 L 74.6 77.7 L 73.9 75.8 L 73.5 73.7 L 67.3 74.8 L 68.1 77.7 L 69.2 80.3 L 70.6 82.5 L 72.5 84.4 L 74.6 85.9 L 76.9 86.9 L 79.5 87.6 L 82.4 87.8 L 84.4 87.7 L 86.4 87.4 L 88.2 86.8 L 89.9 86 L 91.6 85.1 L 93 84 L 94.2 82.7 L 95.3 81.2 L 96 79.7 L 96.6 78.1 L 96.9 76.5 L 97.1 74.8 L 96.9 73.2 L 96.6 71.7 L 96.1 70.3 L 95.3 68.9 L 94.4 67.6 L 93.2 66.5 L 91.8 65.5 L 90.2 64.6 L 92.3 64 L 94.1 63.1 L 95.7 61.9 L 97.1 60.4 L 98.1 58.7 L 98.9 56.8 L 99.4 54.6 L 99.5 52.3 L 99.2 49.2 L 98.3 46.2 L 96.8 43.6 L 94.7 41.2 L 92.2 39.2 L 89.3 37.7 L 86.2 36.9 L 82.7 36.6 L 79.5 36.9 L 76.6 37.6 L 74 38.8 L 71.7 40.5 L 69.7 42.7 L 68.3 45.1 L 67.3 47.7 L 66.7 50.7 L 66.7 50.7 Z"/><path d="M 109.1 37.5 L 109.1 44.5 L 116.1 44.5 L 116.1 37.5 L 109.1 37.5 L 109.1 37.5 Z"/><path d="M 125.1 50.7 L 131.2 51.6 L 131.9 49.1 L 132.7 47.1 L 133.7 45.3 L 134.9 44 L 136.2 43 L 137.7 42.3 L 139.3 41.8 L 141 41.7 L 143.1 41.9 L 145.1 42.5 L 146.8 43.4 L 148.4 44.7 L 149.7 46.3 L 150.6 48.1 L 151.2 50 L 151.4 52.1 L 151.2 54.2 L 150.7 56 L 149.8 57.7 L 148.6 59.2 L 147.1 60.4 L 145.5 61.2 L 143.6 61.8 L 141.6 61.9 L 140.6 61.9 L 139.6 61.8 L 138.5 61.5 L 137.2 61.2 L 137.9 66.6 L 138.2 66.6 L 138.5 66.6 L 138.7 66.6 L 138.9 66.6 L 140.8 66.7 L 142.7 67.1 L 144.4 67.7 L 146 68.6 L 147.3 69.8 L 148.3 71.2 L 148.9 72.9 L 149.1 74.9 L 149 76.6 L 148.6 78 L 147.9 79.4 L 146.8 80.5 L 145.6 81.5 L 144.2 82.2 L 142.7 82.6 L 140.9 82.7 L 139.2 82.6 L 137.6 82.2 L 136.2 81.5 L 134.9 80.5 L 133.8 79.2 L 133 77.7 L 132.3 75.8 L 131.9 73.7 L 125.7 74.8 L 126.4 77.7 L 127.5 80.3 L 129 82.5 L 130.8 84.4 L 133 85.9 L 135.3 86.9 L 137.9 87.6 L 140.8 87.8 L 142.8 87.7 L 144.7 87.4 L 146.6 86.8 L 148.3 86 L 150 85.1 L 151.4 84 L 152.6 82.7 L 153.6 81.2 L 154.4 79.7 L 155 78.1 L 155.3 76.5 L 155.5 74.8 L 155.3 73.2 L 155 71.7 L 154.5 70.3 L 153.7 68.9 L 152.7 67.6 L 151.6 66.5 L 150.1 65.5 L 148.6 64.6 L 150.6 64 L 152.5 63.1 L 154.1 61.9 L 155.5 60.4 L 156.5 58.7 L 157.3 56.8 L 157.7 54.6 L 157.9 52.3 L 157.6 49.2 L 156.7 46.2 L 155.2 43.6 L 153.1 41.2 L 150.6 39.2 L 147.7 37.7 L 144.5 36.9 L 141 36.6 L 137.9 36.9 L 135 37.6 L 132.4 38.8 L 130.1 40.5 L 128.1 42.7 L 126.6 45.1 L 125.6 47.7 L 125.1 50.7 L 125.1 50.7 Z"/><path d="M 195.2 37.5 L 181.4 73.8 L 187.9 73.8 L 195.7 52.1 L 196.3 50.3 L 196.9 48.5 L 197.5 46.6 L 198.1 44.7 L 198.5 46.2 L 199 47.9 L 199.6 49.7 L 200.3 51.6 L 208.4 73.8 L 214.7 73.8 L 201 37.5 L 195.2 37.5 L 195.2 37.5 Z"/><path d="M 217.9 55.6 L 218.2 60.4 L 219.3 64.4 L 221 67.8 L 223.5 70.6 L 225.9 72.3 L 228.7 73.6 L 231.6 74.4 L 234.9 74.6 L 238.4 74.3 L 241.7 73.4 L 244.6 71.9 L 247.1 69.7 L 249.2 67 L 250.7 63.9 L 251.6 60.3 L 251.9 56.2 L 251.8 52.9 L 251.4 49.9 L 250.7 47.3 L 249.8 45.1 L 248.6 43.2 L 247.2 41.6 L 245.5 40.1 L 243.6 38.9 L 241.6 37.9 L 239.5 37.2 L 237.2 36.8 L 234.9 36.7 L 234.5 36.7 L 234.9 41.8 L 237.1 41.9 L 239.1 42.6 L 240.9 43.7 L 242.5 45.2 L 243.8 47.2 L 244.8 49.6 L 245.4 52.5 L 245.5 55.8 L 245.4 59 L 244.8 61.8 L 243.8 64.1 L 242.5 66 L 240.8 67.6 L 239.1 68.6 L 237.1 69.3 L 234.9 69.5 L 232.7 69.3 L 230.6 68.7 L 228.8 67.6 L 227.2 66.1 L 225.9 64.1 L 224.9 61.8 L 224.4 58.9 L 224.2 55.6 L 224.2 55.6 L 224.4 52.4 L 224.9 49.5 L 225.9 47.1 L 227.2 45.2 L 228.8 43.7 L 230.6 42.6 L 232.7 41.9 L 234.9 41.8 L 234.5 36.7 L 231.2 37 L 228 37.9 L 225.1 39.4 L 222.6 41.6 L 220.5 44.3 L 219 47.5 L 218.2 51.3 L 217.9 55.6 L 217.9 55.6 Z"/><path d="M 259 37.5 L 259 87.6 L 265.1 87.6 L 265.1 37.5 L 259 37.5 L 259 37.5 Z"/><path d="M 288.1 43 L 289 37.6 L 287.7 37.3 L 286.5 37.1 L 285.4 37.1 L 284.3 37 L 282.7 37.1 L 281.3 37.3 L 280.1 37.6 L 279.1 38.1 L 278.2 38.6 L 277.5 39.3 L 276.9 40.1 L 276.5 40.9 L 276.2 41.9 L 276 43.6 L 275.8 45.6 L 275.8 48.1 L 275.8 69 L 271.2 69 L 271.2 73.8 L 275.8 73.8 L 275.8 82.8 L 281.9 86.5 L 281.9 73.8 L 288.1 73.8 L 288.1 69 L 281.9 69 L 281.9 47.8 L 281.9 46.6 L 281.9 45.6 L 282.1 44.9 L 282.2 44.4 L 282.4 44 L 282.6 43.7 L 282.9 43.4 L 283.2 43.2 L 283.7 43 L 284.2 42.9 L 284.7 42.8 L 285.4 42.8 L 285.9 42.8 L 286.6 42.8 L 287.3 42.9 L 288.1 43 L 288.1 43 Z"/><path d="M 314.7 37.5 L 314.7 87.6 L 348.4 87.6 L 348.4 81.7 L 321.3 81.7 L 321.3 66.2 L 344.8 66.2 L 344.8 60.3 L 321.3 60.3 L 321.3 37.5 L 314.7 37.5 L 314.7 37.5 Z"/><path d="M 369.8 37.5 L 369.8 81.7 L 353.3 81.7 L 353.3 87.6 L 393 87.6 L 393 81.7 L 376.4 81.7 L 376.4 37.5 L 369.8 37.5 L 369.8 37.5 Z"/><path d="M 399.8 37.5 L 399.8 87.6 L 417 87.6 L 417 81.7 L 406.5 81.7 L 406.5 43.4 L 406.5 43.4 L 417.1 43.4 L 419.5 43.5 L 421.6 43.6 L 423.4 43.9 L 424.9 44.4 L 426.3 44.9 L 427.5 45.5 L 428.5 46.2 L 429.4 46.9 L 430.5 48.2 L 431.5 49.7 L 432.4 51.4 L 433.1 53.3 L 433.7 55.4 L 434.1 57.7 L 434.4 60.2 L 434.4 62.9 L 434.3 66.6 L 433.8 69.9 L 433 72.7 L 431.8 75 L 430.5 76.9 L 429 78.5 L 427.3 79.8 L 425.6 80.6 L 424 81.1 L 422.1 81.4 L 419.7 81.6 L 417 81.7 L 417 87.6 L 417.1 87.6 L 419.8 87.6 L 422.2 87.4 L 424.3 87.2 L 426 86.9 L 428.1 86.3 L 430 85.5 L 431.8 84.5 L 433.4 83.3 L 435.2 81.5 L 436.8 79.5 L 438.2 77.2 L 439.3 74.7 L 440.1 72 L 440.8 69.2 L 441.1 66.1 L 441.2 62.8 L 441.2 60.1 L 440.9 57.5 L 440.5 55 L 439.9 52.7 L 439.2 50.6 L 438.4 48.7 L 437.5 46.9 L 436.5 45.4 L 435.5 44 L 434.3 42.8 L 433.2 41.8 L 431.9 40.9 L 430.6 40.1 L 429.2 39.4 L 427.7 38.8 L 426 38.4 L 424.2 38 L 422.2 37.7 L 420.1 37.5 L 417.9 37.5 L 399.8 37.5 L 399.8 37.5 Z"/><path d="M 451.5 37.5 L 451.5 87.6 L 458.1 87.6 L 458.1 37.5 L 451.5 37.5 L 451.5 37.5 Z"/><path d="M 512.2 50.8 L 518.2 50 L 517.5 47.1 L 516.5 44.4 L 515 42.1 L 513.2 40.2 L 511 38.7 L 508.6 37.6 L 506 36.9 L 503.1 36.7 L 499.6 37 L 496.4 37.9 L 493.6 39.4 L 491.1 41.6 L 489.2 44.2 L 487.7 47.5 L 486.9 51.2 L 486.6 55.5 L 486.8 58.4 L 487.1 61 L 487.7 63.5 L 488.6 65.8 L 489.7 67.9 L 491 69.7 L 492.6 71.2 L 494.5 72.4 L 496.5 73.4 L 498.6 74.1 L 500.8 74.5 L 503.2 74.6 L 506 74.4 L 508.5 73.9 L 510.8 72.9 L 512.8 71.6 L 514.5 70 L 515.9 68 L 516.9 65.7 L 517.7 63.1 L 511.7 62.2 L 511.2 63.9 L 510.5 65.4 L 509.6 66.7 L 508.6 67.7 L 507.5 68.5 L 506.2 69.1 L 504.9 69.4 L 503.4 69.5 L 501.2 69.4 L 499.2 68.7 L 497.4 67.7 L 495.8 66.2 L 494.6 64.3 L 493.6 61.9 L 493.1 59 L 492.9 55.7 L 493.1 52.3 L 493.6 49.4 L 494.5 46.9 L 495.7 45.1 L 497.3 43.6 L 499 42.6 L 500.9 41.9 L 503.1 41.8 L 504.8 41.9 L 506.4 42.3 L 507.8 43 L 509.1 44 L 510.2 45.2 L 511.1 46.8 L 511.8 48.6 L 512.2 50.8 L 512.2 50.8 Z"/><path d="M 547.2 42 L 545.5 40.6 L 545.3 40.5 L 542.9 43.9 L 544 44.9 L 544.9 46 L 545.7 47.3 L 546.1 48.5 L 546.4 49.9 L 546.6 51.6 L 546.7 53.4 L 546.7 55.7 L 546.7 55.7 L 544.8 55.1 L 542.5 54.5 L 539.7 53.9 L 536.6 53.4 L 534.9 53.1 L 533.4 52.8 L 532.2 52.5 L 531.2 52.1 L 530.5 51.8 L 529.9 51.3 L 529.3 50.8 L 528.8 50.2 L 528.4 49.5 L 528.2 48.8 L 528 48 L 528 47.2 L 528.1 46 L 528.4 45 L 529 44 L 529.8 43.1 L 530.9 42.4 L 532.1 41.9 L 533.6 41.6 L 535.3 41.5 L 537 41.6 L 538.6 41.9 L 540.2 42.4 L 541.6 43.1 L 542.9 43.9 L 545.3 40.5 L 543.8 39.5 L 542.2 38.6 L 540.6 37.9 L 539 37.3 L 537.3 37 L 535.6 36.8 L 533.8 36.7 L 531 36.9 L 528.5 37.4 L 526.4 38.3 L 524.6 39.6 L 523.2 41.2 L 522.2 42.9 L 521.6 44.9 L 521.4 47.1 L 521.5 48.4 L 521.7 49.6 L 522.1 50.8 L 522.6 51.9 L 523.3 53 L 524 53.9 L 524.9 54.7 L 525.8 55.5 L 526.8 56.1 L 527.9 56.6 L 529 57.1 L 530.2 57.5 L 531.2 57.7 L 532.5 58 L 534 58.2 L 535.7 58.4 L 539.2 58.9 L 542.1 59.4 L 544.7 59.9 L 546.7 60.5 L 546.7 61.1 L 546.7 61.6 L 546.7 61.9 L 546.7 62.1 L 546.6 63.9 L 546.3 65.3 L 545.7 66.5 L 544.9 67.5 L 543.6 68.4 L 542 69 L 540.1 69.4 L 537.9 69.5 L 535.9 69.4 L 534.2 69.2 L 532.7 68.7 L 531.6 68 L 530.6 67.1 L 529.7 65.9 L 529 64.4 L 528.5 62.6 L 522.5 63.4 L 522.9 65.3 L 523.6 66.9 L 524.3 68.4 L 525.2 69.7 L 526.2 70.8 L 527.5 71.8 L 528.9 72.6 L 530.6 73.3 L 532.5 73.9 L 534.4 74.3 L 536.6 74.5 L 538.8 74.6 L 541 74.5 L 543.1 74.4 L 544.8 74 L 546.4 73.5 L 547.7 72.9 L 548.9 72.3 L 549.9 71.6 L 550.6 70.8 L 551.3 69.9 L 551.8 68.9 L 552.3 67.8 L 552.6 66.6 L 552.7 65.6 L 552.8 64.4 L 552.9 62.8 L 552.9 60.9 L 552.9 52.7 L 552.9 48.8 L 553 45.7 L 553.1 43.4 L 553.3 41.9 L 553.5 40.7 L 553.9 39.6 L 554.3 38.6 L 554.8 37.5 L 548.4 37.5 L 548 38.5 L 547.6 39.6 L 547.3 40.7 L 547.2 42 L 547.2 42 Z"/><path d="M 568.1 37.5 L 562.4 37.5 L 562.4 87.6 L 568.5 87.6 L 568.5 69.7 L 570.6 71.9 L 573 73.4 L 575.6 74.3 L 578.5 74.6 L 580.1 74.5 L 581.8 74.3 L 583.3 73.9 L 584.8 73.3 L 586.2 72.5 L 587.5 71.6 L 588.7 70.6 L 589.7 69.5 L 590.6 68.2 L 591.5 66.8 L 592.2 65.3 L 592.8 63.6 L 593.2 61.8 L 593.6 60 L 593.8 58.1 L 593.9 56.2 L 593.6 51.8 L 592.7 47.9 L 591.3 44.6 L 589.3 41.8 L 586.8 39.5 L 584.2 38 L 581.3 37 L 578.2 36.7 L 575.1 37 L 572.5 38 L 570.1 39.7 L 568.3 41.8 L 571.4 44.4 L 573.2 42.9 L 575.3 42 L 577.7 41.8 L 579.6 41.9 L 581.4 42.6 L 583.1 43.7 L 584.6 45.3 L 585.9 47.2 L 586.8 49.6 L 587.4 52.4 L 587.6 55.7 L 587.4 59 L 586.9 61.9 L 586 64.3 L 584.7 66.2 L 583.3 67.7 L 581.6 68.7 L 579.9 69.4 L 577.9 69.5 L 576 69.4 L 574.2 68.7 L 572.5 67.6 L 571 66 L 569.7 64.1 L 568.8 61.8 L 568.2 59 L 568 55.9 L 568 55.9 L 568.1 52.9 L 568.5 50.3 L 569 48.2 L 569.8 46.5 L 571.4 44.4 L 568.3 41.8 L 568.1 42 L 568.1 37.5 L 568.1 37.5 Z"/><path d="M 601.2 37.5 L 601.2 87.6 L 607.4 87.6 L 607.4 37.5 L 601.2 37.5 L 601.2 37.5 Z"/><path d="M 641.8 49.2 L 648.1 48.4 L 647.2 45.8 L 646 43.4 L 644.4 41.4 L 642.5 39.7 L 640.4 38.4 L 637.9 37.5 L 635.2 36.9 L 632.1 36.7 L 628.4 37 L 625 37.9 L 622.1 39.4 L 619.5 41.6 L 617.5 44.3 L 616 47.5 L 615.1 51.2 L 614.9 55.3 L 615.1 59.7 L 616 63.5 L 617.5 66.8 L 619.6 69.5 L 622.1 71.8 L 625 73.4 L 628.2 74.3 L 631.8 74.6 L 632.3 74.6 L 631.9 69.5 L 629.8 69.4 L 628 68.8 L 626.3 68 L 624.7 66.7 L 623.5 65.2 L 622.5 63.4 L 621.9 61.4 L 621.6 59.2 L 621.6 59.2 L 641.8 59.2 L 641.5 61.3 L 641 63.1 L 640.4 64.7 L 639.5 66 L 637.9 67.6 L 636.1 68.7 L 634.1 69.4 L 631.9 69.5 L 632.3 74.6 L 635.3 74.3 L 638.4 73.4 L 641.2 71.8 L 643.7 69.7 L 645.7 66.9 L 647.1 63.7 L 648 59.9 L 648.3 55.7 L 648.3 55.4 L 648.3 55 L 648.3 54.6 L 648.3 54.1 L 621.2 54.1 L 621.6 51.3 L 622.2 48.8 L 623.2 46.7 L 624.6 44.9 L 626.2 43.5 L 628 42.5 L 630 41.9 L 632.2 41.8 L 633.8 41.8 L 635.3 42.2 L 636.7 42.7 L 638 43.5 L 639.1 44.5 L 640.1 45.8 L 641 47.4 L 641.8 49.2 L 641.8 49.2 Z"/><path d="M 594 414.4 L 622.7 414.4 L 622.7 403.6 L 622.6 402.1 L 622.5 400.7 L 622.2 399.5 L 621.8 398.4 L 621.3 397.5 L 620.7 396.6 L 620 395.9 L 619.1 395.3 L 618.2 394.8 L 617.3 394.4 L 616.3 394.2 L 615.3 394.2 L 614.4 394.2 L 613.6 394.4 L 612.7 394.7 L 611.9 395.1 L 611.1 395.7 L 610.4 396.4 L 609.8 397.2 L 609.3 398.2 L 606.6 399.3 L 606.8 399.8 L 607 400.6 L 607.1 401.6 L 607.2 402.7 L 607.3 404 L 607.3 410.6 L 597.4 410.6 L 597.4 410.6 L 597.4 403.5 L 597.4 402.6 L 597.5 401.9 L 597.5 401.3 L 597.5 400.9 L 597.7 400.3 L 597.9 399.7 L 598.1 399.2 L 598.3 398.7 L 598.6 398.3 L 599 397.9 L 599.4 397.6 L 599.9 397.3 L 600.5 397 L 601 396.8 L 601.7 396.7 L 602.3 396.7 L 603.1 396.8 L 603.8 396.9 L 604.5 397.1 L 605.1 397.5 L 605.7 398 L 606.1 398.5 L 606.5 399.1 L 606.6 399.3 L 609.3 398.2 L 611.6 399.5 L 611.9 399 L 612.4 398.6 L 612.9 398.3 L 613.5 398.1 L 614.2 397.9 L 614.9 397.9 L 615.6 397.9 L 616.2 398.1 L 616.8 398.2 L 617.4 398.6 L 617.9 399 L 618.3 399.4 L 618.6 399.9 L 618.9 400.5 L 619.1 401.3 L 619.2 402.2 L 619.3 403.4 L 619.3 404.9 L 619.3 410.6 L 610.6 410.6 L 610.6 410.6 L 610.6 404.4 L 610.6 403.2 L 610.7 402.2 L 610.8 401.4 L 611 400.8 L 611.2 400.1 L 611.6 399.5 L 609.3 398.2 L 608.8 396.9 L 608.2 395.8 L 607.5 394.9 L 606.7 394.2 L 605.7 393.6 L 604.7 393.1 L 603.6 392.9 L 602.3 392.8 L 601.4 392.8 L 600.4 393 L 599.5 393.2 L 598.6 393.6 L 597.8 394.1 L 597.1 394.5 L 596.4 395.1 L 595.9 395.7 L 595.5 396.4 L 595.1 397.1 L 594.8 397.9 L 594.5 398.8 L 594.3 399.9 L 594.2 401 L 594.1 402.1 L 594 403.5 L 594 414.4 L 594 414.4 Z"/><path d="M 594 388.1 L 622.7 388.1 L 622.7 384.5 L 594 384.5 L 594 388.1 L 594 388.1 Z"/><path d="M 596.6 365.6 L 595.8 366.6 L 595.7 366.7 L 597.7 368 L 598.3 367.4 L 598.9 366.9 L 599.7 366.4 L 600.3 366.2 L 601.1 366 L 602.1 365.9 L 603.2 365.9 L 604.5 365.9 L 604.5 365.9 L 604.1 366.9 L 603.7 368.2 L 603.4 369.8 L 603.1 371.6 L 603 372.6 L 602.8 373.4 L 602.6 374.2 L 602.4 374.7 L 602.2 375.1 L 601.9 375.5 L 601.6 375.8 L 601.3 376.1 L 600.9 376.3 L 600.5 376.4 L 600.1 376.5 L 599.6 376.6 L 598.9 376.5 L 598.3 376.3 L 597.8 376 L 597.3 375.5 L 596.9 374.9 L 596.6 374.2 L 596.4 373.3 L 596.3 372.4 L 596.4 371.4 L 596.6 370.5 L 596.8 369.6 L 597.2 368.8 L 597.7 368 L 595.7 366.7 L 595.2 367.5 L 594.7 368.4 L 594.3 369.4 L 594 370.3 L 593.8 371.2 L 593.6 372.2 L 593.6 373.2 L 593.7 374.8 L 594 376.2 L 594.5 377.5 L 595.3 378.5 L 596.1 379.3 L 597.1 379.9 L 598.3 380.2 L 599.5 380.3 L 600.3 380.3 L 601 380.1 L 601.6 379.9 L 602.3 379.6 L 602.9 379.2 L 603.4 378.8 L 603.9 378.3 L 604.3 377.8 L 604.7 377.2 L 605 376.6 L 605.3 376 L 605.5 375.3 L 605.6 374.7 L 605.7 374 L 605.9 373.1 L 606 372.1 L 606.3 370.1 L 606.6 368.4 L 606.9 367 L 607.2 365.9 L 607.5 365.8 L 607.8 365.8 L 608 365.8 L 608.1 365.8 L 609.1 365.9 L 609.9 366.1 L 610.6 366.4 L 611.2 366.8 L 611.7 367.6 L 612 368.5 L 612.3 369.6 L 612.3 370.8 L 612.3 372 L 612.1 373 L 611.9 373.8 L 611.5 374.5 L 611 375.1 L 610.3 375.5 L 609.4 375.9 L 608.4 376.3 L 608.9 379.7 L 609.9 379.4 L 610.8 379.1 L 611.7 378.6 L 612.4 378.2 L 613.1 377.5 L 613.6 376.8 L 614.1 376 L 614.5 375.1 L 614.8 374 L 615.1 372.9 L 615.2 371.6 L 615.3 370.3 L 615.2 369.1 L 615.1 367.9 L 614.9 366.9 L 614.6 366 L 614.3 365.3 L 613.9 364.6 L 613.5 364 L 613.1 363.6 L 612.5 363.2 L 612 362.9 L 611.4 362.7 L 610.6 362.5 L 610.1 362.4 L 609.4 362.3 L 608.5 362.3 L 607.4 362.3 L 602.7 362.3 L 600.5 362.3 L 598.7 362.3 L 597.4 362.2 L 596.5 362.1 L 595.9 361.9 L 595.3 361.8 L 594.7 361.5 L 594 361.2 L 594 364.9 L 594.6 365.1 L 595.2 365.3 L 595.9 365.5 L 596.6 365.6 L 596.6 365.6 Z"/><path d="M 601.6 343.3 L 601.2 339.9 L 599.5 340.3 L 598 340.9 L 596.7 341.7 L 595.6 342.8 L 594.7 344 L 594.1 345.4 L 593.7 346.9 L 593.6 348.5 L 593.8 350.5 L 594.3 352.3 L 595.1 354 L 596.4 355.3 L 597.9 356.5 L 599.7 357.3 L 601.9 357.8 L 604.4 357.9 L 606 357.9 L 607.5 357.7 L 608.9 357.3 L 610.2 356.8 L 611.4 356.2 L 612.4 355.4 L 613.3 354.5 L 614 353.4 L 614.5 352.3 L 614.9 351 L 615.2 349.8 L 615.3 348.5 L 615.1 346.9 L 614.8 345.4 L 614.3 344.1 L 613.6 343 L 612.6 342 L 611.5 341.2 L 610.2 340.6 L 608.7 340.2 L 608.2 343.6 L 609.2 343.9 L 610 344.3 L 610.7 344.8 L 611.3 345.3 L 611.8 346 L 612.1 346.7 L 612.3 347.5 L 612.4 348.4 L 612.3 349.6 L 611.9 350.8 L 611.3 351.8 L 610.5 352.7 L 609.4 353.4 L 608 353.9 L 606.4 354.2 L 604.4 354.3 L 602.5 354.2 L 600.8 353.9 L 599.5 353.4 L 598.4 352.7 L 597.5 351.9 L 596.9 350.9 L 596.6 349.8 L 596.5 348.6 L 596.6 347.5 L 596.8 346.6 L 597.2 345.8 L 597.7 345.1 L 598.4 344.5 L 599.4 344 L 600.4 343.6 L 601.6 343.3 L 601.6 343.3 Z"/><path d="M 594 336.8 L 622.7 336.8 L 622.7 333.3 L 606.4 333.3 L 614.8 325 L 614.8 320.5 L 607.1 328.4 L 594 319.7 L 594 324 L 604.7 330.8 L 602.3 333.3 L 594 333.3 L 594 336.8 L 594 336.8 Z"/><path d="M 391 387.7 L 419.7 387.7 L 419.7 375.1 L 419.6 373.2 L 419.5 371.7 L 419.2 370.3 L 418.9 369.2 L 418.4 368.3 L 417.9 367.4 L 417.1 366.7 L 416.2 366 L 415.2 365.5 L 414.1 365.1 L 413 364.9 L 411.9 364.9 L 410.4 365 L 409.1 365.3 L 407.8 366 L 406.7 366.8 L 405.8 367.9 L 405 369.3 L 404.5 371 L 404.3 371.9 L 407.3 372.5 L 407.6 371.8 L 407.9 371 L 408.3 370.5 L 408.8 369.9 L 409.3 369.5 L 409.9 369.2 L 410.5 369 L 411.2 368.8 L 411.9 368.8 L 412.8 368.8 L 413.7 369.1 L 414.5 369.6 L 415.2 370.2 L 415.8 371.1 L 416.2 372.1 L 416.4 373.4 L 416.5 374.9 L 416.5 384 L 407 384 L 407 384 L 407 375.8 L 407.1 374.6 L 407.2 373.5 L 407.3 372.5 L 404.3 371.9 L 404.1 372.9 L 403.7 372.2 L 403.4 371.6 L 403 371 L 402.7 370.6 L 401.8 369.8 L 400.9 369 L 399.9 368.2 L 398.8 367.5 L 391 362.5 L 391 367.3 L 397 371 L 398.2 371.8 L 399.3 372.6 L 400.2 373.2 L 401 373.8 L 401.6 374.3 L 402.1 374.8 L 402.5 375.3 L 402.9 375.7 L 403.1 376.1 L 403.3 376.6 L 403.5 377 L 403.6 377.5 L 403.7 377.8 L 403.7 378.3 L 403.8 378.9 L 403.8 379.5 L 403.8 384 L 391 384 L 391 387.7 L 391 387.7 Z"/><path d="M 397.7 345.1 L 397.3 341.5 L 395.8 342 L 394.4 342.7 L 393.3 343.6 L 392.3 344.7 L 391.6 346 L 391 347.3 L 390.7 348.9 L 390.6 350.6 L 390.8 352.8 L 391.3 354.7 L 392.1 356.4 L 393.4 357.9 L 394.9 359 L 396.8 359.9 L 398.8 360.4 L 401.2 360.5 L 403.7 360.4 L 405.9 359.9 L 407.8 359 L 409.4 357.8 L 410.6 356.4 L 411.5 354.7 L 412.1 352.9 L 412.3 350.8 L 412.2 350.5 L 409.4 350.8 L 409.3 351.9 L 409 353 L 408.4 354 L 407.7 354.9 L 406.9 355.6 L 405.8 356.2 L 404.7 356.5 L 403.4 356.7 L 403.4 356.7 L 403.4 345.1 L 404.6 345.3 L 405.7 345.6 L 406.6 346 L 407.3 346.4 L 408.2 347.3 L 408.8 348.4 L 409.2 349.5 L 409.4 350.8 L 412.2 350.5 L 412.1 348.8 L 411.6 347.1 L 410.6 345.5 L 409.4 344 L 407.9 342.9 L 406 342.1 L 403.9 341.6 L 401.4 341.4 L 401.3 341.4 L 401 341.4 L 400.8 341.4 L 400.5 341.4 L 400.5 356.9 L 398.9 356.7 L 397.5 356.3 L 396.3 355.7 L 395.3 355 L 394.5 354 L 393.9 353 L 393.6 351.9 L 393.5 350.6 L 393.5 349.7 L 393.7 348.8 L 394 348.1 L 394.5 347.3 L 395.1 346.7 L 395.8 346.1 L 396.7 345.6 L 397.7 345.1 L 397.7 345.1 Z"/><path d="M 391 323.6 L 393.6 323.6 L 395.3 325.3 L 395.3 325.2 L 396.4 324.5 L 397.7 324 L 399.3 323.7 L 401.1 323.6 L 403.1 323.7 L 404.8 324 L 406.2 324.5 L 407.3 325.2 L 408.2 326.1 L 408.8 327.1 L 409.2 328.1 L 409.4 329.3 L 409.2 330.4 L 408.9 331.4 L 408.2 332.3 L 407.4 333.2 L 406.3 333.9 L 405 334.4 L 403.3 334.7 L 401.4 334.8 L 401.4 334.8 L 399.5 334.7 L 397.9 334.4 L 396.6 333.8 L 395.5 333.1 L 394.6 332.2 L 394 331.2 L 393.6 330.2 L 393.5 329.1 L 393.6 328 L 393.9 327 L 394.5 326 L 395.3 325.3 L 393.6 323.6 L 392.3 324.7 L 391.4 326.1 L 390.8 327.7 L 390.6 329.5 L 390.6 330.6 L 390.9 331.8 L 391.4 332.9 L 391.9 334 L 392.7 335 L 393.6 335.8 L 394.6 336.6 L 395.8 337.2 L 397 337.7 L 398.4 338.1 L 399.9 338.3 L 401.4 338.4 L 402.9 338.3 L 404.4 338.1 L 405.7 337.8 L 407 337.3 L 408.2 336.8 L 409.3 336 L 410.2 335.2 L 410.9 334.2 L 411.5 333.2 L 411.9 332 L 412.2 330.8 L 412.3 329.6 L 412.2 328.7 L 412.1 327.9 L 411.8 327 L 411.5 326.3 L 411 325.6 L 410.6 324.9 L 410 324.4 L 409.4 323.9 L 419.7 323.9 L 419.7 320.4 L 391 320.4 L 391 323.6 L 391 323.6 Z"/><path d="M 191 420.5 L 203.2 420.5 L 219.7 431.6 L 219.7 426.9 L 211 421.3 L 209.8 420.5 L 208.6 419.8 L 207.4 419.1 L 206.2 418.4 L 207.3 417.7 L 208.6 416.9 L 209.9 416.1 L 211.2 415.3 L 219.7 409.7 L 219.7 405.3 L 203.2 416.7 L 191 416.7 L 191 420.5 L 191 420.5 Z"/><path d="M 197.7 391.8 L 197.3 388.2 L 195.8 388.7 L 194.4 389.4 L 193.3 390.3 L 192.3 391.4 L 191.6 392.6 L 191 394 L 190.7 395.6 L 190.6 397.3 L 190.8 399.5 L 191.3 401.4 L 192.1 403.1 L 193.4 404.5 L 194.9 405.7 L 196.8 406.5 L 198.8 407 L 201.2 407.2 L 203.7 407 L 205.9 406.5 L 207.8 405.7 L 209.4 404.5 L 210.6 403.1 L 211.5 401.4 L 212.1 399.5 L 212.3 397.5 L 212.2 397.2 L 209.4 397.5 L 209.3 398.6 L 209 399.7 L 208.4 400.6 L 207.7 401.5 L 206.9 402.3 L 205.8 402.8 L 204.7 403.2 L 203.4 403.4 L 203.4 403.4 L 203.4 391.8 L 204.6 391.9 L 205.7 392.2 L 206.6 392.6 L 207.3 393.1 L 208.2 394 L 208.8 395 L 209.2 396.2 L 209.4 397.5 L 212.2 397.2 L 212.1 395.5 L 211.6 393.7 L 210.6 392.1 L 209.4 390.7 L 207.9 389.5 L 206 388.7 L 203.9 388.2 L 201.4 388.1 L 201.3 388.1 L 201 388.1 L 200.8 388.1 L 200.5 388.1 L 200.5 403.6 L 198.9 403.4 L 197.5 403 L 196.3 402.4 L 195.3 401.6 L 194.5 400.7 L 193.9 399.7 L 193.6 398.5 L 193.5 397.3 L 193.5 396.4 L 193.7 395.5 L 194 394.7 L 194.5 394 L 195.1 393.3 L 195.8 392.8 L 196.7 392.3 L 197.7 391.8 L 197.7 391.8 Z"/><path d="M 191 383.8 L 219.7 383.8 L 219.7 380.3 L 191 380.3 L 191 383.8 L 191 383.8 Z"/><path d="M 191 374.9 L 219.7 374.9 L 219.7 371.4 L 191 371.4 L 191 374.9 L 191 374.9 Z"/><path d="M 201.4 367.3 L 204.1 367.1 L 206.4 366.5 L 208.4 365.5 L 209.9 364.1 L 211 362.7 L 211.7 361.1 L 212.1 359.4 L 212.3 357.6 L 212.1 355.5 L 211.6 353.7 L 210.7 352 L 209.5 350.6 L 207.9 349.4 L 206.1 348.6 L 204 348.1 L 201.7 347.9 L 199.8 347.9 L 198.1 348.2 L 196.7 348.6 L 195.4 349.1 L 194.3 349.7 L 193.4 350.5 L 192.5 351.5 L 191.8 352.6 L 191.3 353.8 L 190.9 355 L 190.6 356.2 L 190.6 357.6 L 190.6 357.8 L 193.5 357.6 L 193.6 356.3 L 194 355.2 L 194.6 354.2 L 195.5 353.2 L 196.6 352.5 L 198 351.9 L 199.6 351.6 L 201.5 351.5 L 203.3 351.6 L 204.9 351.9 L 206.2 352.5 L 207.3 353.2 L 208.2 354.2 L 208.8 355.2 L 209.2 356.3 L 209.4 357.6 L 209.2 358.8 L 208.8 360 L 208.2 361 L 207.4 361.9 L 206.2 362.7 L 204.9 363.2 L 203.3 363.6 L 201.4 363.7 L 201.4 363.7 L 199.5 363.6 L 197.9 363.2 L 196.6 362.7 L 195.5 361.9 L 194.6 361 L 194 360 L 193.6 358.8 L 193.5 357.6 L 190.6 357.8 L 190.8 359.7 L 191.3 361.5 L 192.1 363.2 L 193.4 364.6 L 194.9 365.8 L 196.8 366.6 L 199 367.1 L 201.4 367.3 L 201.4 367.3 Z"/><path d="M 191 339.9 L 211.8 346.3 L 211.8 342.6 L 199.8 339.4 L 195.4 338.1 L 195.8 338 L 196.6 337.8 L 197.9 337.5 L 199.6 337 L 211.8 333.7 L 211.8 330.1 L 199.7 327 L 195.8 326 L 199.8 324.8 L 211.8 321.2 L 211.8 317.8 L 191 324.3 L 191 327.9 L 203.5 331.2 L 207 332.1 L 191 336.2 L 191 339.9 L 191 339.9 Z"/><path d="M 496 427.9 L 524.7 427.9 L 524.7 417.2 L 524.6 415.6 L 524.5 414.2 L 524.2 413 L 523.8 411.9 L 523.3 411 L 522.7 410.2 L 522 409.5 L 521.1 408.8 L 520.2 408.4 L 519.3 408 L 518.3 407.8 L 517.3 407.7 L 516.4 407.8 L 515.6 408 L 514.7 408.3 L 513.9 408.7 L 513.1 409.3 L 512.4 410 L 511.8 410.8 L 511.3 411.7 L 508.6 412.8 L 508.8 413.4 L 509 414.2 L 509.2 415.1 L 509.2 416.2 L 509.3 417.5 L 509.3 424.2 L 499.4 424.2 L 499.4 424.2 L 499.4 417 L 499.4 416.2 L 499.5 415.5 L 499.5 414.9 L 499.5 414.5 L 499.7 413.8 L 499.9 413.2 L 500.1 412.7 L 500.3 412.3 L 500.6 411.8 L 501 411.5 L 501.4 411.1 L 501.9 410.8 L 502.5 410.6 L 503.1 410.4 L 503.7 410.3 L 504.4 410.3 L 505.1 410.3 L 505.8 410.5 L 506.5 410.7 L 507.1 411.1 L 507.7 411.5 L 508.1 412.1 L 508.5 412.7 L 508.6 412.8 L 511.3 411.7 L 513.6 413.1 L 514 412.6 L 514.4 412.2 L 514.9 411.9 L 515.5 411.6 L 516.2 411.5 L 516.9 411.4 L 517.6 411.5 L 518.2 411.6 L 518.8 411.8 L 519.4 412.1 L 519.9 412.5 L 520.3 413 L 520.6 413.5 L 520.9 414.1 L 521.1 414.8 L 521.2 415.8 L 521.3 417 L 521.3 418.4 L 521.3 424.2 L 512.7 424.2 L 512.7 424.2 L 512.7 418 L 512.7 416.8 L 512.7 415.8 L 512.8 415 L 513 414.4 L 513.2 413.7 L 513.6 413.1 L 511.3 411.7 L 510.8 410.5 L 510.3 409.4 L 509.5 408.5 L 508.7 407.7 L 507.7 407.1 L 506.7 406.7 L 505.6 406.4 L 504.4 406.3 L 503.4 406.4 L 502.4 406.6 L 501.5 406.8 L 500.6 407.2 L 499.8 407.6 L 499.1 408.1 L 498.4 408.7 L 497.9 409.3 L 497.5 409.9 L 497.1 410.7 L 496.8 411.5 L 496.5 412.4 L 496.3 413.4 L 496.2 414.5 L 496.1 415.7 L 496 417 L 496 427.9 L 496 427.9 Z"/><path d="M 496 401.6 L 516.8 401.6 L 516.8 398.4 L 513.6 398.4 L 514.7 397.9 L 515.5 397.3 L 516.1 396.7 L 516.6 396.2 L 516.9 395.7 L 517.1 395.1 L 517.2 394.5 L 517.3 394 L 517.2 393.1 L 517 392.1 L 516.6 391.2 L 516.1 390.3 L 512.9 391.6 L 513.2 392.2 L 513.4 392.8 L 513.6 393.5 L 513.6 394.1 L 513.6 394.7 L 513.4 395.2 L 513.2 395.7 L 512.9 396.2 L 512.5 396.6 L 512.1 397 L 511.6 397.3 L 511 397.5 L 510.1 397.8 L 509 397.9 L 508 398.1 L 506.9 398.1 L 496 398.1 L 496 401.6 L 496 401.6 Z"/><path d="M 506.4 389.5 L 509.1 389.4 L 511.4 388.8 L 513.4 387.7 L 514.9 386.4 L 516 384.9 L 516.7 383.4 L 517.1 381.7 L 517.3 379.8 L 517.1 377.8 L 516.6 375.9 L 515.7 374.3 L 514.5 372.8 L 512.9 371.6 L 511.1 370.8 L 509 370.3 L 506.7 370.1 L 504.8 370.2 L 503.1 370.4 L 501.7 370.8 L 500.4 371.3 L 499.3 372 L 498.4 372.8 L 497.5 373.7 L 496.8 374.8 L 496.3 376 L 495.9 377.2 L 495.6 378.5 L 495.6 379.8 L 495.6 380.1 L 498.5 379.8 L 498.6 378.6 L 499 377.4 L 499.6 376.4 L 500.5 375.5 L 501.6 374.7 L 503 374.2 L 504.6 373.8 L 506.5 373.7 L 508.3 373.8 L 509.9 374.2 L 511.2 374.7 L 512.3 375.5 L 513.2 376.4 L 513.8 377.4 L 514.2 378.6 L 514.4 379.8 L 514.2 381.1 L 513.8 382.2 L 513.2 383.3 L 512.4 384.2 L 511.2 384.9 L 509.9 385.5 L 508.3 385.8 L 506.4 385.9 L 506.4 385.9 L 504.5 385.8 L 502.9 385.5 L 501.6 384.9 L 500.5 384.2 L 499.6 383.3 L 499 382.2 L 498.6 381.1 L 498.5 379.8 L 495.6 380.1 L 495.8 381.9 L 496.3 383.8 L 497.1 385.4 L 498.4 386.9 L 499.9 388.1 L 501.8 388.9 L 504 389.4 L 506.4 389.5 L 506.4 389.5 Z"/><path d="M 496 362.2 L 516.8 368.5 L 516.8 364.9 L 504.8 361.6 L 500.4 360.3 L 500.8 360.3 L 501.6 360.1 L 502.9 359.7 L 504.6 359.3 L 516.8 356 L 516.8 352.4 L 504.7 349.3 L 500.8 348.2 L 504.8 347 L 516.8 343.5 L 516.8 340.1 L 496 346.6 L 496 350.2 L 508.5 353.5 L 512 354.3 L 496 358.5 L 496 362.2 L 496 362.2 Z"/><path d="M 496 337.1 L 516.8 337.1 L 516.8 334 L 513.8 334 L 515.3 332.7 L 516.4 331.2 L 517 329.4 L 517.3 327.3 L 517.2 326.4 L 517.1 325.5 L 516.9 324.7 L 516.6 323.9 L 516.2 323.2 L 515.8 322.5 L 515.3 322 L 514.8 321.6 L 514.2 321.2 L 513.6 320.9 L 512.9 320.6 L 512.2 320.5 L 511.6 320.4 L 510.9 320.3 L 509.9 320.3 L 508.8 320.3 L 496 320.3 L 496 323.8 L 508.6 323.8 L 509.7 323.8 L 510.5 323.9 L 511.3 324 L 511.9 324.2 L 512.4 324.4 L 512.8 324.7 L 513.2 325.1 L 513.6 325.6 L 513.8 326.2 L 514 326.8 L 514.2 327.4 L 514.2 328.1 L 514.1 329.2 L 513.8 330.2 L 513.4 331.1 L 512.8 331.9 L 511.9 332.7 L 510.7 333.2 L 509.2 333.5 L 507.4 333.6 L 496 333.6 L 496 337.1 L 496 337.1 Z"/><path d="M 310 449 L 313.4 448.8 L 316.4 448 L 319 446.8 L 321.2 445.2 L 322.9 443.1 L 324.2 440.8 L 324.9 438.2 L 325.2 435.3 L 325.1 433.3 L 324.7 431.5 L 324.1 429.8 L 323.3 428.1 L 322.3 426.6 L 321 425.3 L 319.6 424.2 L 318 423.3 L 316.2 422.5 L 314.4 422 L 312.4 421.7 L 310.3 421.6 L 308.2 421.7 L 306.2 422 L 304.3 422.6 L 302.5 423.4 L 300.9 424.4 L 299.5 425.5 L 298.3 426.8 L 297.3 428.3 L 296.6 430 L 296 431.7 L 295.8 432.7 L 299 433.3 L 299.5 431.4 L 300.5 429.7 L 301.8 428.3 L 303.5 427.1 L 305.5 426.2 L 307.7 425.7 L 310.3 425.5 L 312 425.6 L 313.6 425.8 L 315.1 426.2 L 316.4 426.7 L 317.7 427.3 L 318.8 428.1 L 319.7 429.1 L 320.5 430.1 L 321.1 431.3 L 321.6 432.6 L 321.8 433.9 L 321.9 435.3 L 321.8 437.2 L 321.2 439 L 320.4 440.6 L 319.2 442.2 L 317.5 443.4 L 315.5 444.4 L 312.9 444.9 L 309.9 445.1 L 309.9 445.1 L 307.5 444.9 L 305.3 444.4 L 303.4 443.5 L 301.8 442.3 L 300.5 440.8 L 299.5 439.2 L 299 437.3 L 298.8 435.3 L 299 433.3 L 295.8 432.7 L 295.6 433.4 L 295.6 435.3 L 295.7 437.3 L 296 439.1 L 296.7 440.9 L 297.5 442.5 L 298.6 444 L 299.8 445.3 L 301.2 446.4 L 302.9 447.3 L 304.5 448.1 L 306.3 448.6 L 308.1 448.9 L 310 449 L 310 449 Z"/><path d="M 296 417.2 L 316.8 417.2 L 316.8 414 L 313.6 414 L 314.7 413.4 L 315.5 412.9 L 316.1 412.3 L 316.6 411.8 L 316.9 411.3 L 317.1 410.7 L 317.2 410.1 L 317.3 409.5 L 317.2 408.6 L 317 407.8 L 316.6 406.9 L 316.1 405.9 L 312.9 407.1 L 313.2 407.8 L 313.4 408.4 L 313.6 409.1 L 313.6 409.7 L 313.6 410.3 L 313.4 410.8 L 313.2 411.3 L 312.9 411.8 L 312.5 412.2 L 312.1 412.6 L 311.6 412.9 L 311 413.1 L 310.1 413.4 L 309 413.6 L 308 413.6 L 306.9 413.7 L 296 413.7 L 296 417.2 L 296 417.2 Z"/><path d="M 298.6 390.3 L 297.8 391.3 L 297.7 391.4 L 299.7 392.8 L 300.3 392.1 L 300.9 391.6 L 301.6 391.2 L 302.3 390.9 L 303.1 390.8 L 304.1 390.6 L 305.2 390.6 L 306.4 390.6 L 306.4 390.6 L 306.1 391.7 L 305.7 393 L 305.4 394.5 L 305.1 396.4 L 305 397.3 L 304.8 398.2 L 304.6 398.9 L 304.4 399.4 L 304.2 399.8 L 304 400.2 L 303.6 400.5 L 303.3 400.8 L 302.9 401 L 302.5 401.2 L 302.1 401.2 L 301.6 401.3 L 300.9 401.2 L 300.3 401 L 299.8 400.7 L 299.3 400.2 L 298.8 399.6 L 298.6 398.9 L 298.4 398.1 L 298.3 397.1 L 298.4 396.1 L 298.6 395.2 L 298.8 394.3 L 299.2 393.5 L 299.7 392.8 L 297.7 391.4 L 297.2 392.2 L 296.7 393.2 L 296.2 394.1 L 296 395 L 295.7 396 L 295.6 396.9 L 295.6 397.9 L 295.7 399.5 L 296 401 L 296.5 402.2 L 297.3 403.2 L 298.1 404 L 299.2 404.6 L 300.3 404.9 L 301.5 405.1 L 302.3 405 L 303 404.9 L 303.6 404.7 L 304.3 404.4 L 304.9 404 L 305.4 403.6 L 305.9 403.1 L 306.3 402.5 L 306.7 401.9 L 307 401.3 L 307.3 400.7 L 307.5 400 L 307.6 399.4 L 307.7 398.7 L 307.9 397.9 L 308 396.9 L 308.2 394.9 L 308.6 393.2 L 308.9 391.8 L 309.2 390.6 L 309.5 390.6 L 309.8 390.6 L 310 390.6 L 310.1 390.6 L 311.1 390.6 L 311.9 390.8 L 312.6 391.2 L 313.2 391.6 L 313.7 392.3 L 314 393.2 L 314.3 394.4 L 314.4 395.6 L 314.3 396.8 L 314.1 397.7 L 313.8 398.6 L 313.5 399.2 L 313 399.8 L 312.3 400.3 L 311.4 400.7 L 310.4 401 L 310.9 404.4 L 311.9 404.2 L 312.9 403.8 L 313.7 403.4 L 314.4 402.9 L 315.1 402.3 L 315.6 401.6 L 316.1 400.7 L 316.5 399.8 L 316.8 398.7 L 317.1 397.6 L 317.2 396.4 L 317.3 395.1 L 317.2 393.8 L 317.1 392.7 L 316.9 391.7 L 316.6 390.8 L 316.3 390 L 315.9 389.3 L 315.5 388.8 L 315.1 388.3 L 314.5 388 L 314 387.7 L 313.4 387.4 L 312.7 387.2 L 312.1 387.1 L 311.4 387.1 L 310.5 387.1 L 309.4 387.1 L 304.7 387.1 L 302.5 387 L 300.7 387 L 299.4 386.9 L 298.5 386.8 L 297.9 386.7 L 297.3 386.5 L 296.6 386.2 L 296 385.9 L 296 389.6 L 296.6 389.9 L 297.2 390.1 L 297.9 390.2 L 298.6 390.3 L 298.6 390.3 Z"/><path d="M 296 381.6 L 316.8 381.6 L 316.8 378.4 L 313.8 378.4 L 315.3 377.2 L 316.4 375.6 L 317 373.9 L 317.3 371.8 L 317.2 370.9 L 317.1 370 L 316.9 369.2 L 316.6 368.4 L 316.2 367.7 L 315.8 367 L 315.3 366.5 L 314.8 366 L 314.2 365.7 L 313.6 365.4 L 312.9 365.1 L 312.2 364.9 L 311.6 364.9 L 310.9 364.8 L 309.9 364.7 L 308.8 364.7 L 296 364.7 L 296 368.2 L 308.6 368.2 L 309.7 368.3 L 310.5 368.4 L 311.3 368.5 L 311.9 368.7 L 312.4 368.9 L 312.8 369.2 L 313.2 369.6 L 313.6 370.1 L 313.8 370.7 L 314 371.3 L 314.2 371.9 L 314.2 372.6 L 314.1 373.7 L 313.8 374.7 L 313.4 375.6 L 312.8 376.4 L 311.9 377.2 L 310.7 377.7 L 309.2 378 L 307.4 378.1 L 296 378.1 L 296 381.6 L 296 381.6 Z"/><path d="M 294.3 360 L 293.8 356.6 L 293.1 356.4 L 292.5 356.2 L 291.9 355.8 L 291.5 355.4 L 291.1 354.7 L 290.8 353.8 L 290.6 352.9 L 290.5 351.8 L 290.6 350.6 L 290.8 349.7 L 291.1 348.8 L 291.5 348.1 L 292.1 347.4 L 292.7 346.9 L 293.4 346.6 L 294.2 346.2 L 294.9 346.1 L 295.9 346 L 297.2 346 L 298.8 346 L 300.5 347.7 L 300.8 347.3 L 301.9 346.6 L 303.2 346.1 L 304.8 345.8 L 306.7 345.7 L 308.4 345.8 L 310 346.1 L 311.3 346.7 L 312.4 347.4 L 313.2 348.3 L 313.9 349.3 L 314.2 350.3 L 314.4 351.5 L 314.2 352.6 L 313.9 353.6 L 313.3 354.6 L 312.4 355.5 L 311.4 356.2 L 310.1 356.7 L 308.6 357 L 306.8 357.1 L 306.8 357.1 L 304.9 357 L 303.2 356.7 L 301.9 356.2 L 300.8 355.5 L 300 354.6 L 299.4 353.6 L 299.1 352.6 L 299 351.4 L 299.1 350.3 L 299.4 349.2 L 300 348.2 L 300.5 347.7 L 298.8 346 L 297.6 347.2 L 296.7 348.6 L 296.2 350.1 L 296 351.8 L 296.2 353.8 L 296.8 355.5 L 297.8 357.1 L 299.1 358.4 L 300.8 359.4 L 302.5 360.1 L 304.5 360.6 L 306.5 360.7 L 308 360.6 L 309.4 360.5 L 310.7 360.1 L 312 359.6 L 313.2 359 L 314.2 358.3 L 315.1 357.5 L 315.9 356.5 L 316.5 355.5 L 316.9 354.3 L 317.2 353.1 L 317.3 351.7 L 317.1 350 L 316.5 348.4 L 315.6 346.9 L 314.3 345.6 L 316.8 345.6 L 316.8 342.4 L 298.8 342.4 L 296.6 342.5 L 294.7 342.7 L 293.2 343 L 292 343.4 L 291 344 L 290.2 344.7 L 289.4 345.5 L 288.8 346.5 L 288.3 347.7 L 287.9 348.9 L 287.7 350.3 L 287.6 351.8 L 287.7 353.6 L 288.1 355.1 L 288.6 356.6 L 289.3 357.8 L 290.2 358.8 L 291.4 359.5 L 292.7 359.9 L 294.3 360 L 294.3 360 Z"/><path d="M 302.7 322.9 L 302.3 319.3 L 300.8 319.8 L 299.4 320.5 L 298.3 321.4 L 297.3 322.5 L 296.6 323.7 L 296 325.1 L 295.7 326.7 L 295.6 328.4 L 295.8 330.6 L 296.3 332.5 L 297.1 334.2 L 298.4 335.6 L 299.9 336.8 L 301.8 337.6 L 303.8 338.1 L 306.2 338.3 L 308.7 338.1 L 310.9 337.6 L 312.8 336.8 L 314.4 335.6 L 315.6 334.2 L 316.5 332.5 L 317.1 330.6 L 317.3 328.6 L 317.2 328.3 L 314.4 328.6 L 314.3 329.7 L 314 330.8 L 313.4 331.8 L 312.7 332.6 L 311.9 333.4 L 310.8 333.9 L 309.7 334.3 L 308.4 334.5 L 308.4 334.5 L 308.4 322.9 L 309.6 323.1 L 310.7 323.3 L 311.6 323.7 L 312.3 324.2 L 313.2 325.1 L 313.8 326.1 L 314.2 327.3 L 314.4 328.6 L 317.2 328.3 L 317.1 326.6 L 316.6 324.8 L 315.6 323.2 L 314.4 321.8 L 312.9 320.6 L 311 319.8 L 308.9 319.3 L 306.4 319.2 L 306.3 319.2 L 306 319.2 L 305.8 319.2 L 305.5 319.2 L 305.5 334.7 L 303.9 334.5 L 302.5 334.1 L 301.3 333.5 L 300.3 332.7 L 299.5 331.8 L 298.9 330.8 L 298.6 329.6 L 298.5 328.4 L 298.5 327.5 L 298.7 326.6 L 299 325.8 L 299.5 325.1 L 300.1 324.4 L 300.8 323.8 L 301.7 323.3 L 302.7 322.9 L 302.7 322.9 Z"/></g></g><use class="pcb_board-cf" mask="url(#pcb_top-cu_finish-mask)" xlink:href="#pcb_top-sm"/></g></g></svg>