<?xml version="1.0" encoding="utf-8" ?>
<svg baseProfile="tiny" height="165.54330337" version="1.2" width="284.640947689" xmlns="http://www.w3.org/2000/svg" xmlns:ev="http://www.w3.org/2001/xml-events" xmlns:xlink="http://www.w3.org/1999/xlink"><defs /><g id="paths" stroke="blue"><path d="M 4.893306967,125.04330403 L 4.893306967,80.04330513 L 13.893306747,53.04330579 L 184.893302567,53.04330579 L 193.893302347,80.04330513 L 193.893302347,125.04330403 L 166.893303007,125.04330403 L 166.893303007,80.04330513 L 31.893306307,80.04330513 L 31.893306307,125.04330403 L 4.893306967,125.04330403 Z" fill-opacity="0" stroke-linejoin="round" stroke-width="1.0" /></g><g fill="red" id="holes"><circle cx="90.535" cy="66.5433" r="2.4803" stroke-width="0.0" /><circle cx="108.2516" cy="66.5433" r="2.4803" stroke-width="0.0" /><circle cx="13.8933" cy="107.0433" r="1.8" stroke-width="0.0" /><circle cx="13.8933" cy="116.0433" r="1.8" stroke-width="0.0" /><circle cx="22.8933" cy="107.0433" r="1.8" stroke-width="0.0" /><circle cx="22.8933" cy="116.0433" r="1.8" stroke-width="0.0" /><circle cx="175.8933" cy="107.0433" r="1.8" stroke-width="0.0" /><circle cx="175.8933" cy="116.0433" r="1.8" stroke-width="0.0" /><circle cx="184.8933" cy="107.0433" r="1.8" stroke-width="0.0" /><circle cx="184.8933" cy="116.0433" r="1.8" stroke-width="0.0" /></g><g id="rulers" stroke="black"><line stroke-width="1.0" x1="13.8933" x2="184.8933" y1="152.0433" y2="152.0433" /><text font-family="monospace" font-size="5" stroke-width="0.3" x="99.393304657" y="157.04330337">48.2600mm</text><text font-family="monospace" font-size="5" stroke-width="0.3" x="99.393304657" y="163.04330337">(Δx=48.2600mm)</text><line stroke-width="1.0" x1="22.8933" x2="175.8933" y1="134.0433" y2="134.0433" /><text font-family="monospace" font-size="5" stroke-width="0.3" x="99.393304657" y="139.04330381">43.1800mm</text><text font-family="monospace" font-size="5" stroke-width="0.3" x="99.393304657" y="145.04330381">(Δx=43.1800mm)</text><line stroke-width="1.0" x1="90.535" x2="22.8933" y1="3.5433" y2="44.0433" /><text font-family="monospace" font-size="5" stroke-width="0.3" x="59.282682257" y="28.0831485938">22.2502mm</text><text font-family="monospace" font-size="5" stroke-width="0.3" x="59.282682257" y="34.0831485938">(Δx=19.0900mm, Δy=11.4300mm)</text><line stroke-width="1.0" x1="108.2516" x2="175.8933" y1="3.5433" y2="44.0433" /><text font-family="monospace" font-size="5" stroke-width="0.3" x="144.640947689" y="19.5034642976">22.2502mm</text><text font-family="monospace" font-size="5" stroke-width="0.3" x="144.640947689" y="25.5034642976">(Δx=19.0900mm, Δy=11.4300mm)</text></g></svg>