<?xml version='1.0' encoding='UTF-8' standalone='no'?>
<svg xmlns="http://www.w3.org/2000/svg" width="282.5" height="160" x="0" y="0"><text x="250.5" y="140" font-size="10" font-family="sans-serif" text-anchor="start" alignment-baseline="hanging">GND</text><text x="50.5" y="10" font-size="10" font-family="sans-serif" text-anchor="start" alignment-baseline="hanging">VCC</text><text x="30.5" y="48" font-size="10" font-family="sans-serif" text-anchor="end" alignment-baseline="hanging">J1</text><text x="250.5" y="10" font-size="10" font-family="sans-serif" text-anchor="start" alignment-baseline="hanging">VCC</text><text x="110.5" y="40" font-size="10" font-family="sans-serif" text-anchor="start" alignment-baseline="hanging">J2</text><text x="210.5" y="40" font-size="10" font-family="sans-serif" text-anchor="start" alignment-baseline="hanging">J3</text><text x="50.5" y="140" font-size="10" font-family="sans-serif" text-anchor="start" alignment-baseline="hanging">GND</text><text x="150.5" y="10" font-size="10" font-family="sans-serif" text-anchor="start" alignment-baseline="hanging">VCC</text><text x="150.5" y="140" font-size="10" font-family="sans-serif" text-anchor="start" alignment-baseline="hanging">GND</text><line x1="160.5" y1="40" x2="160.5" y2="20" stroke-width="2" stroke="black"></line><line x1="160.5" y1="20" x2="153.5" y2="27" stroke-width="2" stroke="black"></line><line x1="160.5" y1="20" x2="167.5" y2="27" stroke-width="2" stroke="black"></line><line x1="260.5" y1="40" x2="260.5" y2="20" stroke-width="2" stroke="black"></line><line x1="260.5" y1="20" x2="253.5" y2="27" stroke-width="2" stroke="black"></line><line x1="260.5" y1="20" x2="267.5" y2="27" stroke-width="2" stroke="black"></line><line x1="60.5" y1="40" x2="60.5" y2="20" stroke-width="2" stroke="black"></line><line x1="60.5" y1="20" x2="53.5" y2="27" stroke-width="2" stroke="black"></line><line x1="60.5" y1="20" x2="67.5" y2="27" stroke-width="2" stroke="black"></line><rect width="20" height="50" x="210.5" y="50" style="stroke: #000; stroke-width: 1; fill: none;"></rect><line x1="240.5" y1="60" x2="230.5" y2="60" stroke-width="2" stroke="black"></line><text x="228.5" y="60" font-size="10" font-family="sans-serif" text-anchor="end" alignment-baseline="middle">1</text><line x1="240.5" y1="70" x2="230.5" y2="70" stroke-width="2" stroke="black"></line><text x="228.5" y="70" font-size="10" font-family="sans-serif" text-anchor="end" alignment-baseline="middle">2</text><line x1="240.5" y1="80" x2="230.5" y2="80" stroke-width="2" stroke="black"></line><text x="228.5" y="80" font-size="10" font-family="sans-serif" text-anchor="end" alignment-baseline="middle">3</text><line x1="240.5" y1="90" x2="230.5" y2="90" stroke-width="2" stroke="black"></line><text x="228.5" y="90" font-size="10" font-family="sans-serif" text-anchor="end" alignment-baseline="middle">4</text><line x1="260.5" y1="110" x2="260.5" y2="120" stroke-width="2" stroke="black"></line><line x1="250.5" y1="120" x2="270.5" y2="120" stroke-width="2" stroke="black"></line><line x1="253.5" y1="125" x2="267.5" y2="125" stroke-width="2" stroke="black"></line><line x1="256.5" y1="130" x2="264.5" y2="130" stroke-width="2" stroke="black"></line><line x1="60.5" y1="110" x2="60.5" y2="120" stroke-width="2" stroke="black"></line><line x1="50.5" y1="120" x2="70.5" y2="120" stroke-width="2" stroke="black"></line><line x1="53.5" y1="125" x2="67.5" y2="125" stroke-width="2" stroke="black"></line><line x1="56.5" y1="130" x2="64.5" y2="130" stroke-width="2" stroke="black"></line><rect width="20" height="50" x="110.5" y="50" style="stroke: #000; stroke-width: 1; fill: none;"></rect><line x1="140.5" y1="60" x2="130.5" y2="60" stroke-width="2" stroke="black"></line><text x="128.5" y="60" font-size="10" font-family="sans-serif" text-anchor="end" alignment-baseline="middle">1</text><line x1="140.5" y1="70" x2="130.5" y2="70" stroke-width="2" stroke="black"></line><text x="128.5" y="70" font-size="10" font-family="sans-serif" text-anchor="end" alignment-baseline="middle">2</text><line x1="140.5" y1="80" x2="130.5" y2="80" stroke-width="2" stroke="black"></line><text x="128.5" y="80" font-size="10" font-family="sans-serif" text-anchor="end" alignment-baseline="middle">3</text><line x1="140.5" y1="90" x2="130.5" y2="90" stroke-width="2" stroke="black"></line><text x="128.5" y="90" font-size="10" font-family="sans-serif" text-anchor="end" alignment-baseline="middle">4</text><rect width="20" height="30" x="10.5" y="60" style="stroke: #000; stroke-width: 1; fill: none;"></rect><line x1="40.5" y1="70" x2="30.5" y2="70" stroke-width="2" stroke="black"></line><text x="28.5" y="70" font-size="10" font-family="sans-serif" text-anchor="end" alignment-baseline="middle">1</text><line x1="40.5" y1="80" x2="30.5" y2="80" stroke-width="2" stroke="black"></line><text x="28.5" y="80" font-size="10" font-family="sans-serif" text-anchor="end" alignment-baseline="middle">2</text><line x1="160.5" y1="110" x2="160.5" y2="120" stroke-width="2" stroke="black"></line><line x1="150.5" y1="120" x2="170.5" y2="120" stroke-width="2" stroke="black"></line><line x1="153.5" y1="125" x2="167.5" y2="125" stroke-width="2" stroke="black"></line><line x1="156.5" y1="130" x2="164.5" y2="130" stroke-width="2" stroke="black"></line><circle cx="260.5" cy="60" r="2" style="stroke: #000; stroke-width: 1; fill: none;"></circle><circle cx="160.5" cy="90" r="2" style="stroke: #000; stroke-width: 1; fill: none;"></circle><circle cx="160.5" cy="60" r="2" style="stroke: #000; stroke-width: 1; fill: none;"></circle><circle cx="260.5" cy="90" r="2" style="stroke: #000; stroke-width: 1; fill: none;"></circle><line x1="140.5" y1="90" x2="160.5" y2="90" stroke-width="2" stroke="black"></line><line x1="260.5" y1="70" x2="260.5" y2="60" stroke-width="2" stroke="black"></line><line x1="160.5" y1="60" x2="140.5" y2="60" stroke-width="2" stroke="black"></line><line x1="160.5" y1="60" x2="160.5" y2="40" stroke-width="2" stroke="black"></line><line x1="260.5" y1="80" x2="240.5" y2="80" stroke-width="2" stroke="black"></line><line x1="40.5" y1="70" x2="60.5" y2="70" stroke-width="2" stroke="black"></line><line x1="60.5" y1="40" x2="60.5" y2="70" stroke-width="2" stroke="black"></line><line x1="240.5" y1="70" x2="260.5" y2="70" stroke-width="2" stroke="black"></line><line x1="60.5" y1="110" x2="60.5" y2="80" stroke-width="2" stroke="black"></line><line x1="160.5" y1="70" x2="160.5" y2="60" stroke-width="2" stroke="black"></line><line x1="160.5" y1="70" x2="140.5" y2="70" stroke-width="2" stroke="black"></line><line x1="40.5" y1="80" x2="60.5" y2="80" stroke-width="2" stroke="black"></line><line x1="260.5" y1="90" x2="240.5" y2="90" stroke-width="2" stroke="black"></line><line x1="260.5" y1="90" x2="260.5" y2="110" stroke-width="2" stroke="black"></line><line x1="260.5" y1="90" x2="260.5" y2="80" stroke-width="2" stroke="black"></line><line x1="160.5" y1="110" x2="160.5" y2="90" stroke-width="2" stroke="black"></line><line x1="160.5" y1="80" x2="140.5" y2="80" stroke-width="2" stroke="black"></line><line x1="160.5" y1="80" x2="160.5" y2="90" stroke-width="2" stroke="black"></line><line x1="260.5" y1="40" x2="260.5" y2="60" stroke-width="2" stroke="black"></line><line x1="240.5" y1="60" x2="260.5" y2="60" stroke-width="2" stroke="black"></line></svg>