<?xml version='1.0' encoding='UTF-8' standalone='no'?>
<svg xmlns="http://www.w3.org/2000/svg" width="661" height="230" x="0" y="0"><text x="575" y="20" font-size="10" font-family="sans-serif" text-anchor="start" alignment-baseline="hanging">J2</text><text x="501" y="60" font-size="10" font-family="sans-serif" text-anchor="end" alignment-baseline="middle">RXD</text><text x="96" y="80" font-size="10" font-family="sans-serif" text-anchor="start" alignment-baseline="hanging">J1</text><text x="96" y="170" font-size="10" font-family="sans-serif" text-anchor="start" alignment-baseline="hanging">Pine64 EXP header</text><text x="321" y="130" font-size="10" font-family="sans-serif" text-anchor="start" alignment-baseline="middle">TXD</text><text x="46" y="210" font-size="10" font-family="sans-serif" text-anchor="start" alignment-baseline="hanging">GND</text><text x="526" y="200" font-size="10" font-family="sans-serif" text-anchor="start" alignment-baseline="hanging">GND</text><text x="31" y="130" font-size="10" font-family="sans-serif" text-anchor="end" alignment-baseline="middle">RXD</text><text x="501" y="80" font-size="10" font-family="sans-serif" text-anchor="end" alignment-baseline="middle">TXD</text><text x="346" y="200" font-size="10" font-family="sans-serif" text-anchor="start" alignment-baseline="hanging">GND</text><text x="580" y="174" font-size="10" font-family="sans-serif" text-anchor="start" alignment-baseline="hanging">FTDI Header</text><rect width="80" height="130" x="491" y="155" transform="rotate(180 571,155)" style="stroke: #000; stroke-width: 1; fill: none;"></rect><line x1="566" y1="140" x2="571" y2="140" stroke-width="2" stroke="black"></line><text x="576" y="140" font-size="10" font-family="sans-serif" text-anchor="start" alignment-baseline="middle">GND/BLACK</text><line x1="566" y1="120" x2="571" y2="120" stroke-width="2" stroke="black"></line><text x="576" y="120" font-size="10" font-family="sans-serif" text-anchor="start" alignment-baseline="middle">CTS/BROWN</text><line x1="566" y1="100" x2="571" y2="100" stroke-width="2" stroke="black"></line><text x="576" y="100" font-size="10" font-family="sans-serif" text-anchor="start" alignment-baseline="middle">VCC/RED</text><line x1="566" y1="80" x2="571" y2="80" stroke-width="2" stroke="black"></line><text x="576" y="80" font-size="10" font-family="sans-serif" text-anchor="start" alignment-baseline="middle">TxD/ORANGE</text><line x1="566" y1="60" x2="571" y2="60" stroke-width="2" stroke="black"></line><text x="576" y="60" font-size="10" font-family="sans-serif" text-anchor="start" alignment-baseline="middle">RxD/YELLOW</text><line x1="566" y1="40" x2="571" y2="40" stroke-width="2" stroke="black"></line><text x="576" y="40" font-size="10" font-family="sans-serif" text-anchor="start" alignment-baseline="middle">RTS/GREEN</text><line x1="63" y1="97" x2="69" y2="103" stroke-width="2" stroke="black"></line><line x1="63" y1="103" x2="69" y2="97" stroke-width="2" stroke="black"></line><line x1="533" y1="117" x2="539" y2="123" stroke-width="2" stroke="black"></line><line x1="533" y1="123" x2="539" y2="117" stroke-width="2" stroke="black"></line><line x1="283" y1="137" x2="289" y2="143" stroke-width="2" stroke="black"></line><line x1="283" y1="143" x2="289" y2="137" stroke-width="2" stroke="black"></line><line x1="536" y1="170" x2="536" y2="180" stroke-width="2" stroke="black"></line><line x1="526" y1="180" x2="546" y2="180" stroke-width="2" stroke="black"></line><line x1="529" y1="185" x2="543" y2="185" stroke-width="2" stroke="black"></line><line x1="532" y1="190" x2="540" y2="190" stroke-width="2" stroke="black"></line><line x1="301" y1="130" x2="296" y2="130" stroke-width="2" stroke="black"></line><line x1="316" y1="130" x2="311" y2="127" stroke-width="2" stroke="black"></line><line x1="316" y1="130" x2="311" y2="133" stroke-width="2" stroke="black"></line><line x1="311" y1="127" x2="301" y2="127" stroke-width="2" stroke="black"></line><line x1="311" y1="133" x2="301" y2="133" stroke-width="2" stroke="black"></line><line x1="301" y1="127" x2="301" y2="133" stroke-width="2" stroke="black"></line><line x1="56" y1="180" x2="56" y2="190" stroke-width="2" stroke="black"></line><line x1="46" y1="190" x2="66" y2="190" stroke-width="2" stroke="black"></line><line x1="49" y1="195" x2="63" y2="195" stroke-width="2" stroke="black"></line><line x1="52" y1="200" x2="60" y2="200" stroke-width="2" stroke="black"></line><line x1="356" y1="170" x2="356" y2="180" stroke-width="2" stroke="black"></line><line x1="346" y1="180" x2="366" y2="180" stroke-width="2" stroke="black"></line><line x1="349" y1="185" x2="363" y2="185" stroke-width="2" stroke="black"></line><line x1="352" y1="190" x2="360" y2="190" stroke-width="2" stroke="black"></line><rect width="160" height="60" x="96" y="90" style="stroke: #000; stroke-width: 1; fill: none;"></rect><line x1="86" y1="100" x2="96" y2="100" stroke-width="2" stroke="black"></line><text x="98" y="100" font-size="10" font-family="sans-serif" text-anchor="start" alignment-baseline="middle">3.3V</text><line x1="86" y1="110" x2="96" y2="110" stroke-width="2" stroke="black"></line><text x="98" y="110" font-size="10" font-family="sans-serif" text-anchor="start" alignment-baseline="middle">Charger LED</text><line x1="86" y1="140" x2="96" y2="140" stroke-width="2" stroke="black"></line><text x="98" y="140" font-size="10" font-family="sans-serif" text-anchor="start" alignment-baseline="middle">GND</text><line x1="86" y1="120" x2="96" y2="120" stroke-width="2" stroke="black"></line><text x="98" y="120" font-size="10" font-family="sans-serif" text-anchor="start" alignment-baseline="middle">Pwr/Stb Sw</text><line x1="86" y1="130" x2="96" y2="130" stroke-width="2" stroke="black"></line><text x="98" y="130" font-size="10" font-family="sans-serif" text-anchor="start" alignment-baseline="middle">UART0_TX</text><line x1="266" y1="120" x2="256" y2="120" stroke-width="2" stroke="black"></line><text x="254" y="120" font-size="10" font-family="sans-serif" text-anchor="end" alignment-baseline="middle">GND</text><line x1="266" y1="140" x2="256" y2="140" stroke-width="2" stroke="black"></line><text x="254" y="140" font-size="10" font-family="sans-serif" text-anchor="end" alignment-baseline="middle">KeyADC</text><line x1="266" y1="110" x2="256" y2="110" stroke-width="2" stroke="black"></line><text x="254" y="110" font-size="10" font-family="sans-serif" text-anchor="end" alignment-baseline="middle">Reset Sw</text><line x1="266" y1="100" x2="256" y2="100" stroke-width="2" stroke="black"></line><text x="254" y="100" font-size="10" font-family="sans-serif" text-anchor="end" alignment-baseline="middle">System LED</text><line x1="266" y1="130" x2="256" y2="130" stroke-width="2" stroke="black"></line><text x="254" y="130" font-size="10" font-family="sans-serif" text-anchor="end" alignment-baseline="middle">UART0_RX</text><line x1="283" y1="107" x2="289" y2="113" stroke-width="2" stroke="black"></line><line x1="283" y1="113" x2="289" y2="107" stroke-width="2" stroke="black"></line><line x1="63" y1="117" x2="69" y2="123" stroke-width="2" stroke="black"></line><line x1="63" y1="123" x2="69" y2="117" stroke-width="2" stroke="black"></line><line x1="521" y1="60" x2="526" y2="60" stroke-width="2" stroke="black"></line><line x1="516" y1="57" x2="521" y2="60" stroke-width="2" stroke="black"></line><line x1="516" y1="63" x2="521" y2="60" stroke-width="2" stroke="black"></line><line x1="516" y1="57" x2="506" y2="57" stroke-width="2" stroke="black"></line><line x1="516" y1="63" x2="506" y2="63" stroke-width="2" stroke="black"></line><line x1="506" y1="57" x2="506" y2="63" stroke-width="2" stroke="black"></line><line x1="521" y1="80" x2="526" y2="80" stroke-width="2" stroke="black"></line><line x1="506" y1="80" x2="511" y2="77" stroke-width="2" stroke="black"></line><line x1="506" y1="80" x2="511" y2="83" stroke-width="2" stroke="black"></line><line x1="511" y1="77" x2="521" y2="77" stroke-width="2" stroke="black"></line><line x1="511" y1="83" x2="521" y2="83" stroke-width="2" stroke="black"></line><line x1="521" y1="77" x2="521" y2="83" stroke-width="2" stroke="black"></line><line x1="63" y1="107" x2="69" y2="113" stroke-width="2" stroke="black"></line><line x1="63" y1="113" x2="69" y2="107" stroke-width="2" stroke="black"></line><line x1="533" y1="37" x2="539" y2="43" stroke-width="2" stroke="black"></line><line x1="533" y1="43" x2="539" y2="37" stroke-width="2" stroke="black"></line><line x1="283" y1="97" x2="289" y2="103" stroke-width="2" stroke="black"></line><line x1="283" y1="103" x2="289" y2="97" stroke-width="2" stroke="black"></line><line x1="51" y1="130" x2="56" y2="130" stroke-width="2" stroke="black"></line><line x1="46" y1="127" x2="51" y2="130" stroke-width="2" stroke="black"></line><line x1="46" y1="133" x2="51" y2="130" stroke-width="2" stroke="black"></line><line x1="46" y1="127" x2="36" y2="127" stroke-width="2" stroke="black"></line><line x1="46" y1="133" x2="36" y2="133" stroke-width="2" stroke="black"></line><line x1="36" y1="127" x2="36" y2="133" stroke-width="2" stroke="black"></line><line x1="533" y1="97" x2="539" y2="103" stroke-width="2" stroke="black"></line><line x1="533" y1="103" x2="539" y2="97" stroke-width="2" stroke="black"></line><line x1="526" y1="80" x2="566" y2="80" stroke-width="2" stroke="black"></line><line x1="56" y1="140" x2="86" y2="140" stroke-width="2" stroke="black"></line><line x1="546" y1="120" x2="566" y2="120" stroke-width="2" stroke="black"></line><line x1="296" y1="130" x2="266" y2="130" stroke-width="2" stroke="black"></line><line x1="86" y1="120" x2="66" y2="120" stroke-width="2" stroke="black"></line><line x1="66" y1="100" x2="86" y2="100" stroke-width="2" stroke="black"></line><line x1="266" y1="110" x2="286" y2="110" stroke-width="2" stroke="black"></line><line x1="56" y1="180" x2="56" y2="140" stroke-width="2" stroke="black"></line><line x1="546" y1="40" x2="536" y2="40" stroke-width="2" stroke="black"></line><line x1="546" y1="40" x2="566" y2="40" stroke-width="2" stroke="black"></line><line x1="266" y1="100" x2="286" y2="100" stroke-width="2" stroke="black"></line><line x1="56" y1="130" x2="86" y2="130" stroke-width="2" stroke="black"></line><line x1="536" y1="120" x2="546" y2="120" stroke-width="2" stroke="black"></line><line x1="86" y1="110" x2="66" y2="110" stroke-width="2" stroke="black"></line><line x1="356" y1="170" x2="356" y2="120" stroke-width="2" stroke="black"></line><line x1="566" y1="140" x2="536" y2="140" stroke-width="2" stroke="black"></line><line x1="566" y1="60" x2="526" y2="60" stroke-width="2" stroke="black"></line><line x1="536" y1="170" x2="536" y2="140" stroke-width="2" stroke="black"></line><line x1="266" y1="120" x2="356" y2="120" stroke-width="2" stroke="black"></line><line x1="546" y1="100" x2="536" y2="100" stroke-width="2" stroke="black"></line><line x1="546" y1="100" x2="566" y2="100" stroke-width="2" stroke="black"></line><line x1="266" y1="140" x2="286" y2="140" stroke-width="2" stroke="black"></line></svg>