<?xml-stylesheet href="https://s3.amazonaws.com/maker.works.boards/css/blackpcb.css" type="text/css"?><svg xmlns="http://www.w3.org/2000/svg" version="1.1" xmlns:xlink="http://www.w3.org/1999/xlink" stroke-width="0" stroke-linecap="round" stroke-linejoin="round" width="1.0235999999999998in" height="0.5117999999999999in" id="pcb_bottom" viewBox="7.5 7.5 1023.5999999999999 511.79999999999995"><defs><circle cx="0" cy="0" r="6.5" id="tool-T10-pad-1000"/><circle cx="0" cy="0" r="20.5" id="tool-T11-pad-1001"/><circle cx="0" cy="0" r="20.5" id="tool-T12-pad-1002"/><circle cx="0" cy="0" r="21.5" id="tool-T13-pad-1003"/><circle cx="0" cy="0" r="13.55" id="tool-D12-pad-1006"/><circle cx="0" cy="0" r="31.5" id="tool-D13-pad-1007"/><circle cx="0" cy="0" r="31.5" id="tool-D14-pad-1008"/><circle cx="0" cy="0" r="32.5" id="tool-D15-pad-1009"/><rect x="-32.4805" y="-32.4805" width="64.961" height="64.961" transform="rotate(180)" id="tool-D16-pad-1010"/><circle cx="0" cy="0" r="31.5" id="tool-D10-pad-1012"/><circle cx="0" cy="0" r="31.5" id="tool-D11-pad-1013"/><circle cx="0" cy="0" r="32.5" id="tool-D12-pad-1014"/><rect x="-32.4805" y="-32.4805" width="64.961" height="64.961" transform="rotate(180)" id="tool-D13-pad-1015"/><g id="pcb_bottom-cu" fill="currentColor" stroke="currentColor"><path stroke-width="2" fill="none" d="M 1010.5 498.6 L 1010.5 498.6 M 1010.5 498.6 L 28.2 498.6 M 28.2 498.6 L 28.2 28.2 M 28.2 28.2 L 1010.5 28.2 M 1010.5 28.2 L 1010.5 498.6 M 642.4 392.9 L 642.4 392.9 M 642.4 392.9 L 651.8 395.2 M 651.8 395.2 L 651.9 395.2 M 651.9 395.2 L 660.4 399.7 M 660.4 399.7 L 660.5 399.8 M 660.5 399.8 L 667.7 406.2 M 667.7 406.2 L 667.8 406.2 M 667.8 406.2 L 673.3 414.2 M 673.3 414.2 L 673.3 414.3 M 673.3 414.3 L 676.8 423.3 M 676.8 423.3 L 676.8 423.4 M 676.8 423.4 L 678 433 M 678 433 L 678 433.2 M 678 433.2 L 676.8 442.7 M 676.8 442.7 L 676.8 442.9 M 676.8 442.9 L 673.3 451.9 M 673.3 451.9 L 673.3 452 M 673.3 452 L 667.8 459.9 M 667.8 459.9 L 667.7 460 M 667.7 460 L 660.5 466.4 M 660.5 466.4 L 660.4 466.5 M 660.4 466.5 L 651.9 471 M 651.9 471 L 651.8 471 M 651.8 471 L 642.4 473.3 M 642.4 473.3 L 642.3 473.3 M 642.3 473.3 L 632.6 473.3 M 632.6 473.3 L 632.5 473.3 M 632.5 473.3 L 623.1 471 M 623.1 471 L 623 471 M 623 471 L 614.4 466.5 M 614.4 466.5 L 614.4 466.4 M 614.4 466.4 L 607.1 460 M 607.1 460 L 607 459.9 M 607 459.9 L 601.6 452 M 601.6 452 L 601.5 451.9 M 601.5 451.9 L 598.1 442.9 M 598.1 442.9 L 598.1 442.7 M 598.1 442.7 L 596.9 433.2 M 596.9 433.2 L 596.9 433 M 596.9 433 L 598.1 423.4 M 598.1 423.4 L 598.1 423.3 M 598.1 423.3 L 601.5 414.3 M 601.5 414.3 L 601.6 414.2 M 601.6 414.2 L 607 406.2 M 607 406.2 L 607.1 406.2 M 607.1 406.2 L 614.4 399.8 M 614.4 399.8 L 614.4 399.7 M 614.4 399.7 L 623 395.2 M 623 395.2 L 623.1 395.2 M 623.1 395.2 L 632.5 392.9 M 632.5 392.9 L 632.6 392.9 M 632.6 392.9 L 642.3 392.9 M 642.3 392.9 L 642.4 392.9 M 799.9 392.9 L 799.9 392.9 M 799.9 392.9 L 809.2 395.2 M 809.2 395.2 L 809.4 395.2 M 809.4 395.2 L 817.9 399.7 M 817.9 399.7 L 818 399.8 M 818 399.8 L 825.2 406.2 M 825.2 406.2 L 825.3 406.2 M 825.3 406.2 L 830.8 414.2 M 830.8 414.2 L 830.8 414.3 M 830.8 414.3 L 834.2 423.3 M 834.2 423.3 L 834.3 423.4 M 834.3 423.4 L 835.5 433 M 835.5 433 L 835.5 433.2 M 835.5 433.2 L 834.3 442.7 M 834.3 442.7 L 834.2 442.9 M 834.2 442.9 L 830.8 451.9 M 830.8 451.9 L 830.8 452 M 830.8 452 L 825.3 459.9 M 825.3 459.9 L 825.2 460 M 825.2 460 L 818 466.4 M 818 466.4 L 817.9 466.5 M 817.9 466.5 L 809.4 471 M 809.4 471 L 809.2 471 M 809.2 471 L 799.9 473.3 M 799.9 473.3 L 799.7 473.3 M 799.7 473.3 L 790.1 473.3 M 790.1 473.3 L 789.9 473.3 M 789.9 473.3 L 780.6 471 M 780.6 471 L 780.5 471 M 780.5 471 L 771.9 466.5 M 771.9 466.5 L 771.8 466.4 M 771.8 466.4 L 764.6 460 M 764.6 460 L 764.5 459.9 M 764.5 459.9 L 759 452 M 759 452 L 759 451.9 M 759 451.9 L 755.6 442.9 M 755.6 442.9 L 755.5 442.7 M 755.5 442.7 L 754.4 433.2 M 754.4 433.2 L 754.4 433 M 754.4 433 L 755.5 423.4 M 755.5 423.4 L 755.6 423.3 M 755.6 423.3 L 759 414.3 M 759 414.3 L 759 414.2 M 759 414.2 L 764.5 406.2 M 764.5 406.2 L 764.6 406.2 M 764.6 406.2 L 771.8 399.8 M 771.8 399.8 L 771.9 399.7 M 771.9 399.7 L 780.5 395.2 M 780.5 395.2 L 780.6 395.2 M 780.6 395.2 L 789.9 392.9 M 789.9 392.9 L 790.1 392.9 M 790.1 392.9 L 799.7 392.9 M 799.7 392.9 L 799.9 392.9 M 957.3 392.9 L 957.3 392.9 M 957.3 392.9 L 966.7 395.2 M 966.7 395.2 L 966.8 395.2 M 966.8 395.2 L 975.4 399.7 M 975.4 399.7 L 975.5 399.8 M 975.5 399.8 L 982.7 406.2 M 982.7 406.2 L 982.8 406.2 M 982.8 406.2 L 988.2 414.2 M 988.2 414.2 L 988.3 414.3 M 988.3 414.3 L 991.7 423.3 M 991.7 423.3 L 991.8 423.4 M 991.8 423.4 L 992.9 433 M 992.9 433 L 992.9 433.2 M 992.9 433.2 L 991.8 442.7 M 991.8 442.7 L 991.7 442.9 M 991.7 442.9 L 988.3 451.9 M 988.3 451.9 L 988.2 452 M 988.2 452 L 982.8 459.9 M 982.8 459.9 L 982.7 460 M 982.7 460 L 975.5 466.4 M 975.5 466.4 L 975.4 466.5 M 975.4 466.5 L 966.8 471 M 966.8 471 L 966.7 471 M 966.7 471 L 957.3 473.3 M 957.3 473.3 L 957.2 473.3 M 957.2 473.3 L 947.5 473.3 M 947.5 473.3 L 947.4 473.3 M 947.4 473.3 L 938.1 471 M 938.1 471 L 937.9 471 M 937.9 471 L 929.4 466.5 M 929.4 466.5 L 929.3 466.4 M 929.3 466.4 L 922.1 460 M 922.1 460 L 922 459.9 M 922 459.9 L 916.5 452 M 916.5 452 L 916.5 451.9 M 916.5 451.9 L 913.1 442.9 M 913.1 442.9 L 913 442.7 M 913 442.7 L 911.8 433.2 M 911.8 433.2 L 911.8 433 M 911.8 433 L 913 423.4 M 913 423.4 L 913.1 423.3 M 913.1 423.3 L 916.5 414.3 M 916.5 414.3 L 916.5 414.2 M 916.5 414.2 L 922 406.2 M 922 406.2 L 922.1 406.2 M 922.1 406.2 L 929.3 399.8 M 929.3 399.8 L 929.4 399.7 M 929.4 399.7 L 937.9 395.2 M 937.9 395.2 L 938.1 395.2 M 938.1 395.2 L 947.4 392.9 M 947.4 392.9 L 947.5 392.9 M 947.5 392.9 L 957.2 392.9 M 957.2 392.9 L 957.3 392.9 M 642.4 92.9 L 642.4 92.9 M 642.4 92.9 L 651.8 95.2 M 651.8 95.2 L 651.9 95.2 M 651.9 95.2 L 660.4 99.7 M 660.4 99.7 L 660.5 99.8 M 660.5 99.8 L 667.7 106.2 M 667.7 106.2 L 667.8 106.2 M 667.8 106.2 L 673.3 114.2 M 673.3 114.2 L 673.3 114.3 M 673.3 114.3 L 676.8 123.3 M 676.8 123.3 L 676.8 123.4 M 676.8 123.4 L 678 133 M 678 133 L 678 133.2 M 678 133.2 L 676.8 142.7 M 676.8 142.7 L 676.8 142.9 M 676.8 142.9 L 673.3 151.9 M 673.3 151.9 L 673.3 152 M 673.3 152 L 667.8 159.9 M 667.8 159.9 L 667.7 160 M 667.7 160 L 660.5 166.4 M 660.5 166.4 L 660.4 166.5 M 660.4 166.5 L 651.9 171 M 651.9 171 L 651.8 171 M 651.8 171 L 642.4 173.3 M 642.4 173.3 L 642.3 173.3 M 642.3 173.3 L 632.6 173.3 M 632.6 173.3 L 632.5 173.3 M 632.5 173.3 L 625.8 171.7 M 625.8 171.7 L 565.9 231.5 M 565.9 231.5 L 565.9 394.6 M 565.9 394.6 L 566.8 396 M 566.8 396 L 566.9 396.1 M 566.9 396.1 L 568.8 401 M 568.8 401 L 568.8 401.2 M 568.8 401.2 L 569.5 406.4 M 569.5 406.4 L 569.5 406.6 M 569.5 406.6 L 568.8 411.9 M 568.8 411.9 L 568.8 412 M 568.8 412 L 566.9 416.9 M 566.9 416.9 L 566.8 417.1 M 566.8 417.1 L 563.8 421.4 M 563.8 421.4 L 563.7 421.6 M 563.7 421.6 L 559.7 425.1 M 559.7 425.1 L 559.7 425.1 M 559.7 425.1 L 554.9 427.6 M 554.9 427.6 L 554.8 427.7 M 554.8 427.7 L 549.7 428.9 M 549.7 428.9 L 549.5 429 M 549.5 429 L 544.2 429 M 544.2 429 L 544.1 428.9 M 544.1 428.9 L 538.9 427.7 M 538.9 427.7 L 538.8 427.6 M 538.8 427.6 L 534.1 425.1 M 534.1 425.1 L 534 425.1 M 534 425.1 L 530 421.6 M 530 421.6 L 529.9 421.4 M 529.9 421.4 L 526.9 417.1 M 526.9 417.1 L 526.8 416.9 M 526.8 416.9 L 524.9 412 M 524.9 412 L 524.9 411.9 M 524.9 411.9 L 524.3 406.6 M 524.3 406.6 L 524.3 406.4 M 524.3 406.4 L 524.9 401.2 M 524.9 401.2 L 524.9 401 M 524.9 401 L 526.8 396.1 M 526.8 396.1 L 526.9 396 M 526.9 396 L 527.8 394.6 M 527.8 394.6 L 527.8 223.6 M 527.8 223.6 L 527.8 223.6 M 527.8 223.6 L 528.2 220 M 528.2 220 L 528.2 219.9 M 528.2 219.9 L 529.3 216.4 M 529.3 216.4 L 529.3 216.3 M 529.3 216.3 L 531 213.1 M 531 213.1 L 531.1 213 M 531.1 213 L 533.4 210.2 M 533.4 210.2 L 533.4 210.2 M 533.4 210.2 L 598.8 144.8 M 598.8 144.8 L 598.1 142.9 M 598.1 142.9 L 598.1 142.7 M 598.1 142.7 L 596.9 133.2 M 596.9 133.2 L 596.9 133 M 596.9 133 L 598.1 123.4 M 598.1 123.4 L 598.1 123.3 M 598.1 123.3 L 601.5 114.3 M 601.5 114.3 L 601.6 114.2 M 601.6 114.2 L 607 106.2 M 607 106.2 L 607.1 106.2 M 607.1 106.2 L 614.4 99.8 M 614.4 99.8 L 614.4 99.7 M 614.4 99.7 L 623 95.2 M 623 95.2 L 623.1 95.2 M 623.1 95.2 L 632.5 92.9 M 632.5 92.9 L 632.6 92.9 M 632.6 92.9 L 642.3 92.9 M 642.3 92.9 L 642.4 92.9 M 111 322.2 L 111 322.2 M 111 322.2 L 120.6 324.5 M 120.6 324.5 L 120.7 324.6 M 120.7 324.6 L 129.5 329.2 M 129.5 329.2 L 129.5 329.3 M 129.5 329.3 L 136.9 335.8 M 136.9 335.8 L 137 335.9 M 137 335.9 L 142.7 344.1 M 142.7 344.1 L 142.7 344.2 M 142.7 344.2 L 146.2 353.4 M 146.2 353.4 L 146.2 353.5 M 146.2 353.5 L 147.5 363.3 M 147.5 363.3 L 147.5 363.5 M 147.5 363.5 L 146.2 373.3 M 146.2 373.3 L 146.2 373.4 M 146.2 373.4 L 142.7 382.7 M 142.7 382.7 L 142.7 382.7 M 142.7 382.7 L 137 390.9 M 137 390.9 L 136.9 391 M 136.9 391 L 129.5 397.5 M 129.5 397.5 L 129.5 397.6 M 129.5 397.6 L 120.7 402.2 M 120.7 402.2 L 120.6 402.3 M 120.6 402.3 L 111 404.6 M 111 404.6 L 110.9 404.6 M 110.9 404.6 L 101 404.6 M 101 404.6 L 100.8 404.6 M 100.8 404.6 L 91.2 402.3 M 91.2 402.3 L 91.2 402.2 M 91.2 402.2 L 82.4 397.6 M 82.4 397.6 L 82.3 397.5 M 82.3 397.5 L 74.9 391 M 74.9 391 L 74.8 390.9 M 74.8 390.9 L 69.2 382.7 M 69.2 382.7 L 69.1 382.7 M 69.1 382.7 L 65.6 373.4 M 65.6 373.4 L 65.6 373.3 M 65.6 373.3 L 64.4 363.5 M 64.4 363.5 L 64.4 363.3 M 64.4 363.3 L 65.6 353.5 M 65.6 353.5 L 65.6 353.4 M 65.6 353.4 L 69.1 344.2 M 69.1 344.2 L 69.2 344.1 M 69.2 344.1 L 74.8 335.9 M 74.8 335.9 L 74.9 335.8 M 74.9 335.8 L 82.3 329.3 M 82.3 329.3 L 82.4 329.2 M 82.4 329.2 L 91.2 324.6 M 91.2 324.6 L 91.2 324.5 M 91.2 324.5 L 100.8 322.2 M 100.8 322.2 L 101 322.2 M 101 322.2 L 110.9 322.2 M 110.9 322.2 L 111 322.2 M 111 222.2 L 111 222.2 M 111 222.2 L 120.6 224.5 M 120.6 224.5 L 120.7 224.6 M 120.7 224.6 L 129.5 229.2 M 129.5 229.2 L 129.5 229.3 M 129.5 229.3 L 136.9 235.8 M 136.9 235.8 L 137 235.9 M 137 235.9 L 142.7 244.1 M 142.7 244.1 L 142.7 244.2 M 142.7 244.2 L 146.2 253.4 M 146.2 253.4 L 146.2 253.5 M 146.2 253.5 L 147.5 263.3 M 147.5 263.3 L 147.5 263.5 M 147.5 263.5 L 146.2 273.3 M 146.2 273.3 L 146.2 273.4 M 146.2 273.4 L 142.7 282.7 M 142.7 282.7 L 142.7 282.7 M 142.7 282.7 L 137 290.9 M 137 290.9 L 136.9 291 M 136.9 291 L 129.5 297.5 M 129.5 297.5 L 129.5 297.6 M 129.5 297.6 L 120.7 302.2 M 120.7 302.2 L 120.6 302.3 M 120.6 302.3 L 111 304.6 M 111 304.6 L 110.9 304.6 M 110.9 304.6 L 101 304.6 M 101 304.6 L 100.8 304.6 M 100.8 304.6 L 91.2 302.3 M 91.2 302.3 L 91.2 302.2 M 91.2 302.2 L 82.4 297.6 M 82.4 297.6 L 82.3 297.5 M 82.3 297.5 L 74.9 291 M 74.9 291 L 74.8 290.9 M 74.8 290.9 L 69.2 282.7 M 69.2 282.7 L 69.1 282.7 M 69.1 282.7 L 65.6 273.4 M 65.6 273.4 L 65.6 273.3 M 65.6 273.3 L 64.4 263.5 M 64.4 263.5 L 64.4 263.3 M 64.4 263.3 L 65.6 253.5 M 65.6 253.5 L 65.6 253.4 M 65.6 253.4 L 69.1 244.2 M 69.1 244.2 L 69.2 244.1 M 69.2 244.1 L 74.8 235.9 M 74.8 235.9 L 74.9 235.8 M 74.9 235.8 L 82.3 229.3 M 82.3 229.3 L 82.4 229.2 M 82.4 229.2 L 91.2 224.6 M 91.2 224.6 L 91.2 224.5 M 91.2 224.5 L 100.8 222.2 M 100.8 222.2 L 101 222.2 M 101 222.2 L 110.9 222.2 M 110.9 222.2 L 111 222.2 M 102.9 122.5 L 102.9 122.5 M 102.9 122.5 L 102.9 131.9 M 102.9 131.9 L 108.9 131.9 M 108.9 131.9 L 108.9 122.5 M 108.9 122.5 L 109.5 121.9 M 109.5 121.9 L 138.4 121.9 M 138.4 121.9 L 138.5 121.9 M 138.5 121.9 L 139.8 122 M 139.8 122 L 139.9 122 M 139.9 122 L 141.2 122.3 M 141.2 122.3 L 141.2 122.3 M 141.2 122.3 L 142.5 122.9 M 142.5 122.9 L 142.5 122.9 M 142.5 122.9 L 143.7 123.6 M 143.7 123.6 L 143.8 123.6 M 143.8 123.6 L 144.8 124.5 M 144.8 124.5 L 144.8 124.5 M 144.8 124.5 L 145.7 125.6 M 145.7 125.6 L 145.7 125.6 M 145.7 125.6 L 146.4 126.8 M 146.4 126.8 L 146.5 126.9 M 146.5 126.9 L 147 128.1 M 147 128.1 L 147 128.2 M 147 128.2 L 147.3 129.5 M 147.3 129.5 L 147.3 129.5 M 147.3 129.5 L 147.5 130.9 M 147.5 130.9 L 147.5 130.9 M 147.5 130.9 L 147.5 159.8 M 147.5 159.8 L 146.9 160.4 M 146.9 160.4 L 137.4 160.4 M 137.4 160.4 L 137.4 166.4 M 137.4 166.4 L 146.9 166.4 M 146.9 166.4 L 147.5 167 M 147.5 167 L 147.5 195.9 M 147.5 195.9 L 147.5 195.9 M 147.5 195.9 L 147.3 197.3 M 147.3 197.3 L 147.3 197.3 M 147.3 197.3 L 147 198.6 M 147 198.6 L 147 198.7 M 147 198.7 L 146.5 199.9 M 146.5 199.9 L 146.4 200 M 146.4 200 L 145.7 201.2 M 145.7 201.2 L 145.7 201.2 M 145.7 201.2 L 144.8 202.3 M 144.8 202.3 L 144.8 202.3 M 144.8 202.3 L 143.8 203.2 M 143.8 203.2 L 143.7 203.2 M 143.7 203.2 L 142.5 203.9 M 142.5 203.9 L 142.5 204 M 142.5 204 L 141.2 204.5 M 141.2 204.5 L 141.2 204.5 M 141.2 204.5 L 139.9 204.8 M 139.9 204.8 L 139.8 204.8 M 139.8 204.8 L 138.4 204.9 M 138.4 204.9 L 138.4 204.9 M 138.4 204.9 L 109.5 204.9 M 109.5 204.9 L 108.9 204.4 M 108.9 204.4 L 108.9 194.9 M 108.9 194.9 L 102.9 194.9 M 102.9 194.9 L 102.9 204.4 M 102.9 204.4 L 102.3 204.9 M 102.3 204.9 L 73.4 204.9 M 73.4 204.9 L 73.4 204.9 M 73.4 204.9 L 72.1 204.8 M 72.1 204.8 L 72 204.8 M 72 204.8 L 70.7 204.5 M 70.7 204.5 L 70.6 204.5 M 70.6 204.5 L 69.4 204 M 69.4 204 L 69.3 203.9 M 69.3 203.9 L 68.2 203.2 M 68.2 203.2 L 68.1 203.2 M 68.1 203.2 L 67.1 202.3 M 67.1 202.3 L 67 202.3 M 67 202.3 L 66.2 201.2 M 66.2 201.2 L 66.1 201.2 M 66.1 201.2 L 65.4 200 M 65.4 200 L 65.4 199.9 M 65.4 199.9 L 64.9 198.7 M 64.9 198.7 L 64.8 198.6 M 64.8 198.6 L 64.5 197.3 M 64.5 197.3 L 64.5 197.3 M 64.5 197.3 L 64.4 196 M 64.4 196 L 64.4 195.9 M 64.4 195.9 L 64.4 167 M 64.4 167 L 65 166.4 M 65 166.4 L 74.4 166.4 M 74.4 166.4 L 74.4 160.4 M 74.4 160.4 L 65 160.4 M 65 160.4 L 64.4 159.8 M 64.4 159.8 L 64.4 130.9 M 64.4 130.9 L 64.4 130.8 M 64.4 130.8 L 64.5 129.5 M 64.5 129.5 L 64.5 129.5 M 64.5 129.5 L 64.8 128.2 M 64.8 128.2 L 64.9 128.1 M 64.9 128.1 L 65.4 126.9 M 65.4 126.9 L 65.4 126.8 M 65.4 126.8 L 66.1 125.6 M 66.1 125.6 L 66.2 125.6 M 66.2 125.6 L 67 124.5 M 67 124.5 L 67.1 124.5 M 67.1 124.5 L 68.1 123.6 M 68.1 123.6 L 68.2 123.6 M 68.2 123.6 L 69.3 122.9 M 69.3 122.9 L 69.4 122.9 M 69.4 122.9 L 70.6 122.3 M 70.6 122.3 L 70.7 122.3 M 70.7 122.3 L 72 122 M 72 122 L 72.1 122 M 72.1 122 L 73.4 121.9 M 73.4 121.9 L 73.4 121.9 M 73.4 121.9 L 102.3 121.9 M 102.3 121.9 L 102.9 122.5 M 799.9 92.9 L 799.9 92.9 M 799.9 92.9 L 809.2 95.2 M 809.2 95.2 L 809.4 95.2 M 809.4 95.2 L 817.9 99.7 M 817.9 99.7 L 818 99.8 M 818 99.8 L 825.2 106.2 M 825.2 106.2 L 825.3 106.2 M 825.3 106.2 L 830.8 114.2 M 830.8 114.2 L 830.8 114.3 M 830.8 114.3 L 834.2 123.3 M 834.2 123.3 L 834.3 123.4 M 834.3 123.4 L 835.5 133 M 835.5 133 L 835.5 133.2 M 835.5 133.2 L 834.3 142.7 M 834.3 142.7 L 834.2 142.9 M 834.2 142.9 L 830.8 151.9 M 830.8 151.9 L 830.8 152 M 830.8 152 L 825.3 159.9 M 825.3 159.9 L 825.2 160 M 825.2 160 L 818 166.4 M 818 166.4 L 817.9 166.5 M 817.9 166.5 L 809.4 171 M 809.4 171 L 809.2 171 M 809.2 171 L 799.9 173.3 M 799.9 173.3 L 799.7 173.3 M 799.7 173.3 L 790.1 173.3 M 790.1 173.3 L 789.9 173.3 M 789.9 173.3 L 780.6 171 M 780.6 171 L 780.5 171 M 780.5 171 L 771.9 166.5 M 771.9 166.5 L 771.8 166.4 M 771.8 166.4 L 764.6 160 M 764.6 160 L 764.5 159.9 M 764.5 159.9 L 759 152 M 759 152 L 759 151.9 M 759 151.9 L 755.6 142.9 M 755.6 142.9 L 755.5 142.7 M 755.5 142.7 L 754.4 133.2 M 754.4 133.2 L 754.4 133 M 754.4 133 L 755.5 123.4 M 755.5 123.4 L 755.6 123.3 M 755.6 123.3 L 759 114.3 M 759 114.3 L 759 114.2 M 759 114.2 L 764.5 106.2 M 764.5 106.2 L 764.6 106.2 M 764.6 106.2 L 771.8 99.8 M 771.8 99.8 L 771.9 99.7 M 771.9 99.7 L 780.5 95.2 M 780.5 95.2 L 780.6 95.2 M 780.6 95.2 L 789.9 92.9 M 789.9 92.9 L 790.1 92.9 M 790.1 92.9 L 799.7 92.9 M 799.7 92.9 L 799.9 92.9 M 966.7 95.2 L 966.7 95.2 M 966.7 95.2 L 966.8 95.2 M 966.8 95.2 L 975.4 99.7 M 975.4 99.7 L 975.5 99.8 M 975.5 99.8 L 982.7 106.2 M 982.7 106.2 L 982.8 106.2 M 982.8 106.2 L 988.2 114.2 M 988.2 114.2 L 988.3 114.3 M 988.3 114.3 L 991.7 123.3 M 991.7 123.3 L 991.8 123.4 M 991.8 123.4 L 992 125.5 M 992 125.5 L 991.4 126.2 M 991.4 126.2 L 982.9 126.2 M 982.9 126.2 L 982.9 140 M 982.9 140 L 991.4 140 M 991.4 140 L 992 140.6 M 992 140.6 L 991.8 142.7 M 991.8 142.7 L 991.7 142.9 M 991.7 142.9 L 988.3 151.9 M 988.3 151.9 L 988.2 152 M 988.2 152 L 982.8 159.9 M 982.8 159.9 L 982.7 160 M 982.7 160 L 975.5 166.4 M 975.5 166.4 L 975.4 166.5 M 975.4 166.5 L 966.8 171 M 966.8 171 L 966.7 171 M 966.7 171 L 960 172.7 M 960 172.7 L 959.3 172.1 M 959.3 172.1 L 959.3 163.4 M 959.3 163.4 L 945.5 163.4 M 945.5 163.4 L 945.5 172.1 M 945.5 172.1 L 944.7 172.7 M 944.7 172.7 L 938.1 171 M 938.1 171 L 937.9 171 M 937.9 171 L 929.4 166.5 M 929.4 166.5 L 929.3 166.4 M 929.3 166.4 L 922.1 160 M 922.1 160 L 922 159.9 M 922 159.9 L 916.5 152 M 916.5 152 L 916.5 151.9 M 916.5 151.9 L 913.1 142.9 M 913.1 142.9 L 913 142.7 M 913 142.7 L 911.8 133.2 M 911.8 133.2 L 911.8 133 M 911.8 133 L 913 123.4 M 913 123.4 L 913.1 123.3 M 913.1 123.3 L 916.5 114.3 M 916.5 114.3 L 916.5 114.2 M 916.5 114.2 L 922 106.2 M 922 106.2 L 922.1 106.2 M 922.1 106.2 L 929.3 99.8 M 929.3 99.8 L 929.4 99.7 M 929.4 99.7 L 937.9 95.2 M 937.9 95.2 L 938.1 95.2 M 938.1 95.2 L 944.7 93.5 M 944.7 93.5 L 945.5 94.1 M 945.5 94.1 L 945.5 102.8 M 945.5 102.8 L 959.3 102.8 M 959.3 102.8 L 959.3 94.1 M 959.3 94.1 L 960 93.5 M 960 93.5 L 966.7 95.2 M 28.2 29.2 L 1010.5 29.2 M 28.2 31.1 L 1010.5 31.1 M 28.2 33.1 L 1010.5 33.1 M 28.2 35 L 1010.5 35 M 28.2 36.9 L 1010.5 36.9 M 28.2 38.9 L 1010.5 38.9 M 28.2 40.8 L 1010.5 40.8 M 28.2 42.8 L 1010.5 42.8 M 28.2 44.7 L 1010.5 44.7 M 28.2 46.7 L 1010.5 46.7 M 28.2 48.6 L 1010.5 48.6 M 28.2 50.6 L 1010.5 50.6 M 28.2 52.5 L 1010.5 52.5 M 28.2 54.5 L 1010.5 54.5 M 28.2 56.4 L 1010.5 56.4 M 28.2 58.4 L 1010.5 58.4 M 28.2 60.3 L 1010.5 60.3 M 28.2 62.3 L 1010.5 62.3 M 28.2 64.2 L 1010.5 64.2 M 28.2 66.2 L 1010.5 66.2 M 28.2 68.1 L 1010.5 68.1 M 28.2 70.1 L 1010.5 70.1 M 28.2 72 L 1010.5 72 M 28.2 74 L 1010.5 74 M 28.2 75.9 L 1010.5 75.9 M 28.2 77.9 L 1010.5 77.9 M 28.2 79.8 L 1010.5 79.8 M 28.2 81.8 L 1010.5 81.8 M 28.2 83.7 L 1010.5 83.7 M 28.2 85.7 L 1010.5 85.7 M 28.2 87.6 L 1010.5 87.6 M 28.2 89.6 L 1010.5 89.6 M 28.2 91.5 L 1010.5 91.5 M 28.2 93.5 L 629.9 93.5 M 644.9 93.5 L 787.4 93.5 M 802.4 93.5 L 1010.5 93.5 M 28.2 95.5 L 622.6 95.5 M 652.3 95.5 L 780.1 95.5 M 809.7 95.5 L 937.5 95.5 M 945.5 95.5 L 959.3 95.5 M 967.2 95.5 L 1010.5 95.5 M 28.2 97.4 L 618.8 97.4 M 656 97.4 L 776.3 97.4 M 813.5 97.4 L 933.8 97.4 M 945.5 97.4 L 959.3 97.4 M 971 97.4 L 1010.5 97.4 M 28.2 99.4 L 615.1 99.4 M 659.7 99.4 L 772.6 99.4 M 817.2 99.4 L 930.1 99.4 M 945.5 99.4 L 959.3 99.4 M 974.7 99.4 L 1010.5 99.4 M 28.2 101.3 L 612.6 101.3 M 662.2 101.3 L 770.1 101.3 M 819.7 101.3 L 927.6 101.3 M 945.5 101.3 L 959.3 101.3 M 977.2 101.3 L 1010.5 101.3 M 28.2 103.2 L 610.4 103.2 M 664.4 103.2 L 767.9 103.2 M 821.9 103.2 L 925.4 103.2 M 979.4 103.2 L 1010.5 103.2 M 28.2 105.2 L 608.2 105.2 M 666.6 105.2 L 765.7 105.2 M 824.1 105.2 L 923.2 105.2 M 981.6 105.2 L 1010.5 105.2 M 28.2 107.1 L 606.4 107.1 M 668.4 107.1 L 763.9 107.1 M 825.9 107.1 L 921.4 107.1 M 983.4 107.1 L 1010.5 107.1 M 28.2 109.1 L 605.1 109.1 M 669.7 109.1 L 762.6 109.1 M 827.2 109.1 L 920.1 109.1 M 984.7 109.1 L 1010.5 109.1 M 28.2 111 L 603.8 111 M 671.1 111 L 761.2 111 M 828.6 111 L 918.7 111 M 986 111 L 1010.5 111 M 28.2 113 L 602.4 113 M 672.5 113 L 759.9 113 M 829.9 113 L 917.3 113 M 987.4 113 L 1010.5 113 M 28.2 114.9 L 601.3 114.9 M 673.6 114.9 L 758.8 114.9 M 831 114.9 L 916.2 114.9 M 988.5 114.9 L 1010.5 114.9 M 28.2 116.9 L 600.5 116.9 M 674.3 116.9 L 758 116.9 M 831.8 116.9 L 915.5 116.9 M 989.3 116.9 L 1010.5 116.9 M 28.2 118.8 L 599.8 118.8 M 675.1 118.8 L 757.3 118.8 M 832.5 118.8 L 914.7 118.8 M 990 118.8 L 1010.5 118.8 M 28.2 120.8 L 599 120.8 M 675.8 120.8 L 756.5 120.8 M 833.3 120.8 L 914 120.8 M 990.8 120.8 L 1010.5 120.8 M 28.2 122.7 L 69.7 122.7 M 102.9 122.7 L 108.9 122.7 M 142.2 122.7 L 598.3 122.7 M 676.6 122.7 L 755.8 122.7 M 834 122.7 L 913.2 122.7 M 991.5 122.7 L 1010.5 122.7 M 28.2 124.7 L 66.9 124.7 M 102.9 124.7 L 108.9 124.7 M 144.9 124.7 L 597.9 124.7 M 676.9 124.7 L 755.4 124.7 M 834.4 124.7 L 912.9 124.7 M 991.9 124.7 L 1010.5 124.7 M 28.2 126.6 L 65.5 126.6 M 102.9 126.6 L 108.9 126.6 M 146.4 126.6 L 597.7 126.6 M 677.2 126.6 L 755.1 126.6 M 834.7 126.6 L 912.6 126.6 M 982.9 126.6 L 1010.5 126.6 M 28.2 128.6 L 64.7 128.6 M 102.9 128.6 L 108.9 128.6 M 147.1 128.6 L 597.4 128.6 M 677.4 128.6 L 754.9 128.6 M 834.9 128.6 L 912.4 128.6 M 982.9 128.6 L 1010.5 128.6 M 28.2 130.5 L 64.4 130.5 M 102.9 130.5 L 108.9 130.5 M 147.4 130.5 L 597.2 130.5 M 677.7 130.5 L 754.7 130.5 M 835.1 130.5 L 912.1 130.5 M 982.9 130.5 L 1010.5 130.5 M 28.2 132.5 L 64.4 132.5 M 147.5 132.5 L 596.9 132.5 M 677.9 132.5 L 754.4 132.5 M 835.4 132.5 L 911.9 132.5 M 982.9 132.5 L 1010.5 132.5 M 28.2 134.4 L 64.4 134.4 M 147.5 134.4 L 597 134.4 M 677.8 134.4 L 754.5 134.4 M 835.3 134.4 L 912 134.4 M 982.9 134.4 L 1010.5 134.4 M 28.2 136.4 L 64.4 136.4 M 147.5 136.4 L 597.3 136.4 M 677.6 136.4 L 754.7 136.4 M 835.1 136.4 L 912.2 136.4 M 982.9 136.4 L 1010.5 136.4 M 28.2 138.3 L 64.4 138.3 M 147.5 138.3 L 597.5 138.3 M 677.3 138.3 L 755 138.3 M 834.8 138.3 L 912.5 138.3 M 982.9 138.3 L 1010.5 138.3 M 28.2 140.3 L 64.4 140.3 M 147.5 140.3 L 597.7 140.3 M 677.1 140.3 L 755.2 140.3 M 834.6 140.3 L 912.7 140.3 M 991.7 140.3 L 1010.5 140.3 M 28.2 142.2 L 64.4 142.2 M 147.5 142.2 L 598 142.2 M 676.9 142.2 L 755.5 142.2 M 834.4 142.2 L 912.9 142.2 M 991.8 142.2 L 1010.5 142.2 M 28.2 144.2 L 64.4 144.2 M 147.5 144.2 L 598.6 144.2 M 676.2 144.2 L 756.1 144.2 M 833.7 144.2 L 913.6 144.2 M 991.2 144.2 L 1010.5 144.2 M 28.2 146.1 L 64.4 146.1 M 147.5 146.1 L 597.5 146.1 M 675.5 146.1 L 756.8 146.1 M 833 146.1 L 914.3 146.1 M 990.5 146.1 L 1010.5 146.1 M 28.2 148.1 L 64.4 148.1 M 147.5 148.1 L 595.5 148.1 M 674.8 148.1 L 757.5 148.1 M 832.3 148.1 L 915 148.1 M 989.7 148.1 L 1010.5 148.1 M 28.2 150 L 64.4 150 M 147.5 150 L 593.6 150 M 674 150 L 758.3 150 M 831.5 150 L 915.8 150 M 989 150 L 1010.5 150 M 28.2 152 L 64.4 152 M 147.5 152 L 591.6 152 M 673.3 152 L 759 152 M 830.8 152 L 916.5 152 M 988.2 152 L 1010.5 152 M 28.2 153.9 L 64.4 153.9 M 147.5 153.9 L 589.7 153.9 M 671.9 153.9 L 760.4 153.9 M 829.4 153.9 L 917.9 153.9 M 986.9 153.9 L 1010.5 153.9 M 28.2 155.9 L 64.4 155.9 M 147.5 155.9 L 587.7 155.9 M 670.6 155.9 L 761.7 155.9 M 828.1 155.9 L 919.2 155.9 M 985.6 155.9 L 1010.5 155.9 M 28.2 157.9 L 64.4 157.9 M 147.5 157.9 L 585.8 157.9 M 669.2 157.9 L 763.1 157.9 M 826.7 157.9 L 920.6 157.9 M 984.2 157.9 L 1010.5 157.9 M 28.2 159.8 L 64.4 159.8 M 147.5 159.8 L 583.8 159.8 M 667.9 159.8 L 764.4 159.8 M 825.4 159.8 L 921.9 159.8 M 982.9 159.8 L 1010.5 159.8 M 28.2 161.8 L 74.4 161.8 M 137.4 161.8 L 581.9 161.8 M 665.8 161.8 L 766.6 161.8 M 823.2 161.8 L 924 161.8 M 980.7 161.8 L 1010.5 161.8 M 28.2 163.7 L 74.4 163.7 M 137.4 163.7 L 579.9 163.7 M 663.6 163.7 L 768.8 163.7 M 821 163.7 L 926.2 163.7 M 945.5 163.7 L 959.3 163.7 M 978.5 163.7 L 1010.5 163.7 M 28.2 165.6 L 74.4 165.6 M 137.4 165.6 L 577.9 165.6 M 661.4 165.6 L 770.9 165.6 M 818.9 165.6 L 928.4 165.6 M 945.5 165.6 L 959.3 165.6 M 976.4 165.6 L 1010.5 165.6 M 28.2 167.6 L 64.4 167.6 M 147.5 167.6 L 576 167.6 M 658.3 167.6 L 774 167.6 M 815.8 167.6 L 931.5 167.6 M 945.5 167.6 L 959.3 167.6 M 973.2 167.6 L 1010.5 167.6 M 28.2 169.5 L 64.4 169.5 M 147.5 169.5 L 574 169.5 M 654.6 169.5 L 777.7 169.5 M 812.1 169.5 L 935.2 169.5 M 945.5 169.5 L 959.3 169.5 M 969.5 169.5 L 1010.5 169.5 M 28.2 171.5 L 64.4 171.5 M 147.5 171.5 L 572.1 171.5 M 649.8 171.5 L 782.5 171.5 M 807.3 171.5 L 940 171.5 M 945.5 171.5 L 959.3 171.5 M 964.8 171.5 L 1010.5 171.5 M 28.2 173.4 L 64.4 173.4 M 147.5 173.4 L 570.1 173.4 M 624 173.4 L 1010.5 173.4 M 28.2 175.4 L 64.4 175.4 M 147.5 175.4 L 568.2 175.4 M 622.1 175.4 L 1010.5 175.4 M 28.2 177.3 L 64.4 177.3 M 147.5 177.3 L 566.2 177.3 M 620.1 177.3 L 1010.5 177.3 M 28.2 179.3 L 64.4 179.3 M 147.5 179.3 L 564.3 179.3 M 618.2 179.3 L 1010.5 179.3 M 28.2 181.2 L 64.4 181.2 M 147.5 181.2 L 562.3 181.2 M 616.2 181.2 L 1010.5 181.2 M 28.2 183.2 L 64.4 183.2 M 147.5 183.2 L 560.4 183.2 M 614.3 183.2 L 1010.5 183.2 M 28.2 185.1 L 64.4 185.1 M 147.5 185.1 L 558.4 185.1 M 612.3 185.1 L 1010.5 185.1 M 28.2 187.1 L 64.4 187.1 M 147.5 187.1 L 556.5 187.1 M 610.3 187.1 L 1010.5 187.1 M 28.2 189 L 64.4 189 M 147.5 189 L 554.5 189 M 608.4 189 L 1010.5 189 M 28.2 191 L 64.4 191 M 147.5 191 L 552.6 191 M 606.4 191 L 1010.5 191 M 28.2 192.9 L 64.4 192.9 M 147.5 192.9 L 550.6 192.9 M 604.5 192.9 L 1010.5 192.9 M 28.2 194.9 L 64.4 194.9 M 147.5 194.9 L 548.7 194.9 M 602.5 194.9 L 1010.5 194.9 M 28.2 196.8 L 64.5 196.8 M 102.9 196.8 L 108.9 196.8 M 147.4 196.8 L 546.8 196.8 M 600.6 196.8 L 1010.5 196.8 M 28.2 198.8 L 64.9 198.8 M 102.9 198.8 L 108.9 198.8 M 146.9 198.8 L 544.8 198.8 M 598.6 198.8 L 1010.5 198.8 M 28.2 200.7 L 65.8 200.7 M 102.9 200.7 L 108.9 200.7 M 146 200.7 L 542.9 200.7 M 596.7 200.7 L 1010.5 200.7 M 28.2 202.7 L 67.5 202.7 M 102.9 202.7 L 108.9 202.7 M 144.3 202.7 L 540.9 202.7 M 594.7 202.7 L 1010.5 202.7 M 28.2 204.6 L 71.3 204.6 M 102.6 204.6 L 109.2 204.6 M 140.6 204.6 L 539 204.6 M 592.8 204.6 L 1010.5 204.6 M 28.2 206.6 L 537 206.6 M 590.8 206.6 L 1010.5 206.6 M 28.2 208.5 L 535.1 208.5 M 588.9 208.5 L 1010.5 208.5 M 28.2 210.5 L 533.2 210.5 M 586.9 210.5 L 1010.5 210.5 M 28.2 212.4 L 531.6 212.4 M 585 212.4 L 1010.5 212.4 M 28.2 214.4 L 530.3 214.4 M 583.1 214.4 L 1010.5 214.4 M 28.2 216.3 L 529.3 216.3 M 581.1 216.3 L 1010.5 216.3 M 28.2 218.3 L 528.7 218.3 M 579.2 218.3 L 1010.5 218.3 M 28.2 220.2 L 528.2 220.2 M 577.2 220.2 L 1010.5 220.2 M 28.2 222.2 L 101 222.2 M 110.9 222.2 L 528 222.2 M 575.3 222.2 L 1010.5 222.2 M 28.2 224.2 L 93 224.2 M 118.8 224.2 L 527.8 224.2 M 573.3 224.2 L 1010.5 224.2 M 28.2 226.1 L 88.3 226.1 M 123.5 226.1 L 527.8 226.1 M 571.4 226.1 L 1010.5 226.1 M 28.2 228.1 L 84.6 228.1 M 127.2 228.1 L 527.8 228.1 M 569.4 228.1 L 1010.5 228.1 M 28.2 230 L 81.5 230 M 130.4 230 L 527.8 230 M 567.5 230 L 1010.5 230 M 28.2 231.9 L 79.3 231.9 M 132.6 231.9 L 527.8 231.9 M 565.9 231.9 L 1010.5 231.9 M 28.2 233.9 L 77.1 233.9 M 134.8 233.9 L 527.8 233.9 M 565.9 233.9 L 1010.5 233.9 M 28.2 235.8 L 74.9 235.8 M 137 235.8 L 527.8 235.8 M 565.9 235.8 L 1010.5 235.8 M 28.2 237.8 L 73.5 237.8 M 138.3 237.8 L 527.8 237.8 M 565.9 237.8 L 1010.5 237.8 M 28.2 239.7 L 72.2 239.7 M 139.7 239.7 L 527.8 239.7 M 565.9 239.7 L 1010.5 239.7 M 28.2 241.7 L 70.8 241.7 M 141 241.7 L 527.8 241.7 M 565.9 241.7 L 1010.5 241.7 M 28.2 243.6 L 69.5 243.6 M 142.4 243.6 L 527.8 243.6 M 565.9 243.6 L 1010.5 243.6 M 28.2 245.6 L 68.6 245.6 M 143.2 245.6 L 527.8 245.6 M 565.9 245.6 L 1010.5 245.6 M 28.2 247.5 L 67.9 247.5 M 144 247.5 L 527.8 247.5 M 565.9 247.5 L 1010.5 247.5 M 28.2 249.5 L 67.1 249.5 M 144.7 249.5 L 527.8 249.5 M 565.9 249.5 L 1010.5 249.5 M 28.2 251.4 L 66.4 251.4 M 145.5 251.4 L 527.8 251.4 M 565.9 251.4 L 1010.5 251.4 M 28.2 253.4 L 65.6 253.4 M 146.2 253.4 L 527.8 253.4 M 565.9 253.4 L 1010.5 253.4 M 28.2 255.3 L 65.4 255.3 M 146.5 255.3 L 527.8 255.3 M 565.9 255.3 L 1010.5 255.3 M 28.2 257.3 L 65.1 257.3 M 146.7 257.3 L 527.8 257.3 M 565.9 257.3 L 1010.5 257.3 M 28.2 259.2 L 64.9 259.2 M 146.9 259.2 L 527.8 259.2 M 565.9 259.2 L 1010.5 259.2 M 28.2 261.2 L 64.7 261.2 M 147.2 261.2 L 527.8 261.2 M 565.9 261.2 L 1010.5 261.2 M 28.2 263.1 L 64.4 263.1 M 147.4 263.1 L 527.8 263.1 M 565.9 263.1 L 1010.5 263.1 M 28.2 265.1 L 64.6 265.1 M 147.3 265.1 L 527.8 265.1 M 565.9 265.1 L 1010.5 265.1 M 28.2 267 L 64.8 267 M 147 267 L 527.8 267 M 565.9 267 L 1010.5 267 M 28.2 269 L 65.1 269 M 146.8 269 L 527.8 269 M 565.9 269 L 1010.5 269 M 28.2 270.9 L 65.3 270.9 M 146.6 270.9 L 527.8 270.9 M 565.9 270.9 L 1010.5 270.9 M 28.2 272.9 L 65.5 272.9 M 146.3 272.9 L 527.8 272.9 M 565.9 272.9 L 1010.5 272.9 M 28.2 274.8 L 66.2 274.8 M 145.7 274.8 L 527.8 274.8 M 565.9 274.8 L 1010.5 274.8 M 28.2 276.8 L 66.9 276.8 M 144.9 276.8 L 527.8 276.8 M 565.9 276.8 L 1010.5 276.8 M 28.2 278.7 L 67.7 278.7 M 144.2 278.7 L 527.8 278.7 M 565.9 278.7 L 1010.5 278.7 M 28.2 280.7 L 68.4 280.7 M 143.4 280.7 L 527.8 280.7 M 565.9 280.7 L 1010.5 280.7 M 28.2 282.6 L 69.1 282.6 M 142.7 282.6 L 527.8 282.6 M 565.9 282.6 L 1010.5 282.6 M 28.2 284.6 L 70.5 284.6 M 141.4 284.6 L 527.8 284.6 M 565.9 284.6 L 1010.5 284.6 M 28.2 286.5 L 71.8 286.5 M 140.1 286.5 L 527.8 286.5 M 565.9 286.5 L 1010.5 286.5 M 28.2 288.5 L 73.1 288.5 M 138.7 288.5 L 527.8 288.5 M 565.9 288.5 L 1010.5 288.5 M 28.2 290.5 L 74.5 290.5 M 137.3 290.5 L 527.8 290.5 M 565.9 290.5 L 1010.5 290.5 M 28.2 292.4 L 76.5 292.4 M 135.4 292.4 L 527.8 292.4 M 565.9 292.4 L 1010.5 292.4 M 28.2 294.4 L 78.7 294.4 M 133.2 294.4 L 527.8 294.4 M 565.9 294.4 L 1010.5 294.4 M 28.2 296.3 L 80.9 296.3 M 131 296.3 L 527.8 296.3 M 565.9 296.3 L 1010.5 296.3 M 28.2 298.2 L 83.6 298.2 M 128.3 298.2 L 527.8 298.2 M 565.9 298.2 L 1010.5 298.2 M 28.2 300.2 L 87.3 300.2 M 124.5 300.2 L 527.8 300.2 M 565.9 300.2 L 1010.5 300.2 M 28.2 302.1 L 91 302.1 M 120.8 302.1 L 527.8 302.1 M 565.9 302.1 L 1010.5 302.1 M 28.2 304.1 L 98.7 304.1 M 113.1 304.1 L 527.8 304.1 M 565.9 304.1 L 1010.5 304.1 M 28.2 306 L 527.8 306 M 565.9 306 L 1010.5 306 M 28.2 308 L 527.8 308 M 565.9 308 L 1010.5 308 M 28.2 309.9 L 527.8 309.9 M 565.9 309.9 L 1010.5 309.9 M 28.2 311.9 L 527.8 311.9 M 565.9 311.9 L 1010.5 311.9 M 28.2 313.8 L 527.8 313.8 M 565.9 313.8 L 1010.5 313.8 M 28.2 315.8 L 527.8 315.8 M 565.9 315.8 L 1010.5 315.8 M 28.2 317.7 L 527.8 317.7 M 565.9 317.7 L 1010.5 317.7 M 28.2 319.7 L 527.8 319.7 M 565.9 319.7 L 1010.5 319.7 M 28.2 321.6 L 527.8 321.6 M 565.9 321.6 L 1010.5 321.6 M 28.2 323.6 L 95.2 323.6 M 116.6 323.6 L 527.8 323.6 M 565.9 323.6 L 1010.5 323.6 M 28.2 325.5 L 89.4 325.5 M 122.5 325.5 L 527.8 325.5 M 565.9 325.5 L 1010.5 325.5 M 28.2 327.5 L 85.6 327.5 M 126.2 327.5 L 527.8 327.5 M 565.9 327.5 L 1010.5 327.5 M 28.2 329.4 L 82.1 329.4 M 129.7 329.4 L 527.8 329.4 M 565.9 329.4 L 1010.5 329.4 M 28.2 331.4 L 79.9 331.4 M 131.9 331.4 L 527.8 331.4 M 565.9 331.4 L 1010.5 331.4 M 28.2 333.3 L 77.7 333.3 M 134.2 333.3 L 527.8 333.3 M 565.9 333.3 L 1010.5 333.3 M 28.2 335.3 L 75.5 335.3 M 136.4 335.3 L 527.8 335.3 M 565.9 335.3 L 1010.5 335.3 M 28.2 337.2 L 73.9 337.2 M 137.9 337.2 L 527.8 337.2 M 565.9 337.2 L 1010.5 337.2 M 28.2 339.2 L 72.5 339.2 M 139.3 339.2 L 527.8 339.2 M 565.9 339.2 L 1010.5 339.2 M 28.2 341.1 L 71.2 341.1 M 140.6 341.1 L 527.8 341.1 M 565.9 341.1 L 1010.5 341.1 M 28.2 343.1 L 69.9 343.1 M 142 343.1 L 527.8 343.1 M 565.9 343.1 L 1010.5 343.1 M 28.2 345 L 68.8 345 M 143.1 345 L 527.8 345 M 565.9 345 L 1010.5 345 M 28.2 347 L 68.1 347 M 143.8 347 L 527.8 347 M 565.9 347 L 1010.5 347 M 28.2 348.9 L 67.3 348.9 M 144.5 348.9 L 527.8 348.9 M 565.9 348.9 L 1010.5 348.9 M 28.2 350.9 L 66.6 350.9 M 145.3 350.9 L 527.8 350.9 M 565.9 350.9 L 1010.5 350.9 M 28.2 352.9 L 65.8 352.9 M 146 352.9 L 527.8 352.9 M 565.9 352.9 L 1010.5 352.9 M 28.2 354.8 L 65.5 354.8 M 146.4 354.8 L 527.8 354.8 M 565.9 354.8 L 1010.5 354.8 M 28.2 356.8 L 65.2 356.8 M 146.6 356.8 L 527.8 356.8 M 565.9 356.8 L 1010.5 356.8 M 28.2 358.7 L 65 358.7 M 146.9 358.7 L 527.8 358.7 M 565.9 358.7 L 1010.5 358.7 M 28.2 360.6 L 64.7 360.6 M 147.1 360.6 L 527.8 360.6 M 565.9 360.6 L 1010.5 360.6 M 28.2 362.6 L 64.5 362.6 M 147.3 362.6 L 527.8 362.6 M 565.9 362.6 L 1010.5 362.6 M 28.2 364.5 L 64.5 364.5 M 147.3 364.5 L 527.8 364.5 M 565.9 364.5 L 1010.5 364.5 M 28.2 366.5 L 64.8 366.5 M 147.1 366.5 L 527.8 366.5 M 565.9 366.5 L 1010.5 366.5 M 28.2 368.4 L 65 368.4 M 146.8 368.4 L 527.8 368.4 M 565.9 368.4 L 1010.5 368.4 M 28.2 370.4 L 65.3 370.4 M 146.6 370.4 L 527.8 370.4 M 565.9 370.4 L 1010.5 370.4 M 28.2 372.3 L 65.5 372.3 M 146.4 372.3 L 527.8 372.3 M 565.9 372.3 L 1010.5 372.3 M 28.2 374.3 L 66 374.3 M 145.9 374.3 L 527.8 374.3 M 565.9 374.3 L 1010.5 374.3 M 28.2 376.2 L 66.7 376.2 M 145.1 376.2 L 527.8 376.2 M 565.9 376.2 L 1010.5 376.2 M 28.2 378.2 L 67.5 378.2 M 144.4 378.2 L 527.8 378.2 M 565.9 378.2 L 1010.5 378.2 M 28.2 380.1 L 68.2 380.1 M 143.7 380.1 L 527.8 380.1 M 565.9 380.1 L 1010.5 380.1 M 28.2 382.1 L 68.9 382.1 M 142.9 382.1 L 527.8 382.1 M 565.9 382.1 L 1010.5 382.1 M 28.2 384 L 70.1 384 M 141.8 384 L 527.8 384 M 565.9 384 L 1010.5 384 M 28.2 386 L 71.4 386 M 140.4 386 L 527.8 386 M 565.9 386 L 1010.5 386 M 28.2 387.9 L 72.8 387.9 M 139.1 387.9 L 527.8 387.9 M 565.9 387.9 L 1010.5 387.9 M 28.2 389.9 L 74.1 389.9 M 137.7 389.9 L 527.8 389.9 M 565.9 389.9 L 1010.5 389.9 M 28.2 391.8 L 75.8 391.8 M 136 391.8 L 527.8 391.8 M 565.9 391.8 L 1010.5 391.8 M 28.2 393.8 L 78.1 393.8 M 133.8 393.8 L 527.8 393.8 M 565.9 393.8 L 628.7 393.8 M 646.1 393.8 L 786.2 393.8 M 803.6 393.8 L 943.7 393.8 M 961.1 393.8 L 1010.5 393.8 M 28.2 395.7 L 80.3 395.7 M 131.6 395.7 L 527.1 395.7 M 566.7 395.7 L 622 395.7 M 652.9 395.7 L 779.5 395.7 M 810.3 395.7 L 936.9 395.7 M 967.8 395.7 L 1010.5 395.7 M 28.2 397.7 L 82.5 397.7 M 129.3 397.7 L 526.2 397.7 M 567.5 397.7 L 618.3 397.7 M 656.6 397.7 L 775.8 397.7 M 814 397.7 L 933.2 397.7 M 971.5 397.7 L 1010.5 397.7 M 28.2 399.6 L 86.2 399.6 M 125.6 399.6 L 525.5 399.6 M 568.2 399.6 L 614.5 399.6 M 660.3 399.6 L 772 399.6 M 817.8 399.6 L 929.5 399.6 M 975.3 399.6 L 1010.5 399.6 M 28.2 401.6 L 90 401.6 M 121.9 401.6 L 524.9 401.6 M 568.9 401.6 L 612.3 401.6 M 662.5 401.6 L 769.8 401.6 M 820 401.6 L 927.3 401.6 M 977.5 401.6 L 1010.5 401.6 M 28.2 403.5 L 96.5 403.5 M 115.4 403.5 L 524.6 403.5 M 569.1 403.5 L 610.1 403.5 M 664.7 403.5 L 767.6 403.5 M 822.2 403.5 L 925.1 403.5 M 979.7 403.5 L 1010.5 403.5 M 28.2 405.5 L 524.4 405.5 M 569.4 405.5 L 607.9 405.5 M 666.9 405.5 L 765.4 405.5 M 824.4 405.5 L 922.9 405.5 M 981.9 405.5 L 1010.5 405.5 M 28.2 407.4 L 524.4 407.4 M 569.4 407.4 L 606.2 407.4 M 668.6 407.4 L 763.7 407.4 M 826.1 407.4 L 921.2 407.4 M 983.6 407.4 L 1010.5 407.4 M 28.2 409.4 L 524.6 409.4 M 569.1 409.4 L 604.9 409.4 M 670 409.4 L 762.3 409.4 M 827.5 409.4 L 919.8 409.4 M 984.9 409.4 L 1010.5 409.4 M 28.2 411.3 L 524.9 411.3 M 568.9 411.3 L 603.5 411.3 M 671.3 411.3 L 761 411.3 M 828.8 411.3 L 918.5 411.3 M 986.3 411.3 L 1010.5 411.3 M 28.2 413.3 L 525.5 413.3 M 568.3 413.3 L 602.2 413.3 M 672.7 413.3 L 759.7 413.3 M 830.1 413.3 L 917.1 413.3 M 987.6 413.3 L 1010.5 413.3 M 28.2 415.2 L 526.2 415.2 M 567.5 415.2 L 601.2 415.2 M 673.7 415.2 L 758.6 415.2 M 831.2 415.2 L 916.1 415.2 M 988.6 415.2 L 1010.5 415.2 M 28.2 417.2 L 527 417.2 M 566.8 417.2 L 600.4 417.2 M 674.4 417.2 L 757.9 417.2 M 831.9 417.2 L 915.4 417.2 M 989.4 417.2 L 1010.5 417.2 M 28.2 419.2 L 528.3 419.2 M 565.4 419.2 L 599.7 419.2 M 675.2 419.2 L 757.1 419.2 M 832.7 419.2 L 914.6 419.2 M 990.1 419.2 L 1010.5 419.2 M 28.2 421.1 L 529.7 421.1 M 564.1 421.1 L 598.9 421.1 M 675.9 421.1 L 756.4 421.1 M 833.4 421.1 L 913.9 421.1 M 990.9 421.1 L 1010.5 421.1 M 28.2 423.1 L 531.7 423.1 M 562.1 423.1 L 598.2 423.1 M 676.6 423.1 L 755.7 423.1 M 834.1 423.1 L 913.2 423.1 M 991.6 423.1 L 1010.5 423.1 M 28.2 425 L 533.9 425 M 559.9 425 L 597.9 425 M 677 425 L 755.3 425 M 834.5 425 L 912.8 425 M 991.9 425 L 1010.5 425 M 28.2 426.9 L 537.5 426.9 M 556.2 426.9 L 597.6 426.9 M 677.2 426.9 L 755.1 426.9 M 834.7 426.9 L 912.6 426.9 M 992.2 426.9 L 1010.5 426.9 M 28.2 428.9 L 543.9 428.9 M 549.9 428.9 L 597.4 428.9 M 677.5 428.9 L 754.9 428.9 M 834.9 428.9 L 912.3 428.9 M 992.4 428.9 L 1010.5 428.9 M 28.2 430.8 L 597.1 430.8 M 677.7 430.8 L 754.6 430.8 M 835.2 430.8 L 912.1 430.8 M 992.7 430.8 L 1010.5 430.8 M 28.2 432.8 L 596.9 432.8 M 677.9 432.8 L 754.4 432.8 M 835.4 432.8 L 911.9 432.8 M 992.9 432.8 L 1010.5 432.8 M 28.2 434.7 L 597.1 434.7 M 677.8 434.7 L 754.5 434.7 M 835.3 434.7 L 912 434.7 M 992.7 434.7 L 1010.5 434.7 M 28.2 436.7 L 597.3 436.7 M 677.5 436.7 L 754.8 436.7 M 835 436.7 L 912.3 436.7 M 992.5 436.7 L 1010.5 436.7 M 28.2 438.6 L 597.5 438.6 M 677.3 438.6 L 755 438.6 M 834.8 438.6 L 912.5 438.6 M 992.3 438.6 L 1010.5 438.6 M 28.2 440.6 L 597.8 440.6 M 677.1 440.6 L 755.3 440.6 M 834.5 440.6 L 912.7 440.6 M 992 440.6 L 1010.5 440.6 M 28.2 442.5 L 598 442.5 M 676.8 442.5 L 755.5 442.5 M 834.3 442.5 L 913 442.5 M 991.8 442.5 L 1010.5 442.5 M 28.2 444.5 L 598.7 444.5 M 676.2 444.5 L 756.2 444.5 M 833.6 444.5 L 913.6 444.5 M 991.1 444.5 L 1010.5 444.5 M 28.2 446.4 L 599.4 446.4 M 675.4 446.4 L 756.9 446.4 M 832.9 446.4 L 914.4 446.4 M 990.4 446.4 L 1010.5 446.4 M 28.2 448.4 L 600.2 448.4 M 674.7 448.4 L 757.7 448.4 M 832.1 448.4 L 915.1 448.4 M 989.6 448.4 L 1010.5 448.4 M 28.2 450.3 L 600.9 450.3 M 673.9 450.3 L 758.4 450.3 M 831.4 450.3 L 915.9 450.3 M 988.9 450.3 L 1010.5 450.3 M 28.2 452.3 L 601.8 452.3 M 673.1 452.3 L 759.2 452.3 M 830.6 452.3 L 916.7 452.3 M 988.1 452.3 L 1010.5 452.3 M 28.2 454.2 L 603.1 454.2 M 671.7 454.2 L 760.6 454.2 M 829.2 454.2 L 918.1 454.2 M 986.7 454.2 L 1010.5 454.2 M 28.2 456.2 L 604.5 456.2 M 670.4 456.2 L 761.9 456.2 M 827.9 456.2 L 919.4 456.2 M 985.3 456.2 L 1010.5 456.2 M 28.2 458.1 L 605.8 458.1 M 669 458.1 L 763.3 458.1 M 826.5 458.1 L 920.8 458.1 M 984 458.1 L 1010.5 458.1 M 28.2 460.1 L 607.2 460.1 M 667.7 460.1 L 764.7 460.1 M 825.1 460.1 L 922.1 460.1 M 982.6 460.1 L 1010.5 460.1 M 28.2 462 L 609.4 462 M 665.5 462 L 766.9 462 M 822.9 462 L 924.4 462 M 980.4 462 L 1010.5 462 M 28.2 464 L 611.6 464 M 663.2 464 L 769.1 464 M 820.7 464 L 926.6 464 M 978.2 464 L 1010.5 464 M 28.2 465.9 L 613.8 465.9 M 661 465.9 L 771.3 465.9 M 818.5 465.9 L 928.8 465.9 M 976 465.9 L 1010.5 465.9 M 28.2 467.9 L 617.1 467.9 M 657.7 467.9 L 774.6 467.9 M 815.2 467.9 L 932.1 467.9 M 972.7 467.9 L 1010.5 467.9 M 28.2 469.8 L 620.8 469.8 M 654 469.8 L 778.3 469.8 M 811.5 469.8 L 935.8 469.8 M 969 469.8 L 1010.5 469.8 M 28.2 471.8 L 626.2 471.8 M 648.6 471.8 L 783.7 471.8 M 806.1 471.8 L 941.2 471.8 M 963.6 471.8 L 1010.5 471.8 M 28.2 473.7 L 1010.5 473.7 M 28.2 475.7 L 1010.5 475.7 M 28.2 477.6 L 1010.5 477.6 M 28.2 479.6 L 1010.5 479.6 M 28.2 481.5 L 1010.5 481.5 M 28.2 483.5 L 1010.5 483.5 M 28.2 485.5 L 1010.5 485.5 M 28.2 487.4 L 1010.5 487.4 M 28.2 489.4 L 1010.5 489.4 M 28.2 491.3 L 1010.5 491.3 M 28.2 493.2 L 1010.5 493.2 M 28.2 495.2 L 1010.5 495.2 M 28.2 497.1 L 1010.5 497.1"/><path stroke-width="20" fill="none" d="M 546.9 223.6 L 637.4 133.1 M 546.9 406.5 L 546.9 223.6"/><use x="361.8" y="322.5" xlink:href="#tool-D12-pad-1006"/><use x="381.5" y="420.9" xlink:href="#tool-D12-pad-1006"/><use x="420.9" y="184.7" xlink:href="#tool-D12-pad-1006"/><use x="716.2" y="86.2" xlink:href="#tool-D12-pad-1006"/><use x="546.9" y="406.5" xlink:href="#tool-D12-pad-1006"/><use x="302.8" y="184.7" xlink:href="#tool-D12-pad-1006"/><use x="716.2" y="479.9" xlink:href="#tool-D12-pad-1006"/><use x="873.6" y="479.9" xlink:href="#tool-D12-pad-1006"/><use x="873.6" y="86.2" xlink:href="#tool-D12-pad-1006"/><use x="794.9" y="133.1" xlink:href="#tool-D13-pad-1007"/><use x="794.9" y="433.1" xlink:href="#tool-D13-pad-1007"/><use x="952.4" y="433.1" xlink:href="#tool-D14-pad-1008"/><use x="952.4" y="133.1" xlink:href="#tool-D14-pad-1008"/><use x="637.4" y="433.1" xlink:href="#tool-D14-pad-1008"/><use x="637.4" y="133.1" xlink:href="#tool-D14-pad-1008"/><use x="105.9" y="263.4" xlink:href="#tool-D15-pad-1009"/><use x="105.9" y="363.4" xlink:href="#tool-D15-pad-1009"/><use x="105.9" y="163.4" xlink:href="#tool-D16-pad-1010"/></g><mask id="pcb_bottom_mech-mask" fill="#fff" stroke="#fff" fill-rule="evenodd"><path stroke-width="0" d="M 7.5 7.5 L 7.5 519.3 L 1031.1 519.3 L 1031.1 7.5 Z"/><g id="pcb_bottom-drl" fill="#000" stroke="#000"><use x="361.8" y="322.5" xlink:href="#tool-T10-pad-1000"/><use x="381.5" y="420.9" xlink:href="#tool-T10-pad-1000"/><use x="420.9" y="184.7" xlink:href="#tool-T10-pad-1000"/><use x="716.2" y="86.2" xlink:href="#tool-T10-pad-1000"/><use x="546.9" y="406.5" xlink:href="#tool-T10-pad-1000"/><use x="302.8" y="184.7" xlink:href="#tool-T10-pad-1000"/><use x="716.2" y="479.9" xlink:href="#tool-T10-pad-1000"/><use x="873.6" y="479.9" xlink:href="#tool-T10-pad-1000"/><use x="873.6" y="86.2" xlink:href="#tool-T10-pad-1000"/><use x="794.9" y="133.1" xlink:href="#tool-T11-pad-1001"/><use x="794.9" y="433.1" xlink:href="#tool-T11-pad-1001"/><use x="952.4" y="433.1" xlink:href="#tool-T12-pad-1002"/><use x="952.4" y="133.1" xlink:href="#tool-T12-pad-1002"/><use x="637.4" y="433.1" xlink:href="#tool-T12-pad-1002"/><use x="637.4" y="133.1" xlink:href="#tool-T12-pad-1002"/><use x="105.9" y="163.4" xlink:href="#tool-T13-pad-1003"/><use x="105.9" y="263.4" xlink:href="#tool-T13-pad-1003"/><use x="105.9" y="363.4" xlink:href="#tool-T13-pad-1003"/></g></mask></defs><g mask="url(#pcb_bottom_mech-mask)" transform="translate(1038.6,526.8) scale(-1,-1)"><rect x="7.5" y="7.5" width="1023.5999999999999" height="511.79999999999995" fill="currentColor" class="pcb_board-fr4"/><use class="pcb_board-cu" xlink:href="#pcb_bottom-cu"/><g><defs><g id="pcb_bottom-sm" fill="currentColor" stroke="currentColor"><use x="794.9" y="133.1" xlink:href="#tool-D10-pad-1012"/><use x="794.9" y="433.1" xlink:href="#tool-D10-pad-1012"/><use x="952.4" y="433.1" xlink:href="#tool-D11-pad-1013"/><use x="952.4" y="133.1" xlink:href="#tool-D11-pad-1013"/><use x="637.4" y="433.1" xlink:href="#tool-D11-pad-1013"/><use x="637.4" y="133.1" xlink:href="#tool-D11-pad-1013"/><use x="105.9" y="263.4" xlink:href="#tool-D12-pad-1014"/><use x="105.9" y="363.4" xlink:href="#tool-D12-pad-1014"/><use x="105.9" y="163.4" xlink:href="#tool-D13-pad-1015"/></g><mask id="pcb_bottom-sm_mask" color="#000"><rect x="7.5" y="7.5" width="1023.5999999999999" height="511.79999999999995" fill="#fff"/><use xlink:href="#pcb_bottom-sm"/></mask><mask id="pcb_bottom-cu_finish-mask" color="#fff"><use xlink:href="#pcb_bottom-cu"/></mask></defs><g mask="url(#pcb_bottom-sm_mask)"><rect x="7.5" y="7.5" width="1023.5999999999999" height="511.79999999999995" fill="currentColor" class="pcb_board-sm"/><g id="pcb_bottom-ss" class="pcb_board-ss" fill="currentColor" stroke="currentColor"><path d="M 930.3 300.1 L 924.8 300.5 L 924.4 298.7 L 923.8 297 L 923 295.7 L 922 294.5 L 920.8 293.7 L 919.5 293.1 L 918.2 292.7 L 916.7 292.5 L 914.9 292.7 L 913.2 293.2 L 911.7 294.1 L 910.3 295.4 L 909.2 296.9 L 908.4 298.6 L 907.9 300.6 L 907.7 302.9 L 907.9 305 L 908.4 306.8 L 909.1 308.5 L 910.2 309.9 L 911.6 311 L 913.1 311.8 L 914.8 312.3 L 916.8 312.4 L 918 312.4 L 919.2 312.1 L 920.3 311.8 L 921.3 311.3 L 922.2 310.7 L 923.1 310 L 923.8 309.2 L 924.5 308.3 L 929.3 309 L 925.2 330.7 L 904.2 330.7 L 904.2 325.7 L 921.1 325.7 L 923.4 314.4 L 921.4 315.5 L 919.5 316.4 L 917.4 316.9 L 915.4 317 L 912.7 316.8 L 910.3 316.1 L 908.1 314.9 L 906 313.2 L 904.4 311.1 L 903.2 308.8 L 902.5 306.2 L 902.2 303.3 L 902.4 300.6 L 903.1 298 L 904.1 295.6 L 905.6 293.4 L 907.8 291.2 L 910.4 289.5 L 913.3 288.6 L 916.7 288.3 L 919.4 288.5 L 921.9 289.1 L 924.1 290.1 L 926.1 291.5 L 927.7 293.2 L 929 295.3 L 929.8 297.5 L 930.3 300.1 L 930.3 300.1 Z"/><path d="M 897.4 300.1 L 891.9 300.5 L 891.6 298.7 L 891 297 L 890.1 295.7 L 889.2 294.5 L 888 293.7 L 886.7 293.1 L 885.3 292.7 L 883.8 292.5 L 882 292.7 L 880.4 293.2 L 878.8 294.1 L 877.5 295.4 L 876.4 296.9 L 875.5 298.6 L 875.1 300.6 L 874.9 302.9 L 875 305 L 875.5 306.8 L 876.3 308.5 L 877.4 309.9 L 878.7 311 L 880.3 311.8 L 882 312.3 L 883.9 312.4 L 885.1 312.4 L 886.3 312.1 L 887.4 311.8 L 888.4 311.3 L 889.4 310.7 L 890.2 310 L 891 309.2 L 891.6 308.3 L 896.5 309 L 892.4 330.7 L 871.4 330.7 L 871.4 325.7 L 888.2 325.7 L 890.5 314.4 L 888.6 315.5 L 886.6 316.4 L 884.6 316.9 L 882.5 317 L 879.9 316.8 L 877.4 316.1 L 875.2 314.9 L 873.2 313.2 L 871.5 311.1 L 870.3 308.8 L 869.6 306.2 L 869.4 303.3 L 869.6 300.6 L 870.2 298 L 871.2 295.6 L 872.7 293.4 L 874.9 291.2 L 877.5 289.5 L 880.5 288.6 L 883.8 288.3 L 886.6 288.5 L 889.1 289.1 L 891.3 290.1 L 893.2 291.5 L 894.9 293.2 L 896.1 295.3 L 896.9 297.5 L 897.4 300.1 L 897.4 300.1 Z"/><path d="M 864.5 300.1 L 859.1 300.5 L 858.7 298.7 L 858.1 297 L 857.3 295.7 L 856.3 294.5 L 855.1 293.7 L 853.9 293.1 L 852.5 292.7 L 851 292.5 L 849.2 292.7 L 847.5 293.2 L 846 294.1 L 844.6 295.4 L 843.5 296.9 L 842.7 298.6 L 842.2 300.6 L 842 302.9 L 842.2 305 L 842.7 306.8 L 843.4 308.5 L 844.5 309.9 L 845.9 311 L 847.4 311.8 L 849.2 312.3 L 851 312.4 L 852.3 312.4 L 853.4 312.1 L 854.5 311.8 L 855.6 311.3 L 856.6 310.7 L 857.4 310 L 858.1 309.2 L 858.8 308.3 L 863.6 309 L 859.5 330.7 L 838.5 330.7 L 838.5 325.7 L 855.4 325.7 L 857.7 314.4 L 855.7 315.5 L 853.8 316.4 L 851.8 316.9 L 849.7 317 L 847 316.8 L 844.6 316.1 L 842.3 314.9 L 840.3 313.2 L 838.7 311.1 L 837.5 308.8 L 836.8 306.2 L 836.5 303.3 L 836.8 300.6 L 837.4 298 L 838.4 295.6 L 839.9 293.4 L 842.1 291.2 L 844.7 289.5 L 847.7 288.6 L 851 288.3 L 853.7 288.5 L 856.2 289.1 L 858.4 290.1 L 860.4 291.5 L 862 293.2 L 863.2 295.3 L 864.1 297.5 L 864.5 300.1 L 864.5 300.1 Z"/><path d="M 793.9 292.8 L 795.3 291.6 L 795.5 291.5 L 797.5 294.4 L 796.6 295.2 L 795.8 296.2 L 795.1 297.3 L 794.8 298.2 L 794.5 299.5 L 794.4 300.8 L 794.3 302.5 L 794.3 304.4 L 794.3 304.4 L 795.9 303.8 L 797.9 303.3 L 800.1 302.8 L 802.8 302.4 L 804.3 302.2 L 805.5 301.9 L 806.6 301.6 L 807.3 301.4 L 807.9 301 L 808.5 300.6 L 809 300.2 L 809.4 299.7 L 809.7 299.1 L 809.9 298.5 L 810.1 297.9 L 810.1 297.2 L 810 296.2 L 809.7 295.3 L 809.2 294.5 L 808.5 293.8 L 807.7 293.1 L 806.6 292.7 L 805.3 292.5 L 803.9 292.4 L 802.5 292.5 L 801.1 292.7 L 799.8 293.1 L 798.6 293.7 L 797.5 294.4 L 795.5 291.5 L 796.7 290.7 L 798.1 289.9 L 799.4 289.3 L 800.8 288.9 L 802.2 288.6 L 803.6 288.4 L 805.1 288.3 L 807.5 288.4 L 809.6 288.9 L 811.4 289.7 L 812.9 290.8 L 814.1 292.1 L 814.9 293.6 L 815.5 295.3 L 815.6 297.1 L 815.6 298.2 L 815.4 299.2 L 815.1 300.2 L 814.6 301.2 L 814 302.1 L 813.4 302.9 L 812.7 303.6 L 811.9 304.2 L 811.1 304.7 L 810.1 305.1 L 809.2 305.5 L 808.2 305.8 L 807.3 306.1 L 806.3 306.3 L 805 306.4 L 803.6 306.6 L 800.6 307 L 798.1 307.5 L 796 307.9 L 794.3 308.4 L 794.3 308.9 L 794.3 309.3 L 794.3 309.6 L 794.3 309.8 L 794.4 311.2 L 794.7 312.5 L 795.1 313.5 L 795.8 314.3 L 796.9 315 L 798.2 315.6 L 799.8 315.9 L 801.7 316 L 803.4 315.9 L 804.9 315.7 L 806.1 315.3 L 807.1 314.7 L 807.9 314 L 808.6 313 L 809.2 311.7 L 809.7 310.2 L 814.7 310.9 L 814.3 312.4 L 813.8 313.8 L 813.2 315.1 L 812.5 316.2 L 811.6 317.1 L 810.5 317.9 L 809.3 318.6 L 807.9 319.2 L 806.3 319.7 L 804.6 320.1 L 802.8 320.3 L 800.9 320.3 L 799 320.3 L 797.4 320.1 L 795.8 319.8 L 794.5 319.4 L 793.4 318.9 L 792.4 318.4 L 791.6 317.7 L 790.9 317.1 L 790.4 316.3 L 789.9 315.5 L 789.6 314.5 L 789.3 313.5 L 789.2 312.7 L 789.1 311.7 L 789.1 310.3 L 789.1 308.8 L 789.1 301.8 L 789 298.5 L 789 295.9 L 788.9 294 L 788.7 292.7 L 788.5 291.7 L 788.2 290.8 L 787.9 289.9 L 787.4 289 L 792.9 289 L 793.2 289.8 L 793.5 290.7 L 793.7 291.7 L 793.9 292.8 L 793.9 292.8 Z"/><path d="M 783.1 298.1 L 778 299 L 777.7 297.5 L 777.1 296.2 L 776.4 295.1 L 775.6 294.2 L 774.5 293.5 L 773.2 293 L 771.7 292.7 L 770 292.6 L 768.4 292.7 L 766.9 292.9 L 765.7 293.4 L 764.7 294 L 764 294.8 L 763.4 295.6 L 763.1 296.5 L 763 297.5 L 763.1 298.3 L 763.4 299 L 763.8 299.7 L 764.5 300.2 L 765.3 300.6 L 766.4 301 L 767.9 301.5 L 769.8 302 L 772.5 302.7 L 774.7 303.3 L 776.4 303.9 L 777.7 304.5 L 778.8 305.1 L 779.7 305.7 L 780.5 306.5 L 781.1 307.4 L 781.6 308.3 L 781.9 309.4 L 782.1 310.4 L 782.2 311.5 L 782.2 312.5 L 782 313.4 L 781.7 314.4 L 781.3 315.3 L 780.8 316.1 L 780.2 316.9 L 779.5 317.6 L 778.8 318.2 L 778.1 318.6 L 777.3 319 L 776.4 319.4 L 775.5 319.7 L 774.4 320 L 773.3 320.1 L 772.1 320.3 L 771 320.3 L 769.2 320.3 L 767.6 320.1 L 766 319.7 L 764.6 319.3 L 763.4 318.7 L 762.3 318.1 L 761.4 317.3 L 760.6 316.5 L 760 315.5 L 759.5 314.4 L 759.1 313.1 L 758.8 311.7 L 763.9 311 L 764.2 312.1 L 764.5 313.1 L 765.1 314 L 765.9 314.7 L 766.8 315.3 L 767.9 315.7 L 769.2 316 L 770.6 316 L 772.2 316 L 773.6 315.8 L 774.8 315.4 L 775.7 314.9 L 776.4 314.2 L 776.8 313.6 L 777.1 312.9 L 777.2 312.1 L 777.2 311.6 L 777.1 311.1 L 776.9 310.7 L 776.6 310.3 L 776.2 309.9 L 775.8 309.5 L 775.2 309.2 L 774.6 308.9 L 774 308.7 L 773.1 308.4 L 771.7 308.1 L 770 307.6 L 767.5 306.9 L 765.3 306.2 L 763.6 305.6 L 762.3 305.2 L 761.3 304.6 L 760.4 304 L 759.6 303.3 L 758.9 302.4 L 758.4 301.5 L 758 300.4 L 757.7 299.3 L 757.7 298 L 757.8 296.7 L 758.1 295.5 L 758.5 294.3 L 759.2 293.1 L 760 292 L 761 291.1 L 762.2 290.3 L 763.6 289.5 L 765 289 L 766.6 288.6 L 768.2 288.4 L 770 288.3 L 772.8 288.4 L 775.3 288.9 L 777.3 289.7 L 779.1 290.8 L 780.5 292.2 L 781.7 293.9 L 782.5 295.8 L 783.1 298.1 L 783.1 298.1 Z"/><path d="M 740.2 293.6 L 739.4 289 L 740.5 288.8 L 741.5 288.7 L 742.4 288.6 L 743.3 288.6 L 744.7 288.6 L 745.8 288.8 L 746.9 289.1 L 747.7 289.5 L 748.4 290 L 749 290.5 L 749.5 291.2 L 749.9 291.8 L 750.2 292.8 L 750.4 294.1 L 750.5 295.8 L 750.5 298 L 750.5 315.6 L 754.4 315.6 L 754.4 319.6 L 750.5 319.6 L 750.5 327.2 L 745.4 330.3 L 745.4 319.6 L 740.2 319.6 L 740.2 315.6 L 745.4 315.6 L 745.4 297.7 L 745.4 296.7 L 745.3 295.8 L 745.2 295.3 L 745.1 294.8 L 744.9 294.5 L 744.7 294.2 L 744.5 294 L 744.2 293.8 L 743.9 293.6 L 743.4 293.5 L 743 293.4 L 742.4 293.4 L 742 293.4 L 741.4 293.5 L 740.8 293.6 L 740.2 293.6 L 740.2 293.6 Z"/><path d="M 715.1 292.8 L 716.5 291.6 L 716.8 291.5 L 718.7 294.4 L 717.8 295.2 L 717 296.2 L 716.4 297.3 L 716 298.2 L 715.7 299.5 L 715.6 300.8 L 715.5 302.5 L 715.5 304.4 L 715.5 304.4 L 717.1 303.8 L 719.1 303.3 L 721.4 302.8 L 724 302.4 L 725.5 302.2 L 726.8 301.9 L 727.8 301.6 L 728.5 301.4 L 729.2 301 L 729.7 300.6 L 730.2 300.2 L 730.6 299.7 L 730.9 299.1 L 731.1 298.5 L 731.3 297.9 L 731.3 297.2 L 731.2 296.2 L 730.9 295.3 L 730.4 294.5 L 729.7 293.8 L 728.9 293.1 L 727.8 292.7 L 726.6 292.5 L 725.1 292.4 L 723.7 292.5 L 722.3 292.7 L 721 293.1 L 719.8 293.7 L 718.7 294.4 L 716.8 291.5 L 717.9 290.7 L 719.3 289.9 L 720.6 289.3 L 722 288.9 L 723.4 288.6 L 724.9 288.4 L 726.4 288.3 L 728.8 288.4 L 730.8 288.9 L 732.6 289.7 L 734.1 290.8 L 735.3 292.1 L 736.2 293.6 L 736.7 295.3 L 736.8 297.1 L 736.8 298.2 L 736.6 299.2 L 736.3 300.2 L 735.8 301.2 L 735.3 302.1 L 734.6 302.9 L 733.9 303.6 L 733.1 304.2 L 732.3 304.7 L 731.4 305.1 L 730.4 305.5 L 729.4 305.8 L 728.5 306.1 L 727.5 306.3 L 726.2 306.4 L 724.8 306.6 L 721.9 307 L 719.4 307.5 L 717.2 307.9 L 715.5 308.4 L 715.5 308.9 L 715.5 309.3 L 715.5 309.6 L 715.5 309.8 L 715.6 311.2 L 715.9 312.5 L 716.3 313.5 L 717 314.3 L 718.1 315 L 719.4 315.6 L 721 315.9 L 722.9 316 L 724.6 315.9 L 726.1 315.7 L 727.3 315.3 L 728.3 314.7 L 729.1 314 L 729.8 313 L 730.4 311.7 L 730.9 310.2 L 736 310.9 L 735.5 312.4 L 735 313.8 L 734.4 315.1 L 733.7 316.2 L 732.8 317.1 L 731.7 317.9 L 730.5 318.6 L 729.1 319.2 L 727.5 319.7 L 725.8 320.1 L 724 320.3 L 722.1 320.3 L 720.3 320.3 L 718.6 320.1 L 717.1 319.8 L 715.8 319.4 L 714.6 318.9 L 713.6 318.4 L 712.8 317.7 L 712.1 317.1 L 711.6 316.3 L 711.2 315.5 L 710.8 314.5 L 710.5 313.5 L 710.4 312.7 L 710.3 311.7 L 710.3 310.3 L 710.3 308.8 L 710.3 301.8 L 710.3 298.5 L 710.2 295.9 L 710.1 294 L 709.9 292.7 L 709.7 291.7 L 709.5 290.8 L 709.1 289.9 L 708.6 289 L 714.1 289 L 714.4 289.8 L 714.7 290.7 L 714.9 291.7 L 715.1 292.8 L 715.1 292.8 Z"/><path d="M 697.5 289 L 702.3 289 L 702.3 331.3 L 697.1 331.3 L 697.1 316.2 L 695.3 318 L 693.3 319.3 L 691.1 320.1 L 688.7 320.3 L 687.3 320.3 L 685.9 320 L 684.6 319.7 L 683.3 319.2 L 682.1 318.6 L 681 317.8 L 680.1 316.9 L 679.2 316 L 678.4 314.9 L 677.7 313.7 L 677.1 312.4 L 676.6 311 L 676.2 309.5 L 675.9 308 L 675.8 306.4 L 675.7 304.8 L 676 301 L 676.7 297.8 L 677.9 295 L 679.6 292.6 L 681.6 290.7 L 683.9 289.4 L 686.3 288.6 L 689 288.3 L 691.5 288.6 L 693.8 289.4 L 695.8 290.8 L 697.3 292.6 L 694.7 294.8 L 693.1 293.6 L 691.4 292.8 L 689.4 292.6 L 687.7 292.8 L 686.2 293.3 L 684.8 294.2 L 683.5 295.5 L 682.4 297.2 L 681.6 299.2 L 681.2 301.6 L 681 304.4 L 681.2 307.1 L 681.6 309.5 L 682.3 311.6 L 683.4 313.2 L 684.7 314.4 L 686 315.3 L 687.5 315.8 L 689.2 316 L 690.8 315.8 L 692.3 315.3 L 693.7 314.4 L 695 313.1 L 696.1 311.4 L 696.9 309.5 L 697.3 307.2 L 697.5 304.5 L 697.5 304.5 L 697.4 302 L 697.1 299.8 L 696.7 298 L 696 296.6 L 694.7 294.8 L 697.3 292.6 L 697.5 292.8 L 697.5 289 L 697.5 289 Z"/><path d="M 669.5 289 L 669.5 331.3 L 664.3 331.3 L 664.3 289 L 669.5 289 L 669.5 289 Z"/><path d="M 635.3 298.8 L 629.9 298.2 L 630.7 296 L 631.8 294 L 633.1 292.3 L 634.7 290.9 L 636.5 289.8 L 638.6 289 L 640.9 288.5 L 643.4 288.3 L 646.6 288.6 L 649.4 289.4 L 651.9 290.6 L 654.1 292.5 L 655.8 294.7 L 657 297.4 L 657.8 300.5 L 658 304 L 657.8 307.7 L 657 310.9 L 655.8 313.7 L 654 316 L 651.9 317.9 L 649.5 319.2 L 646.7 320.1 L 643.7 320.3 L 643.3 320.3 L 643.6 316 L 645.4 315.9 L 646.9 315.5 L 648.4 314.7 L 649.7 313.6 L 650.7 312.3 L 651.6 310.8 L 652.1 309.2 L 652.3 307.3 L 652.3 307.3 L 635.3 307.3 L 635.5 309.1 L 635.9 310.6 L 636.5 311.9 L 637.2 313.1 L 638.6 314.4 L 640.1 315.3 L 641.8 315.8 L 643.6 316 L 643.3 320.3 L 640.8 320.1 L 638.1 319.3 L 635.8 318 L 633.7 316.1 L 631.9 313.8 L 630.8 311.1 L 630 307.9 L 629.8 304.4 L 629.8 304.1 L 629.8 303.8 L 629.8 303.4 L 629.8 303 L 652.7 303 L 652.3 300.6 L 651.8 298.5 L 650.9 296.8 L 649.8 295.3 L 648.4 294.1 L 646.9 293.2 L 645.2 292.7 L 643.4 292.6 L 642 292.7 L 640.7 292.9 L 639.6 293.4 L 638.5 294.1 L 637.5 294.9 L 636.7 296 L 636 297.3 L 635.3 298.8 L 635.3 298.8 Z"/><path d="M 892.1 231.9 L 903 260.1 L 899 260.1 L 891.6 239.6 L 891.2 238.4 L 890.8 237.2 L 890.5 236.1 L 890.1 235 L 889.8 236.2 L 889.4 237.3 L 889.1 238.5 L 888.6 239.6 L 881 260.1 L 877.2 260.1 L 888.2 231.9 L 892.1 231.9 L 892.1 231.9 Z"/><path d="M 862.5 238.5 L 858.9 238.1 L 859.4 236.6 L 860.1 235.3 L 861 234.1 L 862.1 233.2 L 863.3 232.4 L 864.7 231.9 L 866.2 231.6 L 867.9 231.4 L 870 231.6 L 871.9 232.1 L 873.6 233 L 875 234.2 L 876.2 235.7 L 877 237.5 L 877.5 239.6 L 877.7 241.9 L 877.5 244.4 L 877 246.5 L 876.2 248.4 L 875 249.9 L 873.6 251.2 L 871.9 252.1 L 870.1 252.6 L 868.1 252.8 L 867.8 252.8 L 868.1 249.9 L 869.2 249.8 L 870.3 249.5 L 871.2 249 L 872.1 248.3 L 872.8 247.5 L 873.3 246.5 L 873.7 245.3 L 873.9 244.1 L 873.9 244.1 L 862.5 244.1 L 862.7 245.3 L 862.9 246.3 L 863.3 247.2 L 863.8 247.9 L 864.7 248.8 L 865.7 249.4 L 866.8 249.8 L 868.1 249.9 L 867.8 252.8 L 866.2 252.6 L 864.4 252.1 L 862.8 251.2 L 861.4 250 L 860.3 248.4 L 859.5 246.6 L 859 244.5 L 858.8 242.1 L 858.8 242 L 858.8 241.8 L 858.8 241.5 L 858.8 241.2 L 874.1 241.2 L 873.9 239.7 L 873.5 238.2 L 872.9 237.1 L 872.1 236.1 L 871.2 235.3 L 870.3 234.7 L 869.1 234.4 L 867.9 234.3 L 867 234.4 L 866.1 234.5 L 865.3 234.9 L 864.6 235.3 L 864 235.9 L 863.4 236.6 L 862.9 237.5 L 862.5 238.5 L 862.5 238.5 Z"/><path d="M 854.6 231.9 L 854.6 252.3 L 851.5 252.3 L 851.5 249.2 L 850.9 250.2 L 850.4 251 L 849.8 251.7 L 849.3 252.1 L 848.8 252.4 L 848.2 252.6 L 847.7 252.7 L 847.1 252.8 L 846.2 252.7 L 845.3 252.5 L 844.4 252.1 L 843.5 251.7 L 844.7 248.4 L 845.4 248.8 L 846 249 L 846.6 249.2 L 847.3 249.2 L 847.8 249.2 L 848.3 249 L 848.8 248.8 L 849.3 248.5 L 849.7 248.2 L 850.1 247.7 L 850.4 247.2 L 850.6 246.6 L 850.8 245.7 L 851 244.7 L 851.1 243.7 L 851.2 242.6 L 851.2 231.9 L 854.6 231.9 L 854.6 231.9 Z"/><path d="M 842.9 238 L 839.4 238.5 L 839.2 237.6 L 838.9 236.7 L 838.4 236 L 837.9 235.4 L 837.1 234.9 L 836.2 234.6 L 835.3 234.4 L 834.2 234.3 L 833.1 234.4 L 832.1 234.5 L 831.3 234.8 L 830.6 235.3 L 830.1 235.8 L 829.7 236.3 L 829.5 236.9 L 829.5 237.5 L 829.5 238.1 L 829.7 238.6 L 830 239 L 830.5 239.4 L 831 239.6 L 831.7 239.9 L 832.7 240.2 L 834 240.6 L 835.8 241 L 837.2 241.4 L 838.4 241.9 L 839.3 242.2 L 840 242.6 L 840.6 243.1 L 841.1 243.6 L 841.5 244.2 L 841.9 244.8 L 842.1 245.5 L 842.2 246.2 L 842.3 246.9 L 842.3 247.6 L 842.1 248.2 L 841.9 248.8 L 841.7 249.4 L 841.3 250 L 840.9 250.5 L 840.5 251 L 840 251.4 L 839.5 251.6 L 839 251.9 L 838.4 252.1 L 837.8 252.4 L 837.1 252.5 L 836.3 252.7 L 835.6 252.8 L 834.8 252.8 L 833.6 252.7 L 832.5 252.6 L 831.5 252.4 L 830.6 252.1 L 829.7 251.7 L 829 251.3 L 828.4 250.8 L 827.9 250.2 L 827.5 249.6 L 827.1 248.8 L 826.9 248 L 826.7 247.1 L 830.1 246.6 L 830.2 247.3 L 830.5 248 L 830.9 248.6 L 831.4 249.1 L 832 249.4 L 832.7 249.7 L 833.6 249.9 L 834.5 249.9 L 835.6 249.9 L 836.6 249.7 L 837.3 249.5 L 837.9 249.2 L 838.4 248.8 L 838.7 248.3 L 838.9 247.8 L 839 247.3 L 838.9 247 L 838.8 246.7 L 838.7 246.4 L 838.5 246.1 L 838.3 245.8 L 838 245.6 L 837.6 245.4 L 837.2 245.2 L 836.8 245.1 L 836.2 244.9 L 835.3 244.6 L 834.2 244.3 L 832.4 243.8 L 831 243.4 L 829.9 243 L 829 242.7 L 828.3 242.3 L 827.7 241.9 L 827.2 241.4 L 826.8 240.9 L 826.4 240.2 L 826.1 239.5 L 826 238.8 L 825.9 237.9 L 826 237.1 L 826.2 236.2 L 826.5 235.4 L 826.9 234.7 L 827.5 233.9 L 828.2 233.3 L 828.9 232.7 L 829.8 232.3 L 830.8 231.9 L 831.9 231.7 L 833 231.5 L 834.2 231.4 L 836 231.6 L 837.7 231.9 L 839 232.4 L 840.2 233.1 L 841.2 234 L 841.9 235.1 L 842.5 236.5 L 842.9 238 L 842.9 238 Z"/><path d="M 821.8 231.9 L 821.8 252.3 L 818.3 252.3 L 818.3 231.9 L 821.8 231.9 L 821.8 231.9 Z"/><path d="M 821.8 256.1 L 821.8 260.1 L 818.3 260.1 L 818.3 256.1 L 821.8 256.1 L 821.8 256.1 Z"/><path d="M 814.4 242.1 L 814.2 244.8 L 813.6 247.1 L 812.6 249 L 811.2 250.5 L 809.8 251.5 L 808.2 252.2 L 806.6 252.7 L 804.7 252.8 L 802.7 252.6 L 800.9 252.1 L 799.3 251.2 L 797.9 250 L 796.7 248.5 L 795.9 246.8 L 795.4 244.7 L 795.2 242.4 L 795.3 240.5 L 795.5 238.9 L 795.9 237.4 L 796.4 236.2 L 797.1 235.1 L 797.9 234.2 L 798.8 233.4 L 799.8 232.7 L 801 232.1 L 802.2 231.8 L 803.4 231.5 L 804.7 231.4 L 805 231.5 L 804.7 234.3 L 803.5 234.4 L 802.4 234.8 L 801.4 235.4 L 800.5 236.2 L 799.7 237.4 L 799.2 238.7 L 798.9 240.3 L 798.8 242.2 L 798.9 244 L 799.2 245.6 L 799.7 246.9 L 800.5 248 L 801.4 248.8 L 802.4 249.4 L 803.5 249.8 L 804.7 249.9 L 806 249.8 L 807.1 249.4 L 808.2 248.8 L 809.1 248 L 809.8 246.9 L 810.3 245.5 L 810.7 244 L 810.8 242.1 L 810.8 242.1 L 810.7 240.3 L 810.3 238.7 L 809.8 237.3 L 809.1 236.2 L 808.2 235.4 L 807.1 234.8 L 806 234.4 L 804.7 234.3 L 805 231.5 L 806.8 231.6 L 808.6 232.1 L 810.3 233 L 811.7 234.2 L 812.9 235.7 L 813.7 237.5 L 814.2 239.7 L 814.4 242.1 L 814.4 242.1 Z"/><path d="M 791.2 231.9 L 791.2 252.3 L 788.1 252.3 L 788.1 249.4 L 786.8 250.9 L 785.3 251.9 L 783.5 252.6 L 781.6 252.8 L 780.6 252.7 L 779.8 252.6 L 779 252.4 L 778.1 252.1 L 777.4 251.8 L 776.8 251.4 L 776.3 250.9 L 775.8 250.4 L 775.5 249.8 L 775.2 249.2 L 774.9 248.5 L 774.7 247.8 L 774.7 247.3 L 774.6 246.5 L 774.6 245.6 L 774.5 244.5 L 774.5 231.9 L 778 231.9 L 778 244.3 L 778.1 245.3 L 778.1 246.2 L 778.2 246.9 L 778.4 247.5 L 778.7 248 L 779 248.4 L 779.4 248.8 L 779.9 249.2 L 780.4 249.4 L 781 249.6 L 781.6 249.7 L 782.3 249.8 L 783.3 249.7 L 784.3 249.4 L 785.3 249 L 786.1 248.4 L 786.8 247.5 L 787.3 246.4 L 787.6 244.9 L 787.7 243.1 L 787.7 231.9 L 791.2 231.9 L 791.2 231.9 Z"/><path d="M 746.2 231.9 L 749.7 231.9 L 749.7 254 L 750.4 253.4 L 751.2 252.8 L 752 252.2 L 753 251.6 L 754 251 L 754.9 250.5 L 755.8 250.1 L 756.6 249.8 L 756.6 253.1 L 755.2 253.8 L 753.9 254.6 L 752.7 255.5 L 751.6 256.4 L 750.5 257.4 L 749.7 258.4 L 749 259.3 L 748.5 260.2 L 746.2 260.2 L 746.2 231.9 L 746.2 231.9 Z"/><path d="M 735.5 231.9 L 735.5 235.8 L 731.5 235.8 L 731.5 231.9 L 735.5 231.9 L 735.5 231.9 Z"/><path d="M 726.4 245.8 L 726.4 248.2 L 726.2 250.3 L 725.9 252.2 L 725.4 253.8 L 724.8 255.3 L 724.2 256.6 L 723.3 257.7 L 722.3 258.6 L 721.3 259.3 L 720.1 259.8 L 718.7 260.1 L 717.3 260.2 L 716.2 260.1 L 715.1 260 L 714.2 259.7 L 713.3 259.3 L 712.5 258.8 L 711.7 258.2 L 711 257.5 L 710.5 256.7 L 709.9 255.8 L 709.5 254.7 L 709 253.6 L 708.7 252.5 L 708.4 251.1 L 708.2 249.6 L 708.1 247.8 L 708.1 245.8 L 708.1 243.4 L 708.3 241.3 L 708.6 239.4 L 709.1 237.8 L 709.7 236.4 L 710.4 235.1 L 711.2 234 L 712.1 233.1 L 713.2 232.4 L 714.4 231.8 L 715.8 231.5 L 717.3 231.4 L 717.5 231.4 L 717.3 234.3 L 716.1 234.4 L 715.1 234.9 L 714.1 235.6 L 713.2 236.6 L 712.5 238 L 712 240.1 L 711.7 242.6 L 711.6 245.8 L 711.7 249 L 712 251.6 L 712.5 253.6 L 713.2 255.1 L 714.1 256 L 715.1 256.8 L 716.1 257.2 L 717.3 257.3 L 718.4 257.2 L 719.4 256.8 L 720.3 256.2 L 721.1 255.3 L 721.9 253.8 L 722.5 251.7 L 722.8 249 L 722.9 245.8 L 722.9 245.8 L 722.8 242.6 L 722.5 240 L 722 238 L 721.3 236.6 L 720.4 235.6 L 719.5 234.9 L 718.4 234.4 L 717.3 234.3 L 717.5 231.4 L 719.2 231.6 L 720.9 232.1 L 722.4 233.1 L 723.6 234.4 L 724.9 236.4 L 725.8 239 L 726.3 242.1 L 726.4 245.8 L 726.4 245.8 Z"/><path d="M 702.6 231.9 L 702.6 235.8 L 698.7 235.8 L 698.7 231.9 L 702.6 231.9 L 702.6 231.9 Z"/><path d="M 693.6 245.8 L 693.6 248.2 L 693.4 250.3 L 693.1 252.2 L 692.6 253.8 L 692 255.3 L 691.3 256.6 L 690.5 257.7 L 689.5 258.6 L 688.4 259.3 L 687.2 259.8 L 685.9 260.1 L 684.4 260.2 L 683.3 260.1 L 682.3 260 L 681.3 259.7 L 680.5 259.3 L 679.6 258.8 L 678.9 258.2 L 678.2 257.5 L 677.6 256.7 L 677.1 255.8 L 676.6 254.7 L 676.2 253.6 L 675.9 252.5 L 675.6 251.1 L 675.4 249.6 L 675.3 247.8 L 675.2 245.8 L 675.3 243.4 L 675.5 241.3 L 675.8 239.4 L 676.2 237.8 L 676.8 236.4 L 677.5 235.1 L 678.4 234 L 679.3 233.1 L 680.4 232.4 L 681.6 231.8 L 682.9 231.5 L 684.4 231.4 L 684.7 231.4 L 684.4 234.3 L 683.3 234.4 L 682.2 234.9 L 681.3 235.6 L 680.4 236.6 L 679.7 238 L 679.2 240.1 L 678.9 242.6 L 678.8 245.8 L 678.9 249 L 679.2 251.6 L 679.7 253.6 L 680.4 255.1 L 681.3 256 L 682.2 256.8 L 683.3 257.2 L 684.5 257.3 L 685.6 257.2 L 686.6 256.8 L 687.5 256.2 L 688.2 255.3 L 689 253.8 L 689.6 251.7 L 689.9 249 L 690.1 245.8 L 690.1 245.8 L 689.9 242.6 L 689.7 240 L 689.2 238 L 688.4 236.6 L 687.6 235.6 L 686.6 234.9 L 685.6 234.4 L 684.4 234.3 L 684.7 231.4 L 686.4 231.6 L 688.1 232.1 L 689.5 233.1 L 690.8 234.4 L 692 236.4 L 692.9 239 L 693.4 242.1 L 693.6 245.8 L 693.6 245.8 Z"/></g></g><use class="pcb_board-cf" mask="url(#pcb_bottom-cu_finish-mask)" xlink:href="#pcb_bottom-sm"/></g></g></svg>