<?xml-stylesheet href="https://s3.amazonaws.com/maker.works.boards/css/blackpcb.css" type="text/css"?><svg xmlns="http://www.w3.org/2000/svg" version="1.1" xmlns:xlink="http://www.w3.org/1999/xlink" stroke-width="0" stroke-linecap="round" stroke-linejoin="round" width="1.0235999999999998in" height="0.5117999999999999in" id="pcb_top" viewBox="7.5 7.5 1023.5999999999999 511.79999999999995"><defs><circle cx="0" cy="0" r="6.5" id="tool-T10-pad-1000"/><circle cx="0" cy="0" r="20.5" id="tool-T11-pad-1001"/><circle cx="0" cy="0" r="20.5" id="tool-T12-pad-1002"/><circle cx="0" cy="0" r="21.5" id="tool-T13-pad-1003"/><circle cx="0" cy="0" r="13.55" id="tool-D12-pad-1018"/><circle cx="0" cy="0" r="31.5" id="tool-D13-pad-1019"/><rect x="-13.203" y="-25.998" width="26.406" height="51.996" transform="rotate(270)" id="tool-D14-pad-1020"/><circle cx="0" cy="0" r="31.5" id="tool-D15-pad-1021"/><rect x="-30.5" y="-11.8" width="61" height="23.6" id="tool-D16-pad-1022"/><circle cx="0" cy="0" r="32.5" id="tool-D17-pad-1023"/><rect x="-32.4805" y="-32.4805" width="64.961" height="64.961" transform="rotate(180)" id="tool-D18-pad-1024"/><circle cx="0" cy="0" r="9.85" id="tool-D12-pad-1027"/><circle cx="0" cy="0" r="9.85" id="tool-D13-pad-1028"/><circle cx="0" cy="0" r="9.85" id="tool-D14-pad-1029"/><circle cx="0" cy="0" r="31.5" id="tool-D10-pad-1030"/><rect x="-13.203" y="-25.998" width="26.406" height="51.996" transform="rotate(270)" id="tool-D11-pad-1031"/><circle cx="0" cy="0" r="31.5" id="tool-D12-pad-1032"/><rect x="-30.5" y="-11.8" width="61" height="23.6" id="tool-D13-pad-1033"/><circle cx="0" cy="0" r="32.5" id="tool-D14-pad-1034"/><rect x="-32.4805" y="-32.4805" width="64.961" height="64.961" transform="rotate(180)" id="tool-D15-pad-1035"/><g id="pcb_top-cu" fill="currentColor" stroke="currentColor"><path stroke-width="2" fill="none" d="M 1010.5 498.6 L 1010.5 498.6 M 1010.5 498.6 L 333.3 498.6 M 333.3 498.6 L 332.5 496.8 M 332.5 496.8 L 353.8 475.6 M 353.8 475.6 L 432.1 475.6 M 432.1 475.6 L 433.5 476.4 M 433.5 476.4 L 433.6 476.4 M 433.6 476.4 L 434.8 476.9 M 434.8 476.9 L 434.9 476.9 M 434.9 476.9 L 436.2 477.3 M 436.2 477.3 L 436.2 477.3 M 436.2 477.3 L 437.6 477.4 M 437.6 477.4 L 437.6 477.4 M 437.6 477.4 L 498.7 477.4 M 498.7 477.4 L 498.7 477.4 M 498.7 477.4 L 500 477.3 M 500 477.3 L 500.1 477.3 M 500.1 477.3 L 501.4 476.9 M 501.4 476.9 L 501.5 476.9 M 501.5 476.9 L 502.7 476.4 M 502.7 476.4 L 502.8 476.4 M 502.8 476.4 L 504.1 475.6 M 504.1 475.6 L 614 475.6 M 614 475.6 L 614.1 475.6 M 614.1 475.6 L 617.7 475.2 M 617.7 475.2 L 617.8 475.2 M 617.8 475.2 L 621.2 474.1 M 621.2 474.1 L 621.3 474.1 M 621.3 474.1 L 624.5 472.4 M 624.5 472.4 L 624.6 472.3 M 624.6 472.3 L 625.5 471.6 M 625.5 471.6 L 632.5 473.3 M 632.5 473.3 L 632.6 473.3 M 632.6 473.3 L 642.3 473.3 M 642.3 473.3 L 642.4 473.3 M 642.4 473.3 L 651.8 471 M 651.8 471 L 651.9 471 M 651.9 471 L 660.4 466.5 M 660.4 466.5 L 660.5 466.4 M 660.5 466.4 L 667.7 460 M 667.7 460 L 667.8 459.9 M 667.8 459.9 L 673.3 452 M 673.3 452 L 673.3 451.9 M 673.3 451.9 L 676.8 442.9 M 676.8 442.9 L 676.8 442.7 M 676.8 442.7 L 678 433.2 M 678 433.2 L 678 433 M 678 433 L 676.8 423.4 M 676.8 423.4 L 676.8 423.3 M 676.8 423.3 L 673.3 414.3 M 673.3 414.3 L 673.3 414.2 M 673.3 414.2 L 667.8 406.2 M 667.8 406.2 L 667.7 406.2 M 667.7 406.2 L 660.5 399.8 M 660.5 399.8 L 660.4 399.7 M 660.4 399.7 L 651.9 395.2 M 651.9 395.2 L 651.8 395.2 M 651.8 395.2 L 642.4 392.9 M 642.4 392.9 L 642.3 392.9 M 642.3 392.9 L 632.6 392.9 M 632.6 392.9 L 632.5 392.9 M 632.5 392.9 L 623.1 395.2 M 623.1 395.2 L 623 395.2 M 623 395.2 L 614.4 399.7 M 614.4 399.7 L 614.4 399.8 M 614.4 399.8 L 607.1 406.2 M 607.1 406.2 L 607 406.2 M 607 406.2 L 601.6 414.2 M 601.6 414.2 L 601.5 414.3 M 601.5 414.3 L 598.1 423.3 M 598.1 423.3 L 598.1 423.4 M 598.1 423.4 L 596.9 433 M 596.9 433 L 596.9 433.2 M 596.9 433.2 L 597.4 437.5 M 597.4 437.5 L 504.1 437.5 M 504.1 437.5 L 502.8 436.7 M 502.8 436.7 L 502.7 436.6 M 502.7 436.6 L 501.5 436.1 M 501.5 436.1 L 501.4 436.1 M 501.4 436.1 L 500.1 435.8 M 500.1 435.8 L 500 435.8 M 500 435.8 L 498.7 435.6 M 498.7 435.6 L 498.7 435.6 M 498.7 435.6 L 437.6 435.6 M 437.6 435.6 L 437.6 435.6 M 437.6 435.6 L 436.2 435.8 M 436.2 435.8 L 436.2 435.8 M 436.2 435.8 L 434.9 436.1 M 434.9 436.1 L 434.8 436.1 M 434.8 436.1 L 433.6 436.6 M 433.6 436.6 L 433.5 436.7 M 433.5 436.7 L 432.1 437.5 M 432.1 437.5 L 345.8 437.5 M 345.8 437.5 L 345.8 437.5 M 345.8 437.5 L 342.2 437.8 M 342.2 437.8 L 342.1 437.9 M 342.1 437.9 L 338.6 438.9 M 338.6 438.9 L 338.6 439 M 338.6 439 L 335.3 440.6 M 335.3 440.6 L 335.3 440.7 M 335.3 440.7 L 332.5 443 M 332.5 443 L 332.4 443.1 M 332.4 443.1 L 306.7 468.8 M 306.7 468.8 L 295.1 468.8 M 295.1 468.8 L 295.1 460.1 M 295.1 460.1 L 294.5 459.5 M 294.5 459.5 L 285.1 459.5 M 285.1 459.5 L 285.1 453.5 M 285.1 453.5 L 294.5 453.5 M 294.5 453.5 L 295.1 452.9 M 295.1 452.9 L 295.1 444.7 M 295.1 444.7 L 295.1 444.7 M 295.1 444.7 L 295 443.3 M 295 443.3 L 295 443.2 M 295 443.2 L 294.7 441.9 M 294.7 441.9 L 294.6 441.9 M 294.6 441.9 L 294.1 440.6 M 294.1 440.6 L 294.1 440.6 M 294.1 440.6 L 293.4 439.4 M 293.4 439.4 L 293.3 439.4 M 293.3 439.4 L 292.5 438.3 M 292.5 438.3 L 292.4 438.3 M 292.4 438.3 L 291.4 437.4 M 291.4 437.4 L 291.3 437.4 M 291.3 437.4 L 290.2 436.7 M 290.2 436.7 L 290.1 436.6 M 290.1 436.6 L 288.9 436.1 M 288.9 436.1 L 288.8 436.1 M 288.8 436.1 L 287.5 435.8 M 287.5 435.8 L 287.4 435.8 M 287.4 435.8 L 286.1 435.6 M 286.1 435.6 L 286 435.6 M 286 435.6 L 259.1 435.6 M 259.1 435.6 L 258.5 436.2 M 258.5 436.2 L 258.5 445.7 M 258.5 445.7 L 252.5 445.7 M 252.5 445.7 L 252.5 436.2 M 252.5 436.2 L 251.9 435.6 M 251.9 435.6 L 225 435.6 M 225 435.6 L 224.9 435.6 M 224.9 435.6 L 223.6 435.8 M 223.6 435.8 L 223.6 435.8 M 223.6 435.8 L 222.3 436.1 M 222.3 436.1 L 222.2 436.1 M 222.2 436.1 L 221 436.6 M 221 436.6 L 220.9 436.7 M 220.9 436.7 L 219.7 437.4 M 219.7 437.4 L 219.7 437.4 M 219.7 437.4 L 218.6 438.3 M 218.6 438.3 L 218.6 438.3 M 218.6 438.3 L 217.7 439.4 M 217.7 439.4 L 217.7 439.4 M 217.7 439.4 L 217 440.6 M 217 440.6 L 216.9 440.6 M 216.9 440.6 L 216.4 441.9 M 216.4 441.9 L 216.4 441.9 M 216.4 441.9 L 216.1 443.2 M 216.1 443.2 L 216.1 443.3 M 216.1 443.3 L 216 444.6 M 216 444.6 L 216 444.7 M 216 444.7 L 216 452.9 M 216 452.9 L 216.6 453.5 M 216.6 453.5 L 226 453.5 M 226 453.5 L 226 459.5 M 226 459.5 L 216.6 459.5 M 216.6 459.5 L 216 460.1 M 216 460.1 L 216 468.8 M 216 468.8 L 196.5 468.8 M 196.5 468.8 L 126.8 399 M 126.8 399 L 129.5 397.6 M 129.5 397.6 L 129.5 397.5 M 129.5 397.5 L 136.9 391 M 136.9 391 L 137 390.9 M 137 390.9 L 142.7 382.7 M 142.7 382.7 L 142.7 382.7 M 142.7 382.7 L 146.2 373.4 M 146.2 373.4 L 146.2 373.3 M 146.2 373.3 L 147.5 363.5 M 147.5 363.5 L 147.5 363.3 M 147.5 363.3 L 146.2 353.5 M 146.2 353.5 L 146.2 353.4 M 146.2 353.4 L 145.3 351 M 145.3 351 L 170.7 325.6 M 170.7 325.6 L 219.5 325.6 M 219.5 325.6 L 220.9 326.4 M 220.9 326.4 L 221 326.4 M 221 326.4 L 222.2 326.9 M 222.2 326.9 L 222.3 326.9 M 222.3 326.9 L 223.6 327.3 M 223.6 327.3 L 223.6 327.3 M 223.6 327.3 L 224.9 327.4 M 224.9 327.4 L 225 327.4 M 225 327.4 L 285.6 327.4 M 285.6 327.4 L 286.4 329.2 M 286.4 329.2 L 280 335.6 M 280 335.6 L 225 335.6 M 225 335.6 L 224.9 335.6 M 224.9 335.6 L 223.6 335.8 M 223.6 335.8 L 223.6 335.8 M 223.6 335.8 L 222.3 336.1 M 222.3 336.1 L 222.2 336.1 M 222.2 336.1 L 221 336.6 M 221 336.6 L 220.9 336.7 M 220.9 336.7 L 219.7 337.4 M 219.7 337.4 L 219.7 337.4 M 219.7 337.4 L 218.6 338.3 M 218.6 338.3 L 218.6 338.3 M 218.6 338.3 L 217.7 339.4 M 217.7 339.4 L 217.7 339.4 M 217.7 339.4 L 217 340.6 M 217 340.6 L 216.9 340.6 M 216.9 340.6 L 216.4 341.9 M 216.4 341.9 L 216.4 341.9 M 216.4 341.9 L 216.1 343.2 M 216.1 343.2 L 216.1 343.3 M 216.1 343.3 L 216 344.6 M 216 344.6 L 216 344.7 M 216 344.7 L 216 368.4 M 216 368.4 L 216 368.4 M 216 368.4 L 216.1 369.7 M 216.1 369.7 L 216.1 369.8 M 216.1 369.8 L 216.4 371.1 M 216.4 371.1 L 216.4 371.2 M 216.4 371.2 L 216.9 372.4 M 216.9 372.4 L 217 372.5 M 217 372.5 L 217.7 373.6 M 217.7 373.6 L 217.7 373.7 M 217.7 373.7 L 218.6 374.7 M 218.6 374.7 L 218.6 374.7 M 218.6 374.7 L 219.7 375.6 M 219.7 375.6 L 219.7 375.6 M 219.7 375.6 L 220.9 376.4 M 220.9 376.4 L 221 376.4 M 221 376.4 L 222.2 376.9 M 222.2 376.9 L 222.3 376.9 M 222.3 376.9 L 223.6 377.3 M 223.6 377.3 L 223.6 377.3 M 223.6 377.3 L 224.9 377.4 M 224.9 377.4 L 225 377.4 M 225 377.4 L 286 377.4 M 286 377.4 L 286.1 377.4 M 286.1 377.4 L 287.4 377.3 M 287.4 377.3 L 287.5 377.3 M 287.5 377.3 L 288.8 376.9 M 288.8 376.9 L 288.9 376.9 M 288.9 376.9 L 290.1 376.4 M 290.1 376.4 L 290.2 376.4 M 290.2 376.4 L 291.3 375.6 M 291.3 375.6 L 291.4 375.6 M 291.4 375.6 L 292.4 374.7 M 292.4 374.7 L 292.5 374.7 M 292.5 374.7 L 292.8 374.3 M 292.8 374.3 L 293.3 374.1 M 293.3 374.1 L 293.4 374.1 M 293.4 374.1 L 296.6 372.4 M 296.6 372.4 L 296.7 372.3 M 296.7 372.3 L 299.5 370 M 299.5 370 L 299.5 370 M 299.5 370 L 328.1 341.4 M 328.1 341.4 L 328.1 341.4 M 328.1 341.4 L 330.4 338.6 M 330.4 338.6 L 330.5 338.5 M 330.5 338.5 L 332.1 335.3 M 332.1 335.3 L 332.2 335.2 M 332.2 335.2 L 333.2 331.8 M 333.2 331.8 L 333.3 331.6 M 333.3 331.6 L 333.6 328.1 M 333.6 328.1 L 333.6 328 M 333.6 328 L 333.6 306.5 M 333.6 306.5 L 333.6 306.4 M 333.6 306.4 L 333.3 302.9 M 333.3 302.9 L 333.2 302.7 M 333.2 302.7 L 332.9 301.7 M 332.9 301.7 L 333.2 300.6 M 333.2 300.6 L 333.3 300.5 M 333.3 300.5 L 333.6 296.9 M 333.6 296.9 L 333.6 296.8 M 333.6 296.8 L 333.3 293.2 M 333.3 293.2 L 333.2 293.1 M 333.2 293.1 L 332.2 289.6 M 332.2 289.6 L 332.1 289.5 M 332.1 289.5 L 330.5 286.3 M 330.5 286.3 L 330.4 286.2 M 330.4 286.2 L 328.1 283.4 M 328.1 283.4 L 328.1 283.4 M 328.1 283.4 L 278.8 234.1 M 278.8 234.1 L 278.8 212.8 M 278.8 212.8 L 278.8 212.7 M 278.8 212.7 L 278.6 211.4 M 278.6 211.4 L 278.6 211.4 M 278.6 211.4 L 278.3 210.1 M 278.3 210.1 L 278.3 210 M 278.3 210 L 277.8 208.7 M 277.8 208.7 L 277.7 208.7 M 277.7 208.7 L 277.1 207.5 M 277.1 207.5 L 277 207.5 M 277 207.5 L 276.1 206.4 M 276.1 206.4 L 276.1 206.4 M 276.1 206.4 L 275.1 205.5 M 275.1 205.5 L 275 205.5 M 275 205.5 L 273.8 204.8 M 273.8 204.8 L 273.8 204.7 M 273.8 204.7 L 272.5 204.2 M 272.5 204.2 L 272.5 204.2 M 272.5 204.2 L 271.2 203.9 M 271.2 203.9 L 271.1 203.9 M 271.1 203.9 L 269.8 203.8 M 269.8 203.8 L 269.7 203.8 M 269.7 203.8 L 217.7 203.8 M 217.7 203.8 L 217.7 203.8 M 217.7 203.8 L 216.4 203.9 M 216.4 203.9 L 216.3 203.9 M 216.3 203.9 L 215 204.2 M 215 204.2 L 214.9 204.2 M 214.9 204.2 L 213.6 204.7 M 213.6 204.7 L 213.6 204.8 M 213.6 204.8 L 212.4 205.5 M 212.4 205.5 L 212.4 205.5 M 212.4 205.5 L 211.4 206.4 M 211.4 206.4 L 211.3 206.4 M 211.3 206.4 L 210.8 206.9 M 210.8 206.9 L 143.3 206.9 M 143.3 206.9 L 143.2 206.9 M 143.2 206.9 L 141.5 207.1 M 141.5 207.1 L 140.8 204.6 M 140.8 204.6 L 142.5 204 M 142.5 204 L 142.5 203.9 M 142.5 203.9 L 143.7 203.2 M 143.7 203.2 L 143.8 203.2 M 143.8 203.2 L 144.8 202.3 M 144.8 202.3 L 144.8 202.3 M 144.8 202.3 L 145.7 201.2 M 145.7 201.2 L 145.7 201.2 M 145.7 201.2 L 146.4 200 M 146.4 200 L 146.5 199.9 M 146.5 199.9 L 147 198.7 M 147 198.7 L 147 198.6 M 147 198.6 L 147.3 197.3 M 147.3 197.3 L 147.3 197.3 M 147.3 197.3 L 147.5 195.9 M 147.5 195.9 L 147.5 195.9 M 147.5 195.9 L 147.5 167 M 147.5 167 L 146.9 166.4 M 146.9 166.4 L 137.4 166.4 M 137.4 166.4 L 137.4 160.4 M 137.4 160.4 L 146.9 160.4 M 146.9 160.4 L 147.5 159.8 M 147.5 159.8 L 147.5 130.9 M 147.5 130.9 L 147.5 130.9 M 147.5 130.9 L 147.3 129.5 M 147.3 129.5 L 147.3 129.5 M 147.3 129.5 L 147 128.2 M 147 128.2 L 147 128.1 M 147 128.1 L 146.5 126.9 M 146.5 126.9 L 146.4 126.8 M 146.4 126.8 L 145.7 125.6 M 145.7 125.6 L 145.7 125.6 M 145.7 125.6 L 144.8 124.5 M 144.8 124.5 L 144.8 124.5 M 144.8 124.5 L 143.8 123.6 M 143.8 123.6 L 143.7 123.6 M 143.7 123.6 L 142.5 122.9 M 142.5 122.9 L 142.5 122.9 M 142.5 122.9 L 141.2 122.3 M 141.2 122.3 L 141.2 122.3 M 141.2 122.3 L 139.9 122 M 139.9 122 L 139.8 122 M 139.8 122 L 138.5 121.9 M 138.5 121.9 L 138.4 121.9 M 138.4 121.9 L 109.5 121.9 M 109.5 121.9 L 108.9 122.5 M 108.9 122.5 L 108.9 131.9 M 108.9 131.9 L 102.9 131.9 M 102.9 131.9 L 102.9 122.5 M 102.9 122.5 L 102.3 121.9 M 102.3 121.9 L 73.4 121.9 M 73.4 121.9 L 73.4 121.9 M 73.4 121.9 L 72.1 122 M 72.1 122 L 72 122 M 72 122 L 70.7 122.3 M 70.7 122.3 L 70.6 122.3 M 70.6 122.3 L 69.4 122.9 M 69.4 122.9 L 69.3 122.9 M 69.3 122.9 L 68.2 123.6 M 68.2 123.6 L 68.1 123.6 M 68.1 123.6 L 67.1 124.5 M 67.1 124.5 L 67 124.5 M 67 124.5 L 66.2 125.6 M 66.2 125.6 L 66.1 125.6 M 66.1 125.6 L 65.4 126.8 M 65.4 126.8 L 65.4 126.9 M 65.4 126.9 L 64.9 128.1 M 64.9 128.1 L 64.8 128.2 M 64.8 128.2 L 64.5 129.5 M 64.5 129.5 L 64.5 129.5 M 64.5 129.5 L 64.4 130.8 M 64.4 130.8 L 64.4 130.9 M 64.4 130.9 L 64.4 159.8 M 64.4 159.8 L 65 160.4 M 65 160.4 L 74.4 160.4 M 74.4 160.4 L 74.4 166.4 M 74.4 166.4 L 65 166.4 M 65 166.4 L 64.4 167 M 64.4 167 L 64.4 195.9 M 64.4 195.9 L 64.4 196 M 64.4 196 L 64.5 197.3 M 64.5 197.3 L 64.5 197.3 M 64.5 197.3 L 64.8 198.6 M 64.8 198.6 L 64.9 198.7 M 64.9 198.7 L 65.4 199.9 M 65.4 199.9 L 65.4 200 M 65.4 200 L 66.1 201.2 M 66.1 201.2 L 66.2 201.2 M 66.2 201.2 L 67 202.3 M 67 202.3 L 67.1 202.3 M 67.1 202.3 L 68.1 203.2 M 68.1 203.2 L 68.2 203.2 M 68.2 203.2 L 69.3 203.9 M 69.3 203.9 L 69.4 204 M 69.4 204 L 70.6 204.5 M 70.6 204.5 L 70.7 204.5 M 70.7 204.5 L 72 204.8 M 72 204.8 L 72.1 204.8 M 72.1 204.8 L 73.4 204.9 M 73.4 204.9 L 73.4 204.9 M 73.4 204.9 L 102.3 204.9 M 102.3 204.9 L 102.9 204.4 M 102.9 204.4 L 102.9 194.9 M 102.9 194.9 L 108.9 194.9 M 108.9 194.9 L 108.9 204.4 M 108.9 204.4 L 109.5 204.9 M 109.5 204.9 L 138.7 204.9 M 138.7 204.9 L 139.1 207.5 M 139.1 207.5 L 136.1 208.4 M 136.1 208.4 L 136 208.4 M 136 208.4 L 132.8 210.1 M 132.8 210.1 L 132.7 210.2 M 132.7 210.2 L 129.9 212.5 M 129.9 212.5 L 129.9 212.5 M 129.9 212.5 L 118.4 224 M 118.4 224 L 111 222.2 M 111 222.2 L 110.9 222.2 M 110.9 222.2 L 101 222.2 M 101 222.2 L 100.8 222.2 M 100.8 222.2 L 91.2 224.5 M 91.2 224.5 L 91.2 224.6 M 91.2 224.6 L 82.4 229.2 M 82.4 229.2 L 82.3 229.3 M 82.3 229.3 L 74.9 235.8 M 74.9 235.8 L 74.8 235.9 M 74.8 235.9 L 69.2 244.1 M 69.2 244.1 L 69.1 244.2 M 69.1 244.2 L 65.6 253.4 M 65.6 253.4 L 65.6 253.5 M 65.6 253.5 L 64.4 263.3 M 64.4 263.3 L 64.4 263.5 M 64.4 263.5 L 65.6 273.3 M 65.6 273.3 L 65.6 273.4 M 65.6 273.4 L 69.1 282.7 M 69.1 282.7 L 69.2 282.7 M 69.2 282.7 L 74.8 290.9 M 74.8 290.9 L 74.9 291 M 74.9 291 L 82.3 297.5 M 82.3 297.5 L 82.4 297.6 M 82.4 297.6 L 91.2 302.2 M 91.2 302.2 L 91.2 302.3 M 91.2 302.3 L 100.8 304.6 M 100.8 304.6 L 101 304.6 M 101 304.6 L 110.9 304.6 M 110.9 304.6 L 111 304.6 M 111 304.6 L 120.6 302.3 M 120.6 302.3 L 120.7 302.2 M 120.7 302.2 L 129.5 297.6 M 129.5 297.6 L 129.5 297.5 M 129.5 297.5 L 136.9 291 M 136.9 291 L 137 290.9 M 137 290.9 L 142.7 282.7 M 142.7 282.7 L 142.7 282.7 M 142.7 282.7 L 146.2 273.4 M 146.2 273.4 L 146.2 273.3 M 146.2 273.3 L 147.5 263.5 M 147.5 263.5 L 147.5 263.3 M 147.5 263.3 L 146.2 253.5 M 146.2 253.5 L 146.2 253.4 M 146.2 253.4 L 145.3 251 M 145.3 251 L 151.2 245.1 M 151.2 245.1 L 210.8 245.1 M 210.8 245.1 L 211.3 245.6 M 211.3 245.6 L 211.4 245.6 M 211.4 245.6 L 212.4 246.5 M 212.4 246.5 L 212.4 246.6 M 212.4 246.6 L 213.6 247.2 M 213.6 247.2 L 213.6 247.3 M 213.6 247.3 L 214.9 247.8 M 214.9 247.8 L 215 247.8 M 215 247.8 L 216.3 248.1 M 216.3 248.1 L 216.4 248.1 M 216.4 248.1 L 217.7 248.2 M 217.7 248.2 L 217.7 248.2 M 217.7 248.2 L 239 248.2 M 239 248.2 L 274.6 283.8 M 274.6 283.8 L 273.8 285.6 M 273.8 285.6 L 225 285.6 M 225 285.6 L 224.9 285.6 M 224.9 285.6 L 223.6 285.8 M 223.6 285.8 L 223.6 285.8 M 223.6 285.8 L 222.3 286.1 M 222.3 286.1 L 222.2 286.1 M 222.2 286.1 L 221 286.6 M 221 286.6 L 220.9 286.7 M 220.9 286.7 L 219.5 287.5 M 219.5 287.5 L 162.8 287.5 M 162.8 287.5 L 162.7 287.5 M 162.7 287.5 L 159.2 287.8 M 159.2 287.8 L 159 287.9 M 159 287.9 L 155.6 288.9 M 155.6 288.9 L 155.5 289 M 155.5 289 L 152.3 290.6 M 152.3 290.6 L 152.2 290.7 M 152.2 290.7 L 149.4 293 M 149.4 293 L 149.4 293.1 M 149.4 293.1 L 118.4 324 M 118.4 324 L 111 322.2 M 111 322.2 L 110.9 322.2 M 110.9 322.2 L 101 322.2 M 101 322.2 L 100.8 322.2 M 100.8 322.2 L 91.2 324.5 M 91.2 324.5 L 91.2 324.6 M 91.2 324.6 L 82.4 329.2 M 82.4 329.2 L 82.3 329.3 M 82.3 329.3 L 74.9 335.8 M 74.9 335.8 L 74.8 335.9 M 74.8 335.9 L 69.2 344.1 M 69.2 344.1 L 69.1 344.2 M 69.1 344.2 L 65.6 353.4 M 65.6 353.4 L 65.6 353.5 M 65.6 353.5 L 64.4 363.3 M 64.4 363.3 L 64.4 363.5 M 64.4 363.5 L 65.6 373.3 M 65.6 373.3 L 65.6 373.4 M 65.6 373.4 L 69.1 382.7 M 69.1 382.7 L 69.2 382.7 M 69.2 382.7 L 74.8 390.9 M 74.8 390.9 L 74.9 391 M 74.9 391 L 82.3 397.5 M 82.3 397.5 L 82.4 397.6 M 82.4 397.6 L 86.9 400 M 86.9 400 L 86.9 405.2 M 86.9 405.2 L 86.9 405.2 M 86.9 405.2 L 87.2 408.8 M 87.2 408.8 L 87.3 408.9 M 87.3 408.9 L 88.3 412.4 M 88.3 412.4 L 88.4 412.5 M 88.4 412.5 L 90.1 415.7 M 90.1 415.7 L 90.1 415.8 M 90.1 415.8 L 92.4 418.6 M 92.4 418.6 L 92.5 418.6 M 92.5 418.6 L 170.6 496.8 M 170.6 496.8 L 169.9 498.6 M 169.9 498.6 L 28.2 498.6 M 28.2 498.6 L 28.2 28.2 M 28.2 28.2 L 1010.5 28.2 M 1010.5 28.2 L 1010.5 498.6 M 498.7 335.6 L 498.7 335.6 M 498.7 335.6 L 500 335.8 M 500 335.8 L 500.1 335.8 M 500.1 335.8 L 501.4 336.1 M 501.4 336.1 L 501.5 336.1 M 501.5 336.1 L 502.7 336.6 M 502.7 336.6 L 502.8 336.7 M 502.8 336.7 L 504.1 337.5 M 504.1 337.5 L 718.4 337.5 M 718.4 337.5 L 718.4 337.5 M 718.4 337.5 L 722 337.8 M 722 337.8 L 722.1 337.9 M 722.1 337.9 L 725.6 338.9 M 725.6 338.9 L 725.6 339 M 725.6 339 L 728.9 340.6 M 728.9 340.6 L 729 340.7 M 729 340.7 L 731.8 343 M 731.8 343 L 731.8 343.1 M 731.8 343.1 L 783.2 394.5 M 783.2 394.5 L 789.9 392.9 M 789.9 392.9 L 790.1 392.9 M 790.1 392.9 L 799.7 392.9 M 799.7 392.9 L 799.9 392.9 M 799.9 392.9 L 809.2 395.2 M 809.2 395.2 L 809.4 395.2 M 809.4 395.2 L 817.9 399.7 M 817.9 399.7 L 818 399.8 M 818 399.8 L 825.2 406.2 M 825.2 406.2 L 825.3 406.2 M 825.3 406.2 L 830.6 414 M 830.6 414 L 916.6 414 M 916.6 414 L 922 406.2 M 922 406.2 L 922.1 406.2 M 922.1 406.2 L 929.3 399.8 M 929.3 399.8 L 929.4 399.7 M 929.4 399.7 L 937.9 395.2 M 937.9 395.2 L 938.1 395.2 M 938.1 395.2 L 947.4 392.9 M 947.4 392.9 L 947.5 392.9 M 947.5 392.9 L 957.2 392.9 M 957.2 392.9 L 957.3 392.9 M 957.3 392.9 L 966.7 395.2 M 966.7 395.2 L 966.8 395.2 M 966.8 395.2 L 975.4 399.7 M 975.4 399.7 L 975.5 399.8 M 975.5 399.8 L 982.7 406.2 M 982.7 406.2 L 982.8 406.2 M 982.8 406.2 L 988.2 414.2 M 988.2 414.2 L 988.3 414.3 M 988.3 414.3 L 991.7 423.3 M 991.7 423.3 L 991.8 423.4 M 991.8 423.4 L 992.9 433 M 992.9 433 L 992.9 433.2 M 992.9 433.2 L 991.8 442.7 M 991.8 442.7 L 991.7 442.9 M 991.7 442.9 L 988.3 451.9 M 988.3 451.9 L 988.2 452 M 988.2 452 L 982.8 459.9 M 982.8 459.9 L 982.7 460 M 982.7 460 L 975.5 466.4 M 975.5 466.4 L 975.4 466.5 M 975.4 466.5 L 966.8 471 M 966.8 471 L 966.7 471 M 966.7 471 L 957.3 473.3 M 957.3 473.3 L 957.2 473.3 M 957.2 473.3 L 947.5 473.3 M 947.5 473.3 L 947.4 473.3 M 947.4 473.3 L 938.1 471 M 938.1 471 L 937.9 471 M 937.9 471 L 929.4 466.5 M 929.4 466.5 L 929.3 466.4 M 929.3 466.4 L 922.1 460 M 922.1 460 L 922 459.9 M 922 459.9 L 916.6 452.1 M 916.6 452.1 L 830.6 452.1 M 830.6 452.1 L 825.3 459.9 M 825.3 459.9 L 825.2 460 M 825.2 460 L 818 466.4 M 818 466.4 L 817.9 466.5 M 817.9 466.5 L 809.4 471 M 809.4 471 L 809.2 471 M 809.2 471 L 799.9 473.3 M 799.9 473.3 L 799.7 473.3 M 799.7 473.3 L 790.1 473.3 M 790.1 473.3 L 789.9 473.3 M 789.9 473.3 L 780.6 471 M 780.6 471 L 780.5 471 M 780.5 471 L 771.9 466.5 M 771.9 466.5 L 771.8 466.4 M 771.8 466.4 L 764.6 460 M 764.6 460 L 764.5 459.9 M 764.5 459.9 L 759 452 M 759 452 L 759 451.9 M 759 451.9 L 755.6 442.9 M 755.6 442.9 L 755.5 442.7 M 755.5 442.7 L 754.4 433.2 M 754.4 433.2 L 754.4 433 M 754.4 433 L 755.5 423.4 M 755.5 423.4 L 755.6 423.3 M 755.6 423.3 L 756.3 421.4 M 756.3 421.4 L 710.5 375.6 M 710.5 375.6 L 504.1 375.6 M 504.1 375.6 L 502.8 376.4 M 502.8 376.4 L 502.7 376.4 M 502.7 376.4 L 501.5 376.9 M 501.5 376.9 L 501.4 376.9 M 501.4 376.9 L 500.1 377.3 M 500.1 377.3 L 500 377.3 M 500 377.3 L 498.7 377.4 M 498.7 377.4 L 498.7 377.4 M 498.7 377.4 L 437.6 377.4 M 437.6 377.4 L 437.6 377.4 M 437.6 377.4 L 436.2 377.3 M 436.2 377.3 L 436.2 377.3 M 436.2 377.3 L 434.9 376.9 M 434.9 376.9 L 434.8 376.9 M 434.8 376.9 L 433.6 376.4 M 433.6 376.4 L 433.5 376.4 M 433.5 376.4 L 432.1 375.6 M 432.1 375.6 L 393.7 375.6 M 393.7 375.6 L 349.3 420 M 349.3 420 L 349.2 420 M 349.2 420 L 346.4 422.3 M 346.4 422.3 L 346.4 422.4 M 346.4 422.4 L 343.2 424.1 M 343.2 424.1 L 343.1 424.1 M 343.1 424.1 L 339.6 425.2 M 339.6 425.2 L 339.5 425.2 M 339.5 425.2 L 335.9 425.6 M 335.9 425.6 L 335.8 425.6 M 335.8 425.6 L 291.5 425.6 M 291.5 425.6 L 290.2 426.4 M 290.2 426.4 L 290.1 426.4 M 290.1 426.4 L 288.9 426.9 M 288.9 426.9 L 288.8 426.9 M 288.8 426.9 L 287.5 427.3 M 287.5 427.3 L 287.4 427.3 M 287.4 427.3 L 286.1 427.4 M 286.1 427.4 L 286 427.4 M 286 427.4 L 225 427.4 M 225 427.4 L 224.9 427.4 M 224.9 427.4 L 223.6 427.3 M 223.6 427.3 L 223.6 427.3 M 223.6 427.3 L 222.3 426.9 M 222.3 426.9 L 222.2 426.9 M 222.2 426.9 L 221 426.4 M 221 426.4 L 220.9 426.4 M 220.9 426.4 L 219.7 425.6 M 219.7 425.6 L 219.7 425.6 M 219.7 425.6 L 218.6 424.7 M 218.6 424.7 L 218.6 424.7 M 218.6 424.7 L 217.7 423.7 M 217.7 423.7 L 217.7 423.6 M 217.7 423.6 L 217 422.5 M 217 422.5 L 216.9 422.4 M 216.9 422.4 L 216.4 421.2 M 216.4 421.2 L 216.4 421.1 M 216.4 421.1 L 216.1 419.8 M 216.1 419.8 L 216.1 419.7 M 216.1 419.7 L 216 418.4 M 216 418.4 L 216 418.4 M 216 418.4 L 216 394.7 M 216 394.7 L 216 394.6 M 216 394.6 L 216.1 393.3 M 216.1 393.3 L 216.1 393.2 M 216.1 393.2 L 216.4 391.9 M 216.4 391.9 L 216.4 391.9 M 216.4 391.9 L 216.9 390.6 M 216.9 390.6 L 217 390.6 M 217 390.6 L 217.7 389.4 M 217.7 389.4 L 217.7 389.4 M 217.7 389.4 L 218.6 388.3 M 218.6 388.3 L 218.6 388.3 M 218.6 388.3 L 219.7 387.4 M 219.7 387.4 L 219.7 387.4 M 219.7 387.4 L 220.9 386.7 M 220.9 386.7 L 221 386.6 M 221 386.6 L 222.2 386.1 M 222.2 386.1 L 222.3 386.1 M 222.3 386.1 L 223.6 385.8 M 223.6 385.8 L 223.6 385.8 M 223.6 385.8 L 224.9 385.6 M 224.9 385.6 L 225 385.6 M 225 385.6 L 286 385.6 M 286 385.6 L 286.1 385.6 M 286.1 385.6 L 287.4 385.8 M 287.4 385.8 L 287.5 385.8 M 287.5 385.8 L 288.8 386.1 M 288.8 386.1 L 288.9 386.1 M 288.9 386.1 L 290.1 386.6 M 290.1 386.6 L 290.2 386.7 M 290.2 386.7 L 291.5 387.5 M 291.5 387.5 L 327.9 387.5 M 327.9 387.5 L 372.4 343.1 M 372.4 343.1 L 372.4 343 M 372.4 343 L 375.2 340.7 M 375.2 340.7 L 375.3 340.6 M 375.3 340.6 L 378.5 339 M 378.5 339 L 378.6 338.9 M 378.6 338.9 L 382.1 337.9 M 382.1 337.9 L 382.2 337.8 M 382.2 337.8 L 385.8 337.5 M 385.8 337.5 L 385.8 337.5 M 385.8 337.5 L 432.1 337.5 M 432.1 337.5 L 433.5 336.7 M 433.5 336.7 L 433.6 336.6 M 433.6 336.6 L 434.8 336.1 M 434.8 336.1 L 434.9 336.1 M 434.9 336.1 L 436.2 335.8 M 436.2 335.8 L 436.2 335.8 M 436.2 335.8 L 437.6 335.6 M 437.6 335.6 L 437.6 335.6 M 437.6 335.6 L 498.7 335.6 M 498.7 335.6 L 498.7 335.6 M 549.7 384.1 L 549.7 384.1 M 549.7 384.1 L 554.8 385.4 M 554.8 385.4 L 554.9 385.4 M 554.9 385.4 L 559.7 387.9 M 559.7 387.9 L 559.7 388 M 559.7 388 L 563.7 391.5 M 563.7 391.5 L 563.8 391.6 M 563.8 391.6 L 566.8 396 M 566.8 396 L 566.9 396.1 M 566.9 396.1 L 568.8 401 M 568.8 401 L 568.8 401.2 M 568.8 401.2 L 569.5 406.4 M 569.5 406.4 L 569.5 406.6 M 569.5 406.6 L 568.8 411.9 M 568.8 411.9 L 568.8 412 M 568.8 412 L 566.9 416.9 M 566.9 416.9 L 566.8 417.1 M 566.8 417.1 L 563.8 421.4 M 563.8 421.4 L 563.7 421.6 M 563.7 421.6 L 559.7 425.1 M 559.7 425.1 L 559.7 425.1 M 559.7 425.1 L 554.9 427.6 M 554.9 427.6 L 554.8 427.7 M 554.8 427.7 L 549.7 428.9 M 549.7 428.9 L 549.5 429 M 549.5 429 L 544.2 429 M 544.2 429 L 544.1 428.9 M 544.1 428.9 L 538.9 427.7 M 538.9 427.7 L 538.8 427.6 M 538.8 427.6 L 534.9 425.6 M 534.9 425.6 L 504.1 425.6 M 504.1 425.6 L 502.8 426.4 M 502.8 426.4 L 502.7 426.4 M 502.7 426.4 L 501.5 426.9 M 501.5 426.9 L 501.4 426.9 M 501.4 426.9 L 500.1 427.3 M 500.1 427.3 L 500 427.3 M 500 427.3 L 498.7 427.4 M 498.7 427.4 L 498.7 427.4 M 498.7 427.4 L 437.6 427.4 M 437.6 427.4 L 437.6 427.4 M 437.6 427.4 L 436.2 427.3 M 436.2 427.3 L 436.2 427.3 M 436.2 427.3 L 434.9 426.9 M 434.9 426.9 L 434.8 426.9 M 434.8 426.9 L 433.6 426.4 M 433.6 426.4 L 433.5 426.4 M 433.5 426.4 L 432.3 425.6 M 432.3 425.6 L 432.3 425.6 M 432.3 425.6 L 431.2 424.7 M 431.2 424.7 L 431.2 424.7 M 431.2 424.7 L 430.3 423.7 M 430.3 423.7 L 430.3 423.6 M 430.3 423.6 L 429.6 422.5 M 429.6 422.5 L 429.5 422.4 M 429.5 422.4 L 429 421.2 M 429 421.2 L 429 421.1 M 429 421.1 L 428.7 419.8 M 428.7 419.8 L 428.7 419.7 M 428.7 419.7 L 428.6 418.4 M 428.6 418.4 L 428.6 418.4 M 428.6 418.4 L 428.6 394.7 M 428.6 394.7 L 428.6 394.6 M 428.6 394.6 L 428.7 393.3 M 428.7 393.3 L 428.7 393.2 M 428.7 393.2 L 429 391.9 M 429 391.9 L 429 391.9 M 429 391.9 L 429.5 390.6 M 429.5 390.6 L 429.6 390.6 M 429.6 390.6 L 430.3 389.4 M 430.3 389.4 L 430.3 389.4 M 430.3 389.4 L 431.2 388.3 M 431.2 388.3 L 431.2 388.3 M 431.2 388.3 L 432.3 387.4 M 432.3 387.4 L 432.3 387.4 M 432.3 387.4 L 433.5 386.7 M 433.5 386.7 L 433.6 386.6 M 433.6 386.6 L 434.8 386.1 M 434.8 386.1 L 434.9 386.1 M 434.9 386.1 L 436.2 385.8 M 436.2 385.8 L 436.2 385.8 M 436.2 385.8 L 437.6 385.6 M 437.6 385.6 L 437.6 385.6 M 437.6 385.6 L 498.7 385.6 M 498.7 385.6 L 498.7 385.6 M 498.7 385.6 L 500 385.8 M 500 385.8 L 500.1 385.8 M 500.1 385.8 L 501.4 386.1 M 501.4 386.1 L 501.5 386.1 M 501.5 386.1 L 502.7 386.6 M 502.7 386.6 L 502.8 386.7 M 502.8 386.7 L 504.1 387.5 M 504.1 387.5 L 534.9 387.5 M 534.9 387.5 L 538.8 385.4 M 538.8 385.4 L 538.9 385.4 M 538.9 385.4 L 544.1 384.1 M 544.1 384.1 L 544.2 384.1 M 544.2 384.1 L 549.5 384.1 M 549.5 384.1 L 549.7 384.1 M 506 203.8 L 506 203.8 M 506 203.8 L 507.3 203.9 M 507.3 203.9 L 507.4 203.9 M 507.4 203.9 L 508.7 204.2 M 508.7 204.2 L 508.8 204.2 M 508.8 204.2 L 510 204.7 M 510 204.7 L 510.1 204.8 M 510.1 204.8 L 511.2 205.5 M 511.2 205.5 L 511.3 205.5 M 511.3 205.5 L 512.3 206.4 M 512.3 206.4 L 512.3 206.4 M 512.3 206.4 L 513.2 207.5 M 513.2 207.5 L 513.3 207.5 M 513.3 207.5 L 514 208.7 M 514 208.7 L 514 208.7 M 514 208.7 L 514.5 210 M 514.5 210 L 514.5 210.1 M 514.5 210.1 L 514.9 211.4 M 514.9 211.4 L 514.9 211.4 M 514.9 211.4 L 515 212.7 M 515 212.7 L 515 212.8 M 515 212.8 L 515 239.2 M 515 239.2 L 515 239.3 M 515 239.3 L 514.9 240.6 M 514.9 240.6 L 514.9 240.6 M 514.9 240.6 L 514.5 241.9 M 514.5 241.9 L 514.5 242 M 514.5 242 L 514 243.3 M 514 243.3 L 514 243.3 M 514 243.3 L 513.3 244.5 M 513.3 244.5 L 513.2 244.5 M 513.2 244.5 L 512.3 245.6 M 512.3 245.6 L 512.3 245.6 M 512.3 245.6 L 511.3 246.5 M 511.3 246.5 L 511.2 246.6 M 511.2 246.6 L 510.1 247.2 M 510.1 247.2 L 510 247.3 M 510 247.3 L 508.8 247.8 M 508.8 247.8 L 508.7 247.8 M 508.7 247.8 L 507.4 248.1 M 507.4 248.1 L 507.3 248.1 M 507.3 248.1 L 506 248.2 M 506 248.2 L 506 248.2 M 506 248.2 L 499 248.2 M 499 248.2 L 499 285.5 M 499 285.5 L 501.4 286.1 M 501.4 286.1 L 501.5 286.1 M 501.5 286.1 L 502.7 286.6 M 502.7 286.6 L 502.8 286.7 M 502.8 286.7 L 503.9 287.4 M 503.9 287.4 L 504 287.4 M 504 287.4 L 505 288.3 M 505 288.3 L 505.1 288.3 M 505.1 288.3 L 505.9 289.4 M 505.9 289.4 L 506 289.4 M 506 289.4 L 506.7 290.6 M 506.7 290.6 L 506.7 290.6 M 506.7 290.6 L 507.2 291.9 M 507.2 291.9 L 507.3 291.9 M 507.3 291.9 L 507.6 293.2 M 507.6 293.2 L 507.6 293.3 M 507.6 293.3 L 507.7 294.7 M 507.7 294.7 L 507.7 294.7 M 507.7 294.7 L 507.7 318.3 M 507.7 318.3 L 507.7 318.4 M 507.7 318.4 L 507.6 319.7 M 507.6 319.7 L 507.6 319.8 M 507.6 319.8 L 507.3 321.1 M 507.3 321.1 L 507.2 321.2 M 507.2 321.2 L 506.7 322.4 M 506.7 322.4 L 506.7 322.5 M 506.7 322.5 L 506 323.6 M 506 323.6 L 505.9 323.7 M 505.9 323.7 L 505.1 324.7 M 505.1 324.7 L 505 324.7 M 505 324.7 L 504 325.6 M 504 325.6 L 503.9 325.6 M 503.9 325.6 L 502.8 326.4 M 502.8 326.4 L 502.7 326.4 M 502.7 326.4 L 501.5 326.9 M 501.5 326.9 L 501.4 326.9 M 501.4 326.9 L 500.1 327.3 M 500.1 327.3 L 500 327.3 M 500 327.3 L 498.7 327.4 M 498.7 327.4 L 498.7 327.4 M 498.7 327.4 L 437.6 327.4 M 437.6 327.4 L 437.6 327.4 M 437.6 327.4 L 436.2 327.3 M 436.2 327.3 L 436.2 327.3 M 436.2 327.3 L 434.9 326.9 M 434.9 326.9 L 434.8 326.9 M 434.8 326.9 L 433.6 326.4 M 433.6 326.4 L 433.5 326.4 M 433.5 326.4 L 432.3 325.6 M 432.3 325.6 L 432.3 325.6 M 432.3 325.6 L 431.2 324.7 M 431.2 324.7 L 431.2 324.7 M 431.2 324.7 L 430.3 323.7 M 430.3 323.7 L 430.3 323.6 M 430.3 323.6 L 429.6 322.5 M 429.6 322.5 L 429.5 322.4 M 429.5 322.4 L 429 321.2 M 429 321.2 L 429 321.1 M 429 321.1 L 428.7 319.8 M 428.7 319.8 L 428.7 319.7 M 428.7 319.7 L 428.6 318.4 M 428.6 318.4 L 428.6 318.4 M 428.6 318.4 L 428.6 294.7 M 428.6 294.7 L 428.6 294.6 M 428.6 294.6 L 428.7 293.3 M 428.7 293.3 L 428.7 293.2 M 428.7 293.2 L 429 291.9 M 429 291.9 L 429 291.9 M 429 291.9 L 429.5 290.6 M 429.5 290.6 L 429.6 290.6 M 429.6 290.6 L 430.3 289.4 M 430.3 289.4 L 430.3 289.4 M 430.3 289.4 L 431.2 288.3 M 431.2 288.3 L 431.2 288.3 M 431.2 288.3 L 432.3 287.4 M 432.3 287.4 L 432.3 287.4 M 432.3 287.4 L 433.5 286.7 M 433.5 286.7 L 433.6 286.6 M 433.6 286.6 L 434.8 286.1 M 434.8 286.1 L 434.9 286.1 M 434.9 286.1 L 436.2 285.8 M 436.2 285.8 L 436.2 285.8 M 436.2 285.8 L 437.6 285.6 M 437.6 285.6 L 437.6 285.6 M 437.6 285.6 L 460.9 285.6 M 460.9 285.6 L 460.9 248.2 M 460.9 248.2 L 453.9 248.2 M 453.9 248.2 L 453.9 248.2 M 453.9 248.2 L 452.6 248.1 M 452.6 248.1 L 452.5 248.1 M 452.5 248.1 L 451.2 247.8 M 451.2 247.8 L 451.1 247.8 M 451.1 247.8 L 449.9 247.3 M 449.9 247.3 L 449.8 247.2 M 449.8 247.2 L 448.6 246.6 M 448.6 246.6 L 448.6 246.5 M 448.6 246.5 L 447.6 245.6 M 447.6 245.6 L 447.5 245.6 M 447.5 245.6 L 446.6 244.5 M 446.6 244.5 L 446.6 244.5 M 446.6 244.5 L 445.9 243.3 M 445.9 243.3 L 445.9 243.3 M 445.9 243.3 L 445.4 242 M 445.4 242 L 445.3 241.9 M 445.3 241.9 L 445 240.6 M 445 240.6 L 445 240.6 M 445 240.6 L 444.9 239.3 M 444.9 239.3 L 444.9 239.2 M 444.9 239.2 L 444.9 212.8 M 444.9 212.8 L 444.9 212.7 M 444.9 212.7 L 445 211.4 M 445 211.4 L 445 211.4 M 445 211.4 L 445.3 210.1 M 445.3 210.1 L 445.4 210 M 445.4 210 L 445.9 208.7 M 445.9 208.7 L 445.9 208.7 M 445.9 208.7 L 446.6 207.5 M 446.6 207.5 L 446.6 207.5 M 446.6 207.5 L 447.5 206.4 M 447.5 206.4 L 447.6 206.4 M 447.6 206.4 L 448.6 205.5 M 448.6 205.5 L 448.6 205.5 M 448.6 205.5 L 449.8 204.8 M 449.8 204.8 L 449.9 204.7 M 449.9 204.7 L 451.1 204.2 M 451.1 204.2 L 451.2 204.2 M 451.2 204.2 L 452.5 203.9 M 452.5 203.9 L 452.6 203.9 M 452.6 203.9 L 453.9 203.8 M 453.9 203.8 L 453.9 203.8 M 453.9 203.8 L 506 203.8 M 506 203.8 L 506 203.8 M 358.8 204.4 L 358.8 204.4 M 358.8 204.4 L 358.8 213.8 M 358.8 213.8 L 364.8 213.8 M 364.8 213.8 L 364.8 204.4 M 364.8 204.4 L 365.4 203.8 M 365.4 203.8 L 387.9 203.8 M 387.9 203.8 L 387.9 203.8 M 387.9 203.8 L 389.2 203.9 M 389.2 203.9 L 389.3 203.9 M 389.3 203.9 L 390.6 204.2 M 390.6 204.2 L 390.6 204.2 M 390.6 204.2 L 391.9 204.7 M 391.9 204.7 L 391.9 204.8 M 391.9 204.8 L 393.1 205.5 M 393.1 205.5 L 393.2 205.5 M 393.2 205.5 L 394.2 206.4 M 394.2 206.4 L 394.2 206.4 M 394.2 206.4 L 395.1 207.5 M 395.1 207.5 L 395.2 207.5 M 395.2 207.5 L 395.8 208.7 M 395.8 208.7 L 395.9 208.7 M 395.9 208.7 L 396.4 210 M 396.4 210 L 396.4 210.1 M 396.4 210.1 L 396.8 211.4 M 396.8 211.4 L 396.8 211.4 M 396.8 211.4 L 396.9 212.7 M 396.9 212.7 L 396.9 212.8 M 396.9 212.8 L 396.9 222.4 M 396.9 222.4 L 396.3 223 M 396.3 223 L 386.8 223 M 386.8 223 L 386.8 229 M 386.8 229 L 396.3 229 M 396.3 229 L 396.9 229.6 M 396.9 229.6 L 396.9 239.2 M 396.9 239.2 L 396.9 239.3 M 396.9 239.3 L 396.8 240.6 M 396.8 240.6 L 396.8 240.6 M 396.8 240.6 L 396.4 241.9 M 396.4 241.9 L 396.4 242 M 396.4 242 L 395.9 243.3 M 395.9 243.3 L 395.8 243.3 M 395.8 243.3 L 395.2 244.5 M 395.2 244.5 L 395.1 244.5 M 395.1 244.5 L 394.2 245.6 M 394.2 245.6 L 394.2 245.6 M 394.2 245.6 L 393.2 246.5 M 393.2 246.5 L 393.1 246.6 M 393.1 246.6 L 391.9 247.2 M 391.9 247.2 L 391.9 247.3 M 391.9 247.3 L 390.6 247.8 M 390.6 247.8 L 390.6 247.8 M 390.6 247.8 L 389.3 248.1 M 389.3 248.1 L 389.2 248.1 M 389.2 248.1 L 387.9 248.2 M 387.9 248.2 L 387.9 248.2 M 387.9 248.2 L 365.4 248.2 M 365.4 248.2 L 364.8 247.7 M 364.8 247.7 L 364.8 238.2 M 364.8 238.2 L 358.8 238.2 M 358.8 238.2 L 358.8 247.7 M 358.8 247.7 L 358.2 248.2 M 358.2 248.2 L 335.8 248.2 M 335.8 248.2 L 335.8 248.2 M 335.8 248.2 L 334.5 248.1 M 334.5 248.1 L 334.4 248.1 M 334.4 248.1 L 333.1 247.8 M 333.1 247.8 L 333 247.8 M 333 247.8 L 331.8 247.3 M 331.8 247.3 L 331.7 247.2 M 331.7 247.2 L 330.5 246.6 M 330.5 246.6 L 330.5 246.5 M 330.5 246.5 L 329.5 245.6 M 329.5 245.6 L 329.4 245.6 M 329.4 245.6 L 328.5 244.5 M 328.5 244.5 L 328.5 244.5 M 328.5 244.5 L 327.8 243.3 M 327.8 243.3 L 327.8 243.3 M 327.8 243.3 L 327.3 242 M 327.3 242 L 327.2 241.9 M 327.2 241.9 L 326.9 240.6 M 326.9 240.6 L 326.9 240.6 M 326.9 240.6 L 326.8 239.3 M 326.8 239.3 L 326.8 239.2 M 326.8 239.2 L 326.8 229.6 M 326.8 229.6 L 327.4 229 M 327.4 229 L 336.8 229 M 336.8 229 L 336.8 223 M 336.8 223 L 327.4 223 M 327.4 223 L 326.8 222.4 M 326.8 222.4 L 326.8 212.8 M 326.8 212.8 L 326.8 212.7 M 326.8 212.7 L 326.9 211.4 M 326.9 211.4 L 326.9 211.4 M 326.9 211.4 L 327.2 210.1 M 327.2 210.1 L 327.3 210 M 327.3 210 L 327.8 208.7 M 327.8 208.7 L 327.8 208.7 M 327.8 208.7 L 328.5 207.5 M 328.5 207.5 L 328.5 207.5 M 328.5 207.5 L 329.4 206.4 M 329.4 206.4 L 329.5 206.4 M 329.5 206.4 L 330.5 205.5 M 330.5 205.5 L 330.5 205.5 M 330.5 205.5 L 331.7 204.8 M 331.7 204.8 L 331.8 204.7 M 331.8 204.7 L 333 204.2 M 333 204.2 L 333.1 204.2 M 333.1 204.2 L 334.4 203.9 M 334.4 203.9 L 334.5 203.9 M 334.5 203.9 L 335.8 203.8 M 335.8 203.8 L 335.8 203.8 M 335.8 203.8 L 358.2 203.8 M 358.2 203.8 L 358.8 204.4 M 642.4 92.9 L 642.4 92.9 M 642.4 92.9 L 651.8 95.2 M 651.8 95.2 L 651.9 95.2 M 651.9 95.2 L 660.4 99.7 M 660.4 99.7 L 660.5 99.8 M 660.5 99.8 L 667.7 106.2 M 667.7 106.2 L 667.8 106.2 M 667.8 106.2 L 673.2 114 M 673.2 114 L 759.2 114 M 759.2 114 L 764.5 106.2 M 764.5 106.2 L 764.6 106.2 M 764.6 106.2 L 771.8 99.8 M 771.8 99.8 L 771.9 99.7 M 771.9 99.7 L 780.5 95.2 M 780.5 95.2 L 780.6 95.2 M 780.6 95.2 L 789.9 92.9 M 789.9 92.9 L 790.1 92.9 M 790.1 92.9 L 799.7 92.9 M 799.7 92.9 L 799.9 92.9 M 799.9 92.9 L 809.2 95.2 M 809.2 95.2 L 809.4 95.2 M 809.4 95.2 L 817.9 99.7 M 817.9 99.7 L 818 99.8 M 818 99.8 L 825.2 106.2 M 825.2 106.2 L 825.3 106.2 M 825.3 106.2 L 830.8 114.2 M 830.8 114.2 L 830.8 114.3 M 830.8 114.3 L 834.2 123.3 M 834.2 123.3 L 834.3 123.4 M 834.3 123.4 L 835.5 133 M 835.5 133 L 835.5 133.2 M 835.5 133.2 L 834.3 142.7 M 834.3 142.7 L 834.2 142.9 M 834.2 142.9 L 830.8 151.9 M 830.8 151.9 L 830.8 152 M 830.8 152 L 825.3 159.9 M 825.3 159.9 L 825.2 160 M 825.2 160 L 818 166.4 M 818 166.4 L 817.9 166.5 M 817.9 166.5 L 809.4 171 M 809.4 171 L 809.2 171 M 809.2 171 L 799.9 173.3 M 799.9 173.3 L 799.7 173.3 M 799.7 173.3 L 790.1 173.3 M 790.1 173.3 L 789.9 173.3 M 789.9 173.3 L 780.6 171 M 780.6 171 L 780.5 171 M 780.5 171 L 771.9 166.5 M 771.9 166.5 L 771.8 166.4 M 771.8 166.4 L 764.6 160 M 764.6 160 L 764.5 159.9 M 764.5 159.9 L 759.2 152.1 M 759.2 152.1 L 673.2 152.1 M 673.2 152.1 L 667.8 159.9 M 667.8 159.9 L 667.7 160 M 667.7 160 L 660.5 166.4 M 660.5 166.4 L 660.4 166.5 M 660.4 166.5 L 651.9 171 M 651.9 171 L 651.8 171 M 651.8 171 L 642.4 173.3 M 642.4 173.3 L 642.3 173.3 M 642.3 173.3 L 632.6 173.3 M 632.6 173.3 L 632.5 173.3 M 632.5 173.3 L 623.1 171 M 623.1 171 L 623 171 M 623 171 L 614.4 166.5 M 614.4 166.5 L 614.4 166.4 M 614.4 166.4 L 607.1 160 M 607.1 160 L 607 159.9 M 607 159.9 L 601.6 152 M 601.6 152 L 601.5 151.9 M 601.5 151.9 L 598.1 142.9 M 598.1 142.9 L 598.1 142.7 M 598.1 142.7 L 596.9 133.2 M 596.9 133.2 L 596.9 133 M 596.9 133 L 598.1 123.4 M 598.1 123.4 L 598.1 123.3 M 598.1 123.3 L 601.5 114.3 M 601.5 114.3 L 601.6 114.2 M 601.6 114.2 L 607 106.2 M 607 106.2 L 607.1 106.2 M 607.1 106.2 L 614.4 99.8 M 614.4 99.8 L 614.4 99.7 M 614.4 99.7 L 623 95.2 M 623 95.2 L 623.1 95.2 M 623.1 95.2 L 632.5 92.9 M 632.5 92.9 L 632.6 92.9 M 632.6 92.9 L 642.3 92.9 M 642.3 92.9 L 642.4 92.9 M 966.7 95.2 L 966.7 95.2 M 966.7 95.2 L 966.8 95.2 M 966.8 95.2 L 975.4 99.7 M 975.4 99.7 L 975.5 99.8 M 975.5 99.8 L 982.7 106.2 M 982.7 106.2 L 982.8 106.2 M 982.8 106.2 L 988.2 114.2 M 988.2 114.2 L 988.3 114.3 M 988.3 114.3 L 991.7 123.3 M 991.7 123.3 L 991.8 123.4 M 991.8 123.4 L 992 125.5 M 992 125.5 L 991.4 126.2 M 991.4 126.2 L 982.9 126.2 M 982.9 126.2 L 982.9 140 M 982.9 140 L 991.4 140 M 991.4 140 L 992 140.6 M 992 140.6 L 991.8 142.7 M 991.8 142.7 L 991.7 142.9 M 991.7 142.9 L 988.3 151.9 M 988.3 151.9 L 988.2 152 M 988.2 152 L 982.8 159.9 M 982.8 159.9 L 982.7 160 M 982.7 160 L 975.5 166.4 M 975.5 166.4 L 975.4 166.5 M 975.4 166.5 L 966.8 171 M 966.8 171 L 966.7 171 M 966.7 171 L 960 172.7 M 960 172.7 L 959.3 172.1 M 959.3 172.1 L 959.3 163.4 M 959.3 163.4 L 945.5 163.4 M 945.5 163.4 L 945.5 172.1 M 945.5 172.1 L 944.7 172.7 M 944.7 172.7 L 938.1 171 M 938.1 171 L 937.9 171 M 937.9 171 L 929.4 166.5 M 929.4 166.5 L 929.3 166.4 M 929.3 166.4 L 922.1 160 M 922.1 160 L 922 159.9 M 922 159.9 L 916.5 152 M 916.5 152 L 916.5 151.9 M 916.5 151.9 L 913.1 142.9 M 913.1 142.9 L 913 142.7 M 913 142.7 L 912.7 140.6 M 912.7 140.6 L 913.4 140 M 913.4 140 L 921.9 140 M 921.9 140 L 921.9 126.2 M 921.9 126.2 L 913.4 126.2 M 913.4 126.2 L 912.7 125.5 M 912.7 125.5 L 913 123.4 M 913 123.4 L 913.1 123.3 M 913.1 123.3 L 916.5 114.3 M 916.5 114.3 L 916.5 114.2 M 916.5 114.2 L 922 106.2 M 922 106.2 L 922.1 106.2 M 922.1 106.2 L 929.3 99.8 M 929.3 99.8 L 929.4 99.7 M 929.4 99.7 L 937.9 95.2 M 937.9 95.2 L 938.1 95.2 M 938.1 95.2 L 944.7 93.5 M 944.7 93.5 L 945.5 94.1 M 945.5 94.1 L 945.5 102.8 M 945.5 102.8 L 959.3 102.8 M 959.3 102.8 L 959.3 94.1 M 959.3 94.1 L 960 93.5 M 960 93.5 L 966.7 95.2 M 269.8 121.1 L 269.8 121.1 M 269.8 121.1 L 271.1 121.2 M 271.1 121.2 L 271.2 121.2 M 271.2 121.2 L 272.5 121.5 M 272.5 121.5 L 272.5 121.6 M 272.5 121.6 L 273.8 122.1 M 273.8 122.1 L 273.8 122.1 M 273.8 122.1 L 275 122.8 M 275 122.8 L 275.1 122.8 M 275.1 122.8 L 276.1 123.7 M 276.1 123.7 L 276.1 123.8 M 276.1 123.8 L 276.6 124.3 M 276.6 124.3 L 329 124.3 M 329 124.3 L 329.4 123.8 M 329.4 123.8 L 329.5 123.7 M 329.5 123.7 L 330.5 122.8 M 330.5 122.8 L 330.5 122.8 M 330.5 122.8 L 331.7 122.1 M 331.7 122.1 L 331.8 122.1 M 331.8 122.1 L 333 121.6 M 333 121.6 L 333.1 121.5 M 333.1 121.5 L 334.4 121.2 M 334.4 121.2 L 334.5 121.2 M 334.5 121.2 L 335.8 121.1 M 335.8 121.1 L 335.8 121.1 M 335.8 121.1 L 387.9 121.1 M 387.9 121.1 L 387.9 121.1 M 387.9 121.1 L 389.2 121.2 M 389.2 121.2 L 389.3 121.2 M 389.3 121.2 L 390.6 121.5 M 390.6 121.5 L 390.6 121.6 M 390.6 121.6 L 391.9 122.1 M 391.9 122.1 L 391.9 122.1 M 391.9 122.1 L 393.1 122.8 M 393.1 122.8 L 393.2 122.8 M 393.2 122.8 L 394.2 123.7 M 394.2 123.7 L 394.2 123.8 M 394.2 123.8 L 395.1 124.8 M 395.1 124.8 L 395.2 124.8 M 395.2 124.8 L 395.8 126 M 395.8 126 L 395.9 126 M 395.9 126 L 396.4 127.3 M 396.4 127.3 L 396.4 127.4 M 396.4 127.4 L 396.8 128.7 M 396.8 128.7 L 396.8 128.8 M 396.8 128.8 L 396.9 130.1 M 396.9 130.1 L 396.9 130.1 M 396.9 130.1 L 396.9 156.6 M 396.9 156.6 L 396.9 156.6 M 396.9 156.6 L 396.8 157.9 M 396.8 157.9 L 396.8 158 M 396.8 158 L 396.4 159.3 M 396.4 159.3 L 396.4 159.4 M 396.4 159.4 L 395.9 160.6 M 395.9 160.6 L 395.8 160.6 M 395.8 160.6 L 395.2 161.8 M 395.2 161.8 L 395.1 161.9 M 395.1 161.9 L 394.2 162.9 M 394.2 162.9 L 394.2 162.9 M 394.2 162.9 L 393.2 163.8 M 393.2 163.8 L 393.1 163.9 M 393.1 163.9 L 391.9 164.5 M 391.9 164.5 L 391.9 164.6 M 391.9 164.6 L 390.6 165.1 M 390.6 165.1 L 390.6 165.1 M 390.6 165.1 L 389.3 165.5 M 389.3 165.5 L 389.2 165.5 M 389.2 165.5 L 387.9 165.6 M 387.9 165.6 L 387.9 165.6 M 387.9 165.6 L 335.8 165.6 M 335.8 165.6 L 335.8 165.6 M 335.8 165.6 L 334.5 165.5 M 334.5 165.5 L 334.4 165.5 M 334.4 165.5 L 333.1 165.1 M 333.1 165.1 L 333 165.1 M 333 165.1 L 331.8 164.6 M 331.8 164.6 L 331.7 164.5 M 331.7 164.5 L 330.5 163.9 M 330.5 163.9 L 330.5 163.8 M 330.5 163.8 L 329.5 162.9 M 329.5 162.9 L 329.4 162.9 M 329.4 162.9 L 329 162.4 M 329 162.4 L 276.6 162.4 M 276.6 162.4 L 276.1 162.9 M 276.1 162.9 L 276.1 162.9 M 276.1 162.9 L 275.1 163.8 M 275.1 163.8 L 275 163.9 M 275 163.9 L 273.8 164.5 M 273.8 164.5 L 273.8 164.6 M 273.8 164.6 L 272.5 165.1 M 272.5 165.1 L 272.5 165.1 M 272.5 165.1 L 271.2 165.5 M 271.2 165.5 L 271.1 165.5 M 271.1 165.5 L 269.8 165.6 M 269.8 165.6 L 269.7 165.6 M 269.7 165.6 L 217.7 165.6 M 217.7 165.6 L 217.7 165.6 M 217.7 165.6 L 216.4 165.5 M 216.4 165.5 L 216.3 165.5 M 216.3 165.5 L 215 165.1 M 215 165.1 L 214.9 165.1 M 214.9 165.1 L 213.6 164.6 M 213.6 164.6 L 213.6 164.5 M 213.6 164.5 L 212.4 163.9 M 212.4 163.9 L 212.4 163.8 M 212.4 163.8 L 211.4 162.9 M 211.4 162.9 L 211.3 162.9 M 211.3 162.9 L 210.4 161.9 M 210.4 161.9 L 210.4 161.8 M 210.4 161.8 L 209.7 160.6 M 209.7 160.6 L 209.7 160.6 M 209.7 160.6 L 209.2 159.4 M 209.2 159.4 L 209.1 159.3 M 209.1 159.3 L 208.8 158 M 208.8 158 L 208.8 157.9 M 208.8 157.9 L 208.7 156.6 M 208.7 156.6 L 208.7 156.6 M 208.7 156.6 L 208.7 130.1 M 208.7 130.1 L 208.7 130.1 M 208.7 130.1 L 208.8 128.8 M 208.8 128.8 L 208.8 128.7 M 208.8 128.7 L 209.1 127.4 M 209.1 127.4 L 209.2 127.3 M 209.2 127.3 L 209.7 126 M 209.7 126 L 209.7 126 M 209.7 126 L 210.4 124.8 M 210.4 124.8 L 210.4 124.8 M 210.4 124.8 L 211.3 123.8 M 211.3 123.8 L 211.4 123.7 M 211.4 123.7 L 212.4 122.8 M 212.4 122.8 L 212.4 122.8 M 212.4 122.8 L 213.6 122.1 M 213.6 122.1 L 213.6 122.1 M 213.6 122.1 L 214.9 121.6 M 214.9 121.6 L 215 121.5 M 215 121.5 L 216.3 121.2 M 216.3 121.2 L 216.4 121.2 M 216.4 121.2 L 217.7 121.1 M 217.7 121.1 L 217.7 121.1 M 217.7 121.1 L 269.7 121.1 M 269.7 121.1 L 269.8 121.1 M 476.9 121.7 L 476.9 121.7 M 476.9 121.7 L 476.9 131.1 M 476.9 131.1 L 482.9 131.1 M 482.9 131.1 L 482.9 121.7 M 482.9 121.7 L 483.5 121.1 M 483.5 121.1 L 506 121.1 M 506 121.1 L 506 121.1 M 506 121.1 L 507.3 121.2 M 507.3 121.2 L 507.4 121.2 M 507.4 121.2 L 508.7 121.5 M 508.7 121.5 L 508.8 121.6 M 508.8 121.6 L 510 122.1 M 510 122.1 L 510.1 122.1 M 510.1 122.1 L 511.2 122.8 M 511.2 122.8 L 511.3 122.8 M 511.3 122.8 L 512.3 123.7 M 512.3 123.7 L 512.3 123.8 M 512.3 123.8 L 513.2 124.8 M 513.2 124.8 L 513.3 124.8 M 513.3 124.8 L 514 126 M 514 126 L 514 126 M 514 126 L 514.5 127.3 M 514.5 127.3 L 514.5 127.4 M 514.5 127.4 L 514.9 128.7 M 514.9 128.7 L 514.9 128.8 M 514.9 128.8 L 515 130.1 M 515 130.1 L 515 130.1 M 515 130.1 L 515 139.7 M 515 139.7 L 514.4 140.3 M 514.4 140.3 L 504.9 140.3 M 504.9 140.3 L 504.9 146.3 M 504.9 146.3 L 514.4 146.3 M 514.4 146.3 L 515 146.9 M 515 146.9 L 515 156.6 M 515 156.6 L 515 156.6 M 515 156.6 L 514.9 157.9 M 514.9 157.9 L 514.9 158 M 514.9 158 L 514.5 159.3 M 514.5 159.3 L 514.5 159.4 M 514.5 159.4 L 514 160.6 M 514 160.6 L 514 160.6 M 514 160.6 L 513.3 161.8 M 513.3 161.8 L 513.2 161.9 M 513.2 161.9 L 512.3 162.9 M 512.3 162.9 L 512.3 162.9 M 512.3 162.9 L 511.3 163.8 M 511.3 163.8 L 511.2 163.9 M 511.2 163.9 L 510.1 164.5 M 510.1 164.5 L 510 164.6 M 510 164.6 L 508.8 165.1 M 508.8 165.1 L 508.7 165.1 M 508.7 165.1 L 507.4 165.5 M 507.4 165.5 L 507.3 165.5 M 507.3 165.5 L 506 165.6 M 506 165.6 L 506 165.6 M 506 165.6 L 483.5 165.6 M 483.5 165.6 L 482.9 165 M 482.9 165 L 482.9 155.5 M 482.9 155.5 L 476.9 155.5 M 476.9 155.5 L 476.9 165 M 476.9 165 L 476.4 165.6 M 476.4 165.6 L 453.9 165.6 M 453.9 165.6 L 453.9 165.6 M 453.9 165.6 L 452.6 165.5 M 452.6 165.5 L 452.5 165.5 M 452.5 165.5 L 451.2 165.1 M 451.2 165.1 L 451.1 165.1 M 451.1 165.1 L 449.9 164.6 M 449.9 164.6 L 449.8 164.5 M 449.8 164.5 L 448.6 163.9 M 448.6 163.9 L 448.6 163.8 M 448.6 163.8 L 447.6 162.9 M 447.6 162.9 L 447.5 162.9 M 447.5 162.9 L 446.6 161.9 M 446.6 161.9 L 446.6 161.8 M 446.6 161.8 L 445.9 160.6 M 445.9 160.6 L 445.9 160.6 M 445.9 160.6 L 445.4 159.4 M 445.4 159.4 L 445.3 159.3 M 445.3 159.3 L 445 158 M 445 158 L 445 157.9 M 445 157.9 L 444.9 156.6 M 444.9 156.6 L 444.9 156.6 M 444.9 156.6 L 444.9 146.9 M 444.9 146.9 L 445.5 146.3 M 445.5 146.3 L 454.9 146.3 M 454.9 146.3 L 454.9 140.3 M 454.9 140.3 L 445.5 140.3 M 445.5 140.3 L 444.9 139.7 M 444.9 139.7 L 444.9 130.1 M 444.9 130.1 L 444.9 130.1 M 444.9 130.1 L 445 128.8 M 445 128.8 L 445 128.7 M 445 128.7 L 445.3 127.4 M 445.3 127.4 L 445.4 127.3 M 445.4 127.3 L 445.9 126 M 445.9 126 L 445.9 126 M 445.9 126 L 446.6 124.8 M 446.6 124.8 L 446.6 124.8 M 446.6 124.8 L 447.5 123.8 M 447.5 123.8 L 447.6 123.7 M 447.6 123.7 L 448.6 122.8 M 448.6 122.8 L 448.6 122.8 M 448.6 122.8 L 449.8 122.1 M 449.8 122.1 L 449.9 122.1 M 449.9 122.1 L 451.1 121.6 M 451.1 121.6 L 451.2 121.5 M 451.2 121.5 L 452.5 121.2 M 452.5 121.2 L 452.6 121.2 M 452.6 121.2 L 453.9 121.1 M 453.9 121.1 L 453.9 121.1 M 453.9 121.1 L 476.4 121.1 M 476.4 121.1 L 476.9 121.7 M 28.2 29.2 L 1010.5 29.2 M 28.2 31.1 L 1010.5 31.1 M 28.2 33.1 L 1010.5 33.1 M 28.2 35 L 1010.5 35 M 28.2 36.9 L 1010.5 36.9 M 28.2 38.9 L 1010.5 38.9 M 28.2 40.8 L 1010.5 40.8 M 28.2 42.8 L 1010.5 42.8 M 28.2 44.7 L 1010.5 44.7 M 28.2 46.7 L 1010.5 46.7 M 28.2 48.6 L 1010.5 48.6 M 28.2 50.6 L 1010.5 50.6 M 28.2 52.5 L 1010.5 52.5 M 28.2 54.5 L 1010.5 54.5 M 28.2 56.4 L 1010.5 56.4 M 28.2 58.4 L 1010.5 58.4 M 28.2 60.3 L 1010.5 60.3 M 28.2 62.3 L 1010.5 62.3 M 28.2 64.2 L 1010.5 64.2 M 28.2 66.2 L 1010.5 66.2 M 28.2 68.1 L 1010.5 68.1 M 28.2 70.1 L 1010.5 70.1 M 28.2 72 L 1010.5 72 M 28.2 74 L 1010.5 74 M 28.2 75.9 L 1010.5 75.9 M 28.2 77.9 L 1010.5 77.9 M 28.2 79.8 L 1010.5 79.8 M 28.2 81.8 L 1010.5 81.8 M 28.2 83.7 L 1010.5 83.7 M 28.2 85.7 L 1010.5 85.7 M 28.2 87.6 L 1010.5 87.6 M 28.2 89.6 L 1010.5 89.6 M 28.2 91.5 L 1010.5 91.5 M 28.2 93.5 L 629.9 93.5 M 644.9 93.5 L 787.4 93.5 M 802.4 93.5 L 1010.5 93.5 M 28.2 95.5 L 622.6 95.5 M 652.3 95.5 L 780.1 95.5 M 809.7 95.5 L 937.5 95.5 M 945.5 95.5 L 959.3 95.5 M 967.2 95.5 L 1010.5 95.5 M 28.2 97.4 L 618.8 97.4 M 656 97.4 L 776.3 97.4 M 813.5 97.4 L 933.8 97.4 M 945.5 97.4 L 959.3 97.4 M 971 97.4 L 1010.5 97.4 M 28.2 99.4 L 615.1 99.4 M 659.7 99.4 L 772.6 99.4 M 817.2 99.4 L 930.1 99.4 M 945.5 99.4 L 959.3 99.4 M 974.7 99.4 L 1010.5 99.4 M 28.2 101.3 L 612.6 101.3 M 662.2 101.3 L 770.1 101.3 M 819.7 101.3 L 927.6 101.3 M 945.5 101.3 L 959.3 101.3 M 977.2 101.3 L 1010.5 101.3 M 28.2 103.2 L 610.4 103.2 M 664.4 103.2 L 767.9 103.2 M 821.9 103.2 L 925.4 103.2 M 979.4 103.2 L 1010.5 103.2 M 28.2 105.2 L 608.2 105.2 M 666.6 105.2 L 765.7 105.2 M 824.1 105.2 L 923.2 105.2 M 981.6 105.2 L 1010.5 105.2 M 28.2 107.1 L 606.4 107.1 M 668.4 107.1 L 763.9 107.1 M 825.9 107.1 L 921.4 107.1 M 983.4 107.1 L 1010.5 107.1 M 28.2 109.1 L 605.1 109.1 M 669.7 109.1 L 762.6 109.1 M 827.2 109.1 L 920.1 109.1 M 984.7 109.1 L 1010.5 109.1 M 28.2 111 L 603.8 111 M 671.1 111 L 761.2 111 M 828.6 111 L 918.7 111 M 986 111 L 1010.5 111 M 28.2 113 L 602.4 113 M 672.5 113 L 759.9 113 M 829.9 113 L 917.3 113 M 987.4 113 L 1010.5 113 M 28.2 114.9 L 601.3 114.9 M 831 114.9 L 916.2 114.9 M 988.5 114.9 L 1010.5 114.9 M 28.2 116.9 L 600.5 116.9 M 831.8 116.9 L 915.5 116.9 M 989.3 116.9 L 1010.5 116.9 M 28.2 118.8 L 599.8 118.8 M 832.5 118.8 L 914.7 118.8 M 990 118.8 L 1010.5 118.8 M 28.2 120.8 L 599 120.8 M 833.3 120.8 L 914 120.8 M 990.8 120.8 L 1010.5 120.8 M 28.2 122.7 L 69.7 122.7 M 102.9 122.7 L 108.9 122.7 M 142.2 122.7 L 212.5 122.7 M 274.9 122.7 L 330.6 122.7 M 393 122.7 L 448.8 122.7 M 476.9 122.7 L 482.9 122.7 M 511.1 122.7 L 598.3 122.7 M 834 122.7 L 913.2 122.7 M 991.5 122.7 L 1010.5 122.7 M 28.2 124.7 L 66.9 124.7 M 102.9 124.7 L 108.9 124.7 M 144.9 124.7 L 210.5 124.7 M 395 124.7 L 446.8 124.7 M 476.9 124.7 L 482.9 124.7 M 513.1 124.7 L 597.9 124.7 M 834.4 124.7 L 912.9 124.7 M 991.9 124.7 L 1010.5 124.7 M 28.2 126.6 L 65.5 126.6 M 102.9 126.6 L 108.9 126.6 M 146.4 126.6 L 209.4 126.6 M 396.1 126.6 L 445.6 126.6 M 476.9 126.6 L 482.9 126.6 M 514.2 126.6 L 597.7 126.6 M 834.7 126.6 L 921.9 126.6 M 982.9 126.6 L 1010.5 126.6 M 28.2 128.6 L 64.7 128.6 M 102.9 128.6 L 108.9 128.6 M 147.1 128.6 L 208.8 128.6 M 396.7 128.6 L 445.1 128.6 M 476.9 128.6 L 482.9 128.6 M 514.8 128.6 L 597.4 128.6 M 834.9 128.6 L 921.9 128.6 M 982.9 128.6 L 1010.5 128.6 M 28.2 130.5 L 64.4 130.5 M 102.9 130.5 L 108.9 130.5 M 147.4 130.5 L 208.7 130.5 M 396.9 130.5 L 444.9 130.5 M 476.9 130.5 L 482.9 130.5 M 515 130.5 L 597.2 130.5 M 835.1 130.5 L 921.9 130.5 M 982.9 130.5 L 1010.5 130.5 M 28.2 132.5 L 64.4 132.5 M 147.5 132.5 L 208.7 132.5 M 396.9 132.5 L 444.9 132.5 M 515 132.5 L 596.9 132.5 M 835.4 132.5 L 921.9 132.5 M 982.9 132.5 L 1010.5 132.5 M 28.2 134.4 L 64.4 134.4 M 147.5 134.4 L 208.7 134.4 M 396.9 134.4 L 444.9 134.4 M 515 134.4 L 597 134.4 M 835.3 134.4 L 921.9 134.4 M 982.9 134.4 L 1010.5 134.4 M 28.2 136.4 L 64.4 136.4 M 147.5 136.4 L 208.7 136.4 M 396.9 136.4 L 444.9 136.4 M 515 136.4 L 597.3 136.4 M 835.1 136.4 L 921.9 136.4 M 982.9 136.4 L 1010.5 136.4 M 28.2 138.3 L 64.4 138.3 M 147.5 138.3 L 208.7 138.3 M 396.9 138.3 L 444.9 138.3 M 515 138.3 L 597.5 138.3 M 834.8 138.3 L 921.9 138.3 M 982.9 138.3 L 1010.5 138.3 M 28.2 140.3 L 64.4 140.3 M 147.5 140.3 L 208.7 140.3 M 396.9 140.3 L 445.5 140.3 M 514.4 140.3 L 597.7 140.3 M 834.6 140.3 L 913.1 140.3 M 991.7 140.3 L 1010.5 140.3 M 28.2 142.2 L 64.4 142.2 M 147.5 142.2 L 208.7 142.2 M 396.9 142.2 L 454.9 142.2 M 504.9 142.2 L 598 142.2 M 834.4 142.2 L 912.9 142.2 M 991.8 142.2 L 1010.5 142.2 M 28.2 144.2 L 64.4 144.2 M 147.5 144.2 L 208.7 144.2 M 396.9 144.2 L 454.9 144.2 M 504.9 144.2 L 598.6 144.2 M 833.7 144.2 L 913.6 144.2 M 991.2 144.2 L 1010.5 144.2 M 28.2 146.1 L 64.4 146.1 M 147.5 146.1 L 208.7 146.1 M 396.9 146.1 L 454.9 146.1 M 504.9 146.1 L 599.3 146.1 M 833 146.1 L 914.3 146.1 M 990.5 146.1 L 1010.5 146.1 M 28.2 148.1 L 64.4 148.1 M 147.5 148.1 L 208.7 148.1 M 396.9 148.1 L 444.9 148.1 M 515 148.1 L 600.1 148.1 M 832.3 148.1 L 915 148.1 M 989.7 148.1 L 1010.5 148.1 M 28.2 150 L 64.4 150 M 147.5 150 L 208.7 150 M 396.9 150 L 444.9 150 M 515 150 L 600.8 150 M 831.5 150 L 915.8 150 M 989 150 L 1010.5 150 M 28.2 152 L 64.4 152 M 147.5 152 L 208.7 152 M 396.9 152 L 444.9 152 M 515 152 L 601.6 152 M 830.8 152 L 916.5 152 M 988.2 152 L 1010.5 152 M 28.2 153.9 L 64.4 153.9 M 147.5 153.9 L 208.7 153.9 M 396.9 153.9 L 444.9 153.9 M 515 153.9 L 602.9 153.9 M 671.9 153.9 L 760.4 153.9 M 829.4 153.9 L 917.9 153.9 M 986.9 153.9 L 1010.5 153.9 M 28.2 155.9 L 64.4 155.9 M 147.5 155.9 L 208.7 155.9 M 396.9 155.9 L 444.9 155.9 M 476.9 155.9 L 482.9 155.9 M 515 155.9 L 604.2 155.9 M 670.6 155.9 L 761.7 155.9 M 828.1 155.9 L 919.2 155.9 M 985.6 155.9 L 1010.5 155.9 M 28.2 157.9 L 64.4 157.9 M 147.5 157.9 L 208.8 157.9 M 396.8 157.9 L 445 157.9 M 476.9 157.9 L 482.9 157.9 M 514.9 157.9 L 605.6 157.9 M 669.2 157.9 L 763.1 157.9 M 826.7 157.9 L 920.6 157.9 M 984.2 157.9 L 1010.5 157.9 M 28.2 159.8 L 64.4 159.8 M 147.5 159.8 L 209.3 159.8 M 396.2 159.8 L 445.5 159.8 M 476.9 159.8 L 482.9 159.8 M 514.4 159.8 L 606.9 159.8 M 667.9 159.8 L 764.4 159.8 M 825.4 159.8 L 921.9 159.8 M 982.9 159.8 L 1010.5 159.8 M 28.2 161.8 L 74.4 161.8 M 137.4 161.8 L 210.3 161.8 M 395.2 161.8 L 446.6 161.8 M 476.9 161.8 L 482.9 161.8 M 513.3 161.8 L 609.1 161.8 M 665.8 161.8 L 766.6 161.8 M 823.2 161.8 L 924 161.8 M 980.7 161.8 L 1010.5 161.8 M 28.2 163.7 L 74.4 163.7 M 137.4 163.7 L 212.2 163.7 M 275.2 163.7 L 330.3 163.7 M 393.3 163.7 L 448.4 163.7 M 476.9 163.7 L 482.9 163.7 M 511.4 163.7 L 611.3 163.7 M 663.6 163.7 L 768.8 163.7 M 821 163.7 L 926.2 163.7 M 945.5 163.7 L 959.3 163.7 M 978.5 163.7 L 1010.5 163.7 M 28.2 165.6 L 74.4 165.6 M 137.4 165.6 L 613.4 165.6 M 661.4 165.6 L 770.9 165.6 M 818.9 165.6 L 928.4 165.6 M 945.5 165.6 L 959.3 165.6 M 976.4 165.6 L 1010.5 165.6 M 28.2 167.6 L 64.4 167.6 M 147.5 167.6 L 616.6 167.6 M 658.3 167.6 L 774 167.6 M 815.8 167.6 L 931.5 167.6 M 945.5 167.6 L 959.3 167.6 M 973.2 167.6 L 1010.5 167.6 M 28.2 169.5 L 64.4 169.5 M 147.5 169.5 L 620.3 169.5 M 654.6 169.5 L 777.7 169.5 M 812.1 169.5 L 935.2 169.5 M 945.5 169.5 L 959.3 169.5 M 969.5 169.5 L 1010.5 169.5 M 28.2 171.5 L 64.4 171.5 M 147.5 171.5 L 625 171.5 M 649.8 171.5 L 782.5 171.5 M 807.3 171.5 L 940 171.5 M 945.5 171.5 L 959.3 171.5 M 964.8 171.5 L 1010.5 171.5 M 28.2 173.4 L 64.4 173.4 M 147.5 173.4 L 1010.5 173.4 M 28.2 175.4 L 64.4 175.4 M 147.5 175.4 L 1010.5 175.4 M 28.2 177.3 L 64.4 177.3 M 147.5 177.3 L 1010.5 177.3 M 28.2 179.3 L 64.4 179.3 M 147.5 179.3 L 1010.5 179.3 M 28.2 181.2 L 64.4 181.2 M 147.5 181.2 L 1010.5 181.2 M 28.2 183.2 L 64.4 183.2 M 147.5 183.2 L 1010.5 183.2 M 28.2 185.1 L 64.4 185.1 M 147.5 185.1 L 1010.5 185.1 M 28.2 187.1 L 64.4 187.1 M 147.5 187.1 L 1010.5 187.1 M 28.2 189 L 64.4 189 M 147.5 189 L 1010.5 189 M 28.2 191 L 64.4 191 M 147.5 191 L 1010.5 191 M 28.2 192.9 L 64.4 192.9 M 147.5 192.9 L 1010.5 192.9 M 28.2 194.9 L 64.4 194.9 M 147.5 194.9 L 1010.5 194.9 M 28.2 196.8 L 64.5 196.8 M 102.9 196.8 L 108.9 196.8 M 147.4 196.8 L 1010.5 196.8 M 28.2 198.8 L 64.9 198.8 M 102.9 198.8 L 108.9 198.8 M 146.9 198.8 L 1010.5 198.8 M 28.2 200.7 L 65.8 200.7 M 102.9 200.7 L 108.9 200.7 M 146 200.7 L 1010.5 200.7 M 28.2 202.7 L 67.5 202.7 M 102.9 202.7 L 108.9 202.7 M 144.3 202.7 L 1010.5 202.7 M 28.2 204.6 L 71.3 204.6 M 102.6 204.6 L 109.2 204.6 M 140.8 204.6 L 213.9 204.6 M 273.6 204.6 L 332 204.6 M 358.8 204.6 L 364.8 204.6 M 391.7 204.6 L 450.1 204.6 M 509.8 204.6 L 1010.5 204.6 M 28.2 206.6 L 139 206.6 M 141.3 206.6 L 211.2 206.6 M 276.3 206.6 L 329.3 206.6 M 358.8 206.6 L 364.8 206.6 M 394.4 206.6 L 447.4 206.6 M 512.5 206.6 L 1010.5 206.6 M 28.2 208.5 L 135.8 208.5 M 277.7 208.5 L 327.9 208.5 M 358.8 208.5 L 364.8 208.5 M 395.8 208.5 L 446 208.5 M 513.9 208.5 L 1010.5 208.5 M 28.2 210.5 L 132.3 210.5 M 278.4 210.5 L 327.1 210.5 M 358.8 210.5 L 364.8 210.5 M 396.6 210.5 L 445.2 210.5 M 514.7 210.5 L 1010.5 210.5 M 28.2 212.4 L 130 212.4 M 278.7 212.4 L 326.8 212.4 M 358.8 212.4 L 364.8 212.4 M 396.8 212.4 L 444.9 212.4 M 514.9 212.4 L 1010.5 212.4 M 28.2 214.4 L 128 214.4 M 278.8 214.4 L 326.8 214.4 M 396.9 214.4 L 444.9 214.4 M 515 214.4 L 1010.5 214.4 M 28.2 216.3 L 126.1 216.3 M 278.8 216.3 L 326.8 216.3 M 396.9 216.3 L 444.9 216.3 M 515 216.3 L 1010.5 216.3 M 28.2 218.3 L 124.1 218.3 M 278.8 218.3 L 326.8 218.3 M 396.9 218.3 L 444.9 218.3 M 515 218.3 L 1010.5 218.3 M 28.2 220.2 L 122.2 220.2 M 278.8 220.2 L 326.8 220.2 M 396.9 220.2 L 444.9 220.2 M 515 220.2 L 1010.5 220.2 M 28.2 222.2 L 101 222.2 M 110.9 222.2 L 120.2 222.2 M 278.8 222.2 L 326.8 222.2 M 396.9 222.2 L 444.9 222.2 M 515 222.2 L 1010.5 222.2 M 28.2 224.2 L 93 224.2 M 278.8 224.2 L 336.8 224.2 M 386.8 224.2 L 444.9 224.2 M 515 224.2 L 1010.5 224.2 M 28.2 226.1 L 88.3 226.1 M 278.8 226.1 L 336.8 226.1 M 386.8 226.1 L 444.9 226.1 M 515 226.1 L 1010.5 226.1 M 28.2 228.1 L 84.6 228.1 M 278.8 228.1 L 336.8 228.1 M 386.8 228.1 L 444.9 228.1 M 515 228.1 L 1010.5 228.1 M 28.2 230 L 81.5 230 M 278.8 230 L 326.8 230 M 396.9 230 L 444.9 230 M 515 230 L 1010.5 230 M 28.2 231.9 L 79.3 231.9 M 278.8 231.9 L 326.8 231.9 M 396.9 231.9 L 444.9 231.9 M 515 231.9 L 1010.5 231.9 M 28.2 233.9 L 77.1 233.9 M 278.8 233.9 L 326.8 233.9 M 396.9 233.9 L 444.9 233.9 M 515 233.9 L 1010.5 233.9 M 28.2 235.8 L 74.9 235.8 M 280.5 235.8 L 326.8 235.8 M 396.9 235.8 L 444.9 235.8 M 515 235.8 L 1010.5 235.8 M 28.2 237.8 L 73.5 237.8 M 282.4 237.8 L 326.8 237.8 M 396.9 237.8 L 444.9 237.8 M 515 237.8 L 1010.5 237.8 M 28.2 239.7 L 72.2 239.7 M 284.4 239.7 L 326.8 239.7 M 358.8 239.7 L 364.8 239.7 M 396.8 239.7 L 444.9 239.7 M 514.9 239.7 L 1010.5 239.7 M 28.2 241.7 L 70.8 241.7 M 286.3 241.7 L 327.1 241.7 M 358.8 241.7 L 364.8 241.7 M 396.5 241.7 L 445.3 241.7 M 514.6 241.7 L 1010.5 241.7 M 28.2 243.6 L 69.5 243.6 M 288.3 243.6 L 328 243.6 M 358.8 243.6 L 364.8 243.6 M 395.7 243.6 L 446.1 243.6 M 513.8 243.6 L 1010.5 243.6 M 28.2 245.6 L 68.6 245.6 M 150.7 245.6 L 211.3 245.6 M 290.2 245.6 L 329.4 245.6 M 358.8 245.6 L 364.8 245.6 M 394.2 245.6 L 447.5 245.6 M 512.3 245.6 L 1010.5 245.6 M 28.2 247.5 L 67.9 247.5 M 148.7 247.5 L 214.3 247.5 M 292.2 247.5 L 332.4 247.5 M 358.8 247.5 L 364.8 247.5 M 391.3 247.5 L 450.5 247.5 M 509.4 247.5 L 1010.5 247.5 M 28.2 249.5 L 67.1 249.5 M 146.8 249.5 L 240.3 249.5 M 294.1 249.5 L 460.9 249.5 M 499 249.5 L 1010.5 249.5 M 28.2 251.4 L 66.4 251.4 M 145.5 251.4 L 242.2 251.4 M 296.1 251.4 L 460.9 251.4 M 499 251.4 L 1010.5 251.4 M 28.2 253.4 L 65.6 253.4 M 146.2 253.4 L 244.2 253.4 M 298 253.4 L 460.9 253.4 M 499 253.4 L 1010.5 253.4 M 28.2 255.3 L 65.4 255.3 M 146.5 255.3 L 246.1 255.3 M 300 255.3 L 460.9 255.3 M 499 255.3 L 1010.5 255.3 M 28.2 257.3 L 65.1 257.3 M 146.7 257.3 L 248.1 257.3 M 301.9 257.3 L 460.9 257.3 M 499 257.3 L 1010.5 257.3 M 28.2 259.2 L 64.9 259.2 M 146.9 259.2 L 250 259.2 M 303.9 259.2 L 460.9 259.2 M 499 259.2 L 1010.5 259.2 M 28.2 261.2 L 64.7 261.2 M 147.2 261.2 L 252 261.2 M 305.8 261.2 L 460.9 261.2 M 499 261.2 L 1010.5 261.2 M 28.2 263.1 L 64.4 263.1 M 147.4 263.1 L 253.9 263.1 M 307.8 263.1 L 460.9 263.1 M 499 263.1 L 1010.5 263.1 M 28.2 265.1 L 64.6 265.1 M 147.3 265.1 L 255.9 265.1 M 309.7 265.1 L 460.9 265.1 M 499 265.1 L 1010.5 265.1 M 28.2 267 L 64.8 267 M 147 267 L 257.8 267 M 311.7 267 L 460.9 267 M 499 267 L 1010.5 267 M 28.2 269 L 65.1 269 M 146.8 269 L 259.8 269 M 313.6 269 L 460.9 269 M 499 269 L 1010.5 269 M 28.2 270.9 L 65.3 270.9 M 146.6 270.9 L 261.7 270.9 M 315.6 270.9 L 460.9 270.9 M 499 270.9 L 1010.5 270.9 M 28.2 272.9 L 65.5 272.9 M 146.3 272.9 L 263.7 272.9 M 317.5 272.9 L 460.9 272.9 M 499 272.9 L 1010.5 272.9 M 28.2 274.8 L 66.2 274.8 M 145.7 274.8 L 265.6 274.8 M 319.5 274.8 L 460.9 274.8 M 499 274.8 L 1010.5 274.8 M 28.2 276.8 L 66.9 276.8 M 144.9 276.8 L 267.6 276.8 M 321.4 276.8 L 460.9 276.8 M 499 276.8 L 1010.5 276.8 M 28.2 278.7 L 67.7 278.7 M 144.2 278.7 L 269.5 278.7 M 323.4 278.7 L 460.9 278.7 M 499 278.7 L 1010.5 278.7 M 28.2 280.7 L 68.4 280.7 M 143.4 280.7 L 271.5 280.7 M 325.3 280.7 L 460.9 280.7 M 499 280.7 L 1010.5 280.7 M 28.2 282.6 L 69.1 282.6 M 142.7 282.6 L 273.4 282.6 M 327.3 282.6 L 460.9 282.6 M 499 282.6 L 1010.5 282.6 M 28.2 284.6 L 70.5 284.6 M 141.4 284.6 L 274.3 284.6 M 329 284.6 L 460.9 284.6 M 499 284.6 L 1010.5 284.6 M 28.2 286.5 L 71.8 286.5 M 140.1 286.5 L 221.2 286.5 M 330.6 286.5 L 433.8 286.5 M 502.5 286.5 L 1010.5 286.5 M 28.2 288.5 L 73.1 288.5 M 138.7 288.5 L 156.9 288.5 M 331.6 288.5 L 431.1 288.5 M 505.2 288.5 L 1010.5 288.5 M 28.2 290.5 L 74.5 290.5 M 137.3 290.5 L 152.7 290.5 M 332.4 290.5 L 429.7 290.5 M 506.6 290.5 L 1010.5 290.5 M 28.2 292.4 L 76.5 292.4 M 135.4 292.4 L 150.2 292.4 M 333 292.4 L 428.9 292.4 M 507.3 292.4 L 1010.5 292.4 M 28.2 294.4 L 78.7 294.4 M 133.2 294.4 L 148.1 294.4 M 333.4 294.4 L 428.6 294.4 M 507.7 294.4 L 1010.5 294.4 M 28.2 296.3 L 80.9 296.3 M 131 296.3 L 146.1 296.3 M 333.6 296.3 L 428.6 296.3 M 507.7 296.3 L 1010.5 296.3 M 28.2 298.2 L 83.6 298.2 M 128.3 298.2 L 144.2 298.2 M 333.5 298.2 L 428.6 298.2 M 507.7 298.2 L 1010.5 298.2 M 28.2 300.2 L 87.3 300.2 M 124.5 300.2 L 142.2 300.2 M 333.3 300.2 L 428.6 300.2 M 507.7 300.2 L 1010.5 300.2 M 28.2 302.1 L 91 302.1 M 120.8 302.1 L 140.3 302.1 M 333.1 302.1 L 428.6 302.1 M 507.7 302.1 L 1010.5 302.1 M 28.2 304.1 L 98.7 304.1 M 113.1 304.1 L 138.3 304.1 M 333.4 304.1 L 428.6 304.1 M 507.7 304.1 L 1010.5 304.1 M 28.2 306 L 136.4 306 M 333.6 306 L 428.6 306 M 507.7 306 L 1010.5 306 M 28.2 308 L 134.4 308 M 333.6 308 L 428.6 308 M 507.7 308 L 1010.5 308 M 28.2 309.9 L 132.5 309.9 M 333.6 309.9 L 428.6 309.9 M 507.7 309.9 L 1010.5 309.9 M 28.2 311.9 L 130.5 311.9 M 333.6 311.9 L 428.6 311.9 M 507.7 311.9 L 1010.5 311.9 M 28.2 313.8 L 128.6 313.8 M 333.6 313.8 L 428.6 313.8 M 507.7 313.8 L 1010.5 313.8 M 28.2 315.8 L 126.6 315.8 M 333.6 315.8 L 428.6 315.8 M 507.7 315.8 L 1010.5 315.8 M 28.2 317.7 L 124.7 317.7 M 333.6 317.7 L 428.6 317.7 M 507.7 317.7 L 1010.5 317.7 M 28.2 319.7 L 122.7 319.7 M 333.6 319.7 L 428.7 319.7 M 507.6 319.7 L 1010.5 319.7 M 28.2 321.6 L 120.8 321.6 M 333.6 321.6 L 429.2 321.6 M 507 321.6 L 1010.5 321.6 M 28.2 323.6 L 95.2 323.6 M 116.6 323.6 L 118.8 323.6 M 333.6 323.6 L 430.3 323.6 M 506 323.6 L 1010.5 323.6 M 28.2 325.5 L 89.4 325.5 M 333.6 325.5 L 432.2 325.5 M 504.1 325.5 L 1010.5 325.5 M 28.2 327.5 L 85.6 327.5 M 168.8 327.5 L 285.7 327.5 M 333.6 327.5 L 1010.5 327.5 M 28.2 329.4 L 82.1 329.4 M 166.8 329.4 L 286.2 329.4 M 333.5 329.4 L 1010.5 329.4 M 28.2 331.4 L 79.9 331.4 M 164.9 331.4 L 284.2 331.4 M 333.3 331.4 L 1010.5 331.4 M 28.2 333.3 L 77.7 333.3 M 162.9 333.3 L 282.3 333.3 M 332.8 333.3 L 1010.5 333.3 M 28.2 335.3 L 75.5 335.3 M 161 335.3 L 280.3 335.3 M 332.1 335.3 L 1010.5 335.3 M 28.2 337.2 L 73.9 337.2 M 159 337.2 L 219.9 337.2 M 331.1 337.2 L 432.5 337.2 M 503.7 337.2 L 1010.5 337.2 M 28.2 339.2 L 72.5 339.2 M 157.1 339.2 L 217.9 339.2 M 329.9 339.2 L 378.1 339.2 M 726.1 339.2 L 1010.5 339.2 M 28.2 341.1 L 71.2 341.1 M 155.1 341.1 L 216.8 341.1 M 328.3 341.1 L 374.7 341.1 M 729.5 341.1 L 1010.5 341.1 M 28.2 343.1 L 69.9 343.1 M 153.2 343.1 L 216.1 343.1 M 326.4 343.1 L 372.3 343.1 M 731.8 343.1 L 1010.5 343.1 M 28.2 345 L 68.8 345 M 151.2 345 L 216 345 M 324.5 345 L 370.4 345 M 733.8 345 L 1010.5 345 M 28.2 347 L 68.1 347 M 149.3 347 L 216 347 M 322.5 347 L 368.4 347 M 735.7 347 L 1010.5 347 M 28.2 348.9 L 67.3 348.9 M 147.3 348.9 L 216 348.9 M 320.5 348.9 L 366.5 348.9 M 737.7 348.9 L 1010.5 348.9 M 28.2 350.9 L 66.6 350.9 M 145.4 350.9 L 216 350.9 M 318.6 350.9 L 364.5 350.9 M 739.6 350.9 L 1010.5 350.9 M 28.2 352.9 L 65.8 352.9 M 146 352.9 L 216 352.9 M 316.6 352.9 L 362.6 352.9 M 741.6 352.9 L 1010.5 352.9 M 28.2 354.8 L 65.5 354.8 M 146.4 354.8 L 216 354.8 M 314.7 354.8 L 360.6 354.8 M 743.5 354.8 L 1010.5 354.8 M 28.2 356.8 L 65.2 356.8 M 146.6 356.8 L 216 356.8 M 312.7 356.8 L 358.7 356.8 M 745.5 356.8 L 1010.5 356.8 M 28.2 358.7 L 65 358.7 M 146.9 358.7 L 216 358.7 M 310.8 358.7 L 356.8 358.7 M 747.4 358.7 L 1010.5 358.7 M 28.2 360.6 L 64.7 360.6 M 147.1 360.6 L 216 360.6 M 308.8 360.6 L 354.8 360.6 M 749.4 360.6 L 1010.5 360.6 M 28.2 362.6 L 64.5 362.6 M 147.3 362.6 L 216 362.6 M 306.9 362.6 L 352.9 362.6 M 751.3 362.6 L 1010.5 362.6 M 28.2 364.5 L 64.5 364.5 M 147.3 364.5 L 216 364.5 M 304.9 364.5 L 350.9 364.5 M 753.3 364.5 L 1010.5 364.5 M 28.2 366.5 L 64.8 366.5 M 147.1 366.5 L 216 366.5 M 303 366.5 L 349 366.5 M 755.2 366.5 L 1010.5 366.5 M 28.2 368.4 L 65 368.4 M 146.8 368.4 L 216 368.4 M 301 368.4 L 347 368.4 M 757.2 368.4 L 1010.5 368.4 M 28.2 370.4 L 65.3 370.4 M 146.6 370.4 L 216.2 370.4 M 299 370.4 L 345 370.4 M 759.1 370.4 L 1010.5 370.4 M 28.2 372.3 L 65.5 372.3 M 146.4 372.3 L 216.9 372.3 M 296.6 372.3 L 343.1 372.3 M 761.1 372.3 L 1010.5 372.3 M 28.2 374.3 L 66 374.3 M 145.9 374.3 L 218.2 374.3 M 292.8 374.3 L 341.1 374.3 M 763 374.3 L 1010.5 374.3 M 28.2 376.2 L 66.7 376.2 M 145.1 376.2 L 220.7 376.2 M 290.4 376.2 L 339.2 376.2 M 393.1 376.2 L 433.3 376.2 M 503 376.2 L 711.1 376.2 M 765 376.2 L 1010.5 376.2 M 28.2 378.2 L 67.5 378.2 M 144.4 378.2 L 337.2 378.2 M 391.1 378.2 L 713.1 378.2 M 766.9 378.2 L 1010.5 378.2 M 28.2 380.1 L 68.2 380.1 M 143.7 380.1 L 335.3 380.1 M 389.2 380.1 L 715 380.1 M 768.9 380.1 L 1010.5 380.1 M 28.2 382.1 L 68.9 382.1 M 142.9 382.1 L 333.3 382.1 M 387.2 382.1 L 717 382.1 M 770.8 382.1 L 1010.5 382.1 M 28.2 384 L 70.1 384 M 141.8 384 L 331.4 384 M 385.3 384 L 718.9 384 M 772.8 384 L 1010.5 384 M 28.2 386 L 71.4 386 M 140.4 386 L 222.7 386 M 288.3 386 L 329.4 386 M 383.3 386 L 435.3 386 M 500.9 386 L 537.7 386 M 556 386 L 720.9 386 M 774.7 386 L 1010.5 386 M 28.2 387.9 L 72.8 387.9 M 139.1 387.9 L 219.1 387.9 M 381.4 387.9 L 431.7 387.9 M 559.7 387.9 L 722.8 387.9 M 776.7 387.9 L 1010.5 387.9 M 28.2 389.9 L 74.1 389.9 M 137.7 389.9 L 217.4 389.9 M 379.4 389.9 L 430 389.9 M 561.9 389.9 L 724.8 389.9 M 778.6 389.9 L 1010.5 389.9 M 28.2 391.8 L 75.8 391.8 M 136 391.8 L 216.4 391.8 M 377.4 391.8 L 429 391.8 M 564 391.8 L 726.7 391.8 M 780.6 391.8 L 1010.5 391.8 M 28.2 393.8 L 78.1 393.8 M 133.8 393.8 L 216 393.8 M 375.5 393.8 L 428.6 393.8 M 565.3 393.8 L 628.7 393.8 M 646.1 393.8 L 728.7 393.8 M 782.5 393.8 L 786.2 393.8 M 803.6 393.8 L 943.7 393.8 M 961.1 393.8 L 1010.5 393.8 M 28.2 395.7 L 80.3 395.7 M 131.6 395.7 L 216 395.7 M 373.5 395.7 L 428.6 395.7 M 566.7 395.7 L 622 395.7 M 652.9 395.7 L 730.6 395.7 M 810.3 395.7 L 936.9 395.7 M 967.8 395.7 L 1010.5 395.7 M 28.2 397.7 L 82.5 397.7 M 129.3 397.7 L 216 397.7 M 371.6 397.7 L 428.6 397.7 M 567.5 397.7 L 618.3 397.7 M 656.6 397.7 L 732.6 397.7 M 814 397.7 L 933.2 397.7 M 971.5 397.7 L 1010.5 397.7 M 28.2 399.6 L 86.2 399.6 M 127.3 399.6 L 216 399.6 M 369.6 399.6 L 428.6 399.6 M 568.2 399.6 L 614.5 399.6 M 660.3 399.6 L 734.5 399.6 M 817.8 399.6 L 929.5 399.6 M 975.3 399.6 L 1010.5 399.6 M 28.2 401.6 L 86.9 401.6 M 129.3 401.6 L 216 401.6 M 367.7 401.6 L 428.6 401.6 M 568.9 401.6 L 612.3 401.6 M 662.5 401.6 L 736.5 401.6 M 820 401.6 L 927.3 401.6 M 977.5 401.6 L 1010.5 401.6 M 28.2 403.5 L 86.9 403.5 M 131.2 403.5 L 216 403.5 M 365.7 403.5 L 428.6 403.5 M 569.1 403.5 L 610.1 403.5 M 664.7 403.5 L 738.4 403.5 M 822.2 403.5 L 925.1 403.5 M 979.7 403.5 L 1010.5 403.5 M 28.2 405.5 L 86.9 405.5 M 133.2 405.5 L 216 405.5 M 363.8 405.5 L 428.6 405.5 M 569.4 405.5 L 607.9 405.5 M 666.9 405.5 L 740.4 405.5 M 824.4 405.5 L 922.9 405.5 M 981.9 405.5 L 1010.5 405.5 M 28.2 407.4 L 87.1 407.4 M 135.1 407.4 L 216 407.4 M 361.8 407.4 L 428.6 407.4 M 569.4 407.4 L 606.2 407.4 M 668.6 407.4 L 742.3 407.4 M 826.1 407.4 L 921.2 407.4 M 983.6 407.4 L 1010.5 407.4 M 28.2 409.4 L 87.4 409.4 M 137.1 409.4 L 216 409.4 M 359.9 409.4 L 428.6 409.4 M 569.1 409.4 L 604.9 409.4 M 670 409.4 L 744.3 409.4 M 827.5 409.4 L 919.8 409.4 M 984.9 409.4 L 1010.5 409.4 M 28.2 411.3 L 88 411.3 M 139 411.3 L 216 411.3 M 357.9 411.3 L 428.6 411.3 M 568.9 411.3 L 603.5 411.3 M 671.3 411.3 L 746.2 411.3 M 828.8 411.3 L 918.5 411.3 M 986.3 411.3 L 1010.5 411.3 M 28.2 413.3 L 88.8 413.3 M 141 413.3 L 216 413.3 M 356 413.3 L 428.6 413.3 M 568.3 413.3 L 602.2 413.3 M 672.7 413.3 L 748.2 413.3 M 830.1 413.3 L 917.1 413.3 M 987.6 413.3 L 1010.5 413.3 M 28.2 415.2 L 89.8 415.2 M 142.9 415.2 L 216 415.2 M 354 415.2 L 428.6 415.2 M 567.5 415.2 L 601.2 415.2 M 673.7 415.2 L 750.1 415.2 M 988.6 415.2 L 1010.5 415.2 M 28.2 417.2 L 91.3 417.2 M 144.9 417.2 L 216 417.2 M 352.1 417.2 L 428.6 417.2 M 566.8 417.2 L 600.4 417.2 M 674.4 417.2 L 752.1 417.2 M 989.4 417.2 L 1010.5 417.2 M 28.2 419.2 L 93 419.2 M 146.8 419.2 L 216 419.2 M 350.1 419.2 L 428.6 419.2 M 565.4 419.2 L 599.7 419.2 M 675.2 419.2 L 754 419.2 M 990.1 419.2 L 1010.5 419.2 M 28.2 421.1 L 94.9 421.1 M 148.8 421.1 L 216.4 421.1 M 348 421.1 L 429 421.1 M 564.1 421.1 L 598.9 421.1 M 675.9 421.1 L 756 421.1 M 990.9 421.1 L 1010.5 421.1 M 28.2 423.1 L 96.9 423.1 M 150.8 423.1 L 217.3 423.1 M 345.1 423.1 L 429.9 423.1 M 562.1 423.1 L 598.2 423.1 M 676.6 423.1 L 755.7 423.1 M 991.6 423.1 L 1010.5 423.1 M 28.2 425 L 98.8 425 M 152.7 425 L 218.9 425 M 340.3 425 L 431.5 425 M 559.9 425 L 597.9 425 M 677 425 L 755.3 425 M 991.9 425 L 1010.5 425 M 28.2 426.9 L 100.8 426.9 M 154.7 426.9 L 222.3 426.9 M 288.8 426.9 L 434.9 426.9 M 501.4 426.9 L 537.5 426.9 M 556.2 426.9 L 597.6 426.9 M 677.2 426.9 L 755.1 426.9 M 992.2 426.9 L 1010.5 426.9 M 28.2 428.9 L 102.7 428.9 M 156.6 428.9 L 543.9 428.9 M 549.9 428.9 L 597.4 428.9 M 677.5 428.9 L 754.9 428.9 M 992.4 428.9 L 1010.5 428.9 M 28.2 430.8 L 104.7 430.8 M 158.6 430.8 L 597.1 430.8 M 677.7 430.8 L 754.6 430.8 M 992.7 430.8 L 1010.5 430.8 M 28.2 432.8 L 106.6 432.8 M 160.5 432.8 L 596.9 432.8 M 677.9 432.8 L 754.4 432.8 M 992.9 432.8 L 1010.5 432.8 M 28.2 434.7 L 108.6 434.7 M 162.5 434.7 L 597.1 434.7 M 677.8 434.7 L 754.5 434.7 M 992.7 434.7 L 1010.5 434.7 M 28.2 436.7 L 110.5 436.7 M 164.4 436.7 L 220.8 436.7 M 252.5 436.7 L 258.5 436.7 M 290.2 436.7 L 433.4 436.7 M 502.8 436.7 L 597.3 436.7 M 677.5 436.7 L 754.8 436.7 M 992.5 436.7 L 1010.5 436.7 M 28.2 438.6 L 112.5 438.6 M 166.4 438.6 L 218.4 438.6 M 252.5 438.6 L 258.5 438.6 M 292.7 438.6 L 339.5 438.6 M 677.3 438.6 L 755 438.6 M 992.3 438.6 L 1010.5 438.6 M 28.2 440.6 L 114.4 440.6 M 168.3 440.6 L 217 440.6 M 252.5 440.6 L 258.5 440.6 M 294.1 440.6 L 335.5 440.6 M 677.1 440.6 L 755.3 440.6 M 992 440.6 L 1010.5 440.6 M 28.2 442.5 L 116.4 442.5 M 170.3 442.5 L 216.3 442.5 M 252.5 442.5 L 258.5 442.5 M 294.8 442.5 L 333.1 442.5 M 676.8 442.5 L 755.5 442.5 M 991.8 442.5 L 1010.5 442.5 M 28.2 444.5 L 118.4 444.5 M 172.2 444.5 L 216 444.5 M 252.5 444.5 L 258.5 444.5 M 295.1 444.5 L 331 444.5 M 676.2 444.5 L 756.2 444.5 M 991.1 444.5 L 1010.5 444.5 M 28.2 446.4 L 120.3 446.4 M 174.2 446.4 L 216 446.4 M 295.1 446.4 L 329 446.4 M 675.4 446.4 L 756.9 446.4 M 990.4 446.4 L 1010.5 446.4 M 28.2 448.4 L 122.3 448.4 M 176.1 448.4 L 216 448.4 M 295.1 448.4 L 327.1 448.4 M 674.7 448.4 L 757.7 448.4 M 989.6 448.4 L 1010.5 448.4 M 28.2 450.3 L 124.2 450.3 M 178.1 450.3 L 216 450.3 M 295.1 450.3 L 325.1 450.3 M 673.9 450.3 L 758.4 450.3 M 988.9 450.3 L 1010.5 450.3 M 28.2 452.3 L 126.2 452.3 M 180 452.3 L 216 452.3 M 295.1 452.3 L 323.2 452.3 M 673.1 452.3 L 759.2 452.3 M 830.6 452.3 L 916.7 452.3 M 988.1 452.3 L 1010.5 452.3 M 28.2 454.2 L 128.1 454.2 M 181.9 454.2 L 226 454.2 M 285.1 454.2 L 321.2 454.2 M 671.7 454.2 L 760.6 454.2 M 829.2 454.2 L 918.1 454.2 M 986.7 454.2 L 1010.5 454.2 M 28.2 456.2 L 130.1 456.2 M 183.9 456.2 L 226 456.2 M 285.1 456.2 L 319.3 456.2 M 670.4 456.2 L 761.9 456.2 M 827.9 456.2 L 919.4 456.2 M 985.3 456.2 L 1010.5 456.2 M 28.2 458.1 L 132 458.1 M 185.8 458.1 L 226 458.1 M 285.1 458.1 L 317.3 458.1 M 669 458.1 L 763.3 458.1 M 826.5 458.1 L 920.8 458.1 M 984 458.1 L 1010.5 458.1 M 28.2 460.1 L 134 460.1 M 187.8 460.1 L 216 460.1 M 295.1 460.1 L 315.4 460.1 M 667.7 460.1 L 764.7 460.1 M 825.1 460.1 L 922.1 460.1 M 982.6 460.1 L 1010.5 460.1 M 28.2 462 L 135.9 462 M 189.7 462 L 216 462 M 295.1 462 L 313.4 462 M 665.5 462 L 766.9 462 M 822.9 462 L 924.4 462 M 980.4 462 L 1010.5 462 M 28.2 464 L 137.9 464 M 191.7 464 L 216 464 M 295.1 464 L 311.5 464 M 663.2 464 L 769.1 464 M 820.7 464 L 926.6 464 M 978.2 464 L 1010.5 464 M 28.2 465.9 L 139.8 465.9 M 193.6 465.9 L 216 465.9 M 295.1 465.9 L 309.5 465.9 M 661 465.9 L 771.3 465.9 M 818.5 465.9 L 928.8 465.9 M 976 465.9 L 1010.5 465.9 M 28.2 467.9 L 141.8 467.9 M 195.6 467.9 L 216 467.9 M 295.1 467.9 L 307.6 467.9 M 657.7 467.9 L 774.6 467.9 M 815.2 467.9 L 932.1 467.9 M 972.7 467.9 L 1010.5 467.9 M 28.2 469.8 L 143.7 469.8 M 654 469.8 L 778.3 469.8 M 811.5 469.8 L 935.8 469.8 M 969 469.8 L 1010.5 469.8 M 28.2 471.8 L 145.6 471.8 M 625.3 471.8 L 626.2 471.8 M 648.6 471.8 L 783.7 471.8 M 806.1 471.8 L 941.2 471.8 M 963.6 471.8 L 1010.5 471.8 M 28.2 473.7 L 147.6 473.7 M 622 473.7 L 1010.5 473.7 M 28.2 475.7 L 149.5 475.7 M 353.6 475.7 L 432.4 475.7 M 503.9 475.7 L 1010.5 475.7 M 28.2 477.6 L 151.5 477.6 M 351.7 477.6 L 1010.5 477.6 M 28.2 479.6 L 153.4 479.6 M 349.7 479.6 L 1010.5 479.6 M 28.2 481.5 L 155.4 481.5 M 347.8 481.5 L 1010.5 481.5 M 28.2 483.5 L 157.3 483.5 M 345.8 483.5 L 1010.5 483.5 M 28.2 485.5 L 159.3 485.5 M 343.9 485.5 L 1010.5 485.5 M 28.2 487.4 L 161.2 487.4 M 341.9 487.4 L 1010.5 487.4 M 28.2 489.4 L 163.2 489.4 M 340 489.4 L 1010.5 489.4 M 28.2 491.3 L 165.1 491.3 M 338.1 491.3 L 1010.5 491.3 M 28.2 493.2 L 167.1 493.2 M 336.1 493.2 L 1010.5 493.2 M 28.2 495.2 L 169 495.2 M 334.2 495.2 L 1010.5 495.2 M 28.2 497.1 L 170.5 497.1 M 332.7 497.1 L 1010.5 497.1"/><path stroke-width="20" fill="none" d="M 188.6 487.8 L 105.9 405.1 M 718.3 356.5 L 794.9 433.1 M 385.8 356.5 L 335.8 406.5 M 255.5 306.5 L 162.8 306.5 M 335.8 406.5 L 255.5 406.5 M 143.3 226 L 105.9 263.4 M 345.9 456.5 L 314.6 487.8 M 794.9 433.1 L 952.4 433.1 M 614 456.5 L 637.4 433.1 M 286 356.5 L 314.6 328 M 105.9 405.1 L 105.9 363.4 M 243.7 143.3 L 361.8 143.3 M 479.9 226 L 479.9 294.7 M 468.1 406.5 L 546.9 406.5 M 637.4 133.1 L 794.9 133.1 M 314.6 328 L 314.6 306.5 M 243.7 226 L 314.6 296.9 M 345.9 456.5 L 614 456.5 M 314.6 487.8 L 188.6 487.8 M 243.7 226 L 143.3 226 M 255.5 356.5 L 286 356.5 M 385.8 356.5 L 718.3 356.5 M 162.8 306.5 L 105.9 363.4"/><use x="361.8" y="322.5" xlink:href="#tool-D12-pad-1018"/><use x="381.5" y="420.9" xlink:href="#tool-D12-pad-1018"/><use x="420.9" y="184.7" xlink:href="#tool-D12-pad-1018"/><use x="716.2" y="86.2" xlink:href="#tool-D12-pad-1018"/><use x="546.9" y="406.5" xlink:href="#tool-D12-pad-1018"/><use x="302.8" y="184.7" xlink:href="#tool-D12-pad-1018"/><use x="716.2" y="479.9" xlink:href="#tool-D12-pad-1018"/><use x="873.6" y="479.9" xlink:href="#tool-D12-pad-1018"/><use x="873.6" y="86.2" xlink:href="#tool-D12-pad-1018"/><use x="794.9" y="133.1" xlink:href="#tool-D13-pad-1019"/><use x="794.9" y="433.1" xlink:href="#tool-D13-pad-1019"/><use x="243.7" y="226" xlink:href="#tool-D14-pad-1020"/><use x="243.7" y="143.3" xlink:href="#tool-D14-pad-1020"/><use x="952.4" y="433.1" xlink:href="#tool-D15-pad-1021"/><use x="952.4" y="133.1" xlink:href="#tool-D15-pad-1021"/><use x="255.5" y="456.5" xlink:href="#tool-D16-pad-1022"/><use x="255.5" y="406.5" xlink:href="#tool-D16-pad-1022"/><use x="255.5" y="356.5" xlink:href="#tool-D16-pad-1022"/><use x="255.5" y="306.5" xlink:href="#tool-D16-pad-1022"/><use x="468.1" y="306.5" xlink:href="#tool-D16-pad-1022"/><use x="468.1" y="356.5" xlink:href="#tool-D16-pad-1022"/><use x="468.1" y="406.5" xlink:href="#tool-D16-pad-1022"/><use x="468.1" y="456.5" xlink:href="#tool-D16-pad-1022"/><use x="637.4" y="433.1" xlink:href="#tool-D15-pad-1021"/><use x="637.4" y="133.1" xlink:href="#tool-D15-pad-1021"/><use x="105.9" y="263.4" xlink:href="#tool-D17-pad-1023"/><use x="105.9" y="363.4" xlink:href="#tool-D17-pad-1023"/><use x="105.9" y="163.4" xlink:href="#tool-D18-pad-1024"/><use x="479.9" y="226" xlink:href="#tool-D14-pad-1020"/><use x="479.9" y="143.3" xlink:href="#tool-D14-pad-1020"/><use x="361.8" y="226" xlink:href="#tool-D14-pad-1020"/><use x="361.8" y="143.3" xlink:href="#tool-D14-pad-1020"/></g><mask id="pcb_top_mech-mask" fill="#fff" stroke="#fff" fill-rule="evenodd"><path stroke-width="0" d="M 7.5 7.5 L 7.5 519.3 L 1031.1 519.3 L 1031.1 7.5 Z"/><g id="pcb_top-drl" fill="#000" stroke="#000"><use x="361.8" y="322.5" xlink:href="#tool-T10-pad-1000"/><use x="381.5" y="420.9" xlink:href="#tool-T10-pad-1000"/><use x="420.9" y="184.7" xlink:href="#tool-T10-pad-1000"/><use x="716.2" y="86.2" xlink:href="#tool-T10-pad-1000"/><use x="546.9" y="406.5" xlink:href="#tool-T10-pad-1000"/><use x="302.8" y="184.7" xlink:href="#tool-T10-pad-1000"/><use x="716.2" y="479.9" xlink:href="#tool-T10-pad-1000"/><use x="873.6" y="479.9" xlink:href="#tool-T10-pad-1000"/><use x="873.6" y="86.2" xlink:href="#tool-T10-pad-1000"/><use x="794.9" y="133.1" xlink:href="#tool-T11-pad-1001"/><use x="794.9" y="433.1" xlink:href="#tool-T11-pad-1001"/><use x="952.4" y="433.1" xlink:href="#tool-T12-pad-1002"/><use x="952.4" y="133.1" xlink:href="#tool-T12-pad-1002"/><use x="637.4" y="433.1" xlink:href="#tool-T12-pad-1002"/><use x="637.4" y="133.1" xlink:href="#tool-T12-pad-1002"/><use x="105.9" y="163.4" xlink:href="#tool-T13-pad-1003"/><use x="105.9" y="263.4" xlink:href="#tool-T13-pad-1003"/><use x="105.9" y="363.4" xlink:href="#tool-T13-pad-1003"/></g></mask></defs><g mask="url(#pcb_top_mech-mask)" transform="translate(0,526.8) scale(1,-1)"><rect x="7.5" y="7.5" width="1023.5999999999999" height="511.79999999999995" fill="currentColor" class="pcb_board-fr4"/><use class="pcb_board-cu" xlink:href="#pcb_top-cu"/><g><defs><g id="pcb_top-sm" fill="currentColor" stroke="currentColor"><use x="794.9" y="133.1" xlink:href="#tool-D10-pad-1030"/><use x="794.9" y="433.1" xlink:href="#tool-D10-pad-1030"/><use x="243.7" y="226" xlink:href="#tool-D11-pad-1031"/><use x="243.7" y="143.3" xlink:href="#tool-D11-pad-1031"/><use x="952.4" y="433.1" xlink:href="#tool-D12-pad-1032"/><use x="952.4" y="133.1" xlink:href="#tool-D12-pad-1032"/><use x="255.5" y="456.5" xlink:href="#tool-D13-pad-1033"/><use x="255.5" y="406.5" xlink:href="#tool-D13-pad-1033"/><use x="255.5" y="356.5" xlink:href="#tool-D13-pad-1033"/><use x="255.5" y="306.5" xlink:href="#tool-D13-pad-1033"/><use x="468.1" y="306.5" xlink:href="#tool-D13-pad-1033"/><use x="468.1" y="356.5" xlink:href="#tool-D13-pad-1033"/><use x="468.1" y="406.5" xlink:href="#tool-D13-pad-1033"/><use x="468.1" y="456.5" xlink:href="#tool-D13-pad-1033"/><use x="637.4" y="433.1" xlink:href="#tool-D12-pad-1032"/><use x="637.4" y="133.1" xlink:href="#tool-D12-pad-1032"/><use x="105.9" y="263.4" xlink:href="#tool-D14-pad-1034"/><use x="105.9" y="363.4" xlink:href="#tool-D14-pad-1034"/><use x="105.9" y="163.4" xlink:href="#tool-D15-pad-1035"/><use x="479.9" y="226" xlink:href="#tool-D11-pad-1031"/><use x="479.9" y="143.3" xlink:href="#tool-D11-pad-1031"/><use x="361.8" y="226" xlink:href="#tool-D11-pad-1031"/><use x="361.8" y="143.3" xlink:href="#tool-D11-pad-1031"/></g><mask id="pcb_top-sm_mask" color="#000"><rect x="7.5" y="7.5" width="1023.5999999999999" height="511.79999999999995" fill="#fff"/><use xlink:href="#pcb_top-sm"/></mask><mask id="pcb_top-cu_finish-mask" color="#fff"><use xlink:href="#pcb_top-cu"/></mask></defs><g mask="url(#pcb_top-sm_mask)"><rect x="7.5" y="7.5" width="1023.5999999999999" height="511.79999999999995" fill="currentColor" class="pcb_board-sm"/><g id="pcb_top-ss" class="pcb_board-ss" fill="currentColor" stroke="currentColor"><path stroke-width="5.9" fill="none" d="M 842.1 159.1 L 747.7 159.1 M 747.7 159.1 L 747.7 407.1 M 747.7 407.1 L 842.1 407.1 M 842.1 407.1 L 842.1 159.1 M 794.9 159.1 L 794.9 180.3 M 794.9 407.1 L 794.9 385.8"/><path stroke-width="11.8" fill="none" d="M 839.4 221.1 L 750.4 221.1"/><path d="M 774 46.7 L 774 74.9 L 786.5 74.9 L 788.2 74.8 L 789.8 74.7 L 791.1 74.4 L 792.2 74.1 L 793.1 73.6 L 794 73.1 L 794.7 72.3 L 795.3 71.4 L 795.8 70.5 L 796.2 69.4 L 796.4 68.3 L 796.5 67.2 L 796.4 65.7 L 796 64.4 L 795.4 63.2 L 794.6 62.1 L 793.5 61.2 L 792.1 60.5 L 790.5 59.9 L 789.5 59.7 L 788.9 62.7 L 789.7 63 L 790.4 63.2 L 791 63.6 L 791.5 64.1 L 791.9 64.7 L 792.3 65.3 L 792.5 65.9 L 792.6 66.5 L 792.7 67.2 L 792.6 68.1 L 792.3 69 L 791.8 69.8 L 791.2 70.5 L 790.4 71 L 789.4 71.4 L 788.1 71.7 L 786.6 71.8 L 777.7 71.8 L 777.7 62.4 L 777.7 62.4 L 785.7 62.4 L 786.9 62.5 L 788 62.6 L 788.9 62.7 L 789.5 59.7 L 788.6 59.5 L 789.3 59.2 L 789.9 58.8 L 790.4 58.4 L 790.8 58.1 L 791.6 57.3 L 792.4 56.4 L 793.2 55.5 L 793.9 54.4 L 798.8 46.7 L 794.1 46.7 L 790.4 52.5 L 789.6 53.8 L 788.9 54.8 L 788.3 55.7 L 787.7 56.4 L 787.2 57.1 L 786.7 57.6 L 786.2 58 L 785.8 58.3 L 785.4 58.6 L 785 58.8 L 784.5 59 L 784.1 59.1 L 783.8 59.1 L 783.3 59.2 L 782.7 59.2 L 782 59.2 L 777.7 59.2 L 777.7 46.7 L 774 46.7 L 774 46.7 Z"/><path d="M 819.2 50 L 819.2 46.7 L 800.5 46.7 L 800.5 47.3 L 800.6 47.9 L 800.7 48.5 L 800.9 49.1 L 801.3 50.1 L 801.8 51 L 802.5 51.9 L 803.2 52.9 L 804.1 53.8 L 805.1 54.8 L 806.3 55.9 L 807.7 57.1 L 809.8 58.9 L 811.6 60.5 L 812.9 61.9 L 813.9 63.1 L 814.6 64.2 L 815.1 65.2 L 815.5 66.2 L 815.5 67.2 L 815.5 68.2 L 815.2 69.2 L 814.7 70 L 814.1 70.7 L 813.3 71.3 L 812.4 71.8 L 811.4 72 L 810.3 72.1 L 809 72 L 808 71.8 L 807.1 71.3 L 806.2 70.6 L 805.6 69.8 L 805.1 68.8 L 804.8 67.7 L 804.7 66.5 L 801.2 66.8 L 801.5 68.7 L 802 70.3 L 802.9 71.8 L 803.9 72.9 L 805.2 73.8 L 806.7 74.5 L 808.4 74.9 L 810.3 75 L 812.2 74.9 L 814 74.4 L 815.5 73.7 L 816.8 72.7 L 817.8 71.6 L 818.5 70.2 L 819 68.8 L 819.1 67.1 L 819.1 66.3 L 818.9 65.5 L 818.7 64.7 L 818.4 63.8 L 818 63 L 817.5 62.1 L 816.9 61.3 L 816.1 60.4 L 815.2 59.4 L 814 58.2 L 812.5 56.9 L 810.8 55.5 L 809.4 54.2 L 808.2 53.2 L 807.3 52.5 L 806.8 51.9 L 806.4 51.4 L 806 51 L 805.6 50.5 L 805.3 50 L 819.2 50 L 819.2 50 Z"/><path stroke-width="5.9" fill="none" d="M 219.1 201 L 219.1 168.3 M 268.3 201 L 268.3 168.3"/><path d="M 219.7 74.4 L 219.7 102.6 L 232.1 102.6 L 233.9 102.6 L 235.5 102.4 L 236.8 102.2 L 237.9 101.9 L 238.8 101.4 L 239.7 100.8 L 240.4 100.1 L 241 99.2 L 241.5 98.2 L 241.9 97.1 L 242.1 96 L 242.2 94.9 L 242.1 93.5 L 241.7 92.1 L 241.1 91 L 240.3 89.9 L 239.2 88.9 L 237.8 88.2 L 236.2 87.6 L 235.2 87.4 L 234.6 90.5 L 235.4 90.7 L 236.1 91 L 236.7 91.4 L 237.2 91.9 L 237.6 92.4 L 237.9 93 L 238.2 93.6 L 238.3 94.2 L 238.4 94.9 L 238.2 95.9 L 238 96.8 L 237.5 97.5 L 236.9 98.2 L 236.1 98.8 L 235 99.2 L 233.8 99.4 L 232.3 99.5 L 223.4 99.5 L 223.4 90.2 L 223.4 90.2 L 231.4 90.2 L 232.6 90.2 L 233.7 90.3 L 234.6 90.5 L 235.2 87.4 L 234.3 87.3 L 234.9 86.9 L 235.6 86.6 L 236.1 86.2 L 236.5 85.8 L 237.3 85.1 L 238.1 84.2 L 238.8 83.2 L 239.6 82.1 L 244.5 74.4 L 239.8 74.4 L 236.1 80.3 L 235.3 81.5 L 234.6 82.5 L 234 83.4 L 233.4 84.2 L 232.9 84.8 L 232.4 85.3 L 231.9 85.7 L 231.5 86 L 231.1 86.3 L 230.6 86.5 L 230.2 86.7 L 229.8 86.8 L 229.4 86.9 L 229 86.9 L 228.4 86.9 L 227.7 86.9 L 223.4 86.9 L 223.4 74.4 L 219.7 74.4 L 219.7 74.4 Z"/><path d="M 257.7 74.4 L 257.7 81.2 L 245.5 81.2 L 245.5 84.4 L 255.5 98.6 L 257.7 97.1 L 248.9 84.4 L 257.7 84.4 L 257.7 84.4 L 257.7 97.1 L 255.5 98.6 L 258.4 102.6 L 261.2 102.6 L 261.2 84.4 L 265 84.4 L 265 81.2 L 261.2 81.2 L 261.2 74.4 L 257.7 74.4 L 257.7 74.4 Z"/><path stroke-width="5.9" fill="none" d="M 905.1 407.1 L 999.6 407.1 M 999.6 407.1 L 999.6 159.1 M 999.6 159.1 L 905.1 159.1 M 905.1 159.1 L 905.1 407.1 M 952.4 407.1 L 952.4 385.8 M 952.4 159.1 L 952.4 180.3"/><path stroke-width="11.8" fill="none" d="M 907.9 345.1 L 996.9 345.1"/><path d="M 951.5 56.6 L 955.3 55.6 L 954.5 53.5 L 953.6 51.6 L 952.4 50 L 951 48.6 L 949.4 47.6 L 947.6 46.8 L 945.7 46.4 L 943.6 46.2 L 941.4 46.3 L 939.4 46.7 L 937.7 47.3 L 936.2 48.1 L 934.8 49.1 L 933.6 50.3 L 932.7 51.8 L 931.8 53.4 L 931.2 55.2 L 930.7 57.1 L 930.4 59 L 930.3 61 L 930.4 63.1 L 930.7 65.1 L 931.3 66.9 L 932 68.7 L 932.9 70.2 L 934 71.6 L 935.3 72.7 L 936.8 73.6 L 938.4 74.4 L 940.1 74.9 L 941.8 75.3 L 943.6 75.3 L 945.6 75.2 L 947.5 74.8 L 949.2 74.2 L 950.7 73.2 L 952.1 72 L 953.2 70.6 L 954.1 69 L 954.7 67.1 L 951.1 66.3 L 950.5 67.7 L 949.9 68.9 L 949.1 69.9 L 948.2 70.8 L 947.3 71.4 L 946.1 71.8 L 944.9 72.1 L 943.6 72.1 L 942 72.1 L 940.6 71.8 L 939.3 71.3 L 938.1 70.6 L 937.1 69.7 L 936.3 68.8 L 935.6 67.7 L 935.1 66.4 L 934.7 65.1 L 934.4 63.8 L 934.2 62.4 L 934.2 61 L 934.2 59.3 L 934.4 57.7 L 934.7 56.1 L 935.2 54.7 L 935.8 53.5 L 936.6 52.4 L 937.5 51.5 L 938.5 50.7 L 939.6 50.1 L 940.8 49.7 L 942 49.5 L 943.2 49.4 L 944.8 49.5 L 946.2 49.9 L 947.4 50.4 L 948.6 51.2 L 949.6 52.2 L 950.4 53.4 L 951 54.9 L 951.5 56.6 L 951.5 56.6 Z"/><path d="M 976.6 50 L 976.6 46.7 L 958 46.7 L 958 47.3 L 958.1 47.9 L 958.2 48.5 L 958.4 49.1 L 958.8 50.1 L 959.3 51 L 959.9 51.9 L 960.7 52.9 L 961.6 53.8 L 962.6 54.8 L 963.8 55.9 L 965.2 57.1 L 967.3 58.9 L 969 60.5 L 970.4 61.9 L 971.4 63.1 L 972.1 64.2 L 972.6 65.2 L 972.9 66.2 L 973 67.2 L 972.9 68.2 L 972.7 69.2 L 972.2 70 L 971.6 70.7 L 970.8 71.3 L 969.9 71.8 L 968.8 72 L 967.7 72.1 L 966.5 72 L 965.5 71.8 L 964.5 71.3 L 963.7 70.6 L 963.1 69.8 L 962.6 68.8 L 962.3 67.7 L 962.2 66.5 L 958.6 66.8 L 959 68.7 L 959.5 70.3 L 960.3 71.8 L 961.4 72.9 L 962.7 73.8 L 964.2 74.5 L 965.9 74.9 L 967.8 75 L 969.7 74.9 L 971.4 74.4 L 972.9 73.7 L 974.2 72.7 L 975.3 71.6 L 976 70.2 L 976.4 68.8 L 976.6 67.1 L 976.6 66.3 L 976.4 65.5 L 976.2 64.7 L 975.9 63.8 L 975.5 63 L 975 62.1 L 974.4 61.3 L 973.6 60.4 L 972.7 59.4 L 971.4 58.2 L 970 56.9 L 968.2 55.5 L 966.8 54.2 L 965.7 53.2 L 964.8 52.5 L 964.3 51.9 L 963.8 51.4 L 963.4 51 L 963.1 50.5 L 962.8 50 L 976.6 50 L 976.6 50 Z"/><path stroke-width="5.9" fill="none" d="M 306.7 285.1 L 306.7 478 M 306.7 478 L 416.9 478 M 416.9 478 L 416.9 285.1 M 416.9 285.1 L 306.7 285.1"/><use x="202.3" y="456.5" xlink:href="#tool-D12-pad-1027"/><path d="M 330.8 376.1 L 334.5 376.4 L 334.8 375.2 L 335.2 374.1 L 335.7 373.2 L 336.4 372.4 L 337.1 371.8 L 338 371.4 L 338.9 371.2 L 339.9 371.1 L 341.1 371.2 L 342.2 371.6 L 343.2 372.1 L 344.2 373 L 344.9 374 L 345.5 375.2 L 345.8 376.5 L 345.9 378 L 345.8 379.4 L 345.5 380.6 L 344.9 381.7 L 344.2 382.7 L 343.3 383.4 L 342.3 383.9 L 341.1 384.2 L 339.9 384.4 L 339 384.3 L 338.3 384.2 L 337.5 383.9 L 336.8 383.6 L 336.2 383.2 L 335.6 382.7 L 335.1 382.2 L 334.7 381.6 L 331.5 382 L 334.2 396.5 L 348.2 396.5 L 348.2 393.2 L 337 393.2 L 335.5 385.6 L 336.8 386.4 L 338.1 386.9 L 339.4 387.3 L 340.8 387.4 L 342.5 387.3 L 344.2 386.8 L 345.7 386 L 347 384.9 L 348.1 383.5 L 348.9 381.9 L 349.4 380.2 L 349.5 378.3 L 349.4 376.4 L 349 374.7 L 348.3 373.1 L 347.3 371.7 L 345.8 370.2 L 344.1 369.1 L 342.1 368.4 L 339.9 368.2 L 338.1 368.4 L 336.4 368.8 L 334.9 369.5 L 333.6 370.4 L 332.5 371.6 L 331.7 372.9 L 331.2 374.4 L 330.8 376.1 L 330.8 376.1 Z"/><path d="M 352.8 376.1 L 356.4 376.4 L 356.7 375.2 L 357.1 374.1 L 357.6 373.2 L 358.2 372.4 L 359 371.8 L 359.9 371.4 L 360.8 371.2 L 361.8 371.1 L 363 371.2 L 364.1 371.6 L 365.1 372.1 L 366 373 L 366.8 374 L 367.3 375.2 L 367.7 376.5 L 367.8 378 L 367.7 379.4 L 367.3 380.6 L 366.8 381.7 L 366.1 382.7 L 365.2 383.4 L 364.2 383.9 L 363.1 384.2 L 361.8 384.4 L 360.9 384.3 L 360.2 384.2 L 359.4 383.9 L 358.7 383.6 L 358.1 383.2 L 357.5 382.7 L 357 382.2 L 356.6 381.6 L 353.4 382 L 356.1 396.5 L 370.1 396.5 L 370.1 393.2 L 358.9 393.2 L 357.3 385.6 L 358.6 386.4 L 359.9 386.9 L 361.3 387.3 L 362.7 387.4 L 364.5 387.3 L 366.1 386.8 L 367.6 386 L 368.9 384.9 L 370 383.5 L 370.8 381.9 L 371.3 380.2 L 371.4 378.3 L 371.3 376.4 L 370.9 374.7 L 370.2 373.1 L 369.2 371.7 L 367.7 370.2 L 366 369.1 L 364 368.4 L 361.8 368.2 L 360 368.4 L 358.3 368.8 L 356.8 369.5 L 355.5 370.4 L 354.5 371.6 L 353.6 372.9 L 353.1 374.4 L 352.8 376.1 L 352.8 376.1 Z"/><path d="M 374.7 376.1 L 378.3 376.4 L 378.6 375.2 L 379 374.1 L 379.5 373.2 L 380.2 372.4 L 380.9 371.8 L 381.8 371.4 L 382.7 371.2 L 383.7 371.1 L 384.9 371.2 L 386 371.6 L 387 372.1 L 387.9 373 L 388.7 374 L 389.2 375.2 L 389.5 376.5 L 389.7 378 L 389.5 379.4 L 389.3 380.6 L 388.7 381.7 L 388 382.7 L 387.1 383.4 L 386.1 383.9 L 384.9 384.2 L 383.6 384.4 L 382.9 384.3 L 382.1 384.2 L 381.3 383.9 L 380.6 383.6 L 380 383.2 L 379.4 382.7 L 379 382.2 L 378.5 381.6 L 375.3 382 L 378 396.5 L 392 396.5 L 392 393.2 L 380.8 393.2 L 379.2 385.6 L 380.5 386.4 L 381.8 386.9 L 383.2 387.3 L 384.6 387.4 L 386.4 387.3 L 388 386.8 L 389.5 386 L 390.8 384.9 L 391.9 383.5 L 392.7 381.9 L 393.2 380.2 L 393.3 378.3 L 393.2 376.4 L 392.8 374.7 L 392.1 373.1 L 391.1 371.7 L 389.6 370.2 L 387.9 369.1 L 385.9 368.4 L 383.7 368.2 L 381.9 368.4 L 380.2 368.8 L 378.7 369.5 L 377.4 370.4 L 376.4 371.6 L 375.5 372.9 L 374.9 374.4 L 374.7 376.1 L 374.7 376.1 Z"/><path stroke-width="5.9" fill="none" d="M 590.2 407.1 L 684.7 407.1 M 684.7 407.1 L 684.7 159.1 M 684.7 159.1 L 590.2 159.1 M 590.2 159.1 L 590.2 407.1 M 637.4 407.1 L 637.4 385.8 M 637.4 159.1 L 637.4 180.3"/><path stroke-width="11.8" fill="none" d="M 592.9 345.1 L 681.9 345.1"/><path d="M 616.5 46.7 L 616.5 74.9 L 629 74.9 L 630.8 74.8 L 632.3 74.7 L 633.6 74.4 L 634.7 74.1 L 635.6 73.6 L 636.5 73.1 L 637.2 72.3 L 637.9 71.4 L 638.4 70.5 L 638.7 69.4 L 639 68.3 L 639 67.2 L 638.9 65.7 L 638.6 64.4 L 637.9 63.2 L 637.1 62.1 L 636 61.2 L 634.6 60.5 L 633 59.9 L 632.1 59.7 L 631.4 62.7 L 632.3 63 L 632.9 63.2 L 633.5 63.6 L 634 64.1 L 634.4 64.7 L 634.8 65.3 L 635 65.9 L 635.1 66.5 L 635.2 67.2 L 635.1 68.1 L 634.8 69 L 634.4 69.8 L 633.7 70.5 L 632.9 71 L 631.9 71.4 L 630.6 71.7 L 629.2 71.8 L 620.2 71.8 L 620.2 62.4 L 620.2 62.4 L 628.2 62.4 L 629.5 62.5 L 630.5 62.6 L 631.4 62.7 L 632.1 59.7 L 631.1 59.5 L 631.8 59.2 L 632.4 58.8 L 632.9 58.4 L 633.3 58.1 L 634.2 57.3 L 634.9 56.4 L 635.7 55.5 L 636.4 54.4 L 641.3 46.7 L 636.6 46.7 L 632.9 52.5 L 632.1 53.8 L 631.4 54.8 L 630.8 55.7 L 630.2 56.4 L 629.7 57.1 L 629.2 57.6 L 628.8 58 L 628.3 58.3 L 627.9 58.6 L 627.5 58.8 L 627.1 59 L 626.6 59.1 L 626.3 59.1 L 625.8 59.2 L 625.2 59.2 L 624.5 59.2 L 620.2 59.2 L 620.2 46.7 L 616.5 46.7 L 616.5 46.7 Z"/><path d="M 656.5 46.7 L 653.1 46.7 L 653.1 68.7 L 652.4 68.1 L 651.6 67.5 L 650.7 66.9 L 649.8 66.4 L 648.8 65.8 L 647.9 65.3 L 646.9 64.9 L 646.1 64.6 L 646.1 67.9 L 647.5 68.6 L 648.8 69.4 L 650.1 70.3 L 651.2 71.2 L 652.2 72.2 L 653.1 73.1 L 653.8 74.1 L 654.3 75 L 656.5 75 L 656.5 46.7 L 656.5 46.7 Z"/><path stroke-width="5.9" fill="none" d="M 172.7 96.7 L 39.2 96.7 M 172.7 96.7 L 172.7 430.1 M 172.7 430.1 L 39.2 430.1 M 39.2 430.1 L 39.2 96.7"/><use x="185.5" y="163.4" xlink:href="#tool-D13-pad-1028"/><path stroke-width="5.9" fill="none" d="M 455.3 201 L 455.3 168.3 M 504.5 201 L 504.5 168.3"/><path d="M 475.9 84.3 L 479.7 83.4 L 479 81.2 L 478 79.3 L 476.9 77.7 L 475.5 76.4 L 473.8 75.3 L 472.1 74.5 L 470.1 74.1 L 468 74 L 465.8 74.1 L 463.9 74.4 L 462.1 75 L 460.6 75.8 L 459.2 76.8 L 458.1 78.1 L 457.1 79.5 L 456.2 81.2 L 455.6 83 L 455.1 84.8 L 454.9 86.8 L 454.7 88.7 L 454.9 90.8 L 455.2 92.9 L 455.7 94.7 L 456.4 96.4 L 457.4 97.9 L 458.5 99.3 L 459.7 100.5 L 461.2 101.4 L 462.8 102.1 L 464.5 102.7 L 466.2 103 L 468.1 103.1 L 470.1 103 L 471.9 102.5 L 473.6 101.9 L 475.2 100.9 L 476.5 99.7 L 477.6 98.4 L 478.5 96.7 L 479.2 94.9 L 475.5 94 L 475 95.5 L 474.3 96.7 L 473.6 97.7 L 472.7 98.5 L 471.7 99.1 L 470.6 99.5 L 469.3 99.8 L 468 99.9 L 466.4 99.8 L 465 99.5 L 463.7 99 L 462.5 98.3 L 461.6 97.5 L 460.7 96.5 L 460 95.4 L 459.5 94.2 L 459.1 92.9 L 458.8 91.5 L 458.6 90.1 L 458.6 88.8 L 458.6 87 L 458.8 85.4 L 459.2 83.9 L 459.6 82.5 L 460.3 81.2 L 461 80.1 L 461.9 79.2 L 462.9 78.5 L 464 77.9 L 465.2 77.5 L 466.4 77.2 L 467.7 77.1 L 469.2 77.3 L 470.6 77.6 L 471.8 78.2 L 473 79 L 474 79.9 L 474.8 81.2 L 475.5 82.7 L 475.9 84.3 L 475.9 84.3 Z"/><path d="M 495.9 74.4 L 492.4 74.4 L 492.4 96.5 L 491.8 95.9 L 491 95.3 L 490.1 94.7 L 489.2 94.1 L 488.2 93.5 L 487.2 93.1 L 486.4 92.7 L 485.5 92.3 L 485.5 95.6 L 486.9 96.4 L 488.2 97.1 L 489.5 98 L 490.6 99 L 491.6 99.9 L 492.4 100.9 L 493.1 101.8 L 493.6 102.7 L 495.9 102.7 L 495.9 74.4 L 495.9 74.4 Z"/><path stroke-width="5.9" fill="none" d="M 337.2 201 L 337.2 168.3 M 386.4 201 L 386.4 168.3"/><path stroke-width="11.8" fill="none" d="M 340 195.5 L 383.7 195.5"/><use x="361.8" y="263.8" xlink:href="#tool-D14-pad-1029"/><path d="M 337.7 74.4 L 337.7 102.6 L 347.4 102.6 L 347.4 99.3 L 341.4 99.3 L 341.4 77.7 L 341.4 77.7 L 347.5 77.7 L 348.8 77.8 L 349.9 77.9 L 351 78.1 L 351.8 78.3 L 352.6 78.6 L 353.2 78.9 L 353.8 79.3 L 354.4 79.7 L 355 80.5 L 355.5 81.3 L 356 82.2 L 356.4 83.3 L 356.8 84.5 L 357 85.8 L 357.1 87.2 L 357.2 88.7 L 357.1 90.8 L 356.8 92.7 L 356.4 94.2 L 355.7 95.5 L 354.9 96.6 L 354.1 97.5 L 353.2 98.2 L 352.2 98.7 L 351.3 99 L 350.2 99.2 L 348.9 99.2 L 347.4 99.3 L 347.4 102.6 L 347.4 102.6 L 349 102.6 L 350.3 102.5 L 351.5 102.4 L 352.5 102.2 L 353.6 101.9 L 354.7 101.4 L 355.7 100.8 L 356.6 100.2 L 357.6 99.2 L 358.5 98.1 L 359.3 96.8 L 359.9 95.4 L 360.4 93.8 L 360.7 92.2 L 361 90.5 L 361 88.7 L 361 87.1 L 360.8 85.6 L 360.6 84.3 L 360.3 83 L 359.9 81.8 L 359.4 80.7 L 358.9 79.7 L 358.3 78.9 L 357.7 78.1 L 357.1 77.4 L 356.5 76.8 L 355.8 76.3 L 355.1 75.9 L 354.2 75.5 L 353.4 75.2 L 352.4 74.9 L 351.4 74.7 L 350.3 74.5 L 349.1 74.5 L 347.9 74.4 L 337.7 74.4 L 337.7 74.4 Z"/><path d="M 377.8 74.4 L 374.3 74.4 L 374.3 96.5 L 373.6 95.9 L 372.9 95.3 L 372 94.7 L 371 94.1 L 370.1 93.5 L 369.1 93.1 L 368.2 92.7 L 367.4 92.3 L 367.4 95.6 L 368.8 96.4 L 370.1 97.1 L 371.4 98 L 372.5 99 L 373.5 99.9 L 374.3 100.9 L 375 101.8 L 375.5 102.7 L 377.8 102.7 L 377.8 74.4 L 377.8 74.4 Z"/><path d="M 442.5 33.1 L 439 33.1 L 439 55.1 L 438.3 54.5 L 437.5 54 L 436.7 53.4 L 435.7 52.8 L 434.7 52.2 L 433.8 51.7 L 432.9 51.3 L 432.1 51 L 432.1 54.3 L 433.5 55 L 434.8 55.8 L 436 56.7 L 437.1 57.6 L 438.1 58.6 L 439 59.5 L 439.7 60.5 L 440.2 61.4 L 442.5 61.4 L 442.5 33.1 L 442.5 33.1 Z"/><path d="M 451.3 47 L 451.4 49.4 L 451.6 51.5 L 451.9 53.4 L 452.3 55 L 452.9 56.5 L 453.6 57.7 L 454.4 58.8 L 455.4 59.7 L 456.5 60.5 L 457.7 61 L 459 61.3 L 460.5 61.4 L 461.6 61.3 L 462.6 61.2 L 463.6 60.9 L 464.5 60.5 L 465.3 60 L 466 59.4 L 466.7 58.6 L 467.3 57.9 L 467.8 56.9 L 468.3 55.9 L 468.7 54.8 L 469 53.6 L 469.3 52.3 L 469.5 50.8 L 469.6 49 L 469.7 47 L 469.6 44.6 L 469.4 42.5 L 469.1 40.6 L 468.7 39 L 468.1 37.5 L 467.4 36.3 L 466.6 35.2 L 465.6 34.3 L 464.5 33.6 L 463.3 33 L 462 32.7 L 460.5 32.6 L 460.2 32.6 L 460.5 35.5 L 461.6 35.6 L 462.7 36 L 463.6 36.8 L 464.5 37.8 L 465.2 39.2 L 465.7 41.2 L 466 43.8 L 466.1 47 L 466 50.2 L 465.7 52.8 L 465.2 54.8 L 464.5 56.2 L 463.6 57.2 L 462.7 57.9 L 461.6 58.4 L 460.5 58.5 L 459.3 58.4 L 458.3 58 L 457.4 57.4 L 456.6 56.5 L 455.9 54.9 L 455.3 52.9 L 455 50.2 L 454.9 47 L 454.9 47 L 455 43.8 L 455.3 41.2 L 455.8 39.2 L 456.5 37.7 L 457.3 36.8 L 458.3 36 L 459.4 35.6 L 460.5 35.5 L 460.2 32.6 L 458.6 32.8 L 456.9 33.3 L 455.4 34.3 L 454.1 35.5 L 452.9 37.6 L 452 40.1 L 451.5 43.3 L 451.3 47 L 451.3 47 Z"/><path d="M 474.2 33.1 L 474.2 53.5 L 477.3 53.5 L 477.3 50.6 L 478.5 52.1 L 480 53.1 L 481.8 53.8 L 483.8 54 L 484.7 53.9 L 485.5 53.8 L 486.4 53.6 L 487.2 53.3 L 487.9 52.9 L 488.5 52.5 L 489 52.1 L 489.5 51.6 L 489.8 51 L 490.1 50.4 L 490.4 49.7 L 490.6 49 L 490.6 48.4 L 490.7 47.7 L 490.7 46.8 L 490.8 45.6 L 490.8 33.1 L 487.3 33.1 L 487.3 45.5 L 487.3 46.5 L 487.2 47.3 L 487.1 48.1 L 486.9 48.7 L 486.6 49.2 L 486.3 49.6 L 485.9 50 L 485.5 50.3 L 484.9 50.6 L 484.4 50.8 L 483.7 50.9 L 483.1 51 L 482 50.9 L 481 50.6 L 480.1 50.2 L 479.2 49.5 L 478.5 48.7 L 478 47.5 L 477.7 46 L 477.6 44.2 L 477.6 33.1 L 474.2 33.1 L 474.2 33.1 Z"/><path d="M 496.7 33.1 L 496.7 61.3 L 515.7 61.3 L 515.7 57.9 L 500.4 57.9 L 500.4 49.2 L 513.6 49.2 L 513.6 45.9 L 500.4 45.9 L 500.4 33.1 L 496.7 33.1 L 496.7 33.1 Z"/><path d="M 194.2 39.5 L 197.7 40 L 198 38.6 L 198.4 37.5 L 199 36.5 L 199.7 35.8 L 200.5 35.2 L 201.3 34.8 L 202.2 34.5 L 203.2 34.5 L 204.4 34.6 L 205.4 34.9 L 206.4 35.4 L 207.3 36.2 L 208 37.1 L 208.6 38.1 L 208.9 39.2 L 209 40.3 L 208.9 41.5 L 208.6 42.5 L 208.1 43.4 L 207.4 44.3 L 206.6 45 L 205.6 45.5 L 204.6 45.7 L 203.4 45.8 L 202.9 45.8 L 202.3 45.7 L 201.7 45.6 L 201 45.5 L 201.4 48.5 L 201.6 48.5 L 201.7 48.4 L 201.8 48.4 L 201.9 48.4 L 203.1 48.5 L 204.1 48.7 L 205 49.1 L 205.9 49.6 L 206.7 50.3 L 207.3 51.1 L 207.6 52 L 207.7 53.2 L 207.6 54.1 L 207.4 54.9 L 207 55.6 L 206.4 56.3 L 205.7 56.9 L 204.9 57.3 L 204.1 57.5 L 203.1 57.5 L 202.1 57.5 L 201.2 57.2 L 200.5 56.8 L 199.7 56.3 L 199.1 55.6 L 198.6 54.7 L 198.2 53.7 L 198 52.5 L 194.5 53.1 L 194.9 54.7 L 195.6 56.2 L 196.4 57.4 L 197.4 58.5 L 198.6 59.3 L 199.9 59.9 L 201.4 60.3 L 203 60.4 L 204.2 60.3 L 205.2 60.1 L 206.3 59.9 L 207.3 59.4 L 208.2 58.9 L 209 58.2 L 209.7 57.5 L 210.2 56.7 L 210.7 55.8 L 211 54.9 L 211.2 54 L 211.3 53.1 L 211.2 52.2 L 211 51.3 L 210.7 50.5 L 210.3 49.7 L 209.7 49 L 209.1 48.4 L 208.3 47.9 L 207.4 47.4 L 208.6 47 L 209.6 46.5 L 210.5 45.8 L 211.3 45 L 211.9 44 L 212.3 42.9 L 212.6 41.8 L 212.7 40.4 L 212.5 38.6 L 212 37 L 211.1 35.5 L 209.9 34.2 L 208.5 33.1 L 206.9 32.3 L 205.1 31.8 L 203.2 31.6 L 201.4 31.8 L 199.7 32.1 L 198.3 32.9 L 197 33.8 L 195.9 35 L 195.1 36.4 L 194.5 37.9 L 194.2 39.5 L 194.2 39.5 Z"/><path d="M 216.1 46 L 216.1 48.4 L 216.3 50.5 L 216.6 52.4 L 217.1 54 L 217.7 55.5 L 218.4 56.8 L 219.2 57.9 L 220.1 58.8 L 221.2 59.5 L 222.5 60 L 223.8 60.3 L 225.3 60.4 L 226.4 60.3 L 227.4 60.2 L 228.4 59.9 L 229.2 59.5 L 230.1 59 L 230.8 58.4 L 231.5 57.7 L 232.1 56.9 L 232.6 56 L 233.1 54.9 L 233.5 53.8 L 233.8 52.7 L 234.1 51.3 L 234.3 49.8 L 234.4 48 L 234.4 46 L 234.4 43.6 L 234.2 41.5 L 233.9 39.6 L 233.4 38 L 232.9 36.6 L 232.1 35.3 L 231.3 34.2 L 230.4 33.3 L 229.3 32.6 L 228.1 32 L 226.8 31.7 L 225.3 31.6 L 225 31.6 L 225.3 34.5 L 226.4 34.6 L 227.5 35.1 L 228.4 35.8 L 229.3 36.8 L 230 38.2 L 230.5 40.3 L 230.8 42.8 L 230.9 46 L 230.8 49.2 L 230.5 51.8 L 230 53.8 L 229.3 55.3 L 228.4 56.2 L 227.5 56.9 L 226.4 57.4 L 225.2 57.5 L 224.1 57.4 L 223.1 57 L 222.2 56.4 L 221.4 55.5 L 220.6 54 L 220.1 51.9 L 219.7 49.2 L 219.6 46 L 219.6 46 L 219.7 42.8 L 220 40.2 L 220.5 38.2 L 221.2 36.8 L 222.1 35.8 L 223.1 35.1 L 224.1 34.6 L 225.3 34.5 L 225 31.6 L 223.3 31.8 L 221.6 32.3 L 220.1 33.3 L 218.8 34.5 L 217.6 36.6 L 216.8 39.2 L 216.2 42.3 L 216.1 46 L 216.1 46 Z"/><path d="M 238 46 L 238 48.4 L 238.2 50.5 L 238.6 52.4 L 239 54 L 239.6 55.5 L 240.3 56.8 L 241.1 57.9 L 242.1 58.8 L 243.1 59.5 L 244.4 60 L 245.7 60.3 L 247.1 60.4 L 248.2 60.3 L 249.3 60.2 L 250.3 59.9 L 251.1 59.5 L 251.9 59 L 252.7 58.4 L 253.4 57.7 L 254 56.9 L 254.5 56 L 254.9 54.9 L 255.4 53.8 L 255.7 52.7 L 256 51.3 L 256.2 49.8 L 256.3 48 L 256.4 46 L 256.3 43.6 L 256.1 41.5 L 255.8 39.6 L 255.3 38 L 254.7 36.6 L 254 35.3 L 253.2 34.2 L 252.3 33.3 L 251.2 32.6 L 250 32 L 248.6 31.7 L 247.1 31.6 L 246.9 31.6 L 247.1 34.5 L 248.3 34.6 L 249.4 35.1 L 250.3 35.8 L 251.2 36.8 L 251.9 38.2 L 252.4 40.3 L 252.7 42.8 L 252.8 46 L 252.7 49.2 L 252.4 51.8 L 251.9 53.8 L 251.2 55.3 L 250.3 56.2 L 249.4 56.9 L 248.3 57.4 L 247.1 57.5 L 246 57.4 L 245 57 L 244.1 56.4 L 243.3 55.5 L 242.5 54 L 242 51.9 L 241.6 49.2 L 241.5 46 L 241.5 46 L 241.6 42.8 L 241.9 40.2 L 242.4 38.2 L 243.1 36.8 L 244 35.8 L 244.9 35.1 L 246 34.6 L 247.1 34.5 L 246.9 31.6 L 245.2 31.8 L 243.5 32.3 L 242 33.3 L 240.8 34.5 L 239.5 36.6 L 238.7 39.2 L 238.1 42.3 L 238 46 L 238 46 Z"/><path d="M 261.3 32.1 L 261.3 60.3 L 273.8 60.3 L 275.6 60.3 L 277.1 60.1 L 278.4 59.9 L 279.5 59.5 L 280.5 59.1 L 281.3 58.5 L 282 57.7 L 282.7 56.8 L 283.2 55.8 L 283.6 54.8 L 283.8 53.7 L 283.8 52.6 L 283.7 51.2 L 283.4 49.8 L 282.8 48.6 L 281.9 47.5 L 280.8 46.6 L 279.4 45.8 L 277.8 45.3 L 276.9 45.1 L 276.3 48.1 L 277.1 48.4 L 277.7 48.7 L 278.3 49.1 L 278.8 49.5 L 279.3 50.1 L 279.6 50.6 L 279.8 51.3 L 280 51.9 L 280 52.6 L 279.9 53.6 L 279.6 54.4 L 279.2 55.2 L 278.6 55.9 L 277.7 56.4 L 276.7 56.9 L 275.5 57.1 L 274 57.2 L 265.1 57.2 L 265.1 47.9 L 265.1 47.9 L 273.1 47.9 L 274.3 47.9 L 275.3 48 L 276.3 48.1 L 276.9 45.1 L 275.9 44.9 L 276.6 44.6 L 277.2 44.2 L 277.7 43.9 L 278.2 43.5 L 279 42.7 L 279.7 41.8 L 280.5 40.8 L 281.2 39.8 L 286.2 32.1 L 281.5 32.1 L 277.7 38 L 276.9 39.2 L 276.2 40.2 L 275.6 41.1 L 275.1 41.9 L 274.5 42.5 L 274 43 L 273.6 43.4 L 273.2 43.7 L 272.7 44 L 272.3 44.2 L 271.9 44.4 L 271.4 44.5 L 271.1 44.5 L 270.6 44.6 L 270.1 44.6 L 269.4 44.6 L 265.1 44.6 L 265.1 32.1 L 261.3 32.1 L 261.3 32.1 Z"/></g></g><use class="pcb_board-cf" mask="url(#pcb_top-cu_finish-mask)" xlink:href="#pcb_top-sm"/></g></g></svg>