<?xml-stylesheet href="https://s3.amazonaws.com/maker.works.boards/css/blackpcb.css" type="text/css"?><svg xmlns="http://www.w3.org/2000/svg" version="1.1" xmlns:xlink="http://www.w3.org/1999/xlink" stroke-width="0" stroke-linecap="round" stroke-linejoin="round" width="1.6732in" height="0.6693in" id="pcb_bottom" viewBox="7.5 7.5 1673.2 669.3"><defs><circle cx="0" cy="0" r="6.5" id="tool-T10-pad-1000"/><circle cx="0" cy="0" r="39.5" id="tool-T11-pad-1001"/><circle cx="0" cy="0" r="26.5" id="tool-T12-pad-1002"/><circle cx="0" cy="0" r="15" id="tool-T13-pad-1003"/><circle cx="0" cy="0" r="13.55" id="tool-D11-pad-1005"/><circle cx="0" cy="0" r="40.35" id="tool-D12-pad-1006"/><rect x="-40.3545" y="-40.3545" width="80.709" height="80.709" transform="rotate(270)" id="tool-D13-pad-1007"/><circle cx="0" cy="0" r="24.6" id="tool-D14-pad-1008"/><rect x="-24.6065" y="-24.6065" width="49.213" height="49.213" transform="rotate(90)" id="tool-D15-pad-1009"/><g id="tool-D16-pad-1010"><rect x="-17.7165" y="-13.7795" width="35.433" height="27.559" transform="rotate(270)"/><circle cx="13.78" cy="0" r="17.7165"/><circle cx="13.78" cy="0" r="17.7165"/><circle cx="-13.78" cy="0" r="17.7165"/><circle cx="-13.78" cy="0" r="17.7165"/></g><circle cx="0" cy="0" r="13.55" id="tool-D10-pad-1012"/><circle cx="0" cy="0" r="40.35" id="tool-D11-pad-1013"/><rect x="-40.3545" y="-40.3545" width="80.709" height="80.709" transform="rotate(270)" id="tool-D12-pad-1014"/><circle cx="0" cy="0" r="24.6" id="tool-D13-pad-1015"/><rect x="-24.6065" y="-24.6065" width="49.213" height="49.213" transform="rotate(90)" id="tool-D14-pad-1016"/><g id="tool-D15-pad-1017"><rect x="-17.7165" y="-13.7795" width="35.433" height="27.559" transform="rotate(270)"/><circle cx="13.78" cy="0" r="17.7165"/><circle cx="13.78" cy="0" r="17.7165"/><circle cx="-13.78" cy="0" r="17.7165"/><circle cx="-13.78" cy="0" r="17.7165"/></g><g id="pcb_bottom-cu" fill="currentColor" stroke="currentColor"><path stroke-width="2" fill="none" d="M 1656.4 138.6 L 1656.4 138.6 M 1656.4 138.6 L 1656.4 545.7 M 1656.4 545.7 L 1496.2 652.5 M 1496.2 652.5 L 594.1 652.5 M 594.1 652.5 L 594.1 31.8 M 594.1 31.8 L 1496.2 31.8 M 1496.2 31.8 L 1656.4 138.6 M 1292 481.9 L 1292 481.9 M 1292 481.9 L 1294.5 482.1 M 1294.5 482.1 L 1294.6 482.1 M 1294.6 482.1 L 1297.1 482.7 M 1297.1 482.7 L 1297.2 482.7 M 1297.2 482.7 L 1299.5 483.7 M 1299.5 483.7 L 1299.6 483.7 M 1299.6 483.7 L 1301.8 485 M 1301.8 485 L 1301.8 485.1 M 1301.8 485.1 L 1303.8 486.8 M 1303.8 486.8 L 1303.8 486.8 M 1303.8 486.8 L 1305.5 488.8 M 1305.5 488.8 L 1305.6 488.8 M 1305.6 488.8 L 1306.9 491 M 1306.9 491 L 1306.9 491 M 1306.9 491 L 1307.9 493.4 M 1307.9 493.4 L 1307.9 493.5 M 1307.9 493.5 L 1308.5 496 M 1308.5 496 L 1308.5 496 M 1308.5 496 L 1308.7 498.6 M 1308.7 498.6 L 1308.7 498.6 M 1308.7 498.6 L 1308.7 579.4 M 1308.7 579.4 L 1308.7 579.4 M 1308.7 579.4 L 1308.5 581.9 M 1308.5 581.9 L 1308.5 582 M 1308.5 582 L 1307.9 584.5 M 1307.9 584.5 L 1307.9 584.6 M 1307.9 584.6 L 1306.9 586.9 M 1306.9 586.9 L 1306.9 587 M 1306.9 587 L 1305.6 589.2 M 1305.6 589.2 L 1305.5 589.2 M 1305.5 589.2 L 1303.8 591.2 M 1303.8 591.2 L 1303.8 591.2 M 1303.8 591.2 L 1301.8 592.9 M 1301.8 592.9 L 1301.8 593 M 1301.8 593 L 1299.6 594.3 M 1299.6 594.3 L 1299.5 594.3 M 1299.5 594.3 L 1297.2 595.3 M 1297.2 595.3 L 1297.1 595.3 M 1297.1 595.3 L 1294.6 595.9 M 1294.6 595.9 L 1294.5 595.9 M 1294.5 595.9 L 1292 596.1 M 1292 596.1 L 1291.9 596.1 M 1291.9 596.1 L 1211.2 596.1 M 1211.2 596.1 L 1211.2 596.1 M 1211.2 596.1 L 1208.6 595.9 M 1208.6 595.9 L 1208.6 595.9 M 1208.6 595.9 L 1206.1 595.3 M 1206.1 595.3 L 1206 595.3 M 1206 595.3 L 1203.6 594.3 M 1203.6 594.3 L 1203.6 594.3 M 1203.6 594.3 L 1201.4 593 M 1201.4 593 L 1201.4 592.9 M 1201.4 592.9 L 1199.4 591.2 M 1199.4 591.2 L 1199.4 591.2 M 1199.4 591.2 L 1197.7 589.2 M 1197.7 589.2 L 1197.6 589.2 M 1197.6 589.2 L 1196.3 587 M 1196.3 587 L 1196.3 586.9 M 1196.3 586.9 L 1195.3 584.6 M 1195.3 584.6 L 1195.3 584.5 M 1195.3 584.5 L 1194.7 582 M 1194.7 582 L 1194.7 581.9 M 1194.7 581.9 L 1194.5 579.4 M 1194.5 579.4 L 1194.5 579.4 M 1194.5 579.4 L 1194.5 498.6 M 1194.5 498.6 L 1194.5 498.6 M 1194.5 498.6 L 1194.7 496 M 1194.7 496 L 1194.7 496 M 1194.7 496 L 1195.3 493.5 M 1195.3 493.5 L 1195.3 493.4 M 1195.3 493.4 L 1196.3 491 M 1196.3 491 L 1196.3 491 M 1196.3 491 L 1197.6 488.8 M 1197.6 488.8 L 1197.7 488.8 M 1197.7 488.8 L 1199.4 486.8 M 1199.4 486.8 L 1199.4 486.8 M 1199.4 486.8 L 1201.4 485.1 M 1201.4 485.1 L 1201.4 485 M 1201.4 485 L 1203.6 483.7 M 1203.6 483.7 L 1203.6 483.7 M 1203.6 483.7 L 1206 482.7 M 1206 482.7 L 1206.1 482.7 M 1206.1 482.7 L 1208.6 482.1 M 1208.6 482.1 L 1208.6 482.1 M 1208.6 482.1 L 1211.2 481.9 M 1211.2 481.9 L 1211.2 481.9 M 1211.2 481.9 L 1292 481.9 M 1292 481.9 L 1292 481.9 M 1555.4 385.8 L 1555.4 385.8 M 1555.4 385.8 L 1555.5 385.8 M 1555.5 385.8 L 1567.3 389.9 M 1567.3 389.9 L 1567.3 390 M 1567.3 390 L 1577.9 396.6 M 1577.9 396.6 L 1578 396.7 M 1578 396.7 L 1586.8 405.5 M 1586.8 405.5 L 1586.9 405.6 M 1586.9 405.6 L 1593.5 416.2 M 1593.5 416.2 L 1593.6 416.2 M 1593.6 416.2 L 1597.7 428 M 1597.7 428 L 1597.7 428.1 M 1597.7 428.1 L 1599.1 440.5 M 1599.1 440.5 L 1599.1 440.6 M 1599.1 440.6 L 1597.7 453 M 1597.7 453 L 1597.7 453.1 M 1597.7 453.1 L 1593.6 464.9 M 1593.6 464.9 L 1593.5 465 M 1593.5 465 L 1586.9 475.5 M 1586.9 475.5 L 1586.8 475.6 M 1586.8 475.6 L 1578 484.4 M 1578 484.4 L 1577.9 484.5 M 1577.9 484.5 L 1567.3 491.2 M 1567.3 491.2 L 1567.3 491.2 M 1567.3 491.2 L 1555.5 495.3 M 1555.5 495.3 L 1555.4 495.3 M 1555.4 495.3 L 1543 496.7 M 1543 496.7 L 1542.9 496.7 M 1542.9 496.7 L 1530.5 495.3 M 1530.5 495.3 L 1530.4 495.3 M 1530.4 495.3 L 1518.6 491.2 M 1518.6 491.2 L 1518.5 491.2 M 1518.5 491.2 L 1508 484.5 M 1508 484.5 L 1507.9 484.4 M 1507.9 484.4 L 1499.1 475.6 M 1499.1 475.6 L 1499 475.5 M 1499 475.5 L 1492.3 465 M 1492.3 465 L 1492.3 464.9 M 1492.3 464.9 L 1488.2 453.1 M 1488.2 453.1 L 1488.2 453 M 1488.2 453 L 1486.8 440.6 M 1486.8 440.6 L 1486.8 440.5 M 1486.8 440.5 L 1488.2 428.1 M 1488.2 428.1 L 1488.2 428 M 1488.2 428 L 1492.3 416.2 M 1492.3 416.2 L 1492.3 416.2 M 1492.3 416.2 L 1499 405.6 M 1499 405.6 L 1499.1 405.5 M 1499.1 405.5 L 1507.9 396.7 M 1507.9 396.7 L 1508 396.6 M 1508 396.6 L 1518.5 390 M 1518.5 390 L 1518.6 389.9 M 1518.6 389.9 L 1530.4 385.8 M 1530.4 385.8 L 1530.5 385.8 M 1530.5 385.8 L 1542.9 384.4 M 1542.9 384.4 L 1543 384.4 M 1543 384.4 L 1555.4 385.8 M 861 399.5 L 861 399.5 M 861 399.5 L 870.5 401.8 M 870.5 401.8 L 870.6 401.9 M 870.6 401.9 L 879.4 406.5 M 879.4 406.5 L 879.5 406.6 M 879.5 406.6 L 886.9 413.1 M 886.9 413.1 L 886.9 413.2 M 886.9 413.2 L 892.5 421.3 M 892.5 421.3 L 892.6 421.4 M 892.6 421.4 L 896.1 430.6 M 896.1 430.6 L 896.1 430.7 M 896.1 430.7 L 897.3 440.5 M 897.3 440.5 L 897.3 440.6 M 897.3 440.6 L 896.1 450.4 M 896.1 450.4 L 896.1 450.5 M 896.1 450.5 L 892.6 459.7 M 892.6 459.7 L 892.5 459.9 M 892.5 459.9 L 886.9 468 M 886.9 468 L 886.9 468.1 M 886.9 468.1 L 879.5 474.6 M 879.5 474.6 L 879.4 474.7 M 879.4 474.7 L 870.6 479.3 M 870.6 479.3 L 870.5 479.3 M 870.5 479.3 L 861 481.7 M 861 481.7 L 860.8 481.7 M 860.8 481.7 L 851 481.7 M 851 481.7 L 850.9 481.7 M 850.9 481.7 L 841.3 479.3 M 841.3 479.3 L 841.2 479.3 M 841.2 479.3 L 832.5 474.7 M 832.5 474.7 L 832.3 474.6 M 832.3 474.6 L 825 468.1 M 825 468.1 L 824.9 468 M 824.9 468 L 819.3 459.9 M 819.3 459.9 L 819.2 459.7 M 819.2 459.7 L 815.8 450.5 M 815.8 450.5 L 815.7 450.4 M 815.7 450.4 L 814.5 440.6 M 814.5 440.6 L 814.5 440.5 M 814.5 440.5 L 815.7 430.7 M 815.7 430.7 L 815.8 430.6 M 815.8 430.6 L 819.2 421.4 M 819.2 421.4 L 819.3 421.3 M 819.3 421.3 L 824.9 413.2 M 824.9 413.2 L 825 413.1 M 825 413.1 L 832.3 406.6 M 832.3 406.6 L 832.5 406.5 M 832.5 406.5 L 841.2 401.9 M 841.2 401.9 L 841.3 401.8 M 841.3 401.8 L 850.9 399.5 M 850.9 399.5 L 851 399.5 M 851 399.5 L 860.8 399.5 M 860.8 399.5 L 861 399.5 M 649 400.7 L 649 400.7 M 649 400.7 L 649 419.1 M 649 419.1 L 662.8 419.1 M 662.8 419.1 L 662.8 400.7 M 662.8 400.7 L 663.6 400.1 M 663.6 400.1 L 670.5 401.8 M 670.5 401.8 L 670.6 401.9 M 670.6 401.9 L 679.4 406.5 M 679.4 406.5 L 679.5 406.6 M 679.5 406.6 L 686.9 413.1 M 686.9 413.1 L 686.9 413.2 M 686.9 413.2 L 692.5 421.3 M 692.5 421.3 L 692.6 421.4 M 692.6 421.4 L 696.1 430.6 M 696.1 430.6 L 696.1 430.7 M 696.1 430.7 L 696.4 433 M 696.4 433 L 695.8 433.7 M 695.8 433.7 L 677.6 433.7 M 677.6 433.7 L 677.6 447.5 M 677.6 447.5 L 695.8 447.5 M 695.8 447.5 L 696.4 448.1 M 696.4 448.1 L 696.1 450.4 M 696.1 450.4 L 696.1 450.5 M 696.1 450.5 L 692.6 459.7 M 692.6 459.7 L 692.5 459.9 M 692.5 459.9 L 686.9 468 M 686.9 468 L 686.9 468.1 M 686.9 468.1 L 679.5 474.6 M 679.5 474.6 L 679.4 474.7 M 679.4 474.7 L 670.6 479.3 M 670.6 479.3 L 670.5 479.3 M 670.5 479.3 L 663.6 481 M 663.6 481 L 662.8 480.4 M 662.8 480.4 L 662.8 462.1 M 662.8 462.1 L 649 462.1 M 649 462.1 L 649 480.4 M 649 480.4 L 648.3 481 M 648.3 481 L 641.3 479.3 M 641.3 479.3 L 641.2 479.3 M 641.2 479.3 L 632.5 474.7 M 632.5 474.7 L 632.3 474.6 M 632.3 474.6 L 625 468.1 M 625 468.1 L 624.9 468 M 624.9 468 L 619.3 459.9 M 619.3 459.9 L 619.2 459.7 M 619.2 459.7 L 615.8 450.5 M 615.8 450.5 L 615.7 450.4 M 615.7 450.4 L 615.5 448.1 M 615.5 448.1 L 616 447.5 M 616 447.5 L 634.3 447.5 M 634.3 447.5 L 634.3 433.7 M 634.3 433.7 L 616 433.7 M 616 433.7 L 615.5 433 M 615.5 433 L 615.7 430.7 M 615.7 430.7 L 615.8 430.6 M 615.8 430.6 L 619.2 421.4 M 619.2 421.4 L 619.3 421.3 M 619.3 421.3 L 624.9 413.2 M 624.9 413.2 L 625 413.1 M 625 413.1 L 632.3 406.6 M 632.3 406.6 L 632.5 406.5 M 632.5 406.5 L 641.2 401.9 M 641.2 401.9 L 641.3 401.8 M 641.3 401.8 L 648.3 400.1 M 648.3 400.1 L 649 400.7 M 1555.4 189 L 1555.4 189 M 1555.4 189 L 1555.5 189 M 1555.5 189 L 1567.3 193.1 M 1567.3 193.1 L 1567.3 193.1 M 1567.3 193.1 L 1577.9 199.8 M 1577.9 199.8 L 1578 199.9 M 1578 199.9 L 1586.8 208.7 M 1586.8 208.7 L 1586.9 208.8 M 1586.9 208.8 L 1593.5 219.3 M 1593.5 219.3 L 1593.6 219.4 M 1593.6 219.4 L 1597.7 231.2 M 1597.7 231.2 L 1597.7 231.3 M 1597.7 231.3 L 1599.1 243.7 M 1599.1 243.7 L 1599.1 243.8 M 1599.1 243.8 L 1597.7 256.2 M 1597.7 256.2 L 1597.7 256.3 M 1597.7 256.3 L 1593.6 268.1 M 1593.6 268.1 L 1593.5 268.1 M 1593.5 268.1 L 1586.9 278.7 M 1586.9 278.7 L 1586.8 278.8 M 1586.8 278.8 L 1578 287.6 M 1578 287.6 L 1577.9 287.7 M 1577.9 287.7 L 1567.3 294.3 M 1567.3 294.3 L 1567.3 294.4 M 1567.3 294.4 L 1555.5 298.4 M 1555.5 298.4 L 1555.4 298.5 M 1555.4 298.5 L 1543 299.9 M 1543 299.9 L 1542.9 299.9 M 1542.9 299.9 L 1530.5 298.5 M 1530.5 298.5 L 1530.4 298.4 M 1530.4 298.4 L 1518.6 294.4 M 1518.6 294.4 L 1518.5 294.3 M 1518.5 294.3 L 1508 287.7 M 1508 287.7 L 1507.9 287.6 M 1507.9 287.6 L 1499.1 278.8 M 1499.1 278.8 L 1499 278.7 M 1499 278.7 L 1492.3 268.1 M 1492.3 268.1 L 1492.3 268.1 M 1492.3 268.1 L 1488.2 256.3 M 1488.2 256.3 L 1488.2 256.2 M 1488.2 256.2 L 1486.8 243.8 M 1486.8 243.8 L 1486.8 243.7 M 1486.8 243.7 L 1488.2 231.3 M 1488.2 231.3 L 1488.2 231.2 M 1488.2 231.2 L 1492.3 219.4 M 1492.3 219.4 L 1492.3 219.3 M 1492.3 219.3 L 1499 208.8 M 1499 208.8 L 1499.1 208.7 M 1499.1 208.7 L 1507.9 199.9 M 1507.9 199.9 L 1508 199.8 M 1508 199.8 L 1518.5 193.1 M 1518.5 193.1 L 1518.6 193.1 M 1518.6 193.1 L 1530.4 189 M 1530.4 189 L 1530.5 189 M 1530.5 189 L 1542.9 187.6 M 1542.9 187.6 L 1543 187.6 M 1543 187.6 L 1555.4 189 M 1264.3 89.6 L 1264.3 89.6 M 1264.3 89.6 L 1264.4 89.6 M 1264.4 89.6 L 1276.3 93.8 M 1276.3 93.8 L 1276.4 93.8 M 1276.4 93.8 L 1287.2 100.6 M 1287.2 100.6 L 1287.3 100.6 M 1287.3 100.6 L 1296.2 109.6 M 1296.2 109.6 L 1296.3 109.7 M 1296.3 109.7 L 1303.1 120.5 M 1303.1 120.5 L 1303.1 120.6 M 1303.1 120.6 L 1307.3 132.5 M 1307.3 132.5 L 1307.3 132.6 M 1307.3 132.6 L 1308.7 145.3 M 1308.7 145.3 L 1308.7 145.3 M 1308.7 145.3 L 1307.3 158 M 1307.3 158 L 1307.3 158.1 M 1307.3 158.1 L 1303.1 170 M 1303.1 170 L 1303.1 170.1 M 1303.1 170.1 L 1296.3 180.9 M 1296.3 180.9 L 1296.2 181 M 1296.2 181 L 1287.3 189.9 M 1287.3 189.9 L 1287.2 190 M 1287.2 190 L 1276.4 196.8 M 1276.4 196.8 L 1276.3 196.8 M 1276.3 196.8 L 1264.4 201 M 1264.4 201 L 1264.3 201 M 1264.3 201 L 1251.6 202.4 M 1251.6 202.4 L 1251.6 202.4 M 1251.6 202.4 L 1238.9 201 M 1238.9 201 L 1238.8 201 M 1238.8 201 L 1226.9 196.8 M 1226.9 196.8 L 1226.8 196.8 M 1226.8 196.8 L 1216 190 M 1216 190 L 1215.9 189.9 M 1215.9 189.9 L 1206.9 181 M 1206.9 181 L 1206.9 180.9 M 1206.9 180.9 L 1200.1 170.1 M 1200.1 170.1 L 1200.1 170 M 1200.1 170 L 1195.9 158.1 M 1195.9 158.1 L 1195.9 158 M 1195.9 158 L 1194.5 145.3 M 1194.5 145.3 L 1194.5 145.3 M 1194.5 145.3 L 1195.9 132.6 M 1195.9 132.6 L 1195.9 132.5 M 1195.9 132.5 L 1200.1 120.6 M 1200.1 120.6 L 1200.1 120.5 M 1200.1 120.5 L 1206.9 109.7 M 1206.9 109.7 L 1206.9 109.6 M 1206.9 109.6 L 1215.9 100.6 M 1215.9 100.6 L 1216 100.6 M 1216 100.6 L 1226.8 93.8 M 1226.8 93.8 L 1226.9 93.8 M 1226.9 93.8 L 1238.8 89.6 M 1238.8 89.6 L 1238.9 89.6 M 1238.9 89.6 L 1251.6 88.2 M 1251.6 88.2 L 1251.6 88.2 M 1251.6 88.2 L 1264.3 89.6 M 661 84.5 L 661 84.5 M 661 84.5 L 670.5 86.9 M 670.5 86.9 L 670.6 86.9 M 670.6 86.9 L 679.4 91.5 M 679.4 91.5 L 679.5 91.6 M 679.5 91.6 L 686.9 98.1 M 686.9 98.1 L 686.9 98.2 M 686.9 98.2 L 692.5 106.3 M 692.5 106.3 L 692.6 106.4 M 692.6 106.4 L 696.1 115.6 M 696.1 115.6 L 696.1 115.8 M 696.1 115.8 L 697.3 125.5 M 697.3 125.5 L 697.3 125.7 M 697.3 125.7 L 696.1 135.5 M 696.1 135.5 L 696.1 135.6 M 696.1 135.6 L 692.6 144.8 M 692.6 144.8 L 692.5 144.9 M 692.5 144.9 L 686.9 153 M 686.9 153 L 686.9 153.1 M 686.9 153.1 L 679.5 159.6 M 679.5 159.6 L 679.4 159.7 M 679.4 159.7 L 670.6 164.3 M 670.6 164.3 L 670.5 164.4 M 670.5 164.4 L 661 166.7 M 661 166.7 L 660.8 166.7 M 660.8 166.7 L 651 166.7 M 651 166.7 L 650.9 166.7 M 650.9 166.7 L 641.3 164.4 M 641.3 164.4 L 641.2 164.3 M 641.2 164.3 L 632.5 159.7 M 632.5 159.7 L 632.3 159.6 M 632.3 159.6 L 625 153.1 M 625 153.1 L 624.9 153 M 624.9 153 L 619.3 144.9 M 619.3 144.9 L 619.2 144.8 M 619.2 144.8 L 615.8 135.6 M 615.8 135.6 L 615.7 135.5 M 615.7 135.5 L 614.5 125.7 M 614.5 125.7 L 614.5 125.5 M 614.5 125.5 L 615.7 115.8 M 615.7 115.8 L 615.8 115.6 M 615.8 115.6 L 619.2 106.4 M 619.2 106.4 L 619.3 106.3 M 619.3 106.3 L 624.9 98.2 M 624.9 98.2 L 625 98.1 M 625 98.1 L 632.3 91.6 M 632.3 91.6 L 632.5 91.5 M 632.5 91.5 L 641.2 86.9 M 641.2 86.9 L 641.3 86.9 M 641.3 86.9 L 650.9 84.5 M 650.9 84.5 L 651 84.5 M 651 84.5 L 660.8 84.5 M 660.8 84.5 L 661 84.5 M 849 85.8 L 849 85.8 M 849 85.8 L 849 104.1 M 849 104.1 L 862.8 104.1 M 862.8 104.1 L 862.8 85.8 M 862.8 85.8 L 863.6 85.2 M 863.6 85.2 L 870.5 86.9 M 870.5 86.9 L 870.6 86.9 M 870.6 86.9 L 879.4 91.5 M 879.4 91.5 L 879.5 91.6 M 879.5 91.6 L 886.9 98.1 M 886.9 98.1 L 886.9 98.2 M 886.9 98.2 L 892.5 106.3 M 892.5 106.3 L 892.6 106.4 M 892.6 106.4 L 896.1 115.6 M 896.1 115.6 L 896.1 115.8 M 896.1 115.8 L 896.4 118.1 M 896.4 118.1 L 895.8 118.7 M 895.8 118.7 L 877.6 118.7 M 877.6 118.7 L 877.6 132.5 M 877.6 132.5 L 895.8 132.5 M 895.8 132.5 L 896.4 133.2 M 896.4 133.2 L 896.1 135.5 M 896.1 135.5 L 896.1 135.6 M 896.1 135.6 L 892.6 144.8 M 892.6 144.8 L 892.5 144.9 M 892.5 144.9 L 886.9 153 M 886.9 153 L 886.9 153.1 M 886.9 153.1 L 879.5 159.6 M 879.5 159.6 L 879.4 159.7 M 879.4 159.7 L 870.6 164.3 M 870.6 164.3 L 870.5 164.4 M 870.5 164.4 L 863.6 166 M 863.6 166 L 862.8 165.5 M 862.8 165.5 L 862.8 147.1 M 862.8 147.1 L 849 147.1 M 849 147.1 L 849 165.5 M 849 165.5 L 848.3 166 M 848.3 166 L 841.3 164.4 M 841.3 164.4 L 841.2 164.3 M 841.2 164.3 L 832.5 159.7 M 832.5 159.7 L 832.3 159.6 M 832.3 159.6 L 825 153.1 M 825 153.1 L 824.9 153 M 824.9 153 L 819.3 144.9 M 819.3 144.9 L 819.2 144.8 M 819.2 144.8 L 815.8 135.6 M 815.8 135.6 L 815.7 135.5 M 815.7 135.5 L 815.5 133.2 M 815.5 133.2 L 816 132.5 M 816 132.5 L 834.3 132.5 M 834.3 132.5 L 834.3 118.7 M 834.3 118.7 L 816 118.7 M 816 118.7 L 815.5 118.1 M 815.5 118.1 L 815.7 115.8 M 815.7 115.8 L 815.8 115.6 M 815.8 115.6 L 819.2 106.4 M 819.2 106.4 L 819.3 106.3 M 819.3 106.3 L 824.9 98.2 M 824.9 98.2 L 825 98.1 M 825 98.1 L 832.3 91.6 M 832.3 91.6 L 832.5 91.5 M 832.5 91.5 L 841.2 86.9 M 841.2 86.9 L 841.3 86.9 M 841.3 86.9 L 848.3 85.2 M 848.3 85.2 L 849 85.8 M 594.1 32.7 L 1497.6 32.7 M 594.1 34.7 L 1500.6 34.7 M 594.1 36.6 L 1503.5 36.6 M 594.1 38.6 L 1506.4 38.6 M 594.1 40.5 L 1509.4 40.5 M 594.1 42.5 L 1512.3 42.5 M 594.1 44.4 L 1515.2 44.4 M 594.1 46.4 L 1518.1 46.4 M 594.1 48.3 L 1521 48.3 M 594.1 50.3 L 1524 50.3 M 594.1 52.2 L 1526.9 52.2 M 594.1 54.2 L 1529.8 54.2 M 594.1 56.1 L 1532.7 56.1 M 594.1 58.1 L 1535.6 58.1 M 594.1 60 L 1538.6 60 M 594.1 62 L 1541.5 62 M 594.1 64 L 1544.4 64 M 594.1 65.9 L 1547.3 65.9 M 594.1 67.9 L 1550.3 67.9 M 594.1 69.8 L 1553.2 69.8 M 594.1 71.8 L 1556.1 71.8 M 594.1 73.7 L 1559.1 73.7 M 594.1 75.6 L 1562 75.6 M 594.1 77.6 L 1564.9 77.6 M 594.1 79.5 L 1567.8 79.5 M 594.1 81.5 L 1570.8 81.5 M 594.1 83.4 L 1573.7 83.4 M 594.1 85.4 L 647.4 85.4 M 664.5 85.4 L 847.4 85.4 M 848.6 85.4 L 863.3 85.4 M 864.5 85.4 L 1576.6 85.4 M 594.1 87.3 L 640.4 87.3 M 671.4 87.3 L 840.4 87.3 M 849 87.3 L 862.8 87.3 M 871.4 87.3 L 1579.5 87.3 M 594.1 89.3 L 636.7 89.3 M 675.1 89.3 L 836.7 89.3 M 849 89.3 L 862.8 89.3 M 875.1 89.3 L 1241.5 89.3 M 1261.7 89.3 L 1582.5 89.3 M 594.1 91.2 L 633 91.2 M 678.9 91.2 L 833 91.2 M 849 91.2 L 862.8 91.2 M 878.9 91.2 L 1234.2 91.2 M 1269 91.2 L 1585.4 91.2 M 594.1 93.2 L 630.5 93.2 M 681.3 93.2 L 830.5 93.2 M 849 93.2 L 862.8 93.2 M 881.3 93.2 L 1228.6 93.2 M 1274.6 93.2 L 1588.3 93.2 M 594.1 95.1 L 628.3 95.1 M 683.5 95.1 L 828.3 95.1 M 849 95.1 L 862.8 95.1 M 883.5 95.1 L 1224.7 95.1 M 1278.5 95.1 L 1591.2 95.1 M 594.1 97.1 L 626.2 97.1 M 685.7 97.1 L 826.2 97.1 M 849 97.1 L 862.8 97.1 M 885.7 97.1 L 1221.6 97.1 M 1281.6 97.1 L 1594.2 97.1 M 594.1 99 L 624.3 99 M 687.5 99 L 824.3 99 M 849 99 L 862.8 99 M 887.5 99 L 1218.5 99 M 1284.7 99 L 1597.1 99 M 594.1 101 L 623 101 M 688.9 101 L 823 101 M 849 101 L 862.8 101 M 888.9 101 L 1215.6 101 M 1287.6 101 L 1600 101 M 594.1 102.9 L 621.6 102.9 M 690.2 102.9 L 821.6 102.9 M 849 102.9 L 862.8 102.9 M 890.2 102.9 L 1213.6 102.9 M 1289.5 102.9 L 1602.9 102.9 M 594.1 104.9 L 620.3 104.9 M 691.6 104.9 L 820.3 104.9 M 891.6 104.9 L 1211.7 104.9 M 1291.5 104.9 L 1605.8 104.9 M 594.1 106.8 L 619.1 106.8 M 692.8 106.8 L 819.1 106.8 M 892.8 106.8 L 1209.7 106.8 M 1293.4 106.8 L 1608.8 106.8 M 594.1 108.8 L 618.4 108.8 M 693.5 108.8 L 818.4 108.8 M 893.5 108.8 L 1207.8 108.8 M 1295.4 108.8 L 1611.7 108.8 M 594.1 110.7 L 617.6 110.7 M 694.2 110.7 L 817.6 110.7 M 894.2 110.7 L 1206.2 110.7 M 1296.9 110.7 L 1614.6 110.7 M 594.1 112.7 L 616.9 112.7 M 695 112.7 L 816.9 112.7 M 895 112.7 L 1205 112.7 M 1298.2 112.7 L 1617.6 112.7 M 594.1 114.6 L 616.1 114.6 M 695.7 114.6 L 816.1 114.6 M 895.7 114.6 L 1203.8 114.6 M 1299.4 114.6 L 1620.5 114.6 M 594.1 116.6 L 615.6 116.6 M 696.2 116.6 L 815.6 116.6 M 896.2 116.6 L 1202.6 116.6 M 1300.6 116.6 L 1623.4 116.6 M 594.1 118.5 L 615.4 118.5 M 696.5 118.5 L 815.8 118.5 M 896 118.5 L 1201.4 118.5 M 1301.8 118.5 L 1626.3 118.5 M 594.1 120.5 L 615.1 120.5 M 696.7 120.5 L 834.3 120.5 M 877.6 120.5 L 1200.1 120.5 M 1303.1 120.5 L 1629.3 120.5 M 594.1 122.4 L 614.9 122.4 M 696.9 122.4 L 834.3 122.4 M 877.6 122.4 L 1199.4 122.4 M 1303.8 122.4 L 1632.2 122.4 M 594.1 124.4 L 614.7 124.4 M 697.2 124.4 L 834.3 124.4 M 877.6 124.4 L 1198.8 124.4 M 1304.4 124.4 L 1635.1 124.4 M 594.1 126.3 L 614.6 126.3 M 697.2 126.3 L 834.3 126.3 M 877.6 126.3 L 1198.1 126.3 M 1305.1 126.3 L 1638.1 126.3 M 594.1 128.3 L 614.9 128.3 M 697 128.3 L 834.3 128.3 M 877.6 128.3 L 1197.4 128.3 M 1305.8 128.3 L 1641 128.3 M 594.1 130.3 L 615.1 130.3 M 696.8 130.3 L 834.3 130.3 M 877.6 130.3 L 1196.7 130.3 M 1306.5 130.3 L 1643.9 130.3 M 594.1 132.2 L 615.3 132.2 M 696.5 132.2 L 834.3 132.2 M 877.6 132.2 L 1196 132.2 M 1307.2 132.2 L 1646.8 132.2 M 594.1 134.2 L 615.6 134.2 M 696.3 134.2 L 815.6 134.2 M 896.3 134.2 L 1195.7 134.2 M 1307.5 134.2 L 1649.7 134.2 M 594.1 136.1 L 615.9 136.1 M 695.9 136.1 L 815.9 136.1 M 895.9 136.1 L 1195.5 136.1 M 1307.7 136.1 L 1652.7 136.1 M 594.1 138.1 L 616.7 138.1 M 695.2 138.1 L 816.7 138.1 M 895.2 138.1 L 1195.3 138.1 M 1307.9 138.1 L 1655.6 138.1 M 594.1 140 L 617.4 140 M 694.4 140 L 817.4 140 M 894.4 140 L 1195.1 140 M 1308.1 140 L 1656.4 140 M 594.1 141.9 L 618.2 141.9 M 693.7 141.9 L 818.2 141.9 M 893.7 141.9 L 1194.8 141.9 M 1308.4 141.9 L 1656.4 141.9 M 594.1 143.9 L 618.9 143.9 M 692.9 143.9 L 818.9 143.9 M 892.9 143.9 L 1194.6 143.9 M 1308.6 143.9 L 1656.4 143.9 M 594.1 145.8 L 619.9 145.8 M 691.9 145.8 L 819.9 145.8 M 891.9 145.8 L 1194.5 145.8 M 1308.7 145.8 L 1656.4 145.8 M 594.1 147.8 L 621.3 147.8 M 690.6 147.8 L 821.3 147.8 M 849 147.8 L 862.8 147.8 M 890.6 147.8 L 1194.7 147.8 M 1308.4 147.8 L 1656.4 147.8 M 594.1 149.7 L 622.7 149.7 M 689.2 149.7 L 822.7 149.7 M 849 149.7 L 862.8 149.7 M 889.2 149.7 L 1194.9 149.7 M 1308.2 149.7 L 1656.4 149.7 M 594.1 151.7 L 624 151.7 M 687.9 151.7 L 824 151.7 M 849 151.7 L 862.8 151.7 M 887.9 151.7 L 1195.2 151.7 M 1308 151.7 L 1656.4 151.7 M 594.1 153.6 L 625.6 153.6 M 686.3 153.6 L 825.6 153.6 M 849 153.6 L 862.8 153.6 M 886.3 153.6 L 1195.4 153.6 M 1307.8 153.6 L 1656.4 153.6 M 594.1 155.6 L 627.8 155.6 M 684.1 155.6 L 827.8 155.6 M 849 155.6 L 862.8 155.6 M 884.1 155.6 L 1195.6 155.6 M 1307.6 155.6 L 1656.4 155.6 M 594.1 157.5 L 630 157.5 M 681.9 157.5 L 830 157.5 M 849 157.5 L 862.8 157.5 M 881.9 157.5 L 1195.8 157.5 M 1307.4 157.5 L 1656.4 157.5 M 594.1 159.5 L 632.2 159.5 M 679.7 159.5 L 832.2 159.5 M 849 159.5 L 862.8 159.5 M 879.7 159.5 L 1196.4 159.5 M 1306.8 159.5 L 1656.4 159.5 M 594.1 161.4 L 635.8 161.4 M 676.1 161.4 L 835.8 161.4 M 849 161.4 L 862.8 161.4 M 876.1 161.4 L 1197.1 161.4 M 1306.1 161.4 L 1656.4 161.4 M 594.1 163.4 L 639.5 163.4 M 672.4 163.4 L 839.5 163.4 M 849 163.4 L 862.8 163.4 M 872.4 163.4 L 1197.8 163.4 M 1305.4 163.4 L 1656.4 163.4 M 594.1 165.3 L 645.4 165.3 M 666.5 165.3 L 845.4 165.3 M 849 165.3 L 862.8 165.3 M 866.5 165.3 L 1198.4 165.3 M 1304.7 165.3 L 1656.4 165.3 M 594.1 167.3 L 1199.1 167.3 M 1304.1 167.3 L 1656.4 167.3 M 594.1 169.2 L 1199.8 169.2 M 1303.4 169.2 L 1656.4 169.2 M 594.1 171.2 L 1200.8 171.2 M 1302.4 171.2 L 1656.4 171.2 M 594.1 173.1 L 1202 173.1 M 1301.2 173.1 L 1656.4 173.1 M 594.1 175.1 L 1203.2 175.1 M 1299.9 175.1 L 1656.4 175.1 M 594.1 177 L 1204.5 177 M 1298.7 177 L 1656.4 177 M 594.1 179 L 1205.7 179 M 1297.5 179 L 1656.4 179 M 594.1 180.9 L 1206.9 180.9 M 1296.2 180.9 L 1656.4 180.9 M 594.1 182.9 L 1208.9 182.9 M 1294.3 182.9 L 1656.4 182.9 M 594.1 184.8 L 1210.8 184.8 M 1292.4 184.8 L 1656.4 184.8 M 594.1 186.8 L 1212.8 186.8 M 1290.4 186.8 L 1656.4 186.8 M 594.1 188.7 L 1214.7 188.7 M 1288.4 188.7 L 1532.5 188.7 M 1553.4 188.7 L 1656.4 188.7 M 594.1 190.7 L 1217.1 190.7 M 1286.1 190.7 L 1525.5 190.7 M 1560.3 190.7 L 1656.4 190.7 M 594.1 192.6 L 1220.2 192.6 M 1283 192.6 L 1519.9 192.6 M 1565.9 192.6 L 1656.4 192.6 M 594.1 194.6 L 1223.3 194.6 M 1279.9 194.6 L 1516.2 194.6 M 1569.6 194.6 L 1656.4 194.6 M 594.1 196.6 L 1226.4 196.6 M 1276.8 196.6 L 1513.1 196.6 M 1572.7 196.6 L 1656.4 196.6 M 594.1 198.5 L 1231.7 198.5 M 1271.5 198.5 L 1510 198.5 M 1575.8 198.5 L 1656.4 198.5 M 594.1 200.5 L 1237.2 200.5 M 1266 200.5 L 1507.3 200.5 M 1578.6 200.5 L 1656.4 200.5 M 594.1 202.4 L 1251.1 202.4 M 1252.1 202.4 L 1505.3 202.4 M 1580.5 202.4 L 1656.4 202.4 M 594.1 204.4 L 1503.4 204.4 M 1582.5 204.4 L 1656.4 204.4 M 594.1 206.3 L 1501.4 206.3 M 1584.4 206.3 L 1656.4 206.3 M 594.1 208.2 L 1499.5 208.2 M 1586.4 208.2 L 1656.4 208.2 M 594.1 210.2 L 1498.1 210.2 M 1587.8 210.2 L 1656.4 210.2 M 594.1 212.1 L 1496.9 212.1 M 1589 212.1 L 1656.4 212.1 M 594.1 214.1 L 1495.6 214.1 M 1590.2 214.1 L 1656.4 214.1 M 594.1 216 L 1494.4 216 M 1591.4 216 L 1656.4 216 M 594.1 218 L 1493.2 218 M 1592.7 218 L 1656.4 218 M 594.1 219.9 L 1492.1 219.9 M 1593.7 219.9 L 1656.4 219.9 M 594.1 221.9 L 1491.4 221.9 M 1594.4 221.9 L 1656.4 221.9 M 594.1 223.8 L 1490.8 223.8 M 1595.1 223.8 L 1656.4 223.8 M 594.1 225.8 L 1490.1 225.8 M 1595.8 225.8 L 1656.4 225.8 M 594.1 227.7 L 1489.4 227.7 M 1596.5 227.7 L 1656.4 227.7 M 594.1 229.7 L 1488.7 229.7 M 1597.1 229.7 L 1656.4 229.7 M 594.1 231.6 L 1488.1 231.6 M 1597.7 231.6 L 1656.4 231.6 M 594.1 233.6 L 1487.9 233.6 M 1598 233.6 L 1656.4 233.6 M 594.1 235.5 L 1487.7 235.5 M 1598.2 235.5 L 1656.4 235.5 M 594.1 237.5 L 1487.5 237.5 M 1598.4 237.5 L 1656.4 237.5 M 594.1 239.4 L 1487.3 239.4 M 1598.6 239.4 L 1656.4 239.4 M 594.1 241.4 L 1487 241.4 M 1598.8 241.4 L 1656.4 241.4 M 594.1 243.3 L 1486.8 243.3 M 1599 243.3 L 1656.4 243.3 M 594.1 245.3 L 1486.9 245.3 M 1598.9 245.3 L 1656.4 245.3 M 594.1 247.2 L 1487.2 247.2 M 1598.7 247.2 L 1656.4 247.2 M 594.1 249.2 L 1487.4 249.2 M 1598.5 249.2 L 1656.4 249.2 M 594.1 251.1 L 1487.6 251.1 M 1598.2 251.1 L 1656.4 251.1 M 594.1 253.1 L 1487.8 253.1 M 1598.1 253.1 L 1656.4 253.1 M 594.1 255 L 1488.1 255 M 1597.8 255 L 1656.4 255 M 594.1 257 L 1488.4 257 M 1597.4 257 L 1656.4 257 M 594.1 259 L 1489.1 259 M 1596.8 259 L 1656.4 259 M 594.1 260.9 L 1489.8 260.9 M 1596 260.9 L 1656.4 260.9 M 594.1 262.9 L 1490.5 262.9 M 1595.4 262.9 L 1656.4 262.9 M 594.1 264.8 L 1491.2 264.8 M 1594.7 264.8 L 1656.4 264.8 M 594.1 266.8 L 1491.9 266.8 M 1594 266.8 L 1656.4 266.8 M 594.1 268.7 L 1492.7 268.7 M 1593.2 268.7 L 1656.4 268.7 M 594.1 270.6 L 1493.9 270.6 M 1591.9 270.6 L 1656.4 270.6 M 594.1 272.6 L 1495.2 272.6 M 1590.7 272.6 L 1656.4 272.6 M 594.1 274.5 L 1496.4 274.5 M 1589.5 274.5 L 1656.4 274.5 M 594.1 276.5 L 1497.6 276.5 M 1588.2 276.5 L 1656.4 276.5 M 594.1 278.4 L 1498.8 278.4 M 1587 278.4 L 1656.4 278.4 M 594.1 280.4 L 1500.7 280.4 M 1585.2 280.4 L 1656.4 280.4 M 594.1 282.3 L 1502.6 282.3 M 1583.2 282.3 L 1656.4 282.3 M 594.1 284.3 L 1504.6 284.3 M 1581.3 284.3 L 1656.4 284.3 M 594.1 286.2 L 1506.5 286.2 M 1579.4 286.2 L 1656.4 286.2 M 594.1 288.2 L 1508.8 288.2 M 1577.1 288.2 L 1656.4 288.2 M 594.1 290.1 L 1511.9 290.1 M 1574 290.1 L 1656.4 290.1 M 594.1 292.1 L 1515 292.1 M 1570.8 292.1 L 1656.4 292.1 M 594.1 294 L 1518.1 294 M 1567.7 294 L 1656.4 294 M 594.1 296 L 1523.3 296 M 1562.5 296 L 1656.4 296 M 594.1 297.9 L 1528.9 297.9 M 1557 297.9 L 1656.4 297.9 M 594.1 299.9 L 1656.4 299.9 M 594.1 301.8 L 1656.4 301.8 M 594.1 303.8 L 1656.4 303.8 M 594.1 305.7 L 1656.4 305.7 M 594.1 307.7 L 1656.4 307.7 M 594.1 309.6 L 1656.4 309.6 M 594.1 311.6 L 1656.4 311.6 M 594.1 313.5 L 1656.4 313.5 M 594.1 315.5 L 1656.4 315.5 M 594.1 317.4 L 1656.4 317.4 M 594.1 319.4 L 1656.4 319.4 M 594.1 321.3 L 1656.4 321.3 M 594.1 323.3 L 1656.4 323.3 M 594.1 325.3 L 1656.4 325.3 M 594.1 327.2 L 1656.4 327.2 M 594.1 329.2 L 1656.4 329.2 M 594.1 331.1 L 1656.4 331.1 M 594.1 333.1 L 1656.4 333.1 M 594.1 335 L 1656.4 335 M 594.1 336.9 L 1656.4 336.9 M 594.1 338.9 L 1656.4 338.9 M 594.1 340.8 L 1656.4 340.8 M 594.1 342.8 L 1656.4 342.8 M 594.1 344.7 L 1656.4 344.7 M 594.1 346.7 L 1656.4 346.7 M 594.1 348.6 L 1656.4 348.6 M 594.1 350.6 L 1656.4 350.6 M 594.1 352.5 L 1656.4 352.5 M 594.1 354.5 L 1656.4 354.5 M 594.1 356.4 L 1656.4 356.4 M 594.1 358.4 L 1656.4 358.4 M 594.1 360.3 L 1656.4 360.3 M 594.1 362.3 L 1656.4 362.3 M 594.1 364.2 L 1656.4 364.2 M 594.1 366.2 L 1656.4 366.2 M 594.1 368.1 L 1656.4 368.1 M 594.1 370.1 L 1656.4 370.1 M 594.1 372 L 1656.4 372 M 594.1 374 L 1656.4 374 M 594.1 375.9 L 1656.4 375.9 M 594.1 377.9 L 1656.4 377.9 M 594.1 379.8 L 1656.4 379.8 M 594.1 381.8 L 1656.4 381.8 M 594.1 383.7 L 1656.4 383.7 M 594.1 385.7 L 1531.6 385.7 M 1554.3 385.7 L 1656.4 385.7 M 594.1 387.6 L 1525.2 387.6 M 1560.6 387.6 L 1656.4 387.6 M 594.1 389.6 L 1519.7 389.6 M 1566.2 389.6 L 1656.4 389.6 M 594.1 391.6 L 1516.1 391.6 M 1569.8 391.6 L 1656.4 391.6 M 594.1 393.5 L 1513 393.5 M 1572.9 393.5 L 1656.4 393.5 M 594.1 395.5 L 1509.9 395.5 M 1576 395.5 L 1656.4 395.5 M 594.1 397.4 L 1507.2 397.4 M 1578.7 397.4 L 1656.4 397.4 M 594.1 399.4 L 1505.3 399.4 M 1580.6 399.4 L 1656.4 399.4 M 594.1 401.3 L 643.6 401.3 M 649 401.3 L 662.8 401.3 M 668.3 401.3 L 843.6 401.3 M 868.3 401.3 L 1503.3 401.3 M 1582.6 401.3 L 1656.4 401.3 M 594.1 403.2 L 638.6 403.2 M 649 403.2 L 662.8 403.2 M 673.2 403.2 L 838.6 403.2 M 873.2 403.2 L 1501.3 403.2 M 1584.5 403.2 L 1656.4 403.2 M 594.1 405.2 L 634.9 405.2 M 649 405.2 L 662.8 405.2 M 676.9 405.2 L 834.9 405.2 M 876.9 405.2 L 1499.4 405.2 M 1586.5 405.2 L 1656.4 405.2 M 594.1 407.1 L 631.7 407.1 M 649 407.1 L 662.8 407.1 M 680.2 407.1 L 831.7 407.1 M 880.2 407.1 L 1498 407.1 M 1587.9 407.1 L 1656.4 407.1 M 594.1 409.1 L 629.5 409.1 M 649 409.1 L 662.8 409.1 M 682.4 409.1 L 829.5 409.1 M 882.4 409.1 L 1496.8 409.1 M 1589.1 409.1 L 1656.4 409.1 M 594.1 411 L 627.3 411 M 649 411 L 662.8 411 M 684.6 411 L 827.3 411 M 884.6 411 L 1495.6 411 M 1590.3 411 L 1656.4 411 M 594.1 413 L 625.1 413 M 649 413 L 662.8 413 M 686.8 413 L 825.1 413 M 886.8 413 L 1494.4 413 M 1591.5 413 L 1656.4 413 M 594.1 414.9 L 623.7 414.9 M 649 414.9 L 662.8 414.9 M 688.2 414.9 L 823.7 414.9 M 888.2 414.9 L 1493.1 414.9 M 1592.7 414.9 L 1656.4 414.9 M 594.1 416.9 L 622.3 416.9 M 649 416.9 L 662.8 416.9 M 689.5 416.9 L 822.3 416.9 M 889.5 416.9 L 1492.1 416.9 M 1593.8 416.9 L 1656.4 416.9 M 594.1 418.8 L 621 418.8 M 649 418.8 L 662.8 418.8 M 690.8 418.8 L 821 418.8 M 890.8 418.8 L 1491.4 418.8 M 1594.5 418.8 L 1656.4 418.8 M 594.1 420.8 L 619.6 420.8 M 692.2 420.8 L 819.6 420.8 M 892.2 420.8 L 1490.7 420.8 M 1595.1 420.8 L 1656.4 420.8 M 594.1 422.7 L 618.7 422.7 M 693.1 422.7 L 818.7 422.7 M 893.1 422.7 L 1490.1 422.7 M 1595.8 422.7 L 1656.4 422.7 M 594.1 424.7 L 618 424.7 M 693.8 424.7 L 818 424.7 M 893.8 424.7 L 1489.4 424.7 M 1596.5 424.7 L 1656.4 424.7 M 594.1 426.6 L 617.3 426.6 M 694.6 426.6 L 817.3 426.6 M 894.6 426.6 L 1488.7 426.6 M 1597.2 426.6 L 1656.4 426.6 M 594.1 428.6 L 616.5 428.6 M 695.3 428.6 L 816.5 428.6 M 895.3 428.6 L 1488.1 428.6 M 1597.7 428.6 L 1656.4 428.6 M 594.1 430.5 L 615.8 430.5 M 696.1 430.5 L 815.8 430.5 M 896.1 430.5 L 1487.9 430.5 M 1598 430.5 L 1656.4 430.5 M 594.1 432.5 L 615.5 432.5 M 696.4 432.5 L 815.5 432.5 M 896.4 432.5 L 1487.7 432.5 M 1598.2 432.5 L 1656.4 432.5 M 594.1 434.4 L 634.3 434.4 M 677.6 434.4 L 815.3 434.4 M 896.6 434.4 L 1487.5 434.4 M 1598.4 434.4 L 1656.4 434.4 M 594.1 436.4 L 634.3 436.4 M 677.6 436.4 L 815 436.4 M 896.8 436.4 L 1487.2 436.4 M 1598.6 436.4 L 1656.4 436.4 M 594.1 438.3 L 634.3 438.3 M 677.6 438.3 L 814.8 438.3 M 897.1 438.3 L 1487 438.3 M 1598.8 438.3 L 1656.4 438.3 M 594.1 440.3 L 634.3 440.3 M 677.6 440.3 L 814.5 440.3 M 897.3 440.3 L 1486.8 440.3 M 1599.1 440.3 L 1656.4 440.3 M 594.1 442.2 L 634.3 442.2 M 677.6 442.2 L 814.7 442.2 M 897.1 442.2 L 1486.9 442.2 M 1598.9 442.2 L 1656.4 442.2 M 594.1 444.2 L 634.3 444.2 M 677.6 444.2 L 815 444.2 M 896.9 444.2 L 1487.2 444.2 M 1598.7 444.2 L 1656.4 444.2 M 594.1 446.1 L 634.3 446.1 M 677.6 446.1 L 815.2 446.1 M 896.6 446.1 L 1487.4 446.1 M 1598.5 446.1 L 1656.4 446.1 M 594.1 448.1 L 615.5 448.1 M 696.4 448.1 L 815.5 448.1 M 896.4 448.1 L 1487.6 448.1 M 1598.2 448.1 L 1656.4 448.1 M 594.1 450 L 615.7 450 M 696.2 450 L 815.7 450 M 896.2 450 L 1487.9 450 M 1598 450 L 1656.4 450 M 594.1 452 L 616.3 452 M 695.5 452 L 816.3 452 M 895.5 452 L 1488.1 452 M 1597.8 452 L 1656.4 452 M 594.1 454 L 617 454 M 694.8 454 L 817 454 M 894.8 454 L 1488.5 454 M 1597.4 454 L 1656.4 454 M 594.1 455.9 L 617.8 455.9 M 694.1 455.9 L 817.8 455.9 M 894.1 455.9 L 1489.2 455.9 M 1596.7 455.9 L 1656.4 455.9 M 594.1 457.9 L 618.5 457.9 M 693.3 457.9 L 818.5 457.9 M 893.3 457.9 L 1489.9 457.9 M 1596 457.9 L 1656.4 457.9 M 594.1 459.8 L 619.3 459.8 M 692.6 459.8 L 819.3 459.8 M 892.6 459.8 L 1490.5 459.8 M 1595.3 459.8 L 1656.4 459.8 M 594.1 461.8 L 620.6 461.8 M 691.2 461.8 L 820.6 461.8 M 891.2 461.8 L 1491.2 461.8 M 1594.7 461.8 L 1656.4 461.8 M 594.1 463.7 L 621.9 463.7 M 649 463.7 L 662.8 463.7 M 689.9 463.7 L 821.9 463.7 M 889.9 463.7 L 1491.9 463.7 M 1594 463.7 L 1656.4 463.7 M 594.1 465.6 L 623.3 465.6 M 649 465.6 L 662.8 465.6 M 688.6 465.6 L 823.3 465.6 M 888.6 465.6 L 1492.8 465.6 M 1593.1 465.6 L 1656.4 465.6 M 594.1 467.6 L 624.6 467.6 M 649 467.6 L 662.8 467.6 M 687.2 467.6 L 824.6 467.6 M 887.2 467.6 L 1494 467.6 M 1591.9 467.6 L 1656.4 467.6 M 594.1 469.5 L 626.6 469.5 M 649 469.5 L 662.8 469.5 M 685.2 469.5 L 826.6 469.5 M 885.2 469.5 L 1495.2 469.5 M 1590.6 469.5 L 1656.4 469.5 M 594.1 471.5 L 628.8 471.5 M 649 471.5 L 662.8 471.5 M 683 471.5 L 828.8 471.5 M 883 471.5 L 1496.4 471.5 M 1589.4 471.5 L 1656.4 471.5 M 594.1 473.4 L 631 473.4 M 649 473.4 L 662.8 473.4 M 680.8 473.4 L 831 473.4 M 880.8 473.4 L 1497.7 473.4 M 1588.2 473.4 L 1656.4 473.4 M 594.1 475.4 L 633.8 475.4 M 649 475.4 L 662.8 475.4 M 678 475.4 L 833.8 475.4 M 878 475.4 L 1498.9 475.4 M 1587 475.4 L 1656.4 475.4 M 594.1 477.3 L 637.5 477.3 M 649 477.3 L 662.8 477.3 M 674.3 477.3 L 837.5 477.3 M 874.3 477.3 L 1500.8 477.3 M 1585.1 477.3 L 1656.4 477.3 M 594.1 479.3 L 641.3 479.3 M 649 479.3 L 662.8 479.3 M 670.6 479.3 L 841.3 479.3 M 870.6 479.3 L 1502.7 479.3 M 1583.1 479.3 L 1656.4 479.3 M 594.1 481.2 L 849.2 481.2 M 862.7 481.2 L 1504.7 481.2 M 1581.2 481.2 L 1656.4 481.2 M 594.1 483.2 L 1204.8 483.2 M 1298.4 483.2 L 1506.6 483.2 M 1579.2 483.2 L 1656.4 483.2 M 594.1 485.1 L 1201.3 485.1 M 1301.9 485.1 L 1509 485.1 M 1576.9 485.1 L 1656.4 485.1 M 594.1 487.1 L 1199.1 487.1 M 1304.1 487.1 L 1512.1 487.1 M 1573.8 487.1 L 1656.4 487.1 M 594.1 489 L 1197.5 489 M 1305.7 489 L 1515.2 489 M 1570.7 489 L 1656.4 489 M 594.1 491 L 1196.3 491 M 1306.9 491 L 1518.3 491 M 1567.6 491 L 1656.4 491 M 594.1 492.9 L 1195.5 492.9 M 1307.7 492.9 L 1523.6 492.9 M 1562.3 492.9 L 1656.4 492.9 M 594.1 494.9 L 1194.9 494.9 M 1308.2 494.9 L 1529.2 494.9 M 1556.7 494.9 L 1656.4 494.9 M 594.1 496.8 L 1194.6 496.8 M 1308.6 496.8 L 1656.4 496.8 M 594.1 498.8 L 1194.5 498.8 M 1308.7 498.8 L 1656.4 498.8 M 594.1 500.7 L 1194.5 500.7 M 1308.7 500.7 L 1656.4 500.7 M 594.1 502.7 L 1194.5 502.7 M 1308.7 502.7 L 1656.4 502.7 M 594.1 504.6 L 1194.5 504.6 M 1308.7 504.6 L 1656.4 504.6 M 594.1 506.6 L 1194.5 506.6 M 1308.7 506.6 L 1656.4 506.6 M 594.1 508.5 L 1194.5 508.5 M 1308.7 508.5 L 1656.4 508.5 M 594.1 510.5 L 1194.5 510.5 M 1308.7 510.5 L 1656.4 510.5 M 594.1 512.4 L 1194.5 512.4 M 1308.7 512.4 L 1656.4 512.4 M 594.1 514.4 L 1194.5 514.4 M 1308.7 514.4 L 1656.4 514.4 M 594.1 516.3 L 1194.5 516.3 M 1308.7 516.3 L 1656.4 516.3 M 594.1 518.3 L 1194.5 518.3 M 1308.7 518.3 L 1656.4 518.3 M 594.1 520.3 L 1194.5 520.3 M 1308.7 520.3 L 1656.4 520.3 M 594.1 522.2 L 1194.5 522.2 M 1308.7 522.2 L 1656.4 522.2 M 594.1 524.2 L 1194.5 524.2 M 1308.7 524.2 L 1656.4 524.2 M 594.1 526.1 L 1194.5 526.1 M 1308.7 526.1 L 1656.4 526.1 M 594.1 528.1 L 1194.5 528.1 M 1308.7 528.1 L 1656.4 528.1 M 594.1 530 L 1194.5 530 M 1308.7 530 L 1656.4 530 M 594.1 531.9 L 1194.5 531.9 M 1308.7 531.9 L 1656.4 531.9 M 594.1 533.9 L 1194.5 533.9 M 1308.7 533.9 L 1656.4 533.9 M 594.1 535.8 L 1194.5 535.8 M 1308.7 535.8 L 1656.4 535.8 M 594.1 537.8 L 1194.5 537.8 M 1308.7 537.8 L 1656.4 537.8 M 594.1 539.7 L 1194.5 539.7 M 1308.7 539.7 L 1656.4 539.7 M 594.1 541.7 L 1194.5 541.7 M 1308.7 541.7 L 1656.4 541.7 M 594.1 543.6 L 1194.5 543.6 M 1308.7 543.6 L 1656.4 543.6 M 594.1 545.6 L 1194.5 545.6 M 1308.7 545.6 L 1656.4 545.6 M 594.1 547.5 L 1194.5 547.5 M 1308.7 547.5 L 1653.6 547.5 M 594.1 549.5 L 1194.5 549.5 M 1308.7 549.5 L 1650.7 549.5 M 594.1 551.4 L 1194.5 551.4 M 1308.7 551.4 L 1647.8 551.4 M 594.1 553.4 L 1194.5 553.4 M 1308.7 553.4 L 1644.9 553.4 M 594.1 555.3 L 1194.5 555.3 M 1308.7 555.3 L 1641.9 555.3 M 594.1 557.3 L 1194.5 557.3 M 1308.7 557.3 L 1639 557.3 M 594.1 559.2 L 1194.5 559.2 M 1308.7 559.2 L 1636.1 559.2 M 594.1 561.2 L 1194.5 561.2 M 1308.7 561.2 L 1633.2 561.2 M 594.1 563.1 L 1194.5 563.1 M 1308.7 563.1 L 1630.3 563.1 M 594.1 565.1 L 1194.5 565.1 M 1308.7 565.1 L 1627.3 565.1 M 594.1 567 L 1194.5 567 M 1308.7 567 L 1624.4 567 M 594.1 569 L 1194.5 569 M 1308.7 569 L 1621.5 569 M 594.1 570.9 L 1194.5 570.9 M 1308.7 570.9 L 1618.6 570.9 M 594.1 572.9 L 1194.5 572.9 M 1308.7 572.9 L 1615.6 572.9 M 594.1 574.8 L 1194.5 574.8 M 1308.7 574.8 L 1612.7 574.8 M 594.1 576.8 L 1194.5 576.8 M 1308.7 576.8 L 1609.8 576.8 M 594.1 578.7 L 1194.5 578.7 M 1308.7 578.7 L 1606.9 578.7 M 594.1 580.7 L 1194.5 580.7 M 1308.6 580.7 L 1603.9 580.7 M 594.1 582.6 L 1194.8 582.6 M 1308.4 582.6 L 1601 582.6 M 594.1 584.6 L 1195.3 584.6 M 1307.9 584.6 L 1598.1 584.6 M 594.1 586.6 L 1196.1 586.6 M 1307.1 586.6 L 1595.2 586.6 M 594.1 588.5 L 1197.2 588.5 M 1306 588.5 L 1592.2 588.5 M 594.1 590.5 L 1198.7 590.5 M 1304.5 590.5 L 1589.3 590.5 M 594.1 592.4 L 1200.7 592.4 M 1302.5 592.4 L 1586.4 592.4 M 594.1 594.4 L 1203.7 594.4 M 1299.5 594.4 L 1583.4 594.4 M 594.1 596.3 L 1580.5 596.3 M 594.1 598.2 L 1577.6 598.2 M 594.1 600.2 L 1574.7 600.2 M 594.1 602.1 L 1571.8 602.1 M 594.1 604.1 L 1568.8 604.1 M 594.1 606 L 1565.9 606 M 594.1 608 L 1563 608 M 594.1 609.9 L 1560.1 609.9 M 594.1 611.9 L 1557.1 611.9 M 594.1 613.8 L 1554.2 613.8 M 594.1 615.8 L 1551.3 615.8 M 594.1 617.7 L 1548.4 617.7 M 594.1 619.7 L 1545.5 619.7 M 594.1 621.6 L 1542.5 621.6 M 594.1 623.6 L 1539.6 623.6 M 594.1 625.5 L 1536.7 625.5 M 594.1 627.5 L 1533.7 627.5 M 594.1 629.4 L 1530.8 629.4 M 594.1 631.4 L 1527.9 631.4 M 594.1 633.3 L 1524.9 633.3 M 594.1 635.3 L 1522 635.3 M 594.1 637.2 L 1519.1 637.2 M 594.1 639.2 L 1516.2 639.2 M 594.1 641.1 L 1513.2 641.1 M 594.1 643.1 L 1510.3 643.1 M 594.1 645 L 1507.4 645 M 594.1 647 L 1504.5 647 M 594.1 649 L 1501.6 649 M 594.1 650.9 L 1498.6 650.9 M 636.4 98.2 L 636.4 98.2 M 636.4 98.2 L 630.8 103.2 M 630.8 103.2 L 630.7 103.3 M 630.7 103.3 L 626.2 109.9 M 626.2 109.9 L 626.1 110 M 626.1 110 L 623.3 117.5 M 623.3 117.5 L 623.2 117.6 M 623.2 117.6 L 622.3 125.5 M 622.3 125.5 L 622.3 125.7 M 622.3 125.7 L 623.2 133.6 M 623.2 133.6 L 623.3 133.7 M 623.3 133.7 L 626.1 141.2 M 626.1 141.2 L 626.2 141.3 M 626.2 141.3 L 630.7 147.9 M 630.7 147.9 L 630.8 148 M 630.8 148 L 636.4 153 M 636.4 153 L 636.4 413.2 M 636.4 413.2 L 630.8 418.2 M 630.8 418.2 L 630.7 418.3 M 630.7 418.3 L 626.2 424.9 M 626.2 424.9 L 626.1 425 M 626.1 425 L 623.3 432.5 M 623.3 432.5 L 623.2 432.6 M 623.2 432.6 L 622.7 436.9 M 622.7 436.9 L 623.3 437.6 M 623.3 437.6 L 632.3 437.6 M 632.3 437.6 L 632.3 443.6 M 632.3 443.6 L 623.3 443.6 M 623.3 443.6 L 622.7 444.2 M 622.7 444.2 L 623.2 448.6 M 623.2 448.6 L 623.3 448.7 M 623.3 448.7 L 626.1 456.2 M 626.1 456.2 L 626.2 456.3 M 626.2 456.3 L 630.7 462.9 M 630.7 462.9 L 630.8 462.9 M 630.8 462.9 L 636.4 467.9 M 636.4 467.9 L 636.4 656.1 M 636.4 656.1 L 28.2 656.1 M 28.2 656.1 L 28.2 490.8 M 28.2 490.8 L 30.2 490.1 M 30.2 490.1 L 30.9 490.9 M 30.9 490.9 L 31 491 M 31 491 L 34.9 494.3 M 34.9 494.3 L 35 494.3 M 35 494.3 L 39.5 496.7 M 39.5 496.7 L 39.6 496.8 M 39.6 496.8 L 44.5 498.2 M 44.5 498.2 L 44.7 498.3 M 44.7 498.3 L 49.7 498.8 M 49.7 498.8 L 49.8 498.8 M 49.8 498.8 L 60 498.8 M 60 498.8 L 60.6 498.2 M 60.6 498.2 L 60.6 488.8 M 60.6 488.8 L 66.6 488.8 M 66.6 488.8 L 66.6 498.2 M 66.6 498.2 L 67.2 498.8 M 67.2 498.8 L 77.4 498.8 M 77.4 498.8 L 77.5 498.8 M 77.5 498.8 L 82.5 498.3 M 82.5 498.3 L 82.7 498.2 M 82.7 498.2 L 87.6 496.8 M 87.6 496.8 L 87.7 496.7 M 87.7 496.7 L 92.2 494.3 M 92.2 494.3 L 92.3 494.3 M 92.3 494.3 L 96.2 491 M 96.2 491 L 96.3 490.9 M 96.3 490.9 L 99.6 486.9 M 99.6 486.9 L 99.6 486.9 M 99.6 486.9 L 102 482.3 M 102 482.3 L 102.1 482.3 M 102.1 482.3 L 103.6 477.3 M 103.6 477.3 L 103.6 477.2 M 103.6 477.2 L 103.8 475.7 M 103.8 475.7 L 103.1 475.1 M 103.1 475.1 L 94.1 475.1 M 94.1 475.1 L 94.1 469.1 M 94.1 469.1 L 103.1 469.1 M 103.1 469.1 L 103.8 468.4 M 103.8 468.4 L 103.6 466.9 M 103.6 466.9 L 103.6 466.8 M 103.6 466.8 L 102.1 461.9 M 102.1 461.9 L 102 461.8 M 102 461.8 L 99.6 457.3 M 99.6 457.3 L 99.6 457.2 M 99.6 457.2 L 96.3 453.2 M 96.3 453.2 L 96.2 453.1 M 96.2 453.1 L 92.3 449.9 M 92.3 449.9 L 92.2 449.8 M 92.2 449.8 L 87.7 447.4 M 87.7 447.4 L 87.6 447.4 M 87.6 447.4 L 82.7 445.9 M 82.7 445.9 L 82.5 445.8 M 82.5 445.8 L 77.5 445.3 M 77.5 445.3 L 77.4 445.3 M 77.4 445.3 L 67.2 445.3 M 67.2 445.3 L 66.6 445.9 M 66.6 445.9 L 66.6 455.3 M 66.6 455.3 L 60.6 455.3 M 60.6 455.3 L 60.6 445.9 M 60.6 445.9 L 60 445.3 M 60 445.3 L 49.8 445.3 M 49.8 445.3 L 49.7 445.3 M 49.7 445.3 L 44.7 445.8 M 44.7 445.8 L 44.5 445.9 M 44.5 445.9 L 39.6 447.4 M 39.6 447.4 L 39.5 447.4 M 39.5 447.4 L 35 449.8 M 35 449.8 L 34.9 449.9 M 34.9 449.9 L 31 453.1 M 31 453.1 L 30.9 453.2 M 30.9 453.2 L 30.2 454.1 M 30.2 454.1 L 28.2 453.4 M 28.2 453.4 L 28.2 230.9 M 28.2 230.9 L 30.2 230.2 M 30.2 230.2 L 30.9 231.1 M 30.9 231.1 L 31 231.2 M 31 231.2 L 34.9 234.4 M 34.9 234.4 L 35 234.5 M 35 234.5 L 39.5 236.9 M 39.5 236.9 L 39.6 236.9 M 39.6 236.9 L 44.5 238.4 M 44.5 238.4 L 44.7 238.4 M 44.7 238.4 L 49.7 239 M 49.7 239 L 49.8 239 M 49.8 239 L 60 239 M 60 239 L 60.6 238.4 M 60.6 238.4 L 60.6 229 M 60.6 229 L 66.6 229 M 66.6 229 L 66.6 238.4 M 66.6 238.4 L 67.2 239 M 67.2 239 L 77.4 239 M 77.4 239 L 77.5 239 M 77.5 239 L 82.5 238.4 M 82.5 238.4 L 82.7 238.4 M 82.7 238.4 L 87.6 236.9 M 87.6 236.9 L 87.7 236.9 M 87.7 236.9 L 92.2 234.5 M 92.2 234.5 L 92.3 234.4 M 92.3 234.4 L 96.2 231.2 M 96.2 231.2 L 96.3 231.1 M 96.3 231.1 L 99.6 227.1 M 99.6 227.1 L 99.6 227 M 99.6 227 L 102 222.5 M 102 222.5 L 102.1 222.4 M 102.1 222.4 L 103.6 217.5 M 103.6 217.5 L 103.6 217.4 M 103.6 217.4 L 103.8 215.9 M 103.8 215.9 L 103.1 215.2 M 103.1 215.2 L 94.1 215.2 M 94.1 215.2 L 94.1 209.2 M 94.1 209.2 L 103.1 209.2 M 103.1 209.2 L 103.8 208.6 M 103.8 208.6 L 103.6 207.1 M 103.6 207.1 L 103.6 206.9 M 103.6 206.9 L 102.1 202 M 102.1 202 L 102 201.9 M 102 201.9 L 99.6 197.4 M 99.6 197.4 L 99.6 197.3 M 99.6 197.3 L 96.3 193.4 M 96.3 193.4 L 96.2 193.3 M 96.2 193.3 L 92.3 190 M 92.3 190 L 92.2 190 M 92.2 190 L 87.7 187.6 M 87.7 187.6 L 87.6 187.5 M 87.6 187.5 L 82.7 186 M 82.7 186 L 82.5 186 M 82.5 186 L 77.5 185.5 M 77.5 185.5 L 77.4 185.5 M 77.4 185.5 L 67.2 185.5 M 67.2 185.5 L 66.6 186.1 M 66.6 186.1 L 66.6 195.5 M 66.6 195.5 L 60.6 195.5 M 60.6 195.5 L 60.6 186.1 M 60.6 186.1 L 60 185.5 M 60 185.5 L 49.8 185.5 M 49.8 185.5 L 49.7 185.5 M 49.7 185.5 L 44.7 186 M 44.7 186 L 44.5 186 M 44.5 186 L 39.6 187.5 M 39.6 187.5 L 39.5 187.6 M 39.5 187.6 L 35 190 M 35 190 L 34.9 190 M 34.9 190 L 31 193.3 M 31 193.3 L 30.9 193.4 M 30.9 193.4 L 30.2 194.2 M 30.2 194.2 L 28.2 193.5 M 28.2 193.5 L 28.2 28.2 M 28.2 28.2 L 636.4 28.2 M 636.4 28.2 L 636.4 98.2 M 380.6 406.9 L 380.6 406.9 M 380.6 406.9 L 381.9 407 M 381.9 407 L 382 407 M 382 407 L 383.3 407.3 M 383.3 407.3 L 383.4 407.4 M 383.4 407.4 L 384.6 407.9 M 384.6 407.9 L 384.7 407.9 M 384.7 407.9 L 385.8 408.6 M 385.8 408.6 L 385.9 408.7 M 385.9 408.7 L 386.9 409.5 M 386.9 409.5 L 386.9 409.6 M 386.9 409.6 L 387.8 410.6 M 387.8 410.6 L 387.9 410.7 M 387.9 410.7 L 388.6 411.8 M 388.6 411.8 L 388.6 411.9 M 388.6 411.9 L 389.1 413.1 M 389.1 413.1 L 389.2 413.2 M 389.2 413.2 L 389.5 414.5 M 389.5 414.5 L 389.5 414.6 M 389.5 414.6 L 389.6 415.9 M 389.6 415.9 L 389.6 416 M 389.6 416 L 389.6 465.2 M 389.6 465.2 L 389.6 465.2 M 389.6 465.2 L 389.5 466.6 M 389.5 466.6 L 389.5 466.6 M 389.5 466.6 L 389.2 467.9 M 389.2 467.9 L 389.1 468 M 389.1 468 L 388.6 469.2 M 388.6 469.2 L 388.6 469.3 M 388.6 469.3 L 387.9 470.5 M 387.9 470.5 L 387.8 470.5 M 387.8 470.5 L 386.9 471.6 M 386.9 471.6 L 386.9 471.6 M 386.9 471.6 L 385.9 472.5 M 385.9 472.5 L 385.8 472.5 M 385.8 472.5 L 384.7 473.2 M 384.7 473.2 L 384.6 473.2 M 384.6 473.2 L 383.4 473.8 M 383.4 473.8 L 383.3 473.8 M 383.3 473.8 L 382 474.1 M 382 474.1 L 381.9 474.1 M 381.9 474.1 L 380.6 474.2 M 380.6 474.2 L 380.5 474.2 M 380.5 474.2 L 331.3 474.2 M 331.3 474.2 L 331.3 474.2 M 331.3 474.2 L 329.9 474.1 M 329.9 474.1 L 329.9 474.1 M 329.9 474.1 L 328.6 473.8 M 328.6 473.8 L 328.5 473.8 M 328.5 473.8 L 327.3 473.2 M 327.3 473.2 L 327.2 473.2 M 327.2 473.2 L 326 472.5 M 326 472.5 L 326 472.5 M 326 472.5 L 324.9 471.6 M 324.9 471.6 L 324.9 471.6 M 324.9 471.6 L 324 470.5 M 324 470.5 L 324 470.5 M 324 470.5 L 323.3 469.3 M 323.3 469.3 L 323.2 469.2 M 323.2 469.2 L 322.7 468 M 322.7 468 L 322.7 467.9 M 322.7 467.9 L 322.4 466.6 M 322.4 466.6 L 322.4 466.6 M 322.4 466.6 L 322.3 465.3 M 322.3 465.3 L 322.3 465.2 M 322.3 465.2 L 322.3 415.9 M 322.3 415.9 L 322.3 415.9 M 322.3 415.9 L 322.4 414.6 M 322.4 414.6 L 322.4 414.5 M 322.4 414.5 L 322.7 413.2 M 322.7 413.2 L 322.7 413.1 M 322.7 413.1 L 323.2 411.9 M 323.2 411.9 L 323.3 411.8 M 323.3 411.8 L 324 410.7 M 324 410.7 L 324 410.6 M 324 410.6 L 324.9 409.6 M 324.9 409.6 L 324.9 409.5 M 324.9 409.5 L 326 408.7 M 326 408.7 L 326 408.6 M 326 408.6 L 327.2 407.9 M 327.2 407.9 L 327.3 407.9 M 327.3 407.9 L 328.5 407.4 M 328.5 407.4 L 328.6 407.3 M 328.6 407.3 L 329.9 407 M 329.9 407 L 329.9 407 M 329.9 407 L 331.2 406.9 M 331.2 406.9 L 331.3 406.9 M 331.3 406.9 L 380.6 406.9 M 380.6 406.9 L 380.6 406.9 M 467.8 409.1 L 467.8 409.1 M 467.8 409.1 L 467.9 409.1 M 467.9 409.1 L 475 412.9 M 475 412.9 L 475.1 412.9 M 475.1 412.9 L 481.1 418.2 M 481.1 418.2 L 481.2 418.3 M 481.2 418.3 L 485.7 424.9 M 485.7 424.9 L 485.7 425 M 485.7 425 L 488.6 432.5 M 488.6 432.5 L 488.6 432.6 M 488.6 432.6 L 489.1 436.9 M 489.1 436.9 L 488.5 437.6 M 488.5 437.6 L 479.5 437.6 M 479.5 437.6 L 479.5 443.6 M 479.5 443.6 L 488.5 443.6 M 488.5 443.6 L 489.1 444.2 M 489.1 444.2 L 488.6 448.6 M 488.6 448.6 L 488.6 448.7 M 488.6 448.7 L 485.7 456.2 M 485.7 456.2 L 485.7 456.3 M 485.7 456.3 L 481.2 462.9 M 481.2 462.9 L 481.1 462.9 M 481.1 462.9 L 475.1 468.2 M 475.1 468.2 L 475 468.3 M 475 468.3 L 467.9 472 M 467.9 472 L 467.8 472.1 M 467.8 472.1 L 459.7 474 M 459.7 474 L 458.9 473.4 M 458.9 473.4 L 458.9 464 M 458.9 464 L 452.9 464 M 452.9 464 L 452.9 473.4 M 452.9 473.4 L 452.1 474 M 452.1 474 L 444 472.1 M 444 472.1 L 444 472 M 444 472 L 436.9 468.3 M 436.9 468.3 L 436.8 468.2 M 436.8 468.2 L 430.8 462.9 M 430.8 462.9 L 430.7 462.9 M 430.7 462.9 L 426.2 456.3 M 426.2 456.3 L 426.1 456.2 M 426.1 456.2 L 423.3 448.7 M 423.3 448.7 L 423.2 448.6 M 423.2 448.6 L 422.7 444.2 M 422.7 444.2 L 423.3 443.6 M 423.3 443.6 L 432.3 443.6 M 432.3 443.6 L 432.3 437.6 M 432.3 437.6 L 423.3 437.6 M 423.3 437.6 L 422.7 436.9 M 422.7 436.9 L 423.2 432.6 M 423.2 432.6 L 423.3 432.5 M 423.3 432.5 L 426.1 425 M 426.1 425 L 426.2 424.9 M 426.2 424.9 L 430.7 418.3 M 430.7 418.3 L 430.8 418.2 M 430.8 418.2 L 436.8 412.9 M 436.8 412.9 L 436.9 412.9 M 436.9 412.9 L 444 409.1 M 444 409.1 L 444 409.1 M 444 409.1 L 452.1 407.1 M 452.1 407.1 L 452.9 407.7 M 452.9 407.7 L 452.9 417.1 M 452.9 417.1 L 458.9 417.1 M 458.9 417.1 L 458.9 407.7 M 458.9 407.7 L 459.7 407.1 M 459.7 407.1 L 467.8 409.1 M 380.6 91.9 L 380.6 91.9 M 380.6 91.9 L 381.9 92.1 M 381.9 92.1 L 382 92.1 M 382 92.1 L 383.3 92.4 M 383.3 92.4 L 383.4 92.4 M 383.4 92.4 L 384.6 92.9 M 384.6 92.9 L 384.7 93 M 384.7 93 L 385.8 93.7 M 385.8 93.7 L 385.9 93.7 M 385.9 93.7 L 386.9 94.6 M 386.9 94.6 L 386.9 94.6 M 386.9 94.6 L 387.8 95.6 M 387.8 95.6 L 387.9 95.7 M 387.9 95.7 L 388.6 96.9 M 388.6 96.9 L 388.6 96.9 M 388.6 96.9 L 389.1 98.2 M 389.1 98.2 L 389.2 98.2 M 389.2 98.2 L 389.5 99.5 M 389.5 99.5 L 389.5 99.6 M 389.5 99.6 L 389.6 101 M 389.6 101 L 389.6 101 M 389.6 101 L 389.6 150.2 M 389.6 150.2 L 389.6 150.3 M 389.6 150.3 L 389.5 151.6 M 389.5 151.6 L 389.5 151.7 M 389.5 151.7 L 389.2 153 M 389.2 153 L 389.1 153.1 M 389.1 153.1 L 388.6 154.3 M 388.6 154.3 L 388.6 154.4 M 388.6 154.4 L 387.9 155.5 M 387.9 155.5 L 387.8 155.6 M 387.8 155.6 L 386.9 156.6 M 386.9 156.6 L 386.9 156.6 M 386.9 156.6 L 385.9 157.5 M 385.9 157.5 L 385.8 157.5 M 385.8 157.5 L 384.7 158.2 M 384.7 158.2 L 384.6 158.3 M 384.6 158.3 L 383.4 158.8 M 383.4 158.8 L 383.3 158.8 M 383.3 158.8 L 382 159.2 M 382 159.2 L 381.9 159.2 M 381.9 159.2 L 380.6 159.3 M 380.6 159.3 L 380.5 159.3 M 380.5 159.3 L 331.3 159.3 M 331.3 159.3 L 331.3 159.3 M 331.3 159.3 L 329.9 159.2 M 329.9 159.2 L 329.9 159.2 M 329.9 159.2 L 328.6 158.8 M 328.6 158.8 L 328.5 158.8 M 328.5 158.8 L 327.3 158.3 M 327.3 158.3 L 327.2 158.2 M 327.2 158.2 L 326 157.5 M 326 157.5 L 326 157.5 M 326 157.5 L 324.9 156.6 M 324.9 156.6 L 324.9 156.6 M 324.9 156.6 L 324 155.6 M 324 155.6 L 324 155.5 M 324 155.5 L 323.3 154.4 M 323.3 154.4 L 323.2 154.3 M 323.2 154.3 L 322.7 153.1 M 322.7 153.1 L 322.7 153 M 322.7 153 L 322.4 151.7 M 322.4 151.7 L 322.4 151.6 M 322.4 151.6 L 322.3 150.3 M 322.3 150.3 L 322.3 150.3 M 322.3 150.3 L 322.3 101 M 322.3 101 L 322.3 100.9 M 322.3 100.9 L 322.4 99.6 M 322.4 99.6 L 322.4 99.5 M 322.4 99.5 L 322.7 98.2 M 322.7 98.2 L 322.7 98.2 M 322.7 98.2 L 323.2 96.9 M 323.2 96.9 L 323.3 96.9 M 323.3 96.9 L 324 95.7 M 324 95.7 L 324 95.6 M 324 95.6 L 324.9 94.6 M 324.9 94.6 L 324.9 94.6 M 324.9 94.6 L 326 93.7 M 326 93.7 L 326 93.7 M 326 93.7 L 327.2 93 M 327.2 93 L 327.3 92.9 M 327.3 92.9 L 328.5 92.4 M 328.5 92.4 L 328.6 92.4 M 328.6 92.4 L 329.9 92.1 M 329.9 92.1 L 329.9 92.1 M 329.9 92.1 L 331.2 91.9 M 331.2 91.9 L 331.3 91.9 M 331.3 91.9 L 380.6 91.9 M 380.6 91.9 L 380.6 91.9 M 467.8 94.1 L 467.8 94.1 M 467.8 94.1 L 467.9 94.2 M 467.9 94.2 L 475 97.9 M 475 97.9 L 475.1 98 M 475.1 98 L 481.1 103.2 M 481.1 103.2 L 481.2 103.3 M 481.2 103.3 L 485.7 109.9 M 485.7 109.9 L 485.7 110 M 485.7 110 L 488.6 117.5 M 488.6 117.5 L 488.6 117.6 M 488.6 117.6 L 489.6 125.5 M 489.6 125.5 L 489.6 125.7 M 489.6 125.7 L 488.6 133.6 M 488.6 133.6 L 488.6 133.7 M 488.6 133.7 L 485.7 141.2 M 485.7 141.2 L 485.7 141.3 M 485.7 141.3 L 481.2 147.9 M 481.2 147.9 L 481.1 148 M 481.1 148 L 475.1 153.2 M 475.1 153.2 L 475 153.3 M 475 153.3 L 467.9 157.1 M 467.9 157.1 L 467.8 157.1 M 467.8 157.1 L 459.7 159.1 M 459.7 159.1 L 458.9 158.5 M 458.9 158.5 L 458.9 149 M 458.9 149 L 452.9 149 M 452.9 149 L 452.9 158.5 M 452.9 158.5 L 452.1 159.1 M 452.1 159.1 L 444 157.1 M 444 157.1 L 444 157.1 M 444 157.1 L 436.9 153.3 M 436.9 153.3 L 436.8 153.2 M 436.8 153.2 L 430.8 148 M 430.8 148 L 430.7 147.9 M 430.7 147.9 L 426.2 141.3 M 426.2 141.3 L 426.1 141.2 M 426.1 141.2 L 423.3 133.7 M 423.3 133.7 L 423.2 133.6 M 423.2 133.6 L 422.7 129.3 M 422.7 129.3 L 423.3 128.6 M 423.3 128.6 L 432.3 128.6 M 432.3 128.6 L 432.3 122.6 M 432.3 122.6 L 423.3 122.6 M 423.3 122.6 L 422.7 121.9 M 422.7 121.9 L 423.2 117.6 M 423.2 117.6 L 423.3 117.5 M 423.3 117.5 L 426.1 110 M 426.1 110 L 426.2 109.9 M 426.2 109.9 L 430.7 103.3 M 430.7 103.3 L 430.8 103.2 M 430.8 103.2 L 436.8 98 M 436.8 98 L 436.9 97.9 M 436.9 97.9 L 444 94.2 M 444 94.2 L 444 94.1 M 444 94.1 L 452.1 92.1 M 452.1 92.1 L 452.9 92.7 M 452.9 92.7 L 452.9 102.2 M 452.9 102.2 L 458.9 102.2 M 458.9 102.2 L 458.9 92.7 M 458.9 92.7 L 459.7 92.1 M 459.7 92.1 L 467.8 94.1 M 28.2 29.2 L 636.4 29.2 M 28.2 31.1 L 636.4 31.1 M 28.2 33.1 L 636.4 33.1 M 28.2 35 L 636.4 35 M 28.2 36.9 L 636.4 36.9 M 28.2 38.9 L 636.4 38.9 M 28.2 40.8 L 636.4 40.8 M 28.2 42.8 L 636.4 42.8 M 28.2 44.7 L 636.4 44.7 M 28.2 46.7 L 636.4 46.7 M 28.2 48.6 L 636.4 48.6 M 28.2 50.6 L 636.4 50.6 M 28.2 52.5 L 636.4 52.5 M 28.2 54.5 L 636.4 54.5 M 28.2 56.4 L 636.4 56.4 M 28.2 58.4 L 636.4 58.4 M 28.2 60.3 L 636.4 60.3 M 28.2 62.3 L 636.4 62.3 M 28.2 64.2 L 636.4 64.2 M 28.2 66.2 L 636.4 66.2 M 28.2 68.1 L 636.4 68.1 M 28.2 70.1 L 636.4 70.1 M 28.2 72 L 636.4 72 M 28.2 74 L 636.4 74 M 28.2 75.9 L 636.4 75.9 M 28.2 77.9 L 636.4 77.9 M 28.2 79.8 L 636.4 79.8 M 28.2 81.8 L 636.4 81.8 M 28.2 83.7 L 636.4 83.7 M 28.2 85.7 L 636.4 85.7 M 28.2 87.6 L 636.4 87.6 M 28.2 89.6 L 636.4 89.6 M 28.2 91.5 L 636.4 91.5 M 28.2 93.5 L 326.3 93.5 M 385.5 93.5 L 446.7 93.5 M 452.9 93.5 L 458.9 93.5 M 465.2 93.5 L 636.4 93.5 M 28.2 95.5 L 324.2 95.5 M 387.6 95.5 L 441.5 95.5 M 452.9 95.5 L 458.9 95.5 M 470.3 95.5 L 636.4 95.5 M 28.2 97.4 L 323.1 97.4 M 388.8 97.4 L 437.8 97.4 M 452.9 97.4 L 458.9 97.4 M 474 97.4 L 636.4 97.4 M 28.2 99.4 L 322.5 99.4 M 389.4 99.4 L 435.2 99.4 M 452.9 99.4 L 458.9 99.4 M 476.6 99.4 L 635.2 99.4 M 28.2 101.3 L 322.3 101.3 M 389.6 101.3 L 433 101.3 M 452.9 101.3 L 458.9 101.3 M 478.8 101.3 L 633 101.3 M 28.2 103.2 L 322.3 103.2 M 389.6 103.2 L 430.8 103.2 M 481 103.2 L 630.8 103.2 M 28.2 105.2 L 322.3 105.2 M 389.6 105.2 L 429.4 105.2 M 482.4 105.2 L 629.4 105.2 M 28.2 107.1 L 322.3 107.1 M 389.6 107.1 L 428.1 107.1 M 483.8 107.1 L 628.1 107.1 M 28.2 109.1 L 322.3 109.1 M 389.6 109.1 L 426.8 109.1 M 485.1 109.1 L 626.8 109.1 M 28.2 111 L 322.3 111 M 389.6 111 L 425.7 111 M 486.1 111 L 625.7 111 M 28.2 113 L 322.3 113 M 389.6 113 L 425 113 M 486.9 113 L 625 113 M 28.2 114.9 L 322.3 114.9 M 389.6 114.9 L 424.2 114.9 M 487.6 114.9 L 624.2 114.9 M 28.2 116.9 L 322.3 116.9 M 389.6 116.9 L 423.5 116.9 M 488.3 116.9 L 623.5 116.9 M 28.2 118.8 L 322.3 118.8 M 389.6 118.8 L 423.1 118.8 M 488.8 118.8 L 623.1 118.8 M 28.2 120.8 L 322.3 120.8 M 389.6 120.8 L 422.9 120.8 M 489 120.8 L 622.9 120.8 M 28.2 122.7 L 322.3 122.7 M 389.6 122.7 L 432.3 122.7 M 489.2 122.7 L 622.6 122.7 M 28.2 124.7 L 322.3 124.7 M 389.6 124.7 L 432.3 124.7 M 489.5 124.7 L 622.4 124.7 M 28.2 126.6 L 322.3 126.6 M 389.6 126.6 L 432.3 126.6 M 489.5 126.6 L 622.4 126.6 M 28.2 128.6 L 322.3 128.6 M 389.6 128.6 L 432.3 128.6 M 489.2 128.6 L 622.6 128.6 M 28.2 130.5 L 322.3 130.5 M 389.6 130.5 L 422.9 130.5 M 489 130.5 L 622.9 130.5 M 28.2 132.5 L 322.3 132.5 M 389.6 132.5 L 423.1 132.5 M 488.8 132.5 L 623.1 132.5 M 28.2 134.4 L 322.3 134.4 M 389.6 134.4 L 423.5 134.4 M 488.3 134.4 L 623.5 134.4 M 28.2 136.4 L 322.3 136.4 M 389.6 136.4 L 424.3 136.4 M 487.6 136.4 L 624.3 136.4 M 28.2 138.3 L 322.3 138.3 M 389.6 138.3 L 425 138.3 M 486.8 138.3 L 625 138.3 M 28.2 140.3 L 322.3 140.3 M 389.6 140.3 L 425.8 140.3 M 486.1 140.3 L 625.8 140.3 M 28.2 142.2 L 322.3 142.2 M 389.6 142.2 L 426.8 142.2 M 485.1 142.2 L 626.8 142.2 M 28.2 144.2 L 322.3 144.2 M 389.6 144.2 L 428.2 144.2 M 483.7 144.2 L 628.2 144.2 M 28.2 146.1 L 322.3 146.1 M 389.6 146.1 L 429.5 146.1 M 482.3 146.1 L 629.5 146.1 M 28.2 148.1 L 322.3 148.1 M 389.6 148.1 L 430.9 148.1 M 480.9 148.1 L 630.9 148.1 M 28.2 150 L 322.3 150 M 389.6 150 L 433.1 150 M 452.9 150 L 458.9 150 M 478.7 150 L 633.1 150 M 28.2 152 L 322.5 152 M 389.4 152 L 435.3 152 M 452.9 152 L 458.9 152 M 476.5 152 L 635.3 152 M 28.2 153.9 L 323.1 153.9 M 388.8 153.9 L 438 153.9 M 452.9 153.9 L 458.9 153.9 M 473.8 153.9 L 636.4 153.9 M 28.2 155.9 L 324.3 155.9 M 387.5 155.9 L 441.7 155.9 M 452.9 155.9 L 458.9 155.9 M 470.1 155.9 L 636.4 155.9 M 28.2 157.9 L 326.5 157.9 M 385.3 157.9 L 447.1 157.9 M 452.9 157.9 L 458.9 157.9 M 464.8 157.9 L 636.4 157.9 M 28.2 159.8 L 636.4 159.8 M 28.2 161.8 L 636.4 161.8 M 28.2 163.7 L 636.4 163.7 M 28.2 165.6 L 636.4 165.6 M 28.2 167.6 L 636.4 167.6 M 28.2 169.5 L 636.4 169.5 M 28.2 171.5 L 636.4 171.5 M 28.2 173.4 L 636.4 173.4 M 28.2 175.4 L 636.4 175.4 M 28.2 177.3 L 636.4 177.3 M 28.2 179.3 L 636.4 179.3 M 28.2 181.2 L 636.4 181.2 M 28.2 183.2 L 636.4 183.2 M 28.2 185.1 L 636.4 185.1 M 28.2 187.1 L 41.1 187.1 M 60.6 187.1 L 66.6 187.1 M 86.1 187.1 L 636.4 187.1 M 28.2 189 L 36.8 189 M 60.6 189 L 66.6 189 M 90.4 189 L 636.4 189 M 28.2 191 L 33.8 191 M 60.6 191 L 66.6 191 M 93.4 191 L 636.4 191 M 28.2 192.9 L 31.4 192.9 M 60.6 192.9 L 66.6 192.9 M 95.8 192.9 L 636.4 192.9 M 60.6 194.9 L 66.6 194.9 M 97.5 194.9 L 636.4 194.9 M 99.2 196.8 L 636.4 196.8 M 100.3 198.8 L 636.4 198.8 M 101.4 200.7 L 636.4 200.7 M 102.3 202.7 L 636.4 202.7 M 102.9 204.6 L 636.4 204.6 M 103.4 206.6 L 636.4 206.6 M 103.7 208.5 L 636.4 208.5 M 94.1 210.5 L 636.4 210.5 M 94.1 212.4 L 636.4 212.4 M 94.1 214.4 L 636.4 214.4 M 103.7 216.3 L 636.4 216.3 M 103.3 218.3 L 636.4 218.3 M 102.7 220.2 L 636.4 220.2 M 102.1 222.2 L 636.4 222.2 M 101.2 224.2 L 636.4 224.2 M 100.1 226.1 L 636.4 226.1 M 98.8 228.1 L 636.4 228.1 M 60.6 230 L 66.6 230 M 97.2 230 L 636.4 230 M 28.2 231.9 L 31.9 231.9 M 60.6 231.9 L 66.6 231.9 M 95.3 231.9 L 636.4 231.9 M 28.2 233.9 L 34.3 233.9 M 60.6 233.9 L 66.6 233.9 M 92.9 233.9 L 636.4 233.9 M 28.2 235.8 L 37.6 235.8 M 60.6 235.8 L 66.6 235.8 M 89.6 235.8 L 636.4 235.8 M 28.2 237.8 L 42.5 237.8 M 60.6 237.8 L 66.6 237.8 M 84.7 237.8 L 636.4 237.8 M 28.2 239.7 L 636.4 239.7 M 28.2 241.7 L 636.4 241.7 M 28.2 243.6 L 636.4 243.6 M 28.2 245.6 L 636.4 245.6 M 28.2 247.5 L 636.4 247.5 M 28.2 249.5 L 636.4 249.5 M 28.2 251.4 L 636.4 251.4 M 28.2 253.4 L 636.4 253.4 M 28.2 255.3 L 636.4 255.3 M 28.2 257.3 L 636.4 257.3 M 28.2 259.2 L 636.4 259.2 M 28.2 261.2 L 636.4 261.2 M 28.2 263.1 L 636.4 263.1 M 28.2 265.1 L 636.4 265.1 M 28.2 267 L 636.4 267 M 28.2 269 L 636.4 269 M 28.2 270.9 L 636.4 270.9 M 28.2 272.9 L 636.4 272.9 M 28.2 274.8 L 636.4 274.8 M 28.2 276.8 L 636.4 276.8 M 28.2 278.7 L 636.4 278.7 M 28.2 280.7 L 636.4 280.7 M 28.2 282.6 L 636.4 282.6 M 28.2 284.6 L 636.4 284.6 M 28.2 286.5 L 636.4 286.5 M 28.2 288.5 L 636.4 288.5 M 28.2 290.5 L 636.4 290.5 M 28.2 292.4 L 636.4 292.4 M 28.2 294.4 L 636.4 294.4 M 28.2 296.3 L 636.4 296.3 M 28.2 298.2 L 636.4 298.2 M 28.2 300.2 L 636.4 300.2 M 28.2 302.1 L 636.4 302.1 M 28.2 304.1 L 636.4 304.1 M 28.2 306 L 636.4 306 M 28.2 308 L 636.4 308 M 28.2 309.9 L 636.4 309.9 M 28.2 311.9 L 636.4 311.9 M 28.2 313.8 L 636.4 313.8 M 28.2 315.8 L 636.4 315.8 M 28.2 317.7 L 636.4 317.7 M 28.2 319.7 L 636.4 319.7 M 28.2 321.6 L 636.4 321.6 M 28.2 323.6 L 636.4 323.6 M 28.2 325.5 L 636.4 325.5 M 28.2 327.5 L 636.4 327.5 M 28.2 329.4 L 636.4 329.4 M 28.2 331.4 L 636.4 331.4 M 28.2 333.3 L 636.4 333.3 M 28.2 335.3 L 636.4 335.3 M 28.2 337.2 L 636.4 337.2 M 28.2 339.2 L 636.4 339.2 M 28.2 341.1 L 636.4 341.1 M 28.2 343.1 L 636.4 343.1 M 28.2 345 L 636.4 345 M 28.2 347 L 636.4 347 M 28.2 348.9 L 636.4 348.9 M 28.2 350.9 L 636.4 350.9 M 28.2 352.9 L 636.4 352.9 M 28.2 354.8 L 636.4 354.8 M 28.2 356.8 L 636.4 356.8 M 28.2 358.7 L 636.4 358.7 M 28.2 360.6 L 636.4 360.6 M 28.2 362.6 L 636.4 362.6 M 28.2 364.5 L 636.4 364.5 M 28.2 366.5 L 636.4 366.5 M 28.2 368.4 L 636.4 368.4 M 28.2 370.4 L 636.4 370.4 M 28.2 372.3 L 636.4 372.3 M 28.2 374.3 L 636.4 374.3 M 28.2 376.2 L 636.4 376.2 M 28.2 378.2 L 636.4 378.2 M 28.2 380.1 L 636.4 380.1 M 28.2 382.1 L 636.4 382.1 M 28.2 384 L 636.4 384 M 28.2 386 L 636.4 386 M 28.2 387.9 L 636.4 387.9 M 28.2 389.9 L 636.4 389.9 M 28.2 391.8 L 636.4 391.8 M 28.2 393.8 L 636.4 393.8 M 28.2 395.7 L 636.4 395.7 M 28.2 397.7 L 636.4 397.7 M 28.2 399.6 L 636.4 399.6 M 28.2 401.6 L 636.4 401.6 M 28.2 403.5 L 636.4 403.5 M 28.2 405.5 L 636.4 405.5 M 28.2 407.4 L 328.4 407.4 M 383.5 407.4 L 450.8 407.4 M 452.6 407.4 L 459.3 407.4 M 461.1 407.4 L 636.4 407.4 M 28.2 409.4 L 325.1 409.4 M 386.7 409.4 L 443.4 409.4 M 452.9 409.4 L 458.9 409.4 M 468.4 409.4 L 636.4 409.4 M 28.2 411.3 L 323.6 411.3 M 388.2 411.3 L 439.7 411.3 M 452.9 411.3 L 458.9 411.3 M 472.1 411.3 L 636.4 411.3 M 28.2 413.3 L 322.7 413.3 M 389.2 413.3 L 436.4 413.3 M 452.9 413.3 L 458.9 413.3 M 475.5 413.3 L 636.4 413.3 M 28.2 415.2 L 322.3 415.2 M 389.5 415.2 L 434.2 415.2 M 452.9 415.2 L 458.9 415.2 M 477.7 415.2 L 634.2 415.2 M 28.2 417.2 L 322.3 417.2 M 389.6 417.2 L 431.9 417.2 M 479.9 417.2 L 631.9 417.2 M 28.2 419.2 L 322.3 419.2 M 389.6 419.2 L 430.1 419.2 M 481.7 419.2 L 630.1 419.2 M 28.2 421.1 L 322.3 421.1 M 389.6 421.1 L 428.8 421.1 M 483.1 421.1 L 628.8 421.1 M 28.2 423.1 L 322.3 423.1 M 389.6 423.1 L 427.4 423.1 M 484.4 423.1 L 627.4 423.1 M 28.2 425 L 322.3 425 M 389.6 425 L 426.1 425 M 485.7 425 L 626.1 425 M 28.2 426.9 L 322.3 426.9 M 389.6 426.9 L 425.4 426.9 M 486.5 426.9 L 625.4 426.9 M 28.2 428.9 L 322.3 428.9 M 389.6 428.9 L 424.6 428.9 M 487.2 428.9 L 624.6 428.9 M 28.2 430.8 L 322.3 430.8 M 389.6 430.8 L 423.9 430.8 M 488 430.8 L 623.9 430.8 M 28.2 432.8 L 322.3 432.8 M 389.6 432.8 L 423.2 432.8 M 488.6 432.8 L 623.2 432.8 M 28.2 434.7 L 322.3 434.7 M 389.6 434.7 L 423 434.7 M 488.9 434.7 L 623 434.7 M 28.2 436.7 L 322.3 436.7 M 389.6 436.7 L 422.7 436.7 M 489.1 436.7 L 622.7 436.7 M 28.2 438.6 L 322.3 438.6 M 389.6 438.6 L 432.3 438.6 M 479.5 438.6 L 632.3 438.6 M 28.2 440.6 L 322.3 440.6 M 389.6 440.6 L 432.3 440.6 M 479.5 440.6 L 632.3 440.6 M 28.2 442.5 L 322.3 442.5 M 389.6 442.5 L 432.3 442.5 M 479.5 442.5 L 632.3 442.5 M 28.2 444.5 L 322.3 444.5 M 389.6 444.5 L 422.7 444.5 M 489.1 444.5 L 622.7 444.5 M 28.2 446.4 L 42.7 446.4 M 60.6 446.4 L 66.6 446.4 M 84.5 446.4 L 322.3 446.4 M 389.6 446.4 L 423 446.4 M 488.9 446.4 L 623 446.4 M 28.2 448.4 L 37.7 448.4 M 60.6 448.4 L 66.6 448.4 M 89.5 448.4 L 322.3 448.4 M 389.6 448.4 L 423.2 448.4 M 488.6 448.4 L 623.2 448.4 M 28.2 450.3 L 34.4 450.3 M 60.6 450.3 L 66.6 450.3 M 92.8 450.3 L 322.3 450.3 M 389.6 450.3 L 423.9 450.3 M 487.9 450.3 L 623.9 450.3 M 28.2 452.3 L 32 452.3 M 60.6 452.3 L 66.6 452.3 M 95.2 452.3 L 322.3 452.3 M 389.6 452.3 L 424.6 452.3 M 487.2 452.3 L 624.6 452.3 M 60.6 454.2 L 66.6 454.2 M 97.1 454.2 L 322.3 454.2 M 389.6 454.2 L 425.4 454.2 M 486.5 454.2 L 625.4 454.2 M 98.8 456.2 L 322.3 456.2 M 389.6 456.2 L 426.1 456.2 M 485.7 456.2 L 626.1 456.2 M 100.1 458.1 L 322.3 458.1 M 389.6 458.1 L 427.5 458.1 M 484.4 458.1 L 627.5 458.1 M 101.1 460.1 L 322.3 460.1 M 389.6 460.1 L 428.8 460.1 M 483.1 460.1 L 628.8 460.1 M 102.1 462 L 322.3 462 M 389.6 462 L 430.1 462 M 481.7 462 L 630.1 462 M 102.7 464 L 322.3 464 M 389.6 464 L 432 464 M 479.9 464 L 632 464 M 103.3 465.9 L 322.3 465.9 M 389.5 465.9 L 434.2 465.9 M 452.9 465.9 L 458.9 465.9 M 477.7 465.9 L 634.2 465.9 M 103.7 467.9 L 322.7 467.9 M 389.2 467.9 L 436.4 467.9 M 452.9 467.9 L 458.9 467.9 M 475.5 467.9 L 636.4 467.9 M 94.1 469.8 L 323.6 469.8 M 388.2 469.8 L 439.8 469.8 M 452.9 469.8 L 458.9 469.8 M 472.1 469.8 L 636.4 469.8 M 94.1 471.8 L 325.2 471.8 M 386.7 471.8 L 443.5 471.8 M 452.9 471.8 L 458.9 471.8 M 468.3 471.8 L 636.4 471.8 M 94.1 473.7 L 328.4 473.7 M 383.4 473.7 L 450.9 473.7 M 452.6 473.7 L 459.3 473.7 M 461 473.7 L 636.4 473.7 M 103.7 475.7 L 636.4 475.7 M 103.5 477.6 L 636.4 477.6 M 102.9 479.6 L 636.4 479.6 M 102.3 481.5 L 636.4 481.5 M 101.4 483.5 L 636.4 483.5 M 100.4 485.5 L 636.4 485.5 M 99.2 487.4 L 636.4 487.4 M 60.6 489.4 L 66.6 489.4 M 97.6 489.4 L 636.4 489.4 M 28.2 491.3 L 31.3 491.3 M 60.6 491.3 L 66.6 491.3 M 95.9 491.3 L 636.4 491.3 M 28.2 493.2 L 33.7 493.2 M 60.6 493.2 L 66.6 493.2 M 93.5 493.2 L 636.4 493.2 M 28.2 495.2 L 36.7 495.2 M 60.6 495.2 L 66.6 495.2 M 90.5 495.2 L 636.4 495.2 M 28.2 497.1 L 40.8 497.1 M 60.6 497.1 L 66.6 497.1 M 86.4 497.1 L 636.4 497.1 M 28.2 499.1 L 636.4 499.1 M 28.2 501 L 636.4 501 M 28.2 503 L 636.4 503 M 28.2 504.9 L 636.4 504.9 M 28.2 506.9 L 636.4 506.9 M 28.2 508.8 L 636.4 508.8 M 28.2 510.8 L 636.4 510.8 M 28.2 512.7 L 636.4 512.7 M 28.2 514.7 L 636.4 514.7 M 28.2 516.6 L 636.4 516.6 M 28.2 518.6 L 636.4 518.6 M 28.2 520.5 L 636.4 520.5 M 28.2 522.5 L 636.4 522.5 M 28.2 524.4 L 636.4 524.4 M 28.2 526.4 L 636.4 526.4 M 28.2 528.3 L 636.4 528.3 M 28.2 530.3 L 636.4 530.3 M 28.2 532.2 L 636.4 532.2 M 28.2 534.2 L 636.4 534.2 M 28.2 536.1 L 636.4 536.1 M 28.2 538.1 L 636.4 538.1 M 28.2 540 L 636.4 540 M 28.2 542 L 636.4 542 M 28.2 543.9 L 636.4 543.9 M 28.2 545.9 L 636.4 545.9 M 28.2 547.9 L 636.4 547.9 M 28.2 549.8 L 636.4 549.8 M 28.2 551.8 L 636.4 551.8 M 28.2 553.7 L 636.4 553.7 M 28.2 555.6 L 636.4 555.6 M 28.2 557.6 L 636.4 557.6 M 28.2 559.5 L 636.4 559.5 M 28.2 561.5 L 636.4 561.5 M 28.2 563.4 L 636.4 563.4 M 28.2 565.4 L 636.4 565.4 M 28.2 567.3 L 636.4 567.3 M 28.2 569.3 L 636.4 569.3 M 28.2 571.2 L 636.4 571.2 M 28.2 573.2 L 636.4 573.2 M 28.2 575.1 L 636.4 575.1 M 28.2 577.1 L 636.4 577.1 M 28.2 579 L 636.4 579 M 28.2 581 L 636.4 581 M 28.2 582.9 L 636.4 582.9 M 28.2 584.9 L 636.4 584.9 M 28.2 586.8 L 636.4 586.8 M 28.2 588.8 L 636.4 588.8 M 28.2 590.7 L 636.4 590.7 M 28.2 592.7 L 636.4 592.7 M 28.2 594.6 L 636.4 594.6 M 28.2 596.6 L 636.4 596.6 M 28.2 598.5 L 636.4 598.5 M 28.2 600.5 L 636.4 600.5 M 28.2 602.4 L 636.4 602.4 M 28.2 604.4 L 636.4 604.4 M 28.2 606.3 L 636.4 606.3 M 28.2 608.3 L 636.4 608.3 M 28.2 610.2 L 636.4 610.2 M 28.2 612.2 L 636.4 612.2 M 28.2 614.2 L 636.4 614.2 M 28.2 616.1 L 636.4 616.1 M 28.2 618.1 L 636.4 618.1 M 28.2 620 L 636.4 620 M 28.2 621.9 L 636.4 621.9 M 28.2 623.9 L 636.4 623.9 M 28.2 625.8 L 636.4 625.8 M 28.2 627.8 L 636.4 627.8 M 28.2 629.7 L 636.4 629.7 M 28.2 631.7 L 636.4 631.7 M 28.2 633.6 L 636.4 633.6 M 28.2 635.6 L 636.4 635.6 M 28.2 637.5 L 636.4 637.5 M 28.2 639.5 L 636.4 639.5 M 28.2 641.4 L 636.4 641.4 M 28.2 643.4 L 636.4 643.4 M 28.2 645.3 L 636.4 645.3 M 28.2 647.3 L 636.4 647.3 M 28.2 649.2 L 636.4 649.2 M 28.2 651.2 L 636.4 651.2 M 28.2 653.1 L 636.4 653.1 M 28.2 655.1 L 636.4 655.1"/><use x="84.3" y="128.6" xlink:href="#tool-D11-pad-1005"/><use x="84.3" y="555.7" xlink:href="#tool-D11-pad-1005"/><use x="182.7" y="128.6" xlink:href="#tool-D11-pad-1005"/><use x="182.7" y="555.7" xlink:href="#tool-D11-pad-1005"/><use x="1251.6" y="342.1" xlink:href="#tool-D12-pad-1006"/><use x="1251.6" y="145.3" xlink:href="#tool-D12-pad-1006"/><use x="1251.6" y="539" xlink:href="#tool-D13-pad-1007"/><use x="455.9" y="440.6" xlink:href="#tool-D14-pad-1008"/><use x="655.9" y="440.6" xlink:href="#tool-D14-pad-1008"/><use x="855.9" y="440.6" xlink:href="#tool-D14-pad-1008"/><use x="355.9" y="440.6" xlink:href="#tool-D15-pad-1009"/><use x="455.9" y="125.6" xlink:href="#tool-D14-pad-1008"/><use x="655.9" y="125.6" xlink:href="#tool-D14-pad-1008"/><use x="855.9" y="125.6" xlink:href="#tool-D14-pad-1008"/><use x="355.9" y="125.6" xlink:href="#tool-D15-pad-1009"/><use x="63.6" y="472.1" xlink:href="#tool-D16-pad-1010"/><use x="63.6" y="212.2" xlink:href="#tool-D16-pad-1010"/></g><mask id="pcb_bottom_mech-mask" fill="#fff" stroke="#fff" fill-rule="evenodd"><path stroke-width="0" d="M 7.5 7.5 L 1503.6 7.5 L 1680.7 125.6 L 1680.7 558.7 L 1503.6 676.8 L 7.5 676.8 Z"/><g id="pcb_bottom-drl" fill="#000" stroke="#000"><use x="84.3" y="128.6" xlink:href="#tool-T10-pad-1000"/><use x="84.3" y="555.7" xlink:href="#tool-T10-pad-1000"/><use x="182.7" y="128.6" xlink:href="#tool-T10-pad-1000"/><use x="182.7" y="555.7" xlink:href="#tool-T10-pad-1000"/><use x="1542.9" y="440.6" xlink:href="#tool-T11-pad-1001"/><use x="1542.9" y="243.7" xlink:href="#tool-T11-pad-1001"/><use x="1251.6" y="342.1" xlink:href="#tool-T12-pad-1002"/><use x="1251.6" y="145.3" xlink:href="#tool-T12-pad-1002"/><use x="1251.6" y="539" xlink:href="#tool-T12-pad-1002"/><use x="355.9" y="440.6" xlink:href="#tool-T13-pad-1003"/><use x="455.9" y="440.6" xlink:href="#tool-T13-pad-1003"/><use x="655.9" y="440.6" xlink:href="#tool-T13-pad-1003"/><use x="855.9" y="440.6" xlink:href="#tool-T13-pad-1003"/><use x="355.9" y="125.6" xlink:href="#tool-T13-pad-1003"/><use x="455.9" y="125.6" xlink:href="#tool-T13-pad-1003"/><use x="655.9" y="125.6" xlink:href="#tool-T13-pad-1003"/><use x="855.9" y="125.6" xlink:href="#tool-T13-pad-1003"/></g></mask></defs><g mask="url(#pcb_bottom_mech-mask)" transform="translate(1688.2,684.3) scale(-1,-1)"><rect x="7.5" y="7.5" width="1673.2" height="669.3" fill="currentColor" class="pcb_board-fr4"/><use class="pcb_board-cu" xlink:href="#pcb_bottom-cu"/><g><defs><g id="pcb_bottom-sm" fill="currentColor" stroke="currentColor"><use x="84.3" y="128.6" xlink:href="#tool-D10-pad-1012"/><use x="84.3" y="555.7" xlink:href="#tool-D10-pad-1012"/><use x="182.7" y="128.6" xlink:href="#tool-D10-pad-1012"/><use x="182.7" y="555.7" xlink:href="#tool-D10-pad-1012"/><use x="1251.6" y="342.1" xlink:href="#tool-D11-pad-1013"/><use x="1251.6" y="145.3" xlink:href="#tool-D11-pad-1013"/><use x="1251.6" y="539" xlink:href="#tool-D12-pad-1014"/><use x="455.9" y="440.6" xlink:href="#tool-D13-pad-1015"/><use x="655.9" y="440.6" xlink:href="#tool-D13-pad-1015"/><use x="855.9" y="440.6" xlink:href="#tool-D13-pad-1015"/><use x="355.9" y="440.6" xlink:href="#tool-D14-pad-1016"/><use x="455.9" y="125.6" xlink:href="#tool-D13-pad-1015"/><use x="655.9" y="125.6" xlink:href="#tool-D13-pad-1015"/><use x="855.9" y="125.6" xlink:href="#tool-D13-pad-1015"/><use x="355.9" y="125.6" xlink:href="#tool-D14-pad-1016"/><use x="63.6" y="472.1" xlink:href="#tool-D15-pad-1017"/><use x="63.6" y="212.2" xlink:href="#tool-D15-pad-1017"/></g><mask id="pcb_bottom-sm_mask" color="#000"><rect x="7.5" y="7.5" width="1673.2" height="669.3" fill="#fff"/><use xlink:href="#pcb_bottom-sm"/></mask><mask id="pcb_bottom-cu_finish-mask" color="#fff"><use xlink:href="#pcb_bottom-cu"/></mask></defs><g mask="url(#pcb_bottom-sm_mask)"><rect x="7.5" y="7.5" width="1673.2" height="669.3" fill="currentColor" class="pcb_board-sm"/><g id="pcb_bottom-ss" class="pcb_board-ss" fill="currentColor" stroke="currentColor"><path d="M 766.4 220.1 L 782.8 262.4 L 776.8 262.4 L 765.8 231.7 L 765.1 229.9 L 764.6 228.1 L 764 226.4 L 763.6 224.7 L 763.1 226.5 L 762.5 228.2 L 761.9 229.9 L 761.3 231.7 L 749.9 262.4 L 744.2 262.4 L 760.7 220.1 L 766.4 220.1 L 766.4 220.1 Z"/><path d="M 722.1 229.9 L 716.8 229.3 L 717.5 227.1 L 718.6 225.1 L 719.9 223.4 L 721.4 222 L 723.3 220.9 L 725.3 220.1 L 727.7 219.6 L 730.2 219.4 L 733.4 219.7 L 736.2 220.5 L 738.7 221.8 L 740.8 223.6 L 742.6 225.8 L 743.8 228.5 L 744.5 231.6 L 744.8 235.1 L 744.5 238.8 L 743.8 242 L 742.5 244.8 L 740.8 247.1 L 738.7 249 L 736.2 250.3 L 733.5 251.2 L 730.5 251.4 L 730.1 251.4 L 730.5 247.1 L 732.1 247 L 733.7 246.6 L 735.2 245.8 L 736.4 244.7 L 737.5 243.4 L 738.3 241.9 L 738.9 240.3 L 739.2 238.4 L 739.2 238.4 L 722 238.4 L 722.3 240.2 L 722.7 241.7 L 723.3 243.1 L 724 244.2 L 725.3 245.5 L 726.9 246.4 L 728.6 246.9 L 730.5 247.1 L 730.1 251.4 L 727.6 251.2 L 724.9 250.4 L 722.5 249.1 L 720.5 247.2 L 718.8 244.9 L 717.5 242.2 L 716.8 239 L 716.6 235.5 L 716.6 235.2 L 716.6 234.9 L 716.6 234.5 L 716.6 234.1 L 739.4 234.1 L 739.2 231.7 L 738.6 229.6 L 737.7 227.9 L 736.6 226.4 L 735.2 225.2 L 733.7 224.4 L 732 223.8 L 730.2 223.7 L 728.8 223.8 L 727.5 224 L 726.4 224.5 L 725.3 225.2 L 724.4 226 L 723.5 227.1 L 722.7 228.4 L 722.1 229.9 L 722.1 229.9 Z"/><path d="M 710.3 220.1 L 710.3 250.7 L 705.6 250.7 L 705.6 246.1 L 704.7 247.6 L 703.9 248.8 L 703.1 249.7 L 702.3 250.4 L 701.5 250.8 L 700.7 251.2 L 699.9 251.4 L 699 251.4 L 697.7 251.3 L 696.3 251 L 695 250.5 L 693.6 249.7 L 695.4 244.9 L 696.4 245.4 L 697.3 245.8 L 698.3 246 L 699.2 246 L 700.1 246 L 700.8 245.8 L 701.6 245.5 L 702.3 245 L 702.9 244.5 L 703.4 243.8 L 703.9 243.1 L 704.2 242.2 L 704.6 240.8 L 704.9 239.3 L 705 237.7 L 705.1 236.1 L 705.1 220.1 L 710.3 220.1 L 710.3 220.1 Z"/><path d="M 692.6 229.2 L 687.5 230.1 L 687.2 228.6 L 686.7 227.3 L 686 226.2 L 685.1 225.3 L 684 224.6 L 682.7 224.1 L 681.2 223.8 L 679.6 223.7 L 677.9 223.8 L 676.4 224 L 675.3 224.5 L 674.3 225.1 L 673.5 225.9 L 673 226.7 L 672.7 227.6 L 672.5 228.6 L 672.6 229.4 L 672.9 230.1 L 673.4 230.8 L 674.1 231.3 L 674.8 231.7 L 675.9 232.1 L 677.5 232.6 L 679.4 233.1 L 682 233.8 L 684.2 234.4 L 686 235 L 687.3 235.6 L 688.3 236.2 L 689.2 236.8 L 690 237.6 L 690.6 238.5 L 691.1 239.4 L 691.5 240.5 L 691.7 241.5 L 691.8 242.6 L 691.7 243.6 L 691.5 244.5 L 691.2 245.5 L 690.8 246.4 L 690.3 247.2 L 689.7 248 L 689 248.7 L 688.3 249.3 L 687.6 249.7 L 686.8 250.1 L 686 250.5 L 685 250.8 L 683.9 251.1 L 682.8 251.2 L 681.7 251.4 L 680.5 251.4 L 678.8 251.4 L 677.1 251.2 L 675.6 250.8 L 674.2 250.4 L 672.9 249.8 L 671.8 249.2 L 670.9 248.4 L 670.1 247.6 L 669.5 246.6 L 669 245.5 L 668.6 244.2 L 668.4 242.8 L 673.4 242.1 L 673.7 243.2 L 674.1 244.2 L 674.7 245.1 L 675.4 245.8 L 676.4 246.4 L 677.4 246.8 L 678.7 247.1 L 680.1 247.1 L 681.8 247.1 L 683.2 246.9 L 684.3 246.5 L 685.2 246 L 685.9 245.3 L 686.4 244.7 L 686.7 244 L 686.8 243.2 L 686.7 242.7 L 686.6 242.2 L 686.4 241.8 L 686.1 241.4 L 685.8 241 L 685.3 240.6 L 684.7 240.3 L 684.1 240 L 683.6 239.8 L 682.6 239.5 L 681.2 239.2 L 679.5 238.7 L 677 238 L 674.9 237.3 L 673.2 236.8 L 671.9 236.3 L 670.8 235.7 L 669.9 235.1 L 669.1 234.4 L 668.4 233.5 L 667.9 232.6 L 667.5 231.5 L 667.3 230.4 L 667.2 229.1 L 667.3 227.8 L 667.6 226.6 L 668.1 225.4 L 668.7 224.2 L 669.5 223.1 L 670.6 222.2 L 671.8 221.4 L 673.1 220.6 L 674.5 220.1 L 676.1 219.7 L 677.8 219.5 L 679.5 219.4 L 682.3 219.5 L 684.8 220 L 686.9 220.8 L 688.6 221.9 L 690.1 223.3 L 691.2 225 L 692.1 226.9 L 692.6 229.2 L 692.6 229.2 Z"/><path d="M 661 220.1 L 661 250.7 L 655.8 250.7 L 655.8 220.1 L 661 220.1 L 661 220.1 Z"/><path d="M 661 256.4 L 661 262.4 L 655.8 262.4 L 655.8 256.4 L 661 256.4 L 661 256.4 Z"/><path d="M 649.8 235.4 L 649.5 239.4 L 648.6 242.8 L 647.2 245.7 L 645.1 248 L 643 249.5 L 640.7 250.6 L 638.2 251.2 L 635.5 251.4 L 632.5 251.2 L 629.7 250.4 L 627.3 249.1 L 625.1 247.3 L 623.4 245 L 622.1 242.3 L 621.4 239.3 L 621.2 235.8 L 621.2 233.1 L 621.6 230.6 L 622.1 228.4 L 622.9 226.6 L 623.9 224.9 L 625.1 223.5 L 626.5 222.3 L 628.1 221.3 L 629.8 220.5 L 631.6 219.9 L 633.5 219.5 L 635.5 219.4 L 635.8 219.4 L 635.5 223.7 L 633.6 223.8 L 631.9 224.4 L 630.4 225.3 L 629 226.6 L 627.9 228.3 L 627.1 230.3 L 626.6 232.8 L 626.5 235.6 L 626.6 238.2 L 627.1 240.6 L 627.9 242.5 L 629.1 244.2 L 630.5 245.5 L 631.9 246.4 L 633.6 246.9 L 635.5 247.1 L 637.3 246.9 L 639 246.4 L 640.6 245.5 L 641.9 244.2 L 643.1 242.6 L 643.9 240.5 L 644.4 238.2 L 644.5 235.4 L 644.5 235.4 L 644.4 232.7 L 643.9 230.3 L 643.1 228.2 L 641.9 226.6 L 640.6 225.3 L 639 224.4 L 637.3 223.8 L 635.5 223.7 L 635.8 219.4 L 638.5 219.7 L 641.3 220.5 L 643.7 221.7 L 645.9 223.5 L 647.6 225.8 L 648.8 228.6 L 649.6 231.8 L 649.8 235.4 L 649.8 235.4 Z"/><path d="M 615.1 220.1 L 615.1 250.7 L 610.4 250.7 L 610.4 246.4 L 608.5 248.6 L 606.3 250.1 L 603.6 251.1 L 600.6 251.4 L 599.3 251.4 L 598 251.2 L 596.8 250.8 L 595.6 250.4 L 594.5 249.9 L 593.5 249.3 L 592.7 248.6 L 592.1 247.8 L 591.6 246.9 L 591.1 246 L 590.7 245.1 L 590.5 244 L 590.3 243.1 L 590.3 242 L 590.2 240.6 L 590.2 238.9 L 590.2 220.1 L 595.4 220.1 L 595.4 238.7 L 595.4 240.2 L 595.5 241.5 L 595.7 242.6 L 596 243.5 L 596.3 244.2 L 596.8 244.9 L 597.4 245.5 L 598.1 246 L 598.9 246.4 L 599.8 246.7 L 600.7 246.9 L 601.8 246.9 L 603.3 246.8 L 604.8 246.4 L 606.2 245.7 L 607.5 244.8 L 608.5 243.5 L 609.3 241.8 L 609.7 239.5 L 609.9 236.8 L 609.9 220.1 L 615.1 220.1 L 615.1 220.1 Z"/><path d="M 547.7 220.1 L 552.9 220.1 L 552.9 253.2 L 553.9 252.3 L 555.1 251.4 L 556.4 250.5 L 557.8 249.6 L 559.3 248.8 L 560.7 248.1 L 562 247.4 L 563.3 246.9 L 563.3 251.9 L 561.2 253 L 559.2 254.2 L 557.3 255.5 L 555.6 256.9 L 554.2 258.3 L 552.9 259.7 L 551.8 261.2 L 551 262.5 L 547.7 262.5 L 547.7 220.1 L 547.7 220.1 Z"/><path d="M 531.5 220.1 L 531.5 226 L 525.6 226 L 525.6 220.1 L 531.5 220.1 L 531.5 220.1 Z"/><path d="M 518 241 L 517.9 244.5 L 517.6 247.7 L 517.1 250.5 L 516.5 253 L 515.6 255.2 L 514.5 257.1 L 513.3 258.7 L 511.9 260.1 L 510.3 261.2 L 508.4 261.9 L 506.4 262.4 L 504.2 262.5 L 502.6 262.5 L 501 262.2 L 499.6 261.8 L 498.2 261.2 L 497 260.4 L 495.9 259.5 L 494.9 258.4 L 494 257.2 L 493.2 255.8 L 492.5 254.4 L 491.9 252.7 L 491.4 250.9 L 491 248.9 L 490.7 246.6 L 490.5 243.9 L 490.5 241 L 490.5 237.4 L 490.8 234.2 L 491.3 231.4 L 491.9 228.9 L 492.8 226.8 L 493.9 224.9 L 495.1 223.2 L 496.6 221.9 L 498.2 220.8 L 500 220 L 502 219.5 L 504.2 219.4 L 504.6 219.4 L 504.2 223.6 L 502.5 223.9 L 500.9 224.5 L 499.5 225.6 L 498.2 227.1 L 497.1 229.3 L 496.4 232.3 L 495.9 236.2 L 495.8 241 L 495.9 245.7 L 496.4 249.6 L 497.1 252.7 L 498.2 254.8 L 499.5 256.3 L 500.9 257.4 L 502.5 258.1 L 504.3 258.2 L 506 258.1 L 507.5 257.5 L 508.8 256.6 L 510 255.2 L 511.2 252.9 L 512 249.7 L 512.5 245.7 L 512.7 241 L 512.7 241 L 512.5 236.2 L 512.1 232.3 L 511.3 229.2 L 510.2 227.1 L 509 225.6 L 507.5 224.5 L 505.9 223.9 L 504.2 223.6 L 504.6 219.4 L 507.1 219.7 L 509.7 220.5 L 511.9 221.8 L 513.8 223.8 L 515.6 226.8 L 516.9 230.7 L 517.7 235.4 L 518 241 L 518 241 Z"/><path d="M 482.3 220.1 L 482.3 226 L 476.3 226 L 476.3 220.1 L 482.3 220.1 L 482.3 220.1 Z"/><path d="M 468.8 241 L 468.6 244.5 L 468.4 247.7 L 467.9 250.5 L 467.2 253 L 466.4 255.2 L 465.3 257.1 L 464 258.7 L 462.6 260.1 L 461 261.2 L 459.2 261.9 L 457.2 262.4 L 455 262.5 L 453.3 262.5 L 451.8 262.2 L 450.3 261.8 L 449 261.2 L 447.8 260.4 L 446.7 259.5 L 445.6 258.4 L 444.7 257.2 L 444 255.8 L 443.3 254.4 L 442.7 252.7 L 442.1 250.9 L 441.7 248.9 L 441.4 246.6 L 441.2 243.9 L 441.2 241 L 441.3 237.4 L 441.6 234.2 L 442 231.4 L 442.7 228.9 L 443.6 226.8 L 444.6 224.9 L 445.8 223.2 L 447.3 221.9 L 448.9 220.8 L 450.7 220 L 452.7 219.5 L 455 219.4 L 455.4 219.4 L 455 223.6 L 453.2 223.9 L 451.7 224.5 L 450.3 225.6 L 449 227.1 L 447.9 229.3 L 447.1 232.3 L 446.7 236.2 L 446.5 241 L 446.7 245.7 L 447.1 249.6 L 447.9 252.7 L 449 254.8 L 450.3 256.3 L 451.7 257.4 L 453.3 258.1 L 455 258.2 L 456.7 258.1 L 458.2 257.5 L 459.6 256.6 L 460.7 255.2 L 461.9 252.9 L 462.7 249.7 L 463.2 245.7 L 463.4 241 L 463.4 241 L 463.2 236.2 L 462.8 232.3 L 462.1 229.2 L 461 227.1 L 459.7 225.6 L 458.2 224.5 L 456.7 223.9 L 455 223.6 L 455.4 219.4 L 457.9 219.7 L 460.4 220.5 L 462.7 221.8 L 464.6 223.8 L 466.4 226.8 L 467.7 230.7 L 468.5 235.4 L 468.8 241 L 468.8 241 Z"/><path d="M 1152.4 298.8 L 1152.4 348.6 L 1171 348.6 L 1171 355.2 L 1126.3 355.2 L 1126.3 348.6 L 1145 348.6 L 1145 298.8 L 1152.4 298.8 L 1152.4 298.8 Z"/><path d="M 1122.5 298.8 L 1122.5 339.7 L 1115.5 339.7 L 1115.5 298.8 L 1122.5 298.8 L 1122.5 298.8 Z"/><path d="M 1122.5 347.2 L 1122.5 355.2 L 1115.5 355.2 L 1115.5 347.2 L 1122.5 347.2 L 1122.5 347.2 Z"/><path d="M 1105 298.8 L 1105 339.7 L 1098.8 339.7 L 1098.8 333.9 L 1096.3 336.8 L 1093.3 338.9 L 1089.8 340.2 L 1085.8 340.6 L 1084 340.5 L 1082.2 340.3 L 1080.6 339.9 L 1079 339.3 L 1077.5 338.6 L 1076.3 337.7 L 1075.2 336.8 L 1074.4 335.8 L 1073.6 334.7 L 1073.1 333.4 L 1072.6 332.1 L 1072.2 330.7 L 1072 329.5 L 1071.9 328 L 1071.8 326.2 L 1071.8 324 L 1071.8 298.8 L 1078.7 298.8 L 1078.7 323.7 L 1078.8 325.6 L 1079 327.4 L 1079.2 328.8 L 1079.5 330 L 1080 331 L 1080.6 331.9 L 1081.5 332.7 L 1082.4 333.3 L 1083.5 333.9 L 1084.7 334.3 L 1085.9 334.5 L 1087.2 334.6 L 1089.4 334.4 L 1091.4 333.9 L 1093.2 333 L 1094.9 331.8 L 1096.3 330.1 L 1097.3 327.7 L 1097.9 324.7 L 1098.1 321.1 L 1098.1 298.8 L 1105 298.8 L 1105 298.8 Z"/><path d="M 1061.5 283.1 L 1062.3 289.6 L 1061.2 289.4 L 1060.2 289.2 L 1059.2 289 L 1058.3 289 L 1057.2 289 L 1056.2 289.2 L 1055.4 289.4 L 1054.6 289.8 L 1054 290.2 L 1053.4 290.7 L 1052.9 291.3 L 1052.4 291.9 L 1052 292.6 L 1051.5 293.7 L 1050.9 295.2 L 1050.3 297.1 L 1050.1 297.4 L 1050 297.8 L 1049.8 298.2 L 1049.6 298.8 L 1065.1 339.7 L 1057.7 339.7 L 1049.2 316 L 1048.4 313.8 L 1047.6 311.4 L 1046.9 309 L 1046.2 306.6 L 1045.6 308.9 L 1044.9 311.3 L 1044.2 313.6 L 1043.4 315.9 L 1034.6 339.7 L 1027.7 339.7 L 1043.2 298.1 L 1044.4 295.1 L 1045.5 292.5 L 1046.4 290.4 L 1047.1 288.9 L 1048.1 287.3 L 1049.1 285.9 L 1050.2 284.8 L 1051.4 283.9 L 1052.6 283.2 L 1054 282.7 L 1055.5 282.4 L 1057.1 282.3 L 1058.1 282.3 L 1059.2 282.5 L 1060.3 282.7 L 1061.5 283.1 L 1061.5 283.1 Z"/><path d="M 962.1 355.2 L 954.6 355.2 L 954.6 322.6 L 954.7 318.6 L 955.1 315 L 955.7 311.9 L 956.6 309.2 L 957.7 306.8 L 959.2 304.6 L 961.2 302.7 L 963.5 301 L 966.2 299.6 L 969.3 298.6 L 972.8 298.1 L 976.7 297.9 L 980.5 298.1 L 983.9 298.6 L 986.9 299.4 L 989.6 300.6 L 991.9 302.1 L 993.9 304 L 995.5 306.1 L 996.8 308.5 L 997.7 311.3 L 998.4 314.6 L 998.8 318.4 L 999 322.6 L 999 355.2 L 991.5 355.2 L 991.5 322.7 L 991.4 319.2 L 991.2 316.3 L 990.7 313.8 L 990.1 311.9 L 989.3 310.2 L 988.3 308.8 L 987 307.5 L 985.5 306.5 L 983.7 305.6 L 981.8 305.1 L 979.6 304.7 L 977.3 304.6 L 973.5 304.8 L 970.3 305.5 L 967.6 306.7 L 965.6 308.3 L 964.1 310.6 L 963 313.8 L 962.3 317.8 L 962.1 322.7 L 962.1 355.2 L 962.1 355.2 Z"/><path d="M 944.7 316.9 L 937.7 317.6 L 937.4 315.5 L 936.9 313.7 L 936.2 312.1 L 935.4 310.6 L 934.4 309.4 L 933.1 308.2 L 931.5 307.1 L 929.7 306.2 L 927.7 305.5 L 925.6 305 L 923.4 304.7 L 921.1 304.6 L 919 304.7 L 917 304.9 L 915.2 305.3 L 913.5 305.8 L 912 306.5 L 910.7 307.3 L 909.6 308.3 L 908.7 309.3 L 908 310.5 L 907.5 311.6 L 907.2 312.9 L 907.1 314.2 L 907.2 315.4 L 907.5 316.6 L 907.9 317.7 L 908.6 318.8 L 909.5 319.7 L 910.6 320.6 L 912 321.4 L 913.7 322.1 L 915.2 322.6 L 917.3 323.2 L 920.2 324 L 923.7 324.9 L 927.3 325.8 L 930.3 326.7 L 932.7 327.5 L 934.6 328.4 L 936.5 329.5 L 938.1 330.7 L 939.5 332.1 L 940.6 333.6 L 941.5 335.2 L 942.1 336.9 L 942.5 338.7 L 942.6 340.6 L 942.5 342.7 L 942 344.7 L 941.2 346.7 L 940.2 348.6 L 938.8 350.3 L 937.2 351.9 L 935.3 353.2 L 933.1 354.2 L 930.7 355.1 L 928.2 355.7 L 925.5 356 L 922.7 356.2 L 919.7 356 L 916.9 355.6 L 914.2 355 L 911.7 354.2 L 909.4 353 L 907.5 351.6 L 905.8 350.1 L 904.4 348.2 L 903.2 346.2 L 902.3 344 L 901.8 341.8 L 901.6 339.3 L 908.7 338.8 L 909.2 341.3 L 910 343.5 L 911.1 345.3 L 912.6 346.9 L 914.5 348.1 L 916.8 348.9 L 919.4 349.4 L 922.5 349.6 L 925.6 349.4 L 928.3 349 L 930.5 348.2 L 932.3 347.1 L 933.7 345.8 L 934.6 344.4 L 935.2 342.8 L 935.4 341.1 L 935.3 339.7 L 934.9 338.4 L 934.2 337.2 L 933.2 336.1 L 931.7 335.1 L 929.3 334.2 L 926.1 333.1 L 921.9 332.1 L 917.8 331.1 L 914.3 330.2 L 911.6 329.3 L 909.5 328.5 L 907.2 327.3 L 905.2 326 L 903.6 324.4 L 902.2 322.8 L 901.2 321 L 900.5 319 L 900 316.9 L 899.9 314.7 L 900.1 312.5 L 900.5 310.4 L 901.3 308.3 L 902.5 306.3 L 903.9 304.4 L 905.6 302.7 L 907.6 301.3 L 909.9 300.1 L 912.3 299.1 L 915 298.4 L 917.8 298 L 920.7 297.9 L 924.4 298 L 927.7 298.4 L 930.8 299.1 L 933.5 300.1 L 936 301.4 L 938.2 302.9 L 940.1 304.7 L 941.6 306.8 L 942.9 309.1 L 943.9 311.6 L 944.5 314.2 L 944.7 316.9 L 944.7 316.9 Z"/><path d="M 890 298.8 L 890 355.2 L 868.8 355.2 L 865.8 355.1 L 863 354.8 L 860.6 354.2 L 858.5 353.5 L 856.6 352.5 L 855 351.3 L 853.6 349.9 L 852.4 348.2 L 851.4 346.4 L 850.7 344.6 L 850.3 342.7 L 850.2 340.8 L 850.3 339 L 850.6 337.3 L 851.3 335.6 L 852.1 334 L 853.2 332.5 L 854.6 331.1 L 856.2 329.9 L 858.1 328.8 L 860.3 323.5 L 861.2 323.9 L 862.9 324.4 L 864.7 324.6 L 867 324.8 L 869.5 324.9 L 882.5 324.9 L 882.5 305.5 L 882.5 305.5 L 868.5 305.5 L 866.8 305.5 L 865.4 305.6 L 864.3 305.6 L 863.4 305.8 L 862.2 306 L 861.1 306.4 L 860.1 306.8 L 859.1 307.3 L 858.3 307.9 L 857.5 308.6 L 856.9 309.5 L 856.3 310.4 L 855.8 311.5 L 855.5 312.7 L 855.2 313.9 L 855.2 315.2 L 855.3 316.7 L 855.6 318.1 L 856.1 319.4 L 856.8 320.6 L 857.7 321.8 L 858.7 322.6 L 859.9 323.4 L 860.3 323.5 L 858.1 328.8 L 860.7 333.3 L 859.7 334.1 L 859 335 L 858.3 336 L 857.9 337.2 L 857.6 338.5 L 857.5 339.9 L 857.6 341.3 L 857.9 342.5 L 858.2 343.7 L 858.8 344.8 L 859.6 345.8 L 860.5 346.6 L 861.5 347.3 L 862.7 347.8 L 864.2 348.1 L 866.1 348.4 L 868.4 348.5 L 871.3 348.6 L 882.5 348.6 L 882.5 331.5 L 882.5 331.5 L 870.3 331.5 L 868.1 331.6 L 866.1 331.7 L 864.5 331.9 L 863.2 332.2 L 861.9 332.7 L 860.7 333.3 L 858.1 328.8 L 855.6 327.9 L 853.5 326.8 L 851.7 325.4 L 850.2 323.7 L 849 321.8 L 848.1 319.8 L 847.6 317.5 L 847.4 315.2 L 847.5 313.2 L 847.9 311.4 L 848.4 309.5 L 849.1 307.8 L 850 306.2 L 851 304.8 L 852.1 303.6 L 853.2 302.6 L 854.5 301.7 L 856 301 L 857.6 300.3 L 859.4 299.8 L 861.4 299.4 L 863.5 299.1 L 865.9 298.9 L 868.5 298.8 L 890 298.8 L 890 298.8 Z"/><path d="M 789.7 298.8 L 789.7 304 L 792.8 307.2 L 792.7 307.3 L 791.4 309.4 L 790.4 312 L 789.8 315.1 L 789.6 318.6 L 789.8 322.5 L 790.4 325.9 L 791.4 328.7 L 792.8 330.9 L 794.5 332.7 L 796.4 333.9 L 798.5 334.6 L 800.8 334.9 L 803 334.6 L 805 333.9 L 806.8 332.7 L 808.5 331.1 L 809.8 329 L 810.8 326.2 L 811.4 323 L 811.6 319.2 L 811.6 319.2 L 811.4 315.5 L 810.7 312.4 L 809.7 309.7 L 808.2 307.5 L 806.5 305.8 L 804.7 304.6 L 802.6 303.8 L 800.5 303.6 L 798.3 303.8 L 796.2 304.5 L 794.4 305.7 L 792.8 307.2 L 789.7 304 L 791.9 301.3 L 794.5 299.4 L 797.6 298.3 L 801.1 297.9 L 803.5 298.1 L 805.8 298.6 L 808 299.4 L 810.1 300.6 L 812 302.1 L 813.7 303.8 L 815.2 305.8 L 816.4 308.1 L 817.4 310.6 L 818.1 313.3 L 818.5 316.2 L 818.7 319.2 L 818.6 322.2 L 818.2 325.1 L 817.5 327.7 L 816.6 330.3 L 815.5 332.7 L 814.1 334.7 L 812.4 336.5 L 810.5 337.9 L 808.4 339.1 L 806.2 339.9 L 803.9 340.4 L 801.4 340.6 L 799.6 340.5 L 797.9 340.2 L 796.3 339.7 L 794.8 339 L 793.5 338.2 L 792.2 337.2 L 791.1 336.2 L 790.1 335 L 790.1 355.2 L 783.2 355.2 L 783.2 298.8 L 789.7 298.8 L 789.7 298.8 Z"/><path d="M 745.6 298.8 L 745.6 304.8 L 748.2 301.8 L 751.2 299.7 L 754.7 298.4 L 758.6 297.9 L 760.4 298 L 762.1 298.2 L 763.7 298.7 L 765.3 299.3 L 766.8 300 L 768.1 300.8 L 769.1 301.8 L 770 302.8 L 770.7 303.9 L 771.3 305.1 L 771.8 306.4 L 772.1 307.9 L 772.3 309.1 L 772.4 310.5 L 772.5 312.3 L 772.5 314.4 L 772.5 339.7 L 765.6 339.7 L 765.6 317 L 765.6 314.5 L 765.5 312.5 L 765.4 310.9 L 765.2 309.7 L 764.8 308.4 L 764.2 307.3 L 763.4 306.3 L 762.4 305.4 L 761.3 304.7 L 760.1 304.3 L 758.7 304 L 757.2 303.9 L 755.6 304 L 754.2 304.3 L 752.7 304.8 L 751.4 305.5 L 750.1 306.4 L 749 307.3 L 748.2 308.5 L 747.5 309.8 L 747 311.4 L 746.6 313.2 L 746.4 315.3 L 746.4 317.8 L 746.4 339.7 L 739.4 339.7 L 739.4 298.8 L 745.6 298.8 L 745.6 298.8 Z"/><path d="M 701.9 303.9 L 703.8 302.3 L 704.1 302.2 L 706.8 306 L 705.5 307.1 L 704.5 308.4 L 703.6 309.9 L 703.2 311.2 L 702.8 312.8 L 702.6 314.6 L 702.5 316.8 L 702.5 319.4 L 702.5 319.4 L 704.7 318.6 L 707.2 317.9 L 710.3 317.3 L 713.8 316.7 L 715.8 316.4 L 717.5 316 L 718.8 315.7 L 719.9 315.3 L 720.7 314.9 L 721.4 314.4 L 722.1 313.8 L 722.6 313.1 L 723 312.3 L 723.3 311.5 L 723.5 310.7 L 723.6 309.8 L 723.4 308.5 L 723.1 307.3 L 722.4 306.2 L 721.5 305.2 L 720.3 304.4 L 718.9 303.8 L 717.2 303.4 L 715.3 303.3 L 713.4 303.4 L 711.6 303.8 L 709.8 304.3 L 708.2 305.1 L 706.8 306 L 704.1 302.2 L 705.7 301.1 L 707.5 300.1 L 709.4 299.3 L 711.2 298.7 L 713.1 298.2 L 715 298 L 717 297.9 L 720.1 298.1 L 722.9 298.7 L 725.3 299.8 L 727.3 301.2 L 728.9 303 L 730 304.9 L 730.7 307.1 L 730.9 309.6 L 730.8 311.1 L 730.6 312.5 L 730.2 313.8 L 729.6 315.1 L 728.8 316.3 L 728 317.3 L 727.1 318.2 L 726 319.1 L 724.9 319.8 L 723.6 320.4 L 722.4 320.9 L 721 321.3 L 719.9 321.6 L 718.4 321.9 L 716.8 322.1 L 714.9 322.4 L 711 322.9 L 707.6 323.4 L 704.8 324.1 L 702.5 324.7 L 702.5 325.4 L 702.5 325.9 L 702.5 326.3 L 702.5 326.6 L 702.6 328.5 L 703 330.2 L 703.6 331.5 L 704.4 332.5 L 705.9 333.6 L 707.7 334.3 L 709.9 334.7 L 712.3 334.9 L 714.6 334.7 L 716.6 334.4 L 718.2 333.9 L 719.5 333.2 L 720.6 332.1 L 721.6 330.8 L 722.3 329.1 L 723 327.1 L 729.7 328 L 729.2 330.1 L 728.5 331.9 L 727.7 333.6 L 726.7 335 L 725.5 336.3 L 724.1 337.4 L 722.5 338.4 L 720.6 339.2 L 718.5 339.8 L 716.3 340.2 L 713.9 340.5 L 711.3 340.6 L 708.8 340.5 L 706.6 340.3 L 704.6 339.9 L 702.8 339.4 L 701.3 338.7 L 700 338 L 698.9 337.1 L 698 336.3 L 697.3 335.3 L 696.7 334.2 L 696.2 332.9 L 695.9 331.6 L 695.7 330.5 L 695.6 329.1 L 695.5 327.3 L 695.5 325.2 L 695.5 316 L 695.5 311.6 L 695.4 308.1 L 695.3 305.5 L 695.1 303.8 L 694.8 302.5 L 694.4 301.2 L 694 300 L 693.3 298.8 L 700.6 298.8 L 701 300 L 701.4 301.2 L 701.8 302.5 L 701.9 303.9 L 701.9 303.9 Z"/><path d="M 684.9 298.8 L 684.9 355.2 L 678.1 355.2 L 678.1 298.8 L 684.9 298.8 L 684.9 298.8 Z"/><path d="M 645.5 298.8 L 645.5 339.7 L 639.3 339.7 L 639.3 333.5 L 638.1 335.5 L 637 337.1 L 635.9 338.3 L 634.9 339.2 L 633.8 339.8 L 632.8 340.3 L 631.6 340.5 L 630.5 340.6 L 628.7 340.5 L 626.9 340 L 625.1 339.4 L 623.3 338.4 L 625.7 331.9 L 627 332.6 L 628.2 333.1 L 629.5 333.4 L 630.8 333.4 L 631.9 333.4 L 632.9 333.1 L 633.9 332.7 L 634.9 332.1 L 635.7 331.3 L 636.4 330.5 L 637 329.4 L 637.4 328.3 L 637.9 326.4 L 638.3 324.4 L 638.5 322.4 L 638.6 320.2 L 638.6 298.8 L 645.5 298.8 L 645.5 298.8 Z"/><path d="M 592.6 303.9 L 594.5 302.3 L 594.7 302.2 L 597.4 306 L 596.1 307.1 L 595.1 308.4 L 594.3 309.9 L 593.8 311.2 L 593.4 312.8 L 593.2 314.6 L 593.1 316.8 L 593.1 319.4 L 593.1 319.4 L 595.3 318.6 L 597.9 317.9 L 600.9 317.3 L 604.5 316.7 L 606.4 316.4 L 608.1 316 L 609.4 315.7 L 610.5 315.3 L 611.3 314.9 L 612.1 314.4 L 612.7 313.8 L 613.2 313.1 L 613.6 312.3 L 614 311.5 L 614.1 310.7 L 614.2 309.8 L 614 308.5 L 613.6 307.3 L 613 306.2 L 612.1 305.2 L 610.9 304.4 L 609.5 303.8 L 607.9 303.4 L 606 303.3 L 604 303.4 L 602.2 303.8 L 600.5 304.3 L 598.8 305.1 L 597.4 306 L 594.7 302.2 L 596.4 301.1 L 598.2 300.1 L 600 299.3 L 601.8 298.7 L 603.6 298.2 L 605.6 298 L 607.6 297.9 L 610.8 298.1 L 613.6 298.7 L 615.9 299.8 L 617.9 301.2 L 619.5 303 L 620.6 304.9 L 621.3 307.1 L 621.6 309.6 L 621.5 311.1 L 621.2 312.5 L 620.8 313.8 L 620.2 315.1 L 619.5 316.3 L 618.6 317.3 L 617.7 318.2 L 616.6 319.1 L 615.5 319.8 L 614.3 320.4 L 613 320.9 L 611.6 321.3 L 610.5 321.6 L 609.1 321.9 L 607.4 322.1 L 605.5 322.4 L 601.6 322.9 L 598.2 323.4 L 595.4 324.1 L 593.1 324.7 L 593.1 325.4 L 593.1 325.9 L 593.1 326.3 L 593.1 326.6 L 593.2 328.5 L 593.6 330.2 L 594.2 331.5 L 595.1 332.5 L 596.6 333.6 L 598.4 334.3 L 600.5 334.7 L 602.9 334.9 L 605.2 334.7 L 607.2 334.4 L 608.8 333.9 L 610.2 333.2 L 611.2 332.1 L 612.2 330.8 L 613 329.1 L 613.6 327.1 L 620.4 328 L 619.8 330.1 L 619.2 331.9 L 618.3 333.6 L 617.3 335 L 616.2 336.3 L 614.7 337.4 L 613.1 338.4 L 611.2 339.2 L 609.2 339.8 L 606.9 340.2 L 604.5 340.5 L 601.9 340.6 L 599.5 340.5 L 597.2 340.3 L 595.2 339.9 L 593.4 339.4 L 591.9 338.7 L 590.6 338 L 589.5 337.1 L 588.6 336.3 L 587.9 335.3 L 587.3 334.2 L 586.9 332.9 L 586.5 331.6 L 586.4 330.5 L 586.2 329.1 L 586.2 327.3 L 586.2 325.2 L 586.2 316 L 586.1 311.6 L 586 308.1 L 585.9 305.5 L 585.7 303.8 L 585.4 302.5 L 585.1 301.2 L 584.5 300 L 584 298.8 L 591.2 298.8 L 591.7 300 L 592.1 301.2 L 592.4 302.5 L 592.6 303.9 L 592.6 303.9 Z"/><path d="M 575.4 298.8 L 575.4 339.7 L 568.4 339.7 L 568.4 298.8 L 575.4 298.8 L 575.4 298.8 Z"/><path d="M 575.4 347.2 L 575.4 355.2 L 568.4 355.2 L 568.4 347.2 L 575.4 347.2 L 575.4 347.2 Z"/><path d="M 558.1 298.8 L 558.1 355.2 L 551.2 355.2 L 551.2 298.8 L 558.1 298.8 L 558.1 298.8 Z"/><path d="M 518.6 283.2 L 518.6 339.7 L 512.3 339.7 L 512.3 334.4 L 508.9 331 L 508.9 331 L 510.4 328.7 L 511.4 326 L 512.1 322.7 L 512.3 319 L 512.3 319 L 512.1 315.3 L 511.5 312.2 L 510.5 309.5 L 509.1 307.4 L 507.4 305.7 L 505.6 304.5 L 503.6 303.8 L 501.4 303.6 L 499.2 303.8 L 497.1 304.6 L 495.2 305.8 L 493.5 307.5 L 492 309.7 L 491 312.5 L 490.4 315.8 L 490.2 319.6 L 490.4 323.2 L 491 326.4 L 492 329.1 L 493.4 331.3 L 495.1 333 L 496.9 334.2 L 498.9 334.9 L 501.1 335.2 L 503.2 334.9 L 505.2 334.2 L 507.1 332.9 L 508.9 331 L 512.3 334.4 L 511.1 335.8 L 509.9 337.1 L 508.6 338.2 L 507.2 339 L 505.7 339.7 L 504.1 340.2 L 502.3 340.5 L 500.4 340.6 L 497.9 340.4 L 495.5 339.9 L 493.2 339.1 L 491.2 337.9 L 489.3 336.4 L 487.7 334.7 L 486.3 332.6 L 485.1 330.3 L 484.3 327.8 L 483.6 325.2 L 483.2 322.4 L 483.1 319.5 L 483.2 316.5 L 483.7 313.6 L 484.4 310.8 L 485.4 308.3 L 486.6 305.9 L 488.1 303.8 L 489.9 302.1 L 491.9 300.6 L 494.1 299.4 L 496.3 298.6 L 498.6 298.1 L 500.9 297.9 L 502.6 298 L 504.2 298.3 L 505.7 298.7 L 507.1 299.4 L 508.4 300.1 L 509.6 301 L 510.7 302 L 511.6 303.1 L 511.6 283.2 L 518.6 283.2 L 518.6 283.2 Z"/><path d="M 477.3 319.3 L 476.9 324.5 L 475.8 329.1 L 473.8 333 L 471 336 L 468.2 338.1 L 465.2 339.5 L 461.8 340.3 L 458.2 340.6 L 454.2 340.3 L 450.5 339.2 L 447.3 337.5 L 444.4 335.1 L 442.1 332.1 L 440.4 328.5 L 439.4 324.4 L 439.1 319.8 L 439.2 316.1 L 439.7 312.8 L 440.4 309.9 L 441.4 307.4 L 442.8 305.3 L 444.4 303.4 L 446.2 301.8 L 448.3 300.4 L 450.6 299.3 L 453.1 298.5 L 455.6 298.1 L 458.2 297.9 L 458.7 298 L 458.2 303.6 L 455.7 303.8 L 453.5 304.6 L 451.4 305.8 L 449.6 307.5 L 448.1 309.7 L 447.1 312.5 L 446.4 315.7 L 446.2 319.5 L 446.4 323.1 L 447.1 326.1 L 448.1 328.8 L 449.6 331 L 451.5 332.7 L 453.5 333.9 L 455.7 334.6 L 458.2 334.9 L 460.7 334.6 L 462.9 333.9 L 465 332.7 L 466.8 331 L 468.3 328.8 L 469.4 326.1 L 470 322.9 L 470.2 319.3 L 470.2 319.3 L 470 315.6 L 469.4 312.4 L 468.3 309.7 L 466.8 307.5 L 465 305.8 L 462.9 304.6 L 460.7 303.8 L 458.2 303.6 L 458.7 298 L 462.3 298.2 L 466 299.3 L 469.2 301 L 472.1 303.4 L 474.4 306.5 L 476 310.1 L 477 314.4 L 477.3 319.3 L 477.3 319.3 Z"/><path d="M 423.4 298.8 L 435.9 339.7 L 428.8 339.7 L 422.3 316.1 L 419.9 307.3 L 419.7 308.1 L 419.3 309.8 L 418.6 312.3 L 417.7 315.8 L 411.2 339.7 L 404.2 339.7 L 398 316 L 396 308.2 L 393.6 316.1 L 386.6 339.7 L 379.9 339.7 L 392.7 298.8 L 399.9 298.8 L 406.4 323.3 L 407.9 330.3 L 416.2 298.8 L 423.4 298.8 L 423.4 298.8 Z"/><path d="M 346.2 312 L 339 311.1 L 340 308.1 L 341.4 305.5 L 343.2 303.3 L 345.3 301.4 L 347.7 299.9 L 350.5 298.8 L 353.6 298.1 L 356.9 297.9 L 361.2 298.2 L 365 299.3 L 368.3 301 L 371.2 303.4 L 373.5 306.5 L 375.1 310.1 L 376.1 314.2 L 376.4 318.9 L 376.1 323.8 L 375.1 328.1 L 373.4 331.8 L 371.1 334.9 L 368.2 337.4 L 365 339.2 L 361.4 340.3 L 357.3 340.6 L 356.8 340.5 L 357.3 334.9 L 359.5 334.7 L 361.7 334.1 L 363.6 333.1 L 365.3 331.7 L 366.8 330 L 367.8 328 L 368.5 325.7 L 368.9 323.2 L 368.9 323.2 L 346.1 323.2 L 346.4 325.6 L 347 327.7 L 347.7 329.5 L 348.7 330.9 L 350.5 332.7 L 352.5 333.9 L 354.7 334.7 L 357.3 334.9 L 356.8 340.5 L 353.4 340.3 L 349.9 339.2 L 346.8 337.5 L 344 335 L 341.7 331.9 L 340.1 328.3 L 339.1 324.1 L 338.8 319.4 L 338.8 319 L 338.8 318.6 L 338.8 318.1 L 338.8 317.5 L 369.3 317.5 L 368.9 314.3 L 368.1 311.6 L 367 309.2 L 365.5 307.2 L 363.6 305.6 L 361.6 304.5 L 359.4 303.8 L 356.9 303.6 L 355.1 303.7 L 353.4 304.1 L 351.8 304.7 L 350.4 305.6 L 349.2 306.8 L 348 308.2 L 347 309.9 L 346.2 312 L 346.2 312 Z"/><path d="M 330.4 298.8 L 330.4 339.7 L 324.2 339.7 L 324.2 333.5 L 323 335.5 L 321.9 337.1 L 320.8 338.3 L 319.8 339.2 L 318.7 339.8 L 317.7 340.3 L 316.5 340.5 L 315.3 340.6 L 313.6 340.5 L 311.8 340 L 310 339.4 L 308.2 338.4 L 310.6 331.9 L 311.9 332.6 L 313.1 333.1 L 314.4 333.4 L 315.7 333.4 L 316.8 333.4 L 317.8 333.1 L 318.8 332.7 L 319.7 332.1 L 320.6 331.3 L 321.3 330.5 L 321.9 329.4 L 322.3 328.3 L 322.8 326.4 L 323.2 324.4 L 323.4 322.4 L 323.5 320.2 L 323.5 298.8 L 330.4 298.8 L 330.4 298.8 Z"/><path d="M 285 311 L 278.2 312.1 L 277.7 310.2 L 277.1 308.5 L 276.1 307 L 274.9 305.8 L 273.5 304.8 L 271.8 304.2 L 269.8 303.8 L 267.6 303.6 L 265.3 303.7 L 263.4 304.1 L 261.8 304.7 L 260.5 305.5 L 259.5 306.6 L 258.8 307.7 L 258.3 308.8 L 258.2 310.1 L 258.3 311.2 L 258.7 312.2 L 259.4 313.1 L 260.2 313.8 L 261.2 314.3 L 262.7 314.8 L 264.7 315.5 L 267.3 316.1 L 270.8 317.1 L 273.8 317.9 L 276.1 318.7 L 277.9 319.5 L 279.2 320.2 L 280.5 321.1 L 281.5 322.2 L 282.3 323.4 L 283 324.6 L 283.4 326 L 283.8 327.3 L 283.8 328.8 L 283.8 330.2 L 283.5 331.4 L 283.1 332.7 L 282.6 333.9 L 281.9 335 L 281.1 336 L 280.2 336.9 L 279.2 337.7 L 278.3 338.3 L 277.3 338.8 L 276.1 339.3 L 274.8 339.8 L 273.4 340.1 L 271.9 340.4 L 270.4 340.5 L 268.8 340.6 L 266.5 340.5 L 264.3 340.3 L 262.3 339.8 L 260.4 339.2 L 258.7 338.4 L 257.2 337.6 L 256 336.6 L 255 335.5 L 254.2 334.2 L 253.6 332.7 L 253 331 L 252.6 329.2 L 259.4 328.2 L 259.7 329.7 L 260.3 331 L 261.1 332.1 L 262.1 333.1 L 263.3 333.9 L 264.7 334.5 L 266.4 334.8 L 268.3 334.9 L 270.5 334.8 L 272.4 334.5 L 273.9 334 L 275.1 333.3 L 276 332.5 L 276.6 331.6 L 277 330.6 L 277.1 329.6 L 277.1 329 L 276.9 328.4 L 276.7 327.8 L 276.3 327.2 L 275.8 326.7 L 275.2 326.2 L 274.5 325.8 L 273.6 325.4 L 272.9 325.1 L 271.6 324.7 L 269.8 324.2 L 267.5 323.6 L 264.2 322.7 L 261.3 321.8 L 259 321 L 257.3 320.4 L 255.9 319.7 L 254.7 318.8 L 253.6 317.9 L 252.7 316.8 L 252 315.5 L 251.5 314.1 L 251.2 312.5 L 251.1 310.8 L 251.2 309.1 L 251.6 307.5 L 252.2 305.9 L 253.1 304.3 L 254.2 302.9 L 255.6 301.6 L 257.1 300.5 L 258.9 299.6 L 260.9 298.8 L 263 298.3 L 265.2 298 L 267.5 297.9 L 271.3 298.1 L 274.5 298.8 L 277.3 299.8 L 279.7 301.2 L 281.6 303.1 L 283.1 305.3 L 284.2 308 L 285 311 L 285 311 Z"/><path d="M 216.1 298.8 L 216.1 304.8 L 218.7 301.8 L 221.7 299.7 L 225.2 298.4 L 229 297.9 L 230.8 298 L 232.5 298.2 L 234.2 298.7 L 235.8 299.3 L 237.3 300 L 238.5 300.8 L 239.6 301.8 L 240.5 302.8 L 241.2 303.9 L 241.8 305.1 L 242.2 306.4 L 242.6 307.9 L 242.8 309.1 L 242.9 310.5 L 243 312.3 L 243 314.4 L 243 339.7 L 236.1 339.7 L 236.1 317 L 236 314.5 L 236 312.5 L 235.8 310.9 L 235.6 309.7 L 235.3 308.4 L 234.6 307.3 L 233.9 306.3 L 232.9 305.4 L 231.8 304.7 L 230.5 304.3 L 229.2 304 L 227.7 303.9 L 226.1 304 L 224.7 304.3 L 223.2 304.8 L 221.8 305.5 L 220.6 306.4 L 219.5 307.3 L 218.6 308.5 L 218 309.8 L 217.5 311.4 L 217.1 313.2 L 216.9 315.3 L 216.8 317.8 L 216.8 339.7 L 209.9 339.7 L 209.9 298.8 L 216.1 298.8 L 216.1 298.8 Z"/><path d="M 199.1 283.2 L 199.1 339.7 L 192.8 339.7 L 192.8 334.4 L 189.4 331 L 189.4 331 L 190.9 328.7 L 191.9 326 L 192.6 322.7 L 192.8 319 L 192.8 319 L 192.6 315.3 L 192 312.2 L 191 309.5 L 189.6 307.4 L 187.9 305.7 L 186.1 304.5 L 184.1 303.8 L 181.9 303.6 L 179.7 303.8 L 177.6 304.6 L 175.7 305.8 L 174 307.5 L 172.5 309.7 L 171.5 312.5 L 170.9 315.8 L 170.7 319.6 L 170.9 323.2 L 171.5 326.4 L 172.5 329.1 L 173.9 331.3 L 175.6 333 L 177.4 334.2 L 179.4 334.9 L 181.6 335.2 L 183.7 334.9 L 185.7 334.2 L 187.6 332.9 L 189.4 331 L 192.8 334.4 L 191.6 335.8 L 190.4 337.1 L 189.1 338.2 L 187.7 339 L 186.2 339.7 L 184.6 340.2 L 182.9 340.5 L 180.9 340.6 L 178.4 340.4 L 176 339.9 L 173.8 339.1 L 171.7 337.9 L 169.8 336.4 L 168.2 334.7 L 166.8 332.6 L 165.6 330.3 L 164.7 327.8 L 164.1 325.2 L 163.8 322.4 L 163.6 319.5 L 163.8 316.5 L 164.2 313.6 L 164.9 310.8 L 165.8 308.3 L 167.1 305.9 L 168.6 303.8 L 170.4 302.1 L 172.4 300.6 L 174.6 299.4 L 176.8 298.6 L 179.1 298.1 L 181.4 297.9 L 183.1 298 L 184.7 298.3 L 186.2 298.7 L 187.6 299.4 L 188.9 300.1 L 190.1 301 L 191.2 302 L 192.1 303.1 L 192.1 283.2 L 199.1 283.2 L 199.1 283.2 Z"/><path d="M 155.3 283.2 L 155.3 339.7 L 149 339.7 L 149 334.4 L 145.6 331 L 145.6 331 L 147.1 328.7 L 148.2 326 L 148.8 322.7 L 149 319 L 149 319 L 148.8 315.3 L 148.2 312.2 L 147.2 309.5 L 145.8 307.4 L 144.1 305.7 L 142.3 304.5 L 140.3 303.8 L 138.1 303.6 L 135.8 303.8 L 133.8 304.6 L 131.9 305.8 L 130.2 307.5 L 128.8 309.7 L 127.7 312.5 L 127.1 315.8 L 126.9 319.6 L 127.1 323.2 L 127.7 326.4 L 128.7 329.1 L 130.1 331.3 L 131.8 333 L 133.6 334.2 L 135.6 334.9 L 137.8 335.2 L 139.9 334.9 L 141.9 334.2 L 143.8 332.9 L 145.6 331 L 149 334.4 L 147.8 335.8 L 146.6 337.1 L 145.3 338.2 L 143.9 339 L 142.5 339.7 L 140.8 340.2 L 139 340.5 L 137.1 340.6 L 134.6 340.4 L 132.2 339.9 L 130 339.1 L 127.9 337.9 L 126 336.4 L 124.4 334.7 L 123 332.6 L 121.9 330.3 L 121 327.8 L 120.3 325.2 L 119.9 322.4 L 119.8 319.5 L 120 316.5 L 120.4 313.6 L 121.1 310.8 L 122.1 308.3 L 123.3 305.9 L 124.8 303.8 L 126.6 302.1 L 128.6 300.6 L 130.8 299.4 L 133 298.6 L 135.3 298.1 L 137.6 297.9 L 139.3 298 L 140.9 298.3 L 142.4 298.7 L 143.8 299.4 L 145.1 300.1 L 146.3 301 L 147.4 302 L 148.4 303.1 L 148.4 283.2 L 155.3 283.2 L 155.3 283.2 Z"/><path d="M 111.6 298.8 L 111.6 355.2 L 104.7 355.2 L 104.7 298.8 L 111.6 298.8 L 111.6 298.8 Z"/><path d="M 94.3 283.1 L 95.1 289.6 L 94 289.4 L 92.9 289.2 L 92 289 L 91.1 289 L 90 289 L 89 289.2 L 88.2 289.4 L 87.4 289.8 L 86.8 290.2 L 86.2 290.7 L 85.6 291.3 L 85.1 291.9 L 84.8 292.6 L 84.3 293.7 L 83.7 295.2 L 83 297.1 L 82.9 297.4 L 82.8 297.8 L 82.6 298.2 L 82.4 298.8 L 97.9 339.7 L 90.5 339.7 L 81.9 316 L 81.2 313.8 L 80.4 311.4 L 79.7 309 L 79 306.6 L 78.4 308.9 L 77.7 311.3 L 76.9 313.6 L 76.2 315.9 L 67.4 339.7 L 60.5 339.7 L 76 298.1 L 77.2 295.1 L 78.2 292.5 L 79.2 290.4 L 79.9 288.9 L 80.9 287.3 L 81.9 285.9 L 83 284.8 L 84.2 283.9 L 85.4 283.2 L 86.8 282.7 L 88.2 282.4 L 89.8 282.3 L 90.8 282.3 L 91.9 282.5 L 93.1 282.7 L 94.3 283.1 L 94.3 283.1 Z"/></g></g><use class="pcb_board-cf" mask="url(#pcb_bottom-cu_finish-mask)" xlink:href="#pcb_bottom-sm"/></g></g></svg>