<?xml-stylesheet href="https://s3.amazonaws.com/maker.works.boards/css/blackpcb.css" type="text/css"?><svg xmlns="http://www.w3.org/2000/svg" version="1.1" xmlns:xlink="http://www.w3.org/1999/xlink" stroke-width="0" stroke-linecap="round" stroke-linejoin="round" width="1.7913in" height="0.6693in" id="pcb_top" viewBox="7.5 7.5 1791.3 669.3"><defs><circle cx="0" cy="0" r="39.5" id="tool-T10-pad-1000"/><circle cx="0" cy="0" r="15" id="tool-T11-pad-1001"/><circle cx="0" cy="0" r="18" id="tool-T12-pad-1002"/><circle cx="0" cy="0" r="46" id="tool-T13-pad-1003"/><circle cx="0" cy="0" r="26.5" id="tool-T14-pad-1004"/><circle cx="0" cy="0" r="24.6" id="tool-D12-pad-1023"/><rect x="-24.6065" y="-24.6065" width="49.213" height="49.213" transform="rotate(90)" id="tool-D13-pad-1024"/><circle cx="0" cy="0" r="29.55" id="tool-D14-pad-1025"/><circle cx="0" cy="0" r="59.05" id="tool-D15-pad-1026"/><rect x="-29.5275" y="-29.5275" width="59.055" height="59.055" transform="rotate(270)" id="tool-D16-pad-1027"/><circle cx="0" cy="0" r="40.35" id="tool-D17-pad-1028"/><rect x="-40.3545" y="-40.3545" width="80.709" height="80.709" transform="rotate(270)" id="tool-D18-pad-1029"/><circle cx="0" cy="0" r="9.85" id="tool-D11-pad-1031"/><circle cx="0" cy="0" r="24.6" id="tool-D10-pad-1033"/><rect x="-24.6065" y="-24.6065" width="49.213" height="49.213" transform="rotate(90)" id="tool-D11-pad-1034"/><circle cx="0" cy="0" r="29.55" id="tool-D12-pad-1035"/><circle cx="0" cy="0" r="59.05" id="tool-D13-pad-1036"/><rect x="-29.5275" y="-29.5275" width="59.055" height="59.055" transform="rotate(270)" id="tool-D14-pad-1037"/><circle cx="0" cy="0" r="40.35" id="tool-D15-pad-1038"/><rect x="-40.3545" y="-40.3545" width="80.709" height="80.709" transform="rotate(270)" id="tool-D16-pad-1039"/><g id="pcb_top-cu" fill="currentColor" stroke="currentColor"><path stroke-width="2" fill="none" d="M 1778.2 145.8 L 1778.2 145.8 M 1778.2 145.8 L 1778.2 538.4 M 1778.2 538.4 L 1601.7 656.1 M 1601.7 656.1 L 1169.4 656.1 M 1169.4 656.1 L 1130.1 616.9 M 1130.1 616.9 L 1129.7 616.8 M 1129.7 616.8 L 697.5 616.8 M 697.5 616.8 L 697.5 67.5 M 697.5 67.5 L 1129.7 67.5 M 1129.7 67.5 L 1130.1 67.4 M 1130.1 67.4 L 1169.4 28.2 M 1169.4 28.2 L 1601.7 28.2 M 1601.7 28.2 L 1778.2 145.8 M 1410.1 489.7 L 1410.1 489.7 M 1410.1 489.7 L 1411.4 489.8 M 1411.4 489.8 L 1411.5 489.9 M 1411.5 489.9 L 1412.8 490.1 M 1412.8 490.1 L 1412.9 490.2 M 1412.9 490.2 L 1414.1 490.7 M 1414.1 490.7 L 1414.2 490.7 M 1414.2 490.7 L 1415.3 491.4 M 1415.3 491.4 L 1415.3 491.4 M 1415.3 491.4 L 1416.3 492.3 M 1416.3 492.3 L 1416.4 492.4 M 1416.4 492.4 L 1417.3 493.4 M 1417.3 493.4 L 1417.3 493.4 M 1417.3 493.4 L 1418 494.5 M 1418 494.5 L 1418 494.6 M 1418 494.6 L 1418.5 495.8 M 1418.5 495.8 L 1418.6 495.9 M 1418.6 495.9 L 1418.8 497.2 M 1418.8 497.2 L 1418.9 497.3 M 1418.9 497.3 L 1419 498.6 M 1419 498.6 L 1419 498.6 M 1419 498.6 L 1419 579.4 M 1419 579.4 L 1419 579.4 M 1419 579.4 L 1418.9 580.7 M 1418.9 580.7 L 1418.8 580.8 M 1418.8 580.8 L 1418.6 582.1 M 1418.6 582.1 L 1418.5 582.1 M 1418.5 582.1 L 1418 583.4 M 1418 583.4 L 1418 583.4 M 1418 583.4 L 1417.3 584.5 M 1417.3 584.5 L 1417.3 584.6 M 1417.3 584.6 L 1416.4 585.6 M 1416.4 585.6 L 1416.3 585.7 M 1416.3 585.7 L 1415.3 586.6 M 1415.3 586.6 L 1415.3 586.6 M 1415.3 586.6 L 1414.2 587.3 M 1414.2 587.3 L 1414.1 587.3 M 1414.1 587.3 L 1412.9 587.8 M 1412.9 587.8 L 1412.8 587.9 M 1412.8 587.9 L 1411.5 588.1 M 1411.5 588.1 L 1411.4 588.2 M 1411.4 588.2 L 1410.1 588.2 M 1410.1 588.2 L 1410.1 588.2 M 1410.1 588.2 L 1329.4 588.2 M 1329.4 588.2 L 1329.3 588.2 M 1329.3 588.2 L 1328 588.2 M 1328 588.2 L 1327.9 588.1 M 1327.9 588.1 L 1326.6 587.9 M 1326.6 587.9 L 1326.6 587.8 M 1326.6 587.8 L 1325.3 587.3 M 1325.3 587.3 L 1325.3 587.3 M 1325.3 587.3 L 1324.2 586.6 M 1324.2 586.6 L 1324.1 586.6 M 1324.1 586.6 L 1323.1 585.7 M 1323.1 585.7 L 1323 585.6 M 1323 585.6 L 1322.1 584.6 M 1322.1 584.6 L 1322.1 584.5 M 1322.1 584.5 L 1321.4 583.4 M 1321.4 583.4 L 1321.4 583.4 M 1321.4 583.4 L 1320.9 582.1 M 1320.9 582.1 L 1320.8 582.1 M 1320.8 582.1 L 1320.6 580.8 M 1320.6 580.8 L 1320.5 580.7 M 1320.5 580.7 L 1320.5 579.4 M 1320.5 579.4 L 1320.5 579.4 M 1320.5 579.4 L 1320.5 571.5 M 1320.5 571.5 L 972.7 571.5 M 972.7 571.5 L 967.5 574.3 M 967.5 574.3 L 967.3 574.3 M 967.3 574.3 L 959.6 576.2 M 959.6 576.2 L 959.5 576.2 M 959.5 576.2 L 951.6 576.2 M 951.6 576.2 L 951.4 576.2 M 951.4 576.2 L 943.7 574.3 M 943.7 574.3 L 943.6 574.3 M 943.6 574.3 L 936.6 570.6 M 936.6 570.6 L 936.4 570.5 M 936.4 570.5 L 930.5 565.2 M 930.5 565.2 L 930.4 565.1 M 930.4 565.1 L 925.9 558.6 M 925.9 558.6 L 925.8 558.4 M 925.8 558.4 L 923 551 M 923 551 L 923 550.9 M 923 550.9 L 922 543 M 922 543 L 922 542.9 M 922 542.9 L 923 535 M 923 535 L 923 534.9 M 923 534.9 L 925.8 527.4 M 925.8 527.4 L 925.9 527.3 M 925.9 527.3 L 930.4 520.8 M 930.4 520.8 L 930.5 520.6 M 930.5 520.6 L 936.4 515.4 M 936.4 515.4 L 936.6 515.3 M 936.6 515.3 L 943.6 511.6 M 943.6 511.6 L 943.7 511.6 M 943.7 511.6 L 951.4 509.7 M 951.4 509.7 L 951.6 509.7 M 951.6 509.7 L 959.5 509.7 M 959.5 509.7 L 959.6 509.7 M 959.6 509.7 L 967.3 511.6 M 967.3 511.6 L 967.5 511.6 M 967.5 511.6 L 972.7 514.4 M 972.7 514.4 L 1320.5 514.4 M 1320.5 514.4 L 1320.5 498.6 M 1320.5 498.6 L 1320.5 498.6 M 1320.5 498.6 L 1320.5 497.3 M 1320.5 497.3 L 1320.6 497.2 M 1320.6 497.2 L 1320.8 495.9 M 1320.8 495.9 L 1320.9 495.8 M 1320.9 495.8 L 1321.4 494.6 M 1321.4 494.6 L 1321.4 494.5 M 1321.4 494.5 L 1322.1 493.4 M 1322.1 493.4 L 1322.1 493.4 M 1322.1 493.4 L 1323 492.4 M 1323 492.4 L 1323.1 492.3 M 1323.1 492.3 L 1324.1 491.4 M 1324.1 491.4 L 1324.2 491.4 M 1324.2 491.4 L 1325.3 490.7 M 1325.3 490.7 L 1325.3 490.7 M 1325.3 490.7 L 1326.6 490.2 M 1326.6 490.2 L 1326.6 490.1 M 1326.6 490.1 L 1327.9 489.9 M 1327.9 489.9 L 1328 489.8 M 1328 489.8 L 1329.3 489.7 M 1329.3 489.7 L 1329.3 489.7 M 1329.3 489.7 L 1410.1 489.7 M 1410.1 489.7 L 1410.1 489.7 M 752.6 510.2 L 752.6 510.2 M 752.6 510.2 L 752.6 519.5 M 752.6 519.5 L 758.5 519.5 M 758.5 519.5 L 758.5 510.2 M 758.5 510.2 L 759.2 509.6 M 759.2 509.6 L 767.3 511.6 M 767.3 511.6 L 767.5 511.6 M 767.5 511.6 L 774.5 515.3 M 774.5 515.3 L 774.6 515.4 M 774.6 515.4 L 780.6 520.6 M 780.6 520.6 L 780.6 520.8 M 780.6 520.8 L 785.2 527.3 M 785.2 527.3 L 785.3 527.4 M 785.3 527.4 L 788.1 534.9 M 788.1 534.9 L 788.1 535 M 788.1 535 L 789 542.9 M 789 542.9 L 789 543 M 789 543 L 788.1 550.9 M 788.1 550.9 L 788.1 551 M 788.1 551 L 785.3 558.4 M 785.3 558.4 L 785.2 558.6 M 785.2 558.6 L 780.6 565.1 M 780.6 565.1 L 780.6 565.2 M 780.6 565.2 L 774.6 570.5 M 774.6 570.5 L 774.5 570.6 M 774.5 570.6 L 767.5 574.3 M 767.5 574.3 L 767.3 574.3 M 767.3 574.3 L 759.2 576.3 M 759.2 576.3 L 758.5 575.7 M 758.5 575.7 L 758.5 566.4 M 758.5 566.4 L 752.6 566.4 M 752.6 566.4 L 752.6 575.7 M 752.6 575.7 L 751.8 576.3 M 751.8 576.3 L 743.7 574.3 M 743.7 574.3 L 743.6 574.3 M 743.6 574.3 L 736.6 570.6 M 736.6 570.6 L 736.4 570.5 M 736.4 570.5 L 730.5 565.2 M 730.5 565.2 L 730.4 565.1 M 730.4 565.1 L 725.9 558.6 M 725.9 558.6 L 725.8 558.4 M 725.8 558.4 L 723 551 M 723 551 L 723 550.9 M 723 550.9 L 722.5 546.6 M 722.5 546.6 L 723.1 545.9 M 723.1 545.9 L 731.9 545.9 M 731.9 545.9 L 731.9 540 M 731.9 540 L 723.1 540 M 723.1 540 L 722.5 539.3 M 722.5 539.3 L 723 535 M 723 535 L 723 534.9 M 723 534.9 L 725.8 527.4 M 725.8 527.4 L 725.9 527.3 M 725.9 527.3 L 730.4 520.8 M 730.4 520.8 L 730.5 520.6 M 730.5 520.6 L 736.4 515.4 M 736.4 515.4 L 736.6 515.3 M 736.6 515.3 L 743.6 511.6 M 743.6 511.6 L 743.7 511.6 M 743.7 511.6 L 751.8 509.6 M 751.8 509.6 L 752.6 510.2 M 1666.9 392.7 L 1666.9 392.7 M 1666.9 392.7 L 1678.1 395.4 M 1678.1 395.4 L 1678.2 395.5 M 1678.2 395.5 L 1688.4 400.8 M 1688.4 400.8 L 1688.5 400.9 M 1688.5 400.9 L 1697.1 408.5 M 1697.1 408.5 L 1697.2 408.6 M 1697.2 408.6 L 1703.8 418.1 M 1703.8 418.1 L 1703.8 418.2 M 1703.8 418.2 L 1707.9 429 M 1707.9 429 L 1707.9 429.1 M 1707.9 429.1 L 1709.3 440.5 M 1709.3 440.5 L 1709.3 440.6 M 1709.3 440.6 L 1707.9 452.1 M 1707.9 452.1 L 1707.9 452.2 M 1707.9 452.2 L 1703.8 463 M 1703.8 463 L 1703.8 463.1 M 1703.8 463.1 L 1697.2 472.5 M 1697.2 472.5 L 1697.1 472.6 M 1697.1 472.6 L 1688.5 480.3 M 1688.5 480.3 L 1688.4 480.3 M 1688.4 480.3 L 1678.2 485.7 M 1678.2 485.7 L 1678.1 485.7 M 1678.1 485.7 L 1666.9 488.5 M 1666.9 488.5 L 1666.8 488.5 M 1666.8 488.5 L 1655.3 488.5 M 1655.3 488.5 L 1655.2 488.5 M 1655.2 488.5 L 1644 485.7 M 1644 485.7 L 1643.9 485.7 M 1643.9 485.7 L 1633.7 480.3 M 1633.7 480.3 L 1633.6 480.3 M 1633.6 480.3 L 1624.9 472.6 M 1624.9 472.6 L 1624.9 472.5 M 1624.9 472.5 L 1618.3 463.1 M 1618.3 463.1 L 1618.2 463 M 1618.2 463 L 1614.2 452.2 M 1614.2 452.2 L 1614.2 452.1 M 1614.2 452.1 L 1612.8 440.6 M 1612.8 440.6 L 1612.8 440.5 M 1612.8 440.5 L 1614.2 429.1 M 1614.2 429.1 L 1614.2 429 M 1614.2 429 L 1618.2 418.2 M 1618.2 418.2 L 1618.3 418.1 M 1618.3 418.1 L 1624.9 408.6 M 1624.9 408.6 L 1624.9 408.5 M 1624.9 408.5 L 1633.6 400.9 M 1633.6 400.9 L 1633.7 400.8 M 1633.7 400.8 L 1643.9 395.5 M 1643.9 395.5 L 1644 395.4 M 1644 395.4 L 1655.2 392.7 M 1655.2 392.7 L 1655.3 392.6 M 1655.3 392.6 L 1666.8 392.6 M 1666.8 392.6 L 1666.9 392.7 M 1380.6 294.1 L 1380.6 294.1 M 1380.6 294.1 L 1380.7 294.1 M 1380.7 294.1 L 1391 297.7 M 1391 297.7 L 1391.1 297.8 M 1391.1 297.8 L 1400.4 303.6 M 1400.4 303.6 L 1400.5 303.7 M 1400.5 303.7 L 1408.2 311.4 M 1408.2 311.4 L 1408.2 311.5 M 1408.2 311.5 L 1414.1 320.7 M 1414.1 320.7 L 1414.1 320.8 M 1414.1 320.8 L 1417.7 331.1 M 1417.7 331.1 L 1417.7 331.2 M 1417.7 331.2 L 1418.6 338.5 M 1418.6 338.5 L 1418 339.2 M 1418 339.2 L 1409.1 339.2 M 1409.1 339.2 L 1409.1 345.1 M 1409.1 345.1 L 1418 345.1 M 1418 345.1 L 1418.6 345.8 M 1418.6 345.8 L 1417.7 353.1 M 1417.7 353.1 L 1417.7 353.2 M 1417.7 353.2 L 1414.1 363.5 M 1414.1 363.5 L 1414.1 363.6 M 1414.1 363.6 L 1408.2 372.8 M 1408.2 372.8 L 1408.2 372.9 M 1408.2 372.9 L 1400.5 380.6 M 1400.5 380.6 L 1400.4 380.7 M 1400.4 380.7 L 1391.1 386.5 M 1391.1 386.5 L 1391 386.6 M 1391 386.6 L 1380.7 390.2 M 1380.7 390.2 L 1380.6 390.2 M 1380.6 390.2 L 1373.3 391 M 1373.3 391 L 1372.7 390.4 M 1372.7 390.4 L 1372.7 381.2 M 1372.7 381.2 L 1366.8 381.2 M 1366.8 381.2 L 1366.8 390.4 M 1366.8 390.4 L 1366.1 391 M 1366.1 391 L 1358.8 390.2 M 1358.8 390.2 L 1358.7 390.2 M 1358.7 390.2 L 1348.4 386.6 M 1348.4 386.6 L 1348.3 386.5 M 1348.3 386.5 L 1339 380.7 M 1339 380.7 L 1339 380.6 M 1339 380.6 L 1331.2 372.9 M 1331.2 372.9 L 1331.2 372.8 M 1331.2 372.8 L 1325.3 363.6 M 1325.3 363.6 L 1325.3 363.5 M 1325.3 363.5 L 1321.7 353.2 M 1321.7 353.2 L 1321.7 353.1 M 1321.7 353.1 L 1320.8 345.8 M 1320.8 345.8 L 1321.4 345.1 M 1321.4 345.1 L 1330.3 345.1 M 1330.3 345.1 L 1330.3 339.2 M 1330.3 339.2 L 1321.4 339.2 M 1321.4 339.2 L 1320.8 338.5 M 1320.8 338.5 L 1321.7 331.2 M 1321.7 331.2 L 1321.7 331.1 M 1321.7 331.1 L 1325.3 320.8 M 1325.3 320.8 L 1325.3 320.7 M 1325.3 320.7 L 1331.2 311.5 M 1331.2 311.5 L 1331.2 311.4 M 1331.2 311.4 L 1339 303.7 M 1339 303.7 L 1339 303.6 M 1339 303.6 L 1348.3 297.8 M 1348.3 297.8 L 1348.4 297.7 M 1348.4 297.7 L 1358.7 294.1 M 1358.7 294.1 L 1358.8 294.1 M 1358.8 294.1 L 1369.7 292.9 M 1369.7 292.9 L 1369.7 292.9 M 1369.7 292.9 L 1380.6 294.1 M 1380.6 97.3 L 1380.6 97.3 M 1380.6 97.3 L 1380.7 97.3 M 1380.7 97.3 L 1391 100.9 M 1391 100.9 L 1391.1 100.9 M 1391.1 100.9 L 1400.4 106.8 M 1400.4 106.8 L 1400.5 106.8 M 1400.5 106.8 L 1408.2 114.5 M 1408.2 114.5 L 1408.2 114.6 M 1408.2 114.6 L 1414.1 123.9 M 1414.1 123.9 L 1414.1 124 M 1414.1 124 L 1417.7 134.3 M 1417.7 134.3 L 1417.7 134.4 M 1417.7 134.4 L 1419 145.3 M 1419 145.3 L 1419 145.3 M 1419 145.3 L 1417.7 156.2 M 1417.7 156.2 L 1417.7 156.3 M 1417.7 156.3 L 1414.1 166.6 M 1414.1 166.6 L 1414.1 166.7 M 1414.1 166.7 L 1408.2 176 M 1408.2 176 L 1408.2 176 M 1408.2 176 L 1400.5 183.8 M 1400.5 183.8 L 1400.4 183.8 M 1400.4 183.8 L 1391.1 189.7 M 1391.1 189.7 L 1391 189.7 M 1391 189.7 L 1380.7 193.3 M 1380.7 193.3 L 1380.6 193.3 M 1380.6 193.3 L 1369.7 194.5 M 1369.7 194.5 L 1369.7 194.5 M 1369.7 194.5 L 1358.8 193.3 M 1358.8 193.3 L 1358.7 193.3 M 1358.7 193.3 L 1348.4 189.7 M 1348.4 189.7 L 1348.3 189.7 M 1348.3 189.7 L 1339 183.8 M 1339 183.8 L 1339 183.8 M 1339 183.8 L 1331.2 176 M 1331.2 176 L 1331.2 176 M 1331.2 176 L 1329.9 173.9 M 1329.9 173.9 L 838.2 173.9 M 838.2 173.9 L 784.1 228 M 784.1 228 L 784.1 244.3 M 784.1 244.3 L 785.2 245.8 M 785.2 245.8 L 785.3 245.9 M 785.3 245.9 L 788.1 253.4 M 788.1 253.4 L 788.1 253.5 M 788.1 253.5 L 789 261.4 M 789 261.4 L 789 261.5 M 789 261.5 L 788.1 269.4 M 788.1 269.4 L 788.1 269.5 M 788.1 269.5 L 785.3 276.9 M 785.3 276.9 L 785.2 277.1 M 785.2 277.1 L 780.6 283.6 M 780.6 283.6 L 780.6 283.7 M 780.6 283.7 L 774.6 289 M 774.6 289 L 774.5 289.1 M 774.5 289.1 L 767.5 292.8 M 767.5 292.8 L 767.3 292.8 M 767.3 292.8 L 759.6 294.7 M 759.6 294.7 L 759.5 294.7 M 759.5 294.7 L 751.6 294.7 M 751.6 294.7 L 751.4 294.7 M 751.4 294.7 L 743.7 292.8 M 743.7 292.8 L 743.6 292.8 M 743.6 292.8 L 736.6 289.1 M 736.6 289.1 L 736.4 289 M 736.4 289 L 730.5 283.7 M 730.5 283.7 L 730.4 283.6 M 730.4 283.6 L 725.9 277.1 M 725.9 277.1 L 725.8 276.9 M 725.8 276.9 L 723 269.5 M 723 269.5 L 723 269.4 M 723 269.4 L 722 261.5 M 722 261.5 L 722 261.4 M 722 261.4 L 723 253.5 M 723 253.5 L 723 253.4 M 723 253.4 L 725.8 245.9 M 725.8 245.9 L 725.9 245.8 M 725.9 245.8 L 726.9 244.3 M 726.9 244.3 L 726.9 216.1 M 726.9 216.1 L 726.9 216.1 M 726.9 216.1 L 727.5 210.6 M 727.5 210.6 L 727.5 210.5 M 727.5 210.5 L 729.1 205.3 M 729.1 205.3 L 729.1 205.2 M 729.1 205.2 L 731.7 200.3 M 731.7 200.3 L 731.8 200.2 M 731.8 200.2 L 735.3 196 M 735.3 196 L 735.3 196 M 735.3 196 L 806.2 125.1 M 806.2 125.1 L 806.2 125 M 806.2 125 L 810.5 121.6 M 810.5 121.6 L 810.5 121.5 M 810.5 121.5 L 815.4 118.9 M 815.4 118.9 L 815.5 118.8 M 815.5 118.8 L 820.8 117.3 M 820.8 117.3 L 820.9 117.2 M 820.9 117.2 L 826.3 116.7 M 826.3 116.7 L 826.4 116.7 M 826.4 116.7 L 1329.9 116.7 M 1329.9 116.7 L 1331.2 114.6 M 1331.2 114.6 L 1331.2 114.5 M 1331.2 114.5 L 1339 106.8 M 1339 106.8 L 1339 106.8 M 1339 106.8 L 1348.3 100.9 M 1348.3 100.9 L 1348.4 100.9 M 1348.4 100.9 L 1358.7 97.3 M 1358.7 97.3 L 1358.8 97.3 M 1358.8 97.3 L 1369.7 96 M 1369.7 96 L 1369.7 96 M 1369.7 96 L 1380.6 97.3 M 952.6 228.7 L 952.6 228.7 M 952.6 228.7 L 952.6 238 M 952.6 238 L 958.5 238 M 958.5 238 L 958.5 228.7 M 958.5 228.7 L 959.2 228.1 M 959.2 228.1 L 967.3 230.1 M 967.3 230.1 L 967.5 230.1 M 967.5 230.1 L 974.5 233.8 M 974.5 233.8 L 974.6 233.9 M 974.6 233.9 L 980.6 239.2 M 980.6 239.2 L 980.6 239.3 M 980.6 239.3 L 985.2 245.8 M 985.2 245.8 L 985.3 245.9 M 985.3 245.9 L 988.1 253.4 M 988.1 253.4 L 988.1 253.5 M 988.1 253.5 L 988.6 257.8 M 988.6 257.8 L 988 258.5 M 988 258.5 L 979.2 258.5 M 979.2 258.5 L 979.2 264.4 M 979.2 264.4 L 988 264.4 M 988 264.4 L 988.6 265.1 M 988.6 265.1 L 988.1 269.4 M 988.1 269.4 L 988.1 269.5 M 988.1 269.5 L 985.3 276.9 M 985.3 276.9 L 985.2 277.1 M 985.2 277.1 L 980.6 283.6 M 980.6 283.6 L 980.6 283.7 M 980.6 283.7 L 974.6 289 M 974.6 289 L 974.5 289.1 M 974.5 289.1 L 967.5 292.8 M 967.5 292.8 L 967.3 292.8 M 967.3 292.8 L 959.2 294.8 M 959.2 294.8 L 958.5 294.2 M 958.5 294.2 L 958.5 284.9 M 958.5 284.9 L 952.6 284.9 M 952.6 284.9 L 952.6 294.2 M 952.6 294.2 L 951.8 294.8 M 951.8 294.8 L 943.7 292.8 M 943.7 292.8 L 943.6 292.8 M 943.6 292.8 L 936.6 289.1 M 936.6 289.1 L 936.4 289 M 936.4 289 L 930.5 283.7 M 930.5 283.7 L 930.4 283.6 M 930.4 283.6 L 925.9 277.1 M 925.9 277.1 L 925.8 276.9 M 925.8 276.9 L 923 269.5 M 923 269.5 L 923 269.4 M 923 269.4 L 922.5 265.1 M 922.5 265.1 L 923.1 264.4 M 923.1 264.4 L 931.9 264.4 M 931.9 264.4 L 931.9 258.5 M 931.9 258.5 L 923.1 258.5 M 923.1 258.5 L 922.5 257.8 M 922.5 257.8 L 923 253.5 M 923 253.5 L 923 253.4 M 923 253.4 L 925.8 245.9 M 925.8 245.9 L 925.9 245.8 M 925.9 245.8 L 930.4 239.3 M 930.4 239.3 L 930.5 239.2 M 930.5 239.2 L 936.4 233.9 M 936.4 233.9 L 936.6 233.8 M 936.6 233.8 L 943.6 230.1 M 943.6 230.1 L 943.7 230.1 M 943.7 230.1 L 951.8 228.1 M 951.8 228.1 L 952.6 228.7 M 1666.9 195.8 L 1666.9 195.8 M 1666.9 195.8 L 1678.1 198.6 M 1678.1 198.6 L 1678.2 198.6 M 1678.2 198.6 L 1688.4 204 M 1688.4 204 L 1688.5 204 M 1688.5 204 L 1697.1 211.7 M 1697.1 211.7 L 1697.2 211.8 M 1697.2 211.8 L 1703.8 221.2 M 1703.8 221.2 L 1703.8 221.3 M 1703.8 221.3 L 1707.9 232.1 M 1707.9 232.1 L 1707.9 232.2 M 1707.9 232.2 L 1709.3 243.6 M 1709.3 243.6 L 1709.3 243.8 M 1709.3 243.8 L 1707.9 255.2 M 1707.9 255.2 L 1707.9 255.3 M 1707.9 255.3 L 1703.8 266.1 M 1703.8 266.1 L 1703.8 266.2 M 1703.8 266.2 L 1697.2 275.7 M 1697.2 275.7 L 1697.1 275.8 M 1697.1 275.8 L 1688.5 283.4 M 1688.5 283.4 L 1688.4 283.5 M 1688.4 283.5 L 1678.2 288.8 M 1678.2 288.8 L 1678.1 288.9 M 1678.1 288.9 L 1666.9 291.6 M 1666.9 291.6 L 1666.8 291.7 M 1666.8 291.7 L 1655.3 291.7 M 1655.3 291.7 L 1655.2 291.6 M 1655.2 291.6 L 1644 288.9 M 1644 288.9 L 1643.9 288.8 M 1643.9 288.8 L 1633.7 283.5 M 1633.7 283.5 L 1633.6 283.4 M 1633.6 283.4 L 1624.9 275.8 M 1624.9 275.8 L 1624.9 275.7 M 1624.9 275.7 L 1618.3 266.2 M 1618.3 266.2 L 1618.2 266.1 M 1618.2 266.1 L 1614.2 255.3 M 1614.2 255.3 L 1614.2 255.2 M 1614.2 255.2 L 1612.8 243.8 M 1612.8 243.8 L 1612.8 243.6 M 1612.8 243.6 L 1614.2 232.2 M 1614.2 232.2 L 1614.2 232.1 M 1614.2 232.1 L 1618.2 221.3 M 1618.2 221.3 L 1618.3 221.2 M 1618.3 221.2 L 1624.9 211.8 M 1624.9 211.8 L 1624.9 211.7 M 1624.9 211.7 L 1633.6 204 M 1633.6 204 L 1633.7 204 M 1633.7 204 L 1643.9 198.6 M 1643.9 198.6 L 1644 198.6 M 1644 198.6 L 1655.2 195.8 M 1655.2 195.8 L 1655.3 195.8 M 1655.3 195.8 L 1666.8 195.8 M 1666.8 195.8 L 1666.9 195.8 M 1168.4 29.2 L 1603.1 29.2 M 1166.4 31.1 L 1606 31.1 M 1164.5 33.1 L 1609 33.1 M 1162.5 35 L 1611.9 35 M 1160.6 36.9 L 1614.8 36.9 M 1158.6 38.9 L 1617.7 38.9 M 1156.7 40.8 L 1620.6 40.8 M 1154.7 42.8 L 1623.6 42.8 M 1152.8 44.7 L 1626.5 44.7 M 1150.8 46.7 L 1629.4 46.7 M 1148.9 48.6 L 1632.3 48.6 M 1146.9 50.6 L 1635.3 50.6 M 1145 52.5 L 1638.2 52.5 M 1143.1 54.5 L 1641.1 54.5 M 1141.1 56.4 L 1644.1 56.4 M 1139.1 58.4 L 1647 58.4 M 1137.2 60.3 L 1649.9 60.3 M 1135.2 62.3 L 1652.9 62.3 M 1133.3 64.2 L 1655.8 64.2 M 1131.3 66.2 L 1658.7 66.2 M 697.5 68.1 L 1661.6 68.1 M 697.5 70.1 L 1664.5 70.1 M 697.5 72 L 1667.5 72 M 697.5 74 L 1670.4 74 M 697.5 75.9 L 1673.3 75.9 M 697.5 77.9 L 1676.2 77.9 M 697.5 79.8 L 1679.2 79.8 M 697.5 81.8 L 1682.1 81.8 M 697.5 83.7 L 1685 83.7 M 697.5 85.7 L 1687.9 85.7 M 697.5 87.6 L 1690.8 87.6 M 697.5 89.6 L 1693.8 89.6 M 697.5 91.5 L 1696.7 91.5 M 697.5 93.5 L 1699.6 93.5 M 697.5 95.5 L 1702.6 95.5 M 697.5 97.4 L 1358.4 97.4 M 1381 97.4 L 1705.5 97.4 M 697.5 99.4 L 1352.8 99.4 M 1386.6 99.4 L 1708.4 99.4 M 697.5 101.3 L 1347.7 101.3 M 1391.7 101.3 L 1711.3 101.3 M 697.5 103.2 L 1344.6 103.2 M 1394.8 103.2 L 1714.3 103.2 M 697.5 105.2 L 1341.5 105.2 M 1397.9 105.2 L 1717.2 105.2 M 697.5 107.1 L 1338.6 107.1 M 1400.8 107.1 L 1720.1 107.1 M 697.5 109.1 L 1336.7 109.1 M 1402.7 109.1 L 1723.1 109.1 M 697.5 111 L 1334.7 111 M 1404.7 111 L 1726 111 M 697.5 113 L 1332.8 113 M 1406.6 113 L 1728.9 113 M 697.5 114.9 L 1331 114.9 M 1408.4 114.9 L 1731.8 114.9 M 697.5 116.9 L 824.4 116.9 M 1409.7 116.9 L 1734.7 116.9 M 697.5 118.8 L 815.6 118.8 M 1410.9 118.8 L 1737.7 118.8 M 697.5 120.8 L 811.9 120.8 M 1412.1 120.8 L 1740.6 120.8 M 697.5 122.7 L 809 122.7 M 1413.4 122.7 L 1743.5 122.7 M 697.5 124.7 L 806.6 124.7 M 1414.4 124.7 L 1746.4 124.7 M 697.5 126.6 L 804.6 126.6 M 1415.1 126.6 L 1749.4 126.6 M 697.5 128.6 L 802.7 128.6 M 1415.7 128.6 L 1752.3 128.6 M 697.5 130.5 L 800.7 130.5 M 1416.4 130.5 L 1755.2 130.5 M 697.5 132.5 L 798.8 132.5 M 1417.1 132.5 L 1758.1 132.5 M 697.5 134.4 L 796.8 134.4 M 1417.7 134.4 L 1761 134.4 M 697.5 136.4 L 794.9 136.4 M 1418 136.4 L 1764 136.4 M 697.5 138.3 L 792.9 138.3 M 1418.2 138.3 L 1766.9 138.3 M 697.5 140.3 L 791 140.3 M 1418.4 140.3 L 1769.8 140.3 M 697.5 142.2 L 789 142.2 M 1418.6 142.2 L 1772.8 142.2 M 697.5 144.2 L 787.1 144.2 M 1418.8 144.2 L 1775.7 144.2 M 697.5 146.1 L 785.1 146.1 M 1418.9 146.1 L 1778.2 146.1 M 697.5 148.1 L 783.2 148.1 M 1418.7 148.1 L 1778.2 148.1 M 697.5 150 L 781.2 150 M 1418.4 150 L 1778.2 150 M 697.5 152 L 779.3 152 M 1418.2 152 L 1778.2 152 M 697.5 153.9 L 777.3 153.9 M 1418 153.9 L 1778.2 153.9 M 697.5 155.9 L 775.4 155.9 M 1417.8 155.9 L 1778.2 155.9 M 697.5 157.9 L 773.4 157.9 M 1417.2 157.9 L 1778.2 157.9 M 697.5 159.8 L 771.5 159.8 M 1416.5 159.8 L 1778.2 159.8 M 697.5 161.8 L 769.5 161.8 M 1415.8 161.8 L 1778.2 161.8 M 697.5 163.7 L 767.6 163.7 M 1415.1 163.7 L 1778.2 163.7 M 697.5 165.6 L 765.6 165.6 M 1414.5 165.6 L 1778.2 165.6 M 697.5 167.6 L 763.7 167.6 M 1413.5 167.6 L 1778.2 167.6 M 697.5 169.5 L 761.7 169.5 M 1412.3 169.5 L 1778.2 169.5 M 697.5 171.5 L 759.7 171.5 M 1411.1 171.5 L 1778.2 171.5 M 697.5 173.4 L 757.8 173.4 M 1409.9 173.4 L 1778.2 173.4 M 697.5 175.4 L 755.8 175.4 M 836.8 175.4 L 1330.8 175.4 M 1408.6 175.4 L 1778.2 175.4 M 697.5 177.3 L 753.9 177.3 M 834.8 177.3 L 1332.5 177.3 M 1406.9 177.3 L 1778.2 177.3 M 697.5 179.3 L 751.9 179.3 M 832.9 179.3 L 1334.4 179.3 M 1405 179.3 L 1778.2 179.3 M 697.5 181.2 L 750 181.2 M 830.9 181.2 L 1336.4 181.2 M 1403 181.2 L 1778.2 181.2 M 697.5 183.2 L 748.1 183.2 M 829 183.2 L 1338.4 183.2 M 1401 183.2 L 1778.2 183.2 M 697.5 185.1 L 746.1 185.1 M 827 185.1 L 1341.1 185.1 M 1398.3 185.1 L 1778.2 185.1 M 697.5 187.1 L 744.2 187.1 M 825.1 187.1 L 1344.2 187.1 M 1395.2 187.1 L 1778.2 187.1 M 697.5 189 L 742.2 189 M 823.1 189 L 1347.3 189 M 1392.1 189 L 1778.2 189 M 697.5 191 L 740.3 191 M 821.2 191 L 1352 191 M 1387.4 191 L 1778.2 191 M 697.5 192.9 L 738.3 192.9 M 819.2 192.9 L 1357.6 192.9 M 1381.8 192.9 L 1778.2 192.9 M 697.5 194.9 L 736.4 194.9 M 817.3 194.9 L 1778.2 194.9 M 697.5 196.8 L 734.6 196.8 M 815.3 196.8 L 1651 196.8 M 1671.1 196.8 L 1778.2 196.8 M 697.5 198.8 L 733 198.8 M 813.4 198.8 L 1643.5 198.8 M 1678.6 198.8 L 1778.2 198.8 M 697.5 200.7 L 731.5 200.7 M 811.4 200.7 L 1639.8 200.7 M 1682.3 200.7 L 1778.2 200.7 M 697.5 202.7 L 730.5 202.7 M 809.5 202.7 L 1636.1 202.7 M 1686 202.7 L 1778.2 202.7 M 697.5 204.6 L 729.4 204.6 M 807.5 204.6 L 1632.9 204.6 M 1689.2 204.6 L 1778.2 204.6 M 697.5 206.6 L 728.7 206.6 M 805.6 206.6 L 1630.6 206.6 M 1691.4 206.6 L 1778.2 206.6 M 697.5 208.5 L 728.1 208.5 M 803.6 208.5 L 1628.5 208.5 M 1693.6 208.5 L 1778.2 208.5 M 697.5 210.5 L 727.5 210.5 M 801.6 210.5 L 1626.3 210.5 M 1695.8 210.5 L 1778.2 210.5 M 697.5 212.4 L 727.3 212.4 M 799.7 212.4 L 1624.4 212.4 M 1697.7 212.4 L 1778.2 212.4 M 697.5 214.4 L 727.1 214.4 M 797.7 214.4 L 1623.1 214.4 M 1699 214.4 L 1778.2 214.4 M 697.5 216.3 L 726.9 216.3 M 795.8 216.3 L 1621.7 216.3 M 1700.4 216.3 L 1778.2 216.3 M 697.5 218.3 L 726.9 218.3 M 793.8 218.3 L 1620.3 218.3 M 1701.8 218.3 L 1778.2 218.3 M 697.5 220.2 L 726.9 220.2 M 791.9 220.2 L 1619 220.2 M 1703.1 220.2 L 1778.2 220.2 M 697.5 222.2 L 726.9 222.2 M 789.9 222.2 L 1617.9 222.2 M 1704.2 222.2 L 1778.2 222.2 M 697.5 224.2 L 726.9 224.2 M 788 224.2 L 1617.2 224.2 M 1704.9 224.2 L 1778.2 224.2 M 697.5 226.1 L 726.9 226.1 M 786 226.1 L 1616.5 226.1 M 1705.6 226.1 L 1778.2 226.1 M 697.5 228.1 L 726.9 228.1 M 784.1 228.1 L 1615.7 228.1 M 1706.4 228.1 L 1778.2 228.1 M 697.5 230 L 726.9 230 M 784.1 230 L 944.1 230 M 952.6 230 L 958.5 230 M 967 230 L 1615 230 M 1707.1 230 L 1778.2 230 M 697.5 231.9 L 726.9 231.9 M 784.1 231.9 L 940.1 231.9 M 952.6 231.9 L 958.5 231.9 M 970.9 231.9 L 1614.2 231.9 M 1707.9 231.9 L 1778.2 231.9 M 697.5 233.9 L 726.9 233.9 M 784.1 233.9 L 936.4 233.9 M 952.6 233.9 L 958.5 233.9 M 974.6 233.9 L 1614 233.9 M 1708.1 233.9 L 1778.2 233.9 M 697.5 235.8 L 726.9 235.8 M 784.1 235.8 L 934.2 235.8 M 952.6 235.8 L 958.5 235.8 M 976.8 235.8 L 1613.7 235.8 M 1708.4 235.8 L 1778.2 235.8 M 697.5 237.8 L 726.9 237.8 M 784.1 237.8 L 932 237.8 M 952.6 237.8 L 958.5 237.8 M 979 237.8 L 1613.5 237.8 M 1708.6 237.8 L 1778.2 237.8 M 697.5 239.7 L 726.9 239.7 M 784.1 239.7 L 930.1 239.7 M 981 239.7 L 1613.2 239.7 M 1708.8 239.7 L 1778.2 239.7 M 697.5 241.7 L 726.9 241.7 M 784.1 241.7 L 928.7 241.7 M 982.3 241.7 L 1613 241.7 M 1709.1 241.7 L 1778.2 241.7 M 697.5 243.6 L 726.9 243.6 M 784.1 243.6 L 927.4 243.6 M 983.7 243.6 L 1612.8 243.6 M 1709.3 243.6 L 1778.2 243.6 M 697.5 245.6 L 726 245.6 M 785 245.6 L 926 245.6 M 985 245.6 L 1613 245.6 M 1709.1 245.6 L 1778.2 245.6 M 697.5 247.5 L 725.2 247.5 M 785.8 247.5 L 925.2 247.5 M 985.8 247.5 L 1613.2 247.5 M 1708.9 247.5 L 1778.2 247.5 M 697.5 249.5 L 724.5 249.5 M 786.6 249.5 L 924.5 249.5 M 986.6 249.5 L 1613.4 249.5 M 1708.6 249.5 L 1778.2 249.5 M 697.5 251.4 L 723.7 251.4 M 787.3 251.4 L 923.7 251.4 M 987.3 251.4 L 1613.7 251.4 M 1708.4 251.4 L 1778.2 251.4 M 697.5 253.4 L 723 253.4 M 788.1 253.4 L 923 253.4 M 988.1 253.4 L 1613.9 253.4 M 1708.2 253.4 L 1778.2 253.4 M 697.5 255.3 L 722.7 255.3 M 788.3 255.3 L 922.7 255.3 M 988.3 255.3 L 1614.2 255.3 M 1707.9 255.3 L 1778.2 255.3 M 697.5 257.3 L 722.5 257.3 M 788.6 257.3 L 922.5 257.3 M 988.6 257.3 L 1614.9 257.3 M 1707.2 257.3 L 1778.2 257.3 M 697.5 259.2 L 722.3 259.2 M 788.8 259.2 L 931.9 259.2 M 979.2 259.2 L 1615.6 259.2 M 1706.4 259.2 L 1778.2 259.2 M 697.5 261.2 L 722 261.2 M 789 261.2 L 931.9 261.2 M 979.2 261.2 L 1616.4 261.2 M 1705.7 261.2 L 1778.2 261.2 M 697.5 263.1 L 722.2 263.1 M 788.8 263.1 L 931.9 263.1 M 979.2 263.1 L 1617.1 263.1 M 1704.9 263.1 L 1778.2 263.1 M 697.5 265.1 L 722.5 265.1 M 788.6 265.1 L 922.5 265.1 M 988.6 265.1 L 1617.9 265.1 M 1704.2 265.1 L 1778.2 265.1 M 697.5 267 L 722.7 267 M 788.4 267 L 922.7 267 M 988.4 267 L 1618.9 267 M 1703.2 267 L 1778.2 267 M 697.5 269 L 722.9 269 M 788.1 269 L 922.9 269 M 988.1 269 L 1620.2 269 M 1701.9 269 L 1778.2 269 M 697.5 270.9 L 723.5 270.9 M 787.5 270.9 L 923.5 270.9 M 987.5 270.9 L 1621.6 270.9 M 1700.5 270.9 L 1778.2 270.9 M 697.5 272.9 L 724.3 272.9 M 786.8 272.9 L 924.3 272.9 M 986.8 272.9 L 1622.9 272.9 M 1699.2 272.9 L 1778.2 272.9 M 697.5 274.8 L 725 274.8 M 786 274.8 L 925 274.8 M 986 274.8 L 1624.3 274.8 M 1697.8 274.8 L 1778.2 274.8 M 697.5 276.8 L 725.8 276.8 M 785.3 276.8 L 925.8 276.8 M 985.3 276.8 L 1626.1 276.8 M 1696 276.8 L 1778.2 276.8 M 697.5 278.7 L 727 278.7 M 784 278.7 L 927 278.7 M 984 278.7 L 1628.3 278.7 M 1693.8 278.7 L 1778.2 278.7 M 697.5 280.7 L 728.4 280.7 M 782.7 280.7 L 928.4 280.7 M 982.7 280.7 L 1630.5 280.7 M 1691.6 280.7 L 1778.2 280.7 M 697.5 282.6 L 729.7 282.6 M 781.4 282.6 L 929.7 282.6 M 981.4 282.6 L 1632.7 282.6 M 1689.4 282.6 L 1778.2 282.6 M 697.5 284.6 L 731.5 284.6 M 779.6 284.6 L 931.5 284.6 M 979.6 284.6 L 1635.8 284.6 M 1686.3 284.6 L 1778.2 284.6 M 697.5 286.5 L 733.7 286.5 M 777.4 286.5 L 933.7 286.5 M 952.6 286.5 L 958.5 286.5 M 977.4 286.5 L 1639.5 286.5 M 1682.6 286.5 L 1778.2 286.5 M 697.5 288.5 L 735.9 288.5 M 775.2 288.5 L 935.9 288.5 M 952.6 288.5 L 958.5 288.5 M 975.2 288.5 L 1643.2 288.5 M 1678.9 288.5 L 1778.2 288.5 M 697.5 290.5 L 739.2 290.5 M 771.9 290.5 L 939.2 290.5 M 952.6 290.5 L 958.5 290.5 M 971.9 290.5 L 1650.3 290.5 M 1671.8 290.5 L 1778.2 290.5 M 697.5 292.4 L 742.9 292.4 M 768.2 292.4 L 942.9 292.4 M 952.6 292.4 L 958.5 292.4 M 968.2 292.4 L 1778.2 292.4 M 697.5 294.4 L 749.9 294.4 M 761.1 294.4 L 949.9 294.4 M 952.4 294.4 L 958.6 294.4 M 961.1 294.4 L 1358.1 294.4 M 1381.3 294.4 L 1778.2 294.4 M 697.5 296.3 L 1352.5 296.3 M 1386.9 296.3 L 1778.2 296.3 M 697.5 298.2 L 1347.5 298.2 M 1391.9 298.2 L 1778.2 298.2 M 697.5 300.2 L 1344.5 300.2 M 1394.9 300.2 L 1778.2 300.2 M 697.5 302.1 L 1341.4 302.1 M 1398.1 302.1 L 1778.2 302.1 M 697.5 304.1 L 1338.5 304.1 M 1400.9 304.1 L 1778.2 304.1 M 697.5 306 L 1336.6 306 M 1402.9 306 L 1778.2 306 M 697.5 308 L 1334.6 308 M 1404.8 308 L 1778.2 308 M 697.5 309.9 L 1332.7 309.9 M 1406.8 309.9 L 1778.2 309.9 M 697.5 311.9 L 1330.9 311.9 M 1408.5 311.9 L 1778.2 311.9 M 697.5 313.8 L 1329.7 313.8 M 1409.7 313.8 L 1778.2 313.8 M 697.5 315.8 L 1328.4 315.8 M 1411 315.8 L 1778.2 315.8 M 697.5 317.7 L 1327.2 317.7 M 1412.2 317.7 L 1778.2 317.7 M 697.5 319.7 L 1326 319.7 M 1413.4 319.7 L 1778.2 319.7 M 697.5 321.6 L 1325 321.6 M 1414.4 321.6 L 1778.2 321.6 M 697.5 323.6 L 1324.3 323.6 M 1415.1 323.6 L 1778.2 323.6 M 697.5 325.5 L 1323.6 325.5 M 1415.8 325.5 L 1778.2 325.5 M 697.5 327.5 L 1323 327.5 M 1416.4 327.5 L 1778.2 327.5 M 697.5 329.4 L 1322.3 329.4 M 1417.1 329.4 L 1778.2 329.4 M 697.5 331.4 L 1321.6 331.4 M 1417.8 331.4 L 1778.2 331.4 M 697.5 333.3 L 1321.4 333.3 M 1418 333.3 L 1778.2 333.3 M 697.5 335.3 L 1321.2 335.3 M 1418.2 335.3 L 1778.2 335.3 M 697.5 337.2 L 1321 337.2 M 1418.4 337.2 L 1778.2 337.2 M 697.5 339.2 L 1321.4 339.2 M 1418 339.2 L 1778.2 339.2 M 697.5 341.1 L 1330.3 341.1 M 1409.1 341.1 L 1778.2 341.1 M 697.5 343.1 L 1330.3 343.1 M 1409.1 343.1 L 1778.2 343.1 M 697.5 345 L 1330.3 345 M 1409.1 345 L 1778.2 345 M 697.5 347 L 1321 347 M 1418.4 347 L 1778.2 347 M 697.5 348.9 L 1321.2 348.9 M 1418.2 348.9 L 1778.2 348.9 M 697.5 350.9 L 1321.4 350.9 M 1418 350.9 L 1778.2 350.9 M 697.5 352.9 L 1321.6 352.9 M 1417.8 352.9 L 1778.2 352.9 M 697.5 354.8 L 1322.3 354.8 M 1417.1 354.8 L 1778.2 354.8 M 697.5 356.8 L 1322.9 356.8 M 1416.5 356.8 L 1778.2 356.8 M 697.5 358.7 L 1323.6 358.7 M 1415.8 358.7 L 1778.2 358.7 M 697.5 360.6 L 1324.3 360.6 M 1415.1 360.6 L 1778.2 360.6 M 697.5 362.6 L 1325 362.6 M 1414.4 362.6 L 1778.2 362.6 M 697.5 364.5 L 1326 364.5 M 1413.4 364.5 L 1778.2 364.5 M 697.5 366.5 L 1327.2 366.5 M 1412.2 366.5 L 1778.2 366.5 M 697.5 368.4 L 1328.4 368.4 M 1411 368.4 L 1778.2 368.4 M 697.5 370.4 L 1329.6 370.4 M 1409.8 370.4 L 1778.2 370.4 M 697.5 372.3 L 1330.8 372.3 M 1408.6 372.3 L 1778.2 372.3 M 697.5 374.3 L 1332.6 374.3 M 1406.8 374.3 L 1778.2 374.3 M 697.5 376.2 L 1334.5 376.2 M 1404.9 376.2 L 1778.2 376.2 M 697.5 378.2 L 1336.5 378.2 M 1402.9 378.2 L 1778.2 378.2 M 697.5 380.1 L 1338.4 380.1 M 1401 380.1 L 1778.2 380.1 M 697.5 382.1 L 1341.2 382.1 M 1366.8 382.1 L 1372.7 382.1 M 1398.2 382.1 L 1778.2 382.1 M 697.5 384 L 1344.4 384 M 1366.8 384 L 1372.7 384 M 1395.1 384 L 1778.2 384 M 697.5 386 L 1347.5 386 M 1366.8 386 L 1372.7 386 M 1391.9 386 L 1778.2 386 M 697.5 387.9 L 1352.3 387.9 M 1366.8 387.9 L 1372.7 387.9 M 1387.1 387.9 L 1778.2 387.9 M 697.5 389.9 L 1357.9 389.9 M 1366.8 389.9 L 1372.7 389.9 M 1381.5 389.9 L 1778.2 389.9 M 697.5 391.8 L 1778.2 391.8 M 697.5 393.8 L 1650.5 393.8 M 1671.6 393.8 L 1778.2 393.8 M 697.5 395.7 L 1643.3 395.7 M 1678.8 395.7 L 1778.2 395.7 M 697.5 397.7 L 1639.6 397.7 M 1682.5 397.7 L 1778.2 397.7 M 697.5 399.6 L 1635.9 399.6 M 1686.2 399.6 L 1778.2 399.6 M 697.5 401.6 L 1632.8 401.6 M 1689.3 401.6 L 1778.2 401.6 M 697.5 403.5 L 1630.6 403.5 M 1691.5 403.5 L 1778.2 403.5 M 697.5 405.5 L 1628.4 405.5 M 1693.7 405.5 L 1778.2 405.5 M 697.5 407.4 L 1626.2 407.4 M 1695.9 407.4 L 1778.2 407.4 M 697.5 409.4 L 1624.3 409.4 M 1697.8 409.4 L 1778.2 409.4 M 697.5 411.3 L 1623 411.3 M 1699.1 411.3 L 1778.2 411.3 M 697.5 413.3 L 1621.6 413.3 M 1700.5 413.3 L 1778.2 413.3 M 697.5 415.2 L 1620.3 415.2 M 1701.8 415.2 L 1778.2 415.2 M 697.5 417.2 L 1618.9 417.2 M 1703.2 417.2 L 1778.2 417.2 M 697.5 419.2 L 1617.9 419.2 M 1704.2 419.2 L 1778.2 419.2 M 697.5 421.1 L 1617.1 421.1 M 1704.9 421.1 L 1778.2 421.1 M 697.5 423.1 L 1616.4 423.1 M 1705.6 423.1 L 1778.2 423.1 M 697.5 425 L 1615.7 425 M 1706.4 425 L 1778.2 425 M 697.5 426.9 L 1614.9 426.9 M 1707.1 426.9 L 1778.2 426.9 M 697.5 428.9 L 1614.2 428.9 M 1707.9 428.9 L 1778.2 428.9 M 697.5 430.8 L 1613.9 430.8 M 1708.2 430.8 L 1778.2 430.8 M 697.5 432.8 L 1613.7 432.8 M 1708.4 432.8 L 1778.2 432.8 M 697.5 434.7 L 1613.4 434.7 M 1708.6 434.7 L 1778.2 434.7 M 697.5 436.7 L 1613.2 436.7 M 1708.9 436.7 L 1778.2 436.7 M 697.5 438.6 L 1613 438.6 M 1709.1 438.6 L 1778.2 438.6 M 697.5 440.6 L 1612.8 440.6 M 1709.3 440.6 L 1778.2 440.6 M 697.5 442.5 L 1613 442.5 M 1709.1 442.5 L 1778.2 442.5 M 697.5 444.5 L 1613.2 444.5 M 1708.9 444.5 L 1778.2 444.5 M 697.5 446.4 L 1613.4 446.4 M 1708.6 446.4 L 1778.2 446.4 M 697.5 448.4 L 1613.7 448.4 M 1708.4 448.4 L 1778.2 448.4 M 697.5 450.3 L 1614 450.3 M 1708.1 450.3 L 1778.2 450.3 M 697.5 452.3 L 1614.2 452.3 M 1707.9 452.3 L 1778.2 452.3 M 697.5 454.2 L 1614.9 454.2 M 1707.1 454.2 L 1778.2 454.2 M 697.5 456.2 L 1615.7 456.2 M 1706.4 456.2 L 1778.2 456.2 M 697.5 458.1 L 1616.4 458.1 M 1705.6 458.1 L 1778.2 458.1 M 697.5 460.1 L 1617.2 460.1 M 1704.9 460.1 L 1778.2 460.1 M 697.5 462 L 1617.9 462 M 1704.2 462 L 1778.2 462 M 697.5 464 L 1619 464 M 1703.1 464 L 1778.2 464 M 697.5 465.9 L 1620.3 465.9 M 1701.8 465.9 L 1778.2 465.9 M 697.5 467.9 L 1621.6 467.9 M 1700.5 467.9 L 1778.2 467.9 M 697.5 469.8 L 1623 469.8 M 1699.1 469.8 L 1778.2 469.8 M 697.5 471.8 L 1624.4 471.8 M 1697.7 471.8 L 1778.2 471.8 M 697.5 473.7 L 1626.2 473.7 M 1695.9 473.7 L 1778.2 473.7 M 697.5 475.7 L 1628.4 475.7 M 1693.7 475.7 L 1778.2 475.7 M 697.5 477.6 L 1630.6 477.6 M 1691.5 477.6 L 1778.2 477.6 M 697.5 479.6 L 1632.8 479.6 M 1689.3 479.6 L 1778.2 479.6 M 697.5 481.5 L 1635.9 481.5 M 1686.2 481.5 L 1778.2 481.5 M 697.5 483.5 L 1639.7 483.5 M 1682.4 483.5 L 1778.2 483.5 M 697.5 485.5 L 1643.4 485.5 M 1678.7 485.5 L 1778.2 485.5 M 697.5 487.4 L 1650.6 487.4 M 1671.4 487.4 L 1778.2 487.4 M 697.5 489.4 L 1778.2 489.4 M 697.5 491.3 L 1324.4 491.3 M 1415.1 491.3 L 1778.2 491.3 M 697.5 493.2 L 1322.3 493.2 M 1417.1 493.2 L 1778.2 493.2 M 697.5 495.2 L 1321.2 495.2 M 1418.2 495.2 L 1778.2 495.2 M 697.5 497.1 L 1320.6 497.1 M 1418.8 497.1 L 1778.2 497.1 M 697.5 499.1 L 1320.5 499.1 M 1419 499.1 L 1778.2 499.1 M 697.5 501 L 1320.5 501 M 1419 501 L 1778.2 501 M 697.5 503 L 1320.5 503 M 1419 503 L 1778.2 503 M 697.5 504.9 L 1320.5 504.9 M 1419 504.9 L 1778.2 504.9 M 697.5 506.9 L 1320.5 506.9 M 1419 506.9 L 1778.2 506.9 M 697.5 508.8 L 1320.5 508.8 M 1419 508.8 L 1778.2 508.8 M 697.5 510.8 L 746.9 510.8 M 752.6 510.8 L 758.5 510.8 M 764.2 510.8 L 946.9 510.8 M 964.2 510.8 L 1320.5 510.8 M 1419 510.8 L 1778.2 510.8 M 697.5 512.7 L 741.4 512.7 M 752.6 512.7 L 758.5 512.7 M 769.6 512.7 L 941.4 512.7 M 969.6 512.7 L 1320.5 512.7 M 1419 512.7 L 1778.2 512.7 M 697.5 514.7 L 737.7 514.7 M 752.6 514.7 L 758.5 514.7 M 773.3 514.7 L 937.7 514.7 M 1419 514.7 L 1778.2 514.7 M 697.5 516.6 L 735 516.6 M 752.6 516.6 L 758.5 516.6 M 776 516.6 L 935 516.6 M 1419 516.6 L 1778.2 516.6 M 697.5 518.6 L 732.8 518.6 M 752.6 518.6 L 758.5 518.6 M 778.2 518.6 L 932.8 518.6 M 1419 518.6 L 1778.2 518.6 M 697.5 520.5 L 730.6 520.5 M 780.5 520.5 L 930.6 520.5 M 1419 520.5 L 1778.2 520.5 M 697.5 522.5 L 729.2 522.5 M 781.9 522.5 L 929.2 522.5 M 1419 522.5 L 1778.2 522.5 M 697.5 524.4 L 727.9 524.4 M 783.2 524.4 L 927.9 524.4 M 1419 524.4 L 1778.2 524.4 M 697.5 526.4 L 726.5 526.4 M 784.5 526.4 L 926.5 526.4 M 1419 526.4 L 1778.2 526.4 M 697.5 528.3 L 725.5 528.3 M 785.6 528.3 L 925.5 528.3 M 1419 528.3 L 1778.2 528.3 M 697.5 530.3 L 724.7 530.3 M 786.3 530.3 L 924.7 530.3 M 1419 530.3 L 1778.2 530.3 M 697.5 532.2 L 724 532.2 M 787.1 532.2 L 924 532.2 M 1419 532.2 L 1778.2 532.2 M 697.5 534.2 L 723.2 534.2 M 787.8 534.2 L 923.2 534.2 M 1419 534.2 L 1778.2 534.2 M 697.5 536.1 L 722.8 536.1 M 788.2 536.1 L 922.8 536.1 M 1419 536.1 L 1778.2 536.1 M 697.5 538.1 L 722.6 538.1 M 788.5 538.1 L 922.6 538.1 M 1419 538.1 L 1778.2 538.1 M 697.5 540 L 731.9 540 M 788.7 540 L 922.3 540 M 1419 540 L 1775.8 540 M 697.5 542 L 731.9 542 M 789 542 L 922.1 542 M 1419 542 L 1772.9 542 M 697.5 543.9 L 731.9 543.9 M 788.9 543.9 L 922.1 543.9 M 1419 543.9 L 1769.9 543.9 M 697.5 545.9 L 723 545.9 M 788.7 545.9 L 922.4 545.9 M 1419 545.9 L 1767 545.9 M 697.5 547.9 L 722.6 547.9 M 788.4 547.9 L 922.6 547.9 M 1419 547.9 L 1764.1 547.9 M 697.5 549.8 L 722.9 549.8 M 788.2 549.8 L 922.9 549.8 M 1419 549.8 L 1761.2 549.8 M 697.5 551.8 L 723.3 551.8 M 787.8 551.8 L 923.3 551.8 M 1419 551.8 L 1758.2 551.8 M 697.5 553.7 L 724 553.7 M 787.1 553.7 L 924 553.7 M 1419 553.7 L 1755.3 553.7 M 697.5 555.6 L 724.7 555.6 M 786.3 555.6 L 924.7 555.6 M 1419 555.6 L 1752.4 555.6 M 697.5 557.6 L 725.5 557.6 M 785.6 557.6 L 925.5 557.6 M 1419 557.6 L 1749.5 557.6 M 697.5 559.5 L 726.6 559.5 M 784.5 559.5 L 926.6 559.5 M 1419 559.5 L 1746.6 559.5 M 697.5 561.5 L 727.9 561.5 M 783.2 561.5 L 927.9 561.5 M 1419 561.5 L 1743.6 561.5 M 697.5 563.4 L 729.2 563.4 M 781.8 563.4 L 929.2 563.4 M 1419 563.4 L 1740.7 563.4 M 697.5 565.4 L 730.7 565.4 M 780.4 565.4 L 930.7 565.4 M 1419 565.4 L 1737.8 565.4 M 697.5 567.3 L 732.9 567.3 M 752.6 567.3 L 758.5 567.3 M 778.2 567.3 L 932.9 567.3 M 1419 567.3 L 1734.8 567.3 M 697.5 569.3 L 735.1 569.3 M 752.6 569.3 L 758.5 569.3 M 776 569.3 L 935.1 569.3 M 1419 569.3 L 1731.9 569.3 M 697.5 571.2 L 737.9 571.2 M 752.6 571.2 L 758.5 571.2 M 773.2 571.2 L 937.9 571.2 M 1419 571.2 L 1729 571.2 M 697.5 573.2 L 741.6 573.2 M 752.6 573.2 L 758.5 573.2 M 769.5 573.2 L 941.6 573.2 M 969.5 573.2 L 1320.5 573.2 M 1419 573.2 L 1726.1 573.2 M 697.5 575.1 L 747.1 575.1 M 752.6 575.1 L 758.5 575.1 M 764 575.1 L 947.1 575.1 M 964 575.1 L 1320.5 575.1 M 1419 575.1 L 1723.1 575.1 M 697.5 577.1 L 1320.5 577.1 M 1419 577.1 L 1720.2 577.1 M 697.5 579 L 1320.5 579 M 1419 579 L 1717.3 579 M 697.5 581 L 1320.6 581 M 1418.8 581 L 1714.4 581 M 697.5 582.9 L 1321.2 582.9 M 1418.2 582.9 L 1711.4 582.9 M 697.5 584.9 L 1322.4 584.9 M 1417 584.9 L 1708.5 584.9 M 697.5 586.8 L 1324.5 586.8 M 1414.9 586.8 L 1705.6 586.8 M 697.5 588.8 L 1702.7 588.8 M 697.5 590.7 L 1699.7 590.7 M 697.5 592.7 L 1696.8 592.7 M 697.5 594.6 L 1693.9 594.6 M 697.5 596.6 L 1691 596.6 M 697.5 598.5 L 1688.1 598.5 M 697.5 600.5 L 1685.1 600.5 M 697.5 602.4 L 1682.2 602.4 M 697.5 604.4 L 1679.3 604.4 M 697.5 606.3 L 1676.4 606.3 M 697.5 608.3 L 1673.4 608.3 M 697.5 610.2 L 1670.5 610.2 M 697.5 612.2 L 1667.6 612.2 M 697.5 614.2 L 1664.6 614.2 M 697.5 616.1 L 1661.7 616.1 M 1131.3 618.1 L 1658.8 618.1 M 1133.2 620 L 1655.9 620 M 1135.2 621.9 L 1652.9 621.9 M 1137.1 623.9 L 1650 623.9 M 1139.1 625.8 L 1647.1 625.8 M 1141 627.8 L 1644.2 627.8 M 1143 629.7 L 1641.2 629.7 M 1144.9 631.7 L 1638.3 631.7 M 1146.9 633.6 L 1635.4 633.6 M 1148.8 635.6 L 1632.5 635.6 M 1150.8 637.5 L 1629.5 637.5 M 1152.7 639.5 L 1626.6 639.5 M 1154.7 641.4 L 1623.7 641.4 M 1156.6 643.4 L 1620.8 643.4 M 1158.6 645.3 L 1617.9 645.3 M 1160.5 647.3 L 1614.9 647.3 M 1162.5 649.2 L 1612 649.2 M 1164.4 651.2 L 1609.1 651.2 M 1166.4 653.1 L 1606.2 653.1 M 1168.3 655.1 L 1603.2 655.1 M 381 67.4 L 381 67.4 M 381 67.4 L 381.3 67.5 M 381.3 67.5 L 754.5 67.5 M 754.5 67.5 L 754.5 176.7 M 754.5 176.7 L 735.3 196 M 735.3 196 L 735.3 196 M 735.3 196 L 731.8 200.2 M 731.8 200.2 L 731.7 200.3 M 731.7 200.3 L 729.1 205.2 M 729.1 205.2 L 729.1 205.3 M 729.1 205.3 L 727.5 210.5 M 727.5 210.5 L 727.5 210.6 M 727.5 210.6 L 726.9 216.1 M 726.9 216.1 L 726.9 216.1 M 726.9 216.1 L 726.9 244.3 M 726.9 244.3 L 725.9 245.8 M 725.9 245.8 L 725.8 245.9 M 725.8 245.9 L 723 253.4 M 723 253.4 L 723 253.5 M 723 253.5 L 722 261.4 M 722 261.4 L 722 261.5 M 722 261.5 L 723 269.4 M 723 269.4 L 723 269.5 M 723 269.5 L 725.8 276.9 M 725.8 276.9 L 725.9 277.1 M 725.9 277.1 L 730.4 283.6 M 730.4 283.6 L 730.5 283.7 M 730.5 283.7 L 736.4 289 M 736.4 289 L 736.6 289.1 M 736.6 289.1 L 743.6 292.8 M 743.6 292.8 L 743.7 292.8 M 743.7 292.8 L 751.4 294.7 M 751.4 294.7 L 751.6 294.7 M 751.6 294.7 L 754.5 294.7 M 754.5 294.7 L 754.5 508.9 M 754.5 508.9 L 755.1 509.5 M 755.1 509.5 L 758.5 509.5 M 758.5 509.5 L 758.5 519.5 M 758.5 519.5 L 752.6 519.5 M 752.6 519.5 L 752.6 510.2 M 752.6 510.2 L 751.8 509.6 M 751.8 509.6 L 743.7 511.6 M 743.7 511.6 L 743.6 511.6 M 743.6 511.6 L 736.6 515.3 M 736.6 515.3 L 736.4 515.4 M 736.4 515.4 L 730.5 520.6 M 730.5 520.6 L 730.4 520.8 M 730.4 520.8 L 725.9 527.3 M 725.9 527.3 L 725.8 527.4 M 725.8 527.4 L 723 534.9 M 723 534.9 L 723 535 M 723 535 L 722 542.9 M 722 542.9 L 722 543 M 722 543 L 723 550.9 M 723 550.9 L 723 551 M 723 551 L 725.8 558.4 M 725.8 558.4 L 725.9 558.6 M 725.9 558.6 L 730.4 565.1 M 730.4 565.1 L 730.5 565.2 M 730.5 565.2 L 736.4 570.5 M 736.4 570.5 L 736.6 570.6 M 736.6 570.6 L 743.6 574.3 M 743.6 574.3 L 743.7 574.3 M 743.7 574.3 L 751.8 576.3 M 751.8 576.3 L 752.6 575.7 M 752.6 575.7 L 752.6 566.4 M 752.6 566.4 L 758.5 566.4 M 758.5 566.4 L 758.5 576.4 M 758.5 576.4 L 755.1 576.4 M 755.1 576.4 L 754.5 576.9 M 754.5 576.9 L 754.5 616.8 M 754.5 616.8 L 381.3 616.8 M 381.3 616.8 L 381 616.9 M 381 616.9 L 341.7 656.1 M 341.7 656.1 L 28.2 656.1 M 28.2 656.1 L 28.2 28.2 M 28.2 28.2 L 341.7 28.2 M 341.7 28.2 L 381 67.4 M 480.2 227.9 L 480.2 227.9 M 480.2 227.9 L 481.5 228 M 481.5 228 L 481.6 228.1 M 481.6 228.1 L 482.9 228.3 M 482.9 228.3 L 482.9 228.4 M 482.9 228.4 L 484.2 228.9 M 484.2 228.9 L 484.2 228.9 M 484.2 228.9 L 485.3 229.6 M 485.3 229.6 L 485.4 229.6 M 485.4 229.6 L 486.4 230.5 M 486.4 230.5 L 486.5 230.6 M 486.5 230.6 L 487.3 231.6 M 487.3 231.6 L 487.4 231.6 M 487.4 231.6 L 488.1 232.7 M 488.1 232.7 L 488.1 232.8 M 488.1 232.8 L 488.6 234 M 488.6 234 L 488.6 234.1 M 488.6 234.1 L 488.9 235.4 M 488.9 235.4 L 489 235.5 M 489 235.5 L 489 236.8 M 489 236.8 L 489 236.8 M 489 236.8 L 489 286 M 489 286 L 489 286.1 M 489 286.1 L 489 287.4 M 489 287.4 L 488.9 287.5 M 488.9 287.5 L 488.6 288.8 M 488.6 288.8 L 488.6 288.8 M 488.6 288.8 L 488.1 290.1 M 488.1 290.1 L 488.1 290.1 M 488.1 290.1 L 487.4 291.2 M 487.4 291.2 L 487.3 291.3 M 487.3 291.3 L 486.5 292.3 M 486.5 292.3 L 486.4 292.4 M 486.4 292.4 L 485.4 293.2 M 485.4 293.2 L 485.3 293.3 M 485.3 293.3 L 484.1 294 M 484.1 294 L 484.1 510.3 M 484.1 510.3 L 485.3 511.1 M 485.3 511.1 L 485.4 511.1 M 485.4 511.1 L 486.4 512 M 486.4 512 L 486.5 512.1 M 486.5 512.1 L 487.3 513.1 M 487.3 513.1 L 487.4 513.1 M 487.4 513.1 L 488.1 514.2 M 488.1 514.2 L 488.1 514.3 M 488.1 514.3 L 488.6 515.5 M 488.6 515.5 L 488.6 515.6 M 488.6 515.6 L 488.9 516.9 M 488.9 516.9 L 489 517 M 489 517 L 489 518.3 M 489 518.3 L 489 518.3 M 489 518.3 L 489 567.5 M 489 567.5 L 489 567.6 M 489 567.6 L 489 568.9 M 489 568.9 L 488.9 569 M 488.9 569 L 488.6 570.3 M 488.6 570.3 L 488.6 570.3 M 488.6 570.3 L 488.1 571.6 M 488.1 571.6 L 488.1 571.6 M 488.1 571.6 L 487.4 572.7 M 487.4 572.7 L 487.3 572.8 M 487.3 572.8 L 486.5 573.8 M 486.5 573.8 L 486.4 573.9 M 486.4 573.9 L 485.4 574.7 M 485.4 574.7 L 485.3 574.8 M 485.3 574.8 L 484.2 575.5 M 484.2 575.5 L 484.2 575.5 M 484.2 575.5 L 482.9 576 M 482.9 576 L 482.9 576 M 482.9 576 L 481.6 576.3 M 481.6 576.3 L 481.5 576.4 M 481.5 576.4 L 480.2 576.4 M 480.2 576.4 L 480.1 576.4 M 480.1 576.4 L 430.9 576.4 M 430.9 576.4 L 430.9 576.4 M 430.9 576.4 L 429.6 576.4 M 429.6 576.4 L 429.5 576.3 M 429.5 576.3 L 428.2 576 M 428.2 576 L 428.1 576 M 428.1 576 L 426.9 575.5 M 426.9 575.5 L 426.8 575.5 M 426.8 575.5 L 425.7 574.8 M 425.7 574.8 L 425.6 574.7 M 425.6 574.7 L 424.7 573.9 M 424.7 573.9 L 424.6 573.8 M 424.6 573.8 L 423.7 572.8 M 423.7 572.8 L 423.7 572.7 M 423.7 572.7 L 423 571.6 M 423 571.6 L 423 571.6 M 423 571.6 L 422.5 570.3 M 422.5 570.3 L 422.4 570.3 M 422.4 570.3 L 422.1 569 M 422.1 569 L 422.1 568.9 M 422.1 568.9 L 422 567.6 M 422 567.6 L 422 567.6 M 422 567.6 L 422 518.3 M 422 518.3 L 422 518.2 M 422 518.2 L 422.1 517 M 422.1 517 L 422.1 516.9 M 422.1 516.9 L 422.4 515.6 M 422.4 515.6 L 422.5 515.5 M 422.5 515.5 L 423 514.3 M 423 514.3 L 423 514.2 M 423 514.2 L 423.7 513.1 M 423.7 513.1 L 423.7 513.1 M 423.7 513.1 L 424.6 512.1 M 424.6 512.1 L 424.7 512 M 424.7 512 L 425.6 511.1 M 425.6 511.1 L 425.7 511.1 M 425.7 511.1 L 426.9 510.3 M 426.9 510.3 L 426.9 294 M 426.9 294 L 425.7 293.3 M 425.7 293.3 L 425.6 293.2 M 425.6 293.2 L 424.7 292.4 M 424.7 292.4 L 424.6 292.3 M 424.6 292.3 L 423.7 291.3 M 423.7 291.3 L 423.7 291.2 M 423.7 291.2 L 422.9 290 M 422.9 290 L 326.4 290 M 326.4 290 L 321.5 294.9 M 321.5 294.9 L 321.5 322.5 M 321.5 322.5 L 321.5 322.5 M 321.5 322.5 L 321.4 323.8 M 321.4 323.8 L 321.4 323.9 M 321.4 323.9 L 321.1 325.2 M 321.1 325.2 L 321.1 325.3 M 321.1 325.3 L 320.6 326.5 M 320.6 326.5 L 320.5 326.6 M 320.5 326.6 L 319.9 327.7 M 319.9 327.7 L 319.8 327.7 M 319.8 327.7 L 319 328.7 M 319 328.7 L 318.9 328.8 M 318.9 328.8 L 317.9 329.7 M 317.9 329.7 L 317.8 329.7 M 317.8 329.7 L 316.7 330.4 M 316.7 330.4 L 316.6 330.4 M 316.6 330.4 L 315.4 330.9 M 315.4 330.9 L 315.3 331 M 315.3 331 L 314 331.2 M 314 331.2 L 314 331.3 M 314 331.3 L 312.7 331.4 M 312.7 331.4 L 312.6 331.4 M 312.6 331.4 L 253.6 331.4 M 253.6 331.4 L 253.5 331.4 M 253.5 331.4 L 252.2 331.3 M 252.2 331.3 L 252.1 331.2 M 252.1 331.2 L 250.8 331 M 250.8 331 L 250.8 330.9 M 250.8 330.9 L 249.5 330.4 M 249.5 330.4 L 249.5 330.4 M 249.5 330.4 L 248.4 329.7 M 248.4 329.7 L 248.3 329.7 M 248.3 329.7 L 247.3 328.8 M 247.3 328.8 L 247.2 328.7 M 247.2 328.7 L 246.4 327.7 M 246.4 327.7 L 246.3 327.7 M 246.3 327.7 L 245.6 326.6 M 245.6 326.6 L 245.6 326.5 M 245.6 326.5 L 245.1 325.3 M 245.1 325.3 L 245.1 325.2 M 245.1 325.2 L 244.8 323.9 M 244.8 323.9 L 244.7 323.8 M 244.7 323.8 L 244.7 322.5 M 244.7 322.5 L 244.7 322.5 M 244.7 322.5 L 244.7 301.1 M 244.7 301.1 L 241.8 300.9 M 241.8 300.9 L 241.7 302.1 M 241.7 302.1 L 241.7 302.2 M 241.7 302.2 L 238.4 310.7 M 238.4 310.7 L 238.4 310.8 M 238.4 310.8 L 233.2 318.4 M 233.2 318.4 L 233.1 318.5 M 233.1 318.5 L 226.2 324.5 M 226.2 324.5 L 226.1 324.6 M 226.1 324.6 L 218.1 328.8 M 218.1 328.8 L 217.9 328.9 M 217.9 328.9 L 209 331.1 M 209 331.1 L 208.9 331.1 M 208.9 331.1 L 207.9 331.1 M 207.9 331.1 L 207.3 330.5 M 207.3 330.5 L 207.3 321.3 M 207.3 321.3 L 201.4 321.3 M 201.4 321.3 L 201.4 330.5 M 201.4 330.5 L 200.8 331.1 M 200.8 331.1 L 199.8 331.1 M 199.8 331.1 L 199.7 331.1 M 199.7 331.1 L 190.8 328.9 M 190.8 328.9 L 190.6 328.8 M 190.6 328.8 L 182.6 324.6 M 182.6 324.6 L 182.5 324.5 M 182.5 324.5 L 175.6 318.5 M 175.6 318.5 L 175.5 318.4 M 175.5 318.4 L 170.3 310.8 M 170.3 310.8 L 170.3 310.7 M 170.3 310.7 L 167 302.2 M 167 302.2 L 167 302.1 M 167 302.1 L 166.4 296.6 M 166.4 296.6 L 166.9 295.9 M 166.9 295.9 L 175.8 295.9 M 175.8 295.9 L 175.8 290 M 175.8 290 L 166.9 290 M 166.9 290 L 166.4 289.3 M 166.4 289.3 L 167 283.8 M 167 283.8 L 167 283.7 M 167 283.7 L 170.3 275.1 M 170.3 275.1 L 170.3 275 M 170.3 275 L 175.5 267.5 M 175.5 267.5 L 175.6 267.4 M 175.6 267.4 L 182.5 261.3 M 182.5 261.3 L 182.6 261.3 M 182.6 261.3 L 190.6 257 M 190.6 257 L 190.8 257 M 190.8 257 L 199.7 254.8 M 199.7 254.8 L 199.8 254.8 M 199.8 254.8 L 200.8 254.8 M 200.8 254.8 L 201.4 255.3 M 201.4 255.3 L 201.4 264.6 M 201.4 264.6 L 207.3 264.6 M 207.3 264.6 L 207.3 255.3 M 207.3 255.3 L 207.9 254.8 M 207.9 254.8 L 208.9 254.8 M 208.9 254.8 L 209 254.8 M 209 254.8 L 217.9 257 M 217.9 257 L 218.1 257 M 218.1 257 L 226.1 261.3 M 226.1 261.3 L 226.2 261.3 M 226.2 261.3 L 233.1 267.4 M 233.1 267.4 L 233.2 267.5 M 233.2 267.5 L 238.4 275 M 238.4 275 L 238.4 275.1 M 238.4 275.1 L 241.7 283.7 M 241.7 283.7 L 241.7 283.8 M 241.7 283.8 L 241.8 285 M 241.8 285 L 244.7 284.8 M 244.7 284.8 L 244.7 263.4 M 244.7 263.4 L 244.7 263.3 M 244.7 263.3 L 244.7 262.1 M 244.7 262.1 L 244.8 262 M 244.8 262 L 245.1 260.7 M 245.1 260.7 L 245.1 260.6 M 245.1 260.6 L 245.6 259.4 M 245.6 259.4 L 245.6 259.3 M 245.6 259.3 L 246.3 258.2 M 246.3 258.2 L 246.4 258.1 M 246.4 258.1 L 247.2 257.1 M 247.2 257.1 L 247.3 257.1 M 247.3 257.1 L 248.3 256.2 M 248.3 256.2 L 248.4 256.2 M 248.4 256.2 L 249.5 255.5 M 249.5 255.5 L 249.5 255.5 M 249.5 255.5 L 250.8 254.9 M 250.8 254.9 L 250.8 254.9 M 250.8 254.9 L 252.1 254.6 M 252.1 254.6 L 252.2 254.6 M 252.2 254.6 L 253.5 254.5 M 253.5 254.5 L 253.5 254.5 M 253.5 254.5 L 281.1 254.5 M 281.1 254.5 L 294.4 241.2 M 294.4 241.2 L 294.4 241.2 M 294.4 241.2 L 298.6 237.7 M 298.6 237.7 L 298.7 237.6 M 298.7 237.6 L 303.6 235 M 303.6 235 L 303.7 235 M 303.7 235 L 309 233.4 M 309 233.4 L 309.1 233.4 M 309.1 233.4 L 314.5 232.9 M 314.5 232.9 L 314.5 232.9 M 314.5 232.9 L 422.9 232.9 M 422.9 232.9 L 423.7 231.6 M 423.7 231.6 L 423.7 231.6 M 423.7 231.6 L 424.6 230.6 M 424.6 230.6 L 424.7 230.5 M 424.7 230.5 L 425.6 229.6 M 425.6 229.6 L 425.7 229.6 M 425.7 229.6 L 426.8 228.9 M 426.8 228.9 L 426.9 228.9 M 426.9 228.9 L 428.1 228.4 M 428.1 228.4 L 428.2 228.3 M 428.2 228.3 L 429.5 228.1 M 429.5 228.1 L 429.6 228 M 429.6 228 L 430.8 227.9 M 430.8 227.9 L 430.9 227.9 M 430.9 227.9 L 480.2 227.9 M 480.2 227.9 L 480.2 227.9 M 552.6 510.2 L 552.6 510.2 M 552.6 510.2 L 552.6 519.5 M 552.6 519.5 L 558.5 519.5 M 558.5 519.5 L 558.5 510.2 M 558.5 510.2 L 559.2 509.6 M 559.2 509.6 L 567.3 511.6 M 567.3 511.6 L 567.5 511.6 M 567.5 511.6 L 574.5 515.3 M 574.5 515.3 L 574.6 515.4 M 574.6 515.4 L 580.6 520.6 M 580.6 520.6 L 580.6 520.8 M 580.6 520.8 L 585.2 527.3 M 585.2 527.3 L 585.3 527.4 M 585.3 527.4 L 588.1 534.9 M 588.1 534.9 L 588.1 535 M 588.1 535 L 589 542.9 M 589 542.9 L 589 543 M 589 543 L 588.1 550.9 M 588.1 550.9 L 588.1 551 M 588.1 551 L 585.3 558.4 M 585.3 558.4 L 585.2 558.6 M 585.2 558.6 L 580.6 565.1 M 580.6 565.1 L 580.6 565.2 M 580.6 565.2 L 574.6 570.5 M 574.6 570.5 L 574.5 570.6 M 574.5 570.6 L 567.5 574.3 M 567.5 574.3 L 567.3 574.3 M 567.3 574.3 L 559.2 576.3 M 559.2 576.3 L 558.5 575.7 M 558.5 575.7 L 558.5 566.4 M 558.5 566.4 L 552.6 566.4 M 552.6 566.4 L 552.6 575.7 M 552.6 575.7 L 551.8 576.3 M 551.8 576.3 L 543.7 574.3 M 543.7 574.3 L 543.6 574.3 M 543.6 574.3 L 536.6 570.6 M 536.6 570.6 L 536.4 570.5 M 536.4 570.5 L 530.5 565.2 M 530.5 565.2 L 530.4 565.1 M 530.4 565.1 L 525.9 558.6 M 525.9 558.6 L 525.8 558.4 M 525.8 558.4 L 523 551 M 523 551 L 523 550.9 M 523 550.9 L 522.5 546.6 M 522.5 546.6 L 523.1 545.9 M 523.1 545.9 L 531.9 545.9 M 531.9 545.9 L 531.9 540 M 531.9 540 L 523.1 540 M 523.1 540 L 522.5 539.3 M 522.5 539.3 L 523 535 M 523 535 L 523 534.9 M 523 534.9 L 525.8 527.4 M 525.8 527.4 L 525.9 527.3 M 525.9 527.3 L 530.4 520.8 M 530.4 520.8 L 530.5 520.6 M 530.5 520.6 L 536.4 515.4 M 536.4 515.4 L 536.6 515.3 M 536.6 515.3 L 543.6 511.6 M 543.6 511.6 L 543.7 511.6 M 543.7 511.6 L 551.8 509.6 M 551.8 509.6 L 552.6 510.2 M 209 353.2 L 209 353.2 M 209 353.2 L 217.9 355.4 M 217.9 355.4 L 218.1 355.5 M 218.1 355.5 L 226.1 359.7 M 226.1 359.7 L 226.2 359.7 M 226.2 359.7 L 233.1 365.8 M 233.1 365.8 L 233.2 365.9 M 233.2 365.9 L 238.4 373.4 M 238.4 373.4 L 238.4 373.6 M 238.4 373.6 L 241.7 382.1 M 241.7 382.1 L 241.7 382.2 M 241.7 382.2 L 242.4 388 M 242.4 388 L 245.1 388 M 245.1 388 L 245.8 382.2 M 245.8 382.2 L 245.8 382.1 M 245.8 382.1 L 249 373.6 M 249 373.6 L 249.1 373.4 M 249.1 373.4 L 254.3 365.9 M 254.3 365.9 L 254.4 365.8 M 254.4 365.8 L 261.2 359.7 M 261.2 359.7 L 261.3 359.7 M 261.3 359.7 L 269.4 355.5 M 269.4 355.5 L 269.5 355.4 M 269.5 355.4 L 278.4 353.2 M 278.4 353.2 L 278.5 353.2 M 278.5 353.2 L 287.7 353.2 M 287.7 353.2 L 287.8 353.2 M 287.8 353.2 L 296.7 355.4 M 296.7 355.4 L 296.8 355.5 M 296.8 355.5 L 304.9 359.7 M 304.9 359.7 L 305 359.7 M 305 359.7 L 311.8 365.8 M 311.8 365.8 L 311.9 365.9 M 311.9 365.9 L 317.1 373.4 M 317.1 373.4 L 317.1 373.6 M 317.1 373.6 L 320.4 382.1 M 320.4 382.1 L 320.4 382.2 M 320.4 382.2 L 321.5 391.3 M 321.5 391.3 L 321.5 391.4 M 321.5 391.4 L 320.4 400.5 M 320.4 400.5 L 320.4 400.6 M 320.4 400.6 L 317.1 409.2 M 317.1 409.2 L 317.1 409.3 M 317.1 409.3 L 311.9 416.8 M 311.9 416.8 L 311.8 416.9 M 311.8 416.9 L 305 423 M 305 423 L 304.9 423 M 304.9 423 L 296.8 427.3 M 296.8 427.3 L 296.7 427.3 M 296.7 427.3 L 287.8 429.5 M 287.8 429.5 L 287.7 429.5 M 287.7 429.5 L 278.5 429.5 M 278.5 429.5 L 278.4 429.5 M 278.4 429.5 L 269.5 427.3 M 269.5 427.3 L 269.4 427.3 M 269.4 427.3 L 261.3 423 M 261.3 423 L 261.2 423 M 261.2 423 L 254.4 416.9 M 254.4 416.9 L 254.3 416.8 M 254.3 416.8 L 249.1 409.3 M 249.1 409.3 L 249 409.2 M 249 409.2 L 245.8 400.6 M 245.8 400.6 L 245.8 400.5 M 245.8 400.5 L 245.1 394.7 M 245.1 394.7 L 242.4 394.7 M 242.4 394.7 L 241.7 400.5 M 241.7 400.5 L 241.7 400.6 M 241.7 400.6 L 238.4 409.2 M 238.4 409.2 L 238.4 409.3 M 238.4 409.3 L 233.2 416.8 M 233.2 416.8 L 233.1 416.9 M 233.1 416.9 L 226.2 423 M 226.2 423 L 226.1 423 M 226.1 423 L 218.1 427.3 M 218.1 427.3 L 217.9 427.3 M 217.9 427.3 L 209 429.5 M 209 429.5 L 208.9 429.5 M 208.9 429.5 L 199.8 429.5 M 199.8 429.5 L 199.7 429.5 M 199.7 429.5 L 190.8 427.3 M 190.8 427.3 L 190.6 427.3 M 190.6 427.3 L 182.6 423 M 182.6 423 L 182.5 423 M 182.5 423 L 175.6 416.9 M 175.6 416.9 L 175.5 416.8 M 175.5 416.8 L 170.3 409.3 M 170.3 409.3 L 170.3 409.2 M 170.3 409.2 L 167 400.6 M 167 400.6 L 167 400.5 M 167 400.5 L 165.9 391.4 M 165.9 391.4 L 165.9 391.3 M 165.9 391.3 L 167 382.2 M 167 382.2 L 167 382.1 M 167 382.1 L 170.3 373.6 M 170.3 373.6 L 170.3 373.4 M 170.3 373.4 L 175.5 365.9 M 175.5 365.9 L 175.6 365.8 M 175.6 365.8 L 182.5 359.7 M 182.5 359.7 L 182.6 359.7 M 182.6 359.7 L 190.6 355.5 M 190.6 355.5 L 190.8 355.4 M 190.8 355.4 L 199.7 353.2 M 199.7 353.2 L 199.8 353.2 M 199.8 353.2 L 208.9 353.2 M 208.9 353.2 L 209 353.2 M 552.6 228.7 L 552.6 228.7 M 552.6 228.7 L 552.6 238 M 552.6 238 L 558.5 238 M 558.5 238 L 558.5 228.7 M 558.5 228.7 L 559.2 228.1 M 559.2 228.1 L 567.3 230.1 M 567.3 230.1 L 567.5 230.1 M 567.5 230.1 L 574.5 233.8 M 574.5 233.8 L 574.6 233.9 M 574.6 233.9 L 580.6 239.2 M 580.6 239.2 L 580.6 239.3 M 580.6 239.3 L 585.2 245.8 M 585.2 245.8 L 585.3 245.9 M 585.3 245.9 L 588.1 253.4 M 588.1 253.4 L 588.1 253.5 M 588.1 253.5 L 589 261.4 M 589 261.4 L 589 261.5 M 589 261.5 L 588.1 269.4 M 588.1 269.4 L 588.1 269.5 M 588.1 269.5 L 585.3 276.9 M 585.3 276.9 L 585.2 277.1 M 585.2 277.1 L 580.6 283.6 M 580.6 283.6 L 580.6 283.7 M 580.6 283.7 L 574.6 289 M 574.6 289 L 574.5 289.1 M 574.5 289.1 L 567.5 292.8 M 567.5 292.8 L 567.3 292.8 M 567.3 292.8 L 559.2 294.8 M 559.2 294.8 L 558.5 294.2 M 558.5 294.2 L 558.5 284.9 M 558.5 284.9 L 552.6 284.9 M 552.6 284.9 L 552.6 294.2 M 552.6 294.2 L 551.8 294.8 M 551.8 294.8 L 543.7 292.8 M 543.7 292.8 L 543.6 292.8 M 543.6 292.8 L 536.6 289.1 M 536.6 289.1 L 536.4 289 M 536.4 289 L 530.5 283.7 M 530.5 283.7 L 530.4 283.6 M 530.4 283.6 L 525.9 277.1 M 525.9 277.1 L 525.8 276.9 M 525.8 276.9 L 523 269.5 M 523 269.5 L 523 269.4 M 523 269.4 L 522.5 265.1 M 522.5 265.1 L 523.1 264.4 M 523.1 264.4 L 531.9 264.4 M 531.9 264.4 L 531.9 258.5 M 531.9 258.5 L 523.1 258.5 M 523.1 258.5 L 522.5 257.8 M 522.5 257.8 L 523 253.5 M 523 253.5 L 523 253.4 M 523 253.4 L 525.8 245.9 M 525.8 245.9 L 525.9 245.8 M 525.9 245.8 L 530.4 239.3 M 530.4 239.3 L 530.5 239.2 M 530.5 239.2 L 536.4 233.9 M 536.4 233.9 L 536.6 233.8 M 536.6 233.8 L 543.6 230.1 M 543.6 230.1 L 543.7 230.1 M 543.7 230.1 L 551.8 228.1 M 551.8 228.1 L 552.6 228.7 M 28.2 29.2 L 342.7 29.2 M 28.2 31.1 L 344.6 31.1 M 28.2 33.1 L 346.6 33.1 M 28.2 35 L 348.5 35 M 28.2 36.9 L 350.5 36.9 M 28.2 38.9 L 352.4 38.9 M 28.2 40.8 L 354.4 40.8 M 28.2 42.8 L 356.3 42.8 M 28.2 44.7 L 358.3 44.7 M 28.2 46.7 L 360.2 46.7 M 28.2 48.6 L 362.2 48.6 M 28.2 50.6 L 364.1 50.6 M 28.2 52.5 L 366.1 52.5 M 28.2 54.5 L 368 54.5 M 28.2 56.4 L 370 56.4 M 28.2 58.4 L 371.9 58.4 M 28.2 60.3 L 373.9 60.3 M 28.2 62.3 L 375.8 62.3 M 28.2 64.2 L 377.8 64.2 M 28.2 66.2 L 379.7 66.2 M 28.2 68.1 L 754.5 68.1 M 28.2 70.1 L 754.5 70.1 M 28.2 72 L 754.5 72 M 28.2 74 L 754.5 74 M 28.2 75.9 L 754.5 75.9 M 28.2 77.9 L 754.5 77.9 M 28.2 79.8 L 754.5 79.8 M 28.2 81.8 L 754.5 81.8 M 28.2 83.7 L 754.5 83.7 M 28.2 85.7 L 754.5 85.7 M 28.2 87.6 L 754.5 87.6 M 28.2 89.6 L 754.5 89.6 M 28.2 91.5 L 754.5 91.5 M 28.2 93.5 L 754.5 93.5 M 28.2 95.5 L 754.5 95.5 M 28.2 97.4 L 754.5 97.4 M 28.2 99.4 L 754.5 99.4 M 28.2 101.3 L 754.5 101.3 M 28.2 103.2 L 754.5 103.2 M 28.2 105.2 L 754.5 105.2 M 28.2 107.1 L 754.5 107.1 M 28.2 109.1 L 754.5 109.1 M 28.2 111 L 754.5 111 M 28.2 113 L 754.5 113 M 28.2 114.9 L 754.5 114.9 M 28.2 116.9 L 754.5 116.9 M 28.2 118.8 L 754.5 118.8 M 28.2 120.8 L 754.5 120.8 M 28.2 122.7 L 754.5 122.7 M 28.2 124.7 L 754.5 124.7 M 28.2 126.6 L 754.5 126.6 M 28.2 128.6 L 754.5 128.6 M 28.2 130.5 L 754.5 130.5 M 28.2 132.5 L 754.5 132.5 M 28.2 134.4 L 754.5 134.4 M 28.2 136.4 L 754.5 136.4 M 28.2 138.3 L 754.5 138.3 M 28.2 140.3 L 754.5 140.3 M 28.2 142.2 L 754.5 142.2 M 28.2 144.2 L 754.5 144.2 M 28.2 146.1 L 754.5 146.1 M 28.2 148.1 L 754.5 148.1 M 28.2 150 L 754.5 150 M 28.2 152 L 754.5 152 M 28.2 153.9 L 754.5 153.9 M 28.2 155.9 L 754.5 155.9 M 28.2 157.9 L 754.5 157.9 M 28.2 159.8 L 754.5 159.8 M 28.2 161.8 L 754.5 161.8 M 28.2 163.7 L 754.5 163.7 M 28.2 165.6 L 754.5 165.6 M 28.2 167.6 L 754.5 167.6 M 28.2 169.5 L 754.5 169.5 M 28.2 171.5 L 754.5 171.5 M 28.2 173.4 L 754.5 173.4 M 28.2 175.4 L 754.5 175.4 M 28.2 177.3 L 753.9 177.3 M 28.2 179.3 L 751.9 179.3 M 28.2 181.2 L 750 181.2 M 28.2 183.2 L 748.1 183.2 M 28.2 185.1 L 746.1 185.1 M 28.2 187.1 L 744.2 187.1 M 28.2 189 L 742.2 189 M 28.2 191 L 740.3 191 M 28.2 192.9 L 738.3 192.9 M 28.2 194.9 L 736.4 194.9 M 28.2 196.8 L 734.6 196.8 M 28.2 198.8 L 733 198.8 M 28.2 200.7 L 731.5 200.7 M 28.2 202.7 L 730.5 202.7 M 28.2 204.6 L 729.4 204.6 M 28.2 206.6 L 728.7 206.6 M 28.2 208.5 L 728.1 208.5 M 28.2 210.5 L 727.5 210.5 M 28.2 212.4 L 727.3 212.4 M 28.2 214.4 L 727.1 214.4 M 28.2 216.3 L 726.9 216.3 M 28.2 218.3 L 726.9 218.3 M 28.2 220.2 L 726.9 220.2 M 28.2 222.2 L 726.9 222.2 M 28.2 224.2 L 726.9 224.2 M 28.2 226.1 L 726.9 226.1 M 28.2 228.1 L 429.5 228.1 M 481.6 228.1 L 726.9 228.1 M 28.2 230 L 425.3 230 M 485.8 230 L 544.1 230 M 552.6 230 L 558.5 230 M 567 230 L 726.9 230 M 28.2 231.9 L 423.5 231.9 M 487.6 231.9 L 540.1 231.9 M 552.6 231.9 L 558.5 231.9 M 570.9 231.9 L 726.9 231.9 M 28.2 233.9 L 307.3 233.9 M 488.5 233.9 L 536.4 233.9 M 552.6 233.9 L 558.5 233.9 M 574.6 233.9 L 726.9 233.9 M 28.2 235.8 L 302.1 235.8 M 489 235.8 L 534.2 235.8 M 552.6 235.8 L 558.5 235.8 M 576.8 235.8 L 726.9 235.8 M 28.2 237.8 L 298.5 237.8 M 489 237.8 L 532 237.8 M 552.6 237.8 L 558.5 237.8 M 579 237.8 L 726.9 237.8 M 28.2 239.7 L 296.2 239.7 M 489 239.7 L 530.1 239.7 M 581 239.7 L 726.9 239.7 M 28.2 241.7 L 293.9 241.7 M 489 241.7 L 528.7 241.7 M 582.3 241.7 L 726.9 241.7 M 28.2 243.6 L 291.9 243.6 M 489 243.6 L 527.4 243.6 M 583.7 243.6 L 726.9 243.6 M 28.2 245.6 L 290 245.6 M 489 245.6 L 526 245.6 M 585 245.6 L 726 245.6 M 28.2 247.5 L 288.1 247.5 M 489 247.5 L 525.2 247.5 M 585.8 247.5 L 725.2 247.5 M 28.2 249.5 L 286.1 249.5 M 489 249.5 L 524.5 249.5 M 586.6 249.5 L 724.5 249.5 M 28.2 251.4 L 284.2 251.4 M 489 251.4 L 523.7 251.4 M 587.3 251.4 L 723.7 251.4 M 28.2 253.4 L 282.2 253.4 M 489 253.4 L 523 253.4 M 588.1 253.4 L 723 253.4 M 28.2 255.3 L 197.4 255.3 M 201.4 255.3 L 207.3 255.3 M 211.3 255.3 L 249.8 255.3 M 489 255.3 L 522.7 255.3 M 588.3 255.3 L 722.7 255.3 M 28.2 257.3 L 190.1 257.3 M 201.4 257.3 L 207.3 257.3 M 218.6 257.3 L 247.1 257.3 M 489 257.3 L 522.5 257.3 M 588.6 257.3 L 722.5 257.3 M 28.2 259.2 L 186.4 259.2 M 201.4 259.2 L 207.3 259.2 M 222.3 259.2 L 245.7 259.2 M 489 259.2 L 531.9 259.2 M 588.8 259.2 L 722.3 259.2 M 28.2 261.2 L 182.7 261.2 M 201.4 261.2 L 207.3 261.2 M 226 261.2 L 244.9 261.2 M 489 261.2 L 531.9 261.2 M 589 261.2 L 722 261.2 M 28.2 263.1 L 180.4 263.1 M 201.4 263.1 L 207.3 263.1 M 228.3 263.1 L 244.7 263.1 M 489 263.1 L 531.9 263.1 M 588.8 263.1 L 722.2 263.1 M 28.2 265.1 L 178.2 265.1 M 230.5 265.1 L 244.7 265.1 M 489 265.1 L 522.5 265.1 M 588.6 265.1 L 722.5 265.1 M 28.2 267 L 176 267 M 232.7 267 L 244.7 267 M 489 267 L 522.7 267 M 588.4 267 L 722.7 267 M 28.2 269 L 174.5 269 M 234.2 269 L 244.7 269 M 489 269 L 522.9 269 M 588.1 269 L 722.9 269 M 28.2 270.9 L 173.2 270.9 M 235.5 270.9 L 244.7 270.9 M 489 270.9 L 523.5 270.9 M 587.5 270.9 L 723.5 270.9 M 28.2 272.9 L 171.8 272.9 M 236.9 272.9 L 244.7 272.9 M 489 272.9 L 524.3 272.9 M 586.8 272.9 L 724.3 272.9 M 28.2 274.8 L 170.5 274.8 M 238.2 274.8 L 244.7 274.8 M 489 274.8 L 525 274.8 M 586 274.8 L 725 274.8 M 28.2 276.8 L 169.7 276.8 M 239 276.8 L 244.7 276.8 M 489 276.8 L 525.8 276.8 M 585.3 276.8 L 725.8 276.8 M 28.2 278.7 L 168.9 278.7 M 239.8 278.7 L 244.7 278.7 M 489 278.7 L 527 278.7 M 584 278.7 L 727 278.7 M 28.2 280.7 L 168.2 280.7 M 240.5 280.7 L 244.7 280.7 M 489 280.7 L 528.4 280.7 M 582.7 280.7 L 728.4 280.7 M 28.2 282.6 L 167.4 282.6 M 241.3 282.6 L 244.7 282.6 M 489 282.6 L 529.7 282.6 M 581.4 282.6 L 729.7 282.6 M 28.2 284.6 L 166.9 284.6 M 241.8 284.6 L 244.7 284.6 M 489 284.6 L 531.5 284.6 M 579.6 284.6 L 731.5 284.6 M 28.2 286.5 L 166.7 286.5 M 489 286.5 L 533.7 286.5 M 552.6 286.5 L 558.5 286.5 M 577.4 286.5 L 733.7 286.5 M 28.2 288.5 L 166.4 288.5 M 488.7 288.5 L 535.9 288.5 M 552.6 288.5 L 558.5 288.5 M 575.2 288.5 L 735.9 288.5 M 28.2 290.5 L 175.8 290.5 M 326 290.5 L 423.2 290.5 M 487.9 290.5 L 539.2 290.5 M 552.6 290.5 L 558.5 290.5 M 571.9 290.5 L 739.2 290.5 M 28.2 292.4 L 175.8 292.4 M 324.1 292.4 L 424.7 292.4 M 486.4 292.4 L 542.9 292.4 M 552.6 292.4 L 558.5 292.4 M 568.2 292.4 L 742.9 292.4 M 28.2 294.4 L 175.8 294.4 M 322.1 294.4 L 426.9 294.4 M 484.1 294.4 L 549.9 294.4 M 552.4 294.4 L 558.6 294.4 M 561.1 294.4 L 749.9 294.4 M 28.2 296.3 L 166.6 296.3 M 321.5 296.3 L 426.9 296.3 M 484.1 296.3 L 754.5 296.3 M 28.2 298.2 L 166.6 298.2 M 321.5 298.2 L 426.9 298.2 M 484.1 298.2 L 754.5 298.2 M 28.2 300.2 L 166.8 300.2 M 321.5 300.2 L 426.9 300.2 M 484.1 300.2 L 754.5 300.2 M 28.2 302.1 L 167 302.1 M 241.7 302.1 L 244.7 302.1 M 321.5 302.1 L 426.9 302.1 M 484.1 302.1 L 754.5 302.1 M 28.2 304.1 L 167.8 304.1 M 240.9 304.1 L 244.7 304.1 M 321.5 304.1 L 426.9 304.1 M 484.1 304.1 L 754.5 304.1 M 28.2 306 L 168.5 306 M 240.2 306 L 244.7 306 M 321.5 306 L 426.9 306 M 484.1 306 L 754.5 306 M 28.2 308 L 169.2 308 M 239.5 308 L 244.7 308 M 321.5 308 L 426.9 308 M 484.1 308 L 754.5 308 M 28.2 309.9 L 170 309.9 M 238.7 309.9 L 244.7 309.9 M 321.5 309.9 L 426.9 309.9 M 484.1 309.9 L 754.5 309.9 M 28.2 311.9 L 171 311.9 M 237.7 311.9 L 244.7 311.9 M 321.5 311.9 L 426.9 311.9 M 484.1 311.9 L 754.5 311.9 M 28.2 313.8 L 172.4 313.8 M 236.3 313.8 L 244.7 313.8 M 321.5 313.8 L 426.9 313.8 M 484.1 313.8 L 754.5 313.8 M 28.2 315.8 L 173.8 315.8 M 234.9 315.8 L 244.7 315.8 M 321.5 315.8 L 426.9 315.8 M 484.1 315.8 L 754.5 315.8 M 28.2 317.7 L 175.1 317.7 M 233.6 317.7 L 244.7 317.7 M 321.5 317.7 L 426.9 317.7 M 484.1 317.7 L 754.5 317.7 M 28.2 319.7 L 177 319.7 M 231.7 319.7 L 244.7 319.7 M 321.5 319.7 L 426.9 319.7 M 484.1 319.7 L 754.5 319.7 M 28.2 321.6 L 179.2 321.6 M 201.4 321.6 L 207.3 321.6 M 229.5 321.6 L 244.7 321.6 M 321.5 321.6 L 426.9 321.6 M 484.1 321.6 L 754.5 321.6 M 28.2 323.6 L 181.4 323.6 M 201.4 323.6 L 207.3 323.6 M 227.3 323.6 L 244.7 323.6 M 321.4 323.6 L 426.9 323.6 M 484.1 323.6 L 754.5 323.6 M 28.2 325.5 L 184.4 325.5 M 201.4 325.5 L 207.3 325.5 M 224.4 325.5 L 245.2 325.5 M 321 325.5 L 426.9 325.5 M 484.1 325.5 L 754.5 325.5 M 28.2 327.5 L 188.1 327.5 M 201.4 327.5 L 207.3 327.5 M 220.6 327.5 L 246.2 327.5 M 320 327.5 L 426.9 327.5 M 484.1 327.5 L 754.5 327.5 M 28.2 329.4 L 193 329.4 M 201.4 329.4 L 207.3 329.4 M 215.7 329.4 L 248.1 329.4 M 318.1 329.4 L 426.9 329.4 M 484.1 329.4 L 754.5 329.4 M 28.2 331.4 L 426.9 331.4 M 484.1 331.4 L 754.5 331.4 M 28.2 333.3 L 426.9 333.3 M 484.1 333.3 L 754.5 333.3 M 28.2 335.3 L 426.9 335.3 M 484.1 335.3 L 754.5 335.3 M 28.2 337.2 L 426.9 337.2 M 484.1 337.2 L 754.5 337.2 M 28.2 339.2 L 426.9 339.2 M 484.1 339.2 L 754.5 339.2 M 28.2 341.1 L 426.9 341.1 M 484.1 341.1 L 754.5 341.1 M 28.2 343.1 L 426.9 343.1 M 484.1 343.1 L 754.5 343.1 M 28.2 345 L 426.9 345 M 484.1 345 L 754.5 345 M 28.2 347 L 426.9 347 M 484.1 347 L 754.5 347 M 28.2 348.9 L 426.9 348.9 M 484.1 348.9 L 754.5 348.9 M 28.2 350.9 L 426.9 350.9 M 484.1 350.9 L 754.5 350.9 M 28.2 352.9 L 426.9 352.9 M 484.1 352.9 L 754.5 352.9 M 28.2 354.8 L 193.2 354.8 M 215.5 354.8 L 272 354.8 M 294.2 354.8 L 426.9 354.8 M 484.1 354.8 L 754.5 354.8 M 28.2 356.8 L 188.2 356.8 M 220.5 356.8 L 266.9 356.8 M 299.3 356.8 L 426.9 356.8 M 484.1 356.8 L 754.5 356.8 M 28.2 358.7 L 184.5 358.7 M 224.2 358.7 L 263.2 358.7 M 303 358.7 L 426.9 358.7 M 484.1 358.7 L 754.5 358.7 M 28.2 360.6 L 181.5 360.6 M 227.2 360.6 L 260.2 360.6 M 306 360.6 L 426.9 360.6 M 484.1 360.6 L 754.5 360.6 M 28.2 362.6 L 179.3 362.6 M 229.4 362.6 L 258 362.6 M 308.2 362.6 L 426.9 362.6 M 484.1 362.6 L 754.5 362.6 M 28.2 364.5 L 177.1 364.5 M 231.6 364.5 L 255.8 364.5 M 310.4 364.5 L 426.9 364.5 M 484.1 364.5 L 754.5 364.5 M 28.2 366.5 L 175.1 366.5 M 233.6 366.5 L 253.9 366.5 M 312.3 366.5 L 426.9 366.5 M 484.1 366.5 L 754.5 366.5 M 28.2 368.4 L 173.8 368.4 M 234.9 368.4 L 252.5 368.4 M 313.6 368.4 L 426.9 368.4 M 484.1 368.4 L 754.5 368.4 M 28.2 370.4 L 172.5 370.4 M 236.2 370.4 L 251.2 370.4 M 315 370.4 L 426.9 370.4 M 484.1 370.4 L 754.5 370.4 M 28.2 372.3 L 171.1 372.3 M 237.6 372.3 L 249.9 372.3 M 316.3 372.3 L 426.9 372.3 M 484.1 372.3 L 754.5 372.3 M 28.2 374.3 L 170 374.3 M 238.7 374.3 L 248.8 374.3 M 317.4 374.3 L 426.9 374.3 M 484.1 374.3 L 754.5 374.3 M 28.2 376.2 L 169.3 376.2 M 239.4 376.2 L 248 376.2 M 318.2 376.2 L 426.9 376.2 M 484.1 376.2 L 754.5 376.2 M 28.2 378.2 L 168.5 378.2 M 240.2 378.2 L 247.3 378.2 M 318.9 378.2 L 426.9 378.2 M 484.1 378.2 L 754.5 378.2 M 28.2 380.1 L 167.8 380.1 M 240.9 380.1 L 246.5 380.1 M 319.7 380.1 L 426.9 380.1 M 484.1 380.1 L 754.5 380.1 M 28.2 382.1 L 167 382.1 M 241.7 382.1 L 245.8 382.1 M 320.4 382.1 L 426.9 382.1 M 484.1 382.1 L 754.5 382.1 M 28.2 384 L 166.8 384 M 241.9 384 L 245.5 384 M 320.6 384 L 426.9 384 M 484.1 384 L 754.5 384 M 28.2 386 L 166.6 386 M 242.1 386 L 245.3 386 M 320.9 386 L 426.9 386 M 484.1 386 L 754.5 386 M 28.2 387.9 L 166.3 387.9 M 242.4 387.9 L 245.1 387.9 M 321.1 387.9 L 426.9 387.9 M 484.1 387.9 L 754.5 387.9 M 28.2 389.9 L 166.1 389.9 M 321.4 389.9 L 426.9 389.9 M 484.1 389.9 L 754.5 389.9 M 28.2 391.8 L 166 391.8 M 321.5 391.8 L 426.9 391.8 M 484.1 391.8 L 754.5 391.8 M 28.2 393.8 L 166.2 393.8 M 321.2 393.8 L 426.9 393.8 M 484.1 393.8 L 754.5 393.8 M 28.2 395.7 L 166.4 395.7 M 242.3 395.7 L 245.2 395.7 M 321 395.7 L 426.9 395.7 M 484.1 395.7 L 754.5 395.7 M 28.2 397.7 L 166.7 397.7 M 242 397.7 L 245.4 397.7 M 320.8 397.7 L 426.9 397.7 M 484.1 397.7 L 754.5 397.7 M 28.2 399.6 L 166.9 399.6 M 241.8 399.6 L 245.6 399.6 M 320.5 399.6 L 426.9 399.6 M 484.1 399.6 L 754.5 399.6 M 28.2 401.6 L 167.4 401.6 M 241.3 401.6 L 246.2 401.6 M 320 401.6 L 426.9 401.6 M 484.1 401.6 L 754.5 401.6 M 28.2 403.5 L 168.1 403.5 M 240.6 403.5 L 246.9 403.5 M 319.3 403.5 L 426.9 403.5 M 484.1 403.5 L 754.5 403.5 M 28.2 405.5 L 168.9 405.5 M 239.8 405.5 L 247.6 405.5 M 318.6 405.5 L 426.9 405.5 M 484.1 405.5 L 754.5 405.5 M 28.2 407.4 L 169.6 407.4 M 239.1 407.4 L 248.4 407.4 M 317.8 407.4 L 426.9 407.4 M 484.1 407.4 L 754.5 407.4 M 28.2 409.4 L 170.4 409.4 M 238.3 409.4 L 249.2 409.4 M 317 409.4 L 426.9 409.4 M 484.1 409.4 L 754.5 409.4 M 28.2 411.3 L 171.8 411.3 M 236.9 411.3 L 250.5 411.3 M 315.7 411.3 L 426.9 411.3 M 484.1 411.3 L 754.5 411.3 M 28.2 413.3 L 173.1 413.3 M 235.6 413.3 L 251.8 413.3 M 314.4 413.3 L 426.9 413.3 M 484.1 413.3 L 754.5 413.3 M 28.2 415.2 L 174.5 415.2 M 234.2 415.2 L 253.2 415.2 M 313 415.2 L 426.9 415.2 M 484.1 415.2 L 754.5 415.2 M 28.2 417.2 L 176 417.2 M 232.7 417.2 L 254.7 417.2 M 311.5 417.2 L 426.9 417.2 M 484.1 417.2 L 754.5 417.2 M 28.2 419.2 L 178.1 419.2 M 230.6 419.2 L 256.9 419.2 M 309.3 419.2 L 426.9 419.2 M 484.1 419.2 L 754.5 419.2 M 28.2 421.1 L 180.3 421.1 M 228.4 421.1 L 259.1 421.1 M 307.1 421.1 L 426.9 421.1 M 484.1 421.1 L 754.5 421.1 M 28.2 423.1 L 182.6 423.1 M 226.1 423.1 L 261.3 423.1 M 304.9 423.1 L 426.9 423.1 M 484.1 423.1 L 754.5 423.1 M 28.2 425 L 186.3 425 M 222.4 425 L 265 425 M 301.2 425 L 426.9 425 M 484.1 425 L 754.5 425 M 28.2 426.9 L 190 426.9 M 218.7 426.9 L 268.8 426.9 M 297.4 426.9 L 426.9 426.9 M 484.1 426.9 L 754.5 426.9 M 28.2 428.9 L 197.1 428.9 M 211.6 428.9 L 275.8 428.9 M 290.3 428.9 L 426.9 428.9 M 484.1 428.9 L 754.5 428.9 M 28.2 430.8 L 426.9 430.8 M 484.1 430.8 L 754.5 430.8 M 28.2 432.8 L 426.9 432.8 M 484.1 432.8 L 754.5 432.8 M 28.2 434.7 L 426.9 434.7 M 484.1 434.7 L 754.5 434.7 M 28.2 436.7 L 426.9 436.7 M 484.1 436.7 L 754.5 436.7 M 28.2 438.6 L 426.9 438.6 M 484.1 438.6 L 754.5 438.6 M 28.2 440.6 L 426.9 440.6 M 484.1 440.6 L 754.5 440.6 M 28.2 442.5 L 426.9 442.5 M 484.1 442.5 L 754.5 442.5 M 28.2 444.5 L 426.9 444.5 M 484.1 444.5 L 754.5 444.5 M 28.2 446.4 L 426.9 446.4 M 484.1 446.4 L 754.5 446.4 M 28.2 448.4 L 426.9 448.4 M 484.1 448.4 L 754.5 448.4 M 28.2 450.3 L 426.9 450.3 M 484.1 450.3 L 754.5 450.3 M 28.2 452.3 L 426.9 452.3 M 484.1 452.3 L 754.5 452.3 M 28.2 454.2 L 426.9 454.2 M 484.1 454.2 L 754.5 454.2 M 28.2 456.2 L 426.9 456.2 M 484.1 456.2 L 754.5 456.2 M 28.2 458.1 L 426.9 458.1 M 484.1 458.1 L 754.5 458.1 M 28.2 460.1 L 426.9 460.1 M 484.1 460.1 L 754.5 460.1 M 28.2 462 L 426.9 462 M 484.1 462 L 754.5 462 M 28.2 464 L 426.9 464 M 484.1 464 L 754.5 464 M 28.2 465.9 L 426.9 465.9 M 484.1 465.9 L 754.5 465.9 M 28.2 467.9 L 426.9 467.9 M 484.1 467.9 L 754.5 467.9 M 28.2 469.8 L 426.9 469.8 M 484.1 469.8 L 754.5 469.8 M 28.2 471.8 L 426.9 471.8 M 484.1 471.8 L 754.5 471.8 M 28.2 473.7 L 426.9 473.7 M 484.1 473.7 L 754.5 473.7 M 28.2 475.7 L 426.9 475.7 M 484.1 475.7 L 754.5 475.7 M 28.2 477.6 L 426.9 477.6 M 484.1 477.6 L 754.5 477.6 M 28.2 479.6 L 426.9 479.6 M 484.1 479.6 L 754.5 479.6 M 28.2 481.5 L 426.9 481.5 M 484.1 481.5 L 754.5 481.5 M 28.2 483.5 L 426.9 483.5 M 484.1 483.5 L 754.5 483.5 M 28.2 485.5 L 426.9 485.5 M 484.1 485.5 L 754.5 485.5 M 28.2 487.4 L 426.9 487.4 M 484.1 487.4 L 754.5 487.4 M 28.2 489.4 L 426.9 489.4 M 484.1 489.4 L 754.5 489.4 M 28.2 491.3 L 426.9 491.3 M 484.1 491.3 L 754.5 491.3 M 28.2 493.2 L 426.9 493.2 M 484.1 493.2 L 754.5 493.2 M 28.2 495.2 L 426.9 495.2 M 484.1 495.2 L 754.5 495.2 M 28.2 497.1 L 426.9 497.1 M 484.1 497.1 L 754.5 497.1 M 28.2 499.1 L 426.9 499.1 M 484.1 499.1 L 754.5 499.1 M 28.2 501 L 426.9 501 M 484.1 501 L 754.5 501 M 28.2 503 L 426.9 503 M 484.1 503 L 754.5 503 M 28.2 504.9 L 426.9 504.9 M 484.1 504.9 L 754.5 504.9 M 28.2 506.9 L 426.9 506.9 M 484.1 506.9 L 754.5 506.9 M 28.2 508.8 L 426.9 508.8 M 484.1 508.8 L 754.5 508.8 M 28.2 510.8 L 426.2 510.8 M 484.9 510.8 L 546.9 510.8 M 552.6 510.8 L 558.5 510.8 M 564.2 510.8 L 746.9 510.8 M 752.6 510.8 L 758.5 510.8 M 28.2 512.7 L 424 512.7 M 487.1 512.7 L 541.4 512.7 M 552.6 512.7 L 558.5 512.7 M 569.6 512.7 L 741.4 512.7 M 752.6 512.7 L 758.5 512.7 M 28.2 514.7 L 422.8 514.7 M 488.2 514.7 L 537.7 514.7 M 552.6 514.7 L 558.5 514.7 M 573.3 514.7 L 737.7 514.7 M 752.6 514.7 L 758.5 514.7 M 28.2 516.6 L 422.2 516.6 M 488.9 516.6 L 535 516.6 M 552.6 516.6 L 558.5 516.6 M 576 516.6 L 735 516.6 M 752.6 516.6 L 758.5 516.6 M 28.2 518.6 L 422 518.6 M 489 518.6 L 532.8 518.6 M 552.6 518.6 L 558.5 518.6 M 578.2 518.6 L 732.8 518.6 M 752.6 518.6 L 758.5 518.6 M 28.2 520.5 L 422 520.5 M 489 520.5 L 530.6 520.5 M 580.5 520.5 L 730.6 520.5 M 28.2 522.5 L 422 522.5 M 489 522.5 L 529.2 522.5 M 581.9 522.5 L 729.2 522.5 M 28.2 524.4 L 422 524.4 M 489 524.4 L 527.9 524.4 M 583.2 524.4 L 727.9 524.4 M 28.2 526.4 L 422 526.4 M 489 526.4 L 526.5 526.4 M 584.5 526.4 L 726.5 526.4 M 28.2 528.3 L 422 528.3 M 489 528.3 L 525.5 528.3 M 585.6 528.3 L 725.5 528.3 M 28.2 530.3 L 422 530.3 M 489 530.3 L 524.7 530.3 M 586.3 530.3 L 724.7 530.3 M 28.2 532.2 L 422 532.2 M 489 532.2 L 524 532.2 M 587.1 532.2 L 724 532.2 M 28.2 534.2 L 422 534.2 M 489 534.2 L 523.2 534.2 M 587.8 534.2 L 723.2 534.2 M 28.2 536.1 L 422 536.1 M 489 536.1 L 522.8 536.1 M 588.2 536.1 L 722.8 536.1 M 28.2 538.1 L 422 538.1 M 489 538.1 L 522.6 538.1 M 588.5 538.1 L 722.6 538.1 M 28.2 540 L 422 540 M 489 540 L 531.9 540 M 588.7 540 L 722.3 540 M 28.2 542 L 422 542 M 489 542 L 531.9 542 M 589 542 L 722.1 542 M 28.2 543.9 L 422 543.9 M 489 543.9 L 531.9 543.9 M 588.9 543.9 L 722.1 543.9 M 28.2 545.9 L 422 545.9 M 489 545.9 L 523 545.9 M 588.7 545.9 L 722.4 545.9 M 28.2 547.9 L 422 547.9 M 489 547.9 L 522.6 547.9 M 588.4 547.9 L 722.6 547.9 M 28.2 549.8 L 422 549.8 M 489 549.8 L 522.9 549.8 M 588.2 549.8 L 722.9 549.8 M 28.2 551.8 L 422 551.8 M 489 551.8 L 523.3 551.8 M 587.8 551.8 L 723.3 551.8 M 28.2 553.7 L 422 553.7 M 489 553.7 L 524 553.7 M 587.1 553.7 L 724 553.7 M 28.2 555.6 L 422 555.6 M 489 555.6 L 524.7 555.6 M 586.3 555.6 L 724.7 555.6 M 28.2 557.6 L 422 557.6 M 489 557.6 L 525.5 557.6 M 585.6 557.6 L 725.5 557.6 M 28.2 559.5 L 422 559.5 M 489 559.5 L 526.6 559.5 M 584.5 559.5 L 726.6 559.5 M 28.2 561.5 L 422 561.5 M 489 561.5 L 527.9 561.5 M 583.2 561.5 L 727.9 561.5 M 28.2 563.4 L 422 563.4 M 489 563.4 L 529.2 563.4 M 581.8 563.4 L 729.2 563.4 M 28.2 565.4 L 422 565.4 M 489 565.4 L 530.7 565.4 M 580.4 565.4 L 730.7 565.4 M 28.2 567.3 L 422 567.3 M 489 567.3 L 532.9 567.3 M 552.6 567.3 L 558.5 567.3 M 578.2 567.3 L 732.9 567.3 M 752.6 567.3 L 758.5 567.3 M 28.2 569.3 L 422.2 569.3 M 488.9 569.3 L 535.1 569.3 M 552.6 569.3 L 558.5 569.3 M 576 569.3 L 735.1 569.3 M 752.6 569.3 L 758.5 569.3 M 28.2 571.2 L 422.8 571.2 M 488.2 571.2 L 537.9 571.2 M 552.6 571.2 L 558.5 571.2 M 573.2 571.2 L 737.9 571.2 M 752.6 571.2 L 758.5 571.2 M 28.2 573.2 L 424.1 573.2 M 487 573.2 L 541.6 573.2 M 552.6 573.2 L 558.5 573.2 M 569.5 573.2 L 741.6 573.2 M 752.6 573.2 L 758.5 573.2 M 28.2 575.1 L 426.3 575.1 M 484.7 575.1 L 547.1 575.1 M 552.6 575.1 L 558.5 575.1 M 564 575.1 L 747.1 575.1 M 752.6 575.1 L 758.5 575.1 M 28.2 577.1 L 754.5 577.1 M 28.2 579 L 754.5 579 M 28.2 581 L 754.5 581 M 28.2 582.9 L 754.5 582.9 M 28.2 584.9 L 754.5 584.9 M 28.2 586.8 L 754.5 586.8 M 28.2 588.8 L 754.5 588.8 M 28.2 590.7 L 754.5 590.7 M 28.2 592.7 L 754.5 592.7 M 28.2 594.6 L 754.5 594.6 M 28.2 596.6 L 754.5 596.6 M 28.2 598.5 L 754.5 598.5 M 28.2 600.5 L 754.5 600.5 M 28.2 602.4 L 754.5 602.4 M 28.2 604.4 L 754.5 604.4 M 28.2 606.3 L 754.5 606.3 M 28.2 608.3 L 754.5 608.3 M 28.2 610.2 L 754.5 610.2 M 28.2 612.2 L 754.5 612.2 M 28.2 614.2 L 754.5 614.2 M 28.2 616.1 L 754.5 616.1 M 28.2 618.1 L 379.8 618.1 M 28.2 620 L 377.9 620 M 28.2 621.9 L 375.9 621.9 M 28.2 623.9 L 374 623.9 M 28.2 625.8 L 372 625.8 M 28.2 627.8 L 370.1 627.8 M 28.2 629.7 L 368.1 629.7 M 28.2 631.7 L 366.2 631.7 M 28.2 633.6 L 364.2 633.6 M 28.2 635.6 L 362.3 635.6 M 28.2 637.5 L 360.3 637.5 M 28.2 639.5 L 358.4 639.5 M 28.2 641.4 L 356.4 641.4 M 28.2 643.4 L 354.5 643.4 M 28.2 645.3 L 352.5 645.3 M 28.2 647.3 L 350.6 647.3 M 28.2 649.2 L 348.6 649.2 M 28.2 651.2 L 346.6 651.2 M 28.2 653.1 L 344.7 653.1 M 28.2 655.1 L 342.7 655.1"/><path stroke-width="39.4" fill="none" d="M 826.4 145.3 L 755.5 216.2 M 455.5 261.4 L 455.5 542.9 M 314.6 261.4 L 283.1 292.9 M 955.5 542.9 L 1365.8 542.9 M 755.5 216.2 L 755.5 261.4 M 1369.7 145.3 L 826.4 145.3 M 455.5 261.4 L 314.6 261.4"/><use x="555.5" y="542.9" xlink:href="#tool-D12-pad-1023"/><use x="755.5" y="542.9" xlink:href="#tool-D12-pad-1023"/><use x="955.5" y="542.9" xlink:href="#tool-D12-pad-1023"/><use x="455.5" y="542.9" xlink:href="#tool-D13-pad-1024"/><use x="204.4" y="292.9" xlink:href="#tool-D14-pad-1025"/><use x="204.4" y="391.4" xlink:href="#tool-D14-pad-1025"/><use x="283.1" y="391.4" xlink:href="#tool-D14-pad-1025"/><use x="97.7" y="579.2" xlink:href="#tool-D15-pad-1026"/><use x="97.7" y="105.1" xlink:href="#tool-D15-pad-1026"/><use x="283.1" y="292.9" xlink:href="#tool-D16-pad-1027"/><use x="555.5" y="261.4" xlink:href="#tool-D12-pad-1023"/><use x="755.5" y="261.4" xlink:href="#tool-D12-pad-1023"/><use x="955.5" y="261.4" xlink:href="#tool-D12-pad-1023"/><use x="455.5" y="261.4" xlink:href="#tool-D13-pad-1024"/><use x="1369.7" y="342.1" xlink:href="#tool-D17-pad-1028"/><use x="1369.7" y="145.3" xlink:href="#tool-D17-pad-1028"/><use x="1369.7" y="539" xlink:href="#tool-D18-pad-1029"/></g><mask id="pcb_top_mech-mask" fill="#fff" stroke="#fff" fill-rule="evenodd"><path stroke-width="0" d="M 7.5 7.5 L 361.8 7.5 L 401.2 46.9 L 1109.9 46.9 L 1149.2 7.5 L 1621.7 7.5 L 1798.8 125.6 L 1798.8 558.7 L 1621.7 676.8 L 1149.2 676.8 L 1109.9 637.4 L 401.2 637.4 L 361.8 676.8 L 7.5 676.8 Z"/><g id="pcb_top-drl" fill="#000" stroke="#000"><use x="1661" y="440.6" xlink:href="#tool-T10-pad-1000"/><use x="1661" y="243.7" xlink:href="#tool-T10-pad-1000"/><use x="455.5" y="542.9" xlink:href="#tool-T11-pad-1001"/><use x="555.5" y="542.9" xlink:href="#tool-T11-pad-1001"/><use x="755.5" y="542.9" xlink:href="#tool-T11-pad-1001"/><use x="955.5" y="542.9" xlink:href="#tool-T11-pad-1001"/><use x="455.5" y="261.4" xlink:href="#tool-T11-pad-1001"/><use x="555.5" y="261.4" xlink:href="#tool-T11-pad-1001"/><use x="755.5" y="261.4" xlink:href="#tool-T11-pad-1001"/><use x="955.5" y="261.4" xlink:href="#tool-T11-pad-1001"/><use x="204.4" y="292.9" xlink:href="#tool-T12-pad-1002"/><use x="204.4" y="391.4" xlink:href="#tool-T12-pad-1002"/><use x="283.1" y="292.9" xlink:href="#tool-T12-pad-1002"/><use x="283.1" y="391.4" xlink:href="#tool-T12-pad-1002"/><use x="97.7" y="579.2" xlink:href="#tool-T13-pad-1003"/><use x="97.7" y="105.1" xlink:href="#tool-T13-pad-1003"/><use x="1369.7" y="342.1" xlink:href="#tool-T14-pad-1004"/><use x="1369.7" y="145.3" xlink:href="#tool-T14-pad-1004"/><use x="1369.7" y="539" xlink:href="#tool-T14-pad-1004"/></g></mask></defs><g mask="url(#pcb_top_mech-mask)" transform="translate(0,684.3) scale(1,-1)"><rect x="7.5" y="7.5" width="1791.3" height="669.3" fill="currentColor" class="pcb_board-fr4"/><use class="pcb_board-cu" xlink:href="#pcb_top-cu"/><g><defs><g id="pcb_top-sm" fill="currentColor" stroke="currentColor"><use x="555.5" y="542.9" xlink:href="#tool-D10-pad-1033"/><use x="755.5" y="542.9" xlink:href="#tool-D10-pad-1033"/><use x="955.5" y="542.9" xlink:href="#tool-D10-pad-1033"/><use x="455.5" y="542.9" xlink:href="#tool-D11-pad-1034"/><use x="204.4" y="292.9" xlink:href="#tool-D12-pad-1035"/><use x="204.4" y="391.4" xlink:href="#tool-D12-pad-1035"/><use x="283.1" y="391.4" xlink:href="#tool-D12-pad-1035"/><use x="97.7" y="579.2" xlink:href="#tool-D13-pad-1036"/><use x="97.7" y="105.1" xlink:href="#tool-D13-pad-1036"/><use x="283.1" y="292.9" xlink:href="#tool-D14-pad-1037"/><use x="555.5" y="261.4" xlink:href="#tool-D10-pad-1033"/><use x="755.5" y="261.4" xlink:href="#tool-D10-pad-1033"/><use x="955.5" y="261.4" xlink:href="#tool-D10-pad-1033"/><use x="455.5" y="261.4" xlink:href="#tool-D11-pad-1034"/><use x="1369.7" y="342.1" xlink:href="#tool-D15-pad-1038"/><use x="1369.7" y="145.3" xlink:href="#tool-D15-pad-1038"/><use x="1369.7" y="539" xlink:href="#tool-D16-pad-1039"/></g><mask id="pcb_top-sm_mask" color="#000"><rect x="7.5" y="7.5" width="1791.3" height="669.3" fill="#fff"/><use xlink:href="#pcb_top-sm"/></mask><mask id="pcb_top-cu_finish-mask" color="#fff"><use xlink:href="#pcb_top-cu"/></mask></defs><g mask="url(#pcb_top-sm_mask)"><rect x="7.5" y="7.5" width="1791.3" height="669.3" fill="currentColor" class="pcb_board-sm"/><g id="pcb_top-ss" class="pcb_board-ss" fill="currentColor" stroke="currentColor"><path stroke-width="5.9" fill="none" d="M 371.7 362.8 L 371.7 603 M 371.7 603 L 1139.4 603 M 1139.4 603 L 1139.4 362.8 M 1139.4 362.8 L 371.7 362.8 M 391.4 362.8 L 391.4 603 M 391.4 603 L 1119.7 603 M 1119.7 603 L 1119.7 362.8 M 1119.7 362.8 L 391.4 362.8"/><path d="M 1080.2 408.7 L 1084 408.7 L 1084 392.4 L 1083.9 390.4 L 1083.7 388.6 L 1083.4 387 L 1083 385.7 L 1082.4 384.5 L 1081.6 383.4 L 1080.6 382.5 L 1079.5 381.6 L 1078.2 380.9 L 1076.6 380.5 L 1074.9 380.1 L 1072.9 380.1 L 1071 380.1 L 1069.3 380.4 L 1067.8 380.8 L 1066.4 381.4 L 1065.3 382.2 L 1064.3 383.1 L 1063.5 384.2 L 1062.9 385.4 L 1062.4 386.8 L 1062 388.4 L 1061.8 390.3 L 1061.8 392.4 L 1061.8 408.7 L 1065.5 408.7 L 1065.5 392.5 L 1065.5 390.7 L 1065.7 389.3 L 1065.9 388 L 1066.2 387 L 1066.6 386.2 L 1067.1 385.5 L 1067.8 384.9 L 1068.5 384.4 L 1069.4 384 L 1070.4 383.6 L 1071.4 383.5 L 1072.6 383.4 L 1074.5 383.5 L 1076.1 383.9 L 1077.4 384.5 L 1078.4 385.3 L 1079.2 386.4 L 1079.8 388 L 1080.1 390 L 1080.2 392.5 L 1080.2 408.7 L 1080.2 408.7 Z"/><path d="M 1101.8 380.5 L 1098.3 380.5 L 1098.3 402.6 L 1097.7 402 L 1096.9 401.4 L 1096 400.8 L 1095.1 400.2 L 1094 399.6 L 1093.1 399.2 L 1092.2 398.8 L 1091.4 398.4 L 1091.4 401.8 L 1092.8 402.5 L 1094.1 403.2 L 1095.3 404.1 L 1096.5 405.1 L 1097.5 406 L 1098.3 407 L 1099 407.9 L 1099.5 408.8 L 1101.8 408.8 L 1101.8 380.5 L 1101.8 380.5 Z"/><path stroke-width="5.9" fill="none" d="M 0 643.1 L 342.1 643.1 M 342.1 643.1 L 342.1 41.2 M 342.1 41.2 L 0 41.2 M -323.2 41.2"/><use x="361.8" y="287.8" xlink:href="#tool-D11-pad-1031"/><path d="M 278.5 123.8 L 281.9 124.2 L 282 122.7 L 282.3 121.5 L 282.6 120.5 L 283.1 119.8 L 283.7 119.3 L 284.4 118.9 L 285.2 118.7 L 286.1 118.6 L 286.8 118.6 L 287.4 118.8 L 288 119 L 288.5 119.3 L 289 119.6 L 289.4 120 L 289.7 120.5 L 289.9 121 L 290.1 121.6 L 290.2 122.4 L 290.3 123.4 L 290.3 124.5 L 290.3 144 L 294 144 L 294 124.7 L 294 123.1 L 293.8 121.6 L 293.5 120.3 L 293.2 119.3 L 292.7 118.4 L 292.1 117.5 L 291.3 116.9 L 290.5 116.3 L 289.5 115.8 L 288.4 115.5 L 287.3 115.3 L 286.1 115.3 L 284.4 115.4 L 282.8 115.8 L 281.5 116.5 L 280.4 117.4 L 279.5 118.6 L 279 120.1 L 278.6 121.8 L 278.5 123.8 L 278.5 123.8 Z"/><path d="M 311.8 115.8 L 308.3 115.8 L 308.3 137.8 L 307.6 137.2 L 306.8 136.6 L 306 136 L 305 135.5 L 304 134.9 L 303.1 134.4 L 302.2 134 L 301.4 133.6 L 301.4 137 L 302.8 137.7 L 304.1 138.5 L 305.3 139.4 L 306.4 140.3 L 307.4 141.3 L 308.3 142.2 L 309 143.1 L 309.5 144.1 L 311.8 144.1 L 311.8 115.8 L 311.8 115.8 Z"/><path stroke-width="5.9" fill="none" d="M 371.7 81.3 L 371.7 321.5 M 371.7 321.5 L 1139.4 321.5 M 1139.4 321.5 L 1139.4 81.3 M 1139.4 81.3 L 371.7 81.3 M 391.4 81.3 L 391.4 321.5 M 391.4 321.5 L 1119.7 321.5 M 1119.7 321.5 L 1119.7 81.3 M 1119.7 81.3 L 391.4 81.3"/><path d="M 1076.3 300.5 L 1080 300.5 L 1080 284.2 L 1079.9 282.1 L 1079.7 280.3 L 1079.5 278.8 L 1079 277.4 L 1078.5 276.2 L 1077.7 275.1 L 1076.7 274.2 L 1075.6 273.4 L 1074.2 272.7 L 1072.7 272.2 L 1070.9 271.9 L 1069 271.8 L 1067.1 271.9 L 1065.4 272.1 L 1063.9 272.5 L 1062.5 273.1 L 1061.4 273.9 L 1060.3 274.8 L 1059.5 275.9 L 1058.9 277.1 L 1058.4 278.5 L 1058.1 280.2 L 1057.9 282 L 1057.9 284.2 L 1057.9 300.5 L 1061.6 300.5 L 1061.6 284.2 L 1061.6 282.5 L 1061.8 281 L 1061.9 279.7 L 1062.3 278.8 L 1062.7 277.9 L 1063.2 277.2 L 1063.8 276.6 L 1064.6 276.1 L 1065.5 275.7 L 1066.4 275.4 L 1067.5 275.2 L 1068.7 275.1 L 1070.6 275.3 L 1072.2 275.6 L 1073.5 276.2 L 1074.5 277 L 1075.3 278.2 L 1075.8 279.7 L 1076.2 281.8 L 1076.3 284.2 L 1076.3 300.5 L 1076.3 300.5 Z"/><path d="M 1103 275.6 L 1103 272.3 L 1084.4 272.3 L 1084.4 272.9 L 1084.5 273.5 L 1084.6 274.1 L 1084.8 274.7 L 1085.2 275.6 L 1085.7 276.6 L 1086.3 277.5 L 1087.1 278.4 L 1087.9 279.4 L 1089 280.4 L 1090.2 281.5 L 1091.6 282.7 L 1093.7 284.5 L 1095.4 286 L 1096.8 287.5 L 1097.8 288.6 L 1098.5 289.7 L 1099 290.8 L 1099.3 291.8 L 1099.4 292.8 L 1099.3 293.8 L 1099 294.7 L 1098.6 295.5 L 1097.9 296.3 L 1097.1 296.9 L 1096.2 297.3 L 1095.2 297.6 L 1094.1 297.7 L 1092.9 297.6 L 1091.8 297.3 L 1090.9 296.9 L 1090.1 296.2 L 1089.4 295.4 L 1089 294.4 L 1088.7 293.3 L 1088.6 292 L 1085 292.4 L 1085.3 294.3 L 1085.9 295.9 L 1086.7 297.3 L 1087.8 298.5 L 1089.1 299.4 L 1090.6 300.1 L 1092.3 300.4 L 1094.2 300.6 L 1096.1 300.4 L 1097.8 300 L 1099.3 299.3 L 1100.6 298.3 L 1101.6 297.1 L 1102.4 295.8 L 1102.8 294.4 L 1103 292.7 L 1102.9 291.9 L 1102.8 291 L 1102.6 290.2 L 1102.3 289.4 L 1101.9 288.6 L 1101.4 287.7 L 1100.7 286.9 L 1100 286 L 1099 285 L 1097.8 283.8 L 1096.4 282.5 L 1094.6 281 L 1093.2 279.8 L 1092.1 278.8 L 1091.2 278.1 L 1090.6 277.5 L 1090.2 277 L 1089.8 276.5 L 1089.5 276 L 1089.2 275.6 L 1103 275.6 L 1103 275.6 Z"/><path stroke-width="4.9" fill="none" d="M 1182.7 657.1 L 1548.8 657.1 M 1548.8 657.1 L 1548.8 27.2 M 1548.8 27.2 L 1182.7 27.2 M 1182.7 27.2 L 1182.7 657.1"/><path d="M 1591.8 136.4 L 1591.8 140.8 L 1605.3 140.8 L 1605.3 136.4 L 1591.8 136.4 L 1591.8 136.4 Z"/><path d="M 1625.5 125.6 L 1621 125.6 L 1621 153.6 L 1620.2 152.9 L 1619.2 152.1 L 1618.1 151.4 L 1616.9 150.6 L 1615.6 149.9 L 1614.5 149.3 L 1613.3 148.8 L 1612.3 148.3 L 1612.3 152.6 L 1614.1 153.5 L 1615.7 154.5 L 1617.3 155.6 L 1618.7 156.8 L 1620 158 L 1621.1 159.2 L 1621.9 160.4 L 1622.6 161.6 L 1625.5 161.6 L 1625.5 125.6 L 1625.5 125.6 Z"/><path d="M 1659.8 129.8 L 1659.8 125.6 L 1636.2 125.6 L 1636.2 126.4 L 1636.2 127.2 L 1636.4 127.9 L 1636.7 128.7 L 1637.2 129.9 L 1637.9 131 L 1638.6 132.3 L 1639.5 133.4 L 1640.6 134.6 L 1642 136 L 1643.5 137.3 L 1645.3 138.8 L 1648 141.1 L 1650.2 143.1 L 1651.9 144.9 L 1653.2 146.4 L 1654.1 147.8 L 1654.7 149.2 L 1655.1 150.5 L 1655.3 151.7 L 1655.1 153 L 1654.8 154.1 L 1654.2 155.2 L 1653.4 156.1 L 1652.4 156.9 L 1651.2 157.5 L 1649.9 157.8 L 1648.5 157.9 L 1647 157.8 L 1645.6 157.4 L 1644.5 156.8 L 1643.4 156 L 1642.6 155 L 1642 153.7 L 1641.6 152.3 L 1641.5 150.7 L 1637 151.2 L 1637.4 153.6 L 1638.1 155.6 L 1639.1 157.4 L 1640.5 158.9 L 1642.1 160.1 L 1644 160.9 L 1646.2 161.4 L 1648.6 161.6 L 1651 161.4 L 1653.2 160.8 L 1655.1 159.9 L 1656.8 158.7 L 1658.1 157.2 L 1659 155.5 L 1659.6 153.6 L 1659.7 151.6 L 1659.7 150.5 L 1659.5 149.5 L 1659.3 148.4 L 1658.9 147.4 L 1658.4 146.3 L 1657.7 145.3 L 1656.9 144.2 L 1656 143 L 1654.8 141.8 L 1653.2 140.3 L 1651.4 138.6 L 1649.2 136.7 L 1647.4 135.2 L 1645.9 133.9 L 1644.9 132.9 L 1644.1 132.2 L 1643.6 131.6 L 1643.1 131 L 1642.7 130.4 L 1642.3 129.8 L 1659.8 129.8 L 1659.8 129.8 Z"/><path d="M 1676.5 125.6 L 1662.7 161.4 L 1667.8 161.4 L 1677.1 135.4 L 1677.6 133.9 L 1678.1 132.4 L 1678.6 130.9 L 1679 129.5 L 1679.4 131 L 1679.9 132.5 L 1680.4 133.9 L 1680.9 135.4 L 1690.6 161.4 L 1695.4 161.4 L 1681.4 125.6 L 1676.5 125.6 L 1676.5 125.6 Z"/><path d="M 1610.6 525.1 L 1610.6 534.9 L 1600.8 534.9 L 1600.8 539 L 1610.6 539 L 1610.6 548.8 L 1614.7 548.8 L 1614.7 539 L 1624.5 539 L 1624.5 534.9 L 1614.7 534.9 L 1614.7 525.1 L 1610.6 525.1 L 1610.6 525.1 Z"/><path d="M 1645.9 519.3 L 1641.5 519.3 L 1641.5 547.3 L 1640.6 546.6 L 1639.7 545.8 L 1638.6 545.1 L 1637.3 544.3 L 1636.1 543.6 L 1634.9 543 L 1633.8 542.5 L 1632.7 542 L 1632.7 546.3 L 1634.5 547.2 L 1636.2 548.2 L 1637.7 549.3 L 1639.2 550.5 L 1640.4 551.7 L 1641.5 552.9 L 1642.4 554.1 L 1643.1 555.3 L 1645.9 555.3 L 1645.9 519.3 L 1645.9 519.3 Z"/><path d="M 1680.2 523.5 L 1680.2 519.3 L 1656.6 519.3 L 1656.6 520.1 L 1656.7 520.9 L 1656.8 521.6 L 1657.1 522.4 L 1657.6 523.6 L 1658.2 524.7 L 1659 526 L 1660 527.1 L 1661.1 528.3 L 1662.4 529.7 L 1664 531 L 1665.7 532.5 L 1668.4 534.8 L 1670.6 536.8 L 1672.3 538.6 L 1673.6 540.1 L 1674.5 541.5 L 1675.1 542.9 L 1675.5 544.2 L 1675.6 545.4 L 1675.5 546.7 L 1675.2 547.8 L 1674.6 548.9 L 1673.8 549.8 L 1672.8 550.6 L 1671.6 551.2 L 1670.4 551.5 L 1668.9 551.6 L 1667.4 551.5 L 1666.1 551.1 L 1664.9 550.5 L 1663.8 549.7 L 1663 548.7 L 1662.4 547.4 L 1662.1 546 L 1661.9 544.4 L 1657.4 544.9 L 1657.8 547.3 L 1658.5 549.4 L 1659.5 551.1 L 1660.9 552.6 L 1662.5 553.8 L 1664.4 554.6 L 1666.6 555.1 L 1669 555.3 L 1671.5 555.1 L 1673.6 554.5 L 1675.5 553.6 L 1677.2 552.4 L 1678.5 550.9 L 1679.4 549.2 L 1680 547.3 L 1680.2 545.3 L 1680.1 544.2 L 1680 543.2 L 1679.7 542.1 L 1679.3 541.1 L 1678.8 540 L 1678.1 539 L 1677.3 537.9 L 1676.4 536.7 L 1675.2 535.5 L 1673.7 534 L 1671.8 532.3 L 1669.6 530.4 L 1667.8 528.9 L 1666.4 527.6 L 1665.3 526.6 L 1664.5 525.9 L 1664 525.3 L 1663.5 524.7 L 1663.1 524.1 L 1662.7 523.5 L 1680.2 523.5 L 1680.2 523.5 Z"/><path d="M 1696.9 519.3 L 1683.1 555.1 L 1688.2 555.1 L 1697.5 529.1 L 1698.1 527.6 L 1698.6 526.1 L 1699 524.6 L 1699.4 523.2 L 1699.8 524.7 L 1700.3 526.2 L 1700.8 527.6 L 1701.3 529.1 L 1711 555.1 L 1715.8 555.1 L 1701.8 519.3 L 1696.9 519.3 L 1696.9 519.3 Z"/><path d="M 1610.8 336.5 L 1610.8 340.7 L 1625.9 340.7 L 1625.9 327.5 L 1624.2 326.1 L 1622.4 325 L 1620.6 324 L 1618.8 323.2 L 1616.9 322.7 L 1615 322.2 L 1613.1 321.9 L 1611.1 321.8 L 1608.6 322 L 1606.1 322.4 L 1603.8 323.1 L 1601.6 324.1 L 1599.5 325.4 L 1597.8 326.9 L 1596.3 328.6 L 1595 330.6 L 1594.1 332.9 L 1593.4 335.2 L 1593 337.6 L 1592.9 340.2 L 1593 342.7 L 1593.4 345.2 L 1594.1 347.6 L 1595 349.9 L 1596.2 352.1 L 1597.7 353.9 L 1599.4 355.4 L 1601.3 356.7 L 1603.4 357.6 L 1605.7 358.3 L 1608.2 358.7 L 1610.8 358.9 L 1612.7 358.8 L 1614.5 358.6 L 1616.2 358.2 L 1617.8 357.6 L 1619.3 356.9 L 1620.6 356.1 L 1621.7 355.2 L 1622.7 354.1 L 1623.5 352.9 L 1624.3 351.5 L 1624.9 350 L 1625.4 348.2 L 1621.1 347.1 L 1620.7 348.4 L 1620.2 349.5 L 1619.7 350.5 L 1619.1 351.4 L 1618.5 352.1 L 1617.7 352.8 L 1616.8 353.4 L 1615.7 353.9 L 1614.6 354.3 L 1613.4 354.6 L 1612.1 354.7 L 1610.8 354.8 L 1609.2 354.7 L 1607.7 354.5 L 1606.4 354.3 L 1605.2 353.8 L 1604 353.3 L 1603 352.7 L 1602.1 352 L 1601.4 351.2 L 1600.6 350.4 L 1600.1 349.5 L 1599.5 348.6 L 1599.1 347.7 L 1598.5 346 L 1598.1 344.2 L 1597.8 342.4 L 1597.7 340.5 L 1597.8 338.2 L 1598.1 336.1 L 1598.6 334.2 L 1599.4 332.5 L 1600.3 331 L 1601.4 329.7 L 1602.7 328.6 L 1604.2 327.7 L 1605.8 327 L 1607.4 326.5 L 1609.1 326.2 L 1610.8 326.1 L 1612.4 326.2 L 1613.9 326.4 L 1615.4 326.8 L 1616.9 327.3 L 1618.2 327.9 L 1619.4 328.5 L 1620.5 329.2 L 1621.3 329.8 L 1621.3 336.5 L 1610.8 336.5 L 1610.8 336.5 Z"/><path d="M 1632.9 322.5 L 1632.9 358.2 L 1637.7 358.2 L 1656.6 330.1 L 1656.6 358.2 L 1661.1 358.2 L 1661.1 322.5 L 1656.2 322.5 L 1637.4 350.6 L 1637.4 322.5 L 1632.9 322.5 L 1632.9 322.5 Z"/><path d="M 1669 322.5 L 1669 358.2 L 1681.3 358.2 L 1681.3 354 L 1673.8 354 L 1673.8 326.7 L 1673.8 326.7 L 1681.4 326.7 L 1683.1 326.7 L 1684.6 326.8 L 1685.8 327.1 L 1686.9 327.3 L 1687.9 327.7 L 1688.8 328.1 L 1689.5 328.6 L 1690.2 329.2 L 1691 330.1 L 1691.7 331.2 L 1692.3 332.4 L 1692.8 333.7 L 1693.2 335.2 L 1693.5 336.9 L 1693.7 338.7 L 1693.8 340.6 L 1693.6 343.3 L 1693.3 345.6 L 1692.7 347.6 L 1691.9 349.3 L 1690.9 350.6 L 1689.9 351.8 L 1688.7 352.7 L 1687.4 353.3 L 1686.3 353.6 L 1684.9 353.8 L 1683.2 354 L 1681.3 354 L 1681.3 358.2 L 1681.4 358.2 L 1683.3 358.2 L 1685.1 358.1 L 1686.5 358 L 1687.7 357.7 L 1689.2 357.3 L 1690.6 356.8 L 1691.8 356 L 1693 355.2 L 1694.3 353.9 L 1695.5 352.5 L 1696.4 350.8 L 1697.2 349.1 L 1697.9 347.1 L 1698.3 345.1 L 1698.5 342.9 L 1698.6 340.6 L 1698.6 338.6 L 1698.4 336.7 L 1698.1 334.9 L 1697.7 333.3 L 1697.1 331.8 L 1696.6 330.5 L 1695.9 329.2 L 1695.2 328.1 L 1694.5 327.1 L 1693.7 326.3 L 1692.9 325.5 L 1692 324.9 L 1691 324.3 L 1690 323.8 L 1688.9 323.4 L 1687.7 323.1 L 1686.4 322.8 L 1685 322.6 L 1683.5 322.5 L 1681.9 322.5 L 1669 322.5 L 1669 322.5 Z"/></g></g><use class="pcb_board-cf" mask="url(#pcb_top-cu_finish-mask)" xlink:href="#pcb_top-sm"/></g></g></svg>