%FSLAX33Y33*%
%MOMM*%
%ADD10C,0.0508*%
%ADD11C,0.508*%
%ADD12R,1.62X1.62*%
%ADD13C,1.62*%
D10*
%LNpour fill*%
G01*
X10475Y14475D02*
X10475Y14475D01*
X0525Y14475*
X0525Y0525*
X10475Y0525*
X10475Y14475*
X3513Y12658D02*
X3513Y12658D01*
X3513Y13578*
X3498Y13593*
X2578Y13593*
X2563Y13578*
X2563Y12658*
X2578Y12643*
X3498Y12643*
X3513Y12658*
X2437Y12658D02*
X2437Y12658D01*
X2437Y13578*
X2422Y13593*
X1502Y13593*
X1487Y13578*
X1487Y12658*
X1502Y12643*
X2422Y12643*
X2437Y12658*
X3513Y11582D02*
X3513Y11582D01*
X3513Y12502*
X3498Y12517*
X2578Y12517*
X2563Y12502*
X2563Y11582*
X2578Y11567*
X3498Y11567*
X3513Y11582*
X2437Y11582D02*
X2437Y11582D01*
X2437Y12502*
X2422Y12517*
X1502Y12517*
X1487Y12502*
X1487Y11582*
X1502Y11567*
X2422Y11567*
X2437Y11582*
X2763Y9053D02*
X2763Y9053D01*
X2766Y9054*
X3009Y9154*
X3012Y9156*
X3221Y9316*
X3224Y9319*
X3384Y9528*
X3386Y9531*
X3486Y9774*
X3487Y9777*
X3522Y10038*
X3522Y10042*
X3487Y10303*
X3486Y10306*
X3386Y10549*
X3384Y10552*
X3224Y10761*
X3221Y10764*
X3012Y10924*
X3009Y10926*
X2766Y11026*
X2763Y11027*
X2502Y11062*
X2498Y11062*
X2237Y11027*
X2234Y11026*
X1991Y10926*
X1988Y10924*
X1779Y10764*
X1776Y10761*
X1616Y10552*
X1614Y10549*
X1514Y10306*
X1513Y10303*
X1478Y10042*
X1478Y10038*
X1513Y9777*
X1514Y9774*
X1614Y9531*
X1616Y9528*
X1776Y9319*
X1779Y9316*
X1988Y9156*
X1991Y9154*
X2234Y9054*
X2237Y9053*
X2498Y9018*
X2502Y9018*
X2763Y9053*
X2763Y6513D02*
X2763Y6513D01*
X2766Y6514*
X3009Y6614*
X3012Y6616*
X3221Y6776*
X3224Y6779*
X3384Y6988*
X3386Y6991*
X3486Y7234*
X3487Y7237*
X3522Y7498*
X3522Y7502*
X3487Y7763*
X3486Y7766*
X3386Y8009*
X3384Y8012*
X3224Y8221*
X3221Y8224*
X3012Y8384*
X3009Y8386*
X2766Y8486*
X2763Y8487*
X2502Y8522*
X2498Y8522*
X2237Y8487*
X2234Y8486*
X1991Y8386*
X1988Y8384*
X1779Y8224*
X1776Y8221*
X1616Y8012*
X1614Y8009*
X1514Y7766*
X1513Y7763*
X1478Y7502*
X1478Y7498*
X1513Y7237*
X1514Y7234*
X1614Y6991*
X1616Y6988*
X1776Y6779*
X1779Y6776*
X1988Y6616*
X1991Y6614*
X2234Y6514*
X2237Y6513*
X2498Y6478*
X2502Y6478*
X2763Y6513*
X2763Y3973D02*
X2763Y3973D01*
X2766Y3974*
X3009Y4074*
X3012Y4076*
X3221Y4236*
X3224Y4239*
X3384Y4448*
X3386Y4451*
X3486Y4694*
X3487Y4697*
X3522Y4958*
X3522Y4962*
X3487Y5223*
X3486Y5226*
X3386Y5469*
X3384Y5472*
X3224Y5681*
X3221Y5684*
X3012Y5844*
X3009Y5846*
X2766Y5946*
X2763Y5947*
X2502Y5982*
X2498Y5982*
X2237Y5947*
X2234Y5946*
X1991Y5846*
X1988Y5844*
X1779Y5684*
X1776Y5681*
X1616Y5472*
X1614Y5469*
X1514Y5226*
X1513Y5223*
X1478Y4962*
X1478Y4958*
X1513Y4697*
X1514Y4694*
X1614Y4451*
X1616Y4448*
X1776Y4239*
X1779Y4236*
X1988Y4076*
X1991Y4074*
X2234Y3974*
X2237Y3973*
X2498Y3938*
X2502Y3938*
X2763Y3973*
X2763Y1433D02*
X2763Y1433D01*
X2766Y1434*
X3009Y1534*
X3012Y1536*
X3221Y1696*
X3224Y1699*
X3384Y1908*
X3386Y1911*
X3486Y2154*
X3487Y2157*
X3522Y2418*
X3522Y2422*
X3487Y2683*
X3486Y2686*
X3386Y2929*
X3384Y2932*
X3224Y3141*
X3221Y3144*
X3012Y3304*
X3009Y3306*
X2766Y3406*
X2763Y3407*
X2502Y3442*
X2498Y3442*
X2237Y3407*
X2234Y3406*
X1991Y3306*
X1988Y3304*
X1779Y3144*
X1776Y3141*
X1616Y2932*
X1614Y2929*
X1514Y2686*
X1513Y2683*
X1478Y2422*
X1478Y2418*
X1513Y2157*
X1514Y2154*
X1614Y1911*
X1616Y1908*
X1776Y1699*
X1779Y1696*
X1988Y1536*
X1991Y1534*
X2234Y1434*
X2237Y1433*
X2498Y1398*
X2502Y1398*
X2763Y1433*
X0525Y0550D02*
X10475Y0550D01*
X0525Y0599D02*
X10475Y0599D01*
X0525Y0649D02*
X10475Y0649D01*
X0525Y0698D02*
X10475Y0698D01*
X0525Y0748D02*
X10475Y0748D01*
X0525Y0797D02*
X10475Y0797D01*
X0525Y0847D02*
X10475Y0847D01*
X0525Y0896D02*
X10475Y0896D01*
X0525Y0946D02*
X10475Y0946D01*
X0525Y0995D02*
X10475Y0995D01*
X0525Y1045D02*
X10475Y1045D01*
X0525Y1094D02*
X10475Y1094D01*
X0525Y1144D02*
X10475Y1144D01*
X0525Y1193D02*
X10475Y1193D01*
X0525Y1243D02*
X10475Y1243D01*
X0525Y1292D02*
X10475Y1292D01*
X0525Y1342D02*
X10475Y1342D01*
X0525Y1392D02*
X10475Y1392D01*
X0525Y1441D02*
X2216Y1441D01*
X2784Y1441D02*
X10475Y1441D01*
X0525Y1491D02*
X2096Y1491D01*
X2904Y1491D02*
X10475Y1491D01*
X0525Y1540D02*
X1982Y1540D01*
X3018Y1540D02*
X10475Y1540D01*
X0525Y1590D02*
X1918Y1590D01*
X3082Y1590D02*
X10475Y1590D01*
X0525Y1639D02*
X1853Y1639D01*
X3147Y1639D02*
X10475Y1639D01*
X0525Y1689D02*
X1789Y1689D01*
X3211Y1689D02*
X10475Y1689D01*
X0525Y1738D02*
X1746Y1738D01*
X3254Y1738D02*
X10475Y1738D01*
X0525Y1788D02*
X1708Y1788D01*
X3292Y1788D02*
X10475Y1788D01*
X0525Y1837D02*
X1670Y1837D01*
X3330Y1837D02*
X10475Y1837D01*
X0525Y1887D02*
X1632Y1887D01*
X3368Y1887D02*
X10475Y1887D01*
X0525Y1936D02*
X1604Y1936D01*
X3396Y1936D02*
X10475Y1936D01*
X0525Y1986D02*
X1583Y1986D01*
X3417Y1986D02*
X10475Y1986D01*
X0525Y2035D02*
X1563Y2035D01*
X3437Y2035D02*
X10475Y2035D01*
X0525Y2085D02*
X1542Y2085D01*
X3458Y2085D02*
X10475Y2085D01*
X0525Y2134D02*
X1522Y2134D01*
X3478Y2134D02*
X10475Y2134D01*
X0525Y2184D02*
X1509Y2184D01*
X3491Y2184D02*
X10475Y2184D01*
X0525Y2234D02*
X1503Y2234D01*
X3497Y2234D02*
X10475Y2234D01*
X0525Y2283D02*
X1496Y2283D01*
X3504Y2283D02*
X10475Y2283D01*
X0525Y2333D02*
X1490Y2333D01*
X3510Y2333D02*
X10475Y2333D01*
X0525Y2382D02*
X1483Y2382D01*
X3517Y2382D02*
X10475Y2382D01*
X0525Y2432D02*
X1480Y2432D01*
X3520Y2432D02*
X10475Y2432D01*
X0525Y2481D02*
X1486Y2481D01*
X3514Y2481D02*
X10475Y2481D01*
X0525Y2531D02*
X1493Y2531D01*
X3507Y2531D02*
X10475Y2531D01*
X0525Y2580D02*
X1499Y2580D01*
X3501Y2580D02*
X10475Y2580D01*
X0525Y2630D02*
X1506Y2630D01*
X3494Y2630D02*
X10475Y2630D01*
X0525Y2679D02*
X1512Y2679D01*
X3488Y2679D02*
X10475Y2679D01*
X0525Y2729D02*
X1531Y2729D01*
X3469Y2729D02*
X10475Y2729D01*
X0525Y2778D02*
X1552Y2778D01*
X3448Y2778D02*
X10475Y2778D01*
X0525Y2828D02*
X1572Y2828D01*
X3428Y2828D02*
X10475Y2828D01*
X0525Y2877D02*
X1593Y2877D01*
X3407Y2877D02*
X10475Y2877D01*
X0525Y2927D02*
X1613Y2927D01*
X3387Y2927D02*
X10475Y2927D01*
X0525Y2976D02*
X1650Y2976D01*
X3350Y2976D02*
X10475Y2976D01*
X0525Y3026D02*
X1688Y3026D01*
X3312Y3026D02*
X10475Y3026D01*
X0525Y3076D02*
X1726Y3076D01*
X3274Y3076D02*
X10475Y3076D01*
X0525Y3125D02*
X1764Y3125D01*
X3236Y3125D02*
X10475Y3125D01*
X0525Y3175D02*
X1819Y3175D01*
X3181Y3175D02*
X10475Y3175D01*
X0525Y3224D02*
X1884Y3224D01*
X3116Y3224D02*
X10475Y3224D01*
X0525Y3274D02*
X1948Y3274D01*
X3052Y3274D02*
X10475Y3274D01*
X0525Y3323D02*
X2033Y3323D01*
X2967Y3323D02*
X10475Y3323D01*
X0525Y3373D02*
X2152Y3373D01*
X2848Y3373D02*
X10475Y3373D01*
X0525Y3422D02*
X2351Y3422D01*
X2649Y3422D02*
X10475Y3422D01*
X0525Y3472D02*
X10475Y3472D01*
X0525Y3521D02*
X10475Y3521D01*
X0525Y3571D02*
X10475Y3571D01*
X0525Y3620D02*
X10475Y3620D01*
X0525Y3670D02*
X10475Y3670D01*
X0525Y3719D02*
X10475Y3719D01*
X0525Y3769D02*
X10475Y3769D01*
X0525Y3819D02*
X10475Y3819D01*
X0525Y3868D02*
X10475Y3868D01*
X0525Y3918D02*
X10475Y3918D01*
X0525Y3967D02*
X2279Y3967D01*
X2721Y3967D02*
X10475Y3967D01*
X0525Y4017D02*
X2130Y4017D01*
X2870Y4017D02*
X10475Y4017D01*
X0525Y4066D02*
X2010Y4066D01*
X2990Y4066D02*
X10475Y4066D01*
X0525Y4116D02*
X1936Y4116D01*
X3064Y4116D02*
X10475Y4116D01*
X0525Y4165D02*
X1871Y4165D01*
X3129Y4165D02*
X10475Y4165D01*
X0525Y4215D02*
X1807Y4215D01*
X3193Y4215D02*
X10475Y4215D01*
X0525Y4264D02*
X1757Y4264D01*
X3243Y4264D02*
X10475Y4264D01*
X0525Y4314D02*
X1719Y4314D01*
X3281Y4314D02*
X10475Y4314D01*
X0525Y4363D02*
X1681Y4363D01*
X3319Y4363D02*
X10475Y4363D01*
X0525Y4413D02*
X1643Y4413D01*
X3357Y4413D02*
X10475Y4413D01*
X0525Y4462D02*
X1609Y4462D01*
X3391Y4462D02*
X10475Y4462D01*
X0525Y4512D02*
X1589Y4512D01*
X3411Y4512D02*
X10475Y4512D01*
X0525Y4561D02*
X1568Y4561D01*
X3432Y4561D02*
X10475Y4561D01*
X0525Y4611D02*
X1548Y4611D01*
X3452Y4611D02*
X10475Y4611D01*
X0525Y4661D02*
X1527Y4661D01*
X3473Y4661D02*
X10475Y4661D01*
X0525Y4710D02*
X1511Y4710D01*
X3489Y4710D02*
X10475Y4710D01*
X0525Y4760D02*
X1504Y4760D01*
X3496Y4760D02*
X10475Y4760D01*
X0525Y4809D02*
X1498Y4809D01*
X3502Y4809D02*
X10475Y4809D01*
X0525Y4859D02*
X1491Y4859D01*
X3509Y4859D02*
X10475Y4859D01*
X0525Y4908D02*
X1485Y4908D01*
X3515Y4908D02*
X10475Y4908D01*
X0525Y4958D02*
X1478Y4958D01*
X3522Y4958D02*
X10475Y4958D01*
X0525Y5007D02*
X1484Y5007D01*
X3516Y5007D02*
X10475Y5007D01*
X0525Y5057D02*
X1491Y5057D01*
X3509Y5057D02*
X10475Y5057D01*
X0525Y5106D02*
X1497Y5106D01*
X3503Y5106D02*
X10475Y5106D01*
X0525Y5156D02*
X1504Y5156D01*
X3496Y5156D02*
X10475Y5156D01*
X0525Y5205D02*
X1510Y5205D01*
X3490Y5205D02*
X10475Y5205D01*
X0525Y5255D02*
X1525Y5255D01*
X3475Y5255D02*
X10475Y5255D01*
X0525Y5304D02*
X1546Y5304D01*
X3454Y5304D02*
X10475Y5304D01*
X0525Y5354D02*
X1566Y5354D01*
X3434Y5354D02*
X10475Y5354D01*
X0525Y5403D02*
X1587Y5403D01*
X3413Y5403D02*
X10475Y5403D01*
X0525Y5453D02*
X1608Y5453D01*
X3392Y5453D02*
X10475Y5453D01*
X0525Y5503D02*
X1639Y5503D01*
X3361Y5503D02*
X10475Y5503D01*
X0525Y5552D02*
X1677Y5552D01*
X3323Y5552D02*
X10475Y5552D01*
X0525Y5602D02*
X1715Y5602D01*
X3285Y5602D02*
X10475Y5602D01*
X0525Y5651D02*
X1753Y5651D01*
X3247Y5651D02*
X10475Y5651D01*
X0525Y5701D02*
X1801Y5701D01*
X3199Y5701D02*
X10475Y5701D01*
X0525Y5750D02*
X1865Y5750D01*
X3135Y5750D02*
X10475Y5750D01*
X0525Y5800D02*
X1930Y5800D01*
X3070Y5800D02*
X10475Y5800D01*
X0525Y5849D02*
X1999Y5849D01*
X3001Y5849D02*
X10475Y5849D01*
X0525Y5899D02*
X2119Y5899D01*
X2881Y5899D02*
X10475Y5899D01*
X0525Y5948D02*
X2244Y5948D01*
X2756Y5948D02*
X10475Y5948D01*
X0525Y5998D02*
X10475Y5998D01*
X0525Y6047D02*
X10475Y6047D01*
X0525Y6097D02*
X10475Y6097D01*
X0525Y6146D02*
X10475Y6146D01*
X0525Y6196D02*
X10475Y6196D01*
X0525Y6245D02*
X10475Y6245D01*
X0525Y6295D02*
X10475Y6295D01*
X0525Y6345D02*
X10475Y6345D01*
X0525Y6394D02*
X10475Y6394D01*
X0525Y6444D02*
X10475Y6444D01*
X0525Y6493D02*
X2386Y6493D01*
X2614Y6493D02*
X10475Y6493D01*
X0525Y6543D02*
X2164Y6543D01*
X2836Y6543D02*
X10475Y6543D01*
X0525Y6592D02*
X2044Y6592D01*
X2956Y6592D02*
X10475Y6592D01*
X0525Y6642D02*
X1954Y6642D01*
X3046Y6642D02*
X10475Y6642D01*
X0525Y6691D02*
X1890Y6691D01*
X3110Y6691D02*
X10475Y6691D01*
X0525Y6741D02*
X1825Y6741D01*
X3175Y6741D02*
X10475Y6741D01*
X0525Y6790D02*
X1767Y6790D01*
X3233Y6790D02*
X10475Y6790D01*
X0525Y6840D02*
X1729Y6840D01*
X3271Y6840D02*
X10475Y6840D01*
X0525Y6889D02*
X1691Y6889D01*
X3309Y6889D02*
X10475Y6889D01*
X0525Y6939D02*
X1653Y6939D01*
X3347Y6939D02*
X10475Y6939D01*
X0525Y6988D02*
X1616Y6988D01*
X3384Y6988D02*
X10475Y6988D01*
X0525Y7038D02*
X1595Y7038D01*
X3405Y7038D02*
X10475Y7038D01*
X0525Y7087D02*
X1574Y7087D01*
X3426Y7087D02*
X10475Y7087D01*
X0525Y7137D02*
X1554Y7137D01*
X3446Y7137D02*
X10475Y7137D01*
X0525Y7187D02*
X1533Y7187D01*
X3467Y7187D02*
X10475Y7187D01*
X0525Y7236D02*
X1513Y7236D01*
X3487Y7236D02*
X10475Y7236D01*
X0525Y7286D02*
X1506Y7286D01*
X3494Y7286D02*
X10475Y7286D01*
X0525Y7335D02*
X1500Y7335D01*
X3500Y7335D02*
X10475Y7335D01*
X0525Y7385D02*
X1493Y7385D01*
X3507Y7385D02*
X10475Y7385D01*
X0525Y7434D02*
X1487Y7434D01*
X3513Y7434D02*
X10475Y7434D01*
X0525Y7484D02*
X1480Y7484D01*
X3520Y7484D02*
X10475Y7484D01*
X0525Y7533D02*
X1482Y7533D01*
X3518Y7533D02*
X10475Y7533D01*
X0525Y7583D02*
X1489Y7583D01*
X3511Y7583D02*
X10475Y7583D01*
X0525Y7632D02*
X1495Y7632D01*
X3505Y7632D02*
X10475Y7632D01*
X0525Y7682D02*
X1502Y7682D01*
X3498Y7682D02*
X10475Y7682D01*
X0525Y7731D02*
X1509Y7731D01*
X3491Y7731D02*
X10475Y7731D01*
X0525Y7781D02*
X1520Y7781D01*
X3480Y7781D02*
X10475Y7781D01*
X0525Y7830D02*
X1540Y7830D01*
X3460Y7830D02*
X10475Y7830D01*
X0525Y7880D02*
X1561Y7880D01*
X3439Y7880D02*
X10475Y7880D01*
X0525Y7929D02*
X1581Y7929D01*
X3419Y7929D02*
X10475Y7929D01*
X0525Y7979D02*
X1602Y7979D01*
X3398Y7979D02*
X10475Y7979D01*
X0525Y8029D02*
X1628Y8029D01*
X3372Y8029D02*
X10475Y8029D01*
X0525Y8078D02*
X1666Y8078D01*
X3334Y8078D02*
X10475Y8078D01*
X0525Y8128D02*
X1704Y8128D01*
X3296Y8128D02*
X10475Y8128D01*
X0525Y8177D02*
X1742Y8177D01*
X3258Y8177D02*
X10475Y8177D01*
X0525Y8227D02*
X1783Y8227D01*
X3217Y8227D02*
X10475Y8227D01*
X0525Y8276D02*
X1847Y8276D01*
X3153Y8276D02*
X10475Y8276D01*
X0525Y8326D02*
X1912Y8326D01*
X3088Y8326D02*
X10475Y8326D01*
X0525Y8375D02*
X1976Y8375D01*
X3024Y8375D02*
X10475Y8375D01*
X0525Y8425D02*
X2085Y8425D01*
X2915Y8425D02*
X10475Y8425D01*
X0525Y8474D02*
X2205Y8474D01*
X2795Y8474D02*
X10475Y8474D01*
X0525Y8524D02*
X10475Y8524D01*
X0525Y8573D02*
X10475Y8573D01*
X0525Y8623D02*
X10475Y8623D01*
X0525Y8672D02*
X10475Y8672D01*
X0525Y8722D02*
X10475Y8722D01*
X0525Y8772D02*
X10475Y8772D01*
X0525Y8821D02*
X10475Y8821D01*
X0525Y8871D02*
X10475Y8871D01*
X0525Y8920D02*
X10475Y8920D01*
X0525Y8970D02*
X10475Y8970D01*
X0525Y9019D02*
X2492Y9019D01*
X2508Y9019D02*
X10475Y9019D01*
X0525Y9069D02*
X2197Y9069D01*
X2803Y9069D02*
X10475Y9069D01*
X0525Y9118D02*
X2078Y9118D01*
X2922Y9118D02*
X10475Y9118D01*
X0525Y9168D02*
X1972Y9168D01*
X3028Y9168D02*
X10475Y9168D01*
X0525Y9217D02*
X1908Y9217D01*
X3092Y9217D02*
X10475Y9217D01*
X0525Y9267D02*
X1843Y9267D01*
X3157Y9267D02*
X10475Y9267D01*
X0525Y9316D02*
X1779Y9316D01*
X3221Y9316D02*
X10475Y9316D01*
X0525Y9366D02*
X1740Y9366D01*
X3260Y9366D02*
X10475Y9366D01*
X0525Y9415D02*
X1702Y9415D01*
X3298Y9415D02*
X10475Y9415D01*
X0525Y9465D02*
X1664Y9465D01*
X3336Y9465D02*
X10475Y9465D01*
X0525Y9514D02*
X1626Y9514D01*
X3374Y9514D02*
X10475Y9514D01*
X0525Y9564D02*
X1600Y9564D01*
X3400Y9564D02*
X10475Y9564D01*
X0525Y9614D02*
X1580Y9614D01*
X3420Y9614D02*
X10475Y9614D01*
X0525Y9663D02*
X1559Y9663D01*
X3441Y9663D02*
X10475Y9663D01*
X0525Y9713D02*
X1539Y9713D01*
X3461Y9713D02*
X10475Y9713D01*
X0525Y9762D02*
X1518Y9762D01*
X3482Y9762D02*
X10475Y9762D01*
X0525Y9812D02*
X1508Y9812D01*
X3492Y9812D02*
X10475Y9812D01*
X0525Y9861D02*
X1502Y9861D01*
X3498Y9861D02*
X10475Y9861D01*
X0525Y9911D02*
X1495Y9911D01*
X3505Y9911D02*
X10475Y9911D01*
X0525Y9960D02*
X1489Y9960D01*
X3511Y9960D02*
X10475Y9960D01*
X0525Y10010D02*
X1482Y10010D01*
X3518Y10010D02*
X10475Y10010D01*
X0525Y10059D02*
X1481Y10059D01*
X3519Y10059D02*
X10475Y10059D01*
X0525Y10109D02*
X1487Y10109D01*
X3513Y10109D02*
X10475Y10109D01*
X0525Y10158D02*
X1494Y10158D01*
X3506Y10158D02*
X10475Y10158D01*
X0525Y10208D02*
X1500Y10208D01*
X3500Y10208D02*
X10475Y10208D01*
X0525Y10257D02*
X1507Y10257D01*
X3493Y10257D02*
X10475Y10257D01*
X0525Y10307D02*
X1514Y10307D01*
X3486Y10307D02*
X10475Y10307D01*
X0525Y10356D02*
X1534Y10356D01*
X3466Y10356D02*
X10475Y10356D01*
X0525Y10406D02*
X1555Y10406D01*
X3445Y10406D02*
X10475Y10406D01*
X0525Y10456D02*
X1575Y10456D01*
X3425Y10456D02*
X10475Y10456D01*
X0525Y10505D02*
X1596Y10505D01*
X3404Y10505D02*
X10475Y10505D01*
X0525Y10555D02*
X1618Y10555D01*
X3382Y10555D02*
X10475Y10555D01*
X0525Y10604D02*
X1656Y10604D01*
X3344Y10604D02*
X10475Y10604D01*
X0525Y10654D02*
X1694Y10654D01*
X3306Y10654D02*
X10475Y10654D01*
X0525Y10703D02*
X1732Y10703D01*
X3268Y10703D02*
X10475Y10703D01*
X0525Y10753D02*
X1770Y10753D01*
X3230Y10753D02*
X10475Y10753D01*
X0525Y10802D02*
X1829Y10802D01*
X3171Y10802D02*
X10475Y10802D01*
X0525Y10852D02*
X1894Y10852D01*
X3106Y10852D02*
X10475Y10852D01*
X0525Y10901D02*
X1958Y10901D01*
X3042Y10901D02*
X10475Y10901D01*
X0525Y10951D02*
X2051Y10951D01*
X2949Y10951D02*
X10475Y10951D01*
X0525Y11000D02*
X2171Y11000D01*
X2829Y11000D02*
X10475Y11000D01*
X0525Y11050D02*
X2408Y11050D01*
X2592Y11050D02*
X10475Y11050D01*
X0525Y11099D02*
X10475Y11099D01*
X0525Y11149D02*
X10475Y11149D01*
X0525Y11198D02*
X10475Y11198D01*
X0525Y11248D02*
X10475Y11248D01*
X0525Y11298D02*
X10475Y11298D01*
X0525Y11347D02*
X10475Y11347D01*
X0525Y11397D02*
X10475Y11397D01*
X0525Y11446D02*
X10475Y11446D01*
X0525Y11496D02*
X10475Y11496D01*
X0525Y11545D02*
X10475Y11545D01*
X0525Y11595D02*
X1487Y11595D01*
X2437Y11595D02*
X2563Y11595D01*
X3513Y11595D02*
X10475Y11595D01*
X0525Y11644D02*
X1487Y11644D01*
X2437Y11644D02*
X2563Y11644D01*
X3513Y11644D02*
X10475Y11644D01*
X0525Y11694D02*
X1487Y11694D01*
X2437Y11694D02*
X2563Y11694D01*
X3513Y11694D02*
X10475Y11694D01*
X0525Y11743D02*
X1487Y11743D01*
X2437Y11743D02*
X2563Y11743D01*
X3513Y11743D02*
X10475Y11743D01*
X0525Y11793D02*
X1487Y11793D01*
X2437Y11793D02*
X2563Y11793D01*
X3513Y11793D02*
X10475Y11793D01*
X0525Y11842D02*
X1487Y11842D01*
X2437Y11842D02*
X2563Y11842D01*
X3513Y11842D02*
X10475Y11842D01*
X0525Y11892D02*
X1487Y11892D01*
X2437Y11892D02*
X2563Y11892D01*
X3513Y11892D02*
X10475Y11892D01*
X0525Y11941D02*
X1487Y11941D01*
X2437Y11941D02*
X2563Y11941D01*
X3513Y11941D02*
X10475Y11941D01*
X0525Y11991D02*
X1487Y11991D01*
X2437Y11991D02*
X2563Y11991D01*
X3513Y11991D02*
X10475Y11991D01*
X0525Y12040D02*
X1487Y12040D01*
X2437Y12040D02*
X2563Y12040D01*
X3513Y12040D02*
X10475Y12040D01*
X0525Y12090D02*
X1487Y12090D01*
X2437Y12090D02*
X2563Y12090D01*
X3513Y12090D02*
X10475Y12090D01*
X0525Y12140D02*
X1487Y12140D01*
X2437Y12140D02*
X2563Y12140D01*
X3513Y12140D02*
X10475Y12140D01*
X0525Y12189D02*
X1487Y12189D01*
X2437Y12189D02*
X2563Y12189D01*
X3513Y12189D02*
X10475Y12189D01*
X0525Y12239D02*
X1487Y12239D01*
X2437Y12239D02*
X2563Y12239D01*
X3513Y12239D02*
X10475Y12239D01*
X0525Y12288D02*
X1487Y12288D01*
X2437Y12288D02*
X2563Y12288D01*
X3513Y12288D02*
X10475Y12288D01*
X0525Y12338D02*
X1487Y12338D01*
X2437Y12338D02*
X2563Y12338D01*
X3513Y12338D02*
X10475Y12338D01*
X0525Y12387D02*
X1487Y12387D01*
X2437Y12387D02*
X2563Y12387D01*
X3513Y12387D02*
X10475Y12387D01*
X0525Y12437D02*
X1487Y12437D01*
X2437Y12437D02*
X2563Y12437D01*
X3513Y12437D02*
X10475Y12437D01*
X0525Y12486D02*
X1487Y12486D01*
X2437Y12486D02*
X2563Y12486D01*
X3513Y12486D02*
X10475Y12486D01*
X0525Y12536D02*
X10475Y12536D01*
X0525Y12585D02*
X10475Y12585D01*
X0525Y12635D02*
X10475Y12635D01*
X0525Y12684D02*
X1487Y12684D01*
X2437Y12684D02*
X2563Y12684D01*
X3513Y12684D02*
X10475Y12684D01*
X0525Y12734D02*
X1487Y12734D01*
X2437Y12734D02*
X2563Y12734D01*
X3513Y12734D02*
X10475Y12734D01*
X0525Y12783D02*
X1487Y12783D01*
X2437Y12783D02*
X2563Y12783D01*
X3513Y12783D02*
X10475Y12783D01*
X0525Y12833D02*
X1487Y12833D01*
X2437Y12833D02*
X2563Y12833D01*
X3513Y12833D02*
X10475Y12833D01*
X0525Y12882D02*
X1487Y12882D01*
X2437Y12882D02*
X2563Y12882D01*
X3513Y12882D02*
X10475Y12882D01*
X0525Y12932D02*
X1487Y12932D01*
X2437Y12932D02*
X2563Y12932D01*
X3513Y12932D02*
X10475Y12932D01*
X0525Y12982D02*
X1487Y12982D01*
X2437Y12982D02*
X2563Y12982D01*
X3513Y12982D02*
X10475Y12982D01*
X0525Y13031D02*
X1487Y13031D01*
X2437Y13031D02*
X2563Y13031D01*
X3513Y13031D02*
X10475Y13031D01*
X0525Y13081D02*
X1487Y13081D01*
X2437Y13081D02*
X2563Y13081D01*
X3513Y13081D02*
X10475Y13081D01*
X0525Y13130D02*
X1487Y13130D01*
X2437Y13130D02*
X2563Y13130D01*
X3513Y13130D02*
X10475Y13130D01*
X0525Y13180D02*
X1487Y13180D01*
X2437Y13180D02*
X2563Y13180D01*
X3513Y13180D02*
X10475Y13180D01*
X0525Y13229D02*
X1487Y13229D01*
X2437Y13229D02*
X2563Y13229D01*
X3513Y13229D02*
X10475Y13229D01*
X0525Y13279D02*
X1487Y13279D01*
X2437Y13279D02*
X2563Y13279D01*
X3513Y13279D02*
X10475Y13279D01*
X0525Y13328D02*
X1487Y13328D01*
X2437Y13328D02*
X2563Y13328D01*
X3513Y13328D02*
X10475Y13328D01*
X0525Y13378D02*
X1487Y13378D01*
X2437Y13378D02*
X2563Y13378D01*
X3513Y13378D02*
X10475Y13378D01*
X0525Y13427D02*
X1487Y13427D01*
X2437Y13427D02*
X2563Y13427D01*
X3513Y13427D02*
X10475Y13427D01*
X0525Y13477D02*
X1487Y13477D01*
X2437Y13477D02*
X2563Y13477D01*
X3513Y13477D02*
X10475Y13477D01*
X0525Y13526D02*
X1487Y13526D01*
X2437Y13526D02*
X2563Y13526D01*
X3513Y13526D02*
X10475Y13526D01*
X0525Y13576D02*
X1487Y13576D01*
X2437Y13576D02*
X2563Y13576D01*
X3513Y13576D02*
X10475Y13576D01*
X0525Y13625D02*
X10475Y13625D01*
X0525Y13675D02*
X10475Y13675D01*
X0525Y13725D02*
X10475Y13725D01*
X0525Y13774D02*
X10475Y13774D01*
X0525Y13824D02*
X10475Y13824D01*
X0525Y13873D02*
X10475Y13873D01*
X0525Y13923D02*
X10475Y13923D01*
X0525Y13972D02*
X10475Y13972D01*
X0525Y14022D02*
X10475Y14022D01*
X0525Y14071D02*
X10475Y14071D01*
X0525Y14121D02*
X10475Y14121D01*
X0525Y14170D02*
X10475Y14170D01*
X0525Y14220D02*
X10475Y14220D01*
X0525Y14269D02*
X10475Y14269D01*
X0525Y14319D02*
X10475Y14319D01*
X0525Y14368D02*
X10475Y14368D01*
X0525Y14418D02*
X10475Y14418D01*
X0525Y14467D02*
X10475Y14467D01*
%LNbottom copper_traces*%
D11*
X5000Y12000D03*
X5000Y14000D03*
X5000Y1500D03*
X5000Y4250D03*
X5000Y13000D03*
X5000Y8750D03*
X5000Y5750D03*
X5000Y3250D03*
X5000Y6750D03*
X5000Y9750D03*
%LNbottom copper component 3318ebbb914c5968*%
D12*
X2500Y12580D03*
D13*
X2500Y10040D03*
X2500Y7500D03*
X2500Y4960D03*
X2500Y2420D03*
M02*