%FSLAX33Y33*%
%MOMM*%
%AMRect-W670710-H1320710-RO0.500*
21,1,0.67071,1.32071,0.,0.,270*%
%AMRect-W1650000-H1650000-RO1.000*
21,1,1.65,1.65,0.,0.,180*%
%ADD10C,0.0508*%
%ADD11C,0.508*%
%ADD12C,0.68834*%
%ADD13C,1.6*%
%ADD14Rect-W670710-H1320710-RO0.500*%
%ADD15C,1.6*%
%ADD16R,1.55X0.6*%
%ADD17C,1.65*%
%ADD18Rect-W1650000-H1650000-RO1.000*%
D10*
%LNpour fill*%
G01*
X25475Y12475D02*
X25475Y12475D01*
X8276Y12475*
X8256Y12428*
X8795Y11889*
X10786Y11889*
X10820Y11909*
X10822Y11910*
X10853Y11923*
X10855Y11924*
X10888Y11932*
X10890Y11932*
X10924Y11935*
X10925Y11935*
X12476Y11935*
X12477Y11935*
X12510Y11932*
X12512Y11932*
X12545Y11924*
X12547Y11923*
X12578Y11910*
X12580Y11909*
X12614Y11889*
X15406Y11889*
X15407Y11889*
X15498Y11880*
X15501Y11879*
X15589Y11852*
X15591Y11851*
X15673Y11808*
X15675Y11806*
X15697Y11788*
X15874Y11832*
X15877Y11832*
X16123Y11832*
X16126Y11832*
X16364Y11773*
X16367Y11772*
X16584Y11658*
X16586Y11656*
X16770Y11494*
X16772Y11492*
X16911Y11290*
X16912Y11287*
X16999Y11058*
X17000Y11055*
X17030Y10812*
X17030Y10808*
X17000Y10565*
X16999Y10562*
X16912Y10333*
X16911Y10330*
X16772Y10128*
X16770Y10126*
X16586Y9964*
X16584Y9962*
X16367Y9848*
X16364Y9847*
X16126Y9788*
X16123Y9788*
X15877Y9788*
X15874Y9788*
X15636Y9847*
X15633Y9848*
X15416Y9962*
X15414Y9964*
X15230Y10126*
X15228Y10128*
X15089Y10330*
X15088Y10333*
X15001Y10562*
X15000Y10565*
X14970Y10808*
X14970Y10812*
X14984Y10921*
X12614Y10921*
X12580Y10901*
X12578Y10900*
X12547Y10887*
X12545Y10886*
X12512Y10878*
X12510Y10878*
X12477Y10875*
X12476Y10875*
X10925Y10875*
X10924Y10875*
X10890Y10878*
X10888Y10878*
X10855Y10886*
X10853Y10887*
X10822Y10900*
X10820Y10901*
X10786Y10921*
X8594Y10921*
X8593Y10921*
X8502Y10930*
X8499Y10931*
X8411Y10958*
X8409Y10959*
X8327Y11002*
X8325Y11004*
X8254Y11062*
X8253Y11063*
X7600Y11716*
X7305Y11716*
X7305Y11496*
X7290Y11481*
X7050Y11481*
X7050Y11329*
X7290Y11329*
X7305Y11314*
X7305Y11105*
X7305Y11104*
X7302Y11070*
X7302Y11068*
X7294Y11035*
X7293Y11033*
X7280Y11002*
X7279Y11000*
X7261Y10971*
X7260Y10969*
X7238Y10943*
X7237Y10942*
X7211Y10920*
X7209Y10919*
X7180Y10901*
X7178Y10900*
X7147Y10887*
X7145Y10886*
X7112Y10878*
X7110Y10878*
X7076Y10875*
X7075Y10875*
X6391Y10875*
X6376Y10890*
X6376Y11130*
X6224Y11130*
X6224Y10890*
X6209Y10875*
X5524Y10875*
X5523Y10875*
X5490Y10878*
X5488Y10878*
X5455Y10886*
X5453Y10887*
X5422Y10900*
X5420Y10901*
X5391Y10919*
X5389Y10920*
X5363Y10942*
X5362Y10943*
X5340Y10969*
X5339Y10971*
X5321Y11000*
X5320Y11002*
X5307Y11033*
X5306Y11035*
X5298Y11068*
X5298Y11070*
X5295Y11103*
X5295Y11104*
X5295Y11314*
X5310Y11329*
X5550Y11329*
X5550Y11481*
X5310Y11481*
X5295Y11496*
X5295Y11716*
X4800Y11716*
X3029Y9945*
X3098Y9909*
X3100Y9907*
X3288Y9740*
X3290Y9738*
X3433Y9531*
X3435Y9529*
X3524Y9294*
X3524Y9291*
X3555Y9042*
X3555Y9038*
X3524Y8789*
X3524Y8786*
X3500Y8724*
X4145Y8079*
X5386Y8079*
X5420Y8099*
X5422Y8100*
X5453Y8113*
X5455Y8114*
X5488Y8122*
X5490Y8122*
X5523Y8125*
X5524Y8125*
X7065Y8125*
X7084Y8172*
X6921Y8335*
X5524Y8335*
X5523Y8335*
X5490Y8338*
X5488Y8338*
X5455Y8346*
X5453Y8347*
X5422Y8360*
X5420Y8361*
X5391Y8379*
X5389Y8380*
X5363Y8402*
X5362Y8403*
X5340Y8429*
X5339Y8431*
X5321Y8460*
X5320Y8462*
X5307Y8493*
X5306Y8495*
X5298Y8528*
X5298Y8530*
X5295Y8563*
X5295Y8564*
X5295Y9166*
X5295Y9167*
X5298Y9200*
X5298Y9202*
X5306Y9235*
X5307Y9237*
X5320Y9268*
X5321Y9270*
X5339Y9299*
X5340Y9301*
X5362Y9327*
X5363Y9328*
X5389Y9350*
X5391Y9351*
X5420Y9369*
X5422Y9370*
X5453Y9383*
X5455Y9384*
X5488Y9392*
X5490Y9392*
X5523Y9395*
X5524Y9395*
X7075Y9395*
X7076Y9395*
X7110Y9392*
X7112Y9392*
X7145Y9384*
X7147Y9383*
X7178Y9370*
X7180Y9369*
X7209Y9351*
X7211Y9350*
X7237Y9328*
X7238Y9327*
X7247Y9316*
X7259Y9312*
X7261Y9311*
X7343Y9268*
X7345Y9266*
X7416Y9208*
X7416Y9207*
X8142Y8482*
X8143Y8481*
X8201Y8410*
X8203Y8408*
X8246Y8326*
X8247Y8324*
X8274Y8236*
X8275Y8233*
X8284Y8142*
X8284Y8141*
X8284Y7594*
X8284Y7593*
X8275Y7502*
X8274Y7499*
X8266Y7472*
X8274Y7446*
X8275Y7443*
X8284Y7351*
X8284Y7349*
X8275Y7257*
X8274Y7254*
X8247Y7166*
X8246Y7164*
X8203Y7082*
X8201Y7080*
X8143Y7009*
X8142Y7008*
X6890Y5756*
X6890Y5214*
X6890Y5213*
X6887Y5180*
X6887Y5178*
X6879Y5145*
X6878Y5143*
X6865Y5111*
X6864Y5110*
X6847Y5080*
X6846Y5079*
X6823Y5053*
X6822Y5052*
X6796Y5029*
X6795Y5028*
X6765Y5011*
X6764Y5010*
X6732Y4997*
X6730Y4996*
X6697Y4988*
X6695Y4988*
X6662Y4985*
X6661Y4985*
X5339Y4985*
X5338Y4985*
X5305Y4988*
X5303Y4988*
X5270Y4996*
X5268Y4997*
X5236Y5010*
X5235Y5011*
X5205Y5028*
X5204Y5029*
X5178Y5052*
X5177Y5053*
X5165Y5066*
X3449Y5066*
X3448Y5066*
X3403Y5071*
X3387Y5007*
X3428Y4990*
X3430Y4989*
X3459Y4971*
X3461Y4970*
X3487Y4948*
X3488Y4947*
X3510Y4921*
X3511Y4919*
X3529Y4890*
X3530Y4888*
X3543Y4857*
X3544Y4855*
X3552Y4822*
X3552Y4820*
X3555Y4786*
X3555Y4785*
X3555Y4051*
X3540Y4036*
X3300Y4036*
X3300Y3884*
X3540Y3884*
X3555Y3869*
X3555Y3135*
X3555Y3134*
X3552Y3100*
X3552Y3098*
X3544Y3065*
X3543Y3063*
X3530Y3032*
X3529Y3030*
X3511Y3001*
X3510Y2999*
X3488Y2973*
X3487Y2972*
X3461Y2950*
X3459Y2949*
X3430Y2931*
X3428Y2930*
X3397Y2917*
X3395Y2916*
X3362Y2908*
X3360Y2908*
X3327Y2905*
X3326Y2905*
X2591Y2905*
X2576Y2920*
X2576Y3160*
X2424Y3160*
X2424Y2920*
X2409Y2905*
X1674Y2905*
X1673Y2905*
X1640Y2908*
X1638Y2908*
X1605Y2916*
X1603Y2917*
X1572Y2930*
X1570Y2931*
X1541Y2949*
X1539Y2950*
X1513Y2972*
X1512Y2973*
X1490Y2999*
X1489Y3001*
X1471Y3030*
X1470Y3032*
X1457Y3063*
X1456Y3065*
X1448Y3098*
X1448Y3100*
X1445Y3133*
X1445Y3134*
X1445Y3869*
X1460Y3884*
X1700Y3884*
X1700Y4036*
X1460Y4036*
X1445Y4051*
X1445Y4786*
X1445Y4787*
X1448Y4820*
X1448Y4822*
X1456Y4855*
X1457Y4857*
X1470Y4888*
X1471Y4890*
X1489Y4919*
X1490Y4921*
X1512Y4947*
X1513Y4948*
X1539Y4970*
X1541Y4971*
X1570Y4989*
X1572Y4990*
X1603Y5003*
X1605Y5004*
X1638Y5012*
X1640Y5012*
X1674Y5015*
X1675Y5015*
X2409Y5015*
X2424Y5000*
X2424Y4760*
X2576Y4760*
X2576Y5000*
X2591Y5015*
X3333Y5015*
X3342Y5080*
X3266Y5103*
X3264Y5104*
X3182Y5147*
X3180Y5149*
X3109Y5207*
X3108Y5208*
X2817Y5500*
X2629Y5453*
X2626Y5453*
X2374Y5453*
X2371Y5453*
X2127Y5513*
X2125Y5514*
X1902Y5631*
X1900Y5633*
X1712Y5800*
X1710Y5802*
X1567Y6009*
X1565Y6011*
X1476Y6246*
X1476Y6249*
X1445Y6498*
X1445Y6502*
X1476Y6751*
X1476Y6754*
X1565Y6989*
X1567Y6991*
X1710Y7198*
X1712Y7200*
X1900Y7367*
X1902Y7369*
X2125Y7486*
X2127Y7487*
X2371Y7547*
X2374Y7547*
X2626Y7547*
X2629Y7547*
X2873Y7487*
X2875Y7486*
X3098Y7369*
X3100Y7367*
X3288Y7200*
X3290Y7198*
X3433Y6991*
X3435Y6989*
X3524Y6754*
X3524Y6751*
X3555Y6502*
X3555Y6498*
X3524Y6249*
X3524Y6246*
X3500Y6184*
X3650Y6034*
X5165Y6034*
X5177Y6047*
X5178Y6048*
X5204Y6071*
X5205Y6072*
X5235Y6089*
X5236Y6090*
X5268Y6103*
X5270Y6104*
X5303Y6112*
X5305Y6112*
X5338Y6115*
X5339Y6115*
X5881Y6115*
X6784Y7018*
X6765Y7065*
X5524Y7065*
X5523Y7065*
X5490Y7068*
X5488Y7068*
X5455Y7076*
X5453Y7077*
X5422Y7090*
X5420Y7091*
X5386Y7111*
X3944Y7111*
X3943Y7111*
X3852Y7120*
X3849Y7121*
X3761Y7148*
X3759Y7149*
X3677Y7192*
X3675Y7194*
X3604Y7252*
X3603Y7253*
X2817Y8040*
X2629Y7993*
X2626Y7993*
X2374Y7993*
X2371Y7993*
X2127Y8053*
X2125Y8054*
X1902Y8171*
X1900Y8173*
X1712Y8340*
X1710Y8342*
X1567Y8549*
X1565Y8551*
X1476Y8786*
X1476Y8789*
X1445Y9038*
X1445Y9042*
X1476Y9291*
X1476Y9294*
X1565Y9529*
X1567Y9531*
X1710Y9738*
X1712Y9740*
X1900Y9907*
X1902Y9909*
X2016Y9969*
X2016Y10101*
X2016Y10102*
X2025Y10193*
X2026Y10196*
X2053Y10284*
X2054Y10286*
X2097Y10368*
X2099Y10370*
X2157Y10441*
X2158Y10442*
X4144Y12428*
X4124Y12475*
X0525Y12475*
X0525Y0525*
X25475Y0525*
X25475Y12475*
X12477Y8335D02*
X12477Y8335D01*
X12510Y8338*
X12512Y8338*
X12545Y8346*
X12547Y8347*
X12578Y8360*
X12580Y8361*
X12614Y8381*
X18056Y8381*
X18057Y8381*
X18148Y8390*
X18151Y8391*
X18239Y8418*
X18241Y8419*
X18323Y8462*
X18325Y8464*
X18396Y8522*
X18397Y8523*
X19704Y9830*
X19874Y9788*
X19877Y9788*
X20123Y9788*
X20126Y9788*
X20364Y9847*
X20367Y9848*
X20584Y9962*
X20586Y9964*
X20770Y10126*
X20772Y10128*
X20908Y10326*
X23092Y10326*
X23228Y10128*
X23230Y10126*
X23414Y9964*
X23416Y9962*
X23633Y9848*
X23636Y9847*
X23874Y9788*
X23877Y9788*
X24123Y9788*
X24126Y9788*
X24364Y9847*
X24367Y9848*
X24584Y9962*
X24586Y9964*
X24770Y10126*
X24772Y10128*
X24911Y10330*
X24912Y10333*
X24999Y10562*
X25000Y10565*
X25030Y10808*
X25030Y10812*
X25000Y11055*
X24999Y11058*
X24912Y11287*
X24911Y11290*
X24772Y11492*
X24770Y11494*
X24586Y11656*
X24584Y11658*
X24367Y11772*
X24364Y11773*
X24126Y11832*
X24123Y11832*
X23877Y11832*
X23874Y11832*
X23636Y11773*
X23633Y11772*
X23416Y11658*
X23414Y11656*
X23230Y11494*
X23228Y11492*
X23092Y11294*
X20908Y11294*
X20772Y11492*
X20770Y11494*
X20586Y11656*
X20584Y11658*
X20367Y11772*
X20364Y11773*
X20126Y11832*
X20123Y11832*
X19877Y11832*
X19874Y11832*
X19636Y11773*
X19633Y11772*
X19416Y11658*
X19414Y11656*
X19230Y11494*
X19228Y11492*
X19089Y11290*
X19088Y11287*
X19001Y11058*
X19000Y11055*
X18970Y10812*
X18970Y10808*
X19000Y10565*
X19001Y10562*
X19019Y10513*
X17855Y9349*
X12614Y9349*
X12580Y9369*
X12578Y9370*
X12547Y9383*
X12545Y9384*
X12512Y9392*
X12510Y9392*
X12477Y9395*
X12476Y9395*
X10925Y9395*
X10924Y9395*
X10890Y9392*
X10888Y9392*
X10855Y9384*
X10853Y9383*
X10822Y9370*
X10820Y9369*
X10786Y9349*
X9810Y9349*
X8681Y10477*
X8680Y10478*
X8609Y10536*
X8607Y10538*
X8526Y10581*
X8524Y10582*
X8435Y10609*
X8433Y10610*
X8342Y10619*
X8340Y10619*
X7214Y10619*
X7180Y10639*
X7178Y10640*
X7147Y10653*
X7145Y10654*
X7112Y10662*
X7110Y10662*
X7076Y10665*
X7075Y10665*
X5524Y10665*
X5523Y10665*
X5490Y10662*
X5488Y10662*
X5455Y10654*
X5453Y10653*
X5422Y10640*
X5420Y10639*
X5391Y10621*
X5389Y10620*
X5363Y10598*
X5362Y10597*
X5340Y10571*
X5339Y10569*
X5321Y10540*
X5320Y10538*
X5307Y10507*
X5306Y10505*
X5298Y10472*
X5298Y10470*
X5295Y10437*
X5295Y10436*
X5295Y9834*
X5295Y9833*
X5298Y9800*
X5298Y9798*
X5306Y9765*
X5307Y9763*
X5320Y9732*
X5321Y9730*
X5339Y9701*
X5340Y9699*
X5362Y9673*
X5363Y9672*
X5389Y9650*
X5391Y9649*
X5420Y9631*
X5422Y9630*
X5453Y9617*
X5455Y9616*
X5488Y9608*
X5490Y9608*
X5523Y9605*
X5524Y9605*
X7075Y9605*
X7076Y9605*
X7110Y9608*
X7112Y9608*
X7145Y9616*
X7147Y9617*
X7178Y9630*
X7180Y9631*
X7214Y9651*
X8139Y9651*
X9268Y8523*
X9269Y8522*
X9340Y8464*
X9342Y8462*
X9423Y8419*
X9426Y8418*
X9514Y8391*
X9517Y8390*
X9608Y8381*
X9609Y8381*
X10786Y8381*
X10820Y8361*
X10822Y8360*
X10853Y8347*
X10855Y8346*
X10888Y8338*
X10890Y8338*
X10924Y8335*
X10925Y8335*
X12476Y8335*
X12477Y8335*
X13771Y9566D02*
X13771Y9566D01*
X13902Y9598*
X13905Y9599*
X14025Y9662*
X14027Y9664*
X14128Y9753*
X14131Y9756*
X14207Y9867*
X14209Y9870*
X14257Y9996*
X14257Y9999*
X14274Y10133*
X14274Y10137*
X14257Y10271*
X14257Y10274*
X14209Y10400*
X14207Y10403*
X14131Y10514*
X14128Y10517*
X14027Y10606*
X14025Y10608*
X13905Y10671*
X13902Y10672*
X13771Y10704*
X13768Y10705*
X13632Y10705*
X13629Y10704*
X13498Y10672*
X13495Y10671*
X13395Y10619*
X12614Y10619*
X12580Y10639*
X12578Y10640*
X12547Y10653*
X12545Y10654*
X12512Y10662*
X12510Y10662*
X12477Y10665*
X12476Y10665*
X10925Y10665*
X10924Y10665*
X10890Y10662*
X10888Y10662*
X10855Y10654*
X10853Y10653*
X10822Y10640*
X10820Y10639*
X10791Y10621*
X10789Y10620*
X10763Y10598*
X10762Y10597*
X10740Y10571*
X10739Y10569*
X10721Y10540*
X10720Y10538*
X10707Y10507*
X10706Y10505*
X10698Y10472*
X10698Y10470*
X10695Y10437*
X10695Y10436*
X10695Y9834*
X10695Y9833*
X10698Y9800*
X10698Y9798*
X10706Y9765*
X10707Y9763*
X10720Y9732*
X10721Y9730*
X10739Y9701*
X10740Y9699*
X10762Y9673*
X10763Y9672*
X10789Y9650*
X10791Y9649*
X10820Y9631*
X10822Y9630*
X10853Y9617*
X10855Y9616*
X10888Y9608*
X10890Y9608*
X10924Y9605*
X10925Y9605*
X12476Y9605*
X12477Y9605*
X12510Y9608*
X12512Y9608*
X12545Y9616*
X12547Y9617*
X12578Y9630*
X12580Y9631*
X12614Y9651*
X13395Y9651*
X13495Y9599*
X13498Y9598*
X13629Y9566*
X13632Y9565*
X13768Y9565*
X13771Y9566*
X12662Y4985D02*
X12662Y4985D01*
X12695Y4988*
X12697Y4988*
X12730Y4996*
X12732Y4997*
X12764Y5010*
X12765Y5011*
X12795Y5028*
X12796Y5029*
X12822Y5052*
X12823Y5053*
X12846Y5079*
X12847Y5080*
X12864Y5110*
X12865Y5111*
X12878Y5143*
X12879Y5145*
X12887Y5178*
X12887Y5180*
X12890Y5213*
X12890Y5214*
X12890Y5886*
X12890Y5887*
X12887Y5920*
X12887Y5922*
X12879Y5955*
X12878Y5957*
X12865Y5989*
X12864Y5990*
X12847Y6020*
X12846Y6021*
X12823Y6047*
X12822Y6048*
X12796Y6071*
X12795Y6072*
X12765Y6089*
X12764Y6090*
X12732Y6103*
X12730Y6104*
X12697Y6112*
X12695Y6112*
X12662Y6115*
X12661Y6115*
X12484Y6115*
X12484Y7062*
X12545Y7076*
X12547Y7077*
X12578Y7090*
X12580Y7091*
X12609Y7109*
X12611Y7110*
X12637Y7132*
X12638Y7133*
X12660Y7159*
X12661Y7161*
X12679Y7190*
X12680Y7192*
X12693Y7223*
X12694Y7225*
X12702Y7258*
X12702Y7260*
X12705Y7294*
X12705Y7295*
X12705Y7895*
X12705Y7896*
X12702Y7930*
X12702Y7932*
X12694Y7965*
X12693Y7967*
X12680Y7998*
X12679Y8000*
X12661Y8029*
X12660Y8031*
X12638Y8057*
X12637Y8058*
X12611Y8080*
X12609Y8081*
X12580Y8099*
X12578Y8100*
X12547Y8113*
X12545Y8114*
X12512Y8122*
X12510Y8122*
X12477Y8125*
X12476Y8125*
X10925Y8125*
X10924Y8125*
X10890Y8122*
X10888Y8122*
X10855Y8114*
X10853Y8113*
X10822Y8100*
X10820Y8099*
X10791Y8081*
X10789Y8080*
X10763Y8058*
X10762Y8057*
X10740Y8031*
X10739Y8029*
X10721Y8000*
X10720Y7998*
X10707Y7967*
X10706Y7965*
X10698Y7932*
X10698Y7930*
X10695Y7897*
X10695Y7896*
X10695Y7294*
X10695Y7293*
X10698Y7260*
X10698Y7258*
X10706Y7225*
X10707Y7223*
X10720Y7192*
X10721Y7190*
X10739Y7161*
X10740Y7159*
X10762Y7133*
X10763Y7132*
X10789Y7110*
X10791Y7109*
X10820Y7091*
X10822Y7090*
X10853Y7077*
X10855Y7076*
X10888Y7068*
X10890Y7068*
X10924Y7065*
X10925Y7065*
X11516Y7065*
X11516Y6115*
X11339Y6115*
X11338Y6115*
X11305Y6112*
X11303Y6112*
X11270Y6104*
X11268Y6103*
X11236Y6090*
X11235Y6089*
X11205Y6072*
X11204Y6071*
X11178Y6048*
X11177Y6047*
X11154Y6021*
X11153Y6020*
X11136Y5990*
X11135Y5989*
X11122Y5957*
X11121Y5955*
X11113Y5922*
X11113Y5920*
X11110Y5887*
X11110Y5886*
X11110Y5214*
X11110Y5213*
X11113Y5180*
X11113Y5178*
X11121Y5145*
X11122Y5143*
X11135Y5111*
X11136Y5110*
X11153Y5080*
X11154Y5079*
X11177Y5053*
X11178Y5052*
X11204Y5029*
X11205Y5028*
X11235Y5011*
X11236Y5010*
X11268Y4997*
X11270Y4996*
X11303Y4988*
X11305Y4988*
X11338Y4985*
X11339Y4985*
X12661Y4985*
X12662Y4985*
X8924Y5000D02*
X8924Y5000D01*
X8924Y5240*
X9076Y5240*
X9076Y5000*
X9091Y4985*
X9661Y4985*
X9662Y4985*
X9695Y4988*
X9697Y4988*
X9730Y4996*
X9732Y4997*
X9764Y5010*
X9765Y5011*
X9795Y5028*
X9796Y5029*
X9822Y5052*
X9823Y5053*
X9846Y5079*
X9847Y5080*
X9864Y5110*
X9865Y5111*
X9878Y5143*
X9879Y5145*
X9887Y5178*
X9887Y5180*
X9890Y5213*
X9890Y5214*
X9890Y5459*
X9875Y5474*
X9635Y5474*
X9635Y5626*
X9875Y5626*
X9890Y5641*
X9890Y5886*
X9890Y5887*
X9887Y5920*
X9887Y5922*
X9879Y5955*
X9878Y5957*
X9865Y5989*
X9864Y5990*
X9847Y6020*
X9846Y6021*
X9823Y6047*
X9822Y6048*
X9796Y6071*
X9795Y6072*
X9765Y6089*
X9764Y6090*
X9732Y6103*
X9730Y6104*
X9697Y6112*
X9695Y6112*
X9662Y6115*
X9661Y6115*
X9091Y6115*
X9076Y6100*
X9076Y5860*
X8924Y5860*
X8924Y6100*
X8909Y6115*
X8339Y6115*
X8338Y6115*
X8305Y6112*
X8303Y6112*
X8270Y6104*
X8268Y6103*
X8236Y6090*
X8235Y6089*
X8205Y6072*
X8204Y6071*
X8178Y6048*
X8177Y6047*
X8154Y6021*
X8153Y6020*
X8136Y5990*
X8135Y5989*
X8122Y5957*
X8121Y5955*
X8113Y5922*
X8113Y5920*
X8110Y5887*
X8110Y5886*
X8110Y5641*
X8125Y5626*
X8365Y5626*
X8365Y5474*
X8125Y5474*
X8110Y5459*
X8110Y5214*
X8110Y5213*
X8113Y5180*
X8113Y5178*
X8121Y5145*
X8122Y5143*
X8135Y5111*
X8136Y5110*
X8153Y5080*
X8154Y5079*
X8177Y5053*
X8178Y5052*
X8204Y5029*
X8205Y5028*
X8235Y5011*
X8236Y5010*
X8268Y4997*
X8270Y4996*
X8303Y4988*
X8305Y4988*
X8338Y4985*
X8339Y4985*
X8909Y4985*
X8924Y5000*
X16126Y2168D02*
X16126Y2168D01*
X16364Y2227*
X16367Y2228*
X16584Y2342*
X16586Y2344*
X16770Y2506*
X16772Y2508*
X16908Y2706*
X19092Y2706*
X19228Y2508*
X19230Y2506*
X19414Y2344*
X19416Y2342*
X19633Y2228*
X19636Y2227*
X19874Y2168*
X19877Y2168*
X20123Y2168*
X20126Y2168*
X20364Y2227*
X20367Y2228*
X20584Y2342*
X20586Y2344*
X20770Y2506*
X20772Y2508*
X20911Y2710*
X20912Y2713*
X20999Y2942*
X21000Y2945*
X21030Y3188*
X21030Y3192*
X21000Y3435*
X20999Y3438*
X20912Y3667*
X20911Y3670*
X20772Y3872*
X20770Y3874*
X20586Y4036*
X20584Y4038*
X20367Y4152*
X20364Y4153*
X20126Y4212*
X20123Y4212*
X19877Y4212*
X19874Y4212*
X19636Y4153*
X19633Y4152*
X19416Y4038*
X19414Y4036*
X19230Y3874*
X19228Y3872*
X19092Y3674*
X16908Y3674*
X16772Y3872*
X16770Y3874*
X16586Y4036*
X16584Y4038*
X16367Y4152*
X16364Y4153*
X16126Y4212*
X16123Y4212*
X15877Y4212*
X15874Y4212*
X15636Y4153*
X15633Y4152*
X15416Y4038*
X15414Y4036*
X15230Y3874*
X15228Y3872*
X15089Y3670*
X15088Y3667*
X15001Y3438*
X15000Y3435*
X14970Y3192*
X14970Y3188*
X15000Y2945*
X15001Y2942*
X15088Y2713*
X15089Y2710*
X15228Y2508*
X15230Y2506*
X15414Y2344*
X15416Y2342*
X15633Y2228*
X15636Y2227*
X15874Y2168*
X15877Y2168*
X16123Y2168*
X16126Y2168*
X24364Y2227D02*
X24364Y2227D01*
X24367Y2228*
X24584Y2342*
X24586Y2344*
X24770Y2506*
X24772Y2508*
X24911Y2710*
X24912Y2713*
X24999Y2942*
X25000Y2945*
X25007Y2998*
X24991Y3015*
X24775Y3015*
X24775Y3365*
X24991Y3365*
X25007Y3382*
X25000Y3435*
X24999Y3438*
X24912Y3667*
X24911Y3670*
X24772Y3872*
X24770Y3874*
X24586Y4036*
X24584Y4038*
X24367Y4152*
X24364Y4153*
X24194Y4195*
X24175Y4180*
X24175Y3959*
X23825Y3959*
X23825Y4180*
X23806Y4195*
X23636Y4153*
X23633Y4152*
X23416Y4038*
X23414Y4036*
X23230Y3874*
X23228Y3872*
X23089Y3670*
X23088Y3667*
X23001Y3438*
X23000Y3435*
X22993Y3382*
X23009Y3365*
X23225Y3365*
X23225Y3015*
X23009Y3015*
X22993Y2998*
X23000Y2945*
X23001Y2942*
X23088Y2713*
X23089Y2710*
X23228Y2508*
X23230Y2506*
X23414Y2344*
X23416Y2342*
X23633Y2228*
X23636Y2227*
X23806Y2185*
X23825Y2200*
X23825Y2421*
X24175Y2421*
X24175Y2200*
X24194Y2185*
X24364Y2227*
X6662Y2885D02*
X6662Y2885D01*
X6695Y2888*
X6697Y2888*
X6730Y2896*
X6732Y2897*
X6764Y2910*
X6765Y2911*
X6795Y2928*
X6796Y2929*
X6822Y2952*
X6823Y2953*
X6835Y2966*
X8165Y2966*
X8177Y2953*
X8178Y2952*
X8204Y2929*
X8205Y2928*
X8235Y2911*
X8236Y2910*
X8268Y2897*
X8270Y2896*
X8303Y2888*
X8305Y2888*
X8338Y2885*
X8339Y2885*
X9661Y2885*
X9662Y2885*
X9695Y2888*
X9697Y2888*
X9730Y2896*
X9732Y2897*
X9764Y2910*
X9765Y2911*
X9795Y2928*
X9796Y2929*
X9822Y2952*
X9823Y2953*
X9846Y2979*
X9847Y2980*
X9864Y3010*
X9865Y3011*
X9878Y3043*
X9879Y3045*
X9887Y3078*
X9887Y3080*
X9890Y3113*
X9890Y3114*
X9890Y3786*
X9890Y3787*
X9887Y3820*
X9887Y3822*
X9879Y3855*
X9878Y3857*
X9865Y3889*
X9864Y3890*
X9847Y3920*
X9846Y3921*
X9823Y3947*
X9822Y3948*
X9796Y3971*
X9795Y3972*
X9765Y3989*
X9764Y3990*
X9732Y4003*
X9730Y4004*
X9697Y4012*
X9695Y4012*
X9662Y4015*
X9661Y4015*
X8339Y4015*
X8338Y4015*
X8305Y4012*
X8303Y4012*
X8270Y4004*
X8268Y4003*
X8236Y3990*
X8235Y3989*
X8205Y3972*
X8204Y3971*
X8178Y3948*
X8177Y3947*
X8165Y3934*
X6835Y3934*
X6823Y3947*
X6822Y3948*
X6796Y3971*
X6795Y3972*
X6765Y3989*
X6764Y3990*
X6732Y4003*
X6730Y4004*
X6697Y4012*
X6695Y4012*
X6662Y4015*
X6661Y4015*
X5339Y4015*
X5338Y4015*
X5305Y4012*
X5303Y4012*
X5270Y4004*
X5268Y4003*
X5236Y3990*
X5235Y3989*
X5205Y3972*
X5204Y3971*
X5178Y3948*
X5177Y3947*
X5154Y3921*
X5153Y3920*
X5136Y3890*
X5135Y3889*
X5122Y3857*
X5121Y3855*
X5113Y3822*
X5113Y3820*
X5110Y3787*
X5110Y3786*
X5110Y3114*
X5110Y3113*
X5113Y3080*
X5113Y3078*
X5121Y3045*
X5122Y3043*
X5135Y3011*
X5136Y3010*
X5153Y2980*
X5154Y2979*
X5177Y2953*
X5178Y2952*
X5204Y2929*
X5205Y2928*
X5235Y2911*
X5236Y2910*
X5268Y2897*
X5270Y2896*
X5303Y2888*
X5305Y2888*
X5338Y2885*
X5339Y2885*
X6661Y2885*
X6662Y2885*
X11924Y2900D02*
X11924Y2900D01*
X11924Y3140*
X12076Y3140*
X12076Y2900*
X12091Y2885*
X12661Y2885*
X12662Y2885*
X12695Y2888*
X12697Y2888*
X12730Y2896*
X12732Y2897*
X12764Y2910*
X12765Y2911*
X12795Y2928*
X12796Y2929*
X12822Y2952*
X12823Y2953*
X12846Y2979*
X12847Y2980*
X12864Y3010*
X12865Y3011*
X12878Y3043*
X12879Y3045*
X12887Y3078*
X12887Y3080*
X12890Y3113*
X12890Y3114*
X12890Y3359*
X12875Y3374*
X12635Y3374*
X12635Y3526*
X12875Y3526*
X12890Y3541*
X12890Y3786*
X12890Y3787*
X12887Y3820*
X12887Y3822*
X12879Y3855*
X12878Y3857*
X12865Y3889*
X12864Y3890*
X12847Y3920*
X12846Y3921*
X12823Y3947*
X12822Y3948*
X12796Y3971*
X12795Y3972*
X12765Y3989*
X12764Y3990*
X12732Y4003*
X12730Y4004*
X12697Y4012*
X12695Y4012*
X12662Y4015*
X12661Y4015*
X12091Y4015*
X12076Y4000*
X12076Y3760*
X11924Y3760*
X11924Y4000*
X11909Y4015*
X11339Y4015*
X11338Y4015*
X11305Y4012*
X11303Y4012*
X11270Y4004*
X11268Y4003*
X11236Y3990*
X11235Y3989*
X11205Y3972*
X11204Y3971*
X11178Y3948*
X11177Y3947*
X11154Y3921*
X11153Y3920*
X11136Y3890*
X11135Y3889*
X11122Y3857*
X11121Y3855*
X11113Y3822*
X11113Y3820*
X11110Y3787*
X11110Y3786*
X11110Y3541*
X11125Y3526*
X11365Y3526*
X11365Y3374*
X11125Y3374*
X11110Y3359*
X11110Y3114*
X11110Y3113*
X11113Y3080*
X11113Y3078*
X11121Y3045*
X11122Y3043*
X11135Y3011*
X11136Y3010*
X11153Y2980*
X11154Y2979*
X11177Y2953*
X11178Y2952*
X11204Y2929*
X11205Y2928*
X11235Y2911*
X11236Y2910*
X11268Y2897*
X11270Y2896*
X11303Y2888*
X11305Y2888*
X11338Y2885*
X11339Y2885*
X11909Y2885*
X11924Y2900*
X0525Y0550D02*
X25475Y0550D01*
X0525Y0599D02*
X25475Y0599D01*
X0525Y0649D02*
X25475Y0649D01*
X0525Y0698D02*
X25475Y0698D01*
X0525Y0748D02*
X25475Y0748D01*
X0525Y0797D02*
X25475Y0797D01*
X0525Y0847D02*
X25475Y0847D01*
X0525Y0896D02*
X25475Y0896D01*
X0525Y0946D02*
X25475Y0946D01*
X0525Y0995D02*
X25475Y0995D01*
X0525Y1045D02*
X25475Y1045D01*
X0525Y1094D02*
X25475Y1094D01*
X0525Y1144D02*
X25475Y1144D01*
X0525Y1193D02*
X25475Y1193D01*
X0525Y1243D02*
X25475Y1243D01*
X0525Y1292D02*
X25475Y1292D01*
X0525Y1342D02*
X25475Y1342D01*
X0525Y1392D02*
X25475Y1392D01*
X0525Y1441D02*
X25475Y1441D01*
X0525Y1491D02*
X25475Y1491D01*
X0525Y1540D02*
X25475Y1540D01*
X0525Y1590D02*
X25475Y1590D01*
X0525Y1639D02*
X25475Y1639D01*
X0525Y1689D02*
X25475Y1689D01*
X0525Y1738D02*
X25475Y1738D01*
X0525Y1788D02*
X25475Y1788D01*
X0525Y1837D02*
X25475Y1837D01*
X0525Y1887D02*
X25475Y1887D01*
X0525Y1936D02*
X25475Y1936D01*
X0525Y1986D02*
X25475Y1986D01*
X0525Y2035D02*
X25475Y2035D01*
X0525Y2085D02*
X25475Y2085D01*
X0525Y2134D02*
X25475Y2134D01*
X0525Y2184D02*
X15810Y2184D01*
X16190Y2184D02*
X19810Y2184D01*
X20190Y2184D02*
X25475Y2184D01*
X0525Y2234D02*
X15623Y2234D01*
X16377Y2234D02*
X19623Y2234D01*
X20377Y2234D02*
X23623Y2234D01*
X23825Y2234D02*
X24175Y2234D01*
X24377Y2234D02*
X25475Y2234D01*
X0525Y2283D02*
X15528Y2283D01*
X16472Y2283D02*
X19528Y2283D01*
X20472Y2283D02*
X23528Y2283D01*
X23825Y2283D02*
X24175Y2283D01*
X24472Y2283D02*
X25475Y2283D01*
X0525Y2333D02*
X15434Y2333D01*
X16566Y2333D02*
X19434Y2333D01*
X20566Y2333D02*
X23434Y2333D01*
X23825Y2333D02*
X24175Y2333D01*
X24566Y2333D02*
X25475Y2333D01*
X0525Y2382D02*
X15370Y2382D01*
X16630Y2382D02*
X19370Y2382D01*
X20630Y2382D02*
X23370Y2382D01*
X23825Y2382D02*
X24175Y2382D01*
X24630Y2382D02*
X25475Y2382D01*
X0525Y2432D02*
X15314Y2432D01*
X16686Y2432D02*
X19314Y2432D01*
X20686Y2432D02*
X23314Y2432D01*
X24686Y2432D02*
X25475Y2432D01*
X0525Y2481D02*
X15258Y2481D01*
X16742Y2481D02*
X19258Y2481D01*
X20742Y2481D02*
X23258Y2481D01*
X24742Y2481D02*
X25475Y2481D01*
X0525Y2531D02*
X15213Y2531D01*
X16787Y2531D02*
X19213Y2531D01*
X20787Y2531D02*
X23213Y2531D01*
X24787Y2531D02*
X25475Y2531D01*
X0525Y2580D02*
X15179Y2580D01*
X16821Y2580D02*
X19179Y2580D01*
X20821Y2580D02*
X23179Y2580D01*
X24821Y2580D02*
X25475Y2580D01*
X0525Y2630D02*
X15145Y2630D01*
X16855Y2630D02*
X19145Y2630D01*
X20855Y2630D02*
X23145Y2630D01*
X24855Y2630D02*
X25475Y2630D01*
X0525Y2679D02*
X15110Y2679D01*
X16890Y2679D02*
X19110Y2679D01*
X20890Y2679D02*
X23110Y2679D01*
X24890Y2679D02*
X25475Y2679D01*
X0525Y2729D02*
X15082Y2729D01*
X20918Y2729D02*
X23082Y2729D01*
X24918Y2729D02*
X25475Y2729D01*
X0525Y2778D02*
X15063Y2778D01*
X20937Y2778D02*
X23063Y2778D01*
X24937Y2778D02*
X25475Y2778D01*
X0525Y2828D02*
X15044Y2828D01*
X20956Y2828D02*
X23044Y2828D01*
X24956Y2828D02*
X25475Y2828D01*
X0525Y2877D02*
X15025Y2877D01*
X20975Y2877D02*
X23025Y2877D01*
X24975Y2877D02*
X25475Y2877D01*
X0525Y2927D02*
X1579Y2927D01*
X2424Y2927D02*
X2576Y2927D01*
X3421Y2927D02*
X5208Y2927D01*
X6792Y2927D02*
X8208Y2927D01*
X9792Y2927D02*
X11208Y2927D01*
X11924Y2927D02*
X12076Y2927D01*
X12792Y2927D02*
X15006Y2927D01*
X20994Y2927D02*
X23006Y2927D01*
X24994Y2927D02*
X25475Y2927D01*
X0525Y2977D02*
X1509Y2977D01*
X2424Y2977D02*
X2576Y2977D01*
X3491Y2977D02*
X5157Y2977D01*
X9843Y2977D02*
X11157Y2977D01*
X11924Y2977D02*
X12076Y2977D01*
X12843Y2977D02*
X14996Y2977D01*
X21004Y2977D02*
X22996Y2977D01*
X25004Y2977D02*
X25475Y2977D01*
X0525Y3026D02*
X1473Y3026D01*
X2424Y3026D02*
X2576Y3026D01*
X3527Y3026D02*
X5129Y3026D01*
X9871Y3026D02*
X11129Y3026D01*
X11924Y3026D02*
X12076Y3026D01*
X12871Y3026D02*
X14990Y3026D01*
X21010Y3026D02*
X23225Y3026D01*
X24775Y3026D02*
X25475Y3026D01*
X0525Y3076D02*
X1454Y3076D01*
X2424Y3076D02*
X2576Y3076D01*
X3546Y3076D02*
X5114Y3076D01*
X9886Y3076D02*
X11114Y3076D01*
X11924Y3076D02*
X12076Y3076D01*
X12886Y3076D02*
X14984Y3076D01*
X21016Y3076D02*
X23225Y3076D01*
X24775Y3076D02*
X25475Y3076D01*
X0525Y3125D02*
X1446Y3125D01*
X2424Y3125D02*
X2576Y3125D01*
X3554Y3125D02*
X5110Y3125D01*
X9890Y3125D02*
X11110Y3125D01*
X11924Y3125D02*
X12076Y3125D01*
X12890Y3125D02*
X14978Y3125D01*
X21022Y3125D02*
X23225Y3125D01*
X24775Y3125D02*
X25475Y3125D01*
X0525Y3175D02*
X1445Y3175D01*
X3555Y3175D02*
X5110Y3175D01*
X9890Y3175D02*
X11110Y3175D01*
X12890Y3175D02*
X14972Y3175D01*
X21028Y3175D02*
X23225Y3175D01*
X24775Y3175D02*
X25475Y3175D01*
X0525Y3224D02*
X1445Y3224D01*
X3555Y3224D02*
X5110Y3224D01*
X9890Y3224D02*
X11110Y3224D01*
X12890Y3224D02*
X14974Y3224D01*
X21026Y3224D02*
X23225Y3224D01*
X24775Y3224D02*
X25475Y3224D01*
X0525Y3274D02*
X1445Y3274D01*
X3555Y3274D02*
X5110Y3274D01*
X9890Y3274D02*
X11110Y3274D01*
X12890Y3274D02*
X14980Y3274D01*
X21020Y3274D02*
X23225Y3274D01*
X24775Y3274D02*
X25475Y3274D01*
X0525Y3323D02*
X1445Y3323D01*
X3555Y3323D02*
X5110Y3323D01*
X9890Y3323D02*
X11110Y3323D01*
X12890Y3323D02*
X14986Y3323D01*
X21014Y3323D02*
X23225Y3323D01*
X24775Y3323D02*
X25475Y3323D01*
X0525Y3373D02*
X1445Y3373D01*
X3555Y3373D02*
X5110Y3373D01*
X9890Y3373D02*
X11124Y3373D01*
X12876Y3373D02*
X14992Y3373D01*
X21008Y3373D02*
X23001Y3373D01*
X24999Y3373D02*
X25475Y3373D01*
X0525Y3422D02*
X1445Y3422D01*
X3555Y3422D02*
X5110Y3422D01*
X9890Y3422D02*
X11365Y3422D01*
X12635Y3422D02*
X14998Y3422D01*
X21002Y3422D02*
X22998Y3422D01*
X25002Y3422D02*
X25475Y3422D01*
X0525Y3472D02*
X1445Y3472D01*
X3555Y3472D02*
X5110Y3472D01*
X9890Y3472D02*
X11365Y3472D01*
X12635Y3472D02*
X15014Y3472D01*
X20986Y3472D02*
X23014Y3472D01*
X24986Y3472D02*
X25475Y3472D01*
X0525Y3521D02*
X1445Y3521D01*
X3555Y3521D02*
X5110Y3521D01*
X9890Y3521D02*
X11365Y3521D01*
X12635Y3521D02*
X15032Y3521D01*
X20968Y3521D02*
X23032Y3521D01*
X24968Y3521D02*
X25475Y3521D01*
X0525Y3571D02*
X1445Y3571D01*
X3555Y3571D02*
X5110Y3571D01*
X9890Y3571D02*
X11110Y3571D01*
X12890Y3571D02*
X15051Y3571D01*
X20949Y3571D02*
X23051Y3571D01*
X24949Y3571D02*
X25475Y3571D01*
X0525Y3620D02*
X1445Y3620D01*
X3555Y3620D02*
X5110Y3620D01*
X9890Y3620D02*
X11110Y3620D01*
X12890Y3620D02*
X15070Y3620D01*
X20930Y3620D02*
X23070Y3620D01*
X24930Y3620D02*
X25475Y3620D01*
X0525Y3670D02*
X1445Y3670D01*
X3555Y3670D02*
X5110Y3670D01*
X9890Y3670D02*
X11110Y3670D01*
X12890Y3670D02*
X15089Y3670D01*
X20911Y3670D02*
X23089Y3670D01*
X24911Y3670D02*
X25475Y3670D01*
X0525Y3719D02*
X1445Y3719D01*
X3555Y3719D02*
X5110Y3719D01*
X9890Y3719D02*
X11110Y3719D01*
X12890Y3719D02*
X15123Y3719D01*
X16877Y3719D02*
X19123Y3719D01*
X20877Y3719D02*
X23123Y3719D01*
X24877Y3719D02*
X25475Y3719D01*
X0525Y3769D02*
X1445Y3769D01*
X3555Y3769D02*
X5110Y3769D01*
X9890Y3769D02*
X11110Y3769D01*
X11924Y3769D02*
X12076Y3769D01*
X12890Y3769D02*
X15157Y3769D01*
X16843Y3769D02*
X19157Y3769D01*
X20843Y3769D02*
X23157Y3769D01*
X24843Y3769D02*
X25475Y3769D01*
X0525Y3819D02*
X1445Y3819D01*
X3555Y3819D02*
X5113Y3819D01*
X9887Y3819D02*
X11113Y3819D01*
X11924Y3819D02*
X12076Y3819D01*
X12887Y3819D02*
X15192Y3819D01*
X16808Y3819D02*
X19192Y3819D01*
X20808Y3819D02*
X23192Y3819D01*
X24808Y3819D02*
X25475Y3819D01*
X0525Y3868D02*
X1445Y3868D01*
X3555Y3868D02*
X5126Y3868D01*
X9874Y3868D02*
X11126Y3868D01*
X11924Y3868D02*
X12076Y3868D01*
X12874Y3868D02*
X15226Y3868D01*
X16774Y3868D02*
X19226Y3868D01*
X20774Y3868D02*
X23226Y3868D01*
X24774Y3868D02*
X25475Y3868D01*
X0525Y3918D02*
X1700Y3918D01*
X3300Y3918D02*
X5152Y3918D01*
X9848Y3918D02*
X11152Y3918D01*
X11924Y3918D02*
X12076Y3918D01*
X12848Y3918D02*
X15280Y3918D01*
X16720Y3918D02*
X19280Y3918D01*
X20720Y3918D02*
X23280Y3918D01*
X24720Y3918D02*
X25475Y3918D01*
X0525Y3967D02*
X1700Y3967D01*
X3300Y3967D02*
X5200Y3967D01*
X6800Y3967D02*
X8200Y3967D01*
X9800Y3967D02*
X11200Y3967D01*
X11924Y3967D02*
X12076Y3967D01*
X12800Y3967D02*
X15336Y3967D01*
X16664Y3967D02*
X19336Y3967D01*
X20664Y3967D02*
X23336Y3967D01*
X23825Y3967D02*
X24175Y3967D01*
X24664Y3967D02*
X25475Y3967D01*
X0525Y4017D02*
X1700Y4017D01*
X3300Y4017D02*
X15391Y4017D01*
X16609Y4017D02*
X19391Y4017D01*
X20609Y4017D02*
X23391Y4017D01*
X23825Y4017D02*
X24175Y4017D01*
X24609Y4017D02*
X25475Y4017D01*
X0525Y4066D02*
X1445Y4066D01*
X3555Y4066D02*
X15470Y4066D01*
X16530Y4066D02*
X19470Y4066D01*
X20530Y4066D02*
X23470Y4066D01*
X23825Y4066D02*
X24175Y4066D01*
X24530Y4066D02*
X25475Y4066D01*
X0525Y4116D02*
X1445Y4116D01*
X3555Y4116D02*
X15564Y4116D01*
X16436Y4116D02*
X19564Y4116D01*
X20436Y4116D02*
X23564Y4116D01*
X23825Y4116D02*
X24175Y4116D01*
X24436Y4116D02*
X25475Y4116D01*
X0525Y4165D02*
X1445Y4165D01*
X3555Y4165D02*
X15685Y4165D01*
X16315Y4165D02*
X19685Y4165D01*
X20315Y4165D02*
X23685Y4165D01*
X23825Y4165D02*
X24175Y4165D01*
X24315Y4165D02*
X25475Y4165D01*
X0525Y4215D02*
X1445Y4215D01*
X3555Y4215D02*
X25475Y4215D01*
X0525Y4264D02*
X1445Y4264D01*
X3555Y4264D02*
X25475Y4264D01*
X0525Y4314D02*
X1445Y4314D01*
X3555Y4314D02*
X25475Y4314D01*
X0525Y4363D02*
X1445Y4363D01*
X3555Y4363D02*
X25475Y4363D01*
X0525Y4413D02*
X1445Y4413D01*
X3555Y4413D02*
X25475Y4413D01*
X0525Y4462D02*
X1445Y4462D01*
X3555Y4462D02*
X25475Y4462D01*
X0525Y4512D02*
X1445Y4512D01*
X3555Y4512D02*
X25475Y4512D01*
X0525Y4561D02*
X1445Y4561D01*
X3555Y4561D02*
X25475Y4561D01*
X0525Y4611D02*
X1445Y4611D01*
X3555Y4611D02*
X25475Y4611D01*
X0525Y4661D02*
X1445Y4661D01*
X3555Y4661D02*
X25475Y4661D01*
X0525Y4710D02*
X1445Y4710D01*
X3555Y4710D02*
X25475Y4710D01*
X0525Y4760D02*
X1445Y4760D01*
X3555Y4760D02*
X25475Y4760D01*
X0525Y4809D02*
X1447Y4809D01*
X2424Y4809D02*
X2576Y4809D01*
X3553Y4809D02*
X25475Y4809D01*
X0525Y4859D02*
X1458Y4859D01*
X2424Y4859D02*
X2576Y4859D01*
X3542Y4859D02*
X25475Y4859D01*
X0525Y4908D02*
X1482Y4908D01*
X2424Y4908D02*
X2576Y4908D01*
X3518Y4908D02*
X25475Y4908D01*
X0525Y4958D02*
X1525Y4958D01*
X2424Y4958D02*
X2576Y4958D01*
X3475Y4958D02*
X25475Y4958D01*
X0525Y5007D02*
X1620Y5007D01*
X2416Y5007D02*
X2584Y5007D01*
X3387Y5007D02*
X5242Y5007D01*
X6758Y5007D02*
X8242Y5007D01*
X8924Y5007D02*
X9076Y5007D01*
X9758Y5007D02*
X11242Y5007D01*
X12758Y5007D02*
X25475Y5007D01*
X0525Y5057D02*
X3339Y5057D01*
X3399Y5057D02*
X5173Y5057D01*
X6827Y5057D02*
X8173Y5057D01*
X8924Y5057D02*
X9076Y5057D01*
X9827Y5057D02*
X11173Y5057D01*
X12827Y5057D02*
X25475Y5057D01*
X0525Y5106D02*
X3259Y5106D01*
X6862Y5106D02*
X8138Y5106D01*
X8924Y5106D02*
X9076Y5106D01*
X9862Y5106D02*
X11138Y5106D01*
X12862Y5106D02*
X25475Y5106D01*
X0525Y5156D02*
X3171Y5156D01*
X6882Y5156D02*
X8118Y5156D01*
X8924Y5156D02*
X9076Y5156D01*
X9882Y5156D02*
X11118Y5156D01*
X12882Y5156D02*
X25475Y5156D01*
X0525Y5205D02*
X3111Y5205D01*
X6889Y5205D02*
X8111Y5205D01*
X8924Y5205D02*
X9076Y5205D01*
X9889Y5205D02*
X11111Y5205D01*
X12889Y5205D02*
X25475Y5205D01*
X0525Y5255D02*
X3061Y5255D01*
X6890Y5255D02*
X8110Y5255D01*
X9890Y5255D02*
X11110Y5255D01*
X12890Y5255D02*
X25475Y5255D01*
X0525Y5304D02*
X3012Y5304D01*
X6890Y5304D02*
X8110Y5304D01*
X9890Y5304D02*
X11110Y5304D01*
X12890Y5304D02*
X25475Y5304D01*
X0525Y5354D02*
X2962Y5354D01*
X6890Y5354D02*
X8110Y5354D01*
X9890Y5354D02*
X11110Y5354D01*
X12890Y5354D02*
X25475Y5354D01*
X0525Y5403D02*
X2913Y5403D01*
X6890Y5403D02*
X8110Y5403D01*
X9890Y5403D02*
X11110Y5403D01*
X12890Y5403D02*
X25475Y5403D01*
X0525Y5453D02*
X2374Y5453D01*
X2626Y5453D02*
X2863Y5453D01*
X6890Y5453D02*
X8110Y5453D01*
X9890Y5453D02*
X11110Y5453D01*
X12890Y5453D02*
X25475Y5453D01*
X0525Y5503D02*
X2172Y5503D01*
X6890Y5503D02*
X8365Y5503D01*
X9635Y5503D02*
X11110Y5503D01*
X12890Y5503D02*
X25475Y5503D01*
X0525Y5552D02*
X2053Y5552D01*
X6890Y5552D02*
X8365Y5552D01*
X9635Y5552D02*
X11110Y5552D01*
X12890Y5552D02*
X25475Y5552D01*
X0525Y5602D02*
X1959Y5602D01*
X6890Y5602D02*
X8365Y5602D01*
X9635Y5602D02*
X11110Y5602D01*
X12890Y5602D02*
X25475Y5602D01*
X0525Y5651D02*
X1879Y5651D01*
X6890Y5651D02*
X8110Y5651D01*
X9890Y5651D02*
X11110Y5651D01*
X12890Y5651D02*
X25475Y5651D01*
X0525Y5701D02*
X1823Y5701D01*
X6890Y5701D02*
X8110Y5701D01*
X9890Y5701D02*
X11110Y5701D01*
X12890Y5701D02*
X25475Y5701D01*
X0525Y5750D02*
X1767Y5750D01*
X6890Y5750D02*
X8110Y5750D01*
X9890Y5750D02*
X11110Y5750D01*
X12890Y5750D02*
X25475Y5750D01*
X0525Y5800D02*
X1711Y5800D01*
X6934Y5800D02*
X8110Y5800D01*
X9890Y5800D02*
X11110Y5800D01*
X12890Y5800D02*
X25475Y5800D01*
X0525Y5849D02*
X1677Y5849D01*
X6983Y5849D02*
X8110Y5849D01*
X9890Y5849D02*
X11110Y5849D01*
X12890Y5849D02*
X25475Y5849D01*
X0525Y5899D02*
X1643Y5899D01*
X7033Y5899D02*
X8111Y5899D01*
X8924Y5899D02*
X9076Y5899D01*
X9889Y5899D02*
X11111Y5899D01*
X12889Y5899D02*
X25475Y5899D01*
X0525Y5948D02*
X1608Y5948D01*
X7082Y5948D02*
X8119Y5948D01*
X8924Y5948D02*
X9076Y5948D01*
X9881Y5948D02*
X11119Y5948D01*
X12881Y5948D02*
X25475Y5948D01*
X0525Y5998D02*
X1574Y5998D01*
X7132Y5998D02*
X8140Y5998D01*
X8924Y5998D02*
X9076Y5998D01*
X9860Y5998D02*
X11140Y5998D01*
X12860Y5998D02*
X25475Y5998D01*
X0525Y6047D02*
X1552Y6047D01*
X3637Y6047D02*
X5177Y6047D01*
X7181Y6047D02*
X8177Y6047D01*
X8924Y6047D02*
X9076Y6047D01*
X9823Y6047D02*
X11177Y6047D01*
X12823Y6047D02*
X25475Y6047D01*
X0525Y6097D02*
X1533Y6097D01*
X3587Y6097D02*
X5252Y6097D01*
X7231Y6097D02*
X8252Y6097D01*
X8924Y6097D02*
X9076Y6097D01*
X9748Y6097D02*
X11252Y6097D01*
X12748Y6097D02*
X25475Y6097D01*
X0525Y6146D02*
X1514Y6146D01*
X3537Y6146D02*
X5913Y6146D01*
X7280Y6146D02*
X11516Y6146D01*
X12484Y6146D02*
X25475Y6146D01*
X0525Y6196D02*
X1495Y6196D01*
X3505Y6196D02*
X5962Y6196D01*
X7330Y6196D02*
X11516Y6196D01*
X12484Y6196D02*
X25475Y6196D01*
X0525Y6245D02*
X1477Y6245D01*
X3523Y6245D02*
X6012Y6245D01*
X7379Y6245D02*
X11516Y6245D01*
X12484Y6245D02*
X25475Y6245D01*
X0525Y6295D02*
X1470Y6295D01*
X3530Y6295D02*
X6061Y6295D01*
X7429Y6295D02*
X11516Y6295D01*
X12484Y6295D02*
X25475Y6295D01*
X0525Y6345D02*
X1464Y6345D01*
X3536Y6345D02*
X6111Y6345D01*
X7478Y6345D02*
X11516Y6345D01*
X12484Y6345D02*
X25475Y6345D01*
X0525Y6394D02*
X1458Y6394D01*
X3542Y6394D02*
X6160Y6394D01*
X7528Y6394D02*
X11516Y6394D01*
X12484Y6394D02*
X25475Y6394D01*
X0525Y6444D02*
X1452Y6444D01*
X3548Y6444D02*
X6210Y6444D01*
X7578Y6444D02*
X11516Y6444D01*
X12484Y6444D02*
X25475Y6444D01*
X0525Y6493D02*
X1446Y6493D01*
X3554Y6493D02*
X6259Y6493D01*
X7627Y6493D02*
X11516Y6493D01*
X12484Y6493D02*
X25475Y6493D01*
X0525Y6543D02*
X1450Y6543D01*
X3550Y6543D02*
X6309Y6543D01*
X7677Y6543D02*
X11516Y6543D01*
X12484Y6543D02*
X25475Y6543D01*
X0525Y6592D02*
X1456Y6592D01*
X3544Y6592D02*
X6358Y6592D01*
X7726Y6592D02*
X11516Y6592D01*
X12484Y6592D02*
X25475Y6592D01*
X0525Y6642D02*
X1462Y6642D01*
X3538Y6642D02*
X6408Y6642D01*
X7776Y6642D02*
X11516Y6642D01*
X12484Y6642D02*
X25475Y6642D01*
X0525Y6691D02*
X1468Y6691D01*
X3532Y6691D02*
X6457Y6691D01*
X7825Y6691D02*
X11516Y6691D01*
X12484Y6691D02*
X25475Y6691D01*
X0525Y6741D02*
X1474Y6741D01*
X3526Y6741D02*
X6507Y6741D01*
X7875Y6741D02*
X11516Y6741D01*
X12484Y6741D02*
X25475Y6741D01*
X0525Y6790D02*
X1490Y6790D01*
X3510Y6790D02*
X6556Y6790D01*
X7924Y6790D02*
X11516Y6790D01*
X12484Y6790D02*
X25475Y6790D01*
X0525Y6840D02*
X1509Y6840D01*
X3491Y6840D02*
X6606Y6840D01*
X7974Y6840D02*
X11516Y6840D01*
X12484Y6840D02*
X25475Y6840D01*
X0525Y6889D02*
X1528Y6889D01*
X3472Y6889D02*
X6655Y6889D01*
X8023Y6889D02*
X11516Y6889D01*
X12484Y6889D02*
X25475Y6889D01*
X0525Y6939D02*
X1547Y6939D01*
X3453Y6939D02*
X6705Y6939D01*
X8073Y6939D02*
X11516Y6939D01*
X12484Y6939D02*
X25475Y6939D01*
X0525Y6988D02*
X1565Y6988D01*
X3435Y6988D02*
X6755Y6988D01*
X8122Y6988D02*
X11516Y6988D01*
X12484Y6988D02*
X25475Y6988D01*
X0525Y7038D02*
X1599Y7038D01*
X3401Y7038D02*
X6776Y7038D01*
X8167Y7038D02*
X11516Y7038D01*
X12484Y7038D02*
X25475Y7038D01*
X0525Y7087D02*
X1633Y7087D01*
X3367Y7087D02*
X5428Y7087D01*
X8206Y7087D02*
X10828Y7087D01*
X12572Y7087D02*
X25475Y7087D01*
X0525Y7137D02*
X1667Y7137D01*
X3333Y7137D02*
X3796Y7137D01*
X8232Y7137D02*
X10759Y7137D01*
X12641Y7137D02*
X25475Y7137D01*
X0525Y7187D02*
X1702Y7187D01*
X3298Y7187D02*
X3688Y7187D01*
X8253Y7187D02*
X10723Y7187D01*
X12677Y7187D02*
X25475Y7187D01*
X0525Y7236D02*
X1752Y7236D01*
X3248Y7236D02*
X3624Y7236D01*
X8268Y7236D02*
X10704Y7236D01*
X12696Y7236D02*
X25475Y7236D01*
X0525Y7286D02*
X1808Y7286D01*
X3192Y7286D02*
X3570Y7286D01*
X8277Y7286D02*
X10696Y7286D01*
X12704Y7286D02*
X25475Y7286D01*
X0525Y7335D02*
X1864Y7335D01*
X3136Y7335D02*
X3521Y7335D01*
X8282Y7335D02*
X10695Y7335D01*
X12705Y7335D02*
X25475Y7335D01*
X0525Y7385D02*
X1932Y7385D01*
X3068Y7385D02*
X3471Y7385D01*
X8280Y7385D02*
X10695Y7385D01*
X12705Y7385D02*
X25475Y7385D01*
X0525Y7434D02*
X2027Y7434D01*
X2973Y7434D02*
X3422Y7434D01*
X8275Y7434D02*
X10695Y7434D01*
X12705Y7434D02*
X25475Y7434D01*
X0525Y7484D02*
X2121Y7484D01*
X2879Y7484D02*
X3372Y7484D01*
X8269Y7484D02*
X10695Y7484D01*
X12705Y7484D02*
X25475Y7484D01*
X0525Y7533D02*
X2317Y7533D01*
X2683Y7533D02*
X3323Y7533D01*
X8278Y7533D02*
X10695Y7533D01*
X12705Y7533D02*
X25475Y7533D01*
X0525Y7583D02*
X3273Y7583D01*
X8283Y7583D02*
X10695Y7583D01*
X12705Y7583D02*
X25475Y7583D01*
X0525Y7632D02*
X3224Y7632D01*
X8284Y7632D02*
X10695Y7632D01*
X12705Y7632D02*
X25475Y7632D01*
X0525Y7682D02*
X3174Y7682D01*
X8284Y7682D02*
X10695Y7682D01*
X12705Y7682D02*
X25475Y7682D01*
X0525Y7731D02*
X3125Y7731D01*
X8284Y7731D02*
X10695Y7731D01*
X12705Y7731D02*
X25475Y7731D01*
X0525Y7781D02*
X3075Y7781D01*
X8284Y7781D02*
X10695Y7781D01*
X12705Y7781D02*
X25475Y7781D01*
X0525Y7830D02*
X3026Y7830D01*
X8284Y7830D02*
X10695Y7830D01*
X12705Y7830D02*
X25475Y7830D01*
X0525Y7880D02*
X2976Y7880D01*
X8284Y7880D02*
X10695Y7880D01*
X12705Y7880D02*
X25475Y7880D01*
X0525Y7929D02*
X2927Y7929D01*
X8284Y7929D02*
X10698Y7929D01*
X12702Y7929D02*
X25475Y7929D01*
X0525Y7979D02*
X2877Y7979D01*
X8284Y7979D02*
X10712Y7979D01*
X12688Y7979D02*
X25475Y7979D01*
X0525Y8029D02*
X2228Y8029D01*
X2772Y8029D02*
X2828Y8029D01*
X8284Y8029D02*
X10738Y8029D01*
X12662Y8029D02*
X25475Y8029D01*
X0525Y8078D02*
X2080Y8078D01*
X8284Y8078D02*
X10787Y8078D01*
X12613Y8078D02*
X25475Y8078D01*
X0525Y8128D02*
X1985Y8128D01*
X4096Y8128D02*
X7066Y8128D01*
X8284Y8128D02*
X25475Y8128D01*
X0525Y8177D02*
X1895Y8177D01*
X4047Y8177D02*
X7079Y8177D01*
X8280Y8177D02*
X25475Y8177D01*
X0525Y8227D02*
X1839Y8227D01*
X3997Y8227D02*
X7029Y8227D01*
X8275Y8227D02*
X25475Y8227D01*
X0525Y8276D02*
X1783Y8276D01*
X3948Y8276D02*
X6980Y8276D01*
X8262Y8276D02*
X25475Y8276D01*
X0525Y8326D02*
X1727Y8326D01*
X3898Y8326D02*
X6930Y8326D01*
X8246Y8326D02*
X25475Y8326D01*
X0525Y8375D02*
X1687Y8375D01*
X3849Y8375D02*
X5396Y8375D01*
X8220Y8375D02*
X10796Y8375D01*
X12604Y8375D02*
X25475Y8375D01*
X0525Y8425D02*
X1652Y8425D01*
X3799Y8425D02*
X5344Y8425D01*
X8189Y8425D02*
X9412Y8425D01*
X18253Y8425D02*
X25475Y8425D01*
X0525Y8474D02*
X1618Y8474D01*
X3750Y8474D02*
X5315Y8474D01*
X8148Y8474D02*
X9327Y8474D01*
X18338Y8474D02*
X25475Y8474D01*
X0525Y8524D02*
X1584Y8524D01*
X3700Y8524D02*
X5299Y8524D01*
X8100Y8524D02*
X9267Y8524D01*
X18398Y8524D02*
X25475Y8524D01*
X0525Y8573D02*
X1557Y8573D01*
X3651Y8573D02*
X5295Y8573D01*
X8051Y8573D02*
X9217Y8573D01*
X18447Y8573D02*
X25475Y8573D01*
X0525Y8623D02*
X1538Y8623D01*
X3601Y8623D02*
X5295Y8623D01*
X8001Y8623D02*
X9168Y8623D01*
X18497Y8623D02*
X25475Y8623D01*
X0525Y8672D02*
X1520Y8672D01*
X3551Y8672D02*
X5295Y8672D01*
X7951Y8672D02*
X9118Y8672D01*
X18546Y8672D02*
X25475Y8672D01*
X0525Y8722D02*
X1501Y8722D01*
X3502Y8722D02*
X5295Y8722D01*
X7902Y8722D02*
X9069Y8722D01*
X18596Y8722D02*
X25475Y8722D01*
X0525Y8772D02*
X1482Y8772D01*
X3518Y8772D02*
X5295Y8772D01*
X7852Y8772D02*
X9019Y8772D01*
X18645Y8772D02*
X25475Y8772D01*
X0525Y8821D02*
X1472Y8821D01*
X3528Y8821D02*
X5295Y8821D01*
X7803Y8821D02*
X8970Y8821D01*
X18695Y8821D02*
X25475Y8821D01*
X0525Y8871D02*
X1466Y8871D01*
X3534Y8871D02*
X5295Y8871D01*
X7753Y8871D02*
X8920Y8871D01*
X18744Y8871D02*
X25475Y8871D01*
X0525Y8920D02*
X1460Y8920D01*
X3540Y8920D02*
X5295Y8920D01*
X7704Y8920D02*
X8871Y8920D01*
X18794Y8920D02*
X25475Y8920D01*
X0525Y8970D02*
X1454Y8970D01*
X3546Y8970D02*
X5295Y8970D01*
X7654Y8970D02*
X8821Y8970D01*
X18844Y8970D02*
X25475Y8970D01*
X0525Y9019D02*
X1448Y9019D01*
X3552Y9019D02*
X5295Y9019D01*
X7605Y9019D02*
X8772Y9019D01*
X18893Y9019D02*
X25475Y9019D01*
X0525Y9069D02*
X1449Y9069D01*
X3551Y9069D02*
X5295Y9069D01*
X7555Y9069D02*
X8722Y9069D01*
X18943Y9069D02*
X25475Y9069D01*
X0525Y9118D02*
X1455Y9118D01*
X3545Y9118D02*
X5295Y9118D01*
X7506Y9118D02*
X8673Y9118D01*
X18992Y9118D02*
X25475Y9118D01*
X0525Y9168D02*
X1461Y9168D01*
X3539Y9168D02*
X5296Y9168D01*
X7456Y9168D02*
X8623Y9168D01*
X19042Y9168D02*
X25475Y9168D01*
X0525Y9217D02*
X1467Y9217D01*
X3533Y9217D02*
X5302Y9217D01*
X7405Y9217D02*
X8573Y9217D01*
X19091Y9217D02*
X25475Y9217D01*
X0525Y9267D02*
X1473Y9267D01*
X3527Y9267D02*
X5319Y9267D01*
X7344Y9267D02*
X8524Y9267D01*
X19141Y9267D02*
X25475Y9267D01*
X0525Y9316D02*
X1485Y9316D01*
X3515Y9316D02*
X5353Y9316D01*
X7247Y9316D02*
X8474Y9316D01*
X19190Y9316D02*
X25475Y9316D01*
X0525Y9366D02*
X1504Y9366D01*
X3496Y9366D02*
X5415Y9366D01*
X7185Y9366D02*
X8425Y9366D01*
X9793Y9366D02*
X10815Y9366D01*
X12585Y9366D02*
X17872Y9366D01*
X19240Y9366D02*
X25475Y9366D01*
X0525Y9415D02*
X1523Y9415D01*
X3477Y9415D02*
X8375Y9415D01*
X9743Y9415D02*
X17921Y9415D01*
X19289Y9415D02*
X25475Y9415D01*
X0525Y9465D02*
X1541Y9465D01*
X3459Y9465D02*
X8326Y9465D01*
X9694Y9465D02*
X17971Y9465D01*
X19339Y9465D02*
X25475Y9465D01*
X0525Y9514D02*
X1560Y9514D01*
X3440Y9514D02*
X8276Y9514D01*
X9644Y9514D02*
X18021Y9514D01*
X19388Y9514D02*
X25475Y9514D01*
X0525Y9564D02*
X1589Y9564D01*
X3411Y9564D02*
X8227Y9564D01*
X9595Y9564D02*
X18070Y9564D01*
X19438Y9564D02*
X25475Y9564D01*
X0525Y9614D02*
X1624Y9614D01*
X3376Y9614D02*
X5467Y9614D01*
X7133Y9614D02*
X8177Y9614D01*
X9545Y9614D02*
X10867Y9614D01*
X12533Y9614D02*
X13468Y9614D01*
X13932Y9614D02*
X18120Y9614D01*
X19487Y9614D02*
X25475Y9614D01*
X0525Y9663D02*
X1658Y9663D01*
X3342Y9663D02*
X5374Y9663D01*
X9496Y9663D02*
X10774Y9663D01*
X14026Y9663D02*
X18169Y9663D01*
X19537Y9663D02*
X25475Y9663D01*
X0525Y9713D02*
X1692Y9713D01*
X3308Y9713D02*
X5331Y9713D01*
X9446Y9713D02*
X10731Y9713D01*
X14082Y9713D02*
X18219Y9713D01*
X19586Y9713D02*
X25475Y9713D01*
X0525Y9762D02*
X1736Y9762D01*
X3264Y9762D02*
X5307Y9762D01*
X9396Y9762D02*
X10707Y9762D01*
X14135Y9762D02*
X18268Y9762D01*
X19636Y9762D02*
X25475Y9762D01*
X0525Y9812D02*
X1792Y9812D01*
X3208Y9812D02*
X5297Y9812D01*
X9347Y9812D02*
X10697Y9812D01*
X14169Y9812D02*
X15779Y9812D01*
X16221Y9812D02*
X18318Y9812D01*
X19686Y9812D02*
X19779Y9812D01*
X20221Y9812D02*
X23779Y9812D01*
X24221Y9812D02*
X25475Y9812D01*
X0525Y9861D02*
X1848Y9861D01*
X3152Y9861D02*
X5295Y9861D01*
X9297Y9861D02*
X10695Y9861D01*
X14203Y9861D02*
X15608Y9861D01*
X16392Y9861D02*
X18367Y9861D01*
X20392Y9861D02*
X23608Y9861D01*
X24392Y9861D02*
X25475Y9861D01*
X0525Y9911D02*
X1906Y9911D01*
X3094Y9911D02*
X5295Y9911D01*
X9248Y9911D02*
X10695Y9911D01*
X14224Y9911D02*
X15514Y9911D01*
X16486Y9911D02*
X18417Y9911D01*
X20486Y9911D02*
X23514Y9911D01*
X24486Y9911D02*
X25475Y9911D01*
X0525Y9960D02*
X2000Y9960D01*
X3044Y9960D02*
X5295Y9960D01*
X9198Y9960D02*
X10695Y9960D01*
X14243Y9960D02*
X15419Y9960D01*
X16581Y9960D02*
X18466Y9960D01*
X20581Y9960D02*
X23419Y9960D01*
X24581Y9960D02*
X25475Y9960D01*
X0525Y10010D02*
X2016Y10010D01*
X3094Y10010D02*
X5295Y10010D01*
X9149Y10010D02*
X10695Y10010D01*
X14259Y10010D02*
X15362Y10010D01*
X16638Y10010D02*
X18516Y10010D01*
X20638Y10010D02*
X23362Y10010D01*
X24638Y10010D02*
X25475Y10010D01*
X0525Y10059D02*
X2016Y10059D01*
X3143Y10059D02*
X5295Y10059D01*
X9099Y10059D02*
X10695Y10059D01*
X14265Y10059D02*
X15306Y10059D01*
X16694Y10059D02*
X18565Y10059D01*
X20694Y10059D02*
X23306Y10059D01*
X24694Y10059D02*
X25475Y10059D01*
X0525Y10109D02*
X2017Y10109D01*
X3193Y10109D02*
X5295Y10109D01*
X9050Y10109D02*
X10695Y10109D01*
X14271Y10109D02*
X15250Y10109D01*
X16750Y10109D02*
X18615Y10109D01*
X20750Y10109D02*
X23250Y10109D01*
X24750Y10109D02*
X25475Y10109D01*
X0525Y10158D02*
X2022Y10158D01*
X3242Y10158D02*
X5295Y10158D01*
X9000Y10158D02*
X10695Y10158D01*
X14271Y10158D02*
X15208Y10158D01*
X16792Y10158D02*
X18664Y10158D01*
X20792Y10158D02*
X23208Y10158D01*
X24792Y10158D02*
X25475Y10158D01*
X0525Y10208D02*
X2030Y10208D01*
X3292Y10208D02*
X5295Y10208D01*
X8951Y10208D02*
X10695Y10208D01*
X14265Y10208D02*
X15173Y10208D01*
X16827Y10208D02*
X18714Y10208D01*
X20827Y10208D02*
X23173Y10208D01*
X24827Y10208D02*
X25475Y10208D01*
X0525Y10257D02*
X2045Y10257D01*
X3341Y10257D02*
X5295Y10257D01*
X8901Y10257D02*
X10695Y10257D01*
X14259Y10257D02*
X15139Y10257D01*
X16861Y10257D02*
X18763Y10257D01*
X20861Y10257D02*
X23139Y10257D01*
X24861Y10257D02*
X25475Y10257D01*
X0525Y10307D02*
X2065Y10307D01*
X3391Y10307D02*
X5295Y10307D01*
X8852Y10307D02*
X10695Y10307D01*
X14244Y10307D02*
X15105Y10307D01*
X16895Y10307D02*
X18813Y10307D01*
X20895Y10307D02*
X23105Y10307D01*
X24895Y10307D02*
X25475Y10307D01*
X0525Y10356D02*
X2091Y10356D01*
X3440Y10356D02*
X5295Y10356D01*
X8802Y10356D02*
X10695Y10356D01*
X14225Y10356D02*
X15079Y10356D01*
X16921Y10356D02*
X18863Y10356D01*
X24921Y10356D02*
X25475Y10356D01*
X0525Y10406D02*
X2128Y10406D01*
X3490Y10406D02*
X5295Y10406D01*
X8753Y10406D02*
X10695Y10406D01*
X14205Y10406D02*
X15060Y10406D01*
X16940Y10406D02*
X18912Y10406D01*
X24940Y10406D02*
X25475Y10406D01*
X0525Y10456D02*
X2172Y10456D01*
X3539Y10456D02*
X5297Y10456D01*
X8703Y10456D02*
X10697Y10456D01*
X14171Y10456D02*
X15041Y10456D01*
X16959Y10456D02*
X18962Y10456D01*
X24959Y10456D02*
X25475Y10456D01*
X0525Y10505D02*
X2221Y10505D01*
X3589Y10505D02*
X5306Y10505D01*
X8648Y10505D02*
X10706Y10505D01*
X14137Y10505D02*
X15022Y10505D01*
X16978Y10505D02*
X19011Y10505D01*
X24978Y10505D02*
X25475Y10505D01*
X0525Y10555D02*
X2271Y10555D01*
X3639Y10555D02*
X5330Y10555D01*
X8576Y10555D02*
X10730Y10555D01*
X14086Y10555D02*
X15004Y10555D01*
X16996Y10555D02*
X19004Y10555D01*
X24996Y10555D02*
X25475Y10555D01*
X0525Y10604D02*
X2320Y10604D01*
X3688Y10604D02*
X5370Y10604D01*
X8452Y10604D02*
X10770Y10604D01*
X14030Y10604D02*
X14995Y10604D01*
X17005Y10604D02*
X18995Y10604D01*
X25005Y10604D02*
X25475Y10604D01*
X0525Y10654D02*
X2370Y10654D01*
X3738Y10654D02*
X5455Y10654D01*
X7145Y10654D02*
X10855Y10654D01*
X12545Y10654D02*
X13462Y10654D01*
X13938Y10654D02*
X14989Y10654D01*
X17011Y10654D02*
X18989Y10654D01*
X25011Y10654D02*
X25475Y10654D01*
X0525Y10703D02*
X2419Y10703D01*
X3787Y10703D02*
X13624Y10703D01*
X13776Y10703D02*
X14983Y10703D01*
X17017Y10703D02*
X18983Y10703D01*
X25017Y10703D02*
X25475Y10703D01*
X0525Y10753D02*
X2469Y10753D01*
X3837Y10753D02*
X14977Y10753D01*
X17023Y10753D02*
X18977Y10753D01*
X25023Y10753D02*
X25475Y10753D01*
X0525Y10802D02*
X2518Y10802D01*
X3886Y10802D02*
X14971Y10802D01*
X17029Y10802D02*
X18971Y10802D01*
X25029Y10802D02*
X25475Y10802D01*
X0525Y10852D02*
X2568Y10852D01*
X3936Y10852D02*
X14975Y10852D01*
X17025Y10852D02*
X18975Y10852D01*
X25025Y10852D02*
X25475Y10852D01*
X0525Y10901D02*
X2617Y10901D01*
X3985Y10901D02*
X5419Y10901D01*
X6224Y10901D02*
X6376Y10901D01*
X7181Y10901D02*
X10819Y10901D01*
X12581Y10901D02*
X14981Y10901D01*
X17019Y10901D02*
X18981Y10901D01*
X25019Y10901D02*
X25475Y10901D01*
X0525Y10951D02*
X2667Y10951D01*
X4035Y10951D02*
X5356Y10951D01*
X6224Y10951D02*
X6376Y10951D01*
X7244Y10951D02*
X8434Y10951D01*
X17013Y10951D02*
X18987Y10951D01*
X25013Y10951D02*
X25475Y10951D01*
X0525Y11000D02*
X2716Y11000D01*
X4084Y11000D02*
X5321Y11000D01*
X6224Y11000D02*
X6376Y11000D01*
X7279Y11000D02*
X8331Y11000D01*
X17007Y11000D02*
X18993Y11000D01*
X25007Y11000D02*
X25475Y11000D01*
X0525Y11050D02*
X2766Y11050D01*
X4134Y11050D02*
X5303Y11050D01*
X6224Y11050D02*
X6376Y11050D01*
X7297Y11050D02*
X8269Y11050D01*
X17001Y11050D02*
X18999Y11050D01*
X25001Y11050D02*
X25475Y11050D01*
X0525Y11099D02*
X2816Y11099D01*
X4183Y11099D02*
X5296Y11099D01*
X6224Y11099D02*
X6376Y11099D01*
X7304Y11099D02*
X8217Y11099D01*
X16984Y11099D02*
X19016Y11099D01*
X24984Y11099D02*
X25475Y11099D01*
X0525Y11149D02*
X2865Y11149D01*
X4233Y11149D02*
X5295Y11149D01*
X7305Y11149D02*
X8167Y11149D01*
X16965Y11149D02*
X19035Y11149D01*
X24965Y11149D02*
X25475Y11149D01*
X0525Y11198D02*
X2915Y11198D01*
X4282Y11198D02*
X5295Y11198D01*
X7305Y11198D02*
X8118Y11198D01*
X16946Y11198D02*
X19054Y11198D01*
X24946Y11198D02*
X25475Y11198D01*
X0525Y11248D02*
X2964Y11248D01*
X4332Y11248D02*
X5295Y11248D01*
X7305Y11248D02*
X8068Y11248D01*
X16927Y11248D02*
X19073Y11248D01*
X24927Y11248D02*
X25475Y11248D01*
X0525Y11298D02*
X3014Y11298D01*
X4381Y11298D02*
X5295Y11298D01*
X7305Y11298D02*
X8019Y11298D01*
X16906Y11298D02*
X19094Y11298D01*
X20906Y11298D02*
X23094Y11298D01*
X24906Y11298D02*
X25475Y11298D01*
X0525Y11347D02*
X3063Y11347D01*
X4431Y11347D02*
X5550Y11347D01*
X7050Y11347D02*
X7969Y11347D01*
X16871Y11347D02*
X19129Y11347D01*
X20871Y11347D02*
X23129Y11347D01*
X24871Y11347D02*
X25475Y11347D01*
X0525Y11397D02*
X3113Y11397D01*
X4481Y11397D02*
X5550Y11397D01*
X7050Y11397D02*
X7919Y11397D01*
X16837Y11397D02*
X19163Y11397D01*
X20837Y11397D02*
X23163Y11397D01*
X24837Y11397D02*
X25475Y11397D01*
X0525Y11446D02*
X3162Y11446D01*
X4530Y11446D02*
X5550Y11446D01*
X7050Y11446D02*
X7870Y11446D01*
X16803Y11446D02*
X19197Y11446D01*
X20803Y11446D02*
X23197Y11446D01*
X24803Y11446D02*
X25475Y11446D01*
X0525Y11496D02*
X3212Y11496D01*
X4580Y11496D02*
X5296Y11496D01*
X7304Y11496D02*
X7820Y11496D01*
X16768Y11496D02*
X19232Y11496D01*
X20768Y11496D02*
X23232Y11496D01*
X24768Y11496D02*
X25475Y11496D01*
X0525Y11545D02*
X3261Y11545D01*
X4629Y11545D02*
X5295Y11545D01*
X7305Y11545D02*
X7771Y11545D01*
X16712Y11545D02*
X19288Y11545D01*
X20712Y11545D02*
X23288Y11545D01*
X24712Y11545D02*
X25475Y11545D01*
X0525Y11595D02*
X3311Y11595D01*
X4679Y11595D02*
X5295Y11595D01*
X7305Y11595D02*
X7721Y11595D01*
X16656Y11595D02*
X19344Y11595D01*
X20656Y11595D02*
X23344Y11595D01*
X24656Y11595D02*
X25475Y11595D01*
X0525Y11644D02*
X3360Y11644D01*
X4728Y11644D02*
X5295Y11644D01*
X7305Y11644D02*
X7672Y11644D01*
X16600Y11644D02*
X19400Y11644D01*
X20600Y11644D02*
X23400Y11644D01*
X24600Y11644D02*
X25475Y11644D01*
X0525Y11694D02*
X3410Y11694D01*
X4778Y11694D02*
X5295Y11694D01*
X7305Y11694D02*
X7622Y11694D01*
X16516Y11694D02*
X19484Y11694D01*
X20516Y11694D02*
X23484Y11694D01*
X24516Y11694D02*
X25475Y11694D01*
X0525Y11743D02*
X3459Y11743D01*
X16421Y11743D02*
X19579Y11743D01*
X20421Y11743D02*
X23579Y11743D01*
X24421Y11743D02*
X25475Y11743D01*
X0525Y11793D02*
X3509Y11793D01*
X15691Y11793D02*
X15716Y11793D01*
X16284Y11793D02*
X19716Y11793D01*
X20284Y11793D02*
X23716Y11793D01*
X24284Y11793D02*
X25475Y11793D01*
X0525Y11842D02*
X3558Y11842D01*
X15608Y11842D02*
X25475Y11842D01*
X0525Y11892D02*
X3608Y11892D01*
X8792Y11892D02*
X10792Y11892D01*
X12608Y11892D02*
X25475Y11892D01*
X0525Y11941D02*
X3658Y11941D01*
X8742Y11941D02*
X25475Y11941D01*
X0525Y11991D02*
X3707Y11991D01*
X8693Y11991D02*
X25475Y11991D01*
X0525Y12040D02*
X3757Y12040D01*
X8643Y12040D02*
X25475Y12040D01*
X0525Y12090D02*
X3806Y12090D01*
X8594Y12090D02*
X25475Y12090D01*
X0525Y12140D02*
X3856Y12140D01*
X8544Y12140D02*
X25475Y12140D01*
X0525Y12189D02*
X3905Y12189D01*
X8495Y12189D02*
X25475Y12189D01*
X0525Y12239D02*
X3955Y12239D01*
X8445Y12239D02*
X25475Y12239D01*
X0525Y12288D02*
X4004Y12288D01*
X8396Y12288D02*
X25475Y12288D01*
X0525Y12338D02*
X4054Y12338D01*
X8346Y12338D02*
X25475Y12338D01*
X0525Y12387D02*
X4103Y12387D01*
X8297Y12387D02*
X25475Y12387D01*
X0525Y12437D02*
X4140Y12437D01*
X8260Y12437D02*
X25475Y12437D01*
%LNtop copper_traces*%
D11*
X4600Y12200D02*
X2500Y10100D01*
X18055Y8865D02*
X20000Y10810D01*
X9610Y8865D02*
X8340Y10135D01*
X6300Y7595D02*
X3945Y7595D01*
X8340Y10135D02*
X6300Y10135D01*
X3450Y5550D02*
X2500Y6500D01*
X8595Y11405D02*
X7800Y12200D01*
X20000Y10810D02*
X24000Y10810D01*
X15405Y11405D02*
X16000Y10810D01*
X7075Y8865D02*
X7800Y8140D01*
X2500Y10100D02*
X2500Y9040D01*
X6000Y3450D02*
X9000Y3450D01*
X12000Y5550D02*
X12000Y7295D01*
X11700Y10135D02*
X13700Y10135D01*
X16000Y3190D02*
X20000Y3190D01*
X7800Y8140D02*
X7800Y7595D01*
X6000Y5550D02*
X7800Y7350D01*
X8595Y11405D02*
X15405Y11405D01*
X7800Y12200D02*
X4600Y12200D01*
X6000Y5550D02*
X3450Y5550D01*
X6300Y8865D02*
X7075Y8865D01*
X9610Y8865D02*
X18055Y8865D01*
X3945Y7595D02*
X2500Y9040D01*
D12*
X9000Y8000D03*
X9500Y10500D03*
X10500Y4500D03*
X18000Y2000D03*
X13700Y10135D03*
X7500Y4500D03*
X18000Y12000D03*
X22000Y12000D03*
X22000Y2000D03*
%LNtop copper component a066cc7197085cd5*%
D13*
X20000Y3190D03*
X20000Y10810D03*
%LNtop copper component d7a4b54abdab6e5c*%
D14*
X6000Y5550D03*
X6000Y3450D03*
%LNtop copper component befe0c62168db060*%
D15*
X24000Y10810D03*
X24000Y3190D03*
%LNtop copper component a9804d9a40cfbe82*%
D16*
X6300Y11405D03*
X6300Y10135D03*
X6300Y8865D03*
X6300Y7595D03*
X11700Y7595D03*
X11700Y8865D03*
X11700Y10135D03*
X11700Y11405D03*
%LNtop copper component 5f10c96b5cad9d4e*%
D15*
X16000Y10810D03*
X16000Y3190D03*
%LNtop copper component 8c2b338affb525d5*%
D17*
X2500Y6500D03*
X2500Y9040D03*
D18*
X2500Y3960D03*
%LNtop copper component 38324e58cf343c8d*%
D14*
X12000Y5550D03*
X12000Y3450D03*
%LNtop copper component 3459f75a6fb52317*%
X9000Y5550D03*
X9000Y3450D03*
M02*