%FSLAX33Y33*%
%MOMM*%
%ADD10C,0.15*%
%ADD11C,0.3*%
%ADD12C,0.5*%
%ADD13C,0.5*%
%ADD14C,0.5*%
D10*
%LNtop silkscreen_traces*%
%LNtop silkscreen component a066cc7197085cd5*%
G01*
X21200Y3850D02*
X18800Y3850D01*
X18800Y10150*
X21200Y10150*
X21200Y3850*
X20000Y3850D02*
X20000Y4390D01*
X20000Y10150D02*
X20000Y9610D01*
D11*
X21130Y5425D02*
X18870Y5425D01*
G36*
X19469Y0995D02*
X19469Y1711D01*
X19786Y1711D01*
X19831Y1710D01*
X19870Y1706D01*
X19904Y1700D01*
X19932Y1692D01*
X19955Y1680D01*
X19976Y1665D01*
X19995Y1646D01*
X20011Y1624D01*
X20024Y1599D01*
X20033Y1572D01*
X20039Y1545D01*
X20041Y1516D01*
X20038Y1479D01*
X20029Y1446D01*
X20013Y1415D01*
X19992Y1387D01*
X19964Y1364D01*
X19929Y1345D01*
X19887Y1331D01*
X19864Y1326D01*
X19848Y1403D01*
X19869Y1409D01*
X19886Y1416D01*
X19901Y1426D01*
X19914Y1438D01*
X19924Y1452D01*
X19933Y1467D01*
X19938Y1483D01*
X19942Y1499D01*
X19943Y1516D01*
X19941Y1540D01*
X19934Y1562D01*
X19922Y1582D01*
X19906Y1599D01*
X19885Y1614D01*
X19859Y1624D01*
X19827Y1630D01*
X19790Y1632D01*
X19563Y1632D01*
X19563Y1395D01*
X19563Y1395D01*
X19767Y1395D01*
X19798Y1396D01*
X19825Y1399D01*
X19848Y1403D01*
X19864Y1326D01*
X19839Y1321D01*
X19857Y1312D01*
X19872Y1303D01*
X19885Y1294D01*
X19896Y1285D01*
X19917Y1265D01*
X19937Y1243D01*
X19956Y1218D01*
X19975Y1190D01*
X20099Y0995D01*
X19980Y0995D01*
X19886Y1144D01*
X19866Y1175D01*
X19848Y1201D01*
X19832Y1224D01*
X19817Y1243D01*
X19804Y1259D01*
X19792Y1272D01*
X19780Y1283D01*
X19769Y1291D01*
X19758Y1297D01*
X19748Y1302D01*
X19737Y1307D01*
X19726Y1310D01*
X19717Y1311D01*
X19705Y1312D01*
X19690Y1313D01*
X19673Y1313D01*
X19563Y1313D01*
X19563Y0995D01*
X19469Y0995D01*
X19469Y0995D01*
X20616Y1080D02*
X20616Y0995D01*
X20142Y0995D01*
X20143Y1011D01*
X20145Y1027D01*
X20148Y1042D01*
X20153Y1056D01*
X20163Y1081D01*
X20176Y1104D01*
X20192Y1128D01*
X20211Y1152D01*
X20233Y1176D01*
X20259Y1202D01*
X20290Y1230D01*
X20326Y1260D01*
X20379Y1305D01*
X20423Y1346D01*
X20458Y1381D01*
X20483Y1412D01*
X20501Y1439D01*
X20514Y1466D01*
X20522Y1492D01*
X20524Y1517D01*
X20522Y1542D01*
X20515Y1566D01*
X20503Y1587D01*
X20487Y1606D01*
X20467Y1621D01*
X20444Y1632D01*
X20418Y1639D01*
X20390Y1641D01*
X20359Y1639D01*
X20332Y1632D01*
X20309Y1620D01*
X20288Y1603D01*
X20271Y1582D01*
X20259Y1558D01*
X20252Y1530D01*
X20249Y1498D01*
X20159Y1507D01*
X20167Y1555D01*
X20181Y1596D01*
X20202Y1632D01*
X20229Y1661D01*
X20262Y1684D01*
X20300Y1701D01*
X20343Y1711D01*
X20391Y1714D01*
X20440Y1711D01*
X20484Y1700D01*
X20522Y1682D01*
X20555Y1657D01*
X20581Y1627D01*
X20600Y1593D01*
X20611Y1556D01*
X20615Y1515D01*
X20614Y1494D01*
X20610Y1473D01*
X20605Y1452D01*
X20597Y1431D01*
X20587Y1410D01*
X20574Y1388D01*
X20558Y1366D01*
X20539Y1344D01*
X20515Y1318D01*
X20484Y1289D01*
X20447Y1255D01*
X20403Y1218D01*
X20367Y1187D01*
X20338Y1162D01*
X20316Y1142D01*
X20302Y1127D01*
X20291Y1116D01*
X20281Y1104D01*
X20272Y1092D01*
X20265Y1080D01*
X20616Y1080D01*
X20616Y1080D01*
G37*
%LNtop silkscreen component d7a4b54abdab6e5c*%
D10*
X5375Y4915D02*
X5375Y4085D01*
X6625Y4915D02*
X6625Y4085D01*
G36*
X5389Y1700D02*
X5389Y2416D01*
X5706Y2416D01*
X5751Y2415D01*
X5791Y2411D01*
X5824Y2405D01*
X5852Y2397D01*
X5876Y2385D01*
X5897Y2370D01*
X5915Y2351D01*
X5931Y2328D01*
X5944Y2303D01*
X5954Y2277D01*
X5959Y2249D01*
X5961Y2221D01*
X5958Y2184D01*
X5949Y2150D01*
X5933Y2120D01*
X5912Y2092D01*
X5884Y2068D01*
X5849Y2049D01*
X5808Y2035D01*
X5784Y2030D01*
X5769Y2107D01*
X5789Y2113D01*
X5806Y2121D01*
X5821Y2131D01*
X5834Y2143D01*
X5845Y2156D01*
X5853Y2171D01*
X5859Y2187D01*
X5862Y2203D01*
X5864Y2221D01*
X5861Y2245D01*
X5854Y2267D01*
X5843Y2287D01*
X5827Y2304D01*
X5806Y2318D01*
X5779Y2329D01*
X5747Y2335D01*
X5710Y2337D01*
X5484Y2337D01*
X5484Y2100D01*
X5484Y2100D01*
X5687Y2100D01*
X5718Y2101D01*
X5745Y2103D01*
X5769Y2107D01*
X5784Y2030D01*
X5760Y2026D01*
X5777Y2017D01*
X5793Y2008D01*
X5806Y1999D01*
X5817Y1990D01*
X5837Y1970D01*
X5857Y1947D01*
X5876Y1922D01*
X5895Y1895D01*
X6020Y1700D01*
X5901Y1700D01*
X5806Y1849D01*
X5786Y1879D01*
X5768Y1906D01*
X5752Y1929D01*
X5738Y1948D01*
X5725Y1963D01*
X5712Y1977D01*
X5700Y1987D01*
X5690Y1995D01*
X5679Y2002D01*
X5668Y2007D01*
X5657Y2011D01*
X5646Y2014D01*
X5637Y2016D01*
X5625Y2017D01*
X5611Y2018D01*
X5594Y2018D01*
X5484Y2018D01*
X5484Y1700D01*
X5389Y1700D01*
X5389Y1700D01*
X6356Y1700D02*
X6356Y1871D01*
X6045Y1871D01*
X6045Y1952D01*
X6300Y2314D01*
X6356Y2275D01*
X6132Y1952D01*
X6356Y1952D01*
X6356Y1952D01*
X6356Y2275D01*
X6300Y2314D01*
X6372Y2416D01*
X6444Y2416D01*
X6444Y1952D01*
X6540Y1952D01*
X6540Y1871D01*
X6444Y1871D01*
X6444Y1700D01*
X6356Y1700D01*
X6356Y1700D01*
G37*
%LNtop silkscreen component befe0c62168db060*%
X22800Y10150D02*
X25200Y10150D01*
X25200Y3850*
X22800Y3850*
X22800Y10150*
X24000Y10150D02*
X24000Y9610D01*
X24000Y3850D02*
X24000Y4390D01*
D11*
X22870Y8575D02*
X25130Y8575D01*
G36*
X23978Y1246D02*
X24073Y1222D01*
X24055Y1168D01*
X24031Y1120D01*
X24001Y1079D01*
X23965Y1044D01*
X23925Y1018D01*
X23879Y0999D01*
X23830Y0987D01*
X23776Y0983D01*
X23721Y0986D01*
X23671Y0995D01*
X23627Y1010D01*
X23588Y1030D01*
X23554Y1057D01*
X23524Y1088D01*
X23499Y1125D01*
X23478Y1167D01*
X23461Y1212D01*
X23449Y1259D01*
X23442Y1308D01*
X23440Y1359D01*
X23442Y1413D01*
X23450Y1463D01*
X23464Y1510D01*
X23483Y1554D01*
X23506Y1593D01*
X23534Y1627D01*
X23567Y1656D01*
X23604Y1680D01*
X23645Y1699D01*
X23687Y1713D01*
X23731Y1721D01*
X23778Y1723D01*
X23829Y1720D01*
X23877Y1710D01*
X23920Y1693D01*
X23958Y1669D01*
X23992Y1639D01*
X24020Y1603D01*
X24043Y1562D01*
X24060Y1515D01*
X23967Y1493D01*
X23953Y1529D01*
X23937Y1560D01*
X23917Y1586D01*
X23895Y1607D01*
X23870Y1622D01*
X23841Y1633D01*
X23810Y1640D01*
X23776Y1642D01*
X23736Y1640D01*
X23700Y1632D01*
X23667Y1620D01*
X23638Y1603D01*
X23612Y1581D01*
X23591Y1556D01*
X23573Y1528D01*
X23560Y1497D01*
X23550Y1463D01*
X23543Y1429D01*
X23539Y1394D01*
X23537Y1359D01*
X23539Y1315D01*
X23544Y1274D01*
X23552Y1235D01*
X23564Y1200D01*
X23579Y1168D01*
X23598Y1140D01*
X23621Y1117D01*
X23647Y1098D01*
X23675Y1083D01*
X23705Y1073D01*
X23736Y1066D01*
X23768Y1064D01*
X23807Y1067D01*
X23842Y1076D01*
X23874Y1090D01*
X23903Y1110D01*
X23929Y1136D01*
X23949Y1167D01*
X23966Y1204D01*
X23978Y1246D01*
X23978Y1246D01*
X24616Y1080D02*
X24616Y0995D01*
X24142Y0995D01*
X24143Y1011D01*
X24145Y1027D01*
X24148Y1042D01*
X24153Y1056D01*
X24163Y1081D01*
X24176Y1104D01*
X24192Y1128D01*
X24211Y1152D01*
X24233Y1176D01*
X24259Y1202D01*
X24290Y1230D01*
X24326Y1260D01*
X24379Y1305D01*
X24423Y1346D01*
X24458Y1381D01*
X24483Y1412D01*
X24501Y1439D01*
X24514Y1466D01*
X24522Y1492D01*
X24524Y1517D01*
X24522Y1542D01*
X24515Y1566D01*
X24503Y1587D01*
X24487Y1606D01*
X24467Y1621D01*
X24444Y1632D01*
X24418Y1639D01*
X24390Y1641D01*
X24359Y1639D01*
X24332Y1632D01*
X24309Y1620D01*
X24288Y1603D01*
X24271Y1582D01*
X24259Y1558D01*
X24252Y1530D01*
X24249Y1498D01*
X24159Y1507D01*
X24167Y1555D01*
X24181Y1596D01*
X24202Y1632D01*
X24229Y1661D01*
X24262Y1684D01*
X24300Y1701D01*
X24343Y1711D01*
X24391Y1714D01*
X24440Y1711D01*
X24484Y1700D01*
X24522Y1682D01*
X24555Y1657D01*
X24581Y1627D01*
X24600Y1593D01*
X24611Y1556D01*
X24615Y1515D01*
X24614Y1494D01*
X24610Y1473D01*
X24605Y1452D01*
X24597Y1431D01*
X24587Y1410D01*
X24574Y1388D01*
X24558Y1366D01*
X24539Y1344D01*
X24515Y1318D01*
X24484Y1289D01*
X24447Y1255D01*
X24403Y1218D01*
X24367Y1187D01*
X24338Y1162D01*
X24316Y1142D01*
X24302Y1127D01*
X24291Y1116D01*
X24281Y1104D01*
X24272Y1092D01*
X24265Y1080D01*
X24616Y1080D01*
X24616Y1080D01*
G37*
%LNtop silkscreen component a9804d9a40cfbe82*%
D10*
X7600Y7050D02*
X7600Y11950D01*
X10400Y11950*
X10400Y7050*
X7600Y7050*
D12*
X4947Y11405D03*
G36*
X8213Y9363D02*
X8306Y9370D01*
X8313Y9339D01*
X8323Y9311D01*
X8336Y9288D01*
X8353Y9269D01*
X8373Y9254D01*
X8394Y9244D01*
X8418Y9237D01*
X8443Y9235D01*
X8474Y9238D01*
X8502Y9247D01*
X8528Y9262D01*
X8551Y9283D01*
X8570Y9309D01*
X8584Y9339D01*
X8592Y9372D01*
X8595Y9410D01*
X8592Y9445D01*
X8584Y9477D01*
X8571Y9505D01*
X8553Y9529D01*
X8530Y9548D01*
X8504Y9561D01*
X8474Y9569D01*
X8442Y9572D01*
X8421Y9571D01*
X8402Y9567D01*
X8383Y9561D01*
X8365Y9553D01*
X8349Y9542D01*
X8335Y9531D01*
X8322Y9517D01*
X8312Y9503D01*
X8229Y9513D01*
X8298Y9881D01*
X8654Y9881D01*
X8654Y9797D01*
X8369Y9797D01*
X8330Y9605D01*
X8363Y9624D01*
X8396Y9638D01*
X8430Y9647D01*
X8465Y9650D01*
X8510Y9646D01*
X8552Y9633D01*
X8590Y9613D01*
X8624Y9585D01*
X8652Y9550D01*
X8672Y9510D01*
X8684Y9466D01*
X8688Y9418D01*
X8684Y9371D01*
X8674Y9327D01*
X8656Y9287D01*
X8631Y9250D01*
X8594Y9212D01*
X8550Y9185D01*
X8500Y9168D01*
X8443Y9163D01*
X8397Y9166D01*
X8355Y9176D01*
X8317Y9194D01*
X8284Y9217D01*
X8256Y9247D01*
X8235Y9281D01*
X8221Y9320D01*
X8213Y9363D01*
X8213Y9363D01*
X8770Y9363D02*
X8862Y9370D01*
X8869Y9339D01*
X8879Y9311D01*
X8892Y9288D01*
X8909Y9269D01*
X8929Y9254D01*
X8951Y9244D01*
X8974Y9237D01*
X9000Y9235D01*
X9030Y9238D01*
X9058Y9247D01*
X9084Y9262D01*
X9107Y9283D01*
X9126Y9309D01*
X9140Y9339D01*
X9148Y9372D01*
X9151Y9410D01*
X9148Y9445D01*
X9140Y9477D01*
X9127Y9505D01*
X9109Y9529D01*
X9086Y9548D01*
X9060Y9561D01*
X9031Y9569D01*
X8998Y9572D01*
X8977Y9571D01*
X8958Y9567D01*
X8939Y9561D01*
X8921Y9553D01*
X8905Y9542D01*
X8891Y9531D01*
X8878Y9517D01*
X8868Y9503D01*
X8785Y9513D01*
X8855Y9881D01*
X9210Y9881D01*
X9210Y9797D01*
X8925Y9797D01*
X8886Y9605D01*
X8919Y9624D01*
X8952Y9638D01*
X8987Y9647D01*
X9022Y9650D01*
X9067Y9646D01*
X9108Y9633D01*
X9146Y9613D01*
X9180Y9585D01*
X9208Y9550D01*
X9228Y9510D01*
X9240Y9466D01*
X9244Y9418D01*
X9241Y9371D01*
X9230Y9327D01*
X9212Y9287D01*
X9188Y9250D01*
X9150Y9212D01*
X9106Y9185D01*
X9056Y9168D01*
X9000Y9163D01*
X8953Y9166D01*
X8911Y9176D01*
X8873Y9194D01*
X8840Y9217D01*
X8813Y9247D01*
X8792Y9281D01*
X8777Y9320D01*
X8770Y9363D01*
X8770Y9363D01*
X9326Y9363D02*
X9418Y9370D01*
X9425Y9339D01*
X9435Y9311D01*
X9449Y9288D01*
X9466Y9269D01*
X9485Y9254D01*
X9507Y9244D01*
X9530Y9237D01*
X9556Y9235D01*
X9586Y9238D01*
X9614Y9247D01*
X9640Y9262D01*
X9663Y9283D01*
X9682Y9309D01*
X9696Y9339D01*
X9704Y9372D01*
X9707Y9410D01*
X9704Y9445D01*
X9697Y9477D01*
X9683Y9505D01*
X9665Y9529D01*
X9642Y9548D01*
X9616Y9561D01*
X9587Y9569D01*
X9554Y9572D01*
X9534Y9571D01*
X9514Y9567D01*
X9495Y9561D01*
X9478Y9553D01*
X9461Y9542D01*
X9447Y9531D01*
X9435Y9517D01*
X9424Y9503D01*
X9341Y9513D01*
X9411Y9881D01*
X9767Y9881D01*
X9767Y9797D01*
X9481Y9797D01*
X9442Y9605D01*
X9475Y9624D01*
X9508Y9638D01*
X9543Y9647D01*
X9578Y9650D01*
X9623Y9646D01*
X9664Y9633D01*
X9702Y9613D01*
X9736Y9585D01*
X9764Y9550D01*
X9784Y9510D01*
X9796Y9466D01*
X9800Y9418D01*
X9797Y9371D01*
X9786Y9327D01*
X9768Y9287D01*
X9744Y9250D01*
X9706Y9212D01*
X9662Y9185D01*
X9612Y9168D01*
X9556Y9163D01*
X9509Y9166D01*
X9467Y9176D01*
X9429Y9194D01*
X9396Y9217D01*
X9369Y9247D01*
X9348Y9281D01*
X9333Y9320D01*
X9326Y9363D01*
X9326Y9363D01*
G37*
%LNtop silkscreen component 5f10c96b5cad9d4e*%
D10*
X14800Y10150D02*
X17200Y10150D01*
X17200Y3850*
X14800Y3850*
X14800Y10150*
X16000Y10150D02*
X16000Y9610D01*
X16000Y3850D02*
X16000Y4390D01*
D11*
X14870Y8575D02*
X17130Y8575D01*
G36*
X15469Y0995D02*
X15469Y1711D01*
X15786Y1711D01*
X15831Y1710D01*
X15870Y1706D01*
X15904Y1700D01*
X15932Y1692D01*
X15955Y1680D01*
X15976Y1665D01*
X15995Y1646D01*
X16011Y1624D01*
X16024Y1599D01*
X16033Y1572D01*
X16039Y1545D01*
X16041Y1516D01*
X16038Y1479D01*
X16029Y1446D01*
X16013Y1415D01*
X15992Y1387D01*
X15964Y1364D01*
X15929Y1345D01*
X15887Y1331D01*
X15864Y1326D01*
X15848Y1403D01*
X15869Y1409D01*
X15886Y1416D01*
X15901Y1426D01*
X15914Y1438D01*
X15924Y1452D01*
X15933Y1467D01*
X15938Y1483D01*
X15942Y1499D01*
X15943Y1516D01*
X15941Y1540D01*
X15934Y1562D01*
X15922Y1582D01*
X15906Y1599D01*
X15885Y1614D01*
X15859Y1624D01*
X15827Y1630D01*
X15790Y1632D01*
X15563Y1632D01*
X15563Y1395D01*
X15563Y1395D01*
X15767Y1395D01*
X15798Y1396D01*
X15825Y1399D01*
X15848Y1403D01*
X15864Y1326D01*
X15839Y1321D01*
X15857Y1312D01*
X15872Y1303D01*
X15885Y1294D01*
X15896Y1285D01*
X15917Y1265D01*
X15937Y1243D01*
X15956Y1218D01*
X15975Y1190D01*
X16099Y0995D01*
X15980Y0995D01*
X15886Y1144D01*
X15866Y1175D01*
X15848Y1201D01*
X15832Y1224D01*
X15817Y1243D01*
X15804Y1259D01*
X15792Y1272D01*
X15780Y1283D01*
X15769Y1291D01*
X15758Y1297D01*
X15748Y1302D01*
X15737Y1307D01*
X15726Y1310D01*
X15717Y1311D01*
X15705Y1312D01*
X15690Y1313D01*
X15673Y1313D01*
X15563Y1313D01*
X15563Y0995D01*
X15469Y0995D01*
X15469Y0995D01*
X16485Y0995D02*
X16397Y0995D01*
X16397Y1555D01*
X16380Y1540D01*
X16360Y1525D01*
X16338Y1510D01*
X16314Y1495D01*
X16288Y1481D01*
X16265Y1468D01*
X16242Y1458D01*
X16221Y1450D01*
X16221Y1534D01*
X16257Y1553D01*
X16290Y1573D01*
X16321Y1595D01*
X16350Y1618D01*
X16376Y1643D01*
X16397Y1667D01*
X16415Y1691D01*
X16428Y1714D01*
X16485Y1714D01*
X16485Y0995D01*
X16485Y0995D01*
G37*
%LNtop silkscreen component 8c2b338affb525d5*%
D10*
X4195Y2265D02*
X0805Y2265D01*
X4195Y2265D02*
X4195Y10735D01*
X0805Y10735*
X0805Y2265*
D13*
X4520Y3960D03*
%LNtop silkscreen component 38324e58cf343c8d*%
D10*
X11375Y4915D02*
X11375Y4085D01*
X12625Y4915D02*
X12625Y4085D01*
G36*
X11898Y1951D02*
X11993Y1927D01*
X11975Y1872D01*
X11951Y1824D01*
X11922Y1783D01*
X11886Y1749D01*
X11845Y1722D01*
X11800Y1703D01*
X11750Y1692D01*
X11697Y1688D01*
X11641Y1691D01*
X11592Y1700D01*
X11547Y1714D01*
X11508Y1735D01*
X11474Y1761D01*
X11445Y1793D01*
X11419Y1829D01*
X11398Y1871D01*
X11381Y1917D01*
X11370Y1964D01*
X11363Y2013D01*
X11360Y2063D01*
X11363Y2117D01*
X11371Y2168D01*
X11384Y2215D01*
X11403Y2258D01*
X11427Y2297D01*
X11455Y2332D01*
X11487Y2361D01*
X11524Y2385D01*
X11565Y2404D01*
X11607Y2417D01*
X11652Y2425D01*
X11698Y2428D01*
X11750Y2425D01*
X11797Y2414D01*
X11840Y2397D01*
X11879Y2373D01*
X11913Y2343D01*
X11941Y2308D01*
X11964Y2266D01*
X11981Y2220D01*
X11888Y2198D01*
X11874Y2234D01*
X11857Y2265D01*
X11838Y2291D01*
X11815Y2311D01*
X11790Y2327D01*
X11762Y2338D01*
X11730Y2345D01*
X11696Y2347D01*
X11657Y2345D01*
X11620Y2337D01*
X11588Y2325D01*
X11558Y2307D01*
X11533Y2286D01*
X11511Y2261D01*
X11494Y2233D01*
X11480Y2201D01*
X11470Y2168D01*
X11463Y2134D01*
X11459Y2099D01*
X11458Y2064D01*
X11459Y2020D01*
X11464Y1978D01*
X11473Y1940D01*
X11484Y1904D01*
X11500Y1872D01*
X11518Y1845D01*
X11541Y1822D01*
X11567Y1803D01*
X11596Y1788D01*
X11626Y1777D01*
X11657Y1771D01*
X11689Y1769D01*
X11727Y1772D01*
X11762Y1780D01*
X11794Y1795D01*
X11824Y1815D01*
X11849Y1840D01*
X11870Y1872D01*
X11886Y1909D01*
X11898Y1951D01*
X11898Y1951D01*
X12405Y1700D02*
X12317Y1700D01*
X12317Y2260D01*
X12300Y2245D01*
X12281Y2230D01*
X12258Y2215D01*
X12234Y2200D01*
X12209Y2185D01*
X12185Y2173D01*
X12163Y2163D01*
X12141Y2154D01*
X12141Y2239D01*
X12177Y2257D01*
X12211Y2277D01*
X12242Y2299D01*
X12270Y2323D01*
X12296Y2348D01*
X12317Y2372D01*
X12335Y2395D01*
X12348Y2419D01*
X12405Y2419D01*
X12405Y1700D01*
X12405Y1700D01*
G37*
%LNtop silkscreen component 3459f75a6fb52317*%
X8375Y4915D02*
X8375Y4085D01*
X9625Y4915D02*
X9625Y4085D01*
D11*
X8445Y4776D02*
X9555Y4776D01*
D14*
X9000Y6510D03*
G36*
X8388Y1700D02*
X8388Y2416D01*
X8633Y2416D01*
X8633Y2331D01*
X8482Y2331D01*
X8482Y1784D01*
X8482Y1784D01*
X8635Y1784D01*
X8669Y1785D01*
X8698Y1788D01*
X8724Y1792D01*
X8746Y1798D01*
X8765Y1805D01*
X8782Y1814D01*
X8797Y1823D01*
X8810Y1835D01*
X8826Y1853D01*
X8840Y1874D01*
X8853Y1898D01*
X8863Y1925D01*
X8871Y1955D01*
X8877Y1988D01*
X8880Y2024D01*
X8882Y2063D01*
X8879Y2116D01*
X8872Y2163D01*
X8861Y2202D01*
X8845Y2236D01*
X8825Y2264D01*
X8804Y2286D01*
X8781Y2304D01*
X8755Y2317D01*
X8733Y2323D01*
X8705Y2328D01*
X8672Y2330D01*
X8633Y2331D01*
X8633Y2416D01*
X8634Y2416D01*
X8673Y2415D01*
X8708Y2413D01*
X8737Y2410D01*
X8762Y2406D01*
X8791Y2397D01*
X8819Y2386D01*
X8844Y2371D01*
X8867Y2354D01*
X8893Y2329D01*
X8916Y2300D01*
X8935Y2268D01*
X8951Y2232D01*
X8964Y2193D01*
X8972Y2152D01*
X8978Y2108D01*
X8979Y2062D01*
X8978Y2022D01*
X8975Y1985D01*
X8969Y1950D01*
X8960Y1917D01*
X8950Y1887D01*
X8939Y1860D01*
X8926Y1835D01*
X8911Y1813D01*
X8896Y1794D01*
X8880Y1776D01*
X8864Y1761D01*
X8846Y1748D01*
X8828Y1737D01*
X8807Y1727D01*
X8785Y1719D01*
X8761Y1712D01*
X8735Y1707D01*
X8707Y1703D01*
X8677Y1701D01*
X8646Y1700D01*
X8388Y1700D01*
X8388Y1700D01*
X9405Y1700D02*
X9317Y1700D01*
X9317Y2260D01*
X9300Y2245D01*
X9281Y2230D01*
X9258Y2215D01*
X9234Y2200D01*
X9209Y2185D01*
X9185Y2173D01*
X9163Y2163D01*
X9141Y2154D01*
X9141Y2239D01*
X9177Y2257D01*
X9211Y2277D01*
X9242Y2299D01*
X9270Y2323D01*
X9296Y2348D01*
X9317Y2372D01*
X9335Y2395D01*
X9348Y2419D01*
X9405Y2419D01*
X9405Y1700D01*
X9405Y1700D01*
G37*
%LNtext*%
G36*
X4642Y0814D02*
X4730Y0826D01*
X4739Y0791D01*
X4750Y0761D01*
X4765Y0737D01*
X4781Y0718D01*
X4801Y0704D01*
X4822Y0693D01*
X4845Y0687D01*
X4870Y0685D01*
X4900Y0688D01*
X4927Y0696D01*
X4952Y0709D01*
X4975Y0728D01*
X4993Y0751D01*
X5007Y0776D01*
X5015Y0804D01*
X5017Y0834D01*
X5015Y0863D01*
X5008Y0890D01*
X4995Y0913D01*
X4978Y0934D01*
X4957Y0952D01*
X4933Y0964D01*
X4907Y0971D01*
X4877Y0974D01*
X4864Y0973D01*
X4849Y0971D01*
X4833Y0968D01*
X4815Y0964D01*
X4825Y1041D01*
X4829Y1041D01*
X4833Y1040D01*
X4836Y1040D01*
X4839Y1040D01*
X4867Y1042D01*
X4893Y1047D01*
X4917Y1057D01*
X4940Y1069D01*
X4960Y1086D01*
X4974Y1107D01*
X4982Y1131D01*
X4985Y1160D01*
X4983Y1183D01*
X4977Y1204D01*
X4967Y1223D01*
X4953Y1240D01*
X4935Y1254D01*
X4915Y1264D01*
X4893Y1270D01*
X4868Y1271D01*
X4843Y1269D01*
X4821Y1263D01*
X4801Y1253D01*
X4783Y1239D01*
X4767Y1221D01*
X4755Y1199D01*
X4745Y1173D01*
X4739Y1143D01*
X4651Y1158D01*
X4661Y1200D01*
X4677Y1237D01*
X4698Y1268D01*
X4724Y1295D01*
X4754Y1316D01*
X4788Y1332D01*
X4825Y1341D01*
X4866Y1344D01*
X4895Y1342D01*
X4922Y1337D01*
X4949Y1330D01*
X4974Y1319D01*
X4997Y1305D01*
X5018Y1289D01*
X5035Y1271D01*
X5049Y1250D01*
X5061Y1228D01*
X5069Y1205D01*
X5074Y1182D01*
X5076Y1158D01*
X5074Y1135D01*
X5069Y1113D01*
X5062Y1093D01*
X5051Y1073D01*
X5037Y1055D01*
X5020Y1039D01*
X5000Y1025D01*
X4977Y1013D01*
X5007Y1003D01*
X5033Y0990D01*
X5056Y0973D01*
X5076Y0952D01*
X5091Y0927D01*
X5102Y0900D01*
X5109Y0870D01*
X5111Y0836D01*
X5106Y0791D01*
X5094Y0750D01*
X5072Y0712D01*
X5042Y0677D01*
X5006Y0649D01*
X4965Y0629D01*
X4920Y0616D01*
X4870Y0612D01*
X4824Y0616D01*
X4783Y0626D01*
X4746Y0644D01*
X4713Y0668D01*
X4685Y0699D01*
X4664Y0733D01*
X4650Y0771D01*
X4642Y0814D01*
X4642Y0814D01*
X5198Y0978D02*
X5199Y1038D01*
X5204Y1093D01*
X5212Y1141D01*
X5224Y1182D01*
X5238Y1219D01*
X5256Y1251D01*
X5277Y1279D01*
X5301Y1302D01*
X5329Y1320D01*
X5360Y1333D01*
X5394Y1341D01*
X5431Y1344D01*
X5459Y1342D01*
X5485Y1338D01*
X5510Y1331D01*
X5532Y1321D01*
X5553Y1308D01*
X5572Y1292D01*
X5589Y1274D01*
X5604Y1254D01*
X5617Y1231D01*
X5629Y1205D01*
X5640Y1177D01*
X5648Y1147D01*
X5655Y1113D01*
X5660Y1074D01*
X5663Y1029D01*
X5664Y0978D01*
X5663Y0918D01*
X5658Y0864D01*
X5650Y0816D01*
X5639Y0775D01*
X5624Y0738D01*
X5606Y0706D01*
X5585Y0678D01*
X5561Y0655D01*
X5534Y0637D01*
X5503Y0623D01*
X5469Y0615D01*
X5431Y0613D01*
X5424Y0613D01*
X5431Y0685D01*
X5460Y0689D01*
X5487Y0700D01*
X5511Y0718D01*
X5533Y0744D01*
X5551Y0780D01*
X5564Y0832D01*
X5572Y0897D01*
X5574Y0978D01*
X5572Y1059D01*
X5564Y1125D01*
X5551Y1176D01*
X5533Y1213D01*
X5511Y1238D01*
X5487Y1256D01*
X5460Y1267D01*
X5430Y1271D01*
X5401Y1268D01*
X5376Y1258D01*
X5353Y1242D01*
X5333Y1220D01*
X5314Y1180D01*
X5299Y1127D01*
X5291Y1059D01*
X5288Y0978D01*
X5288Y0978D01*
X5291Y0897D01*
X5298Y0831D01*
X5311Y0780D01*
X5329Y0743D01*
X5351Y0718D01*
X5375Y0700D01*
X5402Y0689D01*
X5431Y0685D01*
X5424Y0613D01*
X5382Y0617D01*
X5339Y0631D01*
X5301Y0655D01*
X5268Y0687D01*
X5237Y0739D01*
X5215Y0804D01*
X5202Y0884D01*
X5198Y0978D01*
X5198Y0978D01*
X5754Y0978D02*
X5755Y1038D01*
X5760Y1093D01*
X5769Y1141D01*
X5780Y1182D01*
X5795Y1219D01*
X5812Y1251D01*
X5833Y1279D01*
X5858Y1302D01*
X5885Y1320D01*
X5916Y1333D01*
X5950Y1341D01*
X5987Y1344D01*
X6015Y1342D01*
X6041Y1338D01*
X6066Y1331D01*
X6088Y1321D01*
X6109Y1308D01*
X6128Y1292D01*
X6145Y1274D01*
X6160Y1254D01*
X6173Y1231D01*
X6185Y1205D01*
X6196Y1177D01*
X6205Y1147D01*
X6212Y1113D01*
X6217Y1074D01*
X6220Y1029D01*
X6221Y0978D01*
X6219Y0918D01*
X6214Y0864D01*
X6206Y0816D01*
X6195Y0775D01*
X6180Y0738D01*
X6162Y0706D01*
X6142Y0678D01*
X6117Y0655D01*
X6090Y0637D01*
X6059Y0623D01*
X6025Y0615D01*
X5987Y0613D01*
X5980Y0613D01*
X5987Y0685D01*
X6016Y0689D01*
X6043Y0700D01*
X6067Y0718D01*
X6089Y0744D01*
X6107Y0780D01*
X6120Y0832D01*
X6128Y0897D01*
X6130Y0978D01*
X6128Y1059D01*
X6120Y1125D01*
X6107Y1176D01*
X6089Y1213D01*
X6067Y1238D01*
X6043Y1256D01*
X6016Y1267D01*
X5986Y1271D01*
X5957Y1268D01*
X5932Y1258D01*
X5909Y1242D01*
X5890Y1220D01*
X5870Y1180D01*
X5856Y1127D01*
X5847Y1059D01*
X5844Y0978D01*
X5844Y0978D01*
X5847Y0897D01*
X5854Y0831D01*
X5867Y0780D01*
X5885Y0743D01*
X5907Y0718D01*
X5931Y0700D01*
X5958Y0689D01*
X5987Y0685D01*
X5980Y0613D01*
X5938Y0617D01*
X5895Y0631D01*
X5857Y0655D01*
X5825Y0687D01*
X5794Y0739D01*
X5772Y0804D01*
X5758Y0884D01*
X5754Y0978D01*
X5754Y0978D01*
X6347Y0625D02*
X6347Y1341D01*
X6664Y1341D01*
X6709Y1340D01*
X6749Y1336D01*
X6782Y1330D01*
X6810Y1322D01*
X6834Y1310D01*
X6855Y1295D01*
X6873Y1276D01*
X6890Y1253D01*
X6903Y1228D01*
X6912Y1202D01*
X6917Y1174D01*
X6919Y1146D01*
X6916Y1109D01*
X6907Y1075D01*
X6892Y1045D01*
X6870Y1017D01*
X6842Y0993D01*
X6807Y0974D01*
X6766Y0960D01*
X6742Y0955D01*
X6727Y1032D01*
X6747Y1038D01*
X6764Y1046D01*
X6779Y1056D01*
X6792Y1068D01*
X6803Y1081D01*
X6811Y1096D01*
X6817Y1112D01*
X6821Y1128D01*
X6822Y1146D01*
X6819Y1170D01*
X6812Y1192D01*
X6801Y1212D01*
X6785Y1229D01*
X6764Y1243D01*
X6737Y1254D01*
X6706Y1260D01*
X6668Y1262D01*
X6442Y1262D01*
X6442Y1025D01*
X6442Y1025D01*
X6645Y1025D01*
X6676Y1026D01*
X6703Y1028D01*
X6727Y1032D01*
X6742Y0955D01*
X6718Y0951D01*
X6735Y0942D01*
X6751Y0933D01*
X6764Y0924D01*
X6775Y0915D01*
X6795Y0895D01*
X6815Y0872D01*
X6835Y0847D01*
X6853Y0820D01*
X6978Y0625D01*
X6859Y0625D01*
X6764Y0774D01*
X6744Y0804D01*
X6726Y0831D01*
X6710Y0854D01*
X6696Y0873D01*
X6683Y0888D01*
X6670Y0902D01*
X6659Y0912D01*
X6648Y0920D01*
X6637Y0927D01*
X6626Y0932D01*
X6615Y0936D01*
X6604Y0939D01*
X6595Y0941D01*
X6583Y0942D01*
X6569Y0943D01*
X6552Y0943D01*
X6442Y0943D01*
X6442Y0625D01*
X6347Y0625D01*
X6347Y0625D01*
X11048Y0650D02*
X10960Y0650D01*
X10960Y1210D01*
X10943Y1195D01*
X10923Y1180D01*
X10901Y1165D01*
X10876Y1150D01*
X10851Y1135D01*
X10828Y1123D01*
X10805Y1113D01*
X10784Y1104D01*
X10784Y1189D01*
X10820Y1207D01*
X10853Y1227D01*
X10884Y1249D01*
X10913Y1273D01*
X10938Y1298D01*
X10960Y1322D01*
X10977Y1345D01*
X10991Y1369D01*
X11048Y1369D01*
X11048Y0650D01*
X11048Y0650D01*
X11273Y1003D02*
X11274Y1063D01*
X11279Y1118D01*
X11287Y1166D01*
X11299Y1207D01*
X11313Y1244D01*
X11331Y1276D01*
X11352Y1304D01*
X11376Y1327D01*
X11404Y1345D01*
X11435Y1358D01*
X11469Y1366D01*
X11506Y1369D01*
X11534Y1367D01*
X11560Y1363D01*
X11585Y1356D01*
X11607Y1346D01*
X11628Y1333D01*
X11647Y1317D01*
X11664Y1299D01*
X11679Y1279D01*
X11692Y1256D01*
X11704Y1230D01*
X11715Y1202D01*
X11723Y1172D01*
X11730Y1138D01*
X11735Y1099D01*
X11738Y1054D01*
X11739Y1003D01*
X11738Y0943D01*
X11733Y0889D01*
X11725Y0841D01*
X11714Y0800D01*
X11699Y0763D01*
X11681Y0731D01*
X11660Y0703D01*
X11636Y0680D01*
X11609Y0662D01*
X11578Y0648D01*
X11544Y0640D01*
X11506Y0638D01*
X11499Y0638D01*
X11506Y0710D01*
X11535Y0714D01*
X11562Y0725D01*
X11586Y0743D01*
X11608Y0769D01*
X11626Y0805D01*
X11639Y0857D01*
X11647Y0922D01*
X11649Y1003D01*
X11647Y1084D01*
X11639Y1150D01*
X11626Y1201D01*
X11608Y1238D01*
X11586Y1263D01*
X11562Y1281D01*
X11535Y1292D01*
X11505Y1296D01*
X11476Y1293D01*
X11451Y1283D01*
X11428Y1267D01*
X11408Y1245D01*
X11389Y1205D01*
X11374Y1152D01*
X11366Y1084D01*
X11363Y1003D01*
X11363Y1003D01*
X11366Y0922D01*
X11373Y0856D01*
X11386Y0805D01*
X11404Y0768D01*
X11426Y0743D01*
X11450Y0725D01*
X11477Y0714D01*
X11506Y0710D01*
X11499Y0638D01*
X11457Y0642D01*
X11414Y0656D01*
X11376Y0680D01*
X11343Y0712D01*
X11312Y0764D01*
X11290Y0829D01*
X11277Y0909D01*
X11273Y1003D01*
X11273Y1003D01*
X11853Y0650D02*
X11853Y1169D01*
X11932Y1169D01*
X11932Y1095D01*
X11964Y1132D01*
X12002Y1159D01*
X12047Y1175D01*
X12097Y1180D01*
X12120Y1179D01*
X12142Y1176D01*
X12163Y1171D01*
X12184Y1163D01*
X12202Y1154D01*
X12218Y1144D01*
X12231Y1132D01*
X12242Y1119D01*
X12251Y1105D01*
X12259Y1089D01*
X12265Y1072D01*
X12270Y1054D01*
X12272Y1040D01*
X12273Y1021D01*
X12274Y0997D01*
X12275Y0969D01*
X12275Y0650D01*
X12187Y0650D01*
X12187Y0965D01*
X12186Y0991D01*
X12184Y1012D01*
X12181Y1031D01*
X12176Y1046D01*
X12170Y1058D01*
X12162Y1070D01*
X12152Y1080D01*
X12140Y1088D01*
X12126Y1095D01*
X12112Y1100D01*
X12096Y1103D01*
X12079Y1104D01*
X12052Y1102D01*
X12027Y1095D01*
X12003Y1084D01*
X11982Y1068D01*
X11964Y1047D01*
X11951Y1017D01*
X11944Y0979D01*
X11941Y0933D01*
X11941Y0650D01*
X11853Y0650D01*
X11853Y0650D01*
X12426Y0650D02*
X12426Y1366D01*
X12908Y1366D01*
X12908Y1281D01*
X12520Y1281D01*
X12520Y1060D01*
X12856Y1060D01*
X12856Y0975D01*
X12520Y0975D01*
X12520Y0650D01*
X12426Y0650D01*
X12426Y0650D01*
G37*
M02*