%FSLAX33Y33*%
%MOMM*%
%AMRect-W1650000-H1650000-RO1.000*
21,1,1.65,1.65,0.,0.,180*%
%ADD10C,0.0508*%
%ADD11C,0.508*%
%ADD12C,0.68834*%
%ADD13C,1.6*%
%ADD14C,1.6*%
%ADD15C,1.65*%
%ADD16Rect-W1650000-H1650000-RO1.000*%
D10*
%LNpour fill*%
G01*
X25475Y12475D02*
X25475Y12475D01*
X0525Y12475*
X0525Y0525*
X25475Y0525*
X25475Y12475*
X16126Y9788D02*
X16126Y9788D01*
X16364Y9847*
X16367Y9848*
X16584Y9962*
X16586Y9964*
X16770Y10126*
X16772Y10128*
X16911Y10330*
X16912Y10333*
X16999Y10562*
X17000Y10565*
X17030Y10808*
X17030Y10812*
X17000Y11055*
X16999Y11058*
X16912Y11287*
X16911Y11290*
X16772Y11492*
X16770Y11494*
X16586Y11656*
X16584Y11658*
X16367Y11772*
X16364Y11773*
X16126Y11832*
X16123Y11832*
X15877Y11832*
X15874Y11832*
X15636Y11773*
X15633Y11772*
X15416Y11658*
X15414Y11656*
X15230Y11494*
X15228Y11492*
X15089Y11290*
X15088Y11287*
X15001Y11058*
X15000Y11055*
X14970Y10812*
X14970Y10808*
X15000Y10565*
X15001Y10562*
X15088Y10333*
X15089Y10330*
X15228Y10128*
X15230Y10126*
X15414Y9964*
X15416Y9962*
X15633Y9848*
X15636Y9847*
X15874Y9788*
X15877Y9788*
X16123Y9788*
X16126Y9788*
X20126Y9788D02*
X20126Y9788D01*
X20364Y9847*
X20367Y9848*
X20584Y9962*
X20586Y9964*
X20770Y10126*
X20772Y10128*
X20911Y10330*
X20912Y10333*
X20999Y10562*
X21000Y10565*
X21030Y10808*
X21030Y10812*
X21000Y11055*
X20999Y11058*
X20912Y11287*
X20911Y11290*
X20772Y11492*
X20770Y11494*
X20586Y11656*
X20584Y11658*
X20367Y11772*
X20364Y11773*
X20126Y11832*
X20123Y11832*
X19877Y11832*
X19874Y11832*
X19636Y11773*
X19633Y11772*
X19416Y11658*
X19414Y11656*
X19230Y11494*
X19228Y11492*
X19089Y11290*
X19088Y11287*
X19001Y11058*
X19000Y11055*
X18970Y10812*
X18970Y10808*
X19000Y10565*
X19001Y10562*
X19088Y10333*
X19089Y10330*
X19228Y10128*
X19230Y10126*
X19414Y9964*
X19416Y9962*
X19633Y9848*
X19636Y9847*
X19874Y9788*
X19877Y9788*
X20123Y9788*
X20126Y9788*
X24126Y9788D02*
X24126Y9788D01*
X24364Y9847*
X24367Y9848*
X24584Y9962*
X24586Y9964*
X24770Y10126*
X24772Y10128*
X24911Y10330*
X24912Y10333*
X24999Y10562*
X25000Y10565*
X25030Y10808*
X25030Y10812*
X25000Y11055*
X24999Y11058*
X24912Y11287*
X24911Y11290*
X24772Y11492*
X24770Y11494*
X24586Y11656*
X24584Y11658*
X24367Y11772*
X24364Y11773*
X24126Y11832*
X24123Y11832*
X23877Y11832*
X23874Y11832*
X23636Y11773*
X23633Y11772*
X23416Y11658*
X23414Y11656*
X23230Y11494*
X23228Y11492*
X23089Y11290*
X23088Y11287*
X23001Y11058*
X23000Y11055*
X22970Y10812*
X22970Y10808*
X23000Y10565*
X23001Y10562*
X23088Y10333*
X23089Y10330*
X23228Y10128*
X23230Y10126*
X23414Y9964*
X23416Y9962*
X23633Y9848*
X23636Y9847*
X23874Y9788*
X23877Y9788*
X24123Y9788*
X24126Y9788*
X16126Y2168D02*
X16126Y2168D01*
X16364Y2227*
X16367Y2228*
X16584Y2342*
X16586Y2344*
X16770Y2506*
X16772Y2508*
X16911Y2710*
X16912Y2713*
X16999Y2942*
X17000Y2945*
X17030Y3188*
X17030Y3192*
X17000Y3435*
X16999Y3438*
X16912Y3667*
X16911Y3670*
X16772Y3872*
X16770Y3874*
X16586Y4036*
X16584Y4038*
X16367Y4152*
X16364Y4153*
X16126Y4212*
X16123Y4212*
X15877Y4212*
X15874Y4212*
X15704Y4170*
X14184Y5690*
X14184Y9833*
X14207Y9867*
X14209Y9870*
X14257Y9996*
X14257Y9999*
X14274Y10133*
X14274Y10137*
X14257Y10271*
X14257Y10274*
X14209Y10400*
X14207Y10403*
X14131Y10514*
X14128Y10517*
X14027Y10606*
X14025Y10608*
X13905Y10671*
X13902Y10672*
X13771Y10704*
X13768Y10705*
X13632Y10705*
X13629Y10704*
X13498Y10672*
X13495Y10671*
X13375Y10608*
X13373Y10606*
X13272Y10517*
X13270Y10514*
X13193Y10403*
X13191Y10400*
X13143Y10274*
X13143Y10271*
X13126Y10137*
X13126Y10133*
X13143Y9999*
X13143Y9996*
X13191Y9870*
X13193Y9867*
X13216Y9833*
X13216Y5489*
X13216Y5488*
X13225Y5397*
X13226Y5394*
X13253Y5306*
X13254Y5304*
X13297Y5222*
X13299Y5220*
X13357Y5149*
X13358Y5148*
X15019Y3487*
X15001Y3438*
X15000Y3435*
X14970Y3192*
X14970Y3188*
X15000Y2945*
X15001Y2942*
X15088Y2713*
X15089Y2710*
X15228Y2508*
X15230Y2506*
X15414Y2344*
X15416Y2342*
X15633Y2228*
X15636Y2227*
X15874Y2168*
X15877Y2168*
X16123Y2168*
X16126Y2168*
X2629Y7993D02*
X2629Y7993D01*
X2873Y8053*
X2875Y8054*
X3098Y8171*
X3100Y8173*
X3288Y8340*
X3290Y8342*
X3433Y8549*
X3435Y8551*
X3524Y8786*
X3524Y8789*
X3555Y9038*
X3555Y9042*
X3524Y9291*
X3524Y9294*
X3435Y9529*
X3433Y9531*
X3290Y9738*
X3288Y9740*
X3100Y9907*
X3098Y9909*
X2875Y10026*
X2873Y10027*
X2629Y10087*
X2626Y10087*
X2374Y10087*
X2371Y10087*
X2127Y10027*
X2125Y10026*
X1902Y9909*
X1900Y9907*
X1712Y9740*
X1710Y9738*
X1567Y9531*
X1565Y9529*
X1476Y9294*
X1476Y9291*
X1445Y9042*
X1445Y9038*
X1476Y8789*
X1476Y8786*
X1565Y8551*
X1567Y8549*
X1710Y8342*
X1712Y8340*
X1900Y8173*
X1902Y8171*
X2125Y8054*
X2127Y8053*
X2371Y7993*
X2374Y7993*
X2626Y7993*
X2629Y7993*
X2629Y5453D02*
X2629Y5453D01*
X2873Y5513*
X2875Y5514*
X3098Y5631*
X3100Y5633*
X3288Y5800*
X3290Y5802*
X3433Y6009*
X3435Y6011*
X3524Y6246*
X3524Y6249*
X3555Y6498*
X3555Y6502*
X3524Y6751*
X3524Y6754*
X3435Y6989*
X3433Y6991*
X3290Y7198*
X3288Y7200*
X3100Y7367*
X3098Y7369*
X2875Y7486*
X2873Y7487*
X2629Y7547*
X2626Y7547*
X2374Y7547*
X2371Y7547*
X2127Y7487*
X2125Y7486*
X1902Y7369*
X1900Y7367*
X1712Y7200*
X1710Y7198*
X1567Y6991*
X1565Y6989*
X1476Y6754*
X1476Y6751*
X1445Y6502*
X1445Y6498*
X1476Y6249*
X1476Y6246*
X1565Y6011*
X1567Y6009*
X1710Y5802*
X1712Y5800*
X1900Y5633*
X1902Y5631*
X2125Y5514*
X2127Y5513*
X2371Y5453*
X2374Y5453*
X2626Y5453*
X2629Y5453*
X2424Y2920D02*
X2424Y2920D01*
X2424Y3160*
X2576Y3160*
X2576Y2920*
X2591Y2905*
X3326Y2905*
X3327Y2905*
X3360Y2908*
X3362Y2908*
X3395Y2916*
X3397Y2917*
X3428Y2930*
X3430Y2931*
X3459Y2949*
X3461Y2950*
X3487Y2972*
X3488Y2973*
X3510Y2999*
X3511Y3001*
X3529Y3030*
X3530Y3032*
X3543Y3063*
X3544Y3065*
X3552Y3098*
X3552Y3100*
X3555Y3134*
X3555Y3135*
X3555Y3869*
X3540Y3884*
X3300Y3884*
X3300Y4036*
X3540Y4036*
X3555Y4051*
X3555Y4785*
X3555Y4786*
X3552Y4820*
X3552Y4822*
X3544Y4855*
X3543Y4857*
X3530Y4888*
X3529Y4890*
X3511Y4919*
X3510Y4921*
X3488Y4947*
X3487Y4948*
X3461Y4970*
X3459Y4971*
X3430Y4989*
X3428Y4990*
X3397Y5003*
X3395Y5004*
X3362Y5012*
X3360Y5012*
X3326Y5015*
X3325Y5015*
X2591Y5015*
X2576Y5000*
X2576Y4760*
X2424Y4760*
X2424Y5000*
X2409Y5015*
X1675Y5015*
X1674Y5015*
X1640Y5012*
X1638Y5012*
X1605Y5004*
X1603Y5003*
X1572Y4990*
X1570Y4989*
X1541Y4971*
X1539Y4970*
X1513Y4948*
X1512Y4947*
X1490Y4921*
X1489Y4919*
X1471Y4890*
X1470Y4888*
X1457Y4857*
X1456Y4855*
X1448Y4822*
X1448Y4820*
X1445Y4787*
X1445Y4786*
X1445Y4051*
X1460Y4036*
X1700Y4036*
X1700Y3884*
X1460Y3884*
X1445Y3869*
X1445Y3134*
X1445Y3133*
X1448Y3100*
X1448Y3098*
X1456Y3065*
X1457Y3063*
X1470Y3032*
X1471Y3030*
X1489Y3001*
X1490Y2999*
X1512Y2973*
X1513Y2972*
X1539Y2950*
X1541Y2949*
X1570Y2931*
X1572Y2930*
X1603Y2917*
X1605Y2916*
X1638Y2908*
X1640Y2908*
X1673Y2905*
X1674Y2905*
X2409Y2905*
X2424Y2920*
X20126Y2168D02*
X20126Y2168D01*
X20364Y2227*
X20367Y2228*
X20584Y2342*
X20586Y2344*
X20770Y2506*
X20772Y2508*
X20911Y2710*
X20912Y2713*
X20999Y2942*
X21000Y2945*
X21030Y3188*
X21030Y3192*
X21000Y3435*
X20999Y3438*
X20912Y3667*
X20911Y3670*
X20772Y3872*
X20770Y3874*
X20586Y4036*
X20584Y4038*
X20367Y4152*
X20364Y4153*
X20126Y4212*
X20123Y4212*
X19877Y4212*
X19874Y4212*
X19636Y4153*
X19633Y4152*
X19416Y4038*
X19414Y4036*
X19230Y3874*
X19228Y3872*
X19089Y3670*
X19088Y3667*
X19001Y3438*
X19000Y3435*
X18970Y3192*
X18970Y3188*
X19000Y2945*
X19001Y2942*
X19088Y2713*
X19089Y2710*
X19228Y2508*
X19230Y2506*
X19414Y2344*
X19416Y2342*
X19633Y2228*
X19636Y2227*
X19874Y2168*
X19877Y2168*
X20123Y2168*
X20126Y2168*
X24364Y2227D02*
X24364Y2227D01*
X24367Y2228*
X24584Y2342*
X24586Y2344*
X24770Y2506*
X24772Y2508*
X24911Y2710*
X24912Y2713*
X24999Y2942*
X25000Y2945*
X25007Y2998*
X24991Y3015*
X24775Y3015*
X24775Y3365*
X24991Y3365*
X25007Y3382*
X25000Y3435*
X24999Y3438*
X24912Y3667*
X24911Y3670*
X24772Y3872*
X24770Y3874*
X24586Y4036*
X24584Y4038*
X24367Y4152*
X24364Y4153*
X24194Y4195*
X24175Y4180*
X24175Y3959*
X23825Y3959*
X23825Y4180*
X23806Y4195*
X23636Y4153*
X23633Y4152*
X23416Y4038*
X23414Y4036*
X23230Y3874*
X23228Y3872*
X23089Y3670*
X23088Y3667*
X23001Y3438*
X23000Y3435*
X22970Y3192*
X22970Y3188*
X23000Y2945*
X23001Y2942*
X23088Y2713*
X23089Y2710*
X23228Y2508*
X23230Y2506*
X23414Y2344*
X23416Y2342*
X23633Y2228*
X23636Y2227*
X23806Y2185*
X23825Y2200*
X23825Y2421*
X24175Y2421*
X24175Y2200*
X24194Y2185*
X24364Y2227*
X0525Y0550D02*
X25475Y0550D01*
X0525Y0599D02*
X25475Y0599D01*
X0525Y0649D02*
X25475Y0649D01*
X0525Y0698D02*
X25475Y0698D01*
X0525Y0748D02*
X25475Y0748D01*
X0525Y0797D02*
X25475Y0797D01*
X0525Y0847D02*
X25475Y0847D01*
X0525Y0896D02*
X25475Y0896D01*
X0525Y0946D02*
X25475Y0946D01*
X0525Y0995D02*
X25475Y0995D01*
X0525Y1045D02*
X25475Y1045D01*
X0525Y1094D02*
X25475Y1094D01*
X0525Y1144D02*
X25475Y1144D01*
X0525Y1193D02*
X25475Y1193D01*
X0525Y1243D02*
X25475Y1243D01*
X0525Y1292D02*
X25475Y1292D01*
X0525Y1342D02*
X25475Y1342D01*
X0525Y1392D02*
X25475Y1392D01*
X0525Y1441D02*
X25475Y1441D01*
X0525Y1491D02*
X25475Y1491D01*
X0525Y1540D02*
X25475Y1540D01*
X0525Y1590D02*
X25475Y1590D01*
X0525Y1639D02*
X25475Y1639D01*
X0525Y1689D02*
X25475Y1689D01*
X0525Y1738D02*
X25475Y1738D01*
X0525Y1788D02*
X25475Y1788D01*
X0525Y1837D02*
X25475Y1837D01*
X0525Y1887D02*
X25475Y1887D01*
X0525Y1936D02*
X25475Y1936D01*
X0525Y1986D02*
X25475Y1986D01*
X0525Y2035D02*
X25475Y2035D01*
X0525Y2085D02*
X25475Y2085D01*
X0525Y2134D02*
X25475Y2134D01*
X0525Y2184D02*
X15810Y2184D01*
X16190Y2184D02*
X19810Y2184D01*
X20190Y2184D02*
X25475Y2184D01*
X0525Y2234D02*
X15623Y2234D01*
X16377Y2234D02*
X19623Y2234D01*
X20377Y2234D02*
X23623Y2234D01*
X23825Y2234D02*
X24175Y2234D01*
X24377Y2234D02*
X25475Y2234D01*
X0525Y2283D02*
X15528Y2283D01*
X16472Y2283D02*
X19528Y2283D01*
X20472Y2283D02*
X23528Y2283D01*
X23825Y2283D02*
X24175Y2283D01*
X24472Y2283D02*
X25475Y2283D01*
X0525Y2333D02*
X15434Y2333D01*
X16566Y2333D02*
X19434Y2333D01*
X20566Y2333D02*
X23434Y2333D01*
X23825Y2333D02*
X24175Y2333D01*
X24566Y2333D02*
X25475Y2333D01*
X0525Y2382D02*
X15370Y2382D01*
X16630Y2382D02*
X19370Y2382D01*
X20630Y2382D02*
X23370Y2382D01*
X23825Y2382D02*
X24175Y2382D01*
X24630Y2382D02*
X25475Y2382D01*
X0525Y2432D02*
X15314Y2432D01*
X16686Y2432D02*
X19314Y2432D01*
X20686Y2432D02*
X23314Y2432D01*
X24686Y2432D02*
X25475Y2432D01*
X0525Y2481D02*
X15258Y2481D01*
X16742Y2481D02*
X19258Y2481D01*
X20742Y2481D02*
X23258Y2481D01*
X24742Y2481D02*
X25475Y2481D01*
X0525Y2531D02*
X15213Y2531D01*
X16787Y2531D02*
X19213Y2531D01*
X20787Y2531D02*
X23213Y2531D01*
X24787Y2531D02*
X25475Y2531D01*
X0525Y2580D02*
X15179Y2580D01*
X16821Y2580D02*
X19179Y2580D01*
X20821Y2580D02*
X23179Y2580D01*
X24821Y2580D02*
X25475Y2580D01*
X0525Y2630D02*
X15145Y2630D01*
X16855Y2630D02*
X19145Y2630D01*
X20855Y2630D02*
X23145Y2630D01*
X24855Y2630D02*
X25475Y2630D01*
X0525Y2679D02*
X15110Y2679D01*
X16890Y2679D02*
X19110Y2679D01*
X20890Y2679D02*
X23110Y2679D01*
X24890Y2679D02*
X25475Y2679D01*
X0525Y2729D02*
X15082Y2729D01*
X16918Y2729D02*
X19082Y2729D01*
X20918Y2729D02*
X23082Y2729D01*
X24918Y2729D02*
X25475Y2729D01*
X0525Y2778D02*
X15063Y2778D01*
X16937Y2778D02*
X19063Y2778D01*
X20937Y2778D02*
X23063Y2778D01*
X24937Y2778D02*
X25475Y2778D01*
X0525Y2828D02*
X15044Y2828D01*
X16956Y2828D02*
X19044Y2828D01*
X20956Y2828D02*
X23044Y2828D01*
X24956Y2828D02*
X25475Y2828D01*
X0525Y2877D02*
X15025Y2877D01*
X16975Y2877D02*
X19025Y2877D01*
X20975Y2877D02*
X23025Y2877D01*
X24975Y2877D02*
X25475Y2877D01*
X0525Y2927D02*
X1579Y2927D01*
X2424Y2927D02*
X2576Y2927D01*
X3421Y2927D02*
X15006Y2927D01*
X16994Y2927D02*
X19006Y2927D01*
X20994Y2927D02*
X23006Y2927D01*
X24994Y2927D02*
X25475Y2927D01*
X0525Y2977D02*
X1509Y2977D01*
X2424Y2977D02*
X2576Y2977D01*
X3491Y2977D02*
X14996Y2977D01*
X17004Y2977D02*
X18996Y2977D01*
X21004Y2977D02*
X22996Y2977D01*
X25004Y2977D02*
X25475Y2977D01*
X0525Y3026D02*
X1473Y3026D01*
X2424Y3026D02*
X2576Y3026D01*
X3527Y3026D02*
X14990Y3026D01*
X17010Y3026D02*
X18990Y3026D01*
X21010Y3026D02*
X22990Y3026D01*
X24775Y3026D02*
X25475Y3026D01*
X0525Y3076D02*
X1454Y3076D01*
X2424Y3076D02*
X2576Y3076D01*
X3546Y3076D02*
X14984Y3076D01*
X17016Y3076D02*
X18984Y3076D01*
X21016Y3076D02*
X22984Y3076D01*
X24775Y3076D02*
X25475Y3076D01*
X0525Y3125D02*
X1446Y3125D01*
X2424Y3125D02*
X2576Y3125D01*
X3554Y3125D02*
X14978Y3125D01*
X17022Y3125D02*
X18978Y3125D01*
X21022Y3125D02*
X22978Y3125D01*
X24775Y3125D02*
X25475Y3125D01*
X0525Y3175D02*
X1445Y3175D01*
X3555Y3175D02*
X14972Y3175D01*
X17028Y3175D02*
X18972Y3175D01*
X21028Y3175D02*
X22972Y3175D01*
X24775Y3175D02*
X25475Y3175D01*
X0525Y3224D02*
X1445Y3224D01*
X3555Y3224D02*
X14974Y3224D01*
X17026Y3224D02*
X18974Y3224D01*
X21026Y3224D02*
X22974Y3224D01*
X24775Y3224D02*
X25475Y3224D01*
X0525Y3274D02*
X1445Y3274D01*
X3555Y3274D02*
X14980Y3274D01*
X17020Y3274D02*
X18980Y3274D01*
X21020Y3274D02*
X22980Y3274D01*
X24775Y3274D02*
X25475Y3274D01*
X0525Y3323D02*
X1445Y3323D01*
X3555Y3323D02*
X14986Y3323D01*
X17014Y3323D02*
X18986Y3323D01*
X21014Y3323D02*
X22986Y3323D01*
X24775Y3323D02*
X25475Y3323D01*
X0525Y3373D02*
X1445Y3373D01*
X3555Y3373D02*
X14992Y3373D01*
X17008Y3373D02*
X18992Y3373D01*
X21008Y3373D02*
X22992Y3373D01*
X24999Y3373D02*
X25475Y3373D01*
X0525Y3422D02*
X1445Y3422D01*
X3555Y3422D02*
X14998Y3422D01*
X17002Y3422D02*
X18998Y3422D01*
X21002Y3422D02*
X22998Y3422D01*
X25002Y3422D02*
X25475Y3422D01*
X0525Y3472D02*
X1445Y3472D01*
X3555Y3472D02*
X15014Y3472D01*
X16986Y3472D02*
X19014Y3472D01*
X20986Y3472D02*
X23014Y3472D01*
X24986Y3472D02*
X25475Y3472D01*
X0525Y3521D02*
X1445Y3521D01*
X3555Y3521D02*
X14985Y3521D01*
X16968Y3521D02*
X19032Y3521D01*
X20968Y3521D02*
X23032Y3521D01*
X24968Y3521D02*
X25475Y3521D01*
X0525Y3571D02*
X1445Y3571D01*
X3555Y3571D02*
X14935Y3571D01*
X16949Y3571D02*
X19051Y3571D01*
X20949Y3571D02*
X23051Y3571D01*
X24949Y3571D02*
X25475Y3571D01*
X0525Y3620D02*
X1445Y3620D01*
X3555Y3620D02*
X14886Y3620D01*
X16930Y3620D02*
X19070Y3620D01*
X20930Y3620D02*
X23070Y3620D01*
X24930Y3620D02*
X25475Y3620D01*
X0525Y3670D02*
X1445Y3670D01*
X3555Y3670D02*
X14836Y3670D01*
X16911Y3670D02*
X19089Y3670D01*
X20911Y3670D02*
X23089Y3670D01*
X24911Y3670D02*
X25475Y3670D01*
X0525Y3719D02*
X1445Y3719D01*
X3555Y3719D02*
X14787Y3719D01*
X16877Y3719D02*
X19123Y3719D01*
X20877Y3719D02*
X23123Y3719D01*
X24877Y3719D02*
X25475Y3719D01*
X0525Y3769D02*
X1445Y3769D01*
X3555Y3769D02*
X14737Y3769D01*
X16843Y3769D02*
X19157Y3769D01*
X20843Y3769D02*
X23157Y3769D01*
X24843Y3769D02*
X25475Y3769D01*
X0525Y3819D02*
X1445Y3819D01*
X3555Y3819D02*
X14688Y3819D01*
X16808Y3819D02*
X19192Y3819D01*
X20808Y3819D02*
X23192Y3819D01*
X24808Y3819D02*
X25475Y3819D01*
X0525Y3868D02*
X1445Y3868D01*
X3555Y3868D02*
X14638Y3868D01*
X16774Y3868D02*
X19226Y3868D01*
X20774Y3868D02*
X23226Y3868D01*
X24774Y3868D02*
X25475Y3868D01*
X0525Y3918D02*
X1700Y3918D01*
X3300Y3918D02*
X14589Y3918D01*
X16720Y3918D02*
X19280Y3918D01*
X20720Y3918D02*
X23280Y3918D01*
X24720Y3918D02*
X25475Y3918D01*
X0525Y3967D02*
X1700Y3967D01*
X3300Y3967D02*
X14539Y3967D01*
X16664Y3967D02*
X19336Y3967D01*
X20664Y3967D02*
X23336Y3967D01*
X23825Y3967D02*
X24175Y3967D01*
X24664Y3967D02*
X25475Y3967D01*
X0525Y4017D02*
X1700Y4017D01*
X3300Y4017D02*
X14489Y4017D01*
X16609Y4017D02*
X19391Y4017D01*
X20609Y4017D02*
X23391Y4017D01*
X23825Y4017D02*
X24175Y4017D01*
X24609Y4017D02*
X25475Y4017D01*
X0525Y4066D02*
X1445Y4066D01*
X3555Y4066D02*
X14440Y4066D01*
X16530Y4066D02*
X19470Y4066D01*
X20530Y4066D02*
X23470Y4066D01*
X23825Y4066D02*
X24175Y4066D01*
X24530Y4066D02*
X25475Y4066D01*
X0525Y4116D02*
X1445Y4116D01*
X3555Y4116D02*
X14390Y4116D01*
X16436Y4116D02*
X19564Y4116D01*
X20436Y4116D02*
X23564Y4116D01*
X23825Y4116D02*
X24175Y4116D01*
X24436Y4116D02*
X25475Y4116D01*
X0525Y4165D02*
X1445Y4165D01*
X3555Y4165D02*
X14341Y4165D01*
X16315Y4165D02*
X19685Y4165D01*
X20315Y4165D02*
X23685Y4165D01*
X23825Y4165D02*
X24175Y4165D01*
X24315Y4165D02*
X25475Y4165D01*
X0525Y4215D02*
X1445Y4215D01*
X3555Y4215D02*
X14291Y4215D01*
X15659Y4215D02*
X25475Y4215D01*
X0525Y4264D02*
X1445Y4264D01*
X3555Y4264D02*
X14242Y4264D01*
X15610Y4264D02*
X25475Y4264D01*
X0525Y4314D02*
X1445Y4314D01*
X3555Y4314D02*
X14192Y4314D01*
X15560Y4314D02*
X25475Y4314D01*
X0525Y4363D02*
X1445Y4363D01*
X3555Y4363D02*
X14143Y4363D01*
X15511Y4363D02*
X25475Y4363D01*
X0525Y4413D02*
X1445Y4413D01*
X3555Y4413D02*
X14093Y4413D01*
X15461Y4413D02*
X25475Y4413D01*
X0525Y4462D02*
X1445Y4462D01*
X3555Y4462D02*
X14044Y4462D01*
X15412Y4462D02*
X25475Y4462D01*
X0525Y4512D02*
X1445Y4512D01*
X3555Y4512D02*
X13994Y4512D01*
X15362Y4512D02*
X25475Y4512D01*
X0525Y4561D02*
X1445Y4561D01*
X3555Y4561D02*
X13945Y4561D01*
X15312Y4561D02*
X25475Y4561D01*
X0525Y4611D02*
X1445Y4611D01*
X3555Y4611D02*
X13895Y4611D01*
X15263Y4611D02*
X25475Y4611D01*
X0525Y4661D02*
X1445Y4661D01*
X3555Y4661D02*
X13846Y4661D01*
X15213Y4661D02*
X25475Y4661D01*
X0525Y4710D02*
X1445Y4710D01*
X3555Y4710D02*
X13796Y4710D01*
X15164Y4710D02*
X25475Y4710D01*
X0525Y4760D02*
X1445Y4760D01*
X3555Y4760D02*
X13747Y4760D01*
X15114Y4760D02*
X25475Y4760D01*
X0525Y4809D02*
X1447Y4809D01*
X2424Y4809D02*
X2576Y4809D01*
X3553Y4809D02*
X13697Y4809D01*
X15065Y4809D02*
X25475Y4809D01*
X0525Y4859D02*
X1458Y4859D01*
X2424Y4859D02*
X2576Y4859D01*
X3542Y4859D02*
X13647Y4859D01*
X15015Y4859D02*
X25475Y4859D01*
X0525Y4908D02*
X1482Y4908D01*
X2424Y4908D02*
X2576Y4908D01*
X3518Y4908D02*
X13598Y4908D01*
X14966Y4908D02*
X25475Y4908D01*
X0525Y4958D02*
X1525Y4958D01*
X2424Y4958D02*
X2576Y4958D01*
X3475Y4958D02*
X13548Y4958D01*
X14916Y4958D02*
X25475Y4958D01*
X0525Y5007D02*
X1620Y5007D01*
X2416Y5007D02*
X2584Y5007D01*
X3380Y5007D02*
X13499Y5007D01*
X14867Y5007D02*
X25475Y5007D01*
X0525Y5057D02*
X13449Y5057D01*
X14817Y5057D02*
X25475Y5057D01*
X0525Y5106D02*
X13400Y5106D01*
X14768Y5106D02*
X25475Y5106D01*
X0525Y5156D02*
X13352Y5156D01*
X14718Y5156D02*
X25475Y5156D01*
X0525Y5205D02*
X13311Y5205D01*
X14669Y5205D02*
X25475Y5205D01*
X0525Y5255D02*
X13280Y5255D01*
X14619Y5255D02*
X25475Y5255D01*
X0525Y5304D02*
X13253Y5304D01*
X14570Y5304D02*
X25475Y5304D01*
X0525Y5354D02*
X13238Y5354D01*
X14520Y5354D02*
X25475Y5354D01*
X0525Y5403D02*
X13225Y5403D01*
X14470Y5403D02*
X25475Y5403D01*
X0525Y5453D02*
X2374Y5453D01*
X2626Y5453D02*
X13220Y5453D01*
X14421Y5453D02*
X25475Y5453D01*
X0525Y5503D02*
X2172Y5503D01*
X2828Y5503D02*
X13216Y5503D01*
X14371Y5503D02*
X25475Y5503D01*
X0525Y5552D02*
X2053Y5552D01*
X2947Y5552D02*
X13216Y5552D01*
X14322Y5552D02*
X25475Y5552D01*
X0525Y5602D02*
X1959Y5602D01*
X3041Y5602D02*
X13216Y5602D01*
X14272Y5602D02*
X25475Y5602D01*
X0525Y5651D02*
X1879Y5651D01*
X3121Y5651D02*
X13216Y5651D01*
X14223Y5651D02*
X25475Y5651D01*
X0525Y5701D02*
X1823Y5701D01*
X3177Y5701D02*
X13216Y5701D01*
X14184Y5701D02*
X25475Y5701D01*
X0525Y5750D02*
X1767Y5750D01*
X3233Y5750D02*
X13216Y5750D01*
X14184Y5750D02*
X25475Y5750D01*
X0525Y5800D02*
X1711Y5800D01*
X3289Y5800D02*
X13216Y5800D01*
X14184Y5800D02*
X25475Y5800D01*
X0525Y5849D02*
X1677Y5849D01*
X3323Y5849D02*
X13216Y5849D01*
X14184Y5849D02*
X25475Y5849D01*
X0525Y5899D02*
X1643Y5899D01*
X3357Y5899D02*
X13216Y5899D01*
X14184Y5899D02*
X25475Y5899D01*
X0525Y5948D02*
X1608Y5948D01*
X3392Y5948D02*
X13216Y5948D01*
X14184Y5948D02*
X25475Y5948D01*
X0525Y5998D02*
X1574Y5998D01*
X3426Y5998D02*
X13216Y5998D01*
X14184Y5998D02*
X25475Y5998D01*
X0525Y6047D02*
X1552Y6047D01*
X3448Y6047D02*
X13216Y6047D01*
X14184Y6047D02*
X25475Y6047D01*
X0525Y6097D02*
X1533Y6097D01*
X3467Y6097D02*
X13216Y6097D01*
X14184Y6097D02*
X25475Y6097D01*
X0525Y6146D02*
X1514Y6146D01*
X3486Y6146D02*
X13216Y6146D01*
X14184Y6146D02*
X25475Y6146D01*
X0525Y6196D02*
X1495Y6196D01*
X3505Y6196D02*
X13216Y6196D01*
X14184Y6196D02*
X25475Y6196D01*
X0525Y6245D02*
X1477Y6245D01*
X3523Y6245D02*
X13216Y6245D01*
X14184Y6245D02*
X25475Y6245D01*
X0525Y6295D02*
X1470Y6295D01*
X3530Y6295D02*
X13216Y6295D01*
X14184Y6295D02*
X25475Y6295D01*
X0525Y6345D02*
X1464Y6345D01*
X3536Y6345D02*
X13216Y6345D01*
X14184Y6345D02*
X25475Y6345D01*
X0525Y6394D02*
X1458Y6394D01*
X3542Y6394D02*
X13216Y6394D01*
X14184Y6394D02*
X25475Y6394D01*
X0525Y6444D02*
X1452Y6444D01*
X3548Y6444D02*
X13216Y6444D01*
X14184Y6444D02*
X25475Y6444D01*
X0525Y6493D02*
X1446Y6493D01*
X3554Y6493D02*
X13216Y6493D01*
X14184Y6493D02*
X25475Y6493D01*
X0525Y6543D02*
X1450Y6543D01*
X3550Y6543D02*
X13216Y6543D01*
X14184Y6543D02*
X25475Y6543D01*
X0525Y6592D02*
X1456Y6592D01*
X3544Y6592D02*
X13216Y6592D01*
X14184Y6592D02*
X25475Y6592D01*
X0525Y6642D02*
X1462Y6642D01*
X3538Y6642D02*
X13216Y6642D01*
X14184Y6642D02*
X25475Y6642D01*
X0525Y6691D02*
X1468Y6691D01*
X3532Y6691D02*
X13216Y6691D01*
X14184Y6691D02*
X25475Y6691D01*
X0525Y6741D02*
X1474Y6741D01*
X3526Y6741D02*
X13216Y6741D01*
X14184Y6741D02*
X25475Y6741D01*
X0525Y6790D02*
X1490Y6790D01*
X3510Y6790D02*
X13216Y6790D01*
X14184Y6790D02*
X25475Y6790D01*
X0525Y6840D02*
X1509Y6840D01*
X3491Y6840D02*
X13216Y6840D01*
X14184Y6840D02*
X25475Y6840D01*
X0525Y6889D02*
X1528Y6889D01*
X3472Y6889D02*
X13216Y6889D01*
X14184Y6889D02*
X25475Y6889D01*
X0525Y6939D02*
X1547Y6939D01*
X3453Y6939D02*
X13216Y6939D01*
X14184Y6939D02*
X25475Y6939D01*
X0525Y6988D02*
X1565Y6988D01*
X3435Y6988D02*
X13216Y6988D01*
X14184Y6988D02*
X25475Y6988D01*
X0525Y7038D02*
X1599Y7038D01*
X3401Y7038D02*
X13216Y7038D01*
X14184Y7038D02*
X25475Y7038D01*
X0525Y7087D02*
X1633Y7087D01*
X3367Y7087D02*
X13216Y7087D01*
X14184Y7087D02*
X25475Y7087D01*
X0525Y7137D02*
X1667Y7137D01*
X3333Y7137D02*
X13216Y7137D01*
X14184Y7137D02*
X25475Y7137D01*
X0525Y7187D02*
X1702Y7187D01*
X3298Y7187D02*
X13216Y7187D01*
X14184Y7187D02*
X25475Y7187D01*
X0525Y7236D02*
X1752Y7236D01*
X3248Y7236D02*
X13216Y7236D01*
X14184Y7236D02*
X25475Y7236D01*
X0525Y7286D02*
X1808Y7286D01*
X3192Y7286D02*
X13216Y7286D01*
X14184Y7286D02*
X25475Y7286D01*
X0525Y7335D02*
X1864Y7335D01*
X3136Y7335D02*
X13216Y7335D01*
X14184Y7335D02*
X25475Y7335D01*
X0525Y7385D02*
X1932Y7385D01*
X3068Y7385D02*
X13216Y7385D01*
X14184Y7385D02*
X25475Y7385D01*
X0525Y7434D02*
X2027Y7434D01*
X2973Y7434D02*
X13216Y7434D01*
X14184Y7434D02*
X25475Y7434D01*
X0525Y7484D02*
X2121Y7484D01*
X2879Y7484D02*
X13216Y7484D01*
X14184Y7484D02*
X25475Y7484D01*
X0525Y7533D02*
X2317Y7533D01*
X2683Y7533D02*
X13216Y7533D01*
X14184Y7533D02*
X25475Y7533D01*
X0525Y7583D02*
X13216Y7583D01*
X14184Y7583D02*
X25475Y7583D01*
X0525Y7632D02*
X13216Y7632D01*
X14184Y7632D02*
X25475Y7632D01*
X0525Y7682D02*
X13216Y7682D01*
X14184Y7682D02*
X25475Y7682D01*
X0525Y7731D02*
X13216Y7731D01*
X14184Y7731D02*
X25475Y7731D01*
X0525Y7781D02*
X13216Y7781D01*
X14184Y7781D02*
X25475Y7781D01*
X0525Y7830D02*
X13216Y7830D01*
X14184Y7830D02*
X25475Y7830D01*
X0525Y7880D02*
X13216Y7880D01*
X14184Y7880D02*
X25475Y7880D01*
X0525Y7929D02*
X13216Y7929D01*
X14184Y7929D02*
X25475Y7929D01*
X0525Y7979D02*
X13216Y7979D01*
X14184Y7979D02*
X25475Y7979D01*
X0525Y8029D02*
X2228Y8029D01*
X2772Y8029D02*
X13216Y8029D01*
X14184Y8029D02*
X25475Y8029D01*
X0525Y8078D02*
X2080Y8078D01*
X2920Y8078D02*
X13216Y8078D01*
X14184Y8078D02*
X25475Y8078D01*
X0525Y8128D02*
X1985Y8128D01*
X3015Y8128D02*
X13216Y8128D01*
X14184Y8128D02*
X25475Y8128D01*
X0525Y8177D02*
X1895Y8177D01*
X3105Y8177D02*
X13216Y8177D01*
X14184Y8177D02*
X25475Y8177D01*
X0525Y8227D02*
X1839Y8227D01*
X3161Y8227D02*
X13216Y8227D01*
X14184Y8227D02*
X25475Y8227D01*
X0525Y8276D02*
X1783Y8276D01*
X3217Y8276D02*
X13216Y8276D01*
X14184Y8276D02*
X25475Y8276D01*
X0525Y8326D02*
X1727Y8326D01*
X3273Y8326D02*
X13216Y8326D01*
X14184Y8326D02*
X25475Y8326D01*
X0525Y8375D02*
X1687Y8375D01*
X3313Y8375D02*
X13216Y8375D01*
X14184Y8375D02*
X25475Y8375D01*
X0525Y8425D02*
X1652Y8425D01*
X3348Y8425D02*
X13216Y8425D01*
X14184Y8425D02*
X25475Y8425D01*
X0525Y8474D02*
X1618Y8474D01*
X3382Y8474D02*
X13216Y8474D01*
X14184Y8474D02*
X25475Y8474D01*
X0525Y8524D02*
X1584Y8524D01*
X3416Y8524D02*
X13216Y8524D01*
X14184Y8524D02*
X25475Y8524D01*
X0525Y8573D02*
X1557Y8573D01*
X3443Y8573D02*
X13216Y8573D01*
X14184Y8573D02*
X25475Y8573D01*
X0525Y8623D02*
X1538Y8623D01*
X3462Y8623D02*
X13216Y8623D01*
X14184Y8623D02*
X25475Y8623D01*
X0525Y8672D02*
X1520Y8672D01*
X3480Y8672D02*
X13216Y8672D01*
X14184Y8672D02*
X25475Y8672D01*
X0525Y8722D02*
X1501Y8722D01*
X3499Y8722D02*
X13216Y8722D01*
X14184Y8722D02*
X25475Y8722D01*
X0525Y8772D02*
X1482Y8772D01*
X3518Y8772D02*
X13216Y8772D01*
X14184Y8772D02*
X25475Y8772D01*
X0525Y8821D02*
X1472Y8821D01*
X3528Y8821D02*
X13216Y8821D01*
X14184Y8821D02*
X25475Y8821D01*
X0525Y8871D02*
X1466Y8871D01*
X3534Y8871D02*
X13216Y8871D01*
X14184Y8871D02*
X25475Y8871D01*
X0525Y8920D02*
X1460Y8920D01*
X3540Y8920D02*
X13216Y8920D01*
X14184Y8920D02*
X25475Y8920D01*
X0525Y8970D02*
X1454Y8970D01*
X3546Y8970D02*
X13216Y8970D01*
X14184Y8970D02*
X25475Y8970D01*
X0525Y9019D02*
X1448Y9019D01*
X3552Y9019D02*
X13216Y9019D01*
X14184Y9019D02*
X25475Y9019D01*
X0525Y9069D02*
X1449Y9069D01*
X3551Y9069D02*
X13216Y9069D01*
X14184Y9069D02*
X25475Y9069D01*
X0525Y9118D02*
X1455Y9118D01*
X3545Y9118D02*
X13216Y9118D01*
X14184Y9118D02*
X25475Y9118D01*
X0525Y9168D02*
X1461Y9168D01*
X3539Y9168D02*
X13216Y9168D01*
X14184Y9168D02*
X25475Y9168D01*
X0525Y9217D02*
X1467Y9217D01*
X3533Y9217D02*
X13216Y9217D01*
X14184Y9217D02*
X25475Y9217D01*
X0525Y9267D02*
X1473Y9267D01*
X3527Y9267D02*
X13216Y9267D01*
X14184Y9267D02*
X25475Y9267D01*
X0525Y9316D02*
X1485Y9316D01*
X3515Y9316D02*
X13216Y9316D01*
X14184Y9316D02*
X25475Y9316D01*
X0525Y9366D02*
X1504Y9366D01*
X3496Y9366D02*
X13216Y9366D01*
X14184Y9366D02*
X25475Y9366D01*
X0525Y9415D02*
X1523Y9415D01*
X3477Y9415D02*
X13216Y9415D01*
X14184Y9415D02*
X25475Y9415D01*
X0525Y9465D02*
X1541Y9465D01*
X3459Y9465D02*
X13216Y9465D01*
X14184Y9465D02*
X25475Y9465D01*
X0525Y9514D02*
X1560Y9514D01*
X3440Y9514D02*
X13216Y9514D01*
X14184Y9514D02*
X25475Y9514D01*
X0525Y9564D02*
X1589Y9564D01*
X3411Y9564D02*
X13216Y9564D01*
X14184Y9564D02*
X25475Y9564D01*
X0525Y9614D02*
X1624Y9614D01*
X3376Y9614D02*
X13216Y9614D01*
X14184Y9614D02*
X25475Y9614D01*
X0525Y9663D02*
X1658Y9663D01*
X3342Y9663D02*
X13216Y9663D01*
X14184Y9663D02*
X25475Y9663D01*
X0525Y9713D02*
X1692Y9713D01*
X3308Y9713D02*
X13216Y9713D01*
X14184Y9713D02*
X25475Y9713D01*
X0525Y9762D02*
X1736Y9762D01*
X3264Y9762D02*
X13216Y9762D01*
X14184Y9762D02*
X25475Y9762D01*
X0525Y9812D02*
X1792Y9812D01*
X3208Y9812D02*
X13216Y9812D01*
X14184Y9812D02*
X15779Y9812D01*
X16221Y9812D02*
X19779Y9812D01*
X20221Y9812D02*
X23779Y9812D01*
X24221Y9812D02*
X25475Y9812D01*
X0525Y9861D02*
X1848Y9861D01*
X3152Y9861D02*
X13197Y9861D01*
X14203Y9861D02*
X15608Y9861D01*
X16392Y9861D02*
X19608Y9861D01*
X20392Y9861D02*
X23608Y9861D01*
X24392Y9861D02*
X25475Y9861D01*
X0525Y9911D02*
X1906Y9911D01*
X3094Y9911D02*
X13176Y9911D01*
X14224Y9911D02*
X15514Y9911D01*
X16486Y9911D02*
X19514Y9911D01*
X20486Y9911D02*
X23514Y9911D01*
X24486Y9911D02*
X25475Y9911D01*
X0525Y9960D02*
X2000Y9960D01*
X3000Y9960D02*
X13157Y9960D01*
X14243Y9960D02*
X15419Y9960D01*
X16581Y9960D02*
X19419Y9960D01*
X20581Y9960D02*
X23419Y9960D01*
X24581Y9960D02*
X25475Y9960D01*
X0525Y10010D02*
X2095Y10010D01*
X2905Y10010D02*
X13141Y10010D01*
X14259Y10010D02*
X15362Y10010D01*
X16638Y10010D02*
X19362Y10010D01*
X20638Y10010D02*
X23362Y10010D01*
X24638Y10010D02*
X25475Y10010D01*
X0525Y10059D02*
X2260Y10059D01*
X2740Y10059D02*
X13135Y10059D01*
X14265Y10059D02*
X15306Y10059D01*
X16694Y10059D02*
X19306Y10059D01*
X20694Y10059D02*
X23306Y10059D01*
X24694Y10059D02*
X25475Y10059D01*
X0525Y10109D02*
X13129Y10109D01*
X14271Y10109D02*
X15250Y10109D01*
X16750Y10109D02*
X19250Y10109D01*
X20750Y10109D02*
X23250Y10109D01*
X24750Y10109D02*
X25475Y10109D01*
X0525Y10158D02*
X13129Y10158D01*
X14271Y10158D02*
X15208Y10158D01*
X16792Y10158D02*
X19208Y10158D01*
X20792Y10158D02*
X23208Y10158D01*
X24792Y10158D02*
X25475Y10158D01*
X0525Y10208D02*
X13135Y10208D01*
X14265Y10208D02*
X15173Y10208D01*
X16827Y10208D02*
X19173Y10208D01*
X20827Y10208D02*
X23173Y10208D01*
X24827Y10208D02*
X25475Y10208D01*
X0525Y10257D02*
X13141Y10257D01*
X14259Y10257D02*
X15139Y10257D01*
X16861Y10257D02*
X19139Y10257D01*
X20861Y10257D02*
X23139Y10257D01*
X24861Y10257D02*
X25475Y10257D01*
X0525Y10307D02*
X13156Y10307D01*
X14244Y10307D02*
X15105Y10307D01*
X16895Y10307D02*
X19105Y10307D01*
X20895Y10307D02*
X23105Y10307D01*
X24895Y10307D02*
X25475Y10307D01*
X0525Y10356D02*
X13175Y10356D01*
X14225Y10356D02*
X15079Y10356D01*
X16921Y10356D02*
X19079Y10356D01*
X20921Y10356D02*
X23079Y10356D01*
X24921Y10356D02*
X25475Y10356D01*
X0525Y10406D02*
X13195Y10406D01*
X14205Y10406D02*
X15060Y10406D01*
X16940Y10406D02*
X19060Y10406D01*
X20940Y10406D02*
X23060Y10406D01*
X24940Y10406D02*
X25475Y10406D01*
X0525Y10456D02*
X13229Y10456D01*
X14171Y10456D02*
X15041Y10456D01*
X16959Y10456D02*
X19041Y10456D01*
X20959Y10456D02*
X23041Y10456D01*
X24959Y10456D02*
X25475Y10456D01*
X0525Y10505D02*
X13263Y10505D01*
X14137Y10505D02*
X15022Y10505D01*
X16978Y10505D02*
X19022Y10505D01*
X20978Y10505D02*
X23022Y10505D01*
X24978Y10505D02*
X25475Y10505D01*
X0525Y10555D02*
X13314Y10555D01*
X14086Y10555D02*
X15004Y10555D01*
X16996Y10555D02*
X19004Y10555D01*
X20996Y10555D02*
X23004Y10555D01*
X24996Y10555D02*
X25475Y10555D01*
X0525Y10604D02*
X13370Y10604D01*
X14030Y10604D02*
X14995Y10604D01*
X17005Y10604D02*
X18995Y10604D01*
X21005Y10604D02*
X22995Y10604D01*
X25005Y10604D02*
X25475Y10604D01*
X0525Y10654D02*
X13462Y10654D01*
X13938Y10654D02*
X14989Y10654D01*
X17011Y10654D02*
X18989Y10654D01*
X21011Y10654D02*
X22989Y10654D01*
X25011Y10654D02*
X25475Y10654D01*
X0525Y10703D02*
X13624Y10703D01*
X13776Y10703D02*
X14983Y10703D01*
X17017Y10703D02*
X18983Y10703D01*
X21017Y10703D02*
X22983Y10703D01*
X25017Y10703D02*
X25475Y10703D01*
X0525Y10753D02*
X14977Y10753D01*
X17023Y10753D02*
X18977Y10753D01*
X21023Y10753D02*
X22977Y10753D01*
X25023Y10753D02*
X25475Y10753D01*
X0525Y10802D02*
X14971Y10802D01*
X17029Y10802D02*
X18971Y10802D01*
X21029Y10802D02*
X22971Y10802D01*
X25029Y10802D02*
X25475Y10802D01*
X0525Y10852D02*
X14975Y10852D01*
X17025Y10852D02*
X18975Y10852D01*
X21025Y10852D02*
X22975Y10852D01*
X25025Y10852D02*
X25475Y10852D01*
X0525Y10901D02*
X14981Y10901D01*
X17019Y10901D02*
X18981Y10901D01*
X21019Y10901D02*
X22981Y10901D01*
X25019Y10901D02*
X25475Y10901D01*
X0525Y10951D02*
X14987Y10951D01*
X17013Y10951D02*
X18987Y10951D01*
X21013Y10951D02*
X22987Y10951D01*
X25013Y10951D02*
X25475Y10951D01*
X0525Y11000D02*
X14993Y11000D01*
X17007Y11000D02*
X18993Y11000D01*
X21007Y11000D02*
X22993Y11000D01*
X25007Y11000D02*
X25475Y11000D01*
X0525Y11050D02*
X14999Y11050D01*
X17001Y11050D02*
X18999Y11050D01*
X21001Y11050D02*
X22999Y11050D01*
X25001Y11050D02*
X25475Y11050D01*
X0525Y11099D02*
X15016Y11099D01*
X16984Y11099D02*
X19016Y11099D01*
X20984Y11099D02*
X23016Y11099D01*
X24984Y11099D02*
X25475Y11099D01*
X0525Y11149D02*
X15035Y11149D01*
X16965Y11149D02*
X19035Y11149D01*
X20965Y11149D02*
X23035Y11149D01*
X24965Y11149D02*
X25475Y11149D01*
X0525Y11198D02*
X15054Y11198D01*
X16946Y11198D02*
X19054Y11198D01*
X20946Y11198D02*
X23054Y11198D01*
X24946Y11198D02*
X25475Y11198D01*
X0525Y11248D02*
X15073Y11248D01*
X16927Y11248D02*
X19073Y11248D01*
X20927Y11248D02*
X23073Y11248D01*
X24927Y11248D02*
X25475Y11248D01*
X0525Y11298D02*
X15094Y11298D01*
X16906Y11298D02*
X19094Y11298D01*
X20906Y11298D02*
X23094Y11298D01*
X24906Y11298D02*
X25475Y11298D01*
X0525Y11347D02*
X15129Y11347D01*
X16871Y11347D02*
X19129Y11347D01*
X20871Y11347D02*
X23129Y11347D01*
X24871Y11347D02*
X25475Y11347D01*
X0525Y11397D02*
X15163Y11397D01*
X16837Y11397D02*
X19163Y11397D01*
X20837Y11397D02*
X23163Y11397D01*
X24837Y11397D02*
X25475Y11397D01*
X0525Y11446D02*
X15197Y11446D01*
X16803Y11446D02*
X19197Y11446D01*
X20803Y11446D02*
X23197Y11446D01*
X24803Y11446D02*
X25475Y11446D01*
X0525Y11496D02*
X15232Y11496D01*
X16768Y11496D02*
X19232Y11496D01*
X20768Y11496D02*
X23232Y11496D01*
X24768Y11496D02*
X25475Y11496D01*
X0525Y11545D02*
X15288Y11545D01*
X16712Y11545D02*
X19288Y11545D01*
X20712Y11545D02*
X23288Y11545D01*
X24712Y11545D02*
X25475Y11545D01*
X0525Y11595D02*
X15344Y11595D01*
X16656Y11595D02*
X19344Y11595D01*
X20656Y11595D02*
X23344Y11595D01*
X24656Y11595D02*
X25475Y11595D01*
X0525Y11644D02*
X15400Y11644D01*
X16600Y11644D02*
X19400Y11644D01*
X20600Y11644D02*
X23400Y11644D01*
X24600Y11644D02*
X25475Y11644D01*
X0525Y11694D02*
X15484Y11694D01*
X16516Y11694D02*
X19484Y11694D01*
X20516Y11694D02*
X23484Y11694D01*
X24516Y11694D02*
X25475Y11694D01*
X0525Y11743D02*
X15579Y11743D01*
X16421Y11743D02*
X19579Y11743D01*
X20421Y11743D02*
X23579Y11743D01*
X24421Y11743D02*
X25475Y11743D01*
X0525Y11793D02*
X15716Y11793D01*
X16284Y11793D02*
X19716Y11793D01*
X20284Y11793D02*
X23716Y11793D01*
X24284Y11793D02*
X25475Y11793D01*
X0525Y11842D02*
X25475Y11842D01*
X0525Y11892D02*
X25475Y11892D01*
X0525Y11941D02*
X25475Y11941D01*
X0525Y11991D02*
X25475Y11991D01*
X0525Y12040D02*
X25475Y12040D01*
X0525Y12090D02*
X25475Y12090D01*
X0525Y12140D02*
X25475Y12140D01*
X0525Y12189D02*
X25475Y12189D01*
X0525Y12239D02*
X25475Y12239D01*
X0525Y12288D02*
X25475Y12288D01*
X0525Y12338D02*
X25475Y12338D01*
X0525Y12387D02*
X25475Y12387D01*
X0525Y12437D02*
X25475Y12437D01*
%LNbottom copper_traces*%
D11*
X13700Y5490D02*
X16000Y3190D01*
X13700Y10135D02*
X13700Y5490D01*
D12*
X9000Y8000D03*
X9500Y10500D03*
X10500Y4500D03*
X18000Y2000D03*
X13700Y10135D03*
X7500Y4500D03*
X18000Y12000D03*
X22000Y12000D03*
X22000Y2000D03*
%LNbottom copper component a066cc7197085cd5*%
D13*
X20000Y3190D03*
X20000Y10810D03*
%LNbottom copper component befe0c62168db060*%
D14*
X24000Y10810D03*
X24000Y3190D03*
%LNbottom copper component 5f10c96b5cad9d4e*%
X16000Y10810D03*
X16000Y3190D03*
%LNbottom copper component 8c2b338affb525d5*%
D15*
X2500Y6500D03*
X2500Y9040D03*
D16*
X2500Y3960D03*
M02*