%FSLAX33Y33*%
%MOMM*%
%LNbottom silkscreen_traces*%
%LNtext*%
G36*
G01*
X23438Y7431D02*
X23299Y7443D01*
X23289Y7396D01*
X23274Y7354D01*
X23253Y7320D01*
X23228Y7291D01*
X23198Y7269D01*
X23166Y7253D01*
X23131Y7243D01*
X23093Y7240D01*
X23047Y7245D01*
X23005Y7258D01*
X22966Y7280D01*
X22932Y7312D01*
X22903Y7351D01*
X22882Y7395D01*
X22870Y7446D01*
X22866Y7502D01*
X22870Y7556D01*
X22882Y7603D01*
X22901Y7645D01*
X22929Y7680D01*
X22963Y7709D01*
X23002Y7729D01*
X23046Y7741D01*
X23095Y7745D01*
X23126Y7744D01*
X23156Y7738D01*
X23184Y7729D01*
X23210Y7717D01*
X23234Y7701D01*
X23256Y7683D01*
X23275Y7663D01*
X23291Y7641D01*
X23414Y7658D01*
X23310Y8209D01*
X22776Y8209D01*
X22776Y8083D01*
X23205Y8083D01*
X23263Y7795D01*
X23214Y7824D01*
X23164Y7845D01*
X23112Y7858D01*
X23060Y7862D01*
X22992Y7856D01*
X22930Y7838D01*
X22874Y7807D01*
X22823Y7765D01*
X22780Y7712D01*
X22750Y7653D01*
X22732Y7587D01*
X22726Y7514D01*
X22731Y7444D01*
X22747Y7378D01*
X22774Y7318D01*
X22811Y7262D01*
X22867Y7205D01*
X22933Y7164D01*
X23008Y7140D01*
X23093Y7132D01*
X23163Y7137D01*
X23226Y7152D01*
X23282Y7178D01*
X23332Y7214D01*
X23373Y7258D01*
X23405Y7309D01*
X23426Y7367D01*
X23438Y7431D01*
X23438Y7431D01*
X22604Y7431D02*
X22465Y7443D01*
X22455Y7396D01*
X22440Y7354D01*
X22419Y7320D01*
X22394Y7291D01*
X22364Y7269D01*
X22332Y7253D01*
X22297Y7243D01*
X22259Y7240D01*
X22213Y7245D01*
X22171Y7258D01*
X22132Y7280D01*
X22097Y7312D01*
X22069Y7351D01*
X22048Y7395D01*
X22036Y7446D01*
X22031Y7502D01*
X22035Y7556D01*
X22047Y7603D01*
X22067Y7645D01*
X22095Y7680D01*
X22129Y7709D01*
X22168Y7729D01*
X22212Y7741D01*
X22261Y7745D01*
X22292Y7744D01*
X22321Y7738D01*
X22349Y7729D01*
X22376Y7717D01*
X22400Y7701D01*
X22421Y7683D01*
X22440Y7663D01*
X22456Y7641D01*
X22580Y7658D01*
X22476Y8209D01*
X21942Y8209D01*
X21942Y8083D01*
X22371Y8083D01*
X22428Y7795D01*
X22380Y7824D01*
X22329Y7845D01*
X22278Y7858D01*
X22226Y7862D01*
X22158Y7856D01*
X22096Y7838D01*
X22039Y7807D01*
X21988Y7765D01*
X21946Y7712D01*
X21916Y7653D01*
X21898Y7587D01*
X21892Y7514D01*
X21897Y7444D01*
X21913Y7378D01*
X21939Y7318D01*
X21977Y7262D01*
X22033Y7205D01*
X22099Y7164D01*
X22174Y7140D01*
X22259Y7132D01*
X22328Y7137D01*
X22392Y7152D01*
X22448Y7178D01*
X22498Y7214D01*
X22539Y7258D01*
X22570Y7309D01*
X22592Y7367D01*
X22604Y7431D01*
X22604Y7431D01*
X21769Y7431D02*
X21631Y7443D01*
X21621Y7396D01*
X21605Y7354D01*
X21585Y7320D01*
X21559Y7291D01*
X21530Y7269D01*
X21498Y7253D01*
X21462Y7243D01*
X21424Y7240D01*
X21379Y7245D01*
X21336Y7258D01*
X21298Y7280D01*
X21263Y7312D01*
X21234Y7351D01*
X21214Y7395D01*
X21201Y7446D01*
X21197Y7502D01*
X21201Y7556D01*
X21213Y7603D01*
X21233Y7645D01*
X21261Y7680D01*
X21295Y7709D01*
X21334Y7729D01*
X21378Y7741D01*
X21426Y7745D01*
X21458Y7744D01*
X21487Y7738D01*
X21515Y7729D01*
X21541Y7717D01*
X21566Y7701D01*
X21587Y7683D01*
X21606Y7663D01*
X21622Y7641D01*
X21746Y7658D01*
X21642Y8209D01*
X21108Y8209D01*
X21108Y8083D01*
X21536Y8083D01*
X21594Y7795D01*
X21545Y7824D01*
X21495Y7845D01*
X21444Y7858D01*
X21391Y7862D01*
X21324Y7856D01*
X21262Y7838D01*
X21205Y7807D01*
X21154Y7765D01*
X21112Y7712D01*
X21082Y7653D01*
X21063Y7587D01*
X21057Y7514D01*
X21063Y7444D01*
X21079Y7378D01*
X21105Y7318D01*
X21142Y7262D01*
X21199Y7205D01*
X21264Y7164D01*
X21340Y7140D01*
X21424Y7132D01*
X21494Y7137D01*
X21557Y7152D01*
X21614Y7178D01*
X21663Y7214D01*
X21705Y7258D01*
X21736Y7309D01*
X21758Y7367D01*
X21769Y7431D01*
X21769Y7431D01*
X19974Y7246D02*
X20010Y7217D01*
X20016Y7214D01*
X20066Y7287D01*
X20042Y7308D01*
X20022Y7333D01*
X20006Y7360D01*
X19997Y7385D01*
X19990Y7416D01*
X19986Y7451D01*
X19985Y7492D01*
X19985Y7540D01*
X19985Y7540D01*
X20025Y7526D01*
X20075Y7513D01*
X20133Y7501D01*
X20200Y7491D01*
X20238Y7485D01*
X20270Y7478D01*
X20296Y7471D01*
X20315Y7464D01*
X20331Y7456D01*
X20345Y7446D01*
X20357Y7435D01*
X20367Y7421D01*
X20375Y7407D01*
X20381Y7392D01*
X20385Y7376D01*
X20386Y7359D01*
X20383Y7333D01*
X20376Y7310D01*
X20363Y7290D01*
X20346Y7271D01*
X20324Y7255D01*
X20297Y7244D01*
X20265Y7238D01*
X20229Y7236D01*
X20192Y7238D01*
X20157Y7244D01*
X20124Y7254D01*
X20093Y7269D01*
X20066Y7287D01*
X20016Y7214D01*
X20046Y7193D01*
X20081Y7173D01*
X20115Y7158D01*
X20150Y7147D01*
X20185Y7139D01*
X20222Y7134D01*
X20260Y7132D01*
X20321Y7136D01*
X20374Y7148D01*
X20419Y7168D01*
X20457Y7195D01*
X20488Y7229D01*
X20509Y7266D01*
X20522Y7309D01*
X20526Y7355D01*
X20525Y7383D01*
X20520Y7410D01*
X20512Y7435D01*
X20500Y7459D01*
X20486Y7482D01*
X20470Y7502D01*
X20452Y7520D01*
X20432Y7535D01*
X20411Y7549D01*
X20387Y7560D01*
X20363Y7570D01*
X20337Y7578D01*
X20316Y7584D01*
X20289Y7589D01*
X20257Y7593D01*
X20220Y7598D01*
X20146Y7608D01*
X20082Y7619D01*
X20028Y7631D01*
X19985Y7644D01*
X19985Y7656D01*
X19985Y7666D01*
X19984Y7673D01*
X19984Y7678D01*
X19987Y7715D01*
X19994Y7747D01*
X20005Y7772D01*
X20022Y7792D01*
X20050Y7811D01*
X20085Y7825D01*
X20125Y7833D01*
X20172Y7836D01*
X20215Y7834D01*
X20253Y7828D01*
X20284Y7818D01*
X20309Y7804D01*
X20330Y7784D01*
X20348Y7759D01*
X20363Y7727D01*
X20375Y7688D01*
X20504Y7706D01*
X20493Y7745D01*
X20480Y7781D01*
X20465Y7812D01*
X20446Y7840D01*
X20423Y7864D01*
X20397Y7885D01*
X20365Y7903D01*
X20329Y7918D01*
X20290Y7930D01*
X20247Y7939D01*
X20201Y7944D01*
X20153Y7945D01*
X20105Y7944D01*
X20063Y7940D01*
X20024Y7932D01*
X19991Y7922D01*
X19962Y7909D01*
X19937Y7896D01*
X19916Y7880D01*
X19899Y7863D01*
X19886Y7844D01*
X19874Y7823D01*
X19865Y7799D01*
X19858Y7773D01*
X19855Y7753D01*
X19853Y7726D01*
X19852Y7692D01*
X19852Y7652D01*
X19852Y7476D01*
X19851Y7392D01*
X19850Y7326D01*
X19847Y7276D01*
X19843Y7243D01*
X19838Y7219D01*
X19831Y7196D01*
X19821Y7173D01*
X19810Y7150D01*
X19948Y7150D01*
X19957Y7171D01*
X19965Y7194D01*
X19970Y7219D01*
X19974Y7246D01*
X19974Y7246D01*
X19700Y7382D02*
X19570Y7403D01*
X19562Y7366D01*
X19549Y7333D01*
X19531Y7306D01*
X19509Y7283D01*
X19481Y7264D01*
X19448Y7251D01*
X19411Y7243D01*
X19368Y7241D01*
X19326Y7243D01*
X19289Y7250D01*
X19259Y7262D01*
X19234Y7278D01*
X19214Y7297D01*
X19201Y7318D01*
X19192Y7340D01*
X19190Y7365D01*
X19192Y7386D01*
X19199Y7405D01*
X19211Y7421D01*
X19228Y7435D01*
X19247Y7444D01*
X19276Y7455D01*
X19314Y7467D01*
X19363Y7480D01*
X19430Y7497D01*
X19486Y7514D01*
X19531Y7529D01*
X19564Y7543D01*
X19591Y7558D01*
X19614Y7575D01*
X19633Y7595D01*
X19649Y7617D01*
X19662Y7641D01*
X19671Y7667D01*
X19676Y7693D01*
X19678Y7721D01*
X19677Y7747D01*
X19672Y7771D01*
X19665Y7795D01*
X19654Y7818D01*
X19641Y7839D01*
X19626Y7858D01*
X19609Y7876D01*
X19590Y7891D01*
X19573Y7902D01*
X19553Y7912D01*
X19531Y7921D01*
X19506Y7930D01*
X19479Y7937D01*
X19451Y7941D01*
X19422Y7944D01*
X19392Y7945D01*
X19347Y7944D01*
X19306Y7939D01*
X19267Y7931D01*
X19231Y7919D01*
X19199Y7905D01*
X19171Y7888D01*
X19148Y7869D01*
X19129Y7848D01*
X19114Y7823D01*
X19101Y7795D01*
X19091Y7763D01*
X19083Y7727D01*
X19212Y7710D01*
X19219Y7738D01*
X19229Y7763D01*
X19244Y7785D01*
X19263Y7803D01*
X19287Y7818D01*
X19314Y7829D01*
X19346Y7835D01*
X19382Y7837D01*
X19424Y7835D01*
X19460Y7830D01*
X19489Y7820D01*
X19512Y7807D01*
X19529Y7791D01*
X19541Y7774D01*
X19548Y7756D01*
X19551Y7737D01*
X19550Y7724D01*
X19547Y7712D01*
X19542Y7701D01*
X19535Y7691D01*
X19525Y7680D01*
X19514Y7671D01*
X19500Y7663D01*
X19484Y7655D01*
X19469Y7651D01*
X19445Y7643D01*
X19411Y7634D01*
X19368Y7622D01*
X19303Y7604D01*
X19249Y7588D01*
X19205Y7573D01*
X19172Y7561D01*
X19146Y7547D01*
X19123Y7531D01*
X19103Y7513D01*
X19086Y7491D01*
X19072Y7467D01*
X19062Y7440D01*
X19056Y7411D01*
X19054Y7379D01*
X19057Y7346D01*
X19064Y7315D01*
X19076Y7284D01*
X19093Y7254D01*
X19114Y7227D01*
X19140Y7203D01*
X19169Y7182D01*
X19204Y7164D01*
X19241Y7150D01*
X19281Y7140D01*
X19323Y7134D01*
X19368Y7132D01*
X19439Y7136D01*
X19501Y7148D01*
X19554Y7168D01*
X19599Y7195D01*
X19635Y7231D01*
X19664Y7274D01*
X19686Y7324D01*
X19700Y7382D01*
X19700Y7382D01*
X18610Y7268D02*
X18590Y7151D01*
X18618Y7146D01*
X18643Y7143D01*
X18667Y7140D01*
X18690Y7140D01*
X18724Y7141D01*
X18754Y7145D01*
X18780Y7153D01*
X18801Y7162D01*
X18820Y7175D01*
X18835Y7189D01*
X18848Y7205D01*
X18857Y7222D01*
X18864Y7246D01*
X18869Y7280D01*
X18872Y7324D01*
X18873Y7378D01*
X18873Y7825D01*
X18970Y7825D01*
X18970Y7928D01*
X18873Y7928D01*
X18873Y8120D01*
X18742Y8200D01*
X18742Y7928D01*
X18610Y7928D01*
X18610Y7825D01*
X18742Y7825D01*
X18742Y7370D01*
X18742Y7345D01*
X18740Y7324D01*
X18738Y7309D01*
X18735Y7298D01*
X18731Y7290D01*
X18726Y7283D01*
X18720Y7277D01*
X18712Y7272D01*
X18704Y7268D01*
X18693Y7265D01*
X18681Y7263D01*
X18667Y7263D01*
X18656Y7263D01*
X18642Y7264D01*
X18627Y7266D01*
X18610Y7268D01*
X18610Y7268D01*
X17973Y7246D02*
X18009Y7217D01*
X18015Y7214D01*
X18065Y7287D01*
X18041Y7308D01*
X18021Y7333D01*
X18005Y7360D01*
X17996Y7385D01*
X17989Y7416D01*
X17985Y7451D01*
X17984Y7492D01*
X17984Y7540D01*
X17984Y7540D01*
X18024Y7526D01*
X18074Y7513D01*
X18132Y7501D01*
X18199Y7491D01*
X18237Y7485D01*
X18269Y7478D01*
X18295Y7471D01*
X18314Y7464D01*
X18330Y7456D01*
X18344Y7446D01*
X18356Y7435D01*
X18366Y7421D01*
X18374Y7407D01*
X18380Y7392D01*
X18384Y7376D01*
X18385Y7359D01*
X18382Y7333D01*
X18375Y7310D01*
X18362Y7290D01*
X18345Y7271D01*
X18323Y7255D01*
X18296Y7244D01*
X18264Y7238D01*
X18228Y7236D01*
X18191Y7238D01*
X18156Y7244D01*
X18123Y7254D01*
X18092Y7269D01*
X18065Y7287D01*
X18015Y7214D01*
X18045Y7193D01*
X18080Y7173D01*
X18114Y7158D01*
X18149Y7147D01*
X18184Y7139D01*
X18221Y7134D01*
X18259Y7132D01*
X18320Y7136D01*
X18373Y7148D01*
X18418Y7168D01*
X18456Y7195D01*
X18487Y7229D01*
X18508Y7266D01*
X18521Y7309D01*
X18525Y7355D01*
X18524Y7383D01*
X18519Y7410D01*
X18511Y7435D01*
X18499Y7459D01*
X18485Y7482D01*
X18469Y7502D01*
X18451Y7520D01*
X18431Y7535D01*
X18409Y7549D01*
X18386Y7560D01*
X18362Y7570D01*
X18336Y7578D01*
X18314Y7584D01*
X18288Y7589D01*
X18256Y7593D01*
X18219Y7598D01*
X18145Y7608D01*
X18081Y7619D01*
X18027Y7631D01*
X17984Y7644D01*
X17984Y7656D01*
X17984Y7666D01*
X17983Y7673D01*
X17983Y7678D01*
X17986Y7715D01*
X17993Y7747D01*
X18004Y7772D01*
X18021Y7792D01*
X18049Y7811D01*
X18083Y7825D01*
X18124Y7833D01*
X18171Y7836D01*
X18214Y7834D01*
X18252Y7828D01*
X18283Y7818D01*
X18308Y7804D01*
X18329Y7784D01*
X18347Y7759D01*
X18362Y7727D01*
X18374Y7688D01*
X18503Y7706D01*
X18492Y7745D01*
X18479Y7781D01*
X18463Y7812D01*
X18445Y7840D01*
X18422Y7864D01*
X18395Y7885D01*
X18364Y7903D01*
X18328Y7918D01*
X18289Y7930D01*
X18246Y7939D01*
X18200Y7944D01*
X18152Y7945D01*
X18104Y7944D01*
X18062Y7940D01*
X18023Y7932D01*
X17990Y7922D01*
X17961Y7909D01*
X17936Y7896D01*
X17915Y7880D01*
X17898Y7863D01*
X17885Y7844D01*
X17873Y7823D01*
X17864Y7799D01*
X17857Y7773D01*
X17854Y7753D01*
X17852Y7726D01*
X17851Y7692D01*
X17851Y7652D01*
X17851Y7476D01*
X17850Y7392D01*
X17849Y7326D01*
X17846Y7276D01*
X17842Y7243D01*
X17837Y7219D01*
X17830Y7196D01*
X17820Y7173D01*
X17809Y7150D01*
X17947Y7150D01*
X17956Y7171D01*
X17964Y7194D01*
X17969Y7219D01*
X17973Y7246D01*
X17973Y7246D01*
X17525Y7150D02*
X17647Y7150D01*
X17647Y8224D01*
X17515Y8224D01*
X17515Y7841D01*
X17471Y7886D01*
X17420Y7919D01*
X17364Y7939D01*
X17302Y7945D01*
X17267Y7944D01*
X17232Y7938D01*
X17199Y7929D01*
X17166Y7916D01*
X17136Y7901D01*
X17108Y7882D01*
X17083Y7860D01*
X17061Y7835D01*
X17041Y7808D01*
X17024Y7777D01*
X17009Y7744D01*
X16996Y7709D01*
X16986Y7671D01*
X16978Y7632D01*
X16974Y7592D01*
X16973Y7551D01*
X16979Y7456D01*
X16997Y7373D01*
X17028Y7302D01*
X17071Y7242D01*
X17123Y7194D01*
X17180Y7160D01*
X17242Y7139D01*
X17309Y7132D01*
X17374Y7140D01*
X17432Y7161D01*
X17482Y7197D01*
X17520Y7242D01*
X17454Y7298D01*
X17415Y7266D01*
X17370Y7247D01*
X17320Y7241D01*
X17278Y7246D01*
X17239Y7260D01*
X17203Y7283D01*
X17170Y7316D01*
X17143Y7358D01*
X17123Y7409D01*
X17111Y7470D01*
X17107Y7540D01*
X17111Y7611D01*
X17122Y7672D01*
X17141Y7723D01*
X17168Y7765D01*
X17200Y7796D01*
X17235Y7819D01*
X17273Y7832D01*
X17314Y7837D01*
X17356Y7832D01*
X17394Y7818D01*
X17430Y7795D01*
X17463Y7762D01*
X17491Y7720D01*
X17511Y7670D01*
X17522Y7612D01*
X17526Y7545D01*
X17526Y7545D01*
X17524Y7480D01*
X17517Y7424D01*
X17505Y7379D01*
X17488Y7343D01*
X17454Y7298D01*
X17520Y7242D01*
X17525Y7247D01*
X17525Y7150D01*
X17525Y7150D01*
X16815Y7150D02*
X16815Y8224D01*
X16683Y8224D01*
X16683Y7150D01*
X16815Y7150D01*
X16815Y7150D01*
X15946Y7400D02*
X15810Y7384D01*
X15830Y7327D01*
X15856Y7278D01*
X15889Y7235D01*
X15930Y7198D01*
X15976Y7170D01*
X16029Y7149D01*
X16088Y7137D01*
X16152Y7132D01*
X16233Y7139D01*
X16305Y7159D01*
X16369Y7192D01*
X16423Y7238D01*
X16467Y7295D01*
X16498Y7364D01*
X16517Y7443D01*
X16523Y7532D01*
X16517Y7625D01*
X16498Y7707D01*
X16466Y7777D01*
X16422Y7837D01*
X16368Y7884D01*
X16306Y7918D01*
X16236Y7939D01*
X16160Y7945D01*
X16149Y7944D01*
X16158Y7837D01*
X16202Y7833D01*
X16242Y7822D01*
X16278Y7803D01*
X16311Y7776D01*
X16338Y7743D01*
X16359Y7705D01*
X16373Y7662D01*
X16379Y7614D01*
X16379Y7614D01*
X15945Y7614D01*
X15951Y7660D01*
X15962Y7699D01*
X15976Y7733D01*
X15995Y7761D01*
X16029Y7794D01*
X16067Y7818D01*
X16110Y7832D01*
X16158Y7837D01*
X16149Y7944D01*
X16085Y7939D01*
X16018Y7919D01*
X15958Y7886D01*
X15905Y7839D01*
X15861Y7781D01*
X15831Y7711D01*
X15812Y7631D01*
X15806Y7540D01*
X15806Y7534D01*
X15806Y7526D01*
X15806Y7516D01*
X15807Y7505D01*
X16387Y7505D01*
X16379Y7445D01*
X16365Y7392D01*
X16343Y7347D01*
X16314Y7309D01*
X16280Y7279D01*
X16241Y7258D01*
X16198Y7245D01*
X16152Y7241D01*
X16117Y7243D01*
X16084Y7250D01*
X16055Y7262D01*
X16028Y7279D01*
X16003Y7301D01*
X15982Y7328D01*
X15963Y7362D01*
X15946Y7400D01*
X15946Y7400D01*
X6392Y8550D02*
X6744Y9459D01*
X6614Y9459D01*
X6378Y8799D01*
X6364Y8760D01*
X6352Y8722D01*
X6340Y8685D01*
X6330Y8650D01*
X6319Y8687D01*
X6307Y8724D01*
X6295Y8761D01*
X6281Y8799D01*
X6036Y9459D01*
X5913Y9459D01*
X6269Y8550D01*
X6392Y8550D01*
X6392Y8550D01*
X5156Y8869D02*
X5036Y8838D01*
X5059Y8769D01*
X5089Y8708D01*
X5127Y8656D01*
X5172Y8612D01*
X5224Y8578D01*
X5281Y8554D01*
X5344Y8539D01*
X5412Y8534D01*
X5482Y8538D01*
X5546Y8549D01*
X5602Y8568D01*
X5651Y8594D01*
X5695Y8628D01*
X5733Y8668D01*
X5765Y8714D01*
X5792Y8768D01*
X5813Y8825D01*
X5828Y8885D01*
X5837Y8947D01*
X5840Y9011D01*
X5836Y9080D01*
X5826Y9144D01*
X5809Y9204D01*
X5785Y9259D01*
X5755Y9309D01*
X5720Y9352D01*
X5678Y9389D01*
X5631Y9420D01*
X5580Y9444D01*
X5526Y9461D01*
X5469Y9471D01*
X5411Y9475D01*
X5345Y9470D01*
X5285Y9457D01*
X5230Y9436D01*
X5181Y9405D01*
X5138Y9367D01*
X5102Y9322D01*
X5073Y9269D01*
X5051Y9210D01*
X5170Y9182D01*
X5188Y9228D01*
X5209Y9268D01*
X5233Y9300D01*
X5262Y9326D01*
X5294Y9346D01*
X5330Y9360D01*
X5369Y9369D01*
X5413Y9372D01*
X5463Y9369D01*
X5509Y9359D01*
X5551Y9343D01*
X5588Y9321D01*
X5621Y9294D01*
X5648Y9263D01*
X5670Y9227D01*
X5687Y9187D01*
X5700Y9144D01*
X5708Y9101D01*
X5714Y9057D01*
X5716Y9012D01*
X5714Y8956D01*
X5707Y8903D01*
X5697Y8855D01*
X5682Y8810D01*
X5663Y8769D01*
X5639Y8734D01*
X5610Y8704D01*
X5577Y8680D01*
X5540Y8662D01*
X5502Y8648D01*
X5463Y8640D01*
X5422Y8637D01*
X5374Y8641D01*
X5329Y8652D01*
X5288Y8670D01*
X5251Y8696D01*
X5219Y8728D01*
X5192Y8768D01*
X5172Y8815D01*
X5156Y8869D01*
X5156Y8869D01*
X4239Y8869D02*
X4119Y8838D01*
X4142Y8769D01*
X4172Y8708D01*
X4210Y8656D01*
X4255Y8612D01*
X4307Y8578D01*
X4364Y8554D01*
X4427Y8539D01*
X4495Y8534D01*
X4565Y8538D01*
X4628Y8549D01*
X4685Y8568D01*
X4734Y8594D01*
X4778Y8628D01*
X4815Y8668D01*
X4848Y8714D01*
X4874Y8768D01*
X4895Y8825D01*
X4910Y8885D01*
X4919Y8947D01*
X4922Y9011D01*
X4919Y9080D01*
X4909Y9144D01*
X4892Y9204D01*
X4868Y9259D01*
X4838Y9309D01*
X4802Y9352D01*
X4761Y9389D01*
X4714Y9420D01*
X4662Y9444D01*
X4609Y9461D01*
X4552Y9471D01*
X4493Y9475D01*
X4428Y9470D01*
X4368Y9457D01*
X4313Y9436D01*
X4264Y9405D01*
X4221Y9367D01*
X4185Y9322D01*
X4156Y9269D01*
X4134Y9210D01*
X4253Y9182D01*
X4270Y9228D01*
X4292Y9268D01*
X4316Y9300D01*
X4345Y9326D01*
X4377Y9346D01*
X4412Y9360D01*
X4452Y9369D01*
X4496Y9372D01*
X4546Y9369D01*
X4592Y9359D01*
X4634Y9343D01*
X4671Y9321D01*
X4704Y9294D01*
X4731Y9263D01*
X4753Y9227D01*
X4770Y9187D01*
X4782Y9144D01*
X4791Y9101D01*
X4797Y9057D01*
X4798Y9012D01*
X4796Y8956D01*
X4790Y8903D01*
X4779Y8855D01*
X4765Y8810D01*
X4745Y8769D01*
X4721Y8734D01*
X4693Y8704D01*
X4660Y8680D01*
X4623Y8662D01*
X4585Y8648D01*
X4546Y8640D01*
X4505Y8637D01*
X4457Y8641D01*
X4412Y8652D01*
X4371Y8670D01*
X4334Y8696D01*
X4302Y8728D01*
X4275Y8768D01*
X4254Y8815D01*
X4239Y8869D01*
X4239Y8869D01*
X7839Y6543D02*
X7831Y6650D01*
X7808Y6745D01*
X7770Y6827D01*
X7717Y6897D01*
X7652Y6953D01*
X7578Y6993D01*
X7495Y7017D01*
X7403Y7025D01*
X7342Y7021D01*
X7284Y7010D01*
X7228Y6991D01*
X7176Y6965D01*
X7129Y6932D01*
X7087Y6893D01*
X7052Y6848D01*
X7022Y6797D01*
X6999Y6742D01*
X6982Y6683D01*
X6973Y6620D01*
X6969Y6553D01*
X6973Y6486D01*
X6983Y6422D01*
X7001Y6362D01*
X7025Y6306D01*
X7056Y6255D01*
X7092Y6210D01*
X7135Y6172D01*
X7183Y6141D01*
X7235Y6116D01*
X7289Y6099D01*
X7321Y6093D01*
X7340Y6193D01*
X7281Y6211D01*
X7228Y6241D01*
X7181Y6283D01*
X7143Y6336D01*
X7115Y6398D01*
X7099Y6471D01*
X7093Y6554D01*
X7096Y6608D01*
X7103Y6658D01*
X7114Y6705D01*
X7131Y6748D01*
X7152Y6787D01*
X7177Y6821D01*
X7207Y6851D01*
X7241Y6876D01*
X7278Y6896D01*
X7317Y6910D01*
X7359Y6919D01*
X7403Y6922D01*
X7464Y6916D01*
X7521Y6900D01*
X7574Y6872D01*
X7622Y6834D01*
X7663Y6783D01*
X7692Y6717D01*
X7709Y6636D01*
X7715Y6541D01*
X7715Y6541D01*
X7709Y6463D01*
X7692Y6394D01*
X7665Y6334D01*
X7626Y6282D01*
X7579Y6241D01*
X7527Y6211D01*
X7468Y6193D01*
X7405Y6187D01*
X7340Y6193D01*
X7321Y6093D01*
X7346Y6088D01*
X7404Y6084D01*
X7466Y6088D01*
X7525Y6100D01*
X7581Y6119D01*
X7633Y6147D01*
X7681Y6180D01*
X7722Y6220D01*
X7757Y6265D01*
X7787Y6316D01*
X7809Y6370D01*
X7826Y6426D01*
X7835Y6484D01*
X7839Y6543D01*
X7839Y6543D01*
X6397Y6100D02*
X6397Y6197D01*
X6439Y6148D01*
X6487Y6113D01*
X6543Y6092D01*
X6606Y6085D01*
X6634Y6087D01*
X6662Y6091D01*
X6689Y6098D01*
X6715Y6107D01*
X6738Y6119D01*
X6759Y6133D01*
X6776Y6147D01*
X6790Y6164D01*
X6801Y6181D01*
X6811Y6201D01*
X6818Y6223D01*
X6824Y6246D01*
X6827Y6265D01*
X6829Y6289D01*
X6830Y6317D01*
X6831Y6351D01*
X6831Y6759D01*
X6719Y6759D01*
X6719Y6393D01*
X6719Y6353D01*
X6718Y6320D01*
X6715Y6294D01*
X6712Y6275D01*
X6706Y6255D01*
X6696Y6236D01*
X6683Y6220D01*
X6668Y6206D01*
X6650Y6195D01*
X6630Y6188D01*
X6608Y6183D01*
X6583Y6181D01*
X6559Y6183D01*
X6535Y6188D01*
X6512Y6196D01*
X6489Y6207D01*
X6469Y6221D01*
X6452Y6237D01*
X6438Y6256D01*
X6427Y6277D01*
X6419Y6302D01*
X6413Y6331D01*
X6410Y6366D01*
X6409Y6406D01*
X6409Y6759D01*
X6297Y6759D01*
X6297Y6100D01*
X6397Y6100D01*
X6397Y6100D01*
X5878Y6200D02*
X5862Y6101D01*
X5885Y6097D01*
X5907Y6094D01*
X5927Y6092D01*
X5947Y6091D01*
X5975Y6093D01*
X6001Y6096D01*
X6022Y6102D01*
X6041Y6111D01*
X6056Y6121D01*
X6069Y6133D01*
X6080Y6146D01*
X6088Y6161D01*
X6094Y6181D01*
X6098Y6210D01*
X6101Y6247D01*
X6102Y6293D01*
X6102Y6672D01*
X6183Y6672D01*
X6183Y6759D01*
X6102Y6759D01*
X6102Y6922D01*
X5991Y6989D01*
X5991Y6759D01*
X5878Y6759D01*
X5878Y6672D01*
X5991Y6672D01*
X5991Y6287D01*
X5990Y6265D01*
X5989Y6247D01*
X5987Y6234D01*
X5985Y6225D01*
X5981Y6219D01*
X5977Y6213D01*
X5972Y6208D01*
X5966Y6204D01*
X5958Y6200D01*
X5949Y6198D01*
X5939Y6196D01*
X5927Y6195D01*
X5917Y6196D01*
X5906Y6197D01*
X5893Y6198D01*
X5878Y6200D01*
X5878Y6200D01*
X5769Y5848D02*
X5769Y6759D01*
X5668Y6759D01*
X5668Y6673D01*
X5613Y6620D01*
X5613Y6619D01*
X5637Y6582D01*
X5654Y6538D01*
X5665Y6485D01*
X5668Y6426D01*
X5668Y6426D01*
X5665Y6366D01*
X5655Y6315D01*
X5639Y6272D01*
X5617Y6238D01*
X5590Y6211D01*
X5560Y6192D01*
X5527Y6181D01*
X5492Y6177D01*
X5456Y6181D01*
X5423Y6193D01*
X5392Y6212D01*
X5365Y6240D01*
X5341Y6276D01*
X5325Y6320D01*
X5315Y6373D01*
X5312Y6435D01*
X5315Y6494D01*
X5325Y6545D01*
X5341Y6588D01*
X5363Y6623D01*
X5391Y6651D01*
X5420Y6670D01*
X5452Y6682D01*
X5487Y6686D01*
X5522Y6682D01*
X5554Y6669D01*
X5585Y6649D01*
X5613Y6620D01*
X5668Y6673D01*
X5649Y6697D01*
X5629Y6717D01*
X5608Y6734D01*
X5586Y6748D01*
X5562Y6759D01*
X5536Y6767D01*
X5508Y6772D01*
X5477Y6773D01*
X5436Y6771D01*
X5397Y6763D01*
X5361Y6749D01*
X5328Y6730D01*
X5297Y6706D01*
X5271Y6678D01*
X5249Y6645D01*
X5230Y6608D01*
X5216Y6567D01*
X5206Y6525D01*
X5200Y6480D01*
X5198Y6434D01*
X5200Y6385D01*
X5207Y6338D01*
X5218Y6294D01*
X5234Y6252D01*
X5254Y6214D01*
X5278Y6181D01*
X5307Y6152D01*
X5339Y6128D01*
X5374Y6109D01*
X5410Y6096D01*
X5447Y6088D01*
X5485Y6085D01*
X5512Y6087D01*
X5538Y6091D01*
X5562Y6098D01*
X5585Y6109D01*
X5606Y6121D01*
X5625Y6135D01*
X5642Y6151D01*
X5658Y6168D01*
X5658Y5848D01*
X5769Y5848D01*
X5769Y5848D01*
X4631Y6100D02*
X4631Y6197D01*
X4673Y6148D01*
X4722Y6113D01*
X4778Y6092D01*
X4840Y6085D01*
X4869Y6087D01*
X4897Y6091D01*
X4923Y6098D01*
X4949Y6107D01*
X4973Y6119D01*
X4993Y6133D01*
X5010Y6147D01*
X5024Y6164D01*
X5036Y6181D01*
X5045Y6201D01*
X5053Y6223D01*
X5059Y6246D01*
X5062Y6265D01*
X5064Y6289D01*
X5065Y6317D01*
X5065Y6351D01*
X5065Y6759D01*
X4954Y6759D01*
X4954Y6393D01*
X4953Y6353D01*
X4952Y6320D01*
X4950Y6294D01*
X4947Y6275D01*
X4940Y6255D01*
X4931Y6236D01*
X4918Y6220D01*
X4902Y6206D01*
X4884Y6195D01*
X4864Y6188D01*
X4842Y6183D01*
X4818Y6181D01*
X4793Y6183D01*
X4769Y6188D01*
X4746Y6196D01*
X4724Y6207D01*
X4703Y6221D01*
X4686Y6237D01*
X4672Y6256D01*
X4661Y6277D01*
X4653Y6302D01*
X4648Y6331D01*
X4644Y6366D01*
X4643Y6406D01*
X4643Y6759D01*
X4531Y6759D01*
X4531Y6100D01*
X4631Y6100D01*
X4631Y6100D01*
X4113Y6200D02*
X4097Y6101D01*
X4120Y6097D01*
X4141Y6094D01*
X4162Y6092D01*
X4181Y6091D01*
X4210Y6093D01*
X4235Y6096D01*
X4257Y6102D01*
X4275Y6111D01*
X4291Y6121D01*
X4304Y6133D01*
X4314Y6146D01*
X4322Y6161D01*
X4328Y6181D01*
X4333Y6210D01*
X4335Y6247D01*
X4336Y6293D01*
X4336Y6672D01*
X4418Y6672D01*
X4418Y6759D01*
X4336Y6759D01*
X4336Y6922D01*
X4225Y6989D01*
X4225Y6759D01*
X4113Y6759D01*
X4113Y6672D01*
X4225Y6672D01*
X4225Y6287D01*
X4225Y6265D01*
X4224Y6247D01*
X4222Y6234D01*
X4219Y6225D01*
X4216Y6219D01*
X4211Y6213D01*
X4206Y6208D01*
X4200Y6204D01*
X4193Y6200D01*
X4184Y6198D01*
X4174Y6196D01*
X4162Y6195D01*
X4152Y6196D01*
X4140Y6197D01*
X4127Y6198D01*
X4113Y6200D01*
X4113Y6200D01*
X22468Y5700D02*
X22746Y6416D01*
X22643Y6416D01*
X22457Y5896D01*
X22446Y5865D01*
X22436Y5835D01*
X22427Y5806D01*
X22419Y5779D01*
X22411Y5808D01*
X22401Y5837D01*
X22392Y5867D01*
X22381Y5896D01*
X22188Y6416D01*
X22091Y6416D01*
X22371Y5700D01*
X22468Y5700D01*
X22468Y5700D01*
X21717Y5867D02*
X21626Y5856D01*
X21639Y5818D01*
X21657Y5785D01*
X21679Y5756D01*
X21706Y5732D01*
X21737Y5713D01*
X21772Y5699D01*
X21811Y5691D01*
X21854Y5688D01*
X21908Y5693D01*
X21956Y5706D01*
X21999Y5728D01*
X22035Y5758D01*
X22064Y5797D01*
X22085Y5843D01*
X22097Y5895D01*
X22102Y5955D01*
X22097Y6017D01*
X22085Y6071D01*
X22064Y6118D01*
X22034Y6158D01*
X21998Y6190D01*
X21957Y6212D01*
X21911Y6226D01*
X21859Y6230D01*
X21852Y6230D01*
X21858Y6158D01*
X21887Y6155D01*
X21914Y6148D01*
X21938Y6135D01*
X21960Y6117D01*
X21979Y6096D01*
X21992Y6070D01*
X22001Y6041D01*
X22006Y6009D01*
X22006Y6009D01*
X21716Y6009D01*
X21721Y6040D01*
X21728Y6066D01*
X21737Y6089D01*
X21749Y6107D01*
X21772Y6129D01*
X21798Y6145D01*
X21826Y6155D01*
X21858Y6158D01*
X21852Y6230D01*
X21810Y6226D01*
X21765Y6213D01*
X21725Y6190D01*
X21689Y6159D01*
X21661Y6120D01*
X21640Y6074D01*
X21628Y6021D01*
X21624Y5960D01*
X21624Y5956D01*
X21624Y5950D01*
X21624Y5944D01*
X21624Y5937D01*
X22011Y5937D01*
X22006Y5897D01*
X21996Y5861D01*
X21982Y5831D01*
X21962Y5806D01*
X21939Y5786D01*
X21914Y5772D01*
X21885Y5763D01*
X21854Y5761D01*
X21831Y5762D01*
X21809Y5767D01*
X21789Y5775D01*
X21771Y5786D01*
X21755Y5801D01*
X21741Y5819D01*
X21728Y5841D01*
X21717Y5867D01*
X21717Y5867D01*
X21517Y5700D02*
X21517Y6219D01*
X21438Y6219D01*
X21438Y6140D01*
X21423Y6165D01*
X21409Y6186D01*
X21395Y6202D01*
X21382Y6213D01*
X21369Y6220D01*
X21355Y6226D01*
X21341Y6229D01*
X21326Y6230D01*
X21303Y6229D01*
X21281Y6223D01*
X21258Y6214D01*
X21235Y6202D01*
X21266Y6120D01*
X21282Y6129D01*
X21298Y6135D01*
X21314Y6138D01*
X21330Y6139D01*
X21344Y6138D01*
X21357Y6135D01*
X21370Y6130D01*
X21382Y6122D01*
X21392Y6113D01*
X21401Y6101D01*
X21409Y6089D01*
X21415Y6074D01*
X21421Y6050D01*
X21426Y6025D01*
X21428Y5999D01*
X21429Y5971D01*
X21429Y5700D01*
X21517Y5700D01*
X21517Y5700D01*
X21218Y5855D02*
X21131Y5868D01*
X21126Y5844D01*
X21117Y5822D01*
X21106Y5804D01*
X21091Y5788D01*
X21072Y5776D01*
X21050Y5768D01*
X21025Y5762D01*
X20997Y5761D01*
X20969Y5762D01*
X20944Y5767D01*
X20924Y5774D01*
X20907Y5785D01*
X20894Y5798D01*
X20885Y5812D01*
X20880Y5827D01*
X20878Y5843D01*
X20880Y5857D01*
X20884Y5870D01*
X20892Y5881D01*
X20904Y5890D01*
X20916Y5896D01*
X20935Y5903D01*
X20961Y5911D01*
X20994Y5920D01*
X21038Y5932D01*
X21075Y5942D01*
X21105Y5953D01*
X21128Y5962D01*
X21145Y5972D01*
X21161Y5983D01*
X21174Y5996D01*
X21184Y6011D01*
X21193Y6027D01*
X21199Y6044D01*
X21202Y6062D01*
X21204Y6081D01*
X21203Y6098D01*
X21200Y6114D01*
X21195Y6130D01*
X21188Y6145D01*
X21179Y6159D01*
X21169Y6172D01*
X21157Y6184D01*
X21145Y6194D01*
X21133Y6201D01*
X21120Y6208D01*
X21105Y6214D01*
X21089Y6220D01*
X21071Y6224D01*
X21052Y6228D01*
X21033Y6230D01*
X21013Y6230D01*
X20983Y6229D01*
X20955Y6226D01*
X20930Y6220D01*
X20906Y6213D01*
X20884Y6203D01*
X20865Y6192D01*
X20850Y6179D01*
X20837Y6165D01*
X20827Y6149D01*
X20819Y6130D01*
X20812Y6109D01*
X20807Y6085D01*
X20893Y6073D01*
X20897Y6092D01*
X20904Y6109D01*
X20914Y6123D01*
X20927Y6136D01*
X20942Y6145D01*
X20961Y6152D01*
X20982Y6157D01*
X21006Y6158D01*
X21034Y6157D01*
X21058Y6153D01*
X21078Y6147D01*
X21093Y6138D01*
X21104Y6128D01*
X21112Y6116D01*
X21117Y6104D01*
X21119Y6091D01*
X21118Y6083D01*
X21116Y6075D01*
X21113Y6067D01*
X21108Y6060D01*
X21102Y6054D01*
X21094Y6047D01*
X21085Y6042D01*
X21074Y6037D01*
X21064Y6034D01*
X21048Y6029D01*
X21026Y6022D01*
X20997Y6014D01*
X20953Y6003D01*
X20917Y5992D01*
X20888Y5982D01*
X20866Y5974D01*
X20849Y5965D01*
X20834Y5954D01*
X20820Y5942D01*
X20809Y5928D01*
X20799Y5911D01*
X20793Y5894D01*
X20789Y5874D01*
X20788Y5852D01*
X20789Y5831D01*
X20794Y5810D01*
X20802Y5789D01*
X20813Y5770D01*
X20827Y5751D01*
X20845Y5735D01*
X20864Y5721D01*
X20887Y5710D01*
X20912Y5700D01*
X20939Y5694D01*
X20967Y5690D01*
X20997Y5688D01*
X21044Y5691D01*
X21086Y5699D01*
X21121Y5712D01*
X21151Y5730D01*
X21175Y5754D01*
X21194Y5782D01*
X21209Y5816D01*
X21218Y5855D01*
X21218Y5855D01*
X20683Y5700D02*
X20683Y6219D01*
X20595Y6219D01*
X20595Y5700D01*
X20683Y5700D01*
X20683Y5700D01*
X20683Y6315D02*
X20683Y6416D01*
X20595Y6416D01*
X20595Y6315D01*
X20683Y6315D01*
X20683Y6315D01*
X20494Y5959D02*
X20489Y6027D01*
X20474Y6085D01*
X20449Y6133D01*
X20414Y6173D01*
X20378Y6198D01*
X20339Y6216D01*
X20297Y6227D01*
X20250Y6230D01*
X20199Y6226D01*
X20153Y6213D01*
X20112Y6191D01*
X20076Y6160D01*
X20046Y6122D01*
X20025Y6077D01*
X20012Y6025D01*
X20008Y5967D01*
X20010Y5919D01*
X20015Y5877D01*
X20025Y5840D01*
X20038Y5809D01*
X20055Y5782D01*
X20075Y5758D01*
X20098Y5737D01*
X20125Y5720D01*
X20155Y5706D01*
X20185Y5696D01*
X20217Y5690D01*
X20250Y5688D01*
X20257Y5689D01*
X20250Y5761D01*
X20219Y5764D01*
X20191Y5773D01*
X20165Y5789D01*
X20142Y5810D01*
X20123Y5839D01*
X20109Y5873D01*
X20101Y5914D01*
X20098Y5962D01*
X20101Y6007D01*
X20109Y6047D01*
X20123Y6080D01*
X20142Y6108D01*
X20165Y6130D01*
X20191Y6145D01*
X20219Y6154D01*
X20250Y6158D01*
X20282Y6154D01*
X20311Y6145D01*
X20337Y6130D01*
X20360Y6108D01*
X20379Y6080D01*
X20392Y6046D01*
X20401Y6006D01*
X20403Y5959D01*
X20403Y5959D01*
X20401Y5913D01*
X20392Y5872D01*
X20379Y5838D01*
X20360Y5810D01*
X20337Y5788D01*
X20311Y5773D01*
X20282Y5764D01*
X20250Y5761D01*
X20257Y5689D01*
X20302Y5693D01*
X20349Y5706D01*
X20390Y5728D01*
X20426Y5758D01*
X20456Y5797D01*
X20477Y5843D01*
X20489Y5897D01*
X20494Y5959D01*
X20494Y5959D01*
X19905Y5700D02*
X19905Y6219D01*
X19826Y6219D01*
X19826Y6145D01*
X19794Y6182D01*
X19756Y6209D01*
X19711Y6225D01*
X19661Y6230D01*
X19638Y6229D01*
X19616Y6226D01*
X19595Y6221D01*
X19574Y6213D01*
X19556Y6204D01*
X19540Y6194D01*
X19527Y6182D01*
X19516Y6169D01*
X19507Y6155D01*
X19499Y6139D01*
X19493Y6122D01*
X19488Y6104D01*
X19486Y6090D01*
X19485Y6071D01*
X19484Y6047D01*
X19483Y6019D01*
X19483Y5700D01*
X19571Y5700D01*
X19571Y6015D01*
X19572Y6041D01*
X19574Y6062D01*
X19577Y6081D01*
X19582Y6096D01*
X19588Y6108D01*
X19596Y6120D01*
X19606Y6130D01*
X19618Y6138D01*
X19632Y6145D01*
X19646Y6150D01*
X19662Y6153D01*
X19679Y6154D01*
X19706Y6152D01*
X19731Y6145D01*
X19755Y6134D01*
X19776Y6118D01*
X19794Y6097D01*
X19807Y6067D01*
X19814Y6029D01*
X19817Y5983D01*
X19817Y5700D01*
X19905Y5700D01*
X19905Y5700D01*
X18764Y5700D02*
X18852Y5700D01*
X18852Y6260D01*
X18869Y6245D01*
X18889Y6230D01*
X18911Y6215D01*
X18935Y6200D01*
X18960Y6185D01*
X18984Y6173D01*
X19007Y6163D01*
X19028Y6154D01*
X19028Y6239D01*
X18992Y6257D01*
X18959Y6277D01*
X18928Y6299D01*
X18899Y6323D01*
X18873Y6348D01*
X18852Y6372D01*
X18834Y6395D01*
X18821Y6419D01*
X18764Y6419D01*
X18764Y5700D01*
X18764Y5700D01*
X18490Y5700D02*
X18490Y5800D01*
X18390Y5800D01*
X18390Y5700D01*
X18490Y5700D01*
X18490Y5700D01*
X18261Y6053D02*
X18260Y6113D01*
X18255Y6168D01*
X18247Y6216D01*
X18235Y6257D01*
X18220Y6294D01*
X18203Y6326D01*
X18182Y6354D01*
X18157Y6377D01*
X18130Y6395D01*
X18099Y6408D01*
X18065Y6416D01*
X18028Y6419D01*
X18000Y6417D01*
X17974Y6413D01*
X17949Y6406D01*
X17927Y6396D01*
X17906Y6383D01*
X17887Y6367D01*
X17870Y6349D01*
X17855Y6329D01*
X17842Y6306D01*
X17830Y6280D01*
X17819Y6252D01*
X17811Y6222D01*
X17803Y6188D01*
X17798Y6149D01*
X17795Y6104D01*
X17794Y6053D01*
X17796Y5993D01*
X17801Y5939D01*
X17809Y5891D01*
X17820Y5850D01*
X17835Y5813D01*
X17853Y5781D01*
X17874Y5753D01*
X17898Y5730D01*
X17925Y5712D01*
X17956Y5698D01*
X17990Y5690D01*
X18028Y5688D01*
X18035Y5688D01*
X18028Y5760D01*
X17999Y5764D01*
X17972Y5775D01*
X17948Y5793D01*
X17926Y5819D01*
X17908Y5855D01*
X17895Y5907D01*
X17887Y5972D01*
X17885Y6053D01*
X17887Y6134D01*
X17895Y6200D01*
X17908Y6251D01*
X17926Y6288D01*
X17948Y6313D01*
X17972Y6331D01*
X17999Y6342D01*
X18029Y6346D01*
X18058Y6343D01*
X18083Y6333D01*
X18106Y6317D01*
X18125Y6295D01*
X18145Y6255D01*
X18160Y6202D01*
X18168Y6134D01*
X18171Y6053D01*
X18171Y6053D01*
X18168Y5972D01*
X18161Y5906D01*
X18148Y5855D01*
X18130Y5818D01*
X18108Y5793D01*
X18084Y5775D01*
X18057Y5764D01*
X18028Y5760D01*
X18035Y5688D01*
X18077Y5692D01*
X18120Y5706D01*
X18158Y5730D01*
X18190Y5762D01*
X18221Y5814D01*
X18244Y5879D01*
X18257Y5959D01*
X18261Y6053D01*
X18261Y6053D01*
X17656Y5700D02*
X17656Y5800D01*
X17556Y5800D01*
X17556Y5700D01*
X17656Y5700D01*
X17656Y5700D01*
X17096Y5700D02*
X17184Y5700D01*
X17184Y6260D01*
X17201Y6245D01*
X17221Y6230D01*
X17243Y6215D01*
X17267Y6200D01*
X17292Y6185D01*
X17316Y6173D01*
X17339Y6163D01*
X17360Y6154D01*
X17360Y6239D01*
X17324Y6257D01*
X17291Y6277D01*
X17260Y6299D01*
X17231Y6323D01*
X17205Y6348D01*
X17184Y6372D01*
X17166Y6395D01*
X17153Y6419D01*
X17096Y6419D01*
X17096Y5700D01*
X17096Y5700D01*
X6277Y3857D02*
X6277Y3963D01*
X5892Y3964D01*
X5892Y3627D01*
X5936Y3593D01*
X5982Y3565D01*
X6028Y3540D01*
X6074Y3520D01*
X6122Y3505D01*
X6170Y3493D01*
X6219Y3487D01*
X6268Y3484D01*
X6333Y3488D01*
X6396Y3499D01*
X6455Y3517D01*
X6511Y3542D01*
X6563Y3574D01*
X6607Y3612D01*
X6645Y3657D01*
X6677Y3708D01*
X6701Y3764D01*
X6718Y3823D01*
X6729Y3885D01*
X6732Y3950D01*
X6729Y4015D01*
X6719Y4078D01*
X6701Y4139D01*
X6677Y4198D01*
X6646Y4252D01*
X6609Y4298D01*
X6566Y4337D01*
X6517Y4369D01*
X6463Y4393D01*
X6405Y4411D01*
X6343Y4421D01*
X6277Y4425D01*
X6229Y4423D01*
X6183Y4417D01*
X6140Y4407D01*
X6099Y4393D01*
X6061Y4375D01*
X6028Y4354D01*
X5999Y4331D01*
X5974Y4304D01*
X5953Y4273D01*
X5934Y4238D01*
X5918Y4199D01*
X5905Y4155D01*
X6014Y4125D01*
X6025Y4158D01*
X6037Y4187D01*
X6050Y4213D01*
X6065Y4234D01*
X6081Y4253D01*
X6101Y4270D01*
X6125Y4285D01*
X6151Y4298D01*
X6180Y4308D01*
X6211Y4316D01*
X6243Y4320D01*
X6277Y4322D01*
X6316Y4320D01*
X6354Y4315D01*
X6388Y4308D01*
X6419Y4297D01*
X6448Y4283D01*
X6474Y4267D01*
X6496Y4250D01*
X6516Y4230D01*
X6534Y4210D01*
X6549Y4188D01*
X6562Y4165D01*
X6574Y4141D01*
X6589Y4098D01*
X6600Y4053D01*
X6606Y4006D01*
X6608Y3958D01*
X6606Y3899D01*
X6598Y3846D01*
X6585Y3798D01*
X6567Y3754D01*
X6543Y3716D01*
X6515Y3683D01*
X6482Y3655D01*
X6445Y3633D01*
X6404Y3615D01*
X6362Y3603D01*
X6319Y3595D01*
X6275Y3593D01*
X6236Y3595D01*
X6198Y3601D01*
X6160Y3610D01*
X6122Y3623D01*
X6087Y3638D01*
X6057Y3654D01*
X6031Y3670D01*
X6009Y3687D01*
X6009Y3857D01*
X6277Y3857D01*
X6277Y3857D01*
X5715Y3500D02*
X5715Y4409D01*
X5592Y4409D01*
X5114Y3695D01*
X5114Y4409D01*
X4999Y4409D01*
X4999Y3500D01*
X5123Y3500D01*
X5600Y4214D01*
X5600Y3500D01*
X5715Y3500D01*
X5715Y3500D01*
X4797Y3500D02*
X4797Y4409D01*
X4486Y4409D01*
X4486Y4302D01*
X4677Y4302D01*
X4677Y3607D01*
X4677Y3607D01*
X4483Y3607D01*
X4440Y3608D01*
X4402Y3611D01*
X4370Y3617D01*
X4342Y3624D01*
X4317Y3633D01*
X4296Y3644D01*
X4276Y3657D01*
X4260Y3671D01*
X4240Y3694D01*
X4222Y3721D01*
X4206Y3752D01*
X4193Y3786D01*
X4183Y3824D01*
X4175Y3866D01*
X4171Y3912D01*
X4169Y3961D01*
X4172Y4029D01*
X4181Y4087D01*
X4196Y4138D01*
X4216Y4181D01*
X4241Y4216D01*
X4268Y4245D01*
X4298Y4267D01*
X4330Y4283D01*
X4358Y4291D01*
X4393Y4297D01*
X4436Y4301D01*
X4486Y4302D01*
X4486Y4409D01*
X4484Y4409D01*
X4434Y4408D01*
X4390Y4406D01*
X4353Y4402D01*
X4322Y4396D01*
X4284Y4385D01*
X4250Y4371D01*
X4218Y4353D01*
X4189Y4331D01*
X4155Y4298D01*
X4126Y4262D01*
X4101Y4221D01*
X4081Y4176D01*
X4065Y4127D01*
X4054Y4074D01*
X4048Y4019D01*
X4045Y3960D01*
X4047Y3909D01*
X4051Y3862D01*
X4059Y3817D01*
X4070Y3776D01*
X4083Y3738D01*
X4097Y3703D01*
X4114Y3671D01*
X4132Y3644D01*
X4151Y3619D01*
X4171Y3597D01*
X4192Y3578D01*
X4214Y3561D01*
X4238Y3547D01*
X4264Y3535D01*
X4292Y3524D01*
X4323Y3516D01*
X4356Y3509D01*
X4391Y3504D01*
X4429Y3501D01*
X4469Y3500D01*
X4797Y3500D01*
X4797Y3500D01*
G37*
M02*