<?xml-stylesheet href="https://s3.amazonaws.com/maker.works.boards/css/blackpcb.css" type="text/css"?><svg xmlns="http://www.w3.org/2000/svg" version="1.1" xmlns:xlink="http://www.w3.org/1999/xlink" stroke-width="0" stroke-linecap="round" stroke-linejoin="round" width="1.1024in" height="1.1811in" id="pcb_bottom" viewBox="7.5 7.5 1102.4 1181.1"><defs><circle cx="0" cy="0" r="12.5" id="tool-T10-pad-1000"/><circle cx="0" cy="0" r="27.5" id="tool-T11-pad-1001"/><circle cx="0" cy="0" r="21.5" id="tool-T12-pad-1002"/><circle cx="0" cy="0" r="21" id="tool-D11-pad-1004"/><circle cx="0" cy="0" r="39.35" id="tool-D12-pad-1005"/><rect x="-39.37" y="-39.37" width="78.74" height="78.74" transform="rotate(180)" id="tool-D13-pad-1006"/><circle cx="0" cy="0" r="32.5" id="tool-D14-pad-1007"/><rect x="-32.4805" y="-32.4805" width="64.961" height="64.961" transform="rotate(270)" id="tool-D15-pad-1008"/><circle cx="0" cy="0" r="21" id="tool-D10-pad-1010"/><circle cx="0" cy="0" r="39.35" id="tool-D11-pad-1011"/><rect x="-39.37" y="-39.37" width="78.74" height="78.74" transform="rotate(180)" id="tool-D12-pad-1012"/><circle cx="0" cy="0" r="32.5" id="tool-D13-pad-1013"/><rect x="-32.4805" y="-32.4805" width="64.961" height="64.961" transform="rotate(270)" id="tool-D14-pad-1014"/><g id="pcb_bottom-cu" fill="currentColor" stroke="currentColor"><path stroke-width="20" fill="none" d="M 578.2 1150.2 L 824.5 1150.2 M 304 771.4 L 604 1071.4 M 204 776 L 578.2 1150.2 M 604 1071.4 L 824.5 1071.4 M 304 235.8 L 304 771.4 M 204 235.8 L 204 776 M 558.7 401.2 L 361.8 598.1 M 1000.2 306.5 L 873.6 401.2 M 873.6 401.2 L 558.7 401.2"/><use x="824.5" y="1071.4" xlink:href="#tool-D11-pad-1004"/><use x="824.5" y="1150.2" xlink:href="#tool-D11-pad-1004"/><use x="361.8" y="599" xlink:href="#tool-D11-pad-1004"/><use x="803.4" y="306.5" xlink:href="#tool-D12-pad-1005"/><use x="1000.2" y="306.5" xlink:href="#tool-D13-pad-1006"/><use x="504" y="235.8" xlink:href="#tool-D14-pad-1007"/><use x="404" y="235.8" xlink:href="#tool-D14-pad-1007"/><use x="304" y="235.8" xlink:href="#tool-D14-pad-1007"/><use x="204" y="235.8" xlink:href="#tool-D14-pad-1007"/><use x="104" y="235.8" xlink:href="#tool-D14-pad-1007"/><use x="604" y="235.8" xlink:href="#tool-D15-pad-1008"/></g><mask id="pcb_bottom_mech-mask" fill="#fff" stroke="#fff" fill-rule="evenodd"><path stroke-width="0" d="M 7.5 7.5 L 7.5 479.9 L 165 479.9 L 165 1188.6 L 952.4 1188.6 L 952.4 479.9 L 1109.9 479.9 L 1109.9 7.5 Z"/><g id="pcb_bottom-drl" fill="#000" stroke="#000"><use x="824.5" y="1071.4" xlink:href="#tool-T10-pad-1000"/><use x="824.5" y="1150.2" xlink:href="#tool-T10-pad-1000"/><use x="361.8" y="599" xlink:href="#tool-T10-pad-1000"/><use x="1000.2" y="306.5" xlink:href="#tool-T11-pad-1001"/><use x="803.4" y="306.5" xlink:href="#tool-T11-pad-1001"/><use x="604" y="235.8" xlink:href="#tool-T12-pad-1002"/><use x="504" y="235.8" xlink:href="#tool-T12-pad-1002"/><use x="404" y="235.8" xlink:href="#tool-T12-pad-1002"/><use x="304" y="235.8" xlink:href="#tool-T12-pad-1002"/><use x="204" y="235.8" xlink:href="#tool-T12-pad-1002"/><use x="104" y="235.8" xlink:href="#tool-T12-pad-1002"/></g></mask></defs><g mask="url(#pcb_bottom_mech-mask)" transform="translate(1117.4,1196.1) scale(-1,-1)"><rect x="7.5" y="7.5" width="1102.4" height="1181.1" fill="currentColor" class="pcb_board-fr4"/><use class="pcb_board-cu" xlink:href="#pcb_bottom-cu"/><g><defs><g id="pcb_bottom-sm" fill="currentColor" stroke="currentColor"><use x="824.5" y="1071.4" xlink:href="#tool-D10-pad-1010"/><use x="824.5" y="1150.2" xlink:href="#tool-D10-pad-1010"/><use x="361.8" y="599" xlink:href="#tool-D10-pad-1010"/><use x="803.4" y="306.5" xlink:href="#tool-D11-pad-1011"/><use x="1000.2" y="306.5" xlink:href="#tool-D12-pad-1012"/><use x="504" y="235.8" xlink:href="#tool-D13-pad-1013"/><use x="404" y="235.8" xlink:href="#tool-D13-pad-1013"/><use x="304" y="235.8" xlink:href="#tool-D13-pad-1013"/><use x="204" y="235.8" xlink:href="#tool-D13-pad-1013"/><use x="104" y="235.8" xlink:href="#tool-D13-pad-1013"/><use x="604" y="235.8" xlink:href="#tool-D14-pad-1014"/></g><mask id="pcb_bottom-sm_mask" color="#000"><rect x="7.5" y="7.5" width="1102.4" height="1181.1" fill="#fff"/><use xlink:href="#pcb_bottom-sm"/></mask><mask id="pcb_bottom-cu_finish-mask" color="#fff"><use xlink:href="#pcb_bottom-cu"/></mask></defs><g mask="url(#pcb_bottom-sm_mask)"><rect x="7.5" y="7.5" width="1102.4" height="1181.1" fill="currentColor" class="pcb_board-sm"/><g id="pcb_bottom-ss" class="pcb_board-ss" fill="currentColor" stroke="currentColor"><path stroke-width="8" fill="none" d="M 781.9 693.1 L 781.9 693.1 M 781.9 693.1 L 781.9 693.1 M 781.9 693.1 L 765.1 693.1 M 765.1 693.1 L 765.1 697.3 M 765.1 697.3 L 781.9 697.3 M 781.9 697.3 L 781.9 697.3 M 781.9 697.3 L 781.9 708.4 M 781.9 708.4 L 781.9 708.4 M 781.9 708.4 L 762.5 708.4 M 762.5 708.4 L 762.5 712.6 M 762.5 712.6 L 786.6 712.6 M 786.6 712.6 L 786.6 676.8 M 786.6 676.8 L 781.9 676.8 M 781.9 676.8 L 781.9 693.1 M 742.5 708.4 L 742.5 708.4 M 742.5 708.4 L 742.5 708.4 M 742.5 708.4 L 730.7 708.4 M 730.7 708.4 L 730.7 712.6 M 730.7 712.6 L 759 712.6 M 759 712.6 L 759 708.4 M 759 708.4 L 747.2 708.4 M 747.2 708.4 L 747.2 708.4 M 747.2 708.4 L 747.2 676.8 M 747.2 676.8 L 742.5 676.8 M 742.5 676.8 L 742.5 708.4 M 711.3 676.8 L 711.3 676.8 M 711.3 676.8 L 709.8 676.9 M 709.8 676.9 L 708.4 677.1 M 708.4 677.1 L 707.1 677.4 M 707.1 677.4 L 706 677.8 M 706 677.8 L 704.8 678.2 M 704.8 678.2 L 703.8 678.6 M 703.8 678.6 L 702.9 679.2 M 702.9 679.2 L 702 679.9 M 702 679.9 L 701.2 680.6 M 701.2 680.6 L 700.4 681.5 M 700.4 681.5 L 699.6 682.5 M 699.6 682.5 L 698.9 683.6 M 698.9 683.6 L 698.3 684.8 M 698.3 684.8 L 697.7 686.2 M 697.7 686.2 L 697.2 687.7 M 697.2 687.7 L 696.8 689.3 M 696.8 689.3 L 696.5 691 M 696.5 691 L 696.3 692.9 M 696.3 692.9 L 696.2 694.9 M 696.2 694.9 L 696.3 697.2 M 696.3 697.2 L 696.6 699.4 M 696.6 699.4 L 697 701.5 M 697 701.5 L 697.7 703.4 M 697.7 703.4 L 698.4 705.2 M 698.4 705.2 L 699.4 706.8 M 699.4 706.8 L 700.5 708.2 M 700.5 708.2 L 701.9 709.5 M 701.9 709.5 L 703 710.3 M 703 710.3 L 704.3 711 M 704.3 711 L 705.6 711.6 M 705.6 711.6 L 707.1 712.1 M 707.1 712.1 L 708.3 712.3 M 708.3 712.3 L 709.8 712.4 M 709.8 712.4 L 711.5 712.5 M 711.5 712.5 L 713.5 712.6 M 713.5 712.6 L 725.8 712.6 M 725.8 712.6 L 725.8 676.8 M 725.8 676.8 L 712.9 676.8 M 712.9 676.8 L 711.3 676.8 M 721.1 681 L 721.1 681 M 721.1 681 L 713.4 681 M 713.4 681 L 711.8 681 M 711.8 681 L 710.3 681.2 M 710.3 681.2 L 709 681.4 M 709 681.4 L 707.9 681.7 M 707.9 681.7 L 706.9 682 M 706.9 682 L 706.1 682.5 M 706.1 682.5 L 705.3 683 M 705.3 683 L 704.7 683.5 M 704.7 683.5 L 703.9 684.4 M 703.9 684.4 L 703.2 685.5 M 703.2 685.5 L 702.5 686.7 M 702.5 686.7 L 702 688.1 M 702 688.1 L 701.6 689.5 M 701.6 689.5 L 701.3 691.2 M 701.3 691.2 L 701.2 693 M 701.2 693 L 701.1 694.9 M 701.1 694.9 L 701.2 697.6 M 701.2 697.6 L 701.6 699.9 M 701.6 699.9 L 702.1 701.9 M 702.1 701.9 L 702.9 703.6 M 702.9 703.6 L 703.9 705 M 703.9 705 L 705 706.1 M 705 706.1 L 706.2 707 M 706.2 707 L 707.4 707.6 M 707.4 707.6 L 708.5 707.9 M 708.5 707.9 L 709.9 708.2 M 709.9 708.2 L 711.6 708.3 M 711.6 708.3 L 713.6 708.4 M 713.6 708.4 L 721.1 708.4 M 721.1 708.4 L 721.1 681 M 684.2 712.6 L 684.2 712.6 M 684.2 712.6 L 688.9 712.6 M 688.9 712.6 L 688.9 676.8 M 688.9 676.8 L 684.2 676.8 M 684.2 676.8 L 684.2 712.6 M 658.1 691 L 658.1 691 M 658.1 691 L 658.1 691 M 658.1 691 L 658.1 692.4 M 658.1 692.4 L 658.1 692.4 M 658.1 692.4 L 657.9 693.7 M 657.9 693.7 L 657.9 693.7 M 657.9 693.7 L 657.7 694.8 M 657.7 694.8 L 657.7 694.8 M 657.7 694.8 L 657.4 695.8 M 657.4 695.8 L 657.4 695.8 M 657.4 695.8 L 656.9 696.6 M 656.9 696.6 L 656.9 696.6 M 656.9 696.6 L 656.4 697.3 M 656.4 697.3 L 656.4 697.3 M 656.4 697.3 L 655.7 698 M 655.7 698 L 655.7 698 M 655.7 698 L 654.9 698.5 M 654.9 698.5 L 654.9 698.5 M 654.9 698.5 L 654 699 M 654 699 L 654 699 M 654 699 L 653.1 699.3 M 653.1 699.3 L 653.1 699.3 M 653.1 699.3 L 652.2 699.5 M 652.2 699.5 L 652.2 699.5 M 652.2 699.5 L 651.2 699.5 M 651.2 699.5 L 651.2 699.5 M 651.2 699.5 L 650 699.4 M 650 699.4 L 650 699.4 M 650 699.4 L 648.9 699.2 M 648.9 699.2 L 648.9 699.2 M 648.9 699.2 L 648 698.7 M 648 698.7 L 648 698.7 M 648 698.7 L 647.2 698.1 M 647.2 698.1 L 647.2 698.1 M 647.2 698.1 L 646.6 697.2 M 646.6 697.2 L 646.6 697.1 M 646.6 697.1 L 646.1 696.1 M 646.1 696.1 L 646.1 696.1 M 646.1 696.1 L 645.8 694.7 M 645.8 694.7 L 645.8 694.7 M 645.8 694.7 L 645.7 693.2 M 645.7 693.2 L 645.7 693.2 M 645.7 693.2 L 645.7 676.8 M 645.7 676.8 L 641.4 676.8 M 641.4 676.8 L 641.4 693.2 M 641.4 693.2 L 641.4 695 M 641.4 695 L 641.6 696.6 M 641.6 696.6 L 641.9 697.9 M 641.9 697.9 L 642.3 699 M 642.3 699 L 642.8 700 M 642.8 700 L 643.5 700.8 M 643.5 700.8 L 644.4 701.5 M 644.4 701.5 L 645.3 702.1 M 645.3 702.1 L 646.4 702.7 M 646.4 702.7 L 647.6 703 M 647.6 703 L 648.9 703.2 M 648.9 703.2 L 650.3 703.3 M 650.3 703.3 L 652.6 703.1 M 652.6 703.1 L 654.6 702.4 M 654.6 702.4 L 656.4 701.3 M 656.4 701.3 L 658.1 699.7 M 658.1 699.7 L 658.1 699.7 M 658.1 699.7 L 658.1 712.6 M 658.1 712.6 L 662.5 712.6 M 662.5 712.6 L 662.5 676.8 M 662.5 676.8 L 658.1 676.8 M 658.1 676.8 L 658.1 691 M 621.6 676.4 L 621.6 676.4 M 621.6 676.4 L 619.7 676.8 M 619.7 676.8 L 617.9 677.5 M 617.9 677.5 L 616.4 678.4 M 616.4 678.4 L 615 679.6 M 615 679.6 L 613.9 681 M 613.9 681 L 613.1 682.7 M 613.1 682.7 L 612.4 684.5 M 612.4 684.5 L 616.9 685.1 M 616.9 685.1 L 617.5 683.8 M 617.5 683.8 L 617.5 683.8 M 617.5 683.8 L 618.1 682.7 M 618.1 682.7 L 618.1 682.7 M 618.1 682.7 L 618.8 681.8 M 618.8 681.8 L 618.8 681.8 M 618.8 681.8 L 619.6 681.1 M 619.6 681.1 L 619.6 681.1 M 619.6 681.1 L 620.5 680.5 M 620.5 680.5 L 620.5 680.5 M 620.5 680.5 L 621.5 680.1 M 621.5 680.1 L 621.5 680.1 M 621.5 680.1 L 622.6 679.9 M 622.6 679.9 L 622.6 679.9 M 622.6 679.9 L 623.8 679.8 M 623.8 679.8 L 623.8 679.8 M 623.8 679.8 L 625.3 679.9 M 625.3 679.9 L 625.3 679.9 M 625.3 679.9 L 626.8 680.4 M 626.8 680.4 L 626.8 680.4 M 626.8 680.4 L 628.1 681.1 M 628.1 681.1 L 628.1 681.1 M 628.1 681.1 L 629.2 682.1 M 629.2 682.1 L 629.2 682.1 M 629.2 682.1 L 630.2 683.3 M 630.2 683.3 L 630.2 683.3 M 630.2 683.3 L 630.9 684.9 M 630.9 684.9 L 630.9 684.9 M 630.9 684.9 L 631.4 686.6 M 631.4 686.6 L 631.4 686.6 M 631.4 686.6 L 631.6 688.6 M 631.6 688.6 L 631.6 688.6 M 631.6 688.6 L 612.3 688.6 M 612.3 688.6 L 612.3 689 M 612.3 689 L 612.3 689.3 M 612.3 689.3 L 612.3 689.6 M 612.3 689.6 L 612.3 689.8 M 612.3 689.8 L 612.5 692.8 M 612.5 692.8 L 613.1 695.5 M 613.1 695.5 L 614.1 697.8 M 614.1 697.8 L 615.5 699.7 M 615.5 699.7 L 617.3 701.3 M 617.3 701.3 L 619.3 702.4 M 619.3 702.4 L 621.6 703.1 M 621.6 703.1 L 624 703.3 M 624 703.3 L 626.6 703.1 M 626.6 703.1 L 628.9 702.4 M 628.9 702.4 L 631 701.2 M 631 701.2 L 632.7 699.7 M 632.7 699.7 L 634.2 697.7 M 634.2 697.7 L 635.3 695.3 M 635.3 695.3 L 635.9 692.6 M 635.9 692.6 L 636.1 689.5 M 636.1 689.5 L 635.9 686.6 M 635.9 686.6 L 635.3 683.9 M 635.3 683.9 L 634.2 681.6 M 634.2 681.6 L 632.8 679.7 M 632.8 679.7 L 631 678.2 M 631 678.2 L 628.9 677.1 M 628.9 677.1 L 626.5 676.4 M 626.5 676.4 L 623.8 676.2 M 623.8 676.2 L 621.6 676.4 M 631.4 692.3 L 631.4 692.3 M 631.4 692.3 L 616.9 692.3 M 616.9 692.3 L 617.1 693.8 M 617.1 693.8 L 617.4 695.1 M 617.4 695.1 L 617.9 696.2 M 617.9 696.2 L 618.5 697.1 M 618.5 697.1 L 619.7 698.2 M 619.7 698.2 L 620.9 699.1 M 620.9 699.1 L 622.4 699.5 M 622.4 699.5 L 624 699.7 M 624 699.7 L 625.4 699.5 M 625.4 699.5 L 626.8 699.2 M 626.8 699.2 L 628 698.6 M 628 698.6 L 629.1 697.7 M 629.1 697.7 L 630 696.6 M 630 696.6 L 630.7 695.3 M 630.7 695.3 L 631.1 693.8 M 631.1 693.8 L 631.4 692.3 M 598.2 676.3 L 598.2 676.3 M 598.2 676.3 L 597 676.4 M 597 676.4 L 595.8 676.7 M 595.8 676.7 L 594.7 677.1 M 594.7 677.1 L 593.5 677.6 M 593.5 677.6 L 592.3 678.2 M 592.3 678.2 L 591.2 679 M 591.2 679 L 589.9 680 M 589.9 680 L 589.9 680 M 589.9 680 L 589.8 679.1 M 589.8 679.1 L 589.6 678.3 M 589.6 678.3 L 589.4 677.5 M 589.4 677.5 L 589 676.8 M 589 676.8 L 584.5 676.8 M 584.5 676.8 L 584.9 677.5 M 584.9 677.5 L 584.9 677.5 M 584.9 677.5 L 585.2 678.3 M 585.2 678.3 L 585.2 678.3 M 585.2 678.3 L 585.4 679.1 M 585.4 679.1 L 585.4 679.1 M 585.4 679.1 L 585.6 679.9 M 585.6 679.9 L 585.6 679.9 M 585.6 679.9 L 585.7 681 M 585.7 681 L 585.7 681 M 585.7 681 L 585.8 682.7 M 585.8 682.7 L 585.8 682.7 M 585.8 682.7 L 585.9 684.9 M 585.9 684.9 L 585.9 684.9 M 585.9 684.9 L 585.9 687.7 M 585.9 687.7 L 585.9 687.7 M 585.9 687.7 L 585.9 693.5 M 585.9 693.5 L 585.9 694.9 M 585.9 694.9 L 585.9 696 M 585.9 696 L 586 696.9 M 586 696.9 L 586.1 697.6 M 586.1 697.6 L 586.3 698.4 M 586.3 698.4 L 586.6 699.2 M 586.6 699.2 L 587 699.9 M 587 699.9 L 587.5 700.5 M 587.5 700.5 L 588 701.1 M 588 701.1 L 588.7 701.6 M 588.7 701.6 L 589.5 702.1 M 589.5 702.1 L 590.5 702.5 M 590.5 702.5 L 591.6 702.9 M 591.6 702.9 L 592.9 703.1 M 592.9 703.1 L 594.3 703.2 M 594.3 703.2 L 595.9 703.3 M 595.9 703.3 L 597.5 703.2 M 597.5 703.2 L 599 703.1 M 599 703.1 L 600.5 702.8 M 600.5 702.8 L 601.8 702.4 M 601.8 702.4 L 603 701.9 M 603 701.9 L 604 701.3 M 604 701.3 L 604.9 700.6 M 604.9 700.6 L 605.6 699.8 M 605.6 699.8 L 606.3 698.8 M 606.3 698.8 L 606.8 697.8 M 606.8 697.8 L 607.2 696.6 M 607.2 696.6 L 607.6 695.3 M 607.6 695.3 L 603.3 694.7 M 603.3 694.7 L 602.9 696 M 602.9 696 L 602.9 696 M 602.9 696 L 602.4 697.1 M 602.4 697.1 L 602.4 697.1 M 602.4 697.1 L 601.8 697.9 M 601.8 697.9 L 601.8 697.9 M 601.8 697.9 L 601.1 698.6 M 601.1 698.6 L 601.1 698.6 M 601.1 698.6 L 600.3 699.1 M 600.3 699.1 L 600.3 699.1 M 600.3 699.1 L 599.2 699.4 M 599.2 699.4 L 599.2 699.4 M 599.2 699.4 L 598 699.6 M 598 699.6 L 598 699.6 M 598 699.6 L 596.6 699.7 M 596.6 699.7 L 596.6 699.7 M 596.6 699.7 L 595 699.6 M 595 699.6 L 595 699.6 M 595 699.6 L 593.6 699.3 M 593.6 699.3 L 593.6 699.3 M 593.6 699.3 L 592.5 698.8 M 592.5 698.8 L 592.5 698.8 M 592.5 698.8 L 591.5 698.2 M 591.5 698.2 L 591.5 698.2 M 591.5 698.2 L 591 697.5 M 591 697.5 L 591 697.5 M 591 697.5 L 590.6 696.7 M 590.6 696.7 L 590.6 696.7 M 590.6 696.7 L 590.3 695.6 M 590.3 695.6 L 590.3 695.6 M 590.3 695.6 L 590.3 694.4 M 590.3 694.4 L 590.3 694.4 M 590.3 694.4 L 590.3 694.2 M 590.3 694.2 L 590.3 694.2 M 590.3 694.2 L 590.3 694 M 590.3 694 L 590.3 694 M 590.3 694 L 590.3 693.6 M 590.3 693.6 L 590.3 693.6 M 590.3 693.6 L 590.3 693.2 M 590.3 693.2 L 590.3 693.2 M 590.3 693.2 L 591.8 692.8 M 591.8 692.8 L 591.8 692.8 M 591.8 692.8 L 593.5 692.4 M 593.5 692.4 L 593.5 692.4 M 593.5 692.4 L 595.6 692 M 595.6 692 L 595.6 692 M 595.6 692 L 598.1 691.7 M 598.1 691.7 L 598.1 691.7 M 598.1 691.7 L 599.4 691.6 M 599.4 691.6 L 600.4 691.4 M 600.4 691.4 L 601.3 691.2 M 601.3 691.2 L 602.1 691 M 602.1 691 L 602.9 690.8 M 602.9 690.8 L 603.7 690.5 M 603.7 690.5 L 604.5 690.1 M 604.5 690.1 L 605.2 689.6 M 605.2 689.6 L 605.9 689.1 M 605.9 689.1 L 606.5 688.5 M 606.5 688.5 L 607 687.9 M 607 687.9 L 607.5 687.1 M 607.5 687.1 L 607.9 686.3 M 607.9 686.3 L 608.1 685.5 M 608.1 685.5 L 608.3 684.5 M 608.3 684.5 L 608.3 683.6 M 608.3 683.6 L 608.2 682.1 M 608.2 682.1 L 607.8 680.7 M 607.8 680.7 L 607 679.4 M 607 679.4 L 606 678.3 M 606 678.3 L 604.8 677.4 M 604.8 677.4 L 603.2 676.8 M 603.2 676.8 L 601.5 676.4 M 601.5 676.4 L 599.5 676.2 M 599.5 676.2 L 598.2 676.3 M 590.3 689.8 L 590.3 689.8 M 590.3 689.8 L 591.7 689.4 M 591.7 689.4 L 593.3 688.9 M 593.3 688.9 L 595.3 688.5 M 595.3 688.5 L 597.5 688.1 M 597.5 688.1 L 598.8 687.9 M 598.8 687.9 L 599.8 687.7 M 599.8 687.7 L 600.6 687.5 M 600.6 687.5 L 601.3 687.3 M 601.3 687.3 L 601.9 687 M 601.9 687 L 602.3 686.7 M 602.3 686.7 L 602.7 686.3 M 602.7 686.3 L 603.1 685.8 M 603.1 685.8 L 603.3 685.3 M 603.3 685.3 L 603.5 684.9 M 603.5 684.9 L 603.6 684.3 M 603.6 684.3 L 603.7 683.8 M 603.7 683.8 L 603.6 682.9 M 603.6 682.9 L 603.3 682.1 M 603.3 682.1 L 602.9 681.4 M 602.9 681.4 L 602.3 680.8 M 602.3 680.8 L 601.6 680.3 M 601.6 680.3 L 600.7 679.9 M 600.7 679.9 L 599.6 679.7 M 599.6 679.7 L 598.4 679.7 M 598.4 679.7 L 597.2 679.7 M 597.2 679.7 L 596 679.9 M 596 679.9 L 594.9 680.3 M 594.9 680.3 L 593.9 680.8 M 593.9 680.8 L 593 681.4 M 593 681.4 L 592.2 682.1 M 592.2 682.1 L 591.6 682.9 M 591.6 682.9 L 591 683.8 M 591 683.8 L 590.7 684.6 M 590.7 684.6 L 590.5 685.6 M 590.5 685.6 L 590.4 686.8 M 590.4 686.8 L 590.3 688.2 M 590.3 688.2 L 590.3 689.8 M 567.2 676.5 L 567.2 676.5 M 567.2 676.5 L 565.3 677.2 M 565.3 677.2 L 563.6 678.4 M 563.6 678.4 L 562.2 680.1 M 562.2 680.1 L 562.2 680.1 M 562.2 680.1 L 562.2 676.8 M 562.2 676.8 L 558.2 676.8 M 558.2 676.8 L 558.2 712.6 M 558.2 712.6 L 562.5 712.6 M 562.5 712.6 L 562.5 699.7 M 562.5 699.7 L 562.5 699.7 M 562.5 699.7 L 563.2 700.5 M 563.2 700.5 L 563.9 701.2 M 563.9 701.2 L 564.6 701.8 M 564.6 701.8 L 565.5 702.3 M 565.5 702.3 L 566.5 702.7 M 566.5 702.7 L 567.5 703.1 M 567.5 703.1 L 568.5 703.2 M 568.5 703.2 L 569.7 703.3 M 569.7 703.3 L 571.2 703.2 M 571.2 703.2 L 572.7 702.9 M 572.7 702.9 L 574.1 702.3 M 574.1 702.3 L 575.5 701.6 M 575.5 701.6 L 576.7 700.7 M 576.7 700.7 L 577.7 699.5 M 577.7 699.5 L 578.6 698.2 M 578.6 698.2 L 579.3 696.8 M 579.3 696.8 L 579.9 695.1 M 579.9 695.1 L 580.3 693.4 M 580.3 693.4 L 580.5 691.6 M 580.5 691.6 L 580.6 689.7 M 580.6 689.7 L 580.5 687.8 M 580.5 687.8 L 580.3 686 M 580.3 686 L 579.8 684.3 M 579.8 684.3 L 579.2 682.7 M 579.2 682.7 L 578.4 681.2 M 578.4 681.2 L 577.5 680 M 577.5 680 L 576.4 678.9 M 576.4 678.9 L 575.2 677.9 M 575.2 677.9 L 573.8 677.2 M 573.8 677.2 L 572.5 676.6 M 572.5 676.6 L 571 676.3 M 571 676.3 L 569.5 676.2 M 569.5 676.2 L 567.2 676.5 M 576.1 689.7 L 576.1 689.7 M 576.1 689.7 L 576 687.4 M 576 687.4 L 575.6 685.4 M 575.6 685.4 L 574.9 683.7 M 574.9 683.7 L 574 682.3 M 574 682.3 L 572.9 681.2 M 572.9 681.2 L 571.8 680.5 M 571.8 680.5 L 570.5 680 M 570.5 680 L 569.1 679.8 M 569.1 679.8 L 567.7 680 M 567.7 680 L 566.4 680.4 M 566.4 680.4 L 565.3 681.2 M 565.3 681.2 L 564.2 682.2 M 564.2 682.2 L 563.3 683.5 M 563.3 683.5 L 562.7 685.1 M 562.7 685.1 L 562.3 687.1 M 562.3 687.1 L 562.1 689.4 M 562.1 689.4 L 562.3 691.8 M 562.3 691.8 L 562.7 694 M 562.7 694 L 563.3 695.8 M 563.3 695.8 L 564.2 697.2 M 564.2 697.2 L 565.3 698.2 M 565.3 698.2 L 566.5 699 M 566.5 699 L 567.8 699.5 M 567.8 699.5 L 569.3 699.7 M 569.3 699.7 L 570.7 699.5 M 570.7 699.5 L 571.9 699.1 M 571.9 699.1 L 573.1 698.3 M 573.1 698.3 L 574.2 697.3 M 574.2 697.3 L 575 695.9 M 575 695.9 L 575.6 694.2 M 575.6 694.2 L 576 692.1 M 576 692.1 L 576.1 689.7 M 538.2 676.4 L 538.2 676.4 M 538.2 676.4 L 536.2 676.8 M 536.2 676.8 L 534.5 677.5 M 534.5 677.5 L 532.9 678.4 M 532.9 678.4 L 531.6 679.6 M 531.6 679.6 L 530.5 681 M 530.5 681 L 529.6 682.7 M 529.6 682.7 L 529 684.5 M 529 684.5 L 533.5 685.1 M 533.5 685.1 L 534 683.8 M 534 683.8 L 534 683.8 M 534 683.8 L 534.7 682.7 M 534.7 682.7 L 534.7 682.7 M 534.7 682.7 L 535.4 681.8 M 535.4 681.8 L 535.4 681.8 M 535.4 681.8 L 536.2 681.1 M 536.2 681.1 L 536.2 681.1 M 536.2 681.1 L 537.1 680.5 M 537.1 680.5 L 537.1 680.5 M 537.1 680.5 L 538.1 680.1 M 538.1 680.1 L 538.1 680.1 M 538.1 680.1 L 539.2 679.9 M 539.2 679.9 L 539.2 679.9 M 539.2 679.9 L 540.3 679.8 M 540.3 679.8 L 540.3 679.8 M 540.3 679.8 L 541.9 679.9 M 541.9 679.9 L 541.9 679.9 M 541.9 679.9 L 543.3 680.4 M 543.3 680.4 L 543.3 680.4 M 543.3 680.4 L 544.6 681.1 M 544.6 681.1 L 544.6 681.1 M 544.6 681.1 L 545.8 682.1 M 545.8 682.1 L 545.8 682.1 M 545.8 682.1 L 546.8 683.3 M 546.8 683.3 L 546.8 683.3 M 546.8 683.3 L 547.5 684.9 M 547.5 684.9 L 547.5 684.9 M 547.5 684.9 L 547.9 686.6 M 547.9 686.6 L 547.9 686.6 M 547.9 686.6 L 548.2 688.6 M 548.2 688.6 L 548.2 688.6 M 548.2 688.6 L 528.8 688.6 M 528.8 688.6 L 528.8 689 M 528.8 689 L 528.8 689.3 M 528.8 689.3 L 528.8 689.6 M 528.8 689.6 L 528.8 689.8 M 528.8 689.8 L 529 692.8 M 529 692.8 L 529.7 695.5 M 529.7 695.5 L 530.7 697.8 M 530.7 697.8 L 532.1 699.7 M 532.1 699.7 L 533.9 701.3 M 533.9 701.3 L 535.9 702.4 M 535.9 702.4 L 538.1 703.1 M 538.1 703.1 L 540.6 703.3 M 540.6 703.3 L 543.2 703.1 M 543.2 703.1 L 545.5 702.4 M 545.5 702.4 L 547.5 701.2 M 547.5 701.2 L 549.3 699.7 M 549.3 699.7 L 550.8 697.7 M 550.8 697.7 L 551.9 695.3 M 551.9 695.3 L 552.5 692.6 M 552.5 692.6 L 552.7 689.5 M 552.7 689.5 L 552.5 686.6 M 552.5 686.6 L 551.9 683.9 M 551.9 683.9 L 550.8 681.6 M 550.8 681.6 L 549.4 679.7 M 549.4 679.7 L 547.5 678.2 M 547.5 678.2 L 545.5 677.1 M 545.5 677.1 L 543.1 676.4 M 543.1 676.4 L 540.4 676.2 M 540.4 676.2 L 538.2 676.4 M 547.9 692.3 L 547.9 692.3 M 547.9 692.3 L 533.4 692.3 M 533.4 692.3 L 533.7 693.8 M 533.7 693.8 L 534 695.1 M 534 695.1 L 534.5 696.2 M 534.5 696.2 L 535.1 697.1 M 535.1 697.1 L 536.2 698.2 M 536.2 698.2 L 537.5 699.1 M 537.5 699.1 L 539 699.5 M 539 699.5 L 540.6 699.7 M 540.6 699.7 L 542 699.5 M 542 699.5 L 543.3 699.2 M 543.3 699.2 L 544.5 698.6 M 544.5 698.6 L 545.6 697.7 M 545.6 697.7 L 546.6 696.6 M 546.6 696.6 L 547.3 695.3 M 547.3 695.3 L 547.7 693.8 M 547.7 693.8 L 547.9 692.3 M 519.1 690.4 L 519.1 690.4 M 519.1 690.4 L 519.1 690.4 M 519.1 690.4 L 519.1 691.7 M 519.1 691.7 L 519.1 691.7 M 519.1 691.7 L 518.9 693.1 M 518.9 693.1 L 518.9 693.1 M 518.9 693.1 L 518.7 694.3 M 518.7 694.3 L 518.7 694.3 M 518.7 694.3 L 518.4 695.5 M 518.4 695.5 L 518.4 695.5 M 518.4 695.5 L 518.1 696.2 M 518.1 696.2 L 518.1 696.2 M 518.1 696.2 L 517.7 696.9 M 517.7 696.9 L 517.7 696.9 M 517.7 696.9 L 517.3 697.4 M 517.3 697.4 L 517.3 697.4 M 517.3 697.4 L 516.8 697.9 M 516.8 697.9 L 516.8 697.9 M 516.8 697.9 L 516.2 698.3 M 516.2 698.3 L 516.2 698.3 M 516.2 698.3 L 515.5 698.6 M 515.5 698.6 L 515.5 698.6 M 515.5 698.6 L 514.9 698.7 M 514.9 698.7 L 514.8 698.7 M 514.8 698.7 L 514.2 698.8 M 514.2 698.8 L 514.2 698.8 M 514.2 698.8 L 513.3 698.7 M 513.3 698.7 L 513.3 698.7 M 513.3 698.7 L 512.5 698.6 M 512.5 698.6 L 512.5 698.6 M 512.5 698.6 L 511.7 698.2 M 511.7 698.2 L 511.7 698.2 M 511.7 698.2 L 510.9 697.9 M 510.9 697.9 L 509.4 701.9 M 509.4 701.9 L 510.6 702.5 M 510.6 702.5 L 511.7 702.9 M 511.7 702.9 L 512.8 703.2 M 512.8 703.2 L 513.9 703.3 M 513.9 703.3 L 514.7 703.2 M 514.7 703.2 L 515.4 703.1 M 515.4 703.1 L 516.1 702.8 M 516.1 702.8 L 516.7 702.4 M 516.7 702.4 L 517.4 701.9 M 517.4 701.9 L 518.1 701.1 M 518.1 701.1 L 518.8 700.1 M 518.8 700.1 L 519.5 698.8 M 519.5 698.8 L 519.5 698.8 M 519.5 698.8 L 519.5 702.7 M 519.5 702.7 L 523.5 702.7 M 523.5 702.7 L 523.5 676.8 M 523.5 676.8 L 519.1 676.8 M 519.1 676.8 L 519.1 690.4 M 484.3 676.3 L 484.3 676.3 M 484.3 676.3 L 483 676.4 M 483 676.4 L 481.8 676.7 M 481.8 676.7 L 480.7 677.1 M 480.7 677.1 L 479.5 677.6 M 479.5 677.6 L 478.4 678.2 M 478.4 678.2 L 477.2 679 M 477.2 679 L 476 680 M 476 680 L 476 680 M 476 680 L 475.8 679.1 M 475.8 679.1 L 475.6 678.3 M 475.6 678.3 L 475.4 677.5 M 475.4 677.5 L 475.1 676.8 M 475.1 676.8 L 470.5 676.8 M 470.5 676.8 L 470.9 677.5 M 470.9 677.5 L 470.9 677.5 M 470.9 677.5 L 471.2 678.3 M 471.2 678.3 L 471.2 678.3 M 471.2 678.3 L 471.5 679.1 M 471.5 679.1 L 471.5 679.1 M 471.5 679.1 L 471.6 679.9 M 471.6 679.9 L 471.6 679.9 M 471.6 679.9 L 471.8 681 M 471.8 681 L 471.8 681 M 471.8 681 L 471.9 682.7 M 471.9 682.7 L 471.9 682.7 M 471.9 682.7 L 471.9 684.9 M 471.9 684.9 L 471.9 684.9 M 471.9 684.9 L 471.9 687.7 M 471.9 687.7 L 471.9 687.7 M 471.9 687.7 L 471.9 693.5 M 471.9 693.5 L 471.9 694.9 M 471.9 694.9 L 472 696 M 472 696 L 472 696.9 M 472 696.9 L 472.1 697.6 M 472.1 697.6 L 472.4 698.4 M 472.4 698.4 L 472.7 699.2 M 472.7 699.2 L 473.1 699.9 M 473.1 699.9 L 473.5 700.5 M 473.5 700.5 L 474.1 701.1 M 474.1 701.1 L 474.7 701.6 M 474.7 701.6 L 475.6 702.1 M 475.6 702.1 L 476.6 702.5 M 476.6 702.5 L 477.7 702.9 M 477.7 702.9 L 478.9 703.1 M 478.9 703.1 L 480.4 703.2 M 480.4 703.2 L 481.9 703.3 M 481.9 703.3 L 483.6 703.2 M 483.6 703.2 L 485.1 703.1 M 485.1 703.1 L 486.5 702.8 M 486.5 702.8 L 487.8 702.4 M 487.8 702.4 L 489 701.9 M 489 701.9 L 490.1 701.3 M 490.1 701.3 L 490.9 700.6 M 490.9 700.6 L 491.7 699.8 M 491.7 699.8 L 492.3 698.8 M 492.3 698.8 L 492.9 697.8 M 492.9 697.8 L 493.3 696.6 M 493.3 696.6 L 493.6 695.3 M 493.6 695.3 L 489.4 694.7 M 489.4 694.7 L 489 696 M 489 696 L 489 696 M 489 696 L 488.4 697.1 M 488.4 697.1 L 488.4 697.1 M 488.4 697.1 L 487.9 697.9 M 487.9 697.9 L 487.9 697.9 M 487.9 697.9 L 487.1 698.6 M 487.1 698.6 L 487.1 698.6 M 487.1 698.6 L 486.3 699.1 M 486.3 699.1 L 486.3 699.1 M 486.3 699.1 L 485.3 699.4 M 485.3 699.4 L 485.3 699.4 M 485.3 699.4 L 484 699.6 M 484 699.6 L 484 699.6 M 484 699.6 L 482.6 699.7 M 482.6 699.7 L 482.6 699.7 M 482.6 699.7 L 481 699.6 M 481 699.6 L 481 699.6 M 481 699.6 L 479.7 699.3 M 479.7 699.3 L 479.7 699.3 M 479.7 699.3 L 478.5 698.8 M 478.5 698.8 L 478.5 698.8 M 478.5 698.8 L 477.5 698.2 M 477.5 698.2 L 477.5 698.2 M 477.5 698.2 L 477 697.5 M 477 697.5 L 477 697.5 M 477 697.5 L 476.6 696.7 M 476.6 696.7 L 476.6 696.7 M 476.6 696.7 L 476.4 695.6 M 476.4 695.6 L 476.4 695.6 M 476.4 695.6 L 476.3 694.4 M 476.3 694.4 L 476.3 694.4 M 476.3 694.4 L 476.3 694.2 M 476.3 694.2 L 476.3 694.2 M 476.3 694.2 L 476.3 694 M 476.3 694 L 476.3 694 M 476.3 694 L 476.3 693.6 M 476.3 693.6 L 476.3 693.6 M 476.3 693.6 L 476.3 693.2 M 476.3 693.2 L 476.3 693.2 M 476.3 693.2 L 477.8 692.8 M 477.8 692.8 L 477.8 692.8 M 477.8 692.8 L 479.5 692.4 M 479.5 692.4 L 479.5 692.4 M 479.5 692.4 L 481.7 692 M 481.7 692 L 481.7 692 M 481.7 692 L 484.2 691.7 M 484.2 691.7 L 484.2 691.7 M 484.2 691.7 L 485.4 691.6 M 485.4 691.6 L 486.5 691.4 M 486.5 691.4 L 487.3 691.2 M 487.3 691.2 L 488.1 691 M 488.1 691 L 489 690.8 M 489 690.8 L 489.7 690.5 M 489.7 690.5 L 490.5 690.1 M 490.5 690.1 L 491.2 689.6 M 491.2 689.6 L 491.9 689.1 M 491.9 689.1 L 492.5 688.5 M 492.5 688.5 L 493.1 687.9 M 493.1 687.9 L 493.5 687.1 M 493.5 687.1 L 493.9 686.3 M 493.9 686.3 L 494.2 685.5 M 494.2 685.5 L 494.3 684.5 M 494.3 684.5 L 494.4 683.6 M 494.4 683.6 L 494.2 682.1 M 494.2 682.1 L 493.8 680.7 M 493.8 680.7 L 493.1 679.4 M 493.1 679.4 L 492.1 678.3 M 492.1 678.3 L 490.8 677.4 M 490.8 677.4 L 489.3 676.8 M 489.3 676.8 L 487.5 676.4 M 487.5 676.4 L 485.5 676.2 M 485.5 676.2 L 484.3 676.3 M 476.4 689.8 L 476.4 689.8 M 476.4 689.8 L 477.7 689.4 M 477.7 689.4 L 479.4 688.9 M 479.4 688.9 L 481.3 688.5 M 481.3 688.5 L 483.5 688.1 M 483.5 688.1 L 484.8 687.9 M 484.8 687.9 L 485.8 687.7 M 485.8 687.7 L 486.7 687.5 M 486.7 687.5 L 487.3 687.3 M 487.3 687.3 L 487.9 687 M 487.9 687 L 488.4 686.7 M 488.4 686.7 L 488.8 686.3 M 488.8 686.3 L 489.1 685.8 M 489.1 685.8 L 489.4 685.3 M 489.4 685.3 L 489.5 684.9 M 489.5 684.9 L 489.7 684.3 M 489.7 684.3 L 489.7 683.8 M 489.7 683.8 L 489.6 682.9 M 489.6 682.9 L 489.4 682.1 M 489.4 682.1 L 489 681.4 M 489 681.4 L 488.4 680.8 M 488.4 680.8 L 487.6 680.3 M 487.6 680.3 L 486.7 679.9 M 486.7 679.9 L 485.7 679.7 M 485.7 679.7 L 484.5 679.7 M 484.5 679.7 L 483.2 679.7 M 483.2 679.7 L 482.1 679.9 M 482.1 679.9 L 481 680.3 M 481 680.3 L 479.9 680.8 M 479.9 680.8 L 479 681.4 M 479 681.4 L 478.2 682.1 M 478.2 682.1 L 477.6 682.9 M 477.6 682.9 L 477.1 683.8 M 477.1 683.8 L 476.8 684.6 M 476.8 684.6 L 476.5 685.6 M 476.5 685.6 L 476.4 686.8 M 476.4 686.8 L 476.4 688.2 M 476.4 688.2 L 476.4 689.8 M 453.3 676.5 L 453.3 676.5 M 453.3 676.5 L 451.3 677.2 M 451.3 677.2 L 449.7 678.4 M 449.7 678.4 L 448.3 680.1 M 448.3 680.1 L 448.2 680.1 M 448.2 680.1 L 448.2 676.8 M 448.2 676.8 L 444.2 676.8 M 444.2 676.8 L 444.2 712.6 M 444.2 712.6 L 448.5 712.6 M 448.5 712.6 L 448.5 699.7 M 448.5 699.7 L 448.6 699.7 M 448.6 699.7 L 449.2 700.5 M 449.2 700.5 L 449.9 701.2 M 449.9 701.2 L 450.7 701.8 M 450.7 701.8 L 451.6 702.3 M 451.6 702.3 L 452.5 702.7 M 452.5 702.7 L 453.5 703.1 M 453.5 703.1 L 454.6 703.2 M 454.6 703.2 L 455.7 703.3 M 455.7 703.3 L 457.3 703.2 M 457.3 703.2 L 458.8 702.9 M 458.8 702.9 L 460.2 702.3 M 460.2 702.3 L 461.5 701.6 M 461.5 701.6 L 462.7 700.7 M 462.7 700.7 L 463.8 699.5 M 463.8 699.5 L 464.6 698.2 M 464.6 698.2 L 465.4 696.8 M 465.4 696.8 L 465.9 695.1 M 465.9 695.1 L 466.3 693.4 M 466.3 693.4 L 466.6 691.6 M 466.6 691.6 L 466.7 689.7 M 466.7 689.7 L 466.6 687.8 M 466.6 687.8 L 466.3 686 M 466.3 686 L 465.8 684.3 M 465.8 684.3 L 465.2 682.7 M 465.2 682.7 L 464.4 681.2 M 464.4 681.2 L 463.5 680 M 463.5 680 L 462.4 678.9 M 462.4 678.9 L 461.2 677.9 M 461.2 677.9 L 459.9 677.2 M 459.9 677.2 L 458.5 676.6 M 458.5 676.6 L 457 676.3 M 457 676.3 L 455.5 676.2 M 455.5 676.2 L 453.3 676.5 M 462.1 689.7 L 462.1 689.7 M 462.1 689.7 L 462 687.4 M 462 687.4 L 461.6 685.4 M 461.6 685.4 L 461 683.7 M 461 683.7 L 460.1 682.3 M 460.1 682.3 L 459 681.2 M 459 681.2 L 457.8 680.5 M 457.8 680.5 L 456.5 680 M 456.5 680 L 455.1 679.8 M 455.1 679.8 L 453.7 680 M 453.7 680 L 452.5 680.4 M 452.5 680.4 L 451.3 681.2 M 451.3 681.2 L 450.2 682.2 M 450.2 682.2 L 449.3 683.5 M 449.3 683.5 L 448.7 685.1 M 448.7 685.1 L 448.3 687.1 M 448.3 687.1 L 448.2 689.4 M 448.2 689.4 L 448.3 691.8 M 448.3 691.8 L 448.7 694 M 448.7 694 L 449.4 695.8 M 449.4 695.8 L 450.3 697.2 M 450.3 697.2 L 451.3 698.2 M 451.3 698.2 L 452.5 699 M 452.5 699 L 453.9 699.5 M 453.9 699.5 L 455.3 699.7 M 455.3 699.7 L 456.7 699.5 M 456.7 699.5 L 458 699.1 M 458 699.1 L 459.2 698.3 M 459.2 698.3 L 460.2 697.3 M 460.2 697.3 L 461 695.9 M 461 695.9 L 461.7 694.2 M 461.7 694.2 L 462 692.1 M 462 692.1 L 462.1 689.7 M 428.6 676.3 L 428.6 676.3 M 428.6 676.3 L 427.4 676.4 M 427.4 676.4 L 426.2 676.7 M 426.2 676.7 L 425.1 677.1 M 425.1 677.1 L 423.9 677.6 M 423.9 677.6 L 422.8 678.2 M 422.8 678.2 L 421.6 679 M 421.6 679 L 420.4 680 M 420.4 680 L 420.3 680 M 420.3 680 L 420.2 679.1 M 420.2 679.1 L 420 678.3 M 420 678.3 L 419.8 677.5 M 419.8 677.5 L 419.5 676.8 M 419.5 676.8 L 414.9 676.8 M 414.9 676.8 L 415.3 677.5 M 415.3 677.5 L 415.3 677.5 M 415.3 677.5 L 415.6 678.3 M 415.6 678.3 L 415.6 678.3 M 415.6 678.3 L 415.8 679.1 M 415.8 679.1 L 415.8 679.1 M 415.8 679.1 L 416 679.9 M 416 679.9 L 416 679.9 M 416 679.9 L 416.2 681 M 416.2 681 L 416.2 681 M 416.2 681 L 416.2 682.7 M 416.2 682.7 L 416.2 682.7 M 416.2 682.7 L 416.3 684.9 M 416.3 684.9 L 416.3 684.9 M 416.3 684.9 L 416.3 687.7 M 416.3 687.7 L 416.3 687.7 M 416.3 687.7 L 416.3 693.5 M 416.3 693.5 L 416.3 694.9 M 416.3 694.9 L 416.4 696 M 416.4 696 L 416.4 696.9 M 416.4 696.9 L 416.5 697.6 M 416.5 697.6 L 416.8 698.4 M 416.8 698.4 L 417.1 699.2 M 417.1 699.2 L 417.4 699.9 M 417.4 699.9 L 417.9 700.5 M 417.9 700.5 L 418.4 701.1 M 418.4 701.1 L 419.2 701.6 M 419.2 701.6 L 420 702.1 M 420 702.1 L 420.9 702.5 M 420.9 702.5 L 422 702.9 M 422 702.9 L 423.3 703.1 M 423.3 703.1 L 424.7 703.2 M 424.7 703.2 L 426.3 703.3 M 426.3 703.3 L 427.9 703.2 M 427.9 703.2 L 429.5 703.1 M 429.5 703.1 L 430.9 702.8 M 430.9 702.8 L 432.2 702.4 M 432.2 702.4 L 433.4 701.9 M 433.4 701.9 L 434.4 701.3 M 434.4 701.3 L 435.3 700.6 M 435.3 700.6 L 436.1 699.8 M 436.1 699.8 L 436.7 698.8 M 436.7 698.8 L 437.2 697.8 M 437.2 697.8 L 437.7 696.6 M 437.7 696.6 L 438 695.3 M 438 695.3 L 433.7 694.7 M 433.7 694.7 L 433.3 696 M 433.3 696 L 433.3 696 M 433.3 696 L 432.9 697.1 M 432.9 697.1 L 432.9 697.1 M 432.9 697.1 L 432.2 697.9 M 432.2 697.9 L 432.2 697.9 M 432.2 697.9 L 431.6 698.6 M 431.6 698.6 L 431.6 698.6 M 431.6 698.6 L 430.7 699.1 M 430.7 699.1 L 430.7 699.1 M 430.7 699.1 L 429.7 699.4 M 429.7 699.4 L 429.7 699.4 M 429.7 699.4 L 428.4 699.6 M 428.4 699.6 L 428.4 699.6 M 428.4 699.6 L 426.9 699.7 M 426.9 699.7 L 426.9 699.7 M 426.9 699.7 L 425.4 699.6 M 425.4 699.6 L 425.4 699.6 M 425.4 699.6 L 424 699.3 M 424 699.3 L 424 699.3 M 424 699.3 L 422.9 698.8 M 422.9 698.8 L 422.9 698.8 M 422.9 698.8 L 421.9 698.2 M 421.9 698.2 L 421.9 698.2 M 421.9 698.2 L 421.4 697.5 M 421.4 697.5 L 421.4 697.5 M 421.4 697.5 L 421 696.7 M 421 696.7 L 421 696.7 M 421 696.7 L 420.8 695.6 M 420.8 695.6 L 420.8 695.6 M 420.8 695.6 L 420.7 694.4 M 420.7 694.4 L 420.7 694.4 M 420.7 694.4 L 420.7 694.2 M 420.7 694.2 L 420.7 694.2 M 420.7 694.2 L 420.7 694 M 420.7 694 L 420.7 694 M 420.7 694 L 420.7 693.6 M 420.7 693.6 L 420.7 693.6 M 420.7 693.6 L 420.7 693.2 M 420.7 693.2 L 420.7 693.2 M 420.7 693.2 L 422.1 692.8 M 422.1 692.8 L 422.1 692.8 M 422.1 692.8 L 424 692.4 M 424 692.4 L 424 692.4 M 424 692.4 L 426.1 692 M 426.1 692 L 426.1 692 M 426.1 692 L 428.6 691.7 M 428.6 691.7 L 428.6 691.7 M 428.6 691.7 L 429.8 691.6 M 429.8 691.6 L 430.8 691.4 M 430.8 691.4 L 431.8 691.2 M 431.8 691.2 L 432.5 691 M 432.5 691 L 433.3 690.8 M 433.3 690.8 L 434.2 690.5 M 434.2 690.5 L 434.9 690.1 M 434.9 690.1 L 435.6 689.6 M 435.6 689.6 L 436.3 689.1 M 436.3 689.1 L 436.9 688.5 M 436.9 688.5 L 437.4 687.9 M 437.4 687.9 L 437.9 687.1 M 437.9 687.1 L 438.2 686.3 M 438.2 686.3 L 438.5 685.5 M 438.5 685.5 L 438.7 684.5 M 438.7 684.5 L 438.8 683.6 M 438.8 683.6 L 438.6 682.1 M 438.6 682.1 L 438.2 680.7 M 438.2 680.7 L 437.5 679.4 M 437.5 679.4 L 436.5 678.3 M 436.5 678.3 L 435.2 677.4 M 435.2 677.4 L 433.7 676.8 M 433.7 676.8 L 431.9 676.4 M 431.9 676.4 L 429.9 676.2 M 429.9 676.2 L 428.6 676.3 M 420.7 689.8 L 420.7 689.8 M 420.7 689.8 L 422.1 689.4 M 422.1 689.4 L 423.7 688.9 M 423.7 688.9 L 425.6 688.5 M 425.6 688.5 L 427.9 688.1 M 427.9 688.1 L 429.2 687.9 M 429.2 687.9 L 430.2 687.7 M 430.2 687.7 L 431.1 687.5 M 431.1 687.5 L 431.8 687.3 M 431.8 687.3 L 432.3 687 M 432.3 687 L 432.7 686.7 M 432.7 686.7 L 433.1 686.3 M 433.1 686.3 L 433.5 685.8 M 433.5 685.8 L 433.8 685.3 M 433.8 685.3 L 433.9 684.9 M 433.9 684.9 L 434 684.3 M 434 684.3 L 434.1 683.8 M 434.1 683.8 L 434 682.9 M 434 682.9 L 433.8 682.1 M 433.8 682.1 L 433.3 681.4 M 433.3 681.4 L 432.7 680.8 M 432.7 680.8 L 432 680.3 M 432 680.3 L 431.1 679.9 M 431.1 679.9 L 430.1 679.7 M 430.1 679.7 L 428.9 679.7 M 428.9 679.7 L 427.6 679.7 M 427.6 679.7 L 426.5 679.9 M 426.5 679.9 L 425.4 680.3 M 425.4 680.3 L 424.4 680.8 M 424.4 680.8 L 423.4 681.4 M 423.4 681.4 L 422.6 682.1 M 422.6 682.1 L 421.9 682.9 M 421.9 682.9 L 421.4 683.8 M 421.4 683.8 L 421.1 684.6 M 421.1 684.6 L 420.9 685.6 M 420.9 685.6 L 420.8 686.8 M 420.8 686.8 L 420.7 688.2 M 420.7 688.2 L 420.7 689.8 M 405.1 679.5 L 405.1 679.5 M 405.1 679.5 L 405.1 679.5 M 405.1 679.5 L 404.5 678.8 M 404.5 678.8 L 403.8 678.2 M 403.8 678.2 L 403.1 677.7 M 403.1 677.7 L 402.2 677.1 M 402.2 677.1 L 401.3 676.8 M 401.3 676.8 L 400.3 676.5 M 400.3 676.5 L 399.4 676.3 M 399.4 676.3 L 398.3 676.2 M 398.3 676.2 L 396.8 676.3 M 396.8 676.3 L 395.3 676.6 M 395.3 676.6 L 393.9 677.2 M 393.9 677.2 L 392.5 677.9 M 392.5 677.9 L 391.3 678.9 M 391.3 678.9 L 390.2 680 M 390.2 680 L 389.2 681.3 M 389.2 681.3 L 388.4 682.8 M 388.4 682.8 L 387.8 684.4 M 387.8 684.4 L 387.3 686.2 M 387.3 686.2 L 387.1 688 M 387.1 688 L 387 689.9 M 387 689.9 L 387.1 691.8 M 387.1 691.8 L 387.3 693.5 M 387.3 693.5 L 387.7 695.2 M 387.7 695.2 L 388.3 696.8 M 388.3 696.8 L 389 698.2 M 389 698.2 L 389.9 699.5 M 389.9 699.5 L 390.9 700.6 M 390.9 700.6 L 392.1 701.6 M 392.1 701.6 L 393.4 702.3 M 393.4 702.3 L 394.8 702.9 M 394.8 702.9 L 396.4 703.2 M 396.4 703.2 L 397.9 703.3 M 397.9 703.3 L 399.2 703.2 M 399.2 703.2 L 400.3 703.1 M 400.3 703.1 L 401.3 702.7 M 401.3 702.7 L 402.3 702.3 M 402.3 702.3 L 403.1 701.8 M 403.1 701.8 L 404 701.1 M 404 701.1 L 404.7 700.3 M 404.7 700.3 L 405.5 699.3 M 405.5 699.3 L 405.5 699.4 M 405.5 699.4 L 405.5 702.7 M 405.5 702.7 L 409.5 702.7 M 409.5 702.7 L 409.5 666.9 M 409.5 666.9 L 405.1 666.9 M 405.1 666.9 L 405.1 679.5 M 405.5 689.6 L 405.5 689.6 M 405.5 689.6 L 405.4 687.3 M 405.4 687.3 L 405 685.3 M 405 685.3 L 404.4 683.6 M 404.4 683.6 L 403.5 682.2 M 403.5 682.2 L 402.4 681.2 M 402.4 681.2 L 401.2 680.4 M 401.2 680.4 L 399.9 680 M 399.9 680 L 398.6 679.8 M 398.6 679.8 L 397.1 680 M 397.1 680 L 395.8 680.5 M 395.8 680.5 L 394.6 681.2 M 394.6 681.2 L 393.6 682.3 M 393.6 682.3 L 392.6 683.7 M 392.6 683.7 L 392 685.5 M 392 685.5 L 391.6 687.5 M 391.6 687.5 L 391.5 690 M 391.5 690 L 391.6 692.3 M 391.6 692.3 L 391.9 694.3 M 391.9 694.3 L 392.6 696 M 392.6 696 L 393.5 697.4 M 393.5 697.4 L 394.5 698.5 M 394.5 698.5 L 395.7 699.2 M 395.7 699.2 L 397 699.7 M 397 699.7 L 398.4 699.9 M 398.4 699.9 L 399.7 699.7 M 399.7 699.7 L 401 699.2 M 401 699.2 L 402.2 698.4 M 402.2 698.4 L 403.3 697.2 M 403.3 697.2 L 404.3 695.8 M 404.3 695.8 L 404.9 694 M 404.9 694 L 405.4 691.9 M 405.4 691.9 L 405.5 689.6 M 374 676.5 L 374 676.5 M 374 676.5 L 373.2 676.6 M 373.2 676.6 L 372.3 676.7 M 372.3 676.7 L 371.5 676.9 M 371.5 676.9 L 372.1 680.7 M 372.1 680.7 L 372.7 680.6 M 372.7 680.6 L 372.7 680.6 M 372.7 680.6 L 373.2 680.6 M 373.2 680.6 L 373.2 680.6 M 373.2 680.6 L 373.6 680.5 M 373.6 680.5 L 373.6 680.5 M 373.6 680.5 L 374 680.5 M 374 680.5 L 374 680.5 M 374 680.5 L 374.5 680.5 M 374.5 680.5 L 374.5 680.5 M 374.5 680.5 L 374.9 680.6 M 374.9 680.6 L 374.9 680.6 M 374.9 680.6 L 375.2 680.7 M 375.2 680.7 L 375.2 680.7 M 375.2 680.7 L 375.5 680.8 M 375.5 680.8 L 375.5 680.8 M 375.5 680.8 L 375.8 681 M 375.8 681 L 375.8 681 M 375.8 681 L 376 681.2 M 376 681.2 L 376 681.2 M 376 681.2 L 376.1 681.5 M 376.1 681.5 L 376.2 681.5 M 376.2 681.5 L 376.3 681.7 M 376.3 681.7 L 376.3 681.7 M 376.3 681.7 L 376.4 682.1 M 376.4 682.1 L 376.4 682.1 M 376.4 682.1 L 376.4 682.6 M 376.4 682.6 L 376.4 682.6 M 376.4 682.6 L 376.5 683.3 M 376.5 683.3 L 376.5 683.3 M 376.5 683.3 L 376.5 684.2 M 376.5 684.2 L 376.5 684.2 M 376.5 684.2 L 376.5 699.3 M 376.5 699.3 L 376.5 699.3 M 376.5 699.3 L 372.1 699.3 M 372.1 699.3 L 372.1 702.7 M 372.1 702.7 L 376.5 702.7 M 376.5 702.7 L 376.5 702.7 M 376.5 702.7 L 376.5 711.8 M 376.5 711.8 L 380.8 709.1 M 380.8 709.1 L 380.8 702.7 M 380.8 702.7 L 380.8 702.7 M 380.8 702.7 L 384.1 702.7 M 384.1 702.7 L 384.1 699.3 M 384.1 699.3 L 380.8 699.3 M 380.8 699.3 L 380.8 699.3 M 380.8 699.3 L 380.8 684.4 M 380.8 684.4 L 380.8 682.6 M 380.8 682.6 L 380.7 681.1 M 380.7 681.1 L 380.5 680 M 380.5 680 L 380.3 679.2 M 380.3 679.2 L 380 678.6 M 380 678.6 L 379.6 678.1 M 379.6 678.1 L 379.1 677.6 M 379.1 677.6 L 378.4 677.2 M 378.4 677.2 L 377.7 676.9 M 377.7 676.9 L 376.9 676.7 M 376.9 676.7 L 375.9 676.5 M 375.9 676.5 L 374.7 676.5 M 374.7 676.5 L 374 676.5 M 355.6 676.3 L 355.6 676.3 M 355.6 676.3 L 354 676.6 M 354 676.6 L 352.5 677.1 M 352.5 677.1 L 351 677.8 M 351 677.8 L 349.7 678.7 M 349.7 678.7 L 348.5 679.7 M 348.5 679.7 L 347.5 680.9 M 347.5 680.9 L 346.6 682.3 M 346.6 682.3 L 346 683.8 M 346 683.8 L 345.5 685.6 M 345.5 685.6 L 345.2 687.7 M 345.2 687.7 L 345.1 690.1 M 345.1 690.1 L 345.3 693.1 M 345.3 693.1 L 346 695.6 M 346 695.6 L 347 697.9 M 347 697.9 L 348.5 699.8 M 348.5 699.8 L 350.3 701.3 M 350.3 701.3 L 352.4 702.4 M 352.4 702.4 L 354.7 703.1 M 354.7 703.1 L 357.3 703.3 M 357.3 703.3 L 359.5 703.1 M 359.5 703.1 L 361.7 702.6 M 361.7 702.6 L 363.6 701.7 M 363.6 701.7 L 365.4 700.4 M 365.4 700.4 L 367.1 698.4 M 367.1 698.4 L 368.4 696 M 368.4 696 L 369.2 693.1 M 369.2 693.1 L 369.4 689.7 M 369.4 689.7 L 369.2 686.7 M 369.2 686.7 L 368.6 684 M 368.6 684 L 367.5 681.6 M 367.5 681.6 L 366 679.7 M 366 679.7 L 364.2 678.2 M 364.2 678.2 L 362.2 677.1 M 362.2 677.1 L 359.8 676.4 M 359.8 676.4 L 357.3 676.2 M 357.3 676.2 L 355.6 676.3 M 364.9 689.7 L 364.9 689.7 M 364.9 689.7 L 364.7 687.4 M 364.7 687.4 L 364.4 685.4 M 364.4 685.4 L 363.7 683.7 M 363.7 683.7 L 362.7 682.3 M 362.7 682.3 L 361.6 681.2 M 361.6 681.2 L 360.3 680.5 M 360.3 680.5 L 358.8 680 M 358.8 680 L 357.3 679.8 M 357.3 679.8 L 355.7 680 M 355.7 680 L 354.3 680.5 M 354.3 680.5 L 353 681.2 M 353 681.2 L 351.8 682.3 M 351.8 682.3 L 350.8 683.7 M 350.8 683.7 L 350.2 685.5 M 350.2 685.5 L 349.8 687.5 M 349.8 687.5 L 349.6 689.9 M 349.6 689.9 L 349.8 692.1 M 349.8 692.1 L 350.2 694.1 M 350.2 694.1 L 350.8 695.8 M 350.8 695.8 L 351.8 697.2 M 351.8 697.2 L 353 698.3 M 353 698.3 L 354.3 699 M 354.3 699 L 355.7 699.5 M 355.7 699.5 L 357.3 699.7 M 357.3 699.7 L 358.8 699.5 M 358.8 699.5 L 360.3 699 M 360.3 699 L 361.6 698.3 M 361.6 698.3 L 362.7 697.2 M 362.7 697.2 L 363.7 695.8 M 363.7 695.8 L 364.4 694.1 M 364.4 694.1 L 364.7 692.1 M 364.7 692.1 L 364.9 689.7 M 335.6 690.4 L 335.6 690.4 M 335.6 690.4 L 335.6 690.4 M 335.6 690.4 L 335.6 691.7 M 335.6 691.7 L 335.6 691.7 M 335.6 691.7 L 335.5 693.1 M 335.5 693.1 L 335.5 693.1 M 335.5 693.1 L 335.2 694.3 M 335.2 694.3 L 335.2 694.3 M 335.2 694.3 L 334.9 695.5 M 334.9 695.5 L 334.9 695.5 M 334.9 695.5 L 334.6 696.2 M 334.6 696.2 L 334.6 696.2 M 334.6 696.2 L 334.3 696.9 M 334.3 696.9 L 334.3 696.9 M 334.3 696.9 L 333.8 697.4 M 333.8 697.4 L 333.8 697.4 M 333.8 697.4 L 333.2 697.9 M 333.2 697.9 L 333.2 697.9 M 333.2 697.9 L 332.7 698.3 M 332.7 698.3 L 332.7 698.3 M 332.7 698.3 L 332 698.6 M 332 698.6 L 332 698.6 M 332 698.6 L 331.4 698.7 M 331.4 698.7 L 331.4 698.7 M 331.4 698.7 L 330.6 698.8 M 330.6 698.8 L 330.6 698.8 M 330.6 698.8 L 329.9 698.7 M 329.9 698.7 L 329.9 698.7 M 329.9 698.7 L 329 698.6 M 329 698.6 L 329 698.6 M 329 698.6 L 328.2 698.2 M 328.2 698.2 L 328.2 698.2 M 328.2 698.2 L 327.5 697.9 M 327.5 697.9 L 326 701.9 M 326 701.9 L 327.1 702.5 M 327.1 702.5 L 328.2 702.9 M 328.2 702.9 L 329.4 703.2 M 329.4 703.2 L 330.5 703.3 M 330.5 703.3 L 331.2 703.2 M 331.2 703.2 L 331.9 703.1 M 331.9 703.1 L 332.6 702.8 M 332.6 702.8 L 333.2 702.4 M 333.2 702.4 L 333.9 701.9 M 333.9 701.9 L 334.6 701.1 M 334.6 701.1 L 335.3 700.1 M 335.3 700.1 L 336 698.8 M 336 698.8 L 336.1 698.8 M 336.1 698.8 L 336.1 702.7 M 336.1 702.7 L 340 702.7 M 340 702.7 L 340 676.8 M 340 676.8 L 335.6 676.8 M 335.6 676.8 L 335.6 690.4 M 650.8 633.8 L 650.8 633.8 M 650.8 633.8 L 655.6 633.8 M 655.6 633.8 L 665.3 607.8 M 665.3 607.8 L 665.8 606.4 M 665.8 606.4 L 666.3 604.9 M 666.3 604.9 L 666.8 603.4 M 666.8 603.4 L 667.2 601.9 M 667.2 601.9 L 667.3 601.9 M 667.3 601.9 L 667.7 603.4 M 667.7 603.4 L 668.1 604.8 M 668.1 604.8 L 668.6 606.3 M 668.6 606.3 L 669.2 607.8 M 669.2 607.8 L 678.4 633.8 M 678.4 633.8 L 683.5 633.8 M 683.5 633.8 L 669.7 598.1 M 669.7 598.1 L 664.8 598.1 M 664.8 598.1 L 650.8 633.8 M 636.8 597.6 L 636.8 597.6 M 636.8 597.6 L 634.9 598.1 M 634.9 598.1 L 633.1 598.7 M 633.1 598.7 L 631.6 599.7 M 631.6 599.7 L 630.3 600.9 M 630.3 600.9 L 629.2 602.3 M 629.2 602.3 L 628.2 604 M 628.2 604 L 627.6 605.8 M 627.6 605.8 L 632.1 606.4 M 632.1 606.4 L 632.7 605.1 M 632.7 605.1 L 632.7 605.1 M 632.7 605.1 L 633.3 604 M 633.3 604 L 633.3 604 M 633.3 604 L 634 603.1 M 634 603.1 L 634 603.1 M 634 603.1 L 634.8 602.3 M 634.8 602.3 L 634.8 602.3 M 634.8 602.3 L 635.7 601.8 M 635.7 601.8 L 635.7 601.8 M 635.7 601.8 L 636.7 601.4 M 636.7 601.4 L 636.7 601.4 M 636.7 601.4 L 637.8 601.1 M 637.8 601.1 L 637.8 601.1 M 637.8 601.1 L 639 601 M 639 601 L 639 601 M 639 601 L 640.5 601.2 M 640.5 601.2 L 640.5 601.2 M 640.5 601.2 L 641.9 601.6 M 641.9 601.6 L 641.9 601.6 M 641.9 601.6 L 643.2 602.3 M 643.2 602.3 L 643.2 602.3 M 643.2 602.3 L 644.4 603.3 M 644.4 603.3 L 644.4 603.3 M 644.4 603.3 L 645.4 604.6 M 645.4 604.6 L 645.4 604.6 M 645.4 604.6 L 646.1 606.1 M 646.1 606.1 L 646.1 606.1 M 646.1 606.1 L 646.6 607.9 M 646.6 607.9 L 646.6 607.9 M 646.6 607.9 L 646.8 609.9 M 646.8 609.9 L 646.8 609.9 M 646.8 609.9 L 627.5 609.9 M 627.5 609.9 L 627.5 610.3 M 627.5 610.3 L 627.5 610.6 M 627.5 610.6 L 627.5 610.8 M 627.5 610.8 L 627.5 611.1 M 627.5 611.1 L 627.7 614.1 M 627.7 614.1 L 628.3 616.8 M 628.3 616.8 L 629.3 619.1 M 629.3 619.1 L 630.8 621 M 630.8 621 L 632.5 622.5 M 632.5 622.5 L 634.5 623.6 M 634.5 623.6 L 636.8 624.3 M 636.8 624.3 L 639.2 624.5 M 639.2 624.5 L 641.8 624.3 M 641.8 624.3 L 644.1 623.6 M 644.1 623.6 L 646.2 622.5 M 646.2 622.5 L 648 620.9 M 648 620.9 L 649.4 619 M 649.4 619 L 650.5 616.6 M 650.5 616.6 L 651.1 613.9 M 651.1 613.9 L 651.3 610.8 M 651.3 610.8 L 651.1 607.8 M 651.1 607.8 L 650.5 605.2 M 650.5 605.2 L 649.5 602.9 M 649.5 602.9 L 648 601 M 648 601 L 646.2 599.5 M 646.2 599.5 L 644.1 598.4 M 644.1 598.4 L 641.7 597.7 M 641.7 597.7 L 639 597.5 M 639 597.5 L 636.8 597.6 M 646.6 613.5 L 646.6 613.5 M 646.6 613.5 L 632.1 613.5 M 632.1 613.5 L 632.3 615 M 632.3 615 L 632.7 616.4 M 632.7 616.4 L 633.1 617.5 M 633.1 617.5 L 633.8 618.4 M 633.8 618.4 L 634.9 619.5 M 634.9 619.5 L 636.2 620.3 M 636.2 620.3 L 637.6 620.8 M 637.6 620.8 L 639.2 621 M 639.2 621 L 640.6 620.8 M 640.6 620.8 L 642 620.5 M 642 620.5 L 643.2 619.8 M 643.2 619.8 L 644.3 618.9 M 644.3 618.9 L 645.2 617.8 M 645.2 617.8 L 645.9 616.6 M 645.9 616.6 L 646.3 615.1 M 646.3 615.1 L 646.6 613.5 M 617.7 611.6 L 617.7 611.6 M 617.7 611.6 L 617.7 611.6 M 617.7 611.6 L 617.7 613 M 617.7 613 L 617.7 613 M 617.7 613 L 617.6 614.3 M 617.6 614.3 L 617.6 614.3 M 617.6 614.3 L 617.3 615.6 M 617.3 615.6 L 617.3 615.6 M 617.3 615.6 L 617 616.8 M 617 616.8 L 617 616.8 M 617 616.8 L 616.7 617.5 M 616.7 617.5 L 616.7 617.5 M 616.7 617.5 L 616.4 618.1 M 616.4 618.1 L 616.4 618.1 M 616.4 618.1 L 615.9 618.7 M 615.9 618.7 L 615.9 618.7 M 615.9 618.7 L 615.4 619.2 M 615.4 619.2 L 615.4 619.2 M 615.4 619.2 L 614.8 619.5 M 614.8 619.5 L 614.8 619.5 M 614.8 619.5 L 614.2 619.8 M 614.2 619.8 L 614.2 619.8 M 614.2 619.8 L 613.5 620 M 613.5 620 L 613.5 620 M 613.5 620 L 612.8 620.1 M 612.8 620.1 L 612.8 620.1 M 612.8 620.1 L 611.9 620 M 611.9 620 L 611.9 620 M 611.9 620 L 611.2 619.8 M 611.2 619.8 L 611.2 619.8 M 611.2 619.8 L 610.3 619.5 M 610.3 619.5 L 610.3 619.5 M 610.3 619.5 L 609.5 619.1 M 609.5 619.1 L 608.1 623.1 M 608.1 623.1 L 609.2 623.8 M 609.2 623.8 L 610.3 624.2 M 610.3 624.2 L 611.4 624.5 M 611.4 624.5 L 612.5 624.5 M 612.5 624.5 L 613.3 624.5 M 613.3 624.5 L 614 624.3 M 614 624.3 L 614.7 624 M 614.7 624 L 615.4 623.7 M 615.4 623.7 L 616 623.1 M 616 623.1 L 616.7 622.3 M 616.7 622.3 L 617.4 621.3 M 617.4 621.3 L 618.2 620 M 618.2 620 L 618.2 620 M 618.2 620 L 618.2 624 M 618.2 624 L 622.1 624 M 622.1 624 L 622.1 598.1 M 622.1 598.1 L 617.7 598.1 M 617.7 598.1 L 617.7 611.6 M 597.5 614.2 L 597.5 614.2 M 597.5 614.2 L 598.7 614.5 M 598.7 614.5 L 598.7 614.5 M 598.7 614.5 L 599.5 614.7 M 599.5 614.7 L 599.5 614.7 M 599.5 614.7 L 600 614.9 M 600 614.9 L 600 614.9 M 600 614.9 L 600.5 615.1 M 600.5 615.1 L 600.5 615.1 M 600.5 615.1 L 601 615.4 M 601 615.4 L 601 615.4 M 601 615.4 L 601.4 615.7 M 601.4 615.7 L 601.4 615.7 M 601.4 615.7 L 601.7 616 M 601.7 616 L 601.7 616 M 601.7 616 L 601.9 616.4 M 601.9 616.4 L 601.9 616.4 M 601.9 616.4 L 602.1 616.8 M 602.1 616.8 L 602.1 616.8 M 602.1 616.8 L 602.2 617.2 M 602.2 617.2 L 602.2 617.2 M 602.2 617.2 L 602.2 617.6 M 602.2 617.6 L 602.2 617.6 M 602.2 617.6 L 602.1 618.2 M 602.1 618.2 L 602.1 618.2 M 602.1 618.2 L 601.9 618.9 M 601.9 618.9 L 601.9 618.9 M 601.9 618.9 L 601.5 619.4 M 601.5 619.4 L 601.5 619.4 M 601.5 619.4 L 600.9 620 M 600.9 620 L 600.9 620 M 600.9 620 L 600.2 620.4 M 600.2 620.4 L 600.1 620.4 M 600.1 620.4 L 599.2 620.7 M 599.2 620.7 L 599.2 620.7 M 599.2 620.7 L 598 620.9 M 598 620.9 L 598 620.9 M 598 620.9 L 596.6 621 M 596.6 621 L 596.6 621 M 596.6 621 L 595.4 620.9 M 595.4 620.9 L 595.4 620.9 M 595.4 620.9 L 594.3 620.7 M 594.3 620.7 L 594.3 620.7 M 594.3 620.7 L 593.4 620.3 M 593.4 620.3 L 593.4 620.3 M 593.4 620.3 L 592.6 619.9 M 592.6 619.9 L 592.6 619.9 M 592.6 619.9 L 592 619.2 M 592 619.2 L 591.9 619.2 M 591.9 619.2 L 591.5 618.5 M 591.5 618.5 L 591.5 618.5 M 591.5 618.5 L 591.1 617.7 M 591.1 617.7 L 591.1 617.7 M 591.1 617.7 L 590.9 616.7 M 590.9 616.7 L 586.6 617.3 M 586.6 617.3 L 586.9 618.5 M 586.9 618.5 L 587.2 619.5 M 587.2 619.5 L 587.7 620.5 M 587.7 620.5 L 588.2 621.3 M 588.2 621.3 L 588.8 622 M 588.8 622 L 589.5 622.6 M 589.5 622.6 L 590.5 623.2 M 590.5 623.2 L 591.6 623.7 M 591.6 623.7 L 592.7 624 M 592.7 624 L 594 624.3 M 594 624.3 L 595.4 624.5 M 595.4 624.5 L 596.9 624.5 M 596.9 624.5 L 597.9 624.5 M 597.9 624.5 L 598.9 624.4 M 598.9 624.4 L 599.8 624.2 M 599.8 624.2 L 600.7 624 M 600.7 624 L 601.5 623.8 M 601.5 623.8 L 602.3 623.4 M 602.3 623.4 L 602.9 623.1 M 602.9 623.1 L 603.5 622.7 M 603.5 622.7 L 604.1 622.2 M 604.1 622.2 L 604.7 621.6 M 604.7 621.6 L 605.2 621 M 605.2 621 L 605.6 620.3 M 605.6 620.3 L 606 619.5 M 606 619.5 L 606.2 618.8 M 606.2 618.8 L 606.4 617.9 M 606.4 617.9 L 606.4 617.1 M 606.4 617.1 L 606.4 616.2 M 606.4 616.2 L 606.2 615.3 M 606.2 615.3 L 605.9 614.4 M 605.9 614.4 L 605.5 613.6 M 605.5 613.6 L 604.9 612.9 M 604.9 612.9 L 604.3 612.2 M 604.3 612.2 L 603.5 611.7 M 603.5 611.7 L 602.7 611.2 M 602.7 611.2 L 601.5 610.7 M 601.5 610.7 L 600 610.2 M 600 610.2 L 598.2 609.7 M 598.2 609.7 L 595.9 609.1 M 595.9 609.1 L 595.9 609.1 M 595.9 609.1 L 594.3 608.6 M 594.3 608.6 L 594.3 608.6 M 594.3 608.6 L 593 608.2 M 593 608.2 L 593 608.2 M 593 608.2 L 592.1 607.9 M 592.1 607.9 L 592.1 607.9 M 592.1 607.9 L 591.4 607.6 M 591.4 607.6 L 591.4 607.6 M 591.4 607.6 L 590.9 607.1 M 590.9 607.1 L 590.9 607.1 M 590.9 607.1 L 590.5 606.6 M 590.5 606.6 L 590.5 606.6 M 590.5 606.6 L 590.2 605.9 M 590.2 605.9 L 590.2 605.9 M 590.2 605.9 L 590.1 605.2 M 590.1 605.2 L 590.1 605.2 M 590.1 605.2 L 590.2 604.4 M 590.2 604.4 L 590.2 604.4 M 590.2 604.4 L 590.5 603.6 M 590.5 603.6 L 590.5 603.6 M 590.5 603.6 L 591 602.9 M 591 602.9 L 591 602.9 M 591 602.9 L 591.6 602.3 M 591.6 602.3 L 591.6 602.3 M 591.6 602.3 L 592.5 601.8 M 592.5 601.8 L 592.5 601.8 M 592.5 601.8 L 593.5 601.4 M 593.5 601.4 L 593.5 601.4 M 593.5 601.4 L 594.7 601.1 M 594.7 601.1 L 594.7 601.1 M 594.7 601.1 L 596.1 601 M 596.1 601 L 596.1 601 M 596.1 601 L 597.5 601.2 M 597.5 601.2 L 597.5 601.2 M 597.5 601.2 L 598.8 601.4 M 598.8 601.4 L 598.8 601.4 M 598.8 601.4 L 599.9 601.8 M 599.9 601.8 L 599.9 601.8 M 599.9 601.8 L 600.8 602.5 M 600.8 602.5 L 600.8 602.5 M 600.8 602.5 L 601.6 603.2 M 601.6 603.2 L 601.6 603.2 M 601.6 603.2 L 602.1 604.2 M 602.1 604.2 L 602.1 604.2 M 602.1 604.2 L 602.6 605.3 M 602.6 605.3 L 602.6 605.3 M 602.6 605.3 L 602.9 606.4 M 602.9 606.4 L 607.1 605.8 M 607.1 605.8 L 606.7 603.9 M 606.7 603.9 L 606 602.2 M 606 602.2 L 605 600.8 M 605 600.8 L 603.8 599.6 M 603.8 599.6 L 602.3 598.7 M 602.3 598.7 L 600.5 598 M 600.5 598 L 598.5 597.6 M 598.5 597.6 L 596.1 597.5 M 596.1 597.5 L 594.6 597.5 M 594.6 597.5 L 593.2 597.7 M 593.2 597.7 L 591.9 598.1 M 591.9 598.1 L 590.6 598.6 M 590.6 598.6 L 589.5 599.1 M 589.5 599.1 L 588.5 599.8 M 588.5 599.8 L 587.7 600.6 M 587.7 600.6 L 586.9 601.6 M 586.9 601.6 L 586.4 602.5 M 586.4 602.5 L 586 603.5 M 586 603.5 L 585.7 604.6 M 585.7 604.6 L 585.6 605.6 M 585.6 605.6 L 585.7 606.8 M 585.7 606.8 L 585.9 607.7 M 585.9 607.7 L 586.2 608.6 M 586.2 608.6 L 586.7 609.4 M 586.7 609.4 L 587.3 610.1 M 587.3 610.1 L 588 610.7 M 588 610.7 L 588.7 611.3 M 588.7 611.3 L 589.6 611.7 M 589.6 611.7 L 590.7 612.1 M 590.7 612.1 L 592.1 612.6 M 592.1 612.6 L 594 613.2 M 594 613.2 L 596.1 613.8 M 596.1 613.8 L 597.5 614.2 M 597.5 614.2 L 597.5 614.2 M 576 633.8 L 576 633.8 M 576 633.8 L 580.4 633.8 M 580.4 633.8 L 580.4 628.8 M 580.4 628.8 L 576 628.8 M 576 628.8 L 576 633.8 M 576 624 L 576 624 M 576 624 L 580.4 624 M 580.4 624 L 580.4 598.1 M 580.4 598.1 L 576 598.1 M 576 598.1 L 576 624 M 557.1 597.6 L 557.1 597.6 M 557.1 597.6 L 555.5 597.9 M 555.5 597.9 L 554 598.4 M 554 598.4 L 552.5 599.1 M 552.5 599.1 L 551.2 599.9 M 551.2 599.9 L 550 601 M 550 601 L 549 602.1 M 549 602.1 L 548.2 603.5 M 548.2 603.5 L 547.5 605.1 M 547.5 605.1 L 547.1 606.9 M 547.1 606.9 L 546.8 609 M 546.8 609 L 546.7 611.4 M 546.7 611.4 L 546.9 614.3 M 546.9 614.3 L 547.5 616.9 M 547.5 616.9 L 548.6 619.1 M 548.6 619.1 L 550.1 621 M 550.1 621 L 551.9 622.6 M 551.9 622.6 L 554 623.7 M 554 623.7 L 556.2 624.3 M 556.2 624.3 L 558.8 624.5 M 558.8 624.5 L 561.1 624.4 M 561.1 624.4 L 563.2 623.8 M 563.2 623.8 L 565.2 622.9 M 565.2 622.9 L 566.9 621.7 M 566.9 621.7 L 568.7 619.7 M 568.7 619.7 L 569.9 617.3 M 569.9 617.3 L 570.7 614.4 M 570.7 614.4 L 570.9 611 M 570.9 611 L 570.7 607.9 M 570.7 607.9 L 570.1 605.2 M 570.1 605.2 L 569 602.9 M 569 602.9 L 567.6 601 M 567.6 601 L 565.8 599.4 M 565.8 599.4 L 563.7 598.4 M 563.7 598.4 L 561.4 597.7 M 561.4 597.7 L 558.8 597.5 M 558.8 597.5 L 557.1 597.6 M 566.4 611 L 566.4 611 M 566.4 611 L 566.3 608.7 M 566.3 608.7 L 565.9 606.7 M 565.9 606.7 L 565.2 604.9 M 565.2 604.9 L 564.3 603.6 M 564.3 603.6 L 563.1 602.5 M 563.1 602.5 L 561.8 601.7 M 561.8 601.7 L 560.4 601.2 M 560.4 601.2 L 558.8 601.1 M 558.8 601.1 L 557.2 601.2 M 557.2 601.2 L 555.8 601.7 M 555.8 601.7 L 554.5 602.5 M 554.5 602.5 L 553.3 603.6 M 553.3 603.6 L 552.4 605 M 552.4 605 L 551.7 606.7 M 551.7 606.7 L 551.3 608.8 M 551.3 608.8 L 551.2 611.2 M 551.2 611.2 L 551.3 613.4 M 551.3 613.4 L 551.7 615.4 M 551.7 615.4 L 552.4 617.1 M 552.4 617.1 L 553.4 618.4 M 553.4 618.4 L 554.5 619.5 M 554.5 619.5 L 555.8 620.3 M 555.8 620.3 L 557.2 620.8 M 557.2 620.8 L 558.8 620.9 M 558.8 620.9 L 560.4 620.8 M 560.4 620.8 L 561.8 620.3 M 561.8 620.3 L 563.1 619.5 M 563.1 619.5 L 564.3 618.4 M 564.3 618.4 L 565.2 617.1 M 565.2 617.1 L 565.9 615.4 M 565.9 615.4 L 566.3 613.4 M 566.3 613.4 L 566.4 611 M 537.1 612.2 L 537.1 612.2 M 537.1 612.2 L 537.1 612.2 M 537.1 612.2 L 537 614.5 M 537 614.5 L 537 614.5 M 537 614.5 L 536.6 616.4 M 536.6 616.4 L 536.6 616.4 M 536.6 616.4 L 536 617.9 M 536 617.9 L 536 617.9 M 536 617.9 L 535.1 619 M 535.1 619 L 535.1 619 M 535.1 619 L 534 619.8 M 534 619.8 L 534 619.8 M 534 619.8 L 532.9 620.3 M 532.9 620.3 L 532.9 620.3 M 532.9 620.3 L 531.6 620.6 M 531.6 620.6 L 531.6 620.6 M 531.6 620.6 L 530.2 620.8 M 530.2 620.8 L 530.2 620.8 M 530.2 620.8 L 529.4 620.7 M 529.4 620.7 L 529.4 620.7 M 529.4 620.7 L 528.6 620.6 M 528.6 620.6 L 528.6 620.6 M 528.6 620.6 L 527.9 620.3 M 527.9 620.3 L 527.9 620.3 M 527.9 620.3 L 527.1 620 M 527.1 620 L 527.1 620 M 527.1 620 L 526.6 619.5 M 526.6 619.5 L 526.6 619.5 M 526.6 619.5 L 526 619 M 526 619 L 526 619 M 526 619 L 525.6 618.5 M 525.6 618.5 L 525.6 618.5 M 525.6 618.5 L 525.3 617.9 M 525.3 617.9 L 525.3 617.9 M 525.3 617.9 L 525.1 617.1 M 525.1 617.1 L 525.1 617.1 M 525.1 617.1 L 524.9 616.2 M 524.9 616.2 L 524.9 616.2 M 524.9 616.2 L 524.9 615.1 M 524.9 615.1 L 524.8 615.1 M 524.8 615.1 L 524.8 613.8 M 524.8 613.8 L 524.8 613.8 M 524.8 613.8 L 524.8 598.1 M 524.8 598.1 L 520.5 598.1 M 520.5 598.1 L 520.5 614 M 520.5 614 L 520.5 615.4 M 520.5 615.4 L 520.5 616.6 M 520.5 616.6 L 520.6 617.5 M 520.6 617.5 L 520.7 618.2 M 520.7 618.2 L 520.9 619.2 M 520.9 619.2 L 521.2 620 M 521.2 620 L 521.6 620.8 M 521.6 620.8 L 522.1 621.5 M 522.1 621.5 L 522.6 622.1 M 522.6 622.1 L 523.3 622.7 M 523.3 622.7 L 524.1 623.2 M 524.1 623.2 L 525 623.7 M 525 623.7 L 526 624.1 M 526 624.1 L 527.1 624.4 M 527.1 624.4 L 528.2 624.5 M 528.2 624.5 L 529.3 624.5 M 529.3 624.5 L 531.8 624.3 M 531.8 624.3 L 534 623.5 M 534 623.5 L 536 622.1 M 536 622.1 L 537.5 620.3 M 537.5 620.3 L 537.6 620.3 M 537.6 620.3 L 537.6 624 M 537.6 624 L 541.5 624 M 541.5 624 L 541.5 598.1 M 541.5 598.1 L 537.1 598.1 M 537.1 598.1 L 537.1 612.2 M 484.5 634 L 484.5 634 M 484.5 634 L 487.3 634 M 487.3 634 L 488 632.8 M 488 632.8 L 488 632.8 M 488 632.8 L 488.8 631.6 M 488.8 631.6 L 488.8 631.6 M 488.8 631.6 L 489.9 630.4 M 489.9 630.4 L 489.9 630.4 M 489.9 630.4 L 491.2 629.2 M 491.2 629.2 L 491.2 629.2 M 491.2 629.2 L 492.6 628 M 492.6 628 L 492.7 628 M 492.7 628 L 494.2 626.9 M 494.2 626.9 L 494.2 626.9 M 494.2 626.9 L 495.8 625.9 M 495.8 625.9 L 495.8 625.9 M 495.8 625.9 L 497.6 625 M 497.6 625 L 497.6 620.8 M 497.6 620.8 L 496.6 621.2 M 496.6 621.2 L 495.5 621.7 M 495.5 621.7 L 494.3 622.3 M 494.3 622.3 L 493.1 623.1 M 493.1 623.1 L 491.8 623.8 M 491.8 623.8 L 490.7 624.5 M 490.7 624.5 L 489.7 625.3 M 489.7 625.3 L 488.9 626.1 M 488.9 626.1 L 488.8 626.1 M 488.8 626.1 L 488.8 598.1 M 488.8 598.1 L 484.5 598.1 M 484.5 598.1 L 484.5 634 M 465.8 603.1 L 465.8 603.1 M 465.8 603.1 L 470.7 603.1 M 470.7 603.1 L 470.7 598.1 M 470.7 598.1 L 465.8 598.1 M 465.8 598.1 L 465.8 603.1 M 445.8 597.6 L 445.8 597.6 M 445.8 597.6 L 444.1 598 M 444.1 598 L 442.5 598.6 M 442.5 598.6 L 441.2 599.6 M 441.2 599.6 L 439.9 600.7 M 439.9 600.7 L 438.9 602.1 M 438.9 602.1 L 438 603.7 M 438 603.7 L 437.3 605.5 M 437.3 605.5 L 436.8 607.6 M 436.8 607.6 L 436.3 610 M 436.3 610 L 436.1 612.7 M 436.1 612.7 L 436 615.7 M 436 615.7 L 436 618.2 M 436 618.2 L 436.2 620.5 M 436.2 620.5 L 436.5 622.5 M 436.5 622.5 L 436.8 624.2 M 436.8 624.2 L 437.3 625.6 M 437.3 625.6 L 437.8 627.1 M 437.8 627.1 L 438.4 628.3 M 438.4 628.3 L 439 629.5 M 439 629.5 L 439.8 630.5 M 439.8 630.5 L 440.6 631.4 M 440.6 631.4 L 441.6 632.2 M 441.6 632.2 L 442.6 632.8 M 442.6 632.8 L 443.8 633.3 M 443.8 633.3 L 444.9 633.7 M 444.9 633.7 L 446.3 633.9 M 446.3 633.9 L 447.7 634 M 447.7 634 L 449.5 633.8 M 449.5 633.8 L 451.2 633.4 M 451.2 633.4 L 452.8 632.8 M 452.8 632.8 L 454.1 631.9 M 454.1 631.9 L 455.3 630.7 M 455.3 630.7 L 456.4 629.4 M 456.4 629.4 L 457.3 627.7 M 457.3 627.7 L 458 625.9 M 458 625.9 L 458.6 623.8 M 458.6 623.8 L 459 621.4 M 459 621.4 L 459.2 618.7 M 459.2 618.7 L 459.3 615.7 M 459.3 615.7 L 459.1 611 M 459.1 611 L 458.4 607 M 458.4 607 L 457.3 603.8 M 457.3 603.8 L 455.8 601.2 M 455.8 601.2 L 454.2 599.5 M 454.2 599.5 L 452.3 598.4 M 452.3 598.4 L 450.1 597.7 M 450.1 597.7 L 447.7 597.5 M 447.7 597.5 L 445.8 597.6 M 454.8 615.7 L 454.8 615.7 M 454.8 615.7 L 454.7 611.7 M 454.7 611.7 L 454.3 608.4 M 454.3 608.4 L 453.6 605.8 M 453.6 605.8 L 452.7 604 M 452.7 604 L 451.7 602.7 M 451.7 602.7 L 450.5 601.8 M 450.5 601.8 L 449.1 601.2 M 449.1 601.2 L 447.7 601 M 447.7 601 L 446.2 601.2 M 446.2 601.2 L 444.9 601.8 M 444.9 601.8 L 443.6 602.7 M 443.6 602.7 L 442.6 604 M 442.6 604 L 441.7 605.8 M 441.7 605.8 L 441 608.4 M 441 608.4 L 440.6 611.7 M 440.6 611.7 L 440.5 615.7 M 440.5 615.7 L 440.6 619.7 M 440.6 619.7 L 441 623.1 M 441 623.1 L 441.7 625.6 M 441.7 625.6 L 442.6 627.5 M 442.6 627.5 L 443.7 628.7 M 443.7 628.7 L 444.9 629.6 M 444.9 629.6 L 446.2 630.2 M 446.2 630.2 L 447.7 630.3 M 447.7 630.3 L 449.2 630.2 M 449.2 630.2 L 450.4 629.7 M 450.4 629.7 L 451.6 628.9 M 451.6 628.9 L 452.5 627.8 M 452.5 627.8 L 453.5 625.8 M 453.5 625.8 L 454.2 623.1 M 454.2 623.1 L 454.7 619.7 M 454.7 619.7 L 454.8 615.7 M 719.2 770.1 L 719.2 770.1 M 719.2 770.1 L 719.2 770.1 M 719.2 770.1 L 710 770.1 M 710 770.1 L 706.5 770.3 M 706.5 770.3 L 703.6 770.9 M 703.6 770.9 L 701.2 771.9 M 701.2 771.9 L 699.5 773.2 M 699.5 773.2 L 698.2 774.9 M 698.2 774.9 L 697.3 776.8 M 697.3 776.8 L 696.8 778.8 M 696.8 778.8 L 696.6 781 M 696.6 781 L 696.7 782.3 M 696.7 782.3 L 696.9 783.5 M 696.9 783.5 L 697.2 784.7 M 697.2 784.7 L 697.7 785.8 M 697.7 785.8 L 698.3 786.9 M 698.3 786.9 L 699 787.8 M 699 787.8 L 699.7 788.6 M 699.7 788.6 L 700.5 789.3 M 700.5 789.3 L 701.5 789.9 M 701.5 789.9 L 702.5 790.3 M 702.5 790.3 L 703.7 790.7 M 703.7 790.7 L 705 791 M 705 791 L 706 791.1 M 706 791.1 L 707.3 791.2 M 707.3 791.2 L 708.7 791.3 M 708.7 791.3 L 710.4 791.3 M 710.4 791.3 L 723.9 791.3 M 723.9 791.3 L 723.9 755.6 M 723.9 755.6 L 719.2 755.6 M 719.2 755.6 L 719.2 770.1 M 719.2 774.3 L 719.2 774.3 M 719.2 774.3 L 709.9 774.3 M 709.9 774.3 L 707.8 774.4 M 707.8 774.4 L 706 774.7 M 706 774.7 L 704.5 775.3 M 704.5 775.3 L 703.4 776 M 703.4 776 L 702.5 776.9 M 702.5 776.9 L 701.9 778.1 M 701.9 778.1 L 701.6 779.4 M 701.6 779.4 L 701.5 780.8 M 701.5 780.8 L 701.6 781.9 M 701.6 781.9 L 701.8 782.9 M 701.8 782.9 L 702.1 783.8 M 702.1 783.8 L 702.6 784.7 M 702.6 784.7 L 703.2 785.4 M 703.2 785.4 L 703.9 786 M 703.9 786 L 704.7 786.5 M 704.7 786.5 L 705.6 786.8 M 705.6 786.8 L 706.3 786.9 M 706.3 786.9 L 707.3 787 M 707.3 787 L 708.5 787.1 M 708.5 787.1 L 710 787.1 M 710 787.1 L 719.2 787.1 M 719.2 787.1 L 719.2 774.3 M 686.7 791.3 L 686.7 791.3 M 686.7 791.3 L 691.1 791.3 M 691.1 791.3 L 691.1 786.3 M 691.1 786.3 L 686.7 786.3 M 686.7 786.3 L 686.7 791.3 M 686.7 781.4 L 686.7 781.4 M 686.7 781.4 L 691.1 781.4 M 691.1 781.4 L 691.1 755.6 M 691.1 755.6 L 686.7 755.6 M 686.7 755.6 L 686.7 781.4 M 675.6 769.7 L 675.6 769.7 M 675.6 769.7 L 675.6 769.7 M 675.6 769.7 L 675.5 772 M 675.5 772 L 675.5 772 M 675.5 772 L 675.1 773.9 M 675.1 773.9 L 675.1 773.9 M 675.1 773.9 L 674.5 775.4 M 674.5 775.4 L 674.5 775.4 M 674.5 775.4 L 673.6 776.5 M 673.6 776.5 L 673.6 776.5 M 673.6 776.5 L 672.5 777.3 M 672.5 777.3 L 672.5 777.3 M 672.5 777.3 L 671.4 777.8 M 671.4 777.8 L 671.4 777.8 M 671.4 777.8 L 670.1 778.1 M 670.1 778.1 L 670.1 778.1 M 670.1 778.1 L 668.7 778.2 M 668.7 778.2 L 668.7 778.2 M 668.7 778.2 L 667.9 778.2 M 667.9 778.2 L 667.9 778.2 M 667.9 778.2 L 667.1 778.1 M 667.1 778.1 L 667.1 778.1 M 667.1 778.1 L 666.3 777.8 M 666.3 777.8 L 666.3 777.8 M 666.3 777.8 L 665.6 777.5 M 665.6 777.5 L 665.6 777.5 M 665.6 777.5 L 665.1 777 M 665.1 777 L 665.1 777 M 665.1 777 L 664.5 776.5 M 664.5 776.5 L 664.5 776.5 M 664.5 776.5 L 664.2 776 M 664.2 776 L 664.1 776 M 664.1 776 L 663.8 775.3 M 663.8 775.3 L 663.8 775.3 M 663.8 775.3 L 663.6 774.6 M 663.6 774.6 L 663.6 774.6 M 663.6 774.6 L 663.4 773.6 M 663.4 773.6 L 663.4 773.6 M 663.4 773.6 L 663.3 772.6 M 663.3 772.6 L 663.3 772.6 M 663.3 772.6 L 663.3 771.3 M 663.3 771.3 L 663.3 771.3 M 663.3 771.3 L 663.3 755.6 M 663.3 755.6 L 659 755.6 M 659 755.6 L 659 771.5 M 659 771.5 L 659 772.9 M 659 772.9 L 659 774.1 M 659 774.1 L 659.1 775 M 659.1 775 L 659.2 775.7 M 659.2 775.7 L 659.4 776.6 M 659.4 776.6 L 659.7 777.5 M 659.7 777.5 L 660.1 778.3 M 660.1 778.3 L 660.6 779 M 660.6 779 L 661.1 779.6 M 661.1 779.6 L 661.8 780.2 M 661.8 780.2 L 662.6 780.7 M 662.6 780.7 L 663.5 781.2 M 663.5 781.2 L 664.5 781.6 M 664.5 781.6 L 665.6 781.8 M 665.6 781.8 L 666.7 782 M 666.7 782 L 667.8 782 M 667.8 782 L 670.3 781.8 M 670.3 781.8 L 672.5 781 M 672.5 781 L 674.5 779.6 M 674.5 779.6 L 676 777.7 M 676 777.7 L 676.1 777.8 M 676.1 777.8 L 676.1 781.4 M 676.1 781.4 L 680 781.4 M 680 781.4 L 680 755.6 M 680 755.6 L 675.6 755.6 M 675.6 755.6 L 675.6 769.7 M 639.2 755.1 L 639.2 755.1 M 639.2 755.1 L 637.2 755.5 M 637.2 755.5 L 635.5 756.2 M 635.5 756.2 L 633.9 757.1 M 633.9 757.1 L 632.6 758.4 M 632.6 758.4 L 631.5 759.8 M 631.5 759.8 L 630.6 761.4 M 630.6 761.4 L 629.9 763.3 M 629.9 763.3 L 634.4 763.9 M 634.4 763.9 L 635 762.6 M 635 762.6 L 635 762.6 M 635 762.6 L 635.6 761.5 M 635.6 761.5 L 635.6 761.5 M 635.6 761.5 L 636.3 760.5 M 636.3 760.5 L 636.3 760.5 M 636.3 760.5 L 637.1 759.8 M 637.1 759.8 L 637.1 759.8 M 637.1 759.8 L 638.1 759.3 M 638.1 759.3 L 638.1 759.3 M 638.1 759.3 L 639 758.8 M 639 758.8 L 639 758.8 M 639 758.8 L 640.1 758.6 M 640.1 758.6 L 640.1 758.6 M 640.1 758.6 L 641.3 758.5 M 641.3 758.5 L 641.3 758.5 M 641.3 758.5 L 642.9 758.7 M 642.9 758.7 L 642.9 758.7 M 642.9 758.7 L 644.3 759.1 M 644.3 759.1 L 644.3 759.1 M 644.3 759.1 L 645.6 759.8 M 645.6 759.8 L 645.6 759.8 M 645.6 759.8 L 646.7 760.8 M 646.7 760.8 L 646.7 760.8 M 646.7 760.8 L 647.7 762.1 M 647.7 762.1 L 647.7 762.1 M 647.7 762.1 L 648.4 763.6 M 648.4 763.6 L 648.4 763.6 M 648.4 763.6 L 648.9 765.4 M 648.9 765.4 L 648.9 765.4 M 648.9 765.4 L 649.2 767.4 M 649.2 767.4 L 649.1 767.4 M 649.1 767.4 L 629.8 767.4 M 629.8 767.4 L 629.8 767.7 M 629.8 767.7 L 629.8 768.1 M 629.8 768.1 L 629.8 768.3 M 629.8 768.3 L 629.8 768.6 M 629.8 768.6 L 630 771.6 M 630 771.6 L 630.6 774.2 M 630.6 774.2 L 631.6 776.6 M 631.6 776.6 L 633.1 778.5 M 633.1 778.5 L 634.8 780 M 634.8 780 L 636.8 781.1 M 636.8 781.1 L 639.1 781.8 M 639.1 781.8 L 641.6 782 M 641.6 782 L 644.1 781.8 M 644.1 781.8 L 646.4 781.1 M 646.4 781.1 L 648.5 780 M 648.5 780 L 650.3 778.4 M 650.3 778.4 L 651.8 776.4 M 651.8 776.4 L 652.8 774.1 M 652.8 774.1 L 653.4 771.4 M 653.4 771.4 L 653.6 768.3 M 653.6 768.3 L 653.4 765.3 M 653.4 765.3 L 652.8 762.7 M 652.8 762.7 L 651.8 760.4 M 651.8 760.4 L 650.3 758.4 M 650.3 758.4 L 648.5 756.9 M 648.5 756.9 L 646.4 755.8 M 646.4 755.8 L 644 755.2 M 644 755.2 L 641.3 755 M 641.3 755 L 639.2 755.1 M 648.9 771 L 648.9 771 M 648.9 771 L 634.4 771 M 634.4 771 L 634.6 772.5 M 634.6 772.5 L 635 773.8 M 635 773.8 L 635.5 775 M 635.5 775 L 636 775.9 M 636 775.9 L 637.2 777 M 637.2 777 L 638.5 777.8 M 638.5 777.8 L 639.9 778.3 M 639.9 778.3 L 641.5 778.4 M 641.5 778.4 L 643 778.3 M 643 778.3 L 644.3 777.9 M 644.3 777.9 L 645.5 777.3 M 645.5 777.3 L 646.6 776.4 M 646.6 776.4 L 647.5 775.3 M 647.5 775.3 L 648.2 774 M 648.2 774 L 648.6 772.6 M 648.6 772.6 L 648.9 771 M 611.8 755 L 611.8 755 M 611.8 755 L 610.3 755.3 M 610.3 755.3 L 609 755.8 M 609 755.8 L 607.6 756.5 M 607.6 756.5 L 606.4 757.3 M 606.4 757.3 L 605.4 758.4 M 605.4 758.4 L 604.4 759.5 M 604.4 759.5 L 603.6 760.9 M 603.6 760.9 L 603 762.4 M 603 762.4 L 602.5 763.9 M 602.5 763.9 L 602.3 765.5 M 602.3 765.5 L 602.2 767.1 M 602.2 767.1 L 602.4 769.6 M 602.4 769.6 L 603 771.8 M 603 771.8 L 603.9 773.8 M 603.9 773.8 L 605.3 775.5 M 605.3 775.5 L 606.9 776.9 M 606.9 776.9 L 608.7 777.9 M 608.7 777.9 L 610.6 778.5 M 610.6 778.5 L 612.7 778.7 M 612.7 778.7 L 614 778.6 M 614 778.6 L 615.2 778.4 M 615.2 778.4 L 616.4 778.1 M 616.4 778.1 L 617.5 777.6 M 617.5 777.6 L 618.6 776.9 M 618.6 776.9 L 619.7 776.1 M 619.7 776.1 L 620.6 775.1 M 620.6 775.1 L 621.4 774 M 621.4 774 L 621.5 774 M 621.5 774 L 621.4 776.5 M 621.4 776.5 L 621.4 776.5 M 621.4 776.5 L 621.1 778.8 M 621.1 778.8 L 621.1 778.8 M 621.1 778.8 L 620.7 780.6 M 620.7 780.6 L 620.7 780.6 M 620.7 780.6 L 620.2 782.3 M 620.2 782.3 L 620.2 782.3 M 620.2 782.3 L 619.5 783.6 M 619.5 783.6 L 619.5 783.6 M 619.5 783.6 L 618.8 784.8 M 618.8 784.8 L 618.8 784.8 M 618.8 784.8 L 617.9 785.8 M 617.9 785.8 L 617.9 785.8 M 617.9 785.8 L 616.9 786.7 M 616.9 786.7 L 616.9 786.7 M 616.9 786.7 L 616.1 787.2 M 616.1 787.2 L 616.1 787.2 M 616.1 787.2 L 615.2 787.6 M 615.2 787.6 L 615.2 787.6 M 615.2 787.6 L 614.3 787.8 M 614.3 787.8 L 614.3 787.8 M 614.3 787.8 L 613.2 787.9 M 613.2 787.9 L 613.2 787.9 M 613.2 787.9 L 612 787.8 M 612 787.8 L 612 787.8 M 612 787.8 L 610.8 787.4 M 610.8 787.4 L 610.8 787.4 M 610.8 787.4 L 609.8 786.8 M 609.8 786.8 L 609.8 786.8 M 609.8 786.8 L 608.8 786 M 608.8 786 L 608.8 786 M 608.8 786 L 608.3 785.3 M 608.3 785.3 L 608.3 785.3 M 608.3 785.3 L 607.9 784.5 M 607.9 784.5 L 607.9 784.5 M 607.9 784.5 L 607.5 783.4 M 607.5 783.4 L 607.5 783.4 M 607.5 783.4 L 607.1 782.2 M 607.1 782.2 L 602.8 782.6 M 602.8 782.6 L 603.2 784.5 M 603.2 784.5 L 603.9 786.3 M 603.9 786.3 L 604.9 787.8 M 604.9 787.8 L 606 789.1 M 606 789.1 L 607.5 790.1 M 607.5 790.1 L 609.1 790.8 M 609.1 790.8 L 611 791.3 M 611 791.3 L 613 791.4 M 613 791.4 L 615.6 791.2 M 615.6 791.2 L 618.1 790.4 M 618.1 790.4 L 620.1 789.2 M 620.1 789.2 L 621.9 787.3 M 621.9 787.3 L 623.6 784.7 M 623.6 784.7 L 624.8 781.2 M 624.8 781.2 L 625.5 777.1 M 625.5 777.1 L 625.8 772.3 M 625.8 772.3 L 625.6 768 M 625.6 768 L 624.9 764.3 M 624.9 764.3 L 623.8 761.3 M 623.8 761.3 L 622.3 759 M 622.3 759 L 620.5 757.2 M 620.5 757.2 L 618.4 756 M 618.4 756 L 616 755.2 M 616 755.2 L 613.4 754.9 M 613.4 754.9 L 611.8 755 M 620.8 767.1 L 620.8 767.1 M 620.8 767.1 L 620.7 766 M 620.7 766 L 620.5 764.9 M 620.5 764.9 L 620.2 763.8 M 620.2 763.8 L 619.8 762.8 M 619.8 762.8 L 619.3 761.8 M 619.3 761.8 L 618.6 761 M 618.6 761 L 617.9 760.2 M 617.9 760.2 L 617.1 759.6 M 617.1 759.6 L 616.2 759.2 M 616.2 759.2 L 615.3 758.8 M 615.3 758.8 L 614.4 758.6 M 614.4 758.6 L 613.4 758.5 M 613.4 758.5 L 612.1 758.7 M 612.1 758.7 L 610.9 759.1 M 610.9 759.1 L 609.7 759.8 M 609.7 759.8 L 608.7 760.8 M 608.7 760.8 L 607.8 762 M 607.8 762 L 607.2 763.4 M 607.2 763.4 L 606.8 765.1 M 606.8 765.1 L 606.7 766.9 M 606.7 766.9 L 606.8 768.6 M 606.8 768.6 L 607.1 770.2 M 607.1 770.2 L 607.8 771.6 M 607.8 771.6 L 608.6 772.7 M 608.6 772.7 L 609.7 773.7 M 609.7 773.7 L 610.9 774.4 M 610.9 774.4 L 612.2 774.7 M 612.2 774.7 L 613.6 774.9 M 613.6 774.9 L 615.1 774.7 M 615.1 774.7 L 616.4 774.4 M 616.4 774.4 L 617.6 773.7 M 617.6 773.7 L 618.7 772.7 M 618.7 772.7 L 619.6 771.6 M 619.6 771.6 L 620.2 770.3 M 620.2 770.3 L 620.6 768.8 M 620.6 768.8 L 620.8 767.1 M 579.4 764.1 L 579.4 764.1 M 579.4 764.1 L 579.4 764.1 M 579.4 764.1 L 574.5 764.1 M 574.5 764.1 L 574.5 768.1 M 574.5 768.1 L 579.4 768.1 M 579.4 768.1 L 579.4 768.1 M 579.4 768.1 L 579.4 791.3 M 579.4 791.3 L 582.9 791.3 M 582.9 791.3 L 599.2 768.1 M 599.2 768.1 L 599.2 764.1 M 599.2 764.1 L 583.7 764.1 M 583.7 764.1 L 583.7 764.1 M 583.7 764.1 L 583.7 755.6 M 583.7 755.6 L 579.4 755.6 M 579.4 755.6 L 579.4 764.1 M 583.7 784.2 L 583.7 784.2 M 583.7 784.2 L 594.9 768.1 M 594.9 768.1 L 583.7 768.1 M 583.7 768.1 L 583.7 784.2 M 549.6 770.1 L 549.6 770.1 M 549.6 770.1 L 549.6 770.1 M 549.6 770.1 L 540.4 770.1 M 540.4 770.1 L 536.9 770.3 M 536.9 770.3 L 534 770.9 M 534 770.9 L 531.7 771.9 M 531.7 771.9 L 529.9 773.2 M 529.9 773.2 L 528.6 774.9 M 528.6 774.9 L 527.7 776.8 M 527.7 776.8 L 527.2 778.8 M 527.2 778.8 L 527 781 M 527 781 L 527.1 782.3 M 527.1 782.3 L 527.3 783.5 M 527.3 783.5 L 527.6 784.7 M 527.6 784.7 L 528.1 785.8 M 528.1 785.8 L 528.7 786.9 M 528.7 786.9 L 529.4 787.8 M 529.4 787.8 L 530.1 788.6 M 530.1 788.6 L 531 789.3 M 531 789.3 L 531.9 789.9 M 531.9 789.9 L 533 790.3 M 533 790.3 L 534.1 790.7 M 534.1 790.7 L 535.4 791 M 535.4 791 L 536.4 791.1 M 536.4 791.1 L 537.7 791.2 M 537.7 791.2 L 539.2 791.3 M 539.2 791.3 L 540.8 791.3 M 540.8 791.3 L 554.3 791.3 M 554.3 791.3 L 554.3 755.6 M 554.3 755.6 L 549.6 755.6 M 549.6 755.6 L 549.6 770.1 M 549.6 774.3 L 549.6 774.3 M 549.6 774.3 L 540.3 774.3 M 540.3 774.3 L 538.2 774.4 M 538.2 774.4 L 536.4 774.7 M 536.4 774.7 L 534.9 775.3 M 534.9 775.3 L 533.8 776 M 533.8 776 L 533 776.9 M 533 776.9 L 532.4 778.1 M 532.4 778.1 L 532 779.4 M 532 779.4 L 531.9 780.8 M 531.9 780.8 L 531.9 781.9 M 531.9 781.9 L 532.2 782.9 M 532.2 782.9 L 532.5 783.8 M 532.5 783.8 L 533 784.7 M 533 784.7 L 533.6 785.4 M 533.6 785.4 L 534.4 786 M 534.4 786 L 535.1 786.5 M 535.1 786.5 L 536 786.8 M 536 786.8 L 536.8 786.9 M 536.8 786.9 L 537.7 787 M 537.7 787 L 539 787.1 M 539 787.1 L 540.4 787.1 M 540.4 787.1 L 549.6 787.1 M 549.6 787.1 L 549.6 774.3 M 509.8 791.3 L 509.8 791.3 M 509.8 791.3 L 514.9 791.3 M 514.9 791.3 L 528.6 755.6 M 528.6 755.6 L 523.6 755.6 M 523.6 755.6 L 519.7 766.4 M 519.7 766.4 L 519.7 766.4 M 519.7 766.4 L 504.7 766.4 M 504.7 766.4 L 504.7 766.4 M 504.7 766.4 L 500.5 755.6 M 500.5 755.6 L 495.1 755.6 M 495.1 755.6 L 509.8 791.3 M 509.9 780.1 L 509.9 780.1 M 509.9 780.1 L 509.9 780.1 M 509.9 780.1 L 510.7 782.3 M 510.7 782.3 L 510.7 782.3 M 510.7 782.3 L 511.4 784.2 M 511.4 784.2 L 511.4 784.2 M 511.4 784.2 L 512 786 M 512 786 L 512 786 M 512 786 L 512.4 787.5 M 512.4 787.5 L 512.8 785.8 M 512.8 785.8 L 512.8 785.8 M 512.8 785.8 L 513.2 784.1 M 513.2 784.1 L 513.2 784.1 M 513.2 784.1 L 513.8 782.4 M 513.8 782.4 L 513.8 782.4 M 513.8 782.4 L 514.4 780.7 M 514.4 780.7 L 514.4 780.7 M 514.4 780.7 L 518.2 770.3 M 518.2 770.3 L 506.2 770.3 M 506.2 770.3 L 509.9 780.1 M 476.8 755.6 L 476.8 755.6 M 476.8 755.6 L 475.4 755.7 M 475.4 755.7 L 474 755.9 M 474 755.9 L 472.7 756.2 M 472.7 756.2 L 471.5 756.5 M 471.5 756.5 L 470.4 756.9 M 470.4 756.9 L 469.4 757.4 M 469.4 757.4 L 468.4 758 M 468.4 758 L 467.5 758.6 M 467.5 758.6 L 466.7 759.4 M 466.7 759.4 L 465.9 760.2 M 465.9 760.2 L 465.1 761.2 M 465.1 761.2 L 464.4 762.3 M 464.4 762.3 L 463.8 763.5 M 463.8 763.5 L 463.2 764.9 M 463.2 764.9 L 462.7 766.4 M 462.7 766.4 L 462.3 768.1 M 462.3 768.1 L 462 769.8 M 462 769.8 L 461.8 771.6 M 461.8 771.6 L 461.8 773.6 M 461.8 773.6 L 461.9 776 M 461.9 776 L 462.1 778.1 M 462.1 778.1 L 462.5 780.2 M 462.5 780.2 L 463.2 782.1 M 463.2 782.1 L 464 783.9 M 464 783.9 L 464.9 785.5 M 464.9 785.5 L 466.1 786.9 M 466.1 786.9 L 467.4 788.2 M 467.4 788.2 L 468.5 789.1 M 468.5 789.1 L 469.8 789.8 M 469.8 789.8 L 471.2 790.4 M 471.2 790.4 L 472.6 790.8 M 472.6 790.8 L 473.8 791 M 473.8 791 L 475.3 791.2 M 475.3 791.2 L 477 791.3 M 477 791.3 L 479 791.3 M 479 791.3 L 491.3 791.3 M 491.3 791.3 L 491.3 755.6 M 491.3 755.6 L 478.4 755.6 M 478.4 755.6 L 476.8 755.6 M 486.6 759.7 L 486.6 759.7 M 486.6 759.7 L 479 759.7 M 479 759.7 L 477.3 759.8 M 477.3 759.8 L 475.8 759.9 M 475.8 759.9 L 474.5 760.1 M 474.5 760.1 L 473.4 760.4 M 473.4 760.4 L 472.5 760.8 M 472.5 760.8 L 471.6 761.2 M 471.6 761.2 L 470.8 761.7 M 470.8 761.7 L 470.2 762.3 M 470.2 762.3 L 469.4 763.2 M 469.4 763.2 L 468.7 764.2 M 468.7 764.2 L 468.1 765.5 M 468.1 765.5 L 467.6 766.8 M 467.6 766.8 L 467.1 768.3 M 467.1 768.3 L 466.9 769.9 M 466.9 769.9 L 466.7 771.8 M 466.7 771.8 L 466.6 773.7 M 466.6 773.7 L 466.8 776.4 M 466.8 776.4 L 467.1 778.6 M 467.1 778.6 L 467.7 780.6 M 467.7 780.6 L 468.5 782.3 M 468.5 782.3 L 469.4 783.7 M 469.4 783.7 L 470.5 784.9 M 470.5 784.9 L 471.7 785.7 M 471.7 785.7 L 472.9 786.4 M 472.9 786.4 L 474 786.7 M 474 786.7 L 475.5 786.9 M 475.5 786.9 L 477.1 787.1 M 477.1 787.1 L 479.1 787.1 M 479.1 787.1 L 486.6 787.1 M 486.6 787.1 L 486.6 759.7 M 449.7 791.3 L 449.7 791.3 M 449.7 791.3 L 454.4 791.3 M 454.4 791.3 L 454.4 755.6 M 454.4 755.6 L 449.7 755.6 M 449.7 755.6 L 449.7 791.3 M 420.3 755.2 L 420.3 755.2 M 420.3 755.2 L 419.5 755.3 M 419.5 755.3 L 418.7 755.4 M 418.7 755.4 L 417.8 755.6 M 417.8 755.6 L 418.4 759.4 M 418.4 759.4 L 419 759.4 M 419 759.4 L 419 759.4 M 419 759.4 L 419.5 759.3 M 419.5 759.3 L 419.5 759.3 M 419.5 759.3 L 419.9 759.3 M 419.9 759.3 L 419.9 759.3 M 419.9 759.3 L 420.3 759.3 M 420.3 759.3 L 420.3 759.3 M 420.3 759.3 L 420.8 759.3 M 420.8 759.3 L 420.8 759.3 M 420.8 759.3 L 421.2 759.4 M 421.2 759.4 L 421.2 759.4 M 421.2 759.4 L 421.6 759.5 M 421.6 759.5 L 421.6 759.5 M 421.6 759.5 L 421.8 759.6 M 421.8 759.6 L 421.9 759.6 M 421.9 759.6 L 422.1 759.8 M 422.1 759.8 L 422.1 759.8 M 422.1 759.8 L 422.3 760 M 422.3 760 L 422.3 760 M 422.3 760 L 422.5 760.2 M 422.5 760.2 L 422.5 760.2 M 422.5 760.2 L 422.6 760.5 M 422.6 760.5 L 422.6 760.5 M 422.6 760.5 L 422.7 760.8 M 422.7 760.8 L 422.7 760.8 M 422.7 760.8 L 422.8 761.3 M 422.8 761.3 L 422.8 761.3 M 422.8 761.3 L 422.8 762 M 422.8 762 L 422.8 762 M 422.8 762 L 422.9 762.9 M 422.9 762.9 L 422.9 762.9 M 422.9 762.9 L 422.9 778.1 M 422.9 778.1 L 422.9 778.1 M 422.9 778.1 L 418.4 778.1 M 418.4 778.1 L 418.4 781.4 M 418.4 781.4 L 422.9 781.4 M 422.9 781.4 L 422.9 781.4 M 422.9 781.4 L 422.9 790.5 M 422.9 790.5 L 427.2 787.9 M 427.2 787.9 L 427.2 781.4 M 427.2 781.4 L 427.2 781.4 M 427.2 781.4 L 430.4 781.4 M 430.4 781.4 L 430.4 778.1 M 430.4 778.1 L 427.2 778.1 M 427.2 778.1 L 427.2 778.1 M 427.2 778.1 L 427.2 763.1 M 427.2 763.1 L 427.1 761.3 M 427.1 761.3 L 427 759.9 M 427 759.9 L 426.9 758.7 M 426.9 758.7 L 426.6 757.9 M 426.6 757.9 L 426.3 757.3 M 426.3 757.3 L 425.9 756.8 M 425.9 756.8 L 425.4 756.4 M 425.4 756.4 L 424.8 756 M 424.8 756 L 424.1 755.6 M 424.1 755.6 L 423.2 755.4 M 423.2 755.4 L 422.2 755.3 M 422.2 755.3 L 421.1 755.2 M 421.1 755.2 L 420.3 755.2 M 401.9 755.1 L 401.9 755.1 M 401.9 755.1 L 400.3 755.4 M 400.3 755.4 L 398.8 755.8 M 398.8 755.8 L 397.3 756.6 M 397.3 756.6 L 396 757.4 M 396 757.4 L 394.8 758.4 M 394.8 758.4 L 393.8 759.6 M 393.8 759.6 L 393 761 M 393 761 L 392.3 762.6 M 392.3 762.6 L 391.9 764.4 M 391.9 764.4 L 391.6 766.5 M 391.6 766.5 L 391.5 768.9 M 391.5 768.9 L 391.7 771.8 M 391.7 771.8 L 392.3 774.4 M 392.3 774.4 L 393.4 776.6 M 393.4 776.6 L 394.9 778.5 M 394.9 778.5 L 396.7 780.1 M 396.7 780.1 L 398.7 781.2 M 398.7 781.2 L 401 781.8 M 401 781.8 L 403.6 782 M 403.6 782 L 405.9 781.8 M 405.9 781.8 L 408 781.3 M 408 781.3 L 410 780.4 M 410 780.4 L 411.7 779.2 M 411.7 779.2 L 413.5 777.2 M 413.5 777.2 L 414.7 774.7 M 414.7 774.7 L 415.5 771.9 M 415.5 771.9 L 415.7 768.5 M 415.7 768.5 L 415.5 765.4 M 415.5 765.4 L 414.9 762.7 M 414.9 762.7 L 413.8 760.4 M 413.8 760.4 L 412.4 758.4 M 412.4 758.4 L 410.6 756.9 M 410.6 756.9 L 408.5 755.8 M 408.5 755.8 L 406.2 755.2 M 406.2 755.2 L 403.6 755 M 403.6 755 L 401.9 755.1 M 411.2 768.5 L 411.2 768.5 M 411.2 768.5 L 411.1 766.2 M 411.1 766.2 L 410.7 764.2 M 410.7 764.2 L 410 762.4 M 410 762.4 L 409.1 761 M 409.1 761 L 407.9 759.9 M 407.9 759.9 L 406.6 759.2 M 406.6 759.2 L 405.2 758.7 M 405.2 758.7 L 403.6 758.6 M 403.6 758.6 L 402 758.7 M 402 758.7 L 400.6 759.2 M 400.6 759.2 L 399.3 759.9 M 399.3 759.9 L 398.1 761 M 398.1 761 L 397.2 762.5 M 397.2 762.5 L 396.5 764.2 M 396.5 764.2 L 396.1 766.2 M 396.1 766.2 L 396 768.6 M 396 768.6 L 396.1 770.9 M 396.1 770.9 L 396.5 772.9 M 396.5 772.9 L 397.2 774.5 M 397.2 774.5 L 398.2 775.9 M 398.2 775.9 L 399.3 777 M 399.3 777 L 400.6 777.8 M 400.6 777.8 L 402 778.2 M 402 778.2 L 403.6 778.4 M 403.6 778.4 L 405.2 778.2 M 405.2 778.2 L 406.6 777.8 M 406.6 777.8 L 407.9 777 M 407.9 777 L 409.1 775.9 M 409.1 775.9 L 410 774.5 M 410 774.5 L 410.7 772.9 M 410.7 772.9 L 411.1 770.8 M 411.1 770.8 L 411.2 768.5"/></g></g><use class="pcb_board-cf" mask="url(#pcb_bottom-cu_finish-mask)" xlink:href="#pcb_bottom-sm"/></g></g></svg>