<?xml version="1.0" encoding="utf-8" ?>
<svg baseProfile="tiny" height="73.566139934" version="1.2" width="116.085823934" xmlns="http://www.w3.org/2000/svg" xmlns:ev="http://www.w3.org/2001/xml-events" xmlns:xlink="http://www.w3.org/1999/xlink"><defs /><g id="paths" stroke="green"><path d="M 4.893306967,58.042911967 L 82.846060967,58.042911967 L 82.846060967,68.672832967 L 111.192516967,68.672832967 L 111.192516967,4.893306967 L 82.846060967,4.893306967 L 82.846060967,15.523227967 L 4.893306967,15.523227967 L 4.893306967,58.042911967 Z" fill-opacity="0" stroke-linejoin="round" stroke-width="1.0" /></g><g fill="red" id="top_parts" stroke="red"><line stroke-linecap="round" stroke-width="0.5" x1="82.6731" x2="82.6731" y1="18.9737" y2="54.5924" /><line stroke-linecap="round" stroke-width="0.5" x1="82.6731" x2="38.019" y1="54.5924" y2="54.5924" /><line stroke-linecap="round" stroke-width="0.5" x1="38.019" x2="38.019" y1="54.5924" y2="18.9737" /><line stroke-linecap="round" stroke-width="0.5" x1="38.019" x2="82.6731" y1="18.9737" y2="18.9737" /><text font-family="monospace" font-size="2" stroke-width="0.1" text-anchor="middle" x="60.346061517" y="36.783069967">SW1</text><line stroke-linecap="round" stroke-width="0.5" x1="139.2671" x2="139.2671" y1="7.1358" y2="65.7217" /><line stroke-linecap="round" stroke-width="0.5" x1="139.2671" x2="83.6391" y1="65.7217" y2="65.7217" /><line stroke-linecap="round" stroke-width="0.5" x1="83.6391" x2="83.6391" y1="65.7217" y2="7.1358" /><line stroke-linecap="round" stroke-width="0.5" x1="83.6391" x2="139.2671" y1="7.1358" y2="7.1358" /><text font-family="monospace" font-size="2" stroke-width="0.1" text-anchor="middle" x="111.453084677" y="36.428739267">J2</text><line stroke-linecap="round" stroke-width="0.5" x1="5.602" x2="5.602" y1="58.0429" y2="15.5232" /><line stroke-linecap="round" stroke-width="0.5" x1="5.602" x2="36.0744" y1="15.5232" y2="15.5232" /><line stroke-linecap="round" stroke-width="0.5" x1="36.0744" x2="36.0744" y1="15.5232" y2="58.0429" /><line stroke-linecap="round" stroke-width="0.5" x1="36.0744" x2="5.602" y1="58.0429" y2="58.0429" /></g><g fill="blue" id="bottom_parts" stroke="blue" /></svg>