<?xml version="1.0" encoding="utf-8" ?>
<svg baseProfile="tiny" height="73.566139934" version="1.2" width="116.085823934" xmlns="http://www.w3.org/2000/svg" xmlns:ev="http://www.w3.org/2001/xml-events" xmlns:xlink="http://www.w3.org/1999/xlink"><defs /><g id="paths" stroke="blue"><path d="M 4.893306967,58.042911967 L 82.846060967,58.042911967 L 82.846060967,68.672832967 L 111.192516967,68.672832967 L 111.192516967,4.893306967 L 82.846060967,4.893306967 L 82.846060967,15.523227967 L 4.893306967,15.523227967 L 4.893306967,58.042911967 Z" fill-opacity="0" stroke-linejoin="round" stroke-width="1.0" /></g><g fill="red" id="holes"><circle cx="73.6335" cy="23.2831" r="1.5945" stroke-width="0.0" /><circle cx="64.7752" cy="23.2831" r="1.5945" stroke-width="0.0" /><circle cx="55.9169" cy="23.2831" r="1.5945" stroke-width="0.0" /><circle cx="47.0587" cy="23.2831" r="1.5945" stroke-width="0.0" /><circle cx="47.0587" cy="50.2831" r="1.5945" stroke-width="0.0" /><circle cx="55.9169" cy="50.2831" r="1.5945" stroke-width="0.0" /><circle cx="64.7752" cy="50.2831" r="1.5945" stroke-width="0.0" /><circle cx="73.6335" cy="50.2831" r="1.5945" stroke-width="0.0" /><circle cx="101.9976" cy="59.7083" r="4.0748" stroke-width="0.0" /><circle cx="101.9976" cy="13.1492" r="4.0748" stroke-width="0.0" /><circle cx="92.3953" cy="48.8303" r="1.6831" stroke-width="0.0" /><circle cx="92.3953" cy="39.972" r="1.6831" stroke-width="0.0" /><circle cx="92.3953" cy="32.8854" r="1.6831" stroke-width="0.0" /><circle cx="92.3953" cy="24.0272" r="1.6831" stroke-width="0.0" /></g><g id="rulers" stroke="black" /></svg>