<?xml version='1.0' encoding='UTF-8' standalone='no'?>
<svg xmlns="http://www.w3.org/2000/svg" width="382" height="165" x="0" y="0"><text x="360" y="55" font-size="10" font-family="sans-serif" text-anchor="middle" alignment-baseline="middle">GND</text><text x="140" y="50" font-size="10" font-family="sans-serif" text-anchor="start" alignment-baseline="hanging">SW1B</text><text x="276" y="97" font-size="10" font-family="sans-serif" text-anchor="start" alignment-baseline="hanging">67643-0910</text><text x="270" y="40" font-size="10" font-family="sans-serif" text-anchor="start" alignment-baseline="hanging">J2</text><text x="140" y="10" font-size="10" font-family="sans-serif" text-anchor="start" alignment-baseline="hanging">SW1A</text><text x="140" y="90" font-size="10" font-family="sans-serif" text-anchor="start" alignment-baseline="hanging">SW1C</text><text x="140" y="130" font-size="10" font-family="sans-serif" text-anchor="start" alignment-baseline="hanging">SW1D</text><text x="13" y="32" font-size="10" font-family="sans-serif" text-anchor="start" alignment-baseline="hanging">J1</text><line x1="140" y1="30" x2="150" y2="30" stroke-width="2" stroke="black"></line><circle cx="153" cy="30" r="3" style="stroke: #000; stroke-width: 1; fill: none;"></circle><circle cx="167" cy="30" r="3" style="stroke: #000; stroke-width: 1; fill: none;"></circle><line x1="170" y1="30" x2="180" y2="30" stroke-width="2" stroke="black"></line><line x1="156" y1="30" x2="166" y2="20" stroke-width="2" stroke="black"></line><line x1="140" y1="70" x2="150" y2="70" stroke-width="2" stroke="black"></line><circle cx="153" cy="70" r="3" style="stroke: #000; stroke-width: 1; fill: none;"></circle><circle cx="167" cy="70" r="3" style="stroke: #000; stroke-width: 1; fill: none;"></circle><line x1="170" y1="70" x2="180" y2="70" stroke-width="2" stroke="black"></line><line x1="156" y1="70" x2="166" y2="60" stroke-width="2" stroke="black"></line><rect width="70" height="40" x="270" y="50" style="stroke: #000; stroke-width: 1; fill: none;"></rect><line x1="260" y1="80" x2="270" y2="80" stroke-width="2" stroke="black"></line><text x="272" y="80" font-size="10" font-family="sans-serif" text-anchor="start" alignment-baseline="middle">D+</text><line x1="260" y1="70" x2="270" y2="70" stroke-width="2" stroke="black"></line><text x="272" y="70" font-size="10" font-family="sans-serif" text-anchor="start" alignment-baseline="middle">D-</text><line x1="260" y1="60" x2="270" y2="60" stroke-width="2" stroke="black"></line><text x="272" y="60" font-size="10" font-family="sans-serif" text-anchor="start" alignment-baseline="middle">VBUS</text><line x1="350" y1="60" x2="340" y2="60" stroke-width="2" stroke="black"></line><text x="338" y="60" font-size="10" font-family="sans-serif" text-anchor="end" alignment-baseline="middle">GND</text><line x1="350" y1="70" x2="340" y2="70" stroke-width="2" stroke="black"></line><text x="338" y="70" font-size="10" font-family="sans-serif" text-anchor="end" alignment-baseline="middle">S</text><line x1="350" y1="80" x2="340" y2="80" stroke-width="2" stroke="black"></line><text x="338" y="80" font-size="10" font-family="sans-serif" text-anchor="end" alignment-baseline="middle">S</text><rect width="50" height="90" x="10" y="46" style="stroke: #000; stroke-width: 1; fill: none;"></rect><line x1="70" y1="60" x2="60" y2="60" stroke-width="2" stroke="black"></line><text x="55" y="60" font-size="10" font-family="sans-serif" text-anchor="end" alignment-baseline="middle">+5V</text><line x1="70" y1="80" x2="60" y2="80" stroke-width="2" stroke="black"></line><text x="55" y="80" font-size="10" font-family="sans-serif" text-anchor="end" alignment-baseline="middle">D-</text><line x1="70" y1="100" x2="60" y2="100" stroke-width="2" stroke="black"></line><text x="55" y="100" font-size="10" font-family="sans-serif" text-anchor="end" alignment-baseline="middle">D+</text><line x1="70" y1="120" x2="60" y2="120" stroke-width="2" stroke="black"></line><text x="55" y="120" font-size="10" font-family="sans-serif" text-anchor="end" alignment-baseline="middle">GND</text><line x1="140" y1="110" x2="150" y2="110" stroke-width="2" stroke="black"></line><circle cx="153" cy="110" r="3" style="stroke: #000; stroke-width: 1; fill: none;"></circle><circle cx="167" cy="110" r="3" style="stroke: #000; stroke-width: 1; fill: none;"></circle><line x1="170" y1="110" x2="180" y2="110" stroke-width="2" stroke="black"></line><line x1="156" y1="110" x2="166" y2="100" stroke-width="2" stroke="black"></line><line x1="140" y1="150" x2="150" y2="150" stroke-width="2" stroke="black"></line><circle cx="153" cy="150" r="3" style="stroke: #000; stroke-width: 1; fill: none;"></circle><circle cx="167" cy="150" r="3" style="stroke: #000; stroke-width: 1; fill: none;"></circle><line x1="170" y1="150" x2="180" y2="150" stroke-width="2" stroke="black"></line><line x1="156" y1="150" x2="166" y2="140" stroke-width="2" stroke="black"></line><circle cx="370" cy="70" r="2" style="stroke: #000; stroke-width: 1; fill: none;"></circle><circle cx="370" cy="80" r="2" style="stroke: #000; stroke-width: 1; fill: none;"></circle><line x1="220" y1="30" x2="220" y2="60" stroke-width="2" stroke="black"></line><line x1="100" y1="110" x2="100" y2="100" stroke-width="2" stroke="black"></line><line x1="180" y1="30" x2="220" y2="30" stroke-width="2" stroke="black"></line><line x1="220" y1="80" x2="220" y2="110" stroke-width="2" stroke="black"></line><line x1="220" y1="80" x2="260" y2="80" stroke-width="2" stroke="black"></line><line x1="70" y1="60" x2="100" y2="60" stroke-width="2" stroke="black"></line><line x1="370" y1="60" x2="370" y2="70" stroke-width="2" stroke="black"></line><line x1="100" y1="80" x2="70" y2="80" stroke-width="2" stroke="black"></line><line x1="140" y1="110" x2="100" y2="110" stroke-width="2" stroke="black"></line><line x1="180" y1="110" x2="220" y2="110" stroke-width="2" stroke="black"></line><line x1="100" y1="70" x2="100" y2="80" stroke-width="2" stroke="black"></line><line x1="100" y1="70" x2="140" y2="70" stroke-width="2" stroke="black"></line><line x1="100" y1="150" x2="140" y2="150" stroke-width="2" stroke="black"></line><line x1="260" y1="70" x2="180" y2="70" stroke-width="2" stroke="black"></line><line x1="100" y1="120" x2="100" y2="150" stroke-width="2" stroke="black"></line><line x1="350" y1="70" x2="370" y2="70" stroke-width="2" stroke="black"></line><line x1="70" y1="120" x2="100" y2="120" stroke-width="2" stroke="black"></line><line x1="350" y1="60" x2="370" y2="60" stroke-width="2" stroke="black"></line><line x1="370" y1="80" x2="350" y2="80" stroke-width="2" stroke="black"></line><line x1="370" y1="80" x2="370" y2="70" stroke-width="2" stroke="black"></line><line x1="70" y1="100" x2="100" y2="100" stroke-width="2" stroke="black"></line><line x1="100" y1="30" x2="100" y2="60" stroke-width="2" stroke="black"></line><line x1="100" y1="30" x2="140" y2="30" stroke-width="2" stroke="black"></line><line x1="260" y1="60" x2="220" y2="60" stroke-width="2" stroke="black"></line><line x1="370" y1="150" x2="180" y2="150" stroke-width="2" stroke="black"></line><line x1="370" y1="150" x2="370" y2="80" stroke-width="2" stroke="black"></line></svg>