<?xml version='1.0' encoding='UTF-8' standalone='no'?>
<svg xmlns="http://www.w3.org/2000/svg" width="825" height="524" x="0" y="0"><text x="170" y="49" font-size="10" font-family="sans-serif" text-anchor="middle" alignment-baseline="middle">Vusb</text><text x="245" y="10" font-size="10" font-family="sans-serif" text-anchor="start" alignment-baseline="hanging">L1</text><text x="690" y="374" font-size="10" font-family="sans-serif" text-anchor="end" alignment-baseline="middle">RTS</text><text x="230" y="234" font-size="10" font-family="sans-serif" text-anchor="end" alignment-baseline="middle">VCC</text><text x="329" y="84" font-size="10" font-family="sans-serif" text-anchor="start" alignment-baseline="hanging">100nF</text><text x="402" y="88" font-size="10" font-family="sans serif" text-anchor="start" alignment-baseline="hanging">4.7uF</text><text x="807" y="391" font-size="10" font-family="sans-serif" text-anchor="end" alignment-baseline="hanging">826629-6</text><text x="735" y="283" font-size="10" font-family="sans-serif" text-anchor="start" alignment-baseline="hanging">GND</text><text x="542" y="319" font-size="10" font-family="sans-serif" text-anchor="start" alignment-baseline="hanging">68001-403HLF</text><text x="690" y="214" font-size="10" font-family="sans-serif" text-anchor="end" alignment-baseline="middle">RXD</text><text x="235" y="79" font-size="10" font-family="sans serif" text-anchor="end" alignment-baseline="hanging">C1</text><text x="65" y="154" font-size="10" font-family="sans-serif" text-anchor="end" alignment-baseline="hanging">J1</text><text x="375" y="136" font-size="10" font-family="sans-serif" text-anchor="start" alignment-baseline="hanging">GND</text><text x="74" y="320" font-size="10" font-family="sans-serif" text-anchor="start" alignment-baseline="hanging">GND</text><text x="415" y="82" font-size="10" font-family="sans serif" text-anchor="end" alignment-baseline="hanging">C3</text><text x="795" y="304" font-size="10" font-family="sans-serif" text-anchor="end" alignment-baseline="hanging">J3</text><text x="505" y="236" font-size="10" font-family="sans-serif" text-anchor="start" alignment-baseline="hanging">GND</text><text x="214" y="25" font-size="10" font-family="sans-serif" text-anchor="start" alignment-baseline="hanging">MI0805K400R-10</text><text x="440" y="254" font-size="10" font-family="sans-serif" text-anchor="start" alignment-baseline="middle">TXD</text><text x="755" y="234" font-size="10" font-family="sans-serif" text-anchor="start" alignment-baseline="hanging">0393570004</text><text x="440" y="294" font-size="10" font-family="sans-serif" text-anchor="start" alignment-baseline="middle">CTS</text><text x="690" y="354" font-size="10" font-family="sans-serif" text-anchor="end" alignment-baseline="middle">TXD</text><text x="690" y="204" font-size="10" font-family="sans-serif" text-anchor="end" alignment-baseline="middle">TXD</text><text x="440" y="264" font-size="10" font-family="sans-serif" text-anchor="start" alignment-baseline="middle">RXD</text><text x="440" y="274" font-size="10" font-family="sans-serif" text-anchor="start" alignment-baseline="middle">RTS</text><text x="425" y="504" font-size="10" font-family="sans-serif" text-anchor="start" alignment-baseline="hanging">GND</text><text x="689" y="364" font-size="10" font-family="sans-serif" text-anchor="end" alignment-baseline="middle">RXD</text><text x="295" y="217" font-size="10" font-family="sans-serif" text-anchor="start" alignment-baseline="hanging">U1</text><text x="775" y="171" font-size="10" font-family="sans-serif" text-anchor="start" alignment-baseline="hanging">J2</text><text x="194" y="134" font-size="10" font-family="sans-serif" text-anchor="start" alignment-baseline="hanging">GND</text><text x="304" y="134" font-size="10" font-family="sans-serif" text-anchor="start" alignment-baseline="hanging">GND</text><text x="470" y="54" font-size="10" font-family="sans-serif" text-anchor="start" alignment-baseline="middle">VCC</text><text x="339" y="476" font-size="10" font-family="sans-serif" text-anchor="start" alignment-baseline="hanging">FT232RL</text><text x="225" y="424" font-size="10" font-family="sans-serif" text-anchor="start" alignment-baseline="hanging">GND</text><text x="223" y="85" font-size="10" font-family="sans serif" text-anchor="start" alignment-baseline="hanging">10nF</text><text x="690" y="344" font-size="10" font-family="sans-serif" text-anchor="end" alignment-baseline="middle">VCC</text><text x="333" y="72" font-size="10" font-family="sans-serif" text-anchor="start" alignment-baseline="hanging">C2</text><text x="566" y="260" font-size="10" font-family="sans-serif" text-anchor="start" alignment-baseline="hanging">P10</text><text x="74" y="271" font-size="10" font-family="sans-serif" text-anchor="end" alignment-baseline="hanging">USB-B1HSB6</text><text x="735" y="433" font-size="10" font-family="sans-serif" text-anchor="start" alignment-baseline="hanging">GND</text><text x="689" y="224" font-size="10" font-family="sans-serif" text-anchor="end" alignment-baseline="middle">RTS/DTR</text><text x="471" y="171" font-size="10" font-family="sans-serif" text-anchor="start" alignment-baseline="hanging">100nF</text><text x="519" y="294" font-size="10" font-family="sans-serif" text-anchor="end" alignment-baseline="middle">RTS/DTR</text><text x="450" y="168" font-size="10" font-family="sans-serif" text-anchor="start" alignment-baseline="hanging">C4</text><text x="690" y="334" font-size="10" font-family="sans-serif" text-anchor="end" alignment-baseline="middle">CTS</text><line x1="450" y1="54" x2="445" y2="54" stroke-width="2" stroke="black"></line><line x1="455" y1="57" x2="450" y2="54" stroke-width="2" stroke="black"></line><line x1="455" y1="51" x2="450" y2="54" stroke-width="2" stroke="black"></line><line x1="455" y1="57" x2="465" y2="57" stroke-width="2" stroke="black"></line><line x1="455" y1="51" x2="465" y2="51" stroke-width="2" stroke="black"></line><line x1="465" y1="57" x2="465" y2="51" stroke-width="2" stroke="black"></line><line x1="250" y1="234" x2="255" y2="234" stroke-width="2" stroke="black"></line><line x1="245" y1="231" x2="250" y2="234" stroke-width="2" stroke="black"></line><line x1="245" y1="237" x2="250" y2="234" stroke-width="2" stroke="black"></line><line x1="245" y1="231" x2="235" y2="231" stroke-width="2" stroke="black"></line><line x1="245" y1="237" x2="235" y2="237" stroke-width="2" stroke="black"></line><line x1="235" y1="231" x2="235" y2="237" stroke-width="2" stroke="black"></line><line x1="540" y1="294" x2="545" y2="294" stroke-width="2" stroke="black"></line><line x1="525" y1="294" x2="530" y2="291" stroke-width="2" stroke="black"></line><line x1="525" y1="294" x2="530" y2="297" stroke-width="2" stroke="black"></line><line x1="530" y1="291" x2="540" y2="291" stroke-width="2" stroke="black"></line><line x1="530" y1="297" x2="540" y2="297" stroke-width="2" stroke="black"></line><line x1="540" y1="291" x2="540" y2="297" stroke-width="2" stroke="black"></line><line x1="710" y1="224" x2="715" y2="224" stroke-width="2" stroke="black"></line><line x1="695" y1="224" x2="700" y2="221" stroke-width="2" stroke="black"></line><line x1="695" y1="224" x2="700" y2="227" stroke-width="2" stroke="black"></line><line x1="700" y1="221" x2="710" y2="221" stroke-width="2" stroke="black"></line><line x1="700" y1="227" x2="710" y2="227" stroke-width="2" stroke="black"></line><line x1="710" y1="221" x2="710" y2="227" stroke-width="2" stroke="black"></line><line x1="745" y1="404" x2="745" y2="414" stroke-width="2" stroke="black"></line><line x1="735" y1="414" x2="755" y2="414" stroke-width="2" stroke="black"></line><line x1="738" y1="419" x2="752" y2="419" stroke-width="2" stroke="black"></line><line x1="741" y1="424" x2="749" y2="424" stroke-width="2" stroke="black"></line><line x1="315" y1="104" x2="315" y2="114" stroke-width="2" stroke="black"></line><line x1="305" y1="114" x2="325" y2="114" stroke-width="2" stroke="black"></line><line x1="308" y1="119" x2="322" y2="119" stroke-width="2" stroke="black"></line><line x1="311" y1="124" x2="319" y2="124" stroke-width="2" stroke="black"></line><line x1="710" y1="344" x2="715" y2="344" stroke-width="2" stroke="black"></line><line x1="695" y1="344" x2="700" y2="341" stroke-width="2" stroke="black"></line><line x1="695" y1="344" x2="700" y2="347" stroke-width="2" stroke="black"></line><line x1="700" y1="341" x2="710" y2="341" stroke-width="2" stroke="black"></line><line x1="700" y1="347" x2="710" y2="347" stroke-width="2" stroke="black"></line><line x1="710" y1="341" x2="710" y2="347" stroke-width="2" stroke="black"></line><path d="M 240 54 A 5 5 0 1 0 230 54" style="stroke: #000; stroke-width: 1; fill: none;"></path><path d="M 250 54 A 5 5 0 1 0 240 54" style="stroke: #000; stroke-width: 1; fill: none;"></path><path d="M 260 54 A 5 5 0 1 0 250 54" style="stroke: #000; stroke-width: 1; fill: none;"></path><path d="M 270 54 A 5 5 0 1 0 260 54" style="stroke: #000; stroke-width: 1; fill: none;"></path><line x1="225" y1="54" x2="230" y2="54" stroke-width="2" stroke="black"></line><line x1="270" y1="54" x2="275" y2="54" stroke-width="2" stroke="black"></line><line x1="420" y1="274" x2="415" y2="274" stroke-width="2" stroke="black"></line><line x1="435" y1="274" x2="430" y2="271" stroke-width="2" stroke="black"></line><line x1="435" y1="274" x2="430" y2="277" stroke-width="2" stroke="black"></line><line x1="430" y1="271" x2="420" y2="271" stroke-width="2" stroke="black"></line><line x1="430" y1="277" x2="420" y2="277" stroke-width="2" stroke="black"></line><line x1="420" y1="271" x2="420" y2="277" stroke-width="2" stroke="black"></line><line x1="385" y1="104" x2="385" y2="114" stroke-width="2" stroke="black"></line><line x1="375" y1="114" x2="395" y2="114" stroke-width="2" stroke="black"></line><line x1="378" y1="119" x2="392" y2="119" stroke-width="2" stroke="black"></line><line x1="381" y1="124" x2="389" y2="124" stroke-width="2" stroke="black"></line><line x1="420" y1="294" x2="415" y2="294" stroke-width="2" stroke="black"></line><line x1="435" y1="294" x2="430" y2="291" stroke-width="2" stroke="black"></line><line x1="435" y1="294" x2="430" y2="297" stroke-width="2" stroke="black"></line><line x1="430" y1="291" x2="420" y2="291" stroke-width="2" stroke="black"></line><line x1="430" y1="297" x2="420" y2="297" stroke-width="2" stroke="black"></line><line x1="420" y1="291" x2="420" y2="297" stroke-width="2" stroke="black"></line><line x1="555" y1="284" x2="560" y2="284" stroke-width="2" stroke="black"></line><line x1="555" y1="294" x2="560" y2="294" stroke-width="2" stroke="black"></line><line x1="555" y1="304" x2="560" y2="304" stroke-width="2" stroke="black"></line><rect width="32" height="40" x="592" y="314" transform="rotate(180 592,314)" style="stroke: #000; stroke-width: 1; fill: none;"></rect><text x="565" y="304" font-size="10" font-family="sans-serif" text-anchor="start" alignment-baseline="middle">1</text><text x="565" y="294" font-size="10" font-family="sans-serif" text-anchor="start" alignment-baseline="middle">2</text><text x="565" y="284" font-size="10" font-family="sans-serif" text-anchor="start" alignment-baseline="middle">3</text><line x1="325" y1="79" x2="305" y2="79" stroke-width="2" stroke="black"></line><line x1="325" y1="89" x2="305" y2="89" stroke-width="2" stroke="black"></line><line x1="315" y1="74" x2="315" y2="79" stroke-width="2" stroke="black"></line><line x1="315" y1="89" x2="315" y2="94" stroke-width="2" stroke="black"></line><line x1="710" y1="214" x2="715" y2="214" stroke-width="2" stroke="black"></line><line x1="705" y1="211" x2="710" y2="214" stroke-width="2" stroke="black"></line><line x1="705" y1="217" x2="710" y2="214" stroke-width="2" stroke="black"></line><line x1="705" y1="211" x2="695" y2="211" stroke-width="2" stroke="black"></line><line x1="705" y1="217" x2="695" y2="217" stroke-width="2" stroke="black"></line><line x1="695" y1="211" x2="695" y2="217" stroke-width="2" stroke="black"></line><line x1="420" y1="254" x2="415" y2="254" stroke-width="2" stroke="black"></line><line x1="435" y1="254" x2="430" y2="251" stroke-width="2" stroke="black"></line><line x1="435" y1="254" x2="430" y2="257" stroke-width="2" stroke="black"></line><line x1="430" y1="251" x2="420" y2="251" stroke-width="2" stroke="black"></line><line x1="430" y1="257" x2="420" y2="257" stroke-width="2" stroke="black"></line><line x1="420" y1="251" x2="420" y2="257" stroke-width="2" stroke="black"></line><line x1="85" y1="294" x2="85" y2="304" stroke-width="2" stroke="black"></line><line x1="75" y1="304" x2="95" y2="304" stroke-width="2" stroke="black"></line><line x1="78" y1="309" x2="92" y2="309" stroke-width="2" stroke="black"></line><line x1="81" y1="314" x2="89" y2="314" stroke-width="2" stroke="black"></line><rect width="20" height="70" x="775" y="314" style="stroke: #000; stroke-width: 1; fill: none;"></rect><line x1="765" y1="324" x2="775" y2="324" stroke-width="2" stroke="black"></line><text x="777" y="324" font-size="10" font-family="sans-serif" text-anchor="start" alignment-baseline="middle">1</text><line x1="765" y1="334" x2="775" y2="334" stroke-width="2" stroke="black"></line><text x="777" y="334" font-size="10" font-family="sans-serif" text-anchor="start" alignment-baseline="middle">2</text><line x1="765" y1="344" x2="775" y2="344" stroke-width="2" stroke="black"></line><text x="777" y="344" font-size="10" font-family="sans-serif" text-anchor="start" alignment-baseline="middle">3</text><line x1="765" y1="354" x2="775" y2="354" stroke-width="2" stroke="black"></line><text x="777" y="354" font-size="10" font-family="sans-serif" text-anchor="start" alignment-baseline="middle">4</text><line x1="765" y1="364" x2="775" y2="364" stroke-width="2" stroke="black"></line><text x="777" y="364" font-size="10" font-family="sans-serif" text-anchor="start" alignment-baseline="middle">5</text><line x1="765" y1="374" x2="775" y2="374" stroke-width="2" stroke="black"></line><text x="777" y="374" font-size="10" font-family="sans-serif" text-anchor="start" alignment-baseline="middle">6</text><line x1="710" y1="204" x2="715" y2="204" stroke-width="2" stroke="black"></line><line x1="695" y1="204" x2="700" y2="201" stroke-width="2" stroke="black"></line><line x1="695" y1="204" x2="700" y2="207" stroke-width="2" stroke="black"></line><line x1="700" y1="201" x2="710" y2="201" stroke-width="2" stroke="black"></line><line x1="700" y1="207" x2="710" y2="207" stroke-width="2" stroke="black"></line><line x1="710" y1="201" x2="710" y2="207" stroke-width="2" stroke="black"></line><line x1="710" y1="364" x2="715" y2="364" stroke-width="2" stroke="black"></line><line x1="705" y1="361" x2="710" y2="364" stroke-width="2" stroke="black"></line><line x1="705" y1="367" x2="710" y2="364" stroke-width="2" stroke="black"></line><line x1="705" y1="361" x2="695" y2="361" stroke-width="2" stroke="black"></line><line x1="705" y1="367" x2="695" y2="367" stroke-width="2" stroke="black"></line><line x1="695" y1="361" x2="695" y2="367" stroke-width="2" stroke="black"></line><line x1="285" y1="324" x2="295" y2="324" stroke-width="2" stroke="black"></line><line x1="395" y1="454" x2="385" y2="454" stroke-width="2" stroke="black"></line><line x1="395" y1="354" x2="385" y2="354" stroke-width="2" stroke="black"></line><line x1="395" y1="364" x2="385" y2="364" stroke-width="2" stroke="black"></line><line x1="395" y1="424" x2="385" y2="424" stroke-width="2" stroke="black"></line><line x1="395" y1="434" x2="385" y2="434" stroke-width="2" stroke="black"></line><line x1="395" y1="384" x2="385" y2="384" stroke-width="2" stroke="black"></line><line x1="395" y1="374" x2="385" y2="374" stroke-width="2" stroke="black"></line><line x1="395" y1="394" x2="385" y2="394" stroke-width="2" stroke="black"></line><line x1="395" y1="294" x2="385" y2="294" stroke-width="2" stroke="black"></line><line x1="395" y1="324" x2="385" y2="324" stroke-width="2" stroke="black"></line><line x1="395" y1="314" x2="385" y2="314" stroke-width="2" stroke="black"></line><line x1="395" y1="444" x2="385" y2="444" stroke-width="2" stroke="black"></line><line x1="395" y1="334" x2="385" y2="334" stroke-width="2" stroke="black"></line><line x1="395" y1="264" x2="385" y2="264" stroke-width="2" stroke="black"></line><line x1="395" y1="284" x2="385" y2="284" stroke-width="2" stroke="black"></line><line x1="395" y1="304" x2="385" y2="304" stroke-width="2" stroke="black"></line><line x1="395" y1="254" x2="385" y2="254" stroke-width="2" stroke="black"></line><rect width="90" height="240" x="295" y="224" style="stroke: #000; stroke-width: 1; fill: none;"></rect><text x="380" y="254" font-size="10" font-family="sans-serif" text-anchor="end" alignment-baseline="middle">TXD</text><text x="380" y="304" font-size="10" font-family="sans-serif" text-anchor="end" alignment-baseline="middle">DTRn</text><text x="380" y="284" font-size="10" font-family="sans-serif" text-anchor="end" alignment-baseline="middle">RTSn</text><line x1="285" y1="234" x2="295" y2="234" stroke-width="2" stroke="black"></line><text x="300" y="234" font-size="10" font-family="sans-serif" text-anchor="start" alignment-baseline="middle">VCCIO</text><text x="380" y="264" font-size="10" font-family="sans-serif" text-anchor="end" alignment-baseline="middle">RXD</text><text x="380" y="334" font-size="10" font-family="sans-serif" text-anchor="end" alignment-baseline="middle">RIn</text><text x="380" y="444" font-size="10" font-family="sans-serif" text-anchor="end" alignment-baseline="middle">GND</text><line x1="285" y1="444" x2="295" y2="444" stroke-width="2" stroke="black"></line><text x="300" y="444" font-size="10" font-family="sans-serif" text-anchor="start" alignment-baseline="middle">NC</text><text x="380" y="314" font-size="10" font-family="sans-serif" text-anchor="end" alignment-baseline="middle">DSRn</text><text x="380" y="324" font-size="10" font-family="sans-serif" text-anchor="end" alignment-baseline="middle">DCDn</text><text x="380" y="294" font-size="10" font-family="sans-serif" text-anchor="end" alignment-baseline="middle">CTSn</text><text x="380" y="394" font-size="10" font-family="sans-serif" text-anchor="end" alignment-baseline="middle">CBUS4</text><text x="380" y="374" font-size="10" font-family="sans-serif" text-anchor="end" alignment-baseline="middle">CBUS2</text><text x="380" y="384" font-size="10" font-family="sans-serif" text-anchor="end" alignment-baseline="middle">CBUS3</text><line x1="285" y1="284" x2="295" y2="284" stroke-width="2" stroke="black"></line><text x="300" y="284" font-size="10" font-family="sans-serif" text-anchor="start" alignment-baseline="middle">USBDP</text><line x1="285" y1="274" x2="295" y2="274" stroke-width="2" stroke="black"></line><text x="300" y="274" font-size="10" font-family="sans-serif" text-anchor="start" alignment-baseline="middle">USBDM</text><line x1="395" y1="234" x2="385" y2="234" stroke-width="2" stroke="black"></line><text x="380" y="234" font-size="10" font-family="sans-serif" text-anchor="end" alignment-baseline="middle">3V3OUT</text><text x="380" y="434" font-size="10" font-family="sans-serif" text-anchor="end" alignment-baseline="middle">GND</text><line x1="285" y1="314" x2="295" y2="314" stroke-width="2" stroke="black"></line><text x="300" y="314" font-size="10" font-family="sans-serif" text-anchor="start" alignment-baseline="middle">RESETn</text><line x1="285" y1="244" x2="295" y2="244" stroke-width="2" stroke="black"></line><text x="300" y="244" font-size="10" font-family="sans-serif" text-anchor="start" alignment-baseline="middle">VCC</text><text x="380" y="424" font-size="10" font-family="sans-serif" text-anchor="end" alignment-baseline="middle">GND</text><text x="380" y="364" font-size="10" font-family="sans-serif" text-anchor="end" alignment-baseline="middle">CBUS1</text><text x="380" y="354" font-size="10" font-family="sans-serif" text-anchor="end" alignment-baseline="middle">CBUS0</text><line x1="285" y1="454" x2="295" y2="454" stroke-width="2" stroke="black"></line><text x="300" y="454" font-size="10" font-family="sans-serif" text-anchor="start" alignment-baseline="middle">NC</text><text x="380" y="454" font-size="10" font-family="sans-serif" text-anchor="end" alignment-baseline="middle">AGND</text><text x="300" y="324" font-size="10" font-family="sans-serif" text-anchor="start" alignment-baseline="middle">TEST</text><line x1="285" y1="354" x2="295" y2="354" stroke-width="2" stroke="black"></line><text x="300" y="354" font-size="10" font-family="sans-serif" text-anchor="start" alignment-baseline="middle">OSCI</text><line x1="285" y1="364" x2="295" y2="364" stroke-width="2" stroke="black"></line><text x="300" y="364" font-size="10" font-family="sans-serif" text-anchor="start" alignment-baseline="middle">OSCO</text><line x1="460" y1="184" x2="460" y2="204" stroke-width="2" stroke="black"></line><line x1="470" y1="184" x2="470" y2="204" stroke-width="2" stroke="black"></line><line x1="455" y1="194" x2="460" y2="194" stroke-width="2" stroke="black"></line><line x1="470" y1="194" x2="475" y2="194" stroke-width="2" stroke="black"></line><line x1="745" y1="254" x2="745" y2="264" stroke-width="2" stroke="black"></line><line x1="735" y1="264" x2="755" y2="264" stroke-width="2" stroke="black"></line><line x1="738" y1="269" x2="752" y2="269" stroke-width="2" stroke="black"></line><line x1="741" y1="274" x2="749" y2="274" stroke-width="2" stroke="black"></line><path d="M395,77 C 390,83 380,83 375,77" style="stroke: #000; stroke-width: 1; fill: none;"></path><line x1="395" y1="89" x2="375" y2="89" stroke-width="2" stroke="black"></line><line x1="385" y1="74" x2="385" y2="81" stroke-width="2" stroke="black"></line><line x1="385" y1="89" x2="385" y2="94" stroke-width="2" stroke="black"></line><line x1="710" y1="334" x2="715" y2="334" stroke-width="2" stroke="black"></line><line x1="695" y1="334" x2="700" y2="331" stroke-width="2" stroke="black"></line><line x1="695" y1="334" x2="700" y2="337" stroke-width="2" stroke="black"></line><line x1="700" y1="331" x2="710" y2="331" stroke-width="2" stroke="black"></line><line x1="700" y1="337" x2="710" y2="337" stroke-width="2" stroke="black"></line><line x1="710" y1="331" x2="710" y2="337" stroke-width="2" stroke="black"></line><line x1="515" y1="204" x2="515" y2="214" stroke-width="2" stroke="black"></line><line x1="505" y1="214" x2="525" y2="214" stroke-width="2" stroke="black"></line><line x1="508" y1="219" x2="522" y2="219" stroke-width="2" stroke="black"></line><line x1="511" y1="224" x2="519" y2="224" stroke-width="2" stroke="black"></line><line x1="710" y1="354" x2="715" y2="354" stroke-width="2" stroke="black"></line><line x1="695" y1="354" x2="700" y2="351" stroke-width="2" stroke="black"></line><line x1="695" y1="354" x2="700" y2="357" stroke-width="2" stroke="black"></line><line x1="700" y1="351" x2="710" y2="351" stroke-width="2" stroke="black"></line><line x1="700" y1="357" x2="710" y2="357" stroke-width="2" stroke="black"></line><line x1="710" y1="351" x2="710" y2="357" stroke-width="2" stroke="black"></line><rect width="40" height="100" x="25" y="164" style="stroke: #000; stroke-width: 1; fill: none;"></rect><line x1="75" y1="174" x2="65" y2="174" stroke-width="2" stroke="black"></line><text x="63" y="174" font-size="10" font-family="sans-serif" text-anchor="end" alignment-baseline="middle">VCC</text><line x1="75" y1="194" x2="65" y2="194" stroke-width="2" stroke="black"></line><text x="63" y="194" font-size="10" font-family="sans-serif" text-anchor="end" alignment-baseline="middle">D+</text><line x1="75" y1="204" x2="65" y2="204" stroke-width="2" stroke="black"></line><text x="63" y="204" font-size="10" font-family="sans-serif" text-anchor="end" alignment-baseline="middle">D-</text><line x1="75" y1="224" x2="65" y2="224" stroke-width="2" stroke="black"></line><text x="63" y="224" font-size="10" font-family="sans-serif" text-anchor="end" alignment-baseline="middle">GND</text><line x1="75" y1="244" x2="65" y2="244" stroke-width="2" stroke="black"></line><text x="63" y="244" font-size="10" font-family="sans-serif" text-anchor="end" alignment-baseline="middle">S</text><line x1="75" y1="254" x2="65" y2="254" stroke-width="2" stroke="black"></line><text x="63" y="254" font-size="10" font-family="sans-serif" text-anchor="end" alignment-baseline="middle">S</text><line x1="435" y1="464" x2="435" y2="474" stroke-width="2" stroke="black"></line><line x1="425" y1="474" x2="445" y2="474" stroke-width="2" stroke="black"></line><line x1="428" y1="479" x2="442" y2="479" stroke-width="2" stroke="black"></line><line x1="431" y1="484" x2="439" y2="484" stroke-width="2" stroke="black"></line><path d="M215,77 C 210,83 200,83 195,77" style="stroke: #000; stroke-width: 1; fill: none;"></path><line x1="215" y1="89" x2="195" y2="89" stroke-width="2" stroke="black"></line><line x1="205" y1="74" x2="205" y2="81" stroke-width="2" stroke="black"></line><line x1="205" y1="89" x2="205" y2="94" stroke-width="2" stroke="black"></line><line x1="710" y1="374" x2="715" y2="374" stroke-width="2" stroke="black"></line><line x1="695" y1="374" x2="700" y2="371" stroke-width="2" stroke="black"></line><line x1="695" y1="374" x2="700" y2="377" stroke-width="2" stroke="black"></line><line x1="700" y1="371" x2="710" y2="371" stroke-width="2" stroke="black"></line><line x1="700" y1="377" x2="710" y2="377" stroke-width="2" stroke="black"></line><line x1="710" y1="371" x2="710" y2="377" stroke-width="2" stroke="black"></line><rect width="20" height="50" x="775" y="184" style="stroke: #000; stroke-width: 1; fill: none;"></rect><line x1="765" y1="194" x2="775" y2="194" stroke-width="2" stroke="black"></line><text x="777" y="194" font-size="10" font-family="sans-serif" text-anchor="start" alignment-baseline="middle">1</text><line x1="765" y1="204" x2="775" y2="204" stroke-width="2" stroke="black"></line><text x="777" y="204" font-size="10" font-family="sans-serif" text-anchor="start" alignment-baseline="middle">2</text><line x1="765" y1="214" x2="775" y2="214" stroke-width="2" stroke="black"></line><text x="777" y="214" font-size="10" font-family="sans-serif" text-anchor="start" alignment-baseline="middle">3</text><line x1="765" y1="224" x2="775" y2="224" stroke-width="2" stroke="black"></line><text x="777" y="224" font-size="10" font-family="sans-serif" text-anchor="start" alignment-baseline="middle">4</text><line x1="420" y1="264" x2="415" y2="264" stroke-width="2" stroke="black"></line><line x1="425" y1="261" x2="420" y2="264" stroke-width="2" stroke="black"></line><line x1="425" y1="267" x2="420" y2="264" stroke-width="2" stroke="black"></line><line x1="425" y1="261" x2="435" y2="261" stroke-width="2" stroke="black"></line><line x1="425" y1="267" x2="435" y2="267" stroke-width="2" stroke="black"></line><line x1="435" y1="261" x2="435" y2="267" stroke-width="2" stroke="black"></line><line x1="205" y1="104" x2="205" y2="114" stroke-width="2" stroke="black"></line><line x1="195" y1="114" x2="215" y2="114" stroke-width="2" stroke="black"></line><line x1="198" y1="119" x2="212" y2="119" stroke-width="2" stroke="black"></line><line x1="201" y1="124" x2="209" y2="124" stroke-width="2" stroke="black"></line><line x1="235" y1="384" x2="235" y2="394" stroke-width="2" stroke="black"></line><line x1="225" y1="394" x2="245" y2="394" stroke-width="2" stroke="black"></line><line x1="228" y1="399" x2="242" y2="399" stroke-width="2" stroke="black"></line><line x1="231" y1="404" x2="239" y2="404" stroke-width="2" stroke="black"></line><circle cx="85" cy="254" r="2" style="stroke: #000; stroke-width: 1; fill: none;"></circle><circle cx="315" cy="54" r="2" style="stroke: #000; stroke-width: 1; fill: none;"></circle><circle cx="435" cy="444" r="2" style="stroke: #000; stroke-width: 1; fill: none;"></circle><circle cx="85" cy="244" r="2" style="stroke: #000; stroke-width: 1; fill: none;"></circle><circle cx="205" cy="54" r="2" style="stroke: #000; stroke-width: 1; fill: none;"></circle><circle cx="385" cy="54" r="2" style="stroke: #000; stroke-width: 1; fill: none;"></circle><circle cx="435" cy="454" r="2" style="stroke: #000; stroke-width: 1; fill: none;"></circle><circle cx="405" cy="284" r="2" style="stroke: #000; stroke-width: 1; fill: none;"></circle><circle cx="265" cy="234" r="2" style="stroke: #000; stroke-width: 1; fill: none;"></circle><circle cx="435" cy="434" r="2" style="stroke: #000; stroke-width: 1; fill: none;"></circle><line x1="715" y1="354" x2="765" y2="354" stroke-width="2" stroke="black"></line><line x1="85" y1="244" x2="85" y2="254" stroke-width="2" stroke="black"></line><line x1="715" y1="374" x2="765" y2="374" stroke-width="2" stroke="black"></line><line x1="75" y1="254" x2="85" y2="254" stroke-width="2" stroke="black"></line><line x1="285" y1="324" x2="235" y2="324" stroke-width="2" stroke="black"></line><line x1="205" y1="54" x2="205" y2="74" stroke-width="2" stroke="black"></line><line x1="225" y1="54" x2="205" y2="54" stroke-width="2" stroke="black"></line><line x1="765" y1="204" x2="725" y2="204" stroke-width="2" stroke="black"></line><line x1="715" y1="204" x2="725" y2="204" stroke-width="2" stroke="black"></line><line x1="175" y1="194" x2="75" y2="194" stroke-width="2" stroke="black"></line><line x1="725" y1="224" x2="715" y2="224" stroke-width="2" stroke="black"></line><line x1="715" y1="364" x2="765" y2="364" stroke-width="2" stroke="black"></line><line x1="385" y1="54" x2="315" y2="54" stroke-width="2" stroke="black"></line><line x1="385" y1="54" x2="445" y2="54" stroke-width="2" stroke="black"></line><line x1="385" y1="54" x2="385" y2="74" stroke-width="2" stroke="black"></line><line x1="715" y1="344" x2="765" y2="344" stroke-width="2" stroke="black"></line><line x1="515" y1="194" x2="475" y2="194" stroke-width="2" stroke="black"></line><line x1="315" y1="74" x2="315" y2="54" stroke-width="2" stroke="black"></line><line x1="85" y1="294" x2="85" y2="254" stroke-width="2" stroke="black"></line><line x1="75" y1="244" x2="85" y2="244" stroke-width="2" stroke="black"></line><line x1="415" y1="294" x2="395" y2="294" stroke-width="2" stroke="black"></line><line x1="265" y1="244" x2="285" y2="244" stroke-width="2" stroke="black"></line><line x1="765" y1="224" x2="725" y2="224" stroke-width="2" stroke="black"></line><line x1="555" y1="304" x2="395" y2="304" stroke-width="2" stroke="black"></line><line x1="425" y1="234" x2="425" y2="194" stroke-width="2" stroke="black"></line><line x1="395" y1="264" x2="415" y2="264" stroke-width="2" stroke="black"></line><line x1="765" y1="334" x2="715" y2="334" stroke-width="2" stroke="black"></line><line x1="435" y1="454" x2="395" y2="454" stroke-width="2" stroke="black"></line><line x1="435" y1="454" x2="435" y2="444" stroke-width="2" stroke="black"></line><line x1="205" y1="104" x2="205" y2="94" stroke-width="2" stroke="black"></line><line x1="405" y1="284" x2="405" y2="274" stroke-width="2" stroke="black"></line><line x1="265" y1="234" x2="255" y2="234" stroke-width="2" stroke="black"></line><line x1="265" y1="234" x2="285" y2="234" stroke-width="2" stroke="black"></line><line x1="265" y1="234" x2="265" y2="244" stroke-width="2" stroke="black"></line><line x1="275" y1="54" x2="315" y2="54" stroke-width="2" stroke="black"></line><line x1="75" y1="204" x2="165" y2="204" stroke-width="2" stroke="black"></line><line x1="395" y1="284" x2="405" y2="284" stroke-width="2" stroke="black"></line><line x1="435" y1="464" x2="435" y2="454" stroke-width="2" stroke="black"></line><line x1="725" y1="214" x2="765" y2="214" stroke-width="2" stroke="black"></line><line x1="725" y1="214" x2="715" y2="214" stroke-width="2" stroke="black"></line><line x1="435" y1="434" x2="435" y2="444" stroke-width="2" stroke="black"></line><line x1="315" y1="94" x2="315" y2="104" stroke-width="2" stroke="black"></line><line x1="415" y1="274" x2="405" y2="274" stroke-width="2" stroke="black"></line><line x1="515" y1="204" x2="515" y2="194" stroke-width="2" stroke="black"></line><line x1="135" y1="174" x2="75" y2="174" stroke-width="2" stroke="black"></line><line x1="135" y1="54" x2="205" y2="54" stroke-width="2" stroke="black"></line><line x1="135" y1="54" x2="135" y2="174" stroke-width="2" stroke="black"></line><line x1="395" y1="444" x2="435" y2="444" stroke-width="2" stroke="black"></line><line x1="165" y1="274" x2="285" y2="274" stroke-width="2" stroke="black"></line><line x1="165" y1="274" x2="165" y2="204" stroke-width="2" stroke="black"></line><line x1="475" y1="284" x2="555" y2="284" stroke-width="2" stroke="black"></line><line x1="475" y1="284" x2="405" y2="284" stroke-width="2" stroke="black"></line><line x1="745" y1="194" x2="745" y2="254" stroke-width="2" stroke="black"></line><line x1="395" y1="234" x2="425" y2="234" stroke-width="2" stroke="black"></line><line x1="455" y1="194" x2="425" y2="194" stroke-width="2" stroke="black"></line><line x1="385" y1="94" x2="385" y2="104" stroke-width="2" stroke="black"></line><line x1="745" y1="404" x2="745" y2="324" stroke-width="2" stroke="black"></line><line x1="435" y1="424" x2="395" y2="424" stroke-width="2" stroke="black"></line><line x1="435" y1="424" x2="435" y2="434" stroke-width="2" stroke="black"></line><line x1="395" y1="434" x2="435" y2="434" stroke-width="2" stroke="black"></line><line x1="175" y1="284" x2="285" y2="284" stroke-width="2" stroke="black"></line><line x1="175" y1="284" x2="175" y2="194" stroke-width="2" stroke="black"></line><line x1="235" y1="384" x2="235" y2="324" stroke-width="2" stroke="black"></line><line x1="415" y1="254" x2="395" y2="254" stroke-width="2" stroke="black"></line><line x1="765" y1="194" x2="745" y2="194" stroke-width="2" stroke="black"></line><line x1="765" y1="324" x2="745" y2="324" stroke-width="2" stroke="black"></line><line x1="545" y1="294" x2="555" y2="294" stroke-width="2" stroke="black"></line><line x1="85" y1="224" x2="75" y2="224" stroke-width="2" stroke="black"></line><line x1="85" y1="224" x2="85" y2="244" stroke-width="2" stroke="black"></line></svg>