<?xml version="1.0" encoding="utf-8" ?>
<svg baseProfile="tiny" height="98.369288934" version="1.2" width="116.085823934" xmlns="http://www.w3.org/2000/svg" xmlns:ev="http://www.w3.org/2001/xml-events" xmlns:xlink="http://www.w3.org/1999/xlink"><defs /><g id="paths" stroke="green"><path d="M 4.893306967,93.475981967 L 111.192516967,93.475981967 L 111.192516967,4.893306967 L 4.893306967,4.893306967 L 4.893306967,93.475981967 Z" fill-opacity="0" stroke-linejoin="round" stroke-width="1.0" /></g><g fill="red" id="top_parts" stroke="red"><line stroke-linecap="round" stroke-width="0.5" x1="49.148" x2="59.8513" y1="50.0705" y2="50.0705" /><line stroke-linecap="round" stroke-width="0.5" x1="59.8513" x2="59.8513" y1="50.0705" y2="55.3854" /><line stroke-linecap="round" stroke-width="0.5" x1="59.8513" x2="49.148" y1="55.3854" y2="55.3854" /><line stroke-linecap="round" stroke-width="0.5" x1="49.148" x2="49.148" y1="55.3854" y2="50.0705" /><text font-family="monospace" font-size="2" stroke-width="0.1" text-anchor="middle" x="54.499604967" y="52.727951467">R2</text><line stroke-linecap="round" stroke-width="0.5" x1="6.1689" x2="39.0508" y1="6.2043" y2="6.2043" /><line stroke-linecap="round" stroke-width="0.5" x1="39.0508" x2="39.0508" y1="6.2043" y2="92.165" /><line stroke-linecap="round" stroke-width="0.5" x1="39.0508" x2="6.1689" y1="92.165" y2="92.165" /><line stroke-linecap="round" stroke-width="0.5" x1="6.1689" x2="6.1689" y1="92.165" y2="6.2043" /><text font-family="monospace" font-size="2" stroke-width="0.1" text-anchor="middle" x="22.609841967" y="49.184644467">J1</text><line stroke-linecap="round" stroke-width="0.5" x1="59.8513" x2="49.148" y1="48.2988" y2="48.2988" /><line stroke-linecap="round" stroke-width="0.5" x1="49.148" x2="49.148" y1="48.2988" y2="42.9839" /><line stroke-linecap="round" stroke-width="0.5" x1="49.148" x2="59.8513" y1="42.9839" y2="42.9839" /><line stroke-linecap="round" stroke-width="0.5" x1="59.8513" x2="59.8513" y1="42.9839" y2="48.2988" /><text font-family="monospace" font-size="2" stroke-width="0.1" text-anchor="middle" x="54.499604967" y="45.641337467">R3</text><line stroke-linecap="round" stroke-width="0.5" x1="66.0154" x2="66.0154" y1="54.5363" y2="43.833" /><line stroke-linecap="round" stroke-width="0.5" x1="66.0154" x2="71.3303" y1="43.833" y2="43.833" /><line stroke-linecap="round" stroke-width="0.5" x1="71.3303" x2="71.3303" y1="43.833" y2="54.5363" /><line stroke-linecap="round" stroke-width="0.5" x1="71.3303" x2="66.0154" y1="54.5363" y2="54.5363" /><text font-family="monospace" font-size="2" stroke-width="0.1" text-anchor="middle" x="68.672832967" y="49.184644467">R1</text><line stroke-linecap="round" stroke-width="0.5" x1="79.2631" x2="79.2631" y1="78.5409" y2="19.8283" /><line stroke-linecap="round" stroke-width="0.5" x1="79.2631" x2="107.6889" y1="19.8283" y2="19.8283" /><line stroke-linecap="round" stroke-width="0.5" x1="107.6889" x2="107.6889" y1="19.8283" y2="78.5409" /><line stroke-linecap="round" stroke-width="0.5" x1="107.6889" x2="79.2631" y1="78.5409" y2="78.5409" /><text font-family="monospace" font-size="2" stroke-width="0.1" text-anchor="middle" x="93.475981967" y="49.184644467">J3</text></g><g fill="blue" id="bottom_parts" stroke="blue" /></svg>