<?xml version="1.0" encoding="utf-8" ?>
<svg baseProfile="tiny" height="126.885824" version="1.2" width="206.102359" xmlns="http://www.w3.org/2000/svg" xmlns:ev="http://www.w3.org/2001/xml-events" xmlns:xlink="http://www.w3.org/1999/xlink"><defs /><g id="paths" stroke="blue"><path d="M 12.4015745,104.5275565 L 118.7007845,104.5275565 L 118.7007845,15.9448815 L 12.4015745,15.9448815 L 12.4015745,104.5275565 Z" fill-opacity="0" stroke-linejoin="round" stroke-width="1.0" /></g><g fill="red" id="holes"><circle cx="30.1181" cy="33.2362" r="3.5433" stroke-width="0.0" /><circle cx="30.1181" cy="51.2362" r="3.5433" stroke-width="0.0" /><circle cx="30.1181" cy="69.2362" r="3.5433" stroke-width="0.0" /><circle cx="30.1181" cy="87.2362" r="3.5433" stroke-width="0.0" /><circle cx="65.5512" cy="86.811" r="6.75" stroke-width="0.0" /><circle cx="96.378" cy="72.7795" r="1.9843" stroke-width="0.0" /><circle cx="96.378" cy="63.7795" r="1.9843" stroke-width="0.0" /><circle cx="96.378" cy="56.6929" r="1.9843" stroke-width="0.0" /><circle cx="96.378" cy="47.6929" r="1.9843" stroke-width="0.0" /><circle cx="105.9803" cy="36.815" r="4.4291" stroke-width="0.0" /><circle cx="105.9803" cy="83.6575" r="4.4291" stroke-width="0.0" /><circle cx="65.5512" cy="33.6614" r="6.75" stroke-width="0.0" /></g><g id="rulers" stroke="black"><line stroke-width="1.0" x1="12.4016" x2="118.7008" y1="113.3858" y2="113.3858" /><text font-family="monospace" font-size="5" stroke-width="0.3" x="65.5511795" y="118.385824">30.0000mm</text><text font-family="monospace" font-size="5" stroke-width="0.3" x="65.5511795" y="124.385824">(Δx=30.0000mm)</text><line stroke-width="1.0" x1="131.1024" x2="131.1024" y1="86.811" y2="33.6614" /><text font-family="monospace" font-size="5" stroke-width="0.3" x="136.102359" y="60.236219">15.0000mm</text><text font-family="monospace" font-size="5" stroke-width="0.3" x="136.102359" y="66.236219">(Δy=15.0000mm)</text><line stroke-width="1.0" x1="3.5433" x2="3.5433" y1="15.9449" y2="104.5276" /><text font-family="monospace" font-size="5" stroke-width="0.3" x="8.543307" y="60.236219">25.0000mm</text><text font-family="monospace" font-size="5" stroke-width="0.3" x="8.543307" y="66.236219">(Δy=25.0000mm)</text><line stroke-width="1.0" x1="127.5591" x2="127.5591" y1="33.6614" y2="15.9449" /><text font-family="monospace" font-size="5" stroke-width="0.3" x="132.559052" y="24.803149">5.0000mm</text><text font-family="monospace" font-size="5" stroke-width="0.3" x="132.559052" y="30.803149">(Δy=5.0000mm)</text><line stroke-width="1.0" x1="127.5591" x2="127.5591" y1="104.5276" y2="86.811" /><text font-family="monospace" font-size="5" stroke-width="0.3" x="132.559052" y="95.669289">5.0000mm</text><text font-family="monospace" font-size="5" stroke-width="0.3" x="132.559052" y="101.669289">(Δy=5.0000mm)</text><line stroke-width="1.0" x1="65.5512" x2="12.4016" y1="7.0866" y2="7.0866" /><text font-family="monospace" font-size="5" stroke-width="0.3" x="38.976377" y="2.086614">15.0000mm</text><text font-family="monospace" font-size="5" stroke-width="0.3" x="38.976377" y="8.086614">(Δx=15.0000mm)</text><line stroke-width="1.0" x1="118.7008" x2="65.5512" y1="3.5433" y2="3.5433" /><text font-family="monospace" font-size="5" stroke-width="0.3" x="92.125982" y="-1.456693">15.0000mm</text><text font-family="monospace" font-size="5" stroke-width="0.3" x="92.125982" y="4.543307">(Δx=15.0000mm)</text></g></svg>