<?xml version='1.0' encoding='UTF-8' standalone='no'?>
<svg xmlns="http://www.w3.org/2000/svg" width="1087" height="620" x="0" y="0"><text x="725" y="215" font-size="10" font-family="sans-serif" text-anchor="middle" alignment-baseline="middle">D+</text><text x="725" y="205" font-size="10" font-family="sans-serif" text-anchor="middle" alignment-baseline="middle">D-</text><text x="64" y="455" font-size="10" font-family="sans-serif" text-anchor="start" alignment-baseline="hanging">Screw holes matching those on a ATX motherboard. So the board can be secured to a motherboard standoff or cable-tied to the case
See https://en.wikipedia.org/wiki/Computer_case_screws#Motherboard_standoff</text><text x="632" y="215" font-size="10" font-family="sans-serif" text-anchor="start" alignment-baseline="hanging">100</text><text x="18" y="425" font-size="10" font-family="sans-serif" text-anchor="start" alignment-baseline="hanging">TODO: Should I connect the screw holes to ground? - https://superuser.com/questions/1138512/what-exactly-is-grounded-through-motherboard-standoffs</text><text x="105" y="290" font-size="10" font-family="sans-serif" text-anchor="start" alignment-baseline="hanging">0015244449</text><text x="370" y="560" font-size="10" font-family="sans-serif" text-anchor="start" alignment-baseline="hanging">M2</text><text x="220" y="560" font-size="10" font-family="sans-serif" text-anchor="start" alignment-baseline="hanging">M1</text><text x="220" y="490" font-size="10" font-family="sans-serif" text-anchor="start" alignment-baseline="hanging">Mounting hole ##6-32 UNC</text><text x="460" y="600" font-size="10" font-family="sans-serif" text-anchor="start" alignment-baseline="hanging">GND</text><text x="10" y="140" font-size="10" font-family="sans-serif" text-anchor="start" alignment-baseline="hanging">Vusb</text><text x="632" y="137" font-size="10" font-family="sans-serif" text-anchor="start" alignment-baseline="hanging">R2</text><text x="830" y="180" font-size="10" font-family="sans-serif" text-anchor="end" alignment-baseline="hanging">J3</text><text x="310" y="600" font-size="10" font-family="sans-serif" text-anchor="start" alignment-baseline="hanging">GND</text><text x="488" y="211" font-size="10" font-family="sans-serif" text-anchor="start" alignment-baseline="hanging">Maybe use a zero ohm here</text><text x="632" y="205" font-size="10" font-family="sans-serif" text-anchor="start" alignment-baseline="hanging">R1</text><text x="632" y="276" font-size="10" font-family="sans-serif" text-anchor="start" alignment-baseline="hanging">R3</text><text x="370" y="490" font-size="10" font-family="sans-serif" text-anchor="start" alignment-baseline="hanging">Mounting hole ##6-32 UNC</text><text x="710" y="360" font-size="10" font-family="sans-serif" text-anchor="start" alignment-baseline="hanging">GND</text><text x="632" y="286" font-size="10" font-family="sans-serif" text-anchor="start" alignment-baseline="hanging">5M</text><text x="100" y="160" font-size="10" font-family="sans-serif" text-anchor="start" alignment-baseline="hanging">J1</text><text x="823" y="274" font-size="10" font-family="sans-serif" text-anchor="end" alignment-baseline="hanging">1734366-1</text><text x="437" y="10" font-size="10" font-family="sans-serif" text-anchor="start" alignment-baseline="hanging">TODO: Resistor ???
&lt; 200 ohms according to spec
https://electronics.stackexchange.com/questions/123172/what-is-the-ideal-way-to-handle-data-pins-d-and-d-on-a-usb-power-adapter-to-be</text><text x="632" y="147" font-size="10" font-family="sans-serif" text-anchor="start" alignment-baseline="hanging">5M</text><text x="215" y="215" font-size="10" font-family="sans-serif" text-anchor="start" alignment-baseline="hanging">TODO: Add SATA power connector</text><text x="40" y="320" font-size="10" font-family="sans-serif" text-anchor="start" alignment-baseline="hanging">GND</text><text x="710" y="70" font-size="10" font-family="sans-serif" text-anchor="start" alignment-baseline="hanging">Vusb</text><line x1="720" y1="330" x2="720" y2="340" stroke-width="2" stroke="black"></line><line x1="710" y1="340" x2="730" y2="340" stroke-width="2" stroke="black"></line><line x1="713" y1="345" x2="727" y2="345" stroke-width="2" stroke="black"></line><line x1="716" y1="350" x2="724" y2="350" stroke-width="2" stroke="black"></line><line x1="720" y1="100" x2="720" y2="80" stroke-width="2" stroke="black"></line><line x1="720" y1="80" x2="713" y2="87" stroke-width="2" stroke="black"></line><line x1="720" y1="80" x2="727" y2="87" stroke-width="2" stroke="black"></line><line x1="660" y1="130" x2="665" y2="133" stroke-width="2" stroke="black"></line><line x1="665" y1="133" x2="655" y2="138" stroke-width="2" stroke="black"></line><line x1="655" y1="138" x2="665" y2="143" stroke-width="2" stroke="black"></line><line x1="665" y1="143" x2="655" y2="148" stroke-width="2" stroke="black"></line><line x1="655" y1="148" x2="665" y2="153" stroke-width="2" stroke="black"></line><line x1="665" y1="153" x2="655" y2="158" stroke-width="2" stroke="black"></line><line x1="655" y1="158" x2="660" y2="160" stroke-width="2" stroke="black"></line><line x1="660" y1="120" x2="660" y2="130" stroke-width="2" stroke="black"></line><line x1="660" y1="160" x2="660" y2="170" stroke-width="2" stroke="black"></line><line x1="660" y1="270" x2="665" y2="273" stroke-width="2" stroke="black"></line><line x1="665" y1="273" x2="655" y2="278" stroke-width="2" stroke="black"></line><line x1="655" y1="278" x2="665" y2="283" stroke-width="2" stroke="black"></line><line x1="665" y1="283" x2="655" y2="288" stroke-width="2" stroke="black"></line><line x1="655" y1="288" x2="665" y2="293" stroke-width="2" stroke="black"></line><line x1="665" y1="293" x2="655" y2="298" stroke-width="2" stroke="black"></line><line x1="655" y1="298" x2="660" y2="300" stroke-width="2" stroke="black"></line><line x1="660" y1="260" x2="660" y2="270" stroke-width="2" stroke="black"></line><line x1="660" y1="300" x2="660" y2="310" stroke-width="2" stroke="black"></line><line x1="660" y1="200" x2="665" y2="203" stroke-width="2" stroke="black"></line><line x1="665" y1="203" x2="655" y2="208" stroke-width="2" stroke="black"></line><line x1="655" y1="208" x2="665" y2="213" stroke-width="2" stroke="black"></line><line x1="665" y1="213" x2="655" y2="218" stroke-width="2" stroke="black"></line><line x1="655" y1="218" x2="665" y2="223" stroke-width="2" stroke="black"></line><line x1="665" y1="223" x2="655" y2="228" stroke-width="2" stroke="black"></line><line x1="655" y1="228" x2="660" y2="230" stroke-width="2" stroke="black"></line><line x1="660" y1="190" x2="660" y2="200" stroke-width="2" stroke="black"></line><line x1="660" y1="230" x2="660" y2="240" stroke-width="2" stroke="black"></line><rect width="60" height="80" x="770" y="190" style="stroke: #000; stroke-width: 1; fill: none;"></rect><line x1="760" y1="200" x2="770" y2="200" stroke-width="2" stroke="black"></line><text x="772" y="200" font-size="10" font-family="sans-serif" text-anchor="start" alignment-baseline="middle">1</text><line x1="760" y1="210" x2="770" y2="210" stroke-width="2" stroke="black"></line><text x="772" y="210" font-size="10" font-family="sans-serif" text-anchor="start" alignment-baseline="middle">2</text><line x1="760" y1="220" x2="770" y2="220" stroke-width="2" stroke="black"></line><text x="772" y="220" font-size="10" font-family="sans-serif" text-anchor="start" alignment-baseline="middle">3</text><line x1="760" y1="230" x2="770" y2="230" stroke-width="2" stroke="black"></line><text x="772" y="230" font-size="10" font-family="sans-serif" text-anchor="start" alignment-baseline="middle">4</text><line x1="760" y1="250" x2="770" y2="250" stroke-width="2" stroke="black"></line><text x="772" y="250" font-size="10" font-family="sans-serif" text-anchor="start" alignment-baseline="middle">MH_GND</text><line x1="760" y1="260" x2="770" y2="260" stroke-width="2" stroke="black"></line><text x="772" y="260" font-size="10" font-family="sans-serif" text-anchor="start" alignment-baseline="middle">MH_GND</text><line x1="320" y1="570" x2="320" y2="580" stroke-width="2" stroke="black"></line><line x1="310" y1="580" x2="330" y2="580" stroke-width="2" stroke="black"></line><line x1="313" y1="585" x2="327" y2="585" stroke-width="2" stroke="black"></line><line x1="316" y1="590" x2="324" y2="590" stroke-width="2" stroke="black"></line><line x1="20" y1="170" x2="20" y2="150" stroke-width="2" stroke="black"></line><line x1="20" y1="150" x2="13" y2="157" stroke-width="2" stroke="black"></line><line x1="20" y1="150" x2="27" y2="157" stroke-width="2" stroke="black"></line><line x1="470" y1="570" x2="470" y2="580" stroke-width="2" stroke="black"></line><line x1="460" y1="580" x2="480" y2="580" stroke-width="2" stroke="black"></line><line x1="463" y1="585" x2="477" y2="585" stroke-width="2" stroke="black"></line><line x1="466" y1="590" x2="474" y2="590" stroke-width="2" stroke="black"></line><line x1="50" y1="290" x2="50" y2="300" stroke-width="2" stroke="black"></line><line x1="40" y1="300" x2="60" y2="300" stroke-width="2" stroke="black"></line><line x1="43" y1="305" x2="57" y2="305" stroke-width="2" stroke="black"></line><line x1="46" y1="310" x2="54" y2="310" stroke-width="2" stroke="black"></line><line x1="47" y1="197" x2="53" y2="203" stroke-width="2" stroke="black"></line><line x1="47" y1="203" x2="53" y2="197" stroke-width="2" stroke="black"></line><circle cx="250" cy="540" r="20" style="stroke: #000; stroke-width: 1; fill: none;"></circle><line x1="280" y1="540" x2="270" y2="540" stroke-width="2" stroke="black"></line><circle cx="400" cy="540" r="20" style="stroke: #000; stroke-width: 1; fill: none;"></circle><line x1="430" y1="540" x2="420" y2="540" stroke-width="2" stroke="black"></line><rect width="50" height="90" x="105" y="185" style="stroke: #000; stroke-width: 1; fill: none;"></rect><line x1="100" y1="200" x2="105" y2="200" stroke-width="2" stroke="black"></line><text x="110" y="200" font-size="10" font-family="sans-serif" text-anchor="start" alignment-baseline="middle">12V</text><line x1="100" y1="220" x2="105" y2="220" stroke-width="2" stroke="black"></line><text x="110" y="220" font-size="10" font-family="sans-serif" text-anchor="start" alignment-baseline="middle">GND</text><line x1="100" y1="240" x2="105" y2="240" stroke-width="2" stroke="black"></line><text x="110" y="240" font-size="10" font-family="sans-serif" text-anchor="start" alignment-baseline="middle">GND</text><line x1="100" y1="260" x2="105" y2="260" stroke-width="2" stroke="black"></line><text x="110" y="260" font-size="10" font-family="sans-serif" text-anchor="start" alignment-baseline="middle">5V</text><circle cx="720" cy="110" r="2" style="stroke: #000; stroke-width: 1; fill: none;"></circle><circle cx="720" cy="260" r="2" style="stroke: #000; stroke-width: 1; fill: none;"></circle><circle cx="50" cy="240" r="2" style="stroke: #000; stroke-width: 1; fill: none;"></circle><circle cx="660" cy="250" r="2" style="stroke: #000; stroke-width: 1; fill: none;"></circle><circle cx="660" cy="180" r="2" style="stroke: #000; stroke-width: 1; fill: none;"></circle><circle cx="720" cy="320" r="2" style="stroke: #000; stroke-width: 1; fill: none;"></circle><circle cx="720" cy="250" r="2" style="stroke: #000; stroke-width: 1; fill: none;"></circle><line x1="50" y1="240" x2="50" y2="290" stroke-width="2" stroke="black"></line><line x1="50" y1="220" x2="50" y2="240" stroke-width="2" stroke="black"></line><line x1="690" y1="220" x2="760" y2="220" stroke-width="2" stroke="black"></line><line x1="690" y1="220" x2="690" y2="250" stroke-width="2" stroke="black"></line><line x1="100" y1="220" x2="50" y2="220" stroke-width="2" stroke="black"></line><line x1="720" y1="230" x2="760" y2="230" stroke-width="2" stroke="black"></line><line x1="660" y1="250" x2="690" y2="250" stroke-width="2" stroke="black"></line><line x1="660" y1="250" x2="660" y2="260" stroke-width="2" stroke="black"></line><line x1="660" y1="240" x2="660" y2="250" stroke-width="2" stroke="black"></line><line x1="20" y1="170" x2="20" y2="260" stroke-width="2" stroke="black"></line><line x1="660" y1="110" x2="720" y2="110" stroke-width="2" stroke="black"></line><line x1="660" y1="110" x2="660" y2="120" stroke-width="2" stroke="black"></line><line x1="660" y1="180" x2="690" y2="180" stroke-width="2" stroke="black"></line><line x1="660" y1="180" x2="660" y2="190" stroke-width="2" stroke="black"></line><line x1="690" y1="210" x2="760" y2="210" stroke-width="2" stroke="black"></line><line x1="690" y1="210" x2="690" y2="180" stroke-width="2" stroke="black"></line><line x1="660" y1="320" x2="660" y2="310" stroke-width="2" stroke="black"></line><line x1="720" y1="320" x2="720" y2="260" stroke-width="2" stroke="black"></line><line x1="720" y1="320" x2="720" y2="330" stroke-width="2" stroke="black"></line><line x1="720" y1="320" x2="660" y2="320" stroke-width="2" stroke="black"></line><line x1="50" y1="200" x2="100" y2="200" stroke-width="2" stroke="black"></line><line x1="720" y1="100" x2="720" y2="110" stroke-width="2" stroke="black"></line><line x1="100" y1="260" x2="20" y2="260" stroke-width="2" stroke="black"></line><line x1="720" y1="250" x2="720" y2="260" stroke-width="2" stroke="black"></line><line x1="720" y1="250" x2="760" y2="250" stroke-width="2" stroke="black"></line><line x1="720" y1="250" x2="720" y2="230" stroke-width="2" stroke="black"></line><line x1="100" y1="240" x2="50" y2="240" stroke-width="2" stroke="black"></line><line x1="720" y1="200" x2="760" y2="200" stroke-width="2" stroke="black"></line><line x1="760" y1="260" x2="720" y2="260" stroke-width="2" stroke="black"></line><line x1="720" y1="120" x2="720" y2="200" stroke-width="2" stroke="black"></line><line x1="720" y1="120" x2="720" y2="110" stroke-width="2" stroke="black"></line><line x1="660" y1="170" x2="660" y2="180" stroke-width="2" stroke="black"></line><line x1="470" y1="540" x2="430" y2="540" stroke-width="2" stroke="black"></line><line x1="470" y1="540" x2="470" y2="570" stroke-width="2" stroke="black"></line><line x1="320" y1="540" x2="320" y2="570" stroke-width="2" stroke="black"></line><line x1="280" y1="540" x2="320" y2="540" stroke-width="2" stroke="black"></line></svg>