<?xml-stylesheet href="https://s3.amazonaws.com/maker.works.boards/css/blackpcb.css" type="text/css"?><svg xmlns="http://www.w3.org/2000/svg" version="1.1" xmlns:xlink="http://www.w3.org/1999/xlink" stroke-width="0" stroke-linecap="round" stroke-linejoin="round" width="1.1811in" height="1.811in" id="pcb_bottom" viewBox="7.5 7.5 1181.1 1811"><defs><circle cx="0" cy="0" r="12.5" id="tool-T10-pad-1000"/><circle cx="0" cy="0" r="69" id="tool-T11-pad-1001"/><circle cx="0" cy="0" r="17.5" id="tool-T12-pad-1002"/><circle cx="0" cy="0" r="64" id="tool-T13-pad-1003"/><circle cx="0" cy="0" r="33.5" id="tool-T14-pad-1004"/><circle cx="0" cy="0" r="25.5" id="tool-T15-pad-1005"/><circle cx="0" cy="0" r="17.5" id="tool-T16-pad-1006"/><circle cx="0" cy="0" r="64" id="tool-T17-pad-1007"/><circle cx="0" cy="0" r="21" id="tool-D11-pad-1009"/><circle cx="0" cy="0" r="29.55" id="tool-D12-pad-1010"/><circle cx="0" cy="0" r="75.8" id="tool-D13-pad-1011"/><circle cx="0" cy="0" r="45.3" id="tool-D14-pad-1012"/><rect x="-29.5275" y="-29.5275" width="59.055" height="59.055" transform="rotate(270)" id="tool-D15-pad-1013"/><circle cx="0" cy="0" r="37.4" id="tool-D16-pad-1014"/><rect x="-37.4015" y="-37.4015" width="74.803" height="74.803" transform="rotate(270)" id="tool-D17-pad-1015"/><circle cx="0" cy="0" r="29.35" id="tool-D18-pad-1016"/><circle cx="0" cy="0" r="21" id="tool-D10-pad-1017"/><circle cx="0" cy="0" r="29.55" id="tool-D11-pad-1018"/><circle cx="0" cy="0" r="75.8" id="tool-D12-pad-1019"/><circle cx="0" cy="0" r="45.3" id="tool-D13-pad-1020"/><rect x="-29.5275" y="-29.5275" width="59.055" height="59.055" transform="rotate(270)" id="tool-D14-pad-1021"/><circle cx="0" cy="0" r="37.4" id="tool-D15-pad-1022"/><rect x="-37.4015" y="-37.4015" width="74.803" height="74.803" transform="rotate(270)" id="tool-D16-pad-1023"/><circle cx="0" cy="0" r="29.35" id="tool-D17-pad-1024"/><g id="pcb_bottom-cu" fill="currentColor" stroke="currentColor"><path stroke-width="20" fill="none" d="M 263.4 770.5 L 420.9 613 M 145.3 689.4 L 371.7 463 M 932.4 604.9 L 865.8 538.2 M 371.7 463 L 586 463 M 371.7 513 L 486 513 M 731.3 610.9 L 731.3 638.2 M 302.8 1213 L 302.8 781.1 M 342.1 1263 L 342.1 791.8 M 420.9 663 L 586 663 M 224 1113 L 224 759.9 M 420.9 1363 L 420.9 878.2 M 184.7 1063 L 184.7 700 M 263.4 1163 L 263.4 770.5 M 932.4 604.9 L 932.4 1161.4 M 420.9 563 L 586 563 M 381.5 1313 L 381.5 802.4 M 184.7 700 L 371.7 513 M 893.3 650.3 L 831.3 588.2 M 224 759.9 L 420.9 563 M 791.9 1229.5 L 893.3 1128.1 M 381.5 802.4 L 420.9 763 M 420.9 613 L 486 613 M 420.9 713 L 486 713 M 731.3 610.9 L 803.9 538.2 M 302.8 781.1 L 420.9 663 M 420.9 763 L 586 763 M 865.8 538.2 L 803.9 538.2 M 1000.6 1229.5 L 932.4 1161.4 M 145.3 1013 L 145.3 689.4 M 342.1 791.8 L 420.9 713 M 893.3 1128.1 L 893.3 650.3 M 420.9 878.2 L 486 813"/><use x="381.5" y="1313" xlink:href="#tool-D11-pad-1009"/><use x="263.4" y="1163" xlink:href="#tool-D11-pad-1009"/><use x="302.8" y="1213" xlink:href="#tool-D11-pad-1009"/><use x="184.7" y="1063" xlink:href="#tool-D11-pad-1009"/><use x="342.1" y="1263" xlink:href="#tool-D11-pad-1009"/><use x="420.9" y="1363" xlink:href="#tool-D11-pad-1009"/><use x="145.3" y="1013" xlink:href="#tool-D11-pad-1009"/><use x="224" y="1113" xlink:href="#tool-D11-pad-1009"/><use x="586" y="1213" xlink:href="#tool-D12-pad-1010"/><use x="586" y="1113" xlink:href="#tool-D12-pad-1010"/><use x="586" y="1013" xlink:href="#tool-D12-pad-1010"/><use x="486" y="1063" xlink:href="#tool-D12-pad-1010"/><use x="486" y="1263" xlink:href="#tool-D12-pad-1010"/><use x="486" y="1163" xlink:href="#tool-D12-pad-1010"/><use x="586" y="1313" xlink:href="#tool-D12-pad-1010"/><use x="486" y="613" xlink:href="#tool-D12-pad-1010"/><use x="486" y="513" xlink:href="#tool-D12-pad-1010"/><use x="586" y="663" xlink:href="#tool-D12-pad-1010"/><use x="586" y="563" xlink:href="#tool-D12-pad-1010"/><use x="586" y="463" xlink:href="#tool-D12-pad-1010"/><use x="586" y="763" xlink:href="#tool-D12-pad-1010"/><use x="486" y="713" xlink:href="#tool-D12-pad-1010"/><use x="486" y="813" xlink:href="#tool-D12-pad-1010"/><use x="236" y="1413" xlink:href="#tool-D13-pad-1011"/><use x="236" y="413" xlink:href="#tool-D13-pad-1011"/><use x="91.2" y="1523.2" xlink:href="#tool-D14-pad-1012"/><use x="91.2" y="302.8" xlink:href="#tool-D14-pad-1012"/><use x="486" y="1363" xlink:href="#tool-D15-pad-1013"/><use x="1000.6" y="1229.5" xlink:href="#tool-D16-pad-1014"/><use x="1000.6" y="1111.4" xlink:href="#tool-D16-pad-1014"/><use x="791.9" y="1347.7" xlink:href="#tool-D16-pad-1014"/><use x="791.9" y="1229.5" xlink:href="#tool-D16-pad-1014"/><use x="791.9" y="1111.4" xlink:href="#tool-D16-pad-1014"/><use x="1081.3" y="1406.7" xlink:href="#tool-D16-pad-1014"/><use x="1081.3" y="1052.4" xlink:href="#tool-D16-pad-1014"/><use x="711.2" y="1406.7" xlink:href="#tool-D16-pad-1014"/><use x="711.2" y="1052.4" xlink:href="#tool-D16-pad-1014"/><use x="1000.6" y="1347.7" xlink:href="#tool-D17-pad-1015"/><use x="731.3" y="438.2" xlink:href="#tool-D18-pad-1016"/><use x="731.3" y="538.2" xlink:href="#tool-D18-pad-1016"/><use x="731.3" y="638.2" xlink:href="#tool-D18-pad-1016"/><use x="731.3" y="738.2" xlink:href="#tool-D18-pad-1016"/><use x="831.3" y="688.2" xlink:href="#tool-D18-pad-1016"/><use x="831.3" y="588.2" xlink:href="#tool-D18-pad-1016"/><use x="831.3" y="488.2" xlink:href="#tool-D18-pad-1016"/><use x="831.3" y="388.2" xlink:href="#tool-D18-pad-1016"/></g><mask id="pcb_bottom_mech-mask" fill="#fff" stroke="#fff" fill-rule="evenodd"><path stroke-width="0" d="M 7.5 7.5 L 7.5 1818.5 L 1188.6 1818.5 L 1188.6 7.5 Z"/><g id="pcb_bottom-drl" fill="#000" stroke="#000"><use x="381.5" y="1313" xlink:href="#tool-T10-pad-1000"/><use x="263.4" y="1163" xlink:href="#tool-T10-pad-1000"/><use x="302.8" y="1213" xlink:href="#tool-T10-pad-1000"/><use x="184.7" y="1063" xlink:href="#tool-T10-pad-1000"/><use x="342.1" y="1263" xlink:href="#tool-T10-pad-1000"/><use x="420.9" y="1363" xlink:href="#tool-T10-pad-1000"/><use x="145.3" y="1013" xlink:href="#tool-T10-pad-1000"/><use x="224" y="1113" xlink:href="#tool-T10-pad-1000"/><use x="1070.5" y="125.6" xlink:href="#tool-T11-pad-1001"/><use x="125.6" y="125.6" xlink:href="#tool-T11-pad-1001"/><use x="1070.5" y="1700.4" xlink:href="#tool-T11-pad-1001"/><use x="125.6" y="1700.4" xlink:href="#tool-T11-pad-1001"/><use x="586" y="1213" xlink:href="#tool-T12-pad-1002"/><use x="586" y="1113" xlink:href="#tool-T12-pad-1002"/><use x="586" y="1013" xlink:href="#tool-T12-pad-1002"/><use x="486" y="1063" xlink:href="#tool-T12-pad-1002"/><use x="486" y="1263" xlink:href="#tool-T12-pad-1002"/><use x="486" y="1163" xlink:href="#tool-T12-pad-1002"/><use x="486" y="1363" xlink:href="#tool-T12-pad-1002"/><use x="586" y="1313" xlink:href="#tool-T12-pad-1002"/><use x="486" y="613" xlink:href="#tool-T12-pad-1002"/><use x="486" y="513" xlink:href="#tool-T12-pad-1002"/><use x="586" y="663" xlink:href="#tool-T12-pad-1002"/><use x="586" y="563" xlink:href="#tool-T12-pad-1002"/><use x="586" y="463" xlink:href="#tool-T12-pad-1002"/><use x="586" y="763" xlink:href="#tool-T12-pad-1002"/><use x="486" y="713" xlink:href="#tool-T12-pad-1002"/><use x="486" y="813" xlink:href="#tool-T12-pad-1002"/><use x="236" y="1413" xlink:href="#tool-T13-pad-1003"/><use x="236" y="413" xlink:href="#tool-T13-pad-1003"/><use x="91.2" y="1523.2" xlink:href="#tool-T14-pad-1004"/><use x="91.2" y="302.8" xlink:href="#tool-T14-pad-1004"/><use x="1000.6" y="1347.7" xlink:href="#tool-T15-pad-1005"/><use x="1000.6" y="1229.5" xlink:href="#tool-T15-pad-1005"/><use x="1000.6" y="1111.4" xlink:href="#tool-T15-pad-1005"/><use x="791.9" y="1347.7" xlink:href="#tool-T15-pad-1005"/><use x="791.9" y="1229.5" xlink:href="#tool-T15-pad-1005"/><use x="791.9" y="1111.4" xlink:href="#tool-T15-pad-1005"/><use x="1081.3" y="1406.7" xlink:href="#tool-T15-pad-1005"/><use x="1081.3" y="1052.4" xlink:href="#tool-T15-pad-1005"/><use x="711.2" y="1406.7" xlink:href="#tool-T15-pad-1005"/><use x="711.2" y="1052.4" xlink:href="#tool-T15-pad-1005"/><use x="731.3" y="438.2" xlink:href="#tool-T16-pad-1006"/><use x="731.3" y="538.2" xlink:href="#tool-T16-pad-1006"/><use x="731.3" y="638.2" xlink:href="#tool-T16-pad-1006"/><use x="731.3" y="738.2" xlink:href="#tool-T16-pad-1006"/><use x="831.3" y="688.2" xlink:href="#tool-T16-pad-1006"/><use x="831.3" y="588.2" xlink:href="#tool-T16-pad-1006"/><use x="831.3" y="488.2" xlink:href="#tool-T16-pad-1006"/><use x="831.3" y="388.2" xlink:href="#tool-T16-pad-1006"/><use x="1081.3" y="338.2" xlink:href="#tool-T17-pad-1007"/><use x="1081.3" y="788.2" xlink:href="#tool-T17-pad-1007"/></g></mask></defs><g mask="url(#pcb_bottom_mech-mask)" transform="translate(1196.1,1826) scale(-1,-1)"><rect x="7.5" y="7.5" width="1181.1" height="1811" fill="currentColor" class="pcb_board-fr4"/><use class="pcb_board-cu" xlink:href="#pcb_bottom-cu"/><g><defs><g id="pcb_bottom-sm" fill="currentColor" stroke="currentColor"><use x="381.5" y="1313" xlink:href="#tool-D10-pad-1017"/><use x="263.4" y="1163" xlink:href="#tool-D10-pad-1017"/><use x="302.8" y="1213" xlink:href="#tool-D10-pad-1017"/><use x="184.7" y="1063" xlink:href="#tool-D10-pad-1017"/><use x="342.1" y="1263" xlink:href="#tool-D10-pad-1017"/><use x="420.9" y="1363" xlink:href="#tool-D10-pad-1017"/><use x="145.3" y="1013" xlink:href="#tool-D10-pad-1017"/><use x="224" y="1113" xlink:href="#tool-D10-pad-1017"/><use x="586" y="1213" xlink:href="#tool-D11-pad-1018"/><use x="586" y="1113" xlink:href="#tool-D11-pad-1018"/><use x="586" y="1013" xlink:href="#tool-D11-pad-1018"/><use x="486" y="1063" xlink:href="#tool-D11-pad-1018"/><use x="486" y="1263" xlink:href="#tool-D11-pad-1018"/><use x="486" y="1163" xlink:href="#tool-D11-pad-1018"/><use x="586" y="1313" xlink:href="#tool-D11-pad-1018"/><use x="486" y="613" xlink:href="#tool-D11-pad-1018"/><use x="486" y="513" xlink:href="#tool-D11-pad-1018"/><use x="586" y="663" xlink:href="#tool-D11-pad-1018"/><use x="586" y="563" xlink:href="#tool-D11-pad-1018"/><use x="586" y="463" xlink:href="#tool-D11-pad-1018"/><use x="586" y="763" xlink:href="#tool-D11-pad-1018"/><use x="486" y="713" xlink:href="#tool-D11-pad-1018"/><use x="486" y="813" xlink:href="#tool-D11-pad-1018"/><use x="236" y="1413" xlink:href="#tool-D12-pad-1019"/><use x="236" y="413" xlink:href="#tool-D12-pad-1019"/><use x="91.2" y="1523.2" xlink:href="#tool-D13-pad-1020"/><use x="91.2" y="302.8" xlink:href="#tool-D13-pad-1020"/><use x="486" y="1363" xlink:href="#tool-D14-pad-1021"/><use x="1000.6" y="1229.5" xlink:href="#tool-D15-pad-1022"/><use x="1000.6" y="1111.4" xlink:href="#tool-D15-pad-1022"/><use x="791.9" y="1347.7" xlink:href="#tool-D15-pad-1022"/><use x="791.9" y="1229.5" xlink:href="#tool-D15-pad-1022"/><use x="791.9" y="1111.4" xlink:href="#tool-D15-pad-1022"/><use x="1081.3" y="1406.7" xlink:href="#tool-D15-pad-1022"/><use x="1081.3" y="1052.4" xlink:href="#tool-D15-pad-1022"/><use x="711.2" y="1406.7" xlink:href="#tool-D15-pad-1022"/><use x="711.2" y="1052.4" xlink:href="#tool-D15-pad-1022"/><use x="1000.6" y="1347.7" xlink:href="#tool-D16-pad-1023"/><use x="731.3" y="438.2" xlink:href="#tool-D17-pad-1024"/><use x="731.3" y="538.2" xlink:href="#tool-D17-pad-1024"/><use x="731.3" y="638.2" xlink:href="#tool-D17-pad-1024"/><use x="731.3" y="738.2" xlink:href="#tool-D17-pad-1024"/><use x="831.3" y="688.2" xlink:href="#tool-D17-pad-1024"/><use x="831.3" y="588.2" xlink:href="#tool-D17-pad-1024"/><use x="831.3" y="488.2" xlink:href="#tool-D17-pad-1024"/><use x="831.3" y="388.2" xlink:href="#tool-D17-pad-1024"/></g><mask id="pcb_bottom-sm_mask" color="#000"><rect x="7.5" y="7.5" width="1181.1" height="1811" fill="#fff"/><use xlink:href="#pcb_bottom-sm"/></mask><mask id="pcb_bottom-cu_finish-mask" color="#fff"><use xlink:href="#pcb_bottom-cu"/></mask></defs><g mask="url(#pcb_bottom-sm_mask)"><rect x="7.5" y="7.5" width="1181.1" height="1811" fill="currentColor" class="pcb_board-sm"/><g id="pcb_bottom-ss" class="pcb_board-ss" fill="currentColor" stroke="currentColor"></g></g><use class="pcb_board-cf" mask="url(#pcb_bottom-cu_finish-mask)" xlink:href="#pcb_bottom-sm"/></g></g></svg>