<?xml-stylesheet href="https://s3.amazonaws.com/maker.works.boards/css/blackpcb.css" type="text/css"?><svg xmlns="http://www.w3.org/2000/svg" version="1.1" xmlns:xlink="http://www.w3.org/1999/xlink" stroke-width="0" stroke-linecap="round" stroke-linejoin="round" width="1.1811in" height="1.811in" id="pcb_top" viewBox="7.5 7.5 1181.1 1811"><defs><circle cx="0" cy="0" r="12.5" id="tool-T10-pad-1000"/><circle cx="0" cy="0" r="69" id="tool-T11-pad-1001"/><circle cx="0" cy="0" r="17.5" id="tool-T12-pad-1002"/><circle cx="0" cy="0" r="64" id="tool-T13-pad-1003"/><circle cx="0" cy="0" r="33.5" id="tool-T14-pad-1004"/><circle cx="0" cy="0" r="25.5" id="tool-T15-pad-1005"/><circle cx="0" cy="0" r="17.5" id="tool-T16-pad-1006"/><circle cx="0" cy="0" r="64" id="tool-T17-pad-1007"/><circle cx="0" cy="0" r="21" id="tool-D11-pad-1026"/><circle cx="0" cy="0" r="29.55" id="tool-D12-pad-1027"/><circle cx="0" cy="0" r="75.8" id="tool-D13-pad-1028"/><circle cx="0" cy="0" r="45.3" id="tool-D14-pad-1029"/><rect x="-29.5275" y="-29.5275" width="59.055" height="59.055" transform="rotate(270)" id="tool-D15-pad-1030"/><circle cx="0" cy="0" r="37.4" id="tool-D16-pad-1031"/><rect x="-37.4015" y="-37.4015" width="74.803" height="74.803" transform="rotate(270)" id="tool-D17-pad-1032"/><circle cx="0" cy="0" r="29.35" id="tool-D18-pad-1033"/><circle cx="0" cy="0" r="9.85" id="tool-D11-pad-1035"/><circle cx="0" cy="0" r="13.8" id="tool-D12-pad-1036"/><circle cx="0" cy="0" r="9.85" id="tool-D13-pad-1037"/><circle cx="0" cy="0" r="21" id="tool-D10-pad-1039"/><circle cx="0" cy="0" r="29.55" id="tool-D11-pad-1040"/><circle cx="0" cy="0" r="75.8" id="tool-D12-pad-1041"/><circle cx="0" cy="0" r="45.3" id="tool-D13-pad-1042"/><rect x="-29.5275" y="-29.5275" width="59.055" height="59.055" transform="rotate(270)" id="tool-D14-pad-1043"/><circle cx="0" cy="0" r="37.4" id="tool-D15-pad-1044"/><rect x="-37.4015" y="-37.4015" width="74.803" height="74.803" transform="rotate(270)" id="tool-D16-pad-1045"/><circle cx="0" cy="0" r="29.35" id="tool-D17-pad-1046"/><g id="pcb_top-cu" fill="currentColor" stroke="currentColor"><path stroke-width="20" fill="none" d="M 486 1063 L 184.7 1063 M 381.5 1313 L 757.3 1313 M 486 1363 L 616.8 1493.7 M 486 1163 L 263.4 1163 M 420.9 1363 L 486 1363 M 954.7 1111.4 L 1000.6 1111.4 M 616.8 1493.7 L 791.9 1493.7 M 302.8 1213 L 586 1213 M 667.1 1263 L 757.3 1172.9 M 145.3 1013 L 586 1013 M 791.9 1493.7 L 938 1347.7 M 224 1113 L 790.3 1113 M 893.3 1172.9 L 954.7 1111.4 M 757.3 1313 L 791.9 1347.7 M 938 1347.7 L 1000.6 1347.7 M 757.3 1172.9 L 893.3 1172.9 M 342.1 1263 L 667.1 1263"/><use x="381.5" y="1313" xlink:href="#tool-D11-pad-1026"/><use x="263.4" y="1163" xlink:href="#tool-D11-pad-1026"/><use x="302.8" y="1213" xlink:href="#tool-D11-pad-1026"/><use x="184.7" y="1063" xlink:href="#tool-D11-pad-1026"/><use x="342.1" y="1263" xlink:href="#tool-D11-pad-1026"/><use x="420.9" y="1363" xlink:href="#tool-D11-pad-1026"/><use x="145.3" y="1013" xlink:href="#tool-D11-pad-1026"/><use x="224" y="1113" xlink:href="#tool-D11-pad-1026"/><use x="586" y="1213" xlink:href="#tool-D12-pad-1027"/><use x="586" y="1113" xlink:href="#tool-D12-pad-1027"/><use x="586" y="1013" xlink:href="#tool-D12-pad-1027"/><use x="486" y="1063" xlink:href="#tool-D12-pad-1027"/><use x="486" y="1263" xlink:href="#tool-D12-pad-1027"/><use x="486" y="1163" xlink:href="#tool-D12-pad-1027"/><use x="586" y="1313" xlink:href="#tool-D12-pad-1027"/><use x="486" y="613" xlink:href="#tool-D12-pad-1027"/><use x="486" y="513" xlink:href="#tool-D12-pad-1027"/><use x="586" y="663" xlink:href="#tool-D12-pad-1027"/><use x="586" y="563" xlink:href="#tool-D12-pad-1027"/><use x="586" y="463" xlink:href="#tool-D12-pad-1027"/><use x="586" y="763" xlink:href="#tool-D12-pad-1027"/><use x="486" y="713" xlink:href="#tool-D12-pad-1027"/><use x="486" y="813" xlink:href="#tool-D12-pad-1027"/><use x="236" y="1413" xlink:href="#tool-D13-pad-1028"/><use x="236" y="413" xlink:href="#tool-D13-pad-1028"/><use x="91.2" y="1523.2" xlink:href="#tool-D14-pad-1029"/><use x="91.2" y="302.8" xlink:href="#tool-D14-pad-1029"/><use x="486" y="1363" xlink:href="#tool-D15-pad-1030"/><use x="1000.6" y="1229.5" xlink:href="#tool-D16-pad-1031"/><use x="1000.6" y="1111.4" xlink:href="#tool-D16-pad-1031"/><use x="791.9" y="1347.7" xlink:href="#tool-D16-pad-1031"/><use x="791.9" y="1229.5" xlink:href="#tool-D16-pad-1031"/><use x="791.9" y="1111.4" xlink:href="#tool-D16-pad-1031"/><use x="1081.3" y="1406.7" xlink:href="#tool-D16-pad-1031"/><use x="1081.3" y="1052.4" xlink:href="#tool-D16-pad-1031"/><use x="711.2" y="1406.7" xlink:href="#tool-D16-pad-1031"/><use x="711.2" y="1052.4" xlink:href="#tool-D16-pad-1031"/><use x="1000.6" y="1347.7" xlink:href="#tool-D17-pad-1032"/><use x="731.3" y="438.2" xlink:href="#tool-D18-pad-1033"/><use x="731.3" y="538.2" xlink:href="#tool-D18-pad-1033"/><use x="731.3" y="638.2" xlink:href="#tool-D18-pad-1033"/><use x="731.3" y="738.2" xlink:href="#tool-D18-pad-1033"/><use x="831.3" y="688.2" xlink:href="#tool-D18-pad-1033"/><use x="831.3" y="588.2" xlink:href="#tool-D18-pad-1033"/><use x="831.3" y="488.2" xlink:href="#tool-D18-pad-1033"/><use x="831.3" y="388.2" xlink:href="#tool-D18-pad-1033"/></g><mask id="pcb_top_mech-mask" fill="#fff" stroke="#fff" fill-rule="evenodd"><path stroke-width="0" d="M 7.5 7.5 L 7.5 1818.5 L 1188.6 1818.5 L 1188.6 7.5 Z"/><g id="pcb_top-drl" fill="#000" stroke="#000"><use x="381.5" y="1313" xlink:href="#tool-T10-pad-1000"/><use x="263.4" y="1163" xlink:href="#tool-T10-pad-1000"/><use x="302.8" y="1213" xlink:href="#tool-T10-pad-1000"/><use x="184.7" y="1063" xlink:href="#tool-T10-pad-1000"/><use x="342.1" y="1263" xlink:href="#tool-T10-pad-1000"/><use x="420.9" y="1363" xlink:href="#tool-T10-pad-1000"/><use x="145.3" y="1013" xlink:href="#tool-T10-pad-1000"/><use x="224" y="1113" xlink:href="#tool-T10-pad-1000"/><use x="1070.5" y="125.6" xlink:href="#tool-T11-pad-1001"/><use x="125.6" y="125.6" xlink:href="#tool-T11-pad-1001"/><use x="1070.5" y="1700.4" xlink:href="#tool-T11-pad-1001"/><use x="125.6" y="1700.4" xlink:href="#tool-T11-pad-1001"/><use x="586" y="1213" xlink:href="#tool-T12-pad-1002"/><use x="586" y="1113" xlink:href="#tool-T12-pad-1002"/><use x="586" y="1013" xlink:href="#tool-T12-pad-1002"/><use x="486" y="1063" xlink:href="#tool-T12-pad-1002"/><use x="486" y="1263" xlink:href="#tool-T12-pad-1002"/><use x="486" y="1163" xlink:href="#tool-T12-pad-1002"/><use x="486" y="1363" xlink:href="#tool-T12-pad-1002"/><use x="586" y="1313" xlink:href="#tool-T12-pad-1002"/><use x="486" y="613" xlink:href="#tool-T12-pad-1002"/><use x="486" y="513" xlink:href="#tool-T12-pad-1002"/><use x="586" y="663" xlink:href="#tool-T12-pad-1002"/><use x="586" y="563" xlink:href="#tool-T12-pad-1002"/><use x="586" y="463" xlink:href="#tool-T12-pad-1002"/><use x="586" y="763" xlink:href="#tool-T12-pad-1002"/><use x="486" y="713" xlink:href="#tool-T12-pad-1002"/><use x="486" y="813" xlink:href="#tool-T12-pad-1002"/><use x="236" y="1413" xlink:href="#tool-T13-pad-1003"/><use x="236" y="413" xlink:href="#tool-T13-pad-1003"/><use x="91.2" y="1523.2" xlink:href="#tool-T14-pad-1004"/><use x="91.2" y="302.8" xlink:href="#tool-T14-pad-1004"/><use x="1000.6" y="1347.7" xlink:href="#tool-T15-pad-1005"/><use x="1000.6" y="1229.5" xlink:href="#tool-T15-pad-1005"/><use x="1000.6" y="1111.4" xlink:href="#tool-T15-pad-1005"/><use x="791.9" y="1347.7" xlink:href="#tool-T15-pad-1005"/><use x="791.9" y="1229.5" xlink:href="#tool-T15-pad-1005"/><use x="791.9" y="1111.4" xlink:href="#tool-T15-pad-1005"/><use x="1081.3" y="1406.7" xlink:href="#tool-T15-pad-1005"/><use x="1081.3" y="1052.4" xlink:href="#tool-T15-pad-1005"/><use x="711.2" y="1406.7" xlink:href="#tool-T15-pad-1005"/><use x="711.2" y="1052.4" xlink:href="#tool-T15-pad-1005"/><use x="731.3" y="438.2" xlink:href="#tool-T16-pad-1006"/><use x="731.3" y="538.2" xlink:href="#tool-T16-pad-1006"/><use x="731.3" y="638.2" xlink:href="#tool-T16-pad-1006"/><use x="731.3" y="738.2" xlink:href="#tool-T16-pad-1006"/><use x="831.3" y="688.2" xlink:href="#tool-T16-pad-1006"/><use x="831.3" y="588.2" xlink:href="#tool-T16-pad-1006"/><use x="831.3" y="488.2" xlink:href="#tool-T16-pad-1006"/><use x="831.3" y="388.2" xlink:href="#tool-T16-pad-1006"/><use x="1081.3" y="338.2" xlink:href="#tool-T17-pad-1007"/><use x="1081.3" y="788.2" xlink:href="#tool-T17-pad-1007"/></g></mask></defs><g mask="url(#pcb_top_mech-mask)" transform="translate(0,1826) scale(1,-1)"><rect x="7.5" y="7.5" width="1181.1" height="1811" fill="currentColor" class="pcb_board-fr4"/><use class="pcb_board-cu" xlink:href="#pcb_top-cu"/><g><defs><g id="pcb_top-sm" fill="currentColor" stroke="currentColor"><use x="381.5" y="1313" xlink:href="#tool-D10-pad-1039"/><use x="263.4" y="1163" xlink:href="#tool-D10-pad-1039"/><use x="302.8" y="1213" xlink:href="#tool-D10-pad-1039"/><use x="184.7" y="1063" xlink:href="#tool-D10-pad-1039"/><use x="342.1" y="1263" xlink:href="#tool-D10-pad-1039"/><use x="420.9" y="1363" xlink:href="#tool-D10-pad-1039"/><use x="145.3" y="1013" xlink:href="#tool-D10-pad-1039"/><use x="224" y="1113" xlink:href="#tool-D10-pad-1039"/><use x="586" y="1213" xlink:href="#tool-D11-pad-1040"/><use x="586" y="1113" xlink:href="#tool-D11-pad-1040"/><use x="586" y="1013" xlink:href="#tool-D11-pad-1040"/><use x="486" y="1063" xlink:href="#tool-D11-pad-1040"/><use x="486" y="1263" xlink:href="#tool-D11-pad-1040"/><use x="486" y="1163" xlink:href="#tool-D11-pad-1040"/><use x="586" y="1313" xlink:href="#tool-D11-pad-1040"/><use x="486" y="613" xlink:href="#tool-D11-pad-1040"/><use x="486" y="513" xlink:href="#tool-D11-pad-1040"/><use x="586" y="663" xlink:href="#tool-D11-pad-1040"/><use x="586" y="563" xlink:href="#tool-D11-pad-1040"/><use x="586" y="463" xlink:href="#tool-D11-pad-1040"/><use x="586" y="763" xlink:href="#tool-D11-pad-1040"/><use x="486" y="713" xlink:href="#tool-D11-pad-1040"/><use x="486" y="813" xlink:href="#tool-D11-pad-1040"/><use x="236" y="1413" xlink:href="#tool-D12-pad-1041"/><use x="236" y="413" xlink:href="#tool-D12-pad-1041"/><use x="91.2" y="1523.2" xlink:href="#tool-D13-pad-1042"/><use x="91.2" y="302.8" xlink:href="#tool-D13-pad-1042"/><use x="486" y="1363" xlink:href="#tool-D14-pad-1043"/><use x="1000.6" y="1229.5" xlink:href="#tool-D15-pad-1044"/><use x="1000.6" y="1111.4" xlink:href="#tool-D15-pad-1044"/><use x="791.9" y="1347.7" xlink:href="#tool-D15-pad-1044"/><use x="791.9" y="1229.5" xlink:href="#tool-D15-pad-1044"/><use x="791.9" y="1111.4" xlink:href="#tool-D15-pad-1044"/><use x="1081.3" y="1406.7" xlink:href="#tool-D15-pad-1044"/><use x="1081.3" y="1052.4" xlink:href="#tool-D15-pad-1044"/><use x="711.2" y="1406.7" xlink:href="#tool-D15-pad-1044"/><use x="711.2" y="1052.4" xlink:href="#tool-D15-pad-1044"/><use x="1000.6" y="1347.7" xlink:href="#tool-D16-pad-1045"/><use x="731.3" y="438.2" xlink:href="#tool-D17-pad-1046"/><use x="731.3" y="538.2" xlink:href="#tool-D17-pad-1046"/><use x="731.3" y="638.2" xlink:href="#tool-D17-pad-1046"/><use x="731.3" y="738.2" xlink:href="#tool-D17-pad-1046"/><use x="831.3" y="688.2" xlink:href="#tool-D17-pad-1046"/><use x="831.3" y="588.2" xlink:href="#tool-D17-pad-1046"/><use x="831.3" y="488.2" xlink:href="#tool-D17-pad-1046"/><use x="831.3" y="388.2" xlink:href="#tool-D17-pad-1046"/></g><mask id="pcb_top-sm_mask" color="#000"><rect x="7.5" y="7.5" width="1181.1" height="1811" fill="#fff"/><use xlink:href="#pcb_top-sm"/></mask><mask id="pcb_top-cu_finish-mask" color="#fff"><use xlink:href="#pcb_top-cu"/></mask></defs><g mask="url(#pcb_top-sm_mask)"><rect x="7.5" y="7.5" width="1181.1" height="1811" fill="currentColor" class="pcb_board-sm"/><g id="pcb_top-ss" class="pcb_board-ss" fill="currentColor" stroke="currentColor"><path stroke-width="5.9" fill="none" d="M 0 1573.4 L 652.6 1573.4 M 652.6 1573.4 L 652.6 252.6 M 652.6 252.6 L 0 252.6 M -200.6 252.6"/><use x="486" y="1593.1" xlink:href="#tool-D11-pad-1035"/><path stroke-width="5.9" fill="none" d="M 668.9 1465.8 L 1123.6 1465.8 M 1123.6 1465.8 L 1123.6 993.3 M 1123.6 993.3 L 668.9 993.3 M 668.9 993.3 L 668.9 1465.8"/><use x="1137.4" y="1343.7" xlink:href="#tool-D12-pad-1036"/><path stroke-width="5.9" fill="none" d="M 1196.1 253 L 668.5 253 M 668.5 253 L 668.5 873.5 M 668.5 873.5 L 1196.1 873.5 M 1494.1 873.5"/><use x="657.5" y="431.2" xlink:href="#tool-D13-pad-1037"/><path stroke-width="8" fill="none" d="M 357.9 1762.6 L 357.9 1762.6 M 357.9 1762.6 L 339.3 1762.6 M 339.3 1762.6 L 339.3 1704.7 M 339.3 1704.7 L 339.3 1704.7 M 339.3 1704.7 L 266 1704.7 M 266 1704.7 L 266 1704.7 M 266 1704.7 L 266 1762.6 M 266 1762.6 L 247.4 1762.6 M 247.4 1762.6 L 247.4 1621.7 M 247.4 1621.7 L 266 1621.7 M 266 1621.7 L 266 1688.1 M 266 1688.1 L 266 1688.1 M 266 1688.1 L 339.3 1688.1 M 339.3 1688.1 L 339.3 1688.1 M 339.3 1688.1 L 339.3 1621.7 M 339.3 1621.7 L 357.9 1621.7 M 357.9 1621.7 L 357.9 1762.6 M 459.7 1619.8 L 459.7 1619.8 M 459.7 1619.8 L 468.4 1621.5 M 468.4 1621.5 L 476.8 1624.2 M 476.8 1624.2 L 484.9 1628 M 484.9 1628 L 492.4 1632.9 M 492.4 1632.9 L 499 1638.7 M 499 1638.7 L 504.6 1645.6 M 504.6 1645.6 L 509.4 1653.6 M 509.4 1653.6 L 513.2 1662.3 M 513.2 1662.3 L 515.9 1671.6 M 515.9 1671.6 L 517.5 1681.5 M 517.5 1681.5 L 518.1 1691.9 M 518.1 1691.9 L 517.5 1702.2 M 517.5 1702.2 L 516 1711.9 M 516 1711.9 L 513.4 1721.1 M 513.4 1721.1 L 509.9 1729.7 M 509.9 1729.7 L 505.3 1737.6 M 505.3 1737.6 L 499.8 1744.6 M 499.8 1744.6 L 493.3 1750.6 M 493.3 1750.6 L 486 1755.7 M 486 1755.7 L 477.9 1759.8 M 477.9 1759.8 L 469.4 1762.7 M 469.4 1762.7 L 460.3 1764.5 M 460.3 1764.5 L 450.8 1765.1 M 450.8 1765.1 L 436.6 1763.8 M 436.6 1763.8 L 423.8 1760.1 M 423.8 1760.1 L 412.3 1753.9 M 412.3 1753.9 L 402.2 1745.2 M 402.2 1745.2 L 393.9 1734.4 M 393.9 1734.4 L 388.1 1721.6 M 388.1 1721.6 L 384.5 1706.9 M 384.5 1706.9 L 383.3 1690.3 M 383.3 1690.3 L 383.8 1681.2 M 383.8 1681.2 L 385.4 1672.2 M 385.4 1672.2 L 387.9 1663.6 M 387.9 1663.6 L 391.4 1655.1 M 391.4 1655.1 L 395.9 1647.3 M 395.9 1647.3 L 401.4 1640.3 M 401.4 1640.3 L 407.8 1634.2 M 407.8 1634.2 L 415.1 1628.9 M 415.1 1628.9 L 423.2 1624.7 M 423.2 1624.7 L 431.9 1621.7 M 431.9 1621.7 L 441 1619.9 M 441 1619.9 L 450.7 1619.3 M 450.7 1619.3 L 459.7 1619.8 M 402.5 1690 L 402.5 1690 M 402.5 1690 L 403.4 1678 M 403.4 1678 L 406 1667.3 M 406 1667.3 L 410.3 1657.9 M 410.3 1657.9 L 416.2 1649.9 M 416.2 1649.9 L 423.5 1643.5 M 423.5 1643.5 L 431.7 1638.9 M 431.7 1638.9 L 440.7 1636.2 M 440.7 1636.2 L 450.6 1635.2 M 450.6 1635.2 L 460.6 1636.2 M 460.6 1636.2 L 469.8 1638.9 M 469.8 1638.9 L 478 1643.6 M 478 1643.6 L 485.3 1650 M 485.3 1650 L 491.2 1658.2 M 491.2 1658.2 L 495.5 1667.9 M 495.5 1667.9 L 498 1679.2 M 498 1679.2 L 498.8 1692 M 498.8 1692 L 498.5 1700.4 M 498.5 1700.4 L 497.4 1708.1 M 497.4 1708.1 L 495.6 1715.4 M 495.6 1715.4 L 493.1 1722.1 M 493.1 1722.1 L 489.8 1728.1 M 489.8 1728.1 L 485.9 1733.4 M 485.9 1733.4 L 481.3 1738.1 M 481.3 1738.1 L 476 1741.9 M 476 1741.9 L 470.3 1745.1 M 470.3 1745.1 L 464.2 1747.3 M 464.2 1747.3 L 457.7 1748.6 M 457.7 1748.6 L 450.9 1749 M 450.9 1749 L 441.3 1748.2 M 441.3 1748.2 L 432.5 1745.6 M 432.5 1745.6 L 424.3 1741.4 M 424.3 1741.4 L 416.8 1735.4 M 416.8 1735.4 L 410.6 1727.5 M 410.6 1727.5 L 406.1 1717.3 M 406.1 1717.3 L 403.4 1704.8 M 403.4 1704.8 L 402.5 1690 M 603.2 1619.6 L 603.2 1619.6 M 603.2 1619.6 L 610.2 1620.7 M 610.2 1620.7 L 616.8 1622.4 M 616.8 1622.4 L 623 1624.8 M 623 1624.8 L 628.7 1627.9 M 628.7 1627.9 L 633.6 1631.4 M 633.6 1631.4 L 637.9 1635.6 M 637.9 1635.6 L 641.5 1640.3 M 641.5 1640.3 L 644.3 1645.3 M 644.3 1645.3 L 646.3 1650.5 M 646.3 1650.5 L 647.5 1655.9 M 647.5 1655.9 L 647.9 1661.5 M 647.9 1661.5 L 647.5 1667 M 647.5 1667 L 646.4 1672.1 M 646.4 1672.1 L 644.6 1677 M 644.6 1677 L 642.1 1681.5 M 642.1 1681.5 L 638.7 1685.6 M 638.7 1685.6 L 634.6 1689.4 M 634.6 1689.4 L 629.7 1692.9 M 629.7 1692.9 L 623.9 1695.8 M 623.9 1695.8 L 618.8 1697.9 M 618.8 1697.9 L 611.9 1700 M 611.9 1700 L 603.2 1702.3 M 603.2 1702.3 L 592.7 1704.9 M 592.7 1704.9 L 592.7 1704.9 M 592.7 1704.9 L 582.4 1707.4 M 582.4 1707.4 L 582.4 1707.4 M 582.4 1707.4 L 574.3 1709.9 M 574.3 1709.9 L 574.3 1709.9 M 574.3 1709.9 L 568.4 1712.4 M 568.4 1712.4 L 568.4 1712.4 M 568.4 1712.4 L 564.6 1714.9 M 564.6 1714.9 L 564.6 1714.9 M 564.6 1714.9 L 562.2 1717.5 M 562.2 1717.5 L 562.2 1717.5 M 562.2 1717.5 L 560.5 1720.5 M 560.5 1720.5 L 560.5 1720.5 M 560.5 1720.5 L 559.5 1723.8 M 559.5 1723.8 L 559.5 1723.8 M 559.5 1723.8 L 559.1 1727.4 M 559.1 1727.4 L 559.1 1727.4 M 559.1 1727.4 L 559.6 1731.6 M 559.6 1731.6 L 559.6 1731.6 M 559.6 1731.6 L 561 1735.5 M 561 1735.5 L 561 1735.5 M 561 1735.5 L 563.4 1739.1 M 563.4 1739.1 L 563.4 1739.1 M 563.4 1739.1 L 566.9 1742.4 M 566.9 1742.4 L 566.9 1742.4 M 566.9 1742.4 L 571.3 1745.1 M 571.3 1745.1 L 571.3 1745.1 M 571.3 1745.1 L 576.9 1747 M 576.9 1747 L 576.9 1747 M 576.9 1747 L 583.6 1748.2 M 583.6 1748.2 L 583.6 1748.2 M 583.6 1748.2 L 591.5 1748.6 M 591.5 1748.6 L 591.5 1748.6 M 591.5 1748.6 L 599.2 1748.1 M 599.2 1748.1 L 599.2 1748.1 M 599.2 1748.1 L 605.8 1746.9 M 605.8 1746.9 L 605.8 1746.9 M 605.8 1746.9 L 611.4 1744.7 M 611.4 1744.7 L 611.4 1744.7 M 611.4 1744.7 L 616.1 1741.8 M 616.1 1741.8 L 616.1 1741.8 M 616.1 1741.8 L 619.8 1737.9 M 619.8 1737.9 L 619.8 1737.9 M 619.8 1737.9 L 622.7 1733.3 M 622.7 1733.3 L 622.7 1733.3 M 622.7 1733.3 L 624.7 1727.8 M 624.7 1727.8 L 624.7 1727.8 M 624.7 1727.8 L 625.8 1721.6 M 625.8 1721.6 L 643.7 1722.9 M 643.7 1722.9 L 643.1 1728.9 M 643.1 1728.9 L 641.7 1734.6 M 641.7 1734.6 L 639.6 1740 M 639.6 1740 L 636.8 1745.1 M 636.8 1745.1 L 633.2 1749.7 M 633.2 1749.7 L 629 1753.7 M 629 1753.7 L 624 1757.1 M 624 1757.1 L 618.4 1759.9 M 618.4 1759.9 L 612.1 1762.1 M 612.1 1762.1 L 605.5 1763.7 M 605.5 1763.7 L 598.4 1764.7 M 598.4 1764.7 L 590.8 1765 M 590.8 1765 L 583.8 1764.7 M 583.8 1764.7 L 577.2 1763.8 M 577.2 1763.8 L 570.9 1762.3 M 570.9 1762.3 L 564.9 1760.2 M 564.9 1760.2 L 559.4 1757.5 M 559.4 1757.5 L 554.7 1754.2 M 554.7 1754.2 L 550.6 1750.5 M 550.6 1750.5 L 547.2 1746.1 M 547.2 1746.1 L 544.6 1741.4 M 544.6 1741.4 L 542.7 1736.5 M 542.7 1736.5 L 541.6 1731.4 M 541.6 1731.4 L 541.2 1726.2 M 541.2 1726.2 L 541.5 1721.4 M 541.5 1721.4 L 542.4 1716.9 M 542.4 1716.9 L 544 1712.7 M 544 1712.7 L 546.1 1708.6 M 546.1 1708.6 L 548.9 1704.9 M 548.9 1704.9 L 552.3 1701.4 M 552.3 1701.4 L 556.4 1698.3 M 556.4 1698.3 L 561.2 1695.5 M 561.2 1695.5 L 565.8 1693.4 M 565.8 1693.4 L 571.8 1691.2 M 571.8 1691.2 L 579.4 1689 M 579.4 1689 L 588.4 1686.7 M 588.4 1686.7 L 597.2 1684.5 M 597.2 1684.5 L 597.2 1684.5 M 597.2 1684.5 L 604.4 1682.7 M 604.4 1682.7 L 604.4 1682.7 M 604.4 1682.7 L 609.7 1681.1 M 609.7 1681.1 L 609.7 1681.1 M 609.7 1681.1 L 613.4 1679.9 M 613.4 1679.9 L 613.4 1679.9 M 613.4 1679.9 L 617.5 1678.1 M 617.5 1678.1 L 617.5 1678.1 M 617.5 1678.1 L 621 1676.1 M 621 1676.1 L 621 1676.1 M 621 1676.1 L 623.9 1673.9 M 623.9 1673.9 L 623.9 1673.9 M 623.9 1673.9 L 626.1 1671.5 M 626.1 1671.5 L 626.1 1671.5 M 626.1 1671.5 L 627.8 1669 M 627.8 1669 L 627.8 1669 M 627.8 1669 L 629 1666.2 M 629 1666.2 L 629 1666.2 M 629 1666.2 L 629.7 1663.1 M 629.7 1663.1 L 629.7 1663.1 M 629.7 1663.1 L 630 1659.9 M 630 1659.9 L 630 1659.9 M 630 1659.9 L 629.7 1656.7 M 629.7 1656.7 L 629.7 1656.7 M 629.7 1656.7 L 629 1653.6 M 629 1653.6 L 629 1653.6 M 629 1653.6 L 627.7 1650.7 M 627.7 1650.7 L 627.7 1650.7 M 627.7 1650.7 L 626 1647.9 M 626 1647.9 L 626 1647.9 M 626 1647.9 L 623.7 1645.2 M 623.7 1645.2 L 623.7 1645.2 M 623.7 1645.2 L 621 1642.9 M 621 1642.9 L 621 1642.9 M 621 1642.9 L 617.7 1640.9 M 617.7 1640.9 L 617.7 1640.9 M 617.7 1640.9 L 613.8 1639.2 M 613.8 1639.2 L 613.8 1639.2 M 613.8 1639.2 L 609.6 1637.8 M 609.6 1637.8 L 609.6 1637.8 M 609.6 1637.8 L 605 1636.8 M 605 1636.8 L 605 1636.8 M 605 1636.8 L 600.2 1636.2 M 600.2 1636.2 L 600.2 1636.2 M 600.2 1636.2 L 595 1636 M 595 1636 L 595 1636 M 595 1636 L 589.1 1636.2 M 589.1 1636.2 L 589.1 1636.2 M 589.1 1636.2 L 583.6 1637 M 583.6 1637 L 583.6 1637 M 583.6 1637 L 578.3 1638.3 M 578.3 1638.3 L 578.3 1638.3 M 578.3 1638.3 L 573.3 1640.1 M 573.3 1640.1 L 573.3 1640.2 M 573.3 1640.2 L 568.8 1642.4 M 568.8 1642.4 L 568.8 1642.4 M 568.8 1642.4 L 565 1645 M 565 1645 L 565 1645 M 565 1645 L 561.8 1647.9 M 561.8 1647.9 L 561.8 1647.9 M 561.8 1647.9 L 559.2 1651.1 M 559.2 1651.1 L 559.2 1651.1 M 559.2 1651.1 L 557.1 1654.7 M 557.1 1654.7 L 557.1 1654.7 M 557.1 1654.7 L 555.4 1658.8 M 555.4 1658.8 L 555.4 1658.8 M 555.4 1658.8 L 554.2 1663.4 M 554.2 1663.4 L 554.2 1663.4 M 554.2 1663.4 L 553.3 1668.4 M 553.3 1668.4 L 535.8 1666.9 M 535.8 1666.9 L 536.4 1660.1 M 536.4 1660.1 L 537.9 1653.6 M 537.9 1653.6 L 540.3 1647.4 M 540.3 1647.4 L 543.5 1641.6 M 543.5 1641.6 L 547.5 1636.4 M 547.5 1636.4 L 552.3 1631.8 M 552.3 1631.8 L 557.7 1628 M 557.7 1628 L 563.8 1624.9 M 563.8 1624.9 L 570.6 1622.4 M 570.6 1622.4 L 578.3 1620.7 M 578.3 1620.7 L 586.7 1619.6 M 586.7 1619.6 L 595.8 1619.3 M 595.8 1619.3 L 603.2 1619.6 M 727.9 1746 L 727.9 1746 M 727.9 1746 L 727.9 1746 M 727.9 1746 L 774.5 1746 M 774.5 1746 L 774.5 1762.6 M 774.5 1762.6 L 662.9 1762.6 M 662.9 1762.6 L 662.9 1746 M 662.9 1746 L 709.3 1746 M 709.3 1746 L 709.3 1746 M 709.3 1746 L 709.3 1621.7 M 709.3 1621.7 L 727.9 1621.7 M 727.9 1621.7 L 727.9 1746 M 827 1681.4 L 827 1681.4 M 827 1681.4 L 773.9 1681.4 M 773.9 1681.4 L 773.9 1664 M 773.9 1664 L 827 1664 M 827 1664 L 827 1681.4 M 907.1 1762.6 L 907.1 1762.6 M 907.1 1762.6 L 887 1762.6 M 887 1762.6 L 832.9 1621.7 M 832.9 1621.7 L 852.7 1621.7 M 852.7 1621.7 L 868.1 1664.4 M 868.1 1664.4 L 868.1 1664.4 M 868.1 1664.4 L 927.1 1664.4 M 927.1 1664.4 L 927.1 1664.4 M 927.1 1664.4 L 943.5 1621.7 M 943.5 1621.7 L 964.7 1621.7 M 964.7 1621.7 L 907.1 1762.6 M 906.6 1718.6 L 906.6 1718.6 M 906.6 1718.6 L 906.6 1718.6 M 906.6 1718.6 L 903.4 1727.1 M 903.4 1727.1 L 903.4 1727.1 M 903.4 1727.1 L 900.7 1734.7 M 900.7 1734.7 L 900.7 1734.7 M 900.7 1734.7 L 898.4 1741.7 M 898.4 1741.7 L 898.4 1741.7 M 898.4 1741.7 L 896.6 1747.7 M 896.6 1747.7 L 895.1 1741 M 895.1 1741 L 895.1 1741 M 895.1 1741 L 893.4 1734.3 M 893.4 1734.3 L 893.4 1734.3 M 893.4 1734.3 L 891.3 1727.5 M 891.3 1727.5 L 891.3 1727.5 M 891.3 1727.5 L 889 1720.8 M 889 1720.8 L 889 1720.8 M 889 1720.8 L 873.6 1679.5 M 873.6 1679.5 L 921.3 1679.5 M 921.3 1679.5 L 906.6 1718.6 M 740.1 1482.9 L 740.1 1482.9 M 740.1 1482.9 L 743.6 1483.4 M 743.6 1483.4 L 746.9 1484.2 M 746.9 1484.2 L 750 1485.5 M 750 1485.5 L 752.8 1487 M 752.8 1487 L 755.3 1488.8 M 755.3 1488.8 L 757.5 1490.8 M 757.5 1490.8 L 759.2 1493.2 M 759.2 1493.2 L 760.6 1495.7 M 760.6 1495.7 L 761.6 1498.3 M 761.6 1498.3 L 762.2 1501 M 762.2 1501 L 762.5 1503.8 M 762.5 1503.8 L 762.3 1506.5 M 762.3 1506.5 L 761.7 1509.1 M 761.7 1509.1 L 760.8 1511.5 M 760.8 1511.5 L 759.5 1513.8 M 759.5 1513.8 L 757.9 1515.8 M 757.9 1515.8 L 755.8 1517.7 M 755.8 1517.7 L 753.3 1519.5 M 753.3 1519.5 L 750.5 1521 M 750.5 1521 L 747.9 1521.9 M 747.9 1521.9 L 744.4 1523.1 M 744.4 1523.1 L 740.1 1524.2 M 740.1 1524.2 L 734.9 1525.5 M 734.9 1525.5 L 734.9 1525.5 M 734.9 1525.5 L 729.7 1526.7 M 729.7 1526.7 L 729.7 1526.7 M 729.7 1526.7 L 725.6 1528 M 725.6 1528 L 725.6 1528 M 725.6 1528 L 722.7 1529.2 M 722.7 1529.2 L 722.7 1529.2 M 722.7 1529.2 L 720.8 1530.5 M 720.8 1530.5 L 720.8 1530.5 M 720.8 1530.5 L 719.6 1531.8 M 719.6 1531.8 L 719.6 1531.8 M 719.6 1531.8 L 718.7 1533.3 M 718.7 1533.3 L 718.7 1533.3 M 718.7 1533.3 L 718.2 1534.9 M 718.2 1534.9 L 718.2 1534.9 M 718.2 1534.9 L 718.1 1536.8 M 718.1 1536.8 L 718.1 1536.8 M 718.1 1536.8 L 718.3 1538.8 M 718.3 1538.8 L 718.3 1538.8 M 718.3 1538.8 L 719 1540.8 M 719 1540.8 L 719 1540.8 M 719 1540.8 L 720.2 1542.6 M 720.2 1542.6 L 720.2 1542.6 M 720.2 1542.6 L 721.9 1544.2 M 721.9 1544.2 L 721.9 1544.2 M 721.9 1544.2 L 724.2 1545.6 M 724.2 1545.6 L 724.2 1545.6 M 724.2 1545.6 L 726.9 1546.6 M 726.9 1546.6 L 726.9 1546.6 M 726.9 1546.6 L 730.3 1547.1 M 730.3 1547.1 L 730.3 1547.1 M 730.3 1547.1 L 734.3 1547.3 M 734.3 1547.3 L 734.3 1547.3 M 734.3 1547.3 L 738.1 1547.1 M 738.1 1547.1 L 738.1 1547.1 M 738.1 1547.1 L 741.4 1546.5 M 741.4 1546.5 L 741.4 1546.5 M 741.4 1546.5 L 744.2 1545.4 M 744.2 1545.4 L 744.2 1545.4 M 744.2 1545.4 L 746.6 1543.9 M 746.6 1543.9 L 746.6 1543.9 M 746.6 1543.9 L 748.4 1542 M 748.4 1542 L 748.4 1542 M 748.4 1542 L 749.9 1539.7 M 749.9 1539.7 L 749.9 1539.7 M 749.9 1539.7 L 750.8 1536.9 M 750.8 1536.9 L 750.8 1536.9 M 750.8 1536.9 L 751.4 1533.8 M 751.4 1533.8 L 760.3 1534.5 M 760.3 1534.5 L 760 1537.5 M 760 1537.5 L 759.4 1540.3 M 759.4 1540.3 L 758.3 1543.1 M 758.3 1543.1 L 756.9 1545.6 M 756.9 1545.6 L 755.1 1547.9 M 755.1 1547.9 L 753 1549.9 M 753 1549.9 L 750.5 1551.6 M 750.5 1551.6 L 747.7 1553 M 747.7 1553 L 744.6 1554.1 M 744.6 1554.1 L 741.2 1554.9 M 741.2 1554.9 L 737.7 1555.4 M 737.7 1555.4 L 733.9 1555.5 M 733.9 1555.5 L 730.4 1555.4 M 730.4 1555.4 L 727.1 1554.9 M 727.1 1554.9 L 723.9 1554.2 M 723.9 1554.2 L 721 1553.1 M 721 1553.1 L 718.2 1551.8 M 718.2 1551.8 L 715.8 1550.1 M 715.8 1550.1 L 713.8 1548.2 M 713.8 1548.2 L 712.1 1546.1 M 712.1 1546.1 L 710.8 1543.7 M 710.8 1543.7 L 709.9 1541.3 M 709.9 1541.3 L 709.3 1538.7 M 709.3 1538.7 L 709.1 1536.1 M 709.1 1536.1 L 709.2 1533.8 M 709.2 1533.8 L 709.7 1531.5 M 709.7 1531.5 L 710.5 1529.4 M 710.5 1529.4 L 711.6 1527.3 M 711.6 1527.3 L 713 1525.5 M 713 1525.5 L 714.7 1523.8 M 714.7 1523.8 L 716.7 1522.2 M 716.7 1522.2 L 719.1 1520.8 M 719.1 1520.8 L 721.4 1519.7 M 721.4 1519.7 L 724.4 1518.7 M 724.4 1518.7 L 728.2 1517.5 M 728.2 1517.5 L 732.7 1516.4 M 732.7 1516.4 L 737.1 1515.3 M 737.1 1515.3 L 737.1 1515.3 M 737.1 1515.3 L 740.6 1514.4 M 740.6 1514.4 L 740.6 1514.4 M 740.6 1514.4 L 743.4 1513.6 M 743.4 1513.6 L 743.4 1513.6 M 743.4 1513.6 L 745.2 1513 M 745.2 1513 L 745.2 1513 M 745.2 1513 L 747.3 1512.1 M 747.3 1512.1 L 747.3 1512.1 M 747.3 1512.1 L 749 1511.1 M 749 1511.1 L 749 1511.1 M 749 1511.1 L 750.5 1510 M 750.5 1510 L 750.5 1510 M 750.5 1510 L 751.6 1508.8 M 751.6 1508.8 L 751.6 1508.8 M 751.6 1508.8 L 752.4 1507.5 M 752.4 1507.5 L 752.4 1507.5 M 752.4 1507.5 L 753 1506.1 M 753 1506.1 L 753 1506.1 M 753 1506.1 L 753.4 1504.6 M 753.4 1504.6 L 753.4 1504.6 M 753.4 1504.6 L 753.5 1503 M 753.5 1503 L 753.5 1503 M 753.5 1503 L 753.4 1501.4 M 753.4 1501.4 L 753.4 1501.4 M 753.4 1501.4 L 753 1499.9 M 753 1499.9 L 753 1499.9 M 753 1499.9 L 752.4 1498.4 M 752.4 1498.4 L 752.4 1498.4 M 752.4 1498.4 L 751.5 1496.9 M 751.5 1496.9 L 751.5 1496.9 M 751.5 1496.9 L 750.4 1495.6 M 750.4 1495.6 L 750.4 1495.6 M 750.4 1495.6 L 749 1494.5 M 749 1494.5 L 749 1494.5 M 749 1494.5 L 747.3 1493.5 M 747.3 1493.5 L 747.3 1493.5 M 747.3 1493.5 L 745.4 1492.6 M 745.4 1492.6 L 745.4 1492.6 M 745.4 1492.6 L 743.3 1491.9 M 743.3 1491.9 L 743.3 1491.9 M 743.3 1491.9 L 741 1491.4 M 741 1491.4 L 741 1491.4 M 741 1491.4 L 738.6 1491.1 M 738.6 1491.1 L 738.6 1491.1 M 738.6 1491.1 L 736 1491 M 736 1491 L 736 1491 M 736 1491 L 733.1 1491.2 M 733.1 1491.2 L 733.1 1491.2 M 733.1 1491.2 L 730.3 1491.6 M 730.3 1491.6 L 730.3 1491.6 M 730.3 1491.6 L 727.7 1492.2 M 727.7 1492.2 L 727.7 1492.2 M 727.7 1492.2 L 725.2 1493.1 M 725.2 1493.1 L 725.2 1493.1 M 725.2 1493.1 L 722.9 1494.2 M 722.9 1494.2 L 722.9 1494.2 M 722.9 1494.2 L 721 1495.5 M 721 1495.5 L 721 1495.5 M 721 1495.5 L 719.4 1497 M 719.4 1497 L 719.4 1497 M 719.4 1497 L 718.1 1498.6 M 718.1 1498.6 L 718.1 1498.6 M 718.1 1498.6 L 717 1500.4 M 717 1500.4 L 717 1500.4 M 717 1500.4 L 716.2 1502.5 M 716.2 1502.5 L 716.2 1502.5 M 716.2 1502.5 L 715.6 1504.7 M 715.6 1504.7 L 715.6 1504.7 M 715.6 1504.7 L 715.1 1507.3 M 715.1 1507.3 L 706.4 1506.5 M 706.4 1506.5 L 706.7 1503.1 M 706.7 1503.1 L 707.5 1499.8 M 707.5 1499.8 L 708.6 1496.8 M 708.6 1496.8 L 710.3 1493.9 M 710.3 1493.9 L 712.3 1491.2 M 712.3 1491.2 L 714.6 1489 M 714.6 1489 L 717.3 1487.1 M 717.3 1487.1 L 720.4 1485.5 M 720.4 1485.5 L 723.8 1484.3 M 723.8 1484.3 L 727.6 1483.4 M 727.6 1483.4 L 731.8 1482.9 M 731.8 1482.9 L 736.4 1482.7 M 736.4 1482.7 L 740.1 1482.9 M 830.6 1554.3 L 830.6 1554.3 M 830.6 1554.3 L 821.7 1554.3 M 821.7 1554.3 L 821.7 1499 M 821.7 1499 L 821.7 1499 M 821.7 1499 L 784.7 1554.3 M 784.7 1554.3 L 775.1 1554.3 M 775.1 1554.3 L 775.1 1483.9 M 775.1 1483.9 L 784 1483.9 M 784 1483.9 L 784 1539.3 M 784 1539.3 L 784 1539.3 M 784 1539.3 L 821 1483.9 M 821 1483.9 L 830.6 1483.9 M 830.6 1483.9 L 830.6 1554.3 M 857.2 1554.3 L 857.2 1554.3 M 857.2 1554.3 L 847.9 1554.3 M 847.9 1554.3 L 847.9 1483.9 M 847.9 1483.9 L 857.2 1483.9 M 857.2 1483.9 L 857.2 1554.3 M 883.4 1515.9 L 883.4 1515.9 M 883.4 1515.9 L 883.4 1515.9 M 883.4 1515.9 L 916.5 1515.9 M 916.5 1515.9 L 916.5 1524.2 M 916.5 1524.2 L 883.4 1524.2 M 883.4 1524.2 L 883.4 1524.2 M 883.4 1524.2 L 883.4 1546 M 883.4 1546 L 883.4 1546 M 883.4 1546 L 921.6 1546 M 921.6 1546 L 921.6 1554.3 M 921.6 1554.3 L 874.1 1554.3 M 874.1 1554.3 L 874.1 1483.9 M 874.1 1483.9 L 883.4 1483.9 M 883.4 1483.9 L 883.4 1515.9 M 943.5 1515.9 L 943.5 1515.9 M 943.5 1515.9 L 943.5 1515.9 M 943.5 1515.9 L 976.6 1515.9 M 976.6 1515.9 L 976.6 1524.2 M 976.6 1524.2 L 943.5 1524.2 M 943.5 1524.2 L 943.5 1524.2 M 943.5 1524.2 L 943.5 1546 M 943.5 1546 L 943.5 1546 M 943.5 1546 L 981.8 1546 M 981.8 1546 L 981.8 1554.3 M 981.8 1554.3 L 934.2 1554.3 M 934.2 1554.3 L 934.2 1483.9 M 934.2 1483.9 L 943.5 1483.9 M 943.5 1483.9 L 943.5 1515.9 M 1016 1513.7 L 1016 1513.7 M 1016 1513.7 L 989.4 1513.7 M 989.4 1513.7 L 989.4 1505.1 M 989.4 1505.1 L 1016 1505.1 M 1016 1505.1 L 1016 1513.7 M 1056 1554.3 L 1056 1554.3 M 1056 1554.3 L 1046 1554.3 M 1046 1554.3 L 1018.9 1483.9 M 1018.9 1483.9 L 1028.8 1483.9 M 1028.8 1483.9 L 1036.5 1505.2 M 1036.5 1505.2 L 1036.5 1505.3 M 1036.5 1505.3 L 1066 1505.3 M 1066 1505.3 L 1066 1505.2 M 1066 1505.2 L 1074.2 1483.9 M 1074.2 1483.9 L 1084.8 1483.9 M 1084.8 1483.9 L 1056 1554.3 M 1055.7 1532.3 L 1055.7 1532.3 M 1055.7 1532.3 L 1055.7 1532.3 M 1055.7 1532.3 L 1054.2 1536.6 M 1054.2 1536.6 L 1054.2 1536.6 M 1054.2 1536.6 L 1052.8 1540.4 M 1052.8 1540.4 L 1052.8 1540.4 M 1052.8 1540.4 L 1051.7 1543.9 M 1051.7 1543.9 L 1051.7 1543.9 M 1051.7 1543.9 L 1050.8 1546.9 M 1050.8 1546.9 L 1050.1 1543.6 M 1050.1 1543.6 L 1050.1 1543.6 M 1050.1 1543.6 L 1049.2 1540.2 M 1049.2 1540.2 L 1049.2 1540.2 M 1049.2 1540.2 L 1048.1 1536.8 M 1048.1 1536.8 L 1048.1 1536.8 M 1048.1 1536.8 L 1047 1533.5 M 1047 1533.5 L 1047 1533.5 M 1047 1533.5 L 1039.3 1512.8 M 1039.3 1512.8 L 1063.1 1512.8 M 1063.1 1512.8 L 1055.7 1532.3 M 357.9 197.6 L 357.9 197.6 M 357.9 197.6 L 339.3 197.6 M 339.3 197.6 L 339.3 139.7 M 339.3 139.7 L 339.3 139.7 M 339.3 139.7 L 266 139.7 M 266 139.7 L 266 139.7 M 266 139.7 L 266 197.6 M 266 197.6 L 247.4 197.6 M 247.4 197.6 L 247.4 56.8 M 247.4 56.8 L 266 56.8 M 266 56.8 L 266 123.1 M 266 123.1 L 266 123.2 M 266 123.2 L 339.3 123.2 M 339.3 123.2 L 339.3 123.1 M 339.3 123.1 L 339.3 56.8 M 339.3 56.8 L 357.9 56.8 M 357.9 56.8 L 357.9 197.6 M 459.7 54.9 L 459.7 54.9 M 459.7 54.9 L 468.4 56.5 M 468.4 56.5 L 476.8 59.2 M 476.8 59.2 L 484.9 63 M 484.9 63 L 492.4 67.9 M 492.4 67.9 L 499 73.8 M 499 73.8 L 504.6 80.7 M 504.6 80.7 L 509.4 88.6 M 509.4 88.6 L 513.2 97.4 M 513.2 97.4 L 515.9 106.7 M 515.9 106.7 L 517.5 116.6 M 517.5 116.6 L 518.1 127 M 518.1 127 L 517.5 137.3 M 517.5 137.3 L 516 147 M 516 147 L 513.4 156.2 M 513.4 156.2 L 509.9 164.8 M 509.9 164.8 L 505.3 172.7 M 505.3 172.7 L 499.8 179.6 M 499.8 179.6 L 493.3 185.6 M 493.3 185.6 L 486 190.8 M 486 190.8 L 477.9 194.9 M 477.9 194.9 L 469.4 197.8 M 469.4 197.8 L 460.3 199.5 M 460.3 199.5 L 450.8 200.1 M 450.8 200.1 L 436.6 198.9 M 436.6 198.9 L 423.8 195.1 M 423.8 195.1 L 412.3 189 M 412.3 189 L 402.2 180.3 M 402.2 180.3 L 393.9 169.4 M 393.9 169.4 L 388.1 156.6 M 388.1 156.6 L 384.5 141.9 M 384.5 141.9 L 383.3 125.3 M 383.3 125.3 L 383.8 116.2 M 383.8 116.2 L 385.4 107.3 M 385.4 107.3 L 387.9 98.6 M 387.9 98.6 L 391.4 90.2 M 391.4 90.2 L 395.9 82.3 M 395.9 82.3 L 401.4 75.3 M 401.4 75.3 L 407.8 69.2 M 407.8 69.2 L 415.1 64 M 415.1 64 L 423.2 59.7 M 423.2 59.7 L 431.9 56.7 M 431.9 56.7 L 441 54.9 M 441 54.9 L 450.7 54.3 M 450.7 54.3 L 459.7 54.9 M 402.5 125.1 L 402.5 125.1 M 402.5 125.1 L 403.4 113 M 403.4 113 L 406 102.3 M 406 102.3 L 410.3 92.9 M 410.3 92.9 L 416.2 84.9 M 416.2 84.9 L 423.5 78.5 M 423.5 78.5 L 431.7 73.9 M 431.7 73.9 L 440.7 71.2 M 440.7 71.2 L 450.6 70.3 M 450.6 70.3 L 460.6 71.2 M 460.6 71.2 L 469.8 74 M 469.8 74 L 478 78.6 M 478 78.6 L 485.3 85.1 M 485.3 85.1 L 491.2 93.2 M 491.2 93.2 L 495.5 103 M 495.5 103 L 498 114.2 M 498 114.2 L 498.8 127.1 M 498.8 127.1 L 498.5 135.4 M 498.5 135.4 L 497.4 143.2 M 497.4 143.2 L 495.6 150.4 M 495.6 150.4 L 493.1 157.1 M 493.1 157.1 L 489.8 163.2 M 489.8 163.2 L 485.9 168.5 M 485.9 168.5 L 481.3 173.1 M 481.3 173.1 L 476 177 M 476 177 L 470.3 180.1 M 470.3 180.1 L 464.2 182.3 M 464.2 182.3 L 457.7 183.6 M 457.7 183.6 L 450.9 184.1 M 450.9 184.1 L 441.3 183.2 M 441.3 183.2 L 432.5 180.7 M 432.5 180.7 L 424.3 176.4 M 424.3 176.4 L 416.8 170.5 M 416.8 170.5 L 410.6 162.5 M 410.6 162.5 L 406.1 152.3 M 406.1 152.3 L 403.4 139.8 M 403.4 139.8 L 402.5 125.1 M 603.2 54.7 L 603.2 54.7 M 603.2 54.7 L 610.2 55.7 M 610.2 55.7 L 616.8 57.4 M 616.8 57.4 L 623 59.9 M 623 59.9 L 628.7 62.9 M 628.7 62.9 L 633.6 66.5 M 633.6 66.5 L 637.9 70.6 M 637.9 70.6 L 641.5 75.3 M 641.5 75.3 L 644.3 80.4 M 644.3 80.4 L 646.3 85.6 M 646.3 85.6 L 647.5 91 M 647.5 91 L 647.9 96.5 M 647.9 96.5 L 647.5 102 M 647.5 102 L 646.4 107.2 M 646.4 107.2 L 644.6 112 M 644.6 112 L 642.1 116.5 M 642.1 116.5 L 638.7 120.7 M 638.7 120.7 L 634.6 124.5 M 634.6 124.5 L 629.7 127.9 M 629.7 127.9 L 623.9 130.9 M 623.9 130.9 L 618.8 132.9 M 618.8 132.9 L 611.9 135.1 M 611.9 135.1 L 603.2 137.4 M 603.2 137.4 L 592.7 139.9 M 592.7 139.9 L 592.7 139.9 M 592.7 139.9 L 582.4 142.4 M 582.4 142.4 L 582.4 142.4 M 582.4 142.4 L 574.3 145 M 574.3 145 L 574.3 145 M 574.3 145 L 568.4 147.5 M 568.4 147.5 L 568.4 147.5 M 568.4 147.5 L 564.6 149.9 M 564.6 149.9 L 564.6 149.9 M 564.6 149.9 L 562.2 152.5 M 562.2 152.5 L 562.2 152.5 M 562.2 152.5 L 560.5 155.5 M 560.5 155.5 L 560.5 155.5 M 560.5 155.5 L 559.5 158.8 M 559.5 158.8 L 559.5 158.8 M 559.5 158.8 L 559.1 162.5 M 559.1 162.5 L 559.1 162.5 M 559.1 162.5 L 559.6 166.7 M 559.6 166.7 L 559.6 166.7 M 559.6 166.7 L 561 170.6 M 561 170.6 L 561 170.6 M 561 170.6 L 563.4 174.2 M 563.4 174.2 L 563.4 174.2 M 563.4 174.2 L 566.9 177.4 M 566.9 177.4 L 566.9 177.4 M 566.9 177.4 L 571.3 180.1 M 571.3 180.1 L 571.3 180.1 M 571.3 180.1 L 576.9 182.1 M 576.9 182.1 L 576.9 182.1 M 576.9 182.1 L 583.6 183.2 M 583.6 183.2 L 583.6 183.2 M 583.6 183.2 L 591.5 183.6 M 591.5 183.6 L 591.5 183.6 M 591.5 183.6 L 599.2 183.2 M 599.2 183.2 L 599.2 183.2 M 599.2 183.2 L 605.8 181.9 M 605.8 181.9 L 605.8 181.9 M 605.8 181.9 L 611.4 179.8 M 611.4 179.8 L 611.4 179.8 M 611.4 179.8 L 616.1 176.8 M 616.1 176.8 L 616.1 176.8 M 616.1 176.8 L 619.8 173 M 619.8 173 L 619.8 173 M 619.8 173 L 622.7 168.3 M 622.7 168.3 L 622.7 168.3 M 622.7 168.3 L 624.7 162.9 M 624.7 162.9 L 624.7 162.9 M 624.7 162.9 L 625.8 156.6 M 625.8 156.6 L 643.7 157.9 M 643.7 157.9 L 643.1 164 M 643.1 164 L 641.7 169.7 M 641.7 169.7 L 639.6 175.1 M 639.6 175.1 L 636.8 180.1 M 636.8 180.1 L 633.2 184.7 M 633.2 184.7 L 629 188.7 M 629 188.7 L 624 192.1 M 624 192.1 L 618.4 194.9 M 618.4 194.9 L 612.1 197.2 M 612.1 197.2 L 605.5 198.8 M 605.5 198.8 L 598.4 199.7 M 598.4 199.7 L 590.8 200 M 590.8 200 L 583.8 199.7 M 583.8 199.7 L 577.2 198.8 M 577.2 198.8 L 570.9 197.3 M 570.9 197.3 L 564.9 195.2 M 564.9 195.2 L 559.4 192.5 M 559.4 192.5 L 554.7 189.3 M 554.7 189.3 L 550.6 185.5 M 550.6 185.5 L 547.2 181.1 M 547.2 181.1 L 544.6 176.4 M 544.6 176.4 L 542.7 171.5 M 542.7 171.5 L 541.6 166.4 M 541.6 166.4 L 541.2 161.2 M 541.2 161.2 L 541.5 156.5 M 541.5 156.5 L 542.4 151.9 M 542.4 151.9 L 544 147.7 M 544 147.7 L 546.1 143.7 M 546.1 143.7 L 548.9 139.9 M 548.9 139.9 L 552.3 136.5 M 552.3 136.5 L 556.4 133.4 M 556.4 133.4 L 561.2 130.5 M 561.2 130.5 L 565.8 128.4 M 565.8 128.4 L 571.8 126.3 M 571.8 126.3 L 579.4 124 M 579.4 124 L 588.4 121.8 M 588.4 121.8 L 597.2 119.6 M 597.2 119.6 L 597.2 119.6 M 597.2 119.6 L 604.4 117.7 M 604.4 117.7 L 604.4 117.7 M 604.4 117.7 L 609.7 116.2 M 609.7 116.2 L 609.7 116.2 M 609.7 116.2 L 613.4 114.9 M 613.4 114.9 L 613.4 114.9 M 613.4 114.9 L 617.5 113.1 M 617.5 113.1 L 617.5 113.1 M 617.5 113.1 L 621 111.1 M 621 111.1 L 621 111.1 M 621 111.1 L 623.9 109 M 623.9 109 L 623.9 109 M 623.9 109 L 626.1 106.6 M 626.1 106.6 L 626.1 106.6 M 626.1 106.6 L 627.8 104 M 627.8 104 L 627.8 104 M 627.8 104 L 629 101.2 M 629 101.2 L 629 101.2 M 629 101.2 L 629.7 98.2 M 629.7 98.2 L 629.7 98.2 M 629.7 98.2 L 630 95 M 630 95 L 630 95 M 630 95 L 629.7 91.8 M 629.7 91.8 L 629.7 91.8 M 629.7 91.8 L 629 88.7 M 629 88.7 L 629 88.7 M 629 88.7 L 627.7 85.7 M 627.7 85.7 L 627.7 85.7 M 627.7 85.7 L 626 82.9 M 626 82.9 L 626 82.9 M 626 82.9 L 623.7 80.3 M 623.7 80.3 L 623.7 80.3 M 623.7 80.3 L 621 77.9 M 621 77.9 L 621 77.9 M 621 77.9 L 617.7 75.9 M 617.7 75.9 L 617.7 75.9 M 617.7 75.9 L 613.8 74.2 M 613.8 74.2 L 613.8 74.2 M 613.8 74.2 L 609.6 72.8 M 609.6 72.8 L 609.6 72.8 M 609.6 72.8 L 605 71.8 M 605 71.8 L 605 71.8 M 605 71.8 L 600.2 71.2 M 600.2 71.2 L 600.2 71.2 M 600.2 71.2 L 595 71 M 595 71 L 595 71 M 595 71 L 589.1 71.3 M 589.1 71.3 L 589.1 71.3 M 589.1 71.3 L 583.6 72.1 M 583.6 72.1 L 583.6 72.1 M 583.6 72.1 L 578.3 73.4 M 578.3 73.4 L 578.3 73.4 M 578.3 73.4 L 573.3 75.2 M 573.3 75.2 L 573.3 75.2 M 573.3 75.2 L 568.8 77.5 M 568.8 77.5 L 568.8 77.5 M 568.8 77.5 L 565 80 M 565 80 L 565 80 M 565 80 L 561.8 82.9 M 561.8 82.9 L 561.8 82.9 M 561.8 82.9 L 559.2 86.2 M 559.2 86.2 L 559.2 86.2 M 559.2 86.2 L 557.1 89.8 M 557.1 89.8 L 557.1 89.8 M 557.1 89.8 L 555.4 93.9 M 555.4 93.9 L 555.4 93.9 M 555.4 93.9 L 554.2 98.5 M 554.2 98.5 L 554.2 98.5 M 554.2 98.5 L 553.3 103.5 M 553.3 103.5 L 535.8 101.9 M 535.8 101.9 L 536.4 95.1 M 536.4 95.1 L 537.9 88.6 M 537.9 88.6 L 540.3 82.5 M 540.3 82.5 L 543.5 76.7 M 543.5 76.7 L 547.5 71.4 M 547.5 71.4 L 552.3 66.9 M 552.3 66.9 L 557.7 63.1 M 557.7 63.1 L 563.8 59.9 M 563.8 59.9 L 570.6 57.5 M 570.6 57.5 L 578.3 55.7 M 578.3 55.7 L 586.7 54.7 M 586.7 54.7 L 595.8 54.3 M 595.8 54.3 L 603.2 54.7 M 727.9 181 L 727.9 181 M 727.9 181 L 727.9 181 M 727.9 181 L 774.5 181 M 774.5 181 L 774.5 197.6 M 774.5 197.6 L 662.9 197.6 M 662.9 197.6 L 662.9 181 M 662.9 181 L 709.3 181 M 709.3 181 L 709.3 181 M 709.3 181 L 709.3 56.8 M 709.3 56.8 L 727.9 56.8 M 727.9 56.8 L 727.9 181 M 827 116.4 L 827 116.4 M 827 116.4 L 773.9 116.4 M 773.9 116.4 L 773.9 99 M 773.9 99 L 827 99 M 827 99 L 827 116.4 M 907.8 56.9 L 907.8 56.9 M 907.8 56.9 L 913.7 57.3 M 913.7 57.3 L 919.2 58.1 M 919.2 58.1 L 924 59.1 M 924 59.1 L 928.5 60.4 M 928.5 60.4 L 932.5 62 M 932.5 62 L 936.2 63.9 M 936.2 63.9 L 939.5 66 M 939.5 66 L 942.4 68.6 M 942.4 68.6 L 945.1 71.6 M 945.1 71.6 L 947.6 75.1 M 947.6 75.1 L 949.8 79.2 M 949.8 79.2 L 951.6 83.5 M 951.6 83.5 L 952.9 88 M 952.9 88 L 953.7 92.7 M 953.7 92.7 L 954 97.6 M 954 97.6 L 953.5 103.5 M 953.5 103.5 L 952.2 109 M 952.2 109 L 950.1 114.2 M 950.1 114.2 L 947.1 118.9 M 947.1 118.9 L 943.3 123.1 M 943.3 123.1 L 938.8 126.6 M 938.8 126.6 L 933.4 129.5 M 933.4 129.5 L 927.4 131.7 M 927.4 131.7 L 927.4 131.7 M 927.4 131.7 L 932.1 134.4 M 932.1 134.4 L 936.1 137.4 M 936.1 137.4 L 939.5 140.8 M 939.5 140.8 L 942.2 144.6 M 942.2 144.6 L 944.4 148.6 M 944.4 148.6 L 945.9 152.8 M 945.9 152.8 L 946.8 157.1 M 946.8 157.1 L 947.1 161.6 M 947.1 161.6 L 946.8 166.4 M 946.8 166.4 L 945.8 171.1 M 945.8 171.1 L 944 175.7 M 944 175.7 L 941.6 180.2 M 941.6 180.2 L 938.6 184.3 M 938.6 184.3 L 935 187.9 M 935 187.9 L 931 190.9 M 931 190.9 L 926.3 193.3 M 926.3 193.3 L 921 195.2 M 921 195.2 L 915 196.5 M 915 196.5 L 908.1 197.3 M 908.1 197.3 L 900.5 197.6 M 900.5 197.6 L 847.6 197.6 M 847.6 197.6 L 847.6 56.8 M 847.6 56.8 L 901.3 56.8 M 901.3 56.8 L 907.8 56.9 M 866.2 138.4 L 866.2 138.4 M 866.2 138.4 L 896.7 138.4 M 896.7 138.4 L 902.5 138.5 M 902.5 138.5 L 907.3 138.8 M 907.3 138.8 L 911.4 139.4 M 911.4 139.4 L 914.5 140.1 M 914.5 140.1 L 917.8 141.3 M 917.8 141.3 L 920.7 142.9 M 920.7 142.9 L 923.2 144.8 M 923.2 144.8 L 925.2 147.1 M 925.2 147.1 L 926.8 149.7 M 926.8 149.7 L 927.9 152.6 M 927.9 152.6 L 928.6 155.8 M 928.6 155.8 L 928.8 159.4 M 928.8 159.4 L 928.6 162.8 M 928.6 162.8 L 928 166 M 928 166 L 926.9 169 M 926.9 169 L 925.4 171.7 M 925.4 171.7 L 923.6 174.2 M 923.6 174.2 L 921.4 176.2 M 921.4 176.2 L 918.8 177.8 M 918.8 177.8 L 915.8 179 M 915.8 179 L 912.1 179.9 M 912.1 179.9 L 907.3 180.5 M 907.3 180.5 L 901.4 180.9 M 901.4 180.9 L 894.4 181 M 894.4 181 L 866.2 181 M 866.2 181 L 866.2 138.4 M 866.2 73.3 L 866.2 73.3 M 866.2 73.3 L 901.3 73.3 M 901.3 73.3 L 905.5 73.4 M 905.5 73.4 L 909 73.5 M 909 73.5 L 911.8 73.7 M 911.8 73.7 L 914 74 M 914 74 L 917.1 74.7 M 917.1 74.7 L 919.9 75.6 M 919.9 75.6 L 922.5 76.6 M 922.5 76.6 L 924.7 77.9 M 924.7 77.9 L 926.8 79.4 M 926.8 79.4 L 928.7 81.2 M 928.7 81.2 L 930.4 83.3 M 930.4 83.3 L 931.9 85.7 M 931.9 85.7 L 933.1 88.4 M 933.1 88.4 L 934 91.2 M 934 91.2 L 934.5 94.3 M 934.5 94.3 L 934.7 97.6 M 934.7 97.6 L 934.4 101.4 M 934.4 101.4 L 933.6 104.9 M 933.6 104.9 L 932.4 108.2 M 932.4 108.2 L 930.6 111.2 M 930.6 111.2 L 928.4 114 M 928.4 114 L 925.8 116.2 M 925.8 116.2 L 922.8 118.1 M 922.8 118.1 L 919.4 119.4 M 919.4 119.4 L 915.5 120.5 M 915.5 120.5 L 910.7 121.2 M 910.7 121.2 L 905.1 121.6 M 905.1 121.6 L 898.8 121.8 M 898.8 121.8 L 866.2 121.8 M 866.2 121.8 L 866.2 73.3 M 740.1 902.1 L 740.1 902.1 M 740.1 902.1 L 743.6 902.7 M 743.6 902.7 L 746.9 903.5 M 746.9 903.5 L 750 904.7 M 750 904.7 L 752.8 906.3 M 752.8 906.3 L 755.3 908.1 M 755.3 908.1 L 757.5 910.1 M 757.5 910.1 L 759.2 912.5 M 759.2 912.5 L 760.6 915 M 760.6 915 L 761.6 917.6 M 761.6 917.6 L 762.2 920.3 M 762.2 920.3 L 762.5 923.1 M 762.5 923.1 L 762.3 925.8 M 762.3 925.8 L 761.7 928.4 M 761.7 928.4 L 760.8 930.8 M 760.8 930.8 L 759.5 933.1 M 759.5 933.1 L 757.9 935.1 M 757.9 935.1 L 755.8 937 M 755.8 937 L 753.3 938.8 M 753.3 938.8 L 750.5 940.3 M 750.5 940.3 L 747.9 941.2 M 747.9 941.2 L 744.4 942.3 M 744.4 942.3 L 740.1 943.5 M 740.1 943.5 L 734.9 944.7 M 734.9 944.7 L 734.9 944.7 M 734.9 944.7 L 729.7 946 M 729.7 946 L 729.7 946 M 729.7 946 L 725.6 947.3 M 725.6 947.3 L 725.6 947.3 M 725.6 947.3 L 722.7 948.5 M 722.7 948.5 L 722.7 948.5 M 722.7 948.5 L 720.8 949.8 M 720.8 949.8 L 720.8 949.8 M 720.8 949.8 L 719.6 951.1 M 719.6 951.1 L 719.6 951.1 M 719.6 951.1 L 718.7 952.6 M 718.7 952.6 L 718.7 952.6 M 718.7 952.6 L 718.2 954.2 M 718.2 954.2 L 718.2 954.2 M 718.2 954.2 L 718.1 956 M 718.1 956 L 718.1 956 M 718.1 956 L 718.3 958.1 M 718.3 958.1 L 718.3 958.1 M 718.3 958.1 L 719 960.1 M 719 960.1 L 719 960.1 M 719 960.1 L 720.2 961.9 M 720.2 961.9 L 720.2 961.9 M 720.2 961.9 L 721.9 963.5 M 721.9 963.5 L 721.9 963.5 M 721.9 963.5 L 724.2 964.9 M 724.2 964.9 L 724.2 964.9 M 724.2 964.9 L 726.9 965.8 M 726.9 965.8 L 726.9 965.8 M 726.9 965.8 L 730.3 966.4 M 730.3 966.4 L 730.3 966.4 M 730.3 966.4 L 734.3 966.6 M 734.3 966.6 L 734.3 966.6 M 734.3 966.6 L 738.1 966.4 M 738.1 966.4 L 738.1 966.4 M 738.1 966.4 L 741.4 965.8 M 741.4 965.8 L 741.4 965.8 M 741.4 965.8 L 744.2 964.7 M 744.2 964.7 L 744.2 964.7 M 744.2 964.7 L 746.6 963.2 M 746.6 963.2 L 746.6 963.2 M 746.6 963.2 L 748.4 961.3 M 748.4 961.3 L 748.4 961.3 M 748.4 961.3 L 749.9 959 M 749.9 959 L 749.9 959 M 749.9 959 L 750.8 956.2 M 750.8 956.2 L 750.8 956.2 M 750.8 956.2 L 751.4 953.1 M 751.4 953.1 L 760.3 953.8 M 760.3 953.8 L 760 956.8 M 760 956.8 L 759.4 959.6 M 759.4 959.6 L 758.3 962.3 M 758.3 962.3 L 756.9 964.9 M 756.9 964.9 L 755.1 967.2 M 755.1 967.2 L 753 969.2 M 753 969.2 L 750.5 970.9 M 750.5 970.9 L 747.7 972.3 M 747.7 972.3 L 744.6 973.4 M 744.6 973.4 L 741.2 974.2 M 741.2 974.2 L 737.7 974.7 M 737.7 974.7 L 733.9 974.8 M 733.9 974.8 L 730.4 974.7 M 730.4 974.7 L 727.1 974.2 M 727.1 974.2 L 723.9 973.4 M 723.9 973.4 L 721 972.4 M 721 972.4 L 718.2 971.1 M 718.2 971.1 L 715.8 969.4 M 715.8 969.4 L 713.8 967.5 M 713.8 967.5 L 712.1 965.4 M 712.1 965.4 L 710.8 963 M 710.8 963 L 709.9 960.6 M 709.9 960.6 L 709.3 958 M 709.3 958 L 709.1 955.4 M 709.1 955.4 L 709.2 953.1 M 709.2 953.1 L 709.7 950.8 M 709.7 950.8 L 710.5 948.7 M 710.5 948.7 L 711.6 946.6 M 711.6 946.6 L 713 944.8 M 713 944.8 L 714.7 943.1 M 714.7 943.1 L 716.7 941.5 M 716.7 941.5 L 719.1 940.1 M 719.1 940.1 L 721.4 939 M 721.4 939 L 724.4 938 M 724.4 938 L 728.2 936.8 M 728.2 936.8 L 732.7 935.7 M 732.7 935.7 L 737.1 934.6 M 737.1 934.6 L 737.1 934.6 M 737.1 934.6 L 740.6 933.7 M 740.6 933.7 L 740.6 933.7 M 740.6 933.7 L 743.4 932.9 M 743.4 932.9 L 743.4 932.9 M 743.4 932.9 L 745.2 932.3 M 745.2 932.3 L 745.2 932.3 M 745.2 932.3 L 747.3 931.4 M 747.3 931.4 L 747.3 931.4 M 747.3 931.4 L 749 930.4 M 749 930.4 L 749 930.4 M 749 930.4 L 750.5 929.3 M 750.5 929.3 L 750.5 929.3 M 750.5 929.3 L 751.6 928.1 M 751.6 928.1 L 751.6 928.1 M 751.6 928.1 L 752.4 926.8 M 752.4 926.8 L 752.4 926.8 M 752.4 926.8 L 753 925.4 M 753 925.4 L 753 925.4 M 753 925.4 L 753.4 923.9 M 753.4 923.9 L 753.4 923.9 M 753.4 923.9 L 753.5 922.3 M 753.5 922.3 L 753.5 922.3 M 753.5 922.3 L 753.4 920.7 M 753.4 920.7 L 753.4 920.7 M 753.4 920.7 L 753 919.2 M 753 919.2 L 753 919.2 M 753 919.2 L 752.4 917.7 M 752.4 917.7 L 752.4 917.7 M 752.4 917.7 L 751.5 916.2 M 751.5 916.2 L 751.5 916.2 M 751.5 916.2 L 750.4 914.9 M 750.4 914.9 L 750.4 914.9 M 750.4 914.9 L 749 913.8 M 749 913.8 L 749 913.8 M 749 913.8 L 747.3 912.8 M 747.3 912.8 L 747.3 912.8 M 747.3 912.8 L 745.4 911.9 M 745.4 911.9 L 745.4 911.9 M 745.4 911.9 L 743.3 911.2 M 743.3 911.2 L 743.3 911.2 M 743.3 911.2 L 741 910.7 M 741 910.7 L 741 910.7 M 741 910.7 L 738.6 910.4 M 738.6 910.4 L 738.6 910.4 M 738.6 910.4 L 736 910.3 M 736 910.3 L 736 910.3 M 736 910.3 L 733.1 910.5 M 733.1 910.5 L 733.1 910.5 M 733.1 910.5 L 730.3 910.8 M 730.3 910.8 L 730.3 910.8 M 730.3 910.8 L 727.7 911.5 M 727.7 911.5 L 727.7 911.5 M 727.7 911.5 L 725.2 912.4 M 725.2 912.4 L 725.2 912.4 M 725.2 912.4 L 722.9 913.5 M 722.9 913.5 L 722.9 913.5 M 722.9 913.5 L 721 914.8 M 721 914.8 L 721 914.8 M 721 914.8 L 719.4 916.3 M 719.4 916.3 L 719.4 916.3 M 719.4 916.3 L 718.1 917.9 M 718.1 917.9 L 718.1 917.9 M 718.1 917.9 L 717 919.7 M 717 919.7 L 717 919.7 M 717 919.7 L 716.2 921.8 M 716.2 921.8 L 716.2 921.8 M 716.2 921.8 L 715.6 924 M 715.6 924 L 715.6 924 M 715.6 924 L 715.1 926.6 M 715.1 926.6 L 706.4 925.8 M 706.4 925.8 L 706.7 922.4 M 706.7 922.4 L 707.5 919.1 M 707.5 919.1 L 708.6 916 M 708.6 916 L 710.3 913.2 M 710.3 913.2 L 712.3 910.5 M 712.3 910.5 L 714.6 908.2 M 714.6 908.2 L 717.3 906.4 M 717.3 906.4 L 720.4 904.8 M 720.4 904.8 L 723.8 903.6 M 723.8 903.6 L 727.6 902.7 M 727.6 902.7 L 731.8 902.1 M 731.8 902.1 L 736.4 902 M 736.4 902 L 740.1 902.1 M 830.6 973.6 L 830.6 973.6 M 830.6 973.6 L 821.7 973.6 M 821.7 973.6 L 821.7 918.3 M 821.7 918.3 L 821.7 918.3 M 821.7 918.3 L 784.7 973.6 M 784.7 973.6 L 775.1 973.6 M 775.1 973.6 L 775.1 903.2 M 775.1 903.2 L 784 903.2 M 784 903.2 L 784 958.6 M 784 958.6 L 784 958.6 M 784 958.6 L 821 903.2 M 821 903.2 L 830.6 903.2 M 830.6 903.2 L 830.6 973.6 M 857.2 973.6 L 857.2 973.6 M 857.2 973.6 L 847.9 973.6 M 847.9 973.6 L 847.9 903.2 M 847.9 903.2 L 857.2 903.2 M 857.2 903.2 L 857.2 973.6 M 883.4 935.2 L 883.4 935.2 M 883.4 935.2 L 883.4 935.2 M 883.4 935.2 L 916.5 935.2 M 916.5 935.2 L 916.5 943.5 M 916.5 943.5 L 883.4 943.5 M 883.4 943.5 L 883.4 943.5 M 883.4 943.5 L 883.4 965.3 M 883.4 965.3 L 883.4 965.3 M 883.4 965.3 L 921.6 965.3 M 921.6 965.3 L 921.6 973.6 M 921.6 973.6 L 874.1 973.6 M 874.1 973.6 L 874.1 903.2 M 874.1 903.2 L 883.4 903.2 M 883.4 903.2 L 883.4 935.2 M 943.5 935.2 L 943.5 935.2 M 943.5 935.2 L 943.5 935.2 M 943.5 935.2 L 976.6 935.2 M 976.6 935.2 L 976.6 943.5 M 976.6 943.5 L 943.5 943.5 M 943.5 943.5 L 943.5 943.5 M 943.5 943.5 L 943.5 965.3 M 943.5 965.3 L 943.5 965.3 M 943.5 965.3 L 981.8 965.3 M 981.8 965.3 L 981.8 973.6 M 981.8 973.6 L 934.2 973.6 M 934.2 973.6 L 934.2 903.2 M 934.2 903.2 L 943.5 903.2 M 943.5 903.2 L 943.5 935.2 M 1016 933 L 1016 933 M 1016 933 L 989.4 933 M 989.4 933 L 989.4 924.4 M 989.4 924.4 L 1016 924.4 M 1016 924.4 L 1016 933 M 1056.4 903.2 L 1056.4 903.2 M 1056.4 903.2 L 1059.3 903.5 M 1059.3 903.5 L 1062 903.8 M 1062 903.8 L 1064.5 904.4 M 1064.5 904.4 L 1066.7 905 M 1066.7 905 L 1068.7 905.8 M 1068.7 905.8 L 1070.6 906.8 M 1070.6 906.8 L 1072.2 907.9 M 1072.2 907.9 L 1073.7 909.1 M 1073.7 909.1 L 1075 910.6 M 1075 910.6 L 1076.2 912.4 M 1076.2 912.4 L 1077.3 914.4 M 1077.3 914.4 L 1078.2 916.6 M 1078.2 916.6 L 1078.9 918.8 M 1078.9 918.8 L 1079.3 921.2 M 1079.3 921.2 L 1079.4 923.6 M 1079.4 923.6 L 1079.2 926.6 M 1079.2 926.6 L 1078.6 929.4 M 1078.6 929.4 L 1077.5 931.9 M 1077.5 931.9 L 1076 934.2 M 1076 934.2 L 1074.1 936.4 M 1074.1 936.4 L 1071.8 938.1 M 1071.8 938.1 L 1069.2 939.5 M 1069.2 939.5 L 1066.2 940.6 M 1066.2 940.6 L 1066.2 940.6 M 1066.2 940.6 L 1068.5 942 M 1068.5 942 L 1070.5 943.5 M 1070.5 943.5 L 1072.2 945.2 M 1072.2 945.2 L 1073.6 947.1 M 1073.6 947.1 L 1074.7 949.1 M 1074.7 949.1 L 1075.4 951.2 M 1075.4 951.2 L 1075.9 953.4 M 1075.9 953.4 L 1076 955.6 M 1076 955.6 L 1075.8 958 M 1075.8 958 L 1075.3 960.3 M 1075.3 960.3 L 1074.5 962.7 M 1074.5 962.7 L 1073.2 964.9 M 1073.2 964.9 L 1071.8 966.9 M 1071.8 966.9 L 1070 968.8 M 1070 968.8 L 1067.9 970.3 M 1067.9 970.3 L 1065.6 971.5 M 1065.6 971.5 L 1063 972.4 M 1063 972.4 L 1059.9 973.1 M 1059.9 973.1 L 1056.5 973.5 M 1056.5 973.5 L 1052.7 973.6 M 1052.7 973.6 L 1026.3 973.6 M 1026.3 973.6 L 1026.3 903.2 M 1026.3 903.2 L 1053.1 903.2 M 1053.1 903.2 L 1056.4 903.2 M 1035.6 944 L 1035.6 944 M 1035.6 944 L 1050.8 944 M 1050.8 944 L 1053.7 944.1 M 1053.7 944.1 L 1056.1 944.2 M 1056.1 944.2 L 1058.1 944.5 M 1058.1 944.5 L 1059.7 944.8 M 1059.7 944.8 L 1061.4 945.5 M 1061.4 945.5 L 1062.8 946.2 M 1062.8 946.2 L 1064 947.2 M 1064 947.2 L 1065.1 948.3 M 1065.1 948.3 L 1065.8 949.7 M 1065.8 949.7 L 1066.4 951.1 M 1066.4 951.1 L 1066.8 952.7 M 1066.8 952.7 L 1066.9 954.5 M 1066.9 954.5 L 1066.8 956.2 M 1066.8 956.2 L 1066.4 957.8 M 1066.4 957.8 L 1065.9 959.3 M 1065.9 959.3 L 1065.2 960.7 M 1065.2 960.7 L 1064.3 961.9 M 1064.3 961.9 L 1063.1 962.9 M 1063.1 962.9 L 1061.8 963.7 M 1061.8 963.7 L 1060.4 964.3 M 1060.4 964.3 L 1058.5 964.7 M 1058.5 964.7 L 1056.1 965.1 M 1056.1 965.1 L 1053.2 965.3 M 1053.2 965.3 L 1049.7 965.3 M 1049.7 965.3 L 1035.6 965.3 M 1035.6 965.3 L 1035.6 944 M 1035.6 911.5 L 1035.6 911.5 M 1035.6 911.5 L 1053.1 911.5 M 1053.1 911.5 L 1055.2 911.5 M 1055.2 911.5 L 1056.9 911.6 M 1056.9 911.6 L 1058.4 911.7 M 1058.4 911.7 L 1059.5 911.8 M 1059.5 911.8 L 1061 912.1 M 1061 912.1 L 1062.4 912.6 M 1062.4 912.6 L 1063.7 913.1 M 1063.7 913.1 L 1064.9 913.8 M 1064.9 913.8 L 1065.9 914.5 M 1065.9 914.5 L 1066.8 915.4 M 1066.8 915.4 L 1067.7 916.4 M 1067.7 916.4 L 1068.4 917.7 M 1068.4 917.7 L 1069 919 M 1069 919 L 1069.4 920.4 M 1069.4 920.4 L 1069.7 921.9 M 1069.7 921.9 L 1069.8 923.6 M 1069.8 923.6 L 1069.7 925.5 M 1069.7 925.5 L 1069.3 927.3 M 1069.3 927.3 L 1068.7 928.9 M 1068.7 928.9 L 1067.8 930.5 M 1067.8 930.5 L 1066.7 931.8 M 1066.7 931.8 L 1065.4 932.9 M 1065.4 932.9 L 1063.9 933.8 M 1063.9 933.8 L 1062.2 934.5 M 1062.2 934.5 L 1060.2 935.1 M 1060.2 935.1 L 1057.8 935.4 M 1057.8 935.4 L 1055 935.6 M 1055 935.6 L 1051.9 935.7 M 1051.9 935.7 L 1035.6 935.7 M 1035.6 935.7 L 1035.6 911.5"/></g></g><use class="pcb_board-cf" mask="url(#pcb_top-cu_finish-mask)" xlink:href="#pcb_top-sm"/></g></g></svg>