%FSLAX33Y33*%
%MOMM*%
%LNbottom silkscreen_traces*%
%LNtext*%
G36*
G01*
X19790Y17000D02*
X19790Y17909D01*
X19177Y17909D01*
X19177Y17802D01*
X19670Y17802D01*
X19670Y17520D01*
X19243Y17520D01*
X19243Y17413D01*
X19670Y17413D01*
X19670Y17000D01*
X19790Y17000D01*
X19790Y17000D01*
X18789Y17000D02*
X18789Y17802D01*
X19089Y17802D01*
X19089Y17909D01*
X18368Y17909D01*
X18368Y17802D01*
X18669Y17802D01*
X18669Y17000D01*
X18789Y17000D01*
X18789Y17000D01*
X18245Y17000D02*
X18245Y17909D01*
X17934Y17909D01*
X17934Y17802D01*
X18125Y17802D01*
X18125Y17107D01*
X18125Y17107D01*
X17931Y17107D01*
X17888Y17108D01*
X17850Y17111D01*
X17818Y17117D01*
X17790Y17124D01*
X17765Y17133D01*
X17744Y17144D01*
X17725Y17157D01*
X17708Y17171D01*
X17688Y17194D01*
X17670Y17221D01*
X17654Y17252D01*
X17641Y17286D01*
X17631Y17324D01*
X17623Y17366D01*
X17619Y17412D01*
X17617Y17461D01*
X17620Y17529D01*
X17629Y17587D01*
X17644Y17638D01*
X17664Y17681D01*
X17689Y17716D01*
X17716Y17745D01*
X17746Y17767D01*
X17778Y17783D01*
X17806Y17791D01*
X17841Y17797D01*
X17884Y17801D01*
X17934Y17802D01*
X17934Y17909D01*
X17932Y17909D01*
X17882Y17908D01*
X17838Y17906D01*
X17801Y17902D01*
X17770Y17896D01*
X17732Y17885D01*
X17698Y17871D01*
X17666Y17853D01*
X17637Y17831D01*
X17603Y17798D01*
X17574Y17762D01*
X17549Y17721D01*
X17529Y17676D01*
X17514Y17627D01*
X17502Y17574D01*
X17496Y17519D01*
X17493Y17460D01*
X17495Y17409D01*
X17500Y17362D01*
X17507Y17317D01*
X17518Y17276D01*
X17531Y17238D01*
X17545Y17203D01*
X17562Y17171D01*
X17580Y17144D01*
X17599Y17119D01*
X17619Y17097D01*
X17640Y17078D01*
X17662Y17061D01*
X17686Y17047D01*
X17712Y17035D01*
X17740Y17024D01*
X17771Y17016D01*
X17804Y17009D01*
X17839Y17004D01*
X17877Y17001D01*
X17917Y17000D01*
X18245Y17000D01*
X18245Y17000D01*
X17307Y17000D02*
X17307Y17909D01*
X17187Y17909D01*
X17187Y17000D01*
X17307Y17000D01*
X17307Y17000D01*
X16636Y17000D02*
X16636Y17909D01*
X16525Y17909D01*
X16525Y17583D01*
X16483Y17623D01*
X16436Y17651D01*
X16385Y17668D01*
X16328Y17673D01*
X16292Y17672D01*
X16259Y17666D01*
X16229Y17657D01*
X16201Y17645D01*
X16175Y17629D01*
X16154Y17610D01*
X16137Y17589D01*
X16123Y17565D01*
X16113Y17537D01*
X16106Y17503D01*
X16102Y17463D01*
X16100Y17417D01*
X16100Y17000D01*
X16212Y17000D01*
X16212Y17417D01*
X16214Y17456D01*
X16221Y17490D01*
X16232Y17517D01*
X16248Y17539D01*
X16268Y17556D01*
X16292Y17568D01*
X16319Y17575D01*
X16351Y17577D01*
X16375Y17576D01*
X16399Y17571D01*
X16422Y17563D01*
X16444Y17552D01*
X16464Y17538D01*
X16481Y17521D01*
X16495Y17503D01*
X16506Y17482D01*
X16514Y17458D01*
X16520Y17429D01*
X16524Y17397D01*
X16525Y17360D01*
X16525Y17000D01*
X16636Y17000D01*
X16636Y17000D01*
X15479Y17212D02*
X15364Y17198D01*
X15381Y17150D01*
X15403Y17108D01*
X15431Y17072D01*
X15465Y17041D01*
X15505Y17017D01*
X15549Y16999D01*
X15599Y16989D01*
X15654Y16985D01*
X15722Y16991D01*
X15783Y17007D01*
X15837Y17035D01*
X15883Y17074D01*
X15920Y17123D01*
X15946Y17181D01*
X15962Y17248D01*
X15967Y17324D01*
X15962Y17402D01*
X15946Y17471D01*
X15919Y17531D01*
X15882Y17582D01*
X15836Y17622D01*
X15784Y17651D01*
X15725Y17668D01*
X15660Y17673D01*
X15650Y17673D01*
X15659Y17582D01*
X15695Y17578D01*
X15729Y17569D01*
X15760Y17553D01*
X15788Y17530D01*
X15811Y17502D01*
X15829Y17470D01*
X15840Y17433D01*
X15846Y17393D01*
X15846Y17393D01*
X15478Y17393D01*
X15484Y17431D01*
X15492Y17465D01*
X15505Y17494D01*
X15520Y17517D01*
X15549Y17545D01*
X15581Y17566D01*
X15618Y17578D01*
X15659Y17582D01*
X15650Y17673D01*
X15597Y17668D01*
X15540Y17651D01*
X15489Y17623D01*
X15444Y17584D01*
X15407Y17534D01*
X15381Y17475D01*
X15366Y17407D01*
X15360Y17331D01*
X15360Y17325D01*
X15360Y17318D01*
X15361Y17310D01*
X15361Y17301D01*
X15852Y17301D01*
X15846Y17250D01*
X15834Y17205D01*
X15815Y17167D01*
X15791Y17135D01*
X15761Y17109D01*
X15729Y17091D01*
X15692Y17080D01*
X15653Y17077D01*
X15623Y17079D01*
X15596Y17085D01*
X15571Y17095D01*
X15548Y17109D01*
X15528Y17128D01*
X15509Y17151D01*
X15493Y17179D01*
X15479Y17212D01*
X15479Y17212D01*
X14794Y17081D02*
X14825Y17057D01*
X14829Y17054D01*
X14872Y17116D01*
X14852Y17134D01*
X14835Y17155D01*
X14821Y17178D01*
X14814Y17199D01*
X14808Y17225D01*
X14805Y17255D01*
X14803Y17290D01*
X14803Y17331D01*
X14803Y17331D01*
X14838Y17319D01*
X14879Y17308D01*
X14929Y17298D01*
X14986Y17288D01*
X15018Y17283D01*
X15044Y17278D01*
X15066Y17272D01*
X15083Y17266D01*
X15097Y17259D01*
X15108Y17251D01*
X15119Y17241D01*
X15127Y17230D01*
X15134Y17217D01*
X15139Y17205D01*
X15142Y17191D01*
X15143Y17177D01*
X15140Y17155D01*
X15134Y17136D01*
X15124Y17118D01*
X15109Y17102D01*
X15090Y17089D01*
X15067Y17080D01*
X15040Y17074D01*
X15010Y17073D01*
X14979Y17074D01*
X14949Y17080D01*
X14921Y17088D01*
X14895Y17101D01*
X14872Y17116D01*
X14829Y17054D01*
X14855Y17036D01*
X14884Y17020D01*
X14913Y17007D01*
X14943Y16997D01*
X14973Y16991D01*
X15004Y16986D01*
X15037Y16985D01*
X15088Y16988D01*
X15133Y16998D01*
X15171Y17015D01*
X15203Y17038D01*
X15229Y17066D01*
X15247Y17099D01*
X15258Y17134D01*
X15262Y17174D01*
X15260Y17197D01*
X15256Y17220D01*
X15249Y17241D01*
X15240Y17262D01*
X15228Y17281D01*
X15214Y17298D01*
X15199Y17313D01*
X15182Y17326D01*
X15164Y17338D01*
X15144Y17347D01*
X15123Y17356D01*
X15102Y17363D01*
X15083Y17367D01*
X15060Y17371D01*
X15034Y17375D01*
X15002Y17380D01*
X14939Y17388D01*
X14885Y17397D01*
X14840Y17407D01*
X14803Y17418D01*
X14803Y17428D01*
X14803Y17437D01*
X14803Y17443D01*
X14803Y17447D01*
X14805Y17479D01*
X14811Y17505D01*
X14821Y17527D01*
X14834Y17543D01*
X14858Y17560D01*
X14888Y17572D01*
X14922Y17579D01*
X14962Y17581D01*
X14998Y17579D01*
X15030Y17574D01*
X15056Y17566D01*
X15078Y17553D01*
X15095Y17537D01*
X15110Y17515D01*
X15123Y17488D01*
X15133Y17456D01*
X15242Y17471D01*
X15234Y17504D01*
X15223Y17534D01*
X15209Y17561D01*
X15193Y17584D01*
X15174Y17604D01*
X15152Y17622D01*
X15125Y17637D01*
X15095Y17650D01*
X15061Y17660D01*
X15025Y17668D01*
X14987Y17672D01*
X14945Y17673D01*
X14905Y17672D01*
X14869Y17668D01*
X14837Y17662D01*
X14808Y17654D01*
X14784Y17643D01*
X14763Y17631D01*
X14745Y17618D01*
X14731Y17604D01*
X14719Y17588D01*
X14710Y17570D01*
X14702Y17550D01*
X14696Y17528D01*
X14694Y17511D01*
X14692Y17488D01*
X14691Y17459D01*
X14691Y17425D01*
X14691Y17276D01*
X14690Y17205D01*
X14689Y17149D01*
X14687Y17107D01*
X14683Y17079D01*
X14679Y17059D01*
X14673Y17039D01*
X14665Y17019D01*
X14655Y17000D01*
X14772Y17000D01*
X14780Y17018D01*
X14786Y17038D01*
X14791Y17059D01*
X14794Y17081D01*
X14794Y17081D01*
X14090Y17000D02*
X14090Y17083D01*
X14141Y17135D01*
X14140Y17137D01*
X14117Y17171D01*
X14101Y17212D01*
X14092Y17262D01*
X14088Y17319D01*
X14092Y17382D01*
X14101Y17437D01*
X14118Y17482D01*
X14140Y17518D01*
X14168Y17545D01*
X14199Y17565D01*
X14232Y17577D01*
X14269Y17581D01*
X14305Y17577D01*
X14337Y17566D01*
X14367Y17547D01*
X14393Y17520D01*
X14415Y17486D01*
X14431Y17442D01*
X14440Y17390D01*
X14443Y17329D01*
X14443Y17329D01*
X14440Y17269D01*
X14430Y17218D01*
X14413Y17175D01*
X14390Y17140D01*
X14362Y17112D01*
X14332Y17093D01*
X14299Y17081D01*
X14264Y17077D01*
X14229Y17081D01*
X14196Y17092D01*
X14167Y17111D01*
X14141Y17135D01*
X14090Y17083D01*
X14125Y17040D01*
X14168Y17010D01*
X14217Y16991D01*
X14274Y16985D01*
X14313Y16988D01*
X14350Y16996D01*
X14385Y17010D01*
X14419Y17029D01*
X14450Y17052D01*
X14478Y17081D01*
X14502Y17113D01*
X14522Y17150D01*
X14537Y17190D01*
X14549Y17233D01*
X14556Y17280D01*
X14558Y17329D01*
X14556Y17377D01*
X14550Y17423D01*
X14539Y17466D01*
X14525Y17508D01*
X14506Y17545D01*
X14484Y17578D01*
X14457Y17607D01*
X14426Y17631D01*
X14393Y17649D01*
X14357Y17663D01*
X14319Y17671D01*
X14279Y17673D01*
X14250Y17672D01*
X14223Y17667D01*
X14197Y17659D01*
X14173Y17648D01*
X14151Y17635D01*
X14131Y17619D01*
X14113Y17602D01*
X14098Y17583D01*
X14098Y17909D01*
X13987Y17909D01*
X13987Y17000D01*
X14090Y17000D01*
X14090Y17000D01*
X13360Y17212D02*
X13245Y17198D01*
X13262Y17150D01*
X13284Y17108D01*
X13312Y17072D01*
X13346Y17041D01*
X13386Y17017D01*
X13430Y16999D01*
X13480Y16989D01*
X13535Y16985D01*
X13603Y16991D01*
X13664Y17007D01*
X13718Y17035D01*
X13764Y17074D01*
X13801Y17123D01*
X13827Y17181D01*
X13843Y17248D01*
X13848Y17324D01*
X13843Y17402D01*
X13827Y17471D01*
X13800Y17531D01*
X13763Y17582D01*
X13717Y17622D01*
X13665Y17651D01*
X13606Y17668D01*
X13541Y17673D01*
X13531Y17673D01*
X13540Y17582D01*
X13576Y17578D01*
X13610Y17569D01*
X13641Y17553D01*
X13669Y17530D01*
X13692Y17502D01*
X13710Y17470D01*
X13721Y17433D01*
X13727Y17393D01*
X13727Y17393D01*
X13359Y17393D01*
X13365Y17431D01*
X13373Y17465D01*
X13386Y17494D01*
X13401Y17517D01*
X13430Y17545D01*
X13463Y17566D01*
X13499Y17578D01*
X13540Y17582D01*
X13531Y17673D01*
X13478Y17668D01*
X13421Y17651D01*
X13370Y17623D01*
X13325Y17584D01*
X13288Y17534D01*
X13262Y17475D01*
X13247Y17407D01*
X13241Y17331D01*
X13241Y17325D01*
X13241Y17318D01*
X13242Y17310D01*
X13242Y17301D01*
X13733Y17301D01*
X13727Y17250D01*
X13715Y17205D01*
X13696Y17167D01*
X13672Y17135D01*
X13642Y17109D01*
X13610Y17091D01*
X13574Y17080D01*
X13534Y17077D01*
X13504Y17079D01*
X13477Y17085D01*
X13452Y17095D01*
X13429Y17109D01*
X13409Y17128D01*
X13390Y17151D01*
X13374Y17179D01*
X13360Y17212D01*
X13360Y17212D01*
X13106Y17000D02*
X13106Y17659D01*
X13006Y17659D01*
X13006Y17559D01*
X12987Y17591D01*
X12969Y17617D01*
X12951Y17637D01*
X12935Y17651D01*
X12918Y17661D01*
X12900Y17668D01*
X12882Y17672D01*
X12863Y17673D01*
X12835Y17671D01*
X12806Y17664D01*
X12777Y17653D01*
X12748Y17637D01*
X12787Y17534D01*
X12807Y17545D01*
X12828Y17552D01*
X12848Y17557D01*
X12869Y17558D01*
X12886Y17557D01*
X12903Y17553D01*
X12919Y17546D01*
X12934Y17536D01*
X12948Y17524D01*
X12959Y17510D01*
X12969Y17493D01*
X12976Y17475D01*
X12984Y17445D01*
X12990Y17413D01*
X12993Y17379D01*
X12994Y17345D01*
X12994Y17000D01*
X13106Y17000D01*
X13106Y17000D01*
X11899Y17081D02*
X11930Y17057D01*
X11935Y17054D01*
X11977Y17116D01*
X11957Y17134D01*
X11940Y17155D01*
X11927Y17178D01*
X11919Y17199D01*
X11913Y17225D01*
X11910Y17255D01*
X11909Y17290D01*
X11909Y17331D01*
X11909Y17331D01*
X11943Y17319D01*
X11985Y17308D01*
X12034Y17298D01*
X12091Y17288D01*
X12123Y17283D01*
X12150Y17278D01*
X12172Y17272D01*
X12188Y17266D01*
X12202Y17259D01*
X12214Y17251D01*
X12224Y17241D01*
X12232Y17230D01*
X12239Y17217D01*
X12244Y17205D01*
X12247Y17191D01*
X12248Y17177D01*
X12246Y17155D01*
X12239Y17136D01*
X12229Y17118D01*
X12214Y17102D01*
X12195Y17089D01*
X12172Y17080D01*
X12146Y17074D01*
X12115Y17073D01*
X12084Y17074D01*
X12054Y17080D01*
X12026Y17088D01*
X12000Y17101D01*
X11977Y17116D01*
X11935Y17054D01*
X11960Y17036D01*
X11990Y17020D01*
X12019Y17007D01*
X12048Y16997D01*
X12078Y16991D01*
X12110Y16986D01*
X12142Y16985D01*
X12193Y16988D01*
X12238Y16998D01*
X12276Y17015D01*
X12309Y17038D01*
X12334Y17066D01*
X12352Y17099D01*
X12363Y17134D01*
X12367Y17174D01*
X12366Y17197D01*
X12361Y17220D01*
X12355Y17241D01*
X12345Y17262D01*
X12333Y17281D01*
X12320Y17298D01*
X12304Y17313D01*
X12287Y17326D01*
X12269Y17338D01*
X12249Y17347D01*
X12229Y17356D01*
X12207Y17363D01*
X12188Y17367D01*
X12166Y17371D01*
X12139Y17375D01*
X12108Y17380D01*
X12045Y17388D01*
X11990Y17397D01*
X11945Y17407D01*
X11909Y17418D01*
X11908Y17428D01*
X11908Y17437D01*
X11908Y17443D01*
X11908Y17447D01*
X11910Y17479D01*
X11916Y17505D01*
X11926Y17527D01*
X11940Y17543D01*
X11964Y17560D01*
X11993Y17572D01*
X12027Y17579D01*
X12067Y17581D01*
X12104Y17579D01*
X12135Y17574D01*
X12162Y17566D01*
X12183Y17553D01*
X12201Y17537D01*
X12216Y17515D01*
X12228Y17488D01*
X12239Y17456D01*
X12348Y17471D01*
X12339Y17504D01*
X12328Y17534D01*
X12315Y17561D01*
X12299Y17584D01*
X12280Y17604D01*
X12257Y17622D01*
X12230Y17637D01*
X12200Y17650D01*
X12167Y17660D01*
X12131Y17668D01*
X12092Y17672D01*
X12051Y17673D01*
X12011Y17672D01*
X11974Y17668D01*
X11942Y17662D01*
X11914Y17654D01*
X11889Y17643D01*
X11868Y17631D01*
X11850Y17618D01*
X11836Y17604D01*
X11825Y17588D01*
X11815Y17570D01*
X11807Y17550D01*
X11801Y17528D01*
X11799Y17511D01*
X11797Y17488D01*
X11796Y17459D01*
X11796Y17425D01*
X11796Y17276D01*
X11795Y17205D01*
X11794Y17149D01*
X11792Y17107D01*
X11789Y17079D01*
X11784Y17059D01*
X11778Y17039D01*
X11770Y17019D01*
X11760Y17000D01*
X11877Y17000D01*
X11885Y17018D01*
X11891Y17038D01*
X11896Y17059D01*
X11899Y17081D01*
X11899Y17081D01*
X11196Y17000D02*
X11196Y17083D01*
X11246Y17135D01*
X11245Y17137D01*
X11222Y17171D01*
X11206Y17212D01*
X11197Y17262D01*
X11194Y17319D01*
X11197Y17382D01*
X11207Y17437D01*
X11223Y17482D01*
X11246Y17518D01*
X11273Y17545D01*
X11304Y17565D01*
X11338Y17577D01*
X11374Y17581D01*
X11410Y17577D01*
X11442Y17566D01*
X11472Y17547D01*
X11498Y17520D01*
X11520Y17486D01*
X11536Y17442D01*
X11545Y17390D01*
X11548Y17329D01*
X11548Y17329D01*
X11545Y17269D01*
X11535Y17218D01*
X11518Y17175D01*
X11495Y17140D01*
X11467Y17112D01*
X11437Y17093D01*
X11404Y17081D01*
X11369Y17077D01*
X11334Y17081D01*
X11302Y17092D01*
X11272Y17111D01*
X11246Y17135D01*
X11196Y17083D01*
X11231Y17040D01*
X11273Y17010D01*
X11323Y16991D01*
X11380Y16985D01*
X11418Y16988D01*
X11455Y16996D01*
X11491Y17010D01*
X11525Y17029D01*
X11556Y17052D01*
X11583Y17081D01*
X11607Y17113D01*
X11627Y17150D01*
X11643Y17190D01*
X11654Y17233D01*
X11661Y17280D01*
X11663Y17329D01*
X11661Y17377D01*
X11655Y17423D01*
X11645Y17466D01*
X11630Y17508D01*
X11612Y17545D01*
X11589Y17578D01*
X11562Y17607D01*
X11532Y17631D01*
X11498Y17649D01*
X11462Y17663D01*
X11424Y17671D01*
X11385Y17673D01*
X11356Y17672D01*
X11328Y17667D01*
X11303Y17659D01*
X11279Y17648D01*
X11256Y17635D01*
X11236Y17619D01*
X11219Y17602D01*
X11203Y17583D01*
X11203Y17909D01*
X11092Y17909D01*
X11092Y17000D01*
X11196Y17000D01*
X11196Y17000D01*
X10487Y17081D02*
X10517Y17057D01*
X10522Y17054D01*
X10564Y17116D01*
X10544Y17134D01*
X10527Y17155D01*
X10514Y17178D01*
X10506Y17199D01*
X10501Y17225D01*
X10497Y17255D01*
X10496Y17290D01*
X10496Y17331D01*
X10496Y17331D01*
X10530Y17319D01*
X10572Y17308D01*
X10621Y17298D01*
X10678Y17288D01*
X10710Y17283D01*
X10737Y17278D01*
X10759Y17272D01*
X10776Y17266D01*
X10789Y17259D01*
X10801Y17251D01*
X10811Y17241D01*
X10820Y17230D01*
X10827Y17217D01*
X10831Y17205D01*
X10834Y17191D01*
X10835Y17177D01*
X10833Y17155D01*
X10827Y17136D01*
X10816Y17118D01*
X10801Y17102D01*
X10783Y17089D01*
X10760Y17080D01*
X10733Y17074D01*
X10703Y17073D01*
X10671Y17074D01*
X10642Y17080D01*
X10614Y17088D01*
X10588Y17101D01*
X10564Y17116D01*
X10522Y17054D01*
X10548Y17036D01*
X10577Y17020D01*
X10606Y17007D01*
X10635Y16997D01*
X10666Y16991D01*
X10697Y16986D01*
X10729Y16985D01*
X10780Y16988D01*
X10825Y16998D01*
X10864Y17015D01*
X10896Y17038D01*
X10922Y17066D01*
X10940Y17099D01*
X10951Y17134D01*
X10954Y17174D01*
X10953Y17197D01*
X10949Y17220D01*
X10942Y17241D01*
X10932Y17262D01*
X10920Y17281D01*
X10907Y17298D01*
X10892Y17313D01*
X10875Y17326D01*
X10856Y17338D01*
X10837Y17347D01*
X10816Y17356D01*
X10794Y17363D01*
X10776Y17367D01*
X10753Y17371D01*
X10726Y17375D01*
X10695Y17380D01*
X10632Y17388D01*
X10578Y17397D01*
X10532Y17407D01*
X10496Y17418D01*
X10496Y17428D01*
X10496Y17437D01*
X10495Y17443D01*
X10495Y17447D01*
X10497Y17479D01*
X10503Y17505D01*
X10513Y17527D01*
X10527Y17543D01*
X10551Y17560D01*
X10580Y17572D01*
X10615Y17579D01*
X10654Y17581D01*
X10691Y17579D01*
X10723Y17574D01*
X10749Y17566D01*
X10770Y17553D01*
X10788Y17537D01*
X10803Y17515D01*
X10816Y17488D01*
X10826Y17456D01*
X10935Y17471D01*
X10926Y17504D01*
X10915Y17534D01*
X10902Y17561D01*
X10886Y17584D01*
X10867Y17604D01*
X10844Y17622D01*
X10818Y17637D01*
X10787Y17650D01*
X10754Y17660D01*
X10718Y17668D01*
X10679Y17672D01*
X10638Y17673D01*
X10598Y17672D01*
X10562Y17668D01*
X10529Y17662D01*
X10501Y17654D01*
X10476Y17643D01*
X10455Y17631D01*
X10438Y17618D01*
X10423Y17604D01*
X10412Y17588D01*
X10402Y17570D01*
X10395Y17550D01*
X10389Y17528D01*
X10386Y17511D01*
X10385Y17488D01*
X10384Y17459D01*
X10383Y17425D01*
X10383Y17276D01*
X10383Y17205D01*
X10381Y17149D01*
X10379Y17107D01*
X10376Y17079D01*
X10372Y17059D01*
X10365Y17039D01*
X10358Y17019D01*
X10348Y17000D01*
X10464Y17000D01*
X10472Y17018D01*
X10479Y17038D01*
X10483Y17059D01*
X10487Y17081D01*
X10487Y17081D01*
X10210Y16748D02*
X10210Y17659D01*
X10108Y17659D01*
X10108Y17573D01*
X10054Y17520D01*
X10054Y17519D01*
X10078Y17482D01*
X10095Y17438D01*
X10106Y17385D01*
X10109Y17326D01*
X10109Y17326D01*
X10106Y17266D01*
X10096Y17215D01*
X10080Y17172D01*
X10058Y17138D01*
X10031Y17111D01*
X10001Y17092D01*
X9968Y17081D01*
X9933Y17077D01*
X9897Y17081D01*
X9864Y17093D01*
X9833Y17112D01*
X9806Y17140D01*
X9782Y17176D01*
X9766Y17220D01*
X9756Y17273D01*
X9753Y17335D01*
X9756Y17394D01*
X9765Y17445D01*
X9782Y17488D01*
X9804Y17523D01*
X9831Y17551D01*
X9861Y17570D01*
X9893Y17582D01*
X9928Y17586D01*
X9963Y17582D01*
X9995Y17569D01*
X10026Y17549D01*
X10054Y17520D01*
X10108Y17573D01*
X10090Y17597D01*
X10070Y17617D01*
X10049Y17634D01*
X10027Y17648D01*
X10003Y17659D01*
X9977Y17667D01*
X9949Y17672D01*
X9917Y17673D01*
X9877Y17671D01*
X9838Y17663D01*
X9802Y17649D01*
X9769Y17630D01*
X9738Y17606D01*
X9712Y17578D01*
X9690Y17545D01*
X9671Y17508D01*
X9657Y17467D01*
X9647Y17425D01*
X9640Y17380D01*
X9638Y17334D01*
X9641Y17285D01*
X9647Y17238D01*
X9659Y17194D01*
X9675Y17152D01*
X9695Y17114D01*
X9719Y17081D01*
X9748Y17052D01*
X9780Y17028D01*
X9815Y17009D01*
X9851Y16996D01*
X9888Y16988D01*
X9926Y16985D01*
X9953Y16987D01*
X9978Y16991D01*
X10003Y16998D01*
X10026Y17009D01*
X10047Y17021D01*
X10066Y17035D01*
X10083Y17051D01*
X10099Y17068D01*
X10099Y16748D01*
X10210Y16748D01*
X10210Y16748D01*
X9260Y17100D02*
X9244Y17001D01*
X9267Y16997D01*
X9289Y16994D01*
X9309Y16992D01*
X9328Y16991D01*
X9357Y16993D01*
X9382Y16996D01*
X9404Y17002D01*
X9423Y17011D01*
X9438Y17021D01*
X9451Y17033D01*
X9462Y17046D01*
X9470Y17061D01*
X9476Y17081D01*
X9480Y17110D01*
X9483Y17147D01*
X9483Y17193D01*
X9483Y17572D01*
X9565Y17572D01*
X9565Y17659D01*
X9483Y17659D01*
X9483Y17822D01*
X9372Y17889D01*
X9372Y17659D01*
X9260Y17659D01*
X9260Y17572D01*
X9372Y17572D01*
X9372Y17187D01*
X9372Y17165D01*
X9371Y17147D01*
X9369Y17134D01*
X9366Y17125D01*
X9363Y17119D01*
X9359Y17113D01*
X9353Y17108D01*
X9347Y17104D01*
X9340Y17100D01*
X9331Y17098D01*
X9321Y17096D01*
X9309Y17095D01*
X9299Y17096D01*
X9288Y17097D01*
X9275Y17098D01*
X9260Y17100D01*
X9260Y17100D01*
X9193Y17329D02*
X9186Y17415D01*
X9167Y17488D01*
X9135Y17550D01*
X9091Y17600D01*
X9046Y17632D01*
X8997Y17655D01*
X8942Y17669D01*
X8884Y17673D01*
X8819Y17668D01*
X8760Y17651D01*
X8708Y17623D01*
X8662Y17584D01*
X8624Y17536D01*
X8597Y17478D01*
X8581Y17413D01*
X8576Y17339D01*
X8578Y17278D01*
X8585Y17225D01*
X8597Y17178D01*
X8614Y17139D01*
X8635Y17104D01*
X8660Y17074D01*
X8690Y17048D01*
X8725Y17025D01*
X8762Y17008D01*
X8801Y16995D01*
X8841Y16988D01*
X8884Y16985D01*
X8891Y16986D01*
X8884Y17077D01*
X8844Y17081D01*
X8808Y17093D01*
X8775Y17112D01*
X8745Y17140D01*
X8721Y17176D01*
X8704Y17220D01*
X8694Y17272D01*
X8690Y17333D01*
X8694Y17390D01*
X8704Y17440D01*
X8721Y17483D01*
X8746Y17518D01*
X8775Y17546D01*
X8808Y17565D01*
X8844Y17577D01*
X8884Y17581D01*
X8924Y17577D01*
X8960Y17565D01*
X8993Y17546D01*
X9023Y17518D01*
X9047Y17483D01*
X9064Y17440D01*
X9074Y17389D01*
X9078Y17329D01*
X9078Y17329D01*
X9074Y17270D01*
X9064Y17219D01*
X9047Y17175D01*
X9023Y17140D01*
X8993Y17112D01*
X8960Y17093D01*
X8924Y17081D01*
X8884Y17077D01*
X8891Y16986D01*
X8950Y16991D01*
X9009Y17007D01*
X9061Y17035D01*
X9107Y17074D01*
X9145Y17123D01*
X9171Y17182D01*
X9187Y17251D01*
X9193Y17329D01*
X9193Y17329D01*
X8446Y17000D02*
X8446Y17659D01*
X8345Y17659D01*
X8345Y17559D01*
X8327Y17591D01*
X8308Y17617D01*
X8291Y17637D01*
X8274Y17651D01*
X8258Y17661D01*
X8240Y17668D01*
X8222Y17672D01*
X8203Y17673D01*
X8175Y17671D01*
X8146Y17664D01*
X8117Y17653D01*
X8088Y17637D01*
X8127Y17534D01*
X8147Y17545D01*
X8167Y17552D01*
X8188Y17557D01*
X8208Y17558D01*
X8226Y17557D01*
X8243Y17553D01*
X8259Y17546D01*
X8274Y17536D01*
X8288Y17524D01*
X8299Y17510D01*
X8308Y17493D01*
X8316Y17475D01*
X8324Y17445D01*
X8330Y17413D01*
X8333Y17379D01*
X8334Y17345D01*
X8334Y17000D01*
X8446Y17000D01*
X8446Y17000D01*
X16819Y15000D02*
X17172Y15909D01*
X17041Y15909D01*
X16805Y15249D01*
X16791Y15210D01*
X16779Y15172D01*
X16768Y15135D01*
X16757Y15100D01*
X16746Y15137D01*
X16735Y15174D01*
X16722Y15211D01*
X16708Y15249D01*
X16463Y15909D01*
X16340Y15909D01*
X16696Y15000D01*
X16819Y15000D01*
X16819Y15000D01*
X15866Y15212D02*
X15750Y15198D01*
X15767Y15150D01*
X15789Y15108D01*
X15817Y15072D01*
X15851Y15041D01*
X15891Y15017D01*
X15935Y14999D01*
X15985Y14989D01*
X16040Y14985D01*
X16108Y14991D01*
X16169Y15007D01*
X16223Y15035D01*
X16269Y15074D01*
X16306Y15123D01*
X16332Y15181D01*
X16348Y15248D01*
X16354Y15324D01*
X16348Y15402D01*
X16332Y15471D01*
X16306Y15531D01*
X16268Y15582D01*
X16222Y15622D01*
X16170Y15651D01*
X16111Y15668D01*
X16046Y15673D01*
X16037Y15673D01*
X16045Y15582D01*
X16082Y15578D01*
X16116Y15569D01*
X16146Y15553D01*
X16174Y15530D01*
X16197Y15502D01*
X16215Y15470D01*
X16226Y15433D01*
X16232Y15393D01*
X16232Y15393D01*
X15864Y15393D01*
X15870Y15431D01*
X15879Y15465D01*
X15891Y15494D01*
X15907Y15517D01*
X15935Y15545D01*
X15968Y15566D01*
X16004Y15578D01*
X16045Y15582D01*
X16037Y15673D01*
X15983Y15668D01*
X15926Y15651D01*
X15875Y15623D01*
X15830Y15584D01*
X15794Y15534D01*
X15767Y15475D01*
X15752Y15407D01*
X15747Y15331D01*
X15747Y15325D01*
X15747Y15318D01*
X15747Y15310D01*
X15747Y15301D01*
X16238Y15301D01*
X16232Y15250D01*
X16220Y15205D01*
X16201Y15167D01*
X16177Y15135D01*
X16148Y15109D01*
X16115Y15091D01*
X16079Y15080D01*
X16039Y15077D01*
X16010Y15079D01*
X15982Y15085D01*
X15957Y15095D01*
X15934Y15109D01*
X15914Y15128D01*
X15896Y15151D01*
X15879Y15179D01*
X15866Y15212D01*
X15866Y15212D01*
X15611Y15000D02*
X15611Y15659D01*
X15511Y15659D01*
X15511Y15559D01*
X15492Y15591D01*
X15474Y15617D01*
X15457Y15637D01*
X15440Y15651D01*
X15423Y15661D01*
X15406Y15668D01*
X15387Y15672D01*
X15368Y15673D01*
X15340Y15671D01*
X15311Y15664D01*
X15283Y15653D01*
X15254Y15637D01*
X15292Y15534D01*
X15312Y15545D01*
X15333Y15552D01*
X15353Y15557D01*
X15374Y15558D01*
X15392Y15557D01*
X15409Y15553D01*
X15425Y15546D01*
X15440Y15536D01*
X15453Y15524D01*
X15465Y15510D01*
X15474Y15493D01*
X15481Y15475D01*
X15489Y15445D01*
X15495Y15413D01*
X15499Y15379D01*
X15500Y15345D01*
X15500Y15000D01*
X15611Y15000D01*
X15611Y15000D01*
X15232Y15197D02*
X15121Y15214D01*
X15115Y15183D01*
X15104Y15155D01*
X15089Y15132D01*
X15070Y15112D01*
X15046Y15097D01*
X15019Y15086D01*
X14987Y15079D01*
X14951Y15077D01*
X14915Y15079D01*
X14884Y15085D01*
X14858Y15095D01*
X14837Y15108D01*
X14821Y15125D01*
X14809Y15142D01*
X14802Y15161D01*
X14800Y15182D01*
X14802Y15200D01*
X14808Y15215D01*
X14818Y15229D01*
X14833Y15241D01*
X14848Y15249D01*
X14873Y15258D01*
X14905Y15268D01*
X14947Y15279D01*
X15003Y15294D01*
X15051Y15308D01*
X15088Y15321D01*
X15117Y15333D01*
X15139Y15345D01*
X15159Y15360D01*
X15175Y15376D01*
X15189Y15395D01*
X15199Y15416D01*
X15207Y15437D01*
X15212Y15460D01*
X15213Y15484D01*
X15212Y15505D01*
X15208Y15526D01*
X15202Y15546D01*
X15193Y15565D01*
X15182Y15583D01*
X15169Y15600D01*
X15155Y15614D01*
X15138Y15628D01*
X15124Y15637D01*
X15107Y15645D01*
X15089Y15653D01*
X15067Y15660D01*
X15044Y15666D01*
X15021Y15670D01*
X14996Y15673D01*
X14971Y15673D01*
X14933Y15672D01*
X14898Y15668D01*
X14865Y15661D01*
X14835Y15651D01*
X14807Y15639D01*
X14784Y15625D01*
X14764Y15609D01*
X14748Y15591D01*
X14735Y15570D01*
X14725Y15546D01*
X14716Y15519D01*
X14710Y15489D01*
X14819Y15474D01*
X14824Y15498D01*
X14833Y15519D01*
X14846Y15537D01*
X14862Y15553D01*
X14882Y15566D01*
X14905Y15575D01*
X14932Y15580D01*
X14963Y15582D01*
X14998Y15580D01*
X15029Y15575D01*
X15053Y15567D01*
X15072Y15556D01*
X15087Y15543D01*
X15097Y15529D01*
X15103Y15513D01*
X15105Y15497D01*
X15105Y15486D01*
X15102Y15476D01*
X15098Y15467D01*
X15092Y15458D01*
X15084Y15449D01*
X15074Y15441D01*
X15063Y15434D01*
X15049Y15428D01*
X15036Y15424D01*
X15016Y15418D01*
X14987Y15410D01*
X14950Y15399D01*
X14896Y15384D01*
X14850Y15371D01*
X14813Y15358D01*
X14785Y15348D01*
X14763Y15336D01*
X14743Y15323D01*
X14726Y15307D01*
X14712Y15289D01*
X14700Y15269D01*
X14692Y15246D01*
X14687Y15221D01*
X14685Y15193D01*
X14687Y15166D01*
X14693Y15139D01*
X14703Y15113D01*
X14717Y15088D01*
X14736Y15065D01*
X14757Y15045D01*
X14783Y15027D01*
X14811Y15012D01*
X14843Y15000D01*
X14877Y14992D01*
X14913Y14987D01*
X14950Y14985D01*
X15011Y14988D01*
X15063Y14998D01*
X15109Y15015D01*
X15146Y15038D01*
X15177Y15068D01*
X15201Y15105D01*
X15220Y15147D01*
X15232Y15197D01*
X15232Y15197D01*
X14552Y15000D02*
X14552Y15659D01*
X14440Y15659D01*
X14440Y15000D01*
X14552Y15000D01*
X14552Y15000D01*
X14552Y15781D02*
X14552Y15909D01*
X14440Y15909D01*
X14440Y15781D01*
X14552Y15781D01*
X14552Y15781D01*
X14312Y15329D02*
X14305Y15415D01*
X14286Y15488D01*
X14254Y15550D01*
X14210Y15600D01*
X14165Y15632D01*
X14116Y15655D01*
X14062Y15669D01*
X14003Y15673D01*
X13938Y15668D01*
X13879Y15651D01*
X13827Y15623D01*
X13781Y15584D01*
X13743Y15536D01*
X13716Y15478D01*
X13700Y15413D01*
X13695Y15339D01*
X13697Y15278D01*
X13704Y15225D01*
X13716Y15178D01*
X13733Y15139D01*
X13754Y15104D01*
X13780Y15074D01*
X13809Y15048D01*
X13844Y15025D01*
X13881Y15008D01*
X13920Y14995D01*
X13961Y14988D01*
X14003Y14985D01*
X14010Y14986D01*
X14003Y15077D01*
X13963Y15081D01*
X13927Y15093D01*
X13894Y15112D01*
X13864Y15140D01*
X13840Y15176D01*
X13823Y15220D01*
X13813Y15272D01*
X13809Y15333D01*
X13813Y15390D01*
X13823Y15440D01*
X13841Y15483D01*
X13865Y15518D01*
X13894Y15546D01*
X13927Y15565D01*
X13963Y15577D01*
X14003Y15581D01*
X14043Y15577D01*
X14079Y15565D01*
X14112Y15546D01*
X14142Y15518D01*
X14166Y15483D01*
X14183Y15440D01*
X14193Y15389D01*
X14197Y15329D01*
X14197Y15329D01*
X14193Y15270D01*
X14183Y15219D01*
X14166Y15175D01*
X14142Y15140D01*
X14112Y15112D01*
X14079Y15093D01*
X14043Y15081D01*
X14003Y15077D01*
X14010Y14986D01*
X14069Y14991D01*
X14128Y15007D01*
X14180Y15035D01*
X14226Y15074D01*
X14264Y15123D01*
X14290Y15182D01*
X14306Y15251D01*
X14312Y15329D01*
X14312Y15329D01*
X13564Y15000D02*
X13564Y15659D01*
X13463Y15659D01*
X13463Y15565D01*
X13423Y15612D01*
X13375Y15646D01*
X13318Y15667D01*
X13254Y15673D01*
X13225Y15672D01*
X13197Y15668D01*
X13170Y15661D01*
X13144Y15652D01*
X13121Y15641D01*
X13101Y15627D01*
X13083Y15612D01*
X13069Y15596D01*
X13058Y15578D01*
X13048Y15558D01*
X13041Y15537D01*
X13035Y15513D01*
X13032Y15495D01*
X13030Y15471D01*
X13029Y15441D01*
X13029Y15405D01*
X13029Y15000D01*
X13140Y15000D01*
X13140Y15401D01*
X13141Y15433D01*
X13143Y15460D01*
X13148Y15484D01*
X13153Y15503D01*
X13161Y15519D01*
X13171Y15533D01*
X13184Y15546D01*
X13199Y15557D01*
X13217Y15565D01*
X13235Y15572D01*
X13256Y15575D01*
X13277Y15577D01*
X13312Y15574D01*
X13344Y15565D01*
X13373Y15551D01*
X13400Y15531D01*
X13423Y15504D01*
X13439Y15466D01*
X13449Y15418D01*
X13452Y15360D01*
X13452Y15000D01*
X13564Y15000D01*
X13564Y15000D01*
X12115Y15000D02*
X12227Y15000D01*
X12227Y15711D01*
X12248Y15692D01*
X12273Y15673D01*
X12301Y15654D01*
X12332Y15634D01*
X12364Y15616D01*
X12395Y15601D01*
X12423Y15588D01*
X12450Y15577D01*
X12450Y15685D01*
X12405Y15708D01*
X12362Y15733D01*
X12323Y15761D01*
X12286Y15791D01*
X12254Y15822D01*
X12226Y15853D01*
X12204Y15883D01*
X12187Y15913D01*
X12115Y15913D01*
X12115Y15000D01*
X12115Y15000D01*
X11767Y15000D02*
X11767Y15127D01*
X11640Y15127D01*
X11640Y15000D01*
X11767Y15000D01*
X11767Y15000D01*
X11476Y15448D02*
X11474Y15525D01*
X11468Y15594D01*
X11458Y15655D01*
X11443Y15708D01*
X11425Y15754D01*
X11402Y15795D01*
X11375Y15830D01*
X11345Y15859D01*
X11310Y15883D01*
X11271Y15899D01*
X11228Y15909D01*
X11180Y15913D01*
X11145Y15911D01*
X11111Y15905D01*
X11080Y15896D01*
X11052Y15883D01*
X11025Y15867D01*
X11001Y15847D01*
X10980Y15825D01*
X10960Y15798D01*
X10943Y15769D01*
X10928Y15737D01*
X10915Y15702D01*
X10904Y15663D01*
X10895Y15620D01*
X10889Y15570D01*
X10885Y15512D01*
X10884Y15448D01*
X10886Y15372D01*
X10892Y15304D01*
X10902Y15243D01*
X10916Y15190D01*
X10935Y15144D01*
X10957Y15103D01*
X10984Y15068D01*
X11015Y15038D01*
X11050Y15015D01*
X11089Y14998D01*
X11132Y14988D01*
X11180Y14984D01*
X11189Y14985D01*
X11180Y15076D01*
X11143Y15081D01*
X11109Y15095D01*
X11078Y15118D01*
X11051Y15151D01*
X11028Y15197D01*
X11011Y15262D01*
X11002Y15346D01*
X10998Y15448D01*
X11002Y15551D01*
X11011Y15635D01*
X11028Y15700D01*
X11051Y15747D01*
X11079Y15779D01*
X11110Y15802D01*
X11144Y15816D01*
X11181Y15820D01*
X11218Y15816D01*
X11250Y15804D01*
X11279Y15784D01*
X11304Y15755D01*
X11329Y15705D01*
X11347Y15637D01*
X11358Y15551D01*
X11362Y15448D01*
X11362Y15448D01*
X11358Y15346D01*
X11349Y15262D01*
X11332Y15197D01*
X11309Y15150D01*
X11282Y15118D01*
X11251Y15095D01*
X11217Y15081D01*
X11180Y15076D01*
X11189Y14985D01*
X11242Y14990D01*
X11297Y15008D01*
X11345Y15038D01*
X11387Y15079D01*
X11426Y15144D01*
X11454Y15228D01*
X11471Y15329D01*
X11476Y15448D01*
X11476Y15448D01*
X18244Y19000D02*
X18244Y19909D01*
X17901Y19909D01*
X17858Y19909D01*
X17821Y19907D01*
X17789Y19904D01*
X17763Y19900D01*
X17730Y19894D01*
X17701Y19884D01*
X17674Y19872D01*
X17650Y19858D01*
X17629Y19841D01*
X17609Y19820D01*
X17592Y19797D01*
X17577Y19770D01*
X17565Y19741D01*
X17557Y19711D01*
X17552Y19679D01*
X17550Y19646D01*
X17554Y19590D01*
X17568Y19539D01*
X17591Y19492D01*
X17624Y19450D01*
X17668Y19415D01*
X17727Y19390D01*
X17801Y19375D01*
X17828Y19373D01*
X17834Y19480D01*
X17789Y19488D01*
X17752Y19501D01*
X17723Y19520D01*
X17701Y19544D01*
X17686Y19573D01*
X17677Y19605D01*
X17674Y19642D01*
X17676Y19670D01*
X17681Y19695D01*
X17690Y19719D01*
X17703Y19740D01*
X17718Y19759D01*
X17736Y19774D01*
X17756Y19786D01*
X17779Y19794D01*
X17797Y19797D01*
X17822Y19800D01*
X17853Y19801D01*
X17891Y19802D01*
X18123Y19802D01*
X18123Y19477D01*
X18123Y19477D01*
X17888Y19477D01*
X17834Y19480D01*
X17828Y19373D01*
X17890Y19370D01*
X18123Y19370D01*
X18123Y19000D01*
X18244Y19000D01*
X18244Y19000D01*
X17410Y19000D02*
X17410Y19659D01*
X17299Y19659D01*
X17299Y19000D01*
X17410Y19000D01*
X17410Y19000D01*
X17410Y19781D02*
X17410Y19909D01*
X17299Y19909D01*
X17299Y19781D01*
X17410Y19781D01*
X17410Y19781D01*
X17129Y19000D02*
X17129Y19659D01*
X17028Y19659D01*
X17028Y19565D01*
X16988Y19612D01*
X16940Y19646D01*
X16883Y19667D01*
X16819Y19673D01*
X16790Y19672D01*
X16762Y19668D01*
X16735Y19661D01*
X16709Y19652D01*
X16686Y19641D01*
X16666Y19627D01*
X16649Y19612D01*
X16635Y19596D01*
X16623Y19578D01*
X16614Y19558D01*
X16606Y19537D01*
X16600Y19513D01*
X16597Y19495D01*
X16595Y19471D01*
X16594Y19441D01*
X16594Y19405D01*
X16594Y19000D01*
X16705Y19000D01*
X16705Y19401D01*
X16706Y19433D01*
X16709Y19460D01*
X16713Y19484D01*
X16718Y19503D01*
X16726Y19519D01*
X16736Y19533D01*
X16749Y19546D01*
X16765Y19557D01*
X16782Y19565D01*
X16801Y19572D01*
X16821Y19575D01*
X16842Y19577D01*
X16877Y19574D01*
X16909Y19565D01*
X16938Y19551D01*
X16965Y19531D01*
X16988Y19504D01*
X17004Y19466D01*
X17014Y19418D01*
X17017Y19360D01*
X17017Y19000D01*
X17129Y19000D01*
X17129Y19000D01*
X15972Y19212D02*
X15856Y19198D01*
X15873Y19150D01*
X15895Y19108D01*
X15923Y19072D01*
X15957Y19041D01*
X15997Y19017D01*
X16041Y18999D01*
X16091Y18989D01*
X16146Y18985D01*
X16214Y18991D01*
X16275Y19007D01*
X16329Y19035D01*
X16375Y19074D01*
X16412Y19123D01*
X16439Y19181D01*
X16454Y19248D01*
X16460Y19324D01*
X16454Y19402D01*
X16438Y19471D01*
X16412Y19531D01*
X16374Y19582D01*
X16328Y19622D01*
X16276Y19651D01*
X16217Y19668D01*
X16152Y19673D01*
X16143Y19673D01*
X16151Y19582D01*
X16188Y19578D01*
X16222Y19569D01*
X16252Y19553D01*
X16280Y19530D01*
X16303Y19502D01*
X16321Y19470D01*
X16332Y19433D01*
X16338Y19393D01*
X16338Y19393D01*
X15970Y19393D01*
X15976Y19431D01*
X15985Y19465D01*
X15997Y19494D01*
X16013Y19517D01*
X16041Y19545D01*
X16074Y19566D01*
X16110Y19578D01*
X16151Y19582D01*
X16143Y19673D01*
X16089Y19668D01*
X16032Y19651D01*
X15981Y19623D01*
X15936Y19584D01*
X15900Y19534D01*
X15874Y19475D01*
X15858Y19407D01*
X15853Y19331D01*
X15853Y19325D01*
X15853Y19318D01*
X15853Y19310D01*
X15853Y19301D01*
X16344Y19301D01*
X16338Y19250D01*
X16326Y19205D01*
X16308Y19167D01*
X16283Y19135D01*
X16254Y19109D01*
X16221Y19091D01*
X16185Y19080D01*
X16145Y19077D01*
X16116Y19079D01*
X16088Y19085D01*
X16063Y19095D01*
X16041Y19109D01*
X16020Y19128D01*
X16002Y19151D01*
X15986Y19179D01*
X15972Y19212D01*
X15972Y19212D01*
X15168Y19686D02*
X15279Y19678D01*
X15287Y19708D01*
X15297Y19735D01*
X15308Y19756D01*
X15321Y19773D01*
X15345Y19794D01*
X15372Y19809D01*
X15401Y19818D01*
X15433Y19821D01*
X15459Y19819D01*
X15483Y19814D01*
X15505Y19804D01*
X15526Y19791D01*
X15551Y19770D01*
X15574Y19744D01*
X15593Y19714D01*
X15610Y19679D01*
X15623Y19638D01*
X15633Y19590D01*
X15639Y19533D01*
X15641Y19469D01*
X15582Y19422D01*
X15594Y19408D01*
X15611Y19374D01*
X15620Y19336D01*
X15624Y19295D01*
X15624Y19295D01*
X15622Y19266D01*
X15618Y19238D01*
X15610Y19211D01*
X15599Y19184D01*
X15586Y19159D01*
X15570Y19138D01*
X15552Y19119D01*
X15531Y19104D01*
X15508Y19092D01*
X15486Y19083D01*
X15462Y19078D01*
X15438Y19076D01*
X15404Y19080D01*
X15373Y19091D01*
X15343Y19108D01*
X15317Y19133D01*
X15295Y19164D01*
X15279Y19201D01*
X15269Y19242D01*
X15266Y19288D01*
X15269Y19333D01*
X15279Y19373D01*
X15294Y19407D01*
X15316Y19437D01*
X15343Y19461D01*
X15373Y19478D01*
X15406Y19488D01*
X15443Y19491D01*
X15479Y19488D01*
X15513Y19478D01*
X15543Y19461D01*
X15571Y19437D01*
X15582Y19422D01*
X15641Y19469D01*
X15620Y19498D01*
X15596Y19522D01*
X15571Y19543D01*
X15543Y19560D01*
X15513Y19573D01*
X15483Y19582D01*
X15452Y19588D01*
X15420Y19590D01*
X15367Y19585D01*
X15317Y19569D01*
X15272Y19544D01*
X15230Y19508D01*
X15196Y19463D01*
X15171Y19413D01*
X15157Y19357D01*
X15152Y19295D01*
X15154Y19253D01*
X15161Y19213D01*
X15173Y19174D01*
X15189Y19136D01*
X15209Y19102D01*
X15233Y19071D01*
X15260Y19045D01*
X15290Y19024D01*
X15323Y19006D01*
X15359Y18994D01*
X15397Y18987D01*
X15437Y18984D01*
X15503Y18991D01*
X15563Y19010D01*
X15617Y19042D01*
X15664Y19087D01*
X15703Y19147D01*
X15730Y19223D01*
X15747Y19316D01*
X15752Y19425D01*
X15746Y19548D01*
X15728Y19653D01*
X15697Y19740D01*
X15655Y19809D01*
X15609Y19854D01*
X15555Y19887D01*
X15494Y19906D01*
X15426Y19913D01*
X15375Y19909D01*
X15328Y19898D01*
X15287Y19879D01*
X15250Y19853D01*
X15219Y19820D01*
X15195Y19781D01*
X15178Y19737D01*
X15168Y19686D01*
X15168Y19686D01*
X14683Y19000D02*
X14683Y19218D01*
X15077Y19218D01*
X15077Y19320D01*
X14754Y19780D01*
X14683Y19730D01*
X14968Y19320D01*
X14683Y19320D01*
X14683Y19320D01*
X14683Y19730D01*
X14754Y19780D01*
X14663Y19909D01*
X14571Y19909D01*
X14571Y19320D01*
X14449Y19320D01*
X14449Y19218D01*
X14571Y19218D01*
X14571Y19000D01*
X14683Y19000D01*
X14683Y19000D01*
X13936Y19000D02*
X13936Y19909D01*
X13594Y19909D01*
X13551Y19909D01*
X13514Y19907D01*
X13482Y19904D01*
X13455Y19900D01*
X13423Y19894D01*
X13394Y19884D01*
X13367Y19872D01*
X13343Y19858D01*
X13321Y19841D01*
X13302Y19820D01*
X13285Y19797D01*
X13270Y19770D01*
X13258Y19741D01*
X13249Y19711D01*
X13244Y19679D01*
X13243Y19646D01*
X13247Y19590D01*
X13261Y19539D01*
X13284Y19492D01*
X13316Y19450D01*
X13361Y19415D01*
X13420Y19390D01*
X13494Y19375D01*
X13521Y19373D01*
X13527Y19480D01*
X13481Y19488D01*
X13444Y19501D01*
X13416Y19520D01*
X13394Y19544D01*
X13379Y19573D01*
X13370Y19605D01*
X13367Y19642D01*
X13368Y19670D01*
X13374Y19695D01*
X13383Y19719D01*
X13395Y19740D01*
X13411Y19759D01*
X13429Y19774D01*
X13449Y19786D01*
X13471Y19794D01*
X13490Y19797D01*
X13515Y19800D01*
X13546Y19801D01*
X13584Y19802D01*
X13816Y19802D01*
X13816Y19477D01*
X13816Y19477D01*
X13581Y19477D01*
X13527Y19480D01*
X13521Y19373D01*
X13583Y19370D01*
X13816Y19370D01*
X13816Y19000D01*
X13936Y19000D01*
X13936Y19000D01*
X13189Y19000D02*
X12864Y19847D01*
X12778Y19814D01*
X12788Y19770D01*
X12799Y19726D01*
X12812Y19683D01*
X12827Y19640D01*
X12927Y19373D01*
X12927Y19373D01*
X12619Y19373D01*
X12714Y19625D01*
X12734Y19680D01*
X12751Y19730D01*
X12766Y19774D01*
X12778Y19814D01*
X12864Y19847D01*
X12840Y19909D01*
X12710Y19909D01*
X12338Y19000D01*
X12475Y19000D01*
X12581Y19275D01*
X12962Y19275D01*
X13061Y19000D01*
X13189Y19000D01*
X13189Y19000D01*
X12242Y19000D02*
X12242Y19909D01*
X11931Y19909D01*
X11931Y19802D01*
X12122Y19802D01*
X12122Y19107D01*
X12122Y19107D01*
X11928Y19107D01*
X11885Y19108D01*
X11848Y19111D01*
X11815Y19117D01*
X11787Y19124D01*
X11762Y19133D01*
X11741Y19144D01*
X11722Y19157D01*
X11705Y19171D01*
X11685Y19194D01*
X11667Y19221D01*
X11652Y19252D01*
X11639Y19286D01*
X11628Y19324D01*
X11621Y19366D01*
X11616Y19412D01*
X11615Y19461D01*
X11618Y19529D01*
X11626Y19587D01*
X11641Y19638D01*
X11662Y19681D01*
X11686Y19716D01*
X11713Y19745D01*
X11743Y19767D01*
X11775Y19783D01*
X11803Y19791D01*
X11838Y19797D01*
X11881Y19801D01*
X11931Y19802D01*
X11931Y19909D01*
X11929Y19909D01*
X11879Y19908D01*
X11836Y19906D01*
X11798Y19902D01*
X11767Y19896D01*
X11730Y19885D01*
X11695Y19871D01*
X11663Y19853D01*
X11634Y19831D01*
X11600Y19798D01*
X11571Y19762D01*
X11546Y19721D01*
X11526Y19676D01*
X11511Y19627D01*
X11500Y19574D01*
X11493Y19519D01*
X11491Y19460D01*
X11492Y19409D01*
X11497Y19362D01*
X11504Y19317D01*
X11515Y19276D01*
X11528Y19238D01*
X11542Y19203D01*
X11559Y19171D01*
X11577Y19144D01*
X11596Y19119D01*
X11616Y19097D01*
X11638Y19078D01*
X11660Y19061D01*
X11683Y19047D01*
X11709Y19035D01*
X11738Y19024D01*
X11768Y19016D01*
X11801Y19009D01*
X11836Y19004D01*
X11874Y19001D01*
X11914Y19000D01*
X12242Y19000D01*
X12242Y19000D01*
X11305Y19000D02*
X11305Y19909D01*
X11184Y19909D01*
X11184Y19000D01*
X11305Y19000D01*
X11305Y19000D01*
X10390Y19100D02*
X10374Y19001D01*
X10397Y18997D01*
X10418Y18994D01*
X10439Y18992D01*
X10458Y18991D01*
X10487Y18993D01*
X10512Y18996D01*
X10534Y19002D01*
X10552Y19011D01*
X10568Y19021D01*
X10581Y19033D01*
X10592Y19046D01*
X10600Y19061D01*
X10606Y19081D01*
X10610Y19110D01*
X10612Y19147D01*
X10613Y19193D01*
X10613Y19572D01*
X10695Y19572D01*
X10695Y19659D01*
X10613Y19659D01*
X10613Y19822D01*
X10502Y19889D01*
X10502Y19659D01*
X10390Y19659D01*
X10390Y19572D01*
X10502Y19572D01*
X10502Y19187D01*
X10502Y19165D01*
X10501Y19147D01*
X10499Y19134D01*
X10496Y19125D01*
X10493Y19119D01*
X10489Y19113D01*
X10483Y19108D01*
X10477Y19104D01*
X10470Y19100D01*
X10461Y19098D01*
X10451Y19096D01*
X10439Y19095D01*
X10429Y19096D01*
X10417Y19097D01*
X10404Y19098D01*
X10390Y19100D01*
X10390Y19100D01*
X10322Y19329D02*
X10316Y19415D01*
X10297Y19488D01*
X10265Y19550D01*
X10221Y19600D01*
X10176Y19632D01*
X10126Y19655D01*
X10072Y19669D01*
X10014Y19673D01*
X9949Y19668D01*
X9890Y19651D01*
X9838Y19623D01*
X9792Y19584D01*
X9754Y19536D01*
X9727Y19478D01*
X9711Y19413D01*
X9705Y19339D01*
X9708Y19278D01*
X9715Y19225D01*
X9727Y19178D01*
X9744Y19139D01*
X9765Y19104D01*
X9790Y19074D01*
X9820Y19048D01*
X9855Y19025D01*
X9892Y19008D01*
X9931Y18995D01*
X9971Y18988D01*
X10014Y18985D01*
X10021Y18986D01*
X10014Y19077D01*
X9974Y19081D01*
X9937Y19093D01*
X9905Y19112D01*
X9875Y19140D01*
X9851Y19176D01*
X9834Y19220D01*
X9824Y19272D01*
X9820Y19333D01*
X9824Y19390D01*
X9834Y19440D01*
X9851Y19483D01*
X9876Y19518D01*
X9905Y19546D01*
X9938Y19565D01*
X9974Y19577D01*
X10014Y19581D01*
X10054Y19577D01*
X10090Y19565D01*
X10123Y19546D01*
X10152Y19518D01*
X10177Y19483D01*
X10194Y19440D01*
X10204Y19389D01*
X10208Y19329D01*
X10208Y19329D01*
X10204Y19270D01*
X10194Y19219D01*
X10177Y19175D01*
X10152Y19140D01*
X10123Y19112D01*
X10090Y19093D01*
X10054Y19081D01*
X10014Y19077D01*
X10021Y18986D01*
X10079Y18991D01*
X10139Y19007D01*
X10191Y19035D01*
X10237Y19074D01*
X10274Y19123D01*
X10301Y19182D01*
X10317Y19251D01*
X10322Y19329D01*
X10322Y19329D01*
G37*
M02*