%FSLAX33Y33*%
%MOMM*%
%AMRect-W2000000-H2000000-RO1.000*
21,1,2.,2.,0.,0.,180*%
%AMRect-W1650000-H1650000-RO0.500*
21,1,1.65,1.65,0.,0.,270*%
%ADD10C,0.0508*%
%ADD11C,0.508*%
%ADD12C,1.0668*%
%ADD13C,2.*%
%ADD14Rect-W2000000-H2000000-RO1.000*%
%ADD15C,1.65*%
%ADD16Rect-W1650000-H1650000-RO0.500*%
%ADD17R,1.X0.9*%
%ADD18R,0.9X1.*%
D10*
%LNpour fill*%
G01*
X27402Y11402D02*
X27402Y11402D01*
X24000Y11402*
X24000Y11402*
X23883Y11413*
X23883Y11413*
X23771Y11447*
X23771Y11447*
X23668Y11503*
X23668Y11503*
X23577Y11577*
X23577Y11577*
X23503Y11668*
X23503Y11668*
X23447Y11771*
X23447Y11771*
X23413Y11883*
X23413Y11883*
X23402Y12000*
X23402Y12000*
X23402Y29402*
X22908Y29402*
X22908Y28574*
X22908Y28574*
X22903Y28510*
X22903Y28510*
X22888Y28448*
X22888Y28448*
X22863Y28389*
X22863Y28389*
X22830Y28334*
X22830Y28334*
X22788Y28286*
X22788Y28286*
X22740Y28244*
X22740Y28244*
X22685Y28211*
X22685Y28211*
X22626Y28186*
X22626Y28186*
X22564Y28171*
X22564Y28171*
X22500Y28166*
X22500Y28166*
X21500Y28166*
X21500Y28166*
X21436Y28171*
X21436Y28171*
X21374Y28186*
X21374Y28186*
X21315Y28211*
X21315Y28211*
X21268Y28240*
X21086Y28144*
X21085Y28144*
X20865Y28090*
X20865Y28090*
X20638Y28090*
X20638Y28090*
X20418Y28144*
X20418Y28144*
X20217Y28249*
X20217Y28249*
X20047Y28400*
X20047Y28400*
X19919Y28586*
X19919Y28586*
X19838Y28799*
X19838Y28799*
X19811Y29024*
X19811Y29024*
X19838Y29249*
X19838Y29249*
X19896Y29402*
X6908Y29402*
X6908Y28574*
X6908Y28574*
X6903Y28510*
X6903Y28510*
X6888Y28448*
X6888Y28448*
X6863Y28389*
X6863Y28389*
X6830Y28334*
X6830Y28334*
X6788Y28286*
X6788Y28286*
X6740Y28244*
X6740Y28244*
X6685Y28211*
X6685Y28211*
X6626Y28186*
X6626Y28186*
X6564Y28171*
X6564Y28171*
X6500Y28166*
X6500Y28166*
X5500Y28166*
X5500Y28166*
X5436Y28171*
X5436Y28171*
X5374Y28186*
X5374Y28186*
X5315Y28211*
X5315Y28211*
X5260Y28244*
X5260Y28244*
X5212Y28286*
X5212Y28286*
X5170Y28334*
X5170Y28334*
X5137Y28389*
X5137Y28389*
X5112Y28448*
X5112Y28448*
X5097Y28510*
X5097Y28510*
X5092Y28574*
X5092Y28574*
X5092Y29402*
X4598Y29402*
X4598Y12000*
X4598Y12000*
X4587Y11883*
X4587Y11883*
X4553Y11771*
X4553Y11771*
X4497Y11668*
X4497Y11668*
X4423Y11577*
X4423Y11577*
X4332Y11503*
X4332Y11503*
X4229Y11447*
X4229Y11447*
X4117Y11413*
X4117Y11413*
X4000Y11402*
X4000Y11402*
X0598Y11402*
X0598Y0598*
X27402Y0598*
X27402Y11402*
X20865Y26090D02*
X20638Y26090D01*
X20418Y26144*
X20217Y26250*
X20048Y26400*
X19919Y26587*
X19838Y26799*
X19811Y27024*
X19838Y27249*
X19919Y27461*
X20048Y27648*
X20217Y27798*
X20418Y27903*
X20638Y27958*
X20865Y27958*
X21085Y27903*
X21268Y27808*
X21315Y27837*
X21374Y27861*
X21436Y27876*
X21500Y27881*
X22500Y27881*
X22564Y27876*
X22626Y27861*
X22685Y27837*
X22739Y27803*
X22788Y27762*
X22830Y27713*
X22863Y27659*
X22887Y27600*
X22902Y27538*
X22907Y27474*
X22907Y26574*
X22902Y26510*
X22887Y26448*
X22863Y26389*
X22830Y26334*
X22788Y26286*
X22739Y26244*
X22685Y26211*
X22626Y26186*
X22564Y26171*
X22500Y26166*
X21500Y26166*
X21436Y26171*
X21374Y26186*
X21315Y26211*
X21268Y26240*
X21085Y26144*
X20865Y26090*
X6500Y26166D02*
X5500Y26166D01*
X5436Y26171*
X5374Y26186*
X5315Y26211*
X5261Y26244*
X5212Y26286*
X5170Y26334*
X5137Y26389*
X5113Y26448*
X5098Y26510*
X5093Y26574*
X5093Y27474*
X5098Y27538*
X5113Y27600*
X5137Y27659*
X5170Y27713*
X5212Y27762*
X5261Y27803*
X5315Y27837*
X5374Y27861*
X5436Y27876*
X5500Y27881*
X6500Y27881*
X6564Y27876*
X6626Y27861*
X6685Y27837*
X6739Y27803*
X6788Y27762*
X6830Y27713*
X6863Y27659*
X6887Y27600*
X6902Y27538*
X6907Y27474*
X6907Y26574*
X6902Y26510*
X6887Y26448*
X6863Y26389*
X6830Y26334*
X6788Y26286*
X6739Y26244*
X6685Y26211*
X6626Y26186*
X6564Y26171*
X6500Y26166*
X6500Y24166D02*
X5500Y24166D01*
X5436Y24171*
X5374Y24186*
X5315Y24211*
X5261Y24244*
X5212Y24286*
X5170Y24334*
X5137Y24389*
X5113Y24448*
X5098Y24510*
X5093Y24574*
X5093Y25474*
X5098Y25538*
X5113Y25600*
X5137Y25659*
X5170Y25713*
X5212Y25762*
X5261Y25803*
X5315Y25837*
X5374Y25861*
X5436Y25876*
X5500Y25881*
X6500Y25881*
X6564Y25876*
X6626Y25861*
X6685Y25837*
X6739Y25803*
X6788Y25762*
X6830Y25713*
X6863Y25659*
X6887Y25600*
X6902Y25538*
X6907Y25474*
X6907Y24574*
X6902Y24510*
X6887Y24448*
X6863Y24389*
X6830Y24334*
X6788Y24286*
X6739Y24244*
X6685Y24211*
X6626Y24186*
X6564Y24171*
X6500Y24166*
X22500Y24166D02*
X21500Y24166D01*
X21436Y24171*
X21374Y24186*
X21315Y24211*
X21261Y24244*
X21212Y24286*
X21170Y24334*
X21137Y24389*
X21113Y24448*
X21098Y24510*
X21093Y24574*
X21093Y25474*
X21098Y25538*
X21113Y25600*
X21137Y25659*
X21170Y25713*
X21212Y25762*
X21261Y25803*
X21315Y25837*
X21374Y25861*
X21436Y25876*
X21500Y25881*
X22500Y25881*
X22564Y25876*
X22626Y25861*
X22685Y25837*
X22739Y25803*
X22788Y25762*
X22830Y25713*
X22863Y25659*
X22887Y25600*
X22902Y25538*
X22907Y25474*
X22907Y24574*
X22902Y24510*
X22887Y24448*
X22863Y24389*
X22830Y24334*
X22788Y24286*
X22739Y24244*
X22685Y24211*
X22626Y24186*
X22564Y24171*
X22500Y24166*
X6500Y22166D02*
X5500Y22166D01*
X5436Y22171*
X5374Y22186*
X5315Y22211*
X5261Y22244*
X5212Y22286*
X5170Y22334*
X5137Y22389*
X5113Y22448*
X5098Y22510*
X5093Y22574*
X5093Y23474*
X5098Y23538*
X5113Y23600*
X5137Y23659*
X5170Y23713*
X5212Y23762*
X5261Y23803*
X5315Y23837*
X5374Y23861*
X5436Y23876*
X5500Y23881*
X6500Y23881*
X6564Y23876*
X6626Y23861*
X6685Y23837*
X6739Y23803*
X6788Y23762*
X6830Y23713*
X6863Y23659*
X6887Y23600*
X6902Y23538*
X6907Y23474*
X6907Y22574*
X6902Y22510*
X6887Y22448*
X6863Y22389*
X6830Y22334*
X6788Y22286*
X6739Y22244*
X6685Y22211*
X6626Y22186*
X6564Y22171*
X6500Y22166*
X22500Y22166D02*
X21500Y22166D01*
X21436Y22171*
X21374Y22186*
X21315Y22211*
X21261Y22244*
X21212Y22286*
X21170Y22334*
X21137Y22389*
X21113Y22448*
X21098Y22510*
X21093Y22574*
X21093Y23474*
X21098Y23538*
X21113Y23600*
X21137Y23659*
X21170Y23713*
X21212Y23762*
X21261Y23803*
X21315Y23837*
X21374Y23861*
X21436Y23876*
X21500Y23881*
X22500Y23881*
X22564Y23876*
X22626Y23861*
X22685Y23837*
X22739Y23803*
X22788Y23762*
X22830Y23713*
X22863Y23659*
X22887Y23600*
X22902Y23538*
X22907Y23474*
X22907Y22574*
X22902Y22510*
X22887Y22448*
X22863Y22389*
X22830Y22334*
X22788Y22286*
X22739Y22244*
X22685Y22211*
X22626Y22186*
X22564Y22171*
X22500Y22166*
X6500Y20166D02*
X5500Y20166D01*
X5436Y20171*
X5374Y20186*
X5315Y20211*
X5261Y20244*
X5212Y20286*
X5170Y20334*
X5137Y20389*
X5113Y20448*
X5098Y20510*
X5093Y20574*
X5093Y21474*
X5098Y21538*
X5113Y21600*
X5137Y21659*
X5170Y21713*
X5212Y21762*
X5261Y21803*
X5315Y21837*
X5374Y21861*
X5436Y21876*
X5500Y21881*
X6500Y21881*
X6564Y21876*
X6626Y21861*
X6685Y21837*
X6739Y21803*
X6788Y21762*
X6830Y21713*
X6863Y21659*
X6887Y21600*
X6902Y21538*
X6907Y21474*
X6907Y20574*
X6902Y20510*
X6887Y20448*
X6863Y20389*
X6830Y20334*
X6788Y20286*
X6739Y20244*
X6685Y20211*
X6626Y20186*
X6564Y20171*
X6500Y20166*
X22500Y20166D02*
X21500Y20166D01*
X21436Y20171*
X21374Y20186*
X21315Y20211*
X21261Y20244*
X21212Y20286*
X21170Y20334*
X21137Y20389*
X21113Y20448*
X21098Y20510*
X21093Y20574*
X21093Y21474*
X21098Y21538*
X21113Y21600*
X21137Y21659*
X21170Y21713*
X21212Y21762*
X21261Y21803*
X21315Y21837*
X21374Y21861*
X21436Y21876*
X21500Y21881*
X22500Y21881*
X22564Y21876*
X22626Y21861*
X22685Y21837*
X22739Y21803*
X22788Y21762*
X22830Y21713*
X22863Y21659*
X22887Y21600*
X22902Y21538*
X22907Y21474*
X22907Y20574*
X22902Y20510*
X22887Y20448*
X22863Y20389*
X22830Y20334*
X22788Y20286*
X22739Y20244*
X22685Y20211*
X22626Y20186*
X22564Y20171*
X22500Y20166*
X6500Y18166D02*
X5500Y18166D01*
X5436Y18171*
X5374Y18186*
X5315Y18211*
X5261Y18244*
X5212Y18286*
X5170Y18334*
X5137Y18389*
X5113Y18448*
X5098Y18510*
X5093Y18574*
X5093Y19474*
X5098Y19538*
X5113Y19600*
X5137Y19659*
X5170Y19713*
X5212Y19762*
X5261Y19803*
X5315Y19837*
X5374Y19861*
X5436Y19876*
X5500Y19881*
X6500Y19881*
X6564Y19876*
X6626Y19861*
X6685Y19837*
X6739Y19803*
X6788Y19762*
X6830Y19713*
X6863Y19659*
X6887Y19600*
X6902Y19538*
X6907Y19474*
X6907Y18574*
X6902Y18510*
X6887Y18448*
X6863Y18389*
X6830Y18334*
X6788Y18286*
X6739Y18244*
X6685Y18211*
X6626Y18186*
X6564Y18171*
X6500Y18166*
X22500Y18166D02*
X21500Y18166D01*
X21436Y18171*
X21374Y18186*
X21315Y18211*
X21261Y18244*
X21212Y18286*
X21170Y18334*
X21137Y18389*
X21113Y18448*
X21098Y18510*
X21093Y18574*
X21093Y19474*
X21098Y19538*
X21113Y19600*
X21137Y19659*
X21170Y19713*
X21212Y19762*
X21261Y19803*
X21315Y19837*
X21374Y19861*
X21436Y19876*
X21500Y19881*
X22500Y19881*
X22564Y19876*
X22626Y19861*
X22685Y19837*
X22739Y19803*
X22788Y19762*
X22830Y19713*
X22863Y19659*
X22887Y19600*
X22902Y19538*
X22907Y19474*
X22907Y18574*
X22902Y18510*
X22887Y18448*
X22863Y18389*
X22830Y18334*
X22788Y18286*
X22739Y18244*
X22685Y18211*
X22626Y18186*
X22564Y18171*
X22500Y18166*
X6500Y16166D02*
X5500Y16166D01*
X5436Y16171*
X5374Y16186*
X5315Y16211*
X5261Y16244*
X5212Y16286*
X5170Y16334*
X5137Y16389*
X5113Y16448*
X5098Y16510*
X5093Y16574*
X5093Y17474*
X5098Y17538*
X5113Y17600*
X5137Y17659*
X5170Y17713*
X5212Y17762*
X5261Y17803*
X5315Y17837*
X5374Y17861*
X5436Y17876*
X5500Y17881*
X6500Y17881*
X6564Y17876*
X6626Y17861*
X6685Y17837*
X6739Y17803*
X6788Y17762*
X6830Y17713*
X6863Y17659*
X6887Y17600*
X6902Y17538*
X6907Y17474*
X6907Y16574*
X6902Y16510*
X6887Y16448*
X6863Y16389*
X6830Y16334*
X6788Y16286*
X6739Y16244*
X6685Y16211*
X6626Y16186*
X6564Y16171*
X6500Y16166*
X22500Y16166D02*
X21500Y16166D01*
X21436Y16171*
X21374Y16186*
X21315Y16211*
X21261Y16244*
X21212Y16286*
X21170Y16334*
X21137Y16389*
X21113Y16448*
X21098Y16510*
X21093Y16574*
X21093Y17474*
X21098Y17538*
X21113Y17600*
X21137Y17659*
X21170Y17713*
X21212Y17762*
X21261Y17803*
X21315Y17837*
X21374Y17861*
X21436Y17876*
X21500Y17881*
X22500Y17881*
X22564Y17876*
X22626Y17861*
X22685Y17837*
X22739Y17803*
X22788Y17762*
X22830Y17713*
X22863Y17659*
X22887Y17600*
X22902Y17538*
X22907Y17474*
X22907Y16574*
X22902Y16510*
X22887Y16448*
X22863Y16389*
X22830Y16334*
X22788Y16286*
X22739Y16244*
X22685Y16211*
X22626Y16186*
X22564Y16171*
X22500Y16166*
X9113Y14090D02*
X8887Y14090D01*
X8666Y14144*
X8466Y14250*
X8338Y14362*
X6847Y14362*
X6830Y14334*
X6788Y14286*
X6739Y14244*
X6685Y14211*
X6626Y14186*
X6564Y14171*
X6500Y14166*
X5500Y14166*
X5436Y14171*
X5374Y14186*
X5315Y14211*
X5261Y14244*
X5212Y14286*
X5170Y14334*
X5137Y14389*
X5113Y14448*
X5098Y14510*
X5093Y14574*
X5093Y15474*
X5098Y15538*
X5113Y15600*
X5137Y15659*
X5170Y15713*
X5212Y15762*
X5261Y15803*
X5315Y15837*
X5374Y15861*
X5436Y15876*
X5500Y15881*
X6500Y15881*
X6564Y15876*
X6626Y15861*
X6685Y15837*
X6739Y15803*
X6788Y15762*
X6830Y15713*
X6847Y15685*
X8338Y15685*
X8466Y15798*
X8666Y15903*
X8887Y15958*
X9113Y15958*
X9334Y15903*
X9534Y15798*
X9704Y15648*
X9833Y15461*
X9913Y15249*
X9941Y15024*
X9913Y14799*
X9833Y14587*
X9704Y14400*
X9534Y14250*
X9334Y14144*
X9113Y14090*
X22500Y14166D02*
X22203Y14166D01*
X22203Y14675*
X21797Y14675*
X21797Y14166*
X21500Y14166*
X21436Y14171*
X21374Y14186*
X21315Y14211*
X21261Y14244*
X21212Y14286*
X21170Y14334*
X21137Y14389*
X21113Y14448*
X21098Y14510*
X21093Y14574*
X21093Y14821*
X21602Y14821*
X21602Y15227*
X21093Y15227*
X21093Y15474*
X21098Y15538*
X21113Y15600*
X21137Y15659*
X21170Y15713*
X21212Y15762*
X21261Y15803*
X21315Y15837*
X21374Y15861*
X21436Y15876*
X21500Y15881*
X21797Y15881*
X21797Y15372*
X22203Y15372*
X22203Y15881*
X22500Y15881*
X22564Y15876*
X22626Y15861*
X22685Y15837*
X22739Y15803*
X22788Y15762*
X22830Y15713*
X22863Y15659*
X22887Y15600*
X22902Y15538*
X22907Y15474*
X22907Y15227*
X22398Y15227*
X22398Y14821*
X22907Y14821*
X22907Y14574*
X22902Y14510*
X22887Y14448*
X22863Y14389*
X22830Y14334*
X22788Y14286*
X22739Y14244*
X22685Y14211*
X22626Y14186*
X22564Y14171*
X22500Y14166*
X9450Y12016D02*
X8550Y12016D01*
X8486Y12021*
X8424Y12036*
X8365Y12061*
X8311Y12094*
X8262Y12136*
X8220Y12184*
X8187Y12239*
X8163Y12298*
X8148Y12360*
X8143Y12424*
X8143Y13424*
X8148Y13488*
X8163Y13550*
X8187Y13609*
X8220Y13663*
X8262Y13712*
X8311Y13753*
X8365Y13787*
X8424Y13811*
X8486Y13826*
X8550Y13831*
X9450Y13831*
X9514Y13826*
X9576Y13811*
X9635Y13787*
X9689Y13753*
X9738Y13712*
X9780Y13663*
X9813Y13609*
X9837Y13550*
X9852Y13488*
X9857Y13424*
X9857Y12424*
X9852Y12360*
X9837Y12298*
X9813Y12239*
X9780Y12184*
X9738Y12136*
X9689Y12094*
X9635Y12061*
X9576Y12036*
X9514Y12021*
X9450Y12016*
X11450Y12016D02*
X10550Y12016D01*
X10486Y12021*
X10424Y12036*
X10365Y12061*
X10311Y12094*
X10262Y12136*
X10220Y12184*
X10187Y12239*
X10163Y12298*
X10148Y12360*
X10143Y12424*
X10143Y13424*
X10148Y13488*
X10163Y13550*
X10187Y13609*
X10220Y13663*
X10262Y13712*
X10311Y13753*
X10365Y13787*
X10424Y13811*
X10486Y13826*
X10550Y13831*
X11450Y13831*
X11514Y13826*
X11576Y13811*
X11635Y13787*
X11689Y13753*
X11738Y13712*
X11780Y13663*
X11813Y13609*
X11837Y13550*
X11852Y13488*
X11857Y13424*
X11857Y12424*
X11852Y12360*
X11837Y12298*
X11813Y12239*
X11780Y12184*
X11738Y12136*
X11689Y12094*
X11635Y12061*
X11576Y12036*
X11514Y12021*
X11450Y12016*
X13450Y12016D02*
X12550Y12016D01*
X12486Y12021*
X12424Y12036*
X12365Y12061*
X12311Y12094*
X12262Y12136*
X12220Y12184*
X12187Y12239*
X12163Y12298*
X12148Y12360*
X12143Y12424*
X12143Y13424*
X12148Y13488*
X12163Y13550*
X12187Y13609*
X12220Y13663*
X12262Y13712*
X12311Y13753*
X12365Y13787*
X12424Y13811*
X12486Y13826*
X12550Y13831*
X13450Y13831*
X13514Y13826*
X13576Y13811*
X13635Y13787*
X13689Y13753*
X13738Y13712*
X13780Y13663*
X13813Y13609*
X13837Y13550*
X13852Y13488*
X13857Y13424*
X13857Y12424*
X13852Y12360*
X13837Y12298*
X13813Y12239*
X13780Y12184*
X13738Y12136*
X13689Y12094*
X13635Y12061*
X13576Y12036*
X13514Y12021*
X13450Y12016*
X15450Y12016D02*
X14550Y12016D01*
X14486Y12021*
X14424Y12036*
X14365Y12061*
X14311Y12094*
X14262Y12136*
X14220Y12184*
X14187Y12239*
X14163Y12298*
X14148Y12360*
X14143Y12424*
X14143Y13424*
X14148Y13488*
X14163Y13550*
X14187Y13609*
X14220Y13663*
X14262Y13712*
X14311Y13753*
X14365Y13787*
X14424Y13811*
X14486Y13826*
X14550Y13831*
X15450Y13831*
X15514Y13826*
X15576Y13811*
X15635Y13787*
X15689Y13753*
X15738Y13712*
X15780Y13663*
X15813Y13609*
X15837Y13550*
X15852Y13488*
X15857Y13424*
X15857Y12424*
X15852Y12360*
X15837Y12298*
X15813Y12239*
X15780Y12184*
X15738Y12136*
X15689Y12094*
X15635Y12061*
X15576Y12036*
X15514Y12021*
X15450Y12016*
X17450Y12016D02*
X16550Y12016D01*
X16486Y12021*
X16424Y12036*
X16365Y12061*
X16311Y12094*
X16262Y12136*
X16220Y12184*
X16187Y12239*
X16163Y12298*
X16148Y12360*
X16143Y12424*
X16143Y13424*
X16148Y13488*
X16163Y13550*
X16187Y13609*
X16220Y13663*
X16262Y13712*
X16311Y13753*
X16365Y13787*
X16424Y13811*
X16486Y13826*
X16550Y13831*
X17450Y13831*
X17514Y13826*
X17576Y13811*
X17635Y13787*
X17689Y13753*
X17738Y13712*
X17780Y13663*
X17813Y13609*
X17837Y13550*
X17852Y13488*
X17857Y13424*
X17857Y12424*
X17852Y12360*
X17837Y12298*
X17813Y12239*
X17780Y12184*
X17738Y12136*
X17689Y12094*
X17635Y12061*
X17576Y12036*
X17514Y12021*
X17450Y12016*
X19450Y12016D02*
X18550Y12016D01*
X18486Y12021*
X18424Y12036*
X18365Y12061*
X18311Y12094*
X18262Y12136*
X18220Y12184*
X18187Y12239*
X18163Y12298*
X18148Y12360*
X18143Y12424*
X18143Y13424*
X18148Y13488*
X18163Y13550*
X18187Y13609*
X18220Y13663*
X18262Y13712*
X18311Y13753*
X18365Y13787*
X18424Y13811*
X18486Y13826*
X18550Y13831*
X19450Y13831*
X19514Y13826*
X19576Y13811*
X19635Y13787*
X19689Y13753*
X19738Y13712*
X19780Y13663*
X19813Y13609*
X19837Y13550*
X19852Y13488*
X19857Y13424*
X19857Y12424*
X19852Y12360*
X19837Y12298*
X19813Y12239*
X19780Y12184*
X19738Y12136*
X19689Y12094*
X19635Y12061*
X19576Y12036*
X19514Y12021*
X19450Y12016*
X26215Y6187D02*
X24215Y6187D01*
X24151Y6192*
X24089Y6207*
X24030Y6232*
X23976Y6265*
X23927Y6307*
X23886Y6355*
X23852Y6410*
X23828Y6469*
X23813Y6531*
X23808Y6595*
X23808Y8595*
X23813Y8659*
X23828Y8721*
X23852Y8780*
X23886Y8834*
X23927Y8883*
X23976Y8924*
X24030Y8958*
X24089Y8982*
X24151Y8997*
X24215Y9002*
X26215Y9002*
X26279Y8997*
X26341Y8982*
X26400Y8958*
X26455Y8924*
X26503Y8883*
X26545Y8834*
X26578Y8780*
X26603Y8721*
X26618Y8659*
X26623Y8595*
X26623Y6595*
X26618Y6531*
X26603Y6469*
X26578Y6410*
X26545Y6355*
X26503Y6307*
X26455Y6265*
X26400Y6232*
X26341Y6207*
X26279Y6192*
X26215Y6187*
X12610Y4568D02*
X12336Y4598D01*
X12075Y4690*
X11842Y4836*
X11646Y5032*
X11500Y5265*
X11408Y5526*
X11397Y5630*
X11283Y5630*
X11272Y5526*
X11180Y5265*
X11034Y5032*
X10838Y4836*
X10605Y4690*
X10344Y4598*
X10070Y4568*
X9796Y4598*
X9535Y4690*
X9302Y4836*
X9106Y5032*
X8960Y5265*
X8868Y5526*
X8857Y5630*
X8743Y5630*
X8732Y5526*
X8640Y5265*
X8494Y5032*
X8298Y4836*
X8065Y4690*
X7804Y4598*
X7530Y4568*
X7256Y4598*
X6995Y4690*
X6762Y4836*
X6566Y5032*
X6420Y5265*
X6328Y5526*
X6317Y5630*
X6203Y5630*
X6192Y5526*
X6100Y5265*
X5954Y5032*
X5758Y4836*
X5525Y4690*
X5264Y4598*
X4990Y4568*
X4716Y4598*
X4455Y4690*
X4222Y4836*
X4026Y5032*
X3880Y5265*
X3788Y5526*
X3777Y5630*
X3663Y5630*
X3652Y5526*
X3560Y5265*
X3414Y5032*
X3218Y4836*
X2985Y4690*
X2724Y4598*
X2450Y4568*
X2176Y4598*
X1915Y4690*
X1682Y4836*
X1486Y5032*
X1340Y5265*
X1248Y5526*
X1218Y5800*
X1248Y6074*
X1340Y6335*
X1486Y6568*
X1682Y6764*
X1915Y6910*
X2176Y7002*
X2450Y7032*
X2724Y7002*
X2985Y6910*
X3218Y6764*
X3414Y6568*
X3560Y6335*
X3652Y6074*
X3663Y5970*
X3777Y5970*
X3788Y6074*
X3880Y6335*
X4026Y6568*
X4222Y6764*
X4455Y6910*
X4716Y7002*
X4990Y7032*
X5264Y7002*
X5525Y6910*
X5758Y6764*
X5954Y6568*
X6100Y6335*
X6192Y6074*
X6203Y5970*
X6317Y5970*
X6328Y6074*
X6420Y6335*
X6566Y6568*
X6762Y6764*
X6995Y6910*
X7256Y7002*
X7530Y7032*
X7804Y7002*
X8065Y6910*
X8298Y6764*
X8494Y6568*
X8640Y6335*
X8732Y6074*
X8743Y5970*
X8857Y5970*
X8868Y6074*
X8960Y6335*
X9106Y6568*
X9302Y6764*
X9535Y6910*
X9796Y7002*
X10070Y7032*
X10344Y7002*
X10605Y6910*
X10838Y6764*
X11034Y6568*
X11180Y6335*
X11272Y6074*
X11283Y5970*
X11397Y5970*
X11408Y6074*
X11500Y6335*
X11646Y6568*
X11842Y6764*
X12075Y6910*
X12336Y7002*
X12610Y7032*
X12884Y7002*
X13145Y6910*
X13378Y6764*
X13574Y6568*
X13720Y6335*
X13812Y6073*
X13918Y6091*
X13918Y6625*
X13923Y6689*
X13938Y6751*
X13962Y6810*
X13995Y6864*
X14037Y6913*
X14086Y6955*
X14140Y6988*
X14199Y7012*
X14261Y7027*
X14325Y7032*
X14950Y7032*
X14950Y6523*
X15350Y6523*
X15350Y7032*
X15975Y7032*
X16039Y7027*
X16101Y7012*
X16160Y6988*
X16214Y6955*
X16263Y6913*
X16305Y6864*
X16338Y6810*
X16362Y6751*
X16377Y6689*
X16382Y6625*
X16382Y6000*
X15873Y6000*
X15873Y5600*
X16382Y5600*
X16382Y4975*
X16377Y4911*
X16362Y4849*
X16338Y4790*
X16305Y4736*
X16263Y4687*
X16214Y4645*
X16160Y4612*
X16101Y4588*
X16039Y4573*
X15975Y4568*
X15350Y4568*
X15350Y5077*
X14950Y5077*
X14950Y4568*
X14325Y4568*
X14261Y4573*
X14199Y4588*
X14140Y4612*
X14086Y4645*
X14037Y4687*
X13995Y4736*
X13962Y4790*
X13938Y4849*
X13923Y4911*
X13918Y4975*
X13918Y5509*
X13812Y5527*
X13720Y5265*
X13574Y5032*
X13378Y4836*
X13145Y4690*
X12884Y4598*
X12610Y4568*
X0598Y0647D02*
X27402Y0647D01*
X0598Y0697D02*
X27402Y0697D01*
X0598Y0746D02*
X27402Y0746D01*
X0598Y0796D02*
X27402Y0796D01*
X0598Y0846D02*
X27402Y0846D01*
X0598Y0895D02*
X27402Y0895D01*
X0598Y0945D02*
X27402Y0945D01*
X0598Y0994D02*
X27402Y0994D01*
X0598Y1044D02*
X27402Y1044D01*
X0598Y1093D02*
X27402Y1093D01*
X0598Y1143D02*
X27402Y1143D01*
X0598Y1192D02*
X27402Y1192D01*
X0598Y1242D02*
X27402Y1242D01*
X0598Y1291D02*
X27402Y1291D01*
X0598Y1341D02*
X27402Y1341D01*
X0598Y1390D02*
X27402Y1390D01*
X0598Y1440D02*
X27402Y1440D01*
X0598Y1489D02*
X27402Y1489D01*
X0598Y1539D02*
X27402Y1539D01*
X0598Y1589D02*
X27402Y1589D01*
X0598Y1638D02*
X27402Y1638D01*
X0598Y1688D02*
X27402Y1688D01*
X0598Y1737D02*
X27402Y1737D01*
X0598Y1787D02*
X27402Y1787D01*
X0598Y1836D02*
X27402Y1836D01*
X0598Y1886D02*
X27402Y1886D01*
X0598Y1935D02*
X27402Y1935D01*
X0598Y1985D02*
X27402Y1985D01*
X0598Y2034D02*
X27402Y2034D01*
X0598Y2084D02*
X27402Y2084D01*
X0598Y2133D02*
X27402Y2133D01*
X0598Y2183D02*
X27402Y2183D01*
X0598Y2232D02*
X27402Y2232D01*
X0598Y2282D02*
X27402Y2282D01*
X0598Y2331D02*
X27402Y2331D01*
X0598Y2381D02*
X27402Y2381D01*
X0598Y2431D02*
X27402Y2431D01*
X0598Y2480D02*
X27402Y2480D01*
X0598Y2530D02*
X27402Y2530D01*
X0598Y2579D02*
X27402Y2579D01*
X0598Y2629D02*
X27402Y2629D01*
X0598Y2678D02*
X27402Y2678D01*
X0598Y2728D02*
X27402Y2728D01*
X0598Y2777D02*
X27402Y2777D01*
X0598Y2827D02*
X27402Y2827D01*
X0598Y2876D02*
X27402Y2876D01*
X0598Y2926D02*
X27402Y2926D01*
X0598Y2975D02*
X27402Y2975D01*
X0598Y3025D02*
X27402Y3025D01*
X0598Y3074D02*
X27402Y3074D01*
X0598Y3124D02*
X27402Y3124D01*
X0598Y3173D02*
X27402Y3173D01*
X0598Y3223D02*
X27402Y3223D01*
X0598Y3273D02*
X27402Y3273D01*
X0598Y3322D02*
X27402Y3322D01*
X0598Y3372D02*
X27402Y3372D01*
X0598Y3421D02*
X27402Y3421D01*
X0598Y3471D02*
X27402Y3471D01*
X0598Y3520D02*
X27402Y3520D01*
X0598Y3570D02*
X27402Y3570D01*
X0598Y3619D02*
X27402Y3619D01*
X0598Y3669D02*
X27402Y3669D01*
X0598Y3718D02*
X27402Y3718D01*
X0598Y3768D02*
X27402Y3768D01*
X0598Y3817D02*
X27402Y3817D01*
X0598Y3867D02*
X27402Y3867D01*
X0598Y3916D02*
X27402Y3916D01*
X0598Y3966D02*
X27402Y3966D01*
X0598Y4015D02*
X27402Y4015D01*
X0598Y4065D02*
X27402Y4065D01*
X0598Y4115D02*
X27402Y4115D01*
X0598Y4164D02*
X27402Y4164D01*
X0598Y4214D02*
X27402Y4214D01*
X0598Y4263D02*
X27402Y4263D01*
X0598Y4313D02*
X27402Y4313D01*
X0598Y4362D02*
X27402Y4362D01*
X0598Y4412D02*
X27402Y4412D01*
X0598Y4461D02*
X27402Y4461D01*
X0598Y4511D02*
X27402Y4511D01*
X0598Y4560D02*
X27402Y4560D01*
X0598Y4610D02*
X2143Y4610D01*
X2757Y4610D02*
X4683Y4610D01*
X5297Y4610D02*
X7223Y4610D01*
X7837Y4610D02*
X9763Y4610D01*
X10377Y4610D02*
X12303Y4610D01*
X12917Y4610D02*
X14145Y4610D01*
X14950Y4610D02*
X15350Y4610D01*
X16155Y4610D02*
X27402Y4610D01*
X0598Y4659D02*
X2001Y4659D01*
X2899Y4659D02*
X4541Y4659D01*
X5439Y4659D02*
X7081Y4659D01*
X7979Y4659D02*
X9621Y4659D01*
X10519Y4659D02*
X12161Y4659D01*
X13059Y4659D02*
X14069Y4659D01*
X14950Y4659D02*
X15350Y4659D01*
X16231Y4659D02*
X27402Y4659D01*
X0598Y4709D02*
X1884Y4709D01*
X3016Y4709D02*
X4424Y4709D01*
X5556Y4709D02*
X6964Y4709D01*
X8096Y4709D02*
X9504Y4709D01*
X10636Y4709D02*
X12044Y4709D01*
X13176Y4709D02*
X14018Y4709D01*
X14950Y4709D02*
X15350Y4709D01*
X16282Y4709D02*
X27402Y4709D01*
X0598Y4758D02*
X1805Y4758D01*
X3095Y4758D02*
X4345Y4758D01*
X5635Y4758D02*
X6885Y4758D01*
X8175Y4758D02*
X9425Y4758D01*
X10715Y4758D02*
X11965Y4758D01*
X13255Y4758D02*
X13981Y4758D01*
X14950Y4758D02*
X15350Y4758D01*
X16319Y4758D02*
X27402Y4758D01*
X0598Y4808D02*
X1727Y4808D01*
X3173Y4808D02*
X4267Y4808D01*
X5713Y4808D02*
X6807Y4808D01*
X8253Y4808D02*
X9347Y4808D01*
X10793Y4808D02*
X11887Y4808D01*
X13333Y4808D02*
X13954Y4808D01*
X14950Y4808D02*
X15350Y4808D01*
X16346Y4808D02*
X27402Y4808D01*
X0598Y4857D02*
X1660Y4857D01*
X3240Y4857D02*
X4200Y4857D01*
X5780Y4857D02*
X6740Y4857D01*
X8320Y4857D02*
X9280Y4857D01*
X10860Y4857D02*
X11820Y4857D01*
X13400Y4857D02*
X13935Y4857D01*
X14950Y4857D02*
X15350Y4857D01*
X16365Y4857D02*
X27402Y4857D01*
X0598Y4907D02*
X1611Y4907D01*
X3289Y4907D02*
X4151Y4907D01*
X5829Y4907D02*
X6691Y4907D01*
X8369Y4907D02*
X9231Y4907D01*
X10909Y4907D02*
X11771Y4907D01*
X13449Y4907D02*
X13923Y4907D01*
X14950Y4907D02*
X15350Y4907D01*
X16377Y4907D02*
X27402Y4907D01*
X0598Y4957D02*
X1561Y4957D01*
X3339Y4957D02*
X4101Y4957D01*
X5879Y4957D02*
X6641Y4957D01*
X8419Y4957D02*
X9181Y4957D01*
X10959Y4957D02*
X11721Y4957D01*
X13499Y4957D02*
X13919Y4957D01*
X14950Y4957D02*
X15350Y4957D01*
X16381Y4957D02*
X27402Y4957D01*
X0598Y5006D02*
X1512Y5006D01*
X3388Y5006D02*
X4052Y5006D01*
X5928Y5006D02*
X6592Y5006D01*
X8468Y5006D02*
X9132Y5006D01*
X11008Y5006D02*
X11672Y5006D01*
X13548Y5006D02*
X13917Y5006D01*
X14950Y5006D02*
X15350Y5006D01*
X16383Y5006D02*
X27402Y5006D01*
X0598Y5056D02*
X1471Y5056D01*
X3429Y5056D02*
X4011Y5056D01*
X5969Y5056D02*
X6551Y5056D01*
X8509Y5056D02*
X9091Y5056D01*
X11049Y5056D02*
X11631Y5056D01*
X13589Y5056D02*
X13917Y5056D01*
X14950Y5056D02*
X15350Y5056D01*
X16383Y5056D02*
X27402Y5056D01*
X0598Y5105D02*
X1440Y5105D01*
X3460Y5105D02*
X3980Y5105D01*
X6000Y5105D02*
X6520Y5105D01*
X8540Y5105D02*
X9060Y5105D01*
X11080Y5105D02*
X11600Y5105D01*
X13620Y5105D02*
X13917Y5105D01*
X16383Y5105D02*
X27402Y5105D01*
X0598Y5155D02*
X1409Y5155D01*
X3491Y5155D02*
X3949Y5155D01*
X6031Y5155D02*
X6489Y5155D01*
X8571Y5155D02*
X9029Y5155D01*
X11111Y5155D02*
X11569Y5155D01*
X13651Y5155D02*
X13917Y5155D01*
X16383Y5155D02*
X27402Y5155D01*
X0598Y5204D02*
X1378Y5204D01*
X3522Y5204D02*
X3918Y5204D01*
X6062Y5204D02*
X6458Y5204D01*
X8602Y5204D02*
X8998Y5204D01*
X11142Y5204D02*
X11538Y5204D01*
X13682Y5204D02*
X13917Y5204D01*
X16383Y5204D02*
X27402Y5204D01*
X0598Y5254D02*
X1347Y5254D01*
X3553Y5254D02*
X3887Y5254D01*
X6093Y5254D02*
X6427Y5254D01*
X8633Y5254D02*
X8967Y5254D01*
X11173Y5254D02*
X11507Y5254D01*
X13713Y5254D02*
X13917Y5254D01*
X16383Y5254D02*
X27402Y5254D01*
X0598Y5303D02*
X1326Y5303D01*
X3574Y5303D02*
X3866Y5303D01*
X6114Y5303D02*
X6406Y5303D01*
X8654Y5303D02*
X8946Y5303D01*
X11194Y5303D02*
X11486Y5303D01*
X13734Y5303D02*
X13917Y5303D01*
X16383Y5303D02*
X27402Y5303D01*
X0598Y5353D02*
X1309Y5353D01*
X3591Y5353D02*
X3849Y5353D01*
X6131Y5353D02*
X6389Y5353D01*
X8671Y5353D02*
X8929Y5353D01*
X11211Y5353D02*
X11469Y5353D01*
X13751Y5353D02*
X13917Y5353D01*
X16383Y5353D02*
X27402Y5353D01*
X0598Y5402D02*
X1291Y5402D01*
X3609Y5402D02*
X3831Y5402D01*
X6149Y5402D02*
X6371Y5402D01*
X8689Y5402D02*
X8911Y5402D01*
X11229Y5402D02*
X11451Y5402D01*
X13769Y5402D02*
X13917Y5402D01*
X16383Y5402D02*
X27402Y5402D01*
X0598Y5452D02*
X1274Y5452D01*
X3626Y5452D02*
X3814Y5452D01*
X6166Y5452D02*
X6354Y5452D01*
X8706Y5452D02*
X8894Y5452D01*
X11246Y5452D02*
X11434Y5452D01*
X13786Y5452D02*
X13917Y5452D01*
X16383Y5452D02*
X27402Y5452D01*
X0598Y5501D02*
X1257Y5501D01*
X3643Y5501D02*
X3797Y5501D01*
X6183Y5501D02*
X6337Y5501D01*
X8723Y5501D02*
X8877Y5501D01*
X11263Y5501D02*
X11417Y5501D01*
X13803Y5501D02*
X13917Y5501D01*
X16383Y5501D02*
X27402Y5501D01*
X0598Y5551D02*
X1245Y5551D01*
X3655Y5551D02*
X3785Y5551D01*
X6195Y5551D02*
X6325Y5551D01*
X8735Y5551D02*
X8865Y5551D01*
X11275Y5551D02*
X11405Y5551D01*
X16383Y5551D02*
X27402Y5551D01*
X0598Y5600D02*
X1240Y5600D01*
X3660Y5600D02*
X3780Y5600D01*
X6200Y5600D02*
X6320Y5600D01*
X8740Y5600D02*
X8860Y5600D01*
X11280Y5600D02*
X11400Y5600D01*
X15874Y5600D02*
X27402Y5600D01*
X0598Y5650D02*
X1234Y5650D01*
X15874Y5650D02*
X27402Y5650D01*
X0598Y5699D02*
X1229Y5699D01*
X15874Y5699D02*
X27402Y5699D01*
X0598Y5749D02*
X1223Y5749D01*
X15874Y5749D02*
X27402Y5749D01*
X0598Y5799D02*
X1218Y5799D01*
X15874Y5799D02*
X27402Y5799D01*
X0598Y5848D02*
X1223Y5848D01*
X15874Y5848D02*
X27402Y5848D01*
X0598Y5898D02*
X1228Y5898D01*
X15874Y5898D02*
X27402Y5898D01*
X0598Y5947D02*
X1234Y5947D01*
X15874Y5947D02*
X27402Y5947D01*
X0598Y5997D02*
X1240Y5997D01*
X3660Y5997D02*
X3780Y5997D01*
X6200Y5997D02*
X6320Y5997D01*
X8740Y5997D02*
X8860Y5997D01*
X11280Y5997D02*
X11400Y5997D01*
X15874Y5997D02*
X27402Y5997D01*
X0598Y6046D02*
X1245Y6046D01*
X3655Y6046D02*
X3785Y6046D01*
X6195Y6046D02*
X6325Y6046D01*
X8735Y6046D02*
X8865Y6046D01*
X11275Y6046D02*
X11405Y6046D01*
X16383Y6046D02*
X27402Y6046D01*
X0598Y6096D02*
X1256Y6096D01*
X3644Y6096D02*
X3796Y6096D01*
X6184Y6096D02*
X6336Y6096D01*
X8724Y6096D02*
X8876Y6096D01*
X11264Y6096D02*
X11416Y6096D01*
X13804Y6096D02*
X13917Y6096D01*
X16383Y6096D02*
X27402Y6096D01*
X0598Y6145D02*
X1273Y6145D01*
X3627Y6145D02*
X3813Y6145D01*
X6167Y6145D02*
X6353Y6145D01*
X8707Y6145D02*
X8893Y6145D01*
X11247Y6145D02*
X11433Y6145D01*
X13787Y6145D02*
X13917Y6145D01*
X16383Y6145D02*
X27402Y6145D01*
X0598Y6195D02*
X1290Y6195D01*
X3610Y6195D02*
X3830Y6195D01*
X6150Y6195D02*
X6370Y6195D01*
X8690Y6195D02*
X8910Y6195D01*
X11230Y6195D02*
X11450Y6195D01*
X13770Y6195D02*
X13917Y6195D01*
X16383Y6195D02*
X24140Y6195D01*
X26290Y6195D02*
X27402Y6195D01*
X0598Y6244D02*
X1308Y6244D01*
X3592Y6244D02*
X3848Y6244D01*
X6132Y6244D02*
X6388Y6244D01*
X8672Y6244D02*
X8928Y6244D01*
X11212Y6244D02*
X11468Y6244D01*
X13752Y6244D02*
X13917Y6244D01*
X16383Y6244D02*
X24009Y6244D01*
X26421Y6244D02*
X27402Y6244D01*
X0598Y6294D02*
X1325Y6294D01*
X3575Y6294D02*
X3865Y6294D01*
X6115Y6294D02*
X6405Y6294D01*
X8655Y6294D02*
X8945Y6294D01*
X11195Y6294D02*
X11485Y6294D01*
X13735Y6294D02*
X13917Y6294D01*
X16383Y6294D02*
X23942Y6294D01*
X26489Y6294D02*
X27402Y6294D01*
X0598Y6343D02*
X1345Y6343D01*
X3555Y6343D02*
X3885Y6343D01*
X6095Y6343D02*
X6425Y6343D01*
X8635Y6343D02*
X8965Y6343D01*
X11175Y6343D02*
X11505Y6343D01*
X13715Y6343D02*
X13917Y6343D01*
X16383Y6343D02*
X23895Y6343D01*
X26535Y6343D02*
X27402Y6343D01*
X0598Y6393D02*
X1376Y6393D01*
X3524Y6393D02*
X3916Y6393D01*
X6064Y6393D02*
X6456Y6393D01*
X8604Y6393D02*
X8996Y6393D01*
X11144Y6393D02*
X11536Y6393D01*
X13684Y6393D02*
X13917Y6393D01*
X16383Y6393D02*
X23862Y6393D01*
X26568Y6393D02*
X27402Y6393D01*
X0598Y6442D02*
X1407Y6442D01*
X3493Y6442D02*
X3947Y6442D01*
X6033Y6442D02*
X6487Y6442D01*
X8573Y6442D02*
X9027Y6442D01*
X11113Y6442D02*
X11567Y6442D01*
X13653Y6442D02*
X13917Y6442D01*
X16383Y6442D02*
X23838Y6442D01*
X26592Y6442D02*
X27402Y6442D01*
X0598Y6492D02*
X1438Y6492D01*
X3462Y6492D02*
X3978Y6492D01*
X6002Y6492D02*
X6518Y6492D01*
X8542Y6492D02*
X9058Y6492D01*
X11082Y6492D02*
X11598Y6492D01*
X13622Y6492D02*
X13917Y6492D01*
X16383Y6492D02*
X23822Y6492D01*
X26608Y6492D02*
X27402Y6492D01*
X0598Y6542D02*
X1469Y6542D01*
X3431Y6542D02*
X4009Y6542D01*
X5971Y6542D02*
X6549Y6542D01*
X8511Y6542D02*
X9089Y6542D01*
X11051Y6542D02*
X11629Y6542D01*
X13591Y6542D02*
X13917Y6542D01*
X14950Y6542D02*
X15350Y6542D01*
X16383Y6542D02*
X23812Y6542D01*
X26619Y6542D02*
X27402Y6542D01*
X0598Y6591D02*
X1509Y6591D01*
X3391Y6591D02*
X4049Y6591D01*
X5931Y6591D02*
X6589Y6591D01*
X8471Y6591D02*
X9129Y6591D01*
X11011Y6591D02*
X11669Y6591D01*
X13551Y6591D02*
X13917Y6591D01*
X14950Y6591D02*
X15350Y6591D01*
X16383Y6591D02*
X23808Y6591D01*
X26623Y6591D02*
X27402Y6591D01*
X0598Y6641D02*
X1558Y6641D01*
X3342Y6641D02*
X4098Y6641D01*
X5882Y6641D02*
X6638Y6641D01*
X8422Y6641D02*
X9178Y6641D01*
X10962Y6641D02*
X11718Y6641D01*
X13502Y6641D02*
X13919Y6641D01*
X14950Y6641D02*
X15350Y6641D01*
X16381Y6641D02*
X23808Y6641D01*
X26623Y6641D02*
X27402Y6641D01*
X0598Y6690D02*
X1608Y6690D01*
X3292Y6690D02*
X4148Y6690D01*
X5832Y6690D02*
X6688Y6690D01*
X8372Y6690D02*
X9228Y6690D01*
X10912Y6690D02*
X11768Y6690D01*
X13452Y6690D02*
X13923Y6690D01*
X14950Y6690D02*
X15350Y6690D01*
X16377Y6690D02*
X23808Y6690D01*
X26623Y6690D02*
X27402Y6690D01*
X0598Y6740D02*
X1657Y6740D01*
X3243Y6740D02*
X4197Y6740D01*
X5783Y6740D02*
X6737Y6740D01*
X8323Y6740D02*
X9277Y6740D01*
X10863Y6740D02*
X11817Y6740D01*
X13403Y6740D02*
X13935Y6740D01*
X14950Y6740D02*
X15350Y6740D01*
X16365Y6740D02*
X23808Y6740D01*
X26623Y6740D02*
X27402Y6740D01*
X0598Y6789D02*
X1722Y6789D01*
X3178Y6789D02*
X4262Y6789D01*
X5718Y6789D02*
X6802Y6789D01*
X8258Y6789D02*
X9342Y6789D01*
X10798Y6789D02*
X11882Y6789D01*
X13338Y6789D02*
X13953Y6789D01*
X14950Y6789D02*
X15350Y6789D01*
X16347Y6789D02*
X23808Y6789D01*
X26623Y6789D02*
X27402Y6789D01*
X0598Y6839D02*
X1801Y6839D01*
X3099Y6839D02*
X4341Y6839D01*
X5639Y6839D02*
X6881Y6839D01*
X8179Y6839D02*
X9421Y6839D01*
X10719Y6839D02*
X11961Y6839D01*
X13259Y6839D02*
X13979Y6839D01*
X14950Y6839D02*
X15350Y6839D01*
X16321Y6839D02*
X23808Y6839D01*
X26623Y6839D02*
X27402Y6839D01*
X0598Y6888D02*
X1880Y6888D01*
X3020Y6888D02*
X4420Y6888D01*
X5560Y6888D02*
X6960Y6888D01*
X8100Y6888D02*
X9500Y6888D01*
X10640Y6888D02*
X12040Y6888D01*
X13180Y6888D02*
X14015Y6888D01*
X14950Y6888D02*
X15350Y6888D01*
X16285Y6888D02*
X23808Y6888D01*
X26623Y6888D02*
X27402Y6888D01*
X0598Y6938D02*
X1993Y6938D01*
X2907Y6938D02*
X4533Y6938D01*
X5447Y6938D02*
X7073Y6938D01*
X7987Y6938D02*
X9613Y6938D01*
X10527Y6938D02*
X12153Y6938D01*
X13067Y6938D02*
X14065Y6938D01*
X14950Y6938D02*
X15350Y6938D01*
X16235Y6938D02*
X23808Y6938D01*
X26623Y6938D02*
X27402Y6938D01*
X0598Y6987D02*
X2134Y6987D01*
X2766Y6987D02*
X4674Y6987D01*
X5306Y6987D02*
X7214Y6987D01*
X7846Y6987D02*
X9754Y6987D01*
X10386Y6987D02*
X12294Y6987D01*
X12926Y6987D02*
X14138Y6987D01*
X14950Y6987D02*
X15350Y6987D01*
X16162Y6987D02*
X23808Y6987D01*
X26623Y6987D02*
X27402Y6987D01*
X0598Y7037D02*
X23808Y7037D01*
X26623Y7037D02*
X27402Y7037D01*
X0598Y7086D02*
X23808Y7086D01*
X26623Y7086D02*
X27402Y7086D01*
X0598Y7136D02*
X23808Y7136D01*
X26623Y7136D02*
X27402Y7136D01*
X0598Y7185D02*
X23808Y7185D01*
X26623Y7185D02*
X27402Y7185D01*
X0598Y7235D02*
X23808Y7235D01*
X26623Y7235D02*
X27402Y7235D01*
X0598Y7284D02*
X23808Y7284D01*
X26623Y7284D02*
X27402Y7284D01*
X0598Y7334D02*
X23808Y7334D01*
X26623Y7334D02*
X27402Y7334D01*
X0598Y7384D02*
X23808Y7384D01*
X26623Y7384D02*
X27402Y7384D01*
X0598Y7433D02*
X23808Y7433D01*
X26623Y7433D02*
X27402Y7433D01*
X0598Y7483D02*
X23808Y7483D01*
X26623Y7483D02*
X27402Y7483D01*
X0598Y7532D02*
X23808Y7532D01*
X26623Y7532D02*
X27402Y7532D01*
X0598Y7582D02*
X23808Y7582D01*
X26623Y7582D02*
X27402Y7582D01*
X0598Y7631D02*
X23808Y7631D01*
X26623Y7631D02*
X27402Y7631D01*
X0598Y7681D02*
X23808Y7681D01*
X26623Y7681D02*
X27402Y7681D01*
X0598Y7730D02*
X23808Y7730D01*
X26623Y7730D02*
X27402Y7730D01*
X0598Y7780D02*
X23808Y7780D01*
X26623Y7780D02*
X27402Y7780D01*
X0598Y7829D02*
X23808Y7829D01*
X26623Y7829D02*
X27402Y7829D01*
X0598Y7879D02*
X23808Y7879D01*
X26623Y7879D02*
X27402Y7879D01*
X0598Y7928D02*
X23808Y7928D01*
X26623Y7928D02*
X27402Y7928D01*
X0598Y7978D02*
X23808Y7978D01*
X26623Y7978D02*
X27402Y7978D01*
X0598Y8027D02*
X23808Y8027D01*
X26623Y8027D02*
X27402Y8027D01*
X0598Y8077D02*
X23808Y8077D01*
X26623Y8077D02*
X27402Y8077D01*
X0598Y8126D02*
X23808Y8126D01*
X26623Y8126D02*
X27402Y8126D01*
X0598Y8176D02*
X23808Y8176D01*
X26623Y8176D02*
X27402Y8176D01*
X0598Y8226D02*
X23808Y8226D01*
X26623Y8226D02*
X27402Y8226D01*
X0598Y8275D02*
X23808Y8275D01*
X26623Y8275D02*
X27402Y8275D01*
X0598Y8325D02*
X23808Y8325D01*
X26623Y8325D02*
X27402Y8325D01*
X0598Y8374D02*
X23808Y8374D01*
X26623Y8374D02*
X27402Y8374D01*
X0598Y8424D02*
X23808Y8424D01*
X26623Y8424D02*
X27402Y8424D01*
X0598Y8473D02*
X23808Y8473D01*
X26623Y8473D02*
X27402Y8473D01*
X0598Y8523D02*
X23808Y8523D01*
X26623Y8523D02*
X27402Y8523D01*
X0598Y8572D02*
X23808Y8572D01*
X26623Y8572D02*
X27402Y8572D01*
X0598Y8622D02*
X23810Y8622D01*
X26621Y8622D02*
X27402Y8622D01*
X0598Y8671D02*
X23816Y8671D01*
X26615Y8671D02*
X27402Y8671D01*
X0598Y8721D02*
X23828Y8721D01*
X26603Y8721D02*
X27402Y8721D01*
X0598Y8770D02*
X23848Y8770D01*
X26582Y8770D02*
X27402Y8770D01*
X0598Y8820D02*
X23876Y8820D01*
X26554Y8820D02*
X27402Y8820D01*
X0598Y8869D02*
X23915Y8869D01*
X26515Y8869D02*
X27402Y8869D01*
X0598Y8919D02*
X23969Y8919D01*
X26461Y8919D02*
X27402Y8919D01*
X0598Y8968D02*
X24055Y8968D01*
X26375Y8968D02*
X27402Y8968D01*
X0598Y9018D02*
X27402Y9018D01*
X0598Y9068D02*
X27402Y9068D01*
X0598Y9117D02*
X27402Y9117D01*
X0598Y9167D02*
X27402Y9167D01*
X0598Y9216D02*
X27402Y9216D01*
X0598Y9266D02*
X27402Y9266D01*
X0598Y9315D02*
X27402Y9315D01*
X0598Y9365D02*
X27402Y9365D01*
X0598Y9414D02*
X27402Y9414D01*
X0598Y9464D02*
X27402Y9464D01*
X0598Y9513D02*
X27402Y9513D01*
X0598Y9563D02*
X27402Y9563D01*
X0598Y9612D02*
X27402Y9612D01*
X0598Y9662D02*
X27402Y9662D01*
X0598Y9711D02*
X27402Y9711D01*
X0598Y9761D02*
X27402Y9761D01*
X0598Y9810D02*
X27402Y9810D01*
X0598Y9860D02*
X27402Y9860D01*
X0598Y9910D02*
X27402Y9910D01*
X0598Y9959D02*
X27402Y9959D01*
X0598Y10009D02*
X27402Y10009D01*
X0598Y10058D02*
X27402Y10058D01*
X0598Y10108D02*
X27402Y10108D01*
X0598Y10157D02*
X27402Y10157D01*
X0598Y10207D02*
X27402Y10207D01*
X0598Y10256D02*
X27402Y10256D01*
X0598Y10306D02*
X27402Y10306D01*
X0598Y10355D02*
X27402Y10355D01*
X0598Y10405D02*
X27402Y10405D01*
X0598Y10454D02*
X27402Y10454D01*
X0598Y10504D02*
X27402Y10504D01*
X0598Y10553D02*
X27402Y10553D01*
X0598Y10603D02*
X27402Y10603D01*
X0598Y10652D02*
X27402Y10652D01*
X0598Y10702D02*
X27402Y10702D01*
X0598Y10752D02*
X27402Y10752D01*
X0598Y10801D02*
X27402Y10801D01*
X0598Y10851D02*
X27402Y10851D01*
X0598Y10900D02*
X27402Y10900D01*
X0598Y10950D02*
X27402Y10950D01*
X0598Y10999D02*
X27402Y10999D01*
X0598Y11049D02*
X27402Y11049D01*
X0598Y11098D02*
X27402Y11098D01*
X0598Y11148D02*
X27402Y11148D01*
X0598Y11197D02*
X27402Y11197D01*
X0598Y11247D02*
X27402Y11247D01*
X0598Y11296D02*
X27402Y11296D01*
X0598Y11346D02*
X27402Y11346D01*
X0598Y11395D02*
X27402Y11395D01*
X4220Y11445D02*
X23780Y11445D01*
X4317Y11495D02*
X23683Y11495D01*
X4382Y11544D02*
X23618Y11544D01*
X4436Y11594D02*
X23564Y11594D01*
X4477Y11643D02*
X23523Y11643D01*
X4510Y11693D02*
X23490Y11693D01*
X4537Y11742D02*
X23463Y11742D01*
X4559Y11792D02*
X23441Y11792D01*
X4574Y11841D02*
X23426Y11841D01*
X4587Y11891D02*
X23413Y11891D01*
X4592Y11940D02*
X23408Y11940D01*
X4597Y11990D02*
X23403Y11990D01*
X4598Y12039D02*
X8416Y12039D01*
X9584Y12039D02*
X10416Y12039D01*
X11584Y12039D02*
X12416Y12039D01*
X13584Y12039D02*
X14416Y12039D01*
X15584Y12039D02*
X16416Y12039D01*
X17584Y12039D02*
X18416Y12039D01*
X19584Y12039D02*
X23402Y12039D01*
X4598Y12089D02*
X8319Y12089D01*
X9681Y12089D02*
X10319Y12089D01*
X11681Y12089D02*
X12319Y12089D01*
X13681Y12089D02*
X14319Y12089D01*
X15681Y12089D02*
X16319Y12089D01*
X17681Y12089D02*
X18319Y12089D01*
X19681Y12089D02*
X23402Y12089D01*
X4598Y12138D02*
X8259Y12138D01*
X9741Y12138D02*
X10259Y12138D01*
X11741Y12138D02*
X12259Y12138D01*
X13741Y12138D02*
X14259Y12138D01*
X15741Y12138D02*
X16259Y12138D01*
X17741Y12138D02*
X18259Y12138D01*
X19741Y12138D02*
X23402Y12138D01*
X4598Y12188D02*
X8218Y12188D01*
X9782Y12188D02*
X10218Y12188D01*
X11782Y12188D02*
X12218Y12188D01*
X13782Y12188D02*
X14218Y12188D01*
X15782Y12188D02*
X16218Y12188D01*
X17782Y12188D02*
X18218Y12188D01*
X19782Y12188D02*
X23402Y12188D01*
X4598Y12237D02*
X8188Y12237D01*
X9812Y12237D02*
X10188Y12237D01*
X11812Y12237D02*
X12188Y12237D01*
X13812Y12237D02*
X14188Y12237D01*
X15812Y12237D02*
X16188Y12237D01*
X17812Y12237D02*
X18188Y12237D01*
X19812Y12237D02*
X23402Y12237D01*
X4598Y12287D02*
X8167Y12287D01*
X9833Y12287D02*
X10167Y12287D01*
X11833Y12287D02*
X12167Y12287D01*
X13833Y12287D02*
X14167Y12287D01*
X15833Y12287D02*
X16167Y12287D01*
X17833Y12287D02*
X18167Y12287D01*
X19833Y12287D02*
X23402Y12287D01*
X4598Y12337D02*
X8153Y12337D01*
X9847Y12337D02*
X10153Y12337D01*
X11847Y12337D02*
X12153Y12337D01*
X13847Y12337D02*
X14153Y12337D01*
X15847Y12337D02*
X16153Y12337D01*
X17847Y12337D02*
X18153Y12337D01*
X19847Y12337D02*
X23402Y12337D01*
X4598Y12386D02*
X8145Y12386D01*
X9855Y12386D02*
X10145Y12386D01*
X11855Y12386D02*
X12145Y12386D01*
X13855Y12386D02*
X14145Y12386D01*
X15855Y12386D02*
X16145Y12386D01*
X17855Y12386D02*
X18145Y12386D01*
X19855Y12386D02*
X23402Y12386D01*
X4598Y12436D02*
X8142Y12436D01*
X9858Y12436D02*
X10142Y12436D01*
X11858Y12436D02*
X12142Y12436D01*
X13858Y12436D02*
X14142Y12436D01*
X15858Y12436D02*
X16142Y12436D01*
X17858Y12436D02*
X18142Y12436D01*
X19858Y12436D02*
X23402Y12436D01*
X4598Y12485D02*
X8142Y12485D01*
X9858Y12485D02*
X10142Y12485D01*
X11858Y12485D02*
X12142Y12485D01*
X13858Y12485D02*
X14142Y12485D01*
X15858Y12485D02*
X16142Y12485D01*
X17858Y12485D02*
X18142Y12485D01*
X19858Y12485D02*
X23402Y12485D01*
X4598Y12535D02*
X8142Y12535D01*
X9858Y12535D02*
X10142Y12535D01*
X11858Y12535D02*
X12142Y12535D01*
X13858Y12535D02*
X14142Y12535D01*
X15858Y12535D02*
X16142Y12535D01*
X17858Y12535D02*
X18142Y12535D01*
X19858Y12535D02*
X23402Y12535D01*
X4598Y12584D02*
X8142Y12584D01*
X9858Y12584D02*
X10142Y12584D01*
X11858Y12584D02*
X12142Y12584D01*
X13858Y12584D02*
X14142Y12584D01*
X15858Y12584D02*
X16142Y12584D01*
X17858Y12584D02*
X18142Y12584D01*
X19858Y12584D02*
X23402Y12584D01*
X4598Y12634D02*
X8142Y12634D01*
X9858Y12634D02*
X10142Y12634D01*
X11858Y12634D02*
X12142Y12634D01*
X13858Y12634D02*
X14142Y12634D01*
X15858Y12634D02*
X16142Y12634D01*
X17858Y12634D02*
X18142Y12634D01*
X19858Y12634D02*
X23402Y12634D01*
X4598Y12683D02*
X8142Y12683D01*
X9858Y12683D02*
X10142Y12683D01*
X11858Y12683D02*
X12142Y12683D01*
X13858Y12683D02*
X14142Y12683D01*
X15858Y12683D02*
X16142Y12683D01*
X17858Y12683D02*
X18142Y12683D01*
X19858Y12683D02*
X23402Y12683D01*
X4598Y12733D02*
X8142Y12733D01*
X9858Y12733D02*
X10142Y12733D01*
X11858Y12733D02*
X12142Y12733D01*
X13858Y12733D02*
X14142Y12733D01*
X15858Y12733D02*
X16142Y12733D01*
X17858Y12733D02*
X18142Y12733D01*
X19858Y12733D02*
X23402Y12733D01*
X4598Y12782D02*
X8142Y12782D01*
X9858Y12782D02*
X10142Y12782D01*
X11858Y12782D02*
X12142Y12782D01*
X13858Y12782D02*
X14142Y12782D01*
X15858Y12782D02*
X16142Y12782D01*
X17858Y12782D02*
X18142Y12782D01*
X19858Y12782D02*
X23402Y12782D01*
X4598Y12832D02*
X8142Y12832D01*
X9858Y12832D02*
X10142Y12832D01*
X11858Y12832D02*
X12142Y12832D01*
X13858Y12832D02*
X14142Y12832D01*
X15858Y12832D02*
X16142Y12832D01*
X17858Y12832D02*
X18142Y12832D01*
X19858Y12832D02*
X23402Y12832D01*
X4598Y12881D02*
X8142Y12881D01*
X9858Y12881D02*
X10142Y12881D01*
X11858Y12881D02*
X12142Y12881D01*
X13858Y12881D02*
X14142Y12881D01*
X15858Y12881D02*
X16142Y12881D01*
X17858Y12881D02*
X18142Y12881D01*
X19858Y12881D02*
X23402Y12881D01*
X4598Y12931D02*
X8142Y12931D01*
X9858Y12931D02*
X10142Y12931D01*
X11858Y12931D02*
X12142Y12931D01*
X13858Y12931D02*
X14142Y12931D01*
X15858Y12931D02*
X16142Y12931D01*
X17858Y12931D02*
X18142Y12931D01*
X19858Y12931D02*
X23402Y12931D01*
X4598Y12980D02*
X8142Y12980D01*
X9858Y12980D02*
X10142Y12980D01*
X11858Y12980D02*
X12142Y12980D01*
X13858Y12980D02*
X14142Y12980D01*
X15858Y12980D02*
X16142Y12980D01*
X17858Y12980D02*
X18142Y12980D01*
X19858Y12980D02*
X23402Y12980D01*
X4598Y13030D02*
X8142Y13030D01*
X9858Y13030D02*
X10142Y13030D01*
X11858Y13030D02*
X12142Y13030D01*
X13858Y13030D02*
X14142Y13030D01*
X15858Y13030D02*
X16142Y13030D01*
X17858Y13030D02*
X18142Y13030D01*
X19858Y13030D02*
X23402Y13030D01*
X4598Y13079D02*
X8142Y13079D01*
X9858Y13079D02*
X10142Y13079D01*
X11858Y13079D02*
X12142Y13079D01*
X13858Y13079D02*
X14142Y13079D01*
X15858Y13079D02*
X16142Y13079D01*
X17858Y13079D02*
X18142Y13079D01*
X19858Y13079D02*
X23402Y13079D01*
X4598Y13129D02*
X8142Y13129D01*
X9858Y13129D02*
X10142Y13129D01*
X11858Y13129D02*
X12142Y13129D01*
X13858Y13129D02*
X14142Y13129D01*
X15858Y13129D02*
X16142Y13129D01*
X17858Y13129D02*
X18142Y13129D01*
X19858Y13129D02*
X23402Y13129D01*
X4598Y13179D02*
X8142Y13179D01*
X9858Y13179D02*
X10142Y13179D01*
X11858Y13179D02*
X12142Y13179D01*
X13858Y13179D02*
X14142Y13179D01*
X15858Y13179D02*
X16142Y13179D01*
X17858Y13179D02*
X18142Y13179D01*
X19858Y13179D02*
X23402Y13179D01*
X4598Y13228D02*
X8142Y13228D01*
X9858Y13228D02*
X10142Y13228D01*
X11858Y13228D02*
X12142Y13228D01*
X13858Y13228D02*
X14142Y13228D01*
X15858Y13228D02*
X16142Y13228D01*
X17858Y13228D02*
X18142Y13228D01*
X19858Y13228D02*
X23402Y13228D01*
X4598Y13278D02*
X8142Y13278D01*
X9858Y13278D02*
X10142Y13278D01*
X11858Y13278D02*
X12142Y13278D01*
X13858Y13278D02*
X14142Y13278D01*
X15858Y13278D02*
X16142Y13278D01*
X17858Y13278D02*
X18142Y13278D01*
X19858Y13278D02*
X23402Y13278D01*
X4598Y13327D02*
X8142Y13327D01*
X9858Y13327D02*
X10142Y13327D01*
X11858Y13327D02*
X12142Y13327D01*
X13858Y13327D02*
X14142Y13327D01*
X15858Y13327D02*
X16142Y13327D01*
X17858Y13327D02*
X18142Y13327D01*
X19858Y13327D02*
X23402Y13327D01*
X4598Y13377D02*
X8142Y13377D01*
X9858Y13377D02*
X10142Y13377D01*
X11858Y13377D02*
X12142Y13377D01*
X13858Y13377D02*
X14142Y13377D01*
X15858Y13377D02*
X16142Y13377D01*
X17858Y13377D02*
X18142Y13377D01*
X19858Y13377D02*
X23402Y13377D01*
X4598Y13426D02*
X8143Y13426D01*
X9857Y13426D02*
X10143Y13426D01*
X11857Y13426D02*
X12143Y13426D01*
X13857Y13426D02*
X14143Y13426D01*
X15857Y13426D02*
X16143Y13426D01*
X17857Y13426D02*
X18143Y13426D01*
X19857Y13426D02*
X23402Y13426D01*
X4598Y13476D02*
X8146Y13476D01*
X9854Y13476D02*
X10146Y13476D01*
X11854Y13476D02*
X12146Y13476D01*
X13854Y13476D02*
X14146Y13476D01*
X15854Y13476D02*
X16146Y13476D01*
X17854Y13476D02*
X18146Y13476D01*
X19854Y13476D02*
X23402Y13476D01*
X4598Y13525D02*
X8156Y13525D01*
X9844Y13525D02*
X10156Y13525D01*
X11844Y13525D02*
X12156Y13525D01*
X13844Y13525D02*
X14156Y13525D01*
X15844Y13525D02*
X16156Y13525D01*
X17844Y13525D02*
X18156Y13525D01*
X19844Y13525D02*
X23402Y13525D01*
X4598Y13575D02*
X8173Y13575D01*
X9827Y13575D02*
X10173Y13575D01*
X11827Y13575D02*
X12173Y13575D01*
X13827Y13575D02*
X14173Y13575D01*
X15827Y13575D02*
X16173Y13575D01*
X17827Y13575D02*
X18173Y13575D01*
X19827Y13575D02*
X23402Y13575D01*
X4598Y13624D02*
X8196Y13624D01*
X9804Y13624D02*
X10196Y13624D01*
X11804Y13624D02*
X12196Y13624D01*
X13804Y13624D02*
X14196Y13624D01*
X15804Y13624D02*
X16196Y13624D01*
X17804Y13624D02*
X18196Y13624D01*
X19804Y13624D02*
X23402Y13624D01*
X4598Y13674D02*
X8229Y13674D01*
X9771Y13674D02*
X10229Y13674D01*
X11771Y13674D02*
X12229Y13674D01*
X13771Y13674D02*
X14229Y13674D01*
X15771Y13674D02*
X16229Y13674D01*
X17771Y13674D02*
X18229Y13674D01*
X19771Y13674D02*
X23402Y13674D01*
X4598Y13723D02*
X8275Y13723D01*
X9725Y13723D02*
X10275Y13723D01*
X11725Y13723D02*
X12275Y13723D01*
X13725Y13723D02*
X14275Y13723D01*
X15725Y13723D02*
X16275Y13723D01*
X17725Y13723D02*
X18275Y13723D01*
X19725Y13723D02*
X23402Y13723D01*
X4598Y13773D02*
X8342Y13773D01*
X9658Y13773D02*
X10342Y13773D01*
X11658Y13773D02*
X12342Y13773D01*
X13658Y13773D02*
X14342Y13773D01*
X15658Y13773D02*
X16342Y13773D01*
X17658Y13773D02*
X18342Y13773D01*
X19658Y13773D02*
X23402Y13773D01*
X4598Y13822D02*
X8469Y13822D01*
X9531Y13822D02*
X10469Y13822D01*
X11531Y13822D02*
X12469Y13822D01*
X13531Y13822D02*
X14469Y13822D01*
X15531Y13822D02*
X16469Y13822D01*
X17531Y13822D02*
X18469Y13822D01*
X19531Y13822D02*
X23402Y13822D01*
X4598Y13872D02*
X23402Y13872D01*
X4598Y13921D02*
X23402Y13921D01*
X4598Y13971D02*
X23402Y13971D01*
X4598Y14021D02*
X23402Y14021D01*
X4598Y14070D02*
X23402Y14070D01*
X4598Y14120D02*
X8765Y14120D01*
X9235Y14120D02*
X23402Y14120D01*
X4598Y14169D02*
X5462Y14169D01*
X6538Y14169D02*
X8618Y14169D01*
X9382Y14169D02*
X21462Y14169D01*
X21797Y14169D02*
X22203Y14169D01*
X22538Y14169D02*
X23402Y14169D01*
X4598Y14219D02*
X5302Y14219D01*
X6698Y14219D02*
X8524Y14219D01*
X9476Y14219D02*
X21302Y14219D01*
X21797Y14219D02*
X22203Y14219D01*
X22698Y14219D02*
X23402Y14219D01*
X4598Y14268D02*
X5232Y14268D01*
X6768Y14268D02*
X8444Y14268D01*
X9556Y14268D02*
X21232Y14268D01*
X21797Y14268D02*
X22203Y14268D01*
X22768Y14268D02*
X23402Y14268D01*
X4598Y14318D02*
X5184Y14318D01*
X6816Y14318D02*
X8388Y14318D01*
X9612Y14318D02*
X21184Y14318D01*
X21797Y14318D02*
X22203Y14318D01*
X22816Y14318D02*
X23402Y14318D01*
X4598Y14367D02*
X5150Y14367D01*
X9668Y14367D02*
X21150Y14367D01*
X21797Y14367D02*
X22203Y14367D01*
X22850Y14367D02*
X23402Y14367D01*
X4598Y14417D02*
X5125Y14417D01*
X9716Y14417D02*
X21125Y14417D01*
X21797Y14417D02*
X22203Y14417D01*
X22875Y14417D02*
X23402Y14417D01*
X4598Y14466D02*
X5108Y14466D01*
X9750Y14466D02*
X21108Y14466D01*
X21797Y14466D02*
X22203Y14466D01*
X22892Y14466D02*
X23402Y14466D01*
X4598Y14516D02*
X5097Y14516D01*
X9785Y14516D02*
X21097Y14516D01*
X21797Y14516D02*
X22203Y14516D01*
X22903Y14516D02*
X23402Y14516D01*
X4598Y14565D02*
X5093Y14565D01*
X9819Y14565D02*
X21093Y14565D01*
X21797Y14565D02*
X22203Y14565D01*
X22907Y14565D02*
X23402Y14565D01*
X4598Y14615D02*
X5092Y14615D01*
X9844Y14615D02*
X21092Y14615D01*
X21797Y14615D02*
X22203Y14615D01*
X22908Y14615D02*
X23402Y14615D01*
X4598Y14664D02*
X5092Y14664D01*
X9863Y14664D02*
X21092Y14664D01*
X21797Y14664D02*
X22203Y14664D01*
X22908Y14664D02*
X23402Y14664D01*
X4598Y14714D02*
X5092Y14714D01*
X9882Y14714D02*
X21092Y14714D01*
X22908Y14714D02*
X23402Y14714D01*
X4598Y14763D02*
X5092Y14763D01*
X9900Y14763D02*
X21092Y14763D01*
X22908Y14763D02*
X23402Y14763D01*
X4598Y14813D02*
X5092Y14813D01*
X9915Y14813D02*
X21092Y14813D01*
X22908Y14813D02*
X23402Y14813D01*
X4598Y14863D02*
X5092Y14863D01*
X9921Y14863D02*
X21601Y14863D01*
X22399Y14863D02*
X23402Y14863D01*
X4598Y14912D02*
X5092Y14912D01*
X9927Y14912D02*
X21601Y14912D01*
X22399Y14912D02*
X23402Y14912D01*
X4598Y14962D02*
X5092Y14962D01*
X9934Y14962D02*
X21601Y14962D01*
X22399Y14962D02*
X23402Y14962D01*
X4598Y15011D02*
X5092Y15011D01*
X9940Y15011D02*
X21601Y15011D01*
X22399Y15011D02*
X23402Y15011D01*
X4598Y15061D02*
X5092Y15061D01*
X9937Y15061D02*
X21601Y15061D01*
X22399Y15061D02*
X23402Y15061D01*
X4598Y15110D02*
X5092Y15110D01*
X9931Y15110D02*
X21601Y15110D01*
X22399Y15110D02*
X23402Y15110D01*
X4598Y15160D02*
X5092Y15160D01*
X9925Y15160D02*
X21601Y15160D01*
X22399Y15160D02*
X23402Y15160D01*
X4598Y15209D02*
X5092Y15209D01*
X9919Y15209D02*
X21601Y15209D01*
X22399Y15209D02*
X23402Y15209D01*
X4598Y15259D02*
X5092Y15259D01*
X9910Y15259D02*
X21092Y15259D01*
X22908Y15259D02*
X23402Y15259D01*
X4598Y15308D02*
X5092Y15308D01*
X9891Y15308D02*
X21092Y15308D01*
X22908Y15308D02*
X23402Y15308D01*
X4598Y15358D02*
X5092Y15358D01*
X9872Y15358D02*
X21092Y15358D01*
X22908Y15358D02*
X23402Y15358D01*
X4598Y15407D02*
X5092Y15407D01*
X9854Y15407D02*
X21092Y15407D01*
X21797Y15407D02*
X22203Y15407D01*
X22908Y15407D02*
X23402Y15407D01*
X4598Y15457D02*
X5092Y15457D01*
X9835Y15457D02*
X21092Y15457D01*
X21797Y15457D02*
X22203Y15457D01*
X22908Y15457D02*
X23402Y15457D01*
X4598Y15506D02*
X5095Y15506D01*
X9802Y15506D02*
X21095Y15506D01*
X21797Y15506D02*
X22203Y15506D01*
X22905Y15506D02*
X23402Y15506D01*
X4598Y15556D02*
X5102Y15556D01*
X9768Y15556D02*
X21102Y15556D01*
X21797Y15556D02*
X22203Y15556D01*
X22898Y15556D02*
X23402Y15556D01*
X4598Y15605D02*
X5115Y15605D01*
X9734Y15605D02*
X21115Y15605D01*
X21797Y15605D02*
X22203Y15605D01*
X22885Y15605D02*
X23402Y15605D01*
X4598Y15655D02*
X5135Y15655D01*
X9696Y15655D02*
X21135Y15655D01*
X21797Y15655D02*
X22203Y15655D01*
X22865Y15655D02*
X23402Y15655D01*
X4598Y15705D02*
X5165Y15705D01*
X6835Y15705D02*
X8360Y15705D01*
X9640Y15705D02*
X21165Y15705D01*
X21797Y15705D02*
X22203Y15705D01*
X22835Y15705D02*
X23402Y15705D01*
X4598Y15754D02*
X5205Y15754D01*
X6795Y15754D02*
X8416Y15754D01*
X9584Y15754D02*
X21205Y15754D01*
X21797Y15754D02*
X22203Y15754D01*
X22795Y15754D02*
X23402Y15754D01*
X4598Y15804D02*
X5260Y15804D01*
X6740Y15804D02*
X8476Y15804D01*
X9524Y15804D02*
X21260Y15804D01*
X21797Y15804D02*
X22203Y15804D01*
X22740Y15804D02*
X23402Y15804D01*
X4598Y15853D02*
X5354Y15853D01*
X6646Y15853D02*
X8570Y15853D01*
X9430Y15853D02*
X21354Y15853D01*
X21797Y15853D02*
X22203Y15853D01*
X22646Y15853D02*
X23402Y15853D01*
X4598Y15903D02*
X8664Y15903D01*
X9336Y15903D02*
X23402Y15903D01*
X4598Y15952D02*
X8863Y15952D01*
X9137Y15952D02*
X23402Y15952D01*
X4598Y16002D02*
X23402Y16002D01*
X4598Y16051D02*
X23402Y16051D01*
X4598Y16101D02*
X23402Y16101D01*
X4598Y16150D02*
X23402Y16150D01*
X4598Y16200D02*
X5341Y16200D01*
X6659Y16200D02*
X21341Y16200D01*
X22659Y16200D02*
X23402Y16200D01*
X4598Y16249D02*
X5254Y16249D01*
X6746Y16249D02*
X21254Y16249D01*
X22746Y16249D02*
X23402Y16249D01*
X4598Y16299D02*
X5200Y16299D01*
X6800Y16299D02*
X21200Y16299D01*
X22800Y16299D02*
X23402Y16299D01*
X4598Y16348D02*
X5161Y16348D01*
X6839Y16348D02*
X21161Y16348D01*
X22839Y16348D02*
X23402Y16348D01*
X4598Y16398D02*
X5133Y16398D01*
X6867Y16398D02*
X21133Y16398D01*
X22867Y16398D02*
X23402Y16398D01*
X4598Y16448D02*
X5112Y16448D01*
X6888Y16448D02*
X21112Y16448D01*
X22888Y16448D02*
X23402Y16448D01*
X4598Y16497D02*
X5100Y16497D01*
X6900Y16497D02*
X21100Y16497D01*
X22900Y16497D02*
X23402Y16497D01*
X4598Y16547D02*
X5094Y16547D01*
X6906Y16547D02*
X21094Y16547D01*
X22906Y16547D02*
X23402Y16547D01*
X4598Y16596D02*
X5092Y16596D01*
X6908Y16596D02*
X21092Y16596D01*
X22908Y16596D02*
X23402Y16596D01*
X4598Y16646D02*
X5092Y16646D01*
X6908Y16646D02*
X21092Y16646D01*
X22908Y16646D02*
X23402Y16646D01*
X4598Y16695D02*
X5092Y16695D01*
X6908Y16695D02*
X21092Y16695D01*
X22908Y16695D02*
X23402Y16695D01*
X4598Y16745D02*
X5092Y16745D01*
X6908Y16745D02*
X21092Y16745D01*
X22908Y16745D02*
X23402Y16745D01*
X4598Y16794D02*
X5092Y16794D01*
X6908Y16794D02*
X21092Y16794D01*
X22908Y16794D02*
X23402Y16794D01*
X4598Y16844D02*
X5092Y16844D01*
X6908Y16844D02*
X21092Y16844D01*
X22908Y16844D02*
X23402Y16844D01*
X4598Y16893D02*
X5092Y16893D01*
X6908Y16893D02*
X21092Y16893D01*
X22908Y16893D02*
X23402Y16893D01*
X4598Y16943D02*
X5092Y16943D01*
X6908Y16943D02*
X21092Y16943D01*
X22908Y16943D02*
X23402Y16943D01*
X4598Y16992D02*
X5092Y16992D01*
X6908Y16992D02*
X21092Y16992D01*
X22908Y16992D02*
X23402Y16992D01*
X4598Y17042D02*
X5092Y17042D01*
X6908Y17042D02*
X21092Y17042D01*
X22908Y17042D02*
X23402Y17042D01*
X4598Y17091D02*
X5092Y17091D01*
X6908Y17091D02*
X21092Y17091D01*
X22908Y17091D02*
X23402Y17091D01*
X4598Y17141D02*
X5092Y17141D01*
X6908Y17141D02*
X21092Y17141D01*
X22908Y17141D02*
X23402Y17141D01*
X4598Y17190D02*
X5092Y17190D01*
X6908Y17190D02*
X21092Y17190D01*
X22908Y17190D02*
X23402Y17190D01*
X4598Y17240D02*
X5092Y17240D01*
X6908Y17240D02*
X21092Y17240D01*
X22908Y17240D02*
X23402Y17240D01*
X4598Y17290D02*
X5092Y17290D01*
X6908Y17290D02*
X21092Y17290D01*
X22908Y17290D02*
X23402Y17290D01*
X4598Y17339D02*
X5092Y17339D01*
X6908Y17339D02*
X21092Y17339D01*
X22908Y17339D02*
X23402Y17339D01*
X4598Y17389D02*
X5092Y17389D01*
X6908Y17389D02*
X21092Y17389D01*
X22908Y17389D02*
X23402Y17389D01*
X4598Y17438D02*
X5092Y17438D01*
X6908Y17438D02*
X21092Y17438D01*
X22908Y17438D02*
X23402Y17438D01*
X4598Y17488D02*
X5093Y17488D01*
X6907Y17488D02*
X21093Y17488D01*
X22907Y17488D02*
X23402Y17488D01*
X4598Y17537D02*
X5097Y17537D01*
X6903Y17537D02*
X21097Y17537D01*
X22903Y17537D02*
X23402Y17537D01*
X4598Y17587D02*
X5109Y17587D01*
X6891Y17587D02*
X21109Y17587D01*
X22891Y17587D02*
X23402Y17587D01*
X4598Y17636D02*
X5127Y17636D01*
X6873Y17636D02*
X21127Y17636D01*
X22873Y17636D02*
X23402Y17636D01*
X4598Y17686D02*
X5153Y17686D01*
X6847Y17686D02*
X21153Y17686D01*
X22847Y17686D02*
X23402Y17686D01*
X4598Y17735D02*
X5189Y17735D01*
X6811Y17735D02*
X21189Y17735D01*
X22811Y17735D02*
X23402Y17735D01*
X4598Y17785D02*
X5238Y17785D01*
X6762Y17785D02*
X21238Y17785D01*
X22762Y17785D02*
X23402Y17785D01*
X4598Y17834D02*
X5311Y17834D01*
X6689Y17834D02*
X21311Y17834D01*
X22689Y17834D02*
X23402Y17834D01*
X4598Y17884D02*
X23402Y17884D01*
X4598Y17933D02*
X23402Y17933D01*
X4598Y17983D02*
X23402Y17983D01*
X4598Y18032D02*
X23402Y18032D01*
X4598Y18082D02*
X23402Y18082D01*
X4598Y18132D02*
X23402Y18132D01*
X4598Y18181D02*
X5395Y18181D01*
X6605Y18181D02*
X21395Y18181D01*
X22605Y18181D02*
X23402Y18181D01*
X4598Y18231D02*
X5282Y18231D01*
X6718Y18231D02*
X21282Y18231D01*
X22718Y18231D02*
X23402Y18231D01*
X4598Y18280D02*
X5218Y18280D01*
X6782Y18280D02*
X21218Y18280D01*
X22782Y18280D02*
X23402Y18280D01*
X4598Y18330D02*
X5174Y18330D01*
X6826Y18330D02*
X21174Y18330D01*
X22826Y18330D02*
X23402Y18330D01*
X4598Y18379D02*
X5143Y18379D01*
X6857Y18379D02*
X21143Y18379D01*
X22857Y18379D02*
X23402Y18379D01*
X4598Y18429D02*
X5120Y18429D01*
X6880Y18429D02*
X21120Y18429D01*
X22880Y18429D02*
X23402Y18429D01*
X4598Y18478D02*
X5105Y18478D01*
X6895Y18478D02*
X21105Y18478D01*
X22895Y18478D02*
X23402Y18478D01*
X4598Y18528D02*
X5096Y18528D01*
X6904Y18528D02*
X21096Y18528D01*
X22904Y18528D02*
X23402Y18528D01*
X4598Y18577D02*
X5092Y18577D01*
X6908Y18577D02*
X21092Y18577D01*
X22908Y18577D02*
X23402Y18577D01*
X4598Y18627D02*
X5092Y18627D01*
X6908Y18627D02*
X21092Y18627D01*
X22908Y18627D02*
X23402Y18627D01*
X4598Y18676D02*
X5092Y18676D01*
X6908Y18676D02*
X21092Y18676D01*
X22908Y18676D02*
X23402Y18676D01*
X4598Y18726D02*
X5092Y18726D01*
X6908Y18726D02*
X21092Y18726D01*
X22908Y18726D02*
X23402Y18726D01*
X4598Y18775D02*
X5092Y18775D01*
X6908Y18775D02*
X21092Y18775D01*
X22908Y18775D02*
X23402Y18775D01*
X4598Y18825D02*
X5092Y18825D01*
X6908Y18825D02*
X21092Y18825D01*
X22908Y18825D02*
X23402Y18825D01*
X4598Y18874D02*
X5092Y18874D01*
X6908Y18874D02*
X21092Y18874D01*
X22908Y18874D02*
X23402Y18874D01*
X4598Y18924D02*
X5092Y18924D01*
X6908Y18924D02*
X21092Y18924D01*
X22908Y18924D02*
X23402Y18924D01*
X4598Y18974D02*
X5092Y18974D01*
X6908Y18974D02*
X21092Y18974D01*
X22908Y18974D02*
X23402Y18974D01*
X4598Y19023D02*
X5092Y19023D01*
X6908Y19023D02*
X21092Y19023D01*
X22908Y19023D02*
X23402Y19023D01*
X4598Y19073D02*
X5092Y19073D01*
X6908Y19073D02*
X21092Y19073D01*
X22908Y19073D02*
X23402Y19073D01*
X4598Y19122D02*
X5092Y19122D01*
X6908Y19122D02*
X21092Y19122D01*
X22908Y19122D02*
X23402Y19122D01*
X4598Y19172D02*
X5092Y19172D01*
X6908Y19172D02*
X21092Y19172D01*
X22908Y19172D02*
X23402Y19172D01*
X4598Y19221D02*
X5092Y19221D01*
X6908Y19221D02*
X21092Y19221D01*
X22908Y19221D02*
X23402Y19221D01*
X4598Y19271D02*
X5092Y19271D01*
X6908Y19271D02*
X21092Y19271D01*
X22908Y19271D02*
X23402Y19271D01*
X4598Y19320D02*
X5092Y19320D01*
X6908Y19320D02*
X21092Y19320D01*
X22908Y19320D02*
X23402Y19320D01*
X4598Y19370D02*
X5092Y19370D01*
X6908Y19370D02*
X21092Y19370D01*
X22908Y19370D02*
X23402Y19370D01*
X4598Y19419D02*
X5092Y19419D01*
X6908Y19419D02*
X21092Y19419D01*
X22908Y19419D02*
X23402Y19419D01*
X4598Y19469D02*
X5092Y19469D01*
X6908Y19469D02*
X21092Y19469D01*
X22908Y19469D02*
X23402Y19469D01*
X4598Y19518D02*
X5096Y19518D01*
X6904Y19518D02*
X21096Y19518D01*
X22904Y19518D02*
X23402Y19518D01*
X4598Y19568D02*
X5105Y19568D01*
X6895Y19568D02*
X21105Y19568D01*
X22895Y19568D02*
X23402Y19568D01*
X4598Y19617D02*
X5120Y19617D01*
X6880Y19617D02*
X21120Y19617D01*
X22880Y19617D02*
X23402Y19617D01*
X4598Y19667D02*
X5142Y19667D01*
X6858Y19667D02*
X21142Y19667D01*
X22858Y19667D02*
X23402Y19667D01*
X4598Y19716D02*
X5173Y19716D01*
X6827Y19716D02*
X21173Y19716D01*
X22827Y19716D02*
X23402Y19716D01*
X4598Y19766D02*
X5216Y19766D01*
X6784Y19766D02*
X21216Y19766D01*
X22784Y19766D02*
X23402Y19766D01*
X4598Y19816D02*
X5280Y19816D01*
X6720Y19816D02*
X21280Y19816D01*
X22720Y19816D02*
X23402Y19816D01*
X4598Y19865D02*
X5389Y19865D01*
X6611Y19865D02*
X21389Y19865D01*
X22611Y19865D02*
X23402Y19865D01*
X4598Y19915D02*
X23402Y19915D01*
X4598Y19964D02*
X23402Y19964D01*
X4598Y20014D02*
X23402Y20014D01*
X4598Y20063D02*
X23402Y20063D01*
X4598Y20113D02*
X23402Y20113D01*
X4598Y20162D02*
X23402Y20162D01*
X4598Y20212D02*
X5313Y20212D01*
X6687Y20212D02*
X21313Y20212D01*
X22687Y20212D02*
X23402Y20212D01*
X4598Y20261D02*
X5240Y20261D01*
X6760Y20261D02*
X21240Y20261D01*
X22760Y20261D02*
X23402Y20261D01*
X4598Y20311D02*
X5190Y20311D01*
X6810Y20311D02*
X21190Y20311D01*
X22810Y20311D02*
X23402Y20311D01*
X4598Y20360D02*
X5154Y20360D01*
X6846Y20360D02*
X21154Y20360D01*
X22846Y20360D02*
X23402Y20360D01*
X4598Y20410D02*
X5128Y20410D01*
X6872Y20410D02*
X21128Y20410D01*
X22872Y20410D02*
X23402Y20410D01*
X4598Y20459D02*
X5110Y20459D01*
X6890Y20459D02*
X21110Y20459D01*
X22890Y20459D02*
X23402Y20459D01*
X4598Y20509D02*
X5098Y20509D01*
X6902Y20509D02*
X21098Y20509D01*
X22902Y20509D02*
X23402Y20509D01*
X4598Y20558D02*
X5094Y20558D01*
X6906Y20558D02*
X21094Y20558D01*
X22906Y20558D02*
X23402Y20558D01*
X4598Y20608D02*
X5092Y20608D01*
X6908Y20608D02*
X21092Y20608D01*
X22908Y20608D02*
X23402Y20608D01*
X4598Y20658D02*
X5092Y20658D01*
X6908Y20658D02*
X21092Y20658D01*
X22908Y20658D02*
X23402Y20658D01*
X4598Y20707D02*
X5092Y20707D01*
X6908Y20707D02*
X21092Y20707D01*
X22908Y20707D02*
X23402Y20707D01*
X4598Y20757D02*
X5092Y20757D01*
X6908Y20757D02*
X21092Y20757D01*
X22908Y20757D02*
X23402Y20757D01*
X4598Y20806D02*
X5092Y20806D01*
X6908Y20806D02*
X21092Y20806D01*
X22908Y20806D02*
X23402Y20806D01*
X4598Y20856D02*
X5092Y20856D01*
X6908Y20856D02*
X21092Y20856D01*
X22908Y20856D02*
X23402Y20856D01*
X4598Y20905D02*
X5092Y20905D01*
X6908Y20905D02*
X21092Y20905D01*
X22908Y20905D02*
X23402Y20905D01*
X4598Y20955D02*
X5092Y20955D01*
X6908Y20955D02*
X21092Y20955D01*
X22908Y20955D02*
X23402Y20955D01*
X4598Y21004D02*
X5092Y21004D01*
X6908Y21004D02*
X21092Y21004D01*
X22908Y21004D02*
X23402Y21004D01*
X4598Y21054D02*
X5092Y21054D01*
X6908Y21054D02*
X21092Y21054D01*
X22908Y21054D02*
X23402Y21054D01*
X4598Y21103D02*
X5092Y21103D01*
X6908Y21103D02*
X21092Y21103D01*
X22908Y21103D02*
X23402Y21103D01*
X4598Y21153D02*
X5092Y21153D01*
X6908Y21153D02*
X21092Y21153D01*
X22908Y21153D02*
X23402Y21153D01*
X4598Y21202D02*
X5092Y21202D01*
X6908Y21202D02*
X21092Y21202D01*
X22908Y21202D02*
X23402Y21202D01*
X4598Y21252D02*
X5092Y21252D01*
X6908Y21252D02*
X21092Y21252D01*
X22908Y21252D02*
X23402Y21252D01*
X4598Y21301D02*
X5092Y21301D01*
X6908Y21301D02*
X21092Y21301D01*
X22908Y21301D02*
X23402Y21301D01*
X4598Y21351D02*
X5092Y21351D01*
X6908Y21351D02*
X21092Y21351D01*
X22908Y21351D02*
X23402Y21351D01*
X4598Y21401D02*
X5092Y21401D01*
X6908Y21401D02*
X21092Y21401D01*
X22908Y21401D02*
X23402Y21401D01*
X4598Y21450D02*
X5092Y21450D01*
X6908Y21450D02*
X21092Y21450D01*
X22908Y21450D02*
X23402Y21450D01*
X4598Y21500D02*
X5094Y21500D01*
X6906Y21500D02*
X21094Y21500D01*
X22906Y21500D02*
X23402Y21500D01*
X4598Y21549D02*
X5100Y21549D01*
X6900Y21549D02*
X21100Y21549D01*
X22900Y21549D02*
X23402Y21549D01*
X4598Y21599D02*
X5112Y21599D01*
X6888Y21599D02*
X21112Y21599D01*
X22888Y21599D02*
X23402Y21599D01*
X4598Y21648D02*
X5132Y21648D01*
X6868Y21648D02*
X21132Y21648D01*
X22868Y21648D02*
X23402Y21648D01*
X4598Y21698D02*
X5161Y21698D01*
X6839Y21698D02*
X21161Y21698D01*
X22839Y21698D02*
X23402Y21698D01*
X4598Y21747D02*
X5199Y21747D01*
X6801Y21747D02*
X21199Y21747D01*
X22801Y21747D02*
X23402Y21747D01*
X4598Y21797D02*
X5252Y21797D01*
X6748Y21797D02*
X21252Y21797D01*
X22748Y21797D02*
X23402Y21797D01*
X4598Y21846D02*
X5337Y21846D01*
X6663Y21846D02*
X21337Y21846D01*
X22663Y21846D02*
X23402Y21846D01*
X4598Y21896D02*
X23402Y21896D01*
X4598Y21945D02*
X23402Y21945D01*
X4598Y21995D02*
X23402Y21995D01*
X4598Y22044D02*
X23402Y22044D01*
X4598Y22094D02*
X23402Y22094D01*
X4598Y22143D02*
X23402Y22143D01*
X4598Y22193D02*
X5357Y22193D01*
X6643Y22193D02*
X21357Y22193D01*
X22643Y22193D02*
X23402Y22193D01*
X4598Y22243D02*
X5263Y22243D01*
X6737Y22243D02*
X21263Y22243D01*
X22737Y22243D02*
X23402Y22243D01*
X4598Y22292D02*
X5206Y22292D01*
X6794Y22292D02*
X21206Y22292D01*
X22794Y22292D02*
X23402Y22292D01*
X4598Y22342D02*
X5166Y22342D01*
X6834Y22342D02*
X21166Y22342D01*
X22834Y22342D02*
X23402Y22342D01*
X4598Y22391D02*
X5136Y22391D01*
X6864Y22391D02*
X21136Y22391D01*
X22864Y22391D02*
X23402Y22391D01*
X4598Y22441D02*
X5115Y22441D01*
X6885Y22441D02*
X21115Y22441D01*
X22885Y22441D02*
X23402Y22441D01*
X4598Y22490D02*
X5102Y22490D01*
X6898Y22490D02*
X21102Y22490D01*
X22898Y22490D02*
X23402Y22490D01*
X4598Y22540D02*
X5095Y22540D01*
X6905Y22540D02*
X21095Y22540D01*
X22905Y22540D02*
X23402Y22540D01*
X4598Y22589D02*
X5092Y22589D01*
X6908Y22589D02*
X21092Y22589D01*
X22908Y22589D02*
X23402Y22589D01*
X4598Y22639D02*
X5092Y22639D01*
X6908Y22639D02*
X21092Y22639D01*
X22908Y22639D02*
X23402Y22639D01*
X4598Y22688D02*
X5092Y22688D01*
X6908Y22688D02*
X21092Y22688D01*
X22908Y22688D02*
X23402Y22688D01*
X4598Y22738D02*
X5092Y22738D01*
X6908Y22738D02*
X21092Y22738D01*
X22908Y22738D02*
X23402Y22738D01*
X4598Y22787D02*
X5092Y22787D01*
X6908Y22787D02*
X21092Y22787D01*
X22908Y22787D02*
X23402Y22787D01*
X4598Y22837D02*
X5092Y22837D01*
X6908Y22837D02*
X21092Y22837D01*
X22908Y22837D02*
X23402Y22837D01*
X4598Y22886D02*
X5092Y22886D01*
X6908Y22886D02*
X21092Y22886D01*
X22908Y22886D02*
X23402Y22886D01*
X4598Y22936D02*
X5092Y22936D01*
X6908Y22936D02*
X21092Y22936D01*
X22908Y22936D02*
X23402Y22936D01*
X4598Y22985D02*
X5092Y22985D01*
X6908Y22985D02*
X21092Y22985D01*
X22908Y22985D02*
X23402Y22985D01*
X4598Y23035D02*
X5092Y23035D01*
X6908Y23035D02*
X21092Y23035D01*
X22908Y23035D02*
X23402Y23035D01*
X4598Y23085D02*
X5092Y23085D01*
X6908Y23085D02*
X21092Y23085D01*
X22908Y23085D02*
X23402Y23085D01*
X4598Y23134D02*
X5092Y23134D01*
X6908Y23134D02*
X21092Y23134D01*
X22908Y23134D02*
X23402Y23134D01*
X4598Y23184D02*
X5092Y23184D01*
X6908Y23184D02*
X21092Y23184D01*
X22908Y23184D02*
X23402Y23184D01*
X4598Y23233D02*
X5092Y23233D01*
X6908Y23233D02*
X21092Y23233D01*
X22908Y23233D02*
X23402Y23233D01*
X4598Y23283D02*
X5092Y23283D01*
X6908Y23283D02*
X21092Y23283D01*
X22908Y23283D02*
X23402Y23283D01*
X4598Y23332D02*
X5092Y23332D01*
X6908Y23332D02*
X21092Y23332D01*
X22908Y23332D02*
X23402Y23332D01*
X4598Y23382D02*
X5092Y23382D01*
X6908Y23382D02*
X21092Y23382D01*
X22908Y23382D02*
X23402Y23382D01*
X4598Y23431D02*
X5092Y23431D01*
X6908Y23431D02*
X21092Y23431D01*
X22908Y23431D02*
X23402Y23431D01*
X4598Y23481D02*
X5093Y23481D01*
X6907Y23481D02*
X21093Y23481D01*
X22907Y23481D02*
X23402Y23481D01*
X4598Y23530D02*
X5097Y23530D01*
X6903Y23530D02*
X21097Y23530D01*
X22903Y23530D02*
X23402Y23530D01*
X4598Y23580D02*
X5108Y23580D01*
X6892Y23580D02*
X21108Y23580D01*
X22892Y23580D02*
X23402Y23580D01*
X4598Y23629D02*
X5125Y23629D01*
X6875Y23629D02*
X21125Y23629D01*
X22875Y23629D02*
X23402Y23629D01*
X4598Y23679D02*
X5149Y23679D01*
X6851Y23679D02*
X21149Y23679D01*
X22851Y23679D02*
X23402Y23679D01*
X4598Y23728D02*
X5183Y23728D01*
X6817Y23728D02*
X21183Y23728D01*
X22817Y23728D02*
X23402Y23728D01*
X4598Y23778D02*
X5230Y23778D01*
X6770Y23778D02*
X21230Y23778D01*
X22770Y23778D02*
X23402Y23778D01*
X4598Y23827D02*
X5299Y23827D01*
X6701Y23827D02*
X21299Y23827D01*
X22701Y23827D02*
X23402Y23827D01*
X4598Y23877D02*
X5443Y23877D01*
X6557Y23877D02*
X21443Y23877D01*
X22557Y23877D02*
X23402Y23877D01*
X4598Y23927D02*
X23402Y23927D01*
X4598Y23976D02*
X23402Y23976D01*
X4598Y24026D02*
X23402Y24026D01*
X4598Y24075D02*
X23402Y24075D01*
X4598Y24125D02*
X23402Y24125D01*
X4598Y24174D02*
X5424Y24174D01*
X6576Y24174D02*
X21424Y24174D01*
X22576Y24174D02*
X23402Y24174D01*
X4598Y24224D02*
X5293Y24224D01*
X6707Y24224D02*
X21293Y24224D01*
X22707Y24224D02*
X23402Y24224D01*
X4598Y24273D02*
X5226Y24273D01*
X6774Y24273D02*
X21226Y24273D01*
X22774Y24273D02*
X23402Y24273D01*
X4598Y24323D02*
X5180Y24323D01*
X6820Y24323D02*
X21180Y24323D01*
X22820Y24323D02*
X23402Y24323D01*
X4598Y24372D02*
X5147Y24372D01*
X6853Y24372D02*
X21147Y24372D01*
X22853Y24372D02*
X23402Y24372D01*
X4598Y24422D02*
X5123Y24422D01*
X6877Y24422D02*
X21123Y24422D01*
X22877Y24422D02*
X23402Y24422D01*
X4598Y24471D02*
X5107Y24471D01*
X6893Y24471D02*
X21107Y24471D01*
X22893Y24471D02*
X23402Y24471D01*
X4598Y24521D02*
X5097Y24521D01*
X6903Y24521D02*
X21097Y24521D01*
X22903Y24521D02*
X23402Y24521D01*
X4598Y24570D02*
X5093Y24570D01*
X6907Y24570D02*
X21093Y24570D01*
X22907Y24570D02*
X23402Y24570D01*
X4598Y24620D02*
X5092Y24620D01*
X6908Y24620D02*
X21092Y24620D01*
X22908Y24620D02*
X23402Y24620D01*
X4598Y24669D02*
X5092Y24669D01*
X6908Y24669D02*
X21092Y24669D01*
X22908Y24669D02*
X23402Y24669D01*
X4598Y24719D02*
X5092Y24719D01*
X6908Y24719D02*
X21092Y24719D01*
X22908Y24719D02*
X23402Y24719D01*
X4598Y24769D02*
X5092Y24769D01*
X6908Y24769D02*
X21092Y24769D01*
X22908Y24769D02*
X23402Y24769D01*
X4598Y24818D02*
X5092Y24818D01*
X6908Y24818D02*
X21092Y24818D01*
X22908Y24818D02*
X23402Y24818D01*
X4598Y24868D02*
X5092Y24868D01*
X6908Y24868D02*
X21092Y24868D01*
X22908Y24868D02*
X23402Y24868D01*
X4598Y24917D02*
X5092Y24917D01*
X6908Y24917D02*
X21092Y24917D01*
X22908Y24917D02*
X23402Y24917D01*
X4598Y24967D02*
X5092Y24967D01*
X6908Y24967D02*
X21092Y24967D01*
X22908Y24967D02*
X23402Y24967D01*
X4598Y25016D02*
X5092Y25016D01*
X6908Y25016D02*
X21092Y25016D01*
X22908Y25016D02*
X23402Y25016D01*
X4598Y25066D02*
X5092Y25066D01*
X6908Y25066D02*
X21092Y25066D01*
X22908Y25066D02*
X23402Y25066D01*
X4598Y25115D02*
X5092Y25115D01*
X6908Y25115D02*
X21092Y25115D01*
X22908Y25115D02*
X23402Y25115D01*
X4598Y25165D02*
X5092Y25165D01*
X6908Y25165D02*
X21092Y25165D01*
X22908Y25165D02*
X23402Y25165D01*
X4598Y25214D02*
X5092Y25214D01*
X6908Y25214D02*
X21092Y25214D01*
X22908Y25214D02*
X23402Y25214D01*
X4598Y25264D02*
X5092Y25264D01*
X6908Y25264D02*
X21092Y25264D01*
X22908Y25264D02*
X23402Y25264D01*
X4598Y25313D02*
X5092Y25313D01*
X6908Y25313D02*
X21092Y25313D01*
X22908Y25313D02*
X23402Y25313D01*
X4598Y25363D02*
X5092Y25363D01*
X6908Y25363D02*
X21092Y25363D01*
X22908Y25363D02*
X23402Y25363D01*
X4598Y25412D02*
X5092Y25412D01*
X6908Y25412D02*
X21092Y25412D01*
X22908Y25412D02*
X23402Y25412D01*
X4598Y25462D02*
X5092Y25462D01*
X6908Y25462D02*
X21092Y25462D01*
X22908Y25462D02*
X23402Y25462D01*
X4598Y25511D02*
X5095Y25511D01*
X6905Y25511D02*
X21095Y25511D01*
X22905Y25511D02*
X23402Y25511D01*
X4598Y25561D02*
X5103Y25561D01*
X6897Y25561D02*
X21103Y25561D01*
X22897Y25561D02*
X23402Y25561D01*
X4598Y25611D02*
X5117Y25611D01*
X6883Y25611D02*
X21117Y25611D01*
X22883Y25611D02*
X23402Y25611D01*
X4598Y25660D02*
X5138Y25660D01*
X6862Y25660D02*
X21138Y25660D01*
X22862Y25660D02*
X23402Y25660D01*
X4598Y25710D02*
X5168Y25710D01*
X6832Y25710D02*
X21168Y25710D01*
X22832Y25710D02*
X23402Y25710D01*
X4598Y25759D02*
X5209Y25759D01*
X6791Y25759D02*
X21209Y25759D01*
X22791Y25759D02*
X23402Y25759D01*
X4598Y25809D02*
X5269Y25809D01*
X6731Y25809D02*
X21269Y25809D01*
X22731Y25809D02*
X23402Y25809D01*
X4598Y25858D02*
X5366Y25858D01*
X6634Y25858D02*
X21366Y25858D01*
X22634Y25858D02*
X23402Y25858D01*
X4598Y25908D02*
X23402Y25908D01*
X4598Y25957D02*
X23402Y25957D01*
X4598Y26007D02*
X23402Y26007D01*
X4598Y26056D02*
X23402Y26056D01*
X4598Y26106D02*
X20572Y26106D01*
X20931Y26106D02*
X23402Y26106D01*
X4598Y26155D02*
X20396Y26155D01*
X21107Y26155D02*
X23402Y26155D01*
X4598Y26205D02*
X5329Y26205D01*
X6671Y26205D02*
X20302Y26205D01*
X21202Y26205D02*
X21329Y26205D01*
X22671Y26205D02*
X23402Y26205D01*
X4598Y26254D02*
X5248Y26254D01*
X6752Y26254D02*
X20211Y26254D01*
X22752Y26254D02*
X23402Y26254D01*
X4598Y26304D02*
X5196Y26304D01*
X6804Y26304D02*
X20156Y26304D01*
X22804Y26304D02*
X23402Y26304D01*
X4598Y26354D02*
X5158Y26354D01*
X6842Y26354D02*
X20100Y26354D01*
X22842Y26354D02*
X23402Y26354D01*
X4598Y26403D02*
X5131Y26403D01*
X6869Y26403D02*
X20045Y26403D01*
X22869Y26403D02*
X23402Y26403D01*
X4598Y26453D02*
X5111Y26453D01*
X6889Y26453D02*
X20011Y26453D01*
X22889Y26453D02*
X23402Y26453D01*
X4598Y26502D02*
X5099Y26502D01*
X6901Y26502D02*
X19977Y26502D01*
X22901Y26502D02*
X23402Y26502D01*
X4598Y26552D02*
X5094Y26552D01*
X6906Y26552D02*
X19943Y26552D01*
X22906Y26552D02*
X23402Y26552D01*
X4598Y26601D02*
X5092Y26601D01*
X6908Y26601D02*
X19913Y26601D01*
X22908Y26601D02*
X23402Y26601D01*
X4598Y26651D02*
X5092Y26651D01*
X6908Y26651D02*
X19894Y26651D01*
X22908Y26651D02*
X23402Y26651D01*
X4598Y26700D02*
X5092Y26700D01*
X6908Y26700D02*
X19875Y26700D01*
X22908Y26700D02*
X23402Y26700D01*
X4598Y26750D02*
X5092Y26750D01*
X6908Y26750D02*
X19857Y26750D01*
X22908Y26750D02*
X23402Y26750D01*
X4598Y26799D02*
X5092Y26799D01*
X6908Y26799D02*
X19838Y26799D01*
X22908Y26799D02*
X23402Y26799D01*
X4598Y26849D02*
X5092Y26849D01*
X6908Y26849D02*
X19832Y26849D01*
X22908Y26849D02*
X23402Y26849D01*
X4598Y26898D02*
X5092Y26898D01*
X6908Y26898D02*
X19826Y26898D01*
X22908Y26898D02*
X23402Y26898D01*
X4598Y26948D02*
X5092Y26948D01*
X6908Y26948D02*
X19820Y26948D01*
X22908Y26948D02*
X23402Y26948D01*
X4598Y26997D02*
X5092Y26997D01*
X6908Y26997D02*
X19814Y26997D01*
X22908Y26997D02*
X23402Y26997D01*
X4598Y27047D02*
X5092Y27047D01*
X6908Y27047D02*
X19814Y27047D01*
X22908Y27047D02*
X23402Y27047D01*
X4598Y27096D02*
X5092Y27096D01*
X6908Y27096D02*
X19820Y27096D01*
X22908Y27096D02*
X23402Y27096D01*
X4598Y27146D02*
X5092Y27146D01*
X6908Y27146D02*
X19826Y27146D01*
X22908Y27146D02*
X23402Y27146D01*
X4598Y27196D02*
X5092Y27196D01*
X6908Y27196D02*
X19832Y27196D01*
X22908Y27196D02*
X23402Y27196D01*
X4598Y27245D02*
X5092Y27245D01*
X6908Y27245D02*
X19838Y27245D01*
X22908Y27245D02*
X23402Y27245D01*
X4598Y27295D02*
X5092Y27295D01*
X6908Y27295D02*
X19855Y27295D01*
X22908Y27295D02*
X23402Y27295D01*
X4598Y27344D02*
X5092Y27344D01*
X6908Y27344D02*
X19874Y27344D01*
X22908Y27344D02*
X23402Y27344D01*
X4598Y27394D02*
X5092Y27394D01*
X6908Y27394D02*
X19893Y27394D01*
X22908Y27394D02*
X23402Y27394D01*
X4598Y27443D02*
X5092Y27443D01*
X6908Y27443D02*
X19912Y27443D01*
X22908Y27443D02*
X23402Y27443D01*
X4598Y27493D02*
X5094Y27493D01*
X6906Y27493D02*
X19940Y27493D01*
X22906Y27493D02*
X23402Y27493D01*
X4598Y27542D02*
X5098Y27542D01*
X6902Y27542D02*
X19975Y27542D01*
X22902Y27542D02*
X23402Y27542D01*
X4598Y27592D02*
X5110Y27592D01*
X6890Y27592D02*
X20009Y27592D01*
X22890Y27592D02*
X23402Y27592D01*
X4598Y27641D02*
X5129Y27641D01*
X6871Y27641D02*
X20043Y27641D01*
X22871Y27641D02*
X23402Y27641D01*
X4598Y27691D02*
X5156Y27691D01*
X6844Y27691D02*
X20096Y27691D01*
X22844Y27691D02*
X23402Y27691D01*
X4598Y27740D02*
X5193Y27740D01*
X6807Y27740D02*
X20152Y27740D01*
X22807Y27740D02*
X23402Y27740D01*
X4598Y27790D02*
X5244Y27790D01*
X6756Y27790D02*
X20208Y27790D01*
X22756Y27790D02*
X23402Y27790D01*
X4598Y27839D02*
X5321Y27839D01*
X6679Y27839D02*
X20296Y27839D01*
X21208Y27839D02*
X21321Y27839D01*
X22679Y27839D02*
X23402Y27839D01*
X4598Y27889D02*
X20390Y27889D01*
X21114Y27889D02*
X23402Y27889D01*
X4598Y27938D02*
X20559Y27938D01*
X20944Y27938D02*
X23402Y27938D01*
X4598Y27988D02*
X23402Y27988D01*
X4598Y28038D02*
X23402Y28038D01*
X4598Y28087D02*
X23402Y28087D01*
X4598Y28137D02*
X20449Y28137D01*
X21055Y28137D02*
X23402Y28137D01*
X4598Y28186D02*
X5375Y28186D01*
X6625Y28186D02*
X20338Y28186D01*
X21165Y28186D02*
X21375Y28186D01*
X22625Y28186D02*
X23402Y28186D01*
X4598Y28236D02*
X5275Y28236D01*
X6725Y28236D02*
X20244Y28236D01*
X21260Y28236D02*
X21275Y28236D01*
X22725Y28236D02*
X23402Y28236D01*
X4598Y28285D02*
X5213Y28285D01*
X6787Y28285D02*
X20177Y28285D01*
X22787Y28285D02*
X23402Y28285D01*
X4598Y28335D02*
X5170Y28335D01*
X6830Y28335D02*
X20121Y28335D01*
X22830Y28335D02*
X23402Y28335D01*
X4598Y28384D02*
X5140Y28384D01*
X6860Y28384D02*
X20065Y28384D01*
X22860Y28384D02*
X23402Y28384D01*
X4598Y28434D02*
X5118Y28434D01*
X6882Y28434D02*
X20024Y28434D01*
X22882Y28434D02*
X23402Y28434D01*
X4598Y28483D02*
X5104Y28483D01*
X6896Y28483D02*
X19990Y28483D01*
X22896Y28483D02*
X23402Y28483D01*
X4598Y28533D02*
X5096Y28533D01*
X6904Y28533D02*
X19956Y28533D01*
X22904Y28533D02*
X23402Y28533D01*
X4598Y28582D02*
X5093Y28582D01*
X6907Y28582D02*
X19922Y28582D01*
X22907Y28582D02*
X23402Y28582D01*
X4598Y28632D02*
X5093Y28632D01*
X6907Y28632D02*
X19902Y28632D01*
X22907Y28632D02*
X23402Y28632D01*
X4598Y28681D02*
X5093Y28681D01*
X6907Y28681D02*
X19883Y28681D01*
X22907Y28681D02*
X23402Y28681D01*
X4598Y28731D02*
X5093Y28731D01*
X6907Y28731D02*
X19864Y28731D01*
X22907Y28731D02*
X23402Y28731D01*
X4598Y28780D02*
X5093Y28780D01*
X6907Y28780D02*
X19845Y28780D01*
X22907Y28780D02*
X23402Y28780D01*
X4598Y28830D02*
X5093Y28830D01*
X6907Y28830D02*
X19835Y28830D01*
X22907Y28830D02*
X23402Y28830D01*
X4598Y28880D02*
X5093Y28880D01*
X6907Y28880D02*
X19829Y28880D01*
X22907Y28880D02*
X23402Y28880D01*
X4598Y28929D02*
X5093Y28929D01*
X6907Y28929D02*
X19823Y28929D01*
X22907Y28929D02*
X23402Y28929D01*
X4598Y28979D02*
X5093Y28979D01*
X6907Y28979D02*
X19816Y28979D01*
X22907Y28979D02*
X23402Y28979D01*
X4598Y29028D02*
X5093Y29028D01*
X6907Y29028D02*
X19812Y29028D01*
X22907Y29028D02*
X23402Y29028D01*
X4598Y29078D02*
X5093Y29078D01*
X6907Y29078D02*
X19818Y29078D01*
X22907Y29078D02*
X23402Y29078D01*
X4598Y29127D02*
X5093Y29127D01*
X6907Y29127D02*
X19824Y29127D01*
X22907Y29127D02*
X23402Y29127D01*
X4598Y29177D02*
X5093Y29177D01*
X6907Y29177D02*
X19830Y29177D01*
X22907Y29177D02*
X23402Y29177D01*
X4598Y29226D02*
X5093Y29226D01*
X6907Y29226D02*
X19836Y29226D01*
X22907Y29226D02*
X23402Y29226D01*
X4598Y29276D02*
X5093Y29276D01*
X6907Y29276D02*
X19849Y29276D01*
X22907Y29276D02*
X23402Y29276D01*
X4598Y29325D02*
X5093Y29325D01*
X6907Y29325D02*
X19867Y29325D01*
X22907Y29325D02*
X23402Y29325D01*
X4598Y29375D02*
X5093Y29375D01*
X6907Y29375D02*
X19886Y29375D01*
X22907Y29375D02*
X23402Y29375D01*
%LNtop copper_traces*%
D11*
X20752Y27024D02*
X22000Y27024D01*
X8915Y15024D02*
X6000Y15024D01*
X22000Y29024D02*
X20752Y29024D01*
D12*
X20752Y27024D03*
X20752Y29024D03*
X9000Y15024D03*
%LNtop copper component b36f02837b6dd331*%
D13*
X20215Y7595D03*
D14*
X25215Y7595D03*
%LNtop copper component 9df862e34fc6b5e4*%
D15*
X12610Y5800D03*
X10070Y5800D03*
X7530Y5800D03*
X4990Y5800D03*
X2450Y5800D03*
D16*
X15150Y5800D03*
%LNtop copper component 3134cdede5e0ff57*%
D17*
X6000Y29024D03*
X6000Y27024D03*
X6000Y25024D03*
X6000Y23024D03*
X6000Y21024D03*
X6000Y19024D03*
X6000Y17024D03*
X6000Y15024D03*
X22000Y15024D03*
X22000Y17024D03*
X22000Y19024D03*
X22000Y21024D03*
X22000Y23024D03*
X22000Y25024D03*
X22000Y27024D03*
X22000Y29024D03*
D18*
X9000Y12924D03*
X11000Y12924D03*
X13000Y12924D03*
X15000Y12924D03*
X17000Y12924D03*
X19000Y12924D03*
M02*