%FSLAX33Y33*%
%MOMM*%
%ADD10C,0.15*%
%ADD11C,0.5*%
%ADD12C,0.5*%
%ADD13C,0.5*%
%ADD14C,0.2032*%
D10*
%LNtop silkscreen_traces*%
%LNtop silkscreen component b36f02837b6dd331*%
G01*
X27916Y11896D02*
X27916Y3294D01*
X17514Y3294*
X17514Y11896*
X27916Y11896*
D11*
X25216Y2845D03*
%LNtop silkscreen component 3134cdede5e0ff57*%
D10*
X7000Y12924D02*
X6000Y12924D01*
X6000Y13424D02*
X6000Y12924D01*
X20500Y12924D02*
X22000Y12924D01*
X22000Y13424D02*
X22000Y12924D01*
X22000Y36924D02*
X6000Y36924D01*
X22000Y31924D02*
X22000Y36924D01*
X6000Y31924D02*
X6000Y36924D01*
D12*
X4550Y29024D03*
%LNtop silkscreen component c08336de5716e202*%
D10*
X17300Y8300D02*
X17300Y3300D01*
X17300Y8300D02*
X0300Y8300D01*
X0300Y3300*
X17300Y3300*
D13*
X15150Y8550D03*
%LNtext*%
D14*
X5701Y-26093D02*
X5701Y-26093D01*
X5750Y-26086*
X5798Y-26075*
X5845Y-26059*
X5892Y-26039*
X5938Y-26015*
X5983Y-25986*
X6028Y-25953*
X6028Y-25617*
X5644Y-25617*
X5644Y-25723*
X5911Y-25723*
X5911Y-25723*
X5911Y-25893*
X5911Y-25893*
X5889Y-25910*
X5889Y-25910*
X5863Y-25926*
X5863Y-25926*
X5833Y-25942*
X5833Y-25942*
X5798Y-25957*
X5798Y-25957*
X5761Y-25971*
X5760Y-25971*
X5723Y-25980*
X5723Y-25980*
X5684Y-25986*
X5684Y-25986*
X5645Y-25987*
X5645Y-25987*
X5601Y-25985*
X5601Y-25985*
X5558Y-25978*
X5558Y-25978*
X5516Y-25965*
X5516Y-25965*
X5475Y-25948*
X5475Y-25948*
X5437Y-25925*
X5437Y-25925*
X5405Y-25897*
X5404Y-25897*
X5376Y-25864*
X5376Y-25864*
X5353Y-25826*
X5353Y-25826*
X5335Y-25783*
X5335Y-25782*
X5322Y-25734*
X5322Y-25734*
X5314Y-25681*
X5314Y-25681*
X5311Y-25622*
X5311Y-25622*
X5313Y-25574*
X5313Y-25574*
X5320Y-25527*
X5320Y-25527*
X5331Y-25482*
X5331Y-25482*
X5346Y-25439*
X5346Y-25439*
X5357Y-25415*
X5357Y-25415*
X5370Y-25392*
X5370Y-25392*
X5386Y-25370*
X5386Y-25370*
X5403Y-25349*
X5403Y-25349*
X5423Y-25330*
X5423Y-25330*
X5446Y-25312*
X5446Y-25312*
X5472Y-25297*
X5472Y-25297*
X5501Y-25283*
X5501Y-25283*
X5532Y-25272*
X5532Y-25272*
X5566Y-25264*
X5566Y-25264*
X5603Y-25259*
X5604Y-25259*
X5643Y-25258*
X5643Y-25258*
X5677Y-25259*
X5677Y-25259*
X5709Y-25264*
X5709Y-25264*
X5740Y-25271*
X5740Y-25271*
X5769Y-25282*
X5769Y-25282*
X5795Y-25295*
X5795Y-25295*
X5819Y-25310*
X5819Y-25310*
X5839Y-25327*
X5839Y-25327*
X5856Y-25345*
X5856Y-25345*
X5870Y-25367*
X5870Y-25367*
X5884Y-25393*
X5884Y-25393*
X5896Y-25422*
X5896Y-25422*
X5907Y-25454*
X6014Y-25425*
X6001Y-25382*
X5985Y-25342*
X5967Y-25307*
X5946Y-25277*
X5921Y-25250*
X5892Y-25226*
X5858Y-25205*
X5821Y-25188*
X5780Y-25174*
X5737Y-25164*
X5691Y-25158*
X5643Y-25156*
X5577Y-25159*
X5515Y-25170*
X5457Y-25187*
X5403Y-25212*
X5354Y-25243*
X5311Y-25282*
X5274Y-25329*
X5244Y-25382*
X5219Y-25441*
X5202Y-25502*
X5192Y-25565*
X5188Y-25630*
X5192Y-25695*
X5202Y-25757*
X5219Y-25816*
X5244Y-25872*
X5275Y-25923*
X5313Y-25968*
X5358Y-26006*
X5409Y-26038*
X5465Y-26063*
X5524Y-26081*
X5587Y-26091*
X5652Y-26095*
X5701Y-26093*
X6920Y-25171D02*
X6920Y-25171D01*
X6806Y-25171*
X6806Y-25885*
X6805Y-25885*
X6328Y-25171*
X6205Y-25171*
X6205Y-26079*
X6319Y-26079*
X6319Y-25365*
X6320Y-25365*
X6798Y-26079*
X6920Y-26079*
X6920Y-25171*
X7491Y-26079D02*
X7491Y-26079D01*
X7529Y-26076*
X7564Y-26071*
X7597Y-26064*
X7628Y-26055*
X7656Y-26045*
X7682Y-26033*
X7705Y-26018*
X7727Y-26002*
X7748Y-25983*
X7769Y-25961*
X7788Y-25936*
X7806Y-25908*
X7822Y-25877*
X7837Y-25842*
X7850Y-25804*
X7860Y-25762*
X7868Y-25718*
X7873Y-25671*
X7874Y-25620*
X7872Y-25561*
X7865Y-25506*
X7854Y-25453*
X7838Y-25405*
X7818Y-25359*
X7794Y-25319*
X7765Y-25282*
X7731Y-25249*
X7702Y-25228*
X7670Y-25210*
X7635Y-25195*
X7598Y-25184*
X7567Y-25179*
X7530Y-25175*
X7486Y-25172*
X7436Y-25171*
X7124Y-25171*
X7124Y-26079*
X7451Y-26079*
X7491Y-26079*
X7243Y-25973D02*
X7243Y-25973D01*
X7437Y-25973*
X7480Y-25972*
X7518Y-25969*
X7550Y-25963*
X7578Y-25956*
X7603Y-25947*
X7624Y-25936*
X7644Y-25923*
X7660Y-25909*
X7680Y-25886*
X7698Y-25859*
X7714Y-25828*
X7727Y-25794*
X7737Y-25756*
X7745Y-25714*
X7749Y-25668*
X7751Y-25619*
X7748Y-25551*
X7739Y-25493*
X7724Y-25442*
X7704Y-25399*
X7679Y-25364*
X7652Y-25335*
X7622Y-25313*
X7590Y-25297*
X7562Y-25289*
X7527Y-25283*
X7484Y-25279*
X7434Y-25278*
X7243Y-25278*
X7243Y-25973*
X18904Y0744D02*
X18904Y0744D01*
X18972Y0753*
X19040Y0769*
X19106Y0791*
X19171Y0819*
X19236Y0853*
X19299Y0893*
X19362Y0939*
X19362Y1411*
X18824Y1410*
X18824Y1262*
X19198Y1262*
X19198Y1261*
X19198Y1024*
X19198Y1024*
X19168Y1000*
X19168Y1000*
X19131Y0977*
X19131Y0977*
X19089Y0955*
X19089Y0955*
X19040Y0934*
X19040Y0934*
X18987Y0915*
X18987Y0915*
X18934Y0902*
X18934Y0902*
X18880Y0894*
X18880Y0894*
X18826Y0892*
X18826Y0892*
X18764Y0895*
X18764Y0895*
X18703Y0906*
X18703Y0906*
X18645Y0923*
X18645Y0923*
X18588Y0947*
X18588Y0947*
X18535Y0979*
X18535Y0979*
X18489Y1018*
X18489Y1018*
X18450Y1064*
X18450Y1064*
X18417Y1118*
X18417Y1118*
X18391Y1179*
X18391Y1179*
X18373Y1246*
X18373Y1246*
X18362Y1321*
X18362Y1321*
X18358Y1403*
X18358Y1403*
X18361Y1471*
X18361Y1471*
X18370Y1536*
X18370Y1536*
X18386Y1599*
X18386Y1599*
X18407Y1659*
X18407Y1659*
X18423Y1693*
X18423Y1693*
X18441Y1725*
X18441Y1725*
X18463Y1756*
X18463Y1756*
X18487Y1785*
X18487Y1785*
X18515Y1812*
X18515Y1812*
X18547Y1837*
X18547Y1837*
X18583Y1859*
X18583Y1859*
X18623Y1878*
X18623Y1878*
X18667Y1893*
X18667Y1893*
X18715Y1904*
X18715Y1904*
X18767Y1911*
X18767Y1911*
X18823Y1913*
X18823Y1913*
X18870Y1911*
X18870Y1911*
X18915Y1904*
X18915Y1904*
X18958Y1894*
X18958Y1894*
X18999Y1879*
X18999Y1879*
X19036Y1861*
X19036Y1861*
X19069Y1840*
X19069Y1840*
X19097Y1817*
X19097Y1817*
X19120Y1790*
X19121Y1790*
X19141Y1760*
X19141Y1760*
X19160Y1724*
X19160Y1724*
X19177Y1683*
X19177Y1683*
X19192Y1638*
X19343Y1679*
X19324Y1740*
X19302Y1795*
X19276Y1844*
X19246Y1887*
X19212Y1925*
X19171Y1958*
X19124Y1987*
X19072Y2011*
X19014Y2031*
X18954Y2045*
X18890Y2053*
X18822Y2056*
X18730Y2051*
X18643Y2036*
X18562Y2012*
X18487Y1978*
X18418Y1934*
X18358Y1879*
X18306Y1814*
X18263Y1739*
X18229Y1657*
X18205Y1572*
X18190Y1484*
X18186Y1392*
X18190Y1301*
X18205Y1214*
X18230Y1131*
X18264Y1053*
X18307Y0982*
X18360Y0919*
X18423Y0866*
X18495Y0821*
X18574Y0786*
X18657Y0761*
X18744Y0746*
X18835Y0741*
X18904Y0744*
X20611Y2034D02*
X20611Y2034D01*
X20451Y2034*
X20451Y1035*
X20450Y1035*
X19781Y2034*
X19609Y2034*
X19609Y0763*
X19770Y0763*
X19770Y1763*
X19771Y1763*
X20439Y0763*
X20611Y0763*
X20611Y2034*
X21410Y0764D02*
X21410Y0764D01*
X21463Y0768*
X21512Y0775*
X21558Y0784*
X21601Y0796*
X21641Y0811*
X21677Y0828*
X21710Y0848*
X21741Y0871*
X21770Y0898*
X21799Y0929*
X21826Y0963*
X21851Y1002*
X21874Y1046*
X21894Y1095*
X21913Y1148*
X21927Y1206*
X21938Y1269*
X21944Y1335*
X21946Y1405*
X21943Y1488*
X21934Y1566*
X21918Y1639*
X21897Y1708*
X21868Y1771*
X21834Y1828*
X21793Y1879*
X21746Y1925*
X21705Y1955*
X21661Y1981*
X21612Y2001*
X21560Y2016*
X21516Y2024*
X21464Y2030*
X21403Y2033*
X21333Y2034*
X20895Y2034*
X20895Y0763*
X21354Y0763*
X21410Y0764*
X21063Y0912D02*
X21063Y0912D01*
X21335Y0912*
X21394Y0914*
X21447Y0918*
X21493Y0925*
X21532Y0936*
X21566Y0949*
X21597Y0964*
X21623Y0982*
X21647Y1002*
X21675Y1034*
X21700Y1072*
X21721Y1115*
X21740Y1163*
X21754Y1216*
X21765Y1275*
X21771Y1339*
X21773Y1408*
X21769Y1502*
X21757Y1584*
X21736Y1655*
X21708Y1715*
X21673Y1764*
X21635Y1804*
X21594Y1836*
X21548Y1858*
X21509Y1870*
X21460Y1878*
X21400Y1883*
X21331Y1885*
X21063Y1885*
X21063Y0912*
X1997Y0747D02*
X1997Y0747D01*
X2078Y0769*
X2151Y0805*
X2216Y0856*
X2269Y0917*
X2307Y0984*
X2329Y1058*
X2337Y1138*
X2333Y1197*
X2321Y1251*
X2302Y1299*
X2275Y1343*
X2240Y1380*
X2200Y1411*
X2153Y1434*
X2099Y1451*
X2099Y1452*
X2140Y1473*
X2176Y1499*
X2206Y1527*
X2230Y1559*
X2250Y1594*
X2263Y1631*
X2272Y1669*
X2275Y1709*
X2272Y1752*
X2263Y1793*
X2248Y1834*
X2228Y1873*
X2202Y1910*
X2172Y1942*
X2135Y1970*
X2094Y1995*
X2049Y2014*
X2003Y2028*
X1954Y2037*
X1903Y2039*
X1830Y2034*
X1764Y2018*
X1704Y1991*
X1650Y1953*
X1604Y1906*
X1567Y1849*
X1539Y1784*
X1520Y1710*
X1676Y1683*
X1687Y1736*
X1687Y1736*
X1704Y1783*
X1704Y1783*
X1726Y1822*
X1726Y1822*
X1754Y1855*
X1754Y1855*
X1786Y1880*
X1786Y1880*
X1822Y1898*
X1822Y1898*
X1862Y1908*
X1862Y1908*
X1906Y1912*
X1906Y1912*
X1950Y1908*
X1950Y1908*
X1990Y1898*
X1990Y1898*
X2025Y1880*
X2025Y1880*
X2057Y1855*
X2057Y1855*
X2082Y1825*
X2082Y1825*
X2100Y1791*
X2100Y1791*
X2111Y1754*
X2111Y1754*
X2115Y1713*
X2115Y1713*
X2110Y1662*
X2110Y1662*
X2095Y1618*
X2095Y1618*
X2070Y1581*
X2070Y1581*
X2035Y1552*
X2035Y1552*
X1994Y1529*
X1994Y1529*
X1950Y1512*
X1950Y1512*
X1904Y1503*
X1904Y1503*
X1855Y1499*
X1855Y1499*
X1850Y1500*
X1850Y1500*
X1844Y1500*
X1844Y1500*
X1837Y1500*
X1837Y1500*
X1830Y1501*
X1813Y1365*
X1844Y1373*
X1844Y1373*
X1873Y1378*
X1873Y1378*
X1899Y1381*
X1899Y1381*
X1923Y1382*
X1923Y1382*
X1975Y1378*
X1975Y1378*
X2022Y1365*
X2022Y1365*
X2064Y1343*
X2064Y1343*
X2102Y1312*
X2102Y1312*
X2133Y1275*
X2133Y1275*
X2155Y1233*
X2155Y1233*
X2168Y1186*
X2168Y1186*
X2172Y1134*
X2172Y1134*
X2167Y1080*
X2167Y1080*
X2153Y1031*
X2153Y1030*
X2129Y0985*
X2129Y0985*
X2096Y0945*
X2096Y0945*
X2056Y0911*
X2056Y0911*
X2011Y0887*
X2011Y0887*
X1963Y0873*
X1963Y0873*
X1910Y0868*
X1910Y0868*
X1865Y0872*
X1865Y0872*
X1824Y0883*
X1824Y0883*
X1786Y0901*
X1786Y0901*
X1752Y0927*
X1752Y0927*
X1722Y0961*
X1722Y0961*
X1696Y1004*
X1696Y1004*
X1676Y1057*
X1676Y1057*
X1660Y1118*
X1505Y1098*
X1518Y1022*
X1544Y0954*
X1581Y0893*
X1631Y0840*
X1690Y0796*
X1756Y0765*
X1829Y0746*
X1909Y0740*
X1997Y0747*
X2757Y0939D02*
X2757Y0939D01*
X2580Y0939*
X2580Y0763*
X2757Y0763*
X2757Y0939*
X3480Y0747D02*
X3480Y0747D01*
X3561Y0769*
X3634Y0805*
X3698Y0856*
X3752Y0917*
X3790Y0984*
X3812Y1058*
X3820Y1138*
X3816Y1197*
X3804Y1251*
X3785Y1299*
X3757Y1343*
X3723Y1380*
X3683Y1411*
X3636Y1434*
X3582Y1451*
X3582Y1452*
X3623Y1473*
X3658Y1499*
X3688Y1527*
X3713Y1559*
X3733Y1594*
X3746Y1631*
X3755Y1669*
X3757Y1709*
X3754Y1752*
X3746Y1793*
X3731Y1834*
X3711Y1873*
X3685Y1910*
X3654Y1942*
X3618Y1970*
X3577Y1995*
X3532Y2014*
X3485Y2028*
X3436Y2037*
X3385Y2039*
X3313Y2034*
X3247Y2018*
X3187Y1991*
X3133Y1953*
X3087Y1906*
X3050Y1849*
X3022Y1784*
X3003Y1710*
X3158Y1683*
X3170Y1736*
X3170Y1736*
X3187Y1783*
X3187Y1783*
X3209Y1822*
X3209Y1822*
X3237Y1855*
X3237Y1855*
X3269Y1880*
X3269Y1880*
X3305Y1898*
X3305Y1898*
X3345Y1908*
X3345Y1908*
X3389Y1912*
X3389Y1912*
X3433Y1908*
X3433Y1908*
X3473Y1898*
X3473Y1898*
X3508Y1880*
X3508Y1880*
X3539Y1855*
X3539Y1855*
X3565Y1825*
X3565Y1825*
X3583Y1791*
X3583Y1791*
X3594Y1754*
X3594Y1754*
X3598Y1713*
X3598Y1713*
X3593Y1662*
X3593Y1662*
X3578Y1618*
X3578Y1618*
X3553Y1581*
X3553Y1581*
X3518Y1552*
X3518Y1552*
X3476Y1529*
X3476Y1529*
X3433Y1512*
X3433Y1512*
X3386Y1503*
X3386Y1503*
X3338Y1499*
X3338Y1499*
X3333Y1500*
X3333Y1500*
X3327Y1500*
X3327Y1500*
X3320Y1500*
X3320Y1500*
X3313Y1501*
X3296Y1365*
X3327Y1373*
X3327Y1373*
X3356Y1378*
X3356Y1378*
X3382Y1381*
X3382Y1381*
X3405Y1382*
X3405Y1382*
X3457Y1378*
X3457Y1378*
X3505Y1365*
X3505Y1365*
X3547Y1343*
X3547Y1343*
X3585Y1312*
X3585Y1312*
X3615Y1275*
X3615Y1275*
X3637Y1233*
X3637Y1233*
X3651Y1186*
X3651Y1186*
X3655Y1134*
X3655Y1134*
X3650Y1080*
X3650Y1080*
X3636Y1031*
X3636Y1030*
X3612Y0985*
X3612Y0985*
X3579Y0945*
X3579Y0945*
X3539Y0911*
X3539Y0911*
X3494Y0887*
X3494Y0887*
X3445Y0873*
X3445Y0873*
X3392Y0868*
X3392Y0868*
X3348Y0872*
X3348Y0872*
X3306Y0883*
X3306Y0883*
X3269Y0901*
X3269Y0901*
X3234Y0927*
X3234Y0927*
X3204Y0961*
X3204Y0961*
X3179Y1004*
X3179Y1004*
X3159Y1057*
X3159Y1057*
X3143Y1118*
X2988Y1098*
X3001Y1022*
X3027Y0954*
X3064Y0893*
X3114Y0840*
X3172Y0796*
X3238Y0765*
X3311Y0746*
X3392Y0740*
X3480Y0747*
X5263Y1683D02*
X5263Y1683D01*
X5103Y1683*
X4898Y1121*
X4881Y1072*
X4865Y1026*
X4852Y0984*
X4840Y0946*
X4839Y0946*
X4825Y0994*
X4811Y1041*
X4796Y1087*
X4780Y1132*
X4582Y1683*
X4418Y1683*
X4769Y0763*
X4914Y0763*
X5263Y1683*
X5835Y0745D02*
X5835Y0745D01*
X5891Y0756*
X5946Y0773*
X5998Y0798*
X6046Y0829*
X6088Y0866*
X6123Y0908*
X6153Y0956*
X6177Y1012*
X6193Y1077*
X6203Y1152*
X6207Y1236*
X6199Y1340*
X6176Y1432*
X6139Y1512*
X6086Y1580*
X6021Y1634*
X5948Y1673*
X5866Y1697*
X5776Y1704*
X5693Y1698*
X5618Y1679*
X5549Y1647*
X5486Y1602*
X5424Y1532*
X5379Y1446*
X5353Y1343*
X5344Y1223*
X5351Y1113*
X5374Y1017*
X5411Y0934*
X5463Y0866*
X5527Y0811*
X5601Y0773*
X5683Y0749*
X5776Y0742*
X5835Y0745*
X5504Y1223D02*
X5504Y1223D01*
X5509Y1140*
X5523Y1068*
X5547Y1007*
X5581Y0958*
X5622Y0919*
X5668Y0892*
X5719Y0875*
X5776Y0870*
X5831Y0875*
X5882Y0892*
X5928Y0919*
X5969Y0958*
X6003Y1008*
X6027Y1070*
X6042Y1143*
X6046Y1228*
X6042Y1309*
X6027Y1379*
X6003Y1438*
X5969Y1487*
X5927Y1526*
X5882Y1553*
X5831Y1570*
X5776Y1575*
X5719Y1570*
X5668Y1554*
X5622Y1526*
X5581Y1488*
X5547Y1438*
X5523Y1378*
X5509Y1306*
X5504Y1223*
X6543Y2034D02*
X6543Y2034D01*
X6387Y2034*
X6387Y0763*
X6543Y0763*
X6543Y2034*
X7058Y0751D02*
X7058Y0751D01*
X7086Y0754*
X7117Y0758*
X7148Y0764*
X7126Y0901*
X7106Y0899*
X7106Y0899*
X7088Y0897*
X7088Y0897*
X7072Y0896*
X7072Y0896*
X7058Y0895*
X7058Y0895*
X7041Y0896*
X7041Y0896*
X7027Y0898*
X7027Y0898*
X7015Y0902*
X7015Y0902*
X7004Y0907*
X7004Y0907*
X6995Y0913*
X6995Y0913*
X6988Y0920*
X6988Y0920*
X6982Y0928*
X6982Y0928*
X6977Y0937*
X6977Y0937*
X6973Y0950*
X6973Y0950*
X6971Y0968*
X6971Y0968*
X6969Y0993*
X6969Y0993*
X6969Y1023*
X6969Y1023*
X6969Y1563*
X6969Y1563*
X7126Y1563*
X7126Y1683*
X6969Y1683*
X6969Y1684*
X6969Y2005*
X6814Y1912*
X6814Y1684*
X6814Y1683*
X6700Y1683*
X6700Y1563*
X6814Y1563*
X6814Y1563*
X6814Y1032*
X6816Y0968*
X6819Y0916*
X6825Y0876*
X6833Y0848*
X6845Y0827*
X6859Y0808*
X6878Y0792*
X6899Y0777*
X6925Y0765*
X6955Y0757*
X6991Y0752*
X7031Y0750*
X7058Y0751*
X7970Y1340D02*
X7970Y1340D01*
X7970Y1341*
X8567Y1341*
X8567Y1490*
X7970Y1490*
X7970Y1490*
X7970Y1885*
X7970Y1885*
X8660Y1885*
X8660Y2034*
X7802Y2034*
X7802Y0763*
X7970Y0763*
X7970Y1340*
X9371Y1885D02*
X9371Y1885D01*
X9371Y1885*
X9792Y1885*
X9792Y2034*
X8784Y2034*
X8784Y1885*
X9203Y1885*
X9203Y1885*
X9203Y0763*
X9371Y0763*
X9371Y1885*
X10480Y0764D02*
X10480Y0764D01*
X10533Y0768*
X10583Y0775*
X10629Y0784*
X10672Y0796*
X10711Y0811*
X10747Y0828*
X10781Y0848*
X10811Y0871*
X10841Y0898*
X10869Y0929*
X10896Y0963*
X10922Y1002*
X10944Y1046*
X10965Y1095*
X10983Y1148*
X10998Y1206*
X11008Y1269*
X11015Y1335*
X11017Y1405*
X11014Y1488*
X11004Y1566*
X10989Y1639*
X10967Y1708*
X10939Y1771*
X10904Y1828*
X10864Y1879*
X10816Y1925*
X10776Y1955*
X10731Y1981*
X10683Y2001*
X10630Y2016*
X10587Y2024*
X10534Y2030*
X10473Y2033*
X10404Y2034*
X9966Y2034*
X9966Y0763*
X10424Y0763*
X10480Y0764*
X10134Y0912D02*
X10134Y0912D01*
X10405Y0912*
X10465Y0914*
X10518Y0918*
X10564Y0925*
X10603Y0936*
X10637Y0949*
X10667Y0964*
X10694Y0982*
X10717Y1002*
X10745Y1034*
X10770Y1072*
X10792Y1115*
X10810Y1163*
X10825Y1216*
X10835Y1275*
X10842Y1339*
X10844Y1408*
X10840Y1502*
X10827Y1584*
X10807Y1655*
X10778Y1715*
X10744Y1764*
X10706Y1804*
X10664Y1836*
X10619Y1858*
X10580Y1870*
X10531Y1878*
X10471Y1883*
X10401Y1885*
X10134Y1885*
X10134Y0912*
X11446Y2034D02*
X11446Y2034D01*
X11278Y2034*
X11278Y0763*
X11446Y0763*
X11446Y2034*
X12661Y0747D02*
X12661Y0747D01*
X12728Y0764*
X12788Y0792*
X12843Y0831*
X12890Y0881*
X12927Y0938*
X12954Y1005*
X12972Y1079*
X12819Y1099*
X12808Y1045*
X12808Y1045*
X12791Y0998*
X12791Y0997*
X12769Y0958*
X12769Y0958*
X12741Y0926*
X12741Y0926*
X12708Y0901*
X12708Y0901*
X12672Y0883*
X12672Y0883*
X12631Y0873*
X12631Y0873*
X12587Y0869*
X12587Y0869*
X12532Y0874*
X12532Y0874*
X12483Y0890*
X12483Y0890*
X12439Y0917*
X12439Y0917*
X12401Y0954*
X12401Y0954*
X12370Y1002*
X12370Y1002*
X12347Y1063*
X12347Y1063*
X12334Y1137*
X12334Y1137*
X12330Y1224*
X12330Y1224*
X12334Y1309*
X12334Y1309*
X12348Y1383*
X12348Y1383*
X12371Y1443*
X12371Y1443*
X12403Y1492*
X12403Y1492*
X12443Y1529*
X12443Y1529*
X12488Y1556*
X12488Y1556*
X12539Y1572*
X12539Y1572*
X12596Y1577*
X12596Y1577*
X12633Y1574*
X12633Y1574*
X12668Y1565*
X12668Y1565*
X12700Y1550*
X12700Y1550*
X12729Y1530*
X12729Y1530*
X12755Y1503*
X12755Y1503*
X12776Y1471*
X12776Y1471*
X12793Y1433*
X12793Y1433*
X12806Y1390*
X12957Y1414*
X12939Y1479*
X12913Y1537*
X12878Y1587*
X12835Y1628*
X12784Y1662*
X12726Y1685*
X12661Y1700*
X12590Y1704*
X12531Y1701*
X12475Y1690*
X12421Y1673*
X12370Y1648*
X12322Y1617*
X12282Y1578*
X12247Y1533*
X12219Y1481*
X12198Y1422*
X12182Y1359*
X12173Y1292*
X12170Y1220*
X12177Y1111*
X12199Y1016*
X12235Y0934*
X12285Y0865*
X12347Y0811*
X12418Y0773*
X12499Y0749*
X12589Y0742*
X12661Y0747*
X13414Y0744D02*
X13414Y0744D01*
X13457Y0749*
X13500Y0759*
X13541Y0772*
X13581Y0790*
X13622Y0813*
X13665Y0842*
X13708Y0876*
X13708Y0876*
X13713Y0844*
X13720Y0815*
X13729Y0788*
X13739Y0763*
X13901Y0763*
X13888Y0789*
X13888Y0789*
X13877Y0816*
X13877Y0816*
X13869Y0844*
X13869Y0844*
X13862Y0873*
X13862Y0873*
X13858Y0912*
X13858Y0912*
X13855Y0970*
X13855Y0970*
X13853Y1049*
X13853Y1049*
X13852Y1148*
X13852Y1148*
X13852Y1357*
X13852Y1405*
X13850Y1445*
X13848Y1477*
X13845Y1501*
X13836Y1531*
X13825Y1559*
X13812Y1584*
X13796Y1607*
X13776Y1627*
X13752Y1645*
X13722Y1662*
X13688Y1677*
X13648Y1689*
X13603Y1697*
X13552Y1703*
X13496Y1704*
X13438Y1702*
X13384Y1696*
X13334Y1686*
X13287Y1672*
X13245Y1654*
X13207Y1632*
X13176Y1607*
X13149Y1579*
X13127Y1547*
X13108Y1509*
X13093Y1467*
X13081Y1421*
X13233Y1401*
X13247Y1446*
X13247Y1446*
X13265Y1484*
X13265Y1484*
X13286Y1514*
X13286Y1514*
X13310Y1537*
X13310Y1537*
X13340Y1554*
X13340Y1554*
X13377Y1566*
X13378Y1566*
X13422Y1574*
X13422Y1574*
X13473Y1576*
X13473Y1576*
X13529Y1573*
X13529Y1573*
X13577Y1563*
X13577Y1563*
X13618Y1546*
X13618Y1546*
X13652Y1523*
X13652Y1523*
X13671Y1500*
X13671Y1500*
X13685Y1470*
X13685Y1469*
X13693Y1432*
X13693Y1432*
X13696Y1388*
X13696Y1388*
X13696Y1382*
X13696Y1382*
X13696Y1373*
X13696Y1373*
X13696Y1362*
X13696Y1362*
X13695Y1347*
X13695Y1347*
X13644Y1332*
X13644Y1332*
X13581Y1318*
X13581Y1318*
X13505Y1305*
X13505Y1305*
X13416Y1293*
X13416Y1293*
X13373Y1287*
X13335Y1281*
X13303Y1275*
X13277Y1269*
X13247Y1260*
X13218Y1248*
X13191Y1234*
X13165Y1218*
X13141Y1200*
X13120Y1179*
X13101Y1155*
X13085Y1129*
X13071Y1100*
X13061Y1070*
X13056Y1038*
X13054Y1005*
X13059Y0950*
X13074Y0900*
X13100Y0855*
X13135Y0816*
X13180Y0783*
X13234Y0760*
X13297Y0746*
X13368Y0742*
X13414Y0744*
X13695Y1225D02*
X13695Y1225D01*
X13647Y1208*
X13588Y1193*
X13519Y1179*
X13440Y1166*
X13395Y1159*
X13357Y1151*
X13327Y1143*
X13303Y1134*
X13284Y1125*
X13268Y1113*
X13254Y1099*
X13242Y1084*
X13232Y1066*
X13225Y1048*
X13221Y1029*
X13220Y1009*
X13223Y0979*
X13232Y0952*
X13247Y0927*
X13267Y0905*
X13294Y0887*
X13326Y0874*
X13363Y0866*
X13406Y0864*
X13450Y0866*
X13491Y0873*
X13530Y0886*
X13566Y0903*
X13599Y0925*
X13627Y0950*
X13651Y0979*
X13670Y1011*
X13681Y1041*
X13689Y1077*
X13693Y1119*
X13695Y1167*
X13695Y1225*
X14574Y0750D02*
X14574Y0750D01*
X14647Y0774*
X14715Y0814*
X14776Y0871*
X14827Y0942*
X14864Y1027*
X14886Y1125*
X14893Y1237*
X14892Y1286*
X14886Y1334*
X14878Y1380*
X14866Y1424*
X14850Y1466*
X14832Y1505*
X14812Y1541*
X14789Y1574*
X14763Y1603*
X14733Y1629*
X14700Y1651*
X14664Y1670*
X14625Y1685*
X14586Y1696*
X14545Y1702*
X14503Y1704*
X14430Y1697*
X14363Y1673*
X14304Y1635*
X14251Y1580*
X14250Y1580*
X14250Y2034*
X14095Y2034*
X14095Y0763*
X14239Y0763*
X14239Y0878*
X14239Y0878*
X14290Y0818*
X14350Y0776*
X14418Y0750*
X14495Y0742*
X14574Y0750*
X14237Y1230D02*
X14237Y1230D01*
X14240Y1153*
X14249Y1087*
X14263Y1033*
X14283Y0990*
X14323Y0938*
X14369Y0900*
X14423Y0877*
X14482Y0870*
X14532Y0875*
X14578Y0892*
X14620Y0920*
X14659Y0959*
X14692Y1009*
X14715Y1069*
X14729Y1141*
X14734Y1224*
X14730Y1308*
X14716Y1381*
X14694Y1442*
X14662Y1490*
X14625Y1528*
X14583Y1555*
X14538Y1571*
X14489Y1576*
X14440Y1571*
X14394Y1554*
X14351Y1526*
X14312Y1487*
X14279Y1438*
X14256Y1379*
X14242Y1309*
X14237Y1230*
X15236Y2034D02*
X15236Y2034D01*
X15081Y2034*
X15081Y0763*
X15236Y0763*
X15236Y2034*
X15943Y0747D02*
X15943Y0747D01*
X16012Y0761*
X16075Y0786*
X16130Y0820*
X16177Y0863*
X16217Y0914*
X16248Y0972*
X16271Y1039*
X16110Y1058*
X16091Y1013*
X16091Y1013*
X16069Y0973*
X16069Y0973*
X16043Y0940*
X16043Y0940*
X16014Y0914*
X16014Y0914*
X15982Y0895*
X15982Y0895*
X15947Y0880*
X15947Y0880*
X15908Y0872*
X15908Y0872*
X15867Y0869*
X15867Y0869*
X15812Y0874*
X15811Y0874*
X15761Y0889*
X15761Y0889*
X15715Y0915*
X15715Y0915*
X15674Y0950*
X15674Y0950*
X15639Y0995*
X15639Y0995*
X15614Y1049*
X15614Y1049*
X15596Y1111*
X15596Y1111*
X15588Y1183*
X15588Y1184*
X16275Y1184*
X16276Y1196*
X16276Y1207*
X16276Y1217*
X16276Y1225*
X16269Y1332*
X16247Y1427*
X16210Y1509*
X16159Y1579*
X16096Y1634*
X16025Y1673*
X15946Y1696*
X15857Y1704*
X15766Y1696*
X15684Y1672*
X15611Y1632*
X15547Y1576*
X15495Y1505*
X15457Y1422*
X15435Y1325*
X15427Y1215*
X15435Y1109*
X15457Y1016*
X15494Y0935*
X15546Y0866*
X15610Y0812*
X15685Y0773*
X15770Y0749*
X15866Y0742*
X15943Y0747*
X15597Y1312D02*
X15597Y1312D01*
X16112Y1312*
X16104Y1366*
X16092Y1413*
X16075Y1453*
X16053Y1486*
X16013Y1526*
X15967Y1554*
X15916Y1571*
X15859Y1576*
X15807Y1572*
X15760Y1558*
X15717Y1536*
X15678Y1504*
X15646Y1465*
X15621Y1420*
X15605Y1369*
X15597Y1312*
X14809Y10989D02*
X14809Y10989D01*
X14812Y10959*
X14816Y10931*
X14821Y10906*
X14828Y10883*
X14836Y10862*
X14846Y10843*
X14857Y10826*
X14870Y10811*
X14885Y10797*
X14904Y10784*
X14924Y10773*
X14947Y10764*
X14970Y10757*
X14994Y10753*
X15019Y10751*
X15050Y10754*
X15078Y10760*
X15105Y10771*
X15129Y10787*
X15150Y10806*
X15169Y10830*
X15183Y10857*
X15195Y10888*
X15195Y10888*
X15209Y10864*
X15225Y10844*
X15242Y10826*
X15262Y10812*
X15283Y10801*
X15304Y10793*
X15327Y10788*
X15349Y10787*
X15374Y10788*
X15398Y10794*
X15422Y10803*
X15445Y10815*
X15467Y10831*
X15485Y10849*
X15500Y10870*
X15513Y10894*
X15523Y10921*
X15529Y10952*
X15534Y10988*
X15535Y11027*
X15535Y11300*
X14809Y11300*
X14809Y11023*
X14809Y10989*
X15230Y11204D02*
X15230Y11204D01*
X15230Y11047*
X15230Y11017*
X15232Y10992*
X15235Y10971*
X15238Y10955*
X15245Y10938*
X15253Y10923*
X15263Y10910*
X15275Y10899*
X15288Y10891*
X15303Y10886*
X15320Y10882*
X15338Y10881*
X15356Y10882*
X15372Y10885*
X15387Y10891*
X15402Y10898*
X15414Y10908*
X15425Y10919*
X15433Y10933*
X15439Y10948*
X15444Y10967*
X15447Y10992*
X15449Y11022*
X15450Y11058*
X15450Y11204*
X15230Y11204*
X14894Y11204D02*
X14894Y11204D01*
X14894Y11023*
X14894Y11001*
X14895Y10983*
X14896Y10968*
X14897Y10957*
X14901Y10941*
X14905Y10927*
X14911Y10914*
X14917Y10902*
X14925Y10891*
X14934Y10881*
X14945Y10873*
X14958Y10865*
X14972Y10859*
X14986Y10854*
X15002Y10852*
X15019Y10851*
X15039Y10852*
X15057Y10856*
X15074Y10862*
X15090Y10871*
X15104Y10883*
X15115Y10896*
X15125Y10912*
X15132Y10929*
X15137Y10950*
X15141Y10974*
X15143Y11003*
X15144Y11036*
X15144Y11204*
X14894Y11204*
X15535Y10543D02*
X15535Y10543D01*
X15535Y10631*
X14809Y10631*
X14809Y10543*
X15535Y10543*
X14798Y10228D02*
X14798Y10228D01*
X14801Y10204*
X14807Y10179*
X14814Y10156*
X14824Y10133*
X14838Y10109*
X14854Y10085*
X14874Y10060*
X14874Y10060*
X14855Y10057*
X14838Y10053*
X14823Y10048*
X14809Y10042*
X14809Y9950*
X14823Y9957*
X14823Y9957*
X14839Y9964*
X14839Y9964*
X14855Y9969*
X14855Y9969*
X14871Y9972*
X14871Y9972*
X14894Y9975*
X14894Y9975*
X14927Y9977*
X14927Y9977*
X14972Y9978*
X14972Y9978*
X15029Y9978*
X15029Y9978*
X15148Y9978*
X15175Y9978*
X15198Y9979*
X15217Y9981*
X15230Y9982*
X15248Y9987*
X15264Y9993*
X15278Y10001*
X15291Y10010*
X15302Y10021*
X15313Y10035*
X15322Y10052*
X15331Y10072*
X15338Y10095*
X15342Y10120*
X15345Y10149*
X15346Y10181*
X15345Y10214*
X15342Y10245*
X15336Y10274*
X15328Y10301*
X15318Y10325*
X15305Y10346*
X15291Y10364*
X15275Y10379*
X15256Y10392*
X15235Y10403*
X15211Y10412*
X15185Y10418*
X15173Y10332*
X15199Y10324*
X15199Y10324*
X15221Y10314*
X15221Y10314*
X15238Y10302*
X15238Y10302*
X15251Y10288*
X15251Y10288*
X15261Y10270*
X15261Y10270*
X15268Y10249*
X15268Y10249*
X15272Y10224*
X15272Y10224*
X15274Y10194*
X15274Y10194*
X15272Y10163*
X15272Y10163*
X15266Y10135*
X15266Y10135*
X15256Y10112*
X15256Y10112*
X15243Y10092*
X15243Y10092*
X15230Y10081*
X15230Y10081*
X15213Y10073*
X15213Y10073*
X15191Y10068*
X15191Y10068*
X15166Y10067*
X15166Y10067*
X15163Y10067*
X15163Y10067*
X15158Y10067*
X15158Y10067*
X15151Y10067*
X15151Y10067*
X15142Y10067*
X15142Y10067*
X15133Y10097*
X15133Y10097*
X15125Y10133*
X15125Y10133*
X15118Y10176*
X15118Y10176*
X15111Y10227*
X15111Y10227*
X15108Y10252*
X15105Y10273*
X15101Y10291*
X15098Y10306*
X15092Y10324*
X15086Y10340*
X15078Y10356*
X15069Y10370*
X15058Y10384*
X15046Y10396*
X15033Y10407*
X15018Y10416*
X15001Y10424*
X14984Y10430*
X14966Y10433*
X14947Y10434*
X14916Y10431*
X14887Y10422*
X14862Y10408*
X14839Y10387*
X14821Y10362*
X14807Y10331*
X14799Y10295*
X14797Y10254*
X14798Y10228*
X15073Y10068D02*
X15073Y10068D01*
X15063Y10095*
X15054Y10129*
X15046Y10168*
X15039Y10214*
X15035Y10239*
X15030Y10261*
X15026Y10278*
X15021Y10292*
X15015Y10302*
X15009Y10312*
X15001Y10320*
X14992Y10327*
X14982Y10332*
X14972Y10336*
X14961Y10338*
X14950Y10339*
X14932Y10337*
X14917Y10332*
X14903Y10324*
X14890Y10312*
X14880Y10297*
X14872Y10279*
X14868Y10257*
X14866Y10233*
X14868Y10208*
X14872Y10184*
X14879Y10162*
X14889Y10141*
X14901Y10122*
X14916Y10106*
X14932Y10093*
X14951Y10082*
X14968Y10076*
X14988Y10071*
X15012Y10069*
X15040Y10068*
X15073Y10068*
X14800Y9585D02*
X14800Y9585D01*
X14810Y9547*
X14826Y9513*
X14848Y9481*
X14876Y9455*
X14909Y9434*
X14947Y9418*
X14989Y9408*
X15001Y9495*
X14970Y9501*
X14970Y9501*
X14943Y9511*
X14943Y9511*
X14920Y9524*
X14920Y9524*
X14902Y9540*
X14902Y9540*
X14887Y9558*
X14887Y9558*
X14877Y9579*
X14877Y9579*
X14871Y9602*
X14871Y9602*
X14869Y9628*
X14869Y9628*
X14872Y9659*
X14872Y9659*
X14881Y9687*
X14881Y9687*
X14896Y9712*
X14896Y9712*
X14917Y9734*
X14918Y9734*
X14945Y9752*
X14945Y9752*
X14980Y9765*
X14980Y9765*
X15023Y9773*
X15023Y9773*
X15072Y9775*
X15072Y9775*
X15121Y9772*
X15121Y9772*
X15163Y9765*
X15163Y9765*
X15198Y9751*
X15198Y9751*
X15225Y9733*
X15226Y9733*
X15247Y9710*
X15247Y9710*
X15262Y9684*
X15262Y9684*
X15271Y9655*
X15271Y9655*
X15274Y9623*
X15274Y9623*
X15272Y9601*
X15272Y9601*
X15267Y9581*
X15267Y9581*
X15259Y9563*
X15259Y9563*
X15247Y9546*
X15247Y9546*
X15232Y9532*
X15232Y9532*
X15214Y9519*
X15214Y9519*
X15192Y9510*
X15192Y9510*
X15167Y9502*
X15181Y9417*
X15218Y9427*
X15251Y9442*
X15279Y9461*
X15303Y9486*
X15322Y9515*
X15336Y9548*
X15344Y9585*
X15346Y9626*
X15344Y9660*
X15338Y9692*
X15328Y9722*
X15315Y9752*
X15297Y9779*
X15275Y9802*
X15249Y9822*
X15219Y9838*
X15185Y9850*
X15150Y9859*
X15111Y9864*
X15070Y9866*
X15008Y9862*
X14953Y9849*
X14906Y9829*
X14867Y9800*
X14836Y9765*
X14814Y9724*
X14801Y9678*
X14797Y9627*
X14800Y9585*
X15139Y9116D02*
X15139Y9116D01*
X15140Y9116*
X15335Y8916*
X15335Y9030*
X15120Y9241*
X15120Y9242*
X15535Y9242*
X15535Y9330*
X14809Y9330*
X14809Y9242*
X15017Y9242*
X15017Y9242*
X15078Y9178*
X15078Y9178*
X14809Y9004*
X14809Y8895*
X15139Y9116*
X9721Y10248D02*
X9721Y10248D01*
X9721Y10248*
X9721Y10136*
X9721Y10136*
X9721Y10119*
X9721Y10119*
X9721Y10104*
X9721Y10104*
X9720Y10092*
X9720Y10092*
X9718Y10082*
X9718Y10082*
X9715Y10071*
X9715Y10071*
X9710Y10060*
X9710Y10060*
X9705Y10049*
X9705Y10049*
X9699Y10038*
X9699Y10038*
X9690Y10027*
X9690Y10027*
X9679Y10015*
X9679Y10015*
X9666Y10002*
X9666Y10002*
X9650Y9989*
X9650Y9989*
X9631Y9975*
X9631Y9975*
X9607Y9958*
X9607Y9958*
X9580Y9940*
X9580Y9940*
X9550Y9920*
X9550Y9920*
X9399Y9824*
X9399Y9704*
X9596Y9830*
X9623Y9849*
X9649Y9869*
X9672Y9889*
X9692Y9910*
X9701Y9921*
X9710Y9934*
X9719Y9950*
X9729Y9968*
X9729Y9968*
X9739Y9918*
X9753Y9876*
X9773Y9841*
X9797Y9813*
X9825Y9791*
X9856Y9775*
X9890Y9766*
X9927Y9763*
X9956Y9765*
X9984Y9770*
X10011Y9780*
X10036Y9793*
X10059Y9809*
X10078Y9828*
X10094Y9850*
X10105Y9874*
X10114Y9902*
X10120Y9936*
X10124Y9976*
X10125Y10021*
X10125Y10343*
X9399Y10343*
X9399Y10248*
X9721Y10248*
X9804Y10248D02*
X9804Y10248D01*
X9804Y10041*
X9805Y10009*
X9808Y9982*
X9812Y9958*
X9818Y9937*
X9826Y9920*
X9836Y9905*
X9848Y9892*
X9862Y9881*
X9877Y9872*
X9893Y9866*
X9910Y9863*
X9927Y9862*
X9951Y9864*
X9974Y9871*
X9994Y9883*
X10012Y9899*
X10026Y9920*
X10037Y9947*
X10043Y9980*
X10045Y10017*
X10045Y10248*
X9804Y10248*
X9389Y9358D02*
X9389Y9358D01*
X9398Y9318*
X9412Y9283*
X9431Y9251*
X9456Y9224*
X9485Y9202*
X9518Y9184*
X9556Y9171*
X9567Y9262*
X9541Y9273*
X9541Y9273*
X9519Y9286*
X9518Y9286*
X9500Y9301*
X9500Y9301*
X9485Y9317*
X9485Y9317*
X9474Y9335*
X9474Y9335*
X9465Y9356*
X9465Y9356*
X9461Y9377*
X9461Y9377*
X9459Y9401*
X9459Y9401*
X9462Y9433*
X9462Y9433*
X9471Y9462*
X9471Y9462*
X9485Y9488*
X9485Y9488*
X9505Y9512*
X9505Y9512*
X9531Y9531*
X9531Y9531*
X9562Y9546*
X9562Y9546*
X9598Y9556*
X9598Y9556*
X9639Y9561*
X9639Y9561*
X9639Y9168*
X9646Y9168*
X9653Y9168*
X9658Y9168*
X9662Y9168*
X9724Y9172*
X9778Y9184*
X9825Y9205*
X9864Y9234*
X9896Y9270*
X9918Y9311*
X9932Y9356*
X9936Y9407*
X9932Y9459*
X9918Y9505*
X9895Y9547*
X9863Y9584*
X9823Y9614*
X9775Y9635*
X9720Y9648*
X9657Y9652*
X9596Y9648*
X9543Y9635*
X9497Y9614*
X9458Y9585*
X9427Y9548*
X9404Y9505*
X9391Y9456*
X9387Y9402*
X9389Y9358*
X9712Y9555D02*
X9712Y9555D01*
X9712Y9261*
X9743Y9266*
X9770Y9273*
X9793Y9282*
X9812Y9295*
X9834Y9318*
X9850Y9344*
X9860Y9373*
X9863Y9406*
X9861Y9435*
X9853Y9462*
X9840Y9487*
X9822Y9509*
X9800Y9528*
X9774Y9542*
X9745Y9551*
X9712Y9555*
X9391Y8818D02*
X9391Y8818D01*
X9406Y8778*
X9431Y8744*
X9465Y8716*
X9465Y8716*
X9399Y8716*
X9399Y8634*
X10125Y8634*
X10125Y8722*
X9864Y8722*
X9864Y8722*
X9879Y8735*
X9893Y8749*
X9905Y8765*
X9916Y8783*
X9925Y8802*
X9931Y8822*
X9935Y8844*
X9936Y8867*
X9934Y8899*
X9928Y8929*
X9917Y8958*
X9902Y8985*
X9883Y9009*
X9860Y9031*
X9834Y9049*
X9804Y9063*
X9771Y9075*
X9736Y9083*
X9699Y9088*
X9661Y9090*
X9622Y9088*
X9585Y9082*
X9550Y9073*
X9518Y9061*
X9489Y9045*
X9463Y9026*
X9440Y9004*
X9421Y8979*
X9406Y8952*
X9395Y8924*
X9389Y8894*
X9387Y8863*
X9391Y8818*
X9661Y8998D02*
X9661Y8998D01*
X9614Y8996*
X9573Y8988*
X9538Y8974*
X9510Y8956*
X9488Y8933*
X9472Y8909*
X9463Y8883*
X9460Y8855*
X9463Y8827*
X9471Y8801*
X9486Y8777*
X9507Y8756*
X9534Y8738*
X9568Y8725*
X9608Y8717*
X9653Y8715*
X9704Y8717*
X9747Y8725*
X9783Y8738*
X9812Y8756*
X9834Y8778*
X9850Y8803*
X9860Y8830*
X9863Y8859*
X9860Y8887*
X9851Y8914*
X9835Y8937*
X9814Y8958*
X9786Y8976*
X9752Y8988*
X9710Y8996*
X9661Y8998*
X23885Y0747D02*
X23885Y0747D01*
X23966Y0769*
X24039Y0805*
X24103Y0856*
X24157Y0917*
X24194Y0984*
X24217Y1058*
X24225Y1138*
X24221Y1197*
X24209Y1251*
X24190Y1299*
X24162Y1343*
X24128Y1380*
X24087Y1411*
X24041Y1434*
X23987Y1451*
X23987Y1452*
X24028Y1473*
X24063Y1499*
X24093Y1527*
X24118Y1559*
X24137Y1594*
X24151Y1631*
X24160Y1669*
X24162Y1709*
X24159Y1752*
X24151Y1793*
X24136Y1834*
X24116Y1873*
X24090Y1910*
X24059Y1942*
X24023Y1970*
X23982Y1995*
X23937Y2014*
X23890Y2028*
X23841Y2037*
X23790Y2039*
X23718Y2034*
X23652Y2018*
X23592Y1991*
X23538Y1953*
X23492Y1906*
X23455Y1849*
X23427Y1784*
X23408Y1710*
X23563Y1683*
X23575Y1736*
X23575Y1736*
X23591Y1783*
X23592Y1783*
X23614Y1822*
X23614Y1822*
X23642Y1855*
X23642Y1855*
X23674Y1880*
X23674Y1880*
X23710Y1898*
X23710Y1898*
X23750Y1908*
X23750Y1908*
X23794Y1912*
X23794Y1912*
X23838Y1908*
X23838Y1908*
X23878Y1898*
X23878Y1898*
X23913Y1880*
X23913Y1880*
X23944Y1855*
X23944Y1855*
X23970Y1825*
X23970Y1825*
X23988Y1791*
X23988Y1791*
X23999Y1754*
X23999Y1754*
X24003Y1713*
X24003Y1713*
X23998Y1662*
X23998Y1662*
X23983Y1618*
X23983Y1618*
X23958Y1581*
X23958Y1581*
X23923Y1552*
X23923Y1552*
X23881Y1529*
X23881Y1529*
X23838Y1512*
X23838Y1512*
X23791Y1503*
X23791Y1503*
X23743Y1499*
X23743Y1499*
X23737Y1500*
X23737Y1500*
X23731Y1500*
X23731Y1500*
X23725Y1500*
X23725Y1500*
X23718Y1501*
X23701Y1365*
X23732Y1373*
X23732Y1373*
X23761Y1378*
X23761Y1378*
X23787Y1381*
X23787Y1381*
X23810Y1382*
X23810Y1382*
X23862Y1378*
X23862Y1378*
X23909Y1365*
X23909Y1365*
X23952Y1343*
X23952Y1343*
X23989Y1312*
X23990Y1312*
X24020Y1275*
X24020Y1275*
X24042Y1233*
X24042Y1233*
X24056Y1186*
X24056Y1186*
X24060Y1134*
X24060Y1134*
X24055Y1080*
X24055Y1080*
X24041Y1031*
X24041Y1030*
X24017Y0985*
X24017Y0985*
X23984Y0945*
X23984Y0945*
X23944Y0911*
X23944Y0911*
X23899Y0887*
X23899Y0887*
X23850Y0873*
X23850Y0873*
X23797Y0868*
X23797Y0868*
X23753Y0872*
X23752Y0872*
X23711Y0883*
X23711Y0883*
X23674Y0901*
X23674Y0901*
X23639Y0927*
X23639Y0927*
X23609Y0961*
X23609Y0961*
X23584Y1004*
X23584Y1004*
X23563Y1057*
X23563Y1057*
X23548Y1118*
X23392Y1098*
X23406Y1022*
X23432Y0954*
X23469Y0893*
X23519Y0840*
X23577Y0796*
X23643Y0765*
X23716Y0746*
X23796Y0740*
X23885Y0747*
X24645Y0939D02*
X24645Y0939D01*
X24468Y0939*
X24468Y0763*
X24645Y0763*
X24645Y0939*
X25368Y0747D02*
X25368Y0747D01*
X25449Y0769*
X25522Y0805*
X25586Y0856*
X25639Y0917*
X25677Y0984*
X25700Y1058*
X25708Y1138*
X25704Y1197*
X25692Y1251*
X25672Y1299*
X25645Y1343*
X25611Y1380*
X25570Y1411*
X25523Y1434*
X25470Y1451*
X25470Y1452*
X25511Y1473*
X25546Y1499*
X25576Y1527*
X25601Y1559*
X25620Y1594*
X25634Y1631*
X25642Y1669*
X25645Y1709*
X25642Y1752*
X25634Y1793*
X25619Y1834*
X25599Y1873*
X25573Y1910*
X25542Y1942*
X25506Y1970*
X25465Y1995*
X25420Y2014*
X25373Y2028*
X25324Y2037*
X25273Y2039*
X25201Y2034*
X25135Y2018*
X25075Y1991*
X25021Y1953*
X24975Y1906*
X24938Y1849*
X24910Y1784*
X24891Y1710*
X25046Y1683*
X25057Y1736*
X25057Y1736*
X25074Y1783*
X25074Y1783*
X25097Y1822*
X25097Y1822*
X25124Y1855*
X25124Y1855*
X25157Y1880*
X25157Y1880*
X25193Y1898*
X25193Y1898*
X25233Y1908*
X25233Y1908*
X25277Y1912*
X25277Y1912*
X25321Y1908*
X25321Y1908*
X25360Y1898*
X25360Y1898*
X25396Y1880*
X25396Y1880*
X25427Y1855*
X25427Y1855*
X25453Y1825*
X25453Y1825*
X25471Y1791*
X25471Y1791*
X25482Y1754*
X25482Y1754*
X25486Y1713*
X25486Y1713*
X25481Y1662*
X25480Y1662*
X25465Y1618*
X25465Y1618*
X25440Y1581*
X25440Y1581*
X25405Y1552*
X25405Y1552*
X25364Y1529*
X25364Y1529*
X25320Y1512*
X25320Y1512*
X25274Y1503*
X25274Y1503*
X25225Y1499*
X25225Y1499*
X25220Y1500*
X25220Y1500*
X25214Y1500*
X25214Y1500*
X25208Y1500*
X25208Y1500*
X25201Y1501*
X25183Y1365*
X25214Y1373*
X25214Y1373*
X25243Y1378*
X25243Y1378*
X25270Y1381*
X25270Y1381*
X25293Y1382*
X25293Y1382*
X25345Y1378*
X25345Y1378*
X25392Y1365*
X25392Y1365*
X25435Y1343*
X25435Y1343*
X25472Y1312*
X25472Y1312*
X25503Y1275*
X25503Y1275*
X25525Y1233*
X25525Y1233*
X25538Y1186*
X25538Y1186*
X25543Y1134*
X25543Y1134*
X25538Y1080*
X25538Y1080*
X25524Y1031*
X25524Y1030*
X25500Y0985*
X25500Y0985*
X25467Y0945*
X25467Y0945*
X25427Y0911*
X25426Y0911*
X25382Y0887*
X25382Y0887*
X25333Y0873*
X25333Y0873*
X25280Y0868*
X25280Y0868*
X25235Y0872*
X25235Y0872*
X25194Y0883*
X25194Y0883*
X25156Y0901*
X25156Y0901*
X25122Y0927*
X25122Y0927*
X25092Y0961*
X25092Y0961*
X25067Y1004*
X25067Y1004*
X25046Y1057*
X25046Y1057*
X25031Y1118*
X24875Y1098*
X24889Y1022*
X24915Y0954*
X24952Y0893*
X25001Y0840*
X25060Y0796*
X25126Y0765*
X25199Y0746*
X25279Y0740*
X25368Y0747*
X26960Y2034D02*
X26960Y2034D01*
X26789Y2034*
X26446Y1110*
X26427Y1058*
X26409Y1006*
X26392Y0954*
X26377Y0901*
X26376Y0901*
X26362Y0951*
X26346Y1002*
X26328Y1055*
X26309Y1110*
X25979Y2034*
X25797Y2034*
X26290Y0763*
X26462Y0763*
X26960Y2034*
X4880Y11080D02*
X4880Y11080D01*
X4880Y11080*
X5299Y10791*
X5299Y10902*
X5085Y11042*
X5050Y11065*
X5017Y11085*
X4986Y11104*
X4956Y11122*
X4956Y11122*
X4987Y11140*
X5018Y11158*
X5049Y11177*
X5080Y11196*
X5299Y11340*
X5299Y11456*
X4880Y11176*
X4880Y11176*
X4573Y11176*
X4573Y11080*
X4880Y11080*
X4563Y10543D02*
X4563Y10543D01*
X4572Y10503*
X4586Y10468*
X4605Y10436*
X4630Y10409*
X4659Y10387*
X4692Y10369*
X4730Y10356*
X4741Y10447*
X4715Y10458*
X4715Y10458*
X4693Y10471*
X4692Y10471*
X4674Y10486*
X4674Y10486*
X4659Y10502*
X4659Y10502*
X4648Y10520*
X4648Y10521*
X4639Y10541*
X4639Y10541*
X4635Y10563*
X4635Y10563*
X4633Y10586*
X4633Y10586*
X4636Y10618*
X4636Y10618*
X4645Y10647*
X4645Y10647*
X4659Y10673*
X4659Y10673*
X4679Y10697*
X4679Y10697*
X4705Y10716*
X4705Y10717*
X4736Y10731*
X4736Y10731*
X4772Y10741*
X4772Y10741*
X4813Y10746*
X4813Y10746*
X4813Y10353*
X4820Y10353*
X4827Y10353*
X4832Y10353*
X4836Y10353*
X4898Y10357*
X4952Y10369*
X4999Y10390*
X5038Y10420*
X5070Y10455*
X5092Y10496*
X5106Y10541*
X5110Y10592*
X5106Y10644*
X5092Y10691*
X5069Y10732*
X5037Y10769*
X4997Y10799*
X4949Y10820*
X4894Y10833*
X4831Y10837*
X4770Y10833*
X4717Y10820*
X4671Y10799*
X4632Y10770*
X4601Y10733*
X4578Y10690*
X4565Y10642*
X4561Y10587*
X4563Y10543*
X4886Y10741D02*
X4886Y10741D01*
X4886Y10446*
X4917Y10451*
X4944Y10458*
X4967Y10468*
X4986Y10480*
X5008Y10503*
X5024Y10529*
X5034Y10558*
X5037Y10591*
X5035Y10620*
X5027Y10647*
X5014Y10672*
X4996Y10694*
X4974Y10713*
X4948Y10727*
X4919Y10736*
X4886Y10741*
X5299Y10156D02*
X5299Y10156D01*
X5299Y10244*
X4573Y10244*
X4573Y10156*
X5299Y10156*
X5299Y9931D02*
X5299Y9931D01*
X5299Y10019*
X4573Y10019*
X4573Y9931*
X5299Y9931*
X4563Y9544D02*
X4563Y9544D01*
X4569Y9512*
X4579Y9481*
X4593Y9451*
X4610Y9423*
X4631Y9400*
X4656Y9379*
X4683Y9362*
X4715Y9349*
X4752Y9339*
X4795Y9334*
X4843Y9332*
X4902Y9336*
X4955Y9349*
X5000Y9370*
X5039Y9401*
X5070Y9437*
X5092Y9479*
X5106Y9526*
X5110Y9578*
X5107Y9625*
X5096Y9668*
X5077Y9707*
X5052Y9743*
X5012Y9779*
X4963Y9804*
X4904Y9819*
X4835Y9824*
X4773Y9820*
X4718Y9807*
X4671Y9786*
X4631Y9756*
X4600Y9720*
X4578Y9678*
X4565Y9630*
X4561Y9578*
X4563Y9544*
X4835Y9733D02*
X4835Y9733D01*
X4788Y9730*
X4747Y9722*
X4712Y9708*
X4684Y9689*
X4662Y9665*
X4646Y9639*
X4637Y9610*
X4634Y9578*
X4637Y9546*
X4646Y9517*
X4662Y9491*
X4684Y9467*
X4713Y9448*
X4748Y9434*
X4790Y9426*
X4838Y9423*
X4884Y9426*
X4924Y9434*
X4958Y9448*
X4986Y9467*
X5009Y9491*
X5024Y9517*
X5034Y9546*
X5037Y9578*
X5034Y9610*
X5024Y9639*
X5009Y9665*
X4987Y9689*
X4958Y9708*
X4924Y9722*
X4883Y9730*
X4835Y9733*
X5098Y8568D02*
X5098Y8568D01*
X5098Y8654*
X4794Y8744*
X4794Y8744*
X4692Y8775*
X4692Y8776*
X4793Y8802*
X4793Y8802*
X5098Y8881*
X5098Y8972*
X4790Y9055*
X4746Y9067*
X4746Y9067*
X4713Y9075*
X4691Y9080*
X4681Y9083*
X4681Y9084*
X4795Y9115*
X4795Y9115*
X5098Y9199*
X5098Y9290*
X4573Y9129*
X4573Y9036*
X4978Y8930*
X4978Y8929*
X4888Y8909*
X4573Y8825*
X4573Y8733*
X5098Y8568*
X12193Y11055D02*
X12193Y11055D01*
X12196Y11024*
X12199Y10996*
X12205Y10971*
X12211Y10948*
X12220Y10927*
X12229Y10908*
X12241Y10891*
X12254Y10876*
X12269Y10862*
X12287Y10849*
X12308Y10838*
X12330Y10829*
X12354Y10822*
X12378Y10818*
X12403Y10817*
X12433Y10819*
X12462Y10825*
X12488Y10836*
X12513Y10852*
X12534Y10872*
X12552Y10895*
X12567Y10922*
X12579Y10953*
X12579Y10954*
X12593Y10929*
X12609Y10909*
X12626Y10891*
X12646Y10877*
X12667Y10866*
X12688Y10858*
X12710Y10853*
X12733Y10852*
X12758Y10854*
X12782Y10859*
X12806Y10868*
X12829Y10880*
X12850Y10896*
X12869Y10914*
X12884Y10935*
X12897Y10959*
X12906Y10986*
X12913Y11017*
X12917Y11053*
X12919Y11092*
X12919Y11365*
X12193Y11365*
X12193Y11088*
X12193Y11055*
X12614Y11269D02*
X12614Y11269D01*
X12614Y11112*
X12614Y11082*
X12616Y11057*
X12618Y11036*
X12622Y11020*
X12628Y11003*
X12637Y10988*
X12647Y10975*
X12658Y10965*
X12672Y10956*
X12687Y10951*
X12704Y10947*
X12722Y10946*
X12739Y10947*
X12756Y10950*
X12771Y10956*
X12786Y10963*
X12798Y10973*
X12809Y10984*
X12817Y10998*
X12823Y11013*
X12828Y11032*
X12831Y11057*
X12833Y11087*
X12833Y11124*
X12833Y11269*
X12614Y11269*
X12278Y11269D02*
X12278Y11269D01*
X12278Y11088*
X12278Y11066*
X12279Y11048*
X12280Y11034*
X12281Y11022*
X12285Y11006*
X12289Y10992*
X12295Y10979*
X12301Y10967*
X12309Y10956*
X12318Y10947*
X12329Y10938*
X12342Y10930*
X12355Y10924*
X12370Y10919*
X12386Y10917*
X12403Y10916*
X12423Y10917*
X12441Y10921*
X12458Y10927*
X12474Y10937*
X12487Y10948*
X12499Y10961*
X12509Y10977*
X12516Y10994*
X12521Y11015*
X12525Y11039*
X12527Y11068*
X12528Y11101*
X12528Y11269*
X12278Y11269*
X12468Y10607D02*
X12468Y10607D01*
X12468Y10607*
X12496Y10606*
X12496Y10606*
X12522Y10603*
X12522Y10603*
X12548Y10599*
X12548Y10599*
X12572Y10592*
X12572Y10592*
X12587Y10586*
X12587Y10586*
X12600Y10579*
X12600Y10579*
X12612Y10570*
X12612Y10570*
X12621Y10559*
X12621Y10559*
X12629Y10547*
X12629Y10547*
X12635Y10534*
X12635Y10534*
X12638Y10520*
X12638Y10520*
X12639Y10506*
X12639Y10506*
X12638Y10490*
X12638Y10490*
X12634Y10473*
X12634Y10473*
X12628Y10457*
X12628Y10457*
X12620Y10441*
X12702Y10410*
X12714Y10433*
X12723Y10456*
X12728Y10479*
X12730Y10502*
X12729Y10517*
X12726Y10531*
X12720Y10545*
X12712Y10559*
X12701Y10572*
X12685Y10586*
X12664Y10600*
X12638Y10615*
X12639Y10616*
X12718Y10616*
X12718Y10695*
X12193Y10695*
X12193Y10607*
X12468Y10607*
X12183Y10109D02*
X12183Y10109D01*
X12189Y10077*
X12199Y10046*
X12213Y10016*
X12230Y9989*
X12251Y9965*
X12276Y9944*
X12303Y9927*
X12335Y9914*
X12372Y9904*
X12415Y9899*
X12463Y9897*
X12522Y9901*
X12575Y9914*
X12620Y9936*
X12659Y9966*
X12690Y10003*
X12712Y10044*
X12726Y10091*
X12730Y10143*
X12727Y10190*
X12716Y10233*
X12697Y10272*
X12672Y10308*
X12632Y10344*
X12583Y10369*
X12524Y10384*
X12455Y10389*
X12393Y10385*
X12338Y10372*
X12291Y10351*
X12251Y10321*
X12220Y10285*
X12198Y10243*
X12185Y10195*
X12181Y10143*
X12183Y10109*
X12455Y10298D02*
X12455Y10298D01*
X12408Y10295*
X12367Y10287*
X12332Y10273*
X12304Y10254*
X12282Y10230*
X12266Y10204*
X12257Y10175*
X12254Y10143*
X12257Y10111*
X12266Y10082*
X12282Y10056*
X12304Y10032*
X12333Y10013*
X12368Y9999*
X12410Y9991*
X12458Y9988*
X12504Y9991*
X12544Y9999*
X12578Y10013*
X12606Y10032*
X12629Y10056*
X12644Y10082*
X12654Y10111*
X12657Y10143*
X12654Y10175*
X12644Y10204*
X12629Y10230*
X12607Y10254*
X12578Y10273*
X12544Y10287*
X12503Y10295*
X12455Y10298*
X12718Y9133D02*
X12718Y9133D01*
X12718Y9219*
X12414Y9309*
X12414Y9309*
X12312Y9340*
X12312Y9341*
X12413Y9367*
X12413Y9367*
X12718Y9446*
X12718Y9537*
X12410Y9620*
X12366Y9632*
X12366Y9632*
X12333Y9640*
X12311Y9645*
X12301Y9648*
X12301Y9649*
X12415Y9680*
X12415Y9680*
X12718Y9764*
X12718Y9855*
X12193Y9694*
X12193Y9602*
X12598Y9495*
X12598Y9494*
X12508Y9474*
X12193Y9390*
X12193Y9298*
X12718Y9133*
X12480Y8969D02*
X12480Y8969D01*
X12480Y8969*
X12526Y8967*
X12526Y8967*
X12565Y8959*
X12565Y8959*
X12595Y8946*
X12595Y8946*
X12617Y8928*
X12618Y8927*
X12633Y8906*
X12633Y8906*
X12645Y8882*
X12645Y8882*
X12652Y8856*
X12652Y8856*
X12654Y8829*
X12654Y8829*
X12653Y8811*
X12653Y8811*
X12650Y8795*
X12650Y8795*
X12645Y8780*
X12645Y8780*
X12638Y8766*
X12638Y8766*
X12629Y8754*
X12629Y8754*
X12619Y8744*
X12619Y8744*
X12607Y8735*
X12607Y8735*
X12594Y8729*
X12594Y8729*
X12579Y8724*
X12579Y8724*
X12560Y8721*
X12560Y8721*
X12538Y8719*
X12538Y8719*
X12512Y8719*
X12512Y8719*
X12193Y8719*
X12193Y8630*
X12516Y8630*
X12545Y8631*
X12569Y8632*
X12588Y8633*
X12603Y8635*
X12621Y8640*
X12638Y8646*
X12654Y8654*
X12668Y8663*
X12682Y8674*
X12693Y8688*
X12704Y8704*
X12713Y8722*
X12721Y8743*
X12726Y8764*
X12729Y8787*
X12730Y8810*
X12725Y8861*
X12709Y8906*
X12682Y8945*
X12643Y8977*
X12644Y8978*
X12718Y8978*
X12718Y9057*
X12193Y9057*
X12193Y8969*
X12480Y8969*
X2022Y10919D02*
X2022Y10919D01*
X2027Y10880*
X2036Y10841*
X2049Y10803*
X2065Y10766*
X2084Y10729*
X2107Y10693*
X2133Y10657*
X2403Y10657*
X2402Y10964*
X2318Y10964*
X2318Y10751*
X2317Y10751*
X2182Y10751*
X2181Y10751*
X2168Y10768*
X2168Y10768*
X2155Y10789*
X2155Y10789*
X2142Y10813*
X2142Y10813*
X2130Y10841*
X2130Y10841*
X2119Y10871*
X2119Y10871*
X2112Y10902*
X2112Y10902*
X2107Y10932*
X2107Y10932*
X2106Y10963*
X2106Y10963*
X2108Y10999*
X2108Y10999*
X2114Y11033*
X2114Y11033*
X2124Y11067*
X2124Y11067*
X2138Y11100*
X2138Y11100*
X2156Y11130*
X2156Y11130*
X2178Y11156*
X2178Y11156*
X2204Y11179*
X2204Y11179*
X2235Y11197*
X2235Y11197*
X2270Y11212*
X2270Y11212*
X2309Y11222*
X2309Y11222*
X2351Y11229*
X2351Y11229*
X2398Y11231*
X2398Y11231*
X2437Y11229*
X2437Y11229*
X2474Y11224*
X2474Y11224*
X2510Y11215*
X2510Y11215*
X2545Y11203*
X2545Y11203*
X2564Y11194*
X2564Y11194*
X2582Y11183*
X2582Y11183*
X2600Y11171*
X2600Y11171*
X2617Y11157*
X2617Y11157*
X2632Y11141*
X2632Y11141*
X2646Y11123*
X2646Y11123*
X2659Y11102*
X2659Y11102*
X2670Y11079*
X2670Y11079*
X2679Y11054*
X2679Y11054*
X2685Y11027*
X2685Y11026*
X2689Y10997*
X2689Y10997*
X2690Y10965*
X2690Y10965*
X2689Y10938*
X2689Y10938*
X2685Y10912*
X2685Y10912*
X2679Y10888*
X2679Y10888*
X2671Y10864*
X2671Y10864*
X2660Y10843*
X2660Y10843*
X2648Y10824*
X2648Y10824*
X2635Y10808*
X2635Y10808*
X2620Y10795*
X2620Y10795*
X2602Y10783*
X2602Y10783*
X2582Y10772*
X2582Y10772*
X2559Y10763*
X2559Y10763*
X2533Y10754*
X2556Y10668*
X2591Y10679*
X2622Y10691*
X2650Y10706*
X2675Y10723*
X2696Y10743*
X2715Y10766*
X2732Y10793*
X2746Y10823*
X2757Y10856*
X2765Y10890*
X2770Y10927*
X2771Y10965*
X2768Y11018*
X2760Y11068*
X2746Y11114*
X2727Y11157*
X2701Y11196*
X2670Y11231*
X2633Y11260*
X2590Y11285*
X2543Y11304*
X2495Y11318*
X2444Y11326*
X2392Y11329*
X2340Y11326*
X2290Y11318*
X2243Y11304*
X2198Y11284*
X2158Y11259*
X2122Y11229*
X2091Y11193*
X2066Y11152*
X2046Y11107*
X2032Y11060*
X2023Y11010*
X2020Y10958*
X2022Y10919*
X2308Y10439D02*
X2308Y10439D01*
X2308Y10439*
X2336Y10438*
X2336Y10438*
X2362Y10435*
X2362Y10435*
X2388Y10430*
X2388Y10430*
X2412Y10424*
X2412Y10424*
X2427Y10418*
X2427Y10418*
X2440Y10410*
X2440Y10410*
X2452Y10401*
X2452Y10401*
X2461Y10390*
X2461Y10390*
X2469Y10378*
X2469Y10378*
X2475Y10365*
X2475Y10365*
X2478Y10352*
X2478Y10352*
X2479Y10337*
X2479Y10337*
X2478Y10321*
X2478Y10321*
X2474Y10304*
X2474Y10304*
X2468Y10288*
X2468Y10288*
X2460Y10272*
X2542Y10242*
X2554Y10265*
X2563Y10287*
X2568Y10310*
X2570Y10333*
X2569Y10348*
X2566Y10363*
X2560Y10377*
X2552Y10390*
X2541Y10403*
X2525Y10417*
X2504Y10431*
X2478Y10447*
X2479Y10447*
X2558Y10447*
X2558Y10527*
X2033Y10527*
X2033Y10439*
X2308Y10439*
X2023Y9923D02*
X2023Y9923D01*
X2032Y9883*
X2046Y9848*
X2065Y9816*
X2090Y9789*
X2119Y9767*
X2152Y9749*
X2190Y9736*
X2201Y9827*
X2175Y9838*
X2175Y9838*
X2153Y9851*
X2152Y9851*
X2134Y9866*
X2134Y9866*
X2119Y9882*
X2119Y9882*
X2108Y9900*
X2108Y9900*
X2099Y9921*
X2099Y9921*
X2095Y9942*
X2095Y9943*
X2093Y9966*
X2093Y9966*
X2096Y9998*
X2096Y9998*
X2105Y10027*
X2105Y10027*
X2119Y10053*
X2119Y10053*
X2139Y10077*
X2139Y10077*
X2165Y10096*
X2165Y10096*
X2196Y10111*
X2196Y10111*
X2232Y10121*
X2232Y10121*
X2273Y10126*
X2273Y10126*
X2273Y9733*
X2280Y9733*
X2287Y9733*
X2292Y9733*
X2296Y9733*
X2358Y9737*
X2412Y9749*
X2459Y9770*
X2498Y9799*
X2530Y9835*
X2552Y9876*
X2566Y9921*
X2570Y9972*
X2566Y10024*
X2552Y10070*
X2529Y10112*
X2497Y10149*
X2457Y10179*
X2409Y10200*
X2354Y10213*
X2291Y10217*
X2230Y10213*
X2177Y10200*
X2131Y10179*
X2092Y10150*
X2061Y10113*
X2038Y10070*
X2025Y10021*
X2021Y9967*
X2023Y9923*
X2346Y10121D02*
X2346Y10121D01*
X2346Y9826*
X2377Y9831*
X2404Y9838*
X2427Y9848*
X2446Y9860*
X2468Y9883*
X2484Y9909*
X2494Y9938*
X2497Y9971*
X2495Y10000*
X2487Y10027*
X2474Y10052*
X2456Y10074*
X2434Y10093*
X2408Y10107*
X2379Y10116*
X2346Y10121*
X2023Y9358D02*
X2023Y9358D01*
X2032Y9318*
X2046Y9283*
X2065Y9251*
X2090Y9224*
X2119Y9202*
X2152Y9184*
X2190Y9171*
X2201Y9262*
X2175Y9273*
X2175Y9273*
X2153Y9286*
X2152Y9286*
X2134Y9301*
X2134Y9301*
X2119Y9317*
X2119Y9317*
X2108Y9335*
X2108Y9335*
X2099Y9356*
X2099Y9356*
X2095Y9377*
X2095Y9377*
X2093Y9401*
X2093Y9401*
X2096Y9433*
X2096Y9433*
X2105Y9462*
X2105Y9462*
X2119Y9488*
X2119Y9488*
X2139Y9512*
X2139Y9512*
X2165Y9531*
X2165Y9531*
X2196Y9546*
X2196Y9546*
X2232Y9556*
X2232Y9556*
X2273Y9561*
X2273Y9561*
X2273Y9168*
X2280Y9168*
X2287Y9168*
X2292Y9168*
X2296Y9168*
X2358Y9172*
X2412Y9184*
X2459Y9205*
X2498Y9234*
X2530Y9270*
X2552Y9311*
X2566Y9356*
X2570Y9407*
X2566Y9459*
X2552Y9505*
X2529Y9547*
X2497Y9584*
X2457Y9614*
X2409Y9635*
X2354Y9648*
X2291Y9652*
X2230Y9648*
X2177Y9635*
X2131Y9614*
X2092Y9585*
X2061Y9548*
X2038Y9505*
X2025Y9456*
X2021Y9402*
X2023Y9358*
X2346Y9555D02*
X2346Y9555D01*
X2346Y9261*
X2377Y9266*
X2404Y9273*
X2427Y9282*
X2446Y9295*
X2468Y9318*
X2484Y9344*
X2494Y9373*
X2497Y9406*
X2495Y9435*
X2487Y9462*
X2474Y9487*
X2456Y9509*
X2434Y9528*
X2408Y9542*
X2379Y9551*
X2346Y9555*
X2320Y8969D02*
X2320Y8969D01*
X2320Y8969*
X2366Y8967*
X2366Y8967*
X2405Y8959*
X2405Y8959*
X2435Y8946*
X2435Y8946*
X2457Y8928*
X2458Y8927*
X2473Y8906*
X2473Y8906*
X2485Y8882*
X2485Y8882*
X2492Y8856*
X2492Y8856*
X2494Y8829*
X2494Y8829*
X2493Y8811*
X2493Y8811*
X2490Y8795*
X2490Y8795*
X2485Y8780*
X2485Y8780*
X2478Y8766*
X2478Y8766*
X2469Y8754*
X2469Y8754*
X2459Y8744*
X2459Y8744*
X2447Y8735*
X2447Y8735*
X2434Y8729*
X2434Y8729*
X2419Y8724*
X2419Y8724*
X2400Y8721*
X2400Y8721*
X2378Y8719*
X2378Y8719*
X2352Y8719*
X2352Y8719*
X2033Y8719*
X2033Y8630*
X2356Y8630*
X2385Y8631*
X2409Y8632*
X2428Y8633*
X2443Y8635*
X2461Y8640*
X2478Y8646*
X2494Y8654*
X2508Y8663*
X2522Y8674*
X2533Y8688*
X2544Y8704*
X2553Y8722*
X2561Y8743*
X2566Y8764*
X2569Y8787*
X2570Y8810*
X2565Y8861*
X2549Y8906*
X2522Y8945*
X2483Y8977*
X2484Y8978*
X2558Y8978*
X2558Y9057*
X2033Y9057*
X2033Y8969*
X2320Y8969*
X7103Y11505D02*
X7103Y11505D01*
X7111Y11460*
X7125Y11417*
X7145Y11375*
X7170Y11337*
X7200Y11303*
X7236Y11274*
X7277Y11249*
X7322Y11230*
X7370Y11216*
X7421Y11207*
X7475Y11205*
X7528Y11207*
X7578Y11215*
X7625Y11228*
X7670Y11247*
X7710Y11270*
X7746Y11299*
X7777Y11332*
X7804Y11370*
X7825Y11412*
X7840Y11456*
X7849Y11502*
X7852Y11551*
X7845Y11625*
X7826Y11691*
X7794Y11750*
X7749Y11802*
X7693Y11844*
X7627Y11875*
X7552Y11893*
X7466Y11899*
X7419Y11896*
X7373Y11889*
X7328Y11876*
X7285Y11857*
X7244Y11834*
X7208Y11806*
X7177Y11773*
X7150Y11735*
X7128Y11693*
X7112Y11649*
X7103Y11602*
X7100Y11552*
X7103Y11505*
X7465Y11800D02*
X7465Y11800D01*
X7402Y11796*
X7347Y11783*
X7299Y11761*
X7258Y11730*
X7225Y11692*
X7201Y11650*
X7187Y11603*
X7182Y11552*
X7187Y11500*
X7201Y11453*
X7225Y11411*
X7258Y11373*
X7301Y11343*
X7351Y11321*
X7409Y11308*
X7475Y11303*
X7518Y11305*
X7558Y11311*
X7596Y11320*
X7630Y11333*
X7661Y11350*
X7689Y11370*
X7713Y11394*
X7733Y11421*
X7749Y11451*
X7760Y11482*
X7767Y11516*
X7769Y11551*
X7765Y11600*
X7752Y11646*
X7730Y11688*
X7699Y11727*
X7658Y11759*
X7605Y11782*
X7541Y11796*
X7465Y11800*
X7388Y11004D02*
X7388Y11004D01*
X7388Y11004*
X7416Y11003*
X7416Y11003*
X7442Y11000*
X7442Y11000*
X7468Y10995*
X7468Y10995*
X7492Y10989*
X7492Y10989*
X7507Y10983*
X7507Y10983*
X7520Y10975*
X7520Y10975*
X7532Y10966*
X7532Y10966*
X7541Y10955*
X7541Y10955*
X7549Y10943*
X7549Y10943*
X7555Y10930*
X7555Y10930*
X7558Y10917*
X7558Y10917*
X7559Y10902*
X7559Y10902*
X7558Y10886*
X7558Y10886*
X7554Y10869*
X7554Y10869*
X7548Y10853*
X7548Y10853*
X7540Y10837*
X7622Y10807*
X7634Y10830*
X7643Y10853*
X7648Y10875*
X7650Y10898*
X7649Y10913*
X7646Y10928*
X7640Y10942*
X7632Y10955*
X7621Y10968*
X7605Y10982*
X7584Y10996*
X7558Y11012*
X7559Y11013*
X7638Y11013*
X7638Y11092*
X7113Y11092*
X7113Y11004*
X7388Y11004*
X7102Y10577D02*
X7102Y10577D01*
X7105Y10552*
X7110Y10528*
X7118Y10505*
X7128Y10482*
X7141Y10458*
X7158Y10434*
X7178Y10409*
X7177Y10409*
X7159Y10406*
X7142Y10402*
X7127Y10397*
X7113Y10391*
X7113Y10299*
X7127Y10306*
X7127Y10306*
X7143Y10313*
X7143Y10313*
X7159Y10318*
X7159Y10318*
X7175Y10321*
X7175Y10321*
X7197Y10324*
X7197Y10324*
X7231Y10326*
X7231Y10326*
X7276Y10327*
X7276Y10327*
X7333Y10327*
X7333Y10327*
X7452Y10327*
X7479Y10327*
X7502Y10328*
X7520Y10329*
X7534Y10331*
X7552Y10336*
X7568Y10342*
X7582Y10350*
X7595Y10359*
X7606Y10370*
X7617Y10384*
X7626Y10401*
X7634Y10421*
X7641Y10443*
X7646Y10469*
X7649Y10498*
X7650Y10530*
X7649Y10563*
X7646Y10594*
X7640Y10623*
X7632Y10650*
X7621Y10674*
X7609Y10695*
X7595Y10713*
X7579Y10728*
X7560Y10741*
X7539Y10752*
X7515Y10761*
X7489Y10767*
X7477Y10681*
X7503Y10673*
X7503Y10673*
X7524Y10663*
X7524Y10663*
X7542Y10651*
X7542Y10651*
X7555Y10637*
X7555Y10637*
X7565Y10619*
X7565Y10619*
X7572Y10598*
X7572Y10598*
X7576Y10573*
X7576Y10573*
X7577Y10543*
X7577Y10543*
X7575Y10512*
X7575Y10511*
X7570Y10484*
X7570Y10484*
X7560Y10460*
X7560Y10460*
X7547Y10441*
X7547Y10441*
X7534Y10430*
X7534Y10430*
X7516Y10422*
X7516Y10422*
X7495Y10417*
X7495Y10417*
X7470Y10416*
X7470Y10416*
X7466Y10416*
X7466Y10416*
X7461Y10416*
X7461Y10416*
X7455Y10416*
X7455Y10416*
X7446Y10416*
X7446Y10416*
X7437Y10446*
X7437Y10446*
X7429Y10482*
X7429Y10482*
X7422Y10525*
X7422Y10525*
X7415Y10576*
X7415Y10576*
X7412Y10601*
X7409Y10622*
X7405Y10640*
X7402Y10655*
X7396Y10673*
X7389Y10689*
X7382Y10705*
X7373Y10719*
X7362Y10733*
X7350Y10745*
X7337Y10756*
X7321Y10765*
X7305Y10773*
X7288Y10778*
X7270Y10782*
X7251Y10783*
X7219Y10780*
X7191Y10771*
X7165Y10757*
X7143Y10736*
X7124Y10711*
X7111Y10680*
X7103Y10644*
X7101Y10603*
X7102Y10577*
X7376Y10417D02*
X7376Y10417D01*
X7367Y10444*
X7358Y10477*
X7350Y10517*
X7343Y10563*
X7339Y10588*
X7334Y10610*
X7330Y10627*
X7325Y10640*
X7319Y10651*
X7313Y10661*
X7305Y10669*
X7296Y10676*
X7286Y10681*
X7276Y10685*
X7265Y10687*
X7253Y10688*
X7236Y10686*
X7221Y10681*
X7207Y10673*
X7194Y10661*
X7183Y10646*
X7176Y10628*
X7172Y10606*
X7170Y10582*
X7171Y10557*
X7176Y10533*
X7183Y10511*
X7193Y10490*
X7205Y10471*
X7219Y10455*
X7236Y10442*
X7254Y10431*
X7271Y10425*
X7292Y10420*
X7316Y10418*
X7344Y10417*
X7376Y10417*
X7400Y10099D02*
X7400Y10099D01*
X7400Y10099*
X7446Y10097*
X7446Y10097*
X7485Y10089*
X7485Y10089*
X7515Y10076*
X7515Y10076*
X7537Y10058*
X7538Y10058*
X7553Y10036*
X7553Y10036*
X7565Y10012*
X7565Y10012*
X7572Y9986*
X7572Y9986*
X7574Y9959*
X7574Y9959*
X7573Y9941*
X7573Y9941*
X7570Y9925*
X7570Y9925*
X7565Y9910*
X7565Y9910*
X7558Y9896*
X7558Y9896*
X7549Y9884*
X7549Y9884*
X7539Y9874*
X7539Y9874*
X7527Y9865*
X7527Y9865*
X7514Y9859*
X7514Y9859*
X7499Y9855*
X7499Y9855*
X7480Y9851*
X7480Y9851*
X7458Y9849*
X7458Y9849*
X7432Y9849*
X7432Y9849*
X7113Y9849*
X7113Y9760*
X7436Y9760*
X7465Y9761*
X7489Y9762*
X7508Y9763*
X7523Y9765*
X7541Y9770*
X7558Y9776*
X7574Y9784*
X7588Y9793*
X7602Y9804*
X7613Y9818*
X7624Y9834*
X7633Y9853*
X7641Y9873*
X7646Y9894*
X7649Y9917*
X7650Y9940*
X7645Y9991*
X7629Y10036*
X7602Y10075*
X7563Y10107*
X7564Y10108*
X7638Y10108*
X7638Y10187*
X7113Y10187*
X7113Y10099*
X7400Y10099*
X6901Y9393D02*
X6901Y9393D01*
X6906Y9358*
X6915Y9326*
X6928Y9298*
X6945Y9272*
X6963Y9251*
X6985Y9233*
X7009Y9218*
X7039Y9207*
X7078Y9200*
X7126Y9195*
X7183Y9193*
X7638Y9193*
X7638Y9275*
X7575Y9275*
X7575Y9275*
X7608Y9308*
X7631Y9344*
X7646Y9384*
X7650Y9429*
X7648Y9463*
X7642Y9494*
X7631Y9523*
X7616Y9550*
X7596Y9575*
X7574Y9596*
X7547Y9614*
X7517Y9629*
X7485Y9641*
X7451Y9650*
X7415Y9655*
X7378Y9657*
X7326Y9653*
X7277Y9642*
X7232Y9623*
X7191Y9597*
X7156Y9564*
X7132Y9526*
X7117Y9481*
X7113Y9429*
X7117Y9388*
X7130Y9350*
X7151Y9315*
X7182Y9284*
X7181Y9283*
X7141Y9283*
X7141Y9283*
X7109Y9284*
X7109Y9284*
X7084Y9287*
X7084Y9287*
X7066Y9290*
X7066Y9290*
X7045Y9297*
X7045Y9297*
X7026Y9307*
X7026Y9307*
X7010Y9320*
X7010Y9320*
X6997Y9335*
X6996Y9335*
X6986Y9354*
X6986Y9354*
X6978Y9376*
X6978Y9376*
X6973Y9402*
X6973Y9402*
X6972Y9431*
X6972Y9431*
X6973Y9459*
X6973Y9459*
X6978Y9483*
X6978Y9483*
X6986Y9504*
X6986Y9504*
X6996Y9523*
X6997Y9523*
X7007Y9534*
X7007Y9534*
X7020Y9543*
X7021Y9543*
X7037Y9549*
X7037Y9549*
X7055Y9553*
X7068Y9639*
X7028Y9636*
X6994Y9626*
X6965Y9608*
X6941Y9583*
X6923Y9552*
X6909Y9516*
X6901Y9476*
X6899Y9431*
X6901Y9393*
X7385Y9565D02*
X7385Y9565D01*
X7337Y9563*
X7295Y9555*
X7261Y9542*
X7234Y9524*
X7213Y9502*
X7198Y9478*
X7189Y9451*
X7186Y9421*
X7189Y9392*
X7198Y9364*
X7213Y9340*
X7233Y9318*
X7260Y9300*
X7294Y9287*
X7335Y9279*
X7382Y9276*
X7427Y9279*
X7467Y9287*
X7500Y9300*
X7528Y9319*
X7549Y9342*
X7565Y9366*
X7574Y9393*
X7577Y9423*
X7574Y9451*
X7565Y9478*
X7550Y9502*
X7528Y9524*
X7501Y9542*
X7468Y9555*
X7430Y9563*
X7385Y9565*
X7103Y8793D02*
X7103Y8793D01*
X7112Y8753*
X7126Y8718*
X7145Y8686*
X7170Y8659*
X7199Y8637*
X7232Y8619*
X7270Y8606*
X7281Y8697*
X7255Y8708*
X7255Y8708*
X7233Y8721*
X7232Y8721*
X7214Y8735*
X7214Y8735*
X7199Y8752*
X7199Y8752*
X7188Y8770*
X7188Y8770*
X7179Y8790*
X7179Y8790*
X7175Y8812*
X7175Y8812*
X7173Y8836*
X7173Y8836*
X7176Y8868*
X7176Y8868*
X7185Y8897*
X7185Y8897*
X7199Y8923*
X7199Y8923*
X7219Y8947*
X7219Y8947*
X7245Y8966*
X7245Y8966*
X7276Y8981*
X7276Y8981*
X7312Y8991*
X7312Y8991*
X7353Y8996*
X7353Y8996*
X7353Y8603*
X7360Y8603*
X7367Y8603*
X7372Y8603*
X7376Y8602*
X7438Y8607*
X7492Y8619*
X7539Y8640*
X7578Y8669*
X7610Y8705*
X7632Y8746*
X7646Y8791*
X7650Y8842*
X7646Y8894*
X7632Y8940*
X7609Y8982*
X7577Y9019*
X7537Y9049*
X7489Y9070*
X7434Y9083*
X7371Y9087*
X7310Y9083*
X7257Y9070*
X7211Y9049*
X7172Y9020*
X7141Y8983*
X7118Y8940*
X7105Y8891*
X7101Y8837*
X7103Y8793*
X7426Y8990D02*
X7426Y8990D01*
X7426Y8696*
X7457Y8701*
X7484Y8708*
X7507Y8717*
X7526Y8730*
X7548Y8753*
X7564Y8779*
X7574Y8808*
X7577Y8841*
X7575Y8870*
X7567Y8897*
X7554Y8922*
X7536Y8944*
X7514Y8963*
X7488Y8977*
X7459Y8986*
X7426Y8990*
X10556Y-25470D02*
X10556Y-25470D01*
X10557Y-25470*
X10804Y-25470*
X10804Y-25367*
X10557Y-25367*
X10556Y-25366*
X10556Y-25119*
X10452Y-25119*
X10452Y-25366*
X10452Y-25367*
X10205Y-25367*
X10205Y-25470*
X10452Y-25470*
X10452Y-25470*
X10452Y-25719*
X10556Y-25719*
X10556Y-25470*
X11281Y-25877D02*
X11281Y-25877D01*
X11338Y-25862*
X11390Y-25836*
X11436Y-25800*
X11474Y-25756*
X11501Y-25708*
X11518Y-25655*
X11523Y-25598*
X11520Y-25556*
X11512Y-25518*
X11498Y-25483*
X11479Y-25452*
X11454Y-25425*
X11425Y-25403*
X11392Y-25387*
X11353Y-25375*
X11353Y-25374*
X11383Y-25358*
X11408Y-25340*
X11429Y-25320*
X11447Y-25297*
X11461Y-25272*
X11471Y-25246*
X11477Y-25219*
X11478Y-25190*
X11476Y-25160*
X11470Y-25130*
X11460Y-25101*
X11445Y-25073*
X11427Y-25047*
X11405Y-25024*
X11379Y-25004*
X11350Y-24986*
X11318Y-24972*
X11284Y-24962*
X11249Y-24956*
X11213Y-24954*
X11161Y-24958*
X11114Y-24970*
X11071Y-24989*
X11033Y-25016*
X11000Y-25050*
X10973Y-25090*
X10953Y-25137*
X10940Y-25189*
X11051Y-25209*
X11059Y-25171*
X11059Y-25171*
X11071Y-25138*
X11071Y-25137*
X11087Y-25109*
X11087Y-25109*
X11107Y-25086*
X11107Y-25086*
X11130Y-25068*
X11130Y-25068*
X11156Y-25055*
X11156Y-25055*
X11184Y-25048*
X11184Y-25048*
X11215Y-25045*
X11215Y-25045*
X11247Y-25048*
X11247Y-25048*
X11275Y-25055*
X11275Y-25055*
X11301Y-25068*
X11301Y-25068*
X11323Y-25086*
X11323Y-25086*
X11341Y-25107*
X11341Y-25107*
X11354Y-25131*
X11354Y-25131*
X11362Y-25158*
X11362Y-25158*
X11365Y-25188*
X11365Y-25188*
X11361Y-25224*
X11361Y-25224*
X11350Y-25255*
X11350Y-25255*
X11333Y-25282*
X11333Y-25282*
X11308Y-25303*
X11308Y-25303*
X11278Y-25319*
X11278Y-25319*
X11247Y-25331*
X11247Y-25331*
X11214Y-25338*
X11214Y-25338*
X11179Y-25340*
X11179Y-25340*
X11175Y-25340*
X11175Y-25340*
X11171Y-25340*
X11171Y-25340*
X11166Y-25339*
X11166Y-25339*
X11161Y-25339*
X11149Y-25436*
X11171Y-25430*
X11171Y-25430*
X11192Y-25427*
X11192Y-25426*
X11210Y-25424*
X11210Y-25424*
X11227Y-25423*
X11227Y-25423*
X11264Y-25427*
X11264Y-25427*
X11298Y-25436*
X11298Y-25436*
X11328Y-25452*
X11328Y-25452*
X11355Y-25473*
X11355Y-25473*
X11377Y-25500*
X11377Y-25500*
X11393Y-25530*
X11393Y-25530*
X11403Y-25564*
X11403Y-25564*
X11406Y-25601*
X11406Y-25601*
X11402Y-25639*
X11402Y-25639*
X11392Y-25675*
X11392Y-25675*
X11375Y-25707*
X11375Y-25707*
X11351Y-25736*
X11351Y-25736*
X11323Y-25760*
X11323Y-25760*
X11291Y-25777*
X11291Y-25777*
X11256Y-25787*
X11256Y-25787*
X11218Y-25791*
X11218Y-25791*
X11186Y-25788*
X11186Y-25788*
X11156Y-25780*
X11156Y-25780*
X11130Y-25767*
X11129Y-25767*
X11105Y-25749*
X11105Y-25749*
X11084Y-25725*
X11084Y-25725*
X11065Y-25694*
X11065Y-25694*
X11051Y-25656*
X11051Y-25656*
X11040Y-25612*
X10929Y-25627*
X10939Y-25681*
X10957Y-25729*
X10984Y-25773*
X11019Y-25811*
X11061Y-25842*
X11108Y-25864*
X11160Y-25878*
X11217Y-25882*
X11281Y-25877*
X11823Y-25740D02*
X11823Y-25740D01*
X11697Y-25740*
X11697Y-25866*
X11823Y-25866*
X11823Y-25740*
X12340Y-25877D02*
X12340Y-25877D01*
X12398Y-25862*
X12449Y-25836*
X12496Y-25800*
X12534Y-25756*
X12561Y-25708*
X12577Y-25655*
X12582Y-25598*
X12580Y-25556*
X12571Y-25518*
X12557Y-25483*
X12538Y-25452*
X12513Y-25425*
X12484Y-25403*
X12451Y-25387*
X12412Y-25375*
X12412Y-25374*
X12442Y-25358*
X12467Y-25340*
X12488Y-25320*
X12506Y-25297*
X12520Y-25272*
X12530Y-25246*
X12536Y-25219*
X12538Y-25190*
X12536Y-25160*
X12529Y-25130*
X12519Y-25101*
X12505Y-25073*
X12486Y-25047*
X12464Y-25024*
X12438Y-25004*
X12409Y-24986*
X12377Y-24972*
X12343Y-24962*
X12309Y-24956*
X12272Y-24954*
X12220Y-24958*
X12173Y-24970*
X12130Y-24989*
X12092Y-25016*
X12059Y-25050*
X12033Y-25090*
X12013Y-25137*
X11999Y-25189*
X12110Y-25209*
X12118Y-25171*
X12118Y-25171*
X12130Y-25138*
X12130Y-25137*
X12146Y-25109*
X12146Y-25109*
X12166Y-25086*
X12166Y-25086*
X12189Y-25068*
X12189Y-25068*
X12215Y-25055*
X12215Y-25055*
X12243Y-25048*
X12243Y-25048*
X12275Y-25045*
X12275Y-25045*
X12306Y-25048*
X12306Y-25048*
X12334Y-25055*
X12335Y-25055*
X12360Y-25068*
X12360Y-25068*
X12382Y-25086*
X12382Y-25086*
X12400Y-25107*
X12401Y-25107*
X12414Y-25131*
X12414Y-25131*
X12421Y-25158*
X12421Y-25158*
X12424Y-25188*
X12424Y-25188*
X12420Y-25224*
X12420Y-25224*
X12410Y-25255*
X12410Y-25255*
X12392Y-25282*
X12392Y-25282*
X12367Y-25303*
X12367Y-25303*
X12337Y-25319*
X12337Y-25319*
X12306Y-25331*
X12306Y-25331*
X12273Y-25338*
X12273Y-25338*
X12238Y-25340*
X12238Y-25340*
X12234Y-25340*
X12234Y-25340*
X12230Y-25340*
X12230Y-25340*
X12225Y-25339*
X12225Y-25339*
X12220Y-25339*
X12208Y-25436*
X12230Y-25430*
X12230Y-25430*
X12251Y-25427*
X12251Y-25426*
X12270Y-25424*
X12270Y-25424*
X12286Y-25423*
X12286Y-25423*
X12324Y-25427*
X12324Y-25427*
X12357Y-25436*
X12357Y-25436*
X12388Y-25452*
X12388Y-25452*
X12414Y-25473*
X12415Y-25473*
X12437Y-25500*
X12437Y-25500*
X12452Y-25530*
X12452Y-25530*
X12462Y-25564*
X12462Y-25564*
X12465Y-25601*
X12465Y-25601*
X12461Y-25639*
X12461Y-25639*
X12451Y-25675*
X12451Y-25675*
X12434Y-25707*
X12434Y-25707*
X12410Y-25736*
X12410Y-25736*
X12382Y-25760*
X12382Y-25760*
X12350Y-25777*
X12350Y-25777*
X12315Y-25787*
X12315Y-25787*
X12277Y-25791*
X12277Y-25791*
X12245Y-25788*
X12245Y-25788*
X12216Y-25780*
X12216Y-25780*
X12189Y-25767*
X12189Y-25767*
X12164Y-25749*
X12164Y-25749*
X12143Y-25725*
X12143Y-25725*
X12125Y-25694*
X12125Y-25694*
X12110Y-25656*
X12110Y-25656*
X12099Y-25612*
X11988Y-25627*
X11998Y-25681*
X12016Y-25729*
X12043Y-25773*
X12078Y-25811*
X12120Y-25842*
X12167Y-25864*
X12219Y-25878*
X12276Y-25882*
X12340Y-25877*
X13477Y-24958D02*
X13477Y-24958D01*
X13355Y-24958*
X13110Y-25618*
X13096Y-25655*
X13084Y-25693*
X13072Y-25730*
X13061Y-25767*
X13060Y-25767*
X13050Y-25732*
X13038Y-25695*
X13026Y-25657*
X13012Y-25618*
X12776Y-24958*
X12647Y-24958*
X12999Y-25866*
X13121Y-25866*
X13477Y-24958*
M02*