<?xml version="1.0" encoding="utf-8" ?>
<svg baseProfile="tiny" height="70.022832934" version="1.2" width="171.007082434" xmlns="http://www.w3.org/2000/svg" xmlns:ev="http://www.w3.org/2001/xml-events" xmlns:xlink="http://www.w3.org/1999/xlink"><defs /><g id="paths" stroke="green"><path d="M 4.893306967,65.129525967 L 4.893306967,4.893306967 L 36.783069967,4.893306967 L 40.326376967,8.436613967 L 104.105902967,8.436613967 L 107.649209967,4.893306967 L 150.168893967,4.893306967 L 166.113775467,15.523227967 L 166.113775467,54.499604967 L 150.168893967,65.129525967 L 107.649209967,65.129525967 L 104.105902967,61.586218967 L 40.326376967,61.586218967 L 36.783069967,65.129525967 L 4.893306967,65.129525967 Z" fill-opacity="0" stroke-linejoin="round" stroke-width="1.0" /></g><g fill="red" id="top_parts" stroke="red"><line stroke-linecap="round" stroke-width="0.5" x1="35.8972" x2="108.535" y1="9.7654" y2="9.7654" /><line stroke-linecap="round" stroke-width="0.5" x1="108.535" x2="108.535" y1="9.7654" y2="34.9228" /><line stroke-linecap="round" stroke-width="0.5" x1="108.535" x2="35.8972" y1="34.9228" y2="34.9228" /><line stroke-linecap="round" stroke-width="0.5" x1="35.8972" x2="35.8972" y1="34.9228" y2="9.7654" /><text font-family="monospace" font-size="2" stroke-width="0.1" text-anchor="middle" x="72.216139967" y="22.344093942">U1</text><line stroke-linecap="round" stroke-width="0.5" x1="35.0114" x2="35.0114" y1="7.9228" y2="62.1" /><line stroke-linecap="round" stroke-width="0.5" x1="35.0114" x2="-24.8705" y1="62.1" y2="62.1" /><line stroke-linecap="round" stroke-width="0.5" x1="-24.8705" x2="-24.8705" y1="62.1" y2="7.9228" /><line stroke-linecap="round" stroke-width="0.5" x1="-24.8705" x2="35.0114" y1="7.9228" y2="7.9228" /><text font-family="monospace" font-size="2" stroke-width="0.1" text-anchor="middle" x="5.070472317" y="35.011416467">J1</text><line stroke-linecap="round" stroke-width="0.5" x1="35.8972" x2="108.535" y1="35.1" y2="35.1" /><line stroke-linecap="round" stroke-width="0.5" x1="108.535" x2="108.535" y1="35.1" y2="60.2575" /><line stroke-linecap="round" stroke-width="0.5" x1="108.535" x2="35.8972" y1="60.2575" y2="60.2575" /><line stroke-linecap="round" stroke-width="0.5" x1="35.8972" x2="35.8972" y1="60.2575" y2="35.1" /><text font-family="monospace" font-size="2" stroke-width="0.1" text-anchor="middle" x="72.216139967" y="47.678738992">U2</text><line stroke-linecap="round" stroke-width="0.5" x1="143.6138" x2="143.6138" y1="6.665" y2="63.3579" /><line stroke-linecap="round" stroke-width="0.5" x1="143.6138" x2="110.661" y1="63.3579" y2="63.3579" /><line stroke-linecap="round" stroke-width="0.5" x1="110.661" x2="110.661" y1="63.3579" y2="6.665" /><line stroke-linecap="round" stroke-width="0.5" x1="110.661" x2="143.6138" y1="6.665" y2="6.665" /><text font-family="monospace" font-size="2" stroke-width="0.1" text-anchor="middle" x="127.137398467" y="35.011416467">J2</text></g><g fill="blue" id="bottom_parts" stroke="blue" /></svg>