<?xml version="1.0" encoding="utf-8" ?>
<svg baseProfile="tiny" height="70.022832934" version="1.2" width="160.377161434" xmlns="http://www.w3.org/2000/svg" xmlns:ev="http://www.w3.org/2001/xml-events" xmlns:xlink="http://www.w3.org/1999/xlink"><defs /><g id="paths" stroke="green"><path d="M 4.893306967,65.129525967 L 4.893306967,4.893306967 L 139.538972967,4.893306967 L 155.483854467,15.523227967 L 155.483854467,54.499604967 L 139.538972967,65.129525967 L 4.893306967,65.129525967 Z" fill-opacity="0" stroke-linejoin="round" stroke-width="1.0" /></g><g fill="red" id="top_parts" stroke="red"><line stroke-linecap="round" stroke-width="0.5" x1="25.2673" x2="97.9051" y1="35.1" y2="35.1" /><line stroke-linecap="round" stroke-width="0.5" x1="97.9051" x2="97.9051" y1="35.1" y2="60.2575" /><line stroke-linecap="round" stroke-width="0.5" x1="97.9051" x2="25.2673" y1="60.2575" y2="60.2575" /><line stroke-linecap="round" stroke-width="0.5" x1="25.2673" x2="25.2673" y1="60.2575" y2="35.1" /><text font-family="monospace" font-size="2" stroke-width="0.1" text-anchor="middle" x="61.586218967" y="47.678738992">U2</text><line stroke-linecap="round" stroke-width="0.5" x1="132.9839" x2="132.9839" y1="6.665" y2="63.3579" /><line stroke-linecap="round" stroke-width="0.5" x1="132.9839" x2="100.0311" y1="63.3579" y2="63.3579" /><line stroke-linecap="round" stroke-width="0.5" x1="100.0311" x2="100.0311" y1="63.3579" y2="6.665" /><line stroke-linecap="round" stroke-width="0.5" x1="100.0311" x2="132.9839" y1="6.665" y2="6.665" /><text font-family="monospace" font-size="2" stroke-width="0.1" text-anchor="middle" x="116.507477467" y="35.011416467">J2</text><line stroke-linecap="round" stroke-width="0.5" x1="25.2673" x2="97.9051" y1="9.7654" y2="9.7654" /><line stroke-linecap="round" stroke-width="0.5" x1="97.9051" x2="97.9051" y1="9.7654" y2="34.9228" /><line stroke-linecap="round" stroke-width="0.5" x1="97.9051" x2="25.2673" y1="34.9228" y2="34.9228" /><line stroke-linecap="round" stroke-width="0.5" x1="25.2673" x2="25.2673" y1="34.9228" y2="9.7654" /><text font-family="monospace" font-size="2" stroke-width="0.1" text-anchor="middle" x="61.586218967" y="22.344093942">U1</text><line stroke-linecap="round" stroke-width="0.5" x1="22.1669" x2="22.1669" y1="20.289" y2="49.7339" /><line stroke-linecap="round" stroke-width="0.5" x1="22.1669" x2="-2.5654" y1="49.7339" y2="49.7339" /><line stroke-linecap="round" stroke-width="0.5" x1="-2.5654" x2="-2.5654" y1="49.7339" y2="20.289" /><line stroke-linecap="round" stroke-width="0.5" x1="-2.5654" x2="22.1669" y1="20.289" y2="20.289" /><text font-family="monospace" font-size="2" stroke-width="0.1" text-anchor="middle" x="9.80079070531" y="35.011416467">J1</text></g><g fill="blue" id="bottom_parts" stroke="blue" /></svg>