<?xml version="1.0" encoding="utf-8" ?>
<svg baseProfile="tiny" height="93.2244075" version="1.2" width="284.055113" xmlns="http://www.w3.org/2000/svg" xmlns:ev="http://www.w3.org/2001/xml-events" xmlns:xlink="http://www.w3.org/1999/xlink"><defs /><g id="paths" stroke="blue"><path d="M 38.976377,72.6377935 L 38.976377,12.4015745 L 70.86614,12.4015745 L 74.409447,15.9448815 L 138.188973,15.9448815 L 141.73228,12.4015745 L 184.251964,12.4015745 L 200.1968455,23.0314955 L 200.1968455,62.0078725 L 184.251964,72.6377935 L 141.73228,72.6377935 L 138.188973,69.0944865 L 74.409447,69.0944865 L 70.86614,72.6377935 L 38.976377,72.6377935 Z" fill-opacity="0" stroke-linejoin="round" stroke-width="1.0" /></g><g fill="red" id="holes"><circle cx="187.7953" cy="33.6614" r="3.5433" stroke-width="0.0" /><circle cx="187.7953" cy="51.378" r="3.5433" stroke-width="0.0" /><circle cx="79.2992" cy="24.4488" r="1.3287" stroke-width="0.0" /><circle cx="88.2992" cy="24.4488" r="1.3287" stroke-width="0.0" /><circle cx="106.2992" cy="24.4488" r="1.3287" stroke-width="0.0" /><circle cx="124.2992" cy="24.4488" r="1.3287" stroke-width="0.0" /><circle cx="56.6929" cy="46.9488" r="1.6299" stroke-width="0.0" /><circle cx="56.6929" cy="38.0906" r="1.6299" stroke-width="0.0" /><circle cx="63.7795" cy="46.9488" r="1.6299" stroke-width="0.0" /><circle cx="63.7795" cy="38.0906" r="1.6299" stroke-width="0.0" /><circle cx="47.0906" cy="21.189" r="4.128" stroke-width="0.0" /><circle cx="47.0906" cy="63.8504" r="4.128" stroke-width="0.0" /><circle cx="79.2992" cy="49.7835" r="1.3287" stroke-width="0.0" /><circle cx="88.2992" cy="49.7835" r="1.3287" stroke-width="0.0" /><circle cx="106.2992" cy="49.7835" r="1.3287" stroke-width="0.0" /><circle cx="124.2992" cy="49.7835" r="1.3287" stroke-width="0.0" /><circle cx="161.5748" cy="42.5197" r="2.3917" stroke-width="0.0" /><circle cx="161.5748" cy="60.2362" r="2.3917" stroke-width="0.0" /><circle cx="161.5748" cy="24.8031" r="2.3917" stroke-width="0.0" /></g><g id="rulers" stroke="black"><line stroke-width="1.0" x1="205.5118" x2="205.5118" y1="23.0315" y2="12.4016" /><text font-family="monospace" font-size="5" stroke-width="0.3" x="210.511806" y="17.716535">3.0000mm</text><text font-family="monospace" font-size="5" stroke-width="0.3" x="210.511806" y="23.716535">(Δy=3.0000mm)</text><line stroke-width="1.0" x1="3.5433" x2="3.5433" y1="12.4016" y2="72.6378" /><text font-family="monospace" font-size="5" stroke-width="0.3" x="8.543307" y="42.519684">17.0000mm</text><text font-family="monospace" font-size="5" stroke-width="0.3" x="8.543307" y="48.519684">(Δy=17.0000mm)</text><line stroke-width="1.0" x1="209.0551" x2="209.0551" y1="62.0079" y2="23.0315" /><text font-family="monospace" font-size="5" stroke-width="0.3" x="214.055113" y="42.519684">11.0000mm</text><text font-family="monospace" font-size="5" stroke-width="0.3" x="214.055113" y="48.519684">(Δy=11.0000mm)</text><line stroke-width="1.0" x1="38.9764" x2="200.1968" y1="79.7244" y2="79.7244" /><text font-family="monospace" font-size="5" stroke-width="0.3" x="119.58661125" y="84.7244075">45.5000mm</text><text font-family="monospace" font-size="5" stroke-width="0.3" x="119.58661125" y="90.7244075">(Δx=45.5000mm)</text><line stroke-width="1.0" x1="184.252" x2="38.9764" y1="3.5433" y2="3.5433" /><text font-family="monospace" font-size="5" stroke-width="0.3" x="111.6141705" y="-1.456693">41.0000mm</text><text font-family="monospace" font-size="5" stroke-width="0.3" x="111.6141705" y="4.543307">(Δx=41.0000mm)</text></g></svg>