<?xml version="1.0" encoding="utf-8" ?>
<svg baseProfile="tiny" height="85.039368" version="1.2" width="246.8503895" xmlns="http://www.w3.org/2000/svg" xmlns:ev="http://www.w3.org/2001/xml-events" xmlns:xlink="http://www.w3.org/1999/xlink"><defs /><g id="paths" stroke="blue"><path d="M 12.4015745,72.6377935 L 12.4015745,12.4015745 L 147.0472405,12.4015745 L 162.992122,23.0314955 L 162.992122,62.0078725 L 147.0472405,72.6377935 L 12.4015745,72.6377935 Z" fill-opacity="0" stroke-linejoin="round" stroke-width="1.0" /></g><g fill="red" id="holes"><circle cx="19.311" cy="61.7421" r="0.585" stroke-width="0.0" /><circle cx="19.311" cy="23.2972" r="0.585" stroke-width="0.0" /><circle cx="28.1693" cy="61.7421" r="0.585" stroke-width="0.0" /><circle cx="28.1693" cy="23.2972" r="0.585" stroke-width="0.0" /><circle cx="150.5905" cy="33.6614" r="3.5433" stroke-width="0.0" /><circle cx="150.5905" cy="51.378" r="3.5433" stroke-width="0.0" /><circle cx="124.3701" cy="42.5197" r="2.3917" stroke-width="0.0" /><circle cx="124.3701" cy="60.2362" r="2.3917" stroke-width="0.0" /><circle cx="124.3701" cy="24.8031" r="2.3917" stroke-width="0.0" /><circle cx="43.7598" cy="33.6614" r="1.3287" stroke-width="0.0" /><circle cx="52.7598" cy="33.6614" r="1.3287" stroke-width="0.0" /><circle cx="70.7598" cy="33.6614" r="1.3287" stroke-width="0.0" /><circle cx="88.7598" cy="33.6614" r="1.3287" stroke-width="0.0" /><circle cx="43.7598" cy="62.0079" r="1.3287" stroke-width="0.0" /><circle cx="52.7598" cy="62.0079" r="1.3287" stroke-width="0.0" /><circle cx="70.7598" cy="62.0079" r="1.3287" stroke-width="0.0" /><circle cx="88.7598" cy="62.0079" r="1.3287" stroke-width="0.0" /><rect height="1" stroke-width="0.0" width="1" x="5.935" y="43.937" /><rect height="1" stroke-width="0.0" width="1" x="5.935" y="20.5512" /></g><g id="rulers" stroke="black"><line stroke-width="1.0" x1="171.8504" x2="171.8504" y1="62.0079" y2="23.0315" /><text font-family="monospace" font-size="5" stroke-width="0.3" x="176.8503895" y="42.519684">11.0000mm</text><text font-family="monospace" font-size="5" stroke-width="0.3" x="176.8503895" y="48.519684">(Δy=11.0000mm)</text><line stroke-width="1.0" x1="162.9921" x2="12.4016" y1="81.4961" y2="81.4961" /><text font-family="monospace" font-size="5" stroke-width="0.3" x="87.69684825" y="76.496061">42.5000mm</text><text font-family="monospace" font-size="5" stroke-width="0.3" x="87.69684825" y="82.496061">(Δx=42.5000mm)</text><line stroke-width="1.0" x1="147.0472" x2="12.4016" y1="3.5433" y2="3.5433" /><text font-family="monospace" font-size="5" stroke-width="0.3" x="79.7244075" y="-1.456693">38.0000mm</text><text font-family="monospace" font-size="5" stroke-width="0.3" x="79.7244075" y="4.543307">(Δx=38.0000mm)</text><line stroke-width="1.0" x1="168.3071" x2="168.3071" y1="23.0315" y2="12.4016" /><text font-family="monospace" font-size="5" stroke-width="0.3" x="173.3070825" y="17.716535">3.0000mm</text><text font-family="monospace" font-size="5" stroke-width="0.3" x="173.3070825" y="23.716535">(Δy=3.0000mm)</text><line stroke-width="1.0" x1="162.9921" x2="147.0472" y1="7.0866" y2="7.0866" /><text font-family="monospace" font-size="5" stroke-width="0.3" x="155.01968125" y="2.086614">4.5000mm</text><text font-family="monospace" font-size="5" stroke-width="0.3" x="155.01968125" y="8.086614">(Δx=4.5000mm)</text><line stroke-width="1.0" x1="3.5433" x2="3.5433" y1="12.4016" y2="72.6378" /><text font-family="monospace" font-size="5" stroke-width="0.3" x="8.543307" y="42.519684">17.0000mm</text><text font-family="monospace" font-size="5" stroke-width="0.3" x="8.543307" y="48.519684">(Δy=17.0000mm)</text></g></svg>