<?xml version="1.0" encoding="utf-8" ?>
<svg baseProfile="tiny" height="70.022832934" version="1.2" width="160.377161434" xmlns="http://www.w3.org/2000/svg" xmlns:ev="http://www.w3.org/2001/xml-events" xmlns:xlink="http://www.w3.org/1999/xlink"><defs /><g id="paths" stroke="blue"><path d="M 4.893306967,65.129525967 L 4.893306967,4.893306967 L 139.538972967,4.893306967 L 155.483854467,15.523227967 L 155.483854467,54.499604967 L 139.538972967,65.129525967 L 4.893306967,65.129525967 Z" fill-opacity="0" stroke-linejoin="round" stroke-width="1.0" /></g><g fill="red" id="holes"><circle cx="11.8028" cy="54.2339" r="0.585" stroke-width="0.0" /><circle cx="11.8028" cy="15.789" r="0.585" stroke-width="0.0" /><circle cx="20.661" cy="54.2339" r="0.585" stroke-width="0.0" /><circle cx="20.661" cy="15.789" r="0.585" stroke-width="0.0" /><circle cx="143.0823" cy="26.1531" r="3.5433" stroke-width="0.0" /><circle cx="143.0823" cy="43.8697" r="3.5433" stroke-width="0.0" /><circle cx="116.8618" cy="35.0114" r="2.3917" stroke-width="0.0" /><circle cx="116.8618" cy="52.728" r="2.3917" stroke-width="0.0" /><circle cx="116.8618" cy="17.2949" r="2.3917" stroke-width="0.0" /><circle cx="36.2516" cy="26.1531" r="1.3287" stroke-width="0.0" /><circle cx="45.2516" cy="26.1531" r="1.3287" stroke-width="0.0" /><circle cx="63.2516" cy="26.1531" r="1.3287" stroke-width="0.0" /><circle cx="81.2516" cy="26.1531" r="1.3287" stroke-width="0.0" /><circle cx="36.2516" cy="54.4996" r="1.3287" stroke-width="0.0" /><circle cx="45.2516" cy="54.4996" r="1.3287" stroke-width="0.0" /><circle cx="63.2516" cy="54.4996" r="1.3287" stroke-width="0.0" /><circle cx="81.2516" cy="54.4996" r="1.3287" stroke-width="0.0" /></g><g id="rulers" stroke="black" /></svg>