<?xml version='1.0' encoding='UTF-8' standalone='no'?>
<svg xmlns="http://www.w3.org/2000/svg" width="735.5" height="420" x="0" y="0"><text x="180.5" y="240" font-size="10" font-family="sans-serif" text-anchor="start" alignment-baseline="hanging">Vusb</text><text x="220.5" y="270" font-size="10" font-family="sans-serif" text-anchor="start" alignment-baseline="hanging">U2</text><text x="120.5" y="60" font-size="10" font-family="sans-serif" text-anchor="start" alignment-baseline="hanging">Vusb</text><text x="521.5" y="155" font-size="10" font-family="sans-serif" text-anchor="start" alignment-baseline="hanging">J2</text><text x="220.5" y="100" font-size="10" font-family="sans-serif" text-anchor="start" alignment-baseline="hanging">U1</text><text x="123.5" y="126" font-size="10" font-family="sans-serif" text-anchor="start" alignment-baseline="hanging">D-</text><text x="220.5" y="140" font-size="10" font-family="sans-serif" text-anchor="start" alignment-baseline="hanging">SPU01L-12</text><text x="417.5" y="261" font-size="10" font-family="sans-serif" text-anchor="start" alignment-baseline="hanging">GND</text><text x="123.5" y="166" font-size="10" font-family="sans-serif" text-anchor="start" alignment-baseline="hanging">ID</text><text x="500.5" y="410" font-size="10" font-family="sans-serif" text-anchor="end" alignment-baseline="hanging">VSS</text><text x="122.5" y="146" font-size="10" font-family="sans-serif" text-anchor="start" alignment-baseline="hanging">D+</text><text x="10.5" y="330" font-size="10" font-family="sans-serif" text-anchor="start" alignment-baseline="hanging">10118193-0001LF</text><text x="120.5" y="350" font-size="10" font-family="sans-serif" text-anchor="start" alignment-baseline="hanging">GND</text><text x="180.5" y="350" font-size="10" font-family="sans-serif" text-anchor="start" alignment-baseline="hanging">GND</text><text x="340.5" y="10" font-size="10" font-family="sans-serif" text-anchor="start" alignment-baseline="hanging">VCC</text><text x="510.5" y="255" font-size="10" font-family="sans-serif" text-anchor="start" alignment-baseline="hanging">5.0mm pitch screw terminal block, 3 positions</text><text x="180.5" y="180" font-size="10" font-family="sans-serif" text-anchor="start" alignment-baseline="hanging">GND</text><text x="360.5" y="410" font-size="10" font-family="sans-serif" text-anchor="end" alignment-baseline="hanging">VSS</text><text x="220.5" y="310" font-size="10" font-family="sans-serif" text-anchor="start" alignment-baseline="hanging">SPU01L-12</text><text x="180.5" y="60" font-size="10" font-family="sans-serif" text-anchor="start" alignment-baseline="hanging">Vusb</text><text x="480.5" y="10" font-size="10" font-family="sans-serif" text-anchor="start" alignment-baseline="hanging">VCC</text><text x="10.5" y="80" font-size="10" font-family="sans-serif" text-anchor="start" alignment-baseline="hanging">J1</text><line x1="107.5" y1="147" x2="113.5" y2="153" stroke-width="2" stroke="black"></line><line x1="107.5" y1="153" x2="113.5" y2="147" stroke-width="2" stroke="black"></line><line x1="350.5" y1="380" x2="350.5" y2="400" stroke-width="2" stroke="black"></line><line x1="350.5" y1="400" x2="357.5" y2="393" stroke-width="2" stroke="black"></line><line x1="350.5" y1="400" x2="343.5" y2="393" stroke-width="2" stroke="black"></line><line x1="190.5" y1="150" x2="190.5" y2="160" stroke-width="2" stroke="black"></line><line x1="180.5" y1="160" x2="200.5" y2="160" stroke-width="2" stroke="black"></line><line x1="183.5" y1="165" x2="197.5" y2="165" stroke-width="2" stroke="black"></line><line x1="186.5" y1="170" x2="194.5" y2="170" stroke-width="2" stroke="black"></line><line x1="490.5" y1="40" x2="490.5" y2="20" stroke-width="2" stroke="black"></line><line x1="490.5" y1="20" x2="483.5" y2="27" stroke-width="2" stroke="black"></line><line x1="490.5" y1="20" x2="497.5" y2="27" stroke-width="2" stroke="black"></line><rect width="50" height="230" x="10.5" y="90" style="stroke: #000; stroke-width: 1; fill: none;"></rect><circle cx="35.5" cy="110" r="3" style="stroke: #000; stroke-width: 1; fill: none;"></circle><line x1="38.5" y1="110" x2="60.5" y2="110" stroke-width="2" stroke="black"></line><circle cx="35.5" cy="130" r="3" style="stroke: #000; stroke-width: 1; fill: none;"></circle><line x1="38.5" y1="130" x2="60.5" y2="130" stroke-width="2" stroke="black"></line><circle cx="35.5" cy="150" r="3" style="stroke: #000; stroke-width: 1; fill: none;"></circle><line x1="38.5" y1="150" x2="60.5" y2="150" stroke-width="2" stroke="black"></line><circle cx="35.5" cy="170" r="3" style="stroke: #000; stroke-width: 1; fill: none;"></circle><line x1="38.5" y1="170" x2="60.5" y2="170" stroke-width="2" stroke="black"></line><circle cx="35.5" cy="190" r="3" style="stroke: #000; stroke-width: 1; fill: none;"></circle><line x1="38.5" y1="190" x2="60.5" y2="190" stroke-width="2" stroke="black"></line><circle cx="35.5" cy="210" r="3" style="stroke: #000; stroke-width: 1; fill: none;"></circle><line x1="38.5" y1="210" x2="60.5" y2="210" stroke-width="2" stroke="black"></line><circle cx="35.5" cy="230" r="3" style="stroke: #000; stroke-width: 1; fill: none;"></circle><line x1="38.5" y1="230" x2="60.5" y2="230" stroke-width="2" stroke="black"></line><circle cx="35.5" cy="250" r="3" style="stroke: #000; stroke-width: 1; fill: none;"></circle><line x1="38.5" y1="250" x2="60.5" y2="250" stroke-width="2" stroke="black"></line><circle cx="35.5" cy="270" r="3" style="stroke: #000; stroke-width: 1; fill: none;"></circle><line x1="38.5" y1="270" x2="60.5" y2="270" stroke-width="2" stroke="black"></line><circle cx="35.5" cy="290" r="3" style="stroke: #000; stroke-width: 1; fill: none;"></circle><line x1="38.5" y1="290" x2="60.5" y2="290" stroke-width="2" stroke="black"></line><circle cx="35.5" cy="310" r="3" style="stroke: #000; stroke-width: 1; fill: none;"></circle><line x1="38.5" y1="310" x2="60.5" y2="310" stroke-width="2" stroke="black"></line><line x1="70.5" y1="110" x2="60.5" y2="110" stroke-width="2" stroke="black"></line><text x="58.5" y="102" font-size="10" font-family="sans-serif" text-anchor="end" alignment-baseline="middle">1</text><line x1="70.5" y1="130" x2="60.5" y2="130" stroke-width="2" stroke="black"></line><text x="58.5" y="122" font-size="10" font-family="sans-serif" text-anchor="end" alignment-baseline="middle">2</text><line x1="70.5" y1="150" x2="60.5" y2="150" stroke-width="2" stroke="black"></line><text x="58.5" y="142" font-size="10" font-family="sans-serif" text-anchor="end" alignment-baseline="middle">3</text><line x1="70.5" y1="170" x2="60.5" y2="170" stroke-width="2" stroke="black"></line><text x="58.5" y="162" font-size="10" font-family="sans-serif" text-anchor="end" alignment-baseline="middle">4</text><line x1="70.5" y1="190" x2="60.5" y2="190" stroke-width="2" stroke="black"></line><text x="58.5" y="182" font-size="10" font-family="sans-serif" text-anchor="end" alignment-baseline="middle">5</text><line x1="70.5" y1="210" x2="60.5" y2="210" stroke-width="2" stroke="black"></line><text x="58.5" y="202" font-size="10" font-family="sans-serif" text-anchor="end" alignment-baseline="middle">MNT_1</text><line x1="70.5" y1="230" x2="60.5" y2="230" stroke-width="2" stroke="black"></line><text x="58.5" y="222" font-size="10" font-family="sans-serif" text-anchor="end" alignment-baseline="middle">MNT_2</text><line x1="70.5" y1="250" x2="60.5" y2="250" stroke-width="2" stroke="black"></line><text x="58.5" y="242" font-size="10" font-family="sans-serif" text-anchor="end" alignment-baseline="middle">MNT_3</text><line x1="70.5" y1="270" x2="60.5" y2="270" stroke-width="2" stroke="black"></line><text x="58.5" y="262" font-size="10" font-family="sans-serif" text-anchor="end" alignment-baseline="middle">MNT_4</text><line x1="70.5" y1="290" x2="60.5" y2="290" stroke-width="2" stroke="black"></line><text x="58.5" y="282" font-size="10" font-family="sans-serif" text-anchor="end" alignment-baseline="middle">MNT_5</text><line x1="70.5" y1="310" x2="60.5" y2="310" stroke-width="2" stroke="black"></line><text x="58.5" y="302" font-size="10" font-family="sans-serif" text-anchor="end" alignment-baseline="middle">MNT_6</text><line x1="130.5" y1="320" x2="130.5" y2="330" stroke-width="2" stroke="black"></line><line x1="120.5" y1="330" x2="140.5" y2="330" stroke-width="2" stroke="black"></line><line x1="123.5" y1="335" x2="137.5" y2="335" stroke-width="2" stroke="black"></line><line x1="126.5" y1="340" x2="134.5" y2="340" stroke-width="2" stroke="black"></line><line x1="190.5" y1="270" x2="190.5" y2="250" stroke-width="2" stroke="black"></line><line x1="190.5" y1="250" x2="183.5" y2="257" stroke-width="2" stroke="black"></line><line x1="190.5" y1="250" x2="197.5" y2="257" stroke-width="2" stroke="black"></line><line x1="190.5" y1="320" x2="190.5" y2="330" stroke-width="2" stroke="black"></line><line x1="180.5" y1="330" x2="200.5" y2="330" stroke-width="2" stroke="black"></line><line x1="183.5" y1="335" x2="197.5" y2="335" stroke-width="2" stroke="black"></line><line x1="186.5" y1="340" x2="194.5" y2="340" stroke-width="2" stroke="black"></line><rect width="60" height="30" x="220.5" y="280" style="stroke: #000; stroke-width: 1; fill: none;"></rect><line x1="210.5" y1="290" x2="220.5" y2="290" stroke-width="2" stroke="black"></line><line x1="210.5" y1="300" x2="220.5" y2="300" stroke-width="2" stroke="black"></line><line x1="290.5" y1="300" x2="280.5" y2="300" stroke-width="2" stroke="black"></line><line x1="290.5" y1="290" x2="280.5" y2="290" stroke-width="2" stroke="black"></line><text x="222.5" y="290" font-size="10" font-family="sans-serif" text-anchor="start" alignment-baseline="middle">+Vin</text><text x="222.5" y="300" font-size="10" font-family="sans-serif" text-anchor="start" alignment-baseline="middle">-Vin</text><text x="278.5" y="300" font-size="10" font-family="sans-serif" text-anchor="end" alignment-baseline="middle">-Vout</text><text x="278.5" y="290" font-size="10" font-family="sans-serif" text-anchor="end" alignment-baseline="middle">+Vout</text><line x1="190.5" y1="90" x2="190.5" y2="70" stroke-width="2" stroke="black"></line><line x1="190.5" y1="70" x2="183.5" y2="77" stroke-width="2" stroke="black"></line><line x1="190.5" y1="70" x2="197.5" y2="77" stroke-width="2" stroke="black"></line><line x1="350.5" y1="40" x2="350.5" y2="20" stroke-width="2" stroke="black"></line><line x1="350.5" y1="20" x2="343.5" y2="27" stroke-width="2" stroke="black"></line><line x1="350.5" y1="20" x2="357.5" y2="27" stroke-width="2" stroke="black"></line><line x1="130.5" y1="90" x2="130.5" y2="70" stroke-width="2" stroke="black"></line><line x1="130.5" y1="70" x2="123.5" y2="77" stroke-width="2" stroke="black"></line><line x1="130.5" y1="70" x2="137.5" y2="77" stroke-width="2" stroke="black"></line><line x1="490.5" y1="380" x2="490.5" y2="400" stroke-width="2" stroke="black"></line><line x1="490.5" y1="400" x2="497.5" y2="393" stroke-width="2" stroke="black"></line><line x1="490.5" y1="400" x2="483.5" y2="393" stroke-width="2" stroke="black"></line><line x1="107.5" y1="127" x2="113.5" y2="133" stroke-width="2" stroke="black"></line><line x1="107.5" y1="133" x2="113.5" y2="127" stroke-width="2" stroke="black"></line><circle cx="540.5" cy="230" r="10" style="stroke: #000; stroke-width: 1; fill: none;"></circle><rect width="40" height="80" x="520.5" y="170" style="stroke: #000; stroke-width: 1; fill: none;"></rect><line x1="550.5" y1="170" x2="550.5" y2="250" stroke-width="2" stroke="black"></line><circle cx="540.5" cy="190" r="10" style="stroke: #000; stroke-width: 1; fill: none;"></circle><circle cx="540.5" cy="210" r="10" style="stroke: #000; stroke-width: 1; fill: none;"></circle><line x1="510.5" y1="190" x2="520.5" y2="190" stroke-width="2" stroke="black"></line><text x="525.5" y="190" font-size="10" font-family="sans-serif" text-anchor="start" alignment-baseline="middle">1</text><line x1="510.5" y1="210" x2="520.5" y2="210" stroke-width="2" stroke="black"></line><text x="525.5" y="210" font-size="10" font-family="sans-serif" text-anchor="start" alignment-baseline="middle">2</text><line x1="510.5" y1="230" x2="520.5" y2="230" stroke-width="2" stroke="black"></line><text x="525.5" y="230" font-size="10" font-family="sans-serif" text-anchor="start" alignment-baseline="middle">3</text><line x1="107.5" y1="167" x2="113.5" y2="173" stroke-width="2" stroke="black"></line><line x1="107.5" y1="173" x2="113.5" y2="167" stroke-width="2" stroke="black"></line><rect width="60" height="30" x="220.5" y="110" style="stroke: #000; stroke-width: 1; fill: none;"></rect><line x1="210.5" y1="120" x2="220.5" y2="120" stroke-width="2" stroke="black"></line><line x1="210.5" y1="130" x2="220.5" y2="130" stroke-width="2" stroke="black"></line><line x1="290.5" y1="130" x2="280.5" y2="130" stroke-width="2" stroke="black"></line><line x1="290.5" y1="120" x2="280.5" y2="120" stroke-width="2" stroke="black"></line><text x="222.5" y="120" font-size="10" font-family="sans-serif" text-anchor="start" alignment-baseline="middle">+Vin</text><text x="222.5" y="130" font-size="10" font-family="sans-serif" text-anchor="start" alignment-baseline="middle">-Vin</text><text x="278.5" y="130" font-size="10" font-family="sans-serif" text-anchor="end" alignment-baseline="middle">-Vout</text><text x="278.5" y="120" font-size="10" font-family="sans-serif" text-anchor="end" alignment-baseline="middle">+Vout</text><line x1="430.5" y1="230" x2="430.5" y2="240" stroke-width="2" stroke="black"></line><line x1="420.5" y1="240" x2="440.5" y2="240" stroke-width="2" stroke="black"></line><line x1="423.5" y1="245" x2="437.5" y2="245" stroke-width="2" stroke="black"></line><line x1="426.5" y1="250" x2="434.5" y2="250" stroke-width="2" stroke="black"></line><circle cx="350.5" cy="210" r="2" style="stroke: #000; stroke-width: 1; fill: none;"></circle><circle cx="130.5" cy="230" r="2" style="stroke: #000; stroke-width: 1; fill: none;"></circle><circle cx="130.5" cy="210" r="2" style="stroke: #000; stroke-width: 1; fill: none;"></circle><circle cx="130.5" cy="290" r="2" style="stroke: #000; stroke-width: 1; fill: none;"></circle><circle cx="130.5" cy="250" r="2" style="stroke: #000; stroke-width: 1; fill: none;"></circle><circle cx="430.5" cy="210" r="2" style="stroke: #000; stroke-width: 1; fill: none;"></circle><circle cx="130.5" cy="270" r="2" style="stroke: #000; stroke-width: 1; fill: none;"></circle><circle cx="130.5" cy="310" r="2" style="stroke: #000; stroke-width: 1; fill: none;"></circle><line x1="510.5" y1="190" x2="490.5" y2="190" stroke-width="2" stroke="black"></line><line x1="130.5" y1="100" x2="130.5" y2="90" stroke-width="2" stroke="black"></line><line x1="130.5" y1="230" x2="70.5" y2="230" stroke-width="2" stroke="black"></line><line x1="350.5" y1="120" x2="290.5" y2="120" stroke-width="2" stroke="black"></line><line x1="130.5" y1="210" x2="130.5" y2="230" stroke-width="2" stroke="black"></line><line x1="130.5" y1="290" x2="70.5" y2="290" stroke-width="2" stroke="black"></line><line x1="190.5" y1="130" x2="190.5" y2="150" stroke-width="2" stroke="black"></line><line x1="130.5" y1="250" x2="130.5" y2="230" stroke-width="2" stroke="black"></line><line x1="110.5" y1="170" x2="70.5" y2="170" stroke-width="2" stroke="black"></line><line x1="190.5" y1="120" x2="190.5" y2="90" stroke-width="2" stroke="black"></line><line x1="190.5" y1="120" x2="210.5" y2="120" stroke-width="2" stroke="black"></line><line x1="70.5" y1="210" x2="130.5" y2="210" stroke-width="2" stroke="black"></line><line x1="130.5" y1="190" x2="70.5" y2="190" stroke-width="2" stroke="black"></line><line x1="130.5" y1="190" x2="130.5" y2="210" stroke-width="2" stroke="black"></line><line x1="90.5" y1="130" x2="110.5" y2="130" stroke-width="2" stroke="black"></line><line x1="70.5" y1="130" x2="90.5" y2="130" stroke-width="2" stroke="black"></line><line x1="350.5" y1="40" x2="350.5" y2="120" stroke-width="2" stroke="black"></line><line x1="70.5" y1="250" x2="130.5" y2="250" stroke-width="2" stroke="black"></line><line x1="190.5" y1="300" x2="190.5" y2="320" stroke-width="2" stroke="black"></line><line x1="430.5" y1="210" x2="350.5" y2="210" stroke-width="2" stroke="black"></line><line x1="430.5" y1="210" x2="510.5" y2="210" stroke-width="2" stroke="black"></line><line x1="70.5" y1="150" x2="110.5" y2="150" stroke-width="2" stroke="black"></line><line x1="130.5" y1="270" x2="130.5" y2="250" stroke-width="2" stroke="black"></line><line x1="130.5" y1="270" x2="130.5" y2="290" stroke-width="2" stroke="black"></line><line x1="130.5" y1="270" x2="70.5" y2="270" stroke-width="2" stroke="black"></line><line x1="210.5" y1="300" x2="190.5" y2="300" stroke-width="2" stroke="black"></line><line x1="430.5" y1="230" x2="430.5" y2="210" stroke-width="2" stroke="black"></line><line x1="350.5" y1="290" x2="350.5" y2="210" stroke-width="2" stroke="black"></line><line x1="350.5" y1="290" x2="290.5" y2="290" stroke-width="2" stroke="black"></line><line x1="490.5" y1="380" x2="490.5" y2="230" stroke-width="2" stroke="black"></line><line x1="350.5" y1="130" x2="350.5" y2="210" stroke-width="2" stroke="black"></line><line x1="350.5" y1="130" x2="290.5" y2="130" stroke-width="2" stroke="black"></line><line x1="350.5" y1="300" x2="350.5" y2="380" stroke-width="2" stroke="black"></line><line x1="350.5" y1="300" x2="290.5" y2="300" stroke-width="2" stroke="black"></line><line x1="510.5" y1="230" x2="490.5" y2="230" stroke-width="2" stroke="black"></line><line x1="210.5" y1="130" x2="190.5" y2="130" stroke-width="2" stroke="black"></line><line x1="130.5" y1="310" x2="130.5" y2="290" stroke-width="2" stroke="black"></line><line x1="130.5" y1="310" x2="130.5" y2="320" stroke-width="2" stroke="black"></line><line x1="130.5" y1="310" x2="70.5" y2="310" stroke-width="2" stroke="black"></line><line x1="490.5" y1="40" x2="490.5" y2="190" stroke-width="2" stroke="black"></line><line x1="130.5" y1="110" x2="130.5" y2="100" stroke-width="2" stroke="black"></line><line x1="130.5" y1="110" x2="70.5" y2="110" stroke-width="2" stroke="black"></line><line x1="190.5" y1="290" x2="190.5" y2="270" stroke-width="2" stroke="black"></line><line x1="190.5" y1="290" x2="210.5" y2="290" stroke-width="2" stroke="black"></line></svg>