<?xml version='1.0' encoding='UTF-8' standalone='no'?>
<svg xmlns="http://www.w3.org/2000/svg" width="738" height="420" x="0" y="0"><text x="183" y="180" font-size="10" font-family="sans-serif" text-anchor="start" alignment-baseline="hanging">GND</text><text x="63" y="140" font-size="10" font-family="sans-serif" text-anchor="end" alignment-baseline="hanging">J1</text><text x="126" y="176" font-size="10" font-family="sans-serif" text-anchor="start" alignment-baseline="hanging">D-</text><text x="183" y="60" font-size="10" font-family="sans-serif" text-anchor="start" alignment-baseline="hanging">Vusb</text><text x="74" y="262" font-size="10" font-family="sans-serif" text-anchor="end" alignment-baseline="hanging">USB-B1HSB6</text><text x="123" y="350" font-size="10" font-family="sans-serif" text-anchor="start" alignment-baseline="hanging">GND</text><text x="183" y="350" font-size="10" font-family="sans-serif" text-anchor="start" alignment-baseline="hanging">GND</text><text x="183" y="240" font-size="10" font-family="sans-serif" text-anchor="start" alignment-baseline="hanging">Vusb</text><text x="343" y="10" font-size="10" font-family="sans-serif" text-anchor="start" alignment-baseline="hanging">VCC</text><text x="483" y="10" font-size="10" font-family="sans-serif" text-anchor="start" alignment-baseline="hanging">VCC</text><text x="223" y="140" font-size="10" font-family="sans-serif" text-anchor="start" alignment-baseline="hanging">SPU01L-12</text><text x="420" y="261" font-size="10" font-family="sans-serif" text-anchor="start" alignment-baseline="hanging">GND</text><text x="123" y="60" font-size="10" font-family="sans-serif" text-anchor="start" alignment-baseline="hanging">Vusb</text><text x="223" y="100" font-size="10" font-family="sans-serif" text-anchor="start" alignment-baseline="hanging">U1</text><text x="524" y="155" font-size="10" font-family="sans-serif" text-anchor="start" alignment-baseline="hanging">J2</text><text x="513" y="255" font-size="10" font-family="sans-serif" text-anchor="start" alignment-baseline="hanging">5.0mm pitch screw terminal block, 3 positions</text><text x="503" y="410" font-size="10" font-family="sans-serif" text-anchor="end" alignment-baseline="hanging">VSS</text><text x="125" y="186" font-size="10" font-family="sans-serif" text-anchor="start" alignment-baseline="hanging">D+</text><text x="363" y="410" font-size="10" font-family="sans-serif" text-anchor="end" alignment-baseline="hanging">VSS</text><text x="223" y="270" font-size="10" font-family="sans-serif" text-anchor="start" alignment-baseline="hanging">U2</text><text x="223" y="310" font-size="10" font-family="sans-serif" text-anchor="start" alignment-baseline="hanging">SPU01L-12</text><line x1="110" y1="187" x2="116" y2="193" stroke-width="2" stroke="black"></line><line x1="110" y1="193" x2="116" y2="187" stroke-width="2" stroke="black"></line><line x1="353" y1="380" x2="353" y2="400" stroke-width="2" stroke="black"></line><line x1="353" y1="400" x2="360" y2="393" stroke-width="2" stroke="black"></line><line x1="353" y1="400" x2="346" y2="393" stroke-width="2" stroke="black"></line><line x1="193" y1="150" x2="193" y2="160" stroke-width="2" stroke="black"></line><line x1="183" y1="160" x2="203" y2="160" stroke-width="2" stroke="black"></line><line x1="186" y1="165" x2="200" y2="165" stroke-width="2" stroke="black"></line><line x1="189" y1="170" x2="197" y2="170" stroke-width="2" stroke="black"></line><line x1="493" y1="40" x2="493" y2="20" stroke-width="2" stroke="black"></line><line x1="493" y1="20" x2="486" y2="27" stroke-width="2" stroke="black"></line><line x1="493" y1="20" x2="500" y2="27" stroke-width="2" stroke="black"></line><line x1="133" y1="320" x2="133" y2="330" stroke-width="2" stroke="black"></line><line x1="123" y1="330" x2="143" y2="330" stroke-width="2" stroke="black"></line><line x1="126" y1="335" x2="140" y2="335" stroke-width="2" stroke="black"></line><line x1="129" y1="340" x2="137" y2="340" stroke-width="2" stroke="black"></line><line x1="193" y1="270" x2="193" y2="250" stroke-width="2" stroke="black"></line><line x1="193" y1="250" x2="186" y2="257" stroke-width="2" stroke="black"></line><line x1="193" y1="250" x2="200" y2="257" stroke-width="2" stroke="black"></line><line x1="193" y1="320" x2="193" y2="330" stroke-width="2" stroke="black"></line><line x1="183" y1="330" x2="203" y2="330" stroke-width="2" stroke="black"></line><line x1="186" y1="335" x2="200" y2="335" stroke-width="2" stroke="black"></line><line x1="189" y1="340" x2="197" y2="340" stroke-width="2" stroke="black"></line><rect width="60" height="30" x="223" y="280" style="stroke: #000; stroke-width: 1; fill: none;"></rect><line x1="213" y1="290" x2="223" y2="290" stroke-width="2" stroke="black"></line><line x1="213" y1="300" x2="223" y2="300" stroke-width="2" stroke="black"></line><line x1="293" y1="300" x2="283" y2="300" stroke-width="2" stroke="black"></line><line x1="293" y1="290" x2="283" y2="290" stroke-width="2" stroke="black"></line><text x="225" y="290" font-size="10" font-family="sans-serif" text-anchor="start" alignment-baseline="middle">+Vin</text><text x="225" y="300" font-size="10" font-family="sans-serif" text-anchor="start" alignment-baseline="middle">-Vin</text><text x="281" y="300" font-size="10" font-family="sans-serif" text-anchor="end" alignment-baseline="middle">-Vout</text><text x="281" y="290" font-size="10" font-family="sans-serif" text-anchor="end" alignment-baseline="middle">+Vout</text><line x1="193" y1="90" x2="193" y2="70" stroke-width="2" stroke="black"></line><line x1="193" y1="70" x2="186" y2="77" stroke-width="2" stroke="black"></line><line x1="193" y1="70" x2="200" y2="77" stroke-width="2" stroke="black"></line><line x1="353" y1="40" x2="353" y2="20" stroke-width="2" stroke="black"></line><line x1="353" y1="20" x2="346" y2="27" stroke-width="2" stroke="black"></line><line x1="353" y1="20" x2="360" y2="27" stroke-width="2" stroke="black"></line><line x1="133" y1="90" x2="133" y2="70" stroke-width="2" stroke="black"></line><line x1="133" y1="70" x2="126" y2="77" stroke-width="2" stroke="black"></line><line x1="133" y1="70" x2="140" y2="77" stroke-width="2" stroke="black"></line><line x1="493" y1="380" x2="493" y2="400" stroke-width="2" stroke="black"></line><line x1="493" y1="400" x2="500" y2="393" stroke-width="2" stroke="black"></line><line x1="493" y1="400" x2="486" y2="393" stroke-width="2" stroke="black"></line><line x1="110" y1="177" x2="116" y2="183" stroke-width="2" stroke="black"></line><line x1="110" y1="183" x2="116" y2="177" stroke-width="2" stroke="black"></line><circle cx="543" cy="230" r="10" style="stroke: #000; stroke-width: 1; fill: none;"></circle><rect width="40" height="80" x="523" y="170" style="stroke: #000; stroke-width: 1; fill: none;"></rect><line x1="553" y1="170" x2="553" y2="250" stroke-width="2" stroke="black"></line><circle cx="543" cy="190" r="10" style="stroke: #000; stroke-width: 1; fill: none;"></circle><circle cx="543" cy="210" r="10" style="stroke: #000; stroke-width: 1; fill: none;"></circle><line x1="513" y1="190" x2="523" y2="190" stroke-width="2" stroke="black"></line><text x="528" y="190" font-size="10" font-family="sans-serif" text-anchor="start" alignment-baseline="middle">1</text><line x1="513" y1="210" x2="523" y2="210" stroke-width="2" stroke="black"></line><text x="528" y="210" font-size="10" font-family="sans-serif" text-anchor="start" alignment-baseline="middle">2</text><line x1="513" y1="230" x2="523" y2="230" stroke-width="2" stroke="black"></line><text x="528" y="230" font-size="10" font-family="sans-serif" text-anchor="start" alignment-baseline="middle">3</text><rect width="40" height="100" x="23" y="150" style="stroke: #000; stroke-width: 1; fill: none;"></rect><line x1="73" y1="160" x2="63" y2="160" stroke-width="2" stroke="black"></line><text x="61" y="160" font-size="10" font-family="sans-serif" text-anchor="end" alignment-baseline="middle">VCC</text><line x1="73" y1="180" x2="63" y2="180" stroke-width="2" stroke="black"></line><text x="61" y="180" font-size="10" font-family="sans-serif" text-anchor="end" alignment-baseline="middle">D+</text><line x1="73" y1="190" x2="63" y2="190" stroke-width="2" stroke="black"></line><text x="61" y="190" font-size="10" font-family="sans-serif" text-anchor="end" alignment-baseline="middle">D-</text><line x1="73" y1="210" x2="63" y2="210" stroke-width="2" stroke="black"></line><text x="61" y="210" font-size="10" font-family="sans-serif" text-anchor="end" alignment-baseline="middle">GND</text><line x1="73" y1="230" x2="63" y2="230" stroke-width="2" stroke="black"></line><text x="61" y="230" font-size="10" font-family="sans-serif" text-anchor="end" alignment-baseline="middle">S</text><line x1="73" y1="240" x2="63" y2="240" stroke-width="2" stroke="black"></line><text x="61" y="240" font-size="10" font-family="sans-serif" text-anchor="end" alignment-baseline="middle">S</text><rect width="60" height="30" x="223" y="110" style="stroke: #000; stroke-width: 1; fill: none;"></rect><line x1="213" y1="120" x2="223" y2="120" stroke-width="2" stroke="black"></line><line x1="213" y1="130" x2="223" y2="130" stroke-width="2" stroke="black"></line><line x1="293" y1="130" x2="283" y2="130" stroke-width="2" stroke="black"></line><line x1="293" y1="120" x2="283" y2="120" stroke-width="2" stroke="black"></line><text x="225" y="120" font-size="10" font-family="sans-serif" text-anchor="start" alignment-baseline="middle">+Vin</text><text x="225" y="130" font-size="10" font-family="sans-serif" text-anchor="start" alignment-baseline="middle">-Vin</text><text x="281" y="130" font-size="10" font-family="sans-serif" text-anchor="end" alignment-baseline="middle">-Vout</text><text x="281" y="120" font-size="10" font-family="sans-serif" text-anchor="end" alignment-baseline="middle">+Vout</text><line x1="433" y1="230" x2="433" y2="240" stroke-width="2" stroke="black"></line><line x1="423" y1="240" x2="443" y2="240" stroke-width="2" stroke="black"></line><line x1="426" y1="245" x2="440" y2="245" stroke-width="2" stroke="black"></line><line x1="429" y1="250" x2="437" y2="250" stroke-width="2" stroke="black"></line><circle cx="133" cy="230" r="2" style="stroke: #000; stroke-width: 1; fill: none;"></circle><circle cx="353" cy="210" r="2" style="stroke: #000; stroke-width: 1; fill: none;"></circle><circle cx="433" cy="210" r="2" style="stroke: #000; stroke-width: 1; fill: none;"></circle><circle cx="133" cy="240" r="2" style="stroke: #000; stroke-width: 1; fill: none;"></circle><line x1="133" y1="90" x2="133" y2="160" stroke-width="2" stroke="black"></line><line x1="133" y1="230" x2="73" y2="230" stroke-width="2" stroke="black"></line><line x1="133" y1="230" x2="133" y2="210" stroke-width="2" stroke="black"></line><line x1="73" y1="160" x2="133" y2="160" stroke-width="2" stroke="black"></line><line x1="513" y1="190" x2="493" y2="190" stroke-width="2" stroke="black"></line><line x1="73" y1="210" x2="133" y2="210" stroke-width="2" stroke="black"></line><line x1="353" y1="120" x2="293" y2="120" stroke-width="2" stroke="black"></line><line x1="193" y1="130" x2="193" y2="150" stroke-width="2" stroke="black"></line><line x1="93" y1="180" x2="113" y2="180" stroke-width="2" stroke="black"></line><line x1="193" y1="120" x2="193" y2="90" stroke-width="2" stroke="black"></line><line x1="193" y1="120" x2="213" y2="120" stroke-width="2" stroke="black"></line><line x1="353" y1="40" x2="353" y2="120" stroke-width="2" stroke="black"></line><line x1="113" y1="190" x2="93" y2="190" stroke-width="2" stroke="black"></line><line x1="73" y1="180" x2="93" y2="180" stroke-width="2" stroke="black"></line><line x1="193" y1="300" x2="193" y2="320" stroke-width="2" stroke="black"></line><line x1="433" y1="210" x2="353" y2="210" stroke-width="2" stroke="black"></line><line x1="433" y1="210" x2="513" y2="210" stroke-width="2" stroke="black"></line><line x1="73" y1="190" x2="93" y2="190" stroke-width="2" stroke="black"></line><line x1="133" y1="240" x2="73" y2="240" stroke-width="2" stroke="black"></line><line x1="133" y1="240" x2="133" y2="230" stroke-width="2" stroke="black"></line><line x1="133" y1="320" x2="133" y2="240" stroke-width="2" stroke="black"></line><line x1="213" y1="300" x2="193" y2="300" stroke-width="2" stroke="black"></line><line x1="433" y1="230" x2="433" y2="210" stroke-width="2" stroke="black"></line><line x1="353" y1="290" x2="353" y2="210" stroke-width="2" stroke="black"></line><line x1="353" y1="290" x2="293" y2="290" stroke-width="2" stroke="black"></line><line x1="493" y1="380" x2="493" y2="230" stroke-width="2" stroke="black"></line><line x1="353" y1="130" x2="353" y2="210" stroke-width="2" stroke="black"></line><line x1="353" y1="130" x2="293" y2="130" stroke-width="2" stroke="black"></line><line x1="353" y1="300" x2="353" y2="380" stroke-width="2" stroke="black"></line><line x1="353" y1="300" x2="293" y2="300" stroke-width="2" stroke="black"></line><line x1="513" y1="230" x2="493" y2="230" stroke-width="2" stroke="black"></line><line x1="213" y1="130" x2="193" y2="130" stroke-width="2" stroke="black"></line><line x1="493" y1="40" x2="493" y2="190" stroke-width="2" stroke="black"></line><line x1="193" y1="290" x2="193" y2="270" stroke-width="2" stroke="black"></line><line x1="193" y1="290" x2="213" y2="290" stroke-width="2" stroke="black"></line></svg>