<?xml version='1.0' encoding='UTF-8' standalone='no'?>
<svg xmlns="http://www.w3.org/2000/svg" width="772.5" height="440" x="0" y="0"><text x="220.5" y="120" font-size="10" font-family="sans-serif" text-anchor="start" alignment-baseline="hanging">U1</text><text x="180.5" y="370" font-size="10" font-family="sans-serif" text-anchor="start" alignment-baseline="hanging">GND</text><text x="220.5" y="160" font-size="10" font-family="sans-serif" text-anchor="start" alignment-baseline="hanging">SPU01L-12</text><text x="67.5" y="10" font-size="10" font-family="sans-serif" text-anchor="start" alignment-baseline="hanging">TODO: Check USB connector pinout</text><text x="180.5" y="80" font-size="10" font-family="sans-serif" text-anchor="start" alignment-baseline="hanging">Vusb</text><text x="120.5" y="370" font-size="10" font-family="sans-serif" text-anchor="start" alignment-baseline="hanging">GND</text><text x="220.5" y="330" font-size="10" font-family="sans-serif" text-anchor="start" alignment-baseline="hanging">SPU01L-12</text><text x="563.5" y="142" font-size="10" font-family="sans-serif" text-anchor="start" alignment-baseline="hanging">TODO: Make this a generic screw terminal</text><text x="180.5" y="260" font-size="10" font-family="sans-serif" text-anchor="start" alignment-baseline="hanging">Vusb</text><text x="521.5" y="285" font-size="10" font-family="sans-serif" text-anchor="start" alignment-baseline="hanging">J3</text><text x="480.5" y="30" font-size="10" font-family="sans-serif" text-anchor="start" alignment-baseline="hanging">VCC</text><text x="10.5" y="350" font-size="10" font-family="sans-serif" text-anchor="start" alignment-baseline="hanging">1981568-1</text><text x="410.5" y="281" font-size="10" font-family="sans-serif" text-anchor="start" alignment-baseline="hanging">Common</text><text x="220.5" y="290" font-size="10" font-family="sans-serif" text-anchor="start" alignment-baseline="hanging">U2</text><text x="120.5" y="80" font-size="10" font-family="sans-serif" text-anchor="start" alignment-baseline="hanging">Vusb</text><text x="340.5" y="30" font-size="10" font-family="sans-serif" text-anchor="start" alignment-baseline="hanging">VCC</text><text x="10.5" y="90" font-size="10" font-family="sans-serif" text-anchor="start" alignment-baseline="hanging">J1</text><text x="180.5" y="200" font-size="10" font-family="sans-serif" text-anchor="start" alignment-baseline="hanging">GND</text><text x="500.5" y="430" font-size="10" font-family="sans-serif" text-anchor="end" alignment-baseline="hanging">VSS</text><text x="360.5" y="430" font-size="10" font-family="sans-serif" text-anchor="end" alignment-baseline="hanging">VSS</text><line x1="490.5" y1="60" x2="490.5" y2="40" stroke-width="2" stroke="black"></line><line x1="490.5" y1="40" x2="483.5" y2="47" stroke-width="2" stroke="black"></line><line x1="490.5" y1="40" x2="497.5" y2="47" stroke-width="2" stroke="black"></line><line x1="350.5" y1="400" x2="350.5" y2="420" stroke-width="2" stroke="black"></line><line x1="350.5" y1="420" x2="357.5" y2="413" stroke-width="2" stroke="black"></line><line x1="350.5" y1="420" x2="343.5" y2="413" stroke-width="2" stroke="black"></line><line x1="190.5" y1="290" x2="190.5" y2="270" stroke-width="2" stroke="black"></line><line x1="190.5" y1="270" x2="183.5" y2="277" stroke-width="2" stroke="black"></line><line x1="190.5" y1="270" x2="197.5" y2="277" stroke-width="2" stroke="black"></line><line x1="190.5" y1="340" x2="190.5" y2="350" stroke-width="2" stroke="black"></line><line x1="180.5" y1="350" x2="200.5" y2="350" stroke-width="2" stroke="black"></line><line x1="183.5" y1="355" x2="197.5" y2="355" stroke-width="2" stroke="black"></line><line x1="186.5" y1="360" x2="194.5" y2="360" stroke-width="2" stroke="black"></line><line x1="130.5" y1="340" x2="130.5" y2="350" stroke-width="2" stroke="black"></line><line x1="120.5" y1="350" x2="140.5" y2="350" stroke-width="2" stroke="black"></line><line x1="123.5" y1="355" x2="137.5" y2="355" stroke-width="2" stroke="black"></line><line x1="126.5" y1="360" x2="134.5" y2="360" stroke-width="2" stroke="black"></line><rect width="60" height="30" x="220.5" y="130" style="stroke: #000; stroke-width: 1; fill: none;"></rect><line x1="210.5" y1="140" x2="220.5" y2="140" stroke-width="2" stroke="black"></line><line x1="210.5" y1="150" x2="220.5" y2="150" stroke-width="2" stroke="black"></line><line x1="290.5" y1="150" x2="280.5" y2="150" stroke-width="2" stroke="black"></line><line x1="290.5" y1="140" x2="280.5" y2="140" stroke-width="2" stroke="black"></line><text x="222.5" y="140" font-size="10" font-family="sans-serif" text-anchor="start" alignment-baseline="middle">+Vin</text><text x="222.5" y="150" font-size="10" font-family="sans-serif" text-anchor="start" alignment-baseline="middle">-Vin</text><text x="278.5" y="150" font-size="10" font-family="sans-serif" text-anchor="end" alignment-baseline="middle">-Vout</text><text x="278.5" y="140" font-size="10" font-family="sans-serif" text-anchor="end" alignment-baseline="middle">+Vout</text><line x1="190.5" y1="170" x2="190.5" y2="180" stroke-width="2" stroke="black"></line><line x1="180.5" y1="180" x2="200.5" y2="180" stroke-width="2" stroke="black"></line><line x1="183.5" y1="185" x2="197.5" y2="185" stroke-width="2" stroke="black"></line><line x1="186.5" y1="190" x2="194.5" y2="190" stroke-width="2" stroke="black"></line><line x1="190.5" y1="110" x2="190.5" y2="90" stroke-width="2" stroke="black"></line><line x1="190.5" y1="90" x2="183.5" y2="97" stroke-width="2" stroke="black"></line><line x1="190.5" y1="90" x2="197.5" y2="97" stroke-width="2" stroke="black"></line><line x1="350.5" y1="60" x2="350.5" y2="40" stroke-width="2" stroke="black"></line><line x1="350.5" y1="40" x2="343.5" y2="47" stroke-width="2" stroke="black"></line><line x1="350.5" y1="40" x2="357.5" y2="47" stroke-width="2" stroke="black"></line><line x1="130.5" y1="110" x2="130.5" y2="90" stroke-width="2" stroke="black"></line><line x1="130.5" y1="90" x2="123.5" y2="97" stroke-width="2" stroke="black"></line><line x1="130.5" y1="90" x2="137.5" y2="97" stroke-width="2" stroke="black"></line><rect width="60" height="30" x="220.5" y="300" style="stroke: #000; stroke-width: 1; fill: none;"></rect><line x1="210.5" y1="310" x2="220.5" y2="310" stroke-width="2" stroke="black"></line><line x1="210.5" y1="320" x2="220.5" y2="320" stroke-width="2" stroke="black"></line><line x1="290.5" y1="320" x2="280.5" y2="320" stroke-width="2" stroke="black"></line><line x1="290.5" y1="310" x2="280.5" y2="310" stroke-width="2" stroke="black"></line><text x="222.5" y="310" font-size="10" font-family="sans-serif" text-anchor="start" alignment-baseline="middle">+Vin</text><text x="222.5" y="320" font-size="10" font-family="sans-serif" text-anchor="start" alignment-baseline="middle">-Vin</text><text x="278.5" y="320" font-size="10" font-family="sans-serif" text-anchor="end" alignment-baseline="middle">-Vout</text><text x="278.5" y="310" font-size="10" font-family="sans-serif" text-anchor="end" alignment-baseline="middle">+Vout</text><circle cx="540.5" cy="250" r="10" style="stroke: #000; stroke-width: 1; fill: none;"></circle><rect width="40" height="80" x="520.5" y="190" style="stroke: #000; stroke-width: 1; fill: none;"></rect><line x1="550.5" y1="190" x2="550.5" y2="270" stroke-width="2" stroke="black"></line><circle cx="540.5" cy="210" r="10" style="stroke: #000; stroke-width: 1; fill: none;"></circle><circle cx="540.5" cy="230" r="10" style="stroke: #000; stroke-width: 1; fill: none;"></circle><line x1="510.5" y1="210" x2="520.5" y2="210" stroke-width="2" stroke="black"></line><text x="525.5" y="210" font-size="10" font-family="sans-serif" text-anchor="start" alignment-baseline="middle">1</text><line x1="510.5" y1="230" x2="520.5" y2="230" stroke-width="2" stroke="black"></line><text x="525.5" y="230" font-size="10" font-family="sans-serif" text-anchor="start" alignment-baseline="middle">2</text><line x1="510.5" y1="250" x2="520.5" y2="250" stroke-width="2" stroke="black"></line><text x="525.5" y="250" font-size="10" font-family="sans-serif" text-anchor="start" alignment-baseline="middle">3</text><rect width="50" height="240" x="10.5" y="100" style="stroke: #000; stroke-width: 1; fill: none;"></rect><circle cx="35.5" cy="120" r="3" style="stroke: #000; stroke-width: 1; fill: none;"></circle><line x1="38.5" y1="120" x2="60.5" y2="120" stroke-width="2" stroke="black"></line><circle cx="35.5" cy="140" r="3" style="stroke: #000; stroke-width: 1; fill: none;"></circle><line x1="38.5" y1="140" x2="60.5" y2="140" stroke-width="2" stroke="black"></line><circle cx="35.5" cy="160" r="3" style="stroke: #000; stroke-width: 1; fill: none;"></circle><line x1="38.5" y1="160" x2="60.5" y2="160" stroke-width="2" stroke="black"></line><circle cx="35.5" cy="180" r="3" style="stroke: #000; stroke-width: 1; fill: none;"></circle><line x1="38.5" y1="180" x2="60.5" y2="180" stroke-width="2" stroke="black"></line><circle cx="35.5" cy="200" r="3" style="stroke: #000; stroke-width: 1; fill: none;"></circle><line x1="38.5" y1="200" x2="60.5" y2="200" stroke-width="2" stroke="black"></line><circle cx="35.5" cy="230" r="3" style="stroke: #000; stroke-width: 1; fill: none;"></circle><line x1="38.5" y1="230" x2="60.5" y2="230" stroke-width="2" stroke="black"></line><circle cx="35.5" cy="250" r="3" style="stroke: #000; stroke-width: 1; fill: none;"></circle><line x1="38.5" y1="250" x2="60.5" y2="250" stroke-width="2" stroke="black"></line><circle cx="35.5" cy="270" r="3" style="stroke: #000; stroke-width: 1; fill: none;"></circle><line x1="38.5" y1="270" x2="60.5" y2="270" stroke-width="2" stroke="black"></line><circle cx="35.5" cy="290" r="3" style="stroke: #000; stroke-width: 1; fill: none;"></circle><line x1="38.5" y1="290" x2="60.5" y2="290" stroke-width="2" stroke="black"></line><circle cx="35.5" cy="310" r="3" style="stroke: #000; stroke-width: 1; fill: none;"></circle><line x1="38.5" y1="310" x2="60.5" y2="310" stroke-width="2" stroke="black"></line><circle cx="35.5" cy="330" r="3" style="stroke: #000; stroke-width: 1; fill: none;"></circle><line x1="38.5" y1="330" x2="60.5" y2="330" stroke-width="2" stroke="black"></line><line x1="70.5" y1="120" x2="60.5" y2="120" stroke-width="2" stroke="black"></line><text x="58.5" y="112" font-size="10" font-family="sans-serif" text-anchor="end" alignment-baseline="middle">1</text><line x1="70.5" y1="140" x2="60.5" y2="140" stroke-width="2" stroke="black"></line><text x="58.5" y="132" font-size="10" font-family="sans-serif" text-anchor="end" alignment-baseline="middle">2</text><line x1="70.5" y1="160" x2="60.5" y2="160" stroke-width="2" stroke="black"></line><text x="58.5" y="152" font-size="10" font-family="sans-serif" text-anchor="end" alignment-baseline="middle">3</text><line x1="70.5" y1="180" x2="60.5" y2="180" stroke-width="2" stroke="black"></line><text x="58.5" y="172" font-size="10" font-family="sans-serif" text-anchor="end" alignment-baseline="middle">4</text><line x1="70.5" y1="200" x2="60.5" y2="200" stroke-width="2" stroke="black"></line><text x="58.5" y="192" font-size="10" font-family="sans-serif" text-anchor="end" alignment-baseline="middle">5</text><line x1="70.5" y1="230" x2="60.5" y2="230" stroke-width="2" stroke="black"></line><text x="58.5" y="222" font-size="10" font-family="sans-serif" text-anchor="end" alignment-baseline="middle">MNT_1</text><line x1="70.5" y1="250" x2="60.5" y2="250" stroke-width="2" stroke="black"></line><text x="58.5" y="242" font-size="10" font-family="sans-serif" text-anchor="end" alignment-baseline="middle">MNT_2</text><line x1="70.5" y1="270" x2="60.5" y2="270" stroke-width="2" stroke="black"></line><text x="58.5" y="262" font-size="10" font-family="sans-serif" text-anchor="end" alignment-baseline="middle">MNT_3</text><line x1="70.5" y1="290" x2="60.5" y2="290" stroke-width="2" stroke="black"></line><text x="58.5" y="282" font-size="10" font-family="sans-serif" text-anchor="end" alignment-baseline="middle">MNT_4</text><line x1="70.5" y1="310" x2="60.5" y2="310" stroke-width="2" stroke="black"></line><text x="58.5" y="302" font-size="10" font-family="sans-serif" text-anchor="end" alignment-baseline="middle">MNT_5</text><line x1="70.5" y1="330" x2="60.5" y2="330" stroke-width="2" stroke="black"></line><text x="58.5" y="322" font-size="10" font-family="sans-serif" text-anchor="end" alignment-baseline="middle">MNT_6</text><line x1="490.5" y1="400" x2="490.5" y2="420" stroke-width="2" stroke="black"></line><line x1="490.5" y1="420" x2="497.5" y2="413" stroke-width="2" stroke="black"></line><line x1="490.5" y1="420" x2="483.5" y2="413" stroke-width="2" stroke="black"></line><line x1="430.5" y1="250" x2="430.5" y2="260" stroke-width="2" stroke="black"></line><line x1="420.5" y1="260" x2="440.5" y2="260" stroke-width="2" stroke="black"></line><line x1="423.5" y1="265" x2="437.5" y2="265" stroke-width="2" stroke="black"></line><line x1="426.5" y1="270" x2="434.5" y2="270" stroke-width="2" stroke="black"></line><circle cx="130.5" cy="230" r="2" style="stroke: #000; stroke-width: 1; fill: none;"></circle><circle cx="430.5" cy="230" r="2" style="stroke: #000; stroke-width: 1; fill: none;"></circle><circle cx="350.5" cy="230" r="2" style="stroke: #000; stroke-width: 1; fill: none;"></circle><circle cx="130.5" cy="250" r="2" style="stroke: #000; stroke-width: 1; fill: none;"></circle><circle cx="130.5" cy="270" r="2" style="stroke: #000; stroke-width: 1; fill: none;"></circle><circle cx="130.5" cy="310" r="2" style="stroke: #000; stroke-width: 1; fill: none;"></circle><circle cx="130.5" cy="330" r="2" style="stroke: #000; stroke-width: 1; fill: none;"></circle><circle cx="130.5" cy="290" r="2" style="stroke: #000; stroke-width: 1; fill: none;"></circle><line x1="510.5" y1="230" x2="430.5" y2="230" stroke-width="2" stroke="black"></line><line x1="350.5" y1="230" x2="350.5" y2="310" stroke-width="2" stroke="black"></line><line x1="350.5" y1="230" x2="430.5" y2="230" stroke-width="2" stroke="black"></line><line x1="350.5" y1="320" x2="350.5" y2="400" stroke-width="2" stroke="black"></line><line x1="130.5" y1="250" x2="130.5" y2="230" stroke-width="2" stroke="black"></line><line x1="350.5" y1="140" x2="290.5" y2="140" stroke-width="2" stroke="black"></line><line x1="190.5" y1="170" x2="190.5" y2="150" stroke-width="2" stroke="black"></line><line x1="130.5" y1="200" x2="70.5" y2="200" stroke-width="2" stroke="black"></line><line x1="130.5" y1="200" x2="130.5" y2="230" stroke-width="2" stroke="black"></line><line x1="190.5" y1="320" x2="190.5" y2="340" stroke-width="2" stroke="black"></line><line x1="70.5" y1="230" x2="130.5" y2="230" stroke-width="2" stroke="black"></line><line x1="130.5" y1="120" x2="70.5" y2="120" stroke-width="2" stroke="black"></line><line x1="130.5" y1="120" x2="130.5" y2="110" stroke-width="2" stroke="black"></line><line x1="210.5" y1="320" x2="190.5" y2="320" stroke-width="2" stroke="black"></line><line x1="130.5" y1="270" x2="130.5" y2="250" stroke-width="2" stroke="black"></line><line x1="350.5" y1="60" x2="350.5" y2="140" stroke-width="2" stroke="black"></line><line x1="190.5" y1="310" x2="190.5" y2="290" stroke-width="2" stroke="black"></line><line x1="430.5" y1="250" x2="430.5" y2="230" stroke-width="2" stroke="black"></line><line x1="290.5" y1="320" x2="350.5" y2="320" stroke-width="2" stroke="black"></line><line x1="490.5" y1="210" x2="510.5" y2="210" stroke-width="2" stroke="black"></line><line x1="290.5" y1="310" x2="350.5" y2="310" stroke-width="2" stroke="black"></line><line x1="190.5" y1="140" x2="210.5" y2="140" stroke-width="2" stroke="black"></line><line x1="190.5" y1="140" x2="190.5" y2="110" stroke-width="2" stroke="black"></line><line x1="490.5" y1="60" x2="490.5" y2="210" stroke-width="2" stroke="black"></line><line x1="70.5" y1="270" x2="130.5" y2="270" stroke-width="2" stroke="black"></line><line x1="350.5" y1="150" x2="350.5" y2="230" stroke-width="2" stroke="black"></line><line x1="350.5" y1="150" x2="290.5" y2="150" stroke-width="2" stroke="black"></line><line x1="70.5" y1="250" x2="130.5" y2="250" stroke-width="2" stroke="black"></line><line x1="510.5" y1="250" x2="490.5" y2="250" stroke-width="2" stroke="black"></line><line x1="70.5" y1="310" x2="130.5" y2="310" stroke-width="2" stroke="black"></line><line x1="490.5" y1="400" x2="490.5" y2="250" stroke-width="2" stroke="black"></line><line x1="210.5" y1="150" x2="190.5" y2="150" stroke-width="2" stroke="black"></line><line x1="130.5" y1="330" x2="130.5" y2="340" stroke-width="2" stroke="black"></line><line x1="130.5" y1="330" x2="130.5" y2="310" stroke-width="2" stroke="black"></line><line x1="130.5" y1="330" x2="70.5" y2="330" stroke-width="2" stroke="black"></line><line x1="210.5" y1="310" x2="190.5" y2="310" stroke-width="2" stroke="black"></line><line x1="130.5" y1="290" x2="130.5" y2="270" stroke-width="2" stroke="black"></line><line x1="130.5" y1="290" x2="70.5" y2="290" stroke-width="2" stroke="black"></line><line x1="130.5" y1="290" x2="130.5" y2="310" stroke-width="2" stroke="black"></line></svg>