<?xml version="1.0" encoding="utf-8" ?>
<svg baseProfile="tiny" height="117.393304547" version="1.2" width="198.786609314" xmlns="http://www.w3.org/2000/svg" xmlns:ev="http://www.w3.org/2001/xml-events" xmlns:xlink="http://www.w3.org/1999/xlink"><defs /><g id="paths" stroke="blue"><path d="M 4.893306967,76.893305207 L 4.893306967,31.893306307 L 13.893306747,4.893306967 L 184.893302567,4.893306967 L 193.893302347,31.893306307 L 193.893302347,76.893305207 L 166.893303007,76.893305207 L 166.893303007,31.893306307 L 121.893304107,31.893306307 L 117.393304217,45.393305977 L 81.393305097,45.393305977 L 76.893305207,31.893306307 L 31.893306307,31.893306307 L 31.893306307,76.893305207 L 4.893306967,76.893305207 Z" fill-opacity="0" stroke-linejoin="round" stroke-width="1.0" /></g><g fill="red" id="holes"><circle cx="85.7133" cy="31.6233" r="0.585" stroke-width="0.0" /><circle cx="90.535" cy="18.3933" r="2.4803" stroke-width="0.0" /><circle cx="108.2516" cy="18.3933" r="2.4803" stroke-width="0.0" /><circle cx="162.3933" cy="18.3933" r="1.7717" stroke-width="0.0" /><circle cx="171.3933" cy="18.3933" r="1.7717" stroke-width="0.0" /><circle cx="13.8933" cy="58.8933" r="1.8" stroke-width="0.0" /><circle cx="13.8933" cy="67.8933" r="1.8" stroke-width="0.0" /><circle cx="22.8933" cy="58.8933" r="1.8" stroke-width="0.0" /><circle cx="22.8933" cy="67.8933" r="1.8" stroke-width="0.0" /><circle cx="175.8933" cy="58.8933" r="1.8" stroke-width="0.0" /><circle cx="175.8933" cy="67.8933" r="1.8" stroke-width="0.0" /><circle cx="184.8933" cy="58.8933" r="1.8" stroke-width="0.0" /><circle cx="184.8933" cy="67.8933" r="1.8" stroke-width="0.0" /><circle cx="36.3933" cy="18.3933" r="1.7717" stroke-width="0.0" /><circle cx="27.3933" cy="18.3933" r="1.7717" stroke-width="0.0" /></g><g id="rulers" stroke="black"><line stroke-width="1.0" x1="13.8933" x2="184.8933" y1="103.8933" y2="103.8933" /><text font-family="monospace" font-size="5" stroke-width="0.3" x="99.393304657" y="108.893304547">48.2600mm</text><text font-family="monospace" font-size="5" stroke-width="0.3" x="99.393304657" y="114.893304547">(Δx=48.2600mm)</text><line stroke-width="1.0" x1="22.8933" x2="175.8933" y1="85.8933" y2="85.8933" /><text font-family="monospace" font-size="5" stroke-width="0.3" x="99.393304657" y="90.893304987">43.1800mm</text><text font-family="monospace" font-size="5" stroke-width="0.3" x="99.393304657" y="96.893304987">(Δx=43.1800mm)</text></g></svg>