<?xml version='1.0' encoding='UTF-8' standalone='no'?>
<svg xmlns="http://www.w3.org/2000/svg" width="607" height="440" x="0" y="0"><text x="192" y="160" font-size="10" font-family="sans-serif" text-anchor="start" alignment-baseline="hanging">GND</text><text x="421" y="335" font-size="10" font-family="sans-serif" text-anchor="end" alignment-baseline="hanging">10uF</text><text x="409" y="325" font-size="10" font-family="sans-serif" text-anchor="end" alignment-baseline="hanging">5v</text><text x="272" y="259" font-size="10" font-family="sans-serif" text-anchor="start" alignment-baseline="hanging">U1</text><text x="352" y="50" font-size="10" font-family="sans-serif" text-anchor="start" alignment-baseline="hanging">J3</text><text x="392" y="160" font-size="10" font-family="sans-serif" text-anchor="start" alignment-baseline="hanging">GND</text><text x="252" y="50" font-size="10" font-family="sans-serif" text-anchor="start" alignment-baseline="hanging">J2</text><text x="372" y="220" font-size="10" font-family="sans-serif" text-anchor="start" alignment-baseline="hanging">VEE</text><text x="212" y="220" font-size="10" font-family="sans-serif" text-anchor="start" alignment-baseline="hanging">VCC</text><text x="392" y="10" font-size="10" font-family="sans-serif" text-anchor="start" alignment-baseline="hanging">VEE</text><text x="292" y="10" font-size="10" font-family="sans-serif" text-anchor="start" alignment-baseline="hanging">VCC</text><text x="392" y="356" font-size="10" font-family="sans-serif" text-anchor="start" alignment-baseline="hanging">TODO: What to do with LV pin??</text><text x="292" y="160" font-size="10" font-family="sans-serif" text-anchor="start" alignment-baseline="hanging">GND</text><text x="186" y="320" font-size="10" font-family="sans-serif" text-anchor="start" alignment-baseline="hanging">5v</text><text x="192" y="10" font-size="10" font-family="sans-serif" text-anchor="start" alignment-baseline="hanging">VCC</text><text x="172" y="58" font-size="10" font-family="sans-serif" text-anchor="end" alignment-baseline="hanging">J1</text><text x="211" y="308" font-size="10" font-family="sans-serif" text-anchor="start" alignment-baseline="hanging">+</text><text x="186" y="310" font-size="10" font-family="sans-serif" text-anchor="start" alignment-baseline="hanging">C1</text><text x="372" y="420" font-size="10" font-family="sans-serif" text-anchor="start" alignment-baseline="hanging">GND</text><text x="186" y="330" font-size="10" font-family="sans-serif" text-anchor="start" alignment-baseline="hanging">10uF</text><text x="393" y="332" font-size="10" font-family="sans-serif" text-anchor="end" alignment-baseline="hanging">+</text><text x="10" y="318" font-size="10" font-family="sans-serif" text-anchor="start" alignment-baseline="hanging">TODO: Cap size, voltage, etc????</text><text x="259" y="378" font-size="10" font-family="sans-serif" text-anchor="start" alignment-baseline="hanging">LMC7660IMX/NOPB</text><text x="212" y="420" font-size="10" font-family="sans-serif" text-anchor="start" alignment-baseline="hanging">GND</text><text x="435" y="316" font-size="10" font-family="sans-serif" text-anchor="start" alignment-baseline="hanging">TODO: Cap size, voltage, etc????</text><text x="412" y="316" font-size="10" font-family="sans-serif" text-anchor="end" alignment-baseline="hanging">C2</text><line x1="302" y1="40" x2="302" y2="20" stroke-width="2" stroke="black"></line><line x1="302" y1="20" x2="295" y2="27" stroke-width="2" stroke="black"></line><line x1="302" y1="20" x2="309" y2="27" stroke-width="2" stroke="black"></line><rect width="60" height="100" x="272" y="270" style="stroke: #000; stroke-width: 1; fill: none;"></rect><text x="327" y="305" font-size="10" font-family="sans-serif" text-anchor="end" alignment-baseline="hanging">NC</text><text x="277" y="355" font-size="10" font-family="sans-serif" text-anchor="start" alignment-baseline="hanging">GND</text><text x="277" y="295" font-size="10" font-family="sans-serif" text-anchor="start" alignment-baseline="hanging">C1+</text><text x="327" y="285" font-size="10" font-family="sans-serif" text-anchor="end" alignment-baseline="hanging">OUT</text><text x="277" y="335" font-size="10" font-family="sans-serif" text-anchor="start" alignment-baseline="hanging">C1-</text><text x="327" y="345" font-size="10" font-family="sans-serif" text-anchor="end" alignment-baseline="hanging">OSC</text><text x="327" y="365" font-size="10" font-family="sans-serif" text-anchor="end" alignment-baseline="hanging">LV</text><text x="277" y="275" font-size="10" font-family="sans-serif" text-anchor="start" alignment-baseline="hanging">V+</text><line x1="332" y1="300" x2="342" y2="300" stroke-width="2" stroke="black"></line><line x1="272" y1="360" x2="262" y2="360" stroke-width="2" stroke="black"></line><line x1="272" y1="300" x2="262" y2="300" stroke-width="2" stroke="black"></line><line x1="332" y1="280" x2="342" y2="280" stroke-width="2" stroke="black"></line><line x1="272" y1="340" x2="262" y2="340" stroke-width="2" stroke="black"></line><line x1="332" y1="340" x2="342" y2="340" stroke-width="2" stroke="black"></line><line x1="332" y1="360" x2="342" y2="360" stroke-width="2" stroke="black"></line><line x1="272" y1="280" x2="262" y2="280" stroke-width="2" stroke="black"></line><line x1="402" y1="40" x2="402" y2="20" stroke-width="2" stroke="black"></line><line x1="402" y1="20" x2="395" y2="27" stroke-width="2" stroke="black"></line><line x1="402" y1="20" x2="409" y2="27" stroke-width="2" stroke="black"></line><path d="M392,314 C 387,320 377,320 372,314" style="stroke: #000; stroke-width: 1; fill: none;"></path><line x1="392" y1="322" x2="372" y2="322" stroke-width="2" stroke="black"></line><line x1="382" y1="310" x2="382" y2="318" stroke-width="2" stroke="black"></line><line x1="382" y1="322" x2="382" y2="330" stroke-width="2" stroke="black"></line><line x1="222" y1="250" x2="222" y2="230" stroke-width="2" stroke="black"></line><line x1="222" y1="230" x2="215" y2="237" stroke-width="2" stroke="black"></line><line x1="222" y1="230" x2="229" y2="237" stroke-width="2" stroke="black"></line><line x1="202" y1="40" x2="202" y2="20" stroke-width="2" stroke="black"></line><line x1="202" y1="20" x2="195" y2="27" stroke-width="2" stroke="black"></line><line x1="202" y1="20" x2="209" y2="27" stroke-width="2" stroke="black"></line><line x1="382" y1="250" x2="382" y2="230" stroke-width="2" stroke="black"></line><line x1="382" y1="230" x2="375" y2="237" stroke-width="2" stroke="black"></line><line x1="382" y1="230" x2="389" y2="237" stroke-width="2" stroke="black"></line><rect width="20" height="50" x="352" y="60" style="stroke: #000; stroke-width: 1; fill: none;"></rect><line x1="382" y1="70" x2="372" y2="70" stroke-width="2" stroke="black"></line><text x="370" y="70" font-size="10" font-family="sans-serif" text-anchor="end" alignment-baseline="middle">1</text><line x1="382" y1="80" x2="372" y2="80" stroke-width="2" stroke="black"></line><text x="370" y="80" font-size="10" font-family="sans-serif" text-anchor="end" alignment-baseline="middle">2</text><line x1="382" y1="90" x2="372" y2="90" stroke-width="2" stroke="black"></line><text x="370" y="90" font-size="10" font-family="sans-serif" text-anchor="end" alignment-baseline="middle">3</text><line x1="382" y1="100" x2="372" y2="100" stroke-width="2" stroke="black"></line><text x="370" y="100" font-size="10" font-family="sans-serif" text-anchor="end" alignment-baseline="middle">4</text><line x1="222" y1="390" x2="222" y2="400" stroke-width="2" stroke="black"></line><line x1="212" y1="400" x2="232" y2="400" stroke-width="2" stroke="black"></line><line x1="215" y1="405" x2="229" y2="405" stroke-width="2" stroke="black"></line><line x1="218" y1="410" x2="226" y2="410" stroke-width="2" stroke="black"></line><line x1="349" y1="337" x2="355" y2="343" stroke-width="2" stroke="black"></line><line x1="349" y1="343" x2="355" y2="337" stroke-width="2" stroke="black"></line><line x1="402" y1="130" x2="402" y2="140" stroke-width="2" stroke="black"></line><line x1="392" y1="140" x2="412" y2="140" stroke-width="2" stroke="black"></line><line x1="395" y1="145" x2="409" y2="145" stroke-width="2" stroke="black"></line><line x1="398" y1="150" x2="406" y2="150" stroke-width="2" stroke="black"></line><line x1="202" y1="130" x2="202" y2="140" stroke-width="2" stroke="black"></line><line x1="192" y1="140" x2="212" y2="140" stroke-width="2" stroke="black"></line><line x1="195" y1="145" x2="209" y2="145" stroke-width="2" stroke="black"></line><line x1="198" y1="150" x2="206" y2="150" stroke-width="2" stroke="black"></line><rect width="20" height="50" x="252" y="60" style="stroke: #000; stroke-width: 1; fill: none;"></rect><line x1="282" y1="70" x2="272" y2="70" stroke-width="2" stroke="black"></line><text x="270" y="70" font-size="10" font-family="sans-serif" text-anchor="end" alignment-baseline="middle">1</text><line x1="282" y1="80" x2="272" y2="80" stroke-width="2" stroke="black"></line><text x="270" y="80" font-size="10" font-family="sans-serif" text-anchor="end" alignment-baseline="middle">2</text><line x1="282" y1="90" x2="272" y2="90" stroke-width="2" stroke="black"></line><text x="270" y="90" font-size="10" font-family="sans-serif" text-anchor="end" alignment-baseline="middle">3</text><line x1="282" y1="100" x2="272" y2="100" stroke-width="2" stroke="black"></line><text x="270" y="100" font-size="10" font-family="sans-serif" text-anchor="end" alignment-baseline="middle">4</text><path d="M212,326 C 217,320 227,320 232,326" style="stroke: #000; stroke-width: 1; fill: none;"></path><line x1="212" y1="318" x2="232" y2="318" stroke-width="2" stroke="black"></line><line x1="222" y1="330" x2="222" y2="322" stroke-width="2" stroke="black"></line><line x1="222" y1="318" x2="222" y2="310" stroke-width="2" stroke="black"></line><line x1="349" y1="297" x2="355" y2="303" stroke-width="2" stroke="black"></line><line x1="349" y1="303" x2="355" y2="297" stroke-width="2" stroke="black"></line><line x1="382" y1="390" x2="382" y2="400" stroke-width="2" stroke="black"></line><line x1="372" y1="400" x2="392" y2="400" stroke-width="2" stroke="black"></line><line x1="375" y1="405" x2="389" y2="405" stroke-width="2" stroke="black"></line><line x1="378" y1="410" x2="386" y2="410" stroke-width="2" stroke="black"></line><rect width="20" height="30" x="152" y="70" style="stroke: #000; stroke-width: 1; fill: none;"></rect><line x1="182" y1="80" x2="172" y2="80" stroke-width="2" stroke="black"></line><text x="170" y="80" font-size="10" font-family="sans-serif" text-anchor="end" alignment-baseline="middle">1</text><line x1="182" y1="90" x2="172" y2="90" stroke-width="2" stroke="black"></line><text x="170" y="90" font-size="10" font-family="sans-serif" text-anchor="end" alignment-baseline="middle">2</text><line x1="302" y1="130" x2="302" y2="140" stroke-width="2" stroke="black"></line><line x1="292" y1="140" x2="312" y2="140" stroke-width="2" stroke="black"></line><line x1="295" y1="145" x2="309" y2="145" stroke-width="2" stroke="black"></line><line x1="298" y1="150" x2="306" y2="150" stroke-width="2" stroke="black"></line><circle cx="402" cy="70" r="2" style="stroke: #000; stroke-width: 1; fill: none;"></circle><circle cx="302" cy="100" r="2" style="stroke: #000; stroke-width: 1; fill: none;"></circle><circle cx="382" cy="280" r="2" style="stroke: #000; stroke-width: 1; fill: none;"></circle><circle cx="302" cy="70" r="2" style="stroke: #000; stroke-width: 1; fill: none;"></circle><circle cx="402" cy="100" r="2" style="stroke: #000; stroke-width: 1; fill: none;"></circle><line x1="302" y1="100" x2="282" y2="100" stroke-width="2" stroke="black"></line><line x1="282" y1="80" x2="302" y2="80" stroke-width="2" stroke="black"></line><line x1="222" y1="300" x2="262" y2="300" stroke-width="2" stroke="black"></line><line x1="382" y1="280" x2="382" y2="310" stroke-width="2" stroke="black"></line><line x1="352" y1="340" x2="342" y2="340" stroke-width="2" stroke="black"></line><line x1="222" y1="310" x2="222" y2="300" stroke-width="2" stroke="black"></line><line x1="402" y1="80" x2="402" y2="70" stroke-width="2" stroke="black"></line><line x1="382" y1="250" x2="382" y2="280" stroke-width="2" stroke="black"></line><line x1="222" y1="280" x2="222" y2="250" stroke-width="2" stroke="black"></line><line x1="222" y1="280" x2="262" y2="280" stroke-width="2" stroke="black"></line><line x1="402" y1="90" x2="382" y2="90" stroke-width="2" stroke="black"></line><line x1="182" y1="80" x2="202" y2="80" stroke-width="2" stroke="black"></line><line x1="202" y1="40" x2="202" y2="80" stroke-width="2" stroke="black"></line><line x1="222" y1="360" x2="222" y2="390" stroke-width="2" stroke="black"></line><line x1="302" y1="70" x2="282" y2="70" stroke-width="2" stroke="black"></line><line x1="302" y1="70" x2="302" y2="40" stroke-width="2" stroke="black"></line><line x1="302" y1="70" x2="302" y2="80" stroke-width="2" stroke="black"></line><line x1="382" y1="360" x2="382" y2="330" stroke-width="2" stroke="black"></line><line x1="382" y1="80" x2="402" y2="80" stroke-width="2" stroke="black"></line><line x1="222" y1="340" x2="222" y2="330" stroke-width="2" stroke="black"></line><line x1="222" y1="340" x2="262" y2="340" stroke-width="2" stroke="black"></line><line x1="262" y1="360" x2="222" y2="360" stroke-width="2" stroke="black"></line><line x1="342" y1="280" x2="382" y2="280" stroke-width="2" stroke="black"></line><line x1="342" y1="300" x2="352" y2="300" stroke-width="2" stroke="black"></line><line x1="402" y1="100" x2="382" y2="100" stroke-width="2" stroke="black"></line><line x1="402" y1="100" x2="402" y2="130" stroke-width="2" stroke="black"></line><line x1="402" y1="100" x2="402" y2="90" stroke-width="2" stroke="black"></line><line x1="382" y1="390" x2="382" y2="360" stroke-width="2" stroke="black"></line><line x1="302" y1="130" x2="302" y2="100" stroke-width="2" stroke="black"></line><line x1="302" y1="90" x2="282" y2="90" stroke-width="2" stroke="black"></line><line x1="302" y1="90" x2="302" y2="100" stroke-width="2" stroke="black"></line><line x1="402" y1="40" x2="402" y2="70" stroke-width="2" stroke="black"></line><line x1="202" y1="90" x2="182" y2="90" stroke-width="2" stroke="black"></line><line x1="202" y1="90" x2="202" y2="130" stroke-width="2" stroke="black"></line><line x1="382" y1="70" x2="402" y2="70" stroke-width="2" stroke="black"></line></svg>