%FSLAX33Y33*%
%MOMM*%
%AMRect-W670710-H1320710-RO1.000*
21,1,0.67071,1.32071,0.,0.,180*%
%ADD10Rect-W670710-H1320710-RO1.000*%
%ADD11R,1.5X1.5*%
%ADD12C,1.5*%
%ADD13R,1.75X1.75*%
%ADD14C,1.75*%
D10*
%LNbottom solder mask_traces*%
%LNbottom solder mask component 1fd03bca117f9aec*%
G01*
X11550Y32546D03*
X9450Y32546D03*
%LNbottom solder mask component b5b981657f2f8731*%
D11*
X6800Y12486D03*
D12*
X6800Y7986D03*
X13300Y7986D03*
X13300Y12486D03*
%LNbottom solder mask component fb49618feed99df2*%
D11*
X6800Y32596D03*
D12*
X6800Y28096D03*
X13300Y28096D03*
X13300Y32596D03*
%LNbottom solder mask component 48f42d382d4c7276*%
D10*
X11550Y5746D03*
X9450Y5746D03*
%LNbottom solder mask component 71733dfa736b678a*%
D11*
X6800Y5786D03*
D12*
X6800Y1286D03*
X13300Y1286D03*
X13300Y5786D03*
%LNbottom solder mask component 23d714dbf6837599*%
D10*
X11550Y19146D03*
X9450Y19146D03*
%LNbottom solder mask component 145f1bd0c0621054*%
X11550Y25821D03*
X9450Y25821D03*
%LNbottom solder mask component 5d6e294dc6e30267*%
X11550Y12446D03*
X9450Y12446D03*
%LNbottom solder mask component 144fe9a21d20c8f6*%
D11*
X6800Y19186D03*
D12*
X6800Y14686D03*
X13300Y14686D03*
X13300Y19186D03*
%LNbottom solder mask component 37417e4259248a20*%
D13*
X16085Y30896D03*
D14*
X16085Y28356D03*
X16085Y25816D03*
X16085Y23276D03*
X16085Y20736D03*
X16085Y18196D03*
X16085Y15656D03*
X16085Y13116D03*
X16085Y10576D03*
X16085Y8036D03*
X16085Y5496D03*
X16085Y2956D03*
%LNbottom solder mask component e1d5e43d5734db6b*%
D13*
X3990Y30896D03*
D14*
X3990Y28356D03*
X3990Y25816D03*
X3990Y23276D03*
X3990Y20736D03*
X3990Y18196D03*
X3990Y15656D03*
X3990Y13116D03*
X3990Y10576D03*
X3990Y8036D03*
X3990Y5496D03*
X3990Y2956D03*
%LNbottom solder mask component 6d5c9a98175d7d20*%
D11*
X6800Y25886D03*
D12*
X6800Y21386D03*
X13300Y21386D03*
X13300Y25886D03*
M02*