%FSLAX33Y33*%
%MOMM*%
%ADD10C,0.25*%
%ADD11R,1.5X1.5*%
%ADD12C,1.5*%
%ADD13R,1.75X1.75*%
%ADD14C,1.75*%
D10*
%LNtop copper_traces*%
G01*
X5400Y3650D02*
X14700Y3650D01*
X8561Y10750D02*
X14180Y10750D01*
X3700Y25670D02*
X6484Y25670D01*
X7950Y18050D02*
X16400Y18050D01*
X6750Y25936D02*
X8486Y24200D01*
X14930Y24200*
X3700Y7890D02*
X5740Y5850D01*
X6750Y19250D02*
X7950Y18050D01*
X3700Y18050D02*
X5550Y18050D01*
X14180Y10750D02*
X16400Y12970D01*
X6750Y5850D02*
X10425Y9525D01*
X16400Y5350D02*
X14700Y3650D01*
X6750Y12561D02*
X8561Y10750D01*
X5550Y18050D02*
X6750Y19250D01*
X3700Y12970D02*
X6330Y12970D01*
X5400Y3650D02*
X3700Y5350D01*
X6484Y25670D02*
X6750Y25936D01*
X5740Y5850D02*
X6750Y5850D01*
X10425Y9525D02*
X14765Y9525D01*
X6330Y12970D02*
X6750Y12550D01*
X14930Y24200D02*
X16400Y25670D01*
X14765Y9525D02*
X16400Y7890D01*
X6650Y32660D02*
X8460Y30850D01*
X16300Y30850*
%LNtop copper component b5b981657f2f8731*%
D11*
X6750Y12550D03*
D12*
X6750Y8050D03*
X13250Y8050D03*
X13250Y12550D03*
%LNtop copper component fb49618feed99df2*%
D11*
X6750Y32660D03*
D12*
X6750Y28160D03*
X13250Y28160D03*
X13250Y32660D03*
%LNtop copper component 71733dfa736b678a*%
D11*
X6750Y5850D03*
D12*
X6750Y1350D03*
X13250Y1350D03*
X13250Y5850D03*
%LNtop copper component 144fe9a21d20c8f6*%
D11*
X6750Y19250D03*
D12*
X6750Y14750D03*
X13250Y14750D03*
X13250Y19250D03*
%LNtop copper component 37417e4259248a20*%
D13*
X16400Y30750D03*
D14*
X16400Y28210D03*
X16400Y25670D03*
X16400Y23130D03*
X16400Y20590D03*
X16400Y18050D03*
X16400Y15510D03*
X16400Y12970D03*
X16400Y10430D03*
X16400Y7890D03*
X16400Y5350D03*
X16400Y2810D03*
%LNtop copper component e1d5e43d5734db6b*%
D13*
X3700Y30750D03*
D14*
X3700Y28210D03*
X3700Y25670D03*
X3700Y23130D03*
X3700Y20590D03*
X3700Y18050D03*
X3700Y15510D03*
X3700Y12970D03*
X3700Y10430D03*
X3700Y7890D03*
X3700Y5350D03*
X3700Y2810D03*
%LNtop copper component 6d5c9a98175d7d20*%
D11*
X6750Y25950D03*
D12*
X6750Y21450D03*
X13250Y21450D03*
X13250Y25950D03*
M02*