%FSLAX33Y33*%
%MOMM*%
%ADD10C,0.15*%
%ADD11C,0.2032*%
%ADD12C,0.5*%
D10*
%LNtop silkscreen_traces*%
%LNtop silkscreen component b5b981657f2f8731*%
G01*
X5925Y7035D02*
X5925Y13437D01*
X14175Y13437*
X14175Y7035*
X5925Y7035*
D11*
X9292Y9877D02*
X9292Y9877D01*
X9328Y9883*
X9361Y9891*
X9393Y9904*
X9422Y9919*
X9447Y9937*
X9469Y9958*
X9487Y9982*
X9501Y10008*
X9511Y10034*
X9517Y10061*
X9519Y10089*
X9517Y10117*
X9512Y10143*
X9503Y10168*
X9490Y10191*
X9473Y10212*
X9452Y10231*
X9427Y10248*
X9397Y10264*
X9371Y10274*
X9336Y10285*
X9292Y10297*
X9239Y10309*
X9239Y10309*
X9187Y10322*
X9187Y10322*
X9146Y10335*
X9146Y10335*
X9115Y10348*
X9115Y10348*
X9096Y10360*
X9096Y10360*
X9084Y10374*
X9084Y10374*
X9075Y10389*
X9075Y10389*
X9070Y10406*
X9070Y10406*
X9068Y10424*
X9068Y10424*
X9071Y10446*
X9071Y10446*
X9078Y10466*
X9078Y10466*
X9090Y10484*
X9090Y10484*
X9108Y10501*
X9108Y10501*
X9130Y10514*
X9130Y10514*
X9159Y10524*
X9159Y10524*
X9193Y10530*
X9193Y10530*
X9233Y10532*
X9233Y10532*
X9272Y10530*
X9272Y10530*
X9306Y10524*
X9306Y10524*
X9334Y10513*
X9334Y10513*
X9358Y10497*
X9358Y10497*
X9377Y10478*
X9377Y10478*
X9392Y10454*
X9392Y10454*
X9402Y10427*
X9402Y10426*
X9408Y10395*
X9498Y10402*
X9495Y10432*
X9488Y10461*
X9477Y10488*
X9463Y10514*
X9445Y10537*
X9423Y10558*
X9398Y10575*
X9369Y10589*
X9338Y10600*
X9304Y10608*
X9268Y10613*
X9229Y10615*
X9194Y10613*
X9160Y10609*
X9128Y10601*
X9098Y10590*
X9070Y10577*
X9046Y10560*
X9026Y10541*
X9008Y10519*
X8995Y10495*
X8985Y10470*
X8980Y10445*
X8978Y10418*
X8979Y10394*
X8984Y10371*
X8992Y10350*
X9003Y10329*
X9017Y10310*
X9034Y10293*
X9055Y10277*
X9079Y10263*
X9102Y10252*
X9133Y10241*
X9172Y10230*
X9217Y10218*
X9262Y10207*
X9262Y10207*
X9298Y10197*
X9298Y10197*
X9326Y10189*
X9326Y10189*
X9345Y10183*
X9345Y10183*
X9366Y10174*
X9366Y10174*
X9383Y10164*
X9383Y10164*
X9398Y10153*
X9398Y10153*
X9409Y10141*
X9409Y10141*
X9418Y10128*
X9418Y10127*
X9424Y10113*
X9424Y10113*
X9428Y10098*
X9428Y10098*
X9429Y10082*
X9429Y10082*
X9428Y10065*
X9428Y10065*
X9424Y10049*
X9424Y10049*
X9417Y10034*
X9417Y10034*
X9409Y10020*
X9409Y10020*
X9397Y10007*
X9397Y10007*
X9383Y9995*
X9383Y9995*
X9366Y9984*
X9366Y9984*
X9347Y9976*
X9347Y9976*
X9325Y9969*
X9325Y9969*
X9302Y9963*
X9302Y9963*
X9277Y9960*
X9277Y9960*
X9251Y9959*
X9251Y9959*
X9221Y9961*
X9221Y9961*
X9193Y9965*
X9193Y9965*
X9166Y9971*
X9166Y9971*
X9141Y9981*
X9141Y9981*
X9118Y9992*
X9118Y9992*
X9098Y10005*
X9098Y10005*
X9082Y10020*
X9082Y10020*
X9068Y10037*
X9068Y10037*
X9058Y10055*
X9058Y10055*
X9049Y10076*
X9049Y10076*
X9043Y10099*
X9043Y10099*
X9039Y10124*
X8950Y10117*
X8954Y10082*
X8961Y10049*
X8973Y10018*
X8990Y9989*
X9010Y9962*
X9034Y9939*
X9061Y9920*
X9092Y9904*
X9127Y9891*
X9166Y9883*
X9209Y9877*
X9255Y9876*
X9292Y9877*
X10504Y10603D02*
X10504Y10603D01*
X10410Y10603*
X10298Y10143*
X10298Y10143*
X10287Y10100*
X10278Y10060*
X10269Y10022*
X10262Y9987*
X10261Y9987*
X10251Y10048*
X10239Y10110*
X10223Y10174*
X10205Y10241*
X10103Y10603*
X9989Y10603*
X9853Y10119*
X9849Y10105*
X9843Y10078*
X9833Y10038*
X9821Y9987*
X9820Y9987*
X9813Y10024*
X9806Y10060*
X9798Y10097*
X9790Y10134*
X9681Y10603*
X9585Y10603*
X9775Y9888*
X9870Y9888*
X10022Y10433*
X10027Y10451*
X10032Y10471*
X10038Y10493*
X10043Y10517*
X10044Y10517*
X10047Y10506*
X10052Y10488*
X10058Y10464*
X10067Y10433*
X10067Y10433*
X10217Y9888*
X10308Y9888*
X10504Y10603*
X10927Y10059D02*
X10927Y10059D01*
X10927Y10059*
X11023Y10059*
X11023Y10139*
X10927Y10139*
X10927Y10139*
X10927Y10603*
X10855Y10603*
X10529Y10139*
X10529Y10059*
X10839Y10059*
X10840Y10059*
X10840Y9888*
X10927Y9888*
X10927Y10059*
X10839Y10460D02*
X10839Y10460D01*
X10616Y10140*
X10839Y10140*
X10839Y10460*
D12*
X5425Y12486D03*
%LNtop silkscreen component fb49618feed99df2*%
D10*
X5925Y27145D02*
X5925Y33547D01*
X14175Y33547*
X14175Y27145*
X5925Y27145*
D11*
X9292Y29977D02*
X9292Y29977D01*
X9328Y29983*
X9361Y29991*
X9393Y30004*
X9422Y30019*
X9447Y30037*
X9469Y30058*
X9487Y30082*
X9501Y30108*
X9511Y30134*
X9517Y30161*
X9519Y30189*
X9517Y30217*
X9512Y30243*
X9503Y30268*
X9490Y30291*
X9473Y30312*
X9452Y30331*
X9427Y30348*
X9397Y30364*
X9371Y30374*
X9336Y30385*
X9292Y30397*
X9239Y30409*
X9239Y30409*
X9187Y30422*
X9187Y30422*
X9146Y30435*
X9146Y30435*
X9115Y30448*
X9115Y30448*
X9096Y30460*
X9096Y30460*
X9084Y30474*
X9084Y30474*
X9075Y30489*
X9075Y30489*
X9070Y30506*
X9070Y30506*
X9068Y30524*
X9068Y30524*
X9071Y30546*
X9071Y30546*
X9078Y30566*
X9078Y30566*
X9090Y30584*
X9090Y30584*
X9108Y30601*
X9108Y30601*
X9130Y30614*
X9130Y30614*
X9159Y30624*
X9159Y30624*
X9193Y30630*
X9193Y30630*
X9233Y30632*
X9233Y30632*
X9272Y30630*
X9272Y30630*
X9306Y30624*
X9306Y30624*
X9334Y30613*
X9334Y30613*
X9358Y30597*
X9358Y30597*
X9377Y30578*
X9377Y30578*
X9392Y30554*
X9392Y30554*
X9402Y30527*
X9402Y30526*
X9408Y30495*
X9498Y30502*
X9495Y30532*
X9488Y30561*
X9477Y30588*
X9463Y30614*
X9445Y30637*
X9423Y30658*
X9398Y30675*
X9369Y30689*
X9338Y30700*
X9304Y30708*
X9268Y30713*
X9229Y30715*
X9194Y30713*
X9160Y30709*
X9128Y30701*
X9098Y30690*
X9070Y30677*
X9046Y30660*
X9026Y30641*
X9008Y30619*
X8995Y30595*
X8985Y30570*
X8980Y30545*
X8978Y30518*
X8979Y30494*
X8984Y30471*
X8992Y30450*
X9003Y30429*
X9017Y30410*
X9034Y30393*
X9055Y30377*
X9079Y30363*
X9102Y30352*
X9133Y30341*
X9172Y30330*
X9217Y30318*
X9262Y30307*
X9262Y30307*
X9298Y30297*
X9298Y30297*
X9326Y30289*
X9326Y30289*
X9345Y30283*
X9345Y30283*
X9366Y30274*
X9366Y30274*
X9383Y30264*
X9383Y30264*
X9398Y30253*
X9398Y30253*
X9409Y30241*
X9409Y30241*
X9418Y30228*
X9418Y30227*
X9424Y30213*
X9424Y30213*
X9428Y30198*
X9428Y30198*
X9429Y30182*
X9429Y30182*
X9428Y30165*
X9428Y30165*
X9424Y30149*
X9424Y30149*
X9417Y30134*
X9417Y30134*
X9409Y30120*
X9409Y30120*
X9397Y30107*
X9397Y30107*
X9383Y30095*
X9383Y30095*
X9366Y30084*
X9366Y30084*
X9347Y30076*
X9347Y30076*
X9325Y30069*
X9325Y30069*
X9302Y30063*
X9302Y30063*
X9277Y30060*
X9277Y30060*
X9251Y30059*
X9251Y30059*
X9221Y30061*
X9221Y30061*
X9193Y30065*
X9193Y30065*
X9166Y30071*
X9166Y30071*
X9141Y30081*
X9141Y30081*
X9118Y30092*
X9118Y30092*
X9098Y30105*
X9098Y30105*
X9082Y30120*
X9082Y30120*
X9068Y30137*
X9068Y30137*
X9058Y30155*
X9058Y30155*
X9049Y30176*
X9049Y30176*
X9043Y30199*
X9043Y30199*
X9039Y30224*
X8950Y30217*
X8954Y30182*
X8961Y30149*
X8973Y30118*
X8990Y30089*
X9010Y30062*
X9034Y30039*
X9061Y30020*
X9092Y30004*
X9127Y29991*
X9166Y29983*
X9209Y29977*
X9255Y29976*
X9292Y29977*
X10504Y30703D02*
X10504Y30703D01*
X10410Y30703*
X10298Y30243*
X10298Y30243*
X10287Y30200*
X10278Y30160*
X10269Y30122*
X10262Y30087*
X10261Y30087*
X10251Y30148*
X10239Y30210*
X10223Y30274*
X10205Y30341*
X10103Y30703*
X9989Y30703*
X9853Y30219*
X9849Y30205*
X9843Y30178*
X9833Y30138*
X9821Y30087*
X9820Y30087*
X9813Y30124*
X9806Y30160*
X9798Y30197*
X9790Y30234*
X9681Y30703*
X9585Y30703*
X9775Y29988*
X9870Y29988*
X10022Y30533*
X10027Y30551*
X10032Y30571*
X10038Y30593*
X10043Y30617*
X10044Y30617*
X10047Y30606*
X10052Y30588*
X10058Y30564*
X10067Y30533*
X10067Y30533*
X10217Y29988*
X10308Y29988*
X10504Y30703*
X10888Y30705D02*
X10888Y30705D01*
X10832Y30705*
X10819Y30682*
X10819Y30682*
X10801Y30659*
X10801Y30659*
X10780Y30634*
X10780Y30634*
X10754Y30610*
X10754Y30610*
X10725Y30586*
X10725Y30586*
X10694Y30564*
X10694Y30564*
X10661Y30544*
X10661Y30544*
X10625Y30526*
X10625Y30442*
X10646Y30450*
X10668Y30461*
X10692Y30473*
X10717Y30487*
X10742Y30502*
X10764Y30517*
X10783Y30533*
X10800Y30548*
X10801Y30548*
X10801Y29988*
X10888Y29988*
X10888Y30705*
D12*
X5425Y32596D03*
%LNtop silkscreen component 71733dfa736b678a*%
D10*
X5925Y0335D02*
X5925Y6737D01*
X14175Y6737*
X14175Y0335*
X5925Y0335*
D11*
X9292Y3177D02*
X9292Y3177D01*
X9328Y3183*
X9361Y3191*
X9393Y3204*
X9422Y3219*
X9447Y3237*
X9469Y3258*
X9487Y3282*
X9501Y3308*
X9511Y3334*
X9517Y3361*
X9519Y3389*
X9517Y3417*
X9512Y3443*
X9503Y3468*
X9490Y3491*
X9473Y3512*
X9452Y3531*
X9427Y3548*
X9397Y3564*
X9371Y3574*
X9336Y3585*
X9292Y3597*
X9239Y3609*
X9239Y3609*
X9187Y3622*
X9187Y3622*
X9146Y3635*
X9146Y3635*
X9115Y3648*
X9115Y3648*
X9096Y3660*
X9096Y3660*
X9084Y3674*
X9084Y3674*
X9075Y3689*
X9075Y3689*
X9070Y3706*
X9070Y3706*
X9068Y3724*
X9068Y3724*
X9071Y3746*
X9071Y3746*
X9078Y3766*
X9078Y3766*
X9090Y3784*
X9090Y3784*
X9108Y3801*
X9108Y3801*
X9130Y3814*
X9130Y3814*
X9159Y3824*
X9159Y3824*
X9193Y3830*
X9193Y3830*
X9233Y3832*
X9233Y3832*
X9272Y3830*
X9272Y3830*
X9306Y3824*
X9306Y3824*
X9334Y3813*
X9334Y3813*
X9358Y3797*
X9358Y3797*
X9377Y3778*
X9377Y3778*
X9392Y3754*
X9392Y3754*
X9402Y3727*
X9402Y3726*
X9408Y3695*
X9498Y3702*
X9495Y3732*
X9488Y3761*
X9477Y3788*
X9463Y3814*
X9445Y3837*
X9423Y3858*
X9398Y3875*
X9369Y3889*
X9338Y3900*
X9304Y3908*
X9268Y3913*
X9229Y3915*
X9194Y3913*
X9160Y3909*
X9128Y3901*
X9098Y3890*
X9070Y3877*
X9046Y3860*
X9026Y3841*
X9008Y3819*
X8995Y3795*
X8985Y3770*
X8980Y3745*
X8978Y3718*
X8979Y3694*
X8984Y3671*
X8992Y3650*
X9003Y3629*
X9017Y3610*
X9034Y3593*
X9055Y3577*
X9079Y3563*
X9102Y3552*
X9133Y3541*
X9172Y3530*
X9217Y3518*
X9262Y3507*
X9262Y3507*
X9298Y3497*
X9298Y3497*
X9326Y3489*
X9326Y3489*
X9345Y3483*
X9345Y3483*
X9366Y3474*
X9366Y3474*
X9383Y3464*
X9383Y3464*
X9398Y3453*
X9398Y3453*
X9409Y3441*
X9409Y3441*
X9418Y3428*
X9418Y3427*
X9424Y3413*
X9424Y3413*
X9428Y3398*
X9428Y3398*
X9429Y3382*
X9429Y3382*
X9428Y3365*
X9428Y3365*
X9424Y3349*
X9424Y3349*
X9417Y3334*
X9417Y3334*
X9409Y3320*
X9409Y3320*
X9397Y3307*
X9397Y3307*
X9383Y3295*
X9383Y3295*
X9366Y3284*
X9366Y3284*
X9347Y3276*
X9347Y3276*
X9325Y3269*
X9325Y3269*
X9302Y3263*
X9302Y3263*
X9277Y3260*
X9277Y3260*
X9251Y3259*
X9251Y3259*
X9221Y3261*
X9221Y3261*
X9193Y3265*
X9193Y3265*
X9166Y3271*
X9166Y3271*
X9141Y3281*
X9141Y3281*
X9118Y3292*
X9118Y3292*
X9098Y3305*
X9098Y3305*
X9082Y3320*
X9082Y3320*
X9068Y3337*
X9068Y3337*
X9058Y3355*
X9058Y3355*
X9049Y3376*
X9049Y3376*
X9043Y3399*
X9043Y3399*
X9039Y3424*
X8950Y3417*
X8954Y3382*
X8961Y3349*
X8973Y3318*
X8990Y3289*
X9010Y3262*
X9034Y3239*
X9061Y3220*
X9092Y3204*
X9127Y3191*
X9166Y3183*
X9209Y3177*
X9255Y3176*
X9292Y3177*
X10504Y3903D02*
X10504Y3903D01*
X10410Y3903*
X10298Y3443*
X10298Y3443*
X10287Y3400*
X10278Y3360*
X10269Y3322*
X10262Y3287*
X10261Y3287*
X10251Y3348*
X10239Y3410*
X10223Y3474*
X10205Y3541*
X10103Y3903*
X9989Y3903*
X9853Y3419*
X9849Y3405*
X9843Y3378*
X9833Y3338*
X9821Y3287*
X9820Y3287*
X9813Y3324*
X9806Y3360*
X9798Y3397*
X9790Y3434*
X9681Y3903*
X9585Y3903*
X9775Y3188*
X9870Y3188*
X10022Y3733*
X10027Y3751*
X10032Y3771*
X10038Y3793*
X10043Y3817*
X10044Y3817*
X10047Y3806*
X10052Y3788*
X10058Y3764*
X10067Y3733*
X10067Y3733*
X10217Y3188*
X10308Y3188*
X10504Y3903*
X10844Y3181D02*
X10844Y3181D01*
X10894Y3197*
X10937Y3224*
X10975Y3262*
X11000Y3299*
X11017Y3339*
X11028Y3383*
X11031Y3430*
X11027Y3478*
X11015Y3522*
X10995Y3562*
X10967Y3597*
X10933Y3625*
X10896Y3645*
X10854Y3657*
X10809Y3661*
X10774Y3658*
X10740Y3650*
X10707Y3636*
X10674Y3616*
X10674Y3617*
X10712Y3810*
X10712Y3810*
X10998Y3810*
X10998Y3893*
X10643Y3893*
X10574Y3526*
X10655Y3515*
X10666Y3530*
X10666Y3530*
X10678Y3543*
X10678Y3543*
X10693Y3555*
X10693Y3555*
X10709Y3565*
X10709Y3565*
X10727Y3574*
X10727Y3574*
X10745Y3580*
X10745Y3580*
X10765Y3583*
X10765Y3583*
X10786Y3585*
X10786Y3585*
X10819Y3582*
X10819Y3582*
X10848Y3574*
X10848Y3574*
X10874Y3560*
X10874Y3560*
X10897Y3541*
X10897Y3541*
X10915Y3517*
X10915Y3517*
X10929Y3490*
X10929Y3489*
X10937Y3458*
X10937Y3458*
X10939Y3422*
X10939Y3422*
X10936Y3384*
X10936Y3384*
X10928Y3351*
X10928Y3351*
X10914Y3321*
X10914Y3321*
X10895Y3295*
X10895Y3295*
X10872Y3274*
X10872Y3274*
X10846Y3259*
X10846Y3259*
X10818Y3250*
X10818Y3250*
X10787Y3247*
X10787Y3247*
X10762Y3249*
X10762Y3249*
X10738Y3255*
X10738Y3255*
X10717Y3266*
X10717Y3266*
X10697Y3281*
X10697Y3281*
X10680Y3300*
X10680Y3300*
X10666Y3323*
X10666Y3323*
X10656Y3351*
X10656Y3351*
X10649Y3382*
X10558Y3374*
X10566Y3332*
X10580Y3294*
X10601Y3260*
X10628Y3230*
X10661Y3206*
X10699Y3189*
X10741Y3179*
X10787Y3176*
X10844Y3181*
D12*
X5425Y5786D03*
%LNtop silkscreen component 144fe9a21d20c8f6*%
D10*
X5925Y13735D02*
X5925Y20137D01*
X14175Y20137*
X14175Y13735*
X5925Y13735*
D11*
X9292Y16527D02*
X9292Y16527D01*
X9328Y16533*
X9361Y16541*
X9393Y16554*
X9422Y16569*
X9447Y16587*
X9469Y16608*
X9487Y16632*
X9501Y16658*
X9511Y16684*
X9517Y16711*
X9519Y16739*
X9517Y16767*
X9512Y16793*
X9503Y16818*
X9490Y16841*
X9473Y16862*
X9452Y16881*
X9427Y16898*
X9397Y16914*
X9371Y16924*
X9336Y16935*
X9292Y16947*
X9239Y16959*
X9239Y16959*
X9187Y16972*
X9187Y16972*
X9146Y16985*
X9146Y16985*
X9115Y16998*
X9115Y16998*
X9096Y17010*
X9096Y17010*
X9084Y17024*
X9084Y17024*
X9075Y17039*
X9075Y17039*
X9070Y17056*
X9070Y17056*
X9068Y17074*
X9068Y17074*
X9071Y17096*
X9071Y17096*
X9078Y17116*
X9078Y17116*
X9090Y17134*
X9090Y17134*
X9108Y17151*
X9108Y17151*
X9130Y17164*
X9130Y17164*
X9159Y17174*
X9159Y17174*
X9193Y17180*
X9193Y17180*
X9233Y17182*
X9233Y17182*
X9272Y17180*
X9272Y17180*
X9306Y17174*
X9306Y17174*
X9334Y17163*
X9334Y17163*
X9358Y17147*
X9358Y17147*
X9377Y17128*
X9377Y17128*
X9392Y17104*
X9392Y17104*
X9402Y17077*
X9402Y17076*
X9408Y17045*
X9498Y17052*
X9495Y17082*
X9488Y17111*
X9477Y17138*
X9463Y17164*
X9445Y17187*
X9423Y17208*
X9398Y17225*
X9369Y17239*
X9338Y17250*
X9304Y17258*
X9268Y17263*
X9229Y17265*
X9194Y17263*
X9160Y17259*
X9128Y17251*
X9098Y17240*
X9070Y17227*
X9046Y17210*
X9026Y17191*
X9008Y17169*
X8995Y17145*
X8985Y17120*
X8980Y17095*
X8978Y17068*
X8979Y17044*
X8984Y17021*
X8992Y17000*
X9003Y16979*
X9017Y16960*
X9034Y16943*
X9055Y16927*
X9079Y16913*
X9102Y16902*
X9133Y16891*
X9172Y16880*
X9217Y16868*
X9262Y16857*
X9262Y16857*
X9298Y16847*
X9298Y16847*
X9326Y16839*
X9326Y16839*
X9345Y16833*
X9345Y16833*
X9366Y16824*
X9366Y16824*
X9383Y16814*
X9383Y16814*
X9398Y16803*
X9398Y16803*
X9409Y16791*
X9409Y16791*
X9418Y16778*
X9418Y16777*
X9424Y16763*
X9424Y16763*
X9428Y16748*
X9428Y16748*
X9429Y16732*
X9429Y16732*
X9428Y16715*
X9428Y16715*
X9424Y16699*
X9424Y16699*
X9417Y16684*
X9417Y16684*
X9409Y16670*
X9409Y16670*
X9397Y16657*
X9397Y16657*
X9383Y16645*
X9383Y16645*
X9366Y16634*
X9366Y16634*
X9347Y16626*
X9347Y16626*
X9325Y16619*
X9325Y16619*
X9302Y16613*
X9302Y16613*
X9277Y16610*
X9277Y16610*
X9251Y16609*
X9251Y16609*
X9221Y16611*
X9221Y16611*
X9193Y16615*
X9193Y16615*
X9166Y16621*
X9166Y16621*
X9141Y16631*
X9141Y16631*
X9118Y16642*
X9118Y16642*
X9098Y16655*
X9098Y16655*
X9082Y16670*
X9082Y16670*
X9068Y16687*
X9068Y16687*
X9058Y16705*
X9058Y16705*
X9049Y16726*
X9049Y16726*
X9043Y16749*
X9043Y16749*
X9039Y16774*
X8950Y16767*
X8954Y16732*
X8961Y16699*
X8973Y16668*
X8990Y16639*
X9010Y16612*
X9034Y16589*
X9061Y16570*
X9092Y16554*
X9127Y16541*
X9166Y16533*
X9209Y16527*
X9255Y16526*
X9292Y16527*
X10504Y17253D02*
X10504Y17253D01*
X10410Y17253*
X10298Y16793*
X10298Y16793*
X10287Y16750*
X10278Y16710*
X10269Y16672*
X10262Y16637*
X10261Y16637*
X10251Y16698*
X10239Y16760*
X10223Y16824*
X10205Y16891*
X10103Y17253*
X9989Y17253*
X9853Y16769*
X9849Y16755*
X9843Y16728*
X9833Y16688*
X9821Y16637*
X9820Y16637*
X9813Y16674*
X9806Y16710*
X9798Y16747*
X9790Y16784*
X9681Y17253*
X9585Y17253*
X9775Y16538*
X9870Y16538*
X10022Y17083*
X10027Y17101*
X10032Y17121*
X10038Y17143*
X10043Y17167*
X10044Y17167*
X10047Y17156*
X10052Y17138*
X10058Y17114*
X10067Y17083*
X10067Y17083*
X10217Y16538*
X10308Y16538*
X10504Y17253*
X10835Y16529D02*
X10835Y16529D01*
X10881Y16541*
X10922Y16562*
X10958Y16590*
X10988Y16624*
X11009Y16662*
X11022Y16704*
X11026Y16749*
X11024Y16782*
X11017Y16812*
X11006Y16839*
X10991Y16864*
X10972Y16885*
X10949Y16902*
X10923Y16915*
X10892Y16925*
X10892Y16925*
X10915Y16938*
X10935Y16952*
X10952Y16968*
X10966Y16986*
X10977Y17005*
X10985Y17026*
X10989Y17047*
X10991Y17070*
X10989Y17094*
X10984Y17117*
X10976Y17140*
X10965Y17162*
X10950Y17182*
X10933Y17201*
X10913Y17217*
X10890Y17230*
X10864Y17241*
X10838Y17249*
X10811Y17254*
X10782Y17255*
X10741Y17252*
X10704Y17243*
X10670Y17228*
X10640Y17207*
X10614Y17180*
X10593Y17149*
X10578Y17112*
X10567Y17071*
X10654Y17055*
X10660Y17085*
X10660Y17085*
X10670Y17111*
X10670Y17111*
X10683Y17134*
X10683Y17134*
X10698Y17152*
X10698Y17152*
X10716Y17166*
X10716Y17166*
X10737Y17176*
X10737Y17176*
X10759Y17182*
X10759Y17182*
X10784Y17184*
X10784Y17184*
X10809Y17182*
X10809Y17182*
X10831Y17176*
X10831Y17176*
X10851Y17166*
X10851Y17166*
X10869Y17152*
X10869Y17152*
X10883Y17135*
X10883Y17135*
X10893Y17116*
X10893Y17116*
X10900Y17095*
X10900Y17095*
X10902Y17072*
X10902Y17072*
X10899Y17043*
X10899Y17043*
X10890Y17019*
X10890Y17019*
X10876Y16998*
X10876Y16998*
X10857Y16981*
X10856Y16981*
X10833Y16968*
X10833Y16968*
X10809Y16959*
X10809Y16959*
X10783Y16954*
X10783Y16954*
X10755Y16952*
X10755Y16952*
X10752Y16952*
X10752Y16952*
X10749Y16952*
X10749Y16952*
X10745Y16952*
X10745Y16952*
X10741Y16953*
X10732Y16877*
X10749Y16881*
X10749Y16881*
X10765Y16884*
X10765Y16884*
X10780Y16886*
X10780Y16886*
X10793Y16886*
X10793Y16886*
X10822Y16884*
X10823Y16884*
X10849Y16876*
X10849Y16876*
X10873Y16864*
X10873Y16864*
X10894Y16847*
X10894Y16847*
X10912Y16826*
X10912Y16826*
X10924Y16802*
X10924Y16802*
X10931Y16776*
X10931Y16776*
X10934Y16747*
X10934Y16747*
X10931Y16716*
X10931Y16716*
X10923Y16688*
X10923Y16688*
X10910Y16663*
X10910Y16663*
X10891Y16640*
X10891Y16640*
X10868Y16621*
X10868Y16621*
X10843Y16608*
X10843Y16608*
X10816Y16599*
X10816Y16599*
X10786Y16597*
X10786Y16597*
X10761Y16599*
X10761Y16599*
X10737Y16605*
X10737Y16605*
X10716Y16615*
X10716Y16615*
X10697Y16630*
X10697Y16630*
X10680Y16649*
X10680Y16649*
X10666Y16673*
X10666Y16673*
X10654Y16703*
X10654Y16703*
X10645Y16737*
X10558Y16726*
X10566Y16684*
X10580Y16645*
X10602Y16611*
X10629Y16581*
X10662Y16557*
X10699Y16539*
X10740Y16529*
X10785Y16525*
X10835Y16529*
D12*
X5425Y19186D03*
%LNtop silkscreen component 37417e4259248a20*%
D10*
X14565Y1641D02*
X14565Y32211D01*
X17605Y32211*
X17605Y1641*
X14565Y1641*
D11*
X15779Y32543D02*
X15779Y32543D01*
X15807Y32548*
X15834Y32556*
X15858Y32567*
X15880Y32581*
X15899Y32599*
X15915Y32619*
X15927Y32642*
X15937Y32669*
X15943Y32701*
X15947Y32739*
X15949Y32781*
X15949Y33268*
X15855Y33268*
X15855Y32776*
X15855Y32776*
X15854Y32747*
X15854Y32747*
X15853Y32722*
X15853Y32722*
X15850Y32702*
X15850Y32702*
X15845Y32686*
X15845Y32686*
X15839Y32673*
X15839Y32672*
X15831Y32661*
X15831Y32661*
X15821Y32650*
X15821Y32650*
X15809Y32641*
X15809Y32641*
X15796Y32634*
X15796Y32634*
X15781Y32629*
X15781Y32629*
X15765Y32626*
X15765Y32626*
X15748Y32625*
X15748Y32625*
X15725Y32627*
X15725Y32627*
X15704Y32632*
X15704Y32632*
X15687Y32642*
X15687Y32642*
X15672Y32655*
X15672Y32655*
X15659Y32674*
X15659Y32674*
X15650Y32699*
X15650Y32699*
X15644Y32730*
X15644Y32730*
X15641Y32767*
X15556Y32756*
X15558Y32706*
X15567Y32663*
X15582Y32626*
X15604Y32595*
X15632Y32572*
X15665Y32555*
X15704Y32545*
X15748Y32541*
X15779Y32543*
X16530Y32637D02*
X16530Y32637D01*
X16179Y32637*
X16179Y32637*
X16187Y32650*
X16187Y32650*
X16195Y32662*
X16195Y32662*
X16205Y32674*
X16205Y32674*
X16216Y32685*
X16216Y32685*
X16231Y32700*
X16231Y32700*
X16253Y32720*
X16253Y32720*
X16282Y32745*
X16282Y32745*
X16318Y32776*
X16362Y32813*
X16399Y32847*
X16429Y32876*
X16453Y32901*
X16472Y32924*
X16488Y32946*
X16501Y32968*
X16511Y32989*
X16519Y33010*
X16524Y33031*
X16528Y33052*
X16529Y33073*
X16525Y33113*
X16514Y33150*
X16495Y33184*
X16469Y33214*
X16436Y33239*
X16398Y33257*
X16355Y33268*
X16306Y33271*
X16258Y33268*
X16215Y33258*
X16177Y33242*
X16144Y33218*
X16117Y33189*
X16096Y33154*
X16082Y33112*
X16074Y33065*
X16164Y33056*
X16166Y33087*
X16166Y33087*
X16174Y33116*
X16174Y33116*
X16186Y33140*
X16186Y33140*
X16202Y33161*
X16202Y33161*
X16223Y33178*
X16223Y33178*
X16247Y33190*
X16247Y33190*
X16274Y33197*
X16274Y33197*
X16304Y33200*
X16304Y33200*
X16333Y33197*
X16333Y33197*
X16359Y33191*
X16359Y33190*
X16382Y33179*
X16382Y33179*
X16402Y33163*
X16402Y33163*
X16418Y33144*
X16418Y33144*
X16430Y33123*
X16430Y33123*
X16437Y33100*
X16437Y33100*
X16440Y33075*
X16440Y33075*
X16437Y33050*
X16437Y33050*
X16429Y33023*
X16429Y33023*
X16416Y32997*
X16416Y32997*
X16398Y32969*
X16398Y32969*
X16373Y32938*
X16373Y32938*
X16338Y32903*
X16338Y32903*
X16294Y32863*
X16294Y32863*
X16241Y32817*
X16241Y32817*
X16205Y32787*
X16174Y32759*
X16148Y32733*
X16126Y32709*
X16107Y32685*
X16091Y32662*
X16078Y32638*
X16068Y32614*
X16063Y32599*
X16060Y32584*
X16058Y32569*
X16058Y32554*
X16530Y32554*
X16530Y32637*
D12*
X14065Y30896D03*
%LNtop silkscreen component e1d5e43d5734db6b*%
D10*
X2470Y1641D02*
X2470Y32211D01*
X5510Y32211*
X5510Y1641*
X2470Y1641*
D11*
X3684Y32543D02*
X3684Y32543D01*
X3712Y32548*
X3739Y32556*
X3763Y32567*
X3785Y32581*
X3804Y32599*
X3820Y32619*
X3832Y32642*
X3842Y32669*
X3848Y32701*
X3852Y32739*
X3854Y32781*
X3854Y33268*
X3760Y33268*
X3760Y32776*
X3760Y32776*
X3759Y32747*
X3759Y32747*
X3758Y32722*
X3758Y32722*
X3755Y32702*
X3755Y32702*
X3750Y32686*
X3750Y32686*
X3744Y32673*
X3744Y32672*
X3736Y32661*
X3736Y32661*
X3726Y32650*
X3726Y32650*
X3714Y32641*
X3714Y32641*
X3701Y32634*
X3701Y32634*
X3686Y32629*
X3686Y32629*
X3670Y32626*
X3670Y32626*
X3653Y32625*
X3653Y32625*
X3630Y32627*
X3630Y32627*
X3609Y32632*
X3609Y32632*
X3592Y32642*
X3592Y32642*
X3577Y32655*
X3577Y32655*
X3564Y32674*
X3564Y32674*
X3555Y32699*
X3555Y32699*
X3549Y32730*
X3549Y32730*
X3546Y32767*
X3461Y32756*
X3463Y32706*
X3472Y32663*
X3487Y32626*
X3509Y32595*
X3537Y32572*
X3570Y32555*
X3609Y32545*
X3653Y32541*
X3684Y32543*
X4304Y33271D02*
X4304Y33271D01*
X4248Y33271*
X4235Y33248*
X4235Y33248*
X4217Y33224*
X4217Y33224*
X4196Y33200*
X4196Y33200*
X4170Y33176*
X4170Y33176*
X4141Y33152*
X4141Y33152*
X4110Y33130*
X4110Y33130*
X4077Y33110*
X4077Y33110*
X4041Y33092*
X4041Y33008*
X4062Y33016*
X4084Y33026*
X4108Y33039*
X4133Y33053*
X4158Y33068*
X4180Y33083*
X4199Y33098*
X4217Y33114*
X4217Y33113*
X4217Y32554*
X4304Y32554*
X4304Y33271*
D12*
X1970Y30896D03*
%LNtop silkscreen component 6d5c9a98175d7d20*%
D10*
X5925Y20435D02*
X5925Y26837D01*
X14175Y26837*
X14175Y20435*
X5925Y20435*
D11*
X9292Y23227D02*
X9292Y23227D01*
X9328Y23233*
X9361Y23241*
X9393Y23254*
X9422Y23269*
X9447Y23287*
X9469Y23308*
X9487Y23332*
X9501Y23358*
X9511Y23384*
X9517Y23411*
X9519Y23439*
X9517Y23467*
X9512Y23493*
X9503Y23518*
X9490Y23541*
X9473Y23562*
X9452Y23581*
X9427Y23598*
X9397Y23614*
X9371Y23624*
X9336Y23635*
X9292Y23647*
X9239Y23659*
X9239Y23659*
X9187Y23672*
X9187Y23672*
X9146Y23685*
X9146Y23685*
X9115Y23698*
X9115Y23698*
X9096Y23710*
X9096Y23710*
X9084Y23724*
X9084Y23724*
X9075Y23739*
X9075Y23739*
X9070Y23756*
X9070Y23756*
X9068Y23774*
X9068Y23774*
X9071Y23796*
X9071Y23796*
X9078Y23816*
X9078Y23816*
X9090Y23834*
X9090Y23834*
X9108Y23851*
X9108Y23851*
X9130Y23864*
X9130Y23864*
X9159Y23874*
X9159Y23874*
X9193Y23880*
X9193Y23880*
X9233Y23882*
X9233Y23882*
X9272Y23880*
X9272Y23880*
X9306Y23874*
X9306Y23874*
X9334Y23863*
X9334Y23863*
X9358Y23847*
X9358Y23847*
X9377Y23828*
X9377Y23828*
X9392Y23804*
X9392Y23804*
X9402Y23777*
X9402Y23776*
X9408Y23745*
X9498Y23752*
X9495Y23782*
X9488Y23811*
X9477Y23838*
X9463Y23864*
X9445Y23887*
X9423Y23908*
X9398Y23925*
X9369Y23939*
X9338Y23950*
X9304Y23958*
X9268Y23963*
X9229Y23965*
X9194Y23963*
X9160Y23959*
X9128Y23951*
X9098Y23940*
X9070Y23927*
X9046Y23910*
X9026Y23891*
X9008Y23869*
X8995Y23845*
X8985Y23820*
X8980Y23795*
X8978Y23768*
X8979Y23744*
X8984Y23721*
X8992Y23700*
X9003Y23679*
X9017Y23660*
X9034Y23643*
X9055Y23627*
X9079Y23613*
X9102Y23602*
X9133Y23591*
X9172Y23580*
X9217Y23568*
X9262Y23557*
X9262Y23557*
X9298Y23547*
X9298Y23547*
X9326Y23539*
X9326Y23539*
X9345Y23533*
X9345Y23533*
X9366Y23524*
X9366Y23524*
X9383Y23514*
X9383Y23514*
X9398Y23503*
X9398Y23503*
X9409Y23491*
X9409Y23491*
X9418Y23478*
X9418Y23477*
X9424Y23463*
X9424Y23463*
X9428Y23448*
X9428Y23448*
X9429Y23432*
X9429Y23432*
X9428Y23415*
X9428Y23415*
X9424Y23399*
X9424Y23399*
X9417Y23384*
X9417Y23384*
X9409Y23370*
X9409Y23370*
X9397Y23357*
X9397Y23357*
X9383Y23345*
X9383Y23345*
X9366Y23334*
X9366Y23334*
X9347Y23326*
X9347Y23326*
X9325Y23319*
X9325Y23319*
X9302Y23313*
X9302Y23313*
X9277Y23310*
X9277Y23310*
X9251Y23309*
X9251Y23309*
X9221Y23311*
X9221Y23311*
X9193Y23315*
X9193Y23315*
X9166Y23321*
X9166Y23321*
X9141Y23331*
X9141Y23331*
X9118Y23342*
X9118Y23342*
X9098Y23355*
X9098Y23355*
X9082Y23370*
X9082Y23370*
X9068Y23387*
X9068Y23387*
X9058Y23405*
X9058Y23405*
X9049Y23426*
X9049Y23426*
X9043Y23449*
X9043Y23449*
X9039Y23474*
X8950Y23467*
X8954Y23432*
X8961Y23399*
X8973Y23368*
X8990Y23339*
X9010Y23312*
X9034Y23289*
X9061Y23270*
X9092Y23254*
X9127Y23241*
X9166Y23233*
X9209Y23227*
X9255Y23226*
X9292Y23227*
X10504Y23953D02*
X10504Y23953D01*
X10410Y23953*
X10298Y23493*
X10298Y23493*
X10287Y23450*
X10278Y23410*
X10269Y23372*
X10262Y23337*
X10261Y23337*
X10251Y23398*
X10239Y23460*
X10223Y23524*
X10205Y23591*
X10103Y23953*
X9989Y23953*
X9853Y23469*
X9849Y23455*
X9843Y23428*
X9833Y23388*
X9821Y23337*
X9820Y23337*
X9813Y23374*
X9806Y23410*
X9798Y23447*
X9790Y23484*
X9681Y23953*
X9585Y23953*
X9775Y23238*
X9870Y23238*
X10022Y23783*
X10027Y23801*
X10032Y23821*
X10038Y23843*
X10043Y23867*
X10044Y23867*
X10047Y23856*
X10052Y23838*
X10058Y23814*
X10067Y23783*
X10067Y23783*
X10217Y23238*
X10308Y23238*
X10504Y23953*
X11019Y23321D02*
X11019Y23321D01*
X10668Y23321*
X10668Y23322*
X10676Y23334*
X10676Y23334*
X10684Y23346*
X10684Y23346*
X10694Y23358*
X10694Y23358*
X10705Y23370*
X10705Y23370*
X10720Y23384*
X10720Y23384*
X10742Y23404*
X10742Y23404*
X10771Y23429*
X10771Y23429*
X10807Y23460*
X10851Y23498*
X10888Y23531*
X10918Y23561*
X10942Y23586*
X10961Y23608*
X10977Y23630*
X10990Y23652*
X11000Y23673*
X11008Y23694*
X11013Y23715*
X11017Y23736*
X11018Y23757*
X11014Y23798*
X11003Y23835*
X10984Y23868*
X10958Y23898*
X10925Y23923*
X10887Y23941*
X10844Y23952*
X10795Y23955*
X10747Y23952*
X10704Y23942*
X10666Y23926*
X10633Y23903*
X10606Y23873*
X10585Y23838*
X10571Y23796*
X10563Y23749*
X10653Y23740*
X10655Y23772*
X10655Y23772*
X10662Y23800*
X10663Y23800*
X10675Y23824*
X10675Y23825*
X10691Y23845*
X10691Y23845*
X10712Y23862*
X10712Y23862*
X10736Y23874*
X10736Y23874*
X10763Y23881*
X10763Y23881*
X10793Y23884*
X10793Y23884*
X10822Y23881*
X10822Y23881*
X10848Y23875*
X10848Y23875*
X10871Y23863*
X10871Y23863*
X10891Y23848*
X10891Y23848*
X10907Y23829*
X10907Y23829*
X10919Y23808*
X10919Y23808*
X10926Y23784*
X10926Y23784*
X10928Y23759*
X10928Y23759*
X10926Y23734*
X10926Y23734*
X10918Y23708*
X10918Y23708*
X10905Y23681*
X10905Y23681*
X10887Y23653*
X10887Y23653*
X10862Y23623*
X10862Y23623*
X10827Y23587*
X10827Y23587*
X10783Y23547*
X10783Y23547*
X10730Y23501*
X10730Y23501*
X10694Y23472*
X10663Y23444*
X10637Y23417*
X10615Y23393*
X10596Y23370*
X10580Y23346*
X10567Y23322*
X10557Y23298*
X10552Y23283*
X10549Y23268*
X10547Y23253*
X10547Y23238*
X11019Y23238*
X11019Y23321*
D12*
X5425Y25886D03*
%LNtext*%
D11*
X18661Y28598D02*
X18661Y28598D01*
X18590Y28598*
X18573Y28569*
X18573Y28569*
X18551Y28539*
X18551Y28539*
X18524Y28508*
X18524Y28508*
X18491Y28477*
X18491Y28477*
X18455Y28447*
X18455Y28447*
X18415Y28419*
X18415Y28419*
X18373Y28393*
X18373Y28393*
X18328Y28370*
X18328Y28263*
X18354Y28274*
X18382Y28287*
X18413Y28303*
X18444Y28321*
X18476Y28340*
X18503Y28359*
X18528Y28378*
X18550Y28398*
X18551Y28398*
X18551Y27687*
X18661Y27687*
X18661Y28598*
X18661Y31138D02*
X18661Y31138D01*
X18590Y31138*
X18573Y31109*
X18573Y31109*
X18551Y31079*
X18551Y31079*
X18524Y31048*
X18524Y31048*
X18491Y31017*
X18491Y31017*
X18455Y30987*
X18455Y30987*
X18415Y30959*
X18415Y30959*
X18373Y30933*
X18373Y30933*
X18328Y30910*
X18328Y30803*
X18354Y30814*
X18382Y30827*
X18413Y30843*
X18444Y30861*
X18476Y30880*
X18503Y30899*
X18528Y30918*
X18550Y30938*
X18551Y30938*
X18551Y30227*
X18661Y30227*
X18661Y31138*
X18604Y3195D02*
X18604Y3195D01*
X18485Y3195*
X18485Y2287*
X18604Y2287*
X18604Y3195*
X1556Y25253D02*
X1556Y25253D01*
X1110Y25253*
X1110Y25253*
X1120Y25269*
X1120Y25269*
X1131Y25284*
X1131Y25284*
X1143Y25299*
X1143Y25299*
X1157Y25314*
X1157Y25314*
X1176Y25333*
X1176Y25333*
X1204Y25358*
X1204Y25358*
X1240Y25390*
X1240Y25390*
X1286Y25429*
X1342Y25477*
X1389Y25519*
X1428Y25557*
X1458Y25588*
X1482Y25617*
X1503Y25645*
X1519Y25673*
X1532Y25699*
X1542Y25726*
X1549Y25752*
X1553Y25779*
X1554Y25806*
X1550Y25858*
X1535Y25905*
X1512Y25948*
X1478Y25986*
X1437Y26018*
X1389Y26040*
X1333Y26054*
X1272Y26058*
X1210Y26054*
X1155Y26042*
X1107Y26021*
X1065Y25991*
X1031Y25954*
X1005Y25909*
X0987Y25856*
X0977Y25796*
X1091Y25785*
X1094Y25825*
X1094Y25825*
X1103Y25861*
X1103Y25861*
X1118Y25892*
X1118Y25892*
X1140Y25918*
X1140Y25918*
X1166Y25940*
X1166Y25940*
X1196Y25955*
X1196Y25955*
X1231Y25964*
X1231Y25964*
X1269Y25967*
X1269Y25967*
X1305Y25964*
X1306Y25964*
X1338Y25956*
X1338Y25955*
X1368Y25941*
X1368Y25941*
X1393Y25921*
X1393Y25921*
X1414Y25897*
X1414Y25897*
X1429Y25870*
X1429Y25870*
X1438Y25841*
X1438Y25841*
X1441Y25809*
X1441Y25809*
X1437Y25777*
X1437Y25777*
X1428Y25744*
X1428Y25744*
X1411Y25709*
X1411Y25709*
X1389Y25674*
X1389Y25674*
X1356Y25636*
X1356Y25636*
X1312Y25591*
X1312Y25591*
X1256Y25539*
X1256Y25539*
X1188Y25482*
X1188Y25482*
X1143Y25444*
X1104Y25408*
X1070Y25375*
X1042Y25344*
X1019Y25314*
X0999Y25284*
X0982Y25254*
X0969Y25223*
X0963Y25205*
X0958Y25185*
X0956Y25166*
X0956Y25147*
X1556Y25147*
X1556Y25253*
X1556Y22713D02*
X1556Y22713D01*
X1110Y22713*
X1110Y22713*
X1120Y22729*
X1120Y22729*
X1131Y22744*
X1131Y22744*
X1143Y22759*
X1143Y22759*
X1157Y22774*
X1157Y22774*
X1176Y22793*
X1176Y22793*
X1204Y22818*
X1204Y22818*
X1240Y22850*
X1240Y22850*
X1286Y22889*
X1342Y22937*
X1389Y22979*
X1428Y23017*
X1458Y23048*
X1482Y23077*
X1503Y23105*
X1519Y23133*
X1532Y23159*
X1542Y23186*
X1549Y23212*
X1553Y23239*
X1554Y23266*
X1550Y23318*
X1535Y23365*
X1512Y23408*
X1478Y23446*
X1437Y23478*
X1389Y23500*
X1333Y23514*
X1272Y23518*
X1210Y23514*
X1155Y23502*
X1107Y23481*
X1065Y23451*
X1031Y23414*
X1005Y23369*
X0987Y23316*
X0977Y23256*
X1091Y23245*
X1094Y23285*
X1094Y23285*
X1103Y23321*
X1103Y23321*
X1118Y23352*
X1118Y23352*
X1140Y23378*
X1140Y23378*
X1166Y23400*
X1166Y23400*
X1196Y23415*
X1196Y23415*
X1231Y23424*
X1231Y23424*
X1269Y23427*
X1269Y23427*
X1305Y23424*
X1306Y23424*
X1338Y23416*
X1338Y23415*
X1368Y23401*
X1368Y23401*
X1393Y23381*
X1393Y23381*
X1414Y23357*
X1414Y23357*
X1429Y23330*
X1429Y23330*
X1438Y23301*
X1438Y23301*
X1441Y23269*
X1441Y23269*
X1437Y23237*
X1437Y23237*
X1428Y23204*
X1428Y23204*
X1411Y23169*
X1411Y23169*
X1389Y23134*
X1389Y23134*
X1356Y23096*
X1356Y23096*
X1312Y23051*
X1312Y23051*
X1256Y22999*
X1256Y22999*
X1188Y22942*
X1188Y22942*
X1143Y22904*
X1104Y22868*
X1070Y22835*
X1042Y22804*
X1019Y22774*
X0999Y22744*
X0982Y22714*
X0969Y22683*
X0963Y22665*
X0958Y22645*
X0956Y22626*
X0956Y22607*
X1556Y22607*
X1556Y22713*
X18595Y5735D02*
X18595Y5735D01*
X18466Y5735*
X18117Y4827*
X18244Y4827*
X18344Y5102*
X18344Y5102*
X18724Y5102*
X18725Y5102*
X18831Y4827*
X18967Y4827*
X18595Y5735*
X18592Y5451D02*
X18592Y5451D01*
X18592Y5451*
X18571Y5506*
X18571Y5506*
X18554Y5555*
X18554Y5555*
X18539Y5600*
X18539Y5600*
X18528Y5638*
X18519Y5596*
X18519Y5596*
X18507Y5552*
X18507Y5552*
X18494Y5509*
X18494Y5509*
X18479Y5466*
X18479Y5466*
X18380Y5200*
X18686Y5200*
X18592Y5451*
X1389Y28598D02*
X1389Y28598D01*
X1318Y28598*
X1301Y28569*
X1301Y28569*
X1279Y28539*
X1279Y28539*
X1252Y28508*
X1252Y28508*
X1219Y28477*
X1219Y28477*
X1183Y28447*
X1183Y28447*
X1143Y28419*
X1143Y28419*
X1101Y28393*
X1101Y28393*
X1056Y28370*
X1056Y28263*
X1082Y28274*
X1110Y28287*
X1141Y28303*
X1172Y28321*
X1204Y28340*
X1231Y28359*
X1256Y28378*
X1278Y28398*
X1279Y28398*
X1279Y27687*
X1389Y27687*
X1389Y28598*
X18595Y17516D02*
X18595Y17516D01*
X18652Y17531*
X18704Y17557*
X18750Y17593*
X18788Y17637*
X18815Y17685*
X18832Y17737*
X18837Y17795*
X18834Y17837*
X18826Y17875*
X18812Y17910*
X18792Y17941*
X18768Y17968*
X18739Y17989*
X18705Y18006*
X18667Y18018*
X18667Y18019*
X18696Y18034*
X18722Y18052*
X18743Y18073*
X18761Y18096*
X18775Y18120*
X18784Y18146*
X18790Y18174*
X18792Y18203*
X18790Y18233*
X18784Y18263*
X18774Y18292*
X18759Y18319*
X18741Y18346*
X18719Y18369*
X18693Y18389*
X18664Y18406*
X18632Y18420*
X18598Y18430*
X18563Y18436*
X18527Y18438*
X18475Y18434*
X18428Y18423*
X18385Y18404*
X18347Y18377*
X18314Y18343*
X18287Y18303*
X18267Y18256*
X18254Y18204*
X18365Y18184*
X18373Y18222*
X18373Y18222*
X18385Y18255*
X18385Y18255*
X18401Y18283*
X18401Y18283*
X18420Y18306*
X18420Y18306*
X18444Y18324*
X18444Y18324*
X18469Y18337*
X18469Y18337*
X18498Y18345*
X18498Y18345*
X18529Y18348*
X18529Y18348*
X18561Y18345*
X18561Y18345*
X18589Y18337*
X18589Y18337*
X18615Y18325*
X18615Y18325*
X18637Y18307*
X18637Y18307*
X18655Y18286*
X18655Y18286*
X18668Y18261*
X18668Y18261*
X18676Y18235*
X18676Y18234*
X18679Y18205*
X18679Y18205*
X18675Y18169*
X18675Y18169*
X18664Y18137*
X18664Y18137*
X18646Y18111*
X18646Y18111*
X18621Y18090*
X18621Y18090*
X18592Y18074*
X18592Y18074*
X18561Y18062*
X18561Y18062*
X18528Y18055*
X18528Y18055*
X18493Y18053*
X18493Y18053*
X18489Y18053*
X18489Y18053*
X18485Y18053*
X18485Y18053*
X18480Y18053*
X18480Y18053*
X18475Y18054*
X18463Y17957*
X18485Y17962*
X18485Y17962*
X18505Y17966*
X18505Y17966*
X18524Y17968*
X18524Y17968*
X18541Y17969*
X18541Y17969*
X18578Y17966*
X18578Y17966*
X18612Y17957*
X18612Y17957*
X18642Y17941*
X18642Y17941*
X18669Y17919*
X18669Y17919*
X18691Y17893*
X18691Y17892*
X18707Y17862*
X18707Y17862*
X18716Y17829*
X18716Y17829*
X18720Y17792*
X18720Y17792*
X18716Y17753*
X18716Y17753*
X18706Y17718*
X18706Y17718*
X18689Y17685*
X18689Y17685*
X18665Y17657*
X18665Y17656*
X18636Y17633*
X18636Y17633*
X18605Y17615*
X18605Y17615*
X18570Y17605*
X18570Y17605*
X18532Y17602*
X18532Y17602*
X18500Y17604*
X18500Y17604*
X18470Y17612*
X18470Y17612*
X18443Y17625*
X18443Y17625*
X18419Y17644*
X18419Y17644*
X18397Y17668*
X18397Y17668*
X18379Y17699*
X18379Y17699*
X18365Y17737*
X18365Y17737*
X18353Y17780*
X18243Y17766*
X18252Y17712*
X18271Y17663*
X18298Y17620*
X18333Y17582*
X18375Y17550*
X18422Y17528*
X18474Y17515*
X18531Y17510*
X18595Y17516*
X1333Y7358D02*
X1333Y7358D01*
X1397Y7379*
X1452Y7413*
X1500Y7461*
X1531Y7508*
X1554Y7559*
X1567Y7615*
X1572Y7674*
X1567Y7736*
X1551Y7792*
X1526Y7842*
X1490Y7886*
X1447Y7922*
X1399Y7948*
X1347Y7963*
X1290Y7968*
X1245Y7965*
X1202Y7954*
X1159Y7936*
X1118Y7911*
X1117Y7911*
X1166Y8156*
X1167Y8157*
X1529Y8157*
X1529Y8262*
X1078Y8262*
X0990Y7796*
X1094Y7783*
X1107Y7801*
X1107Y7801*
X1123Y7818*
X1123Y7818*
X1142Y7833*
X1142Y7833*
X1162Y7846*
X1162Y7846*
X1185Y7857*
X1185Y7857*
X1208Y7865*
X1208Y7865*
X1233Y7869*
X1233Y7869*
X1260Y7871*
X1260Y7871*
X1301Y7867*
X1301Y7867*
X1338Y7857*
X1338Y7857*
X1372Y7840*
X1372Y7840*
X1401Y7815*
X1401Y7815*
X1424Y7785*
X1424Y7785*
X1441Y7750*
X1441Y7750*
X1451Y7710*
X1451Y7710*
X1454Y7664*
X1454Y7664*
X1451Y7616*
X1451Y7616*
X1440Y7574*
X1440Y7574*
X1423Y7536*
X1423Y7536*
X1398Y7503*
X1398Y7503*
X1369Y7476*
X1369Y7476*
X1336Y7457*
X1336Y7457*
X1301Y7446*
X1300Y7446*
X1262Y7442*
X1262Y7442*
X1229Y7444*
X1229Y7444*
X1199Y7453*
X1199Y7453*
X1172Y7466*
X1172Y7466*
X1147Y7485*
X1147Y7485*
X1125Y7509*
X1125Y7509*
X1108Y7539*
X1108Y7539*
X1095Y7574*
X1095Y7574*
X1086Y7614*
X0970Y7604*
X0980Y7550*
X0998Y7501*
X1025Y7458*
X1059Y7420*
X1101Y7390*
X1149Y7368*
X1203Y7355*
X1262Y7351*
X1333Y7358*
X18595Y20056D02*
X18595Y20056D01*
X18652Y20071*
X18704Y20097*
X18750Y20133*
X18788Y20177*
X18815Y20225*
X18832Y20277*
X18837Y20335*
X18834Y20377*
X18826Y20415*
X18812Y20450*
X18792Y20481*
X18768Y20508*
X18739Y20529*
X18705Y20546*
X18667Y20558*
X18667Y20559*
X18696Y20574*
X18722Y20592*
X18743Y20613*
X18761Y20636*
X18775Y20660*
X18784Y20686*
X18790Y20714*
X18792Y20743*
X18790Y20773*
X18784Y20803*
X18774Y20832*
X18759Y20859*
X18741Y20886*
X18719Y20909*
X18693Y20929*
X18664Y20946*
X18632Y20960*
X18598Y20970*
X18563Y20976*
X18527Y20978*
X18475Y20974*
X18428Y20963*
X18385Y20944*
X18347Y20917*
X18314Y20883*
X18287Y20843*
X18267Y20796*
X18254Y20744*
X18365Y20724*
X18373Y20762*
X18373Y20762*
X18385Y20795*
X18385Y20795*
X18401Y20823*
X18401Y20823*
X18420Y20846*
X18420Y20846*
X18444Y20864*
X18444Y20864*
X18469Y20877*
X18469Y20877*
X18498Y20885*
X18498Y20885*
X18529Y20888*
X18529Y20888*
X18561Y20885*
X18561Y20885*
X18589Y20877*
X18589Y20877*
X18615Y20865*
X18615Y20865*
X18637Y20847*
X18637Y20847*
X18655Y20826*
X18655Y20826*
X18668Y20801*
X18668Y20801*
X18676Y20775*
X18676Y20774*
X18679Y20745*
X18679Y20745*
X18675Y20709*
X18675Y20709*
X18664Y20677*
X18664Y20677*
X18646Y20651*
X18646Y20651*
X18621Y20630*
X18621Y20630*
X18592Y20614*
X18592Y20614*
X18561Y20602*
X18561Y20602*
X18528Y20595*
X18528Y20595*
X18493Y20593*
X18493Y20593*
X18489Y20593*
X18489Y20593*
X18485Y20593*
X18485Y20593*
X18480Y20593*
X18480Y20593*
X18475Y20594*
X18463Y20497*
X18485Y20502*
X18485Y20502*
X18505Y20506*
X18505Y20506*
X18524Y20508*
X18524Y20508*
X18541Y20509*
X18541Y20509*
X18578Y20506*
X18578Y20506*
X18612Y20497*
X18612Y20497*
X18642Y20481*
X18642Y20481*
X18669Y20459*
X18669Y20459*
X18691Y20433*
X18691Y20432*
X18707Y20402*
X18707Y20402*
X18716Y20369*
X18716Y20369*
X18720Y20332*
X18720Y20332*
X18716Y20293*
X18716Y20293*
X18706Y20258*
X18706Y20258*
X18689Y20225*
X18689Y20225*
X18665Y20197*
X18665Y20196*
X18636Y20173*
X18636Y20173*
X18605Y20155*
X18605Y20155*
X18570Y20145*
X18570Y20145*
X18532Y20142*
X18532Y20142*
X18500Y20144*
X18500Y20144*
X18470Y20152*
X18470Y20152*
X18443Y20165*
X18443Y20165*
X18419Y20184*
X18419Y20184*
X18397Y20208*
X18397Y20208*
X18379Y20239*
X18379Y20239*
X18365Y20277*
X18365Y20277*
X18353Y20320*
X18243Y20306*
X18252Y20252*
X18271Y20203*
X18298Y20160*
X18333Y20122*
X18375Y20090*
X18422Y20068*
X18474Y20055*
X18531Y20050*
X18595Y20056*
X1332Y3195D02*
X1332Y3195D01*
X1213Y3195*
X1213Y2287*
X1332Y2287*
X1332Y3195*
X18828Y22713D02*
X18828Y22713D01*
X18382Y22713*
X18382Y22713*
X18392Y22729*
X18392Y22729*
X18403Y22744*
X18403Y22744*
X18415Y22759*
X18415Y22759*
X18429Y22774*
X18429Y22774*
X18448Y22793*
X18448Y22793*
X18476Y22818*
X18476Y22818*
X18512Y22850*
X18512Y22850*
X18558Y22889*
X18614Y22937*
X18661Y22979*
X18700Y23017*
X18730Y23048*
X18754Y23077*
X18775Y23105*
X18791Y23133*
X18804Y23159*
X18814Y23186*
X18821Y23212*
X18825Y23239*
X18826Y23266*
X18822Y23318*
X18807Y23365*
X18784Y23408*
X18750Y23446*
X18709Y23478*
X18661Y23500*
X18605Y23514*
X18544Y23518*
X18482Y23514*
X18427Y23502*
X18379Y23481*
X18337Y23451*
X18303Y23414*
X18277Y23369*
X18259Y23316*
X18249Y23256*
X18363Y23245*
X18366Y23285*
X18366Y23285*
X18375Y23321*
X18375Y23321*
X18390Y23352*
X18390Y23352*
X18412Y23378*
X18412Y23378*
X18438Y23400*
X18438Y23400*
X18468Y23415*
X18468Y23415*
X18503Y23424*
X18503Y23424*
X18541Y23427*
X18541Y23427*
X18577Y23424*
X18578Y23424*
X18610Y23416*
X18610Y23415*
X18640Y23401*
X18640Y23401*
X18665Y23381*
X18665Y23381*
X18686Y23357*
X18686Y23357*
X18701Y23330*
X18701Y23330*
X18710Y23301*
X18710Y23301*
X18713Y23269*
X18713Y23269*
X18709Y23237*
X18709Y23237*
X18700Y23204*
X18700Y23204*
X18683Y23169*
X18683Y23169*
X18661Y23134*
X18661Y23134*
X18628Y23096*
X18628Y23096*
X18584Y23051*
X18584Y23051*
X18528Y22999*
X18528Y22999*
X18460Y22942*
X18460Y22942*
X18415Y22904*
X18376Y22868*
X18342Y22835*
X18314Y22804*
X18291Y22774*
X18271Y22744*
X18254Y22714*
X18241Y22683*
X18235Y22665*
X18230Y22645*
X18228Y22626*
X18228Y22607*
X18828Y22607*
X18828Y22713*
X1323Y5735D02*
X1323Y5735D01*
X1194Y5735*
X0845Y4827*
X0972Y4827*
X1072Y5102*
X1072Y5102*
X1452Y5102*
X1453Y5102*
X1559Y4827*
X1695Y4827*
X1323Y5735*
X1320Y5451D02*
X1320Y5451D01*
X1320Y5451*
X1299Y5506*
X1299Y5506*
X1282Y5555*
X1282Y5555*
X1267Y5600*
X1267Y5600*
X1256Y5638*
X1247Y5596*
X1247Y5596*
X1235Y5552*
X1235Y5552*
X1222Y5509*
X1222Y5509*
X1207Y5466*
X1207Y5466*
X1108Y5200*
X1414Y5200*
X1320Y5451*
X1323Y17516D02*
X1323Y17516D01*
X1380Y17531*
X1432Y17557*
X1478Y17593*
X1516Y17637*
X1543Y17685*
X1560Y17737*
X1565Y17795*
X1562Y17837*
X1554Y17875*
X1540Y17910*
X1520Y17941*
X1496Y17968*
X1467Y17989*
X1433Y18006*
X1395Y18018*
X1395Y18019*
X1424Y18034*
X1450Y18052*
X1471Y18073*
X1489Y18096*
X1503Y18120*
X1512Y18146*
X1518Y18174*
X1520Y18203*
X1518Y18233*
X1512Y18263*
X1502Y18292*
X1487Y18319*
X1469Y18346*
X1447Y18369*
X1421Y18389*
X1392Y18406*
X1360Y18420*
X1326Y18430*
X1291Y18436*
X1255Y18438*
X1203Y18434*
X1156Y18423*
X1113Y18404*
X1075Y18377*
X1042Y18343*
X1015Y18303*
X0995Y18256*
X0982Y18204*
X1093Y18184*
X1101Y18222*
X1101Y18222*
X1113Y18255*
X1113Y18255*
X1129Y18283*
X1129Y18283*
X1148Y18306*
X1148Y18306*
X1172Y18324*
X1172Y18324*
X1197Y18337*
X1197Y18337*
X1226Y18345*
X1226Y18345*
X1257Y18348*
X1257Y18348*
X1289Y18345*
X1289Y18345*
X1317Y18337*
X1317Y18337*
X1343Y18325*
X1343Y18325*
X1365Y18307*
X1365Y18307*
X1383Y18286*
X1383Y18286*
X1396Y18261*
X1396Y18261*
X1404Y18235*
X1404Y18234*
X1407Y18205*
X1407Y18205*
X1403Y18169*
X1403Y18169*
X1392Y18137*
X1392Y18137*
X1374Y18111*
X1374Y18111*
X1349Y18090*
X1349Y18090*
X1320Y18074*
X1320Y18074*
X1289Y18062*
X1289Y18062*
X1256Y18055*
X1256Y18055*
X1221Y18053*
X1221Y18053*
X1217Y18053*
X1217Y18053*
X1213Y18053*
X1213Y18053*
X1208Y18053*
X1208Y18053*
X1203Y18054*
X1191Y17957*
X1213Y17962*
X1213Y17962*
X1233Y17966*
X1233Y17966*
X1252Y17968*
X1252Y17968*
X1269Y17969*
X1269Y17969*
X1306Y17966*
X1306Y17966*
X1340Y17957*
X1340Y17957*
X1370Y17941*
X1370Y17941*
X1397Y17919*
X1397Y17919*
X1419Y17893*
X1419Y17892*
X1435Y17862*
X1435Y17862*
X1444Y17829*
X1444Y17829*
X1448Y17792*
X1448Y17792*
X1444Y17753*
X1444Y17753*
X1434Y17718*
X1434Y17718*
X1417Y17685*
X1417Y17685*
X1393Y17657*
X1393Y17656*
X1364Y17633*
X1364Y17633*
X1333Y17615*
X1333Y17615*
X1298Y17605*
X1298Y17605*
X1260Y17602*
X1260Y17602*
X1228Y17604*
X1228Y17604*
X1198Y17612*
X1198Y17612*
X1171Y17625*
X1171Y17625*
X1147Y17644*
X1147Y17644*
X1125Y17668*
X1125Y17668*
X1107Y17699*
X1107Y17699*
X1093Y17737*
X1093Y17737*
X1081Y17780*
X0971Y17766*
X0980Y17712*
X0999Y17663*
X1026Y17620*
X1061Y17582*
X1103Y17550*
X1150Y17528*
X1202Y17515*
X1259Y17510*
X1323Y17516*
X18605Y9898D02*
X18605Y9898D01*
X18669Y9919*
X18724Y9953*
X18772Y10001*
X18803Y10048*
X18826Y10099*
X18839Y10155*
X18844Y10214*
X18839Y10276*
X18823Y10332*
X18798Y10382*
X18762Y10426*
X18719Y10462*
X18671Y10488*
X18619Y10503*
X18562Y10508*
X18517Y10505*
X18474Y10494*
X18431Y10476*
X18390Y10451*
X18389Y10451*
X18438Y10696*
X18439Y10697*
X18801Y10697*
X18801Y10802*
X18350Y10802*
X18262Y10336*
X18366Y10323*
X18379Y10341*
X18379Y10341*
X18395Y10358*
X18395Y10358*
X18414Y10373*
X18414Y10373*
X18434Y10386*
X18434Y10386*
X18457Y10397*
X18457Y10397*
X18480Y10405*
X18480Y10405*
X18505Y10409*
X18505Y10409*
X18532Y10411*
X18532Y10411*
X18573Y10407*
X18573Y10407*
X18610Y10397*
X18610Y10397*
X18644Y10380*
X18644Y10380*
X18673Y10355*
X18673Y10355*
X18696Y10325*
X18696Y10325*
X18713Y10290*
X18713Y10290*
X18723Y10250*
X18723Y10250*
X18726Y10204*
X18726Y10204*
X18723Y10156*
X18723Y10156*
X18712Y10114*
X18712Y10114*
X18695Y10076*
X18695Y10076*
X18670Y10043*
X18670Y10043*
X18641Y10016*
X18641Y10016*
X18608Y9997*
X18608Y9997*
X18573Y9986*
X18572Y9986*
X18534Y9982*
X18534Y9982*
X18501Y9984*
X18501Y9984*
X18471Y9993*
X18471Y9993*
X18444Y10006*
X18444Y10006*
X18419Y10025*
X18419Y10025*
X18397Y10049*
X18397Y10049*
X18380Y10079*
X18380Y10079*
X18367Y10114*
X18367Y10114*
X18358Y10154*
X18242Y10144*
X18252Y10090*
X18270Y10041*
X18297Y9998*
X18331Y9960*
X18373Y9930*
X18421Y9908*
X18475Y9895*
X18534Y9891*
X18605Y9898*
X1438Y15204D02*
X1438Y15204D01*
X1439Y15204*
X1561Y15204*
X1561Y15305*
X1439Y15305*
X1438Y15306*
X1438Y15895*
X1348Y15895*
X0933Y15306*
X0933Y15204*
X1328Y15204*
X1328Y15204*
X1328Y14987*
X1438Y14987*
X1438Y15204*
X1327Y15714D02*
X1327Y15714D01*
X1044Y15306*
X1327Y15306*
X1327Y15714*
X18828Y25253D02*
X18828Y25253D01*
X18382Y25253*
X18382Y25253*
X18392Y25269*
X18392Y25269*
X18403Y25284*
X18403Y25284*
X18415Y25299*
X18415Y25299*
X18429Y25314*
X18429Y25314*
X18448Y25333*
X18448Y25333*
X18476Y25358*
X18476Y25358*
X18512Y25390*
X18512Y25390*
X18558Y25429*
X18614Y25477*
X18661Y25519*
X18700Y25557*
X18730Y25588*
X18754Y25617*
X18775Y25645*
X18791Y25673*
X18804Y25699*
X18814Y25726*
X18821Y25752*
X18825Y25779*
X18826Y25806*
X18822Y25858*
X18807Y25905*
X18784Y25948*
X18750Y25986*
X18709Y26018*
X18661Y26040*
X18605Y26054*
X18544Y26058*
X18482Y26054*
X18427Y26042*
X18379Y26021*
X18337Y25991*
X18303Y25954*
X18277Y25909*
X18259Y25856*
X18249Y25796*
X18363Y25785*
X18366Y25825*
X18366Y25825*
X18375Y25861*
X18375Y25861*
X18390Y25892*
X18390Y25892*
X18412Y25918*
X18412Y25918*
X18438Y25940*
X18438Y25940*
X18468Y25955*
X18468Y25955*
X18503Y25964*
X18503Y25964*
X18541Y25967*
X18541Y25967*
X18577Y25964*
X18578Y25964*
X18610Y25956*
X18610Y25955*
X18640Y25941*
X18640Y25941*
X18665Y25921*
X18665Y25921*
X18686Y25897*
X18686Y25897*
X18701Y25870*
X18701Y25870*
X18710Y25841*
X18710Y25841*
X18713Y25809*
X18713Y25809*
X18709Y25777*
X18709Y25777*
X18700Y25744*
X18700Y25744*
X18683Y25709*
X18683Y25709*
X18661Y25674*
X18661Y25674*
X18628Y25636*
X18628Y25636*
X18584Y25591*
X18584Y25591*
X18528Y25539*
X18528Y25539*
X18460Y25482*
X18460Y25482*
X18415Y25444*
X18376Y25408*
X18342Y25375*
X18314Y25344*
X18291Y25314*
X18271Y25284*
X18254Y25254*
X18241Y25223*
X18235Y25205*
X18230Y25185*
X18228Y25166*
X18228Y25147*
X18828Y25147*
X18828Y25253*
X1438Y12664D02*
X1438Y12664D01*
X1439Y12664*
X1561Y12664*
X1561Y12765*
X1439Y12765*
X1438Y12766*
X1438Y13355*
X1348Y13355*
X0933Y12766*
X0933Y12664*
X1328Y12664*
X1328Y12664*
X1328Y12447*
X1438Y12447*
X1438Y12664*
X1327Y13174D02*
X1327Y13174D01*
X1044Y12766*
X1327Y12766*
X1327Y13174*
X18710Y12664D02*
X18710Y12664D01*
X18711Y12664*
X18833Y12664*
X18833Y12765*
X18711Y12765*
X18710Y12766*
X18710Y13355*
X18620Y13355*
X18205Y12766*
X18205Y12664*
X18600Y12664*
X18600Y12664*
X18600Y12447*
X18710Y12447*
X18710Y12664*
X18599Y13174D02*
X18599Y13174D01*
X18316Y12766*
X18599Y12766*
X18599Y13174*
X1389Y31138D02*
X1389Y31138D01*
X1318Y31138*
X1301Y31109*
X1301Y31109*
X1279Y31079*
X1279Y31079*
X1252Y31048*
X1252Y31048*
X1219Y31017*
X1219Y31017*
X1183Y30987*
X1183Y30987*
X1143Y30959*
X1143Y30959*
X1101Y30933*
X1101Y30933*
X1056Y30910*
X1056Y30803*
X1082Y30814*
X1110Y30827*
X1141Y30843*
X1172Y30861*
X1204Y30880*
X1231Y30899*
X1256Y30918*
X1278Y30938*
X1279Y30938*
X1279Y30227*
X1389Y30227*
X1389Y31138*
X18605Y7358D02*
X18605Y7358D01*
X18669Y7379*
X18724Y7413*
X18772Y7461*
X18803Y7508*
X18826Y7559*
X18839Y7615*
X18844Y7674*
X18839Y7736*
X18823Y7792*
X18798Y7842*
X18762Y7886*
X18719Y7922*
X18671Y7948*
X18619Y7963*
X18562Y7968*
X18517Y7965*
X18474Y7954*
X18431Y7936*
X18390Y7911*
X18389Y7911*
X18438Y8156*
X18439Y8157*
X18801Y8157*
X18801Y8262*
X18350Y8262*
X18262Y7796*
X18366Y7783*
X18379Y7801*
X18379Y7801*
X18395Y7818*
X18395Y7818*
X18414Y7833*
X18414Y7833*
X18434Y7846*
X18434Y7846*
X18457Y7857*
X18457Y7857*
X18480Y7865*
X18480Y7865*
X18505Y7869*
X18505Y7869*
X18532Y7871*
X18532Y7871*
X18573Y7867*
X18573Y7867*
X18610Y7857*
X18610Y7857*
X18644Y7840*
X18644Y7840*
X18673Y7815*
X18673Y7815*
X18696Y7785*
X18696Y7785*
X18713Y7750*
X18713Y7750*
X18723Y7710*
X18723Y7710*
X18726Y7664*
X18726Y7664*
X18723Y7616*
X18723Y7616*
X18712Y7574*
X18712Y7574*
X18695Y7536*
X18695Y7536*
X18670Y7503*
X18670Y7503*
X18641Y7476*
X18641Y7476*
X18608Y7457*
X18608Y7457*
X18573Y7446*
X18572Y7446*
X18534Y7442*
X18534Y7442*
X18501Y7444*
X18501Y7444*
X18471Y7453*
X18471Y7453*
X18444Y7466*
X18444Y7466*
X18419Y7485*
X18419Y7485*
X18397Y7509*
X18397Y7509*
X18380Y7539*
X18380Y7539*
X18367Y7574*
X18367Y7574*
X18358Y7614*
X18242Y7604*
X18252Y7550*
X18270Y7501*
X18297Y7458*
X18331Y7420*
X18373Y7390*
X18421Y7368*
X18475Y7355*
X18534Y7351*
X18605Y7358*
X1333Y9898D02*
X1333Y9898D01*
X1397Y9919*
X1452Y9953*
X1500Y10001*
X1531Y10048*
X1554Y10099*
X1567Y10155*
X1572Y10214*
X1567Y10276*
X1551Y10332*
X1526Y10382*
X1490Y10426*
X1447Y10462*
X1399Y10488*
X1347Y10503*
X1290Y10508*
X1245Y10505*
X1202Y10494*
X1159Y10476*
X1118Y10451*
X1117Y10451*
X1166Y10696*
X1167Y10697*
X1529Y10697*
X1529Y10802*
X1078Y10802*
X0990Y10336*
X1094Y10323*
X1107Y10341*
X1107Y10341*
X1123Y10358*
X1123Y10358*
X1142Y10373*
X1142Y10373*
X1162Y10386*
X1162Y10386*
X1185Y10397*
X1185Y10397*
X1208Y10405*
X1208Y10405*
X1233Y10409*
X1233Y10409*
X1260Y10411*
X1260Y10411*
X1301Y10407*
X1301Y10407*
X1338Y10397*
X1338Y10397*
X1372Y10380*
X1372Y10380*
X1401Y10355*
X1401Y10355*
X1424Y10325*
X1424Y10325*
X1441Y10290*
X1441Y10290*
X1451Y10250*
X1451Y10250*
X1454Y10204*
X1454Y10204*
X1451Y10156*
X1451Y10156*
X1440Y10114*
X1440Y10114*
X1423Y10076*
X1423Y10076*
X1398Y10043*
X1398Y10043*
X1369Y10016*
X1369Y10016*
X1336Y9997*
X1336Y9997*
X1301Y9986*
X1300Y9986*
X1262Y9982*
X1262Y9982*
X1229Y9984*
X1229Y9984*
X1199Y9993*
X1199Y9993*
X1172Y10006*
X1172Y10006*
X1147Y10025*
X1147Y10025*
X1125Y10049*
X1125Y10049*
X1108Y10079*
X1108Y10079*
X1095Y10114*
X1095Y10114*
X1086Y10154*
X0970Y10144*
X0980Y10090*
X0998Y10041*
X1025Y9998*
X1059Y9960*
X1101Y9930*
X1149Y9908*
X1203Y9895*
X1262Y9891*
X1333Y9898*
X1323Y20056D02*
X1323Y20056D01*
X1380Y20071*
X1432Y20097*
X1478Y20133*
X1516Y20177*
X1543Y20225*
X1560Y20277*
X1565Y20335*
X1562Y20377*
X1554Y20415*
X1540Y20450*
X1520Y20481*
X1496Y20508*
X1467Y20529*
X1433Y20546*
X1395Y20558*
X1395Y20559*
X1424Y20574*
X1450Y20592*
X1471Y20613*
X1489Y20636*
X1503Y20660*
X1512Y20686*
X1518Y20714*
X1520Y20743*
X1518Y20773*
X1512Y20803*
X1502Y20832*
X1487Y20859*
X1469Y20886*
X1447Y20909*
X1421Y20929*
X1392Y20946*
X1360Y20960*
X1326Y20970*
X1291Y20976*
X1255Y20978*
X1203Y20974*
X1156Y20963*
X1113Y20944*
X1075Y20917*
X1042Y20883*
X1015Y20843*
X0995Y20796*
X0982Y20744*
X1093Y20724*
X1101Y20762*
X1101Y20762*
X1113Y20795*
X1113Y20795*
X1129Y20823*
X1129Y20823*
X1148Y20846*
X1148Y20846*
X1172Y20864*
X1172Y20864*
X1197Y20877*
X1197Y20877*
X1226Y20885*
X1226Y20885*
X1257Y20888*
X1257Y20888*
X1289Y20885*
X1289Y20885*
X1317Y20877*
X1317Y20877*
X1343Y20865*
X1343Y20865*
X1365Y20847*
X1365Y20847*
X1383Y20826*
X1383Y20826*
X1396Y20801*
X1396Y20801*
X1404Y20775*
X1404Y20774*
X1407Y20745*
X1407Y20745*
X1403Y20709*
X1403Y20709*
X1392Y20677*
X1392Y20677*
X1374Y20651*
X1374Y20651*
X1349Y20630*
X1349Y20630*
X1320Y20614*
X1320Y20614*
X1289Y20602*
X1289Y20602*
X1256Y20595*
X1256Y20595*
X1221Y20593*
X1221Y20593*
X1217Y20593*
X1217Y20593*
X1213Y20593*
X1213Y20593*
X1208Y20593*
X1208Y20593*
X1203Y20594*
X1191Y20497*
X1213Y20502*
X1213Y20502*
X1233Y20506*
X1233Y20506*
X1252Y20508*
X1252Y20508*
X1269Y20509*
X1269Y20509*
X1306Y20506*
X1306Y20506*
X1340Y20497*
X1340Y20497*
X1370Y20481*
X1370Y20481*
X1397Y20459*
X1397Y20459*
X1419Y20433*
X1419Y20432*
X1435Y20402*
X1435Y20402*
X1444Y20369*
X1444Y20369*
X1448Y20332*
X1448Y20332*
X1444Y20293*
X1444Y20293*
X1434Y20258*
X1434Y20258*
X1417Y20225*
X1417Y20225*
X1393Y20197*
X1393Y20196*
X1364Y20173*
X1364Y20173*
X1333Y20155*
X1333Y20155*
X1298Y20145*
X1298Y20145*
X1260Y20142*
X1260Y20142*
X1228Y20144*
X1228Y20144*
X1198Y20152*
X1198Y20152*
X1171Y20165*
X1171Y20165*
X1147Y20184*
X1147Y20184*
X1125Y20208*
X1125Y20208*
X1107Y20239*
X1107Y20239*
X1093Y20277*
X1093Y20277*
X1081Y20320*
X0971Y20306*
X0980Y20252*
X0999Y20203*
X1026Y20160*
X1061Y20122*
X1103Y20090*
X1150Y20068*
X1202Y20055*
X1259Y20050*
X1323Y20056*
X18710Y15204D02*
X18710Y15204D01*
X18711Y15204*
X18833Y15204*
X18833Y15305*
X18711Y15305*
X18710Y15306*
X18710Y15895*
X18620Y15895*
X18205Y15306*
X18205Y15204*
X18600Y15204*
X18600Y15204*
X18600Y14987*
X18710Y14987*
X18710Y15204*
X18599Y15714D02*
X18599Y15714D01*
X18316Y15306*
X18599Y15306*
X18599Y15714*
M02*