<?xml-stylesheet href="https://s3.amazonaws.com/maker.works.boards/css/blackpcb.css" type="text/css"?><svg xmlns="http://www.w3.org/2000/svg" version="1.1" xmlns:xlink="http://www.w3.org/1999/xlink" stroke-width="0" stroke-linecap="round" stroke-linejoin="round" width="0.47000000000000003in" height="0.65in" id="pcb_bottom" viewBox="7.5 7.5 470 650"><defs><circle cx="0" cy="0" r="21.5" id="tool-T10-pad-1000"/><rect x="-32.5" y="-32.5" width="65" height="65" id="tool-D12-pad-1003"/><circle cx="0" cy="0" r="32.5" id="tool-D13-pad-1004"/><rect x="-32.5" y="-32.5" width="65" height="65" id="tool-D10-pad-1005"/><circle cx="0" cy="0" r="32.5" id="tool-D11-pad-1006"/><g id="pcb_bottom-cu" fill="currentColor" stroke="currentColor"><path stroke-width="2" fill="none" d="M 457.5 637.5 L 457.5 637.5 M 457.5 637.5 L 27.5 637.5 M 27.5 637.5 L 27.5 27.5 M 27.5 27.5 L 457.5 27.5 M 457.5 27.5 L 457.5 637.5 M 205 542 L 180.4 542 M 180.4 542 L 180.4 552 M 180.4 552 L 164.6 552 M 164.6 552 L 164.6 542 M 164.6 542 L 140 542 M 140 542 L 138.8 542.1 M 138.8 542.1 L 137.5 542.4 M 137.5 542.4 L 136.4 542.9 M 136.4 542.9 L 135.3 543.5 M 135.3 543.5 L 134.4 544.4 M 134.4 544.4 L 133.5 545.3 M 133.5 545.3 L 132.9 546.4 M 132.9 546.4 L 132.4 547.5 M 132.4 547.5 L 132.1 548.8 M 132.1 548.8 L 132 550 M 132 550 L 132 574.6 M 132 574.6 L 142 574.6 M 142 574.6 L 142 590.4 M 142 590.4 L 132 590.4 M 132 590.4 L 132 615 M 132 615 L 132.1 616.2 M 132.1 616.2 L 132.4 617.5 M 132.4 617.5 L 132.9 618.6 M 132.9 618.6 L 133.5 619.7 M 133.5 619.7 L 134.4 620.6 M 134.4 620.6 L 135.3 621.5 M 135.3 621.5 L 136.4 622.1 M 136.4 622.1 L 137.5 622.6 M 137.5 622.6 L 138.8 622.9 M 138.8 622.9 L 140 623 M 140 623 L 164.6 623 M 164.6 623 L 164.6 613 M 164.6 613 L 180.4 613 M 180.4 613 L 180.4 623 M 180.4 623 L 205 623 M 205 623 L 206.2 622.9 M 206.2 622.9 L 207.5 622.6 M 207.5 622.6 L 208.6 622.1 M 208.6 622.1 L 209.7 621.5 M 209.7 621.5 L 210.6 620.6 M 210.6 620.6 L 211.5 619.7 M 211.5 619.7 L 212.1 618.6 M 212.1 618.6 L 212.6 617.5 M 212.6 617.5 L 212.9 616.2 M 212.9 616.2 L 213 615 M 213 615 L 213 590.4 M 213 590.4 L 203 590.4 M 203 590.4 L 203 574.6 M 203 574.6 L 213 574.6 M 213 574.6 L 213 550 M 213 550 L 212.9 548.8 M 212.9 548.8 L 212.6 547.5 M 212.6 547.5 L 212.1 546.4 M 212.1 546.4 L 211.5 545.3 M 211.5 545.3 L 210.6 544.4 M 210.6 544.4 L 209.7 543.5 M 209.7 543.5 L 208.6 542.9 M 208.6 542.9 L 207.5 542.4 M 207.5 542.4 L 206.2 542.1 M 206.2 542.1 L 205 542 M 345 542 L 320.4 542 M 320.4 542 L 320.4 552 M 320.4 552 L 304.6 552 M 304.6 552 L 304.6 542 M 304.6 542 L 280 542 M 280 542 L 278.8 542.1 M 278.8 542.1 L 277.5 542.4 M 277.5 542.4 L 276.4 542.9 M 276.4 542.9 L 275.3 543.5 M 275.3 543.5 L 274.4 544.4 M 274.4 544.4 L 273.5 545.3 M 273.5 545.3 L 272.9 546.4 M 272.9 546.4 L 272.4 547.5 M 272.4 547.5 L 272.1 548.8 M 272.1 548.8 L 272 550 M 272 550 L 272 574.6 M 272 574.6 L 282 574.6 M 282 574.6 L 282 590.4 M 282 590.4 L 272 590.4 M 272 590.4 L 272 615 M 272 615 L 272.1 616.2 M 272.1 616.2 L 272.4 617.5 M 272.4 617.5 L 272.9 618.6 M 272.9 618.6 L 273.5 619.7 M 273.5 619.7 L 274.4 620.6 M 274.4 620.6 L 275.3 621.5 M 275.3 621.5 L 276.4 622.1 M 276.4 622.1 L 277.5 622.6 M 277.5 622.6 L 278.8 622.9 M 278.8 622.9 L 280 623 M 280 623 L 304.6 623 M 304.6 623 L 304.6 613 M 304.6 613 L 320.4 613 M 320.4 613 L 320.4 623 M 320.4 623 L 345 623 M 345 623 L 346.2 622.9 M 346.2 622.9 L 347.5 622.6 M 347.5 622.6 L 348.6 622.1 M 348.6 622.1 L 349.7 621.5 M 349.7 621.5 L 350.6 620.6 M 350.6 620.6 L 351.5 619.7 M 351.5 619.7 L 352.1 618.6 M 352.1 618.6 L 352.6 617.5 M 352.6 617.5 L 352.9 616.2 M 352.9 616.2 L 353 615 M 353 615 L 353 590.4 M 353 590.4 L 343 590.4 M 343 590.4 L 343 574.6 M 343 574.6 L 353 574.6 M 353 574.6 L 353 550 M 353 550 L 352.9 548.8 M 352.9 548.8 L 352.6 547.5 M 352.6 547.5 L 352.1 546.4 M 352.1 546.4 L 351.5 545.3 M 351.5 545.3 L 350.6 544.4 M 350.6 544.4 L 349.7 543.5 M 349.7 543.5 L 348.6 542.9 M 348.6 542.9 L 347.5 542.4 M 347.5 542.4 L 346.2 542.1 M 346.2 542.1 L 345 542 M 177.4 442.3 L 167.6 442.3 M 167.6 442.3 L 158.1 444.6 M 158.1 444.6 L 149.5 449.2 M 149.5 449.2 L 142.2 455.6 M 142.2 455.6 L 136.6 463.7 M 136.6 463.7 L 133.2 472.8 M 133.2 472.8 L 132 482.5 M 132 482.5 L 133.2 492.2 M 133.2 492.2 L 136.6 501.3 M 136.6 501.3 L 142.2 509.4 M 142.2 509.4 L 149.5 515.8 M 149.5 515.8 L 158.1 520.4 M 158.1 520.4 L 167.6 522.7 M 167.6 522.7 L 177.4 522.7 M 177.4 522.7 L 186.9 520.4 M 186.9 520.4 L 195.5 515.8 M 195.5 515.8 L 202.8 509.4 M 202.8 509.4 L 208.4 501.3 M 208.4 501.3 L 211.8 492.2 M 211.8 492.2 L 213 482.5 M 213 482.5 L 211.8 472.8 M 211.8 472.8 L 208.4 463.7 M 208.4 463.7 L 202.8 455.6 M 202.8 455.6 L 195.5 449.2 M 195.5 449.2 L 186.9 444.6 M 186.9 444.6 L 177.4 442.3 M 317.4 442.3 L 307.6 442.3 M 307.6 442.3 L 298.1 444.6 M 298.1 444.6 L 289.5 449.2 M 289.5 449.2 L 282.2 455.6 M 282.2 455.6 L 276.6 463.7 M 276.6 463.7 L 273.2 472.8 M 273.2 472.8 L 272 482.5 M 272 482.5 L 273.2 492.2 M 273.2 492.2 L 276.6 501.3 M 276.6 501.3 L 282.2 509.4 M 282.2 509.4 L 289.5 515.8 M 289.5 515.8 L 298.1 520.4 M 298.1 520.4 L 307.6 522.7 M 307.6 522.7 L 317.4 522.7 M 317.4 522.7 L 326.9 520.4 M 326.9 520.4 L 335.5 515.8 M 335.5 515.8 L 342.8 509.4 M 342.8 509.4 L 348.4 501.3 M 348.4 501.3 L 351.8 492.2 M 351.8 492.2 L 353 482.5 M 353 482.5 L 351.8 472.8 M 351.8 472.8 L 348.4 463.7 M 348.4 463.7 L 342.8 455.6 M 342.8 455.6 L 335.5 449.2 M 335.5 449.2 L 326.9 444.6 M 326.9 444.6 L 317.4 442.3 M 177.4 342.3 L 167.6 342.3 M 167.6 342.3 L 158.1 344.6 M 158.1 344.6 L 149.5 349.2 M 149.5 349.2 L 142.2 355.6 M 142.2 355.6 L 136.6 363.7 M 136.6 363.7 L 133.2 372.8 M 133.2 372.8 L 132 382.5 M 132 382.5 L 133.2 392.2 M 133.2 392.2 L 136.6 401.3 M 136.6 401.3 L 142.2 409.4 M 142.2 409.4 L 149.5 415.8 M 149.5 415.8 L 158.1 420.4 M 158.1 420.4 L 167.6 422.7 M 167.6 422.7 L 177.4 422.7 M 177.4 422.7 L 186.9 420.4 M 186.9 420.4 L 195.5 415.8 M 195.5 415.8 L 202.8 409.4 M 202.8 409.4 L 208.4 401.3 M 208.4 401.3 L 211.8 392.2 M 211.8 392.2 L 213 382.5 M 213 382.5 L 211.8 372.8 M 211.8 372.8 L 208.4 363.7 M 208.4 363.7 L 202.8 355.6 M 202.8 355.6 L 195.5 349.2 M 195.5 349.2 L 186.9 344.6 M 186.9 344.6 L 177.4 342.3 M 317.4 342.3 L 307.6 342.3 M 307.6 342.3 L 298.1 344.6 M 298.1 344.6 L 289.5 349.2 M 289.5 349.2 L 282.2 355.6 M 282.2 355.6 L 276.6 363.7 M 276.6 363.7 L 273.2 372.8 M 273.2 372.8 L 272 382.5 M 272 382.5 L 273.2 392.2 M 273.2 392.2 L 276.6 401.3 M 276.6 401.3 L 282.2 409.4 M 282.2 409.4 L 289.5 415.8 M 289.5 415.8 L 298.1 420.4 M 298.1 420.4 L 307.6 422.7 M 307.6 422.7 L 317.4 422.7 M 317.4 422.7 L 326.9 420.4 M 326.9 420.4 L 335.5 415.8 M 335.5 415.8 L 342.8 409.4 M 342.8 409.4 L 348.4 401.3 M 348.4 401.3 L 351.8 392.2 M 351.8 392.2 L 353 382.5 M 353 382.5 L 351.8 372.8 M 351.8 372.8 L 348.4 363.7 M 348.4 363.7 L 342.8 355.6 M 342.8 355.6 L 335.5 349.2 M 335.5 349.2 L 326.9 344.6 M 326.9 344.6 L 317.4 342.3 M 177.4 242.3 L 167.6 242.3 M 167.6 242.3 L 158.1 244.6 M 158.1 244.6 L 149.5 249.2 M 149.5 249.2 L 142.2 255.6 M 142.2 255.6 L 136.6 263.7 M 136.6 263.7 L 133.2 272.8 M 133.2 272.8 L 132 282.5 M 132 282.5 L 133.2 292.2 M 133.2 292.2 L 136.6 301.3 M 136.6 301.3 L 142.2 309.4 M 142.2 309.4 L 149.5 315.8 M 149.5 315.8 L 158.1 320.4 M 158.1 320.4 L 167.6 322.7 M 167.6 322.7 L 177.4 322.7 M 177.4 322.7 L 186.9 320.4 M 186.9 320.4 L 195.5 315.8 M 195.5 315.8 L 202.8 309.4 M 202.8 309.4 L 208.4 301.3 M 208.4 301.3 L 211.8 292.2 M 211.8 292.2 L 213 282.5 M 213 282.5 L 211.8 272.8 M 211.8 272.8 L 208.4 263.7 M 208.4 263.7 L 202.8 255.6 M 202.8 255.6 L 195.5 249.2 M 195.5 249.2 L 186.9 244.6 M 186.9 244.6 L 177.4 242.3 M 177.4 142.3 L 167.6 142.3 M 167.6 142.3 L 158.1 144.6 M 158.1 144.6 L 149.5 149.2 M 149.5 149.2 L 142.2 155.6 M 142.2 155.6 L 136.6 163.7 M 136.6 163.7 L 133.2 172.8 M 133.2 172.8 L 132 182.5 M 132 182.5 L 133.2 192.2 M 133.2 192.2 L 136.6 201.3 M 136.6 201.3 L 142.2 209.4 M 142.2 209.4 L 149.5 215.8 M 149.5 215.8 L 158.1 220.4 M 158.1 220.4 L 167.6 222.7 M 167.6 222.7 L 177.4 222.7 M 177.4 222.7 L 185.3 220.8 M 185.3 220.8 L 259.7 295.3 M 259.7 295.3 L 262.5 297.5 M 262.5 297.5 L 265.6 299.2 M 265.6 299.2 L 269 300.2 M 269 300.2 L 272.5 300.5 M 272.5 300.5 L 276.1 300.5 M 276.1 300.5 L 282.2 309.4 M 282.2 309.4 L 289.5 315.8 M 289.5 315.8 L 298.1 320.4 M 298.1 320.4 L 307.6 322.7 M 307.6 322.7 L 317.4 322.7 M 317.4 322.7 L 326.9 320.4 M 326.9 320.4 L 335.5 315.8 M 335.5 315.8 L 342.8 309.4 M 342.8 309.4 L 348.4 301.3 M 348.4 301.3 L 351.8 292.2 M 351.8 292.2 L 353 282.5 M 353 282.5 L 351.8 272.8 M 351.8 272.8 L 348.4 263.7 M 348.4 263.7 L 342.8 255.6 M 342.8 255.6 L 335.5 249.2 M 335.5 249.2 L 326.9 244.6 M 326.9 244.6 L 317.4 242.3 M 317.4 242.3 L 307.6 242.3 M 307.6 242.3 L 298.1 244.6 M 298.1 244.6 L 289.5 249.2 M 289.5 249.2 L 282.2 255.6 M 282.2 255.6 L 277.7 262.1 M 277.7 262.1 L 210.7 195.2 M 210.7 195.2 L 211.8 192.2 M 211.8 192.2 L 213 182.5 M 213 182.5 L 211.8 172.8 M 211.8 172.8 L 208.4 163.7 M 208.4 163.7 L 202.8 155.6 M 202.8 155.6 L 195.5 149.2 M 195.5 149.2 L 186.9 144.6 M 186.9 144.6 L 177.4 142.3 M 317.4 142.3 L 307.6 142.3 M 307.6 142.3 L 298.1 144.6 M 298.1 144.6 L 289.5 149.2 M 289.5 149.2 L 282.2 155.6 M 282.2 155.6 L 276.6 163.7 M 276.6 163.7 L 273.2 172.8 M 273.2 172.8 L 272 182.5 M 272 182.5 L 273.2 192.2 M 273.2 192.2 L 276.6 201.3 M 276.6 201.3 L 282.2 209.4 M 282.2 209.4 L 289.5 215.8 M 289.5 215.8 L 298.1 220.4 M 298.1 220.4 L 307.6 222.7 M 307.6 222.7 L 317.4 222.7 M 317.4 222.7 L 326.9 220.4 M 326.9 220.4 L 335.5 215.8 M 335.5 215.8 L 342.8 209.4 M 342.8 209.4 L 348.4 201.3 M 348.4 201.3 L 351.8 192.2 M 351.8 192.2 L 353 182.5 M 353 182.5 L 351.8 172.8 M 351.8 172.8 L 348.4 163.7 M 348.4 163.7 L 342.8 155.6 M 342.8 155.6 L 335.5 149.2 M 335.5 149.2 L 326.9 144.6 M 326.9 144.6 L 317.4 142.3 M 177.4 42.3 L 167.6 42.3 M 167.6 42.3 L 158.1 44.6 M 158.1 44.6 L 149.5 49.2 M 149.5 49.2 L 142.2 55.6 M 142.2 55.6 L 136.6 63.7 M 136.6 63.7 L 133.2 72.8 M 133.2 72.8 L 132 82.5 M 132 82.5 L 133.2 92.2 M 133.2 92.2 L 136.6 101.3 M 136.6 101.3 L 142.2 109.4 M 142.2 109.4 L 149.5 115.8 M 149.5 115.8 L 158.1 120.4 M 158.1 120.4 L 167.6 122.7 M 167.6 122.7 L 177.4 122.7 M 177.4 122.7 L 186.9 120.4 M 186.9 120.4 L 195.5 115.8 M 195.5 115.8 L 202.8 109.4 M 202.8 109.4 L 208.4 101.3 M 208.4 101.3 L 211.8 92.2 M 211.8 92.2 L 213 82.5 M 213 82.5 L 211.8 72.8 M 211.8 72.8 L 208.4 63.7 M 208.4 63.7 L 202.8 55.6 M 202.8 55.6 L 195.5 49.2 M 195.5 49.2 L 186.9 44.6 M 186.9 44.6 L 177.4 42.3 M 317.4 42.3 L 307.6 42.3 M 307.6 42.3 L 298.1 44.6 M 298.1 44.6 L 289.5 49.2 M 289.5 49.2 L 282.2 55.6 M 282.2 55.6 L 276.6 63.7 M 276.6 63.7 L 273.2 72.8 M 273.2 72.8 L 272 82.5 M 272 82.5 L 273.2 92.2 M 273.2 92.2 L 276.6 101.3 M 276.6 101.3 L 282.2 109.4 M 282.2 109.4 L 289.5 115.8 M 289.5 115.8 L 298.1 120.4 M 298.1 120.4 L 307.6 122.7 M 307.6 122.7 L 317.4 122.7 M 317.4 122.7 L 326.9 120.4 M 326.9 120.4 L 335.5 115.8 M 335.5 115.8 L 342.8 109.4 M 342.8 109.4 L 348.4 101.3 M 348.4 101.3 L 351.8 92.2 M 351.8 92.2 L 353 82.5 M 353 82.5 L 351.8 72.8 M 351.8 72.8 L 348.4 63.7 M 348.4 63.7 L 342.8 55.6 M 342.8 55.6 L 335.5 49.2 M 335.5 49.2 L 326.9 44.6 M 326.9 44.6 L 317.4 42.3 M 27.5 29.5 L 457.5 29.5 M 27.5 31.4 L 457.5 31.4 M 27.5 33.4 L 457.5 33.4 M 27.5 35.3 L 457.5 35.3 M 27.5 37.3 L 457.5 37.3 M 27.5 39.2 L 457.5 39.2 M 27.5 41.2 L 457.5 41.2 M 27.5 43.1 L 164.2 43.1 M 180.8 43.1 L 304.2 43.1 M 320.8 43.1 L 457.5 43.1 M 27.5 45.1 L 157.3 45.1 M 187.7 45.1 L 297.3 45.1 M 327.7 45.1 L 457.5 45.1 M 27.5 47 L 153.6 47 M 191.4 47 L 293.6 47 M 331.4 47 L 457.5 47 M 27.5 49 L 149.9 49 M 195.1 49 L 289.9 49 M 335.1 49 L 457.5 49 M 27.5 50.9 L 147.5 50.9 M 197.5 50.9 L 287.5 50.9 M 337.5 50.9 L 457.5 50.9 M 27.5 52.9 L 145.3 52.9 M 199.7 52.9 L 285.3 52.9 M 339.7 52.9 L 457.5 52.9 M 27.5 54.8 L 143.1 54.8 M 201.9 54.8 L 283.1 54.8 M 341.9 54.8 L 457.5 54.8 M 27.5 56.8 L 141.4 56.8 M 203.6 56.8 L 281.4 56.8 M 343.6 56.8 L 457.5 56.8 M 27.5 58.7 L 140.1 58.7 M 204.9 58.7 L 280.1 58.7 M 344.9 58.7 L 457.5 58.7 M 27.5 60.6 L 138.7 60.6 M 206.3 60.6 L 278.7 60.6 M 346.3 60.6 L 457.5 60.6 M 27.5 62.6 L 137.3 62.6 M 207.7 62.6 L 277.3 62.6 M 347.7 62.6 L 457.5 62.6 M 27.5 64.5 L 136.3 64.5 M 208.7 64.5 L 276.3 64.5 M 348.7 64.5 L 457.5 64.5 M 27.5 66.5 L 135.5 66.5 M 209.5 66.5 L 275.5 66.5 M 349.5 66.5 L 457.5 66.5 M 27.5 68.4 L 134.8 68.4 M 210.2 68.4 L 274.8 68.4 M 350.2 68.4 L 457.5 68.4 M 27.5 70.4 L 134.1 70.4 M 210.9 70.4 L 274.1 70.4 M 350.9 70.4 L 457.5 70.4 M 27.5 72.3 L 133.3 72.3 M 211.7 72.3 L 273.3 72.3 M 351.7 72.3 L 457.5 72.3 M 27.5 74.3 L 133 74.3 M 212 74.3 L 273 74.3 M 352 74.3 L 457.5 74.3 M 27.5 76.2 L 132.7 76.2 M 212.3 76.2 L 272.7 76.2 M 352.3 76.2 L 457.5 76.2 M 27.5 78.2 L 132.5 78.2 M 212.5 78.2 L 272.5 78.2 M 352.5 78.2 L 457.5 78.2 M 27.5 80.1 L 132.3 80.1 M 212.7 80.1 L 272.3 80.1 M 352.7 80.1 L 457.5 80.1 M 27.5 82.1 L 132 82.1 M 213 82.1 L 272 82.1 M 353 82.1 L 457.5 82.1 M 27.5 84 L 132.1 84 M 212.9 84 L 272.1 84 M 352.9 84 L 457.5 84 M 27.5 86 L 132.4 86 M 212.6 86 L 272.4 86 M 352.6 86 L 457.5 86 M 27.5 87.9 L 132.6 87.9 M 212.4 87.9 L 272.6 87.9 M 352.4 87.9 L 457.5 87.9 M 27.5 89.9 L 132.9 89.9 M 212.1 89.9 L 272.9 89.9 M 352.1 89.9 L 457.5 89.9 M 27.5 91.8 L 133.1 91.8 M 211.9 91.8 L 273.1 91.8 M 351.9 91.8 L 457.5 91.8 M 27.5 93.8 L 133.8 93.8 M 211.2 93.8 L 273.8 93.8 M 351.2 93.8 L 457.5 93.8 M 27.5 95.8 L 134.5 95.8 M 210.5 95.8 L 274.5 95.8 M 350.5 95.8 L 457.5 95.8 M 27.5 97.7 L 135.2 97.7 M 209.8 97.7 L 275.2 97.7 M 349.8 97.7 L 457.5 97.7 M 27.5 99.7 L 136 99.7 M 209 99.7 L 276 99.7 M 349 99.7 L 457.5 99.7 M 27.5 101.6 L 136.8 101.6 M 208.2 101.6 L 276.8 101.6 M 348.2 101.6 L 457.5 101.6 M 27.5 103.6 L 138.1 103.6 M 206.9 103.6 L 278.1 103.6 M 346.9 103.6 L 457.5 103.6 M 27.5 105.5 L 139.5 105.5 M 205.5 105.5 L 279.5 105.5 M 345.5 105.5 L 457.5 105.5 M 27.5 107.5 L 140.8 107.5 M 204.2 107.5 L 280.8 107.5 M 344.2 107.5 L 457.5 107.5 M 27.5 109.4 L 142.2 109.4 M 202.8 109.4 L 282.2 109.4 M 342.8 109.4 L 457.5 109.4 M 27.5 111.4 L 144.4 111.4 M 200.6 111.4 L 284.4 111.4 M 340.6 111.4 L 457.5 111.4 M 27.5 113.3 L 146.6 113.3 M 198.4 113.3 L 286.6 113.3 M 338.4 113.3 L 457.5 113.3 M 27.5 115.3 L 148.8 115.3 M 196.2 115.3 L 288.8 115.3 M 336.2 115.3 L 457.5 115.3 M 27.5 117.2 L 152 117.2 M 193 117.2 L 292 117.2 M 333 117.2 L 457.5 117.2 M 27.5 119.2 L 155.8 119.2 M 189.2 119.2 L 295.8 119.2 M 329.2 119.2 L 457.5 119.2 M 27.5 121.1 L 161 121.1 M 184 121.1 L 301 121.1 M 324 121.1 L 457.5 121.1 M 27.5 123.1 L 457.5 123.1 M 27.5 125 L 457.5 125 M 27.5 126.9 L 457.5 126.9 M 27.5 128.9 L 457.5 128.9 M 27.5 130.8 L 457.5 130.8 M 27.5 132.8 L 457.5 132.8 M 27.5 134.7 L 457.5 134.7 M 27.5 136.7 L 457.5 136.7 M 27.5 138.6 L 457.5 138.6 M 27.5 140.6 L 457.5 140.6 M 27.5 142.5 L 166.5 142.5 M 178.5 142.5 L 306.5 142.5 M 318.5 142.5 L 457.5 142.5 M 27.5 144.5 L 158.6 144.5 M 186.4 144.5 L 298.6 144.5 M 326.4 144.5 L 457.5 144.5 M 27.5 146.4 L 154.6 146.4 M 190.4 146.4 L 294.6 146.4 M 330.4 146.4 L 457.5 146.4 M 27.5 148.4 L 150.9 148.4 M 194.1 148.4 L 290.9 148.4 M 334.1 148.4 L 457.5 148.4 M 27.5 150.3 L 148.1 150.3 M 196.9 150.3 L 288.1 150.3 M 336.9 150.3 L 457.5 150.3 M 27.5 152.3 L 145.9 152.3 M 199.1 152.3 L 285.9 152.3 M 339.1 152.3 L 457.5 152.3 M 27.5 154.2 L 143.7 154.2 M 201.3 154.2 L 283.7 154.2 M 341.3 154.2 L 457.5 154.2 M 27.5 156.2 L 141.8 156.2 M 203.2 156.2 L 281.8 156.2 M 343.2 156.2 L 457.5 156.2 M 27.5 158.2 L 140.4 158.2 M 204.6 158.2 L 280.4 158.2 M 344.6 158.2 L 457.5 158.2 M 27.5 160.1 L 139.1 160.1 M 205.9 160.1 L 279.1 160.1 M 345.9 160.1 L 457.5 160.1 M 27.5 162.1 L 137.7 162.1 M 207.3 162.1 L 277.7 162.1 M 347.3 162.1 L 457.5 162.1 M 27.5 164 L 136.5 164 M 208.5 164 L 276.5 164 M 348.5 164 L 457.5 164 M 27.5 166 L 135.7 166 M 209.3 166 L 275.7 166 M 349.3 166 L 457.5 166 M 27.5 167.9 L 135 167.9 M 210 167.9 L 275 167.9 M 350 167.9 L 457.5 167.9 M 27.5 169.9 L 134.3 169.9 M 210.7 169.9 L 274.3 169.9 M 350.7 169.9 L 457.5 169.9 M 27.5 171.8 L 133.5 171.8 M 211.5 171.8 L 273.5 171.8 M 351.5 171.8 L 457.5 171.8 M 27.5 173.8 L 133.1 173.8 M 211.9 173.8 L 273.1 173.8 M 351.9 173.8 L 457.5 173.8 M 27.5 175.7 L 132.8 175.7 M 212.2 175.7 L 272.8 175.7 M 352.2 175.7 L 457.5 175.7 M 27.5 177.7 L 132.6 177.7 M 212.4 177.7 L 272.6 177.7 M 352.4 177.7 L 457.5 177.7 M 27.5 179.6 L 132.3 179.6 M 212.7 179.6 L 272.3 179.6 M 352.7 179.6 L 457.5 179.6 M 27.5 181.6 L 132.1 181.6 M 212.9 181.6 L 272.1 181.6 M 352.9 181.6 L 457.5 181.6 M 27.5 183.5 L 132.1 183.5 M 212.9 183.5 L 272.1 183.5 M 352.9 183.5 L 457.5 183.5 M 27.5 185.5 L 132.3 185.5 M 212.7 185.5 L 272.3 185.5 M 352.7 185.5 L 457.5 185.5 M 27.5 187.4 L 132.6 187.4 M 212.4 187.4 L 272.6 187.4 M 352.4 187.4 L 457.5 187.4 M 27.5 189.4 L 132.8 189.4 M 212.2 189.4 L 272.8 189.4 M 352.2 189.4 L 457.5 189.4 M 27.5 191.3 L 133.1 191.3 M 211.9 191.3 L 273.1 191.3 M 351.9 191.3 L 457.5 191.3 M 27.5 193.2 L 133.6 193.2 M 211.4 193.2 L 273.6 193.2 M 351.4 193.2 L 457.5 193.2 M 27.5 195.2 L 134.3 195.2 M 210.7 195.2 L 274.3 195.2 M 350.7 195.2 L 457.5 195.2 M 27.5 197.1 L 135 197.1 M 212.7 197.1 L 275 197.1 M 350 197.1 L 457.5 197.1 M 27.5 199.1 L 135.8 199.1 M 214.6 199.1 L 275.8 199.1 M 349.2 199.1 L 457.5 199.1 M 27.5 201 L 136.5 201 M 216.6 201 L 276.5 201 M 348.5 201 L 457.5 201 M 27.5 203 L 137.8 203 M 218.5 203 L 277.8 203 M 347.2 203 L 457.5 203 M 27.5 204.9 L 139.1 204.9 M 220.5 204.9 L 279.1 204.9 M 345.9 204.9 L 457.5 204.9 M 27.5 206.9 L 140.5 206.9 M 222.4 206.9 L 280.5 206.9 M 344.5 206.9 L 457.5 206.9 M 27.5 208.8 L 141.8 208.8 M 224.4 208.8 L 281.8 208.8 M 343.2 208.8 L 457.5 208.8 M 27.5 210.8 L 143.8 210.8 M 226.3 210.8 L 283.8 210.8 M 341.2 210.8 L 457.5 210.8 M 27.5 212.7 L 146 212.7 M 228.3 212.7 L 286 212.7 M 339 212.7 L 457.5 212.7 M 27.5 214.7 L 148.2 214.7 M 230.2 214.7 L 288.2 214.7 M 336.8 214.7 L 457.5 214.7 M 27.5 216.6 L 151 216.6 M 232.2 216.6 L 291 216.6 M 334 216.6 L 457.5 216.6 M 27.5 218.6 L 154.7 218.6 M 234.1 218.6 L 294.7 218.6 M 330.3 218.6 L 457.5 218.6 M 27.5 220.5 L 158.8 220.5 M 236.1 220.5 L 298.8 220.5 M 326.2 220.5 L 457.5 220.5 M 27.5 222.5 L 166.7 222.5 M 178.3 222.5 L 187 222.5 M 238 222.5 L 306.7 222.5 M 318.3 222.5 L 457.5 222.5 M 27.5 224.5 L 188.9 224.5 M 240 224.5 L 457.5 224.5 M 27.5 226.4 L 190.9 226.4 M 241.9 226.4 L 457.5 226.4 M 27.5 228.4 L 192.8 228.4 M 243.9 228.4 L 457.5 228.4 M 27.5 230.3 L 194.8 230.3 M 245.8 230.3 L 457.5 230.3 M 27.5 232.3 L 196.7 232.3 M 247.8 232.3 L 457.5 232.3 M 27.5 234.2 L 198.7 234.2 M 249.7 234.2 L 457.5 234.2 M 27.5 236.2 L 200.6 236.2 M 251.7 236.2 L 457.5 236.2 M 27.5 238.1 L 202.6 238.1 M 253.6 238.1 L 457.5 238.1 M 27.5 240.1 L 204.5 240.1 M 255.6 240.1 L 457.5 240.1 M 27.5 242 L 206.5 242 M 257.5 242 L 457.5 242 M 27.5 244 L 160.8 244 M 184.2 244 L 208.4 244 M 259.5 244 L 300.8 244 M 324.2 244 L 457.5 244 M 27.5 245.9 L 155.6 245.9 M 189.4 245.9 L 210.4 245.9 M 261.4 245.9 L 295.6 245.9 M 329.4 245.9 L 457.5 245.9 M 27.5 247.9 L 151.9 247.9 M 193.1 247.9 L 212.3 247.9 M 263.4 247.9 L 291.9 247.9 M 333.1 247.9 L 457.5 247.9 M 27.5 249.8 L 148.7 249.8 M 196.3 249.8 L 214.3 249.8 M 265.3 249.8 L 288.7 249.8 M 336.3 249.8 L 457.5 249.8 M 27.5 251.8 L 146.6 251.8 M 198.4 251.8 L 216.2 251.8 M 267.3 251.8 L 286.6 251.8 M 338.4 251.8 L 457.5 251.8 M 27.5 253.7 L 144.4 253.7 M 200.6 253.7 L 218.2 253.7 M 269.2 253.7 L 284.4 253.7 M 340.6 253.7 L 457.5 253.7 M 27.5 255.6 L 142.1 255.6 M 202.9 255.6 L 220.1 255.6 M 271.2 255.6 L 282.1 255.6 M 342.9 255.6 L 457.5 255.6 M 27.5 257.6 L 140.8 257.6 M 204.2 257.6 L 222.1 257.6 M 273.1 257.6 L 280.8 257.6 M 344.2 257.6 L 457.5 257.6 M 27.5 259.5 L 139.5 259.5 M 205.5 259.5 L 224 259.5 M 275.1 259.5 L 279.5 259.5 M 345.5 259.5 L 457.5 259.5 M 27.5 261.5 L 138.1 261.5 M 206.9 261.5 L 226 261.5 M 277 261.5 L 278.1 261.5 M 346.9 261.5 L 457.5 261.5 M 27.5 263.4 L 136.8 263.4 M 208.2 263.4 L 227.9 263.4 M 348.2 263.4 L 457.5 263.4 M 27.5 265.4 L 136 265.4 M 209 265.4 L 229.9 265.4 M 349 265.4 L 457.5 265.4 M 27.5 267.3 L 135.2 267.3 M 209.8 267.3 L 231.8 267.3 M 349.8 267.3 L 457.5 267.3 M 27.5 269.3 L 134.5 269.3 M 210.5 269.3 L 233.8 269.3 M 350.5 269.3 L 457.5 269.3 M 27.5 271.2 L 133.7 271.2 M 211.3 271.2 L 235.7 271.2 M 351.3 271.2 L 457.5 271.2 M 27.5 273.2 L 133.1 273.2 M 211.9 273.2 L 237.7 273.2 M 351.9 273.2 L 457.5 273.2 M 27.5 275.1 L 132.9 275.1 M 212.1 275.1 L 239.6 275.1 M 352.1 275.1 L 457.5 275.1 M 27.5 277.1 L 132.6 277.1 M 212.4 277.1 L 241.6 277.1 M 352.4 277.1 L 457.5 277.1 M 27.5 279 L 132.4 279 M 212.6 279 L 243.5 279 M 352.6 279 L 457.5 279 M 27.5 281 L 132.1 281 M 212.9 281 L 245.5 281 M 352.9 281 L 457.5 281 M 27.5 282.9 L 132 282.9 M 213 282.9 L 247.4 282.9 M 353 282.9 L 457.5 282.9 M 27.5 284.9 L 132.3 284.9 M 212.7 284.9 L 249.4 284.9 M 352.7 284.9 L 457.5 284.9 M 27.5 286.8 L 132.5 286.8 M 212.5 286.8 L 251.3 286.8 M 352.5 286.8 L 457.5 286.8 M 27.5 288.8 L 132.7 288.8 M 212.3 288.8 L 253.3 288.8 M 352.3 288.8 L 457.5 288.8 M 27.5 290.8 L 133 290.8 M 212 290.8 L 255.2 290.8 M 352 290.8 L 457.5 290.8 M 27.5 292.7 L 133.3 292.7 M 211.7 292.7 L 257.2 292.7 M 351.7 292.7 L 457.5 292.7 M 27.5 294.7 L 134.1 294.7 M 210.9 294.7 L 259.1 294.7 M 350.9 294.7 L 457.5 294.7 M 27.5 296.6 L 134.8 296.6 M 210.2 296.6 L 261.4 296.6 M 350.2 296.6 L 457.5 296.6 M 27.5 298.6 L 135.6 298.6 M 209.4 298.6 L 264.4 298.6 M 349.4 298.6 L 457.5 298.6 M 27.5 300.5 L 136.3 300.5 M 208.7 300.5 L 272 300.5 M 348.7 300.5 L 457.5 300.5 M 27.5 302.5 L 137.4 302.5 M 207.6 302.5 L 277.4 302.5 M 347.6 302.5 L 457.5 302.5 M 27.5 304.4 L 138.7 304.4 M 206.3 304.4 L 278.7 304.4 M 346.3 304.4 L 457.5 304.4 M 27.5 306.4 L 140.1 306.4 M 204.9 306.4 L 280.1 306.4 M 344.9 306.4 L 457.5 306.4 M 27.5 308.3 L 141.4 308.3 M 203.6 308.3 L 281.4 308.3 M 343.6 308.3 L 457.5 308.3 M 27.5 310.3 L 143.1 310.3 M 201.9 310.3 L 283.1 310.3 M 341.9 310.3 L 457.5 310.3 M 27.5 312.2 L 145.3 312.2 M 199.7 312.2 L 285.3 312.2 M 339.7 312.2 L 457.5 312.2 M 27.5 314.2 L 147.5 314.2 M 197.5 314.2 L 287.5 314.2 M 337.5 314.2 L 457.5 314.2 M 27.5 316.1 L 149.9 316.1 M 195.1 316.1 L 289.9 316.1 M 335.1 316.1 L 457.5 316.1 M 27.5 318.1 L 153.6 318.1 M 191.4 318.1 L 293.6 318.1 M 331.4 318.1 L 457.5 318.1 M 27.5 320 L 157.4 320 M 187.6 320 L 297.4 320 M 327.6 320 L 457.5 320 M 27.5 321.9 L 164.4 321.9 M 180.6 321.9 L 304.4 321.9 M 320.6 321.9 L 457.5 321.9 M 27.5 323.9 L 457.5 323.9 M 27.5 325.8 L 457.5 325.8 M 27.5 327.8 L 457.5 327.8 M 27.5 329.7 L 457.5 329.7 M 27.5 331.7 L 457.5 331.7 M 27.5 333.6 L 457.5 333.6 M 27.5 335.6 L 457.5 335.6 M 27.5 337.5 L 457.5 337.5 M 27.5 339.5 L 457.5 339.5 M 27.5 341.4 L 457.5 341.4 M 27.5 343.4 L 163 343.4 M 182 343.4 L 303 343.4 M 322 343.4 L 457.5 343.4 M 27.5 345.3 L 156.7 345.3 M 188.3 345.3 L 296.7 345.3 M 328.3 345.3 L 457.5 345.3 M 27.5 347.3 L 153 347.3 M 192 347.3 L 293 347.3 M 332 347.3 L 457.5 347.3 M 27.5 349.2 L 149.4 349.2 M 195.6 349.2 L 289.4 349.2 M 335.6 349.2 L 457.5 349.2 M 27.5 351.2 L 147.1 351.2 M 197.9 351.2 L 287.1 351.2 M 337.9 351.2 L 457.5 351.2 M 27.5 353.2 L 144.9 353.2 M 200.1 353.2 L 284.9 353.2 M 340.1 353.2 L 457.5 353.2 M 27.5 355.1 L 142.7 355.1 M 202.3 355.1 L 282.7 355.1 M 342.3 355.1 L 457.5 355.1 M 27.5 357.1 L 141.2 357.1 M 203.8 357.1 L 281.2 357.1 M 343.8 357.1 L 457.5 357.1 M 27.5 359 L 139.8 359 M 205.2 359 L 279.8 359 M 345.2 359 L 457.5 359 M 27.5 361 L 138.5 361 M 206.5 361 L 278.5 361 M 346.5 361 L 457.5 361 M 27.5 362.9 L 137.1 362.9 M 207.9 362.9 L 277.1 362.9 M 347.9 362.9 L 457.5 362.9 M 27.5 364.9 L 136.2 364.9 M 208.8 364.9 L 276.2 364.9 M 348.8 364.9 L 457.5 364.9 M 27.5 366.8 L 135.4 366.8 M 209.6 366.8 L 275.4 366.8 M 349.6 366.8 L 457.5 366.8 M 27.5 368.8 L 134.7 368.8 M 210.3 368.8 L 274.7 368.8 M 350.3 368.8 L 457.5 368.8 M 27.5 370.7 L 134 370.7 M 211 370.7 L 274 370.7 M 351 370.7 L 457.5 370.7 M 27.5 372.7 L 133.2 372.7 M 211.8 372.7 L 273.2 372.7 M 351.8 372.7 L 457.5 372.7 M 27.5 374.6 L 132.9 374.6 M 212.1 374.6 L 272.9 374.6 M 352.1 374.6 L 457.5 374.6 M 27.5 376.6 L 132.7 376.6 M 212.3 376.6 L 272.7 376.6 M 352.3 376.6 L 457.5 376.6 M 27.5 378.5 L 132.5 378.5 M 212.5 378.5 L 272.5 378.5 M 352.5 378.5 L 457.5 378.5 M 27.5 380.5 L 132.2 380.5 M 212.8 380.5 L 272.2 380.5 M 352.8 380.5 L 457.5 380.5 M 27.5 382.4 L 132 382.4 M 213 382.4 L 272 382.4 M 353 382.4 L 457.5 382.4 M 27.5 384.4 L 132.2 384.4 M 212.8 384.4 L 272.2 384.4 M 352.8 384.4 L 457.5 384.4 M 27.5 386.3 L 132.4 386.3 M 212.6 386.3 L 272.4 386.3 M 352.6 386.3 L 457.5 386.3 M 27.5 388.2 L 132.7 388.2 M 212.3 388.2 L 272.7 388.2 M 352.3 388.2 L 457.5 388.2 M 27.5 390.2 L 132.9 390.2 M 212.1 390.2 L 272.9 390.2 M 352.1 390.2 L 457.5 390.2 M 27.5 392.1 L 133.1 392.1 M 211.9 392.1 L 273.1 392.1 M 351.9 392.1 L 457.5 392.1 M 27.5 394.1 L 133.9 394.1 M 211.1 394.1 L 273.9 394.1 M 351.1 394.1 L 457.5 394.1 M 27.5 396 L 134.6 396 M 210.4 396 L 274.6 396 M 350.4 396 L 457.5 396 M 27.5 398 L 135.3 398 M 209.7 398 L 275.3 398 M 349.7 398 L 457.5 398 M 27.5 399.9 L 136.1 399.9 M 208.9 399.9 L 276.1 399.9 M 348.9 399.9 L 457.5 399.9 M 27.5 401.9 L 137 401.9 M 208 401.9 L 277 401.9 M 348 401.9 L 457.5 401.9 M 27.5 403.8 L 138.4 403.8 M 206.6 403.8 L 278.4 403.8 M 346.6 403.8 L 457.5 403.8 M 27.5 405.8 L 139.7 405.8 M 205.3 405.8 L 279.7 405.8 M 345.3 405.8 L 457.5 405.8 M 27.5 407.7 L 141 407.7 M 204 407.7 L 281 407.7 M 344 407.7 L 457.5 407.7 M 27.5 409.7 L 142.5 409.7 M 202.5 409.7 L 282.5 409.7 M 342.5 409.7 L 457.5 409.7 M 27.5 411.6 L 144.7 411.6 M 200.3 411.6 L 284.7 411.6 M 340.3 411.6 L 457.5 411.6 M 27.5 413.6 L 146.9 413.6 M 198.1 413.6 L 286.9 413.6 M 338.1 413.6 L 457.5 413.6 M 27.5 415.5 L 149.1 415.5 M 195.9 415.5 L 289.1 415.5 M 335.9 415.5 L 457.5 415.5 M 27.5 417.5 L 152.6 417.5 M 192.4 417.5 L 292.6 417.5 M 332.4 417.5 L 457.5 417.5 M 27.5 419.5 L 156.3 419.5 M 188.7 419.5 L 296.3 419.5 M 328.7 419.5 L 457.5 419.5 M 27.5 421.4 L 162.2 421.4 M 182.8 421.4 L 302.2 421.4 M 322.8 421.4 L 457.5 421.4 M 27.5 423.4 L 457.5 423.4 M 27.5 425.3 L 457.5 425.3 M 27.5 427.3 L 457.5 427.3 M 27.5 429.2 L 457.5 429.2 M 27.5 431.2 L 457.5 431.2 M 27.5 433.1 L 457.5 433.1 M 27.5 435.1 L 457.5 435.1 M 27.5 437 L 457.5 437 M 27.5 439 L 457.5 439 M 27.5 440.9 L 457.5 440.9 M 27.5 442.9 L 165.3 442.9 M 179.7 442.9 L 305.3 442.9 M 319.7 442.9 L 457.5 442.9 M 27.5 444.8 L 157.7 444.8 M 187.3 444.8 L 297.7 444.8 M 327.3 444.8 L 457.5 444.8 M 27.5 446.8 L 154 446.8 M 191 446.8 L 294 446.8 M 331 446.8 L 457.5 446.8 M 27.5 448.7 L 150.3 448.7 M 194.7 448.7 L 290.3 448.7 M 334.7 448.7 L 457.5 448.7 M 27.5 450.6 L 147.8 450.6 M 197.2 450.6 L 287.8 450.6 M 337.2 450.6 L 457.5 450.6 M 27.5 452.6 L 145.6 452.6 M 199.4 452.6 L 285.6 452.6 M 339.4 452.6 L 457.5 452.6 M 27.5 454.5 L 143.4 454.5 M 201.6 454.5 L 283.4 454.5 M 341.6 454.5 L 457.5 454.5 M 27.5 456.5 L 141.6 456.5 M 203.4 456.5 L 281.6 456.5 M 343.4 456.5 L 457.5 456.5 M 27.5 458.4 L 140.2 458.4 M 204.8 458.4 L 280.2 458.4 M 344.8 458.4 L 457.5 458.4 M 27.5 460.4 L 138.9 460.4 M 206.1 460.4 L 278.9 460.4 M 346.1 460.4 L 457.5 460.4 M 27.5 462.3 L 137.5 462.3 M 207.5 462.3 L 277.5 462.3 M 347.5 462.3 L 457.5 462.3 M 27.5 464.3 L 136.4 464.3 M 208.6 464.3 L 276.4 464.3 M 348.6 464.3 L 457.5 464.3 M 27.5 466.2 L 135.6 466.2 M 209.4 466.2 L 275.6 466.2 M 349.4 466.2 L 457.5 466.2 M 27.5 468.2 L 134.9 468.2 M 210.1 468.2 L 274.9 468.2 M 350.1 468.2 L 457.5 468.2 M 27.5 470.1 L 134.2 470.1 M 210.8 470.1 L 274.2 470.1 M 350.8 470.1 L 457.5 470.1 M 27.5 472.1 L 133.4 472.1 M 211.6 472.1 L 273.4 472.1 M 351.6 472.1 L 457.5 472.1 M 27.5 474 L 133 474 M 212 474 L 273 474 M 352 474 L 457.5 474 M 27.5 476 L 132.8 476 M 212.2 476 L 272.8 476 M 352.2 476 L 457.5 476 M 27.5 477.9 L 132.5 477.9 M 212.5 477.9 L 272.5 477.9 M 352.5 477.9 L 457.5 477.9 M 27.5 479.9 L 132.3 479.9 M 212.7 479.9 L 272.3 479.9 M 352.7 479.9 L 457.5 479.9 M 27.5 481.8 L 132.1 481.8 M 212.9 481.8 L 272.1 481.8 M 352.9 481.8 L 457.5 481.8 M 27.5 483.8 L 132.1 483.8 M 212.9 483.8 L 272.1 483.8 M 352.9 483.8 L 457.5 483.8 M 27.5 485.8 L 132.4 485.8 M 212.6 485.8 L 272.4 485.8 M 352.6 485.8 L 457.5 485.8 M 27.5 487.7 L 132.6 487.7 M 212.4 487.7 L 272.6 487.7 M 352.4 487.7 L 457.5 487.7 M 27.5 489.7 L 132.9 489.7 M 212.1 489.7 L 272.9 489.7 M 352.1 489.7 L 457.5 489.7 M 27.5 491.6 L 133.1 491.6 M 211.9 491.6 L 273.1 491.6 M 351.9 491.6 L 457.5 491.6 M 27.5 493.6 L 133.6 493.6 M 211.4 493.6 L 273.6 493.6 M 351.4 493.6 L 457.5 493.6 M 27.5 495.5 L 134.4 495.5 M 210.6 495.5 L 274.4 495.5 M 350.6 495.5 L 457.5 495.5 M 27.5 497.5 L 135.1 497.5 M 209.9 497.5 L 275.1 497.5 M 349.9 497.5 L 457.5 497.5 M 27.5 499.4 L 135.9 499.4 M 209.1 499.4 L 275.9 499.4 M 349.1 499.4 L 457.5 499.4 M 27.5 501.4 L 136.6 501.4 M 208.4 501.4 L 276.6 501.4 M 348.4 501.4 L 457.5 501.4 M 27.5 503.3 L 138 503.3 M 207 503.3 L 278 503.3 M 347 503.3 L 457.5 503.3 M 27.5 505.3 L 139.3 505.3 M 205.7 505.3 L 279.3 505.3 M 345.7 505.3 L 457.5 505.3 M 27.5 507.2 L 140.6 507.2 M 204.4 507.2 L 280.6 507.2 M 344.4 507.2 L 457.5 507.2 M 27.5 509.2 L 142 509.2 M 203 509.2 L 282 509.2 M 343 509.2 L 457.5 509.2 M 27.5 511.1 L 144.1 511.1 M 200.9 511.1 L 284.1 511.1 M 340.9 511.1 L 457.5 511.1 M 27.5 513.1 L 146.3 513.1 M 198.7 513.1 L 286.3 513.1 M 338.7 513.1 L 457.5 513.1 M 27.5 515 L 148.5 515 M 196.5 515 L 288.5 515 M 336.5 515 L 457.5 515 M 27.5 516.9 L 151.6 516.9 M 193.4 516.9 L 291.6 516.9 M 333.4 516.9 L 457.5 516.9 M 27.5 518.9 L 155.3 518.9 M 189.7 518.9 L 295.3 518.9 M 329.7 518.9 L 457.5 518.9 M 27.5 520.8 L 160 520.8 M 185 520.8 L 300 520.8 M 325 520.8 L 457.5 520.8 M 27.5 522.8 L 457.5 522.8 M 27.5 524.7 L 457.5 524.7 M 27.5 526.7 L 457.5 526.7 M 27.5 528.6 L 457.5 528.6 M 27.5 530.6 L 457.5 530.6 M 27.5 532.5 L 457.5 532.5 M 27.5 534.5 L 457.5 534.5 M 27.5 536.4 L 457.5 536.4 M 27.5 538.4 L 457.5 538.4 M 27.5 540.3 L 457.5 540.3 M 27.5 542.3 L 137.8 542.3 M 164.6 542.3 L 180.4 542.3 M 207.2 542.3 L 277.8 542.3 M 304.6 542.3 L 320.4 542.3 M 347.2 542.3 L 457.5 542.3 M 27.5 544.2 L 134.4 544.2 M 164.6 544.2 L 180.4 544.2 M 210.6 544.2 L 274.4 544.2 M 304.6 544.2 L 320.4 544.2 M 350.6 544.2 L 457.5 544.2 M 27.5 546.2 L 132.9 546.2 M 164.6 546.2 L 180.4 546.2 M 212.1 546.2 L 272.9 546.2 M 304.6 546.2 L 320.4 546.2 M 352.1 546.2 L 457.5 546.2 M 27.5 548.2 L 132.2 548.2 M 164.6 548.2 L 180.4 548.2 M 212.8 548.2 L 272.2 548.2 M 304.6 548.2 L 320.4 548.2 M 352.8 548.2 L 457.5 548.2 M 27.5 550.1 L 132 550.1 M 164.6 550.1 L 180.4 550.1 M 213 550.1 L 272 550.1 M 304.6 550.1 L 320.4 550.1 M 353 550.1 L 457.5 550.1 M 27.5 552.1 L 132 552.1 M 213 552.1 L 272 552.1 M 353 552.1 L 457.5 552.1 M 27.5 554 L 132 554 M 213 554 L 272 554 M 353 554 L 457.5 554 M 27.5 556 L 132 556 M 213 556 L 272 556 M 353 556 L 457.5 556 M 27.5 557.9 L 132 557.9 M 213 557.9 L 272 557.9 M 353 557.9 L 457.5 557.9 M 27.5 559.9 L 132 559.9 M 213 559.9 L 272 559.9 M 353 559.9 L 457.5 559.9 M 27.5 561.8 L 132 561.8 M 213 561.8 L 272 561.8 M 353 561.8 L 457.5 561.8 M 27.5 563.8 L 132 563.8 M 213 563.8 L 272 563.8 M 353 563.8 L 457.5 563.8 M 27.5 565.7 L 132 565.7 M 213 565.7 L 272 565.7 M 353 565.7 L 457.5 565.7 M 27.5 567.7 L 132 567.7 M 213 567.7 L 272 567.7 M 353 567.7 L 457.5 567.7 M 27.5 569.6 L 132 569.6 M 213 569.6 L 272 569.6 M 353 569.6 L 457.5 569.6 M 27.5 571.6 L 132 571.6 M 213 571.6 L 272 571.6 M 353 571.6 L 457.5 571.6 M 27.5 573.5 L 132 573.5 M 213 573.5 L 272 573.5 M 353 573.5 L 457.5 573.5 M 27.5 575.5 L 142 575.5 M 203 575.5 L 282 575.5 M 343 575.5 L 457.5 575.5 M 27.5 577.4 L 142 577.4 M 203 577.4 L 282 577.4 M 343 577.4 L 457.5 577.4 M 27.5 579.4 L 142 579.4 M 203 579.4 L 282 579.4 M 343 579.4 L 457.5 579.4 M 27.5 581.3 L 142 581.3 M 203 581.3 L 282 581.3 M 343 581.3 L 457.5 581.3 M 27.5 583.2 L 142 583.2 M 203 583.2 L 282 583.2 M 343 583.2 L 457.5 583.2 M 27.5 585.2 L 142 585.2 M 203 585.2 L 282 585.2 M 343 585.2 L 457.5 585.2 M 27.5 587.1 L 142 587.1 M 203 587.1 L 282 587.1 M 343 587.1 L 457.5 587.1 M 27.5 589.1 L 142 589.1 M 203 589.1 L 282 589.1 M 343 589.1 L 457.5 589.1 M 27.5 591 L 132 591 M 213 591 L 272 591 M 353 591 L 457.5 591 M 27.5 593 L 132 593 M 213 593 L 272 593 M 353 593 L 457.5 593 M 27.5 594.9 L 132 594.9 M 213 594.9 L 272 594.9 M 353 594.9 L 457.5 594.9 M 27.5 596.9 L 132 596.9 M 213 596.9 L 272 596.9 M 353 596.9 L 457.5 596.9 M 27.5 598.8 L 132 598.8 M 213 598.8 L 272 598.8 M 353 598.8 L 457.5 598.8 M 27.5 600.8 L 132 600.8 M 213 600.8 L 272 600.8 M 353 600.8 L 457.5 600.8 M 27.5 602.7 L 132 602.7 M 213 602.7 L 272 602.7 M 353 602.7 L 457.5 602.7 M 27.5 604.7 L 132 604.7 M 213 604.7 L 272 604.7 M 353 604.7 L 457.5 604.7 M 27.5 606.6 L 132 606.6 M 213 606.6 L 272 606.6 M 353 606.6 L 457.5 606.6 M 27.5 608.6 L 132 608.6 M 213 608.6 L 272 608.6 M 353 608.6 L 457.5 608.6 M 27.5 610.5 L 132 610.5 M 213 610.5 L 272 610.5 M 353 610.5 L 457.5 610.5 M 27.5 612.5 L 132 612.5 M 213 612.5 L 272 612.5 M 353 612.5 L 457.5 612.5 M 27.5 614.5 L 132 614.5 M 164.6 614.5 L 180.4 614.5 M 213 614.5 L 272 614.5 M 304.6 614.5 L 320.4 614.5 M 353 614.5 L 457.5 614.5 M 27.5 616.4 L 132.1 616.4 M 164.6 616.4 L 180.4 616.4 M 212.9 616.4 L 272.1 616.4 M 304.6 616.4 L 320.4 616.4 M 352.9 616.4 L 457.5 616.4 M 27.5 618.4 L 132.7 618.4 M 164.6 618.4 L 180.4 618.4 M 212.3 618.4 L 272.7 618.4 M 304.6 618.4 L 320.4 618.4 M 352.3 618.4 L 457.5 618.4 M 27.5 620.3 L 134 620.3 M 164.6 620.3 L 180.4 620.3 M 211 620.3 L 274 620.3 M 304.6 620.3 L 320.4 620.3 M 351 620.3 L 457.5 620.3 M 27.5 622.3 L 136.6 622.3 M 164.6 622.3 L 180.4 622.3 M 208.4 622.3 L 276.6 622.3 M 304.6 622.3 L 320.4 622.3 M 348.4 622.3 L 457.5 622.3 M 27.5 624.2 L 457.5 624.2 M 27.5 626.2 L 457.5 626.2 M 27.5 628.1 L 457.5 628.1 M 27.5 630.1 L 457.5 630.1 M 27.5 632 L 457.5 632 M 27.5 634 L 457.5 634 M 27.5 635.9 L 457.5 635.9"/><path stroke-width="20" fill="none" d="M 272.5 282.5 L 312.5 282.5 M 172.5 182.5 L 272.5 282.5"/><use x="172.5" y="582.5" xlink:href="#tool-D12-pad-1003"/><use x="172.5" y="482.5" xlink:href="#tool-D13-pad-1004"/><use x="172.5" y="382.5" xlink:href="#tool-D13-pad-1004"/><use x="172.5" y="282.5" xlink:href="#tool-D13-pad-1004"/><use x="172.5" y="182.5" xlink:href="#tool-D13-pad-1004"/><use x="172.5" y="82.5" xlink:href="#tool-D13-pad-1004"/><use x="312.5" y="582.5" xlink:href="#tool-D12-pad-1003"/><use x="312.5" y="482.5" xlink:href="#tool-D13-pad-1004"/><use x="312.5" y="382.5" xlink:href="#tool-D13-pad-1004"/><use x="312.5" y="282.5" xlink:href="#tool-D13-pad-1004"/><use x="312.5" y="182.5" xlink:href="#tool-D13-pad-1004"/><use x="312.5" y="82.5" xlink:href="#tool-D13-pad-1004"/></g><mask id="pcb_bottom_mech-mask" fill="#fff" stroke="#fff" fill-rule="evenodd"><path stroke-width="0" d="M 7.5 7.5 L 7.5 657.5 L 477.5 657.5 L 477.5 7.5 Z"/><g id="pcb_bottom-drl" fill="#000" stroke="#000"><use x="172.5" y="582.5" xlink:href="#tool-T10-pad-1000"/><use x="172.5" y="482.5" xlink:href="#tool-T10-pad-1000"/><use x="172.5" y="382.5" xlink:href="#tool-T10-pad-1000"/><use x="172.5" y="282.5" xlink:href="#tool-T10-pad-1000"/><use x="172.5" y="182.5" xlink:href="#tool-T10-pad-1000"/><use x="172.5" y="82.5" xlink:href="#tool-T10-pad-1000"/><use x="312.5" y="582.5" xlink:href="#tool-T10-pad-1000"/><use x="312.5" y="482.5" xlink:href="#tool-T10-pad-1000"/><use x="312.5" y="382.5" xlink:href="#tool-T10-pad-1000"/><use x="312.5" y="282.5" xlink:href="#tool-T10-pad-1000"/><use x="312.5" y="182.5" xlink:href="#tool-T10-pad-1000"/><use x="312.5" y="82.5" xlink:href="#tool-T10-pad-1000"/></g></mask></defs><g mask="url(#pcb_bottom_mech-mask)" transform="translate(485,665) scale(-1,-1)"><rect x="7.5" y="7.5" width="470" height="650" fill="currentColor" class="pcb_board-fr4"/><use class="pcb_board-cu" xlink:href="#pcb_bottom-cu"/><g><defs><g id="pcb_bottom-sm" fill="currentColor" stroke="currentColor"><use x="172.5" y="582.5" xlink:href="#tool-D10-pad-1005"/><use x="172.5" y="482.5" xlink:href="#tool-D11-pad-1006"/><use x="172.5" y="382.5" xlink:href="#tool-D11-pad-1006"/><use x="172.5" y="282.5" xlink:href="#tool-D11-pad-1006"/><use x="172.5" y="182.5" xlink:href="#tool-D11-pad-1006"/><use x="172.5" y="82.5" xlink:href="#tool-D11-pad-1006"/><use x="312.5" y="582.5" xlink:href="#tool-D10-pad-1005"/><use x="312.5" y="482.5" xlink:href="#tool-D11-pad-1006"/><use x="312.5" y="382.5" xlink:href="#tool-D11-pad-1006"/><use x="312.5" y="282.5" xlink:href="#tool-D11-pad-1006"/><use x="312.5" y="182.5" xlink:href="#tool-D11-pad-1006"/><use x="312.5" y="82.5" xlink:href="#tool-D11-pad-1006"/></g><mask id="pcb_bottom-sm_mask" color="#000"><rect x="7.5" y="7.5" width="470" height="650" fill="#fff"/><use xlink:href="#pcb_bottom-sm"/></mask><mask id="pcb_bottom-cu_finish-mask" color="#fff"><use xlink:href="#pcb_bottom-cu"/></mask></defs><g mask="url(#pcb_bottom-sm_mask)"><rect x="7.5" y="7.5" width="470" height="650" fill="currentColor" class="pcb_board-sm"/><g id="pcb_bottom-ss" class="pcb_board-ss" fill="currentColor" stroke="currentColor"></g></g><use class="pcb_board-cf" mask="url(#pcb_bottom-cu_finish-mask)" xlink:href="#pcb_bottom-sm"/></g></g></svg>