%FSLAX33Y33*%
%MOMM*%
%AMRR-H508000-W10160000-R152400-RO0.000*
21,1,9.8552,0.508,0.,0.,360*
21,1,10.16,0.2032,0.,0.,360*
1,1,0.3048,-4.9276,0.1016*
1,1,0.3048,4.9276,0.1016*
1,1,0.3048,4.9276,-0.1016*
1,1,0.3048,-4.9276,-0.1016*%
%ADD10C,0.15*%
%ADD11C,0.1*%
%ADD12R,1.X4.5*%
%ADD13RR-H508000-W10160000-R152400-RO0.000*%
%ADD14C,0.5*%
%ADD15R,10.X1.*%
D10*
%LNtop silkscreen_traces*%
%LNtop silkscreen component c63f2cfbf6a36a1e*%
G01*
X10339Y13875D02*
X10339Y16125D01*
X18661Y16125*
X18661Y13875*
X10339Y13875*
%LNtop silkscreen component 41c15735770252ef*%
D11*
X24840Y13107D02*
X24840Y41107D01*
X33340Y41107*
X33340Y13107*
X24840Y13107*
X25090Y13357D02*
X25090Y40857D01*
X33090Y40857*
X33090Y13357*
X25090Y13357*
D12*
X25340Y27132D03*
D13*
X29090Y41712D03*
G36*
X26204Y42245D02*
X26204Y43336D01*
X26687Y43336D01*
X26756Y43334D01*
X26816Y43328D01*
X26867Y43319D01*
X26909Y43306D01*
X26945Y43289D01*
X26977Y43266D01*
X27006Y43237D01*
X27030Y43203D01*
X27050Y43164D01*
X27064Y43124D01*
X27073Y43082D01*
X27076Y43038D01*
X27071Y42982D01*
X27057Y42931D01*
X27033Y42884D01*
X27000Y42842D01*
X26958Y42806D01*
X26905Y42777D01*
X26842Y42756D01*
X26805Y42748D01*
X26782Y42866D01*
X26813Y42875D01*
X26839Y42886D01*
X26862Y42901D01*
X26882Y42919D01*
X26898Y42940D01*
X26910Y42963D01*
X26920Y42987D01*
X26925Y43012D01*
X26927Y43038D01*
X26923Y43075D01*
X26913Y43109D01*
X26895Y43139D01*
X26871Y43165D01*
X26838Y43187D01*
X26798Y43203D01*
X26750Y43212D01*
X26693Y43215D01*
X26348Y43215D01*
X26348Y42854D01*
X26348Y42854D01*
X26658Y42854D01*
X26705Y42856D01*
X26746Y42859D01*
X26782Y42866D01*
X26805Y42748D01*
X26768Y42741D01*
X26795Y42727D01*
X26819Y42714D01*
X26839Y42700D01*
X26855Y42687D01*
X26887Y42656D01*
X26917Y42622D01*
X26946Y42583D01*
X26975Y42542D01*
X27165Y42245D01*
X26983Y42245D01*
X26839Y42472D01*
X26809Y42518D01*
X26781Y42558D01*
X26757Y42593D01*
X26735Y42622D01*
X26715Y42646D01*
X26696Y42666D01*
X26678Y42683D01*
X26662Y42695D01*
X26645Y42705D01*
X26629Y42713D01*
X26612Y42719D01*
X26596Y42724D01*
X26581Y42726D01*
X26563Y42728D01*
X26541Y42729D01*
X26515Y42729D01*
X26348Y42729D01*
X26348Y42245D01*
X26204Y42245D01*
X26204Y42245D01*
X27826Y42499D02*
X27964Y42482D01*
X27944Y42425D01*
X27917Y42374D01*
X27884Y42331D01*
X27843Y42294D01*
X27796Y42265D01*
X27742Y42244D01*
X27682Y42231D01*
X27617Y42227D01*
X27534Y42234D01*
X27461Y42254D01*
X27397Y42287D01*
X27342Y42334D01*
X27297Y42392D01*
X27266Y42462D01*
X27246Y42542D01*
X27240Y42633D01*
X27247Y42727D01*
X27266Y42810D01*
X27298Y42882D01*
X27343Y42943D01*
X27398Y42991D01*
X27461Y43025D01*
X27531Y43046D01*
X27609Y43053D01*
X27620Y43052D01*
X27611Y42943D01*
X27566Y42939D01*
X27526Y42927D01*
X27489Y42908D01*
X27456Y42881D01*
X27428Y42848D01*
X27407Y42809D01*
X27393Y42765D01*
X27386Y42716D01*
X27386Y42716D01*
X27827Y42716D01*
X27821Y42763D01*
X27810Y42803D01*
X27795Y42837D01*
X27777Y42865D01*
X27742Y42899D01*
X27703Y42923D01*
X27659Y42938D01*
X27611Y42943D01*
X27620Y43052D01*
X27685Y43046D01*
X27753Y43026D01*
X27814Y42992D01*
X27868Y42945D01*
X27912Y42886D01*
X27944Y42815D01*
X27962Y42734D01*
X27969Y42641D01*
X27969Y42635D01*
X27968Y42627D01*
X27968Y42617D01*
X27968Y42606D01*
X27379Y42606D01*
X27386Y42544D01*
X27401Y42491D01*
X27423Y42445D01*
X27452Y42406D01*
X27487Y42376D01*
X27527Y42354D01*
X27570Y42341D01*
X27617Y42337D01*
X27653Y42339D01*
X27686Y42347D01*
X27716Y42359D01*
X27743Y42376D01*
X27768Y42398D01*
X27790Y42426D01*
X27809Y42460D01*
X27826Y42499D01*
X27826Y42499D01*
X28645Y42245D02*
X28645Y42345D01*
X28584Y42407D01*
X28586Y42409D01*
X28613Y42450D01*
X28632Y42500D01*
X28643Y42559D01*
X28647Y42628D01*
X28643Y42704D01*
X28632Y42769D01*
X28612Y42823D01*
X28585Y42866D01*
X28552Y42899D01*
X28515Y42923D01*
X28475Y42937D01*
X28431Y42942D01*
X28388Y42938D01*
X28349Y42924D01*
X28313Y42901D01*
X28282Y42869D01*
X28255Y42827D01*
X28237Y42775D01*
X28225Y42712D01*
X28222Y42639D01*
X28222Y42639D01*
X28226Y42568D01*
X28238Y42507D01*
X28258Y42455D01*
X28286Y42412D01*
X28319Y42379D01*
X28355Y42356D01*
X28395Y42342D01*
X28437Y42337D01*
X28479Y42342D01*
X28518Y42355D01*
X28554Y42377D01*
X28584Y42407D01*
X28645Y42345D01*
X28603Y42293D01*
X28552Y42256D01*
X28493Y42234D01*
X28424Y42227D01*
X28378Y42230D01*
X28333Y42240D01*
X28291Y42256D01*
X28250Y42279D01*
X28213Y42308D01*
X28180Y42341D01*
X28152Y42380D01*
X28128Y42425D01*
X28108Y42473D01*
X28095Y42525D01*
X28087Y42580D01*
X28084Y42639D01*
X28086Y42697D01*
X28094Y42752D01*
X28106Y42804D01*
X28123Y42854D01*
X28146Y42899D01*
X28173Y42939D01*
X28205Y42973D01*
X28242Y43002D01*
X28282Y43024D01*
X28325Y43040D01*
X28371Y43050D01*
X28418Y43053D01*
X28453Y43051D01*
X28486Y43045D01*
X28516Y43036D01*
X28545Y43023D01*
X28572Y43007D01*
X28596Y42988D01*
X28617Y42967D01*
X28636Y42944D01*
X28636Y43336D01*
X28769Y43336D01*
X28769Y42245D01*
X28645Y42245D01*
X28645Y42245D01*
X29549Y42245D02*
X29307Y43035D01*
X29446Y43035D01*
X29572Y42579D01*
X29618Y42409D01*
X29622Y42424D01*
X29630Y42456D01*
X29643Y42506D01*
X29659Y42572D01*
X29785Y43035D01*
X29923Y43035D01*
X30041Y42577D01*
X30081Y42426D01*
X30126Y42578D01*
X30261Y43035D01*
X30392Y43035D01*
X30145Y42245D01*
X30005Y42245D01*
X29880Y42718D01*
X29849Y42853D01*
X29689Y42245D01*
X29549Y42245D01*
X29549Y42245D01*
X30505Y42245D02*
X30505Y43035D01*
X30639Y43035D01*
X30639Y42245D01*
X30505Y42245D01*
X30505Y42245D01*
X30505Y43182D02*
X30505Y43336D01*
X30639Y43336D01*
X30639Y43182D01*
X30505Y43182D01*
X30505Y43182D01*
X30841Y42245D02*
X30841Y43035D01*
X30962Y43035D01*
X30962Y42915D01*
X30984Y42954D01*
X31006Y42985D01*
X31027Y43009D01*
X31047Y43026D01*
X31067Y43038D01*
X31088Y43046D01*
X31110Y43051D01*
X31133Y43053D01*
X31167Y43050D01*
X31201Y43042D01*
X31236Y43029D01*
X31270Y43010D01*
X31224Y42886D01*
X31200Y42898D01*
X31175Y42907D01*
X31151Y42913D01*
X31126Y42915D01*
X31105Y42913D01*
X31084Y42908D01*
X31065Y42900D01*
X31047Y42888D01*
X31031Y42874D01*
X31017Y42857D01*
X31006Y42837D01*
X30997Y42815D01*
X30987Y42778D01*
X30981Y42740D01*
X30976Y42700D01*
X30975Y42659D01*
X30975Y42245D01*
X30841Y42245D01*
X30841Y42245D01*
X31891Y42499D02*
X32029Y42482D01*
X32010Y42425D01*
X31983Y42374D01*
X31949Y42331D01*
X31908Y42294D01*
X31861Y42265D01*
X31807Y42244D01*
X31748Y42231D01*
X31682Y42227D01*
X31600Y42234D01*
X31526Y42254D01*
X31462Y42287D01*
X31407Y42334D01*
X31362Y42392D01*
X31331Y42462D01*
X31312Y42542D01*
X31305Y42633D01*
X31312Y42727D01*
X31331Y42810D01*
X31363Y42882D01*
X31408Y42943D01*
X31463Y42991D01*
X31526Y43025D01*
X31596Y43046D01*
X31674Y43053D01*
X31686Y43052D01*
X31676Y42943D01*
X31632Y42939D01*
X31591Y42927D01*
X31554Y42908D01*
X31521Y42881D01*
X31493Y42848D01*
X31472Y42809D01*
X31458Y42765D01*
X31451Y42716D01*
X31451Y42716D01*
X31892Y42716D01*
X31886Y42763D01*
X31875Y42803D01*
X31861Y42837D01*
X31842Y42865D01*
X31807Y42899D01*
X31768Y42923D01*
X31724Y42938D01*
X31676Y42943D01*
X31686Y43052D01*
X31750Y43046D01*
X31818Y43026D01*
X31880Y42992D01*
X31933Y42945D01*
X31977Y42886D01*
X32009Y42815D01*
X32028Y42734D01*
X32034Y42641D01*
X32034Y42635D01*
X32034Y42627D01*
X32033Y42617D01*
X32033Y42606D01*
X31444Y42606D01*
X31451Y42544D01*
X31466Y42491D01*
X31488Y42445D01*
X31517Y42406D01*
X31553Y42376D01*
X31592Y42354D01*
X31635Y42341D01*
X31683Y42337D01*
X31718Y42339D01*
X31751Y42347D01*
X31781Y42359D01*
X31808Y42376D01*
X31833Y42398D01*
X31855Y42426D01*
X31874Y42460D01*
X31891Y42499D01*
X31891Y42499D01*
X34155Y23160D02*
X34155Y23360D01*
X33957Y23360D01*
X33957Y23443D01*
X34155Y23443D01*
X34155Y23641D01*
X34239Y23641D01*
X34239Y23443D01*
X34437Y23443D01*
X34437Y23360D01*
X34239Y23360D01*
X34239Y23160D01*
X34155Y23160D01*
X34155Y23160D01*
X34536Y23233D02*
X34630Y23241D01*
X34637Y23209D01*
X34647Y23181D01*
X34661Y23158D01*
X34678Y23138D01*
X34698Y23123D01*
X34720Y23112D01*
X34744Y23106D01*
X34770Y23104D01*
X34801Y23107D01*
X34829Y23116D01*
X34855Y23131D01*
X34879Y23152D01*
X34898Y23179D01*
X34912Y23209D01*
X34921Y23243D01*
X34923Y23281D01*
X34921Y23318D01*
X34913Y23350D01*
X34899Y23378D01*
X34880Y23402D01*
X34857Y23421D01*
X34831Y23435D01*
X34801Y23443D01*
X34768Y23446D01*
X34747Y23445D01*
X34727Y23441D01*
X34708Y23435D01*
X34690Y23427D01*
X34674Y23416D01*
X34659Y23404D01*
X34646Y23391D01*
X34636Y23376D01*
X34552Y23387D01*
X34622Y23760D01*
X34984Y23760D01*
X34984Y23675D01*
X34694Y23675D01*
X34654Y23479D01*
X34688Y23499D01*
X34722Y23514D01*
X34756Y23522D01*
X34792Y23525D01*
X34838Y23521D01*
X34880Y23509D01*
X34918Y23488D01*
X34953Y23459D01*
X34981Y23424D01*
X35002Y23384D01*
X35014Y23339D01*
X35018Y23289D01*
X35015Y23242D01*
X35004Y23197D01*
X34986Y23156D01*
X34961Y23119D01*
X34922Y23080D01*
X34878Y23052D01*
X34827Y23036D01*
X34770Y23030D01*
X34722Y23034D01*
X34679Y23044D01*
X34641Y23062D01*
X34608Y23086D01*
X34580Y23116D01*
X34558Y23151D01*
X34544Y23190D01*
X34536Y23233D01*
X34536Y23233D01*
X35345Y23043D02*
X35063Y23770D01*
X35167Y23770D01*
X35356Y23242D01*
X35367Y23210D01*
X35377Y23180D01*
X35387Y23151D01*
X35395Y23123D01*
X35403Y23152D01*
X35413Y23182D01*
X35423Y23212D01*
X35434Y23242D01*
X35630Y23770D01*
X35729Y23770D01*
X35444Y23043D01*
X35345Y23043D01*
X35345Y23043D01*
X34155Y25700D02*
X34155Y25900D01*
X33957Y25900D01*
X33957Y25983D01*
X34155Y25983D01*
X34155Y26181D01*
X34239Y26181D01*
X34239Y25983D01*
X34437Y25983D01*
X34437Y25900D01*
X34239Y25900D01*
X34239Y25700D01*
X34155Y25700D01*
X34155Y25700D01*
X34872Y25583D02*
X34783Y25583D01*
X34783Y26152D01*
X34766Y26136D01*
X34746Y26121D01*
X34723Y26106D01*
X34698Y26090D01*
X34673Y26076D01*
X34649Y26063D01*
X34626Y26053D01*
X34604Y26044D01*
X34604Y26130D01*
X34641Y26149D01*
X34675Y26169D01*
X34706Y26192D01*
X34735Y26216D01*
X34761Y26241D01*
X34783Y26265D01*
X34801Y26289D01*
X34815Y26313D01*
X34872Y26313D01*
X34872Y25583D01*
X34872Y25583D01*
X35570Y25669D02*
X35570Y25583D01*
X35090Y25583D01*
X35090Y25599D01*
X35092Y25614D01*
X35095Y25630D01*
X35100Y25645D01*
X35111Y25669D01*
X35124Y25694D01*
X35140Y25718D01*
X35159Y25742D01*
X35181Y25766D01*
X35208Y25793D01*
X35240Y25821D01*
X35276Y25852D01*
X35330Y25898D01*
X35375Y25939D01*
X35410Y25975D01*
X35436Y26006D01*
X35454Y26034D01*
X35467Y26061D01*
X35475Y26087D01*
X35478Y26113D01*
X35475Y26139D01*
X35468Y26162D01*
X35456Y26183D01*
X35440Y26203D01*
X35419Y26219D01*
X35396Y26230D01*
X35370Y26237D01*
X35341Y26239D01*
X35310Y26237D01*
X35283Y26229D01*
X35258Y26217D01*
X35237Y26200D01*
X35220Y26179D01*
X35208Y26154D01*
X35201Y26126D01*
X35198Y26093D01*
X35106Y26103D01*
X35114Y26151D01*
X35129Y26193D01*
X35150Y26229D01*
X35177Y26259D01*
X35211Y26283D01*
X35249Y26300D01*
X35293Y26310D01*
X35343Y26313D01*
X35392Y26309D01*
X35436Y26299D01*
X35475Y26280D01*
X35508Y26255D01*
X35535Y26224D01*
X35554Y26190D01*
X35565Y26152D01*
X35569Y26111D01*
X35568Y26089D01*
X35565Y26068D01*
X35559Y26046D01*
X35551Y26025D01*
X35541Y26004D01*
X35528Y25982D01*
X35511Y25960D01*
X35492Y25937D01*
X35468Y25911D01*
X35437Y25881D01*
X35399Y25847D01*
X35354Y25809D01*
X35318Y25778D01*
X35288Y25752D01*
X35266Y25732D01*
X35251Y25717D01*
X35240Y25705D01*
X35230Y25693D01*
X35222Y25681D01*
X35214Y25669D01*
X35570Y25669D01*
X35570Y25669D01*
X35910Y25583D02*
X35628Y26310D01*
X35733Y26310D01*
X35922Y25782D01*
X35932Y25750D01*
X35942Y25720D01*
X35952Y25691D01*
X35960Y25663D01*
X35968Y25692D01*
X35978Y25722D01*
X35988Y25752D01*
X35999Y25782D01*
X36195Y26310D01*
X36294Y26310D01*
X36009Y25583D01*
X35910Y25583D01*
X35910Y25583D01*
X33933Y35961D02*
X33933Y36051D01*
X34207Y36051D01*
X34207Y35961D01*
X33933Y35961D01*
X33933Y35961D01*
X34617Y35743D02*
X34528Y35743D01*
X34528Y36312D01*
X34511Y36296D01*
X34491Y36281D01*
X34468Y36266D01*
X34443Y36250D01*
X34418Y36236D01*
X34394Y36223D01*
X34371Y36213D01*
X34349Y36204D01*
X34349Y36290D01*
X34386Y36309D01*
X34420Y36329D01*
X34451Y36352D01*
X34480Y36376D01*
X34506Y36401D01*
X34528Y36425D01*
X34546Y36449D01*
X34560Y36473D01*
X34617Y36473D01*
X34617Y35743D01*
X34617Y35743D01*
X35315Y35829D02*
X35315Y35743D01*
X34835Y35743D01*
X34835Y35759D01*
X34837Y35774D01*
X34840Y35790D01*
X34845Y35805D01*
X34856Y35829D01*
X34869Y35854D01*
X34885Y35878D01*
X34904Y35902D01*
X34926Y35926D01*
X34953Y35953D01*
X34985Y35981D01*
X35021Y36012D01*
X35075Y36058D01*
X35120Y36099D01*
X35155Y36135D01*
X35181Y36166D01*
X35199Y36194D01*
X35212Y36221D01*
X35220Y36247D01*
X35222Y36273D01*
X35220Y36299D01*
X35213Y36322D01*
X35201Y36343D01*
X35185Y36363D01*
X35164Y36379D01*
X35141Y36390D01*
X35115Y36397D01*
X35086Y36399D01*
X35055Y36397D01*
X35028Y36389D01*
X35003Y36377D01*
X34982Y36360D01*
X34965Y36339D01*
X34953Y36314D01*
X34946Y36286D01*
X34943Y36253D01*
X34851Y36263D01*
X34859Y36311D01*
X34874Y36353D01*
X34895Y36389D01*
X34922Y36419D01*
X34956Y36443D01*
X34994Y36460D01*
X35038Y36470D01*
X35088Y36473D01*
X35137Y36469D01*
X35181Y36459D01*
X35220Y36440D01*
X35253Y36415D01*
X35280Y36384D01*
X35299Y36350D01*
X35310Y36312D01*
X35314Y36271D01*
X35313Y36249D01*
X35310Y36228D01*
X35304Y36206D01*
X35296Y36185D01*
X35286Y36164D01*
X35273Y36142D01*
X35256Y36120D01*
X35237Y36097D01*
X35213Y36071D01*
X35182Y36041D01*
X35144Y36007D01*
X35099Y35969D01*
X35063Y35938D01*
X35033Y35912D01*
X35011Y35892D01*
X34996Y35877D01*
X34985Y35865D01*
X34975Y35853D01*
X34966Y35841D01*
X34959Y35829D01*
X35315Y35829D01*
X35315Y35829D01*
X35655Y35743D02*
X35373Y36470D01*
X35477Y36470D01*
X35666Y35942D01*
X35677Y35910D01*
X35687Y35880D01*
X35697Y35851D01*
X35705Y35823D01*
X35713Y35852D01*
X35723Y35882D01*
X35733Y35912D01*
X35744Y35942D01*
X35940Y36470D01*
X36039Y36470D01*
X35754Y35743D01*
X35655Y35743D01*
X35655Y35743D01*
X34319Y33488D02*
X34319Y33573D01*
X34627Y33574D01*
X34627Y33304D01*
X34591Y33277D01*
X34555Y33254D01*
X34518Y33235D01*
X34481Y33219D01*
X34443Y33206D01*
X34404Y33198D01*
X34365Y33192D01*
X34326Y33190D01*
X34274Y33193D01*
X34224Y33202D01*
X34176Y33216D01*
X34131Y33236D01*
X34090Y33262D01*
X34054Y33292D01*
X34024Y33328D01*
X33999Y33369D01*
X33980Y33414D01*
X33966Y33461D01*
X33957Y33511D01*
X33954Y33563D01*
X33957Y33615D01*
X33966Y33666D01*
X33979Y33714D01*
X33999Y33761D01*
X34024Y33804D01*
X34053Y33841D01*
X34087Y33873D01*
X34127Y33898D01*
X34170Y33917D01*
X34216Y33931D01*
X34266Y33940D01*
X34319Y33942D01*
X34357Y33941D01*
X34394Y33936D01*
X34428Y33928D01*
X34461Y33917D01*
X34491Y33903D01*
X34518Y33886D01*
X34541Y33867D01*
X34561Y33846D01*
X34578Y33821D01*
X34593Y33793D01*
X34606Y33762D01*
X34616Y33727D01*
X34529Y33703D01*
X34521Y33729D01*
X34511Y33752D01*
X34500Y33773D01*
X34489Y33790D01*
X34475Y33805D01*
X34459Y33819D01*
X34441Y33831D01*
X34419Y33841D01*
X34396Y33849D01*
X34372Y33855D01*
X34346Y33859D01*
X34319Y33860D01*
X34287Y33859D01*
X34258Y33855D01*
X34230Y33849D01*
X34205Y33840D01*
X34182Y33829D01*
X34162Y33817D01*
X34143Y33803D01*
X34127Y33787D01*
X34113Y33770D01*
X34101Y33753D01*
X34090Y33734D01*
X34081Y33715D01*
X34069Y33681D01*
X34061Y33645D01*
X34055Y33608D01*
X34054Y33569D01*
X34056Y33522D01*
X34062Y33480D01*
X34073Y33441D01*
X34087Y33406D01*
X34106Y33376D01*
X34128Y33349D01*
X34155Y33327D01*
X34185Y33309D01*
X34217Y33295D01*
X34251Y33285D01*
X34285Y33279D01*
X34321Y33277D01*
X34352Y33279D01*
X34382Y33283D01*
X34413Y33291D01*
X34443Y33301D01*
X34471Y33314D01*
X34495Y33326D01*
X34516Y33339D01*
X34533Y33353D01*
X34533Y33488D01*
X34319Y33488D01*
X34319Y33488D01*
X34768Y33203D02*
X34768Y33930D01*
X34867Y33930D01*
X35249Y33359D01*
X35249Y33930D01*
X35341Y33930D01*
X35341Y33203D01*
X35242Y33203D01*
X34860Y33774D01*
X34860Y33203D01*
X34768Y33203D01*
X34768Y33203D01*
X35503Y33203D02*
X35503Y33930D01*
X35752Y33930D01*
X35752Y33844D01*
X35599Y33844D01*
X35599Y33289D01*
X35599Y33289D01*
X35754Y33289D01*
X35788Y33289D01*
X35819Y33292D01*
X35845Y33296D01*
X35867Y33302D01*
X35887Y33309D01*
X35904Y33318D01*
X35919Y33328D01*
X35932Y33340D01*
X35949Y33358D01*
X35963Y33380D01*
X35975Y33404D01*
X35986Y33432D01*
X35994Y33462D01*
X36000Y33496D01*
X36004Y33532D01*
X36005Y33572D01*
X36003Y33626D01*
X35995Y33673D01*
X35984Y33713D01*
X35967Y33747D01*
X35948Y33775D01*
X35926Y33798D01*
X35902Y33816D01*
X35876Y33829D01*
X35854Y33836D01*
X35826Y33841D01*
X35792Y33843D01*
X35752Y33844D01*
X35752Y33930D01*
X35753Y33930D01*
X35793Y33929D01*
X35828Y33927D01*
X35858Y33924D01*
X35883Y33920D01*
X35913Y33911D01*
X35941Y33899D01*
X35966Y33885D01*
X35989Y33868D01*
X36016Y33842D01*
X36040Y33812D01*
X36059Y33779D01*
X36076Y33743D01*
X36088Y33704D01*
X36097Y33662D01*
X36102Y33618D01*
X36104Y33570D01*
X36103Y33530D01*
X36099Y33492D01*
X36093Y33457D01*
X36085Y33424D01*
X36074Y33393D01*
X36063Y33365D01*
X36050Y33340D01*
X36035Y33318D01*
X36020Y33298D01*
X36003Y33280D01*
X35987Y33265D01*
X35969Y33252D01*
X35950Y33240D01*
X35929Y33231D01*
X35907Y33222D01*
X35882Y33215D01*
X35856Y33210D01*
X35827Y33206D01*
X35797Y33204D01*
X35765Y33203D01*
X35503Y33203D01*
X35503Y33203D01*
X34319Y30948D02*
X34319Y31033D01*
X34627Y31034D01*
X34627Y30764D01*
X34591Y30737D01*
X34555Y30714D01*
X34518Y30695D01*
X34481Y30679D01*
X34443Y30666D01*
X34404Y30658D01*
X34365Y30652D01*
X34326Y30650D01*
X34274Y30653D01*
X34224Y30662D01*
X34176Y30676D01*
X34131Y30696D01*
X34090Y30722D01*
X34054Y30752D01*
X34024Y30788D01*
X33999Y30829D01*
X33980Y30874D01*
X33966Y30921D01*
X33957Y30971D01*
X33954Y31023D01*
X33957Y31075D01*
X33966Y31126D01*
X33979Y31174D01*
X33999Y31221D01*
X34024Y31264D01*
X34053Y31301D01*
X34087Y31333D01*
X34127Y31358D01*
X34170Y31377D01*
X34216Y31391D01*
X34266Y31400D01*
X34319Y31402D01*
X34357Y31401D01*
X34394Y31396D01*
X34428Y31388D01*
X34461Y31377D01*
X34491Y31363D01*
X34518Y31346D01*
X34541Y31327D01*
X34561Y31306D01*
X34578Y31281D01*
X34593Y31253D01*
X34606Y31222D01*
X34616Y31187D01*
X34529Y31163D01*
X34521Y31189D01*
X34511Y31212D01*
X34500Y31233D01*
X34489Y31250D01*
X34475Y31265D01*
X34459Y31279D01*
X34441Y31291D01*
X34419Y31301D01*
X34396Y31309D01*
X34372Y31315D01*
X34346Y31319D01*
X34319Y31320D01*
X34287Y31319D01*
X34258Y31315D01*
X34230Y31309D01*
X34205Y31300D01*
X34182Y31289D01*
X34162Y31277D01*
X34143Y31263D01*
X34127Y31247D01*
X34113Y31230D01*
X34101Y31213D01*
X34090Y31194D01*
X34081Y31175D01*
X34069Y31141D01*
X34061Y31105D01*
X34055Y31068D01*
X34054Y31029D01*
X34056Y30982D01*
X34062Y30940D01*
X34073Y30901D01*
X34087Y30866D01*
X34106Y30836D01*
X34128Y30809D01*
X34155Y30787D01*
X34185Y30769D01*
X34217Y30755D01*
X34251Y30745D01*
X34285Y30739D01*
X34321Y30737D01*
X34352Y30739D01*
X34382Y30743D01*
X34413Y30751D01*
X34443Y30761D01*
X34471Y30774D01*
X34495Y30786D01*
X34516Y30799D01*
X34533Y30813D01*
X34533Y30948D01*
X34319Y30948D01*
X34319Y30948D01*
X34768Y30663D02*
X34768Y31390D01*
X34867Y31390D01*
X35249Y30819D01*
X35249Y31390D01*
X35341Y31390D01*
X35341Y30663D01*
X35242Y30663D01*
X34860Y31234D01*
X34860Y30663D01*
X34768Y30663D01*
X34768Y30663D01*
X35503Y30663D02*
X35503Y31390D01*
X35752Y31390D01*
X35752Y31304D01*
X35599Y31304D01*
X35599Y30749D01*
X35599Y30749D01*
X35754Y30749D01*
X35788Y30749D01*
X35819Y30752D01*
X35845Y30756D01*
X35867Y30762D01*
X35887Y30769D01*
X35904Y30778D01*
X35919Y30788D01*
X35932Y30800D01*
X35949Y30818D01*
X35963Y30840D01*
X35975Y30864D01*
X35986Y30892D01*
X35994Y30922D01*
X36000Y30956D01*
X36004Y30992D01*
X36005Y31032D01*
X36003Y31086D01*
X35995Y31133D01*
X35984Y31173D01*
X35967Y31207D01*
X35948Y31235D01*
X35926Y31258D01*
X35902Y31276D01*
X35876Y31289D01*
X35854Y31296D01*
X35826Y31301D01*
X35792Y31303D01*
X35752Y31304D01*
X35752Y31390D01*
X35753Y31390D01*
X35793Y31389D01*
X35828Y31387D01*
X35858Y31384D01*
X35883Y31380D01*
X35913Y31371D01*
X35941Y31359D01*
X35966Y31345D01*
X35989Y31328D01*
X36016Y31302D01*
X36040Y31272D01*
X36059Y31239D01*
X36076Y31203D01*
X36088Y31164D01*
X36097Y31122D01*
X36102Y31078D01*
X36104Y31030D01*
X36103Y30990D01*
X36099Y30952D01*
X36093Y30917D01*
X36085Y30884D01*
X36074Y30853D01*
X36063Y30825D01*
X36050Y30800D01*
X36035Y30778D01*
X36020Y30758D01*
X36003Y30740D01*
X35987Y30725D01*
X35969Y30712D01*
X35950Y30700D01*
X35929Y30691D01*
X35907Y30682D01*
X35882Y30675D01*
X35856Y30670D01*
X35827Y30666D01*
X35797Y30664D01*
X35765Y30663D01*
X35503Y30663D01*
X35503Y30663D01*
X34319Y28408D02*
X34319Y28493D01*
X34627Y28494D01*
X34627Y28224D01*
X34591Y28197D01*
X34555Y28174D01*
X34518Y28155D01*
X34481Y28139D01*
X34443Y28126D01*
X34404Y28118D01*
X34365Y28112D01*
X34326Y28110D01*
X34274Y28113D01*
X34224Y28122D01*
X34176Y28136D01*
X34131Y28156D01*
X34090Y28182D01*
X34054Y28212D01*
X34024Y28248D01*
X33999Y28289D01*
X33980Y28334D01*
X33966Y28381D01*
X33957Y28431D01*
X33954Y28483D01*
X33957Y28535D01*
X33966Y28586D01*
X33979Y28634D01*
X33999Y28681D01*
X34024Y28724D01*
X34053Y28761D01*
X34087Y28793D01*
X34127Y28818D01*
X34170Y28837D01*
X34216Y28851D01*
X34266Y28860D01*
X34319Y28862D01*
X34357Y28861D01*
X34394Y28856D01*
X34428Y28848D01*
X34461Y28837D01*
X34491Y28823D01*
X34518Y28806D01*
X34541Y28787D01*
X34561Y28766D01*
X34578Y28741D01*
X34593Y28713D01*
X34606Y28682D01*
X34616Y28647D01*
X34529Y28623D01*
X34521Y28649D01*
X34511Y28672D01*
X34500Y28693D01*
X34489Y28710D01*
X34475Y28725D01*
X34459Y28739D01*
X34441Y28751D01*
X34419Y28761D01*
X34396Y28769D01*
X34372Y28775D01*
X34346Y28779D01*
X34319Y28780D01*
X34287Y28779D01*
X34258Y28775D01*
X34230Y28769D01*
X34205Y28760D01*
X34182Y28749D01*
X34162Y28737D01*
X34143Y28723D01*
X34127Y28707D01*
X34113Y28690D01*
X34101Y28673D01*
X34090Y28654D01*
X34081Y28635D01*
X34069Y28601D01*
X34061Y28565D01*
X34055Y28528D01*
X34054Y28489D01*
X34056Y28442D01*
X34062Y28400D01*
X34073Y28361D01*
X34087Y28326D01*
X34106Y28296D01*
X34128Y28269D01*
X34155Y28247D01*
X34185Y28229D01*
X34217Y28215D01*
X34251Y28205D01*
X34285Y28199D01*
X34321Y28197D01*
X34352Y28199D01*
X34382Y28203D01*
X34413Y28211D01*
X34443Y28221D01*
X34471Y28234D01*
X34495Y28246D01*
X34516Y28259D01*
X34533Y28273D01*
X34533Y28408D01*
X34319Y28408D01*
X34319Y28408D01*
X34768Y28123D02*
X34768Y28850D01*
X34867Y28850D01*
X35249Y28279D01*
X35249Y28850D01*
X35341Y28850D01*
X35341Y28123D01*
X35242Y28123D01*
X34860Y28694D01*
X34860Y28123D01*
X34768Y28123D01*
X34768Y28123D01*
X35503Y28123D02*
X35503Y28850D01*
X35752Y28850D01*
X35752Y28764D01*
X35599Y28764D01*
X35599Y28209D01*
X35599Y28209D01*
X35754Y28209D01*
X35788Y28209D01*
X35819Y28212D01*
X35845Y28216D01*
X35867Y28222D01*
X35887Y28229D01*
X35904Y28238D01*
X35919Y28248D01*
X35932Y28260D01*
X35949Y28278D01*
X35963Y28300D01*
X35975Y28324D01*
X35986Y28352D01*
X35994Y28382D01*
X36000Y28416D01*
X36004Y28452D01*
X36005Y28492D01*
X36003Y28546D01*
X35995Y28593D01*
X35984Y28633D01*
X35967Y28667D01*
X35948Y28695D01*
X35926Y28718D01*
X35902Y28736D01*
X35876Y28749D01*
X35854Y28756D01*
X35826Y28761D01*
X35792Y28763D01*
X35752Y28764D01*
X35752Y28850D01*
X35753Y28850D01*
X35793Y28849D01*
X35828Y28847D01*
X35858Y28844D01*
X35883Y28840D01*
X35913Y28831D01*
X35941Y28819D01*
X35966Y28805D01*
X35989Y28788D01*
X36016Y28762D01*
X36040Y28732D01*
X36059Y28699D01*
X36076Y28663D01*
X36088Y28624D01*
X36097Y28582D01*
X36102Y28538D01*
X36104Y28490D01*
X36103Y28450D01*
X36099Y28412D01*
X36093Y28377D01*
X36085Y28344D01*
X36074Y28313D01*
X36063Y28285D01*
X36050Y28260D01*
X36035Y28238D01*
X36020Y28218D01*
X36003Y28200D01*
X35987Y28185D01*
X35969Y28172D01*
X35950Y28160D01*
X35929Y28151D01*
X35907Y28142D01*
X35882Y28135D01*
X35856Y28130D01*
X35827Y28126D01*
X35797Y28124D01*
X35765Y28123D01*
X35503Y28123D01*
X35503Y28123D01*
X22134Y25446D02*
X22134Y25646D01*
X21936Y25646D01*
X21936Y25729D01*
X22134Y25729D01*
X22134Y25927D01*
X22218Y25927D01*
X22218Y25729D01*
X22416Y25729D01*
X22416Y25646D01*
X22218Y25646D01*
X22218Y25446D01*
X22134Y25446D01*
X22134Y25446D01*
X22851Y25329D02*
X22762Y25329D01*
X22762Y25898D01*
X22744Y25882D01*
X22725Y25867D01*
X22702Y25852D01*
X22677Y25836D01*
X22652Y25822D01*
X22628Y25809D01*
X22605Y25799D01*
X22583Y25790D01*
X22583Y25876D01*
X22620Y25895D01*
X22653Y25915D01*
X22685Y25938D01*
X22714Y25962D01*
X22740Y25987D01*
X22762Y26011D01*
X22780Y26035D01*
X22794Y26059D01*
X22851Y26059D01*
X22851Y25329D01*
X22851Y25329D01*
X23549Y25415D02*
X23549Y25329D01*
X23068Y25329D01*
X23069Y25345D01*
X23071Y25360D01*
X23074Y25376D01*
X23079Y25391D01*
X23089Y25415D01*
X23103Y25440D01*
X23119Y25464D01*
X23138Y25488D01*
X23160Y25512D01*
X23187Y25539D01*
X23219Y25567D01*
X23254Y25598D01*
X23309Y25644D01*
X23354Y25685D01*
X23389Y25721D01*
X23415Y25752D01*
X23433Y25780D01*
X23446Y25807D01*
X23454Y25833D01*
X23456Y25859D01*
X23454Y25885D01*
X23447Y25908D01*
X23435Y25929D01*
X23418Y25949D01*
X23398Y25965D01*
X23375Y25976D01*
X23349Y25983D01*
X23319Y25985D01*
X23289Y25983D01*
X23261Y25975D01*
X23237Y25963D01*
X23216Y25946D01*
X23199Y25925D01*
X23187Y25900D01*
X23180Y25872D01*
X23177Y25839D01*
X23085Y25849D01*
X23093Y25897D01*
X23108Y25939D01*
X23129Y25975D01*
X23156Y26005D01*
X23190Y26029D01*
X23228Y26046D01*
X23272Y26056D01*
X23321Y26059D01*
X23371Y26055D01*
X23415Y26045D01*
X23454Y26026D01*
X23487Y26001D01*
X23514Y25970D01*
X23533Y25936D01*
X23544Y25898D01*
X23548Y25857D01*
X23547Y25835D01*
X23544Y25814D01*
X23538Y25792D01*
X23530Y25771D01*
X23520Y25750D01*
X23507Y25728D01*
X23490Y25706D01*
X23471Y25683D01*
X23447Y25657D01*
X23416Y25627D01*
X23378Y25593D01*
X23333Y25555D01*
X23297Y25524D01*
X23267Y25498D01*
X23245Y25478D01*
X23230Y25463D01*
X23219Y25451D01*
X23209Y25439D01*
X23200Y25427D01*
X23192Y25415D01*
X23549Y25415D01*
X23549Y25415D01*
X23889Y25329D02*
X23607Y26056D01*
X23711Y26056D01*
X23900Y25528D01*
X23911Y25496D01*
X23921Y25466D01*
X23930Y25437D01*
X23939Y25409D01*
X23947Y25438D01*
X23957Y25468D01*
X23967Y25498D01*
X23978Y25528D01*
X24174Y26056D01*
X24272Y26056D01*
X23988Y25329D01*
X23889Y25329D01*
X23889Y25329D01*
X22699Y23160D02*
X22699Y23360D01*
X22501Y23360D01*
X22501Y23443D01*
X22699Y23443D01*
X22699Y23641D01*
X22783Y23641D01*
X22783Y23443D01*
X22981Y23443D01*
X22981Y23360D01*
X22783Y23360D01*
X22783Y23160D01*
X22699Y23160D01*
X22699Y23160D01*
X23080Y23233D02*
X23174Y23241D01*
X23181Y23209D01*
X23191Y23181D01*
X23205Y23158D01*
X23222Y23138D01*
X23242Y23123D01*
X23264Y23112D01*
X23288Y23106D01*
X23313Y23104D01*
X23344Y23107D01*
X23373Y23116D01*
X23399Y23131D01*
X23423Y23152D01*
X23442Y23179D01*
X23456Y23209D01*
X23464Y23243D01*
X23467Y23281D01*
X23465Y23318D01*
X23457Y23350D01*
X23443Y23378D01*
X23424Y23402D01*
X23401Y23421D01*
X23375Y23435D01*
X23345Y23443D01*
X23312Y23446D01*
X23291Y23445D01*
X23271Y23441D01*
X23252Y23435D01*
X23234Y23427D01*
X23218Y23416D01*
X23203Y23404D01*
X23190Y23391D01*
X23180Y23376D01*
X23096Y23387D01*
X23166Y23760D01*
X23528Y23760D01*
X23528Y23675D01*
X23238Y23675D01*
X23198Y23479D01*
X23232Y23499D01*
X23265Y23514D01*
X23300Y23522D01*
X23336Y23525D01*
X23382Y23521D01*
X23424Y23509D01*
X23462Y23488D01*
X23497Y23459D01*
X23525Y23424D01*
X23546Y23384D01*
X23558Y23339D01*
X23562Y23289D01*
X23558Y23242D01*
X23548Y23197D01*
X23530Y23156D01*
X23504Y23119D01*
X23466Y23080D01*
X23422Y23052D01*
X23371Y23036D01*
X23313Y23030D01*
X23266Y23034D01*
X23223Y23044D01*
X23185Y23062D01*
X23152Y23086D01*
X23124Y23116D01*
X23102Y23151D01*
X23088Y23190D01*
X23080Y23233D01*
X23080Y23233D01*
X23889Y23043D02*
X23607Y23770D01*
X23711Y23770D01*
X23900Y23242D01*
X23911Y23210D01*
X23921Y23180D01*
X23930Y23151D01*
X23939Y23123D01*
X23947Y23152D01*
X23957Y23182D01*
X23967Y23212D01*
X23978Y23242D01*
X24174Y23770D01*
X24272Y23770D01*
X23988Y23043D01*
X23889Y23043D01*
X23889Y23043D01*
X22441Y28408D02*
X22441Y28493D01*
X22749Y28494D01*
X22749Y28224D01*
X22714Y28197D01*
X22677Y28174D01*
X22640Y28155D01*
X22603Y28139D01*
X22565Y28126D01*
X22527Y28118D01*
X22488Y28112D01*
X22448Y28110D01*
X22396Y28113D01*
X22346Y28122D01*
X22299Y28136D01*
X22254Y28156D01*
X22212Y28182D01*
X22177Y28212D01*
X22146Y28248D01*
X22121Y28289D01*
X22102Y28334D01*
X22088Y28381D01*
X22080Y28431D01*
X22077Y28483D01*
X22079Y28535D01*
X22088Y28586D01*
X22102Y28634D01*
X22121Y28681D01*
X22146Y28724D01*
X22175Y28761D01*
X22210Y28793D01*
X22249Y28818D01*
X22292Y28837D01*
X22339Y28851D01*
X22388Y28860D01*
X22441Y28862D01*
X22479Y28861D01*
X22516Y28856D01*
X22551Y28848D01*
X22583Y28837D01*
X22614Y28823D01*
X22640Y28806D01*
X22664Y28787D01*
X22683Y28766D01*
X22700Y28741D01*
X22715Y28713D01*
X22728Y28682D01*
X22739Y28647D01*
X22652Y28623D01*
X22643Y28649D01*
X22633Y28672D01*
X22623Y28693D01*
X22611Y28710D01*
X22598Y28725D01*
X22581Y28739D01*
X22563Y28751D01*
X22542Y28761D01*
X22518Y28769D01*
X22494Y28775D01*
X22468Y28779D01*
X22441Y28780D01*
X22409Y28779D01*
X22380Y28775D01*
X22352Y28769D01*
X22327Y28760D01*
X22304Y28749D01*
X22284Y28737D01*
X22266Y28723D01*
X22250Y28707D01*
X22236Y28690D01*
X22223Y28673D01*
X22213Y28654D01*
X22204Y28635D01*
X22192Y28601D01*
X22183Y28565D01*
X22178Y28528D01*
X22176Y28489D01*
X22178Y28442D01*
X22184Y28400D01*
X22195Y28361D01*
X22209Y28326D01*
X22228Y28296D01*
X22251Y28269D01*
X22277Y28247D01*
X22307Y28229D01*
X22339Y28215D01*
X22373Y28205D01*
X22407Y28199D01*
X22443Y28197D01*
X22474Y28199D01*
X22505Y28203D01*
X22535Y28211D01*
X22565Y28221D01*
X22593Y28234D01*
X22617Y28246D01*
X22638Y28259D01*
X22655Y28273D01*
X22655Y28408D01*
X22441Y28408D01*
X22441Y28408D01*
X22890Y28123D02*
X22890Y28850D01*
X22989Y28850D01*
X23371Y28279D01*
X23371Y28850D01*
X23463Y28850D01*
X23463Y28123D01*
X23365Y28123D01*
X22983Y28694D01*
X22983Y28123D01*
X22890Y28123D01*
X22890Y28123D01*
X23625Y28123D02*
X23625Y28850D01*
X23874Y28850D01*
X23874Y28764D01*
X23721Y28764D01*
X23721Y28209D01*
X23721Y28209D01*
X23877Y28209D01*
X23911Y28209D01*
X23941Y28212D01*
X23967Y28216D01*
X23989Y28222D01*
X24009Y28229D01*
X24026Y28238D01*
X24041Y28248D01*
X24055Y28260D01*
X24071Y28278D01*
X24085Y28300D01*
X24098Y28324D01*
X24108Y28352D01*
X24116Y28382D01*
X24122Y28416D01*
X24126Y28452D01*
X24127Y28492D01*
X24125Y28546D01*
X24118Y28593D01*
X24106Y28633D01*
X24090Y28667D01*
X24070Y28695D01*
X24048Y28718D01*
X24024Y28736D01*
X23999Y28749D01*
X23976Y28756D01*
X23948Y28761D01*
X23914Y28763D01*
X23874Y28764D01*
X23874Y28850D01*
X23876Y28850D01*
X23915Y28849D01*
X23950Y28847D01*
X23980Y28844D01*
X24005Y28840D01*
X24035Y28831D01*
X24063Y28819D01*
X24088Y28805D01*
X24112Y28788D01*
X24139Y28762D01*
X24162Y28732D01*
X24182Y28699D01*
X24198Y28663D01*
X24210Y28624D01*
X24219Y28582D01*
X24225Y28538D01*
X24226Y28490D01*
X24225Y28450D01*
X24221Y28412D01*
X24215Y28377D01*
X24207Y28344D01*
X24197Y28313D01*
X24185Y28285D01*
X24172Y28260D01*
X24157Y28238D01*
X24142Y28218D01*
X24126Y28200D01*
X24109Y28185D01*
X24091Y28172D01*
X24072Y28160D01*
X24051Y28151D01*
X24029Y28142D01*
X24004Y28135D01*
X23978Y28130D01*
X23950Y28126D01*
X23920Y28124D01*
X23887Y28123D01*
X23625Y28123D01*
X23625Y28123D01*
X22441Y30948D02*
X22441Y31033D01*
X22749Y31034D01*
X22749Y30764D01*
X22714Y30737D01*
X22677Y30714D01*
X22640Y30695D01*
X22603Y30679D01*
X22565Y30666D01*
X22527Y30658D01*
X22488Y30652D01*
X22448Y30650D01*
X22396Y30653D01*
X22346Y30662D01*
X22299Y30676D01*
X22254Y30696D01*
X22212Y30722D01*
X22177Y30752D01*
X22146Y30788D01*
X22121Y30829D01*
X22102Y30874D01*
X22088Y30921D01*
X22080Y30971D01*
X22077Y31023D01*
X22079Y31075D01*
X22088Y31126D01*
X22102Y31174D01*
X22121Y31221D01*
X22146Y31264D01*
X22175Y31301D01*
X22210Y31333D01*
X22249Y31358D01*
X22292Y31377D01*
X22339Y31391D01*
X22388Y31400D01*
X22441Y31402D01*
X22479Y31401D01*
X22516Y31396D01*
X22551Y31388D01*
X22583Y31377D01*
X22614Y31363D01*
X22640Y31346D01*
X22664Y31327D01*
X22683Y31306D01*
X22700Y31281D01*
X22715Y31253D01*
X22728Y31222D01*
X22739Y31187D01*
X22652Y31163D01*
X22643Y31189D01*
X22633Y31212D01*
X22623Y31233D01*
X22611Y31250D01*
X22598Y31265D01*
X22581Y31279D01*
X22563Y31291D01*
X22542Y31301D01*
X22518Y31309D01*
X22494Y31315D01*
X22468Y31319D01*
X22441Y31320D01*
X22409Y31319D01*
X22380Y31315D01*
X22352Y31309D01*
X22327Y31300D01*
X22304Y31289D01*
X22284Y31277D01*
X22266Y31263D01*
X22250Y31247D01*
X22236Y31230D01*
X22223Y31213D01*
X22213Y31194D01*
X22204Y31175D01*
X22192Y31141D01*
X22183Y31105D01*
X22178Y31068D01*
X22176Y31029D01*
X22178Y30982D01*
X22184Y30940D01*
X22195Y30901D01*
X22209Y30866D01*
X22228Y30836D01*
X22251Y30809D01*
X22277Y30787D01*
X22307Y30769D01*
X22339Y30755D01*
X22373Y30745D01*
X22407Y30739D01*
X22443Y30737D01*
X22474Y30739D01*
X22505Y30743D01*
X22535Y30751D01*
X22565Y30761D01*
X22593Y30774D01*
X22617Y30786D01*
X22638Y30799D01*
X22655Y30813D01*
X22655Y30948D01*
X22441Y30948D01*
X22441Y30948D01*
X22890Y30663D02*
X22890Y31390D01*
X22989Y31390D01*
X23371Y30819D01*
X23371Y31390D01*
X23463Y31390D01*
X23463Y30663D01*
X23365Y30663D01*
X22983Y31234D01*
X22983Y30663D01*
X22890Y30663D01*
X22890Y30663D01*
X23625Y30663D02*
X23625Y31390D01*
X23874Y31390D01*
X23874Y31304D01*
X23721Y31304D01*
X23721Y30749D01*
X23721Y30749D01*
X23877Y30749D01*
X23911Y30749D01*
X23941Y30752D01*
X23967Y30756D01*
X23989Y30762D01*
X24009Y30769D01*
X24026Y30778D01*
X24041Y30788D01*
X24055Y30800D01*
X24071Y30818D01*
X24085Y30840D01*
X24098Y30864D01*
X24108Y30892D01*
X24116Y30922D01*
X24122Y30956D01*
X24126Y30992D01*
X24127Y31032D01*
X24125Y31086D01*
X24118Y31133D01*
X24106Y31173D01*
X24090Y31207D01*
X24070Y31235D01*
X24048Y31258D01*
X24024Y31276D01*
X23999Y31289D01*
X23976Y31296D01*
X23948Y31301D01*
X23914Y31303D01*
X23874Y31304D01*
X23874Y31390D01*
X23876Y31390D01*
X23915Y31389D01*
X23950Y31387D01*
X23980Y31384D01*
X24005Y31380D01*
X24035Y31371D01*
X24063Y31359D01*
X24088Y31345D01*
X24112Y31328D01*
X24139Y31302D01*
X24162Y31272D01*
X24182Y31239D01*
X24198Y31203D01*
X24210Y31164D01*
X24219Y31122D01*
X24225Y31078D01*
X24226Y31030D01*
X24225Y30990D01*
X24221Y30952D01*
X24215Y30917D01*
X24207Y30884D01*
X24197Y30853D01*
X24185Y30825D01*
X24172Y30800D01*
X24157Y30778D01*
X24142Y30758D01*
X24126Y30740D01*
X24109Y30725D01*
X24091Y30712D01*
X24072Y30700D01*
X24051Y30691D01*
X24029Y30682D01*
X24004Y30675D01*
X23978Y30670D01*
X23950Y30666D01*
X23920Y30664D01*
X23887Y30663D01*
X23625Y30663D01*
X23625Y30663D01*
X22441Y33488D02*
X22441Y33573D01*
X22749Y33574D01*
X22749Y33304D01*
X22714Y33277D01*
X22677Y33254D01*
X22640Y33235D01*
X22603Y33219D01*
X22565Y33206D01*
X22527Y33198D01*
X22488Y33192D01*
X22448Y33190D01*
X22396Y33193D01*
X22346Y33202D01*
X22299Y33216D01*
X22254Y33236D01*
X22212Y33262D01*
X22177Y33292D01*
X22146Y33328D01*
X22121Y33369D01*
X22102Y33414D01*
X22088Y33461D01*
X22080Y33511D01*
X22077Y33563D01*
X22079Y33615D01*
X22088Y33666D01*
X22102Y33714D01*
X22121Y33761D01*
X22146Y33804D01*
X22175Y33841D01*
X22210Y33873D01*
X22249Y33898D01*
X22292Y33917D01*
X22339Y33931D01*
X22388Y33940D01*
X22441Y33942D01*
X22479Y33941D01*
X22516Y33936D01*
X22551Y33928D01*
X22583Y33917D01*
X22614Y33903D01*
X22640Y33886D01*
X22664Y33867D01*
X22683Y33846D01*
X22700Y33821D01*
X22715Y33793D01*
X22728Y33762D01*
X22739Y33727D01*
X22652Y33703D01*
X22643Y33729D01*
X22633Y33752D01*
X22623Y33773D01*
X22611Y33790D01*
X22598Y33805D01*
X22581Y33819D01*
X22563Y33831D01*
X22542Y33841D01*
X22518Y33849D01*
X22494Y33855D01*
X22468Y33859D01*
X22441Y33860D01*
X22409Y33859D01*
X22380Y33855D01*
X22352Y33849D01*
X22327Y33840D01*
X22304Y33829D01*
X22284Y33817D01*
X22266Y33803D01*
X22250Y33787D01*
X22236Y33770D01*
X22223Y33753D01*
X22213Y33734D01*
X22204Y33715D01*
X22192Y33681D01*
X22183Y33645D01*
X22178Y33608D01*
X22176Y33569D01*
X22178Y33522D01*
X22184Y33480D01*
X22195Y33441D01*
X22209Y33406D01*
X22228Y33376D01*
X22251Y33349D01*
X22277Y33327D01*
X22307Y33309D01*
X22339Y33295D01*
X22373Y33285D01*
X22407Y33279D01*
X22443Y33277D01*
X22474Y33279D01*
X22505Y33283D01*
X22535Y33291D01*
X22565Y33301D01*
X22593Y33314D01*
X22617Y33326D01*
X22638Y33339D01*
X22655Y33353D01*
X22655Y33488D01*
X22441Y33488D01*
X22441Y33488D01*
X22890Y33203D02*
X22890Y33930D01*
X22989Y33930D01*
X23371Y33359D01*
X23371Y33930D01*
X23463Y33930D01*
X23463Y33203D01*
X23365Y33203D01*
X22983Y33774D01*
X22983Y33203D01*
X22890Y33203D01*
X22890Y33203D01*
X23625Y33203D02*
X23625Y33930D01*
X23874Y33930D01*
X23874Y33844D01*
X23721Y33844D01*
X23721Y33289D01*
X23721Y33289D01*
X23877Y33289D01*
X23911Y33289D01*
X23941Y33292D01*
X23967Y33296D01*
X23989Y33302D01*
X24009Y33309D01*
X24026Y33318D01*
X24041Y33328D01*
X24055Y33340D01*
X24071Y33358D01*
X24085Y33380D01*
X24098Y33404D01*
X24108Y33432D01*
X24116Y33462D01*
X24122Y33496D01*
X24126Y33532D01*
X24127Y33572D01*
X24125Y33626D01*
X24118Y33673D01*
X24106Y33713D01*
X24090Y33747D01*
X24070Y33775D01*
X24048Y33798D01*
X24024Y33816D01*
X23999Y33829D01*
X23976Y33836D01*
X23948Y33841D01*
X23914Y33843D01*
X23874Y33844D01*
X23874Y33930D01*
X23876Y33930D01*
X23915Y33929D01*
X23950Y33927D01*
X23980Y33924D01*
X24005Y33920D01*
X24035Y33911D01*
X24063Y33899D01*
X24088Y33885D01*
X24112Y33868D01*
X24139Y33842D01*
X24162Y33812D01*
X24182Y33779D01*
X24198Y33743D01*
X24210Y33704D01*
X24219Y33662D01*
X24225Y33618D01*
X24226Y33570D01*
X24225Y33530D01*
X24221Y33492D01*
X24215Y33457D01*
X24207Y33424D01*
X24197Y33393D01*
X24185Y33365D01*
X24172Y33340D01*
X24157Y33318D01*
X24142Y33298D01*
X24126Y33280D01*
X24109Y33265D01*
X24091Y33252D01*
X24072Y33240D01*
X24051Y33231D01*
X24029Y33222D01*
X24004Y33215D01*
X23978Y33210D01*
X23950Y33206D01*
X23920Y33204D01*
X23887Y33203D01*
X23625Y33203D01*
X23625Y33203D01*
X22167Y35961D02*
X22167Y36051D01*
X22441Y36051D01*
X22441Y35961D01*
X22167Y35961D01*
X22167Y35961D01*
X22851Y35743D02*
X22762Y35743D01*
X22762Y36312D01*
X22744Y36296D01*
X22725Y36281D01*
X22702Y36266D01*
X22677Y36250D01*
X22652Y36236D01*
X22628Y36223D01*
X22605Y36213D01*
X22583Y36204D01*
X22583Y36290D01*
X22620Y36309D01*
X22653Y36329D01*
X22685Y36352D01*
X22714Y36376D01*
X22740Y36401D01*
X22762Y36425D01*
X22780Y36449D01*
X22794Y36473D01*
X22851Y36473D01*
X22851Y35743D01*
X22851Y35743D01*
X23549Y35829D02*
X23549Y35743D01*
X23068Y35743D01*
X23069Y35759D01*
X23071Y35774D01*
X23074Y35790D01*
X23079Y35805D01*
X23089Y35829D01*
X23103Y35854D01*
X23119Y35878D01*
X23138Y35902D01*
X23160Y35926D01*
X23187Y35953D01*
X23219Y35981D01*
X23254Y36012D01*
X23309Y36058D01*
X23354Y36099D01*
X23389Y36135D01*
X23415Y36166D01*
X23433Y36194D01*
X23446Y36221D01*
X23454Y36247D01*
X23456Y36273D01*
X23454Y36299D01*
X23447Y36322D01*
X23435Y36343D01*
X23418Y36363D01*
X23398Y36379D01*
X23375Y36390D01*
X23349Y36397D01*
X23319Y36399D01*
X23289Y36397D01*
X23261Y36389D01*
X23237Y36377D01*
X23216Y36360D01*
X23199Y36339D01*
X23187Y36314D01*
X23180Y36286D01*
X23177Y36253D01*
X23085Y36263D01*
X23093Y36311D01*
X23108Y36353D01*
X23129Y36389D01*
X23156Y36419D01*
X23190Y36443D01*
X23228Y36460D01*
X23272Y36470D01*
X23321Y36473D01*
X23371Y36469D01*
X23415Y36459D01*
X23454Y36440D01*
X23487Y36415D01*
X23514Y36384D01*
X23533Y36350D01*
X23544Y36312D01*
X23548Y36271D01*
X23547Y36249D01*
X23544Y36228D01*
X23538Y36206D01*
X23530Y36185D01*
X23520Y36164D01*
X23507Y36142D01*
X23490Y36120D01*
X23471Y36097D01*
X23447Y36071D01*
X23416Y36041D01*
X23378Y36007D01*
X23333Y35969D01*
X23297Y35938D01*
X23267Y35912D01*
X23245Y35892D01*
X23230Y35877D01*
X23219Y35865D01*
X23209Y35853D01*
X23200Y35841D01*
X23192Y35829D01*
X23549Y35829D01*
X23549Y35829D01*
X23889Y35743D02*
X23607Y36470D01*
X23711Y36470D01*
X23900Y35942D01*
X23911Y35910D01*
X23921Y35880D01*
X23930Y35851D01*
X23939Y35823D01*
X23947Y35852D01*
X23957Y35882D01*
X23967Y35912D01*
X23978Y35942D01*
X24174Y36470D01*
X24272Y36470D01*
X23988Y35743D01*
X23889Y35743D01*
X23889Y35743D01*
G37*
%LNtop silkscreen component 8aa19a9a475ab06d*%
D10*
X10339Y23875D02*
X10339Y26125D01*
X18661Y26125*
X18661Y23875*
X10339Y23875*
%LNtop silkscreen component 42d088f49832dd14*%
G75*
G03*
X66300Y34385D02*
X63700Y34385I-1300J-1386D01*
G75*
X63700Y31620D02*
X66300Y31620I1300J1386D01*
G36*
G01*
X62470Y33234D02*
X62470Y33038D01*
X62664Y33038D01*
X62664Y32956D01*
X62470Y32956D01*
X62470Y32761D01*
X62387Y32761D01*
X62387Y32956D01*
X62192Y32956D01*
X62192Y33038D01*
X62387Y33038D01*
X62387Y33234D01*
X62470Y33234D01*
X62470Y33234D01*
G37*
%LNtop silkscreen component eaa60ad4603cc8b7*%
X10339Y18875D02*
X10339Y21125D01*
X18661Y21125*
X18661Y18875*
X10339Y18875*
%LNtop silkscreen component 066798f312f84cc6*%
G75*
G03*
X66300Y29385D02*
X63700Y29385I-1300J-1386D01*
G75*
X63700Y26620D02*
X66300Y26620I1300J1386D01*
G36*
G01*
X62470Y28234D02*
X62470Y28038D01*
X62664Y28038D01*
X62664Y27956D01*
X62470Y27956D01*
X62470Y27761D01*
X62387Y27761D01*
X62387Y27956D01*
X62192Y27956D01*
X62192Y28038D01*
X62387Y28038D01*
X62387Y28234D01*
X62470Y28234D01*
X62470Y28234D01*
G37*
%LNtop silkscreen component bb9cf510df5bd2f2*%
D11*
X41840Y13107D02*
X41840Y41107D01*
X50340Y41107*
X50340Y13107*
X41840Y13107*
X42090Y13357D02*
X42090Y40857D01*
X50090Y40857*
X50090Y13357*
X42090Y13357*
D12*
X42340Y27132D03*
D13*
X46090Y41712D03*
G36*
X43204Y42245D02*
X43204Y43336D01*
X43687Y43336D01*
X43756Y43334D01*
X43816Y43328D01*
X43867Y43319D01*
X43909Y43306D01*
X43945Y43289D01*
X43977Y43266D01*
X44006Y43237D01*
X44030Y43203D01*
X44050Y43164D01*
X44064Y43124D01*
X44073Y43082D01*
X44076Y43038D01*
X44071Y42982D01*
X44057Y42931D01*
X44033Y42884D01*
X44000Y42842D01*
X43958Y42806D01*
X43905Y42777D01*
X43842Y42756D01*
X43805Y42748D01*
X43782Y42866D01*
X43813Y42875D01*
X43839Y42886D01*
X43862Y42901D01*
X43882Y42919D01*
X43898Y42940D01*
X43910Y42963D01*
X43920Y42987D01*
X43925Y43012D01*
X43927Y43038D01*
X43923Y43075D01*
X43913Y43109D01*
X43895Y43139D01*
X43871Y43165D01*
X43838Y43187D01*
X43798Y43203D01*
X43750Y43212D01*
X43693Y43215D01*
X43348Y43215D01*
X43348Y42854D01*
X43348Y42854D01*
X43658Y42854D01*
X43705Y42856D01*
X43746Y42859D01*
X43782Y42866D01*
X43805Y42748D01*
X43768Y42741D01*
X43795Y42727D01*
X43819Y42714D01*
X43839Y42700D01*
X43855Y42687D01*
X43887Y42656D01*
X43917Y42622D01*
X43946Y42583D01*
X43975Y42542D01*
X44165Y42245D01*
X43983Y42245D01*
X43839Y42472D01*
X43809Y42518D01*
X43781Y42558D01*
X43757Y42593D01*
X43735Y42622D01*
X43715Y42646D01*
X43696Y42666D01*
X43678Y42683D01*
X43662Y42695D01*
X43645Y42705D01*
X43629Y42713D01*
X43612Y42719D01*
X43596Y42724D01*
X43581Y42726D01*
X43563Y42728D01*
X43541Y42729D01*
X43515Y42729D01*
X43348Y42729D01*
X43348Y42245D01*
X43204Y42245D01*
X43204Y42245D01*
X44826Y42499D02*
X44964Y42482D01*
X44944Y42425D01*
X44917Y42374D01*
X44884Y42331D01*
X44843Y42294D01*
X44796Y42265D01*
X44742Y42244D01*
X44682Y42231D01*
X44617Y42227D01*
X44534Y42234D01*
X44461Y42254D01*
X44397Y42287D01*
X44342Y42334D01*
X44297Y42392D01*
X44266Y42462D01*
X44246Y42542D01*
X44240Y42633D01*
X44247Y42727D01*
X44266Y42810D01*
X44298Y42882D01*
X44343Y42943D01*
X44398Y42991D01*
X44461Y43025D01*
X44531Y43046D01*
X44609Y43053D01*
X44620Y43052D01*
X44611Y42943D01*
X44566Y42939D01*
X44526Y42927D01*
X44489Y42908D01*
X44456Y42881D01*
X44428Y42848D01*
X44407Y42809D01*
X44393Y42765D01*
X44386Y42716D01*
X44386Y42716D01*
X44827Y42716D01*
X44821Y42763D01*
X44810Y42803D01*
X44795Y42837D01*
X44777Y42865D01*
X44742Y42899D01*
X44703Y42923D01*
X44659Y42938D01*
X44611Y42943D01*
X44620Y43052D01*
X44685Y43046D01*
X44753Y43026D01*
X44814Y42992D01*
X44868Y42945D01*
X44912Y42886D01*
X44944Y42815D01*
X44962Y42734D01*
X44969Y42641D01*
X44969Y42635D01*
X44968Y42627D01*
X44968Y42617D01*
X44968Y42606D01*
X44379Y42606D01*
X44386Y42544D01*
X44401Y42491D01*
X44423Y42445D01*
X44452Y42406D01*
X44487Y42376D01*
X44527Y42354D01*
X44570Y42341D01*
X44617Y42337D01*
X44653Y42339D01*
X44686Y42347D01*
X44716Y42359D01*
X44743Y42376D01*
X44768Y42398D01*
X44790Y42426D01*
X44809Y42460D01*
X44826Y42499D01*
X44826Y42499D01*
X45645Y42245D02*
X45645Y42345D01*
X45584Y42407D01*
X45586Y42409D01*
X45613Y42450D01*
X45632Y42500D01*
X45643Y42559D01*
X45647Y42628D01*
X45643Y42704D01*
X45632Y42769D01*
X45612Y42823D01*
X45585Y42866D01*
X45552Y42899D01*
X45515Y42923D01*
X45475Y42937D01*
X45431Y42942D01*
X45388Y42938D01*
X45349Y42924D01*
X45313Y42901D01*
X45282Y42869D01*
X45255Y42827D01*
X45237Y42775D01*
X45225Y42712D01*
X45222Y42639D01*
X45222Y42639D01*
X45226Y42568D01*
X45238Y42507D01*
X45258Y42455D01*
X45286Y42412D01*
X45319Y42379D01*
X45355Y42356D01*
X45395Y42342D01*
X45437Y42337D01*
X45479Y42342D01*
X45518Y42355D01*
X45554Y42377D01*
X45584Y42407D01*
X45645Y42345D01*
X45603Y42293D01*
X45552Y42256D01*
X45493Y42234D01*
X45424Y42227D01*
X45378Y42230D01*
X45333Y42240D01*
X45291Y42256D01*
X45250Y42279D01*
X45213Y42308D01*
X45180Y42341D01*
X45152Y42380D01*
X45128Y42425D01*
X45108Y42473D01*
X45095Y42525D01*
X45087Y42580D01*
X45084Y42639D01*
X45086Y42697D01*
X45094Y42752D01*
X45106Y42804D01*
X45123Y42854D01*
X45146Y42899D01*
X45173Y42939D01*
X45205Y42973D01*
X45242Y43002D01*
X45282Y43024D01*
X45325Y43040D01*
X45371Y43050D01*
X45418Y43053D01*
X45453Y43051D01*
X45486Y43045D01*
X45516Y43036D01*
X45545Y43023D01*
X45572Y43007D01*
X45596Y42988D01*
X45617Y42967D01*
X45636Y42944D01*
X45636Y43336D01*
X45769Y43336D01*
X45769Y42245D01*
X45645Y42245D01*
X45645Y42245D01*
X46549Y42245D02*
X46307Y43035D01*
X46446Y43035D01*
X46572Y42579D01*
X46618Y42409D01*
X46622Y42424D01*
X46630Y42456D01*
X46643Y42506D01*
X46659Y42572D01*
X46785Y43035D01*
X46923Y43035D01*
X47041Y42577D01*
X47081Y42426D01*
X47126Y42578D01*
X47261Y43035D01*
X47392Y43035D01*
X47145Y42245D01*
X47005Y42245D01*
X46880Y42718D01*
X46849Y42853D01*
X46689Y42245D01*
X46549Y42245D01*
X46549Y42245D01*
X47505Y42245D02*
X47505Y43035D01*
X47639Y43035D01*
X47639Y42245D01*
X47505Y42245D01*
X47505Y42245D01*
X47505Y43182D02*
X47505Y43336D01*
X47639Y43336D01*
X47639Y43182D01*
X47505Y43182D01*
X47505Y43182D01*
X47841Y42245D02*
X47841Y43035D01*
X47962Y43035D01*
X47962Y42915D01*
X47984Y42954D01*
X48006Y42985D01*
X48027Y43009D01*
X48047Y43026D01*
X48067Y43038D01*
X48088Y43046D01*
X48110Y43051D01*
X48133Y43053D01*
X48167Y43050D01*
X48201Y43042D01*
X48236Y43029D01*
X48270Y43010D01*
X48224Y42886D01*
X48200Y42898D01*
X48175Y42907D01*
X48151Y42913D01*
X48126Y42915D01*
X48105Y42913D01*
X48084Y42908D01*
X48065Y42900D01*
X48047Y42888D01*
X48031Y42874D01*
X48017Y42857D01*
X48006Y42837D01*
X47997Y42815D01*
X47987Y42778D01*
X47981Y42740D01*
X47976Y42700D01*
X47975Y42659D01*
X47975Y42245D01*
X47841Y42245D01*
X47841Y42245D01*
X48891Y42499D02*
X49029Y42482D01*
X49010Y42425D01*
X48983Y42374D01*
X48949Y42331D01*
X48908Y42294D01*
X48861Y42265D01*
X48807Y42244D01*
X48748Y42231D01*
X48682Y42227D01*
X48600Y42234D01*
X48526Y42254D01*
X48462Y42287D01*
X48407Y42334D01*
X48362Y42392D01*
X48331Y42462D01*
X48312Y42542D01*
X48305Y42633D01*
X48312Y42727D01*
X48331Y42810D01*
X48363Y42882D01*
X48408Y42943D01*
X48463Y42991D01*
X48526Y43025D01*
X48596Y43046D01*
X48674Y43053D01*
X48686Y43052D01*
X48676Y42943D01*
X48632Y42939D01*
X48591Y42927D01*
X48554Y42908D01*
X48521Y42881D01*
X48493Y42848D01*
X48472Y42809D01*
X48458Y42765D01*
X48451Y42716D01*
X48451Y42716D01*
X48892Y42716D01*
X48886Y42763D01*
X48875Y42803D01*
X48861Y42837D01*
X48842Y42865D01*
X48807Y42899D01*
X48768Y42923D01*
X48724Y42938D01*
X48676Y42943D01*
X48686Y43052D01*
X48750Y43046D01*
X48818Y43026D01*
X48880Y42992D01*
X48933Y42945D01*
X48977Y42886D01*
X49009Y42815D01*
X49028Y42734D01*
X49034Y42641D01*
X49034Y42635D01*
X49034Y42627D01*
X49033Y42617D01*
X49033Y42606D01*
X48444Y42606D01*
X48451Y42544D01*
X48466Y42491D01*
X48488Y42445D01*
X48517Y42406D01*
X48553Y42376D01*
X48592Y42354D01*
X48635Y42341D01*
X48683Y42337D01*
X48718Y42339D01*
X48751Y42347D01*
X48781Y42359D01*
X48808Y42376D01*
X48833Y42398D01*
X48855Y42426D01*
X48874Y42460D01*
X48891Y42499D01*
X48891Y42499D01*
X51155Y23160D02*
X51155Y23360D01*
X50957Y23360D01*
X50957Y23443D01*
X51155Y23443D01*
X51155Y23641D01*
X51239Y23641D01*
X51239Y23443D01*
X51437Y23443D01*
X51437Y23360D01*
X51239Y23360D01*
X51239Y23160D01*
X51155Y23160D01*
X51155Y23160D01*
X51536Y23233D02*
X51630Y23241D01*
X51637Y23209D01*
X51647Y23181D01*
X51661Y23158D01*
X51678Y23138D01*
X51698Y23123D01*
X51720Y23112D01*
X51744Y23106D01*
X51770Y23104D01*
X51801Y23107D01*
X51829Y23116D01*
X51855Y23131D01*
X51879Y23152D01*
X51898Y23179D01*
X51912Y23209D01*
X51921Y23243D01*
X51923Y23281D01*
X51921Y23318D01*
X51913Y23350D01*
X51899Y23378D01*
X51880Y23402D01*
X51857Y23421D01*
X51831Y23435D01*
X51801Y23443D01*
X51768Y23446D01*
X51747Y23445D01*
X51727Y23441D01*
X51708Y23435D01*
X51690Y23427D01*
X51674Y23416D01*
X51659Y23404D01*
X51646Y23391D01*
X51636Y23376D01*
X51552Y23387D01*
X51622Y23760D01*
X51984Y23760D01*
X51984Y23675D01*
X51694Y23675D01*
X51654Y23479D01*
X51688Y23499D01*
X51722Y23514D01*
X51756Y23522D01*
X51792Y23525D01*
X51838Y23521D01*
X51880Y23509D01*
X51918Y23488D01*
X51953Y23459D01*
X51981Y23424D01*
X52002Y23384D01*
X52014Y23339D01*
X52018Y23289D01*
X52015Y23242D01*
X52004Y23197D01*
X51986Y23156D01*
X51961Y23119D01*
X51922Y23080D01*
X51878Y23052D01*
X51827Y23036D01*
X51770Y23030D01*
X51722Y23034D01*
X51679Y23044D01*
X51641Y23062D01*
X51608Y23086D01*
X51580Y23116D01*
X51558Y23151D01*
X51544Y23190D01*
X51536Y23233D01*
X51536Y23233D01*
X52345Y23043D02*
X52063Y23770D01*
X52167Y23770D01*
X52356Y23242D01*
X52367Y23210D01*
X52377Y23180D01*
X52387Y23151D01*
X52395Y23123D01*
X52403Y23152D01*
X52413Y23182D01*
X52423Y23212D01*
X52434Y23242D01*
X52630Y23770D01*
X52729Y23770D01*
X52444Y23043D01*
X52345Y23043D01*
X52345Y23043D01*
X51155Y25700D02*
X51155Y25900D01*
X50957Y25900D01*
X50957Y25983D01*
X51155Y25983D01*
X51155Y26181D01*
X51239Y26181D01*
X51239Y25983D01*
X51437Y25983D01*
X51437Y25900D01*
X51239Y25900D01*
X51239Y25700D01*
X51155Y25700D01*
X51155Y25700D01*
X51872Y25583D02*
X51783Y25583D01*
X51783Y26152D01*
X51766Y26136D01*
X51746Y26121D01*
X51723Y26106D01*
X51698Y26090D01*
X51673Y26076D01*
X51649Y26063D01*
X51626Y26053D01*
X51604Y26044D01*
X51604Y26130D01*
X51641Y26149D01*
X51675Y26169D01*
X51706Y26192D01*
X51735Y26216D01*
X51761Y26241D01*
X51783Y26265D01*
X51801Y26289D01*
X51815Y26313D01*
X51872Y26313D01*
X51872Y25583D01*
X51872Y25583D01*
X52570Y25669D02*
X52570Y25583D01*
X52090Y25583D01*
X52090Y25599D01*
X52092Y25614D01*
X52095Y25630D01*
X52100Y25645D01*
X52111Y25669D01*
X52124Y25694D01*
X52140Y25718D01*
X52159Y25742D01*
X52181Y25766D01*
X52208Y25793D01*
X52240Y25821D01*
X52276Y25852D01*
X52330Y25898D01*
X52375Y25939D01*
X52410Y25975D01*
X52436Y26006D01*
X52454Y26034D01*
X52467Y26061D01*
X52475Y26087D01*
X52478Y26113D01*
X52475Y26139D01*
X52468Y26162D01*
X52456Y26183D01*
X52440Y26203D01*
X52419Y26219D01*
X52396Y26230D01*
X52370Y26237D01*
X52341Y26239D01*
X52310Y26237D01*
X52283Y26229D01*
X52258Y26217D01*
X52237Y26200D01*
X52220Y26179D01*
X52208Y26154D01*
X52201Y26126D01*
X52198Y26093D01*
X52106Y26103D01*
X52114Y26151D01*
X52129Y26193D01*
X52150Y26229D01*
X52177Y26259D01*
X52211Y26283D01*
X52249Y26300D01*
X52293Y26310D01*
X52343Y26313D01*
X52392Y26309D01*
X52436Y26299D01*
X52475Y26280D01*
X52508Y26255D01*
X52535Y26224D01*
X52554Y26190D01*
X52565Y26152D01*
X52569Y26111D01*
X52568Y26089D01*
X52565Y26068D01*
X52559Y26046D01*
X52551Y26025D01*
X52541Y26004D01*
X52528Y25982D01*
X52511Y25960D01*
X52492Y25937D01*
X52468Y25911D01*
X52437Y25881D01*
X52399Y25847D01*
X52354Y25809D01*
X52318Y25778D01*
X52288Y25752D01*
X52266Y25732D01*
X52251Y25717D01*
X52240Y25705D01*
X52230Y25693D01*
X52222Y25681D01*
X52214Y25669D01*
X52570Y25669D01*
X52570Y25669D01*
X52910Y25583D02*
X52628Y26310D01*
X52733Y26310D01*
X52922Y25782D01*
X52932Y25750D01*
X52942Y25720D01*
X52952Y25691D01*
X52960Y25663D01*
X52968Y25692D01*
X52978Y25722D01*
X52988Y25752D01*
X52999Y25782D01*
X53195Y26310D01*
X53294Y26310D01*
X53009Y25583D01*
X52910Y25583D01*
X52910Y25583D01*
X50933Y35961D02*
X50933Y36051D01*
X51207Y36051D01*
X51207Y35961D01*
X50933Y35961D01*
X50933Y35961D01*
X51617Y35743D02*
X51528Y35743D01*
X51528Y36312D01*
X51511Y36296D01*
X51491Y36281D01*
X51468Y36266D01*
X51443Y36250D01*
X51418Y36236D01*
X51394Y36223D01*
X51371Y36213D01*
X51349Y36204D01*
X51349Y36290D01*
X51386Y36309D01*
X51420Y36329D01*
X51451Y36352D01*
X51480Y36376D01*
X51506Y36401D01*
X51528Y36425D01*
X51546Y36449D01*
X51560Y36473D01*
X51617Y36473D01*
X51617Y35743D01*
X51617Y35743D01*
X52315Y35829D02*
X52315Y35743D01*
X51835Y35743D01*
X51835Y35759D01*
X51837Y35774D01*
X51840Y35790D01*
X51845Y35805D01*
X51856Y35829D01*
X51869Y35854D01*
X51885Y35878D01*
X51904Y35902D01*
X51926Y35926D01*
X51953Y35953D01*
X51985Y35981D01*
X52021Y36012D01*
X52075Y36058D01*
X52120Y36099D01*
X52155Y36135D01*
X52181Y36166D01*
X52199Y36194D01*
X52212Y36221D01*
X52220Y36247D01*
X52222Y36273D01*
X52220Y36299D01*
X52213Y36322D01*
X52201Y36343D01*
X52185Y36363D01*
X52164Y36379D01*
X52141Y36390D01*
X52115Y36397D01*
X52086Y36399D01*
X52055Y36397D01*
X52028Y36389D01*
X52003Y36377D01*
X51982Y36360D01*
X51965Y36339D01*
X51953Y36314D01*
X51946Y36286D01*
X51943Y36253D01*
X51851Y36263D01*
X51859Y36311D01*
X51874Y36353D01*
X51895Y36389D01*
X51922Y36419D01*
X51956Y36443D01*
X51994Y36460D01*
X52038Y36470D01*
X52088Y36473D01*
X52137Y36469D01*
X52181Y36459D01*
X52220Y36440D01*
X52253Y36415D01*
X52280Y36384D01*
X52299Y36350D01*
X52310Y36312D01*
X52314Y36271D01*
X52313Y36249D01*
X52310Y36228D01*
X52304Y36206D01*
X52296Y36185D01*
X52286Y36164D01*
X52273Y36142D01*
X52256Y36120D01*
X52237Y36097D01*
X52213Y36071D01*
X52182Y36041D01*
X52144Y36007D01*
X52099Y35969D01*
X52063Y35938D01*
X52033Y35912D01*
X52011Y35892D01*
X51996Y35877D01*
X51985Y35865D01*
X51975Y35853D01*
X51966Y35841D01*
X51959Y35829D01*
X52315Y35829D01*
X52315Y35829D01*
X52655Y35743D02*
X52373Y36470D01*
X52477Y36470D01*
X52666Y35942D01*
X52677Y35910D01*
X52687Y35880D01*
X52697Y35851D01*
X52705Y35823D01*
X52713Y35852D01*
X52723Y35882D01*
X52733Y35912D01*
X52744Y35942D01*
X52940Y36470D01*
X53039Y36470D01*
X52754Y35743D01*
X52655Y35743D01*
X52655Y35743D01*
X51319Y33488D02*
X51319Y33573D01*
X51627Y33574D01*
X51627Y33304D01*
X51591Y33277D01*
X51555Y33254D01*
X51518Y33235D01*
X51481Y33219D01*
X51443Y33206D01*
X51404Y33198D01*
X51365Y33192D01*
X51326Y33190D01*
X51274Y33193D01*
X51224Y33202D01*
X51176Y33216D01*
X51131Y33236D01*
X51090Y33262D01*
X51054Y33292D01*
X51024Y33328D01*
X50999Y33369D01*
X50980Y33414D01*
X50966Y33461D01*
X50957Y33511D01*
X50954Y33563D01*
X50957Y33615D01*
X50966Y33666D01*
X50979Y33714D01*
X50999Y33761D01*
X51024Y33804D01*
X51053Y33841D01*
X51087Y33873D01*
X51127Y33898D01*
X51170Y33917D01*
X51216Y33931D01*
X51266Y33940D01*
X51319Y33942D01*
X51357Y33941D01*
X51394Y33936D01*
X51428Y33928D01*
X51461Y33917D01*
X51491Y33903D01*
X51518Y33886D01*
X51541Y33867D01*
X51561Y33846D01*
X51578Y33821D01*
X51593Y33793D01*
X51606Y33762D01*
X51616Y33727D01*
X51529Y33703D01*
X51521Y33729D01*
X51511Y33752D01*
X51500Y33773D01*
X51489Y33790D01*
X51475Y33805D01*
X51459Y33819D01*
X51441Y33831D01*
X51419Y33841D01*
X51396Y33849D01*
X51372Y33855D01*
X51346Y33859D01*
X51319Y33860D01*
X51287Y33859D01*
X51258Y33855D01*
X51230Y33849D01*
X51205Y33840D01*
X51182Y33829D01*
X51162Y33817D01*
X51143Y33803D01*
X51127Y33787D01*
X51113Y33770D01*
X51101Y33753D01*
X51090Y33734D01*
X51081Y33715D01*
X51069Y33681D01*
X51061Y33645D01*
X51055Y33608D01*
X51054Y33569D01*
X51056Y33522D01*
X51062Y33480D01*
X51073Y33441D01*
X51087Y33406D01*
X51106Y33376D01*
X51128Y33349D01*
X51155Y33327D01*
X51185Y33309D01*
X51217Y33295D01*
X51251Y33285D01*
X51285Y33279D01*
X51321Y33277D01*
X51352Y33279D01*
X51382Y33283D01*
X51413Y33291D01*
X51443Y33301D01*
X51471Y33314D01*
X51495Y33326D01*
X51516Y33339D01*
X51533Y33353D01*
X51533Y33488D01*
X51319Y33488D01*
X51319Y33488D01*
X51768Y33203D02*
X51768Y33930D01*
X51867Y33930D01*
X52249Y33359D01*
X52249Y33930D01*
X52341Y33930D01*
X52341Y33203D01*
X52242Y33203D01*
X51860Y33774D01*
X51860Y33203D01*
X51768Y33203D01*
X51768Y33203D01*
X52503Y33203D02*
X52503Y33930D01*
X52752Y33930D01*
X52752Y33844D01*
X52599Y33844D01*
X52599Y33289D01*
X52599Y33289D01*
X52754Y33289D01*
X52788Y33289D01*
X52819Y33292D01*
X52845Y33296D01*
X52867Y33302D01*
X52887Y33309D01*
X52904Y33318D01*
X52919Y33328D01*
X52932Y33340D01*
X52949Y33358D01*
X52963Y33380D01*
X52975Y33404D01*
X52986Y33432D01*
X52994Y33462D01*
X53000Y33496D01*
X53004Y33532D01*
X53005Y33572D01*
X53003Y33626D01*
X52995Y33673D01*
X52984Y33713D01*
X52967Y33747D01*
X52948Y33775D01*
X52926Y33798D01*
X52902Y33816D01*
X52876Y33829D01*
X52854Y33836D01*
X52826Y33841D01*
X52792Y33843D01*
X52752Y33844D01*
X52752Y33930D01*
X52753Y33930D01*
X52793Y33929D01*
X52828Y33927D01*
X52858Y33924D01*
X52883Y33920D01*
X52913Y33911D01*
X52941Y33899D01*
X52966Y33885D01*
X52989Y33868D01*
X53016Y33842D01*
X53040Y33812D01*
X53059Y33779D01*
X53076Y33743D01*
X53088Y33704D01*
X53097Y33662D01*
X53102Y33618D01*
X53104Y33570D01*
X53103Y33530D01*
X53099Y33492D01*
X53093Y33457D01*
X53085Y33424D01*
X53074Y33393D01*
X53063Y33365D01*
X53050Y33340D01*
X53035Y33318D01*
X53020Y33298D01*
X53003Y33280D01*
X52987Y33265D01*
X52969Y33252D01*
X52950Y33240D01*
X52929Y33231D01*
X52907Y33222D01*
X52882Y33215D01*
X52856Y33210D01*
X52827Y33206D01*
X52797Y33204D01*
X52765Y33203D01*
X52503Y33203D01*
X52503Y33203D01*
X51319Y30948D02*
X51319Y31033D01*
X51627Y31034D01*
X51627Y30764D01*
X51591Y30737D01*
X51555Y30714D01*
X51518Y30695D01*
X51481Y30679D01*
X51443Y30666D01*
X51404Y30658D01*
X51365Y30652D01*
X51326Y30650D01*
X51274Y30653D01*
X51224Y30662D01*
X51176Y30676D01*
X51131Y30696D01*
X51090Y30722D01*
X51054Y30752D01*
X51024Y30788D01*
X50999Y30829D01*
X50980Y30874D01*
X50966Y30921D01*
X50957Y30971D01*
X50954Y31023D01*
X50957Y31075D01*
X50966Y31126D01*
X50979Y31174D01*
X50999Y31221D01*
X51024Y31264D01*
X51053Y31301D01*
X51087Y31333D01*
X51127Y31358D01*
X51170Y31377D01*
X51216Y31391D01*
X51266Y31400D01*
X51319Y31402D01*
X51357Y31401D01*
X51394Y31396D01*
X51428Y31388D01*
X51461Y31377D01*
X51491Y31363D01*
X51518Y31346D01*
X51541Y31327D01*
X51561Y31306D01*
X51578Y31281D01*
X51593Y31253D01*
X51606Y31222D01*
X51616Y31187D01*
X51529Y31163D01*
X51521Y31189D01*
X51511Y31212D01*
X51500Y31233D01*
X51489Y31250D01*
X51475Y31265D01*
X51459Y31279D01*
X51441Y31291D01*
X51419Y31301D01*
X51396Y31309D01*
X51372Y31315D01*
X51346Y31319D01*
X51319Y31320D01*
X51287Y31319D01*
X51258Y31315D01*
X51230Y31309D01*
X51205Y31300D01*
X51182Y31289D01*
X51162Y31277D01*
X51143Y31263D01*
X51127Y31247D01*
X51113Y31230D01*
X51101Y31213D01*
X51090Y31194D01*
X51081Y31175D01*
X51069Y31141D01*
X51061Y31105D01*
X51055Y31068D01*
X51054Y31029D01*
X51056Y30982D01*
X51062Y30940D01*
X51073Y30901D01*
X51087Y30866D01*
X51106Y30836D01*
X51128Y30809D01*
X51155Y30787D01*
X51185Y30769D01*
X51217Y30755D01*
X51251Y30745D01*
X51285Y30739D01*
X51321Y30737D01*
X51352Y30739D01*
X51382Y30743D01*
X51413Y30751D01*
X51443Y30761D01*
X51471Y30774D01*
X51495Y30786D01*
X51516Y30799D01*
X51533Y30813D01*
X51533Y30948D01*
X51319Y30948D01*
X51319Y30948D01*
X51768Y30663D02*
X51768Y31390D01*
X51867Y31390D01*
X52249Y30819D01*
X52249Y31390D01*
X52341Y31390D01*
X52341Y30663D01*
X52242Y30663D01*
X51860Y31234D01*
X51860Y30663D01*
X51768Y30663D01*
X51768Y30663D01*
X52503Y30663D02*
X52503Y31390D01*
X52752Y31390D01*
X52752Y31304D01*
X52599Y31304D01*
X52599Y30749D01*
X52599Y30749D01*
X52754Y30749D01*
X52788Y30749D01*
X52819Y30752D01*
X52845Y30756D01*
X52867Y30762D01*
X52887Y30769D01*
X52904Y30778D01*
X52919Y30788D01*
X52932Y30800D01*
X52949Y30818D01*
X52963Y30840D01*
X52975Y30864D01*
X52986Y30892D01*
X52994Y30922D01*
X53000Y30956D01*
X53004Y30992D01*
X53005Y31032D01*
X53003Y31086D01*
X52995Y31133D01*
X52984Y31173D01*
X52967Y31207D01*
X52948Y31235D01*
X52926Y31258D01*
X52902Y31276D01*
X52876Y31289D01*
X52854Y31296D01*
X52826Y31301D01*
X52792Y31303D01*
X52752Y31304D01*
X52752Y31390D01*
X52753Y31390D01*
X52793Y31389D01*
X52828Y31387D01*
X52858Y31384D01*
X52883Y31380D01*
X52913Y31371D01*
X52941Y31359D01*
X52966Y31345D01*
X52989Y31328D01*
X53016Y31302D01*
X53040Y31272D01*
X53059Y31239D01*
X53076Y31203D01*
X53088Y31164D01*
X53097Y31122D01*
X53102Y31078D01*
X53104Y31030D01*
X53103Y30990D01*
X53099Y30952D01*
X53093Y30917D01*
X53085Y30884D01*
X53074Y30853D01*
X53063Y30825D01*
X53050Y30800D01*
X53035Y30778D01*
X53020Y30758D01*
X53003Y30740D01*
X52987Y30725D01*
X52969Y30712D01*
X52950Y30700D01*
X52929Y30691D01*
X52907Y30682D01*
X52882Y30675D01*
X52856Y30670D01*
X52827Y30666D01*
X52797Y30664D01*
X52765Y30663D01*
X52503Y30663D01*
X52503Y30663D01*
X51319Y28408D02*
X51319Y28493D01*
X51627Y28494D01*
X51627Y28224D01*
X51591Y28197D01*
X51555Y28174D01*
X51518Y28155D01*
X51481Y28139D01*
X51443Y28126D01*
X51404Y28118D01*
X51365Y28112D01*
X51326Y28110D01*
X51274Y28113D01*
X51224Y28122D01*
X51176Y28136D01*
X51131Y28156D01*
X51090Y28182D01*
X51054Y28212D01*
X51024Y28248D01*
X50999Y28289D01*
X50980Y28334D01*
X50966Y28381D01*
X50957Y28431D01*
X50954Y28483D01*
X50957Y28535D01*
X50966Y28586D01*
X50979Y28634D01*
X50999Y28681D01*
X51024Y28724D01*
X51053Y28761D01*
X51087Y28793D01*
X51127Y28818D01*
X51170Y28837D01*
X51216Y28851D01*
X51266Y28860D01*
X51319Y28862D01*
X51357Y28861D01*
X51394Y28856D01*
X51428Y28848D01*
X51461Y28837D01*
X51491Y28823D01*
X51518Y28806D01*
X51541Y28787D01*
X51561Y28766D01*
X51578Y28741D01*
X51593Y28713D01*
X51606Y28682D01*
X51616Y28647D01*
X51529Y28623D01*
X51521Y28649D01*
X51511Y28672D01*
X51500Y28693D01*
X51489Y28710D01*
X51475Y28725D01*
X51459Y28739D01*
X51441Y28751D01*
X51419Y28761D01*
X51396Y28769D01*
X51372Y28775D01*
X51346Y28779D01*
X51319Y28780D01*
X51287Y28779D01*
X51258Y28775D01*
X51230Y28769D01*
X51205Y28760D01*
X51182Y28749D01*
X51162Y28737D01*
X51143Y28723D01*
X51127Y28707D01*
X51113Y28690D01*
X51101Y28673D01*
X51090Y28654D01*
X51081Y28635D01*
X51069Y28601D01*
X51061Y28565D01*
X51055Y28528D01*
X51054Y28489D01*
X51056Y28442D01*
X51062Y28400D01*
X51073Y28361D01*
X51087Y28326D01*
X51106Y28296D01*
X51128Y28269D01*
X51155Y28247D01*
X51185Y28229D01*
X51217Y28215D01*
X51251Y28205D01*
X51285Y28199D01*
X51321Y28197D01*
X51352Y28199D01*
X51382Y28203D01*
X51413Y28211D01*
X51443Y28221D01*
X51471Y28234D01*
X51495Y28246D01*
X51516Y28259D01*
X51533Y28273D01*
X51533Y28408D01*
X51319Y28408D01*
X51319Y28408D01*
X51768Y28123D02*
X51768Y28850D01*
X51867Y28850D01*
X52249Y28279D01*
X52249Y28850D01*
X52341Y28850D01*
X52341Y28123D01*
X52242Y28123D01*
X51860Y28694D01*
X51860Y28123D01*
X51768Y28123D01*
X51768Y28123D01*
X52503Y28123D02*
X52503Y28850D01*
X52752Y28850D01*
X52752Y28764D01*
X52599Y28764D01*
X52599Y28209D01*
X52599Y28209D01*
X52754Y28209D01*
X52788Y28209D01*
X52819Y28212D01*
X52845Y28216D01*
X52867Y28222D01*
X52887Y28229D01*
X52904Y28238D01*
X52919Y28248D01*
X52932Y28260D01*
X52949Y28278D01*
X52963Y28300D01*
X52975Y28324D01*
X52986Y28352D01*
X52994Y28382D01*
X53000Y28416D01*
X53004Y28452D01*
X53005Y28492D01*
X53003Y28546D01*
X52995Y28593D01*
X52984Y28633D01*
X52967Y28667D01*
X52948Y28695D01*
X52926Y28718D01*
X52902Y28736D01*
X52876Y28749D01*
X52854Y28756D01*
X52826Y28761D01*
X52792Y28763D01*
X52752Y28764D01*
X52752Y28850D01*
X52753Y28850D01*
X52793Y28849D01*
X52828Y28847D01*
X52858Y28844D01*
X52883Y28840D01*
X52913Y28831D01*
X52941Y28819D01*
X52966Y28805D01*
X52989Y28788D01*
X53016Y28762D01*
X53040Y28732D01*
X53059Y28699D01*
X53076Y28663D01*
X53088Y28624D01*
X53097Y28582D01*
X53102Y28538D01*
X53104Y28490D01*
X53103Y28450D01*
X53099Y28412D01*
X53093Y28377D01*
X53085Y28344D01*
X53074Y28313D01*
X53063Y28285D01*
X53050Y28260D01*
X53035Y28238D01*
X53020Y28218D01*
X53003Y28200D01*
X52987Y28185D01*
X52969Y28172D01*
X52950Y28160D01*
X52929Y28151D01*
X52907Y28142D01*
X52882Y28135D01*
X52856Y28130D01*
X52827Y28126D01*
X52797Y28124D01*
X52765Y28123D01*
X52503Y28123D01*
X52503Y28123D01*
X39134Y25446D02*
X39134Y25646D01*
X38936Y25646D01*
X38936Y25729D01*
X39134Y25729D01*
X39134Y25927D01*
X39218Y25927D01*
X39218Y25729D01*
X39416Y25729D01*
X39416Y25646D01*
X39218Y25646D01*
X39218Y25446D01*
X39134Y25446D01*
X39134Y25446D01*
X39851Y25329D02*
X39762Y25329D01*
X39762Y25898D01*
X39744Y25882D01*
X39725Y25867D01*
X39702Y25852D01*
X39677Y25836D01*
X39652Y25822D01*
X39628Y25809D01*
X39605Y25799D01*
X39583Y25790D01*
X39583Y25876D01*
X39620Y25895D01*
X39653Y25915D01*
X39685Y25938D01*
X39714Y25962D01*
X39740Y25987D01*
X39762Y26011D01*
X39780Y26035D01*
X39794Y26059D01*
X39851Y26059D01*
X39851Y25329D01*
X39851Y25329D01*
X40549Y25415D02*
X40549Y25329D01*
X40068Y25329D01*
X40069Y25345D01*
X40071Y25360D01*
X40074Y25376D01*
X40079Y25391D01*
X40089Y25415D01*
X40103Y25440D01*
X40119Y25464D01*
X40138Y25488D01*
X40160Y25512D01*
X40187Y25539D01*
X40219Y25567D01*
X40254Y25598D01*
X40309Y25644D01*
X40354Y25685D01*
X40389Y25721D01*
X40415Y25752D01*
X40433Y25780D01*
X40446Y25807D01*
X40454Y25833D01*
X40456Y25859D01*
X40454Y25885D01*
X40447Y25908D01*
X40435Y25929D01*
X40418Y25949D01*
X40398Y25965D01*
X40375Y25976D01*
X40349Y25983D01*
X40319Y25985D01*
X40289Y25983D01*
X40261Y25975D01*
X40237Y25963D01*
X40216Y25946D01*
X40199Y25925D01*
X40187Y25900D01*
X40180Y25872D01*
X40177Y25839D01*
X40085Y25849D01*
X40093Y25897D01*
X40108Y25939D01*
X40129Y25975D01*
X40156Y26005D01*
X40190Y26029D01*
X40228Y26046D01*
X40272Y26056D01*
X40321Y26059D01*
X40371Y26055D01*
X40415Y26045D01*
X40454Y26026D01*
X40487Y26001D01*
X40514Y25970D01*
X40533Y25936D01*
X40544Y25898D01*
X40548Y25857D01*
X40547Y25835D01*
X40544Y25814D01*
X40538Y25792D01*
X40530Y25771D01*
X40520Y25750D01*
X40507Y25728D01*
X40490Y25706D01*
X40471Y25683D01*
X40447Y25657D01*
X40416Y25627D01*
X40378Y25593D01*
X40333Y25555D01*
X40297Y25524D01*
X40267Y25498D01*
X40245Y25478D01*
X40230Y25463D01*
X40219Y25451D01*
X40209Y25439D01*
X40200Y25427D01*
X40192Y25415D01*
X40549Y25415D01*
X40549Y25415D01*
X40889Y25329D02*
X40607Y26056D01*
X40711Y26056D01*
X40900Y25528D01*
X40911Y25496D01*
X40921Y25466D01*
X40930Y25437D01*
X40939Y25409D01*
X40947Y25438D01*
X40957Y25468D01*
X40967Y25498D01*
X40978Y25528D01*
X41174Y26056D01*
X41272Y26056D01*
X40988Y25329D01*
X40889Y25329D01*
X40889Y25329D01*
X39699Y23160D02*
X39699Y23360D01*
X39501Y23360D01*
X39501Y23443D01*
X39699Y23443D01*
X39699Y23641D01*
X39783Y23641D01*
X39783Y23443D01*
X39981Y23443D01*
X39981Y23360D01*
X39783Y23360D01*
X39783Y23160D01*
X39699Y23160D01*
X39699Y23160D01*
X40080Y23233D02*
X40174Y23241D01*
X40181Y23209D01*
X40191Y23181D01*
X40205Y23158D01*
X40222Y23138D01*
X40242Y23123D01*
X40264Y23112D01*
X40288Y23106D01*
X40313Y23104D01*
X40344Y23107D01*
X40373Y23116D01*
X40399Y23131D01*
X40423Y23152D01*
X40442Y23179D01*
X40456Y23209D01*
X40464Y23243D01*
X40467Y23281D01*
X40465Y23318D01*
X40457Y23350D01*
X40443Y23378D01*
X40424Y23402D01*
X40401Y23421D01*
X40375Y23435D01*
X40345Y23443D01*
X40312Y23446D01*
X40291Y23445D01*
X40271Y23441D01*
X40252Y23435D01*
X40234Y23427D01*
X40218Y23416D01*
X40203Y23404D01*
X40190Y23391D01*
X40180Y23376D01*
X40096Y23387D01*
X40166Y23760D01*
X40528Y23760D01*
X40528Y23675D01*
X40238Y23675D01*
X40198Y23479D01*
X40232Y23499D01*
X40265Y23514D01*
X40300Y23522D01*
X40336Y23525D01*
X40382Y23521D01*
X40424Y23509D01*
X40462Y23488D01*
X40497Y23459D01*
X40525Y23424D01*
X40546Y23384D01*
X40558Y23339D01*
X40562Y23289D01*
X40558Y23242D01*
X40548Y23197D01*
X40530Y23156D01*
X40504Y23119D01*
X40466Y23080D01*
X40422Y23052D01*
X40371Y23036D01*
X40313Y23030D01*
X40266Y23034D01*
X40223Y23044D01*
X40185Y23062D01*
X40152Y23086D01*
X40124Y23116D01*
X40102Y23151D01*
X40088Y23190D01*
X40080Y23233D01*
X40080Y23233D01*
X40889Y23043D02*
X40607Y23770D01*
X40711Y23770D01*
X40900Y23242D01*
X40911Y23210D01*
X40921Y23180D01*
X40930Y23151D01*
X40939Y23123D01*
X40947Y23152D01*
X40957Y23182D01*
X40967Y23212D01*
X40978Y23242D01*
X41174Y23770D01*
X41272Y23770D01*
X40988Y23043D01*
X40889Y23043D01*
X40889Y23043D01*
X39441Y28408D02*
X39441Y28493D01*
X39749Y28494D01*
X39749Y28224D01*
X39714Y28197D01*
X39677Y28174D01*
X39640Y28155D01*
X39603Y28139D01*
X39565Y28126D01*
X39527Y28118D01*
X39488Y28112D01*
X39448Y28110D01*
X39396Y28113D01*
X39346Y28122D01*
X39299Y28136D01*
X39254Y28156D01*
X39212Y28182D01*
X39177Y28212D01*
X39146Y28248D01*
X39121Y28289D01*
X39102Y28334D01*
X39088Y28381D01*
X39080Y28431D01*
X39077Y28483D01*
X39079Y28535D01*
X39088Y28586D01*
X39102Y28634D01*
X39121Y28681D01*
X39146Y28724D01*
X39175Y28761D01*
X39210Y28793D01*
X39249Y28818D01*
X39292Y28837D01*
X39339Y28851D01*
X39388Y28860D01*
X39441Y28862D01*
X39479Y28861D01*
X39516Y28856D01*
X39551Y28848D01*
X39583Y28837D01*
X39614Y28823D01*
X39640Y28806D01*
X39664Y28787D01*
X39683Y28766D01*
X39700Y28741D01*
X39715Y28713D01*
X39728Y28682D01*
X39739Y28647D01*
X39652Y28623D01*
X39643Y28649D01*
X39633Y28672D01*
X39623Y28693D01*
X39611Y28710D01*
X39598Y28725D01*
X39581Y28739D01*
X39563Y28751D01*
X39542Y28761D01*
X39518Y28769D01*
X39494Y28775D01*
X39468Y28779D01*
X39441Y28780D01*
X39409Y28779D01*
X39380Y28775D01*
X39352Y28769D01*
X39327Y28760D01*
X39304Y28749D01*
X39284Y28737D01*
X39266Y28723D01*
X39250Y28707D01*
X39236Y28690D01*
X39223Y28673D01*
X39213Y28654D01*
X39204Y28635D01*
X39192Y28601D01*
X39183Y28565D01*
X39178Y28528D01*
X39176Y28489D01*
X39178Y28442D01*
X39184Y28400D01*
X39195Y28361D01*
X39209Y28326D01*
X39228Y28296D01*
X39251Y28269D01*
X39277Y28247D01*
X39307Y28229D01*
X39339Y28215D01*
X39373Y28205D01*
X39407Y28199D01*
X39443Y28197D01*
X39474Y28199D01*
X39505Y28203D01*
X39535Y28211D01*
X39565Y28221D01*
X39593Y28234D01*
X39617Y28246D01*
X39638Y28259D01*
X39655Y28273D01*
X39655Y28408D01*
X39441Y28408D01*
X39441Y28408D01*
X39890Y28123D02*
X39890Y28850D01*
X39989Y28850D01*
X40371Y28279D01*
X40371Y28850D01*
X40463Y28850D01*
X40463Y28123D01*
X40365Y28123D01*
X39983Y28694D01*
X39983Y28123D01*
X39890Y28123D01*
X39890Y28123D01*
X40625Y28123D02*
X40625Y28850D01*
X40874Y28850D01*
X40874Y28764D01*
X40721Y28764D01*
X40721Y28209D01*
X40721Y28209D01*
X40877Y28209D01*
X40911Y28209D01*
X40941Y28212D01*
X40967Y28216D01*
X40989Y28222D01*
X41009Y28229D01*
X41026Y28238D01*
X41041Y28248D01*
X41055Y28260D01*
X41071Y28278D01*
X41085Y28300D01*
X41098Y28324D01*
X41108Y28352D01*
X41116Y28382D01*
X41122Y28416D01*
X41126Y28452D01*
X41127Y28492D01*
X41125Y28546D01*
X41118Y28593D01*
X41106Y28633D01*
X41090Y28667D01*
X41070Y28695D01*
X41048Y28718D01*
X41024Y28736D01*
X40999Y28749D01*
X40976Y28756D01*
X40948Y28761D01*
X40914Y28763D01*
X40874Y28764D01*
X40874Y28850D01*
X40876Y28850D01*
X40915Y28849D01*
X40950Y28847D01*
X40980Y28844D01*
X41005Y28840D01*
X41035Y28831D01*
X41063Y28819D01*
X41088Y28805D01*
X41112Y28788D01*
X41139Y28762D01*
X41162Y28732D01*
X41182Y28699D01*
X41198Y28663D01*
X41210Y28624D01*
X41219Y28582D01*
X41225Y28538D01*
X41226Y28490D01*
X41225Y28450D01*
X41221Y28412D01*
X41215Y28377D01*
X41207Y28344D01*
X41197Y28313D01*
X41185Y28285D01*
X41172Y28260D01*
X41157Y28238D01*
X41142Y28218D01*
X41126Y28200D01*
X41109Y28185D01*
X41091Y28172D01*
X41072Y28160D01*
X41051Y28151D01*
X41029Y28142D01*
X41004Y28135D01*
X40978Y28130D01*
X40950Y28126D01*
X40920Y28124D01*
X40887Y28123D01*
X40625Y28123D01*
X40625Y28123D01*
X39441Y30948D02*
X39441Y31033D01*
X39749Y31034D01*
X39749Y30764D01*
X39714Y30737D01*
X39677Y30714D01*
X39640Y30695D01*
X39603Y30679D01*
X39565Y30666D01*
X39527Y30658D01*
X39488Y30652D01*
X39448Y30650D01*
X39396Y30653D01*
X39346Y30662D01*
X39299Y30676D01*
X39254Y30696D01*
X39212Y30722D01*
X39177Y30752D01*
X39146Y30788D01*
X39121Y30829D01*
X39102Y30874D01*
X39088Y30921D01*
X39080Y30971D01*
X39077Y31023D01*
X39079Y31075D01*
X39088Y31126D01*
X39102Y31174D01*
X39121Y31221D01*
X39146Y31264D01*
X39175Y31301D01*
X39210Y31333D01*
X39249Y31358D01*
X39292Y31377D01*
X39339Y31391D01*
X39388Y31400D01*
X39441Y31402D01*
X39479Y31401D01*
X39516Y31396D01*
X39551Y31388D01*
X39583Y31377D01*
X39614Y31363D01*
X39640Y31346D01*
X39664Y31327D01*
X39683Y31306D01*
X39700Y31281D01*
X39715Y31253D01*
X39728Y31222D01*
X39739Y31187D01*
X39652Y31163D01*
X39643Y31189D01*
X39633Y31212D01*
X39623Y31233D01*
X39611Y31250D01*
X39598Y31265D01*
X39581Y31279D01*
X39563Y31291D01*
X39542Y31301D01*
X39518Y31309D01*
X39494Y31315D01*
X39468Y31319D01*
X39441Y31320D01*
X39409Y31319D01*
X39380Y31315D01*
X39352Y31309D01*
X39327Y31300D01*
X39304Y31289D01*
X39284Y31277D01*
X39266Y31263D01*
X39250Y31247D01*
X39236Y31230D01*
X39223Y31213D01*
X39213Y31194D01*
X39204Y31175D01*
X39192Y31141D01*
X39183Y31105D01*
X39178Y31068D01*
X39176Y31029D01*
X39178Y30982D01*
X39184Y30940D01*
X39195Y30901D01*
X39209Y30866D01*
X39228Y30836D01*
X39251Y30809D01*
X39277Y30787D01*
X39307Y30769D01*
X39339Y30755D01*
X39373Y30745D01*
X39407Y30739D01*
X39443Y30737D01*
X39474Y30739D01*
X39505Y30743D01*
X39535Y30751D01*
X39565Y30761D01*
X39593Y30774D01*
X39617Y30786D01*
X39638Y30799D01*
X39655Y30813D01*
X39655Y30948D01*
X39441Y30948D01*
X39441Y30948D01*
X39890Y30663D02*
X39890Y31390D01*
X39989Y31390D01*
X40371Y30819D01*
X40371Y31390D01*
X40463Y31390D01*
X40463Y30663D01*
X40365Y30663D01*
X39983Y31234D01*
X39983Y30663D01*
X39890Y30663D01*
X39890Y30663D01*
X40625Y30663D02*
X40625Y31390D01*
X40874Y31390D01*
X40874Y31304D01*
X40721Y31304D01*
X40721Y30749D01*
X40721Y30749D01*
X40877Y30749D01*
X40911Y30749D01*
X40941Y30752D01*
X40967Y30756D01*
X40989Y30762D01*
X41009Y30769D01*
X41026Y30778D01*
X41041Y30788D01*
X41055Y30800D01*
X41071Y30818D01*
X41085Y30840D01*
X41098Y30864D01*
X41108Y30892D01*
X41116Y30922D01*
X41122Y30956D01*
X41126Y30992D01*
X41127Y31032D01*
X41125Y31086D01*
X41118Y31133D01*
X41106Y31173D01*
X41090Y31207D01*
X41070Y31235D01*
X41048Y31258D01*
X41024Y31276D01*
X40999Y31289D01*
X40976Y31296D01*
X40948Y31301D01*
X40914Y31303D01*
X40874Y31304D01*
X40874Y31390D01*
X40876Y31390D01*
X40915Y31389D01*
X40950Y31387D01*
X40980Y31384D01*
X41005Y31380D01*
X41035Y31371D01*
X41063Y31359D01*
X41088Y31345D01*
X41112Y31328D01*
X41139Y31302D01*
X41162Y31272D01*
X41182Y31239D01*
X41198Y31203D01*
X41210Y31164D01*
X41219Y31122D01*
X41225Y31078D01*
X41226Y31030D01*
X41225Y30990D01*
X41221Y30952D01*
X41215Y30917D01*
X41207Y30884D01*
X41197Y30853D01*
X41185Y30825D01*
X41172Y30800D01*
X41157Y30778D01*
X41142Y30758D01*
X41126Y30740D01*
X41109Y30725D01*
X41091Y30712D01*
X41072Y30700D01*
X41051Y30691D01*
X41029Y30682D01*
X41004Y30675D01*
X40978Y30670D01*
X40950Y30666D01*
X40920Y30664D01*
X40887Y30663D01*
X40625Y30663D01*
X40625Y30663D01*
X39441Y33488D02*
X39441Y33573D01*
X39749Y33574D01*
X39749Y33304D01*
X39714Y33277D01*
X39677Y33254D01*
X39640Y33235D01*
X39603Y33219D01*
X39565Y33206D01*
X39527Y33198D01*
X39488Y33192D01*
X39448Y33190D01*
X39396Y33193D01*
X39346Y33202D01*
X39299Y33216D01*
X39254Y33236D01*
X39212Y33262D01*
X39177Y33292D01*
X39146Y33328D01*
X39121Y33369D01*
X39102Y33414D01*
X39088Y33461D01*
X39080Y33511D01*
X39077Y33563D01*
X39079Y33615D01*
X39088Y33666D01*
X39102Y33714D01*
X39121Y33761D01*
X39146Y33804D01*
X39175Y33841D01*
X39210Y33873D01*
X39249Y33898D01*
X39292Y33917D01*
X39339Y33931D01*
X39388Y33940D01*
X39441Y33942D01*
X39479Y33941D01*
X39516Y33936D01*
X39551Y33928D01*
X39583Y33917D01*
X39614Y33903D01*
X39640Y33886D01*
X39664Y33867D01*
X39683Y33846D01*
X39700Y33821D01*
X39715Y33793D01*
X39728Y33762D01*
X39739Y33727D01*
X39652Y33703D01*
X39643Y33729D01*
X39633Y33752D01*
X39623Y33773D01*
X39611Y33790D01*
X39598Y33805D01*
X39581Y33819D01*
X39563Y33831D01*
X39542Y33841D01*
X39518Y33849D01*
X39494Y33855D01*
X39468Y33859D01*
X39441Y33860D01*
X39409Y33859D01*
X39380Y33855D01*
X39352Y33849D01*
X39327Y33840D01*
X39304Y33829D01*
X39284Y33817D01*
X39266Y33803D01*
X39250Y33787D01*
X39236Y33770D01*
X39223Y33753D01*
X39213Y33734D01*
X39204Y33715D01*
X39192Y33681D01*
X39183Y33645D01*
X39178Y33608D01*
X39176Y33569D01*
X39178Y33522D01*
X39184Y33480D01*
X39195Y33441D01*
X39209Y33406D01*
X39228Y33376D01*
X39251Y33349D01*
X39277Y33327D01*
X39307Y33309D01*
X39339Y33295D01*
X39373Y33285D01*
X39407Y33279D01*
X39443Y33277D01*
X39474Y33279D01*
X39505Y33283D01*
X39535Y33291D01*
X39565Y33301D01*
X39593Y33314D01*
X39617Y33326D01*
X39638Y33339D01*
X39655Y33353D01*
X39655Y33488D01*
X39441Y33488D01*
X39441Y33488D01*
X39890Y33203D02*
X39890Y33930D01*
X39989Y33930D01*
X40371Y33359D01*
X40371Y33930D01*
X40463Y33930D01*
X40463Y33203D01*
X40365Y33203D01*
X39983Y33774D01*
X39983Y33203D01*
X39890Y33203D01*
X39890Y33203D01*
X40625Y33203D02*
X40625Y33930D01*
X40874Y33930D01*
X40874Y33844D01*
X40721Y33844D01*
X40721Y33289D01*
X40721Y33289D01*
X40877Y33289D01*
X40911Y33289D01*
X40941Y33292D01*
X40967Y33296D01*
X40989Y33302D01*
X41009Y33309D01*
X41026Y33318D01*
X41041Y33328D01*
X41055Y33340D01*
X41071Y33358D01*
X41085Y33380D01*
X41098Y33404D01*
X41108Y33432D01*
X41116Y33462D01*
X41122Y33496D01*
X41126Y33532D01*
X41127Y33572D01*
X41125Y33626D01*
X41118Y33673D01*
X41106Y33713D01*
X41090Y33747D01*
X41070Y33775D01*
X41048Y33798D01*
X41024Y33816D01*
X40999Y33829D01*
X40976Y33836D01*
X40948Y33841D01*
X40914Y33843D01*
X40874Y33844D01*
X40874Y33930D01*
X40876Y33930D01*
X40915Y33929D01*
X40950Y33927D01*
X40980Y33924D01*
X41005Y33920D01*
X41035Y33911D01*
X41063Y33899D01*
X41088Y33885D01*
X41112Y33868D01*
X41139Y33842D01*
X41162Y33812D01*
X41182Y33779D01*
X41198Y33743D01*
X41210Y33704D01*
X41219Y33662D01*
X41225Y33618D01*
X41226Y33570D01*
X41225Y33530D01*
X41221Y33492D01*
X41215Y33457D01*
X41207Y33424D01*
X41197Y33393D01*
X41185Y33365D01*
X41172Y33340D01*
X41157Y33318D01*
X41142Y33298D01*
X41126Y33280D01*
X41109Y33265D01*
X41091Y33252D01*
X41072Y33240D01*
X41051Y33231D01*
X41029Y33222D01*
X41004Y33215D01*
X40978Y33210D01*
X40950Y33206D01*
X40920Y33204D01*
X40887Y33203D01*
X40625Y33203D01*
X40625Y33203D01*
X39167Y35961D02*
X39167Y36051D01*
X39441Y36051D01*
X39441Y35961D01*
X39167Y35961D01*
X39167Y35961D01*
X39851Y35743D02*
X39762Y35743D01*
X39762Y36312D01*
X39744Y36296D01*
X39725Y36281D01*
X39702Y36266D01*
X39677Y36250D01*
X39652Y36236D01*
X39628Y36223D01*
X39605Y36213D01*
X39583Y36204D01*
X39583Y36290D01*
X39620Y36309D01*
X39653Y36329D01*
X39685Y36352D01*
X39714Y36376D01*
X39740Y36401D01*
X39762Y36425D01*
X39780Y36449D01*
X39794Y36473D01*
X39851Y36473D01*
X39851Y35743D01*
X39851Y35743D01*
X40549Y35829D02*
X40549Y35743D01*
X40068Y35743D01*
X40069Y35759D01*
X40071Y35774D01*
X40074Y35790D01*
X40079Y35805D01*
X40089Y35829D01*
X40103Y35854D01*
X40119Y35878D01*
X40138Y35902D01*
X40160Y35926D01*
X40187Y35953D01*
X40219Y35981D01*
X40254Y36012D01*
X40309Y36058D01*
X40354Y36099D01*
X40389Y36135D01*
X40415Y36166D01*
X40433Y36194D01*
X40446Y36221D01*
X40454Y36247D01*
X40456Y36273D01*
X40454Y36299D01*
X40447Y36322D01*
X40435Y36343D01*
X40418Y36363D01*
X40398Y36379D01*
X40375Y36390D01*
X40349Y36397D01*
X40319Y36399D01*
X40289Y36397D01*
X40261Y36389D01*
X40237Y36377D01*
X40216Y36360D01*
X40199Y36339D01*
X40187Y36314D01*
X40180Y36286D01*
X40177Y36253D01*
X40085Y36263D01*
X40093Y36311D01*
X40108Y36353D01*
X40129Y36389D01*
X40156Y36419D01*
X40190Y36443D01*
X40228Y36460D01*
X40272Y36470D01*
X40321Y36473D01*
X40371Y36469D01*
X40415Y36459D01*
X40454Y36440D01*
X40487Y36415D01*
X40514Y36384D01*
X40533Y36350D01*
X40544Y36312D01*
X40548Y36271D01*
X40547Y36249D01*
X40544Y36228D01*
X40538Y36206D01*
X40530Y36185D01*
X40520Y36164D01*
X40507Y36142D01*
X40490Y36120D01*
X40471Y36097D01*
X40447Y36071D01*
X40416Y36041D01*
X40378Y36007D01*
X40333Y35969D01*
X40297Y35938D01*
X40267Y35912D01*
X40245Y35892D01*
X40230Y35877D01*
X40219Y35865D01*
X40209Y35853D01*
X40200Y35841D01*
X40192Y35829D01*
X40549Y35829D01*
X40549Y35829D01*
X40889Y35743D02*
X40607Y36470D01*
X40711Y36470D01*
X40900Y35942D01*
X40911Y35910D01*
X40921Y35880D01*
X40930Y35851D01*
X40939Y35823D01*
X40947Y35852D01*
X40957Y35882D01*
X40967Y35912D01*
X40978Y35942D01*
X41174Y36470D01*
X41272Y36470D01*
X40988Y35743D01*
X40889Y35743D01*
X40889Y35743D01*
G37*
%LNtop silkscreen component 8aa9dbe17b2694dd*%
D10*
X9700Y12075D02*
X9700Y32925D01*
X19300Y32925*
X19300Y12075*
X9700Y12075*
D14*
X1500Y27500D02*
X1500Y32500D01*
X9500Y32500*
X9500Y27500*
X1500Y27500*
X1500Y22500D02*
X1500Y27500D01*
X9500Y27500*
X9500Y22500*
X1500Y22500*
X1500Y12500D02*
X1500Y17500D01*
X9500Y17500*
X9500Y12500*
X1500Y12500*
X1500Y17500D02*
X1500Y22500D01*
X9500Y22500*
X9500Y17500*
X1500Y17500*
G36*
X4339Y29930D02*
X4339Y30106D01*
X4879Y30106D01*
X4879Y29930D01*
X4339Y29930D01*
X4339Y29930D01*
X5686Y29500D02*
X5511Y29500D01*
X5511Y30620D01*
X5476Y30590D01*
X5437Y30560D01*
X5393Y30529D01*
X5344Y30499D01*
X5294Y30471D01*
X5246Y30446D01*
X5201Y30425D01*
X5159Y30408D01*
X5159Y30578D01*
X5231Y30615D01*
X5297Y30655D01*
X5359Y30699D01*
X5417Y30746D01*
X5468Y30795D01*
X5511Y30843D01*
X5546Y30891D01*
X5573Y30938D01*
X5686Y30938D01*
X5686Y29500D01*
X5686Y29500D01*
X7061Y29669D02*
X7061Y29500D01*
X6114Y29500D01*
X6115Y29531D01*
X6118Y29562D01*
X6125Y29592D01*
X6135Y29622D01*
X6156Y29670D01*
X6182Y29718D01*
X6213Y29765D01*
X6250Y29813D01*
X6295Y29861D01*
X6348Y29914D01*
X6410Y29970D01*
X6480Y30029D01*
X6588Y30120D01*
X6676Y30201D01*
X6745Y30272D01*
X6796Y30333D01*
X6832Y30388D01*
X6857Y30441D01*
X6873Y30493D01*
X6878Y30544D01*
X6873Y30594D01*
X6859Y30640D01*
X6836Y30682D01*
X6803Y30720D01*
X6763Y30752D01*
X6717Y30774D01*
X6666Y30788D01*
X6608Y30792D01*
X6548Y30787D01*
X6494Y30773D01*
X6446Y30749D01*
X6405Y30716D01*
X6372Y30674D01*
X6348Y30625D01*
X6333Y30569D01*
X6328Y30505D01*
X6147Y30523D01*
X6163Y30619D01*
X6192Y30702D01*
X6233Y30773D01*
X6287Y30832D01*
X6353Y30878D01*
X6429Y30911D01*
X6515Y30931D01*
X6612Y30938D01*
X6710Y30930D01*
X6797Y30909D01*
X6873Y30873D01*
X6938Y30823D01*
X6991Y30763D01*
X7029Y30695D01*
X7051Y30621D01*
X7059Y30540D01*
X7056Y30497D01*
X7050Y30455D01*
X7039Y30413D01*
X7023Y30371D01*
X7003Y30329D01*
X6977Y30286D01*
X6945Y30242D01*
X6907Y30196D01*
X6859Y30146D01*
X6798Y30087D01*
X6724Y30020D01*
X6636Y29944D01*
X6564Y29883D01*
X6506Y29833D01*
X6462Y29793D01*
X6433Y29764D01*
X6411Y29740D01*
X6392Y29717D01*
X6374Y29693D01*
X6358Y29669D01*
X7061Y29669D01*
X7061Y29669D01*
X7729Y29500D02*
X7175Y30932D01*
X7380Y30932D01*
X7752Y29892D01*
X7773Y29830D01*
X7793Y29771D01*
X7811Y29713D01*
X7827Y29657D01*
X7844Y29716D01*
X7863Y29774D01*
X7883Y29833D01*
X7904Y29892D01*
X8291Y30932D01*
X8484Y30932D01*
X7924Y29500D01*
X7729Y29500D01*
X7729Y29500D01*
X4880Y25062D02*
X4880Y25229D01*
X5486Y25230D01*
X5486Y24699D01*
X5416Y24647D01*
X5344Y24602D01*
X5272Y24563D01*
X5198Y24532D01*
X5123Y24507D01*
X5048Y24490D01*
X4971Y24479D01*
X4893Y24476D01*
X4790Y24481D01*
X4692Y24498D01*
X4599Y24526D01*
X4510Y24566D01*
X4429Y24616D01*
X4359Y24676D01*
X4299Y24747D01*
X4250Y24827D01*
X4211Y24915D01*
X4184Y25008D01*
X4168Y25106D01*
X4162Y25209D01*
X4167Y25312D01*
X4184Y25411D01*
X4211Y25507D01*
X4249Y25599D01*
X4298Y25684D01*
X4356Y25757D01*
X4424Y25818D01*
X4501Y25868D01*
X4586Y25907D01*
X4677Y25934D01*
X4775Y25951D01*
X4879Y25956D01*
X4955Y25953D01*
X5027Y25943D01*
X5095Y25928D01*
X5160Y25906D01*
X5219Y25878D01*
X5272Y25846D01*
X5317Y25808D01*
X5356Y25766D01*
X5390Y25717D01*
X5419Y25662D01*
X5444Y25600D01*
X5465Y25531D01*
X5294Y25484D01*
X5277Y25536D01*
X5258Y25582D01*
X5237Y25622D01*
X5214Y25656D01*
X5187Y25686D01*
X5156Y25713D01*
X5119Y25736D01*
X5077Y25756D01*
X5031Y25773D01*
X4983Y25785D01*
X4933Y25792D01*
X4880Y25794D01*
X4817Y25791D01*
X4759Y25784D01*
X4705Y25772D01*
X4655Y25754D01*
X4610Y25733D01*
X4570Y25709D01*
X4534Y25681D01*
X4502Y25650D01*
X4475Y25617D01*
X4451Y25583D01*
X4430Y25547D01*
X4412Y25509D01*
X4388Y25441D01*
X4371Y25370D01*
X4361Y25297D01*
X4357Y25221D01*
X4361Y25129D01*
X4374Y25045D01*
X4394Y24969D01*
X4423Y24900D01*
X4460Y24840D01*
X4504Y24788D01*
X4556Y24744D01*
X4615Y24709D01*
X4679Y24682D01*
X4745Y24662D01*
X4813Y24650D01*
X4883Y24646D01*
X4944Y24649D01*
X5004Y24658D01*
X5064Y24673D01*
X5123Y24694D01*
X5178Y24718D01*
X5226Y24743D01*
X5267Y24768D01*
X5301Y24795D01*
X5301Y25062D01*
X4880Y25062D01*
X4880Y25062D01*
X5764Y24500D02*
X5764Y25932D01*
X5958Y25932D01*
X6710Y24808D01*
X6710Y25932D01*
X6892Y25932D01*
X6892Y24500D01*
X6697Y24500D01*
X5945Y25625D01*
X5945Y24500D01*
X5764Y24500D01*
X5764Y24500D01*
X7210Y24500D02*
X7210Y25932D01*
X7700Y25932D01*
X7700Y25763D01*
X7399Y25763D01*
X7399Y24669D01*
X7399Y24669D01*
X7705Y24669D01*
X7772Y24671D01*
X7831Y24676D01*
X7883Y24684D01*
X7927Y24695D01*
X7965Y24710D01*
X8000Y24727D01*
X8030Y24747D01*
X8056Y24770D01*
X8087Y24806D01*
X8116Y24849D01*
X8140Y24897D01*
X8161Y24951D01*
X8177Y25011D01*
X8189Y25077D01*
X8196Y25149D01*
X8198Y25227D01*
X8194Y25332D01*
X8180Y25425D01*
X8157Y25505D01*
X8124Y25572D01*
X8086Y25627D01*
X8043Y25672D01*
X7996Y25708D01*
X7945Y25733D01*
X7901Y25746D01*
X7846Y25755D01*
X7779Y25761D01*
X7700Y25763D01*
X7700Y25932D01*
X7703Y25932D01*
X7782Y25930D01*
X7850Y25927D01*
X7909Y25920D01*
X7958Y25911D01*
X8017Y25894D01*
X8072Y25871D01*
X8122Y25843D01*
X8168Y25809D01*
X8221Y25757D01*
X8267Y25700D01*
X8306Y25635D01*
X8337Y25564D01*
X8362Y25487D01*
X8380Y25404D01*
X8390Y25317D01*
X8394Y25224D01*
X8391Y25144D01*
X8384Y25070D01*
X8372Y25000D01*
X8355Y24935D01*
X8335Y24874D01*
X8312Y24819D01*
X8286Y24770D01*
X8258Y24726D01*
X8227Y24687D01*
X8195Y24652D01*
X8162Y24622D01*
X8127Y24596D01*
X8090Y24574D01*
X8049Y24555D01*
X8005Y24538D01*
X7957Y24524D01*
X7905Y24514D01*
X7849Y24506D01*
X7790Y24502D01*
X7727Y24500D01*
X7210Y24500D01*
X7210Y24500D01*
X4274Y19731D02*
X4274Y20124D01*
X3885Y20124D01*
X3885Y20288D01*
X4274Y20288D01*
X4274Y20678D01*
X4440Y20678D01*
X4440Y20288D01*
X4830Y20288D01*
X4830Y20124D01*
X4440Y20124D01*
X4440Y19731D01*
X4274Y19731D01*
X4274Y19731D01*
X5686Y19500D02*
X5511Y19500D01*
X5511Y20620D01*
X5476Y20590D01*
X5437Y20560D01*
X5393Y20529D01*
X5344Y20499D01*
X5294Y20471D01*
X5246Y20446D01*
X5201Y20425D01*
X5159Y20408D01*
X5159Y20578D01*
X5231Y20615D01*
X5297Y20655D01*
X5359Y20699D01*
X5417Y20746D01*
X5468Y20795D01*
X5511Y20843D01*
X5546Y20891D01*
X5573Y20938D01*
X5686Y20938D01*
X5686Y19500D01*
X5686Y19500D01*
X7061Y19669D02*
X7061Y19500D01*
X6114Y19500D01*
X6115Y19531D01*
X6118Y19562D01*
X6125Y19592D01*
X6135Y19622D01*
X6156Y19670D01*
X6182Y19718D01*
X6213Y19765D01*
X6250Y19813D01*
X6295Y19861D01*
X6348Y19914D01*
X6410Y19970D01*
X6480Y20029D01*
X6588Y20120D01*
X6676Y20201D01*
X6745Y20272D01*
X6796Y20333D01*
X6832Y20388D01*
X6857Y20441D01*
X6873Y20493D01*
X6878Y20544D01*
X6873Y20594D01*
X6859Y20640D01*
X6836Y20682D01*
X6803Y20720D01*
X6763Y20752D01*
X6717Y20774D01*
X6666Y20788D01*
X6608Y20792D01*
X6548Y20787D01*
X6494Y20773D01*
X6446Y20749D01*
X6405Y20716D01*
X6372Y20674D01*
X6348Y20625D01*
X6333Y20569D01*
X6328Y20505D01*
X6147Y20523D01*
X6163Y20619D01*
X6192Y20702D01*
X6233Y20773D01*
X6287Y20832D01*
X6353Y20878D01*
X6429Y20911D01*
X6515Y20931D01*
X6612Y20938D01*
X6710Y20930D01*
X6797Y20909D01*
X6873Y20873D01*
X6938Y20823D01*
X6991Y20763D01*
X7029Y20695D01*
X7051Y20621D01*
X7059Y20540D01*
X7056Y20497D01*
X7050Y20455D01*
X7039Y20413D01*
X7023Y20371D01*
X7003Y20329D01*
X6977Y20286D01*
X6945Y20242D01*
X6907Y20196D01*
X6859Y20146D01*
X6798Y20087D01*
X6724Y20020D01*
X6636Y19944D01*
X6564Y19883D01*
X6506Y19833D01*
X6462Y19793D01*
X6433Y19764D01*
X6411Y19740D01*
X6392Y19717D01*
X6374Y19693D01*
X6358Y19669D01*
X7061Y19669D01*
X7061Y19669D01*
X7729Y19500D02*
X7175Y20932D01*
X7380Y20932D01*
X7752Y19892D01*
X7773Y19830D01*
X7793Y19771D01*
X7811Y19713D01*
X7827Y19657D01*
X7844Y19716D01*
X7863Y19774D01*
X7883Y19833D01*
X7904Y19892D01*
X8291Y20932D01*
X8484Y20932D01*
X7924Y19500D01*
X7729Y19500D01*
X7729Y19500D01*
X5387Y14731D02*
X5387Y15124D01*
X4997Y15124D01*
X4997Y15288D01*
X5387Y15288D01*
X5387Y15678D01*
X5553Y15678D01*
X5553Y15288D01*
X5942Y15288D01*
X5942Y15124D01*
X5553Y15124D01*
X5553Y14731D01*
X5387Y14731D01*
X5387Y14731D01*
X6137Y14875D02*
X6321Y14891D01*
X6335Y14827D01*
X6355Y14773D01*
X6382Y14726D01*
X6416Y14688D01*
X6456Y14658D01*
X6499Y14637D01*
X6546Y14624D01*
X6597Y14620D01*
X6658Y14626D01*
X6714Y14644D01*
X6765Y14674D01*
X6811Y14716D01*
X6850Y14768D01*
X6877Y14827D01*
X6894Y14895D01*
X6899Y14970D01*
X6894Y15041D01*
X6878Y15104D01*
X6852Y15160D01*
X6815Y15207D01*
X6769Y15245D01*
X6717Y15272D01*
X6659Y15289D01*
X6594Y15294D01*
X6552Y15292D01*
X6513Y15284D01*
X6476Y15272D01*
X6440Y15255D01*
X6408Y15235D01*
X6379Y15211D01*
X6354Y15185D01*
X6333Y15155D01*
X6168Y15177D01*
X6307Y15912D01*
X7019Y15912D01*
X7019Y15744D01*
X6447Y15744D01*
X6370Y15359D01*
X6435Y15399D01*
X6502Y15427D01*
X6571Y15444D01*
X6641Y15449D01*
X6731Y15441D01*
X6813Y15417D01*
X6889Y15376D01*
X6957Y15319D01*
X7013Y15250D01*
X7054Y15171D01*
X7078Y15083D01*
X7086Y14985D01*
X7079Y14891D01*
X7058Y14804D01*
X7022Y14724D01*
X6973Y14649D01*
X6897Y14573D01*
X6810Y14519D01*
X6709Y14486D01*
X6597Y14476D01*
X6503Y14482D01*
X6419Y14503D01*
X6344Y14537D01*
X6278Y14585D01*
X6223Y14644D01*
X6181Y14712D01*
X6152Y14789D01*
X6137Y14875D01*
X6137Y14875D01*
X7729Y14500D02*
X7175Y15932D01*
X7380Y15932D01*
X7752Y14892D01*
X7773Y14830D01*
X7793Y14771D01*
X7811Y14713D01*
X7827Y14657D01*
X7844Y14716D01*
X7863Y14774D01*
X7883Y14833D01*
X7904Y14892D01*
X8291Y15932D01*
X8484Y15932D01*
X7924Y14500D01*
X7729Y14500D01*
X7729Y14500D01*
G37*
%LNtop silkscreen component 781a32ea49690d2f*%
D10*
X11500Y1000D02*
X11500Y11000D01*
X63500Y11000*
X63500Y1000*
X11500Y1000*
D14*
X10825Y8750D03*
D15*
X37500Y0500D03*
%LNtop silkscreen component ef9ce2dfc510e03f*%
D10*
X35805Y18682D02*
X39195Y18682D01*
X35805Y18682D02*
X35805Y12752D01*
X39195Y12752*
X39195Y18682*
%LNtop silkscreen component 02f0c27996d92107*%
G75*
G03*
X66300Y24385D02*
X63700Y24385I-1300J-1386D01*
G75*
X63700Y21620D02*
X66300Y21620I1300J1386D01*
G36*
G01*
X62470Y23234D02*
X62470Y23038D01*
X62664Y23038D01*
X62664Y22956D01*
X62470Y22956D01*
X62470Y22761D01*
X62387Y22761D01*
X62387Y22956D01*
X62192Y22956D01*
X62192Y23038D01*
X62387Y23038D01*
X62387Y23234D01*
X62470Y23234D01*
X62470Y23234D01*
G37*
%LNtop silkscreen component a6d66b3445016952*%
X10339Y28875D02*
X10339Y31125D01*
X18661Y31125*
X18661Y28875*
X10339Y28875*
%LNtext*%
G36*
X56534Y17272D02*
X56989Y18457D01*
X57109Y18411D01*
X57096Y18350D01*
X57080Y18289D01*
X57062Y18228D01*
X57041Y18168D01*
X56901Y17795D01*
X56901Y17795D01*
X57332Y17795D01*
X57200Y18147D01*
X57171Y18224D01*
X57147Y18293D01*
X57126Y18356D01*
X57109Y18411D01*
X56989Y18457D01*
X57022Y18545D01*
X57204Y18545D01*
X57725Y17272D01*
X57533Y17272D01*
X57384Y17657D01*
X56852Y17657D01*
X56713Y17272D01*
X56534Y17272D01*
X56534Y17272D01*
X58051Y17272D02*
X58051Y18395D01*
X57632Y18395D01*
X57632Y18545D01*
X58641Y18545D01*
X58641Y18395D01*
X58220Y18395D01*
X58220Y17272D01*
X58051Y17272D01*
X58051Y17272D01*
X58684Y17272D02*
X59176Y17935D01*
X58742Y18545D01*
X58943Y18545D01*
X59174Y18218D01*
X59207Y18170D01*
X59235Y18128D01*
X59258Y18092D01*
X59276Y18062D01*
X59298Y18097D01*
X59323Y18133D01*
X59349Y18170D01*
X59377Y18207D01*
X59633Y18545D01*
X59816Y18545D01*
X59369Y17945D01*
X59851Y17272D01*
X59643Y17272D01*
X59322Y17726D01*
X59309Y17746D01*
X59295Y17767D01*
X59281Y17789D01*
X59267Y17811D01*
X59247Y17779D01*
X59230Y17753D01*
X59216Y17731D01*
X59206Y17716D01*
X58886Y17272D01*
X58684Y17272D01*
X58684Y17272D01*
X60815Y17412D02*
X60837Y17274D01*
X60805Y17268D01*
X60775Y17263D01*
X60746Y17261D01*
X60719Y17260D01*
X60679Y17262D01*
X60644Y17267D01*
X60613Y17275D01*
X60587Y17287D01*
X60565Y17301D01*
X60547Y17318D01*
X60532Y17337D01*
X60521Y17358D01*
X60513Y17385D01*
X60507Y17426D01*
X60503Y17478D01*
X60502Y17542D01*
X60502Y18072D01*
X60387Y18072D01*
X60387Y18194D01*
X60502Y18194D01*
X60502Y18422D01*
X60657Y18516D01*
X60657Y18194D01*
X60815Y18194D01*
X60815Y18072D01*
X60657Y18072D01*
X60657Y17533D01*
X60658Y17503D01*
X60659Y17478D01*
X60662Y17460D01*
X60666Y17447D01*
X60670Y17438D01*
X60677Y17430D01*
X60684Y17423D01*
X60693Y17417D01*
X60703Y17412D01*
X60715Y17409D01*
X60730Y17406D01*
X60746Y17406D01*
X60760Y17406D01*
X60776Y17407D01*
X60794Y17409D01*
X60815Y17412D01*
X60815Y17412D01*
X60909Y17733D02*
X60918Y17853D01*
X60945Y17956D01*
X60989Y18042D01*
X61052Y18112D01*
X61114Y18157D01*
X61184Y18189D01*
X61259Y18208D01*
X61342Y18215D01*
X61432Y18207D01*
X61514Y18184D01*
X61588Y18145D01*
X61652Y18090D01*
X61705Y18022D01*
X61743Y17942D01*
X61765Y17850D01*
X61773Y17746D01*
X61770Y17662D01*
X61760Y17587D01*
X61743Y17522D01*
X61720Y17466D01*
X61690Y17418D01*
X61654Y17375D01*
X61612Y17339D01*
X61564Y17308D01*
X61512Y17283D01*
X61458Y17265D01*
X61401Y17255D01*
X61342Y17251D01*
X61331Y17252D01*
X61342Y17380D01*
X61397Y17385D01*
X61448Y17402D01*
X61494Y17429D01*
X61535Y17468D01*
X61569Y17518D01*
X61593Y17580D01*
X61608Y17653D01*
X61612Y17738D01*
X61608Y17819D01*
X61593Y17889D01*
X61569Y17948D01*
X61535Y17997D01*
X61493Y18036D01*
X61448Y18063D01*
X61397Y18080D01*
X61342Y18085D01*
X61285Y18080D01*
X61234Y18064D01*
X61188Y18036D01*
X61147Y17998D01*
X61113Y17948D01*
X61089Y17888D01*
X61075Y17816D01*
X61070Y17733D01*
X61070Y17733D01*
X61075Y17650D01*
X61089Y17578D01*
X61113Y17517D01*
X61147Y17468D01*
X61188Y17429D01*
X61234Y17402D01*
X61285Y17385D01*
X61342Y17380D01*
X61331Y17252D01*
X61249Y17259D01*
X61166Y17282D01*
X61093Y17321D01*
X61029Y17375D01*
X60976Y17444D01*
X60939Y17527D01*
X60917Y17623D01*
X60909Y17733D01*
X60909Y17733D01*
X62474Y17272D02*
X62474Y18545D01*
X63394Y18545D01*
X63394Y18395D01*
X62642Y18395D01*
X62642Y18005D01*
X63346Y18005D01*
X63346Y17855D01*
X62642Y17855D01*
X62642Y17422D01*
X63423Y17422D01*
X63423Y17272D01*
X62474Y17272D01*
X62474Y17272D01*
X64240Y17272D02*
X64240Y17407D01*
X64182Y17339D01*
X64113Y17290D01*
X64035Y17261D01*
X63948Y17251D01*
X63908Y17253D01*
X63869Y17259D01*
X63831Y17269D01*
X63795Y17282D01*
X63762Y17299D01*
X63734Y17318D01*
X63710Y17338D01*
X63690Y17361D01*
X63675Y17386D01*
X63661Y17414D01*
X63650Y17444D01*
X63642Y17477D01*
X63638Y17503D01*
X63635Y17536D01*
X63633Y17576D01*
X63633Y17623D01*
X63633Y18194D01*
X63789Y18194D01*
X63789Y17683D01*
X63790Y17626D01*
X63791Y17580D01*
X63794Y17544D01*
X63798Y17518D01*
X63808Y17489D01*
X63821Y17463D01*
X63839Y17440D01*
X63861Y17421D01*
X63886Y17406D01*
X63914Y17395D01*
X63945Y17388D01*
X63979Y17386D01*
X64014Y17388D01*
X64047Y17395D01*
X64080Y17406D01*
X64111Y17422D01*
X64140Y17441D01*
X64164Y17464D01*
X64183Y17490D01*
X64198Y17520D01*
X64209Y17554D01*
X64217Y17596D01*
X64222Y17644D01*
X64224Y17700D01*
X64224Y18194D01*
X64380Y18194D01*
X64380Y17272D01*
X64240Y17272D01*
X64240Y17272D01*
X64623Y17272D02*
X64623Y18194D01*
X64764Y18194D01*
X64764Y18054D01*
X64790Y18099D01*
X64816Y18136D01*
X64840Y18164D01*
X64863Y18184D01*
X64887Y18197D01*
X64911Y18207D01*
X64937Y18213D01*
X64964Y18215D01*
X65003Y18212D01*
X65043Y18202D01*
X65084Y18187D01*
X65124Y18164D01*
X65070Y18019D01*
X65042Y18034D01*
X65013Y18045D01*
X64984Y18051D01*
X64956Y18053D01*
X64931Y18051D01*
X64907Y18046D01*
X64885Y18036D01*
X64864Y18023D01*
X64845Y18006D01*
X64829Y17986D01*
X64816Y17963D01*
X64806Y17937D01*
X64794Y17894D01*
X64786Y17850D01*
X64781Y17803D01*
X64780Y17755D01*
X64780Y17272D01*
X64623Y17272D01*
X64623Y17272D01*
X65159Y17733D02*
X65168Y17853D01*
X65194Y17956D01*
X65239Y18042D01*
X65301Y18112D01*
X65364Y18157D01*
X65433Y18189D01*
X65509Y18208D01*
X65591Y18215D01*
X65682Y18207D01*
X65764Y18184D01*
X65837Y18145D01*
X65902Y18090D01*
X65955Y18022D01*
X65993Y17942D01*
X66015Y17850D01*
X66023Y17746D01*
X66019Y17662D01*
X66009Y17587D01*
X65993Y17522D01*
X65969Y17466D01*
X65940Y17418D01*
X65904Y17375D01*
X65862Y17339D01*
X65814Y17308D01*
X65762Y17283D01*
X65707Y17265D01*
X65650Y17255D01*
X65591Y17251D01*
X65580Y17252D01*
X65591Y17380D01*
X65647Y17385D01*
X65698Y17402D01*
X65744Y17429D01*
X65785Y17468D01*
X65819Y17518D01*
X65843Y17580D01*
X65857Y17653D01*
X65862Y17738D01*
X65857Y17819D01*
X65843Y17889D01*
X65818Y17948D01*
X65784Y17997D01*
X65743Y18036D01*
X65697Y18063D01*
X65647Y18080D01*
X65591Y18085D01*
X65535Y18080D01*
X65484Y18064D01*
X65438Y18036D01*
X65397Y17998D01*
X65363Y17948D01*
X65339Y17888D01*
X65324Y17816D01*
X65319Y17733D01*
X65319Y17733D01*
X65324Y17650D01*
X65339Y17578D01*
X65363Y17517D01*
X65397Y17468D01*
X65438Y17429D01*
X65484Y17402D01*
X65535Y17385D01*
X65591Y17380D01*
X65580Y17252D01*
X65499Y17259D01*
X65416Y17282D01*
X65343Y17321D01*
X65278Y17375D01*
X65226Y17444D01*
X65189Y17527D01*
X65166Y17623D01*
X65159Y17733D01*
X65159Y17733D01*
X66204Y17272D02*
X66204Y18194D01*
X66345Y18194D01*
X66345Y18054D01*
X66371Y18099D01*
X66397Y18136D01*
X66421Y18164D01*
X66444Y18184D01*
X66468Y18197D01*
X66492Y18207D01*
X66518Y18213D01*
X66544Y18215D01*
X66584Y18212D01*
X66624Y18202D01*
X66664Y18187D01*
X66705Y18164D01*
X66651Y18019D01*
X66623Y18034D01*
X66594Y18045D01*
X66565Y18051D01*
X66537Y18053D01*
X66512Y18051D01*
X66488Y18046D01*
X66466Y18036D01*
X66445Y18023D01*
X66426Y18006D01*
X66410Y17986D01*
X66397Y17963D01*
X66386Y17937D01*
X66375Y17894D01*
X66367Y17850D01*
X66362Y17803D01*
X66360Y17755D01*
X66360Y17272D01*
X66204Y17272D01*
X66204Y17272D01*
X67400Y17386D02*
X67357Y17352D01*
X67350Y17347D01*
X67291Y17435D01*
X67319Y17460D01*
X67343Y17489D01*
X67361Y17521D01*
X67372Y17551D01*
X67380Y17587D01*
X67385Y17629D01*
X67387Y17677D01*
X67387Y17735D01*
X67387Y17735D01*
X67339Y17718D01*
X67280Y17703D01*
X67211Y17689D01*
X67131Y17676D01*
X67087Y17669D01*
X67049Y17661D01*
X67019Y17653D01*
X66995Y17644D01*
X66976Y17635D01*
X66960Y17623D01*
X66945Y17609D01*
X66933Y17594D01*
X66924Y17576D01*
X66917Y17558D01*
X66913Y17539D01*
X66912Y17519D01*
X66915Y17489D01*
X66923Y17462D01*
X66938Y17437D01*
X66959Y17415D01*
X66985Y17397D01*
X67017Y17384D01*
X67055Y17376D01*
X67097Y17374D01*
X67141Y17376D01*
X67183Y17383D01*
X67222Y17396D01*
X67258Y17413D01*
X67291Y17435D01*
X67350Y17347D01*
X67314Y17323D01*
X67273Y17299D01*
X67232Y17282D01*
X67192Y17268D01*
X67149Y17259D01*
X67105Y17253D01*
X67060Y17251D01*
X66989Y17256D01*
X66926Y17270D01*
X66872Y17293D01*
X66827Y17325D01*
X66791Y17365D01*
X66765Y17410D01*
X66750Y17460D01*
X66745Y17515D01*
X66747Y17548D01*
X66753Y17580D01*
X66762Y17610D01*
X66776Y17639D01*
X66792Y17665D01*
X66811Y17689D01*
X66833Y17710D01*
X66857Y17729D01*
X66882Y17745D01*
X66910Y17758D01*
X66939Y17770D01*
X66969Y17780D01*
X66995Y17786D01*
X67027Y17792D01*
X67064Y17798D01*
X67108Y17803D01*
X67196Y17815D01*
X67272Y17828D01*
X67336Y17842D01*
X67387Y17857D01*
X67387Y17872D01*
X67387Y17883D01*
X67387Y17892D01*
X67387Y17898D01*
X67385Y17942D01*
X67376Y17979D01*
X67363Y18009D01*
X67343Y18033D01*
X67310Y18056D01*
X67269Y18072D01*
X67221Y18082D01*
X67165Y18085D01*
X67114Y18083D01*
X67069Y18076D01*
X67032Y18064D01*
X67002Y18047D01*
X66978Y18024D01*
X66957Y17993D01*
X66939Y17955D01*
X66925Y17910D01*
X66772Y17931D01*
X66784Y17978D01*
X66799Y18020D01*
X66818Y18057D01*
X66840Y18089D01*
X66867Y18118D01*
X66899Y18143D01*
X66936Y18164D01*
X66979Y18182D01*
X67025Y18197D01*
X67076Y18207D01*
X67130Y18213D01*
X67188Y18215D01*
X67244Y18213D01*
X67295Y18208D01*
X67340Y18199D01*
X67380Y18187D01*
X67414Y18172D01*
X67444Y18156D01*
X67468Y18137D01*
X67488Y18117D01*
X67504Y18095D01*
X67518Y18070D01*
X67528Y18042D01*
X67537Y18011D01*
X67540Y17987D01*
X67543Y17955D01*
X67544Y17915D01*
X67545Y17867D01*
X67545Y17658D01*
X67545Y17559D01*
X67547Y17480D01*
X67550Y17422D01*
X67555Y17383D01*
X67561Y17354D01*
X67569Y17326D01*
X67581Y17299D01*
X67594Y17272D01*
X67431Y17272D01*
X67420Y17297D01*
X67411Y17325D01*
X67404Y17354D01*
X67400Y17386D01*
X67400Y17386D01*
X68388Y17610D02*
X68542Y17590D01*
X68525Y17515D01*
X68497Y17448D01*
X68460Y17390D01*
X68413Y17341D01*
X68358Y17302D01*
X68298Y17274D01*
X68231Y17257D01*
X68158Y17251D01*
X68068Y17259D01*
X67988Y17282D01*
X67916Y17321D01*
X67854Y17375D01*
X67804Y17443D01*
X67768Y17525D01*
X67746Y17621D01*
X67739Y17730D01*
X67742Y17802D01*
X67751Y17870D01*
X67767Y17933D01*
X67789Y17991D01*
X67817Y18043D01*
X67851Y18089D01*
X67892Y18127D01*
X67939Y18159D01*
X67991Y18183D01*
X68045Y18201D01*
X68101Y18211D01*
X68159Y18215D01*
X68231Y18210D01*
X68296Y18196D01*
X68354Y18172D01*
X68405Y18139D01*
X68448Y18097D01*
X68483Y18047D01*
X68510Y17989D01*
X68527Y17923D01*
X68375Y17900D01*
X68362Y17943D01*
X68345Y17981D01*
X68324Y18013D01*
X68299Y18039D01*
X68270Y18060D01*
X68238Y18075D01*
X68203Y18083D01*
X68165Y18086D01*
X68109Y18081D01*
X68058Y18065D01*
X68013Y18039D01*
X67973Y18002D01*
X67941Y17953D01*
X67918Y17892D01*
X67904Y17819D01*
X67900Y17734D01*
X67904Y17647D01*
X67917Y17573D01*
X67940Y17512D01*
X67971Y17464D01*
X68009Y17427D01*
X68053Y17401D01*
X68102Y17385D01*
X68157Y17380D01*
X68201Y17383D01*
X68241Y17394D01*
X68278Y17411D01*
X68310Y17436D01*
X68338Y17468D01*
X68361Y17508D01*
X68377Y17555D01*
X68388Y17610D01*
X68388Y17610D01*
X68677Y17272D02*
X68677Y18545D01*
X68833Y18545D01*
X68833Y17819D01*
X69203Y18194D01*
X69405Y18194D01*
X69053Y17852D01*
X69441Y17272D01*
X69248Y17272D01*
X68943Y17743D01*
X68833Y17637D01*
X68833Y17272D01*
X68677Y17272D01*
X68677Y17272D01*
X68976Y27531D02*
X68976Y27924D01*
X68586Y27924D01*
X68586Y28088D01*
X68976Y28088D01*
X68976Y28478D01*
X69142Y28478D01*
X69142Y28088D01*
X69532Y28088D01*
X69532Y27924D01*
X69142Y27924D01*
X69142Y27531D01*
X68976Y27531D01*
X68976Y27531D01*
X70388Y27300D02*
X70212Y27300D01*
X70212Y28420D01*
X70178Y28390D01*
X70139Y28360D01*
X70095Y28329D01*
X70046Y28299D01*
X69996Y28271D01*
X69948Y28246D01*
X69903Y28225D01*
X69861Y28208D01*
X69861Y28378D01*
X69932Y28415D01*
X69999Y28455D01*
X70061Y28499D01*
X70119Y28546D01*
X70170Y28595D01*
X70213Y28643D01*
X70248Y28691D01*
X70275Y28738D01*
X70388Y28738D01*
X70388Y27300D01*
X70388Y27300D01*
X71762Y27469D02*
X71762Y27300D01*
X70816Y27300D01*
X70816Y27331D01*
X70820Y27362D01*
X70827Y27392D01*
X70836Y27422D01*
X70857Y27470D01*
X70883Y27518D01*
X70915Y27565D01*
X70952Y27613D01*
X70996Y27661D01*
X71049Y27714D01*
X71111Y27770D01*
X71182Y27829D01*
X71289Y27920D01*
X71378Y28001D01*
X71447Y28072D01*
X71498Y28133D01*
X71533Y28188D01*
X71559Y28241D01*
X71574Y28293D01*
X71580Y28344D01*
X71575Y28394D01*
X71561Y28440D01*
X71538Y28482D01*
X71505Y28520D01*
X71465Y28552D01*
X71419Y28574D01*
X71367Y28588D01*
X71310Y28592D01*
X71250Y28587D01*
X71196Y28573D01*
X71148Y28549D01*
X71107Y28516D01*
X71073Y28474D01*
X71050Y28425D01*
X71035Y28369D01*
X71030Y28305D01*
X70849Y28323D01*
X70865Y28419D01*
X70893Y28502D01*
X70935Y28573D01*
X70989Y28632D01*
X71054Y28678D01*
X71131Y28711D01*
X71217Y28731D01*
X71314Y28738D01*
X71412Y28730D01*
X71498Y28709D01*
X71575Y28673D01*
X71640Y28623D01*
X71693Y28563D01*
X71730Y28495D01*
X71753Y28421D01*
X71760Y28340D01*
X71758Y28297D01*
X71751Y28255D01*
X71740Y28213D01*
X71725Y28171D01*
X71705Y28129D01*
X71678Y28086D01*
X71646Y28042D01*
X71608Y27996D01*
X71561Y27946D01*
X71500Y27887D01*
X71425Y27820D01*
X71337Y27744D01*
X71265Y27683D01*
X71207Y27633D01*
X71164Y27593D01*
X71134Y27564D01*
X71113Y27540D01*
X71093Y27517D01*
X71076Y27493D01*
X71060Y27469D01*
X71762Y27469D01*
X71762Y27469D01*
X72431Y27300D02*
X71876Y28732D01*
X72082Y28732D01*
X72454Y27692D01*
X72475Y27630D01*
X72495Y27571D01*
X72513Y27513D01*
X72529Y27457D01*
X72546Y27516D01*
X72565Y27574D01*
X72585Y27633D01*
X72606Y27692D01*
X72993Y28732D01*
X73186Y28732D01*
X72625Y27300D01*
X72431Y27300D01*
X72431Y27300D01*
X68638Y33255D02*
X68638Y33431D01*
X69179Y33431D01*
X69179Y33255D01*
X68638Y33255D01*
X68638Y33255D01*
X69986Y32825D02*
X69810Y32825D01*
X69810Y33945D01*
X69776Y33915D01*
X69737Y33885D01*
X69693Y33854D01*
X69644Y33824D01*
X69594Y33796D01*
X69546Y33771D01*
X69501Y33750D01*
X69459Y33733D01*
X69459Y33903D01*
X69530Y33940D01*
X69597Y33980D01*
X69659Y34024D01*
X69717Y34071D01*
X69768Y34120D01*
X69811Y34168D01*
X69846Y34216D01*
X69873Y34263D01*
X69986Y34263D01*
X69986Y32825D01*
X69986Y32825D01*
X71360Y32994D02*
X71360Y32825D01*
X70414Y32825D01*
X70414Y32856D01*
X70418Y32887D01*
X70425Y32917D01*
X70434Y32947D01*
X70455Y32995D01*
X70481Y33043D01*
X70513Y33090D01*
X70550Y33138D01*
X70594Y33186D01*
X70647Y33239D01*
X70709Y33295D01*
X70780Y33354D01*
X70887Y33445D01*
X70976Y33526D01*
X71045Y33597D01*
X71095Y33658D01*
X71131Y33713D01*
X71157Y33766D01*
X71172Y33818D01*
X71178Y33869D01*
X71173Y33919D01*
X71159Y33965D01*
X71135Y34007D01*
X71103Y34045D01*
X71063Y34077D01*
X71017Y34099D01*
X70965Y34113D01*
X70908Y34117D01*
X70848Y34112D01*
X70794Y34098D01*
X70746Y34074D01*
X70705Y34041D01*
X70671Y33999D01*
X70647Y33950D01*
X70633Y33894D01*
X70628Y33830D01*
X70447Y33848D01*
X70463Y33944D01*
X70491Y34027D01*
X70533Y34098D01*
X70587Y34157D01*
X70652Y34203D01*
X70729Y34236D01*
X70815Y34256D01*
X70912Y34263D01*
X71010Y34255D01*
X71096Y34234D01*
X71173Y34198D01*
X71238Y34148D01*
X71291Y34088D01*
X71328Y34020D01*
X71351Y33946D01*
X71358Y33865D01*
X71356Y33822D01*
X71349Y33780D01*
X71338Y33738D01*
X71323Y33696D01*
X71303Y33654D01*
X71276Y33611D01*
X71244Y33567D01*
X71206Y33521D01*
X71159Y33471D01*
X71098Y33412D01*
X71023Y33345D01*
X70935Y33269D01*
X70863Y33208D01*
X70805Y33158D01*
X70762Y33118D01*
X70732Y33089D01*
X70711Y33065D01*
X70691Y33042D01*
X70674Y33018D01*
X70658Y32994D01*
X71360Y32994D01*
X71360Y32994D01*
X72029Y32825D02*
X71474Y34257D01*
X71679Y34257D01*
X72052Y33217D01*
X72073Y33155D01*
X72093Y33096D01*
X72111Y33038D01*
X72127Y32982D01*
X72144Y33041D01*
X72163Y33099D01*
X72183Y33158D01*
X72204Y33217D01*
X72591Y34257D01*
X72784Y34257D01*
X72223Y32825D01*
X72029Y32825D01*
X72029Y32825D01*
X54355Y14887D02*
X54355Y16162D01*
X54497Y16162D01*
X54497Y16042D01*
X54574Y15968D01*
X54573Y15967D01*
X54540Y15915D01*
X54516Y15853D01*
X54501Y15779D01*
X54496Y15696D01*
X54496Y15696D01*
X54501Y15613D01*
X54514Y15541D01*
X54537Y15481D01*
X54569Y15433D01*
X54606Y15396D01*
X54648Y15369D01*
X54694Y15353D01*
X54743Y15348D01*
X54793Y15353D01*
X54840Y15370D01*
X54882Y15397D01*
X54921Y15436D01*
X54954Y15486D01*
X54977Y15548D01*
X54991Y15622D01*
X54996Y15709D01*
X54991Y15791D01*
X54978Y15863D01*
X54955Y15923D01*
X54923Y15973D01*
X54885Y16011D01*
X54844Y16038D01*
X54799Y16055D01*
X54750Y16060D01*
X54701Y16055D01*
X54656Y16037D01*
X54613Y16008D01*
X54574Y15968D01*
X54497Y16042D01*
X54523Y16075D01*
X54551Y16104D01*
X54580Y16128D01*
X54611Y16148D01*
X54644Y16163D01*
X54681Y16174D01*
X54721Y16181D01*
X54765Y16183D01*
X54822Y16179D01*
X54876Y16168D01*
X54926Y16149D01*
X54973Y16122D01*
X55015Y16089D01*
X55052Y16049D01*
X55084Y16003D01*
X55109Y15951D01*
X55130Y15894D01*
X55144Y15835D01*
X55153Y15773D01*
X55155Y15708D01*
X55152Y15639D01*
X55143Y15573D01*
X55127Y15512D01*
X55105Y15453D01*
X55076Y15400D01*
X55042Y15353D01*
X55003Y15313D01*
X54957Y15280D01*
X54908Y15253D01*
X54858Y15234D01*
X54806Y15223D01*
X54753Y15219D01*
X54715Y15221D01*
X54679Y15227D01*
X54645Y15238D01*
X54613Y15252D01*
X54584Y15270D01*
X54557Y15289D01*
X54533Y15311D01*
X54511Y15335D01*
X54511Y14887D01*
X54355Y14887D01*
X54355Y14887D01*
X55286Y15701D02*
X55295Y15821D01*
X55321Y15924D01*
X55366Y16010D01*
X55428Y16080D01*
X55491Y16125D01*
X55560Y16157D01*
X55636Y16176D01*
X55718Y16183D01*
X55809Y16175D01*
X55891Y16152D01*
X55964Y16113D01*
X56029Y16058D01*
X56082Y15990D01*
X56119Y15910D01*
X56142Y15818D01*
X56149Y15714D01*
X56146Y15630D01*
X56136Y15555D01*
X56119Y15490D01*
X56096Y15434D01*
X56066Y15386D01*
X56031Y15343D01*
X55989Y15307D01*
X55941Y15276D01*
X55888Y15251D01*
X55834Y15233D01*
X55777Y15223D01*
X55718Y15219D01*
X55707Y15220D01*
X55718Y15348D01*
X55774Y15353D01*
X55825Y15370D01*
X55871Y15397D01*
X55912Y15436D01*
X55945Y15486D01*
X55970Y15548D01*
X55984Y15621D01*
X55989Y15706D01*
X55984Y15787D01*
X55969Y15857D01*
X55945Y15916D01*
X55911Y15965D01*
X55870Y16004D01*
X55824Y16031D01*
X55773Y16048D01*
X55718Y16053D01*
X55662Y16048D01*
X55611Y16032D01*
X55565Y16004D01*
X55524Y15966D01*
X55490Y15916D01*
X55466Y15856D01*
X55451Y15784D01*
X55446Y15701D01*
X55446Y15701D01*
X55451Y15618D01*
X55466Y15546D01*
X55490Y15485D01*
X55524Y15436D01*
X55565Y15397D01*
X55611Y15370D01*
X55662Y15353D01*
X55718Y15348D01*
X55707Y15220D01*
X55626Y15227D01*
X55543Y15250D01*
X55469Y15289D01*
X55405Y15343D01*
X55353Y15412D01*
X55315Y15495D01*
X55293Y15591D01*
X55286Y15701D01*
X55286Y15701D01*
X56503Y15240D02*
X56221Y16162D01*
X56382Y16162D01*
X56529Y15630D01*
X56584Y15432D01*
X56588Y15449D01*
X56597Y15487D01*
X56612Y15544D01*
X56631Y15622D01*
X56778Y16162D01*
X56939Y16162D01*
X57077Y15627D01*
X57123Y15451D01*
X57176Y15629D01*
X57334Y16162D01*
X57486Y16162D01*
X57197Y15240D01*
X57035Y15240D01*
X56888Y15792D01*
X56853Y15949D01*
X56666Y15240D01*
X56503Y15240D01*
X56503Y15240D01*
X58248Y15537D02*
X58409Y15517D01*
X58386Y15450D01*
X58355Y15391D01*
X58315Y15340D01*
X58268Y15297D01*
X58213Y15263D01*
X58150Y15239D01*
X58081Y15224D01*
X58004Y15219D01*
X57908Y15227D01*
X57823Y15250D01*
X57748Y15289D01*
X57683Y15344D01*
X57631Y15412D01*
X57594Y15493D01*
X57572Y15587D01*
X57565Y15693D01*
X57572Y15803D01*
X57595Y15900D01*
X57632Y15984D01*
X57684Y16054D01*
X57749Y16111D01*
X57822Y16151D01*
X57904Y16175D01*
X57995Y16183D01*
X58008Y16182D01*
X57997Y16054D01*
X57945Y16050D01*
X57898Y16036D01*
X57855Y16014D01*
X57816Y15982D01*
X57783Y15943D01*
X57759Y15898D01*
X57743Y15847D01*
X57735Y15790D01*
X57735Y15790D01*
X58250Y15790D01*
X58242Y15844D01*
X58230Y15891D01*
X58212Y15931D01*
X58191Y15964D01*
X58150Y16004D01*
X58105Y16032D01*
X58054Y16049D01*
X57997Y16054D01*
X58008Y16182D01*
X58083Y16175D01*
X58163Y16151D01*
X58234Y16112D01*
X58297Y16057D01*
X58349Y15988D01*
X58385Y15905D01*
X58407Y15810D01*
X58415Y15703D01*
X58414Y15695D01*
X58414Y15685D01*
X58414Y15674D01*
X58414Y15661D01*
X57726Y15661D01*
X57735Y15590D01*
X57752Y15527D01*
X57778Y15473D01*
X57812Y15428D01*
X57853Y15393D01*
X57899Y15368D01*
X57949Y15353D01*
X58005Y15348D01*
X58046Y15350D01*
X58084Y15359D01*
X58120Y15373D01*
X58151Y15393D01*
X58180Y15419D01*
X58206Y15451D01*
X58228Y15491D01*
X58248Y15537D01*
X58248Y15537D01*
X58604Y15240D02*
X58604Y16162D01*
X58744Y16162D01*
X58744Y16022D01*
X58771Y16067D01*
X58796Y16104D01*
X58821Y16132D01*
X58844Y16152D01*
X58867Y16165D01*
X58892Y16175D01*
X58917Y16181D01*
X58944Y16183D01*
X58984Y16180D01*
X59024Y16170D01*
X59064Y16155D01*
X59105Y16132D01*
X59051Y15987D01*
X59022Y16002D01*
X58994Y16013D01*
X58965Y16019D01*
X58936Y16021D01*
X58911Y16019D01*
X58888Y16014D01*
X58865Y16004D01*
X58844Y15991D01*
X58825Y15974D01*
X58809Y15954D01*
X58796Y15931D01*
X58786Y15905D01*
X58775Y15862D01*
X58767Y15818D01*
X58762Y15771D01*
X58760Y15723D01*
X58760Y15240D01*
X58604Y15240D01*
X58604Y15240D01*
X59629Y15515D02*
X59784Y15540D01*
X59793Y15496D01*
X59808Y15457D01*
X59829Y15425D01*
X59856Y15397D01*
X59889Y15375D01*
X59927Y15360D01*
X59972Y15351D01*
X60022Y15348D01*
X60073Y15350D01*
X60116Y15359D01*
X60153Y15372D01*
X60182Y15391D01*
X60205Y15414D01*
X60221Y15439D01*
X60231Y15466D01*
X60234Y15494D01*
X60231Y15519D01*
X60223Y15542D01*
X60208Y15561D01*
X60188Y15578D01*
X60166Y15589D01*
X60132Y15601D01*
X60086Y15615D01*
X60028Y15631D01*
X59949Y15652D01*
X59883Y15671D01*
X59830Y15689D01*
X59790Y15706D01*
X59759Y15723D01*
X59732Y15744D01*
X59709Y15767D01*
X59689Y15793D01*
X59674Y15822D01*
X59664Y15852D01*
X59657Y15884D01*
X59655Y15917D01*
X59657Y15947D01*
X59662Y15977D01*
X59671Y16004D01*
X59683Y16031D01*
X59699Y16056D01*
X59717Y16079D01*
X59737Y16100D01*
X59760Y16119D01*
X59780Y16132D01*
X59803Y16143D01*
X59830Y16154D01*
X59860Y16164D01*
X59892Y16172D01*
X59925Y16178D01*
X59959Y16182D01*
X59995Y16183D01*
X60047Y16181D01*
X60096Y16175D01*
X60142Y16165D01*
X60185Y16152D01*
X60223Y16135D01*
X60256Y16115D01*
X60284Y16092D01*
X60306Y16067D01*
X60324Y16038D01*
X60339Y16005D01*
X60351Y15967D01*
X60360Y15924D01*
X60207Y15903D01*
X60200Y15937D01*
X60187Y15967D01*
X60169Y15992D01*
X60147Y16014D01*
X60119Y16032D01*
X60087Y16044D01*
X60049Y16052D01*
X60006Y16054D01*
X59956Y16052D01*
X59914Y16045D01*
X59879Y16034D01*
X59852Y16019D01*
X59832Y16000D01*
X59818Y15980D01*
X59809Y15959D01*
X59806Y15935D01*
X59807Y15921D01*
X59811Y15907D01*
X59817Y15893D01*
X59825Y15881D01*
X59836Y15869D01*
X59850Y15858D01*
X59866Y15848D01*
X59885Y15839D01*
X59903Y15833D01*
X59931Y15825D01*
X59972Y15813D01*
X60023Y15799D01*
X60100Y15778D01*
X60164Y15759D01*
X60216Y15742D01*
X60255Y15727D01*
X60286Y15711D01*
X60313Y15692D01*
X60337Y15670D01*
X60357Y15645D01*
X60374Y15616D01*
X60385Y15584D01*
X60392Y15549D01*
X60395Y15511D01*
X60392Y15472D01*
X60383Y15435D01*
X60369Y15399D01*
X60349Y15364D01*
X60324Y15331D01*
X60294Y15303D01*
X60258Y15278D01*
X60218Y15257D01*
X60173Y15240D01*
X60126Y15229D01*
X60076Y15222D01*
X60023Y15219D01*
X59939Y15224D01*
X59865Y15238D01*
X59802Y15261D01*
X59749Y15294D01*
X59706Y15336D01*
X59672Y15387D01*
X59646Y15446D01*
X59629Y15515D01*
X59629Y15515D01*
X61185Y15240D02*
X61185Y15375D01*
X61126Y15307D01*
X61058Y15258D01*
X60980Y15229D01*
X60892Y15219D01*
X60852Y15221D01*
X60813Y15227D01*
X60776Y15237D01*
X60740Y15250D01*
X60707Y15267D01*
X60678Y15286D01*
X60654Y15306D01*
X60635Y15329D01*
X60619Y15354D01*
X60606Y15382D01*
X60595Y15412D01*
X60587Y15445D01*
X60583Y15471D01*
X60580Y15504D01*
X60578Y15544D01*
X60577Y15591D01*
X60577Y16162D01*
X60733Y16162D01*
X60733Y15651D01*
X60734Y15594D01*
X60736Y15548D01*
X60739Y15512D01*
X60743Y15486D01*
X60752Y15457D01*
X60766Y15431D01*
X60784Y15408D01*
X60805Y15389D01*
X60831Y15374D01*
X60859Y15363D01*
X60890Y15356D01*
X60924Y15354D01*
X60958Y15356D01*
X60992Y15363D01*
X61024Y15374D01*
X61056Y15390D01*
X61084Y15409D01*
X61108Y15432D01*
X61128Y15458D01*
X61143Y15488D01*
X61154Y15522D01*
X61162Y15564D01*
X61167Y15612D01*
X61168Y15668D01*
X61168Y16162D01*
X61325Y16162D01*
X61325Y15240D01*
X61185Y15240D01*
X61185Y15240D01*
X61569Y14887D02*
X61569Y16162D01*
X61712Y16162D01*
X61712Y16042D01*
X61788Y15968D01*
X61788Y15967D01*
X61754Y15915D01*
X61730Y15853D01*
X61716Y15779D01*
X61711Y15696D01*
X61711Y15696D01*
X61715Y15613D01*
X61729Y15541D01*
X61752Y15481D01*
X61783Y15433D01*
X61821Y15396D01*
X61863Y15369D01*
X61908Y15353D01*
X61958Y15348D01*
X62008Y15353D01*
X62054Y15370D01*
X62097Y15397D01*
X62136Y15436D01*
X62168Y15486D01*
X62192Y15548D01*
X62206Y15622D01*
X62210Y15709D01*
X62206Y15791D01*
X62192Y15863D01*
X62169Y15923D01*
X62138Y15973D01*
X62100Y16011D01*
X62058Y16038D01*
X62013Y16055D01*
X61964Y16060D01*
X61916Y16055D01*
X61870Y16037D01*
X61828Y16008D01*
X61788Y15968D01*
X61712Y16042D01*
X61738Y16075D01*
X61765Y16104D01*
X61795Y16128D01*
X61826Y16148D01*
X61859Y16163D01*
X61896Y16174D01*
X61936Y16181D01*
X61979Y16183D01*
X62037Y16179D01*
X62090Y16168D01*
X62141Y16149D01*
X62188Y16122D01*
X62230Y16089D01*
X62267Y16049D01*
X62298Y16003D01*
X62324Y15951D01*
X62344Y15894D01*
X62358Y15835D01*
X62367Y15773D01*
X62370Y15708D01*
X62367Y15639D01*
X62357Y15573D01*
X62341Y15512D01*
X62319Y15453D01*
X62291Y15400D01*
X62257Y15353D01*
X62217Y15313D01*
X62172Y15280D01*
X62123Y15253D01*
X62072Y15234D01*
X62021Y15223D01*
X61968Y15219D01*
X61930Y15221D01*
X61894Y15227D01*
X61860Y15238D01*
X61828Y15252D01*
X61798Y15270D01*
X61771Y15289D01*
X61747Y15311D01*
X61726Y15335D01*
X61726Y14887D01*
X61569Y14887D01*
X61569Y14887D01*
X62558Y14887D02*
X62558Y16162D01*
X62701Y16162D01*
X62701Y16042D01*
X62777Y15968D01*
X62777Y15967D01*
X62743Y15915D01*
X62719Y15853D01*
X62705Y15779D01*
X62700Y15696D01*
X62700Y15696D01*
X62704Y15613D01*
X62718Y15541D01*
X62740Y15481D01*
X62772Y15433D01*
X62810Y15396D01*
X62852Y15369D01*
X62897Y15353D01*
X62946Y15348D01*
X62997Y15353D01*
X63043Y15370D01*
X63086Y15397D01*
X63125Y15436D01*
X63157Y15486D01*
X63180Y15548D01*
X63194Y15622D01*
X63199Y15709D01*
X63194Y15791D01*
X63181Y15863D01*
X63158Y15923D01*
X63127Y15973D01*
X63089Y16011D01*
X63047Y16038D01*
X63002Y16055D01*
X62953Y16060D01*
X62905Y16055D01*
X62859Y16037D01*
X62817Y16008D01*
X62777Y15968D01*
X62701Y16042D01*
X62727Y16075D01*
X62754Y16104D01*
X62784Y16128D01*
X62814Y16148D01*
X62848Y16163D01*
X62885Y16174D01*
X62925Y16181D01*
X62968Y16183D01*
X63025Y16179D01*
X63079Y16168D01*
X63130Y16149D01*
X63176Y16122D01*
X63219Y16089D01*
X63256Y16049D01*
X63287Y16003D01*
X63313Y15951D01*
X63333Y15894D01*
X63347Y15835D01*
X63356Y15773D01*
X63359Y15708D01*
X63356Y15639D01*
X63346Y15573D01*
X63330Y15512D01*
X63308Y15453D01*
X63280Y15400D01*
X63246Y15353D01*
X63206Y15313D01*
X63160Y15280D01*
X63111Y15253D01*
X63061Y15234D01*
X63010Y15223D01*
X62957Y15219D01*
X62919Y15221D01*
X62883Y15227D01*
X62849Y15238D01*
X62817Y15252D01*
X62787Y15270D01*
X62760Y15289D01*
X62736Y15311D01*
X62715Y15335D01*
X62715Y14887D01*
X62558Y14887D01*
X62558Y14887D01*
X63544Y15240D02*
X63544Y16513D01*
X63700Y16513D01*
X63700Y15240D01*
X63544Y15240D01*
X63544Y15240D01*
X63935Y14885D02*
X63918Y15032D01*
X63943Y15026D01*
X63966Y15021D01*
X63987Y15019D01*
X64007Y15018D01*
X64032Y15019D01*
X64054Y15022D01*
X64074Y15028D01*
X64091Y15035D01*
X64106Y15045D01*
X64119Y15056D01*
X64131Y15069D01*
X64142Y15084D01*
X64150Y15100D01*
X64161Y15125D01*
X64174Y15158D01*
X64190Y15200D01*
X64192Y15207D01*
X64195Y15216D01*
X64199Y15226D01*
X64203Y15238D01*
X63854Y16162D01*
X64022Y16162D01*
X64214Y15628D01*
X64232Y15577D01*
X64249Y15524D01*
X64265Y15470D01*
X64281Y15415D01*
X64295Y15468D01*
X64310Y15521D01*
X64327Y15573D01*
X64345Y15625D01*
X64542Y16162D01*
X64698Y16162D01*
X64348Y15224D01*
X64321Y15154D01*
X64297Y15096D01*
X64277Y15050D01*
X64260Y15015D01*
X64238Y14979D01*
X64215Y14948D01*
X64191Y14922D01*
X64164Y14902D01*
X64136Y14886D01*
X64105Y14875D01*
X64072Y14868D01*
X64036Y14866D01*
X64013Y14867D01*
X63988Y14871D01*
X63962Y14877D01*
X63935Y14885D01*
X63935Y14885D01*
X65927Y15354D02*
X65884Y15320D01*
X65878Y15315D01*
X65818Y15403D01*
X65846Y15428D01*
X65870Y15457D01*
X65889Y15489D01*
X65900Y15519D01*
X65907Y15555D01*
X65912Y15597D01*
X65914Y15645D01*
X65914Y15703D01*
X65914Y15703D01*
X65866Y15686D01*
X65807Y15671D01*
X65738Y15657D01*
X65659Y15644D01*
X65614Y15637D01*
X65576Y15629D01*
X65546Y15621D01*
X65522Y15612D01*
X65503Y15603D01*
X65487Y15591D01*
X65473Y15577D01*
X65461Y15562D01*
X65451Y15544D01*
X65444Y15526D01*
X65440Y15507D01*
X65439Y15487D01*
X65442Y15457D01*
X65451Y15430D01*
X65466Y15405D01*
X65486Y15383D01*
X65513Y15365D01*
X65544Y15352D01*
X65582Y15344D01*
X65625Y15342D01*
X65669Y15344D01*
X65710Y15351D01*
X65749Y15364D01*
X65785Y15381D01*
X65818Y15403D01*
X65878Y15315D01*
X65842Y15291D01*
X65800Y15267D01*
X65760Y15250D01*
X65719Y15236D01*
X65676Y15227D01*
X65633Y15221D01*
X65587Y15219D01*
X65516Y15224D01*
X65453Y15238D01*
X65399Y15261D01*
X65354Y15293D01*
X65318Y15333D01*
X65293Y15378D01*
X65277Y15428D01*
X65272Y15483D01*
X65274Y15516D01*
X65280Y15548D01*
X65290Y15578D01*
X65303Y15607D01*
X65320Y15633D01*
X65339Y15657D01*
X65360Y15678D01*
X65384Y15697D01*
X65410Y15713D01*
X65437Y15726D01*
X65466Y15738D01*
X65496Y15748D01*
X65522Y15754D01*
X65554Y15760D01*
X65592Y15766D01*
X65635Y15771D01*
X65723Y15783D01*
X65799Y15796D01*
X65863Y15810D01*
X65914Y15825D01*
X65914Y15840D01*
X65914Y15851D01*
X65915Y15860D01*
X65915Y15866D01*
X65912Y15910D01*
X65904Y15947D01*
X65890Y15977D01*
X65870Y16001D01*
X65837Y16024D01*
X65796Y16040D01*
X65748Y16050D01*
X65692Y16053D01*
X65641Y16051D01*
X65597Y16044D01*
X65559Y16032D01*
X65530Y16015D01*
X65505Y15992D01*
X65484Y15961D01*
X65466Y15923D01*
X65452Y15878D01*
X65299Y15899D01*
X65311Y15946D01*
X65327Y15988D01*
X65346Y16025D01*
X65368Y16057D01*
X65394Y16086D01*
X65426Y16111D01*
X65463Y16132D01*
X65506Y16150D01*
X65553Y16165D01*
X65603Y16175D01*
X65657Y16181D01*
X65715Y16183D01*
X65771Y16181D01*
X65822Y16176D01*
X65867Y16167D01*
X65907Y16155D01*
X65941Y16140D01*
X65971Y16124D01*
X65996Y16105D01*
X66015Y16085D01*
X66031Y16063D01*
X66045Y16038D01*
X66056Y16010D01*
X66064Y15979D01*
X66067Y15955D01*
X66070Y15923D01*
X66071Y15883D01*
X66072Y15835D01*
X66072Y15626D01*
X66072Y15527D01*
X66074Y15448D01*
X66077Y15390D01*
X66082Y15351D01*
X66088Y15322D01*
X66097Y15294D01*
X66108Y15267D01*
X66121Y15240D01*
X65958Y15240D01*
X65947Y15265D01*
X65938Y15293D01*
X65931Y15322D01*
X65927Y15354D01*
X65927Y15354D01*
X66912Y15240D02*
X66912Y15356D01*
X66841Y15429D01*
X66843Y15431D01*
X66875Y15479D01*
X66897Y15537D01*
X66910Y15607D01*
X66915Y15687D01*
X66910Y15775D01*
X66897Y15851D01*
X66874Y15914D01*
X66842Y15965D01*
X66803Y16004D01*
X66760Y16031D01*
X66713Y16048D01*
X66662Y16053D01*
X66612Y16048D01*
X66567Y16032D01*
X66525Y16006D01*
X66488Y15968D01*
X66458Y15920D01*
X66436Y15859D01*
X66423Y15786D01*
X66418Y15700D01*
X66418Y15700D01*
X66423Y15617D01*
X66437Y15545D01*
X66460Y15485D01*
X66493Y15435D01*
X66532Y15397D01*
X66574Y15370D01*
X66620Y15353D01*
X66669Y15348D01*
X66718Y15353D01*
X66764Y15369D01*
X66805Y15395D01*
X66841Y15429D01*
X66912Y15356D01*
X66863Y15296D01*
X66804Y15253D01*
X66734Y15228D01*
X66654Y15219D01*
X66600Y15223D01*
X66549Y15234D01*
X66499Y15253D01*
X66452Y15280D01*
X66408Y15313D01*
X66370Y15353D01*
X66336Y15398D01*
X66308Y15450D01*
X66286Y15506D01*
X66270Y15567D01*
X66261Y15631D01*
X66258Y15700D01*
X66260Y15768D01*
X66269Y15832D01*
X66283Y15893D01*
X66304Y15951D01*
X66329Y16004D01*
X66361Y16050D01*
X66399Y16090D01*
X66442Y16123D01*
X66489Y16149D01*
X66539Y16168D01*
X66592Y16179D01*
X66647Y16183D01*
X66688Y16181D01*
X66726Y16174D01*
X66762Y16163D01*
X66796Y16148D01*
X66827Y16129D01*
X66855Y16107D01*
X66880Y16083D01*
X66902Y16056D01*
X66902Y16513D01*
X67057Y16513D01*
X67057Y15240D01*
X66912Y15240D01*
X66912Y15240D01*
X67905Y15354D02*
X67862Y15320D01*
X67855Y15315D01*
X67796Y15403D01*
X67824Y15428D01*
X67847Y15457D01*
X67866Y15489D01*
X67877Y15519D01*
X67885Y15555D01*
X67890Y15597D01*
X67891Y15645D01*
X67891Y15703D01*
X67891Y15703D01*
X67844Y15686D01*
X67785Y15671D01*
X67716Y15657D01*
X67636Y15644D01*
X67592Y15637D01*
X67554Y15629D01*
X67523Y15621D01*
X67500Y15612D01*
X67481Y15603D01*
X67465Y15591D01*
X67450Y15577D01*
X67438Y15562D01*
X67429Y15544D01*
X67422Y15526D01*
X67418Y15507D01*
X67417Y15487D01*
X67420Y15457D01*
X67428Y15430D01*
X67443Y15405D01*
X67464Y15383D01*
X67490Y15365D01*
X67522Y15352D01*
X67560Y15344D01*
X67602Y15342D01*
X67646Y15344D01*
X67688Y15351D01*
X67727Y15364D01*
X67763Y15381D01*
X67796Y15403D01*
X67855Y15315D01*
X67819Y15291D01*
X67778Y15267D01*
X67737Y15250D01*
X67697Y15236D01*
X67654Y15227D01*
X67610Y15221D01*
X67565Y15219D01*
X67493Y15224D01*
X67431Y15238D01*
X67377Y15261D01*
X67332Y15293D01*
X67296Y15333D01*
X67270Y15378D01*
X67255Y15428D01*
X67250Y15483D01*
X67252Y15516D01*
X67258Y15548D01*
X67267Y15578D01*
X67281Y15607D01*
X67297Y15633D01*
X67316Y15657D01*
X67338Y15678D01*
X67361Y15697D01*
X67387Y15713D01*
X67415Y15726D01*
X67443Y15738D01*
X67474Y15748D01*
X67500Y15754D01*
X67532Y15760D01*
X67569Y15766D01*
X67613Y15771D01*
X67701Y15783D01*
X67777Y15796D01*
X67841Y15810D01*
X67891Y15825D01*
X67892Y15840D01*
X67892Y15851D01*
X67892Y15860D01*
X67892Y15866D01*
X67890Y15910D01*
X67881Y15947D01*
X67867Y15977D01*
X67848Y16001D01*
X67814Y16024D01*
X67774Y16040D01*
X67726Y16050D01*
X67670Y16053D01*
X67619Y16051D01*
X67574Y16044D01*
X67537Y16032D01*
X67507Y16015D01*
X67483Y15992D01*
X67462Y15961D01*
X67444Y15923D01*
X67430Y15878D01*
X67277Y15899D01*
X67289Y15946D01*
X67304Y15988D01*
X67323Y16025D01*
X67345Y16057D01*
X67372Y16086D01*
X67404Y16111D01*
X67441Y16132D01*
X67483Y16150D01*
X67530Y16165D01*
X67581Y16175D01*
X67635Y16181D01*
X67693Y16183D01*
X67749Y16181D01*
X67800Y16176D01*
X67845Y16167D01*
X67885Y16155D01*
X67919Y16140D01*
X67949Y16124D01*
X67973Y16105D01*
X67993Y16085D01*
X68009Y16063D01*
X68023Y16038D01*
X68033Y16010D01*
X68042Y15979D01*
X68045Y15955D01*
X68048Y15923D01*
X68049Y15883D01*
X68049Y15835D01*
X68049Y15626D01*
X68050Y15527D01*
X68052Y15448D01*
X68055Y15390D01*
X68059Y15351D01*
X68066Y15322D01*
X68074Y15294D01*
X68085Y15267D01*
X68099Y15240D01*
X67936Y15240D01*
X67925Y15265D01*
X67916Y15293D01*
X67909Y15322D01*
X67905Y15354D01*
X67905Y15354D01*
X68292Y14887D02*
X68292Y16162D01*
X68434Y16162D01*
X68434Y16042D01*
X68511Y15968D01*
X68510Y15967D01*
X68476Y15915D01*
X68452Y15853D01*
X68438Y15779D01*
X68433Y15696D01*
X68433Y15696D01*
X68438Y15613D01*
X68451Y15541D01*
X68474Y15481D01*
X68505Y15433D01*
X68543Y15396D01*
X68585Y15369D01*
X68630Y15353D01*
X68680Y15348D01*
X68730Y15353D01*
X68776Y15370D01*
X68819Y15397D01*
X68858Y15436D01*
X68891Y15486D01*
X68914Y15548D01*
X68928Y15622D01*
X68932Y15709D01*
X68928Y15791D01*
X68914Y15863D01*
X68892Y15923D01*
X68860Y15973D01*
X68822Y16011D01*
X68780Y16038D01*
X68735Y16055D01*
X68687Y16060D01*
X68638Y16055D01*
X68593Y16037D01*
X68550Y16008D01*
X68511Y15968D01*
X68434Y16042D01*
X68460Y16075D01*
X68488Y16104D01*
X68517Y16128D01*
X68548Y16148D01*
X68581Y16163D01*
X68618Y16174D01*
X68658Y16181D01*
X68702Y16183D01*
X68759Y16179D01*
X68813Y16168D01*
X68863Y16149D01*
X68910Y16122D01*
X68952Y16089D01*
X68989Y16049D01*
X69020Y16003D01*
X69046Y15951D01*
X69066Y15894D01*
X69081Y15835D01*
X69089Y15773D01*
X69092Y15708D01*
X69089Y15639D01*
X69079Y15573D01*
X69064Y15512D01*
X69041Y15453D01*
X69013Y15400D01*
X68979Y15353D01*
X68939Y15313D01*
X68894Y15280D01*
X68845Y15253D01*
X68795Y15234D01*
X68743Y15223D01*
X68690Y15219D01*
X68652Y15221D01*
X68616Y15227D01*
X68582Y15238D01*
X68550Y15252D01*
X68520Y15270D01*
X68493Y15289D01*
X68469Y15311D01*
X68448Y15335D01*
X68448Y14887D01*
X68292Y14887D01*
X68292Y14887D01*
X69622Y15380D02*
X69644Y15242D01*
X69612Y15236D01*
X69582Y15231D01*
X69553Y15229D01*
X69526Y15228D01*
X69486Y15230D01*
X69451Y15235D01*
X69420Y15243D01*
X69394Y15255D01*
X69373Y15269D01*
X69354Y15286D01*
X69340Y15305D01*
X69328Y15326D01*
X69320Y15353D01*
X69314Y15394D01*
X69310Y15446D01*
X69309Y15510D01*
X69309Y16040D01*
X69195Y16040D01*
X69195Y16162D01*
X69309Y16162D01*
X69309Y16390D01*
X69465Y16484D01*
X69465Y16162D01*
X69622Y16162D01*
X69622Y16040D01*
X69465Y16040D01*
X69465Y15501D01*
X69465Y15471D01*
X69467Y15446D01*
X69469Y15428D01*
X69473Y15415D01*
X69478Y15406D01*
X69484Y15398D01*
X69491Y15391D01*
X69500Y15385D01*
X69510Y15380D01*
X69522Y15377D01*
X69537Y15374D01*
X69553Y15374D01*
X69567Y15374D01*
X69583Y15375D01*
X69602Y15377D01*
X69622Y15380D01*
X69622Y15380D01*
X69716Y15701D02*
X69725Y15821D01*
X69752Y15924D01*
X69796Y16010D01*
X69859Y16080D01*
X69921Y16125D01*
X69991Y16157D01*
X70066Y16176D01*
X70149Y16183D01*
X70239Y16175D01*
X70321Y16152D01*
X70395Y16113D01*
X70460Y16058D01*
X70512Y15990D01*
X70550Y15910D01*
X70573Y15818D01*
X70580Y15714D01*
X70577Y15630D01*
X70567Y15555D01*
X70550Y15490D01*
X70527Y15434D01*
X70497Y15386D01*
X70461Y15343D01*
X70419Y15307D01*
X70371Y15276D01*
X70319Y15251D01*
X70265Y15233D01*
X70208Y15223D01*
X70149Y15219D01*
X70138Y15220D01*
X70149Y15348D01*
X70204Y15353D01*
X70255Y15370D01*
X70301Y15397D01*
X70342Y15436D01*
X70376Y15486D01*
X70400Y15548D01*
X70415Y15621D01*
X70420Y15706D01*
X70415Y15787D01*
X70400Y15857D01*
X70376Y15916D01*
X70342Y15965D01*
X70301Y16004D01*
X70255Y16031D01*
X70204Y16048D01*
X70149Y16053D01*
X70093Y16048D01*
X70042Y16032D01*
X69995Y16004D01*
X69954Y15966D01*
X69920Y15916D01*
X69896Y15856D01*
X69882Y15784D01*
X69877Y15701D01*
X69877Y15701D01*
X69882Y15618D01*
X69896Y15546D01*
X69920Y15485D01*
X69954Y15436D01*
X69995Y15397D01*
X70042Y15370D01*
X70093Y15353D01*
X70149Y15348D01*
X70138Y15220D01*
X70057Y15227D01*
X69974Y15250D01*
X69900Y15289D01*
X69836Y15343D01*
X69784Y15412D01*
X69746Y15495D01*
X69724Y15591D01*
X69716Y15701D01*
X69716Y15701D01*
X70762Y15240D02*
X70762Y16162D01*
X70902Y16162D01*
X70902Y16022D01*
X70929Y16067D01*
X70954Y16104D01*
X70978Y16132D01*
X71002Y16152D01*
X71025Y16165D01*
X71050Y16175D01*
X71075Y16181D01*
X71102Y16183D01*
X71142Y16180D01*
X71182Y16170D01*
X71222Y16155D01*
X71263Y16132D01*
X71209Y15987D01*
X71180Y16002D01*
X71151Y16013D01*
X71123Y16019D01*
X71094Y16021D01*
X71069Y16019D01*
X71046Y16014D01*
X71023Y16004D01*
X71002Y15991D01*
X70983Y15974D01*
X70967Y15954D01*
X70954Y15931D01*
X70944Y15905D01*
X70933Y15862D01*
X70924Y15818D01*
X70920Y15771D01*
X70918Y15723D01*
X70918Y15240D01*
X70762Y15240D01*
X70762Y15240D01*
X59919Y12954D02*
X59566Y13863D01*
X59697Y13863D01*
X59933Y13203D01*
X59947Y13164D01*
X59959Y13126D01*
X59970Y13089D01*
X59981Y13054D01*
X59992Y13091D01*
X60003Y13128D01*
X60016Y13165D01*
X60030Y13203D01*
X60275Y13863D01*
X60398Y13863D01*
X60042Y12954D01*
X59919Y12954D01*
X59919Y12954D01*
X60872Y13166D02*
X60988Y13152D01*
X60971Y13104D01*
X60949Y13062D01*
X60921Y13026D01*
X60887Y12995D01*
X60847Y12971D01*
X60803Y12953D01*
X60753Y12943D01*
X60698Y12939D01*
X60630Y12945D01*
X60569Y12961D01*
X60515Y12989D01*
X60469Y13028D01*
X60432Y13077D01*
X60406Y13135D01*
X60390Y13202D01*
X60384Y13278D01*
X60390Y13356D01*
X60406Y13425D01*
X60432Y13485D01*
X60470Y13536D01*
X60516Y13576D01*
X60568Y13605D01*
X60627Y13622D01*
X60692Y13627D01*
X60701Y13627D01*
X60693Y13536D01*
X60656Y13532D01*
X60622Y13523D01*
X60592Y13507D01*
X60564Y13484D01*
X60541Y13456D01*
X60523Y13424D01*
X60512Y13387D01*
X60506Y13347D01*
X60506Y13347D01*
X60874Y13347D01*
X60868Y13385D01*
X60859Y13419D01*
X60847Y13448D01*
X60831Y13471D01*
X60803Y13499D01*
X60770Y13520D01*
X60734Y13532D01*
X60693Y13536D01*
X60701Y13627D01*
X60755Y13622D01*
X60812Y13605D01*
X60863Y13577D01*
X60908Y13538D01*
X60944Y13488D01*
X60971Y13429D01*
X60986Y13361D01*
X60991Y13285D01*
X60991Y13279D01*
X60991Y13272D01*
X60991Y13264D01*
X60991Y13255D01*
X60500Y13255D01*
X60506Y13204D01*
X60518Y13159D01*
X60537Y13121D01*
X60561Y13089D01*
X60590Y13063D01*
X60623Y13045D01*
X60659Y13034D01*
X60699Y13031D01*
X60728Y13033D01*
X60756Y13039D01*
X60781Y13049D01*
X60804Y13063D01*
X60824Y13082D01*
X60842Y13105D01*
X60859Y13133D01*
X60872Y13166D01*
X60872Y13166D01*
X61127Y12954D02*
X61127Y13613D01*
X61227Y13613D01*
X61227Y13513D01*
X61246Y13545D01*
X61264Y13571D01*
X61281Y13591D01*
X61298Y13605D01*
X61315Y13615D01*
X61332Y13622D01*
X61351Y13626D01*
X61370Y13627D01*
X61398Y13625D01*
X61427Y13618D01*
X61455Y13607D01*
X61484Y13591D01*
X61446Y13488D01*
X61426Y13499D01*
X61405Y13506D01*
X61385Y13511D01*
X61364Y13512D01*
X61346Y13511D01*
X61329Y13507D01*
X61313Y13500D01*
X61298Y13490D01*
X61285Y13478D01*
X61273Y13464D01*
X61264Y13447D01*
X61257Y13429D01*
X61249Y13399D01*
X61243Y13367D01*
X61239Y13333D01*
X61238Y13299D01*
X61238Y12954D01*
X61127Y12954D01*
X61127Y12954D01*
X61506Y13151D02*
X61617Y13168D01*
X61623Y13137D01*
X61634Y13109D01*
X61649Y13086D01*
X61668Y13066D01*
X61692Y13051D01*
X61719Y13040D01*
X61751Y13033D01*
X61787Y13031D01*
X61823Y13033D01*
X61854Y13039D01*
X61880Y13049D01*
X61901Y13062D01*
X61917Y13079D01*
X61929Y13096D01*
X61936Y13115D01*
X61938Y13136D01*
X61936Y13154D01*
X61930Y13169D01*
X61920Y13183D01*
X61905Y13195D01*
X61890Y13203D01*
X61865Y13212D01*
X61833Y13222D01*
X61791Y13233D01*
X61735Y13248D01*
X61687Y13262D01*
X61650Y13275D01*
X61621Y13287D01*
X61599Y13299D01*
X61579Y13314D01*
X61563Y13330D01*
X61549Y13349D01*
X61539Y13370D01*
X61531Y13391D01*
X61526Y13414D01*
X61525Y13438D01*
X61526Y13459D01*
X61530Y13480D01*
X61536Y13500D01*
X61545Y13519D01*
X61556Y13537D01*
X61569Y13554D01*
X61583Y13568D01*
X61600Y13582D01*
X61614Y13591D01*
X61631Y13599D01*
X61649Y13607D01*
X61671Y13614D01*
X61694Y13620D01*
X61717Y13624D01*
X61742Y13627D01*
X61767Y13627D01*
X61805Y13626D01*
X61840Y13622D01*
X61873Y13615D01*
X61903Y13605D01*
X61931Y13593D01*
X61954Y13579D01*
X61974Y13563D01*
X61990Y13545D01*
X62003Y13524D01*
X62013Y13500D01*
X62022Y13473D01*
X62028Y13443D01*
X61919Y13428D01*
X61914Y13452D01*
X61905Y13473D01*
X61892Y13491D01*
X61876Y13507D01*
X61856Y13520D01*
X61833Y13529D01*
X61806Y13534D01*
X61775Y13536D01*
X61740Y13534D01*
X61709Y13529D01*
X61685Y13521D01*
X61666Y13510D01*
X61651Y13497D01*
X61641Y13483D01*
X61635Y13467D01*
X61633Y13451D01*
X61633Y13440D01*
X61636Y13430D01*
X61640Y13421D01*
X61646Y13412D01*
X61654Y13403D01*
X61664Y13395D01*
X61675Y13388D01*
X61689Y13382D01*
X61702Y13378D01*
X61722Y13372D01*
X61751Y13364D01*
X61788Y13353D01*
X61842Y13338D01*
X61888Y13325D01*
X61925Y13312D01*
X61953Y13302D01*
X61975Y13290D01*
X61995Y13277D01*
X62012Y13261D01*
X62026Y13243D01*
X62038Y13223D01*
X62046Y13200D01*
X62051Y13175D01*
X62053Y13147D01*
X62051Y13120D01*
X62045Y13093D01*
X62035Y13067D01*
X62021Y13042D01*
X62002Y13019D01*
X61981Y12999D01*
X61955Y12981D01*
X61927Y12966D01*
X61895Y12954D01*
X61861Y12946D01*
X61825Y12941D01*
X61788Y12939D01*
X61727Y12942D01*
X61675Y12952D01*
X61629Y12969D01*
X61592Y12992D01*
X61561Y13022D01*
X61537Y13059D01*
X61518Y13101D01*
X61506Y13151D01*
X61506Y13151D01*
X62186Y12954D02*
X62186Y13613D01*
X62298Y13613D01*
X62298Y12954D01*
X62186Y12954D01*
X62186Y12954D01*
X62186Y13735D02*
X62186Y13863D01*
X62298Y13863D01*
X62298Y13735D01*
X62186Y13735D01*
X62186Y13735D01*
X62426Y13283D02*
X62433Y13369D01*
X62452Y13442D01*
X62484Y13504D01*
X62528Y13554D01*
X62573Y13586D01*
X62622Y13609D01*
X62676Y13623D01*
X62735Y13627D01*
X62800Y13622D01*
X62859Y13605D01*
X62911Y13577D01*
X62957Y13538D01*
X62995Y13490D01*
X63022Y13432D01*
X63038Y13367D01*
X63043Y13293D01*
X63041Y13232D01*
X63034Y13179D01*
X63022Y13132D01*
X63005Y13093D01*
X62984Y13058D01*
X62958Y13028D01*
X62929Y13002D01*
X62894Y12979D01*
X62857Y12962D01*
X62818Y12949D01*
X62777Y12942D01*
X62735Y12939D01*
X62728Y12940D01*
X62735Y13031D01*
X62775Y13035D01*
X62811Y13047D01*
X62844Y13066D01*
X62874Y13094D01*
X62898Y13130D01*
X62915Y13174D01*
X62925Y13226D01*
X62929Y13287D01*
X62925Y13344D01*
X62915Y13394D01*
X62897Y13437D01*
X62873Y13472D01*
X62844Y13500D01*
X62811Y13519D01*
X62775Y13531D01*
X62735Y13535D01*
X62695Y13531D01*
X62659Y13519D01*
X62626Y13500D01*
X62596Y13472D01*
X62572Y13437D01*
X62555Y13394D01*
X62545Y13343D01*
X62541Y13283D01*
X62541Y13283D01*
X62545Y13224D01*
X62555Y13173D01*
X62572Y13129D01*
X62596Y13094D01*
X62626Y13066D01*
X62659Y13047D01*
X62695Y13035D01*
X62735Y13031D01*
X62728Y12940D01*
X62669Y12945D01*
X62610Y12961D01*
X62558Y12989D01*
X62512Y13028D01*
X62474Y13077D01*
X62448Y13136D01*
X62432Y13205D01*
X62426Y13283D01*
X62426Y13283D01*
X63174Y12954D02*
X63174Y13613D01*
X63275Y13613D01*
X63275Y13519D01*
X63315Y13566D01*
X63363Y13600D01*
X63420Y13621D01*
X63484Y13627D01*
X63513Y13626D01*
X63541Y13622D01*
X63568Y13615D01*
X63594Y13606D01*
X63617Y13595D01*
X63637Y13581D01*
X63655Y13566D01*
X63669Y13550D01*
X63680Y13532D01*
X63690Y13512D01*
X63697Y13491D01*
X63703Y13467D01*
X63706Y13449D01*
X63708Y13425D01*
X63709Y13395D01*
X63709Y13359D01*
X63709Y12954D01*
X63598Y12954D01*
X63598Y13355D01*
X63597Y13387D01*
X63595Y13414D01*
X63590Y13438D01*
X63585Y13457D01*
X63577Y13473D01*
X63567Y13487D01*
X63554Y13500D01*
X63539Y13511D01*
X63521Y13519D01*
X63503Y13526D01*
X63482Y13529D01*
X63461Y13531D01*
X63426Y13528D01*
X63394Y13519D01*
X63365Y13505D01*
X63338Y13485D01*
X63315Y13458D01*
X63299Y13420D01*
X63289Y13372D01*
X63286Y13314D01*
X63286Y12954D01*
X63174Y12954D01*
X63174Y12954D01*
X64623Y12954D02*
X64511Y12954D01*
X64511Y13665D01*
X64490Y13646D01*
X64465Y13627D01*
X64437Y13608D01*
X64406Y13588D01*
X64374Y13570D01*
X64343Y13555D01*
X64315Y13542D01*
X64288Y13531D01*
X64288Y13639D01*
X64333Y13662D01*
X64376Y13687D01*
X64415Y13715D01*
X64452Y13745D01*
X64484Y13776D01*
X64512Y13807D01*
X64534Y13837D01*
X64551Y13867D01*
X64623Y13867D01*
X64623Y12954D01*
X64623Y12954D01*
X64971Y12954D02*
X64971Y13081D01*
X65098Y13081D01*
X65098Y12954D01*
X64971Y12954D01*
X64971Y12954D01*
X65682Y12954D02*
X65570Y12954D01*
X65570Y13665D01*
X65549Y13646D01*
X65524Y13627D01*
X65496Y13608D01*
X65465Y13588D01*
X65433Y13570D01*
X65403Y13555D01*
X65374Y13542D01*
X65347Y13531D01*
X65347Y13639D01*
X65393Y13662D01*
X65435Y13687D01*
X65474Y13715D01*
X65511Y13745D01*
X65543Y13776D01*
X65571Y13807D01*
X65593Y13837D01*
X65610Y13867D01*
X65682Y13867D01*
X65682Y12954D01*
X65682Y12954D01*
X69051Y22506D02*
X69051Y22899D01*
X68661Y22899D01*
X68661Y23063D01*
X69051Y23063D01*
X69051Y23453D01*
X69217Y23453D01*
X69217Y23063D01*
X69607Y23063D01*
X69607Y22899D01*
X69217Y22899D01*
X69217Y22506D01*
X69051Y22506D01*
X69051Y22506D01*
X69801Y22650D02*
X69986Y22666D01*
X69999Y22602D01*
X70020Y22548D01*
X70047Y22501D01*
X70081Y22463D01*
X70120Y22433D01*
X70163Y22412D01*
X70210Y22399D01*
X70261Y22395D01*
X70322Y22401D01*
X70378Y22419D01*
X70429Y22449D01*
X70476Y22491D01*
X70514Y22543D01*
X70542Y22602D01*
X70558Y22670D01*
X70564Y22745D01*
X70558Y22816D01*
X70543Y22879D01*
X70516Y22935D01*
X70479Y22982D01*
X70434Y23020D01*
X70382Y23047D01*
X70323Y23064D01*
X70258Y23069D01*
X70217Y23067D01*
X70177Y23059D01*
X70140Y23047D01*
X70105Y23030D01*
X70072Y23010D01*
X70044Y22986D01*
X70019Y22960D01*
X69997Y22930D01*
X69832Y22952D01*
X69971Y23687D01*
X70683Y23687D01*
X70683Y23519D01*
X70112Y23519D01*
X70034Y23134D01*
X70100Y23174D01*
X70166Y23202D01*
X70235Y23219D01*
X70305Y23224D01*
X70395Y23216D01*
X70478Y23192D01*
X70553Y23151D01*
X70621Y23094D01*
X70678Y23025D01*
X70718Y22946D01*
X70742Y22858D01*
X70750Y22760D01*
X70743Y22666D01*
X70722Y22579D01*
X70687Y22499D01*
X70637Y22424D01*
X70562Y22348D01*
X70474Y22294D01*
X70374Y22261D01*
X70261Y22251D01*
X70168Y22257D01*
X70084Y22278D01*
X70008Y22312D01*
X69942Y22360D01*
X69887Y22419D01*
X69845Y22487D01*
X69816Y22564D01*
X69801Y22650D01*
X69801Y22650D01*
X71394Y22275D02*
X70839Y23707D01*
X71044Y23707D01*
X71416Y22667D01*
X71438Y22605D01*
X71458Y22546D01*
X71475Y22488D01*
X71491Y22432D01*
X71509Y22491D01*
X71527Y22549D01*
X71547Y22608D01*
X71569Y22667D01*
X71955Y23707D01*
X72149Y23707D01*
X71588Y22275D01*
X71394Y22275D01*
X71394Y22275D01*
X33779Y19125D02*
X33779Y19841D01*
X33874Y19841D01*
X33874Y19209D01*
X34226Y19209D01*
X34226Y19125D01*
X33779Y19125D01*
X33779Y19125D01*
X34328Y19125D02*
X34328Y19644D01*
X34416Y19644D01*
X34416Y19125D01*
X34328Y19125D01*
X34328Y19125D01*
X34328Y19740D02*
X34328Y19841D01*
X34416Y19841D01*
X34416Y19740D01*
X34328Y19740D01*
X34328Y19740D01*
X34550Y19125D02*
X34550Y19644D01*
X34629Y19644D01*
X34629Y19570D01*
X34661Y19607D01*
X34699Y19634D01*
X34743Y19650D01*
X34794Y19655D01*
X34817Y19654D01*
X34839Y19651D01*
X34860Y19646D01*
X34880Y19638D01*
X34899Y19629D01*
X34914Y19619D01*
X34928Y19607D01*
X34939Y19594D01*
X34948Y19580D01*
X34956Y19564D01*
X34962Y19547D01*
X34966Y19529D01*
X34968Y19515D01*
X34970Y19496D01*
X34971Y19472D01*
X34971Y19444D01*
X34971Y19125D01*
X34883Y19125D01*
X34883Y19440D01*
X34883Y19466D01*
X34881Y19487D01*
X34877Y19506D01*
X34873Y19521D01*
X34867Y19533D01*
X34859Y19545D01*
X34849Y19555D01*
X34837Y19563D01*
X34823Y19570D01*
X34808Y19575D01*
X34792Y19578D01*
X34775Y19579D01*
X34748Y19577D01*
X34723Y19570D01*
X34700Y19559D01*
X34678Y19543D01*
X34661Y19522D01*
X34648Y19492D01*
X34640Y19454D01*
X34638Y19408D01*
X34638Y19125D01*
X34550Y19125D01*
X34550Y19125D01*
X35106Y19125D02*
X35106Y19841D01*
X35194Y19841D01*
X35194Y19433D01*
X35402Y19644D01*
X35516Y19644D01*
X35318Y19451D01*
X35536Y19125D01*
X35428Y19125D01*
X35256Y19390D01*
X35194Y19331D01*
X35194Y19125D01*
X35106Y19125D01*
X35106Y19125D01*
X36076Y19204D02*
X36088Y19126D01*
X36070Y19123D01*
X36053Y19120D01*
X36037Y19119D01*
X36022Y19118D01*
X35999Y19119D01*
X35979Y19122D01*
X35962Y19127D01*
X35948Y19133D01*
X35936Y19141D01*
X35925Y19151D01*
X35917Y19161D01*
X35911Y19173D01*
X35906Y19189D01*
X35903Y19211D01*
X35901Y19241D01*
X35900Y19277D01*
X35900Y19575D01*
X35835Y19575D01*
X35835Y19644D01*
X35900Y19644D01*
X35900Y19772D01*
X35987Y19825D01*
X35987Y19644D01*
X36076Y19644D01*
X36076Y19575D01*
X35987Y19575D01*
X35987Y19272D01*
X35988Y19255D01*
X35988Y19241D01*
X35990Y19231D01*
X35992Y19224D01*
X35995Y19219D01*
X35998Y19214D01*
X36002Y19210D01*
X36007Y19207D01*
X36013Y19204D01*
X36020Y19202D01*
X36028Y19201D01*
X36037Y19200D01*
X36045Y19200D01*
X36054Y19201D01*
X36064Y19202D01*
X36076Y19204D01*
X36076Y19204D01*
X36129Y19384D02*
X36134Y19452D01*
X36149Y19510D01*
X36174Y19558D01*
X36209Y19598D01*
X36244Y19623D01*
X36283Y19641D01*
X36326Y19652D01*
X36372Y19655D01*
X36423Y19651D01*
X36469Y19638D01*
X36510Y19616D01*
X36547Y19585D01*
X36577Y19547D01*
X36598Y19502D01*
X36610Y19450D01*
X36615Y19392D01*
X36613Y19344D01*
X36607Y19302D01*
X36598Y19265D01*
X36585Y19234D01*
X36568Y19207D01*
X36548Y19183D01*
X36524Y19162D01*
X36497Y19145D01*
X36468Y19131D01*
X36437Y19121D01*
X36405Y19115D01*
X36372Y19113D01*
X36366Y19114D01*
X36372Y19186D01*
X36403Y19189D01*
X36432Y19198D01*
X36458Y19214D01*
X36481Y19235D01*
X36500Y19264D01*
X36514Y19298D01*
X36522Y19339D01*
X36524Y19387D01*
X36522Y19432D01*
X36513Y19472D01*
X36500Y19505D01*
X36481Y19533D01*
X36458Y19555D01*
X36432Y19570D01*
X36403Y19579D01*
X36372Y19583D01*
X36340Y19579D01*
X36312Y19570D01*
X36286Y19555D01*
X36263Y19533D01*
X36244Y19505D01*
X36230Y19471D01*
X36222Y19431D01*
X36219Y19384D01*
X36219Y19384D01*
X36222Y19338D01*
X36230Y19297D01*
X36244Y19263D01*
X36263Y19235D01*
X36286Y19213D01*
X36312Y19198D01*
X36340Y19189D01*
X36372Y19186D01*
X36366Y19114D01*
X36320Y19118D01*
X36274Y19131D01*
X36232Y19153D01*
X36196Y19183D01*
X36167Y19222D01*
X36146Y19268D01*
X36133Y19322D01*
X36129Y19384D01*
X36129Y19384D01*
X37351Y19292D02*
X37441Y19281D01*
X37428Y19243D01*
X37411Y19210D01*
X37389Y19181D01*
X37362Y19157D01*
X37331Y19138D01*
X37296Y19124D01*
X37257Y19116D01*
X37213Y19113D01*
X37159Y19118D01*
X37111Y19131D01*
X37069Y19153D01*
X37033Y19183D01*
X37004Y19222D01*
X36983Y19268D01*
X36970Y19320D01*
X36966Y19380D01*
X36971Y19442D01*
X36983Y19496D01*
X37004Y19543D01*
X37034Y19583D01*
X37070Y19615D01*
X37111Y19637D01*
X37157Y19651D01*
X37208Y19655D01*
X37216Y19655D01*
X37209Y19583D01*
X37180Y19580D01*
X37154Y19573D01*
X37129Y19560D01*
X37108Y19542D01*
X37089Y19521D01*
X37076Y19495D01*
X37066Y19466D01*
X37062Y19434D01*
X37062Y19434D01*
X37352Y19434D01*
X37347Y19465D01*
X37340Y19491D01*
X37331Y19514D01*
X37318Y19532D01*
X37296Y19554D01*
X37270Y19570D01*
X37241Y19580D01*
X37209Y19583D01*
X37216Y19655D01*
X37258Y19651D01*
X37303Y19638D01*
X37343Y19615D01*
X37378Y19584D01*
X37407Y19545D01*
X37428Y19499D01*
X37440Y19446D01*
X37444Y19385D01*
X37444Y19381D01*
X37444Y19375D01*
X37444Y19369D01*
X37444Y19362D01*
X37057Y19362D01*
X37062Y19322D01*
X37072Y19286D01*
X37086Y19256D01*
X37105Y19231D01*
X37129Y19211D01*
X37154Y19197D01*
X37183Y19188D01*
X37214Y19186D01*
X37237Y19187D01*
X37259Y19192D01*
X37278Y19200D01*
X37296Y19211D01*
X37313Y19226D01*
X37327Y19244D01*
X37340Y19266D01*
X37351Y19292D01*
X37351Y19292D01*
X37552Y19125D02*
X37552Y19644D01*
X37631Y19644D01*
X37631Y19570D01*
X37663Y19607D01*
X37701Y19634D01*
X37745Y19650D01*
X37796Y19655D01*
X37819Y19654D01*
X37841Y19651D01*
X37862Y19646D01*
X37882Y19638D01*
X37900Y19629D01*
X37916Y19619D01*
X37930Y19607D01*
X37941Y19594D01*
X37950Y19580D01*
X37958Y19564D01*
X37964Y19547D01*
X37968Y19529D01*
X37970Y19515D01*
X37972Y19496D01*
X37973Y19472D01*
X37973Y19444D01*
X37973Y19125D01*
X37885Y19125D01*
X37885Y19440D01*
X37885Y19466D01*
X37883Y19487D01*
X37879Y19506D01*
X37875Y19521D01*
X37869Y19533D01*
X37861Y19545D01*
X37851Y19555D01*
X37839Y19563D01*
X37825Y19570D01*
X37810Y19575D01*
X37794Y19578D01*
X37777Y19579D01*
X37750Y19577D01*
X37725Y19570D01*
X37702Y19559D01*
X37680Y19543D01*
X37663Y19522D01*
X37650Y19492D01*
X37642Y19454D01*
X37640Y19408D01*
X37640Y19125D01*
X37552Y19125D01*
X37552Y19125D01*
X38446Y19189D02*
X38422Y19170D01*
X38419Y19167D01*
X38385Y19216D01*
X38401Y19231D01*
X38414Y19247D01*
X38425Y19265D01*
X38431Y19282D01*
X38435Y19302D01*
X38438Y19326D01*
X38439Y19353D01*
X38439Y19385D01*
X38439Y19385D01*
X38412Y19376D01*
X38379Y19367D01*
X38340Y19359D01*
X38295Y19352D01*
X38270Y19348D01*
X38249Y19344D01*
X38232Y19339D01*
X38219Y19334D01*
X38208Y19329D01*
X38199Y19322D01*
X38191Y19315D01*
X38184Y19306D01*
X38179Y19296D01*
X38175Y19286D01*
X38173Y19275D01*
X38172Y19264D01*
X38174Y19247D01*
X38179Y19232D01*
X38187Y19218D01*
X38198Y19206D01*
X38213Y19195D01*
X38231Y19188D01*
X38252Y19184D01*
X38276Y19182D01*
X38301Y19184D01*
X38324Y19188D01*
X38346Y19195D01*
X38367Y19204D01*
X38385Y19216D01*
X38419Y19167D01*
X38398Y19154D01*
X38375Y19140D01*
X38352Y19130D01*
X38329Y19123D01*
X38305Y19118D01*
X38281Y19114D01*
X38255Y19113D01*
X38215Y19116D01*
X38180Y19124D01*
X38149Y19137D01*
X38124Y19155D01*
X38104Y19177D01*
X38090Y19203D01*
X38081Y19231D01*
X38078Y19262D01*
X38079Y19280D01*
X38082Y19298D01*
X38088Y19315D01*
X38095Y19331D01*
X38105Y19346D01*
X38115Y19360D01*
X38128Y19372D01*
X38141Y19382D01*
X38155Y19391D01*
X38171Y19399D01*
X38187Y19405D01*
X38204Y19411D01*
X38219Y19414D01*
X38237Y19417D01*
X38258Y19421D01*
X38282Y19424D01*
X38332Y19430D01*
X38375Y19438D01*
X38410Y19446D01*
X38439Y19454D01*
X38439Y19462D01*
X38439Y19469D01*
X38439Y19474D01*
X38439Y19477D01*
X38438Y19502D01*
X38433Y19523D01*
X38425Y19540D01*
X38415Y19553D01*
X38396Y19566D01*
X38373Y19575D01*
X38346Y19581D01*
X38314Y19583D01*
X38285Y19581D01*
X38261Y19577D01*
X38240Y19570D01*
X38223Y19561D01*
X38209Y19548D01*
X38197Y19531D01*
X38187Y19509D01*
X38179Y19484D01*
X38093Y19496D01*
X38100Y19522D01*
X38109Y19545D01*
X38119Y19566D01*
X38132Y19585D01*
X38147Y19601D01*
X38165Y19615D01*
X38186Y19627D01*
X38209Y19637D01*
X38236Y19645D01*
X38264Y19651D01*
X38295Y19654D01*
X38327Y19655D01*
X38359Y19654D01*
X38387Y19651D01*
X38413Y19646D01*
X38435Y19640D01*
X38454Y19631D01*
X38471Y19622D01*
X38485Y19612D01*
X38496Y19600D01*
X38505Y19588D01*
X38513Y19574D01*
X38519Y19558D01*
X38523Y19541D01*
X38525Y19527D01*
X38527Y19509D01*
X38528Y19487D01*
X38528Y19459D01*
X38528Y19342D01*
X38528Y19287D01*
X38529Y19242D01*
X38531Y19209D01*
X38533Y19187D01*
X38537Y19171D01*
X38542Y19155D01*
X38548Y19140D01*
X38556Y19125D01*
X38464Y19125D01*
X38458Y19139D01*
X38453Y19155D01*
X38449Y19171D01*
X38446Y19189D01*
X38446Y19189D01*
X38745Y19125D02*
X38664Y19125D01*
X38664Y19841D01*
X38751Y19841D01*
X38751Y19585D01*
X38781Y19616D01*
X38815Y19638D01*
X38852Y19651D01*
X38894Y19655D01*
X38917Y19654D01*
X38940Y19650D01*
X38962Y19644D01*
X38984Y19636D01*
X39005Y19625D01*
X39023Y19613D01*
X39040Y19598D01*
X39054Y19582D01*
X39067Y19563D01*
X39079Y19543D01*
X39089Y19521D01*
X39098Y19498D01*
X39104Y19472D01*
X39109Y19447D01*
X39112Y19420D01*
X39113Y19392D01*
X39109Y19329D01*
X39097Y19274D01*
X39076Y19226D01*
X39047Y19186D01*
X39013Y19154D01*
X38975Y19131D01*
X38934Y19118D01*
X38889Y19113D01*
X38846Y19118D01*
X38807Y19132D01*
X38774Y19156D01*
X38748Y19186D01*
X38792Y19224D01*
X38818Y19203D01*
X38848Y19190D01*
X38882Y19186D01*
X38910Y19189D01*
X38936Y19198D01*
X38959Y19214D01*
X38981Y19236D01*
X39000Y19264D01*
X39013Y19298D01*
X39021Y19338D01*
X39023Y19385D01*
X39021Y19432D01*
X39013Y19473D01*
X39001Y19507D01*
X38983Y19535D01*
X38962Y19556D01*
X38939Y19571D01*
X38913Y19580D01*
X38886Y19583D01*
X38858Y19580D01*
X38832Y19570D01*
X38808Y19555D01*
X38786Y19533D01*
X38768Y19505D01*
X38755Y19472D01*
X38747Y19433D01*
X38744Y19388D01*
X38744Y19388D01*
X38746Y19345D01*
X38750Y19308D01*
X38758Y19277D01*
X38770Y19253D01*
X38792Y19224D01*
X38748Y19186D01*
X38745Y19190D01*
X38745Y19125D01*
X38745Y19125D01*
X39218Y19125D02*
X39218Y19841D01*
X39306Y19841D01*
X39306Y19125D01*
X39218Y19125D01*
X39218Y19125D01*
X39797Y19292D02*
X39888Y19281D01*
X39875Y19243D01*
X39858Y19210D01*
X39835Y19181D01*
X39809Y19157D01*
X39778Y19138D01*
X39742Y19124D01*
X39703Y19116D01*
X39660Y19113D01*
X39606Y19118D01*
X39558Y19131D01*
X39516Y19153D01*
X39480Y19183D01*
X39451Y19222D01*
X39430Y19268D01*
X39417Y19320D01*
X39413Y19380D01*
X39417Y19442D01*
X39430Y19496D01*
X39451Y19543D01*
X39480Y19583D01*
X39517Y19615D01*
X39558Y19637D01*
X39604Y19651D01*
X39655Y19655D01*
X39663Y19655D01*
X39656Y19583D01*
X39627Y19580D01*
X39601Y19573D01*
X39576Y19560D01*
X39554Y19542D01*
X39536Y19521D01*
X39522Y19495D01*
X39513Y19466D01*
X39509Y19434D01*
X39509Y19434D01*
X39798Y19434D01*
X39794Y19465D01*
X39787Y19491D01*
X39777Y19514D01*
X39765Y19532D01*
X39743Y19554D01*
X39717Y19570D01*
X39688Y19580D01*
X39656Y19583D01*
X39663Y19655D01*
X39705Y19651D01*
X39750Y19638D01*
X39790Y19615D01*
X39825Y19584D01*
X39854Y19545D01*
X39875Y19499D01*
X39887Y19446D01*
X39891Y19385D01*
X39891Y19381D01*
X39891Y19375D01*
X39891Y19369D01*
X39891Y19362D01*
X39504Y19362D01*
X39509Y19322D01*
X39518Y19286D01*
X39533Y19256D01*
X39552Y19231D01*
X39575Y19211D01*
X39601Y19197D01*
X39630Y19188D01*
X39661Y19186D01*
X39684Y19187D01*
X39705Y19192D01*
X39725Y19200D01*
X39743Y19211D01*
X39759Y19226D01*
X39774Y19244D01*
X39786Y19266D01*
X39797Y19292D01*
X39797Y19292D01*
X40288Y19125D02*
X40288Y19841D01*
X40558Y19841D01*
X40591Y19840D01*
X40620Y19839D01*
X40646Y19837D01*
X40666Y19834D01*
X40692Y19829D01*
X40715Y19821D01*
X40736Y19812D01*
X40755Y19801D01*
X40772Y19787D01*
X40787Y19771D01*
X40801Y19752D01*
X40812Y19731D01*
X40822Y19709D01*
X40829Y19685D01*
X40833Y19660D01*
X40834Y19634D01*
X40830Y19590D01*
X40819Y19549D01*
X40801Y19513D01*
X40776Y19479D01*
X40741Y19452D01*
X40694Y19432D01*
X40636Y19420D01*
X40615Y19419D01*
X40610Y19503D01*
X40646Y19509D01*
X40675Y19520D01*
X40698Y19535D01*
X40715Y19553D01*
X40727Y19576D01*
X40734Y19602D01*
X40736Y19631D01*
X40735Y19653D01*
X40731Y19673D01*
X40724Y19691D01*
X40714Y19708D01*
X40701Y19722D01*
X40687Y19734D01*
X40671Y19744D01*
X40654Y19750D01*
X40639Y19753D01*
X40620Y19755D01*
X40595Y19756D01*
X40565Y19756D01*
X40382Y19756D01*
X40382Y19500D01*
X40382Y19500D01*
X40567Y19500D01*
X40610Y19503D01*
X40615Y19419D01*
X40566Y19416D01*
X40382Y19416D01*
X40382Y19125D01*
X40288Y19125D01*
X40288Y19125D01*
X40922Y19355D02*
X41012Y19363D01*
X41016Y19337D01*
X41022Y19314D01*
X41031Y19293D01*
X41041Y19275D01*
X41054Y19258D01*
X41071Y19244D01*
X41090Y19230D01*
X41113Y19219D01*
X41138Y19210D01*
X41165Y19203D01*
X41193Y19199D01*
X41223Y19198D01*
X41249Y19199D01*
X41274Y19202D01*
X41297Y19207D01*
X41319Y19214D01*
X41338Y19223D01*
X41355Y19233D01*
X41369Y19245D01*
X41381Y19258D01*
X41389Y19272D01*
X41396Y19287D01*
X41400Y19303D01*
X41401Y19319D01*
X41400Y19336D01*
X41396Y19351D01*
X41390Y19365D01*
X41381Y19378D01*
X41370Y19390D01*
X41355Y19401D01*
X41338Y19411D01*
X41317Y19420D01*
X41298Y19427D01*
X41271Y19435D01*
X41234Y19444D01*
X41189Y19455D01*
X41144Y19467D01*
X41106Y19478D01*
X41075Y19489D01*
X41051Y19500D01*
X41027Y19514D01*
X41007Y19530D01*
X40989Y19548D01*
X40975Y19567D01*
X40964Y19587D01*
X40956Y19609D01*
X40951Y19632D01*
X40950Y19656D01*
X40952Y19682D01*
X40957Y19708D01*
X40967Y19733D01*
X40980Y19757D01*
X40998Y19779D01*
X41018Y19799D01*
X41043Y19815D01*
X41070Y19829D01*
X41101Y19839D01*
X41133Y19847D01*
X41166Y19852D01*
X41202Y19853D01*
X41240Y19851D01*
X41277Y19847D01*
X41310Y19839D01*
X41342Y19827D01*
X41371Y19813D01*
X41396Y19796D01*
X41417Y19775D01*
X41436Y19752D01*
X41450Y19726D01*
X41461Y19699D01*
X41468Y19670D01*
X41471Y19639D01*
X41380Y19632D01*
X41374Y19664D01*
X41364Y19692D01*
X41349Y19715D01*
X41330Y19735D01*
X41307Y19750D01*
X41278Y19761D01*
X41244Y19767D01*
X41206Y19770D01*
X41166Y19768D01*
X41131Y19762D01*
X41103Y19752D01*
X41080Y19738D01*
X41063Y19721D01*
X41051Y19703D01*
X41043Y19684D01*
X41041Y19662D01*
X41043Y19644D01*
X41048Y19627D01*
X41057Y19612D01*
X41069Y19599D01*
X41088Y19586D01*
X41118Y19573D01*
X41159Y19561D01*
X41212Y19548D01*
X41265Y19535D01*
X41309Y19523D01*
X41344Y19512D01*
X41370Y19502D01*
X41399Y19487D01*
X41424Y19469D01*
X41445Y19450D01*
X41462Y19429D01*
X41475Y19406D01*
X41485Y19381D01*
X41490Y19355D01*
X41492Y19327D01*
X41490Y19299D01*
X41484Y19272D01*
X41474Y19245D01*
X41459Y19219D01*
X41441Y19196D01*
X41420Y19175D01*
X41394Y19156D01*
X41365Y19141D01*
X41334Y19129D01*
X41300Y19120D01*
X41265Y19115D01*
X41228Y19113D01*
X41181Y19115D01*
X41138Y19120D01*
X41100Y19129D01*
X41065Y19141D01*
X41034Y19157D01*
X41006Y19177D01*
X40982Y19200D01*
X40962Y19226D01*
X40945Y19256D01*
X40933Y19287D01*
X40926Y19320D01*
X40922Y19355D01*
X40922Y19355D01*
G37*
M02*