%FSLAX33Y33*%
%MOMM*%
%ADD10C,0.381*%
%ADD11C,1.35*%
%ADD12C,1.3*%
%ADD13C,3.2*%
%ADD14C,0.9*%
%ADD15C,1.4*%
%ADD16C,1.17*%
%ADD17C,0.9*%
%ADD18C,1.15*%
D10*
%LNhole_traces*%
G01*
X54992Y28000D03*
X54992Y33000D03*
%LNhole component 41c15735770252ef*%
D11*
X27820Y35997D03*
X27820Y33457D03*
X27820Y30917D03*
X27820Y28377D03*
X27820Y25837D03*
X27820Y23297D03*
X27820Y20757D03*
X27820Y18217D03*
X30360Y35997D03*
X30360Y33457D03*
X30360Y30917D03*
X30360Y28377D03*
X30360Y25837D03*
X30360Y23297D03*
X30360Y20757D03*
X30360Y18217D03*
%LNhole component 8aa9dbe17b2694dd*%
D12*
X14500Y30000D03*
X14500Y25000D03*
X14500Y20000D03*
X14500Y15000D03*
%LNhole component f3f5b781052c70a8*%
D13*
X70000Y40000D03*
%LNhole component 6e477e811df8e32e*%
X70000Y5000D03*
%LNhole component fee21472fa440ebf*%
D14*
X63730Y33000D03*
X66270Y33000D03*
%LNhole component bb9cf510df5bd2f2*%
D11*
X44820Y35997D03*
X44820Y33457D03*
X44820Y30917D03*
X44820Y28377D03*
X44820Y25837D03*
X44820Y23297D03*
X44820Y20757D03*
X44820Y18217D03*
X47360Y35997D03*
X47360Y33457D03*
X47360Y30917D03*
X47360Y28377D03*
X47360Y25837D03*
X47360Y23297D03*
X47360Y20757D03*
X47360Y18217D03*
%LNhole component 781a32ea49690d2f*%
D15*
X14400Y8750D03*
X18600Y8750D03*
X22800Y8750D03*
X27000Y8750D03*
X31200Y8750D03*
X35400Y8750D03*
X39600Y8750D03*
X43800Y8750D03*
X48000Y8750D03*
X52200Y8750D03*
X56400Y8750D03*
X60600Y8750D03*
X14400Y3250D03*
X18600Y3250D03*
X22800Y3250D03*
X27000Y3250D03*
X31200Y3250D03*
X35400Y3250D03*
X39600Y3250D03*
X43800Y3250D03*
X48000Y3250D03*
X52200Y3250D03*
X56400Y3250D03*
X60600Y3250D03*
%LNhole component 6cc8a17c2220d495*%
D16*
X11960Y14880D03*
X17040Y14880D03*
%LNhole component 8065518f3e85c1ab*%
X11960Y25040D03*
X17040Y25040D03*
%LNhole component 3690b7dfef4cbc9b*%
X11960Y19960D03*
X17040Y19960D03*
%LNhole component 697b93ea490e0695*%
D17*
X66270Y28000D03*
X63730Y28000D03*
%LNhole component 10c16d8175be8e60*%
D13*
X5000Y5000D03*
%LNhole component 761dbd4768bded8a*%
D17*
X66270Y23000D03*
X63730Y23000D03*
%LNhole component b5b3b87ae0d53d4d*%
D13*
X5000Y40000D03*
%LNhole component d92ab5807f37edc5*%
D16*
X11960Y30120D03*
X17040Y30120D03*
%LNhole component 4dc3ec6c5fda06a0*%
D18*
X37500Y16987D03*
X37500Y14447D03*
M02*