%FSLAX33Y33*%
%MOMM*%
%AMRect-W1400000-H1400000-RO1.000*
21,1,1.4,1.4,0.,0.,180*%
%ADD10C,0.68834*%
%ADD11C,2.*%
%ADD12R,2.049999X2.049999*%
%ADD13C,2.049999*%
%ADD14C,1.4*%
%ADD15Rect-W1400000-H1400000-RO1.000*%
%ADD16C,5.5*%
%ADD17R,2.X2.*%
%ADD18R,1.778X1.778*%
%ADD19C,1.778*%
D10*
%LNtop solder mask_traces*%
G01*
X55100Y23000D03*
%LNtop solder mask component c63f2cfbf6a36a1e*%
D11*
X11960Y15000D03*
X17040Y15000D03*
%LNtop solder mask component 41c15735770252ef*%
D12*
X27820Y35997D03*
D13*
X27820Y33457D03*
X27820Y30917D03*
X27820Y28377D03*
X27820Y25837D03*
X27820Y23297D03*
X27820Y20757D03*
X27820Y18217D03*
X30360Y35997D03*
X30360Y33457D03*
X30360Y30917D03*
X30360Y28377D03*
X30360Y25837D03*
X30360Y23297D03*
X30360Y20757D03*
X30360Y18217D03*
%LNtop solder mask component 8aa19a9a475ab06d*%
D11*
X11960Y25000D03*
X17040Y25000D03*
%LNtop solder mask component 42d088f49832dd14*%
D14*
X63730Y33000D03*
D15*
X66270Y33000D03*
%LNtop solder mask component f3f5b781052c70a8*%
D16*
X70000Y40000D03*
%LNtop solder mask component eaa60ad4603cc8b7*%
D11*
X11960Y20000D03*
X17040Y20000D03*
%LNtop solder mask component 066798f312f84cc6*%
D14*
X63730Y28000D03*
D15*
X66270Y28000D03*
%LNtop solder mask component bb9cf510df5bd2f2*%
D12*
X44820Y35997D03*
D13*
X44820Y33457D03*
X44820Y30917D03*
X44820Y28377D03*
X44820Y25837D03*
X44820Y23297D03*
X44820Y20757D03*
X44820Y18217D03*
X47360Y35997D03*
X47360Y33457D03*
X47360Y30917D03*
X47360Y28377D03*
X47360Y25837D03*
X47360Y23297D03*
X47360Y20757D03*
X47360Y18217D03*
%LNtop solder mask component 8aa9dbe17b2694dd*%
D17*
X14500Y30000D03*
D11*
X14500Y25000D03*
X14500Y20000D03*
X14500Y15000D03*
%LNtop solder mask component b5b3b87ae0d53d4d*%
D16*
X5000Y40000D03*
%LNtop solder mask component 10c16d8175be8e60*%
X5000Y5000D03*
%LNtop solder mask component 781a32ea49690d2f*%
D11*
X14400Y8750D03*
X18600Y8750D03*
X22800Y8750D03*
X27000Y8750D03*
X31200Y8750D03*
X35400Y8750D03*
X39600Y8750D03*
X43800Y8750D03*
X48000Y8750D03*
X52200Y8750D03*
X56400Y8750D03*
X60600Y8750D03*
X14400Y3250D03*
X18600Y3250D03*
X22800Y3250D03*
X27000Y3250D03*
X31200Y3250D03*
X35400Y3250D03*
X39600Y3250D03*
X43800Y3250D03*
X48000Y3250D03*
X52200Y3250D03*
X56400Y3250D03*
X60600Y3250D03*
%LNtop solder mask component ef9ce2dfc510e03f*%
D18*
X37500Y16987D03*
D19*
X37500Y14447D03*
%LNtop solder mask component 6e477e811df8e32e*%
D16*
X70000Y5000D03*
%LNtop solder mask component 02f0c27996d92107*%
D14*
X63730Y23000D03*
D15*
X66270Y23000D03*
%LNtop solder mask component a6d66b3445016952*%
D11*
X11960Y30000D03*
X17040Y30000D03*
M02*