%FSLAX33Y33*%
%MOMM*%
%ADD10C,0.3302*%
%ADD11C,1.4*%
%ADD12C,1.35*%
%ADD13C,0.9*%
%ADD14C,3.2*%
%ADD15C,1.3*%
%ADD16C,1.016*%
D10*
%LNhole_traces*%
G01*
X37500Y28377D03*
X55100Y23000D03*
X37500Y33457D03*
X37500Y30917D03*
%LNhole component 2c4c786317b2e6ed*%
D11*
X14400Y8750D03*
X18600Y8750D03*
X22800Y8750D03*
X27000Y8750D03*
X31200Y8750D03*
X35400Y8750D03*
X39600Y8750D03*
X43800Y8750D03*
X48000Y8750D03*
X52200Y8750D03*
X56400Y8750D03*
X60600Y8750D03*
X14400Y3250D03*
X18600Y3250D03*
X22800Y3250D03*
X27000Y3250D03*
X31200Y3250D03*
X35400Y3250D03*
X39600Y3250D03*
X43800Y3250D03*
X48000Y3250D03*
X52200Y3250D03*
X56400Y3250D03*
X60600Y3250D03*
%LNhole component 41c15735770252ef*%
D12*
X27730Y35997D03*
X27730Y33457D03*
X27730Y30917D03*
X27730Y28377D03*
X27730Y25837D03*
X27730Y23297D03*
X27730Y20757D03*
X27730Y18217D03*
X30270Y35997D03*
X30270Y33457D03*
X30270Y30917D03*
X30270Y28377D03*
X30270Y25837D03*
X30270Y23297D03*
X30270Y20757D03*
X30270Y18217D03*
%LNhole component 8aa19a9a475ab06d*%
D11*
X11960Y25000D03*
X17040Y25000D03*
%LNhole component 42d088f49832dd14*%
D13*
X66270Y33000D03*
X63730Y33000D03*
%LNhole component f3f5b781052c70a8*%
D14*
X70000Y40000D03*
%LNhole component 066798f312f84cc6*%
D13*
X66270Y28000D03*
X63730Y28000D03*
%LNhole component 8aa9dbe17b2694dd*%
D15*
X14500Y30000D03*
X14500Y25000D03*
X14500Y20000D03*
X14500Y15000D03*
%LNhole component b5b3b87ae0d53d4d*%
D14*
X5000Y40000D03*
%LNhole component bb9cf510df5bd2f2*%
D12*
X44730Y35997D03*
X44730Y33457D03*
X44730Y30917D03*
X44730Y28377D03*
X44730Y25837D03*
X44730Y23297D03*
X44730Y20757D03*
X44730Y18217D03*
X47270Y35997D03*
X47270Y33457D03*
X47270Y30917D03*
X47270Y28377D03*
X47270Y25837D03*
X47270Y23297D03*
X47270Y20757D03*
X47270Y18217D03*
%LNhole component 10c16d8175be8e60*%
D14*
X5000Y5000D03*
%LNhole component 6e477e811df8e32e*%
X70000Y5000D03*
%LNhole component ef9ce2dfc510e03f*%
D16*
X37500Y16987D03*
X37500Y14447D03*
%LNhole component 02f0c27996d92107*%
D13*
X66270Y23000D03*
X63730Y23000D03*
%LNhole component a6d66b3445016952*%
D11*
X11960Y30000D03*
X17040Y30000D03*
%LNhole component eaa60ad4603cc8b7*%
X11960Y20000D03*
X17040Y20000D03*
%LNhole component c63f2cfbf6a36a1e*%
X11960Y15000D03*
X17040Y15000D03*
M02*