%FSLAX33Y33*%
%MOMM*%
%AMRect-W1400000-H1400000-RO1.000*
21,1,1.4,1.4,0.,0.,180*%
%ADD10C,1.016*%
%ADD11C,0.2032*%
%ADD12C,0.762*%
%ADD13R,2.049999X2.049999*%
%ADD14C,2.049999*%
%ADD15R,2.X2.*%
%ADD16C,2.*%
%ADD17C,5.5*%
%ADD18R,1.4X1.4*%
%ADD19C,1.4*%
%ADD20R,1.82X1.82*%
%ADD21C,1.82*%
%ADD22C,1.4*%
%ADD23Rect-W1400000-H1400000-RO1.000*%
%ADD24R,1.75X1.75*%
%ADD25C,1.75*%
D10*
%LNbottom copper_traces*%
G01*
X17040Y30120D02*
X22917Y35997D01*
X6980Y30120D02*
X11840Y30120D01*
X38054Y6096D02*
X35400Y8750D01*
D11*
X52578Y25837D02*
X54741Y28000D01*
X54992Y28000*
D10*
X22917Y25837D02*
X52578Y25837D01*
X35400Y8750D02*
X32746Y6096D01*
X52578Y25837D02*
X52578Y9128D01*
X4940Y12446D02*
X11290Y6096D01*
X25457Y23297D02*
X47360Y23297D01*
X56400Y8750D02*
X52200Y8750D01*
X38054Y6096D02*
X45154Y6096D01*
X17040Y19960D02*
X22917Y25837D01*
X48000Y3250D02*
X45154Y6096D01*
X22917Y35997D02*
X47360Y35997D01*
D11*
X47360Y35997D02*
X51995Y35997D01*
D10*
X18600Y3250D02*
X15754Y6096D01*
X20870Y14880D02*
X17040Y14880D01*
X29210Y6096D02*
X32746Y6096D01*
X15754Y6096D02*
X11290Y6096D01*
X17040Y14880D02*
X25457Y23297D01*
X4940Y28080D02*
X6980Y30120D01*
X29210Y6096D02*
X27000Y8306D01*
X56400Y3250D02*
X48000Y3250D01*
D11*
X51995Y35997D02*
X54992Y33000D01*
D10*
X27000Y8750D02*
X20870Y14880D01*
X4940Y12446D02*
X4940Y28080D01*
D12*
X54992Y28000D03*
X54992Y33000D03*
%LNbottom copper component 41c15735770252ef*%
D13*
X27820Y35997D03*
D14*
X27820Y33457D03*
X27820Y30917D03*
X27820Y28377D03*
X27820Y25837D03*
X27820Y23297D03*
X27820Y20757D03*
X27820Y18217D03*
X30360Y35997D03*
X30360Y33457D03*
X30360Y30917D03*
X30360Y28377D03*
X30360Y25837D03*
X30360Y23297D03*
X30360Y20757D03*
X30360Y18217D03*
%LNbottom copper component 8aa9dbe17b2694dd*%
D15*
X14500Y30000D03*
D16*
X14500Y25000D03*
X14500Y20000D03*
X14500Y15000D03*
%LNbottom copper component f3f5b781052c70a8*%
D17*
X70000Y40000D03*
%LNbottom copper component 6e477e811df8e32e*%
X70000Y5000D03*
%LNbottom copper component fee21472fa440ebf*%
D18*
X63730Y33000D03*
D19*
X66270Y33000D03*
%LNbottom copper component bb9cf510df5bd2f2*%
D13*
X44820Y35997D03*
D14*
X44820Y33457D03*
X44820Y30917D03*
X44820Y28377D03*
X44820Y25837D03*
X44820Y23297D03*
X44820Y20757D03*
X44820Y18217D03*
X47360Y35997D03*
X47360Y33457D03*
X47360Y30917D03*
X47360Y28377D03*
X47360Y25837D03*
X47360Y23297D03*
X47360Y20757D03*
X47360Y18217D03*
%LNbottom copper component 781a32ea49690d2f*%
D16*
X14400Y8750D03*
X18600Y8750D03*
X22800Y8750D03*
X27000Y8750D03*
X31200Y8750D03*
X35400Y8750D03*
X39600Y8750D03*
X43800Y8750D03*
X48000Y8750D03*
X52200Y8750D03*
X56400Y8750D03*
X60600Y8750D03*
X14400Y3250D03*
X18600Y3250D03*
X22800Y3250D03*
X27000Y3250D03*
X31200Y3250D03*
X35400Y3250D03*
X39600Y3250D03*
X43800Y3250D03*
X48000Y3250D03*
X52200Y3250D03*
X56400Y3250D03*
X60600Y3250D03*
%LNbottom copper component 6cc8a17c2220d495*%
D20*
X11960Y14880D03*
D21*
X17040Y14880D03*
%LNbottom copper component 8065518f3e85c1ab*%
D20*
X11960Y25040D03*
D21*
X17040Y25040D03*
%LNbottom copper component 3690b7dfef4cbc9b*%
D20*
X11960Y19960D03*
D21*
X17040Y19960D03*
%LNbottom copper component 697b93ea490e0695*%
D22*
X63730Y28000D03*
D23*
X66270Y28000D03*
%LNbottom copper component 10c16d8175be8e60*%
D17*
X5000Y5000D03*
%LNbottom copper component 761dbd4768bded8a*%
D22*
X63730Y23000D03*
D23*
X66270Y23000D03*
%LNbottom copper component b5b3b87ae0d53d4d*%
D17*
X5000Y40000D03*
%LNbottom copper component d92ab5807f37edc5*%
D20*
X11960Y30120D03*
D21*
X17040Y30120D03*
%LNbottom copper component 4dc3ec6c5fda06a0*%
D24*
X37500Y16987D03*
D25*
X37500Y14447D03*
M02*