<?xml version="1.0" encoding="utf-8" ?>
<svg baseProfile="tiny" height="169.235428934" version="1.2" width="169.235428934" xmlns="http://www.w3.org/2000/svg" xmlns:ev="http://www.w3.org/2001/xml-events" xmlns:xlink="http://www.w3.org/1999/xlink"><defs /><g id="paths" stroke="green"><path d="M 4.893306967,164.342121967 L 164.342121967,164.342121967 L 164.342121967,4.893306967 L 4.893306967,4.893306967 L 4.893306967,164.342121967 Z" fill-opacity="0" stroke-linejoin="round" stroke-width="1.0" /></g><g fill="red" id="top_parts" stroke="red"><line stroke-linecap="round" stroke-width="0.5" x1="39.7552" x2="69.244" y1="71.7732" y2="71.7732" /><line stroke-linecap="round" stroke-width="0.5" x1="69.244" x2="69.244" y1="71.7732" y2="79.7457" /><line stroke-linecap="round" stroke-width="0.5" x1="69.244" x2="39.7552" y1="79.7457" y2="79.7457" /><line stroke-linecap="round" stroke-width="0.5" x1="39.7552" x2="39.7552" y1="79.7457" y2="71.7732" /><text font-family="monospace" font-size="2" stroke-width="0.1" text-anchor="middle" x="54.499604967" y="75.759446967">J4</text><text font-family="monospace" font-size="2" stroke-width="0.1" text-anchor="middle" x="143.082279967" y="56.271258467">D1</text><text font-family="monospace" font-size="2" stroke-width="0.1" text-anchor="middle" x="143.082279967" y="84.617714467">D2</text><line stroke-linecap="round" stroke-width="0.5" x1="37.1374" x2="71.8618" y1="47.3244" y2="47.3244" /><line stroke-linecap="round" stroke-width="0.5" x1="71.8618" x2="71.8618" y1="47.3244" y2="121.911" /><line stroke-linecap="round" stroke-width="0.5" x1="71.8618" x2="37.1374" y1="121.911" y2="121.911" /><line stroke-linecap="round" stroke-width="0.5" x1="37.1374" x2="37.1374" y1="121.911" y2="47.3244" /><text font-family="monospace" font-size="2" stroke-width="0.1" text-anchor="middle" x="54.499604967" y="84.617714467">J2</text><text font-family="monospace" font-size="2" stroke-width="0.1" text-anchor="middle" x="143.082279967" y="112.964170467">D3</text><line stroke-linecap="round" stroke-width="0.5" x1="39.7552" x2="69.244" y1="89.4898" y2="89.4898" /><line stroke-linecap="round" stroke-width="0.5" x1="69.244" x2="69.244" y1="89.4898" y2="97.4622" /><line stroke-linecap="round" stroke-width="0.5" x1="69.244" x2="39.7552" y1="97.4622" y2="97.4622" /><line stroke-linecap="round" stroke-width="0.5" x1="39.7552" x2="39.7552" y1="97.4622" y2="89.4898" /><text font-family="monospace" font-size="2" stroke-width="0.1" text-anchor="middle" x="54.499604967" y="93.475981967">J5</text><line stroke-linecap="round" stroke-width="0.5" x1="39.7552" x2="69.244" y1="107.2063" y2="107.2063" /><line stroke-linecap="round" stroke-width="0.5" x1="69.244" x2="69.244" y1="107.2063" y2="115.1787" /><line stroke-linecap="round" stroke-width="0.5" x1="69.244" x2="39.7552" y1="115.1787" y2="115.1787" /><line stroke-linecap="round" stroke-width="0.5" x1="39.7552" x2="39.7552" y1="115.1787" y2="107.2063" /><text font-family="monospace" font-size="2" stroke-width="0.1" text-anchor="middle" x="54.499604967" y="111.192516967">J6</text><line stroke-linecap="round" stroke-width="0.5" x1="39.7552" x2="69.244" y1="54.0567" y2="54.0567" /><line stroke-linecap="round" stroke-width="0.5" x1="69.244" x2="69.244" y1="54.0567" y2="62.0291" /><line stroke-linecap="round" stroke-width="0.5" x1="69.244" x2="39.7552" y1="62.0291" y2="62.0291" /><line stroke-linecap="round" stroke-width="0.5" x1="39.7552" x2="39.7552" y1="62.0291" y2="54.0567" /><text font-family="monospace" font-size="2" stroke-width="0.1" text-anchor="middle" x="54.499604967" y="58.042911967">J3</text><line stroke-linecap="round" stroke-width="0.5" x1="87.2752" x2="117.3933" y1="35.0114" y2="35.0114" /><line stroke-linecap="round" stroke-width="0.5" x1="117.3933" x2="117.3933" y1="35.0114" y2="134.224" /><line stroke-linecap="round" stroke-width="0.5" x1="117.3933" x2="87.2752" y1="134.224" y2="134.224" /><line stroke-linecap="round" stroke-width="0.5" x1="87.2752" x2="87.2752" y1="134.224" y2="35.0114" /><text font-family="monospace" font-size="2" stroke-width="0.1" text-anchor="middle" x="102.334249467" y="84.617714467">J1</text></g><g fill="blue" id="bottom_parts" stroke="blue"><line stroke-linecap="round" stroke-width="0.5" x1="117.8881" x2="132.8434" y1="116.2417" y2="116.2417" /><line stroke-linecap="round" stroke-width="0.5" x1="132.8434" x2="132.8434" y1="116.2417" y2="109.6866" /><line stroke-linecap="round" stroke-width="0.5" x1="132.8434" x2="117.8881" y1="109.6866" y2="109.6866" /><line stroke-linecap="round" stroke-width="0.5" x1="117.8881" x2="117.8881" y1="109.6866" y2="116.2417" /><text font-family="monospace" font-size="2" stroke-width="0.1" text-anchor="middle" x="125.365744967" y="112.964170467">R3</text><line stroke-linecap="round" stroke-width="0.5" x1="117.8881" x2="132.8434" y1="87.8953" y2="87.8953" /><line stroke-linecap="round" stroke-width="0.5" x1="132.8434" x2="132.8434" y1="87.8953" y2="81.3402" /><line stroke-linecap="round" stroke-width="0.5" x1="132.8434" x2="117.8881" y1="81.3402" y2="81.3402" /><line stroke-linecap="round" stroke-width="0.5" x1="117.8881" x2="117.8881" y1="81.3402" y2="87.8953" /><text font-family="monospace" font-size="2" stroke-width="0.1" text-anchor="middle" x="125.365744967" y="84.617714467">R2</text><line stroke-linecap="round" stroke-width="0.5" x1="117.8881" x2="132.8434" y1="59.5488" y2="59.5488" /><line stroke-linecap="round" stroke-width="0.5" x1="132.8434" x2="132.8434" y1="59.5488" y2="52.9937" /><line stroke-linecap="round" stroke-width="0.5" x1="132.8434" x2="117.8881" y1="52.9937" y2="52.9937" /><line stroke-linecap="round" stroke-width="0.5" x1="117.8881" x2="117.8881" y1="52.9937" y2="59.5488" /><text font-family="monospace" font-size="2" stroke-width="0.1" text-anchor="middle" x="125.365744967" y="56.271258467">R1</text></g></svg>