<?xml version="1.0" encoding="utf-8" ?>
<svg baseProfile="tiny" height="204.838578" version="1.2" width="264.5669245" xmlns="http://www.w3.org/2000/svg" xmlns:ev="http://www.w3.org/2001/xml-events" xmlns:xlink="http://www.w3.org/1999/xlink"><defs /><g id="paths" stroke="blue"><path d="M 12.4015745,173.622043 L 171.8503895,173.622043 L 171.8503895,14.173228 L 12.4015745,14.173228 L 12.4015745,173.622043 Z" fill-opacity="0" stroke-linejoin="round" stroke-width="1.0" /></g><g fill="red" id="holes"><circle cx="105.3425" cy="62.3976" r="2.3917" stroke-width="0.0" /><circle cx="105.3425" cy="71.3976" r="2.3917" stroke-width="0.0" /><circle cx="105.3425" cy="80.3976" r="2.3917" stroke-width="0.0" /><circle cx="105.3425" cy="89.3976" r="2.3917" stroke-width="0.0" /><circle cx="105.3425" cy="98.3976" r="2.3917" stroke-width="0.0" /><circle cx="105.3425" cy="107.3976" r="2.3917" stroke-width="0.0" /><circle cx="105.3425" cy="116.3976" r="2.3917" stroke-width="0.0" /><circle cx="105.3425" cy="125.3976" r="2.3917" stroke-width="0.0" /><circle cx="114.3425" cy="62.3976" r="2.3917" stroke-width="0.0" /><circle cx="114.3425" cy="71.3976" r="2.3917" stroke-width="0.0" /><circle cx="114.3425" cy="80.3976" r="2.3917" stroke-width="0.0" /><circle cx="114.3425" cy="89.3976" r="2.3917" stroke-width="0.0" /><circle cx="114.3425" cy="98.3976" r="2.3917" stroke-width="0.0" /><circle cx="114.3425" cy="107.3976" r="2.3917" stroke-width="0.0" /><circle cx="114.3425" cy="116.3976" r="2.3917" stroke-width="0.0" /><circle cx="114.3425" cy="125.3976" r="2.3917" stroke-width="0.0" /><circle cx="53.0079" cy="85.0394" r="2.4803" stroke-width="0.0" /><circle cx="71.0079" cy="85.0394" r="2.4803" stroke-width="0.0" /><circle cx="155.0905" cy="65.5512" r="1.5945" stroke-width="0.0" /><circle cx="146.0905" cy="65.5512" r="1.5945" stroke-width="0.0" /><circle cx="154.1339" cy="31.8898" r="5.6693" stroke-width="0.0" /><circle cx="155.0905" cy="93.8976" r="1.5945" stroke-width="0.0" /><circle cx="146.0905" cy="93.8976" r="1.5945" stroke-width="0.0" /><circle cx="62.0079" cy="67.3228" r="2.3031" stroke-width="0.0" /><circle cx="62.0079" cy="85.0394" r="2.3031" stroke-width="0.0" /><circle cx="62.0079" cy="102.7559" r="2.3031" stroke-width="0.0" /><circle cx="62.0079" cy="120.4724" r="2.3031" stroke-width="0.0" /><circle cx="30.1181" cy="31.8898" r="5.6693" stroke-width="0.0" /><circle cx="30.1181" cy="155.9055" r="5.6693" stroke-width="0.0" /><circle cx="154.1339" cy="155.9055" r="5.6693" stroke-width="0.0" /><circle cx="155.0905" cy="122.2441" r="1.5945" stroke-width="0.0" /><circle cx="146.0905" cy="122.2441" r="1.5945" stroke-width="0.0" /><circle cx="53.0079" cy="67.3228" r="2.4803" stroke-width="0.0" /><circle cx="71.0079" cy="67.3228" r="2.4803" stroke-width="0.0" /><circle cx="53.0079" cy="102.7559" r="2.4803" stroke-width="0.0" /><circle cx="71.0079" cy="102.7559" r="2.4803" stroke-width="0.0" /><circle cx="53.0079" cy="120.4724" r="2.4803" stroke-width="0.0" /><circle cx="71.0079" cy="120.4724" r="2.4803" stroke-width="0.0" /></g><g id="rulers" stroke="black"><line stroke-width="1.0" x1="30.1181" x2="154.1339" y1="191.3386" y2="191.3386" /><text font-family="monospace" font-size="5" stroke-width="0.3" x="92.125982" y="196.338578">35.0000mm</text><text font-family="monospace" font-size="5" stroke-width="0.3" x="92.125982" y="202.338578">(Δx=35.0000mm)</text><line stroke-width="1.0" x1="171.8504" x2="12.4016" y1="3.5433" y2="3.5433" /><text font-family="monospace" font-size="5" stroke-width="0.3" x="92.125982" y="-1.456693">45.0000mm</text><text font-family="monospace" font-size="5" stroke-width="0.3" x="92.125982" y="4.543307">(Δx=45.0000mm)</text><line stroke-width="1.0" x1="154.1339" x2="171.8504" y1="182.4803" y2="182.4803" /><text font-family="monospace" font-size="5" stroke-width="0.3" x="162.992122" y="187.4803105">5.0000mm</text><text font-family="monospace" font-size="5" stroke-width="0.3" x="162.992122" y="193.4803105">(Δx=5.0000mm)</text><line stroke-width="1.0" x1="189.5669" x2="189.5669" y1="155.9055" y2="31.8898" /><text font-family="monospace" font-size="5" stroke-width="0.3" x="194.5669245" y="93.8976355">35.0000mm</text><text font-family="monospace" font-size="5" stroke-width="0.3" x="194.5669245" y="99.8976355">(Δy=35.0000mm)</text><line stroke-width="1.0" x1="3.5433" x2="3.5433" y1="14.1732" y2="173.622" /><text font-family="monospace" font-size="5" stroke-width="0.3" x="8.543307" y="93.8976355">45.0000mm</text><text font-family="monospace" font-size="5" stroke-width="0.3" x="8.543307" y="99.8976355">(Δy=45.0000mm)</text><line stroke-width="1.0" x1="180.7087" x2="180.7087" y1="173.622" y2="155.9055" /><text font-family="monospace" font-size="5" stroke-width="0.3" x="185.708657" y="164.7637755">5.0000mm</text><text font-family="monospace" font-size="5" stroke-width="0.3" x="185.708657" y="170.7637755">(Δy=5.0000mm)</text></g></svg>