<?xml version='1.0' encoding='UTF-8' standalone='no'?>
<svg xmlns="http://www.w3.org/2000/svg" width="1413" height="447" x="0" y="0"><text x="1011" y="237" font-size="10" font-family="sans-serif" text-anchor="start" alignment-baseline="hanging">3mm LED (through hole)</text><text x="471" y="133" font-size="10" font-family="sans-serif" text-anchor="start" alignment-baseline="hanging">-12V</text><text x="101" y="97" font-size="10" font-family="sans serif" text-anchor="start" alignment-baseline="hanging">J1</text><text x="667" y="189" font-size="10" font-family="sans-serif" text-anchor="start" alignment-baseline="hanging">1217861-1</text><text x="1281" y="187" font-size="10" font-family="sans-serif" text-anchor="start" alignment-baseline="hanging">M2</text><text x="230" y="262" font-size="10" font-family="sans-serif" text-anchor="start" alignment-baseline="hanging">+12V</text><text x="667" y="389" font-size="10" font-family="sans-serif" text-anchor="start" alignment-baseline="hanging">1217861-1</text><text x="781" y="73" font-size="10" font-family="sans-serif" text-anchor="start" alignment-baseline="hanging">-12V</text><text x="1281" y="97" font-size="10" font-family="sans-serif" text-anchor="start" alignment-baseline="hanging">M1</text><text x="1131" y="427" font-size="10" font-family="sans-serif" text-anchor="start" alignment-baseline="hanging">GND</text><text x="780" y="272" font-size="10" font-family="sans-serif" text-anchor="start" alignment-baseline="hanging">+12V</text><text x="781" y="372" font-size="10" font-family="sans-serif" text-anchor="start" alignment-baseline="hanging">+5V</text><text x="902" y="222" font-size="10" font-family="sans-serif" text-anchor="end" alignment-baseline="hanging">+12V</text><text x="70" y="48" font-size="10" font-family="sans-serif" text-anchor="start" alignment-baseline="hanging">Eurorack power header</text><text x="971" y="227" font-size="10" font-family="sans-serif" text-anchor="start" alignment-baseline="hanging">R2</text><text x="971" y="237" font-size="10" font-family="sans-serif" text-anchor="start" alignment-baseline="hanging">5K</text><text x="659" y="17" font-size="10" font-family="sans-serif" text-anchor="start" alignment-baseline="hanging">Quick connect lugs</text><text x="1011" y="367" font-size="10" font-family="sans-serif" text-anchor="start" alignment-baseline="hanging">3mm LED (through hole)</text><text x="662" y="358" font-size="10" font-family="sans-serif" text-anchor="start" alignment-baseline="hanging">J6</text><text x="1381" y="417" font-size="10" font-family="sans-serif" text-anchor="start" alignment-baseline="hanging">GND</text><text x="11" y="77" font-size="10" font-family="sans-serif" text-anchor="start" alignment-baseline="hanging">-12V</text><text x="1040" y="306" font-size="10" font-family="sans-serif" text-anchor="start" alignment-baseline="hanging">D3</text><text x="971" y="367" font-size="10" font-family="sans-serif" text-anchor="start" alignment-baseline="hanging">5K</text><text x="1281" y="277" font-size="10" font-family="sans-serif" text-anchor="start" alignment-baseline="hanging">M3</text><text x="1296" y="10" font-size="10" font-family="sans-serif" text-anchor="start" alignment-baseline="hanging">Mounting holes</text><text x="344" y="47" font-size="10" font-family="sans-serif" text-anchor="start" alignment-baseline="hanging">Screw terminals</text><text x="901" y="352" font-size="10" font-family="sans-serif" text-anchor="end" alignment-baseline="hanging">+5V</text><text x="667" y="89" font-size="10" font-family="sans-serif" text-anchor="start" alignment-baseline="hanging">1217861-1</text><text x="473" y="152" font-size="10" font-family="sans-serif" text-anchor="start" alignment-baseline="hanging">GND</text><text x="971" y="97" font-size="10" font-family="sans-serif" text-anchor="start" alignment-baseline="hanging">5K</text><text x="995" y="15" font-size="10" font-family="sans-serif" text-anchor="start" alignment-baseline="hanging">Power status LEDs</text><text x="599" y="182" font-size="10" font-family="sans-serif" text-anchor="end" alignment-baseline="hanging">GND</text><text x="901" y="81" font-size="10" font-family="sans-serif" text-anchor="end" alignment-baseline="hanging">-12V</text><text x="662" y="258" font-size="10" font-family="sans-serif" text-anchor="start" alignment-baseline="hanging">J5</text><text x="971" y="357" font-size="10" font-family="sans-serif" text-anchor="start" alignment-baseline="hanging">R3</text><text x="662" y="158" font-size="10" font-family="sans-serif" text-anchor="start" alignment-baseline="hanging">J4</text><text x="667" y="289" font-size="10" font-family="sans-serif" text-anchor="start" alignment-baseline="hanging">1217861-1</text><text x="1121" y="117" font-size="10" font-family="sans-serif" text-anchor="end" alignment-baseline="hanging">3mm LED (through hole)</text><text x="11" y="357" font-size="10" font-family="sans-serif" text-anchor="start" alignment-baseline="hanging">GND</text><text x="601" y="382" font-size="10" font-family="sans-serif" text-anchor="end" alignment-baseline="hanging">+5V</text><text x="1052" y="58" font-size="10" font-family="sans-serif" text-anchor="end" alignment-baseline="hanging">D1</text><text x="381" y="107" font-size="10" font-family="sans-serif" text-anchor="start" alignment-baseline="hanging">J2</text><text x="783" y="172" font-size="10" font-family="sans-serif" text-anchor="start" alignment-baseline="hanging">GND</text><text x="230" y="222" font-size="10" font-family="sans-serif" text-anchor="start" alignment-baseline="hanging">+5V</text><text x="971" y="87" font-size="10" font-family="sans-serif" text-anchor="start" alignment-baseline="hanging">R1</text><text x="1281" y="367" font-size="10" font-family="sans-serif" text-anchor="start" alignment-baseline="hanging">M4</text><text x="471" y="192" font-size="10" font-family="sans-serif" text-anchor="start" alignment-baseline="hanging">+5V</text><text x="602" y="282" font-size="10" font-family="sans-serif" text-anchor="end" alignment-baseline="hanging">+12V</text><text x="36" y="307" font-size="10" font-family="sans serif" text-anchor="start" alignment-baseline="hanging">Eurorack power connector - 16 pin</text><text x="470" y="172" font-size="10" font-family="sans-serif" text-anchor="start" alignment-baseline="hanging">+12V</text><text x="662" y="58" font-size="10" font-family="sans-serif" text-anchor="start" alignment-baseline="hanging">J3</text><text x="601" y="73" font-size="10" font-family="sans-serif" text-anchor="start" alignment-baseline="hanging">-12V</text><text x="1040" y="176" font-size="10" font-family="sans-serif" text-anchor="start" alignment-baseline="hanging">D2</text><line x1="441" y1="137" x2="461" y2="137" stroke-width="2" stroke="black"></line><line x1="461" y1="137" x2="454" y2="130" stroke-width="2" stroke="black"></line><line x1="461" y1="137" x2="454" y2="144" stroke-width="2" stroke="black"></line><rect width="20" height="20" x="681" y="367" style="stroke: #000; stroke-width: 1; fill: none;"></rect><line x1="671" y1="377" x2="681" y2="377" stroke-width="2" stroke="black"></line><text x="683" y="377" font-size="10" font-family="sans-serif" text-anchor="start" alignment-baseline="middle">1</text><line x1="711" y1="377" x2="701" y2="377" stroke-width="2" stroke="black"></line><text x="699" y="377" font-size="10" font-family="sans-serif" text-anchor="end" alignment-baseline="middle">2</text><line x1="971" y1="217" x2="974" y2="212" stroke-width="2" stroke="black"></line><line x1="974" y1="212" x2="979" y2="222" stroke-width="2" stroke="black"></line><line x1="979" y1="222" x2="984" y2="212" stroke-width="2" stroke="black"></line><line x1="984" y1="212" x2="989" y2="222" stroke-width="2" stroke="black"></line><line x1="989" y1="222" x2="994" y2="212" stroke-width="2" stroke="black"></line><line x1="994" y1="212" x2="999" y2="222" stroke-width="2" stroke="black"></line><line x1="999" y1="222" x2="1001" y2="217" stroke-width="2" stroke="black"></line><line x1="961" y1="217" x2="971" y2="217" stroke-width="2" stroke="black"></line><line x1="1001" y1="217" x2="1011" y2="217" stroke-width="2" stroke="black"></line><line x1="931" y1="77" x2="911" y2="77" stroke-width="2" stroke="black"></line><line x1="911" y1="77" x2="918" y2="84" stroke-width="2" stroke="black"></line><line x1="911" y1="77" x2="918" y2="70" stroke-width="2" stroke="black"></line><line x1="21" y1="327" x2="21" y2="337" stroke-width="2" stroke="black"></line><line x1="11" y1="337" x2="31" y2="337" stroke-width="2" stroke="black"></line><line x1="14" y1="342" x2="28" y2="342" stroke-width="2" stroke="black"></line><line x1="17" y1="347" x2="25" y2="347" stroke-width="2" stroke="black"></line><rect width="20" height="20" x="681" y="267" style="stroke: #000; stroke-width: 1; fill: none;"></rect><line x1="671" y1="277" x2="681" y2="277" stroke-width="2" stroke="black"></line><text x="683" y="277" font-size="10" font-family="sans-serif" text-anchor="start" alignment-baseline="middle">1</text><line x1="711" y1="277" x2="701" y2="277" stroke-width="2" stroke="black"></line><text x="699" y="277" font-size="10" font-family="sans-serif" text-anchor="end" alignment-baseline="middle">2</text><line x1="201" y1="227" x2="221" y2="227" stroke-width="2" stroke="black"></line><line x1="221" y1="227" x2="214" y2="220" stroke-width="2" stroke="black"></line><line x1="221" y1="227" x2="214" y2="234" stroke-width="2" stroke="black"></line><line x1="178" y1="174" x2="184" y2="180" stroke-width="2" stroke="black"></line><line x1="178" y1="180" x2="184" y2="174" stroke-width="2" stroke="black"></line><line x1="1051" y1="207" x2="1051" y2="227" stroke-width="2" stroke="black"></line><line x1="1071" y1="207" x2="1071" y2="227" stroke-width="2" stroke="black"></line><line x1="1051" y1="207" x2="1071" y2="217" stroke-width="2" stroke="black"></line><line x1="1051" y1="227" x2="1071" y2="217" stroke-width="2" stroke="black"></line><line x1="1055" y1="206" x2="1065" y2="196" stroke-width="2" stroke="black"></line><line x1="1065" y1="196" x2="1060" y2="196" stroke-width="2" stroke="black"></line><line x1="1065" y1="196" x2="1065" y2="201" stroke-width="2" stroke="black"></line><line x1="1065" y1="206" x2="1075" y2="196" stroke-width="2" stroke="black"></line><line x1="1075" y1="196" x2="1070" y2="196" stroke-width="2" stroke="black"></line><line x1="1075" y1="196" x2="1075" y2="201" stroke-width="2" stroke="black"></line><line x1="1041" y1="217" x2="1051" y2="217" stroke-width="2" stroke="black"></line><line x1="1071" y1="217" x2="1081" y2="217" stroke-width="2" stroke="black"></line><rect width="60" height="100" x="341" y="117" style="stroke: #000; stroke-width: 1; fill: none;"></rect><circle cx="391" cy="137" r="3" style="stroke: #000; stroke-width: 1; fill: none;"></circle><line x1="394" y1="137" x2="401" y2="137" stroke-width="2" stroke="black"></line><circle cx="391" cy="157" r="3" style="stroke: #000; stroke-width: 1; fill: none;"></circle><line x1="394" y1="157" x2="401" y2="157" stroke-width="2" stroke="black"></line><circle cx="391" cy="177" r="3" style="stroke: #000; stroke-width: 1; fill: none;"></circle><line x1="394" y1="177" x2="401" y2="177" stroke-width="2" stroke="black"></line><circle cx="391" cy="197" r="3" style="stroke: #000; stroke-width: 1; fill: none;"></circle><line x1="394" y1="197" x2="401" y2="197" stroke-width="2" stroke="black"></line><line x1="411" y1="137" x2="401" y2="137" stroke-width="2" stroke="black"></line><line x1="411" y1="157" x2="401" y2="157" stroke-width="2" stroke="black"></line><line x1="411" y1="177" x2="401" y2="177" stroke-width="2" stroke="black"></line><line x1="411" y1="197" x2="401" y2="197" stroke-width="2" stroke="black"></line><text x="379" y="137" font-size="10" font-family="sans-serif" text-anchor="end" alignment-baseline="middle">-12V</text><text x="379" y="157" font-size="10" font-family="sans-serif" text-anchor="end" alignment-baseline="middle">GND</text><text x="379" y="177" font-size="10" font-family="sans-serif" text-anchor="end" alignment-baseline="middle">+12V</text><text x="379" y="197" font-size="10" font-family="sans-serif" text-anchor="end" alignment-baseline="middle">+5V</text><line x1="751" y1="277" x2="771" y2="277" stroke-width="2" stroke="black"></line><line x1="771" y1="277" x2="764" y2="270" stroke-width="2" stroke="black"></line><line x1="771" y1="277" x2="764" y2="284" stroke-width="2" stroke="black"></line><line x1="1391" y1="387" x2="1391" y2="397" stroke-width="2" stroke="black"></line><line x1="1381" y1="397" x2="1401" y2="397" stroke-width="2" stroke="black"></line><line x1="1384" y1="402" x2="1398" y2="402" stroke-width="2" stroke="black"></line><line x1="1387" y1="407" x2="1395" y2="407" stroke-width="2" stroke="black"></line><line x1="21" y1="107" x2="21" y2="87" stroke-width="2" stroke="black"></line><line x1="21" y1="87" x2="14" y2="94" stroke-width="2" stroke="black"></line><line x1="21" y1="87" x2="28" y2="94" stroke-width="2" stroke="black"></line><line x1="201" y1="267" x2="221" y2="267" stroke-width="2" stroke="black"></line><line x1="221" y1="267" x2="214" y2="260" stroke-width="2" stroke="black"></line><line x1="221" y1="267" x2="214" y2="274" stroke-width="2" stroke="black"></line><line x1="178" y1="134" x2="184" y2="140" stroke-width="2" stroke="black"></line><line x1="178" y1="140" x2="184" y2="134" stroke-width="2" stroke="black"></line><line x1="971" y1="347" x2="974" y2="342" stroke-width="2" stroke="black"></line><line x1="974" y1="342" x2="979" y2="352" stroke-width="2" stroke="black"></line><line x1="979" y1="352" x2="984" y2="342" stroke-width="2" stroke="black"></line><line x1="984" y1="342" x2="989" y2="352" stroke-width="2" stroke="black"></line><line x1="989" y1="352" x2="994" y2="342" stroke-width="2" stroke="black"></line><line x1="994" y1="342" x2="999" y2="352" stroke-width="2" stroke="black"></line><line x1="999" y1="352" x2="1001" y2="347" stroke-width="2" stroke="black"></line><line x1="961" y1="347" x2="971" y2="347" stroke-width="2" stroke="black"></line><line x1="1001" y1="347" x2="1011" y2="347" stroke-width="2" stroke="black"></line><line x1="631" y1="277" x2="611" y2="277" stroke-width="2" stroke="black"></line><line x1="611" y1="277" x2="618" y2="284" stroke-width="2" stroke="black"></line><line x1="611" y1="277" x2="618" y2="270" stroke-width="2" stroke="black"></line><rect width="20" height="20" x="681" y="167" style="stroke: #000; stroke-width: 1; fill: none;"></rect><line x1="671" y1="177" x2="681" y2="177" stroke-width="2" stroke="black"></line><text x="683" y="177" font-size="10" font-family="sans-serif" text-anchor="start" alignment-baseline="middle">1</text><line x1="711" y1="177" x2="701" y2="177" stroke-width="2" stroke="black"></line><text x="699" y="177" font-size="10" font-family="sans-serif" text-anchor="end" alignment-baseline="middle">2</text><line x1="178" y1="194" x2="184" y2="200" stroke-width="2" stroke="black"></line><line x1="178" y1="200" x2="184" y2="194" stroke-width="2" stroke="black"></line><line x1="631" y1="377" x2="611" y2="377" stroke-width="2" stroke="black"></line><line x1="611" y1="377" x2="618" y2="384" stroke-width="2" stroke="black"></line><line x1="611" y1="377" x2="618" y2="370" stroke-width="2" stroke="black"></line><circle cx="1311" cy="347" r="20" style="stroke: #000; stroke-width: 1; fill: none;"></circle><line x1="1341" y1="347" x2="1331" y2="347" stroke-width="2" stroke="black"></line><line x1="1051" y1="337" x2="1051" y2="357" stroke-width="2" stroke="black"></line><line x1="1071" y1="337" x2="1071" y2="357" stroke-width="2" stroke="black"></line><line x1="1051" y1="337" x2="1071" y2="347" stroke-width="2" stroke="black"></line><line x1="1051" y1="357" x2="1071" y2="347" stroke-width="2" stroke="black"></line><line x1="1055" y1="336" x2="1065" y2="326" stroke-width="2" stroke="black"></line><line x1="1065" y1="326" x2="1060" y2="326" stroke-width="2" stroke="black"></line><line x1="1065" y1="326" x2="1065" y2="331" stroke-width="2" stroke="black"></line><line x1="1065" y1="336" x2="1075" y2="326" stroke-width="2" stroke="black"></line><line x1="1075" y1="326" x2="1070" y2="326" stroke-width="2" stroke="black"></line><line x1="1075" y1="326" x2="1075" y2="331" stroke-width="2" stroke="black"></line><line x1="1041" y1="347" x2="1051" y2="347" stroke-width="2" stroke="black"></line><line x1="1071" y1="347" x2="1081" y2="347" stroke-width="2" stroke="black"></line><line x1="751" y1="77" x2="771" y2="77" stroke-width="2" stroke="black"></line><line x1="771" y1="77" x2="764" y2="70" stroke-width="2" stroke="black"></line><line x1="771" y1="77" x2="764" y2="84" stroke-width="2" stroke="black"></line><rect width="20" height="20" x="681" y="67" style="stroke: #000; stroke-width: 1; fill: none;"></rect><line x1="671" y1="77" x2="681" y2="77" stroke-width="2" stroke="black"></line><text x="683" y="77" font-size="10" font-family="sans-serif" text-anchor="start" alignment-baseline="middle">1</text><line x1="711" y1="77" x2="701" y2="77" stroke-width="2" stroke="black"></line><text x="699" y="77" font-size="10" font-family="sans-serif" text-anchor="end" alignment-baseline="middle">2</text><circle cx="1311" cy="167" r="20" style="stroke: #000; stroke-width: 1; fill: none;"></circle><line x1="1341" y1="167" x2="1331" y2="167" stroke-width="2" stroke="black"></line><line x1="751" y1="177" x2="761" y2="177" stroke-width="2" stroke="black"></line><line x1="761" y1="187" x2="761" y2="167" stroke-width="2" stroke="black"></line><line x1="766" y1="184" x2="766" y2="170" stroke-width="2" stroke="black"></line><line x1="771" y1="181" x2="771" y2="173" stroke-width="2" stroke="black"></line><line x1="631" y1="77" x2="611" y2="77" stroke-width="2" stroke="black"></line><line x1="611" y1="77" x2="618" y2="70" stroke-width="2" stroke="black"></line><line x1="611" y1="77" x2="618" y2="84" stroke-width="2" stroke="black"></line><line x1="1141" y1="397" x2="1141" y2="407" stroke-width="2" stroke="black"></line><line x1="1131" y1="407" x2="1151" y2="407" stroke-width="2" stroke="black"></line><line x1="1134" y1="412" x2="1148" y2="412" stroke-width="2" stroke="black"></line><line x1="1137" y1="417" x2="1145" y2="417" stroke-width="2" stroke="black"></line><rect width="70" height="170" x="76" y="122" style="stroke: #000; stroke-width: 1; fill: none;"></rect><line x1="146" y1="137" x2="151" y2="137" stroke-width="2" stroke="black"></line><line x1="146" y1="157" x2="151" y2="157" stroke-width="2" stroke="black"></line><line x1="146" y1="177" x2="151" y2="177" stroke-width="2" stroke="black"></line><line x1="146" y1="197" x2="151" y2="197" stroke-width="2" stroke="black"></line><line x1="146" y1="217" x2="151" y2="217" stroke-width="2" stroke="black"></line><line x1="146" y1="237" x2="151" y2="237" stroke-width="2" stroke="black"></line><line x1="146" y1="257" x2="151" y2="257" stroke-width="2" stroke="black"></line><line x1="146" y1="277" x2="151" y2="277" stroke-width="2" stroke="black"></line><line x1="71" y1="137" x2="76" y2="137" stroke-width="2" stroke="black"></line><line x1="71" y1="157" x2="76" y2="157" stroke-width="2" stroke="black"></line><line x1="71" y1="177" x2="76" y2="177" stroke-width="2" stroke="black"></line><line x1="71" y1="197" x2="76" y2="197" stroke-width="2" stroke="black"></line><line x1="71" y1="217" x2="76" y2="217" stroke-width="2" stroke="black"></line><line x1="71" y1="237" x2="76" y2="237" stroke-width="2" stroke="black"></line><line x1="71" y1="257" x2="76" y2="257" stroke-width="2" stroke="black"></line><line x1="71" y1="277" x2="76" y2="277" stroke-width="2" stroke="black"></line><text x="83" y="137" font-size="10" font-family="sans-serif" text-anchor="start" alignment-baseline="middle">-12v</text><text x="83" y="157" font-size="10" font-family="sans-serif" text-anchor="start" alignment-baseline="middle">-12v</text><text x="83" y="177" font-size="10" font-family="sans-serif" text-anchor="start" alignment-baseline="middle">GND</text><text x="83" y="197" font-size="10" font-family="sans-serif" text-anchor="start" alignment-baseline="middle">GND</text><text x="83" y="217" font-size="10" font-family="sans-serif" text-anchor="start" alignment-baseline="middle">GND</text><text x="83" y="237" font-size="10" font-family="sans-serif" text-anchor="start" alignment-baseline="middle">GND</text><text x="83" y="257" font-size="10" font-family="sans-serif" text-anchor="start" alignment-baseline="middle">GND</text><text x="83" y="277" font-size="10" font-family="sans-serif" text-anchor="start" alignment-baseline="middle">GND</text><text x="139" y="277" font-size="10" font-family="sans-serif" text-anchor="end" alignment-baseline="middle">+12v</text><text x="139" y="257" font-size="10" font-family="sans-serif" text-anchor="end" alignment-baseline="middle">+12v</text><text x="139" y="237" font-size="10" font-family="sans-serif" text-anchor="end" alignment-baseline="middle">+5v</text><text x="139" y="217" font-size="10" font-family="sans-serif" text-anchor="end" alignment-baseline="middle">+5v</text><text x="139" y="197" font-size="10" font-family="sans-serif" text-anchor="end" alignment-baseline="middle">CV</text><text x="139" y="177" font-size="10" font-family="sans-serif" text-anchor="end" alignment-baseline="middle">CV</text><text x="139" y="157" font-size="10" font-family="sans-serif" text-anchor="end" alignment-baseline="middle">Gate</text><text x="139" y="137" font-size="10" font-family="sans-serif" text-anchor="end" alignment-baseline="middle">Gate</text><line x1="931" y1="217" x2="911" y2="217" stroke-width="2" stroke="black"></line><line x1="911" y1="217" x2="918" y2="224" stroke-width="2" stroke="black"></line><line x1="911" y1="217" x2="918" y2="210" stroke-width="2" stroke="black"></line><line x1="1071" y1="87" x2="1071" y2="67" stroke-width="2" stroke="black"></line><line x1="1051" y1="87" x2="1051" y2="67" stroke-width="2" stroke="black"></line><line x1="1071" y1="87" x2="1051" y2="77" stroke-width="2" stroke="black"></line><line x1="1071" y1="67" x2="1051" y2="77" stroke-width="2" stroke="black"></line><line x1="1067" y1="88" x2="1057" y2="98" stroke-width="2" stroke="black"></line><line x1="1057" y1="98" x2="1062" y2="98" stroke-width="2" stroke="black"></line><line x1="1057" y1="98" x2="1057" y2="93" stroke-width="2" stroke="black"></line><line x1="1057" y1="88" x2="1047" y2="98" stroke-width="2" stroke="black"></line><line x1="1047" y1="98" x2="1052" y2="98" stroke-width="2" stroke="black"></line><line x1="1047" y1="98" x2="1047" y2="93" stroke-width="2" stroke="black"></line><line x1="1081" y1="77" x2="1071" y2="77" stroke-width="2" stroke="black"></line><line x1="1051" y1="77" x2="1041" y2="77" stroke-width="2" stroke="black"></line><line x1="931" y1="347" x2="911" y2="347" stroke-width="2" stroke="black"></line><line x1="911" y1="347" x2="918" y2="354" stroke-width="2" stroke="black"></line><line x1="911" y1="347" x2="918" y2="340" stroke-width="2" stroke="black"></line><line x1="441" y1="197" x2="461" y2="197" stroke-width="2" stroke="black"></line><line x1="461" y1="197" x2="454" y2="190" stroke-width="2" stroke="black"></line><line x1="461" y1="197" x2="454" y2="204" stroke-width="2" stroke="black"></line><line x1="751" y1="377" x2="771" y2="377" stroke-width="2" stroke="black"></line><line x1="771" y1="377" x2="764" y2="370" stroke-width="2" stroke="black"></line><line x1="771" y1="377" x2="764" y2="384" stroke-width="2" stroke="black"></line><line x1="178" y1="154" x2="184" y2="160" stroke-width="2" stroke="black"></line><line x1="178" y1="160" x2="184" y2="154" stroke-width="2" stroke="black"></line><line x1="441" y1="177" x2="461" y2="177" stroke-width="2" stroke="black"></line><line x1="461" y1="177" x2="454" y2="170" stroke-width="2" stroke="black"></line><line x1="461" y1="177" x2="454" y2="184" stroke-width="2" stroke="black"></line><line x1="631" y1="177" x2="621" y2="177" stroke-width="2" stroke="black"></line><line x1="621" y1="167" x2="621" y2="187" stroke-width="2" stroke="black"></line><line x1="616" y1="170" x2="616" y2="184" stroke-width="2" stroke="black"></line><line x1="611" y1="173" x2="611" y2="181" stroke-width="2" stroke="black"></line><line x1="441" y1="157" x2="451" y2="157" stroke-width="2" stroke="black"></line><line x1="451" y1="167" x2="451" y2="147" stroke-width="2" stroke="black"></line><line x1="456" y1="164" x2="456" y2="150" stroke-width="2" stroke="black"></line><line x1="461" y1="161" x2="461" y2="153" stroke-width="2" stroke="black"></line><circle cx="1311" cy="257" r="20" style="stroke: #000; stroke-width: 1; fill: none;"></circle><line x1="1341" y1="257" x2="1331" y2="257" stroke-width="2" stroke="black"></line><line x1="971" y1="77" x2="974" y2="72" stroke-width="2" stroke="black"></line><line x1="974" y1="72" x2="979" y2="82" stroke-width="2" stroke="black"></line><line x1="979" y1="82" x2="984" y2="72" stroke-width="2" stroke="black"></line><line x1="984" y1="72" x2="989" y2="82" stroke-width="2" stroke="black"></line><line x1="989" y1="82" x2="994" y2="72" stroke-width="2" stroke="black"></line><line x1="994" y1="72" x2="999" y2="82" stroke-width="2" stroke="black"></line><line x1="999" y1="82" x2="1001" y2="77" stroke-width="2" stroke="black"></line><line x1="961" y1="77" x2="971" y2="77" stroke-width="2" stroke="black"></line><line x1="1001" y1="77" x2="1011" y2="77" stroke-width="2" stroke="black"></line><circle cx="1311" cy="77" r="20" style="stroke: #000; stroke-width: 1; fill: none;"></circle><line x1="1341" y1="77" x2="1331" y2="77" stroke-width="2" stroke="black"></line><circle cx="1391" cy="347" r="2" style="stroke: #000; stroke-width: 1; fill: none;"></circle><circle cx="21" cy="257" r="2" style="stroke: #000; stroke-width: 1; fill: none;"></circle><circle cx="1391" cy="257" r="2" style="stroke: #000; stroke-width: 1; fill: none;"></circle><circle cx="181" cy="227" r="2" style="stroke: #000; stroke-width: 1; fill: none;"></circle><circle cx="1141" cy="217" r="2" style="stroke: #000; stroke-width: 1; fill: none;"></circle><circle cx="181" cy="267" r="2" style="stroke: #000; stroke-width: 1; fill: none;"></circle><circle cx="21" cy="237" r="2" style="stroke: #000; stroke-width: 1; fill: none;"></circle><circle cx="21" cy="217" r="2" style="stroke: #000; stroke-width: 1; fill: none;"></circle><circle cx="21" cy="277" r="2" style="stroke: #000; stroke-width: 1; fill: none;"></circle><circle cx="1391" cy="167" r="2" style="stroke: #000; stroke-width: 1; fill: none;"></circle><circle cx="1141" cy="347" r="2" style="stroke: #000; stroke-width: 1; fill: none;"></circle><circle cx="21" cy="137" r="2" style="stroke: #000; stroke-width: 1; fill: none;"></circle><circle cx="21" cy="197" r="2" style="stroke: #000; stroke-width: 1; fill: none;"></circle><line x1="411" y1="157" x2="441" y2="157" stroke-width="2" stroke="black"></line><line x1="751" y1="77" x2="731" y2="77" stroke-width="2" stroke="black"></line><line x1="631" y1="77" x2="651" y2="77" stroke-width="2" stroke="black"></line><line x1="1391" y1="257" x2="1341" y2="257" stroke-width="2" stroke="black"></line><line x1="1391" y1="257" x2="1391" y2="347" stroke-width="2" stroke="black"></line><line x1="161" y1="157" x2="181" y2="157" stroke-width="2" stroke="black"></line><line x1="161" y1="157" x2="151" y2="157" stroke-width="2" stroke="black"></line><line x1="961" y1="347" x2="931" y2="347" stroke-width="2" stroke="black"></line><line x1="181" y1="227" x2="181" y2="217" stroke-width="2" stroke="black"></line><line x1="181" y1="227" x2="181" y2="237" stroke-width="2" stroke="black"></line><line x1="711" y1="77" x2="731" y2="77" stroke-width="2" stroke="black"></line><line x1="731" y1="177" x2="751" y2="177" stroke-width="2" stroke="black"></line><line x1="631" y1="277" x2="651" y2="277" stroke-width="2" stroke="black"></line><line x1="181" y1="257" x2="151" y2="257" stroke-width="2" stroke="black"></line><line x1="711" y1="377" x2="731" y2="377" stroke-width="2" stroke="black"></line><line x1="1141" y1="217" x2="1081" y2="217" stroke-width="2" stroke="black"></line><line x1="1141" y1="217" x2="1141" y2="77" stroke-width="2" stroke="black"></line><line x1="151" y1="237" x2="181" y2="237" stroke-width="2" stroke="black"></line><line x1="201" y1="227" x2="181" y2="227" stroke-width="2" stroke="black"></line><line x1="181" y1="267" x2="201" y2="267" stroke-width="2" stroke="black"></line><line x1="181" y1="267" x2="181" y2="257" stroke-width="2" stroke="black"></line><line x1="21" y1="237" x2="21" y2="257" stroke-width="2" stroke="black"></line><line x1="21" y1="217" x2="71" y2="217" stroke-width="2" stroke="black"></line><line x1="21" y1="217" x2="21" y2="237" stroke-width="2" stroke="black"></line><line x1="671" y1="277" x2="651" y2="277" stroke-width="2" stroke="black"></line><line x1="161" y1="137" x2="181" y2="137" stroke-width="2" stroke="black"></line><line x1="161" y1="137" x2="151" y2="137" stroke-width="2" stroke="black"></line><line x1="1011" y1="77" x2="1021" y2="77" stroke-width="2" stroke="black"></line><line x1="941" y1="217" x2="931" y2="217" stroke-width="2" stroke="black"></line><line x1="941" y1="217" x2="961" y2="217" stroke-width="2" stroke="black"></line><line x1="1391" y1="387" x2="1391" y2="347" stroke-width="2" stroke="black"></line><line x1="671" y1="77" x2="651" y2="77" stroke-width="2" stroke="black"></line><line x1="441" y1="137" x2="411" y2="137" stroke-width="2" stroke="black"></line><line x1="751" y1="277" x2="731" y2="277" stroke-width="2" stroke="black"></line><line x1="1081" y1="77" x2="1141" y2="77" stroke-width="2" stroke="black"></line><line x1="181" y1="197" x2="161" y2="197" stroke-width="2" stroke="black"></line><line x1="711" y1="177" x2="731" y2="177" stroke-width="2" stroke="black"></line><line x1="181" y1="277" x2="181" y2="267" stroke-width="2" stroke="black"></line><line x1="21" y1="277" x2="21" y2="257" stroke-width="2" stroke="black"></line><line x1="71" y1="157" x2="21" y2="157" stroke-width="2" stroke="black"></line><line x1="151" y1="277" x2="181" y2="277" stroke-width="2" stroke="black"></line><line x1="411" y1="177" x2="441" y2="177" stroke-width="2" stroke="black"></line><line x1="751" y1="377" x2="731" y2="377" stroke-width="2" stroke="black"></line><line x1="161" y1="177" x2="181" y2="177" stroke-width="2" stroke="black"></line><line x1="441" y1="197" x2="411" y2="197" stroke-width="2" stroke="black"></line><line x1="1391" y1="167" x2="1341" y2="167" stroke-width="2" stroke="black"></line><line x1="1391" y1="167" x2="1391" y2="257" stroke-width="2" stroke="black"></line><line x1="931" y1="77" x2="961" y2="77" stroke-width="2" stroke="black"></line><line x1="1391" y1="77" x2="1391" y2="167" stroke-width="2" stroke="black"></line><line x1="1021" y1="217" x2="1041" y2="217" stroke-width="2" stroke="black"></line><line x1="631" y1="377" x2="651" y2="377" stroke-width="2" stroke="black"></line><line x1="151" y1="197" x2="161" y2="197" stroke-width="2" stroke="black"></line><line x1="671" y1="177" x2="631" y2="177" stroke-width="2" stroke="black"></line><line x1="1341" y1="77" x2="1391" y2="77" stroke-width="2" stroke="black"></line><line x1="1341" y1="347" x2="1391" y2="347" stroke-width="2" stroke="black"></line><line x1="21" y1="177" x2="71" y2="177" stroke-width="2" stroke="black"></line><line x1="1141" y1="347" x2="1141" y2="397" stroke-width="2" stroke="black"></line><line x1="1141" y1="347" x2="1141" y2="217" stroke-width="2" stroke="black"></line><line x1="21" y1="327" x2="21" y2="277" stroke-width="2" stroke="black"></line><line x1="71" y1="277" x2="21" y2="277" stroke-width="2" stroke="black"></line><line x1="71" y1="257" x2="21" y2="257" stroke-width="2" stroke="black"></line><line x1="1081" y1="347" x2="1141" y2="347" stroke-width="2" stroke="black"></line><line x1="1041" y1="77" x2="1021" y2="77" stroke-width="2" stroke="black"></line><line x1="1011" y1="217" x2="1021" y2="217" stroke-width="2" stroke="black"></line><line x1="671" y1="377" x2="651" y2="377" stroke-width="2" stroke="black"></line><line x1="21" y1="137" x2="71" y2="137" stroke-width="2" stroke="black"></line><line x1="21" y1="137" x2="21" y2="107" stroke-width="2" stroke="black"></line><line x1="21" y1="137" x2="21" y2="157" stroke-width="2" stroke="black"></line><line x1="1021" y1="347" x2="1011" y2="347" stroke-width="2" stroke="black"></line><line x1="1021" y1="347" x2="1041" y2="347" stroke-width="2" stroke="black"></line><line x1="711" y1="277" x2="731" y2="277" stroke-width="2" stroke="black"></line><line x1="151" y1="217" x2="181" y2="217" stroke-width="2" stroke="black"></line><line x1="71" y1="237" x2="21" y2="237" stroke-width="2" stroke="black"></line><line x1="21" y1="197" x2="71" y2="197" stroke-width="2" stroke="black"></line><line x1="21" y1="197" x2="21" y2="217" stroke-width="2" stroke="black"></line><line x1="21" y1="197" x2="21" y2="177" stroke-width="2" stroke="black"></line><line x1="151" y1="177" x2="161" y2="177" stroke-width="2" stroke="black"></line></svg>