%FSLAX33Y33*%
%MOMM*%
%ADD10C,0.15*%
D10*
%LNbottom silkscreen_traces*%
%LNbottom silkscreen component 2b46bd6407843b15*%
G01*
X33135Y15300D02*
X34865Y15300D01*
X33135Y13700D02*
X34865Y13700D01*
G36*
X34511Y15875D02*
X34511Y16591D01*
X34194Y16591D01*
X34149Y16590D01*
X34109Y16586D01*
X34076Y16580D01*
X34048Y16572D01*
X34024Y16560D01*
X34003Y16545D01*
X33985Y16526D01*
X33969Y16503D01*
X33956Y16478D01*
X33946Y16452D01*
X33941Y16424D01*
X33939Y16396D01*
X33942Y16359D01*
X33951Y16325D01*
X33967Y16295D01*
X33988Y16267D01*
X34016Y16243D01*
X34051Y16224D01*
X34092Y16210D01*
X34116Y16205D01*
X34131Y16282D01*
X34111Y16288D01*
X34094Y16296D01*
X34079Y16306D01*
X34066Y16318D01*
X34055Y16331D01*
X34047Y16346D01*
X34041Y16362D01*
X34038Y16378D01*
X34036Y16396D01*
X34039Y16420D01*
X34046Y16442D01*
X34057Y16462D01*
X34073Y16479D01*
X34094Y16493D01*
X34121Y16504D01*
X34153Y16510D01*
X34190Y16512D01*
X34416Y16512D01*
X34416Y16275D01*
X34416Y16275D01*
X34213Y16275D01*
X34182Y16276D01*
X34155Y16278D01*
X34131Y16282D01*
X34116Y16205D01*
X34140Y16201D01*
X34123Y16192D01*
X34107Y16183D01*
X34094Y16174D01*
X34083Y16165D01*
X34063Y16145D01*
X34043Y16122D01*
X34024Y16097D01*
X34005Y16070D01*
X33880Y15875D01*
X33999Y15875D01*
X34094Y16024D01*
X34114Y16054D01*
X34132Y16081D01*
X34148Y16104D01*
X34162Y16123D01*
X34175Y16138D01*
X34188Y16152D01*
X34200Y16162D01*
X34210Y16170D01*
X34221Y16177D01*
X34232Y16182D01*
X34243Y16186D01*
X34254Y16189D01*
X34263Y16191D01*
X34275Y16192D01*
X34289Y16193D01*
X34306Y16193D01*
X34416Y16193D01*
X34416Y15875D01*
X34511Y15875D01*
X34511Y15875D01*
X33825Y16064D02*
X33738Y16076D01*
X33729Y16041D01*
X33717Y16011D01*
X33703Y15987D01*
X33686Y15968D01*
X33667Y15954D01*
X33646Y15943D01*
X33623Y15937D01*
X33597Y15935D01*
X33568Y15938D01*
X33540Y15946D01*
X33515Y15959D01*
X33493Y15978D01*
X33474Y16001D01*
X33461Y16026D01*
X33453Y16054D01*
X33450Y16084D01*
X33452Y16113D01*
X33460Y16140D01*
X33472Y16163D01*
X33490Y16184D01*
X33511Y16202D01*
X33534Y16214D01*
X33561Y16221D01*
X33590Y16224D01*
X33603Y16223D01*
X33618Y16221D01*
X33634Y16218D01*
X33652Y16214D01*
X33642Y16291D01*
X33638Y16291D01*
X33634Y16290D01*
X33631Y16290D01*
X33628Y16290D01*
X33601Y16292D01*
X33575Y16297D01*
X33550Y16307D01*
X33527Y16319D01*
X33507Y16336D01*
X33493Y16357D01*
X33485Y16381D01*
X33482Y16410D01*
X33484Y16433D01*
X33490Y16454D01*
X33501Y16473D01*
X33515Y16490D01*
X33532Y16504D01*
X33552Y16514D01*
X33575Y16520D01*
X33599Y16521D01*
X33624Y16519D01*
X33646Y16513D01*
X33667Y16503D01*
X33685Y16489D01*
X33700Y16471D01*
X33713Y16449D01*
X33722Y16423D01*
X33729Y16393D01*
X33817Y16408D01*
X33806Y16450D01*
X33790Y16487D01*
X33769Y16518D01*
X33743Y16545D01*
X33713Y16566D01*
X33679Y16582D01*
X33642Y16591D01*
X33601Y16594D01*
X33573Y16592D01*
X33545Y16587D01*
X33519Y16580D01*
X33493Y16569D01*
X33470Y16555D01*
X33450Y16539D01*
X33433Y16521D01*
X33418Y16500D01*
X33407Y16478D01*
X33398Y16455D01*
X33394Y16432D01*
X33392Y16408D01*
X33393Y16385D01*
X33398Y16363D01*
X33406Y16343D01*
X33417Y16323D01*
X33431Y16305D01*
X33448Y16289D01*
X33468Y16275D01*
X33491Y16263D01*
X33461Y16253D01*
X33434Y16240D01*
X33411Y16223D01*
X33392Y16202D01*
X33377Y16177D01*
X33366Y16150D01*
X33359Y16120D01*
X33357Y16086D01*
X33361Y16041D01*
X33374Y16000D01*
X33395Y15962D01*
X33425Y15927D01*
X33462Y15899D01*
X33502Y15879D01*
X33548Y15866D01*
X33598Y15862D01*
X33643Y15866D01*
X33684Y15876D01*
X33721Y15894D01*
X33754Y15918D01*
X33782Y15949D01*
X33803Y15983D01*
X33818Y16021D01*
X33825Y16064D01*
X33825Y16064D01*
G37*
%LNbottom silkscreen component f58287f33a8996b4*%
X33135Y23300D02*
X34865Y23300D01*
X33135Y21700D02*
X34865Y21700D01*
G36*
X34511Y23875D02*
X34511Y24591D01*
X34194Y24591D01*
X34149Y24590D01*
X34109Y24586D01*
X34076Y24580D01*
X34048Y24572D01*
X34024Y24560D01*
X34003Y24545D01*
X33985Y24526D01*
X33969Y24503D01*
X33956Y24478D01*
X33946Y24452D01*
X33941Y24424D01*
X33939Y24396D01*
X33942Y24359D01*
X33951Y24325D01*
X33967Y24295D01*
X33988Y24267D01*
X34016Y24243D01*
X34051Y24224D01*
X34092Y24210D01*
X34116Y24205D01*
X34131Y24282D01*
X34111Y24288D01*
X34094Y24296D01*
X34079Y24306D01*
X34066Y24318D01*
X34055Y24331D01*
X34047Y24346D01*
X34041Y24362D01*
X34038Y24378D01*
X34036Y24396D01*
X34039Y24420D01*
X34046Y24442D01*
X34057Y24462D01*
X34073Y24479D01*
X34094Y24493D01*
X34121Y24504D01*
X34153Y24510D01*
X34190Y24512D01*
X34416Y24512D01*
X34416Y24275D01*
X34416Y24275D01*
X34213Y24275D01*
X34182Y24276D01*
X34155Y24278D01*
X34131Y24282D01*
X34116Y24205D01*
X34140Y24201D01*
X34123Y24192D01*
X34107Y24183D01*
X34094Y24174D01*
X34083Y24165D01*
X34063Y24145D01*
X34043Y24122D01*
X34024Y24097D01*
X34005Y24070D01*
X33880Y23875D01*
X33999Y23875D01*
X34094Y24024D01*
X34114Y24054D01*
X34132Y24081D01*
X34148Y24104D01*
X34162Y24123D01*
X34175Y24138D01*
X34188Y24152D01*
X34200Y24162D01*
X34210Y24170D01*
X34221Y24177D01*
X34232Y24182D01*
X34243Y24186D01*
X34254Y24189D01*
X34263Y24191D01*
X34275Y24192D01*
X34289Y24193D01*
X34306Y24193D01*
X34416Y24193D01*
X34416Y23875D01*
X34511Y23875D01*
X34511Y23875D01*
X33364Y23959D02*
X33364Y23875D01*
X33837Y23875D01*
X33837Y23891D01*
X33835Y23906D01*
X33832Y23921D01*
X33827Y23936D01*
X33817Y23960D01*
X33803Y23984D01*
X33788Y24008D01*
X33769Y24031D01*
X33747Y24056D01*
X33720Y24082D01*
X33689Y24110D01*
X33654Y24140D01*
X33600Y24185D01*
X33556Y24225D01*
X33522Y24261D01*
X33496Y24291D01*
X33478Y24319D01*
X33466Y24346D01*
X33458Y24372D01*
X33455Y24397D01*
X33458Y24422D01*
X33465Y24445D01*
X33476Y24466D01*
X33493Y24485D01*
X33513Y24501D01*
X33536Y24512D01*
X33562Y24519D01*
X33590Y24521D01*
X33620Y24519D01*
X33647Y24511D01*
X33671Y24500D01*
X33692Y24483D01*
X33708Y24462D01*
X33720Y24437D01*
X33728Y24409D01*
X33730Y24377D01*
X33821Y24387D01*
X33813Y24434D01*
X33798Y24476D01*
X33778Y24511D01*
X33751Y24541D01*
X33718Y24564D01*
X33680Y24581D01*
X33637Y24590D01*
X33588Y24594D01*
X33539Y24590D01*
X33496Y24579D01*
X33458Y24562D01*
X33425Y24537D01*
X33399Y24506D01*
X33380Y24473D01*
X33369Y24436D01*
X33365Y24395D01*
X33366Y24374D01*
X33369Y24352D01*
X33375Y24331D01*
X33383Y24311D01*
X33393Y24290D01*
X33406Y24268D01*
X33422Y24246D01*
X33441Y24223D01*
X33465Y24198D01*
X33495Y24169D01*
X33532Y24135D01*
X33576Y24097D01*
X33612Y24067D01*
X33641Y24041D01*
X33663Y24022D01*
X33678Y24007D01*
X33689Y23995D01*
X33699Y23983D01*
X33707Y23971D01*
X33715Y23959D01*
X33364Y23959D01*
X33364Y23959D01*
G37*
%LNbottom silkscreen component 0af2d2f02e1cb27f*%
X33135Y31300D02*
X34865Y31300D01*
X33135Y29700D02*
X34865Y29700D01*
G36*
X34511Y28375D02*
X34511Y29091D01*
X34194Y29091D01*
X34149Y29090D01*
X34109Y29086D01*
X34076Y29080D01*
X34048Y29072D01*
X34024Y29060D01*
X34003Y29045D01*
X33985Y29026D01*
X33969Y29003D01*
X33956Y28978D01*
X33946Y28952D01*
X33941Y28924D01*
X33939Y28896D01*
X33942Y28859D01*
X33951Y28825D01*
X33967Y28795D01*
X33988Y28767D01*
X34016Y28743D01*
X34051Y28724D01*
X34092Y28710D01*
X34116Y28705D01*
X34131Y28782D01*
X34111Y28788D01*
X34094Y28796D01*
X34079Y28806D01*
X34066Y28818D01*
X34055Y28831D01*
X34047Y28846D01*
X34041Y28862D01*
X34038Y28878D01*
X34036Y28896D01*
X34039Y28920D01*
X34046Y28942D01*
X34057Y28962D01*
X34073Y28979D01*
X34094Y28993D01*
X34121Y29004D01*
X34153Y29010D01*
X34190Y29012D01*
X34416Y29012D01*
X34416Y28775D01*
X34416Y28775D01*
X34213Y28775D01*
X34182Y28776D01*
X34155Y28778D01*
X34131Y28782D01*
X34116Y28705D01*
X34140Y28701D01*
X34123Y28692D01*
X34107Y28683D01*
X34094Y28674D01*
X34083Y28665D01*
X34063Y28645D01*
X34043Y28622D01*
X34024Y28597D01*
X34005Y28570D01*
X33880Y28375D01*
X33999Y28375D01*
X34094Y28524D01*
X34114Y28554D01*
X34132Y28581D01*
X34148Y28604D01*
X34162Y28623D01*
X34175Y28638D01*
X34188Y28652D01*
X34200Y28662D01*
X34210Y28670D01*
X34221Y28677D01*
X34232Y28682D01*
X34243Y28686D01*
X34254Y28689D01*
X34263Y28691D01*
X34275Y28692D01*
X34289Y28693D01*
X34306Y28693D01*
X34416Y28693D01*
X34416Y28375D01*
X34511Y28375D01*
X34511Y28375D01*
X33495Y28375D02*
X33583Y28375D01*
X33583Y28935D01*
X33600Y28920D01*
X33619Y28905D01*
X33642Y28890D01*
X33666Y28875D01*
X33691Y28860D01*
X33715Y28848D01*
X33737Y28838D01*
X33759Y28829D01*
X33759Y28914D01*
X33723Y28932D01*
X33689Y28952D01*
X33658Y28974D01*
X33630Y28998D01*
X33604Y29023D01*
X33583Y29047D01*
X33565Y29070D01*
X33552Y29094D01*
X33495Y29094D01*
X33495Y28375D01*
X33495Y28375D01*
G37*
M02*