%FSLAX33Y33*%
%MOMM*%
%AMRR-H508000-W10160000-R152400-RO0.000*
21,1,9.8552,0.508,0.,0.,360*
21,1,10.16,0.2032,0.,0.,360*
1,1,0.3048,-4.9276,0.1016*
1,1,0.3048,4.9276,0.1016*
1,1,0.3048,4.9276,-0.1016*
1,1,0.3048,-4.9276,-0.1016*%
%ADD10C,0.1*%
%ADD11R,1.X4.5*%
%ADD12RR-H508000-W10160000-R152400-RO0.000*%
%ADD13C,0.15*%
%ADD14C,0.5*%
D10*
%LNtop silkscreen_traces*%
%LNtop silkscreen component 41c15735770252ef*%
G01*
X23250Y8500D02*
X23250Y36500D01*
X31750Y36500*
X31750Y8500*
X23250Y8500*
X23500Y8750D02*
X23500Y36250D01*
X31500Y36250*
X31500Y8750*
X23500Y8750*
D11*
X23750Y22525D03*
D12*
X27500Y37105D03*
G36*
X24613Y37638D02*
X24613Y38729D01*
X25097Y38729D01*
X25165Y38727D01*
X25225Y38722D01*
X25276Y38712D01*
X25319Y38700D01*
X25355Y38682D01*
X25387Y38659D01*
X25415Y38630D01*
X25440Y38596D01*
X25460Y38558D01*
X25474Y38517D01*
X25482Y38475D01*
X25485Y38431D01*
X25481Y38375D01*
X25466Y38324D01*
X25443Y38278D01*
X25410Y38236D01*
X25367Y38199D01*
X25314Y38170D01*
X25251Y38149D01*
X25215Y38142D01*
X25192Y38259D01*
X25223Y38268D01*
X25249Y38280D01*
X25272Y38295D01*
X25291Y38312D01*
X25307Y38333D01*
X25320Y38356D01*
X25329Y38380D01*
X25335Y38405D01*
X25336Y38431D01*
X25333Y38468D01*
X25322Y38502D01*
X25305Y38532D01*
X25280Y38559D01*
X25248Y38580D01*
X25208Y38596D01*
X25159Y38605D01*
X25103Y38608D01*
X24757Y38608D01*
X24757Y38247D01*
X24757Y38247D01*
X25068Y38247D01*
X25115Y38249D01*
X25156Y38253D01*
X25192Y38259D01*
X25215Y38142D01*
X25178Y38134D01*
X25205Y38121D01*
X25228Y38107D01*
X25248Y38093D01*
X25265Y38080D01*
X25296Y38049D01*
X25327Y38015D01*
X25356Y37977D01*
X25385Y37935D01*
X25575Y37638D01*
X25393Y37638D01*
X25249Y37865D01*
X25218Y37911D01*
X25191Y37952D01*
X25166Y37986D01*
X25144Y38015D01*
X25125Y38039D01*
X25106Y38060D01*
X25088Y38076D01*
X25071Y38088D01*
X25055Y38098D01*
X25038Y38106D01*
X25022Y38112D01*
X25005Y38117D01*
X24991Y38120D01*
X24973Y38121D01*
X24951Y38122D01*
X24925Y38122D01*
X24757Y38122D01*
X24757Y37638D01*
X24613Y37638D01*
X24613Y37638D01*
X26235Y37892D02*
X26374Y37875D01*
X26354Y37818D01*
X26327Y37768D01*
X26293Y37724D01*
X26252Y37687D01*
X26205Y37658D01*
X26152Y37637D01*
X26092Y37624D01*
X26026Y37620D01*
X25944Y37627D01*
X25871Y37647D01*
X25807Y37680D01*
X25751Y37727D01*
X25707Y37786D01*
X25675Y37855D01*
X25656Y37935D01*
X25650Y38026D01*
X25656Y38121D01*
X25675Y38204D01*
X25707Y38275D01*
X25752Y38336D01*
X25808Y38384D01*
X25870Y38419D01*
X25941Y38439D01*
X26019Y38446D01*
X26030Y38445D01*
X26020Y38336D01*
X25976Y38332D01*
X25935Y38321D01*
X25898Y38301D01*
X25865Y38274D01*
X25837Y38241D01*
X25816Y38202D01*
X25802Y38158D01*
X25796Y38109D01*
X25796Y38109D01*
X26237Y38109D01*
X26230Y38156D01*
X26220Y38196D01*
X26205Y38231D01*
X26186Y38259D01*
X26152Y38292D01*
X26113Y38317D01*
X26069Y38331D01*
X26020Y38336D01*
X26030Y38445D01*
X26094Y38439D01*
X26163Y38419D01*
X26224Y38385D01*
X26278Y38338D01*
X26322Y38279D01*
X26353Y38208D01*
X26372Y38127D01*
X26378Y38035D01*
X26378Y38028D01*
X26378Y38020D01*
X26378Y38010D01*
X26377Y37999D01*
X25788Y37999D01*
X25796Y37938D01*
X25810Y37884D01*
X25832Y37838D01*
X25862Y37799D01*
X25897Y37769D01*
X25936Y37748D01*
X25980Y37735D01*
X26027Y37730D01*
X26062Y37733D01*
X26095Y37740D01*
X26125Y37752D01*
X26153Y37769D01*
X26177Y37791D01*
X26199Y37819D01*
X26219Y37853D01*
X26235Y37892D01*
X26235Y37892D01*
X27055Y37638D02*
X27055Y37738D01*
X26994Y37800D01*
X26996Y37802D01*
X27022Y37843D01*
X27042Y37893D01*
X27053Y37952D01*
X27057Y38021D01*
X27053Y38097D01*
X27041Y38162D01*
X27022Y38216D01*
X26994Y38259D01*
X26961Y38293D01*
X26925Y38316D01*
X26884Y38331D01*
X26840Y38335D01*
X26798Y38331D01*
X26758Y38317D01*
X26723Y38294D01*
X26691Y38262D01*
X26665Y38221D01*
X26646Y38168D01*
X26635Y38106D01*
X26631Y38032D01*
X26631Y38032D01*
X26635Y37961D01*
X26647Y37900D01*
X26667Y37848D01*
X26695Y37805D01*
X26729Y37773D01*
X26765Y37749D01*
X26804Y37735D01*
X26846Y37730D01*
X26889Y37735D01*
X26928Y37748D01*
X26963Y37771D01*
X26994Y37800D01*
X27055Y37738D01*
X27013Y37686D01*
X26962Y37650D01*
X26902Y37627D01*
X26834Y37620D01*
X26787Y37623D01*
X26743Y37633D01*
X26700Y37649D01*
X26660Y37672D01*
X26623Y37701D01*
X26590Y37735D01*
X26561Y37774D01*
X26537Y37818D01*
X26518Y37866D01*
X26504Y37918D01*
X26496Y37973D01*
X26494Y38032D01*
X26496Y38090D01*
X26503Y38145D01*
X26516Y38198D01*
X26533Y38247D01*
X26555Y38292D01*
X26582Y38332D01*
X26614Y38366D01*
X26651Y38395D01*
X26692Y38417D01*
X26735Y38433D01*
X26780Y38443D01*
X26828Y38446D01*
X26862Y38444D01*
X26895Y38439D01*
X26926Y38429D01*
X26955Y38416D01*
X26982Y38400D01*
X27006Y38381D01*
X27027Y38361D01*
X27046Y38337D01*
X27046Y38729D01*
X27179Y38729D01*
X27179Y37638D01*
X27055Y37638D01*
X27055Y37638D01*
X27959Y37638D02*
X27717Y38428D01*
X27855Y38428D01*
X27981Y37972D01*
X28028Y37802D01*
X28032Y37817D01*
X28040Y37850D01*
X28052Y37899D01*
X28069Y37965D01*
X28195Y38428D01*
X28332Y38428D01*
X28451Y37970D01*
X28490Y37819D01*
X28536Y37971D01*
X28671Y38428D01*
X28801Y38428D01*
X28554Y37638D01*
X28415Y37638D01*
X28289Y38111D01*
X28259Y38246D01*
X28099Y37638D01*
X27959Y37638D01*
X27959Y37638D01*
X28914Y37638D02*
X28914Y38428D01*
X29048Y38428D01*
X29048Y37638D01*
X28914Y37638D01*
X28914Y37638D01*
X28914Y38575D02*
X28914Y38729D01*
X29048Y38729D01*
X29048Y38575D01*
X28914Y38575D01*
X28914Y38575D01*
X29251Y37638D02*
X29251Y38428D01*
X29371Y38428D01*
X29371Y38308D01*
X29394Y38347D01*
X29416Y38378D01*
X29436Y38402D01*
X29456Y38419D01*
X29476Y38431D01*
X29497Y38439D01*
X29519Y38444D01*
X29542Y38446D01*
X29576Y38443D01*
X29611Y38435D01*
X29645Y38422D01*
X29680Y38403D01*
X29634Y38279D01*
X29609Y38291D01*
X29585Y38300D01*
X29560Y38306D01*
X29536Y38308D01*
X29514Y38306D01*
X29494Y38301D01*
X29475Y38293D01*
X29457Y38281D01*
X29440Y38267D01*
X29427Y38250D01*
X29416Y38230D01*
X29407Y38208D01*
X29397Y38171D01*
X29390Y38133D01*
X29386Y38093D01*
X29385Y38052D01*
X29385Y37638D01*
X29251Y37638D01*
X29251Y37638D01*
X30301Y37892D02*
X30439Y37875D01*
X30419Y37818D01*
X30392Y37768D01*
X30358Y37724D01*
X30318Y37687D01*
X30270Y37658D01*
X30217Y37637D01*
X30157Y37624D01*
X30091Y37620D01*
X30009Y37627D01*
X29936Y37647D01*
X29872Y37680D01*
X29816Y37727D01*
X29772Y37786D01*
X29740Y37855D01*
X29721Y37935D01*
X29715Y38026D01*
X29721Y38121D01*
X29741Y38204D01*
X29773Y38275D01*
X29818Y38336D01*
X29873Y38384D01*
X29936Y38419D01*
X30006Y38439D01*
X30084Y38446D01*
X30095Y38445D01*
X30085Y38336D01*
X30041Y38332D01*
X30001Y38321D01*
X29964Y38301D01*
X29930Y38274D01*
X29902Y38241D01*
X29882Y38202D01*
X29868Y38158D01*
X29861Y38109D01*
X29861Y38109D01*
X30302Y38109D01*
X30296Y38156D01*
X30285Y38196D01*
X30270Y38231D01*
X30251Y38259D01*
X30217Y38292D01*
X30178Y38317D01*
X30134Y38331D01*
X30085Y38336D01*
X30095Y38445D01*
X30160Y38439D01*
X30228Y38419D01*
X30289Y38385D01*
X30343Y38338D01*
X30387Y38279D01*
X30418Y38208D01*
X30437Y38127D01*
X30443Y38035D01*
X30443Y38028D01*
X30443Y38020D01*
X30443Y38010D01*
X30443Y37999D01*
X29853Y37999D01*
X29861Y37938D01*
X29875Y37884D01*
X29898Y37838D01*
X29927Y37799D01*
X29962Y37769D01*
X30001Y37748D01*
X30045Y37735D01*
X30092Y37730D01*
X30128Y37733D01*
X30160Y37740D01*
X30191Y37752D01*
X30218Y37769D01*
X30243Y37791D01*
X30265Y37819D01*
X30284Y37853D01*
X30301Y37892D01*
X30301Y37892D01*
X32564Y18554D02*
X32564Y18753D01*
X32367Y18753D01*
X32367Y18836D01*
X32564Y18836D01*
X32564Y19034D01*
X32649Y19034D01*
X32649Y18836D01*
X32847Y18836D01*
X32847Y18753D01*
X32649Y18753D01*
X32649Y18554D01*
X32564Y18554D01*
X32564Y18554D01*
X32946Y18627D02*
X33039Y18634D01*
X33046Y18602D01*
X33057Y18574D01*
X33070Y18551D01*
X33088Y18531D01*
X33108Y18516D01*
X33130Y18506D01*
X33153Y18499D01*
X33179Y18497D01*
X33210Y18500D01*
X33239Y18509D01*
X33265Y18524D01*
X33288Y18546D01*
X33308Y18572D01*
X33322Y18602D01*
X33330Y18636D01*
X33333Y18675D01*
X33330Y18711D01*
X33322Y18743D01*
X33309Y18771D01*
X33290Y18795D01*
X33267Y18814D01*
X33241Y18828D01*
X33211Y18837D01*
X33178Y18839D01*
X33157Y18838D01*
X33137Y18834D01*
X33118Y18828D01*
X33100Y18820D01*
X33083Y18809D01*
X33069Y18797D01*
X33056Y18784D01*
X33045Y18769D01*
X32961Y18780D01*
X33032Y19153D01*
X33393Y19153D01*
X33393Y19068D01*
X33103Y19068D01*
X33064Y18873D01*
X33097Y18893D01*
X33131Y18907D01*
X33166Y18915D01*
X33201Y18918D01*
X33247Y18914D01*
X33289Y18902D01*
X33328Y18881D01*
X33362Y18852D01*
X33391Y18817D01*
X33411Y18777D01*
X33424Y18732D01*
X33428Y18683D01*
X33424Y18635D01*
X33413Y18591D01*
X33395Y18550D01*
X33370Y18512D01*
X33332Y18473D01*
X33287Y18446D01*
X33237Y18429D01*
X33179Y18424D01*
X33132Y18427D01*
X33089Y18437D01*
X33051Y18455D01*
X33017Y18479D01*
X32989Y18509D01*
X32968Y18544D01*
X32953Y18583D01*
X32946Y18627D01*
X32946Y18627D01*
X33755Y18436D02*
X33473Y19163D01*
X33577Y19163D01*
X33766Y18635D01*
X33777Y18604D01*
X33787Y18573D01*
X33796Y18544D01*
X33804Y18516D01*
X33813Y18546D01*
X33822Y18575D01*
X33833Y18605D01*
X33843Y18635D01*
X34040Y19163D01*
X34138Y19163D01*
X33853Y18436D01*
X33755Y18436D01*
X33755Y18436D01*
X32564Y21094D02*
X32564Y21293D01*
X32367Y21293D01*
X32367Y21376D01*
X32564Y21376D01*
X32564Y21574D01*
X32649Y21574D01*
X32649Y21376D01*
X32847Y21376D01*
X32847Y21293D01*
X32649Y21293D01*
X32649Y21094D01*
X32564Y21094D01*
X32564Y21094D01*
X33282Y20976D02*
X33193Y20976D01*
X33193Y21545D01*
X33175Y21530D01*
X33155Y21514D01*
X33133Y21499D01*
X33108Y21484D01*
X33082Y21469D01*
X33058Y21457D01*
X33035Y21446D01*
X33014Y21437D01*
X33014Y21524D01*
X33050Y21542D01*
X33084Y21563D01*
X33116Y21585D01*
X33145Y21609D01*
X33171Y21634D01*
X33193Y21658D01*
X33211Y21682D01*
X33224Y21706D01*
X33282Y21706D01*
X33282Y20976D01*
X33282Y20976D01*
X33980Y21062D02*
X33980Y20976D01*
X33499Y20976D01*
X33499Y20992D01*
X33501Y21008D01*
X33505Y21023D01*
X33510Y21038D01*
X33520Y21062D01*
X33533Y21087D01*
X33550Y21111D01*
X33568Y21135D01*
X33591Y21159D01*
X33618Y21186D01*
X33649Y21215D01*
X33685Y21245D01*
X33740Y21291D01*
X33785Y21332D01*
X33820Y21368D01*
X33845Y21399D01*
X33864Y21427D01*
X33877Y21454D01*
X33885Y21481D01*
X33887Y21506D01*
X33885Y21532D01*
X33878Y21555D01*
X33866Y21577D01*
X33849Y21596D01*
X33829Y21612D01*
X33805Y21623D01*
X33779Y21630D01*
X33750Y21632D01*
X33720Y21630D01*
X33692Y21623D01*
X33668Y21611D01*
X33647Y21594D01*
X33630Y21572D01*
X33618Y21547D01*
X33610Y21519D01*
X33608Y21486D01*
X33516Y21496D01*
X33524Y21544D01*
X33538Y21586D01*
X33559Y21622D01*
X33587Y21652D01*
X33620Y21676D01*
X33659Y21693D01*
X33703Y21703D01*
X33752Y21706D01*
X33802Y21703D01*
X33846Y21692D01*
X33885Y21674D01*
X33918Y21648D01*
X33945Y21617D01*
X33964Y21583D01*
X33975Y21546D01*
X33979Y21504D01*
X33978Y21483D01*
X33974Y21461D01*
X33969Y21440D01*
X33961Y21419D01*
X33951Y21397D01*
X33937Y21375D01*
X33921Y21353D01*
X33902Y21330D01*
X33878Y21304D01*
X33847Y21274D01*
X33809Y21240D01*
X33764Y21202D01*
X33727Y21171D01*
X33698Y21145D01*
X33676Y21125D01*
X33661Y21110D01*
X33650Y21098D01*
X33640Y21086D01*
X33631Y21074D01*
X33623Y21062D01*
X33980Y21062D01*
X33980Y21062D01*
X34320Y20976D02*
X34038Y21703D01*
X34142Y21703D01*
X34331Y21175D01*
X34342Y21144D01*
X34352Y21113D01*
X34361Y21084D01*
X34369Y21056D01*
X34378Y21086D01*
X34388Y21115D01*
X34398Y21145D01*
X34409Y21175D01*
X34605Y21703D01*
X34703Y21703D01*
X34418Y20976D01*
X34320Y20976D01*
X34320Y20976D01*
X32342Y31354D02*
X32342Y31444D01*
X32617Y31444D01*
X32617Y31354D01*
X32342Y31354D01*
X32342Y31354D01*
X33027Y31136D02*
X32938Y31136D01*
X32938Y31705D01*
X32920Y31690D01*
X32900Y31674D01*
X32878Y31659D01*
X32853Y31644D01*
X32827Y31629D01*
X32803Y31617D01*
X32780Y31606D01*
X32759Y31597D01*
X32759Y31684D01*
X32795Y31702D01*
X32829Y31723D01*
X32861Y31745D01*
X32890Y31769D01*
X32916Y31794D01*
X32938Y31818D01*
X32956Y31842D01*
X32969Y31866D01*
X33027Y31866D01*
X33027Y31136D01*
X33027Y31136D01*
X33725Y31222D02*
X33725Y31136D01*
X33244Y31136D01*
X33244Y31152D01*
X33246Y31168D01*
X33250Y31183D01*
X33255Y31198D01*
X33265Y31222D01*
X33278Y31247D01*
X33295Y31271D01*
X33313Y31295D01*
X33336Y31319D01*
X33363Y31346D01*
X33394Y31375D01*
X33430Y31405D01*
X33485Y31451D01*
X33530Y31492D01*
X33565Y31528D01*
X33590Y31559D01*
X33609Y31587D01*
X33622Y31614D01*
X33629Y31641D01*
X33632Y31666D01*
X33630Y31692D01*
X33623Y31715D01*
X33611Y31737D01*
X33594Y31756D01*
X33574Y31772D01*
X33550Y31783D01*
X33524Y31790D01*
X33495Y31792D01*
X33465Y31790D01*
X33437Y31783D01*
X33413Y31771D01*
X33392Y31754D01*
X33375Y31732D01*
X33363Y31707D01*
X33355Y31679D01*
X33353Y31646D01*
X33261Y31656D01*
X33269Y31704D01*
X33283Y31746D01*
X33304Y31782D01*
X33332Y31812D01*
X33365Y31836D01*
X33404Y31853D01*
X33448Y31863D01*
X33497Y31866D01*
X33547Y31863D01*
X33591Y31852D01*
X33630Y31834D01*
X33663Y31808D01*
X33690Y31777D01*
X33709Y31743D01*
X33720Y31706D01*
X33724Y31664D01*
X33723Y31643D01*
X33719Y31621D01*
X33714Y31600D01*
X33706Y31579D01*
X33696Y31557D01*
X33682Y31535D01*
X33666Y31513D01*
X33647Y31490D01*
X33623Y31464D01*
X33592Y31434D01*
X33554Y31400D01*
X33509Y31362D01*
X33472Y31331D01*
X33443Y31305D01*
X33421Y31285D01*
X33406Y31270D01*
X33395Y31258D01*
X33385Y31246D01*
X33376Y31234D01*
X33368Y31222D01*
X33725Y31222D01*
X33725Y31222D01*
X34065Y31136D02*
X33783Y31863D01*
X33887Y31863D01*
X34076Y31335D01*
X34087Y31304D01*
X34097Y31273D01*
X34106Y31244D01*
X34114Y31216D01*
X34123Y31246D01*
X34133Y31275D01*
X34143Y31305D01*
X34153Y31335D01*
X34350Y31863D01*
X34448Y31863D01*
X34163Y31136D01*
X34065Y31136D01*
X34065Y31136D01*
X32729Y28881D02*
X32729Y28967D01*
X33037Y28967D01*
X33037Y28697D01*
X33001Y28671D01*
X32965Y28648D01*
X32928Y28628D01*
X32890Y28612D01*
X32852Y28600D01*
X32814Y28591D01*
X32775Y28585D01*
X32736Y28584D01*
X32683Y28586D01*
X32633Y28595D01*
X32586Y28609D01*
X32541Y28629D01*
X32500Y28655D01*
X32464Y28686D01*
X32434Y28721D01*
X32409Y28762D01*
X32389Y28807D01*
X32375Y28854D01*
X32367Y28904D01*
X32364Y28956D01*
X32367Y29008D01*
X32375Y29059D01*
X32389Y29107D01*
X32408Y29154D01*
X32433Y29197D01*
X32463Y29235D01*
X32497Y29266D01*
X32536Y29291D01*
X32579Y29311D01*
X32626Y29325D01*
X32675Y29333D01*
X32728Y29336D01*
X32767Y29334D01*
X32803Y29329D01*
X32838Y29321D01*
X32871Y29310D01*
X32901Y29296D01*
X32928Y29280D01*
X32951Y29261D01*
X32971Y29239D01*
X32988Y29214D01*
X33003Y29186D01*
X33015Y29155D01*
X33026Y29120D01*
X32939Y29096D01*
X32930Y29122D01*
X32921Y29146D01*
X32910Y29166D01*
X32898Y29183D01*
X32885Y29198D01*
X32869Y29212D01*
X32850Y29224D01*
X32829Y29234D01*
X32806Y29243D01*
X32781Y29249D01*
X32756Y29252D01*
X32729Y29253D01*
X32697Y29252D01*
X32667Y29248D01*
X32640Y29242D01*
X32615Y29233D01*
X32592Y29222D01*
X32571Y29210D01*
X32553Y29196D01*
X32537Y29180D01*
X32523Y29164D01*
X32511Y29146D01*
X32500Y29128D01*
X32491Y29108D01*
X32479Y29074D01*
X32470Y29038D01*
X32465Y29001D01*
X32463Y28962D01*
X32465Y28915D01*
X32472Y28873D01*
X32482Y28834D01*
X32497Y28799D01*
X32515Y28769D01*
X32538Y28742D01*
X32564Y28720D01*
X32594Y28702D01*
X32627Y28688D01*
X32660Y28678D01*
X32695Y28672D01*
X32730Y28670D01*
X32761Y28672D01*
X32792Y28676D01*
X32822Y28684D01*
X32852Y28694D01*
X32880Y28707D01*
X32905Y28719D01*
X32925Y28732D01*
X32943Y28746D01*
X32943Y28881D01*
X32729Y28881D01*
X32729Y28881D01*
X33178Y28596D02*
X33178Y29323D01*
X33276Y29323D01*
X33658Y28752D01*
X33658Y29323D01*
X33751Y29323D01*
X33751Y28596D01*
X33652Y28596D01*
X33270Y29168D01*
X33270Y28596D01*
X33178Y28596D01*
X33178Y28596D01*
X33912Y28596D02*
X33912Y29323D01*
X34161Y29323D01*
X34161Y29237D01*
X34009Y29237D01*
X34009Y28682D01*
X34009Y28682D01*
X34164Y28682D01*
X34198Y28683D01*
X34228Y28685D01*
X34254Y28689D01*
X34277Y28695D01*
X34296Y28703D01*
X34314Y28711D01*
X34329Y28721D01*
X34342Y28733D01*
X34358Y28752D01*
X34372Y28773D01*
X34385Y28798D01*
X34395Y28825D01*
X34404Y28855D01*
X34410Y28889D01*
X34413Y28925D01*
X34414Y28965D01*
X34412Y29019D01*
X34405Y29066D01*
X34393Y29107D01*
X34377Y29140D01*
X34357Y29169D01*
X34336Y29192D01*
X34312Y29210D01*
X34286Y29223D01*
X34264Y29229D01*
X34235Y29234D01*
X34201Y29237D01*
X34161Y29237D01*
X34161Y29323D01*
X34163Y29323D01*
X34203Y29323D01*
X34238Y29321D01*
X34268Y29317D01*
X34292Y29313D01*
X34323Y29304D01*
X34350Y29293D01*
X34376Y29278D01*
X34399Y29261D01*
X34426Y29235D01*
X34449Y29205D01*
X34469Y29173D01*
X34485Y29136D01*
X34498Y29097D01*
X34507Y29055D01*
X34512Y29011D01*
X34514Y28964D01*
X34512Y28923D01*
X34509Y28885D01*
X34503Y28850D01*
X34494Y28817D01*
X34484Y28786D01*
X34472Y28758D01*
X34459Y28733D01*
X34445Y28711D01*
X34429Y28691D01*
X34413Y28673D01*
X34396Y28658D01*
X34378Y28645D01*
X34360Y28634D01*
X34339Y28624D01*
X34316Y28615D01*
X34292Y28608D01*
X34265Y28603D01*
X34237Y28599D01*
X34207Y28597D01*
X34175Y28596D01*
X33912Y28596D01*
X33912Y28596D01*
X32729Y26341D02*
X32729Y26427D01*
X33037Y26427D01*
X33037Y26157D01*
X33001Y26131D01*
X32965Y26108D01*
X32928Y26088D01*
X32890Y26072D01*
X32852Y26060D01*
X32814Y26051D01*
X32775Y26045D01*
X32736Y26044D01*
X32683Y26046D01*
X32633Y26055D01*
X32586Y26069D01*
X32541Y26089D01*
X32500Y26115D01*
X32464Y26146D01*
X32434Y26181D01*
X32409Y26222D01*
X32389Y26267D01*
X32375Y26314D01*
X32367Y26364D01*
X32364Y26416D01*
X32367Y26468D01*
X32375Y26519D01*
X32389Y26567D01*
X32408Y26614D01*
X32433Y26657D01*
X32463Y26695D01*
X32497Y26726D01*
X32536Y26751D01*
X32579Y26771D01*
X32626Y26785D01*
X32675Y26793D01*
X32728Y26796D01*
X32767Y26794D01*
X32803Y26789D01*
X32838Y26781D01*
X32871Y26770D01*
X32901Y26756D01*
X32928Y26740D01*
X32951Y26721D01*
X32971Y26699D01*
X32988Y26674D01*
X33003Y26646D01*
X33015Y26615D01*
X33026Y26580D01*
X32939Y26556D01*
X32930Y26582D01*
X32921Y26606D01*
X32910Y26626D01*
X32898Y26643D01*
X32885Y26658D01*
X32869Y26672D01*
X32850Y26684D01*
X32829Y26694D01*
X32806Y26703D01*
X32781Y26709D01*
X32756Y26712D01*
X32729Y26713D01*
X32697Y26712D01*
X32667Y26708D01*
X32640Y26702D01*
X32615Y26693D01*
X32592Y26682D01*
X32571Y26670D01*
X32553Y26656D01*
X32537Y26640D01*
X32523Y26624D01*
X32511Y26606D01*
X32500Y26588D01*
X32491Y26568D01*
X32479Y26534D01*
X32470Y26498D01*
X32465Y26461D01*
X32463Y26422D01*
X32465Y26375D01*
X32472Y26333D01*
X32482Y26294D01*
X32497Y26259D01*
X32515Y26229D01*
X32538Y26202D01*
X32564Y26180D01*
X32594Y26162D01*
X32627Y26148D01*
X32660Y26138D01*
X32695Y26132D01*
X32730Y26130D01*
X32761Y26132D01*
X32792Y26136D01*
X32822Y26144D01*
X32852Y26154D01*
X32880Y26167D01*
X32905Y26179D01*
X32925Y26192D01*
X32943Y26206D01*
X32943Y26341D01*
X32729Y26341D01*
X32729Y26341D01*
X33178Y26056D02*
X33178Y26783D01*
X33276Y26783D01*
X33658Y26212D01*
X33658Y26783D01*
X33751Y26783D01*
X33751Y26056D01*
X33652Y26056D01*
X33270Y26628D01*
X33270Y26056D01*
X33178Y26056D01*
X33178Y26056D01*
X33912Y26056D02*
X33912Y26783D01*
X34161Y26783D01*
X34161Y26697D01*
X34009Y26697D01*
X34009Y26142D01*
X34009Y26142D01*
X34164Y26142D01*
X34198Y26143D01*
X34228Y26145D01*
X34254Y26149D01*
X34277Y26155D01*
X34296Y26163D01*
X34314Y26171D01*
X34329Y26181D01*
X34342Y26193D01*
X34358Y26212D01*
X34372Y26233D01*
X34385Y26258D01*
X34395Y26285D01*
X34404Y26315D01*
X34410Y26349D01*
X34413Y26385D01*
X34414Y26425D01*
X34412Y26479D01*
X34405Y26526D01*
X34393Y26567D01*
X34377Y26600D01*
X34357Y26629D01*
X34336Y26652D01*
X34312Y26670D01*
X34286Y26683D01*
X34264Y26689D01*
X34235Y26694D01*
X34201Y26697D01*
X34161Y26697D01*
X34161Y26783D01*
X34163Y26783D01*
X34203Y26783D01*
X34238Y26781D01*
X34268Y26777D01*
X34292Y26773D01*
X34323Y26764D01*
X34350Y26753D01*
X34376Y26738D01*
X34399Y26721D01*
X34426Y26695D01*
X34449Y26665D01*
X34469Y26633D01*
X34485Y26596D01*
X34498Y26557D01*
X34507Y26515D01*
X34512Y26471D01*
X34514Y26424D01*
X34512Y26383D01*
X34509Y26345D01*
X34503Y26310D01*
X34494Y26277D01*
X34484Y26246D01*
X34472Y26218D01*
X34459Y26193D01*
X34445Y26171D01*
X34429Y26151D01*
X34413Y26133D01*
X34396Y26118D01*
X34378Y26105D01*
X34360Y26094D01*
X34339Y26084D01*
X34316Y26075D01*
X34292Y26068D01*
X34265Y26063D01*
X34237Y26059D01*
X34207Y26057D01*
X34175Y26056D01*
X33912Y26056D01*
X33912Y26056D01*
X32729Y23801D02*
X32729Y23887D01*
X33037Y23887D01*
X33037Y23617D01*
X33001Y23591D01*
X32965Y23568D01*
X32928Y23548D01*
X32890Y23532D01*
X32852Y23520D01*
X32814Y23511D01*
X32775Y23505D01*
X32736Y23504D01*
X32683Y23506D01*
X32633Y23515D01*
X32586Y23529D01*
X32541Y23549D01*
X32500Y23575D01*
X32464Y23606D01*
X32434Y23641D01*
X32409Y23682D01*
X32389Y23727D01*
X32375Y23774D01*
X32367Y23824D01*
X32364Y23876D01*
X32367Y23928D01*
X32375Y23979D01*
X32389Y24027D01*
X32408Y24074D01*
X32433Y24117D01*
X32463Y24155D01*
X32497Y24186D01*
X32536Y24211D01*
X32579Y24231D01*
X32626Y24245D01*
X32675Y24253D01*
X32728Y24256D01*
X32767Y24254D01*
X32803Y24249D01*
X32838Y24241D01*
X32871Y24230D01*
X32901Y24216D01*
X32928Y24200D01*
X32951Y24181D01*
X32971Y24159D01*
X32988Y24134D01*
X33003Y24106D01*
X33015Y24075D01*
X33026Y24040D01*
X32939Y24016D01*
X32930Y24042D01*
X32921Y24066D01*
X32910Y24086D01*
X32898Y24103D01*
X32885Y24118D01*
X32869Y24132D01*
X32850Y24144D01*
X32829Y24154D01*
X32806Y24163D01*
X32781Y24169D01*
X32756Y24172D01*
X32729Y24173D01*
X32697Y24172D01*
X32667Y24168D01*
X32640Y24162D01*
X32615Y24153D01*
X32592Y24142D01*
X32571Y24130D01*
X32553Y24116D01*
X32537Y24100D01*
X32523Y24084D01*
X32511Y24066D01*
X32500Y24048D01*
X32491Y24028D01*
X32479Y23994D01*
X32470Y23958D01*
X32465Y23921D01*
X32463Y23882D01*
X32465Y23835D01*
X32472Y23793D01*
X32482Y23754D01*
X32497Y23719D01*
X32515Y23689D01*
X32538Y23662D01*
X32564Y23640D01*
X32594Y23622D01*
X32627Y23608D01*
X32660Y23598D01*
X32695Y23592D01*
X32730Y23590D01*
X32761Y23592D01*
X32792Y23596D01*
X32822Y23604D01*
X32852Y23614D01*
X32880Y23627D01*
X32905Y23639D01*
X32925Y23652D01*
X32943Y23666D01*
X32943Y23801D01*
X32729Y23801D01*
X32729Y23801D01*
X33178Y23516D02*
X33178Y24243D01*
X33276Y24243D01*
X33658Y23672D01*
X33658Y24243D01*
X33751Y24243D01*
X33751Y23516D01*
X33652Y23516D01*
X33270Y24087D01*
X33270Y23516D01*
X33178Y23516D01*
X33178Y23516D01*
X33912Y23516D02*
X33912Y24243D01*
X34161Y24243D01*
X34161Y24157D01*
X34009Y24157D01*
X34009Y23602D01*
X34009Y23602D01*
X34164Y23602D01*
X34198Y23603D01*
X34228Y23605D01*
X34254Y23609D01*
X34277Y23615D01*
X34296Y23623D01*
X34314Y23631D01*
X34329Y23641D01*
X34342Y23653D01*
X34358Y23672D01*
X34372Y23693D01*
X34385Y23718D01*
X34395Y23745D01*
X34404Y23775D01*
X34410Y23809D01*
X34413Y23845D01*
X34414Y23885D01*
X34412Y23939D01*
X34405Y23986D01*
X34393Y24027D01*
X34377Y24060D01*
X34357Y24089D01*
X34336Y24112D01*
X34312Y24130D01*
X34286Y24143D01*
X34264Y24149D01*
X34235Y24154D01*
X34201Y24157D01*
X34161Y24157D01*
X34161Y24243D01*
X34163Y24243D01*
X34203Y24243D01*
X34238Y24241D01*
X34268Y24237D01*
X34292Y24233D01*
X34323Y24224D01*
X34350Y24213D01*
X34376Y24198D01*
X34399Y24181D01*
X34426Y24155D01*
X34449Y24125D01*
X34469Y24093D01*
X34485Y24056D01*
X34498Y24017D01*
X34507Y23975D01*
X34512Y23931D01*
X34514Y23884D01*
X34512Y23843D01*
X34509Y23805D01*
X34503Y23770D01*
X34494Y23737D01*
X34484Y23706D01*
X34472Y23678D01*
X34459Y23653D01*
X34445Y23631D01*
X34429Y23611D01*
X34413Y23593D01*
X34396Y23578D01*
X34378Y23565D01*
X34360Y23554D01*
X34339Y23544D01*
X34316Y23535D01*
X34292Y23528D01*
X34265Y23523D01*
X34237Y23519D01*
X34207Y23517D01*
X34175Y23516D01*
X33912Y23516D01*
X33912Y23516D01*
X20543Y20840D02*
X20543Y21039D01*
X20345Y21039D01*
X20345Y21122D01*
X20543Y21122D01*
X20543Y21320D01*
X20628Y21320D01*
X20628Y21122D01*
X20826Y21122D01*
X20826Y21039D01*
X20628Y21039D01*
X20628Y20840D01*
X20543Y20840D01*
X20543Y20840D01*
X21261Y20722D02*
X21171Y20722D01*
X21171Y21291D01*
X21154Y21276D01*
X21134Y21260D01*
X21112Y21245D01*
X21087Y21230D01*
X21061Y21215D01*
X21037Y21203D01*
X21014Y21192D01*
X20993Y21183D01*
X20993Y21270D01*
X21029Y21288D01*
X21063Y21309D01*
X21095Y21331D01*
X21124Y21355D01*
X21150Y21380D01*
X21172Y21404D01*
X21189Y21428D01*
X21203Y21452D01*
X21261Y21452D01*
X21261Y20722D01*
X21261Y20722D01*
X21959Y20808D02*
X21959Y20722D01*
X21478Y20722D01*
X21478Y20738D01*
X21480Y20754D01*
X21484Y20769D01*
X21488Y20784D01*
X21499Y20808D01*
X21512Y20833D01*
X21528Y20857D01*
X21547Y20881D01*
X21570Y20905D01*
X21597Y20932D01*
X21628Y20961D01*
X21664Y20991D01*
X21719Y21037D01*
X21763Y21078D01*
X21799Y21114D01*
X21824Y21145D01*
X21843Y21173D01*
X21856Y21200D01*
X21863Y21227D01*
X21866Y21252D01*
X21864Y21278D01*
X21856Y21301D01*
X21845Y21323D01*
X21828Y21342D01*
X21808Y21358D01*
X21784Y21369D01*
X21758Y21376D01*
X21729Y21378D01*
X21698Y21376D01*
X21671Y21369D01*
X21647Y21357D01*
X21626Y21340D01*
X21609Y21318D01*
X21597Y21293D01*
X21589Y21265D01*
X21587Y21232D01*
X21495Y21242D01*
X21503Y21290D01*
X21517Y21332D01*
X21538Y21368D01*
X21566Y21398D01*
X21599Y21422D01*
X21638Y21439D01*
X21682Y21449D01*
X21731Y21452D01*
X21781Y21449D01*
X21825Y21438D01*
X21863Y21420D01*
X21897Y21394D01*
X21923Y21363D01*
X21942Y21329D01*
X21954Y21292D01*
X21958Y21250D01*
X21957Y21229D01*
X21953Y21207D01*
X21948Y21186D01*
X21940Y21165D01*
X21929Y21143D01*
X21916Y21121D01*
X21900Y21099D01*
X21881Y21076D01*
X21856Y21050D01*
X21825Y21020D01*
X21788Y20986D01*
X21743Y20948D01*
X21706Y20917D01*
X21677Y20891D01*
X21655Y20871D01*
X21640Y20856D01*
X21629Y20844D01*
X21619Y20832D01*
X21610Y20820D01*
X21602Y20808D01*
X21959Y20808D01*
X21959Y20808D01*
X22299Y20722D02*
X22017Y21449D01*
X22121Y21449D01*
X22310Y20921D01*
X22321Y20890D01*
X22331Y20859D01*
X22340Y20830D01*
X22348Y20802D01*
X22357Y20832D01*
X22366Y20861D01*
X22377Y20891D01*
X22387Y20921D01*
X22584Y21449D01*
X22682Y21449D01*
X22397Y20722D01*
X22299Y20722D01*
X22299Y20722D01*
X21108Y18554D02*
X21108Y18753D01*
X20910Y18753D01*
X20910Y18836D01*
X21108Y18836D01*
X21108Y19034D01*
X21193Y19034D01*
X21193Y18836D01*
X21391Y18836D01*
X21391Y18753D01*
X21193Y18753D01*
X21193Y18554D01*
X21108Y18554D01*
X21108Y18554D01*
X21489Y18627D02*
X21583Y18634D01*
X21590Y18602D01*
X21600Y18574D01*
X21614Y18551D01*
X21632Y18531D01*
X21652Y18516D01*
X21673Y18506D01*
X21697Y18499D01*
X21723Y18497D01*
X21754Y18500D01*
X21783Y18509D01*
X21809Y18524D01*
X21832Y18546D01*
X21852Y18572D01*
X21866Y18602D01*
X21874Y18636D01*
X21877Y18675D01*
X21874Y18711D01*
X21866Y18743D01*
X21853Y18771D01*
X21834Y18795D01*
X21811Y18814D01*
X21784Y18828D01*
X21755Y18837D01*
X21722Y18839D01*
X21701Y18838D01*
X21681Y18834D01*
X21662Y18828D01*
X21644Y18820D01*
X21627Y18809D01*
X21613Y18797D01*
X21600Y18784D01*
X21589Y18769D01*
X21505Y18780D01*
X21576Y19153D01*
X21937Y19153D01*
X21937Y19068D01*
X21647Y19068D01*
X21608Y18873D01*
X21641Y18893D01*
X21675Y18907D01*
X21710Y18915D01*
X21745Y18918D01*
X21791Y18914D01*
X21833Y18902D01*
X21872Y18881D01*
X21906Y18852D01*
X21935Y18817D01*
X21955Y18777D01*
X21968Y18732D01*
X21972Y18683D01*
X21968Y18635D01*
X21957Y18591D01*
X21939Y18550D01*
X21914Y18512D01*
X21876Y18473D01*
X21831Y18446D01*
X21780Y18429D01*
X21723Y18424D01*
X21676Y18427D01*
X21633Y18437D01*
X21595Y18455D01*
X21561Y18479D01*
X21533Y18509D01*
X21512Y18544D01*
X21497Y18583D01*
X21489Y18627D01*
X21489Y18627D01*
X22299Y18436D02*
X22017Y19163D01*
X22121Y19163D01*
X22310Y18635D01*
X22321Y18604D01*
X22331Y18573D01*
X22340Y18544D01*
X22348Y18516D01*
X22357Y18546D01*
X22366Y18575D01*
X22377Y18605D01*
X22387Y18635D01*
X22584Y19163D01*
X22682Y19163D01*
X22397Y18436D01*
X22299Y18436D01*
X22299Y18436D01*
X20851Y23801D02*
X20851Y23887D01*
X21159Y23887D01*
X21159Y23617D01*
X21123Y23591D01*
X21087Y23568D01*
X21050Y23548D01*
X21013Y23532D01*
X20975Y23520D01*
X20936Y23511D01*
X20897Y23505D01*
X20858Y23504D01*
X20806Y23506D01*
X20756Y23515D01*
X20708Y23529D01*
X20663Y23549D01*
X20622Y23575D01*
X20586Y23606D01*
X20556Y23641D01*
X20531Y23682D01*
X20511Y23727D01*
X20497Y23774D01*
X20489Y23824D01*
X20486Y23876D01*
X20489Y23928D01*
X20497Y23979D01*
X20511Y24027D01*
X20531Y24074D01*
X20555Y24117D01*
X20585Y24155D01*
X20619Y24186D01*
X20658Y24211D01*
X20702Y24231D01*
X20748Y24245D01*
X20798Y24253D01*
X20850Y24256D01*
X20889Y24254D01*
X20926Y24249D01*
X20960Y24241D01*
X20993Y24230D01*
X21023Y24216D01*
X21050Y24200D01*
X21073Y24181D01*
X21093Y24159D01*
X21110Y24134D01*
X21125Y24106D01*
X21138Y24075D01*
X21148Y24040D01*
X21061Y24016D01*
X21053Y24042D01*
X21043Y24066D01*
X21032Y24086D01*
X21021Y24103D01*
X21007Y24118D01*
X20991Y24132D01*
X20972Y24144D01*
X20951Y24154D01*
X20928Y24163D01*
X20904Y24169D01*
X20878Y24172D01*
X20851Y24173D01*
X20819Y24172D01*
X20789Y24168D01*
X20762Y24162D01*
X20737Y24153D01*
X20714Y24142D01*
X20693Y24130D01*
X20675Y24116D01*
X20659Y24100D01*
X20645Y24084D01*
X20633Y24066D01*
X20622Y24048D01*
X20613Y24028D01*
X20601Y23994D01*
X20592Y23958D01*
X20587Y23921D01*
X20586Y23882D01*
X20588Y23835D01*
X20594Y23793D01*
X20604Y23754D01*
X20619Y23719D01*
X20638Y23689D01*
X20660Y23662D01*
X20686Y23640D01*
X20717Y23622D01*
X20749Y23608D01*
X20782Y23598D01*
X20817Y23592D01*
X20852Y23590D01*
X20883Y23592D01*
X20914Y23596D01*
X20945Y23604D01*
X20974Y23614D01*
X21002Y23627D01*
X21027Y23639D01*
X21048Y23652D01*
X21065Y23666D01*
X21065Y23801D01*
X20851Y23801D01*
X20851Y23801D01*
X21300Y23516D02*
X21300Y24243D01*
X21399Y24243D01*
X21781Y23672D01*
X21781Y24243D01*
X21873Y24243D01*
X21873Y23516D01*
X21774Y23516D01*
X21392Y24087D01*
X21392Y23516D01*
X21300Y23516D01*
X21300Y23516D01*
X22035Y23516D02*
X22035Y24243D01*
X22284Y24243D01*
X22284Y24157D01*
X22131Y24157D01*
X22131Y23602D01*
X22131Y23602D01*
X22286Y23602D01*
X22320Y23603D01*
X22350Y23605D01*
X22377Y23609D01*
X22399Y23615D01*
X22418Y23623D01*
X22436Y23631D01*
X22451Y23641D01*
X22464Y23653D01*
X22480Y23672D01*
X22495Y23693D01*
X22507Y23718D01*
X22518Y23745D01*
X22526Y23775D01*
X22532Y23809D01*
X22536Y23845D01*
X22537Y23885D01*
X22534Y23939D01*
X22527Y23986D01*
X22516Y24027D01*
X22499Y24060D01*
X22480Y24089D01*
X22458Y24112D01*
X22434Y24130D01*
X22408Y24143D01*
X22386Y24149D01*
X22358Y24154D01*
X22324Y24157D01*
X22284Y24157D01*
X22284Y24243D01*
X22285Y24243D01*
X22325Y24243D01*
X22360Y24241D01*
X22390Y24237D01*
X22415Y24233D01*
X22445Y24224D01*
X22473Y24213D01*
X22498Y24198D01*
X22521Y24181D01*
X22548Y24155D01*
X22572Y24125D01*
X22591Y24093D01*
X22607Y24056D01*
X22620Y24017D01*
X22629Y23975D01*
X22634Y23931D01*
X22636Y23884D01*
X22635Y23843D01*
X22631Y23805D01*
X22625Y23770D01*
X22617Y23737D01*
X22606Y23706D01*
X22594Y23678D01*
X22581Y23653D01*
X22567Y23631D01*
X22551Y23611D01*
X22535Y23593D01*
X22518Y23578D01*
X22501Y23565D01*
X22482Y23554D01*
X22461Y23544D01*
X22438Y23535D01*
X22414Y23528D01*
X22388Y23523D01*
X22359Y23519D01*
X22329Y23517D01*
X22297Y23516D01*
X22035Y23516D01*
X22035Y23516D01*
X20851Y26341D02*
X20851Y26427D01*
X21159Y26427D01*
X21159Y26157D01*
X21123Y26131D01*
X21087Y26108D01*
X21050Y26088D01*
X21013Y26072D01*
X20975Y26060D01*
X20936Y26051D01*
X20897Y26045D01*
X20858Y26044D01*
X20806Y26046D01*
X20756Y26055D01*
X20708Y26069D01*
X20663Y26089D01*
X20622Y26115D01*
X20586Y26146D01*
X20556Y26181D01*
X20531Y26222D01*
X20511Y26267D01*
X20497Y26314D01*
X20489Y26364D01*
X20486Y26416D01*
X20489Y26468D01*
X20497Y26519D01*
X20511Y26567D01*
X20531Y26614D01*
X20555Y26657D01*
X20585Y26695D01*
X20619Y26726D01*
X20658Y26751D01*
X20702Y26771D01*
X20748Y26785D01*
X20798Y26793D01*
X20850Y26796D01*
X20889Y26794D01*
X20926Y26789D01*
X20960Y26781D01*
X20993Y26770D01*
X21023Y26756D01*
X21050Y26740D01*
X21073Y26721D01*
X21093Y26699D01*
X21110Y26674D01*
X21125Y26646D01*
X21138Y26615D01*
X21148Y26580D01*
X21061Y26556D01*
X21053Y26582D01*
X21043Y26606D01*
X21032Y26626D01*
X21021Y26643D01*
X21007Y26658D01*
X20991Y26672D01*
X20972Y26684D01*
X20951Y26694D01*
X20928Y26703D01*
X20904Y26709D01*
X20878Y26712D01*
X20851Y26713D01*
X20819Y26712D01*
X20789Y26708D01*
X20762Y26702D01*
X20737Y26693D01*
X20714Y26682D01*
X20693Y26670D01*
X20675Y26656D01*
X20659Y26640D01*
X20645Y26624D01*
X20633Y26606D01*
X20622Y26588D01*
X20613Y26568D01*
X20601Y26534D01*
X20592Y26498D01*
X20587Y26461D01*
X20586Y26422D01*
X20588Y26375D01*
X20594Y26333D01*
X20604Y26294D01*
X20619Y26259D01*
X20638Y26229D01*
X20660Y26202D01*
X20686Y26180D01*
X20717Y26162D01*
X20749Y26148D01*
X20782Y26138D01*
X20817Y26132D01*
X20852Y26130D01*
X20883Y26132D01*
X20914Y26136D01*
X20945Y26144D01*
X20974Y26154D01*
X21002Y26167D01*
X21027Y26179D01*
X21048Y26192D01*
X21065Y26206D01*
X21065Y26341D01*
X20851Y26341D01*
X20851Y26341D01*
X21300Y26056D02*
X21300Y26783D01*
X21399Y26783D01*
X21781Y26212D01*
X21781Y26783D01*
X21873Y26783D01*
X21873Y26056D01*
X21774Y26056D01*
X21392Y26628D01*
X21392Y26056D01*
X21300Y26056D01*
X21300Y26056D01*
X22035Y26056D02*
X22035Y26783D01*
X22284Y26783D01*
X22284Y26697D01*
X22131Y26697D01*
X22131Y26142D01*
X22131Y26142D01*
X22286Y26142D01*
X22320Y26143D01*
X22350Y26145D01*
X22377Y26149D01*
X22399Y26155D01*
X22418Y26163D01*
X22436Y26171D01*
X22451Y26181D01*
X22464Y26193D01*
X22480Y26212D01*
X22495Y26233D01*
X22507Y26258D01*
X22518Y26285D01*
X22526Y26315D01*
X22532Y26349D01*
X22536Y26385D01*
X22537Y26425D01*
X22534Y26479D01*
X22527Y26526D01*
X22516Y26567D01*
X22499Y26600D01*
X22480Y26629D01*
X22458Y26652D01*
X22434Y26670D01*
X22408Y26683D01*
X22386Y26689D01*
X22358Y26694D01*
X22324Y26697D01*
X22284Y26697D01*
X22284Y26783D01*
X22285Y26783D01*
X22325Y26783D01*
X22360Y26781D01*
X22390Y26777D01*
X22415Y26773D01*
X22445Y26764D01*
X22473Y26753D01*
X22498Y26738D01*
X22521Y26721D01*
X22548Y26695D01*
X22572Y26665D01*
X22591Y26633D01*
X22607Y26596D01*
X22620Y26557D01*
X22629Y26515D01*
X22634Y26471D01*
X22636Y26424D01*
X22635Y26383D01*
X22631Y26345D01*
X22625Y26310D01*
X22617Y26277D01*
X22606Y26246D01*
X22594Y26218D01*
X22581Y26193D01*
X22567Y26171D01*
X22551Y26151D01*
X22535Y26133D01*
X22518Y26118D01*
X22501Y26105D01*
X22482Y26094D01*
X22461Y26084D01*
X22438Y26075D01*
X22414Y26068D01*
X22388Y26063D01*
X22359Y26059D01*
X22329Y26057D01*
X22297Y26056D01*
X22035Y26056D01*
X22035Y26056D01*
X20851Y28881D02*
X20851Y28967D01*
X21159Y28967D01*
X21159Y28697D01*
X21123Y28671D01*
X21087Y28648D01*
X21050Y28628D01*
X21013Y28612D01*
X20975Y28600D01*
X20936Y28591D01*
X20897Y28585D01*
X20858Y28584D01*
X20806Y28586D01*
X20756Y28595D01*
X20708Y28609D01*
X20663Y28629D01*
X20622Y28655D01*
X20586Y28686D01*
X20556Y28721D01*
X20531Y28762D01*
X20511Y28807D01*
X20497Y28854D01*
X20489Y28904D01*
X20486Y28956D01*
X20489Y29008D01*
X20497Y29059D01*
X20511Y29107D01*
X20531Y29154D01*
X20555Y29197D01*
X20585Y29235D01*
X20619Y29266D01*
X20658Y29291D01*
X20702Y29311D01*
X20748Y29325D01*
X20798Y29333D01*
X20850Y29336D01*
X20889Y29334D01*
X20926Y29329D01*
X20960Y29321D01*
X20993Y29310D01*
X21023Y29296D01*
X21050Y29280D01*
X21073Y29261D01*
X21093Y29239D01*
X21110Y29214D01*
X21125Y29186D01*
X21138Y29155D01*
X21148Y29120D01*
X21061Y29096D01*
X21053Y29122D01*
X21043Y29146D01*
X21032Y29166D01*
X21021Y29183D01*
X21007Y29198D01*
X20991Y29212D01*
X20972Y29224D01*
X20951Y29234D01*
X20928Y29243D01*
X20904Y29249D01*
X20878Y29252D01*
X20851Y29253D01*
X20819Y29252D01*
X20789Y29248D01*
X20762Y29242D01*
X20737Y29233D01*
X20714Y29222D01*
X20693Y29210D01*
X20675Y29196D01*
X20659Y29180D01*
X20645Y29164D01*
X20633Y29146D01*
X20622Y29128D01*
X20613Y29108D01*
X20601Y29074D01*
X20592Y29038D01*
X20587Y29001D01*
X20586Y28962D01*
X20588Y28915D01*
X20594Y28873D01*
X20604Y28834D01*
X20619Y28799D01*
X20638Y28769D01*
X20660Y28742D01*
X20686Y28720D01*
X20717Y28702D01*
X20749Y28688D01*
X20782Y28678D01*
X20817Y28672D01*
X20852Y28670D01*
X20883Y28672D01*
X20914Y28676D01*
X20945Y28684D01*
X20974Y28694D01*
X21002Y28707D01*
X21027Y28719D01*
X21048Y28732D01*
X21065Y28746D01*
X21065Y28881D01*
X20851Y28881D01*
X20851Y28881D01*
X21300Y28596D02*
X21300Y29323D01*
X21399Y29323D01*
X21781Y28752D01*
X21781Y29323D01*
X21873Y29323D01*
X21873Y28596D01*
X21774Y28596D01*
X21392Y29168D01*
X21392Y28596D01*
X21300Y28596D01*
X21300Y28596D01*
X22035Y28596D02*
X22035Y29323D01*
X22284Y29323D01*
X22284Y29237D01*
X22131Y29237D01*
X22131Y28682D01*
X22131Y28682D01*
X22286Y28682D01*
X22320Y28683D01*
X22350Y28685D01*
X22377Y28689D01*
X22399Y28695D01*
X22418Y28703D01*
X22436Y28711D01*
X22451Y28721D01*
X22464Y28733D01*
X22480Y28752D01*
X22495Y28773D01*
X22507Y28798D01*
X22518Y28825D01*
X22526Y28855D01*
X22532Y28889D01*
X22536Y28925D01*
X22537Y28965D01*
X22534Y29019D01*
X22527Y29066D01*
X22516Y29107D01*
X22499Y29140D01*
X22480Y29169D01*
X22458Y29192D01*
X22434Y29210D01*
X22408Y29223D01*
X22386Y29229D01*
X22358Y29234D01*
X22324Y29237D01*
X22284Y29237D01*
X22284Y29323D01*
X22285Y29323D01*
X22325Y29323D01*
X22360Y29321D01*
X22390Y29317D01*
X22415Y29313D01*
X22445Y29304D01*
X22473Y29293D01*
X22498Y29278D01*
X22521Y29261D01*
X22548Y29235D01*
X22572Y29205D01*
X22591Y29173D01*
X22607Y29136D01*
X22620Y29097D01*
X22629Y29055D01*
X22634Y29011D01*
X22636Y28964D01*
X22635Y28923D01*
X22631Y28885D01*
X22625Y28850D01*
X22617Y28817D01*
X22606Y28786D01*
X22594Y28758D01*
X22581Y28733D01*
X22567Y28711D01*
X22551Y28691D01*
X22535Y28673D01*
X22518Y28658D01*
X22501Y28645D01*
X22482Y28634D01*
X22461Y28624D01*
X22438Y28615D01*
X22414Y28608D01*
X22388Y28603D01*
X22359Y28599D01*
X22329Y28597D01*
X22297Y28596D01*
X22035Y28596D01*
X22035Y28596D01*
X20576Y31354D02*
X20576Y31444D01*
X20850Y31444D01*
X20850Y31354D01*
X20576Y31354D01*
X20576Y31354D01*
X21261Y31136D02*
X21171Y31136D01*
X21171Y31705D01*
X21154Y31690D01*
X21134Y31674D01*
X21112Y31659D01*
X21087Y31644D01*
X21061Y31629D01*
X21037Y31617D01*
X21014Y31606D01*
X20993Y31597D01*
X20993Y31684D01*
X21029Y31702D01*
X21063Y31723D01*
X21095Y31745D01*
X21124Y31769D01*
X21150Y31794D01*
X21172Y31818D01*
X21189Y31842D01*
X21203Y31866D01*
X21261Y31866D01*
X21261Y31136D01*
X21261Y31136D01*
X21959Y31222D02*
X21959Y31136D01*
X21478Y31136D01*
X21478Y31152D01*
X21480Y31168D01*
X21484Y31183D01*
X21488Y31198D01*
X21499Y31222D01*
X21512Y31247D01*
X21528Y31271D01*
X21547Y31295D01*
X21570Y31319D01*
X21597Y31346D01*
X21628Y31375D01*
X21664Y31405D01*
X21719Y31451D01*
X21763Y31492D01*
X21799Y31528D01*
X21824Y31559D01*
X21843Y31587D01*
X21856Y31614D01*
X21863Y31641D01*
X21866Y31666D01*
X21864Y31692D01*
X21856Y31715D01*
X21845Y31737D01*
X21828Y31756D01*
X21808Y31772D01*
X21784Y31783D01*
X21758Y31790D01*
X21729Y31792D01*
X21698Y31790D01*
X21671Y31783D01*
X21647Y31771D01*
X21626Y31754D01*
X21609Y31732D01*
X21597Y31707D01*
X21589Y31679D01*
X21587Y31646D01*
X21495Y31656D01*
X21503Y31704D01*
X21517Y31746D01*
X21538Y31782D01*
X21566Y31812D01*
X21599Y31836D01*
X21638Y31853D01*
X21682Y31863D01*
X21731Y31866D01*
X21781Y31863D01*
X21825Y31852D01*
X21863Y31834D01*
X21897Y31808D01*
X21923Y31777D01*
X21942Y31743D01*
X21954Y31706D01*
X21958Y31664D01*
X21957Y31643D01*
X21953Y31621D01*
X21948Y31600D01*
X21940Y31579D01*
X21929Y31557D01*
X21916Y31535D01*
X21900Y31513D01*
X21881Y31490D01*
X21856Y31464D01*
X21825Y31434D01*
X21788Y31400D01*
X21743Y31362D01*
X21706Y31331D01*
X21677Y31305D01*
X21655Y31285D01*
X21640Y31270D01*
X21629Y31258D01*
X21619Y31246D01*
X21610Y31234D01*
X21602Y31222D01*
X21959Y31222D01*
X21959Y31222D01*
X22299Y31136D02*
X22017Y31863D01*
X22121Y31863D01*
X22310Y31335D01*
X22321Y31304D01*
X22331Y31273D01*
X22340Y31244D01*
X22348Y31216D01*
X22357Y31246D01*
X22366Y31275D01*
X22377Y31305D01*
X22387Y31335D01*
X22584Y31863D01*
X22682Y31863D01*
X22397Y31136D01*
X22299Y31136D01*
X22299Y31136D01*
G37*
%LNtop silkscreen component 8aa19a9a475ab06d*%
D13*
X9839Y23875D02*
X9839Y26125D01*
X18161Y26125*
X18161Y23875*
X9839Y23875*
%LNtop silkscreen component 42d088f49832dd14*%
G75*
G03*
X40300Y31885D02*
X37700Y31885I-1300J-1386D01*
G75*
X37700Y29120D02*
X40300Y29120I1300J1386D01*
G36*
G01*
X36470Y30734D02*
X36470Y30538D01*
X36664Y30538D01*
X36664Y30456D01*
X36470Y30456D01*
X36470Y30261D01*
X36387Y30261D01*
X36387Y30456D01*
X36192Y30456D01*
X36192Y30538D01*
X36387Y30538D01*
X36387Y30734D01*
X36470Y30734D01*
X36470Y30734D01*
G37*
%LNtop silkscreen component 066798f312f84cc6*%
G75*
G03*
X40300Y23885D02*
X37700Y23885I-1300J-1386D01*
G75*
X37700Y21120D02*
X40300Y21120I1300J1386D01*
G36*
G01*
X36470Y22734D02*
X36470Y22538D01*
X36664Y22538D01*
X36664Y22456D01*
X36470Y22456D01*
X36470Y22261D01*
X36387Y22261D01*
X36387Y22456D01*
X36192Y22456D01*
X36192Y22538D01*
X36387Y22538D01*
X36387Y22734D01*
X36470Y22734D01*
X36470Y22734D01*
G37*
%LNtop silkscreen component 8aa9dbe17b2694dd*%
X9200Y12075D02*
X9200Y32925D01*
X18800Y32925*
X18800Y12075*
X9200Y12075*
D14*
X1000Y27500D02*
X1000Y32500D01*
X9000Y32500*
X9000Y27500*
X1000Y27500*
X1000Y22500D02*
X1000Y27500D01*
X9000Y27500*
X9000Y22500*
X1000Y22500*
X1000Y12500D02*
X1000Y17500D01*
X9000Y17500*
X9000Y12500*
X1000Y12500*
X1000Y17500D02*
X1000Y22500D01*
X9000Y22500*
X9000Y17500*
X1000Y17500*
G36*
X3839Y29930D02*
X3839Y30106D01*
X4379Y30106D01*
X4379Y29930D01*
X3839Y29930D01*
X3839Y29930D01*
X5186Y29500D02*
X5011Y29500D01*
X5011Y30620D01*
X4976Y30590D01*
X4937Y30560D01*
X4893Y30529D01*
X4844Y30499D01*
X4794Y30471D01*
X4746Y30446D01*
X4701Y30425D01*
X4659Y30408D01*
X4659Y30578D01*
X4731Y30615D01*
X4797Y30655D01*
X4859Y30699D01*
X4917Y30746D01*
X4968Y30795D01*
X5011Y30843D01*
X5046Y30891D01*
X5073Y30938D01*
X5186Y30938D01*
X5186Y29500D01*
X5186Y29500D01*
X6561Y29669D02*
X6561Y29500D01*
X5614Y29500D01*
X5615Y29531D01*
X5618Y29562D01*
X5625Y29592D01*
X5635Y29622D01*
X5656Y29670D01*
X5682Y29718D01*
X5713Y29765D01*
X5750Y29813D01*
X5795Y29861D01*
X5848Y29914D01*
X5910Y29970D01*
X5980Y30029D01*
X6088Y30120D01*
X6176Y30201D01*
X6245Y30272D01*
X6296Y30333D01*
X6332Y30388D01*
X6357Y30441D01*
X6373Y30493D01*
X6378Y30544D01*
X6373Y30594D01*
X6359Y30640D01*
X6336Y30682D01*
X6303Y30720D01*
X6263Y30752D01*
X6217Y30774D01*
X6166Y30788D01*
X6108Y30792D01*
X6048Y30787D01*
X5994Y30773D01*
X5946Y30749D01*
X5905Y30716D01*
X5872Y30674D01*
X5848Y30625D01*
X5833Y30569D01*
X5828Y30505D01*
X5647Y30523D01*
X5663Y30619D01*
X5692Y30702D01*
X5733Y30773D01*
X5787Y30832D01*
X5853Y30878D01*
X5929Y30911D01*
X6015Y30931D01*
X6112Y30938D01*
X6210Y30930D01*
X6297Y30909D01*
X6373Y30873D01*
X6438Y30823D01*
X6491Y30763D01*
X6529Y30695D01*
X6551Y30621D01*
X6559Y30540D01*
X6556Y30497D01*
X6550Y30455D01*
X6539Y30413D01*
X6523Y30371D01*
X6503Y30329D01*
X6477Y30286D01*
X6445Y30242D01*
X6407Y30196D01*
X6359Y30146D01*
X6298Y30087D01*
X6224Y30020D01*
X6136Y29944D01*
X6064Y29883D01*
X6006Y29833D01*
X5962Y29793D01*
X5933Y29764D01*
X5911Y29740D01*
X5892Y29717D01*
X5874Y29693D01*
X5858Y29669D01*
X6561Y29669D01*
X6561Y29669D01*
X7229Y29500D02*
X6675Y30932D01*
X6880Y30932D01*
X7252Y29892D01*
X7273Y29830D01*
X7293Y29771D01*
X7311Y29713D01*
X7327Y29657D01*
X7344Y29716D01*
X7363Y29774D01*
X7383Y29833D01*
X7404Y29892D01*
X7791Y30932D01*
X7984Y30932D01*
X7424Y29500D01*
X7229Y29500D01*
X7229Y29500D01*
X4380Y25062D02*
X4380Y25229D01*
X4986Y25230D01*
X4986Y24699D01*
X4916Y24647D01*
X4844Y24602D01*
X4772Y24563D01*
X4698Y24532D01*
X4623Y24507D01*
X4548Y24490D01*
X4471Y24479D01*
X4393Y24476D01*
X4290Y24481D01*
X4192Y24498D01*
X4099Y24526D01*
X4010Y24566D01*
X3929Y24616D01*
X3859Y24676D01*
X3799Y24747D01*
X3750Y24827D01*
X3711Y24915D01*
X3684Y25008D01*
X3668Y25106D01*
X3662Y25209D01*
X3667Y25312D01*
X3684Y25411D01*
X3711Y25507D01*
X3749Y25599D01*
X3798Y25684D01*
X3856Y25757D01*
X3924Y25818D01*
X4001Y25868D01*
X4086Y25907D01*
X4177Y25934D01*
X4275Y25951D01*
X4379Y25956D01*
X4455Y25953D01*
X4527Y25943D01*
X4595Y25928D01*
X4660Y25906D01*
X4719Y25878D01*
X4772Y25846D01*
X4817Y25808D01*
X4856Y25766D01*
X4890Y25717D01*
X4919Y25662D01*
X4944Y25600D01*
X4965Y25531D01*
X4794Y25484D01*
X4777Y25536D01*
X4758Y25582D01*
X4737Y25622D01*
X4714Y25656D01*
X4687Y25686D01*
X4656Y25713D01*
X4619Y25736D01*
X4577Y25756D01*
X4531Y25773D01*
X4483Y25785D01*
X4433Y25792D01*
X4380Y25794D01*
X4317Y25791D01*
X4259Y25784D01*
X4205Y25772D01*
X4155Y25754D01*
X4110Y25733D01*
X4070Y25709D01*
X4034Y25681D01*
X4002Y25650D01*
X3975Y25617D01*
X3951Y25583D01*
X3930Y25547D01*
X3912Y25509D01*
X3888Y25441D01*
X3871Y25370D01*
X3861Y25297D01*
X3857Y25221D01*
X3861Y25129D01*
X3874Y25045D01*
X3894Y24969D01*
X3923Y24900D01*
X3960Y24840D01*
X4004Y24788D01*
X4056Y24744D01*
X4115Y24709D01*
X4179Y24682D01*
X4245Y24662D01*
X4313Y24650D01*
X4383Y24646D01*
X4444Y24649D01*
X4504Y24658D01*
X4564Y24673D01*
X4623Y24694D01*
X4678Y24718D01*
X4726Y24743D01*
X4767Y24768D01*
X4801Y24795D01*
X4801Y25062D01*
X4380Y25062D01*
X4380Y25062D01*
X5264Y24500D02*
X5264Y25932D01*
X5458Y25932D01*
X6210Y24808D01*
X6210Y25932D01*
X6392Y25932D01*
X6392Y24500D01*
X6197Y24500D01*
X5445Y25625D01*
X5445Y24500D01*
X5264Y24500D01*
X5264Y24500D01*
X6710Y24500D02*
X6710Y25932D01*
X7200Y25932D01*
X7200Y25763D01*
X6899Y25763D01*
X6899Y24669D01*
X6899Y24669D01*
X7205Y24669D01*
X7272Y24671D01*
X7331Y24676D01*
X7383Y24684D01*
X7427Y24695D01*
X7465Y24710D01*
X7500Y24727D01*
X7530Y24747D01*
X7556Y24770D01*
X7587Y24806D01*
X7616Y24849D01*
X7640Y24897D01*
X7661Y24951D01*
X7677Y25011D01*
X7689Y25077D01*
X7696Y25149D01*
X7698Y25227D01*
X7694Y25332D01*
X7680Y25425D01*
X7657Y25505D01*
X7624Y25572D01*
X7586Y25627D01*
X7543Y25672D01*
X7496Y25708D01*
X7445Y25733D01*
X7401Y25746D01*
X7346Y25755D01*
X7279Y25761D01*
X7200Y25763D01*
X7200Y25932D01*
X7203Y25932D01*
X7282Y25930D01*
X7350Y25927D01*
X7409Y25920D01*
X7458Y25911D01*
X7517Y25894D01*
X7572Y25871D01*
X7622Y25843D01*
X7668Y25809D01*
X7721Y25757D01*
X7767Y25700D01*
X7806Y25635D01*
X7837Y25564D01*
X7862Y25487D01*
X7880Y25404D01*
X7890Y25317D01*
X7894Y25224D01*
X7891Y25144D01*
X7884Y25070D01*
X7872Y25000D01*
X7855Y24935D01*
X7835Y24874D01*
X7812Y24819D01*
X7786Y24770D01*
X7758Y24726D01*
X7727Y24687D01*
X7695Y24652D01*
X7662Y24622D01*
X7627Y24596D01*
X7590Y24574D01*
X7549Y24555D01*
X7505Y24538D01*
X7457Y24524D01*
X7405Y24514D01*
X7349Y24506D01*
X7290Y24502D01*
X7227Y24500D01*
X6710Y24500D01*
X6710Y24500D01*
X3774Y19731D02*
X3774Y20124D01*
X3385Y20124D01*
X3385Y20288D01*
X3774Y20288D01*
X3774Y20678D01*
X3940Y20678D01*
X3940Y20288D01*
X4330Y20288D01*
X4330Y20124D01*
X3940Y20124D01*
X3940Y19731D01*
X3774Y19731D01*
X3774Y19731D01*
X5186Y19500D02*
X5011Y19500D01*
X5011Y20620D01*
X4976Y20590D01*
X4937Y20560D01*
X4893Y20529D01*
X4844Y20499D01*
X4794Y20471D01*
X4746Y20446D01*
X4701Y20425D01*
X4659Y20408D01*
X4659Y20578D01*
X4731Y20615D01*
X4797Y20655D01*
X4859Y20699D01*
X4917Y20746D01*
X4968Y20795D01*
X5011Y20843D01*
X5046Y20891D01*
X5073Y20938D01*
X5186Y20938D01*
X5186Y19500D01*
X5186Y19500D01*
X6561Y19669D02*
X6561Y19500D01*
X5614Y19500D01*
X5615Y19531D01*
X5618Y19562D01*
X5625Y19592D01*
X5635Y19622D01*
X5656Y19670D01*
X5682Y19718D01*
X5713Y19765D01*
X5750Y19813D01*
X5795Y19861D01*
X5848Y19914D01*
X5910Y19970D01*
X5980Y20029D01*
X6088Y20120D01*
X6176Y20201D01*
X6245Y20272D01*
X6296Y20333D01*
X6332Y20388D01*
X6357Y20441D01*
X6373Y20493D01*
X6378Y20544D01*
X6373Y20594D01*
X6359Y20640D01*
X6336Y20682D01*
X6303Y20720D01*
X6263Y20752D01*
X6217Y20774D01*
X6166Y20788D01*
X6108Y20792D01*
X6048Y20787D01*
X5994Y20773D01*
X5946Y20749D01*
X5905Y20716D01*
X5872Y20674D01*
X5848Y20625D01*
X5833Y20569D01*
X5828Y20505D01*
X5647Y20523D01*
X5663Y20619D01*
X5692Y20702D01*
X5733Y20773D01*
X5787Y20832D01*
X5853Y20878D01*
X5929Y20911D01*
X6015Y20931D01*
X6112Y20938D01*
X6210Y20930D01*
X6297Y20909D01*
X6373Y20873D01*
X6438Y20823D01*
X6491Y20763D01*
X6529Y20695D01*
X6551Y20621D01*
X6559Y20540D01*
X6556Y20497D01*
X6550Y20455D01*
X6539Y20413D01*
X6523Y20371D01*
X6503Y20329D01*
X6477Y20286D01*
X6445Y20242D01*
X6407Y20196D01*
X6359Y20146D01*
X6298Y20087D01*
X6224Y20020D01*
X6136Y19944D01*
X6064Y19883D01*
X6006Y19833D01*
X5962Y19793D01*
X5933Y19764D01*
X5911Y19740D01*
X5892Y19717D01*
X5874Y19693D01*
X5858Y19669D01*
X6561Y19669D01*
X6561Y19669D01*
X7229Y19500D02*
X6675Y20932D01*
X6880Y20932D01*
X7252Y19892D01*
X7273Y19830D01*
X7293Y19771D01*
X7311Y19713D01*
X7327Y19657D01*
X7344Y19716D01*
X7363Y19774D01*
X7383Y19833D01*
X7404Y19892D01*
X7791Y20932D01*
X7984Y20932D01*
X7424Y19500D01*
X7229Y19500D01*
X7229Y19500D01*
X4887Y14731D02*
X4887Y15124D01*
X4497Y15124D01*
X4497Y15288D01*
X4887Y15288D01*
X4887Y15678D01*
X5053Y15678D01*
X5053Y15288D01*
X5442Y15288D01*
X5442Y15124D01*
X5053Y15124D01*
X5053Y14731D01*
X4887Y14731D01*
X4887Y14731D01*
X5637Y14875D02*
X5821Y14891D01*
X5835Y14827D01*
X5855Y14773D01*
X5882Y14726D01*
X5916Y14688D01*
X5956Y14658D01*
X5999Y14637D01*
X6046Y14624D01*
X6097Y14620D01*
X6158Y14626D01*
X6214Y14644D01*
X6265Y14674D01*
X6311Y14716D01*
X6350Y14768D01*
X6377Y14827D01*
X6394Y14895D01*
X6399Y14970D01*
X6394Y15041D01*
X6378Y15104D01*
X6352Y15160D01*
X6315Y15207D01*
X6269Y15245D01*
X6217Y15272D01*
X6159Y15289D01*
X6094Y15294D01*
X6052Y15292D01*
X6013Y15284D01*
X5976Y15272D01*
X5940Y15255D01*
X5908Y15235D01*
X5879Y15211D01*
X5854Y15185D01*
X5833Y15155D01*
X5668Y15177D01*
X5807Y15912D01*
X6519Y15912D01*
X6519Y15744D01*
X5947Y15744D01*
X5870Y15359D01*
X5935Y15399D01*
X6002Y15427D01*
X6071Y15444D01*
X6141Y15449D01*
X6231Y15441D01*
X6313Y15417D01*
X6389Y15376D01*
X6457Y15319D01*
X6513Y15250D01*
X6554Y15171D01*
X6578Y15083D01*
X6586Y14985D01*
X6579Y14891D01*
X6558Y14804D01*
X6522Y14724D01*
X6473Y14649D01*
X6397Y14573D01*
X6310Y14519D01*
X6209Y14486D01*
X6097Y14476D01*
X6003Y14482D01*
X5919Y14503D01*
X5844Y14537D01*
X5778Y14585D01*
X5723Y14644D01*
X5681Y14712D01*
X5652Y14789D01*
X5637Y14875D01*
X5637Y14875D01*
X7229Y14500D02*
X6675Y15932D01*
X6880Y15932D01*
X7252Y14892D01*
X7273Y14830D01*
X7293Y14771D01*
X7311Y14713D01*
X7327Y14657D01*
X7344Y14716D01*
X7363Y14774D01*
X7383Y14833D01*
X7404Y14892D01*
X7791Y15932D01*
X7984Y15932D01*
X7424Y14500D01*
X7229Y14500D01*
X7229Y14500D01*
G37*
%LNtop silkscreen component 02f0c27996d92107*%
D13*
G75*
G03*
X40300Y15885D02*
X37700Y15885I-1300J-1386D01*
G75*
X37700Y13120D02*
X40300Y13120I1300J1386D01*
G36*
G01*
X36470Y14734D02*
X36470Y14538D01*
X36664Y14538D01*
X36664Y14456D01*
X36470Y14456D01*
X36470Y14261D01*
X36387Y14261D01*
X36387Y14456D01*
X36192Y14456D01*
X36192Y14538D01*
X36387Y14538D01*
X36387Y14734D01*
X36470Y14734D01*
X36470Y14734D01*
G37*
%LNtop silkscreen component a6d66b3445016952*%
X9839Y28875D02*
X9839Y31125D01*
X18161Y31125*
X18161Y28875*
X9839Y28875*
%LNtop silkscreen component eaa60ad4603cc8b7*%
X9839Y18875D02*
X9839Y21125D01*
X18161Y21125*
X18161Y18875*
X9839Y18875*
%LNtop silkscreen component c63f2cfbf6a36a1e*%
X9839Y13875D02*
X9839Y16125D01*
X18161Y16125*
X18161Y13875*
X9839Y13875*
%LNtext*%
G36*
X15536Y3608D02*
X15558Y3470D01*
X15526Y3464D01*
X15496Y3459D01*
X15467Y3457D01*
X15440Y3456D01*
X15400Y3458D01*
X15365Y3463D01*
X15334Y3471D01*
X15308Y3483D01*
X15287Y3497D01*
X15269Y3514D01*
X15254Y3533D01*
X15242Y3554D01*
X15234Y3581D01*
X15228Y3622D01*
X15225Y3674D01*
X15223Y3738D01*
X15223Y4268D01*
X15109Y4268D01*
X15109Y4390D01*
X15223Y4390D01*
X15223Y4618D01*
X15379Y4712D01*
X15379Y4390D01*
X15536Y4390D01*
X15536Y4268D01*
X15379Y4268D01*
X15379Y3729D01*
X15379Y3699D01*
X15381Y3674D01*
X15383Y3656D01*
X15387Y3643D01*
X15392Y3634D01*
X15398Y3626D01*
X15405Y3619D01*
X15414Y3613D01*
X15424Y3608D01*
X15437Y3605D01*
X15451Y3602D01*
X15467Y3602D01*
X15481Y3602D01*
X15497Y3603D01*
X15516Y3605D01*
X15536Y3608D01*
X15536Y3608D01*
X16320Y3765D02*
X16481Y3745D01*
X16458Y3678D01*
X16427Y3619D01*
X16387Y3568D01*
X16340Y3525D01*
X16285Y3491D01*
X16222Y3467D01*
X16153Y3452D01*
X16076Y3447D01*
X15980Y3455D01*
X15895Y3478D01*
X15820Y3517D01*
X15755Y3572D01*
X15703Y3640D01*
X15666Y3721D01*
X15644Y3815D01*
X15637Y3921D01*
X15644Y4031D01*
X15667Y4128D01*
X15704Y4212D01*
X15756Y4282D01*
X15821Y4339D01*
X15894Y4379D01*
X15976Y4403D01*
X16067Y4411D01*
X16080Y4410D01*
X16069Y4282D01*
X16017Y4278D01*
X15970Y4264D01*
X15927Y4242D01*
X15888Y4210D01*
X15855Y4171D01*
X15831Y4126D01*
X15815Y4075D01*
X15807Y4018D01*
X15807Y4018D01*
X16322Y4018D01*
X16314Y4072D01*
X16302Y4119D01*
X16284Y4159D01*
X16263Y4192D01*
X16222Y4232D01*
X16177Y4260D01*
X16126Y4277D01*
X16069Y4282D01*
X16080Y4410D01*
X16155Y4403D01*
X16235Y4379D01*
X16306Y4340D01*
X16369Y4285D01*
X16421Y4216D01*
X16457Y4133D01*
X16479Y4038D01*
X16487Y3931D01*
X16486Y3923D01*
X16486Y3913D01*
X16486Y3902D01*
X16486Y3889D01*
X15798Y3889D01*
X15807Y3818D01*
X15824Y3755D01*
X15850Y3701D01*
X15884Y3656D01*
X15925Y3621D01*
X15971Y3596D01*
X16021Y3581D01*
X16077Y3576D01*
X16118Y3578D01*
X16156Y3587D01*
X16192Y3601D01*
X16223Y3621D01*
X16252Y3647D01*
X16278Y3679D01*
X16300Y3719D01*
X16320Y3765D01*
X16320Y3765D01*
X16676Y3468D02*
X16676Y4390D01*
X16816Y4390D01*
X16816Y4250D01*
X16843Y4295D01*
X16868Y4332D01*
X16893Y4360D01*
X16916Y4380D01*
X16939Y4393D01*
X16964Y4403D01*
X16989Y4409D01*
X17016Y4411D01*
X17056Y4408D01*
X17096Y4398D01*
X17136Y4383D01*
X17177Y4360D01*
X17123Y4215D01*
X17094Y4230D01*
X17066Y4241D01*
X17037Y4247D01*
X17008Y4249D01*
X16983Y4247D01*
X16960Y4242D01*
X16937Y4232D01*
X16916Y4219D01*
X16897Y4202D01*
X16881Y4182D01*
X16868Y4159D01*
X16858Y4133D01*
X16847Y4090D01*
X16839Y4046D01*
X16834Y3999D01*
X16832Y3951D01*
X16832Y3468D01*
X16676Y3468D01*
X16676Y3468D01*
X17270Y3468D02*
X17270Y4390D01*
X17409Y4390D01*
X17409Y4261D01*
X17433Y4293D01*
X17460Y4322D01*
X17491Y4347D01*
X17525Y4370D01*
X17562Y4388D01*
X17602Y4401D01*
X17644Y4408D01*
X17689Y4411D01*
X17738Y4408D01*
X17782Y4400D01*
X17822Y4387D01*
X17857Y4368D01*
X17887Y4345D01*
X17913Y4317D01*
X17934Y4285D01*
X17949Y4249D01*
X18008Y4320D01*
X18075Y4370D01*
X18151Y4401D01*
X18234Y4411D01*
X18299Y4406D01*
X18355Y4392D01*
X18404Y4368D01*
X18445Y4335D01*
X18477Y4292D01*
X18500Y4238D01*
X18514Y4175D01*
X18519Y4101D01*
X18519Y3468D01*
X18363Y3468D01*
X18363Y4049D01*
X18363Y4092D01*
X18360Y4129D01*
X18355Y4160D01*
X18348Y4184D01*
X18339Y4203D01*
X18327Y4221D01*
X18312Y4237D01*
X18293Y4250D01*
X18272Y4261D01*
X18250Y4269D01*
X18225Y4274D01*
X18199Y4275D01*
X18153Y4271D01*
X18110Y4259D01*
X18072Y4239D01*
X18038Y4211D01*
X18010Y4174D01*
X17990Y4127D01*
X17978Y4070D01*
X17974Y4004D01*
X17974Y3468D01*
X17817Y3468D01*
X17817Y4067D01*
X17815Y4116D01*
X17808Y4158D01*
X17796Y4194D01*
X17779Y4223D01*
X17757Y4246D01*
X17729Y4262D01*
X17695Y4272D01*
X17654Y4275D01*
X17622Y4273D01*
X17591Y4267D01*
X17561Y4256D01*
X17532Y4241D01*
X17506Y4221D01*
X17484Y4198D01*
X17466Y4171D01*
X17451Y4139D01*
X17440Y4102D01*
X17432Y4057D01*
X17427Y4006D01*
X17426Y3946D01*
X17426Y3468D01*
X17270Y3468D01*
X17270Y3468D01*
X18752Y3468D02*
X18752Y4390D01*
X18908Y4390D01*
X18908Y3468D01*
X18752Y3468D01*
X18752Y3468D01*
X18752Y4561D02*
X18752Y4741D01*
X18908Y4741D01*
X18908Y4561D01*
X18752Y4561D01*
X18752Y4561D01*
X19146Y3468D02*
X19146Y4390D01*
X19286Y4390D01*
X19286Y4259D01*
X19343Y4325D01*
X19410Y4373D01*
X19489Y4401D01*
X19580Y4411D01*
X19621Y4409D01*
X19660Y4403D01*
X19697Y4394D01*
X19733Y4381D01*
X19766Y4365D01*
X19794Y4346D01*
X19818Y4325D01*
X19838Y4302D01*
X19854Y4277D01*
X19867Y4249D01*
X19878Y4219D01*
X19886Y4187D01*
X19890Y4161D01*
X19893Y4127D01*
X19894Y4085D01*
X19895Y4035D01*
X19895Y3468D01*
X19739Y3468D01*
X19739Y4029D01*
X19738Y4074D01*
X19734Y4112D01*
X19728Y4145D01*
X19720Y4172D01*
X19710Y4194D01*
X19695Y4214D01*
X19677Y4232D01*
X19656Y4247D01*
X19632Y4260D01*
X19605Y4268D01*
X19577Y4274D01*
X19547Y4275D01*
X19499Y4271D01*
X19454Y4260D01*
X19412Y4240D01*
X19374Y4212D01*
X19343Y4173D01*
X19320Y4120D01*
X19306Y4053D01*
X19302Y3972D01*
X19302Y3468D01*
X19146Y3468D01*
X19146Y3468D01*
X20736Y3582D02*
X20693Y3548D01*
X20687Y3543D01*
X20627Y3631D01*
X20656Y3656D01*
X20679Y3685D01*
X20698Y3717D01*
X20709Y3747D01*
X20717Y3783D01*
X20722Y3825D01*
X20723Y3873D01*
X20723Y3931D01*
X20723Y3931D01*
X20675Y3914D01*
X20617Y3899D01*
X20548Y3885D01*
X20468Y3872D01*
X20423Y3865D01*
X20386Y3857D01*
X20355Y3849D01*
X20332Y3840D01*
X20313Y3831D01*
X20296Y3819D01*
X20282Y3805D01*
X20270Y3790D01*
X20260Y3772D01*
X20254Y3754D01*
X20250Y3735D01*
X20248Y3715D01*
X20251Y3685D01*
X20260Y3658D01*
X20275Y3633D01*
X20296Y3611D01*
X20322Y3593D01*
X20354Y3580D01*
X20391Y3572D01*
X20434Y3570D01*
X20478Y3572D01*
X20519Y3579D01*
X20558Y3592D01*
X20595Y3609D01*
X20627Y3631D01*
X20687Y3543D01*
X20651Y3519D01*
X20610Y3495D01*
X20569Y3478D01*
X20528Y3464D01*
X20486Y3455D01*
X20442Y3449D01*
X20397Y3447D01*
X20325Y3452D01*
X20262Y3466D01*
X20208Y3489D01*
X20163Y3521D01*
X20127Y3561D01*
X20102Y3606D01*
X20087Y3656D01*
X20082Y3711D01*
X20084Y3744D01*
X20089Y3776D01*
X20099Y3806D01*
X20112Y3835D01*
X20129Y3861D01*
X20148Y3885D01*
X20169Y3906D01*
X20193Y3925D01*
X20219Y3941D01*
X20246Y3954D01*
X20275Y3966D01*
X20306Y3976D01*
X20332Y3982D01*
X20363Y3988D01*
X20401Y3994D01*
X20444Y3999D01*
X20533Y4011D01*
X20609Y4024D01*
X20672Y4038D01*
X20723Y4053D01*
X20724Y4068D01*
X20724Y4079D01*
X20724Y4088D01*
X20724Y4094D01*
X20721Y4138D01*
X20713Y4175D01*
X20699Y4205D01*
X20680Y4229D01*
X20646Y4252D01*
X20605Y4268D01*
X20557Y4278D01*
X20502Y4281D01*
X20450Y4279D01*
X20406Y4272D01*
X20369Y4260D01*
X20339Y4243D01*
X20314Y4220D01*
X20293Y4189D01*
X20276Y4151D01*
X20261Y4106D01*
X20108Y4127D01*
X20121Y4174D01*
X20136Y4216D01*
X20155Y4253D01*
X20177Y4285D01*
X20204Y4314D01*
X20235Y4339D01*
X20273Y4360D01*
X20315Y4378D01*
X20362Y4393D01*
X20413Y4403D01*
X20467Y4409D01*
X20524Y4411D01*
X20581Y4409D01*
X20631Y4404D01*
X20677Y4395D01*
X20716Y4383D01*
X20751Y4368D01*
X20780Y4352D01*
X20805Y4333D01*
X20825Y4313D01*
X20841Y4291D01*
X20854Y4266D01*
X20865Y4238D01*
X20873Y4207D01*
X20877Y4183D01*
X20879Y4151D01*
X20881Y4111D01*
X20881Y4063D01*
X20881Y3854D01*
X20882Y3755D01*
X20884Y3676D01*
X20887Y3618D01*
X20891Y3579D01*
X20897Y3550D01*
X20906Y3522D01*
X20917Y3495D01*
X20931Y3468D01*
X20767Y3468D01*
X20756Y3493D01*
X20747Y3521D01*
X20741Y3550D01*
X20736Y3582D01*
X20736Y3582D01*
X21120Y3468D02*
X21120Y4741D01*
X21276Y4741D01*
X21276Y3468D01*
X21120Y3468D01*
X21120Y3468D01*
X21456Y3743D02*
X21610Y3768D01*
X21620Y3724D01*
X21635Y3685D01*
X21656Y3653D01*
X21683Y3625D01*
X21716Y3603D01*
X21754Y3588D01*
X21799Y3579D01*
X21849Y3576D01*
X21899Y3578D01*
X21943Y3587D01*
X21979Y3600D01*
X22009Y3619D01*
X22032Y3642D01*
X22048Y3667D01*
X22058Y3694D01*
X22061Y3722D01*
X22058Y3747D01*
X22049Y3770D01*
X22035Y3789D01*
X22015Y3806D01*
X21993Y3817D01*
X21959Y3829D01*
X21913Y3843D01*
X21855Y3859D01*
X21776Y3880D01*
X21710Y3899D01*
X21657Y3917D01*
X21617Y3934D01*
X21586Y3951D01*
X21559Y3972D01*
X21535Y3995D01*
X21516Y4021D01*
X21501Y4050D01*
X21490Y4080D01*
X21484Y4112D01*
X21482Y4145D01*
X21484Y4175D01*
X21489Y4205D01*
X21498Y4232D01*
X21510Y4259D01*
X21526Y4284D01*
X21543Y4307D01*
X21564Y4328D01*
X21587Y4347D01*
X21607Y4360D01*
X21630Y4371D01*
X21657Y4382D01*
X21686Y4392D01*
X21718Y4400D01*
X21752Y4406D01*
X21786Y4410D01*
X21821Y4411D01*
X21874Y4409D01*
X21923Y4403D01*
X21969Y4393D01*
X22012Y4380D01*
X22050Y4363D01*
X22083Y4343D01*
X22111Y4320D01*
X22133Y4295D01*
X22151Y4266D01*
X22166Y4233D01*
X22178Y4195D01*
X22187Y4152D01*
X22034Y4131D01*
X22026Y4165D01*
X22014Y4195D01*
X21996Y4220D01*
X21974Y4242D01*
X21946Y4260D01*
X21913Y4272D01*
X21876Y4280D01*
X21833Y4282D01*
X21783Y4280D01*
X21740Y4273D01*
X21706Y4262D01*
X21679Y4247D01*
X21659Y4228D01*
X21644Y4208D01*
X21636Y4187D01*
X21633Y4163D01*
X21634Y4149D01*
X21638Y4135D01*
X21644Y4121D01*
X21652Y4109D01*
X21663Y4097D01*
X21677Y4086D01*
X21693Y4076D01*
X21712Y4067D01*
X21729Y4061D01*
X21758Y4053D01*
X21798Y4041D01*
X21850Y4027D01*
X21927Y4006D01*
X21991Y3987D01*
X22042Y3970D01*
X22081Y3955D01*
X22112Y3939D01*
X22140Y3920D01*
X22164Y3898D01*
X22184Y3873D01*
X22201Y3844D01*
X22212Y3812D01*
X22219Y3777D01*
X22222Y3739D01*
X22219Y3700D01*
X22210Y3663D01*
X22196Y3627D01*
X22176Y3592D01*
X22151Y3559D01*
X22120Y3531D01*
X22085Y3506D01*
X22044Y3485D01*
X22000Y3468D01*
X21953Y3457D01*
X21903Y3450D01*
X21850Y3447D01*
X21765Y3452D01*
X21692Y3466D01*
X21629Y3489D01*
X21576Y3522D01*
X21533Y3564D01*
X21499Y3615D01*
X21473Y3674D01*
X21456Y3743D01*
X21456Y3743D01*
X23503Y3582D02*
X23460Y3548D01*
X23454Y3543D01*
X23394Y3631D01*
X23423Y3656D01*
X23446Y3685D01*
X23465Y3717D01*
X23476Y3747D01*
X23484Y3783D01*
X23488Y3825D01*
X23490Y3873D01*
X23490Y3931D01*
X23490Y3931D01*
X23442Y3914D01*
X23384Y3899D01*
X23315Y3885D01*
X23235Y3872D01*
X23190Y3865D01*
X23153Y3857D01*
X23122Y3849D01*
X23098Y3840D01*
X23080Y3831D01*
X23063Y3819D01*
X23049Y3805D01*
X23037Y3790D01*
X23027Y3772D01*
X23021Y3754D01*
X23016Y3735D01*
X23015Y3715D01*
X23018Y3685D01*
X23027Y3658D01*
X23042Y3633D01*
X23062Y3611D01*
X23089Y3593D01*
X23121Y3580D01*
X23158Y3572D01*
X23201Y3570D01*
X23245Y3572D01*
X23286Y3579D01*
X23325Y3592D01*
X23362Y3609D01*
X23394Y3631D01*
X23454Y3543D01*
X23418Y3519D01*
X23376Y3495D01*
X23336Y3478D01*
X23295Y3464D01*
X23253Y3455D01*
X23209Y3449D01*
X23164Y3447D01*
X23092Y3452D01*
X23029Y3466D01*
X22975Y3489D01*
X22930Y3521D01*
X22894Y3561D01*
X22869Y3606D01*
X22854Y3656D01*
X22848Y3711D01*
X22850Y3744D01*
X22856Y3776D01*
X22866Y3806D01*
X22879Y3835D01*
X22896Y3861D01*
X22915Y3885D01*
X22936Y3906D01*
X22960Y3925D01*
X22986Y3941D01*
X23013Y3954D01*
X23042Y3966D01*
X23072Y3976D01*
X23098Y3982D01*
X23130Y3988D01*
X23168Y3994D01*
X23211Y3999D01*
X23300Y4011D01*
X23376Y4024D01*
X23439Y4038D01*
X23490Y4053D01*
X23490Y4068D01*
X23491Y4079D01*
X23491Y4088D01*
X23491Y4094D01*
X23488Y4138D01*
X23480Y4175D01*
X23466Y4205D01*
X23447Y4229D01*
X23413Y4252D01*
X23372Y4268D01*
X23324Y4278D01*
X23269Y4281D01*
X23217Y4279D01*
X23173Y4272D01*
X23136Y4260D01*
X23106Y4243D01*
X23081Y4220D01*
X23060Y4189D01*
X23042Y4151D01*
X23028Y4106D01*
X22875Y4127D01*
X22887Y4174D01*
X22903Y4216D01*
X22922Y4253D01*
X22944Y4285D01*
X22970Y4314D01*
X23002Y4339D01*
X23039Y4360D01*
X23082Y4378D01*
X23129Y4393D01*
X23179Y4403D01*
X23234Y4409D01*
X23291Y4411D01*
X23347Y4409D01*
X23398Y4404D01*
X23443Y4395D01*
X23483Y4383D01*
X23518Y4368D01*
X23547Y4352D01*
X23572Y4333D01*
X23592Y4313D01*
X23608Y4291D01*
X23621Y4266D01*
X23632Y4238D01*
X23640Y4207D01*
X23644Y4183D01*
X23646Y4151D01*
X23648Y4111D01*
X23648Y4063D01*
X23648Y3854D01*
X23649Y3755D01*
X23651Y3676D01*
X23654Y3618D01*
X23658Y3579D01*
X23664Y3550D01*
X23673Y3522D01*
X23684Y3495D01*
X23698Y3468D01*
X23534Y3468D01*
X23523Y3493D01*
X23514Y3521D01*
X23508Y3550D01*
X23503Y3582D01*
X23503Y3582D01*
X24488Y3468D02*
X24488Y3584D01*
X24417Y3657D01*
X24419Y3659D01*
X24451Y3707D01*
X24473Y3765D01*
X24487Y3835D01*
X24491Y3915D01*
X24486Y4003D01*
X24473Y4079D01*
X24450Y4142D01*
X24418Y4193D01*
X24380Y4232D01*
X24337Y4259D01*
X24290Y4276D01*
X24238Y4281D01*
X24188Y4276D01*
X24143Y4260D01*
X24101Y4234D01*
X24064Y4196D01*
X24034Y4148D01*
X24012Y4087D01*
X23999Y4014D01*
X23994Y3928D01*
X23994Y3928D01*
X23999Y3845D01*
X24013Y3773D01*
X24036Y3713D01*
X24069Y3663D01*
X24108Y3625D01*
X24150Y3598D01*
X24196Y3581D01*
X24245Y3576D01*
X24295Y3581D01*
X24340Y3597D01*
X24382Y3623D01*
X24417Y3657D01*
X24488Y3584D01*
X24439Y3524D01*
X24380Y3481D01*
X24310Y3456D01*
X24231Y3447D01*
X24177Y3451D01*
X24125Y3462D01*
X24075Y3481D01*
X24028Y3508D01*
X23984Y3541D01*
X23946Y3581D01*
X23913Y3626D01*
X23885Y3678D01*
X23862Y3734D01*
X23847Y3795D01*
X23837Y3859D01*
X23834Y3928D01*
X23837Y3996D01*
X23845Y4060D01*
X23860Y4121D01*
X23880Y4179D01*
X23906Y4232D01*
X23937Y4278D01*
X23975Y4318D01*
X24018Y4351D01*
X24065Y4377D01*
X24115Y4396D01*
X24168Y4407D01*
X24224Y4411D01*
X24264Y4409D01*
X24302Y4402D01*
X24338Y4391D01*
X24372Y4376D01*
X24403Y4357D01*
X24431Y4335D01*
X24456Y4311D01*
X24478Y4284D01*
X24478Y4741D01*
X24633Y4741D01*
X24633Y3468D01*
X24488Y3468D01*
X24488Y3468D01*
X25481Y3582D02*
X25438Y3548D01*
X25432Y3543D01*
X25372Y3631D01*
X25400Y3656D01*
X25424Y3685D01*
X25443Y3717D01*
X25454Y3747D01*
X25461Y3783D01*
X25466Y3825D01*
X25468Y3873D01*
X25468Y3931D01*
X25468Y3931D01*
X25420Y3914D01*
X25361Y3899D01*
X25292Y3885D01*
X25212Y3872D01*
X25168Y3865D01*
X25130Y3857D01*
X25100Y3849D01*
X25076Y3840D01*
X25057Y3831D01*
X25041Y3819D01*
X25027Y3805D01*
X25015Y3790D01*
X25005Y3772D01*
X24998Y3754D01*
X24994Y3735D01*
X24993Y3715D01*
X24996Y3685D01*
X25005Y3658D01*
X25019Y3633D01*
X25040Y3611D01*
X25067Y3593D01*
X25098Y3580D01*
X25136Y3572D01*
X25179Y3570D01*
X25223Y3572D01*
X25264Y3579D01*
X25303Y3592D01*
X25339Y3609D01*
X25372Y3631D01*
X25432Y3543D01*
X25396Y3519D01*
X25354Y3495D01*
X25314Y3478D01*
X25273Y3464D01*
X25230Y3455D01*
X25187Y3449D01*
X25141Y3447D01*
X25070Y3452D01*
X25007Y3466D01*
X24953Y3489D01*
X24908Y3521D01*
X24872Y3561D01*
X24847Y3606D01*
X24831Y3656D01*
X24826Y3711D01*
X24828Y3744D01*
X24834Y3776D01*
X24843Y3806D01*
X24857Y3835D01*
X24874Y3861D01*
X24893Y3885D01*
X24914Y3906D01*
X24938Y3925D01*
X24963Y3941D01*
X24991Y3954D01*
X25020Y3966D01*
X25050Y3976D01*
X25076Y3982D01*
X25108Y3988D01*
X25146Y3994D01*
X25189Y3999D01*
X25277Y4011D01*
X25353Y4024D01*
X25417Y4038D01*
X25468Y4053D01*
X25468Y4068D01*
X25468Y4079D01*
X25469Y4088D01*
X25469Y4094D01*
X25466Y4138D01*
X25458Y4175D01*
X25444Y4205D01*
X25424Y4229D01*
X25391Y4252D01*
X25350Y4268D01*
X25302Y4278D01*
X25246Y4281D01*
X25195Y4279D01*
X25151Y4272D01*
X25113Y4260D01*
X25084Y4243D01*
X25059Y4220D01*
X25038Y4189D01*
X25020Y4151D01*
X25006Y4106D01*
X24853Y4127D01*
X24865Y4174D01*
X24881Y4216D01*
X24899Y4253D01*
X24922Y4285D01*
X24948Y4314D01*
X24980Y4339D01*
X25017Y4360D01*
X25060Y4378D01*
X25107Y4393D01*
X25157Y4403D01*
X25211Y4409D01*
X25269Y4411D01*
X25325Y4409D01*
X25376Y4404D01*
X25421Y4395D01*
X25461Y4383D01*
X25495Y4368D01*
X25525Y4352D01*
X25549Y4333D01*
X25569Y4313D01*
X25585Y4291D01*
X25599Y4266D01*
X25610Y4238D01*
X25618Y4207D01*
X25621Y4183D01*
X25624Y4151D01*
X25625Y4111D01*
X25626Y4063D01*
X25626Y3854D01*
X25626Y3755D01*
X25628Y3676D01*
X25631Y3618D01*
X25636Y3579D01*
X25642Y3550D01*
X25651Y3522D01*
X25662Y3495D01*
X25675Y3468D01*
X25512Y3468D01*
X25501Y3493D01*
X25492Y3521D01*
X25485Y3550D01*
X25481Y3582D01*
X25481Y3582D01*
X25868Y3115D02*
X25868Y4390D01*
X26010Y4390D01*
X26010Y4270D01*
X26087Y4196D01*
X26086Y4195D01*
X26053Y4143D01*
X26029Y4081D01*
X26014Y4007D01*
X26009Y3924D01*
X26009Y3924D01*
X26014Y3841D01*
X26027Y3769D01*
X26050Y3709D01*
X26082Y3661D01*
X26119Y3624D01*
X26161Y3597D01*
X26207Y3581D01*
X26256Y3576D01*
X26306Y3581D01*
X26353Y3598D01*
X26395Y3625D01*
X26434Y3664D01*
X26467Y3714D01*
X26490Y3776D01*
X26504Y3850D01*
X26509Y3937D01*
X26504Y4019D01*
X26491Y4091D01*
X26468Y4151D01*
X26436Y4201D01*
X26398Y4239D01*
X26357Y4266D01*
X26312Y4283D01*
X26263Y4288D01*
X26214Y4283D01*
X26169Y4265D01*
X26126Y4236D01*
X26087Y4196D01*
X26010Y4270D01*
X26036Y4303D01*
X26064Y4332D01*
X26093Y4356D01*
X26124Y4376D01*
X26157Y4391D01*
X26194Y4402D01*
X26234Y4409D01*
X26278Y4411D01*
X26335Y4407D01*
X26389Y4396D01*
X26439Y4377D01*
X26486Y4350D01*
X26528Y4317D01*
X26565Y4277D01*
X26597Y4231D01*
X26622Y4179D01*
X26643Y4122D01*
X26657Y4063D01*
X26666Y4001D01*
X26668Y3936D01*
X26665Y3867D01*
X26656Y3801D01*
X26640Y3740D01*
X26618Y3681D01*
X26589Y3628D01*
X26555Y3581D01*
X26516Y3541D01*
X26470Y3508D01*
X26421Y3481D01*
X26371Y3462D01*
X26319Y3451D01*
X26266Y3447D01*
X26228Y3449D01*
X26192Y3455D01*
X26158Y3466D01*
X26126Y3480D01*
X26097Y3498D01*
X26070Y3517D01*
X26046Y3539D01*
X26024Y3563D01*
X26024Y3115D01*
X25868Y3115D01*
X25868Y3115D01*
X27198Y3608D02*
X27221Y3470D01*
X27188Y3464D01*
X27158Y3459D01*
X27129Y3457D01*
X27102Y3456D01*
X27062Y3458D01*
X27027Y3463D01*
X26996Y3471D01*
X26971Y3483D01*
X26949Y3497D01*
X26931Y3514D01*
X26916Y3533D01*
X26905Y3554D01*
X26896Y3581D01*
X26890Y3622D01*
X26887Y3674D01*
X26885Y3738D01*
X26885Y4268D01*
X26771Y4268D01*
X26771Y4390D01*
X26885Y4390D01*
X26885Y4618D01*
X27041Y4712D01*
X27041Y4390D01*
X27198Y4390D01*
X27198Y4268D01*
X27041Y4268D01*
X27041Y3729D01*
X27041Y3699D01*
X27043Y3674D01*
X27045Y3656D01*
X27049Y3643D01*
X27054Y3634D01*
X27060Y3626D01*
X27067Y3619D01*
X27076Y3613D01*
X27086Y3608D01*
X27099Y3605D01*
X27113Y3602D01*
X27129Y3602D01*
X27143Y3602D01*
X27160Y3603D01*
X27178Y3605D01*
X27198Y3608D01*
X27198Y3608D01*
X27982Y3765D02*
X28143Y3745D01*
X28120Y3678D01*
X28089Y3619D01*
X28049Y3568D01*
X28002Y3525D01*
X27947Y3491D01*
X27884Y3467D01*
X27815Y3452D01*
X27738Y3447D01*
X27642Y3455D01*
X27557Y3478D01*
X27482Y3517D01*
X27417Y3572D01*
X27365Y3640D01*
X27328Y3721D01*
X27306Y3815D01*
X27299Y3921D01*
X27306Y4031D01*
X27329Y4128D01*
X27366Y4212D01*
X27418Y4282D01*
X27483Y4339D01*
X27556Y4379D01*
X27638Y4403D01*
X27729Y4411D01*
X27742Y4410D01*
X27731Y4282D01*
X27679Y4278D01*
X27632Y4264D01*
X27589Y4242D01*
X27550Y4210D01*
X27517Y4171D01*
X27493Y4126D01*
X27477Y4075D01*
X27469Y4018D01*
X27469Y4018D01*
X27984Y4018D01*
X27976Y4072D01*
X27964Y4119D01*
X27947Y4159D01*
X27925Y4192D01*
X27885Y4232D01*
X27839Y4260D01*
X27788Y4277D01*
X27731Y4282D01*
X27742Y4410D01*
X27818Y4403D01*
X27897Y4379D01*
X27969Y4340D01*
X28031Y4285D01*
X28083Y4216D01*
X28119Y4133D01*
X28141Y4038D01*
X28149Y3931D01*
X28149Y3923D01*
X28148Y3913D01*
X28148Y3902D01*
X28148Y3889D01*
X27460Y3889D01*
X27469Y3818D01*
X27486Y3755D01*
X27512Y3701D01*
X27546Y3656D01*
X27587Y3621D01*
X27633Y3596D01*
X27683Y3581D01*
X27739Y3576D01*
X27780Y3578D01*
X27818Y3587D01*
X27854Y3601D01*
X27886Y3621D01*
X27914Y3647D01*
X27940Y3679D01*
X27963Y3719D01*
X27982Y3765D01*
X27982Y3765D01*
X28338Y3468D02*
X28338Y4390D01*
X28479Y4390D01*
X28479Y4250D01*
X28505Y4295D01*
X28530Y4332D01*
X28555Y4360D01*
X28578Y4380D01*
X28601Y4393D01*
X28626Y4403D01*
X28651Y4409D01*
X28678Y4411D01*
X28718Y4408D01*
X28758Y4398D01*
X28798Y4383D01*
X28839Y4360D01*
X28785Y4215D01*
X28756Y4230D01*
X28728Y4241D01*
X28699Y4247D01*
X28670Y4249D01*
X28645Y4247D01*
X28622Y4242D01*
X28599Y4232D01*
X28578Y4219D01*
X28559Y4202D01*
X28543Y4182D01*
X28530Y4159D01*
X28520Y4133D01*
X28509Y4090D01*
X28501Y4046D01*
X28496Y3999D01*
X28494Y3951D01*
X28494Y3468D01*
X28338Y3468D01*
X28338Y3468D01*
X43369Y20251D02*
X42976Y20251D01*
X42976Y19861D01*
X42812Y19861D01*
X42812Y20251D01*
X42422Y20251D01*
X42422Y20417D01*
X42812Y20417D01*
X42812Y20807D01*
X42976Y20807D01*
X42976Y20417D01*
X43369Y20417D01*
X43369Y20251D01*
X43369Y20251D01*
X43600Y21663D02*
X43600Y21487D01*
X42480Y21487D01*
X42510Y21453D01*
X42540Y21414D01*
X42571Y21370D01*
X42601Y21321D01*
X42629Y21271D01*
X42654Y21223D01*
X42675Y21178D01*
X42692Y21136D01*
X42522Y21136D01*
X42485Y21207D01*
X42445Y21274D01*
X42401Y21336D01*
X42354Y21394D01*
X42305Y21445D01*
X42257Y21488D01*
X42209Y21523D01*
X42163Y21550D01*
X42163Y21663D01*
X43600Y21663D01*
X43600Y21663D01*
X43431Y23037D02*
X43600Y23037D01*
X43600Y22091D01*
X43569Y22091D01*
X43538Y22095D01*
X43508Y22102D01*
X43478Y22111D01*
X43430Y22132D01*
X43382Y22158D01*
X43335Y22190D01*
X43288Y22227D01*
X43239Y22271D01*
X43186Y22324D01*
X43130Y22386D01*
X43071Y22457D01*
X42980Y22564D01*
X42899Y22653D01*
X42828Y22722D01*
X42767Y22773D01*
X42712Y22808D01*
X42659Y22834D01*
X42607Y22849D01*
X42556Y22855D01*
X42506Y22850D01*
X42460Y22836D01*
X42418Y22813D01*
X42380Y22780D01*
X42348Y22740D01*
X42326Y22694D01*
X42312Y22642D01*
X42308Y22585D01*
X42313Y22525D01*
X42327Y22471D01*
X42351Y22423D01*
X42384Y22382D01*
X42426Y22348D01*
X42475Y22325D01*
X42531Y22310D01*
X42595Y22305D01*
X42577Y22124D01*
X42481Y22140D01*
X42398Y22168D01*
X42327Y22210D01*
X42268Y22264D01*
X42222Y22329D01*
X42189Y22406D01*
X42169Y22492D01*
X42163Y22589D01*
X42170Y22687D01*
X42191Y22773D01*
X42227Y22850D01*
X42277Y22915D01*
X42337Y22968D01*
X42405Y23005D01*
X42479Y23028D01*
X42560Y23035D01*
X42603Y23033D01*
X42645Y23026D01*
X42687Y23015D01*
X42729Y23000D01*
X42771Y22980D01*
X42814Y22953D01*
X42858Y22921D01*
X42904Y22883D01*
X42954Y22836D01*
X43013Y22775D01*
X43080Y22700D01*
X43156Y22612D01*
X43217Y22540D01*
X43267Y22482D01*
X43307Y22439D01*
X43336Y22409D01*
X43360Y22388D01*
X43383Y22368D01*
X43407Y22351D01*
X43431Y22335D01*
X43431Y23037D01*
X43431Y23037D01*
X43600Y23706D02*
X42168Y23151D01*
X42168Y23357D01*
X43208Y23729D01*
X43270Y23750D01*
X43329Y23770D01*
X43387Y23788D01*
X43443Y23804D01*
X43384Y23821D01*
X43326Y23840D01*
X43267Y23860D01*
X43208Y23881D01*
X42168Y24268D01*
X42168Y24461D01*
X43600Y23900D01*
X43600Y23706D01*
X43600Y23706D01*
X13546Y5500D02*
X13546Y6773D01*
X14467Y6773D01*
X14467Y6623D01*
X13715Y6623D01*
X13715Y6233D01*
X14419Y6233D01*
X14419Y6083D01*
X13715Y6083D01*
X13715Y5650D01*
X14496Y5650D01*
X14496Y5500D01*
X13546Y5500D01*
X13546Y5500D01*
X15313Y5500D02*
X15313Y5635D01*
X15255Y5567D01*
X15186Y5518D01*
X15108Y5489D01*
X15021Y5479D01*
X14981Y5481D01*
X14942Y5487D01*
X14904Y5497D01*
X14868Y5510D01*
X14835Y5527D01*
X14807Y5546D01*
X14783Y5566D01*
X14763Y5589D01*
X14747Y5614D01*
X14734Y5642D01*
X14723Y5672D01*
X14715Y5705D01*
X14711Y5731D01*
X14708Y5764D01*
X14706Y5804D01*
X14705Y5851D01*
X14705Y6422D01*
X14862Y6422D01*
X14862Y5911D01*
X14862Y5854D01*
X14864Y5808D01*
X14867Y5772D01*
X14871Y5746D01*
X14881Y5717D01*
X14894Y5691D01*
X14912Y5668D01*
X14934Y5649D01*
X14959Y5634D01*
X14987Y5623D01*
X15018Y5616D01*
X15052Y5614D01*
X15087Y5616D01*
X15120Y5623D01*
X15152Y5634D01*
X15184Y5650D01*
X15212Y5669D01*
X15236Y5692D01*
X15256Y5718D01*
X15271Y5748D01*
X15282Y5782D01*
X15290Y5824D01*
X15295Y5872D01*
X15297Y5928D01*
X15297Y6422D01*
X15453Y6422D01*
X15453Y5500D01*
X15313Y5500D01*
X15313Y5500D01*
X15696Y5500D02*
X15696Y6422D01*
X15837Y6422D01*
X15837Y6282D01*
X15863Y6327D01*
X15888Y6364D01*
X15913Y6392D01*
X15936Y6412D01*
X15959Y6425D01*
X15984Y6435D01*
X16010Y6441D01*
X16036Y6443D01*
X16076Y6440D01*
X16116Y6430D01*
X16156Y6415D01*
X16197Y6392D01*
X16143Y6247D01*
X16115Y6262D01*
X16086Y6273D01*
X16057Y6279D01*
X16029Y6281D01*
X16004Y6279D01*
X15980Y6274D01*
X15958Y6264D01*
X15937Y6251D01*
X15918Y6234D01*
X15902Y6214D01*
X15889Y6191D01*
X15878Y6165D01*
X15867Y6122D01*
X15859Y6078D01*
X15854Y6031D01*
X15852Y5983D01*
X15852Y5500D01*
X15696Y5500D01*
X15696Y5500D01*
X16232Y5961D02*
X16241Y6081D01*
X16267Y6184D01*
X16312Y6270D01*
X16374Y6340D01*
X16437Y6385D01*
X16506Y6417D01*
X16582Y6436D01*
X16664Y6443D01*
X16755Y6435D01*
X16837Y6412D01*
X16910Y6373D01*
X16975Y6318D01*
X17028Y6250D01*
X17065Y6170D01*
X17088Y6078D01*
X17096Y5974D01*
X17092Y5890D01*
X17082Y5815D01*
X17065Y5750D01*
X17042Y5694D01*
X17012Y5646D01*
X16977Y5603D01*
X16935Y5567D01*
X16887Y5536D01*
X16835Y5511D01*
X16780Y5493D01*
X16723Y5483D01*
X16664Y5479D01*
X16653Y5480D01*
X16664Y5608D01*
X16720Y5613D01*
X16771Y5630D01*
X16817Y5657D01*
X16858Y5696D01*
X16891Y5746D01*
X16916Y5808D01*
X16930Y5881D01*
X16935Y5966D01*
X16930Y6047D01*
X16915Y6117D01*
X16891Y6176D01*
X16857Y6225D01*
X16816Y6264D01*
X16770Y6291D01*
X16719Y6308D01*
X16664Y6313D01*
X16608Y6308D01*
X16557Y6292D01*
X16511Y6264D01*
X16470Y6226D01*
X16436Y6176D01*
X16412Y6116D01*
X16397Y6044D01*
X16392Y5961D01*
X16392Y5961D01*
X16397Y5878D01*
X16412Y5806D01*
X16436Y5745D01*
X16470Y5696D01*
X16511Y5657D01*
X16557Y5630D01*
X16608Y5613D01*
X16664Y5608D01*
X16653Y5480D01*
X16572Y5487D01*
X16489Y5510D01*
X16415Y5549D01*
X16351Y5603D01*
X16299Y5672D01*
X16262Y5755D01*
X16239Y5851D01*
X16232Y5961D01*
X16232Y5961D01*
X17277Y5500D02*
X17277Y6422D01*
X17418Y6422D01*
X17418Y6282D01*
X17444Y6327D01*
X17469Y6364D01*
X17494Y6392D01*
X17517Y6412D01*
X17540Y6425D01*
X17565Y6435D01*
X17591Y6441D01*
X17617Y6443D01*
X17657Y6440D01*
X17697Y6430D01*
X17737Y6415D01*
X17778Y6392D01*
X17724Y6247D01*
X17695Y6262D01*
X17667Y6273D01*
X17638Y6279D01*
X17609Y6281D01*
X17585Y6279D01*
X17561Y6274D01*
X17539Y6264D01*
X17517Y6251D01*
X17499Y6234D01*
X17483Y6214D01*
X17469Y6191D01*
X17459Y6165D01*
X17448Y6122D01*
X17440Y6078D01*
X17435Y6031D01*
X17433Y5983D01*
X17433Y5500D01*
X17277Y5500D01*
X17277Y5500D01*
X18472Y5614D02*
X18429Y5580D01*
X18423Y5575D01*
X18364Y5663D01*
X18392Y5688D01*
X18415Y5717D01*
X18434Y5749D01*
X18445Y5779D01*
X18453Y5815D01*
X18458Y5857D01*
X18459Y5905D01*
X18459Y5963D01*
X18459Y5963D01*
X18412Y5946D01*
X18353Y5931D01*
X18284Y5917D01*
X18204Y5904D01*
X18160Y5897D01*
X18122Y5889D01*
X18091Y5881D01*
X18068Y5872D01*
X18049Y5863D01*
X18032Y5851D01*
X18018Y5837D01*
X18006Y5822D01*
X17997Y5804D01*
X17990Y5786D01*
X17986Y5767D01*
X17985Y5747D01*
X17987Y5717D01*
X17996Y5690D01*
X18011Y5665D01*
X18032Y5643D01*
X18058Y5625D01*
X18090Y5612D01*
X18127Y5604D01*
X18170Y5602D01*
X18214Y5604D01*
X18256Y5611D01*
X18295Y5624D01*
X18331Y5641D01*
X18364Y5663D01*
X18423Y5575D01*
X18387Y5551D01*
X18346Y5527D01*
X18305Y5510D01*
X18264Y5496D01*
X18222Y5487D01*
X18178Y5481D01*
X18133Y5479D01*
X18061Y5484D01*
X17999Y5498D01*
X17945Y5521D01*
X17899Y5553D01*
X17864Y5593D01*
X17838Y5638D01*
X17823Y5688D01*
X17818Y5743D01*
X17820Y5776D01*
X17826Y5808D01*
X17835Y5838D01*
X17849Y5867D01*
X17865Y5893D01*
X17884Y5917D01*
X17906Y5938D01*
X17929Y5957D01*
X17955Y5973D01*
X17982Y5986D01*
X18011Y5998D01*
X18042Y6008D01*
X18068Y6014D01*
X18100Y6020D01*
X18137Y6026D01*
X18181Y6031D01*
X18269Y6043D01*
X18345Y6056D01*
X18408Y6070D01*
X18459Y6085D01*
X18460Y6100D01*
X18460Y6111D01*
X18460Y6120D01*
X18460Y6126D01*
X18457Y6170D01*
X18449Y6207D01*
X18435Y6237D01*
X18416Y6261D01*
X18382Y6284D01*
X18342Y6300D01*
X18293Y6310D01*
X18238Y6313D01*
X18186Y6311D01*
X18142Y6304D01*
X18105Y6292D01*
X18075Y6275D01*
X18051Y6252D01*
X18030Y6221D01*
X18012Y6183D01*
X17998Y6138D01*
X17845Y6159D01*
X17857Y6206D01*
X17872Y6248D01*
X17891Y6285D01*
X17913Y6317D01*
X17940Y6346D01*
X17972Y6371D01*
X18009Y6392D01*
X18051Y6410D01*
X18098Y6425D01*
X18149Y6435D01*
X18203Y6441D01*
X18261Y6443D01*
X18317Y6441D01*
X18368Y6436D01*
X18413Y6427D01*
X18452Y6415D01*
X18487Y6400D01*
X18516Y6384D01*
X18541Y6365D01*
X18561Y6345D01*
X18577Y6323D01*
X18590Y6298D01*
X18601Y6270D01*
X18610Y6239D01*
X18613Y6215D01*
X18615Y6183D01*
X18617Y6143D01*
X18617Y6095D01*
X18617Y5886D01*
X18618Y5787D01*
X18620Y5708D01*
X18623Y5650D01*
X18627Y5611D01*
X18634Y5582D01*
X18642Y5554D01*
X18653Y5527D01*
X18667Y5500D01*
X18504Y5500D01*
X18493Y5525D01*
X18484Y5553D01*
X18477Y5582D01*
X18472Y5614D01*
X18472Y5614D01*
X19461Y5838D02*
X19615Y5818D01*
X19597Y5743D01*
X19570Y5676D01*
X19533Y5618D01*
X19486Y5569D01*
X19431Y5530D01*
X19370Y5502D01*
X19304Y5485D01*
X19231Y5479D01*
X19141Y5487D01*
X19061Y5510D01*
X18989Y5549D01*
X18927Y5603D01*
X18877Y5671D01*
X18841Y5753D01*
X18819Y5849D01*
X18812Y5958D01*
X18815Y6030D01*
X18824Y6098D01*
X18840Y6161D01*
X18861Y6219D01*
X18889Y6271D01*
X18924Y6317D01*
X18965Y6355D01*
X19012Y6387D01*
X19064Y6411D01*
X19118Y6429D01*
X19174Y6439D01*
X19232Y6443D01*
X19304Y6438D01*
X19369Y6424D01*
X19427Y6400D01*
X19478Y6367D01*
X19521Y6325D01*
X19556Y6275D01*
X19582Y6217D01*
X19600Y6151D01*
X19448Y6128D01*
X19435Y6171D01*
X19418Y6209D01*
X19397Y6241D01*
X19371Y6267D01*
X19342Y6288D01*
X19311Y6303D01*
X19276Y6311D01*
X19238Y6314D01*
X19182Y6309D01*
X19131Y6293D01*
X19086Y6267D01*
X19046Y6230D01*
X19014Y6181D01*
X18991Y6120D01*
X18977Y6047D01*
X18972Y5962D01*
X18977Y5875D01*
X18990Y5801D01*
X19013Y5740D01*
X19044Y5692D01*
X19082Y5655D01*
X19126Y5629D01*
X19175Y5613D01*
X19229Y5608D01*
X19274Y5611D01*
X19314Y5622D01*
X19350Y5639D01*
X19383Y5664D01*
X19411Y5696D01*
X19433Y5736D01*
X19450Y5783D01*
X19461Y5838D01*
X19461Y5838D01*
X19750Y5500D02*
X19750Y6773D01*
X19906Y6773D01*
X19906Y6047D01*
X20276Y6422D01*
X20478Y6422D01*
X20125Y6080D01*
X20514Y5500D01*
X20321Y5500D01*
X20016Y5971D01*
X19906Y5865D01*
X19906Y5500D01*
X19750Y5500D01*
X19750Y5500D01*
X21132Y5147D02*
X21132Y6422D01*
X21274Y6422D01*
X21274Y6302D01*
X21351Y6228D01*
X21350Y6227D01*
X21316Y6175D01*
X21292Y6113D01*
X21278Y6039D01*
X21273Y5956D01*
X21273Y5956D01*
X21278Y5873D01*
X21291Y5801D01*
X21314Y5741D01*
X21345Y5693D01*
X21383Y5656D01*
X21425Y5629D01*
X21470Y5613D01*
X21520Y5608D01*
X21570Y5613D01*
X21616Y5630D01*
X21659Y5657D01*
X21698Y5696D01*
X21731Y5746D01*
X21754Y5808D01*
X21768Y5882D01*
X21772Y5969D01*
X21768Y6051D01*
X21754Y6123D01*
X21732Y6183D01*
X21700Y6233D01*
X21662Y6271D01*
X21620Y6298D01*
X21575Y6315D01*
X21527Y6320D01*
X21478Y6315D01*
X21433Y6297D01*
X21390Y6268D01*
X21351Y6228D01*
X21274Y6302D01*
X21300Y6335D01*
X21328Y6364D01*
X21357Y6388D01*
X21388Y6408D01*
X21421Y6423D01*
X21458Y6434D01*
X21498Y6441D01*
X21541Y6443D01*
X21599Y6439D01*
X21653Y6428D01*
X21703Y6409D01*
X21750Y6382D01*
X21792Y6349D01*
X21829Y6309D01*
X21860Y6263D01*
X21886Y6211D01*
X21906Y6154D01*
X21921Y6095D01*
X21929Y6033D01*
X21932Y5968D01*
X21929Y5899D01*
X21919Y5833D01*
X21904Y5772D01*
X21881Y5713D01*
X21853Y5660D01*
X21819Y5613D01*
X21779Y5573D01*
X21734Y5540D01*
X21685Y5513D01*
X21634Y5494D01*
X21583Y5483D01*
X21530Y5479D01*
X21492Y5481D01*
X21456Y5487D01*
X21422Y5498D01*
X21390Y5512D01*
X21360Y5530D01*
X21333Y5549D01*
X21309Y5571D01*
X21288Y5595D01*
X21288Y5147D01*
X21132Y5147D01*
X21132Y5147D01*
X22062Y5961D02*
X22071Y6081D01*
X22098Y6184D01*
X22142Y6270D01*
X22205Y6340D01*
X22268Y6385D01*
X22337Y6417D01*
X22412Y6436D01*
X22495Y6443D01*
X22585Y6435D01*
X22668Y6412D01*
X22741Y6373D01*
X22806Y6318D01*
X22858Y6250D01*
X22896Y6170D01*
X22919Y6078D01*
X22926Y5974D01*
X22923Y5890D01*
X22913Y5815D01*
X22896Y5750D01*
X22873Y5694D01*
X22843Y5646D01*
X22807Y5603D01*
X22765Y5567D01*
X22717Y5536D01*
X22665Y5511D01*
X22611Y5493D01*
X22554Y5483D01*
X22495Y5479D01*
X22484Y5480D01*
X22495Y5608D01*
X22550Y5613D01*
X22601Y5630D01*
X22647Y5657D01*
X22688Y5696D01*
X22722Y5746D01*
X22746Y5808D01*
X22761Y5881D01*
X22766Y5966D01*
X22761Y6047D01*
X22746Y6117D01*
X22722Y6176D01*
X22688Y6225D01*
X22647Y6264D01*
X22601Y6291D01*
X22550Y6308D01*
X22495Y6313D01*
X22439Y6308D01*
X22388Y6292D01*
X22341Y6264D01*
X22300Y6226D01*
X22266Y6176D01*
X22242Y6116D01*
X22228Y6044D01*
X22223Y5961D01*
X22223Y5961D01*
X22228Y5878D01*
X22242Y5806D01*
X22266Y5745D01*
X22300Y5696D01*
X22341Y5657D01*
X22388Y5630D01*
X22439Y5613D01*
X22495Y5608D01*
X22484Y5480D01*
X22403Y5487D01*
X22320Y5510D01*
X22246Y5549D01*
X22182Y5603D01*
X22130Y5672D01*
X22092Y5755D01*
X22070Y5851D01*
X22062Y5961D01*
X22062Y5961D01*
X23280Y5500D02*
X22997Y6422D01*
X23159Y6422D01*
X23306Y5890D01*
X23360Y5692D01*
X23365Y5709D01*
X23374Y5747D01*
X23388Y5804D01*
X23408Y5882D01*
X23555Y6422D01*
X23715Y6422D01*
X23853Y5887D01*
X23899Y5711D01*
X23952Y5889D01*
X24110Y6422D01*
X24262Y6422D01*
X23974Y5500D01*
X23812Y5500D01*
X23665Y6052D01*
X23629Y6209D01*
X23443Y5500D01*
X23280Y5500D01*
X23280Y5500D01*
X25025Y5797D02*
X25186Y5777D01*
X25163Y5710D01*
X25132Y5651D01*
X25092Y5600D01*
X25045Y5557D01*
X24989Y5523D01*
X24927Y5499D01*
X24857Y5484D01*
X24781Y5479D01*
X24685Y5487D01*
X24599Y5510D01*
X24524Y5549D01*
X24460Y5604D01*
X24408Y5672D01*
X24371Y5753D01*
X24349Y5847D01*
X24341Y5953D01*
X24349Y6063D01*
X24371Y6160D01*
X24409Y6244D01*
X24461Y6314D01*
X24526Y6371D01*
X24599Y6411D01*
X24681Y6435D01*
X24772Y6443D01*
X24785Y6442D01*
X24774Y6314D01*
X24722Y6310D01*
X24675Y6296D01*
X24632Y6274D01*
X24593Y6242D01*
X24560Y6203D01*
X24536Y6158D01*
X24520Y6107D01*
X24512Y6050D01*
X24512Y6050D01*
X25026Y6050D01*
X25019Y6104D01*
X25006Y6151D01*
X24989Y6191D01*
X24967Y6224D01*
X24927Y6264D01*
X24882Y6292D01*
X24830Y6309D01*
X24774Y6314D01*
X24785Y6442D01*
X24860Y6435D01*
X24940Y6411D01*
X25011Y6372D01*
X25074Y6317D01*
X25125Y6248D01*
X25162Y6165D01*
X25184Y6070D01*
X25191Y5963D01*
X25191Y5955D01*
X25191Y5945D01*
X25191Y5934D01*
X25190Y5921D01*
X24503Y5921D01*
X24511Y5850D01*
X24529Y5787D01*
X24554Y5733D01*
X24589Y5688D01*
X24630Y5653D01*
X24676Y5628D01*
X24726Y5613D01*
X24782Y5608D01*
X24823Y5610D01*
X24861Y5619D01*
X24896Y5633D01*
X24928Y5653D01*
X24957Y5679D01*
X24983Y5711D01*
X25005Y5751D01*
X25025Y5797D01*
X25025Y5797D01*
X25381Y5500D02*
X25381Y6422D01*
X25521Y6422D01*
X25521Y6282D01*
X25548Y6327D01*
X25573Y6364D01*
X25597Y6392D01*
X25621Y6412D01*
X25644Y6425D01*
X25668Y6435D01*
X25694Y6441D01*
X25721Y6443D01*
X25761Y6440D01*
X25801Y6430D01*
X25841Y6415D01*
X25881Y6392D01*
X25828Y6247D01*
X25799Y6262D01*
X25770Y6273D01*
X25742Y6279D01*
X25713Y6281D01*
X25688Y6279D01*
X25664Y6274D01*
X25642Y6264D01*
X25621Y6251D01*
X25602Y6234D01*
X25586Y6214D01*
X25573Y6191D01*
X25563Y6165D01*
X25551Y6122D01*
X25543Y6078D01*
X25538Y6031D01*
X25537Y5983D01*
X25537Y5500D01*
X25381Y5500D01*
X25381Y5500D01*
X26406Y5775D02*
X26560Y5800D01*
X26570Y5756D01*
X26585Y5717D01*
X26606Y5685D01*
X26633Y5657D01*
X26666Y5635D01*
X26704Y5620D01*
X26749Y5611D01*
X26799Y5608D01*
X26849Y5610D01*
X26893Y5619D01*
X26929Y5632D01*
X26959Y5651D01*
X26982Y5674D01*
X26998Y5699D01*
X27008Y5726D01*
X27011Y5754D01*
X27008Y5779D01*
X26999Y5802D01*
X26985Y5821D01*
X26965Y5838D01*
X26943Y5849D01*
X26909Y5861D01*
X26863Y5875D01*
X26805Y5891D01*
X26726Y5912D01*
X26660Y5931D01*
X26607Y5949D01*
X26567Y5966D01*
X26536Y5983D01*
X26508Y6004D01*
X26485Y6027D01*
X26466Y6053D01*
X26451Y6082D01*
X26440Y6112D01*
X26434Y6144D01*
X26432Y6177D01*
X26434Y6207D01*
X26439Y6237D01*
X26448Y6264D01*
X26460Y6291D01*
X26475Y6316D01*
X26493Y6339D01*
X26514Y6360D01*
X26537Y6379D01*
X26557Y6392D01*
X26580Y6403D01*
X26607Y6414D01*
X26636Y6424D01*
X26668Y6432D01*
X26702Y6438D01*
X26736Y6442D01*
X26771Y6443D01*
X26824Y6441D01*
X26873Y6435D01*
X26919Y6425D01*
X26962Y6412D01*
X27000Y6395D01*
X27033Y6375D01*
X27061Y6352D01*
X27083Y6327D01*
X27101Y6298D01*
X27116Y6265D01*
X27128Y6227D01*
X27137Y6184D01*
X26984Y6163D01*
X26976Y6197D01*
X26964Y6227D01*
X26946Y6252D01*
X26924Y6274D01*
X26896Y6292D01*
X26863Y6304D01*
X26826Y6312D01*
X26783Y6314D01*
X26733Y6312D01*
X26690Y6305D01*
X26656Y6294D01*
X26629Y6279D01*
X26609Y6260D01*
X26594Y6240D01*
X26586Y6219D01*
X26583Y6195D01*
X26584Y6181D01*
X26588Y6167D01*
X26594Y6153D01*
X26602Y6141D01*
X26613Y6129D01*
X26627Y6118D01*
X26643Y6108D01*
X26662Y6099D01*
X26679Y6093D01*
X26708Y6085D01*
X26748Y6073D01*
X26800Y6059D01*
X26877Y6038D01*
X26941Y6019D01*
X26992Y6002D01*
X27031Y5987D01*
X27062Y5971D01*
X27090Y5952D01*
X27114Y5930D01*
X27134Y5905D01*
X27151Y5876D01*
X27162Y5844D01*
X27169Y5809D01*
X27172Y5771D01*
X27169Y5732D01*
X27160Y5695D01*
X27146Y5659D01*
X27126Y5624D01*
X27101Y5591D01*
X27070Y5563D01*
X27035Y5538D01*
X26994Y5517D01*
X26950Y5500D01*
X26903Y5489D01*
X26853Y5482D01*
X26800Y5479D01*
X26715Y5484D01*
X26642Y5498D01*
X26579Y5521D01*
X26526Y5554D01*
X26483Y5596D01*
X26449Y5647D01*
X26423Y5706D01*
X26406Y5775D01*
X26406Y5775D01*
X27959Y5838D02*
X28113Y5818D01*
X28095Y5743D01*
X28068Y5676D01*
X28031Y5618D01*
X27984Y5569D01*
X27929Y5530D01*
X27868Y5502D01*
X27802Y5485D01*
X27729Y5479D01*
X27639Y5487D01*
X27558Y5510D01*
X27487Y5549D01*
X27425Y5603D01*
X27374Y5671D01*
X27338Y5753D01*
X27317Y5849D01*
X27310Y5958D01*
X27313Y6030D01*
X27322Y6098D01*
X27337Y6161D01*
X27359Y6219D01*
X27387Y6271D01*
X27422Y6317D01*
X27462Y6355D01*
X27510Y6387D01*
X27561Y6411D01*
X27615Y6429D01*
X27671Y6439D01*
X27730Y6443D01*
X27802Y6438D01*
X27866Y6424D01*
X27924Y6400D01*
X27976Y6367D01*
X28019Y6325D01*
X28054Y6275D01*
X28080Y6217D01*
X28098Y6151D01*
X27946Y6128D01*
X27933Y6171D01*
X27916Y6209D01*
X27895Y6241D01*
X27869Y6267D01*
X27840Y6288D01*
X27808Y6303D01*
X27774Y6311D01*
X27736Y6314D01*
X27680Y6309D01*
X27629Y6293D01*
X27584Y6267D01*
X27544Y6230D01*
X27512Y6181D01*
X27489Y6120D01*
X27475Y6047D01*
X27470Y5962D01*
X27475Y5875D01*
X27488Y5801D01*
X27510Y5740D01*
X27541Y5692D01*
X27580Y5655D01*
X27623Y5629D01*
X27673Y5613D01*
X27727Y5608D01*
X27771Y5611D01*
X27812Y5622D01*
X27848Y5639D01*
X27881Y5664D01*
X27909Y5696D01*
X27931Y5736D01*
X27948Y5783D01*
X27959Y5838D01*
X27959Y5838D01*
X28245Y5500D02*
X28245Y6422D01*
X28385Y6422D01*
X28385Y6282D01*
X28412Y6327D01*
X28437Y6364D01*
X28461Y6392D01*
X28485Y6412D01*
X28508Y6425D01*
X28533Y6435D01*
X28558Y6441D01*
X28585Y6443D01*
X28625Y6440D01*
X28665Y6430D01*
X28705Y6415D01*
X28746Y6392D01*
X28692Y6247D01*
X28663Y6262D01*
X28635Y6273D01*
X28606Y6279D01*
X28577Y6281D01*
X28552Y6279D01*
X28529Y6274D01*
X28506Y6264D01*
X28485Y6251D01*
X28466Y6234D01*
X28450Y6214D01*
X28437Y6191D01*
X28427Y6165D01*
X28416Y6122D01*
X28407Y6078D01*
X28403Y6031D01*
X28401Y5983D01*
X28401Y5500D01*
X28245Y5500D01*
X28245Y5500D01*
X29470Y5797D02*
X29631Y5777D01*
X29608Y5710D01*
X29577Y5651D01*
X29537Y5600D01*
X29490Y5557D01*
X29434Y5523D01*
X29372Y5499D01*
X29302Y5484D01*
X29226Y5479D01*
X29130Y5487D01*
X29044Y5510D01*
X28969Y5549D01*
X28905Y5604D01*
X28853Y5672D01*
X28816Y5753D01*
X28794Y5847D01*
X28786Y5953D01*
X28794Y6063D01*
X28816Y6160D01*
X28854Y6244D01*
X28906Y6314D01*
X28971Y6371D01*
X29044Y6411D01*
X29126Y6435D01*
X29217Y6443D01*
X29230Y6442D01*
X29219Y6314D01*
X29167Y6310D01*
X29120Y6296D01*
X29077Y6274D01*
X29038Y6242D01*
X29005Y6203D01*
X28981Y6158D01*
X28965Y6107D01*
X28957Y6050D01*
X28957Y6050D01*
X29471Y6050D01*
X29464Y6104D01*
X29451Y6151D01*
X29434Y6191D01*
X29412Y6224D01*
X29372Y6264D01*
X29327Y6292D01*
X29275Y6309D01*
X29219Y6314D01*
X29230Y6442D01*
X29305Y6435D01*
X29385Y6411D01*
X29456Y6372D01*
X29519Y6317D01*
X29570Y6248D01*
X29607Y6165D01*
X29629Y6070D01*
X29636Y5963D01*
X29636Y5955D01*
X29636Y5945D01*
X29636Y5934D01*
X29635Y5921D01*
X28948Y5921D01*
X28957Y5850D01*
X28974Y5787D01*
X28999Y5733D01*
X29034Y5688D01*
X29075Y5653D01*
X29121Y5628D01*
X29171Y5613D01*
X29227Y5608D01*
X29268Y5610D01*
X29306Y5619D01*
X29341Y5633D01*
X29373Y5653D01*
X29402Y5679D01*
X29428Y5711D01*
X29450Y5751D01*
X29470Y5797D01*
X29470Y5797D01*
X29998Y5500D02*
X29715Y6422D01*
X29877Y6422D01*
X30024Y5890D01*
X30078Y5692D01*
X30083Y5709D01*
X30092Y5747D01*
X30106Y5804D01*
X30126Y5882D01*
X30273Y6422D01*
X30433Y6422D01*
X30571Y5887D01*
X30617Y5711D01*
X30670Y5889D01*
X30828Y6422D01*
X30980Y6422D01*
X30692Y5500D01*
X30530Y5500D01*
X30383Y6052D01*
X30347Y6209D01*
X30161Y5500D01*
X29998Y5500D01*
X29998Y5500D01*
X43361Y12913D02*
X42969Y12913D01*
X42969Y12524D01*
X42805Y12524D01*
X42805Y12913D01*
X42415Y12913D01*
X42415Y13079D01*
X42805Y13079D01*
X42805Y13469D01*
X42969Y13469D01*
X42969Y13079D01*
X43361Y13079D01*
X43361Y12913D01*
X43361Y12913D01*
X43218Y13663D02*
X43202Y13848D01*
X43265Y13862D01*
X43320Y13882D01*
X43367Y13909D01*
X43405Y13943D01*
X43435Y13982D01*
X43456Y14026D01*
X43468Y14073D01*
X43473Y14123D01*
X43467Y14184D01*
X43449Y14241D01*
X43419Y14292D01*
X43377Y14338D01*
X43325Y14377D01*
X43266Y14404D01*
X43198Y14421D01*
X43123Y14426D01*
X43052Y14421D01*
X42989Y14405D01*
X42933Y14379D01*
X42886Y14342D01*
X42848Y14296D01*
X42821Y14244D01*
X42804Y14186D01*
X42799Y14120D01*
X42801Y14079D01*
X42808Y14040D01*
X42821Y14002D01*
X42837Y13967D01*
X42858Y13935D01*
X42882Y13906D01*
X42908Y13881D01*
X42938Y13860D01*
X42916Y13695D01*
X42181Y13833D01*
X42181Y14545D01*
X42349Y14545D01*
X42349Y13974D01*
X42733Y13897D01*
X42694Y13962D01*
X42666Y14029D01*
X42649Y14097D01*
X42644Y14167D01*
X42652Y14257D01*
X42676Y14340D01*
X42717Y14416D01*
X42773Y14484D01*
X42843Y14540D01*
X42922Y14580D01*
X43010Y14605D01*
X43107Y14613D01*
X43201Y14606D01*
X43289Y14584D01*
X43369Y14549D01*
X43443Y14499D01*
X43519Y14424D01*
X43574Y14337D01*
X43606Y14236D01*
X43617Y14123D01*
X43610Y14030D01*
X43590Y13946D01*
X43556Y13871D01*
X43508Y13805D01*
X43449Y13749D01*
X43381Y13707D01*
X43304Y13679D01*
X43218Y13663D01*
X43218Y13663D01*
X43593Y15256D02*
X42161Y14702D01*
X42161Y14907D01*
X43201Y15279D01*
X43263Y15300D01*
X43322Y15320D01*
X43380Y15338D01*
X43436Y15354D01*
X43377Y15371D01*
X43318Y15390D01*
X43260Y15410D01*
X43201Y15431D01*
X42161Y15818D01*
X42161Y16011D01*
X43593Y15451D01*
X43593Y15256D01*
X43593Y15256D01*
X43163Y28298D02*
X42986Y28298D01*
X42986Y28838D01*
X43163Y28838D01*
X43163Y28298D01*
X43163Y28298D01*
X43593Y29646D02*
X43593Y29470D01*
X42473Y29470D01*
X42503Y29436D01*
X42533Y29397D01*
X42564Y29352D01*
X42594Y29303D01*
X42622Y29253D01*
X42647Y29206D01*
X42668Y29161D01*
X42685Y29118D01*
X42515Y29118D01*
X42478Y29190D01*
X42438Y29257D01*
X42394Y29319D01*
X42347Y29376D01*
X42298Y29427D01*
X42250Y29470D01*
X42202Y29505D01*
X42155Y29532D01*
X42155Y29646D01*
X43593Y29646D01*
X43593Y29646D01*
X43424Y31020D02*
X43593Y31020D01*
X43593Y30073D01*
X43561Y30074D01*
X43531Y30078D01*
X43500Y30084D01*
X43471Y30094D01*
X43423Y30115D01*
X43375Y30141D01*
X43327Y30173D01*
X43280Y30210D01*
X43232Y30254D01*
X43179Y30307D01*
X43123Y30369D01*
X43064Y30440D01*
X42973Y30547D01*
X42892Y30635D01*
X42821Y30705D01*
X42760Y30755D01*
X42705Y30791D01*
X42652Y30817D01*
X42599Y30832D01*
X42549Y30837D01*
X42499Y30832D01*
X42453Y30818D01*
X42411Y30795D01*
X42373Y30762D01*
X42341Y30722D01*
X42319Y30676D01*
X42305Y30625D01*
X42301Y30568D01*
X42306Y30507D01*
X42320Y30453D01*
X42344Y30406D01*
X42377Y30364D01*
X42419Y30331D01*
X42468Y30307D01*
X42524Y30293D01*
X42588Y30287D01*
X42569Y30107D01*
X42474Y30122D01*
X42391Y30151D01*
X42320Y30192D01*
X42261Y30246D01*
X42215Y30312D01*
X42182Y30388D01*
X42162Y30475D01*
X42155Y30571D01*
X42162Y30669D01*
X42184Y30756D01*
X42220Y30832D01*
X42270Y30898D01*
X42330Y30950D01*
X42397Y30988D01*
X42472Y31010D01*
X42553Y31018D01*
X42596Y31016D01*
X42638Y31009D01*
X42680Y30998D01*
X42722Y30983D01*
X42764Y30962D01*
X42807Y30936D01*
X42851Y30904D01*
X42897Y30866D01*
X42947Y30818D01*
X43005Y30757D01*
X43073Y30683D01*
X43148Y30595D01*
X43210Y30523D01*
X43260Y30465D01*
X43300Y30421D01*
X43329Y30392D01*
X43352Y30370D01*
X43376Y30351D01*
X43400Y30333D01*
X43424Y30318D01*
X43424Y31020D01*
X43424Y31020D01*
X43593Y31689D02*
X42161Y31134D01*
X42161Y31339D01*
X43201Y31711D01*
X43263Y31733D01*
X43322Y31752D01*
X43380Y31770D01*
X43436Y31786D01*
X43377Y31804D01*
X43318Y31822D01*
X43260Y31842D01*
X43201Y31864D01*
X42161Y32250D01*
X42161Y32444D01*
X43593Y31883D01*
X43593Y31689D01*
X43593Y31689D01*
X18597Y1682D02*
X18245Y2591D01*
X18375Y2591D01*
X18611Y1931D01*
X18625Y1892D01*
X18637Y1854D01*
X18649Y1817D01*
X18659Y1782D01*
X18670Y1819D01*
X18682Y1856D01*
X18695Y1893D01*
X18708Y1931D01*
X18954Y2591D01*
X19076Y2591D01*
X18720Y1682D01*
X18597Y1682D01*
X18597Y1682D01*
X19551Y1894D02*
X19666Y1880D01*
X19650Y1832D01*
X19627Y1790D01*
X19599Y1754D01*
X19565Y1723D01*
X19526Y1699D01*
X19481Y1681D01*
X19431Y1671D01*
X19377Y1667D01*
X19308Y1673D01*
X19247Y1689D01*
X19193Y1717D01*
X19147Y1756D01*
X19110Y1805D01*
X19084Y1863D01*
X19068Y1930D01*
X19063Y2006D01*
X19068Y2084D01*
X19084Y2153D01*
X19111Y2213D01*
X19148Y2264D01*
X19194Y2304D01*
X19247Y2333D01*
X19305Y2350D01*
X19370Y2355D01*
X19380Y2355D01*
X19372Y2264D01*
X19335Y2260D01*
X19301Y2251D01*
X19270Y2235D01*
X19242Y2212D01*
X19219Y2184D01*
X19202Y2152D01*
X19190Y2115D01*
X19184Y2075D01*
X19184Y2075D01*
X19552Y2075D01*
X19547Y2113D01*
X19538Y2147D01*
X19526Y2176D01*
X19510Y2199D01*
X19481Y2227D01*
X19449Y2248D01*
X19412Y2260D01*
X19372Y2264D01*
X19380Y2355D01*
X19433Y2350D01*
X19490Y2333D01*
X19541Y2305D01*
X19586Y2266D01*
X19623Y2216D01*
X19649Y2157D01*
X19665Y2089D01*
X19670Y2013D01*
X19670Y2007D01*
X19670Y2000D01*
X19670Y1992D01*
X19669Y1983D01*
X19178Y1983D01*
X19184Y1932D01*
X19197Y1887D01*
X19215Y1849D01*
X19240Y1817D01*
X19269Y1791D01*
X19302Y1773D01*
X19338Y1762D01*
X19377Y1759D01*
X19407Y1761D01*
X19434Y1767D01*
X19459Y1777D01*
X19482Y1791D01*
X19503Y1810D01*
X19521Y1833D01*
X19537Y1861D01*
X19551Y1894D01*
X19551Y1894D01*
X19805Y1682D02*
X19805Y2341D01*
X19906Y2341D01*
X19906Y2241D01*
X19924Y2273D01*
X19942Y2299D01*
X19960Y2319D01*
X19977Y2333D01*
X19993Y2343D01*
X20011Y2350D01*
X20029Y2354D01*
X20048Y2355D01*
X20076Y2353D01*
X20105Y2346D01*
X20134Y2335D01*
X20163Y2319D01*
X20124Y2216D01*
X20104Y2227D01*
X20083Y2234D01*
X20063Y2239D01*
X20043Y2240D01*
X20025Y2239D01*
X20008Y2235D01*
X19992Y2228D01*
X19977Y2218D01*
X19963Y2206D01*
X19952Y2192D01*
X19943Y2175D01*
X19935Y2157D01*
X19927Y2127D01*
X19921Y2095D01*
X19918Y2061D01*
X19917Y2027D01*
X19917Y1682D01*
X19805Y1682D01*
X19805Y1682D01*
X20185Y1879D02*
X20295Y1896D01*
X20302Y1865D01*
X20313Y1837D01*
X20328Y1814D01*
X20347Y1794D01*
X20370Y1779D01*
X20398Y1768D01*
X20429Y1761D01*
X20465Y1759D01*
X20501Y1761D01*
X20532Y1767D01*
X20558Y1777D01*
X20580Y1790D01*
X20596Y1807D01*
X20607Y1824D01*
X20614Y1843D01*
X20617Y1864D01*
X20615Y1882D01*
X20609Y1897D01*
X20598Y1911D01*
X20584Y1923D01*
X20568Y1931D01*
X20544Y1940D01*
X20511Y1950D01*
X20470Y1961D01*
X20413Y1976D01*
X20366Y1990D01*
X20328Y2003D01*
X20300Y2015D01*
X20277Y2027D01*
X20258Y2042D01*
X20241Y2058D01*
X20228Y2077D01*
X20217Y2098D01*
X20209Y2119D01*
X20205Y2142D01*
X20203Y2166D01*
X20204Y2187D01*
X20208Y2208D01*
X20214Y2228D01*
X20223Y2247D01*
X20234Y2265D01*
X20247Y2282D01*
X20262Y2296D01*
X20278Y2310D01*
X20292Y2319D01*
X20309Y2327D01*
X20328Y2335D01*
X20349Y2342D01*
X20372Y2348D01*
X20396Y2352D01*
X20420Y2355D01*
X20446Y2355D01*
X20483Y2354D01*
X20518Y2350D01*
X20551Y2343D01*
X20582Y2333D01*
X20609Y2321D01*
X20633Y2307D01*
X20652Y2291D01*
X20668Y2273D01*
X20681Y2252D01*
X20692Y2228D01*
X20700Y2201D01*
X20707Y2171D01*
X20598Y2156D01*
X20592Y2180D01*
X20583Y2201D01*
X20571Y2219D01*
X20554Y2235D01*
X20535Y2248D01*
X20511Y2257D01*
X20484Y2262D01*
X20454Y2264D01*
X20418Y2262D01*
X20388Y2257D01*
X20363Y2249D01*
X20344Y2238D01*
X20330Y2225D01*
X20319Y2211D01*
X20313Y2195D01*
X20311Y2179D01*
X20312Y2168D01*
X20314Y2158D01*
X20319Y2149D01*
X20325Y2140D01*
X20332Y2131D01*
X20342Y2123D01*
X20354Y2116D01*
X20367Y2110D01*
X20380Y2106D01*
X20401Y2100D01*
X20429Y2092D01*
X20466Y2081D01*
X20521Y2066D01*
X20567Y2053D01*
X20603Y2040D01*
X20631Y2030D01*
X20653Y2018D01*
X20673Y2005D01*
X20690Y1989D01*
X20705Y1971D01*
X20716Y1951D01*
X20725Y1928D01*
X20730Y1903D01*
X20731Y1875D01*
X20729Y1848D01*
X20723Y1821D01*
X20713Y1795D01*
X20699Y1770D01*
X20681Y1747D01*
X20659Y1727D01*
X20634Y1709D01*
X20605Y1694D01*
X20573Y1682D01*
X20540Y1674D01*
X20504Y1669D01*
X20466Y1667D01*
X20406Y1670D01*
X20353Y1680D01*
X20308Y1697D01*
X20270Y1720D01*
X20240Y1750D01*
X20215Y1787D01*
X20197Y1829D01*
X20185Y1879D01*
X20185Y1879D01*
X20865Y1682D02*
X20865Y2341D01*
X20976Y2341D01*
X20976Y1682D01*
X20865Y1682D01*
X20865Y1682D01*
X20865Y2463D02*
X20865Y2591D01*
X20976Y2591D01*
X20976Y2463D01*
X20865Y2463D01*
X20865Y2463D01*
X21105Y2011D02*
X21111Y2097D01*
X21130Y2170D01*
X21162Y2232D01*
X21207Y2282D01*
X21251Y2314D01*
X21301Y2337D01*
X21355Y2351D01*
X21414Y2355D01*
X21478Y2350D01*
X21537Y2333D01*
X21589Y2305D01*
X21636Y2266D01*
X21673Y2218D01*
X21700Y2160D01*
X21716Y2095D01*
X21722Y2021D01*
X21719Y1960D01*
X21712Y1907D01*
X21700Y1860D01*
X21684Y1821D01*
X21662Y1786D01*
X21637Y1756D01*
X21607Y1730D01*
X21573Y1707D01*
X21535Y1690D01*
X21496Y1677D01*
X21456Y1670D01*
X21414Y1667D01*
X21406Y1668D01*
X21414Y1759D01*
X21453Y1763D01*
X21490Y1775D01*
X21523Y1794D01*
X21552Y1822D01*
X21576Y1858D01*
X21593Y1902D01*
X21604Y1954D01*
X21607Y2015D01*
X21604Y2072D01*
X21593Y2122D01*
X21576Y2165D01*
X21552Y2200D01*
X21522Y2228D01*
X21489Y2247D01*
X21453Y2259D01*
X21414Y2263D01*
X21374Y2259D01*
X21337Y2247D01*
X21304Y2228D01*
X21275Y2200D01*
X21251Y2165D01*
X21233Y2122D01*
X21223Y2071D01*
X21220Y2011D01*
X21220Y2011D01*
X21223Y1952D01*
X21233Y1901D01*
X21251Y1857D01*
X21275Y1822D01*
X21304Y1794D01*
X21337Y1775D01*
X21374Y1763D01*
X21414Y1759D01*
X21406Y1668D01*
X21348Y1673D01*
X21289Y1689D01*
X21236Y1717D01*
X21190Y1756D01*
X21153Y1805D01*
X21126Y1864D01*
X21110Y1933D01*
X21105Y2011D01*
X21105Y2011D01*
X21853Y1682D02*
X21853Y2341D01*
X21953Y2341D01*
X21953Y2247D01*
X21993Y2294D01*
X22042Y2328D01*
X22098Y2349D01*
X22163Y2355D01*
X22192Y2354D01*
X22220Y2350D01*
X22247Y2343D01*
X22272Y2334D01*
X22296Y2323D01*
X22316Y2309D01*
X22333Y2294D01*
X22347Y2278D01*
X22358Y2260D01*
X22368Y2240D01*
X22376Y2219D01*
X22382Y2195D01*
X22384Y2177D01*
X22386Y2153D01*
X22387Y2123D01*
X22388Y2087D01*
X22388Y1682D01*
X22276Y1682D01*
X22276Y2083D01*
X22275Y2115D01*
X22273Y2142D01*
X22269Y2166D01*
X22263Y2185D01*
X22255Y2201D01*
X22245Y2215D01*
X22232Y2228D01*
X22217Y2239D01*
X22200Y2247D01*
X22181Y2254D01*
X22161Y2257D01*
X22139Y2259D01*
X22105Y2256D01*
X22073Y2247D01*
X22043Y2233D01*
X22016Y2213D01*
X21993Y2186D01*
X21977Y2148D01*
X21968Y2100D01*
X21964Y2042D01*
X21964Y1682D01*
X21853Y1682D01*
X21853Y1682D01*
X23301Y1682D02*
X23190Y1682D01*
X23190Y2393D01*
X23168Y2374D01*
X23143Y2355D01*
X23115Y2336D01*
X23084Y2316D01*
X23052Y2298D01*
X23022Y2283D01*
X22993Y2270D01*
X22966Y2259D01*
X22966Y2367D01*
X23012Y2390D01*
X23054Y2415D01*
X23094Y2443D01*
X23130Y2473D01*
X23163Y2504D01*
X23190Y2535D01*
X23212Y2565D01*
X23229Y2595D01*
X23301Y2595D01*
X23301Y1682D01*
X23301Y1682D01*
X23650Y1682D02*
X23650Y1809D01*
X23777Y1809D01*
X23777Y1682D01*
X23650Y1682D01*
X23650Y1682D01*
X23940Y2130D02*
X23942Y2207D01*
X23948Y2276D01*
X23959Y2337D01*
X23973Y2390D01*
X23992Y2436D01*
X24014Y2477D01*
X24041Y2512D01*
X24072Y2541D01*
X24107Y2565D01*
X24146Y2581D01*
X24189Y2591D01*
X24236Y2595D01*
X24272Y2593D01*
X24305Y2587D01*
X24336Y2578D01*
X24365Y2565D01*
X24391Y2549D01*
X24415Y2529D01*
X24437Y2507D01*
X24456Y2480D01*
X24473Y2451D01*
X24488Y2419D01*
X24501Y2384D01*
X24512Y2345D01*
X24521Y2302D01*
X24528Y2252D01*
X24532Y2194D01*
X24533Y2130D01*
X24531Y2054D01*
X24525Y1986D01*
X24514Y1925D01*
X24500Y1872D01*
X24481Y1826D01*
X24459Y1785D01*
X24432Y1750D01*
X24402Y1720D01*
X24367Y1697D01*
X24328Y1680D01*
X24284Y1670D01*
X24236Y1666D01*
X24228Y1667D01*
X24236Y1758D01*
X24273Y1763D01*
X24307Y1777D01*
X24338Y1800D01*
X24366Y1833D01*
X24389Y1879D01*
X24405Y1944D01*
X24415Y2028D01*
X24418Y2130D01*
X24415Y2233D01*
X24405Y2317D01*
X24389Y2382D01*
X24366Y2429D01*
X24338Y2461D01*
X24307Y2484D01*
X24273Y2498D01*
X24235Y2502D01*
X24199Y2498D01*
X24166Y2486D01*
X24137Y2466D01*
X24112Y2437D01*
X24087Y2387D01*
X24069Y2319D01*
X24058Y2233D01*
X24055Y2130D01*
X24055Y2130D01*
X24058Y2028D01*
X24068Y1944D01*
X24084Y1879D01*
X24107Y1832D01*
X24135Y1800D01*
X24166Y1777D01*
X24199Y1763D01*
X24236Y1758D01*
X24228Y1667D01*
X24174Y1672D01*
X24119Y1690D01*
X24071Y1720D01*
X24030Y1761D01*
X23991Y1826D01*
X23962Y1910D01*
X23946Y2011D01*
X23940Y2130D01*
X23940Y2130D01*
X24709Y1682D02*
X24709Y1809D01*
X24836Y1809D01*
X24836Y1682D01*
X24709Y1682D01*
X24709Y1682D01*
X25420Y1682D02*
X25308Y1682D01*
X25308Y2393D01*
X25286Y2374D01*
X25261Y2355D01*
X25233Y2336D01*
X25202Y2316D01*
X25170Y2298D01*
X25140Y2283D01*
X25112Y2270D01*
X25085Y2259D01*
X25085Y2367D01*
X25130Y2390D01*
X25172Y2415D01*
X25212Y2443D01*
X25248Y2473D01*
X25281Y2504D01*
X25308Y2535D01*
X25331Y2565D01*
X25348Y2595D01*
X25420Y2595D01*
X25420Y1682D01*
X25420Y1682D01*
G37*
M02*