%FSLAX33Y33*%
%MOMM*%
%ADD10C,0.15*%
D10*
%LNbottom silkscreen_traces*%
%LNbottom silkscreen component 2b46bd6407843b15*%
G01*
X33135Y15300D02*
X34865Y15300D01*
X33135Y13700D02*
X34865Y13700D01*
G36*
X34511Y16129D02*
X34511Y16845D01*
X34194Y16845D01*
X34149Y16844D01*
X34109Y16840D01*
X34076Y16834D01*
X34048Y16826D01*
X34024Y16814D01*
X34003Y16799D01*
X33985Y16780D01*
X33969Y16757D01*
X33956Y16732D01*
X33946Y16706D01*
X33941Y16678D01*
X33939Y16650D01*
X33942Y16613D01*
X33951Y16579D01*
X33967Y16549D01*
X33988Y16521D01*
X34016Y16497D01*
X34051Y16478D01*
X34092Y16464D01*
X34116Y16459D01*
X34131Y16536D01*
X34111Y16542D01*
X34094Y16550D01*
X34079Y16560D01*
X34066Y16572D01*
X34055Y16585D01*
X34047Y16600D01*
X34041Y16616D01*
X34038Y16632D01*
X34036Y16650D01*
X34039Y16674D01*
X34046Y16696D01*
X34057Y16716D01*
X34073Y16733D01*
X34094Y16747D01*
X34121Y16758D01*
X34153Y16764D01*
X34190Y16766D01*
X34416Y16766D01*
X34416Y16529D01*
X34416Y16529D01*
X34213Y16529D01*
X34182Y16530D01*
X34155Y16532D01*
X34131Y16536D01*
X34116Y16459D01*
X34140Y16455D01*
X34123Y16446D01*
X34107Y16437D01*
X34094Y16428D01*
X34083Y16419D01*
X34063Y16399D01*
X34043Y16376D01*
X34024Y16351D01*
X34005Y16324D01*
X33880Y16129D01*
X33999Y16129D01*
X34094Y16278D01*
X34114Y16308D01*
X34132Y16335D01*
X34148Y16358D01*
X34162Y16377D01*
X34175Y16392D01*
X34188Y16406D01*
X34200Y16416D01*
X34210Y16424D01*
X34221Y16431D01*
X34232Y16436D01*
X34243Y16440D01*
X34254Y16443D01*
X34263Y16445D01*
X34275Y16446D01*
X34289Y16447D01*
X34306Y16447D01*
X34416Y16447D01*
X34416Y16129D01*
X34511Y16129D01*
X34511Y16129D01*
X33825Y16318D02*
X33738Y16330D01*
X33729Y16295D01*
X33717Y16265D01*
X33703Y16241D01*
X33686Y16222D01*
X33667Y16208D01*
X33646Y16197D01*
X33623Y16191D01*
X33597Y16189D01*
X33568Y16192D01*
X33540Y16200D01*
X33515Y16213D01*
X33493Y16232D01*
X33474Y16255D01*
X33461Y16280D01*
X33453Y16308D01*
X33450Y16338D01*
X33452Y16367D01*
X33460Y16394D01*
X33472Y16417D01*
X33490Y16438D01*
X33511Y16456D01*
X33534Y16468D01*
X33561Y16475D01*
X33590Y16478D01*
X33603Y16477D01*
X33618Y16475D01*
X33634Y16472D01*
X33652Y16468D01*
X33642Y16545D01*
X33638Y16545D01*
X33634Y16544D01*
X33631Y16544D01*
X33628Y16544D01*
X33601Y16546D01*
X33575Y16551D01*
X33550Y16561D01*
X33527Y16573D01*
X33507Y16590D01*
X33493Y16611D01*
X33485Y16635D01*
X33482Y16664D01*
X33484Y16687D01*
X33490Y16708D01*
X33501Y16727D01*
X33515Y16744D01*
X33532Y16758D01*
X33552Y16768D01*
X33575Y16773D01*
X33599Y16775D01*
X33624Y16773D01*
X33646Y16767D01*
X33667Y16757D01*
X33685Y16743D01*
X33700Y16725D01*
X33713Y16703D01*
X33722Y16677D01*
X33729Y16647D01*
X33817Y16662D01*
X33806Y16704D01*
X33790Y16741D01*
X33769Y16772D01*
X33743Y16799D01*
X33713Y16820D01*
X33679Y16836D01*
X33642Y16845D01*
X33601Y16848D01*
X33573Y16846D01*
X33545Y16841D01*
X33519Y16834D01*
X33493Y16823D01*
X33470Y16809D01*
X33450Y16793D01*
X33433Y16775D01*
X33418Y16754D01*
X33407Y16732D01*
X33398Y16709D01*
X33394Y16686D01*
X33392Y16662D01*
X33393Y16639D01*
X33398Y16617D01*
X33406Y16597D01*
X33417Y16577D01*
X33431Y16559D01*
X33448Y16543D01*
X33468Y16529D01*
X33491Y16517D01*
X33461Y16507D01*
X33434Y16494D01*
X33411Y16477D01*
X33392Y16456D01*
X33377Y16431D01*
X33366Y16404D01*
X33359Y16374D01*
X33357Y16340D01*
X33361Y16295D01*
X33374Y16254D01*
X33395Y16216D01*
X33425Y16181D01*
X33462Y16153D01*
X33502Y16133D01*
X33548Y16120D01*
X33598Y16116D01*
X33643Y16120D01*
X33684Y16130D01*
X33721Y16148D01*
X33754Y16172D01*
X33782Y16203D01*
X33803Y16237D01*
X33818Y16275D01*
X33825Y16318D01*
X33825Y16318D01*
G37*
%LNbottom silkscreen component f58287f33a8996b4*%
X33135Y23300D02*
X34865Y23300D01*
X33135Y21700D02*
X34865Y21700D01*
G36*
X34511Y24129D02*
X34511Y24845D01*
X34194Y24845D01*
X34149Y24844D01*
X34109Y24840D01*
X34076Y24834D01*
X34048Y24826D01*
X34024Y24814D01*
X34003Y24799D01*
X33985Y24780D01*
X33969Y24757D01*
X33956Y24732D01*
X33946Y24706D01*
X33941Y24678D01*
X33939Y24650D01*
X33942Y24613D01*
X33951Y24579D01*
X33967Y24549D01*
X33988Y24521D01*
X34016Y24497D01*
X34051Y24478D01*
X34092Y24464D01*
X34116Y24459D01*
X34131Y24536D01*
X34111Y24542D01*
X34094Y24550D01*
X34079Y24560D01*
X34066Y24572D01*
X34055Y24585D01*
X34047Y24600D01*
X34041Y24616D01*
X34038Y24632D01*
X34036Y24650D01*
X34039Y24674D01*
X34046Y24696D01*
X34057Y24716D01*
X34073Y24733D01*
X34094Y24747D01*
X34121Y24758D01*
X34153Y24764D01*
X34190Y24766D01*
X34416Y24766D01*
X34416Y24529D01*
X34416Y24529D01*
X34213Y24529D01*
X34182Y24530D01*
X34155Y24532D01*
X34131Y24536D01*
X34116Y24459D01*
X34140Y24455D01*
X34123Y24446D01*
X34107Y24437D01*
X34094Y24428D01*
X34083Y24419D01*
X34063Y24399D01*
X34043Y24376D01*
X34024Y24351D01*
X34005Y24324D01*
X33880Y24129D01*
X33999Y24129D01*
X34094Y24278D01*
X34114Y24308D01*
X34132Y24335D01*
X34148Y24358D01*
X34162Y24377D01*
X34175Y24392D01*
X34188Y24406D01*
X34200Y24416D01*
X34210Y24424D01*
X34221Y24431D01*
X34232Y24436D01*
X34243Y24440D01*
X34254Y24443D01*
X34263Y24445D01*
X34275Y24446D01*
X34289Y24447D01*
X34306Y24447D01*
X34416Y24447D01*
X34416Y24129D01*
X34511Y24129D01*
X34511Y24129D01*
X33364Y24213D02*
X33364Y24129D01*
X33837Y24129D01*
X33837Y24145D01*
X33835Y24160D01*
X33832Y24175D01*
X33827Y24190D01*
X33817Y24214D01*
X33803Y24238D01*
X33788Y24262D01*
X33769Y24285D01*
X33747Y24310D01*
X33720Y24336D01*
X33689Y24364D01*
X33654Y24394D01*
X33600Y24439D01*
X33556Y24479D01*
X33522Y24515D01*
X33496Y24545D01*
X33478Y24573D01*
X33466Y24600D01*
X33458Y24626D01*
X33455Y24651D01*
X33458Y24676D01*
X33465Y24699D01*
X33476Y24720D01*
X33493Y24739D01*
X33513Y24755D01*
X33536Y24766D01*
X33562Y24773D01*
X33590Y24775D01*
X33620Y24773D01*
X33647Y24765D01*
X33671Y24754D01*
X33692Y24737D01*
X33708Y24716D01*
X33720Y24691D01*
X33728Y24663D01*
X33730Y24631D01*
X33821Y24641D01*
X33813Y24688D01*
X33798Y24730D01*
X33778Y24765D01*
X33751Y24795D01*
X33718Y24818D01*
X33680Y24835D01*
X33637Y24844D01*
X33588Y24848D01*
X33539Y24844D01*
X33496Y24833D01*
X33458Y24816D01*
X33425Y24791D01*
X33399Y24760D01*
X33380Y24727D01*
X33369Y24690D01*
X33365Y24649D01*
X33366Y24628D01*
X33369Y24606D01*
X33375Y24585D01*
X33383Y24565D01*
X33393Y24544D01*
X33406Y24522D01*
X33422Y24500D01*
X33441Y24477D01*
X33465Y24452D01*
X33495Y24423D01*
X33532Y24389D01*
X33576Y24351D01*
X33612Y24321D01*
X33641Y24295D01*
X33663Y24276D01*
X33678Y24261D01*
X33689Y24249D01*
X33699Y24237D01*
X33707Y24225D01*
X33715Y24213D01*
X33364Y24213D01*
X33364Y24213D01*
G37*
%LNbottom silkscreen component 0af2d2f02e1cb27f*%
X33135Y31300D02*
X34865Y31300D01*
X33135Y29700D02*
X34865Y29700D01*
G36*
X34511Y32185D02*
X34511Y32901D01*
X34194Y32901D01*
X34149Y32900D01*
X34109Y32896D01*
X34076Y32890D01*
X34048Y32882D01*
X34024Y32870D01*
X34003Y32855D01*
X33985Y32836D01*
X33969Y32813D01*
X33956Y32788D01*
X33946Y32762D01*
X33941Y32734D01*
X33939Y32706D01*
X33942Y32669D01*
X33951Y32635D01*
X33967Y32605D01*
X33988Y32577D01*
X34016Y32553D01*
X34051Y32534D01*
X34092Y32520D01*
X34116Y32515D01*
X34131Y32592D01*
X34111Y32598D01*
X34094Y32606D01*
X34079Y32616D01*
X34066Y32628D01*
X34055Y32641D01*
X34047Y32656D01*
X34041Y32672D01*
X34038Y32688D01*
X34036Y32706D01*
X34039Y32730D01*
X34046Y32752D01*
X34057Y32772D01*
X34073Y32789D01*
X34094Y32803D01*
X34121Y32814D01*
X34153Y32820D01*
X34190Y32822D01*
X34416Y32822D01*
X34416Y32585D01*
X34416Y32585D01*
X34213Y32585D01*
X34182Y32586D01*
X34155Y32588D01*
X34131Y32592D01*
X34116Y32515D01*
X34140Y32511D01*
X34123Y32502D01*
X34107Y32493D01*
X34094Y32484D01*
X34083Y32475D01*
X34063Y32455D01*
X34043Y32432D01*
X34024Y32407D01*
X34005Y32380D01*
X33880Y32185D01*
X33999Y32185D01*
X34094Y32334D01*
X34114Y32364D01*
X34132Y32391D01*
X34148Y32414D01*
X34162Y32433D01*
X34175Y32448D01*
X34188Y32462D01*
X34200Y32472D01*
X34210Y32480D01*
X34221Y32487D01*
X34232Y32492D01*
X34243Y32496D01*
X34254Y32499D01*
X34263Y32501D01*
X34275Y32502D01*
X34289Y32503D01*
X34306Y32503D01*
X34416Y32503D01*
X34416Y32185D01*
X34511Y32185D01*
X34511Y32185D01*
X33495Y32185D02*
X33583Y32185D01*
X33583Y32745D01*
X33600Y32730D01*
X33619Y32715D01*
X33642Y32700D01*
X33666Y32685D01*
X33691Y32670D01*
X33715Y32658D01*
X33737Y32648D01*
X33759Y32639D01*
X33759Y32724D01*
X33723Y32742D01*
X33689Y32762D01*
X33658Y32784D01*
X33630Y32808D01*
X33604Y32833D01*
X33583Y32857D01*
X33565Y32880D01*
X33552Y32904D01*
X33495Y32904D01*
X33495Y32185D01*
X33495Y32185D01*
G37*
M02*