%FSLAX33Y33*%
%MOMM*%
%AMRect-W1400000-H1400000-RO1.000*
21,1,1.4,1.4,0.,0.,180*%
%ADD10C,0.0508*%
%ADD11C,1.016*%
%ADD12R,2.049999X2.049999*%
%ADD13C,2.049999*%
%ADD14C,2.*%
%ADD15C,1.4*%
%ADD16Rect-W1400000-H1400000-RO1.000*%
%ADD17C,5.5*%
%ADD18R,0.82071X1.67071*%
%ADD19R,2.X2.*%
D10*
%LNpour fill*%
G01*
X44475Y44475D02*
X44475Y44475D01*
X0525Y44475*
X0525Y0525*
X44475Y0525*
X44475Y44475*
X5652Y37137D02*
X5652Y37137D01*
X5655Y37138*
X6273Y37354*
X6275Y37355*
X6830Y37703*
X6832Y37705*
X7295Y38168*
X7297Y38170*
X7645Y38725*
X7646Y38727*
X7862Y39345*
X7863Y39348*
X7928Y39928*
X7913Y39945*
X7735Y39945*
X7735Y40055*
X7913Y40055*
X7928Y40072*
X7863Y40652*
X7862Y40655*
X7646Y41273*
X7645Y41275*
X7297Y41830*
X7295Y41832*
X6832Y42295*
X6830Y42297*
X6275Y42645*
X6273Y42646*
X5655Y42862*
X5652Y42863*
X5072Y42928*
X5055Y42913*
X5055Y42735*
X4945Y42735*
X4945Y42913*
X4928Y42928*
X4348Y42863*
X4345Y42862*
X3727Y42646*
X3725Y42645*
X3170Y42297*
X3168Y42295*
X2705Y41832*
X2703Y41830*
X2355Y41275*
X2354Y41273*
X2138Y40655*
X2137Y40652*
X2072Y40072*
X2087Y40055*
X2265Y40055*
X2265Y39945*
X2087Y39945*
X2072Y39928*
X2137Y39348*
X2138Y39345*
X2354Y38727*
X2355Y38725*
X2703Y38170*
X2705Y38168*
X3168Y37705*
X3170Y37703*
X3725Y37355*
X3727Y37354*
X4345Y37138*
X4348Y37137*
X4928Y37072*
X4945Y37087*
X4945Y37265*
X5055Y37265*
X5055Y37087*
X5072Y37072*
X5652Y37137*
X40652Y37137D02*
X40652Y37137D01*
X40655Y37138*
X41273Y37354*
X41275Y37355*
X41830Y37703*
X41832Y37705*
X42295Y38168*
X42297Y38170*
X42645Y38725*
X42646Y38727*
X42862Y39345*
X42863Y39348*
X42928Y39928*
X42913Y39945*
X42735Y39945*
X42735Y40055*
X42913Y40055*
X42928Y40072*
X42863Y40652*
X42862Y40655*
X42646Y41273*
X42645Y41275*
X42297Y41830*
X42295Y41832*
X41832Y42295*
X41830Y42297*
X41275Y42645*
X41273Y42646*
X40655Y42862*
X40652Y42863*
X40072Y42928*
X40055Y42913*
X40055Y42735*
X39945Y42735*
X39945Y42913*
X39928Y42928*
X39348Y42863*
X39345Y42862*
X38727Y42646*
X38725Y42645*
X38170Y42297*
X38168Y42295*
X37705Y41832*
X37703Y41830*
X37355Y41275*
X37354Y41273*
X37138Y40655*
X37137Y40652*
X37072Y40072*
X37087Y40055*
X37265Y40055*
X37265Y39945*
X37087Y39945*
X37072Y39928*
X37137Y39348*
X37138Y39345*
X37354Y38727*
X37355Y38725*
X37703Y38170*
X37705Y38168*
X38168Y37705*
X38170Y37703*
X38725Y37355*
X38727Y37354*
X39345Y37138*
X39348Y37137*
X39928Y37072*
X39945Y37087*
X39945Y37265*
X40055Y37265*
X40055Y37087*
X40072Y37072*
X40652Y37137*
X35987Y29478D02*
X35987Y29478D01*
X36014Y29480*
X36015Y29481*
X36042Y29487*
X36044Y29488*
X36069Y29498*
X36071Y29499*
X36094Y29513*
X36096Y29514*
X36116Y29532*
X36118Y29534*
X36136Y29554*
X36137Y29556*
X36151Y29579*
X36152Y29581*
X36162Y29606*
X36163Y29608*
X36169Y29635*
X36170Y29636*
X36172Y29663*
X36172Y29664*
X36172Y30115*
X36824Y30767*
X36873Y30743*
X36852Y30572*
X36867Y30555*
X37045Y30555*
X37045Y30445*
X36867Y30445*
X36852Y30428*
X36869Y30289*
X36870Y30286*
X36944Y30089*
X36946Y30087*
X37066Y29913*
X37068Y29911*
X37225Y29771*
X37228Y29770*
X37414Y29672*
X37417Y29671*
X37622Y29620*
X37625Y29620*
X37661Y29620*
X37675Y29635*
X37675Y29820*
X37785Y29820*
X37785Y29635*
X37799Y29620*
X37835Y29620*
X37838Y29620*
X38043Y29671*
X38046Y29672*
X38232Y29770*
X38235Y29771*
X38392Y29911*
X38394Y29913*
X38514Y30087*
X38516Y30089*
X38590Y30286*
X38591Y30289*
X38608Y30428*
X38593Y30445*
X38415Y30445*
X38415Y30555*
X38593Y30555*
X38608Y30572*
X38591Y30711*
X38590Y30714*
X38516Y30911*
X38514Y30913*
X38394Y31087*
X38392Y31089*
X38235Y31229*
X38232Y31230*
X38046Y31328*
X38043Y31329*
X37838Y31380*
X37835Y31380*
X37799Y31380*
X37785Y31365*
X37785Y31180*
X37675Y31180*
X37675Y31365*
X37661Y31380*
X37625Y31380*
X37622Y31380*
X37481Y31345*
X37453Y31395*
X37641Y31584*
X38204Y31584*
X39384Y30404*
X39384Y29799*
X39384Y29798*
X39386Y29772*
X39386Y29770*
X39392Y29743*
X39393Y29741*
X39403Y29716*
X39404Y29714*
X39419Y29691*
X39420Y29690*
X39437Y29669*
X39439Y29667*
X39460Y29650*
X39461Y29649*
X39484Y29634*
X39486Y29633*
X39511Y29623*
X39513Y29622*
X39540Y29616*
X39542Y29616*
X39568Y29614*
X39569Y29614*
X40971Y29614*
X40972Y29614*
X40998Y29616*
X41000Y29616*
X41027Y29622*
X41029Y29623*
X41054Y29633*
X41056Y29634*
X41079Y29649*
X41080Y29650*
X41101Y29667*
X41103Y29669*
X41120Y29690*
X41121Y29691*
X41136Y29714*
X41137Y29716*
X41147Y29741*
X41148Y29743*
X41154Y29770*
X41154Y29772*
X41156Y29799*
X41156Y29800*
X41156Y31200*
X41156Y31201*
X41154Y31228*
X41154Y31230*
X41148Y31257*
X41147Y31259*
X41137Y31284*
X41136Y31286*
X41121Y31309*
X41120Y31310*
X41103Y31331*
X41101Y31333*
X41080Y31350*
X41079Y31351*
X41056Y31366*
X41054Y31367*
X41029Y31377*
X41027Y31378*
X41000Y31384*
X40998Y31384*
X40971Y31386*
X40970Y31386*
X40366Y31386*
X38983Y32769*
X38982Y32770*
X38879Y32855*
X38877Y32856*
X38759Y32919*
X38757Y32920*
X38629Y32959*
X38626Y32959*
X38494Y32972*
X38493Y32972*
X37475Y32972*
X37474Y32972*
X37414Y32966*
X37354Y32972*
X37352Y32972*
X37219Y32959*
X37216Y32959*
X37088Y32920*
X37086Y32919*
X36968Y32856*
X36966Y32855*
X36863Y32770*
X36862Y32769*
X35615Y31522*
X35164Y31522*
X35163Y31522*
X35136Y31520*
X35135Y31519*
X35108Y31513*
X35106Y31512*
X35081Y31502*
X35079Y31501*
X35056Y31487*
X35054Y31486*
X35034Y31468*
X35032Y31466*
X35014Y31446*
X35013Y31444*
X34999Y31421*
X34998Y31419*
X34988Y31394*
X34987Y31392*
X34981Y31365*
X34980Y31364*
X34978Y31337*
X34978Y31336*
X34978Y30850*
X34934Y30767*
X34933Y30765*
X34894Y30637*
X34894Y30634*
X34881Y30501*
X34881Y30499*
X34894Y30366*
X34894Y30363*
X34933Y30235*
X34934Y30233*
X34978Y30150*
X34978Y29664*
X34978Y29663*
X34980Y29636*
X34981Y29635*
X34987Y29608*
X34988Y29606*
X34998Y29581*
X34999Y29579*
X35013Y29556*
X35014Y29554*
X35032Y29534*
X35034Y29532*
X35054Y29514*
X35056Y29513*
X35079Y29499*
X35081Y29498*
X35106Y29488*
X35108Y29487*
X35135Y29481*
X35136Y29480*
X35163Y29478*
X35164Y29478*
X35986Y29478*
X35987Y29478*
X15002Y28814D02*
X15002Y28814D01*
X15028Y28816*
X15030Y28816*
X15057Y28822*
X15059Y28823*
X15084Y28833*
X15086Y28834*
X15109Y28849*
X15110Y28850*
X15131Y28867*
X15133Y28869*
X15150Y28890*
X15151Y28891*
X15166Y28914*
X15167Y28916*
X15177Y28941*
X15178Y28943*
X15184Y28970*
X15184Y28972*
X15186Y28999*
X15186Y29000*
X15186Y29306*
X15588Y29306*
X15651Y29214*
X15653Y29212*
X15865Y29024*
X15867Y29023*
X16118Y28891*
X16121Y28890*
X16395Y28822*
X16399Y28822*
X16681Y28822*
X16685Y28822*
X16959Y28890*
X16962Y28891*
X17213Y29023*
X17215Y29024*
X17427Y29212*
X17429Y29214*
X17590Y29447*
X17591Y29450*
X17692Y29715*
X17692Y29718*
X17726Y29998*
X17726Y30002*
X17704Y30182*
X18218Y30696*
X25019Y30696*
X25019Y30364*
X25019Y30363*
X25021Y30337*
X25021Y30335*
X25027Y30308*
X25028Y30306*
X25038Y30281*
X25039Y30279*
X25054Y30256*
X25055Y30255*
X25072Y30234*
X25074Y30232*
X25095Y30215*
X25096Y30214*
X25119Y30199*
X25121Y30198*
X25146Y30188*
X25148Y30187*
X25175Y30181*
X25177Y30181*
X25203Y30179*
X25204Y30179*
X27256Y30179*
X27257Y30179*
X27283Y30181*
X27285Y30181*
X27312Y30187*
X27314Y30188*
X27339Y30198*
X27341Y30199*
X27364Y30214*
X27365Y30215*
X27386Y30232*
X27388Y30234*
X27405Y30255*
X27406Y30256*
X27421Y30279*
X27422Y30281*
X27432Y30306*
X27433Y30308*
X27439Y30335*
X27439Y30337*
X27441Y30364*
X27441Y30365*
X27441Y30696*
X27788Y30696*
X27862Y30588*
X27864Y30586*
X28081Y30394*
X28083Y30392*
X28339Y30258*
X28342Y30257*
X28622Y30188*
X28626Y30187*
X28914Y30187*
X28918Y30188*
X29198Y30257*
X29201Y30258*
X29457Y30392*
X29459Y30394*
X29676Y30586*
X29678Y30588*
X29752Y30696*
X31247Y30696*
X31828Y30115*
X31828Y29664*
X31828Y29663*
X31830Y29636*
X31831Y29635*
X31837Y29608*
X31838Y29606*
X31848Y29581*
X31849Y29579*
X31863Y29556*
X31864Y29554*
X31882Y29534*
X31884Y29532*
X31904Y29514*
X31906Y29513*
X31929Y29499*
X31931Y29498*
X31956Y29488*
X31958Y29487*
X31985Y29481*
X31986Y29480*
X32013Y29478*
X32014Y29478*
X32836Y29478*
X32837Y29478*
X32864Y29480*
X32865Y29481*
X32892Y29487*
X32894Y29488*
X32919Y29498*
X32921Y29499*
X32944Y29513*
X32946Y29514*
X32966Y29532*
X32968Y29534*
X32986Y29554*
X32987Y29556*
X33001Y29579*
X33002Y29581*
X33012Y29606*
X33013Y29608*
X33019Y29635*
X33020Y29636*
X33022Y29663*
X33022Y29664*
X33022Y30150*
X33066Y30233*
X33067Y30235*
X33106Y30363*
X33106Y30366*
X33119Y30499*
X33119Y30501*
X33106Y30634*
X33106Y30637*
X33067Y30765*
X33066Y30767*
X33022Y30850*
X33022Y31336*
X33022Y31337*
X33020Y31364*
X33019Y31365*
X33013Y31392*
X33012Y31394*
X33002Y31419*
X33001Y31421*
X32987Y31444*
X32986Y31446*
X32968Y31466*
X32966Y31468*
X32946Y31486*
X32944Y31487*
X32921Y31501*
X32919Y31502*
X32894Y31512*
X32892Y31513*
X32865Y31519*
X32864Y31520*
X32837Y31522*
X32836Y31522*
X32385Y31522*
X32026Y31881*
X32025Y31882*
X31922Y31967*
X31920Y31968*
X31802Y32031*
X31800Y32032*
X31672Y32071*
X31669Y32071*
X31537Y32084*
X31536Y32084*
X29752Y32084*
X29678Y32192*
X29676Y32194*
X29459Y32386*
X29457Y32388*
X29201Y32522*
X29198Y32523*
X28918Y32592*
X28914Y32593*
X28626Y32593*
X28622Y32592*
X28342Y32523*
X28339Y32522*
X28083Y32388*
X28081Y32386*
X27864Y32194*
X27862Y32192*
X27788Y32084*
X27441Y32084*
X27441Y32415*
X27441Y32416*
X27439Y32443*
X27439Y32445*
X27433Y32472*
X27432Y32474*
X27422Y32499*
X27421Y32501*
X27406Y32524*
X27405Y32525*
X27388Y32546*
X27386Y32548*
X27365Y32565*
X27364Y32566*
X27341Y32581*
X27339Y32582*
X27314Y32592*
X27312Y32593*
X27285Y32599*
X27283Y32599*
X27256Y32601*
X27255Y32601*
X25205Y32601*
X25204Y32601*
X25177Y32599*
X25175Y32599*
X25148Y32593*
X25146Y32592*
X25121Y32582*
X25119Y32581*
X25096Y32566*
X25095Y32565*
X25074Y32548*
X25072Y32546*
X25055Y32525*
X25054Y32524*
X25039Y32501*
X25038Y32499*
X25028Y32474*
X25027Y32472*
X25021Y32445*
X25021Y32443*
X25019Y32417*
X25019Y32416*
X25019Y32084*
X17929Y32084*
X17928Y32084*
X17796Y32071*
X17793Y32071*
X17665Y32032*
X17663Y32031*
X17545Y31968*
X17543Y31967*
X17440Y31882*
X17439Y31881*
X16725Y31167*
X16685Y31178*
X16681Y31178*
X16399Y31178*
X16395Y31178*
X16121Y31110*
X16118Y31109*
X15867Y30977*
X15865Y30976*
X15653Y30788*
X15651Y30786*
X15588Y30694*
X15186Y30694*
X15186Y31000*
X15186Y31001*
X15184Y31028*
X15184Y31030*
X15178Y31057*
X15177Y31059*
X15167Y31084*
X15166Y31086*
X15151Y31109*
X15150Y31110*
X15133Y31131*
X15131Y31133*
X15110Y31150*
X15109Y31151*
X15086Y31166*
X15084Y31167*
X15059Y31177*
X15057Y31178*
X15030Y31184*
X15028Y31184*
X15001Y31186*
X15000Y31186*
X13000Y31186*
X12999Y31186*
X12972Y31184*
X12970Y31184*
X12943Y31178*
X12941Y31177*
X12916Y31167*
X12914Y31166*
X12891Y31151*
X12890Y31150*
X12869Y31133*
X12867Y31131*
X12850Y31110*
X12849Y31109*
X12834Y31086*
X12833Y31084*
X12823Y31059*
X12822Y31057*
X12816Y31030*
X12816Y31028*
X12814Y31002*
X12814Y31001*
X12814Y30694*
X12412Y30694*
X12349Y30786*
X12347Y30788*
X12135Y30976*
X12133Y30977*
X11882Y31109*
X11879Y31110*
X11605Y31178*
X11601Y31178*
X11319Y31178*
X11315Y31178*
X11041Y31110*
X11038Y31109*
X10787Y30977*
X10785Y30976*
X10573Y30788*
X10571Y30786*
X10410Y30553*
X10409Y30550*
X10308Y30285*
X10308Y30282*
X10274Y30002*
X10274Y29998*
X10308Y29718*
X10308Y29715*
X10409Y29450*
X10410Y29447*
X10571Y29214*
X10573Y29212*
X10785Y29024*
X10787Y29023*
X11038Y28891*
X11041Y28890*
X11315Y28822*
X11319Y28822*
X11601Y28822*
X11605Y28822*
X11879Y28890*
X11882Y28891*
X12133Y29023*
X12135Y29024*
X12347Y29212*
X12349Y29214*
X12412Y29306*
X12814Y29306*
X12814Y28999*
X12814Y28998*
X12816Y28972*
X12816Y28970*
X12822Y28943*
X12823Y28941*
X12833Y28916*
X12834Y28914*
X12849Y28891*
X12850Y28890*
X12867Y28869*
X12869Y28867*
X12890Y28850*
X12891Y28849*
X12914Y28834*
X12916Y28833*
X12941Y28823*
X12943Y28822*
X12970Y28816*
X12972Y28816*
X12998Y28814*
X12999Y28814*
X15001Y28814*
X15002Y28814*
X26175Y27662D02*
X26175Y27662D01*
X26175Y27847*
X26285Y27847*
X26285Y27662*
X26299Y27647*
X26374Y27647*
X26378Y27648*
X26658Y27717*
X26661Y27718*
X26917Y27852*
X26919Y27854*
X27136Y28046*
X27138Y28048*
X27302Y28286*
X27303Y28288*
X27406Y28559*
X27407Y28562*
X27433Y28778*
X27418Y28795*
X27240Y28795*
X27240Y28905*
X27418Y28905*
X27433Y28922*
X27407Y29138*
X27406Y29141*
X27303Y29412*
X27302Y29414*
X27138Y29652*
X27136Y29654*
X26919Y29846*
X26917Y29848*
X26661Y29982*
X26658Y29983*
X26378Y30052*
X26374Y30053*
X26299Y30053*
X26285Y30038*
X26285Y29853*
X26175Y29853*
X26175Y30038*
X26161Y30053*
X26086Y30053*
X26082Y30052*
X25802Y29983*
X25799Y29982*
X25543Y29848*
X25541Y29846*
X25324Y29654*
X25322Y29652*
X25158Y29414*
X25157Y29412*
X25054Y29141*
X25053Y29138*
X25027Y28922*
X25042Y28905*
X25220Y28905*
X25220Y28795*
X25042Y28795*
X25027Y28778*
X25053Y28562*
X25054Y28559*
X25157Y28288*
X25158Y28286*
X25322Y28048*
X25324Y28046*
X25541Y27854*
X25543Y27852*
X25799Y27718*
X25802Y27717*
X26082Y27648*
X26086Y27647*
X26161Y27647*
X26175Y27662*
X28715Y27662D02*
X28715Y27662D01*
X28715Y27847*
X28825Y27847*
X28825Y27662*
X28839Y27647*
X28914Y27647*
X28918Y27648*
X29198Y27717*
X29201Y27718*
X29457Y27852*
X29459Y27854*
X29676Y28046*
X29678Y28048*
X29842Y28286*
X29843Y28288*
X29946Y28559*
X29947Y28562*
X29973Y28778*
X29958Y28795*
X29780Y28795*
X29780Y28905*
X29958Y28905*
X29973Y28922*
X29947Y29138*
X29946Y29141*
X29843Y29412*
X29842Y29414*
X29678Y29652*
X29676Y29654*
X29459Y29846*
X29457Y29848*
X29201Y29982*
X29198Y29983*
X28918Y30052*
X28914Y30053*
X28839Y30053*
X28825Y30038*
X28825Y29853*
X28715Y29853*
X28715Y30038*
X28701Y30053*
X28626Y30053*
X28622Y30052*
X28342Y29983*
X28339Y29982*
X28083Y29848*
X28081Y29846*
X27864Y29654*
X27862Y29652*
X27698Y29414*
X27697Y29412*
X27594Y29141*
X27593Y29138*
X27567Y28922*
X27582Y28905*
X27760Y28905*
X27760Y28795*
X27582Y28795*
X27567Y28778*
X27593Y28562*
X27594Y28559*
X27697Y28288*
X27698Y28286*
X27862Y28048*
X27864Y28046*
X28081Y27854*
X28083Y27852*
X28339Y27718*
X28342Y27717*
X28622Y27648*
X28626Y27647*
X28701Y27647*
X28715Y27662*
X26175Y25122D02*
X26175Y25122D01*
X26175Y25307*
X26285Y25307*
X26285Y25122*
X26299Y25107*
X26374Y25107*
X26378Y25108*
X26658Y25177*
X26661Y25178*
X26917Y25312*
X26919Y25314*
X27136Y25506*
X27138Y25508*
X27302Y25746*
X27303Y25748*
X27406Y26019*
X27407Y26022*
X27433Y26238*
X27418Y26255*
X27240Y26255*
X27240Y26365*
X27418Y26365*
X27433Y26382*
X27407Y26598*
X27406Y26601*
X27303Y26872*
X27302Y26874*
X27138Y27112*
X27136Y27114*
X26919Y27306*
X26917Y27308*
X26661Y27442*
X26658Y27443*
X26378Y27512*
X26374Y27513*
X26299Y27513*
X26285Y27498*
X26285Y27313*
X26175Y27313*
X26175Y27498*
X26161Y27513*
X26086Y27513*
X26082Y27512*
X25802Y27443*
X25799Y27442*
X25543Y27308*
X25541Y27306*
X25324Y27114*
X25322Y27112*
X25158Y26874*
X25157Y26872*
X25054Y26601*
X25053Y26598*
X25027Y26382*
X25042Y26365*
X25220Y26365*
X25220Y26255*
X25042Y26255*
X25027Y26238*
X25053Y26022*
X25054Y26019*
X25157Y25748*
X25158Y25746*
X25322Y25508*
X25324Y25506*
X25541Y25314*
X25543Y25312*
X25799Y25178*
X25802Y25177*
X26082Y25108*
X26086Y25107*
X26161Y25107*
X26175Y25122*
X28715Y25122D02*
X28715Y25122D01*
X28715Y25307*
X28825Y25307*
X28825Y25122*
X28839Y25107*
X28914Y25107*
X28918Y25108*
X29198Y25177*
X29201Y25178*
X29457Y25312*
X29459Y25314*
X29676Y25506*
X29678Y25508*
X29842Y25746*
X29843Y25748*
X29946Y26019*
X29947Y26022*
X29973Y26238*
X29958Y26255*
X29780Y26255*
X29780Y26365*
X29958Y26365*
X29973Y26382*
X29947Y26598*
X29946Y26601*
X29843Y26872*
X29842Y26874*
X29678Y27112*
X29676Y27114*
X29459Y27306*
X29457Y27308*
X29201Y27442*
X29198Y27443*
X28918Y27512*
X28914Y27513*
X28839Y27513*
X28825Y27498*
X28825Y27313*
X28715Y27313*
X28715Y27498*
X28701Y27513*
X28626Y27513*
X28622Y27512*
X28342Y27443*
X28339Y27442*
X28083Y27308*
X28081Y27306*
X27864Y27114*
X27862Y27112*
X27698Y26874*
X27697Y26872*
X27594Y26601*
X27593Y26598*
X27567Y26382*
X27582Y26365*
X27760Y26365*
X27760Y26255*
X27582Y26255*
X27567Y26238*
X27593Y26022*
X27594Y26019*
X27697Y25748*
X27698Y25746*
X27862Y25508*
X27864Y25506*
X28081Y25314*
X28083Y25312*
X28339Y25178*
X28342Y25177*
X28622Y25108*
X28626Y25107*
X28701Y25107*
X28715Y25122*
X11405Y23837D02*
X11405Y23837D01*
X11405Y24022*
X11515Y24022*
X11515Y23837*
X11529Y23822*
X11601Y23822*
X11605Y23822*
X11879Y23890*
X11882Y23891*
X12133Y24023*
X12135Y24024*
X12347Y24212*
X12349Y24214*
X12510Y24447*
X12511Y24450*
X12612Y24715*
X12612Y24718*
X12638Y24928*
X12623Y24945*
X12445Y24945*
X12445Y25055*
X12623Y25055*
X12638Y25072*
X12612Y25282*
X12612Y25285*
X12511Y25550*
X12510Y25553*
X12349Y25786*
X12347Y25788*
X12135Y25976*
X12133Y25977*
X11882Y26109*
X11879Y26110*
X11605Y26178*
X11601Y26178*
X11529Y26178*
X11515Y26163*
X11515Y25978*
X11405Y25978*
X11405Y26163*
X11391Y26178*
X11319Y26178*
X11315Y26178*
X11041Y26110*
X11038Y26109*
X10787Y25977*
X10785Y25976*
X10573Y25788*
X10571Y25786*
X10410Y25553*
X10409Y25550*
X10308Y25285*
X10308Y25282*
X10282Y25072*
X10297Y25055*
X10475Y25055*
X10475Y24945*
X10297Y24945*
X10282Y24928*
X10308Y24718*
X10308Y24715*
X10409Y24450*
X10410Y24447*
X10571Y24214*
X10573Y24212*
X10785Y24024*
X10787Y24023*
X11038Y23891*
X11041Y23890*
X11315Y23822*
X11319Y23822*
X11391Y23822*
X11405Y23837*
X13945Y23837D02*
X13945Y23837D01*
X13945Y24022*
X14055Y24022*
X14055Y23837*
X14069Y23822*
X14141Y23822*
X14145Y23822*
X14419Y23890*
X14422Y23891*
X14673Y24023*
X14675Y24024*
X14887Y24212*
X14889Y24214*
X15050Y24447*
X15051Y24450*
X15152Y24715*
X15152Y24718*
X15178Y24928*
X15163Y24945*
X14985Y24945*
X14985Y25055*
X15163Y25055*
X15178Y25072*
X15152Y25282*
X15152Y25285*
X15051Y25550*
X15050Y25553*
X14889Y25786*
X14887Y25788*
X14675Y25976*
X14673Y25977*
X14422Y26109*
X14419Y26110*
X14145Y26178*
X14141Y26178*
X14069Y26178*
X14055Y26163*
X14055Y25978*
X13945Y25978*
X13945Y26163*
X13931Y26178*
X13859Y26178*
X13855Y26178*
X13581Y26110*
X13578Y26109*
X13327Y25977*
X13325Y25976*
X13113Y25788*
X13111Y25786*
X12950Y25553*
X12949Y25550*
X12848Y25285*
X12848Y25282*
X12822Y25072*
X12837Y25055*
X13015Y25055*
X13015Y24945*
X12837Y24945*
X12822Y24928*
X12848Y24718*
X12848Y24715*
X12949Y24450*
X12950Y24447*
X13111Y24214*
X13113Y24212*
X13325Y24024*
X13327Y24023*
X13578Y23891*
X13581Y23890*
X13855Y23822*
X13859Y23822*
X13931Y23822*
X13945Y23837*
X16485Y23837D02*
X16485Y23837D01*
X16485Y24022*
X16595Y24022*
X16595Y23837*
X16609Y23822*
X16681Y23822*
X16685Y23822*
X16959Y23890*
X16962Y23891*
X17213Y24023*
X17215Y24024*
X17427Y24212*
X17429Y24214*
X17590Y24447*
X17591Y24450*
X17692Y24715*
X17692Y24718*
X17718Y24928*
X17703Y24945*
X17525Y24945*
X17525Y25055*
X17703Y25055*
X17718Y25072*
X17692Y25282*
X17692Y25285*
X17591Y25550*
X17590Y25553*
X17429Y25786*
X17427Y25788*
X17215Y25976*
X17213Y25977*
X16962Y26109*
X16959Y26110*
X16685Y26178*
X16681Y26178*
X16609Y26178*
X16595Y26163*
X16595Y25978*
X16485Y25978*
X16485Y26163*
X16471Y26178*
X16399Y26178*
X16395Y26178*
X16121Y26110*
X16118Y26109*
X15867Y25977*
X15865Y25976*
X15653Y25788*
X15651Y25786*
X15490Y25553*
X15489Y25550*
X15388Y25285*
X15388Y25282*
X15362Y25072*
X15377Y25055*
X15555Y25055*
X15555Y24945*
X15377Y24945*
X15362Y24928*
X15388Y24718*
X15388Y24715*
X15489Y24450*
X15490Y24447*
X15651Y24214*
X15653Y24212*
X15865Y24024*
X15867Y24023*
X16118Y23891*
X16121Y23890*
X16395Y23822*
X16399Y23822*
X16471Y23822*
X16485Y23837*
X26175Y22582D02*
X26175Y22582D01*
X26175Y22767*
X26285Y22767*
X26285Y22582*
X26299Y22567*
X26374Y22567*
X26378Y22568*
X26658Y22637*
X26661Y22638*
X26917Y22772*
X26919Y22774*
X27136Y22966*
X27138Y22968*
X27302Y23206*
X27303Y23208*
X27406Y23479*
X27407Y23482*
X27433Y23698*
X27418Y23715*
X27240Y23715*
X27240Y23825*
X27418Y23825*
X27433Y23842*
X27407Y24058*
X27406Y24061*
X27303Y24332*
X27302Y24334*
X27138Y24572*
X27136Y24574*
X26919Y24766*
X26917Y24768*
X26661Y24902*
X26658Y24903*
X26378Y24972*
X26374Y24973*
X26299Y24973*
X26285Y24958*
X26285Y24773*
X26175Y24773*
X26175Y24958*
X26161Y24973*
X26086Y24973*
X26082Y24972*
X25802Y24903*
X25799Y24902*
X25543Y24768*
X25541Y24766*
X25324Y24574*
X25322Y24572*
X25158Y24334*
X25157Y24332*
X25054Y24061*
X25053Y24058*
X25027Y23842*
X25042Y23825*
X25220Y23825*
X25220Y23715*
X25042Y23715*
X25027Y23698*
X25053Y23482*
X25054Y23479*
X25157Y23208*
X25158Y23206*
X25322Y22968*
X25324Y22966*
X25541Y22774*
X25543Y22772*
X25799Y22638*
X25802Y22637*
X26082Y22568*
X26086Y22567*
X26161Y22567*
X26175Y22582*
X28715Y22582D02*
X28715Y22582D01*
X28715Y22767*
X28825Y22767*
X28825Y22582*
X28839Y22567*
X28914Y22567*
X28918Y22568*
X29198Y22637*
X29201Y22638*
X29457Y22772*
X29459Y22774*
X29676Y22966*
X29678Y22968*
X29842Y23206*
X29843Y23208*
X29946Y23479*
X29947Y23482*
X29973Y23698*
X29958Y23715*
X29780Y23715*
X29780Y23825*
X29958Y23825*
X29973Y23842*
X29947Y24058*
X29946Y24061*
X29843Y24332*
X29842Y24334*
X29678Y24572*
X29676Y24574*
X29459Y24766*
X29457Y24768*
X29201Y24902*
X29198Y24903*
X28918Y24972*
X28914Y24973*
X28839Y24973*
X28825Y24958*
X28825Y24773*
X28715Y24773*
X28715Y24958*
X28701Y24973*
X28626Y24973*
X28622Y24972*
X28342Y24903*
X28339Y24902*
X28083Y24768*
X28081Y24766*
X27864Y24574*
X27862Y24572*
X27698Y24334*
X27697Y24332*
X27594Y24061*
X27593Y24058*
X27567Y23842*
X27582Y23825*
X27760Y23825*
X27760Y23715*
X27582Y23715*
X27567Y23698*
X27593Y23482*
X27594Y23479*
X27697Y23208*
X27698Y23206*
X27862Y22968*
X27864Y22966*
X28081Y22774*
X28083Y22772*
X28339Y22638*
X28342Y22637*
X28622Y22568*
X28626Y22567*
X28701Y22567*
X28715Y22582*
X11605Y18822D02*
X11605Y18822D01*
X11879Y18890*
X11882Y18891*
X12133Y19023*
X12135Y19024*
X12347Y19212*
X12349Y19214*
X12412Y19306*
X13048Y19306*
X13111Y19214*
X13113Y19212*
X13325Y19024*
X13327Y19023*
X13578Y18891*
X13581Y18890*
X13855Y18822*
X13859Y18822*
X14141Y18822*
X14145Y18822*
X14419Y18890*
X14422Y18891*
X14673Y19023*
X14675Y19024*
X14887Y19212*
X14889Y19214*
X14952Y19306*
X15588Y19306*
X15651Y19214*
X15653Y19212*
X15865Y19024*
X15867Y19023*
X16118Y18891*
X16121Y18890*
X16395Y18822*
X16399Y18822*
X16681Y18822*
X16685Y18822*
X16959Y18890*
X16962Y18891*
X17213Y19023*
X17215Y19024*
X17427Y19212*
X17429Y19214*
X17590Y19447*
X17591Y19450*
X17692Y19715*
X17692Y19718*
X17726Y19998*
X17726Y20002*
X17704Y20182*
X18058Y20536*
X25248Y20536*
X25322Y20428*
X25324Y20426*
X25541Y20234*
X25543Y20232*
X25799Y20098*
X25802Y20097*
X26082Y20028*
X26086Y20027*
X26374Y20027*
X26378Y20028*
X26658Y20097*
X26661Y20098*
X26917Y20232*
X26919Y20234*
X27136Y20426*
X27138Y20428*
X27212Y20536*
X27788Y20536*
X27862Y20428*
X27864Y20426*
X28081Y20234*
X28083Y20232*
X28339Y20098*
X28342Y20097*
X28622Y20028*
X28626Y20027*
X28914Y20027*
X28918Y20028*
X29198Y20097*
X29201Y20098*
X29457Y20232*
X29459Y20234*
X29676Y20426*
X29678Y20428*
X29752Y20536*
X31156Y20536*
X31157Y20536*
X31289Y20549*
X31292Y20549*
X31420Y20588*
X31422Y20589*
X31540Y20652*
X31542Y20653*
X31645Y20738*
X31646Y20739*
X32385Y21478*
X32836Y21478*
X32837Y21478*
X32864Y21480*
X32865Y21481*
X32892Y21487*
X32894Y21488*
X32919Y21498*
X32921Y21499*
X32944Y21513*
X32946Y21514*
X32966Y21532*
X32968Y21534*
X32986Y21554*
X32987Y21556*
X33001Y21579*
X33002Y21581*
X33012Y21606*
X33013Y21608*
X33019Y21635*
X33020Y21636*
X33022Y21663*
X33022Y21664*
X33022Y22150*
X33066Y22233*
X33067Y22235*
X33106Y22363*
X33106Y22366*
X33119Y22499*
X33119Y22501*
X33106Y22634*
X33106Y22637*
X33067Y22765*
X33066Y22767*
X33022Y22850*
X33022Y23336*
X33022Y23337*
X33020Y23364*
X33019Y23365*
X33013Y23392*
X33012Y23394*
X33002Y23419*
X33001Y23421*
X32987Y23444*
X32986Y23446*
X32968Y23466*
X32966Y23468*
X32946Y23486*
X32944Y23487*
X32921Y23501*
X32919Y23502*
X32894Y23512*
X32892Y23513*
X32865Y23519*
X32864Y23520*
X32837Y23522*
X32836Y23522*
X32014Y23522*
X32013Y23522*
X31986Y23520*
X31985Y23519*
X31958Y23513*
X31956Y23512*
X31931Y23502*
X31929Y23501*
X31906Y23487*
X31904Y23486*
X31884Y23468*
X31882Y23466*
X31864Y23446*
X31863Y23444*
X31849Y23421*
X31848Y23419*
X31838Y23394*
X31837Y23392*
X31831Y23365*
X31830Y23364*
X31828Y23337*
X31828Y23336*
X31828Y22885*
X30867Y21924*
X29752Y21924*
X29678Y22032*
X29676Y22034*
X29459Y22226*
X29457Y22228*
X29201Y22362*
X29198Y22363*
X28918Y22432*
X28914Y22433*
X28626Y22433*
X28622Y22432*
X28342Y22363*
X28339Y22362*
X28083Y22228*
X28081Y22226*
X27864Y22034*
X27862Y22032*
X27788Y21924*
X27212Y21924*
X27138Y22032*
X27136Y22034*
X26919Y22226*
X26917Y22228*
X26661Y22362*
X26658Y22363*
X26378Y22432*
X26374Y22433*
X26086Y22433*
X26082Y22432*
X25802Y22363*
X25799Y22362*
X25543Y22228*
X25541Y22226*
X25324Y22034*
X25322Y22032*
X25248Y21924*
X17769Y21924*
X17768Y21924*
X17636Y21911*
X17633Y21911*
X17505Y21872*
X17503Y21871*
X17385Y21808*
X17383Y21807*
X17280Y21722*
X17279Y21721*
X16725Y21167*
X16685Y21178*
X16681Y21178*
X16399Y21178*
X16395Y21178*
X16121Y21110*
X16118Y21109*
X15867Y20977*
X15865Y20976*
X15653Y20788*
X15651Y20786*
X15588Y20694*
X14952Y20694*
X14889Y20786*
X14887Y20788*
X14675Y20976*
X14673Y20977*
X14422Y21109*
X14419Y21110*
X14145Y21178*
X14141Y21178*
X13859Y21178*
X13855Y21178*
X13581Y21110*
X13578Y21109*
X13327Y20977*
X13325Y20976*
X13113Y20788*
X13111Y20786*
X13048Y20694*
X12412Y20694*
X12349Y20786*
X12347Y20788*
X12135Y20976*
X12133Y20977*
X11882Y21109*
X11879Y21110*
X11605Y21178*
X11601Y21178*
X11319Y21178*
X11315Y21178*
X11041Y21110*
X11038Y21109*
X10787Y20977*
X10785Y20976*
X10573Y20788*
X10571Y20786*
X10410Y20553*
X10409Y20550*
X10308Y20285*
X10308Y20282*
X10274Y20002*
X10274Y19998*
X10308Y19718*
X10308Y19715*
X10409Y19450*
X10410Y19447*
X10571Y19214*
X10573Y19212*
X10785Y19024*
X10787Y19023*
X11038Y18891*
X11041Y18890*
X11315Y18822*
X11319Y18822*
X11601Y18822*
X11605Y18822*
X35987Y21478D02*
X35987Y21478D01*
X36014Y21480*
X36015Y21481*
X36042Y21487*
X36044Y21488*
X36069Y21498*
X36071Y21499*
X36094Y21513*
X36096Y21514*
X36116Y21532*
X36118Y21534*
X36136Y21554*
X36137Y21556*
X36151Y21579*
X36152Y21581*
X36162Y21606*
X36163Y21608*
X36169Y21635*
X36170Y21636*
X36172Y21663*
X36172Y21664*
X36172Y21806*
X37187Y21806*
X37225Y21771*
X37228Y21770*
X37414Y21672*
X37417Y21671*
X37622Y21620*
X37625Y21620*
X37835Y21620*
X37838Y21620*
X38043Y21671*
X38046Y21672*
X38232Y21770*
X38235Y21771*
X38392Y21911*
X38394Y21913*
X38514Y22087*
X38516Y22089*
X38590Y22286*
X38591Y22289*
X38616Y22498*
X38616Y22502*
X38591Y22711*
X38590Y22714*
X38516Y22911*
X38514Y22913*
X38394Y23087*
X38392Y23089*
X38235Y23229*
X38232Y23230*
X38046Y23328*
X38043Y23329*
X37838Y23380*
X37835Y23380*
X37625Y23380*
X37622Y23380*
X37417Y23329*
X37414Y23328*
X37228Y23230*
X37225Y23229*
X37187Y23194*
X36172Y23194*
X36172Y23336*
X36172Y23337*
X36170Y23364*
X36169Y23365*
X36163Y23392*
X36162Y23394*
X36152Y23419*
X36151Y23421*
X36137Y23444*
X36136Y23446*
X36118Y23466*
X36116Y23468*
X36096Y23486*
X36094Y23487*
X36071Y23501*
X36069Y23502*
X36044Y23512*
X36042Y23513*
X36015Y23519*
X36014Y23520*
X35987Y23522*
X35986Y23522*
X35164Y23522*
X35163Y23522*
X35136Y23520*
X35135Y23519*
X35108Y23513*
X35106Y23512*
X35081Y23502*
X35079Y23501*
X35056Y23487*
X35054Y23486*
X35034Y23468*
X35032Y23466*
X35014Y23446*
X35013Y23444*
X34999Y23421*
X34998Y23419*
X34988Y23394*
X34987Y23392*
X34981Y23365*
X34980Y23364*
X34978Y23337*
X34978Y23336*
X34978Y22850*
X34934Y22767*
X34933Y22765*
X34894Y22637*
X34894Y22634*
X34881Y22501*
X34881Y22499*
X34894Y22366*
X34894Y22363*
X34933Y22235*
X34934Y22233*
X34978Y22150*
X34978Y21664*
X34978Y21663*
X34980Y21636*
X34981Y21635*
X34987Y21608*
X34988Y21606*
X34998Y21581*
X34999Y21579*
X35013Y21556*
X35014Y21554*
X35032Y21534*
X35034Y21532*
X35054Y21514*
X35056Y21513*
X35079Y21499*
X35081Y21498*
X35106Y21488*
X35108Y21487*
X35135Y21481*
X35136Y21480*
X35163Y21478*
X35164Y21478*
X35986Y21478*
X35987Y21478*
X40215Y21628D02*
X40215Y21628D01*
X40215Y21815*
X40325Y21815*
X40325Y21628*
X40339Y21614*
X40971Y21614*
X40972Y21614*
X40998Y21616*
X41000Y21616*
X41027Y21622*
X41029Y21623*
X41054Y21633*
X41056Y21634*
X41079Y21649*
X41080Y21650*
X41101Y21667*
X41103Y21669*
X41120Y21690*
X41121Y21691*
X41136Y21714*
X41137Y21716*
X41147Y21741*
X41148Y21743*
X41154Y21770*
X41154Y21772*
X41156Y21799*
X41156Y21800*
X41156Y22431*
X41142Y22445*
X40955Y22445*
X40955Y22555*
X41142Y22555*
X41156Y22569*
X41156Y23200*
X41156Y23201*
X41154Y23228*
X41154Y23230*
X41148Y23257*
X41147Y23259*
X41137Y23284*
X41136Y23286*
X41121Y23309*
X41120Y23310*
X41103Y23331*
X41101Y23333*
X41080Y23350*
X41079Y23351*
X41056Y23366*
X41054Y23367*
X41029Y23377*
X41027Y23378*
X41000Y23384*
X40998Y23384*
X40971Y23386*
X40970Y23386*
X40339Y23386*
X40325Y23372*
X40325Y23185*
X40215Y23185*
X40215Y23372*
X40201Y23386*
X39570Y23386*
X39569Y23386*
X39542Y23384*
X39540Y23384*
X39513Y23378*
X39511Y23377*
X39486Y23367*
X39484Y23366*
X39461Y23351*
X39460Y23350*
X39439Y23333*
X39437Y23331*
X39420Y23310*
X39419Y23309*
X39404Y23286*
X39403Y23284*
X39393Y23259*
X39392Y23257*
X39386Y23230*
X39386Y23228*
X39384Y23202*
X39384Y23201*
X39384Y22569*
X39398Y22555*
X39585Y22555*
X39585Y22445*
X39398Y22445*
X39384Y22431*
X39384Y21799*
X39384Y21798*
X39386Y21772*
X39386Y21770*
X39392Y21743*
X39393Y21741*
X39403Y21716*
X39404Y21714*
X39419Y21691*
X39420Y21690*
X39437Y21669*
X39439Y21667*
X39460Y21650*
X39461Y21649*
X39484Y21634*
X39486Y21633*
X39511Y21623*
X39513Y21622*
X39540Y21616*
X39542Y21616*
X39568Y21614*
X39569Y21614*
X40201Y21614*
X40215Y21628*
X32837Y13478D02*
X32837Y13478D01*
X32864Y13480*
X32865Y13481*
X32892Y13487*
X32894Y13488*
X32919Y13498*
X32921Y13499*
X32944Y13513*
X32946Y13514*
X32966Y13532*
X32968Y13534*
X32986Y13554*
X32987Y13556*
X33001Y13579*
X33002Y13581*
X33012Y13606*
X33013Y13608*
X33019Y13635*
X33020Y13636*
X33022Y13663*
X33022Y13664*
X33022Y14150*
X33066Y14233*
X33067Y14235*
X33106Y14363*
X33106Y14366*
X33119Y14498*
X33119Y14499*
X33119Y17527*
X33119Y17528*
X33106Y17660*
X33106Y17663*
X33067Y17791*
X33066Y17793*
X33003Y17911*
X33002Y17913*
X32917Y18016*
X32916Y18017*
X31752Y19181*
X31751Y19182*
X31648Y19267*
X31646Y19268*
X31528Y19331*
X31526Y19332*
X31398Y19371*
X31395Y19371*
X31263Y19384*
X31262Y19384*
X29752Y19384*
X29678Y19492*
X29676Y19494*
X29459Y19686*
X29457Y19688*
X29201Y19822*
X29198Y19823*
X28918Y19892*
X28914Y19893*
X28626Y19893*
X28622Y19892*
X28342Y19823*
X28339Y19822*
X28083Y19688*
X28081Y19686*
X27864Y19494*
X27862Y19492*
X27788Y19384*
X27212Y19384*
X27138Y19492*
X27136Y19494*
X26919Y19686*
X26917Y19688*
X26661Y19822*
X26658Y19823*
X26378Y19892*
X26374Y19893*
X26086Y19893*
X26082Y19892*
X25802Y19823*
X25799Y19822*
X25543Y19688*
X25541Y19686*
X25324Y19494*
X25322Y19492*
X25248Y19384*
X20229Y19384*
X20228Y19384*
X20096Y19371*
X20093Y19371*
X19965Y19332*
X19963Y19331*
X19845Y19268*
X19843Y19267*
X19740Y19182*
X19739Y19181*
X16725Y16167*
X16685Y16178*
X16681Y16178*
X16399Y16178*
X16395Y16178*
X16121Y16110*
X16118Y16109*
X15867Y15977*
X15865Y15976*
X15653Y15788*
X15651Y15786*
X15588Y15694*
X14952Y15694*
X14889Y15786*
X14887Y15788*
X14675Y15976*
X14673Y15977*
X14422Y16109*
X14419Y16110*
X14145Y16178*
X14141Y16178*
X13859Y16178*
X13855Y16178*
X13581Y16110*
X13578Y16109*
X13327Y15977*
X13325Y15976*
X13113Y15788*
X13111Y15786*
X13048Y15694*
X12412Y15694*
X12349Y15786*
X12347Y15788*
X12135Y15976*
X12133Y15977*
X11882Y16109*
X11879Y16110*
X11605Y16178*
X11601Y16178*
X11319Y16178*
X11315Y16178*
X11041Y16110*
X11038Y16109*
X10787Y15977*
X10785Y15976*
X10573Y15788*
X10571Y15786*
X10410Y15553*
X10409Y15550*
X10308Y15285*
X10308Y15282*
X10274Y15002*
X10274Y14998*
X10308Y14718*
X10308Y14715*
X10409Y14450*
X10410Y14447*
X10571Y14214*
X10573Y14212*
X10785Y14024*
X10787Y14023*
X11038Y13891*
X11041Y13890*
X11315Y13822*
X11319Y13822*
X11601Y13822*
X11605Y13822*
X11879Y13890*
X11882Y13891*
X12133Y14023*
X12135Y14024*
X12347Y14212*
X12349Y14214*
X12412Y14306*
X13048Y14306*
X13111Y14214*
X13113Y14212*
X13325Y14024*
X13327Y14023*
X13578Y13891*
X13581Y13890*
X13855Y13822*
X13859Y13822*
X14141Y13822*
X14145Y13822*
X14419Y13890*
X14422Y13891*
X14673Y14023*
X14675Y14024*
X14887Y14212*
X14889Y14214*
X14952Y14306*
X15588Y14306*
X15651Y14214*
X15653Y14212*
X15865Y14024*
X15867Y14023*
X16118Y13891*
X16121Y13890*
X16395Y13822*
X16399Y13822*
X16681Y13822*
X16685Y13822*
X16959Y13890*
X16962Y13891*
X17213Y14023*
X17215Y14024*
X17427Y14212*
X17429Y14214*
X17590Y14447*
X17591Y14450*
X17692Y14715*
X17692Y14718*
X17726Y14998*
X17726Y15002*
X17704Y15182*
X20518Y17996*
X25248Y17996*
X25322Y17888*
X25324Y17886*
X25541Y17694*
X25543Y17692*
X25799Y17558*
X25802Y17557*
X26082Y17488*
X26086Y17487*
X26374Y17487*
X26378Y17488*
X26658Y17557*
X26661Y17558*
X26917Y17692*
X26919Y17694*
X27136Y17886*
X27138Y17888*
X27212Y17996*
X27788Y17996*
X27862Y17888*
X27864Y17886*
X28081Y17694*
X28083Y17692*
X28339Y17558*
X28342Y17557*
X28622Y17488*
X28626Y17487*
X28914Y17487*
X28918Y17488*
X29198Y17557*
X29201Y17558*
X29457Y17692*
X29459Y17694*
X29676Y17886*
X29678Y17888*
X29752Y17996*
X30973Y17996*
X31731Y17238*
X31731Y14499*
X31731Y14498*
X31744Y14366*
X31744Y14363*
X31783Y14235*
X31784Y14233*
X31828Y14150*
X31828Y13664*
X31828Y13663*
X31830Y13636*
X31831Y13635*
X31837Y13608*
X31838Y13606*
X31848Y13581*
X31849Y13579*
X31863Y13556*
X31864Y13554*
X31882Y13534*
X31884Y13532*
X31904Y13514*
X31906Y13513*
X31929Y13499*
X31931Y13498*
X31956Y13488*
X31958Y13487*
X31985Y13481*
X31986Y13480*
X32013Y13478*
X32014Y13478*
X32836Y13478*
X32837Y13478*
X26378Y14948D02*
X26378Y14948D01*
X26658Y15017*
X26661Y15018*
X26917Y15152*
X26919Y15154*
X27136Y15346*
X27138Y15348*
X27302Y15586*
X27303Y15588*
X27406Y15859*
X27407Y15862*
X27441Y16148*
X27441Y16152*
X27407Y16438*
X27406Y16441*
X27303Y16712*
X27302Y16714*
X27138Y16952*
X27136Y16954*
X26919Y17146*
X26917Y17148*
X26661Y17282*
X26658Y17283*
X26378Y17352*
X26374Y17353*
X26086Y17353*
X26082Y17352*
X25802Y17283*
X25799Y17282*
X25543Y17148*
X25541Y17146*
X25324Y16954*
X25322Y16952*
X25158Y16714*
X25157Y16712*
X25054Y16441*
X25053Y16438*
X25019Y16152*
X25019Y16148*
X25053Y15862*
X25054Y15859*
X25157Y15588*
X25158Y15586*
X25322Y15348*
X25324Y15346*
X25541Y15154*
X25543Y15152*
X25799Y15018*
X25802Y15017*
X26082Y14948*
X26086Y14947*
X26374Y14947*
X26378Y14948*
X28918Y14948D02*
X28918Y14948D01*
X29198Y15017*
X29201Y15018*
X29457Y15152*
X29459Y15154*
X29676Y15346*
X29678Y15348*
X29842Y15586*
X29843Y15588*
X29946Y15859*
X29947Y15862*
X29981Y16148*
X29981Y16152*
X29947Y16438*
X29946Y16441*
X29843Y16712*
X29842Y16714*
X29678Y16952*
X29676Y16954*
X29459Y17146*
X29457Y17148*
X29201Y17282*
X29198Y17283*
X28918Y17352*
X28914Y17353*
X28626Y17353*
X28622Y17352*
X28342Y17283*
X28339Y17282*
X28083Y17148*
X28081Y17146*
X27864Y16954*
X27862Y16952*
X27698Y16714*
X27697Y16712*
X27594Y16441*
X27593Y16438*
X27559Y16152*
X27559Y16148*
X27593Y15862*
X27594Y15859*
X27697Y15588*
X27698Y15586*
X27862Y15348*
X27864Y15346*
X28081Y15154*
X28083Y15152*
X28339Y15018*
X28342Y15017*
X28622Y14948*
X28626Y14947*
X28914Y14947*
X28918Y14948*
X35987Y13478D02*
X35987Y13478D01*
X36014Y13480*
X36015Y13481*
X36042Y13487*
X36044Y13488*
X36069Y13498*
X36071Y13499*
X36094Y13513*
X36096Y13514*
X36116Y13532*
X36118Y13534*
X36136Y13554*
X36137Y13556*
X36151Y13579*
X36152Y13581*
X36162Y13606*
X36163Y13608*
X36169Y13635*
X36170Y13636*
X36172Y13663*
X36172Y13664*
X36172Y13806*
X37187Y13806*
X37225Y13771*
X37228Y13770*
X37414Y13672*
X37417Y13671*
X37622Y13620*
X37625Y13620*
X37835Y13620*
X37838Y13620*
X38043Y13671*
X38046Y13672*
X38232Y13770*
X38235Y13771*
X38392Y13911*
X38394Y13913*
X38514Y14087*
X38516Y14089*
X38590Y14286*
X38591Y14289*
X38616Y14498*
X38616Y14502*
X38591Y14711*
X38590Y14714*
X38516Y14911*
X38514Y14913*
X38394Y15087*
X38392Y15089*
X38235Y15229*
X38232Y15230*
X38046Y15328*
X38043Y15329*
X37838Y15380*
X37835Y15380*
X37625Y15380*
X37622Y15380*
X37417Y15329*
X37414Y15328*
X37228Y15230*
X37225Y15229*
X37187Y15194*
X36172Y15194*
X36172Y15336*
X36172Y15337*
X36170Y15364*
X36169Y15365*
X36163Y15392*
X36162Y15394*
X36152Y15419*
X36151Y15421*
X36137Y15444*
X36136Y15446*
X36118Y15466*
X36116Y15468*
X36096Y15486*
X36094Y15487*
X36071Y15501*
X36069Y15502*
X36044Y15512*
X36042Y15513*
X36015Y15519*
X36014Y15520*
X35987Y15522*
X35986Y15522*
X35164Y15522*
X35163Y15522*
X35136Y15520*
X35135Y15519*
X35108Y15513*
X35106Y15512*
X35081Y15502*
X35079Y15501*
X35056Y15487*
X35054Y15486*
X35034Y15468*
X35032Y15466*
X35014Y15446*
X35013Y15444*
X34999Y15421*
X34998Y15419*
X34988Y15394*
X34987Y15392*
X34981Y15365*
X34980Y15364*
X34978Y15337*
X34978Y15336*
X34978Y14850*
X34934Y14767*
X34933Y14765*
X34894Y14637*
X34894Y14634*
X34881Y14501*
X34881Y14499*
X34894Y14366*
X34894Y14363*
X34933Y14235*
X34934Y14233*
X34978Y14150*
X34978Y13664*
X34978Y13663*
X34980Y13636*
X34981Y13635*
X34987Y13608*
X34988Y13606*
X34998Y13581*
X34999Y13579*
X35013Y13556*
X35014Y13554*
X35032Y13534*
X35034Y13532*
X35054Y13514*
X35056Y13513*
X35079Y13499*
X35081Y13498*
X35106Y13488*
X35108Y13487*
X35135Y13481*
X35136Y13480*
X35163Y13478*
X35164Y13478*
X35986Y13478*
X35987Y13478*
X40215Y13628D02*
X40215Y13628D01*
X40215Y13815*
X40325Y13815*
X40325Y13628*
X40339Y13614*
X40971Y13614*
X40972Y13614*
X40998Y13616*
X41000Y13616*
X41027Y13622*
X41029Y13623*
X41054Y13633*
X41056Y13634*
X41079Y13649*
X41080Y13650*
X41101Y13667*
X41103Y13669*
X41120Y13690*
X41121Y13691*
X41136Y13714*
X41137Y13716*
X41147Y13741*
X41148Y13743*
X41154Y13770*
X41154Y13772*
X41156Y13799*
X41156Y13800*
X41156Y14431*
X41142Y14445*
X40955Y14445*
X40955Y14555*
X41142Y14555*
X41156Y14569*
X41156Y15200*
X41156Y15201*
X41154Y15228*
X41154Y15230*
X41148Y15257*
X41147Y15259*
X41137Y15284*
X41136Y15286*
X41121Y15309*
X41120Y15310*
X41103Y15331*
X41101Y15333*
X41080Y15350*
X41079Y15351*
X41056Y15366*
X41054Y15367*
X41029Y15377*
X41027Y15378*
X41000Y15384*
X40998Y15384*
X40971Y15386*
X40970Y15386*
X40339Y15386*
X40325Y15372*
X40325Y15185*
X40215Y15185*
X40215Y15372*
X40201Y15386*
X39570Y15386*
X39569Y15386*
X39542Y15384*
X39540Y15384*
X39513Y15378*
X39511Y15377*
X39486Y15367*
X39484Y15366*
X39461Y15351*
X39460Y15350*
X39439Y15333*
X39437Y15331*
X39420Y15310*
X39419Y15309*
X39404Y15286*
X39403Y15284*
X39393Y15259*
X39392Y15257*
X39386Y15230*
X39386Y15228*
X39384Y15202*
X39384Y15201*
X39384Y14569*
X39398Y14555*
X39585Y14555*
X39585Y14445*
X39398Y14445*
X39384Y14431*
X39384Y13799*
X39384Y13798*
X39386Y13772*
X39386Y13770*
X39392Y13743*
X39393Y13741*
X39403Y13716*
X39404Y13714*
X39419Y13691*
X39420Y13690*
X39437Y13669*
X39439Y13667*
X39460Y13650*
X39461Y13649*
X39484Y13634*
X39486Y13633*
X39511Y13623*
X39513Y13622*
X39540Y13616*
X39542Y13616*
X39568Y13614*
X39569Y13614*
X40201Y13614*
X40215Y13628*
X26378Y12408D02*
X26378Y12408D01*
X26658Y12477*
X26661Y12478*
X26917Y12612*
X26919Y12614*
X27136Y12806*
X27138Y12808*
X27302Y13046*
X27303Y13048*
X27406Y13319*
X27407Y13322*
X27441Y13608*
X27441Y13612*
X27407Y13898*
X27406Y13901*
X27303Y14172*
X27302Y14174*
X27138Y14412*
X27136Y14414*
X26919Y14606*
X26917Y14608*
X26661Y14742*
X26658Y14743*
X26378Y14812*
X26374Y14813*
X26086Y14813*
X26082Y14812*
X25802Y14743*
X25799Y14742*
X25543Y14608*
X25541Y14606*
X25324Y14414*
X25322Y14412*
X25158Y14174*
X25157Y14172*
X25054Y13901*
X25053Y13898*
X25019Y13612*
X25019Y13608*
X25053Y13322*
X25054Y13319*
X25157Y13048*
X25158Y13046*
X25322Y12808*
X25324Y12806*
X25541Y12614*
X25543Y12612*
X25799Y12478*
X25802Y12477*
X26082Y12408*
X26086Y12407*
X26374Y12407*
X26378Y12408*
X28918Y12408D02*
X28918Y12408D01*
X29198Y12477*
X29201Y12478*
X29457Y12612*
X29459Y12614*
X29676Y12806*
X29678Y12808*
X29842Y13046*
X29843Y13048*
X29946Y13319*
X29947Y13322*
X29981Y13608*
X29981Y13612*
X29947Y13898*
X29946Y13901*
X29843Y14172*
X29842Y14174*
X29678Y14412*
X29676Y14414*
X29459Y14606*
X29457Y14608*
X29201Y14742*
X29198Y14743*
X28918Y14812*
X28914Y14813*
X28626Y14813*
X28622Y14812*
X28342Y14743*
X28339Y14742*
X28083Y14608*
X28081Y14606*
X27864Y14414*
X27862Y14412*
X27698Y14174*
X27697Y14172*
X27594Y13901*
X27593Y13898*
X27559Y13612*
X27559Y13608*
X27593Y13322*
X27594Y13319*
X27697Y13048*
X27698Y13046*
X27862Y12808*
X27864Y12806*
X28081Y12614*
X28083Y12612*
X28339Y12478*
X28342Y12477*
X28622Y12408*
X28626Y12407*
X28914Y12407*
X28918Y12408*
X5652Y2137D02*
X5652Y2137D01*
X5655Y2138*
X6273Y2354*
X6275Y2355*
X6830Y2703*
X6832Y2705*
X7295Y3168*
X7297Y3170*
X7645Y3725*
X7646Y3727*
X7862Y4345*
X7863Y4348*
X7928Y4928*
X7913Y4945*
X7735Y4945*
X7735Y5055*
X7913Y5055*
X7928Y5072*
X7863Y5652*
X7862Y5655*
X7646Y6273*
X7645Y6275*
X7297Y6830*
X7295Y6832*
X6832Y7295*
X6830Y7297*
X6275Y7645*
X6273Y7646*
X5655Y7862*
X5652Y7863*
X5072Y7928*
X5055Y7913*
X5055Y7735*
X4945Y7735*
X4945Y7913*
X4928Y7928*
X4348Y7863*
X4345Y7862*
X3727Y7646*
X3725Y7645*
X3170Y7297*
X3168Y7295*
X2705Y6832*
X2703Y6830*
X2355Y6275*
X2354Y6273*
X2138Y5655*
X2137Y5652*
X2072Y5072*
X2087Y5055*
X2265Y5055*
X2265Y4945*
X2087Y4945*
X2072Y4928*
X2137Y4348*
X2138Y4345*
X2354Y3727*
X2355Y3725*
X2703Y3170*
X2705Y3168*
X3168Y2705*
X3170Y2703*
X3725Y2355*
X3727Y2354*
X4345Y2138*
X4348Y2137*
X4928Y2072*
X4945Y2087*
X4945Y2265*
X5055Y2265*
X5055Y2087*
X5072Y2072*
X5652Y2137*
X40652Y2137D02*
X40652Y2137D01*
X40655Y2138*
X41273Y2354*
X41275Y2355*
X41830Y2703*
X41832Y2705*
X42295Y3168*
X42297Y3170*
X42645Y3725*
X42646Y3727*
X42862Y4345*
X42863Y4348*
X42928Y4928*
X42913Y4945*
X42735Y4945*
X42735Y5055*
X42913Y5055*
X42928Y5072*
X42863Y5652*
X42862Y5655*
X42646Y6273*
X42645Y6275*
X42297Y6830*
X42295Y6832*
X41832Y7295*
X41830Y7297*
X41275Y7645*
X41273Y7646*
X40655Y7862*
X40652Y7863*
X40072Y7928*
X40055Y7913*
X40055Y7735*
X39945Y7735*
X39945Y7913*
X39928Y7928*
X39348Y7863*
X39345Y7862*
X38727Y7646*
X38725Y7645*
X38170Y7297*
X38168Y7295*
X37705Y6832*
X37703Y6830*
X37355Y6275*
X37354Y6273*
X37138Y5655*
X37137Y5652*
X37072Y5072*
X37087Y5055*
X37265Y5055*
X37265Y4945*
X37087Y4945*
X37072Y4928*
X37137Y4348*
X37138Y4345*
X37354Y3727*
X37355Y3725*
X37703Y3170*
X37705Y3168*
X38168Y2705*
X38170Y2703*
X38725Y2355*
X38727Y2354*
X39345Y2138*
X39348Y2137*
X39928Y2072*
X39945Y2087*
X39945Y2265*
X40055Y2265*
X40055Y2087*
X40072Y2072*
X40652Y2137*
X0525Y0550D02*
X44475Y0550D01*
X0525Y0599D02*
X44475Y0599D01*
X0525Y0649D02*
X44475Y0649D01*
X0525Y0698D02*
X44475Y0698D01*
X0525Y0748D02*
X44475Y0748D01*
X0525Y0797D02*
X44475Y0797D01*
X0525Y0847D02*
X44475Y0847D01*
X0525Y0896D02*
X44475Y0896D01*
X0525Y0946D02*
X44475Y0946D01*
X0525Y0995D02*
X44475Y0995D01*
X0525Y1045D02*
X44475Y1045D01*
X0525Y1094D02*
X44475Y1094D01*
X0525Y1144D02*
X44475Y1144D01*
X0525Y1193D02*
X44475Y1193D01*
X0525Y1243D02*
X44475Y1243D01*
X0525Y1292D02*
X44475Y1292D01*
X0525Y1342D02*
X44475Y1342D01*
X0525Y1392D02*
X44475Y1392D01*
X0525Y1441D02*
X44475Y1441D01*
X0525Y1491D02*
X44475Y1491D01*
X0525Y1540D02*
X44475Y1540D01*
X0525Y1590D02*
X44475Y1590D01*
X0525Y1639D02*
X44475Y1639D01*
X0525Y1689D02*
X44475Y1689D01*
X0525Y1738D02*
X44475Y1738D01*
X0525Y1788D02*
X44475Y1788D01*
X0525Y1837D02*
X44475Y1837D01*
X0525Y1887D02*
X44475Y1887D01*
X0525Y1936D02*
X44475Y1936D01*
X0525Y1986D02*
X44475Y1986D01*
X0525Y2035D02*
X44475Y2035D01*
X0525Y2085D02*
X4809Y2085D01*
X4944Y2085D02*
X5056Y2085D01*
X5191Y2085D02*
X39809Y2085D01*
X39944Y2085D02*
X40056Y2085D01*
X40191Y2085D02*
X44475Y2085D01*
X0525Y2134D02*
X4369Y2134D01*
X4945Y2134D02*
X5055Y2134D01*
X5631Y2134D02*
X39369Y2134D01*
X39945Y2134D02*
X40055Y2134D01*
X40631Y2134D02*
X44475Y2134D01*
X0525Y2184D02*
X4212Y2184D01*
X4945Y2184D02*
X5055Y2184D01*
X5788Y2184D02*
X39212Y2184D01*
X39945Y2184D02*
X40055Y2184D01*
X40788Y2184D02*
X44475Y2184D01*
X0525Y2234D02*
X4071Y2234D01*
X4945Y2234D02*
X5055Y2234D01*
X5929Y2234D02*
X39071Y2234D01*
X39945Y2234D02*
X40055Y2234D01*
X40929Y2234D02*
X44475Y2234D01*
X0525Y2283D02*
X3929Y2283D01*
X6071Y2283D02*
X38929Y2283D01*
X41071Y2283D02*
X44475Y2283D01*
X0525Y2333D02*
X3788Y2333D01*
X6212Y2333D02*
X38788Y2333D01*
X41212Y2333D02*
X44475Y2333D01*
X0525Y2382D02*
X3681Y2382D01*
X6319Y2382D02*
X38681Y2382D01*
X41319Y2382D02*
X44475Y2382D01*
X0525Y2432D02*
X3603Y2432D01*
X6397Y2432D02*
X38603Y2432D01*
X41397Y2432D02*
X44475Y2432D01*
X0525Y2481D02*
X3524Y2481D01*
X6476Y2481D02*
X38524Y2481D01*
X41476Y2481D02*
X44475Y2481D01*
X0525Y2531D02*
X3445Y2531D01*
X6555Y2531D02*
X38445Y2531D01*
X41555Y2531D02*
X44475Y2531D01*
X0525Y2580D02*
X3366Y2580D01*
X6634Y2580D02*
X38366Y2580D01*
X41634Y2580D02*
X44475Y2580D01*
X0525Y2630D02*
X3287Y2630D01*
X6713Y2630D02*
X38287Y2630D01*
X41713Y2630D02*
X44475Y2630D01*
X0525Y2679D02*
X3209Y2679D01*
X6791Y2679D02*
X38209Y2679D01*
X41791Y2679D02*
X44475Y2679D01*
X0525Y2729D02*
X3144Y2729D01*
X6856Y2729D02*
X38144Y2729D01*
X41856Y2729D02*
X44475Y2729D01*
X0525Y2778D02*
X3095Y2778D01*
X6905Y2778D02*
X38095Y2778D01*
X41905Y2778D02*
X44475Y2778D01*
X0525Y2828D02*
X3045Y2828D01*
X6955Y2828D02*
X38045Y2828D01*
X41955Y2828D02*
X44475Y2828D01*
X0525Y2877D02*
X2996Y2877D01*
X7004Y2877D02*
X37996Y2877D01*
X42004Y2877D02*
X44475Y2877D01*
X0525Y2927D02*
X2946Y2927D01*
X7054Y2927D02*
X37946Y2927D01*
X42054Y2927D02*
X44475Y2927D01*
X0525Y2977D02*
X2897Y2977D01*
X7103Y2977D02*
X37897Y2977D01*
X42103Y2977D02*
X44475Y2977D01*
X0525Y3026D02*
X2847Y3026D01*
X7153Y3026D02*
X37847Y3026D01*
X42153Y3026D02*
X44475Y3026D01*
X0525Y3076D02*
X2798Y3076D01*
X7202Y3076D02*
X37798Y3076D01*
X42202Y3076D02*
X44475Y3076D01*
X0525Y3125D02*
X2748Y3125D01*
X7252Y3125D02*
X37748Y3125D01*
X42252Y3125D02*
X44475Y3125D01*
X0525Y3175D02*
X2701Y3175D01*
X7299Y3175D02*
X37701Y3175D01*
X42299Y3175D02*
X44475Y3175D01*
X0525Y3224D02*
X2670Y3224D01*
X7330Y3224D02*
X37670Y3224D01*
X42330Y3224D02*
X44475Y3224D01*
X0525Y3274D02*
X2638Y3274D01*
X7362Y3274D02*
X37638Y3274D01*
X42362Y3274D02*
X44475Y3274D01*
X0525Y3323D02*
X2607Y3323D01*
X7393Y3323D02*
X37607Y3323D01*
X42393Y3323D02*
X44475Y3323D01*
X0525Y3373D02*
X2576Y3373D01*
X7424Y3373D02*
X37576Y3373D01*
X42424Y3373D02*
X44475Y3373D01*
X0525Y3422D02*
X2545Y3422D01*
X7455Y3422D02*
X37545Y3422D01*
X42455Y3422D02*
X44475Y3422D01*
X0525Y3472D02*
X2514Y3472D01*
X7486Y3472D02*
X37514Y3472D01*
X42486Y3472D02*
X44475Y3472D01*
X0525Y3521D02*
X2483Y3521D01*
X7517Y3521D02*
X37483Y3521D01*
X42517Y3521D02*
X44475Y3521D01*
X0525Y3571D02*
X2452Y3571D01*
X7548Y3571D02*
X37452Y3571D01*
X42548Y3571D02*
X44475Y3571D01*
X0525Y3620D02*
X2421Y3620D01*
X7579Y3620D02*
X37421Y3620D01*
X42579Y3620D02*
X44475Y3620D01*
X0525Y3670D02*
X2389Y3670D01*
X7611Y3670D02*
X37389Y3670D01*
X42611Y3670D02*
X44475Y3670D01*
X0525Y3719D02*
X2358Y3719D01*
X7642Y3719D02*
X37358Y3719D01*
X42642Y3719D02*
X44475Y3719D01*
X0525Y3769D02*
X2339Y3769D01*
X7661Y3769D02*
X37339Y3769D01*
X42661Y3769D02*
X44475Y3769D01*
X0525Y3819D02*
X2322Y3819D01*
X7678Y3819D02*
X37322Y3819D01*
X42678Y3819D02*
X44475Y3819D01*
X0525Y3868D02*
X2305Y3868D01*
X7695Y3868D02*
X37305Y3868D01*
X42695Y3868D02*
X44475Y3868D01*
X0525Y3918D02*
X2287Y3918D01*
X7713Y3918D02*
X37287Y3918D01*
X42713Y3918D02*
X44475Y3918D01*
X0525Y3967D02*
X2270Y3967D01*
X7730Y3967D02*
X37270Y3967D01*
X42730Y3967D02*
X44475Y3967D01*
X0525Y4017D02*
X2253Y4017D01*
X7747Y4017D02*
X37253Y4017D01*
X42747Y4017D02*
X44475Y4017D01*
X0525Y4066D02*
X2235Y4066D01*
X7765Y4066D02*
X37235Y4066D01*
X42765Y4066D02*
X44475Y4066D01*
X0525Y4116D02*
X2218Y4116D01*
X7782Y4116D02*
X37218Y4116D01*
X42782Y4116D02*
X44475Y4116D01*
X0525Y4165D02*
X2201Y4165D01*
X7799Y4165D02*
X37201Y4165D01*
X42799Y4165D02*
X44475Y4165D01*
X0525Y4215D02*
X2183Y4215D01*
X7817Y4215D02*
X37183Y4215D01*
X42817Y4215D02*
X44475Y4215D01*
X0525Y4264D02*
X2166Y4264D01*
X7834Y4264D02*
X37166Y4264D01*
X42834Y4264D02*
X44475Y4264D01*
X0525Y4314D02*
X2149Y4314D01*
X7851Y4314D02*
X37149Y4314D01*
X42851Y4314D02*
X44475Y4314D01*
X0525Y4363D02*
X2135Y4363D01*
X7865Y4363D02*
X37135Y4363D01*
X42865Y4363D02*
X44475Y4363D01*
X0525Y4413D02*
X2130Y4413D01*
X7870Y4413D02*
X37130Y4413D01*
X42870Y4413D02*
X44475Y4413D01*
X0525Y4462D02*
X2124Y4462D01*
X7876Y4462D02*
X37124Y4462D01*
X42876Y4462D02*
X44475Y4462D01*
X0525Y4512D02*
X2118Y4512D01*
X7882Y4512D02*
X37118Y4512D01*
X42882Y4512D02*
X44475Y4512D01*
X0525Y4561D02*
X2113Y4561D01*
X7887Y4561D02*
X37113Y4561D01*
X42887Y4561D02*
X44475Y4561D01*
X0525Y4611D02*
X2107Y4611D01*
X7893Y4611D02*
X37107Y4611D01*
X42893Y4611D02*
X44475Y4611D01*
X0525Y4661D02*
X2102Y4661D01*
X7898Y4661D02*
X37102Y4661D01*
X42898Y4661D02*
X44475Y4661D01*
X0525Y4710D02*
X2096Y4710D01*
X7904Y4710D02*
X37096Y4710D01*
X42904Y4710D02*
X44475Y4710D01*
X0525Y4760D02*
X2091Y4760D01*
X7909Y4760D02*
X37091Y4760D01*
X42909Y4760D02*
X44475Y4760D01*
X0525Y4809D02*
X2085Y4809D01*
X7915Y4809D02*
X37085Y4809D01*
X42915Y4809D02*
X44475Y4809D01*
X0525Y4859D02*
X2079Y4859D01*
X7921Y4859D02*
X37079Y4859D01*
X42921Y4859D02*
X44475Y4859D01*
X0525Y4908D02*
X2074Y4908D01*
X7926Y4908D02*
X37074Y4908D01*
X42926Y4908D02*
X44475Y4908D01*
X0525Y4958D02*
X2265Y4958D01*
X7735Y4958D02*
X37265Y4958D01*
X42735Y4958D02*
X44475Y4958D01*
X0525Y5007D02*
X2265Y5007D01*
X7735Y5007D02*
X37265Y5007D01*
X42735Y5007D02*
X44475Y5007D01*
X0525Y5057D02*
X2085Y5057D01*
X7915Y5057D02*
X37085Y5057D01*
X42915Y5057D02*
X44475Y5057D01*
X0525Y5106D02*
X2075Y5106D01*
X7925Y5106D02*
X37075Y5106D01*
X42925Y5106D02*
X44475Y5106D01*
X0525Y5156D02*
X2081Y5156D01*
X7919Y5156D02*
X37081Y5156D01*
X42919Y5156D02*
X44475Y5156D01*
X0525Y5205D02*
X2087Y5205D01*
X7913Y5205D02*
X37087Y5205D01*
X42913Y5205D02*
X44475Y5205D01*
X0525Y5255D02*
X2092Y5255D01*
X7908Y5255D02*
X37092Y5255D01*
X42908Y5255D02*
X44475Y5255D01*
X0525Y5304D02*
X2098Y5304D01*
X7902Y5304D02*
X37098Y5304D01*
X42902Y5304D02*
X44475Y5304D01*
X0525Y5354D02*
X2103Y5354D01*
X7897Y5354D02*
X37103Y5354D01*
X42897Y5354D02*
X44475Y5354D01*
X0525Y5403D02*
X2109Y5403D01*
X7891Y5403D02*
X37109Y5403D01*
X42891Y5403D02*
X44475Y5403D01*
X0525Y5453D02*
X2114Y5453D01*
X7886Y5453D02*
X37114Y5453D01*
X42886Y5453D02*
X44475Y5453D01*
X0525Y5503D02*
X2120Y5503D01*
X7880Y5503D02*
X37120Y5503D01*
X42880Y5503D02*
X44475Y5503D01*
X0525Y5552D02*
X2126Y5552D01*
X7874Y5552D02*
X37126Y5552D01*
X42874Y5552D02*
X44475Y5552D01*
X0525Y5602D02*
X2131Y5602D01*
X7869Y5602D02*
X37131Y5602D01*
X42869Y5602D02*
X44475Y5602D01*
X0525Y5651D02*
X2137Y5651D01*
X7863Y5651D02*
X37137Y5651D01*
X42863Y5651D02*
X44475Y5651D01*
X0525Y5701D02*
X2154Y5701D01*
X7846Y5701D02*
X37154Y5701D01*
X42846Y5701D02*
X44475Y5701D01*
X0525Y5750D02*
X2171Y5750D01*
X7829Y5750D02*
X37171Y5750D01*
X42829Y5750D02*
X44475Y5750D01*
X0525Y5800D02*
X2188Y5800D01*
X7812Y5800D02*
X37188Y5800D01*
X42812Y5800D02*
X44475Y5800D01*
X0525Y5849D02*
X2206Y5849D01*
X7794Y5849D02*
X37206Y5849D01*
X42794Y5849D02*
X44475Y5849D01*
X0525Y5899D02*
X2223Y5899D01*
X7777Y5899D02*
X37223Y5899D01*
X42777Y5899D02*
X44475Y5899D01*
X0525Y5948D02*
X2240Y5948D01*
X7760Y5948D02*
X37240Y5948D01*
X42760Y5948D02*
X44475Y5948D01*
X0525Y5998D02*
X2258Y5998D01*
X7742Y5998D02*
X37258Y5998D01*
X42742Y5998D02*
X44475Y5998D01*
X0525Y6047D02*
X2275Y6047D01*
X7725Y6047D02*
X37275Y6047D01*
X42725Y6047D02*
X44475Y6047D01*
X0525Y6097D02*
X2292Y6097D01*
X7708Y6097D02*
X37292Y6097D01*
X42708Y6097D02*
X44475Y6097D01*
X0525Y6146D02*
X2310Y6146D01*
X7690Y6146D02*
X37310Y6146D01*
X42690Y6146D02*
X44475Y6146D01*
X0525Y6196D02*
X2327Y6196D01*
X7673Y6196D02*
X37327Y6196D01*
X42673Y6196D02*
X44475Y6196D01*
X0525Y6245D02*
X2344Y6245D01*
X7656Y6245D02*
X37344Y6245D01*
X42656Y6245D02*
X44475Y6245D01*
X0525Y6295D02*
X2367Y6295D01*
X7633Y6295D02*
X37367Y6295D01*
X42633Y6295D02*
X44475Y6295D01*
X0525Y6345D02*
X2398Y6345D01*
X7602Y6345D02*
X37398Y6345D01*
X42602Y6345D02*
X44475Y6345D01*
X0525Y6394D02*
X2430Y6394D01*
X7570Y6394D02*
X37430Y6394D01*
X42570Y6394D02*
X44475Y6394D01*
X0525Y6444D02*
X2461Y6444D01*
X7539Y6444D02*
X37461Y6444D01*
X42539Y6444D02*
X44475Y6444D01*
X0525Y6493D02*
X2492Y6493D01*
X7508Y6493D02*
X37492Y6493D01*
X42508Y6493D02*
X44475Y6493D01*
X0525Y6543D02*
X2523Y6543D01*
X7477Y6543D02*
X37523Y6543D01*
X42477Y6543D02*
X44475Y6543D01*
X0525Y6592D02*
X2554Y6592D01*
X7446Y6592D02*
X37554Y6592D01*
X42446Y6592D02*
X44475Y6592D01*
X0525Y6642D02*
X2585Y6642D01*
X7415Y6642D02*
X37585Y6642D01*
X42415Y6642D02*
X44475Y6642D01*
X0525Y6691D02*
X2616Y6691D01*
X7384Y6691D02*
X37616Y6691D01*
X42384Y6691D02*
X44475Y6691D01*
X0525Y6741D02*
X2647Y6741D01*
X7353Y6741D02*
X37647Y6741D01*
X42353Y6741D02*
X44475Y6741D01*
X0525Y6790D02*
X2679Y6790D01*
X7321Y6790D02*
X37679Y6790D01*
X42321Y6790D02*
X44475Y6790D01*
X0525Y6840D02*
X2713Y6840D01*
X7287Y6840D02*
X37713Y6840D01*
X42287Y6840D02*
X44475Y6840D01*
X0525Y6889D02*
X2763Y6889D01*
X7237Y6889D02*
X37763Y6889D01*
X42237Y6889D02*
X44475Y6889D01*
X0525Y6939D02*
X2812Y6939D01*
X7188Y6939D02*
X37812Y6939D01*
X42188Y6939D02*
X44475Y6939D01*
X0525Y6988D02*
X2862Y6988D01*
X7138Y6988D02*
X37862Y6988D01*
X42138Y6988D02*
X44475Y6988D01*
X0525Y7038D02*
X2911Y7038D01*
X7089Y7038D02*
X37911Y7038D01*
X42089Y7038D02*
X44475Y7038D01*
X0525Y7087D02*
X2961Y7087D01*
X7039Y7087D02*
X37961Y7087D01*
X42039Y7087D02*
X44475Y7087D01*
X0525Y7137D02*
X3010Y7137D01*
X6990Y7137D02*
X38010Y7137D01*
X41990Y7137D02*
X44475Y7137D01*
X0525Y7187D02*
X3060Y7187D01*
X6940Y7187D02*
X38060Y7187D01*
X41940Y7187D02*
X44475Y7187D01*
X0525Y7236D02*
X3109Y7236D01*
X6891Y7236D02*
X38109Y7236D01*
X41891Y7236D02*
X44475Y7236D01*
X0525Y7286D02*
X3159Y7286D01*
X6841Y7286D02*
X38159Y7286D01*
X41841Y7286D02*
X44475Y7286D01*
X0525Y7335D02*
X3232Y7335D01*
X6768Y7335D02*
X38232Y7335D01*
X41768Y7335D02*
X44475Y7335D01*
X0525Y7385D02*
X3310Y7385D01*
X6690Y7385D02*
X38310Y7385D01*
X41690Y7385D02*
X44475Y7385D01*
X0525Y7434D02*
X3389Y7434D01*
X6611Y7434D02*
X38389Y7434D01*
X41611Y7434D02*
X44475Y7434D01*
X0525Y7484D02*
X3468Y7484D01*
X6532Y7484D02*
X38468Y7484D01*
X41532Y7484D02*
X44475Y7484D01*
X0525Y7533D02*
X3547Y7533D01*
X6453Y7533D02*
X38547Y7533D01*
X41453Y7533D02*
X44475Y7533D01*
X0525Y7583D02*
X3626Y7583D01*
X6374Y7583D02*
X38626Y7583D01*
X41374Y7583D02*
X44475Y7583D01*
X0525Y7632D02*
X3705Y7632D01*
X6295Y7632D02*
X38705Y7632D01*
X41295Y7632D02*
X44475Y7632D01*
X0525Y7682D02*
X3829Y7682D01*
X6171Y7682D02*
X38829Y7682D01*
X41171Y7682D02*
X44475Y7682D01*
X0525Y7731D02*
X3971Y7731D01*
X6029Y7731D02*
X38971Y7731D01*
X41029Y7731D02*
X44475Y7731D01*
X0525Y7781D02*
X4112Y7781D01*
X4945Y7781D02*
X5055Y7781D01*
X5888Y7781D02*
X39112Y7781D01*
X39945Y7781D02*
X40055Y7781D01*
X40888Y7781D02*
X44475Y7781D01*
X0525Y7830D02*
X4254Y7830D01*
X4945Y7830D02*
X5055Y7830D01*
X5746Y7830D02*
X39254Y7830D01*
X39945Y7830D02*
X40055Y7830D01*
X40746Y7830D02*
X44475Y7830D01*
X0525Y7880D02*
X4498Y7880D01*
X4945Y7880D02*
X5055Y7880D01*
X5502Y7880D02*
X39498Y7880D01*
X39945Y7880D02*
X40055Y7880D01*
X40502Y7880D02*
X44475Y7880D01*
X0525Y7929D02*
X44475Y7929D01*
X0525Y7979D02*
X44475Y7979D01*
X0525Y8029D02*
X44475Y8029D01*
X0525Y8078D02*
X44475Y8078D01*
X0525Y8128D02*
X44475Y8128D01*
X0525Y8177D02*
X44475Y8177D01*
X0525Y8227D02*
X44475Y8227D01*
X0525Y8276D02*
X44475Y8276D01*
X0525Y8326D02*
X44475Y8326D01*
X0525Y8375D02*
X44475Y8375D01*
X0525Y8425D02*
X44475Y8425D01*
X0525Y8474D02*
X44475Y8474D01*
X0525Y8524D02*
X44475Y8524D01*
X0525Y8573D02*
X44475Y8573D01*
X0525Y8623D02*
X44475Y8623D01*
X0525Y8672D02*
X44475Y8672D01*
X0525Y8722D02*
X44475Y8722D01*
X0525Y8772D02*
X44475Y8772D01*
X0525Y8821D02*
X44475Y8821D01*
X0525Y8871D02*
X44475Y8871D01*
X0525Y8920D02*
X44475Y8920D01*
X0525Y8970D02*
X44475Y8970D01*
X0525Y9019D02*
X44475Y9019D01*
X0525Y9069D02*
X44475Y9069D01*
X0525Y9118D02*
X44475Y9118D01*
X0525Y9168D02*
X44475Y9168D01*
X0525Y9217D02*
X44475Y9217D01*
X0525Y9267D02*
X44475Y9267D01*
X0525Y9316D02*
X44475Y9316D01*
X0525Y9366D02*
X44475Y9366D01*
X0525Y9415D02*
X44475Y9415D01*
X0525Y9465D02*
X44475Y9465D01*
X0525Y9514D02*
X44475Y9514D01*
X0525Y9564D02*
X44475Y9564D01*
X0525Y9614D02*
X44475Y9614D01*
X0525Y9663D02*
X44475Y9663D01*
X0525Y9713D02*
X44475Y9713D01*
X0525Y9762D02*
X44475Y9762D01*
X0525Y9812D02*
X44475Y9812D01*
X0525Y9861D02*
X44475Y9861D01*
X0525Y9911D02*
X44475Y9911D01*
X0525Y9960D02*
X44475Y9960D01*
X0525Y10010D02*
X44475Y10010D01*
X0525Y10059D02*
X44475Y10059D01*
X0525Y10109D02*
X44475Y10109D01*
X0525Y10158D02*
X44475Y10158D01*
X0525Y10208D02*
X44475Y10208D01*
X0525Y10257D02*
X44475Y10257D01*
X0525Y10307D02*
X44475Y10307D01*
X0525Y10356D02*
X44475Y10356D01*
X0525Y10406D02*
X44475Y10406D01*
X0525Y10456D02*
X44475Y10456D01*
X0525Y10505D02*
X44475Y10505D01*
X0525Y10555D02*
X44475Y10555D01*
X0525Y10604D02*
X44475Y10604D01*
X0525Y10654D02*
X44475Y10654D01*
X0525Y10703D02*
X44475Y10703D01*
X0525Y10753D02*
X44475Y10753D01*
X0525Y10802D02*
X44475Y10802D01*
X0525Y10852D02*
X44475Y10852D01*
X0525Y10901D02*
X44475Y10901D01*
X0525Y10951D02*
X44475Y10951D01*
X0525Y11000D02*
X44475Y11000D01*
X0525Y11050D02*
X44475Y11050D01*
X0525Y11099D02*
X44475Y11099D01*
X0525Y11149D02*
X44475Y11149D01*
X0525Y11198D02*
X44475Y11198D01*
X0525Y11248D02*
X44475Y11248D01*
X0525Y11298D02*
X44475Y11298D01*
X0525Y11347D02*
X44475Y11347D01*
X0525Y11397D02*
X44475Y11397D01*
X0525Y11446D02*
X44475Y11446D01*
X0525Y11496D02*
X44475Y11496D01*
X0525Y11545D02*
X44475Y11545D01*
X0525Y11595D02*
X44475Y11595D01*
X0525Y11644D02*
X44475Y11644D01*
X0525Y11694D02*
X44475Y11694D01*
X0525Y11743D02*
X44475Y11743D01*
X0525Y11793D02*
X44475Y11793D01*
X0525Y11842D02*
X44475Y11842D01*
X0525Y11892D02*
X44475Y11892D01*
X0525Y11941D02*
X44475Y11941D01*
X0525Y11991D02*
X44475Y11991D01*
X0525Y12040D02*
X44475Y12040D01*
X0525Y12090D02*
X44475Y12090D01*
X0525Y12140D02*
X44475Y12140D01*
X0525Y12189D02*
X44475Y12189D01*
X0525Y12239D02*
X44475Y12239D01*
X0525Y12288D02*
X44475Y12288D01*
X0525Y12338D02*
X44475Y12338D01*
X0525Y12387D02*
X44475Y12387D01*
X0525Y12437D02*
X25964Y12437D01*
X26496Y12437D02*
X28504Y12437D01*
X29036Y12437D02*
X44475Y12437D01*
X0525Y12486D02*
X25783Y12486D01*
X26677Y12486D02*
X28323Y12486D01*
X29217Y12486D02*
X44475Y12486D01*
X0525Y12536D02*
X25689Y12536D01*
X26771Y12536D02*
X28229Y12536D01*
X29311Y12536D02*
X44475Y12536D01*
X0525Y12585D02*
X25594Y12585D01*
X26866Y12585D02*
X28134Y12585D01*
X29406Y12585D02*
X44475Y12585D01*
X0525Y12635D02*
X25517Y12635D01*
X26943Y12635D02*
X28057Y12635D01*
X29483Y12635D02*
X44475Y12635D01*
X0525Y12684D02*
X25461Y12684D01*
X26999Y12684D02*
X28001Y12684D01*
X29539Y12684D02*
X44475Y12684D01*
X0525Y12734D02*
X25405Y12734D01*
X27055Y12734D02*
X27945Y12734D01*
X29595Y12734D02*
X44475Y12734D01*
X0525Y12783D02*
X25349Y12783D01*
X27111Y12783D02*
X27889Y12783D01*
X29651Y12783D02*
X44475Y12783D01*
X0525Y12833D02*
X25305Y12833D01*
X27155Y12833D02*
X27845Y12833D01*
X29695Y12833D02*
X44475Y12833D01*
X0525Y12883D02*
X25271Y12883D01*
X27189Y12883D02*
X27811Y12883D01*
X29729Y12883D02*
X44475Y12883D01*
X0525Y12932D02*
X25237Y12932D01*
X27223Y12932D02*
X27777Y12932D01*
X29763Y12932D02*
X44475Y12932D01*
X0525Y12982D02*
X25202Y12982D01*
X27258Y12982D02*
X27742Y12982D01*
X29798Y12982D02*
X44475Y12982D01*
X0525Y13031D02*
X25168Y13031D01*
X27292Y13031D02*
X27708Y13031D01*
X29832Y13031D02*
X44475Y13031D01*
X0525Y13081D02*
X25144Y13081D01*
X27316Y13081D02*
X27684Y13081D01*
X29856Y13081D02*
X44475Y13081D01*
X0525Y13130D02*
X25126Y13130D01*
X27334Y13130D02*
X27666Y13130D01*
X29874Y13130D02*
X44475Y13130D01*
X0525Y13180D02*
X25107Y13180D01*
X27353Y13180D02*
X27647Y13180D01*
X29893Y13180D02*
X44475Y13180D01*
X0525Y13229D02*
X25088Y13229D01*
X27372Y13229D02*
X27628Y13229D01*
X29912Y13229D02*
X44475Y13229D01*
X0525Y13279D02*
X25069Y13279D01*
X27391Y13279D02*
X27609Y13279D01*
X29931Y13279D02*
X44475Y13279D01*
X0525Y13328D02*
X25053Y13328D01*
X27407Y13328D02*
X27593Y13328D01*
X29947Y13328D02*
X44475Y13328D01*
X0525Y13378D02*
X25047Y13378D01*
X27413Y13378D02*
X27587Y13378D01*
X29953Y13378D02*
X44475Y13378D01*
X0525Y13427D02*
X25041Y13427D01*
X27419Y13427D02*
X27581Y13427D01*
X29959Y13427D02*
X44475Y13427D01*
X0525Y13477D02*
X25035Y13477D01*
X27425Y13477D02*
X27575Y13477D01*
X29965Y13477D02*
X44475Y13477D01*
X0525Y13526D02*
X25029Y13526D01*
X27431Y13526D02*
X27569Y13526D01*
X29971Y13526D02*
X31890Y13526D01*
X32960Y13526D02*
X35040Y13526D01*
X36110Y13526D02*
X44475Y13526D01*
X0525Y13576D02*
X25023Y13576D01*
X27437Y13576D02*
X27563Y13576D01*
X29977Y13576D02*
X31851Y13576D01*
X32999Y13576D02*
X35001Y13576D01*
X36149Y13576D02*
X44475Y13576D01*
X0525Y13625D02*
X25020Y13625D01*
X27440Y13625D02*
X27560Y13625D01*
X29980Y13625D02*
X31833Y13625D01*
X33017Y13625D02*
X34983Y13625D01*
X36167Y13625D02*
X37601Y13625D01*
X37859Y13625D02*
X39506Y13625D01*
X40212Y13625D02*
X40328Y13625D01*
X41034Y13625D02*
X44475Y13625D01*
X0525Y13675D02*
X25026Y13675D01*
X27434Y13675D02*
X27566Y13675D01*
X29974Y13675D02*
X31828Y13675D01*
X33022Y13675D02*
X34978Y13675D01*
X36172Y13675D02*
X37408Y13675D01*
X38052Y13675D02*
X39432Y13675D01*
X40215Y13675D02*
X40325Y13675D01*
X41108Y13675D02*
X44475Y13675D01*
X0525Y13725D02*
X25032Y13725D01*
X27428Y13725D02*
X27572Y13725D01*
X29968Y13725D02*
X31828Y13725D01*
X33022Y13725D02*
X34978Y13725D01*
X36172Y13725D02*
X37314Y13725D01*
X38146Y13725D02*
X39400Y13725D01*
X40215Y13725D02*
X40325Y13725D01*
X41140Y13725D02*
X44475Y13725D01*
X0525Y13774D02*
X25038Y13774D01*
X27422Y13774D02*
X27578Y13774D01*
X29962Y13774D02*
X31828Y13774D01*
X33022Y13774D02*
X34978Y13774D01*
X36172Y13774D02*
X37222Y13774D01*
X38238Y13774D02*
X39386Y13774D01*
X40215Y13774D02*
X40325Y13774D01*
X41154Y13774D02*
X44475Y13774D01*
X0525Y13824D02*
X11311Y13824D01*
X11609Y13824D02*
X13851Y13824D01*
X14149Y13824D02*
X16391Y13824D01*
X16689Y13824D02*
X25044Y13824D01*
X27416Y13824D02*
X27584Y13824D01*
X29956Y13824D02*
X31828Y13824D01*
X33022Y13824D02*
X34978Y13824D01*
X38294Y13824D02*
X39384Y13824D01*
X41156Y13824D02*
X44475Y13824D01*
X0525Y13873D02*
X11110Y13873D01*
X11810Y13873D02*
X13650Y13873D01*
X14350Y13873D02*
X16190Y13873D01*
X16890Y13873D02*
X25050Y13873D01*
X27410Y13873D02*
X27590Y13873D01*
X29950Y13873D02*
X31828Y13873D01*
X33022Y13873D02*
X34978Y13873D01*
X38350Y13873D02*
X39384Y13873D01*
X41156Y13873D02*
X44475Y13873D01*
X0525Y13923D02*
X10978Y13923D01*
X11942Y13923D02*
X13518Y13923D01*
X14482Y13923D02*
X16058Y13923D01*
X17022Y13923D02*
X25062Y13923D01*
X27398Y13923D02*
X27602Y13923D01*
X29938Y13923D02*
X31828Y13923D01*
X33022Y13923D02*
X34978Y13923D01*
X38401Y13923D02*
X39384Y13923D01*
X41156Y13923D02*
X44475Y13923D01*
X0525Y13972D02*
X10884Y13972D01*
X12036Y13972D02*
X13424Y13972D01*
X14576Y13972D02*
X15964Y13972D01*
X17116Y13972D02*
X25081Y13972D01*
X27379Y13972D02*
X27621Y13972D01*
X29919Y13972D02*
X31828Y13972D01*
X33022Y13972D02*
X34978Y13972D01*
X38435Y13972D02*
X39384Y13972D01*
X41156Y13972D02*
X44475Y13972D01*
X0525Y14022D02*
X10789Y14022D01*
X12131Y14022D02*
X13329Y14022D01*
X14671Y14022D02*
X15869Y14022D01*
X17211Y14022D02*
X25100Y14022D01*
X27360Y14022D02*
X27640Y14022D01*
X29900Y14022D02*
X31828Y14022D01*
X33022Y14022D02*
X34978Y14022D01*
X38469Y14022D02*
X39384Y14022D01*
X41156Y14022D02*
X44475Y14022D01*
X0525Y14071D02*
X10732Y14071D01*
X12188Y14071D02*
X13272Y14071D01*
X14728Y14071D02*
X15812Y14071D01*
X17268Y14071D02*
X25119Y14071D01*
X27341Y14071D02*
X27659Y14071D01*
X29881Y14071D02*
X31828Y14071D01*
X33022Y14071D02*
X34978Y14071D01*
X38503Y14071D02*
X39384Y14071D01*
X41156Y14071D02*
X44475Y14071D01*
X0525Y14121D02*
X10676Y14121D01*
X12244Y14121D02*
X13216Y14121D01*
X14784Y14121D02*
X15756Y14121D01*
X17324Y14121D02*
X25137Y14121D01*
X27323Y14121D02*
X27677Y14121D01*
X29863Y14121D02*
X31828Y14121D01*
X33022Y14121D02*
X34978Y14121D01*
X38527Y14121D02*
X39384Y14121D01*
X41156Y14121D02*
X44475Y14121D01*
X0525Y14170D02*
X10620Y14170D01*
X12300Y14170D02*
X13160Y14170D01*
X14840Y14170D02*
X15700Y14170D01*
X17380Y14170D02*
X25156Y14170D01*
X27304Y14170D02*
X27696Y14170D01*
X29844Y14170D02*
X31818Y14170D01*
X33032Y14170D02*
X34968Y14170D01*
X38546Y14170D02*
X39384Y14170D01*
X41156Y14170D02*
X44475Y14170D01*
X0525Y14220D02*
X10567Y14220D01*
X12353Y14220D02*
X13107Y14220D01*
X14893Y14220D02*
X15647Y14220D01*
X17433Y14220D02*
X25189Y14220D01*
X27271Y14220D02*
X27729Y14220D01*
X29811Y14220D02*
X31791Y14220D01*
X33059Y14220D02*
X34941Y14220D01*
X38565Y14220D02*
X39384Y14220D01*
X41156Y14220D02*
X44475Y14220D01*
X0525Y14269D02*
X10533Y14269D01*
X12387Y14269D02*
X13073Y14269D01*
X14927Y14269D02*
X15613Y14269D01*
X17467Y14269D02*
X25224Y14269D01*
X27236Y14269D02*
X27764Y14269D01*
X29776Y14269D02*
X31773Y14269D01*
X33077Y14269D02*
X34923Y14269D01*
X38584Y14269D02*
X39384Y14269D01*
X41156Y14269D02*
X44475Y14269D01*
X0525Y14319D02*
X10499Y14319D01*
X17501Y14319D02*
X25258Y14319D01*
X27202Y14319D02*
X27798Y14319D01*
X29742Y14319D02*
X31758Y14319D01*
X33092Y14319D02*
X34908Y14319D01*
X38595Y14319D02*
X39384Y14319D01*
X41156Y14319D02*
X44475Y14319D01*
X0525Y14368D02*
X10465Y14368D01*
X17535Y14368D02*
X25292Y14368D01*
X27168Y14368D02*
X27832Y14368D01*
X29708Y14368D02*
X31743Y14368D01*
X33107Y14368D02*
X34893Y14368D01*
X38601Y14368D02*
X39384Y14368D01*
X41156Y14368D02*
X44475Y14368D01*
X0525Y14418D02*
X10430Y14418D01*
X17570Y14418D02*
X25328Y14418D01*
X27132Y14418D02*
X27868Y14418D01*
X29672Y14418D02*
X31739Y14418D01*
X33111Y14418D02*
X34889Y14418D01*
X38607Y14418D02*
X39384Y14418D01*
X41156Y14418D02*
X44475Y14418D01*
X0525Y14467D02*
X10402Y14467D01*
X17598Y14467D02*
X25384Y14467D01*
X27076Y14467D02*
X27924Y14467D01*
X29616Y14467D02*
X31734Y14467D01*
X33116Y14467D02*
X34884Y14467D01*
X38613Y14467D02*
X39585Y14467D01*
X40955Y14467D02*
X44475Y14467D01*
X0525Y14517D02*
X10383Y14517D01*
X17617Y14517D02*
X25440Y14517D01*
X27020Y14517D02*
X27980Y14517D01*
X29560Y14517D02*
X31731Y14517D01*
X33119Y14517D02*
X34882Y14517D01*
X38615Y14517D02*
X39585Y14517D01*
X40955Y14517D02*
X44475Y14517D01*
X0525Y14567D02*
X10365Y14567D01*
X17635Y14567D02*
X25496Y14567D01*
X26964Y14567D02*
X28036Y14567D01*
X29504Y14567D02*
X31731Y14567D01*
X33119Y14567D02*
X34887Y14567D01*
X38609Y14567D02*
X39387Y14567D01*
X41153Y14567D02*
X44475Y14567D01*
X0525Y14616D02*
X10346Y14616D01*
X17654Y14616D02*
X25559Y14616D01*
X26901Y14616D02*
X28099Y14616D01*
X29441Y14616D02*
X31731Y14616D01*
X33119Y14616D02*
X34892Y14616D01*
X38602Y14616D02*
X39384Y14616D01*
X41156Y14616D02*
X44475Y14616D01*
X0525Y14666D02*
X10327Y14666D01*
X17673Y14666D02*
X25653Y14666D01*
X26807Y14666D02*
X28193Y14666D01*
X29347Y14666D02*
X31731Y14666D01*
X33119Y14666D02*
X34903Y14666D01*
X38596Y14666D02*
X39384Y14666D01*
X41156Y14666D02*
X44475Y14666D01*
X0525Y14715D02*
X10308Y14715D01*
X17692Y14715D02*
X25748Y14715D01*
X26712Y14715D02*
X28288Y14715D01*
X29252Y14715D02*
X31731Y14715D01*
X33119Y14715D02*
X34918Y14715D01*
X38590Y14715D02*
X39384Y14715D01*
X41156Y14715D02*
X44475Y14715D01*
X0525Y14765D02*
X10302Y14765D01*
X17698Y14765D02*
X25889Y14765D01*
X26571Y14765D02*
X28429Y14765D01*
X29111Y14765D02*
X31731Y14765D01*
X33119Y14765D02*
X34933Y14765D01*
X38571Y14765D02*
X39384Y14765D01*
X41156Y14765D02*
X44475Y14765D01*
X0525Y14814D02*
X10296Y14814D01*
X17704Y14814D02*
X31731Y14814D01*
X33119Y14814D02*
X34959Y14814D01*
X38552Y14814D02*
X39384Y14814D01*
X41156Y14814D02*
X44475Y14814D01*
X0525Y14864D02*
X10290Y14864D01*
X17710Y14864D02*
X31731Y14864D01*
X33119Y14864D02*
X34978Y14864D01*
X38533Y14864D02*
X39384Y14864D01*
X41156Y14864D02*
X44475Y14864D01*
X0525Y14913D02*
X10284Y14913D01*
X17716Y14913D02*
X31731Y14913D01*
X33119Y14913D02*
X34978Y14913D01*
X38514Y14913D02*
X39384Y14913D01*
X41156Y14913D02*
X44475Y14913D01*
X0525Y14963D02*
X10278Y14963D01*
X17722Y14963D02*
X26021Y14963D01*
X26439Y14963D02*
X28561Y14963D01*
X28979Y14963D02*
X31731Y14963D01*
X33119Y14963D02*
X34978Y14963D01*
X38480Y14963D02*
X39384Y14963D01*
X41156Y14963D02*
X44475Y14963D01*
X0525Y15012D02*
X10275Y15012D01*
X17725Y15012D02*
X25820Y15012D01*
X26640Y15012D02*
X28360Y15012D01*
X29180Y15012D02*
X31731Y15012D01*
X33119Y15012D02*
X34978Y15012D01*
X38446Y15012D02*
X39384Y15012D01*
X41156Y15012D02*
X44475Y15012D01*
X0525Y15062D02*
X10281Y15062D01*
X17719Y15062D02*
X25715Y15062D01*
X26745Y15062D02*
X28255Y15062D01*
X29285Y15062D02*
X31731Y15062D01*
X33119Y15062D02*
X34978Y15062D01*
X38412Y15062D02*
X39384Y15062D01*
X41156Y15062D02*
X44475Y15062D01*
X0525Y15111D02*
X10287Y15111D01*
X17713Y15111D02*
X25621Y15111D01*
X26839Y15111D02*
X28161Y15111D01*
X29379Y15111D02*
X31731Y15111D01*
X33119Y15111D02*
X34978Y15111D01*
X38367Y15111D02*
X39384Y15111D01*
X41156Y15111D02*
X44475Y15111D01*
X0525Y15161D02*
X10293Y15161D01*
X17707Y15161D02*
X25533Y15161D01*
X26927Y15161D02*
X28073Y15161D01*
X29467Y15161D02*
X31731Y15161D01*
X33119Y15161D02*
X34978Y15161D01*
X38311Y15161D02*
X39384Y15161D01*
X41156Y15161D02*
X44475Y15161D01*
X0525Y15210D02*
X10299Y15210D01*
X17732Y15210D02*
X25477Y15210D01*
X26983Y15210D02*
X28017Y15210D01*
X29523Y15210D02*
X31731Y15210D01*
X33119Y15210D02*
X34978Y15210D01*
X36172Y15210D02*
X37205Y15210D01*
X38255Y15210D02*
X39384Y15210D01*
X40215Y15210D02*
X40325Y15210D01*
X41156Y15210D02*
X44475Y15210D01*
X0525Y15260D02*
X10305Y15260D01*
X17782Y15260D02*
X25421Y15260D01*
X27039Y15260D02*
X27961Y15260D01*
X29579Y15260D02*
X31731Y15260D01*
X33119Y15260D02*
X34978Y15260D01*
X36172Y15260D02*
X37284Y15260D01*
X38176Y15260D02*
X39394Y15260D01*
X40215Y15260D02*
X40325Y15260D01*
X41146Y15260D02*
X44475Y15260D01*
X0525Y15309D02*
X10318Y15309D01*
X17832Y15309D02*
X25365Y15309D01*
X27095Y15309D02*
X27905Y15309D01*
X29635Y15309D02*
X31731Y15309D01*
X33119Y15309D02*
X34978Y15309D01*
X36172Y15309D02*
X37378Y15309D01*
X38082Y15309D02*
X39419Y15309D01*
X40215Y15309D02*
X40325Y15309D01*
X41121Y15309D02*
X44475Y15309D01*
X0525Y15359D02*
X10336Y15359D01*
X17881Y15359D02*
X25315Y15359D01*
X27145Y15359D02*
X27855Y15359D01*
X29685Y15359D02*
X31731Y15359D01*
X33119Y15359D02*
X34980Y15359D01*
X36170Y15359D02*
X37537Y15359D01*
X37923Y15359D02*
X39474Y15359D01*
X40215Y15359D02*
X40325Y15359D01*
X41066Y15359D02*
X44475Y15359D01*
X0525Y15409D02*
X10355Y15409D01*
X17931Y15409D02*
X25280Y15409D01*
X27180Y15409D02*
X27820Y15409D01*
X29720Y15409D02*
X31731Y15409D01*
X33119Y15409D02*
X34994Y15409D01*
X36156Y15409D02*
X44475Y15409D01*
X0525Y15458D02*
X10374Y15458D01*
X17980Y15458D02*
X25246Y15458D01*
X27214Y15458D02*
X27786Y15458D01*
X29754Y15458D02*
X31731Y15458D01*
X33119Y15458D02*
X35025Y15458D01*
X36125Y15458D02*
X44475Y15458D01*
X0525Y15508D02*
X10393Y15508D01*
X18030Y15508D02*
X25212Y15508D01*
X27248Y15508D02*
X27752Y15508D01*
X29788Y15508D02*
X31731Y15508D01*
X33119Y15508D02*
X35095Y15508D01*
X36055Y15508D02*
X44475Y15508D01*
X0525Y15557D02*
X10413Y15557D01*
X18079Y15557D02*
X25178Y15557D01*
X27282Y15557D02*
X27718Y15557D01*
X29822Y15557D02*
X31731Y15557D01*
X33119Y15557D02*
X44475Y15557D01*
X0525Y15607D02*
X10447Y15607D01*
X18129Y15607D02*
X25150Y15607D01*
X27310Y15607D02*
X27690Y15607D01*
X29850Y15607D02*
X31731Y15607D01*
X33119Y15607D02*
X44475Y15607D01*
X0525Y15656D02*
X10482Y15656D01*
X18178Y15656D02*
X25131Y15656D01*
X27329Y15656D02*
X27671Y15656D01*
X29869Y15656D02*
X31731Y15656D01*
X33119Y15656D02*
X44475Y15656D01*
X0525Y15706D02*
X10516Y15706D01*
X12404Y15706D02*
X13056Y15706D01*
X14944Y15706D02*
X15596Y15706D01*
X18228Y15706D02*
X25112Y15706D01*
X27348Y15706D02*
X27652Y15706D01*
X29888Y15706D02*
X31731Y15706D01*
X33119Y15706D02*
X44475Y15706D01*
X0525Y15755D02*
X10550Y15755D01*
X12370Y15755D02*
X13090Y15755D01*
X14910Y15755D02*
X15630Y15755D01*
X18277Y15755D02*
X25093Y15755D01*
X27367Y15755D02*
X27633Y15755D01*
X29907Y15755D02*
X31731Y15755D01*
X33119Y15755D02*
X44475Y15755D01*
X0525Y15805D02*
X10592Y15805D01*
X12328Y15805D02*
X13132Y15805D01*
X14868Y15805D02*
X15672Y15805D01*
X18327Y15805D02*
X25075Y15805D01*
X27385Y15805D02*
X27615Y15805D01*
X29925Y15805D02*
X31731Y15805D01*
X33119Y15805D02*
X44475Y15805D01*
X0525Y15854D02*
X10648Y15854D01*
X12272Y15854D02*
X13188Y15854D01*
X14812Y15854D02*
X15728Y15854D01*
X18376Y15854D02*
X25056Y15854D01*
X27404Y15854D02*
X27596Y15854D01*
X29944Y15854D02*
X31731Y15854D01*
X33119Y15854D02*
X44475Y15854D01*
X0525Y15904D02*
X10704Y15904D01*
X12216Y15904D02*
X13244Y15904D01*
X14756Y15904D02*
X15784Y15904D01*
X18426Y15904D02*
X25048Y15904D01*
X27412Y15904D02*
X27588Y15904D01*
X29952Y15904D02*
X31731Y15904D01*
X33119Y15904D02*
X44475Y15904D01*
X0525Y15953D02*
X10760Y15953D01*
X12160Y15953D02*
X13300Y15953D01*
X14700Y15953D02*
X15840Y15953D01*
X18475Y15953D02*
X25042Y15953D01*
X27418Y15953D02*
X27582Y15953D01*
X29958Y15953D02*
X31731Y15953D01*
X33119Y15953D02*
X44475Y15953D01*
X0525Y16003D02*
X10836Y16003D01*
X12084Y16003D02*
X13376Y16003D01*
X14624Y16003D02*
X15916Y16003D01*
X18525Y16003D02*
X25036Y16003D01*
X27424Y16003D02*
X27576Y16003D01*
X29964Y16003D02*
X31731Y16003D01*
X33119Y16003D02*
X44475Y16003D01*
X0525Y16052D02*
X10931Y16052D01*
X11989Y16052D02*
X13471Y16052D01*
X14529Y16052D02*
X16011Y16052D01*
X18574Y16052D02*
X25030Y16052D01*
X27430Y16052D02*
X27570Y16052D01*
X29970Y16052D02*
X31731Y16052D01*
X33119Y16052D02*
X44475Y16052D01*
X0525Y16102D02*
X11025Y16102D01*
X11895Y16102D02*
X13565Y16102D01*
X14435Y16102D02*
X16105Y16102D01*
X18624Y16102D02*
X25024Y16102D01*
X27436Y16102D02*
X27564Y16102D01*
X29976Y16102D02*
X31731Y16102D01*
X33119Y16102D02*
X44475Y16102D01*
X0525Y16151D02*
X11210Y16151D01*
X11710Y16151D02*
X13750Y16151D01*
X14250Y16151D02*
X16290Y16151D01*
X18674Y16151D02*
X25019Y16151D01*
X27441Y16151D02*
X27559Y16151D01*
X29981Y16151D02*
X31731Y16151D01*
X33119Y16151D02*
X44475Y16151D01*
X0525Y16201D02*
X16759Y16201D01*
X18723Y16201D02*
X25025Y16201D01*
X27435Y16201D02*
X27565Y16201D01*
X29975Y16201D02*
X31731Y16201D01*
X33119Y16201D02*
X44475Y16201D01*
X0525Y16251D02*
X16809Y16251D01*
X18773Y16251D02*
X25031Y16251D01*
X27429Y16251D02*
X27571Y16251D01*
X29969Y16251D02*
X31731Y16251D01*
X33119Y16251D02*
X44475Y16251D01*
X0525Y16300D02*
X16858Y16300D01*
X18822Y16300D02*
X25037Y16300D01*
X27423Y16300D02*
X27577Y16300D01*
X29963Y16300D02*
X31731Y16300D01*
X33119Y16300D02*
X44475Y16300D01*
X0525Y16350D02*
X16908Y16350D01*
X18872Y16350D02*
X25043Y16350D01*
X27417Y16350D02*
X27583Y16350D01*
X29957Y16350D02*
X31731Y16350D01*
X33119Y16350D02*
X44475Y16350D01*
X0525Y16399D02*
X16957Y16399D01*
X18921Y16399D02*
X25049Y16399D01*
X27411Y16399D02*
X27589Y16399D01*
X29951Y16399D02*
X31731Y16399D01*
X33119Y16399D02*
X44475Y16399D01*
X0525Y16449D02*
X17007Y16449D01*
X18971Y16449D02*
X25057Y16449D01*
X27403Y16449D02*
X27597Y16449D01*
X29943Y16449D02*
X31731Y16449D01*
X33119Y16449D02*
X44475Y16449D01*
X0525Y16498D02*
X17056Y16498D01*
X19020Y16498D02*
X25076Y16498D01*
X27384Y16498D02*
X27616Y16498D01*
X29924Y16498D02*
X31731Y16498D01*
X33119Y16498D02*
X44475Y16498D01*
X0525Y16548D02*
X17106Y16548D01*
X19070Y16548D02*
X25094Y16548D01*
X27366Y16548D02*
X27634Y16548D01*
X29906Y16548D02*
X31731Y16548D01*
X33119Y16548D02*
X44475Y16548D01*
X0525Y16597D02*
X17155Y16597D01*
X19119Y16597D02*
X25113Y16597D01*
X27347Y16597D02*
X27653Y16597D01*
X29887Y16597D02*
X31731Y16597D01*
X33119Y16597D02*
X44475Y16597D01*
X0525Y16647D02*
X17205Y16647D01*
X19169Y16647D02*
X25132Y16647D01*
X27328Y16647D02*
X27672Y16647D01*
X29868Y16647D02*
X31731Y16647D01*
X33119Y16647D02*
X44475Y16647D01*
X0525Y16696D02*
X17254Y16696D01*
X19218Y16696D02*
X25151Y16696D01*
X27309Y16696D02*
X27691Y16696D01*
X29849Y16696D02*
X31731Y16696D01*
X33119Y16696D02*
X44475Y16696D01*
X0525Y16746D02*
X17304Y16746D01*
X19268Y16746D02*
X25180Y16746D01*
X27280Y16746D02*
X27720Y16746D01*
X29820Y16746D02*
X31731Y16746D01*
X33119Y16746D02*
X44475Y16746D01*
X0525Y16795D02*
X17353Y16795D01*
X19317Y16795D02*
X25214Y16795D01*
X27246Y16795D02*
X27754Y16795D01*
X29786Y16795D02*
X31731Y16795D01*
X33119Y16795D02*
X44475Y16795D01*
X0525Y16845D02*
X17403Y16845D01*
X19367Y16845D02*
X25248Y16845D01*
X27212Y16845D02*
X27788Y16845D01*
X29752Y16845D02*
X31731Y16845D01*
X33119Y16845D02*
X44475Y16845D01*
X0525Y16894D02*
X17452Y16894D01*
X19416Y16894D02*
X25282Y16894D01*
X27178Y16894D02*
X27822Y16894D01*
X29718Y16894D02*
X31731Y16894D01*
X33119Y16894D02*
X44475Y16894D01*
X0525Y16944D02*
X17502Y16944D01*
X19466Y16944D02*
X25317Y16944D01*
X27143Y16944D02*
X27857Y16944D01*
X29683Y16944D02*
X31731Y16944D01*
X33119Y16944D02*
X44475Y16944D01*
X0525Y16993D02*
X17551Y16993D01*
X19516Y16993D02*
X25368Y16993D01*
X27092Y16993D02*
X27908Y16993D01*
X29632Y16993D02*
X31731Y16993D01*
X33119Y16993D02*
X44475Y16993D01*
X0525Y17043D02*
X17601Y17043D01*
X19565Y17043D02*
X25424Y17043D01*
X27036Y17043D02*
X27964Y17043D01*
X29576Y17043D02*
X31731Y17043D01*
X33119Y17043D02*
X44475Y17043D01*
X0525Y17093D02*
X17651Y17093D01*
X19615Y17093D02*
X25480Y17093D01*
X26980Y17093D02*
X28020Y17093D01*
X29520Y17093D02*
X31731Y17093D01*
X33119Y17093D02*
X44475Y17093D01*
X0525Y17142D02*
X17700Y17142D01*
X19664Y17142D02*
X25536Y17142D01*
X26924Y17142D02*
X28076Y17142D01*
X29464Y17142D02*
X31731Y17142D01*
X33119Y17142D02*
X44475Y17142D01*
X0525Y17192D02*
X17750Y17192D01*
X19714Y17192D02*
X25627Y17192D01*
X26833Y17192D02*
X28167Y17192D01*
X29373Y17192D02*
X31731Y17192D01*
X33119Y17192D02*
X44475Y17192D01*
X0525Y17241D02*
X17799Y17241D01*
X19763Y17241D02*
X25721Y17241D01*
X26739Y17241D02*
X28261Y17241D01*
X29279Y17241D02*
X31728Y17241D01*
X33119Y17241D02*
X44475Y17241D01*
X0525Y17291D02*
X17849Y17291D01*
X19813Y17291D02*
X25832Y17291D01*
X26628Y17291D02*
X28372Y17291D01*
X29168Y17291D02*
X31678Y17291D01*
X33119Y17291D02*
X44475Y17291D01*
X0525Y17340D02*
X17898Y17340D01*
X19862Y17340D02*
X26033Y17340D01*
X26427Y17340D02*
X28573Y17340D01*
X28967Y17340D02*
X31629Y17340D01*
X33119Y17340D02*
X44475Y17340D01*
X0525Y17390D02*
X17948Y17390D01*
X19912Y17390D02*
X31579Y17390D01*
X33119Y17390D02*
X44475Y17390D01*
X0525Y17439D02*
X17997Y17439D01*
X19961Y17439D02*
X31530Y17439D01*
X33119Y17439D02*
X44475Y17439D01*
X0525Y17489D02*
X18047Y17489D01*
X20011Y17489D02*
X26078Y17489D01*
X26382Y17489D02*
X28618Y17489D01*
X28922Y17489D02*
X31480Y17489D01*
X33119Y17489D02*
X44475Y17489D01*
X0525Y17538D02*
X18096Y17538D01*
X20060Y17538D02*
X25877Y17538D01*
X26583Y17538D02*
X28417Y17538D01*
X29123Y17538D02*
X31431Y17538D01*
X33118Y17538D02*
X44475Y17538D01*
X0525Y17588D02*
X18146Y17588D01*
X20110Y17588D02*
X25742Y17588D01*
X26718Y17588D02*
X28282Y17588D01*
X29258Y17588D02*
X31381Y17588D01*
X33113Y17588D02*
X44475Y17588D01*
X0525Y17637D02*
X18195Y17637D01*
X20159Y17637D02*
X25647Y17637D01*
X26813Y17637D02*
X28187Y17637D01*
X29353Y17637D02*
X31332Y17637D01*
X33109Y17637D02*
X44475Y17637D01*
X0525Y17687D02*
X18245Y17687D01*
X20209Y17687D02*
X25553Y17687D01*
X26907Y17687D02*
X28093Y17687D01*
X29447Y17687D02*
X31282Y17687D01*
X33098Y17687D02*
X44475Y17687D01*
X0525Y17736D02*
X18294Y17736D01*
X20258Y17736D02*
X25493Y17736D01*
X26967Y17736D02*
X28033Y17736D01*
X29507Y17736D02*
X31233Y17736D01*
X33083Y17736D02*
X44475Y17736D01*
X0525Y17786D02*
X18344Y17786D01*
X20308Y17786D02*
X25437Y17786D01*
X27023Y17786D02*
X27977Y17786D01*
X29563Y17786D02*
X31183Y17786D01*
X33068Y17786D02*
X44475Y17786D01*
X0525Y17835D02*
X18393Y17835D01*
X20358Y17835D02*
X25381Y17835D01*
X27079Y17835D02*
X27921Y17835D01*
X29619Y17835D02*
X31133Y17835D01*
X33043Y17835D02*
X44475Y17835D01*
X0525Y17885D02*
X18443Y17885D01*
X20407Y17885D02*
X25325Y17885D01*
X27135Y17885D02*
X27865Y17885D01*
X29675Y17885D02*
X31084Y17885D01*
X33017Y17885D02*
X44475Y17885D01*
X0525Y17935D02*
X18493Y17935D01*
X20457Y17935D02*
X25290Y17935D01*
X27170Y17935D02*
X27830Y17935D01*
X29710Y17935D02*
X31034Y17935D01*
X32984Y17935D02*
X44475Y17935D01*
X0525Y17984D02*
X18542Y17984D01*
X20506Y17984D02*
X25256Y17984D01*
X27204Y17984D02*
X27796Y17984D01*
X29744Y17984D02*
X30985Y17984D01*
X32943Y17984D02*
X44475Y17984D01*
X0525Y18034D02*
X18592Y18034D01*
X32899Y18034D02*
X44475Y18034D01*
X0525Y18083D02*
X18641Y18083D01*
X32850Y18083D02*
X44475Y18083D01*
X0525Y18133D02*
X18691Y18133D01*
X32800Y18133D02*
X44475Y18133D01*
X0525Y18182D02*
X18740Y18182D01*
X32751Y18182D02*
X44475Y18182D01*
X0525Y18232D02*
X18790Y18232D01*
X32701Y18232D02*
X44475Y18232D01*
X0525Y18281D02*
X18839Y18281D01*
X32652Y18281D02*
X44475Y18281D01*
X0525Y18331D02*
X18889Y18331D01*
X32602Y18331D02*
X44475Y18331D01*
X0525Y18380D02*
X18938Y18380D01*
X32553Y18380D02*
X44475Y18380D01*
X0525Y18430D02*
X18988Y18430D01*
X32503Y18430D02*
X44475Y18430D01*
X0525Y18479D02*
X19037Y18479D01*
X32454Y18479D02*
X44475Y18479D01*
X0525Y18529D02*
X19087Y18529D01*
X32404Y18529D02*
X44475Y18529D01*
X0525Y18578D02*
X19136Y18578D01*
X32355Y18578D02*
X44475Y18578D01*
X0525Y18628D02*
X19186Y18628D01*
X32305Y18628D02*
X44475Y18628D01*
X0525Y18678D02*
X19235Y18678D01*
X32256Y18678D02*
X44475Y18678D01*
X0525Y18727D02*
X19285Y18727D01*
X32206Y18727D02*
X44475Y18727D01*
X0525Y18777D02*
X19335Y18777D01*
X32156Y18777D02*
X44475Y18777D01*
X0525Y18826D02*
X11301Y18826D01*
X11619Y18826D02*
X13841Y18826D01*
X14159Y18826D02*
X16381Y18826D01*
X16699Y18826D02*
X19384Y18826D01*
X32107Y18826D02*
X44475Y18826D01*
X0525Y18876D02*
X11100Y18876D01*
X11820Y18876D02*
X13640Y18876D01*
X14360Y18876D02*
X16180Y18876D01*
X16900Y18876D02*
X19434Y18876D01*
X32057Y18876D02*
X44475Y18876D01*
X0525Y18925D02*
X10973Y18925D01*
X11947Y18925D02*
X13513Y18925D01*
X14487Y18925D02*
X16053Y18925D01*
X17027Y18925D02*
X19483Y18925D01*
X32008Y18925D02*
X44475Y18925D01*
X0525Y18975D02*
X10879Y18975D01*
X12041Y18975D02*
X13419Y18975D01*
X14581Y18975D02*
X15959Y18975D01*
X17121Y18975D02*
X19533Y18975D01*
X31958Y18975D02*
X44475Y18975D01*
X0525Y19024D02*
X10785Y19024D01*
X12135Y19024D02*
X13325Y19024D01*
X14675Y19024D02*
X15865Y19024D01*
X17215Y19024D02*
X19582Y19024D01*
X31909Y19024D02*
X44475Y19024D01*
X0525Y19074D02*
X10729Y19074D01*
X12191Y19074D02*
X13269Y19074D01*
X14731Y19074D02*
X15809Y19074D01*
X17271Y19074D02*
X19632Y19074D01*
X31859Y19074D02*
X44475Y19074D01*
X0525Y19123D02*
X10673Y19123D01*
X12247Y19123D02*
X13213Y19123D01*
X14787Y19123D02*
X15753Y19123D01*
X17327Y19123D02*
X19681Y19123D01*
X31810Y19123D02*
X44475Y19123D01*
X0525Y19173D02*
X10617Y19173D01*
X12303Y19173D02*
X13157Y19173D01*
X14843Y19173D02*
X15697Y19173D01*
X17383Y19173D02*
X19731Y19173D01*
X31760Y19173D02*
X44475Y19173D01*
X0525Y19222D02*
X10565Y19222D01*
X12355Y19222D02*
X13105Y19222D01*
X14895Y19222D02*
X15645Y19222D01*
X17435Y19222D02*
X19789Y19222D01*
X31702Y19222D02*
X44475Y19222D01*
X0525Y19272D02*
X10531Y19272D01*
X12389Y19272D02*
X13071Y19272D01*
X14929Y19272D02*
X15611Y19272D01*
X17469Y19272D02*
X19852Y19272D01*
X31639Y19272D02*
X44475Y19272D01*
X0525Y19321D02*
X10497Y19321D01*
X17503Y19321D02*
X19945Y19321D01*
X31546Y19321D02*
X44475Y19321D01*
X0525Y19371D02*
X10463Y19371D01*
X17537Y19371D02*
X20094Y19371D01*
X31397Y19371D02*
X44475Y19371D01*
X0525Y19420D02*
X10429Y19420D01*
X17571Y19420D02*
X25273Y19420D01*
X27187Y19420D02*
X27813Y19420D01*
X29727Y19420D02*
X44475Y19420D01*
X0525Y19470D02*
X10401Y19470D01*
X17599Y19470D02*
X25307Y19470D01*
X27153Y19470D02*
X27847Y19470D01*
X29693Y19470D02*
X44475Y19470D01*
X0525Y19520D02*
X10382Y19520D01*
X17618Y19520D02*
X25353Y19520D01*
X27107Y19520D02*
X27893Y19520D01*
X29647Y19520D02*
X44475Y19520D01*
X0525Y19569D02*
X10364Y19569D01*
X17636Y19569D02*
X25408Y19569D01*
X27052Y19569D02*
X27948Y19569D01*
X29592Y19569D02*
X44475Y19569D01*
X0525Y19619D02*
X10345Y19619D01*
X17655Y19619D02*
X25464Y19619D01*
X26996Y19619D02*
X28004Y19619D01*
X29536Y19619D02*
X44475Y19619D01*
X0525Y19668D02*
X10326Y19668D01*
X17674Y19668D02*
X25520Y19668D01*
X26940Y19668D02*
X28060Y19668D01*
X29480Y19668D02*
X44475Y19668D01*
X0525Y19718D02*
X10308Y19718D01*
X17692Y19718D02*
X25600Y19718D01*
X26860Y19718D02*
X28140Y19718D01*
X29400Y19718D02*
X44475Y19718D01*
X0525Y19767D02*
X10302Y19767D01*
X17698Y19767D02*
X25694Y19767D01*
X26766Y19767D02*
X28234Y19767D01*
X29306Y19767D02*
X44475Y19767D01*
X0525Y19817D02*
X10296Y19817D01*
X17704Y19817D02*
X25789Y19817D01*
X26671Y19817D02*
X28329Y19817D01*
X29211Y19817D02*
X44475Y19817D01*
X0525Y19866D02*
X10290Y19866D01*
X17710Y19866D02*
X25976Y19866D01*
X26484Y19866D02*
X28516Y19866D01*
X29024Y19866D02*
X44475Y19866D01*
X0525Y19916D02*
X10284Y19916D01*
X17716Y19916D02*
X44475Y19916D01*
X0525Y19965D02*
X10278Y19965D01*
X17722Y19965D02*
X44475Y19965D01*
X0525Y20015D02*
X10275Y20015D01*
X17725Y20015D02*
X44475Y20015D01*
X0525Y20064D02*
X10281Y20064D01*
X17719Y20064D02*
X25933Y20064D01*
X26527Y20064D02*
X28473Y20064D01*
X29067Y20064D02*
X44475Y20064D01*
X0525Y20114D02*
X10287Y20114D01*
X17713Y20114D02*
X25768Y20114D01*
X26692Y20114D02*
X28308Y20114D01*
X29232Y20114D02*
X44475Y20114D01*
X0525Y20163D02*
X10293Y20163D01*
X17707Y20163D02*
X25674Y20163D01*
X26786Y20163D02*
X28214Y20163D01*
X29326Y20163D02*
X44475Y20163D01*
X0525Y20213D02*
X10299Y20213D01*
X17735Y20213D02*
X25580Y20213D01*
X26880Y20213D02*
X28120Y20213D01*
X29420Y20213D02*
X44475Y20213D01*
X0525Y20262D02*
X10305Y20262D01*
X17785Y20262D02*
X25508Y20262D01*
X26952Y20262D02*
X28048Y20262D01*
X29492Y20262D02*
X44475Y20262D01*
X0525Y20312D02*
X10319Y20312D01*
X17834Y20312D02*
X25452Y20312D01*
X27008Y20312D02*
X27992Y20312D01*
X29548Y20312D02*
X44475Y20312D01*
X0525Y20362D02*
X10337Y20362D01*
X17884Y20362D02*
X25397Y20362D01*
X27063Y20362D02*
X27937Y20362D01*
X29603Y20362D02*
X44475Y20362D01*
X0525Y20411D02*
X10356Y20411D01*
X17933Y20411D02*
X25341Y20411D01*
X27119Y20411D02*
X27881Y20411D01*
X29659Y20411D02*
X44475Y20411D01*
X0525Y20461D02*
X10375Y20461D01*
X17983Y20461D02*
X25300Y20461D01*
X27160Y20461D02*
X27840Y20461D01*
X29700Y20461D02*
X44475Y20461D01*
X0525Y20510D02*
X10394Y20510D01*
X18032Y20510D02*
X25265Y20510D01*
X27195Y20510D02*
X27805Y20510D01*
X29735Y20510D02*
X44475Y20510D01*
X0525Y20560D02*
X10415Y20560D01*
X31326Y20560D02*
X44475Y20560D01*
X0525Y20609D02*
X10449Y20609D01*
X31460Y20609D02*
X44475Y20609D01*
X0525Y20659D02*
X10483Y20659D01*
X31548Y20659D02*
X44475Y20659D01*
X0525Y20708D02*
X10518Y20708D01*
X12402Y20708D02*
X13058Y20708D01*
X14942Y20708D02*
X15598Y20708D01*
X31609Y20708D02*
X44475Y20708D01*
X0525Y20758D02*
X10552Y20758D01*
X12368Y20758D02*
X13092Y20758D01*
X14908Y20758D02*
X15632Y20758D01*
X31665Y20758D02*
X44475Y20758D01*
X0525Y20807D02*
X10595Y20807D01*
X12325Y20807D02*
X13135Y20807D01*
X14865Y20807D02*
X15675Y20807D01*
X31714Y20807D02*
X44475Y20807D01*
X0525Y20857D02*
X10651Y20857D01*
X12269Y20857D02*
X13191Y20857D01*
X14809Y20857D02*
X15731Y20857D01*
X31764Y20857D02*
X44475Y20857D01*
X0525Y20906D02*
X10707Y20906D01*
X12213Y20906D02*
X13247Y20906D01*
X14753Y20906D02*
X15787Y20906D01*
X31813Y20906D02*
X44475Y20906D01*
X0525Y20956D02*
X10763Y20956D01*
X12157Y20956D02*
X13303Y20956D01*
X14697Y20956D02*
X15843Y20956D01*
X31863Y20956D02*
X44475Y20956D01*
X0525Y21005D02*
X10841Y21005D01*
X12079Y21005D02*
X13381Y21005D01*
X14619Y21005D02*
X15921Y21005D01*
X31912Y21005D02*
X44475Y21005D01*
X0525Y21055D02*
X10935Y21055D01*
X11985Y21055D02*
X13475Y21055D01*
X14525Y21055D02*
X16015Y21055D01*
X31962Y21055D02*
X44475Y21055D01*
X0525Y21104D02*
X11030Y21104D01*
X11890Y21104D02*
X13570Y21104D01*
X14430Y21104D02*
X16110Y21104D01*
X32012Y21104D02*
X44475Y21104D01*
X0525Y21154D02*
X11220Y21154D01*
X11700Y21154D02*
X13760Y21154D01*
X14240Y21154D02*
X16300Y21154D01*
X32061Y21154D02*
X44475Y21154D01*
X0525Y21204D02*
X16762Y21204D01*
X32111Y21204D02*
X44475Y21204D01*
X0525Y21253D02*
X16811Y21253D01*
X32160Y21253D02*
X44475Y21253D01*
X0525Y21303D02*
X16861Y21303D01*
X32210Y21303D02*
X44475Y21303D01*
X0525Y21352D02*
X16910Y21352D01*
X32259Y21352D02*
X44475Y21352D01*
X0525Y21402D02*
X16960Y21402D01*
X32309Y21402D02*
X44475Y21402D01*
X0525Y21451D02*
X17009Y21451D01*
X32358Y21451D02*
X44475Y21451D01*
X0525Y21501D02*
X17059Y21501D01*
X32924Y21501D02*
X35076Y21501D01*
X36074Y21501D02*
X44475Y21501D01*
X0525Y21550D02*
X17108Y21550D01*
X32982Y21550D02*
X35018Y21550D01*
X36132Y21550D02*
X44475Y21550D01*
X0525Y21600D02*
X17158Y21600D01*
X33010Y21600D02*
X34990Y21600D01*
X36160Y21600D02*
X44475Y21600D01*
X0525Y21649D02*
X17207Y21649D01*
X33021Y21649D02*
X34979Y21649D01*
X36171Y21649D02*
X37504Y21649D01*
X37956Y21649D02*
X39460Y21649D01*
X40215Y21649D02*
X40325Y21649D01*
X41080Y21649D02*
X44475Y21649D01*
X0525Y21699D02*
X17257Y21699D01*
X33022Y21699D02*
X34978Y21699D01*
X36172Y21699D02*
X37363Y21699D01*
X38097Y21699D02*
X39414Y21699D01*
X40215Y21699D02*
X40325Y21699D01*
X41126Y21699D02*
X44475Y21699D01*
X0525Y21748D02*
X17312Y21748D01*
X33022Y21748D02*
X34978Y21748D01*
X36172Y21748D02*
X37268Y21748D01*
X38192Y21748D02*
X39391Y21748D01*
X40215Y21748D02*
X40325Y21748D01*
X41149Y21748D02*
X44475Y21748D01*
X0525Y21798D02*
X17372Y21798D01*
X33022Y21798D02*
X34978Y21798D01*
X36172Y21798D02*
X37195Y21798D01*
X38265Y21798D02*
X39384Y21798D01*
X40215Y21798D02*
X40325Y21798D01*
X41156Y21798D02*
X44475Y21798D01*
X0525Y21847D02*
X17459Y21847D01*
X33022Y21847D02*
X34978Y21847D01*
X38321Y21847D02*
X39384Y21847D01*
X41156Y21847D02*
X44475Y21847D01*
X0525Y21897D02*
X17588Y21897D01*
X33022Y21897D02*
X34978Y21897D01*
X38377Y21897D02*
X39384Y21897D01*
X41156Y21897D02*
X44475Y21897D01*
X0525Y21946D02*
X25263Y21946D01*
X27197Y21946D02*
X27803Y21946D01*
X29737Y21946D02*
X30889Y21946D01*
X33022Y21946D02*
X34978Y21946D01*
X38417Y21946D02*
X39384Y21946D01*
X41156Y21946D02*
X44475Y21946D01*
X0525Y21996D02*
X25297Y21996D01*
X27163Y21996D02*
X27837Y21996D01*
X29703Y21996D02*
X30939Y21996D01*
X33022Y21996D02*
X34978Y21996D01*
X38452Y21996D02*
X39384Y21996D01*
X41156Y21996D02*
X44475Y21996D01*
X0525Y22046D02*
X25337Y22046D01*
X27123Y22046D02*
X27877Y22046D01*
X29663Y22046D02*
X30989Y22046D01*
X33022Y22046D02*
X34978Y22046D01*
X38486Y22046D02*
X39384Y22046D01*
X41156Y22046D02*
X44475Y22046D01*
X0525Y22095D02*
X25393Y22095D01*
X27067Y22095D02*
X27933Y22095D01*
X29607Y22095D02*
X31038Y22095D01*
X33022Y22095D02*
X34978Y22095D01*
X38518Y22095D02*
X39384Y22095D01*
X41156Y22095D02*
X44475Y22095D01*
X0525Y22145D02*
X25449Y22145D01*
X27011Y22145D02*
X27989Y22145D01*
X29551Y22145D02*
X31088Y22145D01*
X33022Y22145D02*
X34978Y22145D01*
X38537Y22145D02*
X39384Y22145D01*
X41156Y22145D02*
X44475Y22145D01*
X0525Y22194D02*
X25505Y22194D01*
X26955Y22194D02*
X28045Y22194D01*
X29495Y22194D02*
X31137Y22194D01*
X33045Y22194D02*
X34955Y22194D01*
X38555Y22194D02*
X39384Y22194D01*
X41156Y22194D02*
X44475Y22194D01*
X0525Y22244D02*
X25573Y22244D01*
X26887Y22244D02*
X28113Y22244D01*
X29427Y22244D02*
X31187Y22244D01*
X33070Y22244D02*
X34930Y22244D01*
X38574Y22244D02*
X39384Y22244D01*
X41156Y22244D02*
X44475Y22244D01*
X0525Y22293D02*
X25668Y22293D01*
X26792Y22293D02*
X28208Y22293D01*
X29332Y22293D02*
X31236Y22293D01*
X33085Y22293D02*
X34915Y22293D01*
X38591Y22293D02*
X39384Y22293D01*
X41156Y22293D02*
X44475Y22293D01*
X0525Y22343D02*
X25762Y22343D01*
X26698Y22343D02*
X28302Y22343D01*
X29238Y22343D02*
X31286Y22343D01*
X33100Y22343D02*
X34900Y22343D01*
X38597Y22343D02*
X39384Y22343D01*
X41156Y22343D02*
X44475Y22343D01*
X0525Y22392D02*
X25920Y22392D01*
X26540Y22392D02*
X28460Y22392D01*
X29080Y22392D02*
X31335Y22392D01*
X33109Y22392D02*
X34891Y22392D01*
X38604Y22392D02*
X39384Y22392D01*
X41156Y22392D02*
X44475Y22392D01*
X0525Y22442D02*
X31385Y22442D01*
X33114Y22442D02*
X34886Y22442D01*
X38610Y22442D02*
X39395Y22442D01*
X41145Y22442D02*
X44475Y22442D01*
X0525Y22491D02*
X31434Y22491D01*
X33119Y22491D02*
X34881Y22491D01*
X38616Y22491D02*
X39585Y22491D01*
X40955Y22491D02*
X44475Y22491D01*
X0525Y22541D02*
X31484Y22541D01*
X33116Y22541D02*
X34884Y22541D01*
X38612Y22541D02*
X39585Y22541D01*
X40955Y22541D02*
X44475Y22541D01*
X0525Y22590D02*
X25990Y22590D01*
X26175Y22590D02*
X26285Y22590D01*
X26470Y22590D02*
X28530Y22590D01*
X28715Y22590D02*
X28825Y22590D01*
X29010Y22590D02*
X31533Y22590D01*
X33111Y22590D02*
X34889Y22590D01*
X38606Y22590D02*
X39384Y22590D01*
X41156Y22590D02*
X44475Y22590D01*
X0525Y22640D02*
X25795Y22640D01*
X26175Y22640D02*
X26285Y22640D01*
X26665Y22640D02*
X28335Y22640D01*
X28715Y22640D02*
X28825Y22640D01*
X29205Y22640D02*
X31583Y22640D01*
X33105Y22640D02*
X34895Y22640D01*
X38600Y22640D02*
X39384Y22640D01*
X41156Y22640D02*
X44475Y22640D01*
X0525Y22689D02*
X25701Y22689D01*
X26175Y22689D02*
X26285Y22689D01*
X26759Y22689D02*
X28241Y22689D01*
X28715Y22689D02*
X28825Y22689D01*
X29299Y22689D02*
X31632Y22689D01*
X33090Y22689D02*
X34910Y22689D01*
X38594Y22689D02*
X39384Y22689D01*
X41156Y22689D02*
X44475Y22689D01*
X0525Y22739D02*
X25606Y22739D01*
X26175Y22739D02*
X26285Y22739D01*
X26854Y22739D02*
X28146Y22739D01*
X28715Y22739D02*
X28825Y22739D01*
X29394Y22739D02*
X31682Y22739D01*
X33075Y22739D02*
X34925Y22739D01*
X38581Y22739D02*
X39384Y22739D01*
X41156Y22739D02*
X44475Y22739D01*
X0525Y22788D02*
X25524Y22788D01*
X26936Y22788D02*
X28064Y22788D01*
X29476Y22788D02*
X31731Y22788D01*
X33055Y22788D02*
X34945Y22788D01*
X38562Y22788D02*
X39384Y22788D01*
X41156Y22788D02*
X44475Y22788D01*
X0525Y22838D02*
X25468Y22838D01*
X26992Y22838D02*
X28008Y22838D01*
X29532Y22838D02*
X31781Y22838D01*
X33028Y22838D02*
X34972Y22838D01*
X38543Y22838D02*
X39384Y22838D01*
X41156Y22838D02*
X44475Y22838D01*
X0525Y22888D02*
X25412Y22888D01*
X27048Y22888D02*
X27952Y22888D01*
X29588Y22888D02*
X31828Y22888D01*
X33022Y22888D02*
X34978Y22888D01*
X38524Y22888D02*
X39384Y22888D01*
X41156Y22888D02*
X44475Y22888D01*
X0525Y22937D02*
X25356Y22937D01*
X27104Y22937D02*
X27896Y22937D01*
X29644Y22937D02*
X31828Y22937D01*
X33022Y22937D02*
X34978Y22937D01*
X38498Y22937D02*
X39384Y22937D01*
X41156Y22937D02*
X44475Y22937D01*
X0525Y22987D02*
X25309Y22987D01*
X27151Y22987D02*
X27849Y22987D01*
X29691Y22987D02*
X31828Y22987D01*
X33022Y22987D02*
X34978Y22987D01*
X38464Y22987D02*
X39384Y22987D01*
X41156Y22987D02*
X44475Y22987D01*
X0525Y23036D02*
X25275Y23036D01*
X27185Y23036D02*
X27815Y23036D01*
X29725Y23036D02*
X31828Y23036D01*
X33022Y23036D02*
X34978Y23036D01*
X38429Y23036D02*
X39384Y23036D01*
X41156Y23036D02*
X44475Y23036D01*
X0525Y23086D02*
X25241Y23086D01*
X27219Y23086D02*
X27781Y23086D01*
X29759Y23086D02*
X31828Y23086D01*
X33022Y23086D02*
X34978Y23086D01*
X38395Y23086D02*
X39384Y23086D01*
X41156Y23086D02*
X44475Y23086D01*
X0525Y23135D02*
X25207Y23135D01*
X27253Y23135D02*
X27747Y23135D01*
X29793Y23135D02*
X31828Y23135D01*
X33022Y23135D02*
X34978Y23135D01*
X38340Y23135D02*
X39384Y23135D01*
X41156Y23135D02*
X44475Y23135D01*
X0525Y23185D02*
X25173Y23185D01*
X27287Y23185D02*
X27713Y23185D01*
X29827Y23185D02*
X31828Y23185D01*
X33022Y23185D02*
X34978Y23185D01*
X38284Y23185D02*
X39384Y23185D01*
X41156Y23185D02*
X44475Y23185D01*
X0525Y23234D02*
X25147Y23234D01*
X27313Y23234D02*
X27687Y23234D01*
X29853Y23234D02*
X31828Y23234D01*
X33022Y23234D02*
X34978Y23234D01*
X36172Y23234D02*
X37235Y23234D01*
X38225Y23234D02*
X39387Y23234D01*
X40215Y23234D02*
X40325Y23234D01*
X41153Y23234D02*
X44475Y23234D01*
X0525Y23284D02*
X25128Y23284D01*
X27332Y23284D02*
X27668Y23284D01*
X29872Y23284D02*
X31828Y23284D01*
X33022Y23284D02*
X34978Y23284D01*
X36172Y23284D02*
X37330Y23284D01*
X38130Y23284D02*
X39403Y23284D01*
X40215Y23284D02*
X40325Y23284D01*
X41137Y23284D02*
X44475Y23284D01*
X0525Y23333D02*
X25109Y23333D01*
X27351Y23333D02*
X27649Y23333D01*
X29891Y23333D02*
X31828Y23333D01*
X33022Y23333D02*
X34978Y23333D01*
X36172Y23333D02*
X37433Y23333D01*
X38027Y23333D02*
X39440Y23333D01*
X40215Y23333D02*
X40325Y23333D01*
X41100Y23333D02*
X44475Y23333D01*
X0525Y23383D02*
X25090Y23383D01*
X27370Y23383D02*
X27630Y23383D01*
X29910Y23383D02*
X31835Y23383D01*
X33015Y23383D02*
X34985Y23383D01*
X36165Y23383D02*
X39535Y23383D01*
X40204Y23383D02*
X40336Y23383D01*
X41005Y23383D02*
X44475Y23383D01*
X0525Y23432D02*
X25072Y23432D01*
X27388Y23432D02*
X27612Y23432D01*
X29928Y23432D02*
X31856Y23432D01*
X32994Y23432D02*
X35006Y23432D01*
X36144Y23432D02*
X44475Y23432D01*
X0525Y23482D02*
X25053Y23482D01*
X27407Y23482D02*
X27593Y23482D01*
X29947Y23482D02*
X31900Y23482D01*
X32950Y23482D02*
X35050Y23482D01*
X36100Y23482D02*
X44475Y23482D01*
X0525Y23531D02*
X25047Y23531D01*
X27413Y23531D02*
X27587Y23531D01*
X29953Y23531D02*
X44475Y23531D01*
X0525Y23581D02*
X25041Y23581D01*
X27419Y23581D02*
X27581Y23581D01*
X29959Y23581D02*
X44475Y23581D01*
X0525Y23631D02*
X25035Y23631D01*
X27425Y23631D02*
X27575Y23631D01*
X29965Y23631D02*
X44475Y23631D01*
X0525Y23680D02*
X25029Y23680D01*
X27431Y23680D02*
X27569Y23680D01*
X29971Y23680D02*
X44475Y23680D01*
X0525Y23730D02*
X25220Y23730D01*
X27240Y23730D02*
X27760Y23730D01*
X29780Y23730D02*
X44475Y23730D01*
X0525Y23779D02*
X25220Y23779D01*
X27240Y23779D02*
X27760Y23779D01*
X29780Y23779D02*
X44475Y23779D01*
X0525Y23829D02*
X11290Y23829D01*
X11397Y23829D02*
X11523Y23829D01*
X11630Y23829D02*
X13830Y23829D01*
X13937Y23829D02*
X14063Y23829D01*
X14170Y23829D02*
X16370Y23829D01*
X16477Y23829D02*
X16603Y23829D01*
X16710Y23829D02*
X25039Y23829D01*
X27421Y23829D02*
X27579Y23829D01*
X29961Y23829D02*
X44475Y23829D01*
X0525Y23878D02*
X11089Y23878D01*
X11405Y23878D02*
X11515Y23878D01*
X11831Y23878D02*
X13629Y23878D01*
X13945Y23878D02*
X14055Y23878D01*
X14371Y23878D02*
X16169Y23878D01*
X16485Y23878D02*
X16595Y23878D01*
X16911Y23878D02*
X25032Y23878D01*
X27428Y23878D02*
X27572Y23878D01*
X29968Y23878D02*
X44475Y23878D01*
X0525Y23928D02*
X10968Y23928D01*
X11405Y23928D02*
X11515Y23928D01*
X11952Y23928D02*
X13508Y23928D01*
X13945Y23928D02*
X14055Y23928D01*
X14492Y23928D02*
X16048Y23928D01*
X16485Y23928D02*
X16595Y23928D01*
X17032Y23928D02*
X25038Y23928D01*
X27422Y23928D02*
X27578Y23928D01*
X29962Y23928D02*
X44475Y23928D01*
X0525Y23977D02*
X10874Y23977D01*
X11405Y23977D02*
X11515Y23977D01*
X12046Y23977D02*
X13414Y23977D01*
X13945Y23977D02*
X14055Y23977D01*
X14586Y23977D02*
X15954Y23977D01*
X16485Y23977D02*
X16595Y23977D01*
X17126Y23977D02*
X25044Y23977D01*
X27416Y23977D02*
X27584Y23977D01*
X29956Y23977D02*
X44475Y23977D01*
X0525Y24027D02*
X10782Y24027D01*
X12138Y24027D02*
X13322Y24027D01*
X14678Y24027D02*
X15862Y24027D01*
X17218Y24027D02*
X25050Y24027D01*
X27410Y24027D02*
X27590Y24027D01*
X29950Y24027D02*
X44475Y24027D01*
X0525Y24076D02*
X10726Y24076D01*
X12194Y24076D02*
X13266Y24076D01*
X14734Y24076D02*
X15806Y24076D01*
X17274Y24076D02*
X25060Y24076D01*
X27400Y24076D02*
X27600Y24076D01*
X29940Y24076D02*
X44475Y24076D01*
X0525Y24126D02*
X10670Y24126D01*
X12250Y24126D02*
X13210Y24126D01*
X14790Y24126D02*
X15750Y24126D01*
X17330Y24126D02*
X25079Y24126D01*
X27381Y24126D02*
X27619Y24126D01*
X29921Y24126D02*
X44475Y24126D01*
X0525Y24175D02*
X10615Y24175D01*
X12305Y24175D02*
X13155Y24175D01*
X14845Y24175D02*
X15695Y24175D01*
X17385Y24175D02*
X25097Y24175D01*
X27363Y24175D02*
X27637Y24175D01*
X29903Y24175D02*
X44475Y24175D01*
X0525Y24225D02*
X10564Y24225D01*
X12356Y24225D02*
X13104Y24225D01*
X14896Y24225D02*
X15644Y24225D01*
X17436Y24225D02*
X25116Y24225D01*
X27344Y24225D02*
X27656Y24225D01*
X29884Y24225D02*
X44475Y24225D01*
X0525Y24274D02*
X10530Y24274D01*
X12390Y24274D02*
X13070Y24274D01*
X14930Y24274D02*
X15610Y24274D01*
X17470Y24274D02*
X25135Y24274D01*
X27325Y24274D02*
X27675Y24274D01*
X29865Y24274D02*
X44475Y24274D01*
X0525Y24324D02*
X10495Y24324D01*
X12425Y24324D02*
X13035Y24324D01*
X14965Y24324D02*
X15575Y24324D01*
X17505Y24324D02*
X25154Y24324D01*
X27306Y24324D02*
X27694Y24324D01*
X29846Y24324D02*
X44475Y24324D01*
X0525Y24373D02*
X10461Y24373D01*
X12459Y24373D02*
X13001Y24373D01*
X14999Y24373D02*
X15541Y24373D01*
X17539Y24373D02*
X25185Y24373D01*
X27275Y24373D02*
X27725Y24373D01*
X29815Y24373D02*
X44475Y24373D01*
X0525Y24423D02*
X10427Y24423D01*
X12493Y24423D02*
X12967Y24423D01*
X15033Y24423D02*
X15507Y24423D01*
X17573Y24423D02*
X25219Y24423D01*
X27241Y24423D02*
X27759Y24423D01*
X29781Y24423D02*
X44475Y24423D01*
X0525Y24473D02*
X10400Y24473D01*
X12520Y24473D02*
X12940Y24473D01*
X15060Y24473D02*
X15480Y24473D01*
X17600Y24473D02*
X25253Y24473D01*
X27207Y24473D02*
X27793Y24473D01*
X29747Y24473D02*
X44475Y24473D01*
X0525Y24522D02*
X10381Y24522D01*
X12539Y24522D02*
X12921Y24522D01*
X15079Y24522D02*
X15461Y24522D01*
X17619Y24522D02*
X25288Y24522D01*
X27172Y24522D02*
X27828Y24522D01*
X29712Y24522D02*
X44475Y24522D01*
X0525Y24572D02*
X10363Y24572D01*
X12557Y24572D02*
X12903Y24572D01*
X15097Y24572D02*
X15443Y24572D01*
X17637Y24572D02*
X25322Y24572D01*
X27138Y24572D02*
X27862Y24572D01*
X29678Y24572D02*
X44475Y24572D01*
X0525Y24621D02*
X10344Y24621D01*
X12576Y24621D02*
X12884Y24621D01*
X15116Y24621D02*
X15424Y24621D01*
X17656Y24621D02*
X25377Y24621D01*
X27083Y24621D02*
X27917Y24621D01*
X29623Y24621D02*
X44475Y24621D01*
X0525Y24671D02*
X10325Y24671D01*
X12595Y24671D02*
X12865Y24671D01*
X15135Y24671D02*
X15405Y24671D01*
X17675Y24671D02*
X25433Y24671D01*
X27027Y24671D02*
X27973Y24671D01*
X29567Y24671D02*
X44475Y24671D01*
X0525Y24720D02*
X10307Y24720D01*
X12613Y24720D02*
X12847Y24720D01*
X15153Y24720D02*
X15387Y24720D01*
X17693Y24720D02*
X25489Y24720D01*
X26971Y24720D02*
X28029Y24720D01*
X29511Y24720D02*
X44475Y24720D01*
X0525Y24770D02*
X10301Y24770D01*
X12619Y24770D02*
X12841Y24770D01*
X15159Y24770D02*
X15381Y24770D01*
X17699Y24770D02*
X25547Y24770D01*
X26913Y24770D02*
X28087Y24770D01*
X29453Y24770D02*
X44475Y24770D01*
X0525Y24819D02*
X10295Y24819D01*
X12625Y24819D02*
X12835Y24819D01*
X15165Y24819D02*
X15375Y24819D01*
X17705Y24819D02*
X25641Y24819D01*
X26175Y24819D02*
X26285Y24819D01*
X26819Y24819D02*
X28181Y24819D01*
X28715Y24819D02*
X28825Y24819D01*
X29359Y24819D02*
X44475Y24819D01*
X0525Y24869D02*
X10289Y24869D01*
X12631Y24869D02*
X12829Y24869D01*
X15171Y24869D02*
X15369Y24869D01*
X17711Y24869D02*
X25735Y24869D01*
X26175Y24869D02*
X26285Y24869D01*
X26725Y24869D02*
X28275Y24869D01*
X28715Y24869D02*
X28825Y24869D01*
X29265Y24869D02*
X44475Y24869D01*
X0525Y24918D02*
X10283Y24918D01*
X12637Y24918D02*
X12823Y24918D01*
X15177Y24918D02*
X15363Y24918D01*
X17717Y24918D02*
X25863Y24918D01*
X26175Y24918D02*
X26285Y24918D01*
X26597Y24918D02*
X28403Y24918D01*
X28715Y24918D02*
X28825Y24918D01*
X29137Y24918D02*
X44475Y24918D01*
X0525Y24968D02*
X10475Y24968D01*
X12445Y24968D02*
X13015Y24968D01*
X14985Y24968D02*
X15555Y24968D01*
X17525Y24968D02*
X26064Y24968D01*
X26165Y24968D02*
X26295Y24968D01*
X26396Y24968D02*
X28604Y24968D01*
X28705Y24968D02*
X28835Y24968D01*
X28936Y24968D02*
X44475Y24968D01*
X0525Y25017D02*
X10475Y25017D01*
X12445Y25017D02*
X13015Y25017D01*
X14985Y25017D02*
X15555Y25017D01*
X17525Y25017D02*
X44475Y25017D01*
X0525Y25067D02*
X10286Y25067D01*
X12634Y25067D02*
X12826Y25067D01*
X15174Y25067D02*
X15366Y25067D01*
X17714Y25067D02*
X44475Y25067D01*
X0525Y25116D02*
X10288Y25116D01*
X12632Y25116D02*
X12828Y25116D01*
X15172Y25116D02*
X15368Y25116D01*
X17712Y25116D02*
X26047Y25116D01*
X26170Y25116D02*
X26290Y25116D01*
X26413Y25116D02*
X28587Y25116D01*
X28710Y25116D02*
X28830Y25116D01*
X28953Y25116D02*
X44475Y25116D01*
X0525Y25166D02*
X10294Y25166D01*
X12626Y25166D02*
X12834Y25166D01*
X15166Y25166D02*
X15374Y25166D01*
X17706Y25166D02*
X25846Y25166D01*
X26175Y25166D02*
X26285Y25166D01*
X26614Y25166D02*
X28386Y25166D01*
X28715Y25166D02*
X28825Y25166D01*
X29154Y25166D02*
X44475Y25166D01*
X0525Y25215D02*
X10300Y25215D01*
X12620Y25215D02*
X12840Y25215D01*
X15160Y25215D02*
X15380Y25215D01*
X17700Y25215D02*
X25727Y25215D01*
X26175Y25215D02*
X26285Y25215D01*
X26733Y25215D02*
X28267Y25215D01*
X28715Y25215D02*
X28825Y25215D01*
X29273Y25215D02*
X44475Y25215D01*
X0525Y25265D02*
X10306Y25265D01*
X12614Y25265D02*
X12846Y25265D01*
X15154Y25265D02*
X15386Y25265D01*
X17694Y25265D02*
X25633Y25265D01*
X26175Y25265D02*
X26285Y25265D01*
X26827Y25265D02*
X28173Y25265D01*
X28715Y25265D02*
X28825Y25265D01*
X29367Y25265D02*
X44475Y25265D01*
X0525Y25315D02*
X10319Y25315D01*
X12601Y25315D02*
X12859Y25315D01*
X15141Y25315D02*
X15399Y25315D01*
X17681Y25315D02*
X25540Y25315D01*
X26920Y25315D02*
X28080Y25315D01*
X29460Y25315D02*
X44475Y25315D01*
X0525Y25364D02*
X10338Y25364D01*
X12582Y25364D02*
X12878Y25364D01*
X15122Y25364D02*
X15418Y25364D01*
X17662Y25364D02*
X25484Y25364D01*
X26976Y25364D02*
X28024Y25364D01*
X29516Y25364D02*
X44475Y25364D01*
X0525Y25414D02*
X10357Y25414D01*
X12563Y25414D02*
X12897Y25414D01*
X15103Y25414D02*
X15437Y25414D01*
X17643Y25414D02*
X25428Y25414D01*
X27032Y25414D02*
X27968Y25414D01*
X29572Y25414D02*
X44475Y25414D01*
X0525Y25463D02*
X10376Y25463D01*
X12544Y25463D02*
X12916Y25463D01*
X15084Y25463D02*
X15456Y25463D01*
X17624Y25463D02*
X25372Y25463D01*
X27088Y25463D02*
X27912Y25463D01*
X29628Y25463D02*
X44475Y25463D01*
X0525Y25513D02*
X10395Y25513D01*
X12525Y25513D02*
X12935Y25513D01*
X15065Y25513D02*
X15475Y25513D01*
X17605Y25513D02*
X25319Y25513D01*
X27141Y25513D02*
X27859Y25513D01*
X29681Y25513D02*
X44475Y25513D01*
X0525Y25562D02*
X10417Y25562D01*
X12503Y25562D02*
X12957Y25562D01*
X15043Y25562D02*
X15497Y25562D01*
X17583Y25562D02*
X25285Y25562D01*
X27175Y25562D02*
X27825Y25562D01*
X29715Y25562D02*
X44475Y25562D01*
X0525Y25612D02*
X10451Y25612D01*
X12469Y25612D02*
X12991Y25612D01*
X15009Y25612D02*
X15531Y25612D01*
X17549Y25612D02*
X25251Y25612D01*
X27209Y25612D02*
X27791Y25612D01*
X29749Y25612D02*
X44475Y25612D01*
X0525Y25661D02*
X10485Y25661D01*
X12435Y25661D02*
X13025Y25661D01*
X14975Y25661D02*
X15565Y25661D01*
X17515Y25661D02*
X25216Y25661D01*
X27244Y25661D02*
X27756Y25661D01*
X29784Y25661D02*
X44475Y25661D01*
X0525Y25711D02*
X10519Y25711D01*
X12401Y25711D02*
X13059Y25711D01*
X14941Y25711D02*
X15599Y25711D01*
X17481Y25711D02*
X25182Y25711D01*
X27278Y25711D02*
X27722Y25711D01*
X29818Y25711D02*
X44475Y25711D01*
X0525Y25760D02*
X10553Y25760D01*
X12366Y25760D02*
X13093Y25760D01*
X14906Y25760D02*
X15633Y25760D01*
X17446Y25760D02*
X25152Y25760D01*
X27308Y25760D02*
X27692Y25760D01*
X29848Y25760D02*
X44475Y25760D01*
X0525Y25810D02*
X10598Y25810D01*
X12322Y25810D02*
X13138Y25810D01*
X14862Y25810D02*
X15678Y25810D01*
X17402Y25810D02*
X25133Y25810D01*
X27327Y25810D02*
X27673Y25810D01*
X29867Y25810D02*
X44475Y25810D01*
X0525Y25859D02*
X10654Y25859D01*
X12266Y25859D02*
X13194Y25859D01*
X14806Y25859D02*
X15734Y25859D01*
X17346Y25859D02*
X25115Y25859D01*
X27345Y25859D02*
X27655Y25859D01*
X29885Y25859D02*
X44475Y25859D01*
X0525Y25909D02*
X10710Y25909D01*
X12210Y25909D02*
X13250Y25909D01*
X14750Y25909D02*
X15790Y25909D01*
X17290Y25909D02*
X25096Y25909D01*
X27364Y25909D02*
X27636Y25909D01*
X29904Y25909D02*
X44475Y25909D01*
X0525Y25958D02*
X10765Y25958D01*
X12155Y25958D02*
X13305Y25958D01*
X14695Y25958D02*
X15845Y25958D01*
X17235Y25958D02*
X25077Y25958D01*
X27383Y25958D02*
X27617Y25958D01*
X29923Y25958D02*
X44475Y25958D01*
X0525Y26008D02*
X10846Y26008D01*
X11405Y26008D02*
X11515Y26008D01*
X12074Y26008D02*
X13386Y26008D01*
X13945Y26008D02*
X14055Y26008D01*
X14614Y26008D02*
X15926Y26008D01*
X16485Y26008D02*
X16595Y26008D01*
X17154Y26008D02*
X25058Y26008D01*
X27402Y26008D02*
X27598Y26008D01*
X29942Y26008D02*
X44475Y26008D01*
X0525Y26057D02*
X10940Y26057D01*
X11405Y26057D02*
X11515Y26057D01*
X11980Y26057D02*
X13480Y26057D01*
X13945Y26057D02*
X14055Y26057D01*
X14520Y26057D02*
X16020Y26057D01*
X16485Y26057D02*
X16595Y26057D01*
X17060Y26057D02*
X25049Y26057D01*
X27411Y26057D02*
X27589Y26057D01*
X29951Y26057D02*
X44475Y26057D01*
X0525Y26107D02*
X11035Y26107D01*
X11405Y26107D02*
X11515Y26107D01*
X11885Y26107D02*
X13575Y26107D01*
X13945Y26107D02*
X14055Y26107D01*
X14425Y26107D02*
X16115Y26107D01*
X16485Y26107D02*
X16595Y26107D01*
X16965Y26107D02*
X25043Y26107D01*
X27417Y26107D02*
X27583Y26107D01*
X29957Y26107D02*
X44475Y26107D01*
X0525Y26157D02*
X11230Y26157D01*
X11405Y26157D02*
X11515Y26157D01*
X11690Y26157D02*
X13770Y26157D01*
X13945Y26157D02*
X14055Y26157D01*
X14230Y26157D02*
X16310Y26157D01*
X16485Y26157D02*
X16595Y26157D01*
X16770Y26157D02*
X25037Y26157D01*
X27423Y26157D02*
X27577Y26157D01*
X29963Y26157D02*
X44475Y26157D01*
X0525Y26206D02*
X25031Y26206D01*
X27429Y26206D02*
X27571Y26206D01*
X29969Y26206D02*
X44475Y26206D01*
X0525Y26256D02*
X25220Y26256D01*
X27240Y26256D02*
X27760Y26256D01*
X29780Y26256D02*
X44475Y26256D01*
X0525Y26305D02*
X25220Y26305D01*
X27240Y26305D02*
X27760Y26305D01*
X29780Y26305D02*
X44475Y26305D01*
X0525Y26355D02*
X25220Y26355D01*
X27240Y26355D02*
X27760Y26355D01*
X29780Y26355D02*
X44475Y26355D01*
X0525Y26404D02*
X25030Y26404D01*
X27430Y26404D02*
X27570Y26404D01*
X29970Y26404D02*
X44475Y26404D01*
X0525Y26454D02*
X25036Y26454D01*
X27424Y26454D02*
X27576Y26454D01*
X29964Y26454D02*
X44475Y26454D01*
X0525Y26503D02*
X25042Y26503D01*
X27418Y26503D02*
X27582Y26503D01*
X29958Y26503D02*
X44475Y26503D01*
X0525Y26553D02*
X25048Y26553D01*
X27412Y26553D02*
X27588Y26553D01*
X29952Y26553D02*
X44475Y26553D01*
X0525Y26602D02*
X25055Y26602D01*
X27405Y26602D02*
X27595Y26602D01*
X29945Y26602D02*
X44475Y26602D01*
X0525Y26652D02*
X25073Y26652D01*
X27387Y26652D02*
X27613Y26652D01*
X29927Y26652D02*
X44475Y26652D01*
X0525Y26701D02*
X25092Y26701D01*
X27368Y26701D02*
X27632Y26701D01*
X29908Y26701D02*
X44475Y26701D01*
X0525Y26751D02*
X25111Y26751D01*
X27349Y26751D02*
X27651Y26751D01*
X29889Y26751D02*
X44475Y26751D01*
X0525Y26800D02*
X25130Y26800D01*
X27330Y26800D02*
X27670Y26800D01*
X29870Y26800D02*
X44475Y26800D01*
X0525Y26850D02*
X25148Y26850D01*
X27312Y26850D02*
X27688Y26850D01*
X29852Y26850D02*
X44475Y26850D01*
X0525Y26899D02*
X25175Y26899D01*
X27285Y26899D02*
X27715Y26899D01*
X29825Y26899D02*
X44475Y26899D01*
X0525Y26949D02*
X25210Y26949D01*
X27250Y26949D02*
X27750Y26949D01*
X29790Y26949D02*
X44475Y26949D01*
X0525Y26999D02*
X25244Y26999D01*
X27216Y26999D02*
X27784Y26999D01*
X29756Y26999D02*
X44475Y26999D01*
X0525Y27048D02*
X25278Y27048D01*
X27182Y27048D02*
X27818Y27048D01*
X29722Y27048D02*
X44475Y27048D01*
X0525Y27098D02*
X25312Y27098D01*
X27148Y27098D02*
X27852Y27098D01*
X29688Y27098D02*
X44475Y27098D01*
X0525Y27147D02*
X25361Y27147D01*
X27099Y27147D02*
X27901Y27147D01*
X29639Y27147D02*
X44475Y27147D01*
X0525Y27197D02*
X25417Y27197D01*
X27043Y27197D02*
X27957Y27197D01*
X29583Y27197D02*
X44475Y27197D01*
X0525Y27246D02*
X25473Y27246D01*
X26987Y27246D02*
X28013Y27246D01*
X29527Y27246D02*
X44475Y27246D01*
X0525Y27296D02*
X25529Y27296D01*
X26931Y27296D02*
X28069Y27296D01*
X29471Y27296D02*
X44475Y27296D01*
X0525Y27345D02*
X25614Y27345D01*
X26175Y27345D02*
X26285Y27345D01*
X26846Y27345D02*
X28154Y27345D01*
X28715Y27345D02*
X28825Y27345D01*
X29386Y27345D02*
X44475Y27345D01*
X0525Y27395D02*
X25709Y27395D01*
X26175Y27395D02*
X26285Y27395D01*
X26751Y27395D02*
X28249Y27395D01*
X28715Y27395D02*
X28825Y27395D01*
X29291Y27395D02*
X44475Y27395D01*
X0525Y27444D02*
X25806Y27444D01*
X26175Y27444D02*
X26285Y27444D01*
X26654Y27444D02*
X28346Y27444D01*
X28715Y27444D02*
X28825Y27444D01*
X29194Y27444D02*
X44475Y27444D01*
X0525Y27494D02*
X26007Y27494D01*
X26175Y27494D02*
X26285Y27494D01*
X26453Y27494D02*
X28547Y27494D01*
X28715Y27494D02*
X28825Y27494D01*
X28993Y27494D02*
X44475Y27494D01*
X0525Y27543D02*
X44475Y27543D01*
X0525Y27593D02*
X44475Y27593D01*
X0525Y27642D02*
X44475Y27642D01*
X0525Y27692D02*
X25903Y27692D01*
X26175Y27692D02*
X26285Y27692D01*
X26557Y27692D02*
X28443Y27692D01*
X28715Y27692D02*
X28825Y27692D01*
X29097Y27692D02*
X44475Y27692D01*
X0525Y27741D02*
X25754Y27741D01*
X26175Y27741D02*
X26285Y27741D01*
X26706Y27741D02*
X28294Y27741D01*
X28715Y27741D02*
X28825Y27741D01*
X29246Y27741D02*
X44475Y27741D01*
X0525Y27791D02*
X25660Y27791D01*
X26175Y27791D02*
X26285Y27791D01*
X26800Y27791D02*
X28200Y27791D01*
X28715Y27791D02*
X28825Y27791D01*
X29340Y27791D02*
X44475Y27791D01*
X0525Y27841D02*
X25565Y27841D01*
X26175Y27841D02*
X26285Y27841D01*
X26895Y27841D02*
X28105Y27841D01*
X28715Y27841D02*
X28825Y27841D01*
X29435Y27841D02*
X44475Y27841D01*
X0525Y27890D02*
X25500Y27890D01*
X26960Y27890D02*
X28040Y27890D01*
X29500Y27890D02*
X44475Y27890D01*
X0525Y27940D02*
X25444Y27940D01*
X27016Y27940D02*
X27984Y27940D01*
X29556Y27940D02*
X44475Y27940D01*
X0525Y27989D02*
X25388Y27989D01*
X27072Y27989D02*
X27928Y27989D01*
X29612Y27989D02*
X44475Y27989D01*
X0525Y28039D02*
X25332Y28039D01*
X27128Y28039D02*
X27872Y28039D01*
X29668Y28039D02*
X44475Y28039D01*
X0525Y28088D02*
X25294Y28088D01*
X27166Y28088D02*
X27834Y28088D01*
X29706Y28088D02*
X44475Y28088D01*
X0525Y28138D02*
X25260Y28138D01*
X27200Y28138D02*
X27800Y28138D01*
X29740Y28138D02*
X44475Y28138D01*
X0525Y28187D02*
X25226Y28187D01*
X27234Y28187D02*
X27766Y28187D01*
X29774Y28187D02*
X44475Y28187D01*
X0525Y28237D02*
X25192Y28237D01*
X27268Y28237D02*
X27732Y28237D01*
X29808Y28237D02*
X44475Y28237D01*
X0525Y28286D02*
X25158Y28286D01*
X27302Y28286D02*
X27698Y28286D01*
X29842Y28286D02*
X44475Y28286D01*
X0525Y28336D02*
X25139Y28336D01*
X27321Y28336D02*
X27679Y28336D01*
X29861Y28336D02*
X44475Y28336D01*
X0525Y28385D02*
X25120Y28385D01*
X27340Y28385D02*
X27660Y28385D01*
X29880Y28385D02*
X44475Y28385D01*
X0525Y28435D02*
X25101Y28435D01*
X27359Y28435D02*
X27641Y28435D01*
X29899Y28435D02*
X44475Y28435D01*
X0525Y28484D02*
X25082Y28484D01*
X27378Y28484D02*
X27622Y28484D01*
X29918Y28484D02*
X44475Y28484D01*
X0525Y28534D02*
X25064Y28534D01*
X27396Y28534D02*
X27604Y28534D01*
X29936Y28534D02*
X44475Y28534D01*
X0525Y28584D02*
X25051Y28584D01*
X27409Y28584D02*
X27591Y28584D01*
X29949Y28584D02*
X44475Y28584D01*
X0525Y28633D02*
X25045Y28633D01*
X27415Y28633D02*
X27585Y28633D01*
X29955Y28633D02*
X44475Y28633D01*
X0525Y28683D02*
X25039Y28683D01*
X27421Y28683D02*
X27579Y28683D01*
X29961Y28683D02*
X44475Y28683D01*
X0525Y28732D02*
X25033Y28732D01*
X27427Y28732D02*
X27573Y28732D01*
X29967Y28732D02*
X44475Y28732D01*
X0525Y28782D02*
X25030Y28782D01*
X27430Y28782D02*
X27570Y28782D01*
X29970Y28782D02*
X44475Y28782D01*
X0525Y28831D02*
X11280Y28831D01*
X11640Y28831D02*
X12922Y28831D01*
X15078Y28831D02*
X16360Y28831D01*
X16720Y28831D02*
X25220Y28831D01*
X27240Y28831D02*
X27760Y28831D01*
X29780Y28831D02*
X44475Y28831D01*
X0525Y28881D02*
X11079Y28881D01*
X11841Y28881D02*
X12857Y28881D01*
X15143Y28881D02*
X16159Y28881D01*
X16921Y28881D02*
X25220Y28881D01*
X27240Y28881D02*
X27760Y28881D01*
X29780Y28881D02*
X44475Y28881D01*
X0525Y28930D02*
X10964Y28930D01*
X11956Y28930D02*
X12828Y28930D01*
X15172Y28930D02*
X16044Y28930D01*
X17036Y28930D02*
X25028Y28930D01*
X27432Y28930D02*
X27568Y28930D01*
X29972Y28930D02*
X44475Y28930D01*
X0525Y28980D02*
X10869Y28980D01*
X12051Y28980D02*
X12815Y28980D01*
X15185Y28980D02*
X15949Y28980D01*
X17131Y28980D02*
X25034Y28980D01*
X27426Y28980D02*
X27574Y28980D01*
X29966Y28980D02*
X44475Y28980D01*
X0525Y29029D02*
X10779Y29029D01*
X12141Y29029D02*
X12814Y29029D01*
X15186Y29029D02*
X15859Y29029D01*
X17221Y29029D02*
X25040Y29029D01*
X27420Y29029D02*
X27580Y29029D01*
X29960Y29029D02*
X44475Y29029D01*
X0525Y29079D02*
X10723Y29079D01*
X12197Y29079D02*
X12814Y29079D01*
X15186Y29079D02*
X15803Y29079D01*
X17277Y29079D02*
X25046Y29079D01*
X27414Y29079D02*
X27586Y29079D01*
X29954Y29079D02*
X44475Y29079D01*
X0525Y29128D02*
X10668Y29128D01*
X12252Y29128D02*
X12814Y29128D01*
X15186Y29128D02*
X15748Y29128D01*
X17332Y29128D02*
X25052Y29128D01*
X27408Y29128D02*
X27592Y29128D01*
X29948Y29128D02*
X44475Y29128D01*
X0525Y29178D02*
X10612Y29178D01*
X12308Y29178D02*
X12814Y29178D01*
X15186Y29178D02*
X15692Y29178D01*
X17388Y29178D02*
X25068Y29178D01*
X27392Y29178D02*
X27608Y29178D01*
X29932Y29178D02*
X44475Y29178D01*
X0525Y29227D02*
X10562Y29227D01*
X12358Y29227D02*
X12814Y29227D01*
X15186Y29227D02*
X15642Y29227D01*
X17438Y29227D02*
X25087Y29227D01*
X27373Y29227D02*
X27627Y29227D01*
X29913Y29227D02*
X44475Y29227D01*
X0525Y29277D02*
X10528Y29277D01*
X12392Y29277D02*
X12814Y29277D01*
X15186Y29277D02*
X15608Y29277D01*
X17472Y29277D02*
X25106Y29277D01*
X27354Y29277D02*
X27646Y29277D01*
X29894Y29277D02*
X44475Y29277D01*
X0525Y29326D02*
X10494Y29326D01*
X17506Y29326D02*
X25124Y29326D01*
X27336Y29326D02*
X27664Y29326D01*
X29876Y29326D02*
X44475Y29326D01*
X0525Y29376D02*
X10459Y29376D01*
X17541Y29376D02*
X25143Y29376D01*
X27317Y29376D02*
X27683Y29376D01*
X29857Y29376D02*
X44475Y29376D01*
X0525Y29426D02*
X10425Y29426D01*
X17575Y29426D02*
X25166Y29426D01*
X27294Y29426D02*
X27706Y29426D01*
X29834Y29426D02*
X44475Y29426D01*
X0525Y29475D02*
X10399Y29475D01*
X17601Y29475D02*
X25200Y29475D01*
X27260Y29475D02*
X27740Y29475D01*
X29800Y29475D02*
X44475Y29475D01*
X0525Y29525D02*
X10381Y29525D01*
X17619Y29525D02*
X25234Y29525D01*
X27226Y29525D02*
X27774Y29525D01*
X29766Y29525D02*
X31892Y29525D01*
X32958Y29525D02*
X35042Y29525D01*
X36108Y29525D02*
X44475Y29525D01*
X0525Y29574D02*
X10362Y29574D01*
X17638Y29574D02*
X25268Y29574D01*
X27192Y29574D02*
X27808Y29574D01*
X29732Y29574D02*
X31852Y29574D01*
X32998Y29574D02*
X35002Y29574D01*
X36148Y29574D02*
X44475Y29574D01*
X0525Y29624D02*
X10343Y29624D01*
X17657Y29624D02*
X25303Y29624D01*
X27157Y29624D02*
X27843Y29624D01*
X29697Y29624D02*
X31833Y29624D01*
X33017Y29624D02*
X34983Y29624D01*
X36167Y29624D02*
X37608Y29624D01*
X37664Y29624D02*
X37796Y29624D01*
X37852Y29624D02*
X39510Y29624D01*
X41030Y29624D02*
X44475Y29624D01*
X0525Y29673D02*
X10324Y29673D01*
X17676Y29673D02*
X25345Y29673D01*
X27115Y29673D02*
X27885Y29673D01*
X29655Y29673D02*
X31828Y29673D01*
X33022Y29673D02*
X34978Y29673D01*
X36172Y29673D02*
X37412Y29673D01*
X37675Y29673D02*
X37785Y29673D01*
X38048Y29673D02*
X39434Y29673D01*
X41106Y29673D02*
X44475Y29673D01*
X0525Y29723D02*
X10307Y29723D01*
X17693Y29723D02*
X25401Y29723D01*
X27059Y29723D02*
X27941Y29723D01*
X29599Y29723D02*
X31828Y29723D01*
X33022Y29723D02*
X34978Y29723D01*
X36172Y29723D02*
X37317Y29723D01*
X37675Y29723D02*
X37785Y29723D01*
X38143Y29723D02*
X39401Y29723D01*
X41139Y29723D02*
X44475Y29723D01*
X0525Y29772D02*
X10301Y29772D01*
X17699Y29772D02*
X25457Y29772D01*
X27003Y29772D02*
X27997Y29772D01*
X29543Y29772D02*
X31828Y29772D01*
X33022Y29772D02*
X34978Y29772D01*
X36172Y29772D02*
X37224Y29772D01*
X37675Y29772D02*
X37785Y29772D01*
X38236Y29772D02*
X39386Y29772D01*
X41154Y29772D02*
X44475Y29772D01*
X0525Y29822D02*
X10295Y29822D01*
X17705Y29822D02*
X25513Y29822D01*
X26947Y29822D02*
X28053Y29822D01*
X29487Y29822D02*
X31828Y29822D01*
X33022Y29822D02*
X34978Y29822D01*
X36172Y29822D02*
X37168Y29822D01*
X38292Y29822D02*
X39384Y29822D01*
X41156Y29822D02*
X44475Y29822D01*
X0525Y29871D02*
X10289Y29871D01*
X17711Y29871D02*
X25588Y29871D01*
X26175Y29871D02*
X26285Y29871D01*
X26872Y29871D02*
X28128Y29871D01*
X28715Y29871D02*
X28825Y29871D01*
X29412Y29871D02*
X31828Y29871D01*
X33022Y29871D02*
X34978Y29871D01*
X36172Y29871D02*
X37112Y29871D01*
X38348Y29871D02*
X39384Y29871D01*
X41156Y29871D02*
X44475Y29871D01*
X0525Y29921D02*
X10283Y29921D01*
X17717Y29921D02*
X25682Y29921D01*
X26175Y29921D02*
X26285Y29921D01*
X26778Y29921D02*
X28222Y29921D01*
X28715Y29921D02*
X28825Y29921D01*
X29318Y29921D02*
X31828Y29921D01*
X33022Y29921D02*
X34978Y29921D01*
X36172Y29921D02*
X37060Y29921D01*
X38400Y29921D02*
X39384Y29921D01*
X41156Y29921D02*
X44475Y29921D01*
X0525Y29970D02*
X10277Y29970D01*
X17723Y29970D02*
X25777Y29970D01*
X26175Y29970D02*
X26285Y29970D01*
X26683Y29970D02*
X28317Y29970D01*
X28715Y29970D02*
X28825Y29970D01*
X29223Y29970D02*
X31828Y29970D01*
X33022Y29970D02*
X34978Y29970D01*
X36172Y29970D02*
X37026Y29970D01*
X38434Y29970D02*
X39384Y29970D01*
X41156Y29970D02*
X44475Y29970D01*
X0525Y30020D02*
X10276Y30020D01*
X17724Y30020D02*
X25951Y30020D01*
X26175Y30020D02*
X26285Y30020D01*
X26509Y30020D02*
X28491Y30020D01*
X28715Y30020D02*
X28825Y30020D01*
X29049Y30020D02*
X31828Y30020D01*
X33022Y30020D02*
X34978Y30020D01*
X36172Y30020D02*
X36992Y30020D01*
X38468Y30020D02*
X39384Y30020D01*
X41156Y30020D02*
X44475Y30020D01*
X0525Y30069D02*
X10282Y30069D01*
X17718Y30069D02*
X31828Y30069D01*
X33022Y30069D02*
X34978Y30069D01*
X36172Y30069D02*
X36958Y30069D01*
X38502Y30069D02*
X39384Y30069D01*
X41156Y30069D02*
X44475Y30069D01*
X0525Y30119D02*
X10288Y30119D01*
X17712Y30119D02*
X31824Y30119D01*
X33022Y30119D02*
X34978Y30119D01*
X36176Y30119D02*
X36933Y30119D01*
X38527Y30119D02*
X39384Y30119D01*
X41156Y30119D02*
X44475Y30119D01*
X0525Y30168D02*
X10294Y30168D01*
X17706Y30168D02*
X31774Y30168D01*
X33032Y30168D02*
X34968Y30168D01*
X36226Y30168D02*
X36914Y30168D01*
X38546Y30168D02*
X39384Y30168D01*
X41156Y30168D02*
X44475Y30168D01*
X0525Y30218D02*
X10300Y30218D01*
X17740Y30218D02*
X25091Y30218D01*
X27369Y30218D02*
X28499Y30218D01*
X29041Y30218D02*
X31725Y30218D01*
X33058Y30218D02*
X34942Y30218D01*
X36275Y30218D02*
X36896Y30218D01*
X38564Y30218D02*
X39384Y30218D01*
X41156Y30218D02*
X44475Y30218D01*
X0525Y30268D02*
X10306Y30268D01*
X17790Y30268D02*
X25047Y30268D01*
X27413Y30268D02*
X28321Y30268D01*
X29219Y30268D02*
X31675Y30268D01*
X33077Y30268D02*
X34923Y30268D01*
X36325Y30268D02*
X36877Y30268D01*
X38583Y30268D02*
X39384Y30268D01*
X41156Y30268D02*
X44475Y30268D01*
X0525Y30317D02*
X10320Y30317D01*
X17839Y30317D02*
X25025Y30317D01*
X27435Y30317D02*
X28226Y30317D01*
X29314Y30317D02*
X31626Y30317D01*
X33092Y30317D02*
X34908Y30317D01*
X36374Y30317D02*
X36866Y30317D01*
X38594Y30317D02*
X39384Y30317D01*
X41156Y30317D02*
X44475Y30317D01*
X0525Y30367D02*
X10339Y30367D01*
X17889Y30367D02*
X25019Y30367D01*
X27441Y30367D02*
X28132Y30367D01*
X29408Y30367D02*
X31576Y30367D01*
X33106Y30367D02*
X34894Y30367D01*
X36424Y30367D02*
X36860Y30367D01*
X38600Y30367D02*
X39384Y30367D01*
X41156Y30367D02*
X44475Y30367D01*
X0525Y30416D02*
X10358Y30416D01*
X17938Y30416D02*
X25019Y30416D01*
X27441Y30416D02*
X28056Y30416D01*
X29484Y30416D02*
X31527Y30416D01*
X33111Y30416D02*
X34889Y30416D01*
X36473Y30416D02*
X36854Y30416D01*
X38606Y30416D02*
X39372Y30416D01*
X41156Y30416D02*
X44475Y30416D01*
X0525Y30466D02*
X10377Y30466D01*
X17988Y30466D02*
X25019Y30466D01*
X27441Y30466D02*
X28000Y30466D01*
X29540Y30466D02*
X31477Y30466D01*
X33116Y30466D02*
X34884Y30466D01*
X36523Y30466D02*
X37045Y30466D01*
X38415Y30466D02*
X39322Y30466D01*
X41156Y30466D02*
X44475Y30466D01*
X0525Y30515D02*
X10396Y30515D01*
X18037Y30515D02*
X25019Y30515D01*
X27441Y30515D02*
X27944Y30515D01*
X29596Y30515D02*
X31428Y30515D01*
X33118Y30515D02*
X34882Y30515D01*
X36572Y30515D02*
X37045Y30515D01*
X38415Y30515D02*
X39273Y30515D01*
X41156Y30515D02*
X44475Y30515D01*
X0525Y30565D02*
X10418Y30565D01*
X18087Y30565D02*
X25019Y30565D01*
X27441Y30565D02*
X27888Y30565D01*
X29652Y30565D02*
X31378Y30565D01*
X33113Y30565D02*
X34887Y30565D01*
X36622Y30565D02*
X36858Y30565D01*
X38602Y30565D02*
X39223Y30565D01*
X41156Y30565D02*
X44475Y30565D01*
X0525Y30614D02*
X10453Y30614D01*
X18136Y30614D02*
X25019Y30614D01*
X27441Y30614D02*
X27844Y30614D01*
X29696Y30614D02*
X31329Y30614D01*
X33108Y30614D02*
X34892Y30614D01*
X36671Y30614D02*
X36857Y30614D01*
X38603Y30614D02*
X39174Y30614D01*
X41156Y30614D02*
X44475Y30614D01*
X0525Y30664D02*
X10487Y30664D01*
X18186Y30664D02*
X25019Y30664D01*
X27441Y30664D02*
X27810Y30664D01*
X29730Y30664D02*
X31279Y30664D01*
X33098Y30664D02*
X34902Y30664D01*
X36721Y30664D02*
X36863Y30664D01*
X38597Y30664D02*
X39124Y30664D01*
X41156Y30664D02*
X44475Y30664D01*
X0525Y30713D02*
X10521Y30713D01*
X12399Y30713D02*
X12814Y30713D01*
X15186Y30713D02*
X15601Y30713D01*
X33083Y30713D02*
X34917Y30713D01*
X36770Y30713D02*
X36869Y30713D01*
X38590Y30713D02*
X39075Y30713D01*
X41156Y30713D02*
X44475Y30713D01*
X0525Y30763D02*
X10555Y30763D01*
X12365Y30763D02*
X12814Y30763D01*
X15186Y30763D02*
X15635Y30763D01*
X33068Y30763D02*
X34932Y30763D01*
X36820Y30763D02*
X36833Y30763D01*
X38572Y30763D02*
X39025Y30763D01*
X41156Y30763D02*
X44475Y30763D01*
X0525Y30812D02*
X10601Y30812D01*
X12319Y30812D02*
X12814Y30812D01*
X15186Y30812D02*
X15681Y30812D01*
X33042Y30812D02*
X34958Y30812D01*
X38553Y30812D02*
X38976Y30812D01*
X41156Y30812D02*
X44475Y30812D01*
X0525Y30862D02*
X10657Y30862D01*
X12263Y30862D02*
X12814Y30862D01*
X15186Y30862D02*
X15737Y30862D01*
X33022Y30862D02*
X34978Y30862D01*
X38534Y30862D02*
X38926Y30862D01*
X41156Y30862D02*
X44475Y30862D01*
X0525Y30911D02*
X10712Y30911D01*
X12208Y30911D02*
X12814Y30911D01*
X15186Y30911D02*
X15792Y30911D01*
X33022Y30911D02*
X34978Y30911D01*
X38515Y30911D02*
X38877Y30911D01*
X41156Y30911D02*
X44475Y30911D01*
X0525Y30961D02*
X10768Y30961D01*
X12152Y30961D02*
X12814Y30961D01*
X15186Y30961D02*
X15848Y30961D01*
X33022Y30961D02*
X34978Y30961D01*
X38481Y30961D02*
X38827Y30961D01*
X41156Y30961D02*
X44475Y30961D01*
X0525Y31010D02*
X10851Y31010D01*
X12069Y31010D02*
X12814Y31010D01*
X15186Y31010D02*
X15931Y31010D01*
X33022Y31010D02*
X34978Y31010D01*
X38447Y31010D02*
X38777Y31010D01*
X41156Y31010D02*
X44475Y31010D01*
X0525Y31060D02*
X10945Y31060D01*
X11975Y31060D02*
X12824Y31060D01*
X15176Y31060D02*
X16025Y31060D01*
X33022Y31060D02*
X34978Y31060D01*
X38413Y31060D02*
X38728Y31060D01*
X41156Y31060D02*
X44475Y31060D01*
X0525Y31110D02*
X11040Y31110D01*
X11880Y31110D02*
X12849Y31110D01*
X15151Y31110D02*
X16120Y31110D01*
X33022Y31110D02*
X34978Y31110D01*
X38369Y31110D02*
X38678Y31110D01*
X41156Y31110D02*
X44475Y31110D01*
X0525Y31159D02*
X11240Y31159D01*
X11680Y31159D02*
X12904Y31159D01*
X15096Y31159D02*
X16320Y31159D01*
X33022Y31159D02*
X34978Y31159D01*
X38313Y31159D02*
X38629Y31159D01*
X41156Y31159D02*
X44475Y31159D01*
X0525Y31209D02*
X16767Y31209D01*
X33022Y31209D02*
X34978Y31209D01*
X37675Y31209D02*
X37785Y31209D01*
X38257Y31209D02*
X38579Y31209D01*
X41156Y31209D02*
X44475Y31209D01*
X0525Y31258D02*
X16816Y31258D01*
X33022Y31258D02*
X34978Y31258D01*
X37675Y31258D02*
X37785Y31258D01*
X38179Y31258D02*
X38530Y31258D01*
X41147Y31258D02*
X44475Y31258D01*
X0525Y31308D02*
X16866Y31308D01*
X33022Y31308D02*
X34978Y31308D01*
X37675Y31308D02*
X37785Y31308D01*
X38085Y31308D02*
X38480Y31308D01*
X41122Y31308D02*
X44475Y31308D01*
X0525Y31357D02*
X16915Y31357D01*
X33020Y31357D02*
X34980Y31357D01*
X37474Y31357D02*
X37530Y31357D01*
X37675Y31357D02*
X37785Y31357D01*
X37930Y31357D02*
X38431Y31357D01*
X41069Y31357D02*
X44475Y31357D01*
X0525Y31407D02*
X16965Y31407D01*
X33007Y31407D02*
X34993Y31407D01*
X37464Y31407D02*
X38381Y31407D01*
X40345Y31407D02*
X44475Y31407D01*
X0525Y31456D02*
X17014Y31456D01*
X32977Y31456D02*
X35023Y31456D01*
X37513Y31456D02*
X38332Y31456D01*
X40296Y31456D02*
X44475Y31456D01*
X0525Y31506D02*
X17064Y31506D01*
X32910Y31506D02*
X35090Y31506D01*
X37563Y31506D02*
X38282Y31506D01*
X40246Y31506D02*
X44475Y31506D01*
X0525Y31555D02*
X17113Y31555D01*
X32352Y31555D02*
X35648Y31555D01*
X37612Y31555D02*
X38233Y31555D01*
X40197Y31555D02*
X44475Y31555D01*
X0525Y31605D02*
X17163Y31605D01*
X32302Y31605D02*
X35698Y31605D01*
X40147Y31605D02*
X44475Y31605D01*
X0525Y31654D02*
X17212Y31654D01*
X32253Y31654D02*
X35747Y31654D01*
X40098Y31654D02*
X44475Y31654D01*
X0525Y31704D02*
X17262Y31704D01*
X32203Y31704D02*
X35797Y31704D01*
X40048Y31704D02*
X44475Y31704D01*
X0525Y31753D02*
X17311Y31753D01*
X32154Y31753D02*
X35846Y31753D01*
X39999Y31753D02*
X44475Y31753D01*
X0525Y31803D02*
X17361Y31803D01*
X32104Y31803D02*
X35896Y31803D01*
X39949Y31803D02*
X44475Y31803D01*
X0525Y31852D02*
X17410Y31852D01*
X32055Y31852D02*
X35945Y31852D01*
X39900Y31852D02*
X44475Y31852D01*
X0525Y31902D02*
X17464Y31902D01*
X32001Y31902D02*
X35995Y31902D01*
X39850Y31902D02*
X44475Y31902D01*
X0525Y31952D02*
X17525Y31952D01*
X31940Y31952D02*
X36045Y31952D01*
X39800Y31952D02*
X44475Y31952D01*
X0525Y32001D02*
X17607Y32001D01*
X31858Y32001D02*
X36094Y32001D01*
X39751Y32001D02*
X44475Y32001D01*
X0525Y32051D02*
X17727Y32051D01*
X31738Y32051D02*
X36144Y32051D01*
X39701Y32051D02*
X44475Y32051D01*
X0525Y32100D02*
X25019Y32100D01*
X27441Y32100D02*
X27799Y32100D01*
X29741Y32100D02*
X36193Y32100D01*
X39652Y32100D02*
X44475Y32100D01*
X0525Y32150D02*
X25019Y32150D01*
X27441Y32150D02*
X27833Y32150D01*
X29707Y32150D02*
X36243Y32150D01*
X39602Y32150D02*
X44475Y32150D01*
X0525Y32199D02*
X25019Y32199D01*
X27441Y32199D02*
X27870Y32199D01*
X29670Y32199D02*
X36292Y32199D01*
X39553Y32199D02*
X44475Y32199D01*
X0525Y32249D02*
X25019Y32249D01*
X27441Y32249D02*
X27926Y32249D01*
X29614Y32249D02*
X36342Y32249D01*
X39503Y32249D02*
X44475Y32249D01*
X0525Y32298D02*
X25019Y32298D01*
X27441Y32298D02*
X27981Y32298D01*
X29559Y32298D02*
X36391Y32298D01*
X39454Y32298D02*
X44475Y32298D01*
X0525Y32348D02*
X25019Y32348D01*
X27441Y32348D02*
X28037Y32348D01*
X29503Y32348D02*
X36441Y32348D01*
X39404Y32348D02*
X44475Y32348D01*
X0525Y32397D02*
X25019Y32397D01*
X27441Y32397D02*
X28101Y32397D01*
X29439Y32397D02*
X36490Y32397D01*
X39355Y32397D02*
X44475Y32397D01*
X0525Y32447D02*
X25021Y32447D01*
X27439Y32447D02*
X28196Y32447D01*
X29344Y32447D02*
X36540Y32447D01*
X39305Y32447D02*
X44475Y32447D01*
X0525Y32496D02*
X25037Y32496D01*
X27423Y32496D02*
X28290Y32496D01*
X29250Y32496D02*
X36589Y32496D01*
X39256Y32496D02*
X44475Y32496D01*
X0525Y32546D02*
X25072Y32546D01*
X27388Y32546D02*
X28434Y32546D01*
X29106Y32546D02*
X36639Y32546D01*
X39206Y32546D02*
X44475Y32546D01*
X0525Y32595D02*
X25160Y32595D01*
X27300Y32595D02*
X36688Y32595D01*
X39157Y32595D02*
X44475Y32595D01*
X0525Y32645D02*
X36738Y32645D01*
X39107Y32645D02*
X44475Y32645D01*
X0525Y32694D02*
X36787Y32694D01*
X39058Y32694D02*
X44475Y32694D01*
X0525Y32744D02*
X36837Y32744D01*
X39008Y32744D02*
X44475Y32744D01*
X0525Y32794D02*
X36892Y32794D01*
X38953Y32794D02*
X44475Y32794D01*
X0525Y32843D02*
X36952Y32843D01*
X38893Y32843D02*
X44475Y32843D01*
X0525Y32893D02*
X37037Y32893D01*
X38808Y32893D02*
X44475Y32893D01*
X0525Y32942D02*
X37161Y32942D01*
X38684Y32942D02*
X44475Y32942D01*
X0525Y32992D02*
X44475Y32992D01*
X0525Y33041D02*
X44475Y33041D01*
X0525Y33091D02*
X44475Y33091D01*
X0525Y33140D02*
X44475Y33140D01*
X0525Y33190D02*
X44475Y33190D01*
X0525Y33239D02*
X44475Y33239D01*
X0525Y33289D02*
X44475Y33289D01*
X0525Y33338D02*
X44475Y33338D01*
X0525Y33388D02*
X44475Y33388D01*
X0525Y33437D02*
X44475Y33437D01*
X0525Y33487D02*
X44475Y33487D01*
X0525Y33537D02*
X44475Y33537D01*
X0525Y33586D02*
X44475Y33586D01*
X0525Y33636D02*
X44475Y33636D01*
X0525Y33685D02*
X44475Y33685D01*
X0525Y33735D02*
X44475Y33735D01*
X0525Y33784D02*
X44475Y33784D01*
X0525Y33834D02*
X44475Y33834D01*
X0525Y33883D02*
X44475Y33883D01*
X0525Y33933D02*
X44475Y33933D01*
X0525Y33982D02*
X44475Y33982D01*
X0525Y34032D02*
X44475Y34032D01*
X0525Y34081D02*
X44475Y34081D01*
X0525Y34131D02*
X44475Y34131D01*
X0525Y34180D02*
X44475Y34180D01*
X0525Y34230D02*
X44475Y34230D01*
X0525Y34279D02*
X44475Y34279D01*
X0525Y34329D02*
X44475Y34329D01*
X0525Y34379D02*
X44475Y34379D01*
X0525Y34428D02*
X44475Y34428D01*
X0525Y34478D02*
X44475Y34478D01*
X0525Y34527D02*
X44475Y34527D01*
X0525Y34577D02*
X44475Y34577D01*
X0525Y34626D02*
X44475Y34626D01*
X0525Y34676D02*
X44475Y34676D01*
X0525Y34725D02*
X44475Y34725D01*
X0525Y34775D02*
X44475Y34775D01*
X0525Y34824D02*
X44475Y34824D01*
X0525Y34874D02*
X44475Y34874D01*
X0525Y34923D02*
X44475Y34923D01*
X0525Y34973D02*
X44475Y34973D01*
X0525Y35022D02*
X44475Y35022D01*
X0525Y35072D02*
X44475Y35072D01*
X0525Y35121D02*
X44475Y35121D01*
X0525Y35171D02*
X44475Y35171D01*
X0525Y35221D02*
X44475Y35221D01*
X0525Y35270D02*
X44475Y35270D01*
X0525Y35320D02*
X44475Y35320D01*
X0525Y35369D02*
X44475Y35369D01*
X0525Y35419D02*
X44475Y35419D01*
X0525Y35468D02*
X44475Y35468D01*
X0525Y35518D02*
X44475Y35518D01*
X0525Y35567D02*
X44475Y35567D01*
X0525Y35617D02*
X44475Y35617D01*
X0525Y35666D02*
X44475Y35666D01*
X0525Y35716D02*
X44475Y35716D01*
X0525Y35765D02*
X44475Y35765D01*
X0525Y35815D02*
X44475Y35815D01*
X0525Y35864D02*
X44475Y35864D01*
X0525Y35914D02*
X44475Y35914D01*
X0525Y35963D02*
X44475Y35963D01*
X0525Y36013D02*
X44475Y36013D01*
X0525Y36063D02*
X44475Y36063D01*
X0525Y36112D02*
X44475Y36112D01*
X0525Y36162D02*
X44475Y36162D01*
X0525Y36211D02*
X44475Y36211D01*
X0525Y36261D02*
X44475Y36261D01*
X0525Y36310D02*
X44475Y36310D01*
X0525Y36360D02*
X44475Y36360D01*
X0525Y36409D02*
X44475Y36409D01*
X0525Y36459D02*
X44475Y36459D01*
X0525Y36508D02*
X44475Y36508D01*
X0525Y36558D02*
X44475Y36558D01*
X0525Y36607D02*
X44475Y36607D01*
X0525Y36657D02*
X44475Y36657D01*
X0525Y36706D02*
X44475Y36706D01*
X0525Y36756D02*
X44475Y36756D01*
X0525Y36805D02*
X44475Y36805D01*
X0525Y36855D02*
X44475Y36855D01*
X0525Y36905D02*
X44475Y36905D01*
X0525Y36954D02*
X44475Y36954D01*
X0525Y37004D02*
X44475Y37004D01*
X0525Y37053D02*
X44475Y37053D01*
X0525Y37103D02*
X4652Y37103D01*
X4945Y37103D02*
X5055Y37103D01*
X5348Y37103D02*
X39652Y37103D01*
X39945Y37103D02*
X40055Y37103D01*
X40348Y37103D02*
X44475Y37103D01*
X0525Y37152D02*
X4303Y37152D01*
X4945Y37152D02*
X5055Y37152D01*
X5697Y37152D02*
X39303Y37152D01*
X39945Y37152D02*
X40055Y37152D01*
X40697Y37152D02*
X44475Y37152D01*
X0525Y37202D02*
X4162Y37202D01*
X4945Y37202D02*
X5055Y37202D01*
X5838Y37202D02*
X39162Y37202D01*
X39945Y37202D02*
X40055Y37202D01*
X40838Y37202D02*
X44475Y37202D01*
X0525Y37251D02*
X4020Y37251D01*
X4945Y37251D02*
X5055Y37251D01*
X5980Y37251D02*
X39020Y37251D01*
X39945Y37251D02*
X40055Y37251D01*
X40980Y37251D02*
X44475Y37251D01*
X0525Y37301D02*
X3879Y37301D01*
X6121Y37301D02*
X38879Y37301D01*
X41121Y37301D02*
X44475Y37301D01*
X0525Y37350D02*
X3737Y37350D01*
X6263Y37350D02*
X38737Y37350D01*
X41263Y37350D02*
X44475Y37350D01*
X0525Y37400D02*
X3653Y37400D01*
X6347Y37400D02*
X38653Y37400D01*
X41347Y37400D02*
X44475Y37400D01*
X0525Y37449D02*
X3574Y37449D01*
X6426Y37449D02*
X38574Y37449D01*
X41426Y37449D02*
X44475Y37449D01*
X0525Y37499D02*
X3496Y37499D01*
X6504Y37499D02*
X38496Y37499D01*
X41504Y37499D02*
X44475Y37499D01*
X0525Y37548D02*
X3417Y37548D01*
X6583Y37548D02*
X38417Y37548D01*
X41583Y37548D02*
X44475Y37548D01*
X0525Y37598D02*
X3338Y37598D01*
X6662Y37598D02*
X38338Y37598D01*
X41662Y37598D02*
X44475Y37598D01*
X0525Y37648D02*
X3259Y37648D01*
X6741Y37648D02*
X38259Y37648D01*
X41741Y37648D02*
X44475Y37648D01*
X0525Y37697D02*
X3180Y37697D01*
X6820Y37697D02*
X38180Y37697D01*
X41820Y37697D02*
X44475Y37697D01*
X0525Y37747D02*
X3127Y37747D01*
X6873Y37747D02*
X38127Y37747D01*
X41873Y37747D02*
X44475Y37747D01*
X0525Y37796D02*
X3077Y37796D01*
X6923Y37796D02*
X38077Y37796D01*
X41923Y37796D02*
X44475Y37796D01*
X0525Y37846D02*
X3028Y37846D01*
X6972Y37846D02*
X38028Y37846D01*
X41972Y37846D02*
X44475Y37846D01*
X0525Y37895D02*
X2978Y37895D01*
X7022Y37895D02*
X37978Y37895D01*
X42022Y37895D02*
X44475Y37895D01*
X0525Y37945D02*
X2929Y37945D01*
X7071Y37945D02*
X37929Y37945D01*
X42071Y37945D02*
X44475Y37945D01*
X0525Y37994D02*
X2879Y37994D01*
X7121Y37994D02*
X37879Y37994D01*
X42121Y37994D02*
X44475Y37994D01*
X0525Y38044D02*
X2829Y38044D01*
X7171Y38044D02*
X37829Y38044D01*
X42171Y38044D02*
X44475Y38044D01*
X0525Y38093D02*
X2780Y38093D01*
X7220Y38093D02*
X37780Y38093D01*
X42220Y38093D02*
X44475Y38093D01*
X0525Y38143D02*
X2730Y38143D01*
X7270Y38143D02*
X37730Y38143D01*
X42270Y38143D02*
X44475Y38143D01*
X0525Y38192D02*
X2689Y38192D01*
X7311Y38192D02*
X37689Y38192D01*
X42311Y38192D02*
X44475Y38192D01*
X0525Y38242D02*
X2658Y38242D01*
X7342Y38242D02*
X37658Y38242D01*
X42342Y38242D02*
X44475Y38242D01*
X0525Y38291D02*
X2627Y38291D01*
X7373Y38291D02*
X37627Y38291D01*
X42373Y38291D02*
X44475Y38291D01*
X0525Y38341D02*
X2596Y38341D01*
X7404Y38341D02*
X37596Y38341D01*
X42404Y38341D02*
X44475Y38341D01*
X0525Y38390D02*
X2565Y38390D01*
X7435Y38390D02*
X37565Y38390D01*
X42435Y38390D02*
X44475Y38390D01*
X0525Y38440D02*
X2534Y38440D01*
X7466Y38440D02*
X37534Y38440D01*
X42466Y38440D02*
X44475Y38440D01*
X0525Y38490D02*
X2503Y38490D01*
X7497Y38490D02*
X37503Y38490D01*
X42497Y38490D02*
X44475Y38490D01*
X0525Y38539D02*
X2472Y38539D01*
X7528Y38539D02*
X37472Y38539D01*
X42528Y38539D02*
X44475Y38539D01*
X0525Y38589D02*
X2441Y38589D01*
X7559Y38589D02*
X37441Y38589D01*
X42559Y38589D02*
X44475Y38589D01*
X0525Y38638D02*
X2409Y38638D01*
X7591Y38638D02*
X37409Y38638D01*
X42591Y38638D02*
X44475Y38638D01*
X0525Y38688D02*
X2378Y38688D01*
X7622Y38688D02*
X37378Y38688D01*
X42622Y38688D02*
X44475Y38688D01*
X0525Y38737D02*
X2350Y38737D01*
X7650Y38737D02*
X37350Y38737D01*
X42650Y38737D02*
X44475Y38737D01*
X0525Y38787D02*
X2333Y38787D01*
X7667Y38787D02*
X37333Y38787D01*
X42667Y38787D02*
X44475Y38787D01*
X0525Y38836D02*
X2316Y38836D01*
X7684Y38836D02*
X37316Y38836D01*
X42684Y38836D02*
X44475Y38836D01*
X0525Y38886D02*
X2298Y38886D01*
X7702Y38886D02*
X37298Y38886D01*
X42702Y38886D02*
X44475Y38886D01*
X0525Y38935D02*
X2281Y38935D01*
X7719Y38935D02*
X37281Y38935D01*
X42719Y38935D02*
X44475Y38935D01*
X0525Y38985D02*
X2264Y38985D01*
X7736Y38985D02*
X37264Y38985D01*
X42736Y38985D02*
X44475Y38985D01*
X0525Y39034D02*
X2246Y39034D01*
X7754Y39034D02*
X37246Y39034D01*
X42754Y39034D02*
X44475Y39034D01*
X0525Y39084D02*
X2229Y39084D01*
X7771Y39084D02*
X37229Y39084D01*
X42771Y39084D02*
X44475Y39084D01*
X0525Y39133D02*
X2212Y39133D01*
X7788Y39133D02*
X37212Y39133D01*
X42788Y39133D02*
X44475Y39133D01*
X0525Y39183D02*
X2194Y39183D01*
X7806Y39183D02*
X37194Y39183D01*
X42806Y39183D02*
X44475Y39183D01*
X0525Y39232D02*
X2177Y39232D01*
X7823Y39232D02*
X37177Y39232D01*
X42823Y39232D02*
X44475Y39232D01*
X0525Y39282D02*
X2160Y39282D01*
X7840Y39282D02*
X37160Y39282D01*
X42840Y39282D02*
X44475Y39282D01*
X0525Y39332D02*
X2142Y39332D01*
X7858Y39332D02*
X37142Y39332D01*
X42858Y39332D02*
X44475Y39332D01*
X0525Y39381D02*
X2133Y39381D01*
X7867Y39381D02*
X37133Y39381D01*
X42867Y39381D02*
X44475Y39381D01*
X0525Y39431D02*
X2128Y39431D01*
X7872Y39431D02*
X37128Y39431D01*
X42872Y39431D02*
X44475Y39431D01*
X0525Y39480D02*
X2122Y39480D01*
X7878Y39480D02*
X37122Y39480D01*
X42878Y39480D02*
X44475Y39480D01*
X0525Y39530D02*
X2116Y39530D01*
X7884Y39530D02*
X37116Y39530D01*
X42884Y39530D02*
X44475Y39530D01*
X0525Y39579D02*
X2111Y39579D01*
X7889Y39579D02*
X37111Y39579D01*
X42889Y39579D02*
X44475Y39579D01*
X0525Y39629D02*
X2105Y39629D01*
X7895Y39629D02*
X37105Y39629D01*
X42895Y39629D02*
X44475Y39629D01*
X0525Y39678D02*
X2100Y39678D01*
X7900Y39678D02*
X37100Y39678D01*
X42900Y39678D02*
X44475Y39678D01*
X0525Y39728D02*
X2094Y39728D01*
X7906Y39728D02*
X37094Y39728D01*
X42906Y39728D02*
X44475Y39728D01*
X0525Y39777D02*
X2089Y39777D01*
X7911Y39777D02*
X37089Y39777D01*
X42911Y39777D02*
X44475Y39777D01*
X0525Y39827D02*
X2083Y39827D01*
X7917Y39827D02*
X37083Y39827D01*
X42917Y39827D02*
X44475Y39827D01*
X0525Y39876D02*
X2077Y39876D01*
X7923Y39876D02*
X37077Y39876D01*
X42923Y39876D02*
X44475Y39876D01*
X0525Y39926D02*
X2072Y39926D01*
X7928Y39926D02*
X37072Y39926D01*
X42928Y39926D02*
X44475Y39926D01*
X0525Y39975D02*
X2265Y39975D01*
X7735Y39975D02*
X37265Y39975D01*
X42735Y39975D02*
X44475Y39975D01*
X0525Y40025D02*
X2265Y40025D01*
X7735Y40025D02*
X37265Y40025D01*
X42735Y40025D02*
X44475Y40025D01*
X0525Y40074D02*
X2072Y40074D01*
X7928Y40074D02*
X37072Y40074D01*
X42928Y40074D02*
X44475Y40074D01*
X0525Y40124D02*
X2077Y40124D01*
X7923Y40124D02*
X37077Y40124D01*
X42923Y40124D02*
X44475Y40124D01*
X0525Y40174D02*
X2083Y40174D01*
X7917Y40174D02*
X37083Y40174D01*
X42917Y40174D02*
X44475Y40174D01*
X0525Y40223D02*
X2089Y40223D01*
X7911Y40223D02*
X37089Y40223D01*
X42911Y40223D02*
X44475Y40223D01*
X0525Y40273D02*
X2094Y40273D01*
X7906Y40273D02*
X37094Y40273D01*
X42906Y40273D02*
X44475Y40273D01*
X0525Y40322D02*
X2100Y40322D01*
X7900Y40322D02*
X37100Y40322D01*
X42900Y40322D02*
X44475Y40322D01*
X0525Y40372D02*
X2105Y40372D01*
X7895Y40372D02*
X37105Y40372D01*
X42895Y40372D02*
X44475Y40372D01*
X0525Y40421D02*
X2111Y40421D01*
X7889Y40421D02*
X37111Y40421D01*
X42889Y40421D02*
X44475Y40421D01*
X0525Y40471D02*
X2116Y40471D01*
X7884Y40471D02*
X37116Y40471D01*
X42884Y40471D02*
X44475Y40471D01*
X0525Y40520D02*
X2122Y40520D01*
X7878Y40520D02*
X37122Y40520D01*
X42878Y40520D02*
X44475Y40520D01*
X0525Y40570D02*
X2128Y40570D01*
X7872Y40570D02*
X37128Y40570D01*
X42872Y40570D02*
X44475Y40570D01*
X0525Y40619D02*
X2133Y40619D01*
X7867Y40619D02*
X37133Y40619D01*
X42867Y40619D02*
X44475Y40619D01*
X0525Y40669D02*
X2142Y40669D01*
X7858Y40669D02*
X37142Y40669D01*
X42858Y40669D02*
X44475Y40669D01*
X0525Y40718D02*
X2160Y40718D01*
X7840Y40718D02*
X37160Y40718D01*
X42840Y40718D02*
X44475Y40718D01*
X0525Y40768D02*
X2177Y40768D01*
X7823Y40768D02*
X37177Y40768D01*
X42823Y40768D02*
X44475Y40768D01*
X0525Y40817D02*
X2194Y40817D01*
X7806Y40817D02*
X37194Y40817D01*
X42806Y40817D02*
X44475Y40817D01*
X0525Y40867D02*
X2212Y40867D01*
X7788Y40867D02*
X37212Y40867D01*
X42788Y40867D02*
X44475Y40867D01*
X0525Y40916D02*
X2229Y40916D01*
X7771Y40916D02*
X37229Y40916D01*
X42771Y40916D02*
X44475Y40916D01*
X0525Y40966D02*
X2246Y40966D01*
X7754Y40966D02*
X37246Y40966D01*
X42754Y40966D02*
X44475Y40966D01*
X0525Y41016D02*
X2264Y41016D01*
X7736Y41016D02*
X37264Y41016D01*
X42736Y41016D02*
X44475Y41016D01*
X0525Y41065D02*
X2281Y41065D01*
X7719Y41065D02*
X37281Y41065D01*
X42719Y41065D02*
X44475Y41065D01*
X0525Y41115D02*
X2298Y41115D01*
X7702Y41115D02*
X37298Y41115D01*
X42702Y41115D02*
X44475Y41115D01*
X0525Y41164D02*
X2316Y41164D01*
X7684Y41164D02*
X37316Y41164D01*
X42684Y41164D02*
X44475Y41164D01*
X0525Y41214D02*
X2333Y41214D01*
X7667Y41214D02*
X37333Y41214D01*
X42667Y41214D02*
X44475Y41214D01*
X0525Y41263D02*
X2350Y41263D01*
X7650Y41263D02*
X37350Y41263D01*
X42650Y41263D02*
X44475Y41263D01*
X0525Y41313D02*
X2379Y41313D01*
X7621Y41313D02*
X37379Y41313D01*
X42621Y41313D02*
X44475Y41313D01*
X0525Y41362D02*
X2410Y41362D01*
X7590Y41362D02*
X37410Y41362D01*
X42590Y41362D02*
X44475Y41362D01*
X0525Y41412D02*
X2441Y41412D01*
X7559Y41412D02*
X37441Y41412D01*
X42559Y41412D02*
X44475Y41412D01*
X0525Y41461D02*
X2472Y41461D01*
X7528Y41461D02*
X37472Y41461D01*
X42528Y41461D02*
X44475Y41461D01*
X0525Y41511D02*
X2503Y41511D01*
X7497Y41511D02*
X37503Y41511D01*
X42497Y41511D02*
X44475Y41511D01*
X0525Y41560D02*
X2534Y41560D01*
X7466Y41560D02*
X37534Y41560D01*
X42466Y41560D02*
X44475Y41560D01*
X0525Y41610D02*
X2565Y41610D01*
X7435Y41610D02*
X37565Y41610D01*
X42435Y41610D02*
X44475Y41610D01*
X0525Y41659D02*
X2596Y41659D01*
X7404Y41659D02*
X37596Y41659D01*
X42404Y41659D02*
X44475Y41659D01*
X0525Y41709D02*
X2627Y41709D01*
X7373Y41709D02*
X37627Y41709D01*
X42373Y41709D02*
X44475Y41709D01*
X0525Y41758D02*
X2659Y41758D01*
X7341Y41758D02*
X37659Y41758D01*
X42341Y41758D02*
X44475Y41758D01*
X0525Y41808D02*
X2690Y41808D01*
X7310Y41808D02*
X37690Y41808D01*
X42310Y41808D02*
X44475Y41808D01*
X0525Y41858D02*
X2731Y41858D01*
X7269Y41858D02*
X37731Y41858D01*
X42269Y41858D02*
X44475Y41858D01*
X0525Y41907D02*
X2780Y41907D01*
X7220Y41907D02*
X37780Y41907D01*
X42220Y41907D02*
X44475Y41907D01*
X0525Y41957D02*
X2830Y41957D01*
X7170Y41957D02*
X37830Y41957D01*
X42170Y41957D02*
X44475Y41957D01*
X0525Y42006D02*
X2879Y42006D01*
X7121Y42006D02*
X37879Y42006D01*
X42121Y42006D02*
X44475Y42006D01*
X0525Y42056D02*
X2929Y42056D01*
X7071Y42056D02*
X37929Y42056D01*
X42071Y42056D02*
X44475Y42056D01*
X0525Y42105D02*
X2978Y42105D01*
X7022Y42105D02*
X37978Y42105D01*
X42022Y42105D02*
X44475Y42105D01*
X0525Y42155D02*
X3028Y42155D01*
X6972Y42155D02*
X38028Y42155D01*
X41972Y42155D02*
X44475Y42155D01*
X0525Y42204D02*
X3077Y42204D01*
X6923Y42204D02*
X38077Y42204D01*
X41923Y42204D02*
X44475Y42204D01*
X0525Y42254D02*
X3127Y42254D01*
X6873Y42254D02*
X38127Y42254D01*
X41873Y42254D02*
X44475Y42254D01*
X0525Y42303D02*
X3181Y42303D01*
X6819Y42303D02*
X38181Y42303D01*
X41819Y42303D02*
X44475Y42303D01*
X0525Y42353D02*
X3260Y42353D01*
X6740Y42353D02*
X38260Y42353D01*
X41740Y42353D02*
X44475Y42353D01*
X0525Y42402D02*
X3339Y42402D01*
X6661Y42402D02*
X38339Y42402D01*
X41661Y42402D02*
X44475Y42402D01*
X0525Y42452D02*
X3417Y42452D01*
X6583Y42452D02*
X38417Y42452D01*
X41583Y42452D02*
X44475Y42452D01*
X0525Y42501D02*
X3496Y42501D01*
X6504Y42501D02*
X38496Y42501D01*
X41504Y42501D02*
X44475Y42501D01*
X0525Y42551D02*
X3575Y42551D01*
X6425Y42551D02*
X38575Y42551D01*
X41425Y42551D02*
X44475Y42551D01*
X0525Y42600D02*
X3654Y42600D01*
X6346Y42600D02*
X38654Y42600D01*
X41346Y42600D02*
X44475Y42600D01*
X0525Y42650D02*
X3738Y42650D01*
X6262Y42650D02*
X38738Y42650D01*
X41262Y42650D02*
X44475Y42650D01*
X0525Y42700D02*
X3880Y42700D01*
X6120Y42700D02*
X38880Y42700D01*
X41120Y42700D02*
X44475Y42700D01*
X0525Y42749D02*
X4021Y42749D01*
X4945Y42749D02*
X5055Y42749D01*
X5979Y42749D02*
X39021Y42749D01*
X39945Y42749D02*
X40055Y42749D01*
X40979Y42749D02*
X44475Y42749D01*
X0525Y42799D02*
X4163Y42799D01*
X4945Y42799D02*
X5055Y42799D01*
X5837Y42799D02*
X39163Y42799D01*
X39945Y42799D02*
X40055Y42799D01*
X40837Y42799D02*
X44475Y42799D01*
X0525Y42848D02*
X4304Y42848D01*
X4945Y42848D02*
X5055Y42848D01*
X5696Y42848D02*
X39304Y42848D01*
X39945Y42848D02*
X40055Y42848D01*
X40696Y42848D02*
X44475Y42848D01*
X0525Y42898D02*
X4655Y42898D01*
X4945Y42898D02*
X5055Y42898D01*
X5345Y42898D02*
X39655Y42898D01*
X39945Y42898D02*
X40055Y42898D01*
X40345Y42898D02*
X44475Y42898D01*
X0525Y42947D02*
X44475Y42947D01*
X0525Y42997D02*
X44475Y42997D01*
X0525Y43046D02*
X44475Y43046D01*
X0525Y43096D02*
X44475Y43096D01*
X0525Y43145D02*
X44475Y43145D01*
X0525Y43195D02*
X44475Y43195D01*
X0525Y43244D02*
X44475Y43244D01*
X0525Y43294D02*
X44475Y43294D01*
X0525Y43343D02*
X44475Y43343D01*
X0525Y43393D02*
X44475Y43393D01*
X0525Y43443D02*
X44475Y43443D01*
X0525Y43492D02*
X44475Y43492D01*
X0525Y43542D02*
X44475Y43542D01*
X0525Y43591D02*
X44475Y43591D01*
X0525Y43641D02*
X44475Y43641D01*
X0525Y43690D02*
X44475Y43690D01*
X0525Y43740D02*
X44475Y43740D01*
X0525Y43789D02*
X44475Y43789D01*
X0525Y43839D02*
X44475Y43839D01*
X0525Y43888D02*
X44475Y43888D01*
X0525Y43938D02*
X44475Y43938D01*
X0525Y43987D02*
X44475Y43987D01*
X0525Y44037D02*
X44475Y44037D01*
X0525Y44086D02*
X44475Y44086D01*
X0525Y44136D02*
X44475Y44136D01*
X0525Y44185D02*
X44475Y44185D01*
X0525Y44235D02*
X44475Y44235D01*
X0525Y44285D02*
X44475Y44285D01*
X0525Y44334D02*
X44475Y44334D01*
X0525Y44384D02*
X44475Y44384D01*
X0525Y44433D02*
X44475Y44433D01*
%LNbottom copper_traces*%
D11*
X20230Y18690D02*
X31261Y18690D01*
X17930Y31390D02*
X16540Y30000D01*
X20230Y18690D02*
X16540Y15000D01*
X35575Y14500D02*
X37730Y14500D01*
X31261Y18690D02*
X32425Y17526D01*
X37476Y32278D02*
X38492Y32278D01*
X11460Y30000D02*
X16540Y30000D01*
X31535Y31390D02*
X32425Y30500D01*
X31155Y21230D02*
X32425Y22500D01*
X32425Y17526D02*
X32425Y14500D01*
X11460Y15000D02*
X16540Y15000D01*
X17770Y21230D02*
X31155Y21230D01*
X17770Y21230D02*
X16540Y20000D01*
X40270Y30500D02*
X38492Y32278D01*
X35575Y22500D02*
X37730Y22500D01*
X17930Y31390D02*
X31535Y31390D01*
X16540Y20000D02*
X11460Y20000D01*
X35575Y30500D02*
X37353Y32278D01*
%LNbottom copper component 41c15735770252ef*%
D12*
X26230Y31390D03*
D13*
X26230Y28850D03*
X26230Y26310D03*
X26230Y23770D03*
X26230Y21230D03*
X26230Y18690D03*
X26230Y16150D03*
X26230Y13610D03*
X28770Y31390D03*
X28770Y28850D03*
X28770Y26310D03*
X28770Y23770D03*
X28770Y21230D03*
X28770Y18690D03*
X28770Y16150D03*
X28770Y13610D03*
%LNbottom copper component 8aa19a9a475ab06d*%
D14*
X11460Y25000D03*
X16540Y25000D03*
%LNbottom copper component 42d088f49832dd14*%
D15*
X37730Y30500D03*
D16*
X40270Y30500D03*
%LNbottom copper component f3f5b781052c70a8*%
D17*
X40000Y40000D03*
%LNbottom copper component 066798f312f84cc6*%
D15*
X37730Y22500D03*
D16*
X40270Y22500D03*
%LNbottom copper component 2b46bd6407843b15*%
D18*
X32425Y14500D03*
X35575Y14500D03*
%LNbottom copper component f58287f33a8996b4*%
X32425Y22500D03*
X35575Y22500D03*
%LNbottom copper component 8aa9dbe17b2694dd*%
D19*
X14000Y30000D03*
D14*
X14000Y25000D03*
X14000Y20000D03*
X14000Y15000D03*
%LNbottom copper component b5b3b87ae0d53d4d*%
D17*
X5000Y40000D03*
%LNbottom copper component 0af2d2f02e1cb27f*%
D18*
X32425Y30500D03*
X35575Y30500D03*
%LNbottom copper component 10c16d8175be8e60*%
D17*
X5000Y5000D03*
%LNbottom copper component 6e477e811df8e32e*%
X40000Y5000D03*
%LNbottom copper component 02f0c27996d92107*%
D15*
X37730Y14500D03*
D16*
X40270Y14500D03*
%LNbottom copper component a6d66b3445016952*%
D14*
X11460Y30000D03*
X16540Y30000D03*
%LNbottom copper component eaa60ad4603cc8b7*%
X11460Y20000D03*
X16540Y20000D03*
%LNbottom copper component c63f2cfbf6a36a1e*%
X11460Y15000D03*
X16540Y15000D03*
M02*