%FSLAX33Y33*%
%MOMM*%
%AMRect-W2049999-H2049999-RO0.500*
21,1,2.049999,2.049999,0.,0.,270*%
%AMRect-W1250000-H1250000-RO1.500*
21,1,1.25,1.25,0.,0.,90*%
%AMRect-W400000-H1350000-RO0.500*
21,1,0.4,1.35,0.,0.,270*%
%AMRect-W1600000-H1400000-RO0.500*
21,1,1.6,1.4,0.,0.,270*%
%AMRect-W1450000-H1300000-RO0.500*
21,1,1.45,1.3,0.,0.,270*%
%AMRect-W1900000-H1900000-RO0.500*
21,1,1.9,1.9,0.,0.,270*%
%ADD10C,0.0508*%
%ADD11C,0.508*%
%ADD12C,0.68834*%
%ADD13C,2.049999*%
%ADD14Rect-W2049999-H2049999-RO0.500*%
%ADD15C,1.25*%
%ADD16Rect-W1250000-H1250000-RO1.500*%
%ADD17Rect-W400000-H1350000-RO0.500*%
%ADD18Rect-W1600000-H1400000-RO0.500*%
%ADD19Rect-W1450000-H1300000-RO0.500*%
%ADD20Rect-W1900000-H1900000-RO0.500*%
D10*
%LNpour fill*%
G01*
X41883Y3330D02*
X41883Y3330D01*
X41883Y13670*
X37813Y16383*
X15025Y16383*
X15025Y0617*
X37813Y0617*
X41883Y3330*
X21678Y9956D02*
X21678Y9956D01*
X21921Y10016*
X21924Y10017*
X22146Y10134*
X22149Y10136*
X22336Y10302*
X22338Y10304*
X22480Y10510*
X22482Y10513*
X22570Y10747*
X22571Y10750*
X22601Y10998*
X22601Y11002*
X22592Y11080*
X24332Y12820*
X30149Y12820*
X30149Y12474*
X30149Y12474*
X30154Y12409*
X30154Y12407*
X30169Y12344*
X30170Y12342*
X30195Y12282*
X30196Y12281*
X30229Y12225*
X30231Y12224*
X30273Y12174*
X30274Y12173*
X30324Y12131*
X30325Y12129*
X30381Y12096*
X30382Y12095*
X30442Y12070*
X30444Y12069*
X30507Y12054*
X30509Y12054*
X30574Y12049*
X30574Y12049*
X32626Y12049*
X32627Y12049*
X32691Y12054*
X32693Y12054*
X32756Y12069*
X32758Y12070*
X32818Y12095*
X32819Y12096*
X32875Y12129*
X32876Y12131*
X32926Y12173*
X32927Y12174*
X32969Y12224*
X32971Y12225*
X33004Y12281*
X33005Y12282*
X33030Y12342*
X33031Y12344*
X33046Y12407*
X33046Y12409*
X33051Y12474*
X33051Y12475*
X33051Y14525*
X33051Y14526*
X33046Y14591*
X33046Y14593*
X33031Y14656*
X33030Y14658*
X33005Y14718*
X33004Y14719*
X32971Y14775*
X32969Y14776*
X32927Y14826*
X32926Y14827*
X32876Y14869*
X32875Y14871*
X32819Y14904*
X32818Y14905*
X32758Y14930*
X32756Y14931*
X32693Y14946*
X32691Y14946*
X32626Y14951*
X32625Y14951*
X30575Y14951*
X30574Y14951*
X30509Y14946*
X30507Y14946*
X30444Y14931*
X30442Y14930*
X30382Y14905*
X30381Y14904*
X30325Y14871*
X30324Y14869*
X30274Y14827*
X30273Y14826*
X30231Y14776*
X30229Y14775*
X30196Y14719*
X30195Y14718*
X30170Y14658*
X30169Y14656*
X30154Y14593*
X30154Y14591*
X30149Y14527*
X30149Y14526*
X30149Y14180*
X24049Y14180*
X24048Y14180*
X23918Y14168*
X23916Y14167*
X23791Y14129*
X23788Y14128*
X23673Y14066*
X23671Y14065*
X23570Y13982*
X23569Y13982*
X21632Y12044*
X21425Y12044*
X21422Y12044*
X21179Y11984*
X21176Y11983*
X20954Y11866*
X20951Y11864*
X20764Y11698*
X20762Y11696*
X20620Y11490*
X20618Y11487*
X20530Y11253*
X20529Y11250*
X20499Y11002*
X20499Y10998*
X20529Y10750*
X20530Y10747*
X20618Y10513*
X20620Y10510*
X20762Y10304*
X20764Y10302*
X20951Y10136*
X20954Y10134*
X21176Y10017*
X21179Y10016*
X21422Y9956*
X21425Y9956*
X21675Y9956*
X21678Y9956*
X39316Y9609D02*
X39316Y9609D01*
X39319Y9610*
X39618Y9714*
X39620Y9715*
X39888Y9884*
X39890Y9886*
X40114Y10110*
X40116Y10112*
X40285Y10380*
X40286Y10382*
X40390Y10681*
X40391Y10684*
X40426Y10999*
X40426Y11001*
X40391Y11316*
X40390Y11319*
X40286Y11618*
X40285Y11620*
X40116Y11888*
X40114Y11890*
X39890Y12114*
X39888Y12116*
X39620Y12285*
X39618Y12286*
X39319Y12390*
X39316Y12391*
X39001Y12426*
X38999Y12426*
X38684Y12391*
X38681Y12390*
X38382Y12286*
X38380Y12285*
X38112Y12116*
X38110Y12114*
X37886Y11890*
X37884Y11888*
X37715Y11620*
X37714Y11618*
X37610Y11319*
X37609Y11316*
X37574Y11001*
X37574Y10999*
X37609Y10684*
X37610Y10681*
X37714Y10382*
X37715Y10380*
X37884Y10112*
X37886Y10110*
X38110Y9886*
X38112Y9884*
X38380Y9715*
X38382Y9714*
X38681Y9610*
X38684Y9609*
X38999Y9574*
X39001Y9574*
X39316Y9609*
X16295Y9988D02*
X16295Y9988D01*
X16295Y10454*
X16645Y10454*
X16645Y9988*
X16664Y9973*
X16841Y10016*
X16844Y10017*
X17066Y10134*
X17069Y10136*
X17256Y10302*
X17258Y10304*
X17400Y10510*
X17402Y10513*
X17490Y10747*
X17491Y10750*
X17498Y10808*
X17483Y10825*
X17020Y10825*
X17020Y11175*
X17483Y11175*
X17498Y11192*
X17491Y11250*
X17490Y11253*
X17402Y11487*
X17400Y11490*
X17258Y11696*
X17256Y11698*
X17069Y11864*
X17066Y11866*
X16844Y11983*
X16841Y11984*
X16664Y12027*
X16645Y12012*
X16645Y11546*
X16295Y11546*
X16295Y12012*
X16276Y12027*
X16099Y11984*
X16096Y11983*
X15874Y11866*
X15871Y11864*
X15684Y11698*
X15682Y11696*
X15540Y11490*
X15538Y11487*
X15450Y11253*
X15449Y11250*
X15442Y11192*
X15457Y11175*
X15920Y11175*
X15920Y10825*
X15457Y10825*
X15442Y10808*
X15449Y10750*
X15450Y10747*
X15538Y10513*
X15540Y10510*
X15682Y10304*
X15684Y10302*
X15871Y10136*
X15874Y10134*
X16096Y10017*
X16099Y10016*
X16276Y9973*
X16295Y9988*
X39316Y4609D02*
X39316Y4609D01*
X39319Y4610*
X39618Y4714*
X39620Y4715*
X39888Y4884*
X39890Y4886*
X40114Y5110*
X40116Y5112*
X40285Y5380*
X40286Y5382*
X40390Y5681*
X40391Y5684*
X40426Y5999*
X40426Y6001*
X40391Y6316*
X40390Y6319*
X40286Y6618*
X40285Y6620*
X40116Y6888*
X40114Y6890*
X39890Y7114*
X39888Y7116*
X39620Y7285*
X39618Y7286*
X39319Y7390*
X39316Y7391*
X39001Y7426*
X38999Y7426*
X38684Y7391*
X38681Y7390*
X38382Y7286*
X38380Y7285*
X38112Y7116*
X38110Y7114*
X37886Y6890*
X37884Y6888*
X37715Y6620*
X37714Y6618*
X37610Y6319*
X37609Y6316*
X37574Y6001*
X37574Y5999*
X37609Y5684*
X37610Y5681*
X37714Y5382*
X37715Y5380*
X37884Y5112*
X37886Y5110*
X38110Y4886*
X38112Y4884*
X38380Y4715*
X38382Y4714*
X38681Y4610*
X38684Y4609*
X38999Y4574*
X39001Y4574*
X39316Y4609*
X16598Y1956D02*
X16598Y1956D01*
X16841Y2016*
X16844Y2017*
X17066Y2134*
X17069Y2136*
X17256Y2302*
X17258Y2304*
X17400Y2510*
X17402Y2513*
X17490Y2747*
X17491Y2750*
X17521Y2998*
X17521Y3002*
X17512Y3080*
X19752Y5320*
X28818Y5320*
X30219Y3919*
X30185Y3824*
X30185Y3822*
X30149Y3501*
X30149Y3499*
X30185Y3178*
X30185Y3176*
X30292Y2872*
X30293Y2869*
X30464Y2596*
X30466Y2594*
X30694Y2366*
X30696Y2364*
X30969Y2193*
X30972Y2192*
X31276Y2085*
X31278Y2085*
X31599Y2049*
X31601Y2049*
X31922Y2085*
X31924Y2085*
X32228Y2192*
X32231Y2193*
X32504Y2364*
X32506Y2366*
X32734Y2594*
X32736Y2596*
X32907Y2869*
X32908Y2872*
X33015Y3176*
X33015Y3178*
X33051Y3499*
X33051Y3501*
X33015Y3822*
X33015Y3824*
X32908Y4128*
X32907Y4131*
X32736Y4404*
X32734Y4406*
X32506Y4634*
X32504Y4636*
X32231Y4807*
X32228Y4808*
X31924Y4915*
X31922Y4915*
X31601Y4951*
X31599Y4951*
X31278Y4915*
X31276Y4915*
X31181Y4881*
X29581Y6482*
X29580Y6482*
X29479Y6565*
X29477Y6566*
X29362Y6628*
X29359Y6629*
X29234Y6667*
X29232Y6668*
X29102Y6680*
X29101Y6680*
X19469Y6680*
X19468Y6680*
X19338Y6668*
X19336Y6667*
X19211Y6629*
X19208Y6628*
X19093Y6566*
X19091Y6565*
X18990Y6482*
X18989Y6482*
X16552Y4044*
X16345Y4044*
X16342Y4044*
X16099Y3984*
X16096Y3983*
X15874Y3866*
X15871Y3864*
X15684Y3698*
X15682Y3696*
X15540Y3490*
X15538Y3487*
X15450Y3253*
X15449Y3250*
X15419Y3002*
X15419Y2998*
X15449Y2750*
X15450Y2747*
X15538Y2513*
X15540Y2510*
X15682Y2304*
X15684Y2302*
X15871Y2136*
X15874Y2134*
X16096Y2017*
X16099Y2016*
X16342Y1956*
X16345Y1956*
X16595Y1956*
X16598Y1956*
X21375Y1988D02*
X21375Y1988D01*
X21375Y2454*
X21725Y2454*
X21725Y1988*
X21744Y1973*
X21921Y2016*
X21924Y2017*
X22146Y2134*
X22149Y2136*
X22336Y2302*
X22338Y2304*
X22480Y2510*
X22482Y2513*
X22570Y2747*
X22571Y2750*
X22578Y2808*
X22563Y2825*
X22100Y2825*
X22100Y3175*
X22563Y3175*
X22578Y3192*
X22571Y3250*
X22570Y3253*
X22482Y3487*
X22480Y3490*
X22338Y3696*
X22336Y3698*
X22149Y3864*
X22146Y3866*
X21924Y3983*
X21921Y3984*
X21744Y4027*
X21725Y4012*
X21725Y3546*
X21375Y3546*
X21375Y4012*
X21356Y4027*
X21179Y3984*
X21176Y3983*
X20954Y3866*
X20951Y3864*
X20764Y3698*
X20762Y3696*
X20620Y3490*
X20618Y3487*
X20530Y3253*
X20529Y3250*
X20499Y3002*
X20499Y2998*
X20529Y2750*
X20530Y2747*
X20618Y2513*
X20620Y2510*
X20762Y2304*
X20764Y2302*
X20951Y2136*
X20954Y2134*
X21176Y2017*
X21179Y2016*
X21356Y1973*
X21375Y1988*
X15025Y0641D02*
X37849Y0641D01*
X15025Y0691D02*
X37924Y0691D01*
X15025Y0740D02*
X37998Y0740D01*
X15025Y0790D02*
X38072Y0790D01*
X15025Y0839D02*
X38147Y0839D01*
X15025Y0889D02*
X38221Y0889D01*
X15025Y0938D02*
X38295Y0938D01*
X15025Y0988D02*
X38369Y0988D01*
X15025Y1037D02*
X38444Y1037D01*
X15025Y1087D02*
X38518Y1087D01*
X15025Y1136D02*
X38592Y1136D01*
X15025Y1186D02*
X38667Y1186D01*
X15025Y1235D02*
X38741Y1235D01*
X15025Y1285D02*
X38815Y1285D01*
X15025Y1334D02*
X38890Y1334D01*
X15025Y1384D02*
X38964Y1384D01*
X15025Y1434D02*
X39038Y1434D01*
X15025Y1483D02*
X39112Y1483D01*
X15025Y1533D02*
X39187Y1533D01*
X15025Y1582D02*
X39261Y1582D01*
X15025Y1632D02*
X39335Y1632D01*
X15025Y1681D02*
X39410Y1681D01*
X15025Y1731D02*
X39484Y1731D01*
X15025Y1780D02*
X39558Y1780D01*
X15025Y1830D02*
X39632Y1830D01*
X15025Y1879D02*
X39707Y1879D01*
X15025Y1929D02*
X39781Y1929D01*
X15025Y1978D02*
X16253Y1978D01*
X16687Y1978D02*
X21333Y1978D01*
X21363Y1978D02*
X21737Y1978D01*
X21767Y1978D02*
X39855Y1978D01*
X15025Y2028D02*
X16076Y2028D01*
X16864Y2028D02*
X21156Y2028D01*
X21375Y2028D02*
X21725Y2028D01*
X21944Y2028D02*
X39930Y2028D01*
X15025Y2077D02*
X15982Y2077D01*
X16958Y2077D02*
X21062Y2077D01*
X21375Y2077D02*
X21725Y2077D01*
X22038Y2077D02*
X31343Y2077D01*
X31857Y2077D02*
X40004Y2077D01*
X15025Y2127D02*
X15887Y2127D01*
X17053Y2127D02*
X20967Y2127D01*
X21375Y2127D02*
X21725Y2127D01*
X22133Y2127D02*
X31157Y2127D01*
X32043Y2127D02*
X40078Y2127D01*
X15025Y2176D02*
X15825Y2176D01*
X17115Y2176D02*
X20905Y2176D01*
X21375Y2176D02*
X21725Y2176D01*
X22195Y2176D02*
X31015Y2176D01*
X32185Y2176D02*
X40153Y2176D01*
X15025Y2226D02*
X15769Y2226D01*
X17171Y2226D02*
X20849Y2226D01*
X21375Y2226D02*
X21725Y2226D01*
X22251Y2226D02*
X30916Y2226D01*
X32284Y2226D02*
X40227Y2226D01*
X15025Y2276D02*
X15714Y2276D01*
X17226Y2276D02*
X20794Y2276D01*
X21375Y2276D02*
X21725Y2276D01*
X22306Y2276D02*
X30838Y2276D01*
X32362Y2276D02*
X40301Y2276D01*
X15025Y2325D02*
X15667Y2325D01*
X17273Y2325D02*
X20747Y2325D01*
X21375Y2325D02*
X21725Y2325D01*
X22353Y2325D02*
X30759Y2325D01*
X32441Y2325D02*
X40375Y2325D01*
X15025Y2375D02*
X15633Y2375D01*
X17307Y2375D02*
X20713Y2375D01*
X21375Y2375D02*
X21725Y2375D01*
X22387Y2375D02*
X30686Y2375D01*
X32514Y2375D02*
X40450Y2375D01*
X15025Y2424D02*
X15599Y2424D01*
X17341Y2424D02*
X20679Y2424D01*
X21375Y2424D02*
X21725Y2424D01*
X22421Y2424D02*
X30636Y2424D01*
X32564Y2424D02*
X40524Y2424D01*
X15025Y2474D02*
X15565Y2474D01*
X17375Y2474D02*
X20645Y2474D01*
X22455Y2474D02*
X30586Y2474D01*
X32614Y2474D02*
X40598Y2474D01*
X15025Y2523D02*
X15534Y2523D01*
X17406Y2523D02*
X20614Y2523D01*
X22486Y2523D02*
X30537Y2523D01*
X32663Y2523D02*
X40673Y2523D01*
X15025Y2573D02*
X15516Y2573D01*
X17424Y2573D02*
X20596Y2573D01*
X22504Y2573D02*
X30487Y2573D01*
X32713Y2573D02*
X40747Y2573D01*
X15025Y2622D02*
X15497Y2622D01*
X17443Y2622D02*
X20577Y2622D01*
X22523Y2622D02*
X30448Y2622D01*
X32752Y2622D02*
X40821Y2622D01*
X15025Y2672D02*
X15478Y2672D01*
X17462Y2672D02*
X20558Y2672D01*
X22542Y2672D02*
X30417Y2672D01*
X32783Y2672D02*
X40896Y2672D01*
X15025Y2721D02*
X15459Y2721D01*
X17481Y2721D02*
X20539Y2721D01*
X22561Y2721D02*
X30386Y2721D01*
X32814Y2721D02*
X40970Y2721D01*
X15025Y2771D02*
X15446Y2771D01*
X17494Y2771D02*
X20526Y2771D01*
X22574Y2771D02*
X30355Y2771D01*
X32845Y2771D02*
X41044Y2771D01*
X15025Y2820D02*
X15440Y2820D01*
X17500Y2820D02*
X20520Y2820D01*
X22568Y2820D02*
X30324Y2820D01*
X32876Y2820D02*
X41118Y2820D01*
X15025Y2870D02*
X15434Y2870D01*
X17506Y2870D02*
X20514Y2870D01*
X22100Y2870D02*
X30293Y2870D01*
X32907Y2870D02*
X41193Y2870D01*
X15025Y2919D02*
X15428Y2919D01*
X17512Y2919D02*
X20508Y2919D01*
X22100Y2919D02*
X30275Y2919D01*
X32925Y2919D02*
X41267Y2919D01*
X15025Y2969D02*
X15422Y2969D01*
X17518Y2969D02*
X20502Y2969D01*
X22100Y2969D02*
X30258Y2969D01*
X32942Y2969D02*
X41341Y2969D01*
X15025Y3018D02*
X15421Y3018D01*
X17519Y3018D02*
X20501Y3018D01*
X22100Y3018D02*
X30240Y3018D01*
X32960Y3018D02*
X41416Y3018D01*
X15025Y3068D02*
X15427Y3068D01*
X17513Y3068D02*
X20507Y3068D01*
X22100Y3068D02*
X30223Y3068D01*
X32977Y3068D02*
X41490Y3068D01*
X15025Y3118D02*
X15433Y3118D01*
X17550Y3118D02*
X20513Y3118D01*
X22100Y3118D02*
X30206Y3118D01*
X32994Y3118D02*
X41564Y3118D01*
X15025Y3167D02*
X15439Y3167D01*
X17599Y3167D02*
X20519Y3167D01*
X22100Y3167D02*
X30188Y3167D01*
X33012Y3167D02*
X41638Y3167D01*
X15025Y3217D02*
X15445Y3217D01*
X17649Y3217D02*
X20525Y3217D01*
X22575Y3217D02*
X30180Y3217D01*
X33020Y3217D02*
X41713Y3217D01*
X15025Y3266D02*
X15454Y3266D01*
X17698Y3266D02*
X20534Y3266D01*
X22566Y3266D02*
X30175Y3266D01*
X33025Y3266D02*
X41787Y3266D01*
X15025Y3316D02*
X15473Y3316D01*
X17748Y3316D02*
X20553Y3316D01*
X22547Y3316D02*
X30169Y3316D01*
X33031Y3316D02*
X41861Y3316D01*
X15025Y3365D02*
X15492Y3365D01*
X17797Y3365D02*
X20572Y3365D01*
X22528Y3365D02*
X30164Y3365D01*
X33036Y3365D02*
X41883Y3365D01*
X15025Y3415D02*
X15511Y3415D01*
X17847Y3415D02*
X20591Y3415D01*
X22509Y3415D02*
X30158Y3415D01*
X33042Y3415D02*
X41883Y3415D01*
X15025Y3464D02*
X15530Y3464D01*
X17896Y3464D02*
X20610Y3464D01*
X22490Y3464D02*
X30152Y3464D01*
X33048Y3464D02*
X41883Y3464D01*
X15025Y3514D02*
X15556Y3514D01*
X17946Y3514D02*
X20636Y3514D01*
X22464Y3514D02*
X30150Y3514D01*
X33050Y3514D02*
X41883Y3514D01*
X15025Y3563D02*
X15590Y3563D01*
X17996Y3563D02*
X20670Y3563D01*
X21375Y3563D02*
X21725Y3563D01*
X22430Y3563D02*
X30156Y3563D01*
X33044Y3563D02*
X41883Y3563D01*
X15025Y3613D02*
X15625Y3613D01*
X18045Y3613D02*
X20705Y3613D01*
X21375Y3613D02*
X21725Y3613D01*
X22395Y3613D02*
X30161Y3613D01*
X33039Y3613D02*
X41883Y3613D01*
X15025Y3662D02*
X15659Y3662D01*
X18095Y3662D02*
X20739Y3662D01*
X21375Y3662D02*
X21725Y3662D01*
X22361Y3662D02*
X30167Y3662D01*
X33033Y3662D02*
X41883Y3662D01*
X15025Y3712D02*
X15699Y3712D01*
X18144Y3712D02*
X20779Y3712D01*
X21375Y3712D02*
X21725Y3712D01*
X22321Y3712D02*
X30172Y3712D01*
X33028Y3712D02*
X41883Y3712D01*
X15025Y3761D02*
X15755Y3761D01*
X18194Y3761D02*
X20835Y3761D01*
X21375Y3761D02*
X21725Y3761D01*
X22265Y3761D02*
X30178Y3761D01*
X33022Y3761D02*
X41883Y3761D01*
X15025Y3811D02*
X15811Y3811D01*
X18243Y3811D02*
X20891Y3811D01*
X21375Y3811D02*
X21725Y3811D01*
X22209Y3811D02*
X30183Y3811D01*
X33017Y3811D02*
X41883Y3811D01*
X15025Y3860D02*
X15867Y3860D01*
X18293Y3860D02*
X20947Y3860D01*
X21375Y3860D02*
X21725Y3860D01*
X22153Y3860D02*
X30198Y3860D01*
X33002Y3860D02*
X41883Y3860D01*
X15025Y3910D02*
X15958Y3910D01*
X18342Y3910D02*
X21038Y3910D01*
X21375Y3910D02*
X21725Y3910D01*
X22062Y3910D02*
X30215Y3910D01*
X32985Y3910D02*
X41883Y3910D01*
X15025Y3960D02*
X16052Y3960D01*
X18392Y3960D02*
X21132Y3960D01*
X21375Y3960D02*
X21725Y3960D01*
X21968Y3960D02*
X30178Y3960D01*
X32967Y3960D02*
X41883Y3960D01*
X15025Y4009D02*
X16202Y4009D01*
X18441Y4009D02*
X21282Y4009D01*
X21375Y4009D02*
X21725Y4009D01*
X21818Y4009D02*
X30129Y4009D01*
X32950Y4009D02*
X41883Y4009D01*
X15025Y4059D02*
X16566Y4059D01*
X18491Y4059D02*
X30079Y4059D01*
X32933Y4059D02*
X41883Y4059D01*
X15025Y4108D02*
X16616Y4108D01*
X18540Y4108D02*
X30030Y4108D01*
X32915Y4108D02*
X41883Y4108D01*
X15025Y4158D02*
X16665Y4158D01*
X18590Y4158D02*
X29980Y4158D01*
X32890Y4158D02*
X41883Y4158D01*
X15025Y4207D02*
X16715Y4207D01*
X18639Y4207D02*
X29931Y4207D01*
X32859Y4207D02*
X41883Y4207D01*
X15025Y4257D02*
X16764Y4257D01*
X18689Y4257D02*
X29881Y4257D01*
X32828Y4257D02*
X41883Y4257D01*
X15025Y4306D02*
X16814Y4306D01*
X18738Y4306D02*
X29832Y4306D01*
X32797Y4306D02*
X41883Y4306D01*
X15025Y4356D02*
X16864Y4356D01*
X18788Y4356D02*
X29782Y4356D01*
X32766Y4356D02*
X41883Y4356D01*
X15025Y4405D02*
X16913Y4405D01*
X18838Y4405D02*
X29732Y4405D01*
X32734Y4405D02*
X41883Y4405D01*
X15025Y4455D02*
X16963Y4455D01*
X18887Y4455D02*
X29683Y4455D01*
X32685Y4455D02*
X41883Y4455D01*
X15025Y4504D02*
X17012Y4504D01*
X18937Y4504D02*
X29633Y4504D01*
X32636Y4504D02*
X41883Y4504D01*
X15025Y4554D02*
X17062Y4554D01*
X18986Y4554D02*
X29584Y4554D01*
X32586Y4554D02*
X41883Y4554D01*
X15025Y4603D02*
X17111Y4603D01*
X19036Y4603D02*
X29534Y4603D01*
X32536Y4603D02*
X38734Y4603D01*
X39266Y4603D02*
X41883Y4603D01*
X15025Y4653D02*
X17161Y4653D01*
X19085Y4653D02*
X29485Y4653D01*
X32476Y4653D02*
X38558Y4653D01*
X39442Y4653D02*
X41883Y4653D01*
X15025Y4702D02*
X17210Y4702D01*
X19135Y4702D02*
X29435Y4702D01*
X32397Y4702D02*
X38416Y4702D01*
X39584Y4702D02*
X41883Y4702D01*
X15025Y4752D02*
X17260Y4752D01*
X19184Y4752D02*
X29386Y4752D01*
X32319Y4752D02*
X38322Y4752D01*
X39678Y4752D02*
X41883Y4752D01*
X15025Y4802D02*
X17309Y4802D01*
X19234Y4802D02*
X29336Y4802D01*
X32240Y4802D02*
X38243Y4802D01*
X39757Y4802D02*
X41883Y4802D01*
X15025Y4851D02*
X17359Y4851D01*
X19283Y4851D02*
X29287Y4851D01*
X32106Y4851D02*
X38164Y4851D01*
X39836Y4851D02*
X41883Y4851D01*
X15025Y4901D02*
X17408Y4901D01*
X19333Y4901D02*
X29237Y4901D01*
X31162Y4901D02*
X31235Y4901D01*
X31965Y4901D02*
X38095Y4901D01*
X39905Y4901D02*
X41883Y4901D01*
X15025Y4950D02*
X17458Y4950D01*
X19382Y4950D02*
X29188Y4950D01*
X31112Y4950D02*
X31587Y4950D01*
X31613Y4950D02*
X38045Y4950D01*
X39955Y4950D02*
X41883Y4950D01*
X15025Y5000D02*
X17507Y5000D01*
X19432Y5000D02*
X29138Y5000D01*
X31063Y5000D02*
X37996Y5000D01*
X40004Y5000D02*
X41883Y5000D01*
X15025Y5049D02*
X17557Y5049D01*
X19481Y5049D02*
X29089Y5049D01*
X31013Y5049D02*
X37946Y5049D01*
X40054Y5049D02*
X41883Y5049D01*
X15025Y5099D02*
X17606Y5099D01*
X19531Y5099D02*
X29039Y5099D01*
X30964Y5099D02*
X37896Y5099D01*
X40104Y5099D02*
X41883Y5099D01*
X15025Y5148D02*
X17656Y5148D01*
X19580Y5148D02*
X28990Y5148D01*
X30914Y5148D02*
X37861Y5148D01*
X40139Y5148D02*
X41883Y5148D01*
X15025Y5198D02*
X17706Y5198D01*
X19630Y5198D02*
X28940Y5198D01*
X30864Y5198D02*
X37830Y5198D01*
X40170Y5198D02*
X41883Y5198D01*
X15025Y5247D02*
X17755Y5247D01*
X19680Y5247D02*
X28890Y5247D01*
X30815Y5247D02*
X37799Y5247D01*
X40201Y5247D02*
X41883Y5247D01*
X15025Y5297D02*
X17805Y5297D01*
X19729Y5297D02*
X28841Y5297D01*
X30765Y5297D02*
X37768Y5297D01*
X40232Y5297D02*
X41883Y5297D01*
X15025Y5346D02*
X17854Y5346D01*
X30716Y5346D02*
X37736Y5346D01*
X40264Y5346D02*
X41883Y5346D01*
X15025Y5396D02*
X17904Y5396D01*
X30666Y5396D02*
X37710Y5396D01*
X40290Y5396D02*
X41883Y5396D01*
X15025Y5445D02*
X17953Y5445D01*
X30617Y5445D02*
X37692Y5445D01*
X40308Y5445D02*
X41883Y5445D01*
X15025Y5495D02*
X18003Y5495D01*
X30567Y5495D02*
X37675Y5495D01*
X40325Y5495D02*
X41883Y5495D01*
X15025Y5545D02*
X18052Y5545D01*
X30518Y5545D02*
X37658Y5545D01*
X40342Y5545D02*
X41883Y5545D01*
X15025Y5594D02*
X18102Y5594D01*
X30468Y5594D02*
X37640Y5594D01*
X40360Y5594D02*
X41883Y5594D01*
X15025Y5644D02*
X18151Y5644D01*
X30419Y5644D02*
X37623Y5644D01*
X40377Y5644D02*
X41883Y5644D01*
X15025Y5693D02*
X18201Y5693D01*
X30369Y5693D02*
X37608Y5693D01*
X40392Y5693D02*
X41883Y5693D01*
X15025Y5743D02*
X18250Y5743D01*
X30320Y5743D02*
X37602Y5743D01*
X40398Y5743D02*
X41883Y5743D01*
X15025Y5792D02*
X18300Y5792D01*
X30270Y5792D02*
X37597Y5792D01*
X40403Y5792D02*
X41883Y5792D01*
X15025Y5842D02*
X18349Y5842D01*
X30221Y5842D02*
X37591Y5842D01*
X40409Y5842D02*
X41883Y5842D01*
X15025Y5891D02*
X18399Y5891D01*
X30171Y5891D02*
X37586Y5891D01*
X40414Y5891D02*
X41883Y5891D01*
X15025Y5941D02*
X18449Y5941D01*
X30121Y5941D02*
X37580Y5941D01*
X40420Y5941D02*
X41883Y5941D01*
X15025Y5990D02*
X18498Y5990D01*
X30072Y5990D02*
X37575Y5990D01*
X40425Y5990D02*
X41883Y5990D01*
X15025Y6040D02*
X18548Y6040D01*
X30022Y6040D02*
X37578Y6040D01*
X40422Y6040D02*
X41883Y6040D01*
X15025Y6089D02*
X18597Y6089D01*
X29973Y6089D02*
X37584Y6089D01*
X40416Y6089D02*
X41883Y6089D01*
X15025Y6139D02*
X18647Y6139D01*
X29923Y6139D02*
X37589Y6139D01*
X40411Y6139D02*
X41883Y6139D01*
X15025Y6188D02*
X18696Y6188D01*
X29874Y6188D02*
X37595Y6188D01*
X40405Y6188D02*
X41883Y6188D01*
X15025Y6238D02*
X18746Y6238D01*
X29824Y6238D02*
X37600Y6238D01*
X40400Y6238D02*
X41883Y6238D01*
X15025Y6287D02*
X18795Y6287D01*
X29775Y6287D02*
X37606Y6287D01*
X40394Y6287D02*
X41883Y6287D01*
X15025Y6337D02*
X18845Y6337D01*
X29725Y6337D02*
X37616Y6337D01*
X40384Y6337D02*
X41883Y6337D01*
X15025Y6387D02*
X18894Y6387D01*
X29676Y6387D02*
X37633Y6387D01*
X40367Y6387D02*
X41883Y6387D01*
X15025Y6436D02*
X18944Y6436D01*
X29626Y6436D02*
X37651Y6436D01*
X40349Y6436D02*
X41883Y6436D01*
X15025Y6486D02*
X18994Y6486D01*
X29576Y6486D02*
X37668Y6486D01*
X40332Y6486D02*
X41883Y6486D01*
X15025Y6535D02*
X19054Y6535D01*
X29516Y6535D02*
X37685Y6535D01*
X40315Y6535D02*
X41883Y6535D01*
X15025Y6585D02*
X19127Y6585D01*
X29443Y6585D02*
X37703Y6585D01*
X40297Y6585D02*
X41883Y6585D01*
X15025Y6634D02*
X19228Y6634D01*
X29342Y6634D02*
X37724Y6634D01*
X40276Y6634D02*
X41883Y6634D01*
X15025Y6684D02*
X37755Y6684D01*
X40245Y6684D02*
X41883Y6684D01*
X15025Y6733D02*
X37787Y6733D01*
X40213Y6733D02*
X41883Y6733D01*
X15025Y6783D02*
X37818Y6783D01*
X40182Y6783D02*
X41883Y6783D01*
X15025Y6832D02*
X37849Y6832D01*
X40151Y6832D02*
X41883Y6832D01*
X15025Y6882D02*
X37880Y6882D01*
X40120Y6882D02*
X41883Y6882D01*
X15025Y6931D02*
X37927Y6931D01*
X40073Y6931D02*
X41883Y6931D01*
X15025Y6981D02*
X37976Y6981D01*
X40024Y6981D02*
X41883Y6981D01*
X15025Y7030D02*
X38026Y7030D01*
X39974Y7030D02*
X41883Y7030D01*
X15025Y7080D02*
X38075Y7080D01*
X39925Y7080D02*
X41883Y7080D01*
X15025Y7129D02*
X38133Y7129D01*
X39867Y7129D02*
X41883Y7129D01*
X15025Y7179D02*
X38212Y7179D01*
X39788Y7179D02*
X41883Y7179D01*
X15025Y7229D02*
X38291Y7229D01*
X39709Y7229D02*
X41883Y7229D01*
X15025Y7278D02*
X38370Y7278D01*
X39630Y7278D02*
X41883Y7278D01*
X15025Y7328D02*
X38502Y7328D01*
X39498Y7328D02*
X41883Y7328D01*
X15025Y7377D02*
X38643Y7377D01*
X39357Y7377D02*
X41883Y7377D01*
X15025Y7427D02*
X41883Y7427D01*
X15025Y7476D02*
X41883Y7476D01*
X15025Y7526D02*
X41883Y7526D01*
X15025Y7575D02*
X41883Y7575D01*
X15025Y7625D02*
X41883Y7625D01*
X15025Y7674D02*
X41883Y7674D01*
X15025Y7724D02*
X41883Y7724D01*
X15025Y7773D02*
X41883Y7773D01*
X15025Y7823D02*
X41883Y7823D01*
X15025Y7872D02*
X41883Y7872D01*
X15025Y7922D02*
X41883Y7922D01*
X15025Y7971D02*
X41883Y7971D01*
X15025Y8021D02*
X41883Y8021D01*
X15025Y8071D02*
X41883Y8071D01*
X15025Y8120D02*
X41883Y8120D01*
X15025Y8170D02*
X41883Y8170D01*
X15025Y8219D02*
X41883Y8219D01*
X15025Y8269D02*
X41883Y8269D01*
X15025Y8318D02*
X41883Y8318D01*
X15025Y8368D02*
X41883Y8368D01*
X15025Y8417D02*
X41883Y8417D01*
X15025Y8467D02*
X41883Y8467D01*
X15025Y8516D02*
X41883Y8516D01*
X15025Y8566D02*
X41883Y8566D01*
X15025Y8615D02*
X41883Y8615D01*
X15025Y8665D02*
X41883Y8665D01*
X15025Y8714D02*
X41883Y8714D01*
X15025Y8764D02*
X41883Y8764D01*
X15025Y8813D02*
X41883Y8813D01*
X15025Y8863D02*
X41883Y8863D01*
X15025Y8913D02*
X41883Y8913D01*
X15025Y8962D02*
X41883Y8962D01*
X15025Y9012D02*
X41883Y9012D01*
X15025Y9061D02*
X41883Y9061D01*
X15025Y9111D02*
X41883Y9111D01*
X15025Y9160D02*
X41883Y9160D01*
X15025Y9210D02*
X41883Y9210D01*
X15025Y9259D02*
X41883Y9259D01*
X15025Y9309D02*
X41883Y9309D01*
X15025Y9358D02*
X41883Y9358D01*
X15025Y9408D02*
X41883Y9408D01*
X15025Y9457D02*
X41883Y9457D01*
X15025Y9507D02*
X41883Y9507D01*
X15025Y9556D02*
X41883Y9556D01*
X15025Y9606D02*
X38711Y9606D01*
X39289Y9606D02*
X41883Y9606D01*
X15025Y9655D02*
X38550Y9655D01*
X39450Y9655D02*
X41883Y9655D01*
X15025Y9705D02*
X38409Y9705D01*
X39591Y9705D02*
X41883Y9705D01*
X15025Y9755D02*
X38318Y9755D01*
X39682Y9755D02*
X41883Y9755D01*
X15025Y9804D02*
X38239Y9804D01*
X39761Y9804D02*
X41883Y9804D01*
X15025Y9854D02*
X38160Y9854D01*
X39840Y9854D02*
X41883Y9854D01*
X15025Y9903D02*
X38092Y9903D01*
X39908Y9903D02*
X41883Y9903D01*
X15025Y9953D02*
X38043Y9953D01*
X39957Y9953D02*
X41883Y9953D01*
X15025Y10002D02*
X16156Y10002D01*
X16295Y10002D02*
X16645Y10002D01*
X16784Y10002D02*
X21236Y10002D01*
X21864Y10002D02*
X37993Y10002D01*
X40007Y10002D02*
X41883Y10002D01*
X15025Y10052D02*
X16030Y10052D01*
X16295Y10052D02*
X16645Y10052D01*
X16910Y10052D02*
X21110Y10052D01*
X21990Y10052D02*
X37943Y10052D01*
X40057Y10052D02*
X41883Y10052D01*
X15025Y10101D02*
X15936Y10101D01*
X16295Y10101D02*
X16645Y10101D01*
X17004Y10101D02*
X21016Y10101D01*
X22084Y10101D02*
X37894Y10101D01*
X40106Y10101D02*
X41883Y10101D01*
X15025Y10151D02*
X15854Y10151D01*
X16295Y10151D02*
X16645Y10151D01*
X17086Y10151D02*
X20934Y10151D01*
X22166Y10151D02*
X37859Y10151D01*
X40141Y10151D02*
X41883Y10151D01*
X15025Y10200D02*
X15798Y10200D01*
X16295Y10200D02*
X16645Y10200D01*
X17142Y10200D02*
X20878Y10200D01*
X22222Y10200D02*
X37828Y10200D01*
X40172Y10200D02*
X41883Y10200D01*
X15025Y10250D02*
X15742Y10250D01*
X16295Y10250D02*
X16645Y10250D01*
X17198Y10250D02*
X20822Y10250D01*
X22278Y10250D02*
X37797Y10250D01*
X40203Y10250D02*
X41883Y10250D01*
X15025Y10299D02*
X15687Y10299D01*
X16295Y10299D02*
X16645Y10299D01*
X17253Y10299D02*
X20767Y10299D01*
X22333Y10299D02*
X37766Y10299D01*
X40234Y10299D02*
X41883Y10299D01*
X15025Y10349D02*
X15651Y10349D01*
X16295Y10349D02*
X16645Y10349D01*
X17289Y10349D02*
X20731Y10349D01*
X22369Y10349D02*
X37735Y10349D01*
X40265Y10349D02*
X41883Y10349D01*
X15025Y10398D02*
X15617Y10398D01*
X16295Y10398D02*
X16645Y10398D01*
X17323Y10398D02*
X20697Y10398D01*
X22403Y10398D02*
X37709Y10398D01*
X40291Y10398D02*
X41883Y10398D01*
X15025Y10448D02*
X15583Y10448D01*
X16295Y10448D02*
X16645Y10448D01*
X17357Y10448D02*
X20663Y10448D01*
X22437Y10448D02*
X37691Y10448D01*
X40309Y10448D02*
X41883Y10448D01*
X15025Y10498D02*
X15548Y10498D01*
X17392Y10498D02*
X20628Y10498D01*
X22472Y10498D02*
X37674Y10498D01*
X40326Y10498D02*
X41883Y10498D01*
X15025Y10547D02*
X15525Y10547D01*
X17415Y10547D02*
X20605Y10547D01*
X22495Y10547D02*
X37657Y10547D01*
X40343Y10547D02*
X41883Y10547D01*
X15025Y10597D02*
X15507Y10597D01*
X17433Y10597D02*
X20587Y10597D01*
X22513Y10597D02*
X37639Y10597D01*
X40361Y10597D02*
X41883Y10597D01*
X15025Y10646D02*
X15488Y10646D01*
X17452Y10646D02*
X20568Y10646D01*
X22532Y10646D02*
X37622Y10646D01*
X40378Y10646D02*
X41883Y10646D01*
X15025Y10696D02*
X15469Y10696D01*
X17471Y10696D02*
X20549Y10696D01*
X22551Y10696D02*
X37608Y10696D01*
X40392Y10696D02*
X41883Y10696D01*
X15025Y10745D02*
X15450Y10745D01*
X17490Y10745D02*
X20530Y10745D01*
X22570Y10745D02*
X37602Y10745D01*
X40398Y10745D02*
X41883Y10745D01*
X15025Y10795D02*
X15443Y10795D01*
X17497Y10795D02*
X20523Y10795D01*
X22577Y10795D02*
X37597Y10795D01*
X40403Y10795D02*
X41883Y10795D01*
X15025Y10844D02*
X15920Y10844D01*
X17020Y10844D02*
X20517Y10844D01*
X22583Y10844D02*
X37591Y10844D01*
X40409Y10844D02*
X41883Y10844D01*
X15025Y10894D02*
X15920Y10894D01*
X17020Y10894D02*
X20511Y10894D01*
X22589Y10894D02*
X37585Y10894D01*
X40415Y10894D02*
X41883Y10894D01*
X15025Y10943D02*
X15920Y10943D01*
X17020Y10943D02*
X20505Y10943D01*
X22595Y10943D02*
X37580Y10943D01*
X40420Y10943D02*
X41883Y10943D01*
X15025Y10993D02*
X15920Y10993D01*
X17020Y10993D02*
X20499Y10993D01*
X22601Y10993D02*
X37574Y10993D01*
X40426Y10993D02*
X41883Y10993D01*
X15025Y11042D02*
X15920Y11042D01*
X17020Y11042D02*
X20504Y11042D01*
X22596Y11042D02*
X37578Y11042D01*
X40422Y11042D02*
X41883Y11042D01*
X15025Y11092D02*
X15920Y11092D01*
X17020Y11092D02*
X20510Y11092D01*
X22604Y11092D02*
X37584Y11092D01*
X40416Y11092D02*
X41883Y11092D01*
X15025Y11141D02*
X15920Y11141D01*
X17020Y11141D02*
X20516Y11141D01*
X22654Y11141D02*
X37589Y11141D01*
X40411Y11141D02*
X41883Y11141D01*
X15025Y11191D02*
X15442Y11191D01*
X17498Y11191D02*
X20522Y11191D01*
X22703Y11191D02*
X37595Y11191D01*
X40405Y11191D02*
X41883Y11191D01*
X15025Y11240D02*
X15448Y11240D01*
X17492Y11240D02*
X20528Y11240D01*
X22753Y11240D02*
X37601Y11240D01*
X40399Y11240D02*
X41883Y11240D01*
X15025Y11290D02*
X15464Y11290D01*
X17476Y11290D02*
X20544Y11290D01*
X22802Y11290D02*
X37606Y11290D01*
X40394Y11290D02*
X41883Y11290D01*
X15025Y11340D02*
X15482Y11340D01*
X17458Y11340D02*
X20562Y11340D01*
X22852Y11340D02*
X37617Y11340D01*
X40383Y11340D02*
X41883Y11340D01*
X15025Y11389D02*
X15501Y11389D01*
X17439Y11389D02*
X20581Y11389D01*
X22901Y11389D02*
X37634Y11389D01*
X40366Y11389D02*
X41883Y11389D01*
X15025Y11439D02*
X15520Y11439D01*
X17420Y11439D02*
X20600Y11439D01*
X22951Y11439D02*
X37652Y11439D01*
X40348Y11439D02*
X41883Y11439D01*
X15025Y11488D02*
X15539Y11488D01*
X17401Y11488D02*
X20619Y11488D01*
X23000Y11488D02*
X37669Y11488D01*
X40331Y11488D02*
X41883Y11488D01*
X15025Y11538D02*
X15573Y11538D01*
X17367Y11538D02*
X20653Y11538D01*
X23050Y11538D02*
X37686Y11538D01*
X40314Y11538D02*
X41883Y11538D01*
X15025Y11587D02*
X15607Y11587D01*
X16295Y11587D02*
X16645Y11587D01*
X17333Y11587D02*
X20687Y11587D01*
X23099Y11587D02*
X37704Y11587D01*
X40296Y11587D02*
X41883Y11587D01*
X15025Y11637D02*
X15641Y11637D01*
X16295Y11637D02*
X16645Y11637D01*
X17299Y11637D02*
X20721Y11637D01*
X23149Y11637D02*
X37726Y11637D01*
X40274Y11637D02*
X41883Y11637D01*
X15025Y11686D02*
X15675Y11686D01*
X16295Y11686D02*
X16645Y11686D01*
X17265Y11686D02*
X20755Y11686D01*
X23198Y11686D02*
X37757Y11686D01*
X40243Y11686D02*
X41883Y11686D01*
X15025Y11736D02*
X15726Y11736D01*
X16295Y11736D02*
X16645Y11736D01*
X17214Y11736D02*
X20806Y11736D01*
X23248Y11736D02*
X37788Y11736D01*
X40212Y11736D02*
X41883Y11736D01*
X15025Y11785D02*
X15782Y11785D01*
X16295Y11785D02*
X16645Y11785D01*
X17158Y11785D02*
X20862Y11785D01*
X23298Y11785D02*
X37819Y11785D01*
X40181Y11785D02*
X41883Y11785D01*
X15025Y11835D02*
X15838Y11835D01*
X16295Y11835D02*
X16645Y11835D01*
X17102Y11835D02*
X20918Y11835D01*
X23347Y11835D02*
X37850Y11835D01*
X40150Y11835D02*
X41883Y11835D01*
X15025Y11884D02*
X15909Y11884D01*
X16295Y11884D02*
X16645Y11884D01*
X17031Y11884D02*
X20989Y11884D01*
X23397Y11884D02*
X37881Y11884D01*
X40119Y11884D02*
X41883Y11884D01*
X15025Y11934D02*
X16003Y11934D01*
X16295Y11934D02*
X16645Y11934D01*
X16937Y11934D02*
X21083Y11934D01*
X23446Y11934D02*
X37929Y11934D01*
X40071Y11934D02*
X41883Y11934D01*
X15025Y11983D02*
X16098Y11983D01*
X16295Y11983D02*
X16645Y11983D01*
X16842Y11983D02*
X21178Y11983D01*
X23496Y11983D02*
X37979Y11983D01*
X40021Y11983D02*
X41883Y11983D01*
X15025Y12033D02*
X21379Y12033D01*
X23545Y12033D02*
X38028Y12033D01*
X39972Y12033D02*
X41883Y12033D01*
X15025Y12082D02*
X21670Y12082D01*
X23595Y12082D02*
X30412Y12082D01*
X32788Y12082D02*
X38078Y12082D01*
X39922Y12082D02*
X41883Y12082D01*
X15025Y12132D02*
X21720Y12132D01*
X23644Y12132D02*
X30322Y12132D01*
X32878Y12132D02*
X38137Y12132D01*
X39863Y12132D02*
X41883Y12132D01*
X15025Y12182D02*
X21769Y12182D01*
X23694Y12182D02*
X30267Y12182D01*
X32933Y12182D02*
X38216Y12182D01*
X39784Y12182D02*
X41883Y12182D01*
X15025Y12231D02*
X21819Y12231D01*
X23743Y12231D02*
X30226Y12231D01*
X32974Y12231D02*
X38295Y12231D01*
X39705Y12231D02*
X41883Y12231D01*
X15025Y12281D02*
X21868Y12281D01*
X23793Y12281D02*
X30196Y12281D01*
X33004Y12281D02*
X38374Y12281D01*
X39626Y12281D02*
X41883Y12281D01*
X15025Y12330D02*
X21918Y12330D01*
X23842Y12330D02*
X30175Y12330D01*
X33025Y12330D02*
X38509Y12330D01*
X39491Y12330D02*
X41883Y12330D01*
X15025Y12380D02*
X21967Y12380D01*
X23892Y12380D02*
X30161Y12380D01*
X33039Y12380D02*
X38651Y12380D01*
X39349Y12380D02*
X41883Y12380D01*
X15025Y12429D02*
X22017Y12429D01*
X23941Y12429D02*
X30152Y12429D01*
X33048Y12429D02*
X41883Y12429D01*
X15025Y12479D02*
X22066Y12479D01*
X23991Y12479D02*
X30149Y12479D01*
X33051Y12479D02*
X41883Y12479D01*
X15025Y12528D02*
X22116Y12528D01*
X24040Y12528D02*
X30149Y12528D01*
X33051Y12528D02*
X41883Y12528D01*
X15025Y12578D02*
X22166Y12578D01*
X24090Y12578D02*
X30149Y12578D01*
X33051Y12578D02*
X41883Y12578D01*
X15025Y12627D02*
X22215Y12627D01*
X24140Y12627D02*
X30149Y12627D01*
X33051Y12627D02*
X41883Y12627D01*
X15025Y12677D02*
X22265Y12677D01*
X24189Y12677D02*
X30149Y12677D01*
X33051Y12677D02*
X41883Y12677D01*
X15025Y12726D02*
X22314Y12726D01*
X24239Y12726D02*
X30149Y12726D01*
X33051Y12726D02*
X41883Y12726D01*
X15025Y12776D02*
X22364Y12776D01*
X24288Y12776D02*
X30149Y12776D01*
X33051Y12776D02*
X41883Y12776D01*
X15025Y12825D02*
X22413Y12825D01*
X33051Y12825D02*
X41883Y12825D01*
X15025Y12875D02*
X22463Y12875D01*
X33051Y12875D02*
X41883Y12875D01*
X15025Y12924D02*
X22512Y12924D01*
X33051Y12924D02*
X41883Y12924D01*
X15025Y12974D02*
X22562Y12974D01*
X33051Y12974D02*
X41883Y12974D01*
X15025Y13024D02*
X22611Y13024D01*
X33051Y13024D02*
X41883Y13024D01*
X15025Y13073D02*
X22661Y13073D01*
X33051Y13073D02*
X41883Y13073D01*
X15025Y13123D02*
X22710Y13123D01*
X33051Y13123D02*
X41883Y13123D01*
X15025Y13172D02*
X22760Y13172D01*
X33051Y13172D02*
X41883Y13172D01*
X15025Y13222D02*
X22809Y13222D01*
X33051Y13222D02*
X41883Y13222D01*
X15025Y13271D02*
X22859Y13271D01*
X33051Y13271D02*
X41883Y13271D01*
X15025Y13321D02*
X22908Y13321D01*
X33051Y13321D02*
X41883Y13321D01*
X15025Y13370D02*
X22958Y13370D01*
X33051Y13370D02*
X41883Y13370D01*
X15025Y13420D02*
X23008Y13420D01*
X33051Y13420D02*
X41883Y13420D01*
X15025Y13469D02*
X23057Y13469D01*
X33051Y13469D02*
X41883Y13469D01*
X15025Y13519D02*
X23107Y13519D01*
X33051Y13519D02*
X41883Y13519D01*
X15025Y13568D02*
X23156Y13568D01*
X33051Y13568D02*
X41883Y13568D01*
X15025Y13618D02*
X23206Y13618D01*
X33051Y13618D02*
X41883Y13618D01*
X15025Y13667D02*
X23255Y13667D01*
X33051Y13667D02*
X41883Y13667D01*
X15025Y13717D02*
X23305Y13717D01*
X33051Y13717D02*
X41812Y13717D01*
X15025Y13766D02*
X23354Y13766D01*
X33051Y13766D02*
X41738Y13766D01*
X15025Y13816D02*
X23404Y13816D01*
X33051Y13816D02*
X41664Y13816D01*
X15025Y13866D02*
X23453Y13866D01*
X33051Y13866D02*
X41590Y13866D01*
X15025Y13915D02*
X23503Y13915D01*
X33051Y13915D02*
X41515Y13915D01*
X15025Y13965D02*
X23552Y13965D01*
X33051Y13965D02*
X41441Y13965D01*
X15025Y14014D02*
X23609Y14014D01*
X33051Y14014D02*
X41367Y14014D01*
X15025Y14064D02*
X23669Y14064D01*
X33051Y14064D02*
X41292Y14064D01*
X15025Y14113D02*
X23761Y14113D01*
X33051Y14113D02*
X41218Y14113D01*
X15025Y14163D02*
X23902Y14163D01*
X33051Y14163D02*
X41144Y14163D01*
X15025Y14212D02*
X30149Y14212D01*
X33051Y14212D02*
X41069Y14212D01*
X15025Y14262D02*
X30149Y14262D01*
X33051Y14262D02*
X40995Y14262D01*
X15025Y14311D02*
X30149Y14311D01*
X33051Y14311D02*
X40921Y14311D01*
X15025Y14361D02*
X30149Y14361D01*
X33051Y14361D02*
X40847Y14361D01*
X15025Y14410D02*
X30149Y14410D01*
X33051Y14410D02*
X40772Y14410D01*
X15025Y14460D02*
X30149Y14460D01*
X33051Y14460D02*
X40698Y14460D01*
X15025Y14509D02*
X30149Y14509D01*
X33051Y14509D02*
X40624Y14509D01*
X15025Y14559D02*
X30151Y14559D01*
X33049Y14559D02*
X40549Y14559D01*
X15025Y14608D02*
X30158Y14608D01*
X33042Y14608D02*
X40475Y14608D01*
X15025Y14658D02*
X30170Y14658D01*
X33030Y14658D02*
X40401Y14658D01*
X15025Y14708D02*
X30190Y14708D01*
X33010Y14708D02*
X40327Y14708D01*
X15025Y14757D02*
X30219Y14757D01*
X32981Y14757D02*
X40252Y14757D01*
X15025Y14807D02*
X30256Y14807D01*
X32944Y14807D02*
X40178Y14807D01*
X15025Y14856D02*
X30308Y14856D01*
X32892Y14856D02*
X40104Y14856D01*
X15025Y14906D02*
X30383Y14906D01*
X32817Y14906D02*
X40029Y14906D01*
X15025Y14955D02*
X39955Y14955D01*
X15025Y15005D02*
X39881Y15005D01*
X15025Y15054D02*
X39806Y15054D01*
X15025Y15104D02*
X39732Y15104D01*
X15025Y15153D02*
X39658Y15153D01*
X15025Y15203D02*
X39584Y15203D01*
X15025Y15252D02*
X39509Y15252D01*
X15025Y15302D02*
X39435Y15302D01*
X15025Y15351D02*
X39361Y15351D01*
X15025Y15401D02*
X39286Y15401D01*
X15025Y15451D02*
X39212Y15451D01*
X15025Y15500D02*
X39138Y15500D01*
X15025Y15550D02*
X39064Y15550D01*
X15025Y15599D02*
X38989Y15599D01*
X15025Y15649D02*
X38915Y15649D01*
X15025Y15698D02*
X38841Y15698D01*
X15025Y15748D02*
X38766Y15748D01*
X15025Y15797D02*
X38692Y15797D01*
X15025Y15847D02*
X38618Y15847D01*
X15025Y15896D02*
X38543Y15896D01*
X15025Y15946D02*
X38469Y15946D01*
X15025Y15995D02*
X38395Y15995D01*
X15025Y16045D02*
X38321Y16045D01*
X15025Y16094D02*
X38246Y16094D01*
X15025Y16144D02*
X38172Y16144D01*
X15025Y16193D02*
X38098Y16193D01*
X15025Y16243D02*
X38023Y16243D01*
X15025Y16293D02*
X37949Y16293D01*
X15025Y16342D02*
X37875Y16342D01*
%LNpour fill*%
X12975Y16475D02*
X12975Y16475D01*
X0525Y16475*
X0525Y0525*
X12975Y0525*
X12975Y16475*
X1875Y10988D02*
X1875Y10988D01*
X1875Y11225*
X2025Y11225*
X2025Y10988*
X2039Y10974*
X2601Y10974*
X2602Y10974*
X2634Y10976*
X2636Y10977*
X2669Y10984*
X2671Y10985*
X2702Y10998*
X2704Y10999*
X2732Y11016*
X2734Y11017*
X2759Y11039*
X2761Y11041*
X2783Y11066*
X2784Y11068*
X2801Y11096*
X2802Y11098*
X2815Y11129*
X2816Y11131*
X2823Y11164*
X2824Y11166*
X2826Y11199*
X2826Y11200*
X2826Y11836*
X2812Y11850*
X2575Y11850*
X2575Y12000*
X2812Y12000*
X2826Y12014*
X2826Y12650*
X2826Y12651*
X2824Y12684*
X2823Y12686*
X2816Y12719*
X2815Y12721*
X2802Y12752*
X2801Y12754*
X2784Y12782*
X2783Y12784*
X2761Y12809*
X2759Y12811*
X2734Y12833*
X2732Y12834*
X2704Y12851*
X2702Y12852*
X2671Y12865*
X2669Y12866*
X2636Y12873*
X2634Y12874*
X2601Y12876*
X2600Y12876*
X2039Y12876*
X2025Y12862*
X2025Y12625*
X1875Y12625*
X1875Y12862*
X1861Y12876*
X1300Y12876*
X1299Y12876*
X1266Y12874*
X1264Y12873*
X1231Y12866*
X1229Y12865*
X1198Y12852*
X1196Y12851*
X1168Y12834*
X1166Y12833*
X1141Y12811*
X1139Y12809*
X1117Y12784*
X1116Y12782*
X1099Y12754*
X1098Y12752*
X1085Y12721*
X1084Y12719*
X1077Y12686*
X1076Y12684*
X1074Y12652*
X1074Y12651*
X1074Y12014*
X1088Y12000*
X1325Y12000*
X1325Y11850*
X1088Y11850*
X1074Y11836*
X1074Y11199*
X1074Y11198*
X1076Y11166*
X1077Y11164*
X1084Y11131*
X1085Y11129*
X1098Y11098*
X1099Y11096*
X1116Y11068*
X1117Y11066*
X1139Y11041*
X1141Y11039*
X1166Y11017*
X1168Y11016*
X1196Y10999*
X1198Y10998*
X1229Y10985*
X1231Y10984*
X1264Y10977*
X1266Y10976*
X1298Y10974*
X1299Y10974*
X1861Y10974*
X1875Y10988*
X4325Y10688D02*
X4325Y10688D01*
X4325Y10925*
X4475Y10925*
X4475Y10688*
X4489Y10674*
X5101Y10674*
X5102Y10674*
X5134Y10676*
X5136Y10677*
X5169Y10684*
X5171Y10685*
X5202Y10698*
X5204Y10699*
X5232Y10716*
X5234Y10717*
X5259Y10739*
X5261Y10741*
X5283Y10766*
X5284Y10768*
X5301Y10796*
X5302Y10798*
X5315Y10829*
X5316Y10831*
X5323Y10864*
X5324Y10866*
X5326Y10899*
X5326Y10900*
X5326Y11611*
X5312Y11625*
X5075Y11625*
X5075Y11775*
X5312Y11775*
X5326Y11789*
X5326Y12500*
X5326Y12501*
X5324Y12534*
X5323Y12536*
X5316Y12569*
X5315Y12571*
X5302Y12602*
X5301Y12604*
X5284Y12632*
X5283Y12634*
X5261Y12659*
X5259Y12661*
X5234Y12683*
X5232Y12684*
X5204Y12701*
X5202Y12702*
X5171Y12715*
X5169Y12716*
X5136Y12723*
X5134Y12724*
X5101Y12726*
X5100Y12726*
X4489Y12726*
X4475Y12712*
X4475Y12475*
X4325Y12475*
X4325Y12712*
X4311Y12726*
X3700Y12726*
X3699Y12726*
X3666Y12724*
X3664Y12723*
X3631Y12716*
X3629Y12715*
X3598Y12702*
X3596Y12701*
X3568Y12684*
X3566Y12683*
X3541Y12661*
X3539Y12659*
X3517Y12634*
X3516Y12632*
X3499Y12604*
X3498Y12602*
X3485Y12571*
X3484Y12569*
X3477Y12536*
X3476Y12534*
X3474Y12502*
X3474Y12501*
X3474Y11789*
X3488Y11775*
X3725Y11775*
X3725Y11625*
X3488Y11625*
X3474Y11611*
X3474Y10899*
X3474Y10898*
X3476Y10866*
X3477Y10864*
X3484Y10831*
X3485Y10829*
X3498Y10798*
X3499Y10796*
X3516Y10768*
X3517Y10766*
X3539Y10741*
X3541Y10739*
X3566Y10717*
X3568Y10716*
X3596Y10699*
X3598Y10698*
X3629Y10685*
X3631Y10684*
X3664Y10677*
X3666Y10676*
X3698Y10674*
X3699Y10674*
X4311Y10674*
X4325Y10688*
X9477Y2149D02*
X9477Y2149D01*
X9509Y2151*
X9511Y2152*
X9544Y2159*
X9546Y2160*
X9577Y2173*
X9579Y2174*
X9607Y2191*
X9609Y2192*
X9634Y2214*
X9636Y2216*
X9658Y2241*
X9659Y2243*
X9676Y2271*
X9677Y2273*
X9690Y2304*
X9691Y2306*
X9698Y2339*
X9699Y2341*
X9701Y2374*
X9701Y2375*
X9701Y3625*
X9701Y3626*
X9699Y3659*
X9698Y3661*
X9691Y3694*
X9690Y3696*
X9677Y3727*
X9676Y3729*
X9659Y3757*
X9658Y3759*
X9636Y3784*
X9634Y3786*
X9609Y3808*
X9607Y3809*
X9579Y3826*
X9577Y3827*
X9546Y3840*
X9544Y3841*
X9511Y3848*
X9509Y3849*
X9476Y3851*
X9475Y3851*
X9330Y3851*
X9330Y10149*
X9476Y10149*
X9477Y10149*
X9509Y10151*
X9511Y10152*
X9544Y10159*
X9546Y10160*
X9577Y10173*
X9579Y10174*
X9607Y10191*
X9609Y10192*
X9634Y10214*
X9636Y10216*
X9658Y10241*
X9659Y10243*
X9676Y10271*
X9677Y10273*
X9690Y10304*
X9691Y10306*
X9698Y10339*
X9699Y10341*
X9701Y10374*
X9701Y10375*
X9701Y11625*
X9701Y11626*
X9699Y11659*
X9698Y11661*
X9691Y11694*
X9690Y11696*
X9677Y11727*
X9676Y11729*
X9659Y11757*
X9658Y11759*
X9636Y11784*
X9634Y11786*
X9609Y11808*
X9607Y11809*
X9579Y11826*
X9577Y11827*
X9546Y11840*
X9544Y11841*
X9511Y11848*
X9509Y11849*
X9476Y11851*
X9475Y11851*
X8225Y11851*
X8224Y11851*
X8191Y11849*
X8189Y11848*
X8156Y11841*
X8154Y11840*
X8123Y11827*
X8121Y11826*
X8093Y11809*
X8091Y11808*
X8066Y11786*
X8064Y11784*
X8042Y11759*
X8041Y11757*
X8024Y11729*
X8023Y11727*
X8010Y11696*
X8009Y11694*
X8002Y11661*
X8001Y11659*
X7999Y11627*
X7999Y11626*
X7999Y10828*
X7451Y10280*
X4624Y10280*
X4623Y10280*
X4533Y10271*
X4530Y10271*
X4442Y10244*
X4440Y10243*
X4408Y10226*
X3950Y10226*
X3949Y10226*
X3916Y10224*
X3914Y10223*
X3881Y10216*
X3879Y10215*
X3848Y10202*
X3846Y10201*
X3818Y10184*
X3816Y10183*
X3791Y10161*
X3789Y10159*
X3767Y10134*
X3766Y10132*
X3749Y10104*
X3748Y10102*
X3735Y10071*
X3734Y10069*
X3727Y10036*
X3726Y10034*
X3724Y10002*
X3724Y10001*
X3724Y9599*
X3724Y9598*
X3726Y9566*
X3727Y9564*
X3734Y9531*
X3735Y9529*
X3748Y9498*
X3749Y9496*
X3762Y9475*
X3749Y9454*
X3748Y9452*
X3735Y9421*
X3734Y9419*
X3727Y9386*
X3726Y9384*
X3724Y9352*
X3724Y9351*
X3724Y8949*
X3724Y8948*
X3726Y8916*
X3727Y8914*
X3734Y8881*
X3735Y8879*
X3748Y8848*
X3749Y8846*
X3762Y8825*
X3749Y8804*
X3748Y8802*
X3735Y8771*
X3734Y8769*
X3727Y8736*
X3726Y8734*
X3724Y8702*
X3724Y8701*
X3724Y8299*
X3724Y8298*
X3726Y8266*
X3727Y8264*
X3734Y8231*
X3735Y8229*
X3748Y8198*
X3749Y8196*
X3762Y8175*
X3749Y8154*
X3748Y8152*
X3735Y8121*
X3734Y8119*
X3727Y8086*
X3726Y8084*
X3724Y8052*
X3724Y8051*
X3724Y7649*
X3724Y7648*
X3726Y7616*
X3727Y7614*
X3734Y7581*
X3735Y7579*
X3748Y7548*
X3749Y7546*
X3762Y7525*
X3749Y7504*
X3748Y7502*
X3735Y7471*
X3734Y7469*
X3727Y7436*
X3726Y7434*
X3724Y7402*
X3724Y7401*
X3724Y7289*
X3738Y7275*
X3975Y7275*
X3975Y7125*
X3738Y7125*
X3724Y7111*
X3724Y6999*
X3724Y6998*
X3726Y6966*
X3727Y6964*
X3734Y6931*
X3735Y6929*
X3748Y6898*
X3749Y6896*
X3766Y6868*
X3767Y6866*
X3789Y6841*
X3791Y6839*
X3816Y6817*
X3818Y6816*
X3846Y6799*
X3848Y6798*
X3879Y6785*
X3881Y6784*
X3914Y6777*
X3916Y6776*
X3948Y6774*
X3949Y6774*
X4536Y6774*
X4550Y6788*
X4550Y7025*
X4700Y7025*
X4700Y6788*
X4714Y6774*
X5301Y6774*
X5302Y6774*
X5334Y6776*
X5336Y6777*
X5369Y6784*
X5371Y6785*
X5402Y6798*
X5404Y6799*
X5432Y6816*
X5434Y6817*
X5459Y6839*
X5461Y6841*
X5483Y6866*
X5484Y6868*
X5501Y6896*
X5502Y6898*
X5515Y6929*
X5516Y6931*
X5523Y6964*
X5524Y6966*
X5526Y6999*
X5526Y7000*
X5526Y7111*
X5512Y7125*
X5275Y7125*
X5275Y7275*
X5512Y7275*
X5526Y7289*
X5526Y7400*
X5526Y7401*
X5524Y7434*
X5523Y7436*
X5516Y7469*
X5515Y7471*
X5502Y7502*
X5501Y7504*
X5488Y7525*
X5501Y7546*
X5502Y7548*
X5515Y7579*
X5516Y7581*
X5523Y7614*
X5524Y7616*
X5526Y7649*
X5526Y7650*
X5526Y8050*
X5526Y8051*
X5524Y8084*
X5523Y8086*
X5516Y8119*
X5515Y8121*
X5502Y8152*
X5501Y8154*
X5488Y8175*
X5501Y8196*
X5502Y8198*
X5515Y8229*
X5516Y8231*
X5523Y8264*
X5524Y8266*
X5526Y8299*
X5526Y8300*
X5526Y8700*
X5526Y8701*
X5524Y8734*
X5523Y8736*
X5516Y8769*
X5515Y8771*
X5502Y8802*
X5501Y8804*
X5488Y8825*
X5501Y8846*
X5502Y8848*
X5515Y8879*
X5516Y8881*
X5523Y8914*
X5524Y8916*
X5526Y8949*
X5526Y8950*
X5526Y9320*
X7651Y9320*
X7652Y9320*
X7742Y9329*
X7745Y9329*
X7833Y9356*
X7835Y9357*
X7916Y9400*
X7918Y9401*
X7988Y9459*
X7989Y9460*
X8323Y9793*
X8370Y9774*
X8370Y3851*
X8225Y3851*
X8224Y3851*
X8191Y3849*
X8189Y3848*
X8156Y3841*
X8154Y3840*
X8123Y3827*
X8121Y3826*
X8093Y3809*
X8091Y3808*
X8066Y3786*
X8064Y3784*
X8042Y3759*
X8041Y3757*
X8024Y3729*
X8023Y3727*
X8010Y3696*
X8009Y3694*
X8002Y3661*
X8001Y3659*
X7999Y3627*
X7999Y3626*
X7999Y2374*
X7999Y2373*
X8001Y2341*
X8002Y2339*
X8009Y2306*
X8010Y2304*
X8023Y2273*
X8024Y2271*
X8041Y2243*
X8042Y2241*
X8064Y2216*
X8066Y2214*
X8091Y2192*
X8093Y2191*
X8121Y2174*
X8123Y2173*
X8154Y2160*
X8156Y2159*
X8189Y2152*
X8191Y2151*
X8223Y2149*
X8224Y2149*
X9476Y2149*
X9477Y2149*
X11315Y10168D02*
X11315Y10168D01*
X11315Y10404*
X11465Y10404*
X11465Y10168*
X11484Y10153*
X11690Y10203*
X11693Y10204*
X11872Y10298*
X11875Y10300*
X12026Y10434*
X12028Y10437*
X12143Y10603*
X12145Y10606*
X12216Y10795*
X12217Y10798*
X12230Y10908*
X12215Y10925*
X11990Y10925*
X11990Y11075*
X12215Y11075*
X12230Y11092*
X12217Y11202*
X12216Y11205*
X12145Y11394*
X12143Y11397*
X12028Y11563*
X12026Y11566*
X11875Y11700*
X11872Y11702*
X11693Y11796*
X11690Y11797*
X11484Y11847*
X11465Y11832*
X11465Y11596*
X11315Y11596*
X11315Y11832*
X11296Y11847*
X11090Y11797*
X11087Y11796*
X10908Y11702*
X10905Y11700*
X10754Y11566*
X10752Y11563*
X10637Y11397*
X10635Y11394*
X10564Y11205*
X10563Y11202*
X10550Y11092*
X10565Y11075*
X10790Y11075*
X10790Y10925*
X10565Y10925*
X10550Y10908*
X10563Y10798*
X10564Y10795*
X10635Y10606*
X10637Y10603*
X10752Y10437*
X10754Y10434*
X10905Y10300*
X10908Y10298*
X11087Y10204*
X11090Y10203*
X11296Y10153*
X11315Y10168*
X1875Y6138D02*
X1875Y6138D01*
X1875Y6375*
X2025Y6375*
X2025Y6138*
X2039Y6124*
X2901Y6124*
X2902Y6124*
X2934Y6126*
X2936Y6127*
X2969Y6134*
X2971Y6135*
X3002Y6148*
X3004Y6149*
X3032Y6166*
X3034Y6167*
X3059Y6189*
X3061Y6191*
X3083Y6216*
X3084Y6218*
X3101Y6246*
X3102Y6248*
X3115Y6279*
X3116Y6281*
X3123Y6314*
X3124Y6316*
X3126Y6349*
X3126Y6350*
X3126Y7211*
X3112Y7225*
X2875Y7225*
X2875Y7375*
X3112Y7375*
X3126Y7389*
X3126Y8250*
X3126Y8251*
X3124Y8284*
X3123Y8286*
X3116Y8319*
X3115Y8321*
X3102Y8352*
X3101Y8354*
X3084Y8382*
X3083Y8384*
X3061Y8409*
X3059Y8411*
X3034Y8433*
X3032Y8434*
X3004Y8451*
X3002Y8452*
X2948Y8475*
X2948Y8525*
X3002Y8548*
X3004Y8549*
X3032Y8566*
X3034Y8567*
X3059Y8589*
X3061Y8591*
X3083Y8616*
X3084Y8618*
X3101Y8646*
X3102Y8648*
X3115Y8679*
X3116Y8681*
X3123Y8714*
X3124Y8716*
X3126Y8749*
X3126Y8750*
X3126Y9611*
X3112Y9625*
X2875Y9625*
X2875Y9775*
X3112Y9775*
X3126Y9789*
X3126Y10650*
X3126Y10651*
X3124Y10684*
X3123Y10686*
X3116Y10719*
X3115Y10721*
X3102Y10752*
X3101Y10754*
X3084Y10782*
X3083Y10784*
X3061Y10809*
X3059Y10811*
X3034Y10833*
X3032Y10834*
X3004Y10851*
X3002Y10852*
X2971Y10865*
X2969Y10866*
X2936Y10873*
X2934Y10874*
X2901Y10876*
X2900Y10876*
X2039Y10876*
X2025Y10862*
X2025Y10625*
X1875Y10625*
X1875Y10862*
X1861Y10876*
X1000Y10876*
X0999Y10876*
X0966Y10874*
X0964Y10873*
X0931Y10866*
X0929Y10865*
X0898Y10852*
X0896Y10851*
X0868Y10834*
X0866Y10833*
X0841Y10811*
X0839Y10809*
X0817Y10784*
X0816Y10782*
X0799Y10754*
X0798Y10752*
X0785Y10721*
X0784Y10719*
X0777Y10686*
X0776Y10684*
X0774Y10652*
X0774Y10651*
X0774Y9789*
X0788Y9775*
X1025Y9775*
X1025Y9625*
X0788Y9625*
X0774Y9611*
X0774Y8749*
X0774Y8748*
X0776Y8716*
X0777Y8714*
X0784Y8681*
X0785Y8679*
X0798Y8648*
X0799Y8646*
X0816Y8618*
X0817Y8616*
X0839Y8591*
X0841Y8589*
X0866Y8567*
X0868Y8566*
X0896Y8549*
X0898Y8548*
X0952Y8525*
X0952Y8475*
X0898Y8452*
X0896Y8451*
X0868Y8434*
X0866Y8433*
X0841Y8411*
X0839Y8409*
X0817Y8384*
X0816Y8382*
X0799Y8354*
X0798Y8352*
X0785Y8321*
X0784Y8319*
X0777Y8286*
X0776Y8284*
X0774Y8252*
X0774Y8251*
X0774Y7389*
X0788Y7375*
X1025Y7375*
X1025Y7225*
X0788Y7225*
X0774Y7211*
X0774Y6349*
X0774Y6348*
X0776Y6316*
X0777Y6314*
X0784Y6281*
X0785Y6279*
X0798Y6248*
X0799Y6246*
X0816Y6218*
X0817Y6216*
X0839Y6191*
X0841Y6189*
X0866Y6167*
X0868Y6166*
X0896Y6149*
X0898Y6148*
X0929Y6135*
X0931Y6134*
X0964Y6127*
X0966Y6126*
X0998Y6124*
X0999Y6124*
X1861Y6124*
X1875Y6138*
X4325Y4288D02*
X4325Y4288D01*
X4325Y4525*
X4475Y4525*
X4475Y4288*
X4489Y4274*
X5101Y4274*
X5102Y4274*
X5134Y4276*
X5136Y4277*
X5169Y4284*
X5171Y4285*
X5202Y4298*
X5204Y4299*
X5232Y4316*
X5234Y4317*
X5259Y4339*
X5261Y4341*
X5283Y4366*
X5284Y4368*
X5301Y4396*
X5302Y4398*
X5315Y4429*
X5316Y4431*
X5323Y4464*
X5324Y4466*
X5326Y4499*
X5326Y4500*
X5326Y5211*
X5312Y5225*
X5075Y5225*
X5075Y5375*
X5312Y5375*
X5326Y5389*
X5326Y6100*
X5326Y6101*
X5324Y6134*
X5323Y6136*
X5316Y6169*
X5315Y6171*
X5302Y6202*
X5301Y6204*
X5284Y6232*
X5283Y6234*
X5261Y6259*
X5259Y6261*
X5234Y6283*
X5232Y6284*
X5204Y6301*
X5202Y6302*
X5171Y6315*
X5169Y6316*
X5136Y6323*
X5134Y6324*
X5101Y6326*
X5100Y6326*
X4489Y6326*
X4475Y6312*
X4475Y6075*
X4325Y6075*
X4325Y6312*
X4311Y6326*
X3700Y6326*
X3699Y6326*
X3666Y6324*
X3664Y6323*
X3631Y6316*
X3629Y6315*
X3598Y6302*
X3596Y6301*
X3568Y6284*
X3566Y6283*
X3541Y6261*
X3539Y6259*
X3517Y6234*
X3516Y6232*
X3499Y6204*
X3498Y6202*
X3485Y6171*
X3484Y6169*
X3477Y6136*
X3476Y6134*
X3474Y6102*
X3474Y6101*
X3474Y5389*
X3488Y5375*
X3725Y5375*
X3725Y5225*
X3488Y5225*
X3474Y5211*
X3474Y4499*
X3474Y4498*
X3476Y4466*
X3477Y4464*
X3484Y4431*
X3485Y4429*
X3498Y4398*
X3499Y4396*
X3516Y4368*
X3517Y4366*
X3539Y4341*
X3541Y4339*
X3566Y4317*
X3568Y4316*
X3596Y4299*
X3598Y4298*
X3629Y4285*
X3631Y4284*
X3664Y4277*
X3666Y4276*
X3698Y4274*
X3699Y4274*
X4311Y4274*
X4325Y4288*
X1875Y4138D02*
X1875Y4138D01*
X1875Y4375*
X2025Y4375*
X2025Y4138*
X2039Y4124*
X2601Y4124*
X2602Y4124*
X2634Y4126*
X2636Y4127*
X2669Y4134*
X2671Y4135*
X2702Y4148*
X2704Y4149*
X2732Y4166*
X2734Y4167*
X2759Y4189*
X2761Y4191*
X2783Y4216*
X2784Y4218*
X2801Y4246*
X2802Y4248*
X2815Y4279*
X2816Y4281*
X2823Y4314*
X2824Y4316*
X2826Y4349*
X2826Y4350*
X2826Y4986*
X2812Y5000*
X2575Y5000*
X2575Y5150*
X2812Y5150*
X2826Y5164*
X2826Y5800*
X2826Y5801*
X2824Y5834*
X2823Y5836*
X2816Y5869*
X2815Y5871*
X2802Y5902*
X2801Y5904*
X2784Y5932*
X2783Y5934*
X2761Y5959*
X2759Y5961*
X2734Y5983*
X2732Y5984*
X2704Y6001*
X2702Y6002*
X2671Y6015*
X2669Y6016*
X2636Y6023*
X2634Y6024*
X2601Y6026*
X2600Y6026*
X2039Y6026*
X2025Y6012*
X2025Y5775*
X1875Y5775*
X1875Y6012*
X1861Y6026*
X1300Y6026*
X1299Y6026*
X1266Y6024*
X1264Y6023*
X1231Y6016*
X1229Y6015*
X1198Y6002*
X1196Y6001*
X1168Y5984*
X1166Y5983*
X1141Y5961*
X1139Y5959*
X1117Y5934*
X1116Y5932*
X1099Y5904*
X1098Y5902*
X1085Y5871*
X1084Y5869*
X1077Y5836*
X1076Y5834*
X1074Y5802*
X1074Y5801*
X1074Y5164*
X1088Y5150*
X1325Y5150*
X1325Y5000*
X1088Y5000*
X1074Y4986*
X1074Y4349*
X1074Y4348*
X1076Y4316*
X1077Y4314*
X1084Y4281*
X1085Y4279*
X1098Y4248*
X1099Y4246*
X1116Y4218*
X1117Y4216*
X1139Y4191*
X1141Y4189*
X1166Y4167*
X1168Y4166*
X1196Y4149*
X1198Y4148*
X1229Y4135*
X1231Y4134*
X1264Y4127*
X1266Y4126*
X1298Y4124*
X1299Y4124*
X1861Y4124*
X1875Y4138*
X11315Y2168D02*
X11315Y2168D01*
X11315Y2404*
X11465Y2404*
X11465Y2168*
X11484Y2153*
X11690Y2203*
X11693Y2204*
X11872Y2298*
X11875Y2300*
X12026Y2434*
X12028Y2437*
X12143Y2603*
X12145Y2606*
X12216Y2795*
X12217Y2798*
X12230Y2908*
X12215Y2925*
X11990Y2925*
X11990Y3075*
X12215Y3075*
X12230Y3092*
X12217Y3202*
X12216Y3205*
X12145Y3394*
X12143Y3397*
X12028Y3563*
X12026Y3566*
X11875Y3700*
X11872Y3702*
X11693Y3796*
X11690Y3797*
X11484Y3847*
X11465Y3832*
X11465Y3596*
X11315Y3596*
X11315Y3832*
X11296Y3847*
X11090Y3797*
X11087Y3796*
X10908Y3702*
X10905Y3700*
X10754Y3566*
X10752Y3563*
X10637Y3397*
X10635Y3394*
X10564Y3205*
X10563Y3202*
X10550Y3092*
X10565Y3075*
X10790Y3075*
X10790Y2925*
X10565Y2925*
X10550Y2908*
X10563Y2798*
X10564Y2795*
X10635Y2606*
X10637Y2603*
X10752Y2437*
X10754Y2434*
X10905Y2300*
X10908Y2298*
X11087Y2204*
X11090Y2203*
X11296Y2153*
X11315Y2168*
X0525Y0550D02*
X12975Y0550D01*
X0525Y0599D02*
X12975Y0599D01*
X0525Y0649D02*
X12975Y0649D01*
X0525Y0698D02*
X12975Y0698D01*
X0525Y0748D02*
X12975Y0748D01*
X0525Y0797D02*
X12975Y0797D01*
X0525Y0847D02*
X12975Y0847D01*
X0525Y0896D02*
X12975Y0896D01*
X0525Y0946D02*
X12975Y0946D01*
X0525Y0995D02*
X12975Y0995D01*
X0525Y1045D02*
X12975Y1045D01*
X0525Y1094D02*
X12975Y1094D01*
X0525Y1144D02*
X12975Y1144D01*
X0525Y1193D02*
X12975Y1193D01*
X0525Y1243D02*
X12975Y1243D01*
X0525Y1292D02*
X12975Y1292D01*
X0525Y1342D02*
X12975Y1342D01*
X0525Y1392D02*
X12975Y1392D01*
X0525Y1441D02*
X12975Y1441D01*
X0525Y1491D02*
X12975Y1491D01*
X0525Y1540D02*
X12975Y1540D01*
X0525Y1590D02*
X12975Y1590D01*
X0525Y1639D02*
X12975Y1639D01*
X0525Y1689D02*
X12975Y1689D01*
X0525Y1738D02*
X12975Y1738D01*
X0525Y1788D02*
X12975Y1788D01*
X0525Y1837D02*
X12975Y1837D01*
X0525Y1887D02*
X12975Y1887D01*
X0525Y1936D02*
X12975Y1936D01*
X0525Y1986D02*
X12975Y1986D01*
X0525Y2035D02*
X12975Y2035D01*
X0525Y2085D02*
X12975Y2085D01*
X0525Y2134D02*
X12975Y2134D01*
X0525Y2184D02*
X8105Y2184D01*
X9595Y2184D02*
X11168Y2184D01*
X11315Y2184D02*
X11465Y2184D01*
X11612Y2184D02*
X12975Y2184D01*
X0525Y2234D02*
X8049Y2234D01*
X9651Y2234D02*
X11031Y2234D01*
X11315Y2234D02*
X11465Y2234D01*
X11749Y2234D02*
X12975Y2234D01*
X0525Y2283D02*
X8019Y2283D01*
X9681Y2283D02*
X10937Y2283D01*
X11315Y2283D02*
X11465Y2283D01*
X11843Y2283D02*
X12975Y2283D01*
X0525Y2333D02*
X8003Y2333D01*
X9697Y2333D02*
X10868Y2333D01*
X11315Y2333D02*
X11465Y2333D01*
X11912Y2333D02*
X12975Y2333D01*
X0525Y2382D02*
X7999Y2382D01*
X9701Y2382D02*
X10813Y2382D01*
X11315Y2382D02*
X11465Y2382D01*
X11967Y2382D02*
X12975Y2382D01*
X0525Y2432D02*
X7999Y2432D01*
X9701Y2432D02*
X10757Y2432D01*
X12023Y2432D02*
X12975Y2432D01*
X0525Y2481D02*
X7999Y2481D01*
X9701Y2481D02*
X10721Y2481D01*
X12059Y2481D02*
X12975Y2481D01*
X0525Y2531D02*
X7999Y2531D01*
X9701Y2531D02*
X10687Y2531D01*
X12093Y2531D02*
X12975Y2531D01*
X0525Y2580D02*
X7999Y2580D01*
X9701Y2580D02*
X10653Y2580D01*
X12127Y2580D02*
X12975Y2580D01*
X0525Y2630D02*
X7999Y2630D01*
X9701Y2630D02*
X10626Y2630D01*
X12154Y2630D02*
X12975Y2630D01*
X0525Y2679D02*
X7999Y2679D01*
X9701Y2679D02*
X10607Y2679D01*
X12173Y2679D02*
X12975Y2679D01*
X0525Y2729D02*
X7999Y2729D01*
X9701Y2729D02*
X10589Y2729D01*
X12191Y2729D02*
X12975Y2729D01*
X0525Y2778D02*
X7999Y2778D01*
X9701Y2778D02*
X10570Y2778D01*
X12210Y2778D02*
X12975Y2778D01*
X0525Y2828D02*
X7999Y2828D01*
X9701Y2828D02*
X10559Y2828D01*
X12221Y2828D02*
X12975Y2828D01*
X0525Y2877D02*
X7999Y2877D01*
X9701Y2877D02*
X10553Y2877D01*
X12227Y2877D02*
X12975Y2877D01*
X0525Y2927D02*
X7999Y2927D01*
X9701Y2927D02*
X10790Y2927D01*
X11990Y2927D02*
X12975Y2927D01*
X0525Y2977D02*
X7999Y2977D01*
X9701Y2977D02*
X10790Y2977D01*
X11990Y2977D02*
X12975Y2977D01*
X0525Y3026D02*
X7999Y3026D01*
X9701Y3026D02*
X10790Y3026D01*
X11990Y3026D02*
X12975Y3026D01*
X0525Y3076D02*
X7999Y3076D01*
X9701Y3076D02*
X10564Y3076D01*
X12216Y3076D02*
X12975Y3076D01*
X0525Y3125D02*
X7999Y3125D01*
X9701Y3125D02*
X10554Y3125D01*
X12226Y3125D02*
X12975Y3125D01*
X0525Y3175D02*
X7999Y3175D01*
X9701Y3175D02*
X10560Y3175D01*
X12220Y3175D02*
X12975Y3175D01*
X0525Y3224D02*
X7999Y3224D01*
X9701Y3224D02*
X10571Y3224D01*
X12209Y3224D02*
X12975Y3224D01*
X0525Y3274D02*
X7999Y3274D01*
X9701Y3274D02*
X10590Y3274D01*
X12190Y3274D02*
X12975Y3274D01*
X0525Y3323D02*
X7999Y3323D01*
X9701Y3323D02*
X10608Y3323D01*
X12172Y3323D02*
X12975Y3323D01*
X0525Y3373D02*
X7999Y3373D01*
X9701Y3373D02*
X10627Y3373D01*
X12153Y3373D02*
X12975Y3373D01*
X0525Y3422D02*
X7999Y3422D01*
X9701Y3422D02*
X10654Y3422D01*
X12126Y3422D02*
X12975Y3422D01*
X0525Y3472D02*
X7999Y3472D01*
X9701Y3472D02*
X10688Y3472D01*
X12092Y3472D02*
X12975Y3472D01*
X0525Y3521D02*
X7999Y3521D01*
X9701Y3521D02*
X10723Y3521D01*
X12057Y3521D02*
X12975Y3521D01*
X0525Y3571D02*
X7999Y3571D01*
X9701Y3571D02*
X10760Y3571D01*
X12020Y3571D02*
X12975Y3571D01*
X0525Y3620D02*
X7999Y3620D01*
X9701Y3620D02*
X10815Y3620D01*
X11315Y3620D02*
X11465Y3620D01*
X11965Y3620D02*
X12975Y3620D01*
X0525Y3670D02*
X8004Y3670D01*
X9696Y3670D02*
X10871Y3670D01*
X11315Y3670D02*
X11465Y3670D01*
X11909Y3670D02*
X12975Y3670D01*
X0525Y3719D02*
X8020Y3719D01*
X9680Y3719D02*
X10942Y3719D01*
X11315Y3719D02*
X11465Y3719D01*
X11838Y3719D02*
X12975Y3719D01*
X0525Y3769D02*
X8051Y3769D01*
X9649Y3769D02*
X11036Y3769D01*
X11315Y3769D02*
X11465Y3769D01*
X11744Y3769D02*
X12975Y3769D01*
X0525Y3819D02*
X8109Y3819D01*
X9591Y3819D02*
X11178Y3819D01*
X11315Y3819D02*
X11465Y3819D01*
X11602Y3819D02*
X12975Y3819D01*
X0525Y3868D02*
X8370Y3868D01*
X9330Y3868D02*
X12975Y3868D01*
X0525Y3918D02*
X8370Y3918D01*
X9330Y3918D02*
X12975Y3918D01*
X0525Y3967D02*
X8370Y3967D01*
X9330Y3967D02*
X12975Y3967D01*
X0525Y4017D02*
X8370Y4017D01*
X9330Y4017D02*
X12975Y4017D01*
X0525Y4066D02*
X8370Y4066D01*
X9330Y4066D02*
X12975Y4066D01*
X0525Y4116D02*
X8370Y4116D01*
X9330Y4116D02*
X12975Y4116D01*
X0525Y4165D02*
X1169Y4165D01*
X1875Y4165D02*
X2025Y4165D01*
X2731Y4165D02*
X8370Y4165D01*
X9330Y4165D02*
X12975Y4165D01*
X0525Y4215D02*
X1119Y4215D01*
X1875Y4215D02*
X2025Y4215D01*
X2781Y4215D02*
X8370Y4215D01*
X9330Y4215D02*
X12975Y4215D01*
X0525Y4264D02*
X1091Y4264D01*
X1875Y4264D02*
X2025Y4264D01*
X2809Y4264D02*
X8370Y4264D01*
X9330Y4264D02*
X12975Y4264D01*
X0525Y4314D02*
X1077Y4314D01*
X1875Y4314D02*
X2025Y4314D01*
X2823Y4314D02*
X3572Y4314D01*
X4325Y4314D02*
X4475Y4314D01*
X5228Y4314D02*
X8370Y4314D01*
X9330Y4314D02*
X12975Y4314D01*
X0525Y4363D02*
X1074Y4363D01*
X1875Y4363D02*
X2025Y4363D01*
X2826Y4363D02*
X3520Y4363D01*
X4325Y4363D02*
X4475Y4363D01*
X5280Y4363D02*
X8370Y4363D01*
X9330Y4363D02*
X12975Y4363D01*
X0525Y4413D02*
X1074Y4413D01*
X2826Y4413D02*
X3492Y4413D01*
X4325Y4413D02*
X4475Y4413D01*
X5308Y4413D02*
X8370Y4413D01*
X9330Y4413D02*
X12975Y4413D01*
X0525Y4462D02*
X1074Y4462D01*
X2826Y4462D02*
X3477Y4462D01*
X4325Y4462D02*
X4475Y4462D01*
X5323Y4462D02*
X8370Y4462D01*
X9330Y4462D02*
X12975Y4462D01*
X0525Y4512D02*
X1074Y4512D01*
X2826Y4512D02*
X3474Y4512D01*
X4325Y4512D02*
X4475Y4512D01*
X5326Y4512D02*
X8370Y4512D01*
X9330Y4512D02*
X12975Y4512D01*
X0525Y4561D02*
X1074Y4561D01*
X2826Y4561D02*
X3474Y4561D01*
X5326Y4561D02*
X8370Y4561D01*
X9330Y4561D02*
X12975Y4561D01*
X0525Y4611D02*
X1074Y4611D01*
X2826Y4611D02*
X3474Y4611D01*
X5326Y4611D02*
X8370Y4611D01*
X9330Y4611D02*
X12975Y4611D01*
X0525Y4661D02*
X1074Y4661D01*
X2826Y4661D02*
X3474Y4661D01*
X5326Y4661D02*
X8370Y4661D01*
X9330Y4661D02*
X12975Y4661D01*
X0525Y4710D02*
X1074Y4710D01*
X2826Y4710D02*
X3474Y4710D01*
X5326Y4710D02*
X8370Y4710D01*
X9330Y4710D02*
X12975Y4710D01*
X0525Y4760D02*
X1074Y4760D01*
X2826Y4760D02*
X3474Y4760D01*
X5326Y4760D02*
X8370Y4760D01*
X9330Y4760D02*
X12975Y4760D01*
X0525Y4809D02*
X1074Y4809D01*
X2826Y4809D02*
X3474Y4809D01*
X5326Y4809D02*
X8370Y4809D01*
X9330Y4809D02*
X12975Y4809D01*
X0525Y4859D02*
X1074Y4859D01*
X2826Y4859D02*
X3474Y4859D01*
X5326Y4859D02*
X8370Y4859D01*
X9330Y4859D02*
X12975Y4859D01*
X0525Y4908D02*
X1074Y4908D01*
X2826Y4908D02*
X3474Y4908D01*
X5326Y4908D02*
X8370Y4908D01*
X9330Y4908D02*
X12975Y4908D01*
X0525Y4958D02*
X1074Y4958D01*
X2826Y4958D02*
X3474Y4958D01*
X5326Y4958D02*
X8370Y4958D01*
X9330Y4958D02*
X12975Y4958D01*
X0525Y5007D02*
X1325Y5007D01*
X2575Y5007D02*
X3474Y5007D01*
X5326Y5007D02*
X8370Y5007D01*
X9330Y5007D02*
X12975Y5007D01*
X0525Y5057D02*
X1325Y5057D01*
X2575Y5057D02*
X3474Y5057D01*
X5326Y5057D02*
X8370Y5057D01*
X9330Y5057D02*
X12975Y5057D01*
X0525Y5106D02*
X1325Y5106D01*
X2575Y5106D02*
X3474Y5106D01*
X5326Y5106D02*
X8370Y5106D01*
X9330Y5106D02*
X12975Y5106D01*
X0525Y5156D02*
X1082Y5156D01*
X2818Y5156D02*
X3474Y5156D01*
X5326Y5156D02*
X8370Y5156D01*
X9330Y5156D02*
X12975Y5156D01*
X0525Y5205D02*
X1074Y5205D01*
X2826Y5205D02*
X3474Y5205D01*
X5326Y5205D02*
X8370Y5205D01*
X9330Y5205D02*
X12975Y5205D01*
X0525Y5255D02*
X1074Y5255D01*
X2826Y5255D02*
X3725Y5255D01*
X5075Y5255D02*
X8370Y5255D01*
X9330Y5255D02*
X12975Y5255D01*
X0525Y5304D02*
X1074Y5304D01*
X2826Y5304D02*
X3725Y5304D01*
X5075Y5304D02*
X8370Y5304D01*
X9330Y5304D02*
X12975Y5304D01*
X0525Y5354D02*
X1074Y5354D01*
X2826Y5354D02*
X3725Y5354D01*
X5075Y5354D02*
X8370Y5354D01*
X9330Y5354D02*
X12975Y5354D01*
X0525Y5403D02*
X1074Y5403D01*
X2826Y5403D02*
X3474Y5403D01*
X5326Y5403D02*
X8370Y5403D01*
X9330Y5403D02*
X12975Y5403D01*
X0525Y5453D02*
X1074Y5453D01*
X2826Y5453D02*
X3474Y5453D01*
X5326Y5453D02*
X8370Y5453D01*
X9330Y5453D02*
X12975Y5453D01*
X0525Y5503D02*
X1074Y5503D01*
X2826Y5503D02*
X3474Y5503D01*
X5326Y5503D02*
X8370Y5503D01*
X9330Y5503D02*
X12975Y5503D01*
X0525Y5552D02*
X1074Y5552D01*
X2826Y5552D02*
X3474Y5552D01*
X5326Y5552D02*
X8370Y5552D01*
X9330Y5552D02*
X12975Y5552D01*
X0525Y5602D02*
X1074Y5602D01*
X2826Y5602D02*
X3474Y5602D01*
X5326Y5602D02*
X8370Y5602D01*
X9330Y5602D02*
X12975Y5602D01*
X0525Y5651D02*
X1074Y5651D01*
X2826Y5651D02*
X3474Y5651D01*
X5326Y5651D02*
X8370Y5651D01*
X9330Y5651D02*
X12975Y5651D01*
X0525Y5701D02*
X1074Y5701D01*
X2826Y5701D02*
X3474Y5701D01*
X5326Y5701D02*
X8370Y5701D01*
X9330Y5701D02*
X12975Y5701D01*
X0525Y5750D02*
X1074Y5750D01*
X2826Y5750D02*
X3474Y5750D01*
X5326Y5750D02*
X8370Y5750D01*
X9330Y5750D02*
X12975Y5750D01*
X0525Y5800D02*
X1074Y5800D01*
X1875Y5800D02*
X2025Y5800D01*
X2826Y5800D02*
X3474Y5800D01*
X5326Y5800D02*
X8370Y5800D01*
X9330Y5800D02*
X12975Y5800D01*
X0525Y5849D02*
X1080Y5849D01*
X1875Y5849D02*
X2025Y5849D01*
X2820Y5849D02*
X3474Y5849D01*
X5326Y5849D02*
X8370Y5849D01*
X9330Y5849D02*
X12975Y5849D01*
X0525Y5899D02*
X1097Y5899D01*
X1875Y5899D02*
X2025Y5899D01*
X2803Y5899D02*
X3474Y5899D01*
X5326Y5899D02*
X8370Y5899D01*
X9330Y5899D02*
X12975Y5899D01*
X0525Y5948D02*
X1130Y5948D01*
X1875Y5948D02*
X2025Y5948D01*
X2770Y5948D02*
X3474Y5948D01*
X5326Y5948D02*
X8370Y5948D01*
X9330Y5948D02*
X12975Y5948D01*
X0525Y5998D02*
X1191Y5998D01*
X1875Y5998D02*
X2025Y5998D01*
X2709Y5998D02*
X3474Y5998D01*
X5326Y5998D02*
X8370Y5998D01*
X9330Y5998D02*
X12975Y5998D01*
X0525Y6047D02*
X3474Y6047D01*
X5326Y6047D02*
X8370Y6047D01*
X9330Y6047D02*
X12975Y6047D01*
X0525Y6097D02*
X3474Y6097D01*
X4325Y6097D02*
X4475Y6097D01*
X5326Y6097D02*
X8370Y6097D01*
X9330Y6097D02*
X12975Y6097D01*
X0525Y6146D02*
X0901Y6146D01*
X1875Y6146D02*
X2025Y6146D01*
X2999Y6146D02*
X3479Y6146D01*
X4325Y6146D02*
X4475Y6146D01*
X5321Y6146D02*
X8370Y6146D01*
X9330Y6146D02*
X12975Y6146D01*
X0525Y6196D02*
X0835Y6196D01*
X1875Y6196D02*
X2025Y6196D01*
X3065Y6196D02*
X3495Y6196D01*
X4325Y6196D02*
X4475Y6196D01*
X5305Y6196D02*
X8370Y6196D01*
X9330Y6196D02*
X12975Y6196D01*
X0525Y6245D02*
X0799Y6245D01*
X1875Y6245D02*
X2025Y6245D01*
X3101Y6245D02*
X3527Y6245D01*
X4325Y6245D02*
X4475Y6245D01*
X5273Y6245D02*
X8370Y6245D01*
X9330Y6245D02*
X12975Y6245D01*
X0525Y6295D02*
X0781Y6295D01*
X1875Y6295D02*
X2025Y6295D01*
X3119Y6295D02*
X3586Y6295D01*
X4325Y6295D02*
X4475Y6295D01*
X5214Y6295D02*
X8370Y6295D01*
X9330Y6295D02*
X12975Y6295D01*
X0525Y6345D02*
X0774Y6345D01*
X1875Y6345D02*
X2025Y6345D01*
X3126Y6345D02*
X8370Y6345D01*
X9330Y6345D02*
X12975Y6345D01*
X0525Y6394D02*
X0774Y6394D01*
X3126Y6394D02*
X8370Y6394D01*
X9330Y6394D02*
X12975Y6394D01*
X0525Y6444D02*
X0774Y6444D01*
X3126Y6444D02*
X8370Y6444D01*
X9330Y6444D02*
X12975Y6444D01*
X0525Y6493D02*
X0774Y6493D01*
X3126Y6493D02*
X8370Y6493D01*
X9330Y6493D02*
X12975Y6493D01*
X0525Y6543D02*
X0774Y6543D01*
X3126Y6543D02*
X8370Y6543D01*
X9330Y6543D02*
X12975Y6543D01*
X0525Y6592D02*
X0774Y6592D01*
X3126Y6592D02*
X8370Y6592D01*
X9330Y6592D02*
X12975Y6592D01*
X0525Y6642D02*
X0774Y6642D01*
X3126Y6642D02*
X8370Y6642D01*
X9330Y6642D02*
X12975Y6642D01*
X0525Y6691D02*
X0774Y6691D01*
X3126Y6691D02*
X8370Y6691D01*
X9330Y6691D02*
X12975Y6691D01*
X0525Y6741D02*
X0774Y6741D01*
X3126Y6741D02*
X8370Y6741D01*
X9330Y6741D02*
X12975Y6741D01*
X0525Y6790D02*
X0774Y6790D01*
X3126Y6790D02*
X3866Y6790D01*
X4550Y6790D02*
X4700Y6790D01*
X5384Y6790D02*
X8370Y6790D01*
X9330Y6790D02*
X12975Y6790D01*
X0525Y6840D02*
X0774Y6840D01*
X3126Y6840D02*
X3790Y6840D01*
X4550Y6840D02*
X4700Y6840D01*
X5460Y6840D02*
X8370Y6840D01*
X9330Y6840D02*
X12975Y6840D01*
X0525Y6889D02*
X0774Y6889D01*
X3126Y6889D02*
X3753Y6889D01*
X4550Y6889D02*
X4700Y6889D01*
X5497Y6889D02*
X8370Y6889D01*
X9330Y6889D02*
X12975Y6889D01*
X0525Y6939D02*
X0774Y6939D01*
X3126Y6939D02*
X3732Y6939D01*
X4550Y6939D02*
X4700Y6939D01*
X5518Y6939D02*
X8370Y6939D01*
X9330Y6939D02*
X12975Y6939D01*
X0525Y6988D02*
X0774Y6988D01*
X3126Y6988D02*
X3724Y6988D01*
X4550Y6988D02*
X4700Y6988D01*
X5526Y6988D02*
X8370Y6988D01*
X9330Y6988D02*
X12975Y6988D01*
X0525Y7038D02*
X0774Y7038D01*
X3126Y7038D02*
X3724Y7038D01*
X5526Y7038D02*
X8370Y7038D01*
X9330Y7038D02*
X12975Y7038D01*
X0525Y7087D02*
X0774Y7087D01*
X3126Y7087D02*
X3724Y7087D01*
X5526Y7087D02*
X8370Y7087D01*
X9330Y7087D02*
X12975Y7087D01*
X0525Y7137D02*
X0774Y7137D01*
X3126Y7137D02*
X3975Y7137D01*
X5275Y7137D02*
X8370Y7137D01*
X9330Y7137D02*
X12975Y7137D01*
X0525Y7187D02*
X0774Y7187D01*
X3126Y7187D02*
X3975Y7187D01*
X5275Y7187D02*
X8370Y7187D01*
X9330Y7187D02*
X12975Y7187D01*
X0525Y7236D02*
X1025Y7236D01*
X2875Y7236D02*
X3975Y7236D01*
X5275Y7236D02*
X8370Y7236D01*
X9330Y7236D02*
X12975Y7236D01*
X0525Y7286D02*
X1025Y7286D01*
X2875Y7286D02*
X3727Y7286D01*
X5523Y7286D02*
X8370Y7286D01*
X9330Y7286D02*
X12975Y7286D01*
X0525Y7335D02*
X1025Y7335D01*
X2875Y7335D02*
X3724Y7335D01*
X5526Y7335D02*
X8370Y7335D01*
X9330Y7335D02*
X12975Y7335D01*
X0525Y7385D02*
X0778Y7385D01*
X3122Y7385D02*
X3724Y7385D01*
X5526Y7385D02*
X8370Y7385D01*
X9330Y7385D02*
X12975Y7385D01*
X0525Y7434D02*
X0774Y7434D01*
X3126Y7434D02*
X3726Y7434D01*
X5524Y7434D02*
X8370Y7434D01*
X9330Y7434D02*
X12975Y7434D01*
X0525Y7484D02*
X0774Y7484D01*
X3126Y7484D02*
X3740Y7484D01*
X5510Y7484D02*
X8370Y7484D01*
X9330Y7484D02*
X12975Y7484D01*
X0525Y7533D02*
X0774Y7533D01*
X3126Y7533D02*
X3757Y7533D01*
X5493Y7533D02*
X8370Y7533D01*
X9330Y7533D02*
X12975Y7533D01*
X0525Y7583D02*
X0774Y7583D01*
X3126Y7583D02*
X3734Y7583D01*
X5516Y7583D02*
X8370Y7583D01*
X9330Y7583D02*
X12975Y7583D01*
X0525Y7632D02*
X0774Y7632D01*
X3126Y7632D02*
X3725Y7632D01*
X5525Y7632D02*
X8370Y7632D01*
X9330Y7632D02*
X12975Y7632D01*
X0525Y7682D02*
X0774Y7682D01*
X3126Y7682D02*
X3724Y7682D01*
X5526Y7682D02*
X8370Y7682D01*
X9330Y7682D02*
X12975Y7682D01*
X0525Y7731D02*
X0774Y7731D01*
X3126Y7731D02*
X3724Y7731D01*
X5526Y7731D02*
X8370Y7731D01*
X9330Y7731D02*
X12975Y7731D01*
X0525Y7781D02*
X0774Y7781D01*
X3126Y7781D02*
X3724Y7781D01*
X5526Y7781D02*
X8370Y7781D01*
X9330Y7781D02*
X12975Y7781D01*
X0525Y7830D02*
X0774Y7830D01*
X3126Y7830D02*
X3724Y7830D01*
X5526Y7830D02*
X8370Y7830D01*
X9330Y7830D02*
X12975Y7830D01*
X0525Y7880D02*
X0774Y7880D01*
X3126Y7880D02*
X3724Y7880D01*
X5526Y7880D02*
X8370Y7880D01*
X9330Y7880D02*
X12975Y7880D01*
X0525Y7929D02*
X0774Y7929D01*
X3126Y7929D02*
X3724Y7929D01*
X5526Y7929D02*
X8370Y7929D01*
X9330Y7929D02*
X12975Y7929D01*
X0525Y7979D02*
X0774Y7979D01*
X3126Y7979D02*
X3724Y7979D01*
X5526Y7979D02*
X8370Y7979D01*
X9330Y7979D02*
X12975Y7979D01*
X0525Y8029D02*
X0774Y8029D01*
X3126Y8029D02*
X3724Y8029D01*
X5526Y8029D02*
X8370Y8029D01*
X9330Y8029D02*
X12975Y8029D01*
X0525Y8078D02*
X0774Y8078D01*
X3126Y8078D02*
X3726Y8078D01*
X5524Y8078D02*
X8370Y8078D01*
X9330Y8078D02*
X12975Y8078D01*
X0525Y8128D02*
X0774Y8128D01*
X3126Y8128D02*
X3738Y8128D01*
X5512Y8128D02*
X8370Y8128D01*
X9330Y8128D02*
X12975Y8128D01*
X0525Y8177D02*
X0774Y8177D01*
X3126Y8177D02*
X3760Y8177D01*
X5490Y8177D02*
X8370Y8177D01*
X9330Y8177D02*
X12975Y8177D01*
X0525Y8227D02*
X0774Y8227D01*
X3126Y8227D02*
X3736Y8227D01*
X5514Y8227D02*
X8370Y8227D01*
X9330Y8227D02*
X12975Y8227D01*
X0525Y8276D02*
X0776Y8276D01*
X3124Y8276D02*
X3725Y8276D01*
X5525Y8276D02*
X8370Y8276D01*
X9330Y8276D02*
X12975Y8276D01*
X0525Y8326D02*
X0787Y8326D01*
X3113Y8326D02*
X3724Y8326D01*
X5526Y8326D02*
X8370Y8326D01*
X9330Y8326D02*
X12975Y8326D01*
X0525Y8375D02*
X0812Y8375D01*
X3088Y8375D02*
X3724Y8375D01*
X5526Y8375D02*
X8370Y8375D01*
X9330Y8375D02*
X12975Y8375D01*
X0525Y8425D02*
X0857Y8425D01*
X3043Y8425D02*
X3724Y8425D01*
X5526Y8425D02*
X8370Y8425D01*
X9330Y8425D02*
X12975Y8425D01*
X0525Y8474D02*
X0952Y8474D01*
X2948Y8474D02*
X3724Y8474D01*
X5526Y8474D02*
X8370Y8474D01*
X9330Y8474D02*
X12975Y8474D01*
X0525Y8524D02*
X0952Y8524D01*
X2948Y8524D02*
X3724Y8524D01*
X5526Y8524D02*
X8370Y8524D01*
X9330Y8524D02*
X12975Y8524D01*
X0525Y8573D02*
X0859Y8573D01*
X3041Y8573D02*
X3724Y8573D01*
X5526Y8573D02*
X8370Y8573D01*
X9330Y8573D02*
X12975Y8573D01*
X0525Y8623D02*
X0813Y8623D01*
X3087Y8623D02*
X3724Y8623D01*
X5526Y8623D02*
X8370Y8623D01*
X9330Y8623D02*
X12975Y8623D01*
X0525Y8672D02*
X0788Y8672D01*
X3112Y8672D02*
X3724Y8672D01*
X5526Y8672D02*
X8370Y8672D01*
X9330Y8672D02*
X12975Y8672D01*
X0525Y8722D02*
X0776Y8722D01*
X3124Y8722D02*
X3725Y8722D01*
X5525Y8722D02*
X8370Y8722D01*
X9330Y8722D02*
X12975Y8722D01*
X0525Y8772D02*
X0774Y8772D01*
X3126Y8772D02*
X3735Y8772D01*
X5515Y8772D02*
X8370Y8772D01*
X9330Y8772D02*
X12975Y8772D01*
X0525Y8821D02*
X0774Y8821D01*
X3126Y8821D02*
X3759Y8821D01*
X5491Y8821D02*
X8370Y8821D01*
X9330Y8821D02*
X12975Y8821D01*
X0525Y8871D02*
X0774Y8871D01*
X3126Y8871D02*
X3739Y8871D01*
X5511Y8871D02*
X8370Y8871D01*
X9330Y8871D02*
X12975Y8871D01*
X0525Y8920D02*
X0774Y8920D01*
X3126Y8920D02*
X3726Y8920D01*
X5524Y8920D02*
X8370Y8920D01*
X9330Y8920D02*
X12975Y8920D01*
X0525Y8970D02*
X0774Y8970D01*
X3126Y8970D02*
X3724Y8970D01*
X5526Y8970D02*
X8370Y8970D01*
X9330Y8970D02*
X12975Y8970D01*
X0525Y9019D02*
X0774Y9019D01*
X3126Y9019D02*
X3724Y9019D01*
X5526Y9019D02*
X8370Y9019D01*
X9330Y9019D02*
X12975Y9019D01*
X0525Y9069D02*
X0774Y9069D01*
X3126Y9069D02*
X3724Y9069D01*
X5526Y9069D02*
X8370Y9069D01*
X9330Y9069D02*
X12975Y9069D01*
X0525Y9118D02*
X0774Y9118D01*
X3126Y9118D02*
X3724Y9118D01*
X5526Y9118D02*
X8370Y9118D01*
X9330Y9118D02*
X12975Y9118D01*
X0525Y9168D02*
X0774Y9168D01*
X3126Y9168D02*
X3724Y9168D01*
X5526Y9168D02*
X8370Y9168D01*
X9330Y9168D02*
X12975Y9168D01*
X0525Y9217D02*
X0774Y9217D01*
X3126Y9217D02*
X3724Y9217D01*
X5526Y9217D02*
X8370Y9217D01*
X9330Y9217D02*
X12975Y9217D01*
X0525Y9267D02*
X0774Y9267D01*
X3126Y9267D02*
X3724Y9267D01*
X5526Y9267D02*
X8370Y9267D01*
X9330Y9267D02*
X12975Y9267D01*
X0525Y9316D02*
X0774Y9316D01*
X3126Y9316D02*
X3724Y9316D01*
X5526Y9316D02*
X8370Y9316D01*
X9330Y9316D02*
X12975Y9316D01*
X0525Y9366D02*
X0774Y9366D01*
X3126Y9366D02*
X3725Y9366D01*
X7852Y9366D02*
X8370Y9366D01*
X9330Y9366D02*
X12975Y9366D01*
X0525Y9415D02*
X0774Y9415D01*
X3126Y9415D02*
X3734Y9415D01*
X7935Y9415D02*
X8370Y9415D01*
X9330Y9415D02*
X12975Y9415D01*
X0525Y9465D02*
X0774Y9465D01*
X3126Y9465D02*
X3756Y9465D01*
X7994Y9465D02*
X8370Y9465D01*
X9330Y9465D02*
X12975Y9465D01*
X0525Y9514D02*
X0774Y9514D01*
X3126Y9514D02*
X3741Y9514D01*
X8044Y9514D02*
X8370Y9514D01*
X9330Y9514D02*
X12975Y9514D01*
X0525Y9564D02*
X0774Y9564D01*
X3126Y9564D02*
X3726Y9564D01*
X8093Y9564D02*
X8370Y9564D01*
X9330Y9564D02*
X12975Y9564D01*
X0525Y9614D02*
X0777Y9614D01*
X3123Y9614D02*
X3724Y9614D01*
X8143Y9614D02*
X8370Y9614D01*
X9330Y9614D02*
X12975Y9614D01*
X0525Y9663D02*
X1025Y9663D01*
X2875Y9663D02*
X3724Y9663D01*
X8192Y9663D02*
X8370Y9663D01*
X9330Y9663D02*
X12975Y9663D01*
X0525Y9713D02*
X1025Y9713D01*
X2875Y9713D02*
X3724Y9713D01*
X8242Y9713D02*
X8370Y9713D01*
X9330Y9713D02*
X12975Y9713D01*
X0525Y9762D02*
X1025Y9762D01*
X2875Y9762D02*
X3724Y9762D01*
X8291Y9762D02*
X8370Y9762D01*
X9330Y9762D02*
X12975Y9762D01*
X0525Y9812D02*
X0774Y9812D01*
X3126Y9812D02*
X3724Y9812D01*
X9330Y9812D02*
X12975Y9812D01*
X0525Y9861D02*
X0774Y9861D01*
X3126Y9861D02*
X3724Y9861D01*
X9330Y9861D02*
X12975Y9861D01*
X0525Y9911D02*
X0774Y9911D01*
X3126Y9911D02*
X3724Y9911D01*
X9330Y9911D02*
X12975Y9911D01*
X0525Y9960D02*
X0774Y9960D01*
X3126Y9960D02*
X3724Y9960D01*
X9330Y9960D02*
X12975Y9960D01*
X0525Y10010D02*
X0774Y10010D01*
X3126Y10010D02*
X3724Y10010D01*
X9330Y10010D02*
X12975Y10010D01*
X0525Y10059D02*
X0774Y10059D01*
X3126Y10059D02*
X3732Y10059D01*
X9330Y10059D02*
X12975Y10059D01*
X0525Y10109D02*
X0774Y10109D01*
X3126Y10109D02*
X3752Y10109D01*
X9330Y10109D02*
X12975Y10109D01*
X0525Y10158D02*
X0774Y10158D01*
X3126Y10158D02*
X3788Y10158D01*
X9540Y10158D02*
X11272Y10158D01*
X11303Y10158D02*
X11477Y10158D01*
X11508Y10158D02*
X12975Y10158D01*
X0525Y10208D02*
X0774Y10208D01*
X3126Y10208D02*
X3862Y10208D01*
X9627Y10208D02*
X11080Y10208D01*
X11315Y10208D02*
X11465Y10208D01*
X11700Y10208D02*
X12975Y10208D01*
X0525Y10257D02*
X0774Y10257D01*
X3126Y10257D02*
X4485Y10257D01*
X9668Y10257D02*
X10986Y10257D01*
X11315Y10257D02*
X11465Y10257D01*
X11794Y10257D02*
X12975Y10257D01*
X0525Y10307D02*
X0774Y10307D01*
X3126Y10307D02*
X7478Y10307D01*
X9691Y10307D02*
X10897Y10307D01*
X11315Y10307D02*
X11465Y10307D01*
X11883Y10307D02*
X12975Y10307D01*
X0525Y10356D02*
X0774Y10356D01*
X3126Y10356D02*
X7527Y10356D01*
X9700Y10356D02*
X10842Y10356D01*
X11315Y10356D02*
X11465Y10356D01*
X11938Y10356D02*
X12975Y10356D01*
X0525Y10406D02*
X0774Y10406D01*
X3126Y10406D02*
X7577Y10406D01*
X9701Y10406D02*
X10786Y10406D01*
X11994Y10406D02*
X12975Y10406D01*
X0525Y10456D02*
X0774Y10456D01*
X3126Y10456D02*
X7626Y10456D01*
X9701Y10456D02*
X10739Y10456D01*
X12041Y10456D02*
X12975Y10456D01*
X0525Y10505D02*
X0774Y10505D01*
X3126Y10505D02*
X7676Y10505D01*
X9701Y10505D02*
X10704Y10505D01*
X12076Y10505D02*
X12975Y10505D01*
X0525Y10555D02*
X0774Y10555D01*
X3126Y10555D02*
X7725Y10555D01*
X9701Y10555D02*
X10670Y10555D01*
X12110Y10555D02*
X12975Y10555D01*
X0525Y10604D02*
X0774Y10604D01*
X3126Y10604D02*
X7775Y10604D01*
X9701Y10604D02*
X10636Y10604D01*
X12144Y10604D02*
X12975Y10604D01*
X0525Y10654D02*
X0774Y10654D01*
X1875Y10654D02*
X2025Y10654D01*
X3126Y10654D02*
X7824Y10654D01*
X9701Y10654D02*
X10617Y10654D01*
X12163Y10654D02*
X12975Y10654D01*
X0525Y10703D02*
X0781Y10703D01*
X1875Y10703D02*
X2025Y10703D01*
X3119Y10703D02*
X3589Y10703D01*
X4325Y10703D02*
X4475Y10703D01*
X5211Y10703D02*
X7874Y10703D01*
X9701Y10703D02*
X10598Y10703D01*
X12182Y10703D02*
X12975Y10703D01*
X0525Y10753D02*
X0798Y10753D01*
X1875Y10753D02*
X2025Y10753D01*
X3102Y10753D02*
X3529Y10753D01*
X4325Y10753D02*
X4475Y10753D01*
X5271Y10753D02*
X7923Y10753D01*
X9701Y10753D02*
X10580Y10753D01*
X12200Y10753D02*
X12975Y10753D01*
X0525Y10802D02*
X0833Y10802D01*
X1875Y10802D02*
X2025Y10802D01*
X3067Y10802D02*
X3496Y10802D01*
X4325Y10802D02*
X4475Y10802D01*
X5304Y10802D02*
X7973Y10802D01*
X9701Y10802D02*
X10562Y10802D01*
X12218Y10802D02*
X12975Y10802D01*
X0525Y10852D02*
X0897Y10852D01*
X1875Y10852D02*
X2025Y10852D01*
X3003Y10852D02*
X3479Y10852D01*
X4325Y10852D02*
X4475Y10852D01*
X5321Y10852D02*
X7999Y10852D01*
X9701Y10852D02*
X10556Y10852D01*
X12224Y10852D02*
X12975Y10852D01*
X0525Y10901D02*
X3474Y10901D01*
X4325Y10901D02*
X4475Y10901D01*
X5326Y10901D02*
X7999Y10901D01*
X9701Y10901D02*
X10550Y10901D01*
X12230Y10901D02*
X12975Y10901D01*
X0525Y10951D02*
X3474Y10951D01*
X5326Y10951D02*
X7999Y10951D01*
X9701Y10951D02*
X10790Y10951D01*
X11990Y10951D02*
X12975Y10951D01*
X0525Y11000D02*
X1194Y11000D01*
X1875Y11000D02*
X2025Y11000D01*
X2706Y11000D02*
X3474Y11000D01*
X5326Y11000D02*
X7999Y11000D01*
X9701Y11000D02*
X10790Y11000D01*
X11990Y11000D02*
X12975Y11000D01*
X0525Y11050D02*
X1131Y11050D01*
X1875Y11050D02*
X2025Y11050D01*
X2769Y11050D02*
X3474Y11050D01*
X5326Y11050D02*
X7999Y11050D01*
X9701Y11050D02*
X10790Y11050D01*
X11990Y11050D02*
X12975Y11050D01*
X0525Y11099D02*
X1097Y11099D01*
X1875Y11099D02*
X2025Y11099D01*
X2803Y11099D02*
X3474Y11099D01*
X5326Y11099D02*
X7999Y11099D01*
X9701Y11099D02*
X10550Y11099D01*
X12230Y11099D02*
X12975Y11099D01*
X0525Y11149D02*
X1080Y11149D01*
X1875Y11149D02*
X2025Y11149D01*
X2820Y11149D02*
X3474Y11149D01*
X5326Y11149D02*
X7999Y11149D01*
X9701Y11149D02*
X10557Y11149D01*
X12224Y11149D02*
X12975Y11149D01*
X0525Y11198D02*
X1074Y11198D01*
X1875Y11198D02*
X2025Y11198D01*
X2826Y11198D02*
X3474Y11198D01*
X5326Y11198D02*
X7999Y11198D01*
X9701Y11198D02*
X10563Y11198D01*
X12217Y11198D02*
X12975Y11198D01*
X0525Y11248D02*
X1074Y11248D01*
X2826Y11248D02*
X3474Y11248D01*
X5326Y11248D02*
X7999Y11248D01*
X9701Y11248D02*
X10580Y11248D01*
X12200Y11248D02*
X12975Y11248D01*
X0525Y11298D02*
X1074Y11298D01*
X2826Y11298D02*
X3474Y11298D01*
X5326Y11298D02*
X7999Y11298D01*
X9701Y11298D02*
X10599Y11298D01*
X12181Y11298D02*
X12975Y11298D01*
X0525Y11347D02*
X1074Y11347D01*
X2826Y11347D02*
X3474Y11347D01*
X5326Y11347D02*
X7999Y11347D01*
X9701Y11347D02*
X10617Y11347D01*
X12163Y11347D02*
X12975Y11347D01*
X0525Y11397D02*
X1074Y11397D01*
X2826Y11397D02*
X3474Y11397D01*
X5326Y11397D02*
X7999Y11397D01*
X9701Y11397D02*
X10637Y11397D01*
X12143Y11397D02*
X12975Y11397D01*
X0525Y11446D02*
X1074Y11446D01*
X2826Y11446D02*
X3474Y11446D01*
X5326Y11446D02*
X7999Y11446D01*
X9701Y11446D02*
X10671Y11446D01*
X12109Y11446D02*
X12975Y11446D01*
X0525Y11496D02*
X1074Y11496D01*
X2826Y11496D02*
X3474Y11496D01*
X5326Y11496D02*
X7999Y11496D01*
X9701Y11496D02*
X10705Y11496D01*
X12075Y11496D02*
X12975Y11496D01*
X0525Y11545D02*
X1074Y11545D01*
X2826Y11545D02*
X3474Y11545D01*
X5326Y11545D02*
X7999Y11545D01*
X9701Y11545D02*
X10739Y11545D01*
X12041Y11545D02*
X12975Y11545D01*
X0525Y11595D02*
X1074Y11595D01*
X2826Y11595D02*
X3474Y11595D01*
X5326Y11595D02*
X7999Y11595D01*
X9701Y11595D02*
X10786Y11595D01*
X11994Y11595D02*
X12975Y11595D01*
X0525Y11644D02*
X1074Y11644D01*
X2826Y11644D02*
X3725Y11644D01*
X5075Y11644D02*
X8000Y11644D01*
X9700Y11644D02*
X10842Y11644D01*
X11315Y11644D02*
X11465Y11644D01*
X11938Y11644D02*
X12975Y11644D01*
X0525Y11694D02*
X1074Y11694D01*
X2826Y11694D02*
X3725Y11694D01*
X5075Y11694D02*
X8009Y11694D01*
X9691Y11694D02*
X10898Y11694D01*
X11315Y11694D02*
X11465Y11694D01*
X11882Y11694D02*
X12975Y11694D01*
X0525Y11743D02*
X1074Y11743D01*
X2826Y11743D02*
X3725Y11743D01*
X5075Y11743D02*
X8033Y11743D01*
X9667Y11743D02*
X10987Y11743D01*
X11315Y11743D02*
X11465Y11743D01*
X11793Y11743D02*
X12975Y11743D01*
X0525Y11793D02*
X1074Y11793D01*
X2826Y11793D02*
X3474Y11793D01*
X5326Y11793D02*
X8074Y11793D01*
X9626Y11793D02*
X11082Y11793D01*
X11315Y11793D02*
X11465Y11793D01*
X11698Y11793D02*
X12975Y11793D01*
X0525Y11842D02*
X1080Y11842D01*
X2820Y11842D02*
X3474Y11842D01*
X5326Y11842D02*
X8163Y11842D01*
X9537Y11842D02*
X11275Y11842D01*
X11302Y11842D02*
X11478Y11842D01*
X11505Y11842D02*
X12975Y11842D01*
X0525Y11892D02*
X1325Y11892D01*
X2575Y11892D02*
X3474Y11892D01*
X5326Y11892D02*
X12975Y11892D01*
X0525Y11941D02*
X1325Y11941D01*
X2575Y11941D02*
X3474Y11941D01*
X5326Y11941D02*
X12975Y11941D01*
X0525Y11991D02*
X1325Y11991D01*
X2575Y11991D02*
X3474Y11991D01*
X5326Y11991D02*
X12975Y11991D01*
X0525Y12040D02*
X1074Y12040D01*
X2826Y12040D02*
X3474Y12040D01*
X5326Y12040D02*
X12975Y12040D01*
X0525Y12090D02*
X1074Y12090D01*
X2826Y12090D02*
X3474Y12090D01*
X5326Y12090D02*
X12975Y12090D01*
X0525Y12140D02*
X1074Y12140D01*
X2826Y12140D02*
X3474Y12140D01*
X5326Y12140D02*
X12975Y12140D01*
X0525Y12189D02*
X1074Y12189D01*
X2826Y12189D02*
X3474Y12189D01*
X5326Y12189D02*
X12975Y12189D01*
X0525Y12239D02*
X1074Y12239D01*
X2826Y12239D02*
X3474Y12239D01*
X5326Y12239D02*
X12975Y12239D01*
X0525Y12288D02*
X1074Y12288D01*
X2826Y12288D02*
X3474Y12288D01*
X5326Y12288D02*
X12975Y12288D01*
X0525Y12338D02*
X1074Y12338D01*
X2826Y12338D02*
X3474Y12338D01*
X5326Y12338D02*
X12975Y12338D01*
X0525Y12387D02*
X1074Y12387D01*
X2826Y12387D02*
X3474Y12387D01*
X5326Y12387D02*
X12975Y12387D01*
X0525Y12437D02*
X1074Y12437D01*
X2826Y12437D02*
X3474Y12437D01*
X5326Y12437D02*
X12975Y12437D01*
X0525Y12486D02*
X1074Y12486D01*
X2826Y12486D02*
X3474Y12486D01*
X4325Y12486D02*
X4475Y12486D01*
X5326Y12486D02*
X12975Y12486D01*
X0525Y12536D02*
X1074Y12536D01*
X2826Y12536D02*
X3476Y12536D01*
X4325Y12536D02*
X4475Y12536D01*
X5324Y12536D02*
X12975Y12536D01*
X0525Y12585D02*
X1074Y12585D01*
X2826Y12585D02*
X3491Y12585D01*
X4325Y12585D02*
X4475Y12585D01*
X5309Y12585D02*
X12975Y12585D01*
X0525Y12635D02*
X1074Y12635D01*
X1875Y12635D02*
X2025Y12635D01*
X2826Y12635D02*
X3518Y12635D01*
X4325Y12635D02*
X4475Y12635D01*
X5282Y12635D02*
X12975Y12635D01*
X0525Y12684D02*
X1076Y12684D01*
X1875Y12684D02*
X2025Y12684D01*
X2824Y12684D02*
X3569Y12684D01*
X4325Y12684D02*
X4475Y12684D01*
X5231Y12684D02*
X12975Y12684D01*
X0525Y12734D02*
X1090Y12734D01*
X1875Y12734D02*
X2025Y12734D01*
X2810Y12734D02*
X12975Y12734D01*
X0525Y12783D02*
X1117Y12783D01*
X1875Y12783D02*
X2025Y12783D01*
X2783Y12783D02*
X12975Y12783D01*
X0525Y12833D02*
X1167Y12833D01*
X1875Y12833D02*
X2025Y12833D01*
X2733Y12833D02*
X12975Y12833D01*
X0525Y12883D02*
X12975Y12883D01*
X0525Y12932D02*
X12975Y12932D01*
X0525Y12982D02*
X12975Y12982D01*
X0525Y13031D02*
X12975Y13031D01*
X0525Y13081D02*
X12975Y13081D01*
X0525Y13130D02*
X12975Y13130D01*
X0525Y13180D02*
X12975Y13180D01*
X0525Y13229D02*
X12975Y13229D01*
X0525Y13279D02*
X12975Y13279D01*
X0525Y13328D02*
X12975Y13328D01*
X0525Y13378D02*
X12975Y13378D01*
X0525Y13427D02*
X12975Y13427D01*
X0525Y13477D02*
X12975Y13477D01*
X0525Y13526D02*
X12975Y13526D01*
X0525Y13576D02*
X12975Y13576D01*
X0525Y13625D02*
X12975Y13625D01*
X0525Y13675D02*
X12975Y13675D01*
X0525Y13725D02*
X12975Y13725D01*
X0525Y13774D02*
X12975Y13774D01*
X0525Y13824D02*
X12975Y13824D01*
X0525Y13873D02*
X12975Y13873D01*
X0525Y13923D02*
X12975Y13923D01*
X0525Y13972D02*
X12975Y13972D01*
X0525Y14022D02*
X12975Y14022D01*
X0525Y14071D02*
X12975Y14071D01*
X0525Y14121D02*
X12975Y14121D01*
X0525Y14170D02*
X12975Y14170D01*
X0525Y14220D02*
X12975Y14220D01*
X0525Y14269D02*
X12975Y14269D01*
X0525Y14319D02*
X12975Y14319D01*
X0525Y14368D02*
X12975Y14368D01*
X0525Y14418D02*
X12975Y14418D01*
X0525Y14467D02*
X12975Y14467D01*
X0525Y14517D02*
X12975Y14517D01*
X0525Y14567D02*
X12975Y14567D01*
X0525Y14616D02*
X12975Y14616D01*
X0525Y14666D02*
X12975Y14666D01*
X0525Y14715D02*
X12975Y14715D01*
X0525Y14765D02*
X12975Y14765D01*
X0525Y14814D02*
X12975Y14814D01*
X0525Y14864D02*
X12975Y14864D01*
X0525Y14913D02*
X12975Y14913D01*
X0525Y14963D02*
X12975Y14963D01*
X0525Y15012D02*
X12975Y15012D01*
X0525Y15062D02*
X12975Y15062D01*
X0525Y15111D02*
X12975Y15111D01*
X0525Y15161D02*
X12975Y15161D01*
X0525Y15210D02*
X12975Y15210D01*
X0525Y15260D02*
X12975Y15260D01*
X0525Y15309D02*
X12975Y15309D01*
X0525Y15359D02*
X12975Y15359D01*
X0525Y15409D02*
X12975Y15409D01*
X0525Y15458D02*
X12975Y15458D01*
X0525Y15508D02*
X12975Y15508D01*
X0525Y15557D02*
X12975Y15557D01*
X0525Y15607D02*
X12975Y15607D01*
X0525Y15656D02*
X12975Y15656D01*
X0525Y15706D02*
X12975Y15706D01*
X0525Y15755D02*
X12975Y15755D01*
X0525Y15805D02*
X12975Y15805D01*
X0525Y15854D02*
X12975Y15854D01*
X0525Y15904D02*
X12975Y15904D01*
X0525Y15953D02*
X12975Y15953D01*
X0525Y16003D02*
X12975Y16003D01*
X0525Y16052D02*
X12975Y16052D01*
X0525Y16102D02*
X12975Y16102D01*
X0525Y16151D02*
X12975Y16151D01*
X0525Y16201D02*
X12975Y16201D01*
X0525Y16251D02*
X12975Y16251D01*
X0525Y16300D02*
X12975Y16300D01*
X0525Y16350D02*
X12975Y16350D01*
X0525Y16399D02*
X12975Y16399D01*
X0525Y16449D02*
X12975Y16449D01*
%LNtop copper_traces*%
D11*
X19470Y6000D02*
X29100Y6000D01*
X4625Y9800D02*
X7650Y9800D01*
X31600Y13500D02*
X24050Y13500D01*
X16470Y3000D02*
X19470Y6000D01*
X24050Y13500D02*
X21550Y11000D01*
X31600Y3500D02*
X29100Y6000D01*
X7650Y9800D02*
X8850Y11000D01*
X8850Y3000*
D12*
X1950Y3075D03*
X1950Y13925D03*
X4450Y3075D03*
X4450Y13925D03*
%LNtop copper component d3efb4300cba9bad*%
D13*
X31600Y8500D03*
X31600Y3500D03*
D14*
X31600Y13500D03*
%LNtop copper component 4910893c215585d1*%
D15*
X11390Y11000D03*
X16470Y11000D03*
X21550Y11000D03*
D16*
X8850Y11000D03*
%LNtop copper component 5f94c92a6f004a84*%
D17*
X4625Y9800D03*
X4625Y9150D03*
X4625Y8500D03*
X4625Y7850D03*
X4625Y7200D03*
D18*
X4400Y11700D03*
X4400Y5300D03*
D19*
X1950Y11925D03*
X1950Y5075D03*
D20*
X1950Y9700D03*
X1950Y7300D03*
%LNtop copper component 6f5fc672e254e499*%
D15*
X11390Y3000D03*
X16470Y3000D03*
X21550Y3000D03*
D16*
X8850Y3000D03*
M02*