%FSLAX33Y33*%
%MOMM*%
%LNbottom silkscreen_traces*%
%LNtext*%
G36*
G01*
X19277Y5400D02*
X19693Y6474D01*
X19540Y6474D01*
X19261Y5694D01*
X19244Y5648D01*
X19230Y5603D01*
X19216Y5560D01*
X19204Y5518D01*
X19191Y5562D01*
X19177Y5606D01*
X19162Y5650D01*
X19146Y5694D01*
X18856Y6474D01*
X18711Y6474D01*
X19132Y5400D01*
X19277Y5400D01*
X19277Y5400D01*
X18151Y5650D02*
X18015Y5634D01*
X18034Y5577D01*
X18061Y5528D01*
X18094Y5485D01*
X18134Y5448D01*
X18181Y5420D01*
X18233Y5399D01*
X18292Y5387D01*
X18357Y5382D01*
X18438Y5389D01*
X18510Y5409D01*
X18573Y5442D01*
X18627Y5488D01*
X18671Y5545D01*
X18702Y5614D01*
X18721Y5693D01*
X18727Y5782D01*
X18721Y5875D01*
X18702Y5957D01*
X18670Y6027D01*
X18626Y6087D01*
X18572Y6134D01*
X18510Y6168D01*
X18441Y6189D01*
X18364Y6195D01*
X18353Y6194D01*
X18363Y6087D01*
X18406Y6083D01*
X18446Y6072D01*
X18483Y6053D01*
X18515Y6026D01*
X18543Y5993D01*
X18563Y5955D01*
X18577Y5912D01*
X18584Y5864D01*
X18584Y5864D01*
X18149Y5864D01*
X18156Y5910D01*
X18166Y5949D01*
X18181Y5983D01*
X18199Y6011D01*
X18233Y6044D01*
X18272Y6068D01*
X18315Y6082D01*
X18363Y6087D01*
X18353Y6194D01*
X18290Y6189D01*
X18222Y6169D01*
X18162Y6136D01*
X18109Y6089D01*
X18066Y6031D01*
X18035Y5961D01*
X18016Y5881D01*
X18010Y5790D01*
X18010Y5784D01*
X18010Y5776D01*
X18011Y5766D01*
X18011Y5755D01*
X18591Y5755D01*
X18584Y5695D01*
X18569Y5642D01*
X18548Y5597D01*
X18519Y5559D01*
X18484Y5529D01*
X18445Y5508D01*
X18403Y5495D01*
X18356Y5491D01*
X18321Y5493D01*
X18289Y5500D01*
X18259Y5512D01*
X18232Y5529D01*
X18208Y5551D01*
X18186Y5578D01*
X18167Y5612D01*
X18151Y5650D01*
X18151Y5650D01*
X17851Y5400D02*
X17851Y6178D01*
X17732Y6178D01*
X17732Y6060D01*
X17710Y6098D01*
X17688Y6129D01*
X17668Y6152D01*
X17648Y6169D01*
X17628Y6181D01*
X17608Y6189D01*
X17586Y6194D01*
X17563Y6195D01*
X17530Y6193D01*
X17496Y6185D01*
X17462Y6172D01*
X17428Y6153D01*
X17473Y6031D01*
X17498Y6043D01*
X17522Y6052D01*
X17546Y6057D01*
X17570Y6059D01*
X17591Y6058D01*
X17611Y6053D01*
X17630Y6045D01*
X17648Y6033D01*
X17664Y6019D01*
X17677Y6002D01*
X17688Y5983D01*
X17697Y5961D01*
X17706Y5925D01*
X17713Y5887D01*
X17717Y5848D01*
X17719Y5807D01*
X17719Y5400D01*
X17851Y5400D01*
X17851Y5400D01*
X17402Y5632D02*
X17272Y5653D01*
X17264Y5616D01*
X17251Y5583D01*
X17233Y5556D01*
X17211Y5533D01*
X17183Y5514D01*
X17151Y5501D01*
X17113Y5493D01*
X17071Y5491D01*
X17028Y5493D01*
X16991Y5500D01*
X16961Y5512D01*
X16936Y5528D01*
X16917Y5547D01*
X16903Y5568D01*
X16895Y5590D01*
X16892Y5615D01*
X16894Y5636D01*
X16902Y5655D01*
X16914Y5671D01*
X16931Y5685D01*
X16949Y5694D01*
X16978Y5705D01*
X17017Y5717D01*
X17065Y5730D01*
X17132Y5747D01*
X17188Y5764D01*
X17233Y5779D01*
X17267Y5793D01*
X17293Y5808D01*
X17316Y5825D01*
X17335Y5845D01*
X17351Y5867D01*
X17364Y5891D01*
X17373Y5917D01*
X17379Y5943D01*
X17380Y5971D01*
X17379Y5997D01*
X17374Y6021D01*
X17367Y6045D01*
X17357Y6068D01*
X17344Y6089D01*
X17328Y6108D01*
X17311Y6126D01*
X17292Y6141D01*
X17275Y6152D01*
X17255Y6162D01*
X17233Y6171D01*
X17208Y6180D01*
X17181Y6187D01*
X17153Y6191D01*
X17124Y6194D01*
X17094Y6195D01*
X17050Y6194D01*
X17008Y6189D01*
X16969Y6181D01*
X16933Y6169D01*
X16901Y6155D01*
X16873Y6138D01*
X16850Y6119D01*
X16831Y6098D01*
X16816Y6073D01*
X16803Y6045D01*
X16793Y6013D01*
X16786Y5977D01*
X16915Y5960D01*
X16921Y5988D01*
X16932Y6013D01*
X16947Y6035D01*
X16965Y6053D01*
X16989Y6068D01*
X17016Y6079D01*
X17048Y6085D01*
X17084Y6087D01*
X17127Y6085D01*
X17162Y6080D01*
X17191Y6070D01*
X17214Y6057D01*
X17231Y6041D01*
X17243Y6024D01*
X17251Y6006D01*
X17253Y5987D01*
X17252Y5974D01*
X17249Y5962D01*
X17244Y5951D01*
X17237Y5941D01*
X17228Y5930D01*
X17216Y5921D01*
X17202Y5913D01*
X17186Y5905D01*
X17172Y5901D01*
X17147Y5893D01*
X17113Y5884D01*
X17070Y5872D01*
X17005Y5854D01*
X16951Y5838D01*
X16908Y5823D01*
X16875Y5811D01*
X16848Y5797D01*
X16825Y5781D01*
X16805Y5763D01*
X16788Y5741D01*
X16774Y5717D01*
X16764Y5690D01*
X16758Y5661D01*
X16756Y5629D01*
X16759Y5596D01*
X16766Y5565D01*
X16778Y5534D01*
X16795Y5504D01*
X16816Y5477D01*
X16842Y5453D01*
X16872Y5432D01*
X16906Y5414D01*
X16943Y5400D01*
X16983Y5390D01*
X17025Y5384D01*
X17070Y5382D01*
X17141Y5386D01*
X17203Y5398D01*
X17257Y5418D01*
X17301Y5445D01*
X17337Y5481D01*
X17366Y5524D01*
X17388Y5574D01*
X17402Y5632D01*
X17402Y5632D01*
X16599Y5400D02*
X16599Y6178D01*
X16467Y6178D01*
X16467Y5400D01*
X16599Y5400D01*
X16599Y5400D01*
X16599Y6322D02*
X16599Y6474D01*
X16467Y6474D01*
X16467Y6322D01*
X16599Y6322D01*
X16599Y6322D01*
X16315Y5789D02*
X16308Y5890D01*
X16285Y5977D01*
X16248Y6050D01*
X16195Y6109D01*
X16142Y6147D01*
X16084Y6174D01*
X16020Y6190D01*
X15951Y6195D01*
X15874Y6189D01*
X15805Y6169D01*
X15743Y6136D01*
X15688Y6090D01*
X15644Y6033D01*
X15612Y5965D01*
X15593Y5888D01*
X15587Y5800D01*
X15589Y5729D01*
X15598Y5666D01*
X15612Y5611D01*
X15632Y5564D01*
X15657Y5523D01*
X15687Y5487D01*
X15722Y5456D01*
X15763Y5430D01*
X15807Y5409D01*
X15853Y5394D01*
X15901Y5385D01*
X15951Y5382D01*
X15960Y5383D01*
X15951Y5491D01*
X15904Y5495D01*
X15861Y5509D01*
X15822Y5533D01*
X15787Y5566D01*
X15759Y5608D01*
X15738Y5660D01*
X15726Y5722D01*
X15722Y5793D01*
X15726Y5861D01*
X15739Y5920D01*
X15759Y5970D01*
X15788Y6012D01*
X15823Y6044D01*
X15861Y6068D01*
X15904Y6082D01*
X15951Y6086D01*
X15998Y6082D01*
X16041Y6068D01*
X16080Y6045D01*
X16115Y6012D01*
X16143Y5971D01*
X16164Y5919D01*
X16176Y5859D01*
X16180Y5789D01*
X16180Y5789D01*
X16176Y5719D01*
X16164Y5658D01*
X16143Y5607D01*
X16115Y5565D01*
X16080Y5533D01*
X16041Y5509D01*
X15998Y5495D01*
X15951Y5491D01*
X15960Y5383D01*
X16028Y5389D01*
X16098Y5409D01*
X16160Y5441D01*
X16215Y5487D01*
X16259Y5545D01*
X16290Y5615D01*
X16309Y5696D01*
X16315Y5789D01*
X16315Y5789D01*
X15432Y5400D02*
X15432Y6178D01*
X15313Y6178D01*
X15313Y6067D01*
X15266Y6123D01*
X15209Y6163D01*
X15142Y6187D01*
X15066Y6195D01*
X15031Y6194D01*
X14998Y6189D01*
X14967Y6181D01*
X14937Y6170D01*
X14909Y6157D01*
X14885Y6141D01*
X14865Y6123D01*
X14848Y6104D01*
X14835Y6082D01*
X14823Y6059D01*
X14814Y6034D01*
X14807Y6006D01*
X14804Y5985D01*
X14802Y5956D01*
X14801Y5921D01*
X14800Y5878D01*
X14800Y5400D01*
X14932Y5400D01*
X14932Y5873D01*
X14933Y5911D01*
X14936Y5944D01*
X14941Y5971D01*
X14947Y5994D01*
X14956Y6013D01*
X14969Y6030D01*
X14984Y6044D01*
X15002Y6057D01*
X15022Y6068D01*
X15044Y6075D01*
X15068Y6080D01*
X15094Y6081D01*
X15134Y6078D01*
X15172Y6068D01*
X15207Y6051D01*
X15239Y6028D01*
X15266Y5995D01*
X15285Y5950D01*
X15296Y5894D01*
X15300Y5825D01*
X15300Y5400D01*
X15432Y5400D01*
X15432Y5400D01*
X13721Y5400D02*
X13853Y5400D01*
X13853Y6240D01*
X13879Y6217D01*
X13908Y6195D01*
X13941Y6172D01*
X13978Y6149D01*
X14016Y6128D01*
X14051Y6110D01*
X14085Y6094D01*
X14117Y6081D01*
X14117Y6209D01*
X14063Y6236D01*
X14013Y6266D01*
X13966Y6299D01*
X13923Y6335D01*
X13885Y6371D01*
X13853Y6407D01*
X13826Y6443D01*
X13806Y6478D01*
X13721Y6478D01*
X13721Y5400D01*
X13721Y5400D01*
X13310Y5400D02*
X13310Y5550D01*
X13159Y5550D01*
X13159Y5400D01*
X13310Y5400D01*
X13310Y5400D01*
X12967Y5930D02*
X12964Y6020D01*
X12957Y6101D01*
X12945Y6173D01*
X12928Y6236D01*
X12906Y6291D01*
X12879Y6339D01*
X12847Y6380D01*
X12811Y6415D01*
X12770Y6443D01*
X12724Y6462D01*
X12673Y6474D01*
X12617Y6478D01*
X12575Y6476D01*
X12536Y6469D01*
X12499Y6459D01*
X12465Y6443D01*
X12434Y6424D01*
X12406Y6401D01*
X12380Y6374D01*
X12357Y6343D01*
X12337Y6308D01*
X12320Y6270D01*
X12304Y6229D01*
X12291Y6183D01*
X12280Y6132D01*
X12273Y6073D01*
X12268Y6005D01*
X12267Y5930D01*
X12269Y5840D01*
X12276Y5759D01*
X12288Y5687D01*
X12305Y5624D01*
X12327Y5570D01*
X12354Y5522D01*
X12385Y5480D01*
X12422Y5445D01*
X12463Y5417D01*
X12509Y5398D01*
X12560Y5386D01*
X12617Y5382D01*
X12627Y5383D01*
X12617Y5490D01*
X12573Y5496D01*
X12533Y5512D01*
X12497Y5540D01*
X12464Y5578D01*
X12437Y5633D01*
X12418Y5710D01*
X12406Y5809D01*
X12402Y5930D01*
X12406Y6051D01*
X12418Y6150D01*
X12437Y6227D01*
X12464Y6282D01*
X12497Y6320D01*
X12533Y6347D01*
X12574Y6364D01*
X12618Y6369D01*
X12661Y6364D01*
X12700Y6350D01*
X12734Y6326D01*
X12763Y6292D01*
X12793Y6233D01*
X12814Y6152D01*
X12827Y6051D01*
X12831Y5930D01*
X12831Y5930D01*
X12827Y5808D01*
X12816Y5709D01*
X12796Y5632D01*
X12769Y5578D01*
X12737Y5539D01*
X12700Y5512D01*
X12660Y5496D01*
X12617Y5490D01*
X12627Y5383D01*
X12690Y5389D01*
X12755Y5410D01*
X12812Y5444D01*
X12861Y5493D01*
X12907Y5571D01*
X12940Y5669D01*
X12960Y5789D01*
X12967Y5930D01*
X12967Y5930D01*
X12059Y5400D02*
X12059Y5550D01*
X11908Y5550D01*
X11908Y5400D01*
X12059Y5400D01*
X12059Y5400D01*
X11716Y5930D02*
X11713Y6020D01*
X11706Y6101D01*
X11694Y6173D01*
X11677Y6236D01*
X11655Y6291D01*
X11628Y6339D01*
X11596Y6380D01*
X11560Y6415D01*
X11519Y6443D01*
X11473Y6462D01*
X11422Y6474D01*
X11366Y6478D01*
X11324Y6476D01*
X11285Y6469D01*
X11248Y6459D01*
X11214Y6443D01*
X11183Y6424D01*
X11155Y6401D01*
X11129Y6374D01*
X11106Y6343D01*
X11086Y6308D01*
X11069Y6270D01*
X11053Y6229D01*
X11040Y6183D01*
X11029Y6132D01*
X11022Y6073D01*
X11017Y6005D01*
X11016Y5930D01*
X11018Y5840D01*
X11025Y5759D01*
X11037Y5687D01*
X11054Y5624D01*
X11076Y5570D01*
X11103Y5522D01*
X11134Y5480D01*
X11171Y5445D01*
X11212Y5417D01*
X11258Y5398D01*
X11309Y5386D01*
X11366Y5382D01*
X11376Y5383D01*
X11366Y5490D01*
X11322Y5496D01*
X11282Y5512D01*
X11246Y5540D01*
X11213Y5578D01*
X11186Y5633D01*
X11167Y5710D01*
X11155Y5809D01*
X11151Y5930D01*
X11155Y6051D01*
X11167Y6150D01*
X11186Y6227D01*
X11213Y6282D01*
X11246Y6320D01*
X11283Y6347D01*
X11323Y6364D01*
X11367Y6369D01*
X11410Y6364D01*
X11449Y6350D01*
X11483Y6326D01*
X11512Y6292D01*
X11542Y6233D01*
X11563Y6152D01*
X11576Y6051D01*
X11580Y5930D01*
X11580Y5930D01*
X11576Y5808D01*
X11565Y5709D01*
X11546Y5632D01*
X11518Y5578D01*
X11486Y5539D01*
X11449Y5512D01*
X11409Y5496D01*
X11366Y5490D01*
X11376Y5383D01*
X11439Y5389D01*
X11504Y5410D01*
X11561Y5444D01*
X11610Y5493D01*
X11656Y5571D01*
X11689Y5669D01*
X11709Y5789D01*
X11716Y5930D01*
X11716Y5930D01*
X29081Y7400D02*
X29081Y8663D01*
X29553Y8663D01*
X29553Y8832D01*
X28418Y8832D01*
X28418Y8663D01*
X28892Y8663D01*
X28892Y7400D01*
X29081Y7400D01*
X29081Y7400D01*
X28320Y7400D02*
X28320Y8437D01*
X28144Y8437D01*
X28144Y7400D01*
X28320Y7400D01*
X28320Y7400D01*
X28320Y8629D02*
X28320Y8832D01*
X28144Y8832D01*
X28144Y8629D01*
X28320Y8629D01*
X28320Y8629D01*
X27876Y7400D02*
X27876Y8437D01*
X27718Y8437D01*
X27718Y8290D01*
X27655Y8364D01*
X27579Y8418D01*
X27490Y8450D01*
X27388Y8461D01*
X27342Y8458D01*
X27298Y8452D01*
X27256Y8442D01*
X27216Y8427D01*
X27179Y8409D01*
X27147Y8388D01*
X27120Y8365D01*
X27098Y8338D01*
X27080Y8310D01*
X27065Y8279D01*
X27053Y8245D01*
X27043Y8209D01*
X27039Y8180D01*
X27036Y8141D01*
X27034Y8094D01*
X27034Y8038D01*
X27034Y7400D01*
X27209Y7400D01*
X27209Y8031D01*
X27211Y8081D01*
X27215Y8125D01*
X27221Y8162D01*
X27230Y8192D01*
X27242Y8217D01*
X27258Y8239D01*
X27279Y8259D01*
X27303Y8276D01*
X27330Y8290D01*
X27360Y8300D01*
X27391Y8306D01*
X27425Y8308D01*
X27480Y8304D01*
X27530Y8290D01*
X27576Y8268D01*
X27619Y8237D01*
X27655Y8193D01*
X27680Y8134D01*
X27696Y8058D01*
X27701Y7966D01*
X27701Y7400D01*
X27876Y7400D01*
X27876Y7400D01*
X26772Y7001D02*
X26792Y7166D01*
X26764Y7159D01*
X26738Y7154D01*
X26713Y7151D01*
X26691Y7150D01*
X26663Y7151D01*
X26638Y7155D01*
X26616Y7161D01*
X26597Y7170D01*
X26580Y7180D01*
X26565Y7193D01*
X26552Y7208D01*
X26540Y7224D01*
X26530Y7242D01*
X26518Y7270D01*
X26503Y7308D01*
X26486Y7355D01*
X26483Y7363D01*
X26479Y7373D01*
X26475Y7385D01*
X26470Y7398D01*
X26864Y8437D01*
X26674Y8437D01*
X26459Y7837D01*
X26438Y7779D01*
X26419Y7719D01*
X26400Y7659D01*
X26383Y7596D01*
X26367Y7656D01*
X26350Y7716D01*
X26331Y7775D01*
X26311Y7833D01*
X26089Y8437D01*
X25914Y8437D01*
X26308Y7382D01*
X26338Y7304D01*
X26365Y7238D01*
X26387Y7186D01*
X26407Y7147D01*
X26431Y7107D01*
X26457Y7072D01*
X26485Y7043D01*
X26514Y7020D01*
X26546Y7002D01*
X26581Y6989D01*
X26618Y6982D01*
X26659Y6979D01*
X26685Y6980D01*
X26712Y6984D01*
X26741Y6991D01*
X26772Y7001D01*
X26772Y7001D01*
X24247Y8832D02*
X24057Y8832D01*
X24057Y8004D01*
X24060Y7902D01*
X24069Y7811D01*
X24085Y7731D01*
X24106Y7662D01*
X24135Y7601D01*
X24174Y7547D01*
X24223Y7498D01*
X24282Y7455D01*
X24351Y7420D01*
X24430Y7395D01*
X24518Y7381D01*
X24617Y7376D01*
X24713Y7380D01*
X24800Y7393D01*
X24877Y7415D01*
X24946Y7445D01*
X25005Y7483D01*
X25055Y7530D01*
X25096Y7584D01*
X25128Y7646D01*
X25152Y7717D01*
X25169Y7801D01*
X25180Y7897D01*
X25183Y8004D01*
X25183Y8832D01*
X24994Y8832D01*
X24994Y8005D01*
X24991Y7918D01*
X24985Y7843D01*
X24974Y7781D01*
X24959Y7731D01*
X24938Y7689D01*
X24912Y7652D01*
X24879Y7621D01*
X24840Y7594D01*
X24795Y7573D01*
X24746Y7558D01*
X24692Y7549D01*
X24633Y7546D01*
X24536Y7552D01*
X24454Y7570D01*
X24387Y7600D01*
X24335Y7641D01*
X24297Y7699D01*
X24269Y7780D01*
X24252Y7882D01*
X24247Y8005D01*
X24247Y8832D01*
X24247Y8832D01*
X23806Y7860D02*
X23627Y7876D01*
X23619Y7824D01*
X23606Y7778D01*
X23589Y7736D01*
X23568Y7699D01*
X23542Y7667D01*
X23509Y7637D01*
X23470Y7611D01*
X23424Y7588D01*
X23374Y7569D01*
X23320Y7556D01*
X23264Y7548D01*
X23205Y7546D01*
X23152Y7548D01*
X23102Y7554D01*
X23056Y7564D01*
X23013Y7578D01*
X22974Y7595D01*
X22941Y7616D01*
X22913Y7640D01*
X22890Y7666D01*
X22872Y7695D01*
X22859Y7725D01*
X22852Y7756D01*
X22849Y7789D01*
X22852Y7821D01*
X22859Y7852D01*
X22871Y7880D01*
X22888Y7906D01*
X22911Y7930D01*
X22940Y7953D01*
X22975Y7973D01*
X23017Y7991D01*
X23055Y8004D01*
X23110Y8020D01*
X23182Y8039D01*
X23272Y8061D01*
X23363Y8084D01*
X23440Y8107D01*
X23501Y8129D01*
X23548Y8150D01*
X23596Y8178D01*
X23638Y8210D01*
X23673Y8245D01*
X23701Y8283D01*
X23723Y8324D01*
X23739Y8368D01*
X23748Y8413D01*
X23751Y8462D01*
X23748Y8515D01*
X23736Y8566D01*
X23717Y8616D01*
X23690Y8664D01*
X23656Y8708D01*
X23614Y8747D01*
X23566Y8780D01*
X23510Y8807D01*
X23449Y8829D01*
X23385Y8844D01*
X23318Y8853D01*
X23247Y8856D01*
X23170Y8853D01*
X23098Y8843D01*
X23030Y8827D01*
X22967Y8805D01*
X22909Y8776D01*
X22859Y8741D01*
X22816Y8701D01*
X22780Y8654D01*
X22751Y8602D01*
X22729Y8548D01*
X22716Y8490D01*
X22709Y8428D01*
X22891Y8415D01*
X22903Y8478D01*
X22923Y8534D01*
X22952Y8581D01*
X22990Y8620D01*
X23037Y8650D01*
X23095Y8672D01*
X23162Y8685D01*
X23240Y8689D01*
X23320Y8685D01*
X23388Y8673D01*
X23445Y8654D01*
X23490Y8626D01*
X23525Y8593D01*
X23549Y8557D01*
X23564Y8517D01*
X23569Y8474D01*
X23565Y8437D01*
X23555Y8404D01*
X23537Y8374D01*
X23513Y8347D01*
X23475Y8322D01*
X23414Y8297D01*
X23332Y8271D01*
X23227Y8245D01*
X23121Y8220D01*
X23033Y8196D01*
X22963Y8174D01*
X22911Y8154D01*
X22852Y8123D01*
X22802Y8089D01*
X22760Y8050D01*
X22726Y8008D01*
X22700Y7962D01*
X22681Y7913D01*
X22670Y7860D01*
X22666Y7804D01*
X22671Y7748D01*
X22683Y7693D01*
X22703Y7640D01*
X22732Y7589D01*
X22768Y7541D01*
X22812Y7499D01*
X22862Y7463D01*
X22920Y7432D01*
X22983Y7407D01*
X23050Y7390D01*
X23121Y7379D01*
X23196Y7376D01*
X23289Y7379D01*
X23374Y7390D01*
X23452Y7407D01*
X23521Y7432D01*
X23584Y7464D01*
X23639Y7503D01*
X23687Y7549D01*
X23727Y7603D01*
X23760Y7661D01*
X23784Y7724D01*
X23800Y7790D01*
X23806Y7860D01*
X23806Y7860D01*
X22415Y7400D02*
X22415Y8832D01*
X21878Y8832D01*
X21800Y8829D01*
X21730Y8821D01*
X21669Y8807D01*
X21615Y8788D01*
X21568Y8764D01*
X21527Y8733D01*
X21491Y8697D01*
X21460Y8654D01*
X21435Y8609D01*
X21418Y8562D01*
X21407Y8514D01*
X21404Y8465D01*
X21407Y8420D01*
X21416Y8376D01*
X21432Y8334D01*
X21454Y8293D01*
X21482Y8254D01*
X21516Y8219D01*
X21557Y8189D01*
X21604Y8162D01*
X21660Y8027D01*
X21685Y8037D01*
X21726Y8048D01*
X21774Y8055D01*
X21831Y8060D01*
X21895Y8061D01*
X22226Y8061D01*
X22226Y7569D01*
X22226Y7569D01*
X21870Y7569D01*
X21827Y7569D01*
X21791Y7571D01*
X21763Y7573D01*
X21741Y7576D01*
X21709Y7583D01*
X21681Y7591D01*
X21655Y7602D01*
X21631Y7615D01*
X21610Y7630D01*
X21591Y7648D01*
X21574Y7670D01*
X21559Y7694D01*
X21547Y7722D01*
X21538Y7751D01*
X21532Y7782D01*
X21531Y7815D01*
X21533Y7854D01*
X21541Y7890D01*
X21554Y7923D01*
X21572Y7954D01*
X21594Y7982D01*
X21621Y8004D01*
X21651Y8023D01*
X21660Y8027D01*
X21604Y8162D01*
X21672Y8275D01*
X21647Y8295D01*
X21627Y8318D01*
X21611Y8344D01*
X21599Y8374D01*
X21593Y8407D01*
X21590Y8443D01*
X21592Y8478D01*
X21599Y8510D01*
X21609Y8540D01*
X21624Y8568D01*
X21643Y8593D01*
X21666Y8614D01*
X21692Y8631D01*
X21722Y8643D01*
X21759Y8651D01*
X21808Y8658D01*
X21868Y8661D01*
X21940Y8663D01*
X22226Y8663D01*
X22226Y8230D01*
X22226Y8230D01*
X21916Y8230D01*
X21858Y8231D01*
X21808Y8234D01*
X21768Y8239D01*
X21736Y8247D01*
X21702Y8259D01*
X21672Y8275D01*
X21604Y8162D01*
X21543Y8139D01*
X21489Y8110D01*
X21443Y8074D01*
X21404Y8032D01*
X21374Y7984D01*
X21352Y7932D01*
X21339Y7875D01*
X21334Y7815D01*
X21337Y7766D01*
X21345Y7718D01*
X21358Y7672D01*
X21377Y7628D01*
X21399Y7587D01*
X21424Y7551D01*
X21452Y7521D01*
X21482Y7495D01*
X21515Y7473D01*
X21552Y7454D01*
X21593Y7437D01*
X21639Y7424D01*
X21688Y7413D01*
X21743Y7406D01*
X21804Y7401D01*
X21870Y7400D01*
X22415Y7400D01*
X22415Y7400D01*
X19868Y7400D02*
X19868Y7531D01*
X19947Y7613D01*
X19945Y7615D01*
X19910Y7669D01*
X19885Y7734D01*
X19870Y7812D01*
X19865Y7903D01*
X19870Y8002D01*
X19885Y8088D01*
X19911Y8159D01*
X19947Y8215D01*
X19990Y8259D01*
X20038Y8290D01*
X20091Y8309D01*
X20149Y8315D01*
X20205Y8309D01*
X20256Y8291D01*
X20303Y8261D01*
X20345Y8219D01*
X20379Y8165D01*
X20404Y8096D01*
X20418Y8014D01*
X20423Y7918D01*
X20423Y7918D01*
X20418Y7824D01*
X20402Y7744D01*
X20376Y7675D01*
X20339Y7620D01*
X20295Y7577D01*
X20248Y7546D01*
X20196Y7527D01*
X20141Y7521D01*
X20086Y7527D01*
X20034Y7545D01*
X19988Y7574D01*
X19947Y7613D01*
X19868Y7531D01*
X19923Y7463D01*
X19989Y7415D01*
X20068Y7386D01*
X20158Y7377D01*
X20218Y7381D01*
X20277Y7394D01*
X20332Y7415D01*
X20386Y7445D01*
X20435Y7482D01*
X20478Y7527D01*
X20515Y7578D01*
X20547Y7636D01*
X20572Y7699D01*
X20590Y7768D01*
X20600Y7840D01*
X20604Y7918D01*
X20601Y7993D01*
X20591Y8066D01*
X20575Y8134D01*
X20552Y8199D01*
X20523Y8259D01*
X20487Y8311D01*
X20445Y8356D01*
X20397Y8393D01*
X20344Y8423D01*
X20287Y8444D01*
X20228Y8456D01*
X20165Y8461D01*
X20120Y8458D01*
X20077Y8451D01*
X20036Y8438D01*
X19998Y8421D01*
X19964Y8400D01*
X19932Y8375D01*
X19904Y8348D01*
X19879Y8318D01*
X19879Y8832D01*
X19704Y8832D01*
X19704Y7400D01*
X19868Y7400D01*
X19868Y7400D01*
X18748Y7400D02*
X18748Y7552D01*
X18814Y7475D01*
X18891Y7421D01*
X18979Y7388D01*
X19078Y7377D01*
X19123Y7379D01*
X19166Y7385D01*
X19208Y7396D01*
X19249Y7412D01*
X19286Y7430D01*
X19318Y7451D01*
X19345Y7475D01*
X19367Y7500D01*
X19385Y7528D01*
X19400Y7559D01*
X19412Y7593D01*
X19421Y7630D01*
X19426Y7660D01*
X19429Y7697D01*
X19431Y7742D01*
X19432Y7795D01*
X19432Y8437D01*
X19256Y8437D01*
X19256Y7862D01*
X19256Y7799D01*
X19254Y7747D01*
X19250Y7706D01*
X19245Y7676D01*
X19235Y7644D01*
X19220Y7614D01*
X19200Y7589D01*
X19175Y7567D01*
X19147Y7550D01*
X19115Y7538D01*
X19080Y7530D01*
X19042Y7528D01*
X19003Y7530D01*
X18966Y7538D01*
X18929Y7551D01*
X18894Y7568D01*
X18862Y7591D01*
X18835Y7616D01*
X18813Y7646D01*
X18796Y7679D01*
X18783Y7718D01*
X18774Y7764D01*
X18769Y7819D01*
X18767Y7881D01*
X18767Y8437D01*
X18591Y8437D01*
X18591Y7400D01*
X18748Y7400D01*
X18748Y7400D01*
X17639Y7528D02*
X17687Y7489D01*
X17694Y7485D01*
X17761Y7583D01*
X17730Y7611D01*
X17703Y7644D01*
X17682Y7680D01*
X17670Y7714D01*
X17661Y7754D01*
X17655Y7801D01*
X17654Y7856D01*
X17654Y7921D01*
X17654Y7921D01*
X17708Y7902D01*
X17773Y7884D01*
X17851Y7869D01*
X17941Y7854D01*
X17991Y7846D01*
X18033Y7837D01*
X18068Y7828D01*
X18094Y7819D01*
X18115Y7808D01*
X18134Y7795D01*
X18150Y7779D01*
X18163Y7762D01*
X18174Y7742D01*
X18182Y7722D01*
X18186Y7701D01*
X18188Y7678D01*
X18185Y7645D01*
X18175Y7614D01*
X18158Y7586D01*
X18135Y7561D01*
X18105Y7541D01*
X18069Y7526D01*
X18027Y7517D01*
X17979Y7514D01*
X17929Y7517D01*
X17883Y7525D01*
X17839Y7539D01*
X17798Y7559D01*
X17761Y7583D01*
X17694Y7485D01*
X17735Y7457D01*
X17781Y7431D01*
X17827Y7411D01*
X17873Y7396D01*
X17921Y7385D01*
X17970Y7379D01*
X18021Y7377D01*
X18101Y7382D01*
X18172Y7397D01*
X18233Y7424D01*
X18284Y7460D01*
X18324Y7505D01*
X18352Y7555D01*
X18370Y7611D01*
X18375Y7673D01*
X18373Y7711D01*
X18367Y7746D01*
X18356Y7780D01*
X18341Y7813D01*
X18322Y7843D01*
X18301Y7869D01*
X18277Y7893D01*
X18250Y7914D01*
X18221Y7932D01*
X18190Y7947D01*
X18158Y7960D01*
X18123Y7971D01*
X18094Y7978D01*
X18058Y7985D01*
X18016Y7991D01*
X17967Y7998D01*
X17868Y8011D01*
X17782Y8025D01*
X17711Y8041D01*
X17654Y8058D01*
X17653Y8075D01*
X17653Y8088D01*
X17653Y8098D01*
X17653Y8104D01*
X17656Y8154D01*
X17665Y8196D01*
X17681Y8230D01*
X17702Y8255D01*
X17740Y8282D01*
X17786Y8300D01*
X17840Y8311D01*
X17903Y8315D01*
X17961Y8312D01*
X18010Y8304D01*
X18052Y8291D01*
X18086Y8272D01*
X18113Y8246D01*
X18137Y8211D01*
X18157Y8169D01*
X18173Y8118D01*
X18345Y8141D01*
X18331Y8194D01*
X18314Y8241D01*
X18293Y8283D01*
X18268Y8319D01*
X18238Y8351D01*
X18202Y8379D01*
X18160Y8404D01*
X18113Y8424D01*
X18060Y8440D01*
X18003Y8451D01*
X17942Y8458D01*
X17877Y8461D01*
X17814Y8459D01*
X17757Y8453D01*
X17706Y8443D01*
X17661Y8429D01*
X17623Y8413D01*
X17589Y8394D01*
X17562Y8373D01*
X17539Y8351D01*
X17521Y8325D01*
X17506Y8297D01*
X17494Y8266D01*
X17485Y8231D01*
X17481Y8204D01*
X17478Y8168D01*
X17476Y8123D01*
X17476Y8069D01*
X17476Y7835D01*
X17475Y7723D01*
X17473Y7634D01*
X17470Y7568D01*
X17465Y7525D01*
X17458Y7492D01*
X17448Y7461D01*
X17436Y7430D01*
X17420Y7400D01*
X17604Y7400D01*
X17616Y7429D01*
X17626Y7459D01*
X17634Y7492D01*
X17639Y7528D01*
X17639Y7528D01*
X17207Y7400D02*
X17207Y8832D01*
X17032Y8832D01*
X17032Y7400D01*
X17207Y7400D01*
X17207Y7400D01*
X16205Y7400D02*
X16205Y8437D01*
X16047Y8437D01*
X16047Y8280D01*
X16018Y8330D01*
X15989Y8371D01*
X15962Y8403D01*
X15935Y8425D01*
X15909Y8441D01*
X15882Y8452D01*
X15853Y8458D01*
X15823Y8461D01*
X15778Y8457D01*
X15733Y8446D01*
X15688Y8429D01*
X15642Y8404D01*
X15703Y8241D01*
X15735Y8257D01*
X15767Y8269D01*
X15799Y8277D01*
X15831Y8279D01*
X15860Y8277D01*
X15886Y8270D01*
X15911Y8259D01*
X15935Y8244D01*
X15956Y8225D01*
X15974Y8203D01*
X15989Y8177D01*
X16000Y8148D01*
X16013Y8100D01*
X16022Y8050D01*
X16028Y7998D01*
X16030Y7943D01*
X16030Y7400D01*
X16205Y7400D01*
X16205Y7400D01*
X14861Y7528D02*
X14909Y7489D01*
X14916Y7485D01*
X14983Y7583D01*
X14951Y7611D01*
X14925Y7644D01*
X14904Y7680D01*
X14891Y7714D01*
X14883Y7754D01*
X14877Y7801D01*
X14875Y7856D01*
X14875Y7921D01*
X14875Y7921D01*
X14929Y7902D01*
X14995Y7884D01*
X15073Y7869D01*
X15163Y7854D01*
X15213Y7846D01*
X15255Y7837D01*
X15289Y7828D01*
X15316Y7819D01*
X15337Y7808D01*
X15356Y7795D01*
X15372Y7779D01*
X15385Y7762D01*
X15396Y7742D01*
X15404Y7722D01*
X15408Y7701D01*
X15410Y7678D01*
X15406Y7645D01*
X15396Y7614D01*
X15380Y7586D01*
X15356Y7561D01*
X15327Y7541D01*
X15291Y7526D01*
X15249Y7517D01*
X15201Y7514D01*
X15151Y7517D01*
X15105Y7525D01*
X15061Y7539D01*
X15020Y7559D01*
X14983Y7583D01*
X14916Y7485D01*
X14957Y7457D01*
X15003Y7431D01*
X15049Y7411D01*
X15095Y7396D01*
X15142Y7385D01*
X15192Y7379D01*
X15243Y7377D01*
X15323Y7382D01*
X15394Y7397D01*
X15454Y7424D01*
X15505Y7460D01*
X15545Y7505D01*
X15574Y7555D01*
X15591Y7611D01*
X15597Y7673D01*
X15595Y7711D01*
X15588Y7746D01*
X15578Y7780D01*
X15562Y7813D01*
X15544Y7843D01*
X15522Y7869D01*
X15498Y7893D01*
X15472Y7914D01*
X15443Y7932D01*
X15412Y7947D01*
X15379Y7960D01*
X15345Y7971D01*
X15316Y7978D01*
X15280Y7985D01*
X15238Y7991D01*
X15189Y7998D01*
X15089Y8011D01*
X15004Y8025D01*
X14933Y8041D01*
X14875Y8058D01*
X14875Y8075D01*
X14875Y8088D01*
X14875Y8098D01*
X14874Y8104D01*
X14878Y8154D01*
X14887Y8196D01*
X14902Y8230D01*
X14924Y8255D01*
X14962Y8282D01*
X15008Y8300D01*
X15062Y8311D01*
X15124Y8315D01*
X15182Y8312D01*
X15232Y8304D01*
X15274Y8291D01*
X15308Y8272D01*
X15335Y8246D01*
X15359Y8211D01*
X15379Y8169D01*
X15395Y8118D01*
X15567Y8141D01*
X15553Y8194D01*
X15536Y8241D01*
X15515Y8283D01*
X15490Y8319D01*
X15460Y8351D01*
X15424Y8379D01*
X15382Y8404D01*
X15334Y8424D01*
X15282Y8440D01*
X15225Y8451D01*
X15164Y8458D01*
X15099Y8461D01*
X15036Y8459D01*
X14979Y8453D01*
X14928Y8443D01*
X14883Y8429D01*
X14844Y8413D01*
X14811Y8394D01*
X14783Y8373D01*
X14761Y8351D01*
X14743Y8325D01*
X14728Y8297D01*
X14716Y8266D01*
X14706Y8231D01*
X14703Y8204D01*
X14700Y8168D01*
X14698Y8123D01*
X14698Y8069D01*
X14698Y7835D01*
X14697Y7723D01*
X14695Y7634D01*
X14691Y7568D01*
X14686Y7525D01*
X14679Y7492D01*
X14670Y7461D01*
X14657Y7430D01*
X14642Y7400D01*
X14826Y7400D01*
X14838Y7429D01*
X14848Y7459D01*
X14856Y7492D01*
X14861Y7528D01*
X14861Y7528D01*
X14424Y7400D02*
X14424Y8437D01*
X14248Y8437D01*
X14248Y7400D01*
X14424Y7400D01*
X14424Y7400D01*
X14424Y8629D02*
X14424Y8832D01*
X14248Y8832D01*
X14248Y8629D01*
X14424Y8629D01*
X14424Y8629D01*
X13985Y7400D02*
X13985Y8832D01*
X13809Y8832D01*
X13809Y7400D01*
X13985Y7400D01*
X13985Y7400D01*
X12981Y7003D02*
X12981Y8437D01*
X12821Y8437D01*
X12821Y8302D01*
X12735Y8218D01*
X12735Y8218D01*
X12773Y8159D01*
X12800Y8089D01*
X12816Y8007D01*
X12822Y7913D01*
X12822Y7913D01*
X12817Y7819D01*
X12802Y7739D01*
X12776Y7671D01*
X12741Y7617D01*
X12698Y7575D01*
X12651Y7545D01*
X12600Y7527D01*
X12544Y7521D01*
X12488Y7527D01*
X12436Y7546D01*
X12388Y7577D01*
X12344Y7620D01*
X12307Y7677D01*
X12281Y7747D01*
X12266Y7830D01*
X12260Y7927D01*
X12265Y8020D01*
X12281Y8101D01*
X12306Y8169D01*
X12342Y8224D01*
X12385Y8267D01*
X12431Y8298D01*
X12482Y8317D01*
X12537Y8323D01*
X12591Y8316D01*
X12642Y8297D01*
X12691Y8264D01*
X12735Y8218D01*
X12821Y8302D01*
X12792Y8339D01*
X12761Y8372D01*
X12728Y8399D01*
X12693Y8421D01*
X12655Y8438D01*
X12614Y8451D01*
X12569Y8458D01*
X12520Y8461D01*
X12456Y8456D01*
X12395Y8443D01*
X12338Y8422D01*
X12286Y8392D01*
X12238Y8354D01*
X12197Y8310D01*
X12161Y8258D01*
X12132Y8199D01*
X12110Y8136D01*
X12094Y8069D01*
X12084Y7999D01*
X12081Y7926D01*
X12084Y7849D01*
X12095Y7775D01*
X12113Y7705D01*
X12138Y7640D01*
X12170Y7580D01*
X12208Y7527D01*
X12253Y7482D01*
X12304Y7444D01*
X12359Y7415D01*
X12415Y7394D01*
X12473Y7381D01*
X12533Y7377D01*
X12576Y7379D01*
X12616Y7386D01*
X12654Y7397D01*
X12690Y7414D01*
X12724Y7433D01*
X12754Y7456D01*
X12781Y7480D01*
X12805Y7507D01*
X12805Y7003D01*
X12981Y7003D01*
X12981Y7003D01*
X11934Y7919D02*
X11924Y8053D01*
X11894Y8169D01*
X11844Y8267D01*
X11774Y8345D01*
X11703Y8396D01*
X11626Y8432D01*
X11540Y8453D01*
X11448Y8461D01*
X11346Y8452D01*
X11253Y8426D01*
X11171Y8382D01*
X11098Y8320D01*
X11039Y8244D01*
X10996Y8154D01*
X10971Y8050D01*
X10962Y7933D01*
X10966Y7838D01*
X10977Y7754D01*
X10996Y7681D01*
X11022Y7618D01*
X11056Y7564D01*
X11096Y7516D01*
X11143Y7475D01*
X11197Y7440D01*
X11256Y7412D01*
X11317Y7392D01*
X11381Y7381D01*
X11448Y7377D01*
X11460Y7378D01*
X11448Y7521D01*
X11385Y7527D01*
X11328Y7546D01*
X11276Y7577D01*
X11230Y7621D01*
X11192Y7677D01*
X11165Y7746D01*
X11149Y7829D01*
X11143Y7924D01*
X11149Y8015D01*
X11165Y8093D01*
X11192Y8161D01*
X11230Y8216D01*
X11277Y8259D01*
X11329Y8290D01*
X11385Y8309D01*
X11448Y8315D01*
X11511Y8309D01*
X11568Y8290D01*
X11620Y8260D01*
X11667Y8216D01*
X11705Y8161D01*
X11732Y8093D01*
X11748Y8012D01*
X11753Y7919D01*
X11753Y7919D01*
X11748Y7825D01*
X11732Y7744D01*
X11705Y7676D01*
X11667Y7620D01*
X11620Y7577D01*
X11568Y7546D01*
X11511Y7527D01*
X11448Y7521D01*
X11460Y7378D01*
X11551Y7385D01*
X11645Y7411D01*
X11727Y7455D01*
X11800Y7516D01*
X11859Y7594D01*
X11901Y7687D01*
X11926Y7795D01*
X11934Y7919D01*
X11934Y7919D01*
X10565Y7400D02*
X10882Y8437D01*
X10701Y8437D01*
X10536Y7838D01*
X10474Y7616D01*
X10469Y7635D01*
X10459Y7678D01*
X10442Y7742D01*
X10420Y7830D01*
X10255Y8437D01*
X10075Y8437D01*
X9919Y7836D01*
X9868Y7637D01*
X9808Y7838D01*
X9630Y8437D01*
X9459Y8437D01*
X9784Y7400D01*
X9966Y7400D01*
X10131Y8021D01*
X10171Y8198D01*
X10381Y7400D01*
X10565Y7400D01*
X10565Y7400D01*
X8602Y7734D02*
X8420Y7712D01*
X8446Y7636D01*
X8482Y7570D01*
X8526Y7513D01*
X8580Y7464D01*
X8642Y7426D01*
X8712Y7399D01*
X8790Y7382D01*
X8876Y7377D01*
X8984Y7385D01*
X9080Y7412D01*
X9165Y7455D01*
X9237Y7517D01*
X9296Y7594D01*
X9337Y7685D01*
X9362Y7790D01*
X9371Y7910D01*
X9362Y8033D01*
X9337Y8142D01*
X9295Y8236D01*
X9236Y8316D01*
X9163Y8379D01*
X9081Y8424D01*
X8989Y8452D01*
X8886Y8461D01*
X8871Y8459D01*
X8884Y8316D01*
X8942Y8311D01*
X8996Y8296D01*
X9044Y8270D01*
X9088Y8235D01*
X9125Y8191D01*
X9152Y8140D01*
X9170Y8083D01*
X9179Y8018D01*
X9179Y8018D01*
X8600Y8018D01*
X8609Y8080D01*
X8623Y8133D01*
X8642Y8178D01*
X8666Y8214D01*
X8712Y8259D01*
X8763Y8291D01*
X8820Y8310D01*
X8884Y8316D01*
X8871Y8459D01*
X8787Y8452D01*
X8697Y8425D01*
X8617Y8381D01*
X8546Y8319D01*
X8489Y8241D01*
X8448Y8149D01*
X8423Y8042D01*
X8415Y7921D01*
X8415Y7912D01*
X8415Y7901D01*
X8415Y7888D01*
X8416Y7874D01*
X9189Y7874D01*
X9179Y7793D01*
X9160Y7723D01*
X9131Y7662D01*
X9092Y7612D01*
X9046Y7572D01*
X8995Y7544D01*
X8938Y7527D01*
X8875Y7521D01*
X8829Y7524D01*
X8786Y7534D01*
X8746Y7550D01*
X8710Y7572D01*
X8678Y7601D01*
X8649Y7638D01*
X8624Y7682D01*
X8602Y7734D01*
X8602Y7734D01*
X8202Y7400D02*
X8202Y8437D01*
X8043Y8437D01*
X8043Y8280D01*
X8014Y8330D01*
X7985Y8371D01*
X7958Y8403D01*
X7932Y8425D01*
X7905Y8441D01*
X7878Y8452D01*
X7849Y8458D01*
X7819Y8461D01*
X7774Y8457D01*
X7729Y8446D01*
X7684Y8429D01*
X7638Y8404D01*
X7699Y8241D01*
X7731Y8257D01*
X7763Y8269D01*
X7795Y8277D01*
X7828Y8279D01*
X7856Y8277D01*
X7882Y8270D01*
X7907Y8259D01*
X7931Y8244D01*
X7952Y8225D01*
X7970Y8203D01*
X7985Y8177D01*
X7997Y8148D01*
X8009Y8100D01*
X8019Y8050D01*
X8024Y7998D01*
X8026Y7943D01*
X8026Y7400D01*
X8202Y7400D01*
X8202Y7400D01*
X7048Y7710D02*
X6875Y7737D01*
X6864Y7688D01*
X6847Y7645D01*
X6823Y7608D01*
X6793Y7577D01*
X6756Y7552D01*
X6713Y7535D01*
X6663Y7525D01*
X6606Y7521D01*
X6549Y7524D01*
X6501Y7533D01*
X6459Y7549D01*
X6426Y7570D01*
X6401Y7596D01*
X6382Y7624D01*
X6371Y7654D01*
X6368Y7686D01*
X6371Y7714D01*
X6381Y7739D01*
X6397Y7761D01*
X6419Y7780D01*
X6444Y7792D01*
X6482Y7806D01*
X6534Y7822D01*
X6599Y7839D01*
X6688Y7863D01*
X6763Y7885D01*
X6822Y7905D01*
X6867Y7924D01*
X6902Y7943D01*
X6933Y7966D01*
X6959Y7993D01*
X6980Y8023D01*
X6997Y8055D01*
X7009Y8089D01*
X7017Y8124D01*
X7019Y8162D01*
X7017Y8196D01*
X7011Y8228D01*
X7001Y8260D01*
X6987Y8290D01*
X6970Y8318D01*
X6950Y8344D01*
X6927Y8367D01*
X6901Y8388D01*
X6879Y8403D01*
X6852Y8416D01*
X6823Y8428D01*
X6789Y8440D01*
X6753Y8449D01*
X6716Y8455D01*
X6677Y8459D01*
X6637Y8461D01*
X6578Y8458D01*
X6523Y8452D01*
X6471Y8441D01*
X6423Y8425D01*
X6380Y8406D01*
X6343Y8384D01*
X6312Y8359D01*
X6287Y8330D01*
X6266Y8298D01*
X6250Y8260D01*
X6236Y8217D01*
X6226Y8170D01*
X6398Y8146D01*
X6407Y8184D01*
X6421Y8217D01*
X6441Y8246D01*
X6466Y8271D01*
X6497Y8291D01*
X6534Y8305D01*
X6576Y8313D01*
X6625Y8316D01*
X6681Y8314D01*
X6728Y8306D01*
X6767Y8293D01*
X6797Y8276D01*
X6820Y8255D01*
X6836Y8233D01*
X6846Y8208D01*
X6849Y8182D01*
X6848Y8166D01*
X6844Y8150D01*
X6837Y8135D01*
X6828Y8121D01*
X6815Y8107D01*
X6800Y8095D01*
X6782Y8084D01*
X6760Y8074D01*
X6741Y8067D01*
X6708Y8058D01*
X6663Y8045D01*
X6605Y8029D01*
X6519Y8005D01*
X6447Y7984D01*
X6389Y7964D01*
X6345Y7947D01*
X6310Y7930D01*
X6279Y7908D01*
X6252Y7884D01*
X6229Y7855D01*
X6211Y7823D01*
X6198Y7787D01*
X6190Y7748D01*
X6187Y7705D01*
X6190Y7661D01*
X6200Y7619D01*
X6216Y7579D01*
X6238Y7539D01*
X6267Y7503D01*
X6301Y7470D01*
X6341Y7442D01*
X6386Y7419D01*
X6436Y7400D01*
X6489Y7387D01*
X6546Y7379D01*
X6605Y7377D01*
X6700Y7382D01*
X6783Y7398D01*
X6854Y7424D01*
X6913Y7461D01*
X6961Y7508D01*
X7000Y7565D01*
X7029Y7632D01*
X7048Y7710D01*
X7048Y7710D01*
X5298Y7400D02*
X5298Y7552D01*
X5364Y7475D01*
X5441Y7421D01*
X5529Y7388D01*
X5627Y7377D01*
X5673Y7379D01*
X5716Y7385D01*
X5758Y7396D01*
X5799Y7412D01*
X5836Y7430D01*
X5868Y7451D01*
X5895Y7475D01*
X5917Y7500D01*
X5935Y7528D01*
X5950Y7559D01*
X5962Y7593D01*
X5971Y7630D01*
X5976Y7660D01*
X5979Y7697D01*
X5981Y7742D01*
X5982Y7795D01*
X5982Y8437D01*
X5806Y8437D01*
X5806Y7862D01*
X5805Y7799D01*
X5803Y7747D01*
X5800Y7706D01*
X5795Y7676D01*
X5785Y7644D01*
X5769Y7614D01*
X5750Y7589D01*
X5725Y7567D01*
X5697Y7550D01*
X5665Y7538D01*
X5630Y7530D01*
X5592Y7528D01*
X5553Y7530D01*
X5516Y7538D01*
X5479Y7551D01*
X5444Y7568D01*
X5412Y7591D01*
X5385Y7616D01*
X5363Y7646D01*
X5346Y7679D01*
X5333Y7718D01*
X5324Y7764D01*
X5319Y7819D01*
X5317Y7881D01*
X5317Y8437D01*
X5141Y8437D01*
X5141Y7400D01*
X5298Y7400D01*
X5298Y7400D01*
X4866Y7003D02*
X4866Y8437D01*
X4706Y8437D01*
X4706Y8302D01*
X4620Y8218D01*
X4620Y8218D01*
X4658Y8159D01*
X4685Y8089D01*
X4701Y8007D01*
X4706Y7913D01*
X4706Y7913D01*
X4701Y7819D01*
X4686Y7739D01*
X4661Y7671D01*
X4625Y7617D01*
X4583Y7575D01*
X4536Y7545D01*
X4485Y7527D01*
X4429Y7521D01*
X4373Y7527D01*
X4320Y7546D01*
X4272Y7577D01*
X4228Y7620D01*
X4192Y7677D01*
X4166Y7747D01*
X4150Y7830D01*
X4145Y7927D01*
X4150Y8020D01*
X4165Y8101D01*
X4191Y8169D01*
X4227Y8224D01*
X4269Y8267D01*
X4316Y8298D01*
X4367Y8317D01*
X4421Y8323D01*
X4476Y8316D01*
X4527Y8297D01*
X4575Y8264D01*
X4620Y8218D01*
X4706Y8302D01*
X4676Y8339D01*
X4645Y8372D01*
X4612Y8399D01*
X4578Y8421D01*
X4540Y8438D01*
X4499Y8451D01*
X4454Y8458D01*
X4405Y8461D01*
X4340Y8456D01*
X4280Y8443D01*
X4223Y8422D01*
X4170Y8392D01*
X4123Y8354D01*
X4081Y8310D01*
X4046Y8258D01*
X4017Y8199D01*
X3994Y8136D01*
X3978Y8069D01*
X3969Y7999D01*
X3965Y7926D01*
X3969Y7849D01*
X3980Y7775D01*
X3997Y7705D01*
X4022Y7640D01*
X4054Y7580D01*
X4092Y7527D01*
X4137Y7482D01*
X4188Y7444D01*
X4244Y7415D01*
X4300Y7394D01*
X4358Y7381D01*
X4417Y7377D01*
X4460Y7379D01*
X4501Y7386D01*
X4539Y7397D01*
X4575Y7414D01*
X4608Y7433D01*
X4639Y7456D01*
X4666Y7480D01*
X4690Y7507D01*
X4690Y7003D01*
X4866Y7003D01*
X4866Y7003D01*
X3753Y7003D02*
X3753Y8437D01*
X3593Y8437D01*
X3593Y8302D01*
X3507Y8218D01*
X3508Y8218D01*
X3546Y8159D01*
X3573Y8089D01*
X3589Y8007D01*
X3594Y7913D01*
X3594Y7913D01*
X3589Y7819D01*
X3574Y7739D01*
X3549Y7671D01*
X3513Y7617D01*
X3470Y7575D01*
X3424Y7545D01*
X3372Y7527D01*
X3317Y7521D01*
X3260Y7527D01*
X3208Y7546D01*
X3160Y7577D01*
X3116Y7620D01*
X3080Y7677D01*
X3054Y7747D01*
X3038Y7830D01*
X3033Y7927D01*
X3038Y8020D01*
X3053Y8101D01*
X3079Y8169D01*
X3114Y8224D01*
X3157Y8267D01*
X3204Y8298D01*
X3254Y8317D01*
X3309Y8323D01*
X3364Y8316D01*
X3415Y8297D01*
X3463Y8264D01*
X3507Y8218D01*
X3593Y8302D01*
X3564Y8339D01*
X3533Y8372D01*
X3500Y8399D01*
X3465Y8421D01*
X3428Y8438D01*
X3386Y8451D01*
X3341Y8458D01*
X3292Y8461D01*
X3228Y8456D01*
X3167Y8443D01*
X3111Y8422D01*
X3058Y8392D01*
X3010Y8354D01*
X2969Y8310D01*
X2934Y8258D01*
X2905Y8199D01*
X2882Y8136D01*
X2866Y8069D01*
X2856Y7999D01*
X2853Y7926D01*
X2857Y7849D01*
X2867Y7775D01*
X2885Y7705D01*
X2910Y7640D01*
X2942Y7580D01*
X2980Y7527D01*
X3025Y7482D01*
X3076Y7444D01*
X3131Y7415D01*
X3188Y7394D01*
X3246Y7381D01*
X3305Y7377D01*
X3348Y7379D01*
X3388Y7386D01*
X3427Y7397D01*
X3463Y7414D01*
X3496Y7433D01*
X3526Y7456D01*
X3554Y7480D01*
X3578Y7507D01*
X3578Y7003D01*
X3753Y7003D01*
X3753Y7003D01*
X2645Y7400D02*
X2645Y8832D01*
X2469Y8832D01*
X2469Y7400D01*
X2645Y7400D01*
X2645Y7400D01*
X2205Y7001D02*
X2224Y7166D01*
X2196Y7159D01*
X2170Y7154D01*
X2146Y7151D01*
X2123Y7150D01*
X2096Y7151D01*
X2071Y7155D01*
X2049Y7161D01*
X2030Y7170D01*
X2013Y7180D01*
X1998Y7193D01*
X1984Y7208D01*
X1972Y7224D01*
X1963Y7242D01*
X1950Y7270D01*
X1936Y7308D01*
X1918Y7355D01*
X1916Y7363D01*
X1912Y7373D01*
X1908Y7385D01*
X1903Y7398D01*
X2296Y8437D01*
X2107Y8437D01*
X1891Y7837D01*
X1871Y7779D01*
X1851Y7719D01*
X1833Y7659D01*
X1816Y7596D01*
X1800Y7656D01*
X1783Y7716D01*
X1764Y7775D01*
X1744Y7833D01*
X1522Y8437D01*
X1346Y8437D01*
X1741Y7382D01*
X1771Y7304D01*
X1797Y7238D01*
X1820Y7186D01*
X1839Y7147D01*
X1864Y7107D01*
X1890Y7072D01*
X1917Y7043D01*
X1947Y7020D01*
X1978Y7002D01*
X2013Y6989D01*
X2051Y6982D01*
X2091Y6979D01*
X2117Y6980D01*
X2145Y6984D01*
X2174Y6991D01*
X2205Y7001D01*
X2205Y7001D01*
G37*
M02*