%FSLAX33Y33*%
%MOMM*%
%AMRect-W1250000-H1250000-RO1.500*
21,1,1.25,1.25,0.,0.,90*%
%AMRect-W1500000-H1500000-RO0.500*
21,1,1.5,1.5,0.,0.,270*%
%AMRect-W2049999-H2049999-RO0.500*
21,1,2.049999,2.049999,0.,0.,270*%
%ADD10C,0.0508*%
%ADD11C,1.25*%
%ADD12Rect-W1250000-H1250000-RO1.500*%
%ADD13C,1.5*%
%ADD14C,3.*%
%ADD15Rect-W1500000-H1500000-RO0.500*%
%ADD16C,2.049999*%
%ADD17Rect-W2049999-H2049999-RO0.500*%
D10*
%LNpour fill*%
G01*
X44975Y3514D02*
X44975Y3514D01*
X44975Y13486*
X40492Y16475*
X29511Y16475*
X28514Y15478*
X28505Y15475*
X17525Y15475*
X17525Y1525*
X28505Y1525*
X28514Y1522*
X29511Y0525*
X40492Y0525*
X44975Y3514*
X35627Y12249D02*
X35627Y12249D01*
X35659Y12251*
X35661Y12252*
X35694Y12259*
X35696Y12260*
X35727Y12273*
X35729Y12274*
X35757Y12291*
X35759Y12292*
X35784Y12314*
X35786Y12316*
X35808Y12341*
X35809Y12343*
X35826Y12371*
X35827Y12373*
X35840Y12404*
X35841Y12406*
X35848Y12439*
X35849Y12441*
X35851Y12474*
X35851Y12475*
X35851Y14525*
X35851Y14526*
X35849Y14559*
X35848Y14561*
X35841Y14594*
X35840Y14596*
X35827Y14627*
X35826Y14629*
X35809Y14657*
X35808Y14659*
X35786Y14684*
X35784Y14686*
X35759Y14708*
X35757Y14709*
X35729Y14726*
X35727Y14727*
X35696Y14740*
X35694Y14741*
X35661Y14748*
X35659Y14749*
X35626Y14751*
X35625Y14751*
X33575Y14751*
X33574Y14751*
X33541Y14749*
X33539Y14748*
X33506Y14741*
X33504Y14740*
X33473Y14727*
X33471Y14726*
X33443Y14709*
X33441Y14708*
X33416Y14686*
X33414Y14684*
X33392Y14659*
X33391Y14657*
X33374Y14629*
X33373Y14627*
X33360Y14596*
X33359Y14594*
X33352Y14561*
X33351Y14559*
X33349Y14527*
X33349Y14526*
X33349Y12474*
X33349Y12474*
X33351Y12441*
X33352Y12439*
X33359Y12406*
X33360Y12404*
X33373Y12373*
X33374Y12371*
X33391Y12343*
X33392Y12341*
X33414Y12316*
X33416Y12314*
X33441Y12292*
X33443Y12291*
X33471Y12274*
X33473Y12273*
X33504Y12260*
X33506Y12259*
X33539Y12252*
X33541Y12251*
X33574Y12249*
X33574Y12249*
X35626Y12249*
X35627Y12249*
X24184Y12755D02*
X24184Y12755D01*
X24380Y12803*
X24383Y12804*
X24562Y12898*
X24565Y12900*
X24716Y13034*
X24718Y13037*
X24833Y13203*
X24835Y13206*
X24906Y13395*
X24907Y13398*
X24931Y13598*
X24931Y13602*
X24907Y13802*
X24906Y13805*
X24835Y13994*
X24833Y13997*
X24718Y14163*
X24716Y14166*
X24565Y14300*
X24562Y14302*
X24383Y14396*
X24380Y14397*
X24184Y14445*
X24181Y14445*
X23979Y14445*
X23976Y14445*
X23780Y14397*
X23777Y14396*
X23598Y14302*
X23595Y14300*
X23444Y14166*
X23442Y14163*
X23327Y13997*
X23325Y13994*
X23254Y13805*
X23253Y13802*
X23229Y13602*
X23229Y13598*
X23253Y13398*
X23254Y13395*
X23325Y13206*
X23327Y13203*
X23442Y13037*
X23444Y13034*
X23595Y12900*
X23598Y12898*
X23777Y12804*
X23780Y12803*
X23976Y12755*
X23979Y12755*
X24181Y12755*
X24184Y12755*
X18925Y12768D02*
X18925Y12768D01*
X18925Y13004*
X19075Y13004*
X19075Y12768*
X19094Y12753*
X19300Y12803*
X19303Y12804*
X19482Y12898*
X19485Y12900*
X19636Y13034*
X19638Y13037*
X19753Y13203*
X19755Y13206*
X19826Y13395*
X19827Y13398*
X19851Y13598*
X19851Y13602*
X19827Y13802*
X19826Y13805*
X19755Y13994*
X19753Y13997*
X19638Y14163*
X19636Y14166*
X19485Y14300*
X19482Y14302*
X19303Y14396*
X19300Y14397*
X19094Y14447*
X19075Y14432*
X19075Y14196*
X18925Y14196*
X18925Y14432*
X18906Y14447*
X18700Y14397*
X18697Y14396*
X18518Y14302*
X18515Y14300*
X18364Y14166*
X18362Y14163*
X18247Y13997*
X18245Y13994*
X18174Y13805*
X18173Y13802*
X18160Y13692*
X18175Y13675*
X18400Y13675*
X18400Y13525*
X18175Y13525*
X18160Y13508*
X18173Y13398*
X18174Y13395*
X18245Y13206*
X18247Y13203*
X18362Y13037*
X18364Y13034*
X18515Y12900*
X18518Y12898*
X18697Y12804*
X18700Y12803*
X18906Y12753*
X18925Y12768*
X42149Y9783D02*
X42149Y9783D01*
X42433Y9853*
X42436Y9854*
X42695Y9990*
X42698Y9992*
X42917Y10186*
X42919Y10188*
X43085Y10429*
X43087Y10431*
X43190Y10705*
X43191Y10708*
X43226Y10998*
X43226Y11002*
X43191Y11292*
X43190Y11295*
X43087Y11569*
X43085Y11571*
X42919Y11812*
X42917Y11814*
X42698Y12008*
X42695Y12010*
X42436Y12146*
X42433Y12147*
X42149Y12217*
X42146Y12218*
X41854Y12218*
X41851Y12217*
X41567Y12147*
X41564Y12146*
X41305Y12010*
X41302Y12008*
X41083Y11814*
X41081Y11812*
X40915Y11571*
X40913Y11569*
X40810Y11295*
X40809Y11292*
X40774Y11002*
X40774Y10998*
X40809Y10708*
X40810Y10705*
X40913Y10431*
X40915Y10429*
X41081Y10188*
X41083Y10186*
X41302Y9992*
X41305Y9990*
X41564Y9854*
X41567Y9853*
X41851Y9783*
X41854Y9782*
X42146Y9782*
X42149Y9783*
X34877Y7280D02*
X34877Y7280D01*
X34880Y7280*
X35142Y7372*
X35144Y7373*
X35379Y7521*
X35381Y7523*
X35577Y7719*
X35579Y7721*
X35727Y7956*
X35728Y7958*
X35820Y8220*
X35820Y8223*
X35841Y8408*
X35826Y8425*
X35600Y8425*
X35600Y8575*
X35826Y8575*
X35841Y8592*
X35820Y8777*
X35820Y8780*
X35728Y9042*
X35727Y9044*
X35579Y9279*
X35577Y9281*
X35381Y9477*
X35379Y9479*
X35144Y9627*
X35142Y9628*
X34880Y9720*
X34877Y9720*
X34692Y9741*
X34675Y9726*
X34675Y9493*
X34525Y9493*
X34525Y9726*
X34508Y9741*
X34323Y9720*
X34320Y9720*
X34058Y9628*
X34056Y9627*
X33821Y9479*
X33819Y9477*
X33623Y9281*
X33621Y9279*
X33473Y9044*
X33472Y9042*
X33380Y8780*
X33380Y8777*
X33359Y8592*
X33374Y8575*
X33600Y8575*
X33600Y8425*
X33374Y8425*
X33359Y8408*
X33380Y8223*
X33380Y8220*
X33472Y7958*
X33473Y7956*
X33621Y7721*
X33623Y7719*
X33819Y7523*
X33821Y7521*
X34056Y7373*
X34058Y7372*
X34320Y7280*
X34323Y7280*
X34599Y7249*
X34601Y7249*
X34877Y7280*
X19104Y5605D02*
X19104Y5605D01*
X19300Y5653*
X19303Y5654*
X19482Y5748*
X19485Y5750*
X19636Y5884*
X19638Y5887*
X19753Y6053*
X19755Y6056*
X19826Y6245*
X19827Y6248*
X19851Y6448*
X19851Y6452*
X19827Y6652*
X19826Y6655*
X19755Y6844*
X19753Y6847*
X19638Y7013*
X19636Y7016*
X19485Y7150*
X19482Y7152*
X19303Y7246*
X19300Y7247*
X19104Y7295*
X19101Y7295*
X18899Y7295*
X18896Y7295*
X18700Y7247*
X18697Y7246*
X18518Y7152*
X18515Y7150*
X18364Y7016*
X18362Y7013*
X18247Y6847*
X18245Y6844*
X18174Y6655*
X18173Y6652*
X18149Y6452*
X18149Y6448*
X18173Y6248*
X18174Y6245*
X18245Y6056*
X18247Y6053*
X18362Y5887*
X18364Y5884*
X18515Y5750*
X18518Y5748*
X18697Y5654*
X18700Y5653*
X18896Y5605*
X18899Y5605*
X19101Y5605*
X19104Y5605*
X24005Y5618D02*
X24005Y5618D01*
X24005Y5854*
X24155Y5854*
X24155Y5618*
X24174Y5603*
X24380Y5653*
X24383Y5654*
X24562Y5748*
X24565Y5750*
X24716Y5884*
X24718Y5887*
X24833Y6053*
X24835Y6056*
X24906Y6245*
X24907Y6248*
X24920Y6358*
X24905Y6375*
X24680Y6375*
X24680Y6525*
X24905Y6525*
X24920Y6542*
X24907Y6652*
X24906Y6655*
X24835Y6844*
X24833Y6847*
X24718Y7013*
X24716Y7016*
X24565Y7150*
X24562Y7152*
X24383Y7246*
X24380Y7247*
X24174Y7297*
X24155Y7282*
X24155Y7046*
X24005Y7046*
X24005Y7282*
X23986Y7297*
X23780Y7247*
X23777Y7246*
X23598Y7152*
X23595Y7150*
X23444Y7016*
X23442Y7013*
X23327Y6847*
X23325Y6844*
X23254Y6655*
X23253Y6652*
X23229Y6452*
X23229Y6448*
X23253Y6248*
X23254Y6245*
X23325Y6056*
X23327Y6053*
X23442Y5887*
X23444Y5884*
X23595Y5750*
X23598Y5748*
X23777Y5654*
X23780Y5653*
X23986Y5603*
X24005Y5618*
X42149Y4783D02*
X42149Y4783D01*
X42433Y4853*
X42436Y4854*
X42695Y4990*
X42698Y4992*
X42917Y5186*
X42919Y5188*
X43085Y5429*
X43087Y5431*
X43190Y5705*
X43191Y5708*
X43226Y5998*
X43226Y6002*
X43191Y6292*
X43190Y6295*
X43087Y6569*
X43085Y6571*
X42919Y6812*
X42917Y6814*
X42698Y7008*
X42695Y7010*
X42436Y7146*
X42433Y7147*
X42149Y7217*
X42146Y7218*
X41854Y7218*
X41851Y7217*
X41567Y7147*
X41564Y7146*
X41305Y7010*
X41302Y7008*
X41083Y6814*
X41081Y6812*
X40915Y6571*
X40913Y6569*
X40810Y6295*
X40809Y6292*
X40774Y6002*
X40774Y5998*
X40809Y5708*
X40810Y5705*
X40913Y5431*
X40915Y5429*
X41081Y5188*
X41083Y5186*
X41302Y4992*
X41305Y4990*
X41564Y4854*
X41567Y4853*
X41851Y4783*
X41854Y4782*
X42146Y4782*
X42149Y4783*
X34877Y2280D02*
X34877Y2280D01*
X34880Y2280*
X35142Y2372*
X35144Y2373*
X35379Y2521*
X35381Y2523*
X35577Y2719*
X35579Y2721*
X35727Y2956*
X35728Y2958*
X35820Y3220*
X35820Y3223*
X35851Y3499*
X35851Y3501*
X35820Y3777*
X35820Y3780*
X35728Y4042*
X35727Y4044*
X35579Y4279*
X35577Y4281*
X35381Y4477*
X35379Y4479*
X35144Y4627*
X35142Y4628*
X34880Y4720*
X34877Y4720*
X34601Y4751*
X34599Y4751*
X34323Y4720*
X34320Y4720*
X34058Y4628*
X34056Y4627*
X33821Y4479*
X33819Y4477*
X33623Y4281*
X33621Y4279*
X33473Y4044*
X33472Y4042*
X33380Y3780*
X33380Y3777*
X33349Y3501*
X33349Y3499*
X33380Y3223*
X33380Y3220*
X33472Y2958*
X33473Y2956*
X33621Y2721*
X33623Y2719*
X33819Y2523*
X33821Y2521*
X34056Y2373*
X34058Y2372*
X34320Y2280*
X34323Y2280*
X34599Y2249*
X34601Y2249*
X34877Y2280*
X29486Y0550D02*
X40529Y0550D01*
X29437Y0599D02*
X40603Y0599D01*
X29387Y0649D02*
X40677Y0649D01*
X29338Y0698D02*
X40751Y0698D01*
X29288Y0748D02*
X40826Y0748D01*
X29239Y0797D02*
X40900Y0797D01*
X29189Y0847D02*
X40974Y0847D01*
X29140Y0896D02*
X41049Y0896D01*
X29090Y0946D02*
X41123Y0946D01*
X29041Y0995D02*
X41197Y0995D01*
X28991Y1045D02*
X41271Y1045D01*
X28942Y1094D02*
X41346Y1094D01*
X28892Y1144D02*
X41420Y1144D01*
X28843Y1193D02*
X41494Y1193D01*
X28793Y1243D02*
X41569Y1243D01*
X28743Y1292D02*
X41643Y1292D01*
X28694Y1342D02*
X41717Y1342D01*
X28644Y1392D02*
X41792Y1392D01*
X28595Y1441D02*
X41866Y1441D01*
X28545Y1491D02*
X41940Y1491D01*
X17525Y1540D02*
X42014Y1540D01*
X17525Y1590D02*
X42089Y1590D01*
X17525Y1639D02*
X42163Y1639D01*
X17525Y1689D02*
X42237Y1689D01*
X17525Y1738D02*
X42312Y1738D01*
X17525Y1788D02*
X42386Y1788D01*
X17525Y1837D02*
X42460Y1837D01*
X17525Y1887D02*
X42534Y1887D01*
X17525Y1936D02*
X42609Y1936D01*
X17525Y1986D02*
X42683Y1986D01*
X17525Y2035D02*
X42757Y2035D01*
X17525Y2085D02*
X42832Y2085D01*
X17525Y2134D02*
X42906Y2134D01*
X17525Y2184D02*
X42980Y2184D01*
X17525Y2234D02*
X43055Y2234D01*
X17525Y2283D02*
X34312Y2283D01*
X34888Y2283D02*
X43129Y2283D01*
X17525Y2333D02*
X34171Y2333D01*
X35029Y2333D02*
X43203Y2333D01*
X17525Y2382D02*
X34041Y2382D01*
X35159Y2382D02*
X43277Y2382D01*
X17525Y2432D02*
X33963Y2432D01*
X35237Y2432D02*
X43352Y2432D01*
X17525Y2481D02*
X33884Y2481D01*
X35316Y2481D02*
X43426Y2481D01*
X17525Y2531D02*
X33810Y2531D01*
X35390Y2531D02*
X43500Y2531D01*
X17525Y2580D02*
X33761Y2580D01*
X35439Y2580D02*
X43575Y2580D01*
X17525Y2630D02*
X33711Y2630D01*
X35489Y2630D02*
X43649Y2630D01*
X17525Y2679D02*
X33662Y2679D01*
X35538Y2679D02*
X43723Y2679D01*
X17525Y2729D02*
X33616Y2729D01*
X35584Y2729D02*
X43797Y2729D01*
X17525Y2778D02*
X33585Y2778D01*
X35615Y2778D02*
X43872Y2778D01*
X17525Y2828D02*
X33553Y2828D01*
X35647Y2828D02*
X43946Y2828D01*
X17525Y2877D02*
X33522Y2877D01*
X35678Y2877D02*
X44020Y2877D01*
X17525Y2927D02*
X33491Y2927D01*
X35709Y2927D02*
X44095Y2927D01*
X17525Y2977D02*
X33466Y2977D01*
X35734Y2977D02*
X44169Y2977D01*
X17525Y3026D02*
X33448Y3026D01*
X35752Y3026D02*
X44243Y3026D01*
X17525Y3076D02*
X33431Y3076D01*
X35769Y3076D02*
X44318Y3076D01*
X17525Y3125D02*
X33414Y3125D01*
X35786Y3125D02*
X44392Y3125D01*
X17525Y3175D02*
X33396Y3175D01*
X35804Y3175D02*
X44466Y3175D01*
X17525Y3224D02*
X33380Y3224D01*
X35820Y3224D02*
X44540Y3224D01*
X17525Y3274D02*
X33374Y3274D01*
X35826Y3274D02*
X44615Y3274D01*
X17525Y3323D02*
X33368Y3323D01*
X35832Y3323D02*
X44689Y3323D01*
X17525Y3373D02*
X33363Y3373D01*
X35837Y3373D02*
X44763Y3373D01*
X17525Y3422D02*
X33357Y3422D01*
X35843Y3422D02*
X44838Y3422D01*
X17525Y3472D02*
X33352Y3472D01*
X35848Y3472D02*
X44912Y3472D01*
X17525Y3521D02*
X33351Y3521D01*
X35849Y3521D02*
X44975Y3521D01*
X17525Y3571D02*
X33356Y3571D01*
X35844Y3571D02*
X44975Y3571D01*
X17525Y3620D02*
X33362Y3620D01*
X35838Y3620D02*
X44975Y3620D01*
X17525Y3670D02*
X33368Y3670D01*
X35832Y3670D02*
X44975Y3670D01*
X17525Y3719D02*
X33373Y3719D01*
X35827Y3719D02*
X44975Y3719D01*
X17525Y3769D02*
X33379Y3769D01*
X35821Y3769D02*
X44975Y3769D01*
X17525Y3819D02*
X33394Y3819D01*
X35806Y3819D02*
X44975Y3819D01*
X17525Y3868D02*
X33411Y3868D01*
X35789Y3868D02*
X44975Y3868D01*
X17525Y3918D02*
X33428Y3918D01*
X35772Y3918D02*
X44975Y3918D01*
X17525Y3967D02*
X33446Y3967D01*
X35754Y3967D02*
X44975Y3967D01*
X17525Y4017D02*
X33463Y4017D01*
X35737Y4017D02*
X44975Y4017D01*
X17525Y4066D02*
X33487Y4066D01*
X35713Y4066D02*
X44975Y4066D01*
X17525Y4116D02*
X33518Y4116D01*
X35682Y4116D02*
X44975Y4116D01*
X17525Y4165D02*
X33549Y4165D01*
X35651Y4165D02*
X44975Y4165D01*
X17525Y4215D02*
X33580Y4215D01*
X35620Y4215D02*
X44975Y4215D01*
X17525Y4264D02*
X33611Y4264D01*
X35589Y4264D02*
X44975Y4264D01*
X17525Y4314D02*
X33655Y4314D01*
X35545Y4314D02*
X44975Y4314D01*
X17525Y4363D02*
X33704Y4363D01*
X35496Y4363D02*
X44975Y4363D01*
X17525Y4413D02*
X33754Y4413D01*
X35446Y4413D02*
X44975Y4413D01*
X17525Y4462D02*
X33804Y4462D01*
X35396Y4462D02*
X44975Y4462D01*
X17525Y4512D02*
X33873Y4512D01*
X35327Y4512D02*
X44975Y4512D01*
X17525Y4561D02*
X33952Y4561D01*
X35248Y4561D02*
X44975Y4561D01*
X17525Y4611D02*
X34031Y4611D01*
X35169Y4611D02*
X44975Y4611D01*
X17525Y4661D02*
X34151Y4661D01*
X35049Y4661D02*
X44975Y4661D01*
X17525Y4710D02*
X34293Y4710D01*
X34907Y4710D02*
X44975Y4710D01*
X17525Y4760D02*
X44975Y4760D01*
X17525Y4809D02*
X41744Y4809D01*
X42256Y4809D02*
X44975Y4809D01*
X17525Y4859D02*
X41555Y4859D01*
X42445Y4859D02*
X44975Y4859D01*
X17525Y4908D02*
X41460Y4908D01*
X42540Y4908D02*
X44975Y4908D01*
X17525Y4958D02*
X41366Y4958D01*
X42634Y4958D02*
X44975Y4958D01*
X17525Y5007D02*
X41284Y5007D01*
X42716Y5007D02*
X44975Y5007D01*
X17525Y5057D02*
X41228Y5057D01*
X42772Y5057D02*
X44975Y5057D01*
X17525Y5106D02*
X41173Y5106D01*
X42827Y5106D02*
X44975Y5106D01*
X17525Y5156D02*
X41117Y5156D01*
X42883Y5156D02*
X44975Y5156D01*
X17525Y5205D02*
X41069Y5205D01*
X42931Y5205D02*
X44975Y5205D01*
X17525Y5255D02*
X41035Y5255D01*
X42965Y5255D02*
X44975Y5255D01*
X17525Y5304D02*
X41001Y5304D01*
X42999Y5304D02*
X44975Y5304D01*
X17525Y5354D02*
X40966Y5354D01*
X43034Y5354D02*
X44975Y5354D01*
X17525Y5403D02*
X40932Y5403D01*
X43068Y5403D02*
X44975Y5403D01*
X17525Y5453D02*
X40905Y5453D01*
X43095Y5453D02*
X44975Y5453D01*
X17525Y5503D02*
X40886Y5503D01*
X43114Y5503D02*
X44975Y5503D01*
X17525Y5552D02*
X40868Y5552D01*
X43132Y5552D02*
X44975Y5552D01*
X17525Y5602D02*
X40849Y5602D01*
X43151Y5602D02*
X44975Y5602D01*
X17525Y5651D02*
X18709Y5651D01*
X19291Y5651D02*
X23789Y5651D01*
X24005Y5651D02*
X24155Y5651D01*
X24371Y5651D02*
X40830Y5651D01*
X43170Y5651D02*
X44975Y5651D01*
X17525Y5701D02*
X18609Y5701D01*
X19391Y5701D02*
X23689Y5701D01*
X24005Y5701D02*
X24155Y5701D01*
X24471Y5701D02*
X40811Y5701D01*
X43189Y5701D02*
X44975Y5701D01*
X17525Y5750D02*
X18515Y5750D01*
X19485Y5750D02*
X23595Y5750D01*
X24005Y5750D02*
X24155Y5750D01*
X24565Y5750D02*
X40804Y5750D01*
X43196Y5750D02*
X44975Y5750D01*
X17525Y5800D02*
X18459Y5800D01*
X19541Y5800D02*
X23539Y5800D01*
X24005Y5800D02*
X24155Y5800D01*
X24621Y5800D02*
X40798Y5800D01*
X43202Y5800D02*
X44975Y5800D01*
X17525Y5849D02*
X18403Y5849D01*
X19597Y5849D02*
X23483Y5849D01*
X24005Y5849D02*
X24155Y5849D01*
X24677Y5849D02*
X40792Y5849D01*
X43208Y5849D02*
X44975Y5849D01*
X17525Y5899D02*
X18353Y5899D01*
X19647Y5899D02*
X23433Y5899D01*
X24727Y5899D02*
X40786Y5899D01*
X43214Y5899D02*
X44975Y5899D01*
X17525Y5948D02*
X18319Y5948D01*
X19681Y5948D02*
X23399Y5948D01*
X24761Y5948D02*
X40780Y5948D01*
X43220Y5948D02*
X44975Y5948D01*
X17525Y5998D02*
X18285Y5998D01*
X19715Y5998D02*
X23365Y5998D01*
X24795Y5998D02*
X40774Y5998D01*
X43226Y5998D02*
X44975Y5998D01*
X17525Y6047D02*
X18251Y6047D01*
X19749Y6047D02*
X23331Y6047D01*
X24829Y6047D02*
X40779Y6047D01*
X43221Y6047D02*
X44975Y6047D01*
X17525Y6097D02*
X18230Y6097D01*
X19770Y6097D02*
X23310Y6097D01*
X24850Y6097D02*
X40785Y6097D01*
X43215Y6097D02*
X44975Y6097D01*
X17525Y6146D02*
X18211Y6146D01*
X19789Y6146D02*
X23291Y6146D01*
X24869Y6146D02*
X40791Y6146D01*
X43209Y6146D02*
X44975Y6146D01*
X17525Y6196D02*
X18192Y6196D01*
X19808Y6196D02*
X23272Y6196D01*
X24888Y6196D02*
X40797Y6196D01*
X43203Y6196D02*
X44975Y6196D01*
X17525Y6245D02*
X18174Y6245D01*
X19826Y6245D02*
X23254Y6245D01*
X24906Y6245D02*
X40803Y6245D01*
X43197Y6245D02*
X44975Y6245D01*
X17525Y6295D02*
X18167Y6295D01*
X19833Y6295D02*
X23247Y6295D01*
X24913Y6295D02*
X40810Y6295D01*
X43190Y6295D02*
X44975Y6295D01*
X17525Y6345D02*
X18161Y6345D01*
X19839Y6345D02*
X23241Y6345D01*
X24919Y6345D02*
X40828Y6345D01*
X43172Y6345D02*
X44975Y6345D01*
X17525Y6394D02*
X18155Y6394D01*
X19845Y6394D02*
X23235Y6394D01*
X24680Y6394D02*
X40847Y6394D01*
X43153Y6394D02*
X44975Y6394D01*
X17525Y6444D02*
X18149Y6444D01*
X19851Y6444D02*
X23229Y6444D01*
X24680Y6444D02*
X40866Y6444D01*
X43134Y6444D02*
X44975Y6444D01*
X17525Y6493D02*
X18154Y6493D01*
X19846Y6493D02*
X23234Y6493D01*
X24680Y6493D02*
X40885Y6493D01*
X43115Y6493D02*
X44975Y6493D01*
X17525Y6543D02*
X18160Y6543D01*
X19840Y6543D02*
X23240Y6543D01*
X24920Y6543D02*
X40904Y6543D01*
X43096Y6543D02*
X44975Y6543D01*
X17525Y6592D02*
X18166Y6592D01*
X19834Y6592D02*
X23246Y6592D01*
X24914Y6592D02*
X40929Y6592D01*
X43071Y6592D02*
X44975Y6592D01*
X17525Y6642D02*
X18172Y6642D01*
X19828Y6642D02*
X23252Y6642D01*
X24908Y6642D02*
X40963Y6642D01*
X43037Y6642D02*
X44975Y6642D01*
X17525Y6691D02*
X18187Y6691D01*
X19813Y6691D02*
X23267Y6691D01*
X24893Y6691D02*
X40998Y6691D01*
X43002Y6691D02*
X44975Y6691D01*
X17525Y6741D02*
X18206Y6741D01*
X19794Y6741D02*
X23286Y6741D01*
X24874Y6741D02*
X41032Y6741D01*
X42968Y6741D02*
X44975Y6741D01*
X17525Y6790D02*
X18225Y6790D01*
X19775Y6790D02*
X23305Y6790D01*
X24855Y6790D02*
X41066Y6790D01*
X42934Y6790D02*
X44975Y6790D01*
X17525Y6840D02*
X18244Y6840D01*
X19756Y6840D02*
X23324Y6840D01*
X24836Y6840D02*
X41112Y6840D01*
X42888Y6840D02*
X44975Y6840D01*
X17525Y6889D02*
X18276Y6889D01*
X19724Y6889D02*
X23356Y6889D01*
X24804Y6889D02*
X41168Y6889D01*
X42832Y6889D02*
X44975Y6889D01*
X17525Y6939D02*
X18310Y6939D01*
X19690Y6939D02*
X23390Y6939D01*
X24770Y6939D02*
X41224Y6939D01*
X42776Y6939D02*
X44975Y6939D01*
X17525Y6988D02*
X18344Y6988D01*
X19656Y6988D02*
X23424Y6988D01*
X24736Y6988D02*
X41279Y6988D01*
X42721Y6988D02*
X44975Y6988D01*
X17525Y7038D02*
X18389Y7038D01*
X19611Y7038D02*
X23469Y7038D01*
X24691Y7038D02*
X41358Y7038D01*
X42642Y7038D02*
X44975Y7038D01*
X17525Y7087D02*
X18445Y7087D01*
X19555Y7087D02*
X23525Y7087D01*
X24005Y7087D02*
X24155Y7087D01*
X24635Y7087D02*
X41452Y7087D01*
X42548Y7087D02*
X44975Y7087D01*
X17525Y7137D02*
X18501Y7137D01*
X19499Y7137D02*
X23581Y7137D01*
X24005Y7137D02*
X24155Y7137D01*
X24579Y7137D02*
X41546Y7137D01*
X42454Y7137D02*
X44975Y7137D01*
X17525Y7187D02*
X18584Y7187D01*
X19416Y7187D02*
X23664Y7187D01*
X24005Y7187D02*
X24155Y7187D01*
X24496Y7187D02*
X41726Y7187D01*
X42274Y7187D02*
X44975Y7187D01*
X17525Y7236D02*
X18679Y7236D01*
X19321Y7236D02*
X23759Y7236D01*
X24005Y7236D02*
X24155Y7236D01*
X24401Y7236D02*
X44975Y7236D01*
X17525Y7286D02*
X18858Y7286D01*
X19142Y7286D02*
X23938Y7286D01*
X24001Y7286D02*
X24159Y7286D01*
X24222Y7286D02*
X34305Y7286D01*
X34895Y7286D02*
X44975Y7286D01*
X17525Y7335D02*
X34163Y7335D01*
X35037Y7335D02*
X44975Y7335D01*
X17525Y7385D02*
X34037Y7385D01*
X35163Y7385D02*
X44975Y7385D01*
X17525Y7434D02*
X33959Y7434D01*
X35241Y7434D02*
X44975Y7434D01*
X17525Y7484D02*
X33880Y7484D01*
X35320Y7484D02*
X44975Y7484D01*
X17525Y7533D02*
X33808Y7533D01*
X35392Y7533D02*
X44975Y7533D01*
X17525Y7583D02*
X33758Y7583D01*
X35442Y7583D02*
X44975Y7583D01*
X17525Y7632D02*
X33709Y7632D01*
X35491Y7632D02*
X44975Y7632D01*
X17525Y7682D02*
X33659Y7682D01*
X35541Y7682D02*
X44975Y7682D01*
X17525Y7731D02*
X33614Y7731D01*
X35586Y7731D02*
X44975Y7731D01*
X17525Y7781D02*
X33583Y7781D01*
X35617Y7781D02*
X44975Y7781D01*
X17525Y7830D02*
X33552Y7830D01*
X35648Y7830D02*
X44975Y7830D01*
X17525Y7880D02*
X33521Y7880D01*
X35679Y7880D02*
X44975Y7880D01*
X17525Y7929D02*
X33490Y7929D01*
X35710Y7929D02*
X44975Y7929D01*
X17525Y7979D02*
X33465Y7979D01*
X35735Y7979D02*
X44975Y7979D01*
X17525Y8029D02*
X33447Y8029D01*
X35753Y8029D02*
X44975Y8029D01*
X17525Y8078D02*
X33430Y8078D01*
X35770Y8078D02*
X44975Y8078D01*
X17525Y8128D02*
X33413Y8128D01*
X35787Y8128D02*
X44975Y8128D01*
X17525Y8177D02*
X33395Y8177D01*
X35805Y8177D02*
X44975Y8177D01*
X17525Y8227D02*
X33379Y8227D01*
X35821Y8227D02*
X44975Y8227D01*
X17525Y8276D02*
X33374Y8276D01*
X35826Y8276D02*
X44975Y8276D01*
X17525Y8326D02*
X33368Y8326D01*
X35832Y8326D02*
X44975Y8326D01*
X17525Y8375D02*
X33362Y8375D01*
X35838Y8375D02*
X44975Y8375D01*
X17525Y8425D02*
X33373Y8425D01*
X35827Y8425D02*
X44975Y8425D01*
X17525Y8474D02*
X33600Y8474D01*
X35600Y8474D02*
X44975Y8474D01*
X17525Y8524D02*
X33600Y8524D01*
X35600Y8524D02*
X44975Y8524D01*
X17525Y8573D02*
X33600Y8573D01*
X35600Y8573D02*
X44975Y8573D01*
X17525Y8623D02*
X33362Y8623D01*
X35838Y8623D02*
X44975Y8623D01*
X17525Y8672D02*
X33368Y8672D01*
X35832Y8672D02*
X44975Y8672D01*
X17525Y8722D02*
X33373Y8722D01*
X35827Y8722D02*
X44975Y8722D01*
X17525Y8772D02*
X33379Y8772D01*
X35821Y8772D02*
X44975Y8772D01*
X17525Y8821D02*
X33395Y8821D01*
X35805Y8821D02*
X44975Y8821D01*
X17525Y8871D02*
X33412Y8871D01*
X35788Y8871D02*
X44975Y8871D01*
X17525Y8920D02*
X33429Y8920D01*
X35771Y8920D02*
X44975Y8920D01*
X17525Y8970D02*
X33447Y8970D01*
X35753Y8970D02*
X44975Y8970D01*
X17525Y9019D02*
X33464Y9019D01*
X35736Y9019D02*
X44975Y9019D01*
X17525Y9069D02*
X33489Y9069D01*
X35711Y9069D02*
X44975Y9069D01*
X17525Y9118D02*
X33520Y9118D01*
X35680Y9118D02*
X44975Y9118D01*
X17525Y9168D02*
X33551Y9168D01*
X35649Y9168D02*
X44975Y9168D01*
X17525Y9217D02*
X33582Y9217D01*
X35618Y9217D02*
X44975Y9217D01*
X17525Y9267D02*
X33613Y9267D01*
X35587Y9267D02*
X44975Y9267D01*
X17525Y9316D02*
X33657Y9316D01*
X35543Y9316D02*
X44975Y9316D01*
X17525Y9366D02*
X33707Y9366D01*
X35493Y9366D02*
X44975Y9366D01*
X17525Y9415D02*
X33757Y9415D01*
X35443Y9415D02*
X44975Y9415D01*
X17525Y9465D02*
X33806Y9465D01*
X35394Y9465D02*
X44975Y9465D01*
X17525Y9514D02*
X33877Y9514D01*
X34525Y9514D02*
X34675Y9514D01*
X35323Y9514D02*
X44975Y9514D01*
X17525Y9564D02*
X33956Y9564D01*
X34525Y9564D02*
X34675Y9564D01*
X35244Y9564D02*
X44975Y9564D01*
X17525Y9614D02*
X34035Y9614D01*
X34525Y9614D02*
X34675Y9614D01*
X35165Y9614D02*
X44975Y9614D01*
X17525Y9663D02*
X34158Y9663D01*
X34525Y9663D02*
X34675Y9663D01*
X35042Y9663D02*
X44975Y9663D01*
X17525Y9713D02*
X34300Y9713D01*
X34525Y9713D02*
X34675Y9713D01*
X34900Y9713D02*
X44975Y9713D01*
X17525Y9762D02*
X44975Y9762D01*
X17525Y9812D02*
X41733Y9812D01*
X42267Y9812D02*
X44975Y9812D01*
X17525Y9861D02*
X41550Y9861D01*
X42450Y9861D02*
X44975Y9861D01*
X17525Y9911D02*
X41455Y9911D01*
X42545Y9911D02*
X44975Y9911D01*
X17525Y9960D02*
X41361Y9960D01*
X42639Y9960D02*
X44975Y9960D01*
X17525Y10010D02*
X41282Y10010D01*
X42718Y10010D02*
X44975Y10010D01*
X17525Y10059D02*
X41226Y10059D01*
X42774Y10059D02*
X44975Y10059D01*
X17525Y10109D02*
X41170Y10109D01*
X42830Y10109D02*
X44975Y10109D01*
X17525Y10158D02*
X41114Y10158D01*
X42886Y10158D02*
X44975Y10158D01*
X17525Y10208D02*
X41067Y10208D01*
X42933Y10208D02*
X44975Y10208D01*
X17525Y10257D02*
X41033Y10257D01*
X42967Y10257D02*
X44975Y10257D01*
X17525Y10307D02*
X40999Y10307D01*
X43001Y10307D02*
X44975Y10307D01*
X17525Y10356D02*
X40965Y10356D01*
X43035Y10356D02*
X44975Y10356D01*
X17525Y10406D02*
X40930Y10406D01*
X43070Y10406D02*
X44975Y10406D01*
X17525Y10456D02*
X40904Y10456D01*
X43096Y10456D02*
X44975Y10456D01*
X17525Y10505D02*
X40885Y10505D01*
X43115Y10505D02*
X44975Y10505D01*
X17525Y10555D02*
X40867Y10555D01*
X43133Y10555D02*
X44975Y10555D01*
X17525Y10604D02*
X40848Y10604D01*
X43152Y10604D02*
X44975Y10604D01*
X17525Y10654D02*
X40829Y10654D01*
X43171Y10654D02*
X44975Y10654D01*
X17525Y10703D02*
X40810Y10703D01*
X43190Y10703D02*
X44975Y10703D01*
X17525Y10753D02*
X40803Y10753D01*
X43197Y10753D02*
X44975Y10753D01*
X17525Y10802D02*
X40797Y10802D01*
X43203Y10802D02*
X44975Y10802D01*
X17525Y10852D02*
X40791Y10852D01*
X43209Y10852D02*
X44975Y10852D01*
X17525Y10901D02*
X40785Y10901D01*
X43215Y10901D02*
X44975Y10901D01*
X17525Y10951D02*
X40779Y10951D01*
X43221Y10951D02*
X44975Y10951D01*
X17525Y11000D02*
X40774Y11000D01*
X43226Y11000D02*
X44975Y11000D01*
X17525Y11050D02*
X40779Y11050D01*
X43221Y11050D02*
X44975Y11050D01*
X17525Y11099D02*
X40785Y11099D01*
X43215Y11099D02*
X44975Y11099D01*
X17525Y11149D02*
X40791Y11149D01*
X43209Y11149D02*
X44975Y11149D01*
X17525Y11198D02*
X40798Y11198D01*
X43202Y11198D02*
X44975Y11198D01*
X17525Y11248D02*
X40804Y11248D01*
X43196Y11248D02*
X44975Y11248D01*
X17525Y11298D02*
X40811Y11298D01*
X43189Y11298D02*
X44975Y11298D01*
X17525Y11347D02*
X40829Y11347D01*
X43171Y11347D02*
X44975Y11347D01*
X17525Y11397D02*
X40848Y11397D01*
X43152Y11397D02*
X44975Y11397D01*
X17525Y11446D02*
X40867Y11446D01*
X43133Y11446D02*
X44975Y11446D01*
X17525Y11496D02*
X40886Y11496D01*
X43114Y11496D02*
X44975Y11496D01*
X17525Y11545D02*
X40904Y11545D01*
X43096Y11545D02*
X44975Y11545D01*
X17525Y11595D02*
X40931Y11595D01*
X43069Y11595D02*
X44975Y11595D01*
X17525Y11644D02*
X40965Y11644D01*
X43035Y11644D02*
X44975Y11644D01*
X17525Y11694D02*
X40999Y11694D01*
X43001Y11694D02*
X44975Y11694D01*
X17525Y11743D02*
X41034Y11743D01*
X42966Y11743D02*
X44975Y11743D01*
X17525Y11793D02*
X41068Y11793D01*
X42932Y11793D02*
X44975Y11793D01*
X17525Y11842D02*
X41115Y11842D01*
X42885Y11842D02*
X44975Y11842D01*
X17525Y11892D02*
X41171Y11892D01*
X42829Y11892D02*
X44975Y11892D01*
X17525Y11941D02*
X41226Y11941D01*
X42774Y11941D02*
X44975Y11941D01*
X17525Y11991D02*
X41282Y11991D01*
X42718Y11991D02*
X44975Y11991D01*
X17525Y12040D02*
X41362Y12040D01*
X42638Y12040D02*
X44975Y12040D01*
X17525Y12090D02*
X41457Y12090D01*
X42543Y12090D02*
X44975Y12090D01*
X17525Y12140D02*
X41551Y12140D01*
X42449Y12140D02*
X44975Y12140D01*
X17525Y12189D02*
X41736Y12189D01*
X42264Y12189D02*
X44975Y12189D01*
X17525Y12239D02*
X44975Y12239D01*
X17525Y12288D02*
X33448Y12288D01*
X35752Y12288D02*
X44975Y12288D01*
X17525Y12338D02*
X33395Y12338D01*
X35805Y12338D02*
X44975Y12338D01*
X17525Y12387D02*
X33367Y12387D01*
X35833Y12387D02*
X44975Y12387D01*
X17525Y12437D02*
X33352Y12437D01*
X35848Y12437D02*
X44975Y12437D01*
X17525Y12486D02*
X33349Y12486D01*
X35851Y12486D02*
X44975Y12486D01*
X17525Y12536D02*
X33349Y12536D01*
X35851Y12536D02*
X44975Y12536D01*
X17525Y12585D02*
X33349Y12585D01*
X35851Y12585D02*
X44975Y12585D01*
X17525Y12635D02*
X33349Y12635D01*
X35851Y12635D02*
X44975Y12635D01*
X17525Y12684D02*
X33349Y12684D01*
X35851Y12684D02*
X44975Y12684D01*
X17525Y12734D02*
X33349Y12734D01*
X35851Y12734D02*
X44975Y12734D01*
X17525Y12783D02*
X18780Y12783D01*
X18925Y12783D02*
X19075Y12783D01*
X19220Y12783D02*
X23860Y12783D01*
X24300Y12783D02*
X33349Y12783D01*
X35851Y12783D02*
X44975Y12783D01*
X17525Y12833D02*
X18642Y12833D01*
X18925Y12833D02*
X19075Y12833D01*
X19358Y12833D02*
X23722Y12833D01*
X24438Y12833D02*
X33349Y12833D01*
X35851Y12833D02*
X44975Y12833D01*
X17525Y12883D02*
X18548Y12883D01*
X18925Y12883D02*
X19075Y12883D01*
X19452Y12883D02*
X23628Y12883D01*
X24532Y12883D02*
X33349Y12883D01*
X35851Y12883D02*
X44975Y12883D01*
X17525Y12932D02*
X18479Y12932D01*
X18925Y12932D02*
X19075Y12932D01*
X19521Y12932D02*
X23559Y12932D01*
X24601Y12932D02*
X33349Y12932D01*
X35851Y12932D02*
X44975Y12932D01*
X17525Y12982D02*
X18423Y12982D01*
X18925Y12982D02*
X19075Y12982D01*
X19577Y12982D02*
X23503Y12982D01*
X24657Y12982D02*
X33349Y12982D01*
X35851Y12982D02*
X44975Y12982D01*
X17525Y13031D02*
X18367Y13031D01*
X19633Y13031D02*
X23447Y13031D01*
X24713Y13031D02*
X33349Y13031D01*
X35851Y13031D02*
X44975Y13031D01*
X17525Y13081D02*
X18331Y13081D01*
X19669Y13081D02*
X23411Y13081D01*
X24749Y13081D02*
X33349Y13081D01*
X35851Y13081D02*
X44975Y13081D01*
X17525Y13130D02*
X18297Y13130D01*
X19703Y13130D02*
X23377Y13130D01*
X24783Y13130D02*
X33349Y13130D01*
X35851Y13130D02*
X44975Y13130D01*
X17525Y13180D02*
X18263Y13180D01*
X19737Y13180D02*
X23343Y13180D01*
X24817Y13180D02*
X33349Y13180D01*
X35851Y13180D02*
X44975Y13180D01*
X17525Y13229D02*
X18236Y13229D01*
X19764Y13229D02*
X23316Y13229D01*
X24844Y13229D02*
X33349Y13229D01*
X35851Y13229D02*
X44975Y13229D01*
X17525Y13279D02*
X18218Y13279D01*
X19782Y13279D02*
X23298Y13279D01*
X24862Y13279D02*
X33349Y13279D01*
X35851Y13279D02*
X44975Y13279D01*
X17525Y13328D02*
X18199Y13328D01*
X19801Y13328D02*
X23279Y13328D01*
X24881Y13328D02*
X33349Y13328D01*
X35851Y13328D02*
X44975Y13328D01*
X17525Y13378D02*
X18180Y13378D01*
X19820Y13378D02*
X23260Y13378D01*
X24900Y13378D02*
X33349Y13378D01*
X35851Y13378D02*
X44975Y13378D01*
X17525Y13427D02*
X18169Y13427D01*
X19831Y13427D02*
X23249Y13427D01*
X24911Y13427D02*
X33349Y13427D01*
X35851Y13427D02*
X44975Y13427D01*
X17525Y13477D02*
X18163Y13477D01*
X19837Y13477D02*
X23243Y13477D01*
X24917Y13477D02*
X33349Y13477D01*
X35851Y13477D02*
X44975Y13477D01*
X17525Y13526D02*
X18400Y13526D01*
X19843Y13526D02*
X23237Y13526D01*
X24923Y13526D02*
X33349Y13526D01*
X35851Y13526D02*
X44915Y13526D01*
X17525Y13576D02*
X18400Y13576D01*
X19849Y13576D02*
X23231Y13576D01*
X24929Y13576D02*
X33349Y13576D01*
X35851Y13576D02*
X44840Y13576D01*
X17525Y13625D02*
X18400Y13625D01*
X19848Y13625D02*
X23232Y13625D01*
X24928Y13625D02*
X33349Y13625D01*
X35851Y13625D02*
X44766Y13625D01*
X17525Y13675D02*
X18174Y13675D01*
X19842Y13675D02*
X23238Y13675D01*
X24922Y13675D02*
X33349Y13675D01*
X35851Y13675D02*
X44692Y13675D01*
X17525Y13725D02*
X18164Y13725D01*
X19836Y13725D02*
X23244Y13725D01*
X24916Y13725D02*
X33349Y13725D01*
X35851Y13725D02*
X44617Y13725D01*
X17525Y13774D02*
X18170Y13774D01*
X19830Y13774D02*
X23250Y13774D01*
X24910Y13774D02*
X33349Y13774D01*
X35851Y13774D02*
X44543Y13774D01*
X17525Y13824D02*
X18181Y13824D01*
X19819Y13824D02*
X23261Y13824D01*
X24899Y13824D02*
X33349Y13824D01*
X35851Y13824D02*
X44469Y13824D01*
X17525Y13873D02*
X18199Y13873D01*
X19801Y13873D02*
X23279Y13873D01*
X24881Y13873D02*
X33349Y13873D01*
X35851Y13873D02*
X44395Y13873D01*
X17525Y13923D02*
X18218Y13923D01*
X19782Y13923D02*
X23298Y13923D01*
X24862Y13923D02*
X33349Y13923D01*
X35851Y13923D02*
X44320Y13923D01*
X17525Y13972D02*
X18237Y13972D01*
X19763Y13972D02*
X23317Y13972D01*
X24843Y13972D02*
X33349Y13972D01*
X35851Y13972D02*
X44246Y13972D01*
X17525Y14022D02*
X18264Y14022D01*
X19736Y14022D02*
X23344Y14022D01*
X24816Y14022D02*
X33349Y14022D01*
X35851Y14022D02*
X44172Y14022D01*
X17525Y14071D02*
X18298Y14071D01*
X19702Y14071D02*
X23378Y14071D01*
X24782Y14071D02*
X33349Y14071D01*
X35851Y14071D02*
X44097Y14071D01*
X17525Y14121D02*
X18332Y14121D01*
X19668Y14121D02*
X23412Y14121D01*
X24748Y14121D02*
X33349Y14121D01*
X35851Y14121D02*
X44023Y14121D01*
X17525Y14170D02*
X18369Y14170D01*
X19631Y14170D02*
X23449Y14170D01*
X24711Y14170D02*
X33349Y14170D01*
X35851Y14170D02*
X43949Y14170D01*
X17525Y14220D02*
X18425Y14220D01*
X18925Y14220D02*
X19075Y14220D01*
X19575Y14220D02*
X23505Y14220D01*
X24655Y14220D02*
X33349Y14220D01*
X35851Y14220D02*
X43874Y14220D01*
X17525Y14269D02*
X18481Y14269D01*
X18925Y14269D02*
X19075Y14269D01*
X19519Y14269D02*
X23561Y14269D01*
X24599Y14269D02*
X33349Y14269D01*
X35851Y14269D02*
X43800Y14269D01*
X17525Y14319D02*
X18551Y14319D01*
X18925Y14319D02*
X19075Y14319D01*
X19449Y14319D02*
X23631Y14319D01*
X24529Y14319D02*
X33349Y14319D01*
X35851Y14319D02*
X43726Y14319D01*
X17525Y14368D02*
X18645Y14368D01*
X18925Y14368D02*
X19075Y14368D01*
X19355Y14368D02*
X23725Y14368D01*
X24435Y14368D02*
X33349Y14368D01*
X35851Y14368D02*
X43652Y14368D01*
X17525Y14418D02*
X18786Y14418D01*
X18925Y14418D02*
X19075Y14418D01*
X19214Y14418D02*
X23866Y14418D01*
X24294Y14418D02*
X33349Y14418D01*
X35851Y14418D02*
X43577Y14418D01*
X17525Y14467D02*
X33349Y14467D01*
X35851Y14467D02*
X43503Y14467D01*
X17525Y14517D02*
X33349Y14517D01*
X35851Y14517D02*
X43429Y14517D01*
X17525Y14567D02*
X33353Y14567D01*
X35847Y14567D02*
X43354Y14567D01*
X17525Y14616D02*
X33368Y14616D01*
X35832Y14616D02*
X43280Y14616D01*
X17525Y14666D02*
X33398Y14666D01*
X35802Y14666D02*
X43206Y14666D01*
X17525Y14715D02*
X33453Y14715D01*
X35747Y14715D02*
X43132Y14715D01*
X17525Y14765D02*
X43057Y14765D01*
X17525Y14814D02*
X42983Y14814D01*
X17525Y14864D02*
X42909Y14864D01*
X17525Y14913D02*
X42834Y14913D01*
X17525Y14963D02*
X42760Y14963D01*
X17525Y15012D02*
X42686Y15012D01*
X17525Y15062D02*
X42611Y15062D01*
X17525Y15111D02*
X42537Y15111D01*
X17525Y15161D02*
X42463Y15161D01*
X17525Y15210D02*
X42389Y15210D01*
X17525Y15260D02*
X42314Y15260D01*
X17525Y15309D02*
X42240Y15309D01*
X17525Y15359D02*
X42166Y15359D01*
X17525Y15409D02*
X42091Y15409D01*
X17525Y15458D02*
X42017Y15458D01*
X28544Y15508D02*
X41943Y15508D01*
X28593Y15557D02*
X41869Y15557D01*
X28643Y15607D02*
X41794Y15607D01*
X28692Y15656D02*
X41720Y15656D01*
X28742Y15706D02*
X41646Y15706D01*
X28791Y15755D02*
X41571Y15755D01*
X28841Y15805D02*
X41497Y15805D01*
X28890Y15854D02*
X41423Y15854D01*
X28940Y15904D02*
X41348Y15904D01*
X28989Y15953D02*
X41274Y15953D01*
X29039Y16003D02*
X41200Y16003D01*
X29088Y16052D02*
X41126Y16052D01*
X29138Y16102D02*
X41051Y16102D01*
X29187Y16151D02*
X40977Y16151D01*
X29237Y16201D02*
X40903Y16201D01*
X29286Y16251D02*
X40828Y16251D01*
X29336Y16300D02*
X40754Y16300D01*
X29386Y16350D02*
X40680Y16350D01*
X29435Y16399D02*
X40606Y16399D01*
X29485Y16449D02*
X40531Y16449D01*
%LNpour fill*%
X9486Y1522D02*
X9486Y1522D01*
X9495Y1525*
X18975Y1525*
X18975Y5605*
X18899Y5605*
X18896Y5605*
X18700Y5653*
X18697Y5654*
X18518Y5748*
X18515Y5750*
X18364Y5884*
X18362Y5887*
X18247Y6053*
X18245Y6056*
X18174Y6245*
X18173Y6248*
X18149Y6448*
X18149Y6452*
X18173Y6652*
X18174Y6655*
X18245Y6844*
X18247Y6847*
X18362Y7013*
X18364Y7016*
X18515Y7150*
X18518Y7152*
X18697Y7246*
X18700Y7247*
X18896Y7295*
X18899Y7295*
X18975Y7295*
X18975Y12736*
X18989Y12750*
X19075Y12750*
X19075Y13004*
X18925Y13004*
X18925Y12768*
X18906Y12753*
X18700Y12803*
X18697Y12804*
X18518Y12898*
X18515Y12900*
X18364Y13034*
X18362Y13037*
X18247Y13203*
X18245Y13206*
X18174Y13395*
X18173Y13398*
X18149Y13598*
X18149Y13602*
X18173Y13802*
X18174Y13805*
X18245Y13994*
X18247Y13997*
X18362Y14163*
X18364Y14166*
X18515Y14300*
X18518Y14302*
X18697Y14396*
X18700Y14397*
X18906Y14447*
X18925Y14432*
X18925Y14196*
X19075Y14196*
X19075Y14450*
X18989Y14450*
X18975Y14464*
X18975Y15475*
X9495Y15475*
X9486Y15478*
X8489Y16475*
X0525Y16475*
X0525Y0525*
X8489Y0525*
X9486Y1522*
X12007Y12749D02*
X12007Y12749D01*
X12039Y12751*
X12041Y12752*
X12074Y12759*
X12076Y12760*
X12107Y12773*
X12109Y12774*
X12137Y12791*
X12139Y12792*
X12164Y12814*
X12166Y12816*
X12188Y12841*
X12189Y12843*
X12206Y12871*
X12207Y12873*
X12220Y12904*
X12221Y12906*
X12228Y12939*
X12229Y12941*
X12231Y12974*
X12231Y12975*
X12231Y14225*
X12231Y14226*
X12229Y14259*
X12228Y14261*
X12221Y14294*
X12220Y14296*
X12207Y14327*
X12206Y14329*
X12189Y14357*
X12188Y14359*
X12166Y14384*
X12164Y14386*
X12139Y14408*
X12137Y14409*
X12109Y14426*
X12107Y14427*
X12076Y14440*
X12074Y14441*
X12041Y14448*
X12039Y14449*
X12006Y14451*
X12005Y14451*
X10755Y14451*
X10754Y14451*
X10721Y14449*
X10719Y14448*
X10686Y14441*
X10684Y14440*
X10653Y14427*
X10651Y14426*
X10623Y14409*
X10621Y14408*
X10596Y14386*
X10594Y14384*
X10572Y14359*
X10571Y14357*
X10554Y14329*
X10553Y14327*
X10540Y14296*
X10539Y14294*
X10532Y14261*
X10531Y14259*
X10529Y14227*
X10529Y14226*
X10529Y12974*
X10529Y12973*
X10531Y12941*
X10532Y12939*
X10539Y12906*
X10540Y12904*
X10553Y12873*
X10554Y12871*
X10571Y12843*
X10572Y12841*
X10594Y12816*
X10596Y12814*
X10621Y12792*
X10623Y12791*
X10651Y12774*
X10653Y12773*
X10684Y12760*
X10686Y12759*
X10719Y12752*
X10721Y12751*
X10753Y12749*
X10754Y12749*
X12006Y12749*
X12007Y12749*
X13845Y12768D02*
X13845Y12768D01*
X13845Y13004*
X13995Y13004*
X13995Y12768*
X14014Y12753*
X14220Y12803*
X14223Y12804*
X14402Y12898*
X14405Y12900*
X14556Y13034*
X14558Y13037*
X14673Y13203*
X14675Y13206*
X14746Y13395*
X14747Y13398*
X14771Y13598*
X14771Y13602*
X14747Y13802*
X14746Y13805*
X14675Y13994*
X14673Y13997*
X14558Y14163*
X14556Y14166*
X14405Y14300*
X14402Y14302*
X14223Y14396*
X14220Y14397*
X14014Y14447*
X13995Y14432*
X13995Y14196*
X13845Y14196*
X13845Y14432*
X13826Y14447*
X13620Y14397*
X13617Y14396*
X13438Y14302*
X13435Y14300*
X13284Y14166*
X13282Y14163*
X13167Y13997*
X13165Y13994*
X13094Y13805*
X13093Y13802*
X13080Y13692*
X13095Y13675*
X13320Y13675*
X13320Y13525*
X13095Y13525*
X13080Y13508*
X13093Y13398*
X13094Y13395*
X13165Y13206*
X13167Y13203*
X13282Y13037*
X13284Y13034*
X13435Y12900*
X13438Y12898*
X13617Y12804*
X13620Y12803*
X13826Y12753*
X13845Y12768*
X5119Y8781D02*
X5119Y8781D01*
X5345Y8837*
X5348Y8838*
X5553Y8946*
X5556Y8947*
X5730Y9101*
X5732Y9104*
X5864Y9295*
X5865Y9298*
X5948Y9515*
X5948Y9518*
X5966Y9665*
X6034Y9665*
X6052Y9518*
X6052Y9515*
X6135Y9298*
X6136Y9295*
X6268Y9104*
X6270Y9101*
X6444Y8947*
X6447Y8946*
X6652Y8838*
X6655Y8837*
X6881Y8781*
X6884Y8781*
X7116Y8781*
X7119Y8781*
X7345Y8837*
X7348Y8838*
X7553Y8946*
X7556Y8947*
X7730Y9101*
X7732Y9104*
X7864Y9295*
X7865Y9298*
X7948Y9515*
X7948Y9518*
X7976Y9748*
X7976Y9752*
X7948Y9982*
X7948Y9985*
X7865Y10202*
X7864Y10205*
X7732Y10396*
X7730Y10399*
X7556Y10553*
X7553Y10554*
X7348Y10662*
X7345Y10663*
X7119Y10719*
X7116Y10719*
X6884Y10719*
X6881Y10719*
X6655Y10663*
X6652Y10662*
X6447Y10554*
X6444Y10553*
X6270Y10399*
X6268Y10396*
X6136Y10205*
X6135Y10202*
X6052Y9985*
X6052Y9982*
X6034Y9835*
X5966Y9835*
X5948Y9982*
X5948Y9985*
X5865Y10202*
X5864Y10205*
X5732Y10396*
X5730Y10399*
X5556Y10553*
X5553Y10554*
X5348Y10662*
X5345Y10663*
X5119Y10719*
X5116Y10719*
X4884Y10719*
X4881Y10719*
X4655Y10663*
X4652Y10662*
X4447Y10554*
X4444Y10553*
X4270Y10399*
X4268Y10396*
X4136Y10205*
X4135Y10202*
X4052Y9985*
X4052Y9982*
X4024Y9752*
X4024Y9748*
X4052Y9518*
X4052Y9515*
X4135Y9298*
X4136Y9295*
X4268Y9104*
X4270Y9101*
X4444Y8947*
X4447Y8946*
X4652Y8838*
X4655Y8837*
X4881Y8781*
X4884Y8781*
X5116Y8781*
X5119Y8781*
X7752Y6274D02*
X7752Y6274D01*
X7784Y6276*
X7786Y6277*
X7819Y6284*
X7821Y6285*
X7852Y6298*
X7854Y6299*
X7882Y6316*
X7884Y6317*
X7909Y6339*
X7911Y6341*
X7933Y6366*
X7934Y6368*
X7951Y6396*
X7952Y6398*
X7965Y6429*
X7966Y6431*
X7973Y6464*
X7974Y6466*
X7976Y6499*
X7976Y6500*
X7976Y8000*
X7976Y8001*
X7974Y8034*
X7973Y8036*
X7966Y8069*
X7965Y8071*
X7952Y8102*
X7951Y8104*
X7934Y8132*
X7933Y8134*
X7911Y8159*
X7909Y8161*
X7884Y8183*
X7882Y8184*
X7854Y8201*
X7852Y8202*
X7821Y8215*
X7819Y8216*
X7786Y8223*
X7784Y8224*
X7751Y8226*
X7750Y8226*
X6250Y8226*
X6249Y8226*
X6216Y8224*
X6214Y8223*
X6181Y8216*
X6179Y8215*
X6148Y8202*
X6146Y8201*
X6118Y8184*
X6116Y8183*
X6091Y8161*
X6089Y8159*
X6067Y8134*
X6066Y8132*
X6049Y8104*
X6048Y8102*
X6035Y8071*
X6034Y8069*
X6027Y8036*
X6026Y8034*
X6024Y8002*
X6024Y8001*
X6024Y7457*
X5952Y7452*
X5948Y7482*
X5948Y7485*
X5865Y7702*
X5864Y7705*
X5732Y7896*
X5730Y7899*
X5556Y8053*
X5553Y8054*
X5348Y8162*
X5345Y8163*
X5119Y8219*
X5116Y8219*
X5089Y8219*
X5075Y8205*
X5075Y7970*
X4925Y7970*
X4925Y8205*
X4911Y8219*
X4884Y8219*
X4881Y8219*
X4655Y8163*
X4652Y8162*
X4447Y8054*
X4444Y8053*
X4270Y7899*
X4268Y7896*
X4136Y7705*
X4135Y7702*
X4052Y7485*
X4052Y7482*
X4035Y7342*
X4050Y7325*
X4275Y7325*
X4275Y7175*
X4050Y7175*
X4035Y7158*
X4052Y7018*
X4052Y7015*
X4135Y6798*
X4136Y6795*
X4268Y6604*
X4270Y6601*
X4444Y6447*
X4447Y6446*
X4652Y6338*
X4655Y6337*
X4881Y6281*
X4884Y6281*
X4911Y6281*
X4925Y6295*
X4925Y6530*
X5075Y6530*
X5075Y6295*
X5089Y6281*
X5116Y6281*
X5119Y6281*
X5345Y6337*
X5348Y6338*
X5553Y6446*
X5556Y6447*
X5730Y6601*
X5732Y6604*
X5864Y6795*
X5865Y6798*
X5948Y7015*
X5948Y7018*
X5952Y7048*
X6024Y7043*
X6024Y6499*
X6024Y6498*
X6026Y6466*
X6027Y6464*
X6034Y6431*
X6035Y6429*
X6048Y6398*
X6049Y6396*
X6066Y6368*
X6067Y6366*
X6089Y6341*
X6091Y6339*
X6116Y6317*
X6118Y6316*
X6146Y6299*
X6148Y6298*
X6179Y6285*
X6181Y6284*
X6214Y6277*
X6216Y6276*
X6248Y6274*
X6249Y6274*
X7751Y6274*
X7752Y6274*
X12007Y5599D02*
X12007Y5599D01*
X12039Y5601*
X12041Y5602*
X12074Y5609*
X12076Y5610*
X12107Y5623*
X12109Y5624*
X12137Y5641*
X12139Y5642*
X12164Y5664*
X12166Y5666*
X12188Y5691*
X12189Y5693*
X12206Y5721*
X12207Y5723*
X12220Y5754*
X12221Y5756*
X12228Y5789*
X12229Y5791*
X12231Y5824*
X12231Y5825*
X12231Y7075*
X12231Y7076*
X12229Y7109*
X12228Y7111*
X12221Y7144*
X12220Y7146*
X12207Y7177*
X12206Y7179*
X12189Y7207*
X12188Y7209*
X12166Y7234*
X12164Y7236*
X12139Y7258*
X12137Y7259*
X12109Y7276*
X12107Y7277*
X12076Y7290*
X12074Y7291*
X12041Y7298*
X12039Y7299*
X12006Y7301*
X12005Y7301*
X10755Y7301*
X10754Y7301*
X10721Y7299*
X10719Y7298*
X10686Y7291*
X10684Y7290*
X10653Y7277*
X10651Y7276*
X10623Y7259*
X10621Y7258*
X10596Y7236*
X10594Y7234*
X10572Y7209*
X10571Y7207*
X10554Y7179*
X10553Y7177*
X10540Y7146*
X10539Y7144*
X10532Y7111*
X10531Y7109*
X10529Y7077*
X10529Y7076*
X10529Y5824*
X10529Y5823*
X10531Y5791*
X10532Y5789*
X10539Y5756*
X10540Y5754*
X10553Y5723*
X10554Y5721*
X10571Y5693*
X10572Y5691*
X10594Y5666*
X10596Y5664*
X10621Y5642*
X10623Y5641*
X10651Y5624*
X10653Y5623*
X10684Y5610*
X10686Y5609*
X10719Y5602*
X10721Y5601*
X10753Y5599*
X10754Y5599*
X12006Y5599*
X12007Y5599*
X13845Y5618D02*
X13845Y5618D01*
X13845Y5854*
X13995Y5854*
X13995Y5618*
X14014Y5603*
X14220Y5653*
X14223Y5654*
X14402Y5748*
X14405Y5750*
X14556Y5884*
X14558Y5887*
X14673Y6053*
X14675Y6056*
X14746Y6245*
X14747Y6248*
X14771Y6448*
X14771Y6452*
X14747Y6652*
X14746Y6655*
X14675Y6844*
X14673Y6847*
X14558Y7013*
X14556Y7016*
X14405Y7150*
X14402Y7152*
X14223Y7246*
X14220Y7247*
X14014Y7297*
X13995Y7282*
X13995Y7046*
X13845Y7046*
X13845Y7282*
X13826Y7297*
X13620Y7247*
X13617Y7246*
X13438Y7152*
X13435Y7150*
X13284Y7016*
X13282Y7013*
X13167Y6847*
X13165Y6844*
X13094Y6655*
X13093Y6652*
X13080Y6542*
X13095Y6525*
X13320Y6525*
X13320Y6375*
X13095Y6375*
X13080Y6358*
X13093Y6248*
X13094Y6245*
X13165Y6056*
X13167Y6053*
X13282Y5887*
X13284Y5884*
X13435Y5750*
X13438Y5748*
X13617Y5654*
X13620Y5653*
X13826Y5603*
X13845Y5618*
X0525Y0550D02*
X8514Y0550D01*
X0525Y0599D02*
X8563Y0599D01*
X0525Y0649D02*
X8613Y0649D01*
X0525Y0698D02*
X8662Y0698D01*
X0525Y0748D02*
X8712Y0748D01*
X0525Y0797D02*
X8761Y0797D01*
X0525Y0847D02*
X8811Y0847D01*
X0525Y0896D02*
X8860Y0896D01*
X0525Y0946D02*
X8910Y0946D01*
X0525Y0995D02*
X8959Y0995D01*
X0525Y1045D02*
X9009Y1045D01*
X0525Y1094D02*
X9058Y1094D01*
X0525Y1144D02*
X9108Y1144D01*
X0525Y1193D02*
X9157Y1193D01*
X0525Y1243D02*
X9207Y1243D01*
X0525Y1292D02*
X9257Y1292D01*
X0525Y1342D02*
X9306Y1342D01*
X0525Y1392D02*
X9356Y1392D01*
X0525Y1441D02*
X9405Y1441D01*
X0525Y1491D02*
X9455Y1491D01*
X0525Y1540D02*
X18975Y1540D01*
X0525Y1590D02*
X18975Y1590D01*
X0525Y1639D02*
X18975Y1639D01*
X0525Y1689D02*
X18975Y1689D01*
X0525Y1738D02*
X18975Y1738D01*
X0525Y1788D02*
X18975Y1788D01*
X0525Y1837D02*
X18975Y1837D01*
X0525Y1887D02*
X18975Y1887D01*
X0525Y1936D02*
X18975Y1936D01*
X0525Y1986D02*
X18975Y1986D01*
X0525Y2035D02*
X18975Y2035D01*
X0525Y2085D02*
X18975Y2085D01*
X0525Y2134D02*
X18975Y2134D01*
X0525Y2184D02*
X18975Y2184D01*
X0525Y2234D02*
X18975Y2234D01*
X0525Y2283D02*
X18975Y2283D01*
X0525Y2333D02*
X18975Y2333D01*
X0525Y2382D02*
X18975Y2382D01*
X0525Y2432D02*
X18975Y2432D01*
X0525Y2481D02*
X18975Y2481D01*
X0525Y2531D02*
X18975Y2531D01*
X0525Y2580D02*
X18975Y2580D01*
X0525Y2630D02*
X18975Y2630D01*
X0525Y2679D02*
X18975Y2679D01*
X0525Y2729D02*
X18975Y2729D01*
X0525Y2778D02*
X18975Y2778D01*
X0525Y2828D02*
X18975Y2828D01*
X0525Y2877D02*
X18975Y2877D01*
X0525Y2927D02*
X18975Y2927D01*
X0525Y2977D02*
X18975Y2977D01*
X0525Y3026D02*
X18975Y3026D01*
X0525Y3076D02*
X18975Y3076D01*
X0525Y3125D02*
X18975Y3125D01*
X0525Y3175D02*
X18975Y3175D01*
X0525Y3224D02*
X18975Y3224D01*
X0525Y3274D02*
X18975Y3274D01*
X0525Y3323D02*
X18975Y3323D01*
X0525Y3373D02*
X18975Y3373D01*
X0525Y3422D02*
X18975Y3422D01*
X0525Y3472D02*
X18975Y3472D01*
X0525Y3521D02*
X18975Y3521D01*
X0525Y3571D02*
X18975Y3571D01*
X0525Y3620D02*
X18975Y3620D01*
X0525Y3670D02*
X18975Y3670D01*
X0525Y3719D02*
X18975Y3719D01*
X0525Y3769D02*
X18975Y3769D01*
X0525Y3819D02*
X18975Y3819D01*
X0525Y3868D02*
X18975Y3868D01*
X0525Y3918D02*
X18975Y3918D01*
X0525Y3967D02*
X18975Y3967D01*
X0525Y4017D02*
X18975Y4017D01*
X0525Y4066D02*
X18975Y4066D01*
X0525Y4116D02*
X18975Y4116D01*
X0525Y4165D02*
X18975Y4165D01*
X0525Y4215D02*
X18975Y4215D01*
X0525Y4264D02*
X18975Y4264D01*
X0525Y4314D02*
X18975Y4314D01*
X0525Y4363D02*
X18975Y4363D01*
X0525Y4413D02*
X18975Y4413D01*
X0525Y4462D02*
X18975Y4462D01*
X0525Y4512D02*
X18975Y4512D01*
X0525Y4561D02*
X18975Y4561D01*
X0525Y4611D02*
X18975Y4611D01*
X0525Y4661D02*
X18975Y4661D01*
X0525Y4710D02*
X18975Y4710D01*
X0525Y4760D02*
X18975Y4760D01*
X0525Y4809D02*
X18975Y4809D01*
X0525Y4859D02*
X18975Y4859D01*
X0525Y4908D02*
X18975Y4908D01*
X0525Y4958D02*
X18975Y4958D01*
X0525Y5007D02*
X18975Y5007D01*
X0525Y5057D02*
X18975Y5057D01*
X0525Y5106D02*
X18975Y5106D01*
X0525Y5156D02*
X18975Y5156D01*
X0525Y5205D02*
X18975Y5205D01*
X0525Y5255D02*
X18975Y5255D01*
X0525Y5304D02*
X18975Y5304D01*
X0525Y5354D02*
X18975Y5354D01*
X0525Y5403D02*
X18975Y5403D01*
X0525Y5453D02*
X18975Y5453D01*
X0525Y5503D02*
X18975Y5503D01*
X0525Y5552D02*
X18975Y5552D01*
X0525Y5602D02*
X10718Y5602D01*
X12042Y5602D02*
X18975Y5602D01*
X0525Y5651D02*
X10611Y5651D01*
X12149Y5651D02*
X13629Y5651D01*
X13845Y5651D02*
X13995Y5651D01*
X14211Y5651D02*
X18709Y5651D01*
X0525Y5701D02*
X10566Y5701D01*
X12194Y5701D02*
X13529Y5701D01*
X13845Y5701D02*
X13995Y5701D01*
X14311Y5701D02*
X18609Y5701D01*
X0525Y5750D02*
X10542Y5750D01*
X12218Y5750D02*
X13435Y5750D01*
X13845Y5750D02*
X13995Y5750D01*
X14405Y5750D02*
X18515Y5750D01*
X0525Y5800D02*
X10531Y5800D01*
X12229Y5800D02*
X13379Y5800D01*
X13845Y5800D02*
X13995Y5800D01*
X14461Y5800D02*
X18459Y5800D01*
X0525Y5849D02*
X10529Y5849D01*
X12231Y5849D02*
X13323Y5849D01*
X13845Y5849D02*
X13995Y5849D01*
X14517Y5849D02*
X18403Y5849D01*
X0525Y5899D02*
X10529Y5899D01*
X12231Y5899D02*
X13273Y5899D01*
X14567Y5899D02*
X18353Y5899D01*
X0525Y5948D02*
X10529Y5948D01*
X12231Y5948D02*
X13239Y5948D01*
X14601Y5948D02*
X18319Y5948D01*
X0525Y5998D02*
X10529Y5998D01*
X12231Y5998D02*
X13205Y5998D01*
X14635Y5998D02*
X18285Y5998D01*
X0525Y6047D02*
X10529Y6047D01*
X12231Y6047D02*
X13171Y6047D01*
X14669Y6047D02*
X18251Y6047D01*
X0525Y6097D02*
X10529Y6097D01*
X12231Y6097D02*
X13150Y6097D01*
X14690Y6097D02*
X18230Y6097D01*
X0525Y6146D02*
X10529Y6146D01*
X12231Y6146D02*
X13131Y6146D01*
X14709Y6146D02*
X18211Y6146D01*
X0525Y6196D02*
X10529Y6196D01*
X12231Y6196D02*
X13112Y6196D01*
X14728Y6196D02*
X18192Y6196D01*
X0525Y6245D02*
X10529Y6245D01*
X12231Y6245D02*
X13094Y6245D01*
X14746Y6245D02*
X18174Y6245D01*
X0525Y6295D02*
X4824Y6295D01*
X4925Y6295D02*
X5075Y6295D01*
X5176Y6295D02*
X6155Y6295D01*
X7845Y6295D02*
X10529Y6295D01*
X12231Y6295D02*
X13087Y6295D01*
X14753Y6295D02*
X18167Y6295D01*
X0525Y6345D02*
X4639Y6345D01*
X4925Y6345D02*
X5075Y6345D01*
X5361Y6345D02*
X6086Y6345D01*
X7914Y6345D02*
X10529Y6345D01*
X12231Y6345D02*
X13081Y6345D01*
X14759Y6345D02*
X18161Y6345D01*
X0525Y6394D02*
X4545Y6394D01*
X4925Y6394D02*
X5075Y6394D01*
X5455Y6394D02*
X6050Y6394D01*
X7950Y6394D02*
X10529Y6394D01*
X12231Y6394D02*
X13320Y6394D01*
X14765Y6394D02*
X18155Y6394D01*
X0525Y6444D02*
X4450Y6444D01*
X4925Y6444D02*
X5075Y6444D01*
X5550Y6444D02*
X6031Y6444D01*
X7969Y6444D02*
X10529Y6444D01*
X12231Y6444D02*
X13320Y6444D01*
X14771Y6444D02*
X18149Y6444D01*
X0525Y6493D02*
X4392Y6493D01*
X4925Y6493D02*
X5075Y6493D01*
X5608Y6493D02*
X6024Y6493D01*
X7976Y6493D02*
X10529Y6493D01*
X12231Y6493D02*
X13320Y6493D01*
X14766Y6493D02*
X18154Y6493D01*
X0525Y6543D02*
X4336Y6543D01*
X5664Y6543D02*
X6024Y6543D01*
X7976Y6543D02*
X10529Y6543D01*
X12231Y6543D02*
X13080Y6543D01*
X14760Y6543D02*
X18160Y6543D01*
X0525Y6592D02*
X4281Y6592D01*
X5719Y6592D02*
X6024Y6592D01*
X7976Y6592D02*
X10529Y6592D01*
X12231Y6592D02*
X13086Y6592D01*
X14754Y6592D02*
X18166Y6592D01*
X0525Y6642D02*
X4242Y6642D01*
X5758Y6642D02*
X6024Y6642D01*
X7976Y6642D02*
X10529Y6642D01*
X12231Y6642D02*
X13092Y6642D01*
X14748Y6642D02*
X18172Y6642D01*
X0525Y6691D02*
X4208Y6691D01*
X5792Y6691D02*
X6024Y6691D01*
X7976Y6691D02*
X10529Y6691D01*
X12231Y6691D02*
X13107Y6691D01*
X14733Y6691D02*
X18187Y6691D01*
X0525Y6741D02*
X4173Y6741D01*
X5826Y6741D02*
X6024Y6741D01*
X7976Y6741D02*
X10529Y6741D01*
X12231Y6741D02*
X13126Y6741D01*
X14714Y6741D02*
X18206Y6741D01*
X0525Y6790D02*
X4139Y6790D01*
X5861Y6790D02*
X6024Y6790D01*
X7976Y6790D02*
X10529Y6790D01*
X12231Y6790D02*
X13145Y6790D01*
X14695Y6790D02*
X18225Y6790D01*
X0525Y6840D02*
X4119Y6840D01*
X5881Y6840D02*
X6024Y6840D01*
X7976Y6840D02*
X10529Y6840D01*
X12231Y6840D02*
X13164Y6840D01*
X14676Y6840D02*
X18244Y6840D01*
X0525Y6889D02*
X4100Y6889D01*
X5900Y6889D02*
X6024Y6889D01*
X7976Y6889D02*
X10529Y6889D01*
X12231Y6889D02*
X13196Y6889D01*
X14644Y6889D02*
X18276Y6889D01*
X0525Y6939D02*
X4081Y6939D01*
X5919Y6939D02*
X6024Y6939D01*
X7976Y6939D02*
X10529Y6939D01*
X12231Y6939D02*
X13230Y6939D01*
X14610Y6939D02*
X18310Y6939D01*
X0525Y6988D02*
X4062Y6988D01*
X5938Y6988D02*
X6024Y6988D01*
X7976Y6988D02*
X10529Y6988D01*
X12231Y6988D02*
X13264Y6988D01*
X14576Y6988D02*
X18344Y6988D01*
X0525Y7038D02*
X4049Y7038D01*
X5951Y7038D02*
X6024Y7038D01*
X7976Y7038D02*
X10529Y7038D01*
X12231Y7038D02*
X13309Y7038D01*
X14531Y7038D02*
X18389Y7038D01*
X0525Y7087D02*
X4043Y7087D01*
X7976Y7087D02*
X10530Y7087D01*
X12230Y7087D02*
X13365Y7087D01*
X13845Y7087D02*
X13995Y7087D01*
X14475Y7087D02*
X18445Y7087D01*
X0525Y7137D02*
X4037Y7137D01*
X7976Y7137D02*
X10538Y7137D01*
X12222Y7137D02*
X13421Y7137D01*
X13845Y7137D02*
X13995Y7137D01*
X14419Y7137D02*
X18501Y7137D01*
X0525Y7187D02*
X4275Y7187D01*
X7976Y7187D02*
X10559Y7187D01*
X12201Y7187D02*
X13504Y7187D01*
X13845Y7187D02*
X13995Y7187D01*
X14336Y7187D02*
X18584Y7187D01*
X0525Y7236D02*
X4275Y7236D01*
X7976Y7236D02*
X10596Y7236D01*
X12164Y7236D02*
X13599Y7236D01*
X13845Y7236D02*
X13995Y7236D01*
X14241Y7236D02*
X18679Y7236D01*
X0525Y7286D02*
X4275Y7286D01*
X7976Y7286D02*
X10673Y7286D01*
X12087Y7286D02*
X13778Y7286D01*
X13841Y7286D02*
X13999Y7286D01*
X14062Y7286D02*
X18858Y7286D01*
X0525Y7335D02*
X4040Y7335D01*
X7976Y7335D02*
X18975Y7335D01*
X0525Y7385D02*
X4040Y7385D01*
X7976Y7385D02*
X18975Y7385D01*
X0525Y7434D02*
X4046Y7434D01*
X7976Y7434D02*
X18975Y7434D01*
X0525Y7484D02*
X4052Y7484D01*
X5948Y7484D02*
X6024Y7484D01*
X7976Y7484D02*
X18975Y7484D01*
X0525Y7533D02*
X4071Y7533D01*
X5929Y7533D02*
X6024Y7533D01*
X7976Y7533D02*
X18975Y7533D01*
X0525Y7583D02*
X4089Y7583D01*
X5911Y7583D02*
X6024Y7583D01*
X7976Y7583D02*
X18975Y7583D01*
X0525Y7632D02*
X4108Y7632D01*
X5892Y7632D02*
X6024Y7632D01*
X7976Y7632D02*
X18975Y7632D01*
X0525Y7682D02*
X4127Y7682D01*
X5873Y7682D02*
X6024Y7682D01*
X7976Y7682D02*
X18975Y7682D01*
X0525Y7731D02*
X4154Y7731D01*
X5846Y7731D02*
X6024Y7731D01*
X7976Y7731D02*
X18975Y7731D01*
X0525Y7781D02*
X4188Y7781D01*
X5812Y7781D02*
X6024Y7781D01*
X7976Y7781D02*
X18975Y7781D01*
X0525Y7830D02*
X4223Y7830D01*
X5777Y7830D02*
X6024Y7830D01*
X7976Y7830D02*
X18975Y7830D01*
X0525Y7880D02*
X4257Y7880D01*
X5743Y7880D02*
X6024Y7880D01*
X7976Y7880D02*
X18975Y7880D01*
X0525Y7929D02*
X4305Y7929D01*
X5695Y7929D02*
X6024Y7929D01*
X7976Y7929D02*
X18975Y7929D01*
X0525Y7979D02*
X4361Y7979D01*
X4925Y7979D02*
X5075Y7979D01*
X5639Y7979D02*
X6024Y7979D01*
X7976Y7979D02*
X18975Y7979D01*
X0525Y8029D02*
X4417Y8029D01*
X4925Y8029D02*
X5075Y8029D01*
X5583Y8029D02*
X6026Y8029D01*
X7974Y8029D02*
X18975Y8029D01*
X0525Y8078D02*
X4492Y8078D01*
X4925Y8078D02*
X5075Y8078D01*
X5508Y8078D02*
X6038Y8078D01*
X7962Y8078D02*
X18975Y8078D01*
X0525Y8128D02*
X4586Y8128D01*
X4925Y8128D02*
X5075Y8128D01*
X5414Y8128D02*
X6063Y8128D01*
X7937Y8128D02*
X18975Y8128D01*
X0525Y8177D02*
X4711Y8177D01*
X4925Y8177D02*
X5075Y8177D01*
X5289Y8177D02*
X6110Y8177D01*
X7890Y8177D02*
X18975Y8177D01*
X0525Y8227D02*
X18975Y8227D01*
X0525Y8276D02*
X18975Y8276D01*
X0525Y8326D02*
X18975Y8326D01*
X0525Y8375D02*
X18975Y8375D01*
X0525Y8425D02*
X18975Y8425D01*
X0525Y8474D02*
X18975Y8474D01*
X0525Y8524D02*
X18975Y8524D01*
X0525Y8573D02*
X18975Y8573D01*
X0525Y8623D02*
X18975Y8623D01*
X0525Y8672D02*
X18975Y8672D01*
X0525Y8722D02*
X18975Y8722D01*
X0525Y8772D02*
X18975Y8772D01*
X0525Y8821D02*
X4718Y8821D01*
X5282Y8821D02*
X6718Y8821D01*
X7282Y8821D02*
X18975Y8821D01*
X0525Y8871D02*
X4589Y8871D01*
X5411Y8871D02*
X6589Y8871D01*
X7411Y8871D02*
X18975Y8871D01*
X0525Y8920D02*
X4495Y8920D01*
X5505Y8920D02*
X6495Y8920D01*
X7505Y8920D02*
X18975Y8920D01*
X0525Y8970D02*
X4419Y8970D01*
X5581Y8970D02*
X6419Y8970D01*
X7581Y8970D02*
X18975Y8970D01*
X0525Y9019D02*
X4363Y9019D01*
X5637Y9019D02*
X6363Y9019D01*
X7637Y9019D02*
X18975Y9019D01*
X0525Y9069D02*
X4307Y9069D01*
X5693Y9069D02*
X6307Y9069D01*
X7693Y9069D02*
X18975Y9069D01*
X0525Y9118D02*
X4258Y9118D01*
X5742Y9118D02*
X6258Y9118D01*
X7742Y9118D02*
X18975Y9118D01*
X0525Y9168D02*
X4224Y9168D01*
X5776Y9168D02*
X6224Y9168D01*
X7776Y9168D02*
X18975Y9168D01*
X0525Y9217D02*
X4190Y9217D01*
X5810Y9217D02*
X6190Y9217D01*
X7810Y9217D02*
X18975Y9217D01*
X0525Y9267D02*
X4156Y9267D01*
X5844Y9267D02*
X6156Y9267D01*
X7844Y9267D02*
X18975Y9267D01*
X0525Y9316D02*
X4128Y9316D01*
X5872Y9316D02*
X6128Y9316D01*
X7872Y9316D02*
X18975Y9316D01*
X0525Y9366D02*
X4109Y9366D01*
X5891Y9366D02*
X6109Y9366D01*
X7891Y9366D02*
X18975Y9366D01*
X0525Y9415D02*
X4090Y9415D01*
X5910Y9415D02*
X6090Y9415D01*
X7910Y9415D02*
X18975Y9415D01*
X0525Y9465D02*
X4071Y9465D01*
X5929Y9465D02*
X6071Y9465D01*
X7929Y9465D02*
X18975Y9465D01*
X0525Y9514D02*
X4052Y9514D01*
X5948Y9514D02*
X6052Y9514D01*
X7948Y9514D02*
X18975Y9514D01*
X0525Y9564D02*
X4046Y9564D01*
X5954Y9564D02*
X6046Y9564D01*
X7954Y9564D02*
X18975Y9564D01*
X0525Y9614D02*
X4040Y9614D01*
X5960Y9614D02*
X6040Y9614D01*
X7960Y9614D02*
X18975Y9614D01*
X0525Y9663D02*
X4034Y9663D01*
X5966Y9663D02*
X6034Y9663D01*
X7966Y9663D02*
X18975Y9663D01*
X0525Y9713D02*
X4028Y9713D01*
X7972Y9713D02*
X18975Y9713D01*
X0525Y9762D02*
X4025Y9762D01*
X7975Y9762D02*
X18975Y9762D01*
X0525Y9812D02*
X4031Y9812D01*
X7969Y9812D02*
X18975Y9812D01*
X0525Y9861D02*
X4037Y9861D01*
X5963Y9861D02*
X6037Y9861D01*
X7963Y9861D02*
X18975Y9861D01*
X0525Y9911D02*
X4043Y9911D01*
X5957Y9911D02*
X6043Y9911D01*
X7957Y9911D02*
X18975Y9911D01*
X0525Y9960D02*
X4049Y9960D01*
X5951Y9960D02*
X6049Y9960D01*
X7951Y9960D02*
X18975Y9960D01*
X0525Y10010D02*
X4062Y10010D01*
X5938Y10010D02*
X6062Y10010D01*
X7938Y10010D02*
X18975Y10010D01*
X0525Y10059D02*
X4080Y10059D01*
X5920Y10059D02*
X6080Y10059D01*
X7920Y10059D02*
X18975Y10059D01*
X0525Y10109D02*
X4099Y10109D01*
X5901Y10109D02*
X6099Y10109D01*
X7901Y10109D02*
X18975Y10109D01*
X0525Y10158D02*
X4118Y10158D01*
X5882Y10158D02*
X6118Y10158D01*
X7882Y10158D02*
X18975Y10158D01*
X0525Y10208D02*
X4138Y10208D01*
X5862Y10208D02*
X6138Y10208D01*
X7862Y10208D02*
X18975Y10208D01*
X0525Y10257D02*
X4172Y10257D01*
X5828Y10257D02*
X6172Y10257D01*
X7828Y10257D02*
X18975Y10257D01*
X0525Y10307D02*
X4206Y10307D01*
X5794Y10307D02*
X6206Y10307D01*
X7794Y10307D02*
X18975Y10307D01*
X0525Y10356D02*
X4241Y10356D01*
X5759Y10356D02*
X6241Y10356D01*
X7759Y10356D02*
X18975Y10356D01*
X0525Y10406D02*
X4279Y10406D01*
X5721Y10406D02*
X6279Y10406D01*
X7721Y10406D02*
X18975Y10406D01*
X0525Y10456D02*
X4334Y10456D01*
X5666Y10456D02*
X6334Y10456D01*
X7666Y10456D02*
X18975Y10456D01*
X0525Y10505D02*
X4390Y10505D01*
X5610Y10505D02*
X6390Y10505D01*
X7610Y10505D02*
X18975Y10505D01*
X0525Y10555D02*
X4447Y10555D01*
X5553Y10555D02*
X6447Y10555D01*
X7553Y10555D02*
X18975Y10555D01*
X0525Y10604D02*
X4541Y10604D01*
X5459Y10604D02*
X6541Y10604D01*
X7459Y10604D02*
X18975Y10604D01*
X0525Y10654D02*
X4636Y10654D01*
X5364Y10654D02*
X6636Y10654D01*
X7364Y10654D02*
X18975Y10654D01*
X0525Y10703D02*
X4816Y10703D01*
X5184Y10703D02*
X6816Y10703D01*
X7184Y10703D02*
X18975Y10703D01*
X0525Y10753D02*
X18975Y10753D01*
X0525Y10802D02*
X18975Y10802D01*
X0525Y10852D02*
X18975Y10852D01*
X0525Y10901D02*
X18975Y10901D01*
X0525Y10951D02*
X18975Y10951D01*
X0525Y11000D02*
X18975Y11000D01*
X0525Y11050D02*
X18975Y11050D01*
X0525Y11099D02*
X18975Y11099D01*
X0525Y11149D02*
X18975Y11149D01*
X0525Y11198D02*
X18975Y11198D01*
X0525Y11248D02*
X18975Y11248D01*
X0525Y11298D02*
X18975Y11298D01*
X0525Y11347D02*
X18975Y11347D01*
X0525Y11397D02*
X18975Y11397D01*
X0525Y11446D02*
X18975Y11446D01*
X0525Y11496D02*
X18975Y11496D01*
X0525Y11545D02*
X18975Y11545D01*
X0525Y11595D02*
X18975Y11595D01*
X0525Y11644D02*
X18975Y11644D01*
X0525Y11694D02*
X18975Y11694D01*
X0525Y11743D02*
X18975Y11743D01*
X0525Y11793D02*
X18975Y11793D01*
X0525Y11842D02*
X18975Y11842D01*
X0525Y11892D02*
X18975Y11892D01*
X0525Y11941D02*
X18975Y11941D01*
X0525Y11991D02*
X18975Y11991D01*
X0525Y12040D02*
X18975Y12040D01*
X0525Y12090D02*
X18975Y12090D01*
X0525Y12140D02*
X18975Y12140D01*
X0525Y12189D02*
X18975Y12189D01*
X0525Y12239D02*
X18975Y12239D01*
X0525Y12288D02*
X18975Y12288D01*
X0525Y12338D02*
X18975Y12338D01*
X0525Y12387D02*
X18975Y12387D01*
X0525Y12437D02*
X18975Y12437D01*
X0525Y12486D02*
X18975Y12486D01*
X0525Y12536D02*
X18975Y12536D01*
X0525Y12585D02*
X18975Y12585D01*
X0525Y12635D02*
X18975Y12635D01*
X0525Y12684D02*
X18975Y12684D01*
X0525Y12734D02*
X18975Y12734D01*
X0525Y12783D02*
X10635Y12783D01*
X12125Y12783D02*
X13700Y12783D01*
X13845Y12783D02*
X13995Y12783D01*
X14140Y12783D02*
X18780Y12783D01*
X18925Y12783D02*
X19075Y12783D01*
X0525Y12833D02*
X10579Y12833D01*
X12181Y12833D02*
X13562Y12833D01*
X13845Y12833D02*
X13995Y12833D01*
X14278Y12833D02*
X18642Y12833D01*
X18925Y12833D02*
X19075Y12833D01*
X0525Y12883D02*
X10549Y12883D01*
X12211Y12883D02*
X13468Y12883D01*
X13845Y12883D02*
X13995Y12883D01*
X14372Y12883D02*
X18548Y12883D01*
X18925Y12883D02*
X19075Y12883D01*
X0525Y12932D02*
X10533Y12932D01*
X12227Y12932D02*
X13399Y12932D01*
X13845Y12932D02*
X13995Y12932D01*
X14441Y12932D02*
X18479Y12932D01*
X18925Y12932D02*
X19075Y12932D01*
X0525Y12982D02*
X10529Y12982D01*
X12231Y12982D02*
X13343Y12982D01*
X13845Y12982D02*
X13995Y12982D01*
X14497Y12982D02*
X18423Y12982D01*
X18925Y12982D02*
X19075Y12982D01*
X0525Y13031D02*
X10529Y13031D01*
X12231Y13031D02*
X13287Y13031D01*
X14553Y13031D02*
X18367Y13031D01*
X0525Y13081D02*
X10529Y13081D01*
X12231Y13081D02*
X13251Y13081D01*
X14589Y13081D02*
X18331Y13081D01*
X0525Y13130D02*
X10529Y13130D01*
X12231Y13130D02*
X13217Y13130D01*
X14623Y13130D02*
X18297Y13130D01*
X0525Y13180D02*
X10529Y13180D01*
X12231Y13180D02*
X13183Y13180D01*
X14657Y13180D02*
X18263Y13180D01*
X0525Y13229D02*
X10529Y13229D01*
X12231Y13229D02*
X13156Y13229D01*
X14684Y13229D02*
X18236Y13229D01*
X0525Y13279D02*
X10529Y13279D01*
X12231Y13279D02*
X13138Y13279D01*
X14702Y13279D02*
X18218Y13279D01*
X0525Y13328D02*
X10529Y13328D01*
X12231Y13328D02*
X13119Y13328D01*
X14721Y13328D02*
X18199Y13328D01*
X0525Y13378D02*
X10529Y13378D01*
X12231Y13378D02*
X13100Y13378D01*
X14740Y13378D02*
X18180Y13378D01*
X0525Y13427D02*
X10529Y13427D01*
X12231Y13427D02*
X13089Y13427D01*
X14751Y13427D02*
X18169Y13427D01*
X0525Y13477D02*
X10529Y13477D01*
X12231Y13477D02*
X13083Y13477D01*
X14757Y13477D02*
X18163Y13477D01*
X0525Y13526D02*
X10529Y13526D01*
X12231Y13526D02*
X13320Y13526D01*
X14763Y13526D02*
X18157Y13526D01*
X0525Y13576D02*
X10529Y13576D01*
X12231Y13576D02*
X13320Y13576D01*
X14769Y13576D02*
X18151Y13576D01*
X0525Y13625D02*
X10529Y13625D01*
X12231Y13625D02*
X13320Y13625D01*
X14768Y13625D02*
X18152Y13625D01*
X0525Y13675D02*
X10529Y13675D01*
X12231Y13675D02*
X13094Y13675D01*
X14762Y13675D02*
X18158Y13675D01*
X0525Y13725D02*
X10529Y13725D01*
X12231Y13725D02*
X13084Y13725D01*
X14756Y13725D02*
X18164Y13725D01*
X0525Y13774D02*
X10529Y13774D01*
X12231Y13774D02*
X13090Y13774D01*
X14750Y13774D02*
X18170Y13774D01*
X0525Y13824D02*
X10529Y13824D01*
X12231Y13824D02*
X13101Y13824D01*
X14739Y13824D02*
X18181Y13824D01*
X0525Y13873D02*
X10529Y13873D01*
X12231Y13873D02*
X13119Y13873D01*
X14721Y13873D02*
X18199Y13873D01*
X0525Y13923D02*
X10529Y13923D01*
X12231Y13923D02*
X13138Y13923D01*
X14702Y13923D02*
X18218Y13923D01*
X0525Y13972D02*
X10529Y13972D01*
X12231Y13972D02*
X13157Y13972D01*
X14683Y13972D02*
X18237Y13972D01*
X0525Y14022D02*
X10529Y14022D01*
X12231Y14022D02*
X13184Y14022D01*
X14656Y14022D02*
X18264Y14022D01*
X0525Y14071D02*
X10529Y14071D01*
X12231Y14071D02*
X13218Y14071D01*
X14622Y14071D02*
X18298Y14071D01*
X0525Y14121D02*
X10529Y14121D01*
X12231Y14121D02*
X13252Y14121D01*
X14588Y14121D02*
X18332Y14121D01*
X0525Y14170D02*
X10529Y14170D01*
X12231Y14170D02*
X13289Y14170D01*
X14551Y14170D02*
X18369Y14170D01*
X0525Y14220D02*
X10529Y14220D01*
X12231Y14220D02*
X13345Y14220D01*
X13845Y14220D02*
X13995Y14220D01*
X14495Y14220D02*
X18425Y14220D01*
X18925Y14220D02*
X19075Y14220D01*
X0525Y14269D02*
X10533Y14269D01*
X12227Y14269D02*
X13401Y14269D01*
X13845Y14269D02*
X13995Y14269D01*
X14439Y14269D02*
X18481Y14269D01*
X18925Y14269D02*
X19075Y14269D01*
X0525Y14319D02*
X10549Y14319D01*
X12211Y14319D02*
X13471Y14319D01*
X13845Y14319D02*
X13995Y14319D01*
X14369Y14319D02*
X18551Y14319D01*
X18925Y14319D02*
X19075Y14319D01*
X0525Y14368D02*
X10581Y14368D01*
X12179Y14368D02*
X13565Y14368D01*
X13845Y14368D02*
X13995Y14368D01*
X14275Y14368D02*
X18645Y14368D01*
X18925Y14368D02*
X19075Y14368D01*
X0525Y14418D02*
X10638Y14418D01*
X12122Y14418D02*
X13706Y14418D01*
X13845Y14418D02*
X13995Y14418D01*
X14134Y14418D02*
X18786Y14418D01*
X18925Y14418D02*
X19075Y14418D01*
X0525Y14467D02*
X18975Y14467D01*
X0525Y14517D02*
X18975Y14517D01*
X0525Y14567D02*
X18975Y14567D01*
X0525Y14616D02*
X18975Y14616D01*
X0525Y14666D02*
X18975Y14666D01*
X0525Y14715D02*
X18975Y14715D01*
X0525Y14765D02*
X18975Y14765D01*
X0525Y14814D02*
X18975Y14814D01*
X0525Y14864D02*
X18975Y14864D01*
X0525Y14913D02*
X18975Y14913D01*
X0525Y14963D02*
X18975Y14963D01*
X0525Y15012D02*
X18975Y15012D01*
X0525Y15062D02*
X18975Y15062D01*
X0525Y15111D02*
X18975Y15111D01*
X0525Y15161D02*
X18975Y15161D01*
X0525Y15210D02*
X18975Y15210D01*
X0525Y15260D02*
X18975Y15260D01*
X0525Y15309D02*
X18975Y15309D01*
X0525Y15359D02*
X18975Y15359D01*
X0525Y15409D02*
X18975Y15409D01*
X0525Y15458D02*
X18975Y15458D01*
X0525Y15508D02*
X9456Y15508D01*
X0525Y15557D02*
X9407Y15557D01*
X0525Y15607D02*
X9357Y15607D01*
X0525Y15656D02*
X9308Y15656D01*
X0525Y15706D02*
X9258Y15706D01*
X0525Y15755D02*
X9209Y15755D01*
X0525Y15805D02*
X9159Y15805D01*
X0525Y15854D02*
X9110Y15854D01*
X0525Y15904D02*
X9060Y15904D01*
X0525Y15953D02*
X9011Y15953D01*
X0525Y16003D02*
X8961Y16003D01*
X0525Y16052D02*
X8912Y16052D01*
X0525Y16102D02*
X8862Y16102D01*
X0525Y16151D02*
X8813Y16151D01*
X0525Y16201D02*
X8763Y16201D01*
X0525Y16251D02*
X8714Y16251D01*
X0525Y16300D02*
X8664Y16300D01*
X0525Y16350D02*
X8614Y16350D01*
X0525Y16399D02*
X8565Y16399D01*
X0525Y16449D02*
X8515Y16449D01*
%LNbottom copper_traces*%
%LNbottom copper component aa5e6b58f608f077*%
D11*
X13920Y13600D03*
X19000Y13600D03*
X24080Y13600D03*
D12*
X11380Y13600D03*
%LNbottom copper component 08c10c19d67bbcb7*%
D13*
X5000Y7250D03*
X5000Y9750D03*
X7000Y9750D03*
D14*
X2290Y14520D03*
X2290Y2480D03*
D15*
X7000Y7250D03*
%LNbottom copper component d92353f841ac44f0*%
D11*
X13920Y6450D03*
X19000Y6450D03*
X24080Y6450D03*
D12*
X11380Y6450D03*
%LNbottom copper component 1feb1c34ba25e8f7*%
D16*
X34600Y8500D03*
X34600Y3500D03*
D17*
X34600Y13500D03*
M02*