%FSLAX33Y33*%
%MOMM*%
%AMRect-W1250000-H1250000-RO1.500*
21,1,1.25,1.25,0.,0.,90*%
%AMRect-W2049999-H2049999-RO0.500*
21,1,2.049999,2.049999,0.,0.,270*%
%AMRR-H1600000-W900000-R450000-RO0.500*
21,1,0.9,0.7,0.,0.,270*
1,1,0.9,0.35,0.*
1,1,0.9,0.35,-0.*
1,1,0.9,-0.35,-0.*
1,1,0.9,-0.35,0.*%
%AMRect-W1900000-H1900000-RO0.500*
21,1,1.9,1.9,0.,0.,270*%
%AMRect-W400000-H1350000-RO0.500*
21,1,0.4,1.35,0.,0.,270*%
%AMRect-W1600000-H1400000-RO0.500*
21,1,1.6,1.4,0.,0.,270*%
%ADD10C,0.0508*%
%ADD11C,0.5*%
%ADD12C,0.68834*%
%ADD13C,1.25*%
%ADD14Rect-W1250000-H1250000-RO1.500*%
%ADD15C,2.049999*%
%ADD16Rect-W2049999-H2049999-RO0.500*%
%ADD17RR-H1600000-W900000-R450000-RO0.500*%
%ADD18Rect-W1900000-H1900000-RO0.500*%
%ADD19Rect-W400000-H1350000-RO0.500*%
%ADD20Rect-W1600000-H1400000-RO0.500*%
D10*
%LNpour fill*%
G01*
X41975Y3514D02*
X41975Y3514D01*
X41975Y13486*
X37492Y16475*
X14525Y16475*
X14525Y0525*
X37492Y0525*
X41975Y3514*
X32627Y12249D02*
X32627Y12249D01*
X32659Y12251*
X32661Y12252*
X32694Y12259*
X32696Y12260*
X32727Y12273*
X32729Y12274*
X32757Y12291*
X32759Y12292*
X32784Y12314*
X32786Y12316*
X32808Y12341*
X32809Y12343*
X32826Y12371*
X32827Y12373*
X32840Y12404*
X32841Y12406*
X32848Y12439*
X32849Y12441*
X32851Y12474*
X32851Y12475*
X32851Y14525*
X32851Y14526*
X32849Y14559*
X32848Y14561*
X32841Y14594*
X32840Y14596*
X32827Y14627*
X32826Y14629*
X32809Y14657*
X32808Y14659*
X32786Y14684*
X32784Y14686*
X32759Y14708*
X32757Y14709*
X32729Y14726*
X32727Y14727*
X32696Y14740*
X32694Y14741*
X32661Y14748*
X32659Y14749*
X32626Y14751*
X32625Y14751*
X30575Y14751*
X30574Y14751*
X30541Y14749*
X30539Y14748*
X30506Y14741*
X30504Y14740*
X30473Y14727*
X30471Y14726*
X30443Y14709*
X30441Y14708*
X30416Y14686*
X30414Y14684*
X30392Y14659*
X30391Y14657*
X30374Y14629*
X30373Y14627*
X30360Y14596*
X30359Y14594*
X30352Y14561*
X30351Y14559*
X30349Y14527*
X30349Y14526*
X30349Y14076*
X21778Y14076*
X21718Y14163*
X21716Y14166*
X21565Y14300*
X21562Y14302*
X21383Y14396*
X21380Y14397*
X21184Y14445*
X21181Y14445*
X20979Y14445*
X20976Y14445*
X20780Y14397*
X20777Y14396*
X20598Y14302*
X20595Y14300*
X20444Y14166*
X20442Y14163*
X20327Y13997*
X20325Y13994*
X20254Y13805*
X20253Y13802*
X20229Y13602*
X20229Y13598*
X20253Y13398*
X20254Y13395*
X20325Y13206*
X20327Y13203*
X20442Y13037*
X20444Y13034*
X20595Y12900*
X20598Y12898*
X20777Y12804*
X20780Y12803*
X20976Y12755*
X20979Y12755*
X21181Y12755*
X21184Y12755*
X21380Y12803*
X21383Y12804*
X21562Y12898*
X21565Y12900*
X21716Y13034*
X21718Y13037*
X21778Y13124*
X30349Y13124*
X30349Y12474*
X30349Y12474*
X30351Y12441*
X30352Y12439*
X30359Y12406*
X30360Y12404*
X30373Y12373*
X30374Y12371*
X30391Y12343*
X30392Y12341*
X30414Y12316*
X30416Y12314*
X30441Y12292*
X30443Y12291*
X30471Y12274*
X30473Y12273*
X30504Y12260*
X30506Y12259*
X30539Y12252*
X30541Y12251*
X30574Y12249*
X30574Y12249*
X32626Y12249*
X32627Y12249*
X15925Y12768D02*
X15925Y12768D01*
X15925Y13004*
X16075Y13004*
X16075Y12768*
X16094Y12753*
X16300Y12803*
X16303Y12804*
X16482Y12898*
X16485Y12900*
X16636Y13034*
X16638Y13037*
X16753Y13203*
X16755Y13206*
X16826Y13395*
X16827Y13398*
X16851Y13598*
X16851Y13602*
X16827Y13802*
X16826Y13805*
X16755Y13994*
X16753Y13997*
X16638Y14163*
X16636Y14166*
X16485Y14300*
X16482Y14302*
X16303Y14396*
X16300Y14397*
X16094Y14447*
X16075Y14432*
X16075Y14196*
X15925Y14196*
X15925Y14432*
X15906Y14447*
X15700Y14397*
X15697Y14396*
X15518Y14302*
X15515Y14300*
X15364Y14166*
X15362Y14163*
X15247Y13997*
X15245Y13994*
X15174Y13805*
X15173Y13802*
X15160Y13692*
X15175Y13675*
X15400Y13675*
X15400Y13525*
X15175Y13525*
X15160Y13508*
X15173Y13398*
X15174Y13395*
X15245Y13206*
X15247Y13203*
X15362Y13037*
X15364Y13034*
X15515Y12900*
X15518Y12898*
X15697Y12804*
X15700Y12803*
X15906Y12753*
X15925Y12768*
X39149Y9783D02*
X39149Y9783D01*
X39433Y9853*
X39436Y9854*
X39695Y9990*
X39698Y9992*
X39917Y10186*
X39919Y10188*
X40085Y10429*
X40087Y10431*
X40190Y10705*
X40191Y10708*
X40226Y10998*
X40226Y11002*
X40191Y11292*
X40190Y11295*
X40087Y11569*
X40085Y11571*
X39919Y11812*
X39917Y11814*
X39698Y12008*
X39695Y12010*
X39436Y12146*
X39433Y12147*
X39149Y12217*
X39146Y12218*
X38854Y12218*
X38851Y12217*
X38567Y12147*
X38564Y12146*
X38305Y12010*
X38302Y12008*
X38083Y11814*
X38081Y11812*
X37915Y11571*
X37913Y11569*
X37810Y11295*
X37809Y11292*
X37774Y11002*
X37774Y10998*
X37809Y10708*
X37810Y10705*
X37913Y10431*
X37915Y10429*
X38081Y10188*
X38083Y10186*
X38302Y9992*
X38305Y9990*
X38564Y9854*
X38567Y9853*
X38851Y9783*
X38854Y9782*
X39146Y9782*
X39149Y9783*
X31877Y7280D02*
X31877Y7280D01*
X31880Y7280*
X32142Y7372*
X32144Y7373*
X32379Y7521*
X32381Y7523*
X32577Y7719*
X32579Y7721*
X32727Y7956*
X32728Y7958*
X32820Y8220*
X32820Y8223*
X32841Y8408*
X32826Y8425*
X32600Y8425*
X32600Y8575*
X32826Y8575*
X32841Y8592*
X32820Y8777*
X32820Y8780*
X32728Y9042*
X32727Y9044*
X32579Y9279*
X32577Y9281*
X32381Y9477*
X32379Y9479*
X32144Y9627*
X32142Y9628*
X31880Y9720*
X31877Y9720*
X31692Y9741*
X31675Y9726*
X31675Y9493*
X31525Y9493*
X31525Y9726*
X31508Y9741*
X31323Y9720*
X31320Y9720*
X31058Y9628*
X31056Y9627*
X30821Y9479*
X30819Y9477*
X30623Y9281*
X30621Y9279*
X30473Y9044*
X30472Y9042*
X30380Y8780*
X30380Y8777*
X30359Y8592*
X30374Y8575*
X30600Y8575*
X30600Y8425*
X30374Y8425*
X30359Y8408*
X30380Y8223*
X30380Y8220*
X30472Y7958*
X30473Y7956*
X30621Y7721*
X30623Y7719*
X30819Y7523*
X30821Y7521*
X31056Y7373*
X31058Y7372*
X31320Y7280*
X31323Y7280*
X31508Y7259*
X31525Y7274*
X31525Y7507*
X31675Y7507*
X31675Y7274*
X31692Y7259*
X31877Y7280*
X31877Y2280D02*
X31877Y2280D01*
X31880Y2280*
X32142Y2372*
X32144Y2373*
X32379Y2521*
X32381Y2523*
X32577Y2719*
X32579Y2721*
X32727Y2956*
X32728Y2958*
X32820Y3220*
X32820Y3223*
X32851Y3499*
X32851Y3501*
X32820Y3777*
X32820Y3780*
X32728Y4042*
X32727Y4044*
X32579Y4279*
X32577Y4281*
X32381Y4477*
X32379Y4479*
X32144Y4627*
X32142Y4628*
X31880Y4720*
X31877Y4720*
X31601Y4751*
X31599Y4751*
X31323Y4720*
X31320Y4720*
X31058Y4628*
X31056Y4627*
X30821Y4479*
X30819Y4477*
X30623Y4281*
X30621Y4279*
X30473Y4044*
X30472Y4042*
X30449Y3976*
X17697Y3976*
X16476Y5197*
X16476Y5743*
X16636Y5884*
X16638Y5887*
X16753Y6053*
X16755Y6056*
X16826Y6245*
X16827Y6248*
X16851Y6448*
X16851Y6452*
X16827Y6652*
X16826Y6655*
X16755Y6844*
X16753Y6847*
X16638Y7013*
X16636Y7016*
X16485Y7150*
X16482Y7152*
X16303Y7246*
X16300Y7247*
X16104Y7295*
X16101Y7295*
X15899Y7295*
X15896Y7295*
X15700Y7247*
X15697Y7246*
X15518Y7152*
X15515Y7150*
X15364Y7016*
X15362Y7013*
X15247Y6847*
X15245Y6844*
X15174Y6655*
X15173Y6652*
X15149Y6452*
X15149Y6448*
X15173Y6248*
X15174Y6245*
X15245Y6056*
X15247Y6053*
X15362Y5887*
X15364Y5884*
X15524Y5743*
X15524Y4999*
X15524Y4998*
X15533Y4908*
X15533Y4906*
X15559Y4819*
X15560Y4817*
X15603Y4736*
X15605Y4734*
X15662Y4664*
X15663Y4664*
X17164Y3163*
X17164Y3162*
X17234Y3105*
X17236Y3103*
X17317Y3060*
X17319Y3059*
X17406Y3033*
X17408Y3033*
X17498Y3024*
X17499Y3024*
X30449Y3024*
X30472Y2958*
X30473Y2956*
X30621Y2721*
X30623Y2719*
X30819Y2523*
X30821Y2521*
X31056Y2373*
X31058Y2372*
X31320Y2280*
X31323Y2280*
X31599Y2249*
X31601Y2249*
X31877Y2280*
X21005Y5618D02*
X21005Y5618D01*
X21005Y5854*
X21155Y5854*
X21155Y5618*
X21174Y5603*
X21380Y5653*
X21383Y5654*
X21562Y5748*
X21565Y5750*
X21716Y5884*
X21718Y5887*
X21833Y6053*
X21835Y6056*
X21906Y6245*
X21907Y6248*
X21920Y6358*
X21905Y6375*
X21680Y6375*
X21680Y6525*
X21905Y6525*
X21920Y6542*
X21907Y6652*
X21906Y6655*
X21835Y6844*
X21833Y6847*
X21718Y7013*
X21716Y7016*
X21565Y7150*
X21562Y7152*
X21383Y7246*
X21380Y7247*
X21174Y7297*
X21155Y7282*
X21155Y7046*
X21005Y7046*
X21005Y7282*
X20986Y7297*
X20780Y7247*
X20777Y7246*
X20598Y7152*
X20595Y7150*
X20444Y7016*
X20442Y7013*
X20327Y6847*
X20325Y6844*
X20254Y6655*
X20253Y6652*
X20240Y6542*
X20255Y6525*
X20480Y6525*
X20480Y6375*
X20255Y6375*
X20240Y6358*
X20253Y6248*
X20254Y6245*
X20325Y6056*
X20327Y6053*
X20442Y5887*
X20444Y5884*
X20595Y5750*
X20598Y5748*
X20777Y5654*
X20780Y5653*
X20986Y5603*
X21005Y5618*
X39149Y4783D02*
X39149Y4783D01*
X39433Y4853*
X39436Y4854*
X39695Y4990*
X39698Y4992*
X39917Y5186*
X39919Y5188*
X40085Y5429*
X40087Y5431*
X40190Y5705*
X40191Y5708*
X40226Y5998*
X40226Y6002*
X40191Y6292*
X40190Y6295*
X40087Y6569*
X40085Y6571*
X39919Y6812*
X39917Y6814*
X39698Y7008*
X39695Y7010*
X39436Y7146*
X39433Y7147*
X39149Y7217*
X39146Y7218*
X38854Y7218*
X38851Y7217*
X38567Y7147*
X38564Y7146*
X38305Y7010*
X38302Y7008*
X38083Y6814*
X38081Y6812*
X37915Y6571*
X37913Y6569*
X37810Y6295*
X37809Y6292*
X37774Y6002*
X37774Y5998*
X37809Y5708*
X37810Y5705*
X37913Y5431*
X37915Y5429*
X38081Y5188*
X38083Y5186*
X38302Y4992*
X38305Y4990*
X38564Y4854*
X38567Y4853*
X38851Y4783*
X38854Y4782*
X39146Y4782*
X39149Y4783*
X14525Y0550D02*
X37529Y0550D01*
X14525Y0599D02*
X37603Y0599D01*
X14525Y0649D02*
X37677Y0649D01*
X14525Y0698D02*
X37751Y0698D01*
X14525Y0748D02*
X37826Y0748D01*
X14525Y0797D02*
X37900Y0797D01*
X14525Y0847D02*
X37974Y0847D01*
X14525Y0896D02*
X38049Y0896D01*
X14525Y0946D02*
X38123Y0946D01*
X14525Y0995D02*
X38197Y0995D01*
X14525Y1045D02*
X38271Y1045D01*
X14525Y1094D02*
X38346Y1094D01*
X14525Y1144D02*
X38420Y1144D01*
X14525Y1193D02*
X38494Y1193D01*
X14525Y1243D02*
X38569Y1243D01*
X14525Y1292D02*
X38643Y1292D01*
X14525Y1342D02*
X38717Y1342D01*
X14525Y1392D02*
X38792Y1392D01*
X14525Y1441D02*
X38866Y1441D01*
X14525Y1491D02*
X38940Y1491D01*
X14525Y1540D02*
X39014Y1540D01*
X14525Y1590D02*
X39089Y1590D01*
X14525Y1639D02*
X39163Y1639D01*
X14525Y1689D02*
X39237Y1689D01*
X14525Y1738D02*
X39312Y1738D01*
X14525Y1788D02*
X39386Y1788D01*
X14525Y1837D02*
X39460Y1837D01*
X14525Y1887D02*
X39534Y1887D01*
X14525Y1936D02*
X39609Y1936D01*
X14525Y1986D02*
X39683Y1986D01*
X14525Y2035D02*
X39757Y2035D01*
X14525Y2085D02*
X39832Y2085D01*
X14525Y2134D02*
X39906Y2134D01*
X14525Y2184D02*
X39980Y2184D01*
X14525Y2234D02*
X40055Y2234D01*
X14525Y2283D02*
X31312Y2283D01*
X31888Y2283D02*
X40129Y2283D01*
X14525Y2333D02*
X31171Y2333D01*
X32029Y2333D02*
X40203Y2333D01*
X14525Y2382D02*
X31041Y2382D01*
X32159Y2382D02*
X40277Y2382D01*
X14525Y2432D02*
X30963Y2432D01*
X32237Y2432D02*
X40352Y2432D01*
X14525Y2481D02*
X30884Y2481D01*
X32316Y2481D02*
X40426Y2481D01*
X14525Y2531D02*
X30810Y2531D01*
X32390Y2531D02*
X40500Y2531D01*
X14525Y2580D02*
X30761Y2580D01*
X32439Y2580D02*
X40575Y2580D01*
X14525Y2630D02*
X30711Y2630D01*
X32489Y2630D02*
X40649Y2630D01*
X14525Y2679D02*
X30662Y2679D01*
X32538Y2679D02*
X40723Y2679D01*
X14525Y2729D02*
X30616Y2729D01*
X32584Y2729D02*
X40797Y2729D01*
X14525Y2778D02*
X30585Y2778D01*
X32615Y2778D02*
X40872Y2778D01*
X14525Y2828D02*
X30553Y2828D01*
X32647Y2828D02*
X40946Y2828D01*
X14525Y2877D02*
X30522Y2877D01*
X32678Y2877D02*
X41020Y2877D01*
X14525Y2927D02*
X30491Y2927D01*
X32709Y2927D02*
X41095Y2927D01*
X14525Y2977D02*
X30466Y2977D01*
X32734Y2977D02*
X41169Y2977D01*
X14525Y3026D02*
X17474Y3026D01*
X32752Y3026D02*
X41243Y3026D01*
X14525Y3076D02*
X17288Y3076D01*
X32769Y3076D02*
X41318Y3076D01*
X14525Y3125D02*
X17209Y3125D01*
X32786Y3125D02*
X41392Y3125D01*
X14525Y3175D02*
X17152Y3175D01*
X32804Y3175D02*
X41466Y3175D01*
X14525Y3224D02*
X17102Y3224D01*
X32820Y3224D02*
X41540Y3224D01*
X14525Y3274D02*
X17053Y3274D01*
X32826Y3274D02*
X41615Y3274D01*
X14525Y3323D02*
X17003Y3323D01*
X32832Y3323D02*
X41689Y3323D01*
X14525Y3373D02*
X16954Y3373D01*
X32837Y3373D02*
X41763Y3373D01*
X14525Y3422D02*
X16904Y3422D01*
X32843Y3422D02*
X41838Y3422D01*
X14525Y3472D02*
X16854Y3472D01*
X32848Y3472D02*
X41912Y3472D01*
X14525Y3521D02*
X16805Y3521D01*
X32849Y3521D02*
X41975Y3521D01*
X14525Y3571D02*
X16755Y3571D01*
X32844Y3571D02*
X41975Y3571D01*
X14525Y3620D02*
X16706Y3620D01*
X32838Y3620D02*
X41975Y3620D01*
X14525Y3670D02*
X16656Y3670D01*
X32832Y3670D02*
X41975Y3670D01*
X14525Y3719D02*
X16607Y3719D01*
X32827Y3719D02*
X41975Y3719D01*
X14525Y3769D02*
X16557Y3769D01*
X32821Y3769D02*
X41975Y3769D01*
X14525Y3819D02*
X16508Y3819D01*
X32806Y3819D02*
X41975Y3819D01*
X14525Y3868D02*
X16458Y3868D01*
X32789Y3868D02*
X41975Y3868D01*
X14525Y3918D02*
X16409Y3918D01*
X32772Y3918D02*
X41975Y3918D01*
X14525Y3967D02*
X16359Y3967D01*
X32754Y3967D02*
X41975Y3967D01*
X14525Y4017D02*
X16310Y4017D01*
X17657Y4017D02*
X30463Y4017D01*
X32737Y4017D02*
X41975Y4017D01*
X14525Y4066D02*
X16260Y4066D01*
X17608Y4066D02*
X30487Y4066D01*
X32713Y4066D02*
X41975Y4066D01*
X14525Y4116D02*
X16211Y4116D01*
X17558Y4116D02*
X30518Y4116D01*
X32682Y4116D02*
X41975Y4116D01*
X14525Y4165D02*
X16161Y4165D01*
X17509Y4165D02*
X30549Y4165D01*
X32651Y4165D02*
X41975Y4165D01*
X14525Y4215D02*
X16112Y4215D01*
X17459Y4215D02*
X30580Y4215D01*
X32620Y4215D02*
X41975Y4215D01*
X14525Y4264D02*
X16062Y4264D01*
X17409Y4264D02*
X30611Y4264D01*
X32589Y4264D02*
X41975Y4264D01*
X14525Y4314D02*
X16012Y4314D01*
X17360Y4314D02*
X30655Y4314D01*
X32545Y4314D02*
X41975Y4314D01*
X14525Y4363D02*
X15963Y4363D01*
X17310Y4363D02*
X30704Y4363D01*
X32496Y4363D02*
X41975Y4363D01*
X14525Y4413D02*
X15913Y4413D01*
X17261Y4413D02*
X30754Y4413D01*
X32446Y4413D02*
X41975Y4413D01*
X14525Y4462D02*
X15864Y4462D01*
X17211Y4462D02*
X30804Y4462D01*
X32396Y4462D02*
X41975Y4462D01*
X14525Y4512D02*
X15814Y4512D01*
X17162Y4512D02*
X30873Y4512D01*
X32327Y4512D02*
X41975Y4512D01*
X14525Y4561D02*
X15765Y4561D01*
X17112Y4561D02*
X30952Y4561D01*
X32248Y4561D02*
X41975Y4561D01*
X14525Y4611D02*
X15715Y4611D01*
X17063Y4611D02*
X31031Y4611D01*
X32169Y4611D02*
X41975Y4611D01*
X14525Y4661D02*
X15666Y4661D01*
X17013Y4661D02*
X31151Y4661D01*
X32049Y4661D02*
X41975Y4661D01*
X14525Y4710D02*
X15624Y4710D01*
X16964Y4710D02*
X31293Y4710D01*
X31907Y4710D02*
X41975Y4710D01*
X14525Y4760D02*
X15591Y4760D01*
X16914Y4760D02*
X41975Y4760D01*
X14525Y4809D02*
X15564Y4809D01*
X16865Y4809D02*
X38744Y4809D01*
X39256Y4809D02*
X41975Y4809D01*
X14525Y4859D02*
X15547Y4859D01*
X16815Y4859D02*
X38555Y4859D01*
X39445Y4859D02*
X41975Y4859D01*
X14525Y4908D02*
X15533Y4908D01*
X16766Y4908D02*
X38460Y4908D01*
X39540Y4908D02*
X41975Y4908D01*
X14525Y4958D02*
X15528Y4958D01*
X16716Y4958D02*
X38366Y4958D01*
X39634Y4958D02*
X41975Y4958D01*
X14525Y5007D02*
X15524Y5007D01*
X16667Y5007D02*
X38284Y5007D01*
X39716Y5007D02*
X41975Y5007D01*
X14525Y5057D02*
X15524Y5057D01*
X16617Y5057D02*
X38228Y5057D01*
X39772Y5057D02*
X41975Y5057D01*
X14525Y5106D02*
X15524Y5106D01*
X16567Y5106D02*
X38173Y5106D01*
X39827Y5106D02*
X41975Y5106D01*
X14525Y5156D02*
X15524Y5156D01*
X16518Y5156D02*
X38117Y5156D01*
X39883Y5156D02*
X41975Y5156D01*
X14525Y5205D02*
X15524Y5205D01*
X16476Y5205D02*
X38069Y5205D01*
X39931Y5205D02*
X41975Y5205D01*
X14525Y5255D02*
X15524Y5255D01*
X16476Y5255D02*
X38035Y5255D01*
X39965Y5255D02*
X41975Y5255D01*
X14525Y5304D02*
X15524Y5304D01*
X16476Y5304D02*
X38001Y5304D01*
X39999Y5304D02*
X41975Y5304D01*
X14525Y5354D02*
X15524Y5354D01*
X16476Y5354D02*
X37966Y5354D01*
X40034Y5354D02*
X41975Y5354D01*
X14525Y5403D02*
X15524Y5403D01*
X16476Y5403D02*
X37932Y5403D01*
X40068Y5403D02*
X41975Y5403D01*
X14525Y5453D02*
X15524Y5453D01*
X16476Y5453D02*
X37905Y5453D01*
X40095Y5453D02*
X41975Y5453D01*
X14525Y5503D02*
X15524Y5503D01*
X16476Y5503D02*
X37886Y5503D01*
X40114Y5503D02*
X41975Y5503D01*
X14525Y5552D02*
X15524Y5552D01*
X16476Y5552D02*
X37868Y5552D01*
X40132Y5552D02*
X41975Y5552D01*
X14525Y5602D02*
X15524Y5602D01*
X16476Y5602D02*
X37849Y5602D01*
X40151Y5602D02*
X41975Y5602D01*
X14525Y5651D02*
X15524Y5651D01*
X16476Y5651D02*
X20789Y5651D01*
X21005Y5651D02*
X21155Y5651D01*
X21371Y5651D02*
X37830Y5651D01*
X40170Y5651D02*
X41975Y5651D01*
X14525Y5701D02*
X15524Y5701D01*
X16476Y5701D02*
X20689Y5701D01*
X21005Y5701D02*
X21155Y5701D01*
X21471Y5701D02*
X37811Y5701D01*
X40189Y5701D02*
X41975Y5701D01*
X14525Y5750D02*
X15515Y5750D01*
X16485Y5750D02*
X20595Y5750D01*
X21005Y5750D02*
X21155Y5750D01*
X21565Y5750D02*
X37804Y5750D01*
X40196Y5750D02*
X41975Y5750D01*
X14525Y5800D02*
X15459Y5800D01*
X16541Y5800D02*
X20539Y5800D01*
X21005Y5800D02*
X21155Y5800D01*
X21621Y5800D02*
X37798Y5800D01*
X40202Y5800D02*
X41975Y5800D01*
X14525Y5849D02*
X15403Y5849D01*
X16597Y5849D02*
X20483Y5849D01*
X21005Y5849D02*
X21155Y5849D01*
X21677Y5849D02*
X37792Y5849D01*
X40208Y5849D02*
X41975Y5849D01*
X14525Y5899D02*
X15353Y5899D01*
X16647Y5899D02*
X20433Y5899D01*
X21727Y5899D02*
X37786Y5899D01*
X40214Y5899D02*
X41975Y5899D01*
X14525Y5948D02*
X15319Y5948D01*
X16681Y5948D02*
X20399Y5948D01*
X21761Y5948D02*
X37780Y5948D01*
X40220Y5948D02*
X41975Y5948D01*
X14525Y5998D02*
X15285Y5998D01*
X16715Y5998D02*
X20365Y5998D01*
X21795Y5998D02*
X37774Y5998D01*
X40226Y5998D02*
X41975Y5998D01*
X14525Y6047D02*
X15251Y6047D01*
X16749Y6047D02*
X20331Y6047D01*
X21829Y6047D02*
X37779Y6047D01*
X40221Y6047D02*
X41975Y6047D01*
X14525Y6097D02*
X15230Y6097D01*
X16770Y6097D02*
X20310Y6097D01*
X21850Y6097D02*
X37785Y6097D01*
X40215Y6097D02*
X41975Y6097D01*
X14525Y6146D02*
X15211Y6146D01*
X16789Y6146D02*
X20291Y6146D01*
X21869Y6146D02*
X37791Y6146D01*
X40209Y6146D02*
X41975Y6146D01*
X14525Y6196D02*
X15192Y6196D01*
X16808Y6196D02*
X20272Y6196D01*
X21888Y6196D02*
X37797Y6196D01*
X40203Y6196D02*
X41975Y6196D01*
X14525Y6245D02*
X15174Y6245D01*
X16826Y6245D02*
X20254Y6245D01*
X21906Y6245D02*
X37803Y6245D01*
X40197Y6245D02*
X41975Y6245D01*
X14525Y6295D02*
X15167Y6295D01*
X16833Y6295D02*
X20247Y6295D01*
X21913Y6295D02*
X37810Y6295D01*
X40190Y6295D02*
X41975Y6295D01*
X14525Y6345D02*
X15161Y6345D01*
X16839Y6345D02*
X20241Y6345D01*
X21919Y6345D02*
X37828Y6345D01*
X40172Y6345D02*
X41975Y6345D01*
X14525Y6394D02*
X15155Y6394D01*
X16845Y6394D02*
X20480Y6394D01*
X21680Y6394D02*
X37847Y6394D01*
X40153Y6394D02*
X41975Y6394D01*
X14525Y6444D02*
X15149Y6444D01*
X16851Y6444D02*
X20480Y6444D01*
X21680Y6444D02*
X37866Y6444D01*
X40134Y6444D02*
X41975Y6444D01*
X14525Y6493D02*
X15154Y6493D01*
X16846Y6493D02*
X20480Y6493D01*
X21680Y6493D02*
X37885Y6493D01*
X40115Y6493D02*
X41975Y6493D01*
X14525Y6543D02*
X15160Y6543D01*
X16840Y6543D02*
X20240Y6543D01*
X21920Y6543D02*
X37904Y6543D01*
X40096Y6543D02*
X41975Y6543D01*
X14525Y6592D02*
X15166Y6592D01*
X16834Y6592D02*
X20246Y6592D01*
X21914Y6592D02*
X37929Y6592D01*
X40071Y6592D02*
X41975Y6592D01*
X14525Y6642D02*
X15172Y6642D01*
X16828Y6642D02*
X20252Y6642D01*
X21908Y6642D02*
X37963Y6642D01*
X40037Y6642D02*
X41975Y6642D01*
X14525Y6691D02*
X15187Y6691D01*
X16813Y6691D02*
X20267Y6691D01*
X21893Y6691D02*
X37998Y6691D01*
X40002Y6691D02*
X41975Y6691D01*
X14525Y6741D02*
X15206Y6741D01*
X16794Y6741D02*
X20286Y6741D01*
X21874Y6741D02*
X38032Y6741D01*
X39968Y6741D02*
X41975Y6741D01*
X14525Y6790D02*
X15225Y6790D01*
X16775Y6790D02*
X20305Y6790D01*
X21855Y6790D02*
X38066Y6790D01*
X39934Y6790D02*
X41975Y6790D01*
X14525Y6840D02*
X15244Y6840D01*
X16756Y6840D02*
X20324Y6840D01*
X21836Y6840D02*
X38112Y6840D01*
X39888Y6840D02*
X41975Y6840D01*
X14525Y6889D02*
X15276Y6889D01*
X16724Y6889D02*
X20356Y6889D01*
X21804Y6889D02*
X38168Y6889D01*
X39832Y6889D02*
X41975Y6889D01*
X14525Y6939D02*
X15310Y6939D01*
X16690Y6939D02*
X20390Y6939D01*
X21770Y6939D02*
X38224Y6939D01*
X39776Y6939D02*
X41975Y6939D01*
X14525Y6988D02*
X15344Y6988D01*
X16656Y6988D02*
X20424Y6988D01*
X21736Y6988D02*
X38279Y6988D01*
X39721Y6988D02*
X41975Y6988D01*
X14525Y7038D02*
X15389Y7038D01*
X16611Y7038D02*
X20469Y7038D01*
X21691Y7038D02*
X38358Y7038D01*
X39642Y7038D02*
X41975Y7038D01*
X14525Y7087D02*
X15445Y7087D01*
X16555Y7087D02*
X20525Y7087D01*
X21005Y7087D02*
X21155Y7087D01*
X21635Y7087D02*
X38452Y7087D01*
X39548Y7087D02*
X41975Y7087D01*
X14525Y7137D02*
X15501Y7137D01*
X16499Y7137D02*
X20581Y7137D01*
X21005Y7137D02*
X21155Y7137D01*
X21579Y7137D02*
X38546Y7137D01*
X39454Y7137D02*
X41975Y7137D01*
X14525Y7187D02*
X15584Y7187D01*
X16416Y7187D02*
X20664Y7187D01*
X21005Y7187D02*
X21155Y7187D01*
X21496Y7187D02*
X38726Y7187D01*
X39274Y7187D02*
X41975Y7187D01*
X14525Y7236D02*
X15679Y7236D01*
X16321Y7236D02*
X20759Y7236D01*
X21005Y7236D02*
X21155Y7236D01*
X21401Y7236D02*
X41975Y7236D01*
X14525Y7286D02*
X15858Y7286D01*
X16142Y7286D02*
X20938Y7286D01*
X21001Y7286D02*
X21159Y7286D01*
X21222Y7286D02*
X31305Y7286D01*
X31525Y7286D02*
X31675Y7286D01*
X31895Y7286D02*
X41975Y7286D01*
X14525Y7335D02*
X31163Y7335D01*
X31525Y7335D02*
X31675Y7335D01*
X32037Y7335D02*
X41975Y7335D01*
X14525Y7385D02*
X31037Y7385D01*
X31525Y7385D02*
X31675Y7385D01*
X32163Y7385D02*
X41975Y7385D01*
X14525Y7434D02*
X30959Y7434D01*
X31525Y7434D02*
X31675Y7434D01*
X32241Y7434D02*
X41975Y7434D01*
X14525Y7484D02*
X30880Y7484D01*
X31525Y7484D02*
X31675Y7484D01*
X32320Y7484D02*
X41975Y7484D01*
X14525Y7533D02*
X30808Y7533D01*
X32392Y7533D02*
X41975Y7533D01*
X14525Y7583D02*
X30758Y7583D01*
X32442Y7583D02*
X41975Y7583D01*
X14525Y7632D02*
X30709Y7632D01*
X32491Y7632D02*
X41975Y7632D01*
X14525Y7682D02*
X30659Y7682D01*
X32541Y7682D02*
X41975Y7682D01*
X14525Y7731D02*
X30614Y7731D01*
X32586Y7731D02*
X41975Y7731D01*
X14525Y7781D02*
X30583Y7781D01*
X32617Y7781D02*
X41975Y7781D01*
X14525Y7830D02*
X30552Y7830D01*
X32648Y7830D02*
X41975Y7830D01*
X14525Y7880D02*
X30521Y7880D01*
X32679Y7880D02*
X41975Y7880D01*
X14525Y7929D02*
X30490Y7929D01*
X32710Y7929D02*
X41975Y7929D01*
X14525Y7979D02*
X30465Y7979D01*
X32735Y7979D02*
X41975Y7979D01*
X14525Y8029D02*
X30447Y8029D01*
X32753Y8029D02*
X41975Y8029D01*
X14525Y8078D02*
X30430Y8078D01*
X32770Y8078D02*
X41975Y8078D01*
X14525Y8128D02*
X30413Y8128D01*
X32787Y8128D02*
X41975Y8128D01*
X14525Y8177D02*
X30395Y8177D01*
X32805Y8177D02*
X41975Y8177D01*
X14525Y8227D02*
X30379Y8227D01*
X32821Y8227D02*
X41975Y8227D01*
X14525Y8276D02*
X30374Y8276D01*
X32826Y8276D02*
X41975Y8276D01*
X14525Y8326D02*
X30368Y8326D01*
X32832Y8326D02*
X41975Y8326D01*
X14525Y8375D02*
X30362Y8375D01*
X32838Y8375D02*
X41975Y8375D01*
X14525Y8425D02*
X30373Y8425D01*
X32827Y8425D02*
X41975Y8425D01*
X14525Y8474D02*
X30600Y8474D01*
X32600Y8474D02*
X41975Y8474D01*
X14525Y8524D02*
X30600Y8524D01*
X32600Y8524D02*
X41975Y8524D01*
X14525Y8573D02*
X30600Y8573D01*
X32600Y8573D02*
X41975Y8573D01*
X14525Y8623D02*
X30362Y8623D01*
X32838Y8623D02*
X41975Y8623D01*
X14525Y8672D02*
X30368Y8672D01*
X32832Y8672D02*
X41975Y8672D01*
X14525Y8722D02*
X30373Y8722D01*
X32827Y8722D02*
X41975Y8722D01*
X14525Y8772D02*
X30379Y8772D01*
X32821Y8772D02*
X41975Y8772D01*
X14525Y8821D02*
X30395Y8821D01*
X32805Y8821D02*
X41975Y8821D01*
X14525Y8871D02*
X30412Y8871D01*
X32788Y8871D02*
X41975Y8871D01*
X14525Y8920D02*
X30429Y8920D01*
X32771Y8920D02*
X41975Y8920D01*
X14525Y8970D02*
X30447Y8970D01*
X32753Y8970D02*
X41975Y8970D01*
X14525Y9019D02*
X30464Y9019D01*
X32736Y9019D02*
X41975Y9019D01*
X14525Y9069D02*
X30489Y9069D01*
X32711Y9069D02*
X41975Y9069D01*
X14525Y9118D02*
X30520Y9118D01*
X32680Y9118D02*
X41975Y9118D01*
X14525Y9168D02*
X30551Y9168D01*
X32649Y9168D02*
X41975Y9168D01*
X14525Y9217D02*
X30582Y9217D01*
X32618Y9217D02*
X41975Y9217D01*
X14525Y9267D02*
X30613Y9267D01*
X32587Y9267D02*
X41975Y9267D01*
X14525Y9316D02*
X30657Y9316D01*
X32543Y9316D02*
X41975Y9316D01*
X14525Y9366D02*
X30707Y9366D01*
X32493Y9366D02*
X41975Y9366D01*
X14525Y9415D02*
X30757Y9415D01*
X32443Y9415D02*
X41975Y9415D01*
X14525Y9465D02*
X30806Y9465D01*
X32394Y9465D02*
X41975Y9465D01*
X14525Y9514D02*
X30877Y9514D01*
X31525Y9514D02*
X31675Y9514D01*
X32323Y9514D02*
X41975Y9514D01*
X14525Y9564D02*
X30956Y9564D01*
X31525Y9564D02*
X31675Y9564D01*
X32244Y9564D02*
X41975Y9564D01*
X14525Y9614D02*
X31035Y9614D01*
X31525Y9614D02*
X31675Y9614D01*
X32165Y9614D02*
X41975Y9614D01*
X14525Y9663D02*
X31158Y9663D01*
X31525Y9663D02*
X31675Y9663D01*
X32042Y9663D02*
X41975Y9663D01*
X14525Y9713D02*
X31300Y9713D01*
X31525Y9713D02*
X31675Y9713D01*
X31900Y9713D02*
X41975Y9713D01*
X14525Y9762D02*
X41975Y9762D01*
X14525Y9812D02*
X38733Y9812D01*
X39267Y9812D02*
X41975Y9812D01*
X14525Y9861D02*
X38550Y9861D01*
X39450Y9861D02*
X41975Y9861D01*
X14525Y9911D02*
X38455Y9911D01*
X39545Y9911D02*
X41975Y9911D01*
X14525Y9960D02*
X38361Y9960D01*
X39639Y9960D02*
X41975Y9960D01*
X14525Y10010D02*
X38282Y10010D01*
X39718Y10010D02*
X41975Y10010D01*
X14525Y10059D02*
X38226Y10059D01*
X39774Y10059D02*
X41975Y10059D01*
X14525Y10109D02*
X38170Y10109D01*
X39830Y10109D02*
X41975Y10109D01*
X14525Y10158D02*
X38114Y10158D01*
X39886Y10158D02*
X41975Y10158D01*
X14525Y10208D02*
X38067Y10208D01*
X39933Y10208D02*
X41975Y10208D01*
X14525Y10257D02*
X38033Y10257D01*
X39967Y10257D02*
X41975Y10257D01*
X14525Y10307D02*
X37999Y10307D01*
X40001Y10307D02*
X41975Y10307D01*
X14525Y10356D02*
X37965Y10356D01*
X40035Y10356D02*
X41975Y10356D01*
X14525Y10406D02*
X37930Y10406D01*
X40070Y10406D02*
X41975Y10406D01*
X14525Y10456D02*
X37904Y10456D01*
X40096Y10456D02*
X41975Y10456D01*
X14525Y10505D02*
X37885Y10505D01*
X40115Y10505D02*
X41975Y10505D01*
X14525Y10555D02*
X37867Y10555D01*
X40133Y10555D02*
X41975Y10555D01*
X14525Y10604D02*
X37848Y10604D01*
X40152Y10604D02*
X41975Y10604D01*
X14525Y10654D02*
X37829Y10654D01*
X40171Y10654D02*
X41975Y10654D01*
X14525Y10703D02*
X37810Y10703D01*
X40190Y10703D02*
X41975Y10703D01*
X14525Y10753D02*
X37803Y10753D01*
X40197Y10753D02*
X41975Y10753D01*
X14525Y10802D02*
X37797Y10802D01*
X40203Y10802D02*
X41975Y10802D01*
X14525Y10852D02*
X37791Y10852D01*
X40209Y10852D02*
X41975Y10852D01*
X14525Y10901D02*
X37785Y10901D01*
X40215Y10901D02*
X41975Y10901D01*
X14525Y10951D02*
X37779Y10951D01*
X40221Y10951D02*
X41975Y10951D01*
X14525Y11000D02*
X37774Y11000D01*
X40226Y11000D02*
X41975Y11000D01*
X14525Y11050D02*
X37779Y11050D01*
X40221Y11050D02*
X41975Y11050D01*
X14525Y11099D02*
X37785Y11099D01*
X40215Y11099D02*
X41975Y11099D01*
X14525Y11149D02*
X37791Y11149D01*
X40209Y11149D02*
X41975Y11149D01*
X14525Y11198D02*
X37798Y11198D01*
X40202Y11198D02*
X41975Y11198D01*
X14525Y11248D02*
X37804Y11248D01*
X40196Y11248D02*
X41975Y11248D01*
X14525Y11298D02*
X37811Y11298D01*
X40189Y11298D02*
X41975Y11298D01*
X14525Y11347D02*
X37829Y11347D01*
X40171Y11347D02*
X41975Y11347D01*
X14525Y11397D02*
X37848Y11397D01*
X40152Y11397D02*
X41975Y11397D01*
X14525Y11446D02*
X37867Y11446D01*
X40133Y11446D02*
X41975Y11446D01*
X14525Y11496D02*
X37886Y11496D01*
X40114Y11496D02*
X41975Y11496D01*
X14525Y11545D02*
X37904Y11545D01*
X40096Y11545D02*
X41975Y11545D01*
X14525Y11595D02*
X37931Y11595D01*
X40069Y11595D02*
X41975Y11595D01*
X14525Y11644D02*
X37965Y11644D01*
X40035Y11644D02*
X41975Y11644D01*
X14525Y11694D02*
X37999Y11694D01*
X40001Y11694D02*
X41975Y11694D01*
X14525Y11743D02*
X38034Y11743D01*
X39966Y11743D02*
X41975Y11743D01*
X14525Y11793D02*
X38068Y11793D01*
X39932Y11793D02*
X41975Y11793D01*
X14525Y11842D02*
X38115Y11842D01*
X39885Y11842D02*
X41975Y11842D01*
X14525Y11892D02*
X38171Y11892D01*
X39829Y11892D02*
X41975Y11892D01*
X14525Y11941D02*
X38226Y11941D01*
X39774Y11941D02*
X41975Y11941D01*
X14525Y11991D02*
X38282Y11991D01*
X39718Y11991D02*
X41975Y11991D01*
X14525Y12040D02*
X38362Y12040D01*
X39638Y12040D02*
X41975Y12040D01*
X14525Y12090D02*
X38457Y12090D01*
X39543Y12090D02*
X41975Y12090D01*
X14525Y12140D02*
X38551Y12140D01*
X39449Y12140D02*
X41975Y12140D01*
X14525Y12189D02*
X38736Y12189D01*
X39264Y12189D02*
X41975Y12189D01*
X14525Y12239D02*
X41975Y12239D01*
X14525Y12288D02*
X30448Y12288D01*
X32752Y12288D02*
X41975Y12288D01*
X14525Y12338D02*
X30395Y12338D01*
X32805Y12338D02*
X41975Y12338D01*
X14525Y12387D02*
X30367Y12387D01*
X32833Y12387D02*
X41975Y12387D01*
X14525Y12437D02*
X30352Y12437D01*
X32848Y12437D02*
X41975Y12437D01*
X14525Y12486D02*
X30349Y12486D01*
X32851Y12486D02*
X41975Y12486D01*
X14525Y12536D02*
X30349Y12536D01*
X32851Y12536D02*
X41975Y12536D01*
X14525Y12585D02*
X30349Y12585D01*
X32851Y12585D02*
X41975Y12585D01*
X14525Y12635D02*
X30349Y12635D01*
X32851Y12635D02*
X41975Y12635D01*
X14525Y12684D02*
X30349Y12684D01*
X32851Y12684D02*
X41975Y12684D01*
X14525Y12734D02*
X30349Y12734D01*
X32851Y12734D02*
X41975Y12734D01*
X14525Y12783D02*
X15780Y12783D01*
X15925Y12783D02*
X16075Y12783D01*
X16220Y12783D02*
X20860Y12783D01*
X21300Y12783D02*
X30349Y12783D01*
X32851Y12783D02*
X41975Y12783D01*
X14525Y12833D02*
X15642Y12833D01*
X15925Y12833D02*
X16075Y12833D01*
X16358Y12833D02*
X20722Y12833D01*
X21438Y12833D02*
X30349Y12833D01*
X32851Y12833D02*
X41975Y12833D01*
X14525Y12883D02*
X15548Y12883D01*
X15925Y12883D02*
X16075Y12883D01*
X16452Y12883D02*
X20628Y12883D01*
X21532Y12883D02*
X30349Y12883D01*
X32851Y12883D02*
X41975Y12883D01*
X14525Y12932D02*
X15479Y12932D01*
X15925Y12932D02*
X16075Y12932D01*
X16521Y12932D02*
X20559Y12932D01*
X21601Y12932D02*
X30349Y12932D01*
X32851Y12932D02*
X41975Y12932D01*
X14525Y12982D02*
X15423Y12982D01*
X15925Y12982D02*
X16075Y12982D01*
X16577Y12982D02*
X20503Y12982D01*
X21657Y12982D02*
X30349Y12982D01*
X32851Y12982D02*
X41975Y12982D01*
X14525Y13031D02*
X15367Y13031D01*
X16633Y13031D02*
X20447Y13031D01*
X21713Y13031D02*
X30349Y13031D01*
X32851Y13031D02*
X41975Y13031D01*
X14525Y13081D02*
X15331Y13081D01*
X16669Y13081D02*
X20411Y13081D01*
X21749Y13081D02*
X30349Y13081D01*
X32851Y13081D02*
X41975Y13081D01*
X14525Y13130D02*
X15297Y13130D01*
X16703Y13130D02*
X20377Y13130D01*
X32851Y13130D02*
X41975Y13130D01*
X14525Y13180D02*
X15263Y13180D01*
X16737Y13180D02*
X20343Y13180D01*
X32851Y13180D02*
X41975Y13180D01*
X14525Y13229D02*
X15236Y13229D01*
X16764Y13229D02*
X20316Y13229D01*
X32851Y13229D02*
X41975Y13229D01*
X14525Y13279D02*
X15218Y13279D01*
X16782Y13279D02*
X20298Y13279D01*
X32851Y13279D02*
X41975Y13279D01*
X14525Y13328D02*
X15199Y13328D01*
X16801Y13328D02*
X20279Y13328D01*
X32851Y13328D02*
X41975Y13328D01*
X14525Y13378D02*
X15180Y13378D01*
X16820Y13378D02*
X20260Y13378D01*
X32851Y13378D02*
X41975Y13378D01*
X14525Y13427D02*
X15169Y13427D01*
X16831Y13427D02*
X20249Y13427D01*
X32851Y13427D02*
X41975Y13427D01*
X14525Y13477D02*
X15163Y13477D01*
X16837Y13477D02*
X20243Y13477D01*
X32851Y13477D02*
X41975Y13477D01*
X14525Y13526D02*
X15400Y13526D01*
X16843Y13526D02*
X20237Y13526D01*
X32851Y13526D02*
X41915Y13526D01*
X14525Y13576D02*
X15400Y13576D01*
X16849Y13576D02*
X20231Y13576D01*
X32851Y13576D02*
X41840Y13576D01*
X14525Y13625D02*
X15400Y13625D01*
X16848Y13625D02*
X20232Y13625D01*
X32851Y13625D02*
X41766Y13625D01*
X14525Y13675D02*
X15174Y13675D01*
X16842Y13675D02*
X20238Y13675D01*
X32851Y13675D02*
X41692Y13675D01*
X14525Y13725D02*
X15164Y13725D01*
X16836Y13725D02*
X20244Y13725D01*
X32851Y13725D02*
X41617Y13725D01*
X14525Y13774D02*
X15170Y13774D01*
X16830Y13774D02*
X20250Y13774D01*
X32851Y13774D02*
X41543Y13774D01*
X14525Y13824D02*
X15181Y13824D01*
X16819Y13824D02*
X20261Y13824D01*
X32851Y13824D02*
X41469Y13824D01*
X14525Y13873D02*
X15199Y13873D01*
X16801Y13873D02*
X20279Y13873D01*
X32851Y13873D02*
X41395Y13873D01*
X14525Y13923D02*
X15218Y13923D01*
X16782Y13923D02*
X20298Y13923D01*
X32851Y13923D02*
X41320Y13923D01*
X14525Y13972D02*
X15237Y13972D01*
X16763Y13972D02*
X20317Y13972D01*
X32851Y13972D02*
X41246Y13972D01*
X14525Y14022D02*
X15264Y14022D01*
X16736Y14022D02*
X20344Y14022D01*
X32851Y14022D02*
X41172Y14022D01*
X14525Y14071D02*
X15298Y14071D01*
X16702Y14071D02*
X20378Y14071D01*
X32851Y14071D02*
X41097Y14071D01*
X14525Y14121D02*
X15332Y14121D01*
X16668Y14121D02*
X20412Y14121D01*
X21748Y14121D02*
X30349Y14121D01*
X32851Y14121D02*
X41023Y14121D01*
X14525Y14170D02*
X15369Y14170D01*
X16631Y14170D02*
X20449Y14170D01*
X21711Y14170D02*
X30349Y14170D01*
X32851Y14170D02*
X40949Y14170D01*
X14525Y14220D02*
X15425Y14220D01*
X15925Y14220D02*
X16075Y14220D01*
X16575Y14220D02*
X20505Y14220D01*
X21655Y14220D02*
X30349Y14220D01*
X32851Y14220D02*
X40874Y14220D01*
X14525Y14269D02*
X15481Y14269D01*
X15925Y14269D02*
X16075Y14269D01*
X16519Y14269D02*
X20561Y14269D01*
X21599Y14269D02*
X30349Y14269D01*
X32851Y14269D02*
X40800Y14269D01*
X14525Y14319D02*
X15551Y14319D01*
X15925Y14319D02*
X16075Y14319D01*
X16449Y14319D02*
X20631Y14319D01*
X21529Y14319D02*
X30349Y14319D01*
X32851Y14319D02*
X40726Y14319D01*
X14525Y14368D02*
X15645Y14368D01*
X15925Y14368D02*
X16075Y14368D01*
X16355Y14368D02*
X20725Y14368D01*
X21435Y14368D02*
X30349Y14368D01*
X32851Y14368D02*
X40652Y14368D01*
X14525Y14418D02*
X15786Y14418D01*
X15925Y14418D02*
X16075Y14418D01*
X16214Y14418D02*
X20866Y14418D01*
X21294Y14418D02*
X30349Y14418D01*
X32851Y14418D02*
X40577Y14418D01*
X14525Y14467D02*
X30349Y14467D01*
X32851Y14467D02*
X40503Y14467D01*
X14525Y14517D02*
X30349Y14517D01*
X32851Y14517D02*
X40429Y14517D01*
X14525Y14567D02*
X30353Y14567D01*
X32847Y14567D02*
X40354Y14567D01*
X14525Y14616D02*
X30368Y14616D01*
X32832Y14616D02*
X40280Y14616D01*
X14525Y14666D02*
X30398Y14666D01*
X32802Y14666D02*
X40206Y14666D01*
X14525Y14715D02*
X30453Y14715D01*
X32747Y14715D02*
X40132Y14715D01*
X14525Y14765D02*
X40057Y14765D01*
X14525Y14814D02*
X39983Y14814D01*
X14525Y14864D02*
X39909Y14864D01*
X14525Y14913D02*
X39834Y14913D01*
X14525Y14963D02*
X39760Y14963D01*
X14525Y15012D02*
X39686Y15012D01*
X14525Y15062D02*
X39611Y15062D01*
X14525Y15111D02*
X39537Y15111D01*
X14525Y15161D02*
X39463Y15161D01*
X14525Y15210D02*
X39389Y15210D01*
X14525Y15260D02*
X39314Y15260D01*
X14525Y15309D02*
X39240Y15309D01*
X14525Y15359D02*
X39166Y15359D01*
X14525Y15409D02*
X39091Y15409D01*
X14525Y15458D02*
X39017Y15458D01*
X14525Y15508D02*
X38943Y15508D01*
X14525Y15557D02*
X38869Y15557D01*
X14525Y15607D02*
X38794Y15607D01*
X14525Y15656D02*
X38720Y15656D01*
X14525Y15706D02*
X38646Y15706D01*
X14525Y15755D02*
X38571Y15755D01*
X14525Y15805D02*
X38497Y15805D01*
X14525Y15854D02*
X38423Y15854D01*
X14525Y15904D02*
X38348Y15904D01*
X14525Y15953D02*
X38274Y15953D01*
X14525Y16003D02*
X38200Y16003D01*
X14525Y16052D02*
X38126Y16052D01*
X14525Y16102D02*
X38051Y16102D01*
X14525Y16151D02*
X37977Y16151D01*
X14525Y16201D02*
X37903Y16201D01*
X14525Y16251D02*
X37828Y16251D01*
X14525Y16300D02*
X37754Y16300D01*
X14525Y16350D02*
X37680Y16350D01*
X14525Y16399D02*
X37606Y16399D01*
X14525Y16449D02*
X37531Y16449D01*
%LNpour fill*%
X15975Y4352D02*
X15975Y4352D01*
X15663Y4664*
X15662Y4664*
X15605Y4734*
X15603Y4736*
X15560Y4817*
X15559Y4819*
X15533Y4906*
X15533Y4908*
X15524Y4998*
X15524Y4999*
X15524Y5743*
X15364Y5884*
X15362Y5887*
X15247Y6053*
X15245Y6056*
X15174Y6245*
X15173Y6248*
X15149Y6448*
X15149Y6452*
X15173Y6652*
X15174Y6655*
X15245Y6844*
X15247Y6847*
X15362Y7013*
X15364Y7016*
X15515Y7150*
X15518Y7152*
X15697Y7246*
X15700Y7247*
X15896Y7295*
X15899Y7295*
X15975Y7295*
X15975Y12736*
X15989Y12750*
X16075Y12750*
X16075Y13004*
X15925Y13004*
X15925Y12768*
X15906Y12753*
X15700Y12803*
X15697Y12804*
X15518Y12898*
X15515Y12900*
X15364Y13034*
X15362Y13037*
X15247Y13203*
X15245Y13206*
X15174Y13395*
X15173Y13398*
X15149Y13598*
X15149Y13602*
X15173Y13802*
X15174Y13805*
X15245Y13994*
X15247Y13997*
X15362Y14163*
X15364Y14166*
X15515Y14300*
X15518Y14302*
X15697Y14396*
X15700Y14397*
X15906Y14447*
X15925Y14432*
X15925Y14196*
X16075Y14196*
X16075Y14450*
X15989Y14450*
X15975Y14464*
X15975Y16475*
X0525Y16475*
X0525Y12270*
X0576Y12252*
X0597Y12277*
X0598Y12278*
X0699Y12361*
X0701Y12362*
X0815Y12424*
X0818Y12424*
X0942Y12462*
X0944Y12463*
X1073Y12475*
X1074Y12475*
X1336Y12475*
X1350Y12461*
X1350Y12225*
X1500Y12225*
X1500Y12461*
X1514Y12475*
X1776Y12475*
X1777Y12475*
X1906Y12463*
X1908Y12462*
X2032Y12424*
X2035Y12424*
X2149Y12362*
X2151Y12361*
X2252Y12278*
X2253Y12277*
X2336Y12176*
X2337Y12174*
X2399Y12060*
X2399Y12057*
X2437Y11933*
X2438Y11931*
X2442Y11891*
X2426Y11875*
X2200Y11875*
X2200Y11725*
X2426Y11725*
X2442Y11709*
X2438Y11669*
X2437Y11667*
X2399Y11543*
X2399Y11540*
X2337Y11426*
X2336Y11424*
X2253Y11323*
X2252Y11322*
X2151Y11239*
X2149Y11238*
X2035Y11176*
X2032Y11176*
X1908Y11138*
X1906Y11137*
X1777Y11125*
X1776Y11125*
X1514Y11125*
X1500Y11139*
X1500Y11375*
X1350Y11375*
X1350Y11139*
X1336Y11125*
X1074Y11125*
X1073Y11125*
X0944Y11137*
X0942Y11138*
X0818Y11176*
X0815Y11176*
X0701Y11238*
X0699Y11239*
X0598Y11322*
X0597Y11323*
X0576Y11348*
X0525Y11330*
X0525Y10876*
X1336Y10876*
X1350Y10862*
X1350Y10625*
X1500Y10625*
X1500Y10862*
X1514Y10876*
X2375Y10876*
X2376Y10876*
X2409Y10874*
X2411Y10873*
X2444Y10866*
X2446Y10865*
X2477Y10852*
X2479Y10851*
X2507Y10834*
X2509Y10833*
X2534Y10811*
X2536Y10809*
X2558Y10784*
X2559Y10782*
X2576Y10754*
X2577Y10752*
X2590Y10721*
X2591Y10719*
X2598Y10686*
X2599Y10684*
X2601Y10651*
X2601Y10650*
X2601Y9789*
X2587Y9775*
X2350Y9775*
X2350Y9625*
X2587Y9625*
X2601Y9611*
X2601Y8750*
X2601Y8749*
X2599Y8716*
X2598Y8714*
X2591Y8681*
X2590Y8679*
X2577Y8648*
X2576Y8646*
X2559Y8618*
X2558Y8616*
X2536Y8591*
X2534Y8589*
X2509Y8567*
X2507Y8566*
X2479Y8549*
X2477Y8548*
X2423Y8525*
X2423Y8475*
X2477Y8452*
X2479Y8451*
X2507Y8434*
X2509Y8433*
X2534Y8411*
X2536Y8409*
X2558Y8384*
X2559Y8382*
X2576Y8354*
X2577Y8352*
X2590Y8321*
X2591Y8319*
X2598Y8286*
X2599Y8284*
X2601Y8251*
X2601Y8250*
X2601Y7389*
X2587Y7375*
X2350Y7375*
X2350Y7225*
X2587Y7225*
X2601Y7211*
X2601Y6350*
X2601Y6349*
X2599Y6316*
X2598Y6314*
X2591Y6281*
X2590Y6279*
X2577Y6248*
X2576Y6246*
X2559Y6218*
X2558Y6216*
X2536Y6191*
X2534Y6189*
X2509Y6167*
X2507Y6166*
X2479Y6149*
X2477Y6148*
X2446Y6135*
X2444Y6134*
X2411Y6127*
X2409Y6126*
X2377Y6124*
X2376Y6124*
X1514Y6124*
X1500Y6138*
X1500Y6375*
X1350Y6375*
X1350Y6138*
X1336Y6124*
X0525Y6124*
X0525Y5670*
X0576Y5652*
X0597Y5677*
X0598Y5678*
X0699Y5761*
X0701Y5762*
X0815Y5824*
X0818Y5824*
X0942Y5862*
X0944Y5863*
X1073Y5875*
X1074Y5875*
X1336Y5875*
X1350Y5861*
X1350Y5625*
X1500Y5625*
X1500Y5861*
X1514Y5875*
X1776Y5875*
X1777Y5875*
X1906Y5863*
X1908Y5862*
X2032Y5824*
X2035Y5824*
X2149Y5762*
X2151Y5761*
X2252Y5678*
X2253Y5677*
X2336Y5576*
X2337Y5574*
X2399Y5460*
X2399Y5457*
X2437Y5333*
X2438Y5331*
X2442Y5291*
X2426Y5275*
X2200Y5275*
X2200Y5125*
X2426Y5125*
X2442Y5109*
X2438Y5069*
X2437Y5067*
X2399Y4943*
X2399Y4940*
X2337Y4826*
X2336Y4824*
X2253Y4723*
X2252Y4722*
X2151Y4639*
X2149Y4638*
X2035Y4576*
X2032Y4576*
X1908Y4538*
X1906Y4537*
X1777Y4525*
X1776Y4525*
X1514Y4525*
X1500Y4539*
X1500Y4775*
X1350Y4775*
X1350Y4539*
X1336Y4525*
X1074Y4525*
X1073Y4525*
X0944Y4537*
X0942Y4538*
X0818Y4576*
X0815Y4576*
X0701Y4638*
X0699Y4639*
X0598Y4722*
X0597Y4723*
X0576Y4748*
X0525Y4730*
X0525Y0525*
X15975Y0525*
X15975Y4352*
X9007Y5599D02*
X9007Y5599D01*
X9039Y5601*
X9041Y5602*
X9074Y5609*
X9076Y5610*
X9107Y5623*
X9109Y5624*
X9137Y5641*
X9139Y5642*
X9164Y5664*
X9166Y5666*
X9188Y5691*
X9189Y5693*
X9206Y5721*
X9207Y5723*
X9220Y5754*
X9221Y5756*
X9228Y5789*
X9229Y5791*
X9231Y5824*
X9231Y5825*
X9231Y7075*
X9231Y7076*
X9229Y7109*
X9228Y7111*
X9221Y7144*
X9220Y7146*
X9207Y7177*
X9206Y7179*
X9189Y7207*
X9188Y7209*
X9166Y7234*
X9164Y7236*
X9139Y7258*
X9137Y7259*
X9109Y7276*
X9107Y7277*
X9076Y7290*
X9074Y7291*
X9041Y7298*
X9039Y7299*
X9006Y7301*
X9005Y7301*
X8856Y7301*
X8856Y8701*
X8856Y8702*
X8847Y8792*
X8847Y8794*
X8821Y8881*
X8820Y8883*
X8777Y8964*
X8775Y8966*
X8718Y9036*
X8717Y9036*
X7954Y9800*
X8717Y10564*
X8718Y10564*
X8775Y10634*
X8777Y10636*
X8820Y10717*
X8821Y10719*
X8847Y10806*
X8847Y10808*
X8856Y10898*
X8856Y10899*
X8856Y12749*
X9006Y12749*
X9007Y12749*
X9039Y12751*
X9041Y12752*
X9074Y12759*
X9076Y12760*
X9107Y12773*
X9109Y12774*
X9137Y12791*
X9139Y12792*
X9164Y12814*
X9166Y12816*
X9188Y12841*
X9189Y12843*
X9206Y12871*
X9207Y12873*
X9220Y12904*
X9221Y12906*
X9228Y12939*
X9229Y12941*
X9231Y12974*
X9231Y12975*
X9231Y14225*
X9231Y14226*
X9229Y14259*
X9228Y14261*
X9221Y14294*
X9220Y14296*
X9207Y14327*
X9206Y14329*
X9189Y14357*
X9188Y14359*
X9166Y14384*
X9164Y14386*
X9139Y14408*
X9137Y14409*
X9109Y14426*
X9107Y14427*
X9076Y14440*
X9074Y14441*
X9041Y14448*
X9039Y14449*
X9006Y14451*
X9005Y14451*
X7755Y14451*
X7754Y14451*
X7721Y14449*
X7719Y14448*
X7686Y14441*
X7684Y14440*
X7653Y14427*
X7651Y14426*
X7623Y14409*
X7621Y14408*
X7596Y14386*
X7594Y14384*
X7572Y14359*
X7571Y14357*
X7554Y14329*
X7553Y14327*
X7540Y14296*
X7539Y14294*
X7532Y14261*
X7531Y14259*
X7529Y14227*
X7529Y14226*
X7529Y12974*
X7529Y12973*
X7531Y12941*
X7532Y12939*
X7539Y12906*
X7540Y12904*
X7553Y12873*
X7554Y12871*
X7571Y12843*
X7572Y12841*
X7594Y12816*
X7596Y12814*
X7621Y12792*
X7623Y12791*
X7651Y12774*
X7653Y12773*
X7684Y12760*
X7686Y12759*
X7719Y12752*
X7721Y12751*
X7753Y12749*
X7754Y12749*
X7904Y12749*
X7904Y11097*
X7083Y10276*
X4099Y10276*
X4098Y10276*
X4008Y10267*
X4006Y10267*
X3919Y10241*
X3917Y10240*
X3892Y10226*
X3425Y10226*
X3424Y10226*
X3391Y10224*
X3389Y10223*
X3356Y10216*
X3354Y10215*
X3323Y10202*
X3321Y10201*
X3293Y10184*
X3291Y10183*
X3266Y10161*
X3264Y10159*
X3242Y10134*
X3241Y10132*
X3224Y10104*
X3223Y10102*
X3210Y10071*
X3209Y10069*
X3202Y10036*
X3201Y10034*
X3199Y10002*
X3199Y10001*
X3199Y9599*
X3199Y9598*
X3201Y9566*
X3202Y9564*
X3209Y9531*
X3210Y9529*
X3223Y9498*
X3224Y9496*
X3237Y9475*
X3224Y9454*
X3223Y9452*
X3210Y9421*
X3209Y9419*
X3202Y9386*
X3201Y9384*
X3199Y9352*
X3199Y9351*
X3199Y8949*
X3199Y8948*
X3201Y8916*
X3202Y8914*
X3209Y8881*
X3210Y8879*
X3223Y8848*
X3224Y8846*
X3237Y8825*
X3224Y8804*
X3223Y8802*
X3210Y8771*
X3209Y8769*
X3202Y8736*
X3201Y8734*
X3199Y8702*
X3199Y8701*
X3199Y8299*
X3199Y8298*
X3201Y8266*
X3202Y8264*
X3209Y8231*
X3210Y8229*
X3223Y8198*
X3224Y8196*
X3237Y8175*
X3224Y8154*
X3223Y8152*
X3210Y8121*
X3209Y8119*
X3202Y8086*
X3201Y8084*
X3199Y8052*
X3199Y8051*
X3199Y7649*
X3199Y7648*
X3201Y7616*
X3202Y7614*
X3209Y7581*
X3210Y7579*
X3223Y7548*
X3224Y7546*
X3237Y7525*
X3224Y7504*
X3223Y7502*
X3210Y7471*
X3209Y7469*
X3202Y7436*
X3201Y7434*
X3199Y7402*
X3199Y7401*
X3199Y7289*
X3213Y7275*
X3450Y7275*
X3450Y7125*
X3213Y7125*
X3199Y7111*
X3199Y6999*
X3199Y6998*
X3201Y6966*
X3202Y6964*
X3209Y6931*
X3210Y6929*
X3223Y6898*
X3224Y6896*
X3241Y6868*
X3242Y6866*
X3264Y6841*
X3266Y6839*
X3291Y6817*
X3293Y6816*
X3321Y6799*
X3323Y6798*
X3354Y6785*
X3356Y6784*
X3389Y6777*
X3391Y6776*
X3423Y6774*
X3424Y6774*
X4011Y6774*
X4025Y6788*
X4025Y7025*
X4175Y7025*
X4175Y6788*
X4189Y6774*
X4776Y6774*
X4777Y6774*
X4809Y6776*
X4811Y6777*
X4844Y6784*
X4846Y6785*
X4877Y6798*
X4879Y6799*
X4907Y6816*
X4909Y6817*
X4934Y6839*
X4936Y6841*
X4958Y6866*
X4959Y6868*
X4976Y6896*
X4977Y6898*
X4990Y6929*
X4991Y6931*
X4998Y6964*
X4999Y6966*
X5001Y6999*
X5001Y7000*
X5001Y7111*
X4987Y7125*
X4750Y7125*
X4750Y7275*
X4987Y7275*
X5001Y7289*
X5001Y7400*
X5001Y7401*
X4999Y7434*
X4998Y7436*
X4991Y7469*
X4990Y7471*
X4977Y7502*
X4976Y7504*
X4963Y7525*
X4976Y7546*
X4977Y7548*
X4990Y7579*
X4991Y7581*
X4998Y7614*
X4999Y7616*
X5001Y7649*
X5001Y7650*
X5001Y8050*
X5001Y8051*
X4999Y8084*
X4998Y8086*
X4991Y8119*
X4990Y8121*
X4977Y8152*
X4976Y8154*
X4963Y8175*
X4976Y8196*
X4977Y8198*
X4990Y8229*
X4991Y8231*
X4998Y8264*
X4999Y8266*
X5001Y8299*
X5001Y8300*
X5001Y8700*
X5001Y8701*
X4999Y8734*
X4998Y8736*
X4991Y8769*
X4990Y8771*
X4977Y8802*
X4976Y8804*
X4963Y8825*
X4976Y8846*
X4977Y8848*
X4990Y8879*
X4991Y8881*
X4998Y8914*
X4999Y8916*
X5001Y8949*
X5001Y8950*
X5001Y9324*
X7083Y9324*
X7904Y8503*
X7904Y7301*
X7755Y7301*
X7754Y7301*
X7721Y7299*
X7719Y7298*
X7686Y7291*
X7684Y7290*
X7653Y7277*
X7651Y7276*
X7623Y7259*
X7621Y7258*
X7596Y7236*
X7594Y7234*
X7572Y7209*
X7571Y7207*
X7554Y7179*
X7553Y7177*
X7540Y7146*
X7539Y7144*
X7532Y7111*
X7531Y7109*
X7529Y7077*
X7529Y7076*
X7529Y5824*
X7529Y5823*
X7531Y5791*
X7532Y5789*
X7539Y5756*
X7540Y5754*
X7553Y5723*
X7554Y5721*
X7571Y5693*
X7572Y5691*
X7594Y5666*
X7596Y5664*
X7621Y5642*
X7623Y5641*
X7651Y5624*
X7653Y5623*
X7684Y5610*
X7686Y5609*
X7719Y5602*
X7721Y5601*
X7753Y5599*
X7754Y5599*
X9006Y5599*
X9007Y5599*
X10845Y12768D02*
X10845Y12768D01*
X10845Y13004*
X10995Y13004*
X10995Y12768*
X11014Y12753*
X11220Y12803*
X11223Y12804*
X11402Y12898*
X11405Y12900*
X11556Y13034*
X11558Y13037*
X11673Y13203*
X11675Y13206*
X11746Y13395*
X11747Y13398*
X11771Y13598*
X11771Y13602*
X11747Y13802*
X11746Y13805*
X11675Y13994*
X11673Y13997*
X11558Y14163*
X11556Y14166*
X11405Y14300*
X11402Y14302*
X11223Y14396*
X11220Y14397*
X11014Y14447*
X10995Y14432*
X10995Y14196*
X10845Y14196*
X10845Y14432*
X10826Y14447*
X10620Y14397*
X10617Y14396*
X10438Y14302*
X10435Y14300*
X10284Y14166*
X10282Y14163*
X10167Y13997*
X10165Y13994*
X10094Y13805*
X10093Y13802*
X10080Y13692*
X10095Y13675*
X10320Y13675*
X10320Y13525*
X10095Y13525*
X10080Y13508*
X10093Y13398*
X10094Y13395*
X10165Y13206*
X10167Y13203*
X10282Y13037*
X10284Y13034*
X10435Y12900*
X10438Y12898*
X10617Y12804*
X10620Y12803*
X10826Y12753*
X10845Y12768*
X3800Y10688D02*
X3800Y10688D01*
X3800Y10925*
X3950Y10925*
X3950Y10688*
X3964Y10674*
X4576Y10674*
X4577Y10674*
X4609Y10676*
X4611Y10677*
X4644Y10684*
X4646Y10685*
X4677Y10698*
X4679Y10699*
X4707Y10716*
X4709Y10717*
X4734Y10739*
X4736Y10741*
X4758Y10766*
X4759Y10768*
X4776Y10796*
X4777Y10798*
X4790Y10829*
X4791Y10831*
X4798Y10864*
X4799Y10866*
X4801Y10899*
X4801Y10900*
X4801Y11611*
X4787Y11625*
X4550Y11625*
X4550Y11775*
X4787Y11775*
X4801Y11789*
X4801Y12500*
X4801Y12501*
X4799Y12534*
X4798Y12536*
X4791Y12569*
X4790Y12571*
X4777Y12602*
X4776Y12604*
X4759Y12632*
X4758Y12634*
X4736Y12659*
X4734Y12661*
X4709Y12683*
X4707Y12684*
X4679Y12701*
X4677Y12702*
X4646Y12715*
X4644Y12716*
X4611Y12723*
X4609Y12724*
X4576Y12726*
X4575Y12726*
X3964Y12726*
X3950Y12712*
X3950Y12475*
X3800Y12475*
X3800Y12712*
X3786Y12726*
X3175Y12726*
X3174Y12726*
X3141Y12724*
X3139Y12723*
X3106Y12716*
X3104Y12715*
X3073Y12702*
X3071Y12701*
X3043Y12684*
X3041Y12683*
X3016Y12661*
X3014Y12659*
X2992Y12634*
X2991Y12632*
X2974Y12604*
X2973Y12602*
X2960Y12571*
X2959Y12569*
X2952Y12536*
X2951Y12534*
X2949Y12502*
X2949Y12501*
X2949Y11789*
X2963Y11775*
X3200Y11775*
X3200Y11625*
X2963Y11625*
X2949Y11611*
X2949Y10899*
X2949Y10898*
X2951Y10866*
X2952Y10864*
X2959Y10831*
X2960Y10829*
X2973Y10798*
X2974Y10796*
X2991Y10768*
X2992Y10766*
X3014Y10741*
X3016Y10739*
X3041Y10717*
X3043Y10716*
X3071Y10699*
X3073Y10698*
X3104Y10685*
X3106Y10684*
X3139Y10677*
X3141Y10676*
X3173Y10674*
X3174Y10674*
X3786Y10674*
X3800Y10688*
X10845Y5618D02*
X10845Y5618D01*
X10845Y5854*
X10995Y5854*
X10995Y5618*
X11014Y5603*
X11220Y5653*
X11223Y5654*
X11402Y5748*
X11405Y5750*
X11556Y5884*
X11558Y5887*
X11673Y6053*
X11675Y6056*
X11746Y6245*
X11747Y6248*
X11771Y6448*
X11771Y6452*
X11747Y6652*
X11746Y6655*
X11675Y6844*
X11673Y6847*
X11558Y7013*
X11556Y7016*
X11405Y7150*
X11402Y7152*
X11223Y7246*
X11220Y7247*
X11014Y7297*
X10995Y7282*
X10995Y7046*
X10845Y7046*
X10845Y7282*
X10826Y7297*
X10620Y7247*
X10617Y7246*
X10438Y7152*
X10435Y7150*
X10284Y7016*
X10282Y7013*
X10167Y6847*
X10165Y6844*
X10094Y6655*
X10093Y6652*
X10080Y6542*
X10095Y6525*
X10320Y6525*
X10320Y6375*
X10095Y6375*
X10080Y6358*
X10093Y6248*
X10094Y6245*
X10165Y6056*
X10167Y6053*
X10282Y5887*
X10284Y5884*
X10435Y5750*
X10438Y5748*
X10617Y5654*
X10620Y5653*
X10826Y5603*
X10845Y5618*
X3800Y4288D02*
X3800Y4288D01*
X3800Y4525*
X3950Y4525*
X3950Y4288*
X3964Y4274*
X4576Y4274*
X4577Y4274*
X4609Y4276*
X4611Y4277*
X4644Y4284*
X4646Y4285*
X4677Y4298*
X4679Y4299*
X4707Y4316*
X4709Y4317*
X4734Y4339*
X4736Y4341*
X4758Y4366*
X4759Y4368*
X4776Y4396*
X4777Y4398*
X4790Y4429*
X4791Y4431*
X4798Y4464*
X4799Y4466*
X4801Y4499*
X4801Y4500*
X4801Y5211*
X4787Y5225*
X4550Y5225*
X4550Y5375*
X4787Y5375*
X4801Y5389*
X4801Y6100*
X4801Y6101*
X4799Y6134*
X4798Y6136*
X4791Y6169*
X4790Y6171*
X4777Y6202*
X4776Y6204*
X4759Y6232*
X4758Y6234*
X4736Y6259*
X4734Y6261*
X4709Y6283*
X4707Y6284*
X4679Y6301*
X4677Y6302*
X4646Y6315*
X4644Y6316*
X4611Y6323*
X4609Y6324*
X4576Y6326*
X4575Y6326*
X3964Y6326*
X3950Y6312*
X3950Y6075*
X3800Y6075*
X3800Y6312*
X3786Y6326*
X3175Y6326*
X3174Y6326*
X3141Y6324*
X3139Y6323*
X3106Y6316*
X3104Y6315*
X3073Y6302*
X3071Y6301*
X3043Y6284*
X3041Y6283*
X3016Y6261*
X3014Y6259*
X2992Y6234*
X2991Y6232*
X2974Y6204*
X2973Y6202*
X2960Y6171*
X2959Y6169*
X2952Y6136*
X2951Y6134*
X2949Y6102*
X2949Y6101*
X2949Y5389*
X2963Y5375*
X3200Y5375*
X3200Y5225*
X2963Y5225*
X2949Y5211*
X2949Y4499*
X2949Y4498*
X2951Y4466*
X2952Y4464*
X2959Y4431*
X2960Y4429*
X2973Y4398*
X2974Y4396*
X2991Y4368*
X2992Y4366*
X3014Y4341*
X3016Y4339*
X3041Y4317*
X3043Y4316*
X3071Y4299*
X3073Y4298*
X3104Y4285*
X3106Y4284*
X3139Y4277*
X3141Y4276*
X3173Y4274*
X3174Y4274*
X3786Y4274*
X3800Y4288*
X0525Y0550D02*
X15975Y0550D01*
X0525Y0599D02*
X15975Y0599D01*
X0525Y0649D02*
X15975Y0649D01*
X0525Y0698D02*
X15975Y0698D01*
X0525Y0748D02*
X15975Y0748D01*
X0525Y0797D02*
X15975Y0797D01*
X0525Y0847D02*
X15975Y0847D01*
X0525Y0896D02*
X15975Y0896D01*
X0525Y0946D02*
X15975Y0946D01*
X0525Y0995D02*
X15975Y0995D01*
X0525Y1045D02*
X15975Y1045D01*
X0525Y1094D02*
X15975Y1094D01*
X0525Y1144D02*
X15975Y1144D01*
X0525Y1193D02*
X15975Y1193D01*
X0525Y1243D02*
X15975Y1243D01*
X0525Y1292D02*
X15975Y1292D01*
X0525Y1342D02*
X15975Y1342D01*
X0525Y1392D02*
X15975Y1392D01*
X0525Y1441D02*
X15975Y1441D01*
X0525Y1491D02*
X15975Y1491D01*
X0525Y1540D02*
X15975Y1540D01*
X0525Y1590D02*
X15975Y1590D01*
X0525Y1639D02*
X15975Y1639D01*
X0525Y1689D02*
X15975Y1689D01*
X0525Y1738D02*
X15975Y1738D01*
X0525Y1788D02*
X15975Y1788D01*
X0525Y1837D02*
X15975Y1837D01*
X0525Y1887D02*
X15975Y1887D01*
X0525Y1936D02*
X15975Y1936D01*
X0525Y1986D02*
X15975Y1986D01*
X0525Y2035D02*
X15975Y2035D01*
X0525Y2085D02*
X15975Y2085D01*
X0525Y2134D02*
X15975Y2134D01*
X0525Y2184D02*
X15975Y2184D01*
X0525Y2234D02*
X15975Y2234D01*
X0525Y2283D02*
X15975Y2283D01*
X0525Y2333D02*
X15975Y2333D01*
X0525Y2382D02*
X15975Y2382D01*
X0525Y2432D02*
X15975Y2432D01*
X0525Y2481D02*
X15975Y2481D01*
X0525Y2531D02*
X15975Y2531D01*
X0525Y2580D02*
X15975Y2580D01*
X0525Y2630D02*
X15975Y2630D01*
X0525Y2679D02*
X15975Y2679D01*
X0525Y2729D02*
X15975Y2729D01*
X0525Y2778D02*
X15975Y2778D01*
X0525Y2828D02*
X15975Y2828D01*
X0525Y2877D02*
X15975Y2877D01*
X0525Y2927D02*
X15975Y2927D01*
X0525Y2977D02*
X15975Y2977D01*
X0525Y3026D02*
X15975Y3026D01*
X0525Y3076D02*
X15975Y3076D01*
X0525Y3125D02*
X15975Y3125D01*
X0525Y3175D02*
X15975Y3175D01*
X0525Y3224D02*
X15975Y3224D01*
X0525Y3274D02*
X15975Y3274D01*
X0525Y3323D02*
X15975Y3323D01*
X0525Y3373D02*
X15975Y3373D01*
X0525Y3422D02*
X15975Y3422D01*
X0525Y3472D02*
X15975Y3472D01*
X0525Y3521D02*
X15975Y3521D01*
X0525Y3571D02*
X15975Y3571D01*
X0525Y3620D02*
X15975Y3620D01*
X0525Y3670D02*
X15975Y3670D01*
X0525Y3719D02*
X15975Y3719D01*
X0525Y3769D02*
X15975Y3769D01*
X0525Y3819D02*
X15975Y3819D01*
X0525Y3868D02*
X15975Y3868D01*
X0525Y3918D02*
X15975Y3918D01*
X0525Y3967D02*
X15975Y3967D01*
X0525Y4017D02*
X15975Y4017D01*
X0525Y4066D02*
X15975Y4066D01*
X0525Y4116D02*
X15975Y4116D01*
X0525Y4165D02*
X15975Y4165D01*
X0525Y4215D02*
X15975Y4215D01*
X0525Y4264D02*
X15975Y4264D01*
X0525Y4314D02*
X3047Y4314D01*
X3800Y4314D02*
X3950Y4314D01*
X4703Y4314D02*
X15975Y4314D01*
X0525Y4363D02*
X2995Y4363D01*
X3800Y4363D02*
X3950Y4363D01*
X4755Y4363D02*
X15963Y4363D01*
X0525Y4413D02*
X2967Y4413D01*
X3800Y4413D02*
X3950Y4413D01*
X4783Y4413D02*
X15913Y4413D01*
X0525Y4462D02*
X2952Y4462D01*
X3800Y4462D02*
X3950Y4462D01*
X4798Y4462D02*
X15864Y4462D01*
X0525Y4512D02*
X2949Y4512D01*
X3800Y4512D02*
X3950Y4512D01*
X4801Y4512D02*
X15814Y4512D01*
X0525Y4561D02*
X0864Y4561D01*
X1350Y4561D02*
X1500Y4561D01*
X1986Y4561D02*
X2949Y4561D01*
X4801Y4561D02*
X15765Y4561D01*
X0525Y4611D02*
X0751Y4611D01*
X1350Y4611D02*
X1500Y4611D01*
X2099Y4611D02*
X2949Y4611D01*
X4801Y4611D02*
X15715Y4611D01*
X0525Y4661D02*
X0673Y4661D01*
X1350Y4661D02*
X1500Y4661D01*
X2177Y4661D02*
X2949Y4661D01*
X4801Y4661D02*
X15666Y4661D01*
X0525Y4710D02*
X0612Y4710D01*
X1350Y4710D02*
X1500Y4710D01*
X2238Y4710D02*
X2949Y4710D01*
X4801Y4710D02*
X15624Y4710D01*
X1350Y4760D02*
X1500Y4760D01*
X2283Y4760D02*
X2949Y4760D01*
X4801Y4760D02*
X15591Y4760D01*
X2324Y4809D02*
X2949Y4809D01*
X4801Y4809D02*
X15564Y4809D01*
X2355Y4859D02*
X2949Y4859D01*
X4801Y4859D02*
X15547Y4859D01*
X2381Y4908D02*
X2949Y4908D01*
X4801Y4908D02*
X15533Y4908D01*
X2404Y4958D02*
X2949Y4958D01*
X4801Y4958D02*
X15528Y4958D01*
X2419Y5007D02*
X2949Y5007D01*
X4801Y5007D02*
X15524Y5007D01*
X2434Y5057D02*
X2949Y5057D01*
X4801Y5057D02*
X15524Y5057D01*
X2441Y5106D02*
X2949Y5106D01*
X4801Y5106D02*
X15524Y5106D01*
X2200Y5156D02*
X2949Y5156D01*
X4801Y5156D02*
X15524Y5156D01*
X2200Y5205D02*
X2949Y5205D01*
X4801Y5205D02*
X15524Y5205D01*
X2200Y5255D02*
X3200Y5255D01*
X4550Y5255D02*
X15524Y5255D01*
X2440Y5304D02*
X3200Y5304D01*
X4550Y5304D02*
X15524Y5304D01*
X2431Y5354D02*
X3200Y5354D01*
X4550Y5354D02*
X15524Y5354D01*
X2416Y5403D02*
X2949Y5403D01*
X4801Y5403D02*
X15524Y5403D01*
X2401Y5453D02*
X2949Y5453D01*
X4801Y5453D02*
X15524Y5453D01*
X2376Y5503D02*
X2949Y5503D01*
X4801Y5503D02*
X15524Y5503D01*
X2349Y5552D02*
X2949Y5552D01*
X4801Y5552D02*
X15524Y5552D01*
X2315Y5602D02*
X2949Y5602D01*
X4801Y5602D02*
X7718Y5602D01*
X9042Y5602D02*
X15524Y5602D01*
X1350Y5651D02*
X1500Y5651D01*
X2274Y5651D02*
X2949Y5651D01*
X4801Y5651D02*
X7611Y5651D01*
X9149Y5651D02*
X10629Y5651D01*
X10845Y5651D02*
X10995Y5651D01*
X11211Y5651D02*
X15524Y5651D01*
X0525Y5701D02*
X0625Y5701D01*
X1350Y5701D02*
X1500Y5701D01*
X2225Y5701D02*
X2949Y5701D01*
X4801Y5701D02*
X7566Y5701D01*
X9194Y5701D02*
X10529Y5701D01*
X10845Y5701D02*
X10995Y5701D01*
X11311Y5701D02*
X15524Y5701D01*
X0525Y5750D02*
X0686Y5750D01*
X1350Y5750D02*
X1500Y5750D01*
X2164Y5750D02*
X2949Y5750D01*
X4801Y5750D02*
X7542Y5750D01*
X9218Y5750D02*
X10435Y5750D01*
X10845Y5750D02*
X10995Y5750D01*
X11405Y5750D02*
X15515Y5750D01*
X0525Y5800D02*
X0771Y5800D01*
X1350Y5800D02*
X1500Y5800D01*
X2079Y5800D02*
X2949Y5800D01*
X4801Y5800D02*
X7531Y5800D01*
X9229Y5800D02*
X10379Y5800D01*
X10845Y5800D02*
X10995Y5800D01*
X11461Y5800D02*
X15459Y5800D01*
X0525Y5849D02*
X0899Y5849D01*
X1350Y5849D02*
X1500Y5849D01*
X1951Y5849D02*
X2949Y5849D01*
X4801Y5849D02*
X7529Y5849D01*
X9231Y5849D02*
X10323Y5849D01*
X10845Y5849D02*
X10995Y5849D01*
X11517Y5849D02*
X15403Y5849D01*
X0525Y5899D02*
X2949Y5899D01*
X4801Y5899D02*
X7529Y5899D01*
X9231Y5899D02*
X10273Y5899D01*
X11567Y5899D02*
X15353Y5899D01*
X0525Y5948D02*
X2949Y5948D01*
X4801Y5948D02*
X7529Y5948D01*
X9231Y5948D02*
X10239Y5948D01*
X11601Y5948D02*
X15319Y5948D01*
X0525Y5998D02*
X2949Y5998D01*
X4801Y5998D02*
X7529Y5998D01*
X9231Y5998D02*
X10205Y5998D01*
X11635Y5998D02*
X15285Y5998D01*
X0525Y6047D02*
X2949Y6047D01*
X4801Y6047D02*
X7529Y6047D01*
X9231Y6047D02*
X10171Y6047D01*
X11669Y6047D02*
X15251Y6047D01*
X0525Y6097D02*
X2949Y6097D01*
X3800Y6097D02*
X3950Y6097D01*
X4801Y6097D02*
X7529Y6097D01*
X9231Y6097D02*
X10150Y6097D01*
X11690Y6097D02*
X15230Y6097D01*
X1350Y6146D02*
X1500Y6146D01*
X2474Y6146D02*
X2954Y6146D01*
X3800Y6146D02*
X3950Y6146D01*
X4796Y6146D02*
X7529Y6146D01*
X9231Y6146D02*
X10131Y6146D01*
X11709Y6146D02*
X15211Y6146D01*
X1350Y6196D02*
X1500Y6196D01*
X2540Y6196D02*
X2970Y6196D01*
X3800Y6196D02*
X3950Y6196D01*
X4780Y6196D02*
X7529Y6196D01*
X9231Y6196D02*
X10112Y6196D01*
X11728Y6196D02*
X15192Y6196D01*
X1350Y6245D02*
X1500Y6245D01*
X2576Y6245D02*
X3002Y6245D01*
X3800Y6245D02*
X3950Y6245D01*
X4748Y6245D02*
X7529Y6245D01*
X9231Y6245D02*
X10094Y6245D01*
X11746Y6245D02*
X15174Y6245D01*
X1350Y6295D02*
X1500Y6295D01*
X2594Y6295D02*
X3061Y6295D01*
X3800Y6295D02*
X3950Y6295D01*
X4689Y6295D02*
X7529Y6295D01*
X9231Y6295D02*
X10087Y6295D01*
X11753Y6295D02*
X15167Y6295D01*
X1350Y6345D02*
X1500Y6345D01*
X2601Y6345D02*
X7529Y6345D01*
X9231Y6345D02*
X10081Y6345D01*
X11759Y6345D02*
X15161Y6345D01*
X2601Y6394D02*
X7529Y6394D01*
X9231Y6394D02*
X10320Y6394D01*
X11765Y6394D02*
X15155Y6394D01*
X2601Y6444D02*
X7529Y6444D01*
X9231Y6444D02*
X10320Y6444D01*
X11771Y6444D02*
X15149Y6444D01*
X2601Y6493D02*
X7529Y6493D01*
X9231Y6493D02*
X10320Y6493D01*
X11766Y6493D02*
X15154Y6493D01*
X2601Y6543D02*
X7529Y6543D01*
X9231Y6543D02*
X10080Y6543D01*
X11760Y6543D02*
X15160Y6543D01*
X2601Y6592D02*
X7529Y6592D01*
X9231Y6592D02*
X10086Y6592D01*
X11754Y6592D02*
X15166Y6592D01*
X2601Y6642D02*
X7529Y6642D01*
X9231Y6642D02*
X10092Y6642D01*
X11748Y6642D02*
X15172Y6642D01*
X2601Y6691D02*
X7529Y6691D01*
X9231Y6691D02*
X10107Y6691D01*
X11733Y6691D02*
X15187Y6691D01*
X2601Y6741D02*
X7529Y6741D01*
X9231Y6741D02*
X10126Y6741D01*
X11714Y6741D02*
X15206Y6741D01*
X2601Y6790D02*
X3341Y6790D01*
X4025Y6790D02*
X4175Y6790D01*
X4859Y6790D02*
X7529Y6790D01*
X9231Y6790D02*
X10145Y6790D01*
X11695Y6790D02*
X15225Y6790D01*
X2601Y6840D02*
X3265Y6840D01*
X4025Y6840D02*
X4175Y6840D01*
X4935Y6840D02*
X7529Y6840D01*
X9231Y6840D02*
X10164Y6840D01*
X11676Y6840D02*
X15244Y6840D01*
X2601Y6889D02*
X3228Y6889D01*
X4025Y6889D02*
X4175Y6889D01*
X4972Y6889D02*
X7529Y6889D01*
X9231Y6889D02*
X10196Y6889D01*
X11644Y6889D02*
X15276Y6889D01*
X2601Y6939D02*
X3207Y6939D01*
X4025Y6939D02*
X4175Y6939D01*
X4993Y6939D02*
X7529Y6939D01*
X9231Y6939D02*
X10230Y6939D01*
X11610Y6939D02*
X15310Y6939D01*
X2601Y6988D02*
X3199Y6988D01*
X4025Y6988D02*
X4175Y6988D01*
X5001Y6988D02*
X7529Y6988D01*
X9231Y6988D02*
X10264Y6988D01*
X11576Y6988D02*
X15344Y6988D01*
X2601Y7038D02*
X3199Y7038D01*
X5001Y7038D02*
X7529Y7038D01*
X9231Y7038D02*
X10309Y7038D01*
X11531Y7038D02*
X15389Y7038D01*
X2601Y7087D02*
X3199Y7087D01*
X5001Y7087D02*
X7530Y7087D01*
X9230Y7087D02*
X10365Y7087D01*
X10845Y7087D02*
X10995Y7087D01*
X11475Y7087D02*
X15445Y7087D01*
X2601Y7137D02*
X3450Y7137D01*
X4750Y7137D02*
X7538Y7137D01*
X9222Y7137D02*
X10421Y7137D01*
X10845Y7137D02*
X10995Y7137D01*
X11419Y7137D02*
X15501Y7137D01*
X2601Y7187D02*
X3450Y7187D01*
X4750Y7187D02*
X7559Y7187D01*
X9201Y7187D02*
X10504Y7187D01*
X10845Y7187D02*
X10995Y7187D01*
X11336Y7187D02*
X15584Y7187D01*
X2350Y7236D02*
X3450Y7236D01*
X4750Y7236D02*
X7596Y7236D01*
X9164Y7236D02*
X10599Y7236D01*
X10845Y7236D02*
X10995Y7236D01*
X11241Y7236D02*
X15679Y7236D01*
X2350Y7286D02*
X3202Y7286D01*
X4998Y7286D02*
X7673Y7286D01*
X9087Y7286D02*
X10778Y7286D01*
X10841Y7286D02*
X10999Y7286D01*
X11062Y7286D02*
X15858Y7286D01*
X2350Y7335D02*
X3199Y7335D01*
X5001Y7335D02*
X7904Y7335D01*
X8856Y7335D02*
X15975Y7335D01*
X2597Y7385D02*
X3199Y7385D01*
X5001Y7385D02*
X7904Y7385D01*
X8856Y7385D02*
X15975Y7385D01*
X2601Y7434D02*
X3201Y7434D01*
X4999Y7434D02*
X7904Y7434D01*
X8856Y7434D02*
X15975Y7434D01*
X2601Y7484D02*
X3215Y7484D01*
X4985Y7484D02*
X7904Y7484D01*
X8856Y7484D02*
X15975Y7484D01*
X2601Y7533D02*
X3232Y7533D01*
X4968Y7533D02*
X7904Y7533D01*
X8856Y7533D02*
X15975Y7533D01*
X2601Y7583D02*
X3209Y7583D01*
X4991Y7583D02*
X7904Y7583D01*
X8856Y7583D02*
X15975Y7583D01*
X2601Y7632D02*
X3200Y7632D01*
X5000Y7632D02*
X7904Y7632D01*
X8856Y7632D02*
X15975Y7632D01*
X2601Y7682D02*
X3199Y7682D01*
X5001Y7682D02*
X7904Y7682D01*
X8856Y7682D02*
X15975Y7682D01*
X2601Y7731D02*
X3199Y7731D01*
X5001Y7731D02*
X7904Y7731D01*
X8856Y7731D02*
X15975Y7731D01*
X2601Y7781D02*
X3199Y7781D01*
X5001Y7781D02*
X7904Y7781D01*
X8856Y7781D02*
X15975Y7781D01*
X2601Y7830D02*
X3199Y7830D01*
X5001Y7830D02*
X7904Y7830D01*
X8856Y7830D02*
X15975Y7830D01*
X2601Y7880D02*
X3199Y7880D01*
X5001Y7880D02*
X7904Y7880D01*
X8856Y7880D02*
X15975Y7880D01*
X2601Y7929D02*
X3199Y7929D01*
X5001Y7929D02*
X7904Y7929D01*
X8856Y7929D02*
X15975Y7929D01*
X2601Y7979D02*
X3199Y7979D01*
X5001Y7979D02*
X7904Y7979D01*
X8856Y7979D02*
X15975Y7979D01*
X2601Y8029D02*
X3199Y8029D01*
X5001Y8029D02*
X7904Y8029D01*
X8856Y8029D02*
X15975Y8029D01*
X2601Y8078D02*
X3201Y8078D01*
X4999Y8078D02*
X7904Y8078D01*
X8856Y8078D02*
X15975Y8078D01*
X2601Y8128D02*
X3213Y8128D01*
X4987Y8128D02*
X7904Y8128D01*
X8856Y8128D02*
X15975Y8128D01*
X2601Y8177D02*
X3235Y8177D01*
X4965Y8177D02*
X7904Y8177D01*
X8856Y8177D02*
X15975Y8177D01*
X2601Y8227D02*
X3211Y8227D01*
X4989Y8227D02*
X7904Y8227D01*
X8856Y8227D02*
X15975Y8227D01*
X2599Y8276D02*
X3200Y8276D01*
X5000Y8276D02*
X7904Y8276D01*
X8856Y8276D02*
X15975Y8276D01*
X2588Y8326D02*
X3199Y8326D01*
X5001Y8326D02*
X7904Y8326D01*
X8856Y8326D02*
X15975Y8326D01*
X2563Y8375D02*
X3199Y8375D01*
X5001Y8375D02*
X7904Y8375D01*
X8856Y8375D02*
X15975Y8375D01*
X2518Y8425D02*
X3199Y8425D01*
X5001Y8425D02*
X7904Y8425D01*
X8856Y8425D02*
X15975Y8425D01*
X2423Y8474D02*
X3199Y8474D01*
X5001Y8474D02*
X7904Y8474D01*
X8856Y8474D02*
X15975Y8474D01*
X2423Y8524D02*
X3199Y8524D01*
X5001Y8524D02*
X7882Y8524D01*
X8856Y8524D02*
X15975Y8524D01*
X2516Y8573D02*
X3199Y8573D01*
X5001Y8573D02*
X7833Y8573D01*
X8856Y8573D02*
X15975Y8573D01*
X2562Y8623D02*
X3199Y8623D01*
X5001Y8623D02*
X7783Y8623D01*
X8856Y8623D02*
X15975Y8623D01*
X2587Y8672D02*
X3199Y8672D01*
X5001Y8672D02*
X7734Y8672D01*
X8856Y8672D02*
X15975Y8672D01*
X2599Y8722D02*
X3200Y8722D01*
X5000Y8722D02*
X7684Y8722D01*
X8854Y8722D02*
X15975Y8722D01*
X2601Y8772D02*
X3210Y8772D01*
X4990Y8772D02*
X7635Y8772D01*
X8849Y8772D02*
X15975Y8772D01*
X2601Y8821D02*
X3234Y8821D01*
X4966Y8821D02*
X7585Y8821D01*
X8839Y8821D02*
X15975Y8821D01*
X2601Y8871D02*
X3214Y8871D01*
X4986Y8871D02*
X7536Y8871D01*
X8824Y8871D02*
X15975Y8871D01*
X2601Y8920D02*
X3201Y8920D01*
X4999Y8920D02*
X7486Y8920D01*
X8800Y8920D02*
X15975Y8920D01*
X2601Y8970D02*
X3199Y8970D01*
X5001Y8970D02*
X7437Y8970D01*
X8772Y8970D02*
X15975Y8970D01*
X2601Y9019D02*
X3199Y9019D01*
X5001Y9019D02*
X7387Y9019D01*
X8732Y9019D02*
X15975Y9019D01*
X2601Y9069D02*
X3199Y9069D01*
X5001Y9069D02*
X7338Y9069D01*
X8685Y9069D02*
X15975Y9069D01*
X2601Y9118D02*
X3199Y9118D01*
X5001Y9118D02*
X7288Y9118D01*
X8636Y9118D02*
X15975Y9118D01*
X2601Y9168D02*
X3199Y9168D01*
X5001Y9168D02*
X7239Y9168D01*
X8586Y9168D02*
X15975Y9168D01*
X2601Y9217D02*
X3199Y9217D01*
X5001Y9217D02*
X7189Y9217D01*
X8536Y9217D02*
X15975Y9217D01*
X2601Y9267D02*
X3199Y9267D01*
X5001Y9267D02*
X7139Y9267D01*
X8487Y9267D02*
X15975Y9267D01*
X2601Y9316D02*
X3199Y9316D01*
X5001Y9316D02*
X7090Y9316D01*
X8437Y9316D02*
X15975Y9316D01*
X2601Y9366D02*
X3200Y9366D01*
X8388Y9366D02*
X15975Y9366D01*
X2601Y9415D02*
X3209Y9415D01*
X8338Y9415D02*
X15975Y9415D01*
X2601Y9465D02*
X3231Y9465D01*
X8289Y9465D02*
X15975Y9465D01*
X2601Y9514D02*
X3216Y9514D01*
X8239Y9514D02*
X15975Y9514D01*
X2601Y9564D02*
X3201Y9564D01*
X8190Y9564D02*
X15975Y9564D01*
X2598Y9614D02*
X3199Y9614D01*
X8140Y9614D02*
X15975Y9614D01*
X2350Y9663D02*
X3199Y9663D01*
X8091Y9663D02*
X15975Y9663D01*
X2350Y9713D02*
X3199Y9713D01*
X8041Y9713D02*
X15975Y9713D01*
X2350Y9762D02*
X3199Y9762D01*
X7992Y9762D02*
X15975Y9762D01*
X2601Y9812D02*
X3199Y9812D01*
X7965Y9812D02*
X15975Y9812D01*
X2601Y9861D02*
X3199Y9861D01*
X8015Y9861D02*
X15975Y9861D01*
X2601Y9911D02*
X3199Y9911D01*
X8064Y9911D02*
X15975Y9911D01*
X2601Y9960D02*
X3199Y9960D01*
X8114Y9960D02*
X15975Y9960D01*
X2601Y10010D02*
X3199Y10010D01*
X8163Y10010D02*
X15975Y10010D01*
X2601Y10059D02*
X3207Y10059D01*
X8213Y10059D02*
X15975Y10059D01*
X2601Y10109D02*
X3227Y10109D01*
X8263Y10109D02*
X15975Y10109D01*
X2601Y10158D02*
X3263Y10158D01*
X8312Y10158D02*
X15975Y10158D01*
X2601Y10208D02*
X3337Y10208D01*
X8362Y10208D02*
X15975Y10208D01*
X2601Y10257D02*
X3974Y10257D01*
X8411Y10257D02*
X15975Y10257D01*
X2601Y10307D02*
X7113Y10307D01*
X8461Y10307D02*
X15975Y10307D01*
X2601Y10356D02*
X7163Y10356D01*
X8510Y10356D02*
X15975Y10356D01*
X2601Y10406D02*
X7212Y10406D01*
X8560Y10406D02*
X15975Y10406D01*
X2601Y10456D02*
X7262Y10456D01*
X8609Y10456D02*
X15975Y10456D01*
X2601Y10505D02*
X7311Y10505D01*
X8659Y10505D02*
X15975Y10505D01*
X2601Y10555D02*
X7361Y10555D01*
X8708Y10555D02*
X15975Y10555D01*
X2601Y10604D02*
X7410Y10604D01*
X8751Y10604D02*
X15975Y10604D01*
X1350Y10654D02*
X1500Y10654D01*
X2601Y10654D02*
X7460Y10654D01*
X8786Y10654D02*
X15975Y10654D01*
X1350Y10703D02*
X1500Y10703D01*
X2594Y10703D02*
X3064Y10703D01*
X3800Y10703D02*
X3950Y10703D01*
X4686Y10703D02*
X7509Y10703D01*
X8813Y10703D02*
X15975Y10703D01*
X1350Y10753D02*
X1500Y10753D01*
X2577Y10753D02*
X3004Y10753D01*
X3800Y10753D02*
X3950Y10753D01*
X4746Y10753D02*
X7559Y10753D01*
X8831Y10753D02*
X15975Y10753D01*
X1350Y10802D02*
X1500Y10802D01*
X2542Y10802D02*
X2971Y10802D01*
X3800Y10802D02*
X3950Y10802D01*
X4779Y10802D02*
X7609Y10802D01*
X8846Y10802D02*
X15975Y10802D01*
X1350Y10852D02*
X1500Y10852D01*
X2478Y10852D02*
X2954Y10852D01*
X3800Y10852D02*
X3950Y10852D01*
X4796Y10852D02*
X7658Y10852D01*
X8852Y10852D02*
X15975Y10852D01*
X0525Y10901D02*
X2949Y10901D01*
X3800Y10901D02*
X3950Y10901D01*
X4801Y10901D02*
X7708Y10901D01*
X8856Y10901D02*
X15975Y10901D01*
X0525Y10951D02*
X2949Y10951D01*
X4801Y10951D02*
X7757Y10951D01*
X8856Y10951D02*
X15975Y10951D01*
X0525Y11000D02*
X2949Y11000D01*
X4801Y11000D02*
X7807Y11000D01*
X8856Y11000D02*
X15975Y11000D01*
X0525Y11050D02*
X2949Y11050D01*
X4801Y11050D02*
X7856Y11050D01*
X8856Y11050D02*
X15975Y11050D01*
X0525Y11099D02*
X2949Y11099D01*
X4801Y11099D02*
X7904Y11099D01*
X8856Y11099D02*
X15975Y11099D01*
X0525Y11149D02*
X0905Y11149D01*
X1350Y11149D02*
X1500Y11149D01*
X1945Y11149D02*
X2949Y11149D01*
X4801Y11149D02*
X7904Y11149D01*
X8856Y11149D02*
X15975Y11149D01*
X0525Y11198D02*
X0774Y11198D01*
X1350Y11198D02*
X1500Y11198D01*
X2076Y11198D02*
X2949Y11198D01*
X4801Y11198D02*
X7904Y11198D01*
X8856Y11198D02*
X15975Y11198D01*
X0525Y11248D02*
X0688Y11248D01*
X1350Y11248D02*
X1500Y11248D01*
X2162Y11248D02*
X2949Y11248D01*
X4801Y11248D02*
X7904Y11248D01*
X8856Y11248D02*
X15975Y11248D01*
X0525Y11298D02*
X0628Y11298D01*
X1350Y11298D02*
X1500Y11298D01*
X2222Y11298D02*
X2949Y11298D01*
X4801Y11298D02*
X7904Y11298D01*
X8856Y11298D02*
X15975Y11298D01*
X0572Y11347D02*
X0577Y11347D01*
X1350Y11347D02*
X1500Y11347D01*
X2273Y11347D02*
X2949Y11347D01*
X4801Y11347D02*
X7904Y11347D01*
X8856Y11347D02*
X15975Y11347D01*
X2314Y11397D02*
X2949Y11397D01*
X4801Y11397D02*
X7904Y11397D01*
X8856Y11397D02*
X15975Y11397D01*
X2348Y11446D02*
X2949Y11446D01*
X4801Y11446D02*
X7904Y11446D01*
X8856Y11446D02*
X15975Y11446D01*
X2375Y11496D02*
X2949Y11496D01*
X4801Y11496D02*
X7904Y11496D01*
X8856Y11496D02*
X15975Y11496D01*
X2400Y11545D02*
X2949Y11545D01*
X4801Y11545D02*
X7904Y11545D01*
X8856Y11545D02*
X15975Y11545D01*
X2415Y11595D02*
X2949Y11595D01*
X4801Y11595D02*
X7904Y11595D01*
X8856Y11595D02*
X15975Y11595D01*
X2430Y11644D02*
X3200Y11644D01*
X4550Y11644D02*
X7904Y11644D01*
X8856Y11644D02*
X15975Y11644D01*
X2440Y11694D02*
X3200Y11694D01*
X4550Y11694D02*
X7904Y11694D01*
X8856Y11694D02*
X15975Y11694D01*
X2200Y11743D02*
X3200Y11743D01*
X4550Y11743D02*
X7904Y11743D01*
X8856Y11743D02*
X15975Y11743D01*
X2200Y11793D02*
X2949Y11793D01*
X4801Y11793D02*
X7904Y11793D01*
X8856Y11793D02*
X15975Y11793D01*
X2200Y11842D02*
X2949Y11842D01*
X4801Y11842D02*
X7904Y11842D01*
X8856Y11842D02*
X15975Y11842D01*
X2441Y11892D02*
X2949Y11892D01*
X4801Y11892D02*
X7904Y11892D01*
X8856Y11892D02*
X15975Y11892D01*
X2435Y11941D02*
X2949Y11941D01*
X4801Y11941D02*
X7904Y11941D01*
X8856Y11941D02*
X15975Y11941D01*
X2420Y11991D02*
X2949Y11991D01*
X4801Y11991D02*
X7904Y11991D01*
X8856Y11991D02*
X15975Y11991D01*
X2405Y12040D02*
X2949Y12040D01*
X4801Y12040D02*
X7904Y12040D01*
X8856Y12040D02*
X15975Y12040D01*
X2382Y12090D02*
X2949Y12090D01*
X4801Y12090D02*
X7904Y12090D01*
X8856Y12090D02*
X15975Y12090D01*
X2356Y12140D02*
X2949Y12140D01*
X4801Y12140D02*
X7904Y12140D01*
X8856Y12140D02*
X15975Y12140D01*
X2325Y12189D02*
X2949Y12189D01*
X4801Y12189D02*
X7904Y12189D01*
X8856Y12189D02*
X15975Y12189D01*
X1350Y12239D02*
X1500Y12239D01*
X2285Y12239D02*
X2949Y12239D01*
X4801Y12239D02*
X7904Y12239D01*
X8856Y12239D02*
X15975Y12239D01*
X0525Y12288D02*
X0610Y12288D01*
X1350Y12288D02*
X1500Y12288D01*
X2240Y12288D02*
X2949Y12288D01*
X4801Y12288D02*
X7904Y12288D01*
X8856Y12288D02*
X15975Y12288D01*
X0525Y12338D02*
X0670Y12338D01*
X1350Y12338D02*
X1500Y12338D01*
X2180Y12338D02*
X2949Y12338D01*
X4801Y12338D02*
X7904Y12338D01*
X8856Y12338D02*
X15975Y12338D01*
X0525Y12387D02*
X0747Y12387D01*
X1350Y12387D02*
X1500Y12387D01*
X2103Y12387D02*
X2949Y12387D01*
X4801Y12387D02*
X7904Y12387D01*
X8856Y12387D02*
X15975Y12387D01*
X0525Y12437D02*
X0858Y12437D01*
X1350Y12437D02*
X1500Y12437D01*
X1992Y12437D02*
X2949Y12437D01*
X4801Y12437D02*
X7904Y12437D01*
X8856Y12437D02*
X15975Y12437D01*
X0525Y12486D02*
X2949Y12486D01*
X3800Y12486D02*
X3950Y12486D01*
X4801Y12486D02*
X7904Y12486D01*
X8856Y12486D02*
X15975Y12486D01*
X0525Y12536D02*
X2951Y12536D01*
X3800Y12536D02*
X3950Y12536D01*
X4799Y12536D02*
X7904Y12536D01*
X8856Y12536D02*
X15975Y12536D01*
X0525Y12585D02*
X2966Y12585D01*
X3800Y12585D02*
X3950Y12585D01*
X4784Y12585D02*
X7904Y12585D01*
X8856Y12585D02*
X15975Y12585D01*
X0525Y12635D02*
X2993Y12635D01*
X3800Y12635D02*
X3950Y12635D01*
X4757Y12635D02*
X7904Y12635D01*
X8856Y12635D02*
X15975Y12635D01*
X0525Y12684D02*
X3044Y12684D01*
X3800Y12684D02*
X3950Y12684D01*
X4706Y12684D02*
X7904Y12684D01*
X8856Y12684D02*
X15975Y12684D01*
X0525Y12734D02*
X7904Y12734D01*
X8856Y12734D02*
X15975Y12734D01*
X0525Y12783D02*
X7635Y12783D01*
X9125Y12783D02*
X10700Y12783D01*
X10845Y12783D02*
X10995Y12783D01*
X11140Y12783D02*
X15780Y12783D01*
X15925Y12783D02*
X16075Y12783D01*
X0525Y12833D02*
X7579Y12833D01*
X9181Y12833D02*
X10562Y12833D01*
X10845Y12833D02*
X10995Y12833D01*
X11278Y12833D02*
X15642Y12833D01*
X15925Y12833D02*
X16075Y12833D01*
X0525Y12883D02*
X7549Y12883D01*
X9211Y12883D02*
X10468Y12883D01*
X10845Y12883D02*
X10995Y12883D01*
X11372Y12883D02*
X15548Y12883D01*
X15925Y12883D02*
X16075Y12883D01*
X0525Y12932D02*
X7533Y12932D01*
X9227Y12932D02*
X10399Y12932D01*
X10845Y12932D02*
X10995Y12932D01*
X11441Y12932D02*
X15479Y12932D01*
X15925Y12932D02*
X16075Y12932D01*
X0525Y12982D02*
X7529Y12982D01*
X9231Y12982D02*
X10343Y12982D01*
X10845Y12982D02*
X10995Y12982D01*
X11497Y12982D02*
X15423Y12982D01*
X15925Y12982D02*
X16075Y12982D01*
X0525Y13031D02*
X7529Y13031D01*
X9231Y13031D02*
X10287Y13031D01*
X11553Y13031D02*
X15367Y13031D01*
X0525Y13081D02*
X7529Y13081D01*
X9231Y13081D02*
X10251Y13081D01*
X11589Y13081D02*
X15331Y13081D01*
X0525Y13130D02*
X7529Y13130D01*
X9231Y13130D02*
X10217Y13130D01*
X11623Y13130D02*
X15297Y13130D01*
X0525Y13180D02*
X7529Y13180D01*
X9231Y13180D02*
X10183Y13180D01*
X11657Y13180D02*
X15263Y13180D01*
X0525Y13229D02*
X7529Y13229D01*
X9231Y13229D02*
X10156Y13229D01*
X11684Y13229D02*
X15236Y13229D01*
X0525Y13279D02*
X7529Y13279D01*
X9231Y13279D02*
X10138Y13279D01*
X11702Y13279D02*
X15218Y13279D01*
X0525Y13328D02*
X7529Y13328D01*
X9231Y13328D02*
X10119Y13328D01*
X11721Y13328D02*
X15199Y13328D01*
X0525Y13378D02*
X7529Y13378D01*
X9231Y13378D02*
X10100Y13378D01*
X11740Y13378D02*
X15180Y13378D01*
X0525Y13427D02*
X7529Y13427D01*
X9231Y13427D02*
X10089Y13427D01*
X11751Y13427D02*
X15169Y13427D01*
X0525Y13477D02*
X7529Y13477D01*
X9231Y13477D02*
X10083Y13477D01*
X11757Y13477D02*
X15163Y13477D01*
X0525Y13526D02*
X7529Y13526D01*
X9231Y13526D02*
X10320Y13526D01*
X11763Y13526D02*
X15157Y13526D01*
X0525Y13576D02*
X7529Y13576D01*
X9231Y13576D02*
X10320Y13576D01*
X11769Y13576D02*
X15151Y13576D01*
X0525Y13625D02*
X7529Y13625D01*
X9231Y13625D02*
X10320Y13625D01*
X11768Y13625D02*
X15152Y13625D01*
X0525Y13675D02*
X7529Y13675D01*
X9231Y13675D02*
X10094Y13675D01*
X11762Y13675D02*
X15158Y13675D01*
X0525Y13725D02*
X7529Y13725D01*
X9231Y13725D02*
X10084Y13725D01*
X11756Y13725D02*
X15164Y13725D01*
X0525Y13774D02*
X7529Y13774D01*
X9231Y13774D02*
X10090Y13774D01*
X11750Y13774D02*
X15170Y13774D01*
X0525Y13824D02*
X7529Y13824D01*
X9231Y13824D02*
X10101Y13824D01*
X11739Y13824D02*
X15181Y13824D01*
X0525Y13873D02*
X7529Y13873D01*
X9231Y13873D02*
X10119Y13873D01*
X11721Y13873D02*
X15199Y13873D01*
X0525Y13923D02*
X7529Y13923D01*
X9231Y13923D02*
X10138Y13923D01*
X11702Y13923D02*
X15218Y13923D01*
X0525Y13972D02*
X7529Y13972D01*
X9231Y13972D02*
X10157Y13972D01*
X11683Y13972D02*
X15237Y13972D01*
X0525Y14022D02*
X7529Y14022D01*
X9231Y14022D02*
X10184Y14022D01*
X11656Y14022D02*
X15264Y14022D01*
X0525Y14071D02*
X7529Y14071D01*
X9231Y14071D02*
X10218Y14071D01*
X11622Y14071D02*
X15298Y14071D01*
X0525Y14121D02*
X7529Y14121D01*
X9231Y14121D02*
X10252Y14121D01*
X11588Y14121D02*
X15332Y14121D01*
X0525Y14170D02*
X7529Y14170D01*
X9231Y14170D02*
X10289Y14170D01*
X11551Y14170D02*
X15369Y14170D01*
X0525Y14220D02*
X7529Y14220D01*
X9231Y14220D02*
X10345Y14220D01*
X10845Y14220D02*
X10995Y14220D01*
X11495Y14220D02*
X15425Y14220D01*
X15925Y14220D02*
X16075Y14220D01*
X0525Y14269D02*
X7533Y14269D01*
X9227Y14269D02*
X10401Y14269D01*
X10845Y14269D02*
X10995Y14269D01*
X11439Y14269D02*
X15481Y14269D01*
X15925Y14269D02*
X16075Y14269D01*
X0525Y14319D02*
X7549Y14319D01*
X9211Y14319D02*
X10471Y14319D01*
X10845Y14319D02*
X10995Y14319D01*
X11369Y14319D02*
X15551Y14319D01*
X15925Y14319D02*
X16075Y14319D01*
X0525Y14368D02*
X7581Y14368D01*
X9179Y14368D02*
X10565Y14368D01*
X10845Y14368D02*
X10995Y14368D01*
X11275Y14368D02*
X15645Y14368D01*
X15925Y14368D02*
X16075Y14368D01*
X0525Y14418D02*
X7638Y14418D01*
X9122Y14418D02*
X10706Y14418D01*
X10845Y14418D02*
X10995Y14418D01*
X11134Y14418D02*
X15786Y14418D01*
X15925Y14418D02*
X16075Y14418D01*
X0525Y14467D02*
X15975Y14467D01*
X0525Y14517D02*
X15975Y14517D01*
X0525Y14567D02*
X15975Y14567D01*
X0525Y14616D02*
X15975Y14616D01*
X0525Y14666D02*
X15975Y14666D01*
X0525Y14715D02*
X15975Y14715D01*
X0525Y14765D02*
X15975Y14765D01*
X0525Y14814D02*
X15975Y14814D01*
X0525Y14864D02*
X15975Y14864D01*
X0525Y14913D02*
X15975Y14913D01*
X0525Y14963D02*
X15975Y14963D01*
X0525Y15012D02*
X15975Y15012D01*
X0525Y15062D02*
X15975Y15062D01*
X0525Y15111D02*
X15975Y15111D01*
X0525Y15161D02*
X15975Y15161D01*
X0525Y15210D02*
X15975Y15210D01*
X0525Y15260D02*
X15975Y15260D01*
X0525Y15309D02*
X15975Y15309D01*
X0525Y15359D02*
X15975Y15359D01*
X0525Y15409D02*
X15975Y15409D01*
X0525Y15458D02*
X15975Y15458D01*
X0525Y15508D02*
X15975Y15508D01*
X0525Y15557D02*
X15975Y15557D01*
X0525Y15607D02*
X15975Y15607D01*
X0525Y15656D02*
X15975Y15656D01*
X0525Y15706D02*
X15975Y15706D01*
X0525Y15755D02*
X15975Y15755D01*
X0525Y15805D02*
X15975Y15805D01*
X0525Y15854D02*
X15975Y15854D01*
X0525Y15904D02*
X15975Y15904D01*
X0525Y15953D02*
X15975Y15953D01*
X0525Y16003D02*
X15975Y16003D01*
X0525Y16052D02*
X15975Y16052D01*
X0525Y16102D02*
X15975Y16102D01*
X0525Y16151D02*
X15975Y16151D01*
X0525Y16201D02*
X15975Y16201D01*
X0525Y16251D02*
X15975Y16251D01*
X0525Y16300D02*
X15975Y16300D01*
X0525Y16350D02*
X15975Y16350D01*
X0525Y16399D02*
X15975Y16399D01*
X0525Y16449D02*
X15975Y16449D01*
%LNtop copper_traces*%
D11*
X7280Y9800D02*
X8380Y10900D01*
X16000Y5000D02*
X16000Y6450D01*
X21080Y13600D02*
X31500Y13600D01*
X31600Y3500D02*
X17500Y3500D01*
X16000Y5000*
X7280Y9800D02*
X8380Y8700D01*
X4100Y9800D02*
X7280Y9800D01*
X8380Y6450D02*
X8380Y8700D01*
X8380Y10900D02*
X8380Y13500D01*
D12*
X1500Y13500D03*
X1500Y3500D03*
X4000Y3500D03*
X4000Y13500D03*
%LNtop copper component 852c16e91e281c0c*%
D13*
X10920Y6450D03*
X16000Y6450D03*
X21080Y6450D03*
D14*
X8380Y6450D03*
%LNtop copper component 0582472eb7ed9473*%
D15*
X31600Y8500D03*
X31600Y3500D03*
D16*
X31600Y13500D03*
%LNtop copper component 20d0d3cf041d0b83*%
D13*
X10920Y13600D03*
X16000Y13600D03*
X21080Y13600D03*
D14*
X8380Y13600D03*
%LNtop copper component 31c3a01e58ece666*%
D17*
X1425Y11800D03*
X1425Y5200D03*
D18*
X1425Y9700D03*
X1425Y7300D03*
D19*
X4100Y9800D03*
X4100Y7200D03*
X4100Y9150D03*
X4100Y7850D03*
X4100Y8500D03*
D20*
X3875Y11700D03*
X3875Y5300D03*
M02*