%FSLAX33Y33*%
%MOMM*%
%AMRect-W2049999-H2049999-RO0.500*
21,1,2.049999,2.049999,0.,0.,270*%
%AMRect-W1250000-H1250000-RO1.500*
21,1,1.25,1.25,0.,0.,90*%
%AMRR-H1600000-W900000-R450000-RO0.500*
21,1,0.9,0.7,0.,0.,270*
1,1,0.9,0.35,0.*
1,1,0.9,0.35,-0.*
1,1,0.9,-0.35,-0.*
1,1,0.9,-0.35,0.*%
%AMRect-W1900000-H1900000-RO0.500*
21,1,1.9,1.9,0.,0.,270*%
%AMRect-W400000-H1350000-RO0.500*
21,1,0.4,1.35,0.,0.,270*%
%AMRect-W1600000-H1400000-RO0.500*
21,1,1.6,1.4,0.,0.,270*%
%ADD10C,0.0508*%
%ADD11C,0.508*%
%ADD12C,0.68834*%
%ADD13C,2.049999*%
%ADD14Rect-W2049999-H2049999-RO0.500*%
%ADD15C,1.25*%
%ADD16Rect-W1250000-H1250000-RO1.500*%
%ADD17RR-H1600000-W900000-R450000-RO0.500*%
%ADD18Rect-W1900000-H1900000-RO0.500*%
%ADD19Rect-W400000-H1350000-RO0.500*%
%ADD20Rect-W1600000-H1400000-RO0.500*%
D10*
%LNpour fill*%
G01*
X41883Y3330D02*
X41883Y3330D01*
X41883Y13670*
X37813Y16383*
X14900Y16383*
X14900Y0617*
X37813Y0617*
X41883Y3330*
X21678Y9956D02*
X21678Y9956D01*
X21921Y10016*
X21924Y10017*
X22146Y10134*
X22149Y10136*
X22336Y10302*
X22338Y10304*
X22480Y10510*
X22482Y10513*
X22570Y10747*
X22571Y10750*
X22601Y10998*
X22601Y11002*
X22592Y11080*
X24332Y12820*
X30149Y12820*
X30149Y12474*
X30149Y12474*
X30154Y12409*
X30154Y12407*
X30169Y12344*
X30170Y12342*
X30195Y12282*
X30196Y12281*
X30229Y12225*
X30231Y12224*
X30273Y12174*
X30274Y12173*
X30324Y12131*
X30325Y12129*
X30381Y12096*
X30382Y12095*
X30442Y12070*
X30444Y12069*
X30507Y12054*
X30509Y12054*
X30574Y12049*
X30574Y12049*
X32626Y12049*
X32627Y12049*
X32691Y12054*
X32693Y12054*
X32756Y12069*
X32758Y12070*
X32818Y12095*
X32819Y12096*
X32875Y12129*
X32876Y12131*
X32926Y12173*
X32927Y12174*
X32969Y12224*
X32971Y12225*
X33004Y12281*
X33005Y12282*
X33030Y12342*
X33031Y12344*
X33046Y12407*
X33046Y12409*
X33051Y12474*
X33051Y12475*
X33051Y14525*
X33051Y14526*
X33046Y14591*
X33046Y14593*
X33031Y14656*
X33030Y14658*
X33005Y14718*
X33004Y14719*
X32971Y14775*
X32969Y14776*
X32927Y14826*
X32926Y14827*
X32876Y14869*
X32875Y14871*
X32819Y14904*
X32818Y14905*
X32758Y14930*
X32756Y14931*
X32693Y14946*
X32691Y14946*
X32626Y14951*
X32625Y14951*
X30575Y14951*
X30574Y14951*
X30509Y14946*
X30507Y14946*
X30444Y14931*
X30442Y14930*
X30382Y14905*
X30381Y14904*
X30325Y14871*
X30324Y14869*
X30274Y14827*
X30273Y14826*
X30231Y14776*
X30229Y14775*
X30196Y14719*
X30195Y14718*
X30170Y14658*
X30169Y14656*
X30154Y14593*
X30154Y14591*
X30149Y14527*
X30149Y14526*
X30149Y14180*
X24049Y14180*
X24048Y14180*
X23918Y14168*
X23916Y14167*
X23791Y14129*
X23788Y14128*
X23673Y14066*
X23671Y14065*
X23570Y13982*
X23569Y13982*
X21632Y12044*
X21425Y12044*
X21422Y12044*
X21179Y11984*
X21176Y11983*
X20954Y11866*
X20951Y11864*
X20764Y11698*
X20762Y11696*
X20620Y11490*
X20618Y11487*
X20530Y11253*
X20529Y11250*
X20499Y11002*
X20499Y10998*
X20529Y10750*
X20530Y10747*
X20618Y10513*
X20620Y10510*
X20762Y10304*
X20764Y10302*
X20951Y10136*
X20954Y10134*
X21176Y10017*
X21179Y10016*
X21422Y9956*
X21425Y9956*
X21675Y9956*
X21678Y9956*
X39316Y9609D02*
X39316Y9609D01*
X39319Y9610*
X39618Y9714*
X39620Y9715*
X39888Y9884*
X39890Y9886*
X40114Y10110*
X40116Y10112*
X40285Y10380*
X40286Y10382*
X40390Y10681*
X40391Y10684*
X40426Y10999*
X40426Y11001*
X40391Y11316*
X40390Y11319*
X40286Y11618*
X40285Y11620*
X40116Y11888*
X40114Y11890*
X39890Y12114*
X39888Y12116*
X39620Y12285*
X39618Y12286*
X39319Y12390*
X39316Y12391*
X39001Y12426*
X38999Y12426*
X38684Y12391*
X38681Y12390*
X38382Y12286*
X38380Y12285*
X38112Y12116*
X38110Y12114*
X37886Y11890*
X37884Y11888*
X37715Y11620*
X37714Y11618*
X37610Y11319*
X37609Y11316*
X37574Y11001*
X37574Y10999*
X37609Y10684*
X37610Y10681*
X37714Y10382*
X37715Y10380*
X37884Y10112*
X37886Y10110*
X38110Y9886*
X38112Y9884*
X38380Y9715*
X38382Y9714*
X38681Y9610*
X38684Y9609*
X38999Y9574*
X39001Y9574*
X39316Y9609*
X16295Y9988D02*
X16295Y9988D01*
X16295Y10454*
X16645Y10454*
X16645Y9988*
X16664Y9973*
X16841Y10016*
X16844Y10017*
X17066Y10134*
X17069Y10136*
X17256Y10302*
X17258Y10304*
X17400Y10510*
X17402Y10513*
X17490Y10747*
X17491Y10750*
X17498Y10808*
X17483Y10825*
X17020Y10825*
X17020Y11175*
X17483Y11175*
X17498Y11192*
X17491Y11250*
X17490Y11253*
X17402Y11487*
X17400Y11490*
X17258Y11696*
X17256Y11698*
X17069Y11864*
X17066Y11866*
X16844Y11983*
X16841Y11984*
X16664Y12027*
X16645Y12012*
X16645Y11546*
X16295Y11546*
X16295Y12012*
X16276Y12027*
X16099Y11984*
X16096Y11983*
X15874Y11866*
X15871Y11864*
X15684Y11698*
X15682Y11696*
X15540Y11490*
X15538Y11487*
X15450Y11253*
X15449Y11250*
X15442Y11192*
X15457Y11175*
X15920Y11175*
X15920Y10825*
X15457Y10825*
X15442Y10808*
X15449Y10750*
X15450Y10747*
X15538Y10513*
X15540Y10510*
X15682Y10304*
X15684Y10302*
X15871Y10136*
X15874Y10134*
X16096Y10017*
X16099Y10016*
X16276Y9973*
X16295Y9988*
X39316Y4609D02*
X39316Y4609D01*
X39319Y4610*
X39618Y4714*
X39620Y4715*
X39888Y4884*
X39890Y4886*
X40114Y5110*
X40116Y5112*
X40285Y5380*
X40286Y5382*
X40390Y5681*
X40391Y5684*
X40426Y5999*
X40426Y6001*
X40391Y6316*
X40390Y6319*
X40286Y6618*
X40285Y6620*
X40116Y6888*
X40114Y6890*
X39890Y7114*
X39888Y7116*
X39620Y7285*
X39618Y7286*
X39319Y7390*
X39316Y7391*
X39001Y7426*
X38999Y7426*
X38684Y7391*
X38681Y7390*
X38382Y7286*
X38380Y7285*
X38112Y7116*
X38110Y7114*
X37886Y6890*
X37884Y6888*
X37715Y6620*
X37714Y6618*
X37610Y6319*
X37609Y6316*
X37574Y6001*
X37574Y5999*
X37609Y5684*
X37610Y5681*
X37714Y5382*
X37715Y5380*
X37884Y5112*
X37886Y5110*
X38110Y4886*
X38112Y4884*
X38380Y4715*
X38382Y4714*
X38681Y4610*
X38684Y4609*
X38999Y4574*
X39001Y4574*
X39316Y4609*
X16598Y1956D02*
X16598Y1956D01*
X16841Y2016*
X16844Y2017*
X17066Y2134*
X17069Y2136*
X17256Y2302*
X17258Y2304*
X17400Y2510*
X17402Y2513*
X17490Y2747*
X17491Y2750*
X17521Y2998*
X17521Y3002*
X17512Y3080*
X19752Y5320*
X28818Y5320*
X30219Y3919*
X30185Y3824*
X30185Y3822*
X30149Y3501*
X30149Y3499*
X30185Y3178*
X30185Y3176*
X30292Y2872*
X30293Y2869*
X30464Y2596*
X30466Y2594*
X30694Y2366*
X30696Y2364*
X30969Y2193*
X30972Y2192*
X31276Y2085*
X31278Y2085*
X31599Y2049*
X31601Y2049*
X31922Y2085*
X31924Y2085*
X32228Y2192*
X32231Y2193*
X32504Y2364*
X32506Y2366*
X32734Y2594*
X32736Y2596*
X32907Y2869*
X32908Y2872*
X33015Y3176*
X33015Y3178*
X33051Y3499*
X33051Y3501*
X33015Y3822*
X33015Y3824*
X32908Y4128*
X32907Y4131*
X32736Y4404*
X32734Y4406*
X32506Y4634*
X32504Y4636*
X32231Y4807*
X32228Y4808*
X31924Y4915*
X31922Y4915*
X31601Y4951*
X31599Y4951*
X31278Y4915*
X31276Y4915*
X31181Y4881*
X29581Y6482*
X29580Y6482*
X29479Y6565*
X29477Y6566*
X29362Y6628*
X29359Y6629*
X29234Y6667*
X29232Y6668*
X29102Y6680*
X29101Y6680*
X19469Y6680*
X19468Y6680*
X19338Y6668*
X19336Y6667*
X19211Y6629*
X19208Y6628*
X19093Y6566*
X19091Y6565*
X18990Y6482*
X18989Y6482*
X16552Y4044*
X16345Y4044*
X16342Y4044*
X16099Y3984*
X16096Y3983*
X15874Y3866*
X15871Y3864*
X15684Y3698*
X15682Y3696*
X15540Y3490*
X15538Y3487*
X15450Y3253*
X15449Y3250*
X15419Y3002*
X15419Y2998*
X15449Y2750*
X15450Y2747*
X15538Y2513*
X15540Y2510*
X15682Y2304*
X15684Y2302*
X15871Y2136*
X15874Y2134*
X16096Y2017*
X16099Y2016*
X16342Y1956*
X16345Y1956*
X16595Y1956*
X16598Y1956*
X21375Y1988D02*
X21375Y1988D01*
X21375Y2454*
X21725Y2454*
X21725Y1988*
X21744Y1973*
X21921Y2016*
X21924Y2017*
X22146Y2134*
X22149Y2136*
X22336Y2302*
X22338Y2304*
X22480Y2510*
X22482Y2513*
X22570Y2747*
X22571Y2750*
X22578Y2808*
X22563Y2825*
X22100Y2825*
X22100Y3175*
X22563Y3175*
X22578Y3192*
X22571Y3250*
X22570Y3253*
X22482Y3487*
X22480Y3490*
X22338Y3696*
X22336Y3698*
X22149Y3864*
X22146Y3866*
X21924Y3983*
X21921Y3984*
X21744Y4027*
X21725Y4012*
X21725Y3546*
X21375Y3546*
X21375Y4012*
X21356Y4027*
X21179Y3984*
X21176Y3983*
X20954Y3866*
X20951Y3864*
X20764Y3698*
X20762Y3696*
X20620Y3490*
X20618Y3487*
X20530Y3253*
X20529Y3250*
X20499Y3002*
X20499Y2998*
X20529Y2750*
X20530Y2747*
X20618Y2513*
X20620Y2510*
X20762Y2304*
X20764Y2302*
X20951Y2136*
X20954Y2134*
X21176Y2017*
X21179Y2016*
X21356Y1973*
X21375Y1988*
X14900Y0641D02*
X37849Y0641D01*
X14900Y0691D02*
X37924Y0691D01*
X14900Y0740D02*
X37998Y0740D01*
X14900Y0790D02*
X38072Y0790D01*
X14900Y0839D02*
X38147Y0839D01*
X14900Y0889D02*
X38221Y0889D01*
X14900Y0938D02*
X38295Y0938D01*
X14900Y0988D02*
X38369Y0988D01*
X14900Y1037D02*
X38444Y1037D01*
X14900Y1087D02*
X38518Y1087D01*
X14900Y1136D02*
X38592Y1136D01*
X14900Y1186D02*
X38667Y1186D01*
X14900Y1235D02*
X38741Y1235D01*
X14900Y1285D02*
X38815Y1285D01*
X14900Y1334D02*
X38890Y1334D01*
X14900Y1384D02*
X38964Y1384D01*
X14900Y1434D02*
X39038Y1434D01*
X14900Y1483D02*
X39112Y1483D01*
X14900Y1533D02*
X39187Y1533D01*
X14900Y1582D02*
X39261Y1582D01*
X14900Y1632D02*
X39335Y1632D01*
X14900Y1681D02*
X39410Y1681D01*
X14900Y1731D02*
X39484Y1731D01*
X14900Y1780D02*
X39558Y1780D01*
X14900Y1830D02*
X39632Y1830D01*
X14900Y1879D02*
X39707Y1879D01*
X14900Y1929D02*
X39781Y1929D01*
X14900Y1978D02*
X16253Y1978D01*
X16687Y1978D02*
X21333Y1978D01*
X21363Y1978D02*
X21737Y1978D01*
X21767Y1978D02*
X39855Y1978D01*
X14900Y2028D02*
X16076Y2028D01*
X16864Y2028D02*
X21156Y2028D01*
X21375Y2028D02*
X21725Y2028D01*
X21944Y2028D02*
X39930Y2028D01*
X14900Y2077D02*
X15982Y2077D01*
X16958Y2077D02*
X21062Y2077D01*
X21375Y2077D02*
X21725Y2077D01*
X22038Y2077D02*
X31343Y2077D01*
X31857Y2077D02*
X40004Y2077D01*
X14900Y2127D02*
X15887Y2127D01*
X17053Y2127D02*
X20967Y2127D01*
X21375Y2127D02*
X21725Y2127D01*
X22133Y2127D02*
X31157Y2127D01*
X32043Y2127D02*
X40078Y2127D01*
X14900Y2176D02*
X15825Y2176D01*
X17115Y2176D02*
X20905Y2176D01*
X21375Y2176D02*
X21725Y2176D01*
X22195Y2176D02*
X31015Y2176D01*
X32185Y2176D02*
X40153Y2176D01*
X14900Y2226D02*
X15769Y2226D01*
X17171Y2226D02*
X20849Y2226D01*
X21375Y2226D02*
X21725Y2226D01*
X22251Y2226D02*
X30916Y2226D01*
X32284Y2226D02*
X40227Y2226D01*
X14900Y2276D02*
X15714Y2276D01*
X17226Y2276D02*
X20794Y2276D01*
X21375Y2276D02*
X21725Y2276D01*
X22306Y2276D02*
X30838Y2276D01*
X32362Y2276D02*
X40301Y2276D01*
X14900Y2325D02*
X15667Y2325D01*
X17273Y2325D02*
X20747Y2325D01*
X21375Y2325D02*
X21725Y2325D01*
X22353Y2325D02*
X30759Y2325D01*
X32441Y2325D02*
X40375Y2325D01*
X14900Y2375D02*
X15633Y2375D01*
X17307Y2375D02*
X20713Y2375D01*
X21375Y2375D02*
X21725Y2375D01*
X22387Y2375D02*
X30686Y2375D01*
X32514Y2375D02*
X40450Y2375D01*
X14900Y2424D02*
X15599Y2424D01*
X17341Y2424D02*
X20679Y2424D01*
X21375Y2424D02*
X21725Y2424D01*
X22421Y2424D02*
X30636Y2424D01*
X32564Y2424D02*
X40524Y2424D01*
X14900Y2474D02*
X15565Y2474D01*
X17375Y2474D02*
X20645Y2474D01*
X22455Y2474D02*
X30586Y2474D01*
X32614Y2474D02*
X40598Y2474D01*
X14900Y2523D02*
X15534Y2523D01*
X17406Y2523D02*
X20614Y2523D01*
X22486Y2523D02*
X30537Y2523D01*
X32663Y2523D02*
X40673Y2523D01*
X14900Y2573D02*
X15516Y2573D01*
X17424Y2573D02*
X20596Y2573D01*
X22504Y2573D02*
X30487Y2573D01*
X32713Y2573D02*
X40747Y2573D01*
X14900Y2622D02*
X15497Y2622D01*
X17443Y2622D02*
X20577Y2622D01*
X22523Y2622D02*
X30448Y2622D01*
X32752Y2622D02*
X40821Y2622D01*
X14900Y2672D02*
X15478Y2672D01*
X17462Y2672D02*
X20558Y2672D01*
X22542Y2672D02*
X30417Y2672D01*
X32783Y2672D02*
X40896Y2672D01*
X14900Y2721D02*
X15459Y2721D01*
X17481Y2721D02*
X20539Y2721D01*
X22561Y2721D02*
X30386Y2721D01*
X32814Y2721D02*
X40970Y2721D01*
X14900Y2771D02*
X15446Y2771D01*
X17494Y2771D02*
X20526Y2771D01*
X22574Y2771D02*
X30355Y2771D01*
X32845Y2771D02*
X41044Y2771D01*
X14900Y2820D02*
X15440Y2820D01*
X17500Y2820D02*
X20520Y2820D01*
X22568Y2820D02*
X30324Y2820D01*
X32876Y2820D02*
X41118Y2820D01*
X14900Y2870D02*
X15434Y2870D01*
X17506Y2870D02*
X20514Y2870D01*
X22100Y2870D02*
X30293Y2870D01*
X32907Y2870D02*
X41193Y2870D01*
X14900Y2919D02*
X15428Y2919D01*
X17512Y2919D02*
X20508Y2919D01*
X22100Y2919D02*
X30275Y2919D01*
X32925Y2919D02*
X41267Y2919D01*
X14900Y2969D02*
X15422Y2969D01*
X17518Y2969D02*
X20502Y2969D01*
X22100Y2969D02*
X30258Y2969D01*
X32942Y2969D02*
X41341Y2969D01*
X14900Y3018D02*
X15421Y3018D01*
X17519Y3018D02*
X20501Y3018D01*
X22100Y3018D02*
X30240Y3018D01*
X32960Y3018D02*
X41416Y3018D01*
X14900Y3068D02*
X15427Y3068D01*
X17513Y3068D02*
X20507Y3068D01*
X22100Y3068D02*
X30223Y3068D01*
X32977Y3068D02*
X41490Y3068D01*
X14900Y3118D02*
X15433Y3118D01*
X17550Y3118D02*
X20513Y3118D01*
X22100Y3118D02*
X30206Y3118D01*
X32994Y3118D02*
X41564Y3118D01*
X14900Y3167D02*
X15439Y3167D01*
X17599Y3167D02*
X20519Y3167D01*
X22100Y3167D02*
X30188Y3167D01*
X33012Y3167D02*
X41638Y3167D01*
X14900Y3217D02*
X15445Y3217D01*
X17649Y3217D02*
X20525Y3217D01*
X22575Y3217D02*
X30180Y3217D01*
X33020Y3217D02*
X41713Y3217D01*
X14900Y3266D02*
X15454Y3266D01*
X17698Y3266D02*
X20534Y3266D01*
X22566Y3266D02*
X30175Y3266D01*
X33025Y3266D02*
X41787Y3266D01*
X14900Y3316D02*
X15473Y3316D01*
X17748Y3316D02*
X20553Y3316D01*
X22547Y3316D02*
X30169Y3316D01*
X33031Y3316D02*
X41861Y3316D01*
X14900Y3365D02*
X15492Y3365D01*
X17797Y3365D02*
X20572Y3365D01*
X22528Y3365D02*
X30164Y3365D01*
X33036Y3365D02*
X41883Y3365D01*
X14900Y3415D02*
X15511Y3415D01*
X17847Y3415D02*
X20591Y3415D01*
X22509Y3415D02*
X30158Y3415D01*
X33042Y3415D02*
X41883Y3415D01*
X14900Y3464D02*
X15530Y3464D01*
X17896Y3464D02*
X20610Y3464D01*
X22490Y3464D02*
X30152Y3464D01*
X33048Y3464D02*
X41883Y3464D01*
X14900Y3514D02*
X15556Y3514D01*
X17946Y3514D02*
X20636Y3514D01*
X22464Y3514D02*
X30150Y3514D01*
X33050Y3514D02*
X41883Y3514D01*
X14900Y3563D02*
X15590Y3563D01*
X17996Y3563D02*
X20670Y3563D01*
X21375Y3563D02*
X21725Y3563D01*
X22430Y3563D02*
X30156Y3563D01*
X33044Y3563D02*
X41883Y3563D01*
X14900Y3613D02*
X15625Y3613D01*
X18045Y3613D02*
X20705Y3613D01*
X21375Y3613D02*
X21725Y3613D01*
X22395Y3613D02*
X30161Y3613D01*
X33039Y3613D02*
X41883Y3613D01*
X14900Y3662D02*
X15659Y3662D01*
X18095Y3662D02*
X20739Y3662D01*
X21375Y3662D02*
X21725Y3662D01*
X22361Y3662D02*
X30167Y3662D01*
X33033Y3662D02*
X41883Y3662D01*
X14900Y3712D02*
X15699Y3712D01*
X18144Y3712D02*
X20779Y3712D01*
X21375Y3712D02*
X21725Y3712D01*
X22321Y3712D02*
X30172Y3712D01*
X33028Y3712D02*
X41883Y3712D01*
X14900Y3761D02*
X15755Y3761D01*
X18194Y3761D02*
X20835Y3761D01*
X21375Y3761D02*
X21725Y3761D01*
X22265Y3761D02*
X30178Y3761D01*
X33022Y3761D02*
X41883Y3761D01*
X14900Y3811D02*
X15811Y3811D01*
X18243Y3811D02*
X20891Y3811D01*
X21375Y3811D02*
X21725Y3811D01*
X22209Y3811D02*
X30183Y3811D01*
X33017Y3811D02*
X41883Y3811D01*
X14900Y3860D02*
X15867Y3860D01*
X18293Y3860D02*
X20947Y3860D01*
X21375Y3860D02*
X21725Y3860D01*
X22153Y3860D02*
X30198Y3860D01*
X33002Y3860D02*
X41883Y3860D01*
X14900Y3910D02*
X15958Y3910D01*
X18342Y3910D02*
X21038Y3910D01*
X21375Y3910D02*
X21725Y3910D01*
X22062Y3910D02*
X30215Y3910D01*
X32985Y3910D02*
X41883Y3910D01*
X14900Y3960D02*
X16052Y3960D01*
X18392Y3960D02*
X21132Y3960D01*
X21375Y3960D02*
X21725Y3960D01*
X21968Y3960D02*
X30178Y3960D01*
X32967Y3960D02*
X41883Y3960D01*
X14900Y4009D02*
X16202Y4009D01*
X18441Y4009D02*
X21282Y4009D01*
X21375Y4009D02*
X21725Y4009D01*
X21818Y4009D02*
X30129Y4009D01*
X32950Y4009D02*
X41883Y4009D01*
X14900Y4059D02*
X16566Y4059D01*
X18491Y4059D02*
X30079Y4059D01*
X32933Y4059D02*
X41883Y4059D01*
X14900Y4108D02*
X16616Y4108D01*
X18540Y4108D02*
X30030Y4108D01*
X32915Y4108D02*
X41883Y4108D01*
X14900Y4158D02*
X16665Y4158D01*
X18590Y4158D02*
X29980Y4158D01*
X32890Y4158D02*
X41883Y4158D01*
X14900Y4207D02*
X16715Y4207D01*
X18639Y4207D02*
X29931Y4207D01*
X32859Y4207D02*
X41883Y4207D01*
X14900Y4257D02*
X16764Y4257D01*
X18689Y4257D02*
X29881Y4257D01*
X32828Y4257D02*
X41883Y4257D01*
X14900Y4306D02*
X16814Y4306D01*
X18738Y4306D02*
X29832Y4306D01*
X32797Y4306D02*
X41883Y4306D01*
X14900Y4356D02*
X16864Y4356D01*
X18788Y4356D02*
X29782Y4356D01*
X32766Y4356D02*
X41883Y4356D01*
X14900Y4405D02*
X16913Y4405D01*
X18838Y4405D02*
X29732Y4405D01*
X32734Y4405D02*
X41883Y4405D01*
X14900Y4455D02*
X16963Y4455D01*
X18887Y4455D02*
X29683Y4455D01*
X32685Y4455D02*
X41883Y4455D01*
X14900Y4504D02*
X17012Y4504D01*
X18937Y4504D02*
X29633Y4504D01*
X32636Y4504D02*
X41883Y4504D01*
X14900Y4554D02*
X17062Y4554D01*
X18986Y4554D02*
X29584Y4554D01*
X32586Y4554D02*
X41883Y4554D01*
X14900Y4603D02*
X17111Y4603D01*
X19036Y4603D02*
X29534Y4603D01*
X32536Y4603D02*
X38734Y4603D01*
X39266Y4603D02*
X41883Y4603D01*
X14900Y4653D02*
X17161Y4653D01*
X19085Y4653D02*
X29485Y4653D01*
X32476Y4653D02*
X38558Y4653D01*
X39442Y4653D02*
X41883Y4653D01*
X14900Y4702D02*
X17210Y4702D01*
X19135Y4702D02*
X29435Y4702D01*
X32397Y4702D02*
X38416Y4702D01*
X39584Y4702D02*
X41883Y4702D01*
X14900Y4752D02*
X17260Y4752D01*
X19184Y4752D02*
X29386Y4752D01*
X32319Y4752D02*
X38322Y4752D01*
X39678Y4752D02*
X41883Y4752D01*
X14900Y4802D02*
X17309Y4802D01*
X19234Y4802D02*
X29336Y4802D01*
X32240Y4802D02*
X38243Y4802D01*
X39757Y4802D02*
X41883Y4802D01*
X14900Y4851D02*
X17359Y4851D01*
X19283Y4851D02*
X29287Y4851D01*
X32106Y4851D02*
X38164Y4851D01*
X39836Y4851D02*
X41883Y4851D01*
X14900Y4901D02*
X17408Y4901D01*
X19333Y4901D02*
X29237Y4901D01*
X31162Y4901D02*
X31235Y4901D01*
X31965Y4901D02*
X38095Y4901D01*
X39905Y4901D02*
X41883Y4901D01*
X14900Y4950D02*
X17458Y4950D01*
X19382Y4950D02*
X29188Y4950D01*
X31112Y4950D02*
X31587Y4950D01*
X31613Y4950D02*
X38045Y4950D01*
X39955Y4950D02*
X41883Y4950D01*
X14900Y5000D02*
X17507Y5000D01*
X19432Y5000D02*
X29138Y5000D01*
X31063Y5000D02*
X37996Y5000D01*
X40004Y5000D02*
X41883Y5000D01*
X14900Y5049D02*
X17557Y5049D01*
X19481Y5049D02*
X29089Y5049D01*
X31013Y5049D02*
X37946Y5049D01*
X40054Y5049D02*
X41883Y5049D01*
X14900Y5099D02*
X17606Y5099D01*
X19531Y5099D02*
X29039Y5099D01*
X30964Y5099D02*
X37896Y5099D01*
X40104Y5099D02*
X41883Y5099D01*
X14900Y5148D02*
X17656Y5148D01*
X19580Y5148D02*
X28990Y5148D01*
X30914Y5148D02*
X37861Y5148D01*
X40139Y5148D02*
X41883Y5148D01*
X14900Y5198D02*
X17706Y5198D01*
X19630Y5198D02*
X28940Y5198D01*
X30864Y5198D02*
X37830Y5198D01*
X40170Y5198D02*
X41883Y5198D01*
X14900Y5247D02*
X17755Y5247D01*
X19680Y5247D02*
X28890Y5247D01*
X30815Y5247D02*
X37799Y5247D01*
X40201Y5247D02*
X41883Y5247D01*
X14900Y5297D02*
X17805Y5297D01*
X19729Y5297D02*
X28841Y5297D01*
X30765Y5297D02*
X37768Y5297D01*
X40232Y5297D02*
X41883Y5297D01*
X14900Y5346D02*
X17854Y5346D01*
X30716Y5346D02*
X37736Y5346D01*
X40264Y5346D02*
X41883Y5346D01*
X14900Y5396D02*
X17904Y5396D01*
X30666Y5396D02*
X37710Y5396D01*
X40290Y5396D02*
X41883Y5396D01*
X14900Y5445D02*
X17953Y5445D01*
X30617Y5445D02*
X37692Y5445D01*
X40308Y5445D02*
X41883Y5445D01*
X14900Y5495D02*
X18003Y5495D01*
X30567Y5495D02*
X37675Y5495D01*
X40325Y5495D02*
X41883Y5495D01*
X14900Y5545D02*
X18052Y5545D01*
X30518Y5545D02*
X37658Y5545D01*
X40342Y5545D02*
X41883Y5545D01*
X14900Y5594D02*
X18102Y5594D01*
X30468Y5594D02*
X37640Y5594D01*
X40360Y5594D02*
X41883Y5594D01*
X14900Y5644D02*
X18151Y5644D01*
X30419Y5644D02*
X37623Y5644D01*
X40377Y5644D02*
X41883Y5644D01*
X14900Y5693D02*
X18201Y5693D01*
X30369Y5693D02*
X37608Y5693D01*
X40392Y5693D02*
X41883Y5693D01*
X14900Y5743D02*
X18250Y5743D01*
X30320Y5743D02*
X37602Y5743D01*
X40398Y5743D02*
X41883Y5743D01*
X14900Y5792D02*
X18300Y5792D01*
X30270Y5792D02*
X37597Y5792D01*
X40403Y5792D02*
X41883Y5792D01*
X14900Y5842D02*
X18349Y5842D01*
X30221Y5842D02*
X37591Y5842D01*
X40409Y5842D02*
X41883Y5842D01*
X14900Y5891D02*
X18399Y5891D01*
X30171Y5891D02*
X37586Y5891D01*
X40414Y5891D02*
X41883Y5891D01*
X14900Y5941D02*
X18449Y5941D01*
X30121Y5941D02*
X37580Y5941D01*
X40420Y5941D02*
X41883Y5941D01*
X14900Y5990D02*
X18498Y5990D01*
X30072Y5990D02*
X37575Y5990D01*
X40425Y5990D02*
X41883Y5990D01*
X14900Y6040D02*
X18548Y6040D01*
X30022Y6040D02*
X37578Y6040D01*
X40422Y6040D02*
X41883Y6040D01*
X14900Y6089D02*
X18597Y6089D01*
X29973Y6089D02*
X37584Y6089D01*
X40416Y6089D02*
X41883Y6089D01*
X14900Y6139D02*
X18647Y6139D01*
X29923Y6139D02*
X37589Y6139D01*
X40411Y6139D02*
X41883Y6139D01*
X14900Y6188D02*
X18696Y6188D01*
X29874Y6188D02*
X37595Y6188D01*
X40405Y6188D02*
X41883Y6188D01*
X14900Y6238D02*
X18746Y6238D01*
X29824Y6238D02*
X37600Y6238D01*
X40400Y6238D02*
X41883Y6238D01*
X14900Y6287D02*
X18795Y6287D01*
X29775Y6287D02*
X37606Y6287D01*
X40394Y6287D02*
X41883Y6287D01*
X14900Y6337D02*
X18845Y6337D01*
X29725Y6337D02*
X37616Y6337D01*
X40384Y6337D02*
X41883Y6337D01*
X14900Y6387D02*
X18894Y6387D01*
X29676Y6387D02*
X37633Y6387D01*
X40367Y6387D02*
X41883Y6387D01*
X14900Y6436D02*
X18944Y6436D01*
X29626Y6436D02*
X37651Y6436D01*
X40349Y6436D02*
X41883Y6436D01*
X14900Y6486D02*
X18994Y6486D01*
X29576Y6486D02*
X37668Y6486D01*
X40332Y6486D02*
X41883Y6486D01*
X14900Y6535D02*
X19054Y6535D01*
X29516Y6535D02*
X37685Y6535D01*
X40315Y6535D02*
X41883Y6535D01*
X14900Y6585D02*
X19127Y6585D01*
X29443Y6585D02*
X37703Y6585D01*
X40297Y6585D02*
X41883Y6585D01*
X14900Y6634D02*
X19228Y6634D01*
X29342Y6634D02*
X37724Y6634D01*
X40276Y6634D02*
X41883Y6634D01*
X14900Y6684D02*
X37755Y6684D01*
X40245Y6684D02*
X41883Y6684D01*
X14900Y6733D02*
X37787Y6733D01*
X40213Y6733D02*
X41883Y6733D01*
X14900Y6783D02*
X37818Y6783D01*
X40182Y6783D02*
X41883Y6783D01*
X14900Y6832D02*
X37849Y6832D01*
X40151Y6832D02*
X41883Y6832D01*
X14900Y6882D02*
X37880Y6882D01*
X40120Y6882D02*
X41883Y6882D01*
X14900Y6931D02*
X37927Y6931D01*
X40073Y6931D02*
X41883Y6931D01*
X14900Y6981D02*
X37976Y6981D01*
X40024Y6981D02*
X41883Y6981D01*
X14900Y7030D02*
X38026Y7030D01*
X39974Y7030D02*
X41883Y7030D01*
X14900Y7080D02*
X38075Y7080D01*
X39925Y7080D02*
X41883Y7080D01*
X14900Y7129D02*
X38133Y7129D01*
X39867Y7129D02*
X41883Y7129D01*
X14900Y7179D02*
X38212Y7179D01*
X39788Y7179D02*
X41883Y7179D01*
X14900Y7229D02*
X38291Y7229D01*
X39709Y7229D02*
X41883Y7229D01*
X14900Y7278D02*
X38370Y7278D01*
X39630Y7278D02*
X41883Y7278D01*
X14900Y7328D02*
X38502Y7328D01*
X39498Y7328D02*
X41883Y7328D01*
X14900Y7377D02*
X38643Y7377D01*
X39357Y7377D02*
X41883Y7377D01*
X14900Y7427D02*
X41883Y7427D01*
X14900Y7476D02*
X41883Y7476D01*
X14900Y7526D02*
X41883Y7526D01*
X14900Y7575D02*
X41883Y7575D01*
X14900Y7625D02*
X41883Y7625D01*
X14900Y7674D02*
X41883Y7674D01*
X14900Y7724D02*
X41883Y7724D01*
X14900Y7773D02*
X41883Y7773D01*
X14900Y7823D02*
X41883Y7823D01*
X14900Y7872D02*
X41883Y7872D01*
X14900Y7922D02*
X41883Y7922D01*
X14900Y7971D02*
X41883Y7971D01*
X14900Y8021D02*
X41883Y8021D01*
X14900Y8071D02*
X41883Y8071D01*
X14900Y8120D02*
X41883Y8120D01*
X14900Y8170D02*
X41883Y8170D01*
X14900Y8219D02*
X41883Y8219D01*
X14900Y8269D02*
X41883Y8269D01*
X14900Y8318D02*
X41883Y8318D01*
X14900Y8368D02*
X41883Y8368D01*
X14900Y8417D02*
X41883Y8417D01*
X14900Y8467D02*
X41883Y8467D01*
X14900Y8516D02*
X41883Y8516D01*
X14900Y8566D02*
X41883Y8566D01*
X14900Y8615D02*
X41883Y8615D01*
X14900Y8665D02*
X41883Y8665D01*
X14900Y8714D02*
X41883Y8714D01*
X14900Y8764D02*
X41883Y8764D01*
X14900Y8813D02*
X41883Y8813D01*
X14900Y8863D02*
X41883Y8863D01*
X14900Y8913D02*
X41883Y8913D01*
X14900Y8962D02*
X41883Y8962D01*
X14900Y9012D02*
X41883Y9012D01*
X14900Y9061D02*
X41883Y9061D01*
X14900Y9111D02*
X41883Y9111D01*
X14900Y9160D02*
X41883Y9160D01*
X14900Y9210D02*
X41883Y9210D01*
X14900Y9259D02*
X41883Y9259D01*
X14900Y9309D02*
X41883Y9309D01*
X14900Y9358D02*
X41883Y9358D01*
X14900Y9408D02*
X41883Y9408D01*
X14900Y9457D02*
X41883Y9457D01*
X14900Y9507D02*
X41883Y9507D01*
X14900Y9556D02*
X41883Y9556D01*
X14900Y9606D02*
X38711Y9606D01*
X39289Y9606D02*
X41883Y9606D01*
X14900Y9655D02*
X38550Y9655D01*
X39450Y9655D02*
X41883Y9655D01*
X14900Y9705D02*
X38409Y9705D01*
X39591Y9705D02*
X41883Y9705D01*
X14900Y9755D02*
X38318Y9755D01*
X39682Y9755D02*
X41883Y9755D01*
X14900Y9804D02*
X38239Y9804D01*
X39761Y9804D02*
X41883Y9804D01*
X14900Y9854D02*
X38160Y9854D01*
X39840Y9854D02*
X41883Y9854D01*
X14900Y9903D02*
X38092Y9903D01*
X39908Y9903D02*
X41883Y9903D01*
X14900Y9953D02*
X38043Y9953D01*
X39957Y9953D02*
X41883Y9953D01*
X14900Y10002D02*
X16156Y10002D01*
X16295Y10002D02*
X16645Y10002D01*
X16784Y10002D02*
X21236Y10002D01*
X21864Y10002D02*
X37993Y10002D01*
X40007Y10002D02*
X41883Y10002D01*
X14900Y10052D02*
X16030Y10052D01*
X16295Y10052D02*
X16645Y10052D01*
X16910Y10052D02*
X21110Y10052D01*
X21990Y10052D02*
X37943Y10052D01*
X40057Y10052D02*
X41883Y10052D01*
X14900Y10101D02*
X15936Y10101D01*
X16295Y10101D02*
X16645Y10101D01*
X17004Y10101D02*
X21016Y10101D01*
X22084Y10101D02*
X37894Y10101D01*
X40106Y10101D02*
X41883Y10101D01*
X14900Y10151D02*
X15854Y10151D01*
X16295Y10151D02*
X16645Y10151D01*
X17086Y10151D02*
X20934Y10151D01*
X22166Y10151D02*
X37859Y10151D01*
X40141Y10151D02*
X41883Y10151D01*
X14900Y10200D02*
X15798Y10200D01*
X16295Y10200D02*
X16645Y10200D01*
X17142Y10200D02*
X20878Y10200D01*
X22222Y10200D02*
X37828Y10200D01*
X40172Y10200D02*
X41883Y10200D01*
X14900Y10250D02*
X15742Y10250D01*
X16295Y10250D02*
X16645Y10250D01*
X17198Y10250D02*
X20822Y10250D01*
X22278Y10250D02*
X37797Y10250D01*
X40203Y10250D02*
X41883Y10250D01*
X14900Y10299D02*
X15687Y10299D01*
X16295Y10299D02*
X16645Y10299D01*
X17253Y10299D02*
X20767Y10299D01*
X22333Y10299D02*
X37766Y10299D01*
X40234Y10299D02*
X41883Y10299D01*
X14900Y10349D02*
X15651Y10349D01*
X16295Y10349D02*
X16645Y10349D01*
X17289Y10349D02*
X20731Y10349D01*
X22369Y10349D02*
X37735Y10349D01*
X40265Y10349D02*
X41883Y10349D01*
X14900Y10398D02*
X15617Y10398D01*
X16295Y10398D02*
X16645Y10398D01*
X17323Y10398D02*
X20697Y10398D01*
X22403Y10398D02*
X37709Y10398D01*
X40291Y10398D02*
X41883Y10398D01*
X14900Y10448D02*
X15583Y10448D01*
X16295Y10448D02*
X16645Y10448D01*
X17357Y10448D02*
X20663Y10448D01*
X22437Y10448D02*
X37691Y10448D01*
X40309Y10448D02*
X41883Y10448D01*
X14900Y10498D02*
X15548Y10498D01*
X17392Y10498D02*
X20628Y10498D01*
X22472Y10498D02*
X37674Y10498D01*
X40326Y10498D02*
X41883Y10498D01*
X14900Y10547D02*
X15525Y10547D01*
X17415Y10547D02*
X20605Y10547D01*
X22495Y10547D02*
X37657Y10547D01*
X40343Y10547D02*
X41883Y10547D01*
X14900Y10597D02*
X15507Y10597D01*
X17433Y10597D02*
X20587Y10597D01*
X22513Y10597D02*
X37639Y10597D01*
X40361Y10597D02*
X41883Y10597D01*
X14900Y10646D02*
X15488Y10646D01*
X17452Y10646D02*
X20568Y10646D01*
X22532Y10646D02*
X37622Y10646D01*
X40378Y10646D02*
X41883Y10646D01*
X14900Y10696D02*
X15469Y10696D01*
X17471Y10696D02*
X20549Y10696D01*
X22551Y10696D02*
X37608Y10696D01*
X40392Y10696D02*
X41883Y10696D01*
X14900Y10745D02*
X15450Y10745D01*
X17490Y10745D02*
X20530Y10745D01*
X22570Y10745D02*
X37602Y10745D01*
X40398Y10745D02*
X41883Y10745D01*
X14900Y10795D02*
X15443Y10795D01*
X17497Y10795D02*
X20523Y10795D01*
X22577Y10795D02*
X37597Y10795D01*
X40403Y10795D02*
X41883Y10795D01*
X14900Y10844D02*
X15920Y10844D01*
X17020Y10844D02*
X20517Y10844D01*
X22583Y10844D02*
X37591Y10844D01*
X40409Y10844D02*
X41883Y10844D01*
X14900Y10894D02*
X15920Y10894D01*
X17020Y10894D02*
X20511Y10894D01*
X22589Y10894D02*
X37585Y10894D01*
X40415Y10894D02*
X41883Y10894D01*
X14900Y10943D02*
X15920Y10943D01*
X17020Y10943D02*
X20505Y10943D01*
X22595Y10943D02*
X37580Y10943D01*
X40420Y10943D02*
X41883Y10943D01*
X14900Y10993D02*
X15920Y10993D01*
X17020Y10993D02*
X20499Y10993D01*
X22601Y10993D02*
X37574Y10993D01*
X40426Y10993D02*
X41883Y10993D01*
X14900Y11042D02*
X15920Y11042D01*
X17020Y11042D02*
X20504Y11042D01*
X22596Y11042D02*
X37578Y11042D01*
X40422Y11042D02*
X41883Y11042D01*
X14900Y11092D02*
X15920Y11092D01*
X17020Y11092D02*
X20510Y11092D01*
X22604Y11092D02*
X37584Y11092D01*
X40416Y11092D02*
X41883Y11092D01*
X14900Y11141D02*
X15920Y11141D01*
X17020Y11141D02*
X20516Y11141D01*
X22654Y11141D02*
X37589Y11141D01*
X40411Y11141D02*
X41883Y11141D01*
X14900Y11191D02*
X15442Y11191D01*
X17498Y11191D02*
X20522Y11191D01*
X22703Y11191D02*
X37595Y11191D01*
X40405Y11191D02*
X41883Y11191D01*
X14900Y11240D02*
X15448Y11240D01*
X17492Y11240D02*
X20528Y11240D01*
X22753Y11240D02*
X37601Y11240D01*
X40399Y11240D02*
X41883Y11240D01*
X14900Y11290D02*
X15464Y11290D01*
X17476Y11290D02*
X20544Y11290D01*
X22802Y11290D02*
X37606Y11290D01*
X40394Y11290D02*
X41883Y11290D01*
X14900Y11340D02*
X15482Y11340D01*
X17458Y11340D02*
X20562Y11340D01*
X22852Y11340D02*
X37617Y11340D01*
X40383Y11340D02*
X41883Y11340D01*
X14900Y11389D02*
X15501Y11389D01*
X17439Y11389D02*
X20581Y11389D01*
X22901Y11389D02*
X37634Y11389D01*
X40366Y11389D02*
X41883Y11389D01*
X14900Y11439D02*
X15520Y11439D01*
X17420Y11439D02*
X20600Y11439D01*
X22951Y11439D02*
X37652Y11439D01*
X40348Y11439D02*
X41883Y11439D01*
X14900Y11488D02*
X15539Y11488D01*
X17401Y11488D02*
X20619Y11488D01*
X23000Y11488D02*
X37669Y11488D01*
X40331Y11488D02*
X41883Y11488D01*
X14900Y11538D02*
X15573Y11538D01*
X17367Y11538D02*
X20653Y11538D01*
X23050Y11538D02*
X37686Y11538D01*
X40314Y11538D02*
X41883Y11538D01*
X14900Y11587D02*
X15607Y11587D01*
X16295Y11587D02*
X16645Y11587D01*
X17333Y11587D02*
X20687Y11587D01*
X23099Y11587D02*
X37704Y11587D01*
X40296Y11587D02*
X41883Y11587D01*
X14900Y11637D02*
X15641Y11637D01*
X16295Y11637D02*
X16645Y11637D01*
X17299Y11637D02*
X20721Y11637D01*
X23149Y11637D02*
X37726Y11637D01*
X40274Y11637D02*
X41883Y11637D01*
X14900Y11686D02*
X15675Y11686D01*
X16295Y11686D02*
X16645Y11686D01*
X17265Y11686D02*
X20755Y11686D01*
X23198Y11686D02*
X37757Y11686D01*
X40243Y11686D02*
X41883Y11686D01*
X14900Y11736D02*
X15726Y11736D01*
X16295Y11736D02*
X16645Y11736D01*
X17214Y11736D02*
X20806Y11736D01*
X23248Y11736D02*
X37788Y11736D01*
X40212Y11736D02*
X41883Y11736D01*
X14900Y11785D02*
X15782Y11785D01*
X16295Y11785D02*
X16645Y11785D01*
X17158Y11785D02*
X20862Y11785D01*
X23298Y11785D02*
X37819Y11785D01*
X40181Y11785D02*
X41883Y11785D01*
X14900Y11835D02*
X15838Y11835D01*
X16295Y11835D02*
X16645Y11835D01*
X17102Y11835D02*
X20918Y11835D01*
X23347Y11835D02*
X37850Y11835D01*
X40150Y11835D02*
X41883Y11835D01*
X14900Y11884D02*
X15909Y11884D01*
X16295Y11884D02*
X16645Y11884D01*
X17031Y11884D02*
X20989Y11884D01*
X23397Y11884D02*
X37881Y11884D01*
X40119Y11884D02*
X41883Y11884D01*
X14900Y11934D02*
X16003Y11934D01*
X16295Y11934D02*
X16645Y11934D01*
X16937Y11934D02*
X21083Y11934D01*
X23446Y11934D02*
X37929Y11934D01*
X40071Y11934D02*
X41883Y11934D01*
X14900Y11983D02*
X16098Y11983D01*
X16295Y11983D02*
X16645Y11983D01*
X16842Y11983D02*
X21178Y11983D01*
X23496Y11983D02*
X37979Y11983D01*
X40021Y11983D02*
X41883Y11983D01*
X14900Y12033D02*
X21379Y12033D01*
X23545Y12033D02*
X38028Y12033D01*
X39972Y12033D02*
X41883Y12033D01*
X14900Y12082D02*
X21670Y12082D01*
X23595Y12082D02*
X30412Y12082D01*
X32788Y12082D02*
X38078Y12082D01*
X39922Y12082D02*
X41883Y12082D01*
X14900Y12132D02*
X21720Y12132D01*
X23644Y12132D02*
X30322Y12132D01*
X32878Y12132D02*
X38137Y12132D01*
X39863Y12132D02*
X41883Y12132D01*
X14900Y12182D02*
X21769Y12182D01*
X23694Y12182D02*
X30267Y12182D01*
X32933Y12182D02*
X38216Y12182D01*
X39784Y12182D02*
X41883Y12182D01*
X14900Y12231D02*
X21819Y12231D01*
X23743Y12231D02*
X30226Y12231D01*
X32974Y12231D02*
X38295Y12231D01*
X39705Y12231D02*
X41883Y12231D01*
X14900Y12281D02*
X21868Y12281D01*
X23793Y12281D02*
X30196Y12281D01*
X33004Y12281D02*
X38374Y12281D01*
X39626Y12281D02*
X41883Y12281D01*
X14900Y12330D02*
X21918Y12330D01*
X23842Y12330D02*
X30175Y12330D01*
X33025Y12330D02*
X38509Y12330D01*
X39491Y12330D02*
X41883Y12330D01*
X14900Y12380D02*
X21967Y12380D01*
X23892Y12380D02*
X30161Y12380D01*
X33039Y12380D02*
X38651Y12380D01*
X39349Y12380D02*
X41883Y12380D01*
X14900Y12429D02*
X22017Y12429D01*
X23941Y12429D02*
X30152Y12429D01*
X33048Y12429D02*
X41883Y12429D01*
X14900Y12479D02*
X22066Y12479D01*
X23991Y12479D02*
X30149Y12479D01*
X33051Y12479D02*
X41883Y12479D01*
X14900Y12528D02*
X22116Y12528D01*
X24040Y12528D02*
X30149Y12528D01*
X33051Y12528D02*
X41883Y12528D01*
X14900Y12578D02*
X22166Y12578D01*
X24090Y12578D02*
X30149Y12578D01*
X33051Y12578D02*
X41883Y12578D01*
X14900Y12627D02*
X22215Y12627D01*
X24140Y12627D02*
X30149Y12627D01*
X33051Y12627D02*
X41883Y12627D01*
X14900Y12677D02*
X22265Y12677D01*
X24189Y12677D02*
X30149Y12677D01*
X33051Y12677D02*
X41883Y12677D01*
X14900Y12726D02*
X22314Y12726D01*
X24239Y12726D02*
X30149Y12726D01*
X33051Y12726D02*
X41883Y12726D01*
X14900Y12776D02*
X22364Y12776D01*
X24288Y12776D02*
X30149Y12776D01*
X33051Y12776D02*
X41883Y12776D01*
X14900Y12825D02*
X22413Y12825D01*
X33051Y12825D02*
X41883Y12825D01*
X14900Y12875D02*
X22463Y12875D01*
X33051Y12875D02*
X41883Y12875D01*
X14900Y12924D02*
X22512Y12924D01*
X33051Y12924D02*
X41883Y12924D01*
X14900Y12974D02*
X22562Y12974D01*
X33051Y12974D02*
X41883Y12974D01*
X14900Y13024D02*
X22611Y13024D01*
X33051Y13024D02*
X41883Y13024D01*
X14900Y13073D02*
X22661Y13073D01*
X33051Y13073D02*
X41883Y13073D01*
X14900Y13123D02*
X22710Y13123D01*
X33051Y13123D02*
X41883Y13123D01*
X14900Y13172D02*
X22760Y13172D01*
X33051Y13172D02*
X41883Y13172D01*
X14900Y13222D02*
X22809Y13222D01*
X33051Y13222D02*
X41883Y13222D01*
X14900Y13271D02*
X22859Y13271D01*
X33051Y13271D02*
X41883Y13271D01*
X14900Y13321D02*
X22908Y13321D01*
X33051Y13321D02*
X41883Y13321D01*
X14900Y13370D02*
X22958Y13370D01*
X33051Y13370D02*
X41883Y13370D01*
X14900Y13420D02*
X23008Y13420D01*
X33051Y13420D02*
X41883Y13420D01*
X14900Y13469D02*
X23057Y13469D01*
X33051Y13469D02*
X41883Y13469D01*
X14900Y13519D02*
X23107Y13519D01*
X33051Y13519D02*
X41883Y13519D01*
X14900Y13568D02*
X23156Y13568D01*
X33051Y13568D02*
X41883Y13568D01*
X14900Y13618D02*
X23206Y13618D01*
X33051Y13618D02*
X41883Y13618D01*
X14900Y13667D02*
X23255Y13667D01*
X33051Y13667D02*
X41883Y13667D01*
X14900Y13717D02*
X23305Y13717D01*
X33051Y13717D02*
X41812Y13717D01*
X14900Y13766D02*
X23354Y13766D01*
X33051Y13766D02*
X41738Y13766D01*
X14900Y13816D02*
X23404Y13816D01*
X33051Y13816D02*
X41664Y13816D01*
X14900Y13866D02*
X23453Y13866D01*
X33051Y13866D02*
X41590Y13866D01*
X14900Y13915D02*
X23503Y13915D01*
X33051Y13915D02*
X41515Y13915D01*
X14900Y13965D02*
X23552Y13965D01*
X33051Y13965D02*
X41441Y13965D01*
X14900Y14014D02*
X23609Y14014D01*
X33051Y14014D02*
X41367Y14014D01*
X14900Y14064D02*
X23669Y14064D01*
X33051Y14064D02*
X41292Y14064D01*
X14900Y14113D02*
X23761Y14113D01*
X33051Y14113D02*
X41218Y14113D01*
X14900Y14163D02*
X23902Y14163D01*
X33051Y14163D02*
X41144Y14163D01*
X14900Y14212D02*
X30149Y14212D01*
X33051Y14212D02*
X41069Y14212D01*
X14900Y14262D02*
X30149Y14262D01*
X33051Y14262D02*
X40995Y14262D01*
X14900Y14311D02*
X30149Y14311D01*
X33051Y14311D02*
X40921Y14311D01*
X14900Y14361D02*
X30149Y14361D01*
X33051Y14361D02*
X40847Y14361D01*
X14900Y14410D02*
X30149Y14410D01*
X33051Y14410D02*
X40772Y14410D01*
X14900Y14460D02*
X30149Y14460D01*
X33051Y14460D02*
X40698Y14460D01*
X14900Y14509D02*
X30149Y14509D01*
X33051Y14509D02*
X40624Y14509D01*
X14900Y14559D02*
X30151Y14559D01*
X33049Y14559D02*
X40549Y14559D01*
X14900Y14608D02*
X30158Y14608D01*
X33042Y14608D02*
X40475Y14608D01*
X14900Y14658D02*
X30170Y14658D01*
X33030Y14658D02*
X40401Y14658D01*
X14900Y14708D02*
X30190Y14708D01*
X33010Y14708D02*
X40327Y14708D01*
X14900Y14757D02*
X30219Y14757D01*
X32981Y14757D02*
X40252Y14757D01*
X14900Y14807D02*
X30256Y14807D01*
X32944Y14807D02*
X40178Y14807D01*
X14900Y14856D02*
X30308Y14856D01*
X32892Y14856D02*
X40104Y14856D01*
X14900Y14906D02*
X30383Y14906D01*
X32817Y14906D02*
X40029Y14906D01*
X14900Y14955D02*
X39955Y14955D01*
X14900Y15005D02*
X39881Y15005D01*
X14900Y15054D02*
X39806Y15054D01*
X14900Y15104D02*
X39732Y15104D01*
X14900Y15153D02*
X39658Y15153D01*
X14900Y15203D02*
X39584Y15203D01*
X14900Y15252D02*
X39509Y15252D01*
X14900Y15302D02*
X39435Y15302D01*
X14900Y15351D02*
X39361Y15351D01*
X14900Y15401D02*
X39286Y15401D01*
X14900Y15451D02*
X39212Y15451D01*
X14900Y15500D02*
X39138Y15500D01*
X14900Y15550D02*
X39064Y15550D01*
X14900Y15599D02*
X38989Y15599D01*
X14900Y15649D02*
X38915Y15649D01*
X14900Y15698D02*
X38841Y15698D01*
X14900Y15748D02*
X38766Y15748D01*
X14900Y15797D02*
X38692Y15797D01*
X14900Y15847D02*
X38618Y15847D01*
X14900Y15896D02*
X38543Y15896D01*
X14900Y15946D02*
X38469Y15946D01*
X14900Y15995D02*
X38395Y15995D01*
X14900Y16045D02*
X38321Y16045D01*
X14900Y16094D02*
X38246Y16094D01*
X14900Y16144D02*
X38172Y16144D01*
X14900Y16193D02*
X38098Y16193D01*
X14900Y16243D02*
X38023Y16243D01*
X14900Y16293D02*
X37949Y16293D01*
X14900Y16342D02*
X37875Y16342D01*
%LNpour fill*%
X15975Y2309D02*
X15975Y2309D01*
X15834Y2434*
X15832Y2437*
X15717Y2603*
X15715Y2606*
X15644Y2795*
X15643Y2798*
X15619Y2998*
X15619Y3002*
X15643Y3202*
X15644Y3205*
X15715Y3394*
X15717Y3397*
X15832Y3563*
X15834Y3566*
X15975Y3691*
X15975Y10309*
X15834Y10434*
X15832Y10437*
X15717Y10603*
X15715Y10606*
X15644Y10795*
X15643Y10798*
X15619Y10998*
X15619Y11002*
X15643Y11202*
X15644Y11205*
X15715Y11394*
X15717Y11397*
X15832Y11563*
X15834Y11566*
X15975Y11691*
X15975Y16475*
X0525Y16475*
X0525Y12270*
X0576Y12252*
X0597Y12277*
X0598Y12278*
X0699Y12361*
X0701Y12362*
X0815Y12424*
X0818Y12424*
X0942Y12462*
X0944Y12463*
X1073Y12475*
X1074Y12475*
X1336Y12475*
X1350Y12461*
X1350Y12225*
X1500Y12225*
X1500Y12461*
X1514Y12475*
X1776Y12475*
X1777Y12475*
X1906Y12463*
X1908Y12462*
X2032Y12424*
X2035Y12424*
X2149Y12362*
X2151Y12361*
X2252Y12278*
X2253Y12277*
X2336Y12176*
X2337Y12174*
X2399Y12060*
X2399Y12057*
X2437Y11933*
X2438Y11931*
X2442Y11891*
X2426Y11875*
X2200Y11875*
X2200Y11725*
X2426Y11725*
X2442Y11709*
X2438Y11669*
X2437Y11667*
X2399Y11543*
X2399Y11540*
X2337Y11426*
X2336Y11424*
X2253Y11323*
X2252Y11322*
X2151Y11239*
X2149Y11238*
X2035Y11176*
X2032Y11176*
X1908Y11138*
X1906Y11137*
X1777Y11125*
X1776Y11125*
X1514Y11125*
X1500Y11139*
X1500Y11375*
X1350Y11375*
X1350Y11139*
X1336Y11125*
X1074Y11125*
X1073Y11125*
X0944Y11137*
X0942Y11138*
X0818Y11176*
X0815Y11176*
X0701Y11238*
X0699Y11239*
X0598Y11322*
X0597Y11323*
X0576Y11348*
X0525Y11330*
X0525Y10876*
X1336Y10876*
X1350Y10862*
X1350Y10625*
X1500Y10625*
X1500Y10862*
X1514Y10876*
X2375Y10876*
X2376Y10876*
X2409Y10874*
X2411Y10873*
X2444Y10866*
X2446Y10865*
X2477Y10852*
X2479Y10851*
X2507Y10834*
X2509Y10833*
X2534Y10811*
X2536Y10809*
X2558Y10784*
X2559Y10782*
X2576Y10754*
X2577Y10752*
X2590Y10721*
X2591Y10719*
X2598Y10686*
X2599Y10684*
X2601Y10651*
X2601Y10650*
X2601Y9789*
X2587Y9775*
X2350Y9775*
X2350Y9625*
X2587Y9625*
X2601Y9611*
X2601Y8750*
X2601Y8749*
X2599Y8716*
X2598Y8714*
X2591Y8681*
X2590Y8679*
X2577Y8648*
X2576Y8646*
X2559Y8618*
X2558Y8616*
X2536Y8591*
X2534Y8589*
X2509Y8567*
X2507Y8566*
X2479Y8549*
X2477Y8548*
X2423Y8525*
X2423Y8475*
X2477Y8452*
X2479Y8451*
X2507Y8434*
X2509Y8433*
X2534Y8411*
X2536Y8409*
X2558Y8384*
X2559Y8382*
X2576Y8354*
X2577Y8352*
X2590Y8321*
X2591Y8319*
X2598Y8286*
X2599Y8284*
X2601Y8251*
X2601Y8250*
X2601Y7389*
X2587Y7375*
X2350Y7375*
X2350Y7225*
X2587Y7225*
X2601Y7211*
X2601Y6350*
X2601Y6349*
X2599Y6316*
X2598Y6314*
X2591Y6281*
X2590Y6279*
X2577Y6248*
X2576Y6246*
X2559Y6218*
X2558Y6216*
X2536Y6191*
X2534Y6189*
X2509Y6167*
X2507Y6166*
X2479Y6149*
X2477Y6148*
X2446Y6135*
X2444Y6134*
X2411Y6127*
X2409Y6126*
X2377Y6124*
X2376Y6124*
X1514Y6124*
X1500Y6138*
X1500Y6375*
X1350Y6375*
X1350Y6138*
X1336Y6124*
X0525Y6124*
X0525Y5670*
X0576Y5652*
X0597Y5677*
X0598Y5678*
X0699Y5761*
X0701Y5762*
X0815Y5824*
X0818Y5824*
X0942Y5862*
X0944Y5863*
X1073Y5875*
X1074Y5875*
X1336Y5875*
X1350Y5861*
X1350Y5625*
X1500Y5625*
X1500Y5861*
X1514Y5875*
X1776Y5875*
X1777Y5875*
X1906Y5863*
X1908Y5862*
X2032Y5824*
X2035Y5824*
X2149Y5762*
X2151Y5761*
X2252Y5678*
X2253Y5677*
X2336Y5576*
X2337Y5574*
X2399Y5460*
X2399Y5457*
X2437Y5333*
X2438Y5331*
X2442Y5291*
X2426Y5275*
X2200Y5275*
X2200Y5125*
X2426Y5125*
X2442Y5109*
X2438Y5069*
X2437Y5067*
X2399Y4943*
X2399Y4940*
X2337Y4826*
X2336Y4824*
X2253Y4723*
X2252Y4722*
X2151Y4639*
X2149Y4638*
X2035Y4576*
X2032Y4576*
X1908Y4538*
X1906Y4537*
X1777Y4525*
X1776Y4525*
X1514Y4525*
X1500Y4539*
X1500Y4775*
X1350Y4775*
X1350Y4539*
X1336Y4525*
X1074Y4525*
X1073Y4525*
X0944Y4537*
X0942Y4538*
X0818Y4576*
X0815Y4576*
X0701Y4638*
X0699Y4639*
X0598Y4722*
X0597Y4723*
X0576Y4748*
X0525Y4730*
X0525Y0525*
X15975Y0525*
X15975Y2309*
X3800Y10688D02*
X3800Y10688D01*
X3800Y10925*
X3950Y10925*
X3950Y10688*
X3964Y10674*
X4576Y10674*
X4577Y10674*
X4609Y10676*
X4611Y10677*
X4644Y10684*
X4646Y10685*
X4677Y10698*
X4679Y10699*
X4707Y10716*
X4709Y10717*
X4734Y10739*
X4736Y10741*
X4758Y10766*
X4759Y10768*
X4776Y10796*
X4777Y10798*
X4790Y10829*
X4791Y10831*
X4798Y10864*
X4799Y10866*
X4801Y10899*
X4801Y10900*
X4801Y11611*
X4787Y11625*
X4550Y11625*
X4550Y11775*
X4787Y11775*
X4801Y11789*
X4801Y12500*
X4801Y12501*
X4799Y12534*
X4798Y12536*
X4791Y12569*
X4790Y12571*
X4777Y12602*
X4776Y12604*
X4759Y12632*
X4758Y12634*
X4736Y12659*
X4734Y12661*
X4709Y12683*
X4707Y12684*
X4679Y12701*
X4677Y12702*
X4646Y12715*
X4644Y12716*
X4611Y12723*
X4609Y12724*
X4576Y12726*
X4575Y12726*
X3964Y12726*
X3950Y12712*
X3950Y12475*
X3800Y12475*
X3800Y12712*
X3786Y12726*
X3175Y12726*
X3174Y12726*
X3141Y12724*
X3139Y12723*
X3106Y12716*
X3104Y12715*
X3073Y12702*
X3071Y12701*
X3043Y12684*
X3041Y12683*
X3016Y12661*
X3014Y12659*
X2992Y12634*
X2991Y12632*
X2974Y12604*
X2973Y12602*
X2960Y12571*
X2959Y12569*
X2952Y12536*
X2951Y12534*
X2949Y12502*
X2949Y12501*
X2949Y11789*
X2963Y11775*
X3200Y11775*
X3200Y11625*
X2963Y11625*
X2949Y11611*
X2949Y10899*
X2949Y10898*
X2951Y10866*
X2952Y10864*
X2959Y10831*
X2960Y10829*
X2973Y10798*
X2974Y10796*
X2991Y10768*
X2992Y10766*
X3014Y10741*
X3016Y10739*
X3041Y10717*
X3043Y10716*
X3071Y10699*
X3073Y10698*
X3104Y10685*
X3106Y10684*
X3139Y10677*
X3141Y10676*
X3173Y10674*
X3174Y10674*
X3786Y10674*
X3800Y10688*
X9477Y2149D02*
X9477Y2149D01*
X9509Y2151*
X9511Y2152*
X9544Y2159*
X9546Y2160*
X9577Y2173*
X9579Y2174*
X9607Y2191*
X9609Y2192*
X9634Y2214*
X9636Y2216*
X9658Y2241*
X9659Y2243*
X9676Y2271*
X9677Y2273*
X9690Y2304*
X9691Y2306*
X9698Y2339*
X9699Y2341*
X9701Y2374*
X9701Y2375*
X9701Y3625*
X9701Y3626*
X9699Y3659*
X9698Y3661*
X9691Y3694*
X9690Y3696*
X9677Y3727*
X9676Y3729*
X9659Y3757*
X9658Y3759*
X9636Y3784*
X9634Y3786*
X9609Y3808*
X9607Y3809*
X9579Y3826*
X9577Y3827*
X9546Y3840*
X9544Y3841*
X9511Y3848*
X9509Y3849*
X9476Y3851*
X9475Y3851*
X9330Y3851*
X9330Y10149*
X9476Y10149*
X9477Y10149*
X9509Y10151*
X9511Y10152*
X9544Y10159*
X9546Y10160*
X9577Y10173*
X9579Y10174*
X9607Y10191*
X9609Y10192*
X9634Y10214*
X9636Y10216*
X9658Y10241*
X9659Y10243*
X9676Y10271*
X9677Y10273*
X9690Y10304*
X9691Y10306*
X9698Y10339*
X9699Y10341*
X9701Y10374*
X9701Y10375*
X9701Y11625*
X9701Y11626*
X9699Y11659*
X9698Y11661*
X9691Y11694*
X9690Y11696*
X9677Y11727*
X9676Y11729*
X9659Y11757*
X9658Y11759*
X9636Y11784*
X9634Y11786*
X9609Y11808*
X9607Y11809*
X9579Y11826*
X9577Y11827*
X9546Y11840*
X9544Y11841*
X9511Y11848*
X9509Y11849*
X9476Y11851*
X9475Y11851*
X8225Y11851*
X8224Y11851*
X8191Y11849*
X8189Y11848*
X8156Y11841*
X8154Y11840*
X8123Y11827*
X8121Y11826*
X8093Y11809*
X8091Y11808*
X8066Y11786*
X8064Y11784*
X8042Y11759*
X8041Y11757*
X8024Y11729*
X8023Y11727*
X8010Y11696*
X8009Y11694*
X8002Y11661*
X8001Y11659*
X7999Y11627*
X7999Y11626*
X7999Y10828*
X7451Y10280*
X4624Y10280*
X4623Y10280*
X4533Y10271*
X4530Y10271*
X4442Y10244*
X4440Y10243*
X4408Y10226*
X3425Y10226*
X3424Y10226*
X3391Y10224*
X3389Y10223*
X3356Y10216*
X3354Y10215*
X3323Y10202*
X3321Y10201*
X3293Y10184*
X3291Y10183*
X3266Y10161*
X3264Y10159*
X3242Y10134*
X3241Y10132*
X3224Y10104*
X3223Y10102*
X3210Y10071*
X3209Y10069*
X3202Y10036*
X3201Y10034*
X3199Y10002*
X3199Y10001*
X3199Y9599*
X3199Y9598*
X3201Y9566*
X3202Y9564*
X3209Y9531*
X3210Y9529*
X3223Y9498*
X3224Y9496*
X3237Y9475*
X3224Y9454*
X3223Y9452*
X3210Y9421*
X3209Y9419*
X3202Y9386*
X3201Y9384*
X3199Y9352*
X3199Y9351*
X3199Y8949*
X3199Y8948*
X3201Y8916*
X3202Y8914*
X3209Y8881*
X3210Y8879*
X3223Y8848*
X3224Y8846*
X3237Y8825*
X3224Y8804*
X3223Y8802*
X3210Y8771*
X3209Y8769*
X3202Y8736*
X3201Y8734*
X3199Y8702*
X3199Y8701*
X3199Y8299*
X3199Y8298*
X3201Y8266*
X3202Y8264*
X3209Y8231*
X3210Y8229*
X3223Y8198*
X3224Y8196*
X3237Y8175*
X3224Y8154*
X3223Y8152*
X3210Y8121*
X3209Y8119*
X3202Y8086*
X3201Y8084*
X3199Y8052*
X3199Y8051*
X3199Y7649*
X3199Y7648*
X3201Y7616*
X3202Y7614*
X3209Y7581*
X3210Y7579*
X3223Y7548*
X3224Y7546*
X3237Y7525*
X3224Y7504*
X3223Y7502*
X3210Y7471*
X3209Y7469*
X3202Y7436*
X3201Y7434*
X3199Y7402*
X3199Y7401*
X3199Y7289*
X3213Y7275*
X3450Y7275*
X3450Y7125*
X3213Y7125*
X3199Y7111*
X3199Y6999*
X3199Y6998*
X3201Y6966*
X3202Y6964*
X3209Y6931*
X3210Y6929*
X3223Y6898*
X3224Y6896*
X3241Y6868*
X3242Y6866*
X3264Y6841*
X3266Y6839*
X3291Y6817*
X3293Y6816*
X3321Y6799*
X3323Y6798*
X3354Y6785*
X3356Y6784*
X3389Y6777*
X3391Y6776*
X3423Y6774*
X3424Y6774*
X4011Y6774*
X4025Y6788*
X4025Y7025*
X4175Y7025*
X4175Y6788*
X4189Y6774*
X4776Y6774*
X4777Y6774*
X4809Y6776*
X4811Y6777*
X4844Y6784*
X4846Y6785*
X4877Y6798*
X4879Y6799*
X4907Y6816*
X4909Y6817*
X4934Y6839*
X4936Y6841*
X4958Y6866*
X4959Y6868*
X4976Y6896*
X4977Y6898*
X4990Y6929*
X4991Y6931*
X4998Y6964*
X4999Y6966*
X5001Y6999*
X5001Y7000*
X5001Y7111*
X4987Y7125*
X4750Y7125*
X4750Y7275*
X4987Y7275*
X5001Y7289*
X5001Y7400*
X5001Y7401*
X4999Y7434*
X4998Y7436*
X4991Y7469*
X4990Y7471*
X4977Y7502*
X4976Y7504*
X4963Y7525*
X4976Y7546*
X4977Y7548*
X4990Y7579*
X4991Y7581*
X4998Y7614*
X4999Y7616*
X5001Y7649*
X5001Y7650*
X5001Y8050*
X5001Y8051*
X4999Y8084*
X4998Y8086*
X4991Y8119*
X4990Y8121*
X4977Y8152*
X4976Y8154*
X4963Y8175*
X4976Y8196*
X4977Y8198*
X4990Y8229*
X4991Y8231*
X4998Y8264*
X4999Y8266*
X5001Y8299*
X5001Y8300*
X5001Y8700*
X5001Y8701*
X4999Y8734*
X4998Y8736*
X4991Y8769*
X4990Y8771*
X4977Y8802*
X4976Y8804*
X4963Y8825*
X4976Y8846*
X4977Y8848*
X4990Y8879*
X4991Y8881*
X4998Y8914*
X4999Y8916*
X5001Y8949*
X5001Y8950*
X5001Y9320*
X7651Y9320*
X7652Y9320*
X7742Y9329*
X7745Y9329*
X7833Y9356*
X7835Y9357*
X7916Y9400*
X7918Y9401*
X7988Y9459*
X7989Y9460*
X8323Y9793*
X8370Y9774*
X8370Y3851*
X8225Y3851*
X8224Y3851*
X8191Y3849*
X8189Y3848*
X8156Y3841*
X8154Y3840*
X8123Y3827*
X8121Y3826*
X8093Y3809*
X8091Y3808*
X8066Y3786*
X8064Y3784*
X8042Y3759*
X8041Y3757*
X8024Y3729*
X8023Y3727*
X8010Y3696*
X8009Y3694*
X8002Y3661*
X8001Y3659*
X7999Y3627*
X7999Y3626*
X7999Y2374*
X7999Y2373*
X8001Y2341*
X8002Y2339*
X8009Y2306*
X8010Y2304*
X8023Y2273*
X8024Y2271*
X8041Y2243*
X8042Y2241*
X8064Y2216*
X8066Y2214*
X8091Y2192*
X8093Y2191*
X8121Y2174*
X8123Y2173*
X8154Y2160*
X8156Y2159*
X8189Y2152*
X8191Y2151*
X8223Y2149*
X8224Y2149*
X9476Y2149*
X9477Y2149*
X11315Y10168D02*
X11315Y10168D01*
X11315Y10404*
X11465Y10404*
X11465Y10168*
X11484Y10153*
X11690Y10203*
X11693Y10204*
X11872Y10298*
X11875Y10300*
X12026Y10434*
X12028Y10437*
X12143Y10603*
X12145Y10606*
X12216Y10795*
X12217Y10798*
X12241Y10998*
X12241Y11002*
X12217Y11202*
X12216Y11205*
X12145Y11394*
X12143Y11397*
X12028Y11563*
X12026Y11566*
X11875Y11700*
X11872Y11702*
X11693Y11796*
X11690Y11797*
X11484Y11847*
X11465Y11832*
X11465Y11596*
X11315Y11596*
X11315Y11832*
X11296Y11847*
X11090Y11797*
X11087Y11796*
X10908Y11702*
X10905Y11700*
X10754Y11566*
X10752Y11563*
X10637Y11397*
X10635Y11394*
X10564Y11205*
X10563Y11202*
X10550Y11092*
X10565Y11075*
X10790Y11075*
X10790Y10925*
X10565Y10925*
X10550Y10908*
X10563Y10798*
X10564Y10795*
X10635Y10606*
X10637Y10603*
X10752Y10437*
X10754Y10434*
X10905Y10300*
X10908Y10298*
X11087Y10204*
X11090Y10203*
X11296Y10153*
X11315Y10168*
X3800Y4288D02*
X3800Y4288D01*
X3800Y4525*
X3950Y4525*
X3950Y4288*
X3964Y4274*
X4576Y4274*
X4577Y4274*
X4609Y4276*
X4611Y4277*
X4644Y4284*
X4646Y4285*
X4677Y4298*
X4679Y4299*
X4707Y4316*
X4709Y4317*
X4734Y4339*
X4736Y4341*
X4758Y4366*
X4759Y4368*
X4776Y4396*
X4777Y4398*
X4790Y4429*
X4791Y4431*
X4798Y4464*
X4799Y4466*
X4801Y4499*
X4801Y4500*
X4801Y5211*
X4787Y5225*
X4550Y5225*
X4550Y5375*
X4787Y5375*
X4801Y5389*
X4801Y6100*
X4801Y6101*
X4799Y6134*
X4798Y6136*
X4791Y6169*
X4790Y6171*
X4777Y6202*
X4776Y6204*
X4759Y6232*
X4758Y6234*
X4736Y6259*
X4734Y6261*
X4709Y6283*
X4707Y6284*
X4679Y6301*
X4677Y6302*
X4646Y6315*
X4644Y6316*
X4611Y6323*
X4609Y6324*
X4576Y6326*
X4575Y6326*
X3964Y6326*
X3950Y6312*
X3950Y6075*
X3800Y6075*
X3800Y6312*
X3786Y6326*
X3175Y6326*
X3174Y6326*
X3141Y6324*
X3139Y6323*
X3106Y6316*
X3104Y6315*
X3073Y6302*
X3071Y6301*
X3043Y6284*
X3041Y6283*
X3016Y6261*
X3014Y6259*
X2992Y6234*
X2991Y6232*
X2974Y6204*
X2973Y6202*
X2960Y6171*
X2959Y6169*
X2952Y6136*
X2951Y6134*
X2949Y6102*
X2949Y6101*
X2949Y5389*
X2963Y5375*
X3200Y5375*
X3200Y5225*
X2963Y5225*
X2949Y5211*
X2949Y4499*
X2949Y4498*
X2951Y4466*
X2952Y4464*
X2959Y4431*
X2960Y4429*
X2973Y4398*
X2974Y4396*
X2991Y4368*
X2992Y4366*
X3014Y4341*
X3016Y4339*
X3041Y4317*
X3043Y4316*
X3071Y4299*
X3073Y4298*
X3104Y4285*
X3106Y4284*
X3139Y4277*
X3141Y4276*
X3173Y4274*
X3174Y4274*
X3786Y4274*
X3800Y4288*
X11315Y2168D02*
X11315Y2168D01*
X11315Y2404*
X11465Y2404*
X11465Y2168*
X11484Y2153*
X11690Y2203*
X11693Y2204*
X11872Y2298*
X11875Y2300*
X12026Y2434*
X12028Y2437*
X12143Y2603*
X12145Y2606*
X12216Y2795*
X12217Y2798*
X12241Y2998*
X12241Y3002*
X12217Y3202*
X12216Y3205*
X12145Y3394*
X12143Y3397*
X12028Y3563*
X12026Y3566*
X11875Y3700*
X11872Y3702*
X11693Y3796*
X11690Y3797*
X11484Y3847*
X11465Y3832*
X11465Y3596*
X11315Y3596*
X11315Y3832*
X11296Y3847*
X11090Y3797*
X11087Y3796*
X10908Y3702*
X10905Y3700*
X10754Y3566*
X10752Y3563*
X10637Y3397*
X10635Y3394*
X10564Y3205*
X10563Y3202*
X10550Y3092*
X10565Y3075*
X10790Y3075*
X10790Y2925*
X10565Y2925*
X10550Y2908*
X10563Y2798*
X10564Y2795*
X10635Y2606*
X10637Y2603*
X10752Y2437*
X10754Y2434*
X10905Y2300*
X10908Y2298*
X11087Y2204*
X11090Y2203*
X11296Y2153*
X11315Y2168*
X0525Y0550D02*
X15975Y0550D01*
X0525Y0599D02*
X15975Y0599D01*
X0525Y0649D02*
X15975Y0649D01*
X0525Y0698D02*
X15975Y0698D01*
X0525Y0748D02*
X15975Y0748D01*
X0525Y0797D02*
X15975Y0797D01*
X0525Y0847D02*
X15975Y0847D01*
X0525Y0896D02*
X15975Y0896D01*
X0525Y0946D02*
X15975Y0946D01*
X0525Y0995D02*
X15975Y0995D01*
X0525Y1045D02*
X15975Y1045D01*
X0525Y1094D02*
X15975Y1094D01*
X0525Y1144D02*
X15975Y1144D01*
X0525Y1193D02*
X15975Y1193D01*
X0525Y1243D02*
X15975Y1243D01*
X0525Y1292D02*
X15975Y1292D01*
X0525Y1342D02*
X15975Y1342D01*
X0525Y1392D02*
X15975Y1392D01*
X0525Y1441D02*
X15975Y1441D01*
X0525Y1491D02*
X15975Y1491D01*
X0525Y1540D02*
X15975Y1540D01*
X0525Y1590D02*
X15975Y1590D01*
X0525Y1639D02*
X15975Y1639D01*
X0525Y1689D02*
X15975Y1689D01*
X0525Y1738D02*
X15975Y1738D01*
X0525Y1788D02*
X15975Y1788D01*
X0525Y1837D02*
X15975Y1837D01*
X0525Y1887D02*
X15975Y1887D01*
X0525Y1936D02*
X15975Y1936D01*
X0525Y1986D02*
X15975Y1986D01*
X0525Y2035D02*
X15975Y2035D01*
X0525Y2085D02*
X15975Y2085D01*
X0525Y2134D02*
X15975Y2134D01*
X0525Y2184D02*
X8105Y2184D01*
X9595Y2184D02*
X11168Y2184D01*
X11315Y2184D02*
X11465Y2184D01*
X11612Y2184D02*
X15975Y2184D01*
X0525Y2234D02*
X8049Y2234D01*
X9651Y2234D02*
X11031Y2234D01*
X11315Y2234D02*
X11465Y2234D01*
X11749Y2234D02*
X15975Y2234D01*
X0525Y2283D02*
X8019Y2283D01*
X9681Y2283D02*
X10937Y2283D01*
X11315Y2283D02*
X11465Y2283D01*
X11843Y2283D02*
X15975Y2283D01*
X0525Y2333D02*
X8003Y2333D01*
X9697Y2333D02*
X10868Y2333D01*
X11315Y2333D02*
X11465Y2333D01*
X11912Y2333D02*
X15948Y2333D01*
X0525Y2382D02*
X7999Y2382D01*
X9701Y2382D02*
X10813Y2382D01*
X11315Y2382D02*
X11465Y2382D01*
X11967Y2382D02*
X15893Y2382D01*
X0525Y2432D02*
X7999Y2432D01*
X9701Y2432D02*
X10757Y2432D01*
X12023Y2432D02*
X15837Y2432D01*
X0525Y2481D02*
X7999Y2481D01*
X9701Y2481D02*
X10721Y2481D01*
X12059Y2481D02*
X15801Y2481D01*
X0525Y2531D02*
X7999Y2531D01*
X9701Y2531D02*
X10687Y2531D01*
X12093Y2531D02*
X15767Y2531D01*
X0525Y2580D02*
X7999Y2580D01*
X9701Y2580D02*
X10653Y2580D01*
X12127Y2580D02*
X15733Y2580D01*
X0525Y2630D02*
X7999Y2630D01*
X9701Y2630D02*
X10626Y2630D01*
X12154Y2630D02*
X15706Y2630D01*
X0525Y2679D02*
X7999Y2679D01*
X9701Y2679D02*
X10607Y2679D01*
X12173Y2679D02*
X15687Y2679D01*
X0525Y2729D02*
X7999Y2729D01*
X9701Y2729D02*
X10589Y2729D01*
X12191Y2729D02*
X15669Y2729D01*
X0525Y2778D02*
X7999Y2778D01*
X9701Y2778D02*
X10570Y2778D01*
X12210Y2778D02*
X15650Y2778D01*
X0525Y2828D02*
X7999Y2828D01*
X9701Y2828D02*
X10559Y2828D01*
X12221Y2828D02*
X15639Y2828D01*
X0525Y2877D02*
X7999Y2877D01*
X9701Y2877D02*
X10553Y2877D01*
X12227Y2877D02*
X15633Y2877D01*
X0525Y2927D02*
X7999Y2927D01*
X9701Y2927D02*
X10790Y2927D01*
X12233Y2927D02*
X15627Y2927D01*
X0525Y2977D02*
X7999Y2977D01*
X9701Y2977D02*
X10790Y2977D01*
X12239Y2977D02*
X15621Y2977D01*
X0525Y3026D02*
X7999Y3026D01*
X9701Y3026D02*
X10790Y3026D01*
X12238Y3026D02*
X15622Y3026D01*
X0525Y3076D02*
X7999Y3076D01*
X9701Y3076D02*
X10564Y3076D01*
X12232Y3076D02*
X15628Y3076D01*
X0525Y3125D02*
X7999Y3125D01*
X9701Y3125D02*
X10554Y3125D01*
X12226Y3125D02*
X15634Y3125D01*
X0525Y3175D02*
X7999Y3175D01*
X9701Y3175D02*
X10560Y3175D01*
X12220Y3175D02*
X15640Y3175D01*
X0525Y3224D02*
X7999Y3224D01*
X9701Y3224D02*
X10571Y3224D01*
X12209Y3224D02*
X15651Y3224D01*
X0525Y3274D02*
X7999Y3274D01*
X9701Y3274D02*
X10590Y3274D01*
X12190Y3274D02*
X15670Y3274D01*
X0525Y3323D02*
X7999Y3323D01*
X9701Y3323D02*
X10608Y3323D01*
X12172Y3323D02*
X15688Y3323D01*
X0525Y3373D02*
X7999Y3373D01*
X9701Y3373D02*
X10627Y3373D01*
X12153Y3373D02*
X15707Y3373D01*
X0525Y3422D02*
X7999Y3422D01*
X9701Y3422D02*
X10654Y3422D01*
X12126Y3422D02*
X15734Y3422D01*
X0525Y3472D02*
X7999Y3472D01*
X9701Y3472D02*
X10688Y3472D01*
X12092Y3472D02*
X15768Y3472D01*
X0525Y3521D02*
X7999Y3521D01*
X9701Y3521D02*
X10723Y3521D01*
X12057Y3521D02*
X15803Y3521D01*
X0525Y3571D02*
X7999Y3571D01*
X9701Y3571D02*
X10760Y3571D01*
X12020Y3571D02*
X15840Y3571D01*
X0525Y3620D02*
X7999Y3620D01*
X9701Y3620D02*
X10815Y3620D01*
X11315Y3620D02*
X11465Y3620D01*
X11965Y3620D02*
X15895Y3620D01*
X0525Y3670D02*
X8004Y3670D01*
X9696Y3670D02*
X10871Y3670D01*
X11315Y3670D02*
X11465Y3670D01*
X11909Y3670D02*
X15951Y3670D01*
X0525Y3719D02*
X8020Y3719D01*
X9680Y3719D02*
X10942Y3719D01*
X11315Y3719D02*
X11465Y3719D01*
X11838Y3719D02*
X15975Y3719D01*
X0525Y3769D02*
X8051Y3769D01*
X9649Y3769D02*
X11036Y3769D01*
X11315Y3769D02*
X11465Y3769D01*
X11744Y3769D02*
X15975Y3769D01*
X0525Y3819D02*
X8109Y3819D01*
X9591Y3819D02*
X11178Y3819D01*
X11315Y3819D02*
X11465Y3819D01*
X11602Y3819D02*
X15975Y3819D01*
X0525Y3868D02*
X8370Y3868D01*
X9330Y3868D02*
X15975Y3868D01*
X0525Y3918D02*
X8370Y3918D01*
X9330Y3918D02*
X15975Y3918D01*
X0525Y3967D02*
X8370Y3967D01*
X9330Y3967D02*
X15975Y3967D01*
X0525Y4017D02*
X8370Y4017D01*
X9330Y4017D02*
X15975Y4017D01*
X0525Y4066D02*
X8370Y4066D01*
X9330Y4066D02*
X15975Y4066D01*
X0525Y4116D02*
X8370Y4116D01*
X9330Y4116D02*
X15975Y4116D01*
X0525Y4165D02*
X8370Y4165D01*
X9330Y4165D02*
X15975Y4165D01*
X0525Y4215D02*
X8370Y4215D01*
X9330Y4215D02*
X15975Y4215D01*
X0525Y4264D02*
X8370Y4264D01*
X9330Y4264D02*
X15975Y4264D01*
X0525Y4314D02*
X3047Y4314D01*
X3800Y4314D02*
X3950Y4314D01*
X4703Y4314D02*
X8370Y4314D01*
X9330Y4314D02*
X15975Y4314D01*
X0525Y4363D02*
X2995Y4363D01*
X3800Y4363D02*
X3950Y4363D01*
X4755Y4363D02*
X8370Y4363D01*
X9330Y4363D02*
X15975Y4363D01*
X0525Y4413D02*
X2967Y4413D01*
X3800Y4413D02*
X3950Y4413D01*
X4783Y4413D02*
X8370Y4413D01*
X9330Y4413D02*
X15975Y4413D01*
X0525Y4462D02*
X2952Y4462D01*
X3800Y4462D02*
X3950Y4462D01*
X4798Y4462D02*
X8370Y4462D01*
X9330Y4462D02*
X15975Y4462D01*
X0525Y4512D02*
X2949Y4512D01*
X3800Y4512D02*
X3950Y4512D01*
X4801Y4512D02*
X8370Y4512D01*
X9330Y4512D02*
X15975Y4512D01*
X0525Y4561D02*
X0864Y4561D01*
X1350Y4561D02*
X1500Y4561D01*
X1986Y4561D02*
X2949Y4561D01*
X4801Y4561D02*
X8370Y4561D01*
X9330Y4561D02*
X15975Y4561D01*
X0525Y4611D02*
X0751Y4611D01*
X1350Y4611D02*
X1500Y4611D01*
X2099Y4611D02*
X2949Y4611D01*
X4801Y4611D02*
X8370Y4611D01*
X9330Y4611D02*
X15975Y4611D01*
X0525Y4661D02*
X0673Y4661D01*
X1350Y4661D02*
X1500Y4661D01*
X2177Y4661D02*
X2949Y4661D01*
X4801Y4661D02*
X8370Y4661D01*
X9330Y4661D02*
X15975Y4661D01*
X0525Y4710D02*
X0612Y4710D01*
X1350Y4710D02*
X1500Y4710D01*
X2238Y4710D02*
X2949Y4710D01*
X4801Y4710D02*
X8370Y4710D01*
X9330Y4710D02*
X15975Y4710D01*
X1350Y4760D02*
X1500Y4760D01*
X2283Y4760D02*
X2949Y4760D01*
X4801Y4760D02*
X8370Y4760D01*
X9330Y4760D02*
X15975Y4760D01*
X2324Y4809D02*
X2949Y4809D01*
X4801Y4809D02*
X8370Y4809D01*
X9330Y4809D02*
X15975Y4809D01*
X2355Y4859D02*
X2949Y4859D01*
X4801Y4859D02*
X8370Y4859D01*
X9330Y4859D02*
X15975Y4859D01*
X2381Y4908D02*
X2949Y4908D01*
X4801Y4908D02*
X8370Y4908D01*
X9330Y4908D02*
X15975Y4908D01*
X2404Y4958D02*
X2949Y4958D01*
X4801Y4958D02*
X8370Y4958D01*
X9330Y4958D02*
X15975Y4958D01*
X2419Y5007D02*
X2949Y5007D01*
X4801Y5007D02*
X8370Y5007D01*
X9330Y5007D02*
X15975Y5007D01*
X2434Y5057D02*
X2949Y5057D01*
X4801Y5057D02*
X8370Y5057D01*
X9330Y5057D02*
X15975Y5057D01*
X2441Y5106D02*
X2949Y5106D01*
X4801Y5106D02*
X8370Y5106D01*
X9330Y5106D02*
X15975Y5106D01*
X2200Y5156D02*
X2949Y5156D01*
X4801Y5156D02*
X8370Y5156D01*
X9330Y5156D02*
X15975Y5156D01*
X2200Y5205D02*
X2949Y5205D01*
X4801Y5205D02*
X8370Y5205D01*
X9330Y5205D02*
X15975Y5205D01*
X2200Y5255D02*
X3200Y5255D01*
X4550Y5255D02*
X8370Y5255D01*
X9330Y5255D02*
X15975Y5255D01*
X2440Y5304D02*
X3200Y5304D01*
X4550Y5304D02*
X8370Y5304D01*
X9330Y5304D02*
X15975Y5304D01*
X2431Y5354D02*
X3200Y5354D01*
X4550Y5354D02*
X8370Y5354D01*
X9330Y5354D02*
X15975Y5354D01*
X2416Y5403D02*
X2949Y5403D01*
X4801Y5403D02*
X8370Y5403D01*
X9330Y5403D02*
X15975Y5403D01*
X2401Y5453D02*
X2949Y5453D01*
X4801Y5453D02*
X8370Y5453D01*
X9330Y5453D02*
X15975Y5453D01*
X2376Y5503D02*
X2949Y5503D01*
X4801Y5503D02*
X8370Y5503D01*
X9330Y5503D02*
X15975Y5503D01*
X2349Y5552D02*
X2949Y5552D01*
X4801Y5552D02*
X8370Y5552D01*
X9330Y5552D02*
X15975Y5552D01*
X2315Y5602D02*
X2949Y5602D01*
X4801Y5602D02*
X8370Y5602D01*
X9330Y5602D02*
X15975Y5602D01*
X1350Y5651D02*
X1500Y5651D01*
X2274Y5651D02*
X2949Y5651D01*
X4801Y5651D02*
X8370Y5651D01*
X9330Y5651D02*
X15975Y5651D01*
X0525Y5701D02*
X0625Y5701D01*
X1350Y5701D02*
X1500Y5701D01*
X2225Y5701D02*
X2949Y5701D01*
X4801Y5701D02*
X8370Y5701D01*
X9330Y5701D02*
X15975Y5701D01*
X0525Y5750D02*
X0686Y5750D01*
X1350Y5750D02*
X1500Y5750D01*
X2164Y5750D02*
X2949Y5750D01*
X4801Y5750D02*
X8370Y5750D01*
X9330Y5750D02*
X15975Y5750D01*
X0525Y5800D02*
X0771Y5800D01*
X1350Y5800D02*
X1500Y5800D01*
X2079Y5800D02*
X2949Y5800D01*
X4801Y5800D02*
X8370Y5800D01*
X9330Y5800D02*
X15975Y5800D01*
X0525Y5849D02*
X0899Y5849D01*
X1350Y5849D02*
X1500Y5849D01*
X1951Y5849D02*
X2949Y5849D01*
X4801Y5849D02*
X8370Y5849D01*
X9330Y5849D02*
X15975Y5849D01*
X0525Y5899D02*
X2949Y5899D01*
X4801Y5899D02*
X8370Y5899D01*
X9330Y5899D02*
X15975Y5899D01*
X0525Y5948D02*
X2949Y5948D01*
X4801Y5948D02*
X8370Y5948D01*
X9330Y5948D02*
X15975Y5948D01*
X0525Y5998D02*
X2949Y5998D01*
X4801Y5998D02*
X8370Y5998D01*
X9330Y5998D02*
X15975Y5998D01*
X0525Y6047D02*
X2949Y6047D01*
X4801Y6047D02*
X8370Y6047D01*
X9330Y6047D02*
X15975Y6047D01*
X0525Y6097D02*
X2949Y6097D01*
X3800Y6097D02*
X3950Y6097D01*
X4801Y6097D02*
X8370Y6097D01*
X9330Y6097D02*
X15975Y6097D01*
X1350Y6146D02*
X1500Y6146D01*
X2474Y6146D02*
X2954Y6146D01*
X3800Y6146D02*
X3950Y6146D01*
X4796Y6146D02*
X8370Y6146D01*
X9330Y6146D02*
X15975Y6146D01*
X1350Y6196D02*
X1500Y6196D01*
X2540Y6196D02*
X2970Y6196D01*
X3800Y6196D02*
X3950Y6196D01*
X4780Y6196D02*
X8370Y6196D01*
X9330Y6196D02*
X15975Y6196D01*
X1350Y6245D02*
X1500Y6245D01*
X2576Y6245D02*
X3002Y6245D01*
X3800Y6245D02*
X3950Y6245D01*
X4748Y6245D02*
X8370Y6245D01*
X9330Y6245D02*
X15975Y6245D01*
X1350Y6295D02*
X1500Y6295D01*
X2594Y6295D02*
X3061Y6295D01*
X3800Y6295D02*
X3950Y6295D01*
X4689Y6295D02*
X8370Y6295D01*
X9330Y6295D02*
X15975Y6295D01*
X1350Y6345D02*
X1500Y6345D01*
X2601Y6345D02*
X8370Y6345D01*
X9330Y6345D02*
X15975Y6345D01*
X2601Y6394D02*
X8370Y6394D01*
X9330Y6394D02*
X15975Y6394D01*
X2601Y6444D02*
X8370Y6444D01*
X9330Y6444D02*
X15975Y6444D01*
X2601Y6493D02*
X8370Y6493D01*
X9330Y6493D02*
X15975Y6493D01*
X2601Y6543D02*
X8370Y6543D01*
X9330Y6543D02*
X15975Y6543D01*
X2601Y6592D02*
X8370Y6592D01*
X9330Y6592D02*
X15975Y6592D01*
X2601Y6642D02*
X8370Y6642D01*
X9330Y6642D02*
X15975Y6642D01*
X2601Y6691D02*
X8370Y6691D01*
X9330Y6691D02*
X15975Y6691D01*
X2601Y6741D02*
X8370Y6741D01*
X9330Y6741D02*
X15975Y6741D01*
X2601Y6790D02*
X3341Y6790D01*
X4025Y6790D02*
X4175Y6790D01*
X4859Y6790D02*
X8370Y6790D01*
X9330Y6790D02*
X15975Y6790D01*
X2601Y6840D02*
X3265Y6840D01*
X4025Y6840D02*
X4175Y6840D01*
X4935Y6840D02*
X8370Y6840D01*
X9330Y6840D02*
X15975Y6840D01*
X2601Y6889D02*
X3228Y6889D01*
X4025Y6889D02*
X4175Y6889D01*
X4972Y6889D02*
X8370Y6889D01*
X9330Y6889D02*
X15975Y6889D01*
X2601Y6939D02*
X3207Y6939D01*
X4025Y6939D02*
X4175Y6939D01*
X4993Y6939D02*
X8370Y6939D01*
X9330Y6939D02*
X15975Y6939D01*
X2601Y6988D02*
X3199Y6988D01*
X4025Y6988D02*
X4175Y6988D01*
X5001Y6988D02*
X8370Y6988D01*
X9330Y6988D02*
X15975Y6988D01*
X2601Y7038D02*
X3199Y7038D01*
X5001Y7038D02*
X8370Y7038D01*
X9330Y7038D02*
X15975Y7038D01*
X2601Y7087D02*
X3199Y7087D01*
X5001Y7087D02*
X8370Y7087D01*
X9330Y7087D02*
X15975Y7087D01*
X2601Y7137D02*
X3450Y7137D01*
X4750Y7137D02*
X8370Y7137D01*
X9330Y7137D02*
X15975Y7137D01*
X2601Y7187D02*
X3450Y7187D01*
X4750Y7187D02*
X8370Y7187D01*
X9330Y7187D02*
X15975Y7187D01*
X2350Y7236D02*
X3450Y7236D01*
X4750Y7236D02*
X8370Y7236D01*
X9330Y7236D02*
X15975Y7236D01*
X2350Y7286D02*
X3202Y7286D01*
X4998Y7286D02*
X8370Y7286D01*
X9330Y7286D02*
X15975Y7286D01*
X2350Y7335D02*
X3199Y7335D01*
X5001Y7335D02*
X8370Y7335D01*
X9330Y7335D02*
X15975Y7335D01*
X2597Y7385D02*
X3199Y7385D01*
X5001Y7385D02*
X8370Y7385D01*
X9330Y7385D02*
X15975Y7385D01*
X2601Y7434D02*
X3201Y7434D01*
X4999Y7434D02*
X8370Y7434D01*
X9330Y7434D02*
X15975Y7434D01*
X2601Y7484D02*
X3215Y7484D01*
X4985Y7484D02*
X8370Y7484D01*
X9330Y7484D02*
X15975Y7484D01*
X2601Y7533D02*
X3232Y7533D01*
X4968Y7533D02*
X8370Y7533D01*
X9330Y7533D02*
X15975Y7533D01*
X2601Y7583D02*
X3209Y7583D01*
X4991Y7583D02*
X8370Y7583D01*
X9330Y7583D02*
X15975Y7583D01*
X2601Y7632D02*
X3200Y7632D01*
X5000Y7632D02*
X8370Y7632D01*
X9330Y7632D02*
X15975Y7632D01*
X2601Y7682D02*
X3199Y7682D01*
X5001Y7682D02*
X8370Y7682D01*
X9330Y7682D02*
X15975Y7682D01*
X2601Y7731D02*
X3199Y7731D01*
X5001Y7731D02*
X8370Y7731D01*
X9330Y7731D02*
X15975Y7731D01*
X2601Y7781D02*
X3199Y7781D01*
X5001Y7781D02*
X8370Y7781D01*
X9330Y7781D02*
X15975Y7781D01*
X2601Y7830D02*
X3199Y7830D01*
X5001Y7830D02*
X8370Y7830D01*
X9330Y7830D02*
X15975Y7830D01*
X2601Y7880D02*
X3199Y7880D01*
X5001Y7880D02*
X8370Y7880D01*
X9330Y7880D02*
X15975Y7880D01*
X2601Y7929D02*
X3199Y7929D01*
X5001Y7929D02*
X8370Y7929D01*
X9330Y7929D02*
X15975Y7929D01*
X2601Y7979D02*
X3199Y7979D01*
X5001Y7979D02*
X8370Y7979D01*
X9330Y7979D02*
X15975Y7979D01*
X2601Y8029D02*
X3199Y8029D01*
X5001Y8029D02*
X8370Y8029D01*
X9330Y8029D02*
X15975Y8029D01*
X2601Y8078D02*
X3201Y8078D01*
X4999Y8078D02*
X8370Y8078D01*
X9330Y8078D02*
X15975Y8078D01*
X2601Y8128D02*
X3213Y8128D01*
X4987Y8128D02*
X8370Y8128D01*
X9330Y8128D02*
X15975Y8128D01*
X2601Y8177D02*
X3235Y8177D01*
X4965Y8177D02*
X8370Y8177D01*
X9330Y8177D02*
X15975Y8177D01*
X2601Y8227D02*
X3211Y8227D01*
X4989Y8227D02*
X8370Y8227D01*
X9330Y8227D02*
X15975Y8227D01*
X2599Y8276D02*
X3200Y8276D01*
X5000Y8276D02*
X8370Y8276D01*
X9330Y8276D02*
X15975Y8276D01*
X2588Y8326D02*
X3199Y8326D01*
X5001Y8326D02*
X8370Y8326D01*
X9330Y8326D02*
X15975Y8326D01*
X2563Y8375D02*
X3199Y8375D01*
X5001Y8375D02*
X8370Y8375D01*
X9330Y8375D02*
X15975Y8375D01*
X2518Y8425D02*
X3199Y8425D01*
X5001Y8425D02*
X8370Y8425D01*
X9330Y8425D02*
X15975Y8425D01*
X2423Y8474D02*
X3199Y8474D01*
X5001Y8474D02*
X8370Y8474D01*
X9330Y8474D02*
X15975Y8474D01*
X2423Y8524D02*
X3199Y8524D01*
X5001Y8524D02*
X8370Y8524D01*
X9330Y8524D02*
X15975Y8524D01*
X2516Y8573D02*
X3199Y8573D01*
X5001Y8573D02*
X8370Y8573D01*
X9330Y8573D02*
X15975Y8573D01*
X2562Y8623D02*
X3199Y8623D01*
X5001Y8623D02*
X8370Y8623D01*
X9330Y8623D02*
X15975Y8623D01*
X2587Y8672D02*
X3199Y8672D01*
X5001Y8672D02*
X8370Y8672D01*
X9330Y8672D02*
X15975Y8672D01*
X2599Y8722D02*
X3200Y8722D01*
X5000Y8722D02*
X8370Y8722D01*
X9330Y8722D02*
X15975Y8722D01*
X2601Y8772D02*
X3210Y8772D01*
X4990Y8772D02*
X8370Y8772D01*
X9330Y8772D02*
X15975Y8772D01*
X2601Y8821D02*
X3234Y8821D01*
X4966Y8821D02*
X8370Y8821D01*
X9330Y8821D02*
X15975Y8821D01*
X2601Y8871D02*
X3214Y8871D01*
X4986Y8871D02*
X8370Y8871D01*
X9330Y8871D02*
X15975Y8871D01*
X2601Y8920D02*
X3201Y8920D01*
X4999Y8920D02*
X8370Y8920D01*
X9330Y8920D02*
X15975Y8920D01*
X2601Y8970D02*
X3199Y8970D01*
X5001Y8970D02*
X8370Y8970D01*
X9330Y8970D02*
X15975Y8970D01*
X2601Y9019D02*
X3199Y9019D01*
X5001Y9019D02*
X8370Y9019D01*
X9330Y9019D02*
X15975Y9019D01*
X2601Y9069D02*
X3199Y9069D01*
X5001Y9069D02*
X8370Y9069D01*
X9330Y9069D02*
X15975Y9069D01*
X2601Y9118D02*
X3199Y9118D01*
X5001Y9118D02*
X8370Y9118D01*
X9330Y9118D02*
X15975Y9118D01*
X2601Y9168D02*
X3199Y9168D01*
X5001Y9168D02*
X8370Y9168D01*
X9330Y9168D02*
X15975Y9168D01*
X2601Y9217D02*
X3199Y9217D01*
X5001Y9217D02*
X8370Y9217D01*
X9330Y9217D02*
X15975Y9217D01*
X2601Y9267D02*
X3199Y9267D01*
X5001Y9267D02*
X8370Y9267D01*
X9330Y9267D02*
X15975Y9267D01*
X2601Y9316D02*
X3199Y9316D01*
X5001Y9316D02*
X8370Y9316D01*
X9330Y9316D02*
X15975Y9316D01*
X2601Y9366D02*
X3200Y9366D01*
X7852Y9366D02*
X8370Y9366D01*
X9330Y9366D02*
X15975Y9366D01*
X2601Y9415D02*
X3209Y9415D01*
X7935Y9415D02*
X8370Y9415D01*
X9330Y9415D02*
X15975Y9415D01*
X2601Y9465D02*
X3231Y9465D01*
X7994Y9465D02*
X8370Y9465D01*
X9330Y9465D02*
X15975Y9465D01*
X2601Y9514D02*
X3216Y9514D01*
X8044Y9514D02*
X8370Y9514D01*
X9330Y9514D02*
X15975Y9514D01*
X2601Y9564D02*
X3201Y9564D01*
X8093Y9564D02*
X8370Y9564D01*
X9330Y9564D02*
X15975Y9564D01*
X2598Y9614D02*
X3199Y9614D01*
X8143Y9614D02*
X8370Y9614D01*
X9330Y9614D02*
X15975Y9614D01*
X2350Y9663D02*
X3199Y9663D01*
X8192Y9663D02*
X8370Y9663D01*
X9330Y9663D02*
X15975Y9663D01*
X2350Y9713D02*
X3199Y9713D01*
X8242Y9713D02*
X8370Y9713D01*
X9330Y9713D02*
X15975Y9713D01*
X2350Y9762D02*
X3199Y9762D01*
X8291Y9762D02*
X8370Y9762D01*
X9330Y9762D02*
X15975Y9762D01*
X2601Y9812D02*
X3199Y9812D01*
X9330Y9812D02*
X15975Y9812D01*
X2601Y9861D02*
X3199Y9861D01*
X9330Y9861D02*
X15975Y9861D01*
X2601Y9911D02*
X3199Y9911D01*
X9330Y9911D02*
X15975Y9911D01*
X2601Y9960D02*
X3199Y9960D01*
X9330Y9960D02*
X15975Y9960D01*
X2601Y10010D02*
X3199Y10010D01*
X9330Y10010D02*
X15975Y10010D01*
X2601Y10059D02*
X3207Y10059D01*
X9330Y10059D02*
X15975Y10059D01*
X2601Y10109D02*
X3227Y10109D01*
X9330Y10109D02*
X15975Y10109D01*
X2601Y10158D02*
X3263Y10158D01*
X9540Y10158D02*
X11272Y10158D01*
X11303Y10158D02*
X11477Y10158D01*
X11508Y10158D02*
X15975Y10158D01*
X2601Y10208D02*
X3337Y10208D01*
X9627Y10208D02*
X11080Y10208D01*
X11315Y10208D02*
X11465Y10208D01*
X11700Y10208D02*
X15975Y10208D01*
X2601Y10257D02*
X4485Y10257D01*
X9668Y10257D02*
X10986Y10257D01*
X11315Y10257D02*
X11465Y10257D01*
X11794Y10257D02*
X15975Y10257D01*
X2601Y10307D02*
X7478Y10307D01*
X9691Y10307D02*
X10897Y10307D01*
X11315Y10307D02*
X11465Y10307D01*
X11883Y10307D02*
X15975Y10307D01*
X2601Y10356D02*
X7527Y10356D01*
X9700Y10356D02*
X10842Y10356D01*
X11315Y10356D02*
X11465Y10356D01*
X11938Y10356D02*
X15922Y10356D01*
X2601Y10406D02*
X7577Y10406D01*
X9701Y10406D02*
X10786Y10406D01*
X11994Y10406D02*
X15866Y10406D01*
X2601Y10456D02*
X7626Y10456D01*
X9701Y10456D02*
X10739Y10456D01*
X12041Y10456D02*
X15819Y10456D01*
X2601Y10505D02*
X7676Y10505D01*
X9701Y10505D02*
X10704Y10505D01*
X12076Y10505D02*
X15784Y10505D01*
X2601Y10555D02*
X7725Y10555D01*
X9701Y10555D02*
X10670Y10555D01*
X12110Y10555D02*
X15750Y10555D01*
X2601Y10604D02*
X7775Y10604D01*
X9701Y10604D02*
X10636Y10604D01*
X12144Y10604D02*
X15716Y10604D01*
X1350Y10654D02*
X1500Y10654D01*
X2601Y10654D02*
X7824Y10654D01*
X9701Y10654D02*
X10617Y10654D01*
X12163Y10654D02*
X15697Y10654D01*
X1350Y10703D02*
X1500Y10703D01*
X2594Y10703D02*
X3064Y10703D01*
X3800Y10703D02*
X3950Y10703D01*
X4686Y10703D02*
X7874Y10703D01*
X9701Y10703D02*
X10598Y10703D01*
X12182Y10703D02*
X15678Y10703D01*
X1350Y10753D02*
X1500Y10753D01*
X2577Y10753D02*
X3004Y10753D01*
X3800Y10753D02*
X3950Y10753D01*
X4746Y10753D02*
X7923Y10753D01*
X9701Y10753D02*
X10580Y10753D01*
X12200Y10753D02*
X15660Y10753D01*
X1350Y10802D02*
X1500Y10802D01*
X2542Y10802D02*
X2971Y10802D01*
X3800Y10802D02*
X3950Y10802D01*
X4779Y10802D02*
X7973Y10802D01*
X9701Y10802D02*
X10562Y10802D01*
X12218Y10802D02*
X15642Y10802D01*
X1350Y10852D02*
X1500Y10852D01*
X2478Y10852D02*
X2954Y10852D01*
X3800Y10852D02*
X3950Y10852D01*
X4796Y10852D02*
X7999Y10852D01*
X9701Y10852D02*
X10556Y10852D01*
X12224Y10852D02*
X15636Y10852D01*
X0525Y10901D02*
X2949Y10901D01*
X3800Y10901D02*
X3950Y10901D01*
X4801Y10901D02*
X7999Y10901D01*
X9701Y10901D02*
X10550Y10901D01*
X12230Y10901D02*
X15630Y10901D01*
X0525Y10951D02*
X2949Y10951D01*
X4801Y10951D02*
X7999Y10951D01*
X9701Y10951D02*
X10790Y10951D01*
X12236Y10951D02*
X15624Y10951D01*
X0525Y11000D02*
X2949Y11000D01*
X4801Y11000D02*
X7999Y11000D01*
X9701Y11000D02*
X10790Y11000D01*
X12241Y11000D02*
X15619Y11000D01*
X0525Y11050D02*
X2949Y11050D01*
X4801Y11050D02*
X7999Y11050D01*
X9701Y11050D02*
X10790Y11050D01*
X12236Y11050D02*
X15624Y11050D01*
X0525Y11099D02*
X2949Y11099D01*
X4801Y11099D02*
X7999Y11099D01*
X9701Y11099D02*
X10550Y11099D01*
X12230Y11099D02*
X15630Y11099D01*
X0525Y11149D02*
X0905Y11149D01*
X1350Y11149D02*
X1500Y11149D01*
X1945Y11149D02*
X2949Y11149D01*
X4801Y11149D02*
X7999Y11149D01*
X9701Y11149D02*
X10557Y11149D01*
X12224Y11149D02*
X15636Y11149D01*
X0525Y11198D02*
X0774Y11198D01*
X1350Y11198D02*
X1500Y11198D01*
X2076Y11198D02*
X2949Y11198D01*
X4801Y11198D02*
X7999Y11198D01*
X9701Y11198D02*
X10563Y11198D01*
X12217Y11198D02*
X15643Y11198D01*
X0525Y11248D02*
X0688Y11248D01*
X1350Y11248D02*
X1500Y11248D01*
X2162Y11248D02*
X2949Y11248D01*
X4801Y11248D02*
X7999Y11248D01*
X9701Y11248D02*
X10580Y11248D01*
X12200Y11248D02*
X15660Y11248D01*
X0525Y11298D02*
X0628Y11298D01*
X1350Y11298D02*
X1500Y11298D01*
X2222Y11298D02*
X2949Y11298D01*
X4801Y11298D02*
X7999Y11298D01*
X9701Y11298D02*
X10599Y11298D01*
X12181Y11298D02*
X15679Y11298D01*
X0572Y11347D02*
X0577Y11347D01*
X1350Y11347D02*
X1500Y11347D01*
X2273Y11347D02*
X2949Y11347D01*
X4801Y11347D02*
X7999Y11347D01*
X9701Y11347D02*
X10617Y11347D01*
X12163Y11347D02*
X15697Y11347D01*
X2314Y11397D02*
X2949Y11397D01*
X4801Y11397D02*
X7999Y11397D01*
X9701Y11397D02*
X10637Y11397D01*
X12143Y11397D02*
X15717Y11397D01*
X2348Y11446D02*
X2949Y11446D01*
X4801Y11446D02*
X7999Y11446D01*
X9701Y11446D02*
X10671Y11446D01*
X12109Y11446D02*
X15751Y11446D01*
X2375Y11496D02*
X2949Y11496D01*
X4801Y11496D02*
X7999Y11496D01*
X9701Y11496D02*
X10705Y11496D01*
X12075Y11496D02*
X15785Y11496D01*
X2400Y11545D02*
X2949Y11545D01*
X4801Y11545D02*
X7999Y11545D01*
X9701Y11545D02*
X10739Y11545D01*
X12041Y11545D02*
X15819Y11545D01*
X2415Y11595D02*
X2949Y11595D01*
X4801Y11595D02*
X7999Y11595D01*
X9701Y11595D02*
X10786Y11595D01*
X11994Y11595D02*
X15866Y11595D01*
X2430Y11644D02*
X3200Y11644D01*
X4550Y11644D02*
X8000Y11644D01*
X9700Y11644D02*
X10842Y11644D01*
X11315Y11644D02*
X11465Y11644D01*
X11938Y11644D02*
X15922Y11644D01*
X2440Y11694D02*
X3200Y11694D01*
X4550Y11694D02*
X8009Y11694D01*
X9691Y11694D02*
X10898Y11694D01*
X11315Y11694D02*
X11465Y11694D01*
X11882Y11694D02*
X15975Y11694D01*
X2200Y11743D02*
X3200Y11743D01*
X4550Y11743D02*
X8033Y11743D01*
X9667Y11743D02*
X10987Y11743D01*
X11315Y11743D02*
X11465Y11743D01*
X11793Y11743D02*
X15975Y11743D01*
X2200Y11793D02*
X2949Y11793D01*
X4801Y11793D02*
X8074Y11793D01*
X9626Y11793D02*
X11082Y11793D01*
X11315Y11793D02*
X11465Y11793D01*
X11698Y11793D02*
X15975Y11793D01*
X2200Y11842D02*
X2949Y11842D01*
X4801Y11842D02*
X8163Y11842D01*
X9537Y11842D02*
X11275Y11842D01*
X11302Y11842D02*
X11478Y11842D01*
X11505Y11842D02*
X15975Y11842D01*
X2441Y11892D02*
X2949Y11892D01*
X4801Y11892D02*
X15975Y11892D01*
X2435Y11941D02*
X2949Y11941D01*
X4801Y11941D02*
X15975Y11941D01*
X2420Y11991D02*
X2949Y11991D01*
X4801Y11991D02*
X15975Y11991D01*
X2405Y12040D02*
X2949Y12040D01*
X4801Y12040D02*
X15975Y12040D01*
X2382Y12090D02*
X2949Y12090D01*
X4801Y12090D02*
X15975Y12090D01*
X2356Y12140D02*
X2949Y12140D01*
X4801Y12140D02*
X15975Y12140D01*
X2325Y12189D02*
X2949Y12189D01*
X4801Y12189D02*
X15975Y12189D01*
X1350Y12239D02*
X1500Y12239D01*
X2285Y12239D02*
X2949Y12239D01*
X4801Y12239D02*
X15975Y12239D01*
X0525Y12288D02*
X0610Y12288D01*
X1350Y12288D02*
X1500Y12288D01*
X2240Y12288D02*
X2949Y12288D01*
X4801Y12288D02*
X15975Y12288D01*
X0525Y12338D02*
X0670Y12338D01*
X1350Y12338D02*
X1500Y12338D01*
X2180Y12338D02*
X2949Y12338D01*
X4801Y12338D02*
X15975Y12338D01*
X0525Y12387D02*
X0747Y12387D01*
X1350Y12387D02*
X1500Y12387D01*
X2103Y12387D02*
X2949Y12387D01*
X4801Y12387D02*
X15975Y12387D01*
X0525Y12437D02*
X0858Y12437D01*
X1350Y12437D02*
X1500Y12437D01*
X1992Y12437D02*
X2949Y12437D01*
X4801Y12437D02*
X15975Y12437D01*
X0525Y12486D02*
X2949Y12486D01*
X3800Y12486D02*
X3950Y12486D01*
X4801Y12486D02*
X15975Y12486D01*
X0525Y12536D02*
X2951Y12536D01*
X3800Y12536D02*
X3950Y12536D01*
X4799Y12536D02*
X15975Y12536D01*
X0525Y12585D02*
X2966Y12585D01*
X3800Y12585D02*
X3950Y12585D01*
X4784Y12585D02*
X15975Y12585D01*
X0525Y12635D02*
X2993Y12635D01*
X3800Y12635D02*
X3950Y12635D01*
X4757Y12635D02*
X15975Y12635D01*
X0525Y12684D02*
X3044Y12684D01*
X3800Y12684D02*
X3950Y12684D01*
X4706Y12684D02*
X15975Y12684D01*
X0525Y12734D02*
X15975Y12734D01*
X0525Y12783D02*
X15975Y12783D01*
X0525Y12833D02*
X15975Y12833D01*
X0525Y12883D02*
X15975Y12883D01*
X0525Y12932D02*
X15975Y12932D01*
X0525Y12982D02*
X15975Y12982D01*
X0525Y13031D02*
X15975Y13031D01*
X0525Y13081D02*
X15975Y13081D01*
X0525Y13130D02*
X15975Y13130D01*
X0525Y13180D02*
X15975Y13180D01*
X0525Y13229D02*
X15975Y13229D01*
X0525Y13279D02*
X15975Y13279D01*
X0525Y13328D02*
X15975Y13328D01*
X0525Y13378D02*
X15975Y13378D01*
X0525Y13427D02*
X15975Y13427D01*
X0525Y13477D02*
X15975Y13477D01*
X0525Y13526D02*
X15975Y13526D01*
X0525Y13576D02*
X15975Y13576D01*
X0525Y13625D02*
X15975Y13625D01*
X0525Y13675D02*
X15975Y13675D01*
X0525Y13725D02*
X15975Y13725D01*
X0525Y13774D02*
X15975Y13774D01*
X0525Y13824D02*
X15975Y13824D01*
X0525Y13873D02*
X15975Y13873D01*
X0525Y13923D02*
X15975Y13923D01*
X0525Y13972D02*
X15975Y13972D01*
X0525Y14022D02*
X15975Y14022D01*
X0525Y14071D02*
X15975Y14071D01*
X0525Y14121D02*
X15975Y14121D01*
X0525Y14170D02*
X15975Y14170D01*
X0525Y14220D02*
X15975Y14220D01*
X0525Y14269D02*
X15975Y14269D01*
X0525Y14319D02*
X15975Y14319D01*
X0525Y14368D02*
X15975Y14368D01*
X0525Y14418D02*
X15975Y14418D01*
X0525Y14467D02*
X15975Y14467D01*
X0525Y14517D02*
X15975Y14517D01*
X0525Y14567D02*
X15975Y14567D01*
X0525Y14616D02*
X15975Y14616D01*
X0525Y14666D02*
X15975Y14666D01*
X0525Y14715D02*
X15975Y14715D01*
X0525Y14765D02*
X15975Y14765D01*
X0525Y14814D02*
X15975Y14814D01*
X0525Y14864D02*
X15975Y14864D01*
X0525Y14913D02*
X15975Y14913D01*
X0525Y14963D02*
X15975Y14963D01*
X0525Y15012D02*
X15975Y15012D01*
X0525Y15062D02*
X15975Y15062D01*
X0525Y15111D02*
X15975Y15111D01*
X0525Y15161D02*
X15975Y15161D01*
X0525Y15210D02*
X15975Y15210D01*
X0525Y15260D02*
X15975Y15260D01*
X0525Y15309D02*
X15975Y15309D01*
X0525Y15359D02*
X15975Y15359D01*
X0525Y15409D02*
X15975Y15409D01*
X0525Y15458D02*
X15975Y15458D01*
X0525Y15508D02*
X15975Y15508D01*
X0525Y15557D02*
X15975Y15557D01*
X0525Y15607D02*
X15975Y15607D01*
X0525Y15656D02*
X15975Y15656D01*
X0525Y15706D02*
X15975Y15706D01*
X0525Y15755D02*
X15975Y15755D01*
X0525Y15805D02*
X15975Y15805D01*
X0525Y15854D02*
X15975Y15854D01*
X0525Y15904D02*
X15975Y15904D01*
X0525Y15953D02*
X15975Y15953D01*
X0525Y16003D02*
X15975Y16003D01*
X0525Y16052D02*
X15975Y16052D01*
X0525Y16102D02*
X15975Y16102D01*
X0525Y16151D02*
X15975Y16151D01*
X0525Y16201D02*
X15975Y16201D01*
X0525Y16251D02*
X15975Y16251D01*
X0525Y16300D02*
X15975Y16300D01*
X0525Y16350D02*
X15975Y16350D01*
X0525Y16399D02*
X15975Y16399D01*
X0525Y16449D02*
X15975Y16449D01*
%LNtop copper_traces*%
D11*
X19470Y6000D02*
X29100Y6000D01*
X4625Y9800D02*
X7650Y9800D01*
X31600Y13500D02*
X24050Y13500D01*
X16470Y3000D02*
X19470Y6000D01*
X8850Y11000D02*
X8850Y3000D01*
X31600Y3500D02*
X29100Y6000D01*
X7650Y9800D02*
X8850Y11000D01*
X24050Y13500D02*
X21550Y11000D01*
D12*
X1950Y3075D03*
X1950Y13925D03*
X4450Y3075D03*
X4450Y13925D03*
%LNtop copper component 1b5861497bc90bb5*%
D13*
X31600Y8500D03*
X31600Y3500D03*
D14*
X31600Y13500D03*
%LNtop copper component 670da4ee1e6607a6*%
D15*
X11390Y11000D03*
X16470Y11000D03*
X21550Y11000D03*
D16*
X8850Y11000D03*
%LNtop copper component 2b9b75b9fcbe7e43*%
D15*
X11390Y3000D03*
X16470Y3000D03*
X21550Y3000D03*
D16*
X8850Y3000D03*
%LNtop copper component 31c3a01e58ece666*%
D17*
X1425Y11800D03*
X1425Y5200D03*
D18*
X1425Y9700D03*
X1425Y7300D03*
D19*
X4100Y9800D03*
X4100Y7200D03*
X4100Y9150D03*
X4100Y7850D03*
X4100Y8500D03*
D20*
X3875Y11700D03*
X3875Y5300D03*
M02*