%FSLAX33Y33*%
%MOMM*%
%LNbottom silkscreen_traces*%
%LNtext*%
G36*
G01*
X19777Y3400D02*
X20193Y4474D01*
X20040Y4474D01*
X19761Y3694D01*
X19744Y3648D01*
X19730Y3603D01*
X19716Y3560D01*
X19704Y3518D01*
X19691Y3562D01*
X19677Y3606D01*
X19662Y3650D01*
X19646Y3694D01*
X19356Y4474D01*
X19211Y4474D01*
X19632Y3400D01*
X19777Y3400D01*
X19777Y3400D01*
X18651Y3650D02*
X18515Y3634D01*
X18534Y3577D01*
X18561Y3528D01*
X18594Y3485D01*
X18634Y3448D01*
X18681Y3420D01*
X18733Y3399D01*
X18792Y3387D01*
X18857Y3382D01*
X18938Y3389D01*
X19010Y3409D01*
X19073Y3442D01*
X19127Y3488D01*
X19171Y3545D01*
X19202Y3614D01*
X19221Y3693D01*
X19227Y3782D01*
X19221Y3875D01*
X19202Y3957D01*
X19170Y4027D01*
X19126Y4087D01*
X19072Y4134D01*
X19010Y4168D01*
X18941Y4189D01*
X18864Y4195D01*
X18853Y4194D01*
X18863Y4087D01*
X18906Y4083D01*
X18946Y4072D01*
X18983Y4053D01*
X19015Y4026D01*
X19043Y3993D01*
X19063Y3955D01*
X19077Y3912D01*
X19084Y3864D01*
X19084Y3864D01*
X18649Y3864D01*
X18656Y3910D01*
X18666Y3949D01*
X18681Y3983D01*
X18699Y4011D01*
X18733Y4044D01*
X18772Y4068D01*
X18815Y4082D01*
X18863Y4087D01*
X18853Y4194D01*
X18790Y4189D01*
X18722Y4169D01*
X18662Y4136D01*
X18609Y4089D01*
X18566Y4031D01*
X18535Y3961D01*
X18516Y3881D01*
X18510Y3790D01*
X18510Y3784D01*
X18510Y3776D01*
X18511Y3766D01*
X18511Y3755D01*
X19091Y3755D01*
X19084Y3695D01*
X19069Y3642D01*
X19048Y3597D01*
X19019Y3559D01*
X18984Y3529D01*
X18945Y3508D01*
X18903Y3495D01*
X18856Y3491D01*
X18821Y3493D01*
X18789Y3500D01*
X18759Y3512D01*
X18732Y3529D01*
X18708Y3551D01*
X18686Y3578D01*
X18667Y3612D01*
X18651Y3650D01*
X18651Y3650D01*
X18351Y3400D02*
X18351Y4178D01*
X18232Y4178D01*
X18232Y4060D01*
X18210Y4098D01*
X18188Y4129D01*
X18168Y4152D01*
X18148Y4169D01*
X18128Y4181D01*
X18108Y4189D01*
X18086Y4194D01*
X18063Y4195D01*
X18030Y4193D01*
X17996Y4185D01*
X17962Y4172D01*
X17928Y4153D01*
X17973Y4031D01*
X17998Y4043D01*
X18022Y4052D01*
X18046Y4057D01*
X18070Y4059D01*
X18091Y4058D01*
X18111Y4053D01*
X18130Y4045D01*
X18148Y4033D01*
X18164Y4019D01*
X18177Y4002D01*
X18188Y3983D01*
X18197Y3961D01*
X18206Y3925D01*
X18213Y3887D01*
X18217Y3848D01*
X18219Y3807D01*
X18219Y3400D01*
X18351Y3400D01*
X18351Y3400D01*
X17902Y3632D02*
X17772Y3653D01*
X17764Y3616D01*
X17751Y3583D01*
X17733Y3556D01*
X17711Y3533D01*
X17683Y3514D01*
X17651Y3501D01*
X17613Y3493D01*
X17571Y3491D01*
X17528Y3493D01*
X17491Y3500D01*
X17461Y3512D01*
X17436Y3528D01*
X17417Y3547D01*
X17403Y3568D01*
X17395Y3590D01*
X17392Y3615D01*
X17394Y3636D01*
X17402Y3655D01*
X17414Y3671D01*
X17431Y3685D01*
X17449Y3694D01*
X17478Y3705D01*
X17517Y3717D01*
X17565Y3730D01*
X17632Y3747D01*
X17688Y3764D01*
X17733Y3779D01*
X17767Y3793D01*
X17793Y3808D01*
X17816Y3825D01*
X17835Y3845D01*
X17851Y3867D01*
X17864Y3891D01*
X17873Y3917D01*
X17879Y3943D01*
X17880Y3971D01*
X17879Y3997D01*
X17874Y4021D01*
X17867Y4045D01*
X17857Y4068D01*
X17844Y4089D01*
X17828Y4108D01*
X17811Y4126D01*
X17792Y4141D01*
X17775Y4152D01*
X17755Y4162D01*
X17733Y4171D01*
X17708Y4180D01*
X17681Y4187D01*
X17653Y4191D01*
X17624Y4194D01*
X17594Y4195D01*
X17550Y4194D01*
X17508Y4189D01*
X17469Y4181D01*
X17433Y4169D01*
X17401Y4155D01*
X17373Y4138D01*
X17350Y4119D01*
X17331Y4098D01*
X17316Y4073D01*
X17303Y4045D01*
X17293Y4013D01*
X17286Y3977D01*
X17415Y3960D01*
X17421Y3988D01*
X17432Y4013D01*
X17447Y4035D01*
X17465Y4053D01*
X17489Y4068D01*
X17516Y4079D01*
X17548Y4085D01*
X17584Y4087D01*
X17627Y4085D01*
X17662Y4080D01*
X17691Y4070D01*
X17714Y4057D01*
X17731Y4041D01*
X17743Y4024D01*
X17751Y4006D01*
X17753Y3987D01*
X17752Y3974D01*
X17749Y3962D01*
X17744Y3951D01*
X17737Y3941D01*
X17728Y3930D01*
X17716Y3921D01*
X17702Y3913D01*
X17686Y3905D01*
X17672Y3901D01*
X17647Y3893D01*
X17613Y3884D01*
X17570Y3872D01*
X17505Y3854D01*
X17451Y3838D01*
X17408Y3823D01*
X17375Y3811D01*
X17348Y3797D01*
X17325Y3781D01*
X17305Y3763D01*
X17288Y3741D01*
X17274Y3717D01*
X17264Y3690D01*
X17258Y3661D01*
X17256Y3629D01*
X17259Y3596D01*
X17266Y3565D01*
X17278Y3534D01*
X17295Y3504D01*
X17316Y3477D01*
X17342Y3453D01*
X17372Y3432D01*
X17406Y3414D01*
X17443Y3400D01*
X17483Y3390D01*
X17525Y3384D01*
X17570Y3382D01*
X17641Y3386D01*
X17703Y3398D01*
X17757Y3418D01*
X17801Y3445D01*
X17837Y3481D01*
X17866Y3524D01*
X17888Y3574D01*
X17902Y3632D01*
X17902Y3632D01*
X17099Y3400D02*
X17099Y4178D01*
X16967Y4178D01*
X16967Y3400D01*
X17099Y3400D01*
X17099Y3400D01*
X17099Y4322D02*
X17099Y4474D01*
X16967Y4474D01*
X16967Y4322D01*
X17099Y4322D01*
X17099Y4322D01*
X16815Y3789D02*
X16808Y3890D01*
X16785Y3977D01*
X16748Y4050D01*
X16695Y4109D01*
X16642Y4147D01*
X16584Y4174D01*
X16520Y4190D01*
X16451Y4195D01*
X16374Y4189D01*
X16305Y4169D01*
X16243Y4136D01*
X16188Y4090D01*
X16144Y4033D01*
X16112Y3965D01*
X16093Y3888D01*
X16087Y3800D01*
X16089Y3729D01*
X16098Y3666D01*
X16112Y3611D01*
X16132Y3564D01*
X16157Y3523D01*
X16187Y3487D01*
X16222Y3456D01*
X16263Y3430D01*
X16307Y3409D01*
X16353Y3394D01*
X16401Y3385D01*
X16451Y3382D01*
X16460Y3383D01*
X16451Y3491D01*
X16404Y3495D01*
X16361Y3509D01*
X16322Y3533D01*
X16287Y3566D01*
X16259Y3608D01*
X16238Y3660D01*
X16226Y3722D01*
X16222Y3793D01*
X16226Y3861D01*
X16239Y3920D01*
X16259Y3970D01*
X16288Y4012D01*
X16323Y4044D01*
X16361Y4068D01*
X16404Y4082D01*
X16451Y4086D01*
X16498Y4082D01*
X16541Y4068D01*
X16580Y4045D01*
X16615Y4012D01*
X16643Y3971D01*
X16664Y3919D01*
X16676Y3859D01*
X16680Y3789D01*
X16680Y3789D01*
X16676Y3719D01*
X16664Y3658D01*
X16643Y3607D01*
X16615Y3565D01*
X16580Y3533D01*
X16541Y3509D01*
X16498Y3495D01*
X16451Y3491D01*
X16460Y3383D01*
X16528Y3389D01*
X16598Y3409D01*
X16660Y3441D01*
X16715Y3487D01*
X16759Y3545D01*
X16790Y3615D01*
X16809Y3696D01*
X16815Y3789D01*
X16815Y3789D01*
X15932Y3400D02*
X15932Y4178D01*
X15813Y4178D01*
X15813Y4067D01*
X15766Y4123D01*
X15709Y4163D01*
X15642Y4187D01*
X15566Y4195D01*
X15531Y4194D01*
X15498Y4189D01*
X15467Y4181D01*
X15437Y4170D01*
X15409Y4157D01*
X15385Y4141D01*
X15365Y4123D01*
X15348Y4104D01*
X15335Y4082D01*
X15323Y4059D01*
X15314Y4034D01*
X15307Y4006D01*
X15304Y3985D01*
X15302Y3956D01*
X15301Y3921D01*
X15300Y3878D01*
X15300Y3400D01*
X15432Y3400D01*
X15432Y3873D01*
X15433Y3911D01*
X15436Y3944D01*
X15441Y3971D01*
X15447Y3994D01*
X15456Y4013D01*
X15469Y4030D01*
X15484Y4044D01*
X15502Y4057D01*
X15522Y4068D01*
X15544Y4075D01*
X15568Y4080D01*
X15594Y4081D01*
X15634Y4078D01*
X15672Y4068D01*
X15707Y4051D01*
X15739Y4028D01*
X15766Y3995D01*
X15785Y3950D01*
X15796Y3894D01*
X15800Y3825D01*
X15800Y3400D01*
X15932Y3400D01*
X15932Y3400D01*
X14221Y3400D02*
X14353Y3400D01*
X14353Y4240D01*
X14379Y4217D01*
X14408Y4195D01*
X14441Y4172D01*
X14478Y4149D01*
X14516Y4128D01*
X14551Y4110D01*
X14585Y4094D01*
X14617Y4081D01*
X14617Y4209D01*
X14563Y4236D01*
X14513Y4266D01*
X14466Y4299D01*
X14423Y4335D01*
X14385Y4371D01*
X14353Y4407D01*
X14326Y4443D01*
X14306Y4478D01*
X14221Y4478D01*
X14221Y3400D01*
X14221Y3400D01*
X13810Y3400D02*
X13810Y3550D01*
X13659Y3550D01*
X13659Y3400D01*
X13810Y3400D01*
X13810Y3400D01*
X12970Y3400D02*
X13102Y3400D01*
X13102Y4240D01*
X13128Y4217D01*
X13157Y4195D01*
X13190Y4172D01*
X13227Y4149D01*
X13265Y4128D01*
X13300Y4110D01*
X13334Y4094D01*
X13366Y4081D01*
X13366Y4209D01*
X13312Y4236D01*
X13262Y4266D01*
X13215Y4299D01*
X13172Y4335D01*
X13134Y4371D01*
X13102Y4407D01*
X13075Y4443D01*
X13055Y4478D01*
X12970Y4478D01*
X12970Y3400D01*
X12970Y3400D01*
X12559Y3400D02*
X12559Y3550D01*
X12408Y3550D01*
X12408Y3400D01*
X12559Y3400D01*
X12559Y3400D01*
X12216Y3930D02*
X12213Y4020D01*
X12206Y4101D01*
X12194Y4173D01*
X12177Y4236D01*
X12155Y4291D01*
X12128Y4339D01*
X12096Y4380D01*
X12060Y4415D01*
X12019Y4443D01*
X11973Y4462D01*
X11922Y4474D01*
X11866Y4478D01*
X11824Y4476D01*
X11785Y4469D01*
X11748Y4459D01*
X11714Y4443D01*
X11683Y4424D01*
X11655Y4401D01*
X11629Y4374D01*
X11606Y4343D01*
X11586Y4308D01*
X11569Y4270D01*
X11553Y4229D01*
X11540Y4183D01*
X11529Y4132D01*
X11522Y4073D01*
X11517Y4005D01*
X11516Y3930D01*
X11518Y3840D01*
X11525Y3759D01*
X11537Y3687D01*
X11554Y3624D01*
X11576Y3570D01*
X11603Y3522D01*
X11634Y3480D01*
X11671Y3445D01*
X11712Y3417D01*
X11758Y3398D01*
X11809Y3386D01*
X11866Y3382D01*
X11876Y3383D01*
X11866Y3490D01*
X11822Y3496D01*
X11782Y3512D01*
X11746Y3540D01*
X11713Y3578D01*
X11686Y3633D01*
X11667Y3710D01*
X11655Y3809D01*
X11651Y3930D01*
X11655Y4051D01*
X11667Y4150D01*
X11686Y4227D01*
X11713Y4282D01*
X11746Y4320D01*
X11783Y4347D01*
X11823Y4364D01*
X11867Y4369D01*
X11910Y4364D01*
X11949Y4350D01*
X11983Y4326D01*
X12012Y4292D01*
X12042Y4233D01*
X12063Y4152D01*
X12076Y4051D01*
X12080Y3930D01*
X12080Y3930D01*
X12076Y3808D01*
X12065Y3709D01*
X12046Y3632D01*
X12018Y3578D01*
X11986Y3539D01*
X11949Y3512D01*
X11909Y3496D01*
X11866Y3490D01*
X11876Y3383D01*
X11939Y3389D01*
X12004Y3410D01*
X12061Y3444D01*
X12110Y3493D01*
X12156Y3571D01*
X12189Y3669D01*
X12209Y3789D01*
X12216Y3930D01*
X12216Y3930D01*
X29581Y8900D02*
X29581Y10163D01*
X30053Y10163D01*
X30053Y10332D01*
X28918Y10332D01*
X28918Y10163D01*
X29392Y10163D01*
X29392Y8900D01*
X29581Y8900D01*
X29581Y8900D01*
X28820Y8900D02*
X28820Y9937D01*
X28644Y9937D01*
X28644Y8900D01*
X28820Y8900D01*
X28820Y8900D01*
X28820Y10129D02*
X28820Y10332D01*
X28644Y10332D01*
X28644Y10129D01*
X28820Y10129D01*
X28820Y10129D01*
X28376Y8900D02*
X28376Y9937D01*
X28218Y9937D01*
X28218Y9790D01*
X28155Y9864D01*
X28079Y9918D01*
X27990Y9950D01*
X27888Y9961D01*
X27842Y9958D01*
X27798Y9952D01*
X27756Y9942D01*
X27716Y9927D01*
X27679Y9909D01*
X27647Y9888D01*
X27620Y9865D01*
X27598Y9838D01*
X27580Y9810D01*
X27565Y9779D01*
X27553Y9745D01*
X27543Y9709D01*
X27539Y9680D01*
X27536Y9641D01*
X27534Y9594D01*
X27534Y9538D01*
X27534Y8900D01*
X27709Y8900D01*
X27709Y9531D01*
X27711Y9581D01*
X27715Y9625D01*
X27721Y9662D01*
X27730Y9692D01*
X27742Y9717D01*
X27758Y9739D01*
X27779Y9759D01*
X27803Y9776D01*
X27830Y9790D01*
X27860Y9800D01*
X27891Y9806D01*
X27925Y9808D01*
X27980Y9804D01*
X28030Y9790D01*
X28076Y9768D01*
X28119Y9737D01*
X28155Y9693D01*
X28180Y9634D01*
X28196Y9558D01*
X28201Y9466D01*
X28201Y8900D01*
X28376Y8900D01*
X28376Y8900D01*
X27272Y8501D02*
X27292Y8666D01*
X27264Y8659D01*
X27238Y8654D01*
X27213Y8651D01*
X27191Y8650D01*
X27163Y8651D01*
X27138Y8655D01*
X27116Y8661D01*
X27097Y8670D01*
X27080Y8680D01*
X27065Y8693D01*
X27052Y8708D01*
X27040Y8724D01*
X27030Y8742D01*
X27018Y8770D01*
X27003Y8808D01*
X26986Y8855D01*
X26983Y8863D01*
X26979Y8873D01*
X26975Y8885D01*
X26970Y8898D01*
X27364Y9937D01*
X27174Y9937D01*
X26959Y9337D01*
X26938Y9279D01*
X26919Y9219D01*
X26900Y9159D01*
X26883Y9096D01*
X26867Y9156D01*
X26850Y9216D01*
X26831Y9275D01*
X26811Y9333D01*
X26589Y9937D01*
X26414Y9937D01*
X26808Y8882D01*
X26838Y8804D01*
X26865Y8738D01*
X26887Y8686D01*
X26907Y8647D01*
X26931Y8607D01*
X26957Y8572D01*
X26985Y8543D01*
X27014Y8520D01*
X27046Y8502D01*
X27081Y8489D01*
X27118Y8482D01*
X27159Y8479D01*
X27185Y8480D01*
X27212Y8484D01*
X27241Y8491D01*
X27272Y8501D01*
X27272Y8501D01*
X24747Y10332D02*
X24557Y10332D01*
X24557Y9504D01*
X24560Y9402D01*
X24569Y9311D01*
X24585Y9231D01*
X24606Y9162D01*
X24635Y9101D01*
X24674Y9047D01*
X24723Y8998D01*
X24782Y8955D01*
X24851Y8920D01*
X24930Y8895D01*
X25018Y8881D01*
X25117Y8876D01*
X25213Y8880D01*
X25300Y8893D01*
X25377Y8915D01*
X25446Y8945D01*
X25505Y8983D01*
X25555Y9030D01*
X25596Y9084D01*
X25628Y9146D01*
X25652Y9217D01*
X25669Y9301D01*
X25680Y9397D01*
X25683Y9504D01*
X25683Y10332D01*
X25494Y10332D01*
X25494Y9505D01*
X25491Y9418D01*
X25485Y9343D01*
X25474Y9281D01*
X25459Y9231D01*
X25438Y9189D01*
X25412Y9152D01*
X25379Y9121D01*
X25340Y9094D01*
X25295Y9073D01*
X25246Y9058D01*
X25192Y9049D01*
X25133Y9046D01*
X25036Y9052D01*
X24954Y9070D01*
X24887Y9100D01*
X24835Y9141D01*
X24797Y9199D01*
X24769Y9280D01*
X24752Y9382D01*
X24747Y9505D01*
X24747Y10332D01*
X24747Y10332D01*
X24306Y9360D02*
X24127Y9376D01*
X24119Y9324D01*
X24106Y9278D01*
X24089Y9236D01*
X24068Y9199D01*
X24042Y9167D01*
X24009Y9137D01*
X23970Y9111D01*
X23924Y9088D01*
X23874Y9069D01*
X23820Y9056D01*
X23764Y9048D01*
X23705Y9046D01*
X23652Y9048D01*
X23602Y9054D01*
X23556Y9064D01*
X23513Y9078D01*
X23474Y9095D01*
X23441Y9116D01*
X23413Y9140D01*
X23390Y9166D01*
X23372Y9195D01*
X23359Y9225D01*
X23352Y9256D01*
X23349Y9289D01*
X23352Y9321D01*
X23359Y9352D01*
X23371Y9380D01*
X23388Y9406D01*
X23411Y9430D01*
X23440Y9453D01*
X23475Y9473D01*
X23517Y9491D01*
X23555Y9504D01*
X23610Y9520D01*
X23682Y9539D01*
X23772Y9561D01*
X23863Y9584D01*
X23940Y9607D01*
X24001Y9629D01*
X24048Y9650D01*
X24096Y9678D01*
X24138Y9710D01*
X24173Y9745D01*
X24201Y9783D01*
X24223Y9824D01*
X24239Y9868D01*
X24248Y9913D01*
X24251Y9962D01*
X24248Y10015D01*
X24236Y10066D01*
X24217Y10116D01*
X24190Y10164D01*
X24156Y10208D01*
X24114Y10247D01*
X24066Y10280D01*
X24010Y10307D01*
X23949Y10329D01*
X23885Y10344D01*
X23818Y10353D01*
X23747Y10356D01*
X23670Y10353D01*
X23598Y10343D01*
X23530Y10327D01*
X23467Y10305D01*
X23409Y10276D01*
X23359Y10241D01*
X23316Y10201D01*
X23280Y10154D01*
X23251Y10102D01*
X23229Y10048D01*
X23216Y9990D01*
X23209Y9928D01*
X23391Y9915D01*
X23403Y9978D01*
X23423Y10034D01*
X23452Y10081D01*
X23490Y10120D01*
X23537Y10150D01*
X23595Y10172D01*
X23662Y10185D01*
X23740Y10189D01*
X23820Y10185D01*
X23888Y10173D01*
X23945Y10154D01*
X23990Y10126D01*
X24025Y10093D01*
X24049Y10057D01*
X24064Y10017D01*
X24069Y9974D01*
X24065Y9937D01*
X24055Y9904D01*
X24037Y9874D01*
X24013Y9847D01*
X23975Y9822D01*
X23914Y9797D01*
X23832Y9771D01*
X23727Y9745D01*
X23621Y9720D01*
X23533Y9696D01*
X23463Y9674D01*
X23411Y9654D01*
X23352Y9623D01*
X23302Y9589D01*
X23260Y9550D01*
X23226Y9508D01*
X23200Y9462D01*
X23181Y9413D01*
X23170Y9360D01*
X23166Y9304D01*
X23171Y9248D01*
X23183Y9193D01*
X23203Y9140D01*
X23232Y9089D01*
X23268Y9041D01*
X23312Y8999D01*
X23362Y8963D01*
X23420Y8932D01*
X23483Y8907D01*
X23550Y8890D01*
X23621Y8879D01*
X23696Y8876D01*
X23789Y8879D01*
X23874Y8890D01*
X23952Y8907D01*
X24021Y8932D01*
X24084Y8964D01*
X24139Y9003D01*
X24187Y9049D01*
X24227Y9103D01*
X24260Y9161D01*
X24284Y9224D01*
X24300Y9290D01*
X24306Y9360D01*
X24306Y9360D01*
X22915Y8900D02*
X22915Y10332D01*
X22378Y10332D01*
X22300Y10329D01*
X22230Y10321D01*
X22169Y10307D01*
X22115Y10288D01*
X22068Y10264D01*
X22027Y10233D01*
X21991Y10197D01*
X21960Y10154D01*
X21935Y10109D01*
X21918Y10062D01*
X21907Y10014D01*
X21904Y9965D01*
X21907Y9920D01*
X21916Y9876D01*
X21932Y9834D01*
X21954Y9793D01*
X21982Y9754D01*
X22016Y9719D01*
X22057Y9689D01*
X22104Y9662D01*
X22160Y9527D01*
X22185Y9537D01*
X22226Y9548D01*
X22274Y9555D01*
X22331Y9560D01*
X22395Y9561D01*
X22726Y9561D01*
X22726Y9069D01*
X22726Y9069D01*
X22370Y9069D01*
X22327Y9069D01*
X22291Y9071D01*
X22263Y9073D01*
X22241Y9076D01*
X22209Y9083D01*
X22181Y9091D01*
X22155Y9102D01*
X22131Y9115D01*
X22110Y9130D01*
X22091Y9148D01*
X22074Y9170D01*
X22059Y9194D01*
X22047Y9222D01*
X22038Y9251D01*
X22032Y9282D01*
X22031Y9315D01*
X22033Y9354D01*
X22041Y9390D01*
X22054Y9423D01*
X22072Y9454D01*
X22094Y9482D01*
X22121Y9504D01*
X22151Y9523D01*
X22160Y9527D01*
X22104Y9662D01*
X22172Y9775D01*
X22147Y9795D01*
X22127Y9818D01*
X22111Y9844D01*
X22099Y9874D01*
X22093Y9907D01*
X22090Y9943D01*
X22092Y9978D01*
X22099Y10010D01*
X22109Y10040D01*
X22124Y10068D01*
X22143Y10093D01*
X22166Y10114D01*
X22192Y10131D01*
X22222Y10143D01*
X22259Y10151D01*
X22308Y10158D01*
X22368Y10161D01*
X22440Y10163D01*
X22726Y10163D01*
X22726Y9730D01*
X22726Y9730D01*
X22416Y9730D01*
X22358Y9731D01*
X22308Y9734D01*
X22268Y9739D01*
X22236Y9747D01*
X22202Y9759D01*
X22172Y9775D01*
X22104Y9662D01*
X22043Y9639D01*
X21989Y9610D01*
X21943Y9574D01*
X21904Y9532D01*
X21874Y9484D01*
X21852Y9432D01*
X21839Y9375D01*
X21834Y9315D01*
X21837Y9266D01*
X21845Y9218D01*
X21858Y9172D01*
X21877Y9128D01*
X21899Y9087D01*
X21924Y9051D01*
X21952Y9021D01*
X21982Y8995D01*
X22015Y8973D01*
X22052Y8954D01*
X22093Y8937D01*
X22139Y8924D01*
X22188Y8913D01*
X22243Y8906D01*
X22304Y8901D01*
X22370Y8900D01*
X22915Y8900D01*
X22915Y8900D01*
X20368Y8900D02*
X20368Y9031D01*
X20447Y9113D01*
X20445Y9115D01*
X20410Y9169D01*
X20385Y9234D01*
X20370Y9312D01*
X20365Y9403D01*
X20370Y9502D01*
X20385Y9588D01*
X20411Y9659D01*
X20447Y9715D01*
X20490Y9759D01*
X20538Y9790D01*
X20591Y9809D01*
X20649Y9815D01*
X20705Y9809D01*
X20756Y9791D01*
X20803Y9761D01*
X20845Y9719D01*
X20879Y9665D01*
X20904Y9596D01*
X20918Y9514D01*
X20923Y9418D01*
X20923Y9418D01*
X20918Y9324D01*
X20902Y9244D01*
X20876Y9175D01*
X20839Y9120D01*
X20795Y9077D01*
X20748Y9046D01*
X20696Y9027D01*
X20641Y9021D01*
X20586Y9027D01*
X20534Y9045D01*
X20488Y9074D01*
X20447Y9113D01*
X20368Y9031D01*
X20423Y8963D01*
X20489Y8915D01*
X20568Y8886D01*
X20658Y8877D01*
X20718Y8881D01*
X20777Y8894D01*
X20832Y8915D01*
X20886Y8945D01*
X20935Y8982D01*
X20978Y9027D01*
X21015Y9078D01*
X21047Y9136D01*
X21072Y9199D01*
X21090Y9268D01*
X21100Y9340D01*
X21104Y9418D01*
X21101Y9493D01*
X21091Y9566D01*
X21075Y9634D01*
X21052Y9699D01*
X21023Y9759D01*
X20987Y9811D01*
X20945Y9856D01*
X20897Y9893D01*
X20844Y9923D01*
X20787Y9944D01*
X20728Y9956D01*
X20665Y9961D01*
X20620Y9958D01*
X20577Y9951D01*
X20536Y9938D01*
X20498Y9921D01*
X20464Y9900D01*
X20432Y9875D01*
X20404Y9848D01*
X20379Y9818D01*
X20379Y10332D01*
X20204Y10332D01*
X20204Y8900D01*
X20368Y8900D01*
X20368Y8900D01*
X19248Y8900D02*
X19248Y9052D01*
X19314Y8975D01*
X19391Y8921D01*
X19479Y8888D01*
X19578Y8877D01*
X19623Y8879D01*
X19666Y8885D01*
X19708Y8896D01*
X19749Y8912D01*
X19786Y8930D01*
X19818Y8951D01*
X19845Y8975D01*
X19867Y9000D01*
X19885Y9028D01*
X19900Y9059D01*
X19912Y9093D01*
X19921Y9130D01*
X19926Y9160D01*
X19929Y9197D01*
X19931Y9242D01*
X19932Y9295D01*
X19932Y9937D01*
X19756Y9937D01*
X19756Y9362D01*
X19756Y9299D01*
X19754Y9247D01*
X19750Y9206D01*
X19745Y9176D01*
X19735Y9144D01*
X19720Y9114D01*
X19700Y9089D01*
X19675Y9067D01*
X19647Y9050D01*
X19615Y9038D01*
X19580Y9030D01*
X19542Y9028D01*
X19503Y9030D01*
X19466Y9038D01*
X19429Y9051D01*
X19394Y9068D01*
X19362Y9091D01*
X19335Y9116D01*
X19313Y9146D01*
X19296Y9179D01*
X19283Y9218D01*
X19274Y9264D01*
X19269Y9319D01*
X19267Y9381D01*
X19267Y9937D01*
X19091Y9937D01*
X19091Y8900D01*
X19248Y8900D01*
X19248Y8900D01*
X18139Y9028D02*
X18187Y8989D01*
X18194Y8985D01*
X18261Y9083D01*
X18230Y9111D01*
X18203Y9144D01*
X18182Y9180D01*
X18170Y9214D01*
X18161Y9254D01*
X18155Y9301D01*
X18154Y9356D01*
X18154Y9421D01*
X18154Y9421D01*
X18208Y9402D01*
X18273Y9384D01*
X18351Y9369D01*
X18441Y9354D01*
X18491Y9346D01*
X18533Y9337D01*
X18568Y9328D01*
X18594Y9319D01*
X18615Y9308D01*
X18634Y9295D01*
X18650Y9279D01*
X18663Y9262D01*
X18674Y9242D01*
X18682Y9222D01*
X18686Y9201D01*
X18688Y9178D01*
X18685Y9145D01*
X18675Y9114D01*
X18658Y9086D01*
X18635Y9061D01*
X18605Y9041D01*
X18569Y9026D01*
X18527Y9017D01*
X18479Y9014D01*
X18429Y9017D01*
X18383Y9025D01*
X18339Y9039D01*
X18298Y9059D01*
X18261Y9083D01*
X18194Y8985D01*
X18235Y8957D01*
X18281Y8931D01*
X18327Y8911D01*
X18373Y8896D01*
X18421Y8885D01*
X18470Y8879D01*
X18521Y8877D01*
X18601Y8882D01*
X18672Y8897D01*
X18733Y8924D01*
X18784Y8960D01*
X18824Y9005D01*
X18852Y9055D01*
X18870Y9111D01*
X18875Y9173D01*
X18873Y9211D01*
X18867Y9246D01*
X18856Y9280D01*
X18841Y9313D01*
X18822Y9343D01*
X18801Y9369D01*
X18777Y9393D01*
X18750Y9414D01*
X18721Y9432D01*
X18690Y9447D01*
X18658Y9460D01*
X18623Y9471D01*
X18594Y9478D01*
X18558Y9485D01*
X18516Y9491D01*
X18467Y9498D01*
X18368Y9511D01*
X18282Y9525D01*
X18211Y9541D01*
X18154Y9558D01*
X18153Y9575D01*
X18153Y9588D01*
X18153Y9598D01*
X18153Y9604D01*
X18156Y9654D01*
X18165Y9696D01*
X18181Y9730D01*
X18202Y9755D01*
X18240Y9782D01*
X18286Y9800D01*
X18340Y9811D01*
X18403Y9815D01*
X18461Y9812D01*
X18510Y9804D01*
X18552Y9791D01*
X18586Y9772D01*
X18613Y9746D01*
X18637Y9711D01*
X18657Y9669D01*
X18673Y9618D01*
X18845Y9641D01*
X18831Y9694D01*
X18814Y9741D01*
X18793Y9783D01*
X18768Y9819D01*
X18738Y9851D01*
X18702Y9879D01*
X18660Y9904D01*
X18613Y9924D01*
X18560Y9940D01*
X18503Y9951D01*
X18442Y9958D01*
X18377Y9961D01*
X18314Y9959D01*
X18257Y9953D01*
X18206Y9943D01*
X18161Y9929D01*
X18123Y9913D01*
X18089Y9894D01*
X18062Y9873D01*
X18039Y9851D01*
X18021Y9825D01*
X18006Y9797D01*
X17994Y9766D01*
X17985Y9731D01*
X17981Y9704D01*
X17978Y9668D01*
X17976Y9623D01*
X17976Y9569D01*
X17976Y9335D01*
X17975Y9223D01*
X17973Y9134D01*
X17970Y9068D01*
X17965Y9025D01*
X17958Y8992D01*
X17948Y8961D01*
X17936Y8930D01*
X17920Y8900D01*
X18104Y8900D01*
X18116Y8929D01*
X18126Y8959D01*
X18134Y8992D01*
X18139Y9028D01*
X18139Y9028D01*
X17707Y8900D02*
X17707Y10332D01*
X17532Y10332D01*
X17532Y8900D01*
X17707Y8900D01*
X17707Y8900D01*
X16705Y8900D02*
X16705Y9937D01*
X16547Y9937D01*
X16547Y9780D01*
X16518Y9830D01*
X16489Y9871D01*
X16462Y9903D01*
X16435Y9925D01*
X16409Y9941D01*
X16382Y9952D01*
X16353Y9958D01*
X16323Y9961D01*
X16278Y9957D01*
X16233Y9946D01*
X16188Y9929D01*
X16142Y9904D01*
X16203Y9741D01*
X16235Y9757D01*
X16267Y9769D01*
X16299Y9777D01*
X16331Y9779D01*
X16360Y9777D01*
X16386Y9770D01*
X16411Y9759D01*
X16435Y9744D01*
X16456Y9725D01*
X16474Y9703D01*
X16489Y9677D01*
X16500Y9648D01*
X16513Y9600D01*
X16522Y9550D01*
X16528Y9498D01*
X16530Y9443D01*
X16530Y8900D01*
X16705Y8900D01*
X16705Y8900D01*
X15361Y9028D02*
X15409Y8989D01*
X15416Y8985D01*
X15483Y9083D01*
X15451Y9111D01*
X15425Y9144D01*
X15404Y9180D01*
X15391Y9214D01*
X15383Y9254D01*
X15377Y9301D01*
X15375Y9356D01*
X15375Y9421D01*
X15375Y9421D01*
X15429Y9402D01*
X15495Y9384D01*
X15573Y9369D01*
X15663Y9354D01*
X15713Y9346D01*
X15755Y9337D01*
X15789Y9328D01*
X15816Y9319D01*
X15837Y9308D01*
X15856Y9295D01*
X15872Y9279D01*
X15885Y9262D01*
X15896Y9242D01*
X15904Y9222D01*
X15908Y9201D01*
X15910Y9178D01*
X15906Y9145D01*
X15896Y9114D01*
X15880Y9086D01*
X15856Y9061D01*
X15827Y9041D01*
X15791Y9026D01*
X15749Y9017D01*
X15701Y9014D01*
X15651Y9017D01*
X15605Y9025D01*
X15561Y9039D01*
X15520Y9059D01*
X15483Y9083D01*
X15416Y8985D01*
X15457Y8957D01*
X15503Y8931D01*
X15549Y8911D01*
X15595Y8896D01*
X15642Y8885D01*
X15692Y8879D01*
X15743Y8877D01*
X15823Y8882D01*
X15894Y8897D01*
X15954Y8924D01*
X16005Y8960D01*
X16045Y9005D01*
X16074Y9055D01*
X16091Y9111D01*
X16097Y9173D01*
X16095Y9211D01*
X16088Y9246D01*
X16078Y9280D01*
X16062Y9313D01*
X16044Y9343D01*
X16022Y9369D01*
X15998Y9393D01*
X15972Y9414D01*
X15943Y9432D01*
X15912Y9447D01*
X15879Y9460D01*
X15845Y9471D01*
X15816Y9478D01*
X15780Y9485D01*
X15738Y9491D01*
X15689Y9498D01*
X15589Y9511D01*
X15504Y9525D01*
X15433Y9541D01*
X15375Y9558D01*
X15375Y9575D01*
X15375Y9588D01*
X15375Y9598D01*
X15374Y9604D01*
X15378Y9654D01*
X15387Y9696D01*
X15402Y9730D01*
X15424Y9755D01*
X15462Y9782D01*
X15508Y9800D01*
X15562Y9811D01*
X15624Y9815D01*
X15682Y9812D01*
X15732Y9804D01*
X15774Y9791D01*
X15808Y9772D01*
X15835Y9746D01*
X15859Y9711D01*
X15879Y9669D01*
X15895Y9618D01*
X16067Y9641D01*
X16053Y9694D01*
X16036Y9741D01*
X16015Y9783D01*
X15990Y9819D01*
X15960Y9851D01*
X15924Y9879D01*
X15882Y9904D01*
X15834Y9924D01*
X15782Y9940D01*
X15725Y9951D01*
X15664Y9958D01*
X15599Y9961D01*
X15536Y9959D01*
X15479Y9953D01*
X15428Y9943D01*
X15383Y9929D01*
X15344Y9913D01*
X15311Y9894D01*
X15283Y9873D01*
X15261Y9851D01*
X15243Y9825D01*
X15228Y9797D01*
X15216Y9766D01*
X15206Y9731D01*
X15203Y9704D01*
X15200Y9668D01*
X15198Y9623D01*
X15198Y9569D01*
X15198Y9335D01*
X15197Y9223D01*
X15195Y9134D01*
X15191Y9068D01*
X15186Y9025D01*
X15179Y8992D01*
X15170Y8961D01*
X15157Y8930D01*
X15142Y8900D01*
X15326Y8900D01*
X15338Y8929D01*
X15348Y8959D01*
X15356Y8992D01*
X15361Y9028D01*
X15361Y9028D01*
X14924Y8900D02*
X14924Y9937D01*
X14748Y9937D01*
X14748Y8900D01*
X14924Y8900D01*
X14924Y8900D01*
X14924Y10129D02*
X14924Y10332D01*
X14748Y10332D01*
X14748Y10129D01*
X14924Y10129D01*
X14924Y10129D01*
X14485Y8900D02*
X14485Y10332D01*
X14309Y10332D01*
X14309Y8900D01*
X14485Y8900D01*
X14485Y8900D01*
X13481Y8503D02*
X13481Y9937D01*
X13321Y9937D01*
X13321Y9802D01*
X13235Y9718D01*
X13235Y9718D01*
X13273Y9659D01*
X13300Y9589D01*
X13316Y9507D01*
X13322Y9413D01*
X13322Y9413D01*
X13317Y9319D01*
X13302Y9239D01*
X13276Y9171D01*
X13241Y9117D01*
X13198Y9075D01*
X13151Y9045D01*
X13100Y9027D01*
X13044Y9021D01*
X12988Y9027D01*
X12936Y9046D01*
X12888Y9077D01*
X12844Y9120D01*
X12807Y9177D01*
X12781Y9247D01*
X12766Y9330D01*
X12760Y9427D01*
X12765Y9520D01*
X12781Y9601D01*
X12806Y9669D01*
X12842Y9724D01*
X12885Y9767D01*
X12931Y9798D01*
X12982Y9817D01*
X13037Y9823D01*
X13091Y9816D01*
X13142Y9797D01*
X13191Y9764D01*
X13235Y9718D01*
X13321Y9802D01*
X13292Y9839D01*
X13261Y9872D01*
X13228Y9899D01*
X13193Y9921D01*
X13155Y9938D01*
X13114Y9951D01*
X13069Y9958D01*
X13020Y9961D01*
X12956Y9956D01*
X12895Y9943D01*
X12838Y9922D01*
X12786Y9892D01*
X12738Y9854D01*
X12697Y9810D01*
X12661Y9758D01*
X12632Y9699D01*
X12610Y9636D01*
X12594Y9569D01*
X12584Y9499D01*
X12581Y9426D01*
X12584Y9349D01*
X12595Y9275D01*
X12613Y9205D01*
X12638Y9140D01*
X12670Y9080D01*
X12708Y9027D01*
X12753Y8982D01*
X12804Y8944D01*
X12859Y8915D01*
X12915Y8894D01*
X12973Y8881D01*
X13033Y8877D01*
X13076Y8879D01*
X13116Y8886D01*
X13154Y8897D01*
X13190Y8914D01*
X13224Y8933D01*
X13254Y8956D01*
X13281Y8980D01*
X13305Y9007D01*
X13305Y8503D01*
X13481Y8503D01*
X13481Y8503D01*
X12434Y9419D02*
X12424Y9553D01*
X12394Y9669D01*
X12344Y9767D01*
X12274Y9845D01*
X12203Y9896D01*
X12126Y9932D01*
X12040Y9953D01*
X11948Y9961D01*
X11846Y9952D01*
X11753Y9926D01*
X11671Y9882D01*
X11598Y9820D01*
X11539Y9744D01*
X11496Y9654D01*
X11471Y9550D01*
X11462Y9433D01*
X11466Y9338D01*
X11477Y9254D01*
X11496Y9181D01*
X11522Y9118D01*
X11556Y9064D01*
X11596Y9016D01*
X11643Y8975D01*
X11697Y8940D01*
X11756Y8912D01*
X11817Y8892D01*
X11881Y8881D01*
X11948Y8877D01*
X11960Y8878D01*
X11948Y9021D01*
X11885Y9027D01*
X11828Y9046D01*
X11776Y9077D01*
X11730Y9121D01*
X11692Y9177D01*
X11665Y9246D01*
X11649Y9329D01*
X11643Y9424D01*
X11649Y9515D01*
X11665Y9593D01*
X11692Y9661D01*
X11730Y9716D01*
X11777Y9759D01*
X11829Y9790D01*
X11885Y9809D01*
X11948Y9815D01*
X12011Y9809D01*
X12068Y9790D01*
X12120Y9760D01*
X12167Y9716D01*
X12205Y9661D01*
X12232Y9593D01*
X12248Y9512D01*
X12253Y9419D01*
X12253Y9419D01*
X12248Y9325D01*
X12232Y9244D01*
X12205Y9176D01*
X12167Y9120D01*
X12120Y9077D01*
X12068Y9046D01*
X12011Y9027D01*
X11948Y9021D01*
X11960Y8878D01*
X12051Y8885D01*
X12145Y8911D01*
X12227Y8955D01*
X12300Y9016D01*
X12359Y9094D01*
X12401Y9187D01*
X12426Y9295D01*
X12434Y9419D01*
X12434Y9419D01*
X11065Y8900D02*
X11382Y9937D01*
X11201Y9937D01*
X11036Y9338D01*
X10974Y9116D01*
X10969Y9135D01*
X10959Y9178D01*
X10942Y9242D01*
X10920Y9330D01*
X10755Y9937D01*
X10575Y9937D01*
X10419Y9336D01*
X10368Y9137D01*
X10308Y9338D01*
X10130Y9937D01*
X9959Y9937D01*
X10284Y8900D01*
X10466Y8900D01*
X10631Y9521D01*
X10671Y9698D01*
X10881Y8900D01*
X11065Y8900D01*
X11065Y8900D01*
X9102Y9234D02*
X8920Y9212D01*
X8946Y9136D01*
X8982Y9070D01*
X9026Y9013D01*
X9080Y8964D01*
X9142Y8926D01*
X9212Y8899D01*
X9290Y8882D01*
X9376Y8877D01*
X9484Y8885D01*
X9580Y8912D01*
X9665Y8955D01*
X9737Y9017D01*
X9796Y9094D01*
X9837Y9185D01*
X9862Y9290D01*
X9871Y9410D01*
X9862Y9533D01*
X9837Y9642D01*
X9795Y9736D01*
X9736Y9816D01*
X9663Y9879D01*
X9581Y9924D01*
X9489Y9952D01*
X9386Y9961D01*
X9371Y9959D01*
X9384Y9816D01*
X9442Y9811D01*
X9496Y9796D01*
X9544Y9770D01*
X9588Y9735D01*
X9625Y9691D01*
X9652Y9640D01*
X9670Y9583D01*
X9679Y9518D01*
X9679Y9518D01*
X9100Y9518D01*
X9109Y9580D01*
X9123Y9633D01*
X9142Y9678D01*
X9166Y9714D01*
X9212Y9759D01*
X9263Y9791D01*
X9320Y9810D01*
X9384Y9816D01*
X9371Y9959D01*
X9287Y9952D01*
X9197Y9925D01*
X9117Y9881D01*
X9046Y9819D01*
X8989Y9741D01*
X8948Y9649D01*
X8923Y9542D01*
X8915Y9421D01*
X8915Y9412D01*
X8915Y9401D01*
X8915Y9388D01*
X8916Y9374D01*
X9689Y9374D01*
X9679Y9293D01*
X9660Y9223D01*
X9631Y9162D01*
X9592Y9112D01*
X9546Y9072D01*
X9495Y9044D01*
X9438Y9027D01*
X9375Y9021D01*
X9329Y9024D01*
X9286Y9034D01*
X9246Y9050D01*
X9210Y9072D01*
X9178Y9101D01*
X9149Y9138D01*
X9124Y9182D01*
X9102Y9234D01*
X9102Y9234D01*
X8702Y8900D02*
X8702Y9937D01*
X8543Y9937D01*
X8543Y9780D01*
X8514Y9830D01*
X8485Y9871D01*
X8458Y9903D01*
X8432Y9925D01*
X8405Y9941D01*
X8378Y9952D01*
X8349Y9958D01*
X8319Y9961D01*
X8274Y9957D01*
X8229Y9946D01*
X8184Y9929D01*
X8138Y9904D01*
X8199Y9741D01*
X8231Y9757D01*
X8263Y9769D01*
X8295Y9777D01*
X8328Y9779D01*
X8356Y9777D01*
X8382Y9770D01*
X8407Y9759D01*
X8431Y9744D01*
X8452Y9725D01*
X8470Y9703D01*
X8485Y9677D01*
X8497Y9648D01*
X8509Y9600D01*
X8519Y9550D01*
X8524Y9498D01*
X8526Y9443D01*
X8526Y8900D01*
X8702Y8900D01*
X8702Y8900D01*
X7548Y9210D02*
X7375Y9237D01*
X7364Y9188D01*
X7347Y9145D01*
X7323Y9108D01*
X7293Y9077D01*
X7256Y9052D01*
X7213Y9035D01*
X7163Y9025D01*
X7106Y9021D01*
X7049Y9024D01*
X7001Y9033D01*
X6959Y9049D01*
X6926Y9070D01*
X6901Y9096D01*
X6882Y9124D01*
X6871Y9154D01*
X6868Y9186D01*
X6871Y9214D01*
X6881Y9239D01*
X6897Y9261D01*
X6919Y9280D01*
X6944Y9292D01*
X6982Y9306D01*
X7034Y9322D01*
X7099Y9339D01*
X7188Y9363D01*
X7263Y9385D01*
X7322Y9405D01*
X7367Y9424D01*
X7402Y9443D01*
X7433Y9466D01*
X7459Y9493D01*
X7480Y9523D01*
X7497Y9555D01*
X7509Y9589D01*
X7517Y9624D01*
X7519Y9662D01*
X7517Y9696D01*
X7511Y9728D01*
X7501Y9760D01*
X7487Y9790D01*
X7470Y9818D01*
X7450Y9844D01*
X7427Y9867D01*
X7401Y9888D01*
X7379Y9903D01*
X7352Y9916D01*
X7323Y9928D01*
X7289Y9940D01*
X7253Y9949D01*
X7216Y9955D01*
X7177Y9959D01*
X7137Y9961D01*
X7078Y9958D01*
X7023Y9952D01*
X6971Y9941D01*
X6923Y9925D01*
X6880Y9906D01*
X6843Y9884D01*
X6812Y9859D01*
X6787Y9830D01*
X6766Y9798D01*
X6750Y9760D01*
X6736Y9717D01*
X6726Y9670D01*
X6898Y9646D01*
X6907Y9684D01*
X6921Y9717D01*
X6941Y9746D01*
X6966Y9771D01*
X6997Y9791D01*
X7034Y9805D01*
X7076Y9813D01*
X7125Y9816D01*
X7181Y9814D01*
X7228Y9806D01*
X7267Y9793D01*
X7297Y9776D01*
X7320Y9755D01*
X7336Y9733D01*
X7346Y9708D01*
X7349Y9682D01*
X7348Y9666D01*
X7344Y9650D01*
X7337Y9635D01*
X7328Y9621D01*
X7315Y9607D01*
X7300Y9595D01*
X7282Y9584D01*
X7260Y9574D01*
X7241Y9567D01*
X7208Y9558D01*
X7163Y9545D01*
X7105Y9529D01*
X7019Y9505D01*
X6947Y9484D01*
X6889Y9464D01*
X6845Y9447D01*
X6810Y9430D01*
X6779Y9408D01*
X6752Y9384D01*
X6729Y9355D01*
X6711Y9323D01*
X6698Y9287D01*
X6690Y9248D01*
X6687Y9205D01*
X6690Y9161D01*
X6700Y9119D01*
X6716Y9079D01*
X6738Y9039D01*
X6767Y9003D01*
X6801Y8970D01*
X6841Y8942D01*
X6886Y8919D01*
X6936Y8900D01*
X6989Y8887D01*
X7046Y8879D01*
X7105Y8877D01*
X7200Y8882D01*
X7283Y8898D01*
X7354Y8924D01*
X7413Y8961D01*
X7461Y9008D01*
X7500Y9065D01*
X7529Y9132D01*
X7548Y9210D01*
X7548Y9210D01*
X5798Y8900D02*
X5798Y9052D01*
X5864Y8975D01*
X5941Y8921D01*
X6029Y8888D01*
X6127Y8877D01*
X6173Y8879D01*
X6216Y8885D01*
X6258Y8896D01*
X6299Y8912D01*
X6336Y8930D01*
X6368Y8951D01*
X6395Y8975D01*
X6417Y9000D01*
X6435Y9028D01*
X6450Y9059D01*
X6462Y9093D01*
X6471Y9130D01*
X6476Y9160D01*
X6479Y9197D01*
X6481Y9242D01*
X6482Y9295D01*
X6482Y9937D01*
X6306Y9937D01*
X6306Y9362D01*
X6305Y9299D01*
X6303Y9247D01*
X6300Y9206D01*
X6295Y9176D01*
X6285Y9144D01*
X6269Y9114D01*
X6250Y9089D01*
X6225Y9067D01*
X6197Y9050D01*
X6165Y9038D01*
X6130Y9030D01*
X6092Y9028D01*
X6053Y9030D01*
X6016Y9038D01*
X5979Y9051D01*
X5944Y9068D01*
X5912Y9091D01*
X5885Y9116D01*
X5863Y9146D01*
X5846Y9179D01*
X5833Y9218D01*
X5824Y9264D01*
X5819Y9319D01*
X5817Y9381D01*
X5817Y9937D01*
X5641Y9937D01*
X5641Y8900D01*
X5798Y8900D01*
X5798Y8900D01*
X5366Y8503D02*
X5366Y9937D01*
X5206Y9937D01*
X5206Y9802D01*
X5120Y9718D01*
X5120Y9718D01*
X5158Y9659D01*
X5185Y9589D01*
X5201Y9507D01*
X5206Y9413D01*
X5206Y9413D01*
X5201Y9319D01*
X5186Y9239D01*
X5161Y9171D01*
X5125Y9117D01*
X5083Y9075D01*
X5036Y9045D01*
X4985Y9027D01*
X4929Y9021D01*
X4873Y9027D01*
X4820Y9046D01*
X4772Y9077D01*
X4728Y9120D01*
X4692Y9177D01*
X4666Y9247D01*
X4650Y9330D01*
X4645Y9427D01*
X4650Y9520D01*
X4665Y9601D01*
X4691Y9669D01*
X4727Y9724D01*
X4769Y9767D01*
X4816Y9798D01*
X4867Y9817D01*
X4921Y9823D01*
X4976Y9816D01*
X5027Y9797D01*
X5075Y9764D01*
X5120Y9718D01*
X5206Y9802D01*
X5176Y9839D01*
X5145Y9872D01*
X5112Y9899D01*
X5078Y9921D01*
X5040Y9938D01*
X4999Y9951D01*
X4954Y9958D01*
X4905Y9961D01*
X4840Y9956D01*
X4780Y9943D01*
X4723Y9922D01*
X4670Y9892D01*
X4623Y9854D01*
X4581Y9810D01*
X4546Y9758D01*
X4517Y9699D01*
X4494Y9636D01*
X4478Y9569D01*
X4469Y9499D01*
X4465Y9426D01*
X4469Y9349D01*
X4480Y9275D01*
X4497Y9205D01*
X4522Y9140D01*
X4554Y9080D01*
X4592Y9027D01*
X4637Y8982D01*
X4688Y8944D01*
X4744Y8915D01*
X4800Y8894D01*
X4858Y8881D01*
X4917Y8877D01*
X4960Y8879D01*
X5001Y8886D01*
X5039Y8897D01*
X5075Y8914D01*
X5108Y8933D01*
X5139Y8956D01*
X5166Y8980D01*
X5190Y9007D01*
X5190Y8503D01*
X5366Y8503D01*
X5366Y8503D01*
X4253Y8503D02*
X4253Y9937D01*
X4093Y9937D01*
X4093Y9802D01*
X4007Y9718D01*
X4008Y9718D01*
X4046Y9659D01*
X4073Y9589D01*
X4089Y9507D01*
X4094Y9413D01*
X4094Y9413D01*
X4089Y9319D01*
X4074Y9239D01*
X4049Y9171D01*
X4013Y9117D01*
X3970Y9075D01*
X3924Y9045D01*
X3872Y9027D01*
X3817Y9021D01*
X3760Y9027D01*
X3708Y9046D01*
X3660Y9077D01*
X3616Y9120D01*
X3580Y9177D01*
X3554Y9247D01*
X3538Y9330D01*
X3533Y9427D01*
X3538Y9520D01*
X3553Y9601D01*
X3579Y9669D01*
X3614Y9724D01*
X3657Y9767D01*
X3704Y9798D01*
X3754Y9817D01*
X3809Y9823D01*
X3864Y9816D01*
X3915Y9797D01*
X3963Y9764D01*
X4007Y9718D01*
X4093Y9802D01*
X4064Y9839D01*
X4033Y9872D01*
X4000Y9899D01*
X3965Y9921D01*
X3928Y9938D01*
X3886Y9951D01*
X3841Y9958D01*
X3792Y9961D01*
X3728Y9956D01*
X3667Y9943D01*
X3611Y9922D01*
X3558Y9892D01*
X3510Y9854D01*
X3469Y9810D01*
X3434Y9758D01*
X3405Y9699D01*
X3382Y9636D01*
X3366Y9569D01*
X3356Y9499D01*
X3353Y9426D01*
X3357Y9349D01*
X3367Y9275D01*
X3385Y9205D01*
X3410Y9140D01*
X3442Y9080D01*
X3480Y9027D01*
X3525Y8982D01*
X3576Y8944D01*
X3631Y8915D01*
X3688Y8894D01*
X3746Y8881D01*
X3805Y8877D01*
X3848Y8879D01*
X3888Y8886D01*
X3927Y8897D01*
X3963Y8914D01*
X3996Y8933D01*
X4026Y8956D01*
X4054Y8980D01*
X4078Y9007D01*
X4078Y8503D01*
X4253Y8503D01*
X4253Y8503D01*
X3145Y8900D02*
X3145Y10332D01*
X2969Y10332D01*
X2969Y8900D01*
X3145Y8900D01*
X3145Y8900D01*
X2705Y8501D02*
X2724Y8666D01*
X2696Y8659D01*
X2670Y8654D01*
X2646Y8651D01*
X2623Y8650D01*
X2596Y8651D01*
X2571Y8655D01*
X2549Y8661D01*
X2530Y8670D01*
X2513Y8680D01*
X2498Y8693D01*
X2484Y8708D01*
X2472Y8724D01*
X2463Y8742D01*
X2450Y8770D01*
X2436Y8808D01*
X2418Y8855D01*
X2416Y8863D01*
X2412Y8873D01*
X2408Y8885D01*
X2403Y8898D01*
X2796Y9937D01*
X2607Y9937D01*
X2391Y9337D01*
X2371Y9279D01*
X2351Y9219D01*
X2333Y9159D01*
X2316Y9096D01*
X2300Y9156D01*
X2283Y9216D01*
X2264Y9275D01*
X2244Y9333D01*
X2022Y9937D01*
X1846Y9937D01*
X2241Y8882D01*
X2271Y8804D01*
X2297Y8738D01*
X2320Y8686D01*
X2339Y8647D01*
X2364Y8607D01*
X2390Y8572D01*
X2417Y8543D01*
X2447Y8520D01*
X2478Y8502D01*
X2513Y8489D01*
X2551Y8482D01*
X2591Y8479D01*
X2617Y8480D01*
X2645Y8484D01*
X2674Y8491D01*
X2705Y8501D01*
X2705Y8501D01*
G37*
M02*