%FSLAX33Y33*%
%MOMM*%
%ADD10C,0.15*%
%ADD11C,0.5*%
%ADD12C,0.125*%
%ADD13C,0.6*%
%ADD14C,0.5*%
D10*
%LNtop silkscreen_traces*%
%LNtop silkscreen component 852c16e91e281c0c*%
G01*
X6250Y1875D02*
X6250Y7975D01*
X25750Y7975*
X25750Y1875*
X6250Y1875*
X6750Y1875D02*
X6750Y7975D01*
X25250Y7975*
X25250Y1875*
X6750Y1875*
D11*
X8380Y8450D03*
G36*
X4847Y2641D02*
X4942Y2641D01*
X4942Y2227D01*
X4940Y2176D01*
X4935Y2130D01*
X4928Y2090D01*
X4917Y2056D01*
X4903Y2026D01*
X4883Y1998D01*
X4858Y1974D01*
X4829Y1953D01*
X4795Y1935D01*
X4755Y1923D01*
X4711Y1915D01*
X4662Y1913D01*
X4614Y1915D01*
X4570Y1921D01*
X4532Y1932D01*
X4497Y1947D01*
X4468Y1967D01*
X4442Y1990D01*
X4422Y2017D01*
X4406Y2048D01*
X4394Y2084D01*
X4385Y2126D01*
X4380Y2173D01*
X4379Y2227D01*
X4379Y2641D01*
X4473Y2641D01*
X4473Y2228D01*
X4474Y2184D01*
X4478Y2147D01*
X4483Y2115D01*
X4491Y2090D01*
X4501Y2069D01*
X4514Y2051D01*
X4531Y2035D01*
X4550Y2022D01*
X4573Y2012D01*
X4597Y2004D01*
X4624Y2000D01*
X4654Y1998D01*
X4702Y2001D01*
X4743Y2010D01*
X4776Y2025D01*
X4802Y2046D01*
X4822Y2075D01*
X4836Y2115D01*
X4844Y2166D01*
X4847Y2228D01*
X4847Y2641D01*
X4847Y2641D01*
X5526Y2009D02*
X5526Y1925D01*
X5052Y1925D01*
X5053Y1941D01*
X5055Y1956D01*
X5058Y1971D01*
X5063Y1986D01*
X5073Y2010D01*
X5086Y2034D01*
X5102Y2058D01*
X5121Y2081D01*
X5143Y2106D01*
X5169Y2132D01*
X5200Y2160D01*
X5236Y2190D01*
X5289Y2235D01*
X5333Y2275D01*
X5368Y2311D01*
X5393Y2341D01*
X5411Y2369D01*
X5424Y2396D01*
X5432Y2422D01*
X5434Y2447D01*
X5432Y2472D01*
X5425Y2495D01*
X5413Y2516D01*
X5397Y2535D01*
X5377Y2551D01*
X5354Y2562D01*
X5328Y2569D01*
X5300Y2571D01*
X5269Y2569D01*
X5242Y2561D01*
X5219Y2550D01*
X5198Y2533D01*
X5181Y2512D01*
X5169Y2487D01*
X5162Y2459D01*
X5159Y2427D01*
X5069Y2437D01*
X5077Y2484D01*
X5091Y2526D01*
X5112Y2561D01*
X5139Y2591D01*
X5172Y2614D01*
X5210Y2631D01*
X5253Y2640D01*
X5301Y2644D01*
X5350Y2640D01*
X5394Y2629D01*
X5432Y2612D01*
X5465Y2587D01*
X5491Y2556D01*
X5510Y2523D01*
X5521Y2486D01*
X5525Y2445D01*
X5524Y2424D01*
X5520Y2402D01*
X5515Y2381D01*
X5507Y2361D01*
X5497Y2340D01*
X5484Y2318D01*
X5468Y2296D01*
X5449Y2273D01*
X5425Y2248D01*
X5394Y2219D01*
X5357Y2185D01*
X5313Y2147D01*
X5277Y2117D01*
X5248Y2091D01*
X5226Y2072D01*
X5212Y2057D01*
X5201Y2045D01*
X5191Y2033D01*
X5182Y2021D01*
X5175Y2009D01*
X5526Y2009D01*
X5526Y2009D01*
G37*
%LNtop silkscreen component 0582472eb7ed9473*%
D12*
X26850Y16500D02*
X36150Y16500D01*
X36150Y0500*
X26850Y0500*
X26850Y16500*
D13*
X36175Y13600D03*
%LNtop silkscreen component 20d0d3cf041d0b83*%
D10*
X6250Y9025D02*
X6250Y15125D01*
X25750Y15125*
X25750Y9025*
X6250Y9025*
X6750Y9025D02*
X6750Y15125D01*
X25250Y15125*
X25250Y9025*
X6750Y9025*
D11*
X8380Y15600D03*
G36*
X4847Y15241D02*
X4942Y15241D01*
X4942Y14827D01*
X4940Y14776D01*
X4935Y14730D01*
X4928Y14690D01*
X4917Y14656D01*
X4903Y14626D01*
X4883Y14598D01*
X4858Y14574D01*
X4829Y14553D01*
X4795Y14535D01*
X4755Y14523D01*
X4711Y14515D01*
X4662Y14513D01*
X4614Y14515D01*
X4570Y14521D01*
X4532Y14532D01*
X4497Y14547D01*
X4468Y14567D01*
X4442Y14590D01*
X4422Y14617D01*
X4406Y14648D01*
X4394Y14684D01*
X4385Y14726D01*
X4380Y14773D01*
X4379Y14827D01*
X4379Y15241D01*
X4473Y15241D01*
X4473Y14828D01*
X4474Y14784D01*
X4478Y14747D01*
X4483Y14715D01*
X4491Y14690D01*
X4501Y14669D01*
X4514Y14651D01*
X4531Y14635D01*
X4550Y14622D01*
X4573Y14612D01*
X4597Y14604D01*
X4624Y14600D01*
X4654Y14598D01*
X4702Y14601D01*
X4743Y14610D01*
X4776Y14625D01*
X4802Y14646D01*
X4822Y14675D01*
X4836Y14715D01*
X4844Y14766D01*
X4847Y14828D01*
X4847Y15241D01*
X4847Y15241D01*
X5395Y14525D02*
X5307Y14525D01*
X5307Y15085D01*
X5290Y15070D01*
X5270Y15055D01*
X5248Y15040D01*
X5224Y15025D01*
X5198Y15010D01*
X5175Y14998D01*
X5152Y14988D01*
X5131Y14979D01*
X5131Y15064D01*
X5167Y15082D01*
X5200Y15102D01*
X5231Y15124D01*
X5260Y15148D01*
X5286Y15173D01*
X5307Y15197D01*
X5325Y15220D01*
X5338Y15244D01*
X5395Y15244D01*
X5395Y14525D01*
X5395Y14525D01*
G37*
%LNtop silkscreen component 31c3a01e58ece666*%
D10*
X2775Y12430D02*
X2375Y12430D01*
X2775Y4570D02*
X2375Y4570D01*
D14*
X5400Y9800D03*
G36*
X2279Y13153D02*
X2364Y13165D01*
X2367Y13127D01*
X2374Y13096D01*
X2383Y13071D01*
X2395Y13053D01*
X2410Y13039D01*
X2428Y13030D01*
X2448Y13024D01*
X2471Y13022D01*
X2488Y13023D01*
X2504Y13026D01*
X2519Y13031D01*
X2532Y13039D01*
X2544Y13048D01*
X2554Y13058D01*
X2562Y13070D01*
X2568Y13083D01*
X2572Y13099D01*
X2575Y13119D01*
X2577Y13144D01*
X2578Y13173D01*
X2578Y13666D01*
X2672Y13666D01*
X2672Y13178D01*
X2671Y13136D01*
X2667Y13098D01*
X2660Y13066D01*
X2651Y13039D01*
X2638Y13016D01*
X2623Y12995D01*
X2604Y12978D01*
X2582Y12964D01*
X2557Y12952D01*
X2531Y12944D01*
X2502Y12939D01*
X2471Y12938D01*
X2427Y12941D01*
X2388Y12951D01*
X2355Y12968D01*
X2327Y12992D01*
X2305Y13022D01*
X2290Y13059D01*
X2281Y13103D01*
X2279Y13153D01*
X2279Y13153D01*
X3123Y12950D02*
X3035Y12950D01*
X3035Y13510D01*
X3018Y13495D01*
X2998Y13480D01*
X2976Y13465D01*
X2951Y13450D01*
X2926Y13435D01*
X2903Y13423D01*
X2880Y13413D01*
X2859Y13404D01*
X2859Y13489D01*
X2895Y13507D01*
X2928Y13527D01*
X2959Y13549D01*
X2988Y13573D01*
X3013Y13598D01*
X3035Y13622D01*
X3052Y13645D01*
X3066Y13669D01*
X3123Y13669D01*
X3123Y12950D01*
X3123Y12950D01*
G37*
%LNtext*%
G36*
X37240Y3273D02*
X37240Y3385D01*
X37583Y3385D01*
X37583Y3273D01*
X37240Y3273D01*
X37240Y3273D01*
X38096Y3000D02*
X37984Y3000D01*
X37984Y3711D01*
X37963Y3692D01*
X37938Y3673D01*
X37910Y3654D01*
X37879Y3634D01*
X37847Y3616D01*
X37817Y3601D01*
X37788Y3588D01*
X37761Y3577D01*
X37761Y3685D01*
X37807Y3708D01*
X37849Y3733D01*
X37888Y3761D01*
X37925Y3791D01*
X37957Y3822D01*
X37985Y3853D01*
X38007Y3883D01*
X38024Y3913D01*
X38096Y3913D01*
X38096Y3000D01*
X38096Y3000D01*
X38969Y3107D02*
X38969Y3000D01*
X38368Y3000D01*
X38368Y3020D01*
X38370Y3040D01*
X38375Y3059D01*
X38381Y3078D01*
X38394Y3108D01*
X38411Y3138D01*
X38431Y3169D01*
X38454Y3198D01*
X38482Y3229D01*
X38516Y3263D01*
X38555Y3298D01*
X38600Y3336D01*
X38668Y3394D01*
X38724Y3445D01*
X38768Y3490D01*
X38801Y3529D01*
X38823Y3564D01*
X38840Y3598D01*
X38849Y3631D01*
X38853Y3663D01*
X38850Y3695D01*
X38841Y3724D01*
X38826Y3751D01*
X38805Y3775D01*
X38780Y3795D01*
X38751Y3809D01*
X38718Y3818D01*
X38681Y3820D01*
X38643Y3817D01*
X38609Y3808D01*
X38579Y3793D01*
X38552Y3772D01*
X38531Y3746D01*
X38516Y3714D01*
X38507Y3679D01*
X38503Y3638D01*
X38389Y3650D01*
X38399Y3710D01*
X38417Y3763D01*
X38443Y3808D01*
X38477Y3846D01*
X38519Y3875D01*
X38568Y3896D01*
X38622Y3909D01*
X38684Y3913D01*
X38746Y3908D01*
X38801Y3895D01*
X38849Y3872D01*
X38891Y3840D01*
X38924Y3802D01*
X38948Y3759D01*
X38963Y3712D01*
X38967Y3660D01*
X38966Y3633D01*
X38962Y3606D01*
X38955Y3580D01*
X38945Y3553D01*
X38932Y3526D01*
X38915Y3499D01*
X38895Y3471D01*
X38871Y3442D01*
X38841Y3410D01*
X38802Y3373D01*
X38755Y3330D01*
X38699Y3282D01*
X38653Y3243D01*
X38616Y3211D01*
X38589Y3186D01*
X38570Y3168D01*
X38556Y3153D01*
X38544Y3138D01*
X38533Y3122D01*
X38523Y3107D01*
X38969Y3107D01*
X38969Y3107D01*
X39393Y3000D02*
X39041Y3909D01*
X39171Y3909D01*
X39408Y3249D01*
X39421Y3210D01*
X39434Y3172D01*
X39445Y3135D01*
X39455Y3100D01*
X39466Y3137D01*
X39478Y3174D01*
X39491Y3211D01*
X39504Y3249D01*
X39750Y3909D01*
X39873Y3909D01*
X39517Y3000D01*
X39393Y3000D01*
X39393Y3000D01*
X37718Y13147D02*
X37718Y13396D01*
X37471Y13396D01*
X37471Y13500D01*
X37718Y13500D01*
X37718Y13748D01*
X37824Y13748D01*
X37824Y13500D01*
X38071Y13500D01*
X38071Y13396D01*
X37824Y13396D01*
X37824Y13147D01*
X37718Y13147D01*
X37718Y13147D01*
X38615Y13000D02*
X38503Y13000D01*
X38503Y13711D01*
X38481Y13692D01*
X38457Y13673D01*
X38429Y13654D01*
X38397Y13634D01*
X38366Y13616D01*
X38335Y13601D01*
X38307Y13588D01*
X38280Y13577D01*
X38280Y13685D01*
X38325Y13708D01*
X38368Y13733D01*
X38407Y13761D01*
X38444Y13791D01*
X38476Y13822D01*
X38504Y13853D01*
X38526Y13883D01*
X38543Y13913D01*
X38615Y13913D01*
X38615Y13000D01*
X38615Y13000D01*
X39487Y13107D02*
X39487Y13000D01*
X38886Y13000D01*
X38887Y13020D01*
X38889Y13040D01*
X38893Y13059D01*
X38899Y13078D01*
X38913Y13108D01*
X38929Y13138D01*
X38949Y13169D01*
X38973Y13198D01*
X39001Y13229D01*
X39035Y13263D01*
X39074Y13298D01*
X39119Y13336D01*
X39187Y13394D01*
X39243Y13445D01*
X39287Y13490D01*
X39319Y13529D01*
X39342Y13564D01*
X39358Y13598D01*
X39368Y13631D01*
X39371Y13663D01*
X39368Y13695D01*
X39360Y13724D01*
X39345Y13751D01*
X39324Y13775D01*
X39298Y13795D01*
X39269Y13809D01*
X39237Y13818D01*
X39200Y13820D01*
X39162Y13817D01*
X39128Y13808D01*
X39097Y13793D01*
X39071Y13772D01*
X39050Y13746D01*
X39035Y13714D01*
X39026Y13679D01*
X39022Y13638D01*
X38908Y13650D01*
X38917Y13710D01*
X38936Y13763D01*
X38962Y13808D01*
X38996Y13846D01*
X39038Y13875D01*
X39086Y13896D01*
X39141Y13909D01*
X39203Y13913D01*
X39265Y13908D01*
X39320Y13895D01*
X39368Y13872D01*
X39410Y13840D01*
X39443Y13802D01*
X39467Y13759D01*
X39481Y13712D01*
X39486Y13660D01*
X39485Y13633D01*
X39481Y13606D01*
X39474Y13580D01*
X39464Y13553D01*
X39451Y13526D01*
X39434Y13499D01*
X39414Y13471D01*
X39390Y13442D01*
X39360Y13410D01*
X39321Y13373D01*
X39273Y13330D01*
X39218Y13282D01*
X39172Y13243D01*
X39135Y13211D01*
X39107Y13186D01*
X39089Y13168D01*
X39075Y13153D01*
X39063Y13138D01*
X39051Y13122D01*
X39041Y13107D01*
X39487Y13107D01*
X39487Y13107D01*
X39912Y13000D02*
X39560Y13909D01*
X39690Y13909D01*
X39926Y13249D01*
X39940Y13210D01*
X39953Y13172D01*
X39964Y13135D01*
X39974Y13100D01*
X39985Y13137D01*
X39997Y13174D01*
X40010Y13211D01*
X40023Y13249D01*
X40269Y13909D01*
X40391Y13909D01*
X40036Y13000D01*
X39912Y13000D01*
X39912Y13000D01*
X37723Y8357D02*
X37723Y8463D01*
X38108Y8464D01*
X38108Y8127D01*
X38064Y8093D01*
X38018Y8065D01*
X37972Y8040D01*
X37926Y8020D01*
X37878Y8005D01*
X37830Y7993D01*
X37781Y7987D01*
X37732Y7984D01*
X37667Y7988D01*
X37604Y7999D01*
X37545Y8017D01*
X37489Y8042D01*
X37437Y8074D01*
X37393Y8112D01*
X37355Y8157D01*
X37323Y8208D01*
X37299Y8264D01*
X37282Y8323D01*
X37271Y8385D01*
X37268Y8450D01*
X37271Y8515D01*
X37281Y8578D01*
X37299Y8639D01*
X37323Y8698D01*
X37354Y8752D01*
X37391Y8798D01*
X37434Y8837D01*
X37483Y8869D01*
X37537Y8893D01*
X37595Y8911D01*
X37657Y8921D01*
X37723Y8925D01*
X37771Y8923D01*
X37817Y8917D01*
X37860Y8907D01*
X37901Y8893D01*
X37939Y8875D01*
X37972Y8854D01*
X38001Y8831D01*
X38026Y8804D01*
X38047Y8773D01*
X38066Y8738D01*
X38082Y8699D01*
X38095Y8655D01*
X37986Y8625D01*
X37975Y8658D01*
X37963Y8687D01*
X37950Y8713D01*
X37935Y8734D01*
X37919Y8753D01*
X37899Y8770D01*
X37875Y8785D01*
X37849Y8798D01*
X37820Y8808D01*
X37789Y8816D01*
X37757Y8820D01*
X37723Y8822D01*
X37684Y8820D01*
X37646Y8815D01*
X37612Y8808D01*
X37581Y8797D01*
X37552Y8783D01*
X37526Y8767D01*
X37504Y8750D01*
X37484Y8730D01*
X37466Y8710D01*
X37451Y8688D01*
X37438Y8665D01*
X37426Y8641D01*
X37411Y8598D01*
X37400Y8553D01*
X37394Y8506D01*
X37392Y8458D01*
X37394Y8399D01*
X37402Y8346D01*
X37415Y8298D01*
X37433Y8254D01*
X37457Y8216D01*
X37485Y8183D01*
X37518Y8155D01*
X37555Y8133D01*
X37596Y8115D01*
X37638Y8103D01*
X37681Y8095D01*
X37725Y8093D01*
X37764Y8095D01*
X37802Y8101D01*
X37840Y8110D01*
X37878Y8123D01*
X37913Y8138D01*
X37943Y8154D01*
X37969Y8170D01*
X37991Y8187D01*
X37991Y8357D01*
X37723Y8357D01*
X37723Y8357D01*
X38285Y8000D02*
X38285Y8909D01*
X38408Y8909D01*
X38886Y8195D01*
X38886Y8909D01*
X39001Y8909D01*
X39001Y8000D01*
X38877Y8000D01*
X38400Y8714D01*
X38400Y8000D01*
X38285Y8000D01*
X38285Y8000D01*
X39203Y8000D02*
X39203Y8909D01*
X39514Y8909D01*
X39514Y8802D01*
X39323Y8802D01*
X39323Y8107D01*
X39323Y8107D01*
X39517Y8107D01*
X39560Y8108D01*
X39598Y8111D01*
X39630Y8117D01*
X39658Y8124D01*
X39683Y8133D01*
X39704Y8144D01*
X39724Y8157D01*
X39740Y8171D01*
X39760Y8194D01*
X39778Y8221D01*
X39794Y8252D01*
X39807Y8286D01*
X39817Y8324D01*
X39825Y8366D01*
X39829Y8412D01*
X39831Y8461D01*
X39828Y8529D01*
X39819Y8587D01*
X39804Y8638D01*
X39784Y8681D01*
X39759Y8716D01*
X39732Y8745D01*
X39702Y8767D01*
X39670Y8783D01*
X39642Y8791D01*
X39607Y8797D01*
X39564Y8801D01*
X39514Y8802D01*
X39514Y8909D01*
X39516Y8909D01*
X39566Y8908D01*
X39610Y8906D01*
X39647Y8902D01*
X39678Y8896D01*
X39716Y8885D01*
X39750Y8871D01*
X39782Y8853D01*
X39811Y8831D01*
X39845Y8798D01*
X39874Y8762D01*
X39899Y8721D01*
X39919Y8676D01*
X39935Y8627D01*
X39946Y8574D01*
X39952Y8519D01*
X39955Y8460D01*
X39953Y8409D01*
X39949Y8362D01*
X39941Y8317D01*
X39930Y8276D01*
X39917Y8238D01*
X39903Y8203D01*
X39886Y8171D01*
X39868Y8144D01*
X39849Y8119D01*
X39829Y8097D01*
X39808Y8078D01*
X39786Y8061D01*
X39762Y8047D01*
X39736Y8035D01*
X39708Y8024D01*
X39677Y8016D01*
X39644Y8009D01*
X39609Y8004D01*
X39571Y8001D01*
X39531Y8000D01*
X39203Y8000D01*
X39203Y8000D01*
G37*
M02*