%FSLAX33Y33*%
%MOMM*%
%AMRect-W2049999-H2049999-RO0.500*
21,1,2.049999,2.049999,0.,0.,270*%
%AMRect-W1250000-H1250000-RO1.500*
21,1,1.25,1.25,0.,0.,90*%
%ADD10C,0.0508*%
%ADD11C,0.68834*%
%ADD12C,2.049999*%
%ADD13Rect-W2049999-H2049999-RO0.500*%
%ADD14C,1.25*%
%ADD15Rect-W1250000-H1250000-RO1.500*%
D10*
%LNpour fill*%
G01*
X41883Y3330D02*
X41883Y3330D01*
X41883Y13670*
X37813Y16383*
X15025Y16383*
X15025Y0617*
X37813Y0617*
X41883Y3330*
X32627Y12049D02*
X32627Y12049D01*
X32691Y12054*
X32693Y12054*
X32756Y12069*
X32758Y12070*
X32818Y12095*
X32819Y12096*
X32875Y12129*
X32876Y12131*
X32926Y12173*
X32927Y12174*
X32969Y12224*
X32971Y12225*
X33004Y12281*
X33005Y12282*
X33030Y12342*
X33031Y12344*
X33046Y12407*
X33046Y12409*
X33051Y12474*
X33051Y12475*
X33051Y14525*
X33051Y14526*
X33046Y14591*
X33046Y14593*
X33031Y14656*
X33030Y14658*
X33005Y14718*
X33004Y14719*
X32971Y14775*
X32969Y14776*
X32927Y14826*
X32926Y14827*
X32876Y14869*
X32875Y14871*
X32819Y14904*
X32818Y14905*
X32758Y14930*
X32756Y14931*
X32693Y14946*
X32691Y14946*
X32626Y14951*
X32625Y14951*
X30575Y14951*
X30574Y14951*
X30509Y14946*
X30507Y14946*
X30444Y14931*
X30442Y14930*
X30382Y14905*
X30381Y14904*
X30325Y14871*
X30324Y14869*
X30274Y14827*
X30273Y14826*
X30231Y14776*
X30229Y14775*
X30196Y14719*
X30195Y14718*
X30170Y14658*
X30169Y14656*
X30154Y14593*
X30154Y14591*
X30149Y14527*
X30149Y14526*
X30149Y12474*
X30149Y12474*
X30154Y12409*
X30154Y12407*
X30169Y12344*
X30170Y12342*
X30195Y12282*
X30196Y12281*
X30229Y12225*
X30231Y12224*
X30273Y12174*
X30274Y12173*
X30324Y12131*
X30325Y12129*
X30381Y12096*
X30382Y12095*
X30442Y12070*
X30444Y12069*
X30507Y12054*
X30509Y12054*
X30574Y12049*
X30574Y12049*
X32626Y12049*
X32627Y12049*
X39316Y9609D02*
X39316Y9609D01*
X39319Y9610*
X39618Y9714*
X39620Y9715*
X39888Y9884*
X39890Y9886*
X40114Y10110*
X40116Y10112*
X40285Y10380*
X40286Y10382*
X40390Y10681*
X40391Y10684*
X40426Y10999*
X40426Y11001*
X40391Y11316*
X40390Y11319*
X40286Y11618*
X40285Y11620*
X40116Y11888*
X40114Y11890*
X39890Y12114*
X39888Y12116*
X39620Y12285*
X39618Y12286*
X39319Y12390*
X39316Y12391*
X39001Y12426*
X38999Y12426*
X38684Y12391*
X38681Y12390*
X38382Y12286*
X38380Y12285*
X38112Y12116*
X38110Y12114*
X37886Y11890*
X37884Y11888*
X37715Y11620*
X37714Y11618*
X37610Y11319*
X37609Y11316*
X37574Y11001*
X37574Y10999*
X37609Y10684*
X37610Y10681*
X37714Y10382*
X37715Y10380*
X37884Y10112*
X37886Y10110*
X38110Y9886*
X38112Y9884*
X38380Y9715*
X38382Y9714*
X38681Y9610*
X38684Y9609*
X38999Y9574*
X39001Y9574*
X39316Y9609*
X21678Y9956D02*
X21678Y9956D01*
X21921Y10016*
X21924Y10017*
X22146Y10134*
X22149Y10136*
X22336Y10302*
X22338Y10304*
X22480Y10510*
X22482Y10513*
X22570Y10747*
X22571Y10750*
X22601Y10998*
X22601Y11002*
X22571Y11250*
X22570Y11253*
X22482Y11487*
X22480Y11490*
X22338Y11696*
X22336Y11698*
X22149Y11864*
X22146Y11866*
X21924Y11983*
X21921Y11984*
X21678Y12044*
X21675Y12044*
X21425Y12044*
X21422Y12044*
X21179Y11984*
X21176Y11983*
X20954Y11866*
X20951Y11864*
X20764Y11698*
X20762Y11696*
X20620Y11490*
X20618Y11487*
X20530Y11253*
X20529Y11250*
X20499Y11002*
X20499Y10998*
X20529Y10750*
X20530Y10747*
X20618Y10513*
X20620Y10510*
X20762Y10304*
X20764Y10302*
X20951Y10136*
X20954Y10134*
X21176Y10017*
X21179Y10016*
X21422Y9956*
X21425Y9956*
X21675Y9956*
X21678Y9956*
X16295Y9988D02*
X16295Y9988D01*
X16295Y10454*
X16645Y10454*
X16645Y9988*
X16664Y9973*
X16841Y10016*
X16844Y10017*
X17066Y10134*
X17069Y10136*
X17256Y10302*
X17258Y10304*
X17400Y10510*
X17402Y10513*
X17490Y10747*
X17491Y10750*
X17498Y10808*
X17483Y10825*
X17020Y10825*
X17020Y11175*
X17483Y11175*
X17498Y11192*
X17491Y11250*
X17490Y11253*
X17402Y11487*
X17400Y11490*
X17258Y11696*
X17256Y11698*
X17069Y11864*
X17066Y11866*
X16844Y11983*
X16841Y11984*
X16664Y12027*
X16645Y12012*
X16645Y11546*
X16295Y11546*
X16295Y12012*
X16276Y12027*
X16099Y11984*
X16096Y11983*
X15874Y11866*
X15871Y11864*
X15684Y11698*
X15682Y11696*
X15540Y11490*
X15538Y11487*
X15450Y11253*
X15449Y11250*
X15442Y11192*
X15457Y11175*
X15920Y11175*
X15920Y10825*
X15457Y10825*
X15442Y10808*
X15449Y10750*
X15450Y10747*
X15538Y10513*
X15540Y10510*
X15682Y10304*
X15684Y10302*
X15871Y10136*
X15874Y10134*
X16096Y10017*
X16099Y10016*
X16276Y9973*
X16295Y9988*
X39316Y4609D02*
X39316Y4609D01*
X39319Y4610*
X39618Y4714*
X39620Y4715*
X39888Y4884*
X39890Y4886*
X40114Y5110*
X40116Y5112*
X40285Y5380*
X40286Y5382*
X40390Y5681*
X40391Y5684*
X40426Y5999*
X40426Y6001*
X40391Y6316*
X40390Y6319*
X40286Y6618*
X40285Y6620*
X40116Y6888*
X40114Y6890*
X39890Y7114*
X39888Y7116*
X39620Y7285*
X39618Y7286*
X39319Y7390*
X39316Y7391*
X39001Y7426*
X38999Y7426*
X38684Y7391*
X38681Y7390*
X38382Y7286*
X38380Y7285*
X38112Y7116*
X38110Y7114*
X37886Y6890*
X37884Y6888*
X37715Y6620*
X37714Y6618*
X37610Y6319*
X37609Y6316*
X37574Y6001*
X37574Y5999*
X37609Y5684*
X37610Y5681*
X37714Y5382*
X37715Y5380*
X37884Y5112*
X37886Y5110*
X38110Y4886*
X38112Y4884*
X38380Y4715*
X38382Y4714*
X38681Y4610*
X38684Y4609*
X38999Y4574*
X39001Y4574*
X39316Y4609*
X31922Y2085D02*
X31922Y2085D01*
X31924Y2085*
X32228Y2192*
X32231Y2193*
X32504Y2364*
X32506Y2366*
X32734Y2594*
X32736Y2596*
X32907Y2869*
X32908Y2872*
X33015Y3176*
X33015Y3178*
X33051Y3499*
X33051Y3501*
X33015Y3822*
X33015Y3824*
X32908Y4128*
X32907Y4131*
X32736Y4404*
X32734Y4406*
X32506Y4634*
X32504Y4636*
X32231Y4807*
X32228Y4808*
X31924Y4915*
X31922Y4915*
X31601Y4951*
X31599Y4951*
X31278Y4915*
X31276Y4915*
X30972Y4808*
X30969Y4807*
X30696Y4636*
X30694Y4634*
X30466Y4406*
X30464Y4404*
X30293Y4131*
X30292Y4128*
X30185Y3824*
X30185Y3822*
X30149Y3501*
X30149Y3499*
X30185Y3178*
X30185Y3176*
X30292Y2872*
X30293Y2869*
X30464Y2596*
X30466Y2594*
X30694Y2366*
X30696Y2364*
X30969Y2193*
X30972Y2192*
X31276Y2085*
X31278Y2085*
X31599Y2049*
X31601Y2049*
X31922Y2085*
X16598Y1956D02*
X16598Y1956D01*
X16841Y2016*
X16844Y2017*
X17066Y2134*
X17069Y2136*
X17256Y2302*
X17258Y2304*
X17400Y2510*
X17402Y2513*
X17490Y2747*
X17491Y2750*
X17521Y2998*
X17521Y3002*
X17491Y3250*
X17490Y3253*
X17402Y3487*
X17400Y3490*
X17258Y3696*
X17256Y3698*
X17069Y3864*
X17066Y3866*
X16844Y3983*
X16841Y3984*
X16598Y4044*
X16595Y4044*
X16345Y4044*
X16342Y4044*
X16099Y3984*
X16096Y3983*
X15874Y3866*
X15871Y3864*
X15684Y3698*
X15682Y3696*
X15540Y3490*
X15538Y3487*
X15450Y3253*
X15449Y3250*
X15419Y3002*
X15419Y2998*
X15449Y2750*
X15450Y2747*
X15538Y2513*
X15540Y2510*
X15682Y2304*
X15684Y2302*
X15871Y2136*
X15874Y2134*
X16096Y2017*
X16099Y2016*
X16342Y1956*
X16345Y1956*
X16595Y1956*
X16598Y1956*
X21375Y1988D02*
X21375Y1988D01*
X21375Y2454*
X21725Y2454*
X21725Y1988*
X21744Y1973*
X21921Y2016*
X21924Y2017*
X22146Y2134*
X22149Y2136*
X22336Y2302*
X22338Y2304*
X22480Y2510*
X22482Y2513*
X22570Y2747*
X22571Y2750*
X22578Y2808*
X22563Y2825*
X22100Y2825*
X22100Y3175*
X22563Y3175*
X22578Y3192*
X22571Y3250*
X22570Y3253*
X22482Y3487*
X22480Y3490*
X22338Y3696*
X22336Y3698*
X22149Y3864*
X22146Y3866*
X21924Y3983*
X21921Y3984*
X21744Y4027*
X21725Y4012*
X21725Y3546*
X21375Y3546*
X21375Y4012*
X21356Y4027*
X21179Y3984*
X21176Y3983*
X20954Y3866*
X20951Y3864*
X20764Y3698*
X20762Y3696*
X20620Y3490*
X20618Y3487*
X20530Y3253*
X20529Y3250*
X20522Y3192*
X20537Y3175*
X21000Y3175*
X21000Y2825*
X20537Y2825*
X20522Y2808*
X20529Y2750*
X20530Y2747*
X20618Y2513*
X20620Y2510*
X20762Y2304*
X20764Y2302*
X20951Y2136*
X20954Y2134*
X21176Y2017*
X21179Y2016*
X21356Y1973*
X21375Y1988*
X15025Y0641D02*
X37849Y0641D01*
X15025Y0691D02*
X37924Y0691D01*
X15025Y0740D02*
X37998Y0740D01*
X15025Y0790D02*
X38072Y0790D01*
X15025Y0839D02*
X38147Y0839D01*
X15025Y0889D02*
X38221Y0889D01*
X15025Y0938D02*
X38295Y0938D01*
X15025Y0988D02*
X38369Y0988D01*
X15025Y1037D02*
X38444Y1037D01*
X15025Y1087D02*
X38518Y1087D01*
X15025Y1136D02*
X38592Y1136D01*
X15025Y1186D02*
X38667Y1186D01*
X15025Y1235D02*
X38741Y1235D01*
X15025Y1285D02*
X38815Y1285D01*
X15025Y1334D02*
X38890Y1334D01*
X15025Y1384D02*
X38964Y1384D01*
X15025Y1434D02*
X39038Y1434D01*
X15025Y1483D02*
X39112Y1483D01*
X15025Y1533D02*
X39187Y1533D01*
X15025Y1582D02*
X39261Y1582D01*
X15025Y1632D02*
X39335Y1632D01*
X15025Y1681D02*
X39410Y1681D01*
X15025Y1731D02*
X39484Y1731D01*
X15025Y1780D02*
X39558Y1780D01*
X15025Y1830D02*
X39632Y1830D01*
X15025Y1879D02*
X39707Y1879D01*
X15025Y1929D02*
X39781Y1929D01*
X15025Y1978D02*
X16253Y1978D01*
X16687Y1978D02*
X21333Y1978D01*
X21363Y1978D02*
X21737Y1978D01*
X21767Y1978D02*
X39855Y1978D01*
X15025Y2028D02*
X16076Y2028D01*
X16864Y2028D02*
X21156Y2028D01*
X21375Y2028D02*
X21725Y2028D01*
X21944Y2028D02*
X39930Y2028D01*
X15025Y2077D02*
X15982Y2077D01*
X16958Y2077D02*
X21062Y2077D01*
X21375Y2077D02*
X21725Y2077D01*
X22038Y2077D02*
X31343Y2077D01*
X31857Y2077D02*
X40004Y2077D01*
X15025Y2127D02*
X15887Y2127D01*
X17053Y2127D02*
X20967Y2127D01*
X21375Y2127D02*
X21725Y2127D01*
X22133Y2127D02*
X31157Y2127D01*
X32043Y2127D02*
X40078Y2127D01*
X15025Y2176D02*
X15825Y2176D01*
X17115Y2176D02*
X20905Y2176D01*
X21375Y2176D02*
X21725Y2176D01*
X22195Y2176D02*
X31015Y2176D01*
X32185Y2176D02*
X40153Y2176D01*
X15025Y2226D02*
X15769Y2226D01*
X17171Y2226D02*
X20849Y2226D01*
X21375Y2226D02*
X21725Y2226D01*
X22251Y2226D02*
X30916Y2226D01*
X32284Y2226D02*
X40227Y2226D01*
X15025Y2276D02*
X15714Y2276D01*
X17226Y2276D02*
X20794Y2276D01*
X21375Y2276D02*
X21725Y2276D01*
X22306Y2276D02*
X30838Y2276D01*
X32362Y2276D02*
X40301Y2276D01*
X15025Y2325D02*
X15667Y2325D01*
X17273Y2325D02*
X20747Y2325D01*
X21375Y2325D02*
X21725Y2325D01*
X22353Y2325D02*
X30759Y2325D01*
X32441Y2325D02*
X40375Y2325D01*
X15025Y2375D02*
X15633Y2375D01*
X17307Y2375D02*
X20713Y2375D01*
X21375Y2375D02*
X21725Y2375D01*
X22387Y2375D02*
X30686Y2375D01*
X32514Y2375D02*
X40450Y2375D01*
X15025Y2424D02*
X15599Y2424D01*
X17341Y2424D02*
X20679Y2424D01*
X21375Y2424D02*
X21725Y2424D01*
X22421Y2424D02*
X30636Y2424D01*
X32564Y2424D02*
X40524Y2424D01*
X15025Y2474D02*
X15565Y2474D01*
X17375Y2474D02*
X20645Y2474D01*
X22455Y2474D02*
X30586Y2474D01*
X32614Y2474D02*
X40598Y2474D01*
X15025Y2523D02*
X15534Y2523D01*
X17406Y2523D02*
X20614Y2523D01*
X22486Y2523D02*
X30537Y2523D01*
X32663Y2523D02*
X40673Y2523D01*
X15025Y2573D02*
X15516Y2573D01*
X17424Y2573D02*
X20596Y2573D01*
X22504Y2573D02*
X30487Y2573D01*
X32713Y2573D02*
X40747Y2573D01*
X15025Y2622D02*
X15497Y2622D01*
X17443Y2622D02*
X20577Y2622D01*
X22523Y2622D02*
X30448Y2622D01*
X32752Y2622D02*
X40821Y2622D01*
X15025Y2672D02*
X15478Y2672D01*
X17462Y2672D02*
X20558Y2672D01*
X22542Y2672D02*
X30417Y2672D01*
X32783Y2672D02*
X40896Y2672D01*
X15025Y2721D02*
X15459Y2721D01*
X17481Y2721D02*
X20539Y2721D01*
X22561Y2721D02*
X30386Y2721D01*
X32814Y2721D02*
X40970Y2721D01*
X15025Y2771D02*
X15446Y2771D01*
X17494Y2771D02*
X20526Y2771D01*
X22574Y2771D02*
X30355Y2771D01*
X32845Y2771D02*
X41044Y2771D01*
X15025Y2820D02*
X15440Y2820D01*
X17500Y2820D02*
X20532Y2820D01*
X22568Y2820D02*
X30324Y2820D01*
X32876Y2820D02*
X41118Y2820D01*
X15025Y2870D02*
X15434Y2870D01*
X17506Y2870D02*
X21000Y2870D01*
X22100Y2870D02*
X30293Y2870D01*
X32907Y2870D02*
X41193Y2870D01*
X15025Y2919D02*
X15428Y2919D01*
X17512Y2919D02*
X21000Y2919D01*
X22100Y2919D02*
X30275Y2919D01*
X32925Y2919D02*
X41267Y2919D01*
X15025Y2969D02*
X15422Y2969D01*
X17518Y2969D02*
X21000Y2969D01*
X22100Y2969D02*
X30258Y2969D01*
X32942Y2969D02*
X41341Y2969D01*
X15025Y3018D02*
X15421Y3018D01*
X17519Y3018D02*
X21000Y3018D01*
X22100Y3018D02*
X30240Y3018D01*
X32960Y3018D02*
X41416Y3018D01*
X15025Y3068D02*
X15427Y3068D01*
X17513Y3068D02*
X21000Y3068D01*
X22100Y3068D02*
X30223Y3068D01*
X32977Y3068D02*
X41490Y3068D01*
X15025Y3118D02*
X15433Y3118D01*
X17507Y3118D02*
X21000Y3118D01*
X22100Y3118D02*
X30206Y3118D01*
X32994Y3118D02*
X41564Y3118D01*
X15025Y3167D02*
X15439Y3167D01*
X17501Y3167D02*
X21000Y3167D01*
X22100Y3167D02*
X30188Y3167D01*
X33012Y3167D02*
X41638Y3167D01*
X15025Y3217D02*
X15445Y3217D01*
X17495Y3217D02*
X20525Y3217D01*
X22575Y3217D02*
X30180Y3217D01*
X33020Y3217D02*
X41713Y3217D01*
X15025Y3266D02*
X15454Y3266D01*
X17486Y3266D02*
X20534Y3266D01*
X22566Y3266D02*
X30175Y3266D01*
X33025Y3266D02*
X41787Y3266D01*
X15025Y3316D02*
X15473Y3316D01*
X17467Y3316D02*
X20553Y3316D01*
X22547Y3316D02*
X30169Y3316D01*
X33031Y3316D02*
X41861Y3316D01*
X15025Y3365D02*
X15492Y3365D01*
X17448Y3365D02*
X20572Y3365D01*
X22528Y3365D02*
X30164Y3365D01*
X33036Y3365D02*
X41883Y3365D01*
X15025Y3415D02*
X15511Y3415D01*
X17429Y3415D02*
X20591Y3415D01*
X22509Y3415D02*
X30158Y3415D01*
X33042Y3415D02*
X41883Y3415D01*
X15025Y3464D02*
X15530Y3464D01*
X17410Y3464D02*
X20610Y3464D01*
X22490Y3464D02*
X30152Y3464D01*
X33048Y3464D02*
X41883Y3464D01*
X15025Y3514D02*
X15556Y3514D01*
X17384Y3514D02*
X20636Y3514D01*
X22464Y3514D02*
X30150Y3514D01*
X33050Y3514D02*
X41883Y3514D01*
X15025Y3563D02*
X15590Y3563D01*
X17350Y3563D02*
X20670Y3563D01*
X21375Y3563D02*
X21725Y3563D01*
X22430Y3563D02*
X30156Y3563D01*
X33044Y3563D02*
X41883Y3563D01*
X15025Y3613D02*
X15625Y3613D01*
X17315Y3613D02*
X20705Y3613D01*
X21375Y3613D02*
X21725Y3613D01*
X22395Y3613D02*
X30161Y3613D01*
X33039Y3613D02*
X41883Y3613D01*
X15025Y3662D02*
X15659Y3662D01*
X17281Y3662D02*
X20739Y3662D01*
X21375Y3662D02*
X21725Y3662D01*
X22361Y3662D02*
X30167Y3662D01*
X33033Y3662D02*
X41883Y3662D01*
X15025Y3712D02*
X15699Y3712D01*
X17241Y3712D02*
X20779Y3712D01*
X21375Y3712D02*
X21725Y3712D01*
X22321Y3712D02*
X30172Y3712D01*
X33028Y3712D02*
X41883Y3712D01*
X15025Y3761D02*
X15755Y3761D01*
X17185Y3761D02*
X20835Y3761D01*
X21375Y3761D02*
X21725Y3761D01*
X22265Y3761D02*
X30178Y3761D01*
X33022Y3761D02*
X41883Y3761D01*
X15025Y3811D02*
X15811Y3811D01*
X17129Y3811D02*
X20891Y3811D01*
X21375Y3811D02*
X21725Y3811D01*
X22209Y3811D02*
X30183Y3811D01*
X33017Y3811D02*
X41883Y3811D01*
X15025Y3860D02*
X15867Y3860D01*
X17073Y3860D02*
X20947Y3860D01*
X21375Y3860D02*
X21725Y3860D01*
X22153Y3860D02*
X30198Y3860D01*
X33002Y3860D02*
X41883Y3860D01*
X15025Y3910D02*
X15958Y3910D01*
X16982Y3910D02*
X21038Y3910D01*
X21375Y3910D02*
X21725Y3910D01*
X22062Y3910D02*
X30215Y3910D01*
X32985Y3910D02*
X41883Y3910D01*
X15025Y3960D02*
X16052Y3960D01*
X16888Y3960D02*
X21132Y3960D01*
X21375Y3960D02*
X21725Y3960D01*
X21968Y3960D02*
X30233Y3960D01*
X32967Y3960D02*
X41883Y3960D01*
X15025Y4009D02*
X16202Y4009D01*
X16738Y4009D02*
X21282Y4009D01*
X21375Y4009D02*
X21725Y4009D01*
X21818Y4009D02*
X30250Y4009D01*
X32950Y4009D02*
X41883Y4009D01*
X15025Y4059D02*
X30267Y4059D01*
X32933Y4059D02*
X41883Y4059D01*
X15025Y4108D02*
X30285Y4108D01*
X32915Y4108D02*
X41883Y4108D01*
X15025Y4158D02*
X30310Y4158D01*
X32890Y4158D02*
X41883Y4158D01*
X15025Y4207D02*
X30341Y4207D01*
X32859Y4207D02*
X41883Y4207D01*
X15025Y4257D02*
X30372Y4257D01*
X32828Y4257D02*
X41883Y4257D01*
X15025Y4306D02*
X30403Y4306D01*
X32797Y4306D02*
X41883Y4306D01*
X15025Y4356D02*
X30434Y4356D01*
X32766Y4356D02*
X41883Y4356D01*
X15025Y4405D02*
X30466Y4405D01*
X32734Y4405D02*
X41883Y4405D01*
X15025Y4455D02*
X30515Y4455D01*
X32685Y4455D02*
X41883Y4455D01*
X15025Y4504D02*
X30564Y4504D01*
X32636Y4504D02*
X41883Y4504D01*
X15025Y4554D02*
X30614Y4554D01*
X32586Y4554D02*
X41883Y4554D01*
X15025Y4603D02*
X30664Y4603D01*
X32536Y4603D02*
X38734Y4603D01*
X39266Y4603D02*
X41883Y4603D01*
X15025Y4653D02*
X30724Y4653D01*
X32476Y4653D02*
X38558Y4653D01*
X39442Y4653D02*
X41883Y4653D01*
X15025Y4702D02*
X30803Y4702D01*
X32397Y4702D02*
X38416Y4702D01*
X39584Y4702D02*
X41883Y4702D01*
X15025Y4752D02*
X30881Y4752D01*
X32319Y4752D02*
X38322Y4752D01*
X39678Y4752D02*
X41883Y4752D01*
X15025Y4802D02*
X30960Y4802D01*
X32240Y4802D02*
X38243Y4802D01*
X39757Y4802D02*
X41883Y4802D01*
X15025Y4851D02*
X31094Y4851D01*
X32106Y4851D02*
X38164Y4851D01*
X39836Y4851D02*
X41883Y4851D01*
X15025Y4901D02*
X31235Y4901D01*
X31965Y4901D02*
X38095Y4901D01*
X39905Y4901D02*
X41883Y4901D01*
X15025Y4950D02*
X31587Y4950D01*
X31613Y4950D02*
X38045Y4950D01*
X39955Y4950D02*
X41883Y4950D01*
X15025Y5000D02*
X37996Y5000D01*
X40004Y5000D02*
X41883Y5000D01*
X15025Y5049D02*
X37946Y5049D01*
X40054Y5049D02*
X41883Y5049D01*
X15025Y5099D02*
X37896Y5099D01*
X40104Y5099D02*
X41883Y5099D01*
X15025Y5148D02*
X37861Y5148D01*
X40139Y5148D02*
X41883Y5148D01*
X15025Y5198D02*
X37830Y5198D01*
X40170Y5198D02*
X41883Y5198D01*
X15025Y5247D02*
X37799Y5247D01*
X40201Y5247D02*
X41883Y5247D01*
X15025Y5297D02*
X37768Y5297D01*
X40232Y5297D02*
X41883Y5297D01*
X15025Y5346D02*
X37736Y5346D01*
X40264Y5346D02*
X41883Y5346D01*
X15025Y5396D02*
X37710Y5396D01*
X40290Y5396D02*
X41883Y5396D01*
X15025Y5445D02*
X37692Y5445D01*
X40308Y5445D02*
X41883Y5445D01*
X15025Y5495D02*
X37675Y5495D01*
X40325Y5495D02*
X41883Y5495D01*
X15025Y5545D02*
X37658Y5545D01*
X40342Y5545D02*
X41883Y5545D01*
X15025Y5594D02*
X37640Y5594D01*
X40360Y5594D02*
X41883Y5594D01*
X15025Y5644D02*
X37623Y5644D01*
X40377Y5644D02*
X41883Y5644D01*
X15025Y5693D02*
X37608Y5693D01*
X40392Y5693D02*
X41883Y5693D01*
X15025Y5743D02*
X37602Y5743D01*
X40398Y5743D02*
X41883Y5743D01*
X15025Y5792D02*
X37597Y5792D01*
X40403Y5792D02*
X41883Y5792D01*
X15025Y5842D02*
X37591Y5842D01*
X40409Y5842D02*
X41883Y5842D01*
X15025Y5891D02*
X37586Y5891D01*
X40414Y5891D02*
X41883Y5891D01*
X15025Y5941D02*
X37580Y5941D01*
X40420Y5941D02*
X41883Y5941D01*
X15025Y5990D02*
X37575Y5990D01*
X40425Y5990D02*
X41883Y5990D01*
X15025Y6040D02*
X37578Y6040D01*
X40422Y6040D02*
X41883Y6040D01*
X15025Y6089D02*
X37584Y6089D01*
X40416Y6089D02*
X41883Y6089D01*
X15025Y6139D02*
X37589Y6139D01*
X40411Y6139D02*
X41883Y6139D01*
X15025Y6188D02*
X37595Y6188D01*
X40405Y6188D02*
X41883Y6188D01*
X15025Y6238D02*
X37600Y6238D01*
X40400Y6238D02*
X41883Y6238D01*
X15025Y6287D02*
X37606Y6287D01*
X40394Y6287D02*
X41883Y6287D01*
X15025Y6337D02*
X37616Y6337D01*
X40384Y6337D02*
X41883Y6337D01*
X15025Y6387D02*
X37633Y6387D01*
X40367Y6387D02*
X41883Y6387D01*
X15025Y6436D02*
X37651Y6436D01*
X40349Y6436D02*
X41883Y6436D01*
X15025Y6486D02*
X37668Y6486D01*
X40332Y6486D02*
X41883Y6486D01*
X15025Y6535D02*
X37685Y6535D01*
X40315Y6535D02*
X41883Y6535D01*
X15025Y6585D02*
X37703Y6585D01*
X40297Y6585D02*
X41883Y6585D01*
X15025Y6634D02*
X37724Y6634D01*
X40276Y6634D02*
X41883Y6634D01*
X15025Y6684D02*
X37755Y6684D01*
X40245Y6684D02*
X41883Y6684D01*
X15025Y6733D02*
X37787Y6733D01*
X40213Y6733D02*
X41883Y6733D01*
X15025Y6783D02*
X37818Y6783D01*
X40182Y6783D02*
X41883Y6783D01*
X15025Y6832D02*
X37849Y6832D01*
X40151Y6832D02*
X41883Y6832D01*
X15025Y6882D02*
X37880Y6882D01*
X40120Y6882D02*
X41883Y6882D01*
X15025Y6931D02*
X37927Y6931D01*
X40073Y6931D02*
X41883Y6931D01*
X15025Y6981D02*
X37976Y6981D01*
X40024Y6981D02*
X41883Y6981D01*
X15025Y7030D02*
X38026Y7030D01*
X39974Y7030D02*
X41883Y7030D01*
X15025Y7080D02*
X38075Y7080D01*
X39925Y7080D02*
X41883Y7080D01*
X15025Y7129D02*
X38133Y7129D01*
X39867Y7129D02*
X41883Y7129D01*
X15025Y7179D02*
X38212Y7179D01*
X39788Y7179D02*
X41883Y7179D01*
X15025Y7229D02*
X38291Y7229D01*
X39709Y7229D02*
X41883Y7229D01*
X15025Y7278D02*
X38370Y7278D01*
X39630Y7278D02*
X41883Y7278D01*
X15025Y7328D02*
X38502Y7328D01*
X39498Y7328D02*
X41883Y7328D01*
X15025Y7377D02*
X38643Y7377D01*
X39357Y7377D02*
X41883Y7377D01*
X15025Y7427D02*
X41883Y7427D01*
X15025Y7476D02*
X41883Y7476D01*
X15025Y7526D02*
X41883Y7526D01*
X15025Y7575D02*
X41883Y7575D01*
X15025Y7625D02*
X41883Y7625D01*
X15025Y7674D02*
X41883Y7674D01*
X15025Y7724D02*
X41883Y7724D01*
X15025Y7773D02*
X41883Y7773D01*
X15025Y7823D02*
X41883Y7823D01*
X15025Y7872D02*
X41883Y7872D01*
X15025Y7922D02*
X41883Y7922D01*
X15025Y7971D02*
X41883Y7971D01*
X15025Y8021D02*
X41883Y8021D01*
X15025Y8071D02*
X41883Y8071D01*
X15025Y8120D02*
X41883Y8120D01*
X15025Y8170D02*
X41883Y8170D01*
X15025Y8219D02*
X41883Y8219D01*
X15025Y8269D02*
X41883Y8269D01*
X15025Y8318D02*
X41883Y8318D01*
X15025Y8368D02*
X41883Y8368D01*
X15025Y8417D02*
X41883Y8417D01*
X15025Y8467D02*
X41883Y8467D01*
X15025Y8516D02*
X41883Y8516D01*
X15025Y8566D02*
X41883Y8566D01*
X15025Y8615D02*
X41883Y8615D01*
X15025Y8665D02*
X41883Y8665D01*
X15025Y8714D02*
X41883Y8714D01*
X15025Y8764D02*
X41883Y8764D01*
X15025Y8813D02*
X41883Y8813D01*
X15025Y8863D02*
X41883Y8863D01*
X15025Y8913D02*
X41883Y8913D01*
X15025Y8962D02*
X41883Y8962D01*
X15025Y9012D02*
X41883Y9012D01*
X15025Y9061D02*
X41883Y9061D01*
X15025Y9111D02*
X41883Y9111D01*
X15025Y9160D02*
X41883Y9160D01*
X15025Y9210D02*
X41883Y9210D01*
X15025Y9259D02*
X41883Y9259D01*
X15025Y9309D02*
X41883Y9309D01*
X15025Y9358D02*
X41883Y9358D01*
X15025Y9408D02*
X41883Y9408D01*
X15025Y9457D02*
X41883Y9457D01*
X15025Y9507D02*
X41883Y9507D01*
X15025Y9556D02*
X41883Y9556D01*
X15025Y9606D02*
X38711Y9606D01*
X39289Y9606D02*
X41883Y9606D01*
X15025Y9655D02*
X38550Y9655D01*
X39450Y9655D02*
X41883Y9655D01*
X15025Y9705D02*
X38409Y9705D01*
X39591Y9705D02*
X41883Y9705D01*
X15025Y9755D02*
X38318Y9755D01*
X39682Y9755D02*
X41883Y9755D01*
X15025Y9804D02*
X38239Y9804D01*
X39761Y9804D02*
X41883Y9804D01*
X15025Y9854D02*
X38160Y9854D01*
X39840Y9854D02*
X41883Y9854D01*
X15025Y9903D02*
X38092Y9903D01*
X39908Y9903D02*
X41883Y9903D01*
X15025Y9953D02*
X38043Y9953D01*
X39957Y9953D02*
X41883Y9953D01*
X15025Y10002D02*
X16156Y10002D01*
X16295Y10002D02*
X16645Y10002D01*
X16784Y10002D02*
X21236Y10002D01*
X21864Y10002D02*
X37993Y10002D01*
X40007Y10002D02*
X41883Y10002D01*
X15025Y10052D02*
X16030Y10052D01*
X16295Y10052D02*
X16645Y10052D01*
X16910Y10052D02*
X21110Y10052D01*
X21990Y10052D02*
X37943Y10052D01*
X40057Y10052D02*
X41883Y10052D01*
X15025Y10101D02*
X15936Y10101D01*
X16295Y10101D02*
X16645Y10101D01*
X17004Y10101D02*
X21016Y10101D01*
X22084Y10101D02*
X37894Y10101D01*
X40106Y10101D02*
X41883Y10101D01*
X15025Y10151D02*
X15854Y10151D01*
X16295Y10151D02*
X16645Y10151D01*
X17086Y10151D02*
X20934Y10151D01*
X22166Y10151D02*
X37859Y10151D01*
X40141Y10151D02*
X41883Y10151D01*
X15025Y10200D02*
X15798Y10200D01*
X16295Y10200D02*
X16645Y10200D01*
X17142Y10200D02*
X20878Y10200D01*
X22222Y10200D02*
X37828Y10200D01*
X40172Y10200D02*
X41883Y10200D01*
X15025Y10250D02*
X15742Y10250D01*
X16295Y10250D02*
X16645Y10250D01*
X17198Y10250D02*
X20822Y10250D01*
X22278Y10250D02*
X37797Y10250D01*
X40203Y10250D02*
X41883Y10250D01*
X15025Y10299D02*
X15687Y10299D01*
X16295Y10299D02*
X16645Y10299D01*
X17253Y10299D02*
X20767Y10299D01*
X22333Y10299D02*
X37766Y10299D01*
X40234Y10299D02*
X41883Y10299D01*
X15025Y10349D02*
X15651Y10349D01*
X16295Y10349D02*
X16645Y10349D01*
X17289Y10349D02*
X20731Y10349D01*
X22369Y10349D02*
X37735Y10349D01*
X40265Y10349D02*
X41883Y10349D01*
X15025Y10398D02*
X15617Y10398D01*
X16295Y10398D02*
X16645Y10398D01*
X17323Y10398D02*
X20697Y10398D01*
X22403Y10398D02*
X37709Y10398D01*
X40291Y10398D02*
X41883Y10398D01*
X15025Y10448D02*
X15583Y10448D01*
X16295Y10448D02*
X16645Y10448D01*
X17357Y10448D02*
X20663Y10448D01*
X22437Y10448D02*
X37691Y10448D01*
X40309Y10448D02*
X41883Y10448D01*
X15025Y10498D02*
X15548Y10498D01*
X17392Y10498D02*
X20628Y10498D01*
X22472Y10498D02*
X37674Y10498D01*
X40326Y10498D02*
X41883Y10498D01*
X15025Y10547D02*
X15525Y10547D01*
X17415Y10547D02*
X20605Y10547D01*
X22495Y10547D02*
X37657Y10547D01*
X40343Y10547D02*
X41883Y10547D01*
X15025Y10597D02*
X15507Y10597D01*
X17433Y10597D02*
X20587Y10597D01*
X22513Y10597D02*
X37639Y10597D01*
X40361Y10597D02*
X41883Y10597D01*
X15025Y10646D02*
X15488Y10646D01*
X17452Y10646D02*
X20568Y10646D01*
X22532Y10646D02*
X37622Y10646D01*
X40378Y10646D02*
X41883Y10646D01*
X15025Y10696D02*
X15469Y10696D01*
X17471Y10696D02*
X20549Y10696D01*
X22551Y10696D02*
X37608Y10696D01*
X40392Y10696D02*
X41883Y10696D01*
X15025Y10745D02*
X15450Y10745D01*
X17490Y10745D02*
X20530Y10745D01*
X22570Y10745D02*
X37602Y10745D01*
X40398Y10745D02*
X41883Y10745D01*
X15025Y10795D02*
X15443Y10795D01*
X17497Y10795D02*
X20523Y10795D01*
X22577Y10795D02*
X37597Y10795D01*
X40403Y10795D02*
X41883Y10795D01*
X15025Y10844D02*
X15920Y10844D01*
X17020Y10844D02*
X20517Y10844D01*
X22583Y10844D02*
X37591Y10844D01*
X40409Y10844D02*
X41883Y10844D01*
X15025Y10894D02*
X15920Y10894D01*
X17020Y10894D02*
X20511Y10894D01*
X22589Y10894D02*
X37585Y10894D01*
X40415Y10894D02*
X41883Y10894D01*
X15025Y10943D02*
X15920Y10943D01*
X17020Y10943D02*
X20505Y10943D01*
X22595Y10943D02*
X37580Y10943D01*
X40420Y10943D02*
X41883Y10943D01*
X15025Y10993D02*
X15920Y10993D01*
X17020Y10993D02*
X20499Y10993D01*
X22601Y10993D02*
X37574Y10993D01*
X40426Y10993D02*
X41883Y10993D01*
X15025Y11042D02*
X15920Y11042D01*
X17020Y11042D02*
X20504Y11042D01*
X22596Y11042D02*
X37578Y11042D01*
X40422Y11042D02*
X41883Y11042D01*
X15025Y11092D02*
X15920Y11092D01*
X17020Y11092D02*
X20510Y11092D01*
X22590Y11092D02*
X37584Y11092D01*
X40416Y11092D02*
X41883Y11092D01*
X15025Y11141D02*
X15920Y11141D01*
X17020Y11141D02*
X20516Y11141D01*
X22584Y11141D02*
X37589Y11141D01*
X40411Y11141D02*
X41883Y11141D01*
X15025Y11191D02*
X15442Y11191D01*
X17498Y11191D02*
X20522Y11191D01*
X22578Y11191D02*
X37595Y11191D01*
X40405Y11191D02*
X41883Y11191D01*
X15025Y11240D02*
X15448Y11240D01*
X17492Y11240D02*
X20528Y11240D01*
X22572Y11240D02*
X37601Y11240D01*
X40399Y11240D02*
X41883Y11240D01*
X15025Y11290D02*
X15464Y11290D01*
X17476Y11290D02*
X20544Y11290D01*
X22556Y11290D02*
X37606Y11290D01*
X40394Y11290D02*
X41883Y11290D01*
X15025Y11340D02*
X15482Y11340D01*
X17458Y11340D02*
X20562Y11340D01*
X22538Y11340D02*
X37617Y11340D01*
X40383Y11340D02*
X41883Y11340D01*
X15025Y11389D02*
X15501Y11389D01*
X17439Y11389D02*
X20581Y11389D01*
X22519Y11389D02*
X37634Y11389D01*
X40366Y11389D02*
X41883Y11389D01*
X15025Y11439D02*
X15520Y11439D01*
X17420Y11439D02*
X20600Y11439D01*
X22500Y11439D02*
X37652Y11439D01*
X40348Y11439D02*
X41883Y11439D01*
X15025Y11488D02*
X15539Y11488D01*
X17401Y11488D02*
X20619Y11488D01*
X22481Y11488D02*
X37669Y11488D01*
X40331Y11488D02*
X41883Y11488D01*
X15025Y11538D02*
X15573Y11538D01*
X17367Y11538D02*
X20653Y11538D01*
X22447Y11538D02*
X37686Y11538D01*
X40314Y11538D02*
X41883Y11538D01*
X15025Y11587D02*
X15607Y11587D01*
X16295Y11587D02*
X16645Y11587D01*
X17333Y11587D02*
X20687Y11587D01*
X22413Y11587D02*
X37704Y11587D01*
X40296Y11587D02*
X41883Y11587D01*
X15025Y11637D02*
X15641Y11637D01*
X16295Y11637D02*
X16645Y11637D01*
X17299Y11637D02*
X20721Y11637D01*
X22379Y11637D02*
X37726Y11637D01*
X40274Y11637D02*
X41883Y11637D01*
X15025Y11686D02*
X15675Y11686D01*
X16295Y11686D02*
X16645Y11686D01*
X17265Y11686D02*
X20755Y11686D01*
X22345Y11686D02*
X37757Y11686D01*
X40243Y11686D02*
X41883Y11686D01*
X15025Y11736D02*
X15726Y11736D01*
X16295Y11736D02*
X16645Y11736D01*
X17214Y11736D02*
X20806Y11736D01*
X22294Y11736D02*
X37788Y11736D01*
X40212Y11736D02*
X41883Y11736D01*
X15025Y11785D02*
X15782Y11785D01*
X16295Y11785D02*
X16645Y11785D01*
X17158Y11785D02*
X20862Y11785D01*
X22238Y11785D02*
X37819Y11785D01*
X40181Y11785D02*
X41883Y11785D01*
X15025Y11835D02*
X15838Y11835D01*
X16295Y11835D02*
X16645Y11835D01*
X17102Y11835D02*
X20918Y11835D01*
X22182Y11835D02*
X37850Y11835D01*
X40150Y11835D02*
X41883Y11835D01*
X15025Y11884D02*
X15909Y11884D01*
X16295Y11884D02*
X16645Y11884D01*
X17031Y11884D02*
X20989Y11884D01*
X22111Y11884D02*
X37881Y11884D01*
X40119Y11884D02*
X41883Y11884D01*
X15025Y11934D02*
X16003Y11934D01*
X16295Y11934D02*
X16645Y11934D01*
X16937Y11934D02*
X21083Y11934D01*
X22017Y11934D02*
X37929Y11934D01*
X40071Y11934D02*
X41883Y11934D01*
X15025Y11983D02*
X16098Y11983D01*
X16295Y11983D02*
X16645Y11983D01*
X16842Y11983D02*
X21178Y11983D01*
X21922Y11983D02*
X37979Y11983D01*
X40021Y11983D02*
X41883Y11983D01*
X15025Y12033D02*
X21379Y12033D01*
X21721Y12033D02*
X38028Y12033D01*
X39972Y12033D02*
X41883Y12033D01*
X15025Y12082D02*
X30412Y12082D01*
X32788Y12082D02*
X38078Y12082D01*
X39922Y12082D02*
X41883Y12082D01*
X15025Y12132D02*
X30322Y12132D01*
X32878Y12132D02*
X38137Y12132D01*
X39863Y12132D02*
X41883Y12132D01*
X15025Y12182D02*
X30267Y12182D01*
X32933Y12182D02*
X38216Y12182D01*
X39784Y12182D02*
X41883Y12182D01*
X15025Y12231D02*
X30226Y12231D01*
X32974Y12231D02*
X38295Y12231D01*
X39705Y12231D02*
X41883Y12231D01*
X15025Y12281D02*
X30196Y12281D01*
X33004Y12281D02*
X38374Y12281D01*
X39626Y12281D02*
X41883Y12281D01*
X15025Y12330D02*
X30175Y12330D01*
X33025Y12330D02*
X38509Y12330D01*
X39491Y12330D02*
X41883Y12330D01*
X15025Y12380D02*
X30161Y12380D01*
X33039Y12380D02*
X38651Y12380D01*
X39349Y12380D02*
X41883Y12380D01*
X15025Y12429D02*
X30152Y12429D01*
X33048Y12429D02*
X41883Y12429D01*
X15025Y12479D02*
X30149Y12479D01*
X33051Y12479D02*
X41883Y12479D01*
X15025Y12528D02*
X30149Y12528D01*
X33051Y12528D02*
X41883Y12528D01*
X15025Y12578D02*
X30149Y12578D01*
X33051Y12578D02*
X41883Y12578D01*
X15025Y12627D02*
X30149Y12627D01*
X33051Y12627D02*
X41883Y12627D01*
X15025Y12677D02*
X30149Y12677D01*
X33051Y12677D02*
X41883Y12677D01*
X15025Y12726D02*
X30149Y12726D01*
X33051Y12726D02*
X41883Y12726D01*
X15025Y12776D02*
X30149Y12776D01*
X33051Y12776D02*
X41883Y12776D01*
X15025Y12825D02*
X30149Y12825D01*
X33051Y12825D02*
X41883Y12825D01*
X15025Y12875D02*
X30149Y12875D01*
X33051Y12875D02*
X41883Y12875D01*
X15025Y12924D02*
X30149Y12924D01*
X33051Y12924D02*
X41883Y12924D01*
X15025Y12974D02*
X30149Y12974D01*
X33051Y12974D02*
X41883Y12974D01*
X15025Y13024D02*
X30149Y13024D01*
X33051Y13024D02*
X41883Y13024D01*
X15025Y13073D02*
X30149Y13073D01*
X33051Y13073D02*
X41883Y13073D01*
X15025Y13123D02*
X30149Y13123D01*
X33051Y13123D02*
X41883Y13123D01*
X15025Y13172D02*
X30149Y13172D01*
X33051Y13172D02*
X41883Y13172D01*
X15025Y13222D02*
X30149Y13222D01*
X33051Y13222D02*
X41883Y13222D01*
X15025Y13271D02*
X30149Y13271D01*
X33051Y13271D02*
X41883Y13271D01*
X15025Y13321D02*
X30149Y13321D01*
X33051Y13321D02*
X41883Y13321D01*
X15025Y13370D02*
X30149Y13370D01*
X33051Y13370D02*
X41883Y13370D01*
X15025Y13420D02*
X30149Y13420D01*
X33051Y13420D02*
X41883Y13420D01*
X15025Y13469D02*
X30149Y13469D01*
X33051Y13469D02*
X41883Y13469D01*
X15025Y13519D02*
X30149Y13519D01*
X33051Y13519D02*
X41883Y13519D01*
X15025Y13568D02*
X30149Y13568D01*
X33051Y13568D02*
X41883Y13568D01*
X15025Y13618D02*
X30149Y13618D01*
X33051Y13618D02*
X41883Y13618D01*
X15025Y13667D02*
X30149Y13667D01*
X33051Y13667D02*
X41883Y13667D01*
X15025Y13717D02*
X30149Y13717D01*
X33051Y13717D02*
X41812Y13717D01*
X15025Y13766D02*
X30149Y13766D01*
X33051Y13766D02*
X41738Y13766D01*
X15025Y13816D02*
X30149Y13816D01*
X33051Y13816D02*
X41664Y13816D01*
X15025Y13866D02*
X30149Y13866D01*
X33051Y13866D02*
X41590Y13866D01*
X15025Y13915D02*
X30149Y13915D01*
X33051Y13915D02*
X41515Y13915D01*
X15025Y13965D02*
X30149Y13965D01*
X33051Y13965D02*
X41441Y13965D01*
X15025Y14014D02*
X30149Y14014D01*
X33051Y14014D02*
X41367Y14014D01*
X15025Y14064D02*
X30149Y14064D01*
X33051Y14064D02*
X41292Y14064D01*
X15025Y14113D02*
X30149Y14113D01*
X33051Y14113D02*
X41218Y14113D01*
X15025Y14163D02*
X30149Y14163D01*
X33051Y14163D02*
X41144Y14163D01*
X15025Y14212D02*
X30149Y14212D01*
X33051Y14212D02*
X41069Y14212D01*
X15025Y14262D02*
X30149Y14262D01*
X33051Y14262D02*
X40995Y14262D01*
X15025Y14311D02*
X30149Y14311D01*
X33051Y14311D02*
X40921Y14311D01*
X15025Y14361D02*
X30149Y14361D01*
X33051Y14361D02*
X40847Y14361D01*
X15025Y14410D02*
X30149Y14410D01*
X33051Y14410D02*
X40772Y14410D01*
X15025Y14460D02*
X30149Y14460D01*
X33051Y14460D02*
X40698Y14460D01*
X15025Y14509D02*
X30149Y14509D01*
X33051Y14509D02*
X40624Y14509D01*
X15025Y14559D02*
X30151Y14559D01*
X33049Y14559D02*
X40549Y14559D01*
X15025Y14608D02*
X30158Y14608D01*
X33042Y14608D02*
X40475Y14608D01*
X15025Y14658D02*
X30170Y14658D01*
X33030Y14658D02*
X40401Y14658D01*
X15025Y14708D02*
X30190Y14708D01*
X33010Y14708D02*
X40327Y14708D01*
X15025Y14757D02*
X30219Y14757D01*
X32981Y14757D02*
X40252Y14757D01*
X15025Y14807D02*
X30256Y14807D01*
X32944Y14807D02*
X40178Y14807D01*
X15025Y14856D02*
X30308Y14856D01*
X32892Y14856D02*
X40104Y14856D01*
X15025Y14906D02*
X30383Y14906D01*
X32817Y14906D02*
X40029Y14906D01*
X15025Y14955D02*
X39955Y14955D01*
X15025Y15005D02*
X39881Y15005D01*
X15025Y15054D02*
X39806Y15054D01*
X15025Y15104D02*
X39732Y15104D01*
X15025Y15153D02*
X39658Y15153D01*
X15025Y15203D02*
X39584Y15203D01*
X15025Y15252D02*
X39509Y15252D01*
X15025Y15302D02*
X39435Y15302D01*
X15025Y15351D02*
X39361Y15351D01*
X15025Y15401D02*
X39286Y15401D01*
X15025Y15451D02*
X39212Y15451D01*
X15025Y15500D02*
X39138Y15500D01*
X15025Y15550D02*
X39064Y15550D01*
X15025Y15599D02*
X38989Y15599D01*
X15025Y15649D02*
X38915Y15649D01*
X15025Y15698D02*
X38841Y15698D01*
X15025Y15748D02*
X38766Y15748D01*
X15025Y15797D02*
X38692Y15797D01*
X15025Y15847D02*
X38618Y15847D01*
X15025Y15896D02*
X38543Y15896D01*
X15025Y15946D02*
X38469Y15946D01*
X15025Y15995D02*
X38395Y15995D01*
X15025Y16045D02*
X38321Y16045D01*
X15025Y16094D02*
X38246Y16094D01*
X15025Y16144D02*
X38172Y16144D01*
X15025Y16193D02*
X38098Y16193D01*
X15025Y16243D02*
X38023Y16243D01*
X15025Y16293D02*
X37949Y16293D01*
X15025Y16342D02*
X37875Y16342D01*
%LNpour fill*%
X12975Y16475D02*
X12975Y16475D01*
X0525Y16475*
X0525Y0525*
X12975Y0525*
X12975Y16475*
X9477Y10145D02*
X9477Y10145D01*
X9510Y10148*
X9512Y10148*
X9545Y10156*
X9547Y10157*
X9578Y10170*
X9580Y10171*
X9609Y10189*
X9611Y10190*
X9637Y10212*
X9638Y10213*
X9660Y10239*
X9661Y10241*
X9679Y10270*
X9680Y10272*
X9693Y10303*
X9694Y10305*
X9702Y10338*
X9702Y10340*
X9705Y10374*
X9705Y10375*
X9705Y11625*
X9705Y11626*
X9702Y11660*
X9702Y11662*
X9694Y11695*
X9693Y11697*
X9680Y11728*
X9679Y11730*
X9661Y11759*
X9660Y11761*
X9638Y11787*
X9637Y11788*
X9611Y11810*
X9609Y11811*
X9580Y11829*
X9578Y11830*
X9547Y11843*
X9545Y11844*
X9512Y11852*
X9510Y11852*
X9476Y11855*
X9475Y11855*
X8225Y11855*
X8224Y11855*
X8190Y11852*
X8188Y11852*
X8155Y11844*
X8153Y11843*
X8122Y11830*
X8120Y11829*
X8091Y11811*
X8089Y11810*
X8063Y11788*
X8062Y11787*
X8040Y11761*
X8039Y11759*
X8021Y11730*
X8020Y11728*
X8007Y11697*
X8006Y11695*
X7998Y11662*
X7998Y11660*
X7995Y11627*
X7995Y11626*
X7995Y10374*
X7995Y10373*
X7998Y10340*
X7998Y10338*
X8006Y10305*
X8007Y10303*
X8020Y10272*
X8021Y10270*
X8039Y10241*
X8040Y10239*
X8062Y10213*
X8063Y10212*
X8089Y10190*
X8091Y10189*
X8120Y10171*
X8122Y10170*
X8153Y10157*
X8155Y10156*
X8188Y10148*
X8190Y10148*
X8223Y10145*
X8224Y10145*
X9476Y10145*
X9477Y10145*
X11692Y10200D02*
X11692Y10200D01*
X11694Y10201*
X11874Y10296*
X11877Y10298*
X12029Y10432*
X12031Y10434*
X12146Y10601*
X12147Y10604*
X12219Y10794*
X12220Y10797*
X12233Y10907*
X12218Y10924*
X11990Y10924*
X11990Y11076*
X12218Y11076*
X12233Y11093*
X12220Y11203*
X12219Y11206*
X12147Y11396*
X12146Y11399*
X12031Y11566*
X12029Y11568*
X11877Y11702*
X11874Y11704*
X11694Y11799*
X11692Y11800*
X11486Y11850*
X11466Y11835*
X11466Y11595*
X11314Y11595*
X11314Y11835*
X11294Y11850*
X11088Y11800*
X11086Y11799*
X10906Y11704*
X10903Y11702*
X10751Y11568*
X10749Y11566*
X10634Y11399*
X10633Y11396*
X10561Y11206*
X10560Y11203*
X10547Y11093*
X10562Y11076*
X10790Y11076*
X10790Y10924*
X10562Y10924*
X10547Y10907*
X10560Y10797*
X10561Y10794*
X10633Y10604*
X10634Y10601*
X10749Y10434*
X10751Y10432*
X10903Y10298*
X10906Y10296*
X11086Y10201*
X11088Y10200*
X11294Y10150*
X11314Y10165*
X11314Y10405*
X11466Y10405*
X11466Y10165*
X11486Y10150*
X11692Y10200*
X9477Y2145D02*
X9477Y2145D01*
X9510Y2148*
X9512Y2148*
X9545Y2156*
X9547Y2157*
X9578Y2170*
X9580Y2171*
X9609Y2189*
X9611Y2190*
X9637Y2212*
X9638Y2213*
X9660Y2239*
X9661Y2241*
X9679Y2270*
X9680Y2272*
X9693Y2303*
X9694Y2305*
X9702Y2338*
X9702Y2340*
X9705Y2374*
X9705Y2375*
X9705Y3625*
X9705Y3626*
X9702Y3660*
X9702Y3662*
X9694Y3695*
X9693Y3697*
X9680Y3728*
X9679Y3730*
X9661Y3759*
X9660Y3761*
X9638Y3787*
X9637Y3788*
X9611Y3810*
X9609Y3811*
X9580Y3829*
X9578Y3830*
X9547Y3843*
X9545Y3844*
X9512Y3852*
X9510Y3852*
X9476Y3855*
X9475Y3855*
X8225Y3855*
X8224Y3855*
X8190Y3852*
X8188Y3852*
X8155Y3844*
X8153Y3843*
X8122Y3830*
X8120Y3829*
X8091Y3811*
X8089Y3810*
X8063Y3788*
X8062Y3787*
X8040Y3761*
X8039Y3759*
X8021Y3730*
X8020Y3728*
X8007Y3697*
X8006Y3695*
X7998Y3662*
X7998Y3660*
X7995Y3627*
X7995Y3626*
X7995Y2374*
X7995Y2373*
X7998Y2340*
X7998Y2338*
X8006Y2305*
X8007Y2303*
X8020Y2272*
X8021Y2270*
X8039Y2241*
X8040Y2239*
X8062Y2213*
X8063Y2212*
X8089Y2190*
X8091Y2189*
X8120Y2171*
X8122Y2170*
X8153Y2157*
X8155Y2156*
X8188Y2148*
X8190Y2148*
X8223Y2145*
X8224Y2145*
X9476Y2145*
X9477Y2145*
X11692Y2200D02*
X11692Y2200D01*
X11694Y2201*
X11874Y2296*
X11877Y2298*
X12029Y2432*
X12031Y2434*
X12146Y2601*
X12147Y2604*
X12219Y2794*
X12220Y2797*
X12233Y2907*
X12218Y2924*
X11990Y2924*
X11990Y3076*
X12218Y3076*
X12233Y3093*
X12220Y3203*
X12219Y3206*
X12147Y3396*
X12146Y3399*
X12031Y3566*
X12029Y3568*
X11877Y3702*
X11874Y3704*
X11694Y3799*
X11692Y3800*
X11486Y3850*
X11466Y3835*
X11466Y3595*
X11314Y3595*
X11314Y3835*
X11294Y3850*
X11088Y3800*
X11086Y3799*
X10906Y3704*
X10903Y3702*
X10751Y3568*
X10749Y3566*
X10634Y3399*
X10633Y3396*
X10561Y3206*
X10560Y3203*
X10547Y3093*
X10562Y3076*
X10790Y3076*
X10790Y2924*
X10562Y2924*
X10547Y2907*
X10560Y2797*
X10561Y2794*
X10633Y2604*
X10634Y2601*
X10749Y2434*
X10751Y2432*
X10903Y2298*
X10906Y2296*
X11086Y2201*
X11088Y2200*
X11294Y2150*
X11314Y2165*
X11314Y2405*
X11466Y2405*
X11466Y2165*
X11486Y2150*
X11692Y2200*
X0525Y0550D02*
X12975Y0550D01*
X0525Y0599D02*
X12975Y0599D01*
X0525Y0649D02*
X12975Y0649D01*
X0525Y0698D02*
X12975Y0698D01*
X0525Y0748D02*
X12975Y0748D01*
X0525Y0797D02*
X12975Y0797D01*
X0525Y0847D02*
X12975Y0847D01*
X0525Y0896D02*
X12975Y0896D01*
X0525Y0946D02*
X12975Y0946D01*
X0525Y0995D02*
X12975Y0995D01*
X0525Y1045D02*
X12975Y1045D01*
X0525Y1094D02*
X12975Y1094D01*
X0525Y1144D02*
X12975Y1144D01*
X0525Y1193D02*
X12975Y1193D01*
X0525Y1243D02*
X12975Y1243D01*
X0525Y1292D02*
X12975Y1292D01*
X0525Y1342D02*
X12975Y1342D01*
X0525Y1392D02*
X12975Y1392D01*
X0525Y1441D02*
X12975Y1441D01*
X0525Y1491D02*
X12975Y1491D01*
X0525Y1540D02*
X12975Y1540D01*
X0525Y1590D02*
X12975Y1590D01*
X0525Y1639D02*
X12975Y1639D01*
X0525Y1689D02*
X12975Y1689D01*
X0525Y1738D02*
X12975Y1738D01*
X0525Y1788D02*
X12975Y1788D01*
X0525Y1837D02*
X12975Y1837D01*
X0525Y1887D02*
X12975Y1887D01*
X0525Y1936D02*
X12975Y1936D01*
X0525Y1986D02*
X12975Y1986D01*
X0525Y2035D02*
X12975Y2035D01*
X0525Y2085D02*
X12975Y2085D01*
X0525Y2134D02*
X12975Y2134D01*
X0525Y2184D02*
X8098Y2184D01*
X9602Y2184D02*
X11155Y2184D01*
X11314Y2184D02*
X11466Y2184D01*
X11625Y2184D02*
X12975Y2184D01*
X0525Y2234D02*
X8045Y2234D01*
X9655Y2234D02*
X11024Y2234D01*
X11314Y2234D02*
X11466Y2234D01*
X11756Y2234D02*
X12975Y2234D01*
X0525Y2283D02*
X8015Y2283D01*
X9685Y2283D02*
X10930Y2283D01*
X11314Y2283D02*
X11466Y2283D01*
X11850Y2283D02*
X12975Y2283D01*
X0525Y2333D02*
X8000Y2333D01*
X9700Y2333D02*
X10864Y2333D01*
X11314Y2333D02*
X11466Y2333D01*
X11916Y2333D02*
X12975Y2333D01*
X0525Y2382D02*
X7995Y2382D01*
X9705Y2382D02*
X10808Y2382D01*
X11314Y2382D02*
X11466Y2382D01*
X11972Y2382D02*
X12975Y2382D01*
X0525Y2432D02*
X7995Y2432D01*
X9705Y2432D02*
X10752Y2432D01*
X12028Y2432D02*
X12975Y2432D01*
X0525Y2481D02*
X7995Y2481D01*
X9705Y2481D02*
X10717Y2481D01*
X12063Y2481D02*
X12975Y2481D01*
X0525Y2531D02*
X7995Y2531D01*
X9705Y2531D02*
X10683Y2531D01*
X12097Y2531D02*
X12975Y2531D01*
X0525Y2580D02*
X7995Y2580D01*
X9705Y2580D02*
X10649Y2580D01*
X12131Y2580D02*
X12975Y2580D01*
X0525Y2630D02*
X7995Y2630D01*
X9705Y2630D02*
X10623Y2630D01*
X12157Y2630D02*
X12975Y2630D01*
X0525Y2679D02*
X7995Y2679D01*
X9705Y2679D02*
X10604Y2679D01*
X12176Y2679D02*
X12975Y2679D01*
X0525Y2729D02*
X7995Y2729D01*
X9705Y2729D02*
X10585Y2729D01*
X12195Y2729D02*
X12975Y2729D01*
X0525Y2778D02*
X7995Y2778D01*
X9705Y2778D02*
X10567Y2778D01*
X12213Y2778D02*
X12975Y2778D01*
X0525Y2828D02*
X7995Y2828D01*
X9705Y2828D02*
X10556Y2828D01*
X12224Y2828D02*
X12975Y2828D01*
X0525Y2877D02*
X7995Y2877D01*
X9705Y2877D02*
X10550Y2877D01*
X12230Y2877D02*
X12975Y2877D01*
X0525Y2927D02*
X7995Y2927D01*
X9705Y2927D02*
X10790Y2927D01*
X11990Y2927D02*
X12975Y2927D01*
X0525Y2977D02*
X7995Y2977D01*
X9705Y2977D02*
X10790Y2977D01*
X11990Y2977D02*
X12975Y2977D01*
X0525Y3026D02*
X7995Y3026D01*
X9705Y3026D02*
X10790Y3026D01*
X11990Y3026D02*
X12975Y3026D01*
X0525Y3076D02*
X7995Y3076D01*
X9705Y3076D02*
X10790Y3076D01*
X11990Y3076D02*
X12975Y3076D01*
X0525Y3125D02*
X7995Y3125D01*
X9705Y3125D02*
X10550Y3125D01*
X12230Y3125D02*
X12975Y3125D01*
X0525Y3175D02*
X7995Y3175D01*
X9705Y3175D02*
X10556Y3175D01*
X12224Y3175D02*
X12975Y3175D01*
X0525Y3224D02*
X7995Y3224D01*
X9705Y3224D02*
X10567Y3224D01*
X12213Y3224D02*
X12975Y3224D01*
X0525Y3274D02*
X7995Y3274D01*
X9705Y3274D02*
X10586Y3274D01*
X12194Y3274D02*
X12975Y3274D01*
X0525Y3323D02*
X7995Y3323D01*
X9705Y3323D02*
X10605Y3323D01*
X12175Y3323D02*
X12975Y3323D01*
X0525Y3373D02*
X7995Y3373D01*
X9705Y3373D02*
X10624Y3373D01*
X12156Y3373D02*
X12975Y3373D01*
X0525Y3422D02*
X7995Y3422D01*
X9705Y3422D02*
X10650Y3422D01*
X12130Y3422D02*
X12975Y3422D01*
X0525Y3472D02*
X7995Y3472D01*
X9705Y3472D02*
X10685Y3472D01*
X12095Y3472D02*
X12975Y3472D01*
X0525Y3521D02*
X7995Y3521D01*
X9705Y3521D02*
X10719Y3521D01*
X12061Y3521D02*
X12975Y3521D01*
X0525Y3571D02*
X7995Y3571D01*
X9705Y3571D02*
X10755Y3571D01*
X12025Y3571D02*
X12975Y3571D01*
X0525Y3620D02*
X7995Y3620D01*
X9705Y3620D02*
X10811Y3620D01*
X11314Y3620D02*
X11466Y3620D01*
X11969Y3620D02*
X12975Y3620D01*
X0525Y3670D02*
X8000Y3670D01*
X9700Y3670D02*
X10867Y3670D01*
X11314Y3670D02*
X11466Y3670D01*
X11913Y3670D02*
X12975Y3670D01*
X0525Y3719D02*
X8016Y3719D01*
X9684Y3719D02*
X10935Y3719D01*
X11314Y3719D02*
X11466Y3719D01*
X11845Y3719D02*
X12975Y3719D01*
X0525Y3769D02*
X8047Y3769D01*
X9653Y3769D02*
X11029Y3769D01*
X11314Y3769D02*
X11466Y3769D01*
X11751Y3769D02*
X12975Y3769D01*
X0525Y3819D02*
X8103Y3819D01*
X9597Y3819D02*
X11165Y3819D01*
X11314Y3819D02*
X11466Y3819D01*
X11615Y3819D02*
X12975Y3819D01*
X0525Y3868D02*
X12975Y3868D01*
X0525Y3918D02*
X12975Y3918D01*
X0525Y3967D02*
X12975Y3967D01*
X0525Y4017D02*
X12975Y4017D01*
X0525Y4066D02*
X12975Y4066D01*
X0525Y4116D02*
X12975Y4116D01*
X0525Y4165D02*
X12975Y4165D01*
X0525Y4215D02*
X12975Y4215D01*
X0525Y4264D02*
X12975Y4264D01*
X0525Y4314D02*
X12975Y4314D01*
X0525Y4363D02*
X12975Y4363D01*
X0525Y4413D02*
X12975Y4413D01*
X0525Y4462D02*
X12975Y4462D01*
X0525Y4512D02*
X12975Y4512D01*
X0525Y4561D02*
X12975Y4561D01*
X0525Y4611D02*
X12975Y4611D01*
X0525Y4661D02*
X12975Y4661D01*
X0525Y4710D02*
X12975Y4710D01*
X0525Y4760D02*
X12975Y4760D01*
X0525Y4809D02*
X12975Y4809D01*
X0525Y4859D02*
X12975Y4859D01*
X0525Y4908D02*
X12975Y4908D01*
X0525Y4958D02*
X12975Y4958D01*
X0525Y5007D02*
X12975Y5007D01*
X0525Y5057D02*
X12975Y5057D01*
X0525Y5106D02*
X12975Y5106D01*
X0525Y5156D02*
X12975Y5156D01*
X0525Y5205D02*
X12975Y5205D01*
X0525Y5255D02*
X12975Y5255D01*
X0525Y5304D02*
X12975Y5304D01*
X0525Y5354D02*
X12975Y5354D01*
X0525Y5403D02*
X12975Y5403D01*
X0525Y5453D02*
X12975Y5453D01*
X0525Y5503D02*
X12975Y5503D01*
X0525Y5552D02*
X12975Y5552D01*
X0525Y5602D02*
X12975Y5602D01*
X0525Y5651D02*
X12975Y5651D01*
X0525Y5701D02*
X12975Y5701D01*
X0525Y5750D02*
X12975Y5750D01*
X0525Y5800D02*
X12975Y5800D01*
X0525Y5849D02*
X12975Y5849D01*
X0525Y5899D02*
X12975Y5899D01*
X0525Y5948D02*
X12975Y5948D01*
X0525Y5998D02*
X12975Y5998D01*
X0525Y6047D02*
X12975Y6047D01*
X0525Y6097D02*
X12975Y6097D01*
X0525Y6146D02*
X12975Y6146D01*
X0525Y6196D02*
X12975Y6196D01*
X0525Y6245D02*
X12975Y6245D01*
X0525Y6295D02*
X12975Y6295D01*
X0525Y6345D02*
X12975Y6345D01*
X0525Y6394D02*
X12975Y6394D01*
X0525Y6444D02*
X12975Y6444D01*
X0525Y6493D02*
X12975Y6493D01*
X0525Y6543D02*
X12975Y6543D01*
X0525Y6592D02*
X12975Y6592D01*
X0525Y6642D02*
X12975Y6642D01*
X0525Y6691D02*
X12975Y6691D01*
X0525Y6741D02*
X12975Y6741D01*
X0525Y6790D02*
X12975Y6790D01*
X0525Y6840D02*
X12975Y6840D01*
X0525Y6889D02*
X12975Y6889D01*
X0525Y6939D02*
X12975Y6939D01*
X0525Y6988D02*
X12975Y6988D01*
X0525Y7038D02*
X12975Y7038D01*
X0525Y7087D02*
X12975Y7087D01*
X0525Y7137D02*
X12975Y7137D01*
X0525Y7187D02*
X12975Y7187D01*
X0525Y7236D02*
X12975Y7236D01*
X0525Y7286D02*
X12975Y7286D01*
X0525Y7335D02*
X12975Y7335D01*
X0525Y7385D02*
X12975Y7385D01*
X0525Y7434D02*
X12975Y7434D01*
X0525Y7484D02*
X12975Y7484D01*
X0525Y7533D02*
X12975Y7533D01*
X0525Y7583D02*
X12975Y7583D01*
X0525Y7632D02*
X12975Y7632D01*
X0525Y7682D02*
X12975Y7682D01*
X0525Y7731D02*
X12975Y7731D01*
X0525Y7781D02*
X12975Y7781D01*
X0525Y7830D02*
X12975Y7830D01*
X0525Y7880D02*
X12975Y7880D01*
X0525Y7929D02*
X12975Y7929D01*
X0525Y7979D02*
X12975Y7979D01*
X0525Y8029D02*
X12975Y8029D01*
X0525Y8078D02*
X12975Y8078D01*
X0525Y8128D02*
X12975Y8128D01*
X0525Y8177D02*
X12975Y8177D01*
X0525Y8227D02*
X12975Y8227D01*
X0525Y8276D02*
X12975Y8276D01*
X0525Y8326D02*
X12975Y8326D01*
X0525Y8375D02*
X12975Y8375D01*
X0525Y8425D02*
X12975Y8425D01*
X0525Y8474D02*
X12975Y8474D01*
X0525Y8524D02*
X12975Y8524D01*
X0525Y8573D02*
X12975Y8573D01*
X0525Y8623D02*
X12975Y8623D01*
X0525Y8672D02*
X12975Y8672D01*
X0525Y8722D02*
X12975Y8722D01*
X0525Y8772D02*
X12975Y8772D01*
X0525Y8821D02*
X12975Y8821D01*
X0525Y8871D02*
X12975Y8871D01*
X0525Y8920D02*
X12975Y8920D01*
X0525Y8970D02*
X12975Y8970D01*
X0525Y9019D02*
X12975Y9019D01*
X0525Y9069D02*
X12975Y9069D01*
X0525Y9118D02*
X12975Y9118D01*
X0525Y9168D02*
X12975Y9168D01*
X0525Y9217D02*
X12975Y9217D01*
X0525Y9267D02*
X12975Y9267D01*
X0525Y9316D02*
X12975Y9316D01*
X0525Y9366D02*
X12975Y9366D01*
X0525Y9415D02*
X12975Y9415D01*
X0525Y9465D02*
X12975Y9465D01*
X0525Y9514D02*
X12975Y9514D01*
X0525Y9564D02*
X12975Y9564D01*
X0525Y9614D02*
X12975Y9614D01*
X0525Y9663D02*
X12975Y9663D01*
X0525Y9713D02*
X12975Y9713D01*
X0525Y9762D02*
X12975Y9762D01*
X0525Y9812D02*
X12975Y9812D01*
X0525Y9861D02*
X12975Y9861D01*
X0525Y9911D02*
X12975Y9911D01*
X0525Y9960D02*
X12975Y9960D01*
X0525Y10010D02*
X12975Y10010D01*
X0525Y10059D02*
X12975Y10059D01*
X0525Y10109D02*
X12975Y10109D01*
X0525Y10158D02*
X8150Y10158D01*
X9550Y10158D02*
X11259Y10158D01*
X11305Y10158D02*
X11475Y10158D01*
X11521Y10158D02*
X12975Y10158D01*
X0525Y10208D02*
X8068Y10208D01*
X9632Y10208D02*
X11073Y10208D01*
X11314Y10208D02*
X11466Y10208D01*
X11707Y10208D02*
X12975Y10208D01*
X0525Y10257D02*
X8029Y10257D01*
X9671Y10257D02*
X10979Y10257D01*
X11314Y10257D02*
X11466Y10257D01*
X11801Y10257D02*
X12975Y10257D01*
X0525Y10307D02*
X8006Y10307D01*
X9694Y10307D02*
X10893Y10307D01*
X11314Y10307D02*
X11466Y10307D01*
X11887Y10307D02*
X12975Y10307D01*
X0525Y10356D02*
X7997Y10356D01*
X9703Y10356D02*
X10837Y10356D01*
X11314Y10356D02*
X11466Y10356D01*
X11943Y10356D02*
X12975Y10356D01*
X0525Y10406D02*
X7995Y10406D01*
X9705Y10406D02*
X10781Y10406D01*
X11999Y10406D02*
X12975Y10406D01*
X0525Y10456D02*
X7995Y10456D01*
X9705Y10456D02*
X10735Y10456D01*
X12045Y10456D02*
X12975Y10456D01*
X0525Y10505D02*
X7995Y10505D01*
X9705Y10505D02*
X10701Y10505D01*
X12079Y10505D02*
X12975Y10505D01*
X0525Y10555D02*
X7995Y10555D01*
X9705Y10555D02*
X10666Y10555D01*
X12114Y10555D02*
X12975Y10555D01*
X0525Y10604D02*
X7995Y10604D01*
X9705Y10604D02*
X10633Y10604D01*
X12147Y10604D02*
X12975Y10604D01*
X0525Y10654D02*
X7995Y10654D01*
X9705Y10654D02*
X10614Y10654D01*
X12166Y10654D02*
X12975Y10654D01*
X0525Y10703D02*
X7995Y10703D01*
X9705Y10703D02*
X10595Y10703D01*
X12185Y10703D02*
X12975Y10703D01*
X0525Y10753D02*
X7995Y10753D01*
X9705Y10753D02*
X10576Y10753D01*
X12204Y10753D02*
X12975Y10753D01*
X0525Y10802D02*
X7995Y10802D01*
X9705Y10802D02*
X10559Y10802D01*
X12221Y10802D02*
X12975Y10802D01*
X0525Y10852D02*
X7995Y10852D01*
X9705Y10852D02*
X10553Y10852D01*
X12227Y10852D02*
X12975Y10852D01*
X0525Y10901D02*
X7995Y10901D01*
X9705Y10901D02*
X10547Y10901D01*
X12233Y10901D02*
X12975Y10901D01*
X0525Y10951D02*
X7995Y10951D01*
X9705Y10951D02*
X10790Y10951D01*
X11990Y10951D02*
X12975Y10951D01*
X0525Y11000D02*
X7995Y11000D01*
X9705Y11000D02*
X10790Y11000D01*
X11990Y11000D02*
X12975Y11000D01*
X0525Y11050D02*
X7995Y11050D01*
X9705Y11050D02*
X10790Y11050D01*
X11990Y11050D02*
X12975Y11050D01*
X0525Y11099D02*
X7995Y11099D01*
X9705Y11099D02*
X10547Y11099D01*
X12233Y11099D02*
X12975Y11099D01*
X0525Y11149D02*
X7995Y11149D01*
X9705Y11149D02*
X10553Y11149D01*
X12227Y11149D02*
X12975Y11149D01*
X0525Y11198D02*
X7995Y11198D01*
X9705Y11198D02*
X10559Y11198D01*
X12221Y11198D02*
X12975Y11198D01*
X0525Y11248D02*
X7995Y11248D01*
X9705Y11248D02*
X10577Y11248D01*
X12203Y11248D02*
X12975Y11248D01*
X0525Y11298D02*
X7995Y11298D01*
X9705Y11298D02*
X10595Y11298D01*
X12185Y11298D02*
X12975Y11298D01*
X0525Y11347D02*
X7995Y11347D01*
X9705Y11347D02*
X10614Y11347D01*
X12166Y11347D02*
X12975Y11347D01*
X0525Y11397D02*
X7995Y11397D01*
X9705Y11397D02*
X10633Y11397D01*
X12147Y11397D02*
X12975Y11397D01*
X0525Y11446D02*
X7995Y11446D01*
X9705Y11446D02*
X10667Y11446D01*
X12113Y11446D02*
X12975Y11446D01*
X0525Y11496D02*
X7995Y11496D01*
X9705Y11496D02*
X10701Y11496D01*
X12079Y11496D02*
X12975Y11496D01*
X0525Y11545D02*
X7995Y11545D01*
X9705Y11545D02*
X10735Y11545D01*
X12045Y11545D02*
X12975Y11545D01*
X0525Y11595D02*
X7995Y11595D01*
X9705Y11595D02*
X10782Y11595D01*
X11998Y11595D02*
X12975Y11595D01*
X0525Y11644D02*
X7997Y11644D01*
X9703Y11644D02*
X10838Y11644D01*
X11314Y11644D02*
X11466Y11644D01*
X11942Y11644D02*
X12975Y11644D01*
X0525Y11694D02*
X8006Y11694D01*
X9694Y11694D02*
X10893Y11694D01*
X11314Y11694D02*
X11466Y11694D01*
X11887Y11694D02*
X12975Y11694D01*
X0525Y11743D02*
X8029Y11743D01*
X9671Y11743D02*
X10980Y11743D01*
X11314Y11743D02*
X11466Y11743D01*
X11800Y11743D02*
X12975Y11743D01*
X0525Y11793D02*
X8069Y11793D01*
X9631Y11793D02*
X11075Y11793D01*
X11314Y11793D02*
X11466Y11793D01*
X11705Y11793D02*
X12975Y11793D01*
X0525Y11842D02*
X8151Y11842D01*
X9549Y11842D02*
X11262Y11842D01*
X11305Y11842D02*
X11475Y11842D01*
X11518Y11842D02*
X12975Y11842D01*
X0525Y11892D02*
X12975Y11892D01*
X0525Y11941D02*
X12975Y11941D01*
X0525Y11991D02*
X12975Y11991D01*
X0525Y12040D02*
X12975Y12040D01*
X0525Y12090D02*
X12975Y12090D01*
X0525Y12140D02*
X12975Y12140D01*
X0525Y12189D02*
X12975Y12189D01*
X0525Y12239D02*
X12975Y12239D01*
X0525Y12288D02*
X12975Y12288D01*
X0525Y12338D02*
X12975Y12338D01*
X0525Y12387D02*
X12975Y12387D01*
X0525Y12437D02*
X12975Y12437D01*
X0525Y12486D02*
X12975Y12486D01*
X0525Y12536D02*
X12975Y12536D01*
X0525Y12585D02*
X12975Y12585D01*
X0525Y12635D02*
X12975Y12635D01*
X0525Y12684D02*
X12975Y12684D01*
X0525Y12734D02*
X12975Y12734D01*
X0525Y12783D02*
X12975Y12783D01*
X0525Y12833D02*
X12975Y12833D01*
X0525Y12883D02*
X12975Y12883D01*
X0525Y12932D02*
X12975Y12932D01*
X0525Y12982D02*
X12975Y12982D01*
X0525Y13031D02*
X12975Y13031D01*
X0525Y13081D02*
X12975Y13081D01*
X0525Y13130D02*
X12975Y13130D01*
X0525Y13180D02*
X12975Y13180D01*
X0525Y13229D02*
X12975Y13229D01*
X0525Y13279D02*
X12975Y13279D01*
X0525Y13328D02*
X12975Y13328D01*
X0525Y13378D02*
X12975Y13378D01*
X0525Y13427D02*
X12975Y13427D01*
X0525Y13477D02*
X12975Y13477D01*
X0525Y13526D02*
X12975Y13526D01*
X0525Y13576D02*
X12975Y13576D01*
X0525Y13625D02*
X12975Y13625D01*
X0525Y13675D02*
X12975Y13675D01*
X0525Y13725D02*
X12975Y13725D01*
X0525Y13774D02*
X12975Y13774D01*
X0525Y13824D02*
X12975Y13824D01*
X0525Y13873D02*
X12975Y13873D01*
X0525Y13923D02*
X12975Y13923D01*
X0525Y13972D02*
X12975Y13972D01*
X0525Y14022D02*
X12975Y14022D01*
X0525Y14071D02*
X12975Y14071D01*
X0525Y14121D02*
X12975Y14121D01*
X0525Y14170D02*
X12975Y14170D01*
X0525Y14220D02*
X12975Y14220D01*
X0525Y14269D02*
X12975Y14269D01*
X0525Y14319D02*
X12975Y14319D01*
X0525Y14368D02*
X12975Y14368D01*
X0525Y14418D02*
X12975Y14418D01*
X0525Y14467D02*
X12975Y14467D01*
X0525Y14517D02*
X12975Y14517D01*
X0525Y14567D02*
X12975Y14567D01*
X0525Y14616D02*
X12975Y14616D01*
X0525Y14666D02*
X12975Y14666D01*
X0525Y14715D02*
X12975Y14715D01*
X0525Y14765D02*
X12975Y14765D01*
X0525Y14814D02*
X12975Y14814D01*
X0525Y14864D02*
X12975Y14864D01*
X0525Y14913D02*
X12975Y14913D01*
X0525Y14963D02*
X12975Y14963D01*
X0525Y15012D02*
X12975Y15012D01*
X0525Y15062D02*
X12975Y15062D01*
X0525Y15111D02*
X12975Y15111D01*
X0525Y15161D02*
X12975Y15161D01*
X0525Y15210D02*
X12975Y15210D01*
X0525Y15260D02*
X12975Y15260D01*
X0525Y15309D02*
X12975Y15309D01*
X0525Y15359D02*
X12975Y15359D01*
X0525Y15409D02*
X12975Y15409D01*
X0525Y15458D02*
X12975Y15458D01*
X0525Y15508D02*
X12975Y15508D01*
X0525Y15557D02*
X12975Y15557D01*
X0525Y15607D02*
X12975Y15607D01*
X0525Y15656D02*
X12975Y15656D01*
X0525Y15706D02*
X12975Y15706D01*
X0525Y15755D02*
X12975Y15755D01*
X0525Y15805D02*
X12975Y15805D01*
X0525Y15854D02*
X12975Y15854D01*
X0525Y15904D02*
X12975Y15904D01*
X0525Y15953D02*
X12975Y15953D01*
X0525Y16003D02*
X12975Y16003D01*
X0525Y16052D02*
X12975Y16052D01*
X0525Y16102D02*
X12975Y16102D01*
X0525Y16151D02*
X12975Y16151D01*
X0525Y16201D02*
X12975Y16201D01*
X0525Y16251D02*
X12975Y16251D01*
X0525Y16300D02*
X12975Y16300D01*
X0525Y16350D02*
X12975Y16350D01*
X0525Y16399D02*
X12975Y16399D01*
X0525Y16449D02*
X12975Y16449D01*
%LNbottom copper_traces*%
D11*
X1950Y3075D03*
X1950Y13925D03*
X4450Y3075D03*
X4450Y13925D03*
%LNbottom copper component d3efb4300cba9bad*%
D12*
X31600Y8500D03*
X31600Y3500D03*
D13*
X31600Y13500D03*
%LNbottom copper component 4910893c215585d1*%
D14*
X11390Y11000D03*
X16470Y11000D03*
X21550Y11000D03*
D15*
X8850Y11000D03*
%LNbottom copper component 6f5fc672e254e499*%
D14*
X11390Y3000D03*
X16470Y3000D03*
X21550Y3000D03*
D15*
X8850Y3000D03*
M02*