%FSLAX33Y33*%
%MOMM*%
%ADD10C,0.125*%
%ADD11C,0.6*%
%ADD12C,0.15*%
%ADD13C,0.5*%
%ADD14C,0.5*%
D10*
%LNtop silkscreen_traces*%
%LNtop silkscreen component d3efb4300cba9bad*%
G01*
X26850Y16500D02*
X36150Y16500D01*
X36150Y0500*
X26850Y0500*
X26850Y16500*
D11*
X36175Y13600D03*
%LNtop silkscreen component 4910893c215585d1*%
D12*
X6500Y9525D02*
X6500Y15625D01*
X26000Y15625*
X26000Y9525*
X6500Y9525*
X7000Y9525D02*
X7000Y15625D01*
X25500Y15625*
X25500Y9525*
X7000Y9525*
D13*
X8850Y8775D03*
G36*
X5347Y15741D02*
X5442Y15741D01*
X5442Y15327D01*
X5440Y15276D01*
X5435Y15230D01*
X5428Y15190D01*
X5417Y15156D01*
X5403Y15126D01*
X5383Y15098D01*
X5358Y15074D01*
X5329Y15053D01*
X5295Y15035D01*
X5255Y15023D01*
X5211Y15015D01*
X5162Y15013D01*
X5114Y15015D01*
X5070Y15021D01*
X5032Y15032D01*
X4997Y15047D01*
X4968Y15067D01*
X4942Y15090D01*
X4922Y15117D01*
X4906Y15148D01*
X4894Y15184D01*
X4885Y15226D01*
X4880Y15273D01*
X4879Y15327D01*
X4879Y15741D01*
X4973Y15741D01*
X4973Y15328D01*
X4974Y15284D01*
X4978Y15247D01*
X4983Y15215D01*
X4991Y15190D01*
X5001Y15169D01*
X5014Y15151D01*
X5031Y15135D01*
X5050Y15122D01*
X5073Y15112D01*
X5097Y15104D01*
X5124Y15100D01*
X5154Y15098D01*
X5202Y15101D01*
X5243Y15110D01*
X5276Y15125D01*
X5302Y15146D01*
X5322Y15175D01*
X5336Y15215D01*
X5344Y15266D01*
X5347Y15328D01*
X5347Y15741D01*
X5347Y15741D01*
X5895Y15025D02*
X5807Y15025D01*
X5807Y15585D01*
X5790Y15570D01*
X5770Y15555D01*
X5748Y15540D01*
X5724Y15525D01*
X5698Y15510D01*
X5675Y15498D01*
X5652Y15488D01*
X5631Y15479D01*
X5631Y15564D01*
X5667Y15582D01*
X5700Y15602D01*
X5731Y15624D01*
X5760Y15648D01*
X5786Y15673D01*
X5807Y15697D01*
X5825Y15720D01*
X5838Y15744D01*
X5895Y15744D01*
X5895Y15025D01*
X5895Y15025D01*
G37*
%LNtop silkscreen component 5f94c92a6f004a84*%
D12*
X1375Y13025D02*
X5675Y13025D01*
X5675Y3975D02*
X1375Y3975D01*
X5675Y13025D02*
X5675Y3975D01*
D14*
X6075Y9800D03*
G36*
X2729Y13603D02*
X2814Y13615D01*
X2817Y13577D01*
X2824Y13546D01*
X2833Y13521D01*
X2845Y13503D01*
X2860Y13489D01*
X2878Y13480D01*
X2898Y13474D01*
X2921Y13472D01*
X2938Y13473D01*
X2954Y13476D01*
X2969Y13481D01*
X2982Y13489D01*
X2994Y13498D01*
X3004Y13508D01*
X3012Y13520D01*
X3018Y13533D01*
X3022Y13549D01*
X3025Y13569D01*
X3027Y13594D01*
X3028Y13623D01*
X3028Y14116D01*
X3122Y14116D01*
X3122Y13628D01*
X3121Y13586D01*
X3117Y13548D01*
X3110Y13516D01*
X3101Y13489D01*
X3088Y13466D01*
X3073Y13445D01*
X3054Y13428D01*
X3032Y13414D01*
X3007Y13402D01*
X2981Y13394D01*
X2952Y13389D01*
X2921Y13388D01*
X2877Y13391D01*
X2838Y13401D01*
X2805Y13418D01*
X2777Y13442D01*
X2755Y13472D01*
X2740Y13509D01*
X2731Y13553D01*
X2729Y13603D01*
X2729Y13603D01*
X3573Y13400D02*
X3485Y13400D01*
X3485Y13960D01*
X3468Y13945D01*
X3448Y13930D01*
X3426Y13915D01*
X3401Y13900D01*
X3376Y13885D01*
X3353Y13873D01*
X3330Y13863D01*
X3309Y13854D01*
X3309Y13939D01*
X3345Y13957D01*
X3378Y13977D01*
X3409Y13999D01*
X3438Y14023D01*
X3463Y14048D01*
X3485Y14072D01*
X3502Y14095D01*
X3516Y14119D01*
X3573Y14119D01*
X3573Y13400D01*
X3573Y13400D01*
G37*
%LNtop silkscreen component 6f5fc672e254e499*%
D12*
X6500Y1525D02*
X6500Y7625D01*
X26000Y7625*
X26000Y1525*
X6500Y1525*
X7000Y1525D02*
X7000Y7625D01*
X25500Y7625*
X25500Y1525*
X7000Y1525*
D13*
X8850Y0775D03*
G36*
X5347Y1741D02*
X5442Y1741D01*
X5442Y1327D01*
X5440Y1276D01*
X5435Y1230D01*
X5428Y1190D01*
X5417Y1156D01*
X5403Y1126D01*
X5383Y1098D01*
X5358Y1074D01*
X5329Y1053D01*
X5295Y1035D01*
X5255Y1023D01*
X5211Y1015D01*
X5162Y1013D01*
X5114Y1015D01*
X5070Y1021D01*
X5032Y1032D01*
X4997Y1047D01*
X4968Y1067D01*
X4942Y1090D01*
X4922Y1117D01*
X4906Y1148D01*
X4894Y1184D01*
X4885Y1226D01*
X4880Y1273D01*
X4879Y1327D01*
X4879Y1741D01*
X4973Y1741D01*
X4973Y1328D01*
X4974Y1284D01*
X4978Y1247D01*
X4983Y1215D01*
X4991Y1190D01*
X5001Y1169D01*
X5014Y1151D01*
X5031Y1135D01*
X5050Y1122D01*
X5073Y1112D01*
X5097Y1104D01*
X5124Y1100D01*
X5154Y1098D01*
X5202Y1101D01*
X5243Y1110D01*
X5276Y1125D01*
X5302Y1146D01*
X5322Y1175D01*
X5336Y1215D01*
X5344Y1266D01*
X5347Y1328D01*
X5347Y1741D01*
X5347Y1741D01*
X6026Y1109D02*
X6026Y1025D01*
X5552Y1025D01*
X5553Y1041D01*
X5555Y1056D01*
X5558Y1071D01*
X5563Y1086D01*
X5573Y1110D01*
X5586Y1134D01*
X5602Y1158D01*
X5621Y1181D01*
X5643Y1206D01*
X5669Y1232D01*
X5700Y1260D01*
X5736Y1290D01*
X5789Y1335D01*
X5833Y1375D01*
X5868Y1411D01*
X5893Y1441D01*
X5911Y1469D01*
X5924Y1496D01*
X5932Y1522D01*
X5934Y1547D01*
X5932Y1572D01*
X5925Y1595D01*
X5913Y1616D01*
X5897Y1635D01*
X5877Y1651D01*
X5854Y1662D01*
X5828Y1669D01*
X5800Y1671D01*
X5769Y1669D01*
X5742Y1661D01*
X5719Y1650D01*
X5698Y1633D01*
X5681Y1612D01*
X5669Y1587D01*
X5662Y1559D01*
X5659Y1527D01*
X5569Y1537D01*
X5577Y1584D01*
X5591Y1626D01*
X5612Y1661D01*
X5639Y1691D01*
X5672Y1714D01*
X5710Y1731D01*
X5753Y1740D01*
X5801Y1744D01*
X5850Y1740D01*
X5894Y1729D01*
X5932Y1712D01*
X5965Y1687D01*
X5991Y1656D01*
X6010Y1623D01*
X6021Y1586D01*
X6025Y1545D01*
X6024Y1524D01*
X6020Y1502D01*
X6015Y1481D01*
X6007Y1461D01*
X5997Y1440D01*
X5984Y1418D01*
X5968Y1396D01*
X5949Y1373D01*
X5925Y1348D01*
X5894Y1319D01*
X5857Y1285D01*
X5813Y1247D01*
X5777Y1217D01*
X5748Y1191D01*
X5726Y1172D01*
X5712Y1157D01*
X5701Y1145D01*
X5691Y1133D01*
X5682Y1121D01*
X5675Y1109D01*
X6026Y1109D01*
X6026Y1109D01*
G37*
%LNtext*%
G36*
X37058Y3000D02*
X36706Y3909D01*
X36836Y3909D01*
X37072Y3249D01*
X37086Y3210D01*
X37098Y3172D01*
X37110Y3135D01*
X37120Y3100D01*
X37131Y3137D01*
X37143Y3174D01*
X37155Y3211D01*
X37169Y3249D01*
X37414Y3909D01*
X37537Y3909D01*
X37181Y3000D01*
X37058Y3000D01*
X37058Y3000D01*
X37604Y3292D02*
X37718Y3302D01*
X37723Y3269D01*
X37731Y3240D01*
X37742Y3213D01*
X37755Y3190D01*
X37772Y3169D01*
X37793Y3151D01*
X37818Y3134D01*
X37847Y3119D01*
X37879Y3108D01*
X37913Y3099D01*
X37948Y3094D01*
X37986Y3092D01*
X38020Y3094D01*
X38051Y3098D01*
X38080Y3104D01*
X38108Y3113D01*
X38132Y3124D01*
X38154Y3137D01*
X38172Y3152D01*
X38186Y3169D01*
X38197Y3187D01*
X38205Y3206D01*
X38210Y3226D01*
X38212Y3247D01*
X38210Y3268D01*
X38206Y3287D01*
X38198Y3305D01*
X38187Y3322D01*
X38173Y3337D01*
X38154Y3351D01*
X38132Y3364D01*
X38105Y3375D01*
X38081Y3383D01*
X38046Y3393D01*
X38000Y3405D01*
X37943Y3420D01*
X37885Y3434D01*
X37837Y3449D01*
X37798Y3463D01*
X37768Y3476D01*
X37737Y3494D01*
X37711Y3514D01*
X37689Y3537D01*
X37671Y3561D01*
X37657Y3587D01*
X37647Y3614D01*
X37641Y3644D01*
X37639Y3674D01*
X37641Y3708D01*
X37649Y3741D01*
X37661Y3772D01*
X37678Y3803D01*
X37700Y3831D01*
X37726Y3855D01*
X37757Y3876D01*
X37792Y3894D01*
X37831Y3907D01*
X37871Y3917D01*
X37914Y3923D01*
X37959Y3925D01*
X38008Y3923D01*
X38054Y3916D01*
X38097Y3906D01*
X38137Y3892D01*
X38174Y3874D01*
X38205Y3852D01*
X38233Y3826D01*
X38256Y3796D01*
X38274Y3764D01*
X38288Y3729D01*
X38297Y3692D01*
X38301Y3653D01*
X38185Y3644D01*
X38178Y3685D01*
X38165Y3720D01*
X38146Y3750D01*
X38122Y3775D01*
X38092Y3794D01*
X38056Y3808D01*
X38013Y3816D01*
X37964Y3819D01*
X37913Y3816D01*
X37869Y3809D01*
X37833Y3796D01*
X37805Y3779D01*
X37783Y3758D01*
X37767Y3734D01*
X37758Y3709D01*
X37755Y3682D01*
X37757Y3659D01*
X37764Y3637D01*
X37775Y3618D01*
X37790Y3602D01*
X37815Y3586D01*
X37853Y3569D01*
X37905Y3553D01*
X37972Y3537D01*
X38039Y3521D01*
X38095Y3506D01*
X38140Y3492D01*
X38173Y3479D01*
X38210Y3459D01*
X38242Y3437D01*
X38268Y3413D01*
X38290Y3386D01*
X38307Y3357D01*
X38318Y3326D01*
X38325Y3292D01*
X38328Y3257D01*
X38325Y3221D01*
X38317Y3186D01*
X38304Y3153D01*
X38286Y3120D01*
X38263Y3090D01*
X38236Y3063D01*
X38204Y3040D01*
X38167Y3020D01*
X38127Y3005D01*
X38084Y2993D01*
X38039Y2987D01*
X37992Y2984D01*
X37933Y2987D01*
X37878Y2993D01*
X37829Y3005D01*
X37785Y3020D01*
X37745Y3041D01*
X37711Y3066D01*
X37680Y3095D01*
X37654Y3129D01*
X37633Y3166D01*
X37618Y3206D01*
X37608Y3248D01*
X37604Y3292D01*
X37604Y3292D01*
X38451Y3292D02*
X38565Y3302D01*
X38570Y3269D01*
X38578Y3240D01*
X38589Y3213D01*
X38602Y3190D01*
X38619Y3169D01*
X38640Y3151D01*
X38665Y3134D01*
X38694Y3119D01*
X38726Y3108D01*
X38760Y3099D01*
X38795Y3094D01*
X38833Y3092D01*
X38867Y3094D01*
X38898Y3098D01*
X38927Y3104D01*
X38955Y3113D01*
X38979Y3124D01*
X39001Y3137D01*
X39019Y3152D01*
X39033Y3169D01*
X39044Y3187D01*
X39053Y3206D01*
X39057Y3226D01*
X39059Y3247D01*
X39057Y3268D01*
X39053Y3287D01*
X39045Y3305D01*
X39034Y3322D01*
X39020Y3337D01*
X39001Y3351D01*
X38979Y3364D01*
X38952Y3375D01*
X38928Y3383D01*
X38894Y3393D01*
X38848Y3405D01*
X38790Y3420D01*
X38733Y3434D01*
X38684Y3449D01*
X38645Y3463D01*
X38615Y3476D01*
X38584Y3494D01*
X38558Y3514D01*
X38536Y3537D01*
X38518Y3561D01*
X38504Y3587D01*
X38494Y3614D01*
X38488Y3644D01*
X38486Y3674D01*
X38488Y3708D01*
X38496Y3741D01*
X38508Y3772D01*
X38525Y3803D01*
X38547Y3831D01*
X38573Y3855D01*
X38604Y3876D01*
X38639Y3894D01*
X38678Y3907D01*
X38718Y3917D01*
X38761Y3923D01*
X38806Y3925D01*
X38855Y3923D01*
X38901Y3916D01*
X38944Y3906D01*
X38984Y3892D01*
X39021Y3874D01*
X39053Y3852D01*
X39080Y3826D01*
X39103Y3796D01*
X39121Y3764D01*
X39135Y3729D01*
X39144Y3692D01*
X39148Y3653D01*
X39032Y3644D01*
X39025Y3685D01*
X39012Y3720D01*
X38993Y3750D01*
X38969Y3775D01*
X38939Y3794D01*
X38903Y3808D01*
X38860Y3816D01*
X38811Y3819D01*
X38760Y3816D01*
X38717Y3809D01*
X38681Y3796D01*
X38652Y3779D01*
X38630Y3758D01*
X38614Y3734D01*
X38605Y3709D01*
X38602Y3682D01*
X38604Y3659D01*
X38611Y3637D01*
X38622Y3618D01*
X38637Y3602D01*
X38662Y3586D01*
X38700Y3569D01*
X38752Y3553D01*
X38819Y3537D01*
X38886Y3521D01*
X38942Y3506D01*
X38987Y3492D01*
X39020Y3479D01*
X39057Y3459D01*
X39089Y3437D01*
X39116Y3413D01*
X39137Y3386D01*
X39154Y3357D01*
X39165Y3326D01*
X39173Y3292D01*
X39175Y3257D01*
X39172Y3221D01*
X39165Y3186D01*
X39152Y3153D01*
X39133Y3120D01*
X39110Y3090D01*
X39083Y3063D01*
X39051Y3040D01*
X39014Y3020D01*
X38974Y3005D01*
X38931Y2993D01*
X38886Y2987D01*
X38839Y2984D01*
X38780Y2987D01*
X38725Y2993D01*
X38676Y3005D01*
X38632Y3020D01*
X38593Y3041D01*
X38558Y3066D01*
X38527Y3095D01*
X38501Y3129D01*
X38480Y3166D01*
X38465Y3206D01*
X38455Y3248D01*
X38451Y3292D01*
X38451Y3292D01*
X37258Y13000D02*
X36906Y13909D01*
X37036Y13909D01*
X37272Y13249D01*
X37286Y13210D01*
X37298Y13172D01*
X37310Y13135D01*
X37320Y13100D01*
X37331Y13137D01*
X37343Y13174D01*
X37355Y13211D01*
X37369Y13249D01*
X37614Y13909D01*
X37737Y13909D01*
X37381Y13000D01*
X37258Y13000D01*
X37258Y13000D01*
X38494Y13319D02*
X38614Y13288D01*
X38591Y13219D01*
X38561Y13158D01*
X38523Y13106D01*
X38478Y13062D01*
X38426Y13028D01*
X38369Y13004D01*
X38306Y12989D01*
X38238Y12984D01*
X38168Y12988D01*
X38104Y12999D01*
X38048Y13018D01*
X37999Y13044D01*
X37955Y13078D01*
X37917Y13118D01*
X37885Y13164D01*
X37858Y13218D01*
X37837Y13275D01*
X37822Y13335D01*
X37813Y13397D01*
X37810Y13461D01*
X37814Y13530D01*
X37824Y13594D01*
X37841Y13654D01*
X37865Y13709D01*
X37895Y13759D01*
X37930Y13802D01*
X37972Y13839D01*
X38019Y13870D01*
X38070Y13894D01*
X38124Y13911D01*
X38181Y13921D01*
X38239Y13925D01*
X38305Y13920D01*
X38365Y13907D01*
X38420Y13886D01*
X38469Y13855D01*
X38512Y13817D01*
X38548Y13772D01*
X38577Y13719D01*
X38599Y13660D01*
X38480Y13632D01*
X38462Y13678D01*
X38441Y13718D01*
X38417Y13750D01*
X38388Y13776D01*
X38356Y13796D01*
X38320Y13810D01*
X38281Y13819D01*
X38237Y13822D01*
X38187Y13819D01*
X38141Y13809D01*
X38099Y13793D01*
X38062Y13771D01*
X38029Y13744D01*
X38002Y13713D01*
X37980Y13677D01*
X37963Y13637D01*
X37950Y13594D01*
X37942Y13551D01*
X37936Y13507D01*
X37934Y13462D01*
X37936Y13406D01*
X37943Y13353D01*
X37953Y13305D01*
X37968Y13260D01*
X37987Y13219D01*
X38011Y13184D01*
X38040Y13154D01*
X38073Y13130D01*
X38110Y13112D01*
X38148Y13098D01*
X38187Y13090D01*
X38228Y13087D01*
X38276Y13091D01*
X38321Y13102D01*
X38362Y13120D01*
X38399Y13146D01*
X38431Y13178D01*
X38458Y13218D01*
X38478Y13265D01*
X38494Y13319D01*
X38494Y13319D01*
X39411Y13319D02*
X39531Y13288D01*
X39508Y13219D01*
X39478Y13158D01*
X39440Y13106D01*
X39395Y13062D01*
X39343Y13028D01*
X39286Y13004D01*
X39223Y12989D01*
X39155Y12984D01*
X39085Y12988D01*
X39022Y12999D01*
X38965Y13018D01*
X38916Y13044D01*
X38872Y13078D01*
X38835Y13118D01*
X38802Y13164D01*
X38776Y13218D01*
X38755Y13275D01*
X38740Y13335D01*
X38731Y13397D01*
X38728Y13461D01*
X38731Y13530D01*
X38741Y13594D01*
X38758Y13654D01*
X38782Y13709D01*
X38812Y13759D01*
X38848Y13802D01*
X38889Y13839D01*
X38936Y13870D01*
X38988Y13894D01*
X39041Y13911D01*
X39098Y13921D01*
X39157Y13925D01*
X39222Y13920D01*
X39282Y13907D01*
X39337Y13886D01*
X39386Y13855D01*
X39429Y13817D01*
X39465Y13772D01*
X39494Y13719D01*
X39516Y13660D01*
X39397Y13632D01*
X39380Y13678D01*
X39358Y13718D01*
X39334Y13750D01*
X39305Y13776D01*
X39273Y13796D01*
X39238Y13810D01*
X39198Y13819D01*
X39154Y13822D01*
X39104Y13819D01*
X39058Y13809D01*
X39016Y13793D01*
X38979Y13771D01*
X38946Y13744D01*
X38919Y13713D01*
X38897Y13677D01*
X38880Y13637D01*
X38868Y13594D01*
X38859Y13551D01*
X38853Y13507D01*
X38852Y13462D01*
X38854Y13406D01*
X38860Y13353D01*
X38871Y13305D01*
X38885Y13260D01*
X38905Y13219D01*
X38929Y13184D01*
X38957Y13154D01*
X38990Y13130D01*
X39027Y13112D01*
X39065Y13098D01*
X39104Y13090D01*
X39145Y13087D01*
X39193Y13091D01*
X39238Y13102D01*
X39279Y13120D01*
X39316Y13146D01*
X39348Y13178D01*
X39375Y13218D01*
X39396Y13265D01*
X39411Y13319D01*
X39411Y13319D01*
X37447Y8319D02*
X37567Y8288D01*
X37544Y8219D01*
X37514Y8158D01*
X37476Y8106D01*
X37431Y8062D01*
X37379Y8028D01*
X37322Y8004D01*
X37259Y7989D01*
X37191Y7984D01*
X37120Y7988D01*
X37057Y7999D01*
X37001Y8018D01*
X36951Y8044D01*
X36908Y8078D01*
X36870Y8118D01*
X36838Y8164D01*
X36811Y8218D01*
X36790Y8275D01*
X36775Y8335D01*
X36766Y8397D01*
X36763Y8461D01*
X36767Y8530D01*
X36777Y8594D01*
X36794Y8654D01*
X36818Y8709D01*
X36848Y8759D01*
X36883Y8802D01*
X36925Y8839D01*
X36972Y8870D01*
X37023Y8894D01*
X37077Y8911D01*
X37133Y8921D01*
X37192Y8925D01*
X37258Y8920D01*
X37318Y8907D01*
X37373Y8886D01*
X37422Y8855D01*
X37465Y8817D01*
X37501Y8772D01*
X37530Y8719D01*
X37551Y8660D01*
X37433Y8632D01*
X37415Y8678D01*
X37394Y8718D01*
X37369Y8750D01*
X37341Y8776D01*
X37309Y8796D01*
X37273Y8810D01*
X37234Y8819D01*
X37190Y8822D01*
X37140Y8819D01*
X37094Y8809D01*
X37052Y8793D01*
X37015Y8771D01*
X36982Y8744D01*
X36955Y8713D01*
X36933Y8677D01*
X36916Y8637D01*
X36903Y8594D01*
X36894Y8551D01*
X36889Y8507D01*
X36887Y8462D01*
X36889Y8406D01*
X36896Y8353D01*
X36906Y8305D01*
X36921Y8260D01*
X36940Y8219D01*
X36964Y8184D01*
X36993Y8154D01*
X37026Y8130D01*
X37063Y8112D01*
X37100Y8098D01*
X37140Y8090D01*
X37181Y8087D01*
X37229Y8091D01*
X37274Y8102D01*
X37315Y8120D01*
X37352Y8146D01*
X37384Y8178D01*
X37410Y8218D01*
X37431Y8265D01*
X37447Y8319D01*
X37447Y8319D01*
X37659Y8329D02*
X37666Y8415D01*
X37685Y8488D01*
X37717Y8550D01*
X37761Y8600D01*
X37806Y8632D01*
X37855Y8655D01*
X37909Y8669D01*
X37968Y8673D01*
X38033Y8668D01*
X38092Y8651D01*
X38144Y8623D01*
X38190Y8584D01*
X38228Y8536D01*
X38255Y8478D01*
X38271Y8413D01*
X38276Y8339D01*
X38274Y8278D01*
X38267Y8225D01*
X38255Y8178D01*
X38238Y8139D01*
X38217Y8104D01*
X38191Y8074D01*
X38161Y8048D01*
X38127Y8025D01*
X38090Y8008D01*
X38051Y7995D01*
X38010Y7988D01*
X37968Y7985D01*
X37960Y7986D01*
X37968Y8077D01*
X38008Y8081D01*
X38044Y8093D01*
X38077Y8112D01*
X38106Y8140D01*
X38131Y8176D01*
X38148Y8220D01*
X38158Y8272D01*
X38162Y8333D01*
X38158Y8390D01*
X38148Y8440D01*
X38130Y8483D01*
X38106Y8518D01*
X38077Y8546D01*
X38044Y8565D01*
X38008Y8577D01*
X37968Y8581D01*
X37928Y8577D01*
X37892Y8565D01*
X37859Y8546D01*
X37829Y8518D01*
X37805Y8483D01*
X37788Y8440D01*
X37778Y8389D01*
X37774Y8329D01*
X37774Y8329D01*
X37778Y8270D01*
X37788Y8219D01*
X37805Y8175D01*
X37829Y8140D01*
X37859Y8112D01*
X37892Y8093D01*
X37928Y8081D01*
X37968Y8077D01*
X37960Y7986D01*
X37902Y7991D01*
X37843Y8007D01*
X37791Y8035D01*
X37745Y8074D01*
X37707Y8123D01*
X37681Y8182D01*
X37665Y8251D01*
X37659Y8329D01*
X37659Y8329D01*
X38407Y8000D02*
X38407Y8659D01*
X38507Y8659D01*
X38507Y8566D01*
X38524Y8589D01*
X38543Y8610D01*
X38565Y8628D01*
X38590Y8644D01*
X38616Y8657D01*
X38645Y8666D01*
X38675Y8672D01*
X38707Y8673D01*
X38742Y8672D01*
X38773Y8666D01*
X38802Y8656D01*
X38827Y8643D01*
X38848Y8626D01*
X38867Y8607D01*
X38881Y8584D01*
X38893Y8558D01*
X38935Y8609D01*
X38983Y8645D01*
X39036Y8666D01*
X39096Y8673D01*
X39142Y8670D01*
X39183Y8660D01*
X39218Y8643D01*
X39247Y8619D01*
X39270Y8588D01*
X39286Y8550D01*
X39296Y8505D01*
X39300Y8452D01*
X39300Y8000D01*
X39189Y8000D01*
X39189Y8415D01*
X39188Y8446D01*
X39186Y8472D01*
X39182Y8494D01*
X39178Y8511D01*
X39171Y8525D01*
X39162Y8538D01*
X39151Y8549D01*
X39138Y8559D01*
X39123Y8567D01*
X39107Y8572D01*
X39090Y8576D01*
X39071Y8577D01*
X39038Y8574D01*
X39008Y8565D01*
X38980Y8551D01*
X38956Y8531D01*
X38936Y8504D01*
X38922Y8470D01*
X38913Y8430D01*
X38910Y8383D01*
X38910Y8000D01*
X38798Y8000D01*
X38798Y8428D01*
X38797Y8463D01*
X38792Y8493D01*
X38783Y8519D01*
X38771Y8540D01*
X38755Y8556D01*
X38735Y8567D01*
X38711Y8574D01*
X38682Y8577D01*
X38659Y8575D01*
X38637Y8571D01*
X38615Y8563D01*
X38595Y8552D01*
X38576Y8538D01*
X38560Y8521D01*
X38547Y8502D01*
X38537Y8479D01*
X38529Y8453D01*
X38523Y8421D01*
X38520Y8384D01*
X38519Y8342D01*
X38519Y8000D01*
X38407Y8000D01*
X38407Y8000D01*
X39465Y8000D02*
X39465Y8659D01*
X39565Y8659D01*
X39565Y8566D01*
X39582Y8589D01*
X39601Y8610D01*
X39623Y8628D01*
X39647Y8644D01*
X39674Y8657D01*
X39702Y8666D01*
X39733Y8672D01*
X39765Y8673D01*
X39800Y8672D01*
X39831Y8666D01*
X39860Y8656D01*
X39885Y8643D01*
X39906Y8626D01*
X39925Y8607D01*
X39939Y8584D01*
X39951Y8558D01*
X39993Y8609D01*
X40041Y8645D01*
X40094Y8666D01*
X40154Y8673D01*
X40200Y8670D01*
X40241Y8660D01*
X40276Y8643D01*
X40305Y8619D01*
X40328Y8588D01*
X40344Y8550D01*
X40354Y8505D01*
X40357Y8452D01*
X40357Y8000D01*
X40246Y8000D01*
X40246Y8415D01*
X40246Y8446D01*
X40244Y8472D01*
X40240Y8494D01*
X40236Y8511D01*
X40229Y8525D01*
X40220Y8538D01*
X40209Y8549D01*
X40196Y8559D01*
X40181Y8567D01*
X40165Y8572D01*
X40148Y8576D01*
X40129Y8577D01*
X40096Y8574D01*
X40066Y8565D01*
X40038Y8551D01*
X40014Y8531D01*
X39994Y8504D01*
X39980Y8470D01*
X39971Y8430D01*
X39968Y8383D01*
X39968Y8000D01*
X39856Y8000D01*
X39856Y8428D01*
X39855Y8463D01*
X39850Y8493D01*
X39841Y8519D01*
X39829Y8540D01*
X39813Y8556D01*
X39793Y8567D01*
X39769Y8574D01*
X39740Y8577D01*
X39717Y8575D01*
X39695Y8571D01*
X39673Y8563D01*
X39653Y8552D01*
X39634Y8538D01*
X39618Y8521D01*
X39605Y8502D01*
X39595Y8479D01*
X39587Y8453D01*
X39581Y8421D01*
X39578Y8384D01*
X39577Y8342D01*
X39577Y8000D01*
X39465Y8000D01*
X39465Y8000D01*
X40482Y8329D02*
X40488Y8415D01*
X40507Y8488D01*
X40539Y8550D01*
X40583Y8600D01*
X40628Y8632D01*
X40677Y8655D01*
X40732Y8669D01*
X40790Y8673D01*
X40855Y8668D01*
X40914Y8651D01*
X40966Y8623D01*
X41012Y8584D01*
X41050Y8536D01*
X41077Y8478D01*
X41093Y8413D01*
X41099Y8339D01*
X41096Y8278D01*
X41089Y8225D01*
X41077Y8178D01*
X41060Y8139D01*
X41039Y8104D01*
X41014Y8074D01*
X40984Y8048D01*
X40949Y8025D01*
X40912Y8008D01*
X40873Y7995D01*
X40833Y7988D01*
X40790Y7985D01*
X40783Y7986D01*
X40790Y8077D01*
X40830Y8081D01*
X40866Y8093D01*
X40899Y8112D01*
X40929Y8140D01*
X40953Y8176D01*
X40970Y8220D01*
X40980Y8272D01*
X40984Y8333D01*
X40980Y8390D01*
X40970Y8440D01*
X40953Y8483D01*
X40928Y8518D01*
X40899Y8546D01*
X40866Y8565D01*
X40830Y8577D01*
X40790Y8581D01*
X40750Y8577D01*
X40714Y8565D01*
X40681Y8546D01*
X40651Y8518D01*
X40627Y8483D01*
X40610Y8440D01*
X40600Y8389D01*
X40596Y8329D01*
X40596Y8329D01*
X40600Y8270D01*
X40610Y8219D01*
X40627Y8175D01*
X40651Y8140D01*
X40681Y8112D01*
X40714Y8093D01*
X40750Y8081D01*
X40790Y8077D01*
X40783Y7986D01*
X40725Y7991D01*
X40665Y8007D01*
X40613Y8035D01*
X40567Y8074D01*
X40529Y8123D01*
X40503Y8182D01*
X40487Y8251D01*
X40482Y8329D01*
X40482Y8329D01*
X41229Y8000D02*
X41229Y8659D01*
X41330Y8659D01*
X41330Y8565D01*
X41370Y8612D01*
X41419Y8646D01*
X41475Y8667D01*
X41539Y8673D01*
X41569Y8672D01*
X41597Y8668D01*
X41623Y8661D01*
X41649Y8652D01*
X41672Y8641D01*
X41693Y8627D01*
X41710Y8612D01*
X41724Y8596D01*
X41735Y8578D01*
X41745Y8558D01*
X41752Y8537D01*
X41758Y8513D01*
X41761Y8495D01*
X41763Y8471D01*
X41764Y8441D01*
X41765Y8405D01*
X41765Y8000D01*
X41653Y8000D01*
X41653Y8401D01*
X41652Y8433D01*
X41650Y8460D01*
X41646Y8484D01*
X41640Y8503D01*
X41632Y8519D01*
X41622Y8533D01*
X41609Y8546D01*
X41594Y8557D01*
X41576Y8565D01*
X41558Y8572D01*
X41538Y8575D01*
X41516Y8577D01*
X41481Y8574D01*
X41449Y8565D01*
X41420Y8551D01*
X41393Y8531D01*
X41370Y8504D01*
X41354Y8466D01*
X41344Y8418D01*
X41341Y8360D01*
X41341Y8000D01*
X41229Y8000D01*
X41229Y8000D01*
G37*
M02*