<?xml version="1.0" encoding="utf-8" ?>
<svg baseProfile="tiny" height="95.343305086" version="1.2" width="129.703305627" xmlns="http://www.w3.org/2000/svg" xmlns:ev="http://www.w3.org/2001/xml-events" xmlns:xlink="http://www.w3.org/1999/xlink"><defs /><g id="paths" stroke="blue"><path d="M 13.893306747,64.293305515 L 103.893304547,64.293305515 A 8.99999644365 8.99999644365 0 0,0 112.893304327 55.293305735 L 112.893304327,13.893306747 A 9.00000854126 9.00000854126 0 0,0 103.893301004 4.893306967 L 13.893306747,4.893306967 A 8.99999644365 8.99999644365 0 0,0 4.893306967 13.893306747 L 4.893306967,55.293305735 A 8.99999039486 8.99999039486 0 0,0 13.893306747 64.293305515 L 13.893306747,64.293305515 Z" fill-opacity="0" stroke-linejoin="round" stroke-width="1.0" /></g><g fill="red" id="holes"><circle cx="23.7033" cy="27.8433" r="1.9488" stroke-width="0.0" /><circle cx="23.7033" cy="36.8433" r="1.9488" stroke-width="0.0" /><circle cx="23.7033" cy="45.8433" r="1.9488" stroke-width="0.0" /><circle cx="59.7033" cy="34.7173" r="11.3386" stroke-width="0.0" /><circle cx="51.1994" cy="57.3945" r="3.9862" stroke-width="0.0" /><circle cx="37.0261" cy="36.8433" r="3.9862" stroke-width="0.0" /><circle cx="61.8293" cy="12.0402" r="3.9862" stroke-width="0.0" /><circle cx="82.3805" cy="26.2134" r="3.9862" stroke-width="0.0" /><circle cx="76.2683" cy="51.2823" r="3.9862" stroke-width="0.0" /><circle cx="95.7033" cy="27.8433" r="1.9488" stroke-width="0.0" /><circle cx="95.7033" cy="36.8433" r="1.9488" stroke-width="0.0" /><circle cx="95.7033" cy="45.8433" r="1.9488" stroke-width="0.0" /></g><g id="rulers" stroke="black"><line stroke-width="1.0" x1="23.7033" x2="95.7033" y1="81.8433" y2="81.8433" /><text font-family="monospace" font-size="5" stroke-width="0.3" x="59.7033056272" y="86.843305086">20.3200mm</text><text font-family="monospace" font-size="5" stroke-width="0.3" x="59.7033056272" y="92.843305086">(Δx=20.3200mm)</text><line stroke-width="1.0" x1="23.7033" x2="95.7033" y1="68.1633" y2="68.1633" /><text font-family="monospace" font-size="5" stroke-width="0.3" x="59.7033056272" y="73.1633054204">20.3200mm</text><text font-family="monospace" font-size="5" stroke-width="0.3" x="59.7033056272" y="79.1633054204">(Δx=20.3200mm)</text></g></svg>