<?xml version='1.0' encoding='UTF-8' standalone='no'?>
<svg xmlns="http://www.w3.org/2000/svg" width="295" height="195" x="0" y="0"><text x="205" y="170" font-size="10" font-family="sans-serif" text-anchor="middle" alignment-baseline="middle">sleeve</text><text x="80" y="60" font-size="10" font-family="sans-serif" text-anchor="middle" alignment-baseline="middle">tip-shunt</text><text x="125" y="120" font-size="10" font-family="sans-serif" text-anchor="middle" alignment-baseline="middle" transform="rotate(270 125 120)">tip-spring</text><text x="10" y="45" font-size="10" font-family="sans-serif" text-anchor="start" alignment-baseline="hanging">J2</text><text x="240" y="10" font-size="10" font-family="sans-serif" text-anchor="start" alignment-baseline="hanging">J1</text><text x="10" y="135" font-size="10" font-family="sans-serif" text-anchor="start" alignment-baseline="hanging">J3</text><text x="230" y="85" font-size="10" font-family="sans-serif" text-anchor="start" alignment-baseline="hanging">112AX</text><line x1="217" y1="32" x2="223" y2="38" stroke-width="2" stroke="black"></line><line x1="217" y1="38" x2="223" y2="32" stroke-width="2" stroke="black"></line><line x1="250" y1="69" x2="253" y2="74" stroke-width="2" stroke="black"></line><line x1="253" y1="74" x2="256" y2="69" stroke-width="2" stroke="black"></line><line x1="267" y1="75" x2="270" y2="70" stroke-width="2" stroke="black"></line><line x1="270" y1="70" x2="273" y2="75" stroke-width="2" stroke="black"></line><line x1="276" y1="55" x2="284" y2="55" stroke-width="2" stroke="black"></line><line x1="276" y1="55" x2="276" y2="75" stroke-width="2" stroke="black"></line><line x1="284" y1="55" x2="284" y2="75" stroke-width="2" stroke="black"></line><line x1="284" y1="75" x2="276" y2="75" stroke-width="2" stroke="black"></line><line x1="240" y1="65" x2="252" y2="65" stroke-width="2" stroke="black"></line><line x1="240" y1="75" x2="267" y2="75" stroke-width="2" stroke="black"></line><line x1="280" y1="75" x2="280" y2="85" stroke-width="2" stroke="black"></line><line x1="253" y1="72" x2="253" y2="65" stroke-width="2" stroke="black"></line><line x1="253" y1="65" x2="249" y2="65" stroke-width="2" stroke="black"></line><line x1="240" y1="45" x2="250" y2="45" stroke-width="2" stroke="black"></line><text x="252" y="45" font-size="10" font-family="sans-serif" text-anchor="start" alignment-baseline="middle">NC</text><line x1="240" y1="35" x2="250" y2="35" stroke-width="2" stroke="black"></line><text x="252" y="35" font-size="10" font-family="sans-serif" text-anchor="start" alignment-baseline="middle">NC</text><rect width="20" height="40" x="20" y="55" style="stroke: #000; stroke-width: 1; fill: none;"></rect><line x1="50" y1="65" x2="40" y2="65" stroke-width="2" stroke="black"></line><text x="35" y="65" font-size="10" font-family="sans-serif" text-anchor="end" alignment-baseline="middle">1</text><line x1="50" y1="75" x2="40" y2="75" stroke-width="2" stroke="black"></line><text x="35" y="75" font-size="10" font-family="sans-serif" text-anchor="end" alignment-baseline="middle">2</text><line x1="50" y1="85" x2="40" y2="85" stroke-width="2" stroke="black"></line><text x="35" y="85" font-size="10" font-family="sans-serif" text-anchor="end" alignment-baseline="middle">3</text><rect width="20" height="40" x="20" y="145" style="stroke: #000; stroke-width: 1; fill: none;"></rect><line x1="50" y1="155" x2="40" y2="155" stroke-width="2" stroke="black"></line><text x="35" y="155" font-size="10" font-family="sans-serif" text-anchor="end" alignment-baseline="middle">1</text><line x1="50" y1="165" x2="40" y2="165" stroke-width="2" stroke="black"></line><text x="35" y="165" font-size="10" font-family="sans-serif" text-anchor="end" alignment-baseline="middle">2</text><line x1="50" y1="175" x2="40" y2="175" stroke-width="2" stroke="black"></line><text x="35" y="175" font-size="10" font-family="sans-serif" text-anchor="end" alignment-baseline="middle">3</text><line x1="217" y1="42" x2="223" y2="48" stroke-width="2" stroke="black"></line><line x1="217" y1="48" x2="223" y2="42" stroke-width="2" stroke="black"></line><circle cx="130" cy="175" r="2" style="stroke: #000; stroke-width: 1; fill: none;"></circle><circle cx="110" cy="65" r="2" style="stroke: #000; stroke-width: 1; fill: none;"></circle><circle cx="120" cy="75" r="2" style="stroke: #000; stroke-width: 1; fill: none;"></circle><line x1="280" y1="175" x2="130" y2="175" stroke-width="2" stroke="black"></line><line x1="280" y1="175" x2="280" y2="85" stroke-width="2" stroke="black"></line><line x1="230" y1="45" x2="220" y2="45" stroke-width="2" stroke="black"></line><line x1="230" y1="45" x2="240" y2="45" stroke-width="2" stroke="black"></line><line x1="230" y1="35" x2="220" y2="35" stroke-width="2" stroke="black"></line><line x1="230" y1="35" x2="240" y2="35" stroke-width="2" stroke="black"></line><line x1="110" y1="65" x2="50" y2="65" stroke-width="2" stroke="black"></line><line x1="120" y1="75" x2="50" y2="75" stroke-width="2" stroke="black"></line><line x1="120" y1="75" x2="240" y2="75" stroke-width="2" stroke="black"></line><line x1="110" y1="155" x2="110" y2="65" stroke-width="2" stroke="black"></line><line x1="110" y1="155" x2="50" y2="155" stroke-width="2" stroke="black"></line><line x1="50" y1="175" x2="130" y2="175" stroke-width="2" stroke="black"></line><line x1="130" y1="85" x2="130" y2="175" stroke-width="2" stroke="black"></line><line x1="130" y1="85" x2="50" y2="85" stroke-width="2" stroke="black"></line><line x1="240" y1="65" x2="110" y2="65" stroke-width="2" stroke="black"></line><line x1="120" y1="165" x2="120" y2="75" stroke-width="2" stroke="black"></line><line x1="120" y1="165" x2="50" y2="165" stroke-width="2" stroke="black"></line></svg>