<?xml-stylesheet href="https://s3.amazonaws.com/maker.works.boards/css/blackpcb.css" type="text/css"?><svg xmlns="http://www.w3.org/2000/svg" version="1.1" xmlns:xlink="http://www.w3.org/1999/xlink" stroke-width="0" stroke-linecap="round" stroke-linejoin="round" width="2.1in" height="0.8in" id="pcb_bottom" viewBox="7.5 7.5 2100 800"><defs><circle cx="0" cy="0" r="27.5" id="tool-T10-pad-1000"/><circle cx="0" cy="0" r="20" id="tool-T11-pad-1001"/><rect x="-39.35" y="-39.35" width="78.7" height="78.7" id="tool-D11-pad-1003"/><circle cx="0" cy="0" r="39.35" id="tool-D12-pad-1004"/><circle cx="0" cy="0" r="35" id="tool-D13-pad-1005"/><rect x="-39.35" y="-39.35" width="78.7" height="78.7" id="tool-D10-pad-1006"/><circle cx="0" cy="0" r="39.35" id="tool-D11-pad-1007"/><circle cx="0" cy="0" r="35" id="tool-D12-pad-1008"/><g id="pcb_bottom-cu" fill="currentColor" stroke="currentColor"><path stroke-width="2" fill="none" d="M 2084 503.7 L 2084 503.7 M 2084 503.7 L 1990.5 784 M 1990.5 784 L 124.5 784 M 124.5 784 L 31 503.7 M 31 503.7 L 31 31 M 31 31 L 284 31 M 284 31 L 284 507.5 M 284 507.5 L 284 507.5 M 284 507.5 L 284.4 512.1 M 284.4 512.1 L 284.4 512.1 M 284.4 512.1 L 285.7 516.5 M 285.7 516.5 L 285.7 516.5 M 285.7 516.5 L 287.9 520.6 M 287.9 520.6 L 287.9 520.6 M 287.9 520.6 L 290.8 524.2 M 290.8 524.2 L 290.8 524.2 M 290.8 524.2 L 294.4 527.1 M 294.4 527.1 L 294.4 527.1 M 294.4 527.1 L 298.5 529.3 M 298.5 529.3 L 298.5 529.3 M 298.5 529.3 L 302.9 530.6 M 302.9 530.6 L 302.9 530.6 M 302.9 530.6 L 307.5 531 M 307.5 531 L 307.5 531 M 307.5 531 L 1807.5 531 M 1807.5 531 L 1807.5 531 M 1807.5 531 L 1812.1 530.6 M 1812.1 530.6 L 1812.1 530.6 M 1812.1 530.6 L 1816.5 529.3 M 1816.5 529.3 L 1816.5 529.3 M 1816.5 529.3 L 1820.6 527.1 M 1820.6 527.1 L 1820.6 527.1 M 1820.6 527.1 L 1824.2 524.2 M 1824.2 524.2 L 1824.2 524.2 M 1824.2 524.2 L 1827.1 520.6 M 1827.1 520.6 L 1827.1 520.6 M 1827.1 520.6 L 1829.3 516.5 M 1829.3 516.5 L 1829.3 516.5 M 1829.3 516.5 L 1830.6 512.1 M 1830.6 512.1 L 1830.6 512.1 M 1830.6 512.1 L 1831 507.5 M 1831 507.5 L 1831 507.5 M 1831 507.5 L 1831 31 M 1831 31 L 2084 31 M 2084 31 L 2084 503.7 M 1155.9 602.1 L 1143.6 603.5 M 1143.6 603.5 L 1131.9 607.6 M 1131.9 607.6 L 1121.4 614.2 M 1121.4 614.2 L 1112.6 622.9 M 1112.6 622.9 L 1106 633.4 M 1106 633.4 L 1101.9 645.2 M 1101.9 645.2 L 1100.5 657.5 M 1100.5 657.5 L 1101.9 669.8 M 1101.9 669.8 L 1106 681.6 M 1106 681.6 L 1112.6 692 M 1112.6 692 L 1121.4 700.8 M 1121.4 700.8 L 1131.9 707.4 M 1131.9 707.4 L 1143.6 711.5 M 1143.6 711.5 L 1155.9 712.9 M 1155.9 712.9 L 1168.2 711.5 M 1168.2 711.5 L 1180 707.4 M 1180 707.4 L 1190.5 700.8 M 1190.5 700.8 L 1199.2 692 M 1199.2 692 L 1205.8 681.6 M 1205.8 681.6 L 1209.9 669.8 M 1209.9 669.8 L 1211.3 657.5 M 1211.3 657.5 L 1209.9 645.2 M 1209.9 645.2 L 1205.8 633.4 M 1205.8 633.4 L 1199.2 622.9 M 1199.2 622.9 L 1190.5 614.2 M 1190.5 614.2 L 1180 607.6 M 1180 607.6 L 1168.2 603.5 M 1168.2 603.5 L 1155.9 602.1 M 2007.5 56.5 L 1996.2 57.7 M 1996.2 57.7 L 1985.4 61.5 M 1985.4 61.5 L 1975.7 67.6 M 1975.7 67.6 L 1967.6 75.7 M 1967.6 75.7 L 1961.5 85.4 M 1961.5 85.4 L 1959.3 91.8 M 1959.3 91.8 L 1955.7 91.8 M 1955.7 91.8 L 1953.5 85.4 M 1953.5 85.4 L 1947.4 75.7 M 1947.4 75.7 L 1939.3 67.6 M 1939.3 67.6 L 1929.6 61.5 M 1929.6 61.5 L 1918.8 57.7 M 1918.8 57.7 L 1915.4 57.3 M 1915.4 57.3 L 1915.4 76.8 M 1915.4 76.8 L 1899.6 76.8 M 1899.6 76.8 L 1899.6 57.3 M 1899.6 57.3 L 1896.2 57.7 M 1896.2 57.7 L 1885.4 61.5 M 1885.4 61.5 L 1875.7 67.6 M 1875.7 67.6 L 1867.6 75.7 M 1867.6 75.7 L 1861.5 85.4 M 1861.5 85.4 L 1857.7 96.2 M 1857.7 96.2 L 1856.5 107.5 M 1856.5 107.5 L 1857.7 118.8 M 1857.7 118.8 L 1861.5 129.6 M 1861.5 129.6 L 1867.6 139.3 M 1867.6 139.3 L 1875.7 147.4 M 1875.7 147.4 L 1885.4 153.5 M 1885.4 153.5 L 1891.8 155.7 M 1891.8 155.7 L 1891.8 159.3 M 1891.8 159.3 L 1885.4 161.5 M 1885.4 161.5 L 1875.7 167.6 M 1875.7 167.6 L 1867.6 175.7 M 1867.6 175.7 L 1861.5 185.4 M 1861.5 185.4 L 1857.7 196.2 M 1857.7 196.2 L 1856.5 207.5 M 1856.5 207.5 L 1857.7 218.8 M 1857.7 218.8 L 1861.5 229.6 M 1861.5 229.6 L 1867.6 239.3 M 1867.6 239.3 L 1875.7 247.4 M 1875.7 247.4 L 1885.4 253.5 M 1885.4 253.5 L 1896.2 257.3 M 1896.2 257.3 L 1899.6 257.7 M 1899.6 257.7 L 1899.6 238.2 M 1899.6 238.2 L 1915.4 238.2 M 1915.4 238.2 L 1915.4 257.7 M 1915.4 257.7 L 1918.8 257.3 M 1918.8 257.3 L 1929.6 253.5 M 1929.6 253.5 L 1939.3 247.4 M 1939.3 247.4 L 1947.4 239.3 M 1947.4 239.3 L 1953.5 229.6 M 1953.5 229.6 L 1955.7 223.2 M 1955.7 223.2 L 1959.3 223.2 M 1959.3 223.2 L 1961.5 229.6 M 1961.5 229.6 L 1967.6 239.3 M 1967.6 239.3 L 1975.7 247.4 M 1975.7 247.4 L 1985.4 253.5 M 1985.4 253.5 L 1996.2 257.3 M 1996.2 257.3 L 2007.5 258.5 M 2007.5 258.5 L 2018.8 257.3 M 2018.8 257.3 L 2029.6 253.5 M 2029.6 253.5 L 2039.3 247.4 M 2039.3 247.4 L 2047.4 239.3 M 2047.4 239.3 L 2053.5 229.6 M 2053.5 229.6 L 2057.3 218.8 M 2057.3 218.8 L 2058.5 207.5 M 2058.5 207.5 L 2057.3 196.2 M 2057.3 196.2 L 2053.5 185.4 M 2053.5 185.4 L 2047.4 175.7 M 2047.4 175.7 L 2039.3 167.6 M 2039.3 167.6 L 2029.6 161.5 M 2029.6 161.5 L 2023.2 159.3 M 2023.2 159.3 L 2023.2 155.7 M 2023.2 155.7 L 2029.6 153.5 M 2029.6 153.5 L 2039.3 147.4 M 2039.3 147.4 L 2047.4 139.3 M 2047.4 139.3 L 2053.5 129.6 M 2053.5 129.6 L 2057.3 118.8 M 2057.3 118.8 L 2058.5 107.5 M 2058.5 107.5 L 2057.3 96.2 M 2057.3 96.2 L 2053.5 85.4 M 2053.5 85.4 L 2047.4 75.7 M 2047.4 75.7 L 2039.3 67.6 M 2039.3 67.6 L 2029.6 61.5 M 2029.6 61.5 L 2018.8 57.7 M 2018.8 57.7 L 2007.5 56.5 M 207.5 56.5 L 196.2 57.7 M 196.2 57.7 L 185.4 61.5 M 185.4 61.5 L 175.7 67.6 M 175.7 67.6 L 167.6 75.7 M 167.6 75.7 L 161.5 85.4 M 161.5 85.4 L 159.3 91.8 M 159.3 91.8 L 155.7 91.8 M 155.7 91.8 L 153.5 85.4 M 153.5 85.4 L 147.4 75.7 M 147.4 75.7 L 139.3 67.6 M 139.3 67.6 L 129.6 61.5 M 129.6 61.5 L 118.8 57.7 M 118.8 57.7 L 115.4 57.3 M 115.4 57.3 L 115.4 76.8 M 115.4 76.8 L 99.6 76.8 M 99.6 76.8 L 99.6 57.3 M 99.6 57.3 L 96.2 57.7 M 96.2 57.7 L 85.4 61.5 M 85.4 61.5 L 75.7 67.6 M 75.7 67.6 L 67.6 75.7 M 67.6 75.7 L 61.5 85.4 M 61.5 85.4 L 57.7 96.2 M 57.7 96.2 L 56.5 107.5 M 56.5 107.5 L 57.7 118.8 M 57.7 118.8 L 61.5 129.6 M 61.5 129.6 L 67.6 139.3 M 67.6 139.3 L 75.7 147.4 M 75.7 147.4 L 85.4 153.5 M 85.4 153.5 L 91.8 155.7 M 91.8 155.7 L 91.8 159.3 M 91.8 159.3 L 85.4 161.5 M 85.4 161.5 L 75.7 167.6 M 75.7 167.6 L 67.6 175.7 M 67.6 175.7 L 61.5 185.4 M 61.5 185.4 L 57.7 196.2 M 57.7 196.2 L 56.5 207.5 M 56.5 207.5 L 57.7 218.8 M 57.7 218.8 L 61.5 229.6 M 61.5 229.6 L 67.6 239.3 M 67.6 239.3 L 75.7 247.4 M 75.7 247.4 L 85.4 253.5 M 85.4 253.5 L 96.2 257.3 M 96.2 257.3 L 99.6 257.7 M 99.6 257.7 L 99.6 238.2 M 99.6 238.2 L 115.4 238.2 M 115.4 238.2 L 115.4 257.7 M 115.4 257.7 L 118.8 257.3 M 118.8 257.3 L 129.6 253.5 M 129.6 253.5 L 139.3 247.4 M 139.3 247.4 L 147.4 239.3 M 147.4 239.3 L 153.5 229.6 M 153.5 229.6 L 155.7 223.2 M 155.7 223.2 L 159.3 223.2 M 159.3 223.2 L 161.5 229.6 M 161.5 229.6 L 167.6 239.3 M 167.6 239.3 L 175.7 247.4 M 175.7 247.4 L 185.4 253.5 M 185.4 253.5 L 196.2 257.3 M 196.2 257.3 L 207.5 258.5 M 207.5 258.5 L 218.8 257.3 M 218.8 257.3 L 229.6 253.5 M 229.6 253.5 L 239.3 247.4 M 239.3 247.4 L 247.4 239.3 M 247.4 239.3 L 253.5 229.6 M 253.5 229.6 L 257.3 218.8 M 257.3 218.8 L 258.5 207.5 M 258.5 207.5 L 257.3 196.2 M 257.3 196.2 L 253.5 185.4 M 253.5 185.4 L 247.4 175.7 M 247.4 175.7 L 239.3 167.6 M 239.3 167.6 L 229.6 161.5 M 229.6 161.5 L 223.2 159.3 M 223.2 159.3 L 223.2 155.7 M 223.2 155.7 L 229.6 153.5 M 229.6 153.5 L 239.3 147.4 M 239.3 147.4 L 247.4 139.3 M 247.4 139.3 L 253.5 129.6 M 253.5 129.6 L 257.3 118.8 M 257.3 118.8 L 258.5 107.5 M 258.5 107.5 L 257.3 96.2 M 257.3 96.2 L 253.5 85.4 M 253.5 85.4 L 247.4 75.7 M 247.4 75.7 L 239.3 67.6 M 239.3 67.6 L 229.6 61.5 M 229.6 61.5 L 218.8 57.7 M 218.8 57.7 L 207.5 56.5 M 31 33 L 284 33 M 1831 33 L 2084 33 M 31 34.9 L 284 34.9 M 1831 34.9 L 2084 34.9 M 31 36.9 L 284 36.9 M 1831 36.9 L 2084 36.9 M 31 38.8 L 284 38.8 M 1831 38.8 L 2084 38.8 M 31 40.8 L 284 40.8 M 1831 40.8 L 2084 40.8 M 31 42.7 L 284 42.7 M 1831 42.7 L 2084 42.7 M 31 44.7 L 284 44.7 M 1831 44.7 L 2084 44.7 M 31 46.6 L 284 46.6 M 1831 46.6 L 2084 46.6 M 31 48.6 L 284 48.6 M 1831 48.6 L 2084 48.6 M 31 50.5 L 284 50.5 M 1831 50.5 L 2084 50.5 M 31 52.5 L 284 52.5 M 1831 52.5 L 2084 52.5 M 31 54.4 L 284 54.4 M 1831 54.4 L 2084 54.4 M 31 56.4 L 284 56.4 M 1831 56.4 L 2084 56.4 M 31 58.3 L 94.4 58.3 M 99.6 58.3 L 115.4 58.3 M 120.6 58.3 L 194.4 58.3 M 220.6 58.3 L 284 58.3 M 1831 58.3 L 1894.4 58.3 M 1899.6 58.3 L 1915.4 58.3 M 1920.6 58.3 L 1994.4 58.3 M 2020.6 58.3 L 2084 58.3 M 31 60.3 L 88.8 60.3 M 99.6 60.3 L 115.4 60.3 M 126.2 60.3 L 188.8 60.3 M 226.2 60.3 L 284 60.3 M 1831 60.3 L 1888.8 60.3 M 1899.6 60.3 L 1915.4 60.3 M 1926.2 60.3 L 1988.8 60.3 M 2026.2 60.3 L 2084 60.3 M 31 62.2 L 84.2 62.2 M 99.6 62.2 L 115.4 62.2 M 130.8 62.2 L 184.2 62.2 M 230.8 62.2 L 284 62.2 M 1831 62.2 L 1884.2 62.2 M 1899.6 62.2 L 1915.4 62.2 M 1930.8 62.2 L 1984.2 62.2 M 2030.8 62.2 L 2084 62.2 M 31 64.2 L 81.1 64.2 M 99.6 64.2 L 115.4 64.2 M 133.9 64.2 L 181.1 64.2 M 233.9 64.2 L 284 64.2 M 1831 64.2 L 1881.1 64.2 M 1899.6 64.2 L 1915.4 64.2 M 1933.9 64.2 L 1981.1 64.2 M 2033.9 64.2 L 2084 64.2 M 31 66.1 L 78 66.1 M 99.6 66.1 L 115.4 66.1 M 137 66.1 L 178 66.1 M 237 66.1 L 284 66.1 M 1831 66.1 L 1878 66.1 M 1899.6 66.1 L 1915.4 66.1 M 1937 66.1 L 1978 66.1 M 2037 66.1 L 2084 66.1 M 31 68.1 L 75.2 68.1 M 99.6 68.1 L 115.4 68.1 M 139.8 68.1 L 175.2 68.1 M 239.8 68.1 L 284 68.1 M 1831 68.1 L 1875.2 68.1 M 1899.6 68.1 L 1915.4 68.1 M 1939.8 68.1 L 1975.2 68.1 M 2039.8 68.1 L 2084 68.1 M 31 70.1 L 73.2 70.1 M 99.6 70.1 L 115.4 70.1 M 141.8 70.1 L 173.2 70.1 M 241.8 70.1 L 284 70.1 M 1831 70.1 L 1873.2 70.1 M 1899.6 70.1 L 1915.4 70.1 M 1941.8 70.1 L 1973.2 70.1 M 2041.8 70.1 L 2084 70.1 M 31 72 L 71.3 72 M 99.6 72 L 115.4 72 M 143.7 72 L 171.3 72 M 243.7 72 L 284 72 M 1831 72 L 1871.3 72 M 1899.6 72 L 1915.4 72 M 1943.7 72 L 1971.3 72 M 2043.7 72 L 2084 72 M 31 74 L 69.3 74 M 99.6 74 L 115.4 74 M 145.7 74 L 169.3 74 M 245.7 74 L 284 74 M 1831 74 L 1869.3 74 M 1899.6 74 L 1915.4 74 M 1945.7 74 L 1969.3 74 M 2045.7 74 L 2084 74 M 31 75.9 L 67.5 75.9 M 99.6 75.9 L 115.4 75.9 M 147.5 75.9 L 167.5 75.9 M 247.5 75.9 L 284 75.9 M 1831 75.9 L 1867.5 75.9 M 1899.6 75.9 L 1915.4 75.9 M 1947.5 75.9 L 1967.5 75.9 M 2047.5 75.9 L 2084 75.9 M 31 77.9 L 66.2 77.9 M 148.8 77.9 L 166.2 77.9 M 248.8 77.9 L 284 77.9 M 1831 77.9 L 1866.2 77.9 M 1948.8 77.9 L 1966.2 77.9 M 2048.8 77.9 L 2084 77.9 M 31 79.8 L 65 79.8 M 150 79.8 L 165 79.8 M 250 79.8 L 284 79.8 M 1831 79.8 L 1865 79.8 M 1950 79.8 L 1965 79.8 M 2050 79.8 L 2084 79.8 M 31 81.8 L 63.8 81.8 M 151.2 81.8 L 163.8 81.8 M 251.2 81.8 L 284 81.8 M 1831 81.8 L 1863.8 81.8 M 1951.2 81.8 L 1963.8 81.8 M 2051.2 81.8 L 2084 81.8 M 31 83.7 L 62.5 83.7 M 152.5 83.7 L 162.5 83.7 M 252.5 83.7 L 284 83.7 M 1831 83.7 L 1862.5 83.7 M 1952.5 83.7 L 1962.5 83.7 M 2052.5 83.7 L 2084 83.7 M 31 85.6 L 61.4 85.6 M 153.6 85.6 L 161.4 85.6 M 253.6 85.6 L 284 85.6 M 1831 85.6 L 1861.4 85.6 M 1953.6 85.6 L 1961.4 85.6 M 2053.6 85.6 L 2084 85.6 M 31 87.6 L 60.7 87.6 M 154.3 87.6 L 160.7 87.6 M 254.3 87.6 L 284 87.6 M 1831 87.6 L 1860.7 87.6 M 1954.3 87.6 L 1960.7 87.6 M 2054.3 87.6 L 2084 87.6 M 31 89.5 L 60.1 89.5 M 154.9 89.5 L 160.1 89.5 M 254.9 89.5 L 284 89.5 M 1831 89.5 L 1860.1 89.5 M 1954.9 89.5 L 1960.1 89.5 M 2054.9 89.5 L 2084 89.5 M 31 91.5 L 59.4 91.5 M 155.6 91.5 L 159.4 91.5 M 255.6 91.5 L 284 91.5 M 1831 91.5 L 1859.4 91.5 M 1955.6 91.5 L 1959.4 91.5 M 2055.6 91.5 L 2084 91.5 M 31 93.4 L 58.7 93.4 M 256.3 93.4 L 284 93.4 M 1831 93.4 L 1858.7 93.4 M 2056.3 93.4 L 2084 93.4 M 31 95.4 L 58 95.4 M 257 95.4 L 284 95.4 M 1831 95.4 L 1858 95.4 M 2057 95.4 L 2084 95.4 M 31 97.3 L 57.6 97.3 M 257.4 97.3 L 284 97.3 M 1831 97.3 L 1857.6 97.3 M 2057.4 97.3 L 2084 97.3 M 31 99.3 L 57.4 99.3 M 257.6 99.3 L 284 99.3 M 1831 99.3 L 1857.4 99.3 M 2057.6 99.3 L 2084 99.3 M 31 101.2 L 57.1 101.2 M 257.9 101.2 L 284 101.2 M 1831 101.2 L 1857.1 101.2 M 2057.9 101.2 L 2084 101.2 M 31 103.2 L 56.9 103.2 M 258.1 103.2 L 284 103.2 M 1831 103.2 L 1856.9 103.2 M 2058.1 103.2 L 2084 103.2 M 31 105.1 L 56.7 105.1 M 258.3 105.1 L 284 105.1 M 1831 105.1 L 1856.7 105.1 M 2058.3 105.1 L 2084 105.1 M 31 107.1 L 56.5 107.1 M 258.5 107.1 L 284 107.1 M 1831 107.1 L 1856.5 107.1 M 2058.5 107.1 L 2084 107.1 M 31 109 L 56.6 109 M 258.4 109 L 284 109 M 1831 109 L 1856.6 109 M 2058.4 109 L 2084 109 M 31 111 L 56.8 111 M 258.2 111 L 284 111 M 1831 111 L 1856.8 111 M 2058.2 111 L 2084 111 M 31 112.9 L 57.1 112.9 M 257.9 112.9 L 284 112.9 M 1831 112.9 L 1857.1 112.9 M 2057.9 112.9 L 2084 112.9 M 31 114.9 L 57.3 114.9 M 257.7 114.9 L 284 114.9 M 1831 114.9 L 1857.3 114.9 M 2057.7 114.9 L 2084 114.9 M 31 116.8 L 57.5 116.8 M 257.5 116.8 L 284 116.8 M 1831 116.8 L 1857.5 116.8 M 2057.5 116.8 L 2084 116.8 M 31 118.8 L 57.7 118.8 M 257.3 118.8 L 284 118.8 M 1831 118.8 L 1857.7 118.8 M 2057.3 118.8 L 2084 118.8 M 31 120.7 L 58.4 120.7 M 256.6 120.7 L 284 120.7 M 1831 120.7 L 1858.4 120.7 M 2056.6 120.7 L 2084 120.7 M 31 122.7 L 59.1 122.7 M 255.9 122.7 L 284 122.7 M 1831 122.7 L 1859.1 122.7 M 2055.9 122.7 L 2084 122.7 M 31 124.6 L 59.7 124.6 M 255.3 124.6 L 284 124.6 M 1831 124.6 L 1859.7 124.6 M 2055.3 124.6 L 2084 124.6 M 31 126.6 L 60.5 126.6 M 254.5 126.6 L 284 126.6 M 1831 126.6 L 1860.5 126.6 M 2054.5 126.6 L 2084 126.6 M 31 128.5 L 61.1 128.5 M 253.9 128.5 L 284 128.5 M 1831 128.5 L 1861.1 128.5 M 2053.9 128.5 L 2084 128.5 M 31 130.5 L 62 130.5 M 253 130.5 L 284 130.5 M 1831 130.5 L 1862 130.5 M 2053 130.5 L 2084 130.5 M 31 132.4 L 63.2 132.4 M 251.8 132.4 L 284 132.4 M 1831 132.4 L 1863.2 132.4 M 2051.8 132.4 L 2084 132.4 M 31 134.4 L 64.5 134.4 M 250.5 134.4 L 284 134.4 M 1831 134.4 L 1864.5 134.4 M 2050.5 134.4 L 2084 134.4 M 31 136.4 L 65.7 136.4 M 249.3 136.4 L 284 136.4 M 1831 136.4 L 1865.7 136.4 M 2049.3 136.4 L 2084 136.4 M 31 138.3 L 66.9 138.3 M 248.1 138.3 L 284 138.3 M 1831 138.3 L 1866.9 138.3 M 2048.1 138.3 L 2084 138.3 M 31 140.3 L 68.5 140.3 M 246.5 140.3 L 284 140.3 M 1831 140.3 L 1868.5 140.3 M 2046.5 140.3 L 2084 140.3 M 31 142.2 L 70.5 142.2 M 244.5 142.2 L 284 142.2 M 1831 142.2 L 1870.5 142.2 M 2044.5 142.2 L 2084 142.2 M 31 144.2 L 72.4 144.2 M 242.6 144.2 L 284 144.2 M 1831 144.2 L 1872.4 144.2 M 2042.6 144.2 L 2084 144.2 M 31 146.1 L 74.4 146.1 M 240.6 146.1 L 284 146.1 M 1831 146.1 L 1874.4 146.1 M 2040.6 146.1 L 2084 146.1 M 31 148.1 L 76.7 148.1 M 238.3 148.1 L 284 148.1 M 1831 148.1 L 1876.7 148.1 M 2038.3 148.1 L 2084 148.1 M 31 150 L 79.8 150 M 235.2 150 L 284 150 M 1831 150 L 1879.8 150 M 2035.2 150 L 2084 150 M 31 151.9 L 82.9 151.9 M 232.1 151.9 L 284 151.9 M 1831 151.9 L 1882.9 151.9 M 2032.1 151.9 L 2084 151.9 M 31 153.9 L 86.5 153.9 M 228.5 153.9 L 284 153.9 M 1831 153.9 L 1886.5 153.9 M 2028.5 153.9 L 2084 153.9 M 31 155.8 L 91.8 155.8 M 223.2 155.8 L 284 155.8 M 1831 155.8 L 1891.8 155.8 M 2023.2 155.8 L 2084 155.8 M 31 157.8 L 91.8 157.8 M 223.2 157.8 L 284 157.8 M 1831 157.8 L 1891.8 157.8 M 2023.2 157.8 L 2084 157.8 M 31 159.7 L 90.4 159.7 M 224.6 159.7 L 284 159.7 M 1831 159.7 L 1890.4 159.7 M 2024.6 159.7 L 2084 159.7 M 31 161.7 L 85.1 161.7 M 229.9 161.7 L 284 161.7 M 1831 161.7 L 1885.1 161.7 M 2029.9 161.7 L 2084 161.7 M 31 163.6 L 81.9 163.6 M 233.1 163.6 L 284 163.6 M 1831 163.6 L 1881.9 163.6 M 2033.1 163.6 L 2084 163.6 M 31 165.6 L 78.8 165.6 M 236.2 165.6 L 284 165.6 M 1831 165.6 L 1878.8 165.6 M 2036.2 165.6 L 2084 165.6 M 31 167.5 L 75.8 167.5 M 239.2 167.5 L 284 167.5 M 1831 167.5 L 1875.8 167.5 M 2039.2 167.5 L 2084 167.5 M 31 169.5 L 73.8 169.5 M 241.2 169.5 L 284 169.5 M 1831 169.5 L 1873.8 169.5 M 2041.2 169.5 L 2084 169.5 M 31 171.4 L 71.8 171.4 M 243.2 171.4 L 284 171.4 M 1831 171.4 L 1871.8 171.4 M 2043.2 171.4 L 2084 171.4 M 31 173.4 L 69.9 173.4 M 245.1 173.4 L 284 173.4 M 1831 173.4 L 1869.9 173.4 M 2045.1 173.4 L 2084 173.4 M 31 175.3 L 67.9 175.3 M 247.1 175.3 L 284 175.3 M 1831 175.3 L 1867.9 175.3 M 2047.1 175.3 L 2084 175.3 M 31 177.3 L 66.6 177.3 M 248.4 177.3 L 284 177.3 M 1831 177.3 L 1866.6 177.3 M 2048.4 177.3 L 2084 177.3 M 31 179.2 L 65.3 179.2 M 249.7 179.2 L 284 179.2 M 1831 179.2 L 1865.3 179.2 M 2049.7 179.2 L 2084 179.2 M 31 181.2 L 64.1 181.2 M 250.9 181.2 L 284 181.2 M 1831 181.2 L 1864.1 181.2 M 2050.9 181.2 L 2084 181.2 M 31 183.1 L 62.9 183.1 M 252.1 183.1 L 284 183.1 M 1831 183.1 L 1862.9 183.1 M 2052.1 183.1 L 2084 183.1 M 31 185.1 L 61.7 185.1 M 253.3 185.1 L 284 185.1 M 1831 185.1 L 1861.7 185.1 M 2053.3 185.1 L 2084 185.1 M 31 187 L 60.9 187 M 254.1 187 L 284 187 M 1831 187 L 1860.9 187 M 2054.1 187 L 2084 187 M 31 189 L 60.2 189 M 254.8 189 L 284 189 M 1831 189 L 1860.2 189 M 2054.8 189 L 2084 189 M 31 190.9 L 59.5 190.9 M 255.5 190.9 L 284 190.9 M 1831 190.9 L 1859.5 190.9 M 2055.5 190.9 L 2084 190.9 M 31 192.9 L 58.9 192.9 M 256.1 192.9 L 284 192.9 M 1831 192.9 L 1858.9 192.9 M 2056.1 192.9 L 2084 192.9 M 31 194.8 L 58.2 194.8 M 256.8 194.8 L 284 194.8 M 1831 194.8 L 1858.2 194.8 M 2056.8 194.8 L 2084 194.8 M 31 196.8 L 57.7 196.8 M 257.3 196.8 L 284 196.8 M 1831 196.8 L 1857.7 196.8 M 2057.3 196.8 L 2084 196.8 M 31 198.7 L 57.4 198.7 M 257.6 198.7 L 284 198.7 M 1831 198.7 L 1857.4 198.7 M 2057.6 198.7 L 2084 198.7 M 31 200.7 L 57.2 200.7 M 257.8 200.7 L 284 200.7 M 1831 200.7 L 1857.2 200.7 M 2057.8 200.7 L 2084 200.7 M 31 202.7 L 57 202.7 M 258 202.7 L 284 202.7 M 1831 202.7 L 1857 202.7 M 2058 202.7 L 2084 202.7 M 31 204.6 L 56.8 204.6 M 258.2 204.6 L 284 204.6 M 1831 204.6 L 1856.8 204.6 M 2058.2 204.6 L 2084 204.6 M 31 206.6 L 56.6 206.6 M 258.4 206.6 L 284 206.6 M 1831 206.6 L 1856.6 206.6 M 2058.4 206.6 L 2084 206.6 M 31 208.5 L 56.6 208.5 M 258.4 208.5 L 284 208.5 M 1831 208.5 L 1856.6 208.5 M 2058.4 208.5 L 2084 208.5 M 31 210.5 L 56.8 210.5 M 258.2 210.5 L 284 210.5 M 1831 210.5 L 1856.8 210.5 M 2058.2 210.5 L 2084 210.5 M 31 212.4 L 57 212.4 M 258 212.4 L 284 212.4 M 1831 212.4 L 1857 212.4 M 2058 212.4 L 2084 212.4 M 31 214.4 L 57.2 214.4 M 257.8 214.4 L 284 214.4 M 1831 214.4 L 1857.2 214.4 M 2057.8 214.4 L 2084 214.4 M 31 216.3 L 57.4 216.3 M 257.6 216.3 L 284 216.3 M 1831 216.3 L 1857.4 216.3 M 2057.6 216.3 L 2084 216.3 M 31 218.2 L 57.7 218.2 M 257.3 218.2 L 284 218.2 M 1831 218.2 L 1857.7 218.2 M 2057.3 218.2 L 2084 218.2 M 31 220.2 L 58.2 220.2 M 256.8 220.2 L 284 220.2 M 1831 220.2 L 1858.2 220.2 M 2056.8 220.2 L 2084 220.2 M 31 222.1 L 58.9 222.1 M 256.1 222.1 L 284 222.1 M 1831 222.1 L 1858.9 222.1 M 2056.1 222.1 L 2084 222.1 M 31 224.1 L 59.5 224.1 M 155.5 224.1 L 159.5 224.1 M 255.5 224.1 L 284 224.1 M 1831 224.1 L 1859.5 224.1 M 1955.5 224.1 L 1959.5 224.1 M 2055.5 224.1 L 2084 224.1 M 31 226 L 60.3 226 M 154.7 226 L 160.3 226 M 254.7 226 L 284 226 M 1831 226 L 1860.3 226 M 1954.7 226 L 1960.3 226 M 2054.7 226 L 2084 226 M 31 228 L 60.9 228 M 154.1 228 L 160.9 228 M 254.1 228 L 284 228 M 1831 228 L 1860.9 228 M 1954.1 228 L 1960.9 228 M 2054.1 228 L 2084 228 M 31 229.9 L 61.7 229.9 M 153.3 229.9 L 161.7 229.9 M 253.3 229.9 L 284 229.9 M 1831 229.9 L 1861.7 229.9 M 1953.3 229.9 L 1961.7 229.9 M 2053.3 229.9 L 2084 229.9 M 31 231.9 L 62.9 231.9 M 152.1 231.9 L 162.9 231.9 M 252.1 231.9 L 284 231.9 M 1831 231.9 L 1862.9 231.9 M 1952.1 231.9 L 1962.9 231.9 M 2052.1 231.9 L 2084 231.9 M 31 233.8 L 64.2 233.8 M 150.8 233.8 L 164.2 233.8 M 250.8 233.8 L 284 233.8 M 1831 233.8 L 1864.2 233.8 M 1950.8 233.8 L 1964.2 233.8 M 2050.8 233.8 L 2084 233.8 M 31 235.8 L 65.4 235.8 M 149.6 235.8 L 165.4 235.8 M 249.6 235.8 L 284 235.8 M 1831 235.8 L 1865.4 235.8 M 1949.6 235.8 L 1965.4 235.8 M 2049.6 235.8 L 2084 235.8 M 31 237.7 L 66.6 237.7 M 148.4 237.7 L 166.6 237.7 M 248.4 237.7 L 284 237.7 M 1831 237.7 L 1866.6 237.7 M 1948.4 237.7 L 1966.6 237.7 M 2048.4 237.7 L 2084 237.7 M 31 239.7 L 67.9 239.7 M 99.6 239.7 L 115.4 239.7 M 147.1 239.7 L 167.9 239.7 M 247.1 239.7 L 284 239.7 M 1831 239.7 L 1867.9 239.7 M 1899.6 239.7 L 1915.4 239.7 M 1947.1 239.7 L 1967.9 239.7 M 2047.1 239.7 L 2084 239.7 M 31 241.6 L 69.9 241.6 M 99.6 241.6 L 115.4 241.6 M 145.1 241.6 L 169.9 241.6 M 245.1 241.6 L 284 241.6 M 1831 241.6 L 1869.9 241.6 M 1899.6 241.6 L 1915.4 241.6 M 1945.1 241.6 L 1969.9 241.6 M 2045.1 241.6 L 2084 241.6 M 31 243.6 L 71.8 243.6 M 99.6 243.6 L 115.4 243.6 M 143.2 243.6 L 171.8 243.6 M 243.2 243.6 L 284 243.6 M 1831 243.6 L 1871.8 243.6 M 1899.6 243.6 L 1915.4 243.6 M 1943.2 243.6 L 1971.8 243.6 M 2043.2 243.6 L 2084 243.6 M 31 245.5 L 73.8 245.5 M 99.6 245.5 L 115.4 245.5 M 141.2 245.5 L 173.8 245.5 M 241.2 245.5 L 284 245.5 M 1831 245.5 L 1873.8 245.5 M 1899.6 245.5 L 1915.4 245.5 M 1941.2 245.5 L 1973.8 245.5 M 2041.2 245.5 L 2084 245.5 M 31 247.5 L 75.8 247.5 M 99.6 247.5 L 115.4 247.5 M 139.2 247.5 L 175.8 247.5 M 239.2 247.5 L 284 247.5 M 1831 247.5 L 1875.8 247.5 M 1899.6 247.5 L 1915.4 247.5 M 1939.2 247.5 L 1975.8 247.5 M 2039.2 247.5 L 2084 247.5 M 31 249.4 L 78.9 249.4 M 99.6 249.4 L 115.4 249.4 M 136.1 249.4 L 178.9 249.4 M 236.1 249.4 L 284 249.4 M 1831 249.4 L 1878.9 249.4 M 1899.6 249.4 L 1915.4 249.4 M 1936.1 249.4 L 1978.9 249.4 M 2036.1 249.4 L 2084 249.4 M 31 251.4 L 82 251.4 M 99.6 251.4 L 115.4 251.4 M 133 251.4 L 182 251.4 M 233 251.4 L 284 251.4 M 1831 251.4 L 1882 251.4 M 1899.6 251.4 L 1915.4 251.4 M 1933 251.4 L 1982 251.4 M 2033 251.4 L 2084 251.4 M 31 253.3 L 85.1 253.3 M 99.6 253.3 L 115.4 253.3 M 129.9 253.3 L 185.1 253.3 M 229.9 253.3 L 284 253.3 M 1831 253.3 L 1885.1 253.3 M 1899.6 253.3 L 1915.4 253.3 M 1929.9 253.3 L 1985.1 253.3 M 2029.9 253.3 L 2084 253.3 M 31 255.3 L 90.5 255.3 M 99.6 255.3 L 115.4 255.3 M 124.5 255.3 L 190.5 255.3 M 224.5 255.3 L 284 255.3 M 1831 255.3 L 1890.5 255.3 M 1899.6 255.3 L 1915.4 255.3 M 1924.5 255.3 L 1990.5 255.3 M 2024.5 255.3 L 2084 255.3 M 31 257.2 L 96 257.2 M 99.6 257.2 L 115.4 257.2 M 119 257.2 L 196 257.2 M 219 257.2 L 284 257.2 M 1831 257.2 L 1896 257.2 M 1899.6 257.2 L 1915.4 257.2 M 1919 257.2 L 1996 257.2 M 2019 257.2 L 2084 257.2 M 31 259.2 L 284 259.2 M 1831 259.2 L 2084 259.2 M 31 261.1 L 284 261.1 M 1831 261.1 L 2084 261.1 M 31 263.1 L 284 263.1 M 1831 263.1 L 2084 263.1 M 31 265.1 L 284 265.1 M 1831 265.1 L 2084 265.1 M 31 267 L 284 267 M 1831 267 L 2084 267 M 31 269 L 284 269 M 1831 269 L 2084 269 M 31 270.9 L 284 270.9 M 1831 270.9 L 2084 270.9 M 31 272.9 L 284 272.9 M 1831 272.9 L 2084 272.9 M 31 274.8 L 284 274.8 M 1831 274.8 L 2084 274.8 M 31 276.8 L 284 276.8 M 1831 276.8 L 2084 276.8 M 31 278.7 L 284 278.7 M 1831 278.7 L 2084 278.7 M 31 280.6 L 284 280.6 M 1831 280.6 L 2084 280.6 M 31 282.6 L 284 282.6 M 1831 282.6 L 2084 282.6 M 31 284.5 L 284 284.5 M 1831 284.5 L 2084 284.5 M 31 286.5 L 284 286.5 M 1831 286.5 L 2084 286.5 M 31 288.4 L 284 288.4 M 1831 288.4 L 2084 288.4 M 31 290.4 L 284 290.4 M 1831 290.4 L 2084 290.4 M 31 292.3 L 284 292.3 M 1831 292.3 L 2084 292.3 M 31 294.3 L 284 294.3 M 1831 294.3 L 2084 294.3 M 31 296.2 L 284 296.2 M 1831 296.2 L 2084 296.2 M 31 298.2 L 284 298.2 M 1831 298.2 L 2084 298.2 M 31 300.1 L 284 300.1 M 1831 300.1 L 2084 300.1 M 31 302.1 L 284 302.1 M 1831 302.1 L 2084 302.1 M 31 304 L 284 304 M 1831 304 L 2084 304 M 31 306 L 284 306 M 1831 306 L 2084 306 M 31 307.9 L 284 307.9 M 1831 307.9 L 2084 307.9 M 31 309.9 L 284 309.9 M 1831 309.9 L 2084 309.9 M 31 311.8 L 284 311.8 M 1831 311.8 L 2084 311.8 M 31 313.8 L 284 313.8 M 1831 313.8 L 2084 313.8 M 31 315.7 L 284 315.7 M 1831 315.7 L 2084 315.7 M 31 317.7 L 284 317.7 M 1831 317.7 L 2084 317.7 M 31 319.6 L 284 319.6 M 1831 319.6 L 2084 319.6 M 31 321.6 L 284 321.6 M 1831 321.6 L 2084 321.6 M 31 323.5 L 284 323.5 M 1831 323.5 L 2084 323.5 M 31 325.5 L 284 325.5 M 1831 325.5 L 2084 325.5 M 31 327.4 L 284 327.4 M 1831 327.4 L 2084 327.4 M 31 329.4 L 284 329.4 M 1831 329.4 L 2084 329.4 M 31 331.4 L 284 331.4 M 1831 331.4 L 2084 331.4 M 31 333.3 L 284 333.3 M 1831 333.3 L 2084 333.3 M 31 335.3 L 284 335.3 M 1831 335.3 L 2084 335.3 M 31 337.2 L 284 337.2 M 1831 337.2 L 2084 337.2 M 31 339.2 L 284 339.2 M 1831 339.2 L 2084 339.2 M 31 341.1 L 284 341.1 M 1831 341.1 L 2084 341.1 M 31 343.1 L 284 343.1 M 1831 343.1 L 2084 343.1 M 31 345 L 284 345 M 1831 345 L 2084 345 M 31 346.9 L 284 346.9 M 1831 346.9 L 2084 346.9 M 31 348.9 L 284 348.9 M 1831 348.9 L 2084 348.9 M 31 350.8 L 284 350.8 M 1831 350.8 L 2084 350.8 M 31 352.8 L 284 352.8 M 1831 352.8 L 2084 352.8 M 31 354.7 L 284 354.7 M 1831 354.7 L 2084 354.7 M 31 356.7 L 284 356.7 M 1831 356.7 L 2084 356.7 M 31 358.6 L 284 358.6 M 1831 358.6 L 2084 358.6 M 31 360.6 L 284 360.6 M 1831 360.6 L 2084 360.6 M 31 362.5 L 284 362.5 M 1831 362.5 L 2084 362.5 M 31 364.5 L 284 364.5 M 1831 364.5 L 2084 364.5 M 31 366.4 L 284 366.4 M 1831 366.4 L 2084 366.4 M 31 368.4 L 284 368.4 M 1831 368.4 L 2084 368.4 M 31 370.3 L 284 370.3 M 1831 370.3 L 2084 370.3 M 31 372.3 L 284 372.3 M 1831 372.3 L 2084 372.3 M 31 374.2 L 284 374.2 M 1831 374.2 L 2084 374.2 M 31 376.2 L 284 376.2 M 1831 376.2 L 2084 376.2 M 31 378.1 L 284 378.1 M 1831 378.1 L 2084 378.1 M 31 380.1 L 284 380.1 M 1831 380.1 L 2084 380.1 M 31 382 L 284 382 M 1831 382 L 2084 382 M 31 384 L 284 384 M 1831 384 L 2084 384 M 31 385.9 L 284 385.9 M 1831 385.9 L 2084 385.9 M 31 387.9 L 284 387.9 M 1831 387.9 L 2084 387.9 M 31 389.8 L 284 389.8 M 1831 389.8 L 2084 389.8 M 31 391.8 L 284 391.8 M 1831 391.8 L 2084 391.8 M 31 393.7 L 284 393.7 M 1831 393.7 L 2084 393.7 M 31 395.7 L 284 395.7 M 1831 395.7 L 2084 395.7 M 31 397.7 L 284 397.7 M 1831 397.7 L 2084 397.7 M 31 399.6 L 284 399.6 M 1831 399.6 L 2084 399.6 M 31 401.6 L 284 401.6 M 1831 401.6 L 2084 401.6 M 31 403.5 L 284 403.5 M 1831 403.5 L 2084 403.5 M 31 405.5 L 284 405.5 M 1831 405.5 L 2084 405.5 M 31 407.4 L 284 407.4 M 1831 407.4 L 2084 407.4 M 31 409.4 L 284 409.4 M 1831 409.4 L 2084 409.4 M 31 411.3 L 284 411.3 M 1831 411.3 L 2084 411.3 M 31 413.2 L 284 413.2 M 1831 413.2 L 2084 413.2 M 31 415.2 L 284 415.2 M 1831 415.2 L 2084 415.2 M 31 417.1 L 284 417.1 M 1831 417.1 L 2084 417.1 M 31 419.1 L 284 419.1 M 1831 419.1 L 2084 419.1 M 31 421 L 284 421 M 1831 421 L 2084 421 M 31 423 L 284 423 M 1831 423 L 2084 423 M 31 424.9 L 284 424.9 M 1831 424.9 L 2084 424.9 M 31 426.9 L 284 426.9 M 1831 426.9 L 2084 426.9 M 31 428.8 L 284 428.8 M 1831 428.8 L 2084 428.8 M 31 430.8 L 284 430.8 M 1831 430.8 L 2084 430.8 M 31 432.7 L 284 432.7 M 1831 432.7 L 2084 432.7 M 31 434.7 L 284 434.7 M 1831 434.7 L 2084 434.7 M 31 436.6 L 284 436.6 M 1831 436.6 L 2084 436.6 M 31 438.6 L 284 438.6 M 1831 438.6 L 2084 438.6 M 31 440.5 L 284 440.5 M 1831 440.5 L 2084 440.5 M 31 442.5 L 284 442.5 M 1831 442.5 L 2084 442.5 M 31 444.4 L 284 444.4 M 1831 444.4 L 2084 444.4 M 31 446.4 L 284 446.4 M 1831 446.4 L 2084 446.4 M 31 448.3 L 284 448.3 M 1831 448.3 L 2084 448.3 M 31 450.3 L 284 450.3 M 1831 450.3 L 2084 450.3 M 31 452.2 L 284 452.2 M 1831 452.2 L 2084 452.2 M 31 454.2 L 284 454.2 M 1831 454.2 L 2084 454.2 M 31 456.1 L 284 456.1 M 1831 456.1 L 2084 456.1 M 31 458.1 L 284 458.1 M 1831 458.1 L 2084 458.1 M 31 460.1 L 284 460.1 M 1831 460.1 L 2084 460.1 M 31 462 L 284 462 M 1831 462 L 2084 462 M 31 464 L 284 464 M 1831 464 L 2084 464 M 31 465.9 L 284 465.9 M 1831 465.9 L 2084 465.9 M 31 467.9 L 284 467.9 M 1831 467.9 L 2084 467.9 M 31 469.8 L 284 469.8 M 1831 469.8 L 2084 469.8 M 31 471.8 L 284 471.8 M 1831 471.8 L 2084 471.8 M 31 473.7 L 284 473.7 M 1831 473.7 L 2084 473.7 M 31 475.6 L 284 475.6 M 1831 475.6 L 2084 475.6 M 31 477.6 L 284 477.6 M 1831 477.6 L 2084 477.6 M 31 479.5 L 284 479.5 M 1831 479.5 L 2084 479.5 M 31 481.5 L 284 481.5 M 1831 481.5 L 2084 481.5 M 31 483.4 L 284 483.4 M 1831 483.4 L 2084 483.4 M 31 485.4 L 284 485.4 M 1831 485.4 L 2084 485.4 M 31 487.3 L 284 487.3 M 1831 487.3 L 2084 487.3 M 31 489.3 L 284 489.3 M 1831 489.3 L 2084 489.3 M 31 491.2 L 284 491.2 M 1831 491.2 L 2084 491.2 M 31 493.2 L 284 493.2 M 1831 493.2 L 2084 493.2 M 31 495.1 L 284 495.1 M 1831 495.1 L 2084 495.1 M 31 497.1 L 284 497.1 M 1831 497.1 L 2084 497.1 M 31 499 L 284 499 M 1831 499 L 2084 499 M 31 501 L 284 501 M 1831 501 L 2084 501 M 31 502.9 L 284 502.9 M 1831 502.9 L 2084 502.9 M 31.4 504.9 L 284 504.9 M 1831 504.9 L 2083.6 504.9 M 32.1 506.8 L 284 506.8 M 1831 506.8 L 2082.9 506.8 M 32.7 508.8 L 284.1 508.8 M 1830.9 508.8 L 2082.3 508.8 M 33.4 510.7 L 284.3 510.7 M 1830.7 510.7 L 2081.6 510.7 M 34 512.7 L 284.6 512.7 M 1830.4 512.7 L 2081 512.7 M 34.7 514.6 L 285.2 514.6 M 1829.8 514.6 L 2080.3 514.6 M 35.3 516.6 L 285.8 516.6 M 1829.2 516.6 L 2079.7 516.6 M 36 518.5 L 286.8 518.5 M 1828.2 518.5 L 2079 518.5 M 36.6 520.5 L 287.9 520.5 M 1827.1 520.5 L 2078.4 520.5 M 37.3 522.4 L 289.5 522.4 M 1825.5 522.4 L 2077.7 522.4 M 37.9 524.4 L 291.2 524.4 M 1823.8 524.4 L 2077.1 524.4 M 38.6 526.4 L 293.5 526.4 M 1821.5 526.4 L 2076.4 526.4 M 39.2 528.3 L 296.7 528.3 M 1818.3 528.3 L 2075.8 528.3 M 39.9 530.3 L 301.8 530.3 M 1813.2 530.3 L 2075.1 530.3 M 40.5 532.2 L 2074.5 532.2 M 41.2 534.2 L 2073.8 534.2 M 41.8 536.1 L 2073.2 536.1 M 42.5 538.1 L 2072.5 538.1 M 43.1 540 L 2071.9 540 M 43.8 541.9 L 2071.2 541.9 M 44.4 543.9 L 2070.6 543.9 M 45.1 545.8 L 2069.9 545.8 M 45.7 547.8 L 2069.3 547.8 M 46.4 549.7 L 2068.6 549.7 M 47 551.7 L 2068 551.7 M 47.7 553.6 L 2067.3 553.6 M 48.3 555.6 L 2066.7 555.6 M 49 557.5 L 2066 557.5 M 49.6 559.5 L 2065.4 559.5 M 50.3 561.4 L 2064.7 561.4 M 50.9 563.4 L 2064.1 563.4 M 51.6 565.3 L 2063.4 565.3 M 52.2 567.3 L 2062.8 567.3 M 52.9 569.2 L 2062.1 569.2 M 53.5 571.2 L 2061.5 571.2 M 54.2 573.1 L 2060.8 573.1 M 54.9 575.1 L 2060.2 575.1 M 55.5 577 L 2059.5 577 M 56.2 579 L 2058.8 579 M 56.8 580.9 L 2058.2 580.9 M 57.5 582.9 L 2057.5 582.9 M 58.1 584.8 L 2056.9 584.8 M 58.8 586.8 L 2056.2 586.8 M 59.4 588.7 L 2055.6 588.7 M 60.1 590.7 L 2054.9 590.7 M 60.7 592.7 L 2054.3 592.7 M 61.4 594.6 L 2053.6 594.6 M 62 596.6 L 2053 596.6 M 62.7 598.5 L 2052.3 598.5 M 63.3 600.5 L 2051.7 600.5 M 64 602.4 L 1153.2 602.4 M 1158.7 602.4 L 2051 602.4 M 64.6 604.4 L 1141.1 604.4 M 1170.7 604.4 L 2050.4 604.4 M 65.3 606.3 L 1135.5 606.3 M 1176.3 606.3 L 2049.7 606.3 M 65.9 608.2 L 1130.8 608.2 M 1181 608.2 L 2049.1 608.2 M 66.6 610.2 L 1127.7 610.2 M 1184.2 610.2 L 2048.4 610.2 M 67.2 612.1 L 1124.6 612.1 M 1187.3 612.1 L 2047.8 612.1 M 67.9 614.1 L 1121.5 614.1 M 1190.3 614.1 L 2047.1 614.1 M 68.5 616 L 1119.5 616 M 1192.3 616 L 2046.5 616 M 69.2 618 L 1117.5 618 M 1194.3 618 L 2045.8 618 M 69.8 619.9 L 1115.6 619.9 M 1196.2 619.9 L 2045.2 619.9 M 70.5 621.9 L 1113.6 621.9 M 1198.2 621.9 L 2044.5 621.9 M 71.1 623.8 L 1112 623.8 M 1199.8 623.8 L 2043.9 623.8 M 71.8 625.8 L 1110.8 625.8 M 1201 625.8 L 2043.2 625.8 M 72.4 627.7 L 1109.6 627.7 M 1202.3 627.7 L 2042.6 627.7 M 73.1 629.7 L 1108.4 629.7 M 1203.5 629.7 L 2041.9 629.7 M 73.7 631.6 L 1107.1 631.6 M 1204.7 631.6 L 2041.3 631.6 M 74.4 633.6 L 1106 633.6 M 1205.9 633.6 L 2040.6 633.6 M 75 635.5 L 1105.3 635.5 M 1206.6 635.5 L 2040 635.5 M 75.6 637.5 L 1104.6 637.5 M 1207.3 637.5 L 2039.4 637.5 M 76.3 639.4 L 1103.9 639.4 M 1207.9 639.4 L 2038.7 639.4 M 76.9 641.4 L 1103.2 641.4 M 1208.6 641.4 L 2038.1 641.4 M 77.6 643.3 L 1102.5 643.3 M 1209.3 643.3 L 2037.4 643.3 M 78.2 645.3 L 1101.9 645.3 M 1210 645.3 L 2036.8 645.3 M 78.9 647.2 L 1101.7 647.2 M 1210.2 647.2 L 2036.1 647.2 M 79.5 649.2 L 1101.4 649.2 M 1210.4 649.2 L 2035.5 649.2 M 80.2 651.1 L 1101.2 651.1 M 1210.6 651.1 L 2034.8 651.1 M 80.8 653.1 L 1101 653.1 M 1210.8 653.1 L 2034.2 653.1 M 81.5 655.1 L 1100.8 655.1 M 1211.1 655.1 L 2033.5 655.1 M 82.1 657 L 1100.6 657 M 1211.3 657 L 2032.9 657 M 82.8 659 L 1100.6 659 M 1211.2 659 L 2032.2 659 M 83.4 660.9 L 1100.9 660.9 M 1211 660.9 L 2031.6 660.9 M 84.1 662.9 L 1101.1 662.9 M 1210.7 662.9 L 2030.9 662.9 M 84.7 664.8 L 1101.3 664.8 M 1210.5 664.8 L 2030.3 664.8 M 85.4 666.8 L 1101.6 666.8 M 1210.3 666.8 L 2029.6 666.8 M 86 668.7 L 1101.8 668.7 M 1210.1 668.7 L 2029 668.7 M 86.7 670.6 L 1102.2 670.6 M 1209.7 670.6 L 2028.3 670.6 M 87.3 672.6 L 1102.9 672.6 M 1209 672.6 L 2027.7 672.6 M 88 674.5 L 1103.5 674.5 M 1208.3 674.5 L 2027 674.5 M 88.6 676.5 L 1104.2 676.5 M 1207.6 676.5 L 2026.4 676.5 M 89.3 678.4 L 1104.9 678.4 M 1206.9 678.4 L 2025.7 678.4 M 89.9 680.4 L 1105.6 680.4 M 1206.3 680.4 L 2025.1 680.4 M 90.6 682.3 L 1106.5 682.3 M 1205.4 682.3 L 2024.4 682.3 M 91.2 684.3 L 1107.7 684.3 M 1204.1 684.3 L 2023.8 684.3 M 91.9 686.2 L 1109 686.2 M 1202.9 686.2 L 2023.1 686.2 M 92.5 688.2 L 1110.2 688.2 M 1201.7 688.2 L 2022.5 688.2 M 93.2 690.1 L 1111.4 690.1 M 1200.5 690.1 L 2021.8 690.1 M 93.8 692.1 L 1112.6 692.1 M 1199.2 692.1 L 2021.2 692.1 M 94.5 694 L 1114.6 694 M 1197.3 694 L 2020.5 694 M 95.1 696 L 1116.5 696 M 1195.3 696 L 2019.9 696 M 95.8 697.9 L 1118.5 697.9 M 1193.4 697.9 L 2019.2 697.9 M 96.4 699.9 L 1120.4 699.9 M 1191.4 699.9 L 2018.6 699.9 M 97.1 701.8 L 1123 701.8 M 1188.9 701.8 L 2017.9 701.8 M 97.7 703.8 L 1126.1 703.8 M 1185.8 703.8 L 2017.3 703.8 M 98.4 705.7 L 1129.2 705.7 M 1182.7 705.7 L 2016.6 705.7 M 99 707.7 L 1132.6 707.7 M 1179.2 707.7 L 2016 707.7 M 99.7 709.6 L 1138.2 709.6 M 1173.6 709.6 L 2015.3 709.6 M 100.3 711.6 L 1144.1 711.6 M 1167.7 711.6 L 2014.7 711.6 M 101 713.5 L 2014 713.5 M 101.6 715.5 L 2013.4 715.5 M 102.3 717.4 L 2012.7 717.4 M 102.9 719.4 L 2012.1 719.4 M 103.6 721.4 L 2011.4 721.4 M 104.2 723.3 L 2010.8 723.3 M 104.9 725.3 L 2010.1 725.3 M 105.5 727.2 L 2009.5 727.2 M 106.2 729.2 L 2008.8 729.2 M 106.8 731.1 L 2008.2 731.1 M 107.5 733.1 L 2007.5 733.1 M 108.1 735 L 2006.9 735 M 108.8 736.9 L 2006.2 736.9 M 109.4 738.9 L 2005.6 738.9 M 110.1 740.8 L 2004.9 740.8 M 110.7 742.8 L 2004.3 742.8 M 111.4 744.7 L 2003.6 744.7 M 112 746.7 L 2003 746.7 M 112.7 748.6 L 2002.3 748.6 M 113.3 750.6 L 2001.7 750.6 M 114 752.5 L 2001 752.5 M 114.6 754.5 L 2000.4 754.5 M 115.3 756.4 L 1999.7 756.4 M 115.9 758.4 L 1999.1 758.4 M 116.6 760.3 L 1998.4 760.3 M 117.2 762.3 L 1997.8 762.3 M 117.9 764.2 L 1997.1 764.2 M 118.5 766.2 L 1996.5 766.2 M 119.2 768.1 L 1995.8 768.1 M 119.9 770.1 L 1995.2 770.1 M 120.5 772 L 1994.5 772 M 121.2 774 L 1993.8 774 M 121.8 775.9 L 1993.2 775.9 M 122.5 777.9 L 1992.5 777.9 M 123.1 779.8 L 1991.9 779.8 M 123.8 781.8 L 1991.2 781.8 M 124.4 783.7 L 1990.6 783.7 M 1959.3 123.2 L 1959.3 123.2 M 1959.3 123.2 L 1961.5 129.7 M 1961.5 129.7 L 1961.5 129.7 M 1961.5 129.7 L 1967.6 139.3 M 1967.6 139.3 L 1967.6 139.3 M 1967.6 139.3 L 1975.7 147.4 M 1975.7 147.4 L 1975.7 147.4 M 1975.7 147.4 L 1985.3 153.5 M 1985.3 153.5 L 1985.3 153.5 M 1985.3 153.5 L 1991.8 155.7 M 1991.8 155.7 L 1991.8 159.3 M 1991.8 159.3 L 1985.3 161.5 M 1985.3 161.5 L 1985.3 161.5 M 1985.3 161.5 L 1975.7 167.6 M 1975.7 167.6 L 1975.7 167.6 M 1975.7 167.6 L 1967.6 175.7 M 1967.6 175.7 L 1967.6 175.7 M 1967.6 175.7 L 1961.5 185.3 M 1961.5 185.3 L 1961.5 185.3 M 1961.5 185.3 L 1959.3 191.8 M 1959.3 191.8 L 1955.7 191.8 M 1955.7 191.8 L 1953.5 185.3 M 1953.5 185.3 L 1953.5 185.3 M 1953.5 185.3 L 1947.4 175.7 M 1947.4 175.7 L 1947.4 175.7 M 1947.4 175.7 L 1939.3 167.6 M 1939.3 167.6 L 1939.3 167.6 M 1939.3 167.6 L 1929.7 161.5 M 1929.7 161.5 L 1929.7 161.5 M 1929.7 161.5 L 1923.2 159.3 M 1923.2 159.3 L 1923.2 155.7 M 1923.2 155.7 L 1929.7 153.5 M 1929.7 153.5 L 1929.7 153.5 M 1929.7 153.5 L 1939.3 147.4 M 1939.3 147.4 L 1939.3 147.4 M 1939.3 147.4 L 1947.4 139.3 M 1947.4 139.3 L 1947.4 139.3 M 1947.4 139.3 L 1953.5 129.7 M 1953.5 129.7 L 1953.5 129.7 M 1953.5 129.7 L 1955.7 123.2 M 1955.7 123.2 L 1959.3 123.2 M 1955.1 125.2 L 1959.9 125.2 M 1954.4 127.1 L 1960.6 127.1 M 1953.7 129.1 L 1961.3 129.1 M 1952.6 131 L 1962.4 131 M 1951.4 133 L 1963.6 133 M 1950.2 134.9 L 1964.8 134.9 M 1948.9 136.9 L 1966.1 136.9 M 1947.7 138.8 L 1967.3 138.8 M 1945.9 140.8 L 1969.1 140.8 M 1944 142.7 L 1971 142.7 M 1942 144.7 L 1973 144.7 M 1940.1 146.6 L 1974.9 146.6 M 1937.4 148.6 L 1977.6 148.6 M 1934.4 150.5 L 1980.6 150.5 M 1931.2 152.5 L 1983.8 152.5 M 1926.9 154.4 L 1988.1 154.4 M 1923.2 156.4 L 1991.8 156.4 M 1923.2 158.3 L 1991.8 158.3 M 1926.2 160.3 L 1988.8 160.3 M 1930.8 162.2 L 1984.2 162.2 M 1933.9 164.2 L 1981.1 164.2 M 1937 166.1 L 1978 166.1 M 1939.8 168.1 L 1975.2 168.1 M 1941.8 170.1 L 1973.2 170.1 M 1943.7 172 L 1971.3 172 M 1945.6 174 L 1969.4 174 M 1947.5 175.9 L 1967.5 175.9 M 1948.8 177.9 L 1966.2 177.9 M 1950 179.8 L 1965 179.8 M 1951.2 181.8 L 1963.8 181.8 M 1952.4 183.7 L 1962.6 183.7 M 1953.6 185.6 L 1961.4 185.6 M 1954.3 187.6 L 1960.7 187.6 M 1954.9 189.5 L 1960.1 189.5 M 1955.6 191.5 L 1959.4 191.5 M 159.3 123.2 L 159.3 123.2 M 159.3 123.2 L 161.5 129.7 M 161.5 129.7 L 161.5 129.7 M 161.5 129.7 L 167.6 139.3 M 167.6 139.3 L 167.6 139.3 M 167.6 139.3 L 175.7 147.4 M 175.7 147.4 L 175.7 147.4 M 175.7 147.4 L 185.3 153.5 M 185.3 153.5 L 185.3 153.5 M 185.3 153.5 L 191.8 155.7 M 191.8 155.7 L 191.8 159.3 M 191.8 159.3 L 185.3 161.5 M 185.3 161.5 L 185.3 161.5 M 185.3 161.5 L 175.7 167.6 M 175.7 167.6 L 175.7 167.6 M 175.7 167.6 L 167.6 175.7 M 167.6 175.7 L 167.6 175.7 M 167.6 175.7 L 161.5 185.3 M 161.5 185.3 L 161.5 185.3 M 161.5 185.3 L 159.3 191.8 M 159.3 191.8 L 155.7 191.8 M 155.7 191.8 L 153.5 185.3 M 153.5 185.3 L 153.5 185.3 M 153.5 185.3 L 147.4 175.7 M 147.4 175.7 L 147.4 175.7 M 147.4 175.7 L 139.3 167.6 M 139.3 167.6 L 139.3 167.6 M 139.3 167.6 L 129.7 161.5 M 129.7 161.5 L 129.7 161.5 M 129.7 161.5 L 123.2 159.3 M 123.2 159.3 L 123.2 155.7 M 123.2 155.7 L 129.7 153.5 M 129.7 153.5 L 129.7 153.5 M 129.7 153.5 L 139.3 147.4 M 139.3 147.4 L 139.3 147.4 M 139.3 147.4 L 147.4 139.3 M 147.4 139.3 L 147.4 139.3 M 147.4 139.3 L 153.5 129.7 M 153.5 129.7 L 153.5 129.7 M 153.5 129.7 L 155.7 123.2 M 155.7 123.2 L 159.3 123.2 M 155.1 125.2 L 159.9 125.2 M 154.4 127.1 L 160.6 127.1 M 153.7 129.1 L 161.3 129.1 M 152.6 131 L 162.4 131 M 151.4 133 L 163.6 133 M 150.2 134.9 L 164.8 134.9 M 148.9 136.9 L 166.1 136.9 M 147.7 138.8 L 167.3 138.8 M 145.9 140.8 L 169.1 140.8 M 144 142.7 L 171 142.7 M 142 144.7 L 173 144.7 M 140.1 146.6 L 174.9 146.6 M 137.4 148.6 L 177.6 148.6 M 134.4 150.5 L 180.6 150.5 M 131.2 152.5 L 183.8 152.5 M 126.9 154.4 L 188.1 154.4 M 123.2 156.4 L 191.8 156.4 M 123.2 158.3 L 191.8 158.3 M 126.2 160.3 L 188.8 160.3 M 130.8 162.2 L 184.2 162.2 M 133.9 164.2 L 181.1 164.2 M 137 166.1 L 178 166.1 M 139.8 168.1 L 175.2 168.1 M 141.8 170.1 L 173.2 170.1 M 143.7 172 L 171.3 172 M 145.6 174 L 169.4 174 M 147.5 175.9 L 167.5 175.9 M 148.8 177.9 L 166.2 177.9 M 150 179.8 L 165 179.8 M 151.2 181.8 L 163.8 181.8 M 152.4 183.7 L 162.6 183.7 M 153.6 185.6 L 161.4 185.6 M 154.3 187.6 L 160.7 187.6 M 154.9 189.5 L 160.1 189.5 M 155.6 191.5 L 159.4 191.5"/><use x="959.1" y="657.5" xlink:href="#tool-D11-pad-1003"/><use x="1155.9" y="657.5" xlink:href="#tool-D12-pad-1004"/><use x="107.5" y="207.5" xlink:href="#tool-D13-pad-1005"/><use x="107.5" y="107.5" xlink:href="#tool-D13-pad-1005"/><use x="207.5" y="207.5" xlink:href="#tool-D13-pad-1005"/><use x="207.5" y="107.5" xlink:href="#tool-D13-pad-1005"/><use x="1907.5" y="207.5" xlink:href="#tool-D13-pad-1005"/><use x="1907.5" y="107.5" xlink:href="#tool-D13-pad-1005"/><use x="2007.5" y="207.5" xlink:href="#tool-D13-pad-1005"/><use x="2007.5" y="107.5" xlink:href="#tool-D13-pad-1005"/></g><mask id="pcb_bottom_mech-mask" fill="#fff" stroke="#fff" fill-rule="evenodd"><path stroke-width="0" d="M 7.5 7.5 L 307.5 7.5 L 307.5 507.5 L 1807.5 507.5 L 1807.5 7.5 L 2107.5 7.5 L 2107.5 507.5 L 2007.5 807.5 L 107.5 807.5 L 7.5 507.5 Z"/><g id="pcb_bottom-drl" fill="#000" stroke="#000"><use x="959.1" y="657.5" xlink:href="#tool-T10-pad-1000"/><use x="1155.9" y="657.5" xlink:href="#tool-T10-pad-1000"/><use x="107.5" y="207.5" xlink:href="#tool-T11-pad-1001"/><use x="107.5" y="107.5" xlink:href="#tool-T11-pad-1001"/><use x="207.5" y="207.5" xlink:href="#tool-T11-pad-1001"/><use x="207.5" y="107.5" xlink:href="#tool-T11-pad-1001"/><use x="1907.5" y="207.5" xlink:href="#tool-T11-pad-1001"/><use x="1907.5" y="107.5" xlink:href="#tool-T11-pad-1001"/><use x="2007.5" y="207.5" xlink:href="#tool-T11-pad-1001"/><use x="2007.5" y="107.5" xlink:href="#tool-T11-pad-1001"/></g></mask></defs><g mask="url(#pcb_bottom_mech-mask)" transform="translate(2115,815) scale(-1,-1)"><rect x="7.5" y="7.5" width="2100" height="800" fill="currentColor" class="pcb_board-fr4"/><use class="pcb_board-cu" xlink:href="#pcb_bottom-cu"/><g><defs><g id="pcb_bottom-sm" fill="currentColor" stroke="currentColor"><use x="959.1" y="657.5" xlink:href="#tool-D10-pad-1006"/><use x="1155.9" y="657.5" xlink:href="#tool-D11-pad-1007"/><use x="107.5" y="207.5" xlink:href="#tool-D12-pad-1008"/><use x="107.5" y="107.5" xlink:href="#tool-D12-pad-1008"/><use x="207.5" y="207.5" xlink:href="#tool-D12-pad-1008"/><use x="207.5" y="107.5" xlink:href="#tool-D12-pad-1008"/><use x="1907.5" y="207.5" xlink:href="#tool-D12-pad-1008"/><use x="1907.5" y="107.5" xlink:href="#tool-D12-pad-1008"/><use x="2007.5" y="207.5" xlink:href="#tool-D12-pad-1008"/><use x="2007.5" y="107.5" xlink:href="#tool-D12-pad-1008"/></g><mask id="pcb_bottom-sm_mask" color="#000"><rect x="7.5" y="7.5" width="2100" height="800" fill="#fff"/><use xlink:href="#pcb_bottom-sm"/></mask><mask id="pcb_bottom-cu_finish-mask" color="#fff"><use xlink:href="#pcb_bottom-cu"/></mask></defs><g mask="url(#pcb_bottom-sm_mask)"><rect x="7.5" y="7.5" width="2100" height="800" fill="currentColor" class="pcb_board-sm"/><g id="pcb_bottom-ss" class="pcb_board-ss" fill="currentColor" stroke="currentColor"></g></g><use class="pcb_board-cf" mask="url(#pcb_bottom-cu_finish-mask)" xlink:href="#pcb_bottom-sm"/></g></g></svg>