<?xml-stylesheet href="https://s3.amazonaws.com/maker.works.boards/css/blackpcb.css" type="text/css"?><svg xmlns="http://www.w3.org/2000/svg" version="1.1" xmlns:xlink="http://www.w3.org/1999/xlink" stroke-width="0" stroke-linecap="round" stroke-linejoin="round" width="2.1in" height="0.8in" id="pcb_top" viewBox="7.5 7.5 2100 800"><defs><circle cx="0" cy="0" r="27.5" id="tool-T10-pad-1000"/><circle cx="0" cy="0" r="20" id="tool-T11-pad-1001"/><rect x="-39.35" y="-39.35" width="78.7" height="78.7" id="tool-D11-pad-1010"/><circle cx="0" cy="0" r="39.35" id="tool-D12-pad-1011"/><circle cx="0" cy="0" r="35" id="tool-D13-pad-1012"/><rect x="-39.35" y="-39.35" width="78.7" height="78.7" id="tool-D10-pad-1016"/><circle cx="0" cy="0" r="39.35" id="tool-D11-pad-1017"/><circle cx="0" cy="0" r="35" id="tool-D12-pad-1018"/><g id="pcb_top-cu" fill="currentColor" stroke="currentColor"><path stroke-width="2" fill="none" d="M 2084 503.7 L 2084 503.7 M 2084 503.7 L 1990.5 784 M 1990.5 784 L 124.5 784 M 124.5 784 L 31 503.7 M 31 503.7 L 31 31 M 31 31 L 284 31 M 284 31 L 284 507.5 M 284 507.5 L 284 507.5 M 284 507.5 L 284.4 512.1 M 284.4 512.1 L 284.4 512.1 M 284.4 512.1 L 285.7 516.5 M 285.7 516.5 L 285.7 516.5 M 285.7 516.5 L 287.9 520.6 M 287.9 520.6 L 287.9 520.6 M 287.9 520.6 L 290.8 524.2 M 290.8 524.2 L 290.8 524.2 M 290.8 524.2 L 294.4 527.1 M 294.4 527.1 L 294.4 527.1 M 294.4 527.1 L 298.5 529.3 M 298.5 529.3 L 298.5 529.3 M 298.5 529.3 L 302.9 530.6 M 302.9 530.6 L 302.9 530.6 M 302.9 530.6 L 307.5 531 M 307.5 531 L 307.5 531 M 307.5 531 L 1807.5 531 M 1807.5 531 L 1807.5 531 M 1807.5 531 L 1812.1 530.6 M 1812.1 530.6 L 1812.1 530.6 M 1812.1 530.6 L 1816.5 529.3 M 1816.5 529.3 L 1816.5 529.3 M 1816.5 529.3 L 1820.6 527.1 M 1820.6 527.1 L 1820.6 527.1 M 1820.6 527.1 L 1824.2 524.2 M 1824.2 524.2 L 1824.2 524.2 M 1824.2 524.2 L 1827.1 520.6 M 1827.1 520.6 L 1827.1 520.6 M 1827.1 520.6 L 1829.3 516.5 M 1829.3 516.5 L 1829.3 516.5 M 1829.3 516.5 L 1830.6 512.1 M 1830.6 512.1 L 1830.6 512.1 M 1830.6 512.1 L 1831 507.5 M 1831 507.5 L 1831 507.5 M 1831 507.5 L 1831 31 M 1831 31 L 2084 31 M 2084 31 L 2084 503.7 M 998.4 602.1 L 919.7 602.1 M 919.7 602.1 L 917.2 602.3 M 917.2 602.3 L 914.7 602.9 M 914.7 602.9 L 912.4 603.8 M 912.4 603.8 L 910.3 605.1 M 910.3 605.1 L 908.4 606.8 M 908.4 606.8 L 906.7 608.7 M 906.7 608.7 L 905.4 610.8 M 905.4 610.8 L 904.5 613.2 M 904.5 613.2 L 903.9 615.6 M 903.9 615.6 L 903.7 618.1 M 903.7 618.1 L 903.7 696.9 M 903.7 696.9 L 903.9 699.4 M 903.9 699.4 L 904.5 701.8 M 904.5 701.8 L 905.4 704.2 M 905.4 704.2 L 906.7 706.3 M 906.7 706.3 L 908.4 708.2 M 908.4 708.2 L 910.3 709.9 M 910.3 709.9 L 912.4 711.2 M 912.4 711.2 L 914.7 712.1 M 914.7 712.1 L 917.2 712.7 M 917.2 712.7 L 919.7 712.9 M 919.7 712.9 L 998.4 712.9 M 998.4 712.9 L 1001 712.7 M 1001 712.7 L 1003.4 712.1 M 1003.4 712.1 L 1005.7 711.2 M 1005.7 711.2 L 1007.9 709.9 M 1007.9 709.9 L 1009.8 708.2 M 1009.8 708.2 L 1011.4 706.3 M 1011.4 706.3 L 1012.7 704.2 M 1012.7 704.2 L 1013.7 701.8 M 1013.7 701.8 L 1014.3 699.4 M 1014.3 699.4 L 1014.5 696.9 M 1014.5 696.9 L 1014.5 618.1 M 1014.5 618.1 L 1014.3 615.6 M 1014.3 615.6 L 1013.7 613.2 M 1013.7 613.2 L 1012.7 610.8 M 1012.7 610.8 L 1011.4 608.7 M 1011.4 608.7 L 1009.8 606.8 M 1009.8 606.8 L 1007.9 605.1 M 1007.9 605.1 L 1005.7 603.8 M 1005.7 603.8 L 1003.4 602.9 M 1003.4 602.9 L 1001 602.3 M 1001 602.3 L 998.4 602.1 M 1907.5 56.5 L 1896.2 57.7 M 1896.2 57.7 L 1885.4 61.5 M 1885.4 61.5 L 1875.7 67.6 M 1875.7 67.6 L 1867.6 75.7 M 1867.6 75.7 L 1861.5 85.4 M 1861.5 85.4 L 1857.7 96.2 M 1857.7 96.2 L 1856.5 107.5 M 1856.5 107.5 L 1857.7 118.8 M 1857.7 118.8 L 1861.5 129.6 M 1861.5 129.6 L 1867.6 139.3 M 1867.6 139.3 L 1875.7 147.4 M 1875.7 147.4 L 1885.4 153.5 M 1885.4 153.5 L 1891.8 155.7 M 1891.8 155.7 L 1891.8 159.3 M 1891.8 159.3 L 1885.4 161.5 M 1885.4 161.5 L 1875.7 167.6 M 1875.7 167.6 L 1867.6 175.7 M 1867.6 175.7 L 1861.5 185.4 M 1861.5 185.4 L 1857.7 196.2 M 1857.7 196.2 L 1856.5 207.5 M 1856.5 207.5 L 1857.7 218.8 M 1857.7 218.8 L 1861.5 229.6 M 1861.5 229.6 L 1867.6 239.3 M 1867.6 239.3 L 1875.7 247.4 M 1875.7 247.4 L 1885.4 253.5 M 1885.4 253.5 L 1896.2 257.3 M 1896.2 257.3 L 1907.5 258.5 M 1907.5 258.5 L 1918.8 257.3 M 1918.8 257.3 L 1929.6 253.5 M 1929.6 253.5 L 1939.3 247.4 M 1939.3 247.4 L 1947.4 239.3 M 1947.4 239.3 L 1953.5 229.6 M 1953.5 229.6 L 1955.7 223.2 M 1955.7 223.2 L 1959.3 223.2 M 1959.3 223.2 L 1961.5 229.6 M 1961.5 229.6 L 1967.6 239.3 M 1967.6 239.3 L 1975.7 247.4 M 1975.7 247.4 L 1985.4 253.5 M 1985.4 253.5 L 1996.2 257.3 M 1996.2 257.3 L 1999.5 257.7 M 1999.5 257.7 L 1999.5 238.2 M 1999.5 238.2 L 2015.5 238.2 M 2015.5 238.2 L 2015.5 257.7 M 2015.5 257.7 L 2018.8 257.3 M 2018.8 257.3 L 2029.6 253.5 M 2029.6 253.5 L 2039.3 247.4 M 2039.3 247.4 L 2047.4 239.3 M 2047.4 239.3 L 2053.5 229.6 M 2053.5 229.6 L 2057.3 218.8 M 2057.3 218.8 L 2058.5 207.5 M 2058.5 207.5 L 2057.3 196.2 M 2057.3 196.2 L 2053.5 185.4 M 2053.5 185.4 L 2047.4 175.7 M 2047.4 175.7 L 2039.3 167.6 M 2039.3 167.6 L 2029.6 161.5 M 2029.6 161.5 L 2023.2 159.3 M 2023.2 159.3 L 2023.2 155.7 M 2023.2 155.7 L 2029.6 153.5 M 2029.6 153.5 L 2039.3 147.4 M 2039.3 147.4 L 2047.4 139.3 M 2047.4 139.3 L 2053.5 129.6 M 2053.5 129.6 L 2057.3 118.8 M 2057.3 118.8 L 2058.5 107.5 M 2058.5 107.5 L 2057.3 96.2 M 2057.3 96.2 L 2053.5 85.4 M 2053.5 85.4 L 2047.4 75.7 M 2047.4 75.7 L 2039.3 67.6 M 2039.3 67.6 L 2029.6 61.5 M 2029.6 61.5 L 2018.8 57.7 M 2018.8 57.7 L 2015.5 57.3 M 2015.5 57.3 L 2015.5 76.8 M 2015.5 76.8 L 1999.5 76.8 M 1999.5 76.8 L 1999.5 57.3 M 1999.5 57.3 L 1996.2 57.7 M 1996.2 57.7 L 1985.4 61.5 M 1985.4 61.5 L 1975.7 67.6 M 1975.7 67.6 L 1967.6 75.7 M 1967.6 75.7 L 1961.5 85.4 M 1961.5 85.4 L 1959.3 91.8 M 1959.3 91.8 L 1955.7 91.8 M 1955.7 91.8 L 1953.5 85.4 M 1953.5 85.4 L 1947.4 75.7 M 1947.4 75.7 L 1939.3 67.6 M 1939.3 67.6 L 1929.6 61.5 M 1929.6 61.5 L 1918.8 57.7 M 1918.8 57.7 L 1907.5 56.5 M 107.5 56.5 L 96.2 57.7 M 96.2 57.7 L 85.4 61.5 M 85.4 61.5 L 75.7 67.6 M 75.7 67.6 L 67.6 75.7 M 67.6 75.7 L 61.5 85.4 M 61.5 85.4 L 57.7 96.2 M 57.7 96.2 L 56.5 107.5 M 56.5 107.5 L 57.7 118.8 M 57.7 118.8 L 61.5 129.6 M 61.5 129.6 L 67.6 139.3 M 67.6 139.3 L 75.7 147.4 M 75.7 147.4 L 85.4 153.5 M 85.4 153.5 L 91.8 155.7 M 91.8 155.7 L 91.8 159.3 M 91.8 159.3 L 85.4 161.5 M 85.4 161.5 L 75.7 167.6 M 75.7 167.6 L 67.6 175.7 M 67.6 175.7 L 61.5 185.4 M 61.5 185.4 L 57.7 196.2 M 57.7 196.2 L 56.5 207.5 M 56.5 207.5 L 57.7 218.8 M 57.7 218.8 L 61.5 229.6 M 61.5 229.6 L 67.6 239.3 M 67.6 239.3 L 75.7 247.4 M 75.7 247.4 L 85.4 253.5 M 85.4 253.5 L 96.2 257.3 M 96.2 257.3 L 107.5 258.5 M 107.5 258.5 L 118.8 257.3 M 118.8 257.3 L 129.6 253.5 M 129.6 253.5 L 139.3 247.4 M 139.3 247.4 L 147.4 239.3 M 147.4 239.3 L 153.5 229.6 M 153.5 229.6 L 155.7 223.2 M 155.7 223.2 L 159.3 223.2 M 159.3 223.2 L 161.5 229.6 M 161.5 229.6 L 167.6 239.3 M 167.6 239.3 L 175.7 247.4 M 175.7 247.4 L 185.4 253.5 M 185.4 253.5 L 196.2 257.3 M 196.2 257.3 L 199.5 257.7 M 199.5 257.7 L 199.5 238.2 M 199.5 238.2 L 215.5 238.2 M 215.5 238.2 L 215.5 257.7 M 215.5 257.7 L 218.8 257.3 M 218.8 257.3 L 229.6 253.5 M 229.6 253.5 L 239.3 247.4 M 239.3 247.4 L 247.4 239.3 M 247.4 239.3 L 253.5 229.6 M 253.5 229.6 L 257.3 218.8 M 257.3 218.8 L 258.5 207.5 M 258.5 207.5 L 257.3 196.2 M 257.3 196.2 L 253.5 185.4 M 253.5 185.4 L 247.4 175.7 M 247.4 175.7 L 239.3 167.6 M 239.3 167.6 L 229.6 161.5 M 229.6 161.5 L 223.2 159.3 M 223.2 159.3 L 223.2 155.7 M 223.2 155.7 L 229.6 153.5 M 229.6 153.5 L 239.3 147.4 M 239.3 147.4 L 247.4 139.3 M 247.4 139.3 L 253.5 129.6 M 253.5 129.6 L 257.3 118.8 M 257.3 118.8 L 258.5 107.5 M 258.5 107.5 L 257.3 96.2 M 257.3 96.2 L 253.5 85.4 M 253.5 85.4 L 247.4 75.7 M 247.4 75.7 L 239.3 67.6 M 239.3 67.6 L 229.6 61.5 M 229.6 61.5 L 218.8 57.7 M 218.8 57.7 L 215.5 57.3 M 215.5 57.3 L 215.5 76.8 M 215.5 76.8 L 199.5 76.8 M 199.5 76.8 L 199.5 57.3 M 199.5 57.3 L 196.2 57.7 M 196.2 57.7 L 185.4 61.5 M 185.4 61.5 L 175.7 67.6 M 175.7 67.6 L 167.6 75.7 M 167.6 75.7 L 161.5 85.4 M 161.5 85.4 L 159.3 91.8 M 159.3 91.8 L 155.7 91.8 M 155.7 91.8 L 153.5 85.4 M 153.5 85.4 L 147.4 75.7 M 147.4 75.7 L 139.3 67.6 M 139.3 67.6 L 129.6 61.5 M 129.6 61.5 L 118.8 57.7 M 118.8 57.7 L 107.5 56.5 M 31 33 L 284 33 M 1831 33 L 2084 33 M 31 34.9 L 284 34.9 M 1831 34.9 L 2084 34.9 M 31 36.9 L 284 36.9 M 1831 36.9 L 2084 36.9 M 31 38.8 L 284 38.8 M 1831 38.8 L 2084 38.8 M 31 40.8 L 284 40.8 M 1831 40.8 L 2084 40.8 M 31 42.7 L 284 42.7 M 1831 42.7 L 2084 42.7 M 31 44.7 L 284 44.7 M 1831 44.7 L 2084 44.7 M 31 46.6 L 284 46.6 M 1831 46.6 L 2084 46.6 M 31 48.6 L 284 48.6 M 1831 48.6 L 2084 48.6 M 31 50.5 L 284 50.5 M 1831 50.5 L 2084 50.5 M 31 52.5 L 284 52.5 M 1831 52.5 L 2084 52.5 M 31 54.4 L 284 54.4 M 1831 54.4 L 2084 54.4 M 31 56.4 L 284 56.4 M 1831 56.4 L 2084 56.4 M 31 58.3 L 94.4 58.3 M 120.6 58.3 L 194.4 58.3 M 199.5 58.3 L 215.5 58.3 M 220.6 58.3 L 284 58.3 M 1831 58.3 L 1894.4 58.3 M 1920.6 58.3 L 1994.4 58.3 M 1999.5 58.3 L 2015.5 58.3 M 2020.6 58.3 L 2084 58.3 M 31 60.3 L 88.8 60.3 M 126.2 60.3 L 188.8 60.3 M 199.5 60.3 L 215.5 60.3 M 226.2 60.3 L 284 60.3 M 1831 60.3 L 1888.8 60.3 M 1926.2 60.3 L 1988.8 60.3 M 1999.5 60.3 L 2015.5 60.3 M 2026.2 60.3 L 2084 60.3 M 31 62.2 L 84.2 62.2 M 130.8 62.2 L 184.2 62.2 M 199.5 62.2 L 215.5 62.2 M 230.8 62.2 L 284 62.2 M 1831 62.2 L 1884.2 62.2 M 1930.8 62.2 L 1984.2 62.2 M 1999.5 62.2 L 2015.5 62.2 M 2030.8 62.2 L 2084 62.2 M 31 64.2 L 81.1 64.2 M 133.9 64.2 L 181.1 64.2 M 199.5 64.2 L 215.5 64.2 M 233.9 64.2 L 284 64.2 M 1831 64.2 L 1881.1 64.2 M 1933.9 64.2 L 1981.1 64.2 M 1999.5 64.2 L 2015.5 64.2 M 2033.9 64.2 L 2084 64.2 M 31 66.1 L 78 66.1 M 137 66.1 L 178 66.1 M 199.5 66.1 L 215.5 66.1 M 237 66.1 L 284 66.1 M 1831 66.1 L 1878 66.1 M 1937 66.1 L 1978 66.1 M 1999.5 66.1 L 2015.5 66.1 M 2037 66.1 L 2084 66.1 M 31 68.1 L 75.2 68.1 M 139.8 68.1 L 175.2 68.1 M 199.5 68.1 L 215.5 68.1 M 239.8 68.1 L 284 68.1 M 1831 68.1 L 1875.2 68.1 M 1939.8 68.1 L 1975.2 68.1 M 1999.5 68.1 L 2015.5 68.1 M 2039.8 68.1 L 2084 68.1 M 31 70.1 L 73.2 70.1 M 141.8 70.1 L 173.2 70.1 M 199.5 70.1 L 215.5 70.1 M 241.8 70.1 L 284 70.1 M 1831 70.1 L 1873.2 70.1 M 1941.8 70.1 L 1973.2 70.1 M 1999.5 70.1 L 2015.5 70.1 M 2041.8 70.1 L 2084 70.1 M 31 72 L 71.3 72 M 143.7 72 L 171.3 72 M 199.5 72 L 215.5 72 M 243.7 72 L 284 72 M 1831 72 L 1871.3 72 M 1943.7 72 L 1971.3 72 M 1999.5 72 L 2015.5 72 M 2043.7 72 L 2084 72 M 31 74 L 69.3 74 M 145.7 74 L 169.3 74 M 199.5 74 L 215.5 74 M 245.7 74 L 284 74 M 1831 74 L 1869.3 74 M 1945.7 74 L 1969.3 74 M 1999.5 74 L 2015.5 74 M 2045.7 74 L 2084 74 M 31 75.9 L 67.5 75.9 M 147.5 75.9 L 167.5 75.9 M 199.5 75.9 L 215.5 75.9 M 247.5 75.9 L 284 75.9 M 1831 75.9 L 1867.5 75.9 M 1947.5 75.9 L 1967.5 75.9 M 1999.5 75.9 L 2015.5 75.9 M 2047.5 75.9 L 2084 75.9 M 31 77.9 L 66.2 77.9 M 148.8 77.9 L 166.2 77.9 M 248.8 77.9 L 284 77.9 M 1831 77.9 L 1866.2 77.9 M 1948.8 77.9 L 1966.2 77.9 M 2048.8 77.9 L 2084 77.9 M 31 79.8 L 65 79.8 M 150 79.8 L 165 79.8 M 250 79.8 L 284 79.8 M 1831 79.8 L 1865 79.8 M 1950 79.8 L 1965 79.8 M 2050 79.8 L 2084 79.8 M 31 81.8 L 63.8 81.8 M 151.2 81.8 L 163.8 81.8 M 251.2 81.8 L 284 81.8 M 1831 81.8 L 1863.8 81.8 M 1951.2 81.8 L 1963.8 81.8 M 2051.2 81.8 L 2084 81.8 M 31 83.7 L 62.5 83.7 M 152.5 83.7 L 162.5 83.7 M 252.5 83.7 L 284 83.7 M 1831 83.7 L 1862.5 83.7 M 1952.5 83.7 L 1962.5 83.7 M 2052.5 83.7 L 2084 83.7 M 31 85.6 L 61.4 85.6 M 153.6 85.6 L 161.4 85.6 M 253.6 85.6 L 284 85.6 M 1831 85.6 L 1861.4 85.6 M 1953.6 85.6 L 1961.4 85.6 M 2053.6 85.6 L 2084 85.6 M 31 87.6 L 60.7 87.6 M 154.3 87.6 L 160.7 87.6 M 254.3 87.6 L 284 87.6 M 1831 87.6 L 1860.7 87.6 M 1954.3 87.6 L 1960.7 87.6 M 2054.3 87.6 L 2084 87.6 M 31 89.5 L 60.1 89.5 M 154.9 89.5 L 160.1 89.5 M 254.9 89.5 L 284 89.5 M 1831 89.5 L 1860.1 89.5 M 1954.9 89.5 L 1960.1 89.5 M 2054.9 89.5 L 2084 89.5 M 31 91.5 L 59.4 91.5 M 155.6 91.5 L 159.4 91.5 M 255.6 91.5 L 284 91.5 M 1831 91.5 L 1859.4 91.5 M 1955.6 91.5 L 1959.4 91.5 M 2055.6 91.5 L 2084 91.5 M 31 93.4 L 58.7 93.4 M 256.3 93.4 L 284 93.4 M 1831 93.4 L 1858.7 93.4 M 2056.3 93.4 L 2084 93.4 M 31 95.4 L 58 95.4 M 257 95.4 L 284 95.4 M 1831 95.4 L 1858 95.4 M 2057 95.4 L 2084 95.4 M 31 97.3 L 57.6 97.3 M 257.4 97.3 L 284 97.3 M 1831 97.3 L 1857.6 97.3 M 2057.4 97.3 L 2084 97.3 M 31 99.3 L 57.4 99.3 M 257.6 99.3 L 284 99.3 M 1831 99.3 L 1857.4 99.3 M 2057.6 99.3 L 2084 99.3 M 31 101.2 L 57.1 101.2 M 257.9 101.2 L 284 101.2 M 1831 101.2 L 1857.1 101.2 M 2057.9 101.2 L 2084 101.2 M 31 103.2 L 56.9 103.2 M 258.1 103.2 L 284 103.2 M 1831 103.2 L 1856.9 103.2 M 2058.1 103.2 L 2084 103.2 M 31 105.1 L 56.7 105.1 M 258.3 105.1 L 284 105.1 M 1831 105.1 L 1856.7 105.1 M 2058.3 105.1 L 2084 105.1 M 31 107.1 L 56.5 107.1 M 258.5 107.1 L 284 107.1 M 1831 107.1 L 1856.5 107.1 M 2058.5 107.1 L 2084 107.1 M 31 109 L 56.6 109 M 258.4 109 L 284 109 M 1831 109 L 1856.6 109 M 2058.4 109 L 2084 109 M 31 111 L 56.8 111 M 258.2 111 L 284 111 M 1831 111 L 1856.8 111 M 2058.2 111 L 2084 111 M 31 112.9 L 57.1 112.9 M 257.9 112.9 L 284 112.9 M 1831 112.9 L 1857.1 112.9 M 2057.9 112.9 L 2084 112.9 M 31 114.9 L 57.3 114.9 M 257.7 114.9 L 284 114.9 M 1831 114.9 L 1857.3 114.9 M 2057.7 114.9 L 2084 114.9 M 31 116.8 L 57.5 116.8 M 257.5 116.8 L 284 116.8 M 1831 116.8 L 1857.5 116.8 M 2057.5 116.8 L 2084 116.8 M 31 118.8 L 57.7 118.8 M 257.3 118.8 L 284 118.8 M 1831 118.8 L 1857.7 118.8 M 2057.3 118.8 L 2084 118.8 M 31 120.7 L 58.4 120.7 M 256.6 120.7 L 284 120.7 M 1831 120.7 L 1858.4 120.7 M 2056.6 120.7 L 2084 120.7 M 31 122.7 L 59.1 122.7 M 255.9 122.7 L 284 122.7 M 1831 122.7 L 1859.1 122.7 M 2055.9 122.7 L 2084 122.7 M 31 124.6 L 59.7 124.6 M 255.3 124.6 L 284 124.6 M 1831 124.6 L 1859.7 124.6 M 2055.3 124.6 L 2084 124.6 M 31 126.6 L 60.5 126.6 M 254.5 126.6 L 284 126.6 M 1831 126.6 L 1860.5 126.6 M 2054.5 126.6 L 2084 126.6 M 31 128.5 L 61.1 128.5 M 253.9 128.5 L 284 128.5 M 1831 128.5 L 1861.1 128.5 M 2053.9 128.5 L 2084 128.5 M 31 130.5 L 62 130.5 M 253 130.5 L 284 130.5 M 1831 130.5 L 1862 130.5 M 2053 130.5 L 2084 130.5 M 31 132.4 L 63.2 132.4 M 251.8 132.4 L 284 132.4 M 1831 132.4 L 1863.2 132.4 M 2051.8 132.4 L 2084 132.4 M 31 134.4 L 64.5 134.4 M 250.5 134.4 L 284 134.4 M 1831 134.4 L 1864.5 134.4 M 2050.5 134.4 L 2084 134.4 M 31 136.4 L 65.7 136.4 M 249.3 136.4 L 284 136.4 M 1831 136.4 L 1865.7 136.4 M 2049.3 136.4 L 2084 136.4 M 31 138.3 L 66.9 138.3 M 248.1 138.3 L 284 138.3 M 1831 138.3 L 1866.9 138.3 M 2048.1 138.3 L 2084 138.3 M 31 140.3 L 68.5 140.3 M 246.5 140.3 L 284 140.3 M 1831 140.3 L 1868.5 140.3 M 2046.5 140.3 L 2084 140.3 M 31 142.2 L 70.5 142.2 M 244.5 142.2 L 284 142.2 M 1831 142.2 L 1870.5 142.2 M 2044.5 142.2 L 2084 142.2 M 31 144.2 L 72.4 144.2 M 242.6 144.2 L 284 144.2 M 1831 144.2 L 1872.4 144.2 M 2042.6 144.2 L 2084 144.2 M 31 146.1 L 74.4 146.1 M 240.6 146.1 L 284 146.1 M 1831 146.1 L 1874.4 146.1 M 2040.6 146.1 L 2084 146.1 M 31 148.1 L 76.7 148.1 M 238.3 148.1 L 284 148.1 M 1831 148.1 L 1876.7 148.1 M 2038.3 148.1 L 2084 148.1 M 31 150 L 79.8 150 M 235.2 150 L 284 150 M 1831 150 L 1879.8 150 M 2035.2 150 L 2084 150 M 31 151.9 L 82.9 151.9 M 232.1 151.9 L 284 151.9 M 1831 151.9 L 1882.9 151.9 M 2032.1 151.9 L 2084 151.9 M 31 153.9 L 86.5 153.9 M 228.5 153.9 L 284 153.9 M 1831 153.9 L 1886.5 153.9 M 2028.5 153.9 L 2084 153.9 M 31 155.8 L 91.8 155.8 M 223.2 155.8 L 284 155.8 M 1831 155.8 L 1891.8 155.8 M 2023.2 155.8 L 2084 155.8 M 31 157.8 L 91.8 157.8 M 223.2 157.8 L 284 157.8 M 1831 157.8 L 1891.8 157.8 M 2023.2 157.8 L 2084 157.8 M 31 159.7 L 90.4 159.7 M 224.6 159.7 L 284 159.7 M 1831 159.7 L 1890.4 159.7 M 2024.6 159.7 L 2084 159.7 M 31 161.7 L 85.1 161.7 M 229.9 161.7 L 284 161.7 M 1831 161.7 L 1885.1 161.7 M 2029.9 161.7 L 2084 161.7 M 31 163.6 L 81.9 163.6 M 233.1 163.6 L 284 163.6 M 1831 163.6 L 1881.9 163.6 M 2033.1 163.6 L 2084 163.6 M 31 165.6 L 78.8 165.6 M 236.2 165.6 L 284 165.6 M 1831 165.6 L 1878.8 165.6 M 2036.2 165.6 L 2084 165.6 M 31 167.5 L 75.8 167.5 M 239.2 167.5 L 284 167.5 M 1831 167.5 L 1875.8 167.5 M 2039.2 167.5 L 2084 167.5 M 31 169.5 L 73.8 169.5 M 241.2 169.5 L 284 169.5 M 1831 169.5 L 1873.8 169.5 M 2041.2 169.5 L 2084 169.5 M 31 171.4 L 71.8 171.4 M 243.2 171.4 L 284 171.4 M 1831 171.4 L 1871.8 171.4 M 2043.2 171.4 L 2084 171.4 M 31 173.4 L 69.9 173.4 M 245.1 173.4 L 284 173.4 M 1831 173.4 L 1869.9 173.4 M 2045.1 173.4 L 2084 173.4 M 31 175.3 L 67.9 175.3 M 247.1 175.3 L 284 175.3 M 1831 175.3 L 1867.9 175.3 M 2047.1 175.3 L 2084 175.3 M 31 177.3 L 66.6 177.3 M 248.4 177.3 L 284 177.3 M 1831 177.3 L 1866.6 177.3 M 2048.4 177.3 L 2084 177.3 M 31 179.2 L 65.3 179.2 M 249.7 179.2 L 284 179.2 M 1831 179.2 L 1865.3 179.2 M 2049.7 179.2 L 2084 179.2 M 31 181.2 L 64.1 181.2 M 250.9 181.2 L 284 181.2 M 1831 181.2 L 1864.1 181.2 M 2050.9 181.2 L 2084 181.2 M 31 183.1 L 62.9 183.1 M 252.1 183.1 L 284 183.1 M 1831 183.1 L 1862.9 183.1 M 2052.1 183.1 L 2084 183.1 M 31 185.1 L 61.7 185.1 M 253.3 185.1 L 284 185.1 M 1831 185.1 L 1861.7 185.1 M 2053.3 185.1 L 2084 185.1 M 31 187 L 60.9 187 M 254.1 187 L 284 187 M 1831 187 L 1860.9 187 M 2054.1 187 L 2084 187 M 31 189 L 60.2 189 M 254.8 189 L 284 189 M 1831 189 L 1860.2 189 M 2054.8 189 L 2084 189 M 31 190.9 L 59.5 190.9 M 255.5 190.9 L 284 190.9 M 1831 190.9 L 1859.5 190.9 M 2055.5 190.9 L 2084 190.9 M 31 192.9 L 58.9 192.9 M 256.1 192.9 L 284 192.9 M 1831 192.9 L 1858.9 192.9 M 2056.1 192.9 L 2084 192.9 M 31 194.8 L 58.2 194.8 M 256.8 194.8 L 284 194.8 M 1831 194.8 L 1858.2 194.8 M 2056.8 194.8 L 2084 194.8 M 31 196.8 L 57.7 196.8 M 257.3 196.8 L 284 196.8 M 1831 196.8 L 1857.7 196.8 M 2057.3 196.8 L 2084 196.8 M 31 198.7 L 57.4 198.7 M 257.6 198.7 L 284 198.7 M 1831 198.7 L 1857.4 198.7 M 2057.6 198.7 L 2084 198.7 M 31 200.7 L 57.2 200.7 M 257.8 200.7 L 284 200.7 M 1831 200.7 L 1857.2 200.7 M 2057.8 200.7 L 2084 200.7 M 31 202.7 L 57 202.7 M 258 202.7 L 284 202.7 M 1831 202.7 L 1857 202.7 M 2058 202.7 L 2084 202.7 M 31 204.6 L 56.8 204.6 M 258.2 204.6 L 284 204.6 M 1831 204.6 L 1856.8 204.6 M 2058.2 204.6 L 2084 204.6 M 31 206.6 L 56.6 206.6 M 258.4 206.6 L 284 206.6 M 1831 206.6 L 1856.6 206.6 M 2058.4 206.6 L 2084 206.6 M 31 208.5 L 56.6 208.5 M 258.4 208.5 L 284 208.5 M 1831 208.5 L 1856.6 208.5 M 2058.4 208.5 L 2084 208.5 M 31 210.5 L 56.8 210.5 M 258.2 210.5 L 284 210.5 M 1831 210.5 L 1856.8 210.5 M 2058.2 210.5 L 2084 210.5 M 31 212.4 L 57 212.4 M 258 212.4 L 284 212.4 M 1831 212.4 L 1857 212.4 M 2058 212.4 L 2084 212.4 M 31 214.4 L 57.2 214.4 M 257.8 214.4 L 284 214.4 M 1831 214.4 L 1857.2 214.4 M 2057.8 214.4 L 2084 214.4 M 31 216.3 L 57.4 216.3 M 257.6 216.3 L 284 216.3 M 1831 216.3 L 1857.4 216.3 M 2057.6 216.3 L 2084 216.3 M 31 218.2 L 57.7 218.2 M 257.3 218.2 L 284 218.2 M 1831 218.2 L 1857.7 218.2 M 2057.3 218.2 L 2084 218.2 M 31 220.2 L 58.2 220.2 M 256.8 220.2 L 284 220.2 M 1831 220.2 L 1858.2 220.2 M 2056.8 220.2 L 2084 220.2 M 31 222.1 L 58.9 222.1 M 256.1 222.1 L 284 222.1 M 1831 222.1 L 1858.9 222.1 M 2056.1 222.1 L 2084 222.1 M 31 224.1 L 59.5 224.1 M 155.5 224.1 L 159.5 224.1 M 255.5 224.1 L 284 224.1 M 1831 224.1 L 1859.5 224.1 M 1955.5 224.1 L 1959.5 224.1 M 2055.5 224.1 L 2084 224.1 M 31 226 L 60.3 226 M 154.7 226 L 160.3 226 M 254.7 226 L 284 226 M 1831 226 L 1860.3 226 M 1954.7 226 L 1960.3 226 M 2054.7 226 L 2084 226 M 31 228 L 60.9 228 M 154.1 228 L 160.9 228 M 254.1 228 L 284 228 M 1831 228 L 1860.9 228 M 1954.1 228 L 1960.9 228 M 2054.1 228 L 2084 228 M 31 229.9 L 61.7 229.9 M 153.3 229.9 L 161.7 229.9 M 253.3 229.9 L 284 229.9 M 1831 229.9 L 1861.7 229.9 M 1953.3 229.9 L 1961.7 229.9 M 2053.3 229.9 L 2084 229.9 M 31 231.9 L 62.9 231.9 M 152.1 231.9 L 162.9 231.9 M 252.1 231.9 L 284 231.9 M 1831 231.9 L 1862.9 231.9 M 1952.1 231.9 L 1962.9 231.9 M 2052.1 231.9 L 2084 231.9 M 31 233.8 L 64.2 233.8 M 150.8 233.8 L 164.2 233.8 M 250.8 233.8 L 284 233.8 M 1831 233.8 L 1864.2 233.8 M 1950.8 233.8 L 1964.2 233.8 M 2050.8 233.8 L 2084 233.8 M 31 235.8 L 65.4 235.8 M 149.6 235.8 L 165.4 235.8 M 249.6 235.8 L 284 235.8 M 1831 235.8 L 1865.4 235.8 M 1949.6 235.8 L 1965.4 235.8 M 2049.6 235.8 L 2084 235.8 M 31 237.7 L 66.6 237.7 M 148.4 237.7 L 166.6 237.7 M 248.4 237.7 L 284 237.7 M 1831 237.7 L 1866.6 237.7 M 1948.4 237.7 L 1966.6 237.7 M 2048.4 237.7 L 2084 237.7 M 31 239.7 L 67.9 239.7 M 147.1 239.7 L 167.9 239.7 M 199.5 239.7 L 215.5 239.7 M 247.1 239.7 L 284 239.7 M 1831 239.7 L 1867.9 239.7 M 1947.1 239.7 L 1967.9 239.7 M 1999.5 239.7 L 2015.5 239.7 M 2047.1 239.7 L 2084 239.7 M 31 241.6 L 69.9 241.6 M 145.1 241.6 L 169.9 241.6 M 199.5 241.6 L 215.5 241.6 M 245.1 241.6 L 284 241.6 M 1831 241.6 L 1869.9 241.6 M 1945.1 241.6 L 1969.9 241.6 M 1999.5 241.6 L 2015.5 241.6 M 2045.1 241.6 L 2084 241.6 M 31 243.6 L 71.8 243.6 M 143.2 243.6 L 171.8 243.6 M 199.5 243.6 L 215.5 243.6 M 243.2 243.6 L 284 243.6 M 1831 243.6 L 1871.8 243.6 M 1943.2 243.6 L 1971.8 243.6 M 1999.5 243.6 L 2015.5 243.6 M 2043.2 243.6 L 2084 243.6 M 31 245.5 L 73.8 245.5 M 141.2 245.5 L 173.8 245.5 M 199.5 245.5 L 215.5 245.5 M 241.2 245.5 L 284 245.5 M 1831 245.5 L 1873.8 245.5 M 1941.2 245.5 L 1973.8 245.5 M 1999.5 245.5 L 2015.5 245.5 M 2041.2 245.5 L 2084 245.5 M 31 247.5 L 75.8 247.5 M 139.2 247.5 L 175.8 247.5 M 199.5 247.5 L 215.5 247.5 M 239.2 247.5 L 284 247.5 M 1831 247.5 L 1875.8 247.5 M 1939.2 247.5 L 1975.8 247.5 M 1999.5 247.5 L 2015.5 247.5 M 2039.2 247.5 L 2084 247.5 M 31 249.4 L 78.9 249.4 M 136.1 249.4 L 178.9 249.4 M 199.5 249.4 L 215.5 249.4 M 236.1 249.4 L 284 249.4 M 1831 249.4 L 1878.9 249.4 M 1936.1 249.4 L 1978.9 249.4 M 1999.5 249.4 L 2015.5 249.4 M 2036.1 249.4 L 2084 249.4 M 31 251.4 L 82 251.4 M 133 251.4 L 182 251.4 M 199.5 251.4 L 215.5 251.4 M 233 251.4 L 284 251.4 M 1831 251.4 L 1882 251.4 M 1933 251.4 L 1982 251.4 M 1999.5 251.4 L 2015.5 251.4 M 2033 251.4 L 2084 251.4 M 31 253.3 L 85.1 253.3 M 129.9 253.3 L 185.1 253.3 M 199.5 253.3 L 215.5 253.3 M 229.9 253.3 L 284 253.3 M 1831 253.3 L 1885.1 253.3 M 1929.9 253.3 L 1985.1 253.3 M 1999.5 253.3 L 2015.5 253.3 M 2029.9 253.3 L 2084 253.3 M 31 255.3 L 90.5 255.3 M 124.5 255.3 L 190.5 255.3 M 199.5 255.3 L 215.5 255.3 M 224.5 255.3 L 284 255.3 M 1831 255.3 L 1890.5 255.3 M 1924.5 255.3 L 1990.5 255.3 M 1999.5 255.3 L 2015.5 255.3 M 2024.5 255.3 L 2084 255.3 M 31 257.2 L 96 257.2 M 119 257.2 L 196 257.2 M 199.5 257.2 L 215.5 257.2 M 219 257.2 L 284 257.2 M 1831 257.2 L 1896 257.2 M 1919 257.2 L 1996 257.2 M 1999.5 257.2 L 2015.5 257.2 M 2019 257.2 L 2084 257.2 M 31 259.2 L 284 259.2 M 1831 259.2 L 2084 259.2 M 31 261.1 L 284 261.1 M 1831 261.1 L 2084 261.1 M 31 263.1 L 284 263.1 M 1831 263.1 L 2084 263.1 M 31 265.1 L 284 265.1 M 1831 265.1 L 2084 265.1 M 31 267 L 284 267 M 1831 267 L 2084 267 M 31 269 L 284 269 M 1831 269 L 2084 269 M 31 270.9 L 284 270.9 M 1831 270.9 L 2084 270.9 M 31 272.9 L 284 272.9 M 1831 272.9 L 2084 272.9 M 31 274.8 L 284 274.8 M 1831 274.8 L 2084 274.8 M 31 276.8 L 284 276.8 M 1831 276.8 L 2084 276.8 M 31 278.7 L 284 278.7 M 1831 278.7 L 2084 278.7 M 31 280.6 L 284 280.6 M 1831 280.6 L 2084 280.6 M 31 282.6 L 284 282.6 M 1831 282.6 L 2084 282.6 M 31 284.5 L 284 284.5 M 1831 284.5 L 2084 284.5 M 31 286.5 L 284 286.5 M 1831 286.5 L 2084 286.5 M 31 288.4 L 284 288.4 M 1831 288.4 L 2084 288.4 M 31 290.4 L 284 290.4 M 1831 290.4 L 2084 290.4 M 31 292.3 L 284 292.3 M 1831 292.3 L 2084 292.3 M 31 294.3 L 284 294.3 M 1831 294.3 L 2084 294.3 M 31 296.2 L 284 296.2 M 1831 296.2 L 2084 296.2 M 31 298.2 L 284 298.2 M 1831 298.2 L 2084 298.2 M 31 300.1 L 284 300.1 M 1831 300.1 L 2084 300.1 M 31 302.1 L 284 302.1 M 1831 302.1 L 2084 302.1 M 31 304 L 284 304 M 1831 304 L 2084 304 M 31 306 L 284 306 M 1831 306 L 2084 306 M 31 307.9 L 284 307.9 M 1831 307.9 L 2084 307.9 M 31 309.9 L 284 309.9 M 1831 309.9 L 2084 309.9 M 31 311.8 L 284 311.8 M 1831 311.8 L 2084 311.8 M 31 313.8 L 284 313.8 M 1831 313.8 L 2084 313.8 M 31 315.7 L 284 315.7 M 1831 315.7 L 2084 315.7 M 31 317.7 L 284 317.7 M 1831 317.7 L 2084 317.7 M 31 319.6 L 284 319.6 M 1831 319.6 L 2084 319.6 M 31 321.6 L 284 321.6 M 1831 321.6 L 2084 321.6 M 31 323.5 L 284 323.5 M 1831 323.5 L 2084 323.5 M 31 325.5 L 284 325.5 M 1831 325.5 L 2084 325.5 M 31 327.4 L 284 327.4 M 1831 327.4 L 2084 327.4 M 31 329.4 L 284 329.4 M 1831 329.4 L 2084 329.4 M 31 331.4 L 284 331.4 M 1831 331.4 L 2084 331.4 M 31 333.3 L 284 333.3 M 1831 333.3 L 2084 333.3 M 31 335.3 L 284 335.3 M 1831 335.3 L 2084 335.3 M 31 337.2 L 284 337.2 M 1831 337.2 L 2084 337.2 M 31 339.2 L 284 339.2 M 1831 339.2 L 2084 339.2 M 31 341.1 L 284 341.1 M 1831 341.1 L 2084 341.1 M 31 343.1 L 284 343.1 M 1831 343.1 L 2084 343.1 M 31 345 L 284 345 M 1831 345 L 2084 345 M 31 346.9 L 284 346.9 M 1831 346.9 L 2084 346.9 M 31 348.9 L 284 348.9 M 1831 348.9 L 2084 348.9 M 31 350.8 L 284 350.8 M 1831 350.8 L 2084 350.8 M 31 352.8 L 284 352.8 M 1831 352.8 L 2084 352.8 M 31 354.7 L 284 354.7 M 1831 354.7 L 2084 354.7 M 31 356.7 L 284 356.7 M 1831 356.7 L 2084 356.7 M 31 358.6 L 284 358.6 M 1831 358.6 L 2084 358.6 M 31 360.6 L 284 360.6 M 1831 360.6 L 2084 360.6 M 31 362.5 L 284 362.5 M 1831 362.5 L 2084 362.5 M 31 364.5 L 284 364.5 M 1831 364.5 L 2084 364.5 M 31 366.4 L 284 366.4 M 1831 366.4 L 2084 366.4 M 31 368.4 L 284 368.4 M 1831 368.4 L 2084 368.4 M 31 370.3 L 284 370.3 M 1831 370.3 L 2084 370.3 M 31 372.3 L 284 372.3 M 1831 372.3 L 2084 372.3 M 31 374.2 L 284 374.2 M 1831 374.2 L 2084 374.2 M 31 376.2 L 284 376.2 M 1831 376.2 L 2084 376.2 M 31 378.1 L 284 378.1 M 1831 378.1 L 2084 378.1 M 31 380.1 L 284 380.1 M 1831 380.1 L 2084 380.1 M 31 382 L 284 382 M 1831 382 L 2084 382 M 31 384 L 284 384 M 1831 384 L 2084 384 M 31 385.9 L 284 385.9 M 1831 385.9 L 2084 385.9 M 31 387.9 L 284 387.9 M 1831 387.9 L 2084 387.9 M 31 389.8 L 284 389.8 M 1831 389.8 L 2084 389.8 M 31 391.8 L 284 391.8 M 1831 391.8 L 2084 391.8 M 31 393.7 L 284 393.7 M 1831 393.7 L 2084 393.7 M 31 395.7 L 284 395.7 M 1831 395.7 L 2084 395.7 M 31 397.7 L 284 397.7 M 1831 397.7 L 2084 397.7 M 31 399.6 L 284 399.6 M 1831 399.6 L 2084 399.6 M 31 401.6 L 284 401.6 M 1831 401.6 L 2084 401.6 M 31 403.5 L 284 403.5 M 1831 403.5 L 2084 403.5 M 31 405.5 L 284 405.5 M 1831 405.5 L 2084 405.5 M 31 407.4 L 284 407.4 M 1831 407.4 L 2084 407.4 M 31 409.4 L 284 409.4 M 1831 409.4 L 2084 409.4 M 31 411.3 L 284 411.3 M 1831 411.3 L 2084 411.3 M 31 413.2 L 284 413.2 M 1831 413.2 L 2084 413.2 M 31 415.2 L 284 415.2 M 1831 415.2 L 2084 415.2 M 31 417.1 L 284 417.1 M 1831 417.1 L 2084 417.1 M 31 419.1 L 284 419.1 M 1831 419.1 L 2084 419.1 M 31 421 L 284 421 M 1831 421 L 2084 421 M 31 423 L 284 423 M 1831 423 L 2084 423 M 31 424.9 L 284 424.9 M 1831 424.9 L 2084 424.9 M 31 426.9 L 284 426.9 M 1831 426.9 L 2084 426.9 M 31 428.8 L 284 428.8 M 1831 428.8 L 2084 428.8 M 31 430.8 L 284 430.8 M 1831 430.8 L 2084 430.8 M 31 432.7 L 284 432.7 M 1831 432.7 L 2084 432.7 M 31 434.7 L 284 434.7 M 1831 434.7 L 2084 434.7 M 31 436.6 L 284 436.6 M 1831 436.6 L 2084 436.6 M 31 438.6 L 284 438.6 M 1831 438.6 L 2084 438.6 M 31 440.5 L 284 440.5 M 1831 440.5 L 2084 440.5 M 31 442.5 L 284 442.5 M 1831 442.5 L 2084 442.5 M 31 444.4 L 284 444.4 M 1831 444.4 L 2084 444.4 M 31 446.4 L 284 446.4 M 1831 446.4 L 2084 446.4 M 31 448.3 L 284 448.3 M 1831 448.3 L 2084 448.3 M 31 450.3 L 284 450.3 M 1831 450.3 L 2084 450.3 M 31 452.2 L 284 452.2 M 1831 452.2 L 2084 452.2 M 31 454.2 L 284 454.2 M 1831 454.2 L 2084 454.2 M 31 456.1 L 284 456.1 M 1831 456.1 L 2084 456.1 M 31 458.1 L 284 458.1 M 1831 458.1 L 2084 458.1 M 31 460.1 L 284 460.1 M 1831 460.1 L 2084 460.1 M 31 462 L 284 462 M 1831 462 L 2084 462 M 31 464 L 284 464 M 1831 464 L 2084 464 M 31 465.9 L 284 465.9 M 1831 465.9 L 2084 465.9 M 31 467.9 L 284 467.9 M 1831 467.9 L 2084 467.9 M 31 469.8 L 284 469.8 M 1831 469.8 L 2084 469.8 M 31 471.8 L 284 471.8 M 1831 471.8 L 2084 471.8 M 31 473.7 L 284 473.7 M 1831 473.7 L 2084 473.7 M 31 475.6 L 284 475.6 M 1831 475.6 L 2084 475.6 M 31 477.6 L 284 477.6 M 1831 477.6 L 2084 477.6 M 31 479.5 L 284 479.5 M 1831 479.5 L 2084 479.5 M 31 481.5 L 284 481.5 M 1831 481.5 L 2084 481.5 M 31 483.4 L 284 483.4 M 1831 483.4 L 2084 483.4 M 31 485.4 L 284 485.4 M 1831 485.4 L 2084 485.4 M 31 487.3 L 284 487.3 M 1831 487.3 L 2084 487.3 M 31 489.3 L 284 489.3 M 1831 489.3 L 2084 489.3 M 31 491.2 L 284 491.2 M 1831 491.2 L 2084 491.2 M 31 493.2 L 284 493.2 M 1831 493.2 L 2084 493.2 M 31 495.1 L 284 495.1 M 1831 495.1 L 2084 495.1 M 31 497.1 L 284 497.1 M 1831 497.1 L 2084 497.1 M 31 499 L 284 499 M 1831 499 L 2084 499 M 31 501 L 284 501 M 1831 501 L 2084 501 M 31 502.9 L 284 502.9 M 1831 502.9 L 2084 502.9 M 31.4 504.9 L 284 504.9 M 1831 504.9 L 2083.6 504.9 M 32.1 506.8 L 284 506.8 M 1831 506.8 L 2082.9 506.8 M 32.7 508.8 L 284.1 508.8 M 1830.9 508.8 L 2082.3 508.8 M 33.4 510.7 L 284.3 510.7 M 1830.7 510.7 L 2081.6 510.7 M 34 512.7 L 284.6 512.7 M 1830.4 512.7 L 2081 512.7 M 34.7 514.6 L 285.2 514.6 M 1829.8 514.6 L 2080.3 514.6 M 35.3 516.6 L 285.8 516.6 M 1829.2 516.6 L 2079.7 516.6 M 36 518.5 L 286.8 518.5 M 1828.2 518.5 L 2079 518.5 M 36.6 520.5 L 287.9 520.5 M 1827.1 520.5 L 2078.4 520.5 M 37.3 522.4 L 289.5 522.4 M 1825.5 522.4 L 2077.7 522.4 M 37.9 524.4 L 291.2 524.4 M 1823.8 524.4 L 2077.1 524.4 M 38.6 526.4 L 293.5 526.4 M 1821.5 526.4 L 2076.4 526.4 M 39.2 528.3 L 296.7 528.3 M 1818.3 528.3 L 2075.8 528.3 M 39.9 530.3 L 301.8 530.3 M 1813.2 530.3 L 2075.1 530.3 M 40.5 532.2 L 2074.5 532.2 M 41.2 534.2 L 2073.8 534.2 M 41.8 536.1 L 2073.2 536.1 M 42.5 538.1 L 2072.5 538.1 M 43.1 540 L 2071.9 540 M 43.8 541.9 L 2071.2 541.9 M 44.4 543.9 L 2070.6 543.9 M 45.1 545.8 L 2069.9 545.8 M 45.7 547.8 L 2069.3 547.8 M 46.4 549.7 L 2068.6 549.7 M 47 551.7 L 2068 551.7 M 47.7 553.6 L 2067.3 553.6 M 48.3 555.6 L 2066.7 555.6 M 49 557.5 L 2066 557.5 M 49.6 559.5 L 2065.4 559.5 M 50.3 561.4 L 2064.7 561.4 M 50.9 563.4 L 2064.1 563.4 M 51.6 565.3 L 2063.4 565.3 M 52.2 567.3 L 2062.8 567.3 M 52.9 569.2 L 2062.1 569.2 M 53.5 571.2 L 2061.5 571.2 M 54.2 573.1 L 2060.8 573.1 M 54.9 575.1 L 2060.2 575.1 M 55.5 577 L 2059.5 577 M 56.2 579 L 2058.8 579 M 56.8 580.9 L 2058.2 580.9 M 57.5 582.9 L 2057.5 582.9 M 58.1 584.8 L 2056.9 584.8 M 58.8 586.8 L 2056.2 586.8 M 59.4 588.7 L 2055.6 588.7 M 60.1 590.7 L 2054.9 590.7 M 60.7 592.7 L 2054.3 592.7 M 61.4 594.6 L 2053.6 594.6 M 62 596.6 L 2053 596.6 M 62.7 598.5 L 2052.3 598.5 M 63.3 600.5 L 2051.7 600.5 M 64 602.4 L 916.7 602.4 M 1001.4 602.4 L 2051 602.4 M 64.6 604.4 L 911.6 604.4 M 1006.6 604.4 L 2050.4 604.4 M 65.3 606.3 L 908.9 606.3 M 1009.2 606.3 L 2049.7 606.3 M 65.9 608.2 L 907.1 608.2 M 1011 608.2 L 2049.1 608.2 M 66.6 610.2 L 905.8 610.2 M 1012.3 610.2 L 2048.4 610.2 M 67.2 612.1 L 904.9 612.1 M 1013.3 612.1 L 2047.8 612.1 M 67.9 614.1 L 904.2 614.1 M 1013.9 614.1 L 2047.1 614.1 M 68.5 616 L 903.8 616 M 1014.3 616 L 2046.5 616 M 69.2 618 L 903.7 618 M 1014.5 618 L 2045.8 618 M 69.8 619.9 L 903.6 619.9 M 1014.5 619.9 L 2045.2 619.9 M 70.5 621.9 L 903.6 621.9 M 1014.5 621.9 L 2044.5 621.9 M 71.1 623.8 L 903.6 623.8 M 1014.5 623.8 L 2043.9 623.8 M 71.8 625.8 L 903.6 625.8 M 1014.5 625.8 L 2043.2 625.8 M 72.4 627.7 L 903.6 627.7 M 1014.5 627.7 L 2042.6 627.7 M 73.1 629.7 L 903.6 629.7 M 1014.5 629.7 L 2041.9 629.7 M 73.7 631.6 L 903.6 631.6 M 1014.5 631.6 L 2041.3 631.6 M 74.4 633.6 L 903.6 633.6 M 1014.5 633.6 L 2040.6 633.6 M 75 635.5 L 903.6 635.5 M 1014.5 635.5 L 2040 635.5 M 75.6 637.5 L 903.6 637.5 M 1014.5 637.5 L 2039.4 637.5 M 76.3 639.4 L 903.6 639.4 M 1014.5 639.4 L 2038.7 639.4 M 76.9 641.4 L 903.6 641.4 M 1014.5 641.4 L 2038.1 641.4 M 77.6 643.3 L 903.6 643.3 M 1014.5 643.3 L 2037.4 643.3 M 78.2 645.3 L 903.6 645.3 M 1014.5 645.3 L 2036.8 645.3 M 78.9 647.2 L 903.6 647.2 M 1014.5 647.2 L 2036.1 647.2 M 79.5 649.2 L 903.6 649.2 M 1014.5 649.2 L 2035.5 649.2 M 80.2 651.1 L 903.6 651.1 M 1014.5 651.1 L 2034.8 651.1 M 80.8 653.1 L 903.6 653.1 M 1014.5 653.1 L 2034.2 653.1 M 81.5 655.1 L 903.6 655.1 M 1014.5 655.1 L 2033.5 655.1 M 82.1 657 L 903.6 657 M 1014.5 657 L 2032.9 657 M 82.8 659 L 903.6 659 M 1014.5 659 L 2032.2 659 M 83.4 660.9 L 903.6 660.9 M 1014.5 660.9 L 2031.6 660.9 M 84.1 662.9 L 903.6 662.9 M 1014.5 662.9 L 2030.9 662.9 M 84.7 664.8 L 903.6 664.8 M 1014.5 664.8 L 2030.3 664.8 M 85.4 666.8 L 903.6 666.8 M 1014.5 666.8 L 2029.6 666.8 M 86 668.7 L 903.6 668.7 M 1014.5 668.7 L 2029 668.7 M 86.7 670.6 L 903.6 670.6 M 1014.5 670.6 L 2028.3 670.6 M 87.3 672.6 L 903.6 672.6 M 1014.5 672.6 L 2027.7 672.6 M 88 674.5 L 903.6 674.5 M 1014.5 674.5 L 2027 674.5 M 88.6 676.5 L 903.6 676.5 M 1014.5 676.5 L 2026.4 676.5 M 89.3 678.4 L 903.6 678.4 M 1014.5 678.4 L 2025.7 678.4 M 89.9 680.4 L 903.6 680.4 M 1014.5 680.4 L 2025.1 680.4 M 90.6 682.3 L 903.6 682.3 M 1014.5 682.3 L 2024.4 682.3 M 91.2 684.3 L 903.6 684.3 M 1014.5 684.3 L 2023.8 684.3 M 91.9 686.2 L 903.6 686.2 M 1014.5 686.2 L 2023.1 686.2 M 92.5 688.2 L 903.6 688.2 M 1014.5 688.2 L 2022.5 688.2 M 93.2 690.1 L 903.6 690.1 M 1014.5 690.1 L 2021.8 690.1 M 93.8 692.1 L 903.6 692.1 M 1014.5 692.1 L 2021.2 692.1 M 94.5 694 L 903.6 694 M 1014.5 694 L 2020.5 694 M 95.1 696 L 903.6 696 M 1014.5 696 L 2019.9 696 M 95.8 697.9 L 903.7 697.9 M 1014.4 697.9 L 2019.2 697.9 M 96.4 699.9 L 904 699.9 M 1014.2 699.9 L 2018.6 699.9 M 97.1 701.8 L 904.4 701.8 M 1013.7 701.8 L 2017.9 701.8 M 97.7 703.8 L 905.3 703.8 M 1012.9 703.8 L 2017.3 703.8 M 98.4 705.7 L 906.4 705.7 M 1011.8 705.7 L 2016.6 705.7 M 99 707.7 L 907.9 707.7 M 1010.3 707.7 L 2016 707.7 M 99.7 709.6 L 910 709.6 M 1008.1 709.6 L 2015.3 709.6 M 100.3 711.6 L 913.4 711.6 M 1004.7 711.6 L 2014.7 711.6 M 101 713.5 L 2014 713.5 M 101.6 715.5 L 2013.4 715.5 M 102.3 717.4 L 2012.7 717.4 M 102.9 719.4 L 2012.1 719.4 M 103.6 721.4 L 2011.4 721.4 M 104.2 723.3 L 2010.8 723.3 M 104.9 725.3 L 2010.1 725.3 M 105.5 727.2 L 2009.5 727.2 M 106.2 729.2 L 2008.8 729.2 M 106.8 731.1 L 2008.2 731.1 M 107.5 733.1 L 2007.5 733.1 M 108.1 735 L 2006.9 735 M 108.8 736.9 L 2006.2 736.9 M 109.4 738.9 L 2005.6 738.9 M 110.1 740.8 L 2004.9 740.8 M 110.7 742.8 L 2004.3 742.8 M 111.4 744.7 L 2003.6 744.7 M 112 746.7 L 2003 746.7 M 112.7 748.6 L 2002.3 748.6 M 113.3 750.6 L 2001.7 750.6 M 114 752.5 L 2001 752.5 M 114.6 754.5 L 2000.4 754.5 M 115.3 756.4 L 1999.7 756.4 M 115.9 758.4 L 1999.1 758.4 M 116.6 760.3 L 1998.4 760.3 M 117.2 762.3 L 1997.8 762.3 M 117.9 764.2 L 1997.1 764.2 M 118.5 766.2 L 1996.5 766.2 M 119.2 768.1 L 1995.8 768.1 M 119.9 770.1 L 1995.2 770.1 M 120.5 772 L 1994.5 772 M 121.2 774 L 1993.8 774 M 121.8 775.9 L 1993.2 775.9 M 122.5 777.9 L 1992.5 777.9 M 123.1 779.8 L 1991.9 779.8 M 123.8 781.8 L 1991.2 781.8 M 124.4 783.7 L 1990.6 783.7 M 1959.3 123.2 L 1959.3 123.2 M 1959.3 123.2 L 1961.5 129.7 M 1961.5 129.7 L 1961.5 129.7 M 1961.5 129.7 L 1967.6 139.3 M 1967.6 139.3 L 1967.6 139.3 M 1967.6 139.3 L 1975.7 147.4 M 1975.7 147.4 L 1975.7 147.4 M 1975.7 147.4 L 1985.3 153.5 M 1985.3 153.5 L 1985.3 153.5 M 1985.3 153.5 L 1991.8 155.7 M 1991.8 155.7 L 1991.8 159.3 M 1991.8 159.3 L 1985.3 161.5 M 1985.3 161.5 L 1985.3 161.5 M 1985.3 161.5 L 1975.7 167.6 M 1975.7 167.6 L 1975.7 167.6 M 1975.7 167.6 L 1967.6 175.7 M 1967.6 175.7 L 1967.6 175.7 M 1967.6 175.7 L 1961.5 185.3 M 1961.5 185.3 L 1961.5 185.3 M 1961.5 185.3 L 1959.3 191.8 M 1959.3 191.8 L 1955.7 191.8 M 1955.7 191.8 L 1953.5 185.3 M 1953.5 185.3 L 1953.5 185.3 M 1953.5 185.3 L 1947.4 175.7 M 1947.4 175.7 L 1947.4 175.7 M 1947.4 175.7 L 1939.3 167.6 M 1939.3 167.6 L 1939.3 167.6 M 1939.3 167.6 L 1929.7 161.5 M 1929.7 161.5 L 1929.7 161.5 M 1929.7 161.5 L 1923.2 159.3 M 1923.2 159.3 L 1923.2 155.7 M 1923.2 155.7 L 1929.7 153.5 M 1929.7 153.5 L 1929.7 153.5 M 1929.7 153.5 L 1939.3 147.4 M 1939.3 147.4 L 1939.3 147.4 M 1939.3 147.4 L 1947.4 139.3 M 1947.4 139.3 L 1947.4 139.3 M 1947.4 139.3 L 1953.5 129.7 M 1953.5 129.7 L 1953.5 129.7 M 1953.5 129.7 L 1955.7 123.2 M 1955.7 123.2 L 1959.3 123.2 M 1955.1 125.2 L 1959.9 125.2 M 1954.4 127.1 L 1960.6 127.1 M 1953.7 129.1 L 1961.3 129.1 M 1952.6 131 L 1962.4 131 M 1951.4 133 L 1963.6 133 M 1950.2 134.9 L 1964.8 134.9 M 1948.9 136.9 L 1966.1 136.9 M 1947.7 138.8 L 1967.3 138.8 M 1945.9 140.8 L 1969.1 140.8 M 1944 142.7 L 1971 142.7 M 1942 144.7 L 1973 144.7 M 1940.1 146.6 L 1974.9 146.6 M 1937.4 148.6 L 1977.6 148.6 M 1934.4 150.5 L 1980.6 150.5 M 1931.2 152.5 L 1983.8 152.5 M 1926.9 154.4 L 1988.1 154.4 M 1923.2 156.4 L 1991.8 156.4 M 1923.2 158.3 L 1991.8 158.3 M 1926.2 160.3 L 1988.8 160.3 M 1930.8 162.2 L 1984.2 162.2 M 1933.9 164.2 L 1981.1 164.2 M 1937 166.1 L 1978 166.1 M 1939.8 168.1 L 1975.2 168.1 M 1941.8 170.1 L 1973.2 170.1 M 1943.7 172 L 1971.3 172 M 1945.6 174 L 1969.4 174 M 1947.5 175.9 L 1967.5 175.9 M 1948.8 177.9 L 1966.2 177.9 M 1950 179.8 L 1965 179.8 M 1951.2 181.8 L 1963.8 181.8 M 1952.4 183.7 L 1962.6 183.7 M 1953.6 185.6 L 1961.4 185.6 M 1954.3 187.6 L 1960.7 187.6 M 1954.9 189.5 L 1960.1 189.5 M 1955.6 191.5 L 1959.4 191.5 M 159.3 123.2 L 159.3 123.2 M 159.3 123.2 L 161.5 129.7 M 161.5 129.7 L 161.5 129.7 M 161.5 129.7 L 167.6 139.3 M 167.6 139.3 L 167.6 139.3 M 167.6 139.3 L 175.7 147.4 M 175.7 147.4 L 175.7 147.4 M 175.7 147.4 L 185.3 153.5 M 185.3 153.5 L 185.3 153.5 M 185.3 153.5 L 191.8 155.7 M 191.8 155.7 L 191.8 159.3 M 191.8 159.3 L 185.3 161.5 M 185.3 161.5 L 185.3 161.5 M 185.3 161.5 L 175.7 167.6 M 175.7 167.6 L 175.7 167.6 M 175.7 167.6 L 167.6 175.7 M 167.6 175.7 L 167.6 175.7 M 167.6 175.7 L 161.5 185.3 M 161.5 185.3 L 161.5 185.3 M 161.5 185.3 L 159.3 191.8 M 159.3 191.8 L 155.7 191.8 M 155.7 191.8 L 153.5 185.3 M 153.5 185.3 L 153.5 185.3 M 153.5 185.3 L 147.4 175.7 M 147.4 175.7 L 147.4 175.7 M 147.4 175.7 L 139.3 167.6 M 139.3 167.6 L 139.3 167.6 M 139.3 167.6 L 129.7 161.5 M 129.7 161.5 L 129.7 161.5 M 129.7 161.5 L 123.2 159.3 M 123.2 159.3 L 123.2 155.7 M 123.2 155.7 L 129.7 153.5 M 129.7 153.5 L 129.7 153.5 M 129.7 153.5 L 139.3 147.4 M 139.3 147.4 L 139.3 147.4 M 139.3 147.4 L 147.4 139.3 M 147.4 139.3 L 147.4 139.3 M 147.4 139.3 L 153.5 129.7 M 153.5 129.7 L 153.5 129.7 M 153.5 129.7 L 155.7 123.2 M 155.7 123.2 L 159.3 123.2 M 155.1 125.2 L 159.9 125.2 M 154.4 127.1 L 160.6 127.1 M 153.7 129.1 L 161.3 129.1 M 152.6 131 L 162.4 131 M 151.4 133 L 163.6 133 M 150.2 134.9 L 164.8 134.9 M 148.9 136.9 L 166.1 136.9 M 147.7 138.8 L 167.3 138.8 M 145.9 140.8 L 169.1 140.8 M 144 142.7 L 171 142.7 M 142 144.7 L 173 144.7 M 140.1 146.6 L 174.9 146.6 M 137.4 148.6 L 177.6 148.6 M 134.4 150.5 L 180.6 150.5 M 131.2 152.5 L 183.8 152.5 M 126.9 154.4 L 188.1 154.4 M 123.2 156.4 L 191.8 156.4 M 123.2 158.3 L 191.8 158.3 M 126.2 160.3 L 188.8 160.3 M 130.8 162.2 L 184.2 162.2 M 133.9 164.2 L 181.1 164.2 M 137 166.1 L 178 166.1 M 139.8 168.1 L 175.2 168.1 M 141.8 170.1 L 173.2 170.1 M 143.7 172 L 171.3 172 M 145.6 174 L 169.4 174 M 147.5 175.9 L 167.5 175.9 M 148.8 177.9 L 166.2 177.9 M 150 179.8 L 165 179.8 M 151.2 181.8 L 163.8 181.8 M 152.4 183.7 L 162.6 183.7 M 153.6 185.6 L 161.4 185.6 M 154.3 187.6 L 160.7 187.6 M 154.9 189.5 L 160.1 189.5 M 155.6 191.5 L 159.4 191.5"/><use x="959.1" y="657.5" xlink:href="#tool-D11-pad-1010"/><use x="1155.9" y="657.5" xlink:href="#tool-D12-pad-1011"/><use x="107.5" y="207.5" xlink:href="#tool-D13-pad-1012"/><use x="107.5" y="107.5" xlink:href="#tool-D13-pad-1012"/><use x="207.5" y="207.5" xlink:href="#tool-D13-pad-1012"/><use x="207.5" y="107.5" xlink:href="#tool-D13-pad-1012"/><use x="1907.5" y="207.5" xlink:href="#tool-D13-pad-1012"/><use x="1907.5" y="107.5" xlink:href="#tool-D13-pad-1012"/><use x="2007.5" y="207.5" xlink:href="#tool-D13-pad-1012"/><use x="2007.5" y="107.5" xlink:href="#tool-D13-pad-1012"/></g><mask id="pcb_top_mech-mask" fill="#fff" stroke="#fff" fill-rule="evenodd"><path stroke-width="0" d="M 7.5 7.5 L 307.5 7.5 L 307.5 507.5 L 1807.5 507.5 L 1807.5 7.5 L 2107.5 7.5 L 2107.5 507.5 L 2007.5 807.5 L 107.5 807.5 L 7.5 507.5 Z"/><g id="pcb_top-drl" fill="#000" stroke="#000"><use x="959.1" y="657.5" xlink:href="#tool-T10-pad-1000"/><use x="1155.9" y="657.5" xlink:href="#tool-T10-pad-1000"/><use x="107.5" y="207.5" xlink:href="#tool-T11-pad-1001"/><use x="107.5" y="107.5" xlink:href="#tool-T11-pad-1001"/><use x="207.5" y="207.5" xlink:href="#tool-T11-pad-1001"/><use x="207.5" y="107.5" xlink:href="#tool-T11-pad-1001"/><use x="1907.5" y="207.5" xlink:href="#tool-T11-pad-1001"/><use x="1907.5" y="107.5" xlink:href="#tool-T11-pad-1001"/><use x="2007.5" y="207.5" xlink:href="#tool-T11-pad-1001"/><use x="2007.5" y="107.5" xlink:href="#tool-T11-pad-1001"/></g></mask></defs><g mask="url(#pcb_top_mech-mask)" transform="translate(0,815) scale(1,-1)"><rect x="7.5" y="7.5" width="2100" height="800" fill="currentColor" class="pcb_board-fr4"/><use class="pcb_board-cu" xlink:href="#pcb_top-cu"/><g><defs><g id="pcb_top-sm" fill="currentColor" stroke="currentColor"><use x="959.1" y="657.5" xlink:href="#tool-D10-pad-1016"/><use x="1155.9" y="657.5" xlink:href="#tool-D11-pad-1017"/><use x="107.5" y="207.5" xlink:href="#tool-D12-pad-1018"/><use x="107.5" y="107.5" xlink:href="#tool-D12-pad-1018"/><use x="207.5" y="207.5" xlink:href="#tool-D12-pad-1018"/><use x="207.5" y="107.5" xlink:href="#tool-D12-pad-1018"/><use x="1907.5" y="207.5" xlink:href="#tool-D12-pad-1018"/><use x="1907.5" y="107.5" xlink:href="#tool-D12-pad-1018"/><use x="2007.5" y="207.5" xlink:href="#tool-D12-pad-1018"/><use x="2007.5" y="107.5" xlink:href="#tool-D12-pad-1018"/></g><mask id="pcb_top-sm_mask" color="#000"><rect x="7.5" y="7.5" width="2100" height="800" fill="#fff"/><use xlink:href="#pcb_top-sm"/></mask><mask id="pcb_top-cu_finish-mask" color="#fff"><use xlink:href="#pcb_top-cu"/></mask></defs><g mask="url(#pcb_top-sm_mask)"><rect x="7.5" y="7.5" width="2100" height="800" fill="currentColor" class="pcb_board-sm"/><g id="pcb_top-ss" class="pcb_board-ss" fill="currentColor" stroke="currentColor"><path stroke-width="5.9" fill="none" d="M 852.7 488.2 L 852.7 815 M 852.7 826.8 M 1262.3 815 L 1262.3 488.2 M 1262.3 488.2 L 852.7 488.2"/><path d="M 59.5 59.5 L 255.5 59.5 L 255.5 255.5 L 59.5 255.5 L 59.5 59.5 Z"/><path d="M 39.5 39.5 L 275.5 39.5 L 275.5 275.5 L 39.5 275.5 L 39.5 39.5 Z"/><path d="M 1859.5 59.5 L 2055.5 59.5 L 2055.5 255.5 L 1859.5 255.5 L 1859.5 59.5 Z"/><path d="M 1839.5 39.5 L 2075.5 39.5 L 2075.5 275.5 L 1839.5 275.5 L 1839.5 39.5 Z"/><path stroke-width="8" fill="none" d="M 86.4 340.6 L 86.4 340.6 M 86.4 340.6 L 86.4 333.9 M 86.4 333.9 L 122.8 320.4 M 122.8 320.4 L 124.9 319.6 M 124.9 319.6 L 126.9 318.9 M 126.9 318.9 L 129 318.2 M 129 318.2 L 131 317.7 M 131 317.7 L 131 317.6 M 131 317.6 L 129 317.1 M 129 317.1 L 127 316.4 M 127 316.4 L 124.9 315.7 M 124.9 315.7 L 122.8 315 M 122.8 315 L 86.4 302 M 86.4 302 L 86.4 294.8 M 86.4 294.8 L 136.5 314.2 M 136.5 314.2 L 136.5 321 M 136.5 321 L 86.4 340.6 M 137.1 372 L 137.1 372 M 137.1 372 L 136.3 375.5 M 136.3 375.5 L 134.9 378.6 M 134.9 378.6 L 133.1 381.5 M 133.1 381.5 L 130.6 384 M 130.6 384 L 127.8 386 M 127.8 386 L 124.4 387.7 M 124.4 387.7 L 120.6 389 M 120.6 389 L 119 382.3 M 119 382.3 L 121.9 381.5 M 121.9 381.5 L 121.9 381.5 M 121.9 381.5 L 124.5 380.4 M 124.5 380.4 L 124.5 380.4 M 124.5 380.4 L 126.7 378.9 M 126.7 378.9 L 126.7 378.9 M 126.7 378.9 L 128.5 377.1 M 128.5 377.1 L 128.5 377.1 M 128.5 377.1 L 129.9 375.1 M 129.9 375.1 L 129.9 375.1 M 129.9 375.1 L 130.9 372.8 M 130.9 372.8 L 130.9 372.8 M 130.9 372.8 L 131.5 370.4 M 131.5 370.4 L 131.5 370.4 M 131.5 370.4 L 131.7 367.7 M 131.7 367.7 L 131.7 367.7 M 131.7 367.7 L 131.6 365.4 M 131.6 365.4 L 131.6 365.4 M 131.6 365.4 L 131.1 363.2 M 131.1 363.2 L 131.1 363.2 M 131.1 363.2 L 130.4 361.2 M 130.4 361.2 L 130.4 361.2 M 130.4 361.2 L 129.4 359.2 M 129.4 359.2 L 129.4 359.2 M 129.4 359.2 L 128 357.3 M 128 357.3 L 128 357.3 M 128 357.3 L 126.4 355.7 M 126.4 355.7 L 126.4 355.7 M 126.4 355.7 L 124.4 354.4 M 124.4 354.4 L 124.4 354.4 M 124.4 354.4 L 122.2 353.4 M 122.2 353.4 L 122.2 353.4 M 122.2 353.4 L 119.7 352.5 M 119.7 352.5 L 119.7 352.5 M 119.7 352.5 L 117 351.9 M 117 351.9 L 117 351.9 M 117 351.9 L 114.1 351.6 M 114.1 351.6 L 114.1 351.6 M 114.1 351.6 L 111 351.5 M 111 351.5 L 111 351.5 M 111 351.5 L 108.6 351.6 M 108.6 351.6 L 108.6 351.6 M 108.6 351.6 L 106.2 351.9 M 106.2 351.9 L 106.2 351.9 M 106.2 351.9 L 103.8 352.4 M 103.8 352.4 L 103.8 352.4 M 103.8 352.4 L 101.4 353.1 M 101.4 353.1 L 101.4 353.1 M 101.4 353.1 L 99.2 354 M 99.2 354 L 99.2 354 M 99.2 354 L 97.2 355.2 M 97.2 355.2 L 97.2 355.2 M 97.2 355.2 L 95.5 356.7 M 95.5 356.7 L 95.5 356.7 M 95.5 356.7 L 94 358.5 M 94 358.5 L 94 358.5 M 94 358.5 L 92.7 360.6 M 92.7 360.6 L 92.7 360.6 M 92.7 360.6 L 91.9 362.9 M 91.9 362.9 L 91.9 362.9 M 91.9 362.9 L 91.4 365.4 M 91.4 365.4 L 91.4 365.4 M 91.4 365.4 L 91.2 368.2 M 91.2 368.2 L 91.2 368.2 M 91.2 368.2 L 91.4 370.6 M 91.4 370.6 L 91.4 370.6 M 91.4 370.6 L 91.8 372.8 M 91.8 372.8 L 91.8 372.8 M 91.8 372.8 L 92.6 374.8 M 92.6 374.8 L 92.6 374.8 M 92.6 374.8 L 93.7 376.6 M 93.7 376.6 L 93.7 376.6 M 93.7 376.6 L 95.1 378.1 M 95.1 378.1 L 95.1 378.1 M 95.1 378.1 L 96.9 379.5 M 96.9 379.5 L 96.9 379.5 M 96.9 379.5 L 99.1 380.6 M 99.1 380.6 L 99.1 380.6 M 99.1 380.6 L 101.6 381.6 M 101.6 381.6 L 100.1 388.1 M 100.1 388.1 L 96.9 386.9 M 96.9 386.9 L 94 385.3 M 94 385.3 L 91.5 383.3 M 91.5 383.3 L 89.4 381 M 89.4 381 L 87.7 378.2 M 87.7 378.2 L 86.5 375.3 M 86.5 375.3 L 85.8 371.9 M 85.8 371.9 L 85.6 368.3 M 85.6 368.3 L 85.7 365.1 M 85.7 365.1 L 86.3 362 M 86.3 362 L 87.3 359 M 87.3 359 L 88.6 356.2 M 88.6 356.2 L 90.3 353.6 M 90.3 353.6 L 92.3 351.3 M 92.3 351.3 L 94.7 349.4 M 94.7 349.4 L 97.4 347.7 M 97.4 347.7 L 100.5 346.4 M 100.5 346.4 L 103.8 345.5 M 103.8 345.5 L 107.3 344.9 M 107.3 344.9 L 111.1 344.7 M 111.1 344.7 L 114.6 344.9 M 114.6 344.9 L 118 345.4 M 118 345.4 L 121.3 346.2 M 121.3 346.2 L 124.5 347.3 M 124.5 347.3 L 127.4 348.8 M 127.4 348.8 L 130 350.6 M 130 350.6 L 132.2 352.7 M 132.2 352.7 L 134 355.1 M 134 355.1 L 135.5 357.8 M 135.5 357.8 L 136.5 360.9 M 136.5 360.9 L 137.1 364.4 M 137.1 364.4 L 137.3 368.2 M 137.3 368.2 L 137.1 372 M 137.1 422.5 L 137.1 422.5 M 137.1 422.5 L 136.3 426 M 136.3 426 L 134.9 429.2 M 134.9 429.2 L 133.1 432 M 133.1 432 L 130.6 434.5 M 130.6 434.5 L 127.8 436.6 M 127.8 436.6 L 124.4 438.2 M 124.4 438.2 L 120.6 439.5 M 120.6 439.5 L 119 432.9 M 119 432.9 L 121.9 432.1 M 121.9 432.1 L 121.9 432.1 M 121.9 432.1 L 124.5 430.9 M 124.5 430.9 L 124.5 430.9 M 124.5 430.9 L 126.7 429.5 M 126.7 429.5 L 126.7 429.5 M 126.7 429.5 L 128.5 427.7 M 128.5 427.7 L 128.5 427.7 M 128.5 427.7 L 129.9 425.6 M 129.9 425.6 L 129.9 425.6 M 129.9 425.6 L 130.9 423.4 M 130.9 423.4 L 130.9 423.4 M 130.9 423.4 L 131.5 420.9 M 131.5 420.9 L 131.5 420.9 M 131.5 420.9 L 131.7 418.2 M 131.7 418.2 L 131.7 418.2 M 131.7 418.2 L 131.6 416 M 131.6 416 L 131.6 416 M 131.6 416 L 131.1 413.8 M 131.1 413.8 L 131.1 413.8 M 131.1 413.8 L 130.4 411.7 M 130.4 411.7 L 130.4 411.7 M 130.4 411.7 L 129.4 409.7 M 129.4 409.7 L 129.4 409.7 M 129.4 409.7 L 128 407.9 M 128 407.9 L 128 407.9 M 128 407.9 L 126.4 406.3 M 126.4 406.3 L 126.4 406.3 M 126.4 406.3 L 124.4 405 M 124.4 405 L 124.4 405 M 124.4 405 L 122.2 403.9 M 122.2 403.9 L 122.2 403.9 M 122.2 403.9 L 119.7 403.1 M 119.7 403.1 L 119.7 403.1 M 119.7 403.1 L 117 402.5 M 117 402.5 L 117 402.5 M 117 402.5 L 114.1 402.1 M 114.1 402.1 L 114.1 402.1 M 114.1 402.1 L 111 402 M 111 402 L 111 402 M 111 402 L 108.6 402.1 M 108.6 402.1 L 108.6 402.1 M 108.6 402.1 L 106.2 402.4 M 106.2 402.4 L 106.2 402.4 M 106.2 402.4 L 103.8 402.9 M 103.8 402.9 L 103.8 402.9 M 103.8 402.9 L 101.4 403.6 M 101.4 403.6 L 101.4 403.6 M 101.4 403.6 L 99.2 404.5 M 99.2 404.5 L 99.2 404.5 M 99.2 404.5 L 97.2 405.8 M 97.2 405.8 L 97.2 405.8 M 97.2 405.8 L 95.5 407.3 M 95.5 407.3 L 95.5 407.3 M 95.5 407.3 L 94 409.1 M 94 409.1 L 94 409.1 M 94 409.1 L 92.7 411.1 M 92.7 411.1 L 92.7 411.1 M 92.7 411.1 L 91.9 413.4 M 91.9 413.4 L 91.9 413.4 M 91.9 413.4 L 91.4 416 M 91.4 416 L 91.4 416 M 91.4 416 L 91.2 418.8 M 91.2 418.8 L 91.2 418.8 M 91.2 418.8 L 91.4 421.2 M 91.4 421.2 L 91.4 421.2 M 91.4 421.2 L 91.8 423.4 M 91.8 423.4 L 91.8 423.4 M 91.8 423.4 L 92.6 425.3 M 92.6 425.3 L 92.6 425.3 M 92.6 425.3 L 93.7 427.1 M 93.7 427.1 L 93.7 427.1 M 93.7 427.1 L 95.1 428.6 M 95.1 428.6 L 95.1 428.6 M 95.1 428.6 L 96.9 430 M 96.9 430 L 96.9 430 M 96.9 430 L 99.1 431.2 M 99.1 431.2 L 99.1 431.2 M 99.1 431.2 L 101.6 432.1 M 101.6 432.1 L 100.1 438.6 M 100.1 438.6 L 96.9 437.5 M 96.9 437.5 L 94 435.8 M 94 435.8 L 91.5 433.9 M 91.5 433.9 L 89.4 431.5 M 89.4 431.5 L 87.7 428.8 M 87.7 428.8 L 86.5 425.8 M 86.5 425.8 L 85.8 422.5 M 85.8 422.5 L 85.6 418.9 M 85.6 418.9 L 85.7 415.6 M 85.7 415.6 L 86.3 412.5 M 86.3 412.5 L 87.3 409.6 M 87.3 409.6 L 88.6 406.8 M 88.6 406.8 L 90.3 404.2 M 90.3 404.2 L 92.3 401.9 M 92.3 401.9 L 94.7 399.9 M 94.7 399.9 L 97.4 398.2 M 97.4 398.2 L 100.5 396.9 M 100.5 396.9 L 103.8 396 M 103.8 396 L 107.3 395.5 M 107.3 395.5 L 111.1 395.3 M 111.1 395.3 L 114.6 395.4 M 114.6 395.4 L 118 395.9 M 118 395.9 L 121.3 396.8 M 121.3 396.8 L 124.5 397.9 M 124.5 397.9 L 127.4 399.4 M 127.4 399.4 L 130 401.2 M 130 401.2 L 132.2 403.2 M 132.2 403.2 L 134 405.6 M 134 405.6 L 135.5 408.3 M 135.5 408.3 L 136.5 411.4 M 136.5 411.4 L 137.1 414.9 M 137.1 414.9 L 137.3 418.8 M 137.3 418.8 L 137.1 422.5 M 1886.4 341.6 L 1886.4 341.6 M 1886.4 341.6 L 1886.4 334.9 M 1886.4 334.9 L 1922.8 321.4 M 1922.8 321.4 L 1924.9 320.6 M 1924.9 320.6 L 1926.9 319.9 M 1926.9 319.9 L 1929 319.3 M 1929 319.3 L 1931 318.6 M 1931 318.6 L 1931 318.6 M 1931 318.6 L 1929 318.1 M 1929 318.1 L 1927 317.4 M 1927 317.4 L 1924.9 316.8 M 1924.9 316.8 L 1922.8 316 M 1922.8 316 L 1886.4 303 M 1886.4 303 L 1886.4 295.8 M 1886.4 295.8 L 1936.5 315.2 M 1936.5 315.2 L 1936.5 322 M 1936.5 322 L 1886.4 341.6 M 1937.1 373 L 1937.1 373 M 1937.1 373 L 1936.3 376.4 M 1936.3 376.4 L 1934.9 379.6 M 1934.9 379.6 L 1933.1 382.5 M 1933.1 382.5 L 1930.6 384.9 M 1930.6 384.9 L 1927.8 387 M 1927.8 387 L 1924.4 388.7 M 1924.4 388.7 L 1920.6 389.9 M 1920.6 389.9 L 1919 383.4 M 1919 383.4 L 1921.9 382.5 M 1921.9 382.5 L 1921.9 382.5 M 1921.9 382.5 L 1924.5 381.4 M 1924.5 381.4 L 1924.5 381.4 M 1924.5 381.4 L 1926.7 379.9 M 1926.7 379.9 L 1926.7 379.9 M 1926.7 379.9 L 1928.5 378.1 M 1928.5 378.1 L 1928.5 378.1 M 1928.5 378.1 L 1929.9 376.1 M 1929.9 376.1 L 1929.9 376.1 M 1929.9 376.1 L 1930.9 373.8 M 1930.9 373.8 L 1930.9 373.8 M 1930.9 373.8 L 1931.5 371.4 M 1931.5 371.4 L 1931.5 371.4 M 1931.5 371.4 L 1931.7 368.7 M 1931.7 368.7 L 1931.7 368.7 M 1931.7 368.7 L 1931.6 366.4 M 1931.6 366.4 L 1931.6 366.4 M 1931.6 366.4 L 1931.1 364.3 M 1931.1 364.3 L 1931.1 364.3 M 1931.1 364.3 L 1930.4 362.2 M 1930.4 362.2 L 1930.4 362.2 M 1930.4 362.2 L 1929.4 360.2 M 1929.4 360.2 L 1929.4 360.2 M 1929.4 360.2 L 1928 358.3 M 1928 358.3 L 1928 358.3 M 1928 358.3 L 1926.4 356.8 M 1926.4 356.8 L 1926.4 356.8 M 1926.4 356.8 L 1924.4 355.4 M 1924.4 355.4 L 1924.4 355.4 M 1924.4 355.4 L 1922.2 354.4 M 1922.2 354.4 L 1922.2 354.4 M 1922.2 354.4 L 1919.7 353.5 M 1919.7 353.5 L 1919.7 353.5 M 1919.7 353.5 L 1917 353 M 1917 353 L 1917 353 M 1917 353 L 1914.1 352.6 M 1914.1 352.6 L 1914.1 352.6 M 1914.1 352.6 L 1911 352.5 M 1911 352.5 L 1911 352.5 M 1911 352.5 L 1908.6 352.6 M 1908.6 352.6 L 1908.6 352.6 M 1908.6 352.6 L 1906.2 352.9 M 1906.2 352.9 L 1906.2 352.9 M 1906.2 352.9 L 1903.8 353.4 M 1903.8 353.4 L 1903.8 353.4 M 1903.8 353.4 L 1901.4 354.1 M 1901.4 354.1 L 1901.4 354.1 M 1901.4 354.1 L 1899.2 355 M 1899.2 355 L 1899.2 355 M 1899.2 355 L 1897.2 356.2 M 1897.2 356.2 L 1897.2 356.2 M 1897.2 356.2 L 1895.5 357.7 M 1895.5 357.7 L 1895.5 357.7 M 1895.5 357.7 L 1894 359.5 M 1894 359.5 L 1894 359.5 M 1894 359.5 L 1892.7 361.6 M 1892.7 361.6 L 1892.7 361.6 M 1892.7 361.6 L 1891.9 363.9 M 1891.9 363.9 L 1891.9 363.9 M 1891.9 363.9 L 1891.4 366.4 M 1891.4 366.4 L 1891.4 366.4 M 1891.4 366.4 L 1891.2 369.2 M 1891.2 369.2 L 1891.2 369.2 M 1891.2 369.2 L 1891.4 371.6 M 1891.4 371.6 L 1891.4 371.6 M 1891.4 371.6 L 1891.8 373.8 M 1891.8 373.8 L 1891.8 373.8 M 1891.8 373.8 L 1892.6 375.8 M 1892.6 375.8 L 1892.6 375.8 M 1892.6 375.8 L 1893.7 377.5 M 1893.7 377.5 L 1893.7 377.5 M 1893.7 377.5 L 1895.1 379.1 M 1895.1 379.1 L 1895.1 379.1 M 1895.1 379.1 L 1896.9 380.5 M 1896.9 380.5 L 1896.9 380.5 M 1896.9 380.5 L 1899.1 381.6 M 1899.1 381.6 L 1899.1 381.6 M 1899.1 381.6 L 1901.6 382.6 M 1901.6 382.6 L 1900.1 389.1 M 1900.1 389.1 L 1896.9 387.9 M 1896.9 387.9 L 1894 386.3 M 1894 386.3 L 1891.5 384.3 M 1891.5 384.3 L 1889.4 381.9 M 1889.4 381.9 L 1887.7 379.3 M 1887.7 379.3 L 1886.5 376.2 M 1886.5 376.2 L 1885.8 372.9 M 1885.8 372.9 L 1885.6 369.3 M 1885.6 369.3 L 1885.7 366.1 M 1885.7 366.1 L 1886.3 363 M 1886.3 363 L 1887.3 360 M 1887.3 360 L 1888.6 357.2 M 1888.6 357.2 L 1890.3 354.6 M 1890.3 354.6 L 1892.3 352.3 M 1892.3 352.3 L 1894.7 350.3 M 1894.7 350.3 L 1897.4 348.7 M 1897.4 348.7 L 1900.5 347.4 M 1900.5 347.4 L 1903.8 346.4 M 1903.8 346.4 L 1907.3 345.9 M 1907.3 345.9 L 1911.1 345.7 M 1911.1 345.7 L 1914.6 345.8 M 1914.6 345.8 L 1918 346.4 M 1918 346.4 L 1921.3 347.2 M 1921.3 347.2 L 1924.5 348.3 M 1924.5 348.3 L 1927.4 349.8 M 1927.4 349.8 L 1930 351.6 M 1930 351.6 L 1932.2 353.7 M 1932.2 353.7 L 1934 356 M 1934 356 L 1935.5 358.8 M 1935.5 358.8 L 1936.5 361.9 M 1936.5 361.9 L 1937.1 365.4 M 1937.1 365.4 L 1937.3 369.2 M 1937.3 369.2 L 1937.1 373 M 1937.1 423.5 L 1937.1 423.5 M 1937.1 423.5 L 1936.3 427 M 1936.3 427 L 1934.9 430.1 M 1934.9 430.1 L 1933.1 433 M 1933.1 433 L 1930.6 435.5 M 1930.6 435.5 L 1927.8 437.6 M 1927.8 437.6 L 1924.4 439.3 M 1924.4 439.3 L 1920.6 440.5 M 1920.6 440.5 L 1919 433.9 M 1919 433.9 L 1921.9 433.1 M 1921.9 433.1 L 1921.9 433.1 M 1921.9 433.1 L 1924.5 431.9 M 1924.5 431.9 L 1924.5 431.9 M 1924.5 431.9 L 1926.7 430.5 M 1926.7 430.5 L 1926.7 430.5 M 1926.7 430.5 L 1928.5 428.7 M 1928.5 428.7 L 1928.5 428.7 M 1928.5 428.7 L 1929.9 426.6 M 1929.9 426.6 L 1929.9 426.6 M 1929.9 426.6 L 1930.9 424.4 M 1930.9 424.4 L 1930.9 424.4 M 1930.9 424.4 L 1931.5 421.9 M 1931.5 421.9 L 1931.5 421.9 M 1931.5 421.9 L 1931.7 419.2 M 1931.7 419.2 L 1931.7 419.2 M 1931.7 419.2 L 1931.6 417 M 1931.6 417 L 1931.6 417 M 1931.6 417 L 1931.1 414.8 M 1931.1 414.8 L 1931.1 414.8 M 1931.1 414.8 L 1930.4 412.7 M 1930.4 412.7 L 1930.4 412.7 M 1930.4 412.7 L 1929.4 410.7 M 1929.4 410.7 L 1929.4 410.7 M 1929.4 410.7 L 1928 408.9 M 1928 408.9 L 1928 408.9 M 1928 408.9 L 1926.4 407.3 M 1926.4 407.3 L 1926.4 407.3 M 1926.4 407.3 L 1924.4 406 M 1924.4 406 L 1924.4 406 M 1924.4 406 L 1922.2 404.9 M 1922.2 404.9 L 1922.2 404.9 M 1922.2 404.9 L 1919.7 404.1 M 1919.7 404.1 L 1919.7 404.1 M 1919.7 404.1 L 1917 403.5 M 1917 403.5 L 1917 403.5 M 1917 403.5 L 1914.1 403.2 M 1914.1 403.2 L 1914.1 403.2 M 1914.1 403.2 L 1911 403.1 M 1911 403.1 L 1911 403.1 M 1911 403.1 L 1908.6 403.1 M 1908.6 403.1 L 1908.6 403.1 M 1908.6 403.1 L 1906.2 403.4 M 1906.2 403.4 L 1906.2 403.4 M 1906.2 403.4 L 1903.8 403.9 M 1903.8 403.9 L 1903.8 403.9 M 1903.8 403.9 L 1901.4 404.6 M 1901.4 404.6 L 1901.4 404.6 M 1901.4 404.6 L 1899.2 405.5 M 1899.2 405.5 L 1899.2 405.5 M 1899.2 405.5 L 1897.2 406.8 M 1897.2 406.8 L 1897.2 406.8 M 1897.2 406.8 L 1895.5 408.3 M 1895.5 408.3 L 1895.5 408.3 M 1895.5 408.3 L 1894 410.1 M 1894 410.1 L 1894 410.1 M 1894 410.1 L 1892.7 412.1 M 1892.7 412.1 L 1892.7 412.1 M 1892.7 412.1 L 1891.9 414.4 M 1891.9 414.4 L 1891.9 414.4 M 1891.9 414.4 L 1891.4 417 M 1891.4 417 L 1891.4 417 M 1891.4 417 L 1891.2 419.7 M 1891.2 419.7 L 1891.2 419.7 M 1891.2 419.7 L 1891.4 422.1 M 1891.4 422.1 L 1891.4 422.1 M 1891.4 422.1 L 1891.8 424.4 M 1891.8 424.4 L 1891.8 424.4 M 1891.8 424.4 L 1892.6 426.3 M 1892.6 426.3 L 1892.6 426.3 M 1892.6 426.3 L 1893.7 428.1 M 1893.7 428.1 L 1893.7 428.1 M 1893.7 428.1 L 1895.1 429.7 M 1895.1 429.7 L 1895.1 429.7 M 1895.1 429.7 L 1896.9 431 M 1896.9 431 L 1896.9 431 M 1896.9 431 L 1899.1 432.2 M 1899.1 432.2 L 1899.1 432.2 M 1899.1 432.2 L 1901.6 433.2 M 1901.6 433.2 L 1900.1 439.6 M 1900.1 439.6 L 1896.9 438.4 M 1896.9 438.4 L 1894 436.9 M 1894 436.9 L 1891.5 434.9 M 1891.5 434.9 L 1889.4 432.5 M 1889.4 432.5 L 1887.7 429.8 M 1887.7 429.8 L 1886.5 426.8 M 1886.5 426.8 L 1885.8 423.5 M 1885.8 423.5 L 1885.6 419.9 M 1885.6 419.9 L 1885.7 416.6 M 1885.7 416.6 L 1886.3 413.5 M 1886.3 413.5 L 1887.3 410.6 M 1887.3 410.6 L 1888.6 407.7 M 1888.6 407.7 L 1890.3 405.1 M 1890.3 405.1 L 1892.3 402.9 M 1892.3 402.9 L 1894.7 400.9 M 1894.7 400.9 L 1897.4 399.2 M 1897.4 399.2 L 1900.5 397.9 M 1900.5 397.9 L 1903.8 397 M 1903.8 397 L 1907.3 396.4 M 1907.3 396.4 L 1911.1 396.2 M 1911.1 396.2 L 1914.6 396.4 M 1914.6 396.4 L 1918 396.9 M 1918 396.9 L 1921.3 397.7 M 1921.3 397.7 L 1924.5 398.9 M 1924.5 398.9 L 1927.4 400.4 M 1927.4 400.4 L 1930 402.1 M 1930 402.1 L 1932.2 404.2 M 1932.2 404.2 L 1934 406.6 M 1934 406.6 L 1935.5 409.4 M 1935.5 409.4 L 1936.5 412.4 M 1936.5 412.4 L 1937.1 415.9 M 1937.1 415.9 L 1937.3 419.8 M 1937.3 419.8 L 1937.1 423.5 M 2034.2 322.5 L 2034.2 322.5 M 2034.2 322.5 L 2033.8 325.2 M 2033.8 325.2 L 2033.2 327.9 M 2033.2 327.9 L 2032.4 330.5 M 2032.4 330.5 L 2031.3 333.1 M 2031.3 333.1 L 2029.9 335.6 M 2029.9 335.6 L 2028.3 338.1 M 2028.3 338.1 L 2026.5 340.6 M 2026.5 340.6 L 2008 340.6 M 2008 340.6 L 2008 319.4 M 2008 319.4 L 2013.8 319.4 M 2013.8 319.4 L 2013.8 334.1 M 2013.8 334.1 L 2013.8 334.1 M 2013.8 334.1 L 2023.2 334.1 M 2023.2 334.1 L 2023.2 334.1 M 2023.2 334.1 L 2024.1 332.9 M 2024.1 332.9 L 2024.1 332.9 M 2024.1 332.9 L 2025 331.5 M 2025 331.5 L 2025 331.5 M 2025 331.5 L 2025.9 329.8 M 2025.9 329.8 L 2025.9 329.8 M 2025.9 329.8 L 2026.8 327.9 M 2026.8 327.9 L 2026.8 327.9 M 2026.8 327.9 L 2027.5 325.8 M 2027.5 325.8 L 2027.5 325.8 M 2027.5 325.8 L 2028 323.7 M 2028 323.7 L 2028 323.7 M 2028 323.7 L 2028.3 321.6 M 2028.3 321.6 L 2028.3 321.6 M 2028.3 321.6 L 2028.4 319.5 M 2028.4 319.5 L 2028.4 319.5 M 2028.4 319.5 L 2028.2 317 M 2028.2 317 L 2028.2 317 M 2028.2 317 L 2027.9 314.6 M 2027.9 314.6 L 2027.9 314.6 M 2027.9 314.6 L 2027.1 312.3 M 2027.1 312.3 L 2027.1 312.3 M 2027.1 312.3 L 2026.2 310.1 M 2026.2 310.1 L 2026.2 310.1 M 2026.2 310.1 L 2025 308 M 2025 308 L 2025 308 M 2025 308 L 2023.4 306.2 M 2023.4 306.2 L 2023.4 306.2 M 2023.4 306.2 L 2021.6 304.6 M 2021.6 304.6 L 2021.6 304.6 M 2021.6 304.6 L 2019.5 303.4 M 2019.5 303.4 L 2019.5 303.4 M 2019.5 303.4 L 2017.1 302.3 M 2017.1 302.3 L 2017.1 302.3 M 2017.1 302.3 L 2014.4 301.6 M 2014.4 301.6 L 2014.4 301.6 M 2014.4 301.6 L 2011.5 301.2 M 2011.5 301.2 L 2011.5 301.2 M 2011.5 301.2 L 2008.3 301 M 2008.3 301 L 2008.3 301 M 2008.3 301 L 2005.6 301.2 M 2005.6 301.2 L 2005.6 301.2 M 2005.6 301.2 L 2003.1 301.5 M 2003.1 301.5 L 2003.1 301.5 M 2003.1 301.5 L 2000.6 302.1 M 2000.6 302.1 L 2000.6 302.1 M 2000.6 302.1 L 1998.2 303 M 1998.2 303 L 1998.2 303 M 1998.2 303 L 1996.9 303.6 M 1996.9 303.6 L 1996.9 303.6 M 1996.9 303.6 L 1995.6 304.3 M 1995.6 304.3 L 1995.6 304.3 M 1995.6 304.3 L 1994.4 305.2 M 1994.4 305.2 L 1994.4 305.2 M 1994.4 305.2 L 1993.2 306.1 M 1993.2 306.1 L 1993.2 306.1 M 1993.2 306.1 L 1992.1 307.2 M 1992.1 307.2 L 1992.1 307.2 M 1992.1 307.2 L 1991.2 308.5 M 1991.2 308.5 L 1991.2 308.5 M 1991.2 308.5 L 1990.3 309.9 M 1990.3 309.9 L 1990.3 309.9 M 1990.3 309.9 L 1989.6 311.5 M 1989.6 311.5 L 1989.6 311.5 M 1989.6 311.5 L 1989 313.2 M 1989 313.2 L 1989 313.2 M 1989 313.2 L 1988.5 315.1 M 1988.5 315.1 L 1988.5 315.1 M 1988.5 315.1 L 1988.3 317.1 M 1988.3 317.1 L 1988.3 317.1 M 1988.3 317.1 L 1988.2 319.4 M 1988.2 319.4 L 1988.2 319.4 M 1988.2 319.4 L 1988.3 321.2 M 1988.3 321.2 L 1988.3 321.2 M 1988.3 321.2 L 1988.5 323 M 1988.5 323 L 1988.5 323 M 1988.5 323 L 1988.9 324.7 M 1988.9 324.7 L 1988.9 324.7 M 1988.9 324.7 L 1989.5 326.2 M 1989.5 326.2 L 1989.5 326.3 M 1989.5 326.3 L 1990.2 327.7 M 1990.2 327.7 L 1990.2 327.7 M 1990.2 327.7 L 1991 329 M 1991 329 L 1991 329 M 1991 329 L 1992 330.1 M 1992 330.1 L 1992 330.1 M 1992 330.1 L 1993 331 M 1993 331 L 1993 331 M 1993 331 L 1994.2 331.9 M 1994.2 331.9 L 1994.2 331.9 M 1994.2 331.9 L 1995.6 332.6 M 1995.6 332.6 L 1995.6 332.6 M 1995.6 332.6 L 1997.2 333.2 M 1997.2 333.2 L 1997.2 333.2 M 1997.2 333.2 L 1999 333.8 M 1999 333.8 L 1997.4 339.8 M 1997.4 339.8 L 1995 339.1 M 1995 339.1 L 1992.8 338.2 M 1992.8 338.2 L 1990.9 337.2 M 1990.9 337.2 L 1989.2 336 M 1989.2 336 L 1987.7 334.7 M 1987.7 334.7 L 1986.4 333.1 M 1986.4 333.1 L 1985.3 331.2 M 1985.3 331.2 L 1984.3 329.1 M 1984.3 329.1 L 1983.6 326.9 M 1983.6 326.9 L 1983 324.5 M 1983 324.5 L 1982.7 321.9 M 1982.7 321.9 L 1982.5 319.3 M 1982.5 319.3 L 1982.7 315.7 M 1982.7 315.7 L 1983.3 312.3 M 1983.3 312.3 L 1984.3 309.1 M 1984.3 309.1 L 1985.6 306.1 M 1985.6 306.1 L 1987.4 303.4 M 1987.4 303.4 L 1989.5 301 M 1989.5 301 L 1992.1 299 M 1992.1 299 L 1995.1 297.3 M 1995.1 297.3 L 1998.3 296 M 1998.3 296 L 2001.6 295 M 2001.6 295 L 2005.1 294.4 M 2005.1 294.4 L 2008.7 294.2 M 2008.7 294.2 L 2012.3 294.4 M 2012.3 294.4 L 2015.7 295 M 2015.7 295 L 2019 296 M 2019 296 L 2022 297.3 M 2022 297.3 L 2024.9 299 M 2024.9 299 L 2027.3 301.1 M 2027.3 301.1 L 2029.4 303.6 M 2029.4 303.6 L 2031.2 306.4 M 2031.2 306.4 L 2032.5 309.5 M 2032.5 309.5 L 2033.6 312.8 M 2033.6 312.8 L 2034.2 316.2 M 2034.2 316.2 L 2034.4 319.8 M 2034.4 319.8 L 2034.2 322.5 M 1983.4 389.7 L 1983.4 389.7 M 1983.4 389.7 L 1983.4 383.4 M 1983.4 383.4 L 2022.7 383.4 M 2022.7 383.4 L 2022.8 383.4 M 2022.8 383.4 L 1983.4 357.1 M 1983.4 357.1 L 1983.4 350.3 M 1983.4 350.3 L 2033.5 350.3 M 2033.5 350.3 L 2033.5 356.6 M 2033.5 356.6 L 1994.1 356.6 M 1994.1 356.6 L 1994.1 356.6 M 1994.1 356.6 L 2033.5 383 M 2033.5 383 L 2033.5 389.7 M 2033.5 389.7 L 1983.4 389.7 M 2033.4 421.2 L 2033.4 421.2 M 2033.4 421.2 L 2033.2 423.2 M 2033.2 423.2 L 2033 425.2 M 2033 425.2 L 2032.6 427 M 2032.6 427 L 2032.1 428.7 M 2032.1 428.7 L 2031.6 430.3 M 2031.6 430.3 L 2030.9 431.7 M 2030.9 431.7 L 2030.1 433 M 2030.1 433 L 2029.2 434.2 M 2029.2 434.2 L 2028.2 435.4 M 2028.2 435.4 L 2026.9 436.5 M 2026.9 436.5 L 2025.6 437.6 M 2025.6 437.6 L 2024 438.6 M 2024 438.6 L 2022.3 439.5 M 2022.3 439.5 L 2020.4 440.3 M 2020.4 440.3 L 2018.3 441 M 2018.3 441 L 2016 441.6 M 2016 441.6 L 2013.6 442 M 2013.6 442 L 2010.9 442.2 M 2010.9 442.2 L 2008.2 442.3 M 2008.2 442.3 L 2004.9 442.2 M 2004.9 442.2 L 2001.8 441.8 M 2001.8 441.8 L 1999 441.2 M 1999 441.2 L 1996.3 440.3 M 1996.3 440.3 L 1993.8 439.2 M 1993.8 439.2 L 1991.5 437.9 M 1991.5 437.9 L 1989.5 436.3 M 1989.5 436.3 L 1987.7 434.4 M 1987.7 434.4 L 1986.5 432.8 M 1986.5 432.8 L 1985.5 431.1 M 1985.5 431.1 L 1984.7 429.2 M 1984.7 429.2 L 1984.1 427.1 M 1984.1 427.1 L 1983.8 425.4 M 1983.8 425.4 L 1983.6 423.3 M 1983.6 423.3 L 1983.4 420.9 M 1983.4 420.9 L 1983.4 418.2 M 1983.4 418.2 L 1983.4 400.9 M 1983.4 400.9 L 2033.5 400.9 M 2033.5 400.9 L 2033.5 419 M 2033.5 419 L 2033.4 421.2 M 2027.6 407.5 L 2027.6 407.5 M 2027.6 407.5 L 2027.6 418.2 M 2027.6 418.2 L 2027.5 420.6 M 2027.5 420.6 L 2027.3 422.7 M 2027.3 422.7 L 2027.1 424.5 M 2027.1 424.5 L 2026.7 426 M 2026.7 426 L 2026.2 427.3 M 2026.2 427.3 L 2025.6 428.5 M 2025.6 428.5 L 2024.9 429.6 M 2024.9 429.6 L 2024.1 430.5 M 2024.1 430.5 L 2022.8 431.6 M 2022.8 431.6 L 2021.3 432.6 M 2021.3 432.6 L 2019.6 433.4 M 2019.6 433.4 L 2017.7 434.2 M 2017.7 434.2 L 2015.6 434.7 M 2015.6 434.7 L 2013.3 435.2 M 2013.3 435.2 L 2010.8 435.4 M 2010.8 435.4 L 2008.1 435.5 M 2008.1 435.5 L 2004.4 435.3 M 2004.4 435.3 L 2001.1 434.9 M 2001.1 434.9 L 1998.3 434 M 1998.3 434 L 1996 432.9 M 1996 432.9 L 1994 431.6 M 1994 431.6 L 1992.5 430.1 M 1992.5 430.1 L 1991.2 428.4 M 1991.2 428.4 L 1990.3 426.6 M 1990.3 426.6 L 1989.9 425.1 M 1989.9 425.1 L 1989.5 423.2 M 1989.5 423.2 L 1989.4 420.8 M 1989.4 420.8 L 1989.3 418.1 M 1989.3 418.1 L 1989.3 407.5 M 1989.3 407.5 L 2027.6 407.5 M 593.2 708.8 L 593.2 708.8 M 593.2 708.8 L 578.8 708.8 M 578.8 708.8 L 549.7 630.8 M 549.7 630.8 L 548.2 626.5 M 548.2 626.5 L 546.7 622.1 M 546.7 622.1 L 545.3 617.7 M 545.3 617.7 L 544 613.3 M 544 613.3 L 544 613.3 M 544 613.3 L 542.7 617.5 M 542.7 617.5 L 541.4 621.8 M 541.4 621.8 L 539.9 626.2 M 539.9 626.2 L 538.3 630.8 M 538.3 630.8 L 510.4 708.8 M 510.4 708.8 L 495.1 708.8 M 495.1 708.8 L 536.6 601.5 M 536.6 601.5 L 551.2 601.5 M 551.2 601.5 L 593.2 708.8 M 660.4 600.3 L 660.4 600.3 M 660.4 600.3 L 667.8 602 M 667.8 602 L 674.6 604.9 M 674.6 604.9 L 680.7 608.9 M 680.7 608.9 L 686.1 614 M 686.1 614 L 690.5 620.1 M 690.5 620.1 L 694.1 627.3 M 694.1 627.3 L 696.8 635.5 M 696.8 635.5 L 682.6 639.1 M 682.6 639.1 L 680.8 632.8 M 680.8 632.8 L 680.8 632.8 M 680.8 632.8 L 678.4 627.3 M 678.4 627.3 L 678.4 627.3 M 678.4 627.3 L 675.2 622.5 M 675.2 622.5 L 675.2 622.5 M 675.2 622.5 L 671.4 618.7 M 671.4 618.7 L 671.4 618.7 M 671.4 618.7 L 667 615.7 M 667 615.7 L 667 615.7 M 667 615.7 L 662.2 613.5 M 662.2 613.5 L 662.2 613.5 M 662.2 613.5 L 656.9 612.2 M 656.9 612.2 L 656.9 612.2 M 656.9 612.2 L 651.2 611.8 M 651.2 611.8 L 651.2 611.8 M 651.2 611.8 L 646.4 612.1 M 646.4 612.1 L 646.4 612.1 M 646.4 612.1 L 641.7 613.1 M 641.7 613.1 L 641.7 613.1 M 641.7 613.1 L 637.2 614.7 M 637.2 614.7 L 637.2 614.7 M 637.2 614.7 L 632.9 616.9 M 632.9 616.9 L 632.9 616.9 M 632.9 616.9 L 629 619.7 M 629 619.7 L 629 619.7 M 629 619.7 L 625.6 623.2 M 625.6 623.2 L 625.6 623.2 M 625.6 623.2 L 622.8 627.3 M 622.8 627.3 L 622.8 627.3 M 622.8 627.3 L 620.5 632.1 M 620.5 632.1 L 620.5 632.1 M 620.5 632.1 L 618.8 637.5 M 618.8 637.5 L 618.8 637.5 M 618.8 637.5 L 617.5 643.2 M 617.5 643.2 L 617.5 643.2 M 617.5 643.2 L 616.8 649.4 M 616.8 649.4 L 616.8 649.4 M 616.8 649.4 L 616.5 656.1 M 616.5 656.1 L 616.5 656.1 M 616.5 656.1 L 616.7 661.3 M 616.7 661.3 L 616.7 661.4 M 616.7 661.4 L 617.4 666.5 M 617.4 666.5 L 617.4 666.5 M 617.4 666.5 L 618.4 671.6 M 618.4 671.6 L 618.4 671.6 M 618.4 671.6 L 619.9 676.7 M 619.9 676.7 L 619.9 676.7 M 619.9 676.7 L 621.9 681.4 M 621.9 681.4 L 621.9 681.4 M 621.9 681.4 L 624.5 685.7 M 624.5 685.7 L 624.5 685.7 M 624.5 685.7 L 627.7 689.4 M 627.7 689.4 L 627.7 689.4 M 627.7 689.4 L 631.6 692.6 M 631.6 692.6 L 631.6 692.6 M 631.6 692.6 L 636 695.2 M 636 695.2 L 636 695.2 M 636 695.2 L 640.9 697.1 M 640.9 697.1 L 640.9 697.1 M 640.9 697.1 L 646.4 698.2 M 646.4 698.2 L 646.4 698.2 M 646.4 698.2 L 652.3 698.6 M 652.3 698.6 L 652.3 698.6 M 652.3 698.6 L 657.4 698.2 M 657.4 698.2 L 657.5 698.2 M 657.5 698.2 L 662.1 697.2 M 662.1 697.2 L 662.1 697.2 M 662.1 697.2 L 666.4 695.6 M 666.4 695.6 L 666.4 695.6 M 666.4 695.6 L 670.2 693.2 M 670.2 693.2 L 670.2 693.2 M 670.2 693.2 L 673.5 690.1 M 673.5 690.1 L 673.5 690.1 M 673.5 690.1 L 676.4 686.3 M 676.4 686.3 L 676.4 686.3 M 676.4 686.3 L 678.9 681.6 M 678.9 681.6 L 678.9 681.6 M 678.9 681.6 L 681 676.2 M 681 676.2 L 694.9 679.4 M 694.9 679.4 L 692.4 686.4 M 692.4 686.4 L 689 692.6 M 689 692.6 L 684.7 698 M 684.7 698 L 679.7 702.5 M 679.7 702.5 L 673.8 706.1 M 673.8 706.1 L 667.4 708.6 M 667.4 708.6 L 660.3 710.2 M 660.3 710.2 L 652.6 710.7 M 652.6 710.7 L 645.6 710.3 M 645.6 710.3 L 639 709.1 M 639 709.1 L 632.6 707 M 632.6 707 L 626.6 704.2 M 626.6 704.2 L 621 700.6 M 621 700.6 L 616.1 696.2 M 616.1 696.2 L 611.9 691.1 M 611.9 691.1 L 608.3 685.3 M 608.3 685.3 L 605.5 678.7 M 605.5 678.7 L 603.5 671.7 M 603.5 671.7 L 602.3 664.1 M 602.3 664.1 L 601.9 656 M 601.9 656 L 602.3 648.4 M 602.3 648.4 L 603.3 641.1 M 603.3 641.1 L 605.1 634 M 605.1 634 L 607.6 627.2 M 607.6 627.2 L 610.8 620.9 M 610.8 620.9 L 614.5 615.4 M 614.5 615.4 L 619 610.7 M 619 610.7 L 624.1 606.8 M 624.1 606.8 L 630 603.7 M 630 603.7 L 636.6 601.4 M 636.6 601.4 L 644.1 600.1 M 644.1 600.1 L 652.3 599.7 M 652.3 599.7 L 660.4 600.3 M 768.8 600.3 L 768.8 600.3 M 768.8 600.3 L 776.2 602 M 776.2 602 L 782.9 604.9 M 782.9 604.9 L 789 608.9 M 789 608.9 L 794.4 614 M 794.4 614 L 798.9 620.1 M 798.9 620.1 L 802.5 627.3 M 802.5 627.3 L 805.1 635.5 M 805.1 635.5 L 791 639.1 M 791 639.1 L 789.2 632.8 M 789.2 632.8 L 789.2 632.8 M 789.2 632.8 L 786.7 627.3 M 786.7 627.3 L 786.7 627.3 M 786.7 627.3 L 783.6 622.5 M 783.6 622.5 L 783.6 622.5 M 783.6 622.5 L 779.7 618.7 M 779.7 618.7 L 779.7 618.7 M 779.7 618.7 L 775.4 615.7 M 775.4 615.7 L 775.4 615.7 M 775.4 615.7 L 770.5 613.5 M 770.5 613.5 L 770.5 613.5 M 770.5 613.5 L 765.3 612.2 M 765.3 612.2 L 765.3 612.2 M 765.3 612.2 L 759.5 611.8 M 759.5 611.8 L 759.5 611.8 M 759.5 611.8 L 754.7 612.1 M 754.7 612.1 L 754.7 612.1 M 754.7 612.1 L 750.1 613.1 M 750.1 613.1 L 750 613.1 M 750 613.1 L 745.6 614.7 M 745.6 614.7 L 745.6 614.7 M 745.6 614.7 L 741.3 616.9 M 741.3 616.9 L 741.3 616.9 M 741.3 616.9 L 737.3 619.7 M 737.3 619.7 L 737.3 619.7 M 737.3 619.7 L 734 623.2 M 734 623.2 L 734 623.2 M 734 623.2 L 731.1 627.3 M 731.1 627.3 L 731.1 627.3 M 731.1 627.3 L 728.8 632.1 M 728.8 632.1 L 728.8 632.1 M 728.8 632.1 L 727.1 637.5 M 727.1 637.5 L 727.1 637.5 M 727.1 637.5 L 725.8 643.2 M 725.8 643.2 L 725.8 643.2 M 725.8 643.2 L 725.1 649.4 M 725.1 649.4 L 725.1 649.4 M 725.1 649.4 L 724.9 656.1 M 724.9 656.1 L 724.9 656.1 M 724.9 656.1 L 725.1 661.3 M 725.1 661.3 L 725.1 661.4 M 725.1 661.4 L 725.7 666.5 M 725.7 666.5 L 725.7 666.5 M 725.7 666.5 L 726.8 671.6 M 726.8 671.6 L 726.8 671.6 M 726.8 671.6 L 728.2 676.7 M 728.2 676.7 L 728.2 676.7 M 728.2 676.7 L 730.2 681.4 M 730.2 681.4 L 730.2 681.4 M 730.2 681.4 L 732.8 685.7 M 732.8 685.7 L 732.8 685.7 M 732.8 685.7 L 736 689.4 M 736 689.4 L 736 689.4 M 736 689.4 L 739.9 692.6 M 739.9 692.6 L 739.9 692.6 M 739.9 692.6 L 744.3 695.2 M 744.3 695.2 L 744.3 695.2 M 744.3 695.2 L 749.2 697.1 M 749.2 697.1 L 749.2 697.1 M 749.2 697.1 L 754.7 698.2 M 754.7 698.2 L 754.7 698.2 M 754.7 698.2 L 760.6 698.6 M 760.6 698.6 L 760.6 698.6 M 760.6 698.6 L 765.8 698.2 M 765.8 698.2 L 765.8 698.2 M 765.8 698.2 L 770.5 697.2 M 770.5 697.2 L 770.5 697.2 M 770.5 697.2 L 774.7 695.6 M 774.7 695.6 L 774.7 695.6 M 774.7 695.6 L 778.5 693.2 M 778.5 693.2 L 778.5 693.2 M 778.5 693.2 L 781.8 690.1 M 781.8 690.1 L 781.8 690.1 M 781.8 690.1 L 784.7 686.3 M 784.7 686.3 L 784.7 686.3 M 784.7 686.3 L 787.3 681.6 M 787.3 681.6 L 787.3 681.6 M 787.3 681.6 L 789.4 676.2 M 789.4 676.2 L 803.3 679.4 M 803.3 679.4 L 800.7 686.4 M 800.7 686.4 L 797.3 692.6 M 797.3 692.6 L 793.1 698 M 793.1 698 L 788 702.5 M 788 702.5 L 782.2 706.1 M 782.2 706.1 L 775.7 708.6 M 775.7 708.6 L 768.6 710.2 M 768.6 710.2 L 760.9 710.7 M 760.9 710.7 L 754 710.3 M 754 710.3 L 747.3 709.1 M 747.3 709.1 L 740.9 707 M 740.9 707 L 734.9 704.2 M 734.9 704.2 L 729.3 700.6 M 729.3 700.6 L 724.4 696.2 M 724.4 696.2 L 720.2 691.1 M 720.2 691.1 L 716.6 685.3 M 716.6 685.3 L 713.8 678.7 M 713.8 678.7 L 711.8 671.7 M 711.8 671.7 L 710.6 664.1 M 710.6 664.1 L 710.3 656 M 710.3 656 L 710.6 648.4 M 710.6 648.4 L 711.7 641.1 M 711.7 641.1 L 713.4 634 M 713.4 634 L 715.9 627.2 M 715.9 627.2 L 719.1 620.9 M 719.1 620.9 L 722.9 615.4 M 722.9 615.4 L 727.3 610.7 M 727.3 610.7 L 732.5 606.8 M 732.5 606.8 L 738.3 603.7 M 738.3 603.7 L 744.9 601.4 M 744.9 601.4 L 752.4 600.1 M 752.4 600.1 L 760.7 599.7 M 760.7 599.7 L 768.8 600.3 M 233.2 321.6 L 233.2 321.6 M 233.2 321.6 L 232.9 324.2 M 232.9 324.2 L 232.2 326.9 M 232.2 326.9 L 231.4 329.5 M 231.4 329.5 L 230.3 332.1 M 230.3 332.1 L 228.9 334.6 M 228.9 334.6 L 227.3 337.1 M 227.3 337.1 L 225.5 339.5 M 225.5 339.5 L 206.9 339.5 M 206.9 339.5 L 207 318.4 M 207 318.4 L 212.8 318.4 M 212.8 318.4 L 212.8 333.1 M 212.8 333.1 L 212.9 333.1 M 212.9 333.1 L 222.2 333.1 M 222.2 333.1 L 222.2 333.1 M 222.2 333.1 L 223.1 331.9 M 223.1 331.9 L 223.1 331.9 M 223.1 331.9 L 224 330.5 M 224 330.5 L 224 330.5 M 224 330.5 L 224.9 328.8 M 224.9 328.8 L 224.9 328.8 M 224.9 328.8 L 225.7 326.9 M 225.7 326.9 L 225.7 326.9 M 225.7 326.9 L 226.5 324.8 M 226.5 324.8 L 226.5 324.8 M 226.5 324.8 L 227 322.7 M 227 322.7 L 227 322.7 M 227 322.7 L 227.3 320.6 M 227.3 320.6 L 227.3 320.6 M 227.3 320.6 L 227.4 318.4 M 227.4 318.4 L 227.4 318.4 M 227.4 318.4 L 227.3 316 M 227.3 316 L 227.3 316 M 227.3 316 L 226.8 313.6 M 226.8 313.6 L 226.8 313.6 M 226.8 313.6 L 226.2 311.3 M 226.2 311.3 L 226.2 311.3 M 226.2 311.3 L 225.2 309.1 M 225.2 309.1 L 225.2 309.1 M 225.2 309.1 L 224 307 M 224 307 L 224 307 M 224 307 L 222.4 305.2 M 222.4 305.2 L 222.4 305.2 M 222.4 305.2 L 220.6 303.6 M 220.6 303.6 L 220.6 303.6 M 220.6 303.6 L 218.5 302.3 M 218.5 302.3 L 218.5 302.3 M 218.5 302.3 L 216.1 301.4 M 216.1 301.4 L 216.1 301.4 M 216.1 301.4 L 213.4 300.6 M 213.4 300.6 L 213.4 300.6 M 213.4 300.6 L 210.5 300.2 M 210.5 300.2 L 210.5 300.2 M 210.5 300.2 L 207.3 300.1 M 207.3 300.1 L 207.3 300.1 M 207.3 300.1 L 204.6 300.2 M 204.6 300.2 L 204.6 300.2 M 204.6 300.2 L 202 300.5 M 202 300.5 L 202 300.5 M 202 300.5 L 199.5 301.1 M 199.5 301.1 L 199.5 301.1 M 199.5 301.1 L 197.2 301.9 M 197.2 301.9 L 197.2 301.9 M 197.2 301.9 L 195.8 302.6 M 195.8 302.6 L 195.8 302.6 M 195.8 302.6 L 194.6 303.3 M 194.6 303.3 L 194.6 303.3 M 194.6 303.3 L 193.4 304.2 M 193.4 304.2 L 193.4 304.2 M 193.4 304.2 L 192.2 305.1 M 192.2 305.1 L 192.2 305.1 M 192.2 305.1 L 191.2 306.2 M 191.2 306.2 L 191.2 306.2 M 191.2 306.2 L 190.2 307.5 M 190.2 307.5 L 190.2 307.5 M 190.2 307.5 L 189.3 308.9 M 189.3 308.9 L 189.3 308.9 M 189.3 308.9 L 188.6 310.5 M 188.6 310.5 L 188.6 310.5 M 188.6 310.5 L 188 312.2 M 188 312.2 L 188 312.2 M 188 312.2 L 187.5 314.1 M 187.5 314.1 L 187.5 314.1 M 187.5 314.1 L 187.3 316.2 M 187.3 316.2 L 187.3 316.2 M 187.3 316.2 L 187.2 318.4 M 187.2 318.4 L 187.2 318.4 M 187.2 318.4 L 187.3 320.2 M 187.3 320.2 L 187.3 320.2 M 187.3 320.2 L 187.5 322 M 187.5 322 L 187.5 322 M 187.5 322 L 187.9 323.6 M 187.9 323.6 L 187.9 323.6 M 187.9 323.6 L 188.5 325.3 M 188.5 325.3 L 188.5 325.3 M 188.5 325.3 L 189.2 326.7 M 189.2 326.7 L 189.2 326.7 M 189.2 326.7 L 190.1 328 M 190.1 328 L 190.1 328 M 190.1 328 L 191 329.1 M 191 329.1 L 191 329.1 M 191 329.1 L 192 330.1 M 192 330.1 L 192 330.1 M 192 330.1 L 193.2 330.8 M 193.2 330.8 L 193.2 330.8 M 193.2 330.8 L 194.6 331.6 M 194.6 331.6 L 194.6 331.6 M 194.6 331.6 L 196.2 332.3 M 196.2 332.3 L 196.2 332.3 M 196.2 332.3 L 198 332.9 M 198 332.9 L 196.4 338.8 M 196.4 338.8 L 194 338.1 M 194 338.1 L 191.8 337.2 M 191.8 337.2 L 189.9 336.2 M 189.9 336.2 L 188.2 335 M 188.2 335 L 186.7 333.6 M 186.7 333.6 L 185.4 332 M 185.4 332 L 184.3 330.2 M 184.3 330.2 L 183.3 328.1 M 183.3 328.1 L 182.5 325.9 M 182.5 325.9 L 182 323.5 M 182 323.5 L 181.7 321 M 181.7 321 L 181.6 318.3 M 181.6 318.3 L 181.8 314.7 M 181.8 314.7 L 182.3 311.3 M 182.3 311.3 L 183.3 308.1 M 183.3 308.1 L 184.6 305.1 M 184.6 305.1 L 186.4 302.4 M 186.4 302.4 L 188.5 300 M 188.5 300 L 191.1 298 M 191.1 298 L 194 296.3 M 194 296.3 L 197.3 295 M 197.3 295 L 200.6 294 M 200.6 294 L 204.1 293.4 M 204.1 293.4 L 207.7 293.2 M 207.7 293.2 L 211.3 293.4 M 211.3 293.4 L 214.7 294 M 214.7 294 L 218 295 M 218 295 L 221 296.3 M 221 296.3 L 223.8 298.1 M 223.8 298.1 L 226.3 300.1 M 226.3 300.1 L 228.4 302.6 M 228.4 302.6 L 230.2 305.4 M 230.2 305.4 L 231.6 308.5 M 231.6 308.5 L 232.5 311.8 M 232.5 311.8 L 233.1 315.2 M 233.1 315.2 L 233.3 318.8 M 233.3 318.8 L 233.2 321.6 M 182.4 388.7 L 182.4 388.7 M 182.4 388.7 L 182.4 382.4 M 182.4 382.4 L 221.8 382.4 M 221.8 382.4 L 221.8 382.4 M 221.8 382.4 L 182.4 356.1 M 182.4 356.1 L 182.4 349.3 M 182.4 349.3 L 232.5 349.3 M 232.5 349.3 L 232.5 355.6 M 232.5 355.6 L 193.1 355.6 M 193.1 355.6 L 193.1 355.6 M 193.1 355.6 L 232.5 381.9 M 232.5 381.9 L 232.5 388.7 M 232.5 388.7 L 182.4 388.7 M 232.4 420.2 L 232.4 420.2 M 232.4 420.2 L 232.3 422.3 M 232.3 422.3 L 232 424.2 M 232 424.2 L 231.6 426 M 231.6 426 L 231.2 427.7 M 231.2 427.7 L 230.6 429.3 M 230.6 429.3 L 229.9 430.7 M 229.9 430.7 L 229.1 432 M 229.1 432 L 228.2 433.2 M 228.2 433.2 L 227.1 434.4 M 227.1 434.4 L 225.9 435.5 M 225.9 435.5 L 224.6 436.6 M 224.6 436.6 L 223.1 437.5 M 223.1 437.5 L 221.3 438.4 M 221.3 438.4 L 219.4 439.3 M 219.4 439.3 L 217.3 440 M 217.3 440 L 215 440.6 M 215 440.6 L 212.5 441 M 212.5 441 L 209.9 441.2 M 209.9 441.2 L 207.2 441.3 M 207.2 441.3 L 203.9 441.2 M 203.9 441.2 L 200.8 440.8 M 200.8 440.8 L 198 440.2 M 198 440.2 L 195.3 439.4 M 195.3 439.4 L 192.8 438.2 M 192.8 438.2 L 190.5 436.9 M 190.5 436.9 L 188.5 435.3 M 188.5 435.3 L 186.7 433.4 M 186.7 433.4 L 185.5 431.8 M 185.5 431.8 L 184.5 430.1 M 184.5 430.1 L 183.7 428.2 M 183.7 428.2 L 183.1 426.1 M 183.1 426.1 L 182.8 424.4 M 182.8 424.4 L 182.6 422.3 M 182.6 422.3 L 182.5 419.9 M 182.5 419.9 L 182.4 417.1 M 182.4 417.1 L 182.4 399.9 M 182.4 399.9 L 232.5 399.9 M 232.5 399.9 L 232.5 418 M 232.5 418 L 232.4 420.2 M 226.6 406.5 L 226.6 406.5 M 226.6 406.5 L 226.6 417.2 M 226.6 417.2 L 226.5 419.6 M 226.5 419.6 L 226.4 421.7 M 226.4 421.7 L 226.1 423.4 M 226.1 423.4 L 225.6 425 M 225.6 425 L 225.1 426.4 M 225.1 426.4 L 224.5 427.5 M 224.5 427.5 L 223.8 428.6 M 223.8 428.6 L 223.1 429.5 M 223.1 429.5 L 221.8 430.6 M 221.8 430.6 L 220.3 431.6 M 220.3 431.6 L 218.6 432.5 M 218.6 432.5 L 216.7 433.2 M 216.7 433.2 L 214.6 433.8 M 214.6 433.8 L 212.3 434.2 M 212.3 434.2 L 209.8 434.4 M 209.8 434.4 L 207.1 434.5 M 207.1 434.5 L 203.4 434.4 M 203.4 434.4 L 200.1 433.8 M 200.1 433.8 L 197.3 433.1 M 197.3 433.1 L 195 431.9 M 195 431.9 L 193.1 430.6 M 193.1 430.6 L 191.5 429 M 191.5 429 L 190.2 427.4 M 190.2 427.4 L 189.4 425.6 M 189.4 425.6 L 188.9 424.1 M 188.9 424.1 L 188.6 422.1 M 188.6 422.1 L 188.4 419.8 M 188.4 419.8 L 188.3 417.1 M 188.3 417.1 L 188.3 406.5 M 188.3 406.5 L 226.6 406.5 M 1361.8 602.9 L 1361.8 602.9 M 1361.8 602.9 L 1367.5 603.8 M 1367.5 603.8 L 1373.2 605.1 M 1373.2 605.1 L 1378.8 606.9 M 1378.8 606.9 L 1384.3 609.3 M 1384.3 609.3 L 1389.7 612.1 M 1389.7 612.1 L 1395.1 615.5 M 1395.1 615.5 L 1400.4 619.5 M 1400.4 619.5 L 1400.4 659.3 M 1400.4 659.3 L 1354.9 659.2 M 1354.9 659.2 L 1354.9 646.6 M 1354.9 646.6 L 1386.5 646.6 M 1386.5 646.6 L 1386.5 646.6 M 1386.5 646.6 L 1386.5 626.6 M 1386.5 626.6 L 1386.5 626.6 M 1386.5 626.6 L 1383.9 624.6 M 1383.9 624.6 L 1383.9 624.6 M 1383.9 624.6 L 1380.8 622.7 M 1380.8 622.7 L 1380.8 622.7 M 1380.8 622.7 L 1377.3 620.8 M 1377.3 620.8 L 1377.3 620.8 M 1377.3 620.8 L 1373.1 619 M 1373.1 619 L 1373.1 619 M 1373.1 619 L 1368.7 617.5 M 1368.7 617.5 L 1368.7 617.5 M 1368.7 617.5 L 1364.2 616.4 M 1364.2 616.4 L 1364.2 616.4 M 1364.2 616.4 L 1359.7 615.7 M 1359.7 615.7 L 1359.7 615.7 M 1359.7 615.7 L 1355.1 615.5 M 1355.1 615.5 L 1355.1 615.5 M 1355.1 615.5 L 1349.9 615.8 M 1349.9 615.8 L 1349.9 615.8 M 1349.9 615.8 L 1344.8 616.6 M 1344.8 616.6 L 1344.8 616.6 M 1344.8 616.6 L 1339.8 618.1 M 1339.8 618.1 L 1339.8 618.1 M 1339.8 618.1 L 1335 620.1 M 1335 620.1 L 1335 620.1 M 1335 620.1 L 1330.6 622.8 M 1330.6 622.8 L 1330.6 622.8 M 1330.6 622.8 L 1326.7 626.1 M 1326.7 626.1 L 1326.7 626.1 M 1326.7 626.1 L 1323.4 630 M 1323.4 630 L 1323.4 630 M 1323.4 630 L 1320.6 634.5 M 1320.6 634.5 L 1320.6 634.5 M 1320.6 634.5 L 1318.5 639.7 M 1318.5 639.7 L 1318.5 639.7 M 1318.5 639.7 L 1316.9 645.4 M 1316.9 645.4 L 1316.9 645.4 M 1316.9 645.4 L 1316 651.7 M 1316 651.7 L 1316 651.7 M 1316 651.7 L 1315.7 658.6 M 1315.7 658.6 L 1315.7 658.6 M 1315.7 658.6 L 1315.9 664.3 M 1315.9 664.3 L 1315.9 664.3 M 1315.9 664.3 L 1316.7 669.8 M 1316.7 669.8 L 1316.7 669.8 M 1316.7 669.8 L 1318 675.1 M 1318 675.1 L 1318 675.1 M 1318 675.1 L 1319.8 680.2 M 1319.8 680.2 L 1319.8 680.2 M 1319.8 680.2 L 1321.1 683 M 1321.1 683 L 1321.1 683 M 1321.1 683 L 1322.7 685.7 M 1322.7 685.7 L 1322.7 685.7 M 1322.7 685.7 L 1324.5 688.3 M 1324.5 688.3 L 1324.5 688.3 M 1324.5 688.3 L 1326.6 690.8 M 1326.6 690.8 L 1326.6 690.8 M 1326.6 690.8 L 1328.9 693.1 M 1328.9 693.1 L 1328.9 693.1 M 1328.9 693.1 L 1331.6 695.2 M 1331.6 695.2 L 1331.6 695.2 M 1331.6 695.2 L 1334.7 697 M 1334.7 697 L 1334.7 697 M 1334.7 697 L 1338.1 698.6 M 1338.1 698.6 L 1338.1 698.6 M 1338.1 698.6 L 1341.8 699.9 M 1341.8 699.9 L 1341.8 699.9 M 1341.8 699.9 L 1345.8 700.8 M 1345.8 700.8 L 1345.8 700.8 M 1345.8 700.8 L 1350.2 701.4 M 1350.2 701.4 L 1350.2 701.4 M 1350.2 701.4 L 1354.9 701.6 M 1354.9 701.6 L 1354.9 701.6 M 1354.9 701.6 L 1358.9 701.4 M 1358.9 701.4 L 1358.9 701.4 M 1358.9 701.4 L 1362.7 700.8 M 1362.7 700.8 L 1362.7 700.8 M 1362.7 700.8 L 1366.3 700 M 1366.3 700 L 1366.3 700 M 1366.3 700 L 1369.7 698.8 M 1369.7 698.8 L 1369.7 698.8 M 1369.7 698.8 L 1372.9 697.2 M 1372.9 697.2 L 1372.9 697.2 M 1372.9 697.2 L 1375.6 695.5 M 1375.6 695.5 L 1375.6 695.5 M 1375.6 695.5 L 1378 693.4 M 1378 693.4 L 1378 693.4 M 1378 693.4 L 1379.9 691.2 M 1379.9 691.2 L 1379.9 691.2 M 1379.9 691.2 L 1381.7 688.7 M 1381.7 688.7 L 1381.7 688.7 M 1381.7 688.7 L 1383.2 685.6 M 1383.2 685.6 L 1383.2 685.6 M 1383.2 685.6 L 1384.7 682.2 M 1384.7 682.2 L 1384.7 682.2 M 1384.7 682.2 L 1386 678.4 M 1386 678.4 L 1398.7 681.9 M 1398.7 681.9 L 1397.2 687 M 1397.2 687 L 1395.3 691.6 M 1395.3 691.6 L 1393.1 695.8 M 1393.1 695.8 L 1390.6 699.4 M 1390.6 699.4 L 1387.7 702.6 M 1387.7 702.6 L 1384.3 705.4 M 1384.3 705.4 L 1380.3 707.9 M 1380.3 707.9 L 1375.9 709.9 M 1375.9 709.9 L 1371 711.6 M 1371 711.6 L 1365.9 712.7 M 1365.9 712.7 L 1360.5 713.4 M 1360.5 713.4 L 1354.8 713.7 M 1354.8 713.7 L 1347 713.3 M 1347 713.3 L 1339.7 712 M 1339.7 712 L 1332.9 710 M 1332.9 710 L 1326.5 707.1 M 1326.5 707.1 L 1320.7 703.4 M 1320.7 703.4 L 1315.6 698.8 M 1315.6 698.8 L 1311.3 693.3 M 1311.3 693.3 L 1307.6 686.9 M 1307.6 686.9 L 1304.8 680 M 1304.8 680 L 1302.7 672.8 M 1302.7 672.8 L 1301.5 665.4 M 1301.5 665.4 L 1301.1 657.7 M 1301.1 657.7 L 1301.5 649.9 M 1301.5 649.9 L 1302.7 642.6 M 1302.7 642.6 L 1304.8 635.6 M 1304.8 635.6 L 1307.7 629 M 1307.7 629 L 1311.4 623 M 1311.4 623 L 1315.8 617.7 M 1315.8 617.7 L 1321.1 613.2 M 1321.1 613.2 L 1327.2 609.5 M 1327.2 609.5 L 1333.8 606.5 M 1333.8 606.5 L 1340.8 604.4 M 1340.8 604.4 L 1348.2 603.1 M 1348.2 603.1 L 1355.9 602.7 M 1355.9 602.7 L 1361.8 602.9 M 1505.8 711.9 L 1505.8 711.9 M 1505.8 711.9 L 1492.2 711.9 M 1492.2 711.9 L 1492.2 627.5 M 1492.2 627.5 L 1492.1 627.5 M 1492.1 627.5 L 1435.7 711.9 M 1435.7 711.9 L 1421.2 711.9 M 1421.2 711.9 L 1421.2 604.5 M 1421.2 604.5 L 1434.8 604.5 M 1434.8 604.5 L 1434.8 688.9 M 1434.8 688.9 L 1434.8 688.9 M 1434.8 688.9 L 1491.2 604.5 M 1491.2 604.5 L 1505.8 604.5 M 1505.8 604.5 L 1505.8 711.9 M 1573.1 604.6 L 1573.1 604.6 M 1573.1 604.6 L 1577.6 605 M 1577.6 605 L 1581.8 605.5 M 1581.8 605.5 L 1585.6 606.4 M 1585.6 606.4 L 1589.3 607.4 M 1589.3 607.4 L 1592.6 608.6 M 1592.6 608.6 L 1595.6 610.1 M 1595.6 610.1 L 1598.4 611.7 M 1598.4 611.7 L 1601 613.7 M 1601 613.7 L 1603.6 615.9 M 1603.6 615.9 L 1605.9 618.5 M 1605.9 618.5 L 1608.2 621.5 M 1608.2 621.5 L 1610.4 624.8 M 1610.4 624.8 L 1612.3 628.5 M 1612.3 628.5 L 1614 632.6 M 1614 632.6 L 1615.5 637.1 M 1615.5 637.1 L 1616.8 642 M 1616.8 642 L 1617.7 647.2 M 1617.7 647.2 L 1618.2 652.8 M 1618.2 652.8 L 1618.4 658.8 M 1618.4 658.8 L 1618.1 665.8 M 1618.1 665.8 L 1617.3 672.3 M 1617.3 672.3 L 1616 678.5 M 1616 678.5 L 1614.2 684.3 M 1614.2 684.3 L 1611.8 689.6 M 1611.8 689.6 L 1608.9 694.5 M 1608.9 694.5 L 1605.5 698.8 M 1605.5 698.8 L 1601.5 702.6 M 1601.5 702.6 L 1598.1 705.2 M 1598.1 705.2 L 1594.3 707.3 M 1594.3 707.3 L 1590.2 709 M 1590.2 709 L 1585.8 710.3 M 1585.8 710.3 L 1582.1 711 M 1582.1 711 L 1577.7 711.5 M 1577.7 711.5 L 1572.5 711.8 M 1572.5 711.8 L 1566.6 711.9 M 1566.6 711.9 L 1529.7 711.9 M 1529.7 711.9 L 1529.7 604.5 M 1529.7 604.5 L 1568.4 604.5 M 1568.4 604.5 L 1573.1 604.6 M 1543.9 617.2 L 1543.9 617.2 M 1543.9 617.2 L 1566.8 617.2 M 1566.8 617.2 L 1571.8 617.3 M 1571.8 617.3 L 1576.3 617.7 M 1576.3 617.7 L 1580.1 618.3 M 1580.1 618.3 L 1583.4 619.2 M 1583.4 619.2 L 1586.3 620.3 M 1586.3 620.3 L 1588.9 621.5 M 1588.9 621.5 L 1591.1 623 M 1591.1 623 L 1593.1 624.7 M 1593.1 624.7 L 1595.5 627.5 M 1595.5 627.5 L 1597.6 630.6 M 1597.6 630.6 L 1599.4 634.3 M 1599.4 634.3 L 1601 638.3 M 1601 638.3 L 1602.2 642.8 M 1602.2 642.8 L 1603.1 647.7 M 1603.1 647.7 L 1603.6 653.1 M 1603.6 653.1 L 1603.8 659 M 1603.8 659 L 1603.4 666.9 M 1603.4 666.9 L 1602.4 673.9 M 1602.4 673.9 L 1600.6 679.9 M 1600.6 679.9 L 1598.2 684.9 M 1598.2 684.9 L 1595.3 689 M 1595.3 689 L 1592.1 692.4 M 1592.1 692.4 L 1588.6 695.1 M 1588.6 695.1 L 1584.8 697 M 1584.8 697 L 1581.5 698 M 1581.5 698 L 1577.3 698.6 M 1577.3 698.6 L 1572.3 699.1 M 1572.3 699.1 L 1566.4 699.2 M 1566.4 699.2 L 1543.9 699.2 M 1543.9 699.2 L 1543.9 617.2"/></g></g><use class="pcb_board-cf" mask="url(#pcb_top-cu_finish-mask)" xlink:href="#pcb_top-sm"/></g></g></svg>