<?xml-stylesheet href="https://s3.amazonaws.com/maker.works.boards/css/blackpcb.css" type="text/css"?><svg xmlns="http://www.w3.org/2000/svg" version="1.1" xmlns:xlink="http://www.w3.org/1999/xlink" stroke-width="0" stroke-linecap="round" stroke-linejoin="round" width="2.1in" height="0.8in" id="pcb_bottom" viewBox="7.5 7.5 2100 800"><defs><circle cx="0" cy="0" r="6.5" id="tool-T10-pad-1000"/><circle cx="0" cy="0" r="27.5" id="tool-T11-pad-1001"/><circle cx="0" cy="0" r="19.5" id="tool-T12-pad-1002"/><circle cx="0" cy="0" r="20" id="tool-T13-pad-1003"/><circle cx="0" cy="0" r="19.5" id="tool-T14-pad-1004"/><circle cx="0" cy="0" r="14" id="tool-D13-pad-1008"/><rect x="-39.35" y="-39.35" width="78.7" height="78.7" id="tool-D14-pad-1009"/><circle cx="0" cy="0" r="39.35" id="tool-D15-pad-1010"/><rect x="-29.55" y="-29.55" width="59.1" height="59.1" id="tool-D16-pad-1011"/><circle cx="0" cy="0" r="29.55" id="tool-D17-pad-1012"/><circle cx="0" cy="0" r="35" id="tool-D18-pad-1013"/><circle cx="0" cy="0" r="29.55" id="tool-D19-pad-1014"/><rect x="-29.5275" y="-29.5275" width="59.055" height="59.055" transform="rotate(180)" id="tool-D20-pad-1015"/><g id="tool-D21-pad-1016"><rect x="0" y="-43.307" width="0" height="86.614" transform="rotate(270)"/><rect x="-11.811" y="-31.496" width="23.622" height="62.992" transform="rotate(270)"/><circle cx="31.496" cy="0" r="11.811"/><circle cx="31.496" cy="0" r="11.811"/><circle cx="-31.496" cy="0" r="11.811"/><circle cx="-31.496" cy="0" r="11.811"/></g><circle cx="0" cy="0" r="9.85" id="tool-D11-pad-1018"/><circle cx="0" cy="0" r="14" id="tool-D10-pad-1019"/><rect x="-39.35" y="-39.35" width="78.7" height="78.7" id="tool-D11-pad-1020"/><circle cx="0" cy="0" r="39.35" id="tool-D12-pad-1021"/><rect x="-29.55" y="-29.55" width="59.1" height="59.1" id="tool-D13-pad-1022"/><circle cx="0" cy="0" r="29.55" id="tool-D14-pad-1023"/><circle cx="0" cy="0" r="35" id="tool-D15-pad-1024"/><circle cx="0" cy="0" r="29.55" id="tool-D16-pad-1025"/><rect x="-29.5275" y="-29.5275" width="59.055" height="59.055" transform="rotate(180)" id="tool-D17-pad-1026"/><g id="tool-D18-pad-1027"><rect x="-4" y="-47.307" width="8" height="94.614" transform="rotate(270)"/><rect x="-15.811" y="-35.496" width="31.622" height="70.992" transform="rotate(270)"/><circle cx="35.496" cy="4" r="11.811"/><circle cx="35.496" cy="-4" r="11.811"/><circle cx="-35.496" cy="-4" r="11.811"/><circle cx="-35.496" cy="4" r="11.811"/></g><g id="pcb_bottom-cu" fill="currentColor" stroke="currentColor"><path stroke-width="2" fill="none" d="M 289.9 507.5 L 289.9 507.5 M 289.9 507.5 L 289.9 507.5 M 289.9 507.5 L 290.3 510.9 M 290.3 510.9 L 290.3 510.9 M 290.3 510.9 L 291.3 514.2 M 291.3 514.2 L 291.3 514.2 M 291.3 514.2 L 292.9 517.3 M 292.9 517.3 L 292.9 517.3 M 292.9 517.3 L 295.1 519.9 M 295.1 519.9 L 295.1 519.9 M 295.1 519.9 L 297.7 522.1 M 297.7 522.1 L 297.7 522.1 M 297.7 522.1 L 300.8 523.7 M 300.8 523.7 L 300.8 523.7 M 300.8 523.7 L 304.1 524.7 M 304.1 524.7 L 304.1 524.7 M 304.1 524.7 L 307.5 525.1 M 307.5 525.1 L 307.5 525.1 M 307.5 525.1 L 357.5 525.1 M 357.5 525.1 L 357.5 536 M 357.5 536 L 354.6 536.8 M 354.6 536.8 L 354.6 536.8 M 354.6 536.8 L 351.5 538.5 M 351.5 538.5 L 351.5 538.5 M 351.5 538.5 L 348.7 540.7 M 348.7 540.7 L 348.7 540.7 M 348.7 540.7 L 269.5 620 M 269.5 620 L 262.3 618.2 M 262.3 618.2 L 262.3 618.2 M 262.3 618.2 L 252.7 618.2 M 252.7 618.2 L 252.7 618.2 M 252.7 618.2 L 243.5 620.5 M 243.5 620.5 L 243.5 620.5 M 243.5 620.5 L 235 624.9 M 235 624.9 L 235 624.9 M 235 624.9 L 227.9 631.2 M 227.9 631.2 L 227.9 631.2 M 227.9 631.2 L 222.5 639.1 M 222.5 639.1 L 222.5 639.1 M 222.5 639.1 L 219.1 648 M 219.1 648 L 219.1 648 M 219.1 648 L 217.9 657.5 M 217.9 657.5 L 217.9 657.5 M 217.9 657.5 L 219.1 667 M 219.1 667 L 219.1 667 M 219.1 667 L 222.5 675.9 M 222.5 675.9 L 222.5 675.9 M 222.5 675.9 L 227.9 683.8 M 227.9 683.8 L 227.9 683.8 M 227.9 683.8 L 235 690.1 M 235 690.1 L 235 690.1 M 235 690.1 L 243.5 694.5 M 243.5 694.5 L 243.5 694.5 M 243.5 694.5 L 252.7 696.8 M 252.7 696.8 L 252.7 696.8 M 252.7 696.8 L 262.3 696.8 M 262.3 696.8 L 262.3 696.8 M 262.3 696.8 L 271.5 694.5 M 271.5 694.5 L 271.5 694.5 M 271.5 694.5 L 280 690.1 M 280 690.1 L 280 690.1 M 280 690.1 L 287.1 683.8 M 287.1 683.8 L 287.1 683.8 M 287.1 683.8 L 292.5 675.9 M 292.5 675.9 L 292.5 675.9 M 292.5 675.9 L 295.9 667 M 295.9 667 L 295.9 667 M 295.9 667 L 297.1 657.5 M 297.1 657.5 L 297.1 657.5 M 297.1 657.5 L 295.9 648 M 295.9 648 L 295.9 648 M 295.9 648 L 295 645.5 M 295 645.5 L 314.9 625.7 M 314.9 625.7 L 317.9 626.9 M 317.9 626.9 L 317.9 687 M 317.9 687 L 317.9 687 M 317.9 687 L 318.1 688.6 M 318.1 688.6 L 318.1 688.6 M 318.1 688.6 L 318.4 690.1 M 318.4 690.1 L 318.4 690.1 M 318.4 690.1 L 319 691.6 M 319 691.6 L 319 691.6 M 319 691.6 L 319.8 692.9 M 319.8 692.9 L 319.9 692.9 M 319.9 692.9 L 320.9 694.1 M 320.9 694.1 L 320.9 694.1 M 320.9 694.1 L 322.1 695.1 M 322.1 695.1 L 322.1 695.2 M 322.1 695.2 L 323.4 696 M 323.4 696 L 323.4 696 M 323.4 696 L 324.9 696.6 M 324.9 696.6 L 324.9 696.6 M 324.9 696.6 L 326.4 696.9 M 326.4 696.9 L 326.4 696.9 M 326.4 696.9 L 328 697.1 M 328 697.1 L 328 697.1 M 328 697.1 L 387 697.1 M 387 697.1 L 387 697.1 M 387 697.1 L 388.6 696.9 M 388.6 696.9 L 388.6 696.9 M 388.6 696.9 L 390.1 696.6 M 390.1 696.6 L 390.1 696.6 M 390.1 696.6 L 391.6 696 M 391.6 696 L 391.6 696 M 391.6 696 L 392.9 695.2 M 392.9 695.2 L 392.9 695.1 M 392.9 695.1 L 394.1 694.1 M 394.1 694.1 L 394.1 694.1 M 394.1 694.1 L 395.1 692.9 M 395.1 692.9 L 395.2 692.9 M 395.2 692.9 L 396 691.6 M 396 691.6 L 396 691.6 M 396 691.6 L 396.6 690.1 M 396.6 690.1 L 396.6 690.1 M 396.6 690.1 L 396.9 688.6 M 396.9 688.6 L 396.9 688.6 M 396.9 688.6 L 397.1 687 M 397.1 687 L 397.1 687 M 397.1 687 L 397.1 643.4 M 397.1 643.4 L 427 613.6 M 427 613.6 L 861.5 613.6 M 861.5 613.6 L 861.5 613.6 M 861.5 613.6 L 865 613.2 M 865 613.2 L 865 613.2 M 865 613.2 L 868.4 612.2 M 868.4 612.2 L 868.4 612.2 M 868.4 612.2 L 871.5 610.5 M 871.5 610.5 L 871.5 610.5 M 871.5 610.5 L 874.3 608.2 M 874.3 608.2 L 874.3 608.2 M 874.3 608.2 L 885 597.5 M 885 597.5 L 1077.5 597.5 M 1077.5 597.5 L 1080.3 789.9 M 1080.3 789.9 L 120.1 789.9 M 120.1 789.9 L 25.1 504.7 M 25.1 504.7 L 25.1 25.1 M 25.1 25.1 L 289.9 25.1 M 289.9 25.1 L 289.9 507.5 M 212.9 162.8 L 202.1 162.8 M 202.1 162.8 L 191.5 165.4 M 191.5 165.4 L 181.9 170.5 M 181.9 170.5 L 173.8 177.6 M 173.8 177.6 L 167.6 186.6 M 167.6 186.6 L 163.8 196.7 M 163.8 196.7 L 162.5 207.5 M 162.5 207.5 L 163.8 218.3 M 163.8 218.3 L 167.6 228.4 M 167.6 228.4 L 173.8 237.4 M 173.8 237.4 L 181.9 244.5 M 181.9 244.5 L 191.5 249.6 M 191.5 249.6 L 202.1 252.2 M 202.1 252.2 L 212.9 252.2 M 212.9 252.2 L 223.5 249.6 M 223.5 249.6 L 233.1 244.5 M 233.1 244.5 L 241.2 237.4 M 241.2 237.4 L 247.4 228.4 M 247.4 228.4 L 251.2 218.3 M 251.2 218.3 L 252.5 207.5 M 252.5 207.5 L 251.2 196.7 M 251.2 196.7 L 247.4 186.6 M 247.4 186.6 L 241.2 177.6 M 241.2 177.6 L 233.1 170.5 M 233.1 170.5 L 223.5 165.4 M 223.5 165.4 L 212.9 162.8 M 115.4 163.4 L 115.4 175.3 M 115.4 175.3 L 99.6 175.3 M 99.6 175.3 L 99.6 163.4 M 99.6 163.4 L 91.5 165.4 M 91.5 165.4 L 81.9 170.5 M 81.9 170.5 L 73.8 177.6 M 73.8 177.6 L 67.6 186.6 M 67.6 186.6 L 63.8 196.7 M 63.8 196.7 L 63.4 199.6 M 63.4 199.6 L 75 199.6 M 75 199.6 L 75 215.4 M 75 215.4 L 63.4 215.4 M 63.4 215.4 L 63.8 218.3 M 63.8 218.3 L 67.6 228.4 M 67.6 228.4 L 73.8 237.4 M 73.8 237.4 L 81.9 244.5 M 81.9 244.5 L 91.5 249.6 M 91.5 249.6 L 99.6 251.6 M 99.6 251.6 L 99.6 239.7 M 99.6 239.7 L 115.4 239.7 M 115.4 239.7 L 115.4 251.6 M 115.4 251.6 L 123.5 249.6 M 123.5 249.6 L 133.1 244.5 M 133.1 244.5 L 141.2 237.4 M 141.2 237.4 L 147.4 228.4 M 147.4 228.4 L 151.2 218.3 M 151.2 218.3 L 151.6 215.4 M 151.6 215.4 L 140 215.4 M 140 215.4 L 140 199.6 M 140 199.6 L 151.6 199.6 M 151.6 199.6 L 151.2 196.7 M 151.2 196.7 L 147.4 186.6 M 147.4 186.6 L 141.2 177.6 M 141.2 177.6 L 133.1 170.5 M 133.1 170.5 L 123.5 165.4 M 123.5 165.4 L 115.4 163.4 M 212.9 62.8 L 202.1 62.8 M 202.1 62.8 L 191.5 65.4 M 191.5 65.4 L 181.9 70.5 M 181.9 70.5 L 173.8 77.6 M 173.8 77.6 L 167.6 86.6 M 167.6 86.6 L 163.8 96.7 M 163.8 96.7 L 162.5 107.5 M 162.5 107.5 L 163.8 118.3 M 163.8 118.3 L 167.6 128.4 M 167.6 128.4 L 173.8 137.4 M 173.8 137.4 L 181.9 144.5 M 181.9 144.5 L 191.5 149.6 M 191.5 149.6 L 202.1 152.2 M 202.1 152.2 L 212.9 152.2 M 212.9 152.2 L 223.5 149.6 M 223.5 149.6 L 233.1 144.5 M 233.1 144.5 L 241.2 137.4 M 241.2 137.4 L 247.4 128.4 M 247.4 128.4 L 251.2 118.3 M 251.2 118.3 L 252.5 107.5 M 252.5 107.5 L 251.2 96.7 M 251.2 96.7 L 247.4 86.6 M 247.4 86.6 L 241.2 77.6 M 241.2 77.6 L 233.1 70.5 M 233.1 70.5 L 223.5 65.4 M 223.5 65.4 L 212.9 62.8 M 115.4 63.4 L 115.4 75.3 M 115.4 75.3 L 99.6 75.3 M 99.6 75.3 L 99.6 63.4 M 99.6 63.4 L 91.5 65.4 M 91.5 65.4 L 81.9 70.5 M 81.9 70.5 L 73.8 77.6 M 73.8 77.6 L 67.6 86.6 M 67.6 86.6 L 63.8 96.7 M 63.8 96.7 L 63.4 99.6 M 63.4 99.6 L 75 99.6 M 75 99.6 L 75 115.4 M 75 115.4 L 63.4 115.4 M 63.4 115.4 L 63.8 118.3 M 63.8 118.3 L 67.6 128.4 M 67.6 128.4 L 73.8 137.4 M 73.8 137.4 L 81.9 144.5 M 81.9 144.5 L 91.5 149.6 M 91.5 149.6 L 99.6 151.6 M 99.6 151.6 L 99.6 139.7 M 99.6 139.7 L 115.4 139.7 M 115.4 139.7 L 115.4 151.6 M 115.4 151.6 L 123.5 149.6 M 123.5 149.6 L 133.1 144.5 M 133.1 144.5 L 141.2 137.4 M 141.2 137.4 L 147.4 128.4 M 147.4 128.4 L 151.2 118.3 M 151.2 118.3 L 151.6 115.4 M 151.6 115.4 L 140 115.4 M 140 115.4 L 140 99.6 M 140 99.6 L 151.6 99.6 M 151.6 99.6 L 151.2 96.7 M 151.2 96.7 L 147.4 86.6 M 147.4 86.6 L 141.2 77.6 M 141.2 77.6 L 133.1 70.5 M 133.1 70.5 L 123.5 65.4 M 123.5 65.4 L 115.4 63.4 M 25.1 27 L 290 27 M 25.1 29 L 290 29 M 25.1 30.9 L 290 30.9 M 25.1 32.9 L 290 32.9 M 25.1 34.8 L 290 34.8 M 25.1 36.8 L 290 36.8 M 25.1 38.7 L 290 38.7 M 25.1 40.6 L 290 40.6 M 25.1 42.6 L 290 42.6 M 25.1 44.5 L 290 44.5 M 25.1 46.5 L 290 46.5 M 25.1 48.4 L 290 48.4 M 25.1 50.4 L 290 50.4 M 25.1 52.3 L 290 52.3 M 25.1 54.3 L 290 54.3 M 25.1 56.2 L 290 56.2 M 25.1 58.2 L 290 58.2 M 25.1 60.1 L 290 60.1 M 25.1 62.1 L 290 62.1 M 25.1 64 L 96.9 64 M 99.6 64 L 115.4 64 M 118.1 64 L 196.9 64 M 218.1 64 L 290 64 M 25.1 66 L 90.4 66 M 99.6 66 L 115.4 66 M 124.6 66 L 190.4 66 M 224.6 66 L 290 66 M 25.1 67.9 L 86.6 67.9 M 99.6 67.9 L 115.4 67.9 M 128.4 67.9 L 186.6 67.9 M 228.4 67.9 L 290 67.9 M 25.1 69.9 L 82.9 69.9 M 99.6 69.9 L 115.4 69.9 M 132.1 69.9 L 182.9 69.9 M 232.1 69.9 L 290 69.9 M 25.1 71.8 L 80.3 71.8 M 99.6 71.8 L 115.4 71.8 M 134.7 71.8 L 180.3 71.8 M 234.7 71.8 L 290 71.8 M 25.1 73.8 L 78.1 73.8 M 99.6 73.8 L 115.4 73.8 M 136.9 73.8 L 178.1 73.8 M 236.9 73.8 L 290 73.8 M 25.1 75.7 L 75.9 75.7 M 139.1 75.7 L 175.9 75.7 M 239.1 75.7 L 290 75.7 M 25.1 77.7 L 73.7 77.7 M 141.3 77.7 L 173.7 77.7 M 241.3 77.7 L 290 77.7 M 25.1 79.6 L 72.4 79.6 M 142.6 79.6 L 172.4 79.6 M 242.6 79.6 L 290 79.6 M 25.1 81.6 L 71 81.6 M 144 81.6 L 171 81.6 M 244 81.6 L 290 81.6 M 25.1 83.5 L 69.7 83.5 M 145.3 83.5 L 169.7 83.5 M 245.3 83.5 L 290 83.5 M 25.1 85.5 L 68.4 85.5 M 146.6 85.5 L 168.4 85.5 M 246.6 85.5 L 290 85.5 M 25.1 87.4 L 67.3 87.4 M 147.7 87.4 L 167.3 87.4 M 247.7 87.4 L 290 87.4 M 25.1 89.4 L 66.6 89.4 M 148.4 89.4 L 166.6 89.4 M 248.4 89.4 L 290 89.4 M 25.1 91.4 L 65.8 91.4 M 149.2 91.4 L 165.8 91.4 M 249.2 91.4 L 290 91.4 M 25.1 93.3 L 65.1 93.3 M 149.9 93.3 L 165.1 93.3 M 249.9 93.3 L 290 93.3 M 25.1 95.3 L 64.3 95.3 M 150.7 95.3 L 164.3 95.3 M 250.7 95.3 L 290 95.3 M 25.1 97.2 L 63.7 97.2 M 151.3 97.2 L 163.7 97.2 M 251.3 97.2 L 290 97.2 M 25.1 99.2 L 63.5 99.2 M 151.5 99.2 L 163.5 99.2 M 251.5 99.2 L 290 99.2 M 25.1 101.1 L 75 101.1 M 140 101.1 L 163.2 101.1 M 251.8 101.1 L 290 101.1 M 25.1 103.1 L 75 103.1 M 140 103.1 L 163 103.1 M 252 103.1 L 290 103.1 M 25.1 105 L 75 105 M 140 105 L 162.7 105 M 252.3 105 L 290 105 M 25.1 106.9 L 75 106.9 M 140 106.9 L 162.5 106.9 M 252.5 106.9 L 290 106.9 M 25.1 108.9 L 75 108.9 M 140 108.9 L 162.6 108.9 M 252.4 108.9 L 290 108.9 M 25.1 110.8 L 75 110.8 M 140 110.8 L 162.9 110.8 M 252.1 110.8 L 290 110.8 M 25.1 112.8 L 75 112.8 M 140 112.8 L 163.1 112.8 M 251.9 112.8 L 290 112.8 M 25.1 114.7 L 75 114.7 M 140 114.7 L 163.3 114.7 M 251.7 114.7 L 290 114.7 M 25.1 116.7 L 63.6 116.7 M 151.4 116.7 L 163.6 116.7 M 251.4 116.7 L 290 116.7 M 25.1 118.6 L 63.9 118.6 M 151.1 118.6 L 163.9 118.6 M 251.1 118.6 L 290 118.6 M 25.1 120.6 L 64.6 120.6 M 150.4 120.6 L 164.6 120.6 M 250.4 120.6 L 290 120.6 M 25.1 122.5 L 65.4 122.5 M 149.6 122.5 L 165.4 122.5 M 249.6 122.5 L 290 122.5 M 25.1 124.5 L 66.1 124.5 M 148.9 124.5 L 166.1 124.5 M 248.9 124.5 L 290 124.5 M 25.1 126.4 L 66.9 126.4 M 148.1 126.4 L 166.9 126.4 M 248.1 126.4 L 290 126.4 M 25.1 128.4 L 67.6 128.4 M 147.4 128.4 L 167.6 128.4 M 247.4 128.4 L 290 128.4 M 25.1 130.3 L 68.9 130.3 M 146.1 130.3 L 168.9 130.3 M 246.1 130.3 L 290 130.3 M 25.1 132.3 L 70.3 132.3 M 144.7 132.3 L 170.3 132.3 M 244.7 132.3 L 290 132.3 M 25.1 134.2 L 71.6 134.2 M 143.4 134.2 L 171.6 134.2 M 243.4 134.2 L 290 134.2 M 25.1 136.2 L 73 136.2 M 142 136.2 L 173 136.2 M 242 136.2 L 290 136.2 M 25.1 138.1 L 74.6 138.1 M 140.4 138.1 L 174.6 138.1 M 240.4 138.1 L 290 138.1 M 25.1 140.1 L 76.8 140.1 M 99.6 140.1 L 115.4 140.1 M 138.2 140.1 L 176.8 140.1 M 238.2 140.1 L 290 140.1 M 25.1 142 L 79 142 M 99.6 142 L 115.4 142 M 136 142 L 179 142 M 236 142 L 290 142 M 25.1 144 L 81.2 144 M 99.6 144 L 115.4 144 M 133.8 144 L 181.2 144 M 233.8 144 L 290 144 M 25.1 145.9 L 84.5 145.9 M 99.6 145.9 L 115.4 145.9 M 130.5 145.9 L 184.5 145.9 M 230.5 145.9 L 290 145.9 M 25.1 147.9 L 88.2 147.9 M 99.6 147.9 L 115.4 147.9 M 126.8 147.9 L 188.2 147.9 M 226.8 147.9 L 290 147.9 M 25.1 149.8 L 92.4 149.8 M 99.6 149.8 L 115.4 149.8 M 122.6 149.8 L 192.4 149.8 M 222.6 149.8 L 290 149.8 M 25.1 151.8 L 200.3 151.8 M 214.7 151.8 L 290 151.8 M 25.1 153.7 L 290 153.7 M 25.1 155.7 L 290 155.7 M 25.1 157.7 L 290 157.7 M 25.1 159.6 L 290 159.6 M 25.1 161.6 L 290 161.6 M 25.1 163.5 L 99.2 163.5 M 99.6 163.5 L 115.4 163.5 M 115.8 163.5 L 199.2 163.5 M 215.8 163.5 L 290 163.5 M 25.1 165.5 L 91.4 165.5 M 99.6 165.5 L 115.4 165.5 M 123.6 165.5 L 191.4 165.5 M 223.6 165.5 L 290 165.5 M 25.1 167.4 L 87.7 167.4 M 99.6 167.4 L 115.4 167.4 M 127.3 167.4 L 187.7 167.4 M 227.3 167.4 L 290 167.4 M 25.1 169.4 L 84 169.4 M 99.6 169.4 L 115.4 169.4 M 131 169.4 L 184 169.4 M 231 169.4 L 290 169.4 M 25.1 171.3 L 80.9 171.3 M 99.6 171.3 L 115.4 171.3 M 134.1 171.3 L 180.9 171.3 M 234.1 171.3 L 290 171.3 M 25.1 173.2 L 78.7 173.2 M 99.6 173.2 L 115.4 173.2 M 136.3 173.2 L 178.7 173.2 M 236.3 173.2 L 290 173.2 M 25.1 175.2 L 76.5 175.2 M 99.6 175.2 L 115.4 175.2 M 138.5 175.2 L 176.5 175.2 M 238.5 175.2 L 290 175.2 M 25.1 177.1 L 74.3 177.1 M 140.7 177.1 L 174.3 177.1 M 240.7 177.1 L 290 177.1 M 25.1 179.1 L 72.8 179.1 M 142.2 179.1 L 172.8 179.1 M 242.2 179.1 L 290 179.1 M 25.1 181 L 71.4 181 M 143.6 181 L 171.4 181 M 243.6 181 L 290 181 M 25.1 183 L 70.1 183 M 144.9 183 L 170.1 183 M 244.9 183 L 290 183 M 25.1 184.9 L 68.7 184.9 M 146.3 184.9 L 168.7 184.9 M 246.3 184.9 L 290 184.9 M 25.1 186.9 L 67.5 186.9 M 147.5 186.9 L 167.5 186.9 M 247.5 186.9 L 290 186.9 M 25.1 188.8 L 66.8 188.8 M 148.2 188.8 L 166.8 188.8 M 248.2 188.8 L 290 188.8 M 25.1 190.8 L 66 190.8 M 149 190.8 L 166 190.8 M 249 190.8 L 290 190.8 M 25.1 192.7 L 65.3 192.7 M 149.7 192.7 L 165.3 192.7 M 249.7 192.7 L 290 192.7 M 25.1 194.7 L 64.5 194.7 M 150.5 194.7 L 164.5 194.7 M 250.5 194.7 L 290 194.7 M 25.1 196.6 L 63.8 196.6 M 151.2 196.6 L 163.8 196.6 M 251.2 196.6 L 290 196.6 M 25.1 198.6 L 63.5 198.6 M 151.5 198.6 L 163.5 198.6 M 251.5 198.6 L 290 198.6 M 25.1 200.5 L 75 200.5 M 140 200.5 L 163.3 200.5 M 251.7 200.5 L 290 200.5 M 25.1 202.5 L 75 202.5 M 140 202.5 L 163.1 202.5 M 251.9 202.5 L 290 202.5 M 25.1 204.4 L 75 204.4 M 140 204.4 L 162.8 204.4 M 252.2 204.4 L 290 204.4 M 25.1 206.4 L 75 206.4 M 140 206.4 L 162.6 206.4 M 252.4 206.4 L 290 206.4 M 25.1 208.3 L 75 208.3 M 140 208.3 L 162.5 208.3 M 252.5 208.3 L 290 208.3 M 25.1 210.3 L 75 210.3 M 140 210.3 L 162.8 210.3 M 252.2 210.3 L 290 210.3 M 25.1 212.2 L 75 212.2 M 140 212.2 L 163 212.2 M 252 212.2 L 290 212.2 M 25.1 214.2 L 75 214.2 M 140 214.2 L 163.2 214.2 M 251.8 214.2 L 290 214.2 M 25.1 216.1 L 63.5 216.1 M 151.5 216.1 L 163.5 216.1 M 251.5 216.1 L 290 216.1 M 25.1 218.1 L 63.7 218.1 M 151.3 218.1 L 163.7 218.1 M 251.3 218.1 L 290 218.1 M 25.1 220.1 L 64.4 220.1 M 150.6 220.1 L 164.4 220.1 M 250.6 220.1 L 290 220.1 M 25.1 222 L 65.2 222 M 149.8 222 L 165.2 222 M 249.8 222 L 290 222 M 25.1 224 L 65.9 224 M 149.1 224 L 165.9 224 M 249.1 224 L 290 224 M 25.1 225.9 L 66.6 225.9 M 148.4 225.9 L 166.6 225.9 M 248.4 225.9 L 290 225.9 M 25.1 227.9 L 67.4 227.9 M 147.6 227.9 L 167.4 227.9 M 247.6 227.9 L 290 227.9 M 25.1 229.8 L 68.6 229.8 M 146.4 229.8 L 168.6 229.8 M 246.4 229.8 L 290 229.8 M 25.1 231.8 L 69.9 231.8 M 145.1 231.8 L 169.9 231.8 M 245.1 231.8 L 290 231.8 M 25.1 233.7 L 71.2 233.7 M 143.8 233.7 L 171.2 233.7 M 243.8 233.7 L 290 233.7 M 25.1 235.6 L 72.6 235.6 M 142.4 235.6 L 172.6 235.6 M 242.4 235.6 L 290 235.6 M 25.1 237.6 L 74 237.6 M 141 237.6 L 174 237.6 M 241 237.6 L 290 237.6 M 25.1 239.5 L 76.2 239.5 M 138.8 239.5 L 176.2 239.5 M 238.8 239.5 L 290 239.5 M 25.1 241.5 L 78.4 241.5 M 99.6 241.5 L 115.4 241.5 M 136.6 241.5 L 178.4 241.5 M 236.6 241.5 L 290 241.5 M 25.1 243.4 L 80.6 243.4 M 99.6 243.4 L 115.4 243.4 M 134.4 243.4 L 180.6 243.4 M 234.4 243.4 L 290 243.4 M 25.1 245.4 L 83.4 245.4 M 99.6 245.4 L 115.4 245.4 M 131.6 245.4 L 183.4 245.4 M 231.6 245.4 L 290 245.4 M 25.1 247.3 L 87.2 247.3 M 99.6 247.3 L 115.4 247.3 M 127.8 247.3 L 187.2 247.3 M 227.8 247.3 L 290 247.3 M 25.1 249.3 L 90.9 249.3 M 99.6 249.3 L 115.4 249.3 M 124.1 249.3 L 190.9 249.3 M 224.1 249.3 L 290 249.3 M 25.1 251.2 L 98.1 251.2 M 99.6 251.2 L 115.4 251.2 M 116.9 251.2 L 198.1 251.2 M 216.9 251.2 L 290 251.2 M 25.1 253.2 L 290 253.2 M 25.1 255.1 L 290 255.1 M 25.1 257.1 L 290 257.1 M 25.1 259 L 290 259 M 25.1 261 L 290 261 M 25.1 262.9 L 290 262.9 M 25.1 264.9 L 290 264.9 M 25.1 266.8 L 290 266.8 M 25.1 268.8 L 290 268.8 M 25.1 270.7 L 290 270.7 M 25.1 272.7 L 290 272.7 M 25.1 274.6 L 290 274.6 M 25.1 276.6 L 290 276.6 M 25.1 278.5 L 290 278.5 M 25.1 280.5 L 290 280.5 M 25.1 282.4 L 290 282.4 M 25.1 284.4 L 290 284.4 M 25.1 286.4 L 290 286.4 M 25.1 288.3 L 290 288.3 M 25.1 290.3 L 290 290.3 M 25.1 292.2 L 290 292.2 M 25.1 294.2 L 290 294.2 M 25.1 296.1 L 290 296.1 M 25.1 298.1 L 290 298.1 M 25.1 300 L 290 300 M 25.1 301.9 L 290 301.9 M 25.1 303.9 L 290 303.9 M 25.1 305.8 L 290 305.8 M 25.1 307.8 L 290 307.8 M 25.1 309.7 L 290 309.7 M 25.1 311.7 L 290 311.7 M 25.1 313.6 L 290 313.6 M 25.1 315.6 L 290 315.6 M 25.1 317.5 L 290 317.5 M 25.1 319.5 L 290 319.5 M 25.1 321.4 L 290 321.4 M 25.1 323.4 L 290 323.4 M 25.1 325.3 L 290 325.3 M 25.1 327.3 L 290 327.3 M 25.1 329.2 L 290 329.2 M 25.1 331.2 L 290 331.2 M 25.1 333.1 L 290 333.1 M 25.1 335.1 L 290 335.1 M 25.1 337 L 290 337 M 25.1 339 L 290 339 M 25.1 340.9 L 290 340.9 M 25.1 342.9 L 290 342.9 M 25.1 344.8 L 290 344.8 M 25.1 346.8 L 290 346.8 M 25.1 348.7 L 290 348.7 M 25.1 350.7 L 290 350.7 M 25.1 352.7 L 290 352.7 M 25.1 354.6 L 290 354.6 M 25.1 356.6 L 290 356.6 M 25.1 358.5 L 290 358.5 M 25.1 360.5 L 290 360.5 M 25.1 362.4 L 290 362.4 M 25.1 364.4 L 290 364.4 M 25.1 366.3 L 290 366.3 M 25.1 368.2 L 290 368.2 M 25.1 370.2 L 290 370.2 M 25.1 372.1 L 290 372.1 M 25.1 374.1 L 290 374.1 M 25.1 376 L 290 376 M 25.1 378 L 290 378 M 25.1 379.9 L 290 379.9 M 25.1 381.9 L 290 381.9 M 25.1 383.8 L 290 383.8 M 25.1 385.8 L 290 385.8 M 25.1 387.7 L 290 387.7 M 25.1 389.7 L 290 389.7 M 25.1 391.6 L 290 391.6 M 25.1 393.6 L 290 393.6 M 25.1 395.5 L 290 395.5 M 25.1 397.5 L 290 397.5 M 25.1 399.4 L 290 399.4 M 25.1 401.4 L 290 401.4 M 25.1 403.3 L 290 403.3 M 25.1 405.3 L 290 405.3 M 25.1 407.2 L 290 407.2 M 25.1 409.2 L 290 409.2 M 25.1 411.1 L 290 411.1 M 25.1 413.1 L 290 413.1 M 25.1 415.1 L 290 415.1 M 25.1 417 L 290 417 M 25.1 419 L 290 419 M 25.1 420.9 L 290 420.9 M 25.1 422.9 L 290 422.9 M 25.1 424.8 L 290 424.8 M 25.1 426.8 L 290 426.8 M 25.1 428.7 L 290 428.7 M 25.1 430.6 L 290 430.6 M 25.1 432.6 L 290 432.6 M 25.1 434.5 L 290 434.5 M 25.1 436.5 L 290 436.5 M 25.1 438.4 L 290 438.4 M 25.1 440.4 L 290 440.4 M 25.1 442.3 L 290 442.3 M 25.1 444.3 L 290 444.3 M 25.1 446.2 L 290 446.2 M 25.1 448.2 L 290 448.2 M 25.1 450.1 L 290 450.1 M 25.1 452.1 L 290 452.1 M 25.1 454 L 290 454 M 25.1 456 L 290 456 M 25.1 457.9 L 290 457.9 M 25.1 459.9 L 290 459.9 M 25.1 461.8 L 290 461.8 M 25.1 463.8 L 290 463.8 M 25.1 465.7 L 290 465.7 M 25.1 467.7 L 290 467.7 M 25.1 469.6 L 290 469.6 M 25.1 471.6 L 290 471.6 M 25.1 473.5 L 290 473.5 M 25.1 475.5 L 290 475.5 M 25.1 477.4 L 290 477.4 M 25.1 479.4 L 290 479.4 M 25.1 481.4 L 290 481.4 M 25.1 483.3 L 290 483.3 M 25.1 485.3 L 290 485.3 M 25.1 487.2 L 290 487.2 M 25.1 489.2 L 290 489.2 M 25.1 491.1 L 290 491.1 M 25.1 493.1 L 290 493.1 M 25.1 495 L 290 495 M 25.1 496.9 L 290 496.9 M 25.1 498.9 L 290 498.9 M 25.1 500.8 L 290 500.8 M 25.1 502.8 L 290 502.8 M 25.1 504.7 L 290 504.7 M 25.7 506.7 L 290 506.7 M 26.4 508.6 L 290.1 508.6 M 27 510.6 L 290.3 510.6 M 27.7 512.5 L 290.8 512.5 M 28.3 514.5 L 291.4 514.5 M 29 516.4 L 292.5 516.4 M 29.6 518.4 L 293.8 518.4 M 30.3 520.3 L 295.6 520.3 M 30.9 522.3 L 298.1 522.3 M 31.6 524.2 L 302.5 524.2 M 32.2 526.2 L 357.5 526.2 M 32.9 528.1 L 357.5 528.1 M 33.5 530.1 L 357.5 530.1 M 34.2 532 L 357.5 532 M 34.8 534 L 357.5 534 M 35.5 535.9 L 357.5 535.9 M 36.1 537.9 L 352.6 537.9 M 36.8 539.8 L 349.9 539.8 M 37.4 541.8 L 347.7 541.8 M 38.1 543.7 L 345.8 543.7 M 38.7 545.7 L 343.8 545.7 M 39.4 547.7 L 341.8 547.7 M 40 549.6 L 339.9 549.6 M 40.6 551.6 L 337.9 551.6 M 41.3 553.5 L 336 553.5 M 41.9 555.5 L 334 555.5 M 42.6 557.4 L 332.1 557.4 M 43.3 559.4 L 330.1 559.4 M 43.9 561.3 L 328.2 561.3 M 44.6 563.2 L 326.2 563.2 M 45.2 565.2 L 324.3 565.2 M 45.9 567.1 L 322.3 567.1 M 46.5 569.1 L 320.4 569.1 M 47.2 571 L 318.4 571 M 47.8 573 L 316.5 573 M 48.5 574.9 L 314.5 574.9 M 49.1 576.9 L 312.6 576.9 M 49.8 578.8 L 310.6 578.8 M 50.4 580.8 L 308.7 580.8 M 51.1 582.7 L 306.8 582.7 M 51.7 584.7 L 304.8 584.7 M 52.4 586.6 L 302.9 586.6 M 53 588.6 L 300.9 588.6 M 53.7 590.5 L 299 590.5 M 54.3 592.5 L 297 592.5 M 55 594.4 L 295.1 594.4 M 55.6 596.4 L 293.1 596.4 M 56.3 598.3 L 291.2 598.3 M 884.2 598.3 L 1077.5 598.3 M 56.9 600.3 L 289.2 600.3 M 882.2 600.3 L 1077.5 600.3 M 57.6 602.2 L 287.3 602.2 M 880.3 602.2 L 1077.6 602.2 M 58.2 604.2 L 285.3 604.2 M 878.3 604.2 L 1077.6 604.2 M 58.9 606.1 L 283.4 606.1 M 876.4 606.1 L 1077.6 606.1 M 59.5 608.1 L 281.4 608.1 M 874.4 608.1 L 1077.7 608.1 M 60.2 610.1 L 279.5 610.1 M 872.1 610.1 L 1077.7 610.1 M 60.8 612 L 277.5 612 M 868.7 612 L 1077.7 612 M 61.5 614 L 275.5 614 M 426.6 614 L 1077.7 614 M 62.1 615.9 L 273.6 615.9 M 424.6 615.9 L 1077.8 615.9 M 62.8 617.9 L 271.6 617.9 M 422.7 617.9 L 1077.8 617.9 M 63.4 619.8 L 246.4 619.8 M 268.6 619.8 L 269.7 619.8 M 420.7 619.8 L 1077.8 619.8 M 64.1 621.8 L 241.1 621.8 M 418.8 621.8 L 1077.9 621.8 M 64.7 623.7 L 237.4 623.7 M 416.8 623.7 L 1077.9 623.7 M 65.4 625.6 L 234.2 625.6 M 414.9 625.6 L 1077.9 625.6 M 66 627.6 L 232 627.6 M 312.9 627.6 L 317.9 627.6 M 412.9 627.6 L 1077.9 627.6 M 66.7 629.5 L 229.8 629.5 M 311 629.5 L 317.9 629.5 M 411 629.5 L 1078 629.5 M 67.3 631.5 L 227.7 631.5 M 309 631.5 L 317.9 631.5 M 409 631.5 L 1078 631.5 M 68 633.4 L 226.4 633.4 M 307.1 633.4 L 317.9 633.4 M 407.1 633.4 L 1078 633.4 M 68.6 635.4 L 225 635.4 M 305.1 635.4 L 317.9 635.4 M 405.1 635.4 L 1078.1 635.4 M 69.3 637.3 L 223.7 637.3 M 303.2 637.3 L 317.9 637.3 M 403.2 637.3 L 1078.1 637.3 M 69.9 639.3 L 222.4 639.3 M 301.2 639.3 L 317.9 639.3 M 401.2 639.3 L 1078.1 639.3 M 70.6 641.2 L 221.7 641.2 M 299.3 641.2 L 317.9 641.2 M 399.3 641.2 L 1078.1 641.2 M 71.2 643.2 L 220.9 643.2 M 297.3 643.2 L 317.9 643.2 M 397.3 643.2 L 1078.2 643.2 M 71.9 645.1 L 220.2 645.1 M 295.4 645.1 L 317.9 645.1 M 397.1 645.1 L 1078.2 645.1 M 72.5 647.1 L 219.4 647.1 M 295.6 647.1 L 317.9 647.1 M 397.1 647.1 L 1078.2 647.1 M 73.2 649 L 219 649 M 296 649 L 317.9 649 M 397.1 649 L 1078.2 649 M 73.8 651 L 218.7 651 M 296.3 651 L 317.9 651 M 397.1 651 L 1078.3 651 M 74.5 652.9 L 218.5 652.9 M 296.5 652.9 L 317.9 652.9 M 397.1 652.9 L 1078.3 652.9 M 75.1 654.9 L 218.2 654.9 M 296.8 654.9 L 317.9 654.9 M 397.1 654.9 L 1078.3 654.9 M 75.8 656.8 L 218 656.8 M 297 656.8 L 317.9 656.8 M 397.1 656.8 L 1078.4 656.8 M 76.4 658.8 L 218.1 658.8 M 296.9 658.8 L 317.9 658.8 M 397.1 658.8 L 1078.4 658.8 M 77.1 660.7 L 218.3 660.7 M 296.7 660.7 L 317.9 660.7 M 397.1 660.7 L 1078.4 660.7 M 77.7 662.7 L 218.6 662.7 M 296.4 662.7 L 317.9 662.7 M 397.1 662.7 L 1078.4 662.7 M 78.4 664.6 L 218.8 664.6 M 296.2 664.6 L 317.9 664.6 M 397.1 664.6 L 1078.5 664.6 M 79 666.6 L 219 666.6 M 296 666.6 L 317.9 666.6 M 397.1 666.6 L 1078.5 666.6 M 79.7 668.5 L 219.7 668.5 M 295.3 668.5 L 317.9 668.5 M 397.1 668.5 L 1078.5 668.5 M 80.3 670.5 L 220.4 670.5 M 294.6 670.5 L 317.9 670.5 M 397.1 670.5 L 1078.6 670.5 M 81 672.4 L 221.2 672.4 M 293.8 672.4 L 317.9 672.4 M 397.1 672.4 L 1078.6 672.4 M 81.6 674.4 L 221.9 674.4 M 293.1 674.4 L 317.9 674.4 M 397.1 674.4 L 1078.6 674.4 M 82.3 676.4 L 222.8 676.4 M 292.2 676.4 L 317.9 676.4 M 397.1 676.4 L 1078.6 676.4 M 82.9 678.3 L 224.1 678.3 M 290.9 678.3 L 317.9 678.3 M 397.1 678.3 L 1078.7 678.3 M 83.6 680.3 L 225.5 680.3 M 289.5 680.3 L 317.9 680.3 M 397.1 680.3 L 1078.7 680.3 M 84.2 682.2 L 226.8 682.2 M 288.2 682.2 L 317.9 682.2 M 397.1 682.2 L 1078.7 682.2 M 84.9 684.2 L 228.3 684.2 M 286.7 684.2 L 317.9 684.2 M 397.1 684.2 L 1078.8 684.2 M 85.5 686.1 L 230.5 686.1 M 284.5 686.1 L 317.9 686.1 M 397.1 686.1 L 1078.8 686.1 M 86.2 688.1 L 232.7 688.1 M 282.3 688.1 L 318 688.1 M 397 688.1 L 1078.8 688.1 M 86.8 690 L 234.9 690 M 280.1 690 L 318.4 690 M 396.6 690 L 1078.8 690 M 87.5 691.9 L 238.6 691.9 M 276.4 691.9 L 319.2 691.9 M 395.8 691.9 L 1078.9 691.9 M 88.1 693.9 L 242.3 693.9 M 272.7 693.9 L 320.7 693.9 M 394.3 693.9 L 1078.9 693.9 M 88.8 695.8 L 248.9 695.8 M 266.1 695.8 L 323.2 695.8 M 391.8 695.8 L 1078.9 695.8 M 89.4 697.8 L 1079 697.8 M 90.1 699.7 L 1079 699.7 M 90.7 701.7 L 1079 701.7 M 91.4 703.6 L 1079 703.6 M 92 705.6 L 1079.1 705.6 M 92.7 707.5 L 1079.1 707.5 M 93.3 709.5 L 1079.1 709.5 M 94 711.4 L 1079.2 711.4 M 94.6 713.4 L 1079.2 713.4 M 95.3 715.3 L 1079.2 715.3 M 95.9 717.3 L 1079.2 717.3 M 96.6 719.2 L 1079.3 719.2 M 97.2 721.2 L 1079.3 721.2 M 97.9 723.1 L 1079.3 723.1 M 98.5 725.1 L 1079.4 725.1 M 99.2 727 L 1079.4 727 M 99.8 729 L 1079.4 729 M 100.5 730.9 L 1079.4 730.9 M 101.1 732.9 L 1079.5 732.9 M 101.8 734.8 L 1079.5 734.8 M 102.4 736.8 L 1079.5 736.8 M 103.1 738.7 L 1079.5 738.7 M 103.7 740.7 L 1079.6 740.7 M 104.4 742.7 L 1079.6 742.7 M 105 744.6 L 1079.6 744.6 M 105.6 746.6 L 1079.7 746.6 M 106.3 748.5 L 1079.7 748.5 M 106.9 750.5 L 1079.7 750.5 M 107.6 752.4 L 1079.7 752.4 M 108.3 754.4 L 1079.8 754.4 M 108.9 756.3 L 1079.8 756.3 M 109.6 758.2 L 1079.8 758.2 M 110.2 760.2 L 1079.9 760.2 M 110.9 762.1 L 1079.9 762.1 M 111.5 764.1 L 1079.9 764.1 M 112.2 766 L 1079.9 766 M 112.8 768 L 1080 768 M 113.5 769.9 L 1080 769.9 M 114.1 771.9 L 1080.1 771.9 M 114.8 773.8 L 1080.1 773.8 M 115.4 775.8 L 1080.1 775.8 M 116.1 777.7 L 1080.1 777.7 M 116.7 779.7 L 1080.1 779.7 M 117.4 781.6 L 1080.2 781.6 M 118 783.6 L 1080.2 783.6 M 118.7 785.5 L 1080.3 785.5 M 119.3 787.5 L 1080.3 787.5 M 120 789.4 L 1080.3 789.4"/><path stroke-width="16" fill="none" d="M 905.5 510.5 L 959.1 510.5"/><path stroke-width="25" fill="none" d="M 505.5 657.5 L 424.5 738.5"/><path stroke-width="16" fill="none" d="M 866.5 488.5 L 866.5 531.5 M 1152 410.5 L 1083.5 410.5 M 861.5 595.5 L 419.5 595.5 M 866.5 531.5 L 844.5 553.5 M 361.5 553.5 L 257.5 657.5 M 1055.5 438.5 L 1055.5 603.5 M 1660.5 560.5 L 1757.5 657.5 M 959.1 460.5 L 894.5 460.5 M 959.1 560.5 L 896.5 560.5 M 419.5 595.5 L 357.5 657.5 M 1083.5 410.5 L 1055.5 438.5 M 844.5 553.5 L 361.5 553.5"/><path stroke-width="25" fill="none" d="M 107.5 107.5 L 107.5 207.5 M 959.1 657.5 L 505.5 657.5"/><path stroke-width="16" fill="none" d="M 1907.5 507.5 L 1757.5 657.5 M 1152 560.5 L 1660.5 560.5 M 1907.5 107.5 L 1907.5 507.5 M 894.5 460.5 L 866.5 488.5 M 896.5 560.5 L 861.5 595.5"/><use x="905.5" y="510.5" xlink:href="#tool-D13-pad-1008"/><use x="959.1" y="657.5" xlink:href="#tool-D14-pad-1009"/><use x="1155.9" y="657.5" xlink:href="#tool-D15-pad-1010"/><use x="1757.5" y="657.5" xlink:href="#tool-D16-pad-1011"/><use x="1857.5" y="657.5" xlink:href="#tool-D17-pad-1012"/><use x="107.5" y="207.5" xlink:href="#tool-D18-pad-1013"/><use x="107.5" y="107.5" xlink:href="#tool-D18-pad-1013"/><use x="207.5" y="207.5" xlink:href="#tool-D18-pad-1013"/><use x="207.5" y="107.5" xlink:href="#tool-D18-pad-1013"/><use x="1907.5" y="207.5" xlink:href="#tool-D18-pad-1013"/><use x="1907.5" y="107.5" xlink:href="#tool-D18-pad-1013"/><use x="2007.5" y="207.5" xlink:href="#tool-D18-pad-1013"/><use x="2007.5" y="107.5" xlink:href="#tool-D18-pad-1013"/><use x="257.5" y="657.5" xlink:href="#tool-D19-pad-1014"/><use x="357.5" y="657.5" xlink:href="#tool-D20-pad-1015"/><use x="963" y="410.5" xlink:href="#tool-D21-pad-1016"/><use x="963" y="460.5" xlink:href="#tool-D21-pad-1016"/><use x="963" y="510.5" xlink:href="#tool-D21-pad-1016"/><use x="963" y="560.5" xlink:href="#tool-D21-pad-1016"/><use x="1152" y="410.5" xlink:href="#tool-D21-pad-1016"/><use x="1152" y="460.5" xlink:href="#tool-D21-pad-1016"/><use x="1152" y="510.5" xlink:href="#tool-D21-pad-1016"/><use x="1152" y="560.5" xlink:href="#tool-D21-pad-1016"/></g><mask id="pcb_bottom_mech-mask" fill="#fff" stroke="#fff" fill-rule="evenodd"><path stroke-width="0" d="M 7.5 7.5 L 307.5 7.5 L 307.5 507.5 L 807.5 507.5 L 857.5 357.5 L 1257.5 357.5 L 1307.5 507.5 L 1807.5 507.5 L 1807.5 7.5 L 2107.5 7.5 L 2107.5 507.5 L 2007.5 807.5 L 107.5 807.5 L 7.5 507.5 Z"/><g id="pcb_bottom-drl" fill="#000" stroke="#000"><use x="905.5" y="510.5" xlink:href="#tool-T10-pad-1000"/><use x="959.1" y="657.5" xlink:href="#tool-T11-pad-1001"/><use x="1155.9" y="657.5" xlink:href="#tool-T11-pad-1001"/><use x="1757.5" y="657.5" xlink:href="#tool-T12-pad-1002"/><use x="1857.5" y="657.5" xlink:href="#tool-T12-pad-1002"/><use x="107.5" y="207.5" xlink:href="#tool-T13-pad-1003"/><use x="107.5" y="107.5" xlink:href="#tool-T13-pad-1003"/><use x="207.5" y="207.5" xlink:href="#tool-T13-pad-1003"/><use x="207.5" y="107.5" xlink:href="#tool-T13-pad-1003"/><use x="1907.5" y="207.5" xlink:href="#tool-T13-pad-1003"/><use x="1907.5" y="107.5" xlink:href="#tool-T13-pad-1003"/><use x="2007.5" y="207.5" xlink:href="#tool-T13-pad-1003"/><use x="2007.5" y="107.5" xlink:href="#tool-T13-pad-1003"/><use x="357.5" y="657.5" xlink:href="#tool-T14-pad-1004"/><use x="257.5" y="657.5" xlink:href="#tool-T14-pad-1004"/></g></mask></defs><g mask="url(#pcb_bottom_mech-mask)" transform="translate(2115,815) scale(-1,-1)"><rect x="7.5" y="7.5" width="2100" height="800" fill="currentColor" class="pcb_board-fr4"/><use class="pcb_board-cu" xlink:href="#pcb_bottom-cu"/><g><defs><g id="pcb_bottom-sm" fill="currentColor" stroke="currentColor"><use x="905.5" y="510.5" xlink:href="#tool-D10-pad-1019"/><use x="959.1" y="657.5" xlink:href="#tool-D11-pad-1020"/><use x="1155.9" y="657.5" xlink:href="#tool-D12-pad-1021"/><use x="1757.5" y="657.5" xlink:href="#tool-D13-pad-1022"/><use x="1857.5" y="657.5" xlink:href="#tool-D14-pad-1023"/><use x="107.5" y="207.5" xlink:href="#tool-D15-pad-1024"/><use x="107.5" y="107.5" xlink:href="#tool-D15-pad-1024"/><use x="207.5" y="207.5" xlink:href="#tool-D15-pad-1024"/><use x="207.5" y="107.5" xlink:href="#tool-D15-pad-1024"/><use x="1907.5" y="207.5" xlink:href="#tool-D15-pad-1024"/><use x="1907.5" y="107.5" xlink:href="#tool-D15-pad-1024"/><use x="2007.5" y="207.5" xlink:href="#tool-D15-pad-1024"/><use x="2007.5" y="107.5" xlink:href="#tool-D15-pad-1024"/><use x="257.5" y="657.5" xlink:href="#tool-D16-pad-1025"/><use x="357.5" y="657.5" xlink:href="#tool-D17-pad-1026"/><use x="967" y="406.5" xlink:href="#tool-D18-pad-1027"/><use x="967" y="456.5" xlink:href="#tool-D18-pad-1027"/><use x="967" y="506.5" xlink:href="#tool-D18-pad-1027"/><use x="967" y="556.5" xlink:href="#tool-D18-pad-1027"/><use x="1156" y="406.5" xlink:href="#tool-D18-pad-1027"/><use x="1156" y="456.5" xlink:href="#tool-D18-pad-1027"/><use x="1156" y="506.5" xlink:href="#tool-D18-pad-1027"/><use x="1156" y="556.5" xlink:href="#tool-D18-pad-1027"/></g><mask id="pcb_bottom-sm_mask" color="#000"><rect x="7.5" y="7.5" width="2100" height="800" fill="#fff"/><use xlink:href="#pcb_bottom-sm"/></mask><mask id="pcb_bottom-cu_finish-mask" color="#fff"><use xlink:href="#pcb_bottom-cu"/></mask></defs><g mask="url(#pcb_bottom-sm_mask)"><rect x="7.5" y="7.5" width="2100" height="800" fill="currentColor" class="pcb_board-sm"/><g id="pcb_bottom-ss" class="pcb_board-ss" fill="currentColor" stroke="currentColor"><path stroke-width="7.9" fill="none" d="M 1022.1 583.9 L 1022.1 387.1 M 1092.9 583.9 L 1092.9 387.1 M 1022.1 387.1 L 1092.9 387.1 M 1022.1 583.9 L 1092.9 583.9"/><use x="963" y="377" xlink:href="#tool-D11-pad-1018"/></g></g><use class="pcb_board-cf" mask="url(#pcb_bottom-cu_finish-mask)" xlink:href="#pcb_bottom-sm"/></g></g></svg>