<?xml-stylesheet href="https://s3.amazonaws.com/maker.works.boards/css/blackpcb.css" type="text/css"?><svg xmlns="http://www.w3.org/2000/svg" version="1.1" xmlns:xlink="http://www.w3.org/1999/xlink" stroke-width="0" stroke-linecap="round" stroke-linejoin="round" width="2.1in" height="0.8in" id="pcb_top" viewBox="7.5 7.5 2100 800"><defs><circle cx="0" cy="0" r="6.5" id="tool-T10-pad-1000"/><circle cx="0" cy="0" r="27.5" id="tool-T11-pad-1001"/><circle cx="0" cy="0" r="19.5" id="tool-T12-pad-1002"/><circle cx="0" cy="0" r="20" id="tool-T13-pad-1003"/><circle cx="0" cy="0" r="19.5" id="tool-T14-pad-1004"/><circle cx="0" cy="0" r="14" id="tool-D11-pad-1029"/><rect x="-39.35" y="-39.35" width="78.7" height="78.7" id="tool-D12-pad-1030"/><circle cx="0" cy="0" r="39.35" id="tool-D13-pad-1031"/><rect x="-29.55" y="-29.55" width="59.1" height="59.1" id="tool-D14-pad-1032"/><circle cx="0" cy="0" r="29.55" id="tool-D15-pad-1033"/><circle cx="0" cy="0" r="35" id="tool-D16-pad-1034"/><circle cx="0" cy="0" r="29.55" id="tool-D17-pad-1035"/><rect x="-29.5275" y="-29.5275" width="59.055" height="59.055" transform="rotate(180)" id="tool-D18-pad-1036"/><mask id="tool-D13-pad-1040-mask"><rect x="-126.95" y="-126.95" width="253.9" height="253.9" fill="#fff"/><circle cx="0" cy="0" r="121.05" fill="#000"/></mask><circle cx="0" cy="0" r="126.95" mask="url(#tool-D13-pad-1040-mask)" id="tool-D13-pad-1040"/><mask id="tool-D14-pad-1041-mask"><rect x="-126.95" y="-126.95" width="253.9" height="253.9" fill="#fff"/><circle cx="0" cy="0" r="121.05" fill="#000"/></mask><circle cx="0" cy="0" r="126.95" mask="url(#tool-D14-pad-1041-mask)" id="tool-D14-pad-1041"/><circle cx="0" cy="0" r="14" id="tool-D10-pad-1042"/><rect x="-39.35" y="-39.35" width="78.7" height="78.7" id="tool-D11-pad-1043"/><circle cx="0" cy="0" r="39.35" id="tool-D12-pad-1044"/><rect x="-29.55" y="-29.55" width="59.1" height="59.1" id="tool-D13-pad-1045"/><circle cx="0" cy="0" r="29.55" id="tool-D14-pad-1046"/><circle cx="0" cy="0" r="35" id="tool-D15-pad-1047"/><circle cx="0" cy="0" r="29.55" id="tool-D16-pad-1048"/><rect x="-29.5275" y="-29.5275" width="59.055" height="59.055" transform="rotate(180)" id="tool-D17-pad-1049"/><g id="pcb_top-cu" fill="currentColor" stroke="currentColor"><path stroke-width="2" fill="none" d="M 2089.9 504.7 L 2089.9 504.7 M 2089.9 504.7 L 1994.9 789.9 M 1994.9 789.9 L 120.1 789.9 M 120.1 789.9 L 25.1 504.7 M 25.1 504.7 L 25.1 25.1 M 25.1 25.1 L 289.9 25.1 M 289.9 25.1 L 289.9 507.5 M 289.9 507.5 L 289.9 507.5 M 289.9 507.5 L 290.3 510.9 M 290.3 510.9 L 290.3 510.9 M 290.3 510.9 L 291.3 514.2 M 291.3 514.2 L 291.3 514.2 M 291.3 514.2 L 292.9 517.3 M 292.9 517.3 L 292.9 517.3 M 292.9 517.3 L 295.1 519.9 M 295.1 519.9 L 295.1 519.9 M 295.1 519.9 L 297.7 522.1 M 297.7 522.1 L 297.7 522.1 M 297.7 522.1 L 300.8 523.7 M 300.8 523.7 L 300.8 523.7 M 300.8 523.7 L 304.1 524.7 M 304.1 524.7 L 304.1 524.7 M 304.1 524.7 L 307.5 525.1 M 307.5 525.1 L 307.5 525.1 M 307.5 525.1 L 807.5 525.1 M 807.5 525.1 L 807.5 525.1 M 807.5 525.1 L 808.1 525 M 808.1 525 L 808.8 525 M 808.8 525 L 808.8 525 M 808.8 525 L 809.8 524.8 M 809.8 524.8 L 810.9 524.7 M 810.9 524.7 L 810.9 524.7 M 810.9 524.7 L 811.5 524.5 M 811.5 524.5 L 812.1 524.4 M 812.1 524.4 L 812.1 524.4 M 812.1 524.4 L 813.2 524 M 813.2 524 L 814.2 523.7 M 814.2 523.7 L 814.2 523.7 M 814.2 523.7 L 814.8 523.4 M 814.8 523.4 L 815.3 523.2 M 815.3 523.2 L 815.3 523.2 M 815.3 523.2 L 816.3 522.6 M 816.3 522.6 L 817.3 522.1 M 817.3 522.1 L 817.3 522.1 M 817.3 522.1 L 817.7 521.7 M 817.7 521.7 L 818.2 521.4 M 818.2 521.4 L 818.2 521.4 M 818.2 521.4 L 819.1 520.6 M 819.1 520.6 L 819.9 519.9 M 819.9 519.9 L 819.9 519.9 M 819.9 519.9 L 820.3 519.4 M 820.3 519.4 L 820.8 519 M 820.8 519 L 820.8 519 M 820.8 519 L 821.4 518.1 M 821.4 518.1 L 822.1 517.3 M 822.1 517.3 L 822.1 517.3 M 822.1 517.3 L 822.4 516.7 M 822.4 516.7 L 822.7 516.2 M 822.7 516.2 L 822.7 516.2 M 822.7 516.2 L 823.2 515.2 M 823.2 515.2 L 823.7 514.2 M 823.7 514.2 L 823.7 514.2 M 823.7 514.2 L 823.9 513.6 M 823.9 513.6 L 824.2 513.1 M 824.2 513.1 L 824.2 513.1 M 824.2 513.1 L 870.1 375.1 M 870.1 375.1 L 1244.9 375.1 M 1244.9 375.1 L 1290.8 513.1 M 1290.8 513.1 L 1290.8 513.1 M 1290.8 513.1 L 1291.1 513.6 M 1291.1 513.6 L 1291.3 514.2 M 1291.3 514.2 L 1291.3 514.2 M 1291.3 514.2 L 1291.8 515.2 M 1291.8 515.2 L 1292.3 516.2 M 1292.3 516.2 L 1292.3 516.2 M 1292.3 516.2 L 1292.6 516.7 M 1292.6 516.7 L 1292.9 517.3 M 1292.9 517.3 L 1292.9 517.3 M 1292.9 517.3 L 1293.6 518.1 M 1293.6 518.1 L 1294.2 519 M 1294.2 519 L 1294.2 519 M 1294.2 519 L 1294.7 519.4 M 1294.7 519.4 L 1295.1 519.9 M 1295.1 519.9 L 1295.1 519.9 M 1295.1 519.9 L 1295.9 520.6 M 1295.9 520.6 L 1296.8 521.4 M 1296.8 521.4 L 1296.8 521.4 M 1296.8 521.4 L 1297.3 521.7 M 1297.3 521.7 L 1297.7 522.1 M 1297.7 522.1 L 1297.7 522.1 M 1297.7 522.1 L 1298.7 522.6 M 1298.7 522.6 L 1299.7 523.2 M 1299.7 523.2 L 1299.7 523.2 M 1299.7 523.2 L 1300.2 523.4 M 1300.2 523.4 L 1300.8 523.7 M 1300.8 523.7 L 1300.8 523.7 M 1300.8 523.7 L 1301.8 524 M 1301.8 524 L 1302.9 524.4 M 1302.9 524.4 L 1302.9 524.4 M 1302.9 524.4 L 1303.5 524.5 M 1303.5 524.5 L 1304.1 524.7 M 1304.1 524.7 L 1304.1 524.7 M 1304.1 524.7 L 1305.2 524.8 M 1305.2 524.8 L 1306.2 525 M 1306.2 525 L 1306.2 525 M 1306.2 525 L 1306.9 525 M 1306.9 525 L 1307.5 525.1 M 1307.5 525.1 L 1307.5 525.1 M 1307.5 525.1 L 1807.5 525.1 M 1807.5 525.1 L 1807.5 525.1 M 1807.5 525.1 L 1810.9 524.7 M 1810.9 524.7 L 1810.9 524.7 M 1810.9 524.7 L 1814.2 523.7 M 1814.2 523.7 L 1814.2 523.7 M 1814.2 523.7 L 1817.3 522.1 M 1817.3 522.1 L 1817.3 522.1 M 1817.3 522.1 L 1819.9 519.9 M 1819.9 519.9 L 1819.9 519.9 M 1819.9 519.9 L 1822.1 517.3 M 1822.1 517.3 L 1822.1 517.3 M 1822.1 517.3 L 1823.7 514.2 M 1823.7 514.2 L 1823.7 514.2 M 1823.7 514.2 L 1824.7 510.9 M 1824.7 510.9 L 1824.7 510.9 M 1824.7 510.9 L 1825.1 507.5 M 1825.1 507.5 L 1825.1 507.5 M 1825.1 507.5 L 1825.1 25.1 M 1825.1 25.1 L 2089.9 25.1 M 2089.9 25.1 L 2089.9 504.7 M 998.4 608.1 L 919.7 608.1 M 919.7 608.1 L 918.1 608.2 M 918.1 608.2 L 916.6 608.6 M 916.6 608.6 L 915.1 609.2 M 915.1 609.2 L 913.8 610 M 913.8 610 L 912.6 611 M 912.6 611 L 911.6 612.2 M 911.6 612.2 L 910.8 613.6 M 910.8 613.6 L 910.1 615 M 910.1 615 L 909.8 616.6 M 909.8 616.6 L 909.7 618.1 M 909.7 618.1 L 909.7 696.9 M 909.7 696.9 L 909.8 698.4 M 909.8 698.4 L 910.1 700 M 910.1 700 L 910.8 701.4 M 910.8 701.4 L 911.6 702.8 M 911.6 702.8 L 912.6 704 M 912.6 704 L 913.8 705 M 913.8 705 L 915.1 705.8 M 915.1 705.8 L 916.6 706.4 M 916.6 706.4 L 918.1 706.8 M 918.1 706.8 L 919.7 706.9 M 919.7 706.9 L 998.4 706.9 M 998.4 706.9 L 1000 706.8 M 1000 706.8 L 1001.6 706.4 M 1001.6 706.4 L 1003 705.8 M 1003 705.8 L 1004.4 705 M 1004.4 705 L 1005.5 704 M 1005.5 704 L 1006.6 702.8 M 1006.6 702.8 L 1007.4 701.4 M 1007.4 701.4 L 1008 700 M 1008 700 L 1008.4 698.4 M 1008.4 698.4 L 1008.5 696.9 M 1008.5 696.9 L 1008.5 618.1 M 1008.5 618.1 L 1008.4 616.6 M 1008.4 616.6 L 1008 615 M 1008 615 L 1007.4 613.6 M 1007.4 613.6 L 1006.6 612.2 M 1006.6 612.2 L 1005.5 611 M 1005.5 611 L 1004.4 610 M 1004.4 610 L 1003 609.2 M 1003 609.2 L 1001.6 608.6 M 1001.6 608.6 L 1000 608.2 M 1000 608.2 L 998.4 608.1 M 387 617.9 L 328 617.9 M 328 617.9 L 326.4 618.1 M 326.4 618.1 L 324.9 618.4 M 324.9 618.4 L 323.4 619 M 323.4 619 L 322.1 619.9 M 322.1 619.9 L 320.9 620.9 M 320.9 620.9 L 319.9 622.1 M 319.9 622.1 L 319 623.4 M 319 623.4 L 318.4 624.9 M 318.4 624.9 L 318.1 626.4 M 318.1 626.4 L 317.9 628 M 317.9 628 L 317.9 687 M 317.9 687 L 318.1 688.6 M 318.1 688.6 L 318.4 690.1 M 318.4 690.1 L 319 691.6 M 319 691.6 L 319.9 692.9 M 319.9 692.9 L 320.9 694.1 M 320.9 694.1 L 322.1 695.1 M 322.1 695.1 L 323.4 696 M 323.4 696 L 324.9 696.6 M 324.9 696.6 L 326.4 696.9 M 326.4 696.9 L 328 697.1 M 328 697.1 L 387 697.1 M 387 697.1 L 388.6 696.9 M 388.6 696.9 L 390.1 696.6 M 390.1 696.6 L 391.6 696 M 391.6 696 L 392.9 695.1 M 392.9 695.1 L 394.1 694.1 M 394.1 694.1 L 395.1 692.9 M 395.1 692.9 L 396 691.6 M 396 691.6 L 396.6 690.1 M 396.6 690.1 L 396.9 688.6 M 396.9 688.6 L 397.1 687 M 397.1 687 L 397.1 628 M 397.1 628 L 396.9 626.4 M 396.9 626.4 L 396.6 624.9 M 396.6 624.9 L 396 623.4 M 396 623.4 L 395.1 622.1 M 395.1 622.1 L 394.1 620.9 M 394.1 620.9 L 392.9 619.9 M 392.9 619.9 L 391.6 619 M 391.6 619 L 390.1 618.4 M 390.1 618.4 L 388.6 618.1 M 388.6 618.1 L 387 617.9 M 1787 617.9 L 1728 617.9 M 1728 617.9 L 1726.4 618.1 M 1726.4 618.1 L 1724.9 618.4 M 1724.9 618.4 L 1723.4 619 M 1723.4 619 L 1722.1 619.9 M 1722.1 619.9 L 1720.9 620.9 M 1720.9 620.9 L 1719.9 622.1 M 1719.9 622.1 L 1719 623.4 M 1719 623.4 L 1718.4 624.9 M 1718.4 624.9 L 1718.1 626.4 M 1718.1 626.4 L 1717.9 628 M 1717.9 628 L 1717.9 687 M 1717.9 687 L 1718.1 688.6 M 1718.1 688.6 L 1718.4 690.1 M 1718.4 690.1 L 1719 691.6 M 1719 691.6 L 1719.9 692.9 M 1719.9 692.9 L 1720.9 694.1 M 1720.9 694.1 L 1722.1 695.1 M 1722.1 695.1 L 1723.4 696 M 1723.4 696 L 1724.9 696.6 M 1724.9 696.6 L 1726.4 696.9 M 1726.4 696.9 L 1728 697.1 M 1728 697.1 L 1787 697.1 M 1787 697.1 L 1788.6 696.9 M 1788.6 696.9 L 1790.1 696.6 M 1790.1 696.6 L 1791.6 696 M 1791.6 696 L 1792.9 695.1 M 1792.9 695.1 L 1794.1 694.1 M 1794.1 694.1 L 1795.1 692.9 M 1795.1 692.9 L 1796 691.6 M 1796 691.6 L 1796.6 690.1 M 1796.6 690.1 L 1796.9 688.6 M 1796.9 688.6 L 1797.1 687 M 1797.1 687 L 1797.1 628 M 1797.1 628 L 1796.9 626.4 M 1796.9 626.4 L 1796.6 624.9 M 1796.6 624.9 L 1796 623.4 M 1796 623.4 L 1795.1 622.1 M 1795.1 622.1 L 1794.1 620.9 M 1794.1 620.9 L 1792.9 619.9 M 1792.9 619.9 L 1791.6 619 M 1791.6 619 L 1790.1 618.4 M 1790.1 618.4 L 1788.6 618.1 M 1788.6 618.1 L 1787 617.9 M 262.3 618.2 L 252.7 618.2 M 252.7 618.2 L 243.5 620.5 M 243.5 620.5 L 235 624.9 M 235 624.9 L 227.9 631.3 M 227.9 631.3 L 222.5 639.1 M 222.5 639.1 L 219.1 648 M 219.1 648 L 217.9 657.5 M 217.9 657.5 L 219.1 667 M 219.1 667 L 222.5 675.9 M 222.5 675.9 L 227.9 683.7 M 227.9 683.7 L 235 690.1 M 235 690.1 L 243.5 694.5 M 243.5 694.5 L 252.7 696.8 M 252.7 696.8 L 262.3 696.8 M 262.3 696.8 L 271.5 694.5 M 271.5 694.5 L 280 690.1 M 280 690.1 L 287.1 683.7 M 287.1 683.7 L 292.5 675.9 M 292.5 675.9 L 295.9 667 M 295.9 667 L 297.1 657.5 M 297.1 657.5 L 295.9 648 M 295.9 648 L 292.5 639.1 M 292.5 639.1 L 287.1 631.3 M 287.1 631.3 L 280 624.9 M 280 624.9 L 271.5 620.5 M 271.5 620.5 L 262.3 618.2 M 1865.4 619 L 1865.4 630.7 M 1865.4 630.7 L 1849.6 630.7 M 1849.6 630.7 L 1849.6 619 M 1849.6 619 L 1843.5 620.5 M 1843.5 620.5 L 1835 624.9 M 1835 624.9 L 1827.9 631.3 M 1827.9 631.3 L 1822.5 639.1 M 1822.5 639.1 L 1819.1 648 M 1819.1 648 L 1818.9 649.6 M 1818.9 649.6 L 1830.5 649.6 M 1830.5 649.6 L 1830.5 665.4 M 1830.5 665.4 L 1818.9 665.4 M 1818.9 665.4 L 1819.1 667 M 1819.1 667 L 1822.5 675.9 M 1822.5 675.9 L 1827.9 683.7 M 1827.9 683.7 L 1835 690.1 M 1835 690.1 L 1843.5 694.5 M 1843.5 694.5 L 1849.6 696 M 1849.6 696 L 1849.6 684.3 M 1849.6 684.3 L 1865.4 684.3 M 1865.4 684.3 L 1865.4 696 M 1865.4 696 L 1871.5 694.5 M 1871.5 694.5 L 1880 690.1 M 1880 690.1 L 1887.1 683.7 M 1887.1 683.7 L 1892.5 675.9 M 1892.5 675.9 L 1895.9 667 M 1895.9 667 L 1896.1 665.4 M 1896.1 665.4 L 1884.5 665.4 M 1884.5 665.4 L 1884.5 649.6 M 1884.5 649.6 L 1896.1 649.6 M 1896.1 649.6 L 1895.9 648 M 1895.9 648 L 1892.5 639.1 M 1892.5 639.1 L 1887.1 631.3 M 1887.1 631.3 L 1880 624.9 M 1880 624.9 L 1871.5 620.5 M 1871.5 620.5 L 1865.4 619 M 112.9 162.8 L 102.1 162.8 M 102.1 162.8 L 91.5 165.4 M 91.5 165.4 L 81.9 170.5 M 81.9 170.5 L 73.8 177.6 M 73.8 177.6 L 67.6 186.6 M 67.6 186.6 L 63.8 196.7 M 63.8 196.7 L 62.5 207.5 M 62.5 207.5 L 63.8 218.3 M 63.8 218.3 L 67.6 228.4 M 67.6 228.4 L 73.8 237.4 M 73.8 237.4 L 81.9 244.5 M 81.9 244.5 L 91.5 249.6 M 91.5 249.6 L 102.1 252.2 M 102.1 252.2 L 112.9 252.2 M 112.9 252.2 L 123.5 249.6 M 123.5 249.6 L 133.1 244.5 M 133.1 244.5 L 141.2 237.4 M 141.2 237.4 L 147.4 228.4 M 147.4 228.4 L 151.2 218.3 M 151.2 218.3 L 152.5 207.5 M 152.5 207.5 L 151.2 196.7 M 151.2 196.7 L 147.4 186.6 M 147.4 186.6 L 141.2 177.6 M 141.2 177.6 L 133.1 170.5 M 133.1 170.5 L 123.5 165.4 M 123.5 165.4 L 112.9 162.8 M 212.9 162.8 L 212.5 162.8 M 212.5 162.8 L 212.5 175.3 M 212.5 175.3 L 202.5 175.3 M 202.5 175.3 L 202.5 162.8 M 202.5 162.8 L 202.1 162.8 M 202.1 162.8 L 191.5 165.4 M 191.5 165.4 L 181.9 170.5 M 181.9 170.5 L 173.8 177.6 M 173.8 177.6 L 167.6 186.6 M 167.6 186.6 L 163.8 196.7 M 163.8 196.7 L 163.1 202.5 M 163.1 202.5 L 175 202.5 M 175 202.5 L 175 212.5 M 175 212.5 L 163.1 212.5 M 163.1 212.5 L 163.8 218.3 M 163.8 218.3 L 167.6 228.4 M 167.6 228.4 L 173.8 237.4 M 173.8 237.4 L 181.9 244.5 M 181.9 244.5 L 191.5 249.6 M 191.5 249.6 L 202.1 252.2 M 202.1 252.2 L 202.5 252.2 M 202.5 252.2 L 202.5 239.7 M 202.5 239.7 L 212.5 239.7 M 212.5 239.7 L 212.5 252.2 M 212.5 252.2 L 212.9 252.2 M 212.9 252.2 L 223.5 249.6 M 223.5 249.6 L 233.1 244.5 M 233.1 244.5 L 241.2 237.4 M 241.2 237.4 L 247.4 228.4 M 247.4 228.4 L 251.2 218.3 M 251.2 218.3 L 251.9 212.5 M 251.9 212.5 L 240 212.5 M 240 212.5 L 240 202.5 M 240 202.5 L 251.9 202.5 M 251.9 202.5 L 251.2 196.7 M 251.2 196.7 L 247.4 186.6 M 247.4 186.6 L 241.2 177.6 M 241.2 177.6 L 233.1 170.5 M 233.1 170.5 L 223.5 165.4 M 223.5 165.4 L 212.9 162.8 M 1912.9 162.8 L 1902.1 162.8 M 1902.1 162.8 L 1891.5 165.4 M 1891.5 165.4 L 1881.9 170.5 M 1881.9 170.5 L 1873.8 177.6 M 1873.8 177.6 L 1867.6 186.6 M 1867.6 186.6 L 1863.8 196.7 M 1863.8 196.7 L 1862.5 207.5 M 1862.5 207.5 L 1863.8 218.3 M 1863.8 218.3 L 1867.6 228.4 M 1867.6 228.4 L 1873.8 237.4 M 1873.8 237.4 L 1881.9 244.5 M 1881.9 244.5 L 1891.5 249.6 M 1891.5 249.6 L 1902.1 252.2 M 1902.1 252.2 L 1912.9 252.2 M 1912.9 252.2 L 1923.5 249.6 M 1923.5 249.6 L 1933.1 244.5 M 1933.1 244.5 L 1941.2 237.4 M 1941.2 237.4 L 1947.4 228.4 M 1947.4 228.4 L 1951.2 218.3 M 1951.2 218.3 L 1952.5 207.5 M 1952.5 207.5 L 1951.2 196.7 M 1951.2 196.7 L 1947.4 186.6 M 1947.4 186.6 L 1941.2 177.6 M 1941.2 177.6 L 1933.1 170.5 M 1933.1 170.5 L 1923.5 165.4 M 1923.5 165.4 L 1912.9 162.8 M 2012.9 162.8 L 2012.5 162.8 M 2012.5 162.8 L 2012.5 175.3 M 2012.5 175.3 L 2002.5 175.3 M 2002.5 175.3 L 2002.5 162.8 M 2002.5 162.8 L 2002.1 162.8 M 2002.1 162.8 L 1991.5 165.4 M 1991.5 165.4 L 1981.9 170.5 M 1981.9 170.5 L 1973.8 177.6 M 1973.8 177.6 L 1967.6 186.6 M 1967.6 186.6 L 1963.8 196.7 M 1963.8 196.7 L 1963.1 202.5 M 1963.1 202.5 L 1975 202.5 M 1975 202.5 L 1975 212.5 M 1975 212.5 L 1963.1 212.5 M 1963.1 212.5 L 1963.8 218.3 M 1963.8 218.3 L 1967.6 228.4 M 1967.6 228.4 L 1973.8 237.4 M 1973.8 237.4 L 1981.9 244.5 M 1981.9 244.5 L 1991.5 249.6 M 1991.5 249.6 L 2002.1 252.2 M 2002.1 252.2 L 2002.5 252.2 M 2002.5 252.2 L 2002.5 239.7 M 2002.5 239.7 L 2012.5 239.7 M 2012.5 239.7 L 2012.5 252.2 M 2012.5 252.2 L 2012.9 252.2 M 2012.9 252.2 L 2023.5 249.6 M 2023.5 249.6 L 2033.1 244.5 M 2033.1 244.5 L 2041.2 237.4 M 2041.2 237.4 L 2047.4 228.4 M 2047.4 228.4 L 2051.2 218.3 M 2051.2 218.3 L 2051.9 212.5 M 2051.9 212.5 L 2040 212.5 M 2040 212.5 L 2040 202.5 M 2040 202.5 L 2051.9 202.5 M 2051.9 202.5 L 2051.2 196.7 M 2051.2 196.7 L 2047.4 186.6 M 2047.4 186.6 L 2041.2 177.6 M 2041.2 177.6 L 2033.1 170.5 M 2033.1 170.5 L 2023.5 165.4 M 2023.5 165.4 L 2012.9 162.8 M 112.9 62.8 L 102.1 62.8 M 102.1 62.8 L 91.5 65.4 M 91.5 65.4 L 81.9 70.5 M 81.9 70.5 L 73.8 77.6 M 73.8 77.6 L 67.6 86.6 M 67.6 86.6 L 63.8 96.7 M 63.8 96.7 L 62.5 107.5 M 62.5 107.5 L 63.8 118.3 M 63.8 118.3 L 67.6 128.4 M 67.6 128.4 L 73.8 137.4 M 73.8 137.4 L 81.9 144.5 M 81.9 144.5 L 91.5 149.6 M 91.5 149.6 L 102.1 152.2 M 102.1 152.2 L 112.9 152.2 M 112.9 152.2 L 123.5 149.6 M 123.5 149.6 L 133.1 144.5 M 133.1 144.5 L 141.2 137.4 M 141.2 137.4 L 147.4 128.4 M 147.4 128.4 L 151.2 118.3 M 151.2 118.3 L 152.5 107.5 M 152.5 107.5 L 151.2 96.7 M 151.2 96.7 L 147.4 86.6 M 147.4 86.6 L 141.2 77.6 M 141.2 77.6 L 133.1 70.5 M 133.1 70.5 L 123.5 65.4 M 123.5 65.4 L 112.9 62.8 M 212.9 62.8 L 212.5 62.8 M 212.5 62.8 L 212.5 75.3 M 212.5 75.3 L 202.5 75.3 M 202.5 75.3 L 202.5 62.8 M 202.5 62.8 L 202.1 62.8 M 202.1 62.8 L 191.5 65.4 M 191.5 65.4 L 181.9 70.5 M 181.9 70.5 L 173.8 77.6 M 173.8 77.6 L 167.6 86.6 M 167.6 86.6 L 163.8 96.7 M 163.8 96.7 L 163.1 102.5 M 163.1 102.5 L 175 102.5 M 175 102.5 L 175 112.5 M 175 112.5 L 163.1 112.5 M 163.1 112.5 L 163.8 118.3 M 163.8 118.3 L 167.6 128.4 M 167.6 128.4 L 173.8 137.4 M 173.8 137.4 L 181.9 144.5 M 181.9 144.5 L 191.5 149.6 M 191.5 149.6 L 202.1 152.2 M 202.1 152.2 L 202.5 152.2 M 202.5 152.2 L 202.5 139.7 M 202.5 139.7 L 212.5 139.7 M 212.5 139.7 L 212.5 152.2 M 212.5 152.2 L 212.9 152.2 M 212.9 152.2 L 223.5 149.6 M 223.5 149.6 L 233.1 144.5 M 233.1 144.5 L 241.2 137.4 M 241.2 137.4 L 247.4 128.4 M 247.4 128.4 L 251.2 118.3 M 251.2 118.3 L 251.9 112.5 M 251.9 112.5 L 240 112.5 M 240 112.5 L 240 102.5 M 240 102.5 L 251.9 102.5 M 251.9 102.5 L 251.2 96.7 M 251.2 96.7 L 247.4 86.6 M 247.4 86.6 L 241.2 77.6 M 241.2 77.6 L 233.1 70.5 M 233.1 70.5 L 223.5 65.4 M 223.5 65.4 L 212.9 62.8 M 1912.9 62.8 L 1902.1 62.8 M 1902.1 62.8 L 1891.5 65.4 M 1891.5 65.4 L 1881.9 70.5 M 1881.9 70.5 L 1873.8 77.6 M 1873.8 77.6 L 1867.6 86.6 M 1867.6 86.6 L 1863.8 96.7 M 1863.8 96.7 L 1862.5 107.5 M 1862.5 107.5 L 1863.8 118.3 M 1863.8 118.3 L 1867.6 128.4 M 1867.6 128.4 L 1873.8 137.4 M 1873.8 137.4 L 1881.9 144.5 M 1881.9 144.5 L 1891.5 149.6 M 1891.5 149.6 L 1902.1 152.2 M 1902.1 152.2 L 1912.9 152.2 M 1912.9 152.2 L 1923.5 149.6 M 1923.5 149.6 L 1933.1 144.5 M 1933.1 144.5 L 1941.2 137.4 M 1941.2 137.4 L 1947.4 128.4 M 1947.4 128.4 L 1951.2 118.3 M 1951.2 118.3 L 1952.5 107.5 M 1952.5 107.5 L 1951.2 96.7 M 1951.2 96.7 L 1947.4 86.6 M 1947.4 86.6 L 1941.2 77.6 M 1941.2 77.6 L 1933.1 70.5 M 1933.1 70.5 L 1923.5 65.4 M 1923.5 65.4 L 1912.9 62.8 M 2012.9 62.8 L 2012.5 62.8 M 2012.5 62.8 L 2012.5 75.3 M 2012.5 75.3 L 2002.5 75.3 M 2002.5 75.3 L 2002.5 62.8 M 2002.5 62.8 L 2002.1 62.8 M 2002.1 62.8 L 1991.5 65.4 M 1991.5 65.4 L 1981.9 70.5 M 1981.9 70.5 L 1973.8 77.6 M 1973.8 77.6 L 1967.6 86.6 M 1967.6 86.6 L 1963.8 96.7 M 1963.8 96.7 L 1963.1 102.5 M 1963.1 102.5 L 1975 102.5 M 1975 102.5 L 1975 112.5 M 1975 112.5 L 1963.1 112.5 M 1963.1 112.5 L 1963.8 118.3 M 1963.8 118.3 L 1967.6 128.4 M 1967.6 128.4 L 1973.8 137.4 M 1973.8 137.4 L 1981.9 144.5 M 1981.9 144.5 L 1991.5 149.6 M 1991.5 149.6 L 2002.1 152.2 M 2002.1 152.2 L 2002.5 152.2 M 2002.5 152.2 L 2002.5 139.7 M 2002.5 139.7 L 2012.5 139.7 M 2012.5 139.7 L 2012.5 152.2 M 2012.5 152.2 L 2012.9 152.2 M 2012.9 152.2 L 2023.5 149.6 M 2023.5 149.6 L 2033.1 144.5 M 2033.1 144.5 L 2041.2 137.4 M 2041.2 137.4 L 2047.4 128.4 M 2047.4 128.4 L 2051.2 118.3 M 2051.2 118.3 L 2051.9 112.5 M 2051.9 112.5 L 2040 112.5 M 2040 112.5 L 2040 102.5 M 2040 102.5 L 2051.9 102.5 M 2051.9 102.5 L 2051.2 96.7 M 2051.2 96.7 L 2047.4 86.6 M 2047.4 86.6 L 2041.2 77.6 M 2041.2 77.6 L 2033.1 70.5 M 2033.1 70.5 L 2023.5 65.4 M 2023.5 65.4 L 2012.9 62.8 M 25.1 27 L 290 27 M 1825.1 27 L 2090 27 M 25.1 29 L 290 29 M 1825.1 29 L 2090 29 M 25.1 30.9 L 290 30.9 M 1825.1 30.9 L 2090 30.9 M 25.1 32.9 L 290 32.9 M 1825.1 32.9 L 2090 32.9 M 25.1 34.8 L 290 34.8 M 1825.1 34.8 L 2090 34.8 M 25.1 36.8 L 290 36.8 M 1825.1 36.8 L 2090 36.8 M 25.1 38.7 L 290 38.7 M 1825.1 38.7 L 2090 38.7 M 25.1 40.6 L 290 40.6 M 1825.1 40.6 L 2090 40.6 M 25.1 42.6 L 290 42.6 M 1825.1 42.6 L 2090 42.6 M 25.1 44.5 L 290 44.5 M 1825.1 44.5 L 2090 44.5 M 25.1 46.5 L 290 46.5 M 1825.1 46.5 L 2090 46.5 M 25.1 48.4 L 290 48.4 M 1825.1 48.4 L 2090 48.4 M 25.1 50.4 L 290 50.4 M 1825.1 50.4 L 2090 50.4 M 25.1 52.3 L 290 52.3 M 1825.1 52.3 L 2090 52.3 M 25.1 54.3 L 290 54.3 M 1825.1 54.3 L 2090 54.3 M 25.1 56.2 L 290 56.2 M 1825.1 56.2 L 2090 56.2 M 25.1 58.2 L 290 58.2 M 1825.1 58.2 L 2090 58.2 M 25.1 60.1 L 290 60.1 M 1825.1 60.1 L 2090 60.1 M 25.1 62.1 L 290 62.1 M 1825.1 62.1 L 2090 62.1 M 25.1 64 L 96.9 64 M 118.1 64 L 196.9 64 M 202.5 64 L 212.5 64 M 218.1 64 L 290 64 M 1825.1 64 L 1896.9 64 M 1918.1 64 L 1996.9 64 M 2002.5 64 L 2012.5 64 M 2018.1 64 L 2090 64 M 25.1 66 L 90.4 66 M 124.6 66 L 190.4 66 M 202.5 66 L 212.5 66 M 224.6 66 L 290 66 M 1825.1 66 L 1890.4 66 M 1924.6 66 L 1990.4 66 M 2002.5 66 L 2012.5 66 M 2024.6 66 L 2090 66 M 25.1 67.9 L 86.6 67.9 M 128.4 67.9 L 186.6 67.9 M 202.5 67.9 L 212.5 67.9 M 228.4 67.9 L 290 67.9 M 1825.1 67.9 L 1886.6 67.9 M 1928.4 67.9 L 1986.6 67.9 M 2002.5 67.9 L 2012.5 67.9 M 2028.4 67.9 L 2090 67.9 M 25.1 69.9 L 82.9 69.9 M 132.1 69.9 L 182.9 69.9 M 202.5 69.9 L 212.5 69.9 M 232.1 69.9 L 290 69.9 M 1825.1 69.9 L 1882.9 69.9 M 1932.1 69.9 L 1982.9 69.9 M 2002.5 69.9 L 2012.5 69.9 M 2032.1 69.9 L 2090 69.9 M 25.1 71.8 L 80.3 71.8 M 134.7 71.8 L 180.3 71.8 M 202.5 71.8 L 212.5 71.8 M 234.7 71.8 L 290 71.8 M 1825.1 71.8 L 1880.3 71.8 M 1934.7 71.8 L 1980.3 71.8 M 2002.5 71.8 L 2012.5 71.8 M 2034.7 71.8 L 2090 71.8 M 25.1 73.8 L 78.1 73.8 M 136.9 73.8 L 178.1 73.8 M 202.5 73.8 L 212.5 73.8 M 236.9 73.8 L 290 73.8 M 1825.1 73.8 L 1878.1 73.8 M 1936.9 73.8 L 1978.1 73.8 M 2002.5 73.8 L 2012.5 73.8 M 2036.9 73.8 L 2090 73.8 M 25.1 75.7 L 75.9 75.7 M 139.1 75.7 L 175.9 75.7 M 239.1 75.7 L 290 75.7 M 1825.1 75.7 L 1875.9 75.7 M 1939.1 75.7 L 1975.9 75.7 M 2039.1 75.7 L 2090 75.7 M 25.1 77.7 L 73.7 77.7 M 141.3 77.7 L 173.7 77.7 M 241.3 77.7 L 290 77.7 M 1825.1 77.7 L 1873.7 77.7 M 1941.3 77.7 L 1973.7 77.7 M 2041.3 77.7 L 2090 77.7 M 25.1 79.6 L 72.4 79.6 M 142.6 79.6 L 172.4 79.6 M 242.6 79.6 L 290 79.6 M 1825.1 79.6 L 1872.4 79.6 M 1942.6 79.6 L 1972.4 79.6 M 2042.6 79.6 L 2090 79.6 M 25.1 81.6 L 71 81.6 M 144 81.6 L 171 81.6 M 244 81.6 L 290 81.6 M 1825.1 81.6 L 1871 81.6 M 1944 81.6 L 1971 81.6 M 2044 81.6 L 2090 81.6 M 25.1 83.5 L 69.7 83.5 M 145.3 83.5 L 169.7 83.5 M 245.3 83.5 L 290 83.5 M 1825.1 83.5 L 1869.7 83.5 M 1945.3 83.5 L 1969.7 83.5 M 2045.3 83.5 L 2090 83.5 M 25.1 85.5 L 68.4 85.5 M 146.6 85.5 L 168.4 85.5 M 246.6 85.5 L 290 85.5 M 1825.1 85.5 L 1868.4 85.5 M 1946.6 85.5 L 1968.4 85.5 M 2046.6 85.5 L 2090 85.5 M 25.1 87.4 L 67.3 87.4 M 147.7 87.4 L 167.3 87.4 M 247.7 87.4 L 290 87.4 M 1825.1 87.4 L 1867.3 87.4 M 1947.7 87.4 L 1967.3 87.4 M 2047.7 87.4 L 2090 87.4 M 25.1 89.4 L 66.6 89.4 M 148.4 89.4 L 166.6 89.4 M 248.4 89.4 L 290 89.4 M 1825.1 89.4 L 1866.6 89.4 M 1948.4 89.4 L 1966.6 89.4 M 2048.4 89.4 L 2090 89.4 M 25.1 91.4 L 65.8 91.4 M 149.2 91.4 L 165.8 91.4 M 249.2 91.4 L 290 91.4 M 1825.1 91.4 L 1865.8 91.4 M 1949.2 91.4 L 1965.8 91.4 M 2049.2 91.4 L 2090 91.4 M 25.1 93.3 L 65.1 93.3 M 149.9 93.3 L 165.1 93.3 M 249.9 93.3 L 290 93.3 M 1825.1 93.3 L 1865.1 93.3 M 1949.9 93.3 L 1965.1 93.3 M 2049.9 93.3 L 2090 93.3 M 25.1 95.3 L 64.3 95.3 M 150.7 95.3 L 164.3 95.3 M 250.7 95.3 L 290 95.3 M 1825.1 95.3 L 1864.3 95.3 M 1950.7 95.3 L 1964.3 95.3 M 2050.7 95.3 L 2090 95.3 M 25.1 97.2 L 63.7 97.2 M 151.3 97.2 L 163.7 97.2 M 251.3 97.2 L 290 97.2 M 1825.1 97.2 L 1863.7 97.2 M 1951.3 97.2 L 1963.7 97.2 M 2051.3 97.2 L 2090 97.2 M 25.1 99.2 L 63.5 99.2 M 151.5 99.2 L 163.5 99.2 M 251.5 99.2 L 290 99.2 M 1825.1 99.2 L 1863.5 99.2 M 1951.5 99.2 L 1963.5 99.2 M 2051.5 99.2 L 2090 99.2 M 25.1 101.1 L 63.2 101.1 M 151.8 101.1 L 163.2 101.1 M 251.8 101.1 L 290 101.1 M 1825.1 101.1 L 1863.2 101.1 M 1951.8 101.1 L 1963.2 101.1 M 2051.8 101.1 L 2090 101.1 M 25.1 103.1 L 63 103.1 M 152 103.1 L 175 103.1 M 240 103.1 L 290 103.1 M 1825.1 103.1 L 1863 103.1 M 1952 103.1 L 1975 103.1 M 2040 103.1 L 2090 103.1 M 25.1 105 L 62.7 105 M 152.3 105 L 175 105 M 240 105 L 290 105 M 1825.1 105 L 1862.7 105 M 1952.3 105 L 1975 105 M 2040 105 L 2090 105 M 25.1 106.9 L 62.5 106.9 M 152.5 106.9 L 175 106.9 M 240 106.9 L 290 106.9 M 1825.1 106.9 L 1862.5 106.9 M 1952.5 106.9 L 1975 106.9 M 2040 106.9 L 2090 106.9 M 25.1 108.9 L 62.6 108.9 M 152.4 108.9 L 175 108.9 M 240 108.9 L 290 108.9 M 1825.1 108.9 L 1862.6 108.9 M 1952.4 108.9 L 1975 108.9 M 2040 108.9 L 2090 108.9 M 25.1 110.8 L 62.9 110.8 M 152.1 110.8 L 175 110.8 M 240 110.8 L 290 110.8 M 1825.1 110.8 L 1862.9 110.8 M 1952.1 110.8 L 1975 110.8 M 2040 110.8 L 2090 110.8 M 25.1 112.8 L 63.1 112.8 M 151.9 112.8 L 163.1 112.8 M 251.9 112.8 L 290 112.8 M 1825.1 112.8 L 1863.1 112.8 M 1951.9 112.8 L 1963.1 112.8 M 2051.9 112.8 L 2090 112.8 M 25.1 114.7 L 63.3 114.7 M 151.7 114.7 L 163.3 114.7 M 251.7 114.7 L 290 114.7 M 1825.1 114.7 L 1863.3 114.7 M 1951.7 114.7 L 1963.3 114.7 M 2051.7 114.7 L 2090 114.7 M 25.1 116.7 L 63.6 116.7 M 151.4 116.7 L 163.6 116.7 M 251.4 116.7 L 290 116.7 M 1825.1 116.7 L 1863.6 116.7 M 1951.4 116.7 L 1963.6 116.7 M 2051.4 116.7 L 2090 116.7 M 25.1 118.6 L 63.9 118.6 M 151.1 118.6 L 163.9 118.6 M 251.1 118.6 L 290 118.6 M 1825.1 118.6 L 1863.9 118.6 M 1951.1 118.6 L 1963.9 118.6 M 2051.1 118.6 L 2090 118.6 M 25.1 120.6 L 64.6 120.6 M 150.4 120.6 L 164.6 120.6 M 250.4 120.6 L 290 120.6 M 1825.1 120.6 L 1864.6 120.6 M 1950.4 120.6 L 1964.6 120.6 M 2050.4 120.6 L 2090 120.6 M 25.1 122.5 L 65.4 122.5 M 149.6 122.5 L 165.4 122.5 M 249.6 122.5 L 290 122.5 M 1825.1 122.5 L 1865.4 122.5 M 1949.6 122.5 L 1965.4 122.5 M 2049.6 122.5 L 2090 122.5 M 25.1 124.5 L 66.1 124.5 M 148.9 124.5 L 166.1 124.5 M 248.9 124.5 L 290 124.5 M 1825.1 124.5 L 1866.1 124.5 M 1948.9 124.5 L 1966.1 124.5 M 2048.9 124.5 L 2090 124.5 M 25.1 126.4 L 66.9 126.4 M 148.1 126.4 L 166.9 126.4 M 248.1 126.4 L 290 126.4 M 1825.1 126.4 L 1866.9 126.4 M 1948.1 126.4 L 1966.9 126.4 M 2048.1 126.4 L 2090 126.4 M 25.1 128.4 L 67.6 128.4 M 147.4 128.4 L 167.6 128.4 M 247.4 128.4 L 290 128.4 M 1825.1 128.4 L 1867.6 128.4 M 1947.4 128.4 L 1967.6 128.4 M 2047.4 128.4 L 2090 128.4 M 25.1 130.3 L 68.9 130.3 M 146.1 130.3 L 168.9 130.3 M 246.1 130.3 L 290 130.3 M 1825.1 130.3 L 1868.9 130.3 M 1946.1 130.3 L 1968.9 130.3 M 2046.1 130.3 L 2090 130.3 M 25.1 132.3 L 70.3 132.3 M 144.7 132.3 L 170.3 132.3 M 244.7 132.3 L 290 132.3 M 1825.1 132.3 L 1870.3 132.3 M 1944.7 132.3 L 1970.3 132.3 M 2044.7 132.3 L 2090 132.3 M 25.1 134.2 L 71.6 134.2 M 143.4 134.2 L 171.6 134.2 M 243.4 134.2 L 290 134.2 M 1825.1 134.2 L 1871.6 134.2 M 1943.4 134.2 L 1971.6 134.2 M 2043.4 134.2 L 2090 134.2 M 25.1 136.2 L 73 136.2 M 142 136.2 L 173 136.2 M 242 136.2 L 290 136.2 M 1825.1 136.2 L 1873 136.2 M 1942 136.2 L 1973 136.2 M 2042 136.2 L 2090 136.2 M 25.1 138.1 L 74.6 138.1 M 140.4 138.1 L 174.6 138.1 M 240.4 138.1 L 290 138.1 M 1825.1 138.1 L 1874.6 138.1 M 1940.4 138.1 L 1974.6 138.1 M 2040.4 138.1 L 2090 138.1 M 25.1 140.1 L 76.8 140.1 M 138.2 140.1 L 176.8 140.1 M 202.5 140.1 L 212.5 140.1 M 238.2 140.1 L 290 140.1 M 1825.1 140.1 L 1876.8 140.1 M 1938.2 140.1 L 1976.8 140.1 M 2002.5 140.1 L 2012.5 140.1 M 2038.2 140.1 L 2090 140.1 M 25.1 142 L 79 142 M 136 142 L 179 142 M 202.5 142 L 212.5 142 M 236 142 L 290 142 M 1825.1 142 L 1879 142 M 1936 142 L 1979 142 M 2002.5 142 L 2012.5 142 M 2036 142 L 2090 142 M 25.1 144 L 81.2 144 M 133.8 144 L 181.2 144 M 202.5 144 L 212.5 144 M 233.8 144 L 290 144 M 1825.1 144 L 1881.2 144 M 1933.8 144 L 1981.2 144 M 2002.5 144 L 2012.5 144 M 2033.8 144 L 2090 144 M 25.1 145.9 L 84.5 145.9 M 130.5 145.9 L 184.5 145.9 M 202.5 145.9 L 212.5 145.9 M 230.5 145.9 L 290 145.9 M 1825.1 145.9 L 1884.5 145.9 M 1930.5 145.9 L 1984.5 145.9 M 2002.5 145.9 L 2012.5 145.9 M 2030.5 145.9 L 2090 145.9 M 25.1 147.9 L 88.2 147.9 M 126.8 147.9 L 188.2 147.9 M 202.5 147.9 L 212.5 147.9 M 226.8 147.9 L 290 147.9 M 1825.1 147.9 L 1888.2 147.9 M 1926.8 147.9 L 1988.2 147.9 M 2002.5 147.9 L 2012.5 147.9 M 2026.8 147.9 L 2090 147.9 M 25.1 149.8 L 92.4 149.8 M 122.6 149.8 L 192.4 149.8 M 202.5 149.8 L 212.5 149.8 M 222.6 149.8 L 290 149.8 M 1825.1 149.8 L 1892.4 149.8 M 1922.6 149.8 L 1992.4 149.8 M 2002.5 149.8 L 2012.5 149.8 M 2022.6 149.8 L 2090 149.8 M 25.1 151.8 L 100.3 151.8 M 114.7 151.8 L 200.3 151.8 M 202.5 151.8 L 212.5 151.8 M 214.7 151.8 L 290 151.8 M 1825.1 151.8 L 1900.3 151.8 M 1914.7 151.8 L 2000.3 151.8 M 2002.5 151.8 L 2012.5 151.8 M 2014.7 151.8 L 2090 151.8 M 25.1 153.7 L 290 153.7 M 1825.1 153.7 L 2090 153.7 M 25.1 155.7 L 290 155.7 M 1825.1 155.7 L 2090 155.7 M 25.1 157.7 L 290 157.7 M 1825.1 157.7 L 2090 157.7 M 25.1 159.6 L 290 159.6 M 1825.1 159.6 L 2090 159.6 M 25.1 161.6 L 290 161.6 M 1825.1 161.6 L 2090 161.6 M 25.1 163.5 L 99.2 163.5 M 115.8 163.5 L 199.2 163.5 M 202.5 163.5 L 212.5 163.5 M 215.8 163.5 L 290 163.5 M 1825.1 163.5 L 1899.2 163.5 M 1915.8 163.5 L 1999.2 163.5 M 2002.5 163.5 L 2012.5 163.5 M 2015.8 163.5 L 2090 163.5 M 25.1 165.5 L 91.4 165.5 M 123.6 165.5 L 191.4 165.5 M 202.5 165.5 L 212.5 165.5 M 223.6 165.5 L 290 165.5 M 1825.1 165.5 L 1891.4 165.5 M 1923.6 165.5 L 1991.4 165.5 M 2002.5 165.5 L 2012.5 165.5 M 2023.6 165.5 L 2090 165.5 M 25.1 167.4 L 87.7 167.4 M 127.3 167.4 L 187.7 167.4 M 202.5 167.4 L 212.5 167.4 M 227.3 167.4 L 290 167.4 M 1825.1 167.4 L 1887.7 167.4 M 1927.3 167.4 L 1987.7 167.4 M 2002.5 167.4 L 2012.5 167.4 M 2027.3 167.4 L 2090 167.4 M 25.1 169.4 L 84 169.4 M 131 169.4 L 184 169.4 M 202.5 169.4 L 212.5 169.4 M 231 169.4 L 290 169.4 M 1825.1 169.4 L 1884 169.4 M 1931 169.4 L 1984 169.4 M 2002.5 169.4 L 2012.5 169.4 M 2031 169.4 L 2090 169.4 M 25.1 171.3 L 80.9 171.3 M 134.1 171.3 L 180.9 171.3 M 202.5 171.3 L 212.5 171.3 M 234.1 171.3 L 290 171.3 M 1825.1 171.3 L 1880.9 171.3 M 1934.1 171.3 L 1980.9 171.3 M 2002.5 171.3 L 2012.5 171.3 M 2034.1 171.3 L 2090 171.3 M 25.1 173.2 L 78.7 173.2 M 136.3 173.2 L 178.7 173.2 M 202.5 173.2 L 212.5 173.2 M 236.3 173.2 L 290 173.2 M 1825.1 173.2 L 1878.7 173.2 M 1936.3 173.2 L 1978.7 173.2 M 2002.5 173.2 L 2012.5 173.2 M 2036.3 173.2 L 2090 173.2 M 25.1 175.2 L 76.5 175.2 M 138.5 175.2 L 176.5 175.2 M 202.5 175.2 L 212.5 175.2 M 238.5 175.2 L 290 175.2 M 1825.1 175.2 L 1876.5 175.2 M 1938.5 175.2 L 1976.5 175.2 M 2002.5 175.2 L 2012.5 175.2 M 2038.5 175.2 L 2090 175.2 M 25.1 177.1 L 74.3 177.1 M 140.7 177.1 L 174.3 177.1 M 240.7 177.1 L 290 177.1 M 1825.1 177.1 L 1874.3 177.1 M 1940.7 177.1 L 1974.3 177.1 M 2040.7 177.1 L 2090 177.1 M 25.1 179.1 L 72.8 179.1 M 142.2 179.1 L 172.8 179.1 M 242.2 179.1 L 290 179.1 M 1825.1 179.1 L 1872.8 179.1 M 1942.2 179.1 L 1972.8 179.1 M 2042.2 179.1 L 2090 179.1 M 25.1 181 L 71.4 181 M 143.6 181 L 171.4 181 M 243.6 181 L 290 181 M 1825.1 181 L 1871.4 181 M 1943.6 181 L 1971.4 181 M 2043.6 181 L 2090 181 M 25.1 183 L 70.1 183 M 144.9 183 L 170.1 183 M 244.9 183 L 290 183 M 1825.1 183 L 1870.1 183 M 1944.9 183 L 1970.1 183 M 2044.9 183 L 2090 183 M 25.1 184.9 L 68.7 184.9 M 146.3 184.9 L 168.7 184.9 M 246.3 184.9 L 290 184.9 M 1825.1 184.9 L 1868.7 184.9 M 1946.3 184.9 L 1968.7 184.9 M 2046.3 184.9 L 2090 184.9 M 25.1 186.9 L 67.5 186.9 M 147.5 186.9 L 167.5 186.9 M 247.5 186.9 L 290 186.9 M 1825.1 186.9 L 1867.5 186.9 M 1947.5 186.9 L 1967.5 186.9 M 2047.5 186.9 L 2090 186.9 M 25.1 188.8 L 66.8 188.8 M 148.2 188.8 L 166.8 188.8 M 248.2 188.8 L 290 188.8 M 1825.1 188.8 L 1866.8 188.8 M 1948.2 188.8 L 1966.8 188.8 M 2048.2 188.8 L 2090 188.8 M 25.1 190.8 L 66 190.8 M 149 190.8 L 166 190.8 M 249 190.8 L 290 190.8 M 1825.1 190.8 L 1866 190.8 M 1949 190.8 L 1966 190.8 M 2049 190.8 L 2090 190.8 M 25.1 192.7 L 65.3 192.7 M 149.7 192.7 L 165.3 192.7 M 249.7 192.7 L 290 192.7 M 1825.1 192.7 L 1865.3 192.7 M 1949.7 192.7 L 1965.3 192.7 M 2049.7 192.7 L 2090 192.7 M 25.1 194.7 L 64.5 194.7 M 150.5 194.7 L 164.5 194.7 M 250.5 194.7 L 290 194.7 M 1825.1 194.7 L 1864.5 194.7 M 1950.5 194.7 L 1964.5 194.7 M 2050.5 194.7 L 2090 194.7 M 25.1 196.6 L 63.8 196.6 M 151.2 196.6 L 163.8 196.6 M 251.2 196.6 L 290 196.6 M 1825.1 196.6 L 1863.8 196.6 M 1951.2 196.6 L 1963.8 196.6 M 2051.2 196.6 L 2090 196.6 M 25.1 198.6 L 63.5 198.6 M 151.5 198.6 L 163.5 198.6 M 251.5 198.6 L 290 198.6 M 1825.1 198.6 L 1863.5 198.6 M 1951.5 198.6 L 1963.5 198.6 M 2051.5 198.6 L 2090 198.6 M 25.1 200.5 L 63.3 200.5 M 151.7 200.5 L 163.3 200.5 M 251.7 200.5 L 290 200.5 M 1825.1 200.5 L 1863.3 200.5 M 1951.7 200.5 L 1963.3 200.5 M 2051.7 200.5 L 2090 200.5 M 25.1 202.5 L 63.1 202.5 M 151.9 202.5 L 163.1 202.5 M 251.9 202.5 L 290 202.5 M 1825.1 202.5 L 1863.1 202.5 M 1951.9 202.5 L 1963.1 202.5 M 2051.9 202.5 L 2090 202.5 M 25.1 204.4 L 62.8 204.4 M 152.2 204.4 L 175 204.4 M 240 204.4 L 290 204.4 M 1825.1 204.4 L 1862.8 204.4 M 1952.2 204.4 L 1975 204.4 M 2040 204.4 L 2090 204.4 M 25.1 206.4 L 62.6 206.4 M 152.4 206.4 L 175 206.4 M 240 206.4 L 290 206.4 M 1825.1 206.4 L 1862.6 206.4 M 1952.4 206.4 L 1975 206.4 M 2040 206.4 L 2090 206.4 M 25.1 208.3 L 62.5 208.3 M 152.5 208.3 L 175 208.3 M 240 208.3 L 290 208.3 M 1825.1 208.3 L 1862.5 208.3 M 1952.5 208.3 L 1975 208.3 M 2040 208.3 L 2090 208.3 M 25.1 210.3 L 62.8 210.3 M 152.2 210.3 L 175 210.3 M 240 210.3 L 290 210.3 M 1825.1 210.3 L 1862.8 210.3 M 1952.2 210.3 L 1975 210.3 M 2040 210.3 L 2090 210.3 M 25.1 212.2 L 63 212.2 M 152 212.2 L 175 212.2 M 240 212.2 L 290 212.2 M 1825.1 212.2 L 1863 212.2 M 1952 212.2 L 1975 212.2 M 2040 212.2 L 2090 212.2 M 25.1 214.2 L 63.2 214.2 M 151.8 214.2 L 163.2 214.2 M 251.8 214.2 L 290 214.2 M 1825.1 214.2 L 1863.2 214.2 M 1951.8 214.2 L 1963.2 214.2 M 2051.8 214.2 L 2090 214.2 M 25.1 216.1 L 63.5 216.1 M 151.5 216.1 L 163.5 216.1 M 251.5 216.1 L 290 216.1 M 1825.1 216.1 L 1863.5 216.1 M 1951.5 216.1 L 1963.5 216.1 M 2051.5 216.1 L 2090 216.1 M 25.1 218.1 L 63.7 218.1 M 151.3 218.1 L 163.7 218.1 M 251.3 218.1 L 290 218.1 M 1825.1 218.1 L 1863.7 218.1 M 1951.3 218.1 L 1963.7 218.1 M 2051.3 218.1 L 2090 218.1 M 25.1 220.1 L 64.4 220.1 M 150.6 220.1 L 164.4 220.1 M 250.6 220.1 L 290 220.1 M 1825.1 220.1 L 1864.4 220.1 M 1950.6 220.1 L 1964.4 220.1 M 2050.6 220.1 L 2090 220.1 M 25.1 222 L 65.2 222 M 149.8 222 L 165.2 222 M 249.8 222 L 290 222 M 1825.1 222 L 1865.2 222 M 1949.8 222 L 1965.2 222 M 2049.8 222 L 2090 222 M 25.1 224 L 65.9 224 M 149.1 224 L 165.9 224 M 249.1 224 L 290 224 M 1825.1 224 L 1865.9 224 M 1949.1 224 L 1965.9 224 M 2049.1 224 L 2090 224 M 25.1 225.9 L 66.6 225.9 M 148.4 225.9 L 166.6 225.9 M 248.4 225.9 L 290 225.9 M 1825.1 225.9 L 1866.6 225.9 M 1948.4 225.9 L 1966.6 225.9 M 2048.4 225.9 L 2090 225.9 M 25.1 227.9 L 67.4 227.9 M 147.6 227.9 L 167.4 227.9 M 247.6 227.9 L 290 227.9 M 1825.1 227.9 L 1867.4 227.9 M 1947.6 227.9 L 1967.4 227.9 M 2047.6 227.9 L 2090 227.9 M 25.1 229.8 L 68.6 229.8 M 146.4 229.8 L 168.6 229.8 M 246.4 229.8 L 290 229.8 M 1825.1 229.8 L 1868.6 229.8 M 1946.4 229.8 L 1968.6 229.8 M 2046.4 229.8 L 2090 229.8 M 25.1 231.8 L 69.9 231.8 M 145.1 231.8 L 169.9 231.8 M 245.1 231.8 L 290 231.8 M 1825.1 231.8 L 1869.9 231.8 M 1945.1 231.8 L 1969.9 231.8 M 2045.1 231.8 L 2090 231.8 M 25.1 233.7 L 71.2 233.7 M 143.8 233.7 L 171.2 233.7 M 243.8 233.7 L 290 233.7 M 1825.1 233.7 L 1871.2 233.7 M 1943.8 233.7 L 1971.2 233.7 M 2043.8 233.7 L 2090 233.7 M 25.1 235.6 L 72.6 235.6 M 142.4 235.6 L 172.6 235.6 M 242.4 235.6 L 290 235.6 M 1825.1 235.6 L 1872.6 235.6 M 1942.4 235.6 L 1972.6 235.6 M 2042.4 235.6 L 2090 235.6 M 25.1 237.6 L 74 237.6 M 141 237.6 L 174 237.6 M 241 237.6 L 290 237.6 M 1825.1 237.6 L 1874 237.6 M 1941 237.6 L 1974 237.6 M 2041 237.6 L 2090 237.6 M 25.1 239.5 L 76.2 239.5 M 138.8 239.5 L 176.2 239.5 M 238.8 239.5 L 290 239.5 M 1825.1 239.5 L 1876.2 239.5 M 1938.8 239.5 L 1976.2 239.5 M 2038.8 239.5 L 2090 239.5 M 25.1 241.5 L 78.4 241.5 M 136.6 241.5 L 178.4 241.5 M 202.5 241.5 L 212.5 241.5 M 236.6 241.5 L 290 241.5 M 1825.1 241.5 L 1878.4 241.5 M 1936.6 241.5 L 1978.4 241.5 M 2002.5 241.5 L 2012.5 241.5 M 2036.6 241.5 L 2090 241.5 M 25.1 243.4 L 80.6 243.4 M 134.4 243.4 L 180.6 243.4 M 202.5 243.4 L 212.5 243.4 M 234.4 243.4 L 290 243.4 M 1825.1 243.4 L 1880.6 243.4 M 1934.4 243.4 L 1980.6 243.4 M 2002.5 243.4 L 2012.5 243.4 M 2034.4 243.4 L 2090 243.4 M 25.1 245.4 L 83.4 245.4 M 131.6 245.4 L 183.4 245.4 M 202.5 245.4 L 212.5 245.4 M 231.6 245.4 L 290 245.4 M 1825.1 245.4 L 1883.4 245.4 M 1931.6 245.4 L 1983.4 245.4 M 2002.5 245.4 L 2012.5 245.4 M 2031.6 245.4 L 2090 245.4 M 25.1 247.3 L 87.2 247.3 M 127.8 247.3 L 187.2 247.3 M 202.5 247.3 L 212.5 247.3 M 227.8 247.3 L 290 247.3 M 1825.1 247.3 L 1887.2 247.3 M 1927.8 247.3 L 1987.2 247.3 M 2002.5 247.3 L 2012.5 247.3 M 2027.8 247.3 L 2090 247.3 M 25.1 249.3 L 90.9 249.3 M 124.1 249.3 L 190.9 249.3 M 202.5 249.3 L 212.5 249.3 M 224.1 249.3 L 290 249.3 M 1825.1 249.3 L 1890.9 249.3 M 1924.1 249.3 L 1990.9 249.3 M 2002.5 249.3 L 2012.5 249.3 M 2024.1 249.3 L 2090 249.3 M 25.1 251.2 L 98.1 251.2 M 116.9 251.2 L 198.1 251.2 M 202.5 251.2 L 212.5 251.2 M 216.9 251.2 L 290 251.2 M 1825.1 251.2 L 1898.1 251.2 M 1916.9 251.2 L 1998.1 251.2 M 2002.5 251.2 L 2012.5 251.2 M 2016.9 251.2 L 2090 251.2 M 25.1 253.2 L 290 253.2 M 1825.1 253.2 L 2090 253.2 M 25.1 255.1 L 290 255.1 M 1825.1 255.1 L 2090 255.1 M 25.1 257.1 L 290 257.1 M 1825.1 257.1 L 2090 257.1 M 25.1 259 L 290 259 M 1825.1 259 L 2090 259 M 25.1 261 L 290 261 M 1825.1 261 L 2090 261 M 25.1 262.9 L 290 262.9 M 1825.1 262.9 L 2090 262.9 M 25.1 264.9 L 290 264.9 M 1825.1 264.9 L 2090 264.9 M 25.1 266.8 L 290 266.8 M 1825.1 266.8 L 2090 266.8 M 25.1 268.8 L 290 268.8 M 1825.1 268.8 L 2090 268.8 M 25.1 270.7 L 290 270.7 M 1825.1 270.7 L 2090 270.7 M 25.1 272.7 L 290 272.7 M 1825.1 272.7 L 2090 272.7 M 25.1 274.6 L 290 274.6 M 1825.1 274.6 L 2090 274.6 M 25.1 276.6 L 290 276.6 M 1825.1 276.6 L 2090 276.6 M 25.1 278.5 L 290 278.5 M 1825.1 278.5 L 2090 278.5 M 25.1 280.5 L 290 280.5 M 1825.1 280.5 L 2090 280.5 M 25.1 282.4 L 290 282.4 M 1825.1 282.4 L 2090 282.4 M 25.1 284.4 L 290 284.4 M 1825.1 284.4 L 2090 284.4 M 25.1 286.4 L 290 286.4 M 1825.1 286.4 L 2090 286.4 M 25.1 288.3 L 290 288.3 M 1825.1 288.3 L 2090 288.3 M 25.1 290.3 L 290 290.3 M 1825.1 290.3 L 2090 290.3 M 25.1 292.2 L 290 292.2 M 1825.1 292.2 L 2090 292.2 M 25.1 294.2 L 290 294.2 M 1825.1 294.2 L 2090 294.2 M 25.1 296.1 L 290 296.1 M 1825.1 296.1 L 2090 296.1 M 25.1 298.1 L 290 298.1 M 1825.1 298.1 L 2090 298.1 M 25.1 300 L 290 300 M 1825.1 300 L 2090 300 M 25.1 301.9 L 290 301.9 M 1825.1 301.9 L 2090 301.9 M 25.1 303.9 L 290 303.9 M 1825.1 303.9 L 2090 303.9 M 25.1 305.8 L 290 305.8 M 1825.1 305.8 L 2090 305.8 M 25.1 307.8 L 290 307.8 M 1825.1 307.8 L 2090 307.8 M 25.1 309.7 L 290 309.7 M 1825.1 309.7 L 2090 309.7 M 25.1 311.7 L 290 311.7 M 1825.1 311.7 L 2090 311.7 M 25.1 313.6 L 290 313.6 M 1825.1 313.6 L 2090 313.6 M 25.1 315.6 L 290 315.6 M 1825.1 315.6 L 2090 315.6 M 25.1 317.5 L 290 317.5 M 1825.1 317.5 L 2090 317.5 M 25.1 319.5 L 290 319.5 M 1825.1 319.5 L 2090 319.5 M 25.1 321.4 L 290 321.4 M 1825.1 321.4 L 2090 321.4 M 25.1 323.4 L 290 323.4 M 1825.1 323.4 L 2090 323.4 M 25.1 325.3 L 290 325.3 M 1825.1 325.3 L 2090 325.3 M 25.1 327.3 L 290 327.3 M 1825.1 327.3 L 2090 327.3 M 25.1 329.2 L 290 329.2 M 1825.1 329.2 L 2090 329.2 M 25.1 331.2 L 290 331.2 M 1825.1 331.2 L 2090 331.2 M 25.1 333.1 L 290 333.1 M 1825.1 333.1 L 2090 333.1 M 25.1 335.1 L 290 335.1 M 1825.1 335.1 L 2090 335.1 M 25.1 337 L 290 337 M 1825.1 337 L 2090 337 M 25.1 339 L 290 339 M 1825.1 339 L 2090 339 M 25.1 340.9 L 290 340.9 M 1825.1 340.9 L 2090 340.9 M 25.1 342.9 L 290 342.9 M 1825.1 342.9 L 2090 342.9 M 25.1 344.8 L 290 344.8 M 1825.1 344.8 L 2090 344.8 M 25.1 346.8 L 290 346.8 M 1825.1 346.8 L 2090 346.8 M 25.1 348.7 L 290 348.7 M 1825.1 348.7 L 2090 348.7 M 25.1 350.7 L 290 350.7 M 1825.1 350.7 L 2090 350.7 M 25.1 352.7 L 290 352.7 M 1825.1 352.7 L 2090 352.7 M 25.1 354.6 L 290 354.6 M 1825.1 354.6 L 2090 354.6 M 25.1 356.6 L 290 356.6 M 1825.1 356.6 L 2090 356.6 M 25.1 358.5 L 290 358.5 M 1825.1 358.5 L 2090 358.5 M 25.1 360.5 L 290 360.5 M 1825.1 360.5 L 2090 360.5 M 25.1 362.4 L 290 362.4 M 1825.1 362.4 L 2090 362.4 M 25.1 364.4 L 290 364.4 M 1825.1 364.4 L 2090 364.4 M 25.1 366.3 L 290 366.3 M 1825.1 366.3 L 2090 366.3 M 25.1 368.2 L 290 368.2 M 1825.1 368.2 L 2090 368.2 M 25.1 370.2 L 290 370.2 M 1825.1 370.2 L 2090 370.2 M 25.1 372.1 L 290 372.1 M 1825.1 372.1 L 2090 372.1 M 25.1 374.1 L 290 374.1 M 1825.1 374.1 L 2090 374.1 M 25.1 376 L 290 376 M 869.8 376 L 1245.2 376 M 1825.1 376 L 2090 376 M 25.1 378 L 290 378 M 869.2 378 L 1245.8 378 M 1825.1 378 L 2090 378 M 25.1 379.9 L 290 379.9 M 868.5 379.9 L 1246.5 379.9 M 1825.1 379.9 L 2090 379.9 M 25.1 381.9 L 290 381.9 M 867.9 381.9 L 1247.1 381.9 M 1825.1 381.9 L 2090 381.9 M 25.1 383.8 L 290 383.8 M 867.2 383.8 L 1247.8 383.8 M 1825.1 383.8 L 2090 383.8 M 25.1 385.8 L 290 385.8 M 866.6 385.8 L 1248.4 385.8 M 1825.1 385.8 L 2090 385.8 M 25.1 387.7 L 290 387.7 M 865.9 387.7 L 1249.1 387.7 M 1825.1 387.7 L 2090 387.7 M 25.1 389.7 L 290 389.7 M 865.3 389.7 L 1249.7 389.7 M 1825.1 389.7 L 2090 389.7 M 25.1 391.6 L 290 391.6 M 864.6 391.6 L 1250.4 391.6 M 1825.1 391.6 L 2090 391.6 M 25.1 393.6 L 290 393.6 M 864 393.6 L 1251 393.6 M 1825.1 393.6 L 2090 393.6 M 25.1 395.5 L 290 395.5 M 863.3 395.5 L 1251.7 395.5 M 1825.1 395.5 L 2090 395.5 M 25.1 397.5 L 290 397.5 M 862.7 397.5 L 1252.3 397.5 M 1825.1 397.5 L 2090 397.5 M 25.1 399.4 L 290 399.4 M 862 399.4 L 1253 399.4 M 1825.1 399.4 L 2090 399.4 M 25.1 401.4 L 290 401.4 M 861.4 401.4 L 1253.6 401.4 M 1825.1 401.4 L 2090 401.4 M 25.1 403.3 L 290 403.3 M 860.7 403.3 L 1254.3 403.3 M 1825.1 403.3 L 2090 403.3 M 25.1 405.3 L 290 405.3 M 860.1 405.3 L 1254.9 405.3 M 1825.1 405.3 L 2090 405.3 M 25.1 407.2 L 290 407.2 M 859.4 407.2 L 1255.6 407.2 M 1825.1 407.2 L 2090 407.2 M 25.1 409.2 L 290 409.2 M 858.8 409.2 L 1256.2 409.2 M 1825.1 409.2 L 2090 409.2 M 25.1 411.1 L 290 411.1 M 858.1 411.1 L 1256.9 411.1 M 1825.1 411.1 L 2090 411.1 M 25.1 413.1 L 290 413.1 M 857.5 413.1 L 1257.5 413.1 M 1825.1 413.1 L 2090 413.1 M 25.1 415.1 L 290 415.1 M 856.8 415.1 L 1258.2 415.1 M 1825.1 415.1 L 2090 415.1 M 25.1 417 L 290 417 M 856.2 417 L 1258.8 417 M 1825.1 417 L 2090 417 M 25.1 419 L 290 419 M 855.5 419 L 1259.5 419 M 1825.1 419 L 2090 419 M 25.1 420.9 L 290 420.9 M 854.9 420.9 L 1260.1 420.9 M 1825.1 420.9 L 2090 420.9 M 25.1 422.9 L 290 422.9 M 854.2 422.9 L 1260.8 422.9 M 1825.1 422.9 L 2090 422.9 M 25.1 424.8 L 290 424.8 M 853.6 424.8 L 1261.4 424.8 M 1825.1 424.8 L 2090 424.8 M 25.1 426.8 L 290 426.8 M 852.9 426.8 L 1262.1 426.8 M 1825.1 426.8 L 2090 426.8 M 25.1 428.7 L 290 428.7 M 852.3 428.7 L 1262.7 428.7 M 1825.1 428.7 L 2090 428.7 M 25.1 430.6 L 290 430.6 M 851.6 430.6 L 1263.4 430.6 M 1825.1 430.6 L 2090 430.6 M 25.1 432.6 L 290 432.6 M 851 432.6 L 1264 432.6 M 1825.1 432.6 L 2090 432.6 M 25.1 434.5 L 290 434.5 M 850.3 434.5 L 1264.7 434.5 M 1825.1 434.5 L 2090 434.5 M 25.1 436.5 L 290 436.5 M 849.7 436.5 L 1265.3 436.5 M 1825.1 436.5 L 2090 436.5 M 25.1 438.4 L 290 438.4 M 849 438.4 L 1266 438.4 M 1825.1 438.4 L 2090 438.4 M 25.1 440.4 L 290 440.4 M 848.4 440.4 L 1266.6 440.4 M 1825.1 440.4 L 2090 440.4 M 25.1 442.3 L 290 442.3 M 847.7 442.3 L 1267.3 442.3 M 1825.1 442.3 L 2090 442.3 M 25.1 444.3 L 290 444.3 M 847.1 444.3 L 1267.9 444.3 M 1825.1 444.3 L 2090 444.3 M 25.1 446.2 L 290 446.2 M 846.4 446.2 L 1268.6 446.2 M 1825.1 446.2 L 2090 446.2 M 25.1 448.2 L 290 448.2 M 845.8 448.2 L 1269.2 448.2 M 1825.1 448.2 L 2090 448.2 M 25.1 450.1 L 290 450.1 M 845.1 450.1 L 1269.9 450.1 M 1825.1 450.1 L 2090 450.1 M 25.1 452.1 L 290 452.1 M 844.5 452.1 L 1270.5 452.1 M 1825.1 452.1 L 2090 452.1 M 25.1 454 L 290 454 M 843.8 454 L 1271.2 454 M 1825.1 454 L 2090 454 M 25.1 456 L 290 456 M 843.2 456 L 1271.8 456 M 1825.1 456 L 2090 456 M 25.1 457.9 L 290 457.9 M 842.5 457.9 L 1272.5 457.9 M 1825.1 457.9 L 2090 457.9 M 25.1 459.9 L 290 459.9 M 841.9 459.9 L 1273.1 459.9 M 1825.1 459.9 L 2090 459.9 M 25.1 461.8 L 290 461.8 M 841.2 461.8 L 1273.8 461.8 M 1825.1 461.8 L 2090 461.8 M 25.1 463.8 L 290 463.8 M 840.6 463.8 L 1274.4 463.8 M 1825.1 463.8 L 2090 463.8 M 25.1 465.7 L 290 465.7 M 839.9 465.7 L 1275.1 465.7 M 1825.1 465.7 L 2090 465.7 M 25.1 467.7 L 290 467.7 M 839.3 467.7 L 1275.7 467.7 M 1825.1 467.7 L 2090 467.7 M 25.1 469.6 L 290 469.6 M 838.6 469.6 L 1276.4 469.6 M 1825.1 469.6 L 2090 469.6 M 25.1 471.6 L 290 471.6 M 838 471.6 L 1277 471.6 M 1825.1 471.6 L 2090 471.6 M 25.1 473.5 L 290 473.5 M 837.3 473.5 L 1277.7 473.5 M 1825.1 473.5 L 2090 473.5 M 25.1 475.5 L 290 475.5 M 836.7 475.5 L 1278.3 475.5 M 1825.1 475.5 L 2090 475.5 M 25.1 477.4 L 290 477.4 M 836 477.4 L 1279 477.4 M 1825.1 477.4 L 2090 477.4 M 25.1 479.4 L 290 479.4 M 835.4 479.4 L 1279.6 479.4 M 1825.1 479.4 L 2090 479.4 M 25.1 481.4 L 290 481.4 M 834.7 481.4 L 1280.3 481.4 M 1825.1 481.4 L 2090 481.4 M 25.1 483.3 L 290 483.3 M 834.1 483.3 L 1280.9 483.3 M 1825.1 483.3 L 2090 483.3 M 25.1 485.3 L 290 485.3 M 833.4 485.3 L 1281.6 485.3 M 1825.1 485.3 L 2090 485.3 M 25.1 487.2 L 290 487.2 M 832.8 487.2 L 1282.2 487.2 M 1825.1 487.2 L 2090 487.2 M 25.1 489.2 L 290 489.2 M 832.1 489.2 L 1282.9 489.2 M 1825.1 489.2 L 2090 489.2 M 25.1 491.1 L 290 491.1 M 831.5 491.1 L 1283.5 491.1 M 1825.1 491.1 L 2090 491.1 M 25.1 493.1 L 290 493.1 M 830.8 493.1 L 1284.2 493.1 M 1825.1 493.1 L 2090 493.1 M 25.1 495 L 290 495 M 830.2 495 L 1284.8 495 M 1825.1 495 L 2090 495 M 25.1 496.9 L 290 496.9 M 829.5 496.9 L 1285.5 496.9 M 1825.1 496.9 L 2090 496.9 M 25.1 498.9 L 290 498.9 M 828.9 498.9 L 1286.1 498.9 M 1825.1 498.9 L 2090 498.9 M 25.1 500.8 L 290 500.8 M 828.2 500.8 L 1286.8 500.8 M 1825.1 500.8 L 2090 500.8 M 25.1 502.8 L 290 502.8 M 827.5 502.8 L 1287.5 502.8 M 1825.1 502.8 L 2090 502.8 M 25.1 504.7 L 290 504.7 M 826.9 504.7 L 1288.1 504.7 M 1825.1 504.7 L 2089.9 504.7 M 25.7 506.7 L 290 506.7 M 826.2 506.7 L 1288.8 506.7 M 1825.1 506.7 L 2089.3 506.7 M 26.4 508.6 L 290.1 508.6 M 825.6 508.6 L 1289.4 508.6 M 1824.9 508.6 L 2088.6 508.6 M 27 510.6 L 290.3 510.6 M 824.9 510.6 L 1290.1 510.6 M 1824.7 510.6 L 2088 510.6 M 27.7 512.5 L 290.8 512.5 M 824.3 512.5 L 1290.7 512.5 M 1824.2 512.5 L 2087.3 512.5 M 28.3 514.5 L 291.4 514.5 M 823.6 514.5 L 1291.4 514.5 M 1823.6 514.5 L 2086.7 514.5 M 29 516.4 L 292.5 516.4 M 822.5 516.4 L 1292.5 516.4 M 1822.5 516.4 L 2086 516.4 M 29.6 518.4 L 293.8 518.4 M 821.2 518.4 L 1293.8 518.4 M 1821.2 518.4 L 2085.4 518.4 M 30.3 520.3 L 295.6 520.3 M 819.4 520.3 L 1295.6 520.3 M 1819.4 520.3 L 2084.7 520.3 M 30.9 522.3 L 298.1 522.3 M 816.9 522.3 L 1298.1 522.3 M 1816.9 522.3 L 2084.1 522.3 M 31.6 524.2 L 302.5 524.2 M 812.6 524.2 L 1302.4 524.2 M 1812.5 524.2 L 2083.4 524.2 M 32.2 526.2 L 2082.8 526.2 M 32.9 528.1 L 2082.1 528.1 M 33.5 530.1 L 2081.5 530.1 M 34.2 532 L 2080.8 532 M 34.8 534 L 2080.2 534 M 35.5 535.9 L 2079.5 535.9 M 36.1 537.9 L 2078.9 537.9 M 36.8 539.8 L 2078.2 539.8 M 37.4 541.8 L 2077.6 541.8 M 38.1 543.7 L 2076.9 543.7 M 38.7 545.7 L 2076.3 545.7 M 39.4 547.7 L 2075.6 547.7 M 40 549.6 L 2075 549.6 M 40.6 551.6 L 2074.4 551.6 M 41.3 553.5 L 2073.7 553.5 M 41.9 555.5 L 2073.1 555.5 M 42.6 557.4 L 2072.4 557.4 M 43.3 559.4 L 2071.7 559.4 M 43.9 561.3 L 2071.1 561.3 M 44.6 563.2 L 2070.4 563.2 M 45.2 565.2 L 2069.8 565.2 M 45.9 567.1 L 2069.1 567.1 M 46.5 569.1 L 2068.5 569.1 M 47.2 571 L 2067.8 571 M 47.8 573 L 2067.2 573 M 48.5 574.9 L 2066.5 574.9 M 49.1 576.9 L 2065.9 576.9 M 49.8 578.8 L 2065.2 578.8 M 50.4 580.8 L 2064.6 580.8 M 51.1 582.7 L 2063.9 582.7 M 51.7 584.7 L 2063.3 584.7 M 52.4 586.6 L 2062.6 586.6 M 53 588.6 L 2062 588.6 M 53.7 590.5 L 2061.3 590.5 M 54.3 592.5 L 2060.7 592.5 M 55 594.4 L 2060 594.4 M 55.6 596.4 L 2059.4 596.4 M 56.3 598.3 L 2058.7 598.3 M 56.9 600.3 L 2058.1 600.3 M 57.6 602.2 L 2057.4 602.2 M 58.2 604.2 L 2056.8 604.2 M 58.9 606.1 L 2056.1 606.1 M 59.5 608.1 L 2055.5 608.1 M 60.2 610.1 L 913.8 610.1 M 1004.4 610.1 L 2054.8 610.1 M 60.8 612 L 911.8 612 M 1006.4 612 L 2054.2 612 M 61.5 614 L 910.6 614 M 1007.5 614 L 2053.5 614 M 62.1 615.9 L 909.9 615.9 M 1008.2 615.9 L 2052.9 615.9 M 62.8 617.9 L 909.7 617.9 M 1008.5 617.9 L 2052.2 617.9 M 63.4 619.8 L 246.3 619.8 M 268.7 619.8 L 322.1 619.8 M 392.9 619.8 L 909.7 619.8 M 1008.5 619.8 L 1722.1 619.8 M 1792.9 619.8 L 1846.3 619.8 M 1849.6 619.8 L 1865.4 619.8 M 1868.7 619.8 L 2051.6 619.8 M 64.1 621.8 L 241.1 621.8 M 273.9 621.8 L 320.1 621.8 M 394.9 621.8 L 909.7 621.8 M 1008.5 621.8 L 1720.1 621.8 M 1794.9 621.8 L 1841.1 621.8 M 1849.6 621.8 L 1865.4 621.8 M 1873.9 621.8 L 2050.9 621.8 M 64.7 623.7 L 237.4 623.7 M 277.6 623.7 L 318.9 623.7 M 396.1 623.7 L 909.7 623.7 M 1008.5 623.7 L 1718.9 623.7 M 1796.1 623.7 L 1837.4 623.7 M 1849.6 623.7 L 1865.4 623.7 M 1877.6 623.7 L 2050.3 623.7 M 65.4 625.6 L 234.2 625.6 M 280.8 625.6 L 318.2 625.6 M 396.8 625.6 L 909.7 625.6 M 1008.5 625.6 L 1718.2 625.6 M 1796.8 625.6 L 1834.2 625.6 M 1849.6 625.6 L 1865.4 625.6 M 1880.8 625.6 L 2049.6 625.6 M 66 627.6 L 232 627.6 M 283 627.6 L 318 627.6 M 397 627.6 L 909.7 627.6 M 1008.5 627.6 L 1718 627.6 M 1797 627.6 L 1832 627.6 M 1849.6 627.6 L 1865.4 627.6 M 1883 627.6 L 2049 627.6 M 66.7 629.5 L 229.8 629.5 M 285.2 629.5 L 317.9 629.5 M 397.1 629.5 L 909.7 629.5 M 1008.5 629.5 L 1717.9 629.5 M 1797.1 629.5 L 1829.8 629.5 M 1849.6 629.5 L 1865.4 629.5 M 1885.2 629.5 L 2048.3 629.5 M 67.3 631.5 L 227.7 631.5 M 287.3 631.5 L 317.9 631.5 M 397.1 631.5 L 909.7 631.5 M 1008.5 631.5 L 1717.9 631.5 M 1797.1 631.5 L 1827.7 631.5 M 1887.3 631.5 L 2047.7 631.5 M 68 633.4 L 226.4 633.4 M 288.6 633.4 L 317.9 633.4 M 397.1 633.4 L 909.7 633.4 M 1008.5 633.4 L 1717.9 633.4 M 1797.1 633.4 L 1826.4 633.4 M 1888.6 633.4 L 2047 633.4 M 68.6 635.4 L 225 635.4 M 290 635.4 L 317.9 635.4 M 397.1 635.4 L 909.7 635.4 M 1008.5 635.4 L 1717.9 635.4 M 1797.1 635.4 L 1825 635.4 M 1890 635.4 L 2046.4 635.4 M 69.3 637.3 L 223.7 637.3 M 291.3 637.3 L 317.9 637.3 M 397.1 637.3 L 909.7 637.3 M 1008.5 637.3 L 1717.9 637.3 M 1797.1 637.3 L 1823.7 637.3 M 1891.3 637.3 L 2045.7 637.3 M 69.9 639.3 L 222.4 639.3 M 292.6 639.3 L 317.9 639.3 M 397.1 639.3 L 909.7 639.3 M 1008.5 639.3 L 1717.9 639.3 M 1797.1 639.3 L 1822.4 639.3 M 1892.6 639.3 L 2045.1 639.3 M 70.6 641.2 L 221.6 641.2 M 293.4 641.2 L 317.9 641.2 M 397.1 641.2 L 909.7 641.2 M 1008.5 641.2 L 1717.9 641.2 M 1797.1 641.2 L 1821.6 641.2 M 1893.4 641.2 L 2044.4 641.2 M 71.2 643.2 L 220.9 643.2 M 294.1 643.2 L 317.9 643.2 M 397.1 643.2 L 909.7 643.2 M 1008.5 643.2 L 1717.9 643.2 M 1797.1 643.2 L 1820.9 643.2 M 1894.1 643.2 L 2043.8 643.2 M 71.9 645.1 L 220.2 645.1 M 294.8 645.1 L 317.9 645.1 M 397.1 645.1 L 909.7 645.1 M 1008.5 645.1 L 1717.9 645.1 M 1797.1 645.1 L 1820.2 645.1 M 1894.8 645.1 L 2043.1 645.1 M 72.5 647.1 L 219.4 647.1 M 295.6 647.1 L 317.9 647.1 M 397.1 647.1 L 909.7 647.1 M 1008.5 647.1 L 1717.9 647.1 M 1797.1 647.1 L 1819.4 647.1 M 1895.6 647.1 L 2042.5 647.1 M 73.2 649 L 219 649 M 296 649 L 317.9 649 M 397.1 649 L 909.7 649 M 1008.5 649 L 1717.9 649 M 1797.1 649 L 1819 649 M 1896 649 L 2041.8 649 M 73.8 651 L 218.7 651 M 296.3 651 L 317.9 651 M 397.1 651 L 909.7 651 M 1008.5 651 L 1717.9 651 M 1797.1 651 L 1830.5 651 M 1884.5 651 L 2041.2 651 M 74.5 652.9 L 218.5 652.9 M 296.5 652.9 L 317.9 652.9 M 397.1 652.9 L 909.7 652.9 M 1008.5 652.9 L 1717.9 652.9 M 1797.1 652.9 L 1830.5 652.9 M 1884.5 652.9 L 2040.5 652.9 M 75.1 654.9 L 218.2 654.9 M 296.8 654.9 L 317.9 654.9 M 397.1 654.9 L 909.7 654.9 M 1008.5 654.9 L 1717.9 654.9 M 1797.1 654.9 L 1830.5 654.9 M 1884.5 654.9 L 2039.9 654.9 M 75.8 656.8 L 218 656.8 M 297 656.8 L 317.9 656.8 M 397.1 656.8 L 909.7 656.8 M 1008.5 656.8 L 1717.9 656.8 M 1797.1 656.8 L 1830.5 656.8 M 1884.5 656.8 L 2039.2 656.8 M 76.4 658.8 L 218.1 658.8 M 296.9 658.8 L 317.9 658.8 M 397.1 658.8 L 909.7 658.8 M 1008.5 658.8 L 1717.9 658.8 M 1797.1 658.8 L 1830.5 658.8 M 1884.5 658.8 L 2038.6 658.8 M 77.1 660.7 L 218.3 660.7 M 296.7 660.7 L 317.9 660.7 M 397.1 660.7 L 909.7 660.7 M 1008.5 660.7 L 1717.9 660.7 M 1797.1 660.7 L 1830.5 660.7 M 1884.5 660.7 L 2037.9 660.7 M 77.7 662.7 L 218.6 662.7 M 296.4 662.7 L 317.9 662.7 M 397.1 662.7 L 909.7 662.7 M 1008.5 662.7 L 1717.9 662.7 M 1797.1 662.7 L 1830.5 662.7 M 1884.5 662.7 L 2037.3 662.7 M 78.4 664.6 L 218.8 664.6 M 296.2 664.6 L 317.9 664.6 M 397.1 664.6 L 909.7 664.6 M 1008.5 664.6 L 1717.9 664.6 M 1797.1 664.6 L 1830.5 664.6 M 1884.5 664.6 L 2036.6 664.6 M 79 666.6 L 219 666.6 M 296 666.6 L 317.9 666.6 M 397.1 666.6 L 909.7 666.6 M 1008.5 666.6 L 1717.9 666.6 M 1797.1 666.6 L 1819 666.6 M 1896 666.6 L 2036 666.6 M 79.7 668.5 L 219.7 668.5 M 295.3 668.5 L 317.9 668.5 M 397.1 668.5 L 909.7 668.5 M 1008.5 668.5 L 1717.9 668.5 M 1797.1 668.5 L 1819.7 668.5 M 1895.3 668.5 L 2035.3 668.5 M 80.3 670.5 L 220.4 670.5 M 294.6 670.5 L 317.9 670.5 M 397.1 670.5 L 909.7 670.5 M 1008.5 670.5 L 1717.9 670.5 M 1797.1 670.5 L 1820.4 670.5 M 1894.6 670.5 L 2034.7 670.5 M 81 672.4 L 221.2 672.4 M 293.8 672.4 L 317.9 672.4 M 397.1 672.4 L 909.7 672.4 M 1008.5 672.4 L 1717.9 672.4 M 1797.1 672.4 L 1821.2 672.4 M 1893.8 672.4 L 2034 672.4 M 81.6 674.4 L 221.9 674.4 M 293.1 674.4 L 317.9 674.4 M 397.1 674.4 L 909.7 674.4 M 1008.5 674.4 L 1717.9 674.4 M 1797.1 674.4 L 1821.9 674.4 M 1893.1 674.4 L 2033.4 674.4 M 82.3 676.4 L 222.8 676.4 M 292.2 676.4 L 317.9 676.4 M 397.1 676.4 L 909.7 676.4 M 1008.5 676.4 L 1717.9 676.4 M 1797.1 676.4 L 1822.8 676.4 M 1892.2 676.4 L 2032.7 676.4 M 82.9 678.3 L 224.1 678.3 M 290.9 678.3 L 317.9 678.3 M 397.1 678.3 L 909.7 678.3 M 1008.5 678.3 L 1717.9 678.3 M 1797.1 678.3 L 1824.1 678.3 M 1890.9 678.3 L 2032.1 678.3 M 83.6 680.3 L 225.5 680.3 M 289.5 680.3 L 317.9 680.3 M 397.1 680.3 L 909.7 680.3 M 1008.5 680.3 L 1717.9 680.3 M 1797.1 680.3 L 1825.5 680.3 M 1889.5 680.3 L 2031.4 680.3 M 84.2 682.2 L 226.8 682.2 M 288.2 682.2 L 317.9 682.2 M 397.1 682.2 L 909.7 682.2 M 1008.5 682.2 L 1717.9 682.2 M 1797.1 682.2 L 1826.8 682.2 M 1888.2 682.2 L 2030.8 682.2 M 84.9 684.2 L 228.3 684.2 M 286.7 684.2 L 317.9 684.2 M 397.1 684.2 L 909.7 684.2 M 1008.5 684.2 L 1717.9 684.2 M 1797.1 684.2 L 1828.3 684.2 M 1886.7 684.2 L 2030.1 684.2 M 85.5 686.1 L 230.5 686.1 M 284.5 686.1 L 317.9 686.1 M 397.1 686.1 L 909.7 686.1 M 1008.5 686.1 L 1717.9 686.1 M 1797.1 686.1 L 1830.5 686.1 M 1849.6 686.1 L 1865.4 686.1 M 1884.5 686.1 L 2029.5 686.1 M 86.2 688.1 L 232.7 688.1 M 282.3 688.1 L 318 688.1 M 397 688.1 L 909.7 688.1 M 1008.5 688.1 L 1718 688.1 M 1797 688.1 L 1832.7 688.1 M 1849.6 688.1 L 1865.4 688.1 M 1882.3 688.1 L 2028.8 688.1 M 86.8 690 L 234.9 690 M 280.1 690 L 318.4 690 M 396.6 690 L 909.7 690 M 1008.5 690 L 1718.4 690 M 1796.6 690 L 1834.9 690 M 1849.6 690 L 1865.4 690 M 1880.1 690 L 2028.2 690 M 87.5 691.9 L 238.6 691.9 M 276.4 691.9 L 319.2 691.9 M 395.8 691.9 L 909.7 691.9 M 1008.5 691.9 L 1719.2 691.9 M 1795.8 691.9 L 1838.6 691.9 M 1849.6 691.9 L 1865.4 691.9 M 1876.4 691.9 L 2027.5 691.9 M 88.1 693.9 L 242.3 693.9 M 272.7 693.9 L 320.6 693.9 M 394.4 693.9 L 909.7 693.9 M 1008.5 693.9 L 1720.6 693.9 M 1794.4 693.9 L 1842.3 693.9 M 1849.6 693.9 L 1865.4 693.9 M 1872.7 693.9 L 2026.9 693.9 M 88.8 695.8 L 248.9 695.8 M 266.1 695.8 L 323.2 695.8 M 391.8 695.8 L 909.7 695.8 M 1008.5 695.8 L 1723.2 695.8 M 1791.8 695.8 L 1848.9 695.8 M 1849.6 695.8 L 1865.4 695.8 M 1866.1 695.8 L 2026.2 695.8 M 89.4 697.8 L 909.7 697.8 M 1008.4 697.8 L 2025.6 697.8 M 90.1 699.7 L 910.1 699.7 M 1008.1 699.7 L 2024.9 699.7 M 90.7 701.7 L 910.9 701.7 M 1007.2 701.7 L 2024.3 701.7 M 91.4 703.6 L 912.3 703.6 M 1005.8 703.6 L 2023.6 703.6 M 92 705.6 L 914.7 705.6 M 1003.4 705.6 L 2023 705.6 M 92.7 707.5 L 2022.3 707.5 M 93.3 709.5 L 2021.7 709.5 M 94 711.4 L 2021 711.4 M 94.6 713.4 L 2020.4 713.4 M 95.3 715.3 L 2019.7 715.3 M 95.9 717.3 L 2019.1 717.3 M 96.6 719.2 L 2018.4 719.2 M 97.2 721.2 L 2017.8 721.2 M 97.9 723.1 L 2017.1 723.1 M 98.5 725.1 L 2016.5 725.1 M 99.2 727 L 2015.8 727 M 99.8 729 L 2015.2 729 M 100.5 730.9 L 2014.5 730.9 M 101.1 732.9 L 2013.9 732.9 M 101.8 734.8 L 2013.2 734.8 M 102.4 736.8 L 2012.6 736.8 M 103.1 738.7 L 2011.9 738.7 M 103.7 740.7 L 2011.3 740.7 M 104.4 742.7 L 2010.6 742.7 M 105 744.6 L 2010 744.6 M 105.6 746.6 L 2009.4 746.6 M 106.3 748.5 L 2008.7 748.5 M 106.9 750.5 L 2008.1 750.5 M 107.6 752.4 L 2007.4 752.4 M 108.3 754.4 L 2006.7 754.4 M 108.9 756.3 L 2006.1 756.3 M 109.6 758.2 L 2005.4 758.2 M 110.2 760.2 L 2004.8 760.2 M 110.9 762.1 L 2004.1 762.1 M 111.5 764.1 L 2003.5 764.1 M 112.2 766 L 2002.8 766 M 112.8 768 L 2002.2 768 M 113.5 769.9 L 2001.5 769.9 M 114.1 771.9 L 2000.9 771.9 M 114.8 773.8 L 2000.2 773.8 M 115.4 775.8 L 1999.6 775.8 M 116.1 777.7 L 1998.9 777.7 M 116.7 779.7 L 1998.3 779.7 M 117.4 781.6 L 1997.6 781.6 M 118 783.6 L 1997 783.6 M 118.7 785.5 L 1996.3 785.5 M 119.3 787.5 L 1995.7 787.5 M 120 789.4 L 1995 789.4"/><use x="905.5" y="510.5" xlink:href="#tool-D11-pad-1029"/><use x="959.1" y="657.5" xlink:href="#tool-D12-pad-1030"/><use x="1155.9" y="657.5" xlink:href="#tool-D13-pad-1031"/><use x="1757.5" y="657.5" xlink:href="#tool-D14-pad-1032"/><use x="1857.5" y="657.5" xlink:href="#tool-D15-pad-1033"/><use x="107.5" y="207.5" xlink:href="#tool-D16-pad-1034"/><use x="107.5" y="107.5" xlink:href="#tool-D16-pad-1034"/><use x="207.5" y="207.5" xlink:href="#tool-D16-pad-1034"/><use x="207.5" y="107.5" xlink:href="#tool-D16-pad-1034"/><use x="1907.5" y="207.5" xlink:href="#tool-D16-pad-1034"/><use x="1907.5" y="107.5" xlink:href="#tool-D16-pad-1034"/><use x="2007.5" y="207.5" xlink:href="#tool-D16-pad-1034"/><use x="2007.5" y="107.5" xlink:href="#tool-D16-pad-1034"/><use x="257.5" y="657.5" xlink:href="#tool-D17-pad-1035"/><use x="357.5" y="657.5" xlink:href="#tool-D18-pad-1036"/></g><mask id="pcb_top_mech-mask" fill="#fff" stroke="#fff" fill-rule="evenodd"><path stroke-width="0" d="M 7.5 7.5 L 307.5 7.5 L 307.5 507.5 L 807.5 507.5 L 857.5 357.5 L 1257.5 357.5 L 1307.5 507.5 L 1807.5 507.5 L 1807.5 7.5 L 2107.5 7.5 L 2107.5 507.5 L 2007.5 807.5 L 107.5 807.5 L 7.5 507.5 Z"/><g id="pcb_top-drl" fill="#000" stroke="#000"><use x="905.5" y="510.5" xlink:href="#tool-T10-pad-1000"/><use x="959.1" y="657.5" xlink:href="#tool-T11-pad-1001"/><use x="1155.9" y="657.5" xlink:href="#tool-T11-pad-1001"/><use x="1757.5" y="657.5" xlink:href="#tool-T12-pad-1002"/><use x="1857.5" y="657.5" xlink:href="#tool-T12-pad-1002"/><use x="107.5" y="207.5" xlink:href="#tool-T13-pad-1003"/><use x="107.5" y="107.5" xlink:href="#tool-T13-pad-1003"/><use x="207.5" y="207.5" xlink:href="#tool-T13-pad-1003"/><use x="207.5" y="107.5" xlink:href="#tool-T13-pad-1003"/><use x="1907.5" y="207.5" xlink:href="#tool-T13-pad-1003"/><use x="1907.5" y="107.5" xlink:href="#tool-T13-pad-1003"/><use x="2007.5" y="207.5" xlink:href="#tool-T13-pad-1003"/><use x="2007.5" y="107.5" xlink:href="#tool-T13-pad-1003"/><use x="357.5" y="657.5" xlink:href="#tool-T14-pad-1004"/><use x="257.5" y="657.5" xlink:href="#tool-T14-pad-1004"/></g></mask></defs><g mask="url(#pcb_top_mech-mask)" transform="translate(0,815) scale(1,-1)"><rect x="7.5" y="7.5" width="2100" height="800" fill="currentColor" class="pcb_board-fr4"/><use class="pcb_board-cu" xlink:href="#pcb_top-cu"/><g><defs><g id="pcb_top-sm" fill="currentColor" stroke="currentColor"><use x="905.5" y="510.5" xlink:href="#tool-D10-pad-1042"/><use x="959.1" y="657.5" xlink:href="#tool-D11-pad-1043"/><use x="1155.9" y="657.5" xlink:href="#tool-D12-pad-1044"/><use x="1757.5" y="657.5" xlink:href="#tool-D13-pad-1045"/><use x="1857.5" y="657.5" xlink:href="#tool-D14-pad-1046"/><use x="107.5" y="207.5" xlink:href="#tool-D15-pad-1047"/><use x="107.5" y="107.5" xlink:href="#tool-D15-pad-1047"/><use x="207.5" y="207.5" xlink:href="#tool-D15-pad-1047"/><use x="207.5" y="107.5" xlink:href="#tool-D15-pad-1047"/><use x="1907.5" y="207.5" xlink:href="#tool-D15-pad-1047"/><use x="1907.5" y="107.5" xlink:href="#tool-D15-pad-1047"/><use x="2007.5" y="207.5" xlink:href="#tool-D15-pad-1047"/><use x="2007.5" y="107.5" xlink:href="#tool-D15-pad-1047"/><use x="257.5" y="657.5" xlink:href="#tool-D16-pad-1048"/><use x="357.5" y="657.5" xlink:href="#tool-D17-pad-1049"/></g><mask id="pcb_top-sm_mask" color="#000"><rect x="7.5" y="7.5" width="2100" height="800" fill="#fff"/><use xlink:href="#pcb_top-sm"/></mask><mask id="pcb_top-cu_finish-mask" color="#fff"><use xlink:href="#pcb_top-cu"/></mask></defs><g mask="url(#pcb_top-sm_mask)"><rect x="7.5" y="7.5" width="2100" height="800" fill="currentColor" class="pcb_board-sm"/><g id="pcb_top-ss" class="pcb_board-ss" fill="currentColor" stroke="currentColor"><path stroke-width="5.9" fill="none" d="M 852.7 488.2 L 852.7 815 M 852.7 826.8 M 1262.3 815 L 1262.3 488.2 M 1262.3 488.2 L 852.7 488.2"/><path stroke-width="11.8" fill="none" d="M 1708.3 595.5 L 1708.3 719.5"/><use x="1807.5" y="657.5" xlink:href="#tool-D13-pad-1040"/><path d="M 1962.9 652.6 L 1966.6 651.6 L 1965.9 649.5 L 1965 647.6 L 1963.8 646 L 1962.4 644.6 L 1960.8 643.6 L 1959 642.8 L 1957.1 642.3 L 1954.9 642.2 L 1952.8 642.3 L 1950.8 642.7 L 1949.1 643.2 L 1947.5 644.1 L 1946.2 645.1 L 1945 646.3 L 1944 647.8 L 1943.2 649.4 L 1942.5 651.2 L 1942.1 653.1 L 1941.8 655 L 1941.7 657 L 1941.8 659.1 L 1942.1 661.1 L 1942.7 663 L 1943.4 664.7 L 1944.3 666.2 L 1945.4 667.5 L 1946.7 668.7 L 1948.2 669.7 L 1949.8 670.4 L 1951.4 670.9 L 1953.2 671.2 L 1955 671.4 L 1957 671.2 L 1958.9 670.8 L 1960.6 670.1 L 1962.1 669.2 L 1963.4 668 L 1964.5 666.6 L 1965.5 665 L 1966.1 663.1 L 1962.5 662.3 L 1961.9 663.7 L 1961.3 664.9 L 1960.5 666 L 1959.6 666.8 L 1958.6 667.4 L 1957.5 667.8 L 1956.3 668.1 L 1954.9 668.2 L 1953.4 668.1 L 1951.9 667.8 L 1950.6 667.3 L 1949.5 666.6 L 1948.5 665.8 L 1947.7 664.8 L 1946.9 663.7 L 1946.4 662.4 L 1946 661.1 L 1945.8 659.7 L 1945.6 658.4 L 1945.5 657 L 1945.6 655.3 L 1945.8 653.6 L 1946.1 652.1 L 1946.6 650.7 L 1947.2 649.5 L 1947.9 648.4 L 1948.8 647.5 L 1949.9 646.7 L 1951 646.2 L 1952.1 645.7 L 1953.4 645.5 L 1954.6 645.4 L 1956.2 645.5 L 1957.5 645.8 L 1958.8 646.4 L 1959.9 647.2 L 1961 648.2 L 1961.8 649.5 L 1962.4 650.9 L 1962.9 652.6 L 1962.9 652.6 Z"/><path d="M 1988 646 L 1988 642.7 L 1969.4 642.7 L 1969.4 643.3 L 1969.5 643.9 L 1969.6 644.5 L 1969.8 645.1 L 1970.2 646 L 1970.7 647 L 1971.3 647.9 L 1972.1 648.8 L 1972.9 649.8 L 1974 650.8 L 1975.2 651.9 L 1976.6 653.1 L 1978.7 654.9 L 1980.4 656.5 L 1981.8 657.9 L 1982.8 659.1 L 1983.5 660.2 L 1984 661.2 L 1984.3 662.2 L 1984.4 663.2 L 1984.3 664.2 L 1984 665.1 L 1983.6 666 L 1982.9 666.7 L 1982.1 667.3 L 1981.2 667.8 L 1980.2 668.1 L 1979.1 668.1 L 1977.9 668 L 1976.8 667.7 L 1975.9 667.3 L 1975.1 666.6 L 1974.4 665.8 L 1974 664.8 L 1973.7 663.7 L 1973.6 662.5 L 1970 662.9 L 1970.3 664.7 L 1970.9 666.4 L 1971.7 667.7 L 1972.8 668.9 L 1974.1 669.8 L 1975.6 670.5 L 1977.3 670.8 L 1979.2 671 L 1981.1 670.8 L 1982.8 670.4 L 1984.3 669.7 L 1985.6 668.7 L 1986.6 667.5 L 1987.4 666.2 L 1987.8 664.7 L 1988 663.2 L 1987.9 662.3 L 1987.8 661.5 L 1987.6 660.6 L 1987.3 659.8 L 1986.9 659 L 1986.4 658.2 L 1985.7 657.3 L 1985 656.4 L 1984 655.4 L 1982.8 654.3 L 1981.4 652.9 L 1979.6 651.4 L 1978.2 650.2 L 1977.1 649.2 L 1976.2 648.4 L 1975.6 647.9 L 1975.2 647.4 L 1974.8 646.9 L 1974.5 646.5 L 1974.2 646 L 1988 646 L 1988 646 Z"/><path d="M 59.5 59.5 L 255.5 59.5 L 255.5 255.5 L 59.5 255.5 L 59.5 59.5 Z"/><path d="M 39.5 39.5 L 275.5 39.5 L 275.5 275.5 L 39.5 275.5 L 39.5 39.5 Z"/><path d="M 1859.5 59.5 L 2055.5 59.5 L 2055.5 255.5 L 1859.5 255.5 L 1859.5 59.5 Z"/><path d="M 1839.5 39.5 L 2075.5 39.5 L 2075.5 275.5 L 1839.5 275.5 L 1839.5 39.5 Z"/><path stroke-width="11.8" fill="none" d="M 406.7 719.5 L 406.7 595.5"/><use x="307.5" y="657.5" xlink:href="#tool-D14-pad-1041"/><path d="M 151.9 651.6 L 155.6 650.6 L 154.9 648.5 L 154 646.6 L 152.8 645 L 151.4 643.6 L 149.8 642.6 L 148 641.8 L 146.1 641.4 L 144 641.2 L 141.8 641.3 L 139.8 641.7 L 138.1 642.3 L 136.6 643.1 L 135.2 644.1 L 134 645.3 L 133 646.8 L 132.2 648.4 L 131.6 650.2 L 131.1 652.1 L 130.8 654 L 130.7 656 L 130.8 658.1 L 131.1 660.1 L 131.6 661.9 L 132.4 663.7 L 133.3 665.2 L 134.4 666.6 L 135.7 667.7 L 137.2 668.6 L 138.8 669.4 L 140.5 669.9 L 142.2 670.3 L 144 670.3 L 146 670.2 L 147.9 669.8 L 149.6 669.2 L 151.1 668.2 L 152.5 667 L 153.6 665.6 L 154.5 664 L 155.1 662.1 L 151.5 661.3 L 150.9 662.7 L 150.3 663.9 L 149.5 664.9 L 148.6 665.8 L 147.6 666.4 L 146.5 666.8 L 145.3 667.1 L 143.9 667.1 L 142.4 667.1 L 141 666.8 L 139.7 666.3 L 138.5 665.6 L 137.5 664.7 L 136.6 663.8 L 136 662.7 L 135.5 661.4 L 135.1 660.1 L 134.8 658.8 L 134.6 657.4 L 134.5 656 L 134.6 654.3 L 134.8 652.7 L 135.1 651.1 L 135.6 649.7 L 136.2 648.5 L 136.9 647.4 L 137.8 646.5 L 138.8 645.7 L 140 645.1 L 141.2 644.7 L 142.4 644.5 L 143.6 644.4 L 145.1 644.5 L 146.6 644.9 L 147.8 645.4 L 149 646.2 L 149.9 647.2 L 150.8 648.4 L 151.4 649.9 L 151.9 651.6 L 151.9 651.6 Z"/><path d="M 171.8 641.7 L 168.4 641.7 L 168.4 663.7 L 167.7 663.1 L 166.9 662.5 L 166.1 661.9 L 165.1 661.4 L 164.1 660.8 L 163.2 660.3 L 162.3 659.9 L 161.5 659.6 L 161.5 662.9 L 162.9 663.6 L 164.2 664.4 L 165.4 665.3 L 166.6 666.2 L 167.5 667.2 L 168.4 668.1 L 169.1 669.1 L 169.6 670 L 171.8 670 L 171.8 641.7 L 171.8 641.7 Z"/><path d="M 136.5 314.2 L 86.4 294.8 L 86.4 302 L 122.8 315 L 124.9 315.8 L 127 316.4 L 129 317.1 L 131 317.7 L 129 318.2 L 126.9 318.9 L 124.9 319.6 L 122.8 320.3 L 86.4 333.9 L 86.4 340.6 L 136.5 321 L 136.5 314.2 L 136.5 314.2 Z"/><path d="M 118.9 382.3 L 120.6 389 L 124.4 387.7 L 127.8 386 L 130.7 384 L 133.1 381.5 L 134.9 378.6 L 136.3 375.5 L 137.1 372 L 137.3 368.2 L 137.1 364.4 L 136.5 360.9 L 135.5 357.8 L 134.1 355.1 L 132.2 352.7 L 130 350.6 L 127.5 348.8 L 124.5 347.3 L 121.3 346.2 L 118 345.3 L 114.6 344.8 L 111.1 344.7 L 107.3 344.9 L 103.8 345.4 L 100.5 346.4 L 97.4 347.7 L 94.7 349.3 L 92.3 351.3 L 90.3 353.6 L 88.6 356.2 L 87.2 359 L 86.3 362 L 85.7 365.1 L 85.5 368.3 L 85.8 371.9 L 86.5 375.3 L 87.7 378.2 L 89.4 381 L 91.5 383.3 L 94 385.3 L 96.9 386.9 L 100.1 388.1 L 101.7 381.6 L 99.1 380.6 L 96.9 379.5 L 95.1 378.1 L 93.7 376.5 L 92.6 374.8 L 91.8 372.8 L 91.4 370.6 L 91.2 368.2 L 91.4 365.4 L 91.9 362.9 L 92.8 360.6 L 94 358.5 L 95.5 356.8 L 97.2 355.2 L 99.2 354 L 101.4 353.1 L 103.8 352.4 L 106.2 351.9 L 108.6 351.6 L 111 351.5 L 114.1 351.6 L 117 352 L 119.7 352.6 L 122.2 353.4 L 124.4 354.4 L 126.4 355.8 L 128 357.3 L 129.3 359.2 L 130.3 361.2 L 131.1 363.2 L 131.5 365.4 L 131.7 367.7 L 131.5 370.4 L 130.9 372.8 L 129.9 375.1 L 128.5 377.1 L 126.7 378.9 L 124.5 380.3 L 121.9 381.5 L 118.9 382.3 L 118.9 382.3 Z"/><path d="M 118.9 432.9 L 120.6 439.5 L 124.4 438.3 L 127.8 436.6 L 130.7 434.5 L 133.1 432 L 134.9 429.2 L 136.3 426 L 137.1 422.5 L 137.3 418.8 L 137.1 414.9 L 136.5 411.4 L 135.5 408.3 L 134.1 405.6 L 132.2 403.2 L 130 401.1 L 127.5 399.4 L 124.5 397.9 L 121.3 396.7 L 118 395.9 L 114.6 395.4 L 111.1 395.2 L 107.3 395.4 L 103.8 396 L 100.5 396.9 L 97.4 398.2 L 94.7 399.9 L 92.3 401.8 L 90.3 404.1 L 88.6 406.7 L 87.2 409.5 L 86.3 412.5 L 85.7 415.6 L 85.5 418.9 L 85.8 422.5 L 86.5 425.8 L 87.7 428.8 L 89.4 431.5 L 91.5 433.9 L 94 435.9 L 96.9 437.5 L 100.1 438.7 L 101.7 432.1 L 99.1 431.2 L 96.9 430 L 95.1 428.6 L 93.7 427.1 L 92.6 425.3 L 91.8 423.3 L 91.4 421.2 L 91.2 418.8 L 91.4 416 L 91.9 413.4 L 92.8 411.2 L 94 409.1 L 95.5 407.3 L 97.2 405.8 L 99.2 404.6 L 101.4 403.6 L 103.8 402.9 L 106.2 402.5 L 108.6 402.1 L 111 402.1 L 114.1 402.2 L 117 402.5 L 119.7 403.1 L 122.2 403.9 L 124.4 405 L 126.4 406.3 L 128 407.9 L 129.3 409.7 L 130.3 411.7 L 131.1 413.8 L 131.5 416 L 131.7 418.2 L 131.5 420.9 L 130.9 423.4 L 129.9 425.6 L 128.5 427.7 L 126.7 429.4 L 124.5 430.9 L 121.9 432.1 L 118.9 432.9 L 118.9 432.9 Z"/><path d="M 1936.5 315.2 L 1886.4 295.8 L 1886.4 303 L 1922.8 316 L 1924.9 316.8 L 1927 317.5 L 1929 318.1 L 1931 318.6 L 1929 319.2 L 1926.9 319.9 L 1924.9 320.6 L 1922.8 321.4 L 1886.4 334.9 L 1886.4 341.6 L 1936.5 322 L 1936.5 315.2 L 1936.5 315.2 Z"/><path d="M 1936.5 347.7 L 1886.4 347.7 L 1886.4 384 L 1892.3 384 L 1892.3 354.4 L 1907.7 354.4 L 1907.7 382.1 L 1913.5 382.1 L 1913.5 354.4 L 1930.6 354.4 L 1930.6 385.1 L 1936.5 385.1 L 1936.5 347.7 L 1936.5 347.7 Z"/><path d="M 1936.5 394.4 L 1886.4 394.4 L 1886.4 430.6 L 1892.3 430.6 L 1892.3 401 L 1907.7 401 L 1907.7 428.8 L 1913.5 428.8 L 1913.5 401 L 1930.6 401 L 1930.6 431.8 L 1936.5 431.8 L 1936.5 394.4 L 1936.5 394.4 Z"/><path d="M 2013.8 319.4 L 2008 319.4 L 2007.9 340.6 L 2026.5 340.6 L 2028.4 338.1 L 2029.9 335.6 L 2031.3 333.1 L 2032.4 330.5 L 2033.2 327.9 L 2033.9 325.2 L 2034.2 322.5 L 2034.4 319.8 L 2034.2 316.2 L 2033.6 312.8 L 2032.6 309.5 L 2031.2 306.4 L 2029.4 303.6 L 2027.3 301.1 L 2024.9 299 L 2022.1 297.3 L 2019 296 L 2015.7 295 L 2012.3 294.4 L 2008.7 294.2 L 2005.1 294.4 L 2001.6 295 L 1998.2 296 L 1995 297.3 L 1992.1 299 L 1989.5 301 L 1987.3 303.4 L 1985.6 306.1 L 1984.3 309.1 L 1983.3 312.3 L 1982.7 315.7 L 1982.5 319.3 L 1982.7 321.9 L 1983 324.5 L 1983.5 326.9 L 1984.3 329.2 L 1985.3 331.2 L 1986.4 333.1 L 1987.7 334.7 L 1989.2 336 L 1990.9 337.2 L 1992.8 338.2 L 1995 339.1 L 1997.4 339.8 L 1999 333.8 L 1997.2 333.2 L 1995.6 332.6 L 1994.2 331.8 L 1993 331 L 1992 330.1 L 1991 329 L 1990.3 327.7 L 1989.5 326.2 L 1989 324.7 L 1988.5 323 L 1988.3 321.2 L 1988.2 319.4 L 1988.3 317.1 L 1988.6 315.1 L 1989 313.2 L 1989.6 311.5 L 1990.3 309.9 L 1991.2 308.5 L 1992.1 307.2 L 1993.2 306.1 L 1994.4 305.2 L 1995.6 304.3 L 1996.9 303.6 L 1998.2 303 L 2000.6 302.1 L 2003.1 301.6 L 2005.6 301.2 L 2008.3 301 L 2011.5 301.2 L 2014.4 301.6 L 2017.1 302.3 L 2019.5 303.4 L 2021.6 304.7 L 2023.4 306.2 L 2024.9 308 L 2026.2 310.1 L 2027.1 312.3 L 2027.8 314.6 L 2028.2 317 L 2028.4 319.5 L 2028.3 321.6 L 2028 323.7 L 2027.4 325.8 L 2026.7 327.9 L 2025.9 329.8 L 2025 331.5 L 2024.1 332.9 L 2023.2 334.1 L 2013.8 334.1 L 2013.8 319.4 L 2013.8 319.4 Z"/><path d="M 2033.5 350.3 L 1983.4 350.3 L 1983.4 357.1 L 2022.7 383.4 L 1983.4 383.4 L 1983.4 389.7 L 2033.5 389.7 L 2033.5 383 L 1994.1 356.6 L 2033.5 356.6 L 2033.5 350.3 L 2033.5 350.3 Z"/><path d="M 2033.5 400.9 L 1983.4 400.9 L 1983.4 418.1 L 1989.3 418.1 L 1989.3 407.5 L 2027.6 407.5 L 2027.6 407.5 L 2027.6 418.2 L 2027.5 420.6 L 2027.3 422.7 L 2027.1 424.5 L 2026.7 426 L 2026.2 427.3 L 2025.6 428.5 L 2024.9 429.6 L 2024.1 430.5 L 2022.8 431.6 L 2021.3 432.6 L 2019.6 433.4 L 2017.7 434.2 L 2015.6 434.7 L 2013.3 435.2 L 2010.8 435.4 L 2008.1 435.5 L 2004.4 435.3 L 2001.1 434.9 L 1998.3 434 L 1996 432.9 L 1994 431.6 L 1992.5 430.1 L 1991.2 428.4 L 1990.3 426.6 L 1989.9 425.1 L 1989.5 423.2 L 1989.4 420.8 L 1989.3 418.1 L 1983.4 418.1 L 1983.4 418.2 L 1983.4 420.9 L 1983.6 423.3 L 1983.8 425.4 L 1984.1 427.1 L 1984.7 429.2 L 1985.5 431.1 L 1986.5 432.8 L 1987.7 434.4 L 1989.5 436.3 L 1991.5 437.9 L 1993.8 439.3 L 1996.3 440.4 L 1999 441.2 L 2001.8 441.8 L 2004.9 442.2 L 2008.2 442.3 L 2011 442.3 L 2013.6 442 L 2016 441.6 L 2018.3 441 L 2020.4 440.3 L 2022.3 439.5 L 2024 438.6 L 2025.6 437.6 L 2026.9 436.5 L 2028.2 435.4 L 2029.2 434.2 L 2030.1 433 L 2030.9 431.7 L 2031.6 430.3 L 2032.2 428.7 L 2032.7 427 L 2033 425.2 L 2033.3 423.3 L 2033.4 421.2 L 2033.5 419 L 2033.5 400.9 L 2033.5 400.9 Z"/><path d="M 536.6 601.5 L 495 708.9 L 510.4 708.9 L 538.3 630.9 L 539.9 626.2 L 541.4 621.8 L 542.7 617.5 L 544 613.3 L 545.3 617.7 L 546.6 622.1 L 548.1 626.5 L 549.7 630.9 L 578.8 708.9 L 593.2 708.9 L 551.2 601.5 L 536.6 601.5 L 536.6 601.5 Z"/><path d="M 682.6 639.2 L 696.8 635.6 L 694.2 627.3 L 690.6 620.1 L 686.1 614 L 680.7 608.9 L 674.6 604.8 L 667.9 601.9 L 660.4 600.3 L 652.3 599.7 L 644.1 600.1 L 636.6 601.4 L 630 603.6 L 624.1 606.8 L 619 610.6 L 614.5 615.4 L 610.7 620.9 L 607.6 627.2 L 605.1 634 L 603.3 641.1 L 602.3 648.4 L 601.9 656 L 602.3 664.1 L 603.5 671.7 L 605.5 678.8 L 608.3 685.3 L 611.8 691.1 L 616.1 696.2 L 621 700.6 L 626.6 704.2 L 632.6 707.1 L 639 709.1 L 645.6 710.3 L 652.6 710.7 L 660.3 710.2 L 667.4 708.6 L 673.9 706.1 L 679.7 702.5 L 684.7 698 L 689 692.6 L 692.4 686.4 L 695 679.4 L 681 676.1 L 678.9 681.6 L 676.4 686.2 L 673.5 690.1 L 670.1 693.2 L 666.4 695.5 L 662.1 697.2 L 657.4 698.2 L 652.3 698.6 L 646.4 698.2 L 640.9 697.1 L 636 695.2 L 631.6 692.6 L 627.7 689.4 L 624.5 685.6 L 621.9 681.4 L 619.9 676.7 L 618.4 671.6 L 617.4 666.5 L 616.8 661.3 L 616.6 656.1 L 616.8 649.4 L 617.5 643.2 L 618.8 637.5 L 620.5 632.1 L 622.8 627.4 L 625.6 623.2 L 629 619.7 L 632.9 616.9 L 637.3 614.7 L 641.7 613.1 L 646.4 612.1 L 651.2 611.8 L 656.9 612.3 L 662.2 613.6 L 667 615.7 L 671.4 618.7 L 675.2 622.6 L 678.3 627.3 L 680.8 632.8 L 682.6 639.2 L 682.6 639.2 Z"/><path d="M 790.9 639.2 L 805.1 635.6 L 802.5 627.3 L 798.9 620.1 L 794.4 614 L 789.1 608.9 L 782.9 604.8 L 776.2 601.9 L 768.8 600.3 L 760.7 599.7 L 752.4 600.1 L 744.9 601.4 L 738.3 603.6 L 732.5 606.8 L 727.3 610.6 L 722.9 615.4 L 719.1 620.9 L 715.9 627.2 L 713.4 634 L 711.6 641.1 L 710.6 648.4 L 710.2 656 L 710.6 664.1 L 711.8 671.7 L 713.8 678.8 L 716.6 685.3 L 720.2 691.1 L 724.4 696.2 L 729.3 700.6 L 734.9 704.2 L 740.9 707.1 L 747.3 709.1 L 754 710.3 L 760.9 710.7 L 768.6 710.2 L 775.7 708.6 L 782.2 706.1 L 788 702.5 L 793.1 698 L 797.3 692.6 L 800.7 686.4 L 803.3 679.4 L 789.3 676.1 L 787.2 681.6 L 784.7 686.2 L 781.8 690.1 L 778.5 693.2 L 774.7 695.5 L 770.5 697.2 L 765.8 698.2 L 760.6 698.6 L 754.7 698.2 L 749.2 697.1 L 744.3 695.2 L 739.9 692.6 L 736.1 689.4 L 732.9 685.6 L 730.2 681.4 L 728.2 676.7 L 726.8 671.6 L 725.7 666.5 L 725.1 661.3 L 724.9 656.1 L 725.1 649.4 L 725.8 643.2 L 727.1 637.5 L 728.9 632.1 L 731.1 627.4 L 734 623.2 L 737.3 619.7 L 741.3 616.9 L 745.6 614.7 L 750.1 613.1 L 754.7 612.1 L 759.5 611.8 L 765.3 612.3 L 770.5 613.6 L 775.4 615.7 L 779.7 618.7 L 783.5 622.6 L 786.7 627.3 L 789.1 632.8 L 790.9 639.2 L 790.9 639.2 Z"/><path d="M 212.9 318.4 L 206.9 318.4 L 206.9 339.6 L 225.5 339.6 L 227.3 337.1 L 229 334.6 L 230.3 332.1 L 231.4 329.5 L 232.3 326.9 L 232.9 324.2 L 233.2 321.6 L 233.4 318.8 L 233.2 315.2 L 232.6 311.8 L 231.6 308.5 L 230.2 305.4 L 228.4 302.6 L 226.3 300.1 L 223.9 298 L 221 296.3 L 218 294.9 L 214.7 294 L 211.3 293.4 L 207.7 293.2 L 204.1 293.4 L 200.6 294 L 197.3 294.9 L 194 296.3 L 191.1 298 L 188.5 300 L 186.4 302.4 L 184.6 305.1 L 183.3 308.1 L 182.3 311.3 L 181.7 314.7 L 181.6 318.3 L 181.6 321 L 182 323.5 L 182.5 325.9 L 183.3 328.1 L 184.3 330.2 L 185.4 332.1 L 186.7 333.6 L 188.2 335 L 189.9 336.2 L 191.8 337.2 L 194 338.1 L 196.4 338.8 L 198.1 332.9 L 196.2 332.2 L 194.6 331.6 L 193.2 330.8 L 192 330 L 191 329.1 L 190.1 328 L 189.2 326.7 L 188.5 325.3 L 187.9 323.6 L 187.5 322 L 187.3 320.2 L 187.2 318.4 L 187.3 316.2 L 187.5 314.1 L 188 312.2 L 188.6 310.5 L 189.4 308.9 L 190.2 307.5 L 191.2 306.2 L 192.2 305.1 L 193.4 304.2 L 194.6 303.3 L 195.9 302.6 L 197.2 302 L 199.5 301.1 L 202 300.5 L 204.6 300.2 L 207.3 300.1 L 210.5 300.2 L 213.4 300.6 L 216.1 301.4 L 218.5 302.4 L 220.6 303.6 L 222.4 305.2 L 224 307 L 225.2 309.1 L 226.2 311.3 L 226.8 313.6 L 227.2 316 L 227.4 318.4 L 227.3 320.6 L 226.9 322.7 L 226.4 324.8 L 225.7 326.9 L 224.9 328.8 L 224 330.5 L 223.1 331.9 L 222.2 333.1 L 212.9 333.1 L 212.9 318.4 L 212.9 318.4 Z"/><path d="M 232.5 349.3 L 182.4 349.3 L 182.4 356.1 L 221.8 382.4 L 182.4 382.4 L 182.4 388.8 L 232.5 388.8 L 232.5 381.9 L 193.1 355.6 L 232.5 355.6 L 232.5 349.3 L 232.5 349.3 Z"/><path d="M 232.5 399.9 L 182.4 399.9 L 182.4 417.1 L 188.3 417.1 L 188.3 406.5 L 226.6 406.5 L 226.6 406.5 L 226.6 417.2 L 226.5 419.6 L 226.4 421.7 L 226.1 423.4 L 225.6 425 L 225.1 426.4 L 224.5 427.5 L 223.8 428.6 L 223.1 429.5 L 221.8 430.6 L 220.3 431.6 L 218.6 432.5 L 216.7 433.2 L 214.6 433.8 L 212.3 434.2 L 209.8 434.4 L 207.1 434.5 L 203.4 434.4 L 200.1 433.8 L 197.3 433.1 L 195 431.9 L 193.1 430.6 L 191.5 429 L 190.2 427.4 L 189.4 425.6 L 188.9 424.1 L 188.6 422.1 L 188.4 419.8 L 188.3 417.1 L 182.4 417.1 L 182.4 417.1 L 182.4 419.9 L 182.6 422.3 L 182.8 424.4 L 183.1 426.1 L 183.7 428.2 L 184.5 430.1 L 185.5 431.8 L 186.7 433.4 L 188.5 435.3 L 190.5 436.9 L 192.8 438.2 L 195.3 439.4 L 198 440.2 L 200.8 440.8 L 203.9 441.2 L 207.2 441.3 L 209.9 441.2 L 212.5 441 L 215 440.6 L 217.3 440 L 219.4 439.3 L 221.3 438.5 L 223.1 437.6 L 224.6 436.6 L 226 435.5 L 227.2 434.4 L 228.2 433.2 L 229.1 432 L 229.9 430.7 L 230.6 429.3 L 231.2 427.7 L 231.6 426 L 232 424.2 L 232.3 422.3 L 232.5 420.2 L 232.5 418 L 232.5 399.9 L 232.5 399.9 Z"/><path d="M 1354.9 646.6 L 1354.9 659.2 L 1400.4 659.3 L 1400.4 619.4 L 1395.1 615.5 L 1389.7 612.1 L 1384.3 609.2 L 1378.8 606.9 L 1373.2 605 L 1367.5 603.7 L 1361.8 602.9 L 1355.9 602.7 L 1348.2 603.1 L 1340.8 604.4 L 1333.8 606.5 L 1327.2 609.4 L 1321.1 613.2 L 1315.8 617.7 L 1311.4 623 L 1307.7 629 L 1304.8 635.6 L 1302.7 642.6 L 1301.5 649.9 L 1301 657.7 L 1301.5 665.4 L 1302.7 672.8 L 1304.7 680 L 1307.6 686.9 L 1311.2 693.3 L 1315.6 698.8 L 1320.7 703.4 L 1326.5 707.1 L 1332.9 710 L 1339.7 712.1 L 1347 713.3 L 1354.8 713.7 L 1360.5 713.5 L 1365.9 712.8 L 1371 711.6 L 1375.9 709.9 L 1380.3 707.9 L 1384.3 705.4 L 1387.7 702.6 L 1390.6 699.4 L 1393.1 695.8 L 1395.3 691.7 L 1397.2 687 L 1398.8 681.8 L 1386 678.3 L 1384.7 682.2 L 1383.2 685.6 L 1381.7 688.6 L 1379.9 691.2 L 1378 693.4 L 1375.6 695.5 L 1372.8 697.2 L 1369.7 698.7 L 1366.3 699.9 L 1362.7 700.8 L 1358.9 701.4 L 1354.9 701.6 L 1350.2 701.4 L 1345.8 700.8 L 1341.8 699.9 L 1338.1 698.6 L 1334.7 697 L 1331.6 695.1 L 1328.9 693.1 L 1326.6 690.8 L 1324.5 688.3 L 1322.7 685.7 L 1321.1 683 L 1319.8 680.2 L 1318 675.1 L 1316.7 669.8 L 1316 664.3 L 1315.7 658.6 L 1316 651.7 L 1316.9 645.4 L 1318.5 639.7 L 1320.6 634.5 L 1323.4 630 L 1326.7 626.1 L 1330.6 622.8 L 1335.1 620.2 L 1339.8 618.1 L 1344.8 616.7 L 1349.9 615.8 L 1355.1 615.5 L 1359.7 615.7 L 1364.2 616.4 L 1368.7 617.5 L 1373.1 619 L 1377.3 620.8 L 1380.8 622.7 L 1383.9 624.6 L 1386.5 626.6 L 1386.5 646.6 L 1354.9 646.6 L 1354.9 646.6 Z"/><path d="M 1421.2 604.5 L 1421.2 711.9 L 1435.8 711.9 L 1492.1 627.6 L 1492.1 711.9 L 1505.8 711.9 L 1505.8 604.5 L 1491.2 604.5 L 1434.8 688.9 L 1434.8 604.5 L 1421.2 604.5 L 1421.2 604.5 Z"/><path d="M 1529.7 604.5 L 1529.7 711.9 L 1566.4 711.9 L 1566.4 699.2 L 1543.9 699.2 L 1543.9 617.2 L 1543.9 617.2 L 1566.8 617.2 L 1571.8 617.3 L 1576.3 617.7 L 1580.1 618.3 L 1583.4 619.2 L 1586.3 620.3 L 1588.9 621.5 L 1591.1 623 L 1593.1 624.7 L 1595.5 627.5 L 1597.6 630.6 L 1599.4 634.3 L 1601 638.3 L 1602.2 642.8 L 1603.1 647.7 L 1603.6 653.1 L 1603.8 659 L 1603.4 666.9 L 1602.4 673.9 L 1600.6 679.9 L 1598.2 684.9 L 1595.3 689 L 1592.1 692.4 L 1588.6 695.1 L 1584.8 697 L 1581.5 698 L 1577.3 698.6 L 1572.3 699.1 L 1566.4 699.2 L 1566.4 711.9 L 1566.6 711.9 L 1572.5 711.8 L 1577.7 711.5 L 1582.1 711 L 1585.8 710.3 L 1590.2 709.1 L 1594.3 707.3 L 1598.1 705.2 L 1601.5 702.7 L 1605.5 698.8 L 1608.9 694.5 L 1611.8 689.6 L 1614.2 684.3 L 1616 678.5 L 1617.4 672.3 L 1618.2 665.8 L 1618.4 658.8 L 1618.2 652.8 L 1617.7 647.2 L 1616.8 642 L 1615.6 637.1 L 1614 632.6 L 1612.3 628.4 L 1610.4 624.7 L 1608.2 621.4 L 1606 618.5 L 1603.6 615.9 L 1601.1 613.6 L 1598.4 611.7 L 1595.7 610.1 L 1592.6 608.6 L 1589.3 607.3 L 1585.6 606.3 L 1581.8 605.5 L 1577.6 604.9 L 1573.1 604.6 L 1568.4 604.5 L 1529.7 604.5 L 1529.7 604.5 Z"/></g></g><use class="pcb_board-cf" mask="url(#pcb_top-cu_finish-mask)" xlink:href="#pcb_top-sm"/></g></g></svg>