%FSLAX33Y33*%
%MOMM*%
%ADD10C,0.15*%
%ADD11C,0.5*%
%ADD12C,0.125*%
D10*
%LNtop silkscreen_traces*%
%LNtop silkscreen component aa5e6b58f608f077*%
G01*
X9250Y9025D02*
X9250Y15125D01*
X28750Y15125*
X28750Y9025*
X9250Y9025*
X9750Y9025D02*
X9750Y15125D01*
X28250Y15125*
X28250Y9025*
X9750Y9025*
G36*
X27247Y10191D02*
X27342Y10191D01*
X27342Y9777D01*
X27340Y9726D01*
X27335Y9680D01*
X27328Y9640D01*
X27317Y9606D01*
X27303Y9576D01*
X27283Y9548D01*
X27258Y9524D01*
X27229Y9503D01*
X27195Y9485D01*
X27155Y9473D01*
X27111Y9465D01*
X27062Y9463D01*
X27014Y9465D01*
X26970Y9471D01*
X26932Y9482D01*
X26897Y9497D01*
X26868Y9517D01*
X26842Y9540D01*
X26822Y9567D01*
X26806Y9598D01*
X26794Y9634D01*
X26785Y9675D01*
X26780Y9723D01*
X26779Y9777D01*
X26779Y10191D01*
X26873Y10191D01*
X26873Y9778D01*
X26874Y9734D01*
X26878Y9697D01*
X26883Y9665D01*
X26891Y9640D01*
X26901Y9619D01*
X26914Y9601D01*
X26931Y9585D01*
X26950Y9572D01*
X26973Y9562D01*
X26997Y9554D01*
X27024Y9550D01*
X27054Y9548D01*
X27102Y9551D01*
X27143Y9560D01*
X27176Y9575D01*
X27202Y9596D01*
X27222Y9625D01*
X27236Y9665D01*
X27244Y9716D01*
X27247Y9778D01*
X27247Y10191D01*
X27247Y10191D01*
X27795Y9475D02*
X27707Y9475D01*
X27707Y10035D01*
X27690Y10020D01*
X27670Y10005D01*
X27648Y9990D01*
X27624Y9975D01*
X27598Y9960D01*
X27575Y9948D01*
X27552Y9938D01*
X27531Y9929D01*
X27531Y10014D01*
X27567Y10032D01*
X27600Y10052D01*
X27631Y10074D01*
X27660Y10098D01*
X27686Y10123D01*
X27707Y10147D01*
X27725Y10170D01*
X27738Y10194D01*
X27795Y10194D01*
X27795Y9475D01*
X27795Y9475D01*
G37*
%LNtop silkscreen component 08c10c19d67bbcb7*%
X-8400Y16145D02*
X8500Y16145D01*
X8500Y0855*
X-8400Y0855*
X-8400Y16145*
D11*
X9000Y7120D03*
G36*
X6884Y2953D02*
X6969Y2965D01*
X6972Y2927D01*
X6979Y2896D01*
X6988Y2871D01*
X7000Y2853D01*
X7015Y2839D01*
X7033Y2830D01*
X7053Y2824D01*
X7076Y2822D01*
X7093Y2823D01*
X7109Y2826D01*
X7124Y2831D01*
X7137Y2839D01*
X7149Y2848D01*
X7159Y2858D01*
X7167Y2870D01*
X7173Y2883D01*
X7177Y2899D01*
X7180Y2919D01*
X7182Y2944D01*
X7183Y2973D01*
X7183Y3466D01*
X7277Y3466D01*
X7277Y2978D01*
X7276Y2936D01*
X7272Y2898D01*
X7265Y2866D01*
X7256Y2839D01*
X7243Y2816D01*
X7228Y2795D01*
X7209Y2778D01*
X7187Y2764D01*
X7162Y2752D01*
X7136Y2744D01*
X7107Y2739D01*
X7076Y2738D01*
X7032Y2741D01*
X6993Y2751D01*
X6960Y2768D01*
X6932Y2792D01*
X6910Y2822D01*
X6895Y2859D01*
X6886Y2903D01*
X6884Y2953D01*
X6884Y2953D01*
X7728Y2750D02*
X7640Y2750D01*
X7640Y3310D01*
X7623Y3295D01*
X7603Y3280D01*
X7581Y3265D01*
X7556Y3250D01*
X7531Y3235D01*
X7508Y3223D01*
X7485Y3213D01*
X7464Y3204D01*
X7464Y3289D01*
X7500Y3307D01*
X7533Y3327D01*
X7564Y3349D01*
X7593Y3373D01*
X7618Y3398D01*
X7640Y3422D01*
X7657Y3445D01*
X7671Y3469D01*
X7728Y3469D01*
X7728Y2750D01*
X7728Y2750D01*
G37*
%LNtop silkscreen component d92353f841ac44f0*%
D10*
X9250Y1875D02*
X9250Y7975D01*
X28750Y7975*
X28750Y1875*
X9250Y1875*
X9750Y1875D02*
X9750Y7975D01*
X28250Y7975*
X28250Y1875*
X9750Y1875*
G36*
X27147Y7441D02*
X27242Y7441D01*
X27242Y7027D01*
X27240Y6976D01*
X27235Y6930D01*
X27228Y6890D01*
X27217Y6856D01*
X27203Y6826D01*
X27183Y6798D01*
X27158Y6774D01*
X27129Y6753D01*
X27095Y6735D01*
X27055Y6723D01*
X27011Y6715D01*
X26962Y6713D01*
X26914Y6715D01*
X26870Y6721D01*
X26832Y6732D01*
X26797Y6747D01*
X26768Y6767D01*
X26742Y6790D01*
X26722Y6817D01*
X26706Y6848D01*
X26694Y6884D01*
X26685Y6926D01*
X26680Y6973D01*
X26679Y7027D01*
X26679Y7441D01*
X26773Y7441D01*
X26773Y7028D01*
X26774Y6984D01*
X26778Y6947D01*
X26783Y6915D01*
X26791Y6890D01*
X26801Y6869D01*
X26814Y6851D01*
X26831Y6835D01*
X26850Y6822D01*
X26873Y6812D01*
X26897Y6804D01*
X26924Y6800D01*
X26954Y6798D01*
X27002Y6801D01*
X27043Y6810D01*
X27076Y6825D01*
X27102Y6846D01*
X27122Y6875D01*
X27136Y6915D01*
X27144Y6966D01*
X27147Y7028D01*
X27147Y7441D01*
X27147Y7441D01*
X27826Y6809D02*
X27826Y6725D01*
X27352Y6725D01*
X27353Y6741D01*
X27355Y6756D01*
X27358Y6771D01*
X27363Y6786D01*
X27373Y6810D01*
X27386Y6834D01*
X27402Y6858D01*
X27421Y6881D01*
X27443Y6906D01*
X27469Y6932D01*
X27500Y6960D01*
X27536Y6990D01*
X27589Y7035D01*
X27633Y7075D01*
X27668Y7111D01*
X27693Y7141D01*
X27711Y7169D01*
X27724Y7196D01*
X27732Y7222D01*
X27734Y7247D01*
X27732Y7272D01*
X27725Y7295D01*
X27713Y7316D01*
X27697Y7335D01*
X27677Y7351D01*
X27654Y7362D01*
X27628Y7369D01*
X27600Y7371D01*
X27569Y7369D01*
X27542Y7361D01*
X27519Y7350D01*
X27498Y7333D01*
X27481Y7312D01*
X27469Y7287D01*
X27462Y7259D01*
X27459Y7227D01*
X27369Y7237D01*
X27377Y7284D01*
X27391Y7326D01*
X27412Y7361D01*
X27439Y7391D01*
X27472Y7414D01*
X27510Y7431D01*
X27553Y7440D01*
X27601Y7444D01*
X27650Y7440D01*
X27694Y7429D01*
X27732Y7412D01*
X27765Y7387D01*
X27791Y7356D01*
X27810Y7323D01*
X27821Y7286D01*
X27825Y7245D01*
X27824Y7224D01*
X27820Y7202D01*
X27815Y7181D01*
X27807Y7161D01*
X27797Y7140D01*
X27784Y7118D01*
X27768Y7096D01*
X27749Y7073D01*
X27725Y7048D01*
X27694Y7019D01*
X27657Y6985D01*
X27613Y6947D01*
X27577Y6917D01*
X27548Y6891D01*
X27526Y6872D01*
X27512Y6857D01*
X27501Y6845D01*
X27491Y6833D01*
X27482Y6821D01*
X27475Y6809D01*
X27826Y6809D01*
X27826Y6809D01*
G37*
%LNtop silkscreen component 1feb1c34ba25e8f7*%
D12*
X29850Y16500D02*
X39150Y16500D01*
X39150Y0500*
X29850Y0500*
X29850Y16500*
%LNtext*%
G36*
X40240Y3273D02*
X40240Y3385D01*
X40583Y3385D01*
X40583Y3273D01*
X40240Y3273D01*
X40240Y3273D01*
X41096Y3000D02*
X40984Y3000D01*
X40984Y3711D01*
X40963Y3692D01*
X40938Y3673D01*
X40910Y3654D01*
X40879Y3634D01*
X40847Y3616D01*
X40817Y3601D01*
X40788Y3588D01*
X40761Y3577D01*
X40761Y3685D01*
X40807Y3708D01*
X40849Y3733D01*
X40888Y3761D01*
X40925Y3791D01*
X40957Y3822D01*
X40985Y3853D01*
X41007Y3883D01*
X41024Y3913D01*
X41096Y3913D01*
X41096Y3000D01*
X41096Y3000D01*
X41969Y3107D02*
X41969Y3000D01*
X41368Y3000D01*
X41368Y3020D01*
X41370Y3040D01*
X41375Y3059D01*
X41381Y3078D01*
X41394Y3108D01*
X41411Y3138D01*
X41431Y3169D01*
X41454Y3198D01*
X41482Y3229D01*
X41516Y3263D01*
X41555Y3298D01*
X41600Y3336D01*
X41668Y3394D01*
X41724Y3445D01*
X41768Y3490D01*
X41801Y3529D01*
X41823Y3564D01*
X41840Y3598D01*
X41849Y3631D01*
X41853Y3663D01*
X41850Y3695D01*
X41841Y3724D01*
X41826Y3751D01*
X41805Y3775D01*
X41780Y3795D01*
X41751Y3809D01*
X41718Y3818D01*
X41681Y3820D01*
X41643Y3817D01*
X41609Y3808D01*
X41579Y3793D01*
X41552Y3772D01*
X41531Y3746D01*
X41516Y3714D01*
X41507Y3679D01*
X41503Y3638D01*
X41389Y3650D01*
X41399Y3710D01*
X41417Y3763D01*
X41443Y3808D01*
X41477Y3846D01*
X41519Y3875D01*
X41568Y3896D01*
X41622Y3909D01*
X41684Y3913D01*
X41746Y3908D01*
X41801Y3895D01*
X41849Y3872D01*
X41891Y3840D01*
X41924Y3802D01*
X41948Y3759D01*
X41963Y3712D01*
X41967Y3660D01*
X41966Y3633D01*
X41962Y3606D01*
X41955Y3580D01*
X41945Y3553D01*
X41932Y3526D01*
X41915Y3499D01*
X41895Y3471D01*
X41871Y3442D01*
X41841Y3410D01*
X41802Y3373D01*
X41755Y3330D01*
X41699Y3282D01*
X41653Y3243D01*
X41616Y3211D01*
X41589Y3186D01*
X41570Y3168D01*
X41556Y3153D01*
X41544Y3138D01*
X41533Y3122D01*
X41523Y3107D01*
X41969Y3107D01*
X41969Y3107D01*
X42393Y3000D02*
X42041Y3909D01*
X42171Y3909D01*
X42408Y3249D01*
X42421Y3210D01*
X42434Y3172D01*
X42445Y3135D01*
X42455Y3100D01*
X42466Y3137D01*
X42478Y3174D01*
X42491Y3211D01*
X42504Y3249D01*
X42750Y3909D01*
X42873Y3909D01*
X42517Y3000D01*
X42393Y3000D01*
X42393Y3000D01*
X40718Y13147D02*
X40718Y13396D01*
X40471Y13396D01*
X40471Y13500D01*
X40718Y13500D01*
X40718Y13748D01*
X40824Y13748D01*
X40824Y13500D01*
X41071Y13500D01*
X41071Y13396D01*
X40824Y13396D01*
X40824Y13147D01*
X40718Y13147D01*
X40718Y13147D01*
X41615Y13000D02*
X41503Y13000D01*
X41503Y13711D01*
X41481Y13692D01*
X41457Y13673D01*
X41429Y13654D01*
X41397Y13634D01*
X41366Y13616D01*
X41335Y13601D01*
X41307Y13588D01*
X41280Y13577D01*
X41280Y13685D01*
X41325Y13708D01*
X41368Y13733D01*
X41407Y13761D01*
X41444Y13791D01*
X41476Y13822D01*
X41504Y13853D01*
X41526Y13883D01*
X41543Y13913D01*
X41615Y13913D01*
X41615Y13000D01*
X41615Y13000D01*
X42487Y13107D02*
X42487Y13000D01*
X41886Y13000D01*
X41887Y13020D01*
X41889Y13040D01*
X41893Y13059D01*
X41899Y13078D01*
X41913Y13108D01*
X41929Y13138D01*
X41949Y13169D01*
X41973Y13198D01*
X42001Y13229D01*
X42035Y13263D01*
X42074Y13298D01*
X42119Y13336D01*
X42187Y13394D01*
X42243Y13445D01*
X42287Y13490D01*
X42319Y13529D01*
X42342Y13564D01*
X42358Y13598D01*
X42368Y13631D01*
X42371Y13663D01*
X42368Y13695D01*
X42360Y13724D01*
X42345Y13751D01*
X42324Y13775D01*
X42298Y13795D01*
X42269Y13809D01*
X42237Y13818D01*
X42200Y13820D01*
X42162Y13817D01*
X42128Y13808D01*
X42097Y13793D01*
X42071Y13772D01*
X42050Y13746D01*
X42035Y13714D01*
X42026Y13679D01*
X42022Y13638D01*
X41908Y13650D01*
X41917Y13710D01*
X41936Y13763D01*
X41962Y13808D01*
X41996Y13846D01*
X42038Y13875D01*
X42086Y13896D01*
X42141Y13909D01*
X42203Y13913D01*
X42265Y13908D01*
X42320Y13895D01*
X42368Y13872D01*
X42410Y13840D01*
X42443Y13802D01*
X42467Y13759D01*
X42481Y13712D01*
X42486Y13660D01*
X42485Y13633D01*
X42481Y13606D01*
X42474Y13580D01*
X42464Y13553D01*
X42451Y13526D01*
X42434Y13499D01*
X42414Y13471D01*
X42390Y13442D01*
X42360Y13410D01*
X42321Y13373D01*
X42273Y13330D01*
X42218Y13282D01*
X42172Y13243D01*
X42135Y13211D01*
X42107Y13186D01*
X42089Y13168D01*
X42075Y13153D01*
X42063Y13138D01*
X42051Y13122D01*
X42041Y13107D01*
X42487Y13107D01*
X42487Y13107D01*
X42912Y13000D02*
X42560Y13909D01*
X42690Y13909D01*
X42926Y13249D01*
X42940Y13210D01*
X42953Y13172D01*
X42964Y13135D01*
X42974Y13100D01*
X42985Y13137D01*
X42997Y13174D01*
X43010Y13211D01*
X43023Y13249D01*
X43269Y13909D01*
X43391Y13909D01*
X43036Y13000D01*
X42912Y13000D01*
X42912Y13000D01*
X40723Y8357D02*
X40723Y8463D01*
X41108Y8464D01*
X41108Y8127D01*
X41064Y8093D01*
X41018Y8065D01*
X40972Y8040D01*
X40926Y8020D01*
X40878Y8005D01*
X40830Y7993D01*
X40781Y7987D01*
X40732Y7984D01*
X40667Y7988D01*
X40604Y7999D01*
X40545Y8017D01*
X40489Y8042D01*
X40437Y8074D01*
X40393Y8112D01*
X40355Y8157D01*
X40323Y8208D01*
X40299Y8264D01*
X40282Y8323D01*
X40271Y8385D01*
X40268Y8450D01*
X40271Y8515D01*
X40281Y8578D01*
X40299Y8639D01*
X40323Y8698D01*
X40354Y8752D01*
X40391Y8798D01*
X40434Y8837D01*
X40483Y8869D01*
X40537Y8893D01*
X40595Y8911D01*
X40657Y8921D01*
X40723Y8925D01*
X40771Y8923D01*
X40817Y8917D01*
X40860Y8907D01*
X40901Y8893D01*
X40939Y8875D01*
X40972Y8854D01*
X41001Y8831D01*
X41026Y8804D01*
X41047Y8773D01*
X41066Y8738D01*
X41082Y8699D01*
X41095Y8655D01*
X40986Y8625D01*
X40975Y8658D01*
X40963Y8687D01*
X40950Y8713D01*
X40935Y8734D01*
X40919Y8753D01*
X40899Y8770D01*
X40875Y8785D01*
X40849Y8798D01*
X40820Y8808D01*
X40789Y8816D01*
X40757Y8820D01*
X40723Y8822D01*
X40684Y8820D01*
X40646Y8815D01*
X40612Y8808D01*
X40581Y8797D01*
X40552Y8783D01*
X40526Y8767D01*
X40504Y8750D01*
X40484Y8730D01*
X40466Y8710D01*
X40451Y8688D01*
X40438Y8665D01*
X40426Y8641D01*
X40411Y8598D01*
X40400Y8553D01*
X40394Y8506D01*
X40392Y8458D01*
X40394Y8399D01*
X40402Y8346D01*
X40415Y8298D01*
X40433Y8254D01*
X40457Y8216D01*
X40485Y8183D01*
X40518Y8155D01*
X40555Y8133D01*
X40596Y8115D01*
X40638Y8103D01*
X40681Y8095D01*
X40725Y8093D01*
X40764Y8095D01*
X40802Y8101D01*
X40840Y8110D01*
X40878Y8123D01*
X40913Y8138D01*
X40943Y8154D01*
X40969Y8170D01*
X40991Y8187D01*
X40991Y8357D01*
X40723Y8357D01*
X40723Y8357D01*
X41285Y8000D02*
X41285Y8909D01*
X41408Y8909D01*
X41886Y8195D01*
X41886Y8909D01*
X42001Y8909D01*
X42001Y8000D01*
X41877Y8000D01*
X41400Y8714D01*
X41400Y8000D01*
X41285Y8000D01*
X41285Y8000D01*
X42203Y8000D02*
X42203Y8909D01*
X42514Y8909D01*
X42514Y8802D01*
X42323Y8802D01*
X42323Y8107D01*
X42323Y8107D01*
X42517Y8107D01*
X42560Y8108D01*
X42598Y8111D01*
X42630Y8117D01*
X42658Y8124D01*
X42683Y8133D01*
X42704Y8144D01*
X42724Y8157D01*
X42740Y8171D01*
X42760Y8194D01*
X42778Y8221D01*
X42794Y8252D01*
X42807Y8286D01*
X42817Y8324D01*
X42825Y8366D01*
X42829Y8412D01*
X42831Y8461D01*
X42828Y8529D01*
X42819Y8587D01*
X42804Y8638D01*
X42784Y8681D01*
X42759Y8716D01*
X42732Y8745D01*
X42702Y8767D01*
X42670Y8783D01*
X42642Y8791D01*
X42607Y8797D01*
X42564Y8801D01*
X42514Y8802D01*
X42514Y8909D01*
X42516Y8909D01*
X42566Y8908D01*
X42610Y8906D01*
X42647Y8902D01*
X42678Y8896D01*
X42716Y8885D01*
X42750Y8871D01*
X42782Y8853D01*
X42811Y8831D01*
X42845Y8798D01*
X42874Y8762D01*
X42899Y8721D01*
X42919Y8676D01*
X42935Y8627D01*
X42946Y8574D01*
X42952Y8519D01*
X42955Y8460D01*
X42953Y8409D01*
X42949Y8362D01*
X42941Y8317D01*
X42930Y8276D01*
X42917Y8238D01*
X42903Y8203D01*
X42886Y8171D01*
X42868Y8144D01*
X42849Y8119D01*
X42829Y8097D01*
X42808Y8078D01*
X42786Y8061D01*
X42762Y8047D01*
X42736Y8035D01*
X42708Y8024D01*
X42677Y8016D01*
X42644Y8009D01*
X42609Y8004D01*
X42571Y8001D01*
X42531Y8000D01*
X42203Y8000D01*
X42203Y8000D01*
G37*
M02*