%FSLAX33Y33*%
%MOMM*%
%LNbottom silkscreen_traces*%
%LNtext*%
G36*
G01*
X22777Y3400D02*
X23193Y4474D01*
X23040Y4474D01*
X22761Y3694D01*
X22744Y3648D01*
X22730Y3603D01*
X22716Y3560D01*
X22704Y3518D01*
X22691Y3562D01*
X22677Y3606D01*
X22662Y3650D01*
X22646Y3694D01*
X22356Y4474D01*
X22211Y4474D01*
X22632Y3400D01*
X22777Y3400D01*
X22777Y3400D01*
X21651Y3650D02*
X21515Y3634D01*
X21534Y3577D01*
X21561Y3528D01*
X21594Y3485D01*
X21634Y3448D01*
X21681Y3420D01*
X21733Y3399D01*
X21792Y3387D01*
X21857Y3382D01*
X21938Y3389D01*
X22010Y3409D01*
X22073Y3442D01*
X22127Y3488D01*
X22171Y3545D01*
X22202Y3614D01*
X22221Y3693D01*
X22227Y3782D01*
X22221Y3875D01*
X22202Y3957D01*
X22170Y4027D01*
X22126Y4087D01*
X22072Y4134D01*
X22010Y4168D01*
X21941Y4189D01*
X21864Y4195D01*
X21853Y4194D01*
X21863Y4087D01*
X21906Y4083D01*
X21946Y4072D01*
X21983Y4053D01*
X22015Y4026D01*
X22043Y3993D01*
X22063Y3955D01*
X22077Y3912D01*
X22084Y3864D01*
X22084Y3864D01*
X21649Y3864D01*
X21656Y3910D01*
X21666Y3949D01*
X21681Y3983D01*
X21699Y4011D01*
X21733Y4044D01*
X21772Y4068D01*
X21815Y4082D01*
X21863Y4087D01*
X21853Y4194D01*
X21790Y4189D01*
X21722Y4169D01*
X21662Y4136D01*
X21609Y4089D01*
X21566Y4031D01*
X21535Y3961D01*
X21516Y3881D01*
X21510Y3790D01*
X21510Y3784D01*
X21510Y3776D01*
X21511Y3766D01*
X21511Y3755D01*
X22091Y3755D01*
X22084Y3695D01*
X22069Y3642D01*
X22048Y3597D01*
X22019Y3559D01*
X21984Y3529D01*
X21945Y3508D01*
X21903Y3495D01*
X21856Y3491D01*
X21821Y3493D01*
X21789Y3500D01*
X21759Y3512D01*
X21732Y3529D01*
X21708Y3551D01*
X21686Y3578D01*
X21667Y3612D01*
X21651Y3650D01*
X21651Y3650D01*
X21351Y3400D02*
X21351Y4178D01*
X21232Y4178D01*
X21232Y4060D01*
X21210Y4098D01*
X21188Y4129D01*
X21168Y4152D01*
X21148Y4169D01*
X21128Y4181D01*
X21108Y4189D01*
X21086Y4194D01*
X21063Y4195D01*
X21030Y4193D01*
X20996Y4185D01*
X20962Y4172D01*
X20928Y4153D01*
X20973Y4031D01*
X20998Y4043D01*
X21022Y4052D01*
X21046Y4057D01*
X21070Y4059D01*
X21091Y4058D01*
X21111Y4053D01*
X21130Y4045D01*
X21148Y4033D01*
X21164Y4019D01*
X21177Y4002D01*
X21188Y3983D01*
X21197Y3961D01*
X21206Y3925D01*
X21213Y3887D01*
X21217Y3848D01*
X21219Y3807D01*
X21219Y3400D01*
X21351Y3400D01*
X21351Y3400D01*
X20902Y3632D02*
X20772Y3653D01*
X20764Y3616D01*
X20751Y3583D01*
X20733Y3556D01*
X20711Y3533D01*
X20683Y3514D01*
X20651Y3501D01*
X20613Y3493D01*
X20571Y3491D01*
X20528Y3493D01*
X20491Y3500D01*
X20461Y3512D01*
X20436Y3528D01*
X20417Y3547D01*
X20403Y3568D01*
X20395Y3590D01*
X20392Y3615D01*
X20394Y3636D01*
X20402Y3655D01*
X20414Y3671D01*
X20431Y3685D01*
X20449Y3694D01*
X20478Y3705D01*
X20517Y3717D01*
X20565Y3730D01*
X20632Y3747D01*
X20688Y3764D01*
X20733Y3779D01*
X20767Y3793D01*
X20793Y3808D01*
X20816Y3825D01*
X20835Y3845D01*
X20851Y3867D01*
X20864Y3891D01*
X20873Y3917D01*
X20879Y3943D01*
X20880Y3971D01*
X20879Y3997D01*
X20874Y4021D01*
X20867Y4045D01*
X20857Y4068D01*
X20844Y4089D01*
X20828Y4108D01*
X20811Y4126D01*
X20792Y4141D01*
X20775Y4152D01*
X20755Y4162D01*
X20733Y4171D01*
X20708Y4180D01*
X20681Y4187D01*
X20653Y4191D01*
X20624Y4194D01*
X20594Y4195D01*
X20550Y4194D01*
X20508Y4189D01*
X20469Y4181D01*
X20433Y4169D01*
X20401Y4155D01*
X20373Y4138D01*
X20350Y4119D01*
X20331Y4098D01*
X20316Y4073D01*
X20303Y4045D01*
X20293Y4013D01*
X20286Y3977D01*
X20415Y3960D01*
X20421Y3988D01*
X20432Y4013D01*
X20447Y4035D01*
X20465Y4053D01*
X20489Y4068D01*
X20516Y4079D01*
X20548Y4085D01*
X20584Y4087D01*
X20627Y4085D01*
X20662Y4080D01*
X20691Y4070D01*
X20714Y4057D01*
X20731Y4041D01*
X20743Y4024D01*
X20751Y4006D01*
X20753Y3987D01*
X20752Y3974D01*
X20749Y3962D01*
X20744Y3951D01*
X20737Y3941D01*
X20728Y3930D01*
X20716Y3921D01*
X20702Y3913D01*
X20686Y3905D01*
X20672Y3901D01*
X20647Y3893D01*
X20613Y3884D01*
X20570Y3872D01*
X20505Y3854D01*
X20451Y3838D01*
X20408Y3823D01*
X20375Y3811D01*
X20348Y3797D01*
X20325Y3781D01*
X20305Y3763D01*
X20288Y3741D01*
X20274Y3717D01*
X20264Y3690D01*
X20258Y3661D01*
X20256Y3629D01*
X20259Y3596D01*
X20266Y3565D01*
X20278Y3534D01*
X20295Y3504D01*
X20316Y3477D01*
X20342Y3453D01*
X20372Y3432D01*
X20406Y3414D01*
X20443Y3400D01*
X20483Y3390D01*
X20525Y3384D01*
X20570Y3382D01*
X20641Y3386D01*
X20703Y3398D01*
X20757Y3418D01*
X20801Y3445D01*
X20837Y3481D01*
X20866Y3524D01*
X20888Y3574D01*
X20902Y3632D01*
X20902Y3632D01*
X20099Y3400D02*
X20099Y4178D01*
X19967Y4178D01*
X19967Y3400D01*
X20099Y3400D01*
X20099Y3400D01*
X20099Y4322D02*
X20099Y4474D01*
X19967Y4474D01*
X19967Y4322D01*
X20099Y4322D01*
X20099Y4322D01*
X19815Y3789D02*
X19808Y3890D01*
X19785Y3977D01*
X19748Y4050D01*
X19695Y4109D01*
X19642Y4147D01*
X19584Y4174D01*
X19520Y4190D01*
X19451Y4195D01*
X19374Y4189D01*
X19305Y4169D01*
X19243Y4136D01*
X19188Y4090D01*
X19144Y4033D01*
X19112Y3965D01*
X19093Y3888D01*
X19087Y3800D01*
X19089Y3729D01*
X19098Y3666D01*
X19112Y3611D01*
X19132Y3564D01*
X19157Y3523D01*
X19187Y3487D01*
X19222Y3456D01*
X19263Y3430D01*
X19307Y3409D01*
X19353Y3394D01*
X19401Y3385D01*
X19451Y3382D01*
X19460Y3383D01*
X19451Y3491D01*
X19404Y3495D01*
X19361Y3509D01*
X19322Y3533D01*
X19287Y3566D01*
X19259Y3608D01*
X19238Y3660D01*
X19226Y3722D01*
X19222Y3793D01*
X19226Y3861D01*
X19239Y3920D01*
X19259Y3970D01*
X19288Y4012D01*
X19323Y4044D01*
X19361Y4068D01*
X19404Y4082D01*
X19451Y4086D01*
X19498Y4082D01*
X19541Y4068D01*
X19580Y4045D01*
X19615Y4012D01*
X19643Y3971D01*
X19664Y3919D01*
X19676Y3859D01*
X19680Y3789D01*
X19680Y3789D01*
X19676Y3719D01*
X19664Y3658D01*
X19643Y3607D01*
X19615Y3565D01*
X19580Y3533D01*
X19541Y3509D01*
X19498Y3495D01*
X19451Y3491D01*
X19460Y3383D01*
X19528Y3389D01*
X19598Y3409D01*
X19660Y3441D01*
X19715Y3487D01*
X19759Y3545D01*
X19790Y3615D01*
X19809Y3696D01*
X19815Y3789D01*
X19815Y3789D01*
X18932Y3400D02*
X18932Y4178D01*
X18813Y4178D01*
X18813Y4067D01*
X18766Y4123D01*
X18709Y4163D01*
X18642Y4187D01*
X18566Y4195D01*
X18531Y4194D01*
X18498Y4189D01*
X18467Y4181D01*
X18437Y4170D01*
X18409Y4157D01*
X18385Y4141D01*
X18365Y4123D01*
X18348Y4104D01*
X18335Y4082D01*
X18323Y4059D01*
X18314Y4034D01*
X18307Y4006D01*
X18304Y3985D01*
X18302Y3956D01*
X18301Y3921D01*
X18300Y3878D01*
X18300Y3400D01*
X18432Y3400D01*
X18432Y3873D01*
X18433Y3911D01*
X18436Y3944D01*
X18441Y3971D01*
X18447Y3994D01*
X18456Y4013D01*
X18469Y4030D01*
X18484Y4044D01*
X18502Y4057D01*
X18522Y4068D01*
X18544Y4075D01*
X18568Y4080D01*
X18594Y4081D01*
X18634Y4078D01*
X18672Y4068D01*
X18707Y4051D01*
X18739Y4028D01*
X18766Y3995D01*
X18785Y3950D01*
X18796Y3894D01*
X18800Y3825D01*
X18800Y3400D01*
X18932Y3400D01*
X18932Y3400D01*
X17221Y3400D02*
X17353Y3400D01*
X17353Y4240D01*
X17379Y4217D01*
X17408Y4195D01*
X17441Y4172D01*
X17478Y4149D01*
X17516Y4128D01*
X17551Y4110D01*
X17585Y4094D01*
X17617Y4081D01*
X17617Y4209D01*
X17563Y4236D01*
X17513Y4266D01*
X17466Y4299D01*
X17423Y4335D01*
X17385Y4371D01*
X17353Y4407D01*
X17326Y4443D01*
X17306Y4478D01*
X17221Y4478D01*
X17221Y3400D01*
X17221Y3400D01*
X16810Y3400D02*
X16810Y3550D01*
X16659Y3550D01*
X16659Y3400D01*
X16810Y3400D01*
X16810Y3400D01*
X15774Y3527D02*
X15774Y3400D01*
X16484Y3400D01*
X16483Y3424D01*
X16481Y3447D01*
X16476Y3469D01*
X16468Y3492D01*
X16453Y3528D01*
X16433Y3564D01*
X16409Y3599D01*
X16381Y3634D01*
X16348Y3671D01*
X16309Y3710D01*
X16262Y3752D01*
X16209Y3797D01*
X16129Y3865D01*
X16062Y3926D01*
X16010Y3979D01*
X15972Y4024D01*
X15945Y4066D01*
X15926Y4106D01*
X15915Y4145D01*
X15911Y4183D01*
X15914Y4221D01*
X15925Y4255D01*
X15942Y4287D01*
X15967Y4315D01*
X15997Y4339D01*
X16031Y4356D01*
X16070Y4366D01*
X16113Y4369D01*
X16158Y4365D01*
X16199Y4355D01*
X16234Y4337D01*
X16265Y4312D01*
X16290Y4281D01*
X16308Y4244D01*
X16319Y4201D01*
X16323Y4154D01*
X16459Y4168D01*
X16447Y4239D01*
X16426Y4301D01*
X16395Y4354D01*
X16354Y4399D01*
X16305Y4433D01*
X16248Y4458D01*
X16183Y4473D01*
X16110Y4478D01*
X16037Y4473D01*
X15972Y4457D01*
X15915Y4430D01*
X15865Y4392D01*
X15826Y4347D01*
X15798Y4296D01*
X15781Y4241D01*
X15775Y4180D01*
X15777Y4148D01*
X15782Y4116D01*
X15790Y4085D01*
X15802Y4053D01*
X15817Y4022D01*
X15837Y3989D01*
X15861Y3956D01*
X15889Y3922D01*
X15925Y3885D01*
X15971Y3841D01*
X16027Y3790D01*
X16093Y3733D01*
X16147Y3687D01*
X16190Y3650D01*
X16223Y3620D01*
X16245Y3598D01*
X16261Y3580D01*
X16276Y3563D01*
X16289Y3545D01*
X16301Y3527D01*
X15774Y3527D01*
X15774Y3527D01*
X15559Y3400D02*
X15559Y3550D01*
X15408Y3550D01*
X15408Y3400D01*
X15559Y3400D01*
X15559Y3400D01*
X15216Y3930D02*
X15213Y4020D01*
X15206Y4101D01*
X15194Y4173D01*
X15177Y4236D01*
X15155Y4291D01*
X15128Y4339D01*
X15096Y4380D01*
X15060Y4415D01*
X15019Y4443D01*
X14973Y4462D01*
X14922Y4474D01*
X14866Y4478D01*
X14824Y4476D01*
X14785Y4469D01*
X14748Y4459D01*
X14714Y4443D01*
X14683Y4424D01*
X14655Y4401D01*
X14629Y4374D01*
X14606Y4343D01*
X14586Y4308D01*
X14569Y4270D01*
X14553Y4229D01*
X14540Y4183D01*
X14529Y4132D01*
X14522Y4073D01*
X14517Y4005D01*
X14516Y3930D01*
X14518Y3840D01*
X14525Y3759D01*
X14537Y3687D01*
X14554Y3624D01*
X14576Y3570D01*
X14603Y3522D01*
X14634Y3480D01*
X14671Y3445D01*
X14712Y3417D01*
X14758Y3398D01*
X14809Y3386D01*
X14866Y3382D01*
X14876Y3383D01*
X14866Y3490D01*
X14822Y3496D01*
X14782Y3512D01*
X14746Y3540D01*
X14713Y3578D01*
X14686Y3633D01*
X14667Y3710D01*
X14655Y3809D01*
X14651Y3930D01*
X14655Y4051D01*
X14667Y4150D01*
X14686Y4227D01*
X14713Y4282D01*
X14746Y4320D01*
X14783Y4347D01*
X14823Y4364D01*
X14867Y4369D01*
X14910Y4364D01*
X14949Y4350D01*
X14983Y4326D01*
X15012Y4292D01*
X15042Y4233D01*
X15063Y4152D01*
X15076Y4051D01*
X15080Y3930D01*
X15080Y3930D01*
X15076Y3808D01*
X15065Y3709D01*
X15046Y3632D01*
X15018Y3578D01*
X14986Y3539D01*
X14949Y3512D01*
X14909Y3496D01*
X14866Y3490D01*
X14876Y3383D01*
X14939Y3389D01*
X15004Y3410D01*
X15061Y3444D01*
X15110Y3493D01*
X15156Y3571D01*
X15189Y3669D01*
X15209Y3789D01*
X15216Y3930D01*
X15216Y3930D01*
X32006Y10332D02*
X31817Y10332D01*
X31817Y9504D01*
X31820Y9402D01*
X31829Y9311D01*
X31844Y9231D01*
X31866Y9162D01*
X31895Y9101D01*
X31934Y9047D01*
X31983Y8998D01*
X32042Y8955D01*
X32111Y8920D01*
X32189Y8895D01*
X32278Y8881D01*
X32376Y8876D01*
X32472Y8880D01*
X32559Y8893D01*
X32637Y8915D01*
X32705Y8945D01*
X32765Y8983D01*
X32815Y9030D01*
X32856Y9084D01*
X32888Y9146D01*
X32912Y9217D01*
X32929Y9301D01*
X32939Y9397D01*
X32943Y9504D01*
X32943Y10332D01*
X32753Y10332D01*
X32753Y9505D01*
X32751Y9418D01*
X32745Y9343D01*
X32734Y9281D01*
X32719Y9231D01*
X32698Y9189D01*
X32672Y9152D01*
X32639Y9121D01*
X32600Y9094D01*
X32555Y9073D01*
X32506Y9058D01*
X32452Y9049D01*
X32393Y9046D01*
X32296Y9052D01*
X32214Y9070D01*
X32147Y9100D01*
X32095Y9141D01*
X32056Y9199D01*
X32028Y9280D01*
X32012Y9382D01*
X32006Y9505D01*
X32006Y10332D01*
X32006Y10332D01*
X31566Y9360D02*
X31387Y9376D01*
X31379Y9324D01*
X31366Y9278D01*
X31349Y9236D01*
X31328Y9199D01*
X31302Y9167D01*
X31269Y9137D01*
X31230Y9111D01*
X31184Y9088D01*
X31134Y9069D01*
X31080Y9056D01*
X31024Y9048D01*
X30964Y9046D01*
X30912Y9048D01*
X30862Y9054D01*
X30816Y9064D01*
X30773Y9078D01*
X30734Y9095D01*
X30700Y9116D01*
X30672Y9140D01*
X30649Y9166D01*
X30632Y9195D01*
X30619Y9225D01*
X30611Y9256D01*
X30609Y9289D01*
X30611Y9321D01*
X30619Y9352D01*
X30631Y9380D01*
X30648Y9406D01*
X30671Y9430D01*
X30700Y9453D01*
X30735Y9473D01*
X30777Y9491D01*
X30814Y9504D01*
X30869Y9520D01*
X30942Y9539D01*
X31032Y9561D01*
X31123Y9584D01*
X31199Y9607D01*
X31261Y9629D01*
X31308Y9650D01*
X31356Y9678D01*
X31397Y9710D01*
X31432Y9745D01*
X31461Y9783D01*
X31483Y9824D01*
X31499Y9868D01*
X31508Y9913D01*
X31511Y9962D01*
X31507Y10015D01*
X31496Y10066D01*
X31477Y10116D01*
X31450Y10164D01*
X31415Y10208D01*
X31374Y10247D01*
X31325Y10280D01*
X31270Y10307D01*
X31209Y10329D01*
X31145Y10344D01*
X31078Y10353D01*
X31007Y10356D01*
X30930Y10353D01*
X30857Y10343D01*
X30790Y10327D01*
X30726Y10305D01*
X30669Y10276D01*
X30619Y10241D01*
X30576Y10201D01*
X30539Y10154D01*
X30511Y10102D01*
X30489Y10048D01*
X30475Y9990D01*
X30469Y9928D01*
X30651Y9915D01*
X30662Y9978D01*
X30683Y10034D01*
X30712Y10081D01*
X30750Y10120D01*
X30797Y10150D01*
X30855Y10172D01*
X30922Y10185D01*
X30999Y10189D01*
X31080Y10185D01*
X31148Y10173D01*
X31205Y10154D01*
X31250Y10126D01*
X31284Y10093D01*
X31309Y10057D01*
X31324Y10017D01*
X31328Y9974D01*
X31325Y9937D01*
X31315Y9904D01*
X31297Y9874D01*
X31273Y9847D01*
X31234Y9822D01*
X31174Y9797D01*
X31092Y9771D01*
X30987Y9745D01*
X30881Y9720D01*
X30792Y9696D01*
X30722Y9674D01*
X30670Y9654D01*
X30612Y9623D01*
X30562Y9589D01*
X30520Y9550D01*
X30486Y9508D01*
X30460Y9462D01*
X30441Y9413D01*
X30430Y9360D01*
X30426Y9304D01*
X30430Y9248D01*
X30443Y9193D01*
X30463Y9140D01*
X30492Y9089D01*
X30528Y9041D01*
X30571Y8999D01*
X30622Y8963D01*
X30680Y8932D01*
X30743Y8907D01*
X30810Y8890D01*
X30881Y8879D01*
X30955Y8876D01*
X31049Y8879D01*
X31134Y8890D01*
X31212Y8907D01*
X31281Y8932D01*
X31343Y8964D01*
X31398Y9003D01*
X31446Y9049D01*
X31487Y9103D01*
X31520Y9161D01*
X31544Y9224D01*
X31559Y9290D01*
X31566Y9360D01*
X31566Y9360D01*
X30175Y8900D02*
X30175Y10332D01*
X29638Y10332D01*
X29560Y10329D01*
X29490Y10321D01*
X29428Y10307D01*
X29375Y10288D01*
X29328Y10264D01*
X29286Y10233D01*
X29250Y10197D01*
X29220Y10154D01*
X29195Y10109D01*
X29177Y10062D01*
X29167Y10014D01*
X29163Y9965D01*
X29167Y9920D01*
X29176Y9876D01*
X29191Y9834D01*
X29213Y9793D01*
X29241Y9754D01*
X29276Y9719D01*
X29317Y9689D01*
X29364Y9662D01*
X29419Y9527D01*
X29445Y9537D01*
X29486Y9548D01*
X29534Y9555D01*
X29590Y9560D01*
X29655Y9561D01*
X29986Y9561D01*
X29986Y9069D01*
X29986Y9069D01*
X29629Y9069D01*
X29587Y9069D01*
X29551Y9071D01*
X29522Y9073D01*
X29500Y9076D01*
X29469Y9083D01*
X29440Y9091D01*
X29414Y9102D01*
X29391Y9115D01*
X29370Y9130D01*
X29351Y9148D01*
X29334Y9170D01*
X29319Y9194D01*
X29306Y9222D01*
X29297Y9251D01*
X29292Y9282D01*
X29290Y9315D01*
X29293Y9354D01*
X29301Y9390D01*
X29313Y9423D01*
X29331Y9454D01*
X29354Y9482D01*
X29380Y9504D01*
X29411Y9523D01*
X29419Y9527D01*
X29364Y9662D01*
X29432Y9775D01*
X29407Y9795D01*
X29387Y9818D01*
X29371Y9844D01*
X29359Y9874D01*
X29352Y9907D01*
X29350Y9943D01*
X29352Y9978D01*
X29358Y10010D01*
X29369Y10040D01*
X29384Y10068D01*
X29403Y10093D01*
X29426Y10114D01*
X29452Y10131D01*
X29482Y10143D01*
X29519Y10151D01*
X29568Y10158D01*
X29628Y10161D01*
X29700Y10163D01*
X29986Y10163D01*
X29986Y9730D01*
X29986Y9730D01*
X29676Y9730D01*
X29618Y9731D01*
X29568Y9734D01*
X29527Y9739D01*
X29495Y9747D01*
X29462Y9759D01*
X29432Y9775D01*
X29364Y9662D01*
X29302Y9639D01*
X29249Y9610D01*
X29203Y9574D01*
X29164Y9532D01*
X29133Y9484D01*
X29112Y9432D01*
X29098Y9375D01*
X29094Y9315D01*
X29097Y9266D01*
X29105Y9218D01*
X29118Y9172D01*
X29137Y9128D01*
X29159Y9087D01*
X29184Y9051D01*
X29212Y9021D01*
X29242Y8995D01*
X29275Y8973D01*
X29312Y8954D01*
X29353Y8937D01*
X29398Y8924D01*
X29448Y8913D01*
X29503Y8906D01*
X29564Y8901D01*
X29629Y8900D01*
X30175Y8900D01*
X30175Y8900D01*
X27627Y8900D02*
X27627Y9031D01*
X27707Y9113D01*
X27705Y9115D01*
X27670Y9169D01*
X27644Y9234D01*
X27629Y9312D01*
X27624Y9403D01*
X27629Y9502D01*
X27645Y9588D01*
X27670Y9659D01*
X27706Y9715D01*
X27750Y9759D01*
X27798Y9790D01*
X27851Y9809D01*
X27909Y9815D01*
X27965Y9809D01*
X28016Y9791D01*
X28063Y9761D01*
X28104Y9719D01*
X28139Y9665D01*
X28163Y9596D01*
X28178Y9514D01*
X28183Y9418D01*
X28183Y9418D01*
X28178Y9324D01*
X28162Y9244D01*
X28136Y9175D01*
X28099Y9120D01*
X28055Y9077D01*
X28007Y9046D01*
X27956Y9027D01*
X27901Y9021D01*
X27845Y9027D01*
X27794Y9045D01*
X27747Y9074D01*
X27707Y9113D01*
X27627Y9031D01*
X27682Y8963D01*
X27749Y8915D01*
X27827Y8886D01*
X27917Y8877D01*
X27978Y8881D01*
X28036Y8894D01*
X28092Y8915D01*
X28145Y8945D01*
X28194Y8982D01*
X28238Y9027D01*
X28275Y9078D01*
X28306Y9136D01*
X28331Y9199D01*
X28349Y9268D01*
X28360Y9340D01*
X28364Y9418D01*
X28360Y9493D01*
X28351Y9566D01*
X28334Y9634D01*
X28312Y9699D01*
X28283Y9759D01*
X28247Y9811D01*
X28205Y9856D01*
X28157Y9893D01*
X28103Y9923D01*
X28047Y9944D01*
X27988Y9956D01*
X27925Y9961D01*
X27880Y9958D01*
X27837Y9951D01*
X27796Y9938D01*
X27758Y9921D01*
X27723Y9900D01*
X27692Y9875D01*
X27664Y9848D01*
X27639Y9818D01*
X27639Y10332D01*
X27464Y10332D01*
X27464Y8900D01*
X27627Y8900D01*
X27627Y8900D01*
X26508Y8900D02*
X26508Y9052D01*
X26574Y8975D01*
X26651Y8921D01*
X26739Y8888D01*
X26837Y8877D01*
X26882Y8879D01*
X26926Y8885D01*
X26968Y8896D01*
X27009Y8912D01*
X27046Y8930D01*
X27078Y8951D01*
X27105Y8975D01*
X27127Y9000D01*
X27145Y9028D01*
X27160Y9059D01*
X27172Y9093D01*
X27181Y9130D01*
X27186Y9160D01*
X27189Y9197D01*
X27191Y9242D01*
X27192Y9295D01*
X27192Y9937D01*
X27016Y9937D01*
X27016Y9362D01*
X27015Y9299D01*
X27013Y9247D01*
X27010Y9206D01*
X27005Y9176D01*
X26995Y9144D01*
X26979Y9114D01*
X26959Y9089D01*
X26935Y9067D01*
X26906Y9050D01*
X26875Y9038D01*
X26840Y9030D01*
X26802Y9028D01*
X26763Y9030D01*
X26725Y9038D01*
X26689Y9051D01*
X26654Y9068D01*
X26621Y9091D01*
X26594Y9116D01*
X26572Y9146D01*
X26555Y9179D01*
X26543Y9218D01*
X26534Y9264D01*
X26528Y9319D01*
X26527Y9381D01*
X26527Y9937D01*
X26351Y9937D01*
X26351Y8900D01*
X26508Y8900D01*
X26508Y8900D01*
X25399Y9028D02*
X25447Y8989D01*
X25454Y8985D01*
X25521Y9083D01*
X25489Y9111D01*
X25463Y9144D01*
X25442Y9180D01*
X25429Y9214D01*
X25420Y9254D01*
X25415Y9301D01*
X25413Y9356D01*
X25413Y9421D01*
X25413Y9421D01*
X25467Y9402D01*
X25533Y9384D01*
X25611Y9369D01*
X25700Y9354D01*
X25751Y9346D01*
X25793Y9337D01*
X25827Y9328D01*
X25854Y9319D01*
X25875Y9308D01*
X25894Y9295D01*
X25910Y9279D01*
X25923Y9262D01*
X25934Y9242D01*
X25941Y9222D01*
X25946Y9201D01*
X25948Y9178D01*
X25944Y9145D01*
X25934Y9114D01*
X25918Y9086D01*
X25894Y9061D01*
X25865Y9041D01*
X25829Y9026D01*
X25787Y9017D01*
X25739Y9014D01*
X25689Y9017D01*
X25643Y9025D01*
X25599Y9039D01*
X25558Y9059D01*
X25521Y9083D01*
X25454Y8985D01*
X25495Y8957D01*
X25541Y8931D01*
X25587Y8911D01*
X25633Y8896D01*
X25680Y8885D01*
X25730Y8879D01*
X25781Y8877D01*
X25861Y8882D01*
X25932Y8897D01*
X25992Y8924D01*
X26043Y8960D01*
X26083Y9005D01*
X26112Y9055D01*
X26129Y9111D01*
X26135Y9173D01*
X26133Y9211D01*
X26126Y9246D01*
X26116Y9280D01*
X26100Y9313D01*
X26082Y9343D01*
X26060Y9369D01*
X26036Y9393D01*
X26010Y9414D01*
X25981Y9432D01*
X25950Y9447D01*
X25917Y9460D01*
X25883Y9471D01*
X25854Y9478D01*
X25818Y9485D01*
X25776Y9491D01*
X25727Y9498D01*
X25627Y9511D01*
X25542Y9525D01*
X25471Y9541D01*
X25413Y9558D01*
X25413Y9575D01*
X25413Y9588D01*
X25412Y9598D01*
X25412Y9604D01*
X25416Y9654D01*
X25425Y9696D01*
X25440Y9730D01*
X25462Y9755D01*
X25500Y9782D01*
X25546Y9800D01*
X25600Y9811D01*
X25662Y9815D01*
X25720Y9812D01*
X25770Y9804D01*
X25812Y9791D01*
X25846Y9772D01*
X25873Y9746D01*
X25897Y9711D01*
X25917Y9669D01*
X25933Y9618D01*
X26105Y9641D01*
X26091Y9694D01*
X26074Y9741D01*
X26053Y9783D01*
X26028Y9819D01*
X25998Y9851D01*
X25962Y9879D01*
X25920Y9904D01*
X25872Y9924D01*
X25820Y9940D01*
X25763Y9951D01*
X25702Y9958D01*
X25637Y9961D01*
X25574Y9959D01*
X25517Y9953D01*
X25466Y9943D01*
X25421Y9929D01*
X25382Y9913D01*
X25349Y9894D01*
X25321Y9873D01*
X25299Y9851D01*
X25281Y9825D01*
X25266Y9797D01*
X25254Y9766D01*
X25244Y9731D01*
X25241Y9704D01*
X25238Y9668D01*
X25236Y9623D01*
X25236Y9569D01*
X25236Y9335D01*
X25235Y9223D01*
X25233Y9134D01*
X25229Y9068D01*
X25224Y9025D01*
X25217Y8992D01*
X25208Y8961D01*
X25195Y8930D01*
X25180Y8900D01*
X25364Y8900D01*
X25376Y8929D01*
X25386Y8959D01*
X25394Y8992D01*
X25399Y9028D01*
X25399Y9028D01*
X24967Y8900D02*
X24967Y10332D01*
X24791Y10332D01*
X24791Y8900D01*
X24967Y8900D01*
X24967Y8900D01*
X23965Y8900D02*
X23965Y9937D01*
X23807Y9937D01*
X23807Y9780D01*
X23777Y9830D01*
X23749Y9871D01*
X23721Y9903D01*
X23695Y9925D01*
X23669Y9941D01*
X23641Y9952D01*
X23612Y9958D01*
X23582Y9961D01*
X23538Y9957D01*
X23493Y9946D01*
X23447Y9929D01*
X23402Y9904D01*
X23462Y9741D01*
X23494Y9757D01*
X23527Y9769D01*
X23559Y9777D01*
X23591Y9779D01*
X23619Y9777D01*
X23646Y9770D01*
X23671Y9759D01*
X23695Y9744D01*
X23716Y9725D01*
X23734Y9703D01*
X23749Y9677D01*
X23760Y9648D01*
X23773Y9600D01*
X23782Y9550D01*
X23788Y9498D01*
X23789Y9443D01*
X23789Y8900D01*
X23965Y8900D01*
X23965Y8900D01*
X22620Y9028D02*
X22669Y8989D01*
X22676Y8985D01*
X22743Y9083D01*
X22711Y9111D01*
X22685Y9144D01*
X22663Y9180D01*
X22651Y9214D01*
X22642Y9254D01*
X22637Y9301D01*
X22635Y9356D01*
X22635Y9421D01*
X22635Y9421D01*
X22689Y9402D01*
X22755Y9384D01*
X22833Y9369D01*
X22922Y9354D01*
X22972Y9346D01*
X23015Y9337D01*
X23049Y9328D01*
X23076Y9319D01*
X23097Y9308D01*
X23115Y9295D01*
X23131Y9279D01*
X23145Y9262D01*
X23156Y9242D01*
X23163Y9222D01*
X23168Y9201D01*
X23169Y9178D01*
X23166Y9145D01*
X23156Y9114D01*
X23139Y9086D01*
X23116Y9061D01*
X23086Y9041D01*
X23051Y9026D01*
X23009Y9017D01*
X22960Y9014D01*
X22911Y9017D01*
X22864Y9025D01*
X22821Y9039D01*
X22780Y9059D01*
X22743Y9083D01*
X22676Y8985D01*
X22716Y8957D01*
X22763Y8931D01*
X22808Y8911D01*
X22854Y8896D01*
X22902Y8885D01*
X22951Y8879D01*
X23002Y8877D01*
X23083Y8882D01*
X23153Y8897D01*
X23214Y8924D01*
X23265Y8960D01*
X23305Y9005D01*
X23334Y9055D01*
X23351Y9111D01*
X23357Y9173D01*
X23355Y9211D01*
X23348Y9246D01*
X23337Y9280D01*
X23322Y9313D01*
X23303Y9343D01*
X23282Y9369D01*
X23258Y9393D01*
X23231Y9414D01*
X23202Y9432D01*
X23172Y9447D01*
X23139Y9460D01*
X23105Y9471D01*
X23076Y9478D01*
X23040Y9485D01*
X22998Y9491D01*
X22949Y9498D01*
X22849Y9511D01*
X22764Y9525D01*
X22692Y9541D01*
X22635Y9558D01*
X22635Y9575D01*
X22634Y9588D01*
X22634Y9598D01*
X22634Y9604D01*
X22637Y9654D01*
X22647Y9696D01*
X22662Y9730D01*
X22684Y9755D01*
X22722Y9782D01*
X22768Y9800D01*
X22822Y9811D01*
X22884Y9815D01*
X22942Y9812D01*
X22992Y9804D01*
X23034Y9791D01*
X23067Y9772D01*
X23095Y9746D01*
X23119Y9711D01*
X23139Y9669D01*
X23155Y9618D01*
X23327Y9641D01*
X23313Y9694D01*
X23296Y9741D01*
X23274Y9783D01*
X23249Y9819D01*
X23220Y9851D01*
X23184Y9879D01*
X23142Y9904D01*
X23094Y9924D01*
X23041Y9940D01*
X22985Y9951D01*
X22924Y9958D01*
X22859Y9961D01*
X22795Y9959D01*
X22738Y9953D01*
X22688Y9943D01*
X22643Y9929D01*
X22604Y9913D01*
X22571Y9894D01*
X22543Y9873D01*
X22521Y9851D01*
X22503Y9825D01*
X22488Y9797D01*
X22475Y9766D01*
X22466Y9731D01*
X22462Y9704D01*
X22460Y9668D01*
X22458Y9623D01*
X22457Y9569D01*
X22457Y9335D01*
X22457Y9223D01*
X22455Y9134D01*
X22451Y9068D01*
X22446Y9025D01*
X22439Y8992D01*
X22429Y8961D01*
X22417Y8930D01*
X22402Y8900D01*
X22585Y8900D01*
X22598Y8929D01*
X22608Y8959D01*
X22615Y8992D01*
X22620Y9028D01*
X22620Y9028D01*
X22184Y8900D02*
X22184Y9937D01*
X22008Y9937D01*
X22008Y8900D01*
X22184Y8900D01*
X22184Y8900D01*
X22184Y10129D02*
X22184Y10332D01*
X22008Y10332D01*
X22008Y10129D01*
X22184Y10129D01*
X22184Y10129D01*
X21745Y8900D02*
X21745Y10332D01*
X21569Y10332D01*
X21569Y8900D01*
X21745Y8900D01*
X21745Y8900D01*
X20741Y8503D02*
X20741Y9937D01*
X20581Y9937D01*
X20581Y9802D01*
X20495Y9718D01*
X20495Y9718D01*
X20533Y9659D01*
X20560Y9589D01*
X20576Y9507D01*
X20582Y9413D01*
X20582Y9413D01*
X20576Y9319D01*
X20561Y9239D01*
X20536Y9171D01*
X20500Y9117D01*
X20458Y9075D01*
X20411Y9045D01*
X20360Y9027D01*
X20304Y9021D01*
X20248Y9027D01*
X20195Y9046D01*
X20147Y9077D01*
X20104Y9120D01*
X20067Y9177D01*
X20041Y9247D01*
X20025Y9330D01*
X20020Y9427D01*
X20025Y9520D01*
X20040Y9601D01*
X20066Y9669D01*
X20102Y9724D01*
X20144Y9767D01*
X20191Y9798D01*
X20242Y9817D01*
X20296Y9823D01*
X20351Y9816D01*
X20402Y9797D01*
X20450Y9764D01*
X20495Y9718D01*
X20581Y9802D01*
X20551Y9839D01*
X20520Y9872D01*
X20487Y9899D01*
X20453Y9921D01*
X20415Y9938D01*
X20374Y9951D01*
X20329Y9958D01*
X20280Y9961D01*
X20215Y9956D01*
X20155Y9943D01*
X20098Y9922D01*
X20045Y9892D01*
X19998Y9854D01*
X19956Y9810D01*
X19921Y9758D01*
X19892Y9699D01*
X19869Y9636D01*
X19853Y9569D01*
X19844Y9499D01*
X19840Y9426D01*
X19844Y9349D01*
X19855Y9275D01*
X19872Y9205D01*
X19897Y9140D01*
X19929Y9080D01*
X19968Y9027D01*
X20012Y8982D01*
X20063Y8944D01*
X20119Y8915D01*
X20175Y8894D01*
X20233Y8881D01*
X20292Y8877D01*
X20335Y8879D01*
X20376Y8886D01*
X20414Y8897D01*
X20450Y8914D01*
X20484Y8933D01*
X20514Y8956D01*
X20541Y8980D01*
X20565Y9007D01*
X20565Y8503D01*
X20741Y8503D01*
X20741Y8503D01*
X19694Y9419D02*
X19684Y9553D01*
X19654Y9669D01*
X19604Y9767D01*
X19534Y9845D01*
X19463Y9896D01*
X19385Y9932D01*
X19300Y9953D01*
X19207Y9961D01*
X19105Y9952D01*
X19013Y9926D01*
X18931Y9882D01*
X18858Y9820D01*
X18798Y9744D01*
X18756Y9654D01*
X18731Y9550D01*
X18722Y9433D01*
X18726Y9338D01*
X18737Y9254D01*
X18756Y9181D01*
X18782Y9118D01*
X18816Y9064D01*
X18856Y9016D01*
X18903Y8975D01*
X18957Y8940D01*
X19016Y8912D01*
X19077Y8892D01*
X19141Y8881D01*
X19207Y8877D01*
X19220Y8878D01*
X19207Y9021D01*
X19145Y9027D01*
X19088Y9046D01*
X19036Y9077D01*
X18990Y9121D01*
X18952Y9177D01*
X18925Y9246D01*
X18908Y9329D01*
X18903Y9424D01*
X18908Y9515D01*
X18925Y9593D01*
X18952Y9661D01*
X18990Y9716D01*
X19037Y9759D01*
X19088Y9790D01*
X19145Y9809D01*
X19207Y9815D01*
X19271Y9809D01*
X19328Y9790D01*
X19380Y9760D01*
X19426Y9716D01*
X19464Y9661D01*
X19491Y9593D01*
X19508Y9512D01*
X19513Y9419D01*
X19513Y9419D01*
X19508Y9325D01*
X19491Y9244D01*
X19464Y9176D01*
X19426Y9120D01*
X19380Y9077D01*
X19328Y9046D01*
X19271Y9027D01*
X19207Y9021D01*
X19220Y8878D01*
X19311Y8885D01*
X19404Y8911D01*
X19487Y8955D01*
X19560Y9016D01*
X19618Y9094D01*
X19660Y9187D01*
X19685Y9295D01*
X19694Y9419D01*
X19694Y9419D01*
X18325Y8900D02*
X18642Y9937D01*
X18460Y9937D01*
X18295Y9338D01*
X18234Y9116D01*
X18229Y9135D01*
X18218Y9178D01*
X18202Y9242D01*
X18180Y9330D01*
X18015Y9937D01*
X17834Y9937D01*
X17679Y9336D01*
X17627Y9137D01*
X17568Y9338D01*
X17390Y9937D01*
X17219Y9937D01*
X17543Y8900D01*
X17726Y8900D01*
X17891Y9521D01*
X17931Y9698D01*
X18141Y8900D01*
X18325Y8900D01*
X18325Y8900D01*
X16362Y9234D02*
X16180Y9212D01*
X16206Y9136D01*
X16241Y9070D01*
X16286Y9013D01*
X16339Y8964D01*
X16401Y8926D01*
X16472Y8899D01*
X16550Y8882D01*
X16636Y8877D01*
X16744Y8885D01*
X16840Y8912D01*
X16924Y8955D01*
X16997Y9017D01*
X17055Y9094D01*
X17097Y9185D01*
X17122Y9290D01*
X17130Y9410D01*
X17122Y9533D01*
X17097Y9642D01*
X17055Y9736D01*
X16996Y9816D01*
X16923Y9879D01*
X16841Y9924D01*
X16748Y9952D01*
X16646Y9961D01*
X16631Y9959D01*
X16644Y9816D01*
X16702Y9811D01*
X16755Y9796D01*
X16804Y9770D01*
X16848Y9735D01*
X16884Y9691D01*
X16912Y9640D01*
X16930Y9583D01*
X16939Y9518D01*
X16939Y9518D01*
X16360Y9518D01*
X16368Y9580D01*
X16382Y9633D01*
X16402Y9678D01*
X16426Y9714D01*
X16471Y9759D01*
X16523Y9791D01*
X16580Y9810D01*
X16644Y9816D01*
X16631Y9959D01*
X16547Y9952D01*
X16457Y9925D01*
X16377Y9881D01*
X16306Y9819D01*
X16248Y9741D01*
X16207Y9649D01*
X16182Y9542D01*
X16174Y9421D01*
X16174Y9412D01*
X16174Y9401D01*
X16175Y9388D01*
X16175Y9374D01*
X16949Y9374D01*
X16939Y9293D01*
X16920Y9223D01*
X16891Y9162D01*
X16852Y9112D01*
X16806Y9072D01*
X16754Y9044D01*
X16697Y9027D01*
X16635Y9021D01*
X16589Y9024D01*
X16546Y9034D01*
X16506Y9050D01*
X16470Y9072D01*
X16438Y9101D01*
X16409Y9138D01*
X16384Y9182D01*
X16362Y9234D01*
X16362Y9234D01*
X15961Y8900D02*
X15961Y9937D01*
X15803Y9937D01*
X15803Y9780D01*
X15773Y9830D01*
X15745Y9871D01*
X15718Y9903D01*
X15691Y9925D01*
X15665Y9941D01*
X15637Y9952D01*
X15609Y9958D01*
X15579Y9961D01*
X15534Y9957D01*
X15489Y9946D01*
X15444Y9929D01*
X15398Y9904D01*
X15458Y9741D01*
X15491Y9757D01*
X15523Y9769D01*
X15555Y9777D01*
X15587Y9779D01*
X15615Y9777D01*
X15642Y9770D01*
X15667Y9759D01*
X15691Y9744D01*
X15712Y9725D01*
X15730Y9703D01*
X15745Y9677D01*
X15756Y9648D01*
X15769Y9600D01*
X15778Y9550D01*
X15784Y9498D01*
X15786Y9443D01*
X15786Y8900D01*
X15961Y8900D01*
X15961Y8900D01*
X14808Y9210D02*
X14634Y9237D01*
X14624Y9188D01*
X14607Y9145D01*
X14583Y9108D01*
X14553Y9077D01*
X14516Y9052D01*
X14473Y9035D01*
X14422Y9025D01*
X14366Y9021D01*
X14309Y9024D01*
X14260Y9033D01*
X14219Y9049D01*
X14186Y9070D01*
X14160Y9096D01*
X14142Y9124D01*
X14131Y9154D01*
X14127Y9186D01*
X14131Y9214D01*
X14140Y9239D01*
X14157Y9261D01*
X14179Y9280D01*
X14204Y9292D01*
X14242Y9306D01*
X14294Y9322D01*
X14359Y9339D01*
X14448Y9363D01*
X14523Y9385D01*
X14582Y9405D01*
X14627Y9424D01*
X14662Y9443D01*
X14693Y9466D01*
X14719Y9493D01*
X14740Y9523D01*
X14757Y9555D01*
X14769Y9589D01*
X14776Y9624D01*
X14779Y9662D01*
X14777Y9696D01*
X14771Y9728D01*
X14761Y9760D01*
X14747Y9790D01*
X14730Y9818D01*
X14710Y9844D01*
X14687Y9867D01*
X14661Y9888D01*
X14638Y9903D01*
X14612Y9916D01*
X14582Y9928D01*
X14549Y9940D01*
X14513Y9949D01*
X14475Y9955D01*
X14437Y9959D01*
X14397Y9961D01*
X14338Y9958D01*
X14282Y9952D01*
X14231Y9941D01*
X14183Y9925D01*
X14139Y9906D01*
X14102Y9884D01*
X14071Y9859D01*
X14046Y9830D01*
X14026Y9798D01*
X14009Y9760D01*
X13996Y9717D01*
X13986Y9670D01*
X14158Y9646D01*
X14166Y9684D01*
X14181Y9717D01*
X14200Y9746D01*
X14226Y9771D01*
X14257Y9791D01*
X14293Y9805D01*
X14336Y9813D01*
X14384Y9816D01*
X14440Y9814D01*
X14488Y9806D01*
X14527Y9793D01*
X14557Y9776D01*
X14580Y9755D01*
X14596Y9733D01*
X14606Y9708D01*
X14609Y9682D01*
X14608Y9666D01*
X14603Y9650D01*
X14597Y9635D01*
X14587Y9621D01*
X14575Y9607D01*
X14560Y9595D01*
X14541Y9584D01*
X14520Y9574D01*
X14500Y9567D01*
X14468Y9558D01*
X14423Y9545D01*
X14365Y9529D01*
X14279Y9505D01*
X14206Y9484D01*
X14148Y9464D01*
X14104Y9447D01*
X14070Y9430D01*
X14039Y9408D01*
X14012Y9384D01*
X13989Y9355D01*
X13970Y9323D01*
X13957Y9287D01*
X13949Y9248D01*
X13947Y9205D01*
X13950Y9161D01*
X13960Y9119D01*
X13976Y9079D01*
X13998Y9039D01*
X14026Y9003D01*
X14061Y8970D01*
X14100Y8942D01*
X14146Y8919D01*
X14196Y8900D01*
X14249Y8887D01*
X14305Y8879D01*
X14365Y8877D01*
X14460Y8882D01*
X14543Y8898D01*
X14614Y8924D01*
X14673Y8961D01*
X14721Y9008D01*
X14760Y9065D01*
X14789Y9132D01*
X14808Y9210D01*
X14808Y9210D01*
X13058Y8900D02*
X13058Y9052D01*
X13124Y8975D01*
X13201Y8921D01*
X13289Y8888D01*
X13387Y8877D01*
X13432Y8879D01*
X13476Y8885D01*
X13518Y8896D01*
X13559Y8912D01*
X13596Y8930D01*
X13628Y8951D01*
X13655Y8975D01*
X13677Y9000D01*
X13695Y9028D01*
X13710Y9059D01*
X13722Y9093D01*
X13731Y9130D01*
X13736Y9160D01*
X13739Y9197D01*
X13741Y9242D01*
X13742Y9295D01*
X13742Y9937D01*
X13566Y9937D01*
X13566Y9362D01*
X13565Y9299D01*
X13563Y9247D01*
X13560Y9206D01*
X13555Y9176D01*
X13544Y9144D01*
X13529Y9114D01*
X13509Y9089D01*
X13485Y9067D01*
X13456Y9050D01*
X13425Y9038D01*
X13390Y9030D01*
X13352Y9028D01*
X13313Y9030D01*
X13275Y9038D01*
X13239Y9051D01*
X13204Y9068D01*
X13171Y9091D01*
X13144Y9116D01*
X13122Y9146D01*
X13105Y9179D01*
X13093Y9218D01*
X13084Y9264D01*
X13078Y9319D01*
X13077Y9381D01*
X13077Y9937D01*
X12901Y9937D01*
X12901Y8900D01*
X13058Y8900D01*
X13058Y8900D01*
X12625Y8503D02*
X12625Y9937D01*
X12465Y9937D01*
X12465Y9802D01*
X12379Y9718D01*
X12380Y9718D01*
X12418Y9659D01*
X12445Y9589D01*
X12461Y9507D01*
X12466Y9413D01*
X12466Y9413D01*
X12461Y9319D01*
X12446Y9239D01*
X12421Y9171D01*
X12385Y9117D01*
X12342Y9075D01*
X12296Y9045D01*
X12244Y9027D01*
X12189Y9021D01*
X12132Y9027D01*
X12080Y9046D01*
X12032Y9077D01*
X11988Y9120D01*
X11952Y9177D01*
X11926Y9247D01*
X11910Y9330D01*
X11905Y9427D01*
X11910Y9520D01*
X11925Y9601D01*
X11951Y9669D01*
X11986Y9724D01*
X12029Y9767D01*
X12076Y9798D01*
X12126Y9817D01*
X12181Y9823D01*
X12236Y9816D01*
X12287Y9797D01*
X12335Y9764D01*
X12379Y9718D01*
X12465Y9802D01*
X12436Y9839D01*
X12405Y9872D01*
X12372Y9899D01*
X12337Y9921D01*
X12300Y9938D01*
X12258Y9951D01*
X12213Y9958D01*
X12164Y9961D01*
X12100Y9956D01*
X12039Y9943D01*
X11983Y9922D01*
X11930Y9892D01*
X11882Y9854D01*
X11841Y9810D01*
X11806Y9758D01*
X11777Y9699D01*
X11754Y9636D01*
X11738Y9569D01*
X11728Y9499D01*
X11725Y9426D01*
X11729Y9349D01*
X11739Y9275D01*
X11757Y9205D01*
X11782Y9140D01*
X11814Y9080D01*
X11852Y9027D01*
X11897Y8982D01*
X11948Y8944D01*
X12003Y8915D01*
X12060Y8894D01*
X12118Y8881D01*
X12177Y8877D01*
X12220Y8879D01*
X12261Y8886D01*
X12299Y8897D01*
X12335Y8914D01*
X12368Y8933D01*
X12398Y8956D01*
X12426Y8980D01*
X12450Y9007D01*
X12450Y8503D01*
X12625Y8503D01*
X12625Y8503D01*
X11513Y8503D02*
X11513Y9937D01*
X11353Y9937D01*
X11353Y9802D01*
X11267Y9718D01*
X11267Y9718D01*
X11305Y9659D01*
X11332Y9589D01*
X11348Y9507D01*
X11354Y9413D01*
X11354Y9413D01*
X11349Y9319D01*
X11334Y9239D01*
X11308Y9171D01*
X11273Y9117D01*
X11230Y9075D01*
X11183Y9045D01*
X11132Y9027D01*
X11077Y9021D01*
X11020Y9027D01*
X10968Y9046D01*
X10920Y9077D01*
X10876Y9120D01*
X10839Y9177D01*
X10813Y9247D01*
X10798Y9330D01*
X10792Y9427D01*
X10797Y9520D01*
X10813Y9601D01*
X10838Y9669D01*
X10874Y9724D01*
X10917Y9767D01*
X10963Y9798D01*
X11014Y9817D01*
X11069Y9823D01*
X11123Y9816D01*
X11175Y9797D01*
X11223Y9764D01*
X11267Y9718D01*
X11353Y9802D01*
X11324Y9839D01*
X11293Y9872D01*
X11260Y9899D01*
X11225Y9921D01*
X11187Y9938D01*
X11146Y9951D01*
X11101Y9958D01*
X11052Y9961D01*
X10988Y9956D01*
X10927Y9943D01*
X10870Y9922D01*
X10818Y9892D01*
X10770Y9854D01*
X10729Y9810D01*
X10693Y9758D01*
X10664Y9699D01*
X10642Y9636D01*
X10626Y9569D01*
X10616Y9499D01*
X10613Y9426D01*
X10616Y9349D01*
X10627Y9275D01*
X10645Y9205D01*
X10670Y9140D01*
X10702Y9080D01*
X10740Y9027D01*
X10785Y8982D01*
X10836Y8944D01*
X10891Y8915D01*
X10948Y8894D01*
X11005Y8881D01*
X11065Y8877D01*
X11108Y8879D01*
X11148Y8886D01*
X11186Y8897D01*
X11223Y8914D01*
X11256Y8933D01*
X11286Y8956D01*
X11313Y8980D01*
X11337Y9007D01*
X11337Y8503D01*
X11513Y8503D01*
X11513Y8503D01*
X10405Y8900D02*
X10405Y10332D01*
X10229Y10332D01*
X10229Y8900D01*
X10405Y8900D01*
X10405Y8900D01*
X9964Y8501D02*
X9984Y8666D01*
X9956Y8659D01*
X9930Y8654D01*
X9906Y8651D01*
X9883Y8650D01*
X9855Y8651D01*
X9830Y8655D01*
X9809Y8661D01*
X9789Y8670D01*
X9773Y8680D01*
X9757Y8693D01*
X9744Y8708D01*
X9732Y8724D01*
X9722Y8742D01*
X9710Y8770D01*
X9695Y8808D01*
X9678Y8855D01*
X9675Y8863D01*
X9672Y8873D01*
X9668Y8885D01*
X9663Y8898D01*
X10056Y9937D01*
X9867Y9937D01*
X9651Y9337D01*
X9630Y9279D01*
X9611Y9219D01*
X9593Y9159D01*
X9576Y9096D01*
X9560Y9156D01*
X9542Y9216D01*
X9524Y9275D01*
X9503Y9333D01*
X9282Y9937D01*
X9106Y9937D01*
X9500Y8882D01*
X9530Y8804D01*
X9557Y8738D01*
X9580Y8686D01*
X9599Y8647D01*
X9623Y8607D01*
X9649Y8572D01*
X9677Y8543D01*
X9706Y8520D01*
X9738Y8502D01*
X9773Y8489D01*
X9810Y8482D01*
X9851Y8479D01*
X9877Y8480D01*
X9905Y8484D01*
X9934Y8491D01*
X9964Y8501D01*
X9964Y8501D01*
G37*
M02*