<?xml version='1.0' encoding='UTF-8' standalone='no'?>
<svg xmlns="http://www.w3.org/2000/svg" width="358" height="220" x="0" y="0"><text x="259" y="10" font-size="10" font-family="sans-serif" text-anchor="start" alignment-baseline="hanging">VCC</text><text x="69" y="150" font-size="10" font-family="sans-serif" text-anchor="end" alignment-baseline="hanging">FTDI header</text><text x="259" y="200" font-size="10" font-family="sans-serif" text-anchor="start" alignment-baseline="hanging">GND</text><text x="204" y="100" font-size="10" font-family="sans-serif" text-anchor="end" alignment-baseline="middle">RX</text><text x="154" y="100" font-size="10" font-family="sans-serif" text-anchor="start" alignment-baseline="middle">TX</text><text x="204" y="110" font-size="10" font-family="sans-serif" text-anchor="end" alignment-baseline="middle">TX</text><text x="289" y="150" font-size="10" font-family="sans-serif" text-anchor="start" alignment-baseline="hanging">FTDI header</text><text x="99" y="200" font-size="10" font-family="sans-serif" text-anchor="end" alignment-baseline="hanging">GND</text><text x="309" y="60" font-size="10" font-family="sans-serif" text-anchor="start" alignment-baseline="hanging">J2</text><text x="154" y="111" font-size="10" font-family="sans-serif" text-anchor="start" alignment-baseline="middle">RX</text><text x="49" y="60" font-size="10" font-family="sans-serif" text-anchor="end" alignment-baseline="hanging">J1</text><text x="99" y="10" font-size="10" font-family="sans-serif" text-anchor="end" alignment-baseline="hanging">VCC</text><line x1="122" y1="117" x2="116" y2="123" stroke-width="2" stroke="black"></line><line x1="122" y1="123" x2="116" y2="117" stroke-width="2" stroke="black"></line><line x1="134" y1="100" x2="129" y2="100" stroke-width="2" stroke="black"></line><line x1="149" y1="100" x2="144" y2="97" stroke-width="2" stroke="black"></line><line x1="149" y1="100" x2="144" y2="103" stroke-width="2" stroke="black"></line><line x1="144" y1="97" x2="139" y2="97" stroke-width="2" stroke="black"></line><line x1="144" y1="103" x2="139" y2="103" stroke-width="2" stroke="black"></line><line x1="139" y1="97" x2="134" y2="100" stroke-width="2" stroke="black"></line><line x1="139" y1="103" x2="134" y2="100" stroke-width="2" stroke="black"></line><line x1="236" y1="117" x2="242" y2="123" stroke-width="2" stroke="black"></line><line x1="236" y1="123" x2="242" y2="117" stroke-width="2" stroke="black"></line><line x1="236" y1="87" x2="242" y2="93" stroke-width="2" stroke="black"></line><line x1="236" y1="93" x2="242" y2="87" stroke-width="2" stroke="black"></line><line x1="224" y1="100" x2="229" y2="100" stroke-width="2" stroke="black"></line><line x1="209" y1="100" x2="214" y2="97" stroke-width="2" stroke="black"></line><line x1="209" y1="100" x2="214" y2="103" stroke-width="2" stroke="black"></line><line x1="214" y1="97" x2="219" y2="97" stroke-width="2" stroke="black"></line><line x1="214" y1="103" x2="219" y2="103" stroke-width="2" stroke="black"></line><line x1="219" y1="97" x2="224" y2="100" stroke-width="2" stroke="black"></line><line x1="219" y1="103" x2="224" y2="100" stroke-width="2" stroke="black"></line><line x1="269" y1="170" x2="269" y2="180" stroke-width="2" stroke="black"></line><line x1="259" y1="180" x2="279" y2="180" stroke-width="2" stroke="black"></line><line x1="262" y1="185" x2="276" y2="185" stroke-width="2" stroke="black"></line><line x1="265" y1="190" x2="273" y2="190" stroke-width="2" stroke="black"></line><line x1="89" y1="170" x2="89" y2="180" stroke-width="2" stroke="black"></line><line x1="99" y1="180" x2="79" y2="180" stroke-width="2" stroke="black"></line><line x1="96" y1="185" x2="82" y2="185" stroke-width="2" stroke="black"></line><line x1="93" y1="190" x2="85" y2="190" stroke-width="2" stroke="black"></line><rect width="30" height="70" x="19" y="70" style="stroke: #000; stroke-width: 1; fill: none;"></rect><line x1="59" y1="90" x2="49" y2="90" stroke-width="2" stroke="black"></line><text x="47" y="90" font-size="10" font-family="sans-serif" text-anchor="end" alignment-baseline="middle">CTS</text><line x1="59" y1="130" x2="49" y2="130" stroke-width="2" stroke="black"></line><text x="47" y="130" font-size="10" font-family="sans-serif" text-anchor="end" alignment-baseline="middle">GND</text><line x1="59" y1="120" x2="49" y2="120" stroke-width="2" stroke="black"></line><text x="47" y="120" font-size="10" font-family="sans-serif" text-anchor="end" alignment-baseline="middle">RTS</text><line x1="59" y1="110" x2="49" y2="110" stroke-width="2" stroke="black"></line><text x="47" y="110" font-size="10" font-family="sans-serif" text-anchor="end" alignment-baseline="middle">RXD</text><line x1="59" y1="100" x2="49" y2="100" stroke-width="2" stroke="black"></line><text x="47" y="100" font-size="10" font-family="sans-serif" text-anchor="end" alignment-baseline="middle">TXD</text><line x1="59" y1="80" x2="49" y2="80" stroke-width="2" stroke="black"></line><text x="47" y="80" font-size="10" font-family="sans-serif" text-anchor="end" alignment-baseline="middle">VCC</text><rect width="30" height="70" x="309" y="70" style="stroke: #000; stroke-width: 1; fill: none;"></rect><line x1="299" y1="90" x2="309" y2="90" stroke-width="2" stroke="black"></line><text x="311" y="90" font-size="10" font-family="sans-serif" text-anchor="start" alignment-baseline="middle">CTS</text><line x1="299" y1="130" x2="309" y2="130" stroke-width="2" stroke="black"></line><text x="311" y="130" font-size="10" font-family="sans-serif" text-anchor="start" alignment-baseline="middle">GND</text><line x1="299" y1="120" x2="309" y2="120" stroke-width="2" stroke="black"></line><text x="311" y="120" font-size="10" font-family="sans-serif" text-anchor="start" alignment-baseline="middle">RTS</text><line x1="299" y1="110" x2="309" y2="110" stroke-width="2" stroke="black"></line><text x="311" y="110" font-size="10" font-family="sans-serif" text-anchor="start" alignment-baseline="middle">RXD</text><line x1="299" y1="100" x2="309" y2="100" stroke-width="2" stroke="black"></line><text x="311" y="100" font-size="10" font-family="sans-serif" text-anchor="start" alignment-baseline="middle">TXD</text><line x1="299" y1="80" x2="309" y2="80" stroke-width="2" stroke="black"></line><text x="311" y="80" font-size="10" font-family="sans-serif" text-anchor="start" alignment-baseline="middle">VCC</text><line x1="224" y1="110" x2="229" y2="110" stroke-width="2" stroke="black"></line><line x1="209" y1="110" x2="214" y2="107" stroke-width="2" stroke="black"></line><line x1="209" y1="110" x2="214" y2="113" stroke-width="2" stroke="black"></line><line x1="214" y1="107" x2="219" y2="107" stroke-width="2" stroke="black"></line><line x1="214" y1="113" x2="219" y2="113" stroke-width="2" stroke="black"></line><line x1="219" y1="107" x2="224" y2="110" stroke-width="2" stroke="black"></line><line x1="219" y1="113" x2="224" y2="110" stroke-width="2" stroke="black"></line><line x1="269" y1="40" x2="269" y2="20" stroke-width="2" stroke="black"></line><line x1="269" y1="20" x2="262" y2="27" stroke-width="2" stroke="black"></line><line x1="269" y1="20" x2="276" y2="27" stroke-width="2" stroke="black"></line><line x1="134" y1="110" x2="129" y2="110" stroke-width="2" stroke="black"></line><line x1="149" y1="110" x2="144" y2="107" stroke-width="2" stroke="black"></line><line x1="149" y1="110" x2="144" y2="113" stroke-width="2" stroke="black"></line><line x1="144" y1="107" x2="139" y2="107" stroke-width="2" stroke="black"></line><line x1="144" y1="113" x2="139" y2="113" stroke-width="2" stroke="black"></line><line x1="139" y1="107" x2="134" y2="110" stroke-width="2" stroke="black"></line><line x1="139" y1="113" x2="134" y2="110" stroke-width="2" stroke="black"></line><line x1="89" y1="40" x2="89" y2="20" stroke-width="2" stroke="black"></line><line x1="89" y1="20" x2="96" y2="27" stroke-width="2" stroke="black"></line><line x1="89" y1="20" x2="82" y2="27" stroke-width="2" stroke="black"></line><line x1="122" y1="87" x2="116" y2="93" stroke-width="2" stroke="black"></line><line x1="122" y1="93" x2="116" y2="87" stroke-width="2" stroke="black"></line><line x1="299" y1="80" x2="269" y2="80" stroke-width="2" stroke="black"></line><line x1="269" y1="40" x2="269" y2="80" stroke-width="2" stroke="black"></line><line x1="99" y1="110" x2="59" y2="110" stroke-width="2" stroke="black"></line><line x1="99" y1="100" x2="129" y2="100" stroke-width="2" stroke="black"></line><line x1="129" y1="110" x2="99" y2="110" stroke-width="2" stroke="black"></line><line x1="229" y1="110" x2="299" y2="110" stroke-width="2" stroke="black"></line><line x1="59" y1="90" x2="119" y2="90" stroke-width="2" stroke="black"></line><line x1="299" y1="130" x2="269" y2="130" stroke-width="2" stroke="black"></line><line x1="59" y1="100" x2="99" y2="100" stroke-width="2" stroke="black"></line><line x1="119" y1="120" x2="59" y2="120" stroke-width="2" stroke="black"></line><line x1="89" y1="130" x2="89" y2="170" stroke-width="2" stroke="black"></line><line x1="89" y1="130" x2="59" y2="130" stroke-width="2" stroke="black"></line><line x1="269" y1="170" x2="269" y2="130" stroke-width="2" stroke="black"></line><line x1="299" y1="100" x2="229" y2="100" stroke-width="2" stroke="black"></line><line x1="89" y1="40" x2="89" y2="80" stroke-width="2" stroke="black"></line><line x1="239" y1="120" x2="299" y2="120" stroke-width="2" stroke="black"></line><line x1="59" y1="80" x2="89" y2="80" stroke-width="2" stroke="black"></line><line x1="299" y1="90" x2="239" y2="90" stroke-width="2" stroke="black"></line></svg>