%FSLAX33Y33*%
%MOMM*%
%AMRR-H508000-W10160000-R152400-RO1.500*
21,1,9.8552,0.508,0.,0.,90*
21,1,10.16,0.2032,0.,0.,90*
1,1,0.3048,-0.1016,-4.9276*
1,1,0.3048,-0.1016,4.9276*
1,1,0.3048,0.1016,4.9276*
1,1,0.3048,0.1016,-4.9276*%
%AMRect-W1000000-H4500000-RO1.500*
21,1,1.,4.5,0.,0.,90*%
%ADD10C,0.1*%
%ADD11RR-H508000-W10160000-R152400-RO1.500*%
%ADD12Rect-W1000000-H4500000-RO1.500*%
D10*
%LNtop silkscreen_traces*%
%LNtop silkscreen component 8889ed7dfd5d4ee6*%
G36*
G01*
X47041Y1321D02*
X52019Y1321D01*
X52019Y6299D01*
X47041Y6299D01*
X47041Y1321D01*
X46533Y0813D02*
X52527Y0813D01*
X52527Y6807D01*
X46533Y6807D01*
X46533Y0813D01*
G37*
%LNtop silkscreen component d1eda6cb61111443*%
G36*
X1321Y1321D02*
X6299Y1321D01*
X6299Y6299D01*
X1321Y6299D01*
X1321Y1321D01*
X0813Y0813D02*
X6807Y0813D01*
X6807Y6807D01*
X0813Y6807D01*
X0813Y0813D01*
G37*
%LNtop silkscreen component dc50f5f4f936a7c6*%
X40670Y12260D02*
X12670Y12260D01*
X12670Y20760*
X40670Y20760*
X40670Y12260*
X40420Y12510D02*
X12920Y12510D01*
X12920Y20510*
X40420Y20510*
X40420Y12510*
D11*
X12065Y16510D03*
D12*
X26645Y12760D03*
G36*
X11532Y13623D02*
X10441Y13623D01*
X10441Y14107D01*
X10443Y14175D01*
X10448Y14235D01*
X10458Y14286D01*
X10470Y14329D01*
X10488Y14365D01*
X10511Y14397D01*
X10540Y14425D01*
X10574Y14450D01*
X10612Y14470D01*
X10653Y14484D01*
X10695Y14492D01*
X10739Y14495D01*
X10795Y14491D01*
X10846Y14476D01*
X10892Y14453D01*
X10934Y14420D01*
X10971Y14377D01*
X11000Y14324D01*
X11021Y14261D01*
X11028Y14225D01*
X10911Y14202D01*
X10902Y14233D01*
X10890Y14259D01*
X10875Y14282D01*
X10858Y14301D01*
X10837Y14317D01*
X10814Y14330D01*
X10790Y14339D01*
X10765Y14345D01*
X10739Y14346D01*
X10702Y14343D01*
X10668Y14332D01*
X10638Y14315D01*
X10611Y14290D01*
X10590Y14258D01*
X10574Y14218D01*
X10565Y14169D01*
X10562Y14113D01*
X10562Y13767D01*
X10923Y13767D01*
X10923Y13767D01*
X10923Y14078D01*
X10921Y14125D01*
X10917Y14166D01*
X10911Y14202D01*
X11028Y14225D01*
X11036Y14188D01*
X11049Y14215D01*
X11063Y14238D01*
X11077Y14258D01*
X11090Y14275D01*
X11121Y14306D01*
X11155Y14337D01*
X11193Y14366D01*
X11235Y14395D01*
X11532Y14585D01*
X11532Y14403D01*
X11305Y14259D01*
X11259Y14228D01*
X11218Y14201D01*
X11184Y14176D01*
X11155Y14154D01*
X11131Y14135D01*
X11110Y14116D01*
X11094Y14098D01*
X11082Y14081D01*
X11072Y14065D01*
X11064Y14048D01*
X11058Y14032D01*
X11053Y14015D01*
X11050Y14001D01*
X11049Y13983D01*
X11048Y13961D01*
X11048Y13935D01*
X11048Y13767D01*
X11532Y13767D01*
X11532Y13623D01*
X11532Y13623D01*
X11278Y15245D02*
X11295Y15384D01*
X11352Y15364D01*
X11402Y15337D01*
X11446Y15303D01*
X11483Y15262D01*
X11512Y15215D01*
X11533Y15162D01*
X11546Y15102D01*
X11550Y15036D01*
X11543Y14954D01*
X11523Y14881D01*
X11490Y14817D01*
X11443Y14761D01*
X11384Y14717D01*
X11315Y14685D01*
X11235Y14666D01*
X11144Y14660D01*
X11049Y14666D01*
X10966Y14685D01*
X10895Y14717D01*
X10834Y14762D01*
X10786Y14818D01*
X10751Y14880D01*
X10731Y14951D01*
X10724Y15029D01*
X10725Y15040D01*
X10834Y15030D01*
X10838Y14986D01*
X10849Y14945D01*
X10869Y14908D01*
X10896Y14875D01*
X10929Y14847D01*
X10968Y14826D01*
X11012Y14812D01*
X11061Y14806D01*
X11061Y14806D01*
X11061Y15247D01*
X11014Y15240D01*
X10974Y15230D01*
X10939Y15215D01*
X10911Y15196D01*
X10878Y15162D01*
X10853Y15123D01*
X10839Y15079D01*
X10834Y15030D01*
X10725Y15040D01*
X10731Y15104D01*
X10751Y15173D01*
X10785Y15234D01*
X10832Y15288D01*
X10891Y15332D01*
X10962Y15363D01*
X11043Y15382D01*
X11135Y15388D01*
X11142Y15388D01*
X11150Y15388D01*
X11160Y15388D01*
X11171Y15387D01*
X11171Y14798D01*
X11232Y14806D01*
X11286Y14820D01*
X11332Y14842D01*
X11371Y14872D01*
X11401Y14907D01*
X11422Y14946D01*
X11435Y14990D01*
X11440Y15037D01*
X11437Y15072D01*
X11430Y15105D01*
X11418Y15135D01*
X11401Y15163D01*
X11379Y15187D01*
X11351Y15209D01*
X11317Y15229D01*
X11278Y15245D01*
X11278Y15245D01*
X11532Y16065D02*
X11432Y16065D01*
X11370Y16004D01*
X11368Y16006D01*
X11327Y16032D01*
X11277Y16052D01*
X11218Y16063D01*
X11149Y16067D01*
X11073Y16063D01*
X11008Y16051D01*
X10954Y16032D01*
X10911Y16004D01*
X10877Y15971D01*
X10854Y15935D01*
X10839Y15894D01*
X10835Y15850D01*
X10839Y15808D01*
X10853Y15768D01*
X10876Y15733D01*
X10908Y15701D01*
X10949Y15675D01*
X11002Y15656D01*
X11064Y15645D01*
X11138Y15641D01*
X11138Y15641D01*
X11209Y15645D01*
X11270Y15657D01*
X11322Y15677D01*
X11365Y15705D01*
X11397Y15739D01*
X11421Y15775D01*
X11435Y15814D01*
X11440Y15856D01*
X11435Y15899D01*
X11422Y15938D01*
X11399Y15973D01*
X11370Y16004D01*
X11432Y16065D01*
X11484Y16023D01*
X11520Y15972D01*
X11543Y15912D01*
X11550Y15844D01*
X11547Y15797D01*
X11537Y15753D01*
X11521Y15710D01*
X11498Y15670D01*
X11469Y15633D01*
X11435Y15600D01*
X11396Y15571D01*
X11352Y15547D01*
X11304Y15528D01*
X11252Y15514D01*
X11197Y15506D01*
X11138Y15504D01*
X11080Y15506D01*
X11025Y15513D01*
X10972Y15526D01*
X10923Y15543D01*
X10878Y15565D01*
X10838Y15592D01*
X10804Y15624D01*
X10775Y15661D01*
X10753Y15702D01*
X10737Y15745D01*
X10727Y15790D01*
X10724Y15838D01*
X10726Y15872D01*
X10731Y15905D01*
X10741Y15936D01*
X10754Y15965D01*
X10770Y15992D01*
X10789Y16016D01*
X10809Y16037D01*
X10833Y16056D01*
X10441Y16056D01*
X10441Y16189D01*
X11532Y16189D01*
X11532Y16065D01*
X11532Y16065D01*
X11532Y16969D02*
X10742Y16727D01*
X10742Y16865D01*
X11198Y16991D01*
X11368Y17038D01*
X11353Y17042D01*
X11320Y17050D01*
X11271Y17062D01*
X11205Y17079D01*
X10742Y17205D01*
X10742Y17342D01*
X11200Y17461D01*
X11351Y17500D01*
X11199Y17546D01*
X10742Y17681D01*
X10742Y17811D01*
X11532Y17564D01*
X11532Y17425D01*
X11059Y17299D01*
X10924Y17269D01*
X11532Y17109D01*
X11532Y16969D01*
X11532Y16969D01*
X11532Y17924D02*
X10742Y17924D01*
X10742Y18058D01*
X11532Y18058D01*
X11532Y17924D01*
X11532Y17924D01*
X10595Y17924D02*
X10441Y17924D01*
X10441Y18058D01*
X10595Y18058D01*
X10595Y17924D01*
X10595Y17924D01*
X11532Y18261D02*
X10742Y18261D01*
X10742Y18381D01*
X10862Y18381D01*
X10823Y18404D01*
X10792Y18426D01*
X10768Y18446D01*
X10751Y18466D01*
X10739Y18486D01*
X10731Y18507D01*
X10726Y18529D01*
X10724Y18552D01*
X10727Y18586D01*
X10735Y18621D01*
X10748Y18655D01*
X10767Y18690D01*
X10891Y18644D01*
X10879Y18619D01*
X10870Y18595D01*
X10864Y18570D01*
X10862Y18546D01*
X10864Y18524D01*
X10869Y18504D01*
X10877Y18485D01*
X10889Y18467D01*
X10903Y18450D01*
X10920Y18437D01*
X10940Y18426D01*
X10962Y18417D01*
X10999Y18407D01*
X11037Y18400D01*
X11077Y18396D01*
X11118Y18395D01*
X11532Y18395D01*
X11532Y18261D01*
X11532Y18261D01*
X11278Y19311D02*
X11295Y19449D01*
X11352Y19429D01*
X11402Y19402D01*
X11446Y19368D01*
X11483Y19328D01*
X11512Y19280D01*
X11533Y19227D01*
X11546Y19167D01*
X11550Y19101D01*
X11543Y19019D01*
X11523Y18946D01*
X11490Y18882D01*
X11443Y18826D01*
X11384Y18782D01*
X11315Y18750D01*
X11235Y18731D01*
X11144Y18725D01*
X11049Y18731D01*
X10966Y18751D01*
X10895Y18783D01*
X10834Y18828D01*
X10786Y18883D01*
X10751Y18946D01*
X10731Y19016D01*
X10724Y19094D01*
X10725Y19105D01*
X10834Y19095D01*
X10838Y19051D01*
X10849Y19011D01*
X10869Y18974D01*
X10896Y18940D01*
X10929Y18912D01*
X10968Y18892D01*
X11012Y18878D01*
X11061Y18871D01*
X11061Y18871D01*
X11061Y19312D01*
X11014Y19306D01*
X10974Y19295D01*
X10939Y19280D01*
X10911Y19261D01*
X10878Y19227D01*
X10853Y19188D01*
X10839Y19144D01*
X10834Y19095D01*
X10725Y19105D01*
X10731Y19170D01*
X10751Y19238D01*
X10785Y19299D01*
X10832Y19353D01*
X10891Y19397D01*
X10962Y19428D01*
X11043Y19447D01*
X11135Y19453D01*
X11142Y19453D01*
X11150Y19453D01*
X11160Y19453D01*
X11171Y19453D01*
X11171Y18863D01*
X11232Y18871D01*
X11286Y18885D01*
X11332Y18908D01*
X11371Y18937D01*
X11401Y18972D01*
X11422Y19011D01*
X11435Y19055D01*
X11440Y19102D01*
X11437Y19138D01*
X11430Y19170D01*
X11418Y19201D01*
X11401Y19228D01*
X11379Y19253D01*
X11351Y19275D01*
X11317Y19294D01*
X11278Y19311D01*
X11278Y19311D01*
G37*
%LNtext*%
G36*
X2895Y7346D02*
X2737Y7346D01*
X2737Y7826D01*
X2895Y7826D01*
X2895Y7346D01*
X2895Y7346D01*
X3277Y8544D02*
X3277Y8388D01*
X2281Y8388D01*
X2308Y8358D01*
X2335Y8323D01*
X2362Y8284D01*
X2388Y8240D01*
X2414Y8195D01*
X2436Y8153D01*
X2454Y8113D01*
X2469Y8075D01*
X2318Y8075D01*
X2286Y8139D01*
X2250Y8198D01*
X2211Y8254D01*
X2169Y8305D01*
X2125Y8350D01*
X2082Y8388D01*
X2040Y8420D01*
X1999Y8444D01*
X1999Y8544D01*
X3277Y8544D01*
X3277Y8544D01*
X3126Y9766D02*
X3277Y9766D01*
X3277Y8925D01*
X3249Y8925D01*
X3221Y8928D01*
X3194Y8934D01*
X3168Y8943D01*
X3125Y8961D01*
X3083Y8985D01*
X3041Y9013D01*
X2999Y9046D01*
X2955Y9085D01*
X2909Y9132D01*
X2859Y9187D01*
X2806Y9250D01*
X2725Y9345D01*
X2654Y9424D01*
X2591Y9486D01*
X2536Y9531D01*
X2487Y9562D01*
X2440Y9585D01*
X2393Y9599D01*
X2349Y9603D01*
X2304Y9599D01*
X2263Y9587D01*
X2226Y9566D01*
X2192Y9537D01*
X2164Y9501D01*
X2144Y9461D01*
X2132Y9415D01*
X2128Y9364D01*
X2132Y9310D01*
X2145Y9262D01*
X2166Y9220D01*
X2196Y9183D01*
X2233Y9154D01*
X2276Y9132D01*
X2327Y9119D01*
X2383Y9115D01*
X2367Y8954D01*
X2282Y8968D01*
X2208Y8993D01*
X2145Y9030D01*
X2093Y9078D01*
X2052Y9137D01*
X2022Y9204D01*
X2005Y9281D01*
X1999Y9367D01*
X2005Y9454D01*
X2024Y9531D01*
X2056Y9599D01*
X2100Y9657D01*
X2154Y9704D01*
X2214Y9737D01*
X2280Y9757D01*
X2352Y9764D01*
X2390Y9762D01*
X2428Y9756D01*
X2465Y9746D01*
X2502Y9733D01*
X2540Y9715D01*
X2578Y9691D01*
X2617Y9663D01*
X2658Y9629D01*
X2702Y9587D01*
X2754Y9533D01*
X2814Y9466D01*
X2882Y9388D01*
X2936Y9324D01*
X2981Y9273D01*
X3016Y9234D01*
X3042Y9208D01*
X3063Y9188D01*
X3084Y9171D01*
X3105Y9155D01*
X3126Y9142D01*
X3126Y9766D01*
X3126Y9766D01*
X3277Y10360D02*
X2004Y9867D01*
X2004Y10050D01*
X2928Y10380D01*
X2983Y10400D01*
X3036Y10417D01*
X3087Y10433D01*
X3137Y10447D01*
X3085Y10463D01*
X3033Y10479D01*
X2981Y10497D01*
X2928Y10516D01*
X2004Y10860D01*
X2004Y11032D01*
X3277Y10533D01*
X3277Y10360D01*
X3277Y10360D01*
X51537Y7978D02*
X51537Y7821D01*
X50541Y7821D01*
X50568Y7791D01*
X50595Y7756D01*
X50622Y7717D01*
X50648Y7673D01*
X50674Y7629D01*
X50696Y7586D01*
X50714Y7546D01*
X50729Y7509D01*
X50578Y7509D01*
X50546Y7572D01*
X50510Y7632D01*
X50471Y7687D01*
X50429Y7738D01*
X50385Y7783D01*
X50342Y7822D01*
X50300Y7853D01*
X50259Y7877D01*
X50259Y7978D01*
X51537Y7978D01*
X51537Y7978D01*
X51386Y9199D02*
X51537Y9199D01*
X51537Y8358D01*
X51509Y8358D01*
X51481Y8362D01*
X51454Y8367D01*
X51428Y8376D01*
X51385Y8395D01*
X51343Y8418D01*
X51301Y8446D01*
X51259Y8479D01*
X51215Y8518D01*
X51169Y8565D01*
X51119Y8621D01*
X51066Y8683D01*
X50985Y8779D01*
X50914Y8857D01*
X50851Y8919D01*
X50796Y8964D01*
X50747Y8996D01*
X50700Y9019D01*
X50653Y9032D01*
X50609Y9037D01*
X50564Y9033D01*
X50523Y9020D01*
X50486Y8999D01*
X50452Y8970D01*
X50424Y8935D01*
X50404Y8894D01*
X50392Y8848D01*
X50388Y8797D01*
X50392Y8744D01*
X50405Y8696D01*
X50426Y8653D01*
X50456Y8617D01*
X50493Y8587D01*
X50536Y8566D01*
X50587Y8553D01*
X50643Y8548D01*
X50627Y8387D01*
X50542Y8401D01*
X50468Y8427D01*
X50405Y8463D01*
X50353Y8512D01*
X50312Y8570D01*
X50282Y8638D01*
X50265Y8715D01*
X50259Y8801D01*
X50265Y8887D01*
X50284Y8965D01*
X50316Y9032D01*
X50360Y9091D01*
X50414Y9137D01*
X50474Y9171D01*
X50540Y9191D01*
X50612Y9197D01*
X50650Y9195D01*
X50688Y9190D01*
X50725Y9180D01*
X50762Y9166D01*
X50800Y9148D01*
X50838Y9125D01*
X50877Y9096D01*
X50918Y9062D01*
X50962Y9020D01*
X51014Y8966D01*
X51074Y8900D01*
X51142Y8821D01*
X51196Y8757D01*
X51241Y8706D01*
X51276Y8667D01*
X51302Y8641D01*
X51323Y8622D01*
X51344Y8604D01*
X51365Y8589D01*
X51386Y8575D01*
X51386Y9199D01*
X51386Y9199D01*
X51537Y9794D02*
X50264Y9301D01*
X50264Y9483D01*
X51188Y9814D01*
X51243Y9833D01*
X51296Y9850D01*
X51347Y9866D01*
X51397Y9881D01*
X51345Y9896D01*
X51293Y9913D01*
X51241Y9930D01*
X51188Y9949D01*
X50264Y10293D01*
X50264Y10465D01*
X51537Y9967D01*
X51537Y9794D01*
X51537Y9794D01*
X48587Y7770D02*
X48573Y7934D01*
X48629Y7946D01*
X48678Y7964D01*
X48719Y7989D01*
X48753Y8019D01*
X48780Y8054D01*
X48799Y8092D01*
X48810Y8134D01*
X48814Y8179D01*
X48808Y8233D01*
X48792Y8283D01*
X48766Y8329D01*
X48729Y8370D01*
X48683Y8404D01*
X48630Y8428D01*
X48570Y8443D01*
X48503Y8448D01*
X48439Y8443D01*
X48383Y8429D01*
X48334Y8406D01*
X48292Y8373D01*
X48258Y8332D01*
X48234Y8286D01*
X48219Y8234D01*
X48215Y8176D01*
X48217Y8139D01*
X48223Y8104D01*
X48234Y8071D01*
X48249Y8040D01*
X48267Y8011D01*
X48288Y7986D01*
X48312Y7963D01*
X48338Y7944D01*
X48319Y7798D01*
X47665Y7921D01*
X47665Y8554D01*
X47814Y8554D01*
X47814Y8046D01*
X48156Y7977D01*
X48121Y8035D01*
X48097Y8095D01*
X48082Y8156D01*
X48077Y8218D01*
X48084Y8298D01*
X48105Y8372D01*
X48141Y8439D01*
X48192Y8499D01*
X48254Y8549D01*
X48324Y8585D01*
X48402Y8607D01*
X48489Y8614D01*
X48572Y8608D01*
X48650Y8589D01*
X48722Y8557D01*
X48788Y8513D01*
X48855Y8446D01*
X48903Y8368D01*
X48932Y8279D01*
X48942Y8179D01*
X48936Y8096D01*
X48918Y8021D01*
X48887Y7954D01*
X48845Y7895D01*
X48792Y7846D01*
X48732Y7809D01*
X48663Y7784D01*
X48587Y7770D01*
X48587Y7770D01*
X48920Y9186D02*
X47648Y8693D01*
X47648Y8875D01*
X48572Y9206D01*
X48627Y9225D01*
X48680Y9243D01*
X48731Y9259D01*
X48781Y9273D01*
X48729Y9288D01*
X48676Y9305D01*
X48624Y9322D01*
X48572Y9341D01*
X47648Y9685D01*
X47648Y9857D01*
X48920Y9359D01*
X48920Y9186D01*
X48920Y9186D01*
X5216Y7896D02*
X5066Y7896D01*
X5066Y8435D01*
X5538Y8435D01*
X5584Y8372D01*
X5625Y8309D01*
X5659Y8244D01*
X5687Y8179D01*
X5709Y8112D01*
X5724Y8045D01*
X5734Y7977D01*
X5737Y7908D01*
X5732Y7816D01*
X5717Y7729D01*
X5692Y7646D01*
X5656Y7567D01*
X5612Y7495D01*
X5558Y7432D01*
X5496Y7379D01*
X5424Y7336D01*
X5346Y7301D01*
X5263Y7277D01*
X5176Y7262D01*
X5085Y7257D01*
X4993Y7262D01*
X4905Y7277D01*
X4820Y7301D01*
X4738Y7335D01*
X4663Y7378D01*
X4598Y7430D01*
X4543Y7490D01*
X4499Y7559D01*
X4465Y7634D01*
X4440Y7716D01*
X4425Y7802D01*
X4421Y7895D01*
X4423Y7962D01*
X4432Y8026D01*
X4446Y8087D01*
X4465Y8144D01*
X4490Y8197D01*
X4519Y8244D01*
X4552Y8284D01*
X4590Y8319D01*
X4633Y8349D01*
X4682Y8375D01*
X4737Y8397D01*
X4798Y8416D01*
X4840Y8264D01*
X4794Y8248D01*
X4753Y8232D01*
X4717Y8213D01*
X4687Y8192D01*
X4661Y8169D01*
X4637Y8141D01*
X4616Y8108D01*
X4598Y8071D01*
X4583Y8030D01*
X4573Y7988D01*
X4567Y7943D01*
X4565Y7896D01*
X4567Y7840D01*
X4573Y7788D01*
X4584Y7740D01*
X4600Y7696D01*
X4619Y7656D01*
X4641Y7620D01*
X4665Y7588D01*
X4692Y7560D01*
X4722Y7536D01*
X4752Y7514D01*
X4785Y7495D01*
X4818Y7480D01*
X4878Y7458D01*
X4941Y7443D01*
X5007Y7434D01*
X5074Y7431D01*
X5156Y7435D01*
X5231Y7446D01*
X5298Y7464D01*
X5359Y7490D01*
X5413Y7522D01*
X5459Y7562D01*
X5498Y7608D01*
X5529Y7660D01*
X5554Y7717D01*
X5571Y7776D01*
X5581Y7836D01*
X5585Y7898D01*
X5582Y7953D01*
X5574Y8006D01*
X5561Y8059D01*
X5543Y8112D01*
X5521Y8161D01*
X5499Y8203D01*
X5476Y8240D01*
X5453Y8270D01*
X5216Y8270D01*
X5216Y7896D01*
X5216Y7896D01*
X5715Y8681D02*
X4442Y8681D01*
X4442Y8854D01*
X5442Y9523D01*
X4442Y9523D01*
X4442Y9684D01*
X5715Y9684D01*
X5715Y9511D01*
X4715Y8843D01*
X5715Y8843D01*
X5715Y8681D01*
X5715Y8681D01*
X5715Y9967D02*
X4442Y9967D01*
X4442Y10403D01*
X4592Y10403D01*
X4592Y10135D01*
X5565Y10135D01*
X5565Y10135D01*
X5565Y10407D01*
X5563Y10467D01*
X5559Y10520D01*
X5552Y10565D01*
X5541Y10605D01*
X5528Y10639D01*
X5513Y10669D01*
X5495Y10696D01*
X5475Y10719D01*
X5443Y10747D01*
X5405Y10772D01*
X5362Y10794D01*
X5314Y10812D01*
X5261Y10827D01*
X5202Y10837D01*
X5138Y10844D01*
X5069Y10846D01*
X4975Y10842D01*
X4893Y10829D01*
X4822Y10809D01*
X4762Y10780D01*
X4713Y10746D01*
X4673Y10707D01*
X4641Y10666D01*
X4619Y10621D01*
X4607Y10582D01*
X4599Y10532D01*
X4594Y10473D01*
X4592Y10403D01*
X4442Y10403D01*
X4442Y10405D01*
X4443Y10475D01*
X4447Y10536D01*
X4453Y10589D01*
X4461Y10632D01*
X4476Y10685D01*
X4496Y10733D01*
X4521Y10778D01*
X4552Y10819D01*
X4597Y10866D01*
X4649Y10907D01*
X4706Y10941D01*
X4769Y10969D01*
X4838Y10991D01*
X4911Y11007D01*
X4989Y11016D01*
X5072Y11019D01*
X5142Y11017D01*
X5208Y11011D01*
X5271Y11000D01*
X5329Y10985D01*
X5382Y10967D01*
X5431Y10947D01*
X5475Y10924D01*
X5514Y10899D01*
X5549Y10871D01*
X5580Y10843D01*
X5606Y10814D01*
X5629Y10783D01*
X5649Y10750D01*
X5666Y10713D01*
X5681Y10674D01*
X5693Y10631D01*
X5703Y10585D01*
X5710Y10535D01*
X5714Y10482D01*
X5715Y10426D01*
X5715Y9967D01*
X5715Y9967D01*
G37*
M02*