%FSLAX33Y33*%
%MOMM*%
%AMRect-W1600000-H1600000-RO0.500*
21,1,1.6,1.6,0.,0.,270*%
%AMRect-W2049999-H2049999-RO1.500*
21,1,2.049999,2.049999,0.,0.,90*%
%ADD10C,0.0508*%
%ADD11C,0.2032*%
%ADD12C,0.68834*%
%ADD13C,1.778*%
%ADD14C,1.6*%
%ADD15Rect-W1600000-H1600000-RO0.500*%
%ADD16C,2.049999*%
%ADD17Rect-W2049999-H2049999-RO1.500*%
D10*
%LNpour fill*%
G01*
X52908Y11403D02*
X52908Y11403D01*
X51565Y16775*
X50374Y21158*
X2965Y21158*
X0641Y13395*
X0432Y12663*
X0432Y0432*
X7188Y0432*
X7188Y11847*
X7203Y11862*
X28354Y11862*
X28366Y11854*
X29632Y9322*
X29848Y9322*
X29867Y9371*
X29729Y9493*
X29727Y9495*
X29592Y9692*
X29590Y9695*
X29505Y9918*
X29505Y9921*
X29476Y10158*
X29476Y10162*
X29505Y10399*
X29505Y10402*
X29590Y10625*
X29592Y10628*
X29727Y10825*
X29729Y10827*
X29908Y10986*
X29911Y10987*
X30122Y11098*
X30125Y11099*
X30357Y11157*
X30360Y11157*
X30600Y11157*
X30603Y11157*
X30835Y11099*
X30838Y11098*
X31049Y10987*
X31052Y10986*
X31231Y10827*
X31233Y10825*
X31368Y10628*
X31370Y10625*
X31430Y10466*
X32070Y10466*
X32130Y10625*
X32132Y10628*
X32267Y10825*
X32269Y10827*
X32448Y10986*
X32451Y10987*
X32662Y11098*
X32665Y11099*
X32714Y11112*
X32714Y14053*
X32488Y14132*
X32485Y14133*
X32255Y14278*
X32252Y14280*
X32060Y14472*
X32058Y14475*
X31913Y14705*
X31912Y14708*
X31822Y14965*
X31821Y14968*
X31791Y15239*
X31791Y15241*
X31821Y15512*
X31822Y15515*
X31912Y15772*
X31913Y15775*
X32058Y16005*
X32060Y16008*
X32252Y16200*
X32255Y16202*
X32485Y16347*
X32488Y16348*
X32714Y16427*
X32714Y16593*
X32488Y16672*
X32485Y16673*
X32255Y16818*
X32252Y16820*
X32060Y17012*
X32058Y17015*
X31913Y17245*
X31912Y17248*
X31822Y17505*
X31821Y17508*
X31791Y17779*
X31791Y17781*
X31821Y18052*
X31822Y18055*
X31912Y18312*
X31913Y18315*
X32058Y18545*
X32060Y18548*
X32252Y18740*
X32255Y18742*
X32485Y18887*
X32488Y18888*
X32745Y18978*
X32748Y18979*
X33019Y19009*
X33021Y19009*
X33292Y18979*
X33295Y18978*
X33552Y18888*
X33555Y18887*
X33785Y18742*
X33788Y18740*
X33980Y18548*
X33982Y18545*
X34127Y18315*
X34128Y18312*
X34218Y18055*
X34219Y18052*
X34249Y17781*
X34249Y17779*
X34219Y17508*
X34218Y17505*
X34128Y17248*
X34127Y17245*
X33982Y17015*
X33980Y17012*
X33788Y16820*
X33785Y16818*
X33555Y16673*
X33552Y16672*
X33326Y16593*
X33326Y16427*
X33552Y16348*
X33555Y16347*
X33785Y16202*
X33788Y16200*
X33980Y16008*
X33982Y16005*
X34127Y15775*
X34128Y15772*
X34218Y15515*
X34219Y15512*
X34249Y15241*
X34249Y15239*
X34219Y14968*
X34218Y14965*
X34128Y14708*
X34127Y14705*
X33982Y14475*
X33980Y14472*
X33788Y14280*
X33785Y14278*
X33555Y14133*
X33552Y14132*
X33326Y14053*
X33326Y11112*
X33375Y11099*
X33378Y11098*
X33589Y10987*
X33592Y10986*
X33771Y10827*
X33773Y10825*
X33908Y10628*
X33910Y10625*
X33995Y10402*
X33995Y10399*
X34024Y10162*
X34024Y10158*
X33995Y9921*
X33995Y9918*
X33910Y9695*
X33908Y9692*
X33773Y9495*
X33771Y9493*
X33633Y9371*
X33652Y9322*
X34928Y9322*
X34947Y9371*
X34809Y9493*
X34807Y9495*
X34672Y9692*
X34670Y9695*
X34585Y9918*
X34585Y9921*
X34556Y10158*
X34556Y10162*
X34585Y10399*
X34585Y10402*
X34670Y10625*
X34672Y10628*
X34807Y10825*
X34809Y10827*
X34988Y10986*
X34991Y10987*
X35202Y11098*
X35205Y11099*
X35254Y11112*
X35254Y14053*
X35028Y14132*
X35025Y14133*
X34795Y14278*
X34792Y14280*
X34600Y14472*
X34598Y14475*
X34453Y14705*
X34452Y14708*
X34362Y14965*
X34361Y14968*
X34331Y15239*
X34331Y15241*
X34361Y15512*
X34362Y15515*
X34452Y15772*
X34453Y15775*
X34598Y16005*
X34600Y16008*
X34792Y16200*
X34795Y16202*
X35025Y16347*
X35028Y16348*
X35254Y16427*
X35254Y16593*
X35028Y16672*
X35025Y16673*
X34795Y16818*
X34792Y16820*
X34600Y17012*
X34598Y17015*
X34453Y17245*
X34452Y17248*
X34362Y17505*
X34361Y17508*
X34331Y17779*
X34331Y17781*
X34361Y18052*
X34362Y18055*
X34452Y18312*
X34453Y18315*
X34598Y18545*
X34600Y18548*
X34792Y18740*
X34795Y18742*
X35025Y18887*
X35028Y18888*
X35285Y18978*
X35288Y18979*
X35559Y19009*
X35561Y19009*
X35832Y18979*
X35835Y18978*
X36092Y18888*
X36095Y18887*
X36325Y18742*
X36328Y18740*
X36520Y18548*
X36522Y18545*
X36667Y18315*
X36668Y18312*
X36758Y18055*
X36759Y18052*
X36789Y17781*
X36789Y17779*
X36759Y17508*
X36758Y17505*
X36668Y17248*
X36667Y17245*
X36522Y17015*
X36520Y17012*
X36328Y16820*
X36325Y16818*
X36095Y16673*
X36092Y16672*
X35866Y16593*
X35866Y16427*
X36092Y16348*
X36095Y16347*
X36325Y16202*
X36328Y16200*
X36520Y16008*
X36522Y16005*
X36667Y15775*
X36668Y15772*
X36758Y15515*
X36759Y15512*
X36789Y15241*
X36789Y15239*
X36759Y14968*
X36758Y14965*
X36668Y14708*
X36667Y14705*
X36522Y14475*
X36520Y14472*
X36328Y14280*
X36325Y14278*
X36095Y14133*
X36092Y14132*
X35866Y14053*
X35866Y11112*
X35915Y11099*
X35918Y11098*
X36129Y10987*
X36132Y10986*
X36311Y10827*
X36313Y10825*
X36448Y10628*
X36450Y10625*
X36510Y10466*
X37096Y10466*
X37096Y10961*
X37096Y10962*
X37098Y10991*
X37098Y10993*
X37105Y11022*
X37106Y11024*
X37118Y11052*
X37119Y11054*
X37134Y11079*
X37135Y11081*
X37155Y11104*
X37156Y11105*
X37179Y11125*
X37181Y11126*
X37206Y11141*
X37208Y11142*
X37236Y11154*
X37238Y11155*
X37267Y11162*
X37269Y11162*
X37299Y11164*
X37300Y11164*
X38900Y11164*
X38901Y11164*
X38931Y11162*
X38933Y11162*
X38962Y11155*
X38964Y11154*
X38992Y11142*
X38994Y11141*
X39019Y11126*
X39021Y11125*
X39044Y11105*
X39045Y11104*
X39065Y11081*
X39066Y11079*
X39081Y11054*
X39082Y11052*
X39094Y11024*
X39095Y11022*
X39102Y10993*
X39102Y10991*
X39104Y10961*
X39104Y10960*
X39104Y9766*
X39163Y9752*
X40214Y11854*
X40226Y11862*
X46137Y11862*
X46152Y11847*
X46152Y0432*
X52908Y0432*
X52908Y11403*
X30752Y16581D02*
X30752Y16581D01*
X30755Y16582*
X31012Y16672*
X31015Y16673*
X31245Y16818*
X31248Y16820*
X31440Y17012*
X31442Y17015*
X31587Y17245*
X31588Y17248*
X31678Y17505*
X31679Y17508*
X31709Y17779*
X31709Y17781*
X31679Y18052*
X31678Y18055*
X31588Y18312*
X31587Y18315*
X31442Y18545*
X31440Y18548*
X31248Y18740*
X31245Y18742*
X31015Y18887*
X31012Y18888*
X30755Y18978*
X30752Y18979*
X30481Y19009*
X30479Y19009*
X30208Y18979*
X30205Y18978*
X29948Y18888*
X29945Y18887*
X29715Y18742*
X29712Y18740*
X29520Y18548*
X29518Y18545*
X29373Y18315*
X29372Y18312*
X29282Y18055*
X29281Y18052*
X29251Y17781*
X29251Y17779*
X29281Y17508*
X29282Y17505*
X29372Y17248*
X29373Y17245*
X29518Y17015*
X29520Y17012*
X29712Y16820*
X29715Y16818*
X29945Y16673*
X29948Y16672*
X30205Y16582*
X30208Y16581*
X30479Y16551*
X30481Y16551*
X30752Y16581*
X28212Y16581D02*
X28212Y16581D01*
X28215Y16582*
X28472Y16672*
X28475Y16673*
X28705Y16818*
X28708Y16820*
X28900Y17012*
X28902Y17015*
X29047Y17245*
X29048Y17248*
X29138Y17505*
X29139Y17508*
X29169Y17779*
X29169Y17781*
X29139Y18052*
X29138Y18055*
X29048Y18312*
X29047Y18315*
X28902Y18545*
X28900Y18548*
X28708Y18740*
X28705Y18742*
X28475Y18887*
X28472Y18888*
X28215Y18978*
X28212Y18979*
X27941Y19009*
X27939Y19009*
X27668Y18979*
X27665Y18978*
X27408Y18888*
X27405Y18887*
X27175Y18742*
X27172Y18740*
X26980Y18548*
X26978Y18545*
X26833Y18315*
X26832Y18312*
X26742Y18055*
X26741Y18052*
X26711Y17781*
X26711Y17779*
X26741Y17508*
X26742Y17505*
X26832Y17248*
X26833Y17245*
X26978Y17015*
X26980Y17012*
X27172Y16820*
X27175Y16818*
X27405Y16673*
X27408Y16672*
X27665Y16582*
X27668Y16581*
X27939Y16551*
X27941Y16551*
X28212Y16581*
X18052Y16581D02*
X18052Y16581D01*
X18055Y16582*
X18312Y16672*
X18315Y16673*
X18545Y16818*
X18548Y16820*
X18740Y17012*
X18742Y17015*
X18887Y17245*
X18888Y17248*
X18978Y17505*
X18979Y17508*
X19009Y17779*
X19009Y17781*
X18979Y18052*
X18978Y18055*
X18888Y18312*
X18887Y18315*
X18742Y18545*
X18740Y18548*
X18548Y18740*
X18545Y18742*
X18315Y18887*
X18312Y18888*
X18055Y18978*
X18052Y18979*
X17781Y19009*
X17779Y19009*
X17508Y18979*
X17505Y18978*
X17248Y18888*
X17245Y18887*
X17015Y18742*
X17012Y18740*
X16820Y18548*
X16818Y18545*
X16673Y18315*
X16672Y18312*
X16582Y18055*
X16581Y18052*
X16551Y17781*
X16551Y17779*
X16581Y17508*
X16582Y17505*
X16672Y17248*
X16673Y17245*
X16818Y17015*
X16820Y17012*
X17012Y16820*
X17015Y16818*
X17245Y16673*
X17248Y16672*
X17505Y16582*
X17508Y16581*
X17779Y16551*
X17781Y16551*
X18052Y16581*
X20256Y16575D02*
X20256Y16575D01*
X20256Y16782*
X20384Y16782*
X20384Y16575*
X20400Y16560*
X20592Y16581*
X20595Y16582*
X20852Y16672*
X20855Y16673*
X21085Y16818*
X21088Y16820*
X21280Y17012*
X21282Y17015*
X21427Y17245*
X21428Y17248*
X21518Y17505*
X21519Y17508*
X21540Y17700*
X21525Y17716*
X21326Y17716*
X21326Y17843*
X21525Y17843*
X21540Y17860*
X21519Y18052*
X21518Y18055*
X21428Y18312*
X21427Y18315*
X21282Y18545*
X21280Y18548*
X21088Y18740*
X21085Y18742*
X20855Y18887*
X20852Y18888*
X20595Y18978*
X20592Y18979*
X20400Y19000*
X20384Y18985*
X20384Y18778*
X20256Y18778*
X20256Y18985*
X20240Y19000*
X20048Y18979*
X20045Y18978*
X19788Y18888*
X19785Y18887*
X19555Y18742*
X19552Y18740*
X19360Y18548*
X19358Y18545*
X19213Y18315*
X19212Y18312*
X19122Y18055*
X19121Y18052*
X19100Y17860*
X19115Y17843*
X19314Y17843*
X19314Y17716*
X19115Y17716*
X19100Y17700*
X19121Y17508*
X19122Y17505*
X19212Y17248*
X19213Y17245*
X19358Y17015*
X19360Y17012*
X19552Y16820*
X19555Y16818*
X19785Y16673*
X19788Y16672*
X20045Y16582*
X20048Y16581*
X20240Y16560*
X20256Y16575*
X22797Y16575D02*
X22797Y16575D01*
X22797Y16782*
X22924Y16782*
X22924Y16575*
X22940Y16560*
X23132Y16581*
X23135Y16582*
X23392Y16672*
X23395Y16673*
X23625Y16818*
X23628Y16820*
X23820Y17012*
X23822Y17015*
X23967Y17245*
X23968Y17248*
X24058Y17505*
X24059Y17508*
X24080Y17700*
X24065Y17716*
X23866Y17716*
X23866Y17843*
X24065Y17843*
X24080Y17860*
X24059Y18052*
X24058Y18055*
X23968Y18312*
X23967Y18315*
X23822Y18545*
X23820Y18548*
X23628Y18740*
X23625Y18742*
X23395Y18887*
X23392Y18888*
X23135Y18978*
X23132Y18979*
X22940Y19000*
X22924Y18985*
X22924Y18778*
X22797Y18778*
X22797Y18985*
X22780Y19000*
X22588Y18979*
X22585Y18978*
X22328Y18888*
X22325Y18887*
X22095Y18742*
X22092Y18740*
X21900Y18548*
X21898Y18545*
X21753Y18315*
X21752Y18312*
X21662Y18055*
X21661Y18052*
X21640Y17860*
X21655Y17843*
X21854Y17843*
X21854Y17716*
X21655Y17716*
X21640Y17700*
X21661Y17508*
X21662Y17505*
X21752Y17248*
X21753Y17245*
X21898Y17015*
X21900Y17012*
X22092Y16820*
X22095Y16818*
X22325Y16673*
X22328Y16672*
X22585Y16582*
X22588Y16581*
X22780Y16560*
X22797Y16575*
X25337Y16575D02*
X25337Y16575D01*
X25337Y16782*
X25463Y16782*
X25463Y16575*
X25480Y16560*
X25672Y16581*
X25675Y16582*
X25932Y16672*
X25935Y16673*
X26165Y16818*
X26168Y16820*
X26360Y17012*
X26362Y17015*
X26507Y17245*
X26508Y17248*
X26598Y17505*
X26599Y17508*
X26620Y17700*
X26605Y17716*
X26406Y17716*
X26406Y17843*
X26605Y17843*
X26620Y17860*
X26599Y18052*
X26598Y18055*
X26508Y18312*
X26507Y18315*
X26362Y18545*
X26360Y18548*
X26168Y18740*
X26165Y18742*
X25935Y18887*
X25932Y18888*
X25675Y18978*
X25672Y18979*
X25480Y19000*
X25463Y18985*
X25463Y18778*
X25337Y18778*
X25337Y18985*
X25320Y19000*
X25128Y18979*
X25125Y18978*
X24868Y18888*
X24865Y18887*
X24635Y18742*
X24632Y18740*
X24440Y18548*
X24438Y18545*
X24293Y18315*
X24292Y18312*
X24202Y18055*
X24201Y18052*
X24180Y17860*
X24195Y17843*
X24394Y17843*
X24394Y17716*
X24195Y17716*
X24180Y17700*
X24201Y17508*
X24202Y17505*
X24292Y17248*
X24293Y17245*
X24438Y17015*
X24440Y17012*
X24632Y16820*
X24635Y16818*
X24865Y16673*
X24868Y16672*
X25125Y16582*
X25128Y16581*
X25320Y16560*
X25337Y16575*
X18807Y14011D02*
X18807Y14011D01*
X18836Y14013*
X18838Y14013*
X18867Y14020*
X18869Y14021*
X18897Y14033*
X18899Y14034*
X18924Y14049*
X18926Y14050*
X18949Y14070*
X18950Y14071*
X18970Y14094*
X18971Y14096*
X18986Y14121*
X18987Y14123*
X18999Y14151*
X19000Y14153*
X19007Y14182*
X19007Y14184*
X19009Y14214*
X19009Y14215*
X19009Y16265*
X19009Y16266*
X19007Y16296*
X19007Y16298*
X19000Y16327*
X18999Y16329*
X18987Y16357*
X18986Y16359*
X18971Y16384*
X18970Y16386*
X18950Y16409*
X18949Y16410*
X18926Y16430*
X18924Y16431*
X18899Y16446*
X18897Y16447*
X18869Y16459*
X18867Y16460*
X18838Y16467*
X18836Y16467*
X18806Y16469*
X18805Y16469*
X16755Y16469*
X16754Y16469*
X16724Y16467*
X16722Y16467*
X16693Y16460*
X16691Y16459*
X16663Y16447*
X16661Y16446*
X16636Y16431*
X16634Y16430*
X16611Y16410*
X16610Y16409*
X16590Y16386*
X16589Y16384*
X16574Y16359*
X16573Y16357*
X16561Y16329*
X16560Y16327*
X16553Y16298*
X16553Y16296*
X16551Y16267*
X16551Y16266*
X16551Y14214*
X16551Y14213*
X16553Y14184*
X16553Y14182*
X16560Y14153*
X16561Y14151*
X16573Y14123*
X16574Y14121*
X16589Y14096*
X16590Y14094*
X16610Y14071*
X16611Y14070*
X16634Y14050*
X16636Y14049*
X16661Y14034*
X16663Y14033*
X16691Y14021*
X16693Y14020*
X16722Y14013*
X16724Y14013*
X16753Y14011*
X16754Y14011*
X18806Y14011*
X18807Y14011*
X30752Y14041D02*
X30752Y14041D01*
X30755Y14042*
X31012Y14132*
X31015Y14133*
X31245Y14278*
X31248Y14280*
X31440Y14472*
X31442Y14475*
X31587Y14705*
X31588Y14708*
X31678Y14965*
X31679Y14968*
X31709Y15239*
X31709Y15241*
X31679Y15512*
X31678Y15515*
X31588Y15772*
X31587Y15775*
X31442Y16005*
X31440Y16008*
X31248Y16200*
X31245Y16202*
X31015Y16347*
X31012Y16348*
X30755Y16438*
X30752Y16439*
X30481Y16469*
X30479Y16469*
X30208Y16439*
X30205Y16438*
X29948Y16348*
X29945Y16347*
X29715Y16202*
X29712Y16200*
X29520Y16008*
X29518Y16005*
X29373Y15775*
X29372Y15772*
X29282Y15515*
X29281Y15512*
X29251Y15241*
X29251Y15239*
X29281Y14968*
X29282Y14965*
X29372Y14708*
X29373Y14705*
X29518Y14475*
X29520Y14472*
X29712Y14280*
X29715Y14278*
X29945Y14133*
X29948Y14132*
X30205Y14042*
X30208Y14041*
X30479Y14011*
X30481Y14011*
X30752Y14041*
X28212Y14041D02*
X28212Y14041D01*
X28215Y14042*
X28472Y14132*
X28475Y14133*
X28705Y14278*
X28708Y14280*
X28900Y14472*
X28902Y14475*
X29047Y14705*
X29048Y14708*
X29138Y14965*
X29139Y14968*
X29169Y15239*
X29169Y15241*
X29139Y15512*
X29138Y15515*
X29048Y15772*
X29047Y15775*
X28902Y16005*
X28900Y16008*
X28708Y16200*
X28705Y16202*
X28475Y16347*
X28472Y16348*
X28215Y16438*
X28212Y16439*
X27941Y16469*
X27939Y16469*
X27668Y16439*
X27665Y16438*
X27408Y16348*
X27405Y16347*
X27175Y16202*
X27172Y16200*
X26980Y16008*
X26978Y16005*
X26833Y15775*
X26832Y15772*
X26742Y15515*
X26741Y15512*
X26711Y15241*
X26711Y15239*
X26741Y14968*
X26742Y14965*
X26832Y14708*
X26833Y14705*
X26978Y14475*
X26980Y14472*
X27172Y14280*
X27175Y14278*
X27405Y14133*
X27408Y14132*
X27665Y14042*
X27668Y14041*
X27939Y14011*
X27941Y14011*
X28212Y14041*
X20256Y14035D02*
X20256Y14035D01*
X20256Y14242*
X20384Y14242*
X20384Y14035*
X20400Y14020*
X20592Y14041*
X20595Y14042*
X20852Y14132*
X20855Y14133*
X21085Y14278*
X21088Y14280*
X21280Y14472*
X21282Y14475*
X21427Y14705*
X21428Y14708*
X21518Y14965*
X21519Y14968*
X21540Y15160*
X21525Y15177*
X21326Y15177*
X21326Y15303*
X21525Y15303*
X21540Y15320*
X21519Y15512*
X21518Y15515*
X21428Y15772*
X21427Y15775*
X21282Y16005*
X21280Y16008*
X21088Y16200*
X21085Y16202*
X20855Y16347*
X20852Y16348*
X20595Y16438*
X20592Y16439*
X20400Y16460*
X20384Y16445*
X20384Y16238*
X20256Y16238*
X20256Y16445*
X20240Y16460*
X20048Y16439*
X20045Y16438*
X19788Y16348*
X19785Y16347*
X19555Y16202*
X19552Y16200*
X19360Y16008*
X19358Y16005*
X19213Y15775*
X19212Y15772*
X19122Y15515*
X19121Y15512*
X19100Y15320*
X19115Y15303*
X19314Y15303*
X19314Y15177*
X19115Y15177*
X19100Y15160*
X19121Y14968*
X19122Y14965*
X19212Y14708*
X19213Y14705*
X19358Y14475*
X19360Y14472*
X19552Y14280*
X19555Y14278*
X19785Y14133*
X19788Y14132*
X20045Y14042*
X20048Y14041*
X20240Y14020*
X20256Y14035*
X22797Y14035D02*
X22797Y14035D01*
X22797Y14242*
X22924Y14242*
X22924Y14035*
X22940Y14020*
X23132Y14041*
X23135Y14042*
X23392Y14132*
X23395Y14133*
X23625Y14278*
X23628Y14280*
X23820Y14472*
X23822Y14475*
X23967Y14705*
X23968Y14708*
X24058Y14965*
X24059Y14968*
X24080Y15160*
X24065Y15177*
X23866Y15177*
X23866Y15303*
X24065Y15303*
X24080Y15320*
X24059Y15512*
X24058Y15515*
X23968Y15772*
X23967Y15775*
X23822Y16005*
X23820Y16008*
X23628Y16200*
X23625Y16202*
X23395Y16347*
X23392Y16348*
X23135Y16438*
X23132Y16439*
X22940Y16460*
X22924Y16445*
X22924Y16238*
X22797Y16238*
X22797Y16445*
X22780Y16460*
X22588Y16439*
X22585Y16438*
X22328Y16348*
X22325Y16347*
X22095Y16202*
X22092Y16200*
X21900Y16008*
X21898Y16005*
X21753Y15775*
X21752Y15772*
X21662Y15515*
X21661Y15512*
X21640Y15320*
X21655Y15303*
X21854Y15303*
X21854Y15177*
X21655Y15177*
X21640Y15160*
X21661Y14968*
X21662Y14965*
X21752Y14708*
X21753Y14705*
X21898Y14475*
X21900Y14472*
X22092Y14280*
X22095Y14278*
X22325Y14133*
X22328Y14132*
X22585Y14042*
X22588Y14041*
X22780Y14020*
X22797Y14035*
X25337Y14035D02*
X25337Y14035D01*
X25337Y14242*
X25463Y14242*
X25463Y14035*
X25480Y14020*
X25672Y14041*
X25675Y14042*
X25932Y14132*
X25935Y14133*
X26165Y14278*
X26168Y14280*
X26360Y14472*
X26362Y14475*
X26507Y14705*
X26508Y14708*
X26598Y14965*
X26599Y14968*
X26620Y15160*
X26605Y15177*
X26406Y15177*
X26406Y15303*
X26605Y15303*
X26620Y15320*
X26599Y15512*
X26598Y15515*
X26508Y15772*
X26507Y15775*
X26362Y16005*
X26360Y16008*
X26168Y16200*
X26165Y16202*
X25935Y16347*
X25932Y16348*
X25675Y16438*
X25672Y16439*
X25480Y16460*
X25463Y16445*
X25463Y16238*
X25337Y16238*
X25337Y16445*
X25320Y16460*
X25128Y16439*
X25125Y16438*
X24868Y16348*
X24865Y16347*
X24635Y16202*
X24632Y16200*
X24440Y16008*
X24438Y16005*
X24293Y15775*
X24292Y15772*
X24202Y15515*
X24201Y15512*
X24180Y15320*
X24195Y15303*
X24394Y15303*
X24394Y15177*
X24195Y15177*
X24180Y15160*
X24201Y14968*
X24202Y14965*
X24292Y14708*
X24293Y14705*
X24438Y14475*
X24440Y14472*
X24632Y14280*
X24635Y14278*
X24865Y14133*
X24868Y14132*
X25125Y14042*
X25128Y14041*
X25320Y14020*
X25337Y14035*
X2673Y3995D02*
X2673Y3995D01*
X2926Y4057*
X2929Y4058*
X3160Y4179*
X3162Y4181*
X3357Y4354*
X3359Y4356*
X3507Y4571*
X3509Y4573*
X3601Y4817*
X3602Y4820*
X3633Y5078*
X3633Y5082*
X3602Y5340*
X3601Y5343*
X3509Y5587*
X3507Y5589*
X3359Y5804*
X3357Y5806*
X3162Y5979*
X3160Y5981*
X2929Y6102*
X2926Y6103*
X2673Y6165*
X2670Y6165*
X2410Y6165*
X2407Y6165*
X2154Y6103*
X2151Y6102*
X1920Y5981*
X1918Y5979*
X1723Y5806*
X1721Y5804*
X1573Y5589*
X1571Y5587*
X1479Y5343*
X1478Y5340*
X1447Y5082*
X1447Y5078*
X1478Y4820*
X1479Y4817*
X1571Y4573*
X1573Y4571*
X1721Y4356*
X1723Y4354*
X1918Y4181*
X1920Y4179*
X2151Y4058*
X2154Y4057*
X2407Y3995*
X2410Y3995*
X2670Y3995*
X2673Y3995*
X5016Y4009D02*
X5016Y4009D01*
X5016Y4217*
X5144Y4217*
X5144Y4009*
X5158Y3995*
X5210Y3995*
X5213Y3995*
X5466Y4057*
X5469Y4058*
X5700Y4179*
X5702Y4181*
X5897Y4354*
X5899Y4356*
X6047Y4571*
X6049Y4573*
X6141Y4817*
X6142Y4820*
X6164Y4999*
X6148Y5016*
X5950Y5016*
X5950Y5144*
X6148Y5144*
X6164Y5161*
X6142Y5340*
X6141Y5343*
X6049Y5587*
X6047Y5589*
X5899Y5804*
X5897Y5806*
X5702Y5979*
X5700Y5981*
X5469Y6102*
X5466Y6103*
X5213Y6165*
X5210Y6165*
X5158Y6165*
X5144Y6151*
X5144Y5943*
X5016Y5943*
X5016Y6151*
X5002Y6165*
X4950Y6165*
X4947Y6165*
X4694Y6103*
X4691Y6102*
X4460Y5981*
X4458Y5979*
X4263Y5806*
X4261Y5804*
X4113Y5589*
X4111Y5587*
X4019Y5343*
X4018Y5340*
X3987Y5082*
X3987Y5078*
X4018Y4820*
X4019Y4817*
X4111Y4573*
X4113Y4571*
X4261Y4356*
X4263Y4354*
X4458Y4181*
X4460Y4179*
X4691Y4058*
X4694Y4057*
X4947Y3995*
X4950Y3995*
X5002Y3995*
X5016Y4009*
X48393Y3995D02*
X48393Y3995D01*
X48646Y4057*
X48649Y4058*
X48880Y4179*
X48882Y4181*
X49077Y4354*
X49079Y4356*
X49227Y4571*
X49229Y4573*
X49321Y4817*
X49322Y4820*
X49353Y5078*
X49353Y5082*
X49322Y5340*
X49321Y5343*
X49229Y5587*
X49227Y5589*
X49079Y5804*
X49077Y5806*
X48882Y5979*
X48880Y5981*
X48649Y6102*
X48646Y6103*
X48393Y6165*
X48390Y6165*
X48130Y6165*
X48127Y6165*
X47874Y6103*
X47871Y6102*
X47640Y5981*
X47638Y5979*
X47443Y5806*
X47441Y5804*
X47293Y5589*
X47291Y5587*
X47199Y5343*
X47198Y5340*
X47167Y5082*
X47167Y5078*
X47198Y4820*
X47199Y4817*
X47291Y4573*
X47293Y4571*
X47441Y4356*
X47443Y4354*
X47638Y4181*
X47640Y4179*
X47871Y4058*
X47874Y4057*
X48127Y3995*
X48130Y3995*
X48390Y3995*
X48393Y3995*
X50933Y3995D02*
X50933Y3995D01*
X51186Y4057*
X51189Y4058*
X51420Y4179*
X51422Y4181*
X51617Y4354*
X51619Y4356*
X51767Y4571*
X51769Y4573*
X51861Y4817*
X51862Y4820*
X51893Y5078*
X51893Y5082*
X51862Y5340*
X51861Y5343*
X51769Y5587*
X51767Y5589*
X51619Y5804*
X51617Y5806*
X51422Y5979*
X51420Y5981*
X51189Y6102*
X51186Y6103*
X50933Y6165*
X50930Y6165*
X50670Y6165*
X50667Y6165*
X50414Y6103*
X50411Y6102*
X50180Y5981*
X50178Y5979*
X49983Y5806*
X49981Y5804*
X49833Y5589*
X49831Y5587*
X49739Y5343*
X49738Y5340*
X49707Y5082*
X49707Y5078*
X49738Y4820*
X49739Y4817*
X49831Y4573*
X49833Y4571*
X49981Y4356*
X49983Y4354*
X50178Y4181*
X50180Y4179*
X50411Y4058*
X50414Y4057*
X50667Y3995*
X50670Y3995*
X50930Y3995*
X50933Y3995*
X2673Y1455D02*
X2673Y1455D01*
X2926Y1517*
X2929Y1518*
X3160Y1639*
X3162Y1641*
X3357Y1814*
X3359Y1816*
X3507Y2031*
X3509Y2033*
X3601Y2277*
X3602Y2280*
X3633Y2538*
X3633Y2542*
X3602Y2800*
X3601Y2803*
X3509Y3047*
X3507Y3049*
X3359Y3264*
X3357Y3266*
X3162Y3439*
X3160Y3441*
X2929Y3562*
X2926Y3563*
X2673Y3625*
X2670Y3625*
X2410Y3625*
X2407Y3625*
X2154Y3563*
X2151Y3562*
X1920Y3441*
X1918Y3439*
X1723Y3266*
X1721Y3264*
X1573Y3049*
X1571Y3047*
X1479Y2803*
X1478Y2800*
X1447Y2542*
X1447Y2538*
X1478Y2280*
X1479Y2277*
X1571Y2033*
X1573Y2031*
X1721Y1816*
X1723Y1814*
X1918Y1641*
X1920Y1639*
X2151Y1518*
X2154Y1517*
X2407Y1455*
X2410Y1455*
X2670Y1455*
X2673Y1455*
X5016Y1469D02*
X5016Y1469D01*
X5016Y1677*
X5144Y1677*
X5144Y1469*
X5158Y1455*
X5210Y1455*
X5213Y1455*
X5466Y1517*
X5469Y1518*
X5700Y1639*
X5702Y1641*
X5897Y1814*
X5899Y1816*
X6047Y2031*
X6049Y2033*
X6141Y2277*
X6142Y2280*
X6164Y2459*
X6148Y2477*
X5950Y2477*
X5950Y2603*
X6148Y2603*
X6164Y2621*
X6142Y2800*
X6141Y2803*
X6049Y3047*
X6047Y3049*
X5899Y3264*
X5897Y3266*
X5702Y3439*
X5700Y3441*
X5469Y3562*
X5466Y3563*
X5213Y3625*
X5210Y3625*
X5158Y3625*
X5144Y3611*
X5144Y3403*
X5016Y3403*
X5016Y3611*
X5002Y3625*
X4950Y3625*
X4947Y3625*
X4694Y3563*
X4691Y3562*
X4460Y3441*
X4458Y3439*
X4263Y3266*
X4261Y3264*
X4113Y3049*
X4111Y3047*
X4019Y2803*
X4018Y2800*
X3987Y2542*
X3987Y2538*
X4018Y2280*
X4019Y2277*
X4111Y2033*
X4113Y2031*
X4261Y1816*
X4263Y1814*
X4458Y1641*
X4460Y1639*
X4691Y1518*
X4694Y1517*
X4947Y1455*
X4950Y1455*
X5002Y1455*
X5016Y1469*
X48393Y1455D02*
X48393Y1455D01*
X48646Y1517*
X48649Y1518*
X48880Y1639*
X48882Y1641*
X49077Y1814*
X49079Y1816*
X49227Y2031*
X49229Y2033*
X49321Y2277*
X49322Y2280*
X49353Y2538*
X49353Y2542*
X49322Y2800*
X49321Y2803*
X49229Y3047*
X49227Y3049*
X49079Y3264*
X49077Y3266*
X48882Y3439*
X48880Y3441*
X48649Y3562*
X48646Y3563*
X48393Y3625*
X48390Y3625*
X48130Y3625*
X48127Y3625*
X47874Y3563*
X47871Y3562*
X47640Y3441*
X47638Y3439*
X47443Y3266*
X47441Y3264*
X47293Y3049*
X47291Y3047*
X47199Y2803*
X47198Y2800*
X47167Y2542*
X47167Y2538*
X47198Y2280*
X47199Y2277*
X47291Y2033*
X47293Y2031*
X47441Y1816*
X47443Y1814*
X47638Y1641*
X47640Y1639*
X47871Y1518*
X47874Y1517*
X48127Y1455*
X48130Y1455*
X48390Y1455*
X48393Y1455*
X50933Y1455D02*
X50933Y1455D01*
X51186Y1517*
X51189Y1518*
X51420Y1639*
X51422Y1641*
X51617Y1814*
X51619Y1816*
X51767Y2031*
X51769Y2033*
X51861Y2277*
X51862Y2280*
X51893Y2538*
X51893Y2542*
X51862Y2800*
X51861Y2803*
X51769Y3047*
X51767Y3049*
X51619Y3264*
X51617Y3266*
X51422Y3439*
X51420Y3441*
X51189Y3562*
X51186Y3563*
X50933Y3625*
X50930Y3625*
X50670Y3625*
X50667Y3625*
X50414Y3563*
X50411Y3562*
X50180Y3441*
X50178Y3439*
X49983Y3266*
X49981Y3264*
X49833Y3049*
X49831Y3047*
X49739Y2803*
X49738Y2800*
X49707Y2542*
X49707Y2538*
X49738Y2280*
X49739Y2277*
X49831Y2033*
X49833Y2031*
X49981Y1816*
X49983Y1814*
X50178Y1641*
X50180Y1639*
X50411Y1518*
X50414Y1517*
X50667Y1455*
X50670Y1455*
X50930Y1455*
X50933Y1455*
X0432Y0456D02*
X7188Y0456D01*
X46152Y0456D02*
X52908Y0456D01*
X0432Y0505D02*
X7188Y0505D01*
X46152Y0505D02*
X52908Y0505D01*
X0432Y0555D02*
X7188Y0555D01*
X46152Y0555D02*
X52908Y0555D01*
X0432Y0605D02*
X7188Y0605D01*
X46152Y0605D02*
X52908Y0605D01*
X0432Y0654D02*
X7188Y0654D01*
X46152Y0654D02*
X52908Y0654D01*
X0432Y0704D02*
X7188Y0704D01*
X46152Y0704D02*
X52908Y0704D01*
X0432Y0753D02*
X7188Y0753D01*
X46152Y0753D02*
X52908Y0753D01*
X0432Y0803D02*
X7188Y0803D01*
X46152Y0803D02*
X52908Y0803D01*
X0432Y0852D02*
X7188Y0852D01*
X46152Y0852D02*
X52908Y0852D01*
X0432Y0902D02*
X7188Y0902D01*
X46152Y0902D02*
X52908Y0902D01*
X0432Y0951D02*
X7188Y0951D01*
X46152Y0951D02*
X52908Y0951D01*
X0432Y1001D02*
X7188Y1001D01*
X46152Y1001D02*
X52908Y1001D01*
X0432Y1050D02*
X7188Y1050D01*
X46152Y1050D02*
X52908Y1050D01*
X0432Y1100D02*
X7188Y1100D01*
X46152Y1100D02*
X52908Y1100D01*
X0432Y1149D02*
X7188Y1149D01*
X46152Y1149D02*
X52908Y1149D01*
X0432Y1199D02*
X7188Y1199D01*
X46152Y1199D02*
X52908Y1199D01*
X0432Y1248D02*
X7188Y1248D01*
X46152Y1248D02*
X52908Y1248D01*
X0432Y1298D02*
X7188Y1298D01*
X46152Y1298D02*
X52908Y1298D01*
X0432Y1347D02*
X7188Y1347D01*
X46152Y1347D02*
X52908Y1347D01*
X0432Y1397D02*
X7188Y1397D01*
X46152Y1397D02*
X52908Y1397D01*
X0432Y1447D02*
X7188Y1447D01*
X46152Y1447D02*
X52908Y1447D01*
X0432Y1496D02*
X2240Y1496D01*
X2840Y1496D02*
X4780Y1496D01*
X5016Y1496D02*
X5144Y1496D01*
X5380Y1496D02*
X7188Y1496D01*
X46152Y1496D02*
X47960Y1496D01*
X48560Y1496D02*
X50500Y1496D01*
X51100Y1496D02*
X52908Y1496D01*
X0432Y1546D02*
X2099Y1546D01*
X2981Y1546D02*
X4639Y1546D01*
X5016Y1546D02*
X5144Y1546D01*
X5521Y1546D02*
X7188Y1546D01*
X46152Y1546D02*
X47819Y1546D01*
X48701Y1546D02*
X50359Y1546D01*
X51241Y1546D02*
X52908Y1546D01*
X0432Y1595D02*
X2005Y1595D01*
X3075Y1595D02*
X4545Y1595D01*
X5016Y1595D02*
X5144Y1595D01*
X5615Y1595D02*
X7188Y1595D01*
X46152Y1595D02*
X47725Y1595D01*
X48795Y1595D02*
X50265Y1595D01*
X51335Y1595D02*
X52908Y1595D01*
X0432Y1645D02*
X1914Y1645D01*
X3166Y1645D02*
X4454Y1645D01*
X5016Y1645D02*
X5144Y1645D01*
X5706Y1645D02*
X7188Y1645D01*
X46152Y1645D02*
X47634Y1645D01*
X48886Y1645D02*
X50174Y1645D01*
X51426Y1645D02*
X52908Y1645D01*
X0432Y1694D02*
X1858Y1694D01*
X3222Y1694D02*
X4398Y1694D01*
X5762Y1694D02*
X7188Y1694D01*
X46152Y1694D02*
X47578Y1694D01*
X48942Y1694D02*
X50118Y1694D01*
X51482Y1694D02*
X52908Y1694D01*
X0432Y1744D02*
X1802Y1744D01*
X3278Y1744D02*
X4342Y1744D01*
X5818Y1744D02*
X7188Y1744D01*
X46152Y1744D02*
X47522Y1744D01*
X48998Y1744D02*
X50062Y1744D01*
X51538Y1744D02*
X52908Y1744D01*
X0432Y1793D02*
X1746Y1793D01*
X3334Y1793D02*
X4286Y1793D01*
X5874Y1793D02*
X7188Y1793D01*
X46152Y1793D02*
X47466Y1793D01*
X49054Y1793D02*
X50006Y1793D01*
X51594Y1793D02*
X52908Y1793D01*
X0432Y1843D02*
X1702Y1843D01*
X3378Y1843D02*
X4242Y1843D01*
X5918Y1843D02*
X7188Y1843D01*
X46152Y1843D02*
X47422Y1843D01*
X49098Y1843D02*
X49962Y1843D01*
X51638Y1843D02*
X52908Y1843D01*
X0432Y1892D02*
X1668Y1892D01*
X3412Y1892D02*
X4208Y1892D01*
X5952Y1892D02*
X7188Y1892D01*
X46152Y1892D02*
X47388Y1892D01*
X49132Y1892D02*
X49928Y1892D01*
X51672Y1892D02*
X52908Y1892D01*
X0432Y1942D02*
X1634Y1942D01*
X3446Y1942D02*
X4174Y1942D01*
X5986Y1942D02*
X7188Y1942D01*
X46152Y1942D02*
X47354Y1942D01*
X49166Y1942D02*
X49894Y1942D01*
X51706Y1942D02*
X52908Y1942D01*
X0432Y1991D02*
X1600Y1991D01*
X3480Y1991D02*
X4140Y1991D01*
X6020Y1991D02*
X7188Y1991D01*
X46152Y1991D02*
X47320Y1991D01*
X49200Y1991D02*
X49860Y1991D01*
X51740Y1991D02*
X52908Y1991D01*
X0432Y2041D02*
X1568Y2041D01*
X3512Y2041D02*
X4108Y2041D01*
X6052Y2041D02*
X7188Y2041D01*
X46152Y2041D02*
X47288Y2041D01*
X49232Y2041D02*
X49828Y2041D01*
X51772Y2041D02*
X52908Y2041D01*
X0432Y2090D02*
X1550Y2090D01*
X3530Y2090D02*
X4090Y2090D01*
X6070Y2090D02*
X7188Y2090D01*
X46152Y2090D02*
X47270Y2090D01*
X49250Y2090D02*
X49810Y2090D01*
X51790Y2090D02*
X52908Y2090D01*
X0432Y2140D02*
X1531Y2140D01*
X3549Y2140D02*
X4071Y2140D01*
X6089Y2140D02*
X7188Y2140D01*
X46152Y2140D02*
X47251Y2140D01*
X49269Y2140D02*
X49791Y2140D01*
X51809Y2140D02*
X52908Y2140D01*
X0432Y2189D02*
X1512Y2189D01*
X3568Y2189D02*
X4052Y2189D01*
X6108Y2189D02*
X7188Y2189D01*
X46152Y2189D02*
X47232Y2189D01*
X49288Y2189D02*
X49772Y2189D01*
X51828Y2189D02*
X52908Y2189D01*
X0432Y2239D02*
X1493Y2239D01*
X3587Y2239D02*
X4033Y2239D01*
X6127Y2239D02*
X7188Y2239D01*
X46152Y2239D02*
X47213Y2239D01*
X49307Y2239D02*
X49753Y2239D01*
X51847Y2239D02*
X52908Y2239D01*
X0432Y2289D02*
X1477Y2289D01*
X3603Y2289D02*
X4017Y2289D01*
X6143Y2289D02*
X7188Y2289D01*
X46152Y2289D02*
X47197Y2289D01*
X49323Y2289D02*
X49737Y2289D01*
X51863Y2289D02*
X52908Y2289D01*
X0432Y2338D02*
X1471Y2338D01*
X3609Y2338D02*
X4011Y2338D01*
X6149Y2338D02*
X7188Y2338D01*
X46152Y2338D02*
X47191Y2338D01*
X49329Y2338D02*
X49731Y2338D01*
X51869Y2338D02*
X52908Y2338D01*
X0432Y2388D02*
X1465Y2388D01*
X3615Y2388D02*
X4005Y2388D01*
X6155Y2388D02*
X7188Y2388D01*
X46152Y2388D02*
X47185Y2388D01*
X49335Y2388D02*
X49725Y2388D01*
X51875Y2388D02*
X52908Y2388D01*
X0432Y2437D02*
X1459Y2437D01*
X3621Y2437D02*
X3999Y2437D01*
X6161Y2437D02*
X7188Y2437D01*
X46152Y2437D02*
X47179Y2437D01*
X49341Y2437D02*
X49719Y2437D01*
X51881Y2437D02*
X52908Y2437D01*
X0432Y2487D02*
X1453Y2487D01*
X3627Y2487D02*
X3993Y2487D01*
X5950Y2487D02*
X7188Y2487D01*
X46152Y2487D02*
X47173Y2487D01*
X49347Y2487D02*
X49713Y2487D01*
X51887Y2487D02*
X52908Y2487D01*
X0432Y2536D02*
X1447Y2536D01*
X3633Y2536D02*
X3987Y2536D01*
X5950Y2536D02*
X7188Y2536D01*
X46152Y2536D02*
X47167Y2536D01*
X49353Y2536D02*
X49707Y2536D01*
X51893Y2536D02*
X52908Y2536D01*
X0432Y2586D02*
X1452Y2586D01*
X3628Y2586D02*
X3992Y2586D01*
X5950Y2586D02*
X7188Y2586D01*
X46152Y2586D02*
X47172Y2586D01*
X49348Y2586D02*
X49712Y2586D01*
X51888Y2586D02*
X52908Y2586D01*
X0432Y2635D02*
X1458Y2635D01*
X3622Y2635D02*
X3998Y2635D01*
X6162Y2635D02*
X7188Y2635D01*
X46152Y2635D02*
X47178Y2635D01*
X49342Y2635D02*
X49718Y2635D01*
X51882Y2635D02*
X52908Y2635D01*
X0432Y2685D02*
X1464Y2685D01*
X3616Y2685D02*
X4004Y2685D01*
X6156Y2685D02*
X7188Y2685D01*
X46152Y2685D02*
X47184Y2685D01*
X49336Y2685D02*
X49724Y2685D01*
X51876Y2685D02*
X52908Y2685D01*
X0432Y2734D02*
X1470Y2734D01*
X3610Y2734D02*
X4010Y2734D01*
X6150Y2734D02*
X7188Y2734D01*
X46152Y2734D02*
X47190Y2734D01*
X49330Y2734D02*
X49730Y2734D01*
X51870Y2734D02*
X52908Y2734D01*
X0432Y2784D02*
X1476Y2784D01*
X3604Y2784D02*
X4016Y2784D01*
X6144Y2784D02*
X7188Y2784D01*
X46152Y2784D02*
X47196Y2784D01*
X49324Y2784D02*
X49736Y2784D01*
X51864Y2784D02*
X52908Y2784D01*
X0432Y2833D02*
X1490Y2833D01*
X3590Y2833D02*
X4030Y2833D01*
X6130Y2833D02*
X7188Y2833D01*
X46152Y2833D02*
X47210Y2833D01*
X49310Y2833D02*
X49750Y2833D01*
X51850Y2833D02*
X52908Y2833D01*
X0432Y2883D02*
X1509Y2883D01*
X3571Y2883D02*
X4049Y2883D01*
X6111Y2883D02*
X7188Y2883D01*
X46152Y2883D02*
X47229Y2883D01*
X49291Y2883D02*
X49769Y2883D01*
X51831Y2883D02*
X52908Y2883D01*
X0432Y2932D02*
X1528Y2932D01*
X3552Y2932D02*
X4068Y2932D01*
X6092Y2932D02*
X7188Y2932D01*
X46152Y2932D02*
X47248Y2932D01*
X49272Y2932D02*
X49788Y2932D01*
X51812Y2932D02*
X52908Y2932D01*
X0432Y2982D02*
X1547Y2982D01*
X3533Y2982D02*
X4087Y2982D01*
X6073Y2982D02*
X7188Y2982D01*
X46152Y2982D02*
X47267Y2982D01*
X49253Y2982D02*
X49807Y2982D01*
X51793Y2982D02*
X52908Y2982D01*
X0432Y3031D02*
X1566Y3031D01*
X3514Y3031D02*
X4106Y3031D01*
X6054Y3031D02*
X7188Y3031D01*
X46152Y3031D02*
X47286Y3031D01*
X49234Y3031D02*
X49826Y3031D01*
X51774Y3031D02*
X52908Y3031D01*
X0432Y3081D02*
X1595Y3081D01*
X3485Y3081D02*
X4135Y3081D01*
X6025Y3081D02*
X7188Y3081D01*
X46152Y3081D02*
X47315Y3081D01*
X49205Y3081D02*
X49855Y3081D01*
X51745Y3081D02*
X52908Y3081D01*
X0432Y3131D02*
X1629Y3131D01*
X3451Y3131D02*
X4169Y3131D01*
X5991Y3131D02*
X7188Y3131D01*
X46152Y3131D02*
X47349Y3131D01*
X49171Y3131D02*
X49889Y3131D01*
X51711Y3131D02*
X52908Y3131D01*
X0432Y3180D02*
X1663Y3180D01*
X3417Y3180D02*
X4203Y3180D01*
X5957Y3180D02*
X7188Y3180D01*
X46152Y3180D02*
X47383Y3180D01*
X49137Y3180D02*
X49923Y3180D01*
X51677Y3180D02*
X52908Y3180D01*
X0432Y3230D02*
X1697Y3230D01*
X3383Y3230D02*
X4237Y3230D01*
X5923Y3230D02*
X7188Y3230D01*
X46152Y3230D02*
X47417Y3230D01*
X49103Y3230D02*
X49957Y3230D01*
X51643Y3230D02*
X52908Y3230D01*
X0432Y3279D02*
X1737Y3279D01*
X3343Y3279D02*
X4277Y3279D01*
X5883Y3279D02*
X7188Y3279D01*
X46152Y3279D02*
X47457Y3279D01*
X49063Y3279D02*
X49997Y3279D01*
X51603Y3279D02*
X52908Y3279D01*
X0432Y3329D02*
X1793Y3329D01*
X3287Y3329D02*
X4333Y3329D01*
X5827Y3329D02*
X7188Y3329D01*
X46152Y3329D02*
X47513Y3329D01*
X49007Y3329D02*
X50053Y3329D01*
X51547Y3329D02*
X52908Y3329D01*
X0432Y3378D02*
X1849Y3378D01*
X3231Y3378D02*
X4389Y3378D01*
X5771Y3378D02*
X7188Y3378D01*
X46152Y3378D02*
X47569Y3378D01*
X48951Y3378D02*
X50109Y3378D01*
X51491Y3378D02*
X52908Y3378D01*
X0432Y3428D02*
X1905Y3428D01*
X3175Y3428D02*
X4445Y3428D01*
X5016Y3428D02*
X5144Y3428D01*
X5715Y3428D02*
X7188Y3428D01*
X46152Y3428D02*
X47625Y3428D01*
X48895Y3428D02*
X50165Y3428D01*
X51435Y3428D02*
X52908Y3428D01*
X0432Y3477D02*
X1990Y3477D01*
X3090Y3477D02*
X4530Y3477D01*
X5016Y3477D02*
X5144Y3477D01*
X5630Y3477D02*
X7188Y3477D01*
X46152Y3477D02*
X47710Y3477D01*
X48810Y3477D02*
X50250Y3477D01*
X51350Y3477D02*
X52908Y3477D01*
X0432Y3527D02*
X2085Y3527D01*
X2995Y3527D02*
X4625Y3527D01*
X5016Y3527D02*
X5144Y3527D01*
X5535Y3527D02*
X7188Y3527D01*
X46152Y3527D02*
X47805Y3527D01*
X48715Y3527D02*
X50345Y3527D01*
X51255Y3527D02*
X52908Y3527D01*
X0432Y3576D02*
X2209Y3576D01*
X2871Y3576D02*
X4749Y3576D01*
X5016Y3576D02*
X5144Y3576D01*
X5411Y3576D02*
X7188Y3576D01*
X46152Y3576D02*
X47929Y3576D01*
X48591Y3576D02*
X50469Y3576D01*
X51131Y3576D02*
X52908Y3576D01*
X0432Y3626D02*
X7188Y3626D01*
X46152Y3626D02*
X52908Y3626D01*
X0432Y3675D02*
X7188Y3675D01*
X46152Y3675D02*
X52908Y3675D01*
X0432Y3725D02*
X7188Y3725D01*
X46152Y3725D02*
X52908Y3725D01*
X0432Y3774D02*
X7188Y3774D01*
X46152Y3774D02*
X52908Y3774D01*
X0432Y3824D02*
X7188Y3824D01*
X46152Y3824D02*
X52908Y3824D01*
X0432Y3873D02*
X7188Y3873D01*
X46152Y3873D02*
X52908Y3873D01*
X0432Y3923D02*
X7188Y3923D01*
X46152Y3923D02*
X52908Y3923D01*
X0432Y3973D02*
X7188Y3973D01*
X46152Y3973D02*
X52908Y3973D01*
X0432Y4022D02*
X2297Y4022D01*
X2783Y4022D02*
X4837Y4022D01*
X5016Y4022D02*
X5144Y4022D01*
X5323Y4022D02*
X7188Y4022D01*
X46152Y4022D02*
X48017Y4022D01*
X48503Y4022D02*
X50557Y4022D01*
X51043Y4022D02*
X52908Y4022D01*
X0432Y4072D02*
X2126Y4072D01*
X2954Y4072D02*
X4666Y4072D01*
X5016Y4072D02*
X5144Y4072D01*
X5494Y4072D02*
X7188Y4072D01*
X46152Y4072D02*
X47846Y4072D01*
X48674Y4072D02*
X50386Y4072D01*
X51214Y4072D02*
X52908Y4072D01*
X0432Y4121D02*
X2031Y4121D01*
X3049Y4121D02*
X4571Y4121D01*
X5016Y4121D02*
X5144Y4121D01*
X5589Y4121D02*
X7188Y4121D01*
X46152Y4121D02*
X47751Y4121D01*
X48769Y4121D02*
X50291Y4121D01*
X51309Y4121D02*
X52908Y4121D01*
X0432Y4171D02*
X1937Y4171D01*
X3143Y4171D02*
X4477Y4171D01*
X5016Y4171D02*
X5144Y4171D01*
X5683Y4171D02*
X7188Y4171D01*
X46152Y4171D02*
X47657Y4171D01*
X48863Y4171D02*
X50197Y4171D01*
X51403Y4171D02*
X52908Y4171D01*
X0432Y4220D02*
X1874Y4220D01*
X3206Y4220D02*
X4414Y4220D01*
X5746Y4220D02*
X7188Y4220D01*
X46152Y4220D02*
X47594Y4220D01*
X48926Y4220D02*
X50134Y4220D01*
X51466Y4220D02*
X52908Y4220D01*
X0432Y4270D02*
X1818Y4270D01*
X3262Y4270D02*
X4358Y4270D01*
X5802Y4270D02*
X7188Y4270D01*
X46152Y4270D02*
X47538Y4270D01*
X48982Y4270D02*
X50078Y4270D01*
X51522Y4270D02*
X52908Y4270D01*
X0432Y4319D02*
X1762Y4319D01*
X3318Y4319D02*
X4302Y4319D01*
X5858Y4319D02*
X7188Y4319D01*
X46152Y4319D02*
X47482Y4319D01*
X49038Y4319D02*
X50022Y4319D01*
X51578Y4319D02*
X52908Y4319D01*
X0432Y4369D02*
X1712Y4369D01*
X3368Y4369D02*
X4252Y4369D01*
X5908Y4369D02*
X7188Y4369D01*
X46152Y4369D02*
X47432Y4369D01*
X49088Y4369D02*
X49972Y4369D01*
X51628Y4369D02*
X52908Y4369D01*
X0432Y4418D02*
X1678Y4418D01*
X3402Y4418D02*
X4218Y4418D01*
X5942Y4418D02*
X7188Y4418D01*
X46152Y4418D02*
X47398Y4418D01*
X49122Y4418D02*
X49938Y4418D01*
X51662Y4418D02*
X52908Y4418D01*
X0432Y4468D02*
X1644Y4468D01*
X3436Y4468D02*
X4184Y4468D01*
X5976Y4468D02*
X7188Y4468D01*
X46152Y4468D02*
X47364Y4468D01*
X49156Y4468D02*
X49904Y4468D01*
X51696Y4468D02*
X52908Y4468D01*
X0432Y4517D02*
X1609Y4517D01*
X3471Y4517D02*
X4149Y4517D01*
X6011Y4517D02*
X7188Y4517D01*
X46152Y4517D02*
X47329Y4517D01*
X49191Y4517D02*
X49869Y4517D01*
X51731Y4517D02*
X52908Y4517D01*
X0432Y4567D02*
X1575Y4567D01*
X3505Y4567D02*
X4115Y4567D01*
X6045Y4567D02*
X7188Y4567D01*
X46152Y4567D02*
X47295Y4567D01*
X49225Y4567D02*
X49835Y4567D01*
X51765Y4567D02*
X52908Y4567D01*
X0432Y4616D02*
X1555Y4616D01*
X3525Y4616D02*
X4095Y4616D01*
X6065Y4616D02*
X7188Y4616D01*
X46152Y4616D02*
X47275Y4616D01*
X49245Y4616D02*
X49815Y4616D01*
X51785Y4616D02*
X52908Y4616D01*
X0432Y4666D02*
X1536Y4666D01*
X3544Y4666D02*
X4076Y4666D01*
X6084Y4666D02*
X7188Y4666D01*
X46152Y4666D02*
X47256Y4666D01*
X49264Y4666D02*
X49796Y4666D01*
X51804Y4666D02*
X52908Y4666D01*
X0432Y4716D02*
X1517Y4716D01*
X3563Y4716D02*
X4057Y4716D01*
X6103Y4716D02*
X7188Y4716D01*
X46152Y4716D02*
X47237Y4716D01*
X49283Y4716D02*
X49777Y4716D01*
X51823Y4716D02*
X52908Y4716D01*
X0432Y4765D02*
X1499Y4765D01*
X3581Y4765D02*
X4039Y4765D01*
X6121Y4765D02*
X7188Y4765D01*
X46152Y4765D02*
X47219Y4765D01*
X49301Y4765D02*
X49759Y4765D01*
X51841Y4765D02*
X52908Y4765D01*
X0432Y4815D02*
X1480Y4815D01*
X3600Y4815D02*
X4020Y4815D01*
X6140Y4815D02*
X7188Y4815D01*
X46152Y4815D02*
X47200Y4815D01*
X49320Y4815D02*
X49740Y4815D01*
X51860Y4815D02*
X52908Y4815D01*
X0432Y4864D02*
X1473Y4864D01*
X3607Y4864D02*
X4013Y4864D01*
X6147Y4864D02*
X7188Y4864D01*
X46152Y4864D02*
X47193Y4864D01*
X49327Y4864D02*
X49733Y4864D01*
X51867Y4864D02*
X52908Y4864D01*
X0432Y4914D02*
X1467Y4914D01*
X3613Y4914D02*
X4007Y4914D01*
X6153Y4914D02*
X7188Y4914D01*
X46152Y4914D02*
X47187Y4914D01*
X49333Y4914D02*
X49727Y4914D01*
X51873Y4914D02*
X52908Y4914D01*
X0432Y4963D02*
X1461Y4963D01*
X3619Y4963D02*
X4001Y4963D01*
X6159Y4963D02*
X7188Y4963D01*
X46152Y4963D02*
X47181Y4963D01*
X49339Y4963D02*
X49721Y4963D01*
X51879Y4963D02*
X52908Y4963D01*
X0432Y5013D02*
X1455Y5013D01*
X3625Y5013D02*
X3995Y5013D01*
X6152Y5013D02*
X7188Y5013D01*
X46152Y5013D02*
X47175Y5013D01*
X49345Y5013D02*
X49715Y5013D01*
X51885Y5013D02*
X52908Y5013D01*
X0432Y5062D02*
X1449Y5062D01*
X3631Y5062D02*
X3989Y5062D01*
X5950Y5062D02*
X7188Y5062D01*
X46152Y5062D02*
X47169Y5062D01*
X49351Y5062D02*
X49709Y5062D01*
X51891Y5062D02*
X52908Y5062D01*
X0432Y5112D02*
X1450Y5112D01*
X3630Y5112D02*
X3990Y5112D01*
X5950Y5112D02*
X7188Y5112D01*
X46152Y5112D02*
X47170Y5112D01*
X49350Y5112D02*
X49710Y5112D01*
X51890Y5112D02*
X52908Y5112D01*
X0432Y5161D02*
X1456Y5161D01*
X3624Y5161D02*
X3996Y5161D01*
X6164Y5161D02*
X7188Y5161D01*
X46152Y5161D02*
X47176Y5161D01*
X49344Y5161D02*
X49716Y5161D01*
X51884Y5161D02*
X52908Y5161D01*
X0432Y5211D02*
X1462Y5211D01*
X3618Y5211D02*
X4002Y5211D01*
X6158Y5211D02*
X7188Y5211D01*
X46152Y5211D02*
X47182Y5211D01*
X49338Y5211D02*
X49722Y5211D01*
X51878Y5211D02*
X52908Y5211D01*
X0432Y5260D02*
X1469Y5260D01*
X3611Y5260D02*
X4009Y5260D01*
X6151Y5260D02*
X7188Y5260D01*
X46152Y5260D02*
X47189Y5260D01*
X49331Y5260D02*
X49729Y5260D01*
X51871Y5260D02*
X52908Y5260D01*
X0432Y5310D02*
X1475Y5310D01*
X3605Y5310D02*
X4015Y5310D01*
X6145Y5310D02*
X7188Y5310D01*
X46152Y5310D02*
X47195Y5310D01*
X49325Y5310D02*
X49735Y5310D01*
X51865Y5310D02*
X52908Y5310D01*
X0432Y5359D02*
X1485Y5359D01*
X3595Y5359D02*
X4025Y5359D01*
X6135Y5359D02*
X7188Y5359D01*
X46152Y5359D02*
X47205Y5359D01*
X49315Y5359D02*
X49745Y5359D01*
X51855Y5359D02*
X52908Y5359D01*
X0432Y5409D02*
X1504Y5409D01*
X3576Y5409D02*
X4044Y5409D01*
X6116Y5409D02*
X7188Y5409D01*
X46152Y5409D02*
X47224Y5409D01*
X49296Y5409D02*
X49764Y5409D01*
X51836Y5409D02*
X52908Y5409D01*
X0432Y5458D02*
X1523Y5458D01*
X3557Y5458D02*
X4063Y5458D01*
X6097Y5458D02*
X7188Y5458D01*
X46152Y5458D02*
X47243Y5458D01*
X49277Y5458D02*
X49783Y5458D01*
X51817Y5458D02*
X52908Y5458D01*
X0432Y5508D02*
X1541Y5508D01*
X3539Y5508D02*
X4081Y5508D01*
X6079Y5508D02*
X7188Y5508D01*
X46152Y5508D02*
X47261Y5508D01*
X49259Y5508D02*
X49801Y5508D01*
X51799Y5508D02*
X52908Y5508D01*
X0432Y5558D02*
X1560Y5558D01*
X3520Y5558D02*
X4100Y5558D01*
X6060Y5558D02*
X7188Y5558D01*
X46152Y5558D02*
X47280Y5558D01*
X49240Y5558D02*
X49820Y5558D01*
X51780Y5558D02*
X52908Y5558D01*
X0432Y5607D02*
X1585Y5607D01*
X3495Y5607D02*
X4125Y5607D01*
X6035Y5607D02*
X7188Y5607D01*
X46152Y5607D02*
X47305Y5607D01*
X49215Y5607D02*
X49845Y5607D01*
X51755Y5607D02*
X52908Y5607D01*
X0432Y5657D02*
X1619Y5657D01*
X3461Y5657D02*
X4159Y5657D01*
X6001Y5657D02*
X7188Y5657D01*
X46152Y5657D02*
X47339Y5657D01*
X49181Y5657D02*
X49879Y5657D01*
X51721Y5657D02*
X52908Y5657D01*
X0432Y5706D02*
X1653Y5706D01*
X3427Y5706D02*
X4193Y5706D01*
X5967Y5706D02*
X7188Y5706D01*
X46152Y5706D02*
X47373Y5706D01*
X49147Y5706D02*
X49913Y5706D01*
X51687Y5706D02*
X52908Y5706D01*
X0432Y5756D02*
X1687Y5756D01*
X3393Y5756D02*
X4227Y5756D01*
X5933Y5756D02*
X7188Y5756D01*
X46152Y5756D02*
X47407Y5756D01*
X49113Y5756D02*
X49947Y5756D01*
X51653Y5756D02*
X52908Y5756D01*
X0432Y5805D02*
X1722Y5805D01*
X3358Y5805D02*
X4262Y5805D01*
X5898Y5805D02*
X7188Y5805D01*
X46152Y5805D02*
X47442Y5805D01*
X49078Y5805D02*
X49982Y5805D01*
X51618Y5805D02*
X52908Y5805D01*
X0432Y5855D02*
X1778Y5855D01*
X3302Y5855D02*
X4318Y5855D01*
X5842Y5855D02*
X7188Y5855D01*
X46152Y5855D02*
X47498Y5855D01*
X49022Y5855D02*
X50038Y5855D01*
X51562Y5855D02*
X52908Y5855D01*
X0432Y5904D02*
X1834Y5904D01*
X3246Y5904D02*
X4374Y5904D01*
X5786Y5904D02*
X7188Y5904D01*
X46152Y5904D02*
X47554Y5904D01*
X48966Y5904D02*
X50094Y5904D01*
X51506Y5904D02*
X52908Y5904D01*
X0432Y5954D02*
X1889Y5954D01*
X3191Y5954D02*
X4429Y5954D01*
X5016Y5954D02*
X5144Y5954D01*
X5731Y5954D02*
X7188Y5954D01*
X46152Y5954D02*
X47609Y5954D01*
X48911Y5954D02*
X50149Y5954D01*
X51451Y5954D02*
X52908Y5954D01*
X0432Y6003D02*
X1964Y6003D01*
X3116Y6003D02*
X4504Y6003D01*
X5016Y6003D02*
X5144Y6003D01*
X5656Y6003D02*
X7188Y6003D01*
X46152Y6003D02*
X47684Y6003D01*
X48836Y6003D02*
X50224Y6003D01*
X51376Y6003D02*
X52908Y6003D01*
X0432Y6053D02*
X2058Y6053D01*
X3022Y6053D02*
X4598Y6053D01*
X5016Y6053D02*
X5144Y6053D01*
X5562Y6053D02*
X7188Y6053D01*
X46152Y6053D02*
X47778Y6053D01*
X48742Y6053D02*
X50318Y6053D01*
X51282Y6053D02*
X52908Y6053D01*
X0432Y6102D02*
X2153Y6102D01*
X2927Y6102D02*
X4693Y6102D01*
X5016Y6102D02*
X5144Y6102D01*
X5467Y6102D02*
X7188Y6102D01*
X46152Y6102D02*
X47873Y6102D01*
X48647Y6102D02*
X50413Y6102D01*
X51187Y6102D02*
X52908Y6102D01*
X0432Y6152D02*
X2353Y6152D01*
X2727Y6152D02*
X4893Y6152D01*
X5015Y6152D02*
X5145Y6152D01*
X5267Y6152D02*
X7188Y6152D01*
X46152Y6152D02*
X48073Y6152D01*
X48447Y6152D02*
X50613Y6152D01*
X50987Y6152D02*
X52908Y6152D01*
X0432Y6201D02*
X7188Y6201D01*
X46152Y6201D02*
X52908Y6201D01*
X0432Y6251D02*
X7188Y6251D01*
X46152Y6251D02*
X52908Y6251D01*
X0432Y6300D02*
X7188Y6300D01*
X46152Y6300D02*
X52908Y6300D01*
X0432Y6350D02*
X7188Y6350D01*
X46152Y6350D02*
X52908Y6350D01*
X0432Y6400D02*
X7188Y6400D01*
X46152Y6400D02*
X52908Y6400D01*
X0432Y6449D02*
X7188Y6449D01*
X46152Y6449D02*
X52908Y6449D01*
X0432Y6499D02*
X7188Y6499D01*
X46152Y6499D02*
X52908Y6499D01*
X0432Y6548D02*
X7188Y6548D01*
X46152Y6548D02*
X52908Y6548D01*
X0432Y6598D02*
X7188Y6598D01*
X46152Y6598D02*
X52908Y6598D01*
X0432Y6647D02*
X7188Y6647D01*
X46152Y6647D02*
X52908Y6647D01*
X0432Y6697D02*
X7188Y6697D01*
X46152Y6697D02*
X52908Y6697D01*
X0432Y6746D02*
X7188Y6746D01*
X46152Y6746D02*
X52908Y6746D01*
X0432Y6796D02*
X7188Y6796D01*
X46152Y6796D02*
X52908Y6796D01*
X0432Y6845D02*
X7188Y6845D01*
X46152Y6845D02*
X52908Y6845D01*
X0432Y6895D02*
X7188Y6895D01*
X46152Y6895D02*
X52908Y6895D01*
X0432Y6944D02*
X7188Y6944D01*
X46152Y6944D02*
X52908Y6944D01*
X0432Y6994D02*
X7188Y6994D01*
X46152Y6994D02*
X52908Y6994D01*
X0432Y7043D02*
X7188Y7043D01*
X46152Y7043D02*
X52908Y7043D01*
X0432Y7093D02*
X7188Y7093D01*
X46152Y7093D02*
X52908Y7093D01*
X0432Y7142D02*
X7188Y7142D01*
X46152Y7142D02*
X52908Y7142D01*
X0432Y7192D02*
X7188Y7192D01*
X46152Y7192D02*
X52908Y7192D01*
X0432Y7242D02*
X7188Y7242D01*
X46152Y7242D02*
X52908Y7242D01*
X0432Y7291D02*
X7188Y7291D01*
X46152Y7291D02*
X52908Y7291D01*
X0432Y7341D02*
X7188Y7341D01*
X46152Y7341D02*
X52908Y7341D01*
X0432Y7390D02*
X7188Y7390D01*
X46152Y7390D02*
X52908Y7390D01*
X0432Y7440D02*
X7188Y7440D01*
X46152Y7440D02*
X52908Y7440D01*
X0432Y7489D02*
X7188Y7489D01*
X46152Y7489D02*
X52908Y7489D01*
X0432Y7539D02*
X7188Y7539D01*
X46152Y7539D02*
X52908Y7539D01*
X0432Y7588D02*
X7188Y7588D01*
X46152Y7588D02*
X52908Y7588D01*
X0432Y7638D02*
X7188Y7638D01*
X46152Y7638D02*
X52908Y7638D01*
X0432Y7687D02*
X7188Y7687D01*
X46152Y7687D02*
X52908Y7687D01*
X0432Y7737D02*
X7188Y7737D01*
X46152Y7737D02*
X52908Y7737D01*
X0432Y7786D02*
X7188Y7786D01*
X46152Y7786D02*
X52908Y7786D01*
X0432Y7836D02*
X7188Y7836D01*
X46152Y7836D02*
X52908Y7836D01*
X0432Y7885D02*
X7188Y7885D01*
X46152Y7885D02*
X52908Y7885D01*
X0432Y7935D02*
X7188Y7935D01*
X46152Y7935D02*
X52908Y7935D01*
X0432Y7984D02*
X7188Y7984D01*
X46152Y7984D02*
X52908Y7984D01*
X0432Y8034D02*
X7188Y8034D01*
X46152Y8034D02*
X52908Y8034D01*
X0432Y8084D02*
X7188Y8084D01*
X46152Y8084D02*
X52908Y8084D01*
X0432Y8133D02*
X7188Y8133D01*
X46152Y8133D02*
X52908Y8133D01*
X0432Y8183D02*
X7188Y8183D01*
X46152Y8183D02*
X52908Y8183D01*
X0432Y8232D02*
X7188Y8232D01*
X46152Y8232D02*
X52908Y8232D01*
X0432Y8282D02*
X7188Y8282D01*
X46152Y8282D02*
X52908Y8282D01*
X0432Y8331D02*
X7188Y8331D01*
X46152Y8331D02*
X52908Y8331D01*
X0432Y8381D02*
X7188Y8381D01*
X46152Y8381D02*
X52908Y8381D01*
X0432Y8430D02*
X7188Y8430D01*
X46152Y8430D02*
X52908Y8430D01*
X0432Y8480D02*
X7188Y8480D01*
X46152Y8480D02*
X52908Y8480D01*
X0432Y8529D02*
X7188Y8529D01*
X46152Y8529D02*
X52908Y8529D01*
X0432Y8579D02*
X7188Y8579D01*
X46152Y8579D02*
X52908Y8579D01*
X0432Y8628D02*
X7188Y8628D01*
X46152Y8628D02*
X52908Y8628D01*
X0432Y8678D02*
X7188Y8678D01*
X46152Y8678D02*
X52908Y8678D01*
X0432Y8727D02*
X7188Y8727D01*
X46152Y8727D02*
X52908Y8727D01*
X0432Y8777D02*
X7188Y8777D01*
X46152Y8777D02*
X52908Y8777D01*
X0432Y8826D02*
X7188Y8826D01*
X46152Y8826D02*
X52908Y8826D01*
X0432Y8876D02*
X7188Y8876D01*
X46152Y8876D02*
X52908Y8876D01*
X0432Y8926D02*
X7188Y8926D01*
X46152Y8926D02*
X52908Y8926D01*
X0432Y8975D02*
X7188Y8975D01*
X46152Y8975D02*
X52908Y8975D01*
X0432Y9025D02*
X7188Y9025D01*
X46152Y9025D02*
X52908Y9025D01*
X0432Y9074D02*
X7188Y9074D01*
X46152Y9074D02*
X52908Y9074D01*
X0432Y9124D02*
X7188Y9124D01*
X46152Y9124D02*
X52908Y9124D01*
X0432Y9173D02*
X7188Y9173D01*
X46152Y9173D02*
X52908Y9173D01*
X0432Y9223D02*
X7188Y9223D01*
X46152Y9223D02*
X52908Y9223D01*
X0432Y9272D02*
X7188Y9272D01*
X46152Y9272D02*
X52908Y9272D01*
X0432Y9322D02*
X7188Y9322D01*
X46152Y9322D02*
X52908Y9322D01*
X0432Y9371D02*
X7188Y9371D01*
X29607Y9371D02*
X29867Y9371D01*
X33633Y9371D02*
X34947Y9371D01*
X46152Y9371D02*
X52908Y9371D01*
X0432Y9421D02*
X7188Y9421D01*
X29583Y9421D02*
X29811Y9421D01*
X33689Y9421D02*
X34891Y9421D01*
X46152Y9421D02*
X52908Y9421D01*
X0432Y9470D02*
X7188Y9470D01*
X29558Y9470D02*
X29755Y9470D01*
X33745Y9470D02*
X34835Y9470D01*
X46152Y9470D02*
X52908Y9470D01*
X0432Y9520D02*
X7188Y9520D01*
X29533Y9520D02*
X29710Y9520D01*
X33790Y9520D02*
X34790Y9520D01*
X46152Y9520D02*
X52908Y9520D01*
X0432Y9569D02*
X7188Y9569D01*
X29508Y9569D02*
X29676Y9569D01*
X33824Y9569D02*
X34756Y9569D01*
X46152Y9569D02*
X52908Y9569D01*
X0432Y9619D02*
X7188Y9619D01*
X29484Y9619D02*
X29642Y9619D01*
X33858Y9619D02*
X34722Y9619D01*
X46152Y9619D02*
X52908Y9619D01*
X0432Y9669D02*
X7188Y9669D01*
X29459Y9669D02*
X29608Y9669D01*
X33892Y9669D02*
X34688Y9669D01*
X46152Y9669D02*
X52908Y9669D01*
X0432Y9718D02*
X7188Y9718D01*
X29434Y9718D02*
X29581Y9718D01*
X33919Y9718D02*
X34661Y9718D01*
X46152Y9718D02*
X52908Y9718D01*
X0432Y9768D02*
X7188Y9768D01*
X29409Y9768D02*
X29562Y9768D01*
X33938Y9768D02*
X34642Y9768D01*
X39104Y9768D02*
X39171Y9768D01*
X46152Y9768D02*
X52908Y9768D01*
X0432Y9817D02*
X7188Y9817D01*
X29384Y9817D02*
X29544Y9817D01*
X33956Y9817D02*
X34624Y9817D01*
X39104Y9817D02*
X39196Y9817D01*
X46152Y9817D02*
X52908Y9817D01*
X0432Y9867D02*
X7188Y9867D01*
X29360Y9867D02*
X29525Y9867D01*
X33975Y9867D02*
X34605Y9867D01*
X39104Y9867D02*
X39220Y9867D01*
X46152Y9867D02*
X52908Y9867D01*
X0432Y9916D02*
X7188Y9916D01*
X29335Y9916D02*
X29506Y9916D01*
X33994Y9916D02*
X34586Y9916D01*
X39104Y9916D02*
X39245Y9916D01*
X46152Y9916D02*
X52908Y9916D01*
X0432Y9966D02*
X7188Y9966D01*
X29310Y9966D02*
X29499Y9966D01*
X34001Y9966D02*
X34579Y9966D01*
X39104Y9966D02*
X39270Y9966D01*
X46152Y9966D02*
X52908Y9966D01*
X0432Y10015D02*
X7188Y10015D01*
X29285Y10015D02*
X29493Y10015D01*
X34007Y10015D02*
X34573Y10015D01*
X39104Y10015D02*
X39295Y10015D01*
X46152Y10015D02*
X52908Y10015D01*
X0432Y10065D02*
X7188Y10065D01*
X29261Y10065D02*
X29487Y10065D01*
X34013Y10065D02*
X34567Y10065D01*
X39104Y10065D02*
X39319Y10065D01*
X46152Y10065D02*
X52908Y10065D01*
X0432Y10114D02*
X7188Y10114D01*
X29236Y10114D02*
X29481Y10114D01*
X34019Y10114D02*
X34561Y10114D01*
X39104Y10114D02*
X39344Y10114D01*
X46152Y10114D02*
X52908Y10114D01*
X0432Y10164D02*
X7188Y10164D01*
X29211Y10164D02*
X29476Y10164D01*
X34024Y10164D02*
X34556Y10164D01*
X39104Y10164D02*
X39369Y10164D01*
X46152Y10164D02*
X52908Y10164D01*
X0432Y10213D02*
X7188Y10213D01*
X29186Y10213D02*
X29482Y10213D01*
X34018Y10213D02*
X34562Y10213D01*
X39104Y10213D02*
X39394Y10213D01*
X46152Y10213D02*
X52908Y10213D01*
X0432Y10263D02*
X7188Y10263D01*
X29162Y10263D02*
X29488Y10263D01*
X34012Y10263D02*
X34568Y10263D01*
X39104Y10263D02*
X39418Y10263D01*
X46152Y10263D02*
X52908Y10263D01*
X0432Y10312D02*
X7188Y10312D01*
X29137Y10312D02*
X29494Y10312D01*
X34006Y10312D02*
X34574Y10312D01*
X39104Y10312D02*
X39443Y10312D01*
X46152Y10312D02*
X52908Y10312D01*
X0432Y10362D02*
X7188Y10362D01*
X29112Y10362D02*
X29500Y10362D01*
X34000Y10362D02*
X34580Y10362D01*
X39104Y10362D02*
X39468Y10362D01*
X46152Y10362D02*
X52908Y10362D01*
X0432Y10411D02*
X7188Y10411D01*
X29087Y10411D02*
X29509Y10411D01*
X33991Y10411D02*
X34589Y10411D01*
X39104Y10411D02*
X39493Y10411D01*
X46152Y10411D02*
X52908Y10411D01*
X0432Y10461D02*
X7188Y10461D01*
X29063Y10461D02*
X29528Y10461D01*
X33972Y10461D02*
X34608Y10461D01*
X39104Y10461D02*
X39517Y10461D01*
X46152Y10461D02*
X52908Y10461D01*
X0432Y10511D02*
X7188Y10511D01*
X29038Y10511D02*
X29547Y10511D01*
X31413Y10511D02*
X32087Y10511D01*
X33953Y10511D02*
X34627Y10511D01*
X36493Y10511D02*
X37096Y10511D01*
X39104Y10511D02*
X39542Y10511D01*
X46152Y10511D02*
X52908Y10511D01*
X0432Y10560D02*
X7188Y10560D01*
X29013Y10560D02*
X29565Y10560D01*
X31395Y10560D02*
X32105Y10560D01*
X33935Y10560D02*
X34645Y10560D01*
X36475Y10560D02*
X37096Y10560D01*
X39104Y10560D02*
X39567Y10560D01*
X46152Y10560D02*
X52908Y10560D01*
X0432Y10610D02*
X7188Y10610D01*
X28988Y10610D02*
X29584Y10610D01*
X31376Y10610D02*
X32124Y10610D01*
X33916Y10610D02*
X34664Y10610D01*
X36456Y10610D02*
X37096Y10610D01*
X39104Y10610D02*
X39592Y10610D01*
X46152Y10610D02*
X52908Y10610D01*
X0432Y10659D02*
X7188Y10659D01*
X28963Y10659D02*
X29613Y10659D01*
X31347Y10659D02*
X32153Y10659D01*
X33887Y10659D02*
X34693Y10659D01*
X36427Y10659D02*
X37096Y10659D01*
X39104Y10659D02*
X39617Y10659D01*
X46152Y10659D02*
X52908Y10659D01*
X0432Y10709D02*
X7188Y10709D01*
X28939Y10709D02*
X29647Y10709D01*
X31313Y10709D02*
X32187Y10709D01*
X33853Y10709D02*
X34727Y10709D01*
X36393Y10709D02*
X37096Y10709D01*
X39104Y10709D02*
X39641Y10709D01*
X46152Y10709D02*
X52908Y10709D01*
X0432Y10758D02*
X7188Y10758D01*
X28914Y10758D02*
X29681Y10758D01*
X31279Y10758D02*
X32221Y10758D01*
X33819Y10758D02*
X34761Y10758D01*
X36359Y10758D02*
X37096Y10758D01*
X39104Y10758D02*
X39666Y10758D01*
X46152Y10758D02*
X52908Y10758D01*
X0432Y10808D02*
X7188Y10808D01*
X28889Y10808D02*
X29716Y10808D01*
X31244Y10808D02*
X32256Y10808D01*
X33784Y10808D02*
X34796Y10808D01*
X36324Y10808D02*
X37096Y10808D01*
X39104Y10808D02*
X39691Y10808D01*
X46152Y10808D02*
X52908Y10808D01*
X0432Y10857D02*
X7188Y10857D01*
X28864Y10857D02*
X29763Y10857D01*
X31197Y10857D02*
X32303Y10857D01*
X33737Y10857D02*
X34843Y10857D01*
X36277Y10857D02*
X37096Y10857D01*
X39104Y10857D02*
X39716Y10857D01*
X46152Y10857D02*
X52908Y10857D01*
X0432Y10907D02*
X7188Y10907D01*
X28840Y10907D02*
X29819Y10907D01*
X31141Y10907D02*
X32359Y10907D01*
X33681Y10907D02*
X34899Y10907D01*
X36221Y10907D02*
X37096Y10907D01*
X39104Y10907D02*
X39740Y10907D01*
X46152Y10907D02*
X52908Y10907D01*
X0432Y10956D02*
X7188Y10956D01*
X28815Y10956D02*
X29875Y10956D01*
X31085Y10956D02*
X32415Y10956D01*
X33625Y10956D02*
X34955Y10956D01*
X36165Y10956D02*
X37096Y10956D01*
X39104Y10956D02*
X39765Y10956D01*
X46152Y10956D02*
X52908Y10956D01*
X0432Y11006D02*
X7188Y11006D01*
X28790Y11006D02*
X29946Y11006D01*
X31014Y11006D02*
X32486Y11006D01*
X33554Y11006D02*
X35026Y11006D01*
X36094Y11006D02*
X37102Y11006D01*
X39098Y11006D02*
X39790Y11006D01*
X46152Y11006D02*
X52908Y11006D01*
X0432Y11055D02*
X7188Y11055D01*
X28765Y11055D02*
X30040Y11055D01*
X30920Y11055D02*
X32580Y11055D01*
X33460Y11055D02*
X35120Y11055D01*
X36000Y11055D02*
X37120Y11055D01*
X39080Y11055D02*
X39815Y11055D01*
X46152Y11055D02*
X52908Y11055D01*
X0432Y11105D02*
X7188Y11105D01*
X28741Y11105D02*
X30147Y11105D01*
X30813Y11105D02*
X32687Y11105D01*
X33353Y11105D02*
X35227Y11105D01*
X35893Y11105D02*
X37156Y11105D01*
X39044Y11105D02*
X39839Y11105D01*
X46152Y11105D02*
X52908Y11105D01*
X0432Y11154D02*
X7188Y11154D01*
X28716Y11154D02*
X30348Y11154D01*
X30612Y11154D02*
X32714Y11154D01*
X33326Y11154D02*
X35254Y11154D01*
X35866Y11154D02*
X37238Y11154D01*
X38962Y11154D02*
X39864Y11154D01*
X46152Y11154D02*
X52908Y11154D01*
X0432Y11204D02*
X7188Y11204D01*
X28691Y11204D02*
X32714Y11204D01*
X33326Y11204D02*
X35254Y11204D01*
X35866Y11204D02*
X39889Y11204D01*
X46152Y11204D02*
X52908Y11204D01*
X0432Y11253D02*
X7188Y11253D01*
X28666Y11253D02*
X32714Y11253D01*
X33326Y11253D02*
X35254Y11253D01*
X35866Y11253D02*
X39914Y11253D01*
X46152Y11253D02*
X52908Y11253D01*
X0432Y11303D02*
X7188Y11303D01*
X28641Y11303D02*
X32714Y11303D01*
X33326Y11303D02*
X35254Y11303D01*
X35866Y11303D02*
X39939Y11303D01*
X46152Y11303D02*
X52908Y11303D01*
X0432Y11353D02*
X7188Y11353D01*
X28617Y11353D02*
X32714Y11353D01*
X33326Y11353D02*
X35254Y11353D01*
X35866Y11353D02*
X39963Y11353D01*
X46152Y11353D02*
X52908Y11353D01*
X0432Y11402D02*
X7188Y11402D01*
X28592Y11402D02*
X32714Y11402D01*
X33326Y11402D02*
X35254Y11402D01*
X35866Y11402D02*
X39988Y11402D01*
X46152Y11402D02*
X52908Y11402D01*
X0432Y11452D02*
X7188Y11452D01*
X28567Y11452D02*
X32714Y11452D01*
X33326Y11452D02*
X35254Y11452D01*
X35866Y11452D02*
X40013Y11452D01*
X46152Y11452D02*
X52896Y11452D01*
X0432Y11501D02*
X7188Y11501D01*
X28542Y11501D02*
X32714Y11501D01*
X33326Y11501D02*
X35254Y11501D01*
X35866Y11501D02*
X40038Y11501D01*
X46152Y11501D02*
X52884Y11501D01*
X0432Y11551D02*
X7188Y11551D01*
X28518Y11551D02*
X32714Y11551D01*
X33326Y11551D02*
X35254Y11551D01*
X35866Y11551D02*
X40062Y11551D01*
X46152Y11551D02*
X52871Y11551D01*
X0432Y11600D02*
X7188Y11600D01*
X28493Y11600D02*
X32714Y11600D01*
X33326Y11600D02*
X35254Y11600D01*
X35866Y11600D02*
X40087Y11600D01*
X46152Y11600D02*
X52859Y11600D01*
X0432Y11650D02*
X7188Y11650D01*
X28468Y11650D02*
X32714Y11650D01*
X33326Y11650D02*
X35254Y11650D01*
X35866Y11650D02*
X40112Y11650D01*
X46152Y11650D02*
X52847Y11650D01*
X0432Y11699D02*
X7188Y11699D01*
X28443Y11699D02*
X32714Y11699D01*
X33326Y11699D02*
X35254Y11699D01*
X35866Y11699D02*
X40137Y11699D01*
X46152Y11699D02*
X52834Y11699D01*
X0432Y11749D02*
X7188Y11749D01*
X28419Y11749D02*
X32714Y11749D01*
X33326Y11749D02*
X35254Y11749D01*
X35866Y11749D02*
X40161Y11749D01*
X46152Y11749D02*
X52822Y11749D01*
X0432Y11798D02*
X7188Y11798D01*
X28394Y11798D02*
X32714Y11798D01*
X33326Y11798D02*
X35254Y11798D01*
X35866Y11798D02*
X40186Y11798D01*
X46152Y11798D02*
X52809Y11798D01*
X0432Y11848D02*
X7189Y11848D01*
X28369Y11848D02*
X32714Y11848D01*
X33326Y11848D02*
X35254Y11848D01*
X35866Y11848D02*
X40211Y11848D01*
X46151Y11848D02*
X52797Y11848D01*
X0432Y11897D02*
X32714Y11897D01*
X33326Y11897D02*
X35254Y11897D01*
X35866Y11897D02*
X52785Y11897D01*
X0432Y11947D02*
X32714Y11947D01*
X33326Y11947D02*
X35254Y11947D01*
X35866Y11947D02*
X52772Y11947D01*
X0432Y11996D02*
X32714Y11996D01*
X33326Y11996D02*
X35254Y11996D01*
X35866Y11996D02*
X52760Y11996D01*
X0432Y12046D02*
X32714Y12046D01*
X33326Y12046D02*
X35254Y12046D01*
X35866Y12046D02*
X52748Y12046D01*
X0432Y12095D02*
X32714Y12095D01*
X33326Y12095D02*
X35254Y12095D01*
X35866Y12095D02*
X52735Y12095D01*
X0432Y12145D02*
X32714Y12145D01*
X33326Y12145D02*
X35254Y12145D01*
X35866Y12145D02*
X52723Y12145D01*
X0432Y12195D02*
X32714Y12195D01*
X33326Y12195D02*
X35254Y12195D01*
X35866Y12195D02*
X52710Y12195D01*
X0432Y12244D02*
X32714Y12244D01*
X33326Y12244D02*
X35254Y12244D01*
X35866Y12244D02*
X52698Y12244D01*
X0432Y12294D02*
X32714Y12294D01*
X33326Y12294D02*
X35254Y12294D01*
X35866Y12294D02*
X52686Y12294D01*
X0432Y12343D02*
X32714Y12343D01*
X33326Y12343D02*
X35254Y12343D01*
X35866Y12343D02*
X52673Y12343D01*
X0432Y12393D02*
X32714Y12393D01*
X33326Y12393D02*
X35254Y12393D01*
X35866Y12393D02*
X52661Y12393D01*
X0432Y12442D02*
X32714Y12442D01*
X33326Y12442D02*
X35254Y12442D01*
X35866Y12442D02*
X52648Y12442D01*
X0432Y12492D02*
X32714Y12492D01*
X33326Y12492D02*
X35254Y12492D01*
X35866Y12492D02*
X52636Y12492D01*
X0432Y12541D02*
X32714Y12541D01*
X33326Y12541D02*
X35254Y12541D01*
X35866Y12541D02*
X52624Y12541D01*
X0432Y12591D02*
X32714Y12591D01*
X33326Y12591D02*
X35254Y12591D01*
X35866Y12591D02*
X52611Y12591D01*
X0432Y12640D02*
X32714Y12640D01*
X33326Y12640D02*
X35254Y12640D01*
X35866Y12640D02*
X52599Y12640D01*
X0440Y12690D02*
X32714Y12690D01*
X33326Y12690D02*
X35254Y12690D01*
X35866Y12690D02*
X52587Y12690D01*
X0454Y12739D02*
X32714Y12739D01*
X33326Y12739D02*
X35254Y12739D01*
X35866Y12739D02*
X52574Y12739D01*
X0468Y12789D02*
X32714Y12789D01*
X33326Y12789D02*
X35254Y12789D01*
X35866Y12789D02*
X52562Y12789D01*
X0482Y12838D02*
X32714Y12838D01*
X33326Y12838D02*
X35254Y12838D01*
X35866Y12838D02*
X52549Y12838D01*
X0496Y12888D02*
X32714Y12888D01*
X33326Y12888D02*
X35254Y12888D01*
X35866Y12888D02*
X52537Y12888D01*
X0510Y12937D02*
X32714Y12937D01*
X33326Y12937D02*
X35254Y12937D01*
X35866Y12937D02*
X52525Y12937D01*
X0524Y12987D02*
X32714Y12987D01*
X33326Y12987D02*
X35254Y12987D01*
X35866Y12987D02*
X52512Y12987D01*
X0539Y13037D02*
X32714Y13037D01*
X33326Y13037D02*
X35254Y13037D01*
X35866Y13037D02*
X52500Y13037D01*
X0553Y13086D02*
X32714Y13086D01*
X33326Y13086D02*
X35254Y13086D01*
X35866Y13086D02*
X52487Y13086D01*
X0567Y13136D02*
X32714Y13136D01*
X33326Y13136D02*
X35254Y13136D01*
X35866Y13136D02*
X52475Y13136D01*
X0581Y13185D02*
X32714Y13185D01*
X33326Y13185D02*
X35254Y13185D01*
X35866Y13185D02*
X52463Y13185D01*
X0595Y13235D02*
X32714Y13235D01*
X33326Y13235D02*
X35254Y13235D01*
X35866Y13235D02*
X52450Y13235D01*
X0609Y13284D02*
X32714Y13284D01*
X33326Y13284D02*
X35254Y13284D01*
X35866Y13284D02*
X52438Y13284D01*
X0623Y13334D02*
X32714Y13334D01*
X33326Y13334D02*
X35254Y13334D01*
X35866Y13334D02*
X52426Y13334D01*
X0638Y13383D02*
X32714Y13383D01*
X33326Y13383D02*
X35254Y13383D01*
X35866Y13383D02*
X52413Y13383D01*
X0652Y13433D02*
X32714Y13433D01*
X33326Y13433D02*
X35254Y13433D01*
X35866Y13433D02*
X52401Y13433D01*
X0667Y13482D02*
X32714Y13482D01*
X33326Y13482D02*
X35254Y13482D01*
X35866Y13482D02*
X52388Y13482D01*
X0682Y13532D02*
X32714Y13532D01*
X33326Y13532D02*
X35254Y13532D01*
X35866Y13532D02*
X52376Y13532D01*
X0697Y13581D02*
X32714Y13581D01*
X33326Y13581D02*
X35254Y13581D01*
X35866Y13581D02*
X52364Y13581D01*
X0712Y13631D02*
X32714Y13631D01*
X33326Y13631D02*
X35254Y13631D01*
X35866Y13631D02*
X52351Y13631D01*
X0726Y13680D02*
X32714Y13680D01*
X33326Y13680D02*
X35254Y13680D01*
X35866Y13680D02*
X52339Y13680D01*
X0741Y13730D02*
X32714Y13730D01*
X33326Y13730D02*
X35254Y13730D01*
X35866Y13730D02*
X52327Y13730D01*
X0756Y13780D02*
X32714Y13780D01*
X33326Y13780D02*
X35254Y13780D01*
X35866Y13780D02*
X52314Y13780D01*
X0771Y13829D02*
X32714Y13829D01*
X33326Y13829D02*
X35254Y13829D01*
X35866Y13829D02*
X52302Y13829D01*
X0786Y13879D02*
X32714Y13879D01*
X33326Y13879D02*
X35254Y13879D01*
X35866Y13879D02*
X52289Y13879D01*
X0801Y13928D02*
X32714Y13928D01*
X33326Y13928D02*
X35254Y13928D01*
X35866Y13928D02*
X52277Y13928D01*
X0815Y13978D02*
X32714Y13978D01*
X33326Y13978D02*
X35254Y13978D01*
X35866Y13978D02*
X52265Y13978D01*
X0830Y14027D02*
X16676Y14027D01*
X18884Y14027D02*
X20173Y14027D01*
X20248Y14027D02*
X20392Y14027D01*
X20467Y14027D02*
X22713Y14027D01*
X22788Y14027D02*
X22932Y14027D01*
X23007Y14027D02*
X25253Y14027D01*
X25328Y14027D02*
X25472Y14027D01*
X25547Y14027D02*
X27793Y14027D01*
X28087Y14027D02*
X30333Y14027D01*
X30627Y14027D02*
X32714Y14027D01*
X33326Y14027D02*
X35254Y14027D01*
X35866Y14027D02*
X52252Y14027D01*
X0845Y14077D02*
X16605Y14077D01*
X18955Y14077D02*
X19946Y14077D01*
X20256Y14077D02*
X20384Y14077D01*
X20694Y14077D02*
X22486Y14077D01*
X22797Y14077D02*
X22924Y14077D01*
X23234Y14077D02*
X25026Y14077D01*
X25337Y14077D02*
X25463Y14077D01*
X25774Y14077D02*
X27566Y14077D01*
X28314Y14077D02*
X30106Y14077D01*
X30854Y14077D02*
X32646Y14077D01*
X33394Y14077D02*
X35186Y14077D01*
X35934Y14077D02*
X52240Y14077D01*
X0860Y14126D02*
X16571Y14126D01*
X18989Y14126D02*
X19804Y14126D01*
X20256Y14126D02*
X20384Y14126D01*
X20836Y14126D02*
X22344Y14126D01*
X22797Y14126D02*
X22924Y14126D01*
X23376Y14126D02*
X24884Y14126D01*
X25337Y14126D02*
X25463Y14126D01*
X25916Y14126D02*
X27424Y14126D01*
X28456Y14126D02*
X29964Y14126D01*
X30996Y14126D02*
X32504Y14126D01*
X33536Y14126D02*
X35044Y14126D01*
X36076Y14126D02*
X52227Y14126D01*
X0875Y14176D02*
X16555Y14176D01*
X19005Y14176D02*
X19718Y14176D01*
X20256Y14176D02*
X20384Y14176D01*
X20922Y14176D02*
X22258Y14176D01*
X22797Y14176D02*
X22924Y14176D01*
X23462Y14176D02*
X24798Y14176D01*
X25337Y14176D02*
X25463Y14176D01*
X26002Y14176D02*
X27338Y14176D01*
X28542Y14176D02*
X29878Y14176D01*
X31082Y14176D02*
X32418Y14176D01*
X33622Y14176D02*
X34958Y14176D01*
X36162Y14176D02*
X52215Y14176D01*
X0890Y14225D02*
X16551Y14225D01*
X19009Y14225D02*
X19639Y14225D01*
X20256Y14225D02*
X20384Y14225D01*
X21001Y14225D02*
X22179Y14225D01*
X22797Y14225D02*
X22924Y14225D01*
X23541Y14225D02*
X24719Y14225D01*
X25337Y14225D02*
X25463Y14225D01*
X26081Y14225D02*
X27259Y14225D01*
X28621Y14225D02*
X29799Y14225D01*
X31161Y14225D02*
X32339Y14225D01*
X33701Y14225D02*
X34879Y14225D01*
X36241Y14225D02*
X52203Y14225D01*
X0904Y14275D02*
X16551Y14275D01*
X19009Y14275D02*
X19560Y14275D01*
X21080Y14275D02*
X22100Y14275D01*
X23620Y14275D02*
X24640Y14275D01*
X26160Y14275D02*
X27180Y14275D01*
X28700Y14275D02*
X29720Y14275D01*
X31240Y14275D02*
X32260Y14275D01*
X33780Y14275D02*
X34800Y14275D01*
X36320Y14275D02*
X52190Y14275D01*
X0919Y14324D02*
X16551Y14324D01*
X19009Y14324D02*
X19508Y14324D01*
X21132Y14324D02*
X22048Y14324D01*
X23672Y14324D02*
X24588Y14324D01*
X26212Y14324D02*
X27128Y14324D01*
X28752Y14324D02*
X29668Y14324D01*
X31292Y14324D02*
X32208Y14324D01*
X33832Y14324D02*
X34748Y14324D01*
X36372Y14324D02*
X52178Y14324D01*
X0934Y14374D02*
X16551Y14374D01*
X19009Y14374D02*
X19458Y14374D01*
X21182Y14374D02*
X21998Y14374D01*
X23722Y14374D02*
X24538Y14374D01*
X26262Y14374D02*
X27078Y14374D01*
X28802Y14374D02*
X29618Y14374D01*
X31342Y14374D02*
X32158Y14374D01*
X33882Y14374D02*
X34698Y14374D01*
X36422Y14374D02*
X52166Y14374D01*
X0949Y14423D02*
X16551Y14423D01*
X19009Y14423D02*
X19409Y14423D01*
X21231Y14423D02*
X21949Y14423D01*
X23771Y14423D02*
X24489Y14423D01*
X26311Y14423D02*
X27029Y14423D01*
X28851Y14423D02*
X29569Y14423D01*
X31391Y14423D02*
X32109Y14423D01*
X33931Y14423D02*
X34649Y14423D01*
X36471Y14423D02*
X52153Y14423D01*
X0964Y14473D02*
X16551Y14473D01*
X19009Y14473D02*
X19360Y14473D01*
X21280Y14473D02*
X21900Y14473D01*
X23820Y14473D02*
X24440Y14473D01*
X26360Y14473D02*
X26980Y14473D01*
X28900Y14473D02*
X29520Y14473D01*
X31440Y14473D02*
X32060Y14473D01*
X33980Y14473D02*
X34600Y14473D01*
X36520Y14473D02*
X52141Y14473D01*
X0979Y14522D02*
X16551Y14522D01*
X19009Y14522D02*
X19328Y14522D01*
X21312Y14522D02*
X21868Y14522D01*
X23852Y14522D02*
X24408Y14522D01*
X26392Y14522D02*
X26948Y14522D01*
X28932Y14522D02*
X29488Y14522D01*
X31472Y14522D02*
X32028Y14522D01*
X34012Y14522D02*
X34568Y14522D01*
X36552Y14522D02*
X52128Y14522D01*
X0993Y14572D02*
X16551Y14572D01*
X19009Y14572D02*
X19297Y14572D01*
X21343Y14572D02*
X21837Y14572D01*
X23883Y14572D02*
X24377Y14572D01*
X26423Y14572D02*
X26917Y14572D01*
X28963Y14572D02*
X29457Y14572D01*
X31503Y14572D02*
X31997Y14572D01*
X34043Y14572D02*
X34537Y14572D01*
X36583Y14572D02*
X52116Y14572D01*
X1008Y14622D02*
X16551Y14622D01*
X19009Y14622D02*
X19266Y14622D01*
X21374Y14622D02*
X21806Y14622D01*
X23914Y14622D02*
X24346Y14622D01*
X26454Y14622D02*
X26886Y14622D01*
X28994Y14622D02*
X29426Y14622D01*
X31534Y14622D02*
X31966Y14622D01*
X34074Y14622D02*
X34506Y14622D01*
X36614Y14622D02*
X52104Y14622D01*
X1023Y14671D02*
X16551Y14671D01*
X19009Y14671D02*
X19235Y14671D01*
X21405Y14671D02*
X21775Y14671D01*
X23945Y14671D02*
X24315Y14671D01*
X26485Y14671D02*
X26855Y14671D01*
X29025Y14671D02*
X29395Y14671D01*
X31565Y14671D02*
X31935Y14671D01*
X34105Y14671D02*
X34475Y14671D01*
X36645Y14671D02*
X52091Y14671D01*
X1038Y14721D02*
X16551Y14721D01*
X19009Y14721D02*
X19207Y14721D01*
X21433Y14721D02*
X21747Y14721D01*
X23973Y14721D02*
X24287Y14721D01*
X26513Y14721D02*
X26827Y14721D01*
X29053Y14721D02*
X29367Y14721D01*
X31593Y14721D02*
X31907Y14721D01*
X34133Y14721D02*
X34447Y14721D01*
X36673Y14721D02*
X52079Y14721D01*
X1053Y14770D02*
X16551Y14770D01*
X19009Y14770D02*
X19190Y14770D01*
X21450Y14770D02*
X21730Y14770D01*
X23990Y14770D02*
X24270Y14770D01*
X26530Y14770D02*
X26810Y14770D01*
X29070Y14770D02*
X29350Y14770D01*
X31610Y14770D02*
X31890Y14770D01*
X34150Y14770D02*
X34430Y14770D01*
X36690Y14770D02*
X52066Y14770D01*
X1068Y14820D02*
X16551Y14820D01*
X19009Y14820D02*
X19173Y14820D01*
X21467Y14820D02*
X21713Y14820D01*
X24007Y14820D02*
X24253Y14820D01*
X26547Y14820D02*
X26793Y14820D01*
X29087Y14820D02*
X29333Y14820D01*
X31627Y14820D02*
X31873Y14820D01*
X34167Y14820D02*
X34413Y14820D01*
X36707Y14820D02*
X52054Y14820D01*
X1082Y14869D02*
X16551Y14869D01*
X19009Y14869D02*
X19156Y14869D01*
X21484Y14869D02*
X21696Y14869D01*
X24024Y14869D02*
X24236Y14869D01*
X26564Y14869D02*
X26776Y14869D01*
X29104Y14869D02*
X29316Y14869D01*
X31644Y14869D02*
X31856Y14869D01*
X34184Y14869D02*
X34396Y14869D01*
X36724Y14869D02*
X52042Y14869D01*
X1097Y14919D02*
X16551Y14919D01*
X19009Y14919D02*
X19138Y14919D01*
X21502Y14919D02*
X21678Y14919D01*
X24042Y14919D02*
X24218Y14919D01*
X26582Y14919D02*
X26758Y14919D01*
X29122Y14919D02*
X29298Y14919D01*
X31662Y14919D02*
X31838Y14919D01*
X34202Y14919D02*
X34378Y14919D01*
X36742Y14919D02*
X52029Y14919D01*
X1112Y14968D02*
X16551Y14968D01*
X19009Y14968D02*
X19121Y14968D01*
X21519Y14968D02*
X21661Y14968D01*
X24059Y14968D02*
X24201Y14968D01*
X26599Y14968D02*
X26741Y14968D01*
X29139Y14968D02*
X29281Y14968D01*
X31679Y14968D02*
X31821Y14968D01*
X34219Y14968D02*
X34361Y14968D01*
X36759Y14968D02*
X52017Y14968D01*
X1127Y15018D02*
X16551Y15018D01*
X19009Y15018D02*
X19116Y15018D01*
X21524Y15018D02*
X21656Y15018D01*
X24064Y15018D02*
X24196Y15018D01*
X26604Y15018D02*
X26736Y15018D01*
X29144Y15018D02*
X29276Y15018D01*
X31684Y15018D02*
X31816Y15018D01*
X34224Y15018D02*
X34356Y15018D01*
X36764Y15018D02*
X52005Y15018D01*
X1142Y15067D02*
X16551Y15067D01*
X19009Y15067D02*
X19110Y15067D01*
X21530Y15067D02*
X21650Y15067D01*
X24070Y15067D02*
X24190Y15067D01*
X26610Y15067D02*
X26730Y15067D01*
X29150Y15067D02*
X29270Y15067D01*
X31690Y15067D02*
X31810Y15067D01*
X34230Y15067D02*
X34350Y15067D01*
X36770Y15067D02*
X51992Y15067D01*
X1157Y15117D02*
X16551Y15117D01*
X19009Y15117D02*
X19105Y15117D01*
X21535Y15117D02*
X21645Y15117D01*
X24075Y15117D02*
X24185Y15117D01*
X26615Y15117D02*
X26725Y15117D01*
X29155Y15117D02*
X29265Y15117D01*
X31695Y15117D02*
X31805Y15117D01*
X34235Y15117D02*
X34345Y15117D01*
X36775Y15117D02*
X51980Y15117D01*
X1171Y15166D02*
X16551Y15166D01*
X19009Y15166D02*
X19106Y15166D01*
X21534Y15166D02*
X21646Y15166D01*
X24074Y15166D02*
X24186Y15166D01*
X26614Y15166D02*
X26719Y15166D01*
X29161Y15166D02*
X29259Y15166D01*
X31701Y15166D02*
X31799Y15166D01*
X34241Y15166D02*
X34339Y15166D01*
X36781Y15166D02*
X51967Y15166D01*
X1186Y15216D02*
X16551Y15216D01*
X19009Y15216D02*
X19314Y15216D01*
X21326Y15216D02*
X21854Y15216D01*
X23866Y15216D02*
X24394Y15216D01*
X26406Y15216D02*
X26713Y15216D01*
X29167Y15216D02*
X29253Y15216D01*
X31707Y15216D02*
X31793Y15216D01*
X34247Y15216D02*
X34333Y15216D01*
X36787Y15216D02*
X51955Y15216D01*
X1201Y15265D02*
X16551Y15265D01*
X19009Y15265D02*
X19314Y15265D01*
X21326Y15265D02*
X21854Y15265D01*
X23866Y15265D02*
X24394Y15265D01*
X26406Y15265D02*
X26714Y15265D01*
X29166Y15265D02*
X29254Y15265D01*
X31706Y15265D02*
X31794Y15265D01*
X34246Y15265D02*
X34334Y15265D01*
X36786Y15265D02*
X51943Y15265D01*
X1216Y15315D02*
X16551Y15315D01*
X19009Y15315D02*
X19105Y15315D01*
X21535Y15315D02*
X21645Y15315D01*
X24075Y15315D02*
X24185Y15315D01*
X26615Y15315D02*
X26719Y15315D01*
X29161Y15315D02*
X29259Y15315D01*
X31701Y15315D02*
X31799Y15315D01*
X34241Y15315D02*
X34339Y15315D01*
X36781Y15315D02*
X51930Y15315D01*
X1231Y15364D02*
X16551Y15364D01*
X19009Y15364D02*
X19105Y15364D01*
X21535Y15364D02*
X21645Y15364D01*
X24075Y15364D02*
X24185Y15364D01*
X26615Y15364D02*
X26725Y15364D01*
X29155Y15364D02*
X29265Y15364D01*
X31695Y15364D02*
X31805Y15364D01*
X34235Y15364D02*
X34345Y15364D01*
X36775Y15364D02*
X51918Y15364D01*
X1245Y15414D02*
X16551Y15414D01*
X19009Y15414D02*
X19110Y15414D01*
X21530Y15414D02*
X21650Y15414D01*
X24070Y15414D02*
X24190Y15414D01*
X26610Y15414D02*
X26730Y15414D01*
X29150Y15414D02*
X29270Y15414D01*
X31690Y15414D02*
X31810Y15414D01*
X34230Y15414D02*
X34350Y15414D01*
X36770Y15414D02*
X51906Y15414D01*
X1260Y15464D02*
X16551Y15464D01*
X19009Y15464D02*
X19116Y15464D01*
X21524Y15464D02*
X21656Y15464D01*
X24064Y15464D02*
X24196Y15464D01*
X26604Y15464D02*
X26736Y15464D01*
X29144Y15464D02*
X29276Y15464D01*
X31684Y15464D02*
X31816Y15464D01*
X34224Y15464D02*
X34356Y15464D01*
X36764Y15464D02*
X51893Y15464D01*
X1275Y15513D02*
X16551Y15513D01*
X19009Y15513D02*
X19122Y15513D01*
X21518Y15513D02*
X21662Y15513D01*
X24058Y15513D02*
X24202Y15513D01*
X26598Y15513D02*
X26742Y15513D01*
X29138Y15513D02*
X29282Y15513D01*
X31678Y15513D02*
X31822Y15513D01*
X34218Y15513D02*
X34362Y15513D01*
X36758Y15513D02*
X51881Y15513D01*
X1290Y15563D02*
X16551Y15563D01*
X19009Y15563D02*
X19139Y15563D01*
X21501Y15563D02*
X21679Y15563D01*
X24041Y15563D02*
X24219Y15563D01*
X26581Y15563D02*
X26759Y15563D01*
X29121Y15563D02*
X29299Y15563D01*
X31661Y15563D02*
X31839Y15563D01*
X34201Y15563D02*
X34379Y15563D01*
X36741Y15563D02*
X51868Y15563D01*
X1305Y15612D02*
X16551Y15612D01*
X19009Y15612D02*
X19156Y15612D01*
X21484Y15612D02*
X21696Y15612D01*
X24024Y15612D02*
X24236Y15612D01*
X26564Y15612D02*
X26776Y15612D01*
X29104Y15612D02*
X29316Y15612D01*
X31644Y15612D02*
X31856Y15612D01*
X34184Y15612D02*
X34396Y15612D01*
X36724Y15612D02*
X51856Y15612D01*
X1320Y15662D02*
X16551Y15662D01*
X19009Y15662D02*
X19173Y15662D01*
X21467Y15662D02*
X21713Y15662D01*
X24007Y15662D02*
X24253Y15662D01*
X26547Y15662D02*
X26793Y15662D01*
X29087Y15662D02*
X29333Y15662D01*
X31627Y15662D02*
X31873Y15662D01*
X34167Y15662D02*
X34413Y15662D01*
X36707Y15662D02*
X51844Y15662D01*
X1334Y15711D02*
X16551Y15711D01*
X19009Y15711D02*
X19191Y15711D01*
X21449Y15711D02*
X21731Y15711D01*
X23989Y15711D02*
X24271Y15711D01*
X26529Y15711D02*
X26811Y15711D01*
X29069Y15711D02*
X29351Y15711D01*
X31609Y15711D02*
X31891Y15711D01*
X34149Y15711D02*
X34431Y15711D01*
X36689Y15711D02*
X51831Y15711D01*
X1349Y15761D02*
X16551Y15761D01*
X19009Y15761D02*
X19208Y15761D01*
X21432Y15761D02*
X21748Y15761D01*
X23972Y15761D02*
X24288Y15761D01*
X26512Y15761D02*
X26828Y15761D01*
X29052Y15761D02*
X29368Y15761D01*
X31592Y15761D02*
X31908Y15761D01*
X34132Y15761D02*
X34448Y15761D01*
X36672Y15761D02*
X51819Y15761D01*
X1364Y15810D02*
X16551Y15810D01*
X19009Y15810D02*
X19236Y15810D01*
X21404Y15810D02*
X21776Y15810D01*
X23944Y15810D02*
X24316Y15810D01*
X26484Y15810D02*
X26856Y15810D01*
X29024Y15810D02*
X29396Y15810D01*
X31564Y15810D02*
X31936Y15810D01*
X34104Y15810D02*
X34476Y15810D01*
X36644Y15810D02*
X51806Y15810D01*
X1379Y15860D02*
X16551Y15860D01*
X19009Y15860D02*
X19267Y15860D01*
X21373Y15860D02*
X21807Y15860D01*
X23913Y15860D02*
X24347Y15860D01*
X26453Y15860D02*
X26887Y15860D01*
X28993Y15860D02*
X29427Y15860D01*
X31533Y15860D02*
X31967Y15860D01*
X34073Y15860D02*
X34507Y15860D01*
X36613Y15860D02*
X51794Y15860D01*
X1394Y15909D02*
X16551Y15909D01*
X19009Y15909D02*
X19298Y15909D01*
X21342Y15909D02*
X21838Y15909D01*
X23882Y15909D02*
X24378Y15909D01*
X26422Y15909D02*
X26918Y15909D01*
X28962Y15909D02*
X29458Y15909D01*
X31502Y15909D02*
X31998Y15909D01*
X34042Y15909D02*
X34538Y15909D01*
X36582Y15909D02*
X51782Y15909D01*
X1409Y15959D02*
X16551Y15959D01*
X19009Y15959D02*
X19329Y15959D01*
X21311Y15959D02*
X21869Y15959D01*
X23851Y15959D02*
X24409Y15959D01*
X26391Y15959D02*
X26949Y15959D01*
X28931Y15959D02*
X29489Y15959D01*
X31471Y15959D02*
X32029Y15959D01*
X34011Y15959D02*
X34569Y15959D01*
X36551Y15959D02*
X51769Y15959D01*
X1423Y16008D02*
X16551Y16008D01*
X19009Y16008D02*
X19361Y16008D01*
X21279Y16008D02*
X21901Y16008D01*
X23819Y16008D02*
X24441Y16008D01*
X26359Y16008D02*
X26981Y16008D01*
X28899Y16008D02*
X29521Y16008D01*
X31439Y16008D02*
X32061Y16008D01*
X33979Y16008D02*
X34601Y16008D01*
X36519Y16008D02*
X51757Y16008D01*
X1438Y16058D02*
X16551Y16058D01*
X19009Y16058D02*
X19410Y16058D01*
X21230Y16058D02*
X21950Y16058D01*
X23770Y16058D02*
X24490Y16058D01*
X26310Y16058D02*
X27030Y16058D01*
X28850Y16058D02*
X29570Y16058D01*
X31390Y16058D02*
X32110Y16058D01*
X33930Y16058D02*
X34650Y16058D01*
X36470Y16058D02*
X51745Y16058D01*
X1453Y16107D02*
X16551Y16107D01*
X19009Y16107D02*
X19460Y16107D01*
X21180Y16107D02*
X22000Y16107D01*
X23720Y16107D02*
X24540Y16107D01*
X26260Y16107D02*
X27080Y16107D01*
X28800Y16107D02*
X29620Y16107D01*
X31340Y16107D02*
X32160Y16107D01*
X33880Y16107D02*
X34700Y16107D01*
X36420Y16107D02*
X51732Y16107D01*
X1468Y16157D02*
X16551Y16157D01*
X19009Y16157D02*
X19509Y16157D01*
X21131Y16157D02*
X22049Y16157D01*
X23671Y16157D02*
X24589Y16157D01*
X26211Y16157D02*
X27129Y16157D01*
X28751Y16157D02*
X29669Y16157D01*
X31291Y16157D02*
X32209Y16157D01*
X33831Y16157D02*
X34749Y16157D01*
X36371Y16157D02*
X51720Y16157D01*
X1483Y16206D02*
X16551Y16206D01*
X19009Y16206D02*
X19562Y16206D01*
X21078Y16206D02*
X22102Y16206D01*
X23618Y16206D02*
X24642Y16206D01*
X26158Y16206D02*
X27182Y16206D01*
X28698Y16206D02*
X29722Y16206D01*
X31238Y16206D02*
X32262Y16206D01*
X33778Y16206D02*
X34802Y16206D01*
X36318Y16206D02*
X51707Y16206D01*
X1498Y16256D02*
X16551Y16256D01*
X19009Y16256D02*
X19641Y16256D01*
X20256Y16256D02*
X20384Y16256D01*
X20999Y16256D02*
X22181Y16256D01*
X22797Y16256D02*
X22924Y16256D01*
X23539Y16256D02*
X24721Y16256D01*
X25337Y16256D02*
X25463Y16256D01*
X26079Y16256D02*
X27261Y16256D01*
X28619Y16256D02*
X29801Y16256D01*
X31159Y16256D02*
X32341Y16256D01*
X33699Y16256D02*
X34881Y16256D01*
X36239Y16256D02*
X51695Y16256D01*
X1512Y16306D02*
X16555Y16306D01*
X19005Y16306D02*
X19720Y16306D01*
X20256Y16306D02*
X20384Y16306D01*
X20920Y16306D02*
X22260Y16306D01*
X22797Y16306D02*
X22924Y16306D01*
X23460Y16306D02*
X24800Y16306D01*
X25337Y16306D02*
X25463Y16306D01*
X26000Y16306D02*
X27340Y16306D01*
X28540Y16306D02*
X29880Y16306D01*
X31080Y16306D02*
X32420Y16306D01*
X33620Y16306D02*
X34960Y16306D01*
X36160Y16306D02*
X51683Y16306D01*
X1527Y16355D02*
X16572Y16355D01*
X18988Y16355D02*
X19808Y16355D01*
X20256Y16355D02*
X20384Y16355D01*
X20832Y16355D02*
X22348Y16355D01*
X22797Y16355D02*
X22924Y16355D01*
X23372Y16355D02*
X24888Y16355D01*
X25337Y16355D02*
X25463Y16355D01*
X25912Y16355D02*
X27428Y16355D01*
X28452Y16355D02*
X29968Y16355D01*
X30992Y16355D02*
X32508Y16355D01*
X33532Y16355D02*
X35048Y16355D01*
X36072Y16355D02*
X51670Y16355D01*
X1542Y16405D02*
X16606Y16405D01*
X18954Y16405D02*
X19949Y16405D01*
X20256Y16405D02*
X20384Y16405D01*
X20691Y16405D02*
X22489Y16405D01*
X22797Y16405D02*
X22924Y16405D01*
X23231Y16405D02*
X25029Y16405D01*
X25337Y16405D02*
X25463Y16405D01*
X25771Y16405D02*
X27569Y16405D01*
X28311Y16405D02*
X30109Y16405D01*
X30851Y16405D02*
X32649Y16405D01*
X33391Y16405D02*
X35189Y16405D01*
X35931Y16405D02*
X51658Y16405D01*
X1557Y16454D02*
X16679Y16454D01*
X18881Y16454D02*
X20185Y16454D01*
X20246Y16454D02*
X20394Y16454D01*
X20455Y16454D02*
X22725Y16454D01*
X22786Y16454D02*
X22934Y16454D01*
X22995Y16454D02*
X25265Y16454D01*
X25326Y16454D02*
X25474Y16454D01*
X25535Y16454D02*
X27805Y16454D01*
X28075Y16454D02*
X30345Y16454D01*
X30615Y16454D02*
X32714Y16454D01*
X33326Y16454D02*
X35254Y16454D01*
X35866Y16454D02*
X51645Y16454D01*
X1572Y16504D02*
X32714Y16504D01*
X33326Y16504D02*
X35254Y16504D01*
X35866Y16504D02*
X51633Y16504D01*
X1587Y16553D02*
X17757Y16553D01*
X17803Y16553D02*
X27917Y16553D01*
X27963Y16553D02*
X30457Y16553D01*
X30503Y16553D02*
X32714Y16553D01*
X33326Y16553D02*
X35254Y16553D01*
X35866Y16553D02*
X51621Y16553D01*
X1601Y16603D02*
X17446Y16603D01*
X18114Y16603D02*
X19986Y16603D01*
X20256Y16603D02*
X20384Y16603D01*
X20654Y16603D02*
X22526Y16603D01*
X22797Y16603D02*
X22924Y16603D01*
X23194Y16603D02*
X25066Y16603D01*
X25337Y16603D02*
X25463Y16603D01*
X25734Y16603D02*
X27606Y16603D01*
X28274Y16603D02*
X30146Y16603D01*
X30814Y16603D02*
X32686Y16603D01*
X33354Y16603D02*
X35226Y16603D01*
X35894Y16603D02*
X51608Y16603D01*
X1616Y16652D02*
X17304Y16652D01*
X18256Y16652D02*
X19844Y16652D01*
X20256Y16652D02*
X20384Y16652D01*
X20796Y16652D02*
X22384Y16652D01*
X22797Y16652D02*
X22924Y16652D01*
X23336Y16652D02*
X24924Y16652D01*
X25337Y16652D02*
X25463Y16652D01*
X25876Y16652D02*
X27464Y16652D01*
X28416Y16652D02*
X30004Y16652D01*
X30956Y16652D02*
X32544Y16652D01*
X33496Y16652D02*
X35084Y16652D01*
X36036Y16652D02*
X51596Y16652D01*
X1631Y16702D02*
X17200Y16702D01*
X18360Y16702D02*
X19740Y16702D01*
X20256Y16702D02*
X20384Y16702D01*
X20900Y16702D02*
X22280Y16702D01*
X22797Y16702D02*
X22924Y16702D01*
X23440Y16702D02*
X24820Y16702D01*
X25337Y16702D02*
X25463Y16702D01*
X25980Y16702D02*
X27360Y16702D01*
X28520Y16702D02*
X29900Y16702D01*
X31060Y16702D02*
X32440Y16702D01*
X33600Y16702D02*
X34980Y16702D01*
X36140Y16702D02*
X51584Y16702D01*
X1646Y16751D02*
X17121Y16751D01*
X18439Y16751D02*
X19661Y16751D01*
X20256Y16751D02*
X20384Y16751D01*
X20979Y16751D02*
X22201Y16751D01*
X22797Y16751D02*
X22924Y16751D01*
X23519Y16751D02*
X24741Y16751D01*
X25337Y16751D02*
X25463Y16751D01*
X26059Y16751D02*
X27281Y16751D01*
X28599Y16751D02*
X29821Y16751D01*
X31139Y16751D02*
X32361Y16751D01*
X33679Y16751D02*
X34901Y16751D01*
X36219Y16751D02*
X51571Y16751D01*
X1661Y16801D02*
X17042Y16801D01*
X18518Y16801D02*
X19582Y16801D01*
X21058Y16801D02*
X22122Y16801D01*
X23598Y16801D02*
X24662Y16801D01*
X26138Y16801D02*
X27202Y16801D01*
X28678Y16801D02*
X29742Y16801D01*
X31218Y16801D02*
X32282Y16801D01*
X33758Y16801D02*
X34822Y16801D01*
X36298Y16801D02*
X51558Y16801D01*
X1676Y16850D02*
X16982Y16850D01*
X18578Y16850D02*
X19522Y16850D01*
X21118Y16850D02*
X22062Y16850D01*
X23658Y16850D02*
X24602Y16850D01*
X26198Y16850D02*
X27142Y16850D01*
X28738Y16850D02*
X29682Y16850D01*
X31278Y16850D02*
X32222Y16850D01*
X33818Y16850D02*
X34762Y16850D01*
X36358Y16850D02*
X51545Y16850D01*
X1690Y16900D02*
X16932Y16900D01*
X18628Y16900D02*
X19472Y16900D01*
X21168Y16900D02*
X22012Y16900D01*
X23708Y16900D02*
X24552Y16900D01*
X26248Y16900D02*
X27092Y16900D01*
X28788Y16900D02*
X29632Y16900D01*
X31328Y16900D02*
X32172Y16900D01*
X33868Y16900D02*
X34712Y16900D01*
X36408Y16900D02*
X51531Y16900D01*
X1705Y16949D02*
X16883Y16949D01*
X18677Y16949D02*
X19423Y16949D01*
X21217Y16949D02*
X21963Y16949D01*
X23757Y16949D02*
X24503Y16949D01*
X26297Y16949D02*
X27043Y16949D01*
X28837Y16949D02*
X29583Y16949D01*
X31377Y16949D02*
X32123Y16949D01*
X33917Y16949D02*
X34663Y16949D01*
X36457Y16949D02*
X51518Y16949D01*
X1720Y16999D02*
X16833Y16999D01*
X18727Y16999D02*
X19373Y16999D01*
X21267Y16999D02*
X21913Y16999D01*
X23807Y16999D02*
X24453Y16999D01*
X26347Y16999D02*
X26993Y16999D01*
X28887Y16999D02*
X29533Y16999D01*
X31427Y16999D02*
X32073Y16999D01*
X33967Y16999D02*
X34613Y16999D01*
X36507Y16999D02*
X51504Y16999D01*
X1735Y17048D02*
X16797Y17048D01*
X18763Y17048D02*
X19337Y17048D01*
X21303Y17048D02*
X21877Y17048D01*
X23843Y17048D02*
X24417Y17048D01*
X26383Y17048D02*
X26957Y17048D01*
X28923Y17048D02*
X29497Y17048D01*
X31463Y17048D02*
X32037Y17048D01*
X34003Y17048D02*
X34577Y17048D01*
X36543Y17048D02*
X51491Y17048D01*
X1750Y17098D02*
X16766Y17098D01*
X18794Y17098D02*
X19306Y17098D01*
X21334Y17098D02*
X21846Y17098D01*
X23874Y17098D02*
X24386Y17098D01*
X26414Y17098D02*
X26926Y17098D01*
X28954Y17098D02*
X29466Y17098D01*
X31494Y17098D02*
X32006Y17098D01*
X34034Y17098D02*
X34546Y17098D01*
X36574Y17098D02*
X51477Y17098D01*
X1765Y17148D02*
X16735Y17148D01*
X18825Y17148D02*
X19275Y17148D01*
X21365Y17148D02*
X21815Y17148D01*
X23905Y17148D02*
X24355Y17148D01*
X26445Y17148D02*
X26895Y17148D01*
X28985Y17148D02*
X29435Y17148D01*
X31525Y17148D02*
X31975Y17148D01*
X34065Y17148D02*
X34515Y17148D01*
X36605Y17148D02*
X51464Y17148D01*
X1779Y17197D02*
X16704Y17197D01*
X18856Y17197D02*
X19244Y17197D01*
X21396Y17197D02*
X21784Y17197D01*
X23936Y17197D02*
X24324Y17197D01*
X26476Y17197D02*
X26864Y17197D01*
X29016Y17197D02*
X29404Y17197D01*
X31556Y17197D02*
X31944Y17197D01*
X34096Y17197D02*
X34484Y17197D01*
X36636Y17197D02*
X51451Y17197D01*
X1794Y17247D02*
X16673Y17247D01*
X18887Y17247D02*
X19213Y17247D01*
X21427Y17247D02*
X21753Y17247D01*
X23967Y17247D02*
X24293Y17247D01*
X26507Y17247D02*
X26833Y17247D01*
X29047Y17247D02*
X29373Y17247D01*
X31587Y17247D02*
X31913Y17247D01*
X34127Y17247D02*
X34453Y17247D01*
X36667Y17247D02*
X51437Y17247D01*
X1809Y17296D02*
X16655Y17296D01*
X18905Y17296D02*
X19195Y17296D01*
X21445Y17296D02*
X21735Y17296D01*
X23985Y17296D02*
X24275Y17296D01*
X26525Y17296D02*
X26815Y17296D01*
X29065Y17296D02*
X29355Y17296D01*
X31605Y17296D02*
X31895Y17296D01*
X34145Y17296D02*
X34435Y17296D01*
X36685Y17296D02*
X51424Y17296D01*
X1824Y17346D02*
X16638Y17346D01*
X18922Y17346D02*
X19178Y17346D01*
X21462Y17346D02*
X21718Y17346D01*
X24002Y17346D02*
X24258Y17346D01*
X26542Y17346D02*
X26798Y17346D01*
X29082Y17346D02*
X29338Y17346D01*
X31622Y17346D02*
X31878Y17346D01*
X34162Y17346D02*
X34418Y17346D01*
X36702Y17346D02*
X51410Y17346D01*
X1839Y17395D02*
X16620Y17395D01*
X18940Y17395D02*
X19160Y17395D01*
X21480Y17395D02*
X21700Y17395D01*
X24020Y17395D02*
X24240Y17395D01*
X26560Y17395D02*
X26780Y17395D01*
X29100Y17395D02*
X29320Y17395D01*
X31640Y17395D02*
X31860Y17395D01*
X34180Y17395D02*
X34400Y17395D01*
X36720Y17395D02*
X51397Y17395D01*
X1853Y17445D02*
X16603Y17445D01*
X18957Y17445D02*
X19143Y17445D01*
X21497Y17445D02*
X21683Y17445D01*
X24037Y17445D02*
X24223Y17445D01*
X26577Y17445D02*
X26763Y17445D01*
X29117Y17445D02*
X29303Y17445D01*
X31657Y17445D02*
X31843Y17445D01*
X34197Y17445D02*
X34383Y17445D01*
X36737Y17445D02*
X51383Y17445D01*
X1868Y17494D02*
X16586Y17494D01*
X18974Y17494D02*
X19126Y17494D01*
X21514Y17494D02*
X21666Y17494D01*
X24054Y17494D02*
X24206Y17494D01*
X26594Y17494D02*
X26746Y17494D01*
X29134Y17494D02*
X29286Y17494D01*
X31674Y17494D02*
X31826Y17494D01*
X34214Y17494D02*
X34366Y17494D01*
X36754Y17494D02*
X51370Y17494D01*
X1883Y17544D02*
X16577Y17544D01*
X18983Y17544D02*
X19117Y17544D01*
X21523Y17544D02*
X21657Y17544D01*
X24063Y17544D02*
X24197Y17544D01*
X26603Y17544D02*
X26737Y17544D01*
X29143Y17544D02*
X29277Y17544D01*
X31683Y17544D02*
X31817Y17544D01*
X34223Y17544D02*
X34357Y17544D01*
X36763Y17544D02*
X51356Y17544D01*
X1898Y17593D02*
X16572Y17593D01*
X18988Y17593D02*
X19112Y17593D01*
X21528Y17593D02*
X21652Y17593D01*
X24068Y17593D02*
X24192Y17593D01*
X26608Y17593D02*
X26732Y17593D01*
X29148Y17593D02*
X29272Y17593D01*
X31688Y17593D02*
X31812Y17593D01*
X34228Y17593D02*
X34352Y17593D01*
X36768Y17593D02*
X51343Y17593D01*
X1913Y17643D02*
X16566Y17643D01*
X18994Y17643D02*
X19106Y17643D01*
X21534Y17643D02*
X21646Y17643D01*
X24074Y17643D02*
X24186Y17643D01*
X26614Y17643D02*
X26726Y17643D01*
X29154Y17643D02*
X29266Y17643D01*
X31694Y17643D02*
X31806Y17643D01*
X34234Y17643D02*
X34346Y17643D01*
X36774Y17643D02*
X51329Y17643D01*
X1928Y17692D02*
X16561Y17692D01*
X18999Y17692D02*
X19101Y17692D01*
X21539Y17692D02*
X21641Y17692D01*
X24079Y17692D02*
X24181Y17692D01*
X26619Y17692D02*
X26721Y17692D01*
X29159Y17692D02*
X29261Y17692D01*
X31699Y17692D02*
X31801Y17692D01*
X34239Y17692D02*
X34341Y17692D01*
X36779Y17692D02*
X51316Y17692D01*
X1942Y17742D02*
X16555Y17742D01*
X19005Y17742D02*
X19314Y17742D01*
X21326Y17742D02*
X21854Y17742D01*
X23866Y17742D02*
X24394Y17742D01*
X26406Y17742D02*
X26715Y17742D01*
X29165Y17742D02*
X29255Y17742D01*
X31705Y17742D02*
X31795Y17742D01*
X34245Y17742D02*
X34335Y17742D01*
X36785Y17742D02*
X51303Y17742D01*
X1957Y17791D02*
X16552Y17791D01*
X19008Y17791D02*
X19314Y17791D01*
X21326Y17791D02*
X21854Y17791D01*
X23866Y17791D02*
X24394Y17791D01*
X26406Y17791D02*
X26712Y17791D01*
X29168Y17791D02*
X29252Y17791D01*
X31708Y17791D02*
X31792Y17791D01*
X34248Y17791D02*
X34332Y17791D01*
X36788Y17791D02*
X51289Y17791D01*
X1972Y17841D02*
X16558Y17841D01*
X19002Y17841D02*
X19314Y17841D01*
X21326Y17841D02*
X21854Y17841D01*
X23866Y17841D02*
X24394Y17841D01*
X26406Y17841D02*
X26718Y17841D01*
X29162Y17841D02*
X29258Y17841D01*
X31702Y17841D02*
X31798Y17841D01*
X34242Y17841D02*
X34338Y17841D01*
X36782Y17841D02*
X51276Y17841D01*
X1987Y17890D02*
X16563Y17890D01*
X18997Y17890D02*
X19103Y17890D01*
X21537Y17890D02*
X21643Y17890D01*
X24077Y17890D02*
X24183Y17890D01*
X26617Y17890D02*
X26723Y17890D01*
X29157Y17890D02*
X29263Y17890D01*
X31697Y17890D02*
X31803Y17890D01*
X34237Y17890D02*
X34343Y17890D01*
X36777Y17890D02*
X51262Y17890D01*
X2002Y17940D02*
X16569Y17940D01*
X18991Y17940D02*
X19109Y17940D01*
X21531Y17940D02*
X21649Y17940D01*
X24071Y17940D02*
X24189Y17940D01*
X26611Y17940D02*
X26729Y17940D01*
X29151Y17940D02*
X29269Y17940D01*
X31691Y17940D02*
X31809Y17940D01*
X34231Y17940D02*
X34349Y17940D01*
X36771Y17940D02*
X51249Y17940D01*
X2017Y17990D02*
X16574Y17990D01*
X18986Y17990D02*
X19114Y17990D01*
X21526Y17990D02*
X21654Y17990D01*
X24066Y17990D02*
X24194Y17990D01*
X26606Y17990D02*
X26734Y17990D01*
X29146Y17990D02*
X29274Y17990D01*
X31686Y17990D02*
X31814Y17990D01*
X34226Y17990D02*
X34354Y17990D01*
X36766Y17990D02*
X51235Y17990D01*
X2031Y18039D02*
X16580Y18039D01*
X18980Y18039D02*
X19120Y18039D01*
X21520Y18039D02*
X21660Y18039D01*
X24060Y18039D02*
X24200Y18039D01*
X26600Y18039D02*
X26740Y18039D01*
X29140Y18039D02*
X29280Y18039D01*
X31680Y18039D02*
X31820Y18039D01*
X34220Y18039D02*
X34360Y18039D01*
X36760Y18039D02*
X51222Y18039D01*
X2046Y18089D02*
X16594Y18089D01*
X18966Y18089D02*
X19134Y18089D01*
X21506Y18089D02*
X21674Y18089D01*
X24046Y18089D02*
X24214Y18089D01*
X26586Y18089D02*
X26754Y18089D01*
X29126Y18089D02*
X29294Y18089D01*
X31666Y18089D02*
X31834Y18089D01*
X34206Y18089D02*
X34374Y18089D01*
X36746Y18089D02*
X51208Y18089D01*
X2061Y18138D02*
X16611Y18138D01*
X18949Y18138D02*
X19151Y18138D01*
X21489Y18138D02*
X21691Y18138D01*
X24029Y18138D02*
X24231Y18138D01*
X26569Y18138D02*
X26771Y18138D01*
X29109Y18138D02*
X29311Y18138D01*
X31649Y18138D02*
X31851Y18138D01*
X34189Y18138D02*
X34391Y18138D01*
X36729Y18138D02*
X51195Y18138D01*
X2076Y18188D02*
X16628Y18188D01*
X18932Y18188D02*
X19168Y18188D01*
X21472Y18188D02*
X21708Y18188D01*
X24012Y18188D02*
X24248Y18188D01*
X26552Y18188D02*
X26788Y18188D01*
X29092Y18188D02*
X29328Y18188D01*
X31632Y18188D02*
X31868Y18188D01*
X34172Y18188D02*
X34408Y18188D01*
X36712Y18188D02*
X51181Y18188D01*
X2091Y18237D02*
X16646Y18237D01*
X18914Y18237D02*
X19186Y18237D01*
X21454Y18237D02*
X21726Y18237D01*
X23994Y18237D02*
X24266Y18237D01*
X26534Y18237D02*
X26806Y18237D01*
X29074Y18237D02*
X29346Y18237D01*
X31614Y18237D02*
X31886Y18237D01*
X34154Y18237D02*
X34426Y18237D01*
X36694Y18237D02*
X51168Y18237D01*
X2106Y18287D02*
X16663Y18287D01*
X18897Y18287D02*
X19203Y18287D01*
X21437Y18287D02*
X21743Y18287D01*
X23977Y18287D02*
X24283Y18287D01*
X26517Y18287D02*
X26823Y18287D01*
X29057Y18287D02*
X29363Y18287D01*
X31597Y18287D02*
X31903Y18287D01*
X34137Y18287D02*
X34443Y18287D01*
X36677Y18287D02*
X51154Y18287D01*
X2120Y18336D02*
X16687Y18336D01*
X18873Y18336D02*
X19227Y18336D01*
X21413Y18336D02*
X21767Y18336D01*
X23953Y18336D02*
X24307Y18336D01*
X26493Y18336D02*
X26847Y18336D01*
X29033Y18336D02*
X29387Y18336D01*
X31573Y18336D02*
X31927Y18336D01*
X34113Y18336D02*
X34467Y18336D01*
X36653Y18336D02*
X51141Y18336D01*
X2135Y18386D02*
X16718Y18386D01*
X18842Y18386D02*
X19258Y18386D01*
X21382Y18386D02*
X21798Y18386D01*
X23922Y18386D02*
X24338Y18386D01*
X26462Y18386D02*
X26878Y18386D01*
X29002Y18386D02*
X29418Y18386D01*
X31542Y18386D02*
X31958Y18386D01*
X34082Y18386D02*
X34498Y18386D01*
X36622Y18386D02*
X51128Y18386D01*
X2150Y18435D02*
X16749Y18435D01*
X18811Y18435D02*
X19289Y18435D01*
X21351Y18435D02*
X21829Y18435D01*
X23891Y18435D02*
X24369Y18435D01*
X26431Y18435D02*
X26909Y18435D01*
X28971Y18435D02*
X29449Y18435D01*
X31511Y18435D02*
X31989Y18435D01*
X34051Y18435D02*
X34529Y18435D01*
X36591Y18435D02*
X51114Y18435D01*
X2165Y18485D02*
X16780Y18485D01*
X18780Y18485D02*
X19320Y18485D01*
X21320Y18485D02*
X21860Y18485D01*
X23860Y18485D02*
X24400Y18485D01*
X26400Y18485D02*
X26940Y18485D01*
X28940Y18485D02*
X29480Y18485D01*
X31480Y18485D02*
X32020Y18485D01*
X34020Y18485D02*
X34560Y18485D01*
X36560Y18485D02*
X51101Y18485D01*
X2180Y18534D02*
X16811Y18534D01*
X18749Y18534D02*
X19351Y18534D01*
X21289Y18534D02*
X21891Y18534D01*
X23829Y18534D02*
X24431Y18534D01*
X26369Y18534D02*
X26971Y18534D01*
X28909Y18534D02*
X29511Y18534D01*
X31449Y18534D02*
X32051Y18534D01*
X33989Y18534D02*
X34591Y18534D01*
X36529Y18534D02*
X51087Y18534D01*
X2195Y18584D02*
X16856Y18584D01*
X18704Y18584D02*
X19396Y18584D01*
X21244Y18584D02*
X21936Y18584D01*
X23784Y18584D02*
X24476Y18584D01*
X26324Y18584D02*
X27016Y18584D01*
X28864Y18584D02*
X29556Y18584D01*
X31404Y18584D02*
X32096Y18584D01*
X33944Y18584D02*
X34636Y18584D01*
X36484Y18584D02*
X51074Y18584D01*
X2209Y18633D02*
X16906Y18633D01*
X18654Y18633D02*
X19446Y18633D01*
X21194Y18633D02*
X21986Y18633D01*
X23734Y18633D02*
X24526Y18633D01*
X26274Y18633D02*
X27066Y18633D01*
X28814Y18633D02*
X29606Y18633D01*
X31354Y18633D02*
X32146Y18633D01*
X33894Y18633D02*
X34686Y18633D01*
X36434Y18633D02*
X51060Y18633D01*
X2224Y18683D02*
X16955Y18683D01*
X18605Y18683D02*
X19495Y18683D01*
X21145Y18683D02*
X22035Y18683D01*
X23685Y18683D02*
X24575Y18683D01*
X26225Y18683D02*
X27115Y18683D01*
X28765Y18683D02*
X29655Y18683D01*
X31305Y18683D02*
X32195Y18683D01*
X33845Y18683D02*
X34735Y18683D01*
X36385Y18683D02*
X51047Y18683D01*
X2239Y18733D02*
X17005Y18733D01*
X18555Y18733D02*
X19545Y18733D01*
X21095Y18733D02*
X22085Y18733D01*
X23635Y18733D02*
X24625Y18733D01*
X26175Y18733D02*
X27165Y18733D01*
X28715Y18733D02*
X29705Y18733D01*
X31255Y18733D02*
X32245Y18733D01*
X33795Y18733D02*
X34785Y18733D01*
X36335Y18733D02*
X51033Y18733D01*
X2254Y18782D02*
X17079Y18782D01*
X18481Y18782D02*
X19619Y18782D01*
X20256Y18782D02*
X20384Y18782D01*
X21021Y18782D02*
X22159Y18782D01*
X22797Y18782D02*
X22924Y18782D01*
X23561Y18782D02*
X24699Y18782D01*
X25337Y18782D02*
X25463Y18782D01*
X26101Y18782D02*
X27239Y18782D01*
X28641Y18782D02*
X29779Y18782D01*
X31181Y18782D02*
X32319Y18782D01*
X33721Y18782D02*
X34859Y18782D01*
X36261Y18782D02*
X51020Y18782D01*
X2269Y18832D02*
X17157Y18832D01*
X18403Y18832D02*
X19697Y18832D01*
X20256Y18832D02*
X20384Y18832D01*
X20943Y18832D02*
X22237Y18832D01*
X22797Y18832D02*
X22924Y18832D01*
X23483Y18832D02*
X24777Y18832D01*
X25337Y18832D02*
X25463Y18832D01*
X26023Y18832D02*
X27317Y18832D01*
X28563Y18832D02*
X29857Y18832D01*
X31103Y18832D02*
X32397Y18832D01*
X33643Y18832D02*
X34937Y18832D01*
X36183Y18832D02*
X51006Y18832D01*
X2284Y18881D02*
X17236Y18881D01*
X18324Y18881D02*
X19776Y18881D01*
X20256Y18881D02*
X20384Y18881D01*
X20864Y18881D02*
X22316Y18881D01*
X22797Y18881D02*
X22924Y18881D01*
X23404Y18881D02*
X24856Y18881D01*
X25337Y18881D02*
X25463Y18881D01*
X25944Y18881D02*
X27396Y18881D01*
X28484Y18881D02*
X29936Y18881D01*
X31024Y18881D02*
X32476Y18881D01*
X33564Y18881D02*
X35016Y18881D01*
X36104Y18881D02*
X50993Y18881D01*
X2298Y18931D02*
X17370Y18931D01*
X18190Y18931D02*
X19910Y18931D01*
X20256Y18931D02*
X20384Y18931D01*
X20730Y18931D02*
X22450Y18931D01*
X22797Y18931D02*
X22924Y18931D01*
X23270Y18931D02*
X24990Y18931D01*
X25337Y18931D02*
X25463Y18931D01*
X25810Y18931D02*
X27530Y18931D01*
X28350Y18931D02*
X30070Y18931D01*
X30890Y18931D02*
X32610Y18931D01*
X33430Y18931D02*
X35150Y18931D01*
X35970Y18931D02*
X50980Y18931D01*
X2313Y18980D02*
X17521Y18980D01*
X18039Y18980D02*
X20061Y18980D01*
X20256Y18980D02*
X20384Y18980D01*
X20579Y18980D02*
X22601Y18980D01*
X22797Y18980D02*
X22924Y18980D01*
X23119Y18980D02*
X25141Y18980D01*
X25337Y18980D02*
X25463Y18980D01*
X25659Y18980D02*
X27681Y18980D01*
X28199Y18980D02*
X30221Y18980D01*
X30739Y18980D02*
X32761Y18980D01*
X33279Y18980D02*
X35301Y18980D01*
X35819Y18980D02*
X50966Y18980D01*
X2328Y19030D02*
X50953Y19030D01*
X2343Y19079D02*
X50939Y19079D01*
X2358Y19129D02*
X50926Y19129D01*
X2373Y19178D02*
X50912Y19178D01*
X2387Y19228D02*
X50899Y19228D01*
X2402Y19277D02*
X50885Y19277D01*
X2417Y19327D02*
X50872Y19327D01*
X2432Y19376D02*
X50858Y19376D01*
X2447Y19426D02*
X50845Y19426D01*
X2461Y19475D02*
X50831Y19475D01*
X2476Y19525D02*
X50818Y19525D01*
X2491Y19575D02*
X50805Y19575D01*
X2506Y19624D02*
X50791Y19624D01*
X2521Y19674D02*
X50778Y19674D01*
X2536Y19723D02*
X50764Y19723D01*
X2550Y19773D02*
X50751Y19773D01*
X2565Y19822D02*
X50737Y19822D01*
X2580Y19872D02*
X50724Y19872D01*
X2595Y19921D02*
X50710Y19921D01*
X2610Y19971D02*
X50697Y19971D01*
X2625Y20020D02*
X50683Y20020D01*
X2639Y20070D02*
X50670Y20070D01*
X2654Y20119D02*
X50656Y20119D01*
X2669Y20169D02*
X50643Y20169D01*
X2684Y20218D02*
X50630Y20218D01*
X2699Y20268D02*
X50616Y20268D01*
X2714Y20317D02*
X50603Y20317D01*
X2728Y20367D02*
X50589Y20367D01*
X2743Y20417D02*
X50576Y20417D01*
X2758Y20466D02*
X50562Y20466D01*
X2773Y20516D02*
X50549Y20516D01*
X2788Y20565D02*
X50535Y20565D01*
X2803Y20615D02*
X50522Y20615D01*
X2817Y20664D02*
X50508Y20664D01*
X2832Y20714D02*
X50495Y20714D01*
X2847Y20763D02*
X50482Y20763D01*
X2862Y20813D02*
X50468Y20813D01*
X2877Y20862D02*
X50455Y20862D01*
X2892Y20912D02*
X50441Y20912D01*
X2906Y20961D02*
X50428Y20961D01*
X2921Y21011D02*
X50414Y21011D01*
X2936Y21060D02*
X50401Y21060D01*
X2951Y21110D02*
X50387Y21110D01*
X32407Y9371D02*
X32407Y9371D01*
X32269Y9493*
X32267Y9495*
X32132Y9692*
X32130Y9695*
X32070Y9854*
X31430Y9854*
X31370Y9695*
X31368Y9692*
X31233Y9495*
X31231Y9493*
X31093Y9371*
X31112Y9322*
X32388Y9322*
X32407Y9371*
X31102Y9346D02*
X32398Y9346D01*
X31121Y9395D02*
X32379Y9395D01*
X31177Y9445D02*
X32323Y9445D01*
X31232Y9495D02*
X32268Y9495D01*
X31266Y9544D02*
X32234Y9544D01*
X31301Y9594D02*
X32199Y9594D01*
X31335Y9643D02*
X32165Y9643D01*
X31369Y9693D02*
X32131Y9693D01*
X31388Y9742D02*
X32112Y9742D01*
X31407Y9792D02*
X32093Y9792D01*
X31425Y9841D02*
X32075Y9841D01*
X37096Y9854D02*
X37096Y9854D01*
X36510Y9854*
X36450Y9695*
X36448Y9692*
X36313Y9495*
X36311Y9493*
X36173Y9371*
X36192Y9322*
X37096Y9322*
X37096Y9854*
X36182Y9346D02*
X37096Y9346D01*
X36201Y9395D02*
X37096Y9395D01*
X36257Y9445D02*
X37096Y9445D01*
X36312Y9495D02*
X37096Y9495D01*
X36346Y9544D02*
X37096Y9544D01*
X36381Y9594D02*
X37096Y9594D01*
X36415Y9643D02*
X37096Y9643D01*
X36449Y9693D02*
X37096Y9693D01*
X36468Y9742D02*
X37096Y9742D01*
X36487Y9792D02*
X37096Y9792D01*
X36505Y9841D02*
X37096Y9841D01*
%LNtop copper_traces*%
D11*
X35560Y10160D02*
X35560Y17145D01*
X35560Y10160D02*
X38100Y10160D01*
X30480Y10160D02*
X33020Y10160D01*
X33020Y17145*
D12*
X49530Y6350D03*
X50800Y17780D03*
X2540Y17780D03*
X52070Y6350D03*
X39370Y11684D03*
X52070Y11430D03*
X31750Y11684D03*
X49530Y11430D03*
X29210Y16510D03*
X36830Y11684D03*
X39370Y16510D03*
X36830Y16510D03*
X5080Y20320D03*
X34290Y11684D03*
X46990Y6350D03*
X31750Y16510D03*
X46990Y16510D03*
X6350Y15240D03*
X3175Y19050D03*
X50165Y19050D03*
X49530Y8890D03*
X6350Y11430D03*
X29210Y11684D03*
X41910Y16510D03*
X52070Y8890D03*
X4445Y13335D03*
X48260Y13970D03*
X46990Y8890D03*
X34290Y16510D03*
X49530Y20320D03*
X48260Y20320D03*
X3810Y20320D03*
X8255Y13335D03*
X44450Y16510D03*
%LNtop copper component 8889ed7dfd5d4ee6*%
D13*
X48260Y5080D03*
X48260Y2540D03*
X50800Y5080D03*
X50800Y2540D03*
%LNtop copper component 623ee35cf69bd608*%
D14*
X35560Y10160D03*
X33020Y10160D03*
X30480Y10160D03*
D15*
X38100Y10160D03*
%LNtop copper component d1eda6cb61111443*%
D13*
X2540Y5080D03*
X2540Y2540D03*
X5080Y5080D03*
X5080Y2540D03*
%LNtop copper component dc50f5f4f936a7c6*%
D16*
X20320Y15240D03*
X22860Y15240D03*
X25400Y15240D03*
X27940Y15240D03*
X30480Y15240D03*
X33020Y15240D03*
X35560Y15240D03*
X17780Y17780D03*
X20320Y17780D03*
X22860Y17780D03*
X25400Y17780D03*
X27940Y17780D03*
X30480Y17780D03*
X33020Y17780D03*
X35560Y17780D03*
D17*
X17780Y15240D03*
M02*