%FSLAX33Y33*%
%MOMM*%
%LNbottom silkscreen_traces*%
%LNtext*%
G36*
G01*
X27593Y19685D02*
X27593Y20594D01*
X27252Y20594D01*
X27202Y20592D01*
X27158Y20587D01*
X27119Y20579D01*
X27085Y20566D01*
X27055Y20551D01*
X27029Y20531D01*
X27006Y20508D01*
X26986Y20482D01*
X26971Y20453D01*
X26959Y20423D01*
X26953Y20393D01*
X26951Y20362D01*
X26953Y20333D01*
X26958Y20305D01*
X26968Y20278D01*
X26982Y20252D01*
X27000Y20227D01*
X27022Y20205D01*
X27048Y20186D01*
X27078Y20169D01*
X27113Y20083D01*
X27129Y20090D01*
X27155Y20096D01*
X27186Y20101D01*
X27222Y20104D01*
X27262Y20105D01*
X27473Y20105D01*
X27473Y19792D01*
X27473Y19792D01*
X27246Y19792D01*
X27219Y19793D01*
X27197Y19793D01*
X27178Y19795D01*
X27164Y19797D01*
X27145Y19801D01*
X27126Y19807D01*
X27110Y19813D01*
X27095Y19821D01*
X27082Y19831D01*
X27070Y19843D01*
X27059Y19856D01*
X27049Y19872D01*
X27041Y19889D01*
X27036Y19908D01*
X27032Y19927D01*
X27031Y19949D01*
X27033Y19973D01*
X27038Y19996D01*
X27046Y20017D01*
X27057Y20037D01*
X27071Y20054D01*
X27088Y20069D01*
X27108Y20081D01*
X27113Y20083D01*
X27078Y20169D01*
X27121Y20241D01*
X27105Y20253D01*
X27092Y20268D01*
X27082Y20285D01*
X27075Y20304D01*
X27070Y20324D01*
X27069Y20347D01*
X27070Y20369D01*
X27074Y20390D01*
X27081Y20409D01*
X27091Y20427D01*
X27103Y20443D01*
X27117Y20456D01*
X27134Y20466D01*
X27153Y20474D01*
X27176Y20480D01*
X27207Y20484D01*
X27246Y20486D01*
X27291Y20487D01*
X27473Y20487D01*
X27473Y20212D01*
X27473Y20212D01*
X27276Y20212D01*
X27239Y20213D01*
X27207Y20215D01*
X27182Y20218D01*
X27161Y20223D01*
X27140Y20231D01*
X27121Y20241D01*
X27078Y20169D01*
X27039Y20154D01*
X27005Y20136D01*
X26975Y20113D01*
X26951Y20086D01*
X26931Y20056D01*
X26918Y20023D01*
X26909Y19987D01*
X26907Y19949D01*
X26908Y19917D01*
X26913Y19887D01*
X26922Y19858D01*
X26933Y19830D01*
X26948Y19804D01*
X26964Y19781D01*
X26981Y19762D01*
X27000Y19745D01*
X27021Y19731D01*
X27045Y19719D01*
X27071Y19709D01*
X27100Y19700D01*
X27131Y19694D01*
X27166Y19689D01*
X27205Y19686D01*
X27246Y19685D01*
X27593Y19685D01*
X27593Y19685D01*
X26756Y19685D02*
X26756Y20344D01*
X26656Y20344D01*
X26656Y20244D01*
X26637Y20276D01*
X26619Y20302D01*
X26602Y20322D01*
X26585Y20336D01*
X26568Y20346D01*
X26551Y20353D01*
X26532Y20357D01*
X26513Y20358D01*
X26485Y20356D01*
X26456Y20349D01*
X26428Y20338D01*
X26399Y20322D01*
X26437Y20219D01*
X26458Y20230D01*
X26478Y20237D01*
X26498Y20242D01*
X26519Y20243D01*
X26537Y20242D01*
X26554Y20238D01*
X26570Y20231D01*
X26585Y20221D01*
X26598Y20209D01*
X26610Y20195D01*
X26619Y20178D01*
X26626Y20160D01*
X26634Y20130D01*
X26640Y20098D01*
X26644Y20064D01*
X26645Y20030D01*
X26645Y19685D01*
X26756Y19685D01*
X26756Y19685D01*
X25881Y19897D02*
X25766Y19883D01*
X25783Y19835D01*
X25805Y19793D01*
X25833Y19757D01*
X25867Y19726D01*
X25907Y19702D01*
X25951Y19684D01*
X26001Y19674D01*
X26056Y19670D01*
X26124Y19676D01*
X26185Y19692D01*
X26239Y19720D01*
X26285Y19759D01*
X26322Y19808D01*
X26348Y19866D01*
X26364Y19933D01*
X26369Y20009D01*
X26364Y20087D01*
X26348Y20156D01*
X26321Y20216D01*
X26284Y20267D01*
X26238Y20307D01*
X26186Y20336D01*
X26127Y20353D01*
X26062Y20358D01*
X26053Y20358D01*
X26061Y20267D01*
X26098Y20263D01*
X26131Y20254D01*
X26162Y20238D01*
X26190Y20215D01*
X26213Y20187D01*
X26231Y20155D01*
X26242Y20118D01*
X26248Y20078D01*
X26248Y20078D01*
X25880Y20078D01*
X25886Y20116D01*
X25894Y20150D01*
X25907Y20179D01*
X25922Y20202D01*
X25951Y20230D01*
X25984Y20251D01*
X26020Y20263D01*
X26061Y20267D01*
X26053Y20358D01*
X25999Y20353D01*
X25942Y20336D01*
X25891Y20308D01*
X25846Y20269D01*
X25809Y20219D01*
X25783Y20160D01*
X25768Y20092D01*
X25762Y20016D01*
X25762Y20010D01*
X25763Y20003D01*
X25763Y19995D01*
X25763Y19986D01*
X26254Y19986D01*
X26248Y19935D01*
X26236Y19890D01*
X26217Y19852D01*
X26193Y19820D01*
X26163Y19794D01*
X26131Y19776D01*
X26095Y19765D01*
X26055Y19762D01*
X26026Y19764D01*
X25998Y19770D01*
X25973Y19780D01*
X25950Y19794D01*
X25930Y19813D01*
X25911Y19836D01*
X25895Y19864D01*
X25881Y19897D01*
X25881Y19897D01*
X25196Y19766D02*
X25227Y19742D01*
X25231Y19739D01*
X25274Y19801D01*
X25254Y19819D01*
X25237Y19840D01*
X25224Y19863D01*
X25216Y19884D01*
X25210Y19910D01*
X25207Y19940D01*
X25206Y19975D01*
X25206Y20016D01*
X25206Y20016D01*
X25240Y20004D01*
X25281Y19993D01*
X25331Y19983D01*
X25388Y19973D01*
X25420Y19968D01*
X25447Y19963D01*
X25468Y19957D01*
X25485Y19951D01*
X25499Y19944D01*
X25510Y19936D01*
X25521Y19926D01*
X25529Y19915D01*
X25536Y19902D01*
X25541Y19890D01*
X25544Y19876D01*
X25545Y19862D01*
X25543Y19840D01*
X25536Y19821D01*
X25526Y19803D01*
X25511Y19787D01*
X25492Y19774D01*
X25469Y19765D01*
X25443Y19759D01*
X25412Y19758D01*
X25381Y19759D01*
X25351Y19765D01*
X25323Y19773D01*
X25297Y19786D01*
X25274Y19801D01*
X25231Y19739D01*
X25257Y19721D01*
X25287Y19705D01*
X25316Y19692D01*
X25345Y19682D01*
X25375Y19676D01*
X25406Y19671D01*
X25439Y19670D01*
X25490Y19673D01*
X25535Y19683D01*
X25573Y19700D01*
X25605Y19723D01*
X25631Y19751D01*
X25649Y19784D01*
X25660Y19819D01*
X25664Y19859D01*
X25662Y19882D01*
X25658Y19905D01*
X25651Y19926D01*
X25642Y19947D01*
X25630Y19966D01*
X25616Y19983D01*
X25601Y19998D01*
X25584Y20011D01*
X25566Y20023D01*
X25546Y20032D01*
X25526Y20041D01*
X25504Y20048D01*
X25485Y20052D01*
X25463Y20056D01*
X25436Y20060D01*
X25405Y20065D01*
X25341Y20073D01*
X25287Y20082D01*
X25242Y20092D01*
X25206Y20103D01*
X25205Y20113D01*
X25205Y20122D01*
X25205Y20128D01*
X25205Y20132D01*
X25207Y20164D01*
X25213Y20190D01*
X25223Y20212D01*
X25237Y20228D01*
X25261Y20245D01*
X25290Y20257D01*
X25324Y20264D01*
X25364Y20266D01*
X25400Y20264D01*
X25432Y20259D01*
X25459Y20251D01*
X25480Y20238D01*
X25497Y20222D01*
X25513Y20200D01*
X25525Y20173D01*
X25535Y20141D01*
X25645Y20156D01*
X25636Y20189D01*
X25625Y20219D01*
X25611Y20246D01*
X25596Y20269D01*
X25577Y20289D01*
X25554Y20307D01*
X25527Y20322D01*
X25497Y20335D01*
X25463Y20345D01*
X25427Y20353D01*
X25389Y20357D01*
X25348Y20358D01*
X25307Y20357D01*
X25271Y20353D01*
X25239Y20347D01*
X25210Y20339D01*
X25186Y20328D01*
X25165Y20316D01*
X25147Y20303D01*
X25133Y20289D01*
X25121Y20273D01*
X25112Y20255D01*
X25104Y20235D01*
X25098Y20213D01*
X25096Y20196D01*
X25094Y20173D01*
X25093Y20144D01*
X25093Y20110D01*
X25093Y19961D01*
X25092Y19890D01*
X25091Y19834D01*
X25089Y19792D01*
X25086Y19764D01*
X25081Y19744D01*
X25075Y19724D01*
X25067Y19704D01*
X25057Y19685D01*
X25174Y19685D01*
X25182Y19703D01*
X25188Y19723D01*
X25193Y19744D01*
X25196Y19766D01*
X25196Y19766D01*
X24492Y19685D02*
X24492Y19768D01*
X24543Y19820D01*
X24542Y19822D01*
X24519Y19856D01*
X24503Y19897D01*
X24494Y19947D01*
X24491Y20004D01*
X24494Y20067D01*
X24504Y20122D01*
X24520Y20167D01*
X24543Y20203D01*
X24570Y20230D01*
X24601Y20250D01*
X24634Y20262D01*
X24671Y20266D01*
X24707Y20262D01*
X24739Y20251D01*
X24769Y20232D01*
X24795Y20205D01*
X24817Y20171D01*
X24833Y20127D01*
X24842Y20075D01*
X24845Y20014D01*
X24845Y20014D01*
X24842Y19954D01*
X24832Y19903D01*
X24815Y19860D01*
X24792Y19825D01*
X24764Y19797D01*
X24734Y19778D01*
X24701Y19766D01*
X24666Y19762D01*
X24631Y19766D01*
X24598Y19777D01*
X24569Y19796D01*
X24543Y19820D01*
X24492Y19768D01*
X24527Y19725D01*
X24570Y19695D01*
X24619Y19676D01*
X24677Y19670D01*
X24715Y19673D01*
X24752Y19681D01*
X24788Y19695D01*
X24821Y19714D01*
X24853Y19737D01*
X24880Y19766D01*
X24904Y19798D01*
X24924Y19835D01*
X24940Y19875D01*
X24951Y19918D01*
X24958Y19965D01*
X24960Y20014D01*
X24958Y20062D01*
X24952Y20108D01*
X24941Y20151D01*
X24927Y20193D01*
X24909Y20230D01*
X24886Y20263D01*
X24859Y20292D01*
X24828Y20316D01*
X24795Y20334D01*
X24759Y20348D01*
X24721Y20356D01*
X24682Y20358D01*
X24653Y20357D01*
X24625Y20352D01*
X24600Y20344D01*
X24575Y20333D01*
X24553Y20320D01*
X24533Y20304D01*
X24515Y20287D01*
X24500Y20268D01*
X24500Y20594D01*
X24389Y20594D01*
X24389Y19685D01*
X24492Y19685D01*
X24492Y19685D01*
X24110Y19685D02*
X24214Y19685D01*
X24214Y20594D01*
X24102Y20594D01*
X24102Y20270D01*
X24065Y20309D01*
X24022Y20336D01*
X23974Y20353D01*
X23922Y20358D01*
X23892Y20357D01*
X23863Y20352D01*
X23834Y20345D01*
X23807Y20334D01*
X23781Y20320D01*
X23757Y20304D01*
X23736Y20286D01*
X23718Y20265D01*
X23701Y20242D01*
X23686Y20216D01*
X23674Y20188D01*
X23663Y20158D01*
X23654Y20126D01*
X23648Y20093D01*
X23644Y20059D01*
X23643Y20024D01*
X23648Y19944D01*
X23664Y19874D01*
X23690Y19814D01*
X23727Y19763D01*
X23770Y19722D01*
X23819Y19693D01*
X23871Y19676D01*
X23927Y19670D01*
X23983Y19676D01*
X24031Y19694D01*
X24074Y19725D01*
X24106Y19763D01*
X24051Y19810D01*
X24017Y19783D01*
X23979Y19767D01*
X23937Y19762D01*
X23901Y19766D01*
X23869Y19778D01*
X23838Y19798D01*
X23810Y19825D01*
X23787Y19861D01*
X23770Y19905D01*
X23760Y19956D01*
X23757Y20015D01*
X23760Y20075D01*
X23770Y20127D01*
X23786Y20170D01*
X23808Y20205D01*
X23835Y20232D01*
X23865Y20251D01*
X23897Y20263D01*
X23932Y20267D01*
X23967Y20263D01*
X24000Y20251D01*
X24030Y20231D01*
X24058Y20203D01*
X24082Y20168D01*
X24098Y20125D01*
X24108Y20076D01*
X24112Y20019D01*
X24112Y20019D01*
X24110Y19964D01*
X24104Y19917D01*
X24093Y19879D01*
X24079Y19848D01*
X24051Y19810D01*
X24106Y19763D01*
X24110Y19767D01*
X24110Y19685D01*
X24110Y19685D01*
X23549Y20014D02*
X23542Y20100D01*
X23523Y20173D01*
X23491Y20235D01*
X23447Y20285D01*
X23402Y20317D01*
X23353Y20340D01*
X23298Y20354D01*
X23240Y20358D01*
X23175Y20353D01*
X23116Y20336D01*
X23064Y20308D01*
X23018Y20269D01*
X22980Y20221D01*
X22953Y20163D01*
X22937Y20098D01*
X22932Y20024D01*
X22934Y19963D01*
X22941Y19910D01*
X22953Y19863D01*
X22970Y19824D01*
X22991Y19789D01*
X23016Y19759D01*
X23046Y19733D01*
X23081Y19710D01*
X23118Y19693D01*
X23157Y19680D01*
X23197Y19673D01*
X23240Y19670D01*
X23247Y19671D01*
X23240Y19762D01*
X23200Y19766D01*
X23164Y19778D01*
X23131Y19797D01*
X23101Y19825D01*
X23077Y19861D01*
X23060Y19905D01*
X23050Y19957D01*
X23046Y20018D01*
X23050Y20075D01*
X23060Y20125D01*
X23077Y20168D01*
X23102Y20203D01*
X23131Y20231D01*
X23164Y20250D01*
X23200Y20262D01*
X23240Y20266D01*
X23280Y20262D01*
X23316Y20250D01*
X23349Y20231D01*
X23379Y20203D01*
X23403Y20168D01*
X23420Y20125D01*
X23430Y20074D01*
X23434Y20014D01*
X23434Y20014D01*
X23430Y19955D01*
X23420Y19904D01*
X23403Y19860D01*
X23379Y19825D01*
X23349Y19797D01*
X23316Y19778D01*
X23280Y19766D01*
X23240Y19762D01*
X23247Y19671D01*
X23306Y19676D01*
X23365Y19692D01*
X23417Y19720D01*
X23463Y19759D01*
X23501Y19808D01*
X23527Y19867D01*
X23543Y19936D01*
X23549Y20014D01*
X23549Y20014D01*
X22371Y19766D02*
X22402Y19742D01*
X22406Y19739D01*
X22449Y19801D01*
X22428Y19819D01*
X22412Y19840D01*
X22398Y19863D01*
X22390Y19884D01*
X22385Y19910D01*
X22381Y19940D01*
X22380Y19975D01*
X22380Y20016D01*
X22380Y20016D01*
X22414Y20004D01*
X22456Y19993D01*
X22506Y19983D01*
X22563Y19973D01*
X22594Y19968D01*
X22621Y19963D01*
X22643Y19957D01*
X22660Y19951D01*
X22673Y19944D01*
X22685Y19936D01*
X22695Y19926D01*
X22704Y19915D01*
X22711Y19902D01*
X22716Y19890D01*
X22718Y19876D01*
X22719Y19862D01*
X22717Y19840D01*
X22711Y19821D01*
X22700Y19803D01*
X22686Y19787D01*
X22667Y19774D01*
X22644Y19765D01*
X22617Y19759D01*
X22587Y19758D01*
X22555Y19759D01*
X22526Y19765D01*
X22498Y19773D01*
X22472Y19786D01*
X22449Y19801D01*
X22406Y19739D01*
X22432Y19721D01*
X22461Y19705D01*
X22490Y19692D01*
X22520Y19682D01*
X22550Y19676D01*
X22581Y19671D01*
X22613Y19670D01*
X22665Y19673D01*
X22709Y19683D01*
X22748Y19700D01*
X22780Y19723D01*
X22806Y19751D01*
X22824Y19784D01*
X22835Y19819D01*
X22838Y19859D01*
X22837Y19882D01*
X22833Y19905D01*
X22826Y19926D01*
X22816Y19947D01*
X22805Y19966D01*
X22791Y19983D01*
X22776Y19998D01*
X22759Y20011D01*
X22740Y20023D01*
X22721Y20032D01*
X22700Y20041D01*
X22679Y20048D01*
X22660Y20052D01*
X22637Y20056D01*
X22610Y20060D01*
X22579Y20065D01*
X22516Y20073D01*
X22462Y20082D01*
X22417Y20092D01*
X22380Y20103D01*
X22380Y20113D01*
X22380Y20122D01*
X22380Y20128D01*
X22380Y20132D01*
X22382Y20164D01*
X22388Y20190D01*
X22397Y20212D01*
X22411Y20228D01*
X22435Y20245D01*
X22464Y20257D01*
X22499Y20264D01*
X22538Y20266D01*
X22575Y20264D01*
X22607Y20259D01*
X22633Y20251D01*
X22655Y20238D01*
X22672Y20222D01*
X22687Y20200D01*
X22700Y20173D01*
X22710Y20141D01*
X22819Y20156D01*
X22811Y20189D01*
X22800Y20219D01*
X22786Y20246D01*
X22770Y20269D01*
X22751Y20289D01*
X22729Y20307D01*
X22702Y20322D01*
X22672Y20335D01*
X22638Y20345D01*
X22602Y20353D01*
X22563Y20357D01*
X22522Y20358D01*
X22482Y20357D01*
X22446Y20353D01*
X22414Y20347D01*
X22385Y20339D01*
X22361Y20328D01*
X22339Y20316D01*
X22322Y20303D01*
X22308Y20289D01*
X22296Y20273D01*
X22287Y20255D01*
X22279Y20235D01*
X22273Y20213D01*
X22271Y20196D01*
X22269Y20173D01*
X22268Y20144D01*
X22267Y20110D01*
X22267Y19961D01*
X22267Y19890D01*
X22266Y19834D01*
X22263Y19792D01*
X22260Y19764D01*
X22256Y19744D01*
X22250Y19724D01*
X22242Y19704D01*
X22232Y19685D01*
X22349Y19685D01*
X22357Y19703D01*
X22363Y19723D01*
X22368Y19744D01*
X22371Y19766D01*
X22371Y19766D01*
X22096Y19685D02*
X22096Y20344D01*
X21995Y20344D01*
X21995Y20244D01*
X21976Y20276D01*
X21958Y20302D01*
X21941Y20322D01*
X21924Y20336D01*
X21907Y20346D01*
X21890Y20353D01*
X21872Y20357D01*
X21853Y20358D01*
X21824Y20356D01*
X21796Y20349D01*
X21767Y20338D01*
X21738Y20322D01*
X21776Y20219D01*
X21797Y20230D01*
X21817Y20237D01*
X21838Y20242D01*
X21858Y20243D01*
X21876Y20242D01*
X21893Y20238D01*
X21909Y20231D01*
X21924Y20221D01*
X21937Y20209D01*
X21949Y20195D01*
X21958Y20178D01*
X21965Y20160D01*
X21974Y20130D01*
X21979Y20098D01*
X21983Y20064D01*
X21984Y20030D01*
X21984Y19685D01*
X22096Y19685D01*
X22096Y19685D01*
X21244Y19685D02*
X21244Y19768D01*
X21295Y19820D01*
X21293Y19822D01*
X21271Y19856D01*
X21255Y19897D01*
X21246Y19947D01*
X21242Y20004D01*
X21246Y20067D01*
X21255Y20122D01*
X21272Y20167D01*
X21294Y20203D01*
X21322Y20230D01*
X21353Y20250D01*
X21386Y20262D01*
X21423Y20266D01*
X21458Y20262D01*
X21491Y20251D01*
X21521Y20232D01*
X21547Y20205D01*
X21569Y20171D01*
X21585Y20127D01*
X21594Y20075D01*
X21597Y20014D01*
X21597Y20014D01*
X21594Y19954D01*
X21584Y19903D01*
X21567Y19860D01*
X21544Y19825D01*
X21516Y19797D01*
X21486Y19778D01*
X21453Y19766D01*
X21418Y19762D01*
X21383Y19766D01*
X21350Y19777D01*
X21320Y19796D01*
X21295Y19820D01*
X21244Y19768D01*
X21279Y19725D01*
X21322Y19695D01*
X21371Y19676D01*
X21428Y19670D01*
X21467Y19673D01*
X21504Y19681D01*
X21539Y19695D01*
X21573Y19714D01*
X21604Y19737D01*
X21632Y19766D01*
X21655Y19798D01*
X21675Y19835D01*
X21691Y19875D01*
X21703Y19918D01*
X21709Y19965D01*
X21712Y20014D01*
X21710Y20062D01*
X21704Y20108D01*
X21693Y20151D01*
X21679Y20193D01*
X21660Y20230D01*
X21638Y20263D01*
X21611Y20292D01*
X21580Y20316D01*
X21546Y20334D01*
X21511Y20348D01*
X21473Y20356D01*
X21433Y20358D01*
X21404Y20357D01*
X21377Y20352D01*
X21351Y20344D01*
X21327Y20333D01*
X21305Y20320D01*
X21285Y20304D01*
X21267Y20287D01*
X21252Y20268D01*
X21252Y20594D01*
X21141Y20594D01*
X21141Y19685D01*
X21244Y19685D01*
X21244Y19685D01*
X20612Y19433D02*
X20612Y20344D01*
X20511Y20344D01*
X20511Y20258D01*
X20456Y20205D01*
X20456Y20204D01*
X20480Y20167D01*
X20497Y20123D01*
X20508Y20070D01*
X20511Y20011D01*
X20511Y20011D01*
X20508Y19951D01*
X20498Y19900D01*
X20482Y19857D01*
X20460Y19823D01*
X20433Y19796D01*
X20403Y19777D01*
X20370Y19766D01*
X20335Y19762D01*
X20299Y19766D01*
X20266Y19778D01*
X20236Y19797D01*
X20208Y19825D01*
X20184Y19861D01*
X20168Y19905D01*
X20158Y19958D01*
X20155Y20020D01*
X20158Y20079D01*
X20168Y20130D01*
X20184Y20173D01*
X20206Y20208D01*
X20234Y20236D01*
X20263Y20255D01*
X20295Y20267D01*
X20330Y20271D01*
X20365Y20267D01*
X20397Y20254D01*
X20428Y20234D01*
X20456Y20205D01*
X20511Y20258D01*
X20492Y20282D01*
X20472Y20302D01*
X20451Y20319D01*
X20429Y20333D01*
X20406Y20344D01*
X20379Y20352D01*
X20351Y20357D01*
X20320Y20358D01*
X20279Y20356D01*
X20240Y20348D01*
X20204Y20334D01*
X20171Y20315D01*
X20140Y20291D01*
X20114Y20263D01*
X20092Y20230D01*
X20073Y20193D01*
X20059Y20152D01*
X20049Y20110D01*
X20043Y20065D01*
X20041Y20019D01*
X20043Y19970D01*
X20050Y19923D01*
X20061Y19879D01*
X20077Y19837D01*
X20097Y19799D01*
X20121Y19766D01*
X20150Y19737D01*
X20182Y19713D01*
X20217Y19694D01*
X20253Y19681D01*
X20290Y19673D01*
X20328Y19670D01*
X20355Y19672D01*
X20381Y19676D01*
X20405Y19683D01*
X20428Y19694D01*
X20449Y19706D01*
X20468Y19720D01*
X20485Y19736D01*
X20501Y19753D01*
X20501Y19433D01*
X20612Y19433D01*
X20612Y19433D01*
X19948Y20014D02*
X19941Y20100D01*
X19922Y20173D01*
X19890Y20235D01*
X19846Y20285D01*
X19801Y20317D01*
X19752Y20340D01*
X19697Y20354D01*
X19639Y20358D01*
X19574Y20353D01*
X19515Y20336D01*
X19463Y20308D01*
X19417Y20269D01*
X19379Y20221D01*
X19352Y20163D01*
X19336Y20098D01*
X19330Y20024D01*
X19333Y19963D01*
X19340Y19910D01*
X19352Y19863D01*
X19369Y19824D01*
X19390Y19789D01*
X19415Y19759D01*
X19445Y19733D01*
X19480Y19710D01*
X19517Y19693D01*
X19556Y19680D01*
X19596Y19673D01*
X19639Y19670D01*
X19646Y19671D01*
X19639Y19762D01*
X19599Y19766D01*
X19563Y19778D01*
X19530Y19797D01*
X19500Y19825D01*
X19476Y19861D01*
X19459Y19905D01*
X19449Y19957D01*
X19445Y20018D01*
X19449Y20075D01*
X19459Y20125D01*
X19476Y20168D01*
X19501Y20203D01*
X19530Y20231D01*
X19563Y20250D01*
X19599Y20262D01*
X19639Y20266D01*
X19679Y20262D01*
X19715Y20250D01*
X19748Y20231D01*
X19778Y20203D01*
X19802Y20168D01*
X19819Y20125D01*
X19829Y20074D01*
X19833Y20014D01*
X19833Y20014D01*
X19829Y19955D01*
X19819Y19904D01*
X19802Y19860D01*
X19778Y19825D01*
X19748Y19797D01*
X19715Y19778D01*
X19679Y19766D01*
X19639Y19762D01*
X19646Y19671D01*
X19705Y19676D01*
X19764Y19692D01*
X19816Y19720D01*
X19862Y19759D01*
X19900Y19808D01*
X19926Y19867D01*
X19942Y19936D01*
X19948Y20014D01*
X19948Y20014D01*
X19078Y19685D02*
X19280Y20344D01*
X19164Y20344D01*
X19059Y19963D01*
X19020Y19822D01*
X19017Y19834D01*
X19011Y19861D01*
X19000Y19902D01*
X18986Y19958D01*
X18882Y20344D01*
X18767Y20344D01*
X18668Y19962D01*
X18635Y19836D01*
X18598Y19963D01*
X18485Y20344D01*
X18376Y20344D01*
X18582Y19685D01*
X18698Y19685D01*
X18803Y20079D01*
X18828Y20192D01*
X18962Y19685D01*
X19078Y19685D01*
X19078Y19685D01*
X17832Y19897D02*
X17716Y19883D01*
X17733Y19835D01*
X17755Y19793D01*
X17783Y19757D01*
X17817Y19726D01*
X17857Y19702D01*
X17901Y19684D01*
X17951Y19674D01*
X18006Y19670D01*
X18074Y19676D01*
X18135Y19692D01*
X18189Y19720D01*
X18235Y19759D01*
X18272Y19808D01*
X18299Y19866D01*
X18314Y19933D01*
X18320Y20009D01*
X18314Y20087D01*
X18298Y20156D01*
X18272Y20216D01*
X18234Y20267D01*
X18188Y20307D01*
X18136Y20336D01*
X18077Y20353D01*
X18012Y20358D01*
X18003Y20358D01*
X18011Y20267D01*
X18048Y20263D01*
X18082Y20254D01*
X18112Y20238D01*
X18140Y20215D01*
X18163Y20187D01*
X18181Y20155D01*
X18192Y20118D01*
X18198Y20078D01*
X18198Y20078D01*
X17830Y20078D01*
X17836Y20116D01*
X17845Y20150D01*
X17857Y20179D01*
X17873Y20202D01*
X17901Y20230D01*
X17934Y20251D01*
X17970Y20263D01*
X18011Y20267D01*
X18003Y20358D01*
X17949Y20353D01*
X17892Y20336D01*
X17841Y20308D01*
X17796Y20269D01*
X17760Y20219D01*
X17734Y20160D01*
X17718Y20092D01*
X17713Y20016D01*
X17713Y20010D01*
X17713Y20003D01*
X17713Y19995D01*
X17713Y19986D01*
X18204Y19986D01*
X18198Y19935D01*
X18186Y19890D01*
X18167Y19852D01*
X18143Y19820D01*
X18114Y19794D01*
X18081Y19776D01*
X18045Y19765D01*
X18005Y19762D01*
X17976Y19764D01*
X17948Y19770D01*
X17923Y19780D01*
X17900Y19794D01*
X17880Y19813D01*
X17862Y19836D01*
X17845Y19864D01*
X17832Y19897D01*
X17832Y19897D01*
X17577Y19685D02*
X17577Y20344D01*
X17477Y20344D01*
X17477Y20244D01*
X17458Y20276D01*
X17440Y20302D01*
X17423Y20322D01*
X17406Y20336D01*
X17389Y20346D01*
X17372Y20353D01*
X17353Y20357D01*
X17334Y20358D01*
X17306Y20356D01*
X17277Y20349D01*
X17249Y20338D01*
X17220Y20322D01*
X17258Y20219D01*
X17279Y20230D01*
X17299Y20237D01*
X17319Y20242D01*
X17340Y20243D01*
X17358Y20242D01*
X17375Y20238D01*
X17391Y20231D01*
X17406Y20221D01*
X17419Y20209D01*
X17431Y20195D01*
X17440Y20178D01*
X17447Y20160D01*
X17455Y20130D01*
X17461Y20098D01*
X17465Y20064D01*
X17466Y20030D01*
X17466Y19685D01*
X17577Y19685D01*
X17577Y19685D01*
X16800Y19685D02*
X16800Y20344D01*
X16688Y20344D01*
X16688Y19685D01*
X16800Y19685D01*
X16800Y19685D01*
X16800Y20466D02*
X16800Y20594D01*
X16688Y20594D01*
X16688Y20466D01*
X16800Y20466D01*
X16800Y20466D01*
X16518Y19685D02*
X16518Y20344D01*
X16418Y20344D01*
X16418Y20250D01*
X16378Y20297D01*
X16329Y20331D01*
X16273Y20352D01*
X16208Y20358D01*
X16179Y20357D01*
X16151Y20353D01*
X16124Y20346D01*
X16099Y20337D01*
X16075Y20326D01*
X16055Y20312D01*
X16038Y20297D01*
X16024Y20281D01*
X16013Y20263D01*
X16003Y20243D01*
X15995Y20222D01*
X15989Y20198D01*
X15987Y20180D01*
X15985Y20156D01*
X15984Y20126D01*
X15983Y20090D01*
X15983Y19685D01*
X16095Y19685D01*
X16095Y20086D01*
X16096Y20118D01*
X16098Y20145D01*
X16102Y20169D01*
X16108Y20188D01*
X16116Y20204D01*
X16126Y20218D01*
X16139Y20231D01*
X16154Y20242D01*
X16171Y20250D01*
X16190Y20257D01*
X16210Y20260D01*
X16232Y20262D01*
X16266Y20259D01*
X16298Y20250D01*
X16328Y20236D01*
X16355Y20216D01*
X16378Y20189D01*
X16394Y20151D01*
X16403Y20103D01*
X16407Y20045D01*
X16407Y19685D01*
X16518Y19685D01*
X16518Y19685D01*
X15954Y19430D02*
X15933Y19524D01*
X15917Y19521D01*
X15903Y19518D01*
X15891Y19516D01*
X15880Y19516D01*
X15864Y19517D01*
X15850Y19521D01*
X15839Y19528D01*
X15829Y19538D01*
X15822Y19554D01*
X15817Y19578D01*
X15814Y19610D01*
X15813Y19652D01*
X15813Y20344D01*
X15701Y20344D01*
X15701Y19649D01*
X15703Y19593D01*
X15709Y19546D01*
X15719Y19508D01*
X15733Y19480D01*
X15756Y19453D01*
X15786Y19433D01*
X15823Y19422D01*
X15867Y19418D01*
X15889Y19418D01*
X15911Y19421D01*
X15933Y19424D01*
X15954Y19430D01*
X15954Y19430D01*
X15813Y20464D02*
X15813Y20594D01*
X15701Y20594D01*
X15701Y20464D01*
X15813Y20464D01*
X15813Y20464D01*
X15079Y19897D02*
X14964Y19883D01*
X14980Y19835D01*
X15003Y19793D01*
X15031Y19757D01*
X15065Y19726D01*
X15104Y19702D01*
X15149Y19684D01*
X15198Y19674D01*
X15253Y19670D01*
X15322Y19676D01*
X15383Y19692D01*
X15436Y19720D01*
X15482Y19759D01*
X15519Y19808D01*
X15546Y19866D01*
X15562Y19933D01*
X15567Y20009D01*
X15562Y20087D01*
X15546Y20156D01*
X15519Y20216D01*
X15481Y20267D01*
X15436Y20307D01*
X15383Y20336D01*
X15325Y20353D01*
X15259Y20358D01*
X15250Y20358D01*
X15258Y20267D01*
X15295Y20263D01*
X15329Y20254D01*
X15360Y20238D01*
X15388Y20215D01*
X15411Y20187D01*
X15428Y20155D01*
X15440Y20118D01*
X15446Y20078D01*
X15446Y20078D01*
X15078Y20078D01*
X15083Y20116D01*
X15092Y20150D01*
X15104Y20179D01*
X15120Y20202D01*
X15149Y20230D01*
X15181Y20251D01*
X15218Y20263D01*
X15258Y20267D01*
X15250Y20358D01*
X15196Y20353D01*
X15139Y20336D01*
X15089Y20308D01*
X15044Y20269D01*
X15007Y20219D01*
X14981Y20160D01*
X14965Y20092D01*
X14960Y20016D01*
X14960Y20010D01*
X14960Y20003D01*
X14960Y19995D01*
X14961Y19986D01*
X15452Y19986D01*
X15446Y19935D01*
X15433Y19890D01*
X15415Y19852D01*
X15390Y19820D01*
X15361Y19794D01*
X15328Y19776D01*
X15292Y19765D01*
X15253Y19762D01*
X15223Y19764D01*
X15196Y19770D01*
X15171Y19780D01*
X15148Y19794D01*
X15127Y19813D01*
X15109Y19836D01*
X15093Y19864D01*
X15079Y19897D01*
X15079Y19897D01*
X14394Y19926D02*
X14284Y19912D01*
X14297Y19858D01*
X14316Y19811D01*
X14343Y19769D01*
X14376Y19734D01*
X14415Y19706D01*
X14459Y19686D01*
X14506Y19674D01*
X14558Y19670D01*
X14622Y19676D01*
X14680Y19692D01*
X14731Y19720D01*
X14775Y19758D01*
X14811Y19807D01*
X14837Y19866D01*
X14853Y19934D01*
X14858Y20012D01*
X14855Y20063D01*
X14849Y20112D01*
X14838Y20157D01*
X14822Y20198D01*
X14802Y20236D01*
X14778Y20268D01*
X14749Y20296D01*
X14715Y20318D01*
X14678Y20336D01*
X14639Y20348D01*
X14599Y20356D01*
X14558Y20358D01*
X14506Y20355D01*
X14460Y20345D01*
X14419Y20328D01*
X14382Y20304D01*
X14351Y20274D01*
X14326Y20239D01*
X14307Y20197D01*
X14295Y20150D01*
X14403Y20133D01*
X14412Y20164D01*
X14425Y20191D01*
X14440Y20214D01*
X14458Y20233D01*
X14479Y20248D01*
X14501Y20258D01*
X14526Y20265D01*
X14553Y20267D01*
X14593Y20263D01*
X14630Y20252D01*
X14662Y20233D01*
X14690Y20206D01*
X14713Y20172D01*
X14730Y20128D01*
X14740Y20076D01*
X14743Y20015D01*
X14740Y19953D01*
X14730Y19900D01*
X14714Y19857D01*
X14692Y19822D01*
X14665Y19796D01*
X14633Y19777D01*
X14598Y19766D01*
X14559Y19762D01*
X14528Y19764D01*
X14499Y19772D01*
X14473Y19785D01*
X14450Y19802D01*
X14430Y19825D01*
X14414Y19853D01*
X14402Y19887D01*
X14394Y19926D01*
X14394Y19926D01*
X13945Y19785D02*
X13929Y19686D01*
X13952Y19682D01*
X13973Y19679D01*
X13994Y19677D01*
X14013Y19676D01*
X14042Y19678D01*
X14067Y19681D01*
X14089Y19687D01*
X14107Y19696D01*
X14123Y19706D01*
X14136Y19718D01*
X14146Y19731D01*
X14154Y19746D01*
X14160Y19766D01*
X14165Y19795D01*
X14167Y19832D01*
X14168Y19878D01*
X14168Y20257D01*
X14250Y20257D01*
X14250Y20344D01*
X14168Y20344D01*
X14168Y20507D01*
X14057Y20574D01*
X14057Y20344D01*
X13945Y20344D01*
X13945Y20257D01*
X14057Y20257D01*
X14057Y19872D01*
X14057Y19850D01*
X14056Y19832D01*
X14054Y19819D01*
X14051Y19810D01*
X14048Y19804D01*
X14043Y19798D01*
X14038Y19793D01*
X14032Y19789D01*
X14025Y19785D01*
X14016Y19783D01*
X14005Y19781D01*
X13994Y19780D01*
X13984Y19781D01*
X13972Y19782D01*
X13959Y19783D01*
X13945Y19785D01*
X13945Y19785D01*
X13877Y20014D02*
X13871Y20100D01*
X13852Y20173D01*
X13820Y20235D01*
X13776Y20285D01*
X13731Y20317D01*
X13681Y20340D01*
X13627Y20354D01*
X13568Y20358D01*
X13504Y20353D01*
X13445Y20336D01*
X13393Y20308D01*
X13346Y20269D01*
X13309Y20221D01*
X13282Y20163D01*
X13266Y20098D01*
X13260Y20024D01*
X13263Y19963D01*
X13270Y19910D01*
X13282Y19863D01*
X13298Y19824D01*
X13320Y19789D01*
X13345Y19759D01*
X13375Y19733D01*
X13409Y19710D01*
X13447Y19693D01*
X13486Y19680D01*
X13526Y19673D01*
X13568Y19670D01*
X13576Y19671D01*
X13568Y19762D01*
X13529Y19766D01*
X13492Y19778D01*
X13459Y19797D01*
X13430Y19825D01*
X13406Y19861D01*
X13389Y19905D01*
X13378Y19957D01*
X13375Y20018D01*
X13378Y20075D01*
X13389Y20125D01*
X13406Y20168D01*
X13430Y20203D01*
X13460Y20231D01*
X13493Y20250D01*
X13529Y20262D01*
X13568Y20266D01*
X13608Y20262D01*
X13645Y20250D01*
X13678Y20231D01*
X13707Y20203D01*
X13731Y20168D01*
X13749Y20125D01*
X13759Y20074D01*
X13762Y20014D01*
X13762Y20014D01*
X13759Y19955D01*
X13749Y19904D01*
X13731Y19860D01*
X13707Y19825D01*
X13678Y19797D01*
X13645Y19778D01*
X13608Y19766D01*
X13568Y19762D01*
X13576Y19671D01*
X13634Y19676D01*
X13693Y19692D01*
X13746Y19720D01*
X13792Y19759D01*
X13829Y19808D01*
X13856Y19867D01*
X13872Y19936D01*
X13877Y20014D01*
X13877Y20014D01*
X13131Y19685D02*
X13131Y20344D01*
X13030Y20344D01*
X13030Y20244D01*
X13011Y20276D01*
X12993Y20302D01*
X12976Y20322D01*
X12959Y20336D01*
X12942Y20346D01*
X12925Y20353D01*
X12907Y20357D01*
X12887Y20358D01*
X12859Y20356D01*
X12831Y20349D01*
X12802Y20338D01*
X12773Y20322D01*
X12811Y20219D01*
X12832Y20230D01*
X12852Y20237D01*
X12873Y20242D01*
X12893Y20243D01*
X12911Y20242D01*
X12928Y20238D01*
X12944Y20231D01*
X12959Y20221D01*
X12972Y20209D01*
X12984Y20195D01*
X12993Y20178D01*
X13000Y20160D01*
X13008Y20130D01*
X13014Y20098D01*
X13018Y20064D01*
X13019Y20030D01*
X13019Y19685D01*
X13131Y19685D01*
X13131Y19685D01*
X12397Y19958D02*
X12397Y20070D01*
X12054Y20070D01*
X12054Y19958D01*
X12397Y19958D01*
X12397Y19958D01*
X11561Y19685D02*
X11561Y20594D01*
X10904Y20594D01*
X10904Y20487D01*
X11441Y20487D01*
X11441Y20208D01*
X10938Y20208D01*
X10938Y20102D01*
X11441Y20102D01*
X11441Y19792D01*
X10883Y19792D01*
X10883Y19685D01*
X11561Y19685D01*
X11561Y19685D01*
X10299Y19685D02*
X10299Y19782D01*
X10341Y19733D01*
X10390Y19698D01*
X10446Y19677D01*
X10508Y19670D01*
X10537Y19672D01*
X10564Y19676D01*
X10591Y19683D01*
X10617Y19692D01*
X10641Y19704D01*
X10661Y19718D01*
X10678Y19732D01*
X10692Y19749D01*
X10703Y19766D01*
X10713Y19786D01*
X10721Y19808D01*
X10726Y19831D01*
X10729Y19850D01*
X10732Y19874D01*
X10733Y19902D01*
X10733Y19936D01*
X10733Y20344D01*
X10622Y20344D01*
X10622Y19978D01*
X10621Y19938D01*
X10620Y19905D01*
X10618Y19879D01*
X10615Y19860D01*
X10608Y19840D01*
X10598Y19821D01*
X10586Y19805D01*
X10570Y19791D01*
X10552Y19780D01*
X10532Y19773D01*
X10510Y19768D01*
X10486Y19766D01*
X10461Y19768D01*
X10437Y19773D01*
X10414Y19781D01*
X10392Y19792D01*
X10371Y19806D01*
X10354Y19822D01*
X10340Y19841D01*
X10329Y19862D01*
X10321Y19887D01*
X10316Y19916D01*
X10312Y19951D01*
X10311Y19991D01*
X10311Y20344D01*
X10199Y20344D01*
X10199Y19685D01*
X10299Y19685D01*
X10299Y19685D01*
X10026Y19685D02*
X10026Y20344D01*
X9925Y20344D01*
X9925Y20244D01*
X9906Y20276D01*
X9888Y20302D01*
X9871Y20322D01*
X9854Y20336D01*
X9838Y20346D01*
X9820Y20353D01*
X9802Y20357D01*
X9783Y20358D01*
X9754Y20356D01*
X9726Y20349D01*
X9697Y20338D01*
X9668Y20322D01*
X9706Y20219D01*
X9727Y20230D01*
X9747Y20237D01*
X9768Y20242D01*
X9788Y20243D01*
X9806Y20242D01*
X9823Y20238D01*
X9839Y20231D01*
X9854Y20221D01*
X9867Y20209D01*
X9879Y20195D01*
X9888Y20178D01*
X9895Y20160D01*
X9904Y20130D01*
X9909Y20098D01*
X9913Y20064D01*
X9914Y20030D01*
X9914Y19685D01*
X10026Y19685D01*
X10026Y19685D01*
X9643Y20014D02*
X9637Y20100D01*
X9618Y20173D01*
X9586Y20235D01*
X9541Y20285D01*
X9497Y20317D01*
X9447Y20340D01*
X9393Y20354D01*
X9334Y20358D01*
X9269Y20353D01*
X9211Y20336D01*
X9158Y20308D01*
X9112Y20269D01*
X9075Y20221D01*
X9048Y20163D01*
X9031Y20098D01*
X9026Y20024D01*
X9028Y19963D01*
X9036Y19910D01*
X9048Y19863D01*
X9064Y19824D01*
X9085Y19789D01*
X9111Y19759D01*
X9141Y19733D01*
X9175Y19710D01*
X9212Y19693D01*
X9251Y19680D01*
X9292Y19673D01*
X9334Y19670D01*
X9342Y19671D01*
X9334Y19762D01*
X9294Y19766D01*
X9258Y19778D01*
X9225Y19797D01*
X9196Y19825D01*
X9172Y19861D01*
X9155Y19905D01*
X9144Y19957D01*
X9141Y20018D01*
X9144Y20075D01*
X9155Y20125D01*
X9172Y20168D01*
X9196Y20203D01*
X9226Y20231D01*
X9259Y20250D01*
X9295Y20262D01*
X9334Y20266D01*
X9374Y20262D01*
X9411Y20250D01*
X9444Y20231D01*
X9473Y20203D01*
X9497Y20168D01*
X9515Y20125D01*
X9525Y20074D01*
X9528Y20014D01*
X9528Y20014D01*
X9525Y19955D01*
X9515Y19904D01*
X9497Y19860D01*
X9473Y19825D01*
X9444Y19797D01*
X9411Y19778D01*
X9374Y19766D01*
X9334Y19762D01*
X9342Y19671D01*
X9400Y19676D01*
X9459Y19692D01*
X9512Y19720D01*
X9558Y19759D01*
X9595Y19808D01*
X9622Y19867D01*
X9638Y19936D01*
X9643Y20014D01*
X9643Y20014D01*
X8896Y19685D02*
X8896Y20344D01*
X8796Y20344D01*
X8796Y20244D01*
X8777Y20276D01*
X8759Y20302D01*
X8742Y20322D01*
X8725Y20336D01*
X8708Y20346D01*
X8691Y20353D01*
X8672Y20357D01*
X8653Y20358D01*
X8625Y20356D01*
X8596Y20349D01*
X8568Y20338D01*
X8539Y20322D01*
X8577Y20219D01*
X8598Y20230D01*
X8618Y20237D01*
X8638Y20242D01*
X8659Y20243D01*
X8677Y20242D01*
X8694Y20238D01*
X8710Y20231D01*
X8725Y20221D01*
X8738Y20209D01*
X8750Y20195D01*
X8759Y20178D01*
X8766Y20160D01*
X8774Y20130D01*
X8780Y20098D01*
X8784Y20064D01*
X8785Y20030D01*
X8785Y19685D01*
X8896Y19685D01*
X8896Y19685D01*
X8043Y19766D02*
X8073Y19742D01*
X8078Y19739D01*
X8120Y19801D01*
X8100Y19819D01*
X8083Y19840D01*
X8070Y19863D01*
X8062Y19884D01*
X8056Y19910D01*
X8053Y19940D01*
X8052Y19975D01*
X8052Y20016D01*
X8052Y20016D01*
X8086Y20004D01*
X8128Y19993D01*
X8177Y19983D01*
X8234Y19973D01*
X8266Y19968D01*
X8293Y19963D01*
X8315Y19957D01*
X8332Y19951D01*
X8345Y19944D01*
X8357Y19936D01*
X8367Y19926D01*
X8376Y19915D01*
X8382Y19902D01*
X8387Y19890D01*
X8390Y19876D01*
X8391Y19862D01*
X8389Y19840D01*
X8383Y19821D01*
X8372Y19803D01*
X8357Y19787D01*
X8338Y19774D01*
X8316Y19765D01*
X8289Y19759D01*
X8258Y19758D01*
X8227Y19759D01*
X8197Y19765D01*
X8170Y19773D01*
X8144Y19786D01*
X8120Y19801D01*
X8078Y19739D01*
X8103Y19721D01*
X8133Y19705D01*
X8162Y19692D01*
X8191Y19682D01*
X8221Y19676D01*
X8253Y19671D01*
X8285Y19670D01*
X8336Y19673D01*
X8381Y19683D01*
X8420Y19700D01*
X8452Y19723D01*
X8477Y19751D01*
X8496Y19784D01*
X8507Y19819D01*
X8510Y19859D01*
X8509Y19882D01*
X8505Y19905D01*
X8498Y19926D01*
X8488Y19947D01*
X8476Y19966D01*
X8463Y19983D01*
X8447Y19998D01*
X8430Y20011D01*
X8412Y20023D01*
X8393Y20032D01*
X8372Y20041D01*
X8350Y20048D01*
X8332Y20052D01*
X8309Y20056D01*
X8282Y20060D01*
X8251Y20065D01*
X8188Y20073D01*
X8134Y20082D01*
X8088Y20092D01*
X8052Y20103D01*
X8052Y20113D01*
X8051Y20122D01*
X8051Y20128D01*
X8051Y20132D01*
X8053Y20164D01*
X8059Y20190D01*
X8069Y20212D01*
X8083Y20228D01*
X8107Y20245D01*
X8136Y20257D01*
X8170Y20264D01*
X8210Y20266D01*
X8247Y20264D01*
X8278Y20259D01*
X8305Y20251D01*
X8326Y20238D01*
X8344Y20222D01*
X8359Y20200D01*
X8372Y20173D01*
X8382Y20141D01*
X8491Y20156D01*
X8482Y20189D01*
X8471Y20219D01*
X8458Y20246D01*
X8442Y20269D01*
X8423Y20289D01*
X8400Y20307D01*
X8374Y20322D01*
X8343Y20335D01*
X8310Y20345D01*
X8274Y20353D01*
X8235Y20357D01*
X8194Y20358D01*
X8154Y20357D01*
X8117Y20353D01*
X8085Y20347D01*
X8057Y20339D01*
X8032Y20328D01*
X8011Y20316D01*
X7993Y20303D01*
X7979Y20289D01*
X7968Y20273D01*
X7958Y20255D01*
X7950Y20235D01*
X7945Y20213D01*
X7942Y20196D01*
X7940Y20173D01*
X7939Y20144D01*
X7939Y20110D01*
X7939Y19961D01*
X7939Y19890D01*
X7937Y19834D01*
X7935Y19792D01*
X7932Y19764D01*
X7927Y19744D01*
X7921Y19724D01*
X7913Y19704D01*
X7904Y19685D01*
X8020Y19685D01*
X8028Y19703D01*
X8035Y19723D01*
X8039Y19744D01*
X8043Y19766D01*
X8043Y19766D01*
X7336Y19926D02*
X7226Y19912D01*
X7239Y19858D01*
X7259Y19811D01*
X7285Y19769D01*
X7319Y19734D01*
X7358Y19706D01*
X7401Y19686D01*
X7449Y19674D01*
X7501Y19670D01*
X7565Y19676D01*
X7623Y19692D01*
X7674Y19720D01*
X7718Y19758D01*
X7754Y19807D01*
X7780Y19866D01*
X7795Y19934D01*
X7800Y20012D01*
X7798Y20063D01*
X7791Y20112D01*
X7780Y20157D01*
X7765Y20198D01*
X7745Y20236D01*
X7720Y20268D01*
X7691Y20296D01*
X7657Y20318D01*
X7620Y20336D01*
X7582Y20348D01*
X7542Y20356D01*
X7500Y20358D01*
X7449Y20355D01*
X7402Y20345D01*
X7361Y20328D01*
X7324Y20304D01*
X7293Y20274D01*
X7269Y20239D01*
X7250Y20197D01*
X7237Y20150D01*
X7346Y20133D01*
X7355Y20164D01*
X7367Y20191D01*
X7382Y20214D01*
X7400Y20233D01*
X7421Y20248D01*
X7444Y20258D01*
X7469Y20265D01*
X7496Y20267D01*
X7536Y20263D01*
X7572Y20252D01*
X7604Y20233D01*
X7633Y20206D01*
X7656Y20172D01*
X7672Y20128D01*
X7682Y20076D01*
X7685Y20015D01*
X7682Y19953D01*
X7673Y19900D01*
X7657Y19857D01*
X7635Y19822D01*
X7607Y19796D01*
X7576Y19777D01*
X7541Y19766D01*
X7502Y19762D01*
X7470Y19764D01*
X7442Y19772D01*
X7415Y19785D01*
X7392Y19802D01*
X7372Y19825D01*
X7356Y19853D01*
X7344Y19887D01*
X7336Y19926D01*
X7336Y19926D01*
X7130Y19685D02*
X7130Y20594D01*
X7019Y20594D01*
X7019Y20076D01*
X6755Y20344D01*
X6610Y20344D01*
X6862Y20099D01*
X6585Y19685D01*
X6722Y19685D01*
X6940Y20022D01*
X7019Y19946D01*
X7019Y19685D01*
X7130Y19685D01*
X7130Y19685D01*
X13612Y17780D02*
X13964Y18689D01*
X13834Y18689D01*
X13598Y18029D01*
X13584Y17990D01*
X13572Y17952D01*
X13560Y17915D01*
X13550Y17880D01*
X13539Y17917D01*
X13527Y17954D01*
X13515Y17991D01*
X13501Y18029D01*
X13256Y18689D01*
X13133Y18689D01*
X13489Y17780D01*
X13612Y17780D01*
X13612Y17780D01*
X12658Y17992D02*
X12543Y17978D01*
X12560Y17930D01*
X12582Y17888D01*
X12610Y17852D01*
X12644Y17821D01*
X12684Y17797D01*
X12728Y17779D01*
X12778Y17769D01*
X12833Y17765D01*
X12901Y17771D01*
X12962Y17787D01*
X13016Y17815D01*
X13062Y17854D01*
X13099Y17903D01*
X13125Y17961D01*
X13141Y18028D01*
X13146Y18104D01*
X13141Y18182D01*
X13125Y18251D01*
X13098Y18311D01*
X13061Y18362D01*
X13015Y18402D01*
X12963Y18431D01*
X12904Y18448D01*
X12839Y18453D01*
X12830Y18453D01*
X12838Y18362D01*
X12875Y18358D01*
X12908Y18349D01*
X12939Y18333D01*
X12967Y18310D01*
X12990Y18282D01*
X13008Y18250D01*
X13019Y18213D01*
X13025Y18173D01*
X13025Y18173D01*
X12657Y18173D01*
X12663Y18211D01*
X12671Y18245D01*
X12684Y18274D01*
X12699Y18297D01*
X12728Y18325D01*
X12761Y18346D01*
X12797Y18358D01*
X12838Y18362D01*
X12830Y18453D01*
X12776Y18448D01*
X12719Y18431D01*
X12668Y18403D01*
X12623Y18364D01*
X12586Y18314D01*
X12560Y18255D01*
X12545Y18187D01*
X12539Y18111D01*
X12539Y18105D01*
X12540Y18098D01*
X12540Y18090D01*
X12540Y18081D01*
X13031Y18081D01*
X13025Y18030D01*
X13013Y17985D01*
X12994Y17947D01*
X12970Y17915D01*
X12940Y17889D01*
X12908Y17871D01*
X12872Y17860D01*
X12832Y17857D01*
X12802Y17859D01*
X12775Y17865D01*
X12750Y17875D01*
X12727Y17889D01*
X12707Y17908D01*
X12688Y17931D01*
X12672Y17959D01*
X12658Y17992D01*
X12658Y17992D01*
X12404Y17780D02*
X12404Y18439D01*
X12304Y18439D01*
X12304Y18339D01*
X12285Y18371D01*
X12267Y18397D01*
X12249Y18417D01*
X12233Y18431D01*
X12216Y18441D01*
X12199Y18448D01*
X12180Y18452D01*
X12161Y18453D01*
X12133Y18451D01*
X12104Y18444D01*
X12075Y18433D01*
X12046Y18417D01*
X12085Y18314D01*
X12105Y18325D01*
X12126Y18332D01*
X12146Y18337D01*
X12167Y18338D01*
X12184Y18337D01*
X12201Y18333D01*
X12217Y18326D01*
X12232Y18316D01*
X12246Y18304D01*
X12257Y18290D01*
X12267Y18273D01*
X12274Y18255D01*
X12282Y18225D01*
X12288Y18193D01*
X12291Y18159D01*
X12293Y18125D01*
X12293Y17780D01*
X12404Y17780D01*
X12404Y17780D01*
X12025Y17977D02*
X11914Y17994D01*
X11908Y17963D01*
X11897Y17935D01*
X11882Y17912D01*
X11863Y17892D01*
X11839Y17877D01*
X11812Y17866D01*
X11780Y17859D01*
X11744Y17857D01*
X11708Y17859D01*
X11677Y17865D01*
X11651Y17875D01*
X11630Y17888D01*
X11613Y17905D01*
X11602Y17922D01*
X11595Y17941D01*
X11592Y17962D01*
X11595Y17980D01*
X11601Y17995D01*
X11611Y18009D01*
X11625Y18021D01*
X11641Y18029D01*
X11665Y18038D01*
X11698Y18048D01*
X11739Y18059D01*
X11796Y18074D01*
X11843Y18088D01*
X11881Y18101D01*
X11910Y18113D01*
X11932Y18125D01*
X11951Y18140D01*
X11968Y18156D01*
X11982Y18175D01*
X11992Y18196D01*
X12000Y18217D01*
X12005Y18240D01*
X12006Y18264D01*
X12005Y18285D01*
X12001Y18306D01*
X11995Y18326D01*
X11986Y18345D01*
X11975Y18363D01*
X11962Y18380D01*
X11947Y18394D01*
X11931Y18408D01*
X11917Y18417D01*
X11900Y18425D01*
X11881Y18433D01*
X11860Y18440D01*
X11837Y18446D01*
X11813Y18450D01*
X11789Y18453D01*
X11764Y18453D01*
X11726Y18452D01*
X11691Y18448D01*
X11658Y18441D01*
X11627Y18431D01*
X11600Y18419D01*
X11577Y18405D01*
X11557Y18389D01*
X11541Y18371D01*
X11528Y18350D01*
X11517Y18326D01*
X11509Y18299D01*
X11503Y18269D01*
X11612Y18254D01*
X11617Y18278D01*
X11626Y18299D01*
X11639Y18317D01*
X11655Y18333D01*
X11674Y18346D01*
X11698Y18355D01*
X11725Y18360D01*
X11756Y18362D01*
X11791Y18360D01*
X11821Y18355D01*
X11846Y18347D01*
X11865Y18336D01*
X11880Y18323D01*
X11890Y18309D01*
X11896Y18293D01*
X11898Y18277D01*
X11897Y18266D01*
X11895Y18256D01*
X11890Y18247D01*
X11885Y18238D01*
X11877Y18229D01*
X11867Y18221D01*
X11855Y18214D01*
X11842Y18208D01*
X11829Y18204D01*
X11809Y18198D01*
X11780Y18190D01*
X11743Y18179D01*
X11688Y18164D01*
X11643Y18151D01*
X11606Y18138D01*
X11578Y18128D01*
X11556Y18116D01*
X11536Y18103D01*
X11519Y18087D01*
X11504Y18069D01*
X11493Y18049D01*
X11484Y18026D01*
X11479Y18001D01*
X11478Y17973D01*
X11480Y17946D01*
X11486Y17919D01*
X11496Y17893D01*
X11510Y17868D01*
X11528Y17845D01*
X11550Y17825D01*
X11575Y17807D01*
X11604Y17792D01*
X11636Y17780D01*
X11670Y17772D01*
X11705Y17767D01*
X11743Y17765D01*
X11804Y17768D01*
X11856Y17778D01*
X11901Y17795D01*
X11939Y17818D01*
X11969Y17848D01*
X11994Y17885D01*
X12012Y17927D01*
X12025Y17977D01*
X12025Y17977D01*
X11344Y17780D02*
X11344Y18439D01*
X11233Y18439D01*
X11233Y17780D01*
X11344Y17780D01*
X11344Y17780D01*
X11344Y18561D02*
X11344Y18689D01*
X11233Y18689D01*
X11233Y18561D01*
X11344Y18561D01*
X11344Y18561D01*
X11104Y18109D02*
X11098Y18195D01*
X11079Y18268D01*
X11047Y18330D01*
X11003Y18380D01*
X10958Y18412D01*
X10908Y18435D01*
X10854Y18449D01*
X10796Y18453D01*
X10731Y18448D01*
X10672Y18431D01*
X10620Y18403D01*
X10574Y18364D01*
X10536Y18316D01*
X10509Y18258D01*
X10493Y18193D01*
X10487Y18119D01*
X10490Y18058D01*
X10497Y18005D01*
X10509Y17958D01*
X10526Y17919D01*
X10547Y17884D01*
X10572Y17854D01*
X10602Y17828D01*
X10637Y17805D01*
X10674Y17788D01*
X10713Y17775D01*
X10753Y17768D01*
X10796Y17765D01*
X10803Y17766D01*
X10796Y17857D01*
X10756Y17861D01*
X10719Y17873D01*
X10687Y17892D01*
X10657Y17920D01*
X10633Y17956D01*
X10616Y18000D01*
X10606Y18052D01*
X10602Y18113D01*
X10606Y18170D01*
X10616Y18220D01*
X10633Y18263D01*
X10658Y18298D01*
X10687Y18326D01*
X10720Y18345D01*
X10756Y18357D01*
X10796Y18361D01*
X10836Y18357D01*
X10872Y18345D01*
X10905Y18326D01*
X10934Y18298D01*
X10959Y18263D01*
X10976Y18220D01*
X10986Y18169D01*
X10990Y18109D01*
X10990Y18109D01*
X10986Y18050D01*
X10976Y17999D01*
X10959Y17955D01*
X10934Y17920D01*
X10905Y17892D01*
X10872Y17873D01*
X10836Y17861D01*
X10796Y17857D01*
X10803Y17766D01*
X10861Y17771D01*
X10921Y17787D01*
X10973Y17815D01*
X11019Y17854D01*
X11056Y17903D01*
X11083Y17962D01*
X11099Y18031D01*
X11104Y18109D01*
X11104Y18109D01*
X10357Y17780D02*
X10357Y18439D01*
X10256Y18439D01*
X10256Y18345D01*
X10216Y18392D01*
X10167Y18426D01*
X10111Y18447D01*
X10046Y18453D01*
X10017Y18452D01*
X9989Y18448D01*
X9963Y18441D01*
X9937Y18432D01*
X9914Y18421D01*
X9893Y18407D01*
X9876Y18392D01*
X9862Y18376D01*
X9851Y18358D01*
X9841Y18338D01*
X9833Y18317D01*
X9828Y18293D01*
X9825Y18275D01*
X9823Y18251D01*
X9822Y18221D01*
X9821Y18185D01*
X9821Y17780D01*
X9933Y17780D01*
X9933Y18181D01*
X9934Y18213D01*
X9936Y18240D01*
X9940Y18264D01*
X9946Y18283D01*
X9954Y18299D01*
X9964Y18313D01*
X9977Y18326D01*
X9992Y18337D01*
X10010Y18345D01*
X10028Y18352D01*
X10048Y18355D01*
X10070Y18357D01*
X10104Y18354D01*
X10136Y18345D01*
X10166Y18331D01*
X10193Y18311D01*
X10216Y18284D01*
X10232Y18246D01*
X10242Y18198D01*
X10245Y18140D01*
X10245Y17780D01*
X10357Y17780D01*
X10357Y17780D01*
X8908Y17780D02*
X9020Y17780D01*
X9020Y18491D01*
X9041Y18472D01*
X9066Y18453D01*
X9094Y18434D01*
X9125Y18414D01*
X9157Y18396D01*
X9187Y18381D01*
X9216Y18368D01*
X9243Y18357D01*
X9243Y18465D01*
X9197Y18488D01*
X9155Y18513D01*
X9116Y18541D01*
X9079Y18571D01*
X9047Y18602D01*
X9019Y18633D01*
X8997Y18663D01*
X8980Y18693D01*
X8908Y18693D01*
X8908Y17780D01*
X8908Y17780D01*
X8559Y17780D02*
X8559Y17907D01*
X8432Y17907D01*
X8432Y17780D01*
X8559Y17780D01*
X8559Y17780D01*
X8269Y18228D02*
X8267Y18305D01*
X8261Y18374D01*
X8251Y18435D01*
X8236Y18488D01*
X8217Y18534D01*
X8195Y18575D01*
X8168Y18610D01*
X8137Y18639D01*
X8103Y18663D01*
X8064Y18679D01*
X8020Y18689D01*
X7973Y18693D01*
X7937Y18691D01*
X7904Y18685D01*
X7873Y18676D01*
X7844Y18663D01*
X7818Y18647D01*
X7794Y18627D01*
X7772Y18605D01*
X7753Y18578D01*
X7736Y18549D01*
X7721Y18517D01*
X7708Y18482D01*
X7697Y18443D01*
X7688Y18400D01*
X7682Y18350D01*
X7678Y18292D01*
X7676Y18228D01*
X7678Y18152D01*
X7685Y18084D01*
X7695Y18023D01*
X7709Y17970D01*
X7728Y17924D01*
X7750Y17883D01*
X7777Y17848D01*
X7808Y17818D01*
X7842Y17795D01*
X7882Y17778D01*
X7925Y17768D01*
X7973Y17764D01*
X7981Y17765D01*
X7973Y17856D01*
X7936Y17861D01*
X7902Y17875D01*
X7871Y17898D01*
X7844Y17931D01*
X7821Y17977D01*
X7804Y18042D01*
X7794Y18126D01*
X7791Y18228D01*
X7794Y18331D01*
X7804Y18415D01*
X7821Y18480D01*
X7844Y18527D01*
X7871Y18559D01*
X7902Y18582D01*
X7937Y18596D01*
X7974Y18600D01*
X8011Y18596D01*
X8043Y18584D01*
X8072Y18564D01*
X8097Y18535D01*
X8122Y18485D01*
X8140Y18417D01*
X8151Y18331D01*
X8155Y18228D01*
X8155Y18228D01*
X8151Y18126D01*
X8141Y18042D01*
X8125Y17977D01*
X8102Y17930D01*
X8074Y17898D01*
X8044Y17875D01*
X8010Y17861D01*
X7973Y17856D01*
X7981Y17765D01*
X8035Y17770D01*
X8090Y17788D01*
X8138Y17818D01*
X8179Y17859D01*
X8219Y17924D01*
X8247Y18008D01*
X8264Y18109D01*
X8269Y18228D01*
X8269Y18228D01*
X7500Y17780D02*
X7500Y17907D01*
X7373Y17907D01*
X7373Y17780D01*
X7500Y17780D01*
X7500Y17780D01*
X7210Y18228D02*
X7208Y18305D01*
X7202Y18374D01*
X7191Y18435D01*
X7177Y18488D01*
X7158Y18534D01*
X7136Y18575D01*
X7109Y18610D01*
X7078Y18639D01*
X7043Y18663D01*
X7004Y18679D01*
X6961Y18689D01*
X6914Y18693D01*
X6878Y18691D01*
X6845Y18685D01*
X6814Y18676D01*
X6785Y18663D01*
X6759Y18647D01*
X6735Y18627D01*
X6713Y18605D01*
X6694Y18578D01*
X6677Y18549D01*
X6662Y18517D01*
X6649Y18482D01*
X6638Y18443D01*
X6629Y18400D01*
X6622Y18350D01*
X6619Y18292D01*
X6617Y18228D01*
X6619Y18152D01*
X6625Y18084D01*
X6636Y18023D01*
X6650Y17970D01*
X6669Y17924D01*
X6691Y17883D01*
X6718Y17848D01*
X6748Y17818D01*
X6783Y17795D01*
X6822Y17778D01*
X6866Y17768D01*
X6914Y17764D01*
X6922Y17765D01*
X6914Y17856D01*
X6877Y17861D01*
X6843Y17875D01*
X6812Y17898D01*
X6784Y17931D01*
X6761Y17977D01*
X6745Y18042D01*
X6735Y18126D01*
X6732Y18228D01*
X6735Y18331D01*
X6745Y18415D01*
X6761Y18480D01*
X6784Y18527D01*
X6812Y18559D01*
X6843Y18582D01*
X6877Y18596D01*
X6915Y18600D01*
X6951Y18596D01*
X6984Y18584D01*
X7013Y18564D01*
X7038Y18535D01*
X7063Y18485D01*
X7081Y18417D01*
X7092Y18331D01*
X7095Y18228D01*
X7095Y18228D01*
X7092Y18126D01*
X7082Y18042D01*
X7066Y17977D01*
X7043Y17930D01*
X7015Y17898D01*
X6984Y17875D01*
X6951Y17861D01*
X6914Y17856D01*
X6922Y17765D01*
X6976Y17770D01*
X7031Y17788D01*
X7079Y17818D01*
X7120Y17859D01*
X7159Y17924D01*
X7188Y18008D01*
X7204Y18109D01*
X7210Y18228D01*
X7210Y18228D01*
G37*
M02*