%FSLAX33Y33*%
%MOMM*%
%AMRect-W1600000-H1600000-RO1.500*
21,1,1.6,1.6,0.,0.,90*%
%AMRect-W1650000-H1650000-RO0.500*
21,1,1.65,1.65,0.,0.,270*%
%ADD10C,0.0508*%
%ADD11C,1.6*%
%ADD12Rect-W1600000-H1600000-RO1.500*%
%ADD13C,1.65*%
%ADD14Rect-W1650000-H1650000-RO0.500*%
D10*
%LNpour fill*%
G01*
X17360Y21170D02*
X17360Y21170D01*
X0420Y21170*
X0420Y0420*
X17360Y0420*
X17360Y21170*
X3934Y16758D02*
X3686Y16758D01*
X3445Y16817*
X3225Y16933*
X3039Y17097*
X2898Y17302*
X2810Y17534*
X2780Y17780*
X2810Y18026*
X2898Y18258*
X3039Y18463*
X3225Y18627*
X3445Y18743*
X3686Y18802*
X3934Y18802*
X4175Y18743*
X4395Y18627*
X4581Y18463*
X4722Y18258*
X4810Y18026*
X4840Y17780*
X4810Y17534*
X4722Y17302*
X4581Y17097*
X4395Y16933*
X4175Y16817*
X3934Y16758*
X6474Y16758D02*
X6226Y16758D01*
X5985Y16817*
X5765Y16933*
X5579Y17097*
X5438Y17302*
X5350Y17534*
X5320Y17780*
X5350Y18026*
X5438Y18258*
X5579Y18463*
X5765Y18627*
X5985Y18743*
X6226Y18802*
X6474Y18802*
X6715Y18743*
X6935Y18627*
X7121Y18463*
X7262Y18258*
X7350Y18026*
X7380Y17780*
X7350Y17534*
X7262Y17302*
X7121Y17097*
X6935Y16933*
X6715Y16817*
X6474Y16758*
X11554Y16758D02*
X11306Y16758D01*
X11065Y16817*
X10845Y16933*
X10659Y17097*
X10518Y17302*
X10430Y17534*
X10400Y17780*
X10430Y18026*
X10518Y18258*
X10659Y18463*
X10845Y18627*
X11065Y18743*
X11306Y18802*
X11554Y18802*
X11795Y18743*
X12015Y18627*
X12201Y18463*
X12342Y18258*
X12430Y18026*
X12460Y17780*
X12430Y17534*
X12342Y17302*
X12201Y17097*
X12015Y16933*
X11795Y16817*
X11554Y16758*
X14094Y16758D02*
X13846Y16758D01*
X13605Y16817*
X13385Y16933*
X13199Y17097*
X13058Y17302*
X12970Y17534*
X12940Y17780*
X12970Y18026*
X13058Y18258*
X13199Y18463*
X13385Y18627*
X13605Y18743*
X13846Y18802*
X14094Y18802*
X14335Y18743*
X14555Y18627*
X14741Y18463*
X14882Y18258*
X14970Y18026*
X15000Y17780*
X14970Y17534*
X14882Y17302*
X14741Y17097*
X14555Y16933*
X14335Y16817*
X14094Y16758*
X8690Y16777D02*
X8525Y16817D01*
X8305Y16933*
X8119Y17097*
X7978Y17302*
X7890Y17534*
X7860Y17780*
X7890Y18026*
X7978Y18258*
X8119Y18463*
X8305Y18627*
X8525Y18743*
X8690Y18783*
X8690Y18517*
X9090Y18517*
X9090Y18783*
X9255Y18743*
X9475Y18627*
X9661Y18463*
X9802Y18258*
X9890Y18026*
X9920Y17780*
X9890Y17534*
X9802Y17302*
X9661Y17097*
X9475Y16933*
X9255Y16817*
X9090Y16777*
X9090Y17043*
X8690Y17043*
X8690Y16777*
X4610Y14210D02*
X3010Y14210D01*
X2974Y14213*
X2939Y14222*
X2906Y14235*
X2875Y14254*
X2848Y14278*
X2824Y14305*
X2805Y14336*
X2792Y14369*
X2783Y14404*
X2780Y14440*
X2780Y16040*
X2783Y16076*
X2792Y16111*
X2805Y16144*
X2824Y16175*
X2848Y16202*
X2875Y16226*
X2906Y16245*
X2939Y16258*
X2974Y16267*
X3010Y16270*
X4610Y16270*
X4646Y16267*
X4681Y16258*
X4714Y16245*
X4745Y16226*
X4772Y16202*
X4796Y16175*
X4815Y16144*
X4828Y16111*
X4837Y16076*
X4840Y16040*
X4840Y14440*
X4837Y14404*
X4828Y14369*
X4815Y14336*
X4796Y14305*
X4772Y14278*
X4745Y14254*
X4714Y14235*
X4681Y14222*
X4646Y14213*
X4610Y14210*
X6474Y14218D02*
X6226Y14218D01*
X5985Y14277*
X5765Y14393*
X5579Y14557*
X5438Y14762*
X5350Y14994*
X5320Y15240*
X5350Y15486*
X5438Y15718*
X5579Y15923*
X5765Y16087*
X5985Y16203*
X6226Y16262*
X6474Y16262*
X6715Y16203*
X6935Y16087*
X7121Y15923*
X7262Y15718*
X7350Y15486*
X7380Y15240*
X7350Y14994*
X7262Y14762*
X7121Y14557*
X6935Y14393*
X6715Y14277*
X6474Y14218*
X9014Y14218D02*
X8766Y14218D01*
X8525Y14277*
X8305Y14393*
X8119Y14557*
X7978Y14762*
X7890Y14994*
X7860Y15240*
X7890Y15486*
X7978Y15718*
X8119Y15923*
X8305Y16087*
X8525Y16203*
X8766Y16262*
X9014Y16262*
X9255Y16203*
X9475Y16087*
X9661Y15923*
X9802Y15718*
X9890Y15486*
X9920Y15240*
X9890Y14994*
X9802Y14762*
X9661Y14557*
X9475Y14393*
X9255Y14277*
X9014Y14218*
X11554Y14218D02*
X11306Y14218D01*
X11065Y14277*
X10845Y14393*
X10659Y14557*
X10518Y14762*
X10430Y14994*
X10400Y15240*
X10430Y15486*
X10518Y15718*
X10659Y15923*
X10845Y16087*
X11065Y16203*
X11306Y16262*
X11554Y16262*
X11795Y16203*
X12015Y16087*
X12201Y15923*
X12342Y15718*
X12430Y15486*
X12460Y15240*
X12430Y14994*
X12342Y14762*
X12201Y14557*
X12015Y14393*
X11795Y14277*
X11554Y14218*
X13770Y14237D02*
X13605Y14277D01*
X13385Y14393*
X13199Y14557*
X13058Y14762*
X12970Y14994*
X12940Y15240*
X12970Y15486*
X13058Y15718*
X13199Y15923*
X13385Y16087*
X13605Y16203*
X13770Y16243*
X13770Y15977*
X14170Y15977*
X14170Y16243*
X14335Y16203*
X14555Y16087*
X14741Y15923*
X14882Y15718*
X14970Y15486*
X15000Y15240*
X14970Y14994*
X14882Y14762*
X14741Y14557*
X14555Y14393*
X14335Y14277*
X14170Y14237*
X14170Y14503*
X13770Y14503*
X13770Y14237*
X16065Y4025D02*
X15440Y4025D01*
X15440Y4312*
X15040Y4312*
X15040Y4025*
X14415Y4025*
X14379Y4028*
X14344Y4037*
X14311Y4050*
X14280Y4069*
X14253Y4093*
X14229Y4120*
X14210Y4151*
X14197Y4184*
X14188Y4219*
X14185Y4255*
X14185Y4880*
X14472Y4880*
X14472Y5280*
X14185Y5280*
X14185Y5905*
X14188Y5941*
X14197Y5976*
X14210Y6009*
X14229Y6040*
X14253Y6067*
X14280Y6091*
X14311Y6110*
X14344Y6123*
X14379Y6132*
X14415Y6135*
X15040Y6135*
X15040Y5848*
X15440Y5848*
X15440Y6135*
X16065Y6135*
X16101Y6132*
X16136Y6123*
X16169Y6110*
X16200Y6091*
X16227Y6067*
X16251Y6040*
X16270Y6009*
X16283Y5976*
X16292Y5941*
X16295Y5905*
X16295Y5280*
X16008Y5280*
X16008Y4880*
X16295Y4880*
X16295Y4255*
X16292Y4219*
X16283Y4184*
X16270Y4151*
X16251Y4120*
X16227Y4093*
X16200Y4069*
X16169Y4050*
X16136Y4037*
X16101Y4028*
X16065Y4025*
X2667Y4033D02*
X2413Y4033D01*
X2166Y4094*
X1941Y4212*
X1751Y4381*
X1606Y4590*
X1516Y4828*
X1485Y5080*
X1516Y5332*
X1606Y5570*
X1751Y5779*
X1941Y5948*
X2166Y6066*
X2413Y6127*
X2667Y6127*
X2914Y6066*
X3139Y5948*
X3329Y5779*
X3474Y5570*
X3564Y5332*
X3595Y5080*
X3564Y4828*
X3474Y4590*
X3329Y4381*
X3139Y4212*
X2914Y4094*
X2667Y4033*
X5207Y4033D02*
X4953Y4033D01*
X4706Y4094*
X4481Y4212*
X4291Y4381*
X4146Y4590*
X4056Y4828*
X4025Y5080*
X4056Y5332*
X4146Y5570*
X4291Y5779*
X4481Y5948*
X4706Y6066*
X4953Y6127*
X5207Y6127*
X5454Y6066*
X5679Y5948*
X5869Y5779*
X6014Y5570*
X6104Y5332*
X6135Y5080*
X6104Y4828*
X6014Y4590*
X5869Y4381*
X5679Y4212*
X5454Y4094*
X5207Y4033*
X7747Y4033D02*
X7493Y4033D01*
X7246Y4094*
X7021Y4212*
X6831Y4381*
X6686Y4590*
X6596Y4828*
X6565Y5080*
X6596Y5332*
X6686Y5570*
X6831Y5779*
X7021Y5948*
X7246Y6066*
X7493Y6127*
X7747Y6127*
X7994Y6066*
X8219Y5948*
X8409Y5779*
X8554Y5570*
X8644Y5332*
X8675Y5080*
X8644Y4828*
X8554Y4590*
X8409Y4381*
X8219Y4212*
X7994Y4094*
X7747Y4033*
X10287Y4033D02*
X10033Y4033D01*
X9786Y4094*
X9561Y4212*
X9371Y4381*
X9226Y4590*
X9136Y4828*
X9105Y5080*
X9136Y5332*
X9226Y5570*
X9371Y5779*
X9561Y5948*
X9786Y6066*
X10033Y6127*
X10287Y6127*
X10534Y6066*
X10759Y5948*
X10949Y5779*
X11094Y5570*
X11184Y5332*
X11215Y5080*
X11184Y4828*
X11094Y4590*
X10949Y4381*
X10759Y4212*
X10534Y4094*
X10287Y4033*
X12827Y4033D02*
X12573Y4033D01*
X12326Y4094*
X12101Y4212*
X11911Y4381*
X11766Y4590*
X11676Y4828*
X11645Y5080*
X11676Y5332*
X11766Y5570*
X11911Y5779*
X12101Y5948*
X12326Y6066*
X12573Y6127*
X12827Y6127*
X13074Y6066*
X13299Y5948*
X13489Y5779*
X13634Y5570*
X13724Y5332*
X13755Y5080*
X13724Y4828*
X13634Y4590*
X13489Y4381*
X13299Y4212*
X13074Y4094*
X12827Y4033*
X0420Y0470D02*
X17360Y0470D01*
X0420Y0519D02*
X17360Y0519D01*
X0420Y0569D02*
X17360Y0569D01*
X0420Y0618D02*
X17360Y0618D01*
X0420Y0668D02*
X17360Y0668D01*
X0420Y0717D02*
X17360Y0717D01*
X0420Y0767D02*
X17360Y0767D01*
X0420Y0816D02*
X17360Y0816D01*
X0420Y0866D02*
X17360Y0866D01*
X0420Y0915D02*
X17360Y0915D01*
X0420Y0965D02*
X17360Y0965D01*
X0420Y1014D02*
X17360Y1014D01*
X0420Y1064D02*
X17360Y1064D01*
X0420Y1114D02*
X17360Y1114D01*
X0420Y1163D02*
X17360Y1163D01*
X0420Y1213D02*
X17360Y1213D01*
X0420Y1262D02*
X17360Y1262D01*
X0420Y1312D02*
X17360Y1312D01*
X0420Y1361D02*
X17360Y1361D01*
X0420Y1411D02*
X17360Y1411D01*
X0420Y1460D02*
X17360Y1460D01*
X0420Y1510D02*
X17360Y1510D01*
X0420Y1559D02*
X17360Y1559D01*
X0420Y1609D02*
X17360Y1609D01*
X0420Y1658D02*
X17360Y1658D01*
X0420Y1708D02*
X17360Y1708D01*
X0420Y1757D02*
X17360Y1757D01*
X0420Y1807D02*
X17360Y1807D01*
X0420Y1856D02*
X17360Y1856D01*
X0420Y1906D02*
X17360Y1906D01*
X0420Y1956D02*
X17360Y1956D01*
X0420Y2005D02*
X17360Y2005D01*
X0420Y2055D02*
X17360Y2055D01*
X0420Y2104D02*
X17360Y2104D01*
X0420Y2154D02*
X17360Y2154D01*
X0420Y2203D02*
X17360Y2203D01*
X0420Y2253D02*
X17360Y2253D01*
X0420Y2302D02*
X17360Y2302D01*
X0420Y2352D02*
X17360Y2352D01*
X0420Y2401D02*
X17360Y2401D01*
X0420Y2451D02*
X17360Y2451D01*
X0420Y2500D02*
X17360Y2500D01*
X0420Y2550D02*
X17360Y2550D01*
X0420Y2599D02*
X17360Y2599D01*
X0420Y2649D02*
X17360Y2649D01*
X0420Y2698D02*
X17360Y2698D01*
X0420Y2748D02*
X17360Y2748D01*
X0420Y2798D02*
X17360Y2798D01*
X0420Y2847D02*
X17360Y2847D01*
X0420Y2897D02*
X17360Y2897D01*
X0420Y2946D02*
X17360Y2946D01*
X0420Y2996D02*
X17360Y2996D01*
X0420Y3045D02*
X17360Y3045D01*
X0420Y3095D02*
X17360Y3095D01*
X0420Y3144D02*
X17360Y3144D01*
X0420Y3194D02*
X17360Y3194D01*
X0420Y3243D02*
X17360Y3243D01*
X0420Y3293D02*
X17360Y3293D01*
X0420Y3342D02*
X17360Y3342D01*
X0420Y3392D02*
X17360Y3392D01*
X0420Y3441D02*
X17360Y3441D01*
X0420Y3491D02*
X17360Y3491D01*
X0420Y3540D02*
X17360Y3540D01*
X0420Y3590D02*
X17360Y3590D01*
X0420Y3640D02*
X17360Y3640D01*
X0420Y3689D02*
X17360Y3689D01*
X0420Y3739D02*
X17360Y3739D01*
X0420Y3788D02*
X17360Y3788D01*
X0420Y3838D02*
X17360Y3838D01*
X0420Y3887D02*
X17360Y3887D01*
X0420Y3937D02*
X17360Y3937D01*
X0420Y3986D02*
X17360Y3986D01*
X0420Y4036D02*
X2401Y4036D01*
X2679Y4036D02*
X4941Y4036D01*
X5219Y4036D02*
X7481Y4036D01*
X7759Y4036D02*
X10021Y4036D01*
X10299Y4036D02*
X12561Y4036D01*
X12839Y4036D02*
X14346Y4036D01*
X15040Y4036D02*
X15440Y4036D01*
X16134Y4036D02*
X17360Y4036D01*
X0420Y4085D02*
X2200Y4085D01*
X2880Y4085D02*
X4740Y4085D01*
X5420Y4085D02*
X7280Y4085D01*
X7960Y4085D02*
X9820Y4085D01*
X10500Y4085D02*
X12360Y4085D01*
X13040Y4085D02*
X14261Y4085D01*
X15040Y4085D02*
X15440Y4085D01*
X16219Y4085D02*
X17360Y4085D01*
X0420Y4135D02*
X2088Y4135D01*
X2992Y4135D02*
X4628Y4135D01*
X5532Y4135D02*
X7168Y4135D01*
X8072Y4135D02*
X9708Y4135D01*
X10612Y4135D02*
X12248Y4135D01*
X13152Y4135D02*
X14220Y4135D01*
X15040Y4135D02*
X15440Y4135D01*
X16260Y4135D02*
X17360Y4135D01*
X0420Y4184D02*
X1993Y4184D01*
X3087Y4184D02*
X4533Y4184D01*
X5627Y4184D02*
X7073Y4184D01*
X8167Y4184D02*
X9613Y4184D01*
X10707Y4184D02*
X12153Y4184D01*
X13247Y4184D02*
X14196Y4184D01*
X15040Y4184D02*
X15440Y4184D01*
X16284Y4184D02*
X17360Y4184D01*
X0420Y4234D02*
X1916Y4234D01*
X3164Y4234D02*
X4456Y4234D01*
X5704Y4234D02*
X6996Y4234D01*
X8244Y4234D02*
X9536Y4234D01*
X10784Y4234D02*
X12076Y4234D01*
X13324Y4234D02*
X14187Y4234D01*
X15040Y4234D02*
X15440Y4234D01*
X16293Y4234D02*
X17360Y4234D01*
X0420Y4283D02*
X1860Y4283D01*
X3220Y4283D02*
X4400Y4283D01*
X5760Y4283D02*
X6940Y4283D01*
X8300Y4283D02*
X9480Y4283D01*
X10840Y4283D02*
X12020Y4283D01*
X13380Y4283D02*
X14185Y4283D01*
X15040Y4283D02*
X15440Y4283D01*
X16295Y4283D02*
X17360Y4283D01*
X0420Y4333D02*
X1804Y4333D01*
X3276Y4333D02*
X4344Y4333D01*
X5816Y4333D02*
X6884Y4333D01*
X8356Y4333D02*
X9424Y4333D01*
X10896Y4333D02*
X11964Y4333D01*
X13436Y4333D02*
X14185Y4333D01*
X16295Y4333D02*
X17360Y4333D01*
X0420Y4383D02*
X1749Y4383D01*
X3331Y4383D02*
X4289Y4383D01*
X5871Y4383D02*
X6829Y4383D01*
X8411Y4383D02*
X9369Y4383D01*
X10951Y4383D02*
X11909Y4383D01*
X13491Y4383D02*
X14185Y4383D01*
X16295Y4383D02*
X17360Y4383D01*
X0420Y4432D02*
X1715Y4432D01*
X3365Y4432D02*
X4255Y4432D01*
X5905Y4432D02*
X6795Y4432D01*
X8445Y4432D02*
X9335Y4432D01*
X10985Y4432D02*
X11875Y4432D01*
X13525Y4432D02*
X14185Y4432D01*
X16295Y4432D02*
X17360Y4432D01*
X0420Y4482D02*
X1681Y4482D01*
X3399Y4482D02*
X4221Y4482D01*
X5939Y4482D02*
X6761Y4482D01*
X8479Y4482D02*
X9301Y4482D01*
X11019Y4482D02*
X11841Y4482D01*
X13559Y4482D02*
X14185Y4482D01*
X16295Y4482D02*
X17360Y4482D01*
X0420Y4531D02*
X1646Y4531D01*
X3434Y4531D02*
X4186Y4531D01*
X5974Y4531D02*
X6726Y4531D01*
X8514Y4531D02*
X9266Y4531D01*
X11054Y4531D02*
X11806Y4531D01*
X13594Y4531D02*
X14185Y4531D01*
X16295Y4531D02*
X17360Y4531D01*
X0420Y4581D02*
X1612Y4581D01*
X3468Y4581D02*
X4152Y4581D01*
X6008Y4581D02*
X6692Y4581D01*
X8548Y4581D02*
X9232Y4581D01*
X11088Y4581D02*
X11772Y4581D01*
X13628Y4581D02*
X14185Y4581D01*
X16295Y4581D02*
X17360Y4581D01*
X0420Y4630D02*
X1591Y4630D01*
X3489Y4630D02*
X4131Y4630D01*
X6029Y4630D02*
X6671Y4630D01*
X8569Y4630D02*
X9211Y4630D01*
X11109Y4630D02*
X11751Y4630D01*
X13649Y4630D02*
X14185Y4630D01*
X16295Y4630D02*
X17360Y4630D01*
X0420Y4680D02*
X1572Y4680D01*
X3508Y4680D02*
X4112Y4680D01*
X6048Y4680D02*
X6652Y4680D01*
X8588Y4680D02*
X9192Y4680D01*
X11128Y4680D02*
X11732Y4680D01*
X13668Y4680D02*
X14185Y4680D01*
X16295Y4680D02*
X17360Y4680D01*
X0420Y4729D02*
X1553Y4729D01*
X3527Y4729D02*
X4093Y4729D01*
X6067Y4729D02*
X6633Y4729D01*
X8607Y4729D02*
X9173Y4729D01*
X11147Y4729D02*
X11713Y4729D01*
X13687Y4729D02*
X14185Y4729D01*
X16295Y4729D02*
X17360Y4729D01*
X0420Y4779D02*
X1534Y4779D01*
X3546Y4779D02*
X4074Y4779D01*
X6086Y4779D02*
X6614Y4779D01*
X8626Y4779D02*
X9154Y4779D01*
X11166Y4779D02*
X11694Y4779D01*
X13706Y4779D02*
X14185Y4779D01*
X16295Y4779D02*
X17360Y4779D01*
X0420Y4828D02*
X1516Y4828D01*
X3564Y4828D02*
X4056Y4828D01*
X6104Y4828D02*
X6596Y4828D01*
X8644Y4828D02*
X9136Y4828D01*
X11184Y4828D02*
X11676Y4828D01*
X13724Y4828D02*
X14185Y4828D01*
X16295Y4828D02*
X17360Y4828D01*
X0420Y4878D02*
X1510Y4878D01*
X3570Y4878D02*
X4050Y4878D01*
X6110Y4878D02*
X6590Y4878D01*
X8650Y4878D02*
X9130Y4878D01*
X11190Y4878D02*
X11670Y4878D01*
X13730Y4878D02*
X14185Y4878D01*
X16295Y4878D02*
X17360Y4878D01*
X0420Y4927D02*
X1504Y4927D01*
X3576Y4927D02*
X4044Y4927D01*
X6116Y4927D02*
X6584Y4927D01*
X8656Y4927D02*
X9124Y4927D01*
X11196Y4927D02*
X11664Y4927D01*
X13736Y4927D02*
X14472Y4927D01*
X16008Y4927D02*
X17360Y4927D01*
X0420Y4977D02*
X1498Y4977D01*
X3582Y4977D02*
X4038Y4977D01*
X6122Y4977D02*
X6578Y4977D01*
X8662Y4977D02*
X9118Y4977D01*
X11202Y4977D02*
X11658Y4977D01*
X13742Y4977D02*
X14472Y4977D01*
X16008Y4977D02*
X17360Y4977D01*
X0420Y5026D02*
X1492Y5026D01*
X3588Y5026D02*
X4032Y5026D01*
X6128Y5026D02*
X6572Y5026D01*
X8668Y5026D02*
X9112Y5026D01*
X11208Y5026D02*
X11652Y5026D01*
X13748Y5026D02*
X14472Y5026D01*
X16008Y5026D02*
X17360Y5026D01*
X0420Y5076D02*
X1486Y5076D01*
X3594Y5076D02*
X4026Y5076D01*
X6134Y5076D02*
X6566Y5076D01*
X8674Y5076D02*
X9106Y5076D01*
X11214Y5076D02*
X11646Y5076D01*
X13754Y5076D02*
X14472Y5076D01*
X16008Y5076D02*
X17360Y5076D01*
X0420Y5125D02*
X1491Y5125D01*
X3589Y5125D02*
X4031Y5125D01*
X6129Y5125D02*
X6571Y5125D01*
X8669Y5125D02*
X9111Y5125D01*
X11209Y5125D02*
X11651Y5125D01*
X13749Y5125D02*
X14472Y5125D01*
X16008Y5125D02*
X17360Y5125D01*
X0420Y5175D02*
X1497Y5175D01*
X3583Y5175D02*
X4037Y5175D01*
X6123Y5175D02*
X6577Y5175D01*
X8663Y5175D02*
X9117Y5175D01*
X11203Y5175D02*
X11657Y5175D01*
X13743Y5175D02*
X14472Y5175D01*
X16008Y5175D02*
X17360Y5175D01*
X0420Y5225D02*
X1503Y5225D01*
X3577Y5225D02*
X4043Y5225D01*
X6117Y5225D02*
X6583Y5225D01*
X8657Y5225D02*
X9123Y5225D01*
X11197Y5225D02*
X11663Y5225D01*
X13737Y5225D02*
X14472Y5225D01*
X16008Y5225D02*
X17360Y5225D01*
X0420Y5274D02*
X1509Y5274D01*
X3571Y5274D02*
X4049Y5274D01*
X6111Y5274D02*
X6589Y5274D01*
X8651Y5274D02*
X9129Y5274D01*
X11191Y5274D02*
X11669Y5274D01*
X13731Y5274D02*
X14472Y5274D01*
X16008Y5274D02*
X17360Y5274D01*
X0420Y5324D02*
X1515Y5324D01*
X3565Y5324D02*
X4055Y5324D01*
X6105Y5324D02*
X6595Y5324D01*
X8645Y5324D02*
X9135Y5324D01*
X11185Y5324D02*
X11675Y5324D01*
X13725Y5324D02*
X14185Y5324D01*
X16295Y5324D02*
X17360Y5324D01*
X0420Y5373D02*
X1531Y5373D01*
X3549Y5373D02*
X4071Y5373D01*
X6089Y5373D02*
X6611Y5373D01*
X8629Y5373D02*
X9151Y5373D01*
X11169Y5373D02*
X11691Y5373D01*
X13709Y5373D02*
X14185Y5373D01*
X16295Y5373D02*
X17360Y5373D01*
X0420Y5423D02*
X1550Y5423D01*
X3530Y5423D02*
X4090Y5423D01*
X6070Y5423D02*
X6630Y5423D01*
X8610Y5423D02*
X9170Y5423D01*
X11150Y5423D02*
X11710Y5423D01*
X13690Y5423D02*
X14185Y5423D01*
X16295Y5423D02*
X17360Y5423D01*
X0420Y5472D02*
X1569Y5472D01*
X3511Y5472D02*
X4109Y5472D01*
X6051Y5472D02*
X6649Y5472D01*
X8591Y5472D02*
X9189Y5472D01*
X11131Y5472D02*
X11729Y5472D01*
X13671Y5472D02*
X14185Y5472D01*
X16295Y5472D02*
X17360Y5472D01*
X0420Y5522D02*
X1588Y5522D01*
X3492Y5522D02*
X4128Y5522D01*
X6032Y5522D02*
X6668Y5522D01*
X8572Y5522D02*
X9208Y5522D01*
X11112Y5522D02*
X11748Y5522D01*
X13652Y5522D02*
X14185Y5522D01*
X16295Y5522D02*
X17360Y5522D01*
X0420Y5571D02*
X1607Y5571D01*
X3473Y5571D02*
X4147Y5571D01*
X6013Y5571D02*
X6687Y5571D01*
X8553Y5571D02*
X9227Y5571D01*
X11093Y5571D02*
X11767Y5571D01*
X13633Y5571D02*
X14185Y5571D01*
X16295Y5571D02*
X17360Y5571D01*
X0420Y5621D02*
X1641Y5621D01*
X3439Y5621D02*
X4181Y5621D01*
X5979Y5621D02*
X6721Y5621D01*
X8519Y5621D02*
X9261Y5621D01*
X11059Y5621D02*
X11801Y5621D01*
X13599Y5621D02*
X14185Y5621D01*
X16295Y5621D02*
X17360Y5621D01*
X0420Y5670D02*
X1675Y5670D01*
X3405Y5670D02*
X4215Y5670D01*
X5945Y5670D02*
X6755Y5670D01*
X8485Y5670D02*
X9295Y5670D01*
X11025Y5670D02*
X11835Y5670D01*
X13565Y5670D02*
X14185Y5670D01*
X16295Y5670D02*
X17360Y5670D01*
X0420Y5720D02*
X1709Y5720D01*
X3371Y5720D02*
X4249Y5720D01*
X5911Y5720D02*
X6789Y5720D01*
X8451Y5720D02*
X9329Y5720D01*
X10991Y5720D02*
X11869Y5720D01*
X13531Y5720D02*
X14185Y5720D01*
X16295Y5720D02*
X17360Y5720D01*
X0420Y5769D02*
X1743Y5769D01*
X3337Y5769D02*
X4283Y5769D01*
X5877Y5769D02*
X6823Y5769D01*
X8417Y5769D02*
X9363Y5769D01*
X10957Y5769D02*
X11903Y5769D01*
X13497Y5769D02*
X14185Y5769D01*
X16295Y5769D02*
X17360Y5769D01*
X0420Y5819D02*
X1795Y5819D01*
X3285Y5819D02*
X4335Y5819D01*
X5825Y5819D02*
X6875Y5819D01*
X8365Y5819D02*
X9415Y5819D01*
X10905Y5819D02*
X11955Y5819D01*
X13445Y5819D02*
X14185Y5819D01*
X16295Y5819D02*
X17360Y5819D01*
X0420Y5868D02*
X1851Y5868D01*
X3229Y5868D02*
X4391Y5868D01*
X5769Y5868D02*
X6931Y5868D01*
X8309Y5868D02*
X9471Y5868D01*
X10849Y5868D02*
X12011Y5868D01*
X13389Y5868D02*
X14185Y5868D01*
X15040Y5868D02*
X15440Y5868D01*
X16295Y5868D02*
X17360Y5868D01*
X0420Y5918D02*
X1907Y5918D01*
X3173Y5918D02*
X4447Y5918D01*
X5713Y5918D02*
X6987Y5918D01*
X8253Y5918D02*
X9527Y5918D01*
X10793Y5918D02*
X12067Y5918D01*
X13333Y5918D02*
X14186Y5918D01*
X15040Y5918D02*
X15440Y5918D01*
X16294Y5918D02*
X17360Y5918D01*
X0420Y5967D02*
X1978Y5967D01*
X3102Y5967D02*
X4518Y5967D01*
X5642Y5967D02*
X7058Y5967D01*
X8182Y5967D02*
X9598Y5967D01*
X10722Y5967D02*
X12138Y5967D01*
X13262Y5967D02*
X14194Y5967D01*
X15040Y5967D02*
X15440Y5967D01*
X16286Y5967D02*
X17360Y5967D01*
X0420Y6017D02*
X2072Y6017D01*
X3008Y6017D02*
X4612Y6017D01*
X5548Y6017D02*
X7152Y6017D01*
X8088Y6017D02*
X9692Y6017D01*
X10628Y6017D02*
X12232Y6017D01*
X13168Y6017D02*
X14215Y6017D01*
X15040Y6017D02*
X15440Y6017D01*
X16265Y6017D02*
X17360Y6017D01*
X0420Y6067D02*
X2167Y6067D01*
X2913Y6067D02*
X4707Y6067D01*
X5453Y6067D02*
X7247Y6067D01*
X7993Y6067D02*
X9787Y6067D01*
X10533Y6067D02*
X12327Y6067D01*
X13073Y6067D02*
X14252Y6067D01*
X15040Y6067D02*
X15440Y6067D01*
X16228Y6067D02*
X17360Y6067D01*
X0420Y6116D02*
X2368Y6116D01*
X2712Y6116D02*
X4908Y6116D01*
X5252Y6116D02*
X7448Y6116D01*
X7792Y6116D02*
X9988Y6116D01*
X10332Y6116D02*
X12528Y6116D01*
X12872Y6116D02*
X14326Y6116D01*
X15040Y6116D02*
X15440Y6116D01*
X16154Y6116D02*
X17360Y6116D01*
X0420Y6166D02*
X17360Y6166D01*
X0420Y6215D02*
X17360Y6215D01*
X0420Y6265D02*
X17360Y6265D01*
X0420Y6314D02*
X17360Y6314D01*
X0420Y6364D02*
X17360Y6364D01*
X0420Y6413D02*
X17360Y6413D01*
X0420Y6463D02*
X17360Y6463D01*
X0420Y6512D02*
X17360Y6512D01*
X0420Y6562D02*
X17360Y6562D01*
X0420Y6611D02*
X17360Y6611D01*
X0420Y6661D02*
X17360Y6661D01*
X0420Y6710D02*
X17360Y6710D01*
X0420Y6760D02*
X17360Y6760D01*
X0420Y6809D02*
X17360Y6809D01*
X0420Y6859D02*
X17360Y6859D01*
X0420Y6909D02*
X17360Y6909D01*
X0420Y6958D02*
X17360Y6958D01*
X0420Y7008D02*
X17360Y7008D01*
X0420Y7057D02*
X17360Y7057D01*
X0420Y7107D02*
X17360Y7107D01*
X0420Y7156D02*
X17360Y7156D01*
X0420Y7206D02*
X17360Y7206D01*
X0420Y7255D02*
X17360Y7255D01*
X0420Y7305D02*
X17360Y7305D01*
X0420Y7354D02*
X17360Y7354D01*
X0420Y7404D02*
X17360Y7404D01*
X0420Y7453D02*
X17360Y7453D01*
X0420Y7503D02*
X17360Y7503D01*
X0420Y7552D02*
X17360Y7552D01*
X0420Y7602D02*
X17360Y7602D01*
X0420Y7651D02*
X17360Y7651D01*
X0420Y7701D02*
X17360Y7701D01*
X0420Y7751D02*
X17360Y7751D01*
X0420Y7800D02*
X17360Y7800D01*
X0420Y7850D02*
X17360Y7850D01*
X0420Y7899D02*
X17360Y7899D01*
X0420Y7949D02*
X17360Y7949D01*
X0420Y7998D02*
X17360Y7998D01*
X0420Y8048D02*
X17360Y8048D01*
X0420Y8097D02*
X17360Y8097D01*
X0420Y8147D02*
X17360Y8147D01*
X0420Y8196D02*
X17360Y8196D01*
X0420Y8246D02*
X17360Y8246D01*
X0420Y8295D02*
X17360Y8295D01*
X0420Y8345D02*
X17360Y8345D01*
X0420Y8394D02*
X17360Y8394D01*
X0420Y8444D02*
X17360Y8444D01*
X0420Y8493D02*
X17360Y8493D01*
X0420Y8543D02*
X17360Y8543D01*
X0420Y8593D02*
X17360Y8593D01*
X0420Y8642D02*
X17360Y8642D01*
X0420Y8692D02*
X17360Y8692D01*
X0420Y8741D02*
X17360Y8741D01*
X0420Y8791D02*
X17360Y8791D01*
X0420Y8840D02*
X17360Y8840D01*
X0420Y8890D02*
X17360Y8890D01*
X0420Y8939D02*
X17360Y8939D01*
X0420Y8989D02*
X17360Y8989D01*
X0420Y9038D02*
X17360Y9038D01*
X0420Y9088D02*
X17360Y9088D01*
X0420Y9137D02*
X17360Y9137D01*
X0420Y9187D02*
X17360Y9187D01*
X0420Y9236D02*
X17360Y9236D01*
X0420Y9286D02*
X17360Y9286D01*
X0420Y9336D02*
X17360Y9336D01*
X0420Y9385D02*
X17360Y9385D01*
X0420Y9435D02*
X17360Y9435D01*
X0420Y9484D02*
X17360Y9484D01*
X0420Y9534D02*
X17360Y9534D01*
X0420Y9583D02*
X17360Y9583D01*
X0420Y9633D02*
X17360Y9633D01*
X0420Y9682D02*
X17360Y9682D01*
X0420Y9732D02*
X17360Y9732D01*
X0420Y9781D02*
X17360Y9781D01*
X0420Y9831D02*
X17360Y9831D01*
X0420Y9880D02*
X17360Y9880D01*
X0420Y9930D02*
X17360Y9930D01*
X0420Y9979D02*
X17360Y9979D01*
X0420Y10029D02*
X17360Y10029D01*
X0420Y10078D02*
X17360Y10078D01*
X0420Y10128D02*
X17360Y10128D01*
X0420Y10178D02*
X17360Y10178D01*
X0420Y10227D02*
X17360Y10227D01*
X0420Y10277D02*
X17360Y10277D01*
X0420Y10326D02*
X17360Y10326D01*
X0420Y10376D02*
X17360Y10376D01*
X0420Y10425D02*
X17360Y10425D01*
X0420Y10475D02*
X17360Y10475D01*
X0420Y10524D02*
X17360Y10524D01*
X0420Y10574D02*
X17360Y10574D01*
X0420Y10623D02*
X17360Y10623D01*
X0420Y10673D02*
X17360Y10673D01*
X0420Y10722D02*
X17360Y10722D01*
X0420Y10772D02*
X17360Y10772D01*
X0420Y10821D02*
X17360Y10821D01*
X0420Y10871D02*
X17360Y10871D01*
X0420Y10920D02*
X17360Y10920D01*
X0420Y10970D02*
X17360Y10970D01*
X0420Y11020D02*
X17360Y11020D01*
X0420Y11069D02*
X17360Y11069D01*
X0420Y11119D02*
X17360Y11119D01*
X0420Y11168D02*
X17360Y11168D01*
X0420Y11218D02*
X17360Y11218D01*
X0420Y11267D02*
X17360Y11267D01*
X0420Y11317D02*
X17360Y11317D01*
X0420Y11366D02*
X17360Y11366D01*
X0420Y11416D02*
X17360Y11416D01*
X0420Y11465D02*
X17360Y11465D01*
X0420Y11515D02*
X17360Y11515D01*
X0420Y11564D02*
X17360Y11564D01*
X0420Y11614D02*
X17360Y11614D01*
X0420Y11663D02*
X17360Y11663D01*
X0420Y11713D02*
X17360Y11713D01*
X0420Y11762D02*
X17360Y11762D01*
X0420Y11812D02*
X17360Y11812D01*
X0420Y11862D02*
X17360Y11862D01*
X0420Y11911D02*
X17360Y11911D01*
X0420Y11961D02*
X17360Y11961D01*
X0420Y12010D02*
X17360Y12010D01*
X0420Y12060D02*
X17360Y12060D01*
X0420Y12109D02*
X17360Y12109D01*
X0420Y12159D02*
X17360Y12159D01*
X0420Y12208D02*
X17360Y12208D01*
X0420Y12258D02*
X17360Y12258D01*
X0420Y12307D02*
X17360Y12307D01*
X0420Y12357D02*
X17360Y12357D01*
X0420Y12406D02*
X17360Y12406D01*
X0420Y12456D02*
X17360Y12456D01*
X0420Y12505D02*
X17360Y12505D01*
X0420Y12555D02*
X17360Y12555D01*
X0420Y12604D02*
X17360Y12604D01*
X0420Y12654D02*
X17360Y12654D01*
X0420Y12704D02*
X17360Y12704D01*
X0420Y12753D02*
X17360Y12753D01*
X0420Y12803D02*
X17360Y12803D01*
X0420Y12852D02*
X17360Y12852D01*
X0420Y12902D02*
X17360Y12902D01*
X0420Y12951D02*
X17360Y12951D01*
X0420Y13001D02*
X17360Y13001D01*
X0420Y13050D02*
X17360Y13050D01*
X0420Y13100D02*
X17360Y13100D01*
X0420Y13149D02*
X17360Y13149D01*
X0420Y13199D02*
X17360Y13199D01*
X0420Y13248D02*
X17360Y13248D01*
X0420Y13298D02*
X17360Y13298D01*
X0420Y13347D02*
X17360Y13347D01*
X0420Y13397D02*
X17360Y13397D01*
X0420Y13446D02*
X17360Y13446D01*
X0420Y13496D02*
X17360Y13496D01*
X0420Y13546D02*
X17360Y13546D01*
X0420Y13595D02*
X17360Y13595D01*
X0420Y13645D02*
X17360Y13645D01*
X0420Y13694D02*
X17360Y13694D01*
X0420Y13744D02*
X17360Y13744D01*
X0420Y13793D02*
X17360Y13793D01*
X0420Y13843D02*
X17360Y13843D01*
X0420Y13892D02*
X17360Y13892D01*
X0420Y13942D02*
X17360Y13942D01*
X0420Y13991D02*
X17360Y13991D01*
X0420Y14041D02*
X17360Y14041D01*
X0420Y14090D02*
X17360Y14090D01*
X0420Y14140D02*
X17360Y14140D01*
X0420Y14189D02*
X17360Y14189D01*
X0420Y14239D02*
X2899Y14239D01*
X4721Y14239D02*
X6139Y14239D01*
X6561Y14239D02*
X8679Y14239D01*
X9101Y14239D02*
X11219Y14239D01*
X11641Y14239D02*
X13759Y14239D01*
X13770Y14239D02*
X14170Y14239D01*
X14181Y14239D02*
X17360Y14239D01*
X0420Y14289D02*
X2838Y14289D01*
X4782Y14289D02*
X5963Y14289D01*
X6737Y14289D02*
X8503Y14289D01*
X9277Y14289D02*
X11043Y14289D01*
X11817Y14289D02*
X13583Y14289D01*
X13770Y14289D02*
X14170Y14289D01*
X14357Y14289D02*
X17360Y14289D01*
X0420Y14338D02*
X2804Y14338D01*
X4816Y14338D02*
X5869Y14338D01*
X6831Y14338D02*
X8409Y14338D01*
X9371Y14338D02*
X10949Y14338D01*
X11911Y14338D02*
X13489Y14338D01*
X13770Y14338D02*
X14170Y14338D01*
X14451Y14338D02*
X17360Y14338D01*
X0420Y14388D02*
X2787Y14388D01*
X4833Y14388D02*
X5774Y14388D01*
X6926Y14388D02*
X8314Y14388D01*
X9466Y14388D02*
X10854Y14388D01*
X12006Y14388D02*
X13394Y14388D01*
X13770Y14388D02*
X14170Y14388D01*
X14546Y14388D02*
X17360Y14388D01*
X0420Y14437D02*
X2780Y14437D01*
X4840Y14437D02*
X5715Y14437D01*
X6985Y14437D02*
X8255Y14437D01*
X9525Y14437D02*
X10795Y14437D01*
X12065Y14437D02*
X13335Y14437D01*
X13770Y14437D02*
X14170Y14437D01*
X14605Y14437D02*
X17360Y14437D01*
X0420Y14487D02*
X2780Y14487D01*
X4840Y14487D02*
X5659Y14487D01*
X7041Y14487D02*
X8199Y14487D01*
X9581Y14487D02*
X10739Y14487D01*
X12121Y14487D02*
X13279Y14487D01*
X13770Y14487D02*
X14170Y14487D01*
X14661Y14487D02*
X17360Y14487D01*
X0420Y14536D02*
X2780Y14536D01*
X4840Y14536D02*
X5603Y14536D01*
X7097Y14536D02*
X8143Y14536D01*
X9637Y14536D02*
X10683Y14536D01*
X12177Y14536D02*
X13223Y14536D01*
X14717Y14536D02*
X17360Y14536D01*
X0420Y14586D02*
X2780Y14586D01*
X4840Y14586D02*
X5559Y14586D01*
X7141Y14586D02*
X8099Y14586D01*
X9681Y14586D02*
X10639Y14586D01*
X12221Y14586D02*
X13179Y14586D01*
X14761Y14586D02*
X17360Y14586D01*
X0420Y14635D02*
X2780Y14635D01*
X4840Y14635D02*
X5525Y14635D01*
X7175Y14635D02*
X8065Y14635D01*
X9715Y14635D02*
X10605Y14635D01*
X12255Y14635D02*
X13145Y14635D01*
X14795Y14635D02*
X17360Y14635D01*
X0420Y14685D02*
X2780Y14685D01*
X4840Y14685D02*
X5491Y14685D01*
X7209Y14685D02*
X8031Y14685D01*
X9749Y14685D02*
X10571Y14685D01*
X12289Y14685D02*
X13111Y14685D01*
X14829Y14685D02*
X17360Y14685D01*
X0420Y14734D02*
X2780Y14734D01*
X4840Y14734D02*
X5457Y14734D01*
X7243Y14734D02*
X7997Y14734D01*
X9783Y14734D02*
X10537Y14734D01*
X12323Y14734D02*
X13077Y14734D01*
X14863Y14734D02*
X17360Y14734D01*
X0420Y14784D02*
X2780Y14784D01*
X4840Y14784D02*
X5430Y14784D01*
X7270Y14784D02*
X7970Y14784D01*
X9810Y14784D02*
X10510Y14784D01*
X12350Y14784D02*
X13050Y14784D01*
X14890Y14784D02*
X17360Y14784D01*
X0420Y14833D02*
X2780Y14833D01*
X4840Y14833D02*
X5411Y14833D01*
X7289Y14833D02*
X7951Y14833D01*
X9829Y14833D02*
X10491Y14833D01*
X12369Y14833D02*
X13031Y14833D01*
X14909Y14833D02*
X17360Y14833D01*
X0420Y14883D02*
X2780Y14883D01*
X4840Y14883D02*
X5392Y14883D01*
X7308Y14883D02*
X7932Y14883D01*
X9848Y14883D02*
X10472Y14883D01*
X12388Y14883D02*
X13012Y14883D01*
X14928Y14883D02*
X17360Y14883D01*
X0420Y14932D02*
X2780Y14932D01*
X4840Y14932D02*
X5373Y14932D01*
X7327Y14932D02*
X7913Y14932D01*
X9867Y14932D02*
X10453Y14932D01*
X12407Y14932D02*
X12993Y14932D01*
X14947Y14932D02*
X17360Y14932D01*
X0420Y14982D02*
X2780Y14982D01*
X4840Y14982D02*
X5354Y14982D01*
X7346Y14982D02*
X7894Y14982D01*
X9886Y14982D02*
X10434Y14982D01*
X12426Y14982D02*
X12974Y14982D01*
X14966Y14982D02*
X17360Y14982D01*
X0420Y15031D02*
X2780Y15031D01*
X4840Y15031D02*
X5345Y15031D01*
X7355Y15031D02*
X7885Y15031D01*
X9895Y15031D02*
X10425Y15031D01*
X12435Y15031D02*
X12965Y15031D01*
X14975Y15031D02*
X17360Y15031D01*
X0420Y15081D02*
X2780Y15081D01*
X4840Y15081D02*
X5339Y15081D01*
X7361Y15081D02*
X7879Y15081D01*
X9901Y15081D02*
X10419Y15081D01*
X12441Y15081D02*
X12959Y15081D01*
X14981Y15081D02*
X17360Y15081D01*
X0420Y15131D02*
X2780Y15131D01*
X4840Y15131D02*
X5333Y15131D01*
X7367Y15131D02*
X7873Y15131D01*
X9907Y15131D02*
X10413Y15131D01*
X12447Y15131D02*
X12953Y15131D01*
X14987Y15131D02*
X17360Y15131D01*
X0420Y15180D02*
X2780Y15180D01*
X4840Y15180D02*
X5327Y15180D01*
X7373Y15180D02*
X7867Y15180D01*
X9913Y15180D02*
X10407Y15180D01*
X12453Y15180D02*
X12947Y15180D01*
X14993Y15180D02*
X17360Y15180D01*
X0420Y15230D02*
X2780Y15230D01*
X4840Y15230D02*
X5321Y15230D01*
X7379Y15230D02*
X7861Y15230D01*
X9919Y15230D02*
X10401Y15230D01*
X12459Y15230D02*
X12941Y15230D01*
X14999Y15230D02*
X17360Y15230D01*
X0420Y15279D02*
X2780Y15279D01*
X4840Y15279D02*
X5325Y15279D01*
X7375Y15279D02*
X7865Y15279D01*
X9915Y15279D02*
X10405Y15279D01*
X12455Y15279D02*
X12945Y15279D01*
X14995Y15279D02*
X17360Y15279D01*
X0420Y15329D02*
X2780Y15329D01*
X4840Y15329D02*
X5331Y15329D01*
X7369Y15329D02*
X7871Y15329D01*
X9909Y15329D02*
X10411Y15329D01*
X12449Y15329D02*
X12951Y15329D01*
X14989Y15329D02*
X17360Y15329D01*
X0420Y15378D02*
X2780Y15378D01*
X4840Y15378D02*
X5337Y15378D01*
X7363Y15378D02*
X7877Y15378D01*
X9903Y15378D02*
X10417Y15378D01*
X12443Y15378D02*
X12957Y15378D01*
X14983Y15378D02*
X17360Y15378D01*
X0420Y15428D02*
X2780Y15428D01*
X4840Y15428D02*
X5343Y15428D01*
X7357Y15428D02*
X7883Y15428D01*
X9897Y15428D02*
X10423Y15428D01*
X12437Y15428D02*
X12963Y15428D01*
X14977Y15428D02*
X17360Y15428D01*
X0420Y15477D02*
X2780Y15477D01*
X4840Y15477D02*
X5349Y15477D01*
X7351Y15477D02*
X7889Y15477D01*
X9891Y15477D02*
X10429Y15477D01*
X12431Y15477D02*
X12969Y15477D01*
X14971Y15477D02*
X17360Y15477D01*
X0420Y15527D02*
X2780Y15527D01*
X4840Y15527D02*
X5365Y15527D01*
X7335Y15527D02*
X7905Y15527D01*
X9875Y15527D02*
X10445Y15527D01*
X12415Y15527D02*
X12985Y15527D01*
X14955Y15527D02*
X17360Y15527D01*
X0420Y15576D02*
X2780Y15576D01*
X4840Y15576D02*
X5384Y15576D01*
X7316Y15576D02*
X7924Y15576D01*
X9856Y15576D02*
X10464Y15576D01*
X12396Y15576D02*
X13004Y15576D01*
X14936Y15576D02*
X17360Y15576D01*
X0420Y15626D02*
X2780Y15626D01*
X4840Y15626D02*
X5403Y15626D01*
X7297Y15626D02*
X7943Y15626D01*
X9837Y15626D02*
X10483Y15626D01*
X12377Y15626D02*
X13023Y15626D01*
X14917Y15626D02*
X17360Y15626D01*
X0420Y15675D02*
X2780Y15675D01*
X4840Y15675D02*
X5422Y15675D01*
X7278Y15675D02*
X7962Y15675D01*
X9818Y15675D02*
X10502Y15675D01*
X12358Y15675D02*
X13042Y15675D01*
X14898Y15675D02*
X17360Y15675D01*
X0420Y15725D02*
X2780Y15725D01*
X4840Y15725D02*
X5442Y15725D01*
X7258Y15725D02*
X7982Y15725D01*
X9798Y15725D02*
X10522Y15725D01*
X12338Y15725D02*
X13062Y15725D01*
X14878Y15725D02*
X17360Y15725D01*
X0420Y15774D02*
X2780Y15774D01*
X4840Y15774D02*
X5477Y15774D01*
X7223Y15774D02*
X8017Y15774D01*
X9763Y15774D02*
X10557Y15774D01*
X12303Y15774D02*
X13097Y15774D01*
X14843Y15774D02*
X17360Y15774D01*
X0420Y15824D02*
X2780Y15824D01*
X4840Y15824D02*
X5511Y15824D01*
X7189Y15824D02*
X8051Y15824D01*
X9729Y15824D02*
X10591Y15824D01*
X12269Y15824D02*
X13131Y15824D01*
X14809Y15824D02*
X17360Y15824D01*
X0420Y15873D02*
X2780Y15873D01*
X4840Y15873D02*
X5545Y15873D01*
X7155Y15873D02*
X8085Y15873D01*
X9695Y15873D02*
X10625Y15873D01*
X12235Y15873D02*
X13165Y15873D01*
X14775Y15873D02*
X17360Y15873D01*
X0420Y15923D02*
X2780Y15923D01*
X4840Y15923D02*
X5579Y15923D01*
X7121Y15923D02*
X8119Y15923D01*
X9661Y15923D02*
X10659Y15923D01*
X12201Y15923D02*
X13199Y15923D01*
X14741Y15923D02*
X17360Y15923D01*
X0420Y15973D02*
X2780Y15973D01*
X4840Y15973D02*
X5635Y15973D01*
X7065Y15973D02*
X8175Y15973D01*
X9605Y15973D02*
X10715Y15973D01*
X12145Y15973D02*
X13255Y15973D01*
X14685Y15973D02*
X17360Y15973D01*
X0420Y16022D02*
X2780Y16022D01*
X4840Y16022D02*
X5691Y16022D01*
X7009Y16022D02*
X8231Y16022D01*
X9549Y16022D02*
X10771Y16022D01*
X12089Y16022D02*
X13311Y16022D01*
X13770Y16022D02*
X14170Y16022D01*
X14629Y16022D02*
X17360Y16022D01*
X0420Y16072D02*
X2783Y16072D01*
X4837Y16072D02*
X5747Y16072D01*
X6953Y16072D02*
X8287Y16072D01*
X9493Y16072D02*
X10827Y16072D01*
X12033Y16072D02*
X13367Y16072D01*
X13770Y16072D02*
X14170Y16072D01*
X14573Y16072D02*
X17360Y16072D01*
X0420Y16121D02*
X2796Y16121D01*
X4824Y16121D02*
X5829Y16121D01*
X6871Y16121D02*
X8369Y16121D01*
X9411Y16121D02*
X10909Y16121D01*
X11951Y16121D02*
X13449Y16121D01*
X13770Y16121D02*
X14170Y16121D01*
X14491Y16121D02*
X17360Y16121D01*
X0420Y16171D02*
X2821Y16171D01*
X4799Y16171D02*
X5923Y16171D01*
X6777Y16171D02*
X8463Y16171D01*
X9317Y16171D02*
X11003Y16171D01*
X11857Y16171D02*
X13543Y16171D01*
X13770Y16171D02*
X14170Y16171D01*
X14397Y16171D02*
X17360Y16171D01*
X0420Y16220D02*
X2868Y16220D01*
X4752Y16220D02*
X6055Y16220D01*
X6645Y16220D02*
X8595Y16220D01*
X9185Y16220D02*
X11135Y16220D01*
X11725Y16220D02*
X13675Y16220D01*
X13770Y16220D02*
X14170Y16220D01*
X14265Y16220D02*
X17360Y16220D01*
X0420Y16270D02*
X17360Y16270D01*
X0420Y16319D02*
X17360Y16319D01*
X0420Y16369D02*
X17360Y16369D01*
X0420Y16418D02*
X17360Y16418D01*
X0420Y16468D02*
X17360Y16468D01*
X0420Y16517D02*
X17360Y16517D01*
X0420Y16567D02*
X17360Y16567D01*
X0420Y16616D02*
X17360Y16616D01*
X0420Y16666D02*
X17360Y16666D01*
X0420Y16715D02*
X17360Y16715D01*
X0420Y16765D02*
X3656Y16765D01*
X3964Y16765D02*
X6196Y16765D01*
X6504Y16765D02*
X11276Y16765D01*
X11584Y16765D02*
X13816Y16765D01*
X14124Y16765D02*
X17360Y16765D01*
X0420Y16815D02*
X3455Y16815D01*
X4165Y16815D02*
X5995Y16815D01*
X6705Y16815D02*
X8535Y16815D01*
X8690Y16815D02*
X9090Y16815D01*
X9245Y16815D02*
X11075Y16815D01*
X11785Y16815D02*
X13615Y16815D01*
X14325Y16815D02*
X17360Y16815D01*
X0420Y16864D02*
X3355Y16864D01*
X4265Y16864D02*
X5895Y16864D01*
X6805Y16864D02*
X8435Y16864D01*
X8690Y16864D02*
X9090Y16864D01*
X9345Y16864D02*
X10975Y16864D01*
X11885Y16864D02*
X13515Y16864D01*
X14425Y16864D02*
X17360Y16864D01*
X0420Y16914D02*
X3261Y16914D01*
X4359Y16914D02*
X5801Y16914D01*
X6899Y16914D02*
X8341Y16914D01*
X8690Y16914D02*
X9090Y16914D01*
X9439Y16914D02*
X10881Y16914D01*
X11979Y16914D02*
X13421Y16914D01*
X14519Y16914D02*
X17360Y16914D01*
X0420Y16963D02*
X3190Y16963D01*
X4430Y16963D02*
X5730Y16963D01*
X6970Y16963D02*
X8270Y16963D01*
X8690Y16963D02*
X9090Y16963D01*
X9510Y16963D02*
X10810Y16963D01*
X12050Y16963D02*
X13350Y16963D01*
X14590Y16963D02*
X17360Y16963D01*
X0420Y17013D02*
X3134Y17013D01*
X4486Y17013D02*
X5674Y17013D01*
X7026Y17013D02*
X8214Y17013D01*
X8690Y17013D02*
X9090Y17013D01*
X9566Y17013D02*
X10754Y17013D01*
X12106Y17013D02*
X13294Y17013D01*
X14646Y17013D02*
X17360Y17013D01*
X0420Y17062D02*
X3079Y17062D01*
X4541Y17062D02*
X5619Y17062D01*
X7081Y17062D02*
X8159Y17062D01*
X9621Y17062D02*
X10699Y17062D01*
X12161Y17062D02*
X13239Y17062D01*
X14701Y17062D02*
X17360Y17062D01*
X0420Y17112D02*
X3029Y17112D01*
X4591Y17112D02*
X5569Y17112D01*
X7131Y17112D02*
X8109Y17112D01*
X9671Y17112D02*
X10649Y17112D01*
X12211Y17112D02*
X13189Y17112D01*
X14751Y17112D02*
X17360Y17112D01*
X0420Y17161D02*
X2995Y17161D01*
X4625Y17161D02*
X5535Y17161D01*
X7165Y17161D02*
X8075Y17161D01*
X9705Y17161D02*
X10615Y17161D01*
X12245Y17161D02*
X13155Y17161D01*
X14785Y17161D02*
X17360Y17161D01*
X0420Y17211D02*
X2961Y17211D01*
X4659Y17211D02*
X5501Y17211D01*
X7199Y17211D02*
X8041Y17211D01*
X9739Y17211D02*
X10581Y17211D01*
X12279Y17211D02*
X13121Y17211D01*
X14819Y17211D02*
X17360Y17211D01*
X0420Y17260D02*
X2926Y17260D01*
X4694Y17260D02*
X5466Y17260D01*
X7234Y17260D02*
X8006Y17260D01*
X9774Y17260D02*
X10546Y17260D01*
X12314Y17260D02*
X13086Y17260D01*
X14854Y17260D02*
X17360Y17260D01*
X0420Y17310D02*
X2895Y17310D01*
X4725Y17310D02*
X5435Y17310D01*
X7265Y17310D02*
X7975Y17310D01*
X9805Y17310D02*
X10515Y17310D01*
X12345Y17310D02*
X13055Y17310D01*
X14885Y17310D02*
X17360Y17310D01*
X0420Y17359D02*
X2876Y17359D01*
X4744Y17359D02*
X5416Y17359D01*
X7284Y17359D02*
X7956Y17359D01*
X9824Y17359D02*
X10496Y17359D01*
X12364Y17359D02*
X13036Y17359D01*
X14904Y17359D02*
X17360Y17359D01*
X0420Y17409D02*
X2857Y17409D01*
X4763Y17409D02*
X5397Y17409D01*
X7303Y17409D02*
X7937Y17409D01*
X9843Y17409D02*
X10477Y17409D01*
X12383Y17409D02*
X13017Y17409D01*
X14923Y17409D02*
X17360Y17409D01*
X0420Y17458D02*
X2839Y17458D01*
X4781Y17458D02*
X5379Y17458D01*
X7321Y17458D02*
X7919Y17458D01*
X9861Y17458D02*
X10459Y17458D01*
X12401Y17458D02*
X12999Y17458D01*
X14941Y17458D02*
X17360Y17458D01*
X0420Y17508D02*
X2820Y17508D01*
X4800Y17508D02*
X5360Y17508D01*
X7340Y17508D02*
X7900Y17508D01*
X9880Y17508D02*
X10440Y17508D01*
X12420Y17508D02*
X12980Y17508D01*
X14960Y17508D02*
X17360Y17508D01*
X0420Y17557D02*
X2807Y17557D01*
X4813Y17557D02*
X5347Y17557D01*
X7353Y17557D02*
X7887Y17557D01*
X9893Y17557D02*
X10427Y17557D01*
X12433Y17557D02*
X12967Y17557D01*
X14973Y17557D02*
X17360Y17557D01*
X0420Y17607D02*
X2801Y17607D01*
X4819Y17607D02*
X5341Y17607D01*
X7359Y17607D02*
X7881Y17607D01*
X9899Y17607D02*
X10421Y17607D01*
X12439Y17607D02*
X12961Y17607D01*
X14979Y17607D02*
X17360Y17607D01*
X0420Y17657D02*
X2795Y17657D01*
X4825Y17657D02*
X5335Y17657D01*
X7365Y17657D02*
X7875Y17657D01*
X9905Y17657D02*
X10415Y17657D01*
X12445Y17657D02*
X12955Y17657D01*
X14985Y17657D02*
X17360Y17657D01*
X0420Y17706D02*
X2789Y17706D01*
X4831Y17706D02*
X5329Y17706D01*
X7371Y17706D02*
X7869Y17706D01*
X9911Y17706D02*
X10409Y17706D01*
X12451Y17706D02*
X12949Y17706D01*
X14991Y17706D02*
X17360Y17706D01*
X0420Y17756D02*
X2783Y17756D01*
X4837Y17756D02*
X5323Y17756D01*
X7377Y17756D02*
X7863Y17756D01*
X9917Y17756D02*
X10403Y17756D01*
X12457Y17756D02*
X12943Y17756D01*
X14997Y17756D02*
X17360Y17756D01*
X0420Y17805D02*
X2783Y17805D01*
X4837Y17805D02*
X5323Y17805D01*
X7377Y17805D02*
X7863Y17805D01*
X9917Y17805D02*
X10403Y17805D01*
X12457Y17805D02*
X12943Y17805D01*
X14997Y17805D02*
X17360Y17805D01*
X0420Y17855D02*
X2789Y17855D01*
X4831Y17855D02*
X5329Y17855D01*
X7371Y17855D02*
X7869Y17855D01*
X9911Y17855D02*
X10409Y17855D01*
X12451Y17855D02*
X12949Y17855D01*
X14991Y17855D02*
X17360Y17855D01*
X0420Y17904D02*
X2795Y17904D01*
X4825Y17904D02*
X5335Y17904D01*
X7365Y17904D02*
X7875Y17904D01*
X9905Y17904D02*
X10415Y17904D01*
X12445Y17904D02*
X12955Y17904D01*
X14985Y17904D02*
X17360Y17904D01*
X0420Y17954D02*
X2801Y17954D01*
X4819Y17954D02*
X5341Y17954D01*
X7359Y17954D02*
X7881Y17954D01*
X9899Y17954D02*
X10421Y17954D01*
X12439Y17954D02*
X12961Y17954D01*
X14979Y17954D02*
X17360Y17954D01*
X0420Y18003D02*
X2807Y18003D01*
X4813Y18003D02*
X5347Y18003D01*
X7353Y18003D02*
X7887Y18003D01*
X9893Y18003D02*
X10427Y18003D01*
X12433Y18003D02*
X12967Y18003D01*
X14973Y18003D02*
X17360Y18003D01*
X0420Y18053D02*
X2820Y18053D01*
X4800Y18053D02*
X5360Y18053D01*
X7340Y18053D02*
X7900Y18053D01*
X9880Y18053D02*
X10440Y18053D01*
X12420Y18053D02*
X12980Y18053D01*
X14960Y18053D02*
X17360Y18053D01*
X0420Y18102D02*
X2839Y18102D01*
X4781Y18102D02*
X5379Y18102D01*
X7321Y18102D02*
X7919Y18102D01*
X9861Y18102D02*
X10459Y18102D01*
X12401Y18102D02*
X12999Y18102D01*
X14941Y18102D02*
X17360Y18102D01*
X0420Y18152D02*
X2858Y18152D01*
X4762Y18152D02*
X5398Y18152D01*
X7302Y18152D02*
X7938Y18152D01*
X9842Y18152D02*
X10478Y18152D01*
X12382Y18152D02*
X13018Y18152D01*
X14922Y18152D02*
X17360Y18152D01*
X0420Y18201D02*
X2876Y18201D01*
X4744Y18201D02*
X5416Y18201D01*
X7284Y18201D02*
X7956Y18201D01*
X9824Y18201D02*
X10496Y18201D01*
X12364Y18201D02*
X13036Y18201D01*
X14904Y18201D02*
X17360Y18201D01*
X0420Y18251D02*
X2895Y18251D01*
X4725Y18251D02*
X5435Y18251D01*
X7265Y18251D02*
X7975Y18251D01*
X9805Y18251D02*
X10515Y18251D01*
X12345Y18251D02*
X13055Y18251D01*
X14885Y18251D02*
X17360Y18251D01*
X0420Y18300D02*
X2927Y18300D01*
X4693Y18300D02*
X5467Y18300D01*
X7233Y18300D02*
X8007Y18300D01*
X9773Y18300D02*
X10547Y18300D01*
X12313Y18300D02*
X13087Y18300D01*
X14853Y18300D02*
X17360Y18300D01*
X0420Y18350D02*
X2961Y18350D01*
X4659Y18350D02*
X5501Y18350D01*
X7199Y18350D02*
X8041Y18350D01*
X9739Y18350D02*
X10581Y18350D01*
X12279Y18350D02*
X13121Y18350D01*
X14819Y18350D02*
X17360Y18350D01*
X0420Y18399D02*
X2995Y18399D01*
X4625Y18399D02*
X5535Y18399D01*
X7165Y18399D02*
X8075Y18399D01*
X9705Y18399D02*
X10615Y18399D01*
X12245Y18399D02*
X13155Y18399D01*
X14785Y18399D02*
X17360Y18399D01*
X0420Y18449D02*
X3030Y18449D01*
X4590Y18449D02*
X5570Y18449D01*
X7130Y18449D02*
X8110Y18449D01*
X9670Y18449D02*
X10650Y18449D01*
X12210Y18449D02*
X13190Y18449D01*
X14750Y18449D02*
X17360Y18449D01*
X0420Y18499D02*
X3079Y18499D01*
X4541Y18499D02*
X5619Y18499D01*
X7081Y18499D02*
X8159Y18499D01*
X9621Y18499D02*
X10699Y18499D01*
X12161Y18499D02*
X13239Y18499D01*
X14701Y18499D02*
X17360Y18499D01*
X0420Y18548D02*
X3135Y18548D01*
X4485Y18548D02*
X5675Y18548D01*
X7025Y18548D02*
X8215Y18548D01*
X8690Y18548D02*
X9090Y18548D01*
X9565Y18548D02*
X10755Y18548D01*
X12105Y18548D02*
X13295Y18548D01*
X14645Y18548D02*
X17360Y18548D01*
X0420Y18598D02*
X3191Y18598D01*
X4429Y18598D02*
X5731Y18598D01*
X6969Y18598D02*
X8271Y18598D01*
X8690Y18598D02*
X9090Y18598D01*
X9509Y18598D02*
X10811Y18598D01*
X12049Y18598D02*
X13351Y18598D01*
X14589Y18598D02*
X17360Y18598D01*
X0420Y18647D02*
X3262Y18647D01*
X4358Y18647D02*
X5802Y18647D01*
X6898Y18647D02*
X8342Y18647D01*
X8690Y18647D02*
X9090Y18647D01*
X9438Y18647D02*
X10882Y18647D01*
X11978Y18647D02*
X13422Y18647D01*
X14518Y18647D02*
X17360Y18647D01*
X0420Y18697D02*
X3357Y18697D01*
X4263Y18697D02*
X5897Y18697D01*
X6803Y18697D02*
X8437Y18697D01*
X8690Y18697D02*
X9090Y18697D01*
X9343Y18697D02*
X10977Y18697D01*
X11883Y18697D02*
X13517Y18697D01*
X14423Y18697D02*
X17360Y18697D01*
X0420Y18746D02*
X3458Y18746D01*
X4162Y18746D02*
X5998Y18746D01*
X6702Y18746D02*
X8538Y18746D01*
X8690Y18746D02*
X9090Y18746D01*
X9242Y18746D02*
X11078Y18746D01*
X11782Y18746D02*
X13618Y18746D01*
X14322Y18746D02*
X17360Y18746D01*
X0420Y18796D02*
X3659Y18796D01*
X3961Y18796D02*
X6199Y18796D01*
X6501Y18796D02*
X11279Y18796D01*
X11581Y18796D02*
X13819Y18796D01*
X14121Y18796D02*
X17360Y18796D01*
X0420Y18845D02*
X17360Y18845D01*
X0420Y18895D02*
X17360Y18895D01*
X0420Y18944D02*
X17360Y18944D01*
X0420Y18994D02*
X17360Y18994D01*
X0420Y19043D02*
X17360Y19043D01*
X0420Y19093D02*
X17360Y19093D01*
X0420Y19142D02*
X17360Y19142D01*
X0420Y19192D02*
X17360Y19192D01*
X0420Y19242D02*
X17360Y19242D01*
X0420Y19291D02*
X17360Y19291D01*
X0420Y19341D02*
X17360Y19341D01*
X0420Y19390D02*
X17360Y19390D01*
X0420Y19440D02*
X17360Y19440D01*
X0420Y19489D02*
X17360Y19489D01*
X0420Y19539D02*
X17360Y19539D01*
X0420Y19588D02*
X17360Y19588D01*
X0420Y19638D02*
X17360Y19638D01*
X0420Y19687D02*
X17360Y19687D01*
X0420Y19737D02*
X17360Y19737D01*
X0420Y19786D02*
X17360Y19786D01*
X0420Y19836D02*
X17360Y19836D01*
X0420Y19885D02*
X17360Y19885D01*
X0420Y19935D02*
X17360Y19935D01*
X0420Y19984D02*
X17360Y19984D01*
X0420Y20034D02*
X17360Y20034D01*
X0420Y20084D02*
X17360Y20084D01*
X0420Y20133D02*
X17360Y20133D01*
X0420Y20183D02*
X17360Y20183D01*
X0420Y20232D02*
X17360Y20232D01*
X0420Y20282D02*
X17360Y20282D01*
X0420Y20331D02*
X17360Y20331D01*
X0420Y20381D02*
X17360Y20381D01*
X0420Y20430D02*
X17360Y20430D01*
X0420Y20480D02*
X17360Y20480D01*
X0420Y20529D02*
X17360Y20529D01*
X0420Y20579D02*
X17360Y20579D01*
X0420Y20628D02*
X17360Y20628D01*
X0420Y20678D02*
X17360Y20678D01*
X0420Y20727D02*
X17360Y20727D01*
X0420Y20777D02*
X17360Y20777D01*
X0420Y20826D02*
X17360Y20826D01*
X0420Y20876D02*
X17360Y20876D01*
X0420Y20926D02*
X17360Y20926D01*
X0420Y20975D02*
X17360Y20975D01*
X0420Y21025D02*
X17360Y21025D01*
X0420Y21074D02*
X17360Y21074D01*
X0420Y21124D02*
X17360Y21124D01*
%LNtop copper_traces*%
%LNtop copper component f98de3a3528428db*%
D11*
X6350Y15240D03*
X8890Y15240D03*
X11430Y15240D03*
X13970Y15240D03*
X3810Y17780D03*
X6350Y17780D03*
X8890Y17780D03*
X11430Y17780D03*
X13970Y17780D03*
D12*
X3810Y15240D03*
%LNtop copper component 9df862e34fc6b5e4*%
D13*
X12700Y5080D03*
X10160Y5080D03*
X7620Y5080D03*
X5080Y5080D03*
X2540Y5080D03*
D14*
X15240Y5080D03*
M02*