%FSLAX33Y33*%
%MOMM*%
%LNbottom silkscreen_traces*%
%LNtext*%
G36*
G01*
X14686Y9577D02*
X14686Y10486D01*
X14073Y10486D01*
X14073Y10378D01*
X14566Y10378D01*
X14566Y10097D01*
X14139Y10097D01*
X14139Y9990D01*
X14566Y9990D01*
X14566Y9577D01*
X14686Y9577D01*
X14686Y9577D01*
X13685Y9577D02*
X13685Y10378D01*
X13985Y10378D01*
X13985Y10486D01*
X13264Y10486D01*
X13264Y10378D01*
X13565Y10378D01*
X13565Y9577D01*
X13685Y9577D01*
X13685Y9577D01*
X13141Y9577D02*
X13141Y10486D01*
X12830Y10486D01*
X12830Y10378D01*
X13021Y10378D01*
X13021Y9684D01*
X13021Y9684D01*
X12827Y9684D01*
X12784Y9685D01*
X12746Y9688D01*
X12714Y9693D01*
X12686Y9701D01*
X12661Y9710D01*
X12640Y9721D01*
X12621Y9733D01*
X12604Y9748D01*
X12584Y9771D01*
X12566Y9798D01*
X12550Y9829D01*
X12537Y9863D01*
X12527Y9901D01*
X12519Y9943D01*
X12515Y9988D01*
X12513Y10038D01*
X12516Y10105D01*
X12525Y10164D01*
X12540Y10215D01*
X12560Y10257D01*
X12585Y10292D01*
X12612Y10321D01*
X12642Y10344D01*
X12674Y10360D01*
X12702Y10368D01*
X12737Y10374D01*
X12780Y10377D01*
X12830Y10378D01*
X12830Y10486D01*
X12828Y10486D01*
X12778Y10485D01*
X12734Y10482D01*
X12697Y10478D01*
X12666Y10473D01*
X12628Y10462D01*
X12594Y10447D01*
X12562Y10429D01*
X12533Y10408D01*
X12499Y10375D01*
X12470Y10338D01*
X12445Y10297D01*
X12425Y10252D01*
X12410Y10203D01*
X12398Y10151D01*
X12392Y10095D01*
X12389Y10036D01*
X12391Y9986D01*
X12396Y9938D01*
X12403Y9894D01*
X12414Y9853D01*
X12427Y9814D01*
X12441Y9779D01*
X12458Y9748D01*
X12476Y9720D01*
X12495Y9695D01*
X12515Y9673D01*
X12536Y9654D01*
X12558Y9638D01*
X12582Y9624D01*
X12608Y9611D01*
X12636Y9601D01*
X12667Y9592D01*
X12700Y9585D01*
X12735Y9580D01*
X12773Y9578D01*
X12813Y9577D01*
X13141Y9577D01*
X13141Y9577D01*
X12203Y9577D02*
X12203Y10486D01*
X12083Y10486D01*
X12083Y9577D01*
X12203Y9577D01*
X12203Y9577D01*
X11532Y9577D02*
X11532Y10486D01*
X11421Y10486D01*
X11421Y10160D01*
X11379Y10199D01*
X11332Y10227D01*
X11281Y10244D01*
X11224Y10250D01*
X11188Y10248D01*
X11155Y10243D01*
X11125Y10234D01*
X11097Y10221D01*
X11071Y10205D01*
X11050Y10187D01*
X11033Y10166D01*
X11019Y10142D01*
X11009Y10113D01*
X11002Y10079D01*
X10998Y10039D01*
X10996Y9994D01*
X10996Y9577D01*
X11108Y9577D01*
X11108Y9994D01*
X11110Y10033D01*
X11117Y10066D01*
X11128Y10094D01*
X11144Y10116D01*
X11164Y10132D01*
X11188Y10144D01*
X11215Y10152D01*
X11247Y10154D01*
X11271Y10152D01*
X11295Y10147D01*
X11318Y10139D01*
X11340Y10128D01*
X11360Y10114D01*
X11377Y10098D01*
X11391Y10079D01*
X11402Y10058D01*
X11410Y10034D01*
X11416Y10006D01*
X11420Y9974D01*
X11421Y9937D01*
X11421Y9577D01*
X11532Y9577D01*
X11532Y9577D01*
X10375Y9789D02*
X10260Y9774D01*
X10277Y9727D01*
X10299Y9685D01*
X10327Y9648D01*
X10361Y9618D01*
X10401Y9593D01*
X10445Y9576D01*
X10495Y9565D01*
X10550Y9562D01*
X10618Y9567D01*
X10679Y9584D01*
X10733Y9612D01*
X10779Y9651D01*
X10816Y9700D01*
X10842Y9758D01*
X10858Y9824D01*
X10863Y9900D01*
X10858Y9979D01*
X10842Y10048D01*
X10815Y10108D01*
X10778Y10158D01*
X10732Y10198D01*
X10680Y10227D01*
X10621Y10244D01*
X10556Y10250D01*
X10546Y10249D01*
X10555Y10158D01*
X10591Y10155D01*
X10625Y10145D01*
X10656Y10129D01*
X10684Y10107D01*
X10707Y10079D01*
X10725Y10047D01*
X10736Y10010D01*
X10742Y9969D01*
X10742Y9969D01*
X10374Y9969D01*
X10380Y10008D01*
X10388Y10042D01*
X10401Y10070D01*
X10416Y10094D01*
X10445Y10122D01*
X10477Y10142D01*
X10514Y10154D01*
X10555Y10158D01*
X10546Y10249D01*
X10493Y10244D01*
X10436Y10228D01*
X10385Y10199D01*
X10340Y10160D01*
X10303Y10111D01*
X10277Y10052D01*
X10262Y9984D01*
X10256Y9907D01*
X10256Y9902D01*
X10256Y9895D01*
X10257Y9887D01*
X10257Y9877D01*
X10748Y9877D01*
X10742Y9826D01*
X10730Y9782D01*
X10711Y9743D01*
X10687Y9711D01*
X10657Y9686D01*
X10625Y9668D01*
X10588Y9657D01*
X10549Y9653D01*
X10519Y9656D01*
X10492Y9662D01*
X10467Y9672D01*
X10444Y9686D01*
X10424Y9704D01*
X10405Y9728D01*
X10389Y9756D01*
X10375Y9789D01*
X10375Y9789D01*
X9690Y9658D02*
X9721Y9633D01*
X9725Y9630D01*
X9768Y9693D01*
X9748Y9711D01*
X9731Y9731D01*
X9717Y9755D01*
X9710Y9776D01*
X9704Y9801D01*
X9701Y9832D01*
X9699Y9866D01*
X9699Y9907D01*
X9699Y9907D01*
X9734Y9895D01*
X9775Y9884D01*
X9825Y9874D01*
X9882Y9865D01*
X9914Y9860D01*
X9940Y9854D01*
X9962Y9849D01*
X9979Y9843D01*
X9993Y9836D01*
X10004Y9827D01*
X10015Y9818D01*
X10023Y9806D01*
X10030Y9794D01*
X10035Y9781D01*
X10038Y9768D01*
X10039Y9753D01*
X10036Y9732D01*
X10030Y9712D01*
X10020Y9695D01*
X10005Y9679D01*
X9986Y9666D01*
X9963Y9657D01*
X9936Y9651D01*
X9906Y9649D01*
X9875Y9651D01*
X9845Y9656D01*
X9817Y9665D01*
X9791Y9677D01*
X9768Y9693D01*
X9725Y9630D01*
X9751Y9613D01*
X9780Y9596D01*
X9809Y9583D01*
X9839Y9574D01*
X9869Y9567D01*
X9900Y9563D01*
X9933Y9562D01*
X9984Y9565D01*
X10029Y9575D01*
X10067Y9592D01*
X10099Y9615D01*
X10125Y9643D01*
X10143Y9675D01*
X10154Y9711D01*
X10158Y9750D01*
X10156Y9774D01*
X10152Y9797D01*
X10145Y9818D01*
X10136Y9839D01*
X10124Y9858D01*
X10110Y9875D01*
X10095Y9890D01*
X10078Y9903D01*
X10060Y9914D01*
X10040Y9924D01*
X10019Y9932D01*
X9998Y9939D01*
X9979Y9944D01*
X9956Y9948D01*
X9930Y9952D01*
X9898Y9956D01*
X9835Y9965D01*
X9781Y9974D01*
X9736Y9984D01*
X9699Y9995D01*
X9699Y10005D01*
X9699Y10013D01*
X9699Y10020D01*
X9699Y10024D01*
X9701Y10055D01*
X9707Y10082D01*
X9717Y10103D01*
X9730Y10120D01*
X9754Y10136D01*
X9784Y10148D01*
X9818Y10155D01*
X9858Y10158D01*
X9894Y10156D01*
X9926Y10151D01*
X9952Y10142D01*
X9974Y10130D01*
X9991Y10114D01*
X10006Y10092D01*
X10019Y10065D01*
X10029Y10032D01*
X10138Y10047D01*
X10130Y10081D01*
X10119Y10111D01*
X10105Y10137D01*
X10089Y10160D01*
X10070Y10181D01*
X10048Y10199D01*
X10021Y10214D01*
X9991Y10227D01*
X9957Y10237D01*
X9921Y10244D01*
X9883Y10249D01*
X9841Y10250D01*
X9801Y10249D01*
X9765Y10245D01*
X9733Y10239D01*
X9704Y10230D01*
X9680Y10220D01*
X9659Y10208D01*
X9641Y10195D01*
X9627Y10180D01*
X9615Y10164D01*
X9606Y10146D01*
X9598Y10126D01*
X9592Y10104D01*
X9590Y10087D01*
X9588Y10064D01*
X9587Y10036D01*
X9587Y10001D01*
X9587Y9853D01*
X9586Y9782D01*
X9585Y9726D01*
X9583Y9683D01*
X9579Y9656D01*
X9575Y9635D01*
X9569Y9615D01*
X9561Y9596D01*
X9551Y9577D01*
X9668Y9577D01*
X9676Y9595D01*
X9682Y9614D01*
X9687Y9635D01*
X9690Y9658D01*
X9690Y9658D01*
X8986Y9577D02*
X8986Y9660D01*
X9037Y9712D01*
X9036Y9713D01*
X9013Y9747D01*
X8997Y9789D01*
X8988Y9839D01*
X8984Y9896D01*
X8988Y9959D01*
X8997Y10013D01*
X9014Y10058D01*
X9036Y10094D01*
X9064Y10122D01*
X9095Y10142D01*
X9128Y10154D01*
X9165Y10158D01*
X9201Y10154D01*
X9233Y10142D01*
X9263Y10123D01*
X9289Y10097D01*
X9311Y10062D01*
X9327Y10019D01*
X9336Y9966D01*
X9339Y9905D01*
X9339Y9905D01*
X9336Y9846D01*
X9326Y9795D01*
X9309Y9751D01*
X9286Y9716D01*
X9258Y9689D01*
X9228Y9669D01*
X9195Y9657D01*
X9160Y9653D01*
X9125Y9657D01*
X9092Y9668D01*
X9063Y9687D01*
X9037Y9712D01*
X8986Y9660D01*
X9021Y9617D01*
X9064Y9586D01*
X9113Y9568D01*
X9170Y9562D01*
X9209Y9564D01*
X9246Y9573D01*
X9281Y9586D01*
X9315Y9605D01*
X9346Y9629D01*
X9374Y9657D01*
X9398Y9690D01*
X9418Y9726D01*
X9433Y9767D01*
X9445Y9810D01*
X9452Y9856D01*
X9454Y9905D01*
X9452Y9953D01*
X9446Y9999D01*
X9435Y10043D01*
X9421Y10084D01*
X9402Y10122D01*
X9380Y10155D01*
X9353Y10184D01*
X9322Y10207D01*
X9289Y10226D01*
X9253Y10239D01*
X9215Y10247D01*
X9175Y10250D01*
X9146Y10248D01*
X9119Y10244D01*
X9093Y10236D01*
X9069Y10225D01*
X9047Y10211D01*
X9027Y10196D01*
X9009Y10179D01*
X8994Y10160D01*
X8994Y10486D01*
X8883Y10486D01*
X8883Y9577D01*
X8986Y9577D01*
X8986Y9577D01*
X8256Y9789D02*
X8141Y9774D01*
X8158Y9727D01*
X8180Y9685D01*
X8208Y9648D01*
X8242Y9618D01*
X8282Y9593D01*
X8326Y9576D01*
X8376Y9565D01*
X8431Y9562D01*
X8499Y9567D01*
X8560Y9584D01*
X8614Y9612D01*
X8660Y9651D01*
X8697Y9700D01*
X8723Y9758D01*
X8739Y9824D01*
X8744Y9900D01*
X8739Y9979D01*
X8723Y10048D01*
X8696Y10108D01*
X8659Y10158D01*
X8613Y10198D01*
X8561Y10227D01*
X8502Y10244D01*
X8437Y10250D01*
X8427Y10249D01*
X8436Y10158D01*
X8472Y10155D01*
X8506Y10145D01*
X8537Y10129D01*
X8565Y10107D01*
X8588Y10079D01*
X8606Y10047D01*
X8617Y10010D01*
X8623Y9969D01*
X8623Y9969D01*
X8255Y9969D01*
X8261Y10008D01*
X8269Y10042D01*
X8282Y10070D01*
X8297Y10094D01*
X8326Y10122D01*
X8359Y10142D01*
X8395Y10154D01*
X8436Y10158D01*
X8427Y10249D01*
X8374Y10244D01*
X8317Y10228D01*
X8266Y10199D01*
X8221Y10160D01*
X8184Y10111D01*
X8158Y10052D01*
X8143Y9984D01*
X8137Y9907D01*
X8137Y9902D01*
X8137Y9895D01*
X8138Y9887D01*
X8138Y9877D01*
X8629Y9877D01*
X8623Y9826D01*
X8611Y9782D01*
X8592Y9743D01*
X8568Y9711D01*
X8538Y9686D01*
X8506Y9668D01*
X8470Y9657D01*
X8430Y9653D01*
X8400Y9656D01*
X8373Y9662D01*
X8348Y9672D01*
X8325Y9686D01*
X8305Y9704D01*
X8286Y9728D01*
X8270Y9756D01*
X8256Y9789D01*
X8256Y9789D01*
X8002Y9577D02*
X8002Y10235D01*
X7902Y10235D01*
X7902Y10135D01*
X7883Y10167D01*
X7865Y10193D01*
X7847Y10214D01*
X7831Y10228D01*
X7814Y10237D01*
X7796Y10244D01*
X7778Y10249D01*
X7759Y10250D01*
X7731Y10248D01*
X7702Y10241D01*
X7673Y10230D01*
X7644Y10214D01*
X7683Y10111D01*
X7703Y10121D01*
X7724Y10129D01*
X7744Y10133D01*
X7765Y10135D01*
X7782Y10133D01*
X7799Y10129D01*
X7815Y10122D01*
X7830Y10113D01*
X7844Y10101D01*
X7855Y10086D01*
X7865Y10070D01*
X7872Y10052D01*
X7880Y10021D01*
X7886Y9989D01*
X7889Y9956D01*
X7890Y9921D01*
X7890Y9577D01*
X8002Y9577D01*
X8002Y9577D01*
X6795Y9658D02*
X6826Y9633D01*
X6831Y9630D01*
X6873Y9693D01*
X6853Y9711D01*
X6836Y9731D01*
X6823Y9755D01*
X6815Y9776D01*
X6809Y9801D01*
X6806Y9832D01*
X6805Y9866D01*
X6805Y9907D01*
X6805Y9907D01*
X6839Y9895D01*
X6881Y9884D01*
X6930Y9874D01*
X6987Y9865D01*
X7019Y9860D01*
X7046Y9854D01*
X7068Y9849D01*
X7084Y9843D01*
X7098Y9836D01*
X7110Y9827D01*
X7120Y9818D01*
X7128Y9806D01*
X7135Y9794D01*
X7140Y9781D01*
X7143Y9768D01*
X7144Y9753D01*
X7142Y9732D01*
X7135Y9712D01*
X7125Y9695D01*
X7110Y9679D01*
X7091Y9666D01*
X7068Y9657D01*
X7042Y9651D01*
X7011Y9649D01*
X6980Y9651D01*
X6950Y9656D01*
X6922Y9665D01*
X6896Y9677D01*
X6873Y9693D01*
X6831Y9630D01*
X6856Y9613D01*
X6886Y9596D01*
X6915Y9583D01*
X6944Y9574D01*
X6974Y9567D01*
X7006Y9563D01*
X7038Y9562D01*
X7089Y9565D01*
X7134Y9575D01*
X7172Y9592D01*
X7205Y9615D01*
X7230Y9643D01*
X7248Y9675D01*
X7259Y9711D01*
X7263Y9750D01*
X7262Y9774D01*
X7257Y9797D01*
X7251Y9818D01*
X7241Y9839D01*
X7229Y9858D01*
X7216Y9875D01*
X7200Y9890D01*
X7183Y9903D01*
X7165Y9914D01*
X7145Y9924D01*
X7125Y9932D01*
X7103Y9939D01*
X7084Y9944D01*
X7062Y9948D01*
X7035Y9952D01*
X7004Y9956D01*
X6941Y9965D01*
X6886Y9974D01*
X6841Y9984D01*
X6805Y9995D01*
X6804Y10005D01*
X6804Y10013D01*
X6804Y10020D01*
X6804Y10024D01*
X6806Y10055D01*
X6812Y10082D01*
X6822Y10103D01*
X6836Y10120D01*
X6860Y10136D01*
X6889Y10148D01*
X6923Y10155D01*
X6963Y10158D01*
X7000Y10156D01*
X7031Y10151D01*
X7058Y10142D01*
X7079Y10130D01*
X7097Y10114D01*
X7112Y10092D01*
X7124Y10065D01*
X7135Y10032D01*
X7244Y10047D01*
X7235Y10081D01*
X7224Y10111D01*
X7211Y10137D01*
X7195Y10160D01*
X7176Y10181D01*
X7153Y10199D01*
X7126Y10214D01*
X7096Y10227D01*
X7063Y10237D01*
X7027Y10244D01*
X6988Y10249D01*
X6947Y10250D01*
X6907Y10249D01*
X6870Y10245D01*
X6838Y10239D01*
X6810Y10230D01*
X6785Y10220D01*
X6764Y10208D01*
X6746Y10195D01*
X6732Y10180D01*
X6721Y10164D01*
X6711Y10146D01*
X6703Y10126D01*
X6697Y10104D01*
X6695Y10087D01*
X6693Y10064D01*
X6692Y10036D01*
X6692Y10001D01*
X6692Y9853D01*
X6691Y9782D01*
X6690Y9726D01*
X6688Y9683D01*
X6685Y9656D01*
X6680Y9635D01*
X6674Y9615D01*
X6666Y9596D01*
X6656Y9577D01*
X6773Y9577D01*
X6781Y9595D01*
X6787Y9614D01*
X6792Y9635D01*
X6795Y9658D01*
X6795Y9658D01*
X6092Y9577D02*
X6092Y9660D01*
X6142Y9712D01*
X6141Y9713D01*
X6118Y9747D01*
X6102Y9789D01*
X6093Y9839D01*
X6090Y9896D01*
X6093Y9959D01*
X6103Y10013D01*
X6119Y10058D01*
X6142Y10094D01*
X6169Y10122D01*
X6200Y10142D01*
X6234Y10154D01*
X6270Y10158D01*
X6306Y10154D01*
X6338Y10142D01*
X6368Y10123D01*
X6394Y10097D01*
X6416Y10062D01*
X6432Y10019D01*
X6441Y9966D01*
X6444Y9905D01*
X6444Y9905D01*
X6441Y9846D01*
X6431Y9795D01*
X6414Y9751D01*
X6391Y9716D01*
X6363Y9689D01*
X6333Y9669D01*
X6300Y9657D01*
X6265Y9653D01*
X6230Y9657D01*
X6198Y9668D01*
X6168Y9687D01*
X6142Y9712D01*
X6092Y9660D01*
X6127Y9617D01*
X6169Y9586D01*
X6219Y9568D01*
X6276Y9562D01*
X6314Y9564D01*
X6351Y9573D01*
X6387Y9586D01*
X6421Y9605D01*
X6452Y9629D01*
X6479Y9657D01*
X6503Y9690D01*
X6523Y9726D01*
X6539Y9767D01*
X6550Y9810D01*
X6557Y9856D01*
X6559Y9905D01*
X6557Y9953D01*
X6551Y9999D01*
X6541Y10043D01*
X6526Y10084D01*
X6508Y10122D01*
X6485Y10155D01*
X6458Y10184D01*
X6428Y10207D01*
X6394Y10226D01*
X6358Y10239D01*
X6320Y10247D01*
X6281Y10250D01*
X6252Y10248D01*
X6224Y10244D01*
X6199Y10236D01*
X6175Y10225D01*
X6152Y10211D01*
X6132Y10196D01*
X6115Y10179D01*
X6099Y10160D01*
X6099Y10486D01*
X5988Y10486D01*
X5988Y9577D01*
X6092Y9577D01*
X6092Y9577D01*
X5383Y9658D02*
X5413Y9633D01*
X5418Y9630D01*
X5460Y9693D01*
X5440Y9711D01*
X5423Y9731D01*
X5410Y9755D01*
X5402Y9776D01*
X5397Y9801D01*
X5393Y9832D01*
X5392Y9866D01*
X5392Y9907D01*
X5392Y9907D01*
X5426Y9895D01*
X5468Y9884D01*
X5517Y9874D01*
X5574Y9865D01*
X5606Y9860D01*
X5633Y9854D01*
X5655Y9849D01*
X5672Y9843D01*
X5685Y9836D01*
X5697Y9827D01*
X5707Y9818D01*
X5716Y9806D01*
X5723Y9794D01*
X5727Y9781D01*
X5730Y9768D01*
X5731Y9753D01*
X5729Y9732D01*
X5723Y9712D01*
X5712Y9695D01*
X5697Y9679D01*
X5679Y9666D01*
X5656Y9657D01*
X5629Y9651D01*
X5599Y9649D01*
X5567Y9651D01*
X5538Y9656D01*
X5510Y9665D01*
X5484Y9677D01*
X5460Y9693D01*
X5418Y9630D01*
X5444Y9613D01*
X5473Y9596D01*
X5502Y9583D01*
X5531Y9574D01*
X5562Y9567D01*
X5593Y9563D01*
X5625Y9562D01*
X5676Y9565D01*
X5721Y9575D01*
X5760Y9592D01*
X5792Y9615D01*
X5818Y9643D01*
X5836Y9675D01*
X5847Y9711D01*
X5850Y9750D01*
X5849Y9774D01*
X5845Y9797D01*
X5838Y9818D01*
X5828Y9839D01*
X5816Y9858D01*
X5803Y9875D01*
X5788Y9890D01*
X5771Y9903D01*
X5752Y9914D01*
X5733Y9924D01*
X5712Y9932D01*
X5690Y9939D01*
X5672Y9944D01*
X5649Y9948D01*
X5622Y9952D01*
X5591Y9956D01*
X5528Y9965D01*
X5474Y9974D01*
X5428Y9984D01*
X5392Y9995D01*
X5392Y10005D01*
X5392Y10013D01*
X5391Y10020D01*
X5391Y10024D01*
X5393Y10055D01*
X5399Y10082D01*
X5409Y10103D01*
X5423Y10120D01*
X5447Y10136D01*
X5476Y10148D01*
X5511Y10155D01*
X5550Y10158D01*
X5587Y10156D01*
X5619Y10151D01*
X5645Y10142D01*
X5666Y10130D01*
X5684Y10114D01*
X5699Y10092D01*
X5712Y10065D01*
X5722Y10032D01*
X5831Y10047D01*
X5822Y10081D01*
X5811Y10111D01*
X5798Y10137D01*
X5782Y10160D01*
X5763Y10181D01*
X5740Y10199D01*
X5714Y10214D01*
X5683Y10227D01*
X5650Y10237D01*
X5614Y10244D01*
X5575Y10249D01*
X5534Y10250D01*
X5494Y10249D01*
X5458Y10245D01*
X5425Y10239D01*
X5397Y10230D01*
X5372Y10220D01*
X5351Y10208D01*
X5334Y10195D01*
X5319Y10180D01*
X5308Y10164D01*
X5298Y10146D01*
X5291Y10126D01*
X5285Y10104D01*
X5282Y10087D01*
X5281Y10064D01*
X5280Y10036D01*
X5279Y10001D01*
X5279Y9853D01*
X5279Y9782D01*
X5277Y9726D01*
X5275Y9683D01*
X5272Y9656D01*
X5268Y9635D01*
X5261Y9615D01*
X5254Y9596D01*
X5244Y9577D01*
X5360Y9577D01*
X5368Y9595D01*
X5375Y9614D01*
X5379Y9635D01*
X5383Y9658D01*
X5383Y9658D01*
X5106Y9324D02*
X5106Y10235D01*
X5004Y10235D01*
X5004Y10150D01*
X4950Y10096D01*
X4950Y10096D01*
X4974Y10059D01*
X4991Y10014D01*
X5002Y9962D01*
X5005Y9902D01*
X5005Y9902D01*
X5002Y9843D01*
X4992Y9792D01*
X4976Y9749D01*
X4954Y9714D01*
X4927Y9688D01*
X4897Y9669D01*
X4864Y9657D01*
X4829Y9653D01*
X4793Y9657D01*
X4760Y9669D01*
X4729Y9689D01*
X4702Y9716D01*
X4678Y9752D01*
X4662Y9797D01*
X4652Y9850D01*
X4649Y9911D01*
X4652Y9970D01*
X4661Y10022D01*
X4678Y10065D01*
X4700Y10100D01*
X4727Y10127D01*
X4757Y10147D01*
X4789Y10159D01*
X4824Y10163D01*
X4859Y10158D01*
X4891Y10146D01*
X4922Y10125D01*
X4950Y10096D01*
X5004Y10150D01*
X4986Y10173D01*
X4966Y10194D01*
X4945Y10211D01*
X4923Y10225D01*
X4899Y10236D01*
X4873Y10244D01*
X4845Y10248D01*
X4813Y10250D01*
X4773Y10247D01*
X4734Y10239D01*
X4698Y10226D01*
X4665Y10207D01*
X4634Y10183D01*
X4608Y10154D01*
X4586Y10121D01*
X4567Y10084D01*
X4553Y10044D01*
X4543Y10001D01*
X4536Y9957D01*
X4534Y9911D01*
X4537Y9862D01*
X4543Y9815D01*
X4555Y9771D01*
X4571Y9729D01*
X4591Y9691D01*
X4615Y9657D01*
X4644Y9629D01*
X4676Y9605D01*
X4711Y9586D01*
X4747Y9572D01*
X4784Y9564D01*
X4822Y9562D01*
X4849Y9563D01*
X4874Y9568D01*
X4899Y9575D01*
X4922Y9585D01*
X4943Y9598D01*
X4962Y9612D01*
X4979Y9628D01*
X4995Y9645D01*
X4995Y9324D01*
X5106Y9324D01*
X5106Y9324D01*
X4156Y9676D02*
X4140Y9578D01*
X4163Y9573D01*
X4185Y9570D01*
X4205Y9569D01*
X4224Y9568D01*
X4253Y9569D01*
X4278Y9573D01*
X4300Y9579D01*
X4319Y9587D01*
X4334Y9598D01*
X4347Y9609D01*
X4358Y9623D01*
X4366Y9638D01*
X4372Y9658D01*
X4376Y9686D01*
X4379Y9724D01*
X4379Y9769D01*
X4379Y10148D01*
X4461Y10148D01*
X4461Y10235D01*
X4379Y10235D01*
X4379Y10398D01*
X4268Y10465D01*
X4268Y10235D01*
X4156Y10235D01*
X4156Y10148D01*
X4268Y10148D01*
X4268Y9763D01*
X4268Y9742D01*
X4267Y9724D01*
X4265Y9711D01*
X4262Y9702D01*
X4259Y9695D01*
X4255Y9690D01*
X4249Y9685D01*
X4243Y9680D01*
X4236Y9677D01*
X4227Y9674D01*
X4217Y9673D01*
X4205Y9672D01*
X4195Y9672D01*
X4184Y9673D01*
X4171Y9675D01*
X4156Y9676D01*
X4156Y9676D01*
X4089Y9906D02*
X4082Y9991D01*
X4063Y10065D01*
X4031Y10127D01*
X3987Y10177D01*
X3942Y10209D01*
X3893Y10232D01*
X3838Y10245D01*
X3780Y10250D01*
X3715Y10244D01*
X3656Y10228D01*
X3604Y10200D01*
X3558Y10161D01*
X3520Y10112D01*
X3493Y10055D01*
X3477Y9989D01*
X3472Y9915D01*
X3474Y9855D01*
X3481Y9802D01*
X3493Y9755D01*
X3510Y9715D01*
X3531Y9681D01*
X3556Y9650D01*
X3586Y9624D01*
X3621Y9602D01*
X3658Y9584D01*
X3697Y9572D01*
X3737Y9564D01*
X3780Y9562D01*
X3787Y9562D01*
X3780Y9653D01*
X3740Y9657D01*
X3704Y9669D01*
X3671Y9689D01*
X3641Y9717D01*
X3617Y9753D01*
X3600Y9797D01*
X3590Y9849D01*
X3586Y9910D01*
X3590Y9967D01*
X3600Y10017D01*
X3617Y10060D01*
X3642Y10095D01*
X3671Y10122D01*
X3704Y10142D01*
X3740Y10154D01*
X3780Y10158D01*
X3820Y10154D01*
X3856Y10142D01*
X3889Y10122D01*
X3919Y10095D01*
X3943Y10060D01*
X3960Y10016D01*
X3970Y9965D01*
X3974Y9906D01*
X3974Y9906D01*
X3970Y9847D01*
X3960Y9795D01*
X3943Y9752D01*
X3919Y9716D01*
X3889Y9689D01*
X3856Y9669D01*
X3820Y9657D01*
X3780Y9653D01*
X3787Y9562D01*
X3846Y9567D01*
X3905Y9584D01*
X3957Y9612D01*
X4003Y9650D01*
X4041Y9700D01*
X4067Y9759D01*
X4083Y9827D01*
X4089Y9906D01*
X4089Y9906D01*
X3342Y9577D02*
X3342Y10235D01*
X3241Y10235D01*
X3241Y10135D01*
X3223Y10167D01*
X3204Y10193D01*
X3187Y10214D01*
X3170Y10228D01*
X3154Y10237D01*
X3136Y10244D01*
X3118Y10249D01*
X3099Y10250D01*
X3071Y10248D01*
X3042Y10241D01*
X3013Y10230D01*
X2984Y10214D01*
X3023Y10111D01*
X3043Y10121D01*
X3063Y10129D01*
X3084Y10133D01*
X3104Y10135D01*
X3122Y10133D01*
X3139Y10129D01*
X3155Y10122D01*
X3170Y10113D01*
X3184Y10101D01*
X3195Y10086D01*
X3204Y10070D01*
X3212Y10052D01*
X3220Y10021D01*
X3226Y9989D01*
X3229Y9956D01*
X3230Y9921D01*
X3230Y9577D01*
X3342Y9577D01*
X3342Y9577D01*
X11715Y8212D02*
X12068Y9121D01*
X11937Y9121D01*
X11701Y8460D01*
X11687Y8421D01*
X11675Y8383D01*
X11664Y8347D01*
X11653Y8311D01*
X11642Y8349D01*
X11631Y8386D01*
X11618Y8423D01*
X11604Y8460D01*
X11359Y9121D01*
X11236Y9121D01*
X11592Y8212D01*
X11715Y8212D01*
X11715Y8212D01*
X10762Y8424D02*
X10646Y8409D01*
X10663Y8362D01*
X10685Y8320D01*
X10713Y8283D01*
X10747Y8253D01*
X10787Y8228D01*
X10831Y8211D01*
X10881Y8200D01*
X10936Y8197D01*
X11004Y8202D01*
X11065Y8219D01*
X11119Y8247D01*
X11165Y8286D01*
X11202Y8335D01*
X11228Y8393D01*
X11244Y8459D01*
X11250Y8535D01*
X11244Y8614D01*
X11228Y8683D01*
X11202Y8743D01*
X11164Y8793D01*
X11118Y8833D01*
X11066Y8862D01*
X11007Y8879D01*
X10942Y8885D01*
X10933Y8884D01*
X10941Y8793D01*
X10978Y8790D01*
X11012Y8780D01*
X11042Y8764D01*
X11070Y8742D01*
X11093Y8714D01*
X11111Y8682D01*
X11122Y8645D01*
X11128Y8604D01*
X11128Y8604D01*
X10760Y8604D01*
X10766Y8643D01*
X10775Y8677D01*
X10787Y8705D01*
X10803Y8729D01*
X10831Y8757D01*
X10864Y8777D01*
X10900Y8789D01*
X10941Y8793D01*
X10933Y8884D01*
X10879Y8879D01*
X10822Y8863D01*
X10771Y8834D01*
X10726Y8795D01*
X10690Y8746D01*
X10663Y8687D01*
X10648Y8619D01*
X10643Y8542D01*
X10643Y8537D01*
X10643Y8530D01*
X10643Y8522D01*
X10643Y8512D01*
X11134Y8512D01*
X11128Y8461D01*
X11116Y8417D01*
X11097Y8378D01*
X11073Y8346D01*
X11044Y8321D01*
X11011Y8303D01*
X10975Y8292D01*
X10935Y8288D01*
X10906Y8291D01*
X10878Y8297D01*
X10853Y8307D01*
X10830Y8321D01*
X10810Y8339D01*
X10792Y8363D01*
X10775Y8391D01*
X10762Y8424D01*
X10762Y8424D01*
X10507Y8212D02*
X10507Y8870D01*
X10407Y8870D01*
X10407Y8770D01*
X10388Y8802D01*
X10370Y8828D01*
X10353Y8849D01*
X10336Y8863D01*
X10319Y8872D01*
X10302Y8879D01*
X10283Y8884D01*
X10264Y8885D01*
X10236Y8883D01*
X10207Y8876D01*
X10179Y8865D01*
X10150Y8849D01*
X10188Y8746D01*
X10208Y8756D01*
X10229Y8764D01*
X10249Y8768D01*
X10270Y8770D01*
X10288Y8768D01*
X10305Y8764D01*
X10321Y8757D01*
X10336Y8748D01*
X10349Y8736D01*
X10361Y8721D01*
X10370Y8705D01*
X10377Y8687D01*
X10385Y8656D01*
X10391Y8624D01*
X10395Y8591D01*
X10396Y8556D01*
X10396Y8212D01*
X10507Y8212D01*
X10507Y8212D01*
X10128Y8408D02*
X10017Y8426D01*
X10011Y8394D01*
X10000Y8367D01*
X9985Y8343D01*
X9966Y8324D01*
X9942Y8308D01*
X9915Y8297D01*
X9883Y8291D01*
X9847Y8288D01*
X9811Y8290D01*
X9780Y8296D01*
X9754Y8306D01*
X9733Y8320D01*
X9717Y8336D01*
X9705Y8354D01*
X9698Y8373D01*
X9696Y8393D01*
X9698Y8411D01*
X9704Y8427D01*
X9714Y8441D01*
X9729Y8453D01*
X9744Y8461D01*
X9769Y8470D01*
X9801Y8480D01*
X9843Y8491D01*
X9899Y8506D01*
X9947Y8520D01*
X9984Y8532D01*
X10013Y8544D01*
X10035Y8557D01*
X10055Y8571D01*
X10071Y8588D01*
X10085Y8607D01*
X10095Y8627D01*
X10103Y8649D01*
X10108Y8672D01*
X10109Y8695D01*
X10108Y8717D01*
X10104Y8738D01*
X10098Y8758D01*
X10089Y8777D01*
X10078Y8795D01*
X10065Y8811D01*
X10051Y8826D01*
X10034Y8839D01*
X10020Y8848D01*
X10003Y8857D01*
X9985Y8865D01*
X9963Y8872D01*
X9940Y8878D01*
X9917Y8882D01*
X9892Y8884D01*
X9867Y8885D01*
X9829Y8884D01*
X9794Y8879D01*
X9761Y8872D01*
X9731Y8863D01*
X9703Y8851D01*
X9680Y8836D01*
X9660Y8820D01*
X9644Y8802D01*
X9631Y8782D01*
X9621Y8758D01*
X9612Y8731D01*
X9606Y8700D01*
X9715Y8685D01*
X9720Y8709D01*
X9729Y8731D01*
X9742Y8749D01*
X9758Y8765D01*
X9778Y8777D01*
X9801Y8786D01*
X9828Y8791D01*
X9859Y8793D01*
X9894Y8792D01*
X9925Y8787D01*
X9949Y8779D01*
X9968Y8768D01*
X9983Y8755D01*
X9993Y8740D01*
X9999Y8725D01*
X10001Y8708D01*
X10001Y8698D01*
X9998Y8688D01*
X9994Y8678D01*
X9988Y8669D01*
X9980Y8661D01*
X9970Y8653D01*
X9959Y8646D01*
X9945Y8639D01*
X9932Y8635D01*
X9912Y8629D01*
X9883Y8621D01*
X9846Y8611D01*
X9792Y8596D01*
X9746Y8582D01*
X9709Y8570D01*
X9681Y8559D01*
X9659Y8548D01*
X9639Y8534D01*
X9622Y8519D01*
X9608Y8501D01*
X9596Y8480D01*
X9588Y8457D01*
X9583Y8432D01*
X9581Y8405D01*
X9583Y8378D01*
X9589Y8351D01*
X9599Y8325D01*
X9613Y8300D01*
X9632Y8277D01*
X9653Y8256D01*
X9679Y8239D01*
X9707Y8224D01*
X9739Y8212D01*
X9773Y8203D01*
X9809Y8198D01*
X9846Y8197D01*
X9907Y8200D01*
X9959Y8210D01*
X10005Y8227D01*
X10042Y8250D01*
X10073Y8280D01*
X10097Y8316D01*
X10116Y8359D01*
X10128Y8408D01*
X10128Y8408D01*
X9448Y8212D02*
X9448Y8870D01*
X9336Y8870D01*
X9336Y8212D01*
X9448Y8212D01*
X9448Y8212D01*
X9448Y8992D02*
X9448Y9121D01*
X9336Y9121D01*
X9336Y8992D01*
X9448Y8992D01*
X9448Y8992D01*
X9208Y8541D02*
X9201Y8626D01*
X9182Y8700D01*
X9150Y8762D01*
X9106Y8812D01*
X9061Y8844D01*
X9012Y8867D01*
X8958Y8880D01*
X8899Y8885D01*
X8834Y8879D01*
X8775Y8863D01*
X8723Y8835D01*
X8677Y8796D01*
X8639Y8747D01*
X8612Y8690D01*
X8596Y8624D01*
X8591Y8550D01*
X8593Y8490D01*
X8600Y8437D01*
X8612Y8390D01*
X8629Y8350D01*
X8650Y8316D01*
X8676Y8285D01*
X8705Y8259D01*
X8740Y8237D01*
X8777Y8219D01*
X8816Y8207D01*
X8857Y8199D01*
X8899Y8197D01*
X8906Y8197D01*
X8899Y8288D01*
X8859Y8292D01*
X8823Y8304D01*
X8790Y8324D01*
X8760Y8352D01*
X8736Y8388D01*
X8719Y8432D01*
X8709Y8484D01*
X8705Y8545D01*
X8709Y8602D01*
X8719Y8652D01*
X8737Y8695D01*
X8761Y8730D01*
X8790Y8757D01*
X8823Y8777D01*
X8859Y8789D01*
X8899Y8793D01*
X8939Y8789D01*
X8975Y8777D01*
X9008Y8757D01*
X9038Y8730D01*
X9062Y8695D01*
X9079Y8651D01*
X9089Y8600D01*
X9093Y8541D01*
X9093Y8541D01*
X9089Y8482D01*
X9079Y8430D01*
X9062Y8387D01*
X9038Y8351D01*
X9008Y8324D01*
X8975Y8304D01*
X8939Y8292D01*
X8899Y8288D01*
X8906Y8197D01*
X8965Y8202D01*
X9024Y8219D01*
X9076Y8247D01*
X9122Y8285D01*
X9160Y8335D01*
X9186Y8394D01*
X9202Y8462D01*
X9208Y8541D01*
X9208Y8541D01*
X8460Y8212D02*
X8460Y8870D01*
X8359Y8870D01*
X8359Y8777D01*
X8319Y8824D01*
X8271Y8858D01*
X8214Y8878D01*
X8150Y8885D01*
X8121Y8884D01*
X8093Y8880D01*
X8066Y8873D01*
X8040Y8864D01*
X8017Y8852D01*
X7997Y8839D01*
X7979Y8824D01*
X7965Y8808D01*
X7954Y8789D01*
X7944Y8770D01*
X7937Y8748D01*
X7931Y8725D01*
X7928Y8707D01*
X7926Y8682D01*
X7925Y8652D01*
X7925Y8617D01*
X7925Y8212D01*
X8036Y8212D01*
X8036Y8612D01*
X8037Y8644D01*
X8039Y8672D01*
X8044Y8695D01*
X8049Y8714D01*
X8057Y8730D01*
X8067Y8745D01*
X8080Y8757D01*
X8095Y8768D01*
X8113Y8777D01*
X8131Y8783D01*
X8152Y8787D01*
X8173Y8788D01*
X8208Y8785D01*
X8240Y8777D01*
X8269Y8763D01*
X8296Y8743D01*
X8319Y8715D01*
X8335Y8677D01*
X8345Y8629D01*
X8348Y8571D01*
X8348Y8212D01*
X8460Y8212D01*
X8460Y8212D01*
X7011Y8212D02*
X7123Y8212D01*
X7123Y8923D01*
X7144Y8904D01*
X7169Y8884D01*
X7197Y8865D01*
X7228Y8846D01*
X7260Y8828D01*
X7291Y8812D01*
X7319Y8799D01*
X7346Y8788D01*
X7346Y8896D01*
X7301Y8919D01*
X7258Y8945D01*
X7219Y8973D01*
X7182Y9003D01*
X7150Y9034D01*
X7122Y9065D01*
X7100Y9095D01*
X7083Y9124D01*
X7011Y9124D01*
X7011Y8212D01*
X7011Y8212D01*
X6663Y8212D02*
X6663Y8339D01*
X6536Y8339D01*
X6536Y8212D01*
X6663Y8212D01*
X6663Y8212D01*
X6372Y8660D02*
X6370Y8737D01*
X6364Y8805D01*
X6354Y8866D01*
X6339Y8919D01*
X6321Y8966D01*
X6298Y9007D01*
X6271Y9042D01*
X6241Y9071D01*
X6206Y9094D01*
X6167Y9111D01*
X6124Y9121D01*
X6076Y9124D01*
X6041Y9123D01*
X6007Y9117D01*
X5976Y9108D01*
X5948Y9095D01*
X5921Y9079D01*
X5897Y9059D01*
X5876Y9036D01*
X5856Y9010D01*
X5839Y8981D01*
X5824Y8948D01*
X5811Y8913D01*
X5800Y8875D01*
X5791Y8832D01*
X5785Y8781D01*
X5781Y8724D01*
X5780Y8660D01*
X5782Y8584D01*
X5788Y8515D01*
X5798Y8455D01*
X5812Y8402D01*
X5831Y8355D01*
X5853Y8315D01*
X5880Y8279D01*
X5911Y8250D01*
X5946Y8226D01*
X5985Y8210D01*
X6028Y8199D01*
X6076Y8196D01*
X6085Y8197D01*
X6076Y8288D01*
X6039Y8293D01*
X6005Y8306D01*
X5974Y8330D01*
X5947Y8362D01*
X5924Y8409D01*
X5907Y8474D01*
X5898Y8558D01*
X5894Y8660D01*
X5898Y8763D01*
X5907Y8847D01*
X5924Y8912D01*
X5947Y8958D01*
X5975Y8991D01*
X6006Y9014D01*
X6040Y9027D01*
X6077Y9032D01*
X6114Y9028D01*
X6146Y9016D01*
X6175Y8995D01*
X6200Y8967D01*
X6225Y8917D01*
X6243Y8849D01*
X6254Y8763D01*
X6258Y8660D01*
X6258Y8660D01*
X6254Y8557D01*
X6245Y8474D01*
X6228Y8408D01*
X6205Y8362D01*
X6178Y8330D01*
X6147Y8306D01*
X6113Y8293D01*
X6076Y8288D01*
X6085Y8197D01*
X6138Y8202D01*
X6193Y8220D01*
X6241Y8249D01*
X6283Y8290D01*
X6322Y8356D01*
X6350Y8439D01*
X6367Y8541D01*
X6372Y8660D01*
X6372Y8660D01*
X11481Y10942D02*
X11481Y11851D01*
X11138Y11851D01*
X11096Y11850D01*
X11059Y11849D01*
X11027Y11846D01*
X11000Y11842D01*
X10968Y11835D01*
X10939Y11826D01*
X10912Y11814D01*
X10888Y11800D01*
X10866Y11782D01*
X10847Y11762D01*
X10830Y11738D01*
X10815Y11712D01*
X10803Y11683D01*
X10794Y11653D01*
X10789Y11621D01*
X10787Y11588D01*
X10792Y11532D01*
X10806Y11481D01*
X10829Y11434D01*
X10861Y11391D01*
X10905Y11356D01*
X10965Y11331D01*
X11039Y11316D01*
X11066Y11315D01*
X11072Y11421D01*
X11026Y11429D01*
X10989Y11443D01*
X10960Y11462D01*
X10939Y11486D01*
X10924Y11514D01*
X10914Y11547D01*
X10911Y11584D01*
X10913Y11612D01*
X10919Y11637D01*
X10928Y11660D01*
X10940Y11682D01*
X10956Y11700D01*
X10974Y11715D01*
X10994Y11727D01*
X11016Y11735D01*
X11035Y11739D01*
X11059Y11741D01*
X11091Y11743D01*
X11128Y11743D01*
X11361Y11743D01*
X11361Y11418D01*
X11361Y11418D01*
X11126Y11418D01*
X11072Y11421D01*
X11066Y11315D01*
X11128Y11311D01*
X11361Y11311D01*
X11361Y10942D01*
X11481Y10942D01*
X11481Y10942D01*
X10648Y10942D02*
X10648Y11600D01*
X10536Y11600D01*
X10536Y10942D01*
X10648Y10942D01*
X10648Y10942D01*
X10648Y11722D02*
X10648Y11851D01*
X10536Y11851D01*
X10536Y11722D01*
X10648Y11722D01*
X10648Y11722D01*
X10366Y10942D02*
X10366Y11600D01*
X10266Y11600D01*
X10266Y11507D01*
X10226Y11554D01*
X10177Y11588D01*
X10121Y11608D01*
X10056Y11615D01*
X10027Y11614D01*
X9999Y11610D01*
X9972Y11603D01*
X9947Y11594D01*
X9923Y11582D01*
X9903Y11569D01*
X9886Y11554D01*
X9872Y11538D01*
X9861Y11519D01*
X9851Y11500D01*
X9843Y11478D01*
X9837Y11455D01*
X9835Y11437D01*
X9833Y11412D01*
X9832Y11382D01*
X9831Y11347D01*
X9831Y10942D01*
X9943Y10942D01*
X9943Y11342D01*
X9944Y11374D01*
X9946Y11402D01*
X9950Y11425D01*
X9956Y11444D01*
X9964Y11460D01*
X9974Y11475D01*
X9987Y11487D01*
X10002Y11498D01*
X10019Y11507D01*
X10038Y11513D01*
X10058Y11517D01*
X10080Y11518D01*
X10114Y11515D01*
X10146Y11507D01*
X10176Y11493D01*
X10203Y11473D01*
X10226Y11445D01*
X10242Y11407D01*
X10251Y11359D01*
X10255Y11301D01*
X10255Y10942D01*
X10366Y10942D01*
X10366Y10942D01*
X9209Y11154D02*
X9094Y11139D01*
X9110Y11092D01*
X9133Y11050D01*
X9161Y11013D01*
X9195Y10983D01*
X9234Y10958D01*
X9279Y10941D01*
X9329Y10930D01*
X9383Y10927D01*
X9452Y10932D01*
X9513Y10949D01*
X9566Y10977D01*
X9613Y11016D01*
X9650Y11065D01*
X9676Y11123D01*
X9692Y11189D01*
X9697Y11265D01*
X9692Y11344D01*
X9676Y11413D01*
X9649Y11473D01*
X9612Y11523D01*
X9566Y11563D01*
X9513Y11592D01*
X9455Y11609D01*
X9390Y11615D01*
X9380Y11614D01*
X9388Y11523D01*
X9425Y11520D01*
X9459Y11510D01*
X9490Y11494D01*
X9518Y11472D01*
X9541Y11444D01*
X9558Y11412D01*
X9570Y11375D01*
X9576Y11334D01*
X9576Y11334D01*
X9208Y11334D01*
X9213Y11373D01*
X9222Y11407D01*
X9234Y11435D01*
X9250Y11459D01*
X9279Y11487D01*
X9311Y11507D01*
X9348Y11519D01*
X9388Y11523D01*
X9380Y11614D01*
X9327Y11609D01*
X9270Y11593D01*
X9219Y11564D01*
X9174Y11525D01*
X9137Y11476D01*
X9111Y11417D01*
X9095Y11349D01*
X9090Y11272D01*
X9090Y11267D01*
X9090Y11260D01*
X9090Y11252D01*
X9091Y11242D01*
X9582Y11242D01*
X9576Y11191D01*
X9563Y11147D01*
X9545Y11108D01*
X9520Y11076D01*
X9491Y11051D01*
X9458Y11033D01*
X9422Y11022D01*
X9383Y11018D01*
X9353Y11021D01*
X9326Y11027D01*
X9301Y11037D01*
X9278Y11051D01*
X9257Y11069D01*
X9239Y11093D01*
X9223Y11121D01*
X9209Y11154D01*
X9209Y11154D01*
X8405Y11628D02*
X8516Y11619D01*
X8525Y11650D01*
X8534Y11676D01*
X8546Y11698D01*
X8559Y11715D01*
X8583Y11736D01*
X8609Y11751D01*
X8638Y11760D01*
X8670Y11763D01*
X8696Y11761D01*
X8720Y11755D01*
X8743Y11746D01*
X8764Y11733D01*
X8789Y11711D01*
X8811Y11686D01*
X8830Y11655D01*
X8847Y11621D01*
X8860Y11580D01*
X8870Y11531D01*
X8876Y11475D01*
X8879Y11410D01*
X8820Y11364D01*
X8832Y11349D01*
X8848Y11316D01*
X8858Y11278D01*
X8861Y11236D01*
X8861Y11236D01*
X8860Y11208D01*
X8855Y11180D01*
X8847Y11152D01*
X8837Y11126D01*
X8823Y11101D01*
X8807Y11079D01*
X8789Y11061D01*
X8768Y11045D01*
X8746Y11033D01*
X8723Y11025D01*
X8700Y11020D01*
X8676Y11018D01*
X8642Y11021D01*
X8610Y11032D01*
X8581Y11050D01*
X8554Y11075D01*
X8532Y11106D01*
X8516Y11142D01*
X8507Y11184D01*
X8503Y11230D01*
X8507Y11275D01*
X8516Y11314D01*
X8532Y11349D01*
X8554Y11378D01*
X8580Y11402D01*
X8610Y11419D01*
X8644Y11429D01*
X8680Y11433D01*
X8717Y11429D01*
X8750Y11419D01*
X8781Y11402D01*
X8809Y11378D01*
X8820Y11364D01*
X8879Y11410D01*
X8857Y11439D01*
X8834Y11464D01*
X8808Y11485D01*
X8780Y11502D01*
X8751Y11515D01*
X8720Y11524D01*
X8689Y11529D01*
X8658Y11531D01*
X8604Y11526D01*
X8555Y11511D01*
X8509Y11485D01*
X8468Y11449D01*
X8433Y11405D01*
X8409Y11355D01*
X8394Y11299D01*
X8389Y11237D01*
X8392Y11195D01*
X8399Y11154D01*
X8410Y11115D01*
X8426Y11078D01*
X8446Y11043D01*
X8470Y11013D01*
X8497Y10987D01*
X8528Y10965D01*
X8561Y10948D01*
X8596Y10936D01*
X8634Y10929D01*
X8674Y10926D01*
X8741Y10933D01*
X8801Y10952D01*
X8854Y10984D01*
X8902Y11029D01*
X8940Y11088D01*
X8968Y11165D01*
X8984Y11257D01*
X8990Y11367D01*
X8984Y11490D01*
X8965Y11595D01*
X8935Y11681D01*
X8892Y11750D01*
X8846Y11796D01*
X8793Y11828D01*
X8732Y11848D01*
X8663Y11854D01*
X8612Y11851D01*
X8566Y11839D01*
X8524Y11821D01*
X8488Y11794D01*
X8457Y11761D01*
X8433Y11723D01*
X8416Y11678D01*
X8405Y11628D01*
X8405Y11628D01*
X7921Y10942D02*
X7921Y11159D01*
X8315Y11159D01*
X8315Y11262D01*
X7991Y11721D01*
X7921Y11671D01*
X8205Y11262D01*
X7921Y11262D01*
X7921Y11262D01*
X7921Y11671D01*
X7991Y11721D01*
X7900Y11851D01*
X7809Y11851D01*
X7809Y11262D01*
X7686Y11262D01*
X7686Y11159D01*
X7809Y11159D01*
X7809Y10942D01*
X7921Y10942D01*
X7921Y10942D01*
X6944Y11041D02*
X6928Y10943D01*
X6951Y10938D01*
X6973Y10935D01*
X6993Y10934D01*
X7013Y10933D01*
X7041Y10934D01*
X7067Y10938D01*
X7089Y10944D01*
X7107Y10952D01*
X7122Y10963D01*
X7135Y10974D01*
X7146Y10988D01*
X7154Y11003D01*
X7160Y11023D01*
X7164Y11051D01*
X7167Y11089D01*
X7168Y11134D01*
X7168Y11513D01*
X7250Y11513D01*
X7250Y11600D01*
X7168Y11600D01*
X7168Y11763D01*
X7057Y11830D01*
X7057Y11600D01*
X6944Y11600D01*
X6944Y11513D01*
X7057Y11513D01*
X7057Y11128D01*
X7056Y11107D01*
X7055Y11089D01*
X7053Y11076D01*
X7051Y11067D01*
X7047Y11060D01*
X7043Y11055D01*
X7038Y11050D01*
X7032Y11045D01*
X7024Y11042D01*
X7015Y11039D01*
X7005Y11038D01*
X6993Y11037D01*
X6983Y11037D01*
X6972Y11038D01*
X6959Y11040D01*
X6944Y11041D01*
X6944Y11041D01*
X6877Y11271D02*
X6871Y11356D01*
X6851Y11430D01*
X6820Y11492D01*
X6775Y11542D01*
X6730Y11574D01*
X6681Y11597D01*
X6627Y11610D01*
X6568Y11615D01*
X6503Y11609D01*
X6445Y11593D01*
X6392Y11565D01*
X6346Y11526D01*
X6308Y11477D01*
X6281Y11420D01*
X6265Y11354D01*
X6260Y11280D01*
X6262Y11220D01*
X6269Y11167D01*
X6281Y11120D01*
X6298Y11080D01*
X6319Y11046D01*
X6345Y11015D01*
X6375Y10989D01*
X6409Y10967D01*
X6446Y10949D01*
X6485Y10937D01*
X6526Y10929D01*
X6568Y10927D01*
X6576Y10927D01*
X6568Y11018D01*
X6528Y11022D01*
X6492Y11034D01*
X6459Y11054D01*
X6430Y11082D01*
X6406Y11118D01*
X6388Y11162D01*
X6378Y11214D01*
X6375Y11275D01*
X6378Y11332D01*
X6388Y11382D01*
X6406Y11425D01*
X6430Y11460D01*
X6460Y11487D01*
X6492Y11507D01*
X6529Y11519D01*
X6568Y11523D01*
X6608Y11519D01*
X6645Y11507D01*
X6678Y11487D01*
X6707Y11460D01*
X6731Y11425D01*
X6748Y11381D01*
X6759Y11330D01*
X6762Y11271D01*
X6762Y11271D01*
X6759Y11212D01*
X6748Y11160D01*
X6731Y11117D01*
X6707Y11081D01*
X6678Y11054D01*
X6645Y11034D01*
X6608Y11022D01*
X6568Y11018D01*
X6576Y10927D01*
X6634Y10932D01*
X6693Y10949D01*
X6746Y10977D01*
X6792Y11015D01*
X6829Y11065D01*
X6856Y11124D01*
X6872Y11192D01*
X6877Y11271D01*
X6877Y11271D01*
G37*
M02*