%FSLAX33Y33*%
%MOMM*%
%ADD10C,0.127*%
%ADD11C,0.15*%
D10*
%LNtop silkscreen_traces*%
%LNtop silkscreen component f98de3a3528428db*%
G01*
X16510Y11938D02*
X1270Y11938D01*
G36*
X2624Y19100D02*
X2624Y18971D01*
X1903Y18971D01*
X1904Y18995D01*
X1906Y19018D01*
X1911Y19041D01*
X1919Y19064D01*
X1935Y19101D01*
X1955Y19137D01*
X1979Y19173D01*
X2007Y19209D01*
X2041Y19246D01*
X2081Y19286D01*
X2128Y19329D01*
X2182Y19374D01*
X2264Y19443D01*
X2331Y19505D01*
X2384Y19559D01*
X2423Y19605D01*
X2450Y19647D01*
X2469Y19688D01*
X2481Y19728D01*
X2485Y19766D01*
X2481Y19805D01*
X2471Y19840D01*
X2453Y19872D01*
X2428Y19901D01*
X2398Y19925D01*
X2363Y19942D01*
X2323Y19952D01*
X2280Y19955D01*
X2234Y19952D01*
X2193Y19941D01*
X2156Y19923D01*
X2125Y19897D01*
X2099Y19866D01*
X2081Y19828D01*
X2070Y19785D01*
X2066Y19737D01*
X1928Y19751D01*
X1940Y19823D01*
X1962Y19887D01*
X1994Y19941D01*
X2035Y19986D01*
X2085Y20021D01*
X2143Y20046D01*
X2209Y20061D01*
X2283Y20066D01*
X2357Y20061D01*
X2423Y20045D01*
X2481Y20017D01*
X2531Y19979D01*
X2571Y19933D01*
X2600Y19882D01*
X2617Y19825D01*
X2623Y19764D01*
X2621Y19731D01*
X2616Y19699D01*
X2608Y19667D01*
X2596Y19635D01*
X2580Y19603D01*
X2560Y19570D01*
X2536Y19536D01*
X2507Y19502D01*
X2471Y19463D01*
X2424Y19419D01*
X2368Y19367D01*
X2301Y19310D01*
X2246Y19263D01*
X2202Y19225D01*
X2168Y19194D01*
X2146Y19172D01*
X2129Y19154D01*
X2114Y19136D01*
X2101Y19118D01*
X2089Y19100D01*
X2624Y19100D01*
X2624Y19100D01*
X15050Y18971D02*
X14916Y18971D01*
X14916Y19825D01*
X14890Y19801D01*
X14860Y19778D01*
X14826Y19755D01*
X14789Y19732D01*
X14751Y19711D01*
X14714Y19692D01*
X14680Y19676D01*
X14648Y19663D01*
X14648Y19793D01*
X14702Y19820D01*
X14753Y19851D01*
X14800Y19884D01*
X14844Y19921D01*
X14883Y19958D01*
X14916Y19995D01*
X14943Y20031D01*
X14963Y20066D01*
X15050Y20066D01*
X15050Y18971D01*
X15050Y18971D01*
X15393Y19509D02*
X15395Y19601D01*
X15403Y19684D01*
X15415Y19757D01*
X15432Y19820D01*
X15455Y19876D01*
X15482Y19925D01*
X15514Y19967D01*
X15551Y20002D01*
X15593Y20030D01*
X15639Y20050D01*
X15691Y20062D01*
X15748Y20066D01*
X15791Y20064D01*
X15831Y20058D01*
X15868Y20046D01*
X15902Y20031D01*
X15934Y20011D01*
X15963Y19988D01*
X15989Y19960D01*
X16012Y19929D01*
X16032Y19894D01*
X16050Y19855D01*
X16066Y19813D01*
X16080Y19767D01*
X16090Y19715D01*
X16098Y19655D01*
X16103Y19586D01*
X16104Y19509D01*
X16102Y19418D01*
X16094Y19336D01*
X16082Y19263D01*
X16065Y19199D01*
X16042Y19143D01*
X16015Y19095D01*
X15983Y19052D01*
X15947Y19017D01*
X15905Y18989D01*
X15858Y18968D01*
X15806Y18956D01*
X15748Y18952D01*
X15738Y18953D01*
X15748Y19063D01*
X15793Y19068D01*
X15833Y19085D01*
X15870Y19113D01*
X15904Y19152D01*
X15931Y19208D01*
X15951Y19286D01*
X15962Y19386D01*
X15966Y19509D01*
X15962Y19632D01*
X15951Y19733D01*
X15931Y19811D01*
X15904Y19867D01*
X15870Y19906D01*
X15833Y19933D01*
X15792Y19950D01*
X15747Y19955D01*
X15703Y19951D01*
X15664Y19936D01*
X15629Y19912D01*
X15600Y19877D01*
X15569Y19817D01*
X15548Y19735D01*
X15535Y19633D01*
X15530Y19509D01*
X15530Y19509D01*
X15534Y19386D01*
X15546Y19285D01*
X15566Y19207D01*
X15593Y19151D01*
X15626Y19113D01*
X15663Y19085D01*
X15704Y19068D01*
X15748Y19063D01*
X15738Y18953D01*
X15674Y18959D01*
X15608Y18981D01*
X15550Y19016D01*
X15501Y19066D01*
X15453Y19144D01*
X15420Y19244D01*
X15399Y19366D01*
X15393Y19509D01*
X15393Y19509D01*
X7018Y19253D02*
X7018Y20708D01*
X8069Y20708D01*
X8069Y20536D01*
X7210Y20536D01*
X7210Y20091D01*
X8015Y20091D01*
X8015Y19920D01*
X7210Y19920D01*
X7210Y19425D01*
X8103Y19425D01*
X8103Y19253D01*
X7018Y19253D01*
X7018Y19253D01*
X8221Y19253D02*
X8784Y20011D01*
X8288Y20708D01*
X8517Y20708D01*
X8781Y20335D01*
X8819Y20280D01*
X8851Y20232D01*
X8878Y20191D01*
X8898Y20156D01*
X8923Y20196D01*
X8951Y20237D01*
X8981Y20279D01*
X9013Y20322D01*
X9306Y20708D01*
X9515Y20708D01*
X9004Y20022D01*
X9555Y19253D01*
X9317Y19253D01*
X8951Y19772D01*
X8935Y19795D01*
X8919Y19819D01*
X8903Y19844D01*
X8887Y19869D01*
X8864Y19833D01*
X8845Y19802D01*
X8830Y19778D01*
X8818Y19760D01*
X8452Y19253D01*
X8221Y19253D01*
X8221Y19253D01*
X9724Y19253D02*
X9724Y20708D01*
X10273Y20708D01*
X10341Y20707D01*
X10401Y20704D01*
X10452Y20700D01*
X10494Y20694D01*
X10546Y20683D01*
X10593Y20668D01*
X10636Y20649D01*
X10674Y20626D01*
X10708Y20598D01*
X10739Y20566D01*
X10767Y20528D01*
X10791Y20485D01*
X10810Y20439D01*
X10824Y20391D01*
X10832Y20340D01*
X10835Y20287D01*
X10827Y20198D01*
X10805Y20116D01*
X10768Y20041D01*
X10717Y19973D01*
X10646Y19917D01*
X10551Y19877D01*
X10432Y19853D01*
X10389Y19850D01*
X10379Y20021D01*
X10452Y20034D01*
X10512Y20055D01*
X10558Y20086D01*
X10592Y20124D01*
X10617Y20169D01*
X10631Y20222D01*
X10636Y20281D01*
X10633Y20325D01*
X10625Y20366D01*
X10610Y20403D01*
X10590Y20437D01*
X10565Y20467D01*
X10537Y20491D01*
X10504Y20510D01*
X10469Y20523D01*
X10439Y20529D01*
X10399Y20533D01*
X10349Y20535D01*
X10289Y20536D01*
X9917Y20536D01*
X9917Y20016D01*
X9917Y20016D01*
X10293Y20016D01*
X10379Y20021D01*
X10389Y19850D01*
X10290Y19845D01*
X9917Y19845D01*
X9917Y19253D01*
X9724Y19253D01*
X9724Y19253D01*
G37*
%LNtop silkscreen component 9df862e34fc6b5e4*%
D11*
X17390Y7580D02*
X17390Y2580D01*
X17390Y7580D02*
X0390Y7580D01*
X0390Y2580*
X17390Y2580*
%LNtext*%
G36*
X2407Y10279D02*
X2493Y10279D01*
X2493Y9971D01*
X2223Y9971D01*
X2197Y10007D01*
X2174Y10043D01*
X2154Y10080D01*
X2138Y10117D01*
X2126Y10155D01*
X2117Y10194D01*
X2111Y10233D01*
X2110Y10272D01*
X2112Y10324D01*
X2121Y10374D01*
X2135Y10422D01*
X2155Y10467D01*
X2181Y10508D01*
X2212Y10544D01*
X2247Y10574D01*
X2288Y10599D01*
X2333Y10619D01*
X2380Y10633D01*
X2430Y10641D01*
X2482Y10644D01*
X2534Y10641D01*
X2585Y10633D01*
X2633Y10619D01*
X2680Y10599D01*
X2723Y10575D01*
X2761Y10545D01*
X2792Y10511D01*
X2817Y10472D01*
X2837Y10428D01*
X2851Y10382D01*
X2859Y10332D01*
X2862Y10280D01*
X2860Y10241D01*
X2855Y10204D01*
X2847Y10170D01*
X2836Y10137D01*
X2822Y10107D01*
X2806Y10080D01*
X2787Y10057D01*
X2765Y10037D01*
X2740Y10020D01*
X2712Y10005D01*
X2681Y9992D01*
X2646Y9982D01*
X2622Y10069D01*
X2648Y10077D01*
X2672Y10087D01*
X2692Y10098D01*
X2709Y10109D01*
X2724Y10123D01*
X2738Y10139D01*
X2750Y10158D01*
X2760Y10179D01*
X2769Y10202D01*
X2775Y10227D01*
X2778Y10252D01*
X2779Y10279D01*
X2778Y10311D01*
X2774Y10341D01*
X2768Y10368D01*
X2759Y10393D01*
X2748Y10416D01*
X2736Y10437D01*
X2722Y10455D01*
X2706Y10471D01*
X2690Y10485D01*
X2672Y10497D01*
X2654Y10508D01*
X2634Y10517D01*
X2600Y10529D01*
X2564Y10538D01*
X2527Y10543D01*
X2488Y10545D01*
X2441Y10542D01*
X2399Y10536D01*
X2360Y10526D01*
X2325Y10511D01*
X2295Y10492D01*
X2268Y10470D01*
X2246Y10444D01*
X2228Y10414D01*
X2214Y10381D01*
X2204Y10348D01*
X2198Y10313D01*
X2196Y10278D01*
X2198Y10247D01*
X2202Y10216D01*
X2210Y10186D01*
X2220Y10156D01*
X2233Y10128D01*
X2245Y10103D01*
X2258Y10082D01*
X2272Y10065D01*
X2407Y10065D01*
X2407Y10279D01*
X2407Y10279D01*
X2122Y9842D02*
X2649Y9842D01*
X2649Y9761D01*
X2569Y9761D01*
X2595Y9746D01*
X2615Y9732D01*
X2632Y9718D01*
X2643Y9704D01*
X2651Y9691D01*
X2656Y9677D01*
X2660Y9662D01*
X2661Y9647D01*
X2659Y9624D01*
X2654Y9602D01*
X2645Y9578D01*
X2632Y9555D01*
X2549Y9586D01*
X2558Y9602D01*
X2564Y9619D01*
X2567Y9635D01*
X2568Y9652D01*
X2567Y9666D01*
X2564Y9679D01*
X2559Y9692D01*
X2551Y9704D01*
X2541Y9715D01*
X2530Y9724D01*
X2517Y9732D01*
X2502Y9737D01*
X2478Y9744D01*
X2452Y9748D01*
X2426Y9751D01*
X2398Y9752D01*
X2122Y9752D01*
X2122Y9842D01*
X2122Y9842D01*
X2292Y9142D02*
X2280Y9049D01*
X2242Y9063D01*
X2208Y9080D01*
X2179Y9103D01*
X2155Y9130D01*
X2135Y9162D01*
X2121Y9197D01*
X2113Y9237D01*
X2110Y9281D01*
X2115Y9336D01*
X2128Y9385D01*
X2150Y9427D01*
X2181Y9464D01*
X2220Y9494D01*
X2267Y9515D01*
X2320Y9528D01*
X2381Y9532D01*
X2444Y9528D01*
X2499Y9515D01*
X2547Y9493D01*
X2587Y9464D01*
X2619Y9427D01*
X2642Y9385D01*
X2656Y9338D01*
X2661Y9286D01*
X2660Y9278D01*
X2587Y9285D01*
X2585Y9314D01*
X2577Y9342D01*
X2564Y9366D01*
X2546Y9388D01*
X2524Y9407D01*
X2498Y9421D01*
X2469Y9430D01*
X2436Y9435D01*
X2436Y9435D01*
X2436Y9141D01*
X2467Y9145D01*
X2494Y9152D01*
X2517Y9162D01*
X2536Y9174D01*
X2558Y9197D01*
X2574Y9223D01*
X2584Y9253D01*
X2587Y9285D01*
X2660Y9278D01*
X2656Y9235D01*
X2643Y9190D01*
X2620Y9149D01*
X2589Y9113D01*
X2549Y9084D01*
X2502Y9063D01*
X2448Y9050D01*
X2386Y9046D01*
X2382Y9046D01*
X2376Y9046D01*
X2370Y9047D01*
X2363Y9047D01*
X2363Y9440D01*
X2322Y9435D01*
X2286Y9425D01*
X2255Y9410D01*
X2230Y9391D01*
X2209Y9367D01*
X2195Y9341D01*
X2186Y9312D01*
X2184Y9280D01*
X2185Y9257D01*
X2190Y9235D01*
X2198Y9215D01*
X2209Y9197D01*
X2224Y9180D01*
X2243Y9165D01*
X2265Y9153D01*
X2292Y9142D01*
X2292Y9142D01*
X2292Y8576D02*
X2280Y8484D01*
X2242Y8497D01*
X2208Y8515D01*
X2179Y8538D01*
X2155Y8565D01*
X2135Y8597D01*
X2121Y8632D01*
X2113Y8672D01*
X2110Y8716D01*
X2115Y8771D01*
X2128Y8820D01*
X2150Y8862D01*
X2181Y8899D01*
X2220Y8929D01*
X2267Y8950D01*
X2320Y8963D01*
X2381Y8967D01*
X2444Y8963D01*
X2499Y8950D01*
X2547Y8928D01*
X2587Y8898D01*
X2619Y8862D01*
X2642Y8820D01*
X2656Y8773D01*
X2661Y8721D01*
X2660Y8713D01*
X2587Y8720D01*
X2585Y8749D01*
X2577Y8776D01*
X2564Y8801D01*
X2546Y8823D01*
X2524Y8842D01*
X2498Y8856D01*
X2469Y8865D01*
X2436Y8870D01*
X2436Y8870D01*
X2436Y8575D01*
X2467Y8580D01*
X2494Y8587D01*
X2517Y8597D01*
X2536Y8609D01*
X2558Y8632D01*
X2574Y8658D01*
X2584Y8687D01*
X2587Y8720D01*
X2660Y8713D01*
X2656Y8670D01*
X2643Y8625D01*
X2620Y8584D01*
X2589Y8548D01*
X2549Y8519D01*
X2502Y8498D01*
X2448Y8485D01*
X2386Y8481D01*
X2382Y8481D01*
X2376Y8481D01*
X2370Y8482D01*
X2363Y8482D01*
X2363Y8875D01*
X2322Y8870D01*
X2286Y8860D01*
X2255Y8845D01*
X2230Y8826D01*
X2209Y8802D01*
X2195Y8776D01*
X2186Y8747D01*
X2184Y8715D01*
X2185Y8692D01*
X2190Y8670D01*
X2198Y8650D01*
X2209Y8632D01*
X2224Y8615D01*
X2243Y8600D01*
X2265Y8588D01*
X2292Y8576D01*
X2292Y8576D01*
X2122Y8372D02*
X2649Y8372D01*
X2649Y8292D01*
X2574Y8292D01*
X2612Y8259D01*
X2639Y8221D01*
X2655Y8176D01*
X2661Y8124D01*
X2660Y8101D01*
X2656Y8078D01*
X2651Y8057D01*
X2644Y8036D01*
X2634Y8018D01*
X2624Y8002D01*
X2612Y7988D01*
X2599Y7977D01*
X2584Y7968D01*
X2568Y7960D01*
X2551Y7954D01*
X2533Y7949D01*
X2518Y7947D01*
X2499Y7945D01*
X2475Y7944D01*
X2446Y7944D01*
X2122Y7944D01*
X2122Y8033D01*
X2442Y8033D01*
X2468Y8034D01*
X2490Y8036D01*
X2509Y8039D01*
X2524Y8044D01*
X2537Y8050D01*
X2548Y8058D01*
X2558Y8068D01*
X2567Y8081D01*
X2574Y8094D01*
X2579Y8109D01*
X2582Y8126D01*
X2583Y8143D01*
X2581Y8170D01*
X2574Y8196D01*
X2563Y8220D01*
X2547Y8241D01*
X2525Y8259D01*
X2495Y8272D01*
X2456Y8280D01*
X2410Y8283D01*
X2122Y8283D01*
X2122Y8372D01*
X2122Y8372D01*
X1504Y1098D02*
X1660Y1119D01*
X1676Y1057D01*
X1697Y1005D01*
X1722Y0961D01*
X1752Y0927D01*
X1786Y0902D01*
X1824Y0883D01*
X1865Y0872D01*
X1910Y0869D01*
X1963Y0874D01*
X2011Y0888D01*
X2056Y0912D01*
X2096Y0945D01*
X2129Y0986D01*
X2153Y1031D01*
X2167Y1080D01*
X2172Y1134D01*
X2167Y1186D01*
X2154Y1233D01*
X2132Y1275D01*
X2101Y1312D01*
X2064Y1343D01*
X2022Y1364D01*
X1974Y1378D01*
X1923Y1382D01*
X1899Y1381D01*
X1873Y1378D01*
X1844Y1372D01*
X1812Y1365D01*
X1830Y1502D01*
X1837Y1501D01*
X1844Y1500D01*
X1850Y1500D01*
X1855Y1500D01*
X1904Y1503D01*
X1950Y1513D01*
X1993Y1529D01*
X2035Y1552D01*
X2070Y1582D01*
X2094Y1618D01*
X2109Y1662D01*
X2114Y1713D01*
X2111Y1754D01*
X2100Y1791D01*
X2082Y1825D01*
X2056Y1855D01*
X2025Y1880D01*
X1990Y1897D01*
X1950Y1908D01*
X1906Y1911D01*
X1862Y1908D01*
X1823Y1897D01*
X1786Y1879D01*
X1754Y1854D01*
X1726Y1822D01*
X1704Y1783D01*
X1687Y1736D01*
X1676Y1682D01*
X1520Y1710D01*
X1539Y1784D01*
X1567Y1849D01*
X1604Y1906D01*
X1650Y1954D01*
X1704Y1991D01*
X1764Y2018D01*
X1830Y2035D01*
X1903Y2040D01*
X1954Y2037D01*
X2003Y2029D01*
X2050Y2015D01*
X2094Y1995D01*
X2136Y1971D01*
X2172Y1942D01*
X2203Y1910D01*
X2229Y1873D01*
X2249Y1834D01*
X2263Y1794D01*
X2272Y1752D01*
X2275Y1709D01*
X2272Y1669D01*
X2264Y1630D01*
X2250Y1594D01*
X2231Y1559D01*
X2206Y1527D01*
X2176Y1498D01*
X2140Y1473D01*
X2100Y1451D01*
X2153Y1435D01*
X2200Y1411D01*
X2241Y1381D01*
X2275Y1343D01*
X2302Y1300D01*
X2322Y1251D01*
X2334Y1197D01*
X2338Y1138D01*
X2330Y1058D01*
X2307Y0984D01*
X2269Y0916D01*
X2216Y0855D01*
X2151Y0805D01*
X2078Y0768D01*
X1998Y0747D01*
X1909Y0739D01*
X1828Y0746D01*
X1755Y0764D01*
X1689Y0796D01*
X1630Y0839D01*
X1581Y0893D01*
X1544Y0954D01*
X1518Y1022D01*
X1504Y1098D01*
X1504Y1098D01*
X2580Y0762D02*
X2580Y0940D01*
X2758Y0940D01*
X2758Y0762D01*
X2580Y0762D01*
X2580Y0762D01*
X2987Y1098D02*
X3143Y1119D01*
X3159Y1057D01*
X3180Y1005D01*
X3205Y0961D01*
X3235Y0927D01*
X3269Y0902D01*
X3307Y0883D01*
X3348Y0872D01*
X3392Y0869D01*
X3445Y0874D01*
X3494Y0888D01*
X3538Y0912D01*
X3579Y0945D01*
X3612Y0986D01*
X3636Y1031D01*
X3650Y1080D01*
X3655Y1134D01*
X3650Y1186D01*
X3637Y1233D01*
X3615Y1275D01*
X3584Y1312D01*
X3547Y1343D01*
X3504Y1364D01*
X3457Y1378D01*
X3405Y1382D01*
X3382Y1381D01*
X3356Y1378D01*
X3327Y1372D01*
X3295Y1365D01*
X3313Y1502D01*
X3320Y1501D01*
X3327Y1500D01*
X3333Y1500D01*
X3338Y1500D01*
X3386Y1503D01*
X3433Y1513D01*
X3476Y1529D01*
X3517Y1552D01*
X3552Y1582D01*
X3577Y1618D01*
X3592Y1662D01*
X3597Y1713D01*
X3594Y1754D01*
X3583Y1791D01*
X3565Y1825D01*
X3539Y1855D01*
X3508Y1880D01*
X3472Y1897D01*
X3433Y1908D01*
X3389Y1911D01*
X3345Y1908D01*
X3305Y1897D01*
X3269Y1879D01*
X3237Y1854D01*
X3209Y1822D01*
X3187Y1783D01*
X3170Y1736D01*
X3159Y1682D01*
X3003Y1710D01*
X3021Y1784D01*
X3049Y1849D01*
X3087Y1906D01*
X3133Y1954D01*
X3187Y1991D01*
X3247Y2018D01*
X3313Y2035D01*
X3385Y2040D01*
X3436Y2037D01*
X3485Y2029D01*
X3532Y2015D01*
X3577Y1995D01*
X3619Y1971D01*
X3655Y1942D01*
X3686Y1910D01*
X3711Y1873D01*
X3732Y1834D01*
X3746Y1794D01*
X3755Y1752D01*
X3758Y1709D01*
X3755Y1669D01*
X3747Y1630D01*
X3733Y1594D01*
X3714Y1559D01*
X3689Y1527D01*
X3659Y1498D01*
X3623Y1473D01*
X3583Y1451D01*
X3636Y1435D01*
X3683Y1411D01*
X3723Y1381D01*
X3758Y1343D01*
X3785Y1300D01*
X3805Y1251D01*
X3816Y1197D01*
X3820Y1138D01*
X3813Y1058D01*
X3790Y0984D01*
X3752Y0916D01*
X3699Y0855D01*
X3634Y0805D01*
X3561Y0768D01*
X3480Y0747D01*
X3392Y0739D01*
X3311Y0746D01*
X3238Y0764D01*
X3172Y0796D01*
X3113Y0839D01*
X3064Y0893D01*
X3026Y0954D01*
X3001Y1022D01*
X2987Y1098D01*
X2987Y1098D01*
X4768Y0762D02*
X4418Y1684D01*
X4583Y1684D01*
X4781Y1132D01*
X4796Y1087D01*
X4811Y1041D01*
X4826Y0994D01*
X4840Y0946D01*
X4851Y0984D01*
X4865Y1026D01*
X4880Y1072D01*
X4898Y1121D01*
X5103Y1684D01*
X5263Y1684D01*
X4914Y0762D01*
X4768Y0762D01*
X4768Y0762D01*
X5343Y1223D02*
X5352Y1343D01*
X5379Y1446D01*
X5423Y1532D01*
X5486Y1602D01*
X5548Y1647D01*
X5618Y1679D01*
X5693Y1698D01*
X5776Y1705D01*
X5866Y1697D01*
X5948Y1674D01*
X6022Y1635D01*
X6086Y1580D01*
X6139Y1512D01*
X6177Y1432D01*
X6199Y1340D01*
X6207Y1236D01*
X6204Y1152D01*
X6194Y1077D01*
X6177Y1012D01*
X6154Y0956D01*
X6124Y0908D01*
X6088Y0865D01*
X6046Y0829D01*
X5998Y0798D01*
X5946Y0773D01*
X5892Y0755D01*
X5835Y0745D01*
X5776Y0741D01*
X5765Y0742D01*
X5776Y0870D01*
X5831Y0875D01*
X5882Y0892D01*
X5928Y0919D01*
X5969Y0958D01*
X6003Y1008D01*
X6027Y1070D01*
X6042Y1143D01*
X6046Y1228D01*
X6042Y1309D01*
X6027Y1379D01*
X6003Y1438D01*
X5969Y1487D01*
X5927Y1526D01*
X5882Y1553D01*
X5831Y1570D01*
X5776Y1575D01*
X5719Y1570D01*
X5668Y1554D01*
X5622Y1526D01*
X5581Y1488D01*
X5547Y1438D01*
X5523Y1378D01*
X5509Y1306D01*
X5504Y1223D01*
X5504Y1223D01*
X5509Y1140D01*
X5523Y1068D01*
X5547Y1007D01*
X5581Y0958D01*
X5622Y0919D01*
X5668Y0892D01*
X5719Y0875D01*
X5776Y0870D01*
X5765Y0742D01*
X5683Y0749D01*
X5600Y0772D01*
X5527Y0811D01*
X5463Y0865D01*
X5410Y0934D01*
X5373Y1017D01*
X5351Y1113D01*
X5343Y1223D01*
X5343Y1223D01*
X6387Y0762D02*
X6387Y2035D01*
X6543Y2035D01*
X6543Y0762D01*
X6387Y0762D01*
X6387Y0762D01*
X7126Y0902D02*
X7149Y0764D01*
X7117Y0758D01*
X7086Y0753D01*
X7058Y0751D01*
X7031Y0750D01*
X6991Y0752D01*
X6955Y0757D01*
X6925Y0765D01*
X6899Y0777D01*
X6877Y0791D01*
X6859Y0808D01*
X6844Y0827D01*
X6833Y0848D01*
X6825Y0875D01*
X6819Y0916D01*
X6815Y0968D01*
X6814Y1032D01*
X6814Y1562D01*
X6699Y1562D01*
X6699Y1684D01*
X6814Y1684D01*
X6814Y1912D01*
X6969Y2006D01*
X6969Y1684D01*
X7126Y1684D01*
X7126Y1562D01*
X6969Y1562D01*
X6969Y1023D01*
X6970Y0993D01*
X6971Y0968D01*
X6974Y0950D01*
X6977Y0937D01*
X6982Y0928D01*
X6988Y0920D01*
X6996Y0913D01*
X7004Y0907D01*
X7015Y0902D01*
X7027Y0899D01*
X7041Y0896D01*
X7058Y0896D01*
X7072Y0896D01*
X7088Y0897D01*
X7106Y0899D01*
X7126Y0902D01*
X7126Y0902D01*
X7802Y0762D02*
X7802Y2035D01*
X8660Y2035D01*
X8660Y1885D01*
X7970Y1885D01*
X7970Y1490D01*
X8567Y1490D01*
X8567Y1340D01*
X7970Y1340D01*
X7970Y0762D01*
X7802Y0762D01*
X7802Y0762D01*
X9203Y0762D02*
X9203Y1885D01*
X8784Y1885D01*
X8784Y2035D01*
X9792Y2035D01*
X9792Y1885D01*
X9371Y1885D01*
X9371Y0762D01*
X9203Y0762D01*
X9203Y0762D01*
X9965Y0762D02*
X9965Y2035D01*
X10401Y2035D01*
X10401Y1885D01*
X10134Y1885D01*
X10134Y0912D01*
X10134Y0912D01*
X10405Y0912D01*
X10465Y0914D01*
X10518Y0918D01*
X10564Y0925D01*
X10603Y0936D01*
X10637Y0949D01*
X10667Y0964D01*
X10694Y0982D01*
X10717Y1002D01*
X10745Y1034D01*
X10770Y1072D01*
X10792Y1115D01*
X10810Y1163D01*
X10825Y1216D01*
X10835Y1275D01*
X10842Y1339D01*
X10844Y1408D01*
X10840Y1502D01*
X10827Y1584D01*
X10807Y1655D01*
X10778Y1715D01*
X10744Y1764D01*
X10706Y1804D01*
X10664Y1836D01*
X10619Y1858D01*
X10580Y1870D01*
X10531Y1878D01*
X10471Y1883D01*
X10401Y1885D01*
X10401Y2035D01*
X10404Y2035D01*
X10473Y2034D01*
X10534Y2030D01*
X10587Y2024D01*
X10630Y2016D01*
X10683Y2001D01*
X10732Y1981D01*
X10776Y1956D01*
X10817Y1925D01*
X10864Y1880D01*
X10905Y1828D01*
X10939Y1771D01*
X10967Y1708D01*
X10989Y1639D01*
X11005Y1566D01*
X11014Y1488D01*
X11017Y1405D01*
X11015Y1335D01*
X11009Y1269D01*
X10998Y1206D01*
X10984Y1148D01*
X10965Y1095D01*
X10945Y1046D01*
X10922Y1002D01*
X10897Y0963D01*
X10870Y0928D01*
X10841Y0897D01*
X10812Y0871D01*
X10781Y0848D01*
X10748Y0828D01*
X10711Y0811D01*
X10672Y0796D01*
X10629Y0784D01*
X10583Y0774D01*
X10533Y0767D01*
X10480Y0763D01*
X10424Y0762D01*
X9965Y0762D01*
X9965Y0762D01*
X11278Y0762D02*
X11278Y2035D01*
X11446Y2035D01*
X11446Y0762D01*
X11278Y0762D01*
X11278Y0762D01*
X12819Y1100D02*
X12972Y1080D01*
X12955Y1005D01*
X12928Y0938D01*
X12891Y0880D01*
X12844Y0831D01*
X12789Y0792D01*
X12728Y0764D01*
X12661Y0747D01*
X12589Y0741D01*
X12499Y0749D01*
X12418Y0772D01*
X12347Y0811D01*
X12284Y0865D01*
X12234Y0933D01*
X12198Y1015D01*
X12177Y1111D01*
X12169Y1220D01*
X12173Y1292D01*
X12182Y1360D01*
X12197Y1423D01*
X12219Y1481D01*
X12247Y1533D01*
X12281Y1579D01*
X12322Y1617D01*
X12370Y1649D01*
X12421Y1673D01*
X12475Y1691D01*
X12531Y1701D01*
X12590Y1705D01*
X12661Y1700D01*
X12726Y1686D01*
X12784Y1662D01*
X12835Y1629D01*
X12879Y1587D01*
X12914Y1537D01*
X12940Y1479D01*
X12958Y1413D01*
X12806Y1390D01*
X12793Y1433D01*
X12776Y1471D01*
X12754Y1503D01*
X12729Y1529D01*
X12700Y1550D01*
X12668Y1565D01*
X12633Y1573D01*
X12596Y1576D01*
X12539Y1571D01*
X12489Y1555D01*
X12443Y1529D01*
X12404Y1492D01*
X12372Y1443D01*
X12348Y1382D01*
X12335Y1309D01*
X12330Y1224D01*
X12334Y1137D01*
X12348Y1063D01*
X12370Y1002D01*
X12401Y0954D01*
X12440Y0917D01*
X12483Y0891D01*
X12532Y0875D01*
X12587Y0870D01*
X12631Y0873D01*
X12671Y0884D01*
X12708Y0901D01*
X12741Y0926D01*
X12769Y0958D01*
X12791Y0998D01*
X12808Y1045D01*
X12819Y1100D01*
X12819Y1100D01*
X13708Y0876D02*
X13665Y0842D01*
X13659Y0837D01*
X13599Y0925D01*
X13627Y0950D01*
X13651Y0979D01*
X13670Y1011D01*
X13681Y1041D01*
X13689Y1077D01*
X13693Y1119D01*
X13695Y1167D01*
X13695Y1225D01*
X13695Y1225D01*
X13647Y1208D01*
X13588Y1193D01*
X13519Y1179D01*
X13440Y1166D01*
X13395Y1159D01*
X13357Y1151D01*
X13327Y1143D01*
X13303Y1134D01*
X13284Y1125D01*
X13268Y1113D01*
X13254Y1099D01*
X13242Y1084D01*
X13232Y1066D01*
X13225Y1048D01*
X13221Y1029D01*
X13220Y1009D01*
X13223Y0979D01*
X13232Y0952D01*
X13247Y0927D01*
X13267Y0905D01*
X13294Y0887D01*
X13326Y0874D01*
X13363Y0866D01*
X13406Y0864D01*
X13450Y0866D01*
X13491Y0873D01*
X13530Y0886D01*
X13566Y0903D01*
X13599Y0925D01*
X13659Y0837D01*
X13623Y0813D01*
X13581Y0789D01*
X13541Y0772D01*
X13500Y0758D01*
X13457Y0749D01*
X13414Y0743D01*
X13368Y0741D01*
X13297Y0746D01*
X13234Y0760D01*
X13180Y0783D01*
X13135Y0815D01*
X13099Y0855D01*
X13074Y0900D01*
X13058Y0950D01*
X13053Y1005D01*
X13055Y1038D01*
X13061Y1070D01*
X13071Y1100D01*
X13084Y1129D01*
X13101Y1155D01*
X13120Y1179D01*
X13141Y1200D01*
X13165Y1219D01*
X13191Y1235D01*
X13218Y1248D01*
X13247Y1260D01*
X13277Y1270D01*
X13303Y1276D01*
X13335Y1282D01*
X13373Y1288D01*
X13416Y1293D01*
X13505Y1305D01*
X13580Y1318D01*
X13644Y1332D01*
X13695Y1347D01*
X13695Y1362D01*
X13695Y1373D01*
X13696Y1382D01*
X13696Y1388D01*
X13693Y1432D01*
X13685Y1469D01*
X13671Y1499D01*
X13651Y1523D01*
X13618Y1546D01*
X13577Y1562D01*
X13529Y1572D01*
X13473Y1575D01*
X13422Y1573D01*
X13378Y1566D01*
X13341Y1554D01*
X13311Y1537D01*
X13286Y1514D01*
X13265Y1483D01*
X13247Y1445D01*
X13233Y1400D01*
X13080Y1421D01*
X13092Y1468D01*
X13108Y1510D01*
X13127Y1547D01*
X13149Y1579D01*
X13175Y1608D01*
X13207Y1633D01*
X13244Y1654D01*
X13287Y1672D01*
X13334Y1687D01*
X13384Y1697D01*
X13438Y1703D01*
X13496Y1705D01*
X13552Y1703D01*
X13603Y1698D01*
X13648Y1689D01*
X13688Y1677D01*
X13722Y1662D01*
X13752Y1646D01*
X13777Y1627D01*
X13796Y1607D01*
X13812Y1585D01*
X13826Y1560D01*
X13837Y1532D01*
X13845Y1501D01*
X13848Y1477D01*
X13851Y1445D01*
X13852Y1405D01*
X13853Y1357D01*
X13853Y1148D01*
X13853Y1049D01*
X13855Y0970D01*
X13858Y0912D01*
X13863Y0873D01*
X13869Y0844D01*
X13878Y0816D01*
X13889Y0789D01*
X13902Y0762D01*
X13739Y0762D01*
X13728Y0787D01*
X13719Y0815D01*
X13712Y0844D01*
X13708Y0876D01*
X13708Y0876D01*
X14239Y0762D02*
X14094Y0762D01*
X14094Y2035D01*
X14250Y2035D01*
X14250Y1581D01*
X14303Y1635D01*
X14363Y1674D01*
X14430Y1697D01*
X14503Y1705D01*
X14545Y1703D01*
X14586Y1696D01*
X14626Y1686D01*
X14664Y1671D01*
X14700Y1652D01*
X14733Y1629D01*
X14763Y1603D01*
X14789Y1574D01*
X14812Y1542D01*
X14833Y1506D01*
X14851Y1467D01*
X14866Y1424D01*
X14878Y1380D01*
X14887Y1334D01*
X14892Y1286D01*
X14894Y1237D01*
X14886Y1125D01*
X14864Y1027D01*
X14828Y0942D01*
X14777Y0871D01*
X14715Y0814D01*
X14648Y0774D01*
X14574Y0749D01*
X14495Y0741D01*
X14418Y0750D01*
X14350Y0775D01*
X14290Y0818D01*
X14245Y0871D01*
X14323Y0938D01*
X14369Y0900D01*
X14423Y0877D01*
X14482Y0870D01*
X14532Y0875D01*
X14578Y0892D01*
X14620Y0920D01*
X14659Y0959D01*
X14692Y1009D01*
X14715Y1069D01*
X14729Y1141D01*
X14734Y1224D01*
X14730Y1308D01*
X14716Y1381D01*
X14694Y1442D01*
X14662Y1490D01*
X14625Y1528D01*
X14583Y1555D01*
X14538Y1571D01*
X14489Y1576D01*
X14440Y1571D01*
X14394Y1554D01*
X14351Y1526D01*
X14312Y1487D01*
X14279Y1438D01*
X14256Y1379D01*
X14242Y1309D01*
X14237Y1230D01*
X14237Y1230D01*
X14240Y1153D01*
X14249Y1087D01*
X14263Y1033D01*
X14283Y0990D01*
X14323Y0938D01*
X14245Y0871D01*
X14239Y0877D01*
X14239Y0762D01*
X14239Y0762D01*
X15080Y0762D02*
X15080Y2035D01*
X15237Y2035D01*
X15237Y0762D01*
X15080Y0762D01*
X15080Y0762D01*
X16110Y1059D02*
X16272Y1039D01*
X16248Y0972D01*
X16217Y0913D01*
X16178Y0862D01*
X16130Y0819D01*
X16075Y0785D01*
X16012Y0761D01*
X15943Y0746D01*
X15866Y0741D01*
X15770Y0749D01*
X15685Y0772D01*
X15610Y0811D01*
X15545Y0866D01*
X15493Y0934D01*
X15456Y1015D01*
X15434Y1109D01*
X15427Y1215D01*
X15434Y1325D01*
X15457Y1422D01*
X15494Y1506D01*
X15547Y1576D01*
X15611Y1633D01*
X15684Y1673D01*
X15766Y1697D01*
X15857Y1705D01*
X15871Y1704D01*
X15859Y1576D01*
X15807Y1572D01*
X15760Y1558D01*
X15717Y1536D01*
X15678Y1504D01*
X15646Y1465D01*
X15621Y1420D01*
X15605Y1369D01*
X15597Y1312D01*
X15597Y1312D01*
X16112Y1312D01*
X16104Y1366D01*
X16092Y1413D01*
X16075Y1453D01*
X16053Y1486D01*
X16013Y1526D01*
X15967Y1554D01*
X15916Y1571D01*
X15859Y1576D01*
X15871Y1704D01*
X15946Y1697D01*
X16025Y1673D01*
X16097Y1634D01*
X16160Y1579D01*
X16211Y1510D01*
X16247Y1427D01*
X16269Y1332D01*
X16277Y1225D01*
X16277Y1217D01*
X16277Y1207D01*
X16276Y1196D01*
X16276Y1183D01*
X15588Y1183D01*
X15597Y1112D01*
X15614Y1049D01*
X15640Y0995D01*
X15674Y0950D01*
X15715Y0915D01*
X15761Y0890D01*
X15812Y0875D01*
X15867Y0870D01*
X15908Y0872D01*
X15947Y0881D01*
X15982Y0895D01*
X16014Y0915D01*
X16042Y0941D01*
X16068Y0973D01*
X16091Y1013D01*
X16110Y1059D01*
X16110Y1059D01*
X14898Y10335D02*
X15625Y10335D01*
X15625Y10062D01*
X15624Y10022D01*
X15620Y9987D01*
X15613Y9956D01*
X15603Y9928D01*
X15591Y9905D01*
X15575Y9883D01*
X15557Y9865D01*
X15535Y9849D01*
X15512Y9837D01*
X15488Y9828D01*
X15464Y9823D01*
X15439Y9821D01*
X15416Y9823D01*
X15394Y9827D01*
X15373Y9835D01*
X15352Y9846D01*
X15332Y9860D01*
X15314Y9878D01*
X15299Y9899D01*
X15285Y9923D01*
X15216Y9951D01*
X15222Y9964D01*
X15227Y9985D01*
X15231Y10009D01*
X15233Y10038D01*
X15234Y10070D01*
X15234Y10239D01*
X14984Y10239D01*
X14984Y10239D01*
X14984Y10058D01*
X14984Y10036D01*
X14985Y10018D01*
X14986Y10003D01*
X14987Y9992D01*
X14991Y9976D01*
X14995Y9962D01*
X15001Y9948D01*
X15007Y9937D01*
X15015Y9926D01*
X15024Y9916D01*
X15035Y9908D01*
X15048Y9900D01*
X15062Y9894D01*
X15076Y9889D01*
X15092Y9886D01*
X15109Y9885D01*
X15129Y9887D01*
X15147Y9891D01*
X15164Y9897D01*
X15180Y9906D01*
X15194Y9918D01*
X15205Y9931D01*
X15215Y9947D01*
X15216Y9951D01*
X15285Y9923D01*
X15343Y9957D01*
X15353Y9945D01*
X15365Y9934D01*
X15378Y9926D01*
X15393Y9920D01*
X15410Y9917D01*
X15428Y9916D01*
X15446Y9917D01*
X15462Y9920D01*
X15477Y9925D01*
X15492Y9933D01*
X15504Y9943D01*
X15515Y9954D01*
X15523Y9967D01*
X15529Y9983D01*
X15534Y10002D01*
X15537Y10026D01*
X15539Y10057D01*
X15540Y10093D01*
X15540Y10239D01*
X15320Y10239D01*
X15320Y10239D01*
X15320Y10081D01*
X15320Y10052D01*
X15322Y10026D01*
X15325Y10006D01*
X15328Y9990D01*
X15335Y9972D01*
X15343Y9957D01*
X15285Y9923D01*
X15274Y9892D01*
X15259Y9864D01*
X15241Y9841D01*
X15219Y9821D01*
X15195Y9806D01*
X15168Y9795D01*
X15140Y9788D01*
X15109Y9786D01*
X15084Y9787D01*
X15060Y9791D01*
X15036Y9798D01*
X15014Y9807D01*
X14993Y9819D01*
X14975Y9831D01*
X14959Y9845D01*
X14946Y9861D01*
X14935Y9878D01*
X14925Y9896D01*
X14917Y9917D01*
X14910Y9940D01*
X14905Y9966D01*
X14901Y9994D01*
X14899Y10024D01*
X14898Y10058D01*
X14898Y10335D01*
X14898Y10335D01*
X14898Y9667D02*
X15625Y9667D01*
X15625Y9577D01*
X14898Y9577D01*
X14898Y9667D01*
X14898Y9667D01*
X14963Y9095D02*
X14944Y9120D01*
X14941Y9123D01*
X14991Y9157D01*
X15006Y9141D01*
X15022Y9128D01*
X15041Y9117D01*
X15058Y9111D01*
X15078Y9106D01*
X15102Y9103D01*
X15130Y9103D01*
X15163Y9103D01*
X15163Y9103D01*
X15153Y9130D01*
X15144Y9163D01*
X15136Y9203D01*
X15129Y9248D01*
X15125Y9274D01*
X15120Y9295D01*
X15116Y9313D01*
X15111Y9326D01*
X15105Y9337D01*
X15099Y9347D01*
X15091Y9355D01*
X15082Y9362D01*
X15072Y9367D01*
X15062Y9371D01*
X15051Y9373D01*
X15040Y9374D01*
X15022Y9372D01*
X15007Y9367D01*
X14993Y9359D01*
X14980Y9347D01*
X14970Y9332D01*
X14962Y9314D01*
X14958Y9292D01*
X14956Y9268D01*
X14958Y9243D01*
X14962Y9219D01*
X14969Y9197D01*
X14979Y9176D01*
X14991Y9157D01*
X14941Y9123D01*
X14927Y9144D01*
X14914Y9167D01*
X14904Y9191D01*
X14896Y9214D01*
X14891Y9238D01*
X14887Y9263D01*
X14886Y9289D01*
X14889Y9330D01*
X14897Y9366D01*
X14910Y9397D01*
X14929Y9423D01*
X14951Y9443D01*
X14977Y9458D01*
X15006Y9466D01*
X15037Y9469D01*
X15056Y9468D01*
X15074Y9465D01*
X15091Y9459D01*
X15108Y9452D01*
X15123Y9442D01*
X15137Y9431D01*
X15149Y9419D01*
X15159Y9405D01*
X15168Y9391D01*
X15176Y9375D01*
X15183Y9359D01*
X15188Y9341D01*
X15192Y9326D01*
X15195Y9308D01*
X15199Y9287D01*
X15202Y9262D01*
X15209Y9211D01*
X15216Y9168D01*
X15224Y9132D01*
X15233Y9103D01*
X15241Y9102D01*
X15248Y9102D01*
X15253Y9102D01*
X15256Y9102D01*
X15281Y9104D01*
X15302Y9108D01*
X15320Y9116D01*
X15333Y9127D01*
X15346Y9147D01*
X15355Y9170D01*
X15361Y9197D01*
X15363Y9229D01*
X15362Y9259D01*
X15358Y9284D01*
X15351Y9305D01*
X15341Y9322D01*
X15328Y9336D01*
X15310Y9348D01*
X15289Y9358D01*
X15263Y9367D01*
X15275Y9454D01*
X15301Y9447D01*
X15325Y9438D01*
X15347Y9427D01*
X15365Y9415D01*
X15382Y9399D01*
X15396Y9381D01*
X15408Y9360D01*
X15418Y9336D01*
X15426Y9309D01*
X15432Y9280D01*
X15436Y9249D01*
X15437Y9216D01*
X15436Y9184D01*
X15433Y9155D01*
X15428Y9129D01*
X15421Y9107D01*
X15413Y9087D01*
X15403Y9070D01*
X15393Y9056D01*
X15381Y9045D01*
X15368Y9035D01*
X15354Y9028D01*
X15338Y9021D01*
X15320Y9017D01*
X15307Y9015D01*
X15288Y9013D01*
X15265Y9013D01*
X15238Y9012D01*
X15119Y9012D01*
X15062Y9012D01*
X15017Y9011D01*
X14984Y9009D01*
X14961Y9007D01*
X14945Y9003D01*
X14929Y8998D01*
X14914Y8992D01*
X14898Y8984D01*
X14898Y9077D01*
X14913Y9084D01*
X14928Y9089D01*
X14945Y9093D01*
X14963Y9095D01*
X14963Y9095D01*
X15091Y8530D02*
X15080Y8442D01*
X15037Y8452D01*
X14999Y8468D01*
X14966Y8489D01*
X14938Y8516D01*
X14915Y8547D01*
X14899Y8582D01*
X14890Y8620D01*
X14886Y8662D01*
X14891Y8713D01*
X14904Y8759D01*
X14926Y8800D01*
X14957Y8835D01*
X14996Y8864D01*
X15043Y8885D01*
X15097Y8897D01*
X15160Y8901D01*
X15201Y8899D01*
X15240Y8894D01*
X15276Y8885D01*
X15309Y8873D01*
X15339Y8857D01*
X15365Y8837D01*
X15387Y8814D01*
X15405Y8787D01*
X15419Y8757D01*
X15429Y8726D01*
X15435Y8694D01*
X15437Y8661D01*
X15434Y8620D01*
X15426Y8583D01*
X15413Y8550D01*
X15394Y8521D01*
X15370Y8496D01*
X15341Y8476D01*
X15308Y8461D01*
X15270Y8451D01*
X15257Y8538D01*
X15282Y8545D01*
X15303Y8555D01*
X15322Y8567D01*
X15337Y8581D01*
X15348Y8598D01*
X15357Y8616D01*
X15362Y8636D01*
X15364Y8658D01*
X15361Y8690D01*
X15351Y8719D01*
X15336Y8745D01*
X15315Y8767D01*
X15287Y8786D01*
X15253Y8799D01*
X15211Y8807D01*
X15162Y8809D01*
X15113Y8807D01*
X15070Y8799D01*
X15036Y8787D01*
X15008Y8769D01*
X14987Y8747D01*
X14972Y8722D01*
X14963Y8694D01*
X14960Y8663D01*
X14962Y8637D01*
X14968Y8614D01*
X14978Y8593D01*
X14992Y8575D01*
X15010Y8559D01*
X15033Y8546D01*
X15060Y8536D01*
X15091Y8530D01*
X15091Y8530D01*
X14898Y8365D02*
X15625Y8365D01*
X15625Y8276D01*
X15211Y8276D01*
X15425Y8065D01*
X15425Y7949D01*
X15230Y8151D01*
X14898Y7929D01*
X14898Y8039D01*
X15168Y8213D01*
X15107Y8276D01*
X14898Y8276D01*
X14898Y8365D01*
X14898Y8365D01*
X9742Y9658D02*
X10469Y9658D01*
X10469Y9336D01*
X10468Y9290D01*
X10464Y9250D01*
X10458Y9216D01*
X10450Y9188D01*
X10438Y9164D01*
X10423Y9142D01*
X10403Y9123D01*
X10380Y9107D01*
X10355Y9094D01*
X10328Y9084D01*
X10300Y9078D01*
X10271Y9077D01*
X10234Y9080D01*
X10200Y9089D01*
X10168Y9105D01*
X10140Y9127D01*
X10116Y9155D01*
X10097Y9190D01*
X10083Y9233D01*
X10078Y9257D01*
X10156Y9272D01*
X10162Y9252D01*
X10170Y9234D01*
X10180Y9219D01*
X10192Y9206D01*
X10206Y9195D01*
X10221Y9187D01*
X10237Y9181D01*
X10254Y9177D01*
X10271Y9176D01*
X10295Y9178D01*
X10318Y9185D01*
X10338Y9197D01*
X10356Y9213D01*
X10370Y9235D01*
X10381Y9262D01*
X10387Y9294D01*
X10389Y9332D01*
X10389Y9562D01*
X10148Y9562D01*
X10148Y9562D01*
X10148Y9355D01*
X10149Y9324D01*
X10152Y9296D01*
X10156Y9272D01*
X10078Y9257D01*
X10073Y9281D01*
X10064Y9263D01*
X10055Y9248D01*
X10046Y9234D01*
X10037Y9223D01*
X10016Y9203D01*
X9993Y9182D01*
X9968Y9163D01*
X9940Y9144D01*
X9742Y9017D01*
X9742Y9138D01*
X9893Y9234D01*
X9924Y9254D01*
X9951Y9273D01*
X9974Y9289D01*
X9994Y9304D01*
X10010Y9317D01*
X10023Y9330D01*
X10034Y9341D01*
X10042Y9353D01*
X10049Y9363D01*
X10054Y9374D01*
X10058Y9385D01*
X10061Y9397D01*
X10063Y9406D01*
X10064Y9418D01*
X10065Y9433D01*
X10065Y9450D01*
X10065Y9562D01*
X9742Y9562D01*
X9742Y9658D01*
X9742Y9658D01*
X9912Y8576D02*
X9900Y8484D01*
X9862Y8497D01*
X9828Y8515D01*
X9799Y8538D01*
X9775Y8565D01*
X9755Y8597D01*
X9741Y8632D01*
X9733Y8672D01*
X9730Y8716D01*
X9735Y8771D01*
X9748Y8820D01*
X9770Y8862D01*
X9801Y8899D01*
X9840Y8929D01*
X9887Y8950D01*
X9940Y8963D01*
X10001Y8967D01*
X10064Y8963D01*
X10119Y8950D01*
X10167Y8928D01*
X10207Y8898D01*
X10239Y8862D01*
X10262Y8820D01*
X10276Y8773D01*
X10281Y8721D01*
X10280Y8713D01*
X10207Y8720D01*
X10205Y8749D01*
X10197Y8776D01*
X10184Y8801D01*
X10166Y8823D01*
X10144Y8842D01*
X10118Y8856D01*
X10089Y8865D01*
X10056Y8870D01*
X10056Y8870D01*
X10056Y8575D01*
X10087Y8580D01*
X10114Y8587D01*
X10137Y8597D01*
X10156Y8609D01*
X10178Y8632D01*
X10194Y8658D01*
X10204Y8687D01*
X10207Y8720D01*
X10280Y8713D01*
X10276Y8670D01*
X10263Y8625D01*
X10240Y8584D01*
X10209Y8548D01*
X10169Y8519D01*
X10122Y8498D01*
X10068Y8485D01*
X10006Y8481D01*
X10002Y8481D01*
X9996Y8481D01*
X9990Y8482D01*
X9983Y8482D01*
X9983Y8875D01*
X9942Y8870D01*
X9906Y8860D01*
X9875Y8845D01*
X9850Y8826D01*
X9829Y8802D01*
X9815Y8776D01*
X9806Y8747D01*
X9804Y8715D01*
X9805Y8692D01*
X9810Y8670D01*
X9818Y8650D01*
X9829Y8632D01*
X9844Y8615D01*
X9863Y8600D01*
X9885Y8588D01*
X9912Y8576D01*
X9912Y8576D01*
X9742Y8030D02*
X9808Y8030D01*
X9850Y8071D01*
X9851Y8070D01*
X9878Y8052D01*
X9912Y8039D01*
X9952Y8031D01*
X9997Y8029D01*
X10048Y8031D01*
X10091Y8039D01*
X10127Y8052D01*
X10156Y8070D01*
X10178Y8093D01*
X10194Y8117D01*
X10204Y8144D01*
X10207Y8173D01*
X10204Y8202D01*
X10195Y8228D01*
X10179Y8251D01*
X10158Y8273D01*
X10130Y8290D01*
X10096Y8303D01*
X10054Y8310D01*
X10005Y8313D01*
X10005Y8313D01*
X9958Y8310D01*
X9917Y8302D01*
X9882Y8289D01*
X9854Y8270D01*
X9832Y8248D01*
X9816Y8223D01*
X9807Y8197D01*
X9804Y8169D01*
X9807Y8141D01*
X9815Y8115D01*
X9830Y8091D01*
X9850Y8071D01*
X9808Y8030D01*
X9774Y8058D01*
X9750Y8092D01*
X9735Y8132D01*
X9730Y8178D01*
X9732Y8208D01*
X9739Y8238D01*
X9750Y8266D01*
X9765Y8293D01*
X9784Y8318D01*
X9806Y8340D01*
X9832Y8359D01*
X9862Y8375D01*
X9894Y8388D01*
X9929Y8397D01*
X9966Y8403D01*
X10005Y8404D01*
X10043Y8403D01*
X10080Y8398D01*
X10115Y8390D01*
X10148Y8378D01*
X10178Y8363D01*
X10205Y8345D01*
X10228Y8324D01*
X10247Y8299D01*
X10262Y8272D01*
X10272Y8243D01*
X10279Y8213D01*
X10281Y8182D01*
X10280Y8158D01*
X10276Y8137D01*
X10269Y8116D01*
X10261Y8097D01*
X10250Y8079D01*
X10238Y8063D01*
X10224Y8049D01*
X10208Y8036D01*
X10469Y8036D01*
X10469Y7947D01*
X9742Y7947D01*
X9742Y8030D01*
X9742Y8030D01*
X4662Y10490D02*
X4970Y10490D01*
X5389Y10771D01*
X5389Y10654D01*
X5170Y10510D01*
X5139Y10491D01*
X5108Y10472D01*
X5078Y10454D01*
X5047Y10436D01*
X5076Y10419D01*
X5108Y10400D01*
X5141Y10379D01*
X5175Y10357D01*
X5389Y10216D01*
X5389Y10104D01*
X4970Y10394D01*
X4662Y10394D01*
X4662Y10490D01*
X4662Y10490D01*
X4832Y9762D02*
X4820Y9669D01*
X4782Y9683D01*
X4748Y9700D01*
X4719Y9723D01*
X4695Y9750D01*
X4675Y9782D01*
X4661Y9817D01*
X4653Y9857D01*
X4650Y9901D01*
X4655Y9956D01*
X4668Y10005D01*
X4690Y10047D01*
X4721Y10084D01*
X4760Y10114D01*
X4807Y10135D01*
X4860Y10148D01*
X4921Y10152D01*
X4984Y10148D01*
X5039Y10135D01*
X5087Y10114D01*
X5127Y10084D01*
X5159Y10047D01*
X5182Y10005D01*
X5196Y9958D01*
X5201Y9906D01*
X5200Y9898D01*
X5127Y9905D01*
X5125Y9935D01*
X5117Y9962D01*
X5104Y9986D01*
X5086Y10008D01*
X5064Y10027D01*
X5038Y10041D01*
X5009Y10050D01*
X4976Y10055D01*
X4976Y10055D01*
X4976Y9761D01*
X5007Y9765D01*
X5034Y9772D01*
X5057Y9782D01*
X5076Y9794D01*
X5098Y9817D01*
X5114Y9843D01*
X5124Y9873D01*
X5127Y9905D01*
X5200Y9898D01*
X5196Y9856D01*
X5183Y9810D01*
X5160Y9769D01*
X5129Y9733D01*
X5089Y9704D01*
X5042Y9683D01*
X4988Y9671D01*
X4926Y9666D01*
X4922Y9666D01*
X4916Y9666D01*
X4910Y9667D01*
X4903Y9667D01*
X4903Y10060D01*
X4862Y10055D01*
X4826Y10045D01*
X4795Y10030D01*
X4770Y10011D01*
X4749Y9987D01*
X4735Y9961D01*
X4726Y9932D01*
X4724Y9901D01*
X4725Y9877D01*
X4730Y9855D01*
X4738Y9835D01*
X4749Y9817D01*
X4764Y9800D01*
X4783Y9786D01*
X4805Y9773D01*
X4832Y9762D01*
X4832Y9762D01*
X4662Y9559D02*
X5389Y9559D01*
X5389Y9470D01*
X4662Y9470D01*
X4662Y9559D01*
X4662Y9559D01*
X4662Y9333D02*
X5389Y9333D01*
X5389Y9244D01*
X4662Y9244D01*
X4662Y9333D01*
X4662Y9333D01*
X4925Y9139D02*
X4994Y9134D01*
X5053Y9119D01*
X5102Y9093D01*
X5142Y9058D01*
X5168Y9022D01*
X5186Y8982D01*
X5197Y8939D01*
X5201Y8892D01*
X5196Y8840D01*
X5183Y8793D01*
X5161Y8751D01*
X5130Y8714D01*
X5091Y8684D01*
X5045Y8663D01*
X4992Y8650D01*
X4933Y8645D01*
X4885Y8647D01*
X4842Y8653D01*
X4805Y8663D01*
X4773Y8676D01*
X4745Y8693D01*
X4721Y8713D01*
X4700Y8737D01*
X4682Y8765D01*
X4668Y8795D01*
X4658Y8826D01*
X4652Y8858D01*
X4650Y8892D01*
X4651Y8898D01*
X4724Y8892D01*
X4727Y8860D01*
X4736Y8831D01*
X4752Y8805D01*
X4774Y8781D01*
X4803Y8762D01*
X4838Y8748D01*
X4880Y8740D01*
X4928Y8737D01*
X4974Y8740D01*
X5014Y8748D01*
X5048Y8762D01*
X5076Y8782D01*
X5099Y8805D01*
X5114Y8831D01*
X5124Y8860D01*
X5127Y8892D01*
X5124Y8924D01*
X5114Y8953D01*
X5099Y8980D01*
X5077Y9003D01*
X5048Y9022D01*
X5014Y9036D01*
X4973Y9045D01*
X4925Y9047D01*
X4925Y9047D01*
X4878Y9045D01*
X4837Y9036D01*
X4802Y9022D01*
X4774Y9003D01*
X4752Y8980D01*
X4736Y8953D01*
X4727Y8924D01*
X4724Y8892D01*
X4651Y8898D01*
X4655Y8945D01*
X4668Y8992D01*
X4690Y9034D01*
X4721Y9071D01*
X4760Y9101D01*
X4808Y9122D01*
X4863Y9135D01*
X4925Y9139D01*
X4925Y9139D01*
X4662Y8444D02*
X5189Y8605D01*
X5189Y8512D01*
X4885Y8429D01*
X4772Y8397D01*
X4782Y8395D01*
X4803Y8390D01*
X4836Y8381D01*
X4880Y8370D01*
X5189Y8286D01*
X5189Y8194D01*
X4883Y8116D01*
X4783Y8089D01*
X4884Y8059D01*
X5189Y7969D01*
X5189Y7882D01*
X4662Y8047D01*
X4662Y8139D01*
X4978Y8223D01*
X5067Y8244D01*
X4662Y8350D01*
X4662Y8444D01*
X4662Y8444D01*
X12409Y10679D02*
X13136Y10679D01*
X13136Y10407D01*
X13135Y10367D01*
X13131Y10331D01*
X13124Y10300D01*
X13114Y10273D01*
X13102Y10249D01*
X13086Y10228D01*
X13068Y10210D01*
X13046Y10194D01*
X13023Y10182D01*
X12999Y10173D01*
X12975Y10167D01*
X12950Y10165D01*
X12927Y10167D01*
X12905Y10172D01*
X12883Y10180D01*
X12862Y10191D01*
X12843Y10205D01*
X12825Y10223D01*
X12810Y10243D01*
X12796Y10267D01*
X12727Y10295D01*
X12733Y10309D01*
X12738Y10329D01*
X12742Y10354D01*
X12744Y10382D01*
X12745Y10415D01*
X12745Y10583D01*
X12495Y10583D01*
X12495Y10583D01*
X12495Y10402D01*
X12495Y10381D01*
X12496Y10362D01*
X12497Y10348D01*
X12498Y10337D01*
X12502Y10321D01*
X12506Y10306D01*
X12512Y10293D01*
X12518Y10281D01*
X12526Y10270D01*
X12535Y10261D01*
X12546Y10252D01*
X12559Y10244D01*
X12572Y10238D01*
X12587Y10234D01*
X12603Y10231D01*
X12620Y10230D01*
X12640Y10231D01*
X12658Y10235D01*
X12675Y10242D01*
X12691Y10251D01*
X12704Y10262D01*
X12716Y10276D01*
X12726Y10291D01*
X12727Y10295D01*
X12796Y10267D01*
X12854Y10302D01*
X12864Y10289D01*
X12875Y10279D01*
X12889Y10271D01*
X12904Y10265D01*
X12921Y10261D01*
X12939Y10260D01*
X12956Y10261D01*
X12973Y10265D01*
X12988Y10270D01*
X13003Y10278D01*
X13015Y10287D01*
X13026Y10299D01*
X13034Y10312D01*
X13040Y10327D01*
X13045Y10346D01*
X13048Y10371D01*
X13050Y10402D01*
X13050Y10438D01*
X13050Y10583D01*
X12831Y10583D01*
X12831Y10583D01*
X12831Y10426D01*
X12831Y10396D01*
X12833Y10371D01*
X12835Y10350D01*
X12839Y10334D01*
X12845Y10317D01*
X12854Y10302D01*
X12796Y10267D01*
X12785Y10236D01*
X12770Y10209D01*
X12752Y10185D01*
X12730Y10166D01*
X12706Y10150D01*
X12679Y10139D01*
X12651Y10132D01*
X12620Y10130D01*
X12595Y10132D01*
X12571Y10136D01*
X12547Y10142D01*
X12525Y10152D01*
X12504Y10163D01*
X12486Y10176D01*
X12470Y10190D01*
X12457Y10205D01*
X12446Y10222D01*
X12436Y10241D01*
X12428Y10262D01*
X12421Y10285D01*
X12416Y10310D01*
X12412Y10338D01*
X12410Y10369D01*
X12409Y10402D01*
X12409Y10679D01*
X12409Y10679D01*
X12409Y10010D02*
X12936Y10010D01*
X12936Y9930D01*
X12856Y9930D01*
X12882Y9915D01*
X12902Y9900D01*
X12919Y9886D01*
X12930Y9873D01*
X12938Y9860D01*
X12943Y9846D01*
X12947Y9831D01*
X12948Y9816D01*
X12946Y9793D01*
X12941Y9770D01*
X12932Y9747D01*
X12919Y9724D01*
X12836Y9755D01*
X12845Y9771D01*
X12851Y9787D01*
X12854Y9804D01*
X12855Y9820D01*
X12854Y9834D01*
X12851Y9848D01*
X12846Y9861D01*
X12838Y9873D01*
X12828Y9884D01*
X12817Y9893D01*
X12804Y9900D01*
X12789Y9906D01*
X12765Y9913D01*
X12739Y9917D01*
X12713Y9920D01*
X12685Y9921D01*
X12409Y9921D01*
X12409Y10010D01*
X12409Y10010D01*
X12672Y9704D02*
X12741Y9699D01*
X12800Y9684D01*
X12849Y9658D01*
X12889Y9623D01*
X12915Y9587D01*
X12933Y9547D01*
X12944Y9504D01*
X12948Y9457D01*
X12943Y9405D01*
X12930Y9358D01*
X12908Y9316D01*
X12877Y9279D01*
X12838Y9249D01*
X12792Y9228D01*
X12739Y9215D01*
X12680Y9210D01*
X12632Y9212D01*
X12589Y9218D01*
X12552Y9228D01*
X12520Y9241D01*
X12492Y9258D01*
X12468Y9278D01*
X12447Y9302D01*
X12429Y9330D01*
X12415Y9360D01*
X12405Y9391D01*
X12399Y9423D01*
X12397Y9457D01*
X12398Y9463D01*
X12471Y9457D01*
X12474Y9425D01*
X12483Y9396D01*
X12499Y9370D01*
X12521Y9346D01*
X12550Y9327D01*
X12585Y9313D01*
X12627Y9305D01*
X12675Y9302D01*
X12721Y9305D01*
X12761Y9313D01*
X12795Y9327D01*
X12823Y9347D01*
X12846Y9370D01*
X12861Y9396D01*
X12871Y9425D01*
X12874Y9457D01*
X12871Y9489D01*
X12861Y9518D01*
X12846Y9545D01*
X12824Y9568D01*
X12795Y9587D01*
X12761Y9601D01*
X12720Y9610D01*
X12672Y9612D01*
X12672Y9612D01*
X12625Y9610D01*
X12584Y9601D01*
X12549Y9587D01*
X12521Y9568D01*
X12499Y9545D01*
X12483Y9518D01*
X12474Y9489D01*
X12471Y9457D01*
X12398Y9463D01*
X12402Y9510D01*
X12415Y9557D01*
X12437Y9599D01*
X12468Y9636D01*
X12507Y9666D01*
X12555Y9687D01*
X12610Y9700D01*
X12672Y9704D01*
X12672Y9704D01*
X12409Y9009D02*
X12936Y9170D01*
X12936Y9078D01*
X12632Y8994D01*
X12519Y8962D01*
X12529Y8960D01*
X12550Y8955D01*
X12583Y8946D01*
X12627Y8935D01*
X12936Y8851D01*
X12936Y8760D01*
X12630Y8681D01*
X12530Y8654D01*
X12631Y8624D01*
X12936Y8534D01*
X12936Y8447D01*
X12409Y8612D01*
X12409Y8704D01*
X12725Y8788D01*
X12814Y8809D01*
X12409Y8915D01*
X12409Y9009D01*
X12409Y9009D01*
X12409Y8372D02*
X12936Y8372D01*
X12936Y8292D01*
X12861Y8292D01*
X12899Y8259D01*
X12926Y8221D01*
X12942Y8176D01*
X12948Y8124D01*
X12947Y8101D01*
X12943Y8078D01*
X12938Y8057D01*
X12931Y8036D01*
X12921Y8018D01*
X12911Y8002D01*
X12899Y7988D01*
X12886Y7977D01*
X12871Y7968D01*
X12855Y7960D01*
X12838Y7954D01*
X12820Y7949D01*
X12805Y7947D01*
X12786Y7945D01*
X12762Y7944D01*
X12733Y7944D01*
X12409Y7944D01*
X12409Y8033D01*
X12729Y8033D01*
X12755Y8034D01*
X12777Y8036D01*
X12796Y8039D01*
X12811Y8044D01*
X12824Y8050D01*
X12835Y8058D01*
X12845Y8068D01*
X12854Y8081D01*
X12861Y8094D01*
X12866Y8109D01*
X12869Y8126D01*
X12870Y8143D01*
X12868Y8170D01*
X12861Y8196D01*
X12850Y8220D01*
X12834Y8241D01*
X12812Y8259D01*
X12782Y8272D01*
X12743Y8280D01*
X12697Y8283D01*
X12409Y8283D01*
X12409Y8372D01*
X12409Y8372D01*
X7683Y11214D02*
X7769Y11208D01*
X7845Y11189D01*
X7911Y11159D01*
X7967Y11117D01*
X8012Y11064D01*
X8044Y11005D01*
X8063Y10939D01*
X8069Y10865D01*
X8066Y10816D01*
X8057Y10770D01*
X8042Y10726D01*
X8021Y10684D01*
X7995Y10646D01*
X7963Y10613D01*
X7928Y10584D01*
X7887Y10561D01*
X7842Y10542D01*
X7795Y10529D01*
X7745Y10521D01*
X7692Y10518D01*
X7638Y10521D01*
X7587Y10529D01*
X7539Y10543D01*
X7494Y10563D01*
X7453Y10588D01*
X7417Y10617D01*
X7387Y10651D01*
X7361Y10689D01*
X7342Y10731D01*
X7328Y10774D01*
X7323Y10799D01*
X7404Y10815D01*
X7418Y10767D01*
X7442Y10725D01*
X7475Y10688D01*
X7518Y10657D01*
X7568Y10635D01*
X7626Y10622D01*
X7692Y10617D01*
X7735Y10619D01*
X7775Y10625D01*
X7813Y10634D01*
X7847Y10647D01*
X7878Y10664D01*
X7906Y10684D01*
X7930Y10708D01*
X7950Y10735D01*
X7966Y10765D01*
X7977Y10797D01*
X7984Y10830D01*
X7986Y10865D01*
X7982Y10914D01*
X7969Y10960D01*
X7947Y11002D01*
X7916Y11041D01*
X7875Y11073D01*
X7822Y11096D01*
X7758Y11110D01*
X7682Y11115D01*
X7682Y11115D01*
X7619Y11110D01*
X7564Y11097D01*
X7516Y11075D01*
X7475Y11044D01*
X7442Y11006D01*
X7418Y10964D01*
X7404Y10918D01*
X7399Y10866D01*
X7404Y10815D01*
X7323Y10799D01*
X7319Y10819D01*
X7317Y10866D01*
X7320Y10916D01*
X7329Y10963D01*
X7345Y11008D01*
X7366Y11050D01*
X7393Y11088D01*
X7425Y11121D01*
X7461Y11149D01*
X7502Y11172D01*
X7545Y11190D01*
X7590Y11203D01*
X7636Y11211D01*
X7683Y11214D01*
X7683Y11214D01*
X7329Y10407D02*
X7856Y10407D01*
X7856Y10326D01*
X7776Y10326D01*
X7802Y10311D01*
X7822Y10297D01*
X7839Y10283D01*
X7850Y10269D01*
X7858Y10256D01*
X7863Y10242D01*
X7867Y10227D01*
X7868Y10212D01*
X7866Y10189D01*
X7861Y10167D01*
X7852Y10144D01*
X7839Y10120D01*
X7756Y10151D01*
X7765Y10167D01*
X7771Y10184D01*
X7774Y10200D01*
X7775Y10217D01*
X7774Y10231D01*
X7771Y10244D01*
X7766Y10257D01*
X7758Y10269D01*
X7748Y10280D01*
X7737Y10289D01*
X7724Y10297D01*
X7709Y10302D01*
X7685Y10309D01*
X7659Y10314D01*
X7633Y10316D01*
X7605Y10317D01*
X7329Y10317D01*
X7329Y10407D01*
X7329Y10407D01*
X7394Y9723D02*
X7374Y9748D01*
X7372Y9752D01*
X7422Y9786D01*
X7436Y9769D01*
X7453Y9756D01*
X7471Y9745D01*
X7488Y9739D01*
X7509Y9735D01*
X7533Y9732D01*
X7561Y9731D01*
X7593Y9731D01*
X7593Y9731D01*
X7584Y9758D01*
X7575Y9792D01*
X7567Y9831D01*
X7560Y9877D01*
X7556Y9902D01*
X7551Y9924D01*
X7547Y9941D01*
X7542Y9955D01*
X7536Y9965D01*
X7530Y9975D01*
X7522Y9983D01*
X7513Y9990D01*
X7503Y9995D01*
X7493Y9999D01*
X7482Y10001D01*
X7470Y10002D01*
X7453Y10001D01*
X7438Y9996D01*
X7424Y9987D01*
X7411Y9975D01*
X7400Y9960D01*
X7393Y9942D01*
X7389Y9921D01*
X7387Y9896D01*
X7388Y9871D01*
X7393Y9847D01*
X7400Y9825D01*
X7410Y9804D01*
X7422Y9786D01*
X7372Y9752D01*
X7358Y9772D01*
X7345Y9796D01*
X7334Y9819D01*
X7327Y9842D01*
X7321Y9867D01*
X7318Y9892D01*
X7317Y9917D01*
X7320Y9958D01*
X7328Y9994D01*
X7341Y10025D01*
X7360Y10051D01*
X7382Y10071D01*
X7408Y10086D01*
X7436Y10095D01*
X7468Y10098D01*
X7487Y10096D01*
X7505Y10093D01*
X7522Y10088D01*
X7539Y10080D01*
X7554Y10070D01*
X7567Y10060D01*
X7579Y10047D01*
X7590Y10034D01*
X7599Y10019D01*
X7607Y10003D01*
X7614Y9987D01*
X7619Y9970D01*
X7623Y9955D01*
X7626Y9937D01*
X7629Y9915D01*
X7633Y9890D01*
X7639Y9840D01*
X7647Y9796D01*
X7655Y9760D01*
X7663Y9731D01*
X7672Y9731D01*
X7678Y9731D01*
X7683Y9730D01*
X7687Y9730D01*
X7712Y9732D01*
X7733Y9737D01*
X7750Y9745D01*
X7764Y9756D01*
X7777Y9775D01*
X7786Y9798D01*
X7792Y9826D01*
X7794Y9857D01*
X7792Y9887D01*
X7788Y9912D01*
X7781Y9933D01*
X7772Y9950D01*
X7759Y9964D01*
X7741Y9977D01*
X7720Y9987D01*
X7694Y9995D01*
X7706Y10082D01*
X7732Y10075D01*
X7756Y10066D01*
X7777Y10056D01*
X7796Y10043D01*
X7812Y10028D01*
X7827Y10010D01*
X7839Y9988D01*
X7849Y9964D01*
X7857Y9937D01*
X7863Y9908D01*
X7867Y9877D01*
X7868Y9845D01*
X7867Y9812D01*
X7864Y9783D01*
X7859Y9758D01*
X7852Y9735D01*
X7843Y9715D01*
X7834Y9698D01*
X7823Y9684D01*
X7812Y9673D01*
X7799Y9664D01*
X7785Y9656D01*
X7769Y9650D01*
X7751Y9645D01*
X7737Y9643D01*
X7719Y9642D01*
X7696Y9641D01*
X7669Y9641D01*
X7550Y9641D01*
X7493Y9640D01*
X7448Y9639D01*
X7414Y9637D01*
X7392Y9635D01*
X7376Y9631D01*
X7360Y9626D01*
X7344Y9620D01*
X7329Y9612D01*
X7329Y9706D01*
X7343Y9712D01*
X7359Y9717D01*
X7376Y9721D01*
X7394Y9723D01*
X7394Y9723D01*
X7329Y9502D02*
X7856Y9502D01*
X7856Y9422D01*
X7781Y9422D01*
X7819Y9390D01*
X7846Y9351D01*
X7862Y9306D01*
X7868Y9254D01*
X7867Y9231D01*
X7863Y9208D01*
X7858Y9187D01*
X7851Y9167D01*
X7841Y9148D01*
X7831Y9132D01*
X7819Y9118D01*
X7806Y9107D01*
X7791Y9098D01*
X7775Y9090D01*
X7758Y9084D01*
X7740Y9079D01*
X7725Y9077D01*
X7706Y9075D01*
X7682Y9074D01*
X7653Y9074D01*
X7329Y9074D01*
X7329Y9163D01*
X7649Y9163D01*
X7675Y9164D01*
X7697Y9166D01*
X7716Y9169D01*
X7731Y9174D01*
X7744Y9180D01*
X7755Y9188D01*
X7766Y9198D01*
X7774Y9211D01*
X7781Y9225D01*
X7786Y9240D01*
X7789Y9256D01*
X7790Y9273D01*
X7788Y9301D01*
X7781Y9326D01*
X7770Y9350D01*
X7754Y9371D01*
X7732Y9390D01*
X7702Y9403D01*
X7663Y9410D01*
X7617Y9413D01*
X7329Y9413D01*
X7329Y9502D01*
X7329Y9502D01*
X7285Y8954D02*
X7272Y8867D01*
X7254Y8863D01*
X7238Y8856D01*
X7224Y8848D01*
X7214Y8836D01*
X7203Y8818D01*
X7195Y8797D01*
X7191Y8773D01*
X7189Y8746D01*
X7191Y8716D01*
X7195Y8691D01*
X7203Y8669D01*
X7214Y8650D01*
X7228Y8634D01*
X7244Y8622D01*
X7262Y8612D01*
X7283Y8604D01*
X7301Y8601D01*
X7326Y8599D01*
X7358Y8598D01*
X7398Y8598D01*
X7443Y8640D01*
X7450Y8632D01*
X7477Y8614D01*
X7511Y8601D01*
X7552Y8593D01*
X7599Y8590D01*
X7644Y8593D01*
X7684Y8601D01*
X7717Y8615D01*
X7745Y8633D01*
X7766Y8656D01*
X7782Y8681D01*
X7791Y8708D01*
X7794Y8737D01*
X7791Y8765D01*
X7782Y8792D01*
X7767Y8816D01*
X7745Y8838D01*
X7718Y8856D01*
X7685Y8869D01*
X7647Y8877D01*
X7602Y8880D01*
X7602Y8880D01*
X7554Y8877D01*
X7512Y8869D01*
X7478Y8856D01*
X7451Y8838D01*
X7430Y8817D01*
X7415Y8792D01*
X7406Y8765D01*
X7403Y8735D01*
X7406Y8706D01*
X7415Y8679D01*
X7430Y8654D01*
X7443Y8640D01*
X7398Y8598D01*
X7368Y8629D01*
X7346Y8664D01*
X7333Y8702D01*
X7329Y8744D01*
X7334Y8795D01*
X7349Y8840D01*
X7373Y8879D01*
X7407Y8912D01*
X7449Y8938D01*
X7494Y8956D01*
X7543Y8968D01*
X7595Y8971D01*
X7632Y8970D01*
X7668Y8965D01*
X7702Y8956D01*
X7735Y8944D01*
X7765Y8929D01*
X7791Y8911D01*
X7814Y8889D01*
X7833Y8865D01*
X7848Y8838D01*
X7859Y8809D01*
X7866Y8777D01*
X7868Y8743D01*
X7863Y8699D01*
X7849Y8658D01*
X7825Y8622D01*
X7792Y8589D01*
X7856Y8589D01*
X7856Y8507D01*
X7400Y8507D01*
X7343Y8509D01*
X7295Y8513D01*
X7256Y8521D01*
X7226Y8532D01*
X7202Y8546D01*
X7180Y8564D01*
X7161Y8586D01*
X7145Y8611D01*
X7132Y8640D01*
X7123Y8672D01*
X7117Y8707D01*
X7115Y8745D01*
X7118Y8790D01*
X7126Y8830D01*
X7139Y8866D01*
X7158Y8897D01*
X7181Y8923D01*
X7211Y8940D01*
X7245Y8951D01*
X7285Y8954D01*
X7285Y8954D01*
X7499Y8011D02*
X7487Y7919D01*
X7449Y7932D01*
X7415Y7950D01*
X7386Y7973D01*
X7362Y8000D01*
X7342Y8032D01*
X7328Y8067D01*
X7320Y8107D01*
X7317Y8151D01*
X7322Y8206D01*
X7335Y8254D01*
X7357Y8297D01*
X7388Y8334D01*
X7427Y8364D01*
X7474Y8385D01*
X7527Y8398D01*
X7588Y8402D01*
X7651Y8398D01*
X7706Y8385D01*
X7754Y8363D01*
X7794Y8333D01*
X7826Y8297D01*
X7849Y8255D01*
X7863Y8208D01*
X7868Y8156D01*
X7867Y8148D01*
X7794Y8155D01*
X7792Y8184D01*
X7784Y8211D01*
X7771Y8236D01*
X7753Y8258D01*
X7731Y8277D01*
X7705Y8291D01*
X7676Y8300D01*
X7643Y8305D01*
X7643Y8305D01*
X7643Y8010D01*
X7674Y8015D01*
X7701Y8022D01*
X7724Y8032D01*
X7743Y8044D01*
X7765Y8067D01*
X7781Y8093D01*
X7791Y8122D01*
X7794Y8155D01*
X7867Y8148D01*
X7863Y8105D01*
X7850Y8060D01*
X7827Y8019D01*
X7796Y7983D01*
X7756Y7954D01*
X7709Y7933D01*
X7655Y7920D01*
X7593Y7916D01*
X7589Y7916D01*
X7583Y7916D01*
X7577Y7916D01*
X7570Y7917D01*
X7570Y8310D01*
X7529Y8305D01*
X7493Y8295D01*
X7462Y8280D01*
X7437Y8260D01*
X7416Y8237D01*
X7402Y8211D01*
X7393Y8182D01*
X7391Y8150D01*
X7392Y8127D01*
X7397Y8105D01*
X7405Y8085D01*
X7416Y8066D01*
X7431Y8050D01*
X7450Y8035D01*
X7472Y8022D01*
X7499Y8011D01*
X7499Y8011D01*
G37*
M02*