<?xml version="1.0" encoding="utf-8" ?>
<svg baseProfile="tiny" height="169.235428934" version="1.2" width="275.534638934" xmlns="http://www.w3.org/2000/svg" xmlns:ev="http://www.w3.org/2001/xml-events" xmlns:xlink="http://www.w3.org/1999/xlink"><defs /><g id="paths" stroke="green"><path d="M 4.893306967,164.342121967 L 270.641331967,164.342121967 L 270.641331967,4.893306967 L 4.893306967,4.893306967 L 4.893306967,164.342121967 Z" fill-opacity="0" stroke-linejoin="round" stroke-width="1.0" /></g><g fill="red" id="top_parts" stroke="red"><line stroke-linecap="round" stroke-width="0.5" x1="41.5268" x2="71.0157" y1="107.2063" y2="107.2063" /><line stroke-linecap="round" stroke-width="0.5" x1="71.0157" x2="71.0157" y1="107.2063" y2="115.1787" /><line stroke-linecap="round" stroke-width="0.5" x1="71.0157" x2="41.5268" y1="115.1787" y2="115.1787" /><line stroke-linecap="round" stroke-width="0.5" x1="41.5268" x2="41.5268" y1="115.1787" y2="107.2063" /><text font-family="monospace" font-size="2" stroke-width="0.1" text-anchor="middle" x="56.271258467" y="111.192516967">J9</text><line stroke-linecap="round" stroke-width="0.5" x1="92.9105" x2="123.0286" y1="18.6881" y2="18.6881" /><line stroke-linecap="round" stroke-width="0.5" x1="123.0286" x2="123.0286" y1="18.6881" y2="117.9007" /><line stroke-linecap="round" stroke-width="0.5" x1="123.0286" x2="92.9105" y1="117.9007" y2="117.9007" /><line stroke-linecap="round" stroke-width="0.5" x1="92.9105" x2="92.9105" y1="117.9007" y2="18.6881" /><text font-family="monospace" font-size="2" stroke-width="0.1" text-anchor="middle" x="107.96952492" y="68.2944077794">J3</text><line stroke-linecap="round" stroke-width="0.5" x1="41.5268" x2="71.0157" y1="71.7732" y2="71.7732" /><line stroke-linecap="round" stroke-width="0.5" x1="71.0157" x2="71.0157" y1="71.7732" y2="79.7457" /><line stroke-linecap="round" stroke-width="0.5" x1="71.0157" x2="41.5268" y1="79.7457" y2="79.7457" /><line stroke-linecap="round" stroke-width="0.5" x1="41.5268" x2="41.5268" y1="79.7457" y2="71.7732" /><text font-family="monospace" font-size="2" stroke-width="0.1" text-anchor="middle" x="56.271258467" y="75.759446967">J7</text><text font-family="monospace" font-size="2" stroke-width="0.1" text-anchor="middle" x="235.208261967" y="47.412990967">D1</text><line stroke-linecap="round" stroke-width="0.5" x1="41.5268" x2="71.0157" y1="89.4898" y2="89.4898" /><line stroke-linecap="round" stroke-width="0.5" x1="71.0157" x2="71.0157" y1="89.4898" y2="97.4622" /><line stroke-linecap="round" stroke-width="0.5" x1="71.0157" x2="41.5268" y1="97.4622" y2="97.4622" /><line stroke-linecap="round" stroke-width="0.5" x1="41.5268" x2="41.5268" y1="97.4622" y2="89.4898" /><text font-family="monospace" font-size="2" stroke-width="0.1" text-anchor="middle" x="56.271258467" y="93.475981967">J8</text><text font-family="monospace" font-size="2" stroke-width="0.1" text-anchor="middle" x="235.208261967" y="65.129525967">D2</text><line stroke-linecap="round" stroke-width="0.5" x1="153.1467" x2="183.2648" y1="18.6881" y2="18.6881" /><line stroke-linecap="round" stroke-width="0.5" x1="183.2648" x2="183.2648" y1="18.6881" y2="117.9007" /><line stroke-linecap="round" stroke-width="0.5" x1="183.2648" x2="153.1467" y1="117.9007" y2="117.9007" /><line stroke-linecap="round" stroke-width="0.5" x1="153.1467" x2="153.1467" y1="117.9007" y2="18.6881" /><text font-family="monospace" font-size="2" stroke-width="0.1" text-anchor="middle" x="168.20574392" y="68.2944077794">J4</text><line stroke-linecap="round" stroke-width="0.5" x1="38.9091" x2="73.6335" y1="47.3244" y2="47.3244" /><line stroke-linecap="round" stroke-width="0.5" x1="73.6335" x2="73.6335" y1="47.3244" y2="121.911" /><line stroke-linecap="round" stroke-width="0.5" x1="73.6335" x2="38.9091" y1="121.911" y2="121.911" /><line stroke-linecap="round" stroke-width="0.5" x1="38.9091" x2="38.9091" y1="121.911" y2="47.3244" /><text font-family="monospace" font-size="2" stroke-width="0.1" text-anchor="middle" x="56.271258467" y="84.617714467">J5</text><line stroke-linecap="round" stroke-width="0.5" x1="45.6413" x2="229.8933" y1="125.3657" y2="125.3657" /><line stroke-linecap="round" stroke-width="0.5" x1="229.8933" x2="229.8933" y1="125.3657" y2="160.7988" /><line stroke-linecap="round" stroke-width="0.5" x1="229.8933" x2="45.6413" y1="160.7988" y2="160.7988" /><line stroke-linecap="round" stroke-width="0.5" x1="45.6413" x2="45.6413" y1="160.7988" y2="125.3657" /><text font-family="monospace" font-size="2" stroke-width="0.1" text-anchor="middle" x="137.767319467" y="143.082279967">J1</text><line stroke-linecap="round" stroke-width="0.5" x1="131.4957" x2="144.039" y1="97.8803" y2="97.8803" /><line stroke-linecap="round" stroke-width="0.5" x1="144.039" x2="144.039" y1="97.8803" y2="119.4236" /><line stroke-linecap="round" stroke-width="0.5" x1="144.039" x2="131.4957" y1="119.4236" y2="119.4236" /><line stroke-linecap="round" stroke-width="0.5" x1="131.4957" x2="131.4957" y1="119.4236" y2="97.8803" /><text font-family="monospace" font-size="2" stroke-width="0.1" text-anchor="middle" x="137.767319467" y="108.651965848">J2</text><text font-family="monospace" font-size="2" stroke-width="0.1" text-anchor="middle" x="235.208261967" y="82.846060967">D3</text><line stroke-linecap="round" stroke-width="0.5" x1="41.5268" x2="71.0157" y1="54.0567" y2="54.0567" /><line stroke-linecap="round" stroke-width="0.5" x1="71.0157" x2="71.0157" y1="54.0567" y2="62.0291" /><line stroke-linecap="round" stroke-width="0.5" x1="71.0157" x2="41.5268" y1="62.0291" y2="62.0291" /><line stroke-linecap="round" stroke-width="0.5" x1="41.5268" x2="41.5268" y1="62.0291" y2="54.0567" /><text font-family="monospace" font-size="2" stroke-width="0.1" text-anchor="middle" x="56.271258467" y="58.042911967">J6</text></g><g fill="blue" id="bottom_parts" stroke="blue"><line stroke-linecap="round" stroke-width="0.5" x1="202.9275" x2="217.8827" y1="68.4071" y2="68.4071" /><line stroke-linecap="round" stroke-width="0.5" x1="217.8827" x2="217.8827" y1="68.4071" y2="61.852" /><line stroke-linecap="round" stroke-width="0.5" x1="217.8827" x2="202.9275" y1="61.852" y2="61.852" /><line stroke-linecap="round" stroke-width="0.5" x1="202.9275" x2="202.9275" y1="61.852" y2="68.4071" /><text font-family="monospace" font-size="2" stroke-width="0.1" text-anchor="middle" x="210.405112967" y="65.129525967">R2</text><line stroke-linecap="round" stroke-width="0.5" x1="202.9275" x2="217.8827" y1="50.6905" y2="50.6905" /><line stroke-linecap="round" stroke-width="0.5" x1="217.8827" x2="217.8827" y1="50.6905" y2="44.1354" /><line stroke-linecap="round" stroke-width="0.5" x1="217.8827" x2="202.9275" y1="44.1354" y2="44.1354" /><line stroke-linecap="round" stroke-width="0.5" x1="202.9275" x2="202.9275" y1="44.1354" y2="50.6905" /><text font-family="monospace" font-size="2" stroke-width="0.1" text-anchor="middle" x="210.405112967" y="47.412990967">R1</text><line stroke-linecap="round" stroke-width="0.5" x1="202.9275" x2="217.8827" y1="86.1236" y2="86.1236" /><line stroke-linecap="round" stroke-width="0.5" x1="217.8827" x2="217.8827" y1="86.1236" y2="79.5685" /><line stroke-linecap="round" stroke-width="0.5" x1="217.8827" x2="202.9275" y1="79.5685" y2="79.5685" /><line stroke-linecap="round" stroke-width="0.5" x1="202.9275" x2="202.9275" y1="79.5685" y2="86.1236" /><text font-family="monospace" font-size="2" stroke-width="0.1" text-anchor="middle" x="210.405112967" y="82.846060967">R3</text></g></svg>