<?xml version="1.0" encoding="utf-8" ?>
<svg baseProfile="tiny" height="203.0669245" version="1.2" width="370.8661345" xmlns="http://www.w3.org/2000/svg" xmlns:ev="http://www.w3.org/2001/xml-events" xmlns:xlink="http://www.w3.org/1999/xlink"><defs /><g id="paths" stroke="blue"><path d="M 12.4015745,171.8503895 L 278.1495995,171.8503895 L 278.1495995,12.4015745 L 12.4015745,12.4015745 L 12.4015745,171.8503895 Z" fill-opacity="0" stroke-linejoin="round" stroke-width="1.0" /></g><g fill="red" id="holes"><circle cx="207.6378" cy="90.3543" r="0.585" stroke-width="0.0" /><circle cx="54.7795" cy="118.7008" r="2.4803" stroke-width="0.0" /><circle cx="72.7795" cy="118.7008" r="2.4803" stroke-width="0.0" /><circle cx="110.9778" cy="44.3027" r="2.3917" stroke-width="0.0" /><circle cx="110.9778" cy="53.3027" r="2.3917" stroke-width="0.0" /><circle cx="110.9778" cy="62.3027" r="2.3917" stroke-width="0.0" /><circle cx="110.9778" cy="71.3027" r="2.3917" stroke-width="0.0" /><circle cx="110.9778" cy="80.3027" r="2.3917" stroke-width="0.0" /><circle cx="110.9778" cy="89.3027" r="2.3917" stroke-width="0.0" /><circle cx="110.9778" cy="98.3027" r="2.3917" stroke-width="0.0" /><circle cx="110.9778" cy="107.3027" r="2.3917" stroke-width="0.0" /><circle cx="119.9778" cy="44.3027" r="2.3917" stroke-width="0.0" /><circle cx="119.9778" cy="53.3027" r="2.3917" stroke-width="0.0" /><circle cx="119.9778" cy="62.3027" r="2.3917" stroke-width="0.0" /><circle cx="119.9778" cy="71.3027" r="2.3917" stroke-width="0.0" /><circle cx="119.9778" cy="80.3027" r="2.3917" stroke-width="0.0" /><circle cx="119.9778" cy="89.3027" r="2.3917" stroke-width="0.0" /><circle cx="119.9778" cy="98.3027" r="2.3917" stroke-width="0.0" /><circle cx="119.9778" cy="107.3027" r="2.3917" stroke-width="0.0" /><circle cx="54.7795" cy="83.2677" r="2.4803" stroke-width="0.0" /><circle cx="72.7795" cy="83.2677" r="2.4803" stroke-width="0.0" /><circle cx="247.2165" cy="54.9213" r="1.5945" stroke-width="0.0" /><circle cx="238.2165" cy="54.9213" r="1.5945" stroke-width="0.0" /><circle cx="260.4331" cy="30.1181" r="5.6693" stroke-width="0.0" /><circle cx="54.7795" cy="100.9842" r="2.4803" stroke-width="0.0" /><circle cx="72.7795" cy="100.9842" r="2.4803" stroke-width="0.0" /><circle cx="247.2165" cy="72.6378" r="1.5945" stroke-width="0.0" /><circle cx="238.2165" cy="72.6378" r="1.5945" stroke-width="0.0" /><circle cx="171.214" cy="44.3027" r="2.3917" stroke-width="0.0" /><circle cx="171.214" cy="53.3027" r="2.3917" stroke-width="0.0" /><circle cx="171.214" cy="62.3027" r="2.3917" stroke-width="0.0" /><circle cx="171.214" cy="71.3027" r="2.3917" stroke-width="0.0" /><circle cx="171.214" cy="80.3027" r="2.3917" stroke-width="0.0" /><circle cx="171.214" cy="89.3027" r="2.3917" stroke-width="0.0" /><circle cx="171.214" cy="98.3027" r="2.3917" stroke-width="0.0" /><circle cx="171.214" cy="107.3027" r="2.3917" stroke-width="0.0" /><circle cx="180.214" cy="44.3027" r="2.3917" stroke-width="0.0" /><circle cx="180.214" cy="53.3027" r="2.3917" stroke-width="0.0" /><circle cx="180.214" cy="62.3027" r="2.3917" stroke-width="0.0" /><circle cx="180.214" cy="71.3027" r="2.3917" stroke-width="0.0" /><circle cx="180.214" cy="80.3027" r="2.3917" stroke-width="0.0" /><circle cx="180.214" cy="89.3027" r="2.3917" stroke-width="0.0" /><circle cx="180.214" cy="98.3027" r="2.3917" stroke-width="0.0" /><circle cx="180.214" cy="107.3027" r="2.3917" stroke-width="0.0" /><circle cx="63.7795" cy="65.5512" r="2.3031" stroke-width="0.0" /><circle cx="63.7795" cy="83.2677" r="2.3031" stroke-width="0.0" /><circle cx="63.7795" cy="100.9842" r="2.3031" stroke-width="0.0" /><circle cx="63.7795" cy="118.7008" r="2.3031" stroke-width="0.0" /><circle cx="30.1181" cy="30.1181" r="5.6693" stroke-width="0.0" /><circle cx="30.1181" cy="154.1339" r="5.6693" stroke-width="0.0" /><circle cx="63.4252" cy="140.8465" r="2.4803" stroke-width="0.0" /><circle cx="78.3071" cy="140.8465" r="2.4803" stroke-width="0.0" /><circle cx="93.189" cy="140.8465" r="2.4803" stroke-width="0.0" /><circle cx="108.0709" cy="140.8465" r="2.4803" stroke-width="0.0" /><circle cx="122.9528" cy="140.8465" r="2.4803" stroke-width="0.0" /><circle cx="137.8346" cy="140.8465" r="2.4803" stroke-width="0.0" /><circle cx="152.7165" cy="140.8465" r="2.4803" stroke-width="0.0" /><circle cx="167.5984" cy="140.8465" r="2.4803" stroke-width="0.0" /><circle cx="182.4803" cy="140.8465" r="2.4803" stroke-width="0.0" /><circle cx="197.3622" cy="140.8465" r="2.4803" stroke-width="0.0" /><circle cx="212.2441" cy="140.8465" r="2.4803" stroke-width="0.0" /><circle cx="227.126" cy="140.8465" r="2.4803" stroke-width="0.0" /><circle cx="63.4252" cy="160.3346" r="2.4803" stroke-width="0.0" /><circle cx="78.3071" cy="160.3346" r="2.4803" stroke-width="0.0" /><circle cx="93.189" cy="160.3346" r="2.4803" stroke-width="0.0" /><circle cx="108.0709" cy="160.3346" r="2.4803" stroke-width="0.0" /><circle cx="122.9528" cy="160.3346" r="2.4803" stroke-width="0.0" /><circle cx="137.8346" cy="160.3346" r="2.4803" stroke-width="0.0" /><circle cx="152.7165" cy="160.3346" r="2.4803" stroke-width="0.0" /><circle cx="167.5984" cy="160.3346" r="2.4803" stroke-width="0.0" /><circle cx="182.4803" cy="160.3346" r="2.4803" stroke-width="0.0" /><circle cx="197.3622" cy="160.3346" r="2.4803" stroke-width="0.0" /><circle cx="212.2441" cy="160.3346" r="2.4803" stroke-width="0.0" /><circle cx="227.126" cy="160.3346" r="2.4803" stroke-width="0.0" /><circle cx="145.2756" cy="111.6602" r="1.8" stroke-width="0.0" /><circle cx="145.2756" cy="120.6602" r="1.8" stroke-width="0.0" /><circle cx="260.4331" cy="154.1339" r="5.6693" stroke-width="0.0" /><circle cx="247.2165" cy="90.3543" r="1.5945" stroke-width="0.0" /><circle cx="238.2165" cy="90.3543" r="1.5945" stroke-width="0.0" /><circle cx="54.7795" cy="65.5512" r="2.4803" stroke-width="0.0" /><circle cx="72.7795" cy="65.5512" r="2.4803" stroke-width="0.0" /></g><g id="rulers" stroke="black"><line stroke-width="1.0" x1="295.8661" x2="295.8661" y1="154.1339" y2="30.1181" /><text font-family="monospace" font-size="5" stroke-width="0.3" x="300.8661345" y="92.125982">35.0000mm</text><text font-family="monospace" font-size="5" stroke-width="0.3" x="300.8661345" y="98.125982">(Δy=35.0000mm)</text><line stroke-width="1.0" x1="278.1496" x2="12.4016" y1="3.5433" y2="3.5433" /><text font-family="monospace" font-size="5" stroke-width="0.3" x="145.275587" y="-1.456693">75.0000mm</text><text font-family="monospace" font-size="5" stroke-width="0.3" x="145.275587" y="4.543307">(Δx=75.0000mm)</text><line stroke-width="1.0" x1="30.1181" x2="260.4331" y1="189.5669" y2="189.5669" /><text font-family="monospace" font-size="5" stroke-width="0.3" x="145.275587" y="194.5669245">65.0000mm</text><text font-family="monospace" font-size="5" stroke-width="0.3" x="145.275587" y="200.5669245">(Δx=65.0000mm)</text><line stroke-width="1.0" x1="260.4331" x2="278.1496" y1="180.7087" y2="180.7087" /><text font-family="monospace" font-size="5" stroke-width="0.3" x="269.291332" y="185.708657">5.0000mm</text><text font-family="monospace" font-size="5" stroke-width="0.3" x="269.291332" y="191.708657">(Δx=5.0000mm)</text><line stroke-width="1.0" x1="287.0079" x2="287.0079" y1="171.8504" y2="154.1339" /><text font-family="monospace" font-size="5" stroke-width="0.3" x="292.007867" y="162.992122">5.0000mm</text><text font-family="monospace" font-size="5" stroke-width="0.3" x="292.007867" y="168.992122">(Δy=5.0000mm)</text><line stroke-width="1.0" x1="3.5433" x2="3.5433" y1="12.4016" y2="171.8504" /><text font-family="monospace" font-size="5" stroke-width="0.3" x="8.543307" y="92.125982">45.0000mm</text><text font-family="monospace" font-size="5" stroke-width="0.3" x="8.543307" y="98.125982">(Δy=45.0000mm)</text></g></svg>