<?xml version="1.0" encoding="utf-8" ?>
<svg baseProfile="tiny" height="195.558656967" version="1.2" width="354.499599467" xmlns="http://www.w3.org/2000/svg" xmlns:ev="http://www.w3.org/2001/xml-events" xmlns:xlink="http://www.w3.org/1999/xlink"><defs /><g id="paths" stroke="blue"><path d="M 4.893306967,164.342121967 L 270.641331967,164.342121967 L 270.641331967,4.893306967 L 4.893306967,4.893306967 L 4.893306967,164.342121967 Z" fill-opacity="0" stroke-linejoin="round" stroke-width="1.0" /></g><g fill="red" id="holes"><circle cx="199.7468" cy="65.1295" r="0.675" stroke-width="0.0" /><circle cx="199.7468" cy="47.413" r="0.675" stroke-width="0.0" /><circle cx="199.7468" cy="82.8461" r="0.675" stroke-width="0.0" /><circle cx="103.4695" cy="36.7944" r="2.3917" stroke-width="0.0" /><circle cx="103.4695" cy="45.7944" r="2.3917" stroke-width="0.0" /><circle cx="103.4695" cy="54.7944" r="2.3917" stroke-width="0.0" /><circle cx="103.4695" cy="63.7944" r="2.3917" stroke-width="0.0" /><circle cx="103.4695" cy="72.7944" r="2.3917" stroke-width="0.0" /><circle cx="103.4695" cy="81.7944" r="2.3917" stroke-width="0.0" /><circle cx="103.4695" cy="90.7944" r="2.3917" stroke-width="0.0" /><circle cx="103.4695" cy="99.7944" r="2.3917" stroke-width="0.0" /><circle cx="112.4695" cy="36.7944" r="2.3917" stroke-width="0.0" /><circle cx="112.4695" cy="45.7944" r="2.3917" stroke-width="0.0" /><circle cx="112.4695" cy="54.7944" r="2.3917" stroke-width="0.0" /><circle cx="112.4695" cy="63.7944" r="2.3917" stroke-width="0.0" /><circle cx="112.4695" cy="72.7944" r="2.3917" stroke-width="0.0" /><circle cx="112.4695" cy="81.7944" r="2.3917" stroke-width="0.0" /><circle cx="112.4695" cy="90.7944" r="2.3917" stroke-width="0.0" /><circle cx="112.4695" cy="99.7944" r="2.3917" stroke-width="0.0" /><circle cx="56.2713" cy="58.0429" r="2.3031" stroke-width="0.0" /><circle cx="56.2713" cy="75.7594" r="2.3031" stroke-width="0.0" /><circle cx="56.2713" cy="93.476" r="2.3031" stroke-width="0.0" /><circle cx="56.2713" cy="111.1925" r="2.3031" stroke-width="0.0" /><circle cx="252.9248" cy="22.6098" r="5.6693" stroke-width="0.0" /><circle cx="163.7057" cy="36.7944" r="2.3917" stroke-width="0.0" /><circle cx="163.7057" cy="45.7944" r="2.3917" stroke-width="0.0" /><circle cx="163.7057" cy="54.7944" r="2.3917" stroke-width="0.0" /><circle cx="163.7057" cy="63.7944" r="2.3917" stroke-width="0.0" /><circle cx="163.7057" cy="72.7944" r="2.3917" stroke-width="0.0" /><circle cx="163.7057" cy="81.7944" r="2.3917" stroke-width="0.0" /><circle cx="163.7057" cy="90.7944" r="2.3917" stroke-width="0.0" /><circle cx="163.7057" cy="99.7944" r="2.3917" stroke-width="0.0" /><circle cx="172.7057" cy="36.7944" r="2.3917" stroke-width="0.0" /><circle cx="172.7057" cy="45.7944" r="2.3917" stroke-width="0.0" /><circle cx="172.7057" cy="54.7944" r="2.3917" stroke-width="0.0" /><circle cx="172.7057" cy="63.7944" r="2.3917" stroke-width="0.0" /><circle cx="172.7057" cy="72.7944" r="2.3917" stroke-width="0.0" /><circle cx="172.7057" cy="81.7944" r="2.3917" stroke-width="0.0" /><circle cx="172.7057" cy="90.7944" r="2.3917" stroke-width="0.0" /><circle cx="172.7057" cy="99.7944" r="2.3917" stroke-width="0.0" /><circle cx="252.9248" cy="146.6256" r="5.6693" stroke-width="0.0" /><circle cx="47.2713" cy="111.6177" r="2.0728" stroke-width="0.0" /><circle cx="65.2713" cy="111.6177" r="2.0728" stroke-width="0.0" /><circle cx="22.6098" cy="146.6256" r="5.6693" stroke-width="0.0" /><circle cx="47.2713" cy="75.6177" r="2.0728" stroke-width="0.0" /><circle cx="65.2713" cy="75.6177" r="2.0728" stroke-width="0.0" /><circle cx="47.2713" cy="93.6177" r="2.0728" stroke-width="0.0" /><circle cx="65.2713" cy="93.6177" r="2.0728" stroke-width="0.0" /><circle cx="230.7083" cy="47.413" r="1.5945" stroke-width="0.0" /><circle cx="239.7083" cy="47.413" r="1.5945" stroke-width="0.0" /><circle cx="239.7083" cy="65.1295" r="1.5945" stroke-width="0.0" /><circle cx="230.7083" cy="65.1295" r="1.5945" stroke-width="0.0" /><circle cx="239.7083" cy="82.8461" r="1.5945" stroke-width="0.0" /><circle cx="230.7083" cy="82.8461" r="1.5945" stroke-width="0.0" /><circle cx="22.6098" cy="22.6098" r="5.6693" stroke-width="0.0" /><circle cx="47.2713" cy="57.6177" r="2.0728" stroke-width="0.0" /><circle cx="65.2713" cy="57.6177" r="2.0728" stroke-width="0.0" /><circle cx="137.7673" cy="118.1728" r="2.0374" stroke-width="0.0" /><circle cx="137.7673" cy="109.1728" r="2.0374" stroke-width="0.0" /><circle cx="219.6177" cy="152.8264" r="2.4803" stroke-width="0.0" /><circle cx="204.7358" cy="152.8264" r="2.4803" stroke-width="0.0" /><circle cx="189.8539" cy="152.8264" r="2.4803" stroke-width="0.0" /><circle cx="174.972" cy="152.8264" r="2.4803" stroke-width="0.0" /><circle cx="160.0902" cy="152.8264" r="2.4803" stroke-width="0.0" /><circle cx="145.2083" cy="152.8264" r="2.4803" stroke-width="0.0" /><circle cx="130.3264" cy="152.8264" r="2.4803" stroke-width="0.0" /><circle cx="115.4445" cy="152.8264" r="2.4803" stroke-width="0.0" /><circle cx="100.5626" cy="152.8264" r="2.4803" stroke-width="0.0" /><circle cx="85.6807" cy="152.8264" r="2.4803" stroke-width="0.0" /><circle cx="70.7988" cy="152.8264" r="2.4803" stroke-width="0.0" /><circle cx="55.9169" cy="152.8264" r="2.4803" stroke-width="0.0" /><circle cx="219.6177" cy="133.3382" r="2.4803" stroke-width="0.0" /><circle cx="204.7358" cy="133.3382" r="2.4803" stroke-width="0.0" /><circle cx="189.8539" cy="133.3382" r="2.4803" stroke-width="0.0" /><circle cx="174.972" cy="133.3382" r="2.4803" stroke-width="0.0" /><circle cx="160.0902" cy="133.3382" r="2.4803" stroke-width="0.0" /><circle cx="145.2083" cy="133.3382" r="2.4803" stroke-width="0.0" /><circle cx="130.3264" cy="133.3382" r="2.4803" stroke-width="0.0" /><circle cx="115.4445" cy="133.3382" r="2.4803" stroke-width="0.0" /><circle cx="100.5626" cy="133.3382" r="2.4803" stroke-width="0.0" /><circle cx="85.6807" cy="133.3382" r="2.4803" stroke-width="0.0" /><circle cx="70.7988" cy="133.3382" r="2.4803" stroke-width="0.0" /><circle cx="55.9169" cy="133.3382" r="2.4803" stroke-width="0.0" /></g><g id="rulers" stroke="black"><line stroke-width="1.0" x1="22.6098" x2="252.9248" y1="182.0587" y2="182.0587" /><text font-family="monospace" font-size="5" stroke-width="0.3" x="137.767319467" y="187.058656967">65.0000mm</text><text font-family="monospace" font-size="5" stroke-width="0.3" x="137.767319467" y="193.058656967">(Δx=65.0000mm)</text><line stroke-width="1.0" x1="279.4996" x2="279.4996" y1="146.6256" y2="22.6098" /><text font-family="monospace" font-size="5" stroke-width="0.3" x="284.499599467" y="84.617714467">35.0000mm</text><text font-family="monospace" font-size="5" stroke-width="0.3" x="284.499599467" y="90.617714467">(Δy=35.0000mm)</text></g></svg>