%FSLAX33Y33*%
%MOMM*%
%ADD10C,0.15*%
D10*
%LNtop silkscreen_traces*%
%LNtop silkscreen component 5c77d384395e6726*%
G01*
X2921Y0635D02*
X2921Y15875D01*
X5461Y15875*
X5461Y0635*
X2921Y0635*
G36*
X0927Y14535D02*
X0927Y14620D01*
X1235Y14620D01*
X1235Y14351D01*
X1199Y14324D01*
X1163Y14301D01*
X1126Y14282D01*
X1088Y14266D01*
X1050Y14253D01*
X1012Y14244D01*
X0973Y14239D01*
X0934Y14237D01*
X0881Y14240D01*
X0831Y14248D01*
X0784Y14263D01*
X0739Y14283D01*
X0698Y14308D01*
X0662Y14339D01*
X0632Y14375D01*
X0607Y14416D01*
X0587Y14460D01*
X0573Y14507D01*
X0565Y14557D01*
X0562Y14610D01*
X0565Y14662D01*
X0573Y14712D01*
X0587Y14761D01*
X0606Y14808D01*
X0631Y14851D01*
X0661Y14888D01*
X0695Y14919D01*
X0734Y14944D01*
X0777Y14964D01*
X0824Y14978D01*
X0873Y14986D01*
X0926Y14989D01*
X0965Y14987D01*
X1001Y14983D01*
X1036Y14975D01*
X1069Y14964D01*
X1099Y14949D01*
X1126Y14933D01*
X1149Y14914D01*
X1169Y14892D01*
X1186Y14868D01*
X1201Y14840D01*
X1213Y14808D01*
X1224Y14773D01*
X1137Y14749D01*
X1128Y14776D01*
X1119Y14799D01*
X1108Y14819D01*
X1096Y14837D01*
X1083Y14852D01*
X1067Y14865D01*
X1048Y14877D01*
X1027Y14888D01*
X1004Y14896D01*
X0979Y14902D01*
X0954Y14906D01*
X0927Y14907D01*
X0895Y14905D01*
X0865Y14902D01*
X0838Y14895D01*
X0813Y14887D01*
X0790Y14876D01*
X0769Y14863D01*
X0751Y14849D01*
X0735Y14834D01*
X0721Y14817D01*
X0709Y14799D01*
X0698Y14781D01*
X0689Y14762D01*
X0677Y14727D01*
X0668Y14692D01*
X0663Y14654D01*
X0661Y14616D01*
X0663Y14569D01*
X0670Y14526D01*
X0680Y14488D01*
X0695Y14453D01*
X0713Y14422D01*
X0736Y14396D01*
X0762Y14374D01*
X0792Y14356D01*
X0825Y14342D01*
X0858Y14332D01*
X0893Y14326D01*
X0928Y14324D01*
X0959Y14325D01*
X0990Y14330D01*
X1020Y14337D01*
X1050Y14348D01*
X1078Y14360D01*
X1103Y14373D01*
X1123Y14386D01*
X1141Y14399D01*
X1141Y14535D01*
X0927Y14535D01*
X0927Y14535D01*
X1376Y14249D02*
X1376Y14977D01*
X1474Y14977D01*
X1856Y14406D01*
X1856Y14977D01*
X1949Y14977D01*
X1949Y14249D01*
X1850Y14249D01*
X1468Y14821D01*
X1468Y14249D01*
X1376Y14249D01*
X1376Y14249D01*
X2110Y14249D02*
X2110Y14977D01*
X2359Y14977D01*
X2359Y14891D01*
X2207Y14891D01*
X2207Y14335D01*
X2207Y14335D01*
X2362Y14335D01*
X2396Y14336D01*
X2426Y14339D01*
X2452Y14343D01*
X2475Y14349D01*
X2494Y14356D01*
X2512Y14365D01*
X2527Y14375D01*
X2540Y14386D01*
X2556Y14405D01*
X2570Y14426D01*
X2583Y14451D01*
X2593Y14478D01*
X2602Y14509D01*
X2608Y14542D01*
X2611Y14579D01*
X2612Y14618D01*
X2610Y14672D01*
X2603Y14719D01*
X2591Y14760D01*
X2575Y14794D01*
X2555Y14822D01*
X2534Y14845D01*
X2510Y14863D01*
X2484Y14876D01*
X2462Y14882D01*
X2433Y14887D01*
X2399Y14890D01*
X2359Y14891D01*
X2359Y14977D01*
X2361Y14977D01*
X2401Y14976D01*
X2436Y14974D01*
X2466Y14971D01*
X2490Y14966D01*
X2521Y14958D01*
X2548Y14946D01*
X2574Y14932D01*
X2597Y14914D01*
X2624Y14888D01*
X2647Y14859D01*
X2667Y14826D01*
X2683Y14790D01*
X2696Y14751D01*
X2705Y14709D01*
X2710Y14664D01*
X2712Y14617D01*
X2710Y14577D01*
X2707Y14539D01*
X2701Y14503D01*
X2692Y14470D01*
X2682Y14440D01*
X2670Y14412D01*
X2657Y14387D01*
X2643Y14364D01*
X2627Y14344D01*
X2611Y14327D01*
X2594Y14311D01*
X2576Y14298D01*
X2558Y14287D01*
X2537Y14277D01*
X2514Y14269D01*
X2490Y14262D01*
X2463Y14256D01*
X2435Y14252D01*
X2405Y14250D01*
X2373Y14249D01*
X2110Y14249D01*
X2110Y14249D01*
X0794Y9169D02*
X0512Y9897D01*
X0617Y9897D01*
X0806Y9368D01*
X0817Y9337D01*
X0827Y9307D01*
X0836Y9278D01*
X0844Y9249D01*
X0853Y9279D01*
X0862Y9309D01*
X0872Y9339D01*
X0883Y9368D01*
X1079Y9897D01*
X1178Y9897D01*
X0893Y9169D01*
X0794Y9169D01*
X0794Y9169D01*
X1783Y9424D02*
X1879Y9400D01*
X1861Y9344D01*
X1837Y9296D01*
X1807Y9254D01*
X1770Y9219D01*
X1729Y9192D01*
X1683Y9173D01*
X1633Y9161D01*
X1578Y9157D01*
X1522Y9160D01*
X1471Y9169D01*
X1426Y9184D01*
X1387Y9205D01*
X1352Y9231D01*
X1322Y9263D01*
X1296Y9301D01*
X1275Y9344D01*
X1258Y9390D01*
X1246Y9438D01*
X1239Y9487D01*
X1236Y9538D01*
X1239Y9593D01*
X1247Y9645D01*
X1261Y9693D01*
X1280Y9737D01*
X1304Y9776D01*
X1332Y9811D01*
X1365Y9841D01*
X1403Y9865D01*
X1444Y9884D01*
X1487Y9898D01*
X1532Y9906D01*
X1580Y9909D01*
X1632Y9906D01*
X1680Y9895D01*
X1724Y9878D01*
X1763Y9854D01*
X1798Y9823D01*
X1826Y9787D01*
X1849Y9745D01*
X1867Y9697D01*
X1772Y9675D01*
X1758Y9712D01*
X1741Y9744D01*
X1721Y9770D01*
X1699Y9791D01*
X1673Y9806D01*
X1644Y9818D01*
X1613Y9824D01*
X1578Y9827D01*
X1537Y9824D01*
X1501Y9817D01*
X1467Y9804D01*
X1437Y9787D01*
X1411Y9765D01*
X1390Y9739D01*
X1372Y9711D01*
X1358Y9679D01*
X1348Y9645D01*
X1341Y9610D01*
X1337Y9575D01*
X1336Y9539D01*
X1337Y9494D01*
X1342Y9452D01*
X1351Y9413D01*
X1363Y9377D01*
X1378Y9345D01*
X1397Y9317D01*
X1420Y9293D01*
X1447Y9274D01*
X1476Y9259D01*
X1506Y9248D01*
X1538Y9241D01*
X1570Y9239D01*
X1609Y9242D01*
X1645Y9251D01*
X1677Y9266D01*
X1707Y9286D01*
X1733Y9312D01*
X1754Y9344D01*
X1771Y9381D01*
X1783Y9424D01*
X1783Y9424D01*
X2517Y9424D02*
X2613Y9400D01*
X2595Y9344D01*
X2571Y9296D01*
X2540Y9254D01*
X2504Y9219D01*
X2463Y9192D01*
X2417Y9173D01*
X2366Y9161D01*
X2312Y9157D01*
X2256Y9160D01*
X2205Y9169D01*
X2160Y9184D01*
X2121Y9205D01*
X2086Y9231D01*
X2056Y9263D01*
X2030Y9301D01*
X2008Y9344D01*
X1992Y9390D01*
X1980Y9438D01*
X1972Y9487D01*
X1970Y9538D01*
X1973Y9593D01*
X1981Y9645D01*
X1994Y9693D01*
X2013Y9737D01*
X2037Y9776D01*
X2066Y9811D01*
X2099Y9841D01*
X2137Y9865D01*
X2178Y9884D01*
X2221Y9898D01*
X2266Y9906D01*
X2313Y9909D01*
X2366Y9906D01*
X2414Y9895D01*
X2457Y9878D01*
X2497Y9854D01*
X2531Y9823D01*
X2560Y9787D01*
X2583Y9745D01*
X2601Y9697D01*
X2506Y9675D01*
X2492Y9712D01*
X2475Y9744D01*
X2455Y9770D01*
X2432Y9791D01*
X2407Y9806D01*
X2378Y9818D01*
X2346Y9824D01*
X2311Y9827D01*
X2271Y9824D01*
X2234Y9817D01*
X2201Y9804D01*
X2171Y9787D01*
X2145Y9765D01*
X2123Y9739D01*
X2106Y9711D01*
X2092Y9679D01*
X2082Y9645D01*
X2075Y9610D01*
X2071Y9575D01*
X2069Y9539D01*
X2071Y9494D01*
X2076Y9452D01*
X2084Y9413D01*
X2096Y9377D01*
X2112Y9345D01*
X2131Y9317D01*
X2154Y9293D01*
X2180Y9274D01*
X2209Y9259D01*
X2240Y9248D01*
X2271Y9241D01*
X2304Y9239D01*
X2343Y9242D01*
X2379Y9251D01*
X2411Y9266D01*
X2441Y9286D01*
X2467Y9312D01*
X2488Y9344D01*
X2505Y9381D01*
X2517Y9424D01*
X2517Y9424D01*
X1467Y6909D02*
X1467Y7550D01*
X1227Y7550D01*
X1227Y7636D01*
X1804Y7636D01*
X1804Y7550D01*
X1563Y7550D01*
X1563Y6909D01*
X1467Y6909D01*
X1467Y6909D01*
X1829Y6909D02*
X2110Y7288D01*
X1862Y7636D01*
X1977Y7636D01*
X2108Y7450D01*
X2128Y7422D01*
X2144Y7398D01*
X2157Y7378D01*
X2167Y7360D01*
X2180Y7380D01*
X2194Y7401D01*
X2209Y7422D01*
X2225Y7443D01*
X2371Y7636D01*
X2476Y7636D01*
X2220Y7293D01*
X2495Y6909D01*
X2376Y6909D01*
X2193Y7168D01*
X2186Y7180D01*
X2178Y7192D01*
X2170Y7204D01*
X2162Y7217D01*
X2150Y7199D01*
X2141Y7183D01*
X2133Y7171D01*
X2127Y7162D01*
X1944Y6909D01*
X1829Y6909D01*
X1829Y6909D01*
X1467Y4559D02*
X1467Y5201D01*
X1227Y5201D01*
X1227Y5287D01*
X1804Y5287D01*
X1804Y5201D01*
X1563Y5201D01*
X1563Y4559D01*
X1467Y4559D01*
X1467Y4559D01*
X1829Y4559D02*
X2110Y4938D01*
X1862Y5287D01*
X1977Y5287D01*
X2108Y5100D01*
X2128Y5073D01*
X2144Y5049D01*
X2157Y5028D01*
X2167Y5011D01*
X2180Y5031D01*
X2194Y5051D01*
X2209Y5072D01*
X2225Y5094D01*
X2371Y5287D01*
X2476Y5287D01*
X2220Y4944D01*
X2495Y4559D01*
X2376Y4559D01*
X2193Y4819D01*
X2186Y4830D01*
X2178Y4842D01*
X2170Y4854D01*
X2162Y4867D01*
X2150Y4849D01*
X2141Y4834D01*
X2133Y4822D01*
X2127Y4813D01*
X1944Y4559D01*
X1829Y4559D01*
X1829Y4559D01*
G37*
%LNtop silkscreen component f1eb1aa749278748*%
X6477Y0635D02*
X6477Y15875D01*
X9017Y15875*
X9017Y0635*
X6477Y0635*
G36*
X9690Y14535D02*
X9690Y14620D01*
X9998Y14620D01*
X9998Y14351D01*
X9962Y14324D01*
X9926Y14301D01*
X9889Y14282D01*
X9851Y14266D01*
X9813Y14253D01*
X9775Y14244D01*
X9736Y14239D01*
X9697Y14237D01*
X9644Y14240D01*
X9594Y14248D01*
X9547Y14263D01*
X9502Y14283D01*
X9461Y14308D01*
X9425Y14339D01*
X9395Y14375D01*
X9370Y14416D01*
X9350Y14460D01*
X9336Y14507D01*
X9328Y14557D01*
X9325Y14610D01*
X9328Y14662D01*
X9336Y14712D01*
X9350Y14761D01*
X9369Y14808D01*
X9394Y14851D01*
X9424Y14888D01*
X9458Y14919D01*
X9497Y14944D01*
X9540Y14964D01*
X9587Y14978D01*
X9636Y14986D01*
X9689Y14989D01*
X9728Y14987D01*
X9764Y14983D01*
X9799Y14975D01*
X9832Y14964D01*
X9862Y14949D01*
X9889Y14933D01*
X9912Y14914D01*
X9932Y14892D01*
X9949Y14868D01*
X9964Y14840D01*
X9976Y14808D01*
X9987Y14773D01*
X9900Y14749D01*
X9891Y14776D01*
X9882Y14799D01*
X9871Y14819D01*
X9859Y14837D01*
X9846Y14852D01*
X9830Y14865D01*
X9811Y14877D01*
X9790Y14888D01*
X9767Y14896D01*
X9742Y14902D01*
X9717Y14906D01*
X9690Y14907D01*
X9658Y14905D01*
X9628Y14902D01*
X9601Y14895D01*
X9576Y14887D01*
X9553Y14876D01*
X9532Y14863D01*
X9514Y14849D01*
X9498Y14834D01*
X9484Y14817D01*
X9472Y14799D01*
X9461Y14781D01*
X9452Y14762D01*
X9440Y14727D01*
X9431Y14692D01*
X9426Y14654D01*
X9424Y14616D01*
X9426Y14569D01*
X9433Y14526D01*
X9443Y14488D01*
X9458Y14453D01*
X9476Y14422D01*
X9499Y14396D01*
X9525Y14374D01*
X9555Y14356D01*
X9588Y14342D01*
X9621Y14332D01*
X9656Y14326D01*
X9691Y14324D01*
X9722Y14325D01*
X9753Y14330D01*
X9783Y14337D01*
X9813Y14348D01*
X9841Y14360D01*
X9866Y14373D01*
X9886Y14386D01*
X9904Y14399D01*
X9904Y14535D01*
X9690Y14535D01*
X9690Y14535D01*
X10139Y14249D02*
X10139Y14977D01*
X10237Y14977D01*
X10619Y14406D01*
X10619Y14977D01*
X10712Y14977D01*
X10712Y14249D01*
X10613Y14249D01*
X10231Y14821D01*
X10231Y14249D01*
X10139Y14249D01*
X10139Y14249D01*
X10873Y14249D02*
X10873Y14977D01*
X11122Y14977D01*
X11122Y14891D01*
X10970Y14891D01*
X10970Y14335D01*
X10970Y14335D01*
X11125Y14335D01*
X11159Y14336D01*
X11189Y14339D01*
X11215Y14343D01*
X11238Y14349D01*
X11257Y14356D01*
X11275Y14365D01*
X11290Y14375D01*
X11303Y14386D01*
X11319Y14405D01*
X11333Y14426D01*
X11346Y14451D01*
X11356Y14478D01*
X11365Y14509D01*
X11371Y14542D01*
X11374Y14579D01*
X11375Y14618D01*
X11373Y14672D01*
X11366Y14719D01*
X11354Y14760D01*
X11338Y14794D01*
X11318Y14822D01*
X11297Y14845D01*
X11273Y14863D01*
X11247Y14876D01*
X11225Y14882D01*
X11196Y14887D01*
X11162Y14890D01*
X11122Y14891D01*
X11122Y14977D01*
X11124Y14977D01*
X11164Y14976D01*
X11199Y14974D01*
X11229Y14971D01*
X11253Y14966D01*
X11284Y14958D01*
X11311Y14946D01*
X11337Y14932D01*
X11360Y14914D01*
X11387Y14888D01*
X11410Y14859D01*
X11430Y14826D01*
X11446Y14790D01*
X11459Y14751D01*
X11468Y14709D01*
X11473Y14664D01*
X11475Y14617D01*
X11473Y14577D01*
X11470Y14539D01*
X11464Y14503D01*
X11455Y14470D01*
X11445Y14440D01*
X11433Y14412D01*
X11420Y14387D01*
X11406Y14364D01*
X11390Y14344D01*
X11374Y14327D01*
X11357Y14311D01*
X11339Y14298D01*
X11321Y14287D01*
X11300Y14277D01*
X11277Y14269D01*
X11253Y14262D01*
X11226Y14256D01*
X11198Y14252D01*
X11168Y14250D01*
X11136Y14249D01*
X10873Y14249D01*
X10873Y14249D01*
X9583Y9169D02*
X9301Y9897D01*
X9405Y9897D01*
X9594Y9368D01*
X9605Y9337D01*
X9615Y9307D01*
X9624Y9278D01*
X9632Y9249D01*
X9641Y9279D01*
X9650Y9309D01*
X9661Y9339D01*
X9671Y9368D01*
X9868Y9897D01*
X9966Y9897D01*
X9681Y9169D01*
X9583Y9169D01*
X9583Y9169D01*
X10571Y9424D02*
X10668Y9400D01*
X10649Y9344D01*
X10625Y9296D01*
X10595Y9254D01*
X10559Y9219D01*
X10517Y9192D01*
X10471Y9173D01*
X10421Y9161D01*
X10366Y9157D01*
X10310Y9160D01*
X10260Y9169D01*
X10215Y9184D01*
X10175Y9205D01*
X10141Y9231D01*
X10110Y9263D01*
X10085Y9301D01*
X10063Y9344D01*
X10046Y9390D01*
X10034Y9438D01*
X10027Y9487D01*
X10025Y9538D01*
X10027Y9593D01*
X10036Y9645D01*
X10049Y9693D01*
X10068Y9737D01*
X10092Y9776D01*
X10121Y9811D01*
X10154Y9841D01*
X10192Y9865D01*
X10233Y9884D01*
X10276Y9898D01*
X10321Y9906D01*
X10368Y9909D01*
X10420Y9906D01*
X10468Y9895D01*
X10512Y9878D01*
X10552Y9854D01*
X10586Y9823D01*
X10615Y9787D01*
X10638Y9745D01*
X10655Y9697D01*
X10560Y9675D01*
X10546Y9712D01*
X10529Y9744D01*
X10510Y9770D01*
X10487Y9791D01*
X10461Y9806D01*
X10433Y9818D01*
X10401Y9824D01*
X10366Y9827D01*
X10326Y9824D01*
X10289Y9817D01*
X10256Y9804D01*
X10226Y9787D01*
X10200Y9765D01*
X10178Y9739D01*
X10160Y9711D01*
X10147Y9679D01*
X10137Y9645D01*
X10130Y9610D01*
X10125Y9575D01*
X10124Y9539D01*
X10126Y9494D01*
X10131Y9452D01*
X10139Y9413D01*
X10151Y9377D01*
X10166Y9345D01*
X10185Y9317D01*
X10208Y9293D01*
X10235Y9274D01*
X10264Y9259D01*
X10294Y9248D01*
X10326Y9241D01*
X10359Y9239D01*
X10397Y9242D01*
X10433Y9251D01*
X10466Y9266D01*
X10495Y9286D01*
X10521Y9312D01*
X10542Y9344D01*
X10559Y9381D01*
X10571Y9424D01*
X10571Y9424D01*
X11305Y9424D02*
X11401Y9400D01*
X11383Y9344D01*
X11359Y9296D01*
X11329Y9254D01*
X11292Y9219D01*
X11251Y9192D01*
X11205Y9173D01*
X11155Y9161D01*
X11100Y9157D01*
X11044Y9160D01*
X10994Y9169D01*
X10949Y9184D01*
X10909Y9205D01*
X10874Y9231D01*
X10844Y9263D01*
X10818Y9301D01*
X10797Y9344D01*
X10780Y9390D01*
X10768Y9438D01*
X10761Y9487D01*
X10758Y9538D01*
X10761Y9593D01*
X10769Y9645D01*
X10783Y9693D01*
X10802Y9737D01*
X10826Y9776D01*
X10854Y9811D01*
X10888Y9841D01*
X10925Y9865D01*
X10966Y9884D01*
X11009Y9898D01*
X11055Y9906D01*
X11102Y9909D01*
X11154Y9906D01*
X11202Y9895D01*
X11246Y9878D01*
X11285Y9854D01*
X11320Y9823D01*
X11348Y9787D01*
X11371Y9745D01*
X11389Y9697D01*
X11294Y9675D01*
X11280Y9712D01*
X11263Y9744D01*
X11243Y9770D01*
X11221Y9791D01*
X11195Y9806D01*
X11166Y9818D01*
X11135Y9824D01*
X11100Y9827D01*
X11060Y9824D01*
X11023Y9817D01*
X10989Y9804D01*
X10960Y9787D01*
X10934Y9765D01*
X10912Y9739D01*
X10894Y9711D01*
X10880Y9679D01*
X10870Y9645D01*
X10863Y9610D01*
X10859Y9575D01*
X10858Y9539D01*
X10859Y9494D01*
X10864Y9452D01*
X10873Y9413D01*
X10885Y9377D01*
X10900Y9345D01*
X10919Y9317D01*
X10942Y9293D01*
X10969Y9274D01*
X10998Y9259D01*
X11028Y9248D01*
X11060Y9241D01*
X11092Y9239D01*
X11131Y9242D01*
X11167Y9251D01*
X11200Y9266D01*
X11229Y9286D01*
X11255Y9312D01*
X11276Y9344D01*
X11293Y9381D01*
X11305Y9424D01*
X11305Y9424D01*
X9661Y7010D02*
X9661Y7652D01*
X9422Y7652D01*
X9422Y7738D01*
X9998Y7738D01*
X9998Y7652D01*
X9758Y7652D01*
X9758Y7010D01*
X9661Y7010D01*
X9661Y7010D01*
X10023Y7010D02*
X10304Y7389D01*
X10056Y7738D01*
X10171Y7738D01*
X10303Y7551D01*
X10322Y7524D01*
X10338Y7500D01*
X10351Y7479D01*
X10361Y7462D01*
X10374Y7482D01*
X10388Y7502D01*
X10403Y7523D01*
X10419Y7545D01*
X10565Y7738D01*
X10670Y7738D01*
X10414Y7395D01*
X10690Y7010D01*
X10571Y7010D01*
X10388Y7270D01*
X10380Y7281D01*
X10372Y7293D01*
X10364Y7306D01*
X10356Y7318D01*
X10345Y7300D01*
X10335Y7285D01*
X10327Y7273D01*
X10321Y7264D01*
X10139Y7010D01*
X10023Y7010D01*
X10023Y7010D01*
X9611Y4496D02*
X9611Y5137D01*
X9371Y5137D01*
X9371Y5223D01*
X9947Y5223D01*
X9947Y5137D01*
X9707Y5137D01*
X9707Y4496D01*
X9611Y4496D01*
X9611Y4496D01*
X9972Y4496D02*
X10254Y4875D01*
X10005Y5223D01*
X10120Y5223D01*
X10252Y5037D01*
X10271Y5009D01*
X10287Y4985D01*
X10300Y4965D01*
X10311Y4947D01*
X10323Y4967D01*
X10337Y4988D01*
X10352Y5009D01*
X10368Y5030D01*
X10514Y5223D01*
X10619Y5223D01*
X10364Y4880D01*
X10639Y4496D01*
X10520Y4496D01*
X10337Y4755D01*
X10329Y4767D01*
X10321Y4779D01*
X10313Y4791D01*
X10305Y4804D01*
X10294Y4786D01*
X10284Y4770D01*
X10276Y4758D01*
X10270Y4749D01*
X10088Y4496D01*
X9972Y4496D01*
X9972Y4496D01*
G37*
%LNtext*%
G36*
X1158Y3734D02*
X1158Y4461D01*
X1480Y4461D01*
X1526Y4460D01*
X1566Y4456D01*
X1600Y4450D01*
X1628Y4441D01*
X1652Y4430D01*
X1673Y4414D01*
X1692Y4395D01*
X1709Y4372D01*
X1722Y4347D01*
X1732Y4320D01*
X1737Y4292D01*
X1739Y4263D01*
X1736Y4225D01*
X1727Y4191D01*
X1711Y4160D01*
X1689Y4132D01*
X1661Y4108D01*
X1625Y4089D01*
X1583Y4074D01*
X1559Y4070D01*
X1544Y4148D01*
X1564Y4154D01*
X1581Y4162D01*
X1597Y4171D01*
X1610Y4183D01*
X1621Y4197D01*
X1629Y4213D01*
X1635Y4229D01*
X1639Y4245D01*
X1640Y4263D01*
X1638Y4287D01*
X1631Y4310D01*
X1619Y4330D01*
X1602Y4347D01*
X1581Y4362D01*
X1554Y4372D01*
X1522Y4379D01*
X1484Y4381D01*
X1254Y4381D01*
X1254Y4140D01*
X1254Y4140D01*
X1461Y4140D01*
X1492Y4141D01*
X1520Y4144D01*
X1544Y4148D01*
X1559Y4070D01*
X1534Y4065D01*
X1552Y4056D01*
X1568Y4046D01*
X1581Y4037D01*
X1592Y4028D01*
X1613Y4008D01*
X1633Y3985D01*
X1653Y3960D01*
X1672Y3932D01*
X1799Y3734D01*
X1678Y3734D01*
X1581Y3885D01*
X1561Y3916D01*
X1543Y3943D01*
X1526Y3966D01*
X1512Y3985D01*
X1499Y4001D01*
X1486Y4015D01*
X1474Y4026D01*
X1463Y4034D01*
X1452Y4040D01*
X1441Y4046D01*
X1430Y4050D01*
X1419Y4053D01*
X1410Y4055D01*
X1398Y4056D01*
X1383Y4057D01*
X1366Y4057D01*
X1254Y4057D01*
X1254Y3734D01*
X1158Y3734D01*
X1158Y3734D01*
X1816Y3734D02*
X2097Y4113D01*
X1849Y4461D01*
X1964Y4461D01*
X2096Y4275D01*
X2115Y4247D01*
X2131Y4223D01*
X2144Y4203D01*
X2154Y4185D01*
X2167Y4205D01*
X2181Y4226D01*
X2196Y4247D01*
X2212Y4268D01*
X2358Y4461D01*
X2463Y4461D01*
X2207Y4118D01*
X2483Y3734D01*
X2364Y3734D01*
X2181Y3993D01*
X2173Y4005D01*
X2165Y4017D01*
X2157Y4029D01*
X2149Y4042D01*
X2138Y4024D01*
X2128Y4008D01*
X2120Y3996D01*
X2114Y3987D01*
X1932Y3734D01*
X1816Y3734D01*
X1816Y3734D01*
X1158Y6071D02*
X1158Y6798D01*
X1480Y6798D01*
X1526Y6797D01*
X1566Y6793D01*
X1600Y6787D01*
X1628Y6778D01*
X1652Y6767D01*
X1673Y6751D01*
X1692Y6732D01*
X1709Y6709D01*
X1722Y6684D01*
X1732Y6657D01*
X1737Y6629D01*
X1739Y6599D01*
X1736Y6562D01*
X1727Y6528D01*
X1711Y6497D01*
X1689Y6469D01*
X1661Y6445D01*
X1625Y6426D01*
X1583Y6411D01*
X1559Y6406D01*
X1544Y6485D01*
X1564Y6491D01*
X1581Y6498D01*
X1597Y6508D01*
X1610Y6520D01*
X1621Y6534D01*
X1629Y6550D01*
X1635Y6566D01*
X1639Y6582D01*
X1640Y6599D01*
X1638Y6624D01*
X1631Y6646D01*
X1619Y6667D01*
X1602Y6684D01*
X1581Y6699D01*
X1554Y6709D01*
X1522Y6715D01*
X1484Y6718D01*
X1254Y6718D01*
X1254Y6477D01*
X1254Y6477D01*
X1461Y6477D01*
X1492Y6478D01*
X1520Y6480D01*
X1544Y6485D01*
X1559Y6406D01*
X1534Y6401D01*
X1552Y6392D01*
X1568Y6383D01*
X1581Y6374D01*
X1592Y6365D01*
X1613Y6345D01*
X1633Y6322D01*
X1653Y6296D01*
X1672Y6269D01*
X1799Y6071D01*
X1678Y6071D01*
X1581Y6222D01*
X1561Y6253D01*
X1543Y6280D01*
X1526Y6303D01*
X1512Y6322D01*
X1499Y6338D01*
X1486Y6352D01*
X1474Y6362D01*
X1463Y6371D01*
X1452Y6377D01*
X1441Y6383D01*
X1430Y6387D01*
X1419Y6390D01*
X1410Y6392D01*
X1398Y6393D01*
X1383Y6393D01*
X1366Y6394D01*
X1254Y6394D01*
X1254Y6071D01*
X1158Y6071D01*
X1158Y6071D01*
X1816Y6071D02*
X2097Y6450D01*
X1849Y6798D01*
X1964Y6798D01*
X2096Y6611D01*
X2115Y6584D01*
X2131Y6560D01*
X2144Y6539D01*
X2154Y6522D01*
X2167Y6542D01*
X2181Y6563D01*
X2196Y6584D01*
X2212Y6605D01*
X2358Y6798D01*
X2463Y6798D01*
X2207Y6455D01*
X2483Y6071D01*
X2364Y6071D01*
X2181Y6330D01*
X2173Y6341D01*
X2165Y6353D01*
X2157Y6366D01*
X2149Y6379D01*
X2138Y6360D01*
X2128Y6345D01*
X2120Y6333D01*
X2114Y6324D01*
X1932Y6071D01*
X1816Y6071D01*
X1816Y6071D01*
X9427Y3665D02*
X9427Y4393D01*
X9750Y4393D01*
X9795Y4392D01*
X9835Y4388D01*
X9869Y4382D01*
X9897Y4373D01*
X9921Y4361D01*
X9943Y4346D01*
X9962Y4327D01*
X9978Y4304D01*
X9992Y4278D01*
X10001Y4252D01*
X10007Y4224D01*
X10009Y4194D01*
X10005Y4157D01*
X9996Y4123D01*
X9980Y4092D01*
X9958Y4064D01*
X9930Y4040D01*
X9895Y4020D01*
X9853Y4006D01*
X9828Y4001D01*
X9813Y4079D01*
X9833Y4085D01*
X9851Y4093D01*
X9866Y4103D01*
X9879Y4115D01*
X9890Y4129D01*
X9898Y4144D01*
X9905Y4160D01*
X9908Y4177D01*
X9909Y4194D01*
X9907Y4219D01*
X9900Y4241D01*
X9888Y4261D01*
X9872Y4279D01*
X9850Y4294D01*
X9824Y4304D01*
X9791Y4310D01*
X9754Y4312D01*
X9523Y4312D01*
X9523Y4072D01*
X9523Y4072D01*
X9730Y4072D01*
X9761Y4073D01*
X9789Y4075D01*
X9813Y4079D01*
X9828Y4001D01*
X9804Y3996D01*
X9822Y3987D01*
X9837Y3978D01*
X9851Y3969D01*
X9862Y3960D01*
X9883Y3940D01*
X9903Y3917D01*
X9922Y3891D01*
X9942Y3863D01*
X10068Y3665D01*
X9947Y3665D01*
X9851Y3817D01*
X9831Y3848D01*
X9812Y3875D01*
X9796Y3898D01*
X9781Y3917D01*
X9768Y3933D01*
X9756Y3947D01*
X9744Y3957D01*
X9733Y3966D01*
X9722Y3972D01*
X9711Y3977D01*
X9700Y3982D01*
X9689Y3985D01*
X9679Y3986D01*
X9667Y3988D01*
X9652Y3988D01*
X9635Y3988D01*
X9523Y3988D01*
X9523Y3665D01*
X9427Y3665D01*
X9427Y3665D01*
X10085Y3665D02*
X10367Y4044D01*
X10119Y4393D01*
X10233Y4393D01*
X10365Y4206D01*
X10384Y4179D01*
X10401Y4155D01*
X10414Y4134D01*
X10424Y4117D01*
X10437Y4137D01*
X10450Y4157D01*
X10465Y4178D01*
X10481Y4200D01*
X10628Y4393D01*
X10732Y4393D01*
X10477Y4050D01*
X10752Y3665D01*
X10633Y3665D01*
X10450Y3925D01*
X10442Y3936D01*
X10434Y3948D01*
X10426Y3961D01*
X10418Y3974D01*
X10407Y3955D01*
X10398Y3940D01*
X10390Y3928D01*
X10384Y3919D01*
X10201Y3665D01*
X10085Y3665D01*
X10085Y3665D01*
X9452Y6185D02*
X9452Y6912D01*
X9775Y6912D01*
X9821Y6911D01*
X9861Y6907D01*
X9895Y6901D01*
X9923Y6893D01*
X9947Y6881D01*
X9968Y6865D01*
X9987Y6846D01*
X10004Y6823D01*
X10017Y6798D01*
X10026Y6771D01*
X10032Y6743D01*
X10034Y6714D01*
X10031Y6677D01*
X10021Y6642D01*
X10006Y6611D01*
X9984Y6583D01*
X9955Y6559D01*
X9920Y6540D01*
X9878Y6525D01*
X9854Y6521D01*
X9838Y6599D01*
X9859Y6605D01*
X9876Y6613D01*
X9892Y6623D01*
X9905Y6635D01*
X9915Y6648D01*
X9924Y6664D01*
X9930Y6680D01*
X9933Y6696D01*
X9935Y6714D01*
X9932Y6738D01*
X9925Y6761D01*
X9914Y6781D01*
X9897Y6799D01*
X9876Y6813D01*
X9849Y6823D01*
X9817Y6830D01*
X9779Y6832D01*
X9549Y6832D01*
X9549Y6591D01*
X9549Y6591D01*
X9756Y6591D01*
X9787Y6592D01*
X9814Y6595D01*
X9838Y6599D01*
X9854Y6521D01*
X9829Y6516D01*
X9847Y6507D01*
X9863Y6498D01*
X9876Y6489D01*
X9887Y6480D01*
X9908Y6459D01*
X9928Y6436D01*
X9948Y6411D01*
X9967Y6383D01*
X10093Y6185D01*
X9972Y6185D01*
X9876Y6336D01*
X9856Y6367D01*
X9838Y6394D01*
X9821Y6417D01*
X9807Y6436D01*
X9793Y6452D01*
X9781Y6466D01*
X9769Y6477D01*
X9758Y6485D01*
X9747Y6491D01*
X9736Y6497D01*
X9725Y6501D01*
X9714Y6504D01*
X9704Y6506D01*
X9692Y6507D01*
X9678Y6508D01*
X9660Y6508D01*
X9549Y6508D01*
X9549Y6185D01*
X9452Y6185D01*
X9452Y6185D01*
X10111Y6185D02*
X10392Y6564D01*
X10144Y6912D01*
X10259Y6912D01*
X10391Y6726D01*
X10410Y6698D01*
X10426Y6674D01*
X10439Y6654D01*
X10449Y6636D01*
X10462Y6656D01*
X10476Y6677D01*
X10491Y6698D01*
X10507Y6719D01*
X10653Y6912D01*
X10758Y6912D01*
X10502Y6569D01*
X10778Y6185D01*
X10658Y6185D01*
X10475Y6444D01*
X10468Y6456D01*
X10460Y6468D01*
X10452Y6480D01*
X10444Y6493D01*
X10432Y6475D01*
X10423Y6459D01*
X10415Y6447D01*
X10409Y6438D01*
X10226Y6185D01*
X10111Y6185D01*
X10111Y6185D01*
G37*
M02*