%FSLAX33Y33*%
%MOMM*%
%ADD10C,0.0508*%
%ADD11C,0.508*%
%ADD12R,1.65X1.65*%
%ADD13C,1.65*%
D10*
%LNpour fill*%
G01*
X11430Y16002D02*
X11430Y16002D01*
X0508Y16002*
X0508Y0508*
X11430Y0508*
X11430Y16002*
X5016Y13576D02*
X4391Y13576D01*
X4391Y13831*
X3991Y13831*
X3991Y13576*
X3366Y13576*
X3334Y13578*
X3303Y13586*
X3273Y13598*
X3246Y13615*
X3222Y13636*
X3201Y13660*
X3184Y13687*
X3172Y13717*
X3164Y13748*
X3162Y13780*
X3162Y14405*
X3417Y14405*
X3417Y14805*
X3162Y14805*
X3162Y15430*
X3164Y15462*
X3172Y15493*
X3184Y15523*
X3201Y15550*
X3222Y15574*
X3246Y15595*
X3273Y15612*
X3303Y15624*
X3334Y15632*
X3366Y15634*
X3991Y15634*
X3991Y15379*
X4391Y15379*
X4391Y15634*
X5016Y15634*
X5048Y15632*
X5079Y15624*
X5109Y15612*
X5136Y15595*
X5160Y15574*
X5181Y15550*
X5198Y15523*
X5210Y15493*
X5218Y15462*
X5220Y15430*
X5220Y14805*
X4965Y14805*
X4965Y14405*
X5220Y14405*
X5220Y13780*
X5218Y13748*
X5210Y13717*
X5198Y13687*
X5181Y13660*
X5160Y13636*
X5136Y13615*
X5109Y13598*
X5079Y13586*
X5048Y13578*
X5016Y13576*
X8572Y13576D02*
X7947Y13576D01*
X7947Y13831*
X7547Y13831*
X7547Y13576*
X6922Y13576*
X6890Y13578*
X6859Y13586*
X6829Y13598*
X6802Y13615*
X6778Y13636*
X6757Y13660*
X6740Y13687*
X6728Y13717*
X6720Y13748*
X6718Y13780*
X6718Y14405*
X6973Y14405*
X6973Y14805*
X6718Y14805*
X6718Y15430*
X6720Y15462*
X6728Y15493*
X6740Y15523*
X6757Y15550*
X6778Y15574*
X6802Y15595*
X6829Y15612*
X6859Y15624*
X6890Y15632*
X6922Y15634*
X7547Y15634*
X7547Y15379*
X7947Y15379*
X7947Y15634*
X8572Y15634*
X8604Y15632*
X8635Y15624*
X8665Y15612*
X8692Y15595*
X8716Y15574*
X8737Y15550*
X8754Y15523*
X8766Y15493*
X8774Y15462*
X8776Y15430*
X8776Y14805*
X8521Y14805*
X8521Y14405*
X8776Y14405*
X8776Y13780*
X8774Y13748*
X8766Y13717*
X8754Y13687*
X8737Y13660*
X8716Y13636*
X8692Y13615*
X8665Y13598*
X8635Y13586*
X8604Y13578*
X8572Y13576*
X4315Y11043D02*
X4067Y11043D01*
X3826Y11103*
X3606Y11218*
X3421Y11383*
X3280Y11587*
X3192Y11819*
X3162Y12065*
X3192Y12311*
X3280Y12543*
X3421Y12747*
X3606Y12912*
X3826Y13027*
X4067Y13087*
X4315Y13087*
X4556Y13027*
X4776Y12912*
X4961Y12747*
X5102Y12543*
X5190Y12311*
X5220Y12065*
X5190Y11819*
X5102Y11587*
X4961Y11383*
X4776Y11218*
X4556Y11103*
X4315Y11043*
X7871Y11043D02*
X7623Y11043D01*
X7382Y11103*
X7162Y11218*
X6977Y11383*
X6836Y11587*
X6748Y11819*
X6718Y12065*
X6748Y12311*
X6836Y12543*
X6977Y12747*
X7162Y12912*
X7382Y13027*
X7623Y13087*
X7871Y13087*
X8112Y13027*
X8332Y12912*
X8517Y12747*
X8658Y12543*
X8746Y12311*
X8776Y12065*
X8746Y11819*
X8658Y11587*
X8517Y11383*
X8332Y11218*
X8112Y11103*
X7871Y11043*
X4315Y8503D02*
X4067Y8503D01*
X3826Y8563*
X3606Y8678*
X3421Y8843*
X3280Y9047*
X3192Y9279*
X3162Y9525*
X3192Y9771*
X3280Y10003*
X3421Y10207*
X3606Y10372*
X3826Y10487*
X4067Y10547*
X4315Y10547*
X4556Y10487*
X4776Y10372*
X4961Y10207*
X5116Y9983*
X6822Y9983*
X6977Y10207*
X7162Y10372*
X7382Y10487*
X7623Y10547*
X7871Y10547*
X8112Y10487*
X8332Y10372*
X8517Y10207*
X8658Y10003*
X8746Y9771*
X8776Y9525*
X8746Y9279*
X8658Y9047*
X8517Y8843*
X8332Y8678*
X8112Y8563*
X7871Y8503*
X7623Y8503*
X7382Y8563*
X7162Y8678*
X6977Y8843*
X6822Y9067*
X5116Y9067*
X4961Y8843*
X4776Y8678*
X4556Y8563*
X4315Y8503*
X7871Y3423D02*
X7623Y3423D01*
X7382Y3483*
X7162Y3598*
X6977Y3763*
X6836Y3967*
X6748Y4199*
X6718Y4445*
X6748Y4691*
X6777Y4767*
X5076Y6468*
X4961Y6303*
X4776Y6138*
X4556Y6023*
X4315Y5963*
X4067Y5963*
X3826Y6023*
X3606Y6138*
X3421Y6303*
X3280Y6507*
X3192Y6739*
X3162Y6985*
X3192Y7231*
X3280Y7463*
X3421Y7667*
X3606Y7832*
X3826Y7947*
X4067Y8007*
X4315Y8007*
X4556Y7947*
X4776Y7832*
X4961Y7667*
X5116Y7443*
X5207Y7443*
X5296Y7434*
X5382Y7408*
X5462Y7366*
X5531Y7309*
X7423Y5417*
X7623Y5467*
X7871Y5467*
X8112Y5407*
X8332Y5292*
X8517Y5127*
X8658Y4923*
X8746Y4691*
X8776Y4445*
X8746Y4199*
X8658Y3967*
X8517Y3763*
X8332Y3598*
X8112Y3483*
X7871Y3423*
X7871Y5963D02*
X7623Y5963D01*
X7382Y6023*
X7162Y6138*
X6977Y6303*
X6836Y6507*
X6748Y6739*
X6718Y6985*
X6748Y7231*
X6836Y7463*
X6977Y7667*
X7162Y7832*
X7382Y7947*
X7623Y8007*
X7871Y8007*
X8112Y7947*
X8332Y7832*
X8517Y7667*
X8658Y7463*
X8746Y7231*
X8776Y6985*
X8746Y6739*
X8658Y6507*
X8517Y6303*
X8332Y6138*
X8112Y6023*
X7871Y5963*
X4315Y3423D02*
X4067Y3423D01*
X3826Y3483*
X3606Y3598*
X3421Y3763*
X3280Y3967*
X3192Y4199*
X3162Y4445*
X3192Y4691*
X3280Y4923*
X3421Y5127*
X3606Y5292*
X3826Y5407*
X4067Y5467*
X4315Y5467*
X4556Y5407*
X4776Y5292*
X4961Y5127*
X5102Y4923*
X5190Y4691*
X5220Y4445*
X5190Y4199*
X5102Y3967*
X4961Y3763*
X4776Y3598*
X4556Y3483*
X4315Y3423*
X4315Y0883D02*
X4067Y0883D01*
X3826Y0943*
X3606Y1058*
X3421Y1223*
X3280Y1427*
X3192Y1659*
X3162Y1905*
X3192Y2151*
X3280Y2383*
X3421Y2587*
X3606Y2752*
X3826Y2867*
X4067Y2927*
X4315Y2927*
X4556Y2867*
X4776Y2752*
X4961Y2587*
X5102Y2383*
X5190Y2151*
X5220Y1905*
X5190Y1659*
X5102Y1427*
X4961Y1223*
X4776Y1058*
X4556Y0943*
X4315Y0883*
X7871Y0883D02*
X7623Y0883D01*
X7382Y0943*
X7162Y1058*
X6977Y1223*
X6836Y1427*
X6748Y1659*
X6718Y1905*
X6748Y2151*
X6836Y2383*
X6977Y2587*
X7162Y2752*
X7382Y2867*
X7623Y2927*
X7871Y2927*
X8112Y2867*
X8332Y2752*
X8517Y2587*
X8658Y2383*
X8746Y2151*
X8776Y1905*
X8746Y1659*
X8658Y1427*
X8517Y1223*
X8332Y1058*
X8112Y0943*
X7871Y0883*
X0508Y0558D02*
X11430Y0558D01*
X0508Y0607D02*
X11430Y0607D01*
X0508Y0657D02*
X11430Y0657D01*
X0508Y0706D02*
X11430Y0706D01*
X0508Y0756D02*
X11430Y0756D01*
X0508Y0805D02*
X11430Y0805D01*
X0508Y0855D02*
X11430Y0855D01*
X0508Y0904D02*
X3981Y0904D01*
X4401Y0904D02*
X7537Y0904D01*
X7957Y0904D02*
X11430Y0904D01*
X0508Y0954D02*
X3804Y0954D01*
X4578Y0954D02*
X7360Y0954D01*
X8134Y0954D02*
X11430Y0954D01*
X0508Y1003D02*
X3710Y1003D01*
X4672Y1003D02*
X7266Y1003D01*
X8228Y1003D02*
X11430Y1003D01*
X0508Y1053D02*
X3616Y1053D01*
X4766Y1053D02*
X7172Y1053D01*
X8322Y1053D02*
X11430Y1053D01*
X0508Y1102D02*
X3556Y1102D01*
X4826Y1102D02*
X7112Y1102D01*
X8382Y1102D02*
X11430Y1102D01*
X0508Y1152D02*
X3500Y1152D01*
X4882Y1152D02*
X7056Y1152D01*
X8438Y1152D02*
X11430Y1152D01*
X0508Y1201D02*
X3444Y1201D01*
X4938Y1201D02*
X7000Y1201D01*
X8494Y1201D02*
X11430Y1201D01*
X0508Y1251D02*
X3401Y1251D01*
X4981Y1251D02*
X6957Y1251D01*
X8537Y1251D02*
X11430Y1251D01*
X0508Y1300D02*
X3367Y1300D01*
X5015Y1300D02*
X6923Y1300D01*
X8571Y1300D02*
X11430Y1300D01*
X0508Y1350D02*
X3332Y1350D01*
X5050Y1350D02*
X6888Y1350D01*
X8606Y1350D02*
X11430Y1350D01*
X0508Y1400D02*
X3298Y1400D01*
X5084Y1400D02*
X6854Y1400D01*
X8640Y1400D02*
X11430Y1400D01*
X0508Y1449D02*
X3271Y1449D01*
X5111Y1449D02*
X6827Y1449D01*
X8667Y1449D02*
X11430Y1449D01*
X0508Y1499D02*
X3252Y1499D01*
X5130Y1499D02*
X6808Y1499D01*
X8686Y1499D02*
X11430Y1499D01*
X0508Y1548D02*
X3233Y1548D01*
X5149Y1548D02*
X6789Y1548D01*
X8705Y1548D02*
X11430Y1548D01*
X0508Y1598D02*
X3215Y1598D01*
X5167Y1598D02*
X6771Y1598D01*
X8723Y1598D02*
X11430Y1598D01*
X0508Y1647D02*
X3196Y1647D01*
X5186Y1647D02*
X6752Y1647D01*
X8742Y1647D02*
X11430Y1647D01*
X0508Y1697D02*
X3187Y1697D01*
X5195Y1697D02*
X6743Y1697D01*
X8751Y1697D02*
X11430Y1697D01*
X0508Y1746D02*
X3181Y1746D01*
X5201Y1746D02*
X6737Y1746D01*
X8757Y1746D02*
X11430Y1746D01*
X0508Y1796D02*
X3175Y1796D01*
X5207Y1796D02*
X6731Y1796D01*
X8763Y1796D02*
X11430Y1796D01*
X0508Y1845D02*
X3169Y1845D01*
X5213Y1845D02*
X6725Y1845D01*
X8769Y1845D02*
X11430Y1845D01*
X0508Y1895D02*
X3163Y1895D01*
X5219Y1895D02*
X6719Y1895D01*
X8775Y1895D02*
X11430Y1895D01*
X0508Y1944D02*
X3166Y1944D01*
X5216Y1944D02*
X6722Y1944D01*
X8772Y1944D02*
X11430Y1944D01*
X0508Y1994D02*
X3172Y1994D01*
X5210Y1994D02*
X6728Y1994D01*
X8766Y1994D02*
X11430Y1994D01*
X0508Y2043D02*
X3178Y2043D01*
X5204Y2043D02*
X6734Y2043D01*
X8760Y2043D02*
X11430Y2043D01*
X0508Y2093D02*
X3184Y2093D01*
X5198Y2093D02*
X6740Y2093D01*
X8754Y2093D02*
X11430Y2093D01*
X0508Y2142D02*
X3190Y2142D01*
X5192Y2142D02*
X6746Y2142D01*
X8748Y2142D02*
X11430Y2142D01*
X0508Y2192D02*
X3207Y2192D01*
X5175Y2192D02*
X6763Y2192D01*
X8731Y2192D02*
X11430Y2192D01*
X0508Y2242D02*
X3226Y2242D01*
X5156Y2242D02*
X6782Y2242D01*
X8712Y2242D02*
X11430Y2242D01*
X0508Y2291D02*
X3244Y2291D01*
X5138Y2291D02*
X6800Y2291D01*
X8694Y2291D02*
X11430Y2291D01*
X0508Y2341D02*
X3263Y2341D01*
X5119Y2341D02*
X6819Y2341D01*
X8675Y2341D02*
X11430Y2341D01*
X0508Y2390D02*
X3284Y2390D01*
X5098Y2390D02*
X6840Y2390D01*
X8654Y2390D02*
X11430Y2390D01*
X0508Y2440D02*
X3318Y2440D01*
X5064Y2440D02*
X6874Y2440D01*
X8620Y2440D02*
X11430Y2440D01*
X0508Y2489D02*
X3352Y2489D01*
X5030Y2489D02*
X6908Y2489D01*
X8586Y2489D02*
X11430Y2489D01*
X0508Y2539D02*
X3387Y2539D01*
X4995Y2539D02*
X6943Y2539D01*
X8551Y2539D02*
X11430Y2539D01*
X0508Y2588D02*
X3421Y2588D01*
X4961Y2588D02*
X6977Y2588D01*
X8517Y2588D02*
X11430Y2588D01*
X0508Y2638D02*
X3477Y2638D01*
X4905Y2638D02*
X7033Y2638D01*
X8461Y2638D02*
X11430Y2638D01*
X0508Y2687D02*
X3533Y2687D01*
X4849Y2687D02*
X7089Y2687D01*
X8405Y2687D02*
X11430Y2687D01*
X0508Y2737D02*
X3589Y2737D01*
X4793Y2737D02*
X7145Y2737D01*
X8349Y2737D02*
X11430Y2737D01*
X0508Y2786D02*
X3671Y2786D01*
X4711Y2786D02*
X7227Y2786D01*
X8267Y2786D02*
X11430Y2786D01*
X0508Y2836D02*
X3766Y2836D01*
X4616Y2836D02*
X7322Y2836D01*
X8172Y2836D02*
X11430Y2836D01*
X0508Y2885D02*
X3899Y2885D01*
X4483Y2885D02*
X7455Y2885D01*
X8039Y2885D02*
X11430Y2885D01*
X0508Y2935D02*
X11430Y2935D01*
X0508Y2985D02*
X11430Y2985D01*
X0508Y3034D02*
X11430Y3034D01*
X0508Y3084D02*
X11430Y3084D01*
X0508Y3133D02*
X11430Y3133D01*
X0508Y3183D02*
X11430Y3183D01*
X0508Y3232D02*
X11430Y3232D01*
X0508Y3282D02*
X11430Y3282D01*
X0508Y3331D02*
X11430Y3331D01*
X0508Y3381D02*
X11430Y3381D01*
X0508Y3430D02*
X4038Y3430D01*
X4344Y3430D02*
X7594Y3430D01*
X7900Y3430D02*
X11430Y3430D01*
X0508Y3480D02*
X3837Y3480D01*
X4545Y3480D02*
X7393Y3480D01*
X8101Y3480D02*
X11430Y3480D01*
X0508Y3529D02*
X3737Y3529D01*
X4645Y3529D02*
X7293Y3529D01*
X8201Y3529D02*
X11430Y3529D01*
X0508Y3579D02*
X3642Y3579D01*
X4740Y3579D02*
X7198Y3579D01*
X8296Y3579D02*
X11430Y3579D01*
X0508Y3628D02*
X3572Y3628D01*
X4810Y3628D02*
X7128Y3628D01*
X8366Y3628D02*
X11430Y3628D01*
X0508Y3678D02*
X3516Y3678D01*
X4866Y3678D02*
X7072Y3678D01*
X8422Y3678D02*
X11430Y3678D01*
X0508Y3727D02*
X3460Y3727D01*
X4922Y3727D02*
X7016Y3727D01*
X8478Y3727D02*
X11430Y3727D01*
X0508Y3777D02*
X3410Y3777D01*
X4972Y3777D02*
X6966Y3777D01*
X8528Y3777D02*
X11430Y3777D01*
X0508Y3827D02*
X3376Y3827D01*
X5006Y3827D02*
X6932Y3827D01*
X8562Y3827D02*
X11430Y3827D01*
X0508Y3876D02*
X3342Y3876D01*
X5040Y3876D02*
X6898Y3876D01*
X8596Y3876D02*
X11430Y3876D01*
X0508Y3926D02*
X3308Y3926D01*
X5074Y3926D02*
X6864Y3926D01*
X8630Y3926D02*
X11430Y3926D01*
X0508Y3975D02*
X3276Y3975D01*
X5106Y3975D02*
X6832Y3975D01*
X8662Y3975D02*
X11430Y3975D01*
X0508Y4025D02*
X3257Y4025D01*
X5125Y4025D02*
X6813Y4025D01*
X8681Y4025D02*
X11430Y4025D01*
X0508Y4074D02*
X3239Y4074D01*
X5143Y4074D02*
X6795Y4074D01*
X8699Y4074D02*
X11430Y4074D01*
X0508Y4124D02*
X3220Y4124D01*
X5162Y4124D02*
X6776Y4124D01*
X8718Y4124D02*
X11430Y4124D01*
X0508Y4173D02*
X3201Y4173D01*
X5181Y4173D02*
X6757Y4173D01*
X8737Y4173D02*
X11430Y4173D01*
X0508Y4223D02*
X3189Y4223D01*
X5193Y4223D02*
X6745Y4223D01*
X8749Y4223D02*
X11430Y4223D01*
X0508Y4272D02*
X3183Y4272D01*
X5199Y4272D02*
X6739Y4272D01*
X8755Y4272D02*
X11430Y4272D01*
X0508Y4322D02*
X3177Y4322D01*
X5205Y4322D02*
X6733Y4322D01*
X8761Y4322D02*
X11430Y4322D01*
X0508Y4371D02*
X3170Y4371D01*
X5212Y4371D02*
X6726Y4371D01*
X8768Y4371D02*
X11430Y4371D01*
X0508Y4421D02*
X3164Y4421D01*
X5218Y4421D02*
X6720Y4421D01*
X8774Y4421D02*
X11430Y4421D01*
X0508Y4470D02*
X3165Y4470D01*
X5217Y4470D02*
X6721Y4470D01*
X8773Y4470D02*
X11430Y4470D01*
X0508Y4520D02*
X3171Y4520D01*
X5211Y4520D02*
X6727Y4520D01*
X8767Y4520D02*
X11430Y4520D01*
X0508Y4569D02*
X3177Y4569D01*
X5205Y4569D02*
X6733Y4569D01*
X8761Y4569D02*
X11430Y4569D01*
X0508Y4619D02*
X3183Y4619D01*
X5199Y4619D02*
X6739Y4619D01*
X8755Y4619D02*
X11430Y4619D01*
X0508Y4669D02*
X3189Y4669D01*
X5193Y4669D02*
X6745Y4669D01*
X8749Y4669D02*
X11430Y4669D01*
X0508Y4718D02*
X3202Y4718D01*
X5180Y4718D02*
X6758Y4718D01*
X8736Y4718D02*
X11430Y4718D01*
X0508Y4768D02*
X3220Y4768D01*
X5162Y4768D02*
X6776Y4768D01*
X8718Y4768D02*
X11430Y4768D01*
X0508Y4817D02*
X3239Y4817D01*
X5143Y4817D02*
X6727Y4817D01*
X8699Y4817D02*
X11430Y4817D01*
X0508Y4867D02*
X3258Y4867D01*
X5124Y4867D02*
X6677Y4867D01*
X8680Y4867D02*
X11430Y4867D01*
X0508Y4916D02*
X3277Y4916D01*
X5105Y4916D02*
X6627Y4916D01*
X8661Y4916D02*
X11430Y4916D01*
X0508Y4966D02*
X3309Y4966D01*
X5073Y4966D02*
X6578Y4966D01*
X8629Y4966D02*
X11430Y4966D01*
X0508Y5015D02*
X3343Y5015D01*
X5039Y5015D02*
X6528Y5015D01*
X8595Y5015D02*
X11430Y5015D01*
X0508Y5065D02*
X3377Y5065D01*
X5005Y5065D02*
X6479Y5065D01*
X8561Y5065D02*
X11430Y5065D01*
X0508Y5114D02*
X3411Y5114D01*
X4971Y5114D02*
X6429Y5114D01*
X8527Y5114D02*
X11430Y5114D01*
X0508Y5164D02*
X3461Y5164D01*
X4921Y5164D02*
X6380Y5164D01*
X8477Y5164D02*
X11430Y5164D01*
X0508Y5213D02*
X3517Y5213D01*
X4865Y5213D02*
X6330Y5213D01*
X8421Y5213D02*
X11430Y5213D01*
X0508Y5263D02*
X3573Y5263D01*
X4809Y5263D02*
X6281Y5263D01*
X8365Y5263D02*
X11430Y5263D01*
X0508Y5312D02*
X3645Y5312D01*
X4737Y5312D02*
X6231Y5312D01*
X8293Y5312D02*
X11430Y5312D01*
X0508Y5362D02*
X3739Y5362D01*
X4643Y5362D02*
X6182Y5362D01*
X8199Y5362D02*
X11430Y5362D01*
X0508Y5411D02*
X3842Y5411D01*
X4540Y5411D02*
X6132Y5411D01*
X8096Y5411D02*
X11430Y5411D01*
X0508Y5461D02*
X4043Y5461D01*
X4339Y5461D02*
X6083Y5461D01*
X7379Y5461D02*
X7599Y5461D01*
X7895Y5461D02*
X11430Y5461D01*
X0508Y5511D02*
X6033Y5511D01*
X7330Y5511D02*
X11430Y5511D01*
X0508Y5560D02*
X5984Y5560D01*
X7280Y5560D02*
X11430Y5560D01*
X0508Y5610D02*
X5934Y5610D01*
X7231Y5610D02*
X11430Y5610D01*
X0508Y5659D02*
X5885Y5659D01*
X7181Y5659D02*
X11430Y5659D01*
X0508Y5709D02*
X5835Y5709D01*
X7132Y5709D02*
X11430Y5709D01*
X0508Y5758D02*
X5785Y5758D01*
X7082Y5758D02*
X11430Y5758D01*
X0508Y5808D02*
X5736Y5808D01*
X7033Y5808D02*
X11430Y5808D01*
X0508Y5857D02*
X5686Y5857D01*
X6983Y5857D02*
X11430Y5857D01*
X0508Y5907D02*
X5637Y5907D01*
X6934Y5907D02*
X11430Y5907D01*
X0508Y5956D02*
X5587Y5956D01*
X6884Y5956D02*
X11430Y5956D01*
X0508Y6006D02*
X3893Y6006D01*
X4489Y6006D02*
X5538Y6006D01*
X6835Y6006D02*
X7449Y6006D01*
X8045Y6006D02*
X11430Y6006D01*
X0508Y6055D02*
X3763Y6055D01*
X4619Y6055D02*
X5488Y6055D01*
X6785Y6055D02*
X7319Y6055D01*
X8175Y6055D02*
X11430Y6055D01*
X0508Y6105D02*
X3669Y6105D01*
X4713Y6105D02*
X5439Y6105D01*
X6735Y6105D02*
X7225Y6105D01*
X8269Y6105D02*
X11430Y6105D01*
X0508Y6154D02*
X3587Y6154D01*
X4795Y6154D02*
X5389Y6154D01*
X6686Y6154D02*
X7143Y6154D01*
X8351Y6154D02*
X11430Y6154D01*
X0508Y6204D02*
X3532Y6204D01*
X4850Y6204D02*
X5340Y6204D01*
X6636Y6204D02*
X7088Y6204D01*
X8406Y6204D02*
X11430Y6204D01*
X0508Y6253D02*
X3476Y6253D01*
X4906Y6253D02*
X5290Y6253D01*
X6587Y6253D02*
X7032Y6253D01*
X8462Y6253D02*
X11430Y6253D01*
X0508Y6303D02*
X3420Y6303D01*
X4962Y6303D02*
X5241Y6303D01*
X6537Y6303D02*
X6976Y6303D01*
X8518Y6303D02*
X11430Y6303D01*
X0508Y6353D02*
X3386Y6353D01*
X4996Y6353D02*
X5191Y6353D01*
X6488Y6353D02*
X6942Y6353D01*
X8552Y6353D02*
X11430Y6353D01*
X0508Y6402D02*
X3352Y6402D01*
X5030Y6402D02*
X5142Y6402D01*
X6438Y6402D02*
X6908Y6402D01*
X8586Y6402D02*
X11430Y6402D01*
X0508Y6452D02*
X3317Y6452D01*
X5065Y6452D02*
X5092Y6452D01*
X6389Y6452D02*
X6873Y6452D01*
X8621Y6452D02*
X11430Y6452D01*
X0508Y6501D02*
X3283Y6501D01*
X6339Y6501D02*
X6839Y6501D01*
X8655Y6501D02*
X11430Y6501D01*
X0508Y6551D02*
X3263Y6551D01*
X6290Y6551D02*
X6819Y6551D01*
X8675Y6551D02*
X11430Y6551D01*
X0508Y6600D02*
X3244Y6600D01*
X6240Y6600D02*
X6800Y6600D01*
X8694Y6600D02*
X11430Y6600D01*
X0508Y6650D02*
X3225Y6650D01*
X6191Y6650D02*
X6781Y6650D01*
X8713Y6650D02*
X11430Y6650D01*
X0508Y6699D02*
X3206Y6699D01*
X6141Y6699D02*
X6762Y6699D01*
X8732Y6699D02*
X11430Y6699D01*
X0508Y6749D02*
X3190Y6749D01*
X6092Y6749D02*
X6746Y6749D01*
X8748Y6749D02*
X11430Y6749D01*
X0508Y6798D02*
X3184Y6798D01*
X6042Y6798D02*
X6740Y6798D01*
X8754Y6798D02*
X11430Y6798D01*
X0508Y6848D02*
X3178Y6848D01*
X5993Y6848D02*
X6734Y6848D01*
X8760Y6848D02*
X11430Y6848D01*
X0508Y6897D02*
X3172Y6897D01*
X5943Y6897D02*
X6728Y6897D01*
X8766Y6897D02*
X11430Y6897D01*
X0508Y6947D02*
X3166Y6947D01*
X5893Y6947D02*
X6722Y6947D01*
X8772Y6947D02*
X11430Y6947D01*
X0508Y6996D02*
X3163Y6996D01*
X5844Y6996D02*
X6719Y6996D01*
X8775Y6996D02*
X11430Y6996D01*
X0508Y7046D02*
X3169Y7046D01*
X5794Y7046D02*
X6725Y7046D01*
X8769Y7046D02*
X11430Y7046D01*
X0508Y7095D02*
X3175Y7095D01*
X5745Y7095D02*
X6731Y7095D01*
X8763Y7095D02*
X11430Y7095D01*
X0508Y7145D02*
X3181Y7145D01*
X5695Y7145D02*
X6737Y7145D01*
X8757Y7145D02*
X11430Y7145D01*
X0508Y7195D02*
X3187Y7195D01*
X5646Y7195D02*
X6743Y7195D01*
X8751Y7195D02*
X11430Y7195D01*
X0508Y7244D02*
X3196Y7244D01*
X5596Y7244D02*
X6752Y7244D01*
X8742Y7244D02*
X11430Y7244D01*
X0508Y7294D02*
X3215Y7294D01*
X5547Y7294D02*
X6771Y7294D01*
X8723Y7294D02*
X11430Y7294D01*
X0508Y7343D02*
X3234Y7343D01*
X5490Y7343D02*
X6790Y7343D01*
X8704Y7343D02*
X11430Y7343D01*
X0508Y7393D02*
X3253Y7393D01*
X5412Y7393D02*
X6809Y7393D01*
X8685Y7393D02*
X11430Y7393D01*
X0508Y7442D02*
X3271Y7442D01*
X5220Y7442D02*
X6827Y7442D01*
X8667Y7442D02*
X11430Y7442D01*
X0508Y7492D02*
X3299Y7492D01*
X5083Y7492D02*
X6855Y7492D01*
X8639Y7492D02*
X11430Y7492D01*
X0508Y7541D02*
X3333Y7541D01*
X5049Y7541D02*
X6889Y7541D01*
X8605Y7541D02*
X11430Y7541D01*
X0508Y7591D02*
X3367Y7591D01*
X5015Y7591D02*
X6923Y7591D01*
X8571Y7591D02*
X11430Y7591D01*
X0508Y7640D02*
X3402Y7640D01*
X4980Y7640D02*
X6958Y7640D01*
X8536Y7640D02*
X11430Y7640D01*
X0508Y7690D02*
X3445Y7690D01*
X4937Y7690D02*
X7001Y7690D01*
X8493Y7690D02*
X11430Y7690D01*
X0508Y7739D02*
X3501Y7739D01*
X4881Y7739D02*
X7057Y7739D01*
X8437Y7739D02*
X11430Y7739D01*
X0508Y7789D02*
X3557Y7789D01*
X4825Y7789D02*
X7113Y7789D01*
X8381Y7789D02*
X11430Y7789D01*
X0508Y7838D02*
X3618Y7838D01*
X4764Y7838D02*
X7174Y7838D01*
X8320Y7838D02*
X11430Y7838D01*
X0508Y7888D02*
X3712Y7888D01*
X4670Y7888D02*
X7268Y7888D01*
X8226Y7888D02*
X11430Y7888D01*
X0508Y7938D02*
X3807Y7938D01*
X4575Y7938D02*
X7363Y7938D01*
X8131Y7938D02*
X11430Y7938D01*
X0508Y7987D02*
X3986Y7987D01*
X4396Y7987D02*
X7542Y7987D01*
X7952Y7987D02*
X11430Y7987D01*
X0508Y8037D02*
X11430Y8037D01*
X0508Y8086D02*
X11430Y8086D01*
X0508Y8136D02*
X11430Y8136D01*
X0508Y8185D02*
X11430Y8185D01*
X0508Y8235D02*
X11430Y8235D01*
X0508Y8284D02*
X11430Y8284D01*
X0508Y8334D02*
X11430Y8334D01*
X0508Y8383D02*
X11430Y8383D01*
X0508Y8433D02*
X11430Y8433D01*
X0508Y8482D02*
X11430Y8482D01*
X0508Y8532D02*
X3950Y8532D01*
X4432Y8532D02*
X7506Y8532D01*
X7988Y8532D02*
X11430Y8532D01*
X0508Y8581D02*
X3790Y8581D01*
X4592Y8581D02*
X7346Y8581D01*
X8148Y8581D02*
X11430Y8581D01*
X0508Y8631D02*
X3695Y8631D01*
X4687Y8631D02*
X7251Y8631D01*
X8243Y8631D02*
X11430Y8631D01*
X0508Y8680D02*
X3603Y8680D01*
X4779Y8680D02*
X7159Y8680D01*
X8335Y8680D02*
X11430Y8680D01*
X0508Y8730D02*
X3547Y8730D01*
X4835Y8730D02*
X7103Y8730D01*
X8391Y8730D02*
X11430Y8730D01*
X0508Y8780D02*
X3491Y8780D01*
X4891Y8780D02*
X7047Y8780D01*
X8447Y8780D02*
X11430Y8780D01*
X0508Y8829D02*
X3435Y8829D01*
X4947Y8829D02*
X6991Y8829D01*
X8503Y8829D02*
X11430Y8829D01*
X0508Y8879D02*
X3395Y8879D01*
X4987Y8879D02*
X6951Y8879D01*
X8543Y8879D02*
X11430Y8879D01*
X0508Y8928D02*
X3361Y8928D01*
X5021Y8928D02*
X6917Y8928D01*
X8577Y8928D02*
X11430Y8928D01*
X0508Y8978D02*
X3327Y8978D01*
X5055Y8978D02*
X6883Y8978D01*
X8611Y8978D02*
X11430Y8978D01*
X0508Y9027D02*
X3293Y9027D01*
X5089Y9027D02*
X6849Y9027D01*
X8645Y9027D02*
X11430Y9027D01*
X0508Y9077D02*
X3268Y9077D01*
X8670Y9077D02*
X11430Y9077D01*
X0508Y9126D02*
X3249Y9126D01*
X8689Y9126D02*
X11430Y9126D01*
X0508Y9176D02*
X3230Y9176D01*
X8708Y9176D02*
X11430Y9176D01*
X0508Y9225D02*
X3212Y9225D01*
X8726Y9225D02*
X11430Y9225D01*
X0508Y9275D02*
X3193Y9275D01*
X8745Y9275D02*
X11430Y9275D01*
X0508Y9324D02*
X3186Y9324D01*
X8752Y9324D02*
X11430Y9324D01*
X0508Y9374D02*
X3180Y9374D01*
X8758Y9374D02*
X11430Y9374D01*
X0508Y9423D02*
X3174Y9423D01*
X8764Y9423D02*
X11430Y9423D01*
X0508Y9473D02*
X3168Y9473D01*
X8770Y9473D02*
X11430Y9473D01*
X0508Y9522D02*
X3162Y9522D01*
X8776Y9522D02*
X11430Y9522D01*
X0508Y9572D02*
X3167Y9572D01*
X8771Y9572D02*
X11430Y9572D01*
X0508Y9622D02*
X3173Y9622D01*
X8765Y9622D02*
X11430Y9622D01*
X0508Y9671D02*
X3179Y9671D01*
X8759Y9671D02*
X11430Y9671D01*
X0508Y9721D02*
X3185Y9721D01*
X8753Y9721D02*
X11430Y9721D01*
X0508Y9770D02*
X3191Y9770D01*
X8747Y9770D02*
X11430Y9770D01*
X0508Y9820D02*
X3210Y9820D01*
X8728Y9820D02*
X11430Y9820D01*
X0508Y9869D02*
X3229Y9869D01*
X8709Y9869D02*
X11430Y9869D01*
X0508Y9919D02*
X3247Y9919D01*
X8691Y9919D02*
X11430Y9919D01*
X0508Y9968D02*
X3266Y9968D01*
X8672Y9968D02*
X11430Y9968D01*
X0508Y10018D02*
X3289Y10018D01*
X5093Y10018D02*
X6845Y10018D01*
X8649Y10018D02*
X11430Y10018D01*
X0508Y10067D02*
X3324Y10067D01*
X5058Y10067D02*
X6880Y10067D01*
X8614Y10067D02*
X11430Y10067D01*
X0508Y10117D02*
X3358Y10117D01*
X5024Y10117D02*
X6914Y10117D01*
X8580Y10117D02*
X11430Y10117D01*
X0508Y10166D02*
X3392Y10166D01*
X4990Y10166D02*
X6948Y10166D01*
X8546Y10166D02*
X11430Y10166D01*
X0508Y10216D02*
X3430Y10216D01*
X4952Y10216D02*
X6986Y10216D01*
X8508Y10216D02*
X11430Y10216D01*
X0508Y10265D02*
X3486Y10265D01*
X4896Y10265D02*
X7042Y10265D01*
X8452Y10265D02*
X11430Y10265D01*
X0508Y10315D02*
X3542Y10315D01*
X4840Y10315D02*
X7098Y10315D01*
X8396Y10315D02*
X11430Y10315D01*
X0508Y10364D02*
X3597Y10364D01*
X4785Y10364D02*
X7153Y10364D01*
X8341Y10364D02*
X11430Y10364D01*
X0508Y10414D02*
X3686Y10414D01*
X4696Y10414D02*
X7242Y10414D01*
X8252Y10414D02*
X11430Y10414D01*
X0508Y10464D02*
X3780Y10464D01*
X4602Y10464D02*
X7336Y10464D01*
X8158Y10464D02*
X11430Y10464D01*
X0508Y10513D02*
X3929Y10513D01*
X4453Y10513D02*
X7485Y10513D01*
X8009Y10513D02*
X11430Y10513D01*
X0508Y10563D02*
X11430Y10563D01*
X0508Y10612D02*
X11430Y10612D01*
X0508Y10662D02*
X11430Y10662D01*
X0508Y10711D02*
X11430Y10711D01*
X0508Y10761D02*
X11430Y10761D01*
X0508Y10810D02*
X11430Y10810D01*
X0508Y10860D02*
X11430Y10860D01*
X0508Y10909D02*
X11430Y10909D01*
X0508Y10959D02*
X11430Y10959D01*
X0508Y11008D02*
X11430Y11008D01*
X0508Y11058D02*
X4007Y11058D01*
X4375Y11058D02*
X7563Y11058D01*
X7931Y11058D02*
X11430Y11058D01*
X0508Y11107D02*
X3816Y11107D01*
X4566Y11107D02*
X7372Y11107D01*
X8122Y11107D02*
X11430Y11107D01*
X0508Y11157D02*
X3722Y11157D01*
X4660Y11157D02*
X7278Y11157D01*
X8216Y11157D02*
X11430Y11157D01*
X0508Y11206D02*
X3628Y11206D01*
X4754Y11206D02*
X7184Y11206D01*
X8310Y11206D02*
X11430Y11206D01*
X0508Y11256D02*
X3563Y11256D01*
X4819Y11256D02*
X7119Y11256D01*
X8375Y11256D02*
X11430Y11256D01*
X0508Y11306D02*
X3507Y11306D01*
X4875Y11306D02*
X7063Y11306D01*
X8431Y11306D02*
X11430Y11306D01*
X0508Y11355D02*
X3451Y11355D01*
X4931Y11355D02*
X7007Y11355D01*
X8487Y11355D02*
X11430Y11355D01*
X0508Y11405D02*
X3405Y11405D01*
X4977Y11405D02*
X6961Y11405D01*
X8533Y11405D02*
X11430Y11405D01*
X0508Y11454D02*
X3371Y11454D01*
X5011Y11454D02*
X6927Y11454D01*
X8567Y11454D02*
X11430Y11454D01*
X0508Y11504D02*
X3337Y11504D01*
X5045Y11504D02*
X6893Y11504D01*
X8601Y11504D02*
X11430Y11504D01*
X0508Y11553D02*
X3303Y11553D01*
X5079Y11553D02*
X6859Y11553D01*
X8635Y11553D02*
X11430Y11553D01*
X0508Y11603D02*
X3273Y11603D01*
X5109Y11603D02*
X6829Y11603D01*
X8665Y11603D02*
X11430Y11603D01*
X0508Y11652D02*
X3255Y11652D01*
X5127Y11652D02*
X6811Y11652D01*
X8683Y11652D02*
X11430Y11652D01*
X0508Y11702D02*
X3236Y11702D01*
X5146Y11702D02*
X6792Y11702D01*
X8702Y11702D02*
X11430Y11702D01*
X0508Y11751D02*
X3217Y11751D01*
X5165Y11751D02*
X6773Y11751D01*
X8721Y11751D02*
X11430Y11751D01*
X0508Y11801D02*
X3198Y11801D01*
X5184Y11801D02*
X6754Y11801D01*
X8740Y11801D02*
X11430Y11801D01*
X0508Y11850D02*
X3188Y11850D01*
X5194Y11850D02*
X6744Y11850D01*
X8750Y11850D02*
X11430Y11850D01*
X0508Y11900D02*
X3182Y11900D01*
X5200Y11900D02*
X6738Y11900D01*
X8756Y11900D02*
X11430Y11900D01*
X0508Y11949D02*
X3176Y11949D01*
X5206Y11949D02*
X6732Y11949D01*
X8762Y11949D02*
X11430Y11949D01*
X0508Y11999D02*
X3170Y11999D01*
X5212Y11999D02*
X6726Y11999D01*
X8768Y11999D02*
X11430Y11999D01*
X0508Y12048D02*
X3164Y12048D01*
X5218Y12048D02*
X6720Y12048D01*
X8774Y12048D02*
X11430Y12048D01*
X0508Y12098D02*
X3166Y12098D01*
X5216Y12098D02*
X6722Y12098D01*
X8772Y12098D02*
X11430Y12098D01*
X0508Y12148D02*
X3172Y12148D01*
X5210Y12148D02*
X6728Y12148D01*
X8766Y12148D02*
X11430Y12148D01*
X0508Y12197D02*
X3178Y12197D01*
X5204Y12197D02*
X6734Y12197D01*
X8760Y12197D02*
X11430Y12197D01*
X0508Y12247D02*
X3184Y12247D01*
X5198Y12247D02*
X6740Y12247D01*
X8754Y12247D02*
X11430Y12247D01*
X0508Y12296D02*
X3190Y12296D01*
X5192Y12296D02*
X6746Y12296D01*
X8748Y12296D02*
X11430Y12296D01*
X0508Y12346D02*
X3204Y12346D01*
X5178Y12346D02*
X6760Y12346D01*
X8734Y12346D02*
X11430Y12346D01*
X0508Y12395D02*
X3223Y12395D01*
X5159Y12395D02*
X6779Y12395D01*
X8715Y12395D02*
X11430Y12395D01*
X0508Y12445D02*
X3242Y12445D01*
X5140Y12445D02*
X6798Y12445D01*
X8696Y12445D02*
X11430Y12445D01*
X0508Y12494D02*
X3261Y12494D01*
X5121Y12494D02*
X6817Y12494D01*
X8677Y12494D02*
X11430Y12494D01*
X0508Y12544D02*
X3280Y12544D01*
X5102Y12544D02*
X6836Y12544D01*
X8658Y12544D02*
X11430Y12544D01*
X0508Y12593D02*
X3314Y12593D01*
X5068Y12593D02*
X6870Y12593D01*
X8624Y12593D02*
X11430Y12593D01*
X0508Y12643D02*
X3348Y12643D01*
X5034Y12643D02*
X6904Y12643D01*
X8590Y12643D02*
X11430Y12643D01*
X0508Y12692D02*
X3382Y12692D01*
X5000Y12692D02*
X6938Y12692D01*
X8556Y12692D02*
X11430Y12692D01*
X0508Y12742D02*
X3416Y12742D01*
X4966Y12742D02*
X6972Y12742D01*
X8522Y12742D02*
X11430Y12742D01*
X0508Y12791D02*
X3470Y12791D01*
X4912Y12791D02*
X7026Y12791D01*
X8468Y12791D02*
X11430Y12791D01*
X0508Y12841D02*
X3526Y12841D01*
X4856Y12841D02*
X7082Y12841D01*
X8412Y12841D02*
X11430Y12841D01*
X0508Y12890D02*
X3582Y12890D01*
X4800Y12890D02*
X7138Y12890D01*
X8356Y12890D02*
X11430Y12890D01*
X0508Y12940D02*
X3659Y12940D01*
X4723Y12940D02*
X7215Y12940D01*
X8279Y12940D02*
X11430Y12940D01*
X0508Y12990D02*
X3754Y12990D01*
X4628Y12990D02*
X7310Y12990D01*
X8184Y12990D02*
X11430Y12990D01*
X0508Y13039D02*
X3873Y13039D01*
X4509Y13039D02*
X7429Y13039D01*
X8065Y13039D02*
X11430Y13039D01*
X0508Y13089D02*
X11430Y13089D01*
X0508Y13138D02*
X11430Y13138D01*
X0508Y13188D02*
X11430Y13188D01*
X0508Y13237D02*
X11430Y13237D01*
X0508Y13287D02*
X11430Y13287D01*
X0508Y13336D02*
X11430Y13336D01*
X0508Y13386D02*
X11430Y13386D01*
X0508Y13435D02*
X11430Y13435D01*
X0508Y13485D02*
X11430Y13485D01*
X0508Y13534D02*
X11430Y13534D01*
X0508Y13584D02*
X3310Y13584D01*
X3991Y13584D02*
X4391Y13584D01*
X5072Y13584D02*
X6866Y13584D01*
X7547Y13584D02*
X7947Y13584D01*
X8628Y13584D02*
X11430Y13584D01*
X0508Y13633D02*
X3224Y13633D01*
X3991Y13633D02*
X4391Y13633D01*
X5158Y13633D02*
X6780Y13633D01*
X7547Y13633D02*
X7947Y13633D01*
X8714Y13633D02*
X11430Y13633D01*
X0508Y13683D02*
X3186Y13683D01*
X3991Y13683D02*
X4391Y13683D01*
X5196Y13683D02*
X6742Y13683D01*
X7547Y13683D02*
X7947Y13683D01*
X8752Y13683D02*
X11430Y13683D01*
X0508Y13733D02*
X3168Y13733D01*
X3991Y13733D02*
X4391Y13733D01*
X5214Y13733D02*
X6724Y13733D01*
X7547Y13733D02*
X7947Y13733D01*
X8770Y13733D02*
X11430Y13733D01*
X0508Y13782D02*
X3162Y13782D01*
X3991Y13782D02*
X4391Y13782D01*
X5220Y13782D02*
X6718Y13782D01*
X7547Y13782D02*
X7947Y13782D01*
X8776Y13782D02*
X11430Y13782D01*
X0508Y13832D02*
X3162Y13832D01*
X5220Y13832D02*
X6718Y13832D01*
X8776Y13832D02*
X11430Y13832D01*
X0508Y13881D02*
X3162Y13881D01*
X5220Y13881D02*
X6718Y13881D01*
X8776Y13881D02*
X11430Y13881D01*
X0508Y13931D02*
X3162Y13931D01*
X5220Y13931D02*
X6718Y13931D01*
X8776Y13931D02*
X11430Y13931D01*
X0508Y13980D02*
X3162Y13980D01*
X5220Y13980D02*
X6718Y13980D01*
X8776Y13980D02*
X11430Y13980D01*
X0508Y14030D02*
X3162Y14030D01*
X5220Y14030D02*
X6718Y14030D01*
X8776Y14030D02*
X11430Y14030D01*
X0508Y14079D02*
X3162Y14079D01*
X5220Y14079D02*
X6718Y14079D01*
X8776Y14079D02*
X11430Y14079D01*
X0508Y14129D02*
X3162Y14129D01*
X5220Y14129D02*
X6718Y14129D01*
X8776Y14129D02*
X11430Y14129D01*
X0508Y14178D02*
X3162Y14178D01*
X5220Y14178D02*
X6718Y14178D01*
X8776Y14178D02*
X11430Y14178D01*
X0508Y14228D02*
X3162Y14228D01*
X5220Y14228D02*
X6718Y14228D01*
X8776Y14228D02*
X11430Y14228D01*
X0508Y14277D02*
X3162Y14277D01*
X5220Y14277D02*
X6718Y14277D01*
X8776Y14277D02*
X11430Y14277D01*
X0508Y14327D02*
X3162Y14327D01*
X5220Y14327D02*
X6718Y14327D01*
X8776Y14327D02*
X11430Y14327D01*
X0508Y14376D02*
X3162Y14376D01*
X5220Y14376D02*
X6718Y14376D01*
X8776Y14376D02*
X11430Y14376D01*
X0508Y14426D02*
X3417Y14426D01*
X4965Y14426D02*
X6973Y14426D01*
X8521Y14426D02*
X11430Y14426D01*
X0508Y14475D02*
X3417Y14475D01*
X4965Y14475D02*
X6973Y14475D01*
X8521Y14475D02*
X11430Y14475D01*
X0508Y14525D02*
X3417Y14525D01*
X4965Y14525D02*
X6973Y14525D01*
X8521Y14525D02*
X11430Y14525D01*
X0508Y14575D02*
X3417Y14575D01*
X4965Y14575D02*
X6973Y14575D01*
X8521Y14575D02*
X11430Y14575D01*
X0508Y14624D02*
X3417Y14624D01*
X4965Y14624D02*
X6973Y14624D01*
X8521Y14624D02*
X11430Y14624D01*
X0508Y14674D02*
X3417Y14674D01*
X4965Y14674D02*
X6973Y14674D01*
X8521Y14674D02*
X11430Y14674D01*
X0508Y14723D02*
X3417Y14723D01*
X4965Y14723D02*
X6973Y14723D01*
X8521Y14723D02*
X11430Y14723D01*
X0508Y14773D02*
X3417Y14773D01*
X4965Y14773D02*
X6973Y14773D01*
X8521Y14773D02*
X11430Y14773D01*
X0508Y14822D02*
X3162Y14822D01*
X5220Y14822D02*
X6718Y14822D01*
X8776Y14822D02*
X11430Y14822D01*
X0508Y14872D02*
X3162Y14872D01*
X5220Y14872D02*
X6718Y14872D01*
X8776Y14872D02*
X11430Y14872D01*
X0508Y14921D02*
X3162Y14921D01*
X5220Y14921D02*
X6718Y14921D01*
X8776Y14921D02*
X11430Y14921D01*
X0508Y14971D02*
X3162Y14971D01*
X5220Y14971D02*
X6718Y14971D01*
X8776Y14971D02*
X11430Y14971D01*
X0508Y15020D02*
X3162Y15020D01*
X5220Y15020D02*
X6718Y15020D01*
X8776Y15020D02*
X11430Y15020D01*
X0508Y15070D02*
X3162Y15070D01*
X5220Y15070D02*
X6718Y15070D01*
X8776Y15070D02*
X11430Y15070D01*
X0508Y15119D02*
X3162Y15119D01*
X5220Y15119D02*
X6718Y15119D01*
X8776Y15119D02*
X11430Y15119D01*
X0508Y15169D02*
X3162Y15169D01*
X5220Y15169D02*
X6718Y15169D01*
X8776Y15169D02*
X11430Y15169D01*
X0508Y15218D02*
X3162Y15218D01*
X5220Y15218D02*
X6718Y15218D01*
X8776Y15218D02*
X11430Y15218D01*
X0508Y15268D02*
X3162Y15268D01*
X5220Y15268D02*
X6718Y15268D01*
X8776Y15268D02*
X11430Y15268D01*
X0508Y15317D02*
X3162Y15317D01*
X5220Y15317D02*
X6718Y15317D01*
X8776Y15317D02*
X11430Y15317D01*
X0508Y15367D02*
X3162Y15367D01*
X5220Y15367D02*
X6718Y15367D01*
X8776Y15367D02*
X11430Y15367D01*
X0508Y15417D02*
X3162Y15417D01*
X3991Y15417D02*
X4391Y15417D01*
X5220Y15417D02*
X6718Y15417D01*
X7547Y15417D02*
X7947Y15417D01*
X8776Y15417D02*
X11430Y15417D01*
X0508Y15466D02*
X3165Y15466D01*
X3991Y15466D02*
X4391Y15466D01*
X5217Y15466D02*
X6721Y15466D01*
X7547Y15466D02*
X7947Y15466D01*
X8773Y15466D02*
X11430Y15466D01*
X0508Y15516D02*
X3181Y15516D01*
X3991Y15516D02*
X4391Y15516D01*
X5201Y15516D02*
X6737Y15516D01*
X7547Y15516D02*
X7947Y15516D01*
X8757Y15516D02*
X11430Y15516D01*
X0508Y15565D02*
X3213Y15565D01*
X3991Y15565D02*
X4391Y15565D01*
X5169Y15565D02*
X6769Y15565D01*
X7547Y15565D02*
X7947Y15565D01*
X8725Y15565D02*
X11430Y15565D01*
X0508Y15615D02*
X3279Y15615D01*
X3991Y15615D02*
X4391Y15615D01*
X5103Y15615D02*
X6835Y15615D01*
X7547Y15615D02*
X7947Y15615D01*
X8659Y15615D02*
X11430Y15615D01*
X0508Y15664D02*
X11430Y15664D01*
X0508Y15714D02*
X11430Y15714D01*
X0508Y15763D02*
X11430Y15763D01*
X0508Y15813D02*
X11430Y15813D01*
X0508Y15862D02*
X11430Y15862D01*
X0508Y15912D02*
X11430Y15912D01*
X0508Y15961D02*
X11430Y15961D01*
%LNtop copper_traces*%
D11*
X5207Y6985D02*
X4191Y6985D01*
X7747Y4445D02*
X5207Y6985D01*
X4191Y9525D02*
X7747Y9525D01*
%LNtop copper component 5c77d384395e6726*%
D12*
X4191Y14605D03*
D13*
X4191Y12065D03*
X4191Y9525D03*
X4191Y6985D03*
X4191Y4445D03*
X4191Y1905D03*
%LNtop copper component f1eb1aa749278748*%
D12*
X7747Y14605D03*
D13*
X7747Y12065D03*
X7747Y9525D03*
X7747Y6985D03*
X7747Y4445D03*
X7747Y1905D03*
M02*