%FSLAX33Y33*%
%MOMM*%
%ADD10C,0.15*%
%ADD11C,2.032*%
%ADD12C,0.5*%
D10*
%LNtop silkscreen_traces*%
%LNtop silkscreen component 2db072afead86070*%
G01*
X13585Y10875D02*
X14415Y10875D01*
X13585Y12125D02*
X14415Y12125D01*
G36*
X13489Y9500D02*
X13489Y10216D01*
X13806Y10216D01*
X13851Y10215D01*
X13891Y10211D01*
X13924Y10205D01*
X13952Y10197D01*
X13976Y10185D01*
X13997Y10170D01*
X14015Y10151D01*
X14031Y10128D01*
X14044Y10103D01*
X14054Y10077D01*
X14059Y10049D01*
X14061Y10021D01*
X14058Y9984D01*
X14049Y9950D01*
X14033Y9920D01*
X14012Y9892D01*
X13984Y9868D01*
X13949Y9849D01*
X13908Y9835D01*
X13884Y9830D01*
X13869Y9907D01*
X13889Y9913D01*
X13906Y9921D01*
X13921Y9931D01*
X13934Y9943D01*
X13945Y9956D01*
X13953Y9971D01*
X13959Y9987D01*
X13962Y10003D01*
X13964Y10021D01*
X13961Y10045D01*
X13954Y10067D01*
X13943Y10087D01*
X13927Y10104D01*
X13906Y10118D01*
X13879Y10129D01*
X13847Y10135D01*
X13810Y10137D01*
X13584Y10137D01*
X13584Y9900D01*
X13584Y9900D01*
X13787Y9900D01*
X13818Y9901D01*
X13845Y9903D01*
X13869Y9907D01*
X13884Y9830D01*
X13860Y9826D01*
X13877Y9817D01*
X13893Y9808D01*
X13906Y9799D01*
X13917Y9790D01*
X13937Y9770D01*
X13957Y9747D01*
X13976Y9722D01*
X13995Y9695D01*
X14120Y9500D01*
X14001Y9500D01*
X13906Y9649D01*
X13886Y9679D01*
X13868Y9706D01*
X13852Y9729D01*
X13838Y9748D01*
X13825Y9763D01*
X13812Y9777D01*
X13800Y9787D01*
X13790Y9795D01*
X13779Y9802D01*
X13768Y9807D01*
X13757Y9811D01*
X13746Y9814D01*
X13737Y9816D01*
X13725Y9817D01*
X13711Y9818D01*
X13694Y9818D01*
X13584Y9818D01*
X13584Y9500D01*
X13489Y9500D01*
X13489Y9500D01*
X14636Y9584D02*
X14636Y9500D01*
X14163Y9500D01*
X14163Y9516D01*
X14165Y9531D01*
X14168Y9546D01*
X14173Y9561D01*
X14183Y9585D01*
X14197Y9609D01*
X14212Y9633D01*
X14231Y9656D01*
X14253Y9681D01*
X14280Y9707D01*
X14311Y9735D01*
X14346Y9765D01*
X14400Y9810D01*
X14444Y9850D01*
X14478Y9886D01*
X14504Y9916D01*
X14522Y9944D01*
X14534Y9971D01*
X14542Y9997D01*
X14545Y10022D01*
X14542Y10047D01*
X14535Y10070D01*
X14524Y10091D01*
X14507Y10110D01*
X14487Y10126D01*
X14464Y10137D01*
X14438Y10144D01*
X14410Y10146D01*
X14380Y10144D01*
X14353Y10136D01*
X14329Y10125D01*
X14308Y10108D01*
X14292Y10087D01*
X14280Y10062D01*
X14272Y10034D01*
X14270Y10002D01*
X14179Y10012D01*
X14187Y10059D01*
X14201Y10101D01*
X14222Y10136D01*
X14249Y10166D01*
X14282Y10189D01*
X14320Y10206D01*
X14363Y10215D01*
X14412Y10219D01*
X14461Y10215D01*
X14504Y10204D01*
X14542Y10187D01*
X14575Y10162D01*
X14601Y10131D01*
X14620Y10098D01*
X14631Y10061D01*
X14635Y10020D01*
X14634Y9999D01*
X14631Y9977D01*
X14625Y9956D01*
X14617Y9936D01*
X14607Y9915D01*
X14594Y9893D01*
X14578Y9871D01*
X14559Y9848D01*
X14535Y9823D01*
X14505Y9794D01*
X14468Y9760D01*
X14424Y9722D01*
X14388Y9692D01*
X14359Y9666D01*
X14337Y9647D01*
X14322Y9632D01*
X14311Y9620D01*
X14301Y9608D01*
X14293Y9596D01*
X14285Y9584D01*
X14636Y9584D01*
X14636Y9584D01*
G37*
%LNtop silkscreen component f0fb2731934dc838*%
X0360Y24630D02*
X9640Y24630D01*
X0360Y24630D02*
X0360Y0370D01*
X9640Y0370*
X9640Y24630*
D11*
X5000Y25146D03*
G36*
X10161Y23633D02*
X10246Y23645D01*
X10249Y23607D01*
X10256Y23576D01*
X10265Y23551D01*
X10277Y23533D01*
X10292Y23519D01*
X10310Y23510D01*
X10330Y23504D01*
X10353Y23502D01*
X10370Y23503D01*
X10386Y23506D01*
X10401Y23511D01*
X10414Y23519D01*
X10426Y23528D01*
X10436Y23538D01*
X10444Y23550D01*
X10450Y23563D01*
X10454Y23579D01*
X10457Y23599D01*
X10459Y23624D01*
X10460Y23653D01*
X10460Y24146D01*
X10554Y24146D01*
X10554Y23658D01*
X10553Y23616D01*
X10549Y23578D01*
X10542Y23546D01*
X10533Y23519D01*
X10520Y23496D01*
X10504Y23475D01*
X10486Y23458D01*
X10464Y23444D01*
X10439Y23432D01*
X10412Y23424D01*
X10384Y23419D01*
X10353Y23418D01*
X10309Y23421D01*
X10270Y23431D01*
X10237Y23448D01*
X10209Y23472D01*
X10187Y23502D01*
X10172Y23539D01*
X10163Y23583D01*
X10161Y23633D01*
X10161Y23633D01*
X11004Y23430D02*
X10917Y23430D01*
X10917Y23990D01*
X10899Y23975D01*
X10880Y23960D01*
X10858Y23945D01*
X10833Y23930D01*
X10808Y23915D01*
X10784Y23903D01*
X10762Y23893D01*
X10741Y23884D01*
X10741Y23969D01*
X10777Y23987D01*
X10810Y24007D01*
X10841Y24029D01*
X10870Y24053D01*
X10895Y24078D01*
X10917Y24102D01*
X10934Y24125D01*
X10948Y24149D01*
X11004Y24149D01*
X11004Y23430D01*
X11004Y23430D01*
G37*
%LNtop silkscreen component 857abdc5204d4412*%
D10*
X14415Y14125D02*
X13585Y14125D01*
X14415Y12875D02*
X13585Y12875D01*
G36*
X13489Y14700D02*
X13489Y15416D01*
X13806Y15416D01*
X13851Y15415D01*
X13891Y15411D01*
X13924Y15405D01*
X13952Y15397D01*
X13976Y15385D01*
X13997Y15370D01*
X14015Y15351D01*
X14031Y15328D01*
X14044Y15303D01*
X14054Y15277D01*
X14059Y15249D01*
X14061Y15221D01*
X14058Y15184D01*
X14049Y15150D01*
X14033Y15120D01*
X14012Y15092D01*
X13984Y15068D01*
X13949Y15049D01*
X13908Y15035D01*
X13884Y15030D01*
X13869Y15107D01*
X13889Y15113D01*
X13906Y15121D01*
X13921Y15131D01*
X13934Y15143D01*
X13945Y15156D01*
X13953Y15171D01*
X13959Y15187D01*
X13962Y15203D01*
X13964Y15221D01*
X13961Y15245D01*
X13954Y15267D01*
X13943Y15287D01*
X13927Y15304D01*
X13906Y15318D01*
X13879Y15329D01*
X13847Y15335D01*
X13810Y15337D01*
X13584Y15337D01*
X13584Y15100D01*
X13584Y15100D01*
X13787Y15100D01*
X13818Y15101D01*
X13845Y15103D01*
X13869Y15107D01*
X13884Y15030D01*
X13860Y15026D01*
X13877Y15017D01*
X13893Y15008D01*
X13906Y14999D01*
X13917Y14990D01*
X13937Y14970D01*
X13957Y14947D01*
X13976Y14922D01*
X13995Y14895D01*
X14120Y14700D01*
X14001Y14700D01*
X13906Y14849D01*
X13886Y14879D01*
X13868Y14906D01*
X13852Y14929D01*
X13838Y14948D01*
X13825Y14963D01*
X13812Y14977D01*
X13800Y14987D01*
X13790Y14995D01*
X13779Y15002D01*
X13768Y15007D01*
X13757Y15011D01*
X13746Y15014D01*
X13737Y15016D01*
X13725Y15017D01*
X13711Y15018D01*
X13694Y15018D01*
X13584Y15018D01*
X13584Y14700D01*
X13489Y14700D01*
X13489Y14700D01*
X14175Y14889D02*
X14262Y14901D01*
X14271Y14866D01*
X14283Y14836D01*
X14297Y14812D01*
X14314Y14793D01*
X14333Y14779D01*
X14354Y14768D01*
X14377Y14762D01*
X14403Y14760D01*
X14432Y14763D01*
X14460Y14771D01*
X14485Y14784D01*
X14507Y14803D01*
X14526Y14826D01*
X14539Y14851D01*
X14547Y14879D01*
X14550Y14909D01*
X14548Y14938D01*
X14540Y14965D01*
X14528Y14988D01*
X14510Y15009D01*
X14489Y15027D01*
X14466Y15039D01*
X14439Y15046D01*
X14410Y15049D01*
X14397Y15048D01*
X14382Y15046D01*
X14366Y15043D01*
X14348Y15039D01*
X14358Y15116D01*
X14362Y15116D01*
X14366Y15115D01*
X14369Y15115D01*
X14372Y15115D01*
X14399Y15117D01*
X14425Y15122D01*
X14450Y15132D01*
X14473Y15144D01*
X14493Y15161D01*
X14507Y15182D01*
X14515Y15206D01*
X14518Y15235D01*
X14516Y15258D01*
X14510Y15279D01*
X14499Y15298D01*
X14485Y15315D01*
X14468Y15329D01*
X14448Y15339D01*
X14425Y15345D01*
X14401Y15346D01*
X14376Y15344D01*
X14354Y15338D01*
X14333Y15328D01*
X14315Y15314D01*
X14300Y15296D01*
X14287Y15274D01*
X14278Y15248D01*
X14271Y15218D01*
X14183Y15233D01*
X14194Y15275D01*
X14210Y15312D01*
X14231Y15343D01*
X14257Y15370D01*
X14287Y15391D01*
X14321Y15407D01*
X14358Y15416D01*
X14399Y15419D01*
X14427Y15417D01*
X14455Y15412D01*
X14481Y15405D01*
X14507Y15394D01*
X14530Y15380D01*
X14550Y15364D01*
X14567Y15346D01*
X14582Y15325D01*
X14593Y15303D01*
X14602Y15280D01*
X14606Y15257D01*
X14608Y15233D01*
X14607Y15210D01*
X14602Y15188D01*
X14594Y15168D01*
X14583Y15148D01*
X14569Y15130D01*
X14552Y15114D01*
X14532Y15100D01*
X14509Y15088D01*
X14539Y15078D01*
X14566Y15065D01*
X14589Y15048D01*
X14608Y15027D01*
X14623Y15002D01*
X14634Y14975D01*
X14641Y14945D01*
X14643Y14911D01*
X14639Y14866D01*
X14626Y14825D01*
X14605Y14787D01*
X14575Y14752D01*
X14538Y14724D01*
X14498Y14704D01*
X14452Y14691D01*
X14402Y14687D01*
X14357Y14691D01*
X14316Y14701D01*
X14279Y14719D01*
X14246Y14743D01*
X14218Y14774D01*
X14197Y14808D01*
X14182Y14846D01*
X14175Y14889D01*
X14175Y14889D01*
G37*
%LNtop silkscreen component 9dea16fde81fcd95*%
X18625Y12085D02*
X18625Y12915D01*
X17375Y12085D02*
X17375Y12915D01*
G36*
X17489Y14600D02*
X17489Y15316D01*
X17806Y15316D01*
X17851Y15315D01*
X17891Y15311D01*
X17924Y15305D01*
X17952Y15297D01*
X17976Y15285D01*
X17997Y15270D01*
X18015Y15251D01*
X18031Y15228D01*
X18044Y15203D01*
X18054Y15177D01*
X18059Y15149D01*
X18061Y15121D01*
X18058Y15084D01*
X18049Y15050D01*
X18033Y15020D01*
X18012Y14992D01*
X17984Y14968D01*
X17949Y14949D01*
X17908Y14935D01*
X17884Y14930D01*
X17869Y15007D01*
X17889Y15013D01*
X17906Y15021D01*
X17921Y15031D01*
X17934Y15043D01*
X17945Y15056D01*
X17953Y15071D01*
X17959Y15087D01*
X17962Y15103D01*
X17964Y15121D01*
X17961Y15145D01*
X17954Y15167D01*
X17943Y15187D01*
X17927Y15204D01*
X17906Y15218D01*
X17879Y15229D01*
X17847Y15235D01*
X17810Y15237D01*
X17584Y15237D01*
X17584Y15000D01*
X17584Y15000D01*
X17787Y15000D01*
X17818Y15001D01*
X17845Y15003D01*
X17869Y15007D01*
X17884Y14930D01*
X17860Y14926D01*
X17877Y14917D01*
X17893Y14908D01*
X17906Y14899D01*
X17917Y14890D01*
X17937Y14870D01*
X17957Y14847D01*
X17976Y14822D01*
X17995Y14795D01*
X18120Y14600D01*
X18001Y14600D01*
X17906Y14749D01*
X17886Y14779D01*
X17868Y14806D01*
X17852Y14829D01*
X17838Y14848D01*
X17825Y14863D01*
X17812Y14877D01*
X17800Y14887D01*
X17790Y14895D01*
X17779Y14902D01*
X17768Y14907D01*
X17757Y14911D01*
X17746Y14914D01*
X17737Y14916D01*
X17725Y14917D01*
X17711Y14918D01*
X17694Y14918D01*
X17584Y14918D01*
X17584Y14600D01*
X17489Y14600D01*
X17489Y14600D01*
X18505Y14600D02*
X18417Y14600D01*
X18417Y15160D01*
X18400Y15145D01*
X18381Y15130D01*
X18358Y15115D01*
X18334Y15100D01*
X18309Y15085D01*
X18285Y15073D01*
X18263Y15063D01*
X18241Y15054D01*
X18241Y15139D01*
X18277Y15157D01*
X18311Y15177D01*
X18342Y15199D01*
X18370Y15223D01*
X18396Y15248D01*
X18417Y15272D01*
X18435Y15295D01*
X18448Y15319D01*
X18505Y15319D01*
X18505Y14600D01*
X18505Y14600D01*
G37*
%LNtop silkscreen component 442748f89a67850a*%
X29011Y4215D02*
X20989Y4215D01*
X20989Y20785*
X29011Y20785*
X29011Y4215*
D12*
X20440Y9075D03*
G36*
X19544Y20264D02*
X19629Y20276D01*
X19632Y20238D01*
X19639Y20207D01*
X19648Y20182D01*
X19660Y20164D01*
X19675Y20150D01*
X19693Y20141D01*
X19713Y20135D01*
X19736Y20133D01*
X19753Y20134D01*
X19769Y20138D01*
X19784Y20143D01*
X19797Y20150D01*
X19809Y20159D01*
X19819Y20169D01*
X19827Y20181D01*
X19833Y20194D01*
X19837Y20210D01*
X19840Y20231D01*
X19842Y20255D01*
X19843Y20284D01*
X19843Y20777D01*
X19937Y20777D01*
X19937Y20289D01*
X19936Y20247D01*
X19932Y20210D01*
X19925Y20177D01*
X19916Y20150D01*
X19903Y20127D01*
X19888Y20107D01*
X19869Y20089D01*
X19847Y20075D01*
X19822Y20064D01*
X19796Y20055D01*
X19767Y20051D01*
X19736Y20049D01*
X19692Y20052D01*
X19653Y20063D01*
X19620Y20079D01*
X19592Y20103D01*
X19570Y20134D01*
X19555Y20171D01*
X19546Y20214D01*
X19544Y20264D01*
X19544Y20264D01*
X20518Y20146D02*
X20518Y20061D01*
X20045Y20061D01*
X20046Y20077D01*
X20047Y20092D01*
X20051Y20107D01*
X20056Y20122D01*
X20066Y20146D01*
X20079Y20170D01*
X20095Y20194D01*
X20113Y20217D01*
X20136Y20242D01*
X20162Y20268D01*
X20193Y20296D01*
X20228Y20326D01*
X20282Y20371D01*
X20326Y20412D01*
X20361Y20447D01*
X20386Y20477D01*
X20404Y20505D01*
X20417Y20532D01*
X20425Y20558D01*
X20427Y20583D01*
X20425Y20608D01*
X20418Y20631D01*
X20406Y20652D01*
X20390Y20671D01*
X20370Y20687D01*
X20347Y20698D01*
X20321Y20705D01*
X20292Y20707D01*
X20262Y20705D01*
X20235Y20698D01*
X20211Y20686D01*
X20191Y20669D01*
X20174Y20648D01*
X20162Y20624D01*
X20155Y20596D01*
X20152Y20564D01*
X20062Y20573D01*
X20070Y20620D01*
X20084Y20662D01*
X20105Y20697D01*
X20132Y20727D01*
X20165Y20750D01*
X20203Y20767D01*
X20246Y20777D01*
X20294Y20780D01*
X20343Y20776D01*
X20387Y20766D01*
X20425Y20748D01*
X20457Y20723D01*
X20484Y20693D01*
X20502Y20659D01*
X20514Y20622D01*
X20517Y20581D01*
X20516Y20560D01*
X20513Y20539D01*
X20508Y20518D01*
X20500Y20497D01*
X20490Y20476D01*
X20477Y20454D01*
X20460Y20432D01*
X20442Y20409D01*
X20418Y20384D01*
X20387Y20355D01*
X20350Y20321D01*
X20306Y20283D01*
X20270Y20253D01*
X20241Y20228D01*
X20219Y20208D01*
X20204Y20193D01*
X20194Y20181D01*
X20184Y20170D01*
X20175Y20158D01*
X20167Y20146D01*
X20518Y20146D01*
X20518Y20146D01*
G37*
%LNtext*%
G36*
X18877Y23200D02*
X18877Y23916D01*
X19147Y23916D01*
X19181Y23915D01*
X19210Y23914D01*
X19235Y23912D01*
X19256Y23909D01*
X19281Y23904D01*
X19305Y23896D01*
X19326Y23887D01*
X19344Y23876D01*
X19361Y23862D01*
X19377Y23846D01*
X19390Y23827D01*
X19402Y23806D01*
X19411Y23784D01*
X19418Y23760D01*
X19422Y23735D01*
X19424Y23709D01*
X19420Y23665D01*
X19409Y23624D01*
X19391Y23588D01*
X19365Y23554D01*
X19331Y23527D01*
X19284Y23507D01*
X19226Y23495D01*
X19204Y23494D01*
X19200Y23578D01*
X19235Y23584D01*
X19265Y23595D01*
X19287Y23610D01*
X19304Y23628D01*
X19316Y23651D01*
X19323Y23677D01*
X19326Y23706D01*
X19324Y23728D01*
X19320Y23748D01*
X19313Y23766D01*
X19303Y23783D01*
X19291Y23797D01*
X19277Y23809D01*
X19261Y23819D01*
X19243Y23825D01*
X19229Y23828D01*
X19209Y23830D01*
X19185Y23831D01*
X19155Y23831D01*
X18972Y23831D01*
X18972Y23575D01*
X18972Y23575D01*
X19157Y23575D01*
X19200Y23578D01*
X19204Y23494D01*
X19155Y23491D01*
X18972Y23491D01*
X18972Y23200D01*
X18877Y23200D01*
X18877Y23200D01*
X20055Y23451D02*
X20150Y23427D01*
X20132Y23372D01*
X20108Y23324D01*
X20078Y23283D01*
X20042Y23249D01*
X20002Y23222D01*
X19956Y23203D01*
X19907Y23192D01*
X19853Y23188D01*
X19798Y23191D01*
X19748Y23200D01*
X19704Y23214D01*
X19665Y23235D01*
X19631Y23261D01*
X19601Y23293D01*
X19576Y23329D01*
X19555Y23371D01*
X19538Y23417D01*
X19526Y23464D01*
X19519Y23513D01*
X19517Y23563D01*
X19519Y23617D01*
X19527Y23668D01*
X19541Y23715D01*
X19560Y23758D01*
X19583Y23797D01*
X19611Y23832D01*
X19644Y23861D01*
X19681Y23885D01*
X19722Y23904D01*
X19764Y23917D01*
X19808Y23925D01*
X19855Y23928D01*
X19906Y23925D01*
X19954Y23914D01*
X19997Y23897D01*
X20035Y23873D01*
X20069Y23843D01*
X20098Y23808D01*
X20120Y23766D01*
X20137Y23720D01*
X20044Y23698D01*
X20030Y23734D01*
X20014Y23765D01*
X19994Y23791D01*
X19972Y23811D01*
X19947Y23827D01*
X19918Y23838D01*
X19887Y23845D01*
X19853Y23847D01*
X19813Y23845D01*
X19777Y23837D01*
X19744Y23825D01*
X19715Y23807D01*
X19689Y23786D01*
X19668Y23761D01*
X19650Y23733D01*
X19637Y23701D01*
X19627Y23668D01*
X19620Y23634D01*
X19616Y23599D01*
X19614Y23564D01*
X19616Y23520D01*
X19621Y23478D01*
X19629Y23440D01*
X19641Y23404D01*
X19656Y23372D01*
X19675Y23345D01*
X19698Y23322D01*
X19724Y23303D01*
X19752Y23288D01*
X19782Y23277D01*
X19813Y23271D01*
X19845Y23269D01*
X19884Y23272D01*
X19919Y23280D01*
X19951Y23295D01*
X19980Y23315D01*
X20006Y23340D01*
X20026Y23372D01*
X20043Y23409D01*
X20055Y23451D01*
X20055Y23451D01*
X20533Y23200D02*
X20533Y23719D01*
X20621Y23719D01*
X20621Y23200D01*
X20533Y23200D01*
X20533Y23200D01*
X20533Y23815D02*
X20533Y23916D01*
X20621Y23916D01*
X20621Y23815D01*
X20533Y23815D01*
X20533Y23815D01*
X20755Y23200D02*
X20755Y23719D01*
X20834Y23719D01*
X20834Y23645D01*
X20866Y23682D01*
X20904Y23709D01*
X20948Y23725D01*
X20999Y23730D01*
X21022Y23729D01*
X21044Y23726D01*
X21065Y23721D01*
X21085Y23713D01*
X21104Y23704D01*
X21120Y23694D01*
X21133Y23682D01*
X21144Y23669D01*
X21153Y23655D01*
X21161Y23639D01*
X21167Y23622D01*
X21172Y23604D01*
X21174Y23590D01*
X21175Y23571D01*
X21176Y23547D01*
X21176Y23519D01*
X21176Y23200D01*
X21089Y23200D01*
X21089Y23515D01*
X21088Y23541D01*
X21086Y23562D01*
X21083Y23581D01*
X21078Y23596D01*
X21072Y23608D01*
X21064Y23620D01*
X21054Y23630D01*
X21042Y23638D01*
X21028Y23645D01*
X21014Y23650D01*
X20998Y23653D01*
X20981Y23654D01*
X20954Y23652D01*
X20928Y23645D01*
X20905Y23634D01*
X20884Y23618D01*
X20866Y23597D01*
X20853Y23567D01*
X20846Y23529D01*
X20843Y23483D01*
X20843Y23200D01*
X20755Y23200D01*
X20755Y23200D01*
X21503Y23279D02*
X21516Y23201D01*
X21498Y23198D01*
X21481Y23195D01*
X21465Y23194D01*
X21449Y23193D01*
X21427Y23194D01*
X21407Y23197D01*
X21390Y23202D01*
X21375Y23208D01*
X21363Y23216D01*
X21353Y23226D01*
X21344Y23236D01*
X21338Y23248D01*
X21333Y23264D01*
X21330Y23286D01*
X21328Y23316D01*
X21327Y23352D01*
X21327Y23650D01*
X21263Y23650D01*
X21263Y23719D01*
X21327Y23719D01*
X21327Y23847D01*
X21415Y23900D01*
X21415Y23719D01*
X21503Y23719D01*
X21503Y23650D01*
X21415Y23650D01*
X21415Y23347D01*
X21415Y23330D01*
X21416Y23316D01*
X21417Y23306D01*
X21419Y23299D01*
X21422Y23294D01*
X21425Y23289D01*
X21430Y23285D01*
X21435Y23282D01*
X21440Y23279D01*
X21447Y23277D01*
X21455Y23276D01*
X21465Y23275D01*
X21472Y23275D01*
X21482Y23276D01*
X21492Y23277D01*
X21503Y23279D01*
X21503Y23279D01*
X21944Y23367D02*
X22035Y23356D01*
X22022Y23318D01*
X22004Y23285D01*
X21982Y23256D01*
X21955Y23232D01*
X21924Y23213D01*
X21889Y23199D01*
X21850Y23191D01*
X21807Y23188D01*
X21753Y23193D01*
X21705Y23206D01*
X21663Y23228D01*
X21626Y23258D01*
X21597Y23297D01*
X21576Y23343D01*
X21564Y23395D01*
X21560Y23455D01*
X21564Y23517D01*
X21577Y23571D01*
X21598Y23618D01*
X21627Y23658D01*
X21663Y23690D01*
X21705Y23712D01*
X21751Y23726D01*
X21802Y23730D01*
X21809Y23730D01*
X21803Y23658D01*
X21774Y23655D01*
X21747Y23648D01*
X21723Y23635D01*
X21701Y23617D01*
X21683Y23596D01*
X21669Y23570D01*
X21660Y23541D01*
X21655Y23509D01*
X21655Y23509D01*
X21945Y23509D01*
X21941Y23540D01*
X21934Y23566D01*
X21924Y23589D01*
X21912Y23607D01*
X21889Y23629D01*
X21864Y23645D01*
X21835Y23655D01*
X21803Y23658D01*
X21809Y23730D01*
X21852Y23726D01*
X21896Y23713D01*
X21937Y23690D01*
X21972Y23659D01*
X22001Y23620D01*
X22021Y23574D01*
X22034Y23521D01*
X22038Y23460D01*
X22038Y23456D01*
X22038Y23450D01*
X22038Y23444D01*
X22037Y23437D01*
X21651Y23437D01*
X21655Y23397D01*
X21665Y23361D01*
X21680Y23331D01*
X21699Y23306D01*
X21722Y23286D01*
X21748Y23272D01*
X21776Y23263D01*
X21807Y23261D01*
X21831Y23262D01*
X21852Y23267D01*
X21872Y23275D01*
X21890Y23286D01*
X21906Y23301D01*
X21920Y23319D01*
X21933Y23341D01*
X21944Y23367D01*
X21944Y23367D01*
X22144Y23200D02*
X22144Y23719D01*
X22223Y23719D01*
X22223Y23640D01*
X22238Y23665D01*
X22252Y23686D01*
X22266Y23702D01*
X22279Y23713D01*
X22292Y23720D01*
X22306Y23726D01*
X22321Y23729D01*
X22336Y23730D01*
X22358Y23729D01*
X22380Y23723D01*
X22403Y23714D01*
X22426Y23702D01*
X22396Y23620D01*
X22380Y23629D01*
X22363Y23635D01*
X22347Y23638D01*
X22331Y23639D01*
X22317Y23638D01*
X22304Y23635D01*
X22291Y23630D01*
X22279Y23622D01*
X22269Y23613D01*
X22260Y23601D01*
X22252Y23589D01*
X22247Y23574D01*
X22240Y23550D01*
X22236Y23525D01*
X22233Y23499D01*
X22232Y23471D01*
X22232Y23200D01*
X22144Y23200D01*
X22144Y23200D01*
X22478Y23200D02*
X22478Y23719D01*
X22557Y23719D01*
X22557Y23645D01*
X22589Y23682D01*
X22627Y23709D01*
X22672Y23725D01*
X22722Y23730D01*
X22745Y23729D01*
X22767Y23726D01*
X22788Y23721D01*
X22809Y23713D01*
X22827Y23704D01*
X22843Y23694D01*
X22856Y23682D01*
X22867Y23669D01*
X22876Y23655D01*
X22884Y23639D01*
X22890Y23622D01*
X22895Y23604D01*
X22897Y23590D01*
X22898Y23571D01*
X22899Y23547D01*
X22900Y23519D01*
X22900Y23200D01*
X22812Y23200D01*
X22812Y23515D01*
X22811Y23541D01*
X22809Y23562D01*
X22806Y23581D01*
X22801Y23596D01*
X22795Y23608D01*
X22787Y23620D01*
X22777Y23630D01*
X22765Y23638D01*
X22751Y23645D01*
X22737Y23650D01*
X22721Y23653D01*
X22704Y23654D01*
X22677Y23652D01*
X22651Y23645D01*
X22628Y23634D01*
X22607Y23618D01*
X22589Y23597D01*
X22576Y23567D01*
X22569Y23529D01*
X22566Y23483D01*
X22566Y23200D01*
X22478Y23200D01*
X22478Y23200D01*
X23373Y23264D02*
X23349Y23245D01*
X23345Y23242D01*
X23312Y23291D01*
X23327Y23306D01*
X23341Y23322D01*
X23351Y23340D01*
X23357Y23357D01*
X23362Y23377D01*
X23365Y23401D01*
X23365Y23428D01*
X23365Y23460D01*
X23365Y23460D01*
X23339Y23451D01*
X23306Y23442D01*
X23267Y23434D01*
X23222Y23427D01*
X23197Y23423D01*
X23176Y23419D01*
X23158Y23414D01*
X23145Y23409D01*
X23135Y23404D01*
X23125Y23397D01*
X23117Y23390D01*
X23111Y23381D01*
X23105Y23371D01*
X23101Y23361D01*
X23099Y23350D01*
X23098Y23339D01*
X23100Y23322D01*
X23105Y23307D01*
X23113Y23293D01*
X23125Y23281D01*
X23140Y23270D01*
X23158Y23263D01*
X23179Y23259D01*
X23203Y23257D01*
X23228Y23259D01*
X23251Y23263D01*
X23273Y23270D01*
X23293Y23279D01*
X23312Y23291D01*
X23345Y23242D01*
X23325Y23229D01*
X23302Y23215D01*
X23279Y23205D01*
X23256Y23198D01*
X23232Y23193D01*
X23207Y23189D01*
X23182Y23188D01*
X23142Y23191D01*
X23106Y23199D01*
X23076Y23212D01*
X23050Y23230D01*
X23030Y23252D01*
X23016Y23278D01*
X23007Y23306D01*
X23005Y23337D01*
X23006Y23355D01*
X23009Y23373D01*
X23014Y23390D01*
X23022Y23406D01*
X23031Y23421D01*
X23042Y23435D01*
X23054Y23447D01*
X23067Y23457D01*
X23082Y23466D01*
X23097Y23474D01*
X23113Y23480D01*
X23131Y23486D01*
X23145Y23489D01*
X23163Y23492D01*
X23184Y23496D01*
X23209Y23499D01*
X23258Y23505D01*
X23301Y23513D01*
X23337Y23521D01*
X23365Y23529D01*
X23366Y23537D01*
X23366Y23544D01*
X23366Y23549D01*
X23366Y23552D01*
X23364Y23577D01*
X23360Y23598D01*
X23352Y23615D01*
X23341Y23628D01*
X23322Y23641D01*
X23299Y23650D01*
X23272Y23656D01*
X23241Y23658D01*
X23212Y23656D01*
X23187Y23652D01*
X23166Y23645D01*
X23149Y23636D01*
X23136Y23623D01*
X23124Y23606D01*
X23114Y23584D01*
X23106Y23559D01*
X23020Y23571D01*
X23027Y23597D01*
X23035Y23620D01*
X23046Y23641D01*
X23058Y23660D01*
X23073Y23676D01*
X23091Y23690D01*
X23112Y23702D01*
X23136Y23712D01*
X23162Y23720D01*
X23191Y23726D01*
X23221Y23729D01*
X23254Y23730D01*
X23285Y23729D01*
X23314Y23726D01*
X23339Y23721D01*
X23362Y23715D01*
X23381Y23706D01*
X23398Y23697D01*
X23411Y23687D01*
X23423Y23675D01*
X23432Y23663D01*
X23439Y23649D01*
X23445Y23633D01*
X23450Y23616D01*
X23452Y23602D01*
X23453Y23584D01*
X23454Y23562D01*
X23454Y23534D01*
X23454Y23417D01*
X23455Y23362D01*
X23456Y23317D01*
X23457Y23284D01*
X23460Y23262D01*
X23463Y23246D01*
X23468Y23230D01*
X23475Y23215D01*
X23482Y23200D01*
X23390Y23200D01*
X23384Y23214D01*
X23379Y23230D01*
X23375Y23246D01*
X23373Y23264D01*
X23373Y23264D01*
X23589Y23200D02*
X23589Y23916D01*
X23676Y23916D01*
X23676Y23200D01*
X23589Y23200D01*
X23589Y23200D01*
X24571Y23916D02*
X24666Y23916D01*
X24666Y23502D01*
X24665Y23451D01*
X24660Y23405D01*
X24652Y23365D01*
X24642Y23331D01*
X24627Y23301D01*
X24608Y23273D01*
X24583Y23249D01*
X24554Y23228D01*
X24519Y23210D01*
X24480Y23198D01*
X24436Y23190D01*
X24386Y23188D01*
X24338Y23190D01*
X24295Y23196D01*
X24256Y23207D01*
X24222Y23222D01*
X24192Y23242D01*
X24167Y23265D01*
X24146Y23292D01*
X24131Y23323D01*
X24119Y23359D01*
X24110Y23401D01*
X24105Y23448D01*
X24103Y23502D01*
X24103Y23916D01*
X24198Y23916D01*
X24198Y23503D01*
X24199Y23459D01*
X24202Y23422D01*
X24208Y23390D01*
X24215Y23365D01*
X24225Y23344D01*
X24239Y23326D01*
X24255Y23310D01*
X24275Y23297D01*
X24297Y23287D01*
X24322Y23279D01*
X24349Y23275D01*
X24378Y23273D01*
X24427Y23276D01*
X24468Y23285D01*
X24501Y23300D01*
X24527Y23321D01*
X24546Y23350D01*
X24560Y23390D01*
X24569Y23441D01*
X24571Y23503D01*
X24571Y23916D01*
X24571Y23916D01*
X24792Y23430D02*
X24881Y23438D01*
X24885Y23412D01*
X24892Y23389D01*
X24900Y23368D01*
X24911Y23350D01*
X24924Y23333D01*
X24940Y23319D01*
X24960Y23305D01*
X24983Y23294D01*
X25008Y23285D01*
X25034Y23278D01*
X25063Y23274D01*
X25092Y23273D01*
X25119Y23274D01*
X25143Y23277D01*
X25167Y23282D01*
X25188Y23289D01*
X25208Y23298D01*
X25224Y23308D01*
X25238Y23320D01*
X25250Y23333D01*
X25259Y23347D01*
X25265Y23362D01*
X25269Y23378D01*
X25270Y23394D01*
X25269Y23411D01*
X25265Y23426D01*
X25259Y23440D01*
X25251Y23453D01*
X25239Y23465D01*
X25225Y23476D01*
X25207Y23486D01*
X25186Y23495D01*
X25167Y23502D01*
X25140Y23510D01*
X25104Y23519D01*
X25059Y23530D01*
X25013Y23542D01*
X24975Y23553D01*
X24944Y23564D01*
X24921Y23575D01*
X24897Y23589D01*
X24876Y23605D01*
X24858Y23623D01*
X24844Y23642D01*
X24833Y23662D01*
X24825Y23684D01*
X24821Y23707D01*
X24819Y23731D01*
X24821Y23757D01*
X24827Y23783D01*
X24836Y23808D01*
X24850Y23832D01*
X24867Y23854D01*
X24888Y23874D01*
X24912Y23890D01*
X24940Y23904D01*
X24970Y23914D01*
X25002Y23922D01*
X25036Y23927D01*
X25071Y23928D01*
X25110Y23926D01*
X25146Y23922D01*
X25180Y23914D01*
X25211Y23902D01*
X25240Y23888D01*
X25265Y23871D01*
X25287Y23850D01*
X25305Y23827D01*
X25319Y23801D01*
X25330Y23774D01*
X25337Y23745D01*
X25340Y23714D01*
X25249Y23707D01*
X25243Y23739D01*
X25233Y23767D01*
X25219Y23790D01*
X25200Y23810D01*
X25176Y23825D01*
X25147Y23836D01*
X25114Y23842D01*
X25075Y23845D01*
X25035Y23843D01*
X25001Y23837D01*
X24972Y23827D01*
X24950Y23813D01*
X24932Y23796D01*
X24920Y23778D01*
X24913Y23759D01*
X24910Y23737D01*
X24912Y23719D01*
X24917Y23702D01*
X24926Y23687D01*
X24938Y23674D01*
X24957Y23661D01*
X24988Y23648D01*
X25029Y23636D01*
X25081Y23623D01*
X25134Y23610D01*
X25178Y23598D01*
X25213Y23587D01*
X25239Y23577D01*
X25269Y23562D01*
X25294Y23544D01*
X25315Y23525D01*
X25332Y23504D01*
X25345Y23481D01*
X25354Y23456D01*
X25360Y23430D01*
X25361Y23402D01*
X25359Y23374D01*
X25353Y23347D01*
X25343Y23320D01*
X25329Y23294D01*
X25311Y23271D01*
X25289Y23250D01*
X25264Y23231D01*
X25235Y23216D01*
X25203Y23204D01*
X25170Y23195D01*
X25134Y23190D01*
X25097Y23188D01*
X25050Y23190D01*
X25008Y23195D01*
X24969Y23204D01*
X24934Y23216D01*
X24903Y23232D01*
X24875Y23252D01*
X24851Y23275D01*
X24831Y23301D01*
X24815Y23331D01*
X24802Y23362D01*
X24795Y23395D01*
X24792Y23430D01*
X24792Y23430D01*
X25487Y23200D02*
X25487Y23916D01*
X25756Y23916D01*
X25795Y23914D01*
X25829Y23910D01*
X25860Y23904D01*
X25887Y23894D01*
X25911Y23882D01*
X25931Y23867D01*
X25949Y23848D01*
X25965Y23827D01*
X25977Y23804D01*
X25986Y23781D01*
X25991Y23757D01*
X25993Y23733D01*
X25991Y23710D01*
X25987Y23688D01*
X25979Y23667D01*
X25968Y23646D01*
X25954Y23627D01*
X25937Y23610D01*
X25916Y23594D01*
X25893Y23581D01*
X25865Y23513D01*
X25852Y23519D01*
X25832Y23524D01*
X25808Y23528D01*
X25779Y23530D01*
X25747Y23531D01*
X25582Y23531D01*
X25582Y23284D01*
X25582Y23284D01*
X25760Y23284D01*
X25781Y23285D01*
X25799Y23285D01*
X25813Y23286D01*
X25824Y23288D01*
X25840Y23291D01*
X25854Y23296D01*
X25867Y23301D01*
X25879Y23307D01*
X25890Y23315D01*
X25899Y23324D01*
X25908Y23335D01*
X25915Y23347D01*
X25921Y23361D01*
X25926Y23375D01*
X25928Y23391D01*
X25929Y23408D01*
X25928Y23427D01*
X25924Y23445D01*
X25918Y23462D01*
X25909Y23477D01*
X25898Y23491D01*
X25884Y23502D01*
X25869Y23512D01*
X25865Y23513D01*
X25893Y23581D01*
X25859Y23638D01*
X25871Y23647D01*
X25881Y23659D01*
X25889Y23672D01*
X25895Y23687D01*
X25898Y23703D01*
X25900Y23721D01*
X25899Y23739D01*
X25895Y23755D01*
X25890Y23770D01*
X25883Y23784D01*
X25873Y23797D01*
X25862Y23807D01*
X25849Y23815D01*
X25834Y23821D01*
X25815Y23826D01*
X25791Y23829D01*
X25761Y23831D01*
X25725Y23831D01*
X25582Y23831D01*
X25582Y23615D01*
X25582Y23615D01*
X25737Y23615D01*
X25766Y23616D01*
X25791Y23617D01*
X25811Y23620D01*
X25827Y23623D01*
X25844Y23630D01*
X25859Y23638D01*
X25893Y23581D01*
X25923Y23570D01*
X25950Y23555D01*
X25973Y23537D01*
X25993Y23516D01*
X26008Y23492D01*
X26019Y23466D01*
X26025Y23438D01*
X26028Y23408D01*
X26026Y23383D01*
X26022Y23359D01*
X26016Y23336D01*
X26006Y23314D01*
X25995Y23294D01*
X25983Y23276D01*
X25969Y23260D01*
X25954Y23247D01*
X25937Y23236D01*
X25919Y23227D01*
X25898Y23219D01*
X25875Y23212D01*
X25851Y23207D01*
X25823Y23203D01*
X25793Y23201D01*
X25760Y23200D01*
X25487Y23200D01*
X25487Y23200D01*
X26425Y23001D02*
X26425Y23719D01*
X26505Y23719D01*
X26505Y23651D01*
X26548Y23609D01*
X26547Y23609D01*
X26528Y23580D01*
X26515Y23545D01*
X26507Y23503D01*
X26504Y23456D01*
X26504Y23456D01*
X26507Y23410D01*
X26514Y23369D01*
X26527Y23336D01*
X26545Y23308D01*
X26566Y23287D01*
X26589Y23273D01*
X26615Y23264D01*
X26643Y23261D01*
X26671Y23264D01*
X26697Y23273D01*
X26721Y23288D01*
X26743Y23310D01*
X26761Y23338D01*
X26774Y23373D01*
X26782Y23415D01*
X26785Y23464D01*
X26782Y23510D01*
X26775Y23550D01*
X26762Y23584D01*
X26744Y23612D01*
X26723Y23634D01*
X26699Y23649D01*
X26674Y23658D01*
X26647Y23661D01*
X26619Y23658D01*
X26594Y23648D01*
X26570Y23632D01*
X26548Y23609D01*
X26505Y23651D01*
X26519Y23670D01*
X26535Y23686D01*
X26551Y23699D01*
X26569Y23710D01*
X26587Y23719D01*
X26608Y23725D01*
X26631Y23729D01*
X26655Y23730D01*
X26687Y23728D01*
X26717Y23722D01*
X26746Y23711D01*
X26772Y23696D01*
X26796Y23677D01*
X26817Y23655D01*
X26834Y23629D01*
X26849Y23600D01*
X26860Y23568D01*
X26868Y23534D01*
X26873Y23500D01*
X26875Y23463D01*
X26873Y23424D01*
X26868Y23388D01*
X26859Y23353D01*
X26846Y23320D01*
X26830Y23290D01*
X26811Y23264D01*
X26789Y23241D01*
X26763Y23222D01*
X26736Y23207D01*
X26707Y23197D01*
X26678Y23190D01*
X26649Y23188D01*
X26627Y23189D01*
X26607Y23193D01*
X26588Y23199D01*
X26570Y23207D01*
X26553Y23217D01*
X26538Y23228D01*
X26524Y23240D01*
X26512Y23254D01*
X26512Y23001D01*
X26425Y23001D01*
X26425Y23001D01*
X26948Y23459D02*
X26953Y23527D01*
X26968Y23585D01*
X26993Y23633D01*
X27028Y23673D01*
X27063Y23698D01*
X27102Y23716D01*
X27145Y23727D01*
X27191Y23730D01*
X27242Y23726D01*
X27288Y23713D01*
X27330Y23691D01*
X27366Y23660D01*
X27396Y23622D01*
X27417Y23577D01*
X27430Y23525D01*
X27434Y23467D01*
X27432Y23419D01*
X27426Y23377D01*
X27417Y23340D01*
X27404Y23309D01*
X27387Y23282D01*
X27367Y23258D01*
X27343Y23237D01*
X27316Y23220D01*
X27287Y23206D01*
X27256Y23196D01*
X27224Y23190D01*
X27191Y23188D01*
X27185Y23189D01*
X27191Y23261D01*
X27222Y23264D01*
X27251Y23273D01*
X27277Y23289D01*
X27300Y23310D01*
X27319Y23339D01*
X27333Y23373D01*
X27341Y23414D01*
X27343Y23462D01*
X27341Y23507D01*
X27333Y23547D01*
X27319Y23580D01*
X27300Y23608D01*
X27277Y23630D01*
X27251Y23645D01*
X27222Y23654D01*
X27191Y23658D01*
X27160Y23654D01*
X27131Y23645D01*
X27105Y23630D01*
X27082Y23608D01*
X27063Y23580D01*
X27049Y23546D01*
X27041Y23506D01*
X27038Y23459D01*
X27038Y23459D01*
X27041Y23413D01*
X27049Y23372D01*
X27063Y23338D01*
X27082Y23310D01*
X27105Y23288D01*
X27131Y23273D01*
X27160Y23264D01*
X27191Y23261D01*
X27185Y23189D01*
X27139Y23193D01*
X27093Y23206D01*
X27051Y23228D01*
X27015Y23258D01*
X26986Y23297D01*
X26965Y23343D01*
X26952Y23397D01*
X26948Y23459D01*
X26948Y23459D01*
X27633Y23200D02*
X27474Y23719D01*
X27565Y23719D01*
X27647Y23419D01*
X27678Y23308D01*
X27680Y23318D01*
X27686Y23339D01*
X27694Y23371D01*
X27705Y23415D01*
X27787Y23719D01*
X27878Y23719D01*
X27955Y23418D01*
X27981Y23319D01*
X28011Y23419D01*
X28100Y23719D01*
X28185Y23719D01*
X28023Y23200D01*
X27932Y23200D01*
X27849Y23511D01*
X27829Y23599D01*
X27724Y23200D01*
X27633Y23200D01*
X27633Y23200D01*
X28614Y23367D02*
X28705Y23356D01*
X28692Y23318D01*
X28674Y23285D01*
X28652Y23256D01*
X28625Y23232D01*
X28594Y23213D01*
X28559Y23199D01*
X28520Y23191D01*
X28477Y23188D01*
X28423Y23193D01*
X28375Y23206D01*
X28333Y23228D01*
X28296Y23258D01*
X28267Y23297D01*
X28246Y23343D01*
X28234Y23395D01*
X28230Y23455D01*
X28234Y23517D01*
X28247Y23571D01*
X28268Y23618D01*
X28297Y23658D01*
X28333Y23690D01*
X28374Y23712D01*
X28421Y23726D01*
X28472Y23730D01*
X28479Y23730D01*
X28473Y23658D01*
X28444Y23655D01*
X28417Y23648D01*
X28393Y23635D01*
X28371Y23617D01*
X28353Y23596D01*
X28339Y23570D01*
X28330Y23541D01*
X28325Y23509D01*
X28325Y23509D01*
X28615Y23509D01*
X28611Y23540D01*
X28604Y23566D01*
X28594Y23589D01*
X28582Y23607D01*
X28559Y23629D01*
X28534Y23645D01*
X28505Y23655D01*
X28473Y23658D01*
X28479Y23730D01*
X28522Y23726D01*
X28566Y23713D01*
X28606Y23690D01*
X28642Y23659D01*
X28671Y23620D01*
X28691Y23574D01*
X28704Y23521D01*
X28708Y23460D01*
X28708Y23456D01*
X28708Y23450D01*
X28707Y23444D01*
X28707Y23437D01*
X28321Y23437D01*
X28325Y23397D01*
X28335Y23361D01*
X28350Y23331D01*
X28369Y23306D01*
X28392Y23286D01*
X28418Y23272D01*
X28446Y23263D01*
X28477Y23261D01*
X28501Y23262D01*
X28522Y23267D01*
X28542Y23275D01*
X28560Y23286D01*
X28576Y23301D01*
X28590Y23319D01*
X28603Y23341D01*
X28614Y23367D01*
X28614Y23367D01*
X28814Y23200D02*
X28814Y23719D01*
X28893Y23719D01*
X28893Y23640D01*
X28908Y23665D01*
X28922Y23686D01*
X28936Y23702D01*
X28949Y23713D01*
X28962Y23720D01*
X28976Y23726D01*
X28991Y23729D01*
X29006Y23730D01*
X29028Y23729D01*
X29050Y23723D01*
X29073Y23714D01*
X29096Y23702D01*
X29066Y23620D01*
X29050Y23629D01*
X29033Y23635D01*
X29017Y23638D01*
X29001Y23639D01*
X28987Y23638D01*
X28974Y23635D01*
X28961Y23630D01*
X28949Y23622D01*
X28939Y23613D01*
X28930Y23601D01*
X28922Y23589D01*
X28917Y23574D01*
X28910Y23550D01*
X28906Y23525D01*
X28903Y23499D01*
X28902Y23471D01*
X28902Y23200D01*
X28814Y23200D01*
X28814Y23200D01*
X23482Y21900D02*
X23204Y22616D01*
X23307Y22616D01*
X23493Y22096D01*
X23504Y22065D01*
X23514Y22035D01*
X23523Y22006D01*
X23531Y21979D01*
X23539Y22008D01*
X23549Y22037D01*
X23558Y22067D01*
X23569Y22096D01*
X23762Y22616D01*
X23859Y22616D01*
X23579Y21900D01*
X23482Y21900D01*
X23482Y21900D01*
X24233Y22067D02*
X24324Y22056D01*
X24311Y22018D01*
X24293Y21985D01*
X24271Y21956D01*
X24244Y21932D01*
X24213Y21913D01*
X24178Y21899D01*
X24139Y21891D01*
X24096Y21888D01*
X24042Y21893D01*
X23994Y21906D01*
X23951Y21928D01*
X23915Y21958D01*
X23886Y21997D01*
X23865Y22043D01*
X23853Y22095D01*
X23848Y22155D01*
X23853Y22217D01*
X23865Y22271D01*
X23886Y22318D01*
X23916Y22358D01*
X23952Y22390D01*
X23993Y22412D01*
X24039Y22426D01*
X24091Y22430D01*
X24098Y22430D01*
X24092Y22358D01*
X24063Y22355D01*
X24036Y22348D01*
X24012Y22335D01*
X23990Y22317D01*
X23971Y22296D01*
X23958Y22270D01*
X23949Y22241D01*
X23944Y22209D01*
X23944Y22209D01*
X24234Y22209D01*
X24229Y22240D01*
X24222Y22266D01*
X24213Y22289D01*
X24201Y22307D01*
X24178Y22329D01*
X24152Y22345D01*
X24124Y22355D01*
X24092Y22358D01*
X24098Y22430D01*
X24140Y22426D01*
X24185Y22413D01*
X24225Y22390D01*
X24261Y22359D01*
X24289Y22320D01*
X24310Y22274D01*
X24322Y22221D01*
X24326Y22160D01*
X24326Y22156D01*
X24326Y22150D01*
X24326Y22144D01*
X24326Y22137D01*
X23939Y22137D01*
X23944Y22097D01*
X23954Y22061D01*
X23968Y22031D01*
X23988Y22006D01*
X24011Y21986D01*
X24036Y21972D01*
X24065Y21963D01*
X24096Y21961D01*
X24119Y21962D01*
X24141Y21967D01*
X24161Y21975D01*
X24179Y21986D01*
X24195Y22001D01*
X24209Y22019D01*
X24222Y22041D01*
X24233Y22067D01*
X24233Y22067D01*
X24433Y21900D02*
X24433Y22419D01*
X24512Y22419D01*
X24512Y22340D01*
X24527Y22365D01*
X24541Y22386D01*
X24555Y22402D01*
X24568Y22413D01*
X24581Y22420D01*
X24595Y22426D01*
X24609Y22429D01*
X24624Y22430D01*
X24647Y22429D01*
X24669Y22423D01*
X24692Y22414D01*
X24715Y22402D01*
X24684Y22320D01*
X24668Y22329D01*
X24652Y22335D01*
X24636Y22338D01*
X24620Y22339D01*
X24606Y22338D01*
X24593Y22335D01*
X24580Y22330D01*
X24568Y22322D01*
X24558Y22313D01*
X24549Y22301D01*
X24541Y22289D01*
X24535Y22274D01*
X24529Y22250D01*
X24524Y22225D01*
X24522Y22199D01*
X24521Y22171D01*
X24521Y21900D01*
X24433Y21900D01*
X24433Y21900D01*
X24732Y22055D02*
X24819Y22068D01*
X24824Y22044D01*
X24833Y22022D01*
X24844Y22004D01*
X24859Y21988D01*
X24878Y21976D01*
X24900Y21968D01*
X24925Y21962D01*
X24953Y21961D01*
X24981Y21962D01*
X25006Y21967D01*
X25026Y21974D01*
X25043Y21985D01*
X25056Y21998D01*
X25065Y22012D01*
X25070Y22027D01*
X25072Y22043D01*
X25070Y22057D01*
X25066Y22070D01*
X25058Y22081D01*
X25046Y22090D01*
X25034Y22096D01*
X25015Y22103D01*
X24989Y22111D01*
X24956Y22120D01*
X24912Y22132D01*
X24875Y22142D01*
X24845Y22153D01*
X24822Y22162D01*
X24805Y22172D01*
X24789Y22183D01*
X24776Y22196D01*
X24766Y22211D01*
X24757Y22227D01*
X24751Y22244D01*
X24748Y22262D01*
X24746Y22281D01*
X24747Y22298D01*
X24750Y22314D01*
X24755Y22330D01*
X24762Y22345D01*
X24771Y22359D01*
X24781Y22372D01*
X24793Y22384D01*
X24805Y22394D01*
X24817Y22401D01*
X24830Y22408D01*
X24845Y22414D01*
X24861Y22420D01*
X24879Y22424D01*
X24898Y22428D01*
X24917Y22430D01*
X24937Y22430D01*
X24967Y22429D01*
X24995Y22426D01*
X25020Y22420D01*
X25044Y22413D01*
X25066Y22403D01*
X25085Y22392D01*
X25100Y22379D01*
X25113Y22365D01*
X25123Y22349D01*
X25131Y22330D01*
X25138Y22309D01*
X25143Y22285D01*
X25057Y22273D01*
X25053Y22292D01*
X25046Y22309D01*
X25036Y22323D01*
X25023Y22336D01*
X25008Y22345D01*
X24989Y22352D01*
X24968Y22357D01*
X24944Y22358D01*
X24916Y22357D01*
X24892Y22353D01*
X24872Y22347D01*
X24857Y22338D01*
X24846Y22328D01*
X24838Y22316D01*
X24833Y22304D01*
X24831Y22291D01*
X24832Y22283D01*
X24834Y22275D01*
X24837Y22267D01*
X24842Y22260D01*
X24848Y22254D01*
X24856Y22247D01*
X24865Y22242D01*
X24876Y22237D01*
X24886Y22234D01*
X24902Y22229D01*
X24924Y22222D01*
X24953Y22214D01*
X24997Y22203D01*
X25033Y22192D01*
X25062Y22182D01*
X25084Y22174D01*
X25101Y22165D01*
X25116Y22154D01*
X25130Y22142D01*
X25141Y22128D01*
X25151Y22111D01*
X25157Y22094D01*
X25161Y22074D01*
X25162Y22052D01*
X25161Y22031D01*
X25156Y22010D01*
X25148Y21989D01*
X25137Y21970D01*
X25123Y21951D01*
X25105Y21935D01*
X25086Y21921D01*
X25063Y21910D01*
X25038Y21900D01*
X25011Y21894D01*
X24983Y21890D01*
X24953Y21888D01*
X24906Y21891D01*
X24864Y21899D01*
X24829Y21912D01*
X24799Y21930D01*
X24775Y21954D01*
X24756Y21982D01*
X24741Y22016D01*
X24732Y22055D01*
X24732Y22055D01*
X25267Y21900D02*
X25267Y22419D01*
X25355Y22419D01*
X25355Y21900D01*
X25267Y21900D01*
X25267Y21900D01*
X25267Y22515D02*
X25267Y22616D01*
X25355Y22616D01*
X25355Y22515D01*
X25267Y22515D01*
X25267Y22515D01*
X25456Y22159D02*
X25461Y22227D01*
X25476Y22285D01*
X25501Y22333D01*
X25536Y22373D01*
X25572Y22398D01*
X25611Y22416D01*
X25653Y22427D01*
X25700Y22430D01*
X25751Y22426D01*
X25797Y22413D01*
X25838Y22391D01*
X25874Y22360D01*
X25904Y22322D01*
X25925Y22277D01*
X25938Y22225D01*
X25942Y22167D01*
X25940Y22119D01*
X25935Y22077D01*
X25925Y22040D01*
X25912Y22009D01*
X25895Y21982D01*
X25875Y21958D01*
X25852Y21937D01*
X25825Y21920D01*
X25795Y21906D01*
X25765Y21896D01*
X25733Y21890D01*
X25700Y21888D01*
X25693Y21889D01*
X25700Y21961D01*
X25731Y21964D01*
X25759Y21973D01*
X25785Y21989D01*
X25808Y22010D01*
X25827Y22039D01*
X25841Y22073D01*
X25849Y22114D01*
X25852Y22162D01*
X25849Y22207D01*
X25841Y22247D01*
X25827Y22280D01*
X25808Y22308D01*
X25785Y22330D01*
X25759Y22345D01*
X25731Y22354D01*
X25700Y22358D01*
X25668Y22354D01*
X25639Y22345D01*
X25613Y22330D01*
X25590Y22308D01*
X25571Y22280D01*
X25558Y22246D01*
X25549Y22206D01*
X25547Y22159D01*
X25547Y22159D01*
X25549Y22113D01*
X25558Y22072D01*
X25571Y22038D01*
X25590Y22010D01*
X25613Y21988D01*
X25639Y21973D01*
X25668Y21964D01*
X25700Y21961D01*
X25693Y21889D01*
X25648Y21893D01*
X25601Y21906D01*
X25560Y21928D01*
X25524Y21958D01*
X25494Y21997D01*
X25473Y22043D01*
X25461Y22097D01*
X25456Y22159D01*
X25456Y22159D01*
X26045Y21900D02*
X26045Y22419D01*
X26124Y22419D01*
X26124Y22345D01*
X26156Y22382D01*
X26194Y22409D01*
X26239Y22425D01*
X26289Y22430D01*
X26312Y22429D01*
X26334Y22426D01*
X26355Y22421D01*
X26376Y22413D01*
X26394Y22404D01*
X26410Y22394D01*
X26423Y22382D01*
X26434Y22369D01*
X26443Y22355D01*
X26451Y22339D01*
X26457Y22322D01*
X26462Y22304D01*
X26464Y22290D01*
X26465Y22271D01*
X26466Y22247D01*
X26467Y22219D01*
X26467Y21900D01*
X26379Y21900D01*
X26379Y22215D01*
X26378Y22241D01*
X26376Y22262D01*
X26373Y22281D01*
X26368Y22296D01*
X26362Y22308D01*
X26354Y22320D01*
X26344Y22330D01*
X26332Y22338D01*
X26318Y22345D01*
X26304Y22350D01*
X26288Y22353D01*
X26271Y22354D01*
X26244Y22352D01*
X26219Y22345D01*
X26195Y22334D01*
X26174Y22318D01*
X26156Y22297D01*
X26143Y22267D01*
X26136Y22229D01*
X26133Y22183D01*
X26133Y21900D01*
X26045Y21900D01*
X26045Y21900D01*
X27186Y21900D02*
X27098Y21900D01*
X27098Y22460D01*
X27081Y22445D01*
X27061Y22430D01*
X27039Y22415D01*
X27015Y22400D01*
X26990Y22385D01*
X26966Y22373D01*
X26943Y22363D01*
X26922Y22354D01*
X26922Y22439D01*
X26958Y22457D01*
X26991Y22477D01*
X27022Y22499D01*
X27051Y22523D01*
X27077Y22548D01*
X27098Y22572D01*
X27116Y22595D01*
X27129Y22619D01*
X27186Y22619D01*
X27186Y21900D01*
X27186Y21900D01*
X27460Y21900D02*
X27460Y22000D01*
X27560Y22000D01*
X27560Y21900D01*
X27460Y21900D01*
X27460Y21900D01*
X27689Y22253D02*
X27690Y22313D01*
X27695Y22368D01*
X27703Y22416D01*
X27715Y22457D01*
X27730Y22494D01*
X27747Y22526D01*
X27768Y22554D01*
X27793Y22577D01*
X27820Y22595D01*
X27851Y22608D01*
X27885Y22616D01*
X27922Y22619D01*
X27950Y22617D01*
X27976Y22613D01*
X28001Y22606D01*
X28023Y22596D01*
X28044Y22583D01*
X28063Y22567D01*
X28080Y22549D01*
X28095Y22529D01*
X28108Y22506D01*
X28120Y22480D01*
X28131Y22452D01*
X28139Y22422D01*
X28147Y22388D01*
X28152Y22349D01*
X28155Y22304D01*
X28156Y22253D01*
X28154Y22193D01*
X28149Y22139D01*
X28141Y22091D01*
X28130Y22050D01*
X28115Y22013D01*
X28097Y21981D01*
X28076Y21953D01*
X28052Y21930D01*
X28025Y21912D01*
X27994Y21898D01*
X27960Y21890D01*
X27922Y21888D01*
X27915Y21888D01*
X27922Y21960D01*
X27951Y21964D01*
X27978Y21975D01*
X28002Y21993D01*
X28024Y22019D01*
X28042Y22055D01*
X28055Y22107D01*
X28063Y22172D01*
X28065Y22253D01*
X28063Y22334D01*
X28055Y22400D01*
X28042Y22451D01*
X28024Y22488D01*
X28002Y22513D01*
X27978Y22531D01*
X27951Y22542D01*
X27921Y22546D01*
X27892Y22543D01*
X27867Y22533D01*
X27844Y22517D01*
X27825Y22495D01*
X27805Y22455D01*
X27790Y22402D01*
X27782Y22334D01*
X27779Y22253D01*
X27779Y22253D01*
X27782Y22172D01*
X27789Y22106D01*
X27802Y22055D01*
X27820Y22018D01*
X27842Y21993D01*
X27866Y21975D01*
X27893Y21964D01*
X27922Y21960D01*
X27915Y21888D01*
X27873Y21892D01*
X27830Y21906D01*
X27792Y21930D01*
X27760Y21962D01*
X27729Y22014D01*
X27706Y22079D01*
X27693Y22159D01*
X27689Y22253D01*
X27689Y22253D01*
X28294Y21900D02*
X28294Y22000D01*
X28394Y22000D01*
X28394Y21900D01*
X28294Y21900D01*
X28294Y21900D01*
X28985Y21984D02*
X28985Y21900D01*
X28512Y21900D01*
X28512Y21916D01*
X28514Y21931D01*
X28517Y21946D01*
X28522Y21961D01*
X28532Y21985D01*
X28545Y22009D01*
X28561Y22033D01*
X28580Y22056D01*
X28602Y22081D01*
X28628Y22107D01*
X28659Y22135D01*
X28695Y22165D01*
X28748Y22210D01*
X28792Y22250D01*
X28827Y22286D01*
X28852Y22316D01*
X28870Y22344D01*
X28883Y22371D01*
X28891Y22397D01*
X28893Y22422D01*
X28891Y22447D01*
X28884Y22470D01*
X28872Y22491D01*
X28856Y22510D01*
X28836Y22526D01*
X28813Y22537D01*
X28787Y22544D01*
X28759Y22546D01*
X28728Y22544D01*
X28701Y22536D01*
X28678Y22525D01*
X28657Y22508D01*
X28640Y22487D01*
X28628Y22462D01*
X28621Y22434D01*
X28618Y22402D01*
X28528Y22412D01*
X28536Y22459D01*
X28550Y22501D01*
X28571Y22536D01*
X28598Y22566D01*
X28631Y22589D01*
X28669Y22606D01*
X28712Y22615D01*
X28761Y22619D01*
X28809Y22615D01*
X28853Y22604D01*
X28891Y22587D01*
X28924Y22562D01*
X28950Y22531D01*
X28969Y22498D01*
X28980Y22461D01*
X28984Y22420D01*
X28983Y22399D01*
X28979Y22377D01*
X28974Y22356D01*
X28966Y22336D01*
X28956Y22315D01*
X28943Y22293D01*
X28927Y22271D01*
X28908Y22248D01*
X28884Y22223D01*
X28854Y22194D01*
X28816Y22160D01*
X28772Y22122D01*
X28736Y22092D01*
X28707Y22066D01*
X28686Y22047D01*
X28671Y22032D01*
X28660Y22020D01*
X28650Y22008D01*
X28641Y21996D01*
X28634Y21984D01*
X28985Y21984D01*
X28985Y21984D01*
G37*
M02*