%FSLAX33Y33*%
%MOMM*%
%AMRect-W670710-H1320710-RO1.000*
21,1,0.67071,1.32071,0.,0.,180*%
%AMRect-W670710-H1320710-RO1.500*
21,1,0.67071,1.32071,0.,0.,90*%
%AMRect-W1720000-H1720000-RO1.500*
21,1,1.72,1.72,0.,0.,90*%
%ADD10C,0.0508*%
%ADD11C,0.508*%
%ADD12R,0.67071X1.32071*%
%ADD13C,3.*%
%ADD14C,6.35*%
%ADD15Rect-W670710-H1320710-RO1.000*%
%ADD16Rect-W670710-H1320710-RO1.500*%
%ADD17C,1.72*%
%ADD18C,3.1*%
%ADD19Rect-W1720000-H1720000-RO1.500*%
D10*
%LNpour fill*%
G01*
X29475Y24475D02*
X29475Y24475D01*
X0525Y24475*
X0525Y0525*
X29475Y0525*
X29475Y24475*
X14924Y16629D02*
X14924Y16629D01*
X14924Y16850*
X15076Y16850*
X15076Y16629*
X15091Y16614*
X15355Y16614*
X15357Y16614*
X16051Y16762*
X16053Y16762*
X16701Y17051*
X16703Y17052*
X17277Y17469*
X17279Y17471*
X17754Y17998*
X17755Y18000*
X18110Y18614*
X18111Y18616*
X18330Y19291*
X18330Y19293*
X18395Y19907*
X18380Y19924*
X18150Y19924*
X18150Y20076*
X18380Y20076*
X18395Y20093*
X18330Y20707*
X18330Y20709*
X18111Y21384*
X18110Y21386*
X17755Y22000*
X17754Y22002*
X17279Y22529*
X17277Y22531*
X16703Y22948*
X16701Y22949*
X16053Y23238*
X16051Y23238*
X15357Y23386*
X15355Y23386*
X15091Y23386*
X15076Y23371*
X15076Y23150*
X14924Y23150*
X14924Y23371*
X14909Y23386*
X14645Y23386*
X14643Y23386*
X13949Y23238*
X13947Y23238*
X13299Y22949*
X13297Y22948*
X12723Y22531*
X12721Y22529*
X12246Y22002*
X12245Y22000*
X11890Y21386*
X11889Y21384*
X11670Y20709*
X11670Y20707*
X11605Y20093*
X11620Y20076*
X11850Y20076*
X11850Y19924*
X11620Y19924*
X11605Y19907*
X11670Y19293*
X11670Y19291*
X11889Y18616*
X11890Y18614*
X12245Y18000*
X12246Y17998*
X12721Y17471*
X12723Y17469*
X13297Y17052*
X13299Y17051*
X13947Y16762*
X13949Y16762*
X14643Y16614*
X14645Y16614*
X14909Y16614*
X14924Y16629*
X5383Y18433D02*
X5383Y18433D01*
X5386Y18434*
X5749Y18561*
X5752Y18562*
X6077Y18767*
X6080Y18769*
X6351Y19040*
X6353Y19043*
X6558Y19368*
X6559Y19371*
X6686Y19734*
X6687Y19737*
X6730Y20119*
X6730Y20121*
X6687Y20503*
X6686Y20506*
X6559Y20869*
X6558Y20872*
X6353Y21197*
X6351Y21200*
X6080Y21471*
X6077Y21473*
X5752Y21678*
X5749Y21679*
X5386Y21806*
X5383Y21807*
X5001Y21850*
X4999Y21850*
X4617Y21807*
X4614Y21806*
X4251Y21679*
X4248Y21678*
X3923Y21473*
X3920Y21471*
X3649Y21200*
X3647Y21197*
X3442Y20872*
X3441Y20869*
X3314Y20506*
X3313Y20503*
X3270Y20121*
X3270Y20119*
X3313Y19737*
X3314Y19734*
X3441Y19371*
X3442Y19368*
X3647Y19043*
X3649Y19040*
X3920Y18769*
X3923Y18767*
X4248Y18562*
X4251Y18561*
X4614Y18434*
X4617Y18433*
X4999Y18390*
X5001Y18390*
X5383Y18433*
X26805Y17375D02*
X26805Y17375D01*
X26807Y17375*
X27181Y17506*
X27183Y17507*
X27518Y17718*
X27521Y17720*
X27800Y17999*
X27802Y18002*
X28013Y18337*
X28014Y18339*
X28145Y18713*
X28145Y18715*
X28179Y19017*
X28164Y19034*
X27935Y19034*
X27935Y19186*
X28164Y19186*
X28179Y19203*
X28145Y19505*
X28145Y19507*
X28014Y19881*
X28013Y19883*
X27802Y20218*
X27800Y20221*
X27521Y20500*
X27518Y20502*
X27183Y20713*
X27181Y20714*
X26807Y20845*
X26805Y20845*
X26503Y20879*
X26486Y20864*
X26486Y20635*
X26334Y20635*
X26334Y20864*
X26317Y20879*
X26015Y20845*
X26013Y20845*
X25639Y20714*
X25637Y20713*
X25302Y20502*
X25299Y20500*
X25020Y20221*
X25018Y20218*
X24807Y19883*
X24806Y19881*
X24675Y19507*
X24675Y19505*
X24641Y19203*
X24656Y19186*
X24885Y19186*
X24885Y19034*
X24656Y19034*
X24641Y19017*
X24675Y18715*
X24675Y18713*
X24806Y18339*
X24807Y18337*
X25018Y18002*
X25020Y17999*
X25299Y17720*
X25302Y17718*
X25637Y17507*
X25639Y17506*
X26013Y17375*
X26015Y17375*
X26317Y17341*
X26334Y17356*
X26334Y17585*
X26486Y17585*
X26486Y17356*
X26503Y17341*
X26805Y17375*
X23624Y14973D02*
X23624Y14973D01*
X23624Y15212*
X23776Y15212*
X23776Y14973*
X23791Y14958*
X23830Y14958*
X23833Y14959*
X24085Y15021*
X24088Y15022*
X24318Y15142*
X24320Y15144*
X24515Y15316*
X24517Y15319*
X24664Y15532*
X24666Y15535*
X24758Y15778*
X24758Y15781*
X24778Y15947*
X24763Y15964*
X24535Y15964*
X24535Y16116*
X24763Y16116*
X24778Y16133*
X24758Y16299*
X24758Y16302*
X24666Y16545*
X24664Y16548*
X24517Y16761*
X24515Y16764*
X24320Y16936*
X24318Y16938*
X24088Y17058*
X24085Y17059*
X23833Y17121*
X23830Y17122*
X23791Y17122*
X23776Y17107*
X23776Y16868*
X23624Y16868*
X23624Y17107*
X23609Y17122*
X23570Y17122*
X23567Y17121*
X23315Y17059*
X23312Y17058*
X23082Y16938*
X23080Y16936*
X22885Y16764*
X22883Y16761*
X22736Y16548*
X22734Y16545*
X22642Y16302*
X22642Y16299*
X22622Y16133*
X22637Y16116*
X22865Y16116*
X22865Y15964*
X22637Y15964*
X22622Y15947*
X22642Y15781*
X22642Y15778*
X22734Y15535*
X22736Y15532*
X22883Y15319*
X22885Y15316*
X23080Y15144*
X23082Y15142*
X23312Y15022*
X23315Y15021*
X23567Y14959*
X23570Y14958*
X23609Y14958*
X23624Y14973*
X5383Y13353D02*
X5383Y13353D01*
X5386Y13354*
X5749Y13481*
X5752Y13482*
X6077Y13687*
X6080Y13689*
X6351Y13960*
X6353Y13963*
X6558Y14288*
X6559Y14291*
X6686Y14654*
X6687Y14657*
X6705Y14823*
X6690Y14840*
X6475Y14840*
X6475Y15240*
X6690Y15240*
X6705Y15257*
X6687Y15423*
X6686Y15426*
X6559Y15789*
X6558Y15792*
X6353Y16117*
X6351Y16120*
X6080Y16391*
X6077Y16393*
X5752Y16598*
X5749Y16599*
X5386Y16726*
X5383Y16727*
X5001Y16770*
X4999Y16770*
X4617Y16727*
X4614Y16726*
X4251Y16599*
X4248Y16598*
X3923Y16393*
X3920Y16391*
X3649Y16120*
X3647Y16117*
X3442Y15792*
X3441Y15789*
X3314Y15426*
X3313Y15423*
X3295Y15257*
X3310Y15240*
X3525Y15240*
X3525Y14840*
X3310Y14840*
X3295Y14823*
X3313Y14657*
X3314Y14654*
X3441Y14291*
X3442Y14288*
X3647Y13963*
X3649Y13960*
X3920Y13689*
X3923Y13687*
X4248Y13482*
X4251Y13481*
X4614Y13354*
X4617Y13353*
X4999Y13310*
X5001Y13310*
X5383Y13353*
X14924Y1629D02*
X14924Y1629D01*
X14924Y1850*
X15076Y1850*
X15076Y1629*
X15091Y1614*
X15355Y1614*
X15357Y1614*
X16051Y1762*
X16053Y1762*
X16701Y2051*
X16703Y2052*
X17277Y2469*
X17279Y2471*
X17754Y2998*
X17755Y3000*
X18110Y3614*
X18111Y3616*
X18330Y4291*
X18330Y4293*
X18395Y4907*
X18380Y4924*
X18150Y4924*
X18150Y5076*
X18380Y5076*
X18395Y5093*
X18330Y5707*
X18330Y5709*
X18111Y6384*
X18110Y6386*
X17755Y7000*
X17754Y7002*
X17552Y7226*
X17572Y7271*
X25001Y7271*
X25002Y7271*
X25044Y7276*
X25046Y7276*
X25087Y7289*
X25090Y7290*
X25127Y7310*
X25129Y7311*
X25162Y7339*
X25164Y7341*
X25191Y7374*
X25192Y7376*
X25212Y7414*
X25213Y7416*
X25225Y7457*
X25225Y7460*
X25229Y7498*
X25229Y7499*
X25229Y10251*
X25229Y10252*
X25224Y10294*
X25224Y10296*
X25211Y10337*
X25210Y10340*
X25190Y10377*
X25189Y10379*
X25161Y10412*
X25159Y10414*
X25126Y10441*
X25124Y10442*
X25086Y10462*
X25084Y10463*
X25043Y10475*
X25040Y10475*
X25002Y10479*
X25001Y10479*
X24207Y10479*
X24192Y10537*
X24318Y10602*
X24320Y10604*
X24515Y10776*
X24517Y10779*
X24664Y10992*
X24666Y10995*
X24758Y11238*
X24758Y11241*
X24790Y11498*
X24790Y11502*
X24758Y11759*
X24758Y11762*
X24666Y12005*
X24664Y12008*
X24517Y12221*
X24515Y12224*
X24320Y12396*
X24318Y12398*
X24166Y12477*
X24166Y12523*
X24318Y12602*
X24320Y12604*
X24515Y12776*
X24517Y12779*
X24664Y12992*
X24666Y12995*
X24758Y13238*
X24758Y13241*
X24790Y13498*
X24790Y13502*
X24758Y13759*
X24758Y13762*
X24666Y14005*
X24664Y14008*
X24517Y14221*
X24515Y14224*
X24320Y14396*
X24318Y14398*
X24088Y14518*
X24085Y14519*
X23833Y14581*
X23830Y14582*
X23570Y14582*
X23567Y14581*
X23315Y14519*
X23312Y14518*
X23082Y14398*
X23080Y14396*
X22885Y14224*
X22883Y14221*
X22736Y14008*
X22734Y14005*
X22726Y13984*
X18869Y13984*
X18847Y14020*
X18846Y14021*
X18823Y14047*
X18822Y14048*
X18796Y14071*
X18795Y14072*
X18765Y14089*
X18764Y14090*
X18732Y14103*
X18730Y14104*
X18697Y14112*
X18695Y14112*
X18662Y14115*
X18661Y14115*
X17339Y14115*
X17338Y14115*
X17305Y14112*
X17303Y14112*
X17270Y14104*
X17268Y14103*
X17236Y14090*
X17235Y14089*
X17205Y14072*
X17204Y14071*
X17178Y14048*
X17177Y14047*
X17154Y14021*
X17153Y14020*
X17131Y13984*
X15615Y13984*
X15615Y14161*
X15615Y14162*
X15612Y14195*
X15612Y14197*
X15604Y14230*
X15603Y14232*
X15590Y14264*
X15589Y14265*
X15572Y14295*
X15571Y14296*
X15548Y14322*
X15547Y14323*
X15521Y14346*
X15520Y14347*
X15490Y14364*
X15489Y14365*
X15457Y14378*
X15455Y14379*
X15422Y14387*
X15420Y14387*
X15387Y14390*
X15386Y14390*
X14714Y14390*
X14713Y14390*
X14680Y14387*
X14678Y14387*
X14645Y14379*
X14643Y14378*
X14611Y14365*
X14610Y14364*
X14580Y14347*
X14579Y14346*
X14553Y14323*
X14552Y14322*
X14529Y14296*
X14528Y14295*
X14511Y14265*
X14510Y14264*
X14497Y14232*
X14496Y14230*
X14488Y14197*
X14488Y14195*
X14485Y14162*
X14485Y14161*
X14485Y12839*
X14485Y12838*
X14488Y12805*
X14488Y12803*
X14496Y12770*
X14497Y12768*
X14510Y12736*
X14511Y12735*
X14528Y12705*
X14529Y12704*
X14552Y12678*
X14553Y12677*
X14579Y12654*
X14580Y12653*
X14610Y12636*
X14611Y12635*
X14643Y12622*
X14645Y12621*
X14678Y12613*
X14680Y12613*
X14713Y12610*
X14714Y12610*
X15386Y12610*
X15387Y12610*
X15420Y12613*
X15422Y12613*
X15455Y12621*
X15457Y12622*
X15489Y12635*
X15490Y12636*
X15520Y12653*
X15521Y12654*
X15547Y12677*
X15548Y12678*
X15571Y12704*
X15572Y12705*
X15589Y12735*
X15590Y12736*
X15603Y12768*
X15604Y12770*
X15612Y12803*
X15612Y12805*
X15615Y12838*
X15615Y12839*
X15615Y13016*
X17225Y13016*
X17235Y13011*
X17236Y13010*
X17268Y12997*
X17270Y12996*
X17303Y12988*
X17305Y12988*
X17338Y12985*
X17339Y12985*
X18661Y12985*
X18662Y12985*
X18695Y12988*
X18697Y12988*
X18730Y12996*
X18732Y12997*
X18764Y13010*
X18765Y13011*
X18775Y13016*
X22726Y13016*
X22734Y12995*
X22736Y12992*
X22883Y12779*
X22885Y12776*
X23080Y12604*
X23082Y12602*
X23234Y12523*
X23234Y12477*
X23082Y12398*
X23080Y12396*
X22885Y12224*
X22883Y12221*
X22736Y12008*
X22734Y12005*
X22726Y11984*
X18775Y11984*
X18765Y11989*
X18764Y11990*
X18732Y12003*
X18730Y12004*
X18697Y12012*
X18695Y12012*
X18662Y12015*
X18661Y12015*
X17339Y12015*
X17338Y12015*
X17305Y12012*
X17303Y12012*
X17270Y12004*
X17268Y12003*
X17236Y11990*
X17235Y11989*
X17225Y11984*
X15615Y11984*
X15615Y12161*
X15615Y12162*
X15612Y12195*
X15612Y12197*
X15604Y12230*
X15603Y12232*
X15590Y12264*
X15589Y12265*
X15572Y12295*
X15571Y12296*
X15548Y12322*
X15547Y12323*
X15521Y12346*
X15520Y12347*
X15490Y12364*
X15489Y12365*
X15457Y12378*
X15455Y12379*
X15422Y12387*
X15420Y12387*
X15387Y12390*
X15386Y12390*
X14714Y12390*
X14713Y12390*
X14680Y12387*
X14678Y12387*
X14645Y12379*
X14643Y12378*
X14611Y12365*
X14610Y12364*
X14580Y12347*
X14579Y12346*
X14553Y12323*
X14552Y12322*
X14529Y12296*
X14528Y12295*
X14511Y12265*
X14510Y12264*
X14497Y12232*
X14496Y12230*
X14488Y12197*
X14488Y12195*
X14485Y12162*
X14485Y12161*
X14485Y11979*
X13515Y11979*
X13515Y12161*
X13515Y12162*
X13512Y12195*
X13512Y12197*
X13504Y12230*
X13503Y12232*
X13490Y12264*
X13489Y12265*
X13472Y12295*
X13471Y12296*
X13448Y12322*
X13447Y12323*
X13421Y12346*
X13420Y12347*
X13390Y12364*
X13389Y12365*
X13357Y12378*
X13355Y12379*
X13322Y12387*
X13320Y12387*
X13287Y12390*
X13286Y12390*
X12614Y12390*
X12613Y12390*
X12580Y12387*
X12578Y12387*
X12545Y12379*
X12543Y12378*
X12511Y12365*
X12510Y12364*
X12480Y12347*
X12479Y12346*
X12453Y12323*
X12452Y12322*
X12429Y12296*
X12428Y12295*
X12411Y12265*
X12410Y12264*
X12397Y12232*
X12396Y12230*
X12388Y12197*
X12388Y12195*
X12385Y12162*
X12385Y12161*
X12385Y11979*
X11999Y11979*
X11998Y11979*
X11956Y11974*
X11954Y11974*
X11913Y11961*
X11910Y11960*
X11873Y11940*
X11871Y11938*
X11835Y11908*
X11834Y11907*
X7901Y7729*
X2999Y7729*
X2998Y7729*
X2956Y7724*
X2954Y7724*
X2913Y7711*
X2910Y7710*
X2873Y7690*
X2871Y7689*
X2838Y7661*
X2836Y7659*
X2809Y7626*
X2808Y7624*
X2788Y7586*
X2787Y7584*
X2775Y7543*
X2775Y7540*
X2771Y7502*
X2771Y7501*
X2771Y2999*
X2771Y2998*
X2776Y2956*
X2776Y2954*
X2789Y2913*
X2790Y2910*
X2810Y2873*
X2811Y2871*
X2839Y2838*
X2841Y2836*
X2874Y2809*
X2876Y2808*
X2914Y2788*
X2916Y2787*
X2957Y2775*
X2960Y2775*
X2998Y2771*
X2999Y2771*
X9001Y2771*
X9002Y2771*
X9044Y2776*
X9046Y2776*
X9087Y2789*
X9090Y2790*
X9127Y2810*
X9129Y2811*
X9162Y2839*
X9164Y2841*
X9189Y2872*
X9190Y2873*
X12122Y7271*
X12428Y7271*
X12448Y7226*
X12246Y7002*
X12245Y7000*
X11890Y6386*
X11889Y6384*
X11670Y5709*
X11670Y5707*
X11605Y5093*
X11620Y5076*
X11850Y5076*
X11850Y4924*
X11620Y4924*
X11605Y4907*
X11670Y4293*
X11670Y4291*
X11889Y3616*
X11890Y3614*
X12245Y3000*
X12246Y2998*
X12721Y2471*
X12723Y2469*
X13297Y2052*
X13299Y2051*
X13947Y1762*
X13949Y1762*
X14643Y1614*
X14645Y1614*
X14909Y1614*
X14924Y1629*
X12874Y12625D02*
X12874Y12625D01*
X12874Y12865*
X13026Y12865*
X13026Y12625*
X13041Y12610*
X13286Y12610*
X13287Y12610*
X13320Y12613*
X13322Y12613*
X13355Y12621*
X13357Y12622*
X13389Y12635*
X13390Y12636*
X13420Y12653*
X13421Y12654*
X13447Y12677*
X13448Y12678*
X13471Y12704*
X13472Y12705*
X13489Y12735*
X13490Y12736*
X13503Y12768*
X13504Y12770*
X13512Y12803*
X13512Y12805*
X13515Y12838*
X13515Y12839*
X13515Y13409*
X13500Y13424*
X13260Y13424*
X13260Y13576*
X13500Y13576*
X13515Y13591*
X13515Y14161*
X13515Y14162*
X13512Y14195*
X13512Y14197*
X13504Y14230*
X13503Y14232*
X13490Y14264*
X13489Y14265*
X13472Y14295*
X13471Y14296*
X13448Y14322*
X13447Y14323*
X13421Y14346*
X13420Y14347*
X13390Y14364*
X13389Y14365*
X13357Y14378*
X13355Y14379*
X13322Y14387*
X13320Y14387*
X13287Y14390*
X13286Y14390*
X13041Y14390*
X13026Y14375*
X13026Y14135*
X12874Y14135*
X12874Y14375*
X12859Y14390*
X12614Y14390*
X12613Y14390*
X12580Y14387*
X12578Y14387*
X12545Y14379*
X12543Y14378*
X12511Y14365*
X12510Y14364*
X12480Y14347*
X12479Y14346*
X12453Y14323*
X12452Y14322*
X12429Y14296*
X12428Y14295*
X12411Y14265*
X12410Y14264*
X12397Y14232*
X12396Y14230*
X12388Y14197*
X12388Y14195*
X12385Y14162*
X12385Y14161*
X12385Y13591*
X12400Y13576*
X12640Y13576*
X12640Y13424*
X12400Y13424*
X12385Y13409*
X12385Y12839*
X12385Y12838*
X12388Y12805*
X12388Y12803*
X12396Y12770*
X12397Y12768*
X12410Y12736*
X12411Y12735*
X12428Y12705*
X12429Y12704*
X12452Y12678*
X12453Y12677*
X12479Y12654*
X12480Y12653*
X12510Y12636*
X12511Y12635*
X12543Y12622*
X12545Y12621*
X12578Y12613*
X12580Y12613*
X12613Y12610*
X12614Y12610*
X12859Y12610*
X12874Y12625*
X5383Y8273D02*
X5383Y8273D01*
X5386Y8274*
X5749Y8401*
X5752Y8402*
X6077Y8607*
X6080Y8609*
X6351Y8880*
X6353Y8883*
X6558Y9208*
X6559Y9211*
X6686Y9574*
X6687Y9577*
X6705Y9743*
X6690Y9760*
X6475Y9760*
X6475Y10160*
X6690Y10160*
X6705Y10177*
X6687Y10343*
X6686Y10346*
X6559Y10709*
X6558Y10712*
X6353Y11037*
X6351Y11040*
X6080Y11311*
X6077Y11313*
X5752Y11518*
X5749Y11519*
X5386Y11646*
X5383Y11647*
X5001Y11690*
X4999Y11690*
X4617Y11647*
X4614Y11646*
X4251Y11519*
X4248Y11518*
X3923Y11313*
X3920Y11311*
X3649Y11040*
X3647Y11037*
X3442Y10712*
X3441Y10709*
X3314Y10346*
X3313Y10343*
X3295Y10177*
X3310Y10160*
X3525Y10160*
X3525Y9760*
X3310Y9760*
X3295Y9743*
X3313Y9577*
X3314Y9574*
X3441Y9211*
X3442Y9208*
X3647Y8883*
X3649Y8880*
X3920Y8609*
X3923Y8607*
X4248Y8402*
X4251Y8401*
X4614Y8274*
X4617Y8273*
X4783Y8255*
X4800Y8270*
X4800Y8485*
X5200Y8485*
X5200Y8270*
X5217Y8255*
X5383Y8273*
X26805Y4155D02*
X26805Y4155D01*
X26807Y4155*
X27181Y4286*
X27183Y4287*
X27518Y4498*
X27521Y4500*
X27800Y4779*
X27802Y4782*
X28013Y5117*
X28014Y5119*
X28145Y5493*
X28145Y5495*
X28179Y5797*
X28164Y5814*
X27935Y5814*
X27935Y5966*
X28164Y5966*
X28179Y5983*
X28145Y6285*
X28145Y6287*
X28014Y6661*
X28013Y6663*
X27802Y6998*
X27800Y7001*
X27521Y7280*
X27518Y7282*
X27183Y7493*
X27181Y7494*
X26807Y7625*
X26805Y7625*
X26503Y7659*
X26486Y7644*
X26486Y7415*
X26334Y7415*
X26334Y7644*
X26317Y7659*
X26015Y7625*
X26013Y7625*
X25639Y7494*
X25637Y7493*
X25302Y7282*
X25299Y7280*
X25020Y7001*
X25018Y6998*
X24807Y6663*
X24806Y6661*
X24675Y6287*
X24675Y6285*
X24641Y5983*
X24656Y5966*
X24885Y5966*
X24885Y5814*
X24656Y5814*
X24641Y5797*
X24675Y5495*
X24675Y5493*
X24806Y5119*
X24807Y5117*
X25018Y4782*
X25020Y4779*
X25299Y4500*
X25302Y4498*
X25637Y4287*
X25639Y4286*
X26013Y4155*
X26015Y4155*
X26317Y4121*
X26334Y4136*
X26334Y4365*
X26486Y4365*
X26486Y4136*
X26503Y4121*
X26805Y4155*
X0525Y0550D02*
X29475Y0550D01*
X0525Y0599D02*
X29475Y0599D01*
X0525Y0649D02*
X29475Y0649D01*
X0525Y0698D02*
X29475Y0698D01*
X0525Y0748D02*
X29475Y0748D01*
X0525Y0797D02*
X29475Y0797D01*
X0525Y0847D02*
X29475Y0847D01*
X0525Y0896D02*
X29475Y0896D01*
X0525Y0946D02*
X29475Y0946D01*
X0525Y0995D02*
X29475Y0995D01*
X0525Y1045D02*
X29475Y1045D01*
X0525Y1094D02*
X29475Y1094D01*
X0525Y1144D02*
X29475Y1144D01*
X0525Y1193D02*
X29475Y1193D01*
X0525Y1243D02*
X29475Y1243D01*
X0525Y1292D02*
X29475Y1292D01*
X0525Y1342D02*
X29475Y1342D01*
X0525Y1392D02*
X29475Y1392D01*
X0525Y1441D02*
X29475Y1441D01*
X0525Y1491D02*
X29475Y1491D01*
X0525Y1540D02*
X29475Y1540D01*
X0525Y1590D02*
X29475Y1590D01*
X0525Y1639D02*
X14525Y1639D01*
X14924Y1639D02*
X15076Y1639D01*
X15475Y1639D02*
X29475Y1639D01*
X0525Y1689D02*
X14292Y1689D01*
X14924Y1689D02*
X15076Y1689D01*
X15708Y1689D02*
X29475Y1689D01*
X0525Y1738D02*
X14059Y1738D01*
X14924Y1738D02*
X15076Y1738D01*
X15941Y1738D02*
X29475Y1738D01*
X0525Y1788D02*
X13890Y1788D01*
X14924Y1788D02*
X15076Y1788D01*
X16110Y1788D02*
X29475Y1788D01*
X0525Y1837D02*
X13779Y1837D01*
X14924Y1837D02*
X15076Y1837D01*
X16221Y1837D02*
X29475Y1837D01*
X0525Y1887D02*
X13667Y1887D01*
X16333Y1887D02*
X29475Y1887D01*
X0525Y1936D02*
X13556Y1936D01*
X16444Y1936D02*
X29475Y1936D01*
X0525Y1986D02*
X13445Y1986D01*
X16555Y1986D02*
X29475Y1986D01*
X0525Y2035D02*
X13334Y2035D01*
X16666Y2035D02*
X29475Y2035D01*
X0525Y2085D02*
X13251Y2085D01*
X16749Y2085D02*
X29475Y2085D01*
X0525Y2134D02*
X13183Y2134D01*
X16817Y2134D02*
X29475Y2134D01*
X0525Y2184D02*
X13115Y2184D01*
X16885Y2184D02*
X29475Y2184D01*
X0525Y2234D02*
X13047Y2234D01*
X16953Y2234D02*
X29475Y2234D01*
X0525Y2283D02*
X12979Y2283D01*
X17021Y2283D02*
X29475Y2283D01*
X0525Y2333D02*
X12911Y2333D01*
X17089Y2333D02*
X29475Y2333D01*
X0525Y2382D02*
X12842Y2382D01*
X17158Y2382D02*
X29475Y2382D01*
X0525Y2432D02*
X12774Y2432D01*
X17226Y2432D02*
X29475Y2432D01*
X0525Y2481D02*
X12712Y2481D01*
X17288Y2481D02*
X29475Y2481D01*
X0525Y2531D02*
X12667Y2531D01*
X17333Y2531D02*
X29475Y2531D01*
X0525Y2580D02*
X12622Y2580D01*
X17378Y2580D02*
X29475Y2580D01*
X0525Y2630D02*
X12578Y2630D01*
X17422Y2630D02*
X29475Y2630D01*
X0525Y2679D02*
X12533Y2679D01*
X17467Y2679D02*
X29475Y2679D01*
X0525Y2729D02*
X12489Y2729D01*
X17511Y2729D02*
X29475Y2729D01*
X0525Y2778D02*
X2947Y2778D01*
X9054Y2778D02*
X12444Y2778D01*
X17556Y2778D02*
X29475Y2778D01*
X0525Y2828D02*
X2851Y2828D01*
X9149Y2828D02*
X12399Y2828D01*
X17601Y2828D02*
X29475Y2828D01*
X0525Y2877D02*
X2808Y2877D01*
X9193Y2877D02*
X12355Y2877D01*
X17645Y2877D02*
X29475Y2877D01*
X0525Y2927D02*
X2784Y2927D01*
X9226Y2927D02*
X12310Y2927D01*
X17690Y2927D02*
X29475Y2927D01*
X0525Y2977D02*
X2774Y2977D01*
X9259Y2977D02*
X12266Y2977D01*
X17734Y2977D02*
X29475Y2977D01*
X0525Y3026D02*
X2771Y3026D01*
X9292Y3026D02*
X12230Y3026D01*
X17770Y3026D02*
X29475Y3026D01*
X0525Y3076D02*
X2771Y3076D01*
X9325Y3076D02*
X12201Y3076D01*
X17799Y3076D02*
X29475Y3076D01*
X0525Y3125D02*
X2771Y3125D01*
X9358Y3125D02*
X12173Y3125D01*
X17827Y3125D02*
X29475Y3125D01*
X0525Y3175D02*
X2771Y3175D01*
X9391Y3175D02*
X12144Y3175D01*
X17856Y3175D02*
X29475Y3175D01*
X0525Y3224D02*
X2771Y3224D01*
X9424Y3224D02*
X12115Y3224D01*
X17885Y3224D02*
X29475Y3224D01*
X0525Y3274D02*
X2771Y3274D01*
X9457Y3274D02*
X12087Y3274D01*
X17913Y3274D02*
X29475Y3274D01*
X0525Y3323D02*
X2771Y3323D01*
X9490Y3323D02*
X12058Y3323D01*
X17942Y3323D02*
X29475Y3323D01*
X0525Y3373D02*
X2771Y3373D01*
X9523Y3373D02*
X12030Y3373D01*
X17970Y3373D02*
X29475Y3373D01*
X0525Y3422D02*
X2771Y3422D01*
X9556Y3422D02*
X12001Y3422D01*
X17999Y3422D02*
X29475Y3422D01*
X0525Y3472D02*
X2771Y3472D01*
X9589Y3472D02*
X11972Y3472D01*
X18028Y3472D02*
X29475Y3472D01*
X0525Y3521D02*
X2771Y3521D01*
X9622Y3521D02*
X11944Y3521D01*
X18056Y3521D02*
X29475Y3521D01*
X0525Y3571D02*
X2771Y3571D01*
X9655Y3571D02*
X11915Y3571D01*
X18085Y3571D02*
X29475Y3571D01*
X0525Y3620D02*
X2771Y3620D01*
X9688Y3620D02*
X11888Y3620D01*
X18112Y3620D02*
X29475Y3620D01*
X0525Y3670D02*
X2771Y3670D01*
X9721Y3670D02*
X11872Y3670D01*
X18128Y3670D02*
X29475Y3670D01*
X0525Y3719D02*
X2771Y3719D01*
X9754Y3719D02*
X11856Y3719D01*
X18144Y3719D02*
X29475Y3719D01*
X0525Y3769D02*
X2771Y3769D01*
X9787Y3769D02*
X11840Y3769D01*
X18160Y3769D02*
X29475Y3769D01*
X0525Y3819D02*
X2771Y3819D01*
X9820Y3819D02*
X11824Y3819D01*
X18176Y3819D02*
X29475Y3819D01*
X0525Y3868D02*
X2771Y3868D01*
X9853Y3868D02*
X11807Y3868D01*
X18193Y3868D02*
X29475Y3868D01*
X0525Y3918D02*
X2771Y3918D01*
X9886Y3918D02*
X11791Y3918D01*
X18209Y3918D02*
X29475Y3918D01*
X0525Y3967D02*
X2771Y3967D01*
X9919Y3967D02*
X11775Y3967D01*
X18225Y3967D02*
X29475Y3967D01*
X0525Y4017D02*
X2771Y4017D01*
X9952Y4017D02*
X11759Y4017D01*
X18241Y4017D02*
X29475Y4017D01*
X0525Y4066D02*
X2771Y4066D01*
X9986Y4066D02*
X11743Y4066D01*
X18257Y4066D02*
X29475Y4066D01*
X0525Y4116D02*
X2771Y4116D01*
X10019Y4116D02*
X11727Y4116D01*
X18273Y4116D02*
X29475Y4116D01*
X0525Y4165D02*
X2771Y4165D01*
X10052Y4165D02*
X11711Y4165D01*
X18289Y4165D02*
X25984Y4165D01*
X26334Y4165D02*
X26486Y4165D01*
X26836Y4165D02*
X29475Y4165D01*
X0525Y4215D02*
X2771Y4215D01*
X10085Y4215D02*
X11695Y4215D01*
X18305Y4215D02*
X25843Y4215D01*
X26334Y4215D02*
X26486Y4215D01*
X26977Y4215D02*
X29475Y4215D01*
X0525Y4264D02*
X2771Y4264D01*
X10118Y4264D02*
X11679Y4264D01*
X18321Y4264D02*
X25701Y4264D01*
X26334Y4264D02*
X26486Y4264D01*
X27119Y4264D02*
X29475Y4264D01*
X0525Y4314D02*
X2771Y4314D01*
X10151Y4314D02*
X11667Y4314D01*
X18333Y4314D02*
X25594Y4314D01*
X26334Y4314D02*
X26486Y4314D01*
X27226Y4314D02*
X29475Y4314D01*
X0525Y4363D02*
X2771Y4363D01*
X10184Y4363D02*
X11662Y4363D01*
X18338Y4363D02*
X25515Y4363D01*
X26334Y4363D02*
X26486Y4363D01*
X27305Y4363D02*
X29475Y4363D01*
X0525Y4413D02*
X2771Y4413D01*
X10217Y4413D02*
X11657Y4413D01*
X18343Y4413D02*
X25437Y4413D01*
X27383Y4413D02*
X29475Y4413D01*
X0525Y4462D02*
X2771Y4462D01*
X10250Y4462D02*
X11652Y4462D01*
X18348Y4462D02*
X25358Y4462D01*
X27462Y4462D02*
X29475Y4462D01*
X0525Y4512D02*
X2771Y4512D01*
X10283Y4512D02*
X11647Y4512D01*
X18353Y4512D02*
X25287Y4512D01*
X27533Y4512D02*
X29475Y4512D01*
X0525Y4561D02*
X2771Y4561D01*
X10316Y4561D02*
X11641Y4561D01*
X18359Y4561D02*
X25237Y4561D01*
X27583Y4561D02*
X29475Y4561D01*
X0525Y4611D02*
X2771Y4611D01*
X10349Y4611D02*
X11636Y4611D01*
X18364Y4611D02*
X25188Y4611D01*
X27632Y4611D02*
X29475Y4611D01*
X0525Y4661D02*
X2771Y4661D01*
X10382Y4661D02*
X11631Y4661D01*
X18369Y4661D02*
X25138Y4661D01*
X27682Y4661D02*
X29475Y4661D01*
X0525Y4710D02*
X2771Y4710D01*
X10415Y4710D02*
X11626Y4710D01*
X18374Y4710D02*
X25089Y4710D01*
X27731Y4710D02*
X29475Y4710D01*
X0525Y4760D02*
X2771Y4760D01*
X10448Y4760D02*
X11621Y4760D01*
X18379Y4760D02*
X25039Y4760D01*
X27781Y4760D02*
X29475Y4760D01*
X0525Y4809D02*
X2771Y4809D01*
X10481Y4809D02*
X11615Y4809D01*
X18385Y4809D02*
X25000Y4809D01*
X27820Y4809D02*
X29475Y4809D01*
X0525Y4859D02*
X2771Y4859D01*
X10514Y4859D02*
X11610Y4859D01*
X18390Y4859D02*
X24969Y4859D01*
X27851Y4859D02*
X29475Y4859D01*
X0525Y4908D02*
X2771Y4908D01*
X10547Y4908D02*
X11606Y4908D01*
X18394Y4908D02*
X24938Y4908D01*
X27882Y4908D02*
X29475Y4908D01*
X0525Y4958D02*
X2771Y4958D01*
X10580Y4958D02*
X11850Y4958D01*
X18150Y4958D02*
X24907Y4958D01*
X27913Y4958D02*
X29475Y4958D01*
X0525Y5007D02*
X2771Y5007D01*
X10613Y5007D02*
X11850Y5007D01*
X18150Y5007D02*
X24876Y5007D01*
X27944Y5007D02*
X29475Y5007D01*
X0525Y5057D02*
X2771Y5057D01*
X10646Y5057D02*
X11850Y5057D01*
X18150Y5057D02*
X24845Y5057D01*
X27975Y5057D02*
X29475Y5057D01*
X0525Y5106D02*
X2771Y5106D01*
X10679Y5106D02*
X11606Y5106D01*
X18394Y5106D02*
X24814Y5106D01*
X28006Y5106D02*
X29475Y5106D01*
X0525Y5156D02*
X2771Y5156D01*
X10712Y5156D02*
X11612Y5156D01*
X18388Y5156D02*
X24793Y5156D01*
X28027Y5156D02*
X29475Y5156D01*
X0525Y5205D02*
X2771Y5205D01*
X10745Y5205D02*
X11617Y5205D01*
X18383Y5205D02*
X24776Y5205D01*
X28044Y5205D02*
X29475Y5205D01*
X0525Y5255D02*
X2771Y5255D01*
X10778Y5255D02*
X11622Y5255D01*
X18378Y5255D02*
X24759Y5255D01*
X28061Y5255D02*
X29475Y5255D01*
X0525Y5304D02*
X2771Y5304D01*
X10811Y5304D02*
X11627Y5304D01*
X18373Y5304D02*
X24741Y5304D01*
X28079Y5304D02*
X29475Y5304D01*
X0525Y5354D02*
X2771Y5354D01*
X10844Y5354D02*
X11632Y5354D01*
X18368Y5354D02*
X24724Y5354D01*
X28096Y5354D02*
X29475Y5354D01*
X0525Y5403D02*
X2771Y5403D01*
X10877Y5403D02*
X11638Y5403D01*
X18362Y5403D02*
X24707Y5403D01*
X28113Y5403D02*
X29475Y5403D01*
X0525Y5453D02*
X2771Y5453D01*
X10910Y5453D02*
X11643Y5453D01*
X18357Y5453D02*
X24689Y5453D01*
X28131Y5453D02*
X29475Y5453D01*
X0525Y5503D02*
X2771Y5503D01*
X10943Y5503D02*
X11648Y5503D01*
X18352Y5503D02*
X24674Y5503D01*
X28146Y5503D02*
X29475Y5503D01*
X0525Y5552D02*
X2771Y5552D01*
X10976Y5552D02*
X11653Y5552D01*
X18347Y5552D02*
X24668Y5552D01*
X28152Y5552D02*
X29475Y5552D01*
X0525Y5602D02*
X2771Y5602D01*
X11009Y5602D02*
X11658Y5602D01*
X18342Y5602D02*
X24663Y5602D01*
X28157Y5602D02*
X29475Y5602D01*
X0525Y5651D02*
X2771Y5651D01*
X11042Y5651D02*
X11664Y5651D01*
X18336Y5651D02*
X24657Y5651D01*
X28163Y5651D02*
X29475Y5651D01*
X0525Y5701D02*
X2771Y5701D01*
X11075Y5701D02*
X11669Y5701D01*
X18331Y5701D02*
X24652Y5701D01*
X28168Y5701D02*
X29475Y5701D01*
X0525Y5750D02*
X2771Y5750D01*
X11108Y5750D02*
X11683Y5750D01*
X18317Y5750D02*
X24646Y5750D01*
X28174Y5750D02*
X29475Y5750D01*
X0525Y5800D02*
X2771Y5800D01*
X11141Y5800D02*
X11699Y5800D01*
X18301Y5800D02*
X24643Y5800D01*
X28177Y5800D02*
X29475Y5800D01*
X0525Y5849D02*
X2771Y5849D01*
X11174Y5849D02*
X11716Y5849D01*
X18284Y5849D02*
X24885Y5849D01*
X27935Y5849D02*
X29475Y5849D01*
X0525Y5899D02*
X2771Y5899D01*
X11207Y5899D02*
X11732Y5899D01*
X18268Y5899D02*
X24885Y5899D01*
X27935Y5899D02*
X29475Y5899D01*
X0525Y5948D02*
X2771Y5948D01*
X11240Y5948D02*
X11748Y5948D01*
X18252Y5948D02*
X24885Y5948D01*
X27935Y5948D02*
X29475Y5948D01*
X0525Y5998D02*
X2771Y5998D01*
X11273Y5998D02*
X11764Y5998D01*
X18236Y5998D02*
X24642Y5998D01*
X28178Y5998D02*
X29475Y5998D01*
X0525Y6047D02*
X2771Y6047D01*
X11306Y6047D02*
X11780Y6047D01*
X18220Y6047D02*
X24648Y6047D01*
X28172Y6047D02*
X29475Y6047D01*
X0525Y6097D02*
X2771Y6097D01*
X11339Y6097D02*
X11796Y6097D01*
X18204Y6097D02*
X24654Y6097D01*
X28166Y6097D02*
X29475Y6097D01*
X0525Y6146D02*
X2771Y6146D01*
X11372Y6146D02*
X11812Y6146D01*
X18188Y6146D02*
X24659Y6146D01*
X28161Y6146D02*
X29475Y6146D01*
X0525Y6196D02*
X2771Y6196D01*
X11405Y6196D02*
X11828Y6196D01*
X18172Y6196D02*
X24665Y6196D01*
X28155Y6196D02*
X29475Y6196D01*
X0525Y6245D02*
X2771Y6245D01*
X11438Y6245D02*
X11844Y6245D01*
X18156Y6245D02*
X24670Y6245D01*
X28150Y6245D02*
X29475Y6245D01*
X0525Y6295D02*
X2771Y6295D01*
X11471Y6295D02*
X11860Y6295D01*
X18140Y6295D02*
X24678Y6295D01*
X28142Y6295D02*
X29475Y6295D01*
X0525Y6345D02*
X2771Y6345D01*
X11504Y6345D02*
X11877Y6345D01*
X18123Y6345D02*
X24695Y6345D01*
X28125Y6345D02*
X29475Y6345D01*
X0525Y6394D02*
X2771Y6394D01*
X11537Y6394D02*
X11895Y6394D01*
X18105Y6394D02*
X24713Y6394D01*
X28107Y6394D02*
X29475Y6394D01*
X0525Y6444D02*
X2771Y6444D01*
X11570Y6444D02*
X11924Y6444D01*
X18076Y6444D02*
X24730Y6444D01*
X28090Y6444D02*
X29475Y6444D01*
X0525Y6493D02*
X2771Y6493D01*
X11603Y6493D02*
X11952Y6493D01*
X18048Y6493D02*
X24747Y6493D01*
X28073Y6493D02*
X29475Y6493D01*
X0525Y6543D02*
X2771Y6543D01*
X11637Y6543D02*
X11981Y6543D01*
X18019Y6543D02*
X24765Y6543D01*
X28055Y6543D02*
X29475Y6543D01*
X0525Y6592D02*
X2771Y6592D01*
X11670Y6592D02*
X12009Y6592D01*
X17991Y6592D02*
X24782Y6592D01*
X28038Y6592D02*
X29475Y6592D01*
X0525Y6642D02*
X2771Y6642D01*
X11703Y6642D02*
X12038Y6642D01*
X17962Y6642D02*
X24799Y6642D01*
X28021Y6642D02*
X29475Y6642D01*
X0525Y6691D02*
X2771Y6691D01*
X11736Y6691D02*
X12067Y6691D01*
X17933Y6691D02*
X24825Y6691D01*
X27995Y6691D02*
X29475Y6691D01*
X0525Y6741D02*
X2771Y6741D01*
X11769Y6741D02*
X12095Y6741D01*
X17905Y6741D02*
X24856Y6741D01*
X27964Y6741D02*
X29475Y6741D01*
X0525Y6790D02*
X2771Y6790D01*
X11802Y6790D02*
X12124Y6790D01*
X17876Y6790D02*
X24887Y6790D01*
X27933Y6790D02*
X29475Y6790D01*
X0525Y6840D02*
X2771Y6840D01*
X11835Y6840D02*
X12152Y6840D01*
X17848Y6840D02*
X24918Y6840D01*
X27902Y6840D02*
X29475Y6840D01*
X0525Y6889D02*
X2771Y6889D01*
X11868Y6889D02*
X12181Y6889D01*
X17819Y6889D02*
X24949Y6889D01*
X27871Y6889D02*
X29475Y6889D01*
X0525Y6939D02*
X2771Y6939D01*
X11901Y6939D02*
X12210Y6939D01*
X17790Y6939D02*
X24980Y6939D01*
X27840Y6939D02*
X29475Y6939D01*
X0525Y6988D02*
X2771Y6988D01*
X11934Y6988D02*
X12238Y6988D01*
X17762Y6988D02*
X25011Y6988D01*
X27809Y6988D02*
X29475Y6988D01*
X0525Y7038D02*
X2771Y7038D01*
X11967Y7038D02*
X12279Y7038D01*
X17721Y7038D02*
X25057Y7038D01*
X27763Y7038D02*
X29475Y7038D01*
X0525Y7087D02*
X2771Y7087D01*
X12000Y7087D02*
X12323Y7087D01*
X17677Y7087D02*
X25106Y7087D01*
X27714Y7087D02*
X29475Y7087D01*
X0525Y7137D02*
X2771Y7137D01*
X12033Y7137D02*
X12368Y7137D01*
X17632Y7137D02*
X25156Y7137D01*
X27664Y7137D02*
X29475Y7137D01*
X0525Y7187D02*
X2771Y7187D01*
X12066Y7187D02*
X12412Y7187D01*
X17588Y7187D02*
X25205Y7187D01*
X27615Y7187D02*
X29475Y7187D01*
X0525Y7236D02*
X2771Y7236D01*
X12099Y7236D02*
X12444Y7236D01*
X17556Y7236D02*
X25255Y7236D01*
X27565Y7236D02*
X29475Y7236D01*
X0525Y7286D02*
X2771Y7286D01*
X25077Y7286D02*
X25307Y7286D01*
X27513Y7286D02*
X29475Y7286D01*
X0525Y7335D02*
X2771Y7335D01*
X25158Y7335D02*
X25386Y7335D01*
X27434Y7335D02*
X29475Y7335D01*
X0525Y7385D02*
X2771Y7385D01*
X25197Y7385D02*
X25465Y7385D01*
X27355Y7385D02*
X29475Y7385D01*
X0525Y7434D02*
X2771Y7434D01*
X25218Y7434D02*
X25543Y7434D01*
X26334Y7434D02*
X26486Y7434D01*
X27277Y7434D02*
X29475Y7434D01*
X0525Y7484D02*
X2771Y7484D01*
X25227Y7484D02*
X25622Y7484D01*
X26334Y7484D02*
X26486Y7484D01*
X27198Y7484D02*
X29475Y7484D01*
X0525Y7533D02*
X2774Y7533D01*
X25229Y7533D02*
X25751Y7533D01*
X26334Y7533D02*
X26486Y7533D01*
X27069Y7533D02*
X29475Y7533D01*
X0525Y7583D02*
X2787Y7583D01*
X25229Y7583D02*
X25893Y7583D01*
X26334Y7583D02*
X26486Y7583D01*
X26927Y7583D02*
X29475Y7583D01*
X0525Y7632D02*
X2814Y7632D01*
X25229Y7632D02*
X26078Y7632D01*
X26334Y7632D02*
X26486Y7632D01*
X26742Y7632D02*
X29475Y7632D01*
X0525Y7682D02*
X2863Y7682D01*
X25229Y7682D02*
X29475Y7682D01*
X0525Y7731D02*
X7904Y7731D01*
X25229Y7731D02*
X29475Y7731D01*
X0525Y7781D02*
X7950Y7781D01*
X25229Y7781D02*
X29475Y7781D01*
X0525Y7830D02*
X7997Y7830D01*
X25229Y7830D02*
X29475Y7830D01*
X0525Y7880D02*
X8044Y7880D01*
X25229Y7880D02*
X29475Y7880D01*
X0525Y7929D02*
X8090Y7929D01*
X25229Y7929D02*
X29475Y7929D01*
X0525Y7979D02*
X8137Y7979D01*
X25229Y7979D02*
X29475Y7979D01*
X0525Y8029D02*
X8184Y8029D01*
X25229Y8029D02*
X29475Y8029D01*
X0525Y8078D02*
X8230Y8078D01*
X25229Y8078D02*
X29475Y8078D01*
X0525Y8128D02*
X8277Y8128D01*
X25229Y8128D02*
X29475Y8128D01*
X0525Y8177D02*
X8323Y8177D01*
X25229Y8177D02*
X29475Y8177D01*
X0525Y8227D02*
X8370Y8227D01*
X25229Y8227D02*
X29475Y8227D01*
X0525Y8276D02*
X4608Y8276D01*
X4800Y8276D02*
X5200Y8276D01*
X5392Y8276D02*
X8417Y8276D01*
X25229Y8276D02*
X29475Y8276D01*
X0525Y8326D02*
X4466Y8326D01*
X4800Y8326D02*
X5200Y8326D01*
X5534Y8326D02*
X8463Y8326D01*
X25229Y8326D02*
X29475Y8326D01*
X0525Y8375D02*
X4325Y8375D01*
X4800Y8375D02*
X5200Y8375D01*
X5675Y8375D02*
X8510Y8375D01*
X25229Y8375D02*
X29475Y8375D01*
X0525Y8425D02*
X4212Y8425D01*
X4800Y8425D02*
X5200Y8425D01*
X5788Y8425D02*
X8556Y8425D01*
X25229Y8425D02*
X29475Y8425D01*
X0525Y8474D02*
X4134Y8474D01*
X4800Y8474D02*
X5200Y8474D01*
X5866Y8474D02*
X8603Y8474D01*
X25229Y8474D02*
X29475Y8474D01*
X0525Y8524D02*
X4055Y8524D01*
X5945Y8524D02*
X8650Y8524D01*
X25229Y8524D02*
X29475Y8524D01*
X0525Y8573D02*
X3976Y8573D01*
X6024Y8573D02*
X8696Y8573D01*
X25229Y8573D02*
X29475Y8573D01*
X0525Y8623D02*
X3906Y8623D01*
X6094Y8623D02*
X8743Y8623D01*
X25229Y8623D02*
X29475Y8623D01*
X0525Y8672D02*
X3857Y8672D01*
X6143Y8672D02*
X8790Y8672D01*
X25229Y8672D02*
X29475Y8672D01*
X0525Y8722D02*
X3807Y8722D01*
X6193Y8722D02*
X8836Y8722D01*
X25229Y8722D02*
X29475Y8722D01*
X0525Y8772D02*
X3758Y8772D01*
X6242Y8772D02*
X8883Y8772D01*
X25229Y8772D02*
X29475Y8772D01*
X0525Y8821D02*
X3708Y8821D01*
X6292Y8821D02*
X8929Y8821D01*
X25229Y8821D02*
X29475Y8821D01*
X0525Y8871D02*
X3659Y8871D01*
X6341Y8871D02*
X8976Y8871D01*
X25229Y8871D02*
X29475Y8871D01*
X0525Y8920D02*
X3623Y8920D01*
X6377Y8920D02*
X9023Y8920D01*
X25229Y8920D02*
X29475Y8920D01*
X0525Y8970D02*
X3592Y8970D01*
X6408Y8970D02*
X9069Y8970D01*
X25229Y8970D02*
X29475Y8970D01*
X0525Y9019D02*
X3561Y9019D01*
X6439Y9019D02*
X9116Y9019D01*
X25229Y9019D02*
X29475Y9019D01*
X0525Y9069D02*
X3530Y9069D01*
X6470Y9069D02*
X9162Y9069D01*
X25229Y9069D02*
X29475Y9069D01*
X0525Y9118D02*
X3499Y9118D01*
X6501Y9118D02*
X9209Y9118D01*
X25229Y9118D02*
X29475Y9118D01*
X0525Y9168D02*
X3468Y9168D01*
X6532Y9168D02*
X9256Y9168D01*
X25229Y9168D02*
X29475Y9168D01*
X0525Y9217D02*
X3439Y9217D01*
X6561Y9217D02*
X9302Y9217D01*
X25229Y9217D02*
X29475Y9217D01*
X0525Y9267D02*
X3421Y9267D01*
X6579Y9267D02*
X9349Y9267D01*
X25229Y9267D02*
X29475Y9267D01*
X0525Y9316D02*
X3404Y9316D01*
X6596Y9316D02*
X9396Y9316D01*
X25229Y9316D02*
X29475Y9316D01*
X0525Y9366D02*
X3387Y9366D01*
X6613Y9366D02*
X9442Y9366D01*
X25229Y9366D02*
X29475Y9366D01*
X0525Y9415D02*
X3369Y9415D01*
X6631Y9415D02*
X9489Y9415D01*
X25229Y9415D02*
X29475Y9415D01*
X0525Y9465D02*
X3352Y9465D01*
X6648Y9465D02*
X9535Y9465D01*
X25229Y9465D02*
X29475Y9465D01*
X0525Y9514D02*
X3335Y9514D01*
X6665Y9514D02*
X9582Y9514D01*
X25229Y9514D02*
X29475Y9514D01*
X0525Y9564D02*
X3317Y9564D01*
X6683Y9564D02*
X9629Y9564D01*
X25229Y9564D02*
X29475Y9564D01*
X0525Y9614D02*
X3309Y9614D01*
X6691Y9614D02*
X9675Y9614D01*
X25229Y9614D02*
X29475Y9614D01*
X0525Y9663D02*
X3304Y9663D01*
X6696Y9663D02*
X9722Y9663D01*
X25229Y9663D02*
X29475Y9663D01*
X0525Y9713D02*
X3298Y9713D01*
X6702Y9713D02*
X9769Y9713D01*
X25229Y9713D02*
X29475Y9713D01*
X0525Y9762D02*
X3525Y9762D01*
X6475Y9762D02*
X9815Y9762D01*
X25229Y9762D02*
X29475Y9762D01*
X0525Y9812D02*
X3525Y9812D01*
X6475Y9812D02*
X9862Y9812D01*
X25229Y9812D02*
X29475Y9812D01*
X0525Y9861D02*
X3525Y9861D01*
X6475Y9861D02*
X9908Y9861D01*
X25229Y9861D02*
X29475Y9861D01*
X0525Y9911D02*
X3525Y9911D01*
X6475Y9911D02*
X9955Y9911D01*
X25229Y9911D02*
X29475Y9911D01*
X0525Y9960D02*
X3525Y9960D01*
X6475Y9960D02*
X10002Y9960D01*
X25229Y9960D02*
X29475Y9960D01*
X0525Y10010D02*
X3525Y10010D01*
X6475Y10010D02*
X10048Y10010D01*
X25229Y10010D02*
X29475Y10010D01*
X0525Y10059D02*
X3525Y10059D01*
X6475Y10059D02*
X10095Y10059D01*
X25229Y10059D02*
X29475Y10059D01*
X0525Y10109D02*
X3525Y10109D01*
X6475Y10109D02*
X10141Y10109D01*
X25229Y10109D02*
X29475Y10109D01*
X0525Y10158D02*
X3525Y10158D01*
X6475Y10158D02*
X10188Y10158D01*
X25229Y10158D02*
X29475Y10158D01*
X0525Y10208D02*
X3298Y10208D01*
X6702Y10208D02*
X10235Y10208D01*
X25229Y10208D02*
X29475Y10208D01*
X0525Y10257D02*
X3304Y10257D01*
X6696Y10257D02*
X10281Y10257D01*
X25228Y10257D02*
X29475Y10257D01*
X0525Y10307D02*
X3309Y10307D01*
X6691Y10307D02*
X10328Y10307D01*
X25221Y10307D02*
X29475Y10307D01*
X0525Y10356D02*
X3318Y10356D01*
X6682Y10356D02*
X10375Y10356D01*
X25201Y10356D02*
X29475Y10356D01*
X0525Y10406D02*
X3335Y10406D01*
X6665Y10406D02*
X10421Y10406D01*
X25166Y10406D02*
X29475Y10406D01*
X0525Y10456D02*
X3352Y10456D01*
X6648Y10456D02*
X10468Y10456D01*
X25098Y10456D02*
X29475Y10456D01*
X0525Y10505D02*
X3370Y10505D01*
X6630Y10505D02*
X10514Y10505D01*
X24200Y10505D02*
X29475Y10505D01*
X0525Y10555D02*
X3387Y10555D01*
X6613Y10555D02*
X10561Y10555D01*
X24227Y10555D02*
X29475Y10555D01*
X0525Y10604D02*
X3404Y10604D01*
X6596Y10604D02*
X10608Y10604D01*
X24320Y10604D02*
X29475Y10604D01*
X0525Y10654D02*
X3422Y10654D01*
X6578Y10654D02*
X10654Y10654D01*
X24376Y10654D02*
X29475Y10654D01*
X0525Y10703D02*
X3439Y10703D01*
X6561Y10703D02*
X10701Y10703D01*
X24432Y10703D02*
X29475Y10703D01*
X0525Y10753D02*
X3468Y10753D01*
X6532Y10753D02*
X10747Y10753D01*
X24488Y10753D02*
X29475Y10753D01*
X0525Y10802D02*
X3499Y10802D01*
X6501Y10802D02*
X10794Y10802D01*
X24533Y10802D02*
X29475Y10802D01*
X0525Y10852D02*
X3530Y10852D01*
X6470Y10852D02*
X10841Y10852D01*
X24567Y10852D02*
X29475Y10852D01*
X0525Y10901D02*
X3561Y10901D01*
X6439Y10901D02*
X10887Y10901D01*
X24601Y10901D02*
X29475Y10901D01*
X0525Y10951D02*
X3593Y10951D01*
X6407Y10951D02*
X10934Y10951D01*
X24635Y10951D02*
X29475Y10951D01*
X0525Y11000D02*
X3624Y11000D01*
X6376Y11000D02*
X10981Y11000D01*
X24668Y11000D02*
X29475Y11000D01*
X0525Y11050D02*
X3659Y11050D01*
X6341Y11050D02*
X11027Y11050D01*
X24686Y11050D02*
X29475Y11050D01*
X0525Y11099D02*
X3709Y11099D01*
X6291Y11099D02*
X11074Y11099D01*
X24705Y11099D02*
X29475Y11099D01*
X0525Y11149D02*
X3758Y11149D01*
X6242Y11149D02*
X11120Y11149D01*
X24724Y11149D02*
X29475Y11149D01*
X0525Y11198D02*
X3808Y11198D01*
X6192Y11198D02*
X11167Y11198D01*
X24743Y11198D02*
X29475Y11198D01*
X0525Y11248D02*
X3857Y11248D01*
X6143Y11248D02*
X11214Y11248D01*
X24759Y11248D02*
X29475Y11248D01*
X0525Y11298D02*
X3907Y11298D01*
X6093Y11298D02*
X11260Y11298D01*
X24765Y11298D02*
X29475Y11298D01*
X0525Y11347D02*
X3977Y11347D01*
X6023Y11347D02*
X11307Y11347D01*
X24771Y11347D02*
X29475Y11347D01*
X0525Y11397D02*
X4056Y11397D01*
X5944Y11397D02*
X11353Y11397D01*
X24777Y11397D02*
X29475Y11397D01*
X0525Y11446D02*
X4134Y11446D01*
X5866Y11446D02*
X11400Y11446D01*
X24783Y11446D02*
X29475Y11446D01*
X0525Y11496D02*
X4213Y11496D01*
X5787Y11496D02*
X11447Y11496D01*
X24789Y11496D02*
X29475Y11496D01*
X0525Y11545D02*
X4326Y11545D01*
X5674Y11545D02*
X11493Y11545D01*
X24784Y11545D02*
X29475Y11545D01*
X0525Y11595D02*
X4467Y11595D01*
X5533Y11595D02*
X11540Y11595D01*
X24778Y11595D02*
X29475Y11595D01*
X0525Y11644D02*
X4609Y11644D01*
X5391Y11644D02*
X11587Y11644D01*
X24772Y11644D02*
X29475Y11644D01*
X0525Y11694D02*
X11633Y11694D01*
X24766Y11694D02*
X29475Y11694D01*
X0525Y11743D02*
X11680Y11743D01*
X24760Y11743D02*
X29475Y11743D01*
X0525Y11793D02*
X11726Y11793D01*
X24746Y11793D02*
X29475Y11793D01*
X0525Y11842D02*
X11773Y11842D01*
X24727Y11842D02*
X29475Y11842D01*
X0525Y11892D02*
X11820Y11892D01*
X24708Y11892D02*
X29475Y11892D01*
X0525Y11941D02*
X11876Y11941D01*
X24690Y11941D02*
X29475Y11941D01*
X0525Y11991D02*
X12385Y11991D01*
X13515Y11991D02*
X14485Y11991D01*
X15615Y11991D02*
X17238Y11991D01*
X18762Y11991D02*
X22729Y11991D01*
X24671Y11991D02*
X29475Y11991D01*
X0525Y12040D02*
X12385Y12040D01*
X13515Y12040D02*
X14485Y12040D01*
X15615Y12040D02*
X22759Y12040D01*
X24641Y12040D02*
X29475Y12040D01*
X0525Y12090D02*
X12385Y12090D01*
X13515Y12090D02*
X14485Y12090D01*
X15615Y12090D02*
X22793Y12090D01*
X24607Y12090D02*
X29475Y12090D01*
X0525Y12140D02*
X12385Y12140D01*
X13515Y12140D02*
X14485Y12140D01*
X15615Y12140D02*
X22827Y12140D01*
X24573Y12140D02*
X29475Y12140D01*
X0525Y12189D02*
X12387Y12189D01*
X13513Y12189D02*
X14487Y12189D01*
X15613Y12189D02*
X22861Y12189D01*
X24539Y12189D02*
X29475Y12189D01*
X0525Y12239D02*
X12399Y12239D01*
X13501Y12239D02*
X14499Y12239D01*
X15601Y12239D02*
X22902Y12239D01*
X24498Y12239D02*
X29475Y12239D01*
X0525Y12288D02*
X12424Y12288D01*
X13476Y12288D02*
X14524Y12288D01*
X15576Y12288D02*
X22958Y12288D01*
X24442Y12288D02*
X29475Y12288D01*
X0525Y12338D02*
X12470Y12338D01*
X13430Y12338D02*
X14570Y12338D01*
X15530Y12338D02*
X23014Y12338D01*
X24386Y12338D02*
X29475Y12338D01*
X0525Y12387D02*
X12579Y12387D01*
X13321Y12387D02*
X14679Y12387D01*
X15421Y12387D02*
X23070Y12387D01*
X24330Y12387D02*
X29475Y12387D01*
X0525Y12437D02*
X23157Y12437D01*
X24243Y12437D02*
X29475Y12437D01*
X0525Y12486D02*
X23234Y12486D01*
X24166Y12486D02*
X29475Y12486D01*
X0525Y12536D02*
X23209Y12536D01*
X24191Y12536D02*
X29475Y12536D01*
X0525Y12585D02*
X23115Y12585D01*
X24285Y12585D02*
X29475Y12585D01*
X0525Y12635D02*
X12511Y12635D01*
X12874Y12635D02*
X13026Y12635D01*
X13389Y12635D02*
X14611Y12635D01*
X15489Y12635D02*
X23045Y12635D01*
X24355Y12635D02*
X29475Y12635D01*
X0525Y12684D02*
X12446Y12684D01*
X12874Y12684D02*
X13026Y12684D01*
X13454Y12684D02*
X14546Y12684D01*
X15554Y12684D02*
X22989Y12684D01*
X24411Y12684D02*
X29475Y12684D01*
X0525Y12734D02*
X12411Y12734D01*
X12874Y12734D02*
X13026Y12734D01*
X13489Y12734D02*
X14511Y12734D01*
X15589Y12734D02*
X22933Y12734D01*
X24467Y12734D02*
X29475Y12734D01*
X0525Y12783D02*
X12393Y12783D01*
X12874Y12783D02*
X13026Y12783D01*
X13507Y12783D02*
X14493Y12783D01*
X15607Y12783D02*
X22880Y12783D01*
X24520Y12783D02*
X29475Y12783D01*
X0525Y12833D02*
X12385Y12833D01*
X12874Y12833D02*
X13026Y12833D01*
X13515Y12833D02*
X14485Y12833D01*
X15615Y12833D02*
X22846Y12833D01*
X24554Y12833D02*
X29475Y12833D01*
X0525Y12883D02*
X12385Y12883D01*
X13515Y12883D02*
X14485Y12883D01*
X15615Y12883D02*
X22812Y12883D01*
X24588Y12883D02*
X29475Y12883D01*
X0525Y12932D02*
X12385Y12932D01*
X13515Y12932D02*
X14485Y12932D01*
X15615Y12932D02*
X22778Y12932D01*
X24622Y12932D02*
X29475Y12932D01*
X0525Y12982D02*
X12385Y12982D01*
X13515Y12982D02*
X14485Y12982D01*
X15615Y12982D02*
X22743Y12982D01*
X24657Y12982D02*
X29475Y12982D01*
X0525Y13031D02*
X12385Y13031D01*
X13515Y13031D02*
X14485Y13031D01*
X24679Y13031D02*
X29475Y13031D01*
X0525Y13081D02*
X12385Y13081D01*
X13515Y13081D02*
X14485Y13081D01*
X24698Y13081D02*
X29475Y13081D01*
X0525Y13130D02*
X12385Y13130D01*
X13515Y13130D02*
X14485Y13130D01*
X24717Y13130D02*
X29475Y13130D01*
X0525Y13180D02*
X12385Y13180D01*
X13515Y13180D02*
X14485Y13180D01*
X24736Y13180D02*
X29475Y13180D01*
X0525Y13229D02*
X12385Y13229D01*
X13515Y13229D02*
X14485Y13229D01*
X24754Y13229D02*
X29475Y13229D01*
X0525Y13279D02*
X12385Y13279D01*
X13515Y13279D02*
X14485Y13279D01*
X24763Y13279D02*
X29475Y13279D01*
X0525Y13328D02*
X4840Y13328D01*
X5160Y13328D02*
X12385Y13328D01*
X13515Y13328D02*
X14485Y13328D01*
X24769Y13328D02*
X29475Y13328D01*
X0525Y13378D02*
X4546Y13378D01*
X5454Y13378D02*
X12385Y13378D01*
X13515Y13378D02*
X14485Y13378D01*
X24775Y13378D02*
X29475Y13378D01*
X0525Y13427D02*
X4404Y13427D01*
X5596Y13427D02*
X12640Y13427D01*
X13260Y13427D02*
X14485Y13427D01*
X24781Y13427D02*
X29475Y13427D01*
X0525Y13477D02*
X4263Y13477D01*
X5737Y13477D02*
X12640Y13477D01*
X13260Y13477D02*
X14485Y13477D01*
X24787Y13477D02*
X29475Y13477D01*
X0525Y13526D02*
X4178Y13526D01*
X5822Y13526D02*
X12640Y13526D01*
X13260Y13526D02*
X14485Y13526D01*
X24787Y13526D02*
X29475Y13526D01*
X0525Y13576D02*
X4099Y13576D01*
X5901Y13576D02*
X12640Y13576D01*
X13260Y13576D02*
X14485Y13576D01*
X24781Y13576D02*
X29475Y13576D01*
X0525Y13625D02*
X4020Y13625D01*
X5980Y13625D02*
X12385Y13625D01*
X13515Y13625D02*
X14485Y13625D01*
X24775Y13625D02*
X29475Y13625D01*
X0525Y13675D02*
X3942Y13675D01*
X6058Y13675D02*
X12385Y13675D01*
X13515Y13675D02*
X14485Y13675D01*
X24769Y13675D02*
X29475Y13675D01*
X0525Y13725D02*
X3885Y13725D01*
X6115Y13725D02*
X12385Y13725D01*
X13515Y13725D02*
X14485Y13725D01*
X24763Y13725D02*
X29475Y13725D01*
X0525Y13774D02*
X3835Y13774D01*
X6165Y13774D02*
X12385Y13774D01*
X13515Y13774D02*
X14485Y13774D01*
X24753Y13774D02*
X29475Y13774D01*
X0525Y13824D02*
X3786Y13824D01*
X6214Y13824D02*
X12385Y13824D01*
X13515Y13824D02*
X14485Y13824D01*
X24734Y13824D02*
X29475Y13824D01*
X0525Y13873D02*
X3736Y13873D01*
X6264Y13873D02*
X12385Y13873D01*
X13515Y13873D02*
X14485Y13873D01*
X24716Y13873D02*
X29475Y13873D01*
X0525Y13923D02*
X3686Y13923D01*
X6314Y13923D02*
X12385Y13923D01*
X13515Y13923D02*
X14485Y13923D01*
X24697Y13923D02*
X29475Y13923D01*
X0525Y13972D02*
X3641Y13972D01*
X6359Y13972D02*
X12385Y13972D01*
X13515Y13972D02*
X14485Y13972D01*
X24678Y13972D02*
X29475Y13972D01*
X0525Y14022D02*
X3610Y14022D01*
X6390Y14022D02*
X12385Y14022D01*
X13515Y14022D02*
X14485Y14022D01*
X15615Y14022D02*
X17155Y14022D01*
X18845Y14022D02*
X22746Y14022D01*
X24654Y14022D02*
X29475Y14022D01*
X0525Y14071D02*
X3579Y14071D01*
X6421Y14071D02*
X12385Y14071D01*
X13515Y14071D02*
X14485Y14071D01*
X15615Y14071D02*
X17205Y14071D01*
X18795Y14071D02*
X22780Y14071D01*
X24620Y14071D02*
X29475Y14071D01*
X0525Y14121D02*
X3548Y14121D01*
X6452Y14121D02*
X12385Y14121D01*
X13515Y14121D02*
X14485Y14121D01*
X15615Y14121D02*
X22814Y14121D01*
X24586Y14121D02*
X29475Y14121D01*
X0525Y14170D02*
X3516Y14170D01*
X6484Y14170D02*
X12386Y14170D01*
X12874Y14170D02*
X13026Y14170D01*
X13514Y14170D02*
X14486Y14170D01*
X15614Y14170D02*
X22848Y14170D01*
X24552Y14170D02*
X29475Y14170D01*
X0525Y14220D02*
X3485Y14220D01*
X6515Y14220D02*
X12393Y14220D01*
X12874Y14220D02*
X13026Y14220D01*
X13507Y14220D02*
X14493Y14220D01*
X15607Y14220D02*
X22882Y14220D01*
X24518Y14220D02*
X29475Y14220D01*
X0525Y14269D02*
X3454Y14269D01*
X6546Y14269D02*
X12413Y14269D01*
X12874Y14269D02*
X13026Y14269D01*
X13487Y14269D02*
X14513Y14269D01*
X15587Y14269D02*
X22937Y14269D01*
X24463Y14269D02*
X29475Y14269D01*
X0525Y14319D02*
X3431Y14319D01*
X6569Y14319D02*
X12449Y14319D01*
X12874Y14319D02*
X13026Y14319D01*
X13451Y14319D02*
X14549Y14319D01*
X15551Y14319D02*
X22993Y14319D01*
X24407Y14319D02*
X29475Y14319D01*
X0525Y14368D02*
X3414Y14368D01*
X6586Y14368D02*
X12519Y14368D01*
X12874Y14368D02*
X13026Y14368D01*
X13381Y14368D02*
X14619Y14368D01*
X15481Y14368D02*
X23049Y14368D01*
X24351Y14368D02*
X29475Y14368D01*
X0525Y14418D02*
X3397Y14418D01*
X6603Y14418D02*
X23121Y14418D01*
X24279Y14418D02*
X29475Y14418D01*
X0525Y14467D02*
X3379Y14467D01*
X6621Y14467D02*
X23215Y14467D01*
X24185Y14467D02*
X29475Y14467D01*
X0525Y14517D02*
X3362Y14517D01*
X6638Y14517D02*
X23310Y14517D01*
X24090Y14517D02*
X29475Y14517D01*
X0525Y14567D02*
X3345Y14567D01*
X6655Y14567D02*
X23506Y14567D01*
X23894Y14567D02*
X29475Y14567D01*
X0525Y14616D02*
X3327Y14616D01*
X6673Y14616D02*
X29475Y14616D01*
X0525Y14666D02*
X3312Y14666D01*
X6688Y14666D02*
X29475Y14666D01*
X0525Y14715D02*
X3307Y14715D01*
X6693Y14715D02*
X29475Y14715D01*
X0525Y14765D02*
X3301Y14765D01*
X6699Y14765D02*
X29475Y14765D01*
X0525Y14814D02*
X3296Y14814D01*
X6704Y14814D02*
X29475Y14814D01*
X0525Y14864D02*
X3525Y14864D01*
X6475Y14864D02*
X29475Y14864D01*
X0525Y14913D02*
X3525Y14913D01*
X6475Y14913D02*
X29475Y14913D01*
X0525Y14963D02*
X3525Y14963D01*
X6475Y14963D02*
X23550Y14963D01*
X23614Y14963D02*
X23786Y14963D01*
X23850Y14963D02*
X29475Y14963D01*
X0525Y15012D02*
X3525Y15012D01*
X6475Y15012D02*
X23349Y15012D01*
X23624Y15012D02*
X23776Y15012D01*
X24051Y15012D02*
X29475Y15012D01*
X0525Y15062D02*
X3525Y15062D01*
X6475Y15062D02*
X23236Y15062D01*
X23624Y15062D02*
X23776Y15062D01*
X24164Y15062D02*
X29475Y15062D01*
X0525Y15111D02*
X3525Y15111D01*
X6475Y15111D02*
X23141Y15111D01*
X23624Y15111D02*
X23776Y15111D01*
X24259Y15111D02*
X29475Y15111D01*
X0525Y15161D02*
X3525Y15161D01*
X6475Y15161D02*
X23061Y15161D01*
X23624Y15161D02*
X23776Y15161D01*
X24339Y15161D02*
X29475Y15161D01*
X0525Y15210D02*
X3525Y15210D01*
X6475Y15210D02*
X23005Y15210D01*
X23624Y15210D02*
X23776Y15210D01*
X24395Y15210D02*
X29475Y15210D01*
X0525Y15260D02*
X3295Y15260D01*
X6705Y15260D02*
X22949Y15260D01*
X24451Y15260D02*
X29475Y15260D01*
X0525Y15309D02*
X3301Y15309D01*
X6699Y15309D02*
X22893Y15309D01*
X24507Y15309D02*
X29475Y15309D01*
X0525Y15359D02*
X3306Y15359D01*
X6694Y15359D02*
X22856Y15359D01*
X24544Y15359D02*
X29475Y15359D01*
X0525Y15409D02*
X3312Y15409D01*
X6688Y15409D02*
X22821Y15409D01*
X24579Y15409D02*
X29475Y15409D01*
X0525Y15458D02*
X3325Y15458D01*
X6675Y15458D02*
X22787Y15458D01*
X24613Y15458D02*
X29475Y15458D01*
X0525Y15508D02*
X3343Y15508D01*
X6657Y15508D02*
X22753Y15508D01*
X24647Y15508D02*
X29475Y15508D01*
X0525Y15557D02*
X3360Y15557D01*
X6640Y15557D02*
X22726Y15557D01*
X24674Y15557D02*
X29475Y15557D01*
X0525Y15607D02*
X3377Y15607D01*
X6623Y15607D02*
X22707Y15607D01*
X24693Y15607D02*
X29475Y15607D01*
X0525Y15656D02*
X3395Y15656D01*
X6605Y15656D02*
X22689Y15656D01*
X24711Y15656D02*
X29475Y15656D01*
X0525Y15706D02*
X3412Y15706D01*
X6588Y15706D02*
X22670Y15706D01*
X24730Y15706D02*
X29475Y15706D01*
X0525Y15755D02*
X3429Y15755D01*
X6571Y15755D02*
X22651Y15755D01*
X24749Y15755D02*
X29475Y15755D01*
X0525Y15805D02*
X3450Y15805D01*
X6550Y15805D02*
X22639Y15805D01*
X24761Y15805D02*
X29475Y15805D01*
X0525Y15854D02*
X3482Y15854D01*
X6518Y15854D02*
X22633Y15854D01*
X24767Y15854D02*
X29475Y15854D01*
X0525Y15904D02*
X3513Y15904D01*
X6487Y15904D02*
X22627Y15904D01*
X24773Y15904D02*
X29475Y15904D01*
X0525Y15953D02*
X3544Y15953D01*
X6456Y15953D02*
X22627Y15953D01*
X24773Y15953D02*
X29475Y15953D01*
X0525Y16003D02*
X3575Y16003D01*
X6425Y16003D02*
X22865Y16003D01*
X24535Y16003D02*
X29475Y16003D01*
X0525Y16052D02*
X3606Y16052D01*
X6394Y16052D02*
X22865Y16052D01*
X24535Y16052D02*
X29475Y16052D01*
X0525Y16102D02*
X3637Y16102D01*
X6363Y16102D02*
X22865Y16102D01*
X24535Y16102D02*
X29475Y16102D01*
X0525Y16151D02*
X3681Y16151D01*
X6319Y16151D02*
X22624Y16151D01*
X24776Y16151D02*
X29475Y16151D01*
X0525Y16201D02*
X3730Y16201D01*
X6270Y16201D02*
X22630Y16201D01*
X24770Y16201D02*
X29475Y16201D01*
X0525Y16251D02*
X3780Y16251D01*
X6220Y16251D02*
X22636Y16251D01*
X24764Y16251D02*
X29475Y16251D01*
X0525Y16300D02*
X3829Y16300D01*
X6171Y16300D02*
X22642Y16300D01*
X24758Y16300D02*
X29475Y16300D01*
X0525Y16350D02*
X3879Y16350D01*
X6121Y16350D02*
X22660Y16350D01*
X24740Y16350D02*
X29475Y16350D01*
X0525Y16399D02*
X3932Y16399D01*
X6068Y16399D02*
X22679Y16399D01*
X24721Y16399D02*
X29475Y16399D01*
X0525Y16449D02*
X4011Y16449D01*
X5989Y16449D02*
X22698Y16449D01*
X24702Y16449D02*
X29475Y16449D01*
X0525Y16498D02*
X4090Y16498D01*
X5910Y16498D02*
X22717Y16498D01*
X24683Y16498D02*
X29475Y16498D01*
X0525Y16548D02*
X4169Y16548D01*
X5831Y16548D02*
X22736Y16548D01*
X24664Y16548D02*
X29475Y16548D01*
X0525Y16597D02*
X4248Y16597D01*
X5752Y16597D02*
X22770Y16597D01*
X24630Y16597D02*
X29475Y16597D01*
X0525Y16647D02*
X4388Y16647D01*
X5612Y16647D02*
X14489Y16647D01*
X14924Y16647D02*
X15076Y16647D01*
X15511Y16647D02*
X22804Y16647D01*
X24596Y16647D02*
X29475Y16647D01*
X0525Y16696D02*
X4529Y16696D01*
X5471Y16696D02*
X14256Y16696D01*
X14924Y16696D02*
X15076Y16696D01*
X15744Y16696D02*
X22838Y16696D01*
X24562Y16696D02*
X29475Y16696D01*
X0525Y16746D02*
X4788Y16746D01*
X5212Y16746D02*
X14023Y16746D01*
X14924Y16746D02*
X15076Y16746D01*
X15977Y16746D02*
X22873Y16746D01*
X24527Y16746D02*
X29475Y16746D01*
X0525Y16795D02*
X13873Y16795D01*
X14924Y16795D02*
X15076Y16795D01*
X16127Y16795D02*
X22921Y16795D01*
X24479Y16795D02*
X29475Y16795D01*
X0525Y16845D02*
X13761Y16845D01*
X14924Y16845D02*
X15076Y16845D01*
X16239Y16845D02*
X22977Y16845D01*
X24423Y16845D02*
X29475Y16845D01*
X0525Y16894D02*
X13650Y16894D01*
X16350Y16894D02*
X23033Y16894D01*
X23624Y16894D02*
X23776Y16894D01*
X24367Y16894D02*
X29475Y16894D01*
X0525Y16944D02*
X13539Y16944D01*
X16461Y16944D02*
X23094Y16944D01*
X23624Y16944D02*
X23776Y16944D01*
X24306Y16944D02*
X29475Y16944D01*
X0525Y16993D02*
X13428Y16993D01*
X16572Y16993D02*
X23189Y16993D01*
X23624Y16993D02*
X23776Y16993D01*
X24211Y16993D02*
X29475Y16993D01*
X0525Y17043D02*
X13316Y17043D01*
X16684Y17043D02*
X23283Y17043D01*
X23624Y17043D02*
X23776Y17043D01*
X24117Y17043D02*
X29475Y17043D01*
X0525Y17093D02*
X13241Y17093D01*
X16759Y17093D02*
X23450Y17093D01*
X23624Y17093D02*
X23776Y17093D01*
X23950Y17093D02*
X29475Y17093D01*
X0525Y17142D02*
X13173Y17142D01*
X16827Y17142D02*
X29475Y17142D01*
X0525Y17192D02*
X13105Y17192D01*
X16895Y17192D02*
X29475Y17192D01*
X0525Y17241D02*
X13036Y17241D01*
X16964Y17241D02*
X29475Y17241D01*
X0525Y17291D02*
X12968Y17291D01*
X17032Y17291D02*
X29475Y17291D01*
X0525Y17340D02*
X12900Y17340D01*
X17100Y17340D02*
X29475Y17340D01*
X0525Y17390D02*
X12832Y17390D01*
X17168Y17390D02*
X25971Y17390D01*
X26334Y17390D02*
X26486Y17390D01*
X26849Y17390D02*
X29475Y17390D01*
X0525Y17439D02*
X12764Y17439D01*
X17236Y17439D02*
X25830Y17439D01*
X26334Y17439D02*
X26486Y17439D01*
X26990Y17439D02*
X29475Y17439D01*
X0525Y17489D02*
X12705Y17489D01*
X17295Y17489D02*
X25688Y17489D01*
X26334Y17489D02*
X26486Y17489D01*
X27132Y17489D02*
X29475Y17489D01*
X0525Y17538D02*
X12660Y17538D01*
X17340Y17538D02*
X25587Y17538D01*
X26334Y17538D02*
X26486Y17538D01*
X27233Y17538D02*
X29475Y17538D01*
X0525Y17588D02*
X12615Y17588D01*
X17385Y17588D02*
X25508Y17588D01*
X27312Y17588D02*
X29475Y17588D01*
X0525Y17637D02*
X12571Y17637D01*
X17429Y17637D02*
X25429Y17637D01*
X27391Y17637D02*
X29475Y17637D01*
X0525Y17687D02*
X12526Y17687D01*
X17474Y17687D02*
X25351Y17687D01*
X27469Y17687D02*
X29475Y17687D01*
X0525Y17736D02*
X12482Y17736D01*
X17518Y17736D02*
X25282Y17736D01*
X27538Y17736D02*
X29475Y17736D01*
X0525Y17786D02*
X12437Y17786D01*
X17563Y17786D02*
X25233Y17786D01*
X27587Y17786D02*
X29475Y17786D01*
X0525Y17835D02*
X12392Y17835D01*
X17608Y17835D02*
X25183Y17835D01*
X27637Y17835D02*
X29475Y17835D01*
X0525Y17885D02*
X12348Y17885D01*
X17652Y17885D02*
X25134Y17885D01*
X27686Y17885D02*
X29475Y17885D01*
X0525Y17935D02*
X12303Y17935D01*
X17697Y17935D02*
X25084Y17935D01*
X27736Y17935D02*
X29475Y17935D01*
X0525Y17984D02*
X12259Y17984D01*
X17741Y17984D02*
X25035Y17984D01*
X27785Y17984D02*
X29475Y17984D01*
X0525Y18034D02*
X12225Y18034D01*
X17775Y18034D02*
X24998Y18034D01*
X27822Y18034D02*
X29475Y18034D01*
X0525Y18083D02*
X12197Y18083D01*
X17803Y18083D02*
X24966Y18083D01*
X27854Y18083D02*
X29475Y18083D01*
X0525Y18133D02*
X12168Y18133D01*
X17832Y18133D02*
X24935Y18133D01*
X27885Y18133D02*
X29475Y18133D01*
X0525Y18182D02*
X12140Y18182D01*
X17860Y18182D02*
X24904Y18182D01*
X27916Y18182D02*
X29475Y18182D01*
X0525Y18232D02*
X12111Y18232D01*
X17889Y18232D02*
X24873Y18232D01*
X27947Y18232D02*
X29475Y18232D01*
X0525Y18281D02*
X12082Y18281D01*
X17918Y18281D02*
X24842Y18281D01*
X27978Y18281D02*
X29475Y18281D01*
X0525Y18331D02*
X12054Y18331D01*
X17946Y18331D02*
X24811Y18331D01*
X28009Y18331D02*
X29475Y18331D01*
X0525Y18380D02*
X12025Y18380D01*
X17975Y18380D02*
X24792Y18380D01*
X28028Y18380D02*
X29475Y18380D01*
X0525Y18430D02*
X4648Y18430D01*
X5352Y18430D02*
X11997Y18430D01*
X18003Y18430D02*
X24774Y18430D01*
X28046Y18430D02*
X29475Y18430D01*
X0525Y18479D02*
X4484Y18479D01*
X5516Y18479D02*
X11968Y18479D01*
X18032Y18479D02*
X24757Y18479D01*
X28063Y18479D02*
X29475Y18479D01*
X0525Y18529D02*
X4343Y18529D01*
X5657Y18529D02*
X11939Y18529D01*
X18061Y18529D02*
X24740Y18529D01*
X28080Y18529D02*
X29475Y18529D01*
X0525Y18578D02*
X4223Y18578D01*
X5777Y18578D02*
X11911Y18578D01*
X18089Y18578D02*
X24722Y18578D01*
X28098Y18578D02*
X29475Y18578D01*
X0525Y18628D02*
X4144Y18628D01*
X5856Y18628D02*
X11885Y18628D01*
X18115Y18628D02*
X24705Y18628D01*
X28115Y18628D02*
X29475Y18628D01*
X0525Y18678D02*
X4065Y18678D01*
X5935Y18678D02*
X11869Y18678D01*
X18131Y18678D02*
X24688Y18678D01*
X28132Y18678D02*
X29475Y18678D01*
X0525Y18727D02*
X3986Y18727D01*
X6014Y18727D02*
X11853Y18727D01*
X18147Y18727D02*
X24673Y18727D01*
X28147Y18727D02*
X29475Y18727D01*
X0525Y18777D02*
X3913Y18777D01*
X6087Y18777D02*
X11837Y18777D01*
X18163Y18777D02*
X24668Y18777D01*
X28152Y18777D02*
X29475Y18777D01*
X0525Y18826D02*
X3863Y18826D01*
X6137Y18826D02*
X11821Y18826D01*
X18179Y18826D02*
X24662Y18826D01*
X28158Y18826D02*
X29475Y18826D01*
X0525Y18876D02*
X3813Y18876D01*
X6187Y18876D02*
X11805Y18876D01*
X18195Y18876D02*
X24657Y18876D01*
X28163Y18876D02*
X29475Y18876D01*
X0525Y18925D02*
X3764Y18925D01*
X6236Y18925D02*
X11789Y18925D01*
X18211Y18925D02*
X24651Y18925D01*
X28169Y18925D02*
X29475Y18925D01*
X0525Y18975D02*
X3714Y18975D01*
X6286Y18975D02*
X11773Y18975D01*
X18227Y18975D02*
X24645Y18975D01*
X28175Y18975D02*
X29475Y18975D01*
X0525Y19024D02*
X3665Y19024D01*
X6335Y19024D02*
X11757Y19024D01*
X18243Y19024D02*
X24647Y19024D01*
X28173Y19024D02*
X29475Y19024D01*
X0525Y19074D02*
X3627Y19074D01*
X6373Y19074D02*
X11741Y19074D01*
X18259Y19074D02*
X24885Y19074D01*
X27935Y19074D02*
X29475Y19074D01*
X0525Y19123D02*
X3596Y19123D01*
X6404Y19123D02*
X11725Y19123D01*
X18275Y19123D02*
X24885Y19123D01*
X27935Y19123D02*
X29475Y19123D01*
X0525Y19173D02*
X3565Y19173D01*
X6435Y19173D02*
X11708Y19173D01*
X18292Y19173D02*
X24885Y19173D01*
X27935Y19173D02*
X29475Y19173D01*
X0525Y19222D02*
X3534Y19222D01*
X6466Y19222D02*
X11692Y19222D01*
X18308Y19222D02*
X24643Y19222D01*
X28177Y19222D02*
X29475Y19222D01*
X0525Y19272D02*
X3503Y19272D01*
X6497Y19272D02*
X11676Y19272D01*
X18324Y19272D02*
X24648Y19272D01*
X28172Y19272D02*
X29475Y19272D01*
X0525Y19321D02*
X3472Y19321D01*
X6528Y19321D02*
X11667Y19321D01*
X18333Y19321D02*
X24654Y19321D01*
X28166Y19321D02*
X29475Y19321D01*
X0525Y19371D02*
X3441Y19371D01*
X6559Y19371D02*
X11661Y19371D01*
X18339Y19371D02*
X24660Y19371D01*
X28160Y19371D02*
X29475Y19371D01*
X0525Y19420D02*
X3424Y19420D01*
X6576Y19420D02*
X11656Y19420D01*
X18344Y19420D02*
X24665Y19420D01*
X28155Y19420D02*
X29475Y19420D01*
X0525Y19470D02*
X3406Y19470D01*
X6594Y19470D02*
X11651Y19470D01*
X18349Y19470D02*
X24671Y19470D01*
X28149Y19470D02*
X29475Y19470D01*
X0525Y19520D02*
X3389Y19520D01*
X6611Y19520D02*
X11646Y19520D01*
X18354Y19520D02*
X24680Y19520D01*
X28140Y19520D02*
X29475Y19520D01*
X0525Y19569D02*
X3372Y19569D01*
X6628Y19569D02*
X11641Y19569D01*
X18359Y19569D02*
X24697Y19569D01*
X28123Y19569D02*
X29475Y19569D01*
X0525Y19619D02*
X3354Y19619D01*
X6646Y19619D02*
X11635Y19619D01*
X18365Y19619D02*
X24714Y19619D01*
X28106Y19619D02*
X29475Y19619D01*
X0525Y19668D02*
X3337Y19668D01*
X6663Y19668D02*
X11630Y19668D01*
X18370Y19668D02*
X24732Y19668D01*
X28088Y19668D02*
X29475Y19668D01*
X0525Y19718D02*
X3320Y19718D01*
X6680Y19718D02*
X11625Y19718D01*
X18375Y19718D02*
X24749Y19718D01*
X28071Y19718D02*
X29475Y19718D01*
X0525Y19767D02*
X3310Y19767D01*
X6690Y19767D02*
X11620Y19767D01*
X18380Y19767D02*
X24766Y19767D01*
X28054Y19767D02*
X29475Y19767D01*
X0525Y19817D02*
X3304Y19817D01*
X6696Y19817D02*
X11615Y19817D01*
X18385Y19817D02*
X24784Y19817D01*
X28036Y19817D02*
X29475Y19817D01*
X0525Y19866D02*
X3299Y19866D01*
X6701Y19866D02*
X11609Y19866D01*
X18391Y19866D02*
X24801Y19866D01*
X28019Y19866D02*
X29475Y19866D01*
X0525Y19916D02*
X3293Y19916D01*
X6707Y19916D02*
X11613Y19916D01*
X18387Y19916D02*
X24828Y19916D01*
X27992Y19916D02*
X29475Y19916D01*
X0525Y19965D02*
X3288Y19965D01*
X6712Y19965D02*
X11850Y19965D01*
X18150Y19965D02*
X24859Y19965D01*
X27961Y19965D02*
X29475Y19965D01*
X0525Y20015D02*
X3282Y20015D01*
X6718Y20015D02*
X11850Y20015D01*
X18150Y20015D02*
X24890Y20015D01*
X27930Y20015D02*
X29475Y20015D01*
X0525Y20064D02*
X3277Y20064D01*
X6723Y20064D02*
X11850Y20064D01*
X18150Y20064D02*
X24921Y20064D01*
X27899Y20064D02*
X29475Y20064D01*
X0525Y20114D02*
X3271Y20114D01*
X6729Y20114D02*
X11607Y20114D01*
X18393Y20114D02*
X24952Y20114D01*
X27868Y20114D02*
X29475Y20114D01*
X0525Y20163D02*
X3275Y20163D01*
X6725Y20163D02*
X11612Y20163D01*
X18388Y20163D02*
X24983Y20163D01*
X27837Y20163D02*
X29475Y20163D01*
X0525Y20213D02*
X3281Y20213D01*
X6719Y20213D02*
X11618Y20213D01*
X18382Y20213D02*
X25014Y20213D01*
X27806Y20213D02*
X29475Y20213D01*
X0525Y20262D02*
X3286Y20262D01*
X6714Y20262D02*
X11623Y20262D01*
X18377Y20262D02*
X25061Y20262D01*
X27759Y20262D02*
X29475Y20262D01*
X0525Y20312D02*
X3292Y20312D01*
X6708Y20312D02*
X11628Y20312D01*
X18372Y20312D02*
X25111Y20312D01*
X27709Y20312D02*
X29475Y20312D01*
X0525Y20362D02*
X3297Y20362D01*
X6703Y20362D02*
X11633Y20362D01*
X18367Y20362D02*
X25160Y20362D01*
X27660Y20362D02*
X29475Y20362D01*
X0525Y20411D02*
X3303Y20411D01*
X6697Y20411D02*
X11638Y20411D01*
X18362Y20411D02*
X25210Y20411D01*
X27610Y20411D02*
X29475Y20411D01*
X0525Y20461D02*
X3309Y20461D01*
X6691Y20461D02*
X11644Y20461D01*
X18356Y20461D02*
X25259Y20461D01*
X27561Y20461D02*
X29475Y20461D01*
X0525Y20510D02*
X3315Y20510D01*
X6685Y20510D02*
X11649Y20510D01*
X18351Y20510D02*
X25314Y20510D01*
X27506Y20510D02*
X29475Y20510D01*
X0525Y20560D02*
X3333Y20560D01*
X6667Y20560D02*
X11654Y20560D01*
X18346Y20560D02*
X25393Y20560D01*
X27427Y20560D02*
X29475Y20560D01*
X0525Y20609D02*
X3350Y20609D01*
X6650Y20609D02*
X11659Y20609D01*
X18341Y20609D02*
X25472Y20609D01*
X27348Y20609D02*
X29475Y20609D01*
X0525Y20659D02*
X3367Y20659D01*
X6633Y20659D02*
X11664Y20659D01*
X18336Y20659D02*
X25551Y20659D01*
X26334Y20659D02*
X26486Y20659D01*
X27269Y20659D02*
X29475Y20659D01*
X0525Y20708D02*
X3385Y20708D01*
X6615Y20708D02*
X11670Y20708D01*
X18330Y20708D02*
X25629Y20708D01*
X26334Y20708D02*
X26486Y20708D01*
X27191Y20708D02*
X29475Y20708D01*
X0525Y20758D02*
X3402Y20758D01*
X6598Y20758D02*
X11686Y20758D01*
X18314Y20758D02*
X25764Y20758D01*
X26334Y20758D02*
X26486Y20758D01*
X27056Y20758D02*
X29475Y20758D01*
X0525Y20807D02*
X3419Y20807D01*
X6581Y20807D02*
X11702Y20807D01*
X18298Y20807D02*
X25906Y20807D01*
X26334Y20807D02*
X26486Y20807D01*
X26914Y20807D02*
X29475Y20807D01*
X0525Y20857D02*
X3437Y20857D01*
X6563Y20857D02*
X11718Y20857D01*
X18282Y20857D02*
X26118Y20857D01*
X26334Y20857D02*
X26486Y20857D01*
X26702Y20857D02*
X29475Y20857D01*
X0525Y20906D02*
X3464Y20906D01*
X6536Y20906D02*
X11734Y20906D01*
X18266Y20906D02*
X29475Y20906D01*
X0525Y20956D02*
X3495Y20956D01*
X6505Y20956D02*
X11750Y20956D01*
X18250Y20956D02*
X29475Y20956D01*
X0525Y21005D02*
X3526Y21005D01*
X6474Y21005D02*
X11766Y21005D01*
X18234Y21005D02*
X29475Y21005D01*
X0525Y21055D02*
X3557Y21055D01*
X6443Y21055D02*
X11782Y21055D01*
X18218Y21055D02*
X29475Y21055D01*
X0525Y21104D02*
X3589Y21104D01*
X6411Y21104D02*
X11799Y21104D01*
X18201Y21104D02*
X29475Y21104D01*
X0525Y21154D02*
X3620Y21154D01*
X6380Y21154D02*
X11815Y21154D01*
X18185Y21154D02*
X29475Y21154D01*
X0525Y21204D02*
X3653Y21204D01*
X6347Y21204D02*
X11831Y21204D01*
X18169Y21204D02*
X29475Y21204D01*
X0525Y21253D02*
X3702Y21253D01*
X6298Y21253D02*
X11847Y21253D01*
X18153Y21253D02*
X29475Y21253D01*
X0525Y21303D02*
X3752Y21303D01*
X6248Y21303D02*
X11863Y21303D01*
X18137Y21303D02*
X29475Y21303D01*
X0525Y21352D02*
X3801Y21352D01*
X6199Y21352D02*
X11879Y21352D01*
X18121Y21352D02*
X29475Y21352D01*
X0525Y21402D02*
X3851Y21402D01*
X6149Y21402D02*
X11899Y21402D01*
X18101Y21402D02*
X29475Y21402D01*
X0525Y21451D02*
X3900Y21451D01*
X6100Y21451D02*
X11928Y21451D01*
X18072Y21451D02*
X29475Y21451D01*
X0525Y21501D02*
X3967Y21501D01*
X6033Y21501D02*
X11957Y21501D01*
X18043Y21501D02*
X29475Y21501D01*
X0525Y21550D02*
X4045Y21550D01*
X5955Y21550D02*
X11985Y21550D01*
X18015Y21550D02*
X29475Y21550D01*
X0525Y21600D02*
X4124Y21600D01*
X5876Y21600D02*
X12014Y21600D01*
X17986Y21600D02*
X29475Y21600D01*
X0525Y21649D02*
X4203Y21649D01*
X5797Y21649D02*
X12042Y21649D01*
X17958Y21649D02*
X29475Y21649D01*
X0525Y21699D02*
X4308Y21699D01*
X5692Y21699D02*
X12071Y21699D01*
X17929Y21699D02*
X29475Y21699D01*
X0525Y21748D02*
X4449Y21748D01*
X5551Y21748D02*
X12100Y21748D01*
X17900Y21748D02*
X29475Y21748D01*
X0525Y21798D02*
X4591Y21798D01*
X5409Y21798D02*
X12128Y21798D01*
X17872Y21798D02*
X29475Y21798D01*
X0525Y21847D02*
X4979Y21847D01*
X5021Y21847D02*
X12157Y21847D01*
X17843Y21847D02*
X29475Y21847D01*
X0525Y21897D02*
X12185Y21897D01*
X17815Y21897D02*
X29475Y21897D01*
X0525Y21946D02*
X12214Y21946D01*
X17786Y21946D02*
X29475Y21946D01*
X0525Y21996D02*
X12242Y21996D01*
X17758Y21996D02*
X29475Y21996D01*
X0525Y22046D02*
X12285Y22046D01*
X17715Y22046D02*
X29475Y22046D01*
X0525Y22095D02*
X12330Y22095D01*
X17670Y22095D02*
X29475Y22095D01*
X0525Y22145D02*
X12375Y22145D01*
X17625Y22145D02*
X29475Y22145D01*
X0525Y22194D02*
X12419Y22194D01*
X17581Y22194D02*
X29475Y22194D01*
X0525Y22244D02*
X12464Y22244D01*
X17536Y22244D02*
X29475Y22244D01*
X0525Y22293D02*
X12508Y22293D01*
X17492Y22293D02*
X29475Y22293D01*
X0525Y22343D02*
X12553Y22343D01*
X17447Y22343D02*
X29475Y22343D01*
X0525Y22392D02*
X12598Y22392D01*
X17402Y22392D02*
X29475Y22392D01*
X0525Y22442D02*
X12642Y22442D01*
X17358Y22442D02*
X29475Y22442D01*
X0525Y22491D02*
X12687Y22491D01*
X17313Y22491D02*
X29475Y22491D01*
X0525Y22541D02*
X12736Y22541D01*
X17264Y22541D02*
X29475Y22541D01*
X0525Y22590D02*
X12805Y22590D01*
X17195Y22590D02*
X29475Y22590D01*
X0525Y22640D02*
X12873Y22640D01*
X17127Y22640D02*
X29475Y22640D01*
X0525Y22689D02*
X12941Y22689D01*
X17059Y22689D02*
X29475Y22689D01*
X0525Y22739D02*
X13009Y22739D01*
X16991Y22739D02*
X29475Y22739D01*
X0525Y22788D02*
X13077Y22788D01*
X16923Y22788D02*
X29475Y22788D01*
X0525Y22838D02*
X13145Y22838D01*
X16855Y22838D02*
X29475Y22838D01*
X0525Y22888D02*
X13214Y22888D01*
X16786Y22888D02*
X29475Y22888D01*
X0525Y22937D02*
X13282Y22937D01*
X16718Y22937D02*
X29475Y22937D01*
X0525Y22987D02*
X13383Y22987D01*
X16617Y22987D02*
X29475Y22987D01*
X0525Y23036D02*
X13494Y23036D01*
X16506Y23036D02*
X29475Y23036D01*
X0525Y23086D02*
X13606Y23086D01*
X16394Y23086D02*
X29475Y23086D01*
X0525Y23135D02*
X13717Y23135D01*
X16283Y23135D02*
X29475Y23135D01*
X0525Y23185D02*
X13828Y23185D01*
X14924Y23185D02*
X15076Y23185D01*
X16172Y23185D02*
X29475Y23185D01*
X0525Y23234D02*
X13939Y23234D01*
X14924Y23234D02*
X15076Y23234D01*
X16061Y23234D02*
X29475Y23234D01*
X0525Y23284D02*
X14163Y23284D01*
X14924Y23284D02*
X15076Y23284D01*
X15837Y23284D02*
X29475Y23284D01*
X0525Y23333D02*
X14396Y23333D01*
X14924Y23333D02*
X15076Y23333D01*
X15604Y23333D02*
X29475Y23333D01*
X0525Y23383D02*
X14629Y23383D01*
X14912Y23383D02*
X15088Y23383D01*
X15371Y23383D02*
X29475Y23383D01*
X0525Y23432D02*
X29475Y23432D01*
X0525Y23482D02*
X29475Y23482D01*
X0525Y23531D02*
X29475Y23531D01*
X0525Y23581D02*
X29475Y23581D01*
X0525Y23631D02*
X29475Y23631D01*
X0525Y23680D02*
X29475Y23680D01*
X0525Y23730D02*
X29475Y23730D01*
X0525Y23779D02*
X29475Y23779D01*
X0525Y23829D02*
X29475Y23829D01*
X0525Y23878D02*
X29475Y23878D01*
X0525Y23928D02*
X29475Y23928D01*
X0525Y23977D02*
X29475Y23977D01*
X0525Y24027D02*
X29475Y24027D01*
X0525Y24076D02*
X29475Y24076D01*
X0525Y24126D02*
X29475Y24126D01*
X0525Y24175D02*
X29475Y24175D01*
X0525Y24225D02*
X29475Y24225D01*
X0525Y24274D02*
X29475Y24274D01*
X0525Y24324D02*
X29475Y24324D01*
X0525Y24373D02*
X29475Y24373D01*
X0525Y24423D02*
X29475Y24423D01*
X0525Y24473D02*
X29475Y24473D01*
X23208Y10537D02*
X23208Y10537D01*
X23082Y10602*
X23080Y10604*
X22885Y10776*
X22883Y10779*
X22736Y10992*
X22734Y10995*
X22726Y11016*
X20812Y11016*
X20791Y10976*
X21122Y10479*
X23193Y10479*
X23208Y10537*
X21106Y10503D02*
X23199Y10503D01*
X21073Y10552D02*
X23178Y10552D01*
X21040Y10602D02*
X23083Y10602D01*
X21007Y10651D02*
X23027Y10651D01*
X20974Y10701D02*
X22971Y10701D01*
X20941Y10750D02*
X22915Y10750D01*
X20908Y10800D02*
X22869Y10800D01*
X20875Y10849D02*
X22835Y10849D01*
X20842Y10899D02*
X22800Y10899D01*
X20809Y10949D02*
X22766Y10949D01*
X20802Y10998D02*
X22733Y10998D01*
%LNpour fill*%
X11982Y7519D02*
X11982Y7519D01*
X11994Y7525*
X12715Y7525*
X13297Y7948*
X13299Y7949*
X13947Y8238*
X13949Y8238*
X14643Y8386*
X14645Y8386*
X15355Y8386*
X15357Y8386*
X16051Y8238*
X16053Y8238*
X16701Y7949*
X16703Y7948*
X17285Y7525*
X24975Y7525*
X24975Y10225*
X20994Y10225*
X20982Y10231*
X20459Y11016*
X18869Y11016*
X18847Y10980*
X18846Y10979*
X18823Y10953*
X18822Y10952*
X18796Y10929*
X18795Y10928*
X18765Y10911*
X18764Y10910*
X18732Y10897*
X18730Y10896*
X18697Y10888*
X18695Y10888*
X18662Y10885*
X18661Y10885*
X17339Y10885*
X17338Y10885*
X17305Y10888*
X17303Y10888*
X17270Y10896*
X17268Y10897*
X17236Y10910*
X17235Y10911*
X17205Y10928*
X17204Y10929*
X17178Y10952*
X17177Y10953*
X17154Y10979*
X17153Y10980*
X17131Y11016*
X15615Y11016*
X15615Y10839*
X15615Y10838*
X15612Y10805*
X15612Y10803*
X15604Y10770*
X15603Y10768*
X15590Y10736*
X15589Y10735*
X15572Y10705*
X15571Y10704*
X15548Y10678*
X15547Y10677*
X15521Y10654*
X15520Y10653*
X15490Y10636*
X15489Y10635*
X15457Y10622*
X15455Y10621*
X15422Y10613*
X15420Y10613*
X15387Y10610*
X15386Y10610*
X14714Y10610*
X14713Y10610*
X14680Y10613*
X14678Y10613*
X14645Y10621*
X14643Y10622*
X14611Y10635*
X14610Y10636*
X14580Y10653*
X14579Y10654*
X14553Y10677*
X14552Y10678*
X14529Y10704*
X14528Y10705*
X14511Y10735*
X14510Y10736*
X14497Y10768*
X14496Y10770*
X14488Y10803*
X14488Y10805*
X14485Y10838*
X14485Y10839*
X14485Y11725*
X13515Y11725*
X13515Y11591*
X13500Y11576*
X13260Y11576*
X13260Y11424*
X13500Y11424*
X13515Y11409*
X13515Y10839*
X13515Y10838*
X13512Y10805*
X13512Y10803*
X13504Y10770*
X13503Y10768*
X13490Y10736*
X13489Y10735*
X13472Y10705*
X13471Y10704*
X13448Y10678*
X13447Y10677*
X13421Y10654*
X13420Y10653*
X13390Y10636*
X13389Y10635*
X13357Y10622*
X13355Y10621*
X13322Y10613*
X13320Y10613*
X13287Y10610*
X13286Y10610*
X13041Y10610*
X13026Y10625*
X13026Y10865*
X12874Y10865*
X12874Y10625*
X12859Y10610*
X12614Y10610*
X12613Y10610*
X12580Y10613*
X12578Y10613*
X12545Y10621*
X12543Y10622*
X12511Y10635*
X12510Y10636*
X12480Y10653*
X12479Y10654*
X12453Y10677*
X12452Y10678*
X12429Y10704*
X12428Y10705*
X12411Y10735*
X12410Y10736*
X12397Y10768*
X12396Y10770*
X12388Y10803*
X12388Y10805*
X12385Y10838*
X12385Y10839*
X12385Y11409*
X12400Y11424*
X12640Y11424*
X12640Y11576*
X12400Y11576*
X12385Y11591*
X12385Y11725*
X12011Y11725*
X8015Y7479*
X8005Y7475*
X3025Y7475*
X3025Y3025*
X8986Y3025*
X11982Y7519*
X23624Y7885D02*
X23624Y7885D01*
X23624Y8125*
X23776Y8125*
X23776Y7885*
X23791Y7870*
X24561Y7870*
X24562Y7870*
X24595Y7873*
X24597Y7873*
X24630Y7881*
X24632Y7882*
X24663Y7895*
X24665Y7896*
X24694Y7914*
X24696Y7915*
X24722Y7937*
X24723Y7938*
X24745Y7964*
X24746Y7966*
X24764Y7995*
X24765Y7997*
X24778Y8028*
X24779Y8030*
X24787Y8063*
X24787Y8065*
X24790Y8099*
X24790Y8100*
X24790Y8869*
X24775Y8884*
X24535Y8884*
X24535Y9036*
X24775Y9036*
X24790Y9051*
X24790Y9820*
X24790Y9821*
X24787Y9855*
X24787Y9857*
X24779Y9890*
X24778Y9892*
X24765Y9923*
X24764Y9925*
X24746Y9954*
X24745Y9956*
X24723Y9982*
X24722Y9983*
X24696Y10005*
X24694Y10006*
X24665Y10024*
X24663Y10025*
X24632Y10038*
X24630Y10039*
X24597Y10047*
X24595Y10047*
X24561Y10050*
X24560Y10050*
X23791Y10050*
X23776Y10035*
X23776Y9795*
X23624Y9795*
X23624Y10035*
X23609Y10050*
X22840Y10050*
X22839Y10050*
X22805Y10047*
X22803Y10047*
X22770Y10039*
X22768Y10038*
X22737Y10025*
X22735Y10024*
X22706Y10006*
X22704Y10005*
X22678Y9983*
X22677Y9982*
X22655Y9956*
X22654Y9954*
X22636Y9925*
X22635Y9923*
X22622Y9892*
X22621Y9890*
X22613Y9857*
X22613Y9855*
X22610Y9822*
X22610Y9821*
X22610Y9051*
X22625Y9036*
X22865Y9036*
X22865Y8884*
X22625Y8884*
X22610Y8869*
X22610Y8099*
X22610Y8098*
X22613Y8065*
X22613Y8063*
X22621Y8030*
X22622Y8028*
X22635Y7997*
X22636Y7995*
X22654Y7966*
X22655Y7964*
X22677Y7938*
X22678Y7937*
X22704Y7915*
X22706Y7914*
X22735Y7896*
X22737Y7895*
X22768Y7882*
X22770Y7881*
X22803Y7873*
X22805Y7873*
X22838Y7870*
X22839Y7870*
X23609Y7870*
X23624Y7885*
X5383Y3193D02*
X5383Y3193D01*
X5386Y3194*
X5749Y3321*
X5752Y3322*
X6077Y3527*
X6080Y3529*
X6351Y3800*
X6353Y3803*
X6558Y4128*
X6559Y4131*
X6686Y4494*
X6687Y4497*
X6705Y4663*
X6690Y4680*
X6475Y4680*
X6475Y5080*
X6690Y5080*
X6705Y5097*
X6687Y5263*
X6686Y5266*
X6559Y5629*
X6558Y5632*
X6353Y5957*
X6351Y5960*
X6080Y6231*
X6077Y6233*
X5752Y6438*
X5749Y6439*
X5386Y6566*
X5383Y6567*
X5217Y6585*
X5200Y6570*
X5200Y6355*
X4800Y6355*
X4800Y6570*
X4783Y6585*
X4617Y6567*
X4614Y6566*
X4251Y6439*
X4248Y6438*
X3923Y6233*
X3920Y6231*
X3649Y5960*
X3647Y5957*
X3442Y5632*
X3441Y5629*
X3314Y5266*
X3313Y5263*
X3295Y5097*
X3310Y5080*
X3525Y5080*
X3525Y4680*
X3310Y4680*
X3295Y4663*
X3313Y4497*
X3314Y4494*
X3441Y4131*
X3442Y4128*
X3647Y3803*
X3649Y3800*
X3920Y3529*
X3923Y3527*
X4248Y3322*
X4251Y3321*
X4614Y3194*
X4617Y3193*
X4783Y3175*
X4800Y3190*
X4800Y3405*
X5200Y3405*
X5200Y3190*
X5217Y3175*
X5383Y3193*
X3025Y3050D02*
X9002Y3050D01*
X3025Y3099D02*
X9036Y3099D01*
X3025Y3149D02*
X9069Y3149D01*
X3025Y3198D02*
X4602Y3198D01*
X4800Y3198D02*
X5200Y3198D01*
X5398Y3198D02*
X9102Y3198D01*
X3025Y3248D02*
X4461Y3248D01*
X4800Y3248D02*
X5200Y3248D01*
X5539Y3248D02*
X9135Y3248D01*
X3025Y3297D02*
X4319Y3297D01*
X4800Y3297D02*
X5200Y3297D01*
X5681Y3297D02*
X9168Y3297D01*
X3025Y3347D02*
X4209Y3347D01*
X4800Y3347D02*
X5200Y3347D01*
X5791Y3347D02*
X9201Y3347D01*
X3025Y3396D02*
X4131Y3396D01*
X4800Y3396D02*
X5200Y3396D01*
X5869Y3396D02*
X9234Y3396D01*
X3025Y3446D02*
X4052Y3446D01*
X5948Y3446D02*
X9267Y3446D01*
X3025Y3495D02*
X3973Y3495D01*
X6027Y3495D02*
X9300Y3495D01*
X3025Y3545D02*
X3904Y3545D01*
X6096Y3545D02*
X9333Y3545D01*
X3025Y3594D02*
X3855Y3594D01*
X6145Y3594D02*
X9366Y3594D01*
X3025Y3644D02*
X3805Y3644D01*
X6195Y3644D02*
X9399Y3644D01*
X3025Y3693D02*
X3756Y3693D01*
X6244Y3693D02*
X9432Y3693D01*
X3025Y3743D02*
X3706Y3743D01*
X6294Y3743D02*
X9465Y3743D01*
X3025Y3792D02*
X3657Y3792D01*
X6343Y3792D02*
X9498Y3792D01*
X3025Y3842D02*
X3622Y3842D01*
X6378Y3842D02*
X9531Y3842D01*
X3025Y3892D02*
X3591Y3892D01*
X6409Y3892D02*
X9564Y3892D01*
X3025Y3941D02*
X3560Y3941D01*
X6440Y3941D02*
X9597Y3941D01*
X3025Y3991D02*
X3529Y3991D01*
X6471Y3991D02*
X9630Y3991D01*
X3025Y4040D02*
X3498Y4040D01*
X6502Y4040D02*
X9663Y4040D01*
X3025Y4090D02*
X3467Y4090D01*
X6533Y4090D02*
X9696Y4090D01*
X3025Y4139D02*
X3438Y4139D01*
X6562Y4139D02*
X9729Y4139D01*
X3025Y4189D02*
X3421Y4189D01*
X6579Y4189D02*
X9762Y4189D01*
X3025Y4238D02*
X3403Y4238D01*
X6597Y4238D02*
X9795Y4238D01*
X3025Y4288D02*
X3386Y4288D01*
X6614Y4288D02*
X9828Y4288D01*
X3025Y4337D02*
X3369Y4337D01*
X6631Y4337D02*
X9861Y4337D01*
X3025Y4387D02*
X3351Y4387D01*
X6649Y4387D02*
X9894Y4387D01*
X3025Y4436D02*
X3334Y4436D01*
X6666Y4436D02*
X9927Y4436D01*
X3025Y4486D02*
X3317Y4486D01*
X6683Y4486D02*
X9960Y4486D01*
X3025Y4535D02*
X3309Y4535D01*
X6691Y4535D02*
X9993Y4535D01*
X3025Y4585D02*
X3303Y4585D01*
X6697Y4585D02*
X10026Y4585D01*
X3025Y4634D02*
X3298Y4634D01*
X6702Y4634D02*
X10059Y4634D01*
X3025Y4684D02*
X3525Y4684D01*
X6475Y4684D02*
X10092Y4684D01*
X3025Y4734D02*
X3525Y4734D01*
X6475Y4734D02*
X10125Y4734D01*
X3025Y4783D02*
X3525Y4783D01*
X6475Y4783D02*
X10158Y4783D01*
X3025Y4833D02*
X3525Y4833D01*
X6475Y4833D02*
X10191Y4833D01*
X3025Y4882D02*
X3525Y4882D01*
X6475Y4882D02*
X10224Y4882D01*
X3025Y4932D02*
X3525Y4932D01*
X6475Y4932D02*
X10257Y4932D01*
X3025Y4981D02*
X3525Y4981D01*
X6475Y4981D02*
X10290Y4981D01*
X3025Y5031D02*
X3525Y5031D01*
X6475Y5031D02*
X10323Y5031D01*
X3025Y5080D02*
X3309Y5080D01*
X6691Y5080D02*
X10356Y5080D01*
X3025Y5130D02*
X3298Y5130D01*
X6702Y5130D02*
X10389Y5130D01*
X3025Y5179D02*
X3304Y5179D01*
X6696Y5179D02*
X10422Y5179D01*
X3025Y5229D02*
X3310Y5229D01*
X6690Y5229D02*
X10455Y5229D01*
X3025Y5278D02*
X3318Y5278D01*
X6682Y5278D02*
X10488Y5278D01*
X3025Y5328D02*
X3336Y5328D01*
X6664Y5328D02*
X10521Y5328D01*
X3025Y5377D02*
X3353Y5377D01*
X6647Y5377D02*
X10554Y5377D01*
X3025Y5427D02*
X3370Y5427D01*
X6630Y5427D02*
X10587Y5427D01*
X3025Y5476D02*
X3388Y5476D01*
X6612Y5476D02*
X10620Y5476D01*
X3025Y5526D02*
X3405Y5526D01*
X6595Y5526D02*
X10653Y5526D01*
X3025Y5576D02*
X3422Y5576D01*
X6578Y5576D02*
X10687Y5576D01*
X3025Y5625D02*
X3440Y5625D01*
X6560Y5625D02*
X10720Y5625D01*
X3025Y5675D02*
X3469Y5675D01*
X6531Y5675D02*
X10753Y5675D01*
X3025Y5724D02*
X3500Y5724D01*
X6500Y5724D02*
X10786Y5724D01*
X3025Y5774D02*
X3531Y5774D01*
X6469Y5774D02*
X10819Y5774D01*
X3025Y5823D02*
X3563Y5823D01*
X6437Y5823D02*
X10852Y5823D01*
X3025Y5873D02*
X3594Y5873D01*
X6406Y5873D02*
X10885Y5873D01*
X3025Y5922D02*
X3625Y5922D01*
X6375Y5922D02*
X10918Y5922D01*
X3025Y5972D02*
X3661Y5972D01*
X6339Y5972D02*
X10951Y5972D01*
X3025Y6021D02*
X3710Y6021D01*
X6290Y6021D02*
X10984Y6021D01*
X3025Y6071D02*
X3760Y6071D01*
X6240Y6071D02*
X11017Y6071D01*
X3025Y6120D02*
X3810Y6120D01*
X6190Y6120D02*
X11050Y6120D01*
X3025Y6170D02*
X3859Y6170D01*
X6141Y6170D02*
X11083Y6170D01*
X3025Y6219D02*
X3909Y6219D01*
X6091Y6219D02*
X11116Y6219D01*
X3025Y6269D02*
X3980Y6269D01*
X6020Y6269D02*
X11149Y6269D01*
X3025Y6319D02*
X4059Y6319D01*
X5941Y6319D02*
X11182Y6319D01*
X3025Y6368D02*
X4137Y6368D01*
X4800Y6368D02*
X5200Y6368D01*
X5863Y6368D02*
X11215Y6368D01*
X3025Y6418D02*
X4216Y6418D01*
X4800Y6418D02*
X5200Y6418D01*
X5784Y6418D02*
X11248Y6418D01*
X3025Y6467D02*
X4331Y6467D01*
X4800Y6467D02*
X5200Y6467D01*
X5669Y6467D02*
X11281Y6467D01*
X3025Y6517D02*
X4473Y6517D01*
X4800Y6517D02*
X5200Y6517D01*
X5527Y6517D02*
X11314Y6517D01*
X3025Y6566D02*
X4615Y6566D01*
X4800Y6566D02*
X5200Y6566D01*
X5385Y6566D02*
X11347Y6566D01*
X3025Y6616D02*
X11380Y6616D01*
X3025Y6665D02*
X11413Y6665D01*
X3025Y6715D02*
X11446Y6715D01*
X3025Y6764D02*
X11479Y6764D01*
X3025Y6814D02*
X11512Y6814D01*
X3025Y6863D02*
X11545Y6863D01*
X3025Y6913D02*
X11578Y6913D01*
X3025Y6962D02*
X11611Y6962D01*
X3025Y7012D02*
X11644Y7012D01*
X3025Y7061D02*
X11677Y7061D01*
X3025Y7111D02*
X11710Y7111D01*
X3025Y7161D02*
X11743Y7161D01*
X3025Y7210D02*
X11776Y7210D01*
X3025Y7260D02*
X11809Y7260D01*
X3025Y7309D02*
X11842Y7309D01*
X3025Y7359D02*
X11875Y7359D01*
X3025Y7408D02*
X11908Y7408D01*
X3025Y7458D02*
X11941Y7458D01*
X8042Y7507D02*
X11974Y7507D01*
X8088Y7557D02*
X12758Y7557D01*
X17242Y7557D02*
X24975Y7557D01*
X8135Y7606D02*
X12826Y7606D01*
X17174Y7606D02*
X24975Y7606D01*
X8182Y7656D02*
X12895Y7656D01*
X17105Y7656D02*
X24975Y7656D01*
X8228Y7705D02*
X12963Y7705D01*
X17037Y7705D02*
X24975Y7705D01*
X8275Y7755D02*
X13031Y7755D01*
X16969Y7755D02*
X24975Y7755D01*
X8321Y7804D02*
X13099Y7804D01*
X16901Y7804D02*
X24975Y7804D01*
X8368Y7854D02*
X13167Y7854D01*
X16833Y7854D02*
X24975Y7854D01*
X8415Y7903D02*
X13236Y7903D01*
X16764Y7903D02*
X22722Y7903D01*
X23624Y7903D02*
X23776Y7903D01*
X24678Y7903D02*
X24975Y7903D01*
X8461Y7953D02*
X13308Y7953D01*
X16692Y7953D02*
X22664Y7953D01*
X23624Y7953D02*
X23776Y7953D01*
X24736Y7953D02*
X24975Y7953D01*
X8508Y8003D02*
X13419Y8003D01*
X16581Y8003D02*
X22633Y8003D01*
X23624Y8003D02*
X23776Y8003D01*
X24767Y8003D02*
X24975Y8003D01*
X8554Y8052D02*
X13530Y8052D01*
X16470Y8052D02*
X22616Y8052D01*
X23624Y8052D02*
X23776Y8052D01*
X24784Y8052D02*
X24975Y8052D01*
X8601Y8102D02*
X13641Y8102D01*
X16359Y8102D02*
X22610Y8102D01*
X23624Y8102D02*
X23776Y8102D01*
X24790Y8102D02*
X24975Y8102D01*
X8648Y8151D02*
X13753Y8151D01*
X16247Y8151D02*
X22610Y8151D01*
X24790Y8151D02*
X24975Y8151D01*
X8694Y8201D02*
X13864Y8201D01*
X16136Y8201D02*
X22610Y8201D01*
X24790Y8201D02*
X24975Y8201D01*
X8741Y8250D02*
X14005Y8250D01*
X15995Y8250D02*
X22610Y8250D01*
X24790Y8250D02*
X24975Y8250D01*
X8788Y8300D02*
X14238Y8300D01*
X15762Y8300D02*
X22610Y8300D01*
X24790Y8300D02*
X24975Y8300D01*
X8834Y8349D02*
X14471Y8349D01*
X15529Y8349D02*
X22610Y8349D01*
X24790Y8349D02*
X24975Y8349D01*
X8881Y8399D02*
X22610Y8399D01*
X24790Y8399D02*
X24975Y8399D01*
X8927Y8448D02*
X22610Y8448D01*
X24790Y8448D02*
X24975Y8448D01*
X8974Y8498D02*
X22610Y8498D01*
X24790Y8498D02*
X24975Y8498D01*
X9021Y8547D02*
X22610Y8547D01*
X24790Y8547D02*
X24975Y8547D01*
X9067Y8597D02*
X22610Y8597D01*
X24790Y8597D02*
X24975Y8597D01*
X9114Y8646D02*
X22610Y8646D01*
X24790Y8646D02*
X24975Y8646D01*
X9160Y8696D02*
X22610Y8696D01*
X24790Y8696D02*
X24975Y8696D01*
X9207Y8745D02*
X22610Y8745D01*
X24790Y8745D02*
X24975Y8745D01*
X9254Y8795D02*
X22610Y8795D01*
X24790Y8795D02*
X24975Y8795D01*
X9300Y8845D02*
X22610Y8845D01*
X24790Y8845D02*
X24975Y8845D01*
X9347Y8894D02*
X22865Y8894D01*
X24535Y8894D02*
X24975Y8894D01*
X9394Y8944D02*
X22865Y8944D01*
X24535Y8944D02*
X24975Y8944D01*
X9440Y8993D02*
X22865Y8993D01*
X24535Y8993D02*
X24975Y8993D01*
X9487Y9043D02*
X22619Y9043D01*
X24781Y9043D02*
X24975Y9043D01*
X9533Y9092D02*
X22610Y9092D01*
X24790Y9092D02*
X24975Y9092D01*
X9580Y9142D02*
X22610Y9142D01*
X24790Y9142D02*
X24975Y9142D01*
X9627Y9191D02*
X22610Y9191D01*
X24790Y9191D02*
X24975Y9191D01*
X9673Y9241D02*
X22610Y9241D01*
X24790Y9241D02*
X24975Y9241D01*
X9720Y9290D02*
X22610Y9290D01*
X24790Y9290D02*
X24975Y9290D01*
X9766Y9340D02*
X22610Y9340D01*
X24790Y9340D02*
X24975Y9340D01*
X9813Y9389D02*
X22610Y9389D01*
X24790Y9389D02*
X24975Y9389D01*
X9860Y9439D02*
X22610Y9439D01*
X24790Y9439D02*
X24975Y9439D01*
X9906Y9488D02*
X22610Y9488D01*
X24790Y9488D02*
X24975Y9488D01*
X9953Y9538D02*
X22610Y9538D01*
X24790Y9538D02*
X24975Y9538D01*
X10000Y9587D02*
X22610Y9587D01*
X24790Y9587D02*
X24975Y9587D01*
X10046Y9637D02*
X22610Y9637D01*
X24790Y9637D02*
X24975Y9637D01*
X10093Y9687D02*
X22610Y9687D01*
X24790Y9687D02*
X24975Y9687D01*
X10139Y9736D02*
X22610Y9736D01*
X24790Y9736D02*
X24975Y9736D01*
X10186Y9786D02*
X22610Y9786D01*
X24790Y9786D02*
X24975Y9786D01*
X10233Y9835D02*
X22612Y9835D01*
X23624Y9835D02*
X23776Y9835D01*
X24788Y9835D02*
X24975Y9835D01*
X10279Y9885D02*
X22620Y9885D01*
X23624Y9885D02*
X23776Y9885D01*
X24780Y9885D02*
X24975Y9885D01*
X10326Y9934D02*
X22641Y9934D01*
X23624Y9934D02*
X23776Y9934D01*
X24759Y9934D02*
X24975Y9934D01*
X10373Y9984D02*
X22679Y9984D01*
X23624Y9984D02*
X23776Y9984D01*
X24721Y9984D02*
X24975Y9984D01*
X10419Y10033D02*
X22757Y10033D01*
X23624Y10033D02*
X23776Y10033D01*
X24643Y10033D02*
X24975Y10033D01*
X10466Y10083D02*
X24975Y10083D01*
X10512Y10132D02*
X24975Y10132D01*
X10559Y10182D02*
X24975Y10182D01*
X10606Y10231D02*
X20982Y10231D01*
X10652Y10281D02*
X20949Y10281D01*
X10699Y10330D02*
X20916Y10330D01*
X10745Y10380D02*
X20883Y10380D01*
X10792Y10430D02*
X20850Y10430D01*
X10839Y10479D02*
X20817Y10479D01*
X10885Y10529D02*
X20784Y10529D01*
X10932Y10578D02*
X20751Y10578D01*
X10979Y10628D02*
X12528Y10628D01*
X12874Y10628D02*
X13026Y10628D01*
X13372Y10628D02*
X14628Y10628D01*
X15472Y10628D02*
X20718Y10628D01*
X11025Y10677D02*
X12452Y10677D01*
X12874Y10677D02*
X13026Y10677D01*
X13448Y10677D02*
X14552Y10677D01*
X15548Y10677D02*
X20685Y10677D01*
X11072Y10727D02*
X12415Y10727D01*
X12874Y10727D02*
X13026Y10727D01*
X13485Y10727D02*
X14515Y10727D01*
X15585Y10727D02*
X20652Y10727D01*
X11118Y10776D02*
X12394Y10776D01*
X12874Y10776D02*
X13026Y10776D01*
X13506Y10776D02*
X14494Y10776D01*
X15606Y10776D02*
X20619Y10776D01*
X11165Y10826D02*
X12386Y10826D01*
X12874Y10826D02*
X13026Y10826D01*
X13514Y10826D02*
X14486Y10826D01*
X15614Y10826D02*
X20586Y10826D01*
X11212Y10875D02*
X12385Y10875D01*
X13515Y10875D02*
X14485Y10875D01*
X15615Y10875D02*
X20553Y10875D01*
X11258Y10925D02*
X12385Y10925D01*
X13515Y10925D02*
X14485Y10925D01*
X15615Y10925D02*
X17211Y10925D01*
X18789Y10925D02*
X20520Y10925D01*
X11305Y10974D02*
X12385Y10974D01*
X13515Y10974D02*
X14485Y10974D01*
X15615Y10974D02*
X17158Y10974D01*
X18842Y10974D02*
X20487Y10974D01*
X11351Y11024D02*
X12385Y11024D01*
X13515Y11024D02*
X14485Y11024D01*
X11398Y11073D02*
X12385Y11073D01*
X13515Y11073D02*
X14485Y11073D01*
X11445Y11123D02*
X12385Y11123D01*
X13515Y11123D02*
X14485Y11123D01*
X11491Y11172D02*
X12385Y11172D01*
X13515Y11172D02*
X14485Y11172D01*
X11538Y11222D02*
X12385Y11222D01*
X13515Y11222D02*
X14485Y11222D01*
X11585Y11272D02*
X12385Y11272D01*
X13515Y11272D02*
X14485Y11272D01*
X11631Y11321D02*
X12385Y11321D01*
X13515Y11321D02*
X14485Y11321D01*
X11678Y11371D02*
X12385Y11371D01*
X13515Y11371D02*
X14485Y11371D01*
X11724Y11420D02*
X12396Y11420D01*
X13504Y11420D02*
X14485Y11420D01*
X11771Y11470D02*
X12640Y11470D01*
X13260Y11470D02*
X14485Y11470D01*
X11818Y11519D02*
X12640Y11519D01*
X13260Y11519D02*
X14485Y11519D01*
X11864Y11569D02*
X12640Y11569D01*
X13260Y11569D02*
X14485Y11569D01*
X11911Y11618D02*
X12385Y11618D01*
X13515Y11618D02*
X14485Y11618D01*
X11957Y11668D02*
X12385Y11668D01*
X13515Y11668D02*
X14485Y11668D01*
X12004Y11717D02*
X12385Y11717D01*
X13515Y11717D02*
X14485Y11717D01*
%LNtop copper_traces*%
D11*
X15050Y13500D02*
X23700Y13500D01*
X15050Y11500D02*
X23700Y11500D01*
%LNtop copper component 2db072afead86070*%
D12*
X12950Y11500D03*
X15050Y11500D03*
%LNtop copper component f0fb2731934dc838*%
D13*
X5000Y20120D03*
X5000Y15040D03*
X5000Y9960D03*
X5000Y4880D03*
%LNtop copper component 8d7f5a6846472cc6*%
D14*
X15000Y5000D03*
%LNtop copper component 857abdc5204d4412*%
D15*
X15050Y13500D03*
X12950Y13500D03*
%LNtop copper component 9dea16fde81fcd95*%
D16*
X18000Y11450D03*
X18000Y13550D03*
%LNtop copper component 442748f89a67850a*%
D17*
X23700Y11500D03*
X23700Y13500D03*
X23700Y16040D03*
D18*
X26410Y19110D03*
X26410Y5890D03*
D19*
X23700Y8960D03*
%LNtop copper component f5205f3a868a2325*%
D14*
X15000Y20000D03*
M02*