%FSLAX33Y33*%
%MOMM*%
%AMRect-W670710-H1320710-RO1.000*
21,1,0.67071,1.32071,0.,0.,180*%
%AMRect-W670710-H1320710-RO1.500*
21,1,0.67071,1.32071,0.,0.,90*%
%AMRect-W1720000-H1720000-RO1.500*
21,1,1.72,1.72,0.,0.,90*%
%ADD10C,0.0508*%
%ADD11C,0.508*%
%ADD12R,0.67071X1.32071*%
%ADD13C,3.*%
%ADD14C,6.35*%
%ADD15Rect-W670710-H1320710-RO1.000*%
%ADD16Rect-W670710-H1320710-RO1.500*%
%ADD17C,1.72*%
%ADD18C,3.1*%
%ADD19Rect-W1720000-H1720000-RO1.500*%
D10*
%LNpour fill*%
G01*
X29475Y24475D02*
X29475Y24475D01*
X0525Y24475*
X0525Y0525*
X29475Y0525*
X29475Y24475*
X18380Y20080D02*
X18380Y20080D01*
X18357Y20441*
X18356Y20443*
X18270Y20875*
X18270Y20877*
X18128Y21295*
X18127Y21296*
X17932Y21692*
X17931Y21693*
X17686Y22060*
X17685Y22062*
X17394Y22393*
X17393Y22394*
X17062Y22685*
X17060Y22686*
X16693Y22931*
X16692Y22932*
X16296Y23127*
X16295Y23128*
X15877Y23270*
X15875Y23270*
X15443Y23356*
X15441Y23357*
X15080Y23380*
X15063Y23365*
X15063Y20078*
X15078Y20064*
X18365Y20064*
X18380Y20080*
X14937Y20078D02*
X14937Y20078D01*
X14937Y23365*
X14920Y23380*
X14559Y23357*
X14557Y23356*
X14125Y23270*
X14123Y23270*
X13705Y23128*
X13704Y23127*
X13308Y22932*
X13307Y22931*
X12940Y22686*
X12938Y22685*
X12607Y22394*
X12606Y22393*
X12315Y22062*
X12314Y22060*
X12069Y21693*
X12068Y21692*
X11873Y21296*
X11872Y21295*
X11730Y20877*
X11730Y20875*
X11644Y20443*
X11643Y20441*
X11620Y20080*
X11635Y20064*
X14922Y20064*
X14937Y20078*
X28164Y19190D02*
X28164Y19190D01*
X28138Y19452*
X28137Y19455*
X28038Y19783*
X28037Y19785*
X27875Y20088*
X27874Y20090*
X27656Y20355*
X27655Y20356*
X27390Y20574*
X27388Y20575*
X27085Y20737*
X27083Y20738*
X26755Y20837*
X26752Y20838*
X26490Y20864*
X26474Y20849*
X26474Y19188*
X26488Y19174*
X28149Y19174*
X28164Y19190*
X26346Y19188D02*
X26346Y19188D01*
X26346Y20849*
X26330Y20864*
X26068Y20838*
X26065Y20837*
X25737Y20738*
X25735Y20737*
X25432Y20575*
X25430Y20574*
X25165Y20356*
X25164Y20355*
X24946Y20090*
X24945Y20088*
X24783Y19785*
X24782Y19783*
X24683Y19455*
X24682Y19452*
X24656Y19190*
X24671Y19174*
X26332Y19174*
X26346Y19188*
X5333Y18441D02*
X5333Y18441D01*
X5335Y18442*
X5654Y18538*
X5656Y18539*
X5950Y18696*
X5952Y18698*
X6209Y18909*
X6211Y18911*
X6422Y19168*
X6424Y19170*
X6581Y19464*
X6582Y19466*
X6678Y19785*
X6679Y19787*
X6711Y20119*
X6711Y20121*
X6679Y20453*
X6678Y20455*
X6582Y20774*
X6581Y20776*
X6424Y21070*
X6422Y21072*
X6211Y21329*
X6209Y21331*
X5952Y21542*
X5950Y21544*
X5656Y21701*
X5654Y21702*
X5335Y21798*
X5333Y21799*
X5001Y21831*
X4999Y21831*
X4667Y21799*
X4665Y21798*
X4346Y21702*
X4344Y21701*
X4050Y21544*
X4048Y21542*
X3791Y21331*
X3789Y21329*
X3578Y21072*
X3576Y21070*
X3419Y20776*
X3418Y20774*
X3322Y20455*
X3321Y20453*
X3289Y20121*
X3289Y20119*
X3321Y19787*
X3322Y19785*
X3418Y19466*
X3419Y19464*
X3576Y19170*
X3578Y19168*
X3789Y18911*
X3791Y18909*
X4048Y18698*
X4050Y18696*
X4344Y18539*
X4346Y18538*
X4665Y18442*
X4667Y18441*
X4999Y18409*
X5001Y18409*
X5333Y18441*
X26752Y17382D02*
X26752Y17382D01*
X26755Y17383*
X27083Y17482*
X27085Y17483*
X27388Y17645*
X27390Y17646*
X27655Y17864*
X27656Y17865*
X27874Y18130*
X27875Y18132*
X28037Y18435*
X28038Y18437*
X28137Y18765*
X28138Y18768*
X28164Y19030*
X28149Y19047*
X26488Y19047*
X26474Y19032*
X26474Y17371*
X26490Y17356*
X26752Y17382*
X26346Y17371D02*
X26346Y17371D01*
X26346Y19032*
X26332Y19047*
X24671Y19047*
X24656Y19030*
X24682Y18768*
X24683Y18765*
X24782Y18437*
X24783Y18435*
X24945Y18132*
X24946Y18130*
X25164Y17865*
X25165Y17864*
X25430Y17646*
X25432Y17645*
X25735Y17483*
X25737Y17482*
X26065Y17383*
X26068Y17382*
X26330Y17356*
X26346Y17371*
X15441Y16643D02*
X15441Y16643D01*
X15443Y16644*
X15875Y16730*
X15877Y16730*
X16295Y16872*
X16296Y16873*
X16692Y17068*
X16693Y17069*
X17060Y17314*
X17062Y17315*
X17393Y17606*
X17394Y17607*
X17685Y17938*
X17686Y17940*
X17931Y18307*
X17932Y18308*
X18127Y18704*
X18128Y18705*
X18270Y19123*
X18270Y19125*
X18356Y19557*
X18357Y19559*
X18380Y19920*
X18365Y19936*
X15078Y19936*
X15063Y19922*
X15063Y16635*
X15080Y16620*
X15441Y16643*
X14937Y16635D02*
X14937Y16635D01*
X14937Y19922*
X14922Y19936*
X11635Y19936*
X11620Y19920*
X11643Y19559*
X11644Y19557*
X11730Y19125*
X11730Y19123*
X11872Y18705*
X11873Y18704*
X12068Y18308*
X12069Y18307*
X12314Y17940*
X12315Y17938*
X12606Y17607*
X12607Y17606*
X12938Y17315*
X12940Y17314*
X13307Y17069*
X13308Y17068*
X13704Y16873*
X13705Y16872*
X14123Y16730*
X14125Y16730*
X14557Y16644*
X14559Y16643*
X14920Y16620*
X14937Y16635*
X24762Y16121D02*
X24762Y16121D01*
X24736Y16316*
X24735Y16319*
X24629Y16575*
X24628Y16578*
X24459Y16797*
X24457Y16799*
X24238Y16968*
X24235Y16969*
X23979Y17075*
X23976Y17076*
X23781Y17102*
X23764Y17087*
X23764Y16118*
X23778Y16104*
X24747Y16104*
X24762Y16121*
X23637Y16118D02*
X23637Y16118D01*
X23637Y17087*
X23619Y17102*
X23424Y17076*
X23421Y17075*
X23165Y16969*
X23162Y16968*
X22943Y16799*
X22941Y16797*
X22772Y16578*
X22771Y16575*
X22665Y16319*
X22664Y16316*
X22638Y16121*
X22653Y16104*
X23622Y16104*
X23637Y16118*
X6704Y15120D02*
X6704Y15120D01*
X6679Y15373*
X6678Y15375*
X6582Y15694*
X6581Y15696*
X6424Y15990*
X6422Y15992*
X6211Y16249*
X6209Y16251*
X5952Y16462*
X5950Y16464*
X5656Y16621*
X5654Y16622*
X5335Y16718*
X5333Y16719*
X5080Y16744*
X5064Y16728*
X5064Y15118*
X5078Y15104*
X6688Y15104*
X6704Y15120*
X4936Y15118D02*
X4936Y15118D01*
X4936Y16728*
X4920Y16744*
X4667Y16719*
X4665Y16718*
X4346Y16622*
X4344Y16621*
X4050Y16464*
X4048Y16462*
X3791Y16251*
X3789Y16249*
X3578Y15992*
X3576Y15990*
X3419Y15696*
X3418Y15694*
X3322Y15375*
X3321Y15373*
X3296Y15120*
X3312Y15104*
X4922Y15104*
X4936Y15118*
X23976Y15004D02*
X23976Y15004D01*
X23979Y15005*
X24235Y15111*
X24238Y15112*
X24457Y15281*
X24459Y15283*
X24628Y15502*
X24629Y15505*
X24735Y15761*
X24736Y15764*
X24762Y15959*
X24747Y15976*
X23778Y15976*
X23764Y15962*
X23764Y14993*
X23781Y14978*
X23976Y15004*
X23637Y14993D02*
X23637Y14993D01*
X23637Y15962*
X23622Y15976*
X22653Y15976*
X22638Y15959*
X22664Y15764*
X22665Y15761*
X22771Y15505*
X22772Y15502*
X22941Y15283*
X22943Y15281*
X23162Y15112*
X23165Y15111*
X23421Y15005*
X23424Y15004*
X23619Y14978*
X23637Y14993*
X9004Y2794D02*
X9004Y2794D01*
X9020Y2797*
X9038Y2797*
X9043Y2798*
X9059Y2805*
X9077Y2808*
X9081Y2810*
X9096Y2820*
X9113Y2827*
X9117Y2830*
X9130Y2842*
X9144Y2852*
X9148Y2856*
X9158Y2871*
X9170Y2882*
X9171Y2884*
X12111Y7293*
X12404Y7293*
X12443Y7207*
X12315Y7062*
X12314Y7060*
X12069Y6693*
X12068Y6692*
X11873Y6296*
X11872Y6295*
X11730Y5877*
X11730Y5875*
X11644Y5443*
X11643Y5441*
X11620Y5080*
X11635Y5064*
X18365Y5064*
X18380Y5080*
X18357Y5441*
X18356Y5443*
X18270Y5875*
X18270Y5877*
X18128Y6295*
X18127Y6296*
X17932Y6692*
X17931Y6693*
X17686Y7060*
X17685Y7062*
X17557Y7207*
X17596Y7293*
X25001Y7293*
X25004Y7294*
X25077Y7308*
X25081Y7310*
X25144Y7352*
X25148Y7356*
X25190Y7419*
X25192Y7423*
X25206Y7496*
X25207Y7499*
X25207Y10251*
X25206Y10254*
X25192Y10327*
X25190Y10331*
X25148Y10394*
X25144Y10398*
X25081Y10440*
X25077Y10442*
X25004Y10456*
X25001Y10457*
X24185Y10457*
X24167Y10543*
X24235Y10571*
X24238Y10572*
X24457Y10741*
X24459Y10743*
X24628Y10962*
X24629Y10965*
X24735Y11221*
X24736Y11224*
X24772Y11498*
X24772Y11502*
X24736Y11776*
X24735Y11779*
X24629Y12035*
X24628Y12038*
X24459Y12257*
X24457Y12259*
X24238Y12428*
X24235Y12429*
X24176Y12453*
X24176Y12547*
X24235Y12571*
X24238Y12572*
X24457Y12741*
X24459Y12743*
X24628Y12962*
X24629Y12965*
X24735Y13221*
X24736Y13224*
X24772Y13498*
X24772Y13502*
X24736Y13776*
X24735Y13779*
X24629Y14035*
X24628Y14038*
X24459Y14257*
X24457Y14259*
X24238Y14428*
X24235Y14429*
X23979Y14535*
X23976Y14536*
X23702Y14572*
X23698Y14572*
X23424Y14536*
X23421Y14535*
X23165Y14429*
X23162Y14428*
X22943Y14259*
X22941Y14257*
X22772Y14038*
X22771Y14035*
X22742Y13966*
X18864Y13966*
X18864Y14074*
X18849Y14089*
X17151Y14089*
X17136Y14074*
X17136Y13966*
X15589Y13966*
X15589Y14349*
X15574Y14364*
X14526Y14364*
X14511Y14349*
X14511Y12651*
X14526Y12636*
X15574Y12636*
X15589Y12651*
X15589Y13034*
X17136Y13034*
X17136Y13026*
X17151Y13011*
X18849Y13011*
X18864Y13026*
X18864Y13034*
X22742Y13034*
X22771Y12965*
X22772Y12962*
X22941Y12743*
X22943Y12741*
X23162Y12572*
X23165Y12571*
X23224Y12547*
X23224Y12453*
X23165Y12429*
X23162Y12428*
X22943Y12259*
X22941Y12257*
X22772Y12038*
X22771Y12035*
X22742Y11966*
X18864Y11966*
X18864Y11974*
X18849Y11989*
X17151Y11989*
X17136Y11974*
X17136Y11966*
X15589Y11966*
X15589Y12349*
X15574Y12364*
X14526Y12364*
X14511Y12349*
X14511Y11965*
X14501Y11957*
X13499Y11957*
X13489Y11965*
X13489Y12349*
X13474Y12364*
X12426Y12364*
X12411Y12349*
X12411Y11965*
X12401Y11957*
X11999Y11957*
X11997Y11957*
X11996Y11957*
X11991Y11957*
X11957Y11949*
X11923Y11942*
X11919Y11940*
X11918Y11940*
X11917Y11939*
X11913Y11937*
X11885Y11917*
X11856Y11898*
X11852Y11894*
X11852Y11894*
X11850Y11893*
X7911Y7707*
X2999Y7707*
X2996Y7706*
X2923Y7692*
X2919Y7690*
X2856Y7648*
X2852Y7644*
X2810Y7581*
X2808Y7577*
X2794Y7504*
X2793Y7501*
X2793Y2999*
X2794Y2996*
X2808Y2923*
X2810Y2919*
X2852Y2856*
X2856Y2852*
X2919Y2810*
X2923Y2808*
X2996Y2794*
X2999Y2793*
X9001Y2793*
X9004Y2794*
X13489Y13578D02*
X13489Y13578D01*
X13489Y14349*
X13474Y14364*
X13028Y14364*
X13014Y14349*
X13014Y13578*
X13028Y13563*
X13474Y13563*
X13489Y13578*
X12886Y13578D02*
X12886Y13578D01*
X12886Y14349*
X12872Y14364*
X12426Y14364*
X12411Y14349*
X12411Y13578*
X12426Y13563*
X12872Y13563*
X12886Y13578*
X5333Y13361D02*
X5333Y13361D01*
X5335Y13362*
X5654Y13458*
X5656Y13459*
X5950Y13616*
X5952Y13618*
X6209Y13829*
X6211Y13831*
X6422Y14088*
X6424Y14090*
X6581Y14384*
X6582Y14386*
X6678Y14705*
X6679Y14707*
X6704Y14960*
X6688Y14976*
X5078Y14976*
X5064Y14962*
X5064Y13352*
X5080Y13336*
X5333Y13361*
X4936Y13352D02*
X4936Y13352D01*
X4936Y14962*
X4922Y14976*
X3312Y14976*
X3296Y14960*
X3321Y14707*
X3322Y14705*
X3418Y14386*
X3419Y14384*
X3576Y14090*
X3578Y14088*
X3789Y13831*
X3791Y13829*
X4048Y13618*
X4050Y13616*
X4344Y13459*
X4346Y13458*
X4665Y13362*
X4667Y13361*
X4920Y13336*
X4936Y13352*
X13489Y12651D02*
X13489Y12651D01*
X13489Y13422*
X13474Y13437*
X13028Y13437*
X13014Y13422*
X13014Y12651*
X13028Y12636*
X13474Y12636*
X13489Y12651*
X12886Y12651D02*
X12886Y12651D01*
X12886Y13422*
X12872Y13437*
X12426Y13437*
X12411Y13422*
X12411Y12651*
X12426Y12636*
X12872Y12636*
X12886Y12651*
X6704Y10040D02*
X6704Y10040D01*
X6679Y10293*
X6678Y10295*
X6582Y10614*
X6581Y10616*
X6424Y10910*
X6422Y10912*
X6211Y11169*
X6209Y11171*
X5952Y11382*
X5950Y11384*
X5656Y11541*
X5654Y11542*
X5335Y11638*
X5333Y11639*
X5080Y11664*
X5064Y11648*
X5064Y10038*
X5078Y10024*
X6688Y10024*
X6704Y10040*
X4936Y10038D02*
X4936Y10038D01*
X4936Y11648*
X4920Y11664*
X4667Y11639*
X4665Y11638*
X4346Y11542*
X4344Y11541*
X4050Y11384*
X4048Y11382*
X3791Y11171*
X3789Y11169*
X3578Y10912*
X3576Y10910*
X3419Y10616*
X3418Y10614*
X3322Y10295*
X3321Y10293*
X3296Y10040*
X3312Y10024*
X4922Y10024*
X4936Y10038*
X5333Y8281D02*
X5333Y8281D01*
X5335Y8282*
X5654Y8378*
X5656Y8379*
X5950Y8536*
X5952Y8538*
X6209Y8749*
X6211Y8751*
X6422Y9008*
X6424Y9010*
X6581Y9304*
X6582Y9306*
X6678Y9625*
X6679Y9627*
X6704Y9880*
X6688Y9896*
X5078Y9896*
X5064Y9882*
X5064Y8272*
X5080Y8256*
X5333Y8281*
X4936Y8272D02*
X4936Y8272D01*
X4936Y9882*
X4922Y9896*
X3312Y9896*
X3296Y9880*
X3321Y9627*
X3322Y9625*
X3418Y9306*
X3419Y9304*
X3576Y9010*
X3578Y9008*
X3789Y8751*
X3791Y8749*
X4048Y8538*
X4050Y8536*
X4344Y8379*
X4346Y8378*
X4665Y8282*
X4667Y8281*
X4920Y8256*
X4936Y8272*
X28164Y5970D02*
X28164Y5970D01*
X28138Y6232*
X28137Y6235*
X28038Y6563*
X28037Y6565*
X27875Y6868*
X27874Y6870*
X27656Y7135*
X27655Y7136*
X27390Y7354*
X27388Y7355*
X27085Y7517*
X27083Y7518*
X26755Y7617*
X26752Y7618*
X26490Y7644*
X26474Y7629*
X26474Y5968*
X26488Y5954*
X28149Y5954*
X28164Y5970*
X26346Y5968D02*
X26346Y5968D01*
X26346Y7629*
X26330Y7644*
X26068Y7618*
X26065Y7617*
X25737Y7518*
X25735Y7517*
X25432Y7355*
X25430Y7354*
X25165Y7136*
X25164Y7135*
X24946Y6870*
X24945Y6868*
X24783Y6565*
X24782Y6563*
X24683Y6235*
X24682Y6232*
X24656Y5970*
X24671Y5954*
X26332Y5954*
X26346Y5968*
X26752Y4162D02*
X26752Y4162D01*
X26755Y4163*
X27083Y4262*
X27085Y4263*
X27388Y4425*
X27390Y4426*
X27655Y4644*
X27656Y4645*
X27874Y4910*
X27875Y4912*
X28037Y5215*
X28038Y5217*
X28137Y5545*
X28138Y5548*
X28164Y5810*
X28149Y5827*
X26488Y5827*
X26474Y5812*
X26474Y4151*
X26490Y4136*
X26752Y4162*
X26346Y4151D02*
X26346Y4151D01*
X26346Y5812*
X26332Y5827*
X24671Y5827*
X24656Y5810*
X24682Y5548*
X24683Y5545*
X24782Y5217*
X24783Y5215*
X24945Y4912*
X24946Y4910*
X25164Y4645*
X25165Y4644*
X25430Y4426*
X25432Y4425*
X25735Y4263*
X25737Y4262*
X26065Y4163*
X26068Y4162*
X26330Y4136*
X26346Y4151*
X15441Y1643D02*
X15441Y1643D01*
X15443Y1644*
X15875Y1730*
X15877Y1730*
X16295Y1872*
X16296Y1873*
X16692Y2068*
X16693Y2069*
X17060Y2314*
X17062Y2315*
X17393Y2606*
X17394Y2607*
X17685Y2938*
X17686Y2940*
X17931Y3307*
X17932Y3308*
X18127Y3704*
X18128Y3705*
X18270Y4123*
X18270Y4125*
X18356Y4557*
X18357Y4559*
X18380Y4920*
X18365Y4936*
X15078Y4936*
X15063Y4922*
X15063Y1635*
X15080Y1620*
X15441Y1643*
X14937Y1635D02*
X14937Y1635D01*
X14937Y4922*
X14922Y4936*
X11635Y4936*
X11620Y4920*
X11643Y4559*
X11644Y4557*
X11730Y4125*
X11730Y4123*
X11872Y3705*
X11873Y3704*
X12068Y3308*
X12069Y3307*
X12314Y2940*
X12315Y2938*
X12606Y2607*
X12607Y2606*
X12938Y2315*
X12940Y2314*
X13307Y2069*
X13308Y2068*
X13704Y1873*
X13705Y1872*
X14123Y1730*
X14125Y1730*
X14557Y1644*
X14559Y1643*
X14920Y1620*
X14937Y1635*
X0525Y0550D02*
X29475Y0550D01*
X0525Y0599D02*
X29475Y0599D01*
X0525Y0649D02*
X29475Y0649D01*
X0525Y0698D02*
X29475Y0698D01*
X0525Y0748D02*
X29475Y0748D01*
X0525Y0797D02*
X29475Y0797D01*
X0525Y0847D02*
X29475Y0847D01*
X0525Y0896D02*
X29475Y0896D01*
X0525Y0946D02*
X29475Y0946D01*
X0525Y0995D02*
X29475Y0995D01*
X0525Y1045D02*
X29475Y1045D01*
X0525Y1094D02*
X29475Y1094D01*
X0525Y1144D02*
X29475Y1144D01*
X0525Y1193D02*
X29475Y1193D01*
X0525Y1243D02*
X29475Y1243D01*
X0525Y1292D02*
X29475Y1292D01*
X0525Y1342D02*
X29475Y1342D01*
X0525Y1392D02*
X29475Y1392D01*
X0525Y1441D02*
X29475Y1441D01*
X0525Y1491D02*
X29475Y1491D01*
X0525Y1540D02*
X29475Y1540D01*
X0525Y1590D02*
X29475Y1590D01*
X0525Y1639D02*
X14624Y1639D01*
X14937Y1639D02*
X15063Y1639D01*
X15376Y1639D02*
X29475Y1639D01*
X0525Y1689D02*
X14331Y1689D01*
X14937Y1689D02*
X15063Y1689D01*
X15669Y1689D02*
X29475Y1689D01*
X0525Y1738D02*
X14099Y1738D01*
X14937Y1738D02*
X15063Y1738D01*
X15901Y1738D02*
X29475Y1738D01*
X0525Y1788D02*
X13953Y1788D01*
X14937Y1788D02*
X15063Y1788D01*
X16047Y1788D02*
X29475Y1788D01*
X0525Y1837D02*
X13807Y1837D01*
X14937Y1837D02*
X15063Y1837D01*
X16193Y1837D02*
X29475Y1837D01*
X0525Y1887D02*
X13675Y1887D01*
X14937Y1887D02*
X15063Y1887D01*
X16325Y1887D02*
X29475Y1887D01*
X0525Y1936D02*
X13574Y1936D01*
X14937Y1936D02*
X15063Y1936D01*
X16426Y1936D02*
X29475Y1936D01*
X0525Y1986D02*
X13474Y1986D01*
X14937Y1986D02*
X15063Y1986D01*
X16526Y1986D02*
X29475Y1986D01*
X0525Y2035D02*
X13374Y2035D01*
X14937Y2035D02*
X15063Y2035D01*
X16626Y2035D02*
X29475Y2035D01*
X0525Y2085D02*
X13282Y2085D01*
X14937Y2085D02*
X15063Y2085D01*
X16718Y2085D02*
X29475Y2085D01*
X0525Y2134D02*
X13208Y2134D01*
X14937Y2134D02*
X15063Y2134D01*
X16792Y2134D02*
X29475Y2134D01*
X0525Y2184D02*
X13134Y2184D01*
X14937Y2184D02*
X15063Y2184D01*
X16866Y2184D02*
X29475Y2184D01*
X0525Y2234D02*
X13060Y2234D01*
X14937Y2234D02*
X15063Y2234D01*
X16940Y2234D02*
X29475Y2234D01*
X0525Y2283D02*
X12986Y2283D01*
X14937Y2283D02*
X15063Y2283D01*
X17014Y2283D02*
X29475Y2283D01*
X0525Y2333D02*
X12918Y2333D01*
X14937Y2333D02*
X15063Y2333D01*
X17082Y2333D02*
X29475Y2333D01*
X0525Y2382D02*
X12862Y2382D01*
X14937Y2382D02*
X15063Y2382D01*
X17138Y2382D02*
X29475Y2382D01*
X0525Y2432D02*
X12805Y2432D01*
X14937Y2432D02*
X15063Y2432D01*
X17195Y2432D02*
X29475Y2432D01*
X0525Y2481D02*
X12749Y2481D01*
X14937Y2481D02*
X15063Y2481D01*
X17251Y2481D02*
X29475Y2481D01*
X0525Y2531D02*
X12692Y2531D01*
X14937Y2531D02*
X15063Y2531D01*
X17308Y2531D02*
X29475Y2531D01*
X0525Y2580D02*
X12636Y2580D01*
X14937Y2580D02*
X15063Y2580D01*
X17364Y2580D02*
X29475Y2580D01*
X0525Y2630D02*
X12585Y2630D01*
X14937Y2630D02*
X15063Y2630D01*
X17415Y2630D02*
X29475Y2630D01*
X0525Y2679D02*
X12542Y2679D01*
X14937Y2679D02*
X15063Y2679D01*
X17458Y2679D02*
X29475Y2679D01*
X0525Y2729D02*
X12499Y2729D01*
X14937Y2729D02*
X15063Y2729D01*
X17501Y2729D02*
X29475Y2729D01*
X0525Y2778D02*
X12455Y2778D01*
X14937Y2778D02*
X15063Y2778D01*
X17545Y2778D02*
X29475Y2778D01*
X0525Y2828D02*
X2892Y2828D01*
X9114Y2828D02*
X12412Y2828D01*
X14937Y2828D02*
X15063Y2828D01*
X17588Y2828D02*
X29475Y2828D01*
X0525Y2877D02*
X2838Y2877D01*
X9165Y2877D02*
X12368Y2877D01*
X14937Y2877D02*
X15063Y2877D01*
X17632Y2877D02*
X29475Y2877D01*
X0525Y2927D02*
X2807Y2927D01*
X9200Y2927D02*
X12325Y2927D01*
X14937Y2927D02*
X15063Y2927D01*
X17675Y2927D02*
X29475Y2927D01*
X0525Y2976D02*
X2797Y2976D01*
X9233Y2976D02*
X12289Y2976D01*
X14937Y2976D02*
X15063Y2976D01*
X17711Y2976D02*
X29475Y2976D01*
X0525Y3026D02*
X2793Y3026D01*
X9266Y3026D02*
X12256Y3026D01*
X14937Y3026D02*
X15063Y3026D01*
X17744Y3026D02*
X29475Y3026D01*
X0525Y3076D02*
X2793Y3076D01*
X9299Y3076D02*
X12223Y3076D01*
X14937Y3076D02*
X15063Y3076D01*
X17777Y3076D02*
X29475Y3076D01*
X0525Y3125D02*
X2793Y3125D01*
X9332Y3125D02*
X12190Y3125D01*
X14937Y3125D02*
X15063Y3125D01*
X17810Y3125D02*
X29475Y3125D01*
X0525Y3175D02*
X2793Y3175D01*
X9365Y3175D02*
X12157Y3175D01*
X14937Y3175D02*
X15063Y3175D01*
X17843Y3175D02*
X29475Y3175D01*
X0525Y3224D02*
X2793Y3224D01*
X9398Y3224D02*
X12124Y3224D01*
X14937Y3224D02*
X15063Y3224D01*
X17876Y3224D02*
X29475Y3224D01*
X0525Y3274D02*
X2793Y3274D01*
X9431Y3274D02*
X12091Y3274D01*
X14937Y3274D02*
X15063Y3274D01*
X17909Y3274D02*
X29475Y3274D01*
X0525Y3323D02*
X2793Y3323D01*
X9464Y3323D02*
X12060Y3323D01*
X14937Y3323D02*
X15063Y3323D01*
X17940Y3323D02*
X29475Y3323D01*
X0525Y3373D02*
X2793Y3373D01*
X9497Y3373D02*
X12036Y3373D01*
X14937Y3373D02*
X15063Y3373D01*
X17964Y3373D02*
X29475Y3373D01*
X0525Y3422D02*
X2793Y3422D01*
X9530Y3422D02*
X12011Y3422D01*
X14937Y3422D02*
X15063Y3422D01*
X17989Y3422D02*
X29475Y3422D01*
X0525Y3472D02*
X2793Y3472D01*
X9563Y3472D02*
X11987Y3472D01*
X14937Y3472D02*
X15063Y3472D01*
X18013Y3472D02*
X29475Y3472D01*
X0525Y3521D02*
X2793Y3521D01*
X9596Y3521D02*
X11963Y3521D01*
X14937Y3521D02*
X15063Y3521D01*
X18037Y3521D02*
X29475Y3521D01*
X0525Y3571D02*
X2793Y3571D01*
X9629Y3571D02*
X11938Y3571D01*
X14937Y3571D02*
X15063Y3571D01*
X18062Y3571D02*
X29475Y3571D01*
X0525Y3620D02*
X2793Y3620D01*
X9662Y3620D02*
X11914Y3620D01*
X14937Y3620D02*
X15063Y3620D01*
X18086Y3620D02*
X29475Y3620D01*
X0525Y3670D02*
X2793Y3670D01*
X9695Y3670D02*
X11889Y3670D01*
X14937Y3670D02*
X15063Y3670D01*
X18111Y3670D02*
X29475Y3670D01*
X0525Y3719D02*
X2793Y3719D01*
X9728Y3719D02*
X11867Y3719D01*
X14937Y3719D02*
X15063Y3719D01*
X18133Y3719D02*
X29475Y3719D01*
X0525Y3769D02*
X2793Y3769D01*
X9761Y3769D02*
X11850Y3769D01*
X14937Y3769D02*
X15063Y3769D01*
X18150Y3769D02*
X29475Y3769D01*
X0525Y3819D02*
X2793Y3819D01*
X9794Y3819D02*
X11834Y3819D01*
X14937Y3819D02*
X15063Y3819D01*
X18166Y3819D02*
X29475Y3819D01*
X0525Y3868D02*
X2793Y3868D01*
X9827Y3868D02*
X11817Y3868D01*
X14937Y3868D02*
X15063Y3868D01*
X18183Y3868D02*
X29475Y3868D01*
X0525Y3918D02*
X2793Y3918D01*
X9860Y3918D02*
X11800Y3918D01*
X14937Y3918D02*
X15063Y3918D01*
X18200Y3918D02*
X29475Y3918D01*
X0525Y3967D02*
X2793Y3967D01*
X9893Y3967D02*
X11783Y3967D01*
X14937Y3967D02*
X15063Y3967D01*
X18217Y3967D02*
X29475Y3967D01*
X0525Y4017D02*
X2793Y4017D01*
X9926Y4017D02*
X11766Y4017D01*
X14937Y4017D02*
X15063Y4017D01*
X18234Y4017D02*
X29475Y4017D01*
X0525Y4066D02*
X2793Y4066D01*
X9959Y4066D02*
X11749Y4066D01*
X14937Y4066D02*
X15063Y4066D01*
X18251Y4066D02*
X29475Y4066D01*
X0525Y4116D02*
X2793Y4116D01*
X9992Y4116D02*
X11733Y4116D01*
X14937Y4116D02*
X15063Y4116D01*
X18267Y4116D02*
X29475Y4116D01*
X0525Y4165D02*
X2793Y4165D01*
X10025Y4165D02*
X11722Y4165D01*
X14937Y4165D02*
X15063Y4165D01*
X18278Y4165D02*
X26056Y4165D01*
X26346Y4165D02*
X26474Y4165D01*
X26764Y4165D02*
X29475Y4165D01*
X0525Y4215D02*
X2793Y4215D01*
X10058Y4215D02*
X11712Y4215D01*
X14937Y4215D02*
X15063Y4215D01*
X18288Y4215D02*
X25893Y4215D01*
X26346Y4215D02*
X26474Y4215D01*
X26927Y4215D02*
X29475Y4215D01*
X0525Y4264D02*
X2793Y4264D01*
X10091Y4264D02*
X11702Y4264D01*
X14937Y4264D02*
X15063Y4264D01*
X18298Y4264D02*
X25732Y4264D01*
X26346Y4264D02*
X26474Y4264D01*
X27088Y4264D02*
X29475Y4264D01*
X0525Y4314D02*
X2793Y4314D01*
X10124Y4314D02*
X11692Y4314D01*
X14937Y4314D02*
X15063Y4314D01*
X18308Y4314D02*
X25640Y4314D01*
X26346Y4314D02*
X26474Y4314D01*
X27180Y4314D02*
X29475Y4314D01*
X0525Y4363D02*
X2793Y4363D01*
X10157Y4363D02*
X11682Y4363D01*
X14937Y4363D02*
X15063Y4363D01*
X18318Y4363D02*
X25547Y4363D01*
X26346Y4363D02*
X26474Y4363D01*
X27273Y4363D02*
X29475Y4363D01*
X0525Y4413D02*
X2793Y4413D01*
X10190Y4413D02*
X11672Y4413D01*
X14937Y4413D02*
X15063Y4413D01*
X18328Y4413D02*
X25454Y4413D01*
X26346Y4413D02*
X26474Y4413D01*
X27366Y4413D02*
X29475Y4413D01*
X0525Y4462D02*
X2793Y4462D01*
X10223Y4462D02*
X11663Y4462D01*
X14937Y4462D02*
X15063Y4462D01*
X18337Y4462D02*
X25386Y4462D01*
X26346Y4462D02*
X26474Y4462D01*
X27434Y4462D02*
X29475Y4462D01*
X0525Y4512D02*
X2793Y4512D01*
X10256Y4512D02*
X11653Y4512D01*
X14937Y4512D02*
X15063Y4512D01*
X18347Y4512D02*
X25326Y4512D01*
X26346Y4512D02*
X26474Y4512D01*
X27494Y4512D02*
X29475Y4512D01*
X0525Y4561D02*
X2793Y4561D01*
X10289Y4561D02*
X11643Y4561D01*
X14937Y4561D02*
X15063Y4561D01*
X18357Y4561D02*
X25265Y4561D01*
X26346Y4561D02*
X26474Y4561D01*
X27555Y4561D02*
X29475Y4561D01*
X0525Y4611D02*
X2793Y4611D01*
X10322Y4611D02*
X11640Y4611D01*
X14937Y4611D02*
X15063Y4611D01*
X18360Y4611D02*
X25205Y4611D01*
X26346Y4611D02*
X26474Y4611D01*
X27615Y4611D02*
X29475Y4611D01*
X0525Y4661D02*
X2793Y4661D01*
X10355Y4661D02*
X11637Y4661D01*
X14937Y4661D02*
X15063Y4661D01*
X18363Y4661D02*
X25151Y4661D01*
X26346Y4661D02*
X26474Y4661D01*
X27669Y4661D02*
X29475Y4661D01*
X0525Y4710D02*
X2793Y4710D01*
X10388Y4710D02*
X11634Y4710D01*
X14937Y4710D02*
X15063Y4710D01*
X18366Y4710D02*
X25110Y4710D01*
X26346Y4710D02*
X26474Y4710D01*
X27710Y4710D02*
X29475Y4710D01*
X0525Y4760D02*
X2793Y4760D01*
X10421Y4760D02*
X11630Y4760D01*
X14937Y4760D02*
X15063Y4760D01*
X18370Y4760D02*
X25070Y4760D01*
X26346Y4760D02*
X26474Y4760D01*
X27750Y4760D02*
X29475Y4760D01*
X0525Y4809D02*
X2793Y4809D01*
X10454Y4809D02*
X11627Y4809D01*
X14937Y4809D02*
X15063Y4809D01*
X18373Y4809D02*
X25029Y4809D01*
X26346Y4809D02*
X26474Y4809D01*
X27791Y4809D02*
X29475Y4809D01*
X0525Y4859D02*
X2793Y4859D01*
X10487Y4859D02*
X11624Y4859D01*
X14937Y4859D02*
X15063Y4859D01*
X18376Y4859D02*
X24988Y4859D01*
X26346Y4859D02*
X26474Y4859D01*
X27832Y4859D02*
X29475Y4859D01*
X0525Y4908D02*
X2793Y4908D01*
X10521Y4908D02*
X11621Y4908D01*
X14937Y4908D02*
X15063Y4908D01*
X18379Y4908D02*
X24948Y4908D01*
X26346Y4908D02*
X26474Y4908D01*
X27872Y4908D02*
X29475Y4908D01*
X0525Y4958D02*
X2793Y4958D01*
X10554Y4958D02*
X24920Y4958D01*
X26346Y4958D02*
X26474Y4958D01*
X27900Y4958D02*
X29475Y4958D01*
X0525Y5007D02*
X2793Y5007D01*
X10587Y5007D02*
X24894Y5007D01*
X26346Y5007D02*
X26474Y5007D01*
X27926Y5007D02*
X29475Y5007D01*
X0525Y5057D02*
X2793Y5057D01*
X10620Y5057D02*
X24867Y5057D01*
X26346Y5057D02*
X26474Y5057D01*
X27953Y5057D02*
X29475Y5057D01*
X0525Y5106D02*
X2793Y5106D01*
X10653Y5106D02*
X11622Y5106D01*
X18378Y5106D02*
X24841Y5106D01*
X26346Y5106D02*
X26474Y5106D01*
X27979Y5106D02*
X29475Y5106D01*
X0525Y5156D02*
X2793Y5156D01*
X10686Y5156D02*
X11625Y5156D01*
X18375Y5156D02*
X24814Y5156D01*
X26346Y5156D02*
X26474Y5156D01*
X28006Y5156D02*
X29475Y5156D01*
X0525Y5205D02*
X2793Y5205D01*
X10719Y5205D02*
X11628Y5205D01*
X18372Y5205D02*
X24788Y5205D01*
X26346Y5205D02*
X26474Y5205D01*
X28032Y5205D02*
X29475Y5205D01*
X0525Y5255D02*
X2793Y5255D01*
X10752Y5255D02*
X11631Y5255D01*
X18369Y5255D02*
X24771Y5255D01*
X26346Y5255D02*
X26474Y5255D01*
X28049Y5255D02*
X29475Y5255D01*
X0525Y5304D02*
X2793Y5304D01*
X10785Y5304D02*
X11635Y5304D01*
X18365Y5304D02*
X24756Y5304D01*
X26346Y5304D02*
X26474Y5304D01*
X28064Y5304D02*
X29475Y5304D01*
X0525Y5354D02*
X2793Y5354D01*
X10818Y5354D02*
X11638Y5354D01*
X18362Y5354D02*
X24741Y5354D01*
X26346Y5354D02*
X26474Y5354D01*
X28079Y5354D02*
X29475Y5354D01*
X0525Y5403D02*
X2793Y5403D01*
X10851Y5403D02*
X11641Y5403D01*
X18359Y5403D02*
X24725Y5403D01*
X26346Y5403D02*
X26474Y5403D01*
X28095Y5403D02*
X29475Y5403D01*
X0525Y5453D02*
X2793Y5453D01*
X10884Y5453D02*
X11646Y5453D01*
X18354Y5453D02*
X24710Y5453D01*
X26346Y5453D02*
X26474Y5453D01*
X28110Y5453D02*
X29475Y5453D01*
X0525Y5503D02*
X2793Y5503D01*
X10917Y5503D02*
X11656Y5503D01*
X18344Y5503D02*
X24695Y5503D01*
X26346Y5503D02*
X26474Y5503D01*
X28125Y5503D02*
X29475Y5503D01*
X0525Y5552D02*
X2793Y5552D01*
X10950Y5552D02*
X11665Y5552D01*
X18335Y5552D02*
X24682Y5552D01*
X26346Y5552D02*
X26474Y5552D01*
X28138Y5552D02*
X29475Y5552D01*
X0525Y5602D02*
X2793Y5602D01*
X10983Y5602D02*
X11675Y5602D01*
X18325Y5602D02*
X24677Y5602D01*
X26346Y5602D02*
X26474Y5602D01*
X28143Y5602D02*
X29475Y5602D01*
X0525Y5651D02*
X2793Y5651D01*
X11016Y5651D02*
X11685Y5651D01*
X18315Y5651D02*
X24672Y5651D01*
X26346Y5651D02*
X26474Y5651D01*
X28148Y5651D02*
X29475Y5651D01*
X0525Y5701D02*
X2793Y5701D01*
X11049Y5701D02*
X11695Y5701D01*
X18305Y5701D02*
X24667Y5701D01*
X26346Y5701D02*
X26474Y5701D01*
X28153Y5701D02*
X29475Y5701D01*
X0525Y5750D02*
X2793Y5750D01*
X11082Y5750D02*
X11705Y5750D01*
X18295Y5750D02*
X24662Y5750D01*
X26346Y5750D02*
X26474Y5750D01*
X28158Y5750D02*
X29475Y5750D01*
X0525Y5800D02*
X2793Y5800D01*
X11115Y5800D02*
X11715Y5800D01*
X18285Y5800D02*
X24657Y5800D01*
X26346Y5800D02*
X26474Y5800D01*
X28163Y5800D02*
X29475Y5800D01*
X0525Y5849D02*
X2793Y5849D01*
X11148Y5849D02*
X11725Y5849D01*
X18275Y5849D02*
X29475Y5849D01*
X0525Y5899D02*
X2793Y5899D01*
X11181Y5899D02*
X11738Y5899D01*
X18262Y5899D02*
X29475Y5899D01*
X0525Y5948D02*
X2793Y5948D01*
X11214Y5948D02*
X11754Y5948D01*
X18246Y5948D02*
X29475Y5948D01*
X0525Y5998D02*
X2793Y5998D01*
X11247Y5998D02*
X11771Y5998D01*
X18229Y5998D02*
X24659Y5998D01*
X26346Y5998D02*
X26474Y5998D01*
X28161Y5998D02*
X29475Y5998D01*
X0525Y6047D02*
X2793Y6047D01*
X11280Y6047D02*
X11788Y6047D01*
X18212Y6047D02*
X24664Y6047D01*
X26346Y6047D02*
X26474Y6047D01*
X28156Y6047D02*
X29475Y6047D01*
X0525Y6097D02*
X2793Y6097D01*
X11313Y6097D02*
X11805Y6097D01*
X18195Y6097D02*
X24669Y6097D01*
X26346Y6097D02*
X26474Y6097D01*
X28151Y6097D02*
X29475Y6097D01*
X0525Y6146D02*
X2793Y6146D01*
X11346Y6146D02*
X11822Y6146D01*
X18178Y6146D02*
X24674Y6146D01*
X26346Y6146D02*
X26474Y6146D01*
X28146Y6146D02*
X29475Y6146D01*
X0525Y6196D02*
X2793Y6196D01*
X11379Y6196D02*
X11838Y6196D01*
X18162Y6196D02*
X24678Y6196D01*
X26346Y6196D02*
X26474Y6196D01*
X28142Y6196D02*
X29475Y6196D01*
X0525Y6245D02*
X2793Y6245D01*
X11412Y6245D02*
X11855Y6245D01*
X18145Y6245D02*
X24686Y6245D01*
X26346Y6245D02*
X26474Y6245D01*
X28134Y6245D02*
X29475Y6245D01*
X0525Y6295D02*
X2793Y6295D01*
X11445Y6295D02*
X11872Y6295D01*
X18128Y6295D02*
X24701Y6295D01*
X26346Y6295D02*
X26474Y6295D01*
X28119Y6295D02*
X29475Y6295D01*
X0525Y6345D02*
X2793Y6345D01*
X11478Y6345D02*
X11896Y6345D01*
X18104Y6345D02*
X24716Y6345D01*
X26346Y6345D02*
X26474Y6345D01*
X28104Y6345D02*
X29475Y6345D01*
X0525Y6394D02*
X2793Y6394D01*
X11511Y6394D02*
X11921Y6394D01*
X18079Y6394D02*
X24731Y6394D01*
X26346Y6394D02*
X26474Y6394D01*
X28089Y6394D02*
X29475Y6394D01*
X0525Y6444D02*
X2793Y6444D01*
X11544Y6444D02*
X11945Y6444D01*
X18055Y6444D02*
X24746Y6444D01*
X26346Y6444D02*
X26474Y6444D01*
X28074Y6444D02*
X29475Y6444D01*
X0525Y6493D02*
X2793Y6493D01*
X11577Y6493D02*
X11970Y6493D01*
X18030Y6493D02*
X24761Y6493D01*
X26346Y6493D02*
X26474Y6493D01*
X28059Y6493D02*
X29475Y6493D01*
X0525Y6543D02*
X2793Y6543D01*
X11610Y6543D02*
X11994Y6543D01*
X18006Y6543D02*
X24776Y6543D01*
X26346Y6543D02*
X26474Y6543D01*
X28044Y6543D02*
X29475Y6543D01*
X0525Y6592D02*
X2793Y6592D01*
X11643Y6592D02*
X12019Y6592D01*
X17981Y6592D02*
X24797Y6592D01*
X26346Y6592D02*
X26474Y6592D01*
X28023Y6592D02*
X29475Y6592D01*
X0525Y6642D02*
X2793Y6642D01*
X11676Y6642D02*
X12043Y6642D01*
X17957Y6642D02*
X24824Y6642D01*
X26346Y6642D02*
X26474Y6642D01*
X27996Y6642D02*
X29475Y6642D01*
X0525Y6691D02*
X2793Y6691D01*
X11709Y6691D02*
X12067Y6691D01*
X17933Y6691D02*
X24850Y6691D01*
X26346Y6691D02*
X26474Y6691D01*
X27970Y6691D02*
X29475Y6691D01*
X0525Y6741D02*
X2793Y6741D01*
X11742Y6741D02*
X12100Y6741D01*
X17900Y6741D02*
X24877Y6741D01*
X26346Y6741D02*
X26474Y6741D01*
X27943Y6741D02*
X29475Y6741D01*
X0525Y6790D02*
X2793Y6790D01*
X11775Y6790D02*
X12133Y6790D01*
X17867Y6790D02*
X24903Y6790D01*
X26346Y6790D02*
X26474Y6790D01*
X27917Y6790D02*
X29475Y6790D01*
X0525Y6840D02*
X2793Y6840D01*
X11808Y6840D02*
X12166Y6840D01*
X17834Y6840D02*
X24930Y6840D01*
X26346Y6840D02*
X26474Y6840D01*
X27890Y6840D02*
X29475Y6840D01*
X0525Y6889D02*
X2793Y6889D01*
X11841Y6889D02*
X12200Y6889D01*
X17800Y6889D02*
X24962Y6889D01*
X26346Y6889D02*
X26474Y6889D01*
X27858Y6889D02*
X29475Y6889D01*
X0525Y6939D02*
X2793Y6939D01*
X11874Y6939D02*
X12233Y6939D01*
X17767Y6939D02*
X25003Y6939D01*
X26346Y6939D02*
X26474Y6939D01*
X27817Y6939D02*
X29475Y6939D01*
X0525Y6988D02*
X2793Y6988D01*
X11907Y6988D02*
X12266Y6988D01*
X17734Y6988D02*
X25043Y6988D01*
X26346Y6988D02*
X26474Y6988D01*
X27777Y6988D02*
X29475Y6988D01*
X0525Y7038D02*
X2793Y7038D01*
X11940Y7038D02*
X12299Y7038D01*
X17701Y7038D02*
X25084Y7038D01*
X26346Y7038D02*
X26474Y7038D01*
X27736Y7038D02*
X29475Y7038D01*
X0525Y7087D02*
X2793Y7087D01*
X11973Y7087D02*
X12337Y7087D01*
X17663Y7087D02*
X25125Y7087D01*
X26346Y7087D02*
X26474Y7087D01*
X27695Y7087D02*
X29475Y7087D01*
X0525Y7137D02*
X2793Y7137D01*
X12006Y7137D02*
X12381Y7137D01*
X17619Y7137D02*
X25166Y7137D01*
X26346Y7137D02*
X26474Y7137D01*
X27654Y7137D02*
X29475Y7137D01*
X0525Y7187D02*
X2793Y7187D01*
X12039Y7187D02*
X12424Y7187D01*
X17576Y7187D02*
X25226Y7187D01*
X26346Y7187D02*
X26474Y7187D01*
X27594Y7187D02*
X29475Y7187D01*
X0525Y7236D02*
X2793Y7236D01*
X12072Y7236D02*
X12430Y7236D01*
X17570Y7236D02*
X25287Y7236D01*
X26346Y7236D02*
X26474Y7236D01*
X27533Y7236D02*
X29475Y7236D01*
X0525Y7286D02*
X2793Y7286D01*
X12105Y7286D02*
X12407Y7286D01*
X17593Y7286D02*
X25347Y7286D01*
X26346Y7286D02*
X26474Y7286D01*
X27473Y7286D02*
X29475Y7286D01*
X0525Y7335D02*
X2793Y7335D01*
X25119Y7335D02*
X25407Y7335D01*
X26346Y7335D02*
X26474Y7335D01*
X27413Y7335D02*
X29475Y7335D01*
X0525Y7385D02*
X2793Y7385D01*
X25167Y7385D02*
X25487Y7385D01*
X26346Y7385D02*
X26474Y7385D01*
X27333Y7385D02*
X29475Y7385D01*
X0525Y7434D02*
X2793Y7434D01*
X25194Y7434D02*
X25580Y7434D01*
X26346Y7434D02*
X26474Y7434D01*
X27240Y7434D02*
X29475Y7434D01*
X0525Y7484D02*
X2793Y7484D01*
X25204Y7484D02*
X25672Y7484D01*
X26346Y7484D02*
X26474Y7484D01*
X27148Y7484D02*
X29475Y7484D01*
X0525Y7533D02*
X2799Y7533D01*
X25207Y7533D02*
X25788Y7533D01*
X26346Y7533D02*
X26474Y7533D01*
X27032Y7533D02*
X29475Y7533D01*
X0525Y7583D02*
X2811Y7583D01*
X25207Y7583D02*
X25951Y7583D01*
X26346Y7583D02*
X26474Y7583D01*
X26869Y7583D02*
X29475Y7583D01*
X0525Y7632D02*
X2844Y7632D01*
X25207Y7632D02*
X26213Y7632D01*
X26342Y7632D02*
X26478Y7632D01*
X26607Y7632D02*
X29475Y7632D01*
X0525Y7682D02*
X2906Y7682D01*
X25207Y7682D02*
X29475Y7682D01*
X0525Y7731D02*
X7934Y7731D01*
X25207Y7731D02*
X29475Y7731D01*
X0525Y7781D02*
X7981Y7781D01*
X25207Y7781D02*
X29475Y7781D01*
X0525Y7830D02*
X8027Y7830D01*
X25207Y7830D02*
X29475Y7830D01*
X0525Y7880D02*
X8074Y7880D01*
X25207Y7880D02*
X29475Y7880D01*
X0525Y7929D02*
X8120Y7929D01*
X25207Y7929D02*
X29475Y7929D01*
X0525Y7979D02*
X8167Y7979D01*
X25207Y7979D02*
X29475Y7979D01*
X0525Y8029D02*
X8214Y8029D01*
X25207Y8029D02*
X29475Y8029D01*
X0525Y8078D02*
X8260Y8078D01*
X25207Y8078D02*
X29475Y8078D01*
X0525Y8128D02*
X8307Y8128D01*
X25207Y8128D02*
X29475Y8128D01*
X0525Y8177D02*
X8353Y8177D01*
X25207Y8177D02*
X29475Y8177D01*
X0525Y8227D02*
X8400Y8227D01*
X25207Y8227D02*
X29475Y8227D01*
X0525Y8276D02*
X4719Y8276D01*
X4936Y8276D02*
X5064Y8276D01*
X5281Y8276D02*
X8447Y8276D01*
X25207Y8276D02*
X29475Y8276D01*
X0525Y8326D02*
X4520Y8326D01*
X4936Y8326D02*
X5064Y8326D01*
X5480Y8326D02*
X8493Y8326D01*
X25207Y8326D02*
X29475Y8326D01*
X0525Y8375D02*
X4357Y8375D01*
X4936Y8375D02*
X5064Y8375D01*
X5643Y8375D02*
X8540Y8375D01*
X25207Y8375D02*
X29475Y8375D01*
X0525Y8425D02*
X4259Y8425D01*
X4936Y8425D02*
X5064Y8425D01*
X5741Y8425D02*
X8587Y8425D01*
X25207Y8425D02*
X29475Y8425D01*
X0525Y8474D02*
X4166Y8474D01*
X4936Y8474D02*
X5064Y8474D01*
X5834Y8474D02*
X8633Y8474D01*
X25207Y8474D02*
X29475Y8474D01*
X0525Y8524D02*
X4074Y8524D01*
X4936Y8524D02*
X5064Y8524D01*
X5926Y8524D02*
X8680Y8524D01*
X25207Y8524D02*
X29475Y8524D01*
X0525Y8573D02*
X4005Y8573D01*
X4936Y8573D02*
X5064Y8573D01*
X5995Y8573D02*
X8726Y8573D01*
X25207Y8573D02*
X29475Y8573D01*
X0525Y8623D02*
X3944Y8623D01*
X4936Y8623D02*
X5064Y8623D01*
X6056Y8623D02*
X8773Y8623D01*
X25207Y8623D02*
X29475Y8623D01*
X0525Y8672D02*
X3884Y8672D01*
X4936Y8672D02*
X5064Y8672D01*
X6116Y8672D02*
X8820Y8672D01*
X25207Y8672D02*
X29475Y8672D01*
X0525Y8722D02*
X3824Y8722D01*
X4936Y8722D02*
X5064Y8722D01*
X6176Y8722D02*
X8866Y8722D01*
X25207Y8722D02*
X29475Y8722D01*
X0525Y8772D02*
X3772Y8772D01*
X4936Y8772D02*
X5064Y8772D01*
X6228Y8772D02*
X8913Y8772D01*
X25207Y8772D02*
X29475Y8772D01*
X0525Y8821D02*
X3731Y8821D01*
X4936Y8821D02*
X5064Y8821D01*
X6269Y8821D02*
X8960Y8821D01*
X25207Y8821D02*
X29475Y8821D01*
X0525Y8871D02*
X3691Y8871D01*
X4936Y8871D02*
X5064Y8871D01*
X6309Y8871D02*
X9006Y8871D01*
X25207Y8871D02*
X29475Y8871D01*
X0525Y8920D02*
X3650Y8920D01*
X4936Y8920D02*
X5064Y8920D01*
X6350Y8920D02*
X9053Y8920D01*
X25207Y8920D02*
X29475Y8920D01*
X0525Y8970D02*
X3609Y8970D01*
X4936Y8970D02*
X5064Y8970D01*
X6391Y8970D02*
X9099Y8970D01*
X25207Y8970D02*
X29475Y8970D01*
X0525Y9019D02*
X3572Y9019D01*
X4936Y9019D02*
X5064Y9019D01*
X6428Y9019D02*
X9146Y9019D01*
X25207Y9019D02*
X29475Y9019D01*
X0525Y9069D02*
X3545Y9069D01*
X4936Y9069D02*
X5064Y9069D01*
X6455Y9069D02*
X9193Y9069D01*
X25207Y9069D02*
X29475Y9069D01*
X0525Y9118D02*
X3519Y9118D01*
X4936Y9118D02*
X5064Y9118D01*
X6481Y9118D02*
X9239Y9118D01*
X25207Y9118D02*
X29475Y9118D01*
X0525Y9168D02*
X3492Y9168D01*
X4936Y9168D02*
X5064Y9168D01*
X6508Y9168D02*
X9286Y9168D01*
X25207Y9168D02*
X29475Y9168D01*
X0525Y9217D02*
X3466Y9217D01*
X4936Y9217D02*
X5064Y9217D01*
X6534Y9217D02*
X9332Y9217D01*
X25207Y9217D02*
X29475Y9217D01*
X0525Y9267D02*
X3439Y9267D01*
X4936Y9267D02*
X5064Y9267D01*
X6561Y9267D02*
X9379Y9267D01*
X25207Y9267D02*
X29475Y9267D01*
X0525Y9316D02*
X3415Y9316D01*
X4936Y9316D02*
X5064Y9316D01*
X6585Y9316D02*
X9426Y9316D01*
X25207Y9316D02*
X29475Y9316D01*
X0525Y9366D02*
X3400Y9366D01*
X4936Y9366D02*
X5064Y9366D01*
X6600Y9366D02*
X9472Y9366D01*
X25207Y9366D02*
X29475Y9366D01*
X0525Y9415D02*
X3385Y9415D01*
X4936Y9415D02*
X5064Y9415D01*
X6615Y9415D02*
X9519Y9415D01*
X25207Y9415D02*
X29475Y9415D01*
X0525Y9465D02*
X3370Y9465D01*
X4936Y9465D02*
X5064Y9465D01*
X6630Y9465D02*
X9566Y9465D01*
X25207Y9465D02*
X29475Y9465D01*
X0525Y9514D02*
X3355Y9514D01*
X4936Y9514D02*
X5064Y9514D01*
X6645Y9514D02*
X9612Y9514D01*
X25207Y9514D02*
X29475Y9514D01*
X0525Y9564D02*
X3340Y9564D01*
X4936Y9564D02*
X5064Y9564D01*
X6660Y9564D02*
X9659Y9564D01*
X25207Y9564D02*
X29475Y9564D01*
X0525Y9614D02*
X3325Y9614D01*
X4936Y9614D02*
X5064Y9614D01*
X6675Y9614D02*
X9705Y9614D01*
X25207Y9614D02*
X29475Y9614D01*
X0525Y9663D02*
X3318Y9663D01*
X4936Y9663D02*
X5064Y9663D01*
X6682Y9663D02*
X9752Y9663D01*
X25207Y9663D02*
X29475Y9663D01*
X0525Y9713D02*
X3313Y9713D01*
X4936Y9713D02*
X5064Y9713D01*
X6687Y9713D02*
X9799Y9713D01*
X25207Y9713D02*
X29475Y9713D01*
X0525Y9762D02*
X3308Y9762D01*
X4936Y9762D02*
X5064Y9762D01*
X6692Y9762D02*
X9845Y9762D01*
X25207Y9762D02*
X29475Y9762D01*
X0525Y9812D02*
X3303Y9812D01*
X4936Y9812D02*
X5064Y9812D01*
X6697Y9812D02*
X9892Y9812D01*
X25207Y9812D02*
X29475Y9812D01*
X0525Y9861D02*
X3298Y9861D01*
X4936Y9861D02*
X5064Y9861D01*
X6702Y9861D02*
X9938Y9861D01*
X25207Y9861D02*
X29475Y9861D01*
X0525Y9911D02*
X9985Y9911D01*
X25207Y9911D02*
X29475Y9911D01*
X0525Y9960D02*
X10032Y9960D01*
X25207Y9960D02*
X29475Y9960D01*
X0525Y10010D02*
X10078Y10010D01*
X25207Y10010D02*
X29475Y10010D01*
X0525Y10059D02*
X3298Y10059D01*
X4936Y10059D02*
X5064Y10059D01*
X6702Y10059D02*
X10125Y10059D01*
X25207Y10059D02*
X29475Y10059D01*
X0525Y10109D02*
X3303Y10109D01*
X4936Y10109D02*
X5064Y10109D01*
X6697Y10109D02*
X10172Y10109D01*
X25207Y10109D02*
X29475Y10109D01*
X0525Y10158D02*
X3308Y10158D01*
X4936Y10158D02*
X5064Y10158D01*
X6692Y10158D02*
X10218Y10158D01*
X25207Y10158D02*
X29475Y10158D01*
X0525Y10208D02*
X3313Y10208D01*
X4936Y10208D02*
X5064Y10208D01*
X6687Y10208D02*
X10265Y10208D01*
X25207Y10208D02*
X29475Y10208D01*
X0525Y10257D02*
X3318Y10257D01*
X4936Y10257D02*
X5064Y10257D01*
X6682Y10257D02*
X10311Y10257D01*
X25206Y10257D02*
X29475Y10257D01*
X0525Y10307D02*
X3325Y10307D01*
X4936Y10307D02*
X5064Y10307D01*
X6675Y10307D02*
X10358Y10307D01*
X25196Y10307D02*
X29475Y10307D01*
X0525Y10356D02*
X3340Y10356D01*
X4936Y10356D02*
X5064Y10356D01*
X6660Y10356D02*
X10405Y10356D01*
X25173Y10356D02*
X29475Y10356D01*
X0525Y10406D02*
X3355Y10406D01*
X4936Y10406D02*
X5064Y10406D01*
X6645Y10406D02*
X10451Y10406D01*
X25132Y10406D02*
X29475Y10406D01*
X0525Y10456D02*
X3370Y10456D01*
X4936Y10456D02*
X5064Y10456D01*
X6630Y10456D02*
X10498Y10456D01*
X25008Y10456D02*
X29475Y10456D01*
X0525Y10505D02*
X3386Y10505D01*
X4936Y10505D02*
X5064Y10505D01*
X6614Y10505D02*
X10544Y10505D01*
X24175Y10505D02*
X29475Y10505D01*
X0525Y10555D02*
X3401Y10555D01*
X4936Y10555D02*
X5064Y10555D01*
X6599Y10555D02*
X10591Y10555D01*
X24196Y10555D02*
X29475Y10555D01*
X0525Y10604D02*
X3416Y10604D01*
X4936Y10604D02*
X5064Y10604D01*
X6584Y10604D02*
X10638Y10604D01*
X24279Y10604D02*
X29475Y10604D01*
X0525Y10654D02*
X3440Y10654D01*
X4936Y10654D02*
X5064Y10654D01*
X6560Y10654D02*
X10684Y10654D01*
X24344Y10654D02*
X29475Y10654D01*
X0525Y10703D02*
X3466Y10703D01*
X4936Y10703D02*
X5064Y10703D01*
X6534Y10703D02*
X10731Y10703D01*
X24408Y10703D02*
X29475Y10703D01*
X0525Y10753D02*
X3492Y10753D01*
X4936Y10753D02*
X5064Y10753D01*
X6508Y10753D02*
X10778Y10753D01*
X24467Y10753D02*
X29475Y10753D01*
X0525Y10802D02*
X3519Y10802D01*
X4936Y10802D02*
X5064Y10802D01*
X6481Y10802D02*
X10824Y10802D01*
X24505Y10802D02*
X29475Y10802D01*
X0525Y10852D02*
X3545Y10852D01*
X4936Y10852D02*
X5064Y10852D01*
X6455Y10852D02*
X10871Y10852D01*
X24543Y10852D02*
X29475Y10852D01*
X0525Y10901D02*
X3572Y10901D01*
X4936Y10901D02*
X5064Y10901D01*
X6428Y10901D02*
X10917Y10901D01*
X24581Y10901D02*
X29475Y10901D01*
X0525Y10951D02*
X3610Y10951D01*
X4936Y10951D02*
X5064Y10951D01*
X6390Y10951D02*
X10964Y10951D01*
X24619Y10951D02*
X29475Y10951D01*
X0525Y11000D02*
X3650Y11000D01*
X4936Y11000D02*
X5064Y11000D01*
X6350Y11000D02*
X11011Y11000D01*
X24644Y11000D02*
X29475Y11000D01*
X0525Y11050D02*
X3691Y11050D01*
X4936Y11050D02*
X5064Y11050D01*
X6309Y11050D02*
X11057Y11050D01*
X24664Y11050D02*
X29475Y11050D01*
X0525Y11099D02*
X3732Y11099D01*
X4936Y11099D02*
X5064Y11099D01*
X6268Y11099D02*
X11104Y11099D01*
X24685Y11099D02*
X29475Y11099D01*
X0525Y11149D02*
X3772Y11149D01*
X4936Y11149D02*
X5064Y11149D01*
X6228Y11149D02*
X11150Y11149D01*
X24705Y11149D02*
X29475Y11149D01*
X0525Y11198D02*
X3824Y11198D01*
X4936Y11198D02*
X5064Y11198D01*
X6176Y11198D02*
X11197Y11198D01*
X24726Y11198D02*
X29475Y11198D01*
X0525Y11248D02*
X3885Y11248D01*
X4936Y11248D02*
X5064Y11248D01*
X6115Y11248D02*
X11244Y11248D01*
X24739Y11248D02*
X29475Y11248D01*
X0525Y11298D02*
X3945Y11298D01*
X4936Y11298D02*
X5064Y11298D01*
X6055Y11298D02*
X11290Y11298D01*
X24746Y11298D02*
X29475Y11298D01*
X0525Y11347D02*
X4005Y11347D01*
X4936Y11347D02*
X5064Y11347D01*
X5995Y11347D02*
X11337Y11347D01*
X24752Y11347D02*
X29475Y11347D01*
X0525Y11397D02*
X4075Y11397D01*
X4936Y11397D02*
X5064Y11397D01*
X5925Y11397D02*
X11384Y11397D01*
X24759Y11397D02*
X29475Y11397D01*
X0525Y11446D02*
X4167Y11446D01*
X4936Y11446D02*
X5064Y11446D01*
X5833Y11446D02*
X11430Y11446D01*
X24765Y11446D02*
X29475Y11446D01*
X0525Y11496D02*
X4260Y11496D01*
X4936Y11496D02*
X5064Y11496D01*
X5740Y11496D02*
X11477Y11496D01*
X24772Y11496D02*
X29475Y11496D01*
X0525Y11545D02*
X4358Y11545D01*
X4936Y11545D02*
X5064Y11545D01*
X5642Y11545D02*
X11523Y11545D01*
X24766Y11545D02*
X29475Y11545D01*
X0525Y11595D02*
X4522Y11595D01*
X4936Y11595D02*
X5064Y11595D01*
X5478Y11595D02*
X11570Y11595D01*
X24760Y11595D02*
X29475Y11595D01*
X0525Y11644D02*
X4724Y11644D01*
X4936Y11644D02*
X5064Y11644D01*
X5276Y11644D02*
X11617Y11644D01*
X24753Y11644D02*
X29475Y11644D01*
X0525Y11694D02*
X11663Y11694D01*
X24747Y11694D02*
X29475Y11694D01*
X0525Y11743D02*
X11710Y11743D01*
X24740Y11743D02*
X29475Y11743D01*
X0525Y11793D02*
X11756Y11793D01*
X24730Y11793D02*
X29475Y11793D01*
X0525Y11842D02*
X11803Y11842D01*
X24709Y11842D02*
X29475Y11842D01*
X0525Y11892D02*
X11850Y11892D01*
X24688Y11892D02*
X29475Y11892D01*
X0525Y11941D02*
X11922Y11941D01*
X24668Y11941D02*
X29475Y11941D01*
X0525Y11991D02*
X12411Y11991D01*
X13489Y11991D02*
X14511Y11991D01*
X15589Y11991D02*
X22753Y11991D01*
X24647Y11991D02*
X29475Y11991D01*
X0525Y12040D02*
X12411Y12040D01*
X13489Y12040D02*
X14511Y12040D01*
X15589Y12040D02*
X22775Y12040D01*
X24625Y12040D02*
X29475Y12040D01*
X0525Y12090D02*
X12411Y12090D01*
X13489Y12090D02*
X14511Y12090D01*
X15589Y12090D02*
X22813Y12090D01*
X24587Y12090D02*
X29475Y12090D01*
X0525Y12140D02*
X12411Y12140D01*
X13489Y12140D02*
X14511Y12140D01*
X15589Y12140D02*
X22851Y12140D01*
X24549Y12140D02*
X29475Y12140D01*
X0525Y12189D02*
X12411Y12189D01*
X13489Y12189D02*
X14511Y12189D01*
X15589Y12189D02*
X22889Y12189D01*
X24511Y12189D02*
X29475Y12189D01*
X0525Y12239D02*
X12411Y12239D01*
X13489Y12239D02*
X14511Y12239D01*
X15589Y12239D02*
X22927Y12239D01*
X24473Y12239D02*
X29475Y12239D01*
X0525Y12288D02*
X12411Y12288D01*
X13489Y12288D02*
X14511Y12288D01*
X15589Y12288D02*
X22981Y12288D01*
X24419Y12288D02*
X29475Y12288D01*
X0525Y12338D02*
X12411Y12338D01*
X13489Y12338D02*
X14511Y12338D01*
X15589Y12338D02*
X23045Y12338D01*
X24355Y12338D02*
X29475Y12338D01*
X0525Y12387D02*
X23110Y12387D01*
X24290Y12387D02*
X29475Y12387D01*
X0525Y12437D02*
X23183Y12437D01*
X24217Y12437D02*
X29475Y12437D01*
X0525Y12486D02*
X23224Y12486D01*
X24176Y12486D02*
X29475Y12486D01*
X0525Y12536D02*
X23224Y12536D01*
X24176Y12536D02*
X29475Y12536D01*
X0525Y12585D02*
X23146Y12585D01*
X24254Y12585D02*
X29475Y12585D01*
X0525Y12635D02*
X23081Y12635D01*
X24319Y12635D02*
X29475Y12635D01*
X0525Y12684D02*
X12411Y12684D01*
X12886Y12684D02*
X13014Y12684D01*
X13489Y12684D02*
X14511Y12684D01*
X15589Y12684D02*
X23016Y12684D01*
X24384Y12684D02*
X29475Y12684D01*
X0525Y12734D02*
X12411Y12734D01*
X12886Y12734D02*
X13014Y12734D01*
X13489Y12734D02*
X14511Y12734D01*
X15589Y12734D02*
X22952Y12734D01*
X24448Y12734D02*
X29475Y12734D01*
X0525Y12783D02*
X12411Y12783D01*
X12886Y12783D02*
X13014Y12783D01*
X13489Y12783D02*
X14511Y12783D01*
X15589Y12783D02*
X22910Y12783D01*
X24490Y12783D02*
X29475Y12783D01*
X0525Y12833D02*
X12411Y12833D01*
X12886Y12833D02*
X13014Y12833D01*
X13489Y12833D02*
X14511Y12833D01*
X15589Y12833D02*
X22872Y12833D01*
X24528Y12833D02*
X29475Y12833D01*
X0525Y12882D02*
X12411Y12882D01*
X12886Y12882D02*
X13014Y12882D01*
X13489Y12882D02*
X14511Y12882D01*
X15589Y12882D02*
X22834Y12882D01*
X24566Y12882D02*
X29475Y12882D01*
X0525Y12932D02*
X12411Y12932D01*
X12886Y12932D02*
X13014Y12932D01*
X13489Y12932D02*
X14511Y12932D01*
X15589Y12932D02*
X22796Y12932D01*
X24604Y12932D02*
X29475Y12932D01*
X0525Y12982D02*
X12411Y12982D01*
X12886Y12982D02*
X13014Y12982D01*
X13489Y12982D02*
X14511Y12982D01*
X15589Y12982D02*
X22764Y12982D01*
X24636Y12982D02*
X29475Y12982D01*
X0525Y13031D02*
X12411Y13031D01*
X12886Y13031D02*
X13014Y13031D01*
X13489Y13031D02*
X14511Y13031D01*
X15589Y13031D02*
X17136Y13031D01*
X18864Y13031D02*
X22743Y13031D01*
X24657Y13031D02*
X29475Y13031D01*
X0525Y13081D02*
X12411Y13081D01*
X12886Y13081D02*
X13014Y13081D01*
X13489Y13081D02*
X14511Y13081D01*
X24677Y13081D02*
X29475Y13081D01*
X0525Y13130D02*
X12411Y13130D01*
X12886Y13130D02*
X13014Y13130D01*
X13489Y13130D02*
X14511Y13130D01*
X24698Y13130D02*
X29475Y13130D01*
X0525Y13180D02*
X12411Y13180D01*
X12886Y13180D02*
X13014Y13180D01*
X13489Y13180D02*
X14511Y13180D01*
X24718Y13180D02*
X29475Y13180D01*
X0525Y13229D02*
X12411Y13229D01*
X12886Y13229D02*
X13014Y13229D01*
X13489Y13229D02*
X14511Y13229D01*
X24737Y13229D02*
X29475Y13229D01*
X0525Y13279D02*
X12411Y13279D01*
X12886Y13279D02*
X13014Y13279D01*
X13489Y13279D02*
X14511Y13279D01*
X24743Y13279D02*
X29475Y13279D01*
X0525Y13328D02*
X12411Y13328D01*
X12886Y13328D02*
X13014Y13328D01*
X13489Y13328D02*
X14511Y13328D01*
X24750Y13328D02*
X29475Y13328D01*
X0525Y13378D02*
X4612Y13378D01*
X4936Y13378D02*
X5064Y13378D01*
X5388Y13378D02*
X12411Y13378D01*
X12886Y13378D02*
X13014Y13378D01*
X13489Y13378D02*
X14511Y13378D01*
X24756Y13378D02*
X29475Y13378D01*
X0525Y13427D02*
X4449Y13427D01*
X4936Y13427D02*
X5064Y13427D01*
X5551Y13427D02*
X12417Y13427D01*
X12881Y13427D02*
X13019Y13427D01*
X13483Y13427D02*
X14511Y13427D01*
X24763Y13427D02*
X29475Y13427D01*
X0525Y13477D02*
X4311Y13477D01*
X4936Y13477D02*
X5064Y13477D01*
X5689Y13477D02*
X14511Y13477D01*
X24769Y13477D02*
X29475Y13477D01*
X0525Y13526D02*
X4219Y13526D01*
X4936Y13526D02*
X5064Y13526D01*
X5781Y13526D02*
X14511Y13526D01*
X24769Y13526D02*
X29475Y13526D01*
X0525Y13576D02*
X4126Y13576D01*
X4936Y13576D02*
X5064Y13576D01*
X5874Y13576D02*
X12414Y13576D01*
X12884Y13576D02*
X13016Y13576D01*
X13486Y13576D02*
X14511Y13576D01*
X24762Y13576D02*
X29475Y13576D01*
X0525Y13625D02*
X4039Y13625D01*
X4936Y13625D02*
X5064Y13625D01*
X5961Y13625D02*
X12411Y13625D01*
X12886Y13625D02*
X13014Y13625D01*
X13489Y13625D02*
X14511Y13625D01*
X24756Y13625D02*
X29475Y13625D01*
X0525Y13675D02*
X3979Y13675D01*
X4936Y13675D02*
X5064Y13675D01*
X6021Y13675D02*
X12411Y13675D01*
X12886Y13675D02*
X13014Y13675D01*
X13489Y13675D02*
X14511Y13675D01*
X24749Y13675D02*
X29475Y13675D01*
X0525Y13725D02*
X3918Y13725D01*
X4936Y13725D02*
X5064Y13725D01*
X6082Y13725D02*
X12411Y13725D01*
X12886Y13725D02*
X13014Y13725D01*
X13489Y13725D02*
X14511Y13725D01*
X24743Y13725D02*
X29475Y13725D01*
X0525Y13774D02*
X3858Y13774D01*
X4936Y13774D02*
X5064Y13774D01*
X6142Y13774D02*
X12411Y13774D01*
X12886Y13774D02*
X13014Y13774D01*
X13489Y13774D02*
X14511Y13774D01*
X24736Y13774D02*
X29475Y13774D01*
X0525Y13824D02*
X3797Y13824D01*
X4936Y13824D02*
X5064Y13824D01*
X6203Y13824D02*
X12411Y13824D01*
X12886Y13824D02*
X13014Y13824D01*
X13489Y13824D02*
X14511Y13824D01*
X24717Y13824D02*
X29475Y13824D01*
X0525Y13873D02*
X3754Y13873D01*
X4936Y13873D02*
X5064Y13873D01*
X6246Y13873D02*
X12411Y13873D01*
X12886Y13873D02*
X13014Y13873D01*
X13489Y13873D02*
X14511Y13873D01*
X24696Y13873D02*
X29475Y13873D01*
X0525Y13923D02*
X3714Y13923D01*
X4936Y13923D02*
X5064Y13923D01*
X6286Y13923D02*
X12411Y13923D01*
X12886Y13923D02*
X13014Y13923D01*
X13489Y13923D02*
X14511Y13923D01*
X24676Y13923D02*
X29475Y13923D01*
X0525Y13972D02*
X3673Y13972D01*
X4936Y13972D02*
X5064Y13972D01*
X6327Y13972D02*
X12411Y13972D01*
X12886Y13972D02*
X13014Y13972D01*
X13489Y13972D02*
X14511Y13972D01*
X15589Y13972D02*
X17136Y13972D01*
X18864Y13972D02*
X22745Y13972D01*
X24655Y13972D02*
X29475Y13972D01*
X0525Y14022D02*
X3632Y14022D01*
X4936Y14022D02*
X5064Y14022D01*
X6368Y14022D02*
X12411Y14022D01*
X12886Y14022D02*
X13014Y14022D01*
X13489Y14022D02*
X14511Y14022D01*
X15589Y14022D02*
X17136Y14022D01*
X18864Y14022D02*
X22765Y14022D01*
X24635Y14022D02*
X29475Y14022D01*
X0525Y14071D02*
X3592Y14071D01*
X4936Y14071D02*
X5064Y14071D01*
X6408Y14071D02*
X12411Y14071D01*
X12886Y14071D02*
X13014Y14071D01*
X13489Y14071D02*
X14511Y14071D01*
X15589Y14071D02*
X17136Y14071D01*
X18864Y14071D02*
X22798Y14071D01*
X24602Y14071D02*
X29475Y14071D01*
X0525Y14121D02*
X3560Y14121D01*
X4936Y14121D02*
X5064Y14121D01*
X6440Y14121D02*
X12411Y14121D01*
X12886Y14121D02*
X13014Y14121D01*
X13489Y14121D02*
X14511Y14121D01*
X15589Y14121D02*
X22836Y14121D01*
X24564Y14121D02*
X29475Y14121D01*
X0525Y14170D02*
X3534Y14170D01*
X4936Y14170D02*
X5064Y14170D01*
X6466Y14170D02*
X12411Y14170D01*
X12886Y14170D02*
X13014Y14170D01*
X13489Y14170D02*
X14511Y14170D01*
X15589Y14170D02*
X22874Y14170D01*
X24526Y14170D02*
X29475Y14170D01*
X0525Y14220D02*
X3507Y14220D01*
X4936Y14220D02*
X5064Y14220D01*
X6493Y14220D02*
X12411Y14220D01*
X12886Y14220D02*
X13014Y14220D01*
X13489Y14220D02*
X14511Y14220D01*
X15589Y14220D02*
X22912Y14220D01*
X24488Y14220D02*
X29475Y14220D01*
X0525Y14269D02*
X3481Y14269D01*
X4936Y14269D02*
X5064Y14269D01*
X6519Y14269D02*
X12411Y14269D01*
X12886Y14269D02*
X13014Y14269D01*
X13489Y14269D02*
X14511Y14269D01*
X15589Y14269D02*
X22956Y14269D01*
X24444Y14269D02*
X29475Y14269D01*
X0525Y14319D02*
X3454Y14319D01*
X4936Y14319D02*
X5064Y14319D01*
X6546Y14319D02*
X12411Y14319D01*
X12886Y14319D02*
X13014Y14319D01*
X13489Y14319D02*
X14511Y14319D01*
X15589Y14319D02*
X23021Y14319D01*
X24379Y14319D02*
X29475Y14319D01*
X0525Y14368D02*
X3428Y14368D01*
X4936Y14368D02*
X5064Y14368D01*
X6572Y14368D02*
X23085Y14368D01*
X24315Y14368D02*
X29475Y14368D01*
X0525Y14418D02*
X3409Y14418D01*
X4936Y14418D02*
X5064Y14418D01*
X6591Y14418D02*
X23150Y14418D01*
X24250Y14418D02*
X29475Y14418D01*
X0525Y14467D02*
X3394Y14467D01*
X4936Y14467D02*
X5064Y14467D01*
X6606Y14467D02*
X23257Y14467D01*
X24143Y14467D02*
X29475Y14467D01*
X0525Y14517D02*
X3379Y14517D01*
X4936Y14517D02*
X5064Y14517D01*
X6621Y14517D02*
X23377Y14517D01*
X24023Y14517D02*
X29475Y14517D01*
X0525Y14567D02*
X3364Y14567D01*
X4936Y14567D02*
X5064Y14567D01*
X6636Y14567D02*
X23656Y14567D01*
X23744Y14567D02*
X29475Y14567D01*
X0525Y14616D02*
X3349Y14616D01*
X4936Y14616D02*
X5064Y14616D01*
X6651Y14616D02*
X29475Y14616D01*
X0525Y14666D02*
X3334Y14666D01*
X4936Y14666D02*
X5064Y14666D01*
X6666Y14666D02*
X29475Y14666D01*
X0525Y14715D02*
X3321Y14715D01*
X4936Y14715D02*
X5064Y14715D01*
X6679Y14715D02*
X29475Y14715D01*
X0525Y14765D02*
X3316Y14765D01*
X4936Y14765D02*
X5064Y14765D01*
X6684Y14765D02*
X29475Y14765D01*
X0525Y14814D02*
X3311Y14814D01*
X4936Y14814D02*
X5064Y14814D01*
X6689Y14814D02*
X29475Y14814D01*
X0525Y14864D02*
X3306Y14864D01*
X4936Y14864D02*
X5064Y14864D01*
X6694Y14864D02*
X29475Y14864D01*
X0525Y14913D02*
X3301Y14913D01*
X4936Y14913D02*
X5064Y14913D01*
X6699Y14913D02*
X29475Y14913D01*
X0525Y14963D02*
X3299Y14963D01*
X4935Y14963D02*
X5065Y14963D01*
X6701Y14963D02*
X29475Y14963D01*
X0525Y15012D02*
X23403Y15012D01*
X23637Y15012D02*
X23764Y15012D01*
X23997Y15012D02*
X29475Y15012D01*
X0525Y15062D02*
X23283Y15062D01*
X23637Y15062D02*
X23764Y15062D01*
X24117Y15062D02*
X29475Y15062D01*
X0525Y15111D02*
X3304Y15111D01*
X4929Y15111D02*
X5071Y15111D01*
X6696Y15111D02*
X23164Y15111D01*
X23637Y15111D02*
X23764Y15111D01*
X24236Y15111D02*
X29475Y15111D01*
X0525Y15161D02*
X3300Y15161D01*
X4936Y15161D02*
X5064Y15161D01*
X6700Y15161D02*
X23099Y15161D01*
X23637Y15161D02*
X23764Y15161D01*
X24301Y15161D02*
X29475Y15161D01*
X0525Y15210D02*
X3305Y15210D01*
X4936Y15210D02*
X5064Y15210D01*
X6695Y15210D02*
X23035Y15210D01*
X23637Y15210D02*
X23764Y15210D01*
X24365Y15210D02*
X29475Y15210D01*
X0525Y15260D02*
X3310Y15260D01*
X4936Y15260D02*
X5064Y15260D01*
X6690Y15260D02*
X22970Y15260D01*
X23637Y15260D02*
X23764Y15260D01*
X24430Y15260D02*
X29475Y15260D01*
X0525Y15309D02*
X3315Y15309D01*
X4936Y15309D02*
X5064Y15309D01*
X6685Y15309D02*
X22920Y15309D01*
X23637Y15309D02*
X23764Y15309D01*
X24480Y15309D02*
X29475Y15309D01*
X0525Y15359D02*
X3320Y15359D01*
X4936Y15359D02*
X5064Y15359D01*
X6680Y15359D02*
X22882Y15359D01*
X23637Y15359D02*
X23764Y15359D01*
X24518Y15359D02*
X29475Y15359D01*
X0525Y15409D02*
X3332Y15409D01*
X4936Y15409D02*
X5064Y15409D01*
X6668Y15409D02*
X22844Y15409D01*
X23637Y15409D02*
X23764Y15409D01*
X24556Y15409D02*
X29475Y15409D01*
X0525Y15458D02*
X3347Y15458D01*
X4936Y15458D02*
X5064Y15458D01*
X6653Y15458D02*
X22806Y15458D01*
X23637Y15458D02*
X23764Y15458D01*
X24594Y15458D02*
X29475Y15458D01*
X0525Y15508D02*
X3362Y15508D01*
X4936Y15508D02*
X5064Y15508D01*
X6638Y15508D02*
X22770Y15508D01*
X23637Y15508D02*
X23764Y15508D01*
X24630Y15508D02*
X29475Y15508D01*
X0525Y15557D02*
X3377Y15557D01*
X4936Y15557D02*
X5064Y15557D01*
X6623Y15557D02*
X22749Y15557D01*
X23637Y15557D02*
X23764Y15557D01*
X24651Y15557D02*
X29475Y15557D01*
X0525Y15607D02*
X3392Y15607D01*
X4936Y15607D02*
X5064Y15607D01*
X6608Y15607D02*
X22729Y15607D01*
X23637Y15607D02*
X23764Y15607D01*
X24671Y15607D02*
X29475Y15607D01*
X0525Y15656D02*
X3407Y15656D01*
X4936Y15656D02*
X5064Y15656D01*
X6593Y15656D02*
X22708Y15656D01*
X23637Y15656D02*
X23764Y15656D01*
X24692Y15656D02*
X29475Y15656D01*
X0525Y15706D02*
X3425Y15706D01*
X4936Y15706D02*
X5064Y15706D01*
X6575Y15706D02*
X22688Y15706D01*
X23637Y15706D02*
X23764Y15706D01*
X24712Y15706D02*
X29475Y15706D01*
X0525Y15755D02*
X3451Y15755D01*
X4936Y15755D02*
X5064Y15755D01*
X6549Y15755D02*
X22667Y15755D01*
X23637Y15755D02*
X23764Y15755D01*
X24733Y15755D02*
X29475Y15755D01*
X0525Y15805D02*
X3478Y15805D01*
X4936Y15805D02*
X5064Y15805D01*
X6522Y15805D02*
X22659Y15805D01*
X23637Y15805D02*
X23764Y15805D01*
X24741Y15805D02*
X29475Y15805D01*
X0525Y15854D02*
X3504Y15854D01*
X4936Y15854D02*
X5064Y15854D01*
X6496Y15854D02*
X22652Y15854D01*
X23637Y15854D02*
X23764Y15854D01*
X24748Y15854D02*
X29475Y15854D01*
X0525Y15904D02*
X3530Y15904D01*
X4936Y15904D02*
X5064Y15904D01*
X6470Y15904D02*
X22646Y15904D01*
X23637Y15904D02*
X23764Y15904D01*
X24754Y15904D02*
X29475Y15904D01*
X0525Y15953D02*
X3557Y15953D01*
X4936Y15953D02*
X5064Y15953D01*
X6443Y15953D02*
X22639Y15953D01*
X23637Y15953D02*
X23764Y15953D01*
X24761Y15953D02*
X29475Y15953D01*
X0525Y16003D02*
X3587Y16003D01*
X4936Y16003D02*
X5064Y16003D01*
X6413Y16003D02*
X29475Y16003D01*
X0525Y16052D02*
X3628Y16052D01*
X4936Y16052D02*
X5064Y16052D01*
X6372Y16052D02*
X29475Y16052D01*
X0525Y16102D02*
X3668Y16102D01*
X4936Y16102D02*
X5064Y16102D01*
X6332Y16102D02*
X29475Y16102D01*
X0525Y16151D02*
X3709Y16151D01*
X4936Y16151D02*
X5064Y16151D01*
X6291Y16151D02*
X22642Y16151D01*
X23637Y16151D02*
X23764Y16151D01*
X24758Y16151D02*
X29475Y16151D01*
X0525Y16201D02*
X3749Y16201D01*
X4936Y16201D02*
X5064Y16201D01*
X6251Y16201D02*
X22649Y16201D01*
X23637Y16201D02*
X23764Y16201D01*
X24751Y16201D02*
X29475Y16201D01*
X0525Y16251D02*
X3790Y16251D01*
X4936Y16251D02*
X5064Y16251D01*
X6210Y16251D02*
X22655Y16251D01*
X23637Y16251D02*
X23764Y16251D01*
X24745Y16251D02*
X29475Y16251D01*
X0525Y16300D02*
X3851Y16300D01*
X4936Y16300D02*
X5064Y16300D01*
X6149Y16300D02*
X22662Y16300D01*
X23637Y16300D02*
X23764Y16300D01*
X24738Y16300D02*
X29475Y16300D01*
X0525Y16350D02*
X3911Y16350D01*
X4936Y16350D02*
X5064Y16350D01*
X6089Y16350D02*
X22677Y16350D01*
X23637Y16350D02*
X23764Y16350D01*
X24723Y16350D02*
X29475Y16350D01*
X0525Y16399D02*
X3971Y16399D01*
X4936Y16399D02*
X5064Y16399D01*
X6029Y16399D02*
X22698Y16399D01*
X23637Y16399D02*
X23764Y16399D01*
X24702Y16399D02*
X29475Y16399D01*
X0525Y16449D02*
X4032Y16449D01*
X4936Y16449D02*
X5064Y16449D01*
X5968Y16449D02*
X22718Y16449D01*
X23637Y16449D02*
X23764Y16449D01*
X24682Y16449D02*
X29475Y16449D01*
X0525Y16498D02*
X4115Y16498D01*
X4936Y16498D02*
X5064Y16498D01*
X5885Y16498D02*
X22739Y16498D01*
X23637Y16498D02*
X23764Y16498D01*
X24661Y16498D02*
X29475Y16498D01*
X0525Y16548D02*
X4208Y16548D01*
X4936Y16548D02*
X5064Y16548D01*
X5792Y16548D02*
X22760Y16548D01*
X23637Y16548D02*
X23764Y16548D01*
X24640Y16548D02*
X29475Y16548D01*
X0525Y16597D02*
X4300Y16597D01*
X4936Y16597D02*
X5064Y16597D01*
X5700Y16597D02*
X22787Y16597D01*
X23637Y16597D02*
X23764Y16597D01*
X24613Y16597D02*
X29475Y16597D01*
X0525Y16647D02*
X4429Y16647D01*
X4936Y16647D02*
X5064Y16647D01*
X5571Y16647D02*
X14542Y16647D01*
X14937Y16647D02*
X15063Y16647D01*
X15458Y16647D02*
X22825Y16647D01*
X23637Y16647D02*
X23764Y16647D01*
X24575Y16647D02*
X29475Y16647D01*
X0525Y16696D02*
X4593Y16696D01*
X4936Y16696D02*
X5064Y16696D01*
X5407Y16696D02*
X14293Y16696D01*
X14937Y16696D02*
X15063Y16696D01*
X15707Y16696D02*
X22863Y16696D01*
X23637Y16696D02*
X23764Y16696D01*
X24537Y16696D02*
X29475Y16696D01*
X0525Y16746D02*
X14077Y16746D01*
X14937Y16746D02*
X15063Y16746D01*
X15923Y16746D02*
X22901Y16746D01*
X23637Y16746D02*
X23764Y16746D01*
X24499Y16746D02*
X29475Y16746D01*
X0525Y16795D02*
X13931Y16795D01*
X14937Y16795D02*
X15063Y16795D01*
X16069Y16795D02*
X22939Y16795D01*
X23637Y16795D02*
X23764Y16795D01*
X24461Y16795D02*
X29475Y16795D01*
X0525Y16845D02*
X13785Y16845D01*
X14937Y16845D02*
X15063Y16845D01*
X16215Y16845D02*
X23002Y16845D01*
X23637Y16845D02*
X23764Y16845D01*
X24398Y16845D02*
X29475Y16845D01*
X0525Y16894D02*
X13659Y16894D01*
X14937Y16894D02*
X15063Y16894D01*
X16341Y16894D02*
X23067Y16894D01*
X23637Y16894D02*
X23764Y16894D01*
X24333Y16894D02*
X29475Y16894D01*
X0525Y16944D02*
X13559Y16944D01*
X14937Y16944D02*
X15063Y16944D01*
X16441Y16944D02*
X23132Y16944D01*
X23637Y16944D02*
X23764Y16944D01*
X24268Y16944D02*
X29475Y16944D01*
X0525Y16993D02*
X13459Y16993D01*
X14937Y16993D02*
X15063Y16993D01*
X16541Y16993D02*
X23224Y16993D01*
X23637Y16993D02*
X23764Y16993D01*
X24176Y16993D02*
X29475Y16993D01*
X0525Y17043D02*
X13358Y17043D01*
X14937Y17043D02*
X15063Y17043D01*
X16642Y17043D02*
X23343Y17043D01*
X23637Y17043D02*
X23764Y17043D01*
X24057Y17043D02*
X29475Y17043D01*
X0525Y17093D02*
X13271Y17093D01*
X14937Y17093D02*
X15063Y17093D01*
X16729Y17093D02*
X23549Y17093D01*
X23630Y17093D02*
X23770Y17093D01*
X23851Y17093D02*
X29475Y17093D01*
X0525Y17142D02*
X13197Y17142D01*
X14937Y17142D02*
X15063Y17142D01*
X16803Y17142D02*
X29475Y17142D01*
X0525Y17192D02*
X13122Y17192D01*
X14937Y17192D02*
X15063Y17192D01*
X16878Y17192D02*
X29475Y17192D01*
X0525Y17241D02*
X13048Y17241D01*
X14937Y17241D02*
X15063Y17241D01*
X16952Y17241D02*
X29475Y17241D01*
X0525Y17291D02*
X12974Y17291D01*
X14937Y17291D02*
X15063Y17291D01*
X17026Y17291D02*
X29475Y17291D01*
X0525Y17340D02*
X12909Y17340D01*
X14937Y17340D02*
X15063Y17340D01*
X17091Y17340D02*
X29475Y17340D01*
X0525Y17390D02*
X12853Y17390D01*
X14937Y17390D02*
X15063Y17390D01*
X17147Y17390D02*
X26041Y17390D01*
X26346Y17390D02*
X26474Y17390D01*
X26779Y17390D02*
X29475Y17390D01*
X0525Y17439D02*
X12796Y17439D01*
X14937Y17439D02*
X15063Y17439D01*
X17204Y17439D02*
X25878Y17439D01*
X26346Y17439D02*
X26474Y17439D01*
X26942Y17439D02*
X29475Y17439D01*
X0525Y17489D02*
X12740Y17489D01*
X14937Y17489D02*
X15063Y17489D01*
X17260Y17489D02*
X25724Y17489D01*
X26346Y17489D02*
X26474Y17489D01*
X27096Y17489D02*
X29475Y17489D01*
X0525Y17538D02*
X12683Y17538D01*
X14937Y17538D02*
X15063Y17538D01*
X17317Y17538D02*
X25631Y17538D01*
X26346Y17538D02*
X26474Y17538D01*
X27189Y17538D02*
X29475Y17538D01*
X0525Y17588D02*
X12627Y17588D01*
X14937Y17588D02*
X15063Y17588D01*
X17373Y17588D02*
X25539Y17588D01*
X26346Y17588D02*
X26474Y17588D01*
X27281Y17588D02*
X29475Y17588D01*
X0525Y17637D02*
X12579Y17637D01*
X14937Y17637D02*
X15063Y17637D01*
X17421Y17637D02*
X25446Y17637D01*
X26346Y17637D02*
X26474Y17637D01*
X27374Y17637D02*
X29475Y17637D01*
X0525Y17687D02*
X12535Y17687D01*
X14937Y17687D02*
X15063Y17687D01*
X17465Y17687D02*
X25380Y17687D01*
X26346Y17687D02*
X26474Y17687D01*
X27440Y17687D02*
X29475Y17687D01*
X0525Y17736D02*
X12492Y17736D01*
X14937Y17736D02*
X15063Y17736D01*
X17508Y17736D02*
X25320Y17736D01*
X26346Y17736D02*
X26474Y17736D01*
X27500Y17736D02*
X29475Y17736D01*
X0525Y17786D02*
X12448Y17786D01*
X14937Y17786D02*
X15063Y17786D01*
X17552Y17786D02*
X25260Y17786D01*
X26346Y17786D02*
X26474Y17786D01*
X27560Y17786D02*
X29475Y17786D01*
X0525Y17835D02*
X12405Y17835D01*
X14937Y17835D02*
X15063Y17835D01*
X17595Y17835D02*
X25199Y17835D01*
X26346Y17835D02*
X26474Y17835D01*
X27621Y17835D02*
X29475Y17835D01*
X0525Y17885D02*
X12362Y17885D01*
X14937Y17885D02*
X15063Y17885D01*
X17638Y17885D02*
X25147Y17885D01*
X26346Y17885D02*
X26474Y17885D01*
X27673Y17885D02*
X29475Y17885D01*
X0525Y17935D02*
X12318Y17935D01*
X14937Y17935D02*
X15063Y17935D01*
X17682Y17935D02*
X25107Y17935D01*
X26346Y17935D02*
X26474Y17935D01*
X27713Y17935D02*
X29475Y17935D01*
X0525Y17984D02*
X12284Y17984D01*
X14937Y17984D02*
X15063Y17984D01*
X17716Y17984D02*
X25066Y17984D01*
X26346Y17984D02*
X26474Y17984D01*
X27754Y17984D02*
X29475Y17984D01*
X0525Y18034D02*
X12251Y18034D01*
X14937Y18034D02*
X15063Y18034D01*
X17749Y18034D02*
X25025Y18034D01*
X26346Y18034D02*
X26474Y18034D01*
X27795Y18034D02*
X29475Y18034D01*
X0525Y18083D02*
X12218Y18083D01*
X14937Y18083D02*
X15063Y18083D01*
X17782Y18083D02*
X24985Y18083D01*
X26346Y18083D02*
X26474Y18083D01*
X27835Y18083D02*
X29475Y18083D01*
X0525Y18133D02*
X12185Y18133D01*
X14937Y18133D02*
X15063Y18133D01*
X17815Y18133D02*
X24944Y18133D01*
X26346Y18133D02*
X26474Y18133D01*
X27876Y18133D02*
X29475Y18133D01*
X0525Y18182D02*
X12152Y18182D01*
X14937Y18182D02*
X15063Y18182D01*
X17848Y18182D02*
X24918Y18182D01*
X26346Y18182D02*
X26474Y18182D01*
X27902Y18182D02*
X29475Y18182D01*
X0525Y18232D02*
X12119Y18232D01*
X14937Y18232D02*
X15063Y18232D01*
X17881Y18232D02*
X24892Y18232D01*
X26346Y18232D02*
X26474Y18232D01*
X27928Y18232D02*
X29475Y18232D01*
X0525Y18281D02*
X12085Y18281D01*
X14937Y18281D02*
X15063Y18281D01*
X17915Y18281D02*
X24865Y18281D01*
X26346Y18281D02*
X26474Y18281D01*
X27955Y18281D02*
X29475Y18281D01*
X0525Y18331D02*
X12057Y18331D01*
X14937Y18331D02*
X15063Y18331D01*
X17943Y18331D02*
X24839Y18331D01*
X26346Y18331D02*
X26474Y18331D01*
X27981Y18331D02*
X29475Y18331D01*
X0525Y18380D02*
X12032Y18380D01*
X14937Y18380D02*
X15063Y18380D01*
X17968Y18380D02*
X24812Y18380D01*
X26346Y18380D02*
X26474Y18380D01*
X28008Y18380D02*
X29475Y18380D01*
X0525Y18430D02*
X4784Y18430D01*
X5216Y18430D02*
X12008Y18430D01*
X14937Y18430D02*
X15063Y18430D01*
X17992Y18430D02*
X24786Y18430D01*
X26346Y18430D02*
X26474Y18430D01*
X28034Y18430D02*
X29475Y18430D01*
X0525Y18479D02*
X4541Y18479D01*
X5459Y18479D02*
X11983Y18479D01*
X14937Y18479D02*
X15063Y18479D01*
X18017Y18479D02*
X24769Y18479D01*
X26346Y18479D02*
X26474Y18479D01*
X28051Y18479D02*
X29475Y18479D01*
X0525Y18529D02*
X4378Y18529D01*
X5622Y18529D02*
X11959Y18529D01*
X14937Y18529D02*
X15063Y18529D01*
X18041Y18529D02*
X24754Y18529D01*
X26346Y18529D02*
X26474Y18529D01*
X28066Y18529D02*
X29475Y18529D01*
X0525Y18578D02*
X4271Y18578D01*
X5729Y18578D02*
X11934Y18578D01*
X14937Y18578D02*
X15063Y18578D01*
X18066Y18578D02*
X24739Y18578D01*
X26346Y18578D02*
X26474Y18578D01*
X28081Y18578D02*
X29475Y18578D01*
X0525Y18628D02*
X4178Y18628D01*
X5822Y18628D02*
X11910Y18628D01*
X14937Y18628D02*
X15063Y18628D01*
X18090Y18628D02*
X24724Y18628D01*
X26346Y18628D02*
X26474Y18628D01*
X28096Y18628D02*
X29475Y18628D01*
X0525Y18678D02*
X4086Y18678D01*
X5914Y18678D02*
X11886Y18678D01*
X14937Y18678D02*
X15063Y18678D01*
X18114Y18678D02*
X24709Y18678D01*
X26346Y18678D02*
X26474Y18678D01*
X28111Y18678D02*
X29475Y18678D01*
X0525Y18727D02*
X4013Y18727D01*
X5987Y18727D02*
X11865Y18727D01*
X14937Y18727D02*
X15063Y18727D01*
X18135Y18727D02*
X24694Y18727D01*
X26346Y18727D02*
X26474Y18727D01*
X28126Y18727D02*
X29475Y18727D01*
X0525Y18777D02*
X3952Y18777D01*
X6048Y18777D02*
X11848Y18777D01*
X14937Y18777D02*
X15063Y18777D01*
X18152Y18777D02*
X24681Y18777D01*
X26346Y18777D02*
X26474Y18777D01*
X28139Y18777D02*
X29475Y18777D01*
X0525Y18826D02*
X3892Y18826D01*
X6108Y18826D02*
X11831Y18826D01*
X14937Y18826D02*
X15063Y18826D01*
X18169Y18826D02*
X24676Y18826D01*
X26346Y18826D02*
X26474Y18826D01*
X28144Y18826D02*
X29475Y18826D01*
X0525Y18876D02*
X3832Y18876D01*
X6168Y18876D02*
X11814Y18876D01*
X14937Y18876D02*
X15063Y18876D01*
X18186Y18876D02*
X24671Y18876D01*
X26346Y18876D02*
X26474Y18876D01*
X28149Y18876D02*
X29475Y18876D01*
X0525Y18925D02*
X3777Y18925D01*
X6223Y18925D02*
X11797Y18925D01*
X14937Y18925D02*
X15063Y18925D01*
X18203Y18925D02*
X24667Y18925D01*
X26346Y18925D02*
X26474Y18925D01*
X28153Y18925D02*
X29475Y18925D01*
X0525Y18975D02*
X3737Y18975D01*
X6263Y18975D02*
X11781Y18975D01*
X14937Y18975D02*
X15063Y18975D01*
X18219Y18975D02*
X24662Y18975D01*
X26346Y18975D02*
X26474Y18975D01*
X28158Y18975D02*
X29475Y18975D01*
X0525Y19024D02*
X3696Y19024D01*
X6304Y19024D02*
X11764Y19024D01*
X14937Y19024D02*
X15063Y19024D01*
X18236Y19024D02*
X24657Y19024D01*
X26346Y19024D02*
X26474Y19024D01*
X28163Y19024D02*
X29475Y19024D01*
X0525Y19074D02*
X3655Y19074D01*
X6345Y19074D02*
X11747Y19074D01*
X14937Y19074D02*
X15063Y19074D01*
X18253Y19074D02*
X29475Y19074D01*
X0525Y19123D02*
X3615Y19123D01*
X6385Y19123D02*
X11730Y19123D01*
X14937Y19123D02*
X15063Y19123D01*
X18270Y19123D02*
X29475Y19123D01*
X0525Y19173D02*
X3575Y19173D01*
X6425Y19173D02*
X11720Y19173D01*
X14937Y19173D02*
X15063Y19173D01*
X18280Y19173D02*
X29475Y19173D01*
X0525Y19222D02*
X3549Y19222D01*
X6451Y19222D02*
X11710Y19222D01*
X14937Y19222D02*
X15063Y19222D01*
X18290Y19222D02*
X24659Y19222D01*
X26346Y19222D02*
X26474Y19222D01*
X28161Y19222D02*
X29475Y19222D01*
X0525Y19272D02*
X3522Y19272D01*
X6478Y19272D02*
X11700Y19272D01*
X14937Y19272D02*
X15063Y19272D01*
X18300Y19272D02*
X24664Y19272D01*
X26346Y19272D02*
X26474Y19272D01*
X28156Y19272D02*
X29475Y19272D01*
X0525Y19321D02*
X3496Y19321D01*
X6504Y19321D02*
X11691Y19321D01*
X14937Y19321D02*
X15063Y19321D01*
X18309Y19321D02*
X24669Y19321D01*
X26346Y19321D02*
X26474Y19321D01*
X28151Y19321D02*
X29475Y19321D01*
X0525Y19371D02*
X3469Y19371D01*
X6531Y19371D02*
X11681Y19371D01*
X14937Y19371D02*
X15063Y19371D01*
X18319Y19371D02*
X24674Y19371D01*
X26346Y19371D02*
X26474Y19371D01*
X28146Y19371D02*
X29475Y19371D01*
X0525Y19420D02*
X3443Y19420D01*
X6557Y19420D02*
X11671Y19420D01*
X14937Y19420D02*
X15063Y19420D01*
X18329Y19420D02*
X24679Y19420D01*
X26346Y19420D02*
X26474Y19420D01*
X28141Y19420D02*
X29475Y19420D01*
X0525Y19470D02*
X3417Y19470D01*
X6583Y19470D02*
X11661Y19470D01*
X14937Y19470D02*
X15063Y19470D01*
X18339Y19470D02*
X24687Y19470D01*
X26346Y19470D02*
X26474Y19470D01*
X28133Y19470D02*
X29475Y19470D01*
X0525Y19520D02*
X3402Y19520D01*
X6598Y19520D02*
X11651Y19520D01*
X14937Y19520D02*
X15063Y19520D01*
X18349Y19520D02*
X24702Y19520D01*
X26346Y19520D02*
X26474Y19520D01*
X28118Y19520D02*
X29475Y19520D01*
X0525Y19569D02*
X3387Y19569D01*
X6613Y19569D02*
X11643Y19569D01*
X14937Y19569D02*
X15063Y19569D01*
X18357Y19569D02*
X24717Y19569D01*
X26346Y19569D02*
X26474Y19569D01*
X28103Y19569D02*
X29475Y19569D01*
X0525Y19619D02*
X3372Y19619D01*
X6628Y19619D02*
X11640Y19619D01*
X14937Y19619D02*
X15063Y19619D01*
X18360Y19619D02*
X24732Y19619D01*
X26346Y19619D02*
X26474Y19619D01*
X28088Y19619D02*
X29475Y19619D01*
X0525Y19668D02*
X3357Y19668D01*
X6643Y19668D02*
X11636Y19668D01*
X14937Y19668D02*
X15063Y19668D01*
X18364Y19668D02*
X24747Y19668D01*
X26346Y19668D02*
X26474Y19668D01*
X28073Y19668D02*
X29475Y19668D01*
X0525Y19718D02*
X3342Y19718D01*
X6658Y19718D02*
X11633Y19718D01*
X14937Y19718D02*
X15063Y19718D01*
X18367Y19718D02*
X24762Y19718D01*
X26346Y19718D02*
X26474Y19718D01*
X28058Y19718D02*
X29475Y19718D01*
X0525Y19767D02*
X3327Y19767D01*
X6673Y19767D02*
X11630Y19767D01*
X14937Y19767D02*
X15063Y19767D01*
X18370Y19767D02*
X24777Y19767D01*
X26346Y19767D02*
X26474Y19767D01*
X28043Y19767D02*
X29475Y19767D01*
X0525Y19817D02*
X3318Y19817D01*
X6682Y19817D02*
X11627Y19817D01*
X14937Y19817D02*
X15063Y19817D01*
X18373Y19817D02*
X24800Y19817D01*
X26346Y19817D02*
X26474Y19817D01*
X28020Y19817D02*
X29475Y19817D01*
X0525Y19866D02*
X3314Y19866D01*
X6686Y19866D02*
X11623Y19866D01*
X14937Y19866D02*
X15063Y19866D01*
X18377Y19866D02*
X24826Y19866D01*
X26346Y19866D02*
X26474Y19866D01*
X27994Y19866D02*
X29475Y19866D01*
X0525Y19916D02*
X3309Y19916D01*
X6691Y19916D02*
X11620Y19916D01*
X14937Y19916D02*
X15063Y19916D01*
X18380Y19916D02*
X24853Y19916D01*
X26346Y19916D02*
X26474Y19916D01*
X27967Y19916D02*
X29475Y19916D01*
X0525Y19965D02*
X3304Y19965D01*
X6696Y19965D02*
X24879Y19965D01*
X26346Y19965D02*
X26474Y19965D01*
X27941Y19965D02*
X29475Y19965D01*
X0525Y20015D02*
X3299Y20015D01*
X6701Y20015D02*
X24906Y20015D01*
X26346Y20015D02*
X26474Y20015D01*
X27914Y20015D02*
X29475Y20015D01*
X0525Y20064D02*
X3294Y20064D01*
X6706Y20064D02*
X11634Y20064D01*
X14922Y20064D02*
X15078Y20064D01*
X18366Y20064D02*
X24932Y20064D01*
X26346Y20064D02*
X26474Y20064D01*
X27888Y20064D02*
X29475Y20064D01*
X0525Y20114D02*
X3289Y20114D01*
X6711Y20114D02*
X11622Y20114D01*
X14937Y20114D02*
X15063Y20114D01*
X18378Y20114D02*
X24966Y20114D01*
X26346Y20114D02*
X26474Y20114D01*
X27854Y20114D02*
X29475Y20114D01*
X0525Y20163D02*
X3293Y20163D01*
X6707Y20163D02*
X11625Y20163D01*
X14937Y20163D02*
X15063Y20163D01*
X18375Y20163D02*
X25006Y20163D01*
X26346Y20163D02*
X26474Y20163D01*
X27814Y20163D02*
X29475Y20163D01*
X0525Y20213D02*
X3298Y20213D01*
X6702Y20213D02*
X11629Y20213D01*
X14937Y20213D02*
X15063Y20213D01*
X18371Y20213D02*
X25047Y20213D01*
X26346Y20213D02*
X26474Y20213D01*
X27773Y20213D02*
X29475Y20213D01*
X0525Y20262D02*
X3303Y20262D01*
X6697Y20262D02*
X11632Y20262D01*
X14937Y20262D02*
X15063Y20262D01*
X18368Y20262D02*
X25088Y20262D01*
X26346Y20262D02*
X26474Y20262D01*
X27732Y20262D02*
X29475Y20262D01*
X0525Y20312D02*
X3307Y20312D01*
X6693Y20312D02*
X11635Y20312D01*
X14937Y20312D02*
X15063Y20312D01*
X18365Y20312D02*
X25128Y20312D01*
X26346Y20312D02*
X26474Y20312D01*
X27692Y20312D02*
X29475Y20312D01*
X0525Y20362D02*
X3312Y20362D01*
X6688Y20362D02*
X11638Y20362D01*
X14937Y20362D02*
X15063Y20362D01*
X18362Y20362D02*
X25171Y20362D01*
X26346Y20362D02*
X26474Y20362D01*
X27649Y20362D02*
X29475Y20362D01*
X0525Y20411D02*
X3317Y20411D01*
X6683Y20411D02*
X11641Y20411D01*
X14937Y20411D02*
X15063Y20411D01*
X18359Y20411D02*
X25232Y20411D01*
X26346Y20411D02*
X26474Y20411D01*
X27588Y20411D02*
X29475Y20411D01*
X0525Y20461D02*
X3323Y20461D01*
X6677Y20461D02*
X11647Y20461D01*
X14937Y20461D02*
X15063Y20461D01*
X18353Y20461D02*
X25292Y20461D01*
X26346Y20461D02*
X26474Y20461D01*
X27528Y20461D02*
X29475Y20461D01*
X0525Y20510D02*
X3339Y20510D01*
X6661Y20510D02*
X11657Y20510D01*
X14937Y20510D02*
X15063Y20510D01*
X18343Y20510D02*
X25352Y20510D01*
X26346Y20510D02*
X26474Y20510D01*
X27468Y20510D02*
X29475Y20510D01*
X0525Y20560D02*
X3354Y20560D01*
X6646Y20560D02*
X11667Y20560D01*
X14937Y20560D02*
X15063Y20560D01*
X18333Y20560D02*
X25413Y20560D01*
X26346Y20560D02*
X26474Y20560D01*
X27407Y20560D02*
X29475Y20560D01*
X0525Y20609D02*
X3369Y20609D01*
X6631Y20609D02*
X11677Y20609D01*
X14937Y20609D02*
X15063Y20609D01*
X18323Y20609D02*
X25496Y20609D01*
X26346Y20609D02*
X26474Y20609D01*
X27324Y20609D02*
X29475Y20609D01*
X0525Y20659D02*
X3384Y20659D01*
X6616Y20659D02*
X11687Y20659D01*
X14937Y20659D02*
X15063Y20659D01*
X18313Y20659D02*
X25588Y20659D01*
X26346Y20659D02*
X26474Y20659D01*
X27232Y20659D02*
X29475Y20659D01*
X0525Y20708D02*
X3399Y20708D01*
X6601Y20708D02*
X11696Y20708D01*
X14937Y20708D02*
X15063Y20708D01*
X18304Y20708D02*
X25681Y20708D01*
X26346Y20708D02*
X26474Y20708D01*
X27139Y20708D02*
X29475Y20708D01*
X0525Y20758D02*
X3414Y20758D01*
X6586Y20758D02*
X11706Y20758D01*
X14937Y20758D02*
X15063Y20758D01*
X18294Y20758D02*
X25802Y20758D01*
X26346Y20758D02*
X26474Y20758D01*
X27018Y20758D02*
X29475Y20758D01*
X0525Y20807D02*
X3436Y20807D01*
X6564Y20807D02*
X11716Y20807D01*
X14937Y20807D02*
X15063Y20807D01*
X18284Y20807D02*
X25966Y20807D01*
X26346Y20807D02*
X26474Y20807D01*
X26854Y20807D02*
X29475Y20807D01*
X0525Y20857D02*
X3463Y20857D01*
X6537Y20857D02*
X11726Y20857D01*
X14937Y20857D02*
X15063Y20857D01*
X18274Y20857D02*
X26259Y20857D01*
X26337Y20857D02*
X26483Y20857D01*
X26561Y20857D02*
X29475Y20857D01*
X0525Y20906D02*
X3489Y20906D01*
X6511Y20906D02*
X11740Y20906D01*
X14937Y20906D02*
X15063Y20906D01*
X18260Y20906D02*
X29475Y20906D01*
X0525Y20956D02*
X3516Y20956D01*
X6484Y20956D02*
X11757Y20956D01*
X14937Y20956D02*
X15063Y20956D01*
X18243Y20956D02*
X29475Y20956D01*
X0525Y21005D02*
X3542Y21005D01*
X6458Y21005D02*
X11774Y21005D01*
X14937Y21005D02*
X15063Y21005D01*
X18226Y21005D02*
X29475Y21005D01*
X0525Y21055D02*
X3569Y21055D01*
X6431Y21055D02*
X11791Y21055D01*
X14937Y21055D02*
X15063Y21055D01*
X18209Y21055D02*
X29475Y21055D01*
X0525Y21104D02*
X3605Y21104D01*
X6395Y21104D02*
X11807Y21104D01*
X14937Y21104D02*
X15063Y21104D01*
X18193Y21104D02*
X29475Y21104D01*
X0525Y21154D02*
X3645Y21154D01*
X6355Y21154D02*
X11824Y21154D01*
X14937Y21154D02*
X15063Y21154D01*
X18176Y21154D02*
X29475Y21154D01*
X0525Y21204D02*
X3686Y21204D01*
X6314Y21204D02*
X11841Y21204D01*
X14937Y21204D02*
X15063Y21204D01*
X18159Y21204D02*
X29475Y21204D01*
X0525Y21253D02*
X3727Y21253D01*
X6273Y21253D02*
X11858Y21253D01*
X14937Y21253D02*
X15063Y21253D01*
X18142Y21253D02*
X29475Y21253D01*
X0525Y21303D02*
X3767Y21303D01*
X6233Y21303D02*
X11876Y21303D01*
X14937Y21303D02*
X15063Y21303D01*
X18124Y21303D02*
X29475Y21303D01*
X0525Y21352D02*
X3817Y21352D01*
X6183Y21352D02*
X11900Y21352D01*
X14937Y21352D02*
X15063Y21352D01*
X18100Y21352D02*
X29475Y21352D01*
X0525Y21402D02*
X3877Y21402D01*
X6123Y21402D02*
X11925Y21402D01*
X14937Y21402D02*
X15063Y21402D01*
X18075Y21402D02*
X29475Y21402D01*
X0525Y21451D02*
X3937Y21451D01*
X6063Y21451D02*
X11949Y21451D01*
X14937Y21451D02*
X15063Y21451D01*
X18051Y21451D02*
X29475Y21451D01*
X0525Y21501D02*
X3998Y21501D01*
X6002Y21501D02*
X11973Y21501D01*
X14937Y21501D02*
X15063Y21501D01*
X18027Y21501D02*
X29475Y21501D01*
X0525Y21550D02*
X4063Y21550D01*
X5937Y21550D02*
X11998Y21550D01*
X14937Y21550D02*
X15063Y21550D01*
X18002Y21550D02*
X29475Y21550D01*
X0525Y21600D02*
X4155Y21600D01*
X5845Y21600D02*
X12022Y21600D01*
X14937Y21600D02*
X15063Y21600D01*
X17978Y21600D02*
X29475Y21600D01*
X0525Y21649D02*
X4248Y21649D01*
X5752Y21649D02*
X12047Y21649D01*
X14937Y21649D02*
X15063Y21649D01*
X17953Y21649D02*
X29475Y21649D01*
X0525Y21699D02*
X4341Y21699D01*
X5659Y21699D02*
X12072Y21699D01*
X14937Y21699D02*
X15063Y21699D01*
X17928Y21699D02*
X29475Y21699D01*
X0525Y21748D02*
X4501Y21748D01*
X5499Y21748D02*
X12105Y21748D01*
X14937Y21748D02*
X15063Y21748D01*
X17895Y21748D02*
X29475Y21748D01*
X0525Y21798D02*
X4664Y21798D01*
X5336Y21798D02*
X12138Y21798D01*
X14937Y21798D02*
X15063Y21798D01*
X17862Y21798D02*
X29475Y21798D01*
X0525Y21847D02*
X12171Y21847D01*
X14937Y21847D02*
X15063Y21847D01*
X17829Y21847D02*
X29475Y21847D01*
X0525Y21897D02*
X12205Y21897D01*
X14937Y21897D02*
X15063Y21897D01*
X17795Y21897D02*
X29475Y21897D01*
X0525Y21946D02*
X12238Y21946D01*
X14937Y21946D02*
X15063Y21946D01*
X17762Y21946D02*
X29475Y21946D01*
X0525Y21996D02*
X12271Y21996D01*
X14937Y21996D02*
X15063Y21996D01*
X17729Y21996D02*
X29475Y21996D01*
X0525Y22046D02*
X12304Y22046D01*
X14937Y22046D02*
X15063Y22046D01*
X17696Y22046D02*
X29475Y22046D01*
X0525Y22095D02*
X12344Y22095D01*
X14937Y22095D02*
X15063Y22095D01*
X17656Y22095D02*
X29475Y22095D01*
X0525Y22145D02*
X12388Y22145D01*
X14937Y22145D02*
X15063Y22145D01*
X17612Y22145D02*
X29475Y22145D01*
X0525Y22194D02*
X12431Y22194D01*
X14937Y22194D02*
X15063Y22194D01*
X17569Y22194D02*
X29475Y22194D01*
X0525Y22244D02*
X12474Y22244D01*
X14937Y22244D02*
X15063Y22244D01*
X17526Y22244D02*
X29475Y22244D01*
X0525Y22293D02*
X12518Y22293D01*
X14937Y22293D02*
X15063Y22293D01*
X17482Y22293D02*
X29475Y22293D01*
X0525Y22343D02*
X12561Y22343D01*
X14937Y22343D02*
X15063Y22343D01*
X17439Y22343D02*
X29475Y22343D01*
X0525Y22392D02*
X12605Y22392D01*
X14937Y22392D02*
X15063Y22392D01*
X17395Y22392D02*
X29475Y22392D01*
X0525Y22442D02*
X12661Y22442D01*
X14937Y22442D02*
X15063Y22442D01*
X17339Y22442D02*
X29475Y22442D01*
X0525Y22491D02*
X12717Y22491D01*
X14937Y22491D02*
X15063Y22491D01*
X17283Y22491D02*
X29475Y22491D01*
X0525Y22541D02*
X12774Y22541D01*
X14937Y22541D02*
X15063Y22541D01*
X17226Y22541D02*
X29475Y22541D01*
X0525Y22590D02*
X12830Y22590D01*
X14937Y22590D02*
X15063Y22590D01*
X17170Y22590D02*
X29475Y22590D01*
X0525Y22640D02*
X12887Y22640D01*
X14937Y22640D02*
X15063Y22640D01*
X17113Y22640D02*
X29475Y22640D01*
X0525Y22689D02*
X12944Y22689D01*
X14937Y22689D02*
X15063Y22689D01*
X17056Y22689D02*
X29475Y22689D01*
X0525Y22739D02*
X13019Y22739D01*
X14937Y22739D02*
X15063Y22739D01*
X16981Y22739D02*
X29475Y22739D01*
X0525Y22788D02*
X13093Y22788D01*
X14937Y22788D02*
X15063Y22788D01*
X16907Y22788D02*
X29475Y22788D01*
X0525Y22838D02*
X13167Y22838D01*
X14937Y22838D02*
X15063Y22838D01*
X16833Y22838D02*
X29475Y22838D01*
X0525Y22888D02*
X13241Y22888D01*
X14937Y22888D02*
X15063Y22888D01*
X16759Y22888D02*
X29475Y22888D01*
X0525Y22937D02*
X13318Y22937D01*
X14937Y22937D02*
X15063Y22937D01*
X16682Y22937D02*
X29475Y22937D01*
X0525Y22987D02*
X13418Y22987D01*
X14937Y22987D02*
X15063Y22987D01*
X16582Y22987D02*
X29475Y22987D01*
X0525Y23036D02*
X13519Y23036D01*
X14937Y23036D02*
X15063Y23036D01*
X16481Y23036D02*
X29475Y23036D01*
X0525Y23086D02*
X13619Y23086D01*
X14937Y23086D02*
X15063Y23086D01*
X16381Y23086D02*
X29475Y23086D01*
X0525Y23135D02*
X13726Y23135D01*
X14937Y23135D02*
X15063Y23135D01*
X16274Y23135D02*
X29475Y23135D01*
X0525Y23185D02*
X13872Y23185D01*
X14937Y23185D02*
X15063Y23185D01*
X16128Y23185D02*
X29475Y23185D01*
X0525Y23234D02*
X14018Y23234D01*
X14937Y23234D02*
X15063Y23234D01*
X15982Y23234D02*
X29475Y23234D01*
X0525Y23284D02*
X14193Y23284D01*
X14937Y23284D02*
X15063Y23284D01*
X15807Y23284D02*
X29475Y23284D01*
X0525Y23333D02*
X14442Y23333D01*
X14937Y23333D02*
X15063Y23333D01*
X15558Y23333D02*
X29475Y23333D01*
X0525Y23383D02*
X29475Y23383D01*
X0525Y23432D02*
X29475Y23432D01*
X0525Y23482D02*
X29475Y23482D01*
X0525Y23531D02*
X29475Y23531D01*
X0525Y23581D02*
X29475Y23581D01*
X0525Y23631D02*
X29475Y23631D01*
X0525Y23680D02*
X29475Y23680D01*
X0525Y23730D02*
X29475Y23730D01*
X0525Y23779D02*
X29475Y23779D01*
X0525Y23829D02*
X29475Y23829D01*
X0525Y23878D02*
X29475Y23878D01*
X0525Y23928D02*
X29475Y23928D01*
X0525Y23977D02*
X29475Y23977D01*
X0525Y24027D02*
X29475Y24027D01*
X0525Y24076D02*
X29475Y24076D01*
X0525Y24126D02*
X29475Y24126D01*
X0525Y24175D02*
X29475Y24175D01*
X0525Y24225D02*
X29475Y24225D01*
X0525Y24274D02*
X29475Y24274D01*
X0525Y24324D02*
X29475Y24324D01*
X0525Y24373D02*
X29475Y24373D01*
X0525Y24423D02*
X29475Y24423D01*
X0525Y24473D02*
X29475Y24473D01*
X23233Y10543D02*
X23233Y10543D01*
X23165Y10571*
X23162Y10572*
X22943Y10741*
X22941Y10743*
X22772Y10962*
X22771Y10965*
X22742Y11034*
X20828Y11034*
X20782Y10949*
X21111Y10457*
X23215Y10457*
X23233Y10543*
X21095Y10481D02*
X23220Y10481D01*
X21062Y10530D02*
X23230Y10530D01*
X21028Y10580D02*
X23153Y10580D01*
X20995Y10629D02*
X23088Y10629D01*
X20962Y10679D02*
X23024Y10679D01*
X20929Y10728D02*
X22959Y10728D01*
X20896Y10778D02*
X22914Y10778D01*
X20863Y10828D02*
X22876Y10828D01*
X20830Y10877D02*
X22838Y10877D01*
X20797Y10927D02*
X22800Y10927D01*
X20797Y10976D02*
X22766Y10976D01*
X20823Y11026D02*
X22746Y11026D01*
%LNpour fill*%
X11982Y7519D02*
X11982Y7519D01*
X11994Y7525*
X12715Y7525*
X13297Y7948*
X13299Y7949*
X13947Y8238*
X13949Y8238*
X14643Y8386*
X14645Y8386*
X15355Y8386*
X15357Y8386*
X16051Y8238*
X16053Y8238*
X16701Y7949*
X16703Y7948*
X17285Y7525*
X24975Y7525*
X24975Y10225*
X20994Y10225*
X20982Y10231*
X20459Y11016*
X18869Y11016*
X18847Y10980*
X18846Y10979*
X18823Y10953*
X18822Y10952*
X18796Y10929*
X18795Y10928*
X18765Y10911*
X18764Y10910*
X18732Y10897*
X18730Y10896*
X18697Y10888*
X18695Y10888*
X18662Y10885*
X18661Y10885*
X17339Y10885*
X17338Y10885*
X17305Y10888*
X17303Y10888*
X17270Y10896*
X17268Y10897*
X17236Y10910*
X17235Y10911*
X17205Y10928*
X17204Y10929*
X17178Y10952*
X17177Y10953*
X17154Y10979*
X17153Y10980*
X17131Y11016*
X15615Y11016*
X15615Y10839*
X15615Y10838*
X15612Y10805*
X15612Y10803*
X15604Y10770*
X15603Y10768*
X15590Y10736*
X15589Y10735*
X15572Y10705*
X15571Y10704*
X15548Y10678*
X15547Y10677*
X15521Y10654*
X15520Y10653*
X15490Y10636*
X15489Y10635*
X15457Y10622*
X15455Y10621*
X15422Y10613*
X15420Y10613*
X15387Y10610*
X15386Y10610*
X14714Y10610*
X14713Y10610*
X14680Y10613*
X14678Y10613*
X14645Y10621*
X14643Y10622*
X14611Y10635*
X14610Y10636*
X14580Y10653*
X14579Y10654*
X14553Y10677*
X14552Y10678*
X14529Y10704*
X14528Y10705*
X14511Y10735*
X14510Y10736*
X14497Y10768*
X14496Y10770*
X14488Y10803*
X14488Y10805*
X14485Y10838*
X14485Y10839*
X14485Y11725*
X13515Y11725*
X13515Y11591*
X13500Y11576*
X13260Y11576*
X13260Y11424*
X13500Y11424*
X13515Y11409*
X13515Y10839*
X13515Y10838*
X13512Y10805*
X13512Y10803*
X13504Y10770*
X13503Y10768*
X13490Y10736*
X13489Y10735*
X13472Y10705*
X13471Y10704*
X13448Y10678*
X13447Y10677*
X13421Y10654*
X13420Y10653*
X13390Y10636*
X13389Y10635*
X13357Y10622*
X13355Y10621*
X13322Y10613*
X13320Y10613*
X13287Y10610*
X13286Y10610*
X13041Y10610*
X13026Y10625*
X13026Y10865*
X12874Y10865*
X12874Y10625*
X12859Y10610*
X12614Y10610*
X12613Y10610*
X12580Y10613*
X12578Y10613*
X12545Y10621*
X12543Y10622*
X12511Y10635*
X12510Y10636*
X12480Y10653*
X12479Y10654*
X12453Y10677*
X12452Y10678*
X12429Y10704*
X12428Y10705*
X12411Y10735*
X12410Y10736*
X12397Y10768*
X12396Y10770*
X12388Y10803*
X12388Y10805*
X12385Y10838*
X12385Y10839*
X12385Y11409*
X12400Y11424*
X12640Y11424*
X12640Y11576*
X12400Y11576*
X12385Y11591*
X12385Y11725*
X12011Y11725*
X8015Y7479*
X8005Y7475*
X3025Y7475*
X3025Y3025*
X8986Y3025*
X11982Y7519*
X23624Y7885D02*
X23624Y7885D01*
X23624Y8125*
X23776Y8125*
X23776Y7885*
X23791Y7870*
X24561Y7870*
X24562Y7870*
X24595Y7873*
X24597Y7873*
X24630Y7881*
X24632Y7882*
X24663Y7895*
X24665Y7896*
X24694Y7914*
X24696Y7915*
X24722Y7937*
X24723Y7938*
X24745Y7964*
X24746Y7966*
X24764Y7995*
X24765Y7997*
X24778Y8028*
X24779Y8030*
X24787Y8063*
X24787Y8065*
X24790Y8099*
X24790Y8100*
X24790Y8869*
X24775Y8884*
X24535Y8884*
X24535Y9036*
X24775Y9036*
X24790Y9051*
X24790Y9820*
X24790Y9821*
X24787Y9855*
X24787Y9857*
X24779Y9890*
X24778Y9892*
X24765Y9923*
X24764Y9925*
X24746Y9954*
X24745Y9956*
X24723Y9982*
X24722Y9983*
X24696Y10005*
X24694Y10006*
X24665Y10024*
X24663Y10025*
X24632Y10038*
X24630Y10039*
X24597Y10047*
X24595Y10047*
X24561Y10050*
X24560Y10050*
X23791Y10050*
X23776Y10035*
X23776Y9795*
X23624Y9795*
X23624Y10035*
X23609Y10050*
X22840Y10050*
X22839Y10050*
X22805Y10047*
X22803Y10047*
X22770Y10039*
X22768Y10038*
X22737Y10025*
X22735Y10024*
X22706Y10006*
X22704Y10005*
X22678Y9983*
X22677Y9982*
X22655Y9956*
X22654Y9954*
X22636Y9925*
X22635Y9923*
X22622Y9892*
X22621Y9890*
X22613Y9857*
X22613Y9855*
X22610Y9822*
X22610Y9821*
X22610Y9051*
X22625Y9036*
X22865Y9036*
X22865Y8884*
X22625Y8884*
X22610Y8869*
X22610Y8099*
X22610Y8098*
X22613Y8065*
X22613Y8063*
X22621Y8030*
X22622Y8028*
X22635Y7997*
X22636Y7995*
X22654Y7966*
X22655Y7964*
X22677Y7938*
X22678Y7937*
X22704Y7915*
X22706Y7914*
X22735Y7896*
X22737Y7895*
X22768Y7882*
X22770Y7881*
X22803Y7873*
X22805Y7873*
X22838Y7870*
X22839Y7870*
X23609Y7870*
X23624Y7885*
X5383Y3193D02*
X5383Y3193D01*
X5386Y3194*
X5749Y3321*
X5752Y3322*
X6077Y3527*
X6080Y3529*
X6351Y3800*
X6353Y3803*
X6558Y4128*
X6559Y4131*
X6686Y4494*
X6687Y4497*
X6705Y4663*
X6690Y4680*
X6475Y4680*
X6475Y5080*
X6690Y5080*
X6705Y5097*
X6687Y5263*
X6686Y5266*
X6559Y5629*
X6558Y5632*
X6353Y5957*
X6351Y5960*
X6080Y6231*
X6077Y6233*
X5752Y6438*
X5749Y6439*
X5386Y6566*
X5383Y6567*
X5217Y6585*
X5200Y6570*
X5200Y6355*
X4800Y6355*
X4800Y6570*
X4783Y6585*
X4617Y6567*
X4614Y6566*
X4251Y6439*
X4248Y6438*
X3923Y6233*
X3920Y6231*
X3649Y5960*
X3647Y5957*
X3442Y5632*
X3441Y5629*
X3314Y5266*
X3313Y5263*
X3295Y5097*
X3310Y5080*
X3525Y5080*
X3525Y4680*
X3310Y4680*
X3295Y4663*
X3313Y4497*
X3314Y4494*
X3441Y4131*
X3442Y4128*
X3647Y3803*
X3649Y3800*
X3920Y3529*
X3923Y3527*
X4248Y3322*
X4251Y3321*
X4614Y3194*
X4617Y3193*
X4783Y3175*
X4800Y3190*
X4800Y3405*
X5200Y3405*
X5200Y3190*
X5217Y3175*
X5383Y3193*
X3025Y3050D02*
X9002Y3050D01*
X3025Y3099D02*
X9036Y3099D01*
X3025Y3149D02*
X9069Y3149D01*
X3025Y3198D02*
X4602Y3198D01*
X4800Y3198D02*
X5200Y3198D01*
X5398Y3198D02*
X9102Y3198D01*
X3025Y3248D02*
X4461Y3248D01*
X4800Y3248D02*
X5200Y3248D01*
X5539Y3248D02*
X9135Y3248D01*
X3025Y3297D02*
X4319Y3297D01*
X4800Y3297D02*
X5200Y3297D01*
X5681Y3297D02*
X9168Y3297D01*
X3025Y3347D02*
X4209Y3347D01*
X4800Y3347D02*
X5200Y3347D01*
X5791Y3347D02*
X9201Y3347D01*
X3025Y3396D02*
X4131Y3396D01*
X4800Y3396D02*
X5200Y3396D01*
X5869Y3396D02*
X9234Y3396D01*
X3025Y3446D02*
X4052Y3446D01*
X5948Y3446D02*
X9267Y3446D01*
X3025Y3495D02*
X3973Y3495D01*
X6027Y3495D02*
X9300Y3495D01*
X3025Y3545D02*
X3904Y3545D01*
X6096Y3545D02*
X9333Y3545D01*
X3025Y3594D02*
X3855Y3594D01*
X6145Y3594D02*
X9366Y3594D01*
X3025Y3644D02*
X3805Y3644D01*
X6195Y3644D02*
X9399Y3644D01*
X3025Y3693D02*
X3756Y3693D01*
X6244Y3693D02*
X9432Y3693D01*
X3025Y3743D02*
X3706Y3743D01*
X6294Y3743D02*
X9465Y3743D01*
X3025Y3792D02*
X3657Y3792D01*
X6343Y3792D02*
X9498Y3792D01*
X3025Y3842D02*
X3622Y3842D01*
X6378Y3842D02*
X9531Y3842D01*
X3025Y3892D02*
X3591Y3892D01*
X6409Y3892D02*
X9564Y3892D01*
X3025Y3941D02*
X3560Y3941D01*
X6440Y3941D02*
X9597Y3941D01*
X3025Y3991D02*
X3529Y3991D01*
X6471Y3991D02*
X9630Y3991D01*
X3025Y4040D02*
X3498Y4040D01*
X6502Y4040D02*
X9663Y4040D01*
X3025Y4090D02*
X3467Y4090D01*
X6533Y4090D02*
X9696Y4090D01*
X3025Y4139D02*
X3438Y4139D01*
X6562Y4139D02*
X9729Y4139D01*
X3025Y4189D02*
X3421Y4189D01*
X6579Y4189D02*
X9762Y4189D01*
X3025Y4238D02*
X3403Y4238D01*
X6597Y4238D02*
X9795Y4238D01*
X3025Y4288D02*
X3386Y4288D01*
X6614Y4288D02*
X9828Y4288D01*
X3025Y4337D02*
X3369Y4337D01*
X6631Y4337D02*
X9861Y4337D01*
X3025Y4387D02*
X3351Y4387D01*
X6649Y4387D02*
X9894Y4387D01*
X3025Y4436D02*
X3334Y4436D01*
X6666Y4436D02*
X9927Y4436D01*
X3025Y4486D02*
X3317Y4486D01*
X6683Y4486D02*
X9960Y4486D01*
X3025Y4535D02*
X3309Y4535D01*
X6691Y4535D02*
X9993Y4535D01*
X3025Y4585D02*
X3303Y4585D01*
X6697Y4585D02*
X10026Y4585D01*
X3025Y4634D02*
X3298Y4634D01*
X6702Y4634D02*
X10059Y4634D01*
X3025Y4684D02*
X3525Y4684D01*
X6475Y4684D02*
X10092Y4684D01*
X3025Y4734D02*
X3525Y4734D01*
X6475Y4734D02*
X10125Y4734D01*
X3025Y4783D02*
X3525Y4783D01*
X6475Y4783D02*
X10158Y4783D01*
X3025Y4833D02*
X3525Y4833D01*
X6475Y4833D02*
X10191Y4833D01*
X3025Y4882D02*
X3525Y4882D01*
X6475Y4882D02*
X10224Y4882D01*
X3025Y4932D02*
X3525Y4932D01*
X6475Y4932D02*
X10257Y4932D01*
X3025Y4981D02*
X3525Y4981D01*
X6475Y4981D02*
X10290Y4981D01*
X3025Y5031D02*
X3525Y5031D01*
X6475Y5031D02*
X10323Y5031D01*
X3025Y5080D02*
X3309Y5080D01*
X6691Y5080D02*
X10356Y5080D01*
X3025Y5130D02*
X3298Y5130D01*
X6702Y5130D02*
X10389Y5130D01*
X3025Y5179D02*
X3304Y5179D01*
X6696Y5179D02*
X10422Y5179D01*
X3025Y5229D02*
X3310Y5229D01*
X6690Y5229D02*
X10455Y5229D01*
X3025Y5278D02*
X3318Y5278D01*
X6682Y5278D02*
X10488Y5278D01*
X3025Y5328D02*
X3336Y5328D01*
X6664Y5328D02*
X10521Y5328D01*
X3025Y5377D02*
X3353Y5377D01*
X6647Y5377D02*
X10554Y5377D01*
X3025Y5427D02*
X3370Y5427D01*
X6630Y5427D02*
X10587Y5427D01*
X3025Y5476D02*
X3388Y5476D01*
X6612Y5476D02*
X10620Y5476D01*
X3025Y5526D02*
X3405Y5526D01*
X6595Y5526D02*
X10653Y5526D01*
X3025Y5576D02*
X3422Y5576D01*
X6578Y5576D02*
X10687Y5576D01*
X3025Y5625D02*
X3440Y5625D01*
X6560Y5625D02*
X10720Y5625D01*
X3025Y5675D02*
X3469Y5675D01*
X6531Y5675D02*
X10753Y5675D01*
X3025Y5724D02*
X3500Y5724D01*
X6500Y5724D02*
X10786Y5724D01*
X3025Y5774D02*
X3531Y5774D01*
X6469Y5774D02*
X10819Y5774D01*
X3025Y5823D02*
X3563Y5823D01*
X6437Y5823D02*
X10852Y5823D01*
X3025Y5873D02*
X3594Y5873D01*
X6406Y5873D02*
X10885Y5873D01*
X3025Y5922D02*
X3625Y5922D01*
X6375Y5922D02*
X10918Y5922D01*
X3025Y5972D02*
X3661Y5972D01*
X6339Y5972D02*
X10951Y5972D01*
X3025Y6021D02*
X3710Y6021D01*
X6290Y6021D02*
X10984Y6021D01*
X3025Y6071D02*
X3760Y6071D01*
X6240Y6071D02*
X11017Y6071D01*
X3025Y6120D02*
X3810Y6120D01*
X6190Y6120D02*
X11050Y6120D01*
X3025Y6170D02*
X3859Y6170D01*
X6141Y6170D02*
X11083Y6170D01*
X3025Y6219D02*
X3909Y6219D01*
X6091Y6219D02*
X11116Y6219D01*
X3025Y6269D02*
X3980Y6269D01*
X6020Y6269D02*
X11149Y6269D01*
X3025Y6319D02*
X4059Y6319D01*
X5941Y6319D02*
X11182Y6319D01*
X3025Y6368D02*
X4137Y6368D01*
X4800Y6368D02*
X5200Y6368D01*
X5863Y6368D02*
X11215Y6368D01*
X3025Y6418D02*
X4216Y6418D01*
X4800Y6418D02*
X5200Y6418D01*
X5784Y6418D02*
X11248Y6418D01*
X3025Y6467D02*
X4331Y6467D01*
X4800Y6467D02*
X5200Y6467D01*
X5669Y6467D02*
X11281Y6467D01*
X3025Y6517D02*
X4473Y6517D01*
X4800Y6517D02*
X5200Y6517D01*
X5527Y6517D02*
X11314Y6517D01*
X3025Y6566D02*
X4615Y6566D01*
X4800Y6566D02*
X5200Y6566D01*
X5385Y6566D02*
X11347Y6566D01*
X3025Y6616D02*
X11380Y6616D01*
X3025Y6665D02*
X11413Y6665D01*
X3025Y6715D02*
X11446Y6715D01*
X3025Y6764D02*
X11479Y6764D01*
X3025Y6814D02*
X11512Y6814D01*
X3025Y6863D02*
X11545Y6863D01*
X3025Y6913D02*
X11578Y6913D01*
X3025Y6962D02*
X11611Y6962D01*
X3025Y7012D02*
X11644Y7012D01*
X3025Y7061D02*
X11677Y7061D01*
X3025Y7111D02*
X11710Y7111D01*
X3025Y7161D02*
X11743Y7161D01*
X3025Y7210D02*
X11776Y7210D01*
X3025Y7260D02*
X11809Y7260D01*
X3025Y7309D02*
X11842Y7309D01*
X3025Y7359D02*
X11875Y7359D01*
X3025Y7408D02*
X11908Y7408D01*
X3025Y7458D02*
X11941Y7458D01*
X8042Y7507D02*
X11974Y7507D01*
X8088Y7557D02*
X12758Y7557D01*
X17242Y7557D02*
X24975Y7557D01*
X8135Y7606D02*
X12826Y7606D01*
X17174Y7606D02*
X24975Y7606D01*
X8182Y7656D02*
X12895Y7656D01*
X17105Y7656D02*
X24975Y7656D01*
X8228Y7705D02*
X12963Y7705D01*
X17037Y7705D02*
X24975Y7705D01*
X8275Y7755D02*
X13031Y7755D01*
X16969Y7755D02*
X24975Y7755D01*
X8321Y7804D02*
X13099Y7804D01*
X16901Y7804D02*
X24975Y7804D01*
X8368Y7854D02*
X13167Y7854D01*
X16833Y7854D02*
X24975Y7854D01*
X8415Y7903D02*
X13236Y7903D01*
X16764Y7903D02*
X22722Y7903D01*
X23624Y7903D02*
X23776Y7903D01*
X24678Y7903D02*
X24975Y7903D01*
X8461Y7953D02*
X13308Y7953D01*
X16692Y7953D02*
X22664Y7953D01*
X23624Y7953D02*
X23776Y7953D01*
X24736Y7953D02*
X24975Y7953D01*
X8508Y8003D02*
X13419Y8003D01*
X16581Y8003D02*
X22633Y8003D01*
X23624Y8003D02*
X23776Y8003D01*
X24767Y8003D02*
X24975Y8003D01*
X8554Y8052D02*
X13530Y8052D01*
X16470Y8052D02*
X22616Y8052D01*
X23624Y8052D02*
X23776Y8052D01*
X24784Y8052D02*
X24975Y8052D01*
X8601Y8102D02*
X13641Y8102D01*
X16359Y8102D02*
X22610Y8102D01*
X23624Y8102D02*
X23776Y8102D01*
X24790Y8102D02*
X24975Y8102D01*
X8648Y8151D02*
X13753Y8151D01*
X16247Y8151D02*
X22610Y8151D01*
X24790Y8151D02*
X24975Y8151D01*
X8694Y8201D02*
X13864Y8201D01*
X16136Y8201D02*
X22610Y8201D01*
X24790Y8201D02*
X24975Y8201D01*
X8741Y8250D02*
X14005Y8250D01*
X15995Y8250D02*
X22610Y8250D01*
X24790Y8250D02*
X24975Y8250D01*
X8788Y8300D02*
X14238Y8300D01*
X15762Y8300D02*
X22610Y8300D01*
X24790Y8300D02*
X24975Y8300D01*
X8834Y8349D02*
X14471Y8349D01*
X15529Y8349D02*
X22610Y8349D01*
X24790Y8349D02*
X24975Y8349D01*
X8881Y8399D02*
X22610Y8399D01*
X24790Y8399D02*
X24975Y8399D01*
X8927Y8448D02*
X22610Y8448D01*
X24790Y8448D02*
X24975Y8448D01*
X8974Y8498D02*
X22610Y8498D01*
X24790Y8498D02*
X24975Y8498D01*
X9021Y8547D02*
X22610Y8547D01*
X24790Y8547D02*
X24975Y8547D01*
X9067Y8597D02*
X22610Y8597D01*
X24790Y8597D02*
X24975Y8597D01*
X9114Y8646D02*
X22610Y8646D01*
X24790Y8646D02*
X24975Y8646D01*
X9160Y8696D02*
X22610Y8696D01*
X24790Y8696D02*
X24975Y8696D01*
X9207Y8745D02*
X22610Y8745D01*
X24790Y8745D02*
X24975Y8745D01*
X9254Y8795D02*
X22610Y8795D01*
X24790Y8795D02*
X24975Y8795D01*
X9300Y8845D02*
X22610Y8845D01*
X24790Y8845D02*
X24975Y8845D01*
X9347Y8894D02*
X22865Y8894D01*
X24535Y8894D02*
X24975Y8894D01*
X9394Y8944D02*
X22865Y8944D01*
X24535Y8944D02*
X24975Y8944D01*
X9440Y8993D02*
X22865Y8993D01*
X24535Y8993D02*
X24975Y8993D01*
X9487Y9043D02*
X22619Y9043D01*
X24781Y9043D02*
X24975Y9043D01*
X9533Y9092D02*
X22610Y9092D01*
X24790Y9092D02*
X24975Y9092D01*
X9580Y9142D02*
X22610Y9142D01*
X24790Y9142D02*
X24975Y9142D01*
X9627Y9191D02*
X22610Y9191D01*
X24790Y9191D02*
X24975Y9191D01*
X9673Y9241D02*
X22610Y9241D01*
X24790Y9241D02*
X24975Y9241D01*
X9720Y9290D02*
X22610Y9290D01*
X24790Y9290D02*
X24975Y9290D01*
X9766Y9340D02*
X22610Y9340D01*
X24790Y9340D02*
X24975Y9340D01*
X9813Y9389D02*
X22610Y9389D01*
X24790Y9389D02*
X24975Y9389D01*
X9860Y9439D02*
X22610Y9439D01*
X24790Y9439D02*
X24975Y9439D01*
X9906Y9488D02*
X22610Y9488D01*
X24790Y9488D02*
X24975Y9488D01*
X9953Y9538D02*
X22610Y9538D01*
X24790Y9538D02*
X24975Y9538D01*
X10000Y9587D02*
X22610Y9587D01*
X24790Y9587D02*
X24975Y9587D01*
X10046Y9637D02*
X22610Y9637D01*
X24790Y9637D02*
X24975Y9637D01*
X10093Y9687D02*
X22610Y9687D01*
X24790Y9687D02*
X24975Y9687D01*
X10139Y9736D02*
X22610Y9736D01*
X24790Y9736D02*
X24975Y9736D01*
X10186Y9786D02*
X22610Y9786D01*
X24790Y9786D02*
X24975Y9786D01*
X10233Y9835D02*
X22612Y9835D01*
X23624Y9835D02*
X23776Y9835D01*
X24788Y9835D02*
X24975Y9835D01*
X10279Y9885D02*
X22620Y9885D01*
X23624Y9885D02*
X23776Y9885D01*
X24780Y9885D02*
X24975Y9885D01*
X10326Y9934D02*
X22641Y9934D01*
X23624Y9934D02*
X23776Y9934D01*
X24759Y9934D02*
X24975Y9934D01*
X10373Y9984D02*
X22679Y9984D01*
X23624Y9984D02*
X23776Y9984D01*
X24721Y9984D02*
X24975Y9984D01*
X10419Y10033D02*
X22757Y10033D01*
X23624Y10033D02*
X23776Y10033D01*
X24643Y10033D02*
X24975Y10033D01*
X10466Y10083D02*
X24975Y10083D01*
X10512Y10132D02*
X24975Y10132D01*
X10559Y10182D02*
X24975Y10182D01*
X10606Y10231D02*
X20982Y10231D01*
X10652Y10281D02*
X20949Y10281D01*
X10699Y10330D02*
X20916Y10330D01*
X10745Y10380D02*
X20883Y10380D01*
X10792Y10430D02*
X20850Y10430D01*
X10839Y10479D02*
X20817Y10479D01*
X10885Y10529D02*
X20784Y10529D01*
X10932Y10578D02*
X20751Y10578D01*
X10979Y10628D02*
X12528Y10628D01*
X12874Y10628D02*
X13026Y10628D01*
X13372Y10628D02*
X14628Y10628D01*
X15472Y10628D02*
X20718Y10628D01*
X11025Y10677D02*
X12452Y10677D01*
X12874Y10677D02*
X13026Y10677D01*
X13448Y10677D02*
X14552Y10677D01*
X15548Y10677D02*
X20685Y10677D01*
X11072Y10727D02*
X12415Y10727D01*
X12874Y10727D02*
X13026Y10727D01*
X13485Y10727D02*
X14515Y10727D01*
X15585Y10727D02*
X20652Y10727D01*
X11118Y10776D02*
X12394Y10776D01*
X12874Y10776D02*
X13026Y10776D01*
X13506Y10776D02*
X14494Y10776D01*
X15606Y10776D02*
X20619Y10776D01*
X11165Y10826D02*
X12386Y10826D01*
X12874Y10826D02*
X13026Y10826D01*
X13514Y10826D02*
X14486Y10826D01*
X15614Y10826D02*
X20586Y10826D01*
X11212Y10875D02*
X12385Y10875D01*
X13515Y10875D02*
X14485Y10875D01*
X15615Y10875D02*
X20553Y10875D01*
X11258Y10925D02*
X12385Y10925D01*
X13515Y10925D02*
X14485Y10925D01*
X15615Y10925D02*
X17211Y10925D01*
X18789Y10925D02*
X20520Y10925D01*
X11305Y10974D02*
X12385Y10974D01*
X13515Y10974D02*
X14485Y10974D01*
X15615Y10974D02*
X17158Y10974D01*
X18842Y10974D02*
X20487Y10974D01*
X11351Y11024D02*
X12385Y11024D01*
X13515Y11024D02*
X14485Y11024D01*
X11398Y11073D02*
X12385Y11073D01*
X13515Y11073D02*
X14485Y11073D01*
X11445Y11123D02*
X12385Y11123D01*
X13515Y11123D02*
X14485Y11123D01*
X11491Y11172D02*
X12385Y11172D01*
X13515Y11172D02*
X14485Y11172D01*
X11538Y11222D02*
X12385Y11222D01*
X13515Y11222D02*
X14485Y11222D01*
X11585Y11272D02*
X12385Y11272D01*
X13515Y11272D02*
X14485Y11272D01*
X11631Y11321D02*
X12385Y11321D01*
X13515Y11321D02*
X14485Y11321D01*
X11678Y11371D02*
X12385Y11371D01*
X13515Y11371D02*
X14485Y11371D01*
X11724Y11420D02*
X12396Y11420D01*
X13504Y11420D02*
X14485Y11420D01*
X11771Y11470D02*
X12640Y11470D01*
X13260Y11470D02*
X14485Y11470D01*
X11818Y11519D02*
X12640Y11519D01*
X13260Y11519D02*
X14485Y11519D01*
X11864Y11569D02*
X12640Y11569D01*
X13260Y11569D02*
X14485Y11569D01*
X11911Y11618D02*
X12385Y11618D01*
X13515Y11618D02*
X14485Y11618D01*
X11957Y11668D02*
X12385Y11668D01*
X13515Y11668D02*
X14485Y11668D01*
X12004Y11717D02*
X12385Y11717D01*
X13515Y11717D02*
X14485Y11717D01*
%LNtop copper_traces*%
D11*
X15050Y13500D02*
X23700Y13500D01*
X15050Y11500D02*
X23700Y11500D01*
%LNtop copper component 2db072afead86070*%
D12*
X12950Y11500D03*
X15050Y11500D03*
%LNtop copper component f0fb2731934dc838*%
D13*
X5000Y20120D03*
X5000Y15040D03*
X5000Y9960D03*
X5000Y4880D03*
%LNtop copper component 8d7f5a6846472cc6*%
D14*
X15000Y5000D03*
%LNtop copper component 857abdc5204d4412*%
D15*
X15050Y13500D03*
X12950Y13500D03*
%LNtop copper component 9dea16fde81fcd95*%
D16*
X18000Y11450D03*
X18000Y13550D03*
%LNtop copper component 442748f89a67850a*%
D17*
X23700Y11500D03*
X23700Y13500D03*
X23700Y16040D03*
D18*
X26410Y19110D03*
X26410Y5890D03*
D19*
X23700Y8960D03*
%LNtop copper component f5205f3a868a2325*%
D14*
X15000Y20000D03*
M02*