%FSLAX33Y33*%
%MOMM*%
%ADD10C,0.15*%
%ADD11C,0.3*%
%ADD12C,0.2032*%
%ADD13C,1.016*%
D10*
%LNtop silkscreen_traces*%
%LNtop silkscreen component aa053b2b8b44c2a7*%
G01*
X5775Y1770D02*
X5775Y4070D01*
X18475Y4070*
X18475Y1770*
X5775Y1770*
X5775Y2920D02*
X4210Y2920D01*
X18475Y2920D02*
X20040Y2920D01*
D11*
X8950Y1840D02*
X8950Y4000D01*
D12*
X0984Y2460D02*
X0984Y2460D01*
X1037Y2468*
X1088Y2481*
X1135Y2499*
X1178Y2522*
X1216Y2550*
X1249Y2581*
X1276Y2617*
X1297Y2655*
X1313Y2695*
X1322Y2736*
X1325Y2778*
X1322Y2820*
X1314Y2859*
X1300Y2896*
X1280Y2931*
X1255Y2962*
X1223Y2991*
X1186Y3017*
X1142Y3040*
X1103Y3055*
X1050Y3072*
X0984Y3089*
X0904Y3108*
X0904Y3108*
X0826Y3128*
X0826Y3128*
X0764Y3147*
X0764Y3147*
X0719Y3166*
X0719Y3166*
X0690Y3185*
X0690Y3185*
X0672Y3205*
X0672Y3205*
X0659Y3228*
X0659Y3228*
X0651Y3253*
X0651Y3253*
X0648Y3281*
X0648Y3281*
X0652Y3313*
X0652Y3313*
X0663Y3343*
X0663Y3343*
X0681Y3370*
X0681Y3370*
X0707Y3395*
X0707Y3395*
X0741Y3416*
X0741Y3416*
X0784Y3430*
X0784Y3430*
X0835Y3439*
X0835Y3439*
X0895Y3442*
X0895Y3442*
X0954Y3439*
X0954Y3439*
X1004Y3429*
X1004Y3429*
X1047Y3413*
X1047Y3413*
X1083Y3390*
X1083Y3390*
X1111Y3361*
X1111Y3361*
X1133Y3326*
X1133Y3326*
X1149Y3284*
X1149Y3284*
X1157Y3237*
X1293Y3247*
X1288Y3292*
X1278Y3336*
X1262Y3377*
X1240Y3415*
X1213Y3450*
X1180Y3481*
X1143Y3507*
X1100Y3528*
X1053Y3545*
X1002Y3557*
X0947Y3564*
X0890Y3567*
X0837Y3564*
X0786Y3557*
X0738Y3546*
X0693Y3530*
X0651Y3510*
X0615Y3485*
X0584Y3456*
X0558Y3423*
X0538Y3387*
X0524Y3350*
X0515Y3311*
X0512Y3271*
X0514Y3235*
X0522Y3201*
X0533Y3168*
X0550Y3138*
X0571Y3109*
X0597Y3083*
X0628Y3059*
X0664Y3038*
X0699Y3022*
X0746Y3005*
X0803Y2988*
X0871Y2971*
X0939Y2954*
X0939Y2954*
X0993Y2940*
X0993Y2940*
X1034Y2928*
X1034Y2928*
X1063Y2919*
X1063Y2919*
X1094Y2905*
X1094Y2905*
X1121Y2890*
X1121Y2890*
X1142Y2873*
X1142Y2873*
X1159Y2855*
X1159Y2855*
X1172Y2835*
X1172Y2835*
X1182Y2814*
X1182Y2814*
X1187Y2791*
X1187Y2791*
X1189Y2767*
X1189Y2766*
X1187Y2742*
X1187Y2742*
X1181Y2718*
X1181Y2718*
X1172Y2696*
X1172Y2696*
X1158Y2674*
X1158Y2674*
X1141Y2654*
X1141Y2654*
X1120Y2637*
X1120Y2637*
X1095Y2621*
X1095Y2621*
X1066Y2608*
X1065Y2608*
X1033Y2597*
X1033Y2597*
X0998Y2590*
X0998Y2590*
X0961Y2585*
X0961Y2585*
X0922Y2584*
X0922Y2584*
X0877Y2586*
X0877Y2586*
X0835Y2592*
X0835Y2592*
X0795Y2602*
X0795Y2602*
X0757Y2616*
X0757Y2616*
X0723Y2633*
X0722Y2633*
X0693Y2652*
X0693Y2652*
X0668Y2675*
X0668Y2675*
X0649Y2699*
X0648Y2699*
X0633Y2727*
X0633Y2727*
X0620Y2758*
X0620Y2758*
X0610Y2793*
X0610Y2793*
X0604Y2831*
X0471Y2820*
X0476Y2768*
X0487Y2718*
X0505Y2671*
X0530Y2627*
X0561Y2587*
X0597Y2553*
X0638Y2524*
X0684Y2500*
X0736Y2481*
X0794Y2468*
X0858Y2460*
X0928Y2457*
X0984Y2460*
X1880Y2460D02*
X1880Y2460D01*
X1924Y2469*
X1966Y2483*
X2005Y2503*
X2041Y2529*
X2073Y2559*
X2101Y2595*
X2125Y2636*
X2144Y2680*
X2158Y2726*
X2166Y2774*
X2169Y2824*
X2163Y2897*
X2145Y2963*
X2117Y3022*
X2076Y3074*
X2027Y3117*
X1974Y3147*
X1915Y3165*
X1852Y3171*
X1815Y3169*
X1778Y3162*
X1743Y3151*
X1708Y3136*
X1675Y3116*
X1644Y3092*
X1617Y3062*
X1591Y3028*
X1591Y3028*
X1594Y3105*
X1594Y3105*
X1601Y3171*
X1601Y3171*
X1612Y3229*
X1612Y3229*
X1628Y3277*
X1628Y3277*
X1648Y3318*
X1648Y3318*
X1671Y3354*
X1671Y3354*
X1697Y3385*
X1697Y3385*
X1726Y3410*
X1726Y3410*
X1751Y3425*
X1751Y3425*
X1778Y3436*
X1778Y3436*
X1807Y3443*
X1807Y3443*
X1837Y3445*
X1837Y3445*
X1875Y3442*
X1875Y3442*
X1910Y3431*
X1910Y3431*
X1941Y3413*
X1941Y3413*
X1969Y3389*
X1970Y3389*
X1985Y3368*
X1985Y3368*
X1998Y3343*
X1998Y3343*
X2010Y3312*
X2010Y3312*
X2019Y3276*
X2149Y3286*
X2137Y3345*
X2117Y3397*
X2089Y3443*
X2053Y3482*
X2009Y3513*
X1960Y3535*
X1906Y3548*
X1845Y3553*
X1765Y3545*
X1693Y3522*
X1630Y3484*
X1575Y3430*
X1525Y3349*
X1489Y3246*
X1468Y3122*
X1461Y2977*
X1467Y2848*
X1487Y2739*
X1519Y2649*
X1565Y2578*
X1620Y2525*
X1684Y2487*
X1754Y2465*
X1833Y2457*
X1880Y2460*
X1612Y2823D02*
X1612Y2823D01*
X1614Y2789*
X1619Y2756*
X1628Y2724*
X1641Y2693*
X1657Y2663*
X1675Y2638*
X1697Y2616*
X1722Y2598*
X1748Y2583*
X1775Y2573*
X1802Y2567*
X1831Y2565*
X1871Y2569*
X1908Y2582*
X1943Y2603*
X1974Y2632*
X2001Y2669*
X2019Y2712*
X2031Y2761*
X2034Y2816*
X2031Y2868*
X2019Y2915*
X2001Y2956*
X1975Y2991*
X1943Y3019*
X1908Y3039*
X1869Y3051*
X1826Y3055*
X1783Y3051*
X1743Y3039*
X1707Y3019*
X1674Y2991*
X1647Y2956*
X1627Y2917*
X1616Y2872*
X1612Y2823*
%LNtop silkscreen component 36decfb3b589174a*%
D10*
X5775Y18145D02*
X5775Y20445D01*
X18475Y20445*
X18475Y18145*
X5775Y18145*
X5775Y19295D02*
X4210Y19295D01*
X18475Y19295D02*
X20040Y19295D01*
D11*
X8950Y18215D02*
X8950Y20375D01*
D12*
X1084Y18885D02*
X1084Y18885D01*
X1137Y18893*
X1188Y18906*
X1235Y18924*
X1278Y18947*
X1316Y18975*
X1349Y19006*
X1376Y19042*
X1397Y19080*
X1413Y19120*
X1422Y19161*
X1425Y19203*
X1422Y19245*
X1414Y19284*
X1400Y19321*
X1380Y19356*
X1355Y19387*
X1323Y19416*
X1286Y19442*
X1242Y19465*
X1203Y19480*
X1150Y19497*
X1084Y19514*
X1004Y19533*
X1004Y19533*
X0926Y19553*
X0926Y19553*
X0864Y19572*
X0864Y19572*
X0819Y19591*
X0819Y19591*
X0790Y19610*
X0790Y19610*
X0772Y19630*
X0772Y19630*
X0759Y19653*
X0759Y19653*
X0751Y19678*
X0751Y19678*
X0748Y19706*
X0748Y19706*
X0752Y19738*
X0752Y19738*
X0763Y19768*
X0763Y19768*
X0781Y19795*
X0781Y19795*
X0807Y19820*
X0807Y19820*
X0841Y19841*
X0841Y19841*
X0884Y19855*
X0884Y19855*
X0935Y19864*
X0935Y19864*
X0995Y19867*
X0995Y19867*
X1054Y19864*
X1054Y19864*
X1104Y19854*
X1104Y19854*
X1147Y19838*
X1147Y19838*
X1183Y19815*
X1183Y19815*
X1211Y19786*
X1211Y19786*
X1233Y19751*
X1233Y19751*
X1249Y19709*
X1249Y19709*
X1257Y19662*
X1393Y19672*
X1388Y19717*
X1378Y19761*
X1362Y19802*
X1340Y19840*
X1313Y19875*
X1280Y19906*
X1243Y19932*
X1200Y19953*
X1153Y19970*
X1102Y19982*
X1047Y19989*
X0990Y19992*
X0937Y19989*
X0886Y19982*
X0838Y19971*
X0793Y19955*
X0751Y19935*
X0715Y19910*
X0684Y19881*
X0658Y19848*
X0638Y19812*
X0624Y19775*
X0615Y19736*
X0612Y19696*
X0614Y19660*
X0622Y19626*
X0633Y19593*
X0650Y19563*
X0671Y19534*
X0697Y19508*
X0728Y19484*
X0764Y19463*
X0799Y19447*
X0846Y19430*
X0903Y19413*
X0971Y19396*
X1039Y19379*
X1039Y19379*
X1093Y19365*
X1093Y19365*
X1134Y19353*
X1134Y19353*
X1163Y19344*
X1163Y19344*
X1194Y19330*
X1194Y19330*
X1221Y19315*
X1221Y19315*
X1242Y19298*
X1242Y19298*
X1259Y19280*
X1259Y19280*
X1272Y19260*
X1272Y19260*
X1282Y19239*
X1282Y19239*
X1287Y19216*
X1287Y19216*
X1289Y19192*
X1289Y19191*
X1287Y19167*
X1287Y19167*
X1281Y19143*
X1281Y19143*
X1272Y19121*
X1272Y19121*
X1258Y19099*
X1258Y19099*
X1241Y19079*
X1241Y19079*
X1220Y19062*
X1220Y19062*
X1195Y19046*
X1195Y19046*
X1166Y19033*
X1165Y19033*
X1133Y19022*
X1133Y19022*
X1098Y19015*
X1098Y19015*
X1061Y19010*
X1061Y19010*
X1022Y19009*
X1022Y19009*
X0977Y19011*
X0977Y19011*
X0935Y19017*
X0935Y19017*
X0895Y19027*
X0895Y19027*
X0857Y19041*
X0857Y19041*
X0823Y19058*
X0822Y19058*
X0793Y19077*
X0793Y19077*
X0768Y19100*
X0768Y19100*
X0749Y19124*
X0748Y19124*
X0733Y19152*
X0733Y19152*
X0720Y19183*
X0720Y19183*
X0710Y19218*
X0710Y19218*
X0704Y19256*
X0571Y19245*
X0576Y19193*
X0587Y19143*
X0605Y19096*
X0630Y19052*
X0661Y19012*
X0697Y18978*
X0738Y18949*
X0784Y18925*
X0836Y18906*
X0894Y18893*
X0958Y18885*
X1028Y18882*
X1084Y18885*
X2062Y19978D02*
X2062Y19978D01*
X1978Y19978*
X1958Y19943*
X1958Y19943*
X1931Y19907*
X1931Y19907*
X1899Y19871*
X1899Y19871*
X1861Y19834*
X1861Y19834*
X1818Y19799*
X1818Y19799*
X1771Y19766*
X1771Y19766*
X1721Y19736*
X1721Y19736*
X1668Y19708*
X1668Y19582*
X1699Y19594*
X1732Y19610*
X1768Y19628*
X1806Y19650*
X1842Y19672*
X1875Y19695*
X1905Y19718*
X1931Y19741*
X1931Y19740*
X1931Y18901*
X2062Y18901*
X2062Y19978*
%LNtop silkscreen component 986be4f80f1d9bf1*%
D10*
X22115Y4652D02*
X22115Y7743D01*
X31835Y7743*
X31835Y4652*
X22115Y4652*
%LNtop silkscreen component 0bb50c3a370a5149*%
X5775Y5045D02*
X5775Y7345D01*
X18475Y7345*
X18475Y5045*
X5775Y5045*
X5775Y6195D02*
X4210Y6195D01*
X18475Y6195D02*
X20040Y6195D01*
D11*
X8950Y5115D02*
X8950Y7275D01*
D12*
X0984Y5735D02*
X0984Y5735D01*
X1037Y5743*
X1088Y5756*
X1135Y5774*
X1178Y5797*
X1216Y5825*
X1249Y5856*
X1276Y5892*
X1297Y5930*
X1313Y5970*
X1322Y6011*
X1325Y6053*
X1322Y6095*
X1314Y6134*
X1300Y6171*
X1280Y6206*
X1255Y6237*
X1223Y6266*
X1186Y6292*
X1142Y6315*
X1103Y6330*
X1050Y6347*
X0984Y6364*
X0904Y6383*
X0904Y6383*
X0826Y6403*
X0826Y6403*
X0764Y6422*
X0764Y6422*
X0719Y6441*
X0719Y6441*
X0690Y6460*
X0690Y6460*
X0672Y6480*
X0672Y6480*
X0659Y6503*
X0659Y6503*
X0651Y6528*
X0651Y6528*
X0648Y6556*
X0648Y6556*
X0652Y6588*
X0652Y6588*
X0663Y6618*
X0663Y6618*
X0681Y6645*
X0681Y6645*
X0707Y6670*
X0707Y6670*
X0741Y6691*
X0741Y6691*
X0784Y6705*
X0784Y6705*
X0835Y6714*
X0835Y6714*
X0895Y6717*
X0895Y6717*
X0954Y6714*
X0954Y6714*
X1004Y6704*
X1004Y6704*
X1047Y6688*
X1047Y6688*
X1083Y6665*
X1083Y6665*
X1111Y6636*
X1111Y6636*
X1133Y6601*
X1133Y6601*
X1149Y6559*
X1149Y6559*
X1157Y6512*
X1293Y6522*
X1288Y6567*
X1278Y6611*
X1262Y6652*
X1240Y6690*
X1213Y6725*
X1180Y6756*
X1143Y6782*
X1100Y6803*
X1053Y6820*
X1002Y6832*
X0947Y6839*
X0890Y6842*
X0837Y6839*
X0786Y6832*
X0738Y6821*
X0693Y6805*
X0651Y6785*
X0615Y6760*
X0584Y6731*
X0558Y6698*
X0538Y6662*
X0524Y6625*
X0515Y6586*
X0512Y6546*
X0514Y6510*
X0522Y6476*
X0533Y6443*
X0550Y6413*
X0571Y6384*
X0597Y6358*
X0628Y6334*
X0664Y6313*
X0699Y6297*
X0746Y6280*
X0803Y6263*
X0871Y6246*
X0939Y6229*
X0939Y6229*
X0993Y6215*
X0993Y6215*
X1034Y6203*
X1034Y6203*
X1063Y6194*
X1063Y6194*
X1094Y6180*
X1094Y6180*
X1121Y6165*
X1121Y6165*
X1142Y6148*
X1142Y6148*
X1159Y6130*
X1159Y6130*
X1172Y6110*
X1172Y6110*
X1182Y6089*
X1182Y6089*
X1187Y6066*
X1187Y6066*
X1189Y6042*
X1189Y6041*
X1187Y6017*
X1187Y6017*
X1181Y5993*
X1181Y5993*
X1172Y5971*
X1172Y5971*
X1158Y5949*
X1158Y5949*
X1141Y5929*
X1141Y5929*
X1120Y5912*
X1120Y5912*
X1095Y5896*
X1095Y5896*
X1066Y5883*
X1065Y5883*
X1033Y5872*
X1033Y5872*
X0998Y5865*
X0998Y5865*
X0961Y5860*
X0961Y5860*
X0922Y5859*
X0922Y5859*
X0877Y5861*
X0877Y5861*
X0835Y5867*
X0835Y5867*
X0795Y5877*
X0795Y5877*
X0757Y5891*
X0757Y5891*
X0723Y5908*
X0722Y5908*
X0693Y5927*
X0693Y5927*
X0668Y5950*
X0668Y5950*
X0649Y5974*
X0648Y5974*
X0633Y6002*
X0633Y6002*
X0620Y6033*
X0620Y6033*
X0610Y6068*
X0610Y6068*
X0604Y6106*
X0471Y6095*
X0476Y6043*
X0487Y5993*
X0505Y5946*
X0530Y5902*
X0561Y5862*
X0597Y5828*
X0638Y5799*
X0684Y5775*
X0736Y5756*
X0794Y5743*
X0858Y5735*
X0928Y5732*
X0984Y5735*
X1895Y5740D02*
X1895Y5740D01*
X1971Y5765*
X2036Y5805*
X2093Y5862*
X2130Y5918*
X2156Y5978*
X2172Y6044*
X2177Y6114*
X2171Y6187*
X2153Y6253*
X2123Y6312*
X2081Y6364*
X2030Y6407*
X1973Y6437*
X1911Y6455*
X1844Y6461*
X1791Y6457*
X1740Y6445*
X1690Y6424*
X1641Y6394*
X1640Y6394*
X1698Y6683*
X1699Y6684*
X2127Y6684*
X2127Y6809*
X1594Y6809*
X1490Y6258*
X1613Y6242*
X1629Y6264*
X1629Y6264*
X1648Y6284*
X1648Y6284*
X1669Y6301*
X1669Y6301*
X1693Y6317*
X1694Y6317*
X1720Y6330*
X1720Y6330*
X1748Y6339*
X1748Y6339*
X1778Y6344*
X1778Y6344*
X1809Y6346*
X1809Y6346*
X1858Y6342*
X1858Y6342*
X1902Y6330*
X1902Y6330*
X1941Y6309*
X1941Y6309*
X1975Y6281*
X1975Y6281*
X2003Y6245*
X2003Y6245*
X2023Y6203*
X2023Y6203*
X2035Y6156*
X2035Y6156*
X2038Y6102*
X2038Y6102*
X2034Y6046*
X2034Y6046*
X2022Y5995*
X2022Y5995*
X2001Y5950*
X2001Y5950*
X1972Y5912*
X1972Y5912*
X1938Y5880*
X1938Y5880*
X1899Y5858*
X1899Y5858*
X1857Y5844*
X1857Y5844*
X1811Y5840*
X1811Y5840*
X1773Y5843*
X1773Y5843*
X1737Y5852*
X1737Y5852*
X1705Y5868*
X1705Y5868*
X1675Y5891*
X1675Y5891*
X1650Y5919*
X1650Y5919*
X1629Y5954*
X1629Y5954*
X1614Y5995*
X1614Y5995*
X1604Y6042*
X1467Y6031*
X1478Y5967*
X1499Y5909*
X1531Y5858*
X1572Y5814*
X1622Y5778*
X1678Y5753*
X1741Y5737*
X1811Y5732*
X1895Y5740*
%LNtop silkscreen component 80dffd5b6eb86aff*%
D10*
X32080Y21710D02*
X35620Y21710D01*
X32080Y21710D02*
X32080Y0390D01*
X35620Y0390*
X35620Y21710*
D13*
X33850Y21718D03*
%LNtop silkscreen component 4f20bd0a8d4d9c9b*%
D10*
X22115Y11205D02*
X22115Y14296D01*
X31835Y14296*
X31835Y11205*
X22115Y11205*
%LNtop silkscreen component c320a72a683a2ea0*%
X5775Y11595D02*
X5775Y13895D01*
X18475Y13895*
X18475Y11595*
X5775Y11595*
X5775Y12745D02*
X4210Y12745D01*
X18475Y12745D02*
X20040Y12745D01*
D11*
X8950Y11665D02*
X8950Y13825D01*
D12*
X0984Y12285D02*
X0984Y12285D01*
X1037Y12293*
X1088Y12306*
X1135Y12324*
X1178Y12347*
X1216Y12375*
X1249Y12406*
X1276Y12442*
X1297Y12480*
X1313Y12520*
X1322Y12561*
X1325Y12603*
X1322Y12645*
X1314Y12684*
X1300Y12721*
X1280Y12756*
X1255Y12787*
X1223Y12816*
X1186Y12842*
X1142Y12865*
X1103Y12880*
X1050Y12897*
X0984Y12914*
X0904Y12933*
X0904Y12933*
X0826Y12953*
X0826Y12953*
X0764Y12972*
X0764Y12972*
X0719Y12991*
X0719Y12991*
X0690Y13010*
X0690Y13010*
X0672Y13030*
X0672Y13030*
X0659Y13053*
X0659Y13053*
X0651Y13078*
X0651Y13078*
X0648Y13106*
X0648Y13106*
X0652Y13138*
X0652Y13138*
X0663Y13168*
X0663Y13168*
X0681Y13195*
X0681Y13195*
X0707Y13220*
X0707Y13220*
X0741Y13241*
X0741Y13241*
X0784Y13255*
X0784Y13255*
X0835Y13264*
X0835Y13264*
X0895Y13267*
X0895Y13267*
X0954Y13264*
X0954Y13264*
X1004Y13254*
X1004Y13254*
X1047Y13238*
X1047Y13238*
X1083Y13215*
X1083Y13215*
X1111Y13186*
X1111Y13186*
X1133Y13151*
X1133Y13151*
X1149Y13109*
X1149Y13109*
X1157Y13062*
X1293Y13072*
X1288Y13117*
X1278Y13161*
X1262Y13202*
X1240Y13240*
X1213Y13275*
X1180Y13306*
X1143Y13332*
X1100Y13353*
X1053Y13370*
X1002Y13382*
X0947Y13389*
X0890Y13392*
X0837Y13389*
X0786Y13382*
X0738Y13371*
X0693Y13355*
X0651Y13335*
X0615Y13310*
X0584Y13281*
X0558Y13248*
X0538Y13212*
X0524Y13175*
X0515Y13136*
X0512Y13096*
X0514Y13060*
X0522Y13026*
X0533Y12993*
X0550Y12963*
X0571Y12934*
X0597Y12908*
X0628Y12884*
X0664Y12863*
X0699Y12847*
X0746Y12830*
X0803Y12813*
X0871Y12796*
X0939Y12779*
X0939Y12779*
X0993Y12765*
X0993Y12765*
X1034Y12753*
X1034Y12753*
X1063Y12744*
X1063Y12744*
X1094Y12730*
X1094Y12730*
X1121Y12715*
X1121Y12715*
X1142Y12698*
X1142Y12698*
X1159Y12680*
X1159Y12680*
X1172Y12660*
X1172Y12660*
X1182Y12639*
X1182Y12639*
X1187Y12616*
X1187Y12616*
X1189Y12592*
X1189Y12591*
X1187Y12567*
X1187Y12567*
X1181Y12543*
X1181Y12543*
X1172Y12521*
X1172Y12521*
X1158Y12499*
X1158Y12499*
X1141Y12479*
X1141Y12479*
X1120Y12462*
X1120Y12462*
X1095Y12446*
X1095Y12446*
X1066Y12433*
X1065Y12433*
X1033Y12422*
X1033Y12422*
X0998Y12415*
X0998Y12415*
X0961Y12410*
X0961Y12410*
X0922Y12409*
X0922Y12409*
X0877Y12411*
X0877Y12411*
X0835Y12417*
X0835Y12417*
X0795Y12427*
X0795Y12427*
X0757Y12441*
X0757Y12441*
X0723Y12458*
X0722Y12458*
X0693Y12477*
X0693Y12477*
X0668Y12500*
X0668Y12500*
X0649Y12524*
X0648Y12524*
X0633Y12552*
X0633Y12552*
X0620Y12583*
X0620Y12583*
X0610Y12618*
X0610Y12618*
X0604Y12656*
X0471Y12645*
X0476Y12593*
X0487Y12543*
X0505Y12496*
X0530Y12452*
X0561Y12412*
X0597Y12378*
X0638Y12349*
X0684Y12325*
X0736Y12306*
X0794Y12293*
X0858Y12285*
X0928Y12282*
X0984Y12285*
X1883Y12288D02*
X1883Y12288D01*
X1951Y12306*
X2012Y12336*
X2067Y12379*
X2112Y12431*
X2144Y12487*
X2163Y12550*
X2169Y12617*
X2166Y12667*
X2156Y12712*
X2140Y12753*
X2117Y12790*
X2088Y12822*
X2053Y12847*
X2014Y12867*
X1969Y12881*
X1969Y12882*
X2003Y12900*
X2033Y12921*
X2058Y12946*
X2079Y12973*
X2096Y13002*
X2107Y13033*
X2114Y13065*
X2117Y13099*
X2114Y13135*
X2107Y13170*
X2095Y13204*
X2077Y13237*
X2056Y13268*
X2030Y13295*
X1999Y13319*
X1965Y13340*
X1927Y13356*
X1887Y13368*
X1846Y13375*
X1803Y13378*
X1742Y13373*
X1686Y13359*
X1635Y13337*
X1590Y13305*
X1551Y13265*
X1520Y13217*
X1496Y13162*
X1481Y13100*
X1611Y13077*
X1621Y13122*
X1621Y13122*
X1635Y13161*
X1635Y13161*
X1654Y13194*
X1654Y13195*
X1677Y13222*
X1677Y13222*
X1705Y13243*
X1705Y13243*
X1735Y13258*
X1735Y13258*
X1769Y13267*
X1769Y13267*
X1806Y13270*
X1806Y13270*
X1843Y13267*
X1843Y13267*
X1876Y13258*
X1877Y13258*
X1906Y13243*
X1906Y13243*
X1933Y13223*
X1933Y13222*
X1954Y13197*
X1954Y13197*
X1970Y13169*
X1970Y13168*
X1979Y13137*
X1979Y13137*
X1982Y13102*
X1982Y13102*
X1978Y13059*
X1978Y13059*
X1965Y13022*
X1965Y13022*
X1944Y12991*
X1944Y12991*
X1915Y12966*
X1914Y12966*
X1880Y12947*
X1880Y12947*
X1843Y12933*
X1843Y12933*
X1804Y12925*
X1804Y12925*
X1763Y12922*
X1763Y12922*
X1758Y12922*
X1758Y12922*
X1753Y12922*
X1753Y12922*
X1748Y12923*
X1748Y12923*
X1742Y12923*
X1727Y12809*
X1753Y12815*
X1753Y12815*
X1778Y12820*
X1778Y12820*
X1800Y12823*
X1800Y12823*
X1820Y12823*
X1820Y12823*
X1864Y12820*
X1864Y12820*
X1903Y12809*
X1903Y12809*
X1939Y12790*
X1939Y12790*
X1971Y12764*
X1971Y12764*
X1997Y12733*
X1997Y12733*
X2016Y12697*
X2016Y12697*
X2027Y12658*
X2027Y12658*
X2030Y12614*
X2030Y12614*
X2026Y12568*
X2026Y12568*
X2014Y12527*
X2014Y12526*
X1994Y12488*
X1994Y12488*
X1966Y12454*
X1966Y12454*
X1932Y12426*
X1932Y12426*
X1895Y12406*
X1895Y12406*
X1854Y12394*
X1854Y12394*
X1809Y12390*
X1809Y12390*
X1771Y12393*
X1771Y12393*
X1736Y12402*
X1736Y12402*
X1704Y12417*
X1704Y12417*
X1675Y12439*
X1675Y12439*
X1650Y12468*
X1650Y12468*
X1629Y12504*
X1629Y12504*
X1611Y12549*
X1611Y12549*
X1598Y12600*
X1467Y12583*
X1479Y12520*
X1500Y12462*
X1532Y12411*
X1574Y12366*
X1623Y12329*
X1679Y12302*
X1740Y12287*
X1808Y12281*
X1883Y12288*
%LNtop silkscreen component 15e11586f61a9aeb*%
D10*
X5775Y14870D02*
X5775Y17170D01*
X18475Y17170*
X18475Y14870*
X5775Y14870*
X5775Y16020D02*
X4210Y16020D01*
X18475Y16020D02*
X20040Y16020D01*
D11*
X8950Y14940D02*
X8950Y17100D01*
D12*
X0984Y15585D02*
X0984Y15585D01*
X1037Y15593*
X1088Y15606*
X1135Y15624*
X1178Y15647*
X1216Y15675*
X1249Y15706*
X1276Y15742*
X1297Y15780*
X1313Y15820*
X1322Y15861*
X1325Y15903*
X1322Y15945*
X1314Y15984*
X1300Y16021*
X1280Y16056*
X1255Y16087*
X1223Y16116*
X1186Y16142*
X1142Y16165*
X1103Y16180*
X1050Y16197*
X0984Y16214*
X0904Y16233*
X0904Y16233*
X0826Y16253*
X0826Y16253*
X0764Y16272*
X0764Y16272*
X0719Y16291*
X0719Y16291*
X0690Y16310*
X0690Y16310*
X0672Y16330*
X0672Y16330*
X0659Y16353*
X0659Y16353*
X0651Y16378*
X0651Y16378*
X0648Y16406*
X0648Y16406*
X0652Y16438*
X0652Y16438*
X0663Y16468*
X0663Y16468*
X0681Y16495*
X0681Y16495*
X0707Y16520*
X0707Y16520*
X0741Y16541*
X0741Y16541*
X0784Y16555*
X0784Y16555*
X0835Y16564*
X0835Y16564*
X0895Y16567*
X0895Y16567*
X0954Y16564*
X0954Y16564*
X1004Y16554*
X1004Y16554*
X1047Y16538*
X1047Y16538*
X1083Y16515*
X1083Y16515*
X1111Y16486*
X1111Y16486*
X1133Y16451*
X1133Y16451*
X1149Y16409*
X1149Y16409*
X1157Y16362*
X1293Y16372*
X1288Y16417*
X1278Y16461*
X1262Y16502*
X1240Y16540*
X1213Y16575*
X1180Y16606*
X1143Y16632*
X1100Y16653*
X1053Y16670*
X1002Y16682*
X0947Y16689*
X0890Y16692*
X0837Y16689*
X0786Y16682*
X0738Y16671*
X0693Y16655*
X0651Y16635*
X0615Y16610*
X0584Y16581*
X0558Y16548*
X0538Y16512*
X0524Y16475*
X0515Y16436*
X0512Y16396*
X0514Y16360*
X0522Y16326*
X0533Y16293*
X0550Y16263*
X0571Y16234*
X0597Y16208*
X0628Y16184*
X0664Y16163*
X0699Y16147*
X0746Y16130*
X0803Y16113*
X0871Y16096*
X0939Y16079*
X0939Y16079*
X0993Y16065*
X0993Y16065*
X1034Y16053*
X1034Y16053*
X1063Y16044*
X1063Y16044*
X1094Y16030*
X1094Y16030*
X1121Y16015*
X1121Y16015*
X1142Y15998*
X1142Y15998*
X1159Y15980*
X1159Y15980*
X1172Y15960*
X1172Y15960*
X1182Y15939*
X1182Y15939*
X1187Y15916*
X1187Y15916*
X1189Y15892*
X1189Y15891*
X1187Y15867*
X1187Y15867*
X1181Y15843*
X1181Y15843*
X1172Y15821*
X1172Y15821*
X1158Y15799*
X1158Y15799*
X1141Y15779*
X1141Y15779*
X1120Y15762*
X1120Y15762*
X1095Y15746*
X1095Y15746*
X1066Y15733*
X1065Y15733*
X1033Y15722*
X1033Y15722*
X0998Y15715*
X0998Y15715*
X0961Y15710*
X0961Y15710*
X0922Y15709*
X0922Y15709*
X0877Y15711*
X0877Y15711*
X0835Y15717*
X0835Y15717*
X0795Y15727*
X0795Y15727*
X0757Y15741*
X0757Y15741*
X0723Y15758*
X0722Y15758*
X0693Y15777*
X0693Y15777*
X0668Y15800*
X0668Y15800*
X0649Y15824*
X0648Y15824*
X0633Y15852*
X0633Y15852*
X0620Y15883*
X0620Y15883*
X0610Y15918*
X0610Y15918*
X0604Y15956*
X0471Y15945*
X0476Y15893*
X0487Y15843*
X0505Y15796*
X0530Y15752*
X0561Y15712*
X0597Y15678*
X0638Y15649*
X0684Y15625*
X0736Y15606*
X0794Y15593*
X0858Y15585*
X0928Y15582*
X0984Y15585*
X2158Y15726D02*
X2158Y15726D01*
X1632Y15726*
X1632Y15727*
X1644Y15745*
X1644Y15745*
X1657Y15763*
X1657Y15763*
X1671Y15781*
X1671Y15781*
X1688Y15798*
X1688Y15798*
X1710Y15820*
X1710Y15820*
X1742Y15850*
X1742Y15850*
X1786Y15888*
X1786Y15888*
X1840Y15934*
X1906Y15990*
X1962Y16041*
X2007Y16085*
X2043Y16123*
X2071Y16157*
X2096Y16190*
X2115Y16222*
X2131Y16254*
X2142Y16285*
X2150Y16316*
X2155Y16348*
X2157Y16380*
X2151Y16441*
X2134Y16496*
X2106Y16547*
X2067Y16592*
X2018Y16629*
X1961Y16656*
X1896Y16672*
X1823Y16678*
X1750Y16673*
X1685Y16658*
X1628Y16633*
X1579Y16598*
X1539Y16554*
X1508Y16501*
X1486Y16439*
X1475Y16368*
X1609Y16354*
X1613Y16402*
X1613Y16402*
X1624Y16444*
X1624Y16444*
X1642Y16481*
X1642Y16481*
X1667Y16512*
X1667Y16512*
X1698Y16537*
X1698Y16537*
X1734Y16555*
X1734Y16555*
X1774Y16566*
X1774Y16566*
X1820Y16570*
X1820Y16570*
X1863Y16566*
X1863Y16566*
X1901Y16556*
X1902Y16556*
X1936Y16539*
X1936Y16539*
X1966Y16516*
X1966Y16516*
X1991Y16487*
X1991Y16487*
X2008Y16455*
X2008Y16455*
X2019Y16421*
X2019Y16421*
X2022Y16383*
X2022Y16383*
X2019Y16345*
X2019Y16345*
X2007Y16306*
X2007Y16306*
X1988Y16266*
X1988Y16265*
X1961Y16224*
X1961Y16224*
X1923Y16178*
X1923Y16178*
X1871Y16125*
X1871Y16125*
X1805Y16065*
X1805Y16065*
X1724Y15997*
X1724Y15997*
X1671Y15952*
X1625Y15910*
X1585Y15871*
X1552Y15834*
X1524Y15799*
X1500Y15763*
X1481Y15727*
X1465Y15691*
X1458Y15669*
X1453Y15647*
X1450Y15624*
X1450Y15601*
X2158Y15601*
X2158Y15726*
%LNtop silkscreen component 8a836d5557ec19b0*%
D10*
X22115Y1376D02*
X22115Y4466D01*
X31835Y4466*
X31835Y1376*
X22115Y1376*
%LNtop silkscreen component 865dd7107b8a0880*%
X5775Y8300D02*
X5775Y10600D01*
X18475Y10600*
X18475Y8300*
X5775Y8300*
X5775Y9450D02*
X4210Y9450D01*
X18475Y9450D02*
X20040Y9450D01*
D11*
X8950Y8370D02*
X8950Y10530D01*
D12*
X0984Y8990D02*
X0984Y8990D01*
X1037Y8998*
X1088Y9011*
X1135Y9029*
X1178Y9052*
X1216Y9080*
X1249Y9111*
X1276Y9147*
X1297Y9185*
X1313Y9225*
X1322Y9266*
X1325Y9308*
X1322Y9350*
X1314Y9389*
X1300Y9426*
X1280Y9461*
X1255Y9492*
X1223Y9521*
X1186Y9547*
X1142Y9570*
X1103Y9585*
X1050Y9602*
X0984Y9619*
X0904Y9638*
X0904Y9638*
X0826Y9658*
X0826Y9658*
X0764Y9677*
X0764Y9677*
X0719Y9696*
X0719Y9696*
X0690Y9715*
X0690Y9715*
X0672Y9735*
X0672Y9735*
X0659Y9758*
X0659Y9758*
X0651Y9783*
X0651Y9783*
X0648Y9811*
X0648Y9811*
X0652Y9843*
X0652Y9843*
X0663Y9873*
X0663Y9873*
X0681Y9900*
X0681Y9900*
X0707Y9925*
X0707Y9925*
X0741Y9946*
X0741Y9946*
X0784Y9960*
X0784Y9960*
X0835Y9969*
X0835Y9969*
X0895Y9972*
X0895Y9972*
X0954Y9969*
X0954Y9969*
X1004Y9959*
X1004Y9959*
X1047Y9943*
X1047Y9943*
X1083Y9920*
X1083Y9920*
X1111Y9891*
X1111Y9891*
X1133Y9856*
X1133Y9856*
X1149Y9814*
X1149Y9814*
X1157Y9767*
X1293Y9777*
X1288Y9822*
X1278Y9866*
X1262Y9907*
X1240Y9945*
X1213Y9980*
X1180Y10011*
X1143Y10037*
X1100Y10058*
X1053Y10075*
X1002Y10087*
X0947Y10094*
X0890Y10097*
X0837Y10094*
X0786Y10087*
X0738Y10076*
X0693Y10060*
X0651Y10040*
X0615Y10015*
X0584Y9986*
X0558Y9953*
X0538Y9917*
X0524Y9880*
X0515Y9841*
X0512Y9801*
X0514Y9765*
X0522Y9731*
X0533Y9698*
X0550Y9668*
X0571Y9639*
X0597Y9613*
X0628Y9589*
X0664Y9568*
X0699Y9552*
X0746Y9535*
X0803Y9518*
X0871Y9501*
X0939Y9484*
X0939Y9484*
X0993Y9470*
X0993Y9470*
X1034Y9458*
X1034Y9458*
X1063Y9449*
X1063Y9449*
X1094Y9435*
X1094Y9435*
X1121Y9420*
X1121Y9420*
X1142Y9403*
X1142Y9403*
X1159Y9385*
X1159Y9385*
X1172Y9365*
X1172Y9365*
X1182Y9344*
X1182Y9344*
X1187Y9321*
X1187Y9321*
X1189Y9297*
X1189Y9296*
X1187Y9272*
X1187Y9272*
X1181Y9248*
X1181Y9248*
X1172Y9226*
X1172Y9226*
X1158Y9204*
X1158Y9204*
X1141Y9184*
X1141Y9184*
X1120Y9167*
X1120Y9167*
X1095Y9151*
X1095Y9151*
X1066Y9138*
X1065Y9138*
X1033Y9127*
X1033Y9127*
X0998Y9120*
X0998Y9120*
X0961Y9115*
X0961Y9115*
X0922Y9114*
X0922Y9114*
X0877Y9116*
X0877Y9116*
X0835Y9122*
X0835Y9122*
X0795Y9132*
X0795Y9132*
X0757Y9146*
X0757Y9146*
X0723Y9163*
X0722Y9163*
X0693Y9182*
X0693Y9182*
X0668Y9205*
X0668Y9205*
X0649Y9229*
X0648Y9229*
X0633Y9257*
X0633Y9257*
X0620Y9288*
X0620Y9288*
X0610Y9323*
X0610Y9323*
X0604Y9361*
X0471Y9350*
X0476Y9298*
X0487Y9248*
X0505Y9201*
X0530Y9157*
X0561Y9117*
X0597Y9083*
X0638Y9054*
X0684Y9030*
X0736Y9011*
X0794Y8998*
X0858Y8990*
X0928Y8987*
X0984Y8990*
X2020Y9262D02*
X2020Y9262D01*
X2020Y9263*
X2165Y9263*
X2165Y9382*
X2020Y9382*
X2020Y9383*
X2020Y10078*
X1913Y10078*
X1423Y9383*
X1423Y9263*
X1889Y9263*
X1889Y9262*
X1889Y9006*
X2020Y9006*
X2020Y9262*
X1888Y9865D02*
X1888Y9865D01*
X1553Y9383*
X1888Y9383*
X1888Y9865*
%LNtop silkscreen component fb8cf3b87e344d74*%
D10*
X22115Y17759D02*
X22115Y20849D01*
X31835Y20849*
X31835Y17759*
X22115Y17759*
%LNtop silkscreen component 0cc1bf44659db686*%
X22115Y7929D02*
X22115Y11020D01*
X31835Y11020*
X31835Y7929*
X22115Y7929*
%LNtop silkscreen component 7225d21d50f4679b*%
X22115Y14482D02*
X22115Y17573D01*
X31835Y17573*
X31835Y14482*
X22115Y14482*
%LNtext*%
D12*
X36454Y16854D02*
X36454Y16854D01*
X36510Y16864*
X36565Y16882*
X36617Y16906*
X36665Y16937*
X36707Y16975*
X36744Y17020*
X36775Y17071*
X36799Y17127*
X36816Y17187*
X36827Y17251*
X36830Y17318*
X36827Y17385*
X36817Y17447*
X36800Y17507*
X36777Y17562*
X36748Y17613*
X36712Y17658*
X36671Y17697*
X36623Y17730*
X36571Y17756*
X36516Y17775*
X36458Y17786*
X36397Y17790*
X36305Y17782*
X36222Y17758*
X36148Y17718*
X36083Y17662*
X36030Y17592*
X35992Y17509*
X35969Y17415*
X35962Y17308*
X35965Y17249*
X35975Y17191*
X35991Y17135*
X36014Y17081*
X36043Y17030*
X36078Y16985*
X36119Y16946*
X36167Y16912*
X36219Y16885*
X36275Y16865*
X36334Y16854*
X36396Y16850*
X36454Y16854*
X36085Y17306D02*
X36085Y17306D01*
X36091Y17228*
X36108Y17159*
X36135Y17099*
X36174Y17047*
X36221Y17006*
X36273Y16976*
X36332Y16958*
X36395Y16952*
X36460Y16958*
X36519Y16976*
X36572Y17006*
X36619Y17048*
X36657Y17101*
X36685Y17163*
X36701Y17236*
X36707Y17319*
X36704Y17373*
X36697Y17423*
X36686Y17470*
X36669Y17513*
X36648Y17552*
X36623Y17586*
X36593Y17616*
X36559Y17641*
X36522Y17661*
X36483Y17675*
X36441Y17684*
X36397Y17687*
X36336Y17681*
X36279Y17665*
X36226Y17637*
X36178Y17599*
X36137Y17548*
X36108Y17482*
X36091Y17401*
X36085Y17306*
X37257Y16858D02*
X37257Y16858D01*
X37312Y16878*
X37361Y16913*
X37403Y16962*
X37404Y16962*
X37404Y16866*
X37503Y16866*
X37503Y17523*
X37392Y17523*
X37392Y17171*
X37392Y17171*
X37391Y17131*
X37391Y17131*
X37387Y17096*
X37387Y17096*
X37382Y17067*
X37382Y17067*
X37374Y17042*
X37374Y17042*
X37363Y17021*
X37363Y17021*
X37349Y17002*
X37349Y17002*
X37332Y16986*
X37332Y16986*
X37311Y16972*
X37311Y16972*
X37289Y16960*
X37289Y16960*
X37265Y16952*
X37265Y16952*
X37241Y16947*
X37241Y16947*
X37217Y16946*
X37217Y16946*
X37192Y16947*
X37192Y16947*
X37170Y16952*
X37170Y16952*
X37150Y16960*
X37150Y16960*
X37132Y16971*
X37132Y16971*
X37116Y16985*
X37116Y16985*
X37104Y17001*
X37104Y17001*
X37094Y17019*
X37094Y17019*
X37087Y17040*
X37087Y17040*
X37084Y17059*
X37084Y17059*
X37082Y17085*
X37082Y17085*
X37081Y17118*
X37081Y17118*
X37080Y17158*
X37080Y17158*
X37080Y17523*
X36970Y17523*
X36970Y17116*
X36970Y17082*
X36971Y17054*
X36973Y17030*
X36976Y17011*
X36982Y16988*
X36990Y16966*
X36999Y16947*
X37011Y16929*
X37025Y16913*
X37042Y16898*
X37062Y16885*
X37086Y16873*
X37111Y16863*
X37138Y16856*
X37166Y16852*
X37194Y16851*
X37257Y16858*
X37873Y16857D02*
X37873Y16857D01*
X37893Y16859*
X37915Y16862*
X37937Y16867*
X37921Y16964*
X37907Y16962*
X37907Y16962*
X37894Y16961*
X37894Y16961*
X37883Y16960*
X37883Y16960*
X37873Y16960*
X37873Y16960*
X37861Y16960*
X37861Y16960*
X37851Y16962*
X37851Y16962*
X37842Y16965*
X37842Y16965*
X37834Y16968*
X37834Y16968*
X37828Y16973*
X37828Y16973*
X37823Y16978*
X37823Y16978*
X37818Y16984*
X37818Y16984*
X37815Y16990*
X37815Y16990*
X37812Y16999*
X37812Y16999*
X37810Y17012*
X37810Y17012*
X37809Y17030*
X37809Y17030*
X37809Y17052*
X37809Y17052*
X37809Y17437*
X37809Y17437*
X37921Y17437*
X37921Y17523*
X37809Y17523*
X37809Y17523*
X37809Y17753*
X37699Y17686*
X37699Y17523*
X37699Y17523*
X37617Y17523*
X37617Y17437*
X37699Y17437*
X37699Y17437*
X37699Y17058*
X37700Y17012*
X37702Y16975*
X37707Y16946*
X37712Y16926*
X37721Y16911*
X37731Y16898*
X37744Y16886*
X37759Y16876*
X37778Y16868*
X37800Y16862*
X37825Y16858*
X37853Y16857*
X37873Y16857*
X38773Y17777D02*
X38773Y17777D01*
X38701Y17777*
X38684Y17748*
X38684Y17748*
X38662Y17718*
X38662Y17718*
X38635Y17687*
X38635Y17687*
X38602Y17656*
X38602Y17656*
X38566Y17626*
X38566Y17626*
X38526Y17598*
X38526Y17598*
X38484Y17572*
X38484Y17572*
X38439Y17549*
X38439Y17442*
X38465Y17453*
X38493Y17466*
X38524Y17482*
X38555Y17500*
X38587Y17519*
X38615Y17538*
X38639Y17557*
X38661Y17577*
X38662Y17577*
X38662Y16866*
X38773Y16866*
X38773Y17777*
X36454Y6754D02*
X36454Y6754D01*
X36510Y6764*
X36565Y6782*
X36617Y6806*
X36665Y6837*
X36707Y6875*
X36744Y6920*
X36775Y6971*
X36799Y7027*
X36816Y7087*
X36827Y7151*
X36830Y7218*
X36827Y7285*
X36817Y7347*
X36800Y7407*
X36777Y7462*
X36748Y7513*
X36712Y7558*
X36671Y7597*
X36623Y7630*
X36571Y7656*
X36516Y7675*
X36458Y7686*
X36397Y7690*
X36305Y7682*
X36222Y7658*
X36148Y7618*
X36083Y7562*
X36030Y7492*
X35992Y7409*
X35969Y7315*
X35962Y7208*
X35965Y7149*
X35975Y7091*
X35991Y7035*
X36014Y6981*
X36043Y6930*
X36078Y6885*
X36119Y6846*
X36167Y6812*
X36219Y6785*
X36275Y6765*
X36334Y6754*
X36396Y6750*
X36454Y6754*
X36085Y7206D02*
X36085Y7206D01*
X36091Y7128*
X36108Y7059*
X36135Y6999*
X36174Y6947*
X36221Y6906*
X36273Y6876*
X36332Y6858*
X36395Y6852*
X36460Y6858*
X36519Y6876*
X36572Y6906*
X36619Y6948*
X36657Y7001*
X36685Y7063*
X36701Y7136*
X36707Y7219*
X36704Y7273*
X36697Y7323*
X36686Y7370*
X36669Y7413*
X36648Y7452*
X36623Y7486*
X36593Y7516*
X36559Y7541*
X36522Y7561*
X36483Y7575*
X36441Y7584*
X36397Y7587*
X36336Y7581*
X36279Y7565*
X36226Y7537*
X36178Y7499*
X36137Y7448*
X36108Y7382*
X36091Y7301*
X36085Y7206*
X37257Y6758D02*
X37257Y6758D01*
X37312Y6778*
X37361Y6813*
X37403Y6862*
X37404Y6862*
X37404Y6766*
X37503Y6766*
X37503Y7423*
X37392Y7423*
X37392Y7071*
X37392Y7071*
X37391Y7031*
X37391Y7031*
X37387Y6996*
X37387Y6996*
X37382Y6967*
X37382Y6967*
X37374Y6942*
X37374Y6942*
X37363Y6921*
X37363Y6921*
X37349Y6902*
X37349Y6902*
X37332Y6886*
X37332Y6886*
X37311Y6872*
X37311Y6872*
X37289Y6860*
X37289Y6860*
X37265Y6852*
X37265Y6852*
X37241Y6847*
X37241Y6847*
X37217Y6846*
X37217Y6846*
X37192Y6847*
X37192Y6847*
X37170Y6852*
X37170Y6852*
X37150Y6860*
X37150Y6860*
X37132Y6871*
X37132Y6871*
X37116Y6885*
X37116Y6885*
X37104Y6901*
X37104Y6901*
X37094Y6919*
X37094Y6919*
X37087Y6940*
X37087Y6940*
X37084Y6959*
X37084Y6959*
X37082Y6985*
X37082Y6985*
X37081Y7018*
X37081Y7018*
X37080Y7058*
X37080Y7058*
X37080Y7423*
X36970Y7423*
X36970Y7016*
X36970Y6982*
X36971Y6954*
X36973Y6930*
X36976Y6911*
X36982Y6888*
X36990Y6866*
X36999Y6847*
X37011Y6829*
X37025Y6813*
X37042Y6798*
X37062Y6785*
X37086Y6773*
X37111Y6763*
X37138Y6756*
X37166Y6752*
X37194Y6751*
X37257Y6758*
X37873Y6757D02*
X37873Y6757D01*
X37893Y6759*
X37915Y6762*
X37937Y6767*
X37921Y6864*
X37907Y6862*
X37907Y6862*
X37894Y6861*
X37894Y6861*
X37883Y6860*
X37883Y6860*
X37873Y6860*
X37873Y6860*
X37861Y6860*
X37861Y6860*
X37851Y6862*
X37851Y6862*
X37842Y6865*
X37842Y6865*
X37834Y6868*
X37834Y6868*
X37828Y6873*
X37828Y6873*
X37823Y6878*
X37823Y6878*
X37818Y6884*
X37818Y6884*
X37815Y6890*
X37815Y6890*
X37812Y6899*
X37812Y6899*
X37810Y6912*
X37810Y6912*
X37809Y6930*
X37809Y6930*
X37809Y6952*
X37809Y6952*
X37809Y7337*
X37809Y7337*
X37921Y7337*
X37921Y7423*
X37809Y7423*
X37809Y7423*
X37809Y7653*
X37699Y7586*
X37699Y7423*
X37699Y7423*
X37617Y7423*
X37617Y7337*
X37699Y7337*
X37699Y7337*
X37699Y6958*
X37700Y6912*
X37702Y6875*
X37707Y6846*
X37712Y6826*
X37721Y6811*
X37731Y6798*
X37744Y6786*
X37759Y6776*
X37778Y6768*
X37800Y6762*
X37825Y6758*
X37853Y6757*
X37873Y6757*
X38716Y6757D02*
X38716Y6757D01*
X38780Y6778*
X38835Y6812*
X38883Y6860*
X38914Y6907*
X38937Y6958*
X38950Y7014*
X38955Y7073*
X38950Y7135*
X38934Y7191*
X38909Y7241*
X38873Y7285*
X38830Y7321*
X38782Y7347*
X38730Y7362*
X38673Y7367*
X38628Y7364*
X38585Y7353*
X38542Y7335*
X38501Y7310*
X38500Y7310*
X38549Y7555*
X38550Y7556*
X38912Y7556*
X38912Y7661*
X38461Y7661*
X38373Y7195*
X38477Y7182*
X38490Y7200*
X38490Y7200*
X38506Y7217*
X38506Y7217*
X38525Y7232*
X38525Y7232*
X38545Y7245*
X38545Y7245*
X38568Y7256*
X38568Y7256*
X38591Y7264*
X38591Y7264*
X38616Y7268*
X38616Y7268*
X38643Y7270*
X38643Y7270*
X38684Y7266*
X38684Y7266*
X38721Y7256*
X38722Y7256*
X38755Y7239*
X38755Y7239*
X38784Y7214*
X38784Y7214*
X38807Y7184*
X38807Y7184*
X38824Y7149*
X38824Y7149*
X38834Y7109*
X38834Y7109*
X38837Y7063*
X38837Y7063*
X38834Y7015*
X38834Y7015*
X38823Y6973*
X38823Y6973*
X38806Y6935*
X38806Y6935*
X38781Y6902*
X38781Y6902*
X38752Y6875*
X38752Y6875*
X38719Y6856*
X38719Y6856*
X38684Y6845*
X38683Y6845*
X38645Y6841*
X38645Y6841*
X38612Y6843*
X38612Y6843*
X38582Y6852*
X38582Y6852*
X38555Y6865*
X38555Y6865*
X38530Y6884*
X38530Y6884*
X38508Y6908*
X38508Y6908*
X38491Y6938*
X38491Y6938*
X38478Y6973*
X38478Y6973*
X38469Y7013*
X38353Y7003*
X38363Y6949*
X38381Y6900*
X38408Y6857*
X38443Y6819*
X38485Y6789*
X38532Y6767*
X38586Y6754*
X38645Y6750*
X38716Y6757*
X36454Y11854D02*
X36454Y11854D01*
X36510Y11864*
X36565Y11882*
X36617Y11906*
X36665Y11937*
X36707Y11975*
X36744Y12020*
X36775Y12071*
X36799Y12127*
X36816Y12187*
X36827Y12251*
X36830Y12318*
X36827Y12385*
X36817Y12447*
X36800Y12507*
X36777Y12562*
X36748Y12613*
X36712Y12658*
X36671Y12697*
X36623Y12730*
X36571Y12756*
X36516Y12775*
X36458Y12786*
X36397Y12790*
X36305Y12782*
X36222Y12758*
X36148Y12718*
X36083Y12662*
X36030Y12592*
X35992Y12509*
X35969Y12415*
X35962Y12308*
X35965Y12249*
X35975Y12191*
X35991Y12135*
X36014Y12081*
X36043Y12030*
X36078Y11985*
X36119Y11946*
X36167Y11912*
X36219Y11885*
X36275Y11865*
X36334Y11854*
X36396Y11850*
X36454Y11854*
X36085Y12306D02*
X36085Y12306D01*
X36091Y12228*
X36108Y12159*
X36135Y12099*
X36174Y12047*
X36221Y12006*
X36273Y11976*
X36332Y11958*
X36395Y11952*
X36460Y11958*
X36519Y11976*
X36572Y12006*
X36619Y12048*
X36657Y12101*
X36685Y12163*
X36701Y12236*
X36707Y12319*
X36704Y12373*
X36697Y12423*
X36686Y12470*
X36669Y12513*
X36648Y12552*
X36623Y12586*
X36593Y12616*
X36559Y12641*
X36522Y12661*
X36483Y12675*
X36441Y12684*
X36397Y12687*
X36336Y12681*
X36279Y12665*
X36226Y12637*
X36178Y12599*
X36137Y12548*
X36108Y12482*
X36091Y12401*
X36085Y12306*
X37257Y11858D02*
X37257Y11858D01*
X37312Y11878*
X37361Y11913*
X37403Y11962*
X37404Y11962*
X37404Y11866*
X37503Y11866*
X37503Y12523*
X37392Y12523*
X37392Y12171*
X37392Y12171*
X37391Y12131*
X37391Y12131*
X37387Y12096*
X37387Y12096*
X37382Y12067*
X37382Y12067*
X37374Y12042*
X37374Y12042*
X37363Y12021*
X37363Y12021*
X37349Y12002*
X37349Y12002*
X37332Y11986*
X37332Y11986*
X37311Y11972*
X37311Y11972*
X37289Y11960*
X37289Y11960*
X37265Y11952*
X37265Y11952*
X37241Y11947*
X37241Y11947*
X37217Y11946*
X37217Y11946*
X37192Y11947*
X37192Y11947*
X37170Y11952*
X37170Y11952*
X37150Y11960*
X37150Y11960*
X37132Y11971*
X37132Y11971*
X37116Y11985*
X37116Y11985*
X37104Y12001*
X37104Y12001*
X37094Y12019*
X37094Y12019*
X37087Y12040*
X37087Y12040*
X37084Y12059*
X37084Y12059*
X37082Y12085*
X37082Y12085*
X37081Y12118*
X37081Y12118*
X37080Y12158*
X37080Y12158*
X37080Y12523*
X36970Y12523*
X36970Y12116*
X36970Y12082*
X36971Y12054*
X36973Y12030*
X36976Y12011*
X36982Y11988*
X36990Y11966*
X36999Y11947*
X37011Y11929*
X37025Y11913*
X37042Y11898*
X37062Y11885*
X37086Y11873*
X37111Y11863*
X37138Y11856*
X37166Y11852*
X37194Y11851*
X37257Y11858*
X37873Y11857D02*
X37873Y11857D01*
X37893Y11859*
X37915Y11862*
X37937Y11867*
X37921Y11964*
X37907Y11962*
X37907Y11962*
X37894Y11961*
X37894Y11961*
X37883Y11960*
X37883Y11960*
X37873Y11960*
X37873Y11960*
X37861Y11960*
X37861Y11960*
X37851Y11962*
X37851Y11962*
X37842Y11965*
X37842Y11965*
X37834Y11968*
X37834Y11968*
X37828Y11973*
X37828Y11973*
X37823Y11978*
X37823Y11978*
X37818Y11984*
X37818Y11984*
X37815Y11990*
X37815Y11990*
X37812Y11999*
X37812Y11999*
X37810Y12012*
X37810Y12012*
X37809Y12030*
X37809Y12030*
X37809Y12052*
X37809Y12052*
X37809Y12437*
X37809Y12437*
X37921Y12437*
X37921Y12523*
X37809Y12523*
X37809Y12523*
X37809Y12753*
X37699Y12686*
X37699Y12523*
X37699Y12523*
X37617Y12523*
X37617Y12437*
X37699Y12437*
X37699Y12437*
X37699Y12058*
X37700Y12012*
X37702Y11975*
X37707Y11946*
X37712Y11926*
X37721Y11911*
X37731Y11898*
X37744Y11886*
X37759Y11876*
X37778Y11868*
X37800Y11862*
X37825Y11858*
X37853Y11857*
X37873Y11857*
X38706Y11855D02*
X38706Y11855D01*
X38763Y11870*
X38815Y11896*
X38861Y11932*
X38899Y11976*
X38926Y12024*
X38943Y12076*
X38948Y12134*
X38945Y12176*
X38937Y12214*
X38923Y12249*
X38903Y12280*
X38879Y12307*
X38850Y12328*
X38816Y12345*
X38778Y12357*
X38778Y12358*
X38807Y12373*
X38833Y12391*
X38854Y12412*
X38872Y12435*
X38886Y12459*
X38895Y12485*
X38901Y12513*
X38903Y12542*
X38901Y12572*
X38895Y12602*
X38885Y12631*
X38870Y12658*
X38852Y12685*
X38830Y12708*
X38804Y12728*
X38775Y12745*
X38743Y12759*
X38709Y12769*
X38674Y12775*
X38638Y12777*
X38586Y12773*
X38539Y12762*
X38496Y12743*
X38458Y12716*
X38425Y12682*
X38398Y12642*
X38378Y12595*
X38365Y12543*
X38476Y12523*
X38484Y12561*
X38484Y12561*
X38496Y12594*
X38496Y12594*
X38512Y12622*
X38512Y12622*
X38531Y12645*
X38531Y12645*
X38555Y12663*
X38555Y12663*
X38580Y12676*
X38580Y12676*
X38609Y12684*
X38609Y12684*
X38640Y12687*
X38640Y12687*
X38672Y12684*
X38672Y12684*
X38700Y12676*
X38700Y12676*
X38726Y12664*
X38726Y12664*
X38748Y12646*
X38748Y12646*
X38766Y12625*
X38766Y12625*
X38779Y12600*
X38779Y12600*
X38787Y12574*
X38787Y12573*
X38790Y12544*
X38790Y12544*
X38786Y12508*
X38786Y12508*
X38775Y12476*
X38775Y12476*
X38757Y12450*
X38757Y12450*
X38732Y12429*
X38732Y12429*
X38703Y12413*
X38703Y12413*
X38672Y12401*
X38672Y12401*
X38639Y12394*
X38639Y12394*
X38604Y12392*
X38604Y12392*
X38600Y12392*
X38600Y12392*
X38596Y12392*
X38596Y12392*
X38591Y12392*
X38591Y12392*
X38586Y12393*
X38574Y12296*
X38596Y12301*
X38596Y12301*
X38617Y12305*
X38617Y12305*
X38635Y12307*
X38635Y12307*
X38652Y12308*
X38652Y12308*
X38689Y12305*
X38689Y12305*
X38723Y12296*
X38723Y12296*
X38753Y12280*
X38753Y12280*
X38780Y12258*
X38780Y12258*
X38802Y12232*
X38802Y12231*
X38818Y12201*
X38818Y12201*
X38827Y12168*
X38827Y12168*
X38831Y12131*
X38831Y12131*
X38827Y12092*
X38827Y12092*
X38817Y12057*
X38817Y12057*
X38800Y12024*
X38800Y12024*
X38776Y11996*
X38776Y11995*
X38747Y11972*
X38747Y11972*
X38716Y11954*
X38716Y11954*
X38681Y11944*
X38681Y11944*
X38643Y11941*
X38643Y11941*
X38611Y11943*
X38611Y11943*
X38581Y11951*
X38581Y11951*
X38554Y11964*
X38554Y11964*
X38530Y11983*
X38530Y11983*
X38508Y12007*
X38508Y12007*
X38490Y12038*
X38490Y12038*
X38476Y12076*
X38476Y12076*
X38464Y12119*
X38354Y12105*
X38364Y12051*
X38382Y12002*
X38409Y11959*
X38444Y11921*
X38486Y11889*
X38533Y11867*
X38585Y11854*
X38642Y11849*
X38706Y11855*
X36454Y4254D02*
X36454Y4254D01*
X36510Y4264*
X36565Y4282*
X36617Y4306*
X36665Y4337*
X36707Y4375*
X36744Y4420*
X36775Y4471*
X36799Y4527*
X36816Y4587*
X36827Y4651*
X36830Y4718*
X36827Y4785*
X36817Y4847*
X36800Y4907*
X36777Y4962*
X36748Y5013*
X36712Y5058*
X36671Y5097*
X36623Y5130*
X36571Y5156*
X36516Y5175*
X36458Y5186*
X36397Y5190*
X36305Y5182*
X36222Y5158*
X36148Y5118*
X36083Y5062*
X36030Y4992*
X35992Y4909*
X35969Y4815*
X35962Y4708*
X35965Y4649*
X35975Y4591*
X35991Y4535*
X36014Y4481*
X36043Y4430*
X36078Y4385*
X36119Y4346*
X36167Y4312*
X36219Y4285*
X36275Y4265*
X36334Y4254*
X36396Y4250*
X36454Y4254*
X36085Y4706D02*
X36085Y4706D01*
X36091Y4628*
X36108Y4559*
X36135Y4499*
X36174Y4447*
X36221Y4406*
X36273Y4376*
X36332Y4358*
X36395Y4352*
X36460Y4358*
X36519Y4376*
X36572Y4406*
X36619Y4448*
X36657Y4501*
X36685Y4563*
X36701Y4636*
X36707Y4719*
X36704Y4773*
X36697Y4823*
X36686Y4870*
X36669Y4913*
X36648Y4952*
X36623Y4986*
X36593Y5016*
X36559Y5041*
X36522Y5061*
X36483Y5075*
X36441Y5084*
X36397Y5087*
X36336Y5081*
X36279Y5065*
X36226Y5037*
X36178Y4999*
X36137Y4948*
X36108Y4882*
X36091Y4801*
X36085Y4706*
X37257Y4258D02*
X37257Y4258D01*
X37312Y4278*
X37361Y4313*
X37403Y4362*
X37404Y4362*
X37404Y4266*
X37503Y4266*
X37503Y4923*
X37392Y4923*
X37392Y4571*
X37392Y4571*
X37391Y4531*
X37391Y4531*
X37387Y4496*
X37387Y4496*
X37382Y4467*
X37382Y4467*
X37374Y4442*
X37374Y4442*
X37363Y4421*
X37363Y4421*
X37349Y4402*
X37349Y4402*
X37332Y4386*
X37332Y4386*
X37311Y4372*
X37311Y4372*
X37289Y4360*
X37289Y4360*
X37265Y4352*
X37265Y4352*
X37241Y4347*
X37241Y4347*
X37217Y4346*
X37217Y4346*
X37192Y4347*
X37192Y4347*
X37170Y4352*
X37170Y4352*
X37150Y4360*
X37150Y4360*
X37132Y4371*
X37132Y4371*
X37116Y4385*
X37116Y4385*
X37104Y4401*
X37104Y4401*
X37094Y4419*
X37094Y4419*
X37087Y4440*
X37087Y4440*
X37084Y4459*
X37084Y4459*
X37082Y4485*
X37082Y4485*
X37081Y4518*
X37081Y4518*
X37080Y4558*
X37080Y4558*
X37080Y4923*
X36970Y4923*
X36970Y4516*
X36970Y4482*
X36971Y4454*
X36973Y4430*
X36976Y4411*
X36982Y4388*
X36990Y4366*
X36999Y4347*
X37011Y4329*
X37025Y4313*
X37042Y4298*
X37062Y4285*
X37086Y4273*
X37111Y4263*
X37138Y4256*
X37166Y4252*
X37194Y4251*
X37257Y4258*
X37873Y4257D02*
X37873Y4257D01*
X37893Y4259*
X37915Y4262*
X37937Y4267*
X37921Y4364*
X37907Y4362*
X37907Y4362*
X37894Y4361*
X37894Y4361*
X37883Y4360*
X37883Y4360*
X37873Y4360*
X37873Y4360*
X37861Y4360*
X37861Y4360*
X37851Y4362*
X37851Y4362*
X37842Y4365*
X37842Y4365*
X37834Y4368*
X37834Y4368*
X37828Y4373*
X37828Y4373*
X37823Y4378*
X37823Y4378*
X37818Y4384*
X37818Y4384*
X37815Y4390*
X37815Y4390*
X37812Y4399*
X37812Y4399*
X37810Y4412*
X37810Y4412*
X37809Y4430*
X37809Y4430*
X37809Y4452*
X37809Y4452*
X37809Y4837*
X37809Y4837*
X37921Y4837*
X37921Y4923*
X37809Y4923*
X37809Y4923*
X37809Y5153*
X37699Y5086*
X37699Y4923*
X37699Y4923*
X37617Y4923*
X37617Y4837*
X37699Y4837*
X37699Y4837*
X37699Y4458*
X37700Y4412*
X37702Y4375*
X37707Y4346*
X37712Y4326*
X37721Y4311*
X37731Y4298*
X37744Y4286*
X37759Y4276*
X37778Y4268*
X37800Y4262*
X37825Y4258*
X37853Y4257*
X37873Y4257*
X38703Y4252D02*
X38703Y4252D01*
X38741Y4260*
X38776Y4272*
X38809Y4289*
X38840Y4311*
X38867Y4337*
X38890Y4367*
X38911Y4401*
X38927Y4439*
X38938Y4478*
X38945Y4518*
X38947Y4560*
X38942Y4622*
X38928Y4678*
X38903Y4728*
X38869Y4772*
X38828Y4808*
X38783Y4834*
X38733Y4849*
X38679Y4854*
X38648Y4852*
X38617Y4847*
X38587Y4838*
X38557Y4825*
X38529Y4808*
X38504Y4787*
X38480Y4762*
X38459Y4733*
X38458Y4733*
X38461Y4798*
X38461Y4798*
X38467Y4855*
X38467Y4855*
X38476Y4903*
X38476Y4903*
X38490Y4944*
X38490Y4944*
X38506Y4979*
X38506Y4979*
X38526Y5009*
X38526Y5009*
X38548Y5035*
X38548Y5035*
X38573Y5057*
X38573Y5057*
X38594Y5070*
X38594Y5070*
X38617Y5079*
X38617Y5079*
X38641Y5085*
X38641Y5085*
X38667Y5087*
X38667Y5087*
X38699Y5084*
X38699Y5084*
X38728Y5075*
X38728Y5075*
X38755Y5060*
X38755Y5060*
X38779Y5039*
X38779Y5039*
X38792Y5021*
X38792Y5021*
X38803Y5000*
X38803Y5000*
X38813Y4974*
X38813Y4974*
X38821Y4943*
X38931Y4952*
X38921Y5001*
X38904Y5046*
X38880Y5084*
X38849Y5117*
X38813Y5144*
X38771Y5162*
X38725Y5174*
X38674Y5177*
X38606Y5171*
X38545Y5151*
X38491Y5119*
X38445Y5073*
X38403Y5005*
X38372Y4918*
X38354Y4813*
X38348Y4690*
X38354Y4581*
X38370Y4488*
X38398Y4412*
X38436Y4352*
X38483Y4308*
X38537Y4276*
X38597Y4256*
X38663Y4250*
X38703Y4252*
X38476Y4560D02*
X38476Y4560D01*
X38478Y4531*
X38482Y4503*
X38490Y4476*
X38500Y4449*
X38514Y4424*
X38530Y4403*
X38548Y4384*
X38569Y4369*
X38591Y4357*
X38614Y4348*
X38637Y4343*
X38661Y4341*
X38696Y4345*
X38727Y4356*
X38756Y4373*
X38783Y4398*
X38805Y4429*
X38821Y4466*
X38831Y4507*
X38834Y4553*
X38831Y4598*
X38821Y4638*
X38806Y4672*
X38784Y4702*
X38757Y4726*
X38727Y4743*
X38694Y4753*
X38657Y4756*
X38621Y4753*
X38587Y4743*
X38556Y4726*
X38529Y4702*
X38506Y4673*
X38489Y4639*
X38479Y4601*
X38476Y4560*
X36454Y14454D02*
X36454Y14454D01*
X36510Y14464*
X36565Y14482*
X36617Y14506*
X36665Y14537*
X36707Y14575*
X36744Y14620*
X36775Y14671*
X36799Y14727*
X36816Y14787*
X36827Y14851*
X36830Y14918*
X36827Y14985*
X36817Y15047*
X36800Y15107*
X36777Y15162*
X36748Y15213*
X36712Y15258*
X36671Y15297*
X36623Y15330*
X36571Y15356*
X36516Y15375*
X36458Y15386*
X36397Y15390*
X36305Y15382*
X36222Y15358*
X36148Y15318*
X36083Y15262*
X36030Y15192*
X35992Y15109*
X35969Y15015*
X35962Y14908*
X35965Y14849*
X35975Y14791*
X35991Y14735*
X36014Y14681*
X36043Y14630*
X36078Y14585*
X36119Y14546*
X36167Y14512*
X36219Y14485*
X36275Y14465*
X36334Y14454*
X36396Y14450*
X36454Y14454*
X36085Y14906D02*
X36085Y14906D01*
X36091Y14828*
X36108Y14759*
X36135Y14699*
X36174Y14647*
X36221Y14606*
X36273Y14576*
X36332Y14558*
X36395Y14552*
X36460Y14558*
X36519Y14576*
X36572Y14606*
X36619Y14648*
X36657Y14701*
X36685Y14763*
X36701Y14836*
X36707Y14919*
X36704Y14973*
X36697Y15023*
X36686Y15070*
X36669Y15113*
X36648Y15152*
X36623Y15186*
X36593Y15216*
X36559Y15241*
X36522Y15261*
X36483Y15275*
X36441Y15284*
X36397Y15287*
X36336Y15281*
X36279Y15265*
X36226Y15237*
X36178Y15199*
X36137Y15148*
X36108Y15082*
X36091Y15001*
X36085Y14906*
X37257Y14458D02*
X37257Y14458D01*
X37312Y14478*
X37361Y14513*
X37403Y14562*
X37404Y14562*
X37404Y14466*
X37503Y14466*
X37503Y15123*
X37392Y15123*
X37392Y14771*
X37392Y14771*
X37391Y14731*
X37391Y14731*
X37387Y14696*
X37387Y14696*
X37382Y14667*
X37382Y14667*
X37374Y14642*
X37374Y14642*
X37363Y14621*
X37363Y14621*
X37349Y14602*
X37349Y14602*
X37332Y14586*
X37332Y14586*
X37311Y14572*
X37311Y14572*
X37289Y14560*
X37289Y14560*
X37265Y14552*
X37265Y14552*
X37241Y14547*
X37241Y14547*
X37217Y14546*
X37217Y14546*
X37192Y14547*
X37192Y14547*
X37170Y14552*
X37170Y14552*
X37150Y14560*
X37150Y14560*
X37132Y14571*
X37132Y14571*
X37116Y14585*
X37116Y14585*
X37104Y14601*
X37104Y14601*
X37094Y14619*
X37094Y14619*
X37087Y14640*
X37087Y14640*
X37084Y14659*
X37084Y14659*
X37082Y14685*
X37082Y14685*
X37081Y14718*
X37081Y14718*
X37080Y14758*
X37080Y14758*
X37080Y15123*
X36970Y15123*
X36970Y14716*
X36970Y14682*
X36971Y14654*
X36973Y14630*
X36976Y14611*
X36982Y14588*
X36990Y14566*
X36999Y14547*
X37011Y14529*
X37025Y14513*
X37042Y14498*
X37062Y14485*
X37086Y14473*
X37111Y14463*
X37138Y14456*
X37166Y14452*
X37194Y14451*
X37257Y14458*
X37873Y14457D02*
X37873Y14457D01*
X37893Y14459*
X37915Y14462*
X37937Y14467*
X37921Y14564*
X37907Y14562*
X37907Y14562*
X37894Y14561*
X37894Y14561*
X37883Y14560*
X37883Y14560*
X37873Y14560*
X37873Y14560*
X37861Y14560*
X37861Y14560*
X37851Y14562*
X37851Y14562*
X37842Y14565*
X37842Y14565*
X37834Y14568*
X37834Y14568*
X37828Y14573*
X37828Y14573*
X37823Y14578*
X37823Y14578*
X37818Y14584*
X37818Y14584*
X37815Y14590*
X37815Y14590*
X37812Y14599*
X37812Y14599*
X37810Y14612*
X37810Y14612*
X37809Y14630*
X37809Y14630*
X37809Y14652*
X37809Y14652*
X37809Y15037*
X37809Y15037*
X37921Y15037*
X37921Y15123*
X37809Y15123*
X37809Y15123*
X37809Y15353*
X37699Y15286*
X37699Y15123*
X37699Y15123*
X37617Y15123*
X37617Y15037*
X37699Y15037*
X37699Y15037*
X37699Y14658*
X37700Y14612*
X37702Y14575*
X37707Y14546*
X37712Y14526*
X37721Y14511*
X37731Y14498*
X37744Y14486*
X37759Y14476*
X37778Y14468*
X37800Y14462*
X37825Y14458*
X37853Y14457*
X37873Y14457*
X38939Y14572D02*
X38939Y14572D01*
X38493Y14572*
X38493Y14572*
X38503Y14588*
X38503Y14588*
X38514Y14603*
X38514Y14603*
X38526Y14618*
X38526Y14618*
X38540Y14633*
X38540Y14633*
X38559Y14652*
X38559Y14652*
X38587Y14677*
X38587Y14677*
X38623Y14709*
X38623Y14709*
X38669Y14748*
X38725Y14796*
X38772Y14838*
X38811Y14876*
X38841Y14907*
X38865Y14936*
X38886Y14964*
X38902Y14992*
X38915Y15018*
X38925Y15045*
X38932Y15071*
X38936Y15098*
X38937Y15125*
X38933Y15177*
X38918Y15224*
X38895Y15267*
X38861Y15305*
X38820Y15337*
X38772Y15359*
X38717Y15373*
X38655Y15377*
X38593Y15373*
X38538Y15361*
X38490Y15340*
X38448Y15310*
X38414Y15273*
X38388Y15228*
X38370Y15175*
X38360Y15115*
X38474Y15104*
X38477Y15144*
X38477Y15144*
X38486Y15180*
X38486Y15180*
X38501Y15211*
X38501Y15211*
X38523Y15237*
X38523Y15237*
X38549Y15259*
X38549Y15259*
X38579Y15274*
X38579Y15274*
X38614Y15283*
X38614Y15283*
X38652Y15286*
X38652Y15286*
X38688Y15283*
X38689Y15283*
X38721Y15275*
X38721Y15274*
X38751Y15260*
X38751Y15260*
X38776Y15240*
X38776Y15240*
X38797Y15216*
X38797Y15216*
X38812Y15189*
X38812Y15189*
X38821Y15160*
X38821Y15160*
X38824Y15128*
X38824Y15128*
X38820Y15096*
X38820Y15096*
X38811Y15063*
X38811Y15063*
X38794Y15028*
X38794Y15028*
X38772Y14993*
X38772Y14993*
X38739Y14955*
X38739Y14955*
X38695Y14910*
X38695Y14910*
X38639Y14858*
X38639Y14858*
X38571Y14801*
X38571Y14801*
X38526Y14763*
X38487Y14727*
X38453Y14694*
X38425Y14663*
X38402Y14633*
X38382Y14603*
X38365Y14573*
X38352Y14542*
X38346Y14524*
X38341Y14504*
X38339Y14485*
X38339Y14466*
X38939Y14466*
X38939Y14572*
X36761Y20274D02*
X36761Y20274D01*
X36640Y20274*
X36394Y19613*
X36381Y19576*
X36368Y19539*
X36356Y19502*
X36345Y19464*
X36344Y19464*
X36334Y19500*
X36323Y19537*
X36310Y19574*
X36297Y19613*
X36060Y20274*
X35931Y20274*
X36283Y19366*
X36406Y19366*
X36761Y20274*
X37331Y19355D02*
X37331Y19355D01*
X37394Y19369*
X37451Y19394*
X37503Y19428*
X37548Y19471*
X37586Y19523*
X37616Y19584*
X37638Y19653*
X37519Y19683*
X37504Y19630*
X37504Y19630*
X37483Y19583*
X37483Y19583*
X37456Y19543*
X37456Y19543*
X37424Y19510*
X37424Y19510*
X37387Y19485*
X37387Y19485*
X37346Y19467*
X37346Y19467*
X37301Y19456*
X37301Y19456*
X37253Y19452*
X37253Y19452*
X37212Y19455*
X37212Y19455*
X37172Y19463*
X37172Y19463*
X37134Y19476*
X37134Y19476*
X37098Y19495*
X37098Y19495*
X37065Y19519*
X37065Y19519*
X37036Y19549*
X37036Y19549*
X37012Y19584*
X37012Y19584*
X36993Y19624*
X36993Y19624*
X36978Y19669*
X36978Y19669*
X36967Y19718*
X36967Y19718*
X36961Y19771*
X36961Y19771*
X36959Y19827*
X36959Y19827*
X36961Y19872*
X36961Y19872*
X36966Y19916*
X36966Y19916*
X36975Y19959*
X36975Y19959*
X36987Y20002*
X36987Y20002*
X37004Y20042*
X37004Y20042*
X37026Y20078*
X37026Y20078*
X37054Y20110*
X37054Y20110*
X37086Y20137*
X37087Y20137*
X37124Y20159*
X37124Y20159*
X37166Y20175*
X37166Y20175*
X37212Y20184*
X37212Y20184*
X37262Y20187*
X37262Y20187*
X37306Y20184*
X37306Y20184*
X37346Y20176*
X37346Y20176*
X37381Y20162*
X37382Y20162*
X37414Y20142*
X37414Y20142*
X37442Y20116*
X37442Y20116*
X37467Y20083*
X37467Y20083*
X37488Y20043*
X37488Y20043*
X37505Y19997*
X37623Y20025*
X37601Y20084*
X37572Y20136*
X37537Y20182*
X37494Y20220*
X37444Y20250*
X37390Y20272*
X37330Y20285*
X37264Y20289*
X37206Y20286*
X37149Y20275*
X37096Y20258*
X37044Y20234*
X36997Y20204*
X36956Y20167*
X36920Y20123*
X36890Y20074*
X36866Y20019*
X36849Y19959*
X36839Y19895*
X36836Y19826*
X36839Y19762*
X36848Y19700*
X36863Y19641*
X36884Y19583*
X36911Y19530*
X36943Y19483*
X36981Y19443*
X37024Y19410*
X37073Y19384*
X37129Y19365*
X37193Y19354*
X37263Y19350*
X37331Y19355*
X38248Y19355D02*
X38248Y19355D01*
X38311Y19369*
X38368Y19394*
X38420Y19428*
X38465Y19471*
X38503Y19523*
X38533Y19584*
X38556Y19653*
X38436Y19683*
X38421Y19630*
X38421Y19630*
X38400Y19583*
X38400Y19583*
X38374Y19543*
X38374Y19543*
X38341Y19510*
X38341Y19510*
X38304Y19485*
X38304Y19485*
X38263Y19467*
X38263Y19467*
X38219Y19456*
X38219Y19456*
X38170Y19452*
X38170Y19452*
X38129Y19455*
X38129Y19455*
X38090Y19463*
X38090Y19463*
X38052Y19476*
X38052Y19476*
X38015Y19495*
X38015Y19495*
X37982Y19519*
X37982Y19519*
X37953Y19549*
X37953Y19549*
X37929Y19584*
X37929Y19584*
X37910Y19624*
X37910Y19624*
X37895Y19669*
X37895Y19669*
X37884Y19718*
X37884Y19718*
X37878Y19771*
X37878Y19771*
X37876Y19827*
X37876Y19827*
X37878Y19872*
X37878Y19872*
X37883Y19916*
X37883Y19916*
X37892Y19959*
X37892Y19959*
X37905Y20002*
X37905Y20002*
X37921Y20042*
X37921Y20042*
X37944Y20078*
X37944Y20078*
X37971Y20110*
X37971Y20110*
X38004Y20137*
X38004Y20137*
X38041Y20159*
X38041Y20159*
X38083Y20175*
X38083Y20175*
X38129Y20184*
X38129Y20184*
X38179Y20187*
X38179Y20187*
X38223Y20184*
X38223Y20184*
X38263Y20176*
X38263Y20176*
X38299Y20162*
X38299Y20162*
X38331Y20142*
X38331Y20142*
X38359Y20116*
X38359Y20116*
X38384Y20083*
X38384Y20083*
X38405Y20043*
X38405Y20043*
X38423Y19997*
X38540Y20025*
X38518Y20084*
X38490Y20136*
X38454Y20182*
X38411Y20220*
X38362Y20250*
X38307Y20272*
X38247Y20285*
X38182Y20289*
X38123Y20286*
X38066Y20275*
X38013Y20258*
X37961Y20234*
X37914Y20204*
X37873Y20167*
X37837Y20123*
X37807Y20074*
X37784Y20019*
X37767Y19959*
X37756Y19895*
X37753Y19826*
X37756Y19762*
X37765Y19700*
X37780Y19641*
X37801Y19583*
X37828Y19530*
X37860Y19483*
X37898Y19443*
X37941Y19410*
X37990Y19384*
X38047Y19365*
X38110Y19354*
X38180Y19350*
X38248Y19355*
X36454Y9354D02*
X36454Y9354D01*
X36510Y9364*
X36565Y9382*
X36617Y9406*
X36665Y9437*
X36707Y9475*
X36744Y9520*
X36775Y9571*
X36799Y9627*
X36816Y9687*
X36827Y9751*
X36830Y9818*
X36827Y9885*
X36817Y9947*
X36800Y10007*
X36777Y10062*
X36748Y10113*
X36712Y10158*
X36671Y10197*
X36623Y10230*
X36571Y10256*
X36516Y10275*
X36458Y10286*
X36397Y10290*
X36305Y10282*
X36222Y10258*
X36148Y10218*
X36083Y10162*
X36030Y10092*
X35992Y10009*
X35969Y9915*
X35962Y9808*
X35965Y9749*
X35975Y9691*
X35991Y9635*
X36014Y9581*
X36043Y9530*
X36078Y9485*
X36119Y9446*
X36167Y9412*
X36219Y9385*
X36275Y9365*
X36334Y9354*
X36396Y9350*
X36454Y9354*
X36085Y9806D02*
X36085Y9806D01*
X36091Y9728*
X36108Y9659*
X36135Y9599*
X36174Y9547*
X36221Y9506*
X36273Y9476*
X36332Y9458*
X36395Y9452*
X36460Y9458*
X36519Y9476*
X36572Y9506*
X36619Y9548*
X36657Y9601*
X36685Y9663*
X36701Y9736*
X36707Y9819*
X36704Y9873*
X36697Y9923*
X36686Y9970*
X36669Y10013*
X36648Y10052*
X36623Y10086*
X36593Y10116*
X36559Y10141*
X36522Y10161*
X36483Y10175*
X36441Y10184*
X36397Y10187*
X36336Y10181*
X36279Y10165*
X36226Y10137*
X36178Y10099*
X36137Y10048*
X36108Y9982*
X36091Y9901*
X36085Y9806*
X37257Y9358D02*
X37257Y9358D01*
X37312Y9378*
X37361Y9413*
X37403Y9462*
X37404Y9462*
X37404Y9366*
X37503Y9366*
X37503Y10023*
X37392Y10023*
X37392Y9671*
X37392Y9671*
X37391Y9631*
X37391Y9631*
X37387Y9596*
X37387Y9596*
X37382Y9567*
X37382Y9567*
X37374Y9542*
X37374Y9542*
X37363Y9521*
X37363Y9521*
X37349Y9502*
X37349Y9502*
X37332Y9486*
X37332Y9486*
X37311Y9472*
X37311Y9472*
X37289Y9460*
X37289Y9460*
X37265Y9452*
X37265Y9452*
X37241Y9447*
X37241Y9447*
X37217Y9446*
X37217Y9446*
X37192Y9447*
X37192Y9447*
X37170Y9452*
X37170Y9452*
X37150Y9460*
X37150Y9460*
X37132Y9471*
X37132Y9471*
X37116Y9485*
X37116Y9485*
X37104Y9501*
X37104Y9501*
X37094Y9519*
X37094Y9519*
X37087Y9540*
X37087Y9540*
X37084Y9559*
X37084Y9559*
X37082Y9585*
X37082Y9585*
X37081Y9618*
X37081Y9618*
X37080Y9658*
X37080Y9658*
X37080Y10023*
X36970Y10023*
X36970Y9616*
X36970Y9582*
X36971Y9554*
X36973Y9530*
X36976Y9511*
X36982Y9488*
X36990Y9466*
X36999Y9447*
X37011Y9429*
X37025Y9413*
X37042Y9398*
X37062Y9385*
X37086Y9373*
X37111Y9363*
X37138Y9356*
X37166Y9352*
X37194Y9351*
X37257Y9358*
X37873Y9357D02*
X37873Y9357D01*
X37893Y9359*
X37915Y9362*
X37937Y9367*
X37921Y9464*
X37907Y9462*
X37907Y9462*
X37894Y9461*
X37894Y9461*
X37883Y9460*
X37883Y9460*
X37873Y9460*
X37873Y9460*
X37861Y9460*
X37861Y9460*
X37851Y9462*
X37851Y9462*
X37842Y9465*
X37842Y9465*
X37834Y9468*
X37834Y9468*
X37828Y9473*
X37828Y9473*
X37823Y9478*
X37823Y9478*
X37818Y9484*
X37818Y9484*
X37815Y9490*
X37815Y9490*
X37812Y9499*
X37812Y9499*
X37810Y9512*
X37810Y9512*
X37809Y9530*
X37809Y9530*
X37809Y9552*
X37809Y9552*
X37809Y9937*
X37809Y9937*
X37921Y9937*
X37921Y10023*
X37809Y10023*
X37809Y10023*
X37809Y10253*
X37699Y10186*
X37699Y10023*
X37699Y10023*
X37617Y10023*
X37617Y9937*
X37699Y9937*
X37699Y9937*
X37699Y9558*
X37700Y9512*
X37702Y9475*
X37707Y9446*
X37712Y9426*
X37721Y9411*
X37731Y9398*
X37744Y9386*
X37759Y9376*
X37778Y9368*
X37800Y9362*
X37825Y9358*
X37853Y9357*
X37873Y9357*
X38822Y9583D02*
X38822Y9583D01*
X38822Y9583*
X38944Y9583*
X38944Y9684*
X38822Y9684*
X38822Y9685*
X38822Y10274*
X38731Y10274*
X38317Y9685*
X38317Y9583*
X38711Y9583*
X38711Y9583*
X38711Y9366*
X38822Y9366*
X38822Y9583*
X38710Y10093D02*
X38710Y10093D01*
X38427Y9685*
X38710Y9685*
X38710Y10093*
X36531Y1887D02*
X36531Y1887D01*
X36580Y1894*
X36628Y1905*
X36675Y1921*
X36722Y1941*
X36768Y1965*
X36813Y1994*
X36858Y2027*
X36858Y2363*
X36474Y2363*
X36474Y2257*
X36741Y2257*
X36741Y2257*
X36741Y2087*
X36741Y2087*
X36719Y2070*
X36719Y2070*
X36693Y2054*
X36693Y2054*
X36663Y2038*
X36663Y2038*
X36628Y2023*
X36628Y2023*
X36591Y2009*
X36590Y2009*
X36553Y2000*
X36553Y2000*
X36514Y1994*
X36514Y1994*
X36475Y1993*
X36475Y1993*
X36431Y1995*
X36431Y1995*
X36388Y2002*
X36388Y2002*
X36346Y2015*
X36346Y2015*
X36305Y2032*
X36305Y2032*
X36267Y2055*
X36267Y2055*
X36235Y2083*
X36234Y2083*
X36206Y2116*
X36206Y2116*
X36183Y2154*
X36183Y2154*
X36165Y2197*
X36165Y2198*
X36152Y2246*
X36152Y2246*
X36144Y2299*
X36144Y2299*
X36141Y2358*
X36141Y2358*
X36143Y2406*
X36143Y2406*
X36150Y2453*
X36150Y2453*
X36161Y2498*
X36161Y2498*
X36176Y2541*
X36176Y2541*
X36187Y2565*
X36187Y2565*
X36200Y2588*
X36200Y2588*
X36216Y2610*
X36216Y2610*
X36233Y2631*
X36233Y2631*
X36253Y2650*
X36253Y2650*
X36276Y2668*
X36276Y2668*
X36302Y2683*
X36302Y2683*
X36331Y2697*
X36331Y2697*
X36362Y2708*
X36362Y2708*
X36396Y2716*
X36396Y2716*
X36433Y2721*
X36434Y2721*
X36473Y2722*
X36473Y2722*
X36507Y2721*
X36507Y2721*
X36539Y2716*
X36539Y2716*
X36570Y2709*
X36570Y2709*
X36599Y2698*
X36599Y2698*
X36625Y2685*
X36625Y2685*
X36649Y2670*
X36649Y2670*
X36669Y2653*
X36669Y2653*
X36686Y2635*
X36686Y2635*
X36700Y2613*
X36700Y2613*
X36714Y2587*
X36714Y2587*
X36726Y2558*
X36726Y2558*
X36737Y2526*
X36844Y2555*
X36831Y2598*
X36815Y2638*
X36797Y2673*
X36776Y2703*
X36751Y2730*
X36722Y2754*
X36688Y2775*
X36651Y2792*
X36610Y2806*
X36567Y2816*
X36521Y2822*
X36473Y2824*
X36407Y2821*
X36345Y2810*
X36287Y2793*
X36233Y2768*
X36184Y2737*
X36141Y2698*
X36104Y2651*
X36074Y2598*
X36049Y2539*
X36032Y2478*
X36022Y2415*
X36018Y2350*
X36022Y2285*
X36032Y2223*
X36049Y2164*
X36074Y2108*
X36105Y2057*
X36143Y2012*
X36188Y1974*
X36239Y1942*
X36295Y1917*
X36354Y1899*
X36417Y1889*
X36482Y1885*
X36531Y1887*
X37750Y2809D02*
X37750Y2809D01*
X37636Y2809*
X37636Y2095*
X37635Y2095*
X37158Y2809*
X37035Y2809*
X37035Y1901*
X37149Y1901*
X37149Y2615*
X37150Y2615*
X37628Y1901*
X37750Y1901*
X37750Y2809*
X38321Y1901D02*
X38321Y1901D01*
X38359Y1904*
X38394Y1909*
X38427Y1916*
X38458Y1925*
X38486Y1935*
X38512Y1947*
X38535Y1962*
X38557Y1978*
X38578Y1997*
X38599Y2019*
X38618Y2044*
X38636Y2072*
X38652Y2103*
X38667Y2138*
X38680Y2176*
X38690Y2218*
X38698Y2262*
X38703Y2309*
X38704Y2360*
X38702Y2419*
X38695Y2474*
X38684Y2527*
X38668Y2575*
X38648Y2621*
X38624Y2661*
X38595Y2698*
X38561Y2731*
X38532Y2752*
X38500Y2770*
X38465Y2785*
X38428Y2796*
X38397Y2801*
X38360Y2805*
X38316Y2808*
X38266Y2809*
X37954Y2809*
X37954Y1901*
X38281Y1901*
X38321Y1901*
X38073Y2007D02*
X38073Y2007D01*
X38267Y2007*
X38310Y2008*
X38348Y2011*
X38380Y2017*
X38408Y2024*
X38433Y2033*
X38454Y2044*
X38474Y2057*
X38490Y2071*
X38510Y2094*
X38528Y2121*
X38544Y2152*
X38557Y2186*
X38567Y2224*
X38575Y2266*
X38579Y2312*
X38581Y2361*
X38578Y2429*
X38569Y2487*
X38554Y2538*
X38534Y2581*
X38509Y2616*
X38482Y2645*
X38452Y2667*
X38420Y2683*
X38392Y2691*
X38357Y2697*
X38314Y2701*
X38264Y2702*
X38073Y2702*
X38073Y2007*
M02*