%FSLAX33Y33*%
%MOMM*%
%ADD10C,0.508*%
%ADD11C,1.15*%
%ADD12C,1.6*%
%ADD13R,1.5X1.5*%
%ADD14C,1.5*%
D10*
%LNbottom copper_traces*%
G01*
X24535Y11375D02*
X32905Y11375D01*
X24366Y10675D02*
X23165Y9474D01*
X24366Y10675D02*
X32955Y10675D01*
X33850Y7240D02*
X32760Y7240D01*
X24535Y11375D02*
X23165Y12745D01*
X33850Y9780D02*
X32955Y10675D01*
X33850Y14860D02*
X24332Y14860D01*
X25060Y17400D02*
X23165Y19295D01*
X33850Y12320D02*
X32905Y11375D01*
X24332Y14860D02*
X23165Y16027D01*
X24620Y7650D02*
X23165Y6195D01*
X33850Y17400D02*
X25060Y17400D01*
X24944Y4700D02*
X23165Y2921D01*
X32350Y7650D02*
X24620Y7650D01*
X32760Y7240D02*
X32350Y7650D01*
X33850Y4700D02*
X24944Y4700D01*
%LNbottom copper component aa053b2b8b44c2a7*%
D11*
X3235Y2920D03*
X21015Y2920D03*
%LNbottom copper component 36decfb3b589174a*%
X3235Y19295D03*
X21015Y19295D03*
%LNbottom copper component 986be4f80f1d9bf1*%
D12*
X23165Y6198D03*
X30785Y6198D03*
%LNbottom copper component 0bb50c3a370a5149*%
D11*
X3235Y6195D03*
X21015Y6195D03*
%LNbottom copper component 80dffd5b6eb86aff*%
D13*
X33850Y19940D03*
D14*
X33850Y17400D03*
X33850Y14860D03*
X33850Y12320D03*
X33850Y9780D03*
X33850Y7240D03*
X33850Y4700D03*
X33850Y2160D03*
%LNbottom copper component 4f20bd0a8d4d9c9b*%
D12*
X23165Y12751D03*
X30785Y12751D03*
%LNbottom copper component c320a72a683a2ea0*%
D11*
X3235Y12745D03*
X21015Y12745D03*
%LNbottom copper component 15e11586f61a9aeb*%
X3235Y16020D03*
X21015Y16020D03*
%LNbottom copper component 8a836d5557ec19b0*%
D12*
X23165Y2921D03*
X30785Y2921D03*
%LNbottom copper component 865dd7107b8a0880*%
D11*
X3235Y9450D03*
X21015Y9450D03*
%LNbottom copper component fb8cf3b87e344d74*%
D12*
X23165Y19304D03*
X30785Y19304D03*
%LNbottom copper component 0cc1bf44659db686*%
X23165Y9474D03*
X30785Y9474D03*
%LNbottom copper component 7225d21d50f4679b*%
X23165Y16027D03*
X30785Y16027D03*
M02*