%FSLAX33Y33*%
%MOMM*%
%ADD10C,0.635*%
%ADD11C,3.5*%
%ADD12C,0.9*%
%ADD13C,3.25*%
%ADD14C,1.7*%
%ADD15C,1.3*%
%ADD16C,0.89*%
%ADD17C,3.25*%
D10*
%LNhole_traces*%
G01*
X9500Y33160D03*
X6500Y29350D03*
D11*
X27000Y3000D03*
D10*
X7500Y30620D03*
X4500Y26810D03*
X8500Y31890D03*
X10500Y34430D03*
D11*
X3000Y3000D03*
D10*
X3500Y25540D03*
D11*
X27000Y43000D03*
X3000Y43000D03*
D10*
X5500Y28080D03*
%LNhole component 81390542205083f1*%
D12*
X14695Y30620D03*
X14695Y28080D03*
X14695Y25540D03*
X12155Y26810D03*
X12155Y31890D03*
X12155Y29350D03*
X12155Y34430D03*
X14695Y33160D03*
X12155Y15380D03*
X12155Y12840D03*
X14695Y16650D03*
X14695Y14110D03*
X14695Y11570D03*
X14695Y19190D03*
X12155Y17920D03*
X12155Y20460D03*
D13*
X5805Y35700D03*
X5805Y10300D03*
D14*
X2125Y38500D03*
X2125Y7500D03*
%LNhole component 0e1364f0201fcbb8*%
D15*
X25224Y34040D03*
X25224Y31040D03*
X25224Y28040D03*
X19924Y34040D03*
X19924Y31040D03*
X19924Y28040D03*
X27274Y35540D03*
X27274Y26540D03*
X17874Y35540D03*
X17874Y26540D03*
%LNhole component f3fd09079bb1218d*%
D16*
X18384Y10941D03*
X18384Y13481D03*
X18384Y16021D03*
X18384Y18561D03*
X20924Y17291D03*
X20924Y14751D03*
X20924Y12211D03*
X20924Y9671D03*
D17*
X27274Y8401D03*
X27274Y19831D03*
M02*