%FSLAX33Y33*%
%MOMM*%
%AMRect-W1500000-H1500000-RO0.500*
21,1,1.5,1.5,0.,0.,270*%
%AMRect-W1900000-H1900000-RO0.500*
21,1,1.9,1.9,0.,0.,270*%
%ADD10C,0.508*%
%ADD11C,1.0668*%
%ADD12C,1.5*%
%ADD13C,3.85*%
%ADD14C,2.3*%
%ADD15Rect-W1500000-H1500000-RO0.500*%
%ADD16C,1.9*%
%ADD17Rect-W1900000-H1900000-RO0.500*%
%ADD18C,1.49*%
D10*
%LNbottom copper_traces*%
G01*
X6500Y19380D02*
X10500Y15380D01*
X3500Y17320D02*
X9250Y11570D01*
X23492Y15173D02*
X21800Y13481D01*
X9250Y11570D02*
X14695Y11570D01*
X9250Y12840D02*
X12155Y12840D01*
X18384Y15326D02*
X18384Y16021D01*
X7500Y30620D02*
X7500Y19650D01*
X8500Y31890D02*
X8500Y19920D01*
X10500Y16650D02*
X14695Y16650D01*
X5500Y28080D02*
X5500Y19110D01*
X10500Y34430D02*
X10500Y22115D01*
X4500Y26810D02*
X4500Y17590D01*
X6500Y29350D02*
X6500Y19380D01*
X23492Y15173D02*
X23492Y29308D01*
X10500Y14110D02*
X14695Y14110D01*
X9500Y33160D02*
X9500Y20190D01*
X4500Y17590D02*
X9250Y12840D01*
X22500Y16327D02*
X20924Y14751D01*
X5500Y19110D02*
X10500Y14110D01*
X19924Y31040D02*
X22500Y28464D01*
X9500Y20190D02*
X10500Y19190D01*
X10500Y15380D02*
X12155Y15380D01*
X10500Y17920D02*
X12155Y17920D01*
X18384Y15326D02*
X20229Y13481D01*
X7500Y19650D02*
X10500Y16650D01*
X10500Y19190D02*
X14695Y19190D01*
X21800Y13481D02*
X20229Y13481D01*
X25224Y31040D02*
X23492Y29308D01*
X3500Y25540D02*
X3500Y17320D01*
X8500Y19920D02*
X10500Y17920D01*
X22500Y28464D02*
X22500Y16327D01*
X10500Y22115D02*
X12155Y20460D01*
D11*
X9500Y33160D03*
X6500Y29350D03*
X7500Y30620D03*
X4500Y26810D03*
X8500Y31890D03*
X10500Y34430D03*
X3500Y25540D03*
X5500Y28080D03*
%LNbottom copper component 81390542205083f1*%
D12*
X14695Y30620D03*
X14695Y28080D03*
X14695Y25540D03*
X12155Y26810D03*
X12155Y31890D03*
X12155Y29350D03*
X14695Y33160D03*
X12155Y15380D03*
X12155Y12840D03*
X14695Y16650D03*
X14695Y14110D03*
X14695Y11570D03*
X14695Y19190D03*
X12155Y17920D03*
X12155Y20460D03*
D13*
X5805Y35700D03*
X5805Y10300D03*
D14*
X2125Y38500D03*
X2125Y7500D03*
D15*
X12155Y34430D03*
%LNbottom copper component 0e1364f0201fcbb8*%
D16*
X25224Y31040D03*
X25224Y28040D03*
X19924Y34040D03*
X19924Y31040D03*
X19924Y28040D03*
X27274Y35540D03*
X27274Y26540D03*
X17874Y35540D03*
X17874Y26540D03*
D17*
X25224Y34040D03*
%LNbottom copper component f3fd09079bb1218d*%
D18*
X18384Y10941D03*
X18384Y13481D03*
X18384Y16021D03*
X18384Y18561D03*
X20924Y17291D03*
X20924Y14751D03*
X20924Y12211D03*
X20924Y9671D03*
M02*