<?xml-stylesheet href="https://s3.amazonaws.com/maker.works.boards/css/blackpcb.css" type="text/css"?><svg xmlns="http://www.w3.org/2000/svg" version="1.1" xmlns:xlink="http://www.w3.org/1999/xlink" stroke-width="0" stroke-linecap="round" stroke-linejoin="round" width="1.2402in" height="0.6496000000000001in" id="pcb_bottom" viewBox="7.5 7.5 1240.2 649.6"><defs><circle cx="0" cy="0" r="17.5" id="tool-T10-pad-1000"/><circle cx="0" cy="0" r="29.5" id="tool-T11-pad-1001"/><circle cx="0" cy="0" r="31.5" id="tool-T12-pad-1002"/><circle cx="0" cy="0" r="21.5" id="tool-T13-pad-1003"/><circle cx="0" cy="0" r="25.5" id="tool-T14-pad-1004"/><circle cx="0" cy="0" r="29.55" id="tool-D12-pad-1007"/><rect x="-29.5275" y="-29.5275" width="59.055" height="59.055" transform="rotate(90)" id="tool-D13-pad-1008"/><rect x="-37.8" y="-49.6" width="75.6" height="99.2" id="tool-D14-pad-1009"/><g id="tool-D15-pad-1010"><rect x="-11.811" y="-37.7955" width="23.622" height="75.591" transform="rotate(360)"/><circle cx="-11.811" cy="0" r="37.7955"/><circle cx="11.811" cy="0" r="37.7955"/><circle cx="11.811" cy="0" r="37.7955"/><circle cx="-11.811" cy="0" r="37.7955"/></g><circle cx="0" cy="0" r="32.5" id="tool-D16-pad-1011"/><rect x="-32.4805" y="-32.4805" width="64.961" height="64.961" transform="rotate(180)" id="tool-D17-pad-1012"/><circle cx="0" cy="0" r="37.4" id="tool-D18-pad-1013"/><rect x="-37.4015" y="-37.4015" width="74.803" height="74.803" transform="rotate(90)" id="tool-D19-pad-1014"/><circle cx="0" cy="0" r="29.55" id="tool-D10-pad-1015"/><rect x="-29.5275" y="-29.5275" width="59.055" height="59.055" transform="rotate(90)" id="tool-D11-pad-1016"/><rect x="-37.8" y="-49.6" width="75.6" height="99.2" id="tool-D12-pad-1017"/><g id="tool-D13-pad-1018"><rect x="-11.811" y="-37.7955" width="23.622" height="75.591" transform="rotate(360)"/><circle cx="-11.811" cy="0" r="37.7955"/><circle cx="11.811" cy="0" r="37.7955"/><circle cx="11.811" cy="0" r="37.7955"/><circle cx="-11.811" cy="0" r="37.7955"/></g><circle cx="0" cy="0" r="32.5" id="tool-D14-pad-1019"/><rect x="-32.4805" y="-32.4805" width="64.961" height="64.961" transform="rotate(180)" id="tool-D15-pad-1020"/><circle cx="0" cy="0" r="37.4" id="tool-D16-pad-1021"/><rect x="-37.4015" y="-37.4015" width="74.803" height="74.803" transform="rotate(90)" id="tool-D17-pad-1022"/><g id="pcb_bottom-cu" fill="currentColor" stroke="currentColor"><path stroke-width="2" fill="none" d="M 1224.4 633.8 L 1224.4 633.8 M 1224.4 633.8 L 1178.6 633.8 M 1178.6 633.8 L 1177.9 629.7 M 1177.9 629.7 L 1188.9 625.8 M 1188.9 625.8 L 1188.9 625.8 M 1188.9 625.8 L 1198.1 620.1 M 1198.1 620.1 L 1198.1 620.1 M 1198.1 620.1 L 1205.7 612.4 M 1205.7 612.4 L 1205.7 612.4 M 1205.7 612.4 L 1211.4 603.2 M 1211.4 603.2 L 1211.4 603.2 M 1211.4 603.2 L 1215 593.1 M 1215 593.1 L 1215 593.1 M 1215 593.1 L 1216.2 582.3 M 1216.2 582.3 L 1216.2 582.3 M 1216.2 582.3 L 1215 571.6 M 1215 571.6 L 1215 571.6 M 1215 571.6 L 1211.4 561.4 M 1211.4 561.4 L 1211.4 561.4 M 1211.4 561.4 L 1205.7 552.2 M 1205.7 552.2 L 1205.7 552.2 M 1205.7 552.2 L 1198.1 544.5 M 1198.1 544.5 L 1198.1 544.5 M 1198.1 544.5 L 1188.9 538.8 M 1188.9 538.8 L 1188.9 538.8 M 1188.9 538.8 L 1178.7 535.2 M 1178.7 535.2 L 1178.7 535.2 M 1178.7 535.2 L 1172.4 534.5 M 1172.4 534.5 L 1172.4 530.1 M 1172.4 530.1 L 1178.7 529.4 M 1178.7 529.4 L 1178.7 529.4 M 1178.7 529.4 L 1188.9 525.8 M 1188.9 525.8 L 1188.9 525.8 M 1188.9 525.8 L 1198.1 520.1 M 1198.1 520.1 L 1198.1 520.1 M 1198.1 520.1 L 1205.7 512.4 M 1205.7 512.4 L 1205.7 512.4 M 1205.7 512.4 L 1211.4 503.2 M 1211.4 503.2 L 1211.4 503.2 M 1211.4 503.2 L 1215 493.1 M 1215 493.1 L 1215 493.1 M 1215 493.1 L 1216.2 482.3 M 1216.2 482.3 L 1216.2 482.3 M 1216.2 482.3 L 1215 471.6 M 1215 471.6 L 1215 471.6 M 1215 471.6 L 1211.4 461.4 M 1211.4 461.4 L 1211.4 461.4 M 1211.4 461.4 L 1205.7 452.2 M 1205.7 452.2 L 1205.7 452.2 M 1205.7 452.2 L 1198.1 444.5 M 1198.1 444.5 L 1198.1 444.5 M 1198.1 444.5 L 1188.9 438.8 M 1188.9 438.8 L 1188.9 438.8 M 1188.9 438.8 L 1178.7 435.2 M 1178.7 435.2 L 1178.7 435.2 M 1178.7 435.2 L 1172.4 434.5 M 1172.4 434.5 L 1172.4 430.1 M 1172.4 430.1 L 1178.7 429.4 M 1178.7 429.4 L 1178.7 429.4 M 1178.7 429.4 L 1188.9 425.8 M 1188.9 425.8 L 1188.9 425.8 M 1188.9 425.8 L 1198.1 420.1 M 1198.1 420.1 L 1198.1 420.1 M 1198.1 420.1 L 1205.7 412.4 M 1205.7 412.4 L 1205.7 412.4 M 1205.7 412.4 L 1211.4 403.2 M 1211.4 403.2 L 1211.4 403.2 M 1211.4 403.2 L 1215 393.1 M 1215 393.1 L 1215 393.1 M 1215 393.1 L 1216.2 382.3 M 1216.2 382.3 L 1216.2 382.3 M 1216.2 382.3 L 1215 371.6 M 1215 371.6 L 1215 371.6 M 1215 371.6 L 1211.4 361.4 M 1211.4 361.4 L 1211.4 361.4 M 1211.4 361.4 L 1205.7 352.2 M 1205.7 352.2 L 1205.7 352.2 M 1205.7 352.2 L 1198.1 344.5 M 1198.1 344.5 L 1198.1 344.5 M 1198.1 344.5 L 1188.9 338.8 M 1188.9 338.8 L 1188.9 338.8 M 1188.9 338.8 L 1178.7 335.2 M 1178.7 335.2 L 1178.7 335.2 M 1178.7 335.2 L 1172.4 334.5 M 1172.4 334.5 L 1172.4 330.1 M 1172.4 330.1 L 1178.7 329.4 M 1178.7 329.4 L 1178.7 329.4 M 1178.7 329.4 L 1188.9 325.8 M 1188.9 325.8 L 1188.9 325.8 M 1188.9 325.8 L 1198.1 320.1 M 1198.1 320.1 L 1198.1 320.1 M 1198.1 320.1 L 1205.7 312.4 M 1205.7 312.4 L 1205.7 312.4 M 1205.7 312.4 L 1211.4 303.2 M 1211.4 303.2 L 1211.4 303.2 M 1211.4 303.2 L 1215 293.1 M 1215 293.1 L 1215 293.1 M 1215 293.1 L 1216.2 282.3 M 1216.2 282.3 L 1216.2 282.3 M 1216.2 282.3 L 1215 271.6 M 1215 271.6 L 1215 271.6 M 1215 271.6 L 1211.4 261.4 M 1211.4 261.4 L 1211.4 261.4 M 1211.4 261.4 L 1205.7 252.2 M 1205.7 252.2 L 1205.7 252.2 M 1205.7 252.2 L 1198.1 244.5 M 1198.1 244.5 L 1198.1 244.5 M 1198.1 244.5 L 1188.9 238.8 M 1188.9 238.8 L 1188.9 238.8 M 1188.9 238.8 L 1178.7 235.2 M 1178.7 235.2 L 1178.7 235.2 M 1178.7 235.2 L 1172.4 234.5 M 1172.4 234.5 L 1172.4 230.1 M 1172.4 230.1 L 1178.7 229.4 M 1178.7 229.4 L 1178.7 229.4 M 1178.7 229.4 L 1188.9 225.8 M 1188.9 225.8 L 1188.9 225.8 M 1188.9 225.8 L 1198.1 220.1 M 1198.1 220.1 L 1198.1 220.1 M 1198.1 220.1 L 1205.7 212.4 M 1205.7 212.4 L 1205.7 212.4 M 1205.7 212.4 L 1211.4 203.2 M 1211.4 203.2 L 1211.4 203.2 M 1211.4 203.2 L 1215 193.1 M 1215 193.1 L 1215 193.1 M 1215 193.1 L 1216.2 182.3 M 1216.2 182.3 L 1216.2 182.3 M 1216.2 182.3 L 1215 171.6 M 1215 171.6 L 1215 171.6 M 1215 171.6 L 1211.4 161.4 M 1211.4 161.4 L 1211.4 161.4 M 1211.4 161.4 L 1205.7 152.2 M 1205.7 152.2 L 1205.7 152.2 M 1205.7 152.2 L 1198.1 144.5 M 1198.1 144.5 L 1198.1 144.5 M 1198.1 144.5 L 1188.9 138.8 M 1188.9 138.8 L 1188.9 138.8 M 1188.9 138.8 L 1178.7 135.2 M 1178.7 135.2 L 1178.7 135.2 M 1178.7 135.2 L 1167.9 134 M 1167.9 134 L 1167.9 134 M 1167.9 134 L 1157.2 135.2 M 1157.2 135.2 L 1157.2 135.2 M 1157.2 135.2 L 1147 138.8 M 1147 138.8 L 1147 138.8 M 1147 138.8 L 1137.8 144.5 M 1137.8 144.5 L 1137.8 144.5 M 1137.8 144.5 L 1130.2 152.2 M 1130.2 152.2 L 1130.2 152.2 M 1130.2 152.2 L 1124.4 161.4 M 1124.4 161.4 L 1124.4 161.4 M 1124.4 161.4 L 1120.8 171.6 M 1120.8 171.6 L 1120.8 171.6 M 1120.8 171.6 L 1119.7 182.3 M 1119.7 182.3 L 1119.7 182.3 M 1119.7 182.3 L 1120.8 193.1 M 1120.8 193.1 L 1120.8 193.1 M 1120.8 193.1 L 1124.4 203.2 M 1124.4 203.2 L 1124.4 203.2 M 1124.4 203.2 L 1130.2 212.4 M 1130.2 212.4 L 1130.2 212.4 M 1130.2 212.4 L 1137.8 220.1 M 1137.8 220.1 L 1137.8 220.1 M 1137.8 220.1 L 1147 225.8 M 1147 225.8 L 1147 225.8 M 1147 225.8 L 1157.2 229.4 M 1157.2 229.4 L 1157.2 229.4 M 1157.2 229.4 L 1163.5 230.1 M 1163.5 230.1 L 1163.5 234.5 M 1163.5 234.5 L 1157.2 235.2 M 1157.2 235.2 L 1157.2 235.2 M 1157.2 235.2 L 1147 238.8 M 1147 238.8 L 1147 238.8 M 1147 238.8 L 1137.8 244.5 M 1137.8 244.5 L 1137.8 244.5 M 1137.8 244.5 L 1130.2 252.2 M 1130.2 252.2 L 1130.2 252.2 M 1130.2 252.2 L 1124.4 261.4 M 1124.4 261.4 L 1124.4 261.4 M 1124.4 261.4 L 1120.8 271.6 M 1120.8 271.6 L 1120.8 271.6 M 1120.8 271.6 L 1119.7 282.3 M 1119.7 282.3 L 1119.7 282.3 M 1119.7 282.3 L 1120.8 293.1 M 1120.8 293.1 L 1120.8 293.1 M 1120.8 293.1 L 1124.4 303.2 M 1124.4 303.2 L 1124.4 303.2 M 1124.4 303.2 L 1130.2 312.4 M 1130.2 312.4 L 1130.2 312.4 M 1130.2 312.4 L 1137.8 320.1 M 1137.8 320.1 L 1137.8 320.1 M 1137.8 320.1 L 1147 325.8 M 1147 325.8 L 1147 325.8 M 1147 325.8 L 1157.2 329.4 M 1157.2 329.4 L 1157.2 329.4 M 1157.2 329.4 L 1163.5 330.1 M 1163.5 330.1 L 1163.5 334.5 M 1163.5 334.5 L 1157.2 335.2 M 1157.2 335.2 L 1157.2 335.2 M 1157.2 335.2 L 1147 338.8 M 1147 338.8 L 1147 338.8 M 1147 338.8 L 1137.8 344.5 M 1137.8 344.5 L 1137.8 344.5 M 1137.8 344.5 L 1130.2 352.2 M 1130.2 352.2 L 1130.2 352.2 M 1130.2 352.2 L 1124.4 361.4 M 1124.4 361.4 L 1124.4 361.4 M 1124.4 361.4 L 1120.8 371.6 M 1120.8 371.6 L 1120.8 371.6 M 1120.8 371.6 L 1119.7 382.3 M 1119.7 382.3 L 1119.7 382.3 M 1119.7 382.3 L 1120.8 393.1 M 1120.8 393.1 L 1120.8 393.1 M 1120.8 393.1 L 1124.4 403.2 M 1124.4 403.2 L 1124.4 403.2 M 1124.4 403.2 L 1130.2 412.4 M 1130.2 412.4 L 1130.2 412.4 M 1130.2 412.4 L 1137.8 420.1 M 1137.8 420.1 L 1137.8 420.1 M 1137.8 420.1 L 1147 425.8 M 1147 425.8 L 1147 425.8 M 1147 425.8 L 1157.2 429.4 M 1157.2 429.4 L 1157.2 429.4 M 1157.2 429.4 L 1163.5 430.1 M 1163.5 430.1 L 1163.5 434.5 M 1163.5 434.5 L 1157.2 435.2 M 1157.2 435.2 L 1157.2 435.2 M 1157.2 435.2 L 1147 438.8 M 1147 438.8 L 1147 438.8 M 1147 438.8 L 1137.8 444.5 M 1137.8 444.5 L 1137.8 444.5 M 1137.8 444.5 L 1130.2 452.2 M 1130.2 452.2 L 1130.2 452.2 M 1130.2 452.2 L 1124.4 461.4 M 1124.4 461.4 L 1124.4 461.4 M 1124.4 461.4 L 1120.8 471.6 M 1120.8 471.6 L 1120.8 471.6 M 1120.8 471.6 L 1119.7 482.3 M 1119.7 482.3 L 1119.7 482.3 M 1119.7 482.3 L 1120.8 493.1 M 1120.8 493.1 L 1120.8 493.1 M 1120.8 493.1 L 1124.4 503.2 M 1124.4 503.2 L 1124.4 503.2 M 1124.4 503.2 L 1130.2 512.4 M 1130.2 512.4 L 1130.2 512.4 M 1130.2 512.4 L 1137.8 520.1 M 1137.8 520.1 L 1137.8 520.1 M 1137.8 520.1 L 1147 525.8 M 1147 525.8 L 1147 525.8 M 1147 525.8 L 1157.2 529.4 M 1157.2 529.4 L 1157.2 529.4 M 1157.2 529.4 L 1163.5 530.1 M 1163.5 530.1 L 1163.5 534.5 M 1163.5 534.5 L 1157.2 535.2 M 1157.2 535.2 L 1157.2 535.2 M 1157.2 535.2 L 1147 538.8 M 1147 538.8 L 1147 538.8 M 1147 538.8 L 1137.8 544.5 M 1137.8 544.5 L 1137.8 544.5 M 1137.8 544.5 L 1130.2 552.2 M 1130.2 552.2 L 1130.2 552.2 M 1130.2 552.2 L 1124.4 561.4 M 1124.4 561.4 L 1124.4 561.4 M 1124.4 561.4 L 1120.8 571.6 M 1120.8 571.6 L 1120.8 571.6 M 1120.8 571.6 L 1119.7 582.3 M 1119.7 582.3 L 1119.7 582.3 M 1119.7 582.3 L 1120.8 593.1 M 1120.8 593.1 L 1120.8 593.1 M 1120.8 593.1 L 1124.4 603.2 M 1124.4 603.2 L 1124.4 603.2 M 1124.4 603.2 L 1130.2 612.4 M 1130.2 612.4 L 1130.2 612.4 M 1130.2 612.4 L 1137.8 620.1 M 1137.8 620.1 L 1137.8 620.1 M 1137.8 620.1 L 1147 625.8 M 1147 625.8 L 1147 625.8 M 1147 625.8 L 1158 629.7 M 1158 629.7 L 1157.3 633.8 M 1157.3 633.8 L 723.9 633.8 M 723.9 633.8 L 651.4 579.4 M 651.4 579.4 L 651.4 579.4 M 651.4 579.4 L 650.8 579.1 M 650.8 579.1 L 650.4 578.7 M 650.4 578.7 L 650.4 578.7 M 650.4 578.7 L 648.9 577.9 M 648.9 577.9 L 647.5 577 M 647.5 577 L 647.5 577 M 647.5 577 L 646.9 576.8 M 646.9 576.8 L 646.3 576.5 M 646.3 576.5 L 646.3 576.5 M 646.3 576.5 L 644.7 576 M 644.7 576 L 643.2 575.5 M 643.2 575.5 L 643.2 575.5 M 643.2 575.5 L 642.6 575.4 M 642.6 575.4 L 641.9 575.2 M 641.9 575.2 L 641.9 575.2 M 641.9 575.2 L 640.3 575.1 M 640.3 575.1 L 638.7 574.8 M 638.7 574.8 L 638.7 574.8 M 638.7 574.8 L 638.1 574.8 M 638.1 574.8 L 637.4 574.7 M 637.4 574.7 L 637.4 574.7 M 637.4 574.7 L 382 574.7 M 382 574.7 L 380.9 571.3 M 380.9 571.3 L 382.5 570.2 M 382.5 570.2 L 382.5 570.2 M 382.5 570.2 L 389.1 563.6 M 389.1 563.6 L 389.1 563.6 M 389.1 563.6 L 394.4 555.9 M 394.4 555.9 L 394.4 555.9 M 394.4 555.9 L 398.4 547.5 M 398.4 547.5 L 398.4 547.5 M 398.4 547.5 L 400.8 538.4 M 400.8 538.4 L 400.8 538.4 M 400.8 538.4 L 401.6 529.2 M 401.6 529.2 L 401.6 529.2 M 401.6 529.2 L 400.8 519.9 M 400.8 519.9 L 400.8 519.9 M 400.8 519.9 L 398.4 510.8 M 398.4 510.8 L 398.4 510.8 M 398.4 510.8 L 394.4 502.4 M 394.4 502.4 L 394.4 502.4 M 394.4 502.4 L 389.1 494.7 M 389.1 494.7 L 389.1 494.7 M 389.1 494.7 L 382.5 488.1 M 382.5 488.1 L 382.5 488.1 M 382.5 488.1 L 374.8 482.8 M 374.8 482.8 L 374.8 482.8 M 374.8 482.8 L 366.4 478.8 M 366.4 478.8 L 366.4 478.8 M 366.4 478.8 L 357.3 476.4 M 357.3 476.4 L 357.3 476.4 M 357.3 476.4 L 348.1 475.6 M 348.1 475.6 L 348.1 475.6 M 348.1 475.6 L 324.4 475.6 M 324.4 475.6 L 324.4 475.6 M 324.4 475.6 L 315.1 476.4 M 315.1 476.4 L 315.1 476.4 M 315.1 476.4 L 306.1 478.8 M 306.1 478.8 L 306.1 478.8 M 306.1 478.8 L 297.7 482.8 M 297.7 482.8 L 297.7 482.8 M 297.7 482.8 L 290 488.1 M 290 488.1 L 290 488.1 M 290 488.1 L 283.4 494.7 M 283.4 494.7 L 283.4 494.7 M 283.4 494.7 L 278.1 502.4 M 278.1 502.4 L 278.1 502.4 M 278.1 502.4 L 274.1 510.8 M 274.1 510.8 L 274.1 510.8 M 274.1 510.8 L 271.7 519.9 M 271.7 519.9 L 271.7 519.9 M 271.7 519.9 L 270.9 529.2 M 270.9 529.2 L 270.9 529.2 M 270.9 529.2 L 271.7 538.4 M 271.7 538.4 L 271.7 538.4 M 271.7 538.4 L 274.1 547.5 M 274.1 547.5 L 274.1 547.5 M 274.1 547.5 L 278.1 555.9 M 278.1 555.9 L 278.1 555.9 M 278.1 555.9 L 283.4 563.6 M 283.4 563.6 L 283.4 563.6 M 283.4 563.6 L 290 570.2 M 290 570.2 L 290 570.2 M 290 570.2 L 291.6 571.3 M 291.6 571.3 L 290.5 574.7 M 290.5 574.7 L 161.7 574.7 M 161.7 574.7 L 160.8 571 M 160.8 571 L 166.2 568.1 M 166.2 568.1 L 166.2 568.1 M 166.2 568.1 L 174.8 560.5 M 174.8 560.5 L 174.8 560.5 M 174.8 560.5 L 181.3 551.1 M 181.3 551.1 L 181.3 551.1 M 181.3 551.1 L 185.3 540.5 M 185.3 540.5 L 185.3 540.5 M 185.3 540.5 L 186.7 529.2 M 186.7 529.2 L 186.7 529.2 M 186.7 529.2 L 185.3 517.9 M 185.3 517.9 L 185.3 517.9 M 185.3 517.9 L 181.3 507.2 M 181.3 507.2 L 181.3 507.2 M 181.3 507.2 L 174.8 497.8 M 174.8 497.8 L 174.8 497.8 M 174.8 497.8 L 166.2 490.2 M 166.2 490.2 L 166.2 490.2 M 166.2 490.2 L 156.2 484.9 M 156.2 484.9 L 156.2 484.9 M 156.2 484.9 L 145.1 482.2 M 145.1 482.2 L 145.1 482.2 M 145.1 482.2 L 133.7 482.2 M 133.7 482.2 L 133.7 482.2 M 133.7 482.2 L 122.6 484.9 M 122.6 484.9 L 122.6 484.9 M 122.6 484.9 L 112.5 490.2 M 112.5 490.2 L 112.5 490.2 M 112.5 490.2 L 104 497.8 M 104 497.8 L 104 497.8 M 104 497.8 L 97.5 507.2 M 97.5 507.2 L 97.5 507.2 M 97.5 507.2 L 93.5 517.9 M 93.5 517.9 L 93.5 517.9 M 93.5 517.9 L 92.1 529.2 M 92.1 529.2 L 92.1 529.2 M 92.1 529.2 L 93.5 540.5 M 93.5 540.5 L 93.5 540.5 M 93.5 540.5 L 97.5 551.1 M 97.5 551.1 L 97.5 551.1 M 97.5 551.1 L 104 560.5 M 104 560.5 L 104 560.5 M 104 560.5 L 112.5 568.1 M 112.5 568.1 L 112.5 568.1 M 112.5 568.1 L 118 571 M 118 571 L 117.1 574.7 M 117.1 574.7 L 30.8 574.7 M 30.8 574.7 L 30.8 89.9 M 30.8 89.9 L 117.1 89.9 M 117.1 89.9 L 118 93.6 M 118 93.6 L 112.5 96.5 M 112.5 96.5 L 112.5 96.5 M 112.5 96.5 L 104 104.1 M 104 104.1 L 104 104.1 M 104 104.1 L 97.5 113.5 M 97.5 113.5 L 97.5 113.5 M 97.5 113.5 L 93.5 124.2 M 93.5 124.2 L 93.5 124.2 M 93.5 124.2 L 92.1 135.5 M 92.1 135.5 L 92.1 135.5 M 92.1 135.5 L 93.5 146.8 M 93.5 146.8 L 93.5 146.8 M 93.5 146.8 L 97.5 157.4 M 97.5 157.4 L 97.5 157.4 M 97.5 157.4 L 104 166.8 M 104 166.8 L 104 166.8 M 104 166.8 L 112.5 174.4 M 112.5 174.4 L 112.5 174.4 M 112.5 174.4 L 122.6 179.7 M 122.6 179.7 L 122.6 179.7 M 122.6 179.7 L 133.7 182.4 M 133.7 182.4 L 133.7 182.4 M 133.7 182.4 L 145.1 182.4 M 145.1 182.4 L 145.1 182.4 M 145.1 182.4 L 156.2 179.7 M 156.2 179.7 L 156.2 179.7 M 156.2 179.7 L 166.2 174.4 M 166.2 174.4 L 166.2 174.4 M 166.2 174.4 L 174.8 166.8 M 174.8 166.8 L 174.8 166.8 M 174.8 166.8 L 181.3 157.4 M 181.3 157.4 L 181.3 157.4 M 181.3 157.4 L 185.3 146.8 M 185.3 146.8 L 185.3 146.8 M 185.3 146.8 L 186.7 135.5 M 186.7 135.5 L 186.7 135.5 M 186.7 135.5 L 185.3 124.2 M 185.3 124.2 L 185.3 124.2 M 185.3 124.2 L 181.3 113.5 M 181.3 113.5 L 181.3 113.5 M 181.3 113.5 L 174.8 104.1 M 174.8 104.1 L 174.8 104.1 M 174.8 104.1 L 166.2 96.5 M 166.2 96.5 L 166.2 96.5 M 166.2 96.5 L 160.8 93.6 M 160.8 93.6 L 161.7 89.9 M 161.7 89.9 L 290.5 89.9 M 290.5 89.9 L 291.6 93.3 M 291.6 93.3 L 290 94.4 M 290 94.4 L 290 94.4 M 290 94.4 L 283.4 101 M 283.4 101 L 283.4 101 M 283.4 101 L 278.1 108.7 M 278.1 108.7 L 278.1 108.7 M 278.1 108.7 L 274.1 117.1 M 274.1 117.1 L 274.1 117.1 M 274.1 117.1 L 271.7 126.2 M 271.7 126.2 L 271.7 126.2 M 271.7 126.2 L 270.9 135.5 M 270.9 135.5 L 270.9 135.5 M 270.9 135.5 L 271.7 144.7 M 271.7 144.7 L 271.7 144.7 M 271.7 144.7 L 274.1 153.8 M 274.1 153.8 L 274.1 153.8 M 274.1 153.8 L 278.1 162.2 M 278.1 162.2 L 278.1 162.2 M 278.1 162.2 L 283.4 169.9 M 283.4 169.9 L 283.4 169.9 M 283.4 169.9 L 290 176.5 M 290 176.5 L 290 176.5 M 290 176.5 L 297.7 181.8 M 297.7 181.8 L 297.7 181.8 M 297.7 181.8 L 306.1 185.8 M 306.1 185.8 L 306.1 185.8 M 306.1 185.8 L 315.1 188.2 M 315.1 188.2 L 315.1 188.2 M 315.1 188.2 L 324.4 189 M 324.4 189 L 324.4 189 M 324.4 189 L 348.1 189 M 348.1 189 L 348.1 189 M 348.1 189 L 357.3 188.2 M 357.3 188.2 L 357.3 188.2 M 357.3 188.2 L 366.4 185.8 M 366.4 185.8 L 366.4 185.8 M 366.4 185.8 L 374.8 181.8 M 374.8 181.8 L 374.8 181.8 M 374.8 181.8 L 382.5 176.5 M 382.5 176.5 L 382.5 176.5 M 382.5 176.5 L 389.1 169.9 M 389.1 169.9 L 389.1 169.9 M 389.1 169.9 L 394.4 162.2 M 394.4 162.2 L 394.4 162.2 M 394.4 162.2 L 398.4 153.8 M 398.4 153.8 L 398.4 153.8 M 398.4 153.8 L 400.8 144.7 M 400.8 144.7 L 400.8 144.7 M 400.8 144.7 L 401.6 135.5 M 401.6 135.5 L 401.6 135.5 M 401.6 135.5 L 400.8 126.2 M 400.8 126.2 L 400.8 126.2 M 400.8 126.2 L 398.4 117.1 M 398.4 117.1 L 398.4 117.1 M 398.4 117.1 L 394.4 108.7 M 394.4 108.7 L 394.4 108.7 M 394.4 108.7 L 389.1 101 M 389.1 101 L 389.1 101 M 389.1 101 L 382.5 94.4 M 382.5 94.4 L 382.5 94.4 M 382.5 94.4 L 380.9 93.3 M 380.9 93.3 L 382 89.9 M 382 89.9 L 637.4 89.9 M 637.4 89.9 L 637.4 89.9 M 637.4 89.9 L 638.1 89.8 M 638.1 89.8 L 638.7 89.8 M 638.7 89.8 L 638.7 89.8 M 638.7 89.8 L 640.3 89.5 M 640.3 89.5 L 641.9 89.4 M 641.9 89.4 L 641.9 89.4 M 641.9 89.4 L 642.6 89.2 M 642.6 89.2 L 643.2 89.1 M 643.2 89.1 L 643.2 89.1 M 643.2 89.1 L 644.7 88.6 M 644.7 88.6 L 646.3 88.1 M 646.3 88.1 L 646.3 88.1 M 646.3 88.1 L 646.9 87.8 M 646.9 87.8 L 647.5 87.6 M 647.5 87.6 L 647.5 87.6 M 647.5 87.6 L 648.9 86.7 M 648.9 86.7 L 650.4 85.9 M 650.4 85.9 L 650.4 85.9 M 650.4 85.9 L 650.8 85.5 M 650.8 85.5 L 651.4 85.2 M 651.4 85.2 L 651.4 85.2 M 651.4 85.2 L 723.9 30.8 M 723.9 30.8 L 1224.4 30.8 M 1224.4 30.8 L 1224.4 633.8 M 927.8 476.9 L 915.9 478.3 M 915.9 478.3 L 904.7 482.2 M 904.7 482.2 L 894.6 488.6 M 894.6 488.6 L 886.2 497 M 886.2 497 L 879.9 507.1 M 879.9 507.1 L 875.9 518.3 M 875.9 518.3 L 874.6 530.1 M 874.6 530.1 L 875.9 542 M 875.9 542 L 879.9 553.2 M 879.9 553.2 L 886.2 563.3 M 886.2 563.3 L 894.6 571.7 M 894.6 571.7 L 904.7 578.1 M 904.7 578.1 L 915.9 582 M 915.9 582 L 927.8 583.3 M 927.8 583.3 L 939.6 582 M 939.6 582 L 950.8 578.1 M 950.8 578.1 L 960.9 571.7 M 960.9 571.7 L 969.4 563.3 M 969.4 563.3 L 975.7 553.2 M 975.7 553.2 L 979.6 542 M 979.6 542 L 981 530.1 M 981 530.1 L 979.6 518.3 M 979.6 518.3 L 975.7 507.1 M 975.7 507.1 L 969.4 497 M 969.4 497 L 960.9 488.6 M 960.9 488.6 L 950.8 482.2 M 950.8 482.2 L 939.6 478.3 M 939.6 478.3 L 927.8 476.9 M 607.9 144.1 L 523.2 144.1 M 523.2 144.1 L 518.2 144.6 M 518.2 144.6 L 513.4 146.1 M 513.4 146.1 L 508.9 148.4 M 508.9 148.4 L 505 151.7 M 505 151.7 L 453.8 202.9 M 453.8 202.9 L 450.6 206.8 M 450.6 206.8 L 448.2 211.2 M 448.2 211.2 L 446.8 216 M 446.8 216 L 446.3 221.1 M 446.3 221.1 L 446.3 360.8 M 446.3 360.8 L 446.8 365.9 M 446.8 365.9 L 448.2 370.7 M 448.2 370.7 L 450.6 375.2 M 450.6 375.2 L 453.8 379.1 M 453.8 379.1 L 500.5 425.8 M 500.5 425.8 L 499.6 433.7 M 499.6 433.7 L 500.9 444.5 M 500.9 444.5 L 504.8 454.7 M 504.8 454.7 L 511 463.7 M 511 463.7 L 519.2 471 M 519.2 471 L 528.8 476 M 528.8 476 L 539.4 478.7 M 539.4 478.7 L 550.4 478.7 M 550.4 478.7 L 561 476 M 561 476 L 570.6 471 M 570.6 471 L 578.8 463.7 M 578.8 463.7 L 585 454.7 M 585 454.7 L 588.9 444.5 M 588.9 444.5 L 590.2 433.7 M 590.2 433.7 L 588.9 422.9 M 588.9 422.9 L 585 412.6 M 585 412.6 L 578.8 403.6 M 578.8 403.6 L 570.6 396.4 M 570.6 396.4 L 561 391.3 M 561 391.3 L 550.4 388.7 M 550.4 388.7 L 539.4 388.7 M 539.4 388.7 L 537 389.3 M 537 389.3 L 529.2 381.5 M 529.2 381.5 L 531 378.2 M 531 378.2 L 539.4 380.3 M 539.4 380.3 L 550.4 380.3 M 550.4 380.3 L 561 377.6 M 561 377.6 L 570.6 372.5 M 570.6 372.5 L 578.8 365.3 M 578.8 365.3 L 585 356.3 M 585 356.3 L 587.9 348.9 M 587.9 348.9 L 591.9 349.6 M 591.9 349.6 L 591.9 382.5 M 591.9 382.5 L 592.5 387.5 M 592.5 387.5 L 593.9 392.4 M 593.9 392.4 L 596.3 396.8 M 596.3 396.8 L 599.5 400.7 M 599.5 400.7 L 629.8 431 M 629.8 431 L 629.5 433.7 M 629.5 433.7 L 630.8 444.5 M 630.8 444.5 L 634.7 454.7 M 634.7 454.7 L 640.9 463.7 M 640.9 463.7 L 649.1 471 M 649.1 471 L 658.8 476 M 658.8 476 L 669.4 478.7 M 669.4 478.7 L 680.3 478.7 M 680.3 478.7 L 690.9 476 M 690.9 476 L 700.6 471 M 700.6 471 L 708.8 463.7 M 708.8 463.7 L 714.9 454.7 M 714.9 454.7 L 718.8 444.5 M 718.8 444.5 L 720.1 433.7 M 720.1 433.7 L 718.8 422.9 M 718.8 422.9 L 714.9 412.6 M 714.9 412.6 L 708.8 403.6 M 708.8 403.6 L 700.6 396.4 M 700.6 396.4 L 690.9 391.3 M 690.9 391.3 L 680.3 388.7 M 680.3 388.7 L 669.4 388.7 M 669.4 388.7 L 662.2 390.5 M 662.2 390.5 L 649 377.3 M 649 377.3 L 651.6 373.8 M 651.6 373.8 L 658.8 377.6 M 658.8 377.6 L 669.4 380.3 M 669.4 380.3 L 680.3 380.3 M 680.3 380.3 L 690.9 377.6 M 690.9 377.6 L 700.6 372.5 M 700.6 372.5 L 708.8 365.3 M 708.8 365.3 L 714.9 356.3 M 714.9 356.3 L 718.8 346.1 M 718.8 346.1 L 720.1 335.3 M 720.1 335.3 L 718.8 324.4 M 718.8 324.4 L 714.9 314.2 M 714.9 314.2 L 708.8 305.2 M 708.8 305.2 L 700.6 298 M 700.6 298 L 690.9 292.9 M 690.9 292.9 L 680.3 290.3 M 680.3 290.3 L 669.4 290.3 M 669.4 290.3 L 658.8 292.9 M 658.8 292.9 L 649.1 298 M 649.1 298 L 642.7 303.6 M 642.7 303.6 L 641.6 299.8 M 641.6 299.8 L 639.2 295.3 M 639.2 295.3 L 636 291.4 M 636 291.4 L 589.3 244.7 M 589.3 244.7 L 590.2 236.8 M 590.2 236.8 L 588.9 226 M 588.9 226 L 585 215.8 M 585 215.8 L 578.8 206.8 M 578.8 206.8 L 569.9 198.9 M 569.9 198.9 L 571.2 195.7 M 571.2 195.7 L 597.2 195.7 M 597.2 195.7 L 629.5 228 M 629.5 228 L 629.5 266.4 M 629.5 266.4 L 629.7 268.8 M 629.7 268.8 L 630.3 271.2 M 630.3 271.2 L 631.2 273.5 M 631.2 273.5 L 632.5 275.6 M 632.5 275.6 L 634.1 277.5 M 634.1 277.5 L 636 279.1 M 636 279.1 L 638.1 280.4 M 638.1 280.4 L 640.4 281.4 M 640.4 281.4 L 642.8 281.9 M 642.8 281.9 L 645.3 282.1 M 645.3 282.1 L 704.4 282.1 M 704.4 282.1 L 706.8 281.9 M 706.8 281.9 L 709.2 281.4 M 709.2 281.4 L 711.5 280.4 M 711.5 280.4 L 713.6 279.1 M 713.6 279.1 L 715.5 277.5 M 715.5 277.5 L 717.1 275.6 M 717.1 275.6 L 718.4 273.5 M 718.4 273.5 L 719.4 271.2 M 719.4 271.2 L 719.9 268.8 M 719.9 268.8 L 720.1 266.4 M 720.1 266.4 L 720.1 207.3 M 720.1 207.3 L 719.9 204.8 M 719.9 204.8 L 719.4 202.4 M 719.4 202.4 L 718.4 200.1 M 718.4 200.1 L 717.1 198 M 717.1 198 L 715.5 196.1 M 715.5 196.1 L 713.6 194.5 M 713.6 194.5 L 711.5 193.2 M 711.5 193.2 L 709.2 192.3 M 709.2 192.3 L 706.8 191.7 M 706.8 191.7 L 704.4 191.5 M 704.4 191.5 L 666 191.5 M 666 191.5 L 626.1 151.7 M 626.1 151.7 L 622.2 148.4 M 622.2 148.4 L 617.8 146.1 M 617.8 146.1 L 612.9 144.6 M 612.9 144.6 L 607.9 144.1 M 177.2 266.9 L 147.3 266.9 M 147.3 266.9 L 147.3 286.6 M 147.3 286.6 L 131.5 286.6 M 131.5 286.6 L 131.5 266.9 M 131.5 266.9 L 101.6 266.9 M 101.6 266.9 L 99.1 267.1 M 99.1 267.1 L 96.7 267.7 M 96.7 267.7 L 94.4 268.6 M 94.4 268.6 L 92.3 269.9 M 92.3 269.9 L 90.4 271.5 M 90.4 271.5 L 88.8 273.4 M 88.8 273.4 L 87.5 275.5 M 87.5 275.5 L 86.6 277.8 M 86.6 277.8 L 86 280.2 M 86 280.2 L 85.8 282.7 M 85.8 282.7 L 85.8 324.4 M 85.8 324.4 L 105.5 324.4 M 105.5 324.4 L 105.5 340.2 M 105.5 340.2 L 85.8 340.2 M 85.8 340.2 L 85.8 381.9 M 85.8 381.9 L 86 384.4 M 86 384.4 L 86.6 386.8 M 86.6 386.8 L 87.5 389.1 M 87.5 389.1 L 88.8 391.2 M 88.8 391.2 L 90.4 393.1 M 90.4 393.1 L 92.3 394.7 M 92.3 394.7 L 94.4 396 M 94.4 396 L 96.7 396.9 M 96.7 396.9 L 99.1 397.5 M 99.1 397.5 L 101.6 397.7 M 101.6 397.7 L 131.5 397.7 M 131.5 397.7 L 131.5 378 M 131.5 378 L 147.3 378 M 147.3 378 L 147.3 397.7 M 147.3 397.7 L 177.2 397.7 M 177.2 397.7 L 179.7 397.5 M 179.7 397.5 L 182.1 396.9 M 182.1 396.9 L 184.4 396 M 184.4 396 L 186.5 394.7 M 186.5 394.7 L 188.4 393.1 M 188.4 393.1 L 189.9 391.2 M 189.9 391.2 L 191.2 389.1 M 191.2 389.1 L 192.2 386.8 M 192.2 386.8 L 192.8 384.4 M 192.8 384.4 L 193 381.9 M 193 381.9 L 193 340.2 M 193 340.2 L 173.2 340.2 M 173.2 340.2 L 173.2 324.4 M 173.2 324.4 L 193 324.4 M 193 324.4 L 193 282.7 M 193 282.7 L 192.8 280.2 M 192.8 280.2 L 192.2 277.8 M 192.2 277.8 L 191.2 275.5 M 191.2 275.5 L 189.9 273.4 M 189.9 273.4 L 188.4 271.5 M 188.4 271.5 L 186.5 269.9 M 186.5 269.9 L 184.4 268.6 M 184.4 268.6 L 182.1 267.7 M 182.1 267.7 L 179.7 267.1 M 179.7 267.1 L 177.2 266.9 M 927.8 280.1 L 915.9 281.4 M 915.9 281.4 L 904.7 285.4 M 904.7 285.4 L 894.6 291.7 M 894.6 291.7 L 886.2 300.1 M 886.2 300.1 L 879.9 310.2 M 879.9 310.2 L 875.9 321.4 M 875.9 321.4 L 874.6 333.3 M 874.6 333.3 L 875.9 345.1 M 875.9 345.1 L 879.9 356.4 M 879.9 356.4 L 886.2 366.4 M 886.2 366.4 L 894.6 374.9 M 894.6 374.9 L 904.7 381.2 M 904.7 381.2 L 915.9 385.1 M 915.9 385.1 L 927.8 386.5 M 927.8 386.5 L 939.6 385.1 M 939.6 385.1 L 950.8 381.2 M 950.8 381.2 L 960.9 374.9 M 960.9 374.9 L 969.4 366.4 M 969.4 366.4 L 975.7 356.4 M 975.7 356.4 L 979.6 345.1 M 979.6 345.1 L 981 333.3 M 981 333.3 L 979.6 321.4 M 979.6 321.4 L 975.7 310.2 M 975.7 310.2 L 969.4 300.1 M 969.4 300.1 L 960.9 291.7 M 960.9 291.7 L 950.8 285.4 M 950.8 285.4 L 939.6 281.4 M 939.6 281.4 L 927.8 280.1 M 341.9 285.4 L 330.5 285.4 M 330.5 285.4 L 319.5 288.1 M 319.5 288.1 L 309.4 293.4 M 309.4 293.4 L 300.8 301 M 300.8 301 L 294.4 310.3 M 294.4 310.3 L 290.3 321 M 290.3 321 L 289 332.3 M 289 332.3 L 290.3 343.6 M 290.3 343.6 L 294.4 354.3 M 294.4 354.3 L 300.8 363.6 M 300.8 363.6 L 309.4 371.2 M 309.4 371.2 L 319.5 376.5 M 319.5 376.5 L 330.5 379.2 M 330.5 379.2 L 341.9 379.2 M 341.9 379.2 L 353 376.5 M 353 376.5 L 363.1 371.2 M 363.1 371.2 L 371.6 363.6 M 371.6 363.6 L 378.1 354.3 M 378.1 354.3 L 382.1 343.6 M 382.1 343.6 L 383.5 332.3 M 383.5 332.3 L 382.1 321 M 382.1 321 L 378.1 310.3 M 378.1 310.3 L 371.6 301 M 371.6 301 L 363.1 293.4 M 363.1 293.4 L 353 288.1 M 353 288.1 L 341.9 285.4 M 721.3 32.7 L 1224.4 32.7 M 718.7 34.7 L 1224.4 34.7 M 716.1 36.6 L 1224.4 36.6 M 713.5 38.6 L 1224.4 38.6 M 710.9 40.5 L 1224.4 40.5 M 708.3 42.5 L 1224.4 42.5 M 705.7 44.4 L 1224.4 44.4 M 703.1 46.4 L 1224.4 46.4 M 700.5 48.3 L 1224.4 48.3 M 697.9 50.3 L 1224.4 50.3 M 695.3 52.2 L 1224.4 52.2 M 692.7 54.2 L 1224.4 54.2 M 690.1 56.1 L 1224.4 56.1 M 687.5 58.1 L 1224.4 58.1 M 684.9 60 L 1224.4 60 M 682.3 62 L 1224.4 62 M 679.7 64 L 1224.4 64 M 677.1 65.9 L 1224.4 65.9 M 674.5 67.9 L 1224.4 67.9 M 671.9 69.8 L 1224.4 69.8 M 669.3 71.8 L 1224.4 71.8 M 666.7 73.7 L 1224.4 73.7 M 664.1 75.6 L 1224.4 75.6 M 661.5 77.6 L 1224.4 77.6 M 658.9 79.5 L 1224.4 79.5 M 656.3 81.5 L 1224.4 81.5 M 653.7 83.4 L 1224.4 83.4 M 651 85.4 L 1224.4 85.4 M 647.9 87.3 L 1224.4 87.3 M 642.3 89.3 L 1224.4 89.3 M 30.8 91.2 L 117.5 91.2 M 161.3 91.2 L 290.9 91.2 M 381.6 91.2 L 1224.4 91.2 M 30.8 93.2 L 117.9 93.2 M 160.8 93.2 L 291.5 93.2 M 381 93.2 L 1224.4 93.2 M 30.8 95.1 L 115.2 95.1 M 163.6 95.1 L 289.3 95.1 M 383.2 95.1 L 1224.4 95.1 M 30.8 97.1 L 111.9 97.1 M 166.9 97.1 L 287.3 97.1 M 385.1 97.1 L 1224.4 97.1 M 30.8 99 L 109.7 99 M 169.1 99 L 285.4 99 M 387.1 99 L 1224.4 99 M 30.8 101 L 107.5 101 M 171.3 101 L 283.4 101 M 389 101 L 1224.4 101 M 30.8 102.9 L 105.3 102.9 M 173.5 102.9 L 282.1 102.9 M 390.4 102.9 L 1224.4 102.9 M 30.8 104.9 L 103.4 104.9 M 175.3 104.9 L 280.7 104.9 M 391.8 104.9 L 1224.4 104.9 M 30.8 106.8 L 102.1 106.8 M 176.7 106.8 L 279.4 106.8 M 393.1 106.8 L 1224.4 106.8 M 30.8 108.8 L 100.8 108.8 M 178 108.8 L 278 108.8 M 394.5 108.8 L 1224.4 108.8 M 30.8 110.7 L 99.4 110.7 M 179.4 110.7 L 277.1 110.7 M 395.4 110.7 L 1224.4 110.7 M 30.8 112.7 L 98.1 112.7 M 180.7 112.7 L 276.2 112.7 M 396.3 112.7 L 1224.4 112.7 M 30.8 114.6 L 97.1 114.6 M 181.7 114.6 L 275.3 114.6 M 397.2 114.6 L 1224.4 114.6 M 30.8 116.6 L 96.4 116.6 M 182.4 116.6 L 274.4 116.6 M 398.1 116.6 L 1224.4 116.6 M 30.8 118.5 L 95.6 118.5 M 183.2 118.5 L 273.8 118.5 M 398.7 118.5 L 1224.4 118.5 M 30.8 120.5 L 94.9 120.5 M 183.9 120.5 L 273.2 120.5 M 399.3 120.5 L 1224.4 120.5 M 30.8 122.4 L 94.1 122.4 M 184.7 122.4 L 272.7 122.4 M 399.8 122.4 L 1224.4 122.4 M 30.8 124.4 L 93.4 124.4 M 185.3 124.4 L 272.2 124.4 M 400.3 124.4 L 1224.4 124.4 M 30.8 126.3 L 93.2 126.3 M 185.6 126.3 L 271.7 126.3 M 400.8 126.3 L 1224.4 126.3 M 30.8 128.3 L 93 128.3 M 185.8 128.3 L 271.5 128.3 M 401 128.3 L 1224.4 128.3 M 30.8 130.3 L 92.7 130.3 M 186 130.3 L 271.4 130.3 M 401.1 130.3 L 1224.4 130.3 M 30.8 132.2 L 92.5 132.2 M 186.3 132.2 L 271.2 132.2 M 401.3 132.2 L 1224.4 132.2 M 30.8 134.2 L 92.3 134.2 M 186.5 134.2 L 271 134.2 M 401.5 134.2 L 1167 134.2 M 1168.8 134.2 L 1224.4 134.2 M 30.8 136.1 L 92.2 136.1 M 186.6 136.1 L 270.9 136.1 M 401.6 136.1 L 1154.8 136.1 M 1181.1 136.1 L 1224.4 136.1 M 30.8 138.1 L 92.4 138.1 M 186.4 138.1 L 271.1 138.1 M 401.4 138.1 L 1149.2 138.1 M 1186.6 138.1 L 1224.4 138.1 M 30.8 140 L 92.7 140 M 186.1 140 L 271.3 140 M 401.2 140 L 1145.1 140 M 1190.7 140 L 1224.4 140 M 30.8 141.9 L 92.9 141.9 M 185.9 141.9 L 271.4 141.9 M 401 141.9 L 1142 141.9 M 1193.8 141.9 L 1224.4 141.9 M 30.8 143.9 L 93.1 143.9 M 185.6 143.9 L 271.6 143.9 M 400.8 143.9 L 1138.9 143.9 M 1196.9 143.9 L 1224.4 143.9 M 30.8 145.8 L 93.4 145.8 M 185.4 145.8 L 272 145.8 M 400.5 145.8 L 514.2 145.8 M 617 145.8 L 1136.6 145.8 M 1199.3 145.8 L 1224.4 145.8 M 30.8 147.8 L 93.9 147.8 M 184.9 147.8 L 272.5 147.8 M 400 147.8 L 510.2 147.8 M 621 147.8 L 1134.6 147.8 M 1201.2 147.8 L 1224.4 147.8 M 30.8 149.7 L 94.6 149.7 M 184.2 149.7 L 273.1 149.7 M 399.4 149.7 L 507.3 149.7 M 623.8 149.7 L 1132.7 149.7 M 1203.2 149.7 L 1224.4 149.7 M 30.8 151.7 L 95.3 151.7 M 183.4 151.7 L 273.6 151.7 M 398.9 151.7 L 505 151.7 M 626.2 151.7 L 1130.7 151.7 M 1205.1 151.7 L 1224.4 151.7 M 30.8 153.6 L 96.1 153.6 M 182.7 153.6 L 274.1 153.6 M 398.4 153.6 L 503 153.6 M 628.1 153.6 L 1129.3 153.6 M 1206.6 153.6 L 1224.4 153.6 M 30.8 155.6 L 96.8 155.6 M 181.9 155.6 L 275 155.6 M 397.5 155.6 L 501.1 155.6 M 630.1 155.6 L 1128.1 155.6 M 1207.8 155.6 L 1224.4 155.6 M 30.8 157.5 L 97.6 157.5 M 181.2 157.5 L 275.9 157.5 M 396.6 157.5 L 499.1 157.5 M 632 157.5 L 1126.8 157.5 M 1209 157.5 L 1224.4 157.5 M 30.8 159.5 L 99 159.5 M 179.8 159.5 L 276.8 159.5 M 395.7 159.5 L 497.2 159.5 M 634 159.5 L 1125.6 159.5 M 1210.3 159.5 L 1224.4 159.5 M 30.8 161.4 L 100.3 161.4 M 178.5 161.4 L 277.7 161.4 M 394.8 161.4 L 495.2 161.4 M 635.9 161.4 L 1124.4 161.4 M 1211.4 161.4 L 1224.4 161.4 M 30.8 163.4 L 101.6 163.4 M 177.1 163.4 L 278.9 163.4 M 393.6 163.4 L 493.3 163.4 M 637.9 163.4 L 1123.7 163.4 M 1212.1 163.4 L 1224.4 163.4 M 30.8 165.3 L 103 165.3 M 175.8 165.3 L 280.3 165.3 M 392.2 165.3 L 491.3 165.3 M 639.8 165.3 L 1123.1 165.3 M 1212.8 165.3 L 1224.4 165.3 M 30.8 167.3 L 104.5 167.3 M 174.2 167.3 L 281.6 167.3 M 390.9 167.3 L 489.4 167.3 M 641.8 167.3 L 1122.4 167.3 M 1213.5 167.3 L 1224.4 167.3 M 30.8 169.2 L 106.8 169.2 M 172 169.2 L 283 169.2 M 389.5 169.2 L 487.4 169.2 M 643.7 169.2 L 1121.7 169.2 M 1214.2 169.2 L 1224.4 169.2 M 30.8 171.2 L 109 171.2 M 169.8 171.2 L 284.7 171.2 M 387.7 171.2 L 485.5 171.2 M 645.6 171.2 L 1121 171.2 M 1214.9 171.2 L 1224.4 171.2 M 30.8 173.1 L 111.2 173.1 M 167.6 173.1 L 286.7 173.1 M 385.8 173.1 L 483.5 173.1 M 647.6 173.1 L 1120.7 173.1 M 1215.2 173.1 L 1224.4 173.1 M 30.8 175.1 L 113.9 175.1 M 164.9 175.1 L 288.6 175.1 M 383.8 175.1 L 481.6 175.1 M 649.5 175.1 L 1120.5 175.1 M 1215.4 175.1 L 1224.4 175.1 M 30.8 177 L 117.6 177 M 161.2 177 L 290.8 177 M 381.7 177 L 479.6 177 M 651.5 177 L 1120.3 177 M 1215.6 177 L 1224.4 177 M 30.8 179 L 121.3 179 M 157.5 179 L 293.6 179 M 378.9 179 L 477.7 179 M 653.4 179 L 1120 179 M 1215.8 179 L 1224.4 179 M 30.8 180.9 L 127.8 180.9 M 151 180.9 L 296.4 180.9 M 376.1 180.9 L 475.7 180.9 M 655.4 180.9 L 1119.8 180.9 M 1216 180.9 L 1224.4 180.9 M 30.8 182.9 L 299.9 182.9 M 372.5 182.9 L 473.8 182.9 M 657.4 182.9 L 1119.7 182.9 M 1216.1 182.9 L 1224.4 182.9 M 30.8 184.8 L 304.1 184.8 M 368.4 184.8 L 471.8 184.8 M 659.3 184.8 L 1119.9 184.8 M 1215.9 184.8 L 1224.4 184.8 M 30.8 186.8 L 309.9 186.8 M 362.5 186.8 L 469.9 186.8 M 661.3 186.8 L 1120.2 186.8 M 1215.7 186.8 L 1224.4 186.8 M 30.8 188.7 L 321.5 188.7 M 351 188.7 L 467.9 188.7 M 663.2 188.7 L 1120.4 188.7 M 1215.5 188.7 L 1224.4 188.7 M 30.8 190.7 L 466 190.7 M 665.2 190.7 L 1120.6 190.7 M 1215.3 190.7 L 1224.4 190.7 M 30.8 192.6 L 464 192.6 M 710.1 192.6 L 1120.8 192.6 M 1215 192.6 L 1224.4 192.6 M 30.8 194.6 L 462.1 194.6 M 713.7 194.6 L 1121.4 194.6 M 1214.5 194.6 L 1224.4 194.6 M 30.8 196.6 L 460.1 196.6 M 570.8 196.6 L 598.1 196.6 M 715.9 196.6 L 1122.1 196.6 M 1213.8 196.6 L 1224.4 196.6 M 30.8 198.5 L 458.2 198.5 M 570.1 198.5 L 600 198.5 M 717.4 198.5 L 1122.8 198.5 M 1213.1 198.5 L 1224.4 198.5 M 30.8 200.5 L 456.2 200.5 M 571.7 200.5 L 601.9 200.5 M 718.6 200.5 L 1123.4 200.5 M 1212.4 200.5 L 1224.4 200.5 M 30.8 202.4 L 454.3 202.4 M 573.9 202.4 L 603.9 202.4 M 719.4 202.4 L 1124.2 202.4 M 1211.7 202.4 L 1224.4 202.4 M 30.8 204.4 L 452.6 204.4 M 576.1 204.4 L 605.8 204.4 M 719.8 204.4 L 1125.1 204.4 M 1210.7 204.4 L 1224.4 204.4 M 30.8 206.3 L 451 206.3 M 578.3 206.3 L 607.8 206.3 M 720.1 206.3 L 1126.4 206.3 M 1209.5 206.3 L 1224.4 206.3 M 30.8 208.2 L 449.8 208.2 M 579.8 208.2 L 609.7 208.2 M 720.1 208.2 L 1127.6 208.2 M 1208.3 208.2 L 1224.4 208.2 M 30.8 210.2 L 448.8 210.2 M 581.2 210.2 L 611.7 210.2 M 720.1 210.2 L 1128.8 210.2 M 1207.1 210.2 L 1224.4 210.2 M 30.8 212.1 L 447.9 212.1 M 582.5 212.1 L 613.6 212.1 M 720.1 212.1 L 1130 212.1 M 1205.8 212.1 L 1224.4 212.1 M 30.8 214.1 L 447.3 214.1 M 583.9 214.1 L 615.6 214.1 M 720.1 214.1 L 1131.9 214.1 M 1204 214.1 L 1224.4 214.1 M 30.8 216 L 446.8 216 M 585.1 216 L 617.5 216 M 720.1 216 L 1133.8 216 M 1202 216 L 1224.4 216 M 30.8 218 L 446.6 218 M 585.9 218 L 619.5 218 M 720.1 218 L 1135.8 218 M 1200.1 218 L 1224.4 218 M 30.8 219.9 L 446.4 219.9 M 586.6 219.9 L 621.4 219.9 M 720.1 219.9 L 1137.7 219.9 M 1198.1 219.9 L 1224.4 219.9 M 30.8 221.9 L 446.3 221.9 M 587.3 221.9 L 623.4 221.9 M 720.1 221.9 L 1140.8 221.9 M 1195.1 221.9 L 1224.4 221.9 M 30.8 223.8 L 446.3 223.8 M 588.1 223.8 L 625.3 223.8 M 720.1 223.8 L 1143.9 223.8 M 1192 223.8 L 1224.4 223.8 M 30.8 225.8 L 446.3 225.8 M 588.8 225.8 L 627.3 225.8 M 720.1 225.8 L 1147 225.8 M 1188.9 225.8 L 1224.4 225.8 M 30.8 227.7 L 446.3 227.7 M 589.1 227.7 L 629.2 227.7 M 720.1 227.7 L 1152.5 227.7 M 1183.3 227.7 L 1224.4 227.7 M 30.8 229.7 L 446.3 229.7 M 589.4 229.7 L 629.5 229.7 M 720.1 229.7 L 1160.1 229.7 M 1175.8 229.7 L 1224.4 229.7 M 30.8 231.6 L 446.3 231.6 M 589.6 231.6 L 629.5 231.6 M 720.1 231.6 L 1163.5 231.6 M 1172.4 231.6 L 1224.4 231.6 M 30.8 233.6 L 446.3 233.6 M 589.8 233.6 L 629.5 233.6 M 720.1 233.6 L 1163.5 233.6 M 1172.4 233.6 L 1224.4 233.6 M 30.8 235.5 L 446.3 235.5 M 590.1 235.5 L 629.5 235.5 M 720.1 235.5 L 1156.4 235.5 M 1179.5 235.5 L 1224.4 235.5 M 30.8 237.5 L 446.3 237.5 M 590.1 237.5 L 629.5 237.5 M 720.1 237.5 L 1150.8 237.5 M 1185.1 237.5 L 1224.4 237.5 M 30.8 239.4 L 446.3 239.4 M 589.9 239.4 L 629.5 239.4 M 720.1 239.4 L 1146 239.4 M 1189.9 239.4 L 1224.4 239.4 M 30.8 241.4 L 446.3 241.4 M 589.7 241.4 L 629.5 241.4 M 720.1 241.4 L 1142.9 241.4 M 1193 241.4 L 1224.4 241.4 M 30.8 243.3 L 446.3 243.3 M 589.4 243.3 L 629.5 243.3 M 720.1 243.3 L 1139.8 243.3 M 1196.1 243.3 L 1224.4 243.3 M 30.8 245.3 L 446.3 245.3 M 589.8 245.3 L 629.5 245.3 M 720.1 245.3 L 1137.1 245.3 M 1198.8 245.3 L 1224.4 245.3 M 30.8 247.2 L 446.3 247.2 M 591.8 247.2 L 629.5 247.2 M 720.1 247.2 L 1135.2 247.2 M 1200.7 247.2 L 1224.4 247.2 M 30.8 249.2 L 446.3 249.2 M 593.8 249.2 L 629.5 249.2 M 720.1 249.2 L 1133.2 249.2 M 1202.7 249.2 L 1224.4 249.2 M 30.8 251.1 L 446.3 251.1 M 595.7 251.1 L 629.5 251.1 M 720.1 251.1 L 1131.3 251.1 M 1204.6 251.1 L 1224.4 251.1 M 30.8 253.1 L 446.3 253.1 M 597.7 253.1 L 629.5 253.1 M 720.1 253.1 L 1129.6 253.1 M 1206.2 253.1 L 1224.4 253.1 M 30.8 255 L 446.3 255 M 599.6 255 L 629.5 255 M 720.1 255 L 1128.4 255 M 1207.5 255 L 1224.4 255 M 30.8 257 L 446.3 257 M 601.6 257 L 629.5 257 M 720.1 257 L 1127.2 257 M 1208.7 257 L 1224.4 257 M 30.8 259 L 446.3 259 M 603.5 259 L 629.5 259 M 720.1 259 L 1126 259 M 1209.9 259 L 1224.4 259 M 30.8 260.9 L 446.3 260.9 M 605.5 260.9 L 629.5 260.9 M 720.1 260.9 L 1124.7 260.9 M 1211.1 260.9 L 1224.4 260.9 M 30.8 262.9 L 446.3 262.9 M 607.4 262.9 L 629.5 262.9 M 720.1 262.9 L 1123.9 262.9 M 1211.9 262.9 L 1224.4 262.9 M 30.8 264.8 L 446.3 264.8 M 609.4 264.8 L 629.5 264.8 M 720.1 264.8 L 1123.2 264.8 M 1212.6 264.8 L 1224.4 264.8 M 30.8 266.8 L 446.3 266.8 M 611.3 266.8 L 629.5 266.8 M 720.1 266.8 L 1122.6 266.8 M 1213.3 266.8 L 1224.4 266.8 M 30.8 268.7 L 94.3 268.7 M 131.5 268.7 L 147.3 268.7 M 184.5 268.7 L 446.3 268.7 M 613.2 268.7 L 629.7 268.7 M 720 268.7 L 1121.9 268.7 M 1214 268.7 L 1224.4 268.7 M 30.8 270.6 L 91.5 270.6 M 131.5 270.6 L 147.3 270.6 M 187.3 270.6 L 446.3 270.6 M 615.2 270.6 L 630.1 270.6 M 719.5 270.6 L 1121.2 270.6 M 1214.7 270.6 L 1224.4 270.6 M 30.8 272.6 L 89.5 272.6 M 131.5 272.6 L 147.3 272.6 M 189.3 272.6 L 446.3 272.6 M 617.1 272.6 L 630.8 272.6 M 718.8 272.6 L 1120.8 272.6 M 1215.1 272.6 L 1224.4 272.6 M 30.8 274.5 L 88.1 274.5 M 131.5 274.5 L 147.3 274.5 M 190.6 274.5 L 446.3 274.5 M 619.1 274.5 L 631.8 274.5 M 717.8 274.5 L 1120.5 274.5 M 1215.3 274.5 L 1224.4 274.5 M 30.8 276.5 L 87.1 276.5 M 131.5 276.5 L 147.3 276.5 M 191.7 276.5 L 446.3 276.5 M 621 276.5 L 633.2 276.5 M 716.4 276.5 L 1120.3 276.5 M 1215.5 276.5 L 1224.4 276.5 M 30.8 278.4 L 86.4 278.4 M 131.5 278.4 L 147.3 278.4 M 192.3 278.4 L 446.3 278.4 M 623 278.4 L 635.2 278.4 M 714.5 278.4 L 1120.1 278.4 M 1215.8 278.4 L 1224.4 278.4 M 30.8 280.4 L 86 280.4 M 131.5 280.4 L 147.3 280.4 M 192.8 280.4 L 446.3 280.4 M 624.9 280.4 L 638.1 280.4 M 711.6 280.4 L 925.1 280.4 M 930.4 280.4 L 1119.9 280.4 M 1216 280.4 L 1224.4 280.4 M 30.8 282.3 L 85.8 282.3 M 131.5 282.3 L 147.3 282.3 M 193 282.3 L 446.3 282.3 M 626.9 282.3 L 913.3 282.3 M 942.2 282.3 L 1119.7 282.3 M 1216.2 282.3 L 1224.4 282.3 M 30.8 284.3 L 85.8 284.3 M 131.5 284.3 L 147.3 284.3 M 193 284.3 L 446.3 284.3 M 628.8 284.3 L 907.7 284.3 M 947.8 284.3 L 1119.9 284.3 M 1216 284.3 L 1224.4 284.3 M 30.8 286.2 L 85.8 286.2 M 131.5 286.2 L 147.3 286.2 M 193 286.2 L 326.9 286.2 M 345.5 286.2 L 446.3 286.2 M 630.8 286.2 L 903.3 286.2 M 952.3 286.2 L 1120.1 286.2 M 1215.8 286.2 L 1224.4 286.2 M 30.8 288.2 L 85.8 288.2 M 193 288.2 L 319.3 288.2 M 353.2 288.2 L 446.3 288.2 M 632.7 288.2 L 900.2 288.2 M 955.4 288.2 L 1120.3 288.2 M 1215.5 288.2 L 1224.4 288.2 M 30.8 290.1 L 85.8 290.1 M 193 290.1 L 315.6 290.1 M 356.9 290.1 L 446.3 290.1 M 634.7 290.1 L 897.1 290.1 M 958.5 290.1 L 1120.5 290.1 M 1215.3 290.1 L 1224.4 290.1 M 30.8 292.1 L 85.8 292.1 M 193 292.1 L 311.8 292.1 M 360.6 292.1 L 446.3 292.1 M 636.5 292.1 L 661.9 292.1 M 687.7 292.1 L 894.2 292.1 M 961.3 292.1 L 1120.8 292.1 M 1215.1 292.1 L 1224.4 292.1 M 30.8 294 L 85.8 294 M 193 294 L 308.6 294 M 363.8 294 L 446.3 294 M 638.1 294 L 656.6 294 M 693.1 294 L 892.3 294 M 963.3 294 L 1121.2 294 M 1214.6 294 L 1224.4 294 M 30.8 296 L 85.8 296 M 193 296 L 306.4 296 M 366 296 L 446.3 296 M 639.5 296 L 652.8 296 M 696.8 296 L 890.3 296 M 965.3 296 L 1121.9 296 M 1214 296 L 1224.4 296 M 30.8 297.9 L 85.8 297.9 M 193 297.9 L 304.2 297.9 M 368.2 297.9 L 446.3 297.9 M 640.6 297.9 L 649.1 297.9 M 700.5 297.9 L 888.4 297.9 M 967.2 297.9 L 1122.6 297.9 M 1213.3 297.9 L 1224.4 297.9 M 30.8 299.9 L 85.8 299.9 M 193 299.9 L 302 299.9 M 370.5 299.9 L 446.3 299.9 M 641.6 299.9 L 646.9 299.9 M 702.7 299.9 L 886.4 299.9 M 969.2 299.9 L 1123.3 299.9 M 1212.6 299.9 L 1224.4 299.9 M 30.8 301.8 L 85.8 301.8 M 193 301.8 L 300.2 301.8 M 372.3 301.8 L 446.3 301.8 M 642.2 301.8 L 644.7 301.8 M 704.9 301.8 L 885.1 301.8 M 970.5 301.8 L 1124 301.8 M 1211.9 301.8 L 1224.4 301.8 M 30.8 303.8 L 85.8 303.8 M 193 303.8 L 298.9 303.8 M 373.6 303.8 L 446.3 303.8 M 707.1 303.8 L 883.9 303.8 M 971.7 303.8 L 1124.8 303.8 M 1211.1 303.8 L 1224.4 303.8 M 30.8 305.7 L 85.8 305.7 M 193 305.7 L 297.5 305.7 M 374.9 305.7 L 446.3 305.7 M 709.1 305.7 L 882.7 305.7 M 972.9 305.7 L 1126 305.7 M 1209.9 305.7 L 1224.4 305.7 M 30.8 307.7 L 85.8 307.7 M 193 307.7 L 296.2 307.7 M 376.3 307.7 L 446.3 307.7 M 710.5 307.7 L 881.4 307.7 M 974.1 307.7 L 1127.2 307.7 M 1208.6 307.7 L 1224.4 307.7 M 30.8 309.6 L 85.8 309.6 M 193 309.6 L 294.8 309.6 M 377.7 309.6 L 446.3 309.6 M 711.8 309.6 L 880.2 309.6 M 975.3 309.6 L 1128.4 309.6 M 1207.4 309.6 L 1224.4 309.6 M 30.8 311.6 L 85.8 311.6 M 193 311.6 L 293.9 311.6 M 378.6 311.6 L 446.3 311.6 M 713.2 311.6 L 879.4 311.6 M 976.2 311.6 L 1129.7 311.6 M 1206.2 311.6 L 1224.4 311.6 M 30.8 313.5 L 85.8 313.5 M 193 313.5 L 293.1 313.5 M 379.4 313.5 L 446.3 313.5 M 714.5 313.5 L 878.7 313.5 M 976.9 313.5 L 1131.3 313.5 M 1204.5 313.5 L 1224.4 313.5 M 30.8 315.5 L 85.8 315.5 M 193 315.5 L 292.4 315.5 M 380.1 315.5 L 446.3 315.5 M 715.5 315.5 L 878 315.5 M 977.5 315.5 L 1133.3 315.5 M 1202.6 315.5 L 1224.4 315.5 M 30.8 317.4 L 85.8 317.4 M 193 317.4 L 291.7 317.4 M 380.8 317.4 L 446.3 317.4 M 716.2 317.4 L 877.3 317.4 M 978.2 317.4 L 1135.2 317.4 M 1200.6 317.4 L 1224.4 317.4 M 30.8 319.4 L 85.8 319.4 M 193 319.4 L 290.9 319.4 M 381.6 319.4 L 446.3 319.4 M 716.9 319.4 L 876.6 319.4 M 978.9 319.4 L 1137.2 319.4 M 1198.7 319.4 L 1224.4 319.4 M 30.8 321.3 L 85.8 321.3 M 193 321.3 L 290.3 321.3 M 382.2 321.3 L 446.3 321.3 M 717.7 321.3 L 876 321.3 M 979.6 321.3 L 1139.9 321.3 M 1196 321.3 L 1224.4 321.3 M 30.8 323.3 L 85.8 323.3 M 193 323.3 L 290.1 323.3 M 382.4 323.3 L 446.3 323.3 M 718.4 323.3 L 875.7 323.3 M 979.9 323.3 L 1143 323.3 M 1192.9 323.3 L 1224.4 323.3 M 30.8 325.3 L 105.5 325.3 M 173.2 325.3 L 289.8 325.3 M 382.7 325.3 L 446.3 325.3 M 718.9 325.3 L 875.5 325.3 M 980.1 325.3 L 1146.1 325.3 M 1189.7 325.3 L 1224.4 325.3 M 30.8 327.2 L 105.5 327.2 M 173.2 327.2 L 289.6 327.2 M 382.9 327.2 L 446.3 327.2 M 719.2 327.2 L 875.3 327.2 M 980.3 327.2 L 1151 327.2 M 1184.9 327.2 L 1224.4 327.2 M 30.8 329.2 L 105.5 329.2 M 173.2 329.2 L 289.4 329.2 M 383.1 329.2 L 446.3 329.2 M 719.4 329.2 L 875.1 329.2 M 980.5 329.2 L 1156.6 329.2 M 1179.3 329.2 L 1224.4 329.2 M 30.8 331.1 L 105.5 331.1 M 173.2 331.1 L 289.1 331.1 M 383.4 331.1 L 446.3 331.1 M 719.6 331.1 L 874.8 331.1 M 980.7 331.1 L 1163.5 331.1 M 1172.4 331.1 L 1224.4 331.1 M 30.8 333.1 L 105.5 333.1 M 173.2 333.1 L 289 333.1 M 383.4 333.1 L 446.3 333.1 M 719.9 333.1 L 874.6 333.1 M 981 333.1 L 1163.5 333.1 M 1172.4 333.1 L 1224.4 333.1 M 30.8 335 L 105.5 335 M 173.2 335 L 289.3 335 M 383.2 335 L 446.3 335 M 720.1 335 L 874.8 335 M 980.8 335 L 1159.5 335 M 1176.4 335 L 1224.4 335 M 30.8 336.9 L 105.5 336.9 M 173.2 336.9 L 289.5 336.9 M 383 336.9 L 446.3 336.9 M 719.9 336.9 L 875 336.9 M 980.6 336.9 L 1152.3 336.9 M 1183.5 336.9 L 1224.4 336.9 M 30.8 338.9 L 105.5 338.9 M 173.2 338.9 L 289.7 338.9 M 382.7 338.9 L 446.3 338.9 M 719.7 338.9 L 875.2 338.9 M 980.3 338.9 L 1146.9 338.9 M 1189 338.9 L 1224.4 338.9 M 30.8 340.8 L 85.8 340.8 M 193 340.8 L 290 340.8 M 382.5 340.8 L 446.3 340.8 M 719.5 340.8 L 875.4 340.8 M 980.1 340.8 L 1143.8 340.8 M 1192.1 340.8 L 1224.4 340.8 M 30.8 342.8 L 85.8 342.8 M 193 342.8 L 290.2 342.8 M 382.3 342.8 L 446.3 342.8 M 719.2 342.8 L 875.6 342.8 M 979.9 342.8 L 1140.6 342.8 M 1195.2 342.8 L 1224.4 342.8 M 30.8 344.7 L 85.8 344.7 M 193 344.7 L 290.7 344.7 M 381.8 344.7 L 446.3 344.7 M 719 344.7 L 875.9 344.7 M 979.7 344.7 L 1137.7 344.7 M 1198.2 344.7 L 1224.4 344.7 M 30.8 346.7 L 85.8 346.7 M 193 346.7 L 291.5 346.7 M 381 346.7 L 446.3 346.7 M 718.6 346.7 L 876.5 346.7 M 979.1 346.7 L 1135.7 346.7 M 1200.1 346.7 L 1224.4 346.7 M 30.8 348.6 L 85.8 348.6 M 193 348.6 L 292.2 348.6 M 380.3 348.6 L 446.3 348.6 M 717.9 348.6 L 877.1 348.6 M 978.4 348.6 L 1133.8 348.6 M 1202.1 348.6 L 1224.4 348.6 M 30.8 350.6 L 85.8 350.6 M 193 350.6 L 293 350.6 M 379.5 350.6 L 446.3 350.6 M 587.2 350.6 L 591.9 350.6 M 717.1 350.6 L 877.8 350.6 M 977.7 350.6 L 1131.8 350.6 M 1204 350.6 L 1224.4 350.6 M 30.8 352.5 L 85.8 352.5 M 193 352.5 L 293.7 352.5 M 378.8 352.5 L 446.3 352.5 M 586.5 352.5 L 591.9 352.5 M 716.4 352.5 L 878.5 352.5 M 977 352.5 L 1130 352.5 M 1205.9 352.5 L 1224.4 352.5 M 30.8 354.5 L 85.8 354.5 M 193 354.5 L 294.5 354.5 M 378 354.5 L 446.3 354.5 M 585.7 354.5 L 591.9 354.5 M 715.6 354.5 L 879.2 354.5 M 976.4 354.5 L 1128.8 354.5 M 1207.1 354.5 L 1224.4 354.5 M 30.8 356.4 L 85.8 356.4 M 193 356.4 L 295.8 356.4 M 376.6 356.4 L 446.3 356.4 M 584.9 356.4 L 591.9 356.4 M 714.9 356.4 L 879.9 356.4 M 975.6 356.4 L 1127.5 356.4 M 1208.3 356.4 L 1224.4 356.4 M 30.8 358.4 L 85.8 358.4 M 193 358.4 L 297.2 358.4 M 375.3 358.4 L 446.3 358.4 M 583.6 358.4 L 591.9 358.4 M 713.5 358.4 L 881.1 358.4 M 974.4 358.4 L 1126.3 358.4 M 1209.5 358.4 L 1224.4 358.4 M 30.8 360.3 L 85.8 360.3 M 193 360.3 L 298.6 360.3 M 373.9 360.3 L 446.3 360.3 M 582.3 360.3 L 591.9 360.3 M 712.2 360.3 L 882.3 360.3 M 973.2 360.3 L 1125.1 360.3 M 1210.8 360.3 L 1224.4 360.3 M 30.8 362.3 L 85.8 362.3 M 193 362.3 L 299.9 362.3 M 372.6 362.3 L 446.4 362.3 M 580.9 362.3 L 591.9 362.3 M 710.8 362.3 L 883.6 362.3 M 972 362.3 L 1124.1 362.3 M 1211.8 362.3 L 1224.4 362.3 M 30.8 364.2 L 85.8 364.2 M 193 364.2 L 301.5 364.2 M 371 364.2 L 446.6 364.2 M 579.6 364.2 L 591.9 364.2 M 709.5 364.2 L 884.8 364.2 M 970.8 364.2 L 1123.4 364.2 M 1212.4 364.2 L 1224.4 364.2 M 30.8 366.2 L 85.8 366.2 M 193 366.2 L 303.7 366.2 M 368.8 366.2 L 446.9 366.2 M 577.9 366.2 L 591.9 366.2 M 707.8 366.2 L 886 366.2 M 969.5 366.2 L 1122.8 366.2 M 1213.1 366.2 L 1224.4 366.2 M 30.8 368.1 L 85.8 368.1 M 193 368.1 L 305.9 368.1 M 366.6 368.1 L 447.5 368.1 M 575.6 368.1 L 591.9 368.1 M 705.6 368.1 L 887.9 368.1 M 967.7 368.1 L 1122.1 368.1 M 1213.8 368.1 L 1224.4 368.1 M 30.8 370.1 L 85.8 370.1 M 193 370.1 L 308.1 370.1 M 364.4 370.1 L 448.1 370.1 M 573.4 370.1 L 591.9 370.1 M 703.4 370.1 L 889.8 370.1 M 965.7 370.1 L 1121.4 370.1 M 1214.5 370.1 L 1224.4 370.1 M 30.8 372 L 85.8 372 M 193 372 L 310.9 372 M 361.6 372 L 449 372 M 571.2 372 L 591.9 372 M 701.2 372 L 891.8 372 M 963.8 372 L 1120.8 372 M 1215.1 372 L 1224.4 372 M 30.8 374 L 85.8 374 M 193 374 L 314.6 374 M 357.9 374 L 450 374 M 567.9 374 L 591.9 374 M 651.5 374 L 651.8 374 M 697.9 374 L 893.7 374 M 961.8 374 L 1120.6 374 M 1215.3 374 L 1224.4 374 M 30.8 375.9 L 85.8 375.9 M 193 375.9 L 318.4 375.9 M 354.1 375.9 L 451.2 375.9 M 564.2 375.9 L 591.9 375.9 M 650.1 375.9 L 655.5 375.9 M 694.1 375.9 L 896.3 375.9 M 959.3 375.9 L 1120.4 375.9 M 1215.5 375.9 L 1224.4 375.9 M 30.8 377.9 L 85.8 377.9 M 193 377.9 L 325 377.9 M 347.5 377.9 L 452.9 377.9 M 559.9 377.9 L 591.9 377.9 M 649.6 377.9 L 659.8 377.9 M 689.9 377.9 L 899.4 377.9 M 956.2 377.9 L 1120.2 377.9 M 1215.7 377.9 L 1224.4 377.9 M 30.8 379.8 L 85.8 379.8 M 131.5 379.8 L 147.3 379.8 M 193 379.8 L 454.6 379.8 M 530.1 379.8 L 537.8 379.8 M 552 379.8 L 591.9 379.8 M 651.6 379.8 L 667.7 379.8 M 681.9 379.8 L 902.5 379.8 M 953.1 379.8 L 1119.9 379.8 M 1215.9 379.8 L 1224.4 379.8 M 30.8 381.8 L 85.8 381.8 M 131.5 381.8 L 147.3 381.8 M 193 381.8 L 456.5 381.8 M 529.5 381.8 L 591.9 381.8 M 653.5 381.8 L 906.3 381.8 M 949.2 381.8 L 1119.7 381.8 M 1216.2 381.8 L 1224.4 381.8 M 30.8 383.7 L 85.9 383.7 M 131.5 383.7 L 147.3 383.7 M 192.9 383.7 L 458.5 383.7 M 531.4 383.7 L 592.1 383.7 M 655.5 383.7 L 911.9 383.7 M 943.6 383.7 L 1119.8 383.7 M 1216 383.7 L 1224.4 383.7 M 30.8 385.7 L 86.3 385.7 M 131.5 385.7 L 147.3 385.7 M 192.5 385.7 L 460.4 385.7 M 533.4 385.7 L 592.3 385.7 M 657.4 385.7 L 920.7 385.7 M 934.9 385.7 L 1120.1 385.7 M 1215.8 385.7 L 1224.4 385.7 M 30.8 387.6 L 86.9 387.6 M 131.5 387.6 L 147.3 387.6 M 191.9 387.6 L 462.4 387.6 M 535.3 387.6 L 592.5 387.6 M 659.4 387.6 L 1120.3 387.6 M 1215.6 387.6 L 1224.4 387.6 M 30.8 389.6 L 87.8 389.6 M 131.5 389.6 L 147.3 389.6 M 191 389.6 L 464.3 389.6 M 554 389.6 L 593.1 389.6 M 661.3 389.6 L 665.7 389.6 M 684 389.6 L 1120.5 389.6 M 1215.4 389.6 L 1224.4 389.6 M 30.8 391.6 L 89.1 391.6 M 131.5 391.6 L 147.3 391.6 M 189.7 391.6 L 466.3 391.6 M 561.4 391.6 L 593.6 391.6 M 691.4 391.6 L 1120.7 391.6 M 1215.2 391.6 L 1224.4 391.6 M 30.8 393.5 L 90.9 393.5 M 131.5 393.5 L 147.3 393.5 M 187.9 393.5 L 468.2 393.5 M 565.1 393.5 L 594.5 393.5 M 695.1 393.5 L 1121 393.5 M 1214.8 393.5 L 1224.4 393.5 M 30.8 395.5 L 93.5 395.5 M 131.5 395.5 L 147.3 395.5 M 185.3 395.5 L 470.2 395.5 M 568.8 395.5 L 595.5 395.5 M 698.8 395.5 L 1121.7 395.5 M 1214.2 395.5 L 1224.4 395.5 M 30.8 397.4 L 98.6 397.4 M 131.5 397.4 L 147.3 397.4 M 180.2 397.4 L 472.1 397.4 M 571.8 397.4 L 596.8 397.4 M 701.7 397.4 L 1122.4 397.4 M 1213.5 397.4 L 1224.4 397.4 M 30.8 399.4 L 474.1 399.4 M 574 399.4 L 598.3 399.4 M 703.9 399.4 L 1123.1 399.4 M 1212.8 399.4 L 1224.4 399.4 M 30.8 401.3 L 476 401.3 M 576.2 401.3 L 600.1 401.3 M 706.1 401.3 L 1123.8 401.3 M 1212.1 401.3 L 1224.4 401.3 M 30.8 403.2 L 478 403.2 M 578.4 403.2 L 602 403.2 M 708.3 403.2 L 1124.4 403.2 M 1211.4 403.2 L 1224.4 403.2 M 30.8 405.2 L 479.9 405.2 M 579.9 405.2 L 604 405.2 M 709.8 405.2 L 1125.6 405.2 M 1210.2 405.2 L 1224.4 405.2 M 30.8 407.1 L 481.9 407.1 M 581.2 407.1 L 605.9 407.1 M 711.2 407.1 L 1126.9 407.1 M 1209 407.1 L 1224.4 407.1 M 30.8 409.1 L 483.8 409.1 M 582.6 409.1 L 607.9 409.1 M 712.5 409.1 L 1128.1 409.1 M 1207.7 409.1 L 1224.4 409.1 M 30.8 411 L 485.8 411 M 584 411 L 609.8 411 M 713.9 411 L 1129.4 411 M 1206.5 411 L 1224.4 411 M 30.8 413 L 487.7 413 M 585.2 413 L 611.8 413 M 715.1 413 L 1130.8 413 M 1205.1 413 L 1224.4 413 M 30.8 414.9 L 489.7 414.9 M 585.9 414.9 L 613.7 414.9 M 715.8 414.9 L 1132.7 414.9 M 1203.1 414.9 L 1224.4 414.9 M 30.8 416.9 L 491.6 416.9 M 586.7 416.9 L 615.6 416.9 M 716.6 416.9 L 1134.7 416.9 M 1201.2 416.9 L 1224.4 416.9 M 30.8 418.8 L 493.6 418.8 M 587.4 418.8 L 617.6 418.8 M 717.3 418.8 L 1136.6 418.8 M 1199.2 418.8 L 1224.4 418.8 M 30.8 420.8 L 495.5 420.8 M 588.1 420.8 L 619.5 420.8 M 718.1 420.8 L 1139 420.8 M 1196.8 420.8 L 1224.4 420.8 M 30.8 422.7 L 497.5 422.7 M 588.9 422.7 L 621.5 422.7 M 718.8 422.7 L 1142.1 422.7 M 1193.7 422.7 L 1224.4 422.7 M 30.8 424.7 L 499.4 424.7 M 589.2 424.7 L 623.4 424.7 M 719.1 424.7 L 1145.2 424.7 M 1190.6 424.7 L 1224.4 424.7 M 30.8 426.6 L 500.4 426.6 M 589.4 426.6 L 625.4 426.6 M 719.3 426.6 L 1149.4 426.6 M 1186.4 426.6 L 1224.4 426.6 M 30.8 428.6 L 500.2 428.6 M 589.6 428.6 L 627.3 428.6 M 719.5 428.6 L 1155 428.6 M 1180.9 428.6 L 1224.4 428.6 M 30.8 430.5 L 499.9 430.5 M 589.9 430.5 L 629.3 430.5 M 719.8 430.5 L 1163.5 430.5 M 1172.4 430.5 L 1224.4 430.5 M 30.8 432.5 L 499.7 432.5 M 590.1 432.5 L 629.6 432.5 M 720 432.5 L 1163.5 432.5 M 1172.4 432.5 L 1224.4 432.5 M 30.8 434.4 L 499.7 434.4 M 590.1 434.4 L 629.6 434.4 M 720.1 434.4 L 1163.5 434.4 M 1172.4 434.4 L 1224.4 434.4 M 30.8 436.4 L 499.9 436.4 M 589.9 436.4 L 629.8 436.4 M 719.8 436.4 L 1153.9 436.4 M 1181.9 436.4 L 1224.4 436.4 M 30.8 438.3 L 500.1 438.3 M 589.7 438.3 L 630.1 438.3 M 719.6 438.3 L 1148.4 438.3 M 1187.5 438.3 L 1224.4 438.3 M 30.8 440.3 L 500.4 440.3 M 589.4 440.3 L 630.3 440.3 M 719.4 440.3 L 1144.7 440.3 M 1191.2 440.3 L 1224.4 440.3 M 30.8 442.2 L 500.6 442.2 M 589.2 442.2 L 630.5 442.2 M 719.1 442.2 L 1141.6 442.2 M 1194.3 442.2 L 1224.4 442.2 M 30.8 444.2 L 500.8 444.2 M 589 444.2 L 630.8 444.2 M 718.9 444.2 L 1138.4 444.2 M 1197.4 444.2 L 1224.4 444.2 M 30.8 446.1 L 501.5 446.1 M 588.3 446.1 L 631.4 446.1 M 718.2 446.1 L 1136.3 446.1 M 1199.6 446.1 L 1224.4 446.1 M 30.8 448.1 L 502.2 448.1 M 587.6 448.1 L 632.1 448.1 M 717.5 448.1 L 1134.3 448.1 M 1201.6 448.1 L 1224.4 448.1 M 30.8 450 L 503 450 M 586.8 450 L 632.9 450 M 716.8 450 L 1132.4 450 M 1203.5 450 L 1224.4 450 M 30.8 452 L 503.7 452 M 586.1 452 L 633.6 452 M 716 452 L 1130.4 452 M 1205.5 452 L 1224.4 452 M 30.8 454 L 504.5 454 M 585.3 454 L 634.4 454 M 715.3 454 L 1129.1 454 M 1206.8 454 L 1224.4 454 M 30.8 455.9 L 505.6 455.9 M 584.2 455.9 L 635.5 455.9 M 714.2 455.9 L 1127.9 455.9 M 1208 455.9 L 1224.4 455.9 M 30.8 457.9 L 506.9 457.9 M 582.9 457.9 L 636.8 457.9 M 712.8 457.9 L 1126.7 457.9 M 1209.2 457.9 L 1224.4 457.9 M 30.8 459.8 L 508.2 459.8 M 581.6 459.8 L 638.2 459.8 M 711.5 459.8 L 1125.5 459.8 M 1210.4 459.8 L 1224.4 459.8 M 30.8 461.8 L 509.6 461.8 M 580.2 461.8 L 639.5 461.8 M 710.1 461.8 L 1124.3 461.8 M 1211.6 461.8 L 1224.4 461.8 M 30.8 463.7 L 510.9 463.7 M 578.9 463.7 L 640.8 463.7 M 708.8 463.7 L 1123.6 463.7 M 1212.2 463.7 L 1224.4 463.7 M 30.8 465.6 L 513.1 465.6 M 576.7 465.6 L 643.1 465.6 M 706.6 465.6 L 1122.9 465.6 M 1212.9 465.6 L 1224.4 465.6 M 30.8 467.6 L 515.3 467.6 M 574.5 467.6 L 645.3 467.6 M 704.4 467.6 L 1122.3 467.6 M 1213.6 467.6 L 1224.4 467.6 M 30.8 469.5 L 517.5 469.5 M 572.3 469.5 L 647.5 469.5 M 702.2 469.5 L 1121.6 469.5 M 1214.3 469.5 L 1224.4 469.5 M 30.8 471.5 L 520.1 471.5 M 569.7 471.5 L 650 471.5 M 699.6 471.5 L 1120.9 471.5 M 1215 471.5 L 1224.4 471.5 M 30.8 473.4 L 523.8 473.4 M 566 473.4 L 653.8 473.4 M 695.9 473.4 L 1120.6 473.4 M 1215.2 473.4 L 1224.4 473.4 M 30.8 475.4 L 527.5 475.4 M 562.3 475.4 L 657.5 475.4 M 692.2 475.4 L 1120.5 475.4 M 1215.4 475.4 L 1224.4 475.4 M 30.8 477.3 L 311.7 477.3 M 360.8 477.3 L 534 477.3 M 555.8 477.3 L 663.9 477.3 M 685.7 477.3 L 924.2 477.3 M 931.3 477.3 L 1120.2 477.3 M 1215.6 477.3 L 1224.4 477.3 M 30.8 479.3 L 305.1 479.3 M 367.3 479.3 L 913.1 479.3 M 942.5 479.3 L 1120 479.3 M 1215.8 479.3 L 1224.4 479.3 M 30.8 481.2 L 301 481.2 M 371.5 481.2 L 907.5 481.2 M 948.1 481.2 L 1119.8 481.2 M 1216.1 481.2 L 1224.4 481.2 M 30.8 483.2 L 129.7 483.2 M 149 483.2 L 297.1 483.2 M 375.4 483.2 L 903.1 483.2 M 952.4 483.2 L 1119.8 483.2 M 1216.1 483.2 L 1224.4 483.2 M 30.8 485.1 L 122.3 485.1 M 156.5 485.1 L 294.3 485.1 M 378.2 485.1 L 900 485.1 M 955.5 485.1 L 1120 485.1 M 1215.9 485.1 L 1224.4 485.1 M 30.8 487.1 L 118.5 487.1 M 160.3 487.1 L 291.5 487.1 M 381 487.1 L 896.9 487.1 M 958.6 487.1 L 1120.2 487.1 M 1215.6 487.1 L 1224.4 487.1 M 30.8 489 L 114.8 489 M 164 489 L 289.1 489 M 383.4 489 L 894.1 489 M 961.4 489 L 1120.4 489 M 1215.5 489 L 1224.4 489 M 30.8 491 L 111.7 491 M 167.1 491 L 287.1 491 M 385.3 491 L 892.1 491 M 963.4 491 L 1120.6 491 M 1215.2 491 L 1224.4 491 M 30.8 492.9 L 109.5 492.9 M 169.3 492.9 L 285.2 492.9 M 387.3 492.9 L 890.2 492.9 M 965.3 492.9 L 1120.8 492.9 M 1215 492.9 L 1224.4 492.9 M 30.8 494.9 L 107.3 494.9 M 171.5 494.9 L 283.3 494.9 M 389.2 494.9 L 888.2 494.9 M 967.3 494.9 L 1121.5 494.9 M 1214.4 494.9 L 1224.4 494.9 M 30.8 496.8 L 105.1 496.8 M 173.7 496.8 L 281.9 496.8 M 390.5 496.8 L 886.3 496.8 M 969.2 496.8 L 1122.2 496.8 M 1213.7 496.8 L 1224.4 496.8 M 30.8 498.8 L 103.3 498.8 M 175.5 498.8 L 280.6 498.8 M 391.9 498.8 L 885.1 498.8 M 970.5 498.8 L 1122.9 498.8 M 1213 498.8 L 1224.4 498.8 M 30.8 500.7 L 102 500.7 M 176.8 500.7 L 279.2 500.7 M 393.3 500.7 L 883.8 500.7 M 971.8 500.7 L 1123.6 500.7 M 1212.3 500.7 L 1224.4 500.7 M 30.8 502.7 L 100.6 502.7 M 178.2 502.7 L 277.9 502.7 M 394.5 502.7 L 882.6 502.7 M 973 502.7 L 1124.2 502.7 M 1211.6 502.7 L 1224.4 502.7 M 30.8 504.6 L 99.3 504.6 M 179.5 504.6 L 277 504.6 M 395.5 504.6 L 881.4 504.6 M 974.2 504.6 L 1125.3 504.6 M 1210.5 504.6 L 1224.4 504.6 M 30.8 506.6 L 97.9 506.6 M 180.8 506.6 L 276.1 506.6 M 396.4 506.6 L 880.1 506.6 M 975.4 506.6 L 1126.6 506.6 M 1209.3 506.6 L 1224.4 506.6 M 30.8 508.5 L 97 508.5 M 181.8 508.5 L 275.2 508.5 M 397.3 508.5 L 879.3 508.5 M 976.2 508.5 L 1127.8 508.5 M 1208.1 508.5 L 1224.4 508.5 M 30.8 510.5 L 96.3 510.5 M 182.5 510.5 L 274.3 510.5 M 398.2 510.5 L 878.6 510.5 M 976.9 510.5 L 1129 510.5 M 1206.9 510.5 L 1224.4 510.5 M 30.8 512.4 L 95.5 512.4 M 183.2 512.4 L 273.7 512.4 M 398.8 512.4 L 878 512.4 M 977.6 512.4 L 1130.2 512.4 M 1205.6 512.4 L 1224.4 512.4 M 30.8 514.4 L 94.8 514.4 M 184 514.4 L 273.2 514.4 M 399.3 514.4 L 877.3 514.4 M 978.3 514.4 L 1132.2 514.4 M 1203.7 514.4 L 1224.4 514.4 M 30.8 516.3 L 94 516.3 M 184.7 516.3 L 272.7 516.3 M 399.8 516.3 L 876.6 516.3 M 979 516.3 L 1134.2 516.3 M 1201.7 516.3 L 1224.4 516.3 M 30.8 518.3 L 93.4 518.3 M 185.3 518.3 L 272.1 518.3 M 400.4 518.3 L 875.9 518.3 M 979.6 518.3 L 1136.1 518.3 M 1199.8 518.3 L 1224.4 518.3 M 30.8 520.3 L 93.2 520.3 M 185.6 520.3 L 271.7 520.3 M 400.8 520.3 L 875.7 520.3 M 979.9 520.3 L 1138.2 520.3 M 1197.7 520.3 L 1224.4 520.3 M 30.8 522.2 L 92.9 522.2 M 185.8 522.2 L 271.5 522.2 M 401 522.2 L 875.5 522.2 M 980.1 522.2 L 1141.2 522.2 M 1194.6 522.2 L 1224.4 522.2 M 30.8 524.2 L 92.7 524.2 M 186.1 524.2 L 271.3 524.2 M 401.2 524.2 L 875.3 524.2 M 980.3 524.2 L 1144.4 524.2 M 1191.5 524.2 L 1224.4 524.2 M 30.8 526.1 L 92.5 526.1 M 186.3 526.1 L 271.2 526.1 M 401.3 526.1 L 875 526.1 M 980.5 526.1 L 1147.9 526.1 M 1188 526.1 L 1224.4 526.1 M 30.8 528.1 L 92.2 528.1 M 186.6 528.1 L 271 528.1 M 401.5 528.1 L 874.8 528.1 M 980.7 528.1 L 1153.4 528.1 M 1182.5 528.1 L 1224.4 528.1 M 30.8 530 L 92.2 530 M 186.6 530 L 271 530 M 401.5 530 L 874.6 530 M 981 530 L 1162.7 530 M 1173.1 530 L 1224.4 530 M 30.8 531.9 L 92.5 531.9 M 186.3 531.9 L 271.1 531.9 M 401.4 531.9 L 874.8 531.9 M 980.8 531.9 L 1163.5 531.9 M 1172.4 531.9 L 1224.4 531.9 M 30.8 533.9 L 92.7 533.9 M 186.1 533.9 L 271.3 533.9 M 401.2 533.9 L 875 533.9 M 980.6 533.9 L 1163.5 533.9 M 1172.4 533.9 L 1224.4 533.9 M 30.8 535.8 L 92.9 535.8 M 185.8 535.8 L 271.5 535.8 M 401 535.8 L 875.2 535.8 M 980.3 535.8 L 1155.5 535.8 M 1180.4 535.8 L 1224.4 535.8 M 30.8 537.8 L 93.2 537.8 M 185.6 537.8 L 271.6 537.8 M 400.8 537.8 L 875.5 537.8 M 980.1 537.8 L 1149.9 537.8 M 1185.9 537.8 L 1224.4 537.8 M 30.8 539.7 L 93.4 539.7 M 185.4 539.7 L 272 539.7 M 400.5 539.7 L 875.6 539.7 M 979.9 539.7 L 1145.5 539.7 M 1190.3 539.7 L 1224.4 539.7 M 30.8 541.7 L 94 541.7 M 184.8 541.7 L 272.6 541.7 M 399.9 541.7 L 875.9 541.7 M 979.7 541.7 L 1142.4 541.7 M 1193.4 541.7 L 1224.4 541.7 M 30.8 543.6 L 94.7 543.6 M 184.1 543.6 L 273.1 543.6 M 399.4 543.6 L 876.5 543.6 M 979.1 543.6 L 1139.3 543.6 M 1196.6 543.6 L 1224.4 543.6 M 30.8 545.6 L 95.4 545.6 M 183.4 545.6 L 273.6 545.6 M 398.9 545.6 L 877.2 545.6 M 978.4 545.6 L 1136.8 545.6 M 1199 545.6 L 1224.4 545.6 M 30.8 547.5 L 96.2 547.5 M 182.6 547.5 L 274.2 547.5 M 398.3 547.5 L 877.9 547.5 M 977.7 547.5 L 1134.9 547.5 M 1201 547.5 L 1224.4 547.5 M 30.8 549.5 L 96.9 549.5 M 181.9 549.5 L 275.1 549.5 M 397.4 549.5 L 878.5 549.5 M 977 549.5 L 1132.9 549.5 M 1202.9 549.5 L 1224.4 549.5 M 30.8 551.4 L 97.7 551.4 M 181 551.4 L 276 551.4 M 396.5 551.4 L 879.2 551.4 M 976.3 551.4 L 1131 551.4 M 1204.9 551.4 L 1224.4 551.4 M 30.8 553.4 L 99.1 553.4 M 179.7 553.4 L 276.9 553.4 M 395.6 553.4 L 879.9 553.4 M 975.6 553.4 L 1129.5 553.4 M 1206.4 553.4 L 1224.4 553.4 M 30.8 555.3 L 100.4 555.3 M 178.4 555.3 L 277.8 555.3 M 394.7 555.3 L 881.2 555.3 M 974.4 555.3 L 1128.2 555.3 M 1207.6 555.3 L 1224.4 555.3 M 30.8 557.3 L 101.8 557.3 M 177 557.3 L 279 557.3 M 393.5 557.3 L 882.4 557.3 M 973.2 557.3 L 1127 557.3 M 1208.9 557.3 L 1224.4 557.3 M 30.8 559.2 L 103.1 559.2 M 175.6 559.2 L 280.4 559.2 M 392.1 559.2 L 883.6 559.2 M 971.9 559.2 L 1125.8 559.2 M 1210.1 559.2 L 1224.4 559.2 M 30.8 561.2 L 104.8 561.2 M 174 561.2 L 281.8 561.2 M 390.7 561.2 L 884.9 561.2 M 970.7 561.2 L 1124.5 561.2 M 1211.3 561.2 L 1224.4 561.2 M 30.8 563.1 L 106.9 563.1 M 171.8 563.1 L 283.1 563.1 M 389.4 563.1 L 886.1 563.1 M 969.5 563.1 L 1123.8 563.1 M 1212 563.1 L 1224.4 563.1 M 30.8 565.1 L 109.2 565.1 M 169.6 565.1 L 284.9 565.1 M 387.5 565.1 L 888 565.1 M 967.6 565.1 L 1123.1 565.1 M 1212.7 565.1 L 1224.4 565.1 M 30.8 567 L 111.4 567 M 167.4 567 L 286.9 567 M 385.6 567 L 889.9 567 M 965.6 567 L 1122.5 567 M 1213.4 567 L 1224.4 567 M 30.8 569 L 114.3 569 M 164.5 569 L 288.8 569 M 383.6 569 L 891.9 569 M 963.7 569 L 1121.8 569 M 1214.1 569 L 1224.4 569 M 30.8 570.9 L 118 570.9 M 160.8 570.9 L 291.1 570.9 M 381.4 570.9 L 893.8 570.9 M 961.8 570.9 L 1121.1 570.9 M 1214.8 570.9 L 1224.4 570.9 M 30.8 572.9 L 117.6 572.9 M 161.2 572.9 L 291.1 572.9 M 381.4 572.9 L 896.4 572.9 M 959.1 572.9 L 1120.7 572.9 M 1215.1 572.9 L 1224.4 572.9 M 639 574.8 L 899.5 574.8 M 956 574.8 L 1120.5 574.8 M 1215.4 574.8 L 1224.4 574.8 M 646.8 576.8 L 902.7 576.8 M 952.9 576.8 L 1120.3 576.8 M 1215.6 576.8 L 1224.4 576.8 M 650.4 578.7 L 906.6 578.7 M 949 578.7 L 1120.1 578.7 M 1215.8 578.7 L 1224.4 578.7 M 653.1 580.7 L 912.2 580.7 M 943.4 580.7 L 1119.9 580.7 M 1216 580.7 L 1224.4 580.7 M 655.7 582.6 L 921.6 582.6 M 934 582.6 L 1119.7 582.6 M 1216.2 582.6 L 1224.4 582.6 M 658.3 584.6 L 1119.9 584.6 M 1215.9 584.6 L 1224.4 584.6 M 660.9 586.6 L 1120.1 586.6 M 1215.7 586.6 L 1224.4 586.6 M 663.5 588.5 L 1120.4 588.5 M 1215.5 588.5 L 1224.4 588.5 M 666.1 590.5 L 1120.6 590.5 M 1215.3 590.5 L 1224.4 590.5 M 668.7 592.4 L 1120.8 592.4 M 1215.1 592.4 L 1224.4 592.4 M 671.3 594.4 L 1121.3 594.4 M 1214.5 594.4 L 1224.4 594.4 M 673.9 596.3 L 1122 596.3 M 1213.8 596.3 L 1224.4 596.3 M 676.5 598.2 L 1122.7 598.2 M 1213.2 598.2 L 1224.4 598.2 M 679.1 600.2 L 1123.4 600.2 M 1212.5 600.2 L 1224.4 600.2 M 681.7 602.1 L 1124.1 602.1 M 1211.8 602.1 L 1224.4 602.1 M 684.3 604.1 L 1125 604.1 M 1210.9 604.1 L 1224.4 604.1 M 686.9 606 L 1126.2 606 M 1209.7 606 L 1224.4 606 M 689.5 608 L 1127.4 608 M 1208.4 608 L 1224.4 608 M 692.1 609.9 L 1128.6 609.9 M 1207.2 609.9 L 1224.4 609.9 M 694.7 611.9 L 1129.9 611.9 M 1206 611.9 L 1224.4 611.9 M 697.3 613.8 L 1131.6 613.8 M 1204.2 613.8 L 1224.4 613.8 M 699.9 615.8 L 1133.6 615.8 M 1202.3 615.8 L 1224.4 615.8 M 702.5 617.7 L 1135.5 617.7 M 1200.3 617.7 L 1224.4 617.7 M 705.1 619.7 L 1137.5 619.7 M 1198.4 619.7 L 1224.4 619.7 M 707.7 621.6 L 1140.4 621.6 M 1195.5 621.6 L 1224.4 621.6 M 710.3 623.6 L 1143.5 623.6 M 1192.4 623.6 L 1224.4 623.6 M 712.9 625.5 L 1146.6 625.5 M 1189.3 625.5 L 1224.4 625.5 M 715.5 627.5 L 1151.8 627.5 M 1184 627.5 L 1224.4 627.5 M 718.1 629.4 L 1157.4 629.4 M 1178.4 629.4 L 1224.4 629.4 M 720.7 631.4 L 1157.7 631.4 M 1178.1 631.4 L 1224.4 631.4 M 723.3 633.3 L 1157.4 633.3 M 1178.4 633.3 L 1224.4 633.3 M 504.8 257.9 L 504.8 257.9 M 504.8 257.9 L 504.8 257.9 M 504.8 257.9 L 511 266.9 M 511 266.9 L 511 266.9 M 511 266.9 L 519.2 274.1 M 519.2 274.1 L 519.2 274.1 M 519.2 274.1 L 528.8 279.2 M 528.8 279.2 L 528.8 279.2 M 528.8 279.2 L 539.4 281.8 M 539.4 281.8 L 539.4 281.8 M 539.4 281.8 L 550.4 281.8 M 550.4 281.8 L 550.4 281.8 M 550.4 281.8 L 552.8 281.2 M 552.8 281.2 L 560.6 289 M 560.6 289 L 558.8 292.3 M 558.8 292.3 L 550.4 290.3 M 550.4 290.3 L 550.4 290.3 M 550.4 290.3 L 539.4 290.3 M 539.4 290.3 L 539.4 290.3 M 539.4 290.3 L 528.8 292.9 M 528.8 292.9 L 528.8 292.9 M 528.8 292.9 L 519.2 298 M 519.2 298 L 519.2 298 M 519.2 298 L 511 305.2 M 511 305.2 L 511 305.2 M 511 305.2 L 504.8 314.2 M 504.8 314.2 L 504.8 314.2 M 504.8 314.2 L 501.9 321.6 M 501.9 321.6 L 497.9 320.9 M 497.9 320.9 L 497.9 251.2 M 497.9 251.2 L 501.9 250.5 M 501.9 250.5 L 504.8 257.9 M 497.9 252.4 L 502.7 252.4 M 497.9 254.4 L 503.4 254.4 M 497.9 256.3 L 504.2 256.3 M 497.9 258.2 L 505 258.2 M 497.9 260.2 L 506.4 260.2 M 497.9 262.1 L 507.7 262.1 M 497.9 264.1 L 509.1 264.1 M 497.9 266 L 510.4 266 M 497.9 268 L 512.2 268 M 497.9 269.9 L 514.4 269.9 M 497.9 271.9 L 516.6 271.9 M 497.9 273.8 L 518.8 273.8 M 497.9 275.8 L 522.3 275.8 M 497.9 277.7 L 526 277.7 M 497.9 279.7 L 530.8 279.7 M 497.9 281.6 L 538.8 281.6 M 551 281.6 L 553.2 281.6 M 497.9 283.6 L 555.2 283.6 M 497.9 285.5 L 557.1 285.5 M 497.9 287.5 L 559.1 287.5 M 497.9 289.4 L 560.4 289.4 M 497.9 291.4 L 534.9 291.4 M 554.9 291.4 L 559.3 291.4 M 497.9 293.3 L 528 293.3 M 497.9 295.3 L 524.2 295.3 M 497.9 297.2 L 520.5 297.2 M 497.9 299.2 L 517.8 299.2 M 497.9 301.2 L 515.6 301.2 M 497.9 303.1 L 513.4 303.1 M 497.9 305.1 L 511.2 305.1 M 497.9 307 L 509.7 307 M 497.9 309 L 508.4 309 M 497.9 310.9 L 507.1 310.9 M 497.9 312.9 L 505.7 312.9 M 497.9 314.8 L 504.5 314.8 M 497.9 316.8 L 503.8 316.8 M 497.9 318.7 L 503.1 318.7 M 497.9 320.6 L 502.3 320.6"/><path stroke-width="20" fill="none" d="M 472.1 221.1 L 472.1 360.8 M 494.7 111.8 L 903.2 111.8 M 237.8 236.8 L 369.7 236.8 M 369.7 236.8 L 494.7 111.8 M 139.4 335.3 L 237.8 236.8 M 903.2 111.8 L 927.8 136.4 M 674.8 236.8 L 607.9 169.9 M 617.7 309.7 L 617.7 382.5 M 472.1 360.8 L 544.9 433.7 M 617.7 382.5 L 668.9 433.7 M 523.2 169.9 L 472.1 221.1 M 544.9 236.8 L 617.7 309.7 M 607.9 169.9 L 523.2 169.9"/><use x="674.8" y="335.3" xlink:href="#tool-D12-pad-1007"/><use x="674.8" y="433.7" xlink:href="#tool-D12-pad-1007"/><use x="544.9" y="433.7" xlink:href="#tool-D12-pad-1007"/><use x="544.9" y="335.3" xlink:href="#tool-D12-pad-1007"/><use x="544.9" y="236.8" xlink:href="#tool-D12-pad-1007"/><use x="674.8" y="236.8" xlink:href="#tool-D13-pad-1008"/><use x="139.4" y="332.3" xlink:href="#tool-D14-pad-1009"/><use x="336.2" y="135.5" xlink:href="#tool-D15-pad-1010"/><use x="336.2" y="529.2" xlink:href="#tool-D15-pad-1010"/><use x="1167.9" y="182.3" xlink:href="#tool-D16-pad-1011"/><use x="1167.9" y="282.3" xlink:href="#tool-D16-pad-1011"/><use x="1167.9" y="382.3" xlink:href="#tool-D16-pad-1011"/><use x="1167.9" y="482.3" xlink:href="#tool-D16-pad-1011"/><use x="1167.9" y="582.3" xlink:href="#tool-D16-pad-1011"/><use x="1167.9" y="82.3" xlink:href="#tool-D17-pad-1012"/><use x="927.8" y="333.3" xlink:href="#tool-D18-pad-1013"/><use x="927.8" y="530.1" xlink:href="#tool-D18-pad-1013"/><use x="927.8" y="136.4" xlink:href="#tool-D19-pad-1014"/></g><mask id="pcb_bottom_mech-mask" fill="#fff" stroke="#fff" fill-rule="evenodd"><path stroke-width="0" d="M 7.5 66.6 L 7.5 598.1 L 637.4 598.1 L 716.2 657.1 L 1247.7 657.1 L 1247.7 7.5 L 716.2 7.5 L 637.4 66.6 Z"/><g id="pcb_bottom-drl" fill="#000" stroke="#000"><use x="674.8" y="236.8" xlink:href="#tool-T10-pad-1000"/><use x="674.8" y="335.3" xlink:href="#tool-T10-pad-1000"/><use x="674.8" y="433.7" xlink:href="#tool-T10-pad-1000"/><use x="544.9" y="433.7" xlink:href="#tool-T10-pad-1000"/><use x="544.9" y="335.3" xlink:href="#tool-T10-pad-1000"/><use x="544.9" y="236.8" xlink:href="#tool-T10-pad-1000"/><use x="139.4" y="332.3" xlink:href="#tool-T11-pad-1001"/><use x="336.2" y="135.5" xlink:href="#tool-T11-pad-1001"/><use x="336.2" y="529.2" xlink:href="#tool-T11-pad-1001"/><use x="139.4" y="529.2" xlink:href="#tool-T12-pad-1002"/><use x="139.4" y="135.5" xlink:href="#tool-T12-pad-1002"/><use x="336.2" y="332.3" xlink:href="#tool-T12-pad-1002"/><use x="1167.9" y="82.3" xlink:href="#tool-T13-pad-1003"/><use x="1167.9" y="182.3" xlink:href="#tool-T13-pad-1003"/><use x="1167.9" y="282.3" xlink:href="#tool-T13-pad-1003"/><use x="1167.9" y="382.3" xlink:href="#tool-T13-pad-1003"/><use x="1167.9" y="482.3" xlink:href="#tool-T13-pad-1003"/><use x="1167.9" y="582.3" xlink:href="#tool-T13-pad-1003"/><use x="927.8" y="333.3" xlink:href="#tool-T14-pad-1004"/><use x="927.8" y="530.1" xlink:href="#tool-T14-pad-1004"/><use x="927.8" y="136.4" xlink:href="#tool-T14-pad-1004"/></g></mask></defs><g mask="url(#pcb_bottom_mech-mask)" transform="translate(1255.2,664.6) scale(-1,-1)"><rect x="7.5" y="7.5" width="1240.2" height="649.6" fill="currentColor" class="pcb_board-fr4"/><use class="pcb_board-cu" xlink:href="#pcb_bottom-cu"/><g><defs><g id="pcb_bottom-sm" fill="currentColor" stroke="currentColor"><use x="674.8" y="335.3" xlink:href="#tool-D10-pad-1015"/><use x="674.8" y="433.7" xlink:href="#tool-D10-pad-1015"/><use x="544.9" y="433.7" xlink:href="#tool-D10-pad-1015"/><use x="544.9" y="335.3" xlink:href="#tool-D10-pad-1015"/><use x="544.9" y="236.8" xlink:href="#tool-D10-pad-1015"/><use x="674.8" y="236.8" xlink:href="#tool-D11-pad-1016"/><use x="139.4" y="332.3" xlink:href="#tool-D12-pad-1017"/><use x="336.2" y="135.5" xlink:href="#tool-D13-pad-1018"/><use x="336.2" y="529.2" xlink:href="#tool-D13-pad-1018"/><use x="1167.9" y="182.3" xlink:href="#tool-D14-pad-1019"/><use x="1167.9" y="282.3" xlink:href="#tool-D14-pad-1019"/><use x="1167.9" y="382.3" xlink:href="#tool-D14-pad-1019"/><use x="1167.9" y="482.3" xlink:href="#tool-D14-pad-1019"/><use x="1167.9" y="582.3" xlink:href="#tool-D14-pad-1019"/><use x="1167.9" y="82.3" xlink:href="#tool-D15-pad-1020"/><use x="927.8" y="333.3" xlink:href="#tool-D16-pad-1021"/><use x="927.8" y="530.1" xlink:href="#tool-D16-pad-1021"/><use x="927.8" y="136.4" xlink:href="#tool-D17-pad-1022"/></g><mask id="pcb_bottom-sm_mask" color="#000"><rect x="7.5" y="7.5" width="1240.2" height="649.6" fill="#fff"/><use xlink:href="#pcb_bottom-sm"/></mask><mask id="pcb_bottom-cu_finish-mask" color="#fff"><use xlink:href="#pcb_bottom-cu"/></mask></defs><g mask="url(#pcb_bottom-sm_mask)"><rect x="7.5" y="7.5" width="1240.2" height="649.6" fill="currentColor" class="pcb_board-sm"/><g id="pcb_bottom-ss" class="pcb_board-ss" fill="currentColor" stroke="currentColor"></g></g><use class="pcb_board-cf" mask="url(#pcb_bottom-cu_finish-mask)" xlink:href="#pcb_bottom-sm"/></g></g></svg>