<?xml-stylesheet href="https://s3.amazonaws.com/maker.works.boards/css/blackpcb.css" type="text/css"?><svg xmlns="http://www.w3.org/2000/svg" version="1.1" xmlns:xlink="http://www.w3.org/1999/xlink" stroke-width="0" stroke-linecap="round" stroke-linejoin="round" width="1.2402in" height="0.6496000000000001in" id="pcb_top" viewBox="7.5 7.5 1240.2 649.6"><defs><circle cx="0" cy="0" r="17.5" id="tool-T10-pad-1000"/><circle cx="0" cy="0" r="29.5" id="tool-T11-pad-1001"/><circle cx="0" cy="0" r="31.5" id="tool-T12-pad-1002"/><circle cx="0" cy="0" r="21.5" id="tool-T13-pad-1003"/><circle cx="0" cy="0" r="25.5" id="tool-T14-pad-1004"/><circle cx="0" cy="0" r="29.55" id="tool-D11-pad-1024"/><rect x="-29.5275" y="-29.5275" width="59.055" height="59.055" transform="rotate(90)" id="tool-D12-pad-1025"/><rect x="-37.8" y="-49.6" width="75.6" height="99.2" id="tool-D13-pad-1026"/><g id="tool-D14-pad-1027"><rect x="-11.811" y="-37.7955" width="23.622" height="75.591" transform="rotate(360)"/><circle cx="-11.811" cy="0" r="37.7955"/><circle cx="11.811" cy="0" r="37.7955"/><circle cx="11.811" cy="0" r="37.7955"/><circle cx="-11.811" cy="0" r="37.7955"/></g><circle cx="0" cy="0" r="32.5" id="tool-D15-pad-1028"/><rect x="-32.4805" y="-32.4805" width="64.961" height="64.961" transform="rotate(180)" id="tool-D16-pad-1029"/><circle cx="0" cy="0" r="37.4" id="tool-D17-pad-1030"/><rect x="-37.4015" y="-37.4015" width="74.803" height="74.803" transform="rotate(90)" id="tool-D18-pad-1031"/><circle cx="0" cy="0" r="9.85" id="tool-D11-pad-1033"/><circle cx="0" cy="0" r="4.9" id="tool-D13-pad-1035"/><circle cx="0" cy="0" r="29.55" id="tool-D10-pad-1036"/><rect x="-29.5275" y="-29.5275" width="59.055" height="59.055" transform="rotate(90)" id="tool-D11-pad-1037"/><rect x="-37.8" y="-49.6" width="75.6" height="99.2" id="tool-D12-pad-1038"/><g id="tool-D13-pad-1039"><rect x="-11.811" y="-37.7955" width="23.622" height="75.591" transform="rotate(360)"/><circle cx="-11.811" cy="0" r="37.7955"/><circle cx="11.811" cy="0" r="37.7955"/><circle cx="11.811" cy="0" r="37.7955"/><circle cx="-11.811" cy="0" r="37.7955"/></g><circle cx="0" cy="0" r="32.5" id="tool-D14-pad-1040"/><rect x="-32.4805" y="-32.4805" width="64.961" height="64.961" transform="rotate(180)" id="tool-D15-pad-1041"/><circle cx="0" cy="0" r="37.4" id="tool-D16-pad-1042"/><rect x="-37.4015" y="-37.4015" width="74.803" height="74.803" transform="rotate(90)" id="tool-D17-pad-1043"/><g id="pcb_top-cu" fill="currentColor" stroke="currentColor"><path stroke-width="20" fill="none" d="M 576.4 532.1 L 674.8 433.7 M 592.1 288 L 882.5 288 M 592.1 288 L 544.9 335.3 M 981.9 82.3 L 927.8 136.4 M 336.2 138.4 L 576.4 138.4 M 882.5 288 L 976.8 382.3 M 1167.9 82.3 L 981.9 82.3 M 869.7 530.1 L 927.8 530.1 M 1167.9 382.3 L 976.8 382.3 M 975.6 482.3 L 927.8 530.1 M 336.2 532.1 L 576.4 532.1 M 576.4 138.4 L 674.8 236.8 M 1167.9 482.3 L 975.6 482.3 M 674.8 335.3 L 869.7 530.1"/><use x="674.8" y="335.3" xlink:href="#tool-D11-pad-1024"/><use x="674.8" y="433.7" xlink:href="#tool-D11-pad-1024"/><use x="544.9" y="433.7" xlink:href="#tool-D11-pad-1024"/><use x="544.9" y="335.3" xlink:href="#tool-D11-pad-1024"/><use x="544.9" y="236.8" xlink:href="#tool-D11-pad-1024"/><use x="674.8" y="236.8" xlink:href="#tool-D12-pad-1025"/><use x="139.4" y="332.3" xlink:href="#tool-D13-pad-1026"/><use x="336.2" y="135.5" xlink:href="#tool-D14-pad-1027"/><use x="336.2" y="529.2" xlink:href="#tool-D14-pad-1027"/><use x="1167.9" y="182.3" xlink:href="#tool-D15-pad-1028"/><use x="1167.9" y="282.3" xlink:href="#tool-D15-pad-1028"/><use x="1167.9" y="382.3" xlink:href="#tool-D15-pad-1028"/><use x="1167.9" y="482.3" xlink:href="#tool-D15-pad-1028"/><use x="1167.9" y="582.3" xlink:href="#tool-D15-pad-1028"/><use x="1167.9" y="82.3" xlink:href="#tool-D16-pad-1029"/><use x="927.8" y="333.3" xlink:href="#tool-D17-pad-1030"/><use x="927.8" y="530.1" xlink:href="#tool-D17-pad-1030"/><use x="927.8" y="136.4" xlink:href="#tool-D18-pad-1031"/></g><mask id="pcb_top_mech-mask" fill="#fff" stroke="#fff" fill-rule="evenodd"><path stroke-width="0" d="M 7.5 66.6 L 7.5 598.1 L 637.4 598.1 L 716.2 657.1 L 1247.7 657.1 L 1247.7 7.5 L 716.2 7.5 L 637.4 66.6 Z"/><g id="pcb_top-drl" fill="#000" stroke="#000"><use x="674.8" y="236.8" xlink:href="#tool-T10-pad-1000"/><use x="674.8" y="335.3" xlink:href="#tool-T10-pad-1000"/><use x="674.8" y="433.7" xlink:href="#tool-T10-pad-1000"/><use x="544.9" y="433.7" xlink:href="#tool-T10-pad-1000"/><use x="544.9" y="335.3" xlink:href="#tool-T10-pad-1000"/><use x="544.9" y="236.8" xlink:href="#tool-T10-pad-1000"/><use x="139.4" y="332.3" xlink:href="#tool-T11-pad-1001"/><use x="336.2" y="135.5" xlink:href="#tool-T11-pad-1001"/><use x="336.2" y="529.2" xlink:href="#tool-T11-pad-1001"/><use x="139.4" y="529.2" xlink:href="#tool-T12-pad-1002"/><use x="139.4" y="135.5" xlink:href="#tool-T12-pad-1002"/><use x="336.2" y="332.3" xlink:href="#tool-T12-pad-1002"/><use x="1167.9" y="82.3" xlink:href="#tool-T13-pad-1003"/><use x="1167.9" y="182.3" xlink:href="#tool-T13-pad-1003"/><use x="1167.9" y="282.3" xlink:href="#tool-T13-pad-1003"/><use x="1167.9" y="382.3" xlink:href="#tool-T13-pad-1003"/><use x="1167.9" y="482.3" xlink:href="#tool-T13-pad-1003"/><use x="1167.9" y="582.3" xlink:href="#tool-T13-pad-1003"/><use x="927.8" y="333.3" xlink:href="#tool-T14-pad-1004"/><use x="927.8" y="530.1" xlink:href="#tool-T14-pad-1004"/><use x="927.8" y="136.4" xlink:href="#tool-T14-pad-1004"/></g></mask></defs><g mask="url(#pcb_top_mech-mask)" transform="translate(0,664.6) scale(1,-1)"><rect x="7.5" y="7.5" width="1240.2" height="649.6" fill="currentColor" class="pcb_board-fr4"/><use class="pcb_board-cu" xlink:href="#pcb_top-cu"/><g><defs><g id="pcb_top-sm" fill="currentColor" stroke="currentColor"><use x="674.8" y="335.3" xlink:href="#tool-D10-pad-1036"/><use x="674.8" y="433.7" xlink:href="#tool-D10-pad-1036"/><use x="544.9" y="433.7" xlink:href="#tool-D10-pad-1036"/><use x="544.9" y="335.3" xlink:href="#tool-D10-pad-1036"/><use x="544.9" y="236.8" xlink:href="#tool-D10-pad-1036"/><use x="674.8" y="236.8" xlink:href="#tool-D11-pad-1037"/><use x="139.4" y="332.3" xlink:href="#tool-D12-pad-1038"/><use x="336.2" y="135.5" xlink:href="#tool-D13-pad-1039"/><use x="336.2" y="529.2" xlink:href="#tool-D13-pad-1039"/><use x="1167.9" y="182.3" xlink:href="#tool-D14-pad-1040"/><use x="1167.9" y="282.3" xlink:href="#tool-D14-pad-1040"/><use x="1167.9" y="382.3" xlink:href="#tool-D14-pad-1040"/><use x="1167.9" y="482.3" xlink:href="#tool-D14-pad-1040"/><use x="1167.9" y="582.3" xlink:href="#tool-D14-pad-1040"/><use x="1167.9" y="82.3" xlink:href="#tool-D15-pad-1041"/><use x="927.8" y="333.3" xlink:href="#tool-D16-pad-1042"/><use x="927.8" y="530.1" xlink:href="#tool-D16-pad-1042"/><use x="927.8" y="136.4" xlink:href="#tool-D17-pad-1043"/></g><mask id="pcb_top-sm_mask" color="#000"><rect x="7.5" y="7.5" width="1240.2" height="649.6" fill="#fff"/><use xlink:href="#pcb_top-sm"/></mask><mask id="pcb_top-cu_finish-mask" color="#fff"><use xlink:href="#pcb_top-cu"/></mask></defs><g mask="url(#pcb_top-sm_mask)"><rect x="7.5" y="7.5" width="1240.2" height="649.6" fill="currentColor" class="pcb_board-sm"/><g id="pcb_top-ss" class="pcb_board-ss" fill="currentColor" stroke="currentColor"><path stroke-width="5.9" fill="none" d="M 709.3 150.2 L 510.5 150.2 M 510.5 150.2 L 510.5 520.3 M 510.5 520.3 L 709.3 520.3 M 709.3 520.3 L 709.3 150.2"/><use x="735.8" y="234.9" xlink:href="#tool-D11-pad-1033"/><path stroke-width="5.9" fill="none" d="M 0 576.4 L 481.9 576.4 M 481.9 576.4 L 481.9 88.2 M 481.9 88.2 L 0 88.2 M -124.4 88.2"/><path stroke-width="5.9" fill="none" d="M 1225.1 640.2 L 1225.1 24.4 M 1225.1 24.4 L 1110.8 24.4 M 1110.8 24.4 L 1110.8 640.2 M 1110.8 640.2 L 1225.1 640.2"/><use x="1238.8" y="76.4" xlink:href="#tool-D13-pad-1035"/><path stroke-width="5.9" fill="none" d="M 1095.1 30.1 L 756.5 30.1 M 756.5 30.1 L 756.5 636.4 M 756.5 636.4 L 1095.1 636.4 M 1095.1 636.4 L 1095.1 30.1"/><use x="927.8" y="16.4" xlink:href="#tool-D11-pad-1033"/></g></g><use class="pcb_board-cf" mask="url(#pcb_top-cu_finish-mask)" xlink:href="#pcb_top-sm"/></g></g></svg>