<?xml-stylesheet href="https://s3.amazonaws.com/maker.works.boards/css/blackpcb.css" type="text/css"?><svg xmlns="http://www.w3.org/2000/svg" version="1.1" xmlns:xlink="http://www.w3.org/1999/xlink" stroke-width="0" stroke-linecap="round" stroke-linejoin="round" width="1.0827in" height="0.6890000000000001in" id="pcb_top" viewBox="7.5 7.5 1082.7 689"><defs><circle cx="0" cy="0" r="21.5" id="tool-T10-pad-1000"/><circle cx="0" cy="0" r="29.5" id="tool-T11-pad-1001"/><circle cx="0" cy="0" r="31.5" id="tool-T12-pad-1002"/><circle cx="0" cy="0" r="17.5" id="tool-T13-pad-1003"/><rect x="-32.5" y="-32.5" width="65" height="65" id="tool-D12-pad-1020"/><circle cx="0" cy="0" r="32.5" id="tool-D13-pad-1021"/><rect x="-37.8" y="-49.6" width="75.6" height="99.2" id="tool-D14-pad-1022"/><g id="tool-D15-pad-1023"><rect x="-11.811" y="-37.7955" width="23.622" height="75.591" transform="rotate(360)"/><circle cx="-11.811" cy="0" r="37.7955"/><circle cx="11.811" cy="0" r="37.7955"/><circle cx="11.811" cy="0" r="37.7955"/><circle cx="-11.811" cy="0" r="37.7955"/></g><circle cx="0" cy="0" r="29.55" id="tool-D16-pad-1024"/><rect x="-29.5275" y="-29.5275" width="59.055" height="59.055" transform="rotate(270)" id="tool-D17-pad-1025"/><circle cx="0" cy="0" r="9.85" id="tool-D12-pad-1028"/><rect x="-32.5" y="-32.5" width="65" height="65" id="tool-D10-pad-1029"/><circle cx="0" cy="0" r="32.5" id="tool-D11-pad-1030"/><rect x="-37.8" y="-49.6" width="75.6" height="99.2" id="tool-D12-pad-1031"/><g id="tool-D13-pad-1032"><rect x="-11.811" y="-37.7955" width="23.622" height="75.591" transform="rotate(360)"/><circle cx="-11.811" cy="0" r="37.7955"/><circle cx="11.811" cy="0" r="37.7955"/><circle cx="11.811" cy="0" r="37.7955"/><circle cx="-11.811" cy="0" r="37.7955"/></g><circle cx="0" cy="0" r="29.55" id="tool-D14-pad-1033"/><rect x="-29.5275" y="-29.5275" width="59.055" height="59.055" transform="rotate(270)" id="tool-D15-pad-1034"/><g id="pcb_top-cu" fill="currentColor" stroke="currentColor"><path stroke-width="2" fill="none" d="M 1070.5 676.8 L 1070.5 676.8 M 1070.5 676.8 L 735.8 676.8 M 735.8 676.8 L 657.1 617.7 M 657.1 617.7 L 657.1 617.7 M 657.1 617.7 L 27.2 617.7 M 27.2 617.7 L 27.2 86.2 M 27.2 86.2 L 657.1 86.2 M 657.1 86.2 L 657.1 86.2 M 657.1 86.2 L 735.8 27.2 M 735.8 27.2 L 1070.5 27.2 M 1070.5 27.2 L 1070.5 676.8 M 827.4 561.5 L 802.8 561.5 M 802.8 561.5 L 802.8 571.5 M 802.8 571.5 L 787 571.5 M 787 571.5 L 787 561.5 M 787 561.5 L 762.4 561.5 M 762.4 561.5 L 761.2 561.6 M 761.2 561.6 L 759.9 561.9 M 759.9 561.9 L 758.8 562.3 M 758.8 562.3 L 757.7 563 M 757.7 563 L 756.8 563.8 M 756.8 563.8 L 755.9 564.8 M 755.9 564.8 L 755.3 565.8 M 755.3 565.8 L 754.8 567 M 754.8 567 L 754.5 568.2 M 754.5 568.2 L 754.4 569.5 M 754.4 569.5 L 754.4 594.1 M 754.4 594.1 L 764.4 594.1 M 764.4 594.1 L 764.4 609.9 M 764.4 609.9 L 754.4 609.9 M 754.4 609.9 L 754.4 634.5 M 754.4 634.5 L 754.5 635.7 M 754.5 635.7 L 754.8 636.9 M 754.8 636.9 L 755.3 638.1 M 755.3 638.1 L 755.9 639.2 M 755.9 639.2 L 756.8 640.1 M 756.8 640.1 L 757.7 641 M 757.7 641 L 758.8 641.6 M 758.8 641.6 L 759.9 642.1 M 759.9 642.1 L 761.2 642.4 M 761.2 642.4 L 762.4 642.5 M 762.4 642.5 L 787 642.5 M 787 642.5 L 787 632.5 M 787 632.5 L 802.8 632.5 M 802.8 632.5 L 802.8 642.5 M 802.8 642.5 L 827.4 642.5 M 827.4 642.5 L 828.6 642.4 M 828.6 642.4 L 829.9 642.1 M 829.9 642.1 L 831 641.6 M 831 641.6 L 832.1 641 M 832.1 641 L 833.1 640.1 M 833.1 640.1 L 833.9 639.2 M 833.9 639.2 L 834.5 638.1 M 834.5 638.1 L 835 636.9 M 835 636.9 L 835.3 635.7 M 835.3 635.7 L 835.4 634.5 M 835.4 634.5 L 835.4 609.9 M 835.4 609.9 L 825.4 609.9 M 825.4 609.9 L 825.4 594.1 M 825.4 594.1 L 835.4 594.1 M 835.4 594.1 L 835.4 569.5 M 835.4 569.5 L 835.3 568.2 M 835.3 568.2 L 835 567 M 835 567 L 834.5 565.8 M 834.5 565.8 L 833.9 564.8 M 833.9 564.8 L 833.1 563.8 M 833.1 563.8 L 832.1 563 M 832.1 563 L 831 562.3 M 831 562.3 L 829.9 561.9 M 829.9 561.9 L 828.6 561.6 M 828.6 561.6 L 827.4 561.5 M 927.4 561.5 L 902.8 561.5 M 902.8 561.5 L 902.8 571.5 M 902.8 571.5 L 887 571.5 M 887 571.5 L 887 561.5 M 887 561.5 L 862.4 561.5 M 862.4 561.5 L 861.2 561.6 M 861.2 561.6 L 859.9 561.9 M 859.9 561.9 L 858.8 562.3 M 858.8 562.3 L 857.7 563 M 857.7 563 L 856.8 563.8 M 856.8 563.8 L 855.9 564.8 M 855.9 564.8 L 855.3 565.8 M 855.3 565.8 L 854.8 567 M 854.8 567 L 854.5 568.2 M 854.5 568.2 L 854.4 569.5 M 854.4 569.5 L 854.4 594.1 M 854.4 594.1 L 864.4 594.1 M 864.4 594.1 L 864.4 609.9 M 864.4 609.9 L 854.4 609.9 M 854.4 609.9 L 854.4 634.5 M 854.4 634.5 L 854.5 635.7 M 854.5 635.7 L 854.8 636.9 M 854.8 636.9 L 855.3 638.1 M 855.3 638.1 L 855.9 639.2 M 855.9 639.2 L 856.8 640.1 M 856.8 640.1 L 857.7 641 M 857.7 641 L 858.8 641.6 M 858.8 641.6 L 859.9 642.1 M 859.9 642.1 L 861.2 642.4 M 861.2 642.4 L 862.4 642.5 M 862.4 642.5 L 887 642.5 M 887 642.5 L 887 632.5 M 887 632.5 L 902.8 632.5 M 902.8 632.5 L 902.8 642.5 M 902.8 642.5 L 927.4 642.5 M 927.4 642.5 L 928.6 642.4 M 928.6 642.4 L 929.9 642.1 M 929.9 642.1 L 931 641.6 M 931 641.6 L 932.1 641 M 932.1 641 L 933.1 640.1 M 933.1 640.1 L 933.9 639.2 M 933.9 639.2 L 934.5 638.1 M 934.5 638.1 L 935 636.9 M 935 636.9 L 935.3 635.7 M 935.3 635.7 L 935.4 634.5 M 935.4 634.5 L 935.4 609.9 M 935.4 609.9 L 925.4 609.9 M 925.4 609.9 L 925.4 594.1 M 925.4 594.1 L 935.4 594.1 M 935.4 594.1 L 935.4 569.5 M 935.4 569.5 L 935.3 568.2 M 935.3 568.2 L 935 567 M 935 567 L 934.5 565.8 M 934.5 565.8 L 933.9 564.8 M 933.9 564.8 L 933.1 563.8 M 933.1 563.8 L 932.1 563 M 932.1 563 L 931 562.3 M 931 562.3 L 929.9 561.9 M 929.9 561.9 L 928.6 561.6 M 928.6 561.6 L 927.4 561.5 M 674.8 415.6 L 671.3 416 M 671.3 416 L 671 416.1 M 671 416.1 L 670.3 416.1 M 670.3 416.1 L 661.5 418.2 M 661.5 418.2 L 653.5 422.5 M 653.5 422.5 L 646.7 428.4 M 646.7 428.4 L 641.6 435.9 M 641.6 435.9 L 638.2 444.8 M 638.2 444.8 L 568.9 514.1 M 568.9 514.1 L 377.9 514.1 M 377.9 514.1 L 371 509.2 M 371 509.2 L 363.7 505.8 M 363.7 505.8 L 356 503.7 M 356 503.7 L 348.1 503.1 M 348.1 503.1 L 324.4 503.1 M 324.4 503.1 L 316.5 503.7 M 316.5 503.7 L 308.8 505.8 M 308.8 505.8 L 301.5 509.2 M 301.5 509.2 L 295 513.8 M 295 513.8 L 289.4 519.4 M 289.4 519.4 L 284.8 525.9 M 284.8 525.9 L 281.4 533.2 M 281.4 533.2 L 279.3 540.9 M 279.3 540.9 L 278.6 548.8 M 278.6 548.8 L 279.3 556.8 M 279.3 556.8 L 281.4 564.5 M 281.4 564.5 L 284.8 571.8 M 284.8 571.8 L 289.4 578.3 M 289.4 578.3 L 295 583.9 M 295 583.9 L 301.5 588.5 M 301.5 588.5 L 308.8 591.9 M 308.8 591.9 L 316.5 594 M 316.5 594 L 324.4 594.6 M 324.4 594.6 L 348.1 594.6 M 348.1 594.6 L 356 594 M 356 594 L 363.7 591.9 M 363.7 591.9 L 371 588.5 M 371 588.5 L 377.5 583.9 M 377.5 583.9 L 383.1 578.3 M 383.1 578.3 L 387.7 571.8 M 387.7 571.8 L 391.1 564.5 M 391.1 564.5 L 393.2 556.8 M 393.2 556.8 L 393.7 550.1 M 393.7 550.1 L 576.4 550.1 M 576.4 550.1 L 579.9 549.8 M 579.9 549.8 L 583.3 548.8 M 583.3 548.8 L 586.4 547.1 M 586.4 547.1 L 589.2 544.9 M 589.2 544.9 L 651.5 482.5 M 651.5 482.5 L 653.5 484.3 M 653.5 484.3 L 661.5 488.5 M 661.5 488.5 L 670.3 490.6 M 670.3 490.6 L 679.4 490.6 M 679.4 490.6 L 688.1 488.5 M 688.1 488.5 L 696.2 484.3 M 696.2 484.3 L 702.9 478.3 M 702.9 478.3 L 708.1 470.8 M 708.1 470.8 L 711.3 462.3 M 711.3 462.3 L 712.4 453.4 M 712.4 453.4 L 711.3 444.4 M 711.3 444.4 L 708.1 435.9 M 708.1 435.9 L 702.9 428.4 M 702.9 428.4 L 696.2 422.5 M 696.2 422.5 L 688.1 418.2 M 688.1 418.2 L 679.4 416.1 M 679.4 416.1 L 678.6 416.1 M 678.6 416.1 L 678.3 416 M 678.3 416 L 674.8 415.6 M 144.2 509.6 L 134.6 509.6 M 134.6 509.6 L 125.4 511.9 M 125.4 511.9 L 116.9 516.3 M 116.9 516.3 L 109.8 522.6 M 109.8 522.6 L 104.4 530.5 M 104.4 530.5 L 101 539.4 M 101 539.4 L 99.9 548.8 M 99.9 548.8 L 101 558.3 M 101 558.3 L 104.4 567.2 M 104.4 567.2 L 109.8 575.1 M 109.8 575.1 L 116.9 581.4 M 116.9 581.4 L 125.4 585.8 M 125.4 585.8 L 134.6 588.1 M 134.6 588.1 L 144.2 588.1 M 144.2 588.1 L 153.4 585.8 M 153.4 585.8 L 161.8 581.4 M 161.8 581.4 L 169 575.1 M 169 575.1 L 174.4 567.2 M 174.4 567.2 L 177.8 558.3 M 177.8 558.3 L 178.9 548.8 M 178.9 548.8 L 177.8 539.4 M 177.8 539.4 L 174.4 530.5 M 174.4 530.5 L 169 522.6 M 169 522.6 L 161.8 516.3 M 161.8 516.3 L 153.4 511.9 M 153.4 511.9 L 144.2 509.6 M 799.8 461.8 L 790 461.8 M 790 461.8 L 780.5 464.1 M 780.5 464.1 L 771.9 468.6 M 771.9 468.6 L 764.6 475.1 M 764.6 475.1 L 759 483.2 M 759 483.2 L 755.6 492.3 M 755.6 492.3 L 754.4 502 M 754.4 502 L 755.6 511.7 M 755.6 511.7 L 759 520.8 M 759 520.8 L 764.6 528.8 M 764.6 528.8 L 771.9 535.3 M 771.9 535.3 L 780.5 539.9 M 780.5 539.9 L 790 542.2 M 790 542.2 L 799.8 542.2 M 799.8 542.2 L 809.3 539.9 M 809.3 539.9 L 817.9 535.3 M 817.9 535.3 L 825.2 528.8 M 825.2 528.8 L 830.8 520.8 M 830.8 520.8 L 834.2 511.7 M 834.2 511.7 L 835.4 502 M 835.4 502 L 834.2 492.3 M 834.2 492.3 L 830.8 483.2 M 830.8 483.2 L 825.2 475.1 M 825.2 475.1 L 817.9 468.6 M 817.9 468.6 L 809.3 464.1 M 809.3 464.1 L 799.8 461.8 M 899.8 461.8 L 890 461.8 M 890 461.8 L 880.5 464.1 M 880.5 464.1 L 871.9 468.6 M 871.9 468.6 L 864.6 475.1 M 864.6 475.1 L 859 483.2 M 859 483.2 L 855.6 492.3 M 855.6 492.3 L 854.4 502 M 854.4 502 L 855.6 511.7 M 855.6 511.7 L 859 520.8 M 859 520.8 L 864.6 528.8 M 864.6 528.8 L 871.9 535.3 M 871.9 535.3 L 880.5 539.9 M 880.5 539.9 L 890 542.2 M 890 542.2 L 899.8 542.2 M 899.8 542.2 L 909.3 539.9 M 909.3 539.9 L 917.9 535.3 M 917.9 535.3 L 925.2 528.8 M 925.2 528.8 L 930.8 520.8 M 930.8 520.8 L 934.2 511.7 M 934.2 511.7 L 935.4 502 M 935.4 502 L 934.2 492.3 M 934.2 492.3 L 930.8 483.2 M 930.8 483.2 L 925.2 475.1 M 925.2 475.1 L 917.9 468.6 M 917.9 468.6 L 909.3 464.1 M 909.3 464.1 L 899.8 461.8 M 574.4 415.8 L 515.4 415.8 M 515.4 415.8 L 514.1 415.9 M 514.1 415.9 L 512.9 416.2 M 512.9 416.2 L 511.7 416.7 M 511.7 416.7 L 510.6 417.3 M 510.6 417.3 L 509.7 418.2 M 509.7 418.2 L 508.9 419.1 M 508.9 419.1 L 508.2 420.2 M 508.2 420.2 L 507.7 421.4 M 507.7 421.4 L 507.4 422.6 M 507.4 422.6 L 507.3 423.8 M 507.3 423.8 L 507.3 482.9 M 507.3 482.9 L 507.4 484.2 M 507.4 484.2 L 507.7 485.4 M 507.7 485.4 L 508.2 486.6 M 508.2 486.6 L 508.9 487.6 M 508.9 487.6 L 509.7 488.6 M 509.7 488.6 L 510.6 489.4 M 510.6 489.4 L 511.7 490.1 M 511.7 490.1 L 512.9 490.5 M 512.9 490.5 L 514.1 490.8 M 514.1 490.8 L 515.4 490.9 M 515.4 490.9 L 574.4 490.9 M 574.4 490.9 L 575.7 490.8 M 575.7 490.8 L 576.9 490.5 M 576.9 490.5 L 578.1 490.1 M 578.1 490.1 L 579.2 489.4 M 579.2 489.4 L 580.1 488.6 M 580.1 488.6 L 580.9 487.6 M 580.9 487.6 L 581.6 486.6 M 581.6 486.6 L 582.1 485.4 M 582.1 485.4 L 582.4 484.2 M 582.4 484.2 L 582.5 482.9 M 582.5 482.9 L 582.5 423.8 M 582.5 423.8 L 582.4 422.6 M 582.4 422.6 L 582.1 421.4 M 582.1 421.4 L 581.6 420.2 M 581.6 420.2 L 580.9 419.1 M 580.9 419.1 L 580.1 418.2 M 580.1 418.2 L 579.2 417.3 M 579.2 417.3 L 578.1 416.7 M 578.1 416.7 L 576.9 416.2 M 576.9 416.2 L 575.7 415.9 M 575.7 415.9 L 574.4 415.8 M 799.8 361.8 L 790 361.8 M 790 361.8 L 780.5 364.1 M 780.5 364.1 L 771.9 368.6 M 771.9 368.6 L 764.6 375.1 M 764.6 375.1 L 759 383.2 M 759 383.2 L 755.6 392.3 M 755.6 392.3 L 754.4 402 M 754.4 402 L 755.6 411.7 M 755.6 411.7 L 759 420.8 M 759 420.8 L 764.6 428.8 M 764.6 428.8 L 771.9 435.3 M 771.9 435.3 L 780.5 439.9 M 780.5 439.9 L 790 442.2 M 790 442.2 L 799.8 442.2 M 799.8 442.2 L 809.3 439.9 M 809.3 439.9 L 817.9 435.3 M 817.9 435.3 L 825.2 428.8 M 825.2 428.8 L 830.8 420.8 M 830.8 420.8 L 834.2 411.7 M 834.2 411.7 L 835.4 402 M 835.4 402 L 834.2 392.3 M 834.2 392.3 L 830.8 383.2 M 830.8 383.2 L 825.2 375.1 M 825.2 375.1 L 817.9 368.6 M 817.9 368.6 L 809.3 364.1 M 809.3 364.1 L 799.8 361.8 M 899.8 361.8 L 890 361.8 M 890 361.8 L 880.5 364.1 M 880.5 364.1 L 871.9 368.6 M 871.9 368.6 L 864.6 375.1 M 864.6 375.1 L 859 383.2 M 859 383.2 L 855.6 392.3 M 855.6 392.3 L 854.4 402 M 854.4 402 L 855.6 411.7 M 855.6 411.7 L 859 420.8 M 859 420.8 L 864.6 428.8 M 864.6 428.8 L 871.9 435.3 M 871.9 435.3 L 880.5 439.9 M 880.5 439.9 L 890 442.2 M 890 442.2 L 899.8 442.2 M 899.8 442.2 L 909.3 439.9 M 909.3 439.9 L 917.9 435.3 M 917.9 435.3 L 925.2 428.8 M 925.2 428.8 L 930.8 420.8 M 930.8 420.8 L 934.2 411.7 M 934.2 411.7 L 935.4 402 M 935.4 402 L 934.2 392.3 M 934.2 392.3 L 930.8 383.2 M 930.8 383.2 L 925.2 375.1 M 925.2 375.1 L 917.9 368.6 M 917.9 368.6 L 909.3 364.1 M 909.3 364.1 L 899.8 361.8 M 177.2 294.4 L 143.4 294.4 M 143.4 294.4 L 143.4 304.4 M 143.4 304.4 L 135.4 304.4 M 135.4 304.4 L 135.4 294.4 M 135.4 294.4 L 101.6 294.4 M 101.6 294.4 L 100.3 294.4 M 100.3 294.4 L 99.1 294.7 M 99.1 294.7 L 97.9 295.2 M 97.9 295.2 L 96.9 295.9 M 96.9 295.9 L 95.9 296.7 M 95.9 296.7 L 95.1 297.7 M 95.1 297.7 L 94.4 298.7 M 94.4 298.7 L 94 299.9 M 94 299.9 L 93.6 301.1 M 93.6 301.1 L 93.6 302.4 M 93.6 302.4 L 93.6 348 M 93.6 348 L 103.6 348 M 103.6 348 L 103.6 356 M 103.6 356 L 93.6 356 M 93.6 356 L 93.6 401.6 M 93.6 401.6 L 93.6 402.9 M 93.6 402.9 L 94 404.1 M 94 404.1 L 94.4 405.3 M 94.4 405.3 L 95.1 406.3 M 95.1 406.3 L 95.9 407.3 M 95.9 407.3 L 96.9 408.1 M 96.9 408.1 L 97.9 408.8 M 97.9 408.8 L 99.1 409.2 M 99.1 409.2 L 100.3 409.5 M 100.3 409.5 L 101.6 409.6 M 101.6 409.6 L 135.4 409.6 M 135.4 409.6 L 135.4 399.6 M 135.4 399.6 L 143.4 399.6 M 143.4 399.6 L 143.4 409.6 M 143.4 409.6 L 177.2 409.6 M 177.2 409.6 L 178.4 409.5 M 178.4 409.5 L 179.7 409.2 M 179.7 409.2 L 180.8 408.8 M 180.8 408.8 L 181.9 408.1 M 181.9 408.1 L 182.9 407.3 M 182.9 407.3 L 183.7 406.3 M 183.7 406.3 L 184.4 405.3 M 184.4 405.3 L 184.8 404.1 M 184.8 404.1 L 185.1 402.9 M 185.1 402.9 L 185.2 401.6 M 185.2 401.6 L 185.2 356 M 185.2 356 L 175.2 356 M 175.2 356 L 175.2 348 M 175.2 348 L 185.2 348 M 185.2 348 L 185.2 302.4 M 185.2 302.4 L 185.1 301.1 M 185.1 301.1 L 184.8 299.9 M 184.8 299.9 L 184.4 298.7 M 184.4 298.7 L 183.7 297.7 M 183.7 297.7 L 182.9 296.7 M 182.9 296.7 L 181.9 295.9 M 181.9 295.9 L 180.8 295.2 M 180.8 295.2 L 179.7 294.7 M 179.7 294.7 L 178.4 294.4 M 178.4 294.4 L 177.2 294.4 M 799.8 161.8 L 790 161.8 M 790 161.8 L 780.5 164.1 M 780.5 164.1 L 771.9 168.6 M 771.9 168.6 L 764.6 175.1 M 764.6 175.1 L 758.5 184 M 758.5 184 L 646.7 184 M 646.7 184 L 643.2 184.3 M 643.2 184.3 L 639.8 185.3 M 639.8 185.3 L 636.6 187 M 636.6 187 L 633.9 189.2 M 633.9 189.2 L 595.1 228 M 595.1 228 L 592.9 230.7 M 592.9 230.7 L 591.2 233.9 M 591.2 233.9 L 590.2 237.3 M 590.2 237.3 L 589.9 240.8 M 589.9 240.8 L 589.9 284.5 M 589.9 284.5 L 555.3 319.1 M 555.3 319.1 L 549.4 317.7 M 549.4 317.7 L 540.4 317.7 M 540.4 317.7 L 531.6 319.8 M 531.6 319.8 L 523.6 324 M 523.6 324 L 516.8 330 M 516.8 330 L 511.6 337.5 M 511.6 337.5 L 508.4 346 M 508.4 346 L 507.3 354.9 M 507.3 354.9 L 508.4 363.9 M 508.4 363.9 L 511.6 372.4 M 511.6 372.4 L 516.8 379.9 M 516.8 379.9 L 523.6 385.8 M 523.6 385.8 L 531.6 390.1 M 531.6 390.1 L 540.4 392.2 M 540.4 392.2 L 549.4 392.2 M 549.4 392.2 L 558.2 390.1 M 558.2 390.1 L 566.2 385.8 M 566.2 385.8 L 573 379.9 M 573 379.9 L 578.2 372.4 M 578.2 372.4 L 581.4 363.9 M 581.4 363.9 L 582.5 354.9 M 582.5 354.9 L 581.4 346 M 581.4 346 L 580.8 344.5 M 580.8 344.5 L 620.6 304.7 M 620.6 304.7 L 622.9 302 M 622.9 302 L 624.5 298.8 M 624.5 298.8 L 625.6 295.5 M 625.6 295.5 L 625.9 291.9 M 625.9 291.9 L 625.9 248.2 M 625.9 248.2 L 638.7 235.5 M 638.7 235.5 L 642.1 237.7 M 642.1 237.7 L 638.4 247.5 M 638.4 247.5 L 637.3 256.5 M 637.3 256.5 L 638.4 265.5 M 638.4 265.5 L 641.6 274 M 641.6 274 L 646.7 281.4 M 646.7 281.4 L 653.5 287.4 M 653.5 287.4 L 661.5 291.6 M 661.5 291.6 L 670.3 293.8 M 670.3 293.8 L 679.4 293.8 M 679.4 293.8 L 688.1 291.6 M 688.1 291.6 L 696.2 287.4 M 696.2 287.4 L 702.9 281.4 M 702.9 281.4 L 708.1 274 M 708.1 274 L 711.3 265.5 M 711.3 265.5 L 712.4 256.5 M 712.4 256.5 L 711.3 247.5 M 711.3 247.5 L 708.1 239.1 M 708.1 239.1 L 702.9 231.6 M 702.9 231.6 L 696.2 225.6 M 696.2 225.6 L 692.8 223.8 M 692.8 223.8 L 693.7 220 M 693.7 220 L 758.5 220 M 758.5 220 L 764.6 228.8 M 764.6 228.8 L 771.9 235.3 M 771.9 235.3 L 780.5 239.9 M 780.5 239.9 L 790 242.2 M 790 242.2 L 799.8 242.2 M 799.8 242.2 L 809.3 239.9 M 809.3 239.9 L 817.9 235.3 M 817.9 235.3 L 825.2 228.8 M 825.2 228.8 L 831.3 220 M 831.3 220 L 858.5 220 M 858.5 220 L 864.6 228.8 M 864.6 228.8 L 871.9 235.3 M 871.9 235.3 L 880.5 239.9 M 880.5 239.9 L 890 242.2 M 890 242.2 L 899.8 242.2 M 899.8 242.2 L 909.3 239.9 M 909.3 239.9 L 917.9 235.3 M 917.9 235.3 L 925.2 228.8 M 925.2 228.8 L 930.8 220.8 M 930.8 220.8 L 934.2 211.7 M 934.2 211.7 L 935.4 202 M 935.4 202 L 934.2 192.3 M 934.2 192.3 L 930.8 183.2 M 930.8 183.2 L 925.2 175.1 M 925.2 175.1 L 917.9 168.6 M 917.9 168.6 L 909.3 164.1 M 909.3 164.1 L 899.8 161.8 M 899.8 161.8 L 890 161.8 M 890 161.8 L 880.5 164.1 M 880.5 164.1 L 871.9 168.6 M 871.9 168.6 L 864.6 175.1 M 864.6 175.1 L 858.5 184 M 858.5 184 L 831.3 184 M 831.3 184 L 825.2 175.1 M 825.2 175.1 L 817.9 168.6 M 817.9 168.6 L 809.3 164.1 M 809.3 164.1 L 799.8 161.8 M 679.4 317.7 L 670.3 317.7 M 670.3 317.7 L 661.5 319.8 M 661.5 319.8 L 653.5 324 M 653.5 324 L 646.7 330 M 646.7 330 L 641.6 337.5 M 641.6 337.5 L 638.4 346 M 638.4 346 L 637.3 354.9 M 637.3 354.9 L 638.4 363.9 M 638.4 363.9 L 641.6 372.4 M 641.6 372.4 L 646.7 379.9 M 646.7 379.9 L 653.5 385.8 M 653.5 385.8 L 661.5 390.1 M 661.5 390.1 L 670.3 392.2 M 670.3 392.2 L 679.4 392.2 M 679.4 392.2 L 688.1 390.1 M 688.1 390.1 L 696.2 385.8 M 696.2 385.8 L 702.9 379.9 M 702.9 379.9 L 708.1 372.4 M 708.1 372.4 L 711.3 363.9 M 711.3 363.9 L 712.4 354.9 M 712.4 354.9 L 711.3 346 M 711.3 346 L 708.1 337.5 M 708.1 337.5 L 702.9 330 M 702.9 330 L 696.2 324 M 696.2 324 L 688.1 319.8 M 688.1 319.8 L 679.4 317.7 M 341 312.7 L 331.5 312.7 M 331.5 312.7 L 322.2 315 M 322.2 315 L 313.8 319.5 M 313.8 319.5 L 306.6 325.8 M 306.6 325.8 L 301.2 333.6 M 301.2 333.6 L 297.9 342.5 M 297.9 342.5 L 296.7 352 M 296.7 352 L 297.9 361.4 M 297.9 361.4 L 301.2 370.4 M 301.2 370.4 L 306.6 378.2 M 306.6 378.2 L 313.8 384.5 M 313.8 384.5 L 322.2 389 M 322.2 389 L 331.5 391.2 M 331.5 391.2 L 341 391.2 M 341 391.2 L 350.3 389 M 350.3 389 L 358.7 384.5 M 358.7 384.5 L 365.8 378.2 M 365.8 378.2 L 371.2 370.4 M 371.2 370.4 L 374.6 361.4 M 374.6 361.4 L 375.8 352 M 375.8 352 L 374.6 342.5 M 374.6 342.5 L 371.2 333.6 M 371.2 333.6 L 365.8 325.8 M 365.8 325.8 L 358.7 319.5 M 358.7 319.5 L 350.3 315 M 350.3 315 L 341 312.7 M 799.8 261.8 L 790 261.8 M 790 261.8 L 780.5 264.1 M 780.5 264.1 L 771.9 268.6 M 771.9 268.6 L 764.6 275.1 M 764.6 275.1 L 759 283.2 M 759 283.2 L 755.6 292.3 M 755.6 292.3 L 754.4 302 M 754.4 302 L 755.6 311.7 M 755.6 311.7 L 759 320.8 M 759 320.8 L 764.6 328.8 M 764.6 328.8 L 771.9 335.3 M 771.9 335.3 L 780.5 339.9 M 780.5 339.9 L 790 342.2 M 790 342.2 L 799.8 342.2 M 799.8 342.2 L 809.3 339.9 M 809.3 339.9 L 817.9 335.3 M 817.9 335.3 L 825.2 328.8 M 825.2 328.8 L 830.8 320.8 M 830.8 320.8 L 834.2 311.7 M 834.2 311.7 L 835.4 302 M 835.4 302 L 834.2 292.3 M 834.2 292.3 L 830.8 283.2 M 830.8 283.2 L 825.2 275.1 M 825.2 275.1 L 817.9 268.6 M 817.9 268.6 L 809.3 264.1 M 809.3 264.1 L 799.8 261.8 M 899.8 261.8 L 890 261.8 M 890 261.8 L 880.5 264.1 M 880.5 264.1 L 871.9 268.6 M 871.9 268.6 L 864.6 275.1 M 864.6 275.1 L 859 283.2 M 859 283.2 L 855.6 292.3 M 855.6 292.3 L 854.4 302 M 854.4 302 L 855.6 311.7 M 855.6 311.7 L 859 320.8 M 859 320.8 L 864.6 328.8 M 864.6 328.8 L 871.9 335.3 M 871.9 335.3 L 880.5 339.9 M 880.5 339.9 L 890 342.2 M 890 342.2 L 899.8 342.2 M 899.8 342.2 L 909.3 339.9 M 909.3 339.9 L 917.9 335.3 M 917.9 335.3 L 925.2 328.8 M 925.2 328.8 L 930.8 320.8 M 930.8 320.8 L 934.2 311.7 M 934.2 311.7 L 935.4 302 M 935.4 302 L 934.2 292.3 M 934.2 292.3 L 930.8 283.2 M 930.8 283.2 L 925.2 275.1 M 925.2 275.1 L 917.9 268.6 M 917.9 268.6 L 909.3 264.1 M 909.3 264.1 L 899.8 261.8 M 549.4 219.2 L 540.4 219.2 M 540.4 219.2 L 531.6 221.4 M 531.6 221.4 L 523.6 225.6 M 523.6 225.6 L 516.8 231.6 M 516.8 231.6 L 511.6 239.1 M 511.6 239.1 L 508.4 247.5 M 508.4 247.5 L 507.3 256.5 M 507.3 256.5 L 508.4 265.5 M 508.4 265.5 L 511.6 274 M 511.6 274 L 516.8 281.4 M 516.8 281.4 L 523.6 287.4 M 523.6 287.4 L 531.6 291.6 M 531.6 291.6 L 540.4 293.8 M 540.4 293.8 L 549.4 293.8 M 549.4 293.8 L 558.2 291.6 M 558.2 291.6 L 566.2 287.4 M 566.2 287.4 L 573 281.4 M 573 281.4 L 578.2 274 M 578.2 274 L 581.4 265.5 M 581.4 265.5 L 582.5 256.5 M 582.5 256.5 L 581.4 247.5 M 581.4 247.5 L 578.2 239.1 M 578.2 239.1 L 573 231.6 M 573 231.6 L 566.2 225.6 M 566.2 225.6 L 558.2 221.4 M 558.2 221.4 L 549.4 219.2 M 348.1 109.4 L 324.4 109.4 M 324.4 109.4 L 316.5 110 M 316.5 110 L 308.8 112.1 M 308.8 112.1 L 301.5 115.5 M 301.5 115.5 L 295 120.1 M 295 120.1 L 289.4 125.7 M 289.4 125.7 L 284.8 132.2 M 284.8 132.2 L 281.4 139.5 M 281.4 139.5 L 279.3 147.2 M 279.3 147.2 L 278.6 155.1 M 278.6 155.1 L 279.3 163.1 M 279.3 163.1 L 281.4 170.8 M 281.4 170.8 L 284.8 178.1 M 284.8 178.1 L 289.4 184.6 M 289.4 184.6 L 295 190.2 M 295 190.2 L 301.5 194.8 M 301.5 194.8 L 308.8 198.2 M 308.8 198.2 L 316.5 200.3 M 316.5 200.3 L 324.4 200.9 M 324.4 200.9 L 348.1 200.9 M 348.1 200.9 L 356 200.3 M 356 200.3 L 363.7 198.2 M 363.7 198.2 L 371 194.8 M 371 194.8 L 377.5 190.2 M 377.5 190.2 L 383.1 184.6 M 383.1 184.6 L 387.7 178.1 M 387.7 178.1 L 391.1 170.8 M 391.1 170.8 L 393.2 163.1 M 393.2 163.1 L 393.8 155.1 M 393.8 155.1 L 393.2 147.2 M 393.2 147.2 L 391.1 139.5 M 391.1 139.5 L 387.7 132.2 M 387.7 132.2 L 383.1 125.7 M 383.1 125.7 L 377.5 120.1 M 377.5 120.1 L 371 115.5 M 371 115.5 L 363.7 112.1 M 363.7 112.1 L 356 110 M 356 110 L 348.1 109.4 M 144.2 115.9 L 134.6 115.9 M 134.6 115.9 L 125.4 118.2 M 125.4 118.2 L 116.9 122.6 M 116.9 122.6 L 109.8 128.9 M 109.8 128.9 L 104.4 136.8 M 104.4 136.8 L 101 145.7 M 101 145.7 L 99.9 155.1 M 99.9 155.1 L 101 164.6 M 101 164.6 L 104.4 173.5 M 104.4 173.5 L 109.8 181.4 M 109.8 181.4 L 116.9 187.7 M 116.9 187.7 L 125.4 192.1 M 125.4 192.1 L 134.6 194.4 M 134.6 194.4 L 144.2 194.4 M 144.2 194.4 L 153.4 192.1 M 153.4 192.1 L 161.8 187.7 M 161.8 187.7 L 169 181.4 M 169 181.4 L 174.4 173.5 M 174.4 173.5 L 177.8 164.6 M 177.8 164.6 L 178.9 155.1 M 178.9 155.1 L 177.8 145.7 M 177.8 145.7 L 174.4 136.8 M 174.4 136.8 L 169 128.9 M 169 128.9 L 161.8 122.6 M 161.8 122.6 L 153.4 118.2 M 153.4 118.2 L 144.2 115.9 M 799.8 61.8 L 790 61.8 M 790 61.8 L 780.5 64.1 M 780.5 64.1 L 771.9 68.6 M 771.9 68.6 L 764.6 75.1 M 764.6 75.1 L 759 83.2 M 759 83.2 L 755.6 92.3 M 755.6 92.3 L 754.4 102 M 754.4 102 L 755.6 111.7 M 755.6 111.7 L 759 120.8 M 759 120.8 L 764.6 128.8 M 764.6 128.8 L 771.9 135.3 M 771.9 135.3 L 780.5 139.9 M 780.5 139.9 L 790 142.2 M 790 142.2 L 799.8 142.2 M 799.8 142.2 L 809.3 139.9 M 809.3 139.9 L 817.9 135.3 M 817.9 135.3 L 825.2 128.8 M 825.2 128.8 L 830.8 120.8 M 830.8 120.8 L 834.2 111.7 M 834.2 111.7 L 835.4 102 M 835.4 102 L 834.2 92.3 M 834.2 92.3 L 830.8 83.2 M 830.8 83.2 L 825.2 75.1 M 825.2 75.1 L 817.9 68.6 M 817.9 68.6 L 809.3 64.1 M 809.3 64.1 L 799.8 61.8 M 899.8 61.8 L 890 61.8 M 890 61.8 L 880.5 64.1 M 880.5 64.1 L 871.9 68.6 M 871.9 68.6 L 864.6 75.1 M 864.6 75.1 L 859 83.2 M 859 83.2 L 855.6 92.3 M 855.6 92.3 L 854.4 102 M 854.4 102 L 855.6 111.7 M 855.6 111.7 L 859 120.8 M 859 120.8 L 864.6 128.8 M 864.6 128.8 L 871.9 135.3 M 871.9 135.3 L 880.5 139.9 M 880.5 139.9 L 890 142.2 M 890 142.2 L 899.8 142.2 M 899.8 142.2 L 909.3 139.9 M 909.3 139.9 L 917.9 135.3 M 917.9 135.3 L 925.2 128.8 M 925.2 128.8 L 930.8 120.8 M 930.8 120.8 L 934.2 111.7 M 934.2 111.7 L 935.4 102 M 935.4 102 L 934.2 92.3 M 934.2 92.3 L 930.8 83.2 M 930.8 83.2 L 925.2 75.1 M 925.2 75.1 L 917.9 68.6 M 917.9 68.6 L 909.3 64.1 M 909.3 64.1 L 899.8 61.8 M 733.2 29.2 L 1070.5 29.2 M 730.6 31.1 L 1070.5 31.1 M 728.1 33.1 L 1070.5 33.1 M 725.5 35 L 1070.5 35 M 722.9 36.9 L 1070.5 36.9 M 720.3 38.9 L 1070.5 38.9 M 717.7 40.8 L 1070.5 40.8 M 715.1 42.8 L 1070.5 42.8 M 712.5 44.7 L 1070.5 44.7 M 709.9 46.7 L 1070.5 46.7 M 707.3 48.6 L 1070.5 48.6 M 704.7 50.6 L 1070.5 50.6 M 702 52.5 L 1070.5 52.5 M 699.4 54.5 L 1070.5 54.5 M 696.8 56.4 L 1070.5 56.4 M 694.2 58.4 L 1070.5 58.4 M 691.6 60.3 L 1070.5 60.3 M 689 62.3 L 787.9 62.3 M 801.9 62.3 L 887.9 62.3 M 901.9 62.3 L 1070.5 62.3 M 686.4 64.2 L 780.3 64.2 M 809.5 64.2 L 880.3 64.2 M 909.5 64.2 L 1070.5 64.2 M 683.8 66.2 L 776.6 66.2 M 813.2 66.2 L 876.6 66.2 M 913.2 66.2 L 1070.5 66.2 M 681.2 68.1 L 772.8 68.1 M 817 68.1 L 872.8 68.1 M 917 68.1 L 1070.5 68.1 M 678.6 70.1 L 770.3 70.1 M 819.5 70.1 L 870.3 70.1 M 919.5 70.1 L 1070.5 70.1 M 676 72 L 768.1 72 M 821.8 72 L 868.1 72 M 921.8 72 L 1070.5 72 M 673.4 74 L 765.8 74 M 824 74 L 865.8 74 M 924 74 L 1070.5 74 M 670.8 75.9 L 764 75.9 M 825.8 75.9 L 864 75.9 M 925.8 75.9 L 1070.5 75.9 M 668.2 77.9 L 762.7 77.9 M 827.1 77.9 L 862.7 77.9 M 927.1 77.9 L 1070.5 77.9 M 665.6 79.8 L 761.3 79.8 M 828.5 79.8 L 861.3 79.8 M 928.5 79.8 L 1070.5 79.8 M 663.1 81.8 L 759.9 81.8 M 829.9 81.8 L 859.9 81.8 M 929.9 81.8 L 1070.5 81.8 M 660.5 83.7 L 758.8 83.7 M 831 83.7 L 858.8 83.7 M 931 83.7 L 1070.5 83.7 M 657.9 85.7 L 758.1 85.7 M 831.8 85.7 L 858.1 85.7 M 931.8 85.7 L 1070.5 85.7 M 27.2 87.6 L 757.3 87.6 M 832.5 87.6 L 857.3 87.6 M 932.5 87.6 L 1070.5 87.6 M 27.2 89.6 L 756.6 89.6 M 833.2 89.6 L 856.6 89.6 M 933.2 89.6 L 1070.5 89.6 M 27.2 91.5 L 755.8 91.5 M 834 91.5 L 855.8 91.5 M 934 91.5 L 1070.5 91.5 M 27.2 93.5 L 755.4 93.5 M 834.4 93.5 L 855.4 93.5 M 934.4 93.5 L 1070.5 93.5 M 27.2 95.5 L 755.2 95.5 M 834.6 95.5 L 855.2 95.5 M 934.6 95.5 L 1070.5 95.5 M 27.2 97.4 L 754.9 97.4 M 834.9 97.4 L 854.9 97.4 M 934.9 97.4 L 1070.5 97.4 M 27.2 99.4 L 754.7 99.4 M 835.1 99.4 L 854.7 99.4 M 935.1 99.4 L 1070.5 99.4 M 27.2 101.3 L 754.5 101.3 M 835.3 101.3 L 854.5 101.3 M 935.3 101.3 L 1070.5 101.3 M 27.2 103.2 L 754.5 103.2 M 835.3 103.2 L 854.5 103.2 M 935.3 103.2 L 1070.5 103.2 M 27.2 105.2 L 754.7 105.2 M 835.1 105.2 L 854.7 105.2 M 935.1 105.2 L 1070.5 105.2 M 27.2 107.1 L 755 107.1 M 834.8 107.1 L 855 107.1 M 934.8 107.1 L 1070.5 107.1 M 27.2 109.1 L 755.2 109.1 M 834.6 109.1 L 855.2 109.1 M 934.6 109.1 L 1070.5 109.1 M 27.2 111 L 312.7 111 M 359.7 111 L 755.5 111 M 834.4 111 L 855.5 111 M 934.4 111 L 1070.5 111 M 27.2 113 L 306.9 113 M 365.6 113 L 756 113 M 833.8 113 L 856 113 M 933.8 113 L 1070.5 113 M 27.2 114.9 L 302.7 114.9 M 369.8 114.9 L 756.8 114.9 M 833 114.9 L 856.8 114.9 M 933 114.9 L 1070.5 114.9 M 27.2 116.9 L 130.5 116.9 M 148.2 116.9 L 299.5 116.9 M 373 116.9 L 757.5 116.9 M 832.3 116.9 L 857.5 116.9 M 932.3 116.9 L 1070.5 116.9 M 27.2 118.8 L 124.1 118.8 M 154.7 118.8 L 296.7 118.8 M 375.8 118.8 L 758.2 118.8 M 831.6 118.8 L 858.2 118.8 M 931.6 118.8 L 1070.5 118.8 M 27.2 120.8 L 120.4 120.8 M 158.4 120.8 L 294.2 120.8 M 378.2 120.8 L 759 120.8 M 830.8 120.8 L 859 120.8 M 930.8 120.8 L 1070.5 120.8 M 27.2 122.7 L 116.8 122.7 M 162 122.7 L 292.3 122.7 M 380.2 122.7 L 760.3 122.7 M 829.5 122.7 L 860.3 122.7 M 929.5 122.7 L 1070.5 122.7 M 27.2 124.7 L 114.5 124.7 M 164.2 124.7 L 290.3 124.7 M 382.1 124.7 L 761.7 124.7 M 828.1 124.7 L 861.7 124.7 M 928.1 124.7 L 1070.5 124.7 M 27.2 126.6 L 112.3 126.6 M 166.4 126.6 L 288.7 126.6 M 383.8 126.6 L 763 126.6 M 826.8 126.6 L 863 126.6 M 926.8 126.6 L 1070.5 126.6 M 27.2 128.6 L 110.2 128.6 M 168.6 128.6 L 287.3 128.6 M 385.2 128.6 L 764.4 128.6 M 825.4 128.6 L 864.4 128.6 M 925.4 128.6 L 1070.5 128.6 M 27.2 130.5 L 108.7 130.5 M 170.1 130.5 L 286 130.5 M 386.5 130.5 L 766.4 130.5 M 823.4 130.5 L 866.4 130.5 M 923.4 130.5 L 1070.5 130.5 M 27.2 132.5 L 107.3 132.5 M 171.4 132.5 L 284.6 132.5 M 387.9 132.5 L 768.6 132.5 M 821.2 132.5 L 868.6 132.5 M 921.2 132.5 L 1070.5 132.5 M 27.2 134.4 L 106 134.4 M 172.8 134.4 L 283.7 134.4 M 388.8 134.4 L 770.8 134.4 M 819 134.4 L 870.8 134.4 M 919 134.4 L 1070.5 134.4 M 27.2 136.4 L 104.6 136.4 M 174.2 136.4 L 282.8 136.4 M 389.7 136.4 L 773.9 136.4 M 815.9 136.4 L 873.9 136.4 M 915.9 136.4 L 1070.5 136.4 M 27.2 138.3 L 103.8 138.3 M 175 138.3 L 281.9 138.3 M 390.6 138.3 L 777.6 138.3 M 812.2 138.3 L 877.6 138.3 M 912.2 138.3 L 1070.5 138.3 M 27.2 140.3 L 103.1 140.3 M 175.7 140.3 L 281.2 140.3 M 391.3 140.3 L 782.1 140.3 M 807.7 140.3 L 882.1 140.3 M 907.7 140.3 L 1070.5 140.3 M 27.2 142.2 L 102.3 142.2 M 176.5 142.2 L 280.6 142.2 M 391.8 142.2 L 1070.5 142.2 M 27.2 144.2 L 101.6 144.2 M 177.2 144.2 L 280.1 144.2 M 392.3 144.2 L 1070.5 144.2 M 27.2 146.1 L 100.9 146.1 M 177.9 146.1 L 279.6 146.1 M 392.9 146.1 L 1070.5 146.1 M 27.2 148.1 L 100.7 148.1 M 178.1 148.1 L 279.2 148.1 M 393.2 148.1 L 1070.5 148.1 M 27.2 150 L 100.5 150 M 178.3 150 L 279.1 150 M 393.4 150 L 1070.5 150 M 27.2 152 L 100.2 152 M 178.6 152 L 278.9 152 M 393.6 152 L 1070.5 152 M 27.2 153.9 L 100 153.9 M 178.8 153.9 L 278.7 153.9 M 393.8 153.9 L 1070.5 153.9 M 27.2 155.9 L 99.9 155.9 M 178.8 155.9 L 278.7 155.9 M 393.8 155.9 L 1070.5 155.9 M 27.2 157.9 L 100.2 157.9 M 178.6 157.9 L 278.9 157.9 M 393.6 157.9 L 1070.5 157.9 M 27.2 159.8 L 100.4 159.8 M 178.4 159.8 L 279 159.8 M 393.4 159.8 L 1070.5 159.8 M 27.2 161.8 L 100.6 161.8 M 178.1 161.8 L 279.2 161.8 M 393.3 161.8 L 1070.5 161.8 M 27.2 163.7 L 100.9 163.7 M 177.9 163.7 L 279.5 163.7 M 393 163.7 L 782.2 163.7 M 807.6 163.7 L 882.2 163.7 M 907.6 163.7 L 1070.5 163.7 M 27.2 165.6 L 101.4 165.6 M 177.4 165.6 L 280 165.6 M 392.5 165.6 L 777.6 165.6 M 812.2 165.6 L 877.6 165.6 M 912.2 165.6 L 1070.5 165.6 M 27.2 167.6 L 102.1 167.6 M 176.7 167.6 L 280.5 167.6 M 391.9 167.6 L 773.9 167.6 M 815.9 167.6 L 873.9 167.6 M 915.9 167.6 L 1070.5 167.6 M 27.2 169.5 L 102.9 169.5 M 175.9 169.5 L 281 169.5 M 391.4 169.5 L 770.8 169.5 M 819 169.5 L 870.8 169.5 M 919 169.5 L 1070.5 169.5 M 27.2 171.5 L 103.6 171.5 M 175.2 171.5 L 281.7 171.5 M 390.8 171.5 L 768.6 171.5 M 821.2 171.5 L 868.6 171.5 M 921.2 171.5 L 1070.5 171.5 M 27.2 173.4 L 104.4 173.4 M 174.4 173.4 L 282.6 173.4 M 389.9 173.4 L 766.5 173.4 M 823.3 173.4 L 866.5 173.4 M 923.3 173.4 L 1070.5 173.4 M 27.2 175.4 L 105.6 175.4 M 173.1 175.4 L 283.5 175.4 M 389 175.4 L 764.4 175.4 M 825.4 175.4 L 864.4 175.4 M 925.4 175.4 L 1070.5 175.4 M 27.2 177.3 L 107 177.3 M 171.8 177.3 L 284.4 177.3 M 388.1 177.3 L 763 177.3 M 826.8 177.3 L 863 177.3 M 926.8 177.3 L 1070.5 177.3 M 27.2 179.3 L 108.4 179.3 M 170.4 179.3 L 285.6 179.3 M 386.8 179.3 L 761.7 179.3 M 828.1 179.3 L 861.7 179.3 M 928.1 179.3 L 1070.5 179.3 M 27.2 181.2 L 109.7 181.2 M 169.1 181.2 L 287 181.2 M 385.5 181.2 L 760.3 181.2 M 829.5 181.2 L 860.3 181.2 M 929.5 181.2 L 1070.5 181.2 M 27.2 183.2 L 111.8 183.2 M 166.9 183.2 L 288.4 183.2 M 384.1 183.2 L 759 183.2 M 830.8 183.2 L 859 183.2 M 930.8 183.2 L 1070.5 183.2 M 27.2 185.1 L 114 185.1 M 164.7 185.1 L 289.9 185.1 M 382.6 185.1 L 640.3 185.1 M 931.6 185.1 L 1070.5 185.1 M 27.2 187.1 L 116.2 187.1 M 162.5 187.1 L 291.8 187.1 M 380.6 187.1 L 636.5 187.1 M 932.3 187.1 L 1070.5 187.1 M 27.2 189 L 119.5 189 M 159.3 189 L 293.8 189 M 378.7 189 L 634.2 189 M 933 189 L 1070.5 189 M 27.2 191 L 123.2 191 M 155.6 191 L 296.1 191 M 376.4 191 L 632.1 191 M 933.8 191 L 1070.5 191 M 27.2 192.9 L 128.7 192.9 M 150.1 192.9 L 298.8 192.9 M 373.6 192.9 L 630.2 192.9 M 934.4 192.9 L 1070.5 192.9 M 27.2 194.9 L 301.7 194.9 M 370.8 194.9 L 628.2 194.9 M 934.6 194.9 L 1070.5 194.9 M 27.2 196.8 L 305.9 196.8 M 366.6 196.8 L 626.3 196.8 M 934.8 196.8 L 1070.5 196.8 M 27.2 198.8 L 311 198.8 M 361.5 198.8 L 624.4 198.8 M 935.1 198.8 L 1070.5 198.8 M 27.2 200.7 L 322.1 200.7 M 350.4 200.7 L 622.4 200.7 M 935.3 200.7 L 1070.5 200.7 M 27.2 202.7 L 620.5 202.7 M 935.3 202.7 L 1070.5 202.7 M 27.2 204.6 L 618.5 204.6 M 935.1 204.6 L 1070.5 204.6 M 27.2 206.6 L 616.6 206.6 M 934.9 206.6 L 1070.5 206.6 M 27.2 208.5 L 614.6 208.5 M 934.6 208.5 L 1070.5 208.5 M 27.2 210.5 L 612.7 210.5 M 934.4 210.5 L 1070.5 210.5 M 27.2 212.4 L 610.7 212.4 M 934 212.4 L 1070.5 212.4 M 27.2 214.4 L 608.8 214.4 M 933.2 214.4 L 1070.5 214.4 M 27.2 216.3 L 606.8 216.3 M 932.5 216.3 L 1070.5 216.3 M 27.2 218.3 L 604.9 218.3 M 931.8 218.3 L 1070.5 218.3 M 27.2 220.2 L 536.2 220.2 M 553.6 220.2 L 602.9 220.2 M 693.7 220.2 L 758.6 220.2 M 831.2 220.2 L 858.6 220.2 M 931 220.2 L 1070.5 220.2 M 27.2 222.2 L 530.1 222.2 M 559.7 222.2 L 601 222.2 M 693.2 222.2 L 759.9 222.2 M 829.9 222.2 L 859.9 222.2 M 929.9 222.2 L 1070.5 222.2 M 27.2 224.2 L 526.3 224.2 M 563.5 224.2 L 599 224.2 M 693.4 224.2 L 761.3 224.2 M 828.5 224.2 L 861.3 224.2 M 928.5 224.2 L 1070.5 224.2 M 27.2 226.1 L 523 226.1 M 566.8 226.1 L 597.1 226.1 M 696.7 226.1 L 762.7 226.1 M 827.1 226.1 L 862.7 226.1 M 927.1 226.1 L 1070.5 226.1 M 27.2 228.1 L 520.8 228.1 M 569 228.1 L 595.1 228.1 M 698.9 228.1 L 764 228.1 M 825.8 228.1 L 864 228.1 M 925.8 228.1 L 1070.5 228.1 M 27.2 230 L 518.6 230 M 571.2 230 L 593.5 230 M 701.1 230 L 765.8 230 M 824 230 L 865.8 230 M 924 230 L 1070.5 230 M 27.2 231.9 L 516.6 231.9 M 573.2 231.9 L 592.3 231.9 M 703.2 231.9 L 768 231.9 M 821.8 231.9 L 868 231.9 M 921.8 231.9 L 1070.5 231.9 M 27.2 233.9 L 515.2 233.9 M 574.6 233.9 L 591.2 233.9 M 704.5 233.9 L 770.2 233.9 M 819.6 233.9 L 870.2 233.9 M 919.6 233.9 L 1070.5 233.9 M 27.2 235.8 L 513.8 235.8 M 576 235.8 L 590.6 235.8 M 638.4 235.8 L 639.2 235.8 M 705.9 235.8 L 772.8 235.8 M 817 235.8 L 872.8 235.8 M 917 235.8 L 1070.5 235.8 M 27.2 237.8 L 512.5 237.8 M 577.3 237.8 L 590.1 237.8 M 636.4 237.8 L 642 237.8 M 707.2 237.8 L 776.5 237.8 M 813.3 237.8 L 876.5 237.8 M 913.3 237.8 L 1070.5 237.8 M 27.2 239.7 L 511.4 239.7 M 578.4 239.7 L 589.9 239.7 M 634.5 239.7 L 641.3 239.7 M 708.4 239.7 L 780.3 239.7 M 809.5 239.7 L 880.3 239.7 M 909.5 239.7 L 1070.5 239.7 M 27.2 241.7 L 510.6 241.7 M 579.2 241.7 L 589.9 241.7 M 632.5 241.7 L 640.6 241.7 M 709.1 241.7 L 787.9 241.7 M 801.9 241.7 L 887.9 241.7 M 901.9 241.7 L 1070.5 241.7 M 27.2 243.6 L 509.9 243.6 M 579.9 243.6 L 589.9 243.6 M 630.6 243.6 L 639.8 243.6 M 709.8 243.6 L 1070.5 243.6 M 27.2 245.6 L 509.2 245.6 M 580.6 245.6 L 589.9 245.6 M 628.6 245.6 L 639.1 245.6 M 710.6 245.6 L 1070.5 245.6 M 27.2 247.5 L 508.4 247.5 M 581.4 247.5 L 589.9 247.5 M 626.6 247.5 L 638.3 247.5 M 711.3 247.5 L 1070.5 247.5 M 27.2 249.5 L 508.2 249.5 M 581.6 249.5 L 589.9 249.5 M 625.9 249.5 L 638.1 249.5 M 711.6 249.5 L 1070.5 249.5 M 27.2 251.4 L 507.9 251.4 M 581.9 251.4 L 589.9 251.4 M 625.9 251.4 L 637.9 251.4 M 711.8 251.4 L 1070.5 251.4 M 27.2 253.4 L 507.7 253.4 M 582.1 253.4 L 589.9 253.4 M 625.9 253.4 L 637.6 253.4 M 712 253.4 L 1070.5 253.4 M 27.2 255.3 L 507.5 255.3 M 582.3 255.3 L 589.9 255.3 M 625.9 255.3 L 637.4 255.3 M 712.3 255.3 L 1070.5 255.3 M 27.2 257.3 L 507.4 257.3 M 582.4 257.3 L 589.9 257.3 M 625.9 257.3 L 637.3 257.3 M 712.3 257.3 L 1070.5 257.3 M 27.2 259.2 L 507.7 259.2 M 582.1 259.2 L 589.9 259.2 M 625.9 259.2 L 637.6 259.2 M 712.1 259.2 L 1070.5 259.2 M 27.2 261.2 L 507.9 261.2 M 581.9 261.2 L 589.9 261.2 M 625.9 261.2 L 637.8 261.2 M 711.8 261.2 L 1070.5 261.2 M 27.2 263.1 L 508.1 263.1 M 581.7 263.1 L 589.9 263.1 M 625.9 263.1 L 638.1 263.1 M 711.6 263.1 L 784.4 263.1 M 805.4 263.1 L 884.4 263.1 M 905.4 263.1 L 1070.5 263.1 M 27.2 265.1 L 508.4 265.1 M 581.4 265.1 L 589.9 265.1 M 625.9 265.1 L 638.3 265.1 M 711.4 265.1 L 778.6 265.1 M 811.2 265.1 L 878.6 265.1 M 911.2 265.1 L 1070.5 265.1 M 27.2 267 L 509 267 M 580.8 267 L 589.9 267 M 625.9 267 L 638.9 267 M 710.7 267 L 774.9 267 M 814.9 267 L 874.9 267 M 914.9 267 L 1070.5 267 M 27.2 269 L 509.7 269 M 580.1 269 L 589.9 269 M 625.9 269 L 639.7 269 M 710 269 L 771.5 269 M 818.3 269 L 871.5 269 M 918.3 269 L 1070.5 269 M 27.2 270.9 L 510.5 270.9 M 579.3 270.9 L 589.9 270.9 M 625.9 270.9 L 640.4 270.9 M 709.2 270.9 L 769.3 270.9 M 820.5 270.9 L 869.3 270.9 M 920.5 270.9 L 1070.5 270.9 M 27.2 272.9 L 511.2 272.9 M 578.6 272.9 L 589.9 272.9 M 625.9 272.9 L 641.1 272.9 M 708.5 272.9 L 767.1 272.9 M 822.7 272.9 L 867.1 272.9 M 922.7 272.9 L 1070.5 272.9 M 27.2 274.8 L 512.2 274.8 M 577.6 274.8 L 589.9 274.8 M 625.9 274.8 L 642.1 274.8 M 707.5 274.8 L 764.9 274.8 M 824.9 274.8 L 864.9 274.8 M 924.9 274.8 L 1070.5 274.8 M 27.2 276.8 L 513.6 276.8 M 576.2 276.8 L 589.9 276.8 M 625.9 276.8 L 643.5 276.8 M 706.2 276.8 L 763.4 276.8 M 826.4 276.8 L 863.4 276.8 M 926.4 276.8 L 1070.5 276.8 M 27.2 278.7 L 514.9 278.7 M 574.9 278.7 L 589.9 278.7 M 625.9 278.7 L 644.8 278.7 M 704.8 278.7 L 762.1 278.7 M 827.7 278.7 L 862.1 278.7 M 927.7 278.7 L 1070.5 278.7 M 27.2 280.7 L 516.2 280.7 M 573.6 280.7 L 589.9 280.7 M 625.9 280.7 L 646.2 280.7 M 703.5 280.7 L 760.7 280.7 M 829.1 280.7 L 860.7 280.7 M 929.1 280.7 L 1070.5 280.7 M 27.2 282.6 L 518.1 282.6 M 571.7 282.6 L 589.9 282.6 M 625.9 282.6 L 648.1 282.6 M 701.6 282.6 L 759.4 282.6 M 830.4 282.6 L 859.4 282.6 M 930.4 282.6 L 1070.5 282.6 M 27.2 284.6 L 520.3 284.6 M 569.5 284.6 L 589.7 284.6 M 625.9 284.6 L 650.3 284.6 M 699.4 284.6 L 758.5 284.6 M 831.3 284.6 L 858.5 284.6 M 931.3 284.6 L 1070.5 284.6 M 27.2 286.5 L 522.5 286.5 M 567.3 286.5 L 587.8 286.5 M 625.9 286.5 L 652.5 286.5 M 697.2 286.5 L 757.7 286.5 M 832.1 286.5 L 857.7 286.5 M 932.1 286.5 L 1070.5 286.5 M 27.2 288.5 L 525.5 288.5 M 564.3 288.5 L 585.8 288.5 M 625.9 288.5 L 655.5 288.5 M 694.2 288.5 L 757 288.5 M 832.8 288.5 L 857 288.5 M 932.8 288.5 L 1070.5 288.5 M 27.2 290.5 L 529.3 290.5 M 560.5 290.5 L 583.9 290.5 M 625.9 290.5 L 659.2 290.5 M 690.5 290.5 L 756.2 290.5 M 833.6 290.5 L 856.2 290.5 M 933.6 290.5 L 1070.5 290.5 M 27.2 292.4 L 534.5 292.4 M 555.3 292.4 L 581.9 292.4 M 625.9 292.4 L 664.5 292.4 M 685.2 292.4 L 755.5 292.4 M 834.3 292.4 L 855.5 292.4 M 934.3 292.4 L 1070.5 292.4 M 27.2 294.4 L 580 294.4 M 625.7 294.4 L 755.3 294.4 M 834.5 294.4 L 855.3 294.4 M 934.5 294.4 L 1070.5 294.4 M 27.2 296.3 L 96.4 296.3 M 135.4 296.3 L 143.4 296.3 M 182.4 296.3 L 578.1 296.3 M 625.3 296.3 L 755.1 296.3 M 834.7 296.3 L 855.1 296.3 M 934.7 296.3 L 1070.5 296.3 M 27.2 298.2 L 94.7 298.2 M 135.4 298.2 L 143.4 298.2 M 184.1 298.2 L 576.1 298.2 M 624.7 298.2 L 754.8 298.2 M 835 298.2 L 854.8 298.2 M 935 298.2 L 1070.5 298.2 M 27.2 300.2 L 93.9 300.2 M 135.4 300.2 L 143.4 300.2 M 184.9 300.2 L 574.1 300.2 M 623.9 300.2 L 754.6 300.2 M 835.2 300.2 L 854.6 300.2 M 935.2 300.2 L 1070.5 300.2 M 27.2 302.1 L 93.6 302.1 M 135.4 302.1 L 143.4 302.1 M 185.2 302.1 L 572.2 302.1 M 622.8 302.1 L 754.4 302.1 M 835.4 302.1 L 854.4 302.1 M 935.4 302.1 L 1070.5 302.1 M 27.2 304.1 L 93.6 304.1 M 135.4 304.1 L 143.4 304.1 M 185.2 304.1 L 570.2 304.1 M 621.2 304.1 L 754.6 304.1 M 835.2 304.1 L 854.6 304.1 M 935.2 304.1 L 1070.5 304.1 M 27.2 306 L 93.6 306 M 185.2 306 L 568.3 306 M 619.4 306 L 754.9 306 M 834.9 306 L 854.9 306 M 934.9 306 L 1070.5 306 M 27.2 308 L 93.6 308 M 185.2 308 L 566.3 308 M 617.4 308 L 755.1 308 M 834.7 308 L 855.1 308 M 934.7 308 L 1070.5 308 M 27.2 309.9 L 93.6 309.9 M 185.2 309.9 L 564.4 309.9 M 615.5 309.9 L 755.3 309.9 M 834.5 309.9 L 855.3 309.9 M 934.5 309.9 L 1070.5 309.9 M 27.2 311.9 L 93.6 311.9 M 185.2 311.9 L 562.4 311.9 M 613.5 311.9 L 755.6 311.9 M 834.2 311.9 L 855.6 311.9 M 934.2 311.9 L 1070.5 311.9 M 27.2 313.8 L 93.6 313.8 M 185.2 313.8 L 327 313.8 M 345.5 313.8 L 560.5 313.8 M 611.5 313.8 L 756.4 313.8 M 833.4 313.8 L 856.4 313.8 M 933.4 313.8 L 1070.5 313.8 M 27.2 315.8 L 93.6 315.8 M 185.2 315.8 L 320.7 315.8 M 351.8 315.8 L 558.5 315.8 M 609.6 315.8 L 757.1 315.8 M 832.7 315.8 L 857.1 315.8 M 932.7 315.8 L 1070.5 315.8 M 27.2 317.7 L 93.6 317.7 M 185.2 317.7 L 317 317.7 M 355.5 317.7 L 540 317.7 M 549.8 317.7 L 556.6 317.7 M 607.6 317.7 L 669.9 317.7 M 679.7 317.7 L 757.9 317.7 M 831.9 317.7 L 857.9 317.7 M 931.9 317.7 L 1070.5 317.7 M 27.2 319.7 L 93.6 319.7 M 185.2 319.7 L 313.5 319.7 M 359 319.7 L 532.1 319.7 M 605.7 319.7 L 662 319.7 M 687.7 319.7 L 758.6 319.7 M 831.2 319.7 L 858.6 319.7 M 931.2 319.7 L 1070.5 319.7 M 27.2 321.6 L 93.6 321.6 M 185.2 321.6 L 311.3 321.6 M 361.2 321.6 L 528.1 321.6 M 603.7 321.6 L 658 321.6 M 691.6 321.6 L 759.6 321.6 M 830.2 321.6 L 859.6 321.6 M 930.2 321.6 L 1070.5 321.6 M 27.2 323.6 L 93.6 323.6 M 185.2 323.6 L 309.1 323.6 M 363.4 323.6 L 524.4 323.6 M 601.8 323.6 L 654.3 323.6 M 695.3 323.6 L 760.9 323.6 M 828.9 323.6 L 860.9 323.6 M 928.9 323.6 L 1070.5 323.6 M 27.2 325.5 L 93.6 325.5 M 185.2 325.5 L 306.9 325.5 M 365.6 325.5 L 521.8 325.5 M 599.8 325.5 L 651.8 325.5 M 697.9 325.5 L 762.3 325.5 M 827.5 325.5 L 862.3 325.5 M 927.5 325.5 L 1070.5 325.5 M 27.2 327.5 L 93.6 327.5 M 185.2 327.5 L 305.5 327.5 M 367 327.5 L 519.6 327.5 M 597.9 327.5 L 649.5 327.5 M 700.1 327.5 L 763.6 327.5 M 826.2 327.5 L 863.6 327.5 M 926.2 327.5 L 1070.5 327.5 M 27.2 329.4 L 93.6 329.4 M 185.2 329.4 L 304.1 329.4 M 368.4 329.4 L 517.4 329.4 M 595.9 329.4 L 647.3 329.4 M 702.3 329.4 L 765.2 329.4 M 824.6 329.4 L 865.2 329.4 M 924.6 329.4 L 1070.5 329.4 M 27.2 331.4 L 93.6 331.4 M 185.2 331.4 L 302.8 331.4 M 369.7 331.4 L 515.8 331.4 M 594 331.4 L 645.8 331.4 M 703.9 331.4 L 767.4 331.4 M 822.4 331.4 L 867.4 331.4 M 922.4 331.4 L 1070.5 331.4 M 27.2 333.3 L 93.6 333.3 M 185.2 333.3 L 301.4 333.3 M 371.1 333.3 L 514.5 333.3 M 592 333.3 L 644.4 333.3 M 705.2 333.3 L 769.6 333.3 M 820.2 333.3 L 869.6 333.3 M 920.2 333.3 L 1070.5 333.3 M 27.2 335.3 L 93.6 335.3 M 185.2 335.3 L 300.6 335.3 M 371.9 335.3 L 513.1 335.3 M 590.1 335.3 L 643.1 335.3 M 706.6 335.3 L 771.8 335.3 M 818 335.3 L 871.8 335.3 M 918 335.3 L 1070.5 335.3 M 27.2 337.2 L 93.6 337.2 M 185.2 337.2 L 299.9 337.2 M 372.6 337.2 L 511.8 337.2 M 588.1 337.2 L 641.7 337.2 M 707.9 337.2 L 775.5 337.2 M 814.3 337.2 L 875.5 337.2 M 914.3 337.2 L 1070.5 337.2 M 27.2 339.2 L 93.6 339.2 M 185.2 339.2 L 299.1 339.2 M 373.4 339.2 L 511 339.2 M 586.2 339.2 L 640.9 339.2 M 708.8 339.2 L 779.2 339.2 M 810.6 339.2 L 879.2 339.2 M 910.6 339.2 L 1070.5 339.2 M 27.2 341.1 L 93.6 341.1 M 185.2 341.1 L 298.4 341.1 M 374.1 341.1 L 510.3 341.1 M 584.2 341.1 L 640.2 341.1 M 709.5 341.1 L 785.6 341.1 M 804.2 341.1 L 885.6 341.1 M 904.2 341.1 L 1070.5 341.1 M 27.2 343.1 L 93.6 343.1 M 185.2 343.1 L 297.8 343.1 M 374.7 343.1 L 509.5 343.1 M 582.3 343.1 L 639.4 343.1 M 710.2 343.1 L 1070.5 343.1 M 27.2 345 L 93.6 345 M 185.2 345 L 297.5 345 M 374.9 345 L 508.8 345 M 581 345 L 638.7 345 M 711 345 L 1070.5 345 M 27.2 347 L 93.6 347 M 185.2 347 L 297.3 347 M 375.2 347 L 508.3 347 M 581.5 347 L 638.2 347 M 711.4 347 L 1070.5 347 M 27.2 348.9 L 103.6 348.9 M 175.2 348.9 L 297.1 348.9 M 375.4 348.9 L 508.1 348.9 M 581.8 348.9 L 638 348.9 M 711.7 348.9 L 1070.5 348.9 M 27.2 350.9 L 103.6 350.9 M 175.2 350.9 L 296.8 350.9 M 375.6 350.9 L 507.8 350.9 M 582 350.9 L 637.7 350.9 M 711.9 350.9 L 1070.5 350.9 M 27.2 352.9 L 103.6 352.9 M 175.2 352.9 L 296.8 352.9 M 375.7 352.9 L 507.6 352.9 M 582.2 352.9 L 637.5 352.9 M 712.1 352.9 L 1070.5 352.9 M 27.2 354.8 L 103.6 354.8 M 175.2 354.8 L 297 354.8 M 375.5 354.8 L 507.3 354.8 M 582.5 354.8 L 637.3 354.8 M 712.4 354.8 L 1070.5 354.8 M 27.2 356.8 L 93.6 356.8 M 185.2 356.8 L 297.3 356.8 M 375.2 356.8 L 507.5 356.8 M 582.3 356.8 L 637.5 356.8 M 712.2 356.8 L 1070.5 356.8 M 27.2 358.7 L 93.6 358.7 M 185.2 358.7 L 297.5 358.7 M 375 358.7 L 507.8 358.7 M 582 358.7 L 637.7 358.7 M 711.9 358.7 L 1070.5 358.7 M 27.2 360.6 L 93.6 360.6 M 185.2 360.6 L 297.7 360.6 M 374.7 360.6 L 508 360.6 M 581.8 360.6 L 637.9 360.6 M 711.7 360.6 L 1070.5 360.6 M 27.2 362.6 L 93.6 362.6 M 185.2 362.6 L 298.3 362.6 M 374.2 362.6 L 508.2 362.6 M 581.6 362.6 L 638.2 362.6 M 711.5 362.6 L 786.6 362.6 M 803.2 362.6 L 886.6 362.6 M 903.2 362.6 L 1070.5 362.6 M 27.2 364.5 L 93.6 364.5 M 185.2 364.5 L 299 364.5 M 373.5 364.5 L 508.6 364.5 M 581.2 364.5 L 638.6 364.5 M 711.1 364.5 L 779.7 364.5 M 810.1 364.5 L 879.7 364.5 M 910.1 364.5 L 1070.5 364.5 M 27.2 366.5 L 93.6 366.5 M 185.2 366.5 L 299.7 366.5 M 372.7 366.5 L 509.4 366.5 M 580.4 366.5 L 639.3 366.5 M 710.3 366.5 L 776 366.5 M 813.8 366.5 L 876 366.5 M 913.8 366.5 L 1070.5 366.5 M 27.2 368.4 L 93.6 368.4 M 185.2 368.4 L 300.5 368.4 M 372 368.4 L 510.1 368.4 M 579.7 368.4 L 640.1 368.4 M 709.6 368.4 L 772.3 368.4 M 817.5 368.4 L 872.3 368.4 M 917.5 368.4 L 1070.5 368.4 M 27.2 370.4 L 93.6 370.4 M 185.2 370.4 L 301.2 370.4 M 371.2 370.4 L 510.8 370.4 M 579 370.4 L 640.8 370.4 M 708.9 370.4 L 769.9 370.4 M 819.9 370.4 L 869.9 370.4 M 919.9 370.4 L 1070.5 370.4 M 27.2 372.3 L 93.6 372.3 M 185.2 372.3 L 302.6 372.3 M 369.9 372.3 L 511.6 372.3 M 578.2 372.3 L 641.5 372.3 M 708.1 372.3 L 767.7 372.3 M 822.1 372.3 L 867.7 372.3 M 922.1 372.3 L 1070.5 372.3 M 27.2 374.3 L 93.6 374.3 M 185.2 374.3 L 303.9 374.3 M 368.6 374.3 L 512.9 374.3 M 576.9 374.3 L 642.9 374.3 M 706.8 374.3 L 765.5 374.3 M 824.3 374.3 L 865.5 374.3 M 924.3 374.3 L 1070.5 374.3 M 27.2 376.2 L 93.6 376.2 M 185.2 376.2 L 305.3 376.2 M 367.2 376.2 L 514.3 376.2 M 575.5 376.2 L 644.2 376.2 M 705.5 376.2 L 763.8 376.2 M 826 376.2 L 863.8 376.2 M 926 376.2 L 1070.5 376.2 M 27.2 378.2 L 93.6 378.2 M 185.2 378.2 L 306.6 378.2 M 365.8 378.2 L 515.6 378.2 M 574.2 378.2 L 645.5 378.2 M 704.1 378.2 L 762.5 378.2 M 827.3 378.2 L 862.5 378.2 M 927.3 378.2 L 1070.5 378.2 M 27.2 380.1 L 93.6 380.1 M 185.2 380.1 L 308.8 380.1 M 363.7 380.1 L 517.1 380.1 M 572.7 380.1 L 647 380.1 M 702.7 380.1 L 761.1 380.1 M 828.7 380.1 L 861.1 380.1 M 928.7 380.1 L 1070.5 380.1 M 27.2 382.1 L 93.6 382.1 M 185.2 382.1 L 311 382.1 M 361.5 382.1 L 519.3 382.1 M 570.5 382.1 L 649.2 382.1 M 700.5 382.1 L 759.7 382.1 M 830.1 382.1 L 859.7 382.1 M 930.1 382.1 L 1070.5 382.1 M 27.2 384 L 93.6 384 M 185.2 384 L 313.2 384 M 359.3 384 L 521.5 384 M 568.3 384 L 651.4 384 M 698.2 384 L 758.7 384 M 831.1 384 L 858.7 384 M 931.1 384 L 1070.5 384 M 27.2 386 L 93.6 386 M 185.2 386 L 316.6 386 M 355.9 386 L 523.8 386 M 566 386 L 653.7 386 M 695.9 386 L 757.9 386 M 831.9 386 L 857.9 386 M 931.9 386 L 1070.5 386 M 27.2 387.9 L 93.6 387.9 M 185.2 387.9 L 320.3 387.9 M 352.2 387.9 L 527.5 387.9 M 562.3 387.9 L 657.4 387.9 M 692.2 387.9 L 757.2 387.9 M 832.6 387.9 L 857.2 387.9 M 932.6 387.9 L 1070.5 387.9 M 27.2 389.9 L 93.6 389.9 M 185.2 389.9 L 326 389.9 M 346.5 389.9 L 531.2 389.9 M 558.6 389.9 L 661.1 389.9 M 688.5 389.9 L 756.5 389.9 M 833.3 389.9 L 856.5 389.9 M 933.3 389.9 L 1070.5 389.9 M 27.2 391.8 L 93.6 391.8 M 185.2 391.8 L 538.7 391.8 M 551.1 391.8 L 668.6 391.8 M 681 391.8 L 755.7 391.8 M 834.1 391.8 L 855.7 391.8 M 934.1 391.8 L 1070.5 391.8 M 27.2 393.8 L 93.6 393.8 M 185.2 393.8 L 755.4 393.8 M 834.4 393.8 L 855.4 393.8 M 934.4 393.8 L 1070.5 393.8 M 27.2 395.7 L 93.6 395.7 M 185.2 395.7 L 755.1 395.7 M 834.7 395.7 L 855.1 395.7 M 934.7 395.7 L 1070.5 395.7 M 27.2 397.7 L 93.6 397.7 M 185.2 397.7 L 754.9 397.7 M 834.9 397.7 L 854.9 397.7 M 934.9 397.7 L 1070.5 397.7 M 27.2 399.6 L 93.6 399.6 M 135.4 399.6 L 143.4 399.6 M 185.2 399.6 L 754.7 399.6 M 835.1 399.6 L 854.7 399.6 M 935.1 399.6 L 1070.5 399.6 M 27.2 401.6 L 93.6 401.6 M 135.4 401.6 L 143.4 401.6 M 185.2 401.6 L 754.4 401.6 M 835.4 401.6 L 854.4 401.6 M 935.4 401.6 L 1070.5 401.6 M 27.2 403.5 L 93.8 403.5 M 135.4 403.5 L 143.4 403.5 M 185 403.5 L 754.5 403.5 M 835.3 403.5 L 854.5 403.5 M 935.3 403.5 L 1070.5 403.5 M 27.2 405.5 L 94.6 405.5 M 135.4 405.5 L 143.4 405.5 M 184.2 405.5 L 754.8 405.5 M 835 405.5 L 854.8 405.5 M 935 405.5 L 1070.5 405.5 M 27.2 407.4 L 96.1 407.4 M 135.4 407.4 L 143.4 407.4 M 182.7 407.4 L 755 407.4 M 834.8 407.4 L 855 407.4 M 934.8 407.4 L 1070.5 407.4 M 27.2 409.4 L 99.7 409.4 M 135.4 409.4 L 143.4 409.4 M 179.1 409.4 L 755.3 409.4 M 834.5 409.4 L 855.3 409.4 M 934.5 409.4 L 1070.5 409.4 M 27.2 411.3 L 755.5 411.3 M 834.3 411.3 L 855.5 411.3 M 934.3 411.3 L 1070.5 411.3 M 27.2 413.3 L 756.2 413.3 M 833.6 413.3 L 856.2 413.3 M 933.6 413.3 L 1070.5 413.3 M 27.2 415.2 L 756.9 415.2 M 832.9 415.2 L 856.9 415.2 M 932.9 415.2 L 1070.5 415.2 M 27.2 417.2 L 510.9 417.2 M 578.9 417.2 L 665.7 417.2 M 683.9 417.2 L 757.6 417.2 M 832.2 417.2 L 857.6 417.2 M 932.2 417.2 L 1070.5 417.2 M 27.2 419.2 L 508.8 419.2 M 581 419.2 L 659.8 419.2 M 689.9 419.2 L 758.4 419.2 M 831.4 419.2 L 858.4 419.2 M 931.4 419.2 L 1070.5 419.2 M 27.2 421.1 L 507.8 421.1 M 582 421.1 L 656 421.1 M 693.6 421.1 L 759.2 421.1 M 830.6 421.1 L 859.2 421.1 M 930.6 421.1 L 1070.5 421.1 M 27.2 423.1 L 507.4 423.1 M 582.4 423.1 L 652.8 423.1 M 696.8 423.1 L 760.5 423.1 M 829.3 423.1 L 860.5 423.1 M 929.3 423.1 L 1070.5 423.1 M 27.2 425 L 507.3 425 M 582.5 425 L 650.6 425 M 699 425 L 761.9 425 M 827.9 425 L 861.9 425 M 927.9 425 L 1070.5 425 M 27.2 426.9 L 507.3 426.9 M 582.5 426.9 L 648.4 426.9 M 701.2 426.9 L 763.2 426.9 M 826.6 426.9 L 863.2 426.9 M 926.6 426.9 L 1070.5 426.9 M 27.2 428.9 L 507.3 428.9 M 582.5 428.9 L 646.4 428.9 M 703.2 428.9 L 764.6 428.9 M 825.2 428.9 L 864.6 428.9 M 925.2 428.9 L 1070.5 428.9 M 27.2 430.8 L 507.3 430.8 M 582.5 430.8 L 645.1 430.8 M 704.6 430.8 L 766.8 430.8 M 823 430.8 L 866.8 430.8 M 923 430.8 L 1070.5 430.8 M 27.2 432.8 L 507.3 432.8 M 582.5 432.8 L 643.7 432.8 M 705.9 432.8 L 769 432.8 M 820.8 432.8 L 869 432.8 M 920.8 432.8 L 1070.5 432.8 M 27.2 434.7 L 507.3 434.7 M 582.5 434.7 L 642.3 434.7 M 707.3 434.7 L 771.2 434.7 M 818.6 434.7 L 871.2 434.7 M 918.6 434.7 L 1070.5 434.7 M 27.2 436.7 L 507.3 436.7 M 582.5 436.7 L 641.2 436.7 M 708.4 436.7 L 774.4 436.7 M 815.4 436.7 L 874.4 436.7 M 915.4 436.7 L 1070.5 436.7 M 27.2 438.6 L 507.3 438.6 M 582.5 438.6 L 640.5 438.6 M 709.1 438.6 L 778.1 438.6 M 811.7 438.6 L 878.1 438.6 M 911.7 438.6 L 1070.5 438.6 M 27.2 440.6 L 507.3 440.6 M 582.5 440.6 L 639.8 440.6 M 709.9 440.6 L 783.4 440.6 M 806.4 440.6 L 883.4 440.6 M 906.4 440.6 L 1070.5 440.6 M 27.2 442.5 L 507.3 442.5 M 582.5 442.5 L 639 442.5 M 710.6 442.5 L 1070.5 442.5 M 27.2 444.5 L 507.3 444.5 M 582.5 444.5 L 638.3 444.5 M 711.3 444.5 L 1070.5 444.5 M 27.2 446.4 L 507.3 446.4 M 582.5 446.4 L 636.6 446.4 M 711.6 446.4 L 1070.5 446.4 M 27.2 448.4 L 507.3 448.4 M 582.5 448.4 L 634.6 448.4 M 711.8 448.4 L 1070.5 448.4 M 27.2 450.3 L 507.3 450.3 M 582.5 450.3 L 632.7 450.3 M 712 450.3 L 1070.5 450.3 M 27.2 452.3 L 507.3 452.3 M 582.5 452.3 L 630.7 452.3 M 712.3 452.3 L 1070.5 452.3 M 27.2 454.2 L 507.3 454.2 M 582.5 454.2 L 628.8 454.2 M 712.3 454.2 L 1070.5 454.2 M 27.2 456.2 L 507.3 456.2 M 582.5 456.2 L 626.8 456.2 M 712.1 456.2 L 1070.5 456.2 M 27.2 458.1 L 507.3 458.1 M 582.5 458.1 L 624.9 458.1 M 711.8 458.1 L 1070.5 458.1 M 27.2 460.1 L 507.3 460.1 M 582.5 460.1 L 622.9 460.1 M 711.6 460.1 L 1070.5 460.1 M 27.2 462 L 507.3 462 M 582.5 462 L 620.9 462 M 711.4 462 L 788.9 462 M 800.9 462 L 888.9 462 M 900.9 462 L 1070.5 462 M 27.2 464 L 507.3 464 M 582.5 464 L 619 464 M 710.7 464 L 781 464 M 808.8 464 L 881 464 M 908.8 464 L 1070.5 464 M 27.2 465.9 L 507.3 465.9 M 582.5 465.9 L 617 465.9 M 709.9 465.9 L 777 465.9 M 812.8 465.9 L 877 465.9 M 912.8 465.9 L 1070.5 465.9 M 27.2 467.9 L 507.3 467.9 M 582.5 467.9 L 615.1 467.9 M 709.2 467.9 L 773.3 467.9 M 816.5 467.9 L 873.3 467.9 M 916.5 467.9 L 1070.5 467.9 M 27.2 469.8 L 507.3 469.8 M 582.5 469.8 L 613.1 469.8 M 708.5 469.8 L 770.5 469.8 M 819.3 469.8 L 870.5 469.8 M 919.3 469.8 L 1070.5 469.8 M 27.2 471.8 L 507.3 471.8 M 582.5 471.8 L 611.2 471.8 M 707.4 471.8 L 768.3 471.8 M 821.5 471.8 L 868.3 471.8 M 921.5 471.8 L 1070.5 471.8 M 27.2 473.7 L 507.3 473.7 M 582.5 473.7 L 609.2 473.7 M 706.1 473.7 L 766.1 473.7 M 823.7 473.7 L 866.1 473.7 M 923.7 473.7 L 1070.5 473.7 M 27.2 475.7 L 507.3 475.7 M 582.5 475.7 L 607.3 475.7 M 704.7 475.7 L 764.2 475.7 M 825.6 475.7 L 864.2 475.7 M 925.6 475.7 L 1070.5 475.7 M 27.2 477.6 L 507.3 477.6 M 582.5 477.6 L 605.3 477.6 M 703.4 477.6 L 762.8 477.6 M 827 477.6 L 862.8 477.6 M 927 477.6 L 1070.5 477.6 M 27.2 479.6 L 507.3 479.6 M 582.5 479.6 L 603.4 479.6 M 701.5 479.6 L 761.5 479.6 M 828.3 479.6 L 861.5 479.6 M 928.3 479.6 L 1070.5 479.6 M 27.2 481.5 L 507.3 481.5 M 582.5 481.5 L 601.4 481.5 M 699.3 481.5 L 760.1 481.5 M 829.7 481.5 L 860.1 481.5 M 929.7 481.5 L 1070.5 481.5 M 27.2 483.5 L 507.4 483.5 M 582.4 483.5 L 599.5 483.5 M 650.5 483.5 L 652.6 483.5 M 697.1 483.5 L 758.9 483.5 M 830.9 483.5 L 858.9 483.5 M 930.9 483.5 L 1070.5 483.5 M 27.2 485.5 L 507.7 485.5 M 582.1 485.5 L 597.5 485.5 M 648.6 485.5 L 655.6 485.5 M 694 485.5 L 758.1 485.5 M 831.7 485.5 L 858.1 485.5 M 931.7 485.5 L 1070.5 485.5 M 27.2 487.4 L 508.7 487.4 M 581.1 487.4 L 595.6 487.4 M 646.6 487.4 L 659.4 487.4 M 690.3 487.4 L 757.4 487.4 M 832.4 487.4 L 857.4 487.4 M 932.4 487.4 L 1070.5 487.4 M 27.2 489.4 L 510.6 489.4 M 579.2 489.4 L 593.6 489.4 M 644.7 489.4 L 664.9 489.4 M 684.8 489.4 L 756.7 489.4 M 833.1 489.4 L 856.7 489.4 M 933.1 489.4 L 1070.5 489.4 M 27.2 491.3 L 591.7 491.3 M 642.7 491.3 L 755.9 491.3 M 833.9 491.3 L 855.9 491.3 M 933.9 491.3 L 1070.5 491.3 M 27.2 493.2 L 589.7 493.2 M 640.8 493.2 L 755.5 493.2 M 834.4 493.2 L 855.5 493.2 M 934.4 493.2 L 1070.5 493.2 M 27.2 495.2 L 587.8 495.2 M 638.8 495.2 L 755.2 495.2 M 834.6 495.2 L 855.2 495.2 M 934.6 495.2 L 1070.5 495.2 M 27.2 497.1 L 585.8 497.1 M 636.9 497.1 L 755 497.1 M 834.8 497.1 L 855 497.1 M 934.8 497.1 L 1070.5 497.1 M 27.2 499.1 L 583.9 499.1 M 634.9 499.1 L 754.7 499.1 M 835.1 499.1 L 854.7 499.1 M 935.1 499.1 L 1070.5 499.1 M 27.2 501 L 581.9 501 M 633 501 L 754.5 501 M 835.3 501 L 854.5 501 M 935.3 501 L 1070.5 501 M 27.2 503 L 580 503 M 631 503 L 754.5 503 M 835.3 503 L 854.5 503 M 935.3 503 L 1070.5 503 M 27.2 504.9 L 312 504.9 M 360.5 504.9 L 578.1 504.9 M 629.1 504.9 L 754.7 504.9 M 835.1 504.9 L 854.7 504.9 M 935.1 504.9 L 1070.5 504.9 M 27.2 506.9 L 306.4 506.9 M 366 506.9 L 576.1 506.9 M 627.1 506.9 L 755 506.9 M 834.8 506.9 L 855 506.9 M 934.8 506.9 L 1070.5 506.9 M 27.2 508.8 L 302.3 508.8 M 370.2 508.8 L 574.2 508.8 M 625.2 508.8 L 755.2 508.8 M 834.6 508.8 L 855.2 508.8 M 934.6 508.8 L 1070.5 508.8 M 27.2 510.8 L 129.7 510.8 M 149 510.8 L 299.2 510.8 M 373.2 510.8 L 572.2 510.8 M 623.2 510.8 L 755.5 510.8 M 834.4 510.8 L 855.5 510.8 M 934.4 510.8 L 1070.5 510.8 M 27.2 512.7 L 123.7 512.7 M 155.1 512.7 L 296.4 512.7 M 376 512.7 L 570.3 512.7 M 621.3 512.7 L 756 512.7 M 833.8 512.7 L 856 512.7 M 933.8 512.7 L 1070.5 512.7 M 27.2 514.7 L 120 514.7 M 158.8 514.7 L 294 514.7 M 619.4 514.7 L 756.7 514.7 M 833.1 514.7 L 856.7 514.7 M 933.1 514.7 L 1070.5 514.7 M 27.2 516.6 L 116.6 516.6 M 162.2 516.6 L 292.1 516.6 M 617.4 516.6 L 757.4 516.6 M 832.4 516.6 L 857.4 516.6 M 932.4 516.6 L 1070.5 516.6 M 27.2 518.6 L 114.4 518.6 M 164.4 518.6 L 290.1 518.6 M 615.5 518.6 L 758.2 518.6 M 831.6 518.6 L 858.2 518.6 M 931.6 518.6 L 1070.5 518.6 M 27.2 520.5 L 112.1 520.5 M 166.6 520.5 L 288.5 520.5 M 613.5 520.5 L 758.9 520.5 M 830.9 520.5 L 858.9 520.5 M 930.9 520.5 L 1070.5 520.5 M 27.2 522.5 L 109.9 522.5 M 168.8 522.5 L 287.2 522.5 M 611.6 522.5 L 760.2 522.5 M 829.6 522.5 L 860.2 522.5 M 929.6 522.5 L 1070.5 522.5 M 27.2 524.4 L 108.5 524.4 M 170.3 524.4 L 285.8 524.4 M 609.6 524.4 L 761.5 524.4 M 828.3 524.4 L 861.5 524.4 M 928.3 524.4 L 1070.5 524.4 M 27.2 526.4 L 107.2 526.4 M 171.6 526.4 L 284.5 526.4 M 607.7 526.4 L 762.9 526.4 M 826.9 526.4 L 862.9 526.4 M 926.9 526.4 L 1070.5 526.4 M 27.2 528.3 L 105.8 528.3 M 172.9 528.3 L 283.6 528.3 M 605.7 528.3 L 764.2 528.3 M 825.6 528.3 L 864.2 528.3 M 925.6 528.3 L 1070.5 528.3 M 27.2 530.3 L 104.5 530.3 M 174.3 530.3 L 282.7 530.3 M 603.8 530.3 L 766.2 530.3 M 823.6 530.3 L 866.2 530.3 M 923.6 530.3 L 1070.5 530.3 M 27.2 532.2 L 103.7 532.2 M 175.1 532.2 L 281.8 532.2 M 601.8 532.2 L 768.4 532.2 M 821.4 532.2 L 868.4 532.2 M 921.4 532.2 L 1070.5 532.2 M 27.2 534.2 L 103 534.2 M 175.8 534.2 L 281.1 534.2 M 599.9 534.2 L 770.6 534.2 M 819.2 534.2 L 870.6 534.2 M 919.2 534.2 L 1070.5 534.2 M 27.2 536.1 L 102.2 536.1 M 176.6 536.1 L 280.6 536.1 M 597.9 536.1 L 773.4 536.1 M 816.4 536.1 L 873.4 536.1 M 916.4 536.1 L 1070.5 536.1 M 27.2 538.1 L 101.5 538.1 M 177.3 538.1 L 280.1 538.1 M 595.9 538.1 L 777.1 538.1 M 812.7 538.1 L 877.1 538.1 M 912.7 538.1 L 1070.5 538.1 M 27.2 540 L 100.9 540 M 177.9 540 L 279.5 540 M 594 540 L 781.1 540 M 808.7 540 L 881.1 540 M 908.7 540 L 1070.5 540 M 27.2 542 L 100.7 542 M 178.1 542 L 279.2 542 M 592 542 L 789 542 M 800.8 542 L 889 542 M 900.8 542 L 1070.5 542 M 27.2 543.9 L 100.5 543.9 M 178.3 543.9 L 279 543.9 M 590.1 543.9 L 1070.5 543.9 M 27.2 545.9 L 100.2 545.9 M 178.6 545.9 L 278.9 545.9 M 587.9 545.9 L 1070.5 545.9 M 27.2 547.9 L 100 547.9 M 178.8 547.9 L 278.7 547.9 M 585.1 547.9 L 1070.5 547.9 M 27.2 549.8 L 99.9 549.8 M 178.8 549.8 L 278.7 549.8 M 580 549.8 L 1070.5 549.8 M 27.2 551.8 L 100.2 551.8 M 178.6 551.8 L 278.9 551.8 M 393.6 551.8 L 1070.5 551.8 M 27.2 553.7 L 100.4 553.7 M 178.4 553.7 L 279 553.7 M 393.4 553.7 L 1070.5 553.7 M 27.2 555.6 L 100.7 555.6 M 178.1 555.6 L 279.2 555.6 M 393.2 555.6 L 1070.5 555.6 M 27.2 557.6 L 100.9 557.6 M 177.9 557.6 L 279.5 557.6 M 392.9 557.6 L 1070.5 557.6 M 27.2 559.5 L 101.5 559.5 M 177.3 559.5 L 280.1 559.5 M 392.4 559.5 L 1070.5 559.5 M 27.2 561.5 L 102.2 561.5 M 176.6 561.5 L 280.6 561.5 M 391.9 561.5 L 762.1 561.5 M 787 561.5 L 802.8 561.5 M 827.7 561.5 L 862.1 561.5 M 887 561.5 L 902.8 561.5 M 927.7 561.5 L 1070.5 561.5 M 27.2 563.4 L 102.9 563.4 M 175.8 563.4 L 281.1 563.4 M 391.4 563.4 L 757.2 563.4 M 787 563.4 L 802.8 563.4 M 832.6 563.4 L 857.2 563.4 M 887 563.4 L 902.8 563.4 M 932.6 563.4 L 1070.5 563.4 M 27.2 565.4 L 103.7 565.4 M 175.1 565.4 L 281.8 565.4 M 390.7 565.4 L 755.5 565.4 M 787 565.4 L 802.8 565.4 M 834.3 565.4 L 855.5 565.4 M 887 565.4 L 902.8 565.4 M 934.3 565.4 L 1070.5 565.4 M 27.2 567.3 L 104.5 567.3 M 174.3 567.3 L 282.7 567.3 M 389.8 567.3 L 754.7 567.3 M 787 567.3 L 802.8 567.3 M 835.1 567.3 L 854.7 567.3 M 887 567.3 L 902.8 567.3 M 935.1 567.3 L 1070.5 567.3 M 27.2 569.3 L 105.8 569.3 M 173 569.3 L 283.6 569.3 M 388.9 569.3 L 754.4 569.3 M 787 569.3 L 802.8 569.3 M 835.4 569.3 L 854.4 569.3 M 887 569.3 L 902.8 569.3 M 935.4 569.3 L 1070.5 569.3 M 27.2 571.2 L 107.1 571.2 M 171.6 571.2 L 284.5 571.2 M 388 571.2 L 754.4 571.2 M 787 571.2 L 802.8 571.2 M 835.4 571.2 L 854.4 571.2 M 887 571.2 L 902.8 571.2 M 935.4 571.2 L 1070.5 571.2 M 27.2 573.2 L 108.5 573.2 M 170.3 573.2 L 285.8 573.2 M 386.7 573.2 L 754.4 573.2 M 835.4 573.2 L 854.4 573.2 M 935.4 573.2 L 1070.5 573.2 M 27.2 575.1 L 109.9 575.1 M 168.9 575.1 L 287.1 575.1 M 385.3 575.1 L 754.4 575.1 M 835.4 575.1 L 854.4 575.1 M 935.4 575.1 L 1070.5 575.1 M 27.2 577.1 L 112.1 577.1 M 166.7 577.1 L 288.5 577.1 M 384 577.1 L 754.4 577.1 M 835.4 577.1 L 854.4 577.1 M 935.4 577.1 L 1070.5 577.1 M 27.2 579 L 114.3 579 M 164.5 579 L 290.1 579 M 382.4 579 L 754.4 579 M 835.4 579 L 854.4 579 M 935.4 579 L 1070.5 579 M 27.2 581 L 116.5 581 M 162.3 581 L 292 581 M 380.5 581 L 754.4 581 M 835.4 581 L 854.4 581 M 935.4 581 L 1070.5 581 M 27.2 582.9 L 119.9 582.9 M 158.9 582.9 L 294 582.9 M 378.5 582.9 L 754.4 582.9 M 835.4 582.9 L 854.4 582.9 M 935.4 582.9 L 1070.5 582.9 M 27.2 584.9 L 123.6 584.9 M 155.2 584.9 L 296.4 584.9 M 376.1 584.9 L 754.4 584.9 M 835.4 584.9 L 854.4 584.9 M 935.4 584.9 L 1070.5 584.9 M 27.2 586.8 L 129.5 586.8 M 149.3 586.8 L 299.2 586.8 M 373.3 586.8 L 754.4 586.8 M 835.4 586.8 L 854.4 586.8 M 935.4 586.8 L 1070.5 586.8 M 27.2 588.8 L 302.1 588.8 M 370.4 588.8 L 754.4 588.8 M 835.4 588.8 L 854.4 588.8 M 935.4 588.8 L 1070.5 588.8 M 27.2 590.7 L 306.3 590.7 M 366.2 590.7 L 754.4 590.7 M 835.4 590.7 L 854.4 590.7 M 935.4 590.7 L 1070.5 590.7 M 27.2 592.7 L 311.8 592.7 M 360.7 592.7 L 754.4 592.7 M 835.4 592.7 L 854.4 592.7 M 935.4 592.7 L 1070.5 592.7 M 27.2 594.6 L 764.4 594.6 M 825.4 594.6 L 864.4 594.6 M 925.4 594.6 L 1070.5 594.6 M 27.2 596.6 L 764.4 596.6 M 825.4 596.6 L 864.4 596.6 M 925.4 596.6 L 1070.5 596.6 M 27.2 598.5 L 764.4 598.5 M 825.4 598.5 L 864.4 598.5 M 925.4 598.5 L 1070.5 598.5 M 27.2 600.5 L 764.4 600.5 M 825.4 600.5 L 864.4 600.5 M 925.4 600.5 L 1070.5 600.5 M 27.2 602.4 L 764.4 602.4 M 825.4 602.4 L 864.4 602.4 M 925.4 602.4 L 1070.5 602.4 M 27.2 604.4 L 764.4 604.4 M 825.4 604.4 L 864.4 604.4 M 925.4 604.4 L 1070.5 604.4 M 27.2 606.3 L 764.4 606.3 M 825.4 606.3 L 864.4 606.3 M 925.4 606.3 L 1070.5 606.3 M 27.2 608.3 L 764.4 608.3 M 825.4 608.3 L 864.4 608.3 M 925.4 608.3 L 1070.5 608.3 M 27.2 610.2 L 754.4 610.2 M 835.4 610.2 L 854.4 610.2 M 935.4 610.2 L 1070.5 610.2 M 27.2 612.2 L 754.4 612.2 M 835.4 612.2 L 854.4 612.2 M 935.4 612.2 L 1070.5 612.2 M 27.2 614.2 L 754.4 614.2 M 835.4 614.2 L 854.4 614.2 M 935.4 614.2 L 1070.5 614.2 M 27.2 616.1 L 754.4 616.1 M 835.4 616.1 L 854.4 616.1 M 935.4 616.1 L 1070.5 616.1 M 657.5 618.1 L 754.4 618.1 M 835.4 618.1 L 854.4 618.1 M 935.4 618.1 L 1070.5 618.1 M 660.1 620 L 754.4 620 M 835.4 620 L 854.4 620 M 935.4 620 L 1070.5 620 M 662.7 621.9 L 754.4 621.9 M 835.4 621.9 L 854.4 621.9 M 935.4 621.9 L 1070.5 621.9 M 665.3 623.9 L 754.4 623.9 M 835.4 623.9 L 854.4 623.9 M 935.4 623.9 L 1070.5 623.9 M 667.9 625.8 L 754.4 625.8 M 835.4 625.8 L 854.4 625.8 M 935.4 625.8 L 1070.5 625.8 M 670.5 627.8 L 754.4 627.8 M 835.4 627.8 L 854.4 627.8 M 935.4 627.8 L 1070.5 627.8 M 673.1 629.7 L 754.4 629.7 M 835.4 629.7 L 854.4 629.7 M 935.4 629.7 L 1070.5 629.7 M 675.7 631.7 L 754.4 631.7 M 835.4 631.7 L 854.4 631.7 M 935.4 631.7 L 1070.5 631.7 M 678.3 633.6 L 754.4 633.6 M 787 633.6 L 802.8 633.6 M 835.4 633.6 L 854.4 633.6 M 887 633.6 L 902.8 633.6 M 935.4 633.6 L 1070.5 633.6 M 680.9 635.6 L 754.5 635.6 M 787 635.6 L 802.8 635.6 M 835.3 635.6 L 854.5 635.6 M 887 635.6 L 902.8 635.6 M 935.3 635.6 L 1070.5 635.6 M 683.5 637.5 L 755 637.5 M 787 637.5 L 802.8 637.5 M 834.8 637.5 L 855 637.5 M 887 637.5 L 902.8 637.5 M 934.8 637.5 L 1070.5 637.5 M 686.1 639.5 L 756.2 639.5 M 787 639.5 L 802.8 639.5 M 833.6 639.5 L 856.2 639.5 M 887 639.5 L 902.8 639.5 M 933.6 639.5 L 1070.5 639.5 M 688.7 641.4 L 758.4 641.4 M 787 641.4 L 802.8 641.4 M 831.4 641.4 L 858.4 641.4 M 887 641.4 L 902.8 641.4 M 931.4 641.4 L 1070.5 641.4 M 691.3 643.4 L 1070.5 643.4 M 693.9 645.3 L 1070.5 645.3 M 696.5 647.3 L 1070.5 647.3 M 699.1 649.2 L 1070.5 649.2 M 701.7 651.2 L 1070.5 651.2 M 704.3 653.1 L 1070.5 653.1 M 706.9 655.1 L 1070.5 655.1 M 709.5 657 L 1070.5 657 M 712.1 659 L 1070.5 659 M 714.7 660.9 L 1070.5 660.9 M 717.3 662.9 L 1070.5 662.9 M 719.9 664.8 L 1070.5 664.8 M 722.5 666.8 L 1070.5 666.8 M 725.1 668.7 L 1070.5 668.7 M 727.7 670.7 L 1070.5 670.7 M 730.3 672.6 L 1070.5 672.6 M 732.9 674.6 L 1070.5 674.6 M 735.5 676.5 L 1070.5 676.5"/><path stroke-width="20" fill="none" d="M 576.4 532.1 L 674.8 433.7 M 544.9 354.9 L 607.9 291.9 M 646.7 202 L 894.9 202 M 607.9 291.9 L 607.9 240.8 M 336.2 532.1 L 576.4 532.1 M 646.7 202 L 607.9 240.8"/><use x="894.9" y="602" xlink:href="#tool-D12-pad-1020"/><use x="894.9" y="502" xlink:href="#tool-D13-pad-1021"/><use x="894.9" y="402" xlink:href="#tool-D13-pad-1021"/><use x="894.9" y="302" xlink:href="#tool-D13-pad-1021"/><use x="894.9" y="202" xlink:href="#tool-D13-pad-1021"/><use x="894.9" y="102" xlink:href="#tool-D13-pad-1021"/><use x="139.4" y="352" xlink:href="#tool-D14-pad-1022"/><use x="336.2" y="155.1" xlink:href="#tool-D15-pad-1023"/><use x="336.2" y="548.8" xlink:href="#tool-D15-pad-1023"/><use x="794.9" y="602" xlink:href="#tool-D12-pad-1020"/><use x="794.9" y="502" xlink:href="#tool-D13-pad-1021"/><use x="794.9" y="402" xlink:href="#tool-D13-pad-1021"/><use x="794.9" y="302" xlink:href="#tool-D13-pad-1021"/><use x="794.9" y="202" xlink:href="#tool-D13-pad-1021"/><use x="794.9" y="102" xlink:href="#tool-D13-pad-1021"/><use x="544.9" y="354.9" xlink:href="#tool-D16-pad-1024"/><use x="544.9" y="256.5" xlink:href="#tool-D16-pad-1024"/><use x="674.8" y="256.5" xlink:href="#tool-D16-pad-1024"/><use x="674.8" y="354.9" xlink:href="#tool-D16-pad-1024"/><use x="674.8" y="453.4" xlink:href="#tool-D16-pad-1024"/><use x="544.9" y="453.4" xlink:href="#tool-D17-pad-1025"/></g><mask id="pcb_top_mech-mask" fill="#fff" stroke="#fff" fill-rule="evenodd"><path stroke-width="0" d="M 7.5 66.6 L 7.5 637.4 L 637.4 637.4 L 716.2 696.5 L 1090.2 696.5 L 1090.2 7.5 L 716.2 7.5 L 637.4 66.6 Z"/><g id="pcb_top-drl" fill="#000" stroke="#000"><use x="894.9" y="602" xlink:href="#tool-T10-pad-1000"/><use x="894.9" y="502" xlink:href="#tool-T10-pad-1000"/><use x="894.9" y="402" xlink:href="#tool-T10-pad-1000"/><use x="894.9" y="302" xlink:href="#tool-T10-pad-1000"/><use x="894.9" y="202" xlink:href="#tool-T10-pad-1000"/><use x="894.9" y="102" xlink:href="#tool-T10-pad-1000"/><use x="794.9" y="602" xlink:href="#tool-T10-pad-1000"/><use x="794.9" y="502" xlink:href="#tool-T10-pad-1000"/><use x="794.9" y="402" xlink:href="#tool-T10-pad-1000"/><use x="794.9" y="302" xlink:href="#tool-T10-pad-1000"/><use x="794.9" y="202" xlink:href="#tool-T10-pad-1000"/><use x="794.9" y="102" xlink:href="#tool-T10-pad-1000"/><use x="139.4" y="352" xlink:href="#tool-T11-pad-1001"/><use x="336.2" y="155.1" xlink:href="#tool-T11-pad-1001"/><use x="336.2" y="548.8" xlink:href="#tool-T11-pad-1001"/><use x="139.4" y="548.8" xlink:href="#tool-T12-pad-1002"/><use x="139.4" y="155.1" xlink:href="#tool-T12-pad-1002"/><use x="336.2" y="352" xlink:href="#tool-T12-pad-1002"/><use x="544.9" y="453.4" xlink:href="#tool-T13-pad-1003"/><use x="544.9" y="354.9" xlink:href="#tool-T13-pad-1003"/><use x="544.9" y="256.5" xlink:href="#tool-T13-pad-1003"/><use x="674.8" y="256.5" xlink:href="#tool-T13-pad-1003"/><use x="674.8" y="354.9" xlink:href="#tool-T13-pad-1003"/><use x="674.8" y="453.4" xlink:href="#tool-T13-pad-1003"/></g></mask></defs><g mask="url(#pcb_top_mech-mask)" transform="translate(0,704) scale(1,-1)"><rect x="7.5" y="7.5" width="1082.7" height="689" fill="currentColor" class="pcb_board-fr4"/><use class="pcb_board-cu" xlink:href="#pcb_top-cu"/><g><defs><g id="pcb_top-sm" fill="currentColor" stroke="currentColor"><use x="894.9" y="602" xlink:href="#tool-D10-pad-1029"/><use x="894.9" y="502" xlink:href="#tool-D11-pad-1030"/><use x="894.9" y="402" xlink:href="#tool-D11-pad-1030"/><use x="894.9" y="302" xlink:href="#tool-D11-pad-1030"/><use x="894.9" y="202" xlink:href="#tool-D11-pad-1030"/><use x="894.9" y="102" xlink:href="#tool-D11-pad-1030"/><use x="139.4" y="352" xlink:href="#tool-D12-pad-1031"/><use x="336.2" y="155.1" xlink:href="#tool-D13-pad-1032"/><use x="336.2" y="548.8" xlink:href="#tool-D13-pad-1032"/><use x="794.9" y="602" xlink:href="#tool-D10-pad-1029"/><use x="794.9" y="502" xlink:href="#tool-D11-pad-1030"/><use x="794.9" y="402" xlink:href="#tool-D11-pad-1030"/><use x="794.9" y="302" xlink:href="#tool-D11-pad-1030"/><use x="794.9" y="202" xlink:href="#tool-D11-pad-1030"/><use x="794.9" y="102" xlink:href="#tool-D11-pad-1030"/><use x="544.9" y="354.9" xlink:href="#tool-D14-pad-1033"/><use x="544.9" y="256.5" xlink:href="#tool-D14-pad-1033"/><use x="674.8" y="256.5" xlink:href="#tool-D14-pad-1033"/><use x="674.8" y="354.9" xlink:href="#tool-D14-pad-1033"/><use x="674.8" y="453.4" xlink:href="#tool-D14-pad-1033"/><use x="544.9" y="453.4" xlink:href="#tool-D15-pad-1034"/></g><mask id="pcb_top-sm_mask" color="#000"><rect x="7.5" y="7.5" width="1082.7" height="689" fill="#fff"/><use xlink:href="#pcb_top-sm"/></mask><mask id="pcb_top-cu_finish-mask" color="#fff"><use xlink:href="#pcb_top-cu"/></mask></defs><g mask="url(#pcb_top-sm_mask)"><rect x="7.5" y="7.5" width="1082.7" height="689" fill="currentColor" class="pcb_board-sm"/><g id="pcb_top-ss" class="pcb_board-ss" fill="currentColor" stroke="currentColor"><path stroke-width="5.9" fill="none" d="M 844.9 52 L 844.9 652 M 844.9 652 L 944.9 652 M 944.9 652 L 944.9 52 M 944.9 52 L 844.9 52"/><path d="M 976.4 599.2 L 976.4 602.6 L 988.5 602.6 L 988.5 592 L 987.1 590.9 L 985.7 590 L 984.2 589.3 L 982.7 588.6 L 981.2 588.1 L 979.7 587.8 L 978.2 587.6 L 976.7 587.5 L 974.6 587.6 L 972.6 587.9 L 970.8 588.5 L 969 589.3 L 967.4 590.3 L 966 591.5 L 964.8 592.9 L 963.8 594.5 L 963 596.3 L 962.5 598.1 L 962.1 600.1 L 962 602.2 L 962.1 604.2 L 962.5 606.2 L 963 608.1 L 963.8 610 L 964.7 611.7 L 965.9 613.1 L 967.3 614.4 L 968.8 615.3 L 970.5 616.1 L 972.3 616.7 L 974.3 617 L 976.4 617.1 L 977.9 617 L 979.3 616.9 L 980.7 616.6 L 982 616.1 L 983.2 615.5 L 984.2 614.9 L 985.1 614.2 L 985.9 613.3 L 986.6 612.3 L 987.2 611.2 L 987.7 610 L 988.1 608.6 L 984.7 607.7 L 984.3 608.7 L 984 609.6 L 983.5 610.4 L 983.1 611.1 L 982.5 611.7 L 981.9 612.2 L 981.2 612.7 L 980.3 613.1 L 979.4 613.4 L 978.4 613.7 L 977.5 613.8 L 976.4 613.9 L 975.1 613.8 L 974 613.7 L 972.9 613.4 L 971.9 613.1 L 971 612.7 L 970.2 612.1 L 969.5 611.6 L 968.8 611 L 968.3 610.3 L 967.8 609.6 L 967.4 608.9 L 967 608.2 L 966.6 606.8 L 966.2 605.4 L 966 603.9 L 965.9 602.4 L 966 600.6 L 966.3 598.9 L 966.7 597.4 L 967.3 596 L 968 594.8 L 968.9 593.8 L 969.9 592.9 L 971.1 592.2 L 972.4 591.6 L 973.7 591.2 L 975.1 591 L 976.4 590.9 L 977.7 591 L 978.9 591.2 L 980.1 591.4 L 981.2 591.9 L 982.3 592.3 L 983.3 592.9 L 984.1 593.4 L 984.8 593.9 L 984.8 599.2 L 976.4 599.2 L 976.4 599.2 Z"/><path d="M 994.1 588 L 994.1 616.6 L 997.9 616.6 L 1013 594.2 L 1013 616.6 L 1016.6 616.6 L 1016.6 588 L 1012.7 588 L 997.7 610.5 L 997.7 588 L 994.1 588 L 994.1 588 Z"/><path d="M 1023 588 L 1023 616.6 L 1032.8 616.6 L 1032.8 613.2 L 1026.8 613.2 L 1026.8 591.4 L 1026.8 591.4 L 1032.9 591.4 L 1034.2 591.4 L 1035.4 591.5 L 1036.4 591.7 L 1037.3 591.9 L 1038.1 592.2 L 1038.8 592.5 L 1039.4 592.9 L 1039.9 593.4 L 1040.5 594.1 L 1041.1 594.9 L 1041.6 595.9 L 1042 597 L 1042.3 598.2 L 1042.6 599.5 L 1042.7 601 L 1042.7 602.5 L 1042.7 604.6 L 1042.4 606.5 L 1041.9 608.1 L 1041.3 609.4 L 1040.5 610.5 L 1039.7 611.4 L 1038.7 612.1 L 1037.7 612.7 L 1036.8 612.9 L 1035.7 613.1 L 1034.4 613.2 L 1032.8 613.2 L 1032.8 616.6 L 1032.9 616.6 L 1034.4 616.6 L 1035.8 616.5 L 1037 616.4 L 1037.9 616.2 L 1039.2 615.9 L 1040.2 615.4 L 1041.2 614.9 L 1042.1 614.2 L 1043.2 613.1 L 1044.1 612 L 1044.9 610.7 L 1045.5 609.3 L 1046 607.7 L 1046.4 606.1 L 1046.6 604.3 L 1046.7 602.5 L 1046.6 600.9 L 1046.5 599.4 L 1046.2 598 L 1045.9 596.7 L 1045.5 595.5 L 1045 594.4 L 1044.5 593.4 L 1044 592.5 L 1043.3 591.7 L 1042.7 591 L 1042 590.4 L 1041.3 589.9 L 1040.6 589.5 L 1039.8 589.1 L 1038.9 588.8 L 1037.9 588.5 L 1036.9 588.2 L 1035.8 588.1 L 1034.6 588 L 1033.3 588 L 1023 588 L 1023 588 Z"/><path d="M 970.3 288 L 970.3 313.2 L 960.8 313.2 L 960.8 316.6 L 983.5 316.6 L 983.5 313.2 L 974.1 313.2 L 974.1 288 L 970.3 288 L 970.3 288 Z"/><path d="M 984.5 288 L 995.6 302.9 L 985.8 316.6 L 990.3 316.6 L 995.5 309.3 L 996.3 308.2 L 996.9 307.3 L 997.4 306.4 L 997.8 305.8 L 998.3 306.6 L 998.9 307.3 L 999.5 308.2 L 1000.1 309 L 1005.8 316.6 L 1010 316.6 L 999.9 303.1 L 1010.8 288 L 1006.1 288 L 998.9 298.2 L 998.6 298.6 L 998.2 299.1 L 997.9 299.6 L 997.6 300.1 L 997.2 299.4 L 996.8 298.8 L 996.5 298.3 L 996.2 298 L 989.1 288 L 984.5 288 L 984.5 288 Z"/><path d="M 1014.1 288 L 1014.1 316.6 L 1023.9 316.6 L 1023.9 313.2 L 1017.9 313.2 L 1017.9 291.4 L 1017.9 291.4 L 1024 291.4 L 1025.3 291.4 L 1026.5 291.5 L 1027.6 291.7 L 1028.4 291.9 L 1029.2 292.2 L 1029.9 292.5 L 1030.5 292.9 L 1031 293.4 L 1031.6 294.1 L 1032.2 294.9 L 1032.7 295.9 L 1033.1 297 L 1033.4 298.2 L 1033.7 299.5 L 1033.8 301 L 1033.9 302.5 L 1033.8 304.6 L 1033.5 306.5 L 1033.1 308.1 L 1032.4 309.4 L 1031.6 310.5 L 1030.8 311.4 L 1029.8 312.1 L 1028.8 312.7 L 1027.9 312.9 L 1026.8 313.1 L 1025.5 313.2 L 1023.9 313.2 L 1023.9 316.6 L 1024 316.6 L 1025.5 316.6 L 1026.9 316.5 L 1028.1 316.4 L 1029.1 316.2 L 1030.3 315.9 L 1031.4 315.4 L 1032.3 314.9 L 1033.2 314.2 L 1034.3 313.1 L 1035.3 312 L 1036 310.7 L 1036.6 309.3 L 1037.1 307.7 L 1037.5 306.1 L 1037.7 304.3 L 1037.8 302.5 L 1037.7 300.9 L 1037.6 299.4 L 1037.3 298 L 1037 296.7 L 1036.6 295.5 L 1036.1 294.4 L 1035.6 293.4 L 1035.1 292.5 L 1034.4 291.7 L 1033.8 291 L 1033.1 290.4 L 1032.5 289.9 L 1031.7 289.5 L 1030.9 289.1 L 1030 288.8 L 1029 288.5 L 1028 288.2 L 1026.9 288.1 L 1025.7 288 L 1024.4 288 L 1014.1 288 L 1014.1 288 Z"/><path d="M 963.1 188 L 963.1 216.6 L 975.7 216.6 L 977.5 216.6 L 979.1 216.4 L 980.5 216.2 L 981.6 215.8 L 982.5 215.4 L 983.4 214.8 L 984.1 214 L 984.7 213.1 L 985.3 212.1 L 985.6 211.1 L 985.8 210 L 985.9 208.8 L 985.8 207.3 L 985.5 206 L 984.8 204.8 L 984 203.7 L 982.9 202.7 L 981.4 201.9 L 979.8 201.4 L 978.8 201.2 L 978.2 204.3 L 979 204.5 L 979.7 204.8 L 980.3 205.2 L 980.8 205.7 L 981.3 206.2 L 981.6 206.8 L 981.8 207.5 L 982 208.1 L 982 208.8 L 981.9 209.8 L 981.7 210.6 L 981.2 211.4 L 980.6 212.1 L 979.7 212.7 L 978.6 213.1 L 977.4 213.4 L 975.9 213.4 L 966.8 213.4 L 966.8 204 L 966.8 204 L 975 204 L 976.2 204 L 977.3 204.1 L 978.2 204.3 L 978.8 201.2 L 977.9 201 L 978.6 200.6 L 979.2 200.3 L 979.7 199.9 L 980.1 199.6 L 981 198.8 L 981.8 197.9 L 982.5 196.9 L 983.3 195.8 L 988.3 188 L 983.5 188 L 979.7 194 L 978.9 195.2 L 978.2 196.2 L 977.6 197.1 L 977 197.9 L 976.5 198.5 L 976 199 L 975.5 199.5 L 975.1 199.8 L 974.6 200.1 L 974.2 200.3 L 973.8 200.5 L 973.3 200.6 L 973 200.6 L 972.5 200.6 L 971.9 200.7 L 971.2 200.7 L 966.8 200.7 L 966.8 188 L 963.1 188 L 963.1 188 Z"/><path d="M 989 188 L 1000 202.9 L 990.3 216.6 L 994.8 216.6 L 1000 209.3 L 1000.7 208.2 L 1001.4 207.3 L 1001.9 206.4 L 1002.3 205.8 L 1002.8 206.6 L 1003.3 207.3 L 1003.9 208.2 L 1004.5 209 L 1010.3 216.6 L 1014.4 216.6 L 1004.4 203.1 L 1015.2 188 L 1010.5 188 L 1003.3 198.2 L 1003 198.6 L 1002.7 199.1 L 1002.4 199.6 L 1002.1 200.1 L 1001.6 199.4 L 1001.2 198.8 L 1000.9 198.3 L 1000.7 198 L 993.5 188 L 989 188 L 989 188 Z"/><path d="M 1018.6 188 L 1018.6 216.6 L 1028.4 216.6 L 1028.4 213.2 L 1022.3 213.2 L 1022.3 191.4 L 1022.3 191.4 L 1028.4 191.4 L 1029.8 191.4 L 1031 191.5 L 1032 191.7 L 1032.9 191.9 L 1033.7 192.2 L 1034.4 192.5 L 1034.9 192.9 L 1035.5 193.4 L 1036.1 194.1 L 1036.7 194.9 L 1037.1 195.9 L 1037.6 197 L 1037.9 198.2 L 1038.1 199.5 L 1038.3 201 L 1038.3 202.5 L 1038.2 204.6 L 1037.9 206.5 L 1037.5 208.1 L 1036.8 209.4 L 1036.1 210.5 L 1035.2 211.4 L 1034.3 212.1 L 1033.2 212.7 L 1032.4 212.9 L 1031.3 213.1 L 1029.9 213.2 L 1028.4 213.2 L 1028.4 216.6 L 1028.4 216.6 L 1030 216.6 L 1031.4 216.5 L 1032.5 216.4 L 1033.5 216.2 L 1034.7 215.9 L 1035.8 215.4 L 1036.8 214.9 L 1037.7 214.2 L 1038.8 213.1 L 1039.7 212 L 1040.5 210.7 L 1041.1 209.3 L 1041.6 207.7 L 1041.9 206.1 L 1042.1 204.3 L 1042.2 202.5 L 1042.2 200.9 L 1042 199.4 L 1041.8 198 L 1041.5 196.7 L 1041 195.5 L 1040.6 194.4 L 1040.1 193.4 L 1039.5 192.5 L 1038.9 191.7 L 1038.2 191 L 1037.6 190.4 L 1036.9 189.9 L 1036.2 189.5 L 1035.3 189.1 L 1034.5 188.8 L 1033.5 188.5 L 1032.5 188.2 L 1031.3 188.1 L 1030.1 188 L 1028.9 188 L 1018.6 188 L 1018.6 188 Z"/><path stroke-width="5.9" fill="none" d="M 0 596.1 L 481.9 596.1 M 481.9 596.1 L 481.9 107.9 M 481.9 107.9 L 0 107.9 M -124.4 107.9"/><path stroke-width="5.9" fill="none" d="M 744.9 52 L 744.9 652 M 744.9 652 L 844.9 652 M 844.9 652 L 844.9 52 M 844.9 52 L 744.9 52 M 510.5 540 L 709.3 540 M 709.3 540 L 709.3 169.9 M 709.3 169.9 L 510.5 169.9 M 510.5 169.9 L 510.5 540"/><use x="483.9" y="455.3" xlink:href="#tool-D12-pad-1028"/></g></g><use class="pcb_board-cf" mask="url(#pcb_top-cu_finish-mask)" xlink:href="#pcb_top-sm"/></g></g></svg>