<?xml version="1.0" encoding="utf-8" ?>
<svg baseProfile="tiny" height="126.885824" version="1.2" width="223.818894" xmlns="http://www.w3.org/2000/svg" xmlns:ev="http://www.w3.org/2001/xml-events" xmlns:xlink="http://www.w3.org/1999/xlink"><defs /><g id="paths" stroke="blue"><path d="M 12.4015745,104.5275565 L 136.4173195,104.5275565 L 136.4173195,15.9448815 L 12.4015745,15.9448815 L 12.4015745,104.5275565 Z" fill-opacity="0" stroke-linejoin="round" stroke-width="1.0" /></g><g fill="red" id="holes"><circle cx="97.4409" cy="86.811" r="2.3031" stroke-width="0.0" /><circle cx="97.4409" cy="69.0945" r="2.3031" stroke-width="0.0" /><circle cx="97.4409" cy="51.378" r="2.3031" stroke-width="0.0" /><circle cx="97.4409" cy="33.6614" r="2.3031" stroke-width="0.0" /><circle cx="30.1181" cy="33.2362" r="3.5433" stroke-width="0.0" /><circle cx="30.1181" cy="51.2362" r="3.5433" stroke-width="0.0" /><circle cx="30.1181" cy="69.2362" r="3.5433" stroke-width="0.0" /><circle cx="30.1181" cy="87.2362" r="3.5433" stroke-width="0.0" /><circle cx="63.7795" cy="42.5197" r="6.75" stroke-width="0.0" /><circle cx="63.7795" cy="77.9528" r="6.75" stroke-width="0.0" /></g><g id="rulers" stroke="black"><line stroke-width="1.0" x1="148.8189" x2="148.8189" y1="77.9528" y2="42.5197" /><text font-family="monospace" font-size="5" stroke-width="0.3" x="153.818894" y="60.236219">10.0000mm</text><text font-family="monospace" font-size="5" stroke-width="0.3" x="153.818894" y="66.236219">(Δy=10.0000mm)</text><line stroke-width="1.0" x1="3.5433" x2="3.5433" y1="15.9449" y2="104.5276" /><text font-family="monospace" font-size="5" stroke-width="0.3" x="8.543307" y="60.236219">25.0000mm</text><text font-family="monospace" font-size="5" stroke-width="0.3" x="8.543307" y="66.236219">(Δy=25.0000mm)</text><line stroke-width="1.0" x1="12.4016" x2="136.4173" y1="113.3858" y2="113.3858" /><text font-family="monospace" font-size="5" stroke-width="0.3" x="74.409447" y="118.385824">35.0000mm</text><text font-family="monospace" font-size="5" stroke-width="0.3" x="74.409447" y="124.385824">(Δx=35.0000mm)</text><line stroke-width="1.0" x1="145.2756" x2="145.2756" y1="42.5197" y2="15.9449" /><text font-family="monospace" font-size="5" stroke-width="0.3" x="150.275587" y="29.23228275">7.5000mm</text><text font-family="monospace" font-size="5" stroke-width="0.3" x="150.275587" y="35.23228275">(Δy=7.5000mm)</text><line stroke-width="1.0" x1="63.7795" x2="12.4016" y1="7.0866" y2="7.0866" /><text font-family="monospace" font-size="5" stroke-width="0.3" x="38.09055025" y="2.086614">14.5000mm</text><text font-family="monospace" font-size="5" stroke-width="0.3" x="38.09055025" y="8.086614">(Δx=14.5000mm)</text><line stroke-width="1.0" x1="145.2756" x2="145.2756" y1="104.5276" y2="77.9528" /><text font-family="monospace" font-size="5" stroke-width="0.3" x="150.275587" y="91.24015525">7.5000mm</text><text font-family="monospace" font-size="5" stroke-width="0.3" x="150.275587" y="97.24015525">(Δy=7.5000mm)</text><line stroke-width="1.0" x1="136.4173" x2="63.7795" y1="3.5433" y2="3.5433" /><text font-family="monospace" font-size="5" stroke-width="0.3" x="100.09842275" y="-1.456693">20.5000mm</text><text font-family="monospace" font-size="5" stroke-width="0.3" x="100.09842275" y="4.543307">(Δx=20.5000mm)</text></g></svg>