<?xml version='1.0' encoding='UTF-8' standalone='no'?>
<svg xmlns="http://www.w3.org/2000/svg" width="741" height="500" x="0" y="0"><text x="410" y="200" font-size="10" font-family="sans-serif" text-anchor="start" alignment-baseline="hanging">GND</text><text x="410" y="10" font-size="10" font-family="sans-serif" text-anchor="start" alignment-baseline="hanging">12V</text><text x="370" y="440" font-size="10" font-family="sans-serif" text-anchor="start" alignment-baseline="hanging">M2</text><text x="490" y="50" font-size="10" font-family="sans-serif" text-anchor="end" alignment-baseline="hanging">J2</text><text x="10" y="10" font-size="10" font-family="sans-serif" text-anchor="start" alignment-baseline="hanging">5V</text><text x="64" y="335" font-size="10" font-family="sans-serif" text-anchor="start" alignment-baseline="hanging">Screw holes matching those on a ATX motherboard. So the board can be secured to a motherboard standoff or cable-tied to the case
See https://en.wikipedia.org/wiki/Computer_case_screws#Motherboard_standoff</text><text x="370" y="370" font-size="10" font-family="sans-serif" text-anchor="start" alignment-baseline="hanging">Mounting hole ##6-32 UNC</text><text x="220" y="370" font-size="10" font-family="sans-serif" text-anchor="start" alignment-baseline="hanging">Mounting hole ##6-32 UNC</text><text x="380" y="10" font-size="10" font-family="sans-serif" text-anchor="start" alignment-baseline="hanging">5V</text><text x="460" y="480" font-size="10" font-family="sans-serif" text-anchor="start" alignment-baseline="hanging">GND</text><text x="220" y="440" font-size="10" font-family="sans-serif" text-anchor="start" alignment-baseline="hanging">M1</text><text x="215" y="95" font-size="10" font-family="sans-serif" text-anchor="start" alignment-baseline="hanging">TODO: Add SATA power connector</text><text x="40" y="10" font-size="10" font-family="sans-serif" text-anchor="start" alignment-baseline="hanging">12V</text><text x="310" y="480" font-size="10" font-family="sans-serif" text-anchor="start" alignment-baseline="hanging">GND</text><text x="18" y="305" font-size="10" font-family="sans-serif" text-anchor="start" alignment-baseline="hanging">TODO: Should I connect the screw holes to ground? - https://superuser.com/questions/1138512/what-exactly-is-grounded-through-motherboard-standoffs</text><text x="40" y="200" font-size="10" font-family="sans-serif" text-anchor="start" alignment-baseline="hanging">GND</text><text x="95" y="170" font-size="10" font-family="sans-serif" text-anchor="start" alignment-baseline="hanging">0015244449</text><text x="100" y="50" font-size="10" font-family="sans-serif" text-anchor="start" alignment-baseline="hanging">J1</text><rect width="60" height="100" x="470" y="60" style="stroke: #000; stroke-width: 1; fill: none;"></rect><circle cx="480" cy="80" r="3" style="stroke: #000; stroke-width: 1; fill: none;"></circle><line x1="477" y1="80" x2="470" y2="80" stroke-width="2" stroke="black"></line><circle cx="480" cy="100" r="3" style="stroke: #000; stroke-width: 1; fill: none;"></circle><line x1="477" y1="100" x2="470" y2="100" stroke-width="2" stroke="black"></line><circle cx="480" cy="120" r="3" style="stroke: #000; stroke-width: 1; fill: none;"></circle><line x1="477" y1="120" x2="470" y2="120" stroke-width="2" stroke="black"></line><circle cx="480" cy="140" r="3" style="stroke: #000; stroke-width: 1; fill: none;"></circle><line x1="477" y1="140" x2="470" y2="140" stroke-width="2" stroke="black"></line><line x1="460" y1="80" x2="470" y2="80" stroke-width="2" stroke="black"></line><line x1="460" y1="100" x2="470" y2="100" stroke-width="2" stroke="black"></line><line x1="460" y1="120" x2="470" y2="120" stroke-width="2" stroke="black"></line><line x1="460" y1="140" x2="470" y2="140" stroke-width="2" stroke="black"></line><text x="492" y="80" font-size="10" font-family="sans-serif" text-anchor="start" alignment-baseline="middle">1</text><text x="492" y="100" font-size="10" font-family="sans-serif" text-anchor="start" alignment-baseline="middle">2</text><text x="492" y="120" font-size="10" font-family="sans-serif" text-anchor="start" alignment-baseline="middle">3</text><text x="492" y="140" font-size="10" font-family="sans-serif" text-anchor="start" alignment-baseline="middle">4</text><line x1="420" y1="170" x2="420" y2="180" stroke-width="2" stroke="black"></line><line x1="410" y1="180" x2="430" y2="180" stroke-width="2" stroke="black"></line><line x1="413" y1="185" x2="427" y2="185" stroke-width="2" stroke="black"></line><line x1="416" y1="190" x2="424" y2="190" stroke-width="2" stroke="black"></line><line x1="420" y1="40" x2="420" y2="20" stroke-width="2" stroke="black"></line><line x1="420" y1="20" x2="413" y2="27" stroke-width="2" stroke="black"></line><line x1="420" y1="20" x2="427" y2="27" stroke-width="2" stroke="black"></line><line x1="50" y1="40" x2="50" y2="20" stroke-width="2" stroke="black"></line><line x1="50" y1="20" x2="43" y2="27" stroke-width="2" stroke="black"></line><line x1="50" y1="20" x2="57" y2="27" stroke-width="2" stroke="black"></line><line x1="320" y1="450" x2="320" y2="460" stroke-width="2" stroke="black"></line><line x1="310" y1="460" x2="330" y2="460" stroke-width="2" stroke="black"></line><line x1="313" y1="465" x2="327" y2="465" stroke-width="2" stroke="black"></line><line x1="316" y1="470" x2="324" y2="470" stroke-width="2" stroke="black"></line><line x1="20" y1="40" x2="20" y2="20" stroke-width="2" stroke="black"></line><line x1="20" y1="20" x2="13" y2="27" stroke-width="2" stroke="black"></line><line x1="20" y1="20" x2="27" y2="27" stroke-width="2" stroke="black"></line><line x1="470" y1="450" x2="470" y2="460" stroke-width="2" stroke="black"></line><line x1="460" y1="460" x2="480" y2="460" stroke-width="2" stroke="black"></line><line x1="463" y1="465" x2="477" y2="465" stroke-width="2" stroke="black"></line><line x1="466" y1="470" x2="474" y2="470" stroke-width="2" stroke="black"></line><line x1="50" y1="170" x2="50" y2="180" stroke-width="2" stroke="black"></line><line x1="40" y1="180" x2="60" y2="180" stroke-width="2" stroke="black"></line><line x1="43" y1="185" x2="57" y2="185" stroke-width="2" stroke="black"></line><line x1="46" y1="190" x2="54" y2="190" stroke-width="2" stroke="black"></line><circle cx="250" cy="420" r="20" style="stroke: #000; stroke-width: 1; fill: none;"></circle><line x1="280" y1="420" x2="270" y2="420" stroke-width="2" stroke="black"></line><circle cx="400" cy="420" r="20" style="stroke: #000; stroke-width: 1; fill: none;"></circle><line x1="430" y1="420" x2="420" y2="420" stroke-width="2" stroke="black"></line><rect width="50" height="90" x="95" y="65" style="stroke: #000; stroke-width: 1; fill: none;"></rect><line x1="90" y1="80" x2="95" y2="80" stroke-width="2" stroke="black"></line><text x="100" y="80" font-size="10" font-family="sans-serif" text-anchor="start" alignment-baseline="middle">12V</text><line x1="90" y1="100" x2="95" y2="100" stroke-width="2" stroke="black"></line><text x="100" y="100" font-size="10" font-family="sans-serif" text-anchor="start" alignment-baseline="middle">GND</text><line x1="90" y1="120" x2="95" y2="120" stroke-width="2" stroke="black"></line><text x="100" y="120" font-size="10" font-family="sans-serif" text-anchor="start" alignment-baseline="middle">GND</text><line x1="90" y1="140" x2="95" y2="140" stroke-width="2" stroke="black"></line><text x="100" y="140" font-size="10" font-family="sans-serif" text-anchor="start" alignment-baseline="middle">5V</text><line x1="390" y1="40" x2="390" y2="20" stroke-width="2" stroke="black"></line><line x1="390" y1="20" x2="383" y2="27" stroke-width="2" stroke="black"></line><line x1="390" y1="20" x2="397" y2="27" stroke-width="2" stroke="black"></line><circle cx="420" cy="120" r="2" style="stroke: #000; stroke-width: 1; fill: none;"></circle><circle cx="50" cy="120" r="2" style="stroke: #000; stroke-width: 1; fill: none;"></circle><line x1="420" y1="120" x2="420" y2="100" stroke-width="2" stroke="black"></line><line x1="460" y1="100" x2="420" y2="100" stroke-width="2" stroke="black"></line><line x1="50" y1="120" x2="50" y2="170" stroke-width="2" stroke="black"></line><line x1="50" y1="80" x2="50" y2="40" stroke-width="2" stroke="black"></line><line x1="20" y1="40" x2="20" y2="140" stroke-width="2" stroke="black"></line><line x1="420" y1="80" x2="420" y2="40" stroke-width="2" stroke="black"></line><line x1="420" y1="170" x2="420" y2="120" stroke-width="2" stroke="black"></line><line x1="390" y1="40" x2="390" y2="140" stroke-width="2" stroke="black"></line><line x1="90" y1="80" x2="50" y2="80" stroke-width="2" stroke="black"></line><line x1="470" y1="420" x2="430" y2="420" stroke-width="2" stroke="black"></line><line x1="470" y1="420" x2="470" y2="450" stroke-width="2" stroke="black"></line><line x1="460" y1="140" x2="390" y2="140" stroke-width="2" stroke="black"></line><line x1="90" y1="140" x2="20" y2="140" stroke-width="2" stroke="black"></line><line x1="460" y1="120" x2="420" y2="120" stroke-width="2" stroke="black"></line><line x1="90" y1="120" x2="50" y2="120" stroke-width="2" stroke="black"></line><line x1="460" y1="80" x2="420" y2="80" stroke-width="2" stroke="black"></line><line x1="50" y1="100" x2="50" y2="120" stroke-width="2" stroke="black"></line><line x1="50" y1="100" x2="90" y2="100" stroke-width="2" stroke="black"></line><line x1="320" y1="420" x2="320" y2="450" stroke-width="2" stroke="black"></line><line x1="280" y1="420" x2="320" y2="420" stroke-width="2" stroke="black"></line></svg>