<?xml-stylesheet href="https://s3.amazonaws.com/maker.works.boards/css/blackpcb.css" type="text/css"?><svg xmlns="http://www.w3.org/2000/svg" version="1.1" xmlns:xlink="http://www.w3.org/1999/xlink" stroke-width="0" stroke-linecap="round" stroke-linejoin="round" width="2.3622in" height="1.9685000000000001in" id="pcb_bottom" viewBox="7.5 7.5 2362.2 1968.5"><defs><circle cx="0" cy="0" r="63" id="tool-T10-pad-1000"/><circle cx="0" cy="0" r="21.5" id="tool-T11-pad-1001"/><circle cx="0" cy="0" r="17.5" id="tool-T12-pad-1002"/><circle cx="0" cy="0" r="17.5" id="tool-T13-pad-1003"/><circle cx="0" cy="0" r="108.25" id="tool-D11-pad-1005"/><circle cx="0" cy="0" r="32.5" id="tool-D12-pad-1006"/><rect x="-32.4805" y="-32.4805" width="64.961" height="64.961" transform="rotate(90)" id="tool-D13-pad-1007"/><rect x="-27.55" y="-27.55" width="55.1" height="55.1" id="tool-D14-pad-1008"/><circle cx="0" cy="0" r="27.55" id="tool-D15-pad-1009"/><circle cx="0" cy="0" r="27.55" id="tool-D16-pad-1010"/><rect x="-27.559" y="-27.559" width="55.118" height="55.118" transform="rotate(180)" id="tool-D17-pad-1011"/><circle cx="0" cy="0" r="108.25" id="tool-D10-pad-1012"/><circle cx="0" cy="0" r="32.5" id="tool-D11-pad-1013"/><rect x="-32.4805" y="-32.4805" width="64.961" height="64.961" transform="rotate(90)" id="tool-D12-pad-1014"/><rect x="-27.55" y="-27.55" width="55.1" height="55.1" id="tool-D13-pad-1015"/><circle cx="0" cy="0" r="27.55" id="tool-D14-pad-1016"/><circle cx="0" cy="0" r="27.55" id="tool-D15-pad-1017"/><rect x="-27.559" y="-27.559" width="55.118" height="55.118" transform="rotate(180)" id="tool-D16-pad-1018"/><g id="pcb_bottom-cu" fill="currentColor" stroke="currentColor"><path stroke-width="39.4" fill="none" d="M 539 692.5 L 1834.3 692.5 M 1444.5 1483.9 L 1444.5 1570.5 M 1936.6 499.6 L 1936.6 586.2 M 1542.9 1287 L 1542.9 1373.6 M 637.4 1003.6 L 637.4 893.3 M 1542.9 1287 L 838.2 1287 M 440.6 609.9 L 440.6 499.6 M 1739.8 893.3 L 641.4 893.3 M 834.3 1397.3 L 834.3 1287 M 1444.5 1483.9 L 936.6 1483.9 M 1641.4 1090.2 L 739.8 1090.2 M 1641.4 1090.2 L 1641.4 1176.8 M 735.8 1200.4 L 735.8 1090.2 M 1346.1 1570.5 L 1346.1 1680.7 M 1346.1 1680.7 L 1031.1 1680.7 M 2035.1 389.4 L 2035.1 302.8 M 1739.8 893.3 L 1739.8 979.9 M 1936.6 499.6 L 444.5 499.6 M 1834.3 696.5 L 1834.3 779.2 M 932.7 1594.1 L 932.7 1483.9 M 342.1 302.8 L 342.1 413 M 2035.1 302.8 L 342.1 302.8 M 1031.1 1680.7 L 1031.1 1594.1 M 539 806.7 L 539 692.5"/><use x="165" y="165" xlink:href="#tool-D11-pad-1005"/><use x="529.5" y="86.2" xlink:href="#tool-D12-pad-1006"/><use x="629.5" y="86.2" xlink:href="#tool-D12-pad-1006"/><use x="729.5" y="86.2" xlink:href="#tool-D12-pad-1006"/><use x="829.5" y="86.2" xlink:href="#tool-D12-pad-1006"/><use x="929.5" y="86.2" xlink:href="#tool-D12-pad-1006"/><use x="1029.5" y="86.2" xlink:href="#tool-D12-pad-1006"/><use x="1129.5" y="86.2" xlink:href="#tool-D12-pad-1006"/><use x="1229.5" y="86.2" xlink:href="#tool-D12-pad-1006"/><use x="1329.5" y="86.2" xlink:href="#tool-D12-pad-1006"/><use x="1429.5" y="86.2" xlink:href="#tool-D12-pad-1006"/><use x="1529.5" y="86.2" xlink:href="#tool-D12-pad-1006"/><use x="1629.5" y="86.2" xlink:href="#tool-D12-pad-1006"/><use x="1729.5" y="86.2" xlink:href="#tool-D12-pad-1006"/><use x="1829.5" y="86.2" xlink:href="#tool-D12-pad-1006"/><use x="429.5" y="86.2" xlink:href="#tool-D13-pad-1007"/><use x="342.1" y="413" xlink:href="#tool-D14-pad-1008"/><use x="440.6" y="413" xlink:href="#tool-D15-pad-1009"/><use x="539" y="413" xlink:href="#tool-D15-pad-1009"/><use x="637.4" y="413" xlink:href="#tool-D15-pad-1009"/><use x="735.8" y="413" xlink:href="#tool-D15-pad-1009"/><use x="834.3" y="413" xlink:href="#tool-D15-pad-1009"/><use x="932.7" y="413" xlink:href="#tool-D15-pad-1009"/><use x="1031.1" y="413" xlink:href="#tool-D15-pad-1009"/><use x="1129.5" y="413" xlink:href="#tool-D15-pad-1009"/><use x="1228" y="413" xlink:href="#tool-D15-pad-1009"/><use x="1326.4" y="413" xlink:href="#tool-D15-pad-1009"/><use x="1424.8" y="413" xlink:href="#tool-D15-pad-1009"/><use x="1523.2" y="413" xlink:href="#tool-D15-pad-1009"/><use x="1621.7" y="413" xlink:href="#tool-D15-pad-1009"/><use x="1720.1" y="413" xlink:href="#tool-D15-pad-1009"/><use x="1936.6" y="1570.5" xlink:href="#tool-D16-pad-1010"/><use x="1838.2" y="1570.5" xlink:href="#tool-D16-pad-1010"/><use x="1739.8" y="1570.5" xlink:href="#tool-D16-pad-1010"/><use x="1641.4" y="1570.5" xlink:href="#tool-D16-pad-1010"/><use x="1542.9" y="1570.5" xlink:href="#tool-D16-pad-1010"/><use x="1444.5" y="1570.5" xlink:href="#tool-D16-pad-1010"/><use x="1346.1" y="1570.5" xlink:href="#tool-D16-pad-1010"/><use x="2035.1" y="1570.5" xlink:href="#tool-D17-pad-1011"/><use x="1936.6" y="1373.6" xlink:href="#tool-D16-pad-1010"/><use x="1838.2" y="1373.6" xlink:href="#tool-D16-pad-1010"/><use x="1739.8" y="1373.6" xlink:href="#tool-D16-pad-1010"/><use x="1641.4" y="1373.6" xlink:href="#tool-D16-pad-1010"/><use x="1542.9" y="1373.6" xlink:href="#tool-D16-pad-1010"/><use x="1444.5" y="1373.6" xlink:href="#tool-D16-pad-1010"/><use x="2035.1" y="1373.6" xlink:href="#tool-D17-pad-1011"/><use x="1936.6" y="389.4" xlink:href="#tool-D16-pad-1010"/><use x="2035.1" y="389.4" xlink:href="#tool-D17-pad-1011"/><use x="1936.6" y="586.2" xlink:href="#tool-D16-pad-1010"/><use x="1838.2" y="586.2" xlink:href="#tool-D16-pad-1010"/><use x="2035.1" y="586.2" xlink:href="#tool-D17-pad-1011"/><use x="342.1" y="1003.6" xlink:href="#tool-D14-pad-1008"/><use x="440.6" y="1003.6" xlink:href="#tool-D15-pad-1009"/><use x="539" y="1003.6" xlink:href="#tool-D15-pad-1009"/><use x="637.4" y="1003.6" xlink:href="#tool-D15-pad-1009"/><use x="735.8" y="1003.6" xlink:href="#tool-D15-pad-1009"/><use x="834.3" y="1003.6" xlink:href="#tool-D15-pad-1009"/><use x="932.7" y="1003.6" xlink:href="#tool-D15-pad-1009"/><use x="1031.1" y="1003.6" xlink:href="#tool-D15-pad-1009"/><use x="1129.5" y="1003.6" xlink:href="#tool-D15-pad-1009"/><use x="1228" y="1003.6" xlink:href="#tool-D15-pad-1009"/><use x="1326.4" y="1003.6" xlink:href="#tool-D15-pad-1009"/><use x="1424.8" y="1003.6" xlink:href="#tool-D15-pad-1009"/><use x="1936.6" y="1176.8" xlink:href="#tool-D16-pad-1010"/><use x="1838.2" y="1176.8" xlink:href="#tool-D16-pad-1010"/><use x="1739.8" y="1176.8" xlink:href="#tool-D16-pad-1010"/><use x="1641.4" y="1176.8" xlink:href="#tool-D16-pad-1010"/><use x="1542.9" y="1176.8" xlink:href="#tool-D16-pad-1010"/><use x="2035.1" y="1176.8" xlink:href="#tool-D17-pad-1011"/><use x="342.1" y="609.9" xlink:href="#tool-D14-pad-1008"/><use x="440.6" y="609.9" xlink:href="#tool-D15-pad-1009"/><use x="539" y="609.9" xlink:href="#tool-D15-pad-1009"/><use x="637.4" y="609.9" xlink:href="#tool-D15-pad-1009"/><use x="735.8" y="609.9" xlink:href="#tool-D15-pad-1009"/><use x="834.3" y="609.9" xlink:href="#tool-D15-pad-1009"/><use x="932.7" y="609.9" xlink:href="#tool-D15-pad-1009"/><use x="1031.1" y="609.9" xlink:href="#tool-D15-pad-1009"/><use x="1129.5" y="609.9" xlink:href="#tool-D15-pad-1009"/><use x="1228" y="609.9" xlink:href="#tool-D15-pad-1009"/><use x="1326.4" y="609.9" xlink:href="#tool-D15-pad-1009"/><use x="1424.8" y="609.9" xlink:href="#tool-D15-pad-1009"/><use x="1523.2" y="609.9" xlink:href="#tool-D15-pad-1009"/><use x="1621.7" y="609.9" xlink:href="#tool-D15-pad-1009"/><use x="1936.6" y="783.1" xlink:href="#tool-D16-pad-1010"/><use x="1838.2" y="783.1" xlink:href="#tool-D16-pad-1010"/><use x="1739.8" y="783.1" xlink:href="#tool-D16-pad-1010"/><use x="2035.1" y="783.1" xlink:href="#tool-D17-pad-1011"/><use x="529.5" y="204.4" xlink:href="#tool-D12-pad-1006"/><use x="629.5" y="204.4" xlink:href="#tool-D12-pad-1006"/><use x="729.5" y="204.4" xlink:href="#tool-D12-pad-1006"/><use x="829.5" y="204.4" xlink:href="#tool-D12-pad-1006"/><use x="929.5" y="204.4" xlink:href="#tool-D12-pad-1006"/><use x="1029.5" y="204.4" xlink:href="#tool-D12-pad-1006"/><use x="1129.5" y="204.4" xlink:href="#tool-D12-pad-1006"/><use x="1229.5" y="204.4" xlink:href="#tool-D12-pad-1006"/><use x="1329.5" y="204.4" xlink:href="#tool-D12-pad-1006"/><use x="1429.5" y="204.4" xlink:href="#tool-D12-pad-1006"/><use x="1529.5" y="204.4" xlink:href="#tool-D12-pad-1006"/><use x="1629.5" y="204.4" xlink:href="#tool-D12-pad-1006"/><use x="1729.5" y="204.4" xlink:href="#tool-D12-pad-1006"/><use x="1829.5" y="204.4" xlink:href="#tool-D12-pad-1006"/><use x="429.5" y="204.4" xlink:href="#tool-D13-pad-1007"/><use x="2212.2" y="165" xlink:href="#tool-D11-pad-1005"/><use x="342.1" y="806.7" xlink:href="#tool-D14-pad-1008"/><use x="440.6" y="806.7" xlink:href="#tool-D15-pad-1009"/><use x="539" y="806.7" xlink:href="#tool-D15-pad-1009"/><use x="637.4" y="806.7" xlink:href="#tool-D15-pad-1009"/><use x="735.8" y="806.7" xlink:href="#tool-D15-pad-1009"/><use x="834.3" y="806.7" xlink:href="#tool-D15-pad-1009"/><use x="932.7" y="806.7" xlink:href="#tool-D15-pad-1009"/><use x="1031.1" y="806.7" xlink:href="#tool-D15-pad-1009"/><use x="1129.5" y="806.7" xlink:href="#tool-D15-pad-1009"/><use x="1228" y="806.7" xlink:href="#tool-D15-pad-1009"/><use x="1326.4" y="806.7" xlink:href="#tool-D15-pad-1009"/><use x="1424.8" y="806.7" xlink:href="#tool-D15-pad-1009"/><use x="1523.2" y="806.7" xlink:href="#tool-D15-pad-1009"/><use x="342.1" y="1594.1" xlink:href="#tool-D14-pad-1008"/><use x="440.6" y="1594.1" xlink:href="#tool-D15-pad-1009"/><use x="539" y="1594.1" xlink:href="#tool-D15-pad-1009"/><use x="637.4" y="1594.1" xlink:href="#tool-D15-pad-1009"/><use x="735.8" y="1594.1" xlink:href="#tool-D15-pad-1009"/><use x="834.3" y="1594.1" xlink:href="#tool-D15-pad-1009"/><use x="932.7" y="1594.1" xlink:href="#tool-D15-pad-1009"/><use x="1031.1" y="1594.1" xlink:href="#tool-D15-pad-1009"/><use x="1129.5" y="1594.1" xlink:href="#tool-D15-pad-1009"/><use x="165" y="1818.5" xlink:href="#tool-D11-pad-1005"/><use x="342.1" y="1200.4" xlink:href="#tool-D14-pad-1008"/><use x="440.6" y="1200.4" xlink:href="#tool-D15-pad-1009"/><use x="539" y="1200.4" xlink:href="#tool-D15-pad-1009"/><use x="637.4" y="1200.4" xlink:href="#tool-D15-pad-1009"/><use x="735.8" y="1200.4" xlink:href="#tool-D15-pad-1009"/><use x="834.3" y="1200.4" xlink:href="#tool-D15-pad-1009"/><use x="932.7" y="1200.4" xlink:href="#tool-D15-pad-1009"/><use x="1031.1" y="1200.4" xlink:href="#tool-D15-pad-1009"/><use x="1129.5" y="1200.4" xlink:href="#tool-D15-pad-1009"/><use x="1228" y="1200.4" xlink:href="#tool-D15-pad-1009"/><use x="1326.4" y="1200.4" xlink:href="#tool-D15-pad-1009"/><use x="2212.2" y="1818.5" xlink:href="#tool-D11-pad-1005"/><use x="342.1" y="1397.3" xlink:href="#tool-D14-pad-1008"/><use x="440.6" y="1397.3" xlink:href="#tool-D15-pad-1009"/><use x="539" y="1397.3" xlink:href="#tool-D15-pad-1009"/><use x="637.4" y="1397.3" xlink:href="#tool-D15-pad-1009"/><use x="735.8" y="1397.3" xlink:href="#tool-D15-pad-1009"/><use x="834.3" y="1397.3" xlink:href="#tool-D15-pad-1009"/><use x="932.7" y="1397.3" xlink:href="#tool-D15-pad-1009"/><use x="1031.1" y="1397.3" xlink:href="#tool-D15-pad-1009"/><use x="1129.5" y="1397.3" xlink:href="#tool-D15-pad-1009"/><use x="1228" y="1397.3" xlink:href="#tool-D15-pad-1009"/><use x="1936.6" y="979.9" xlink:href="#tool-D16-pad-1010"/><use x="1838.2" y="979.9" xlink:href="#tool-D16-pad-1010"/><use x="1739.8" y="979.9" xlink:href="#tool-D16-pad-1010"/><use x="1641.4" y="979.9" xlink:href="#tool-D16-pad-1010"/><use x="2035.1" y="979.9" xlink:href="#tool-D17-pad-1011"/></g><mask id="pcb_bottom_mech-mask" fill="#fff" stroke="#fff" fill-rule="evenodd"><path stroke-width="0" d="M 7.5 7.5 L 7.5 1976 L 2369.7 1976 L 2369.7 7.5 Z"/><g id="pcb_bottom-drl" fill="#000" stroke="#000"><use x="165" y="165" xlink:href="#tool-T10-pad-1000"/><use x="2212.2" y="165" xlink:href="#tool-T10-pad-1000"/><use x="165" y="1818.5" xlink:href="#tool-T10-pad-1000"/><use x="2212.2" y="1818.5" xlink:href="#tool-T10-pad-1000"/><use x="429.5" y="86.2" xlink:href="#tool-T11-pad-1001"/><use x="529.5" y="86.2" xlink:href="#tool-T11-pad-1001"/><use x="629.5" y="86.2" xlink:href="#tool-T11-pad-1001"/><use x="729.5" y="86.2" xlink:href="#tool-T11-pad-1001"/><use x="829.5" y="86.2" xlink:href="#tool-T11-pad-1001"/><use x="929.5" y="86.2" xlink:href="#tool-T11-pad-1001"/><use x="1029.5" y="86.2" xlink:href="#tool-T11-pad-1001"/><use x="1129.5" y="86.2" xlink:href="#tool-T11-pad-1001"/><use x="1229.5" y="86.2" xlink:href="#tool-T11-pad-1001"/><use x="1329.5" y="86.2" xlink:href="#tool-T11-pad-1001"/><use x="1429.5" y="86.2" xlink:href="#tool-T11-pad-1001"/><use x="1529.5" y="86.2" xlink:href="#tool-T11-pad-1001"/><use x="1629.5" y="86.2" xlink:href="#tool-T11-pad-1001"/><use x="1729.5" y="86.2" xlink:href="#tool-T11-pad-1001"/><use x="1829.5" y="86.2" xlink:href="#tool-T11-pad-1001"/><use x="429.5" y="204.4" xlink:href="#tool-T11-pad-1001"/><use x="529.5" y="204.4" xlink:href="#tool-T11-pad-1001"/><use x="629.5" y="204.4" xlink:href="#tool-T11-pad-1001"/><use x="729.5" y="204.4" xlink:href="#tool-T11-pad-1001"/><use x="829.5" y="204.4" xlink:href="#tool-T11-pad-1001"/><use x="929.5" y="204.4" xlink:href="#tool-T11-pad-1001"/><use x="1029.5" y="204.4" xlink:href="#tool-T11-pad-1001"/><use x="1129.5" y="204.4" xlink:href="#tool-T11-pad-1001"/><use x="1229.5" y="204.4" xlink:href="#tool-T11-pad-1001"/><use x="1329.5" y="204.4" xlink:href="#tool-T11-pad-1001"/><use x="1429.5" y="204.4" xlink:href="#tool-T11-pad-1001"/><use x="1529.5" y="204.4" xlink:href="#tool-T11-pad-1001"/><use x="1629.5" y="204.4" xlink:href="#tool-T11-pad-1001"/><use x="1729.5" y="204.4" xlink:href="#tool-T11-pad-1001"/><use x="1829.5" y="204.4" xlink:href="#tool-T11-pad-1001"/><use x="342.1" y="413" xlink:href="#tool-T12-pad-1002"/><use x="440.6" y="413" xlink:href="#tool-T12-pad-1002"/><use x="539" y="413" xlink:href="#tool-T12-pad-1002"/><use x="637.4" y="413" xlink:href="#tool-T12-pad-1002"/><use x="735.8" y="413" xlink:href="#tool-T12-pad-1002"/><use x="834.3" y="413" xlink:href="#tool-T12-pad-1002"/><use x="932.7" y="413" xlink:href="#tool-T12-pad-1002"/><use x="1031.1" y="413" xlink:href="#tool-T12-pad-1002"/><use x="1129.5" y="413" xlink:href="#tool-T12-pad-1002"/><use x="1228" y="413" xlink:href="#tool-T12-pad-1002"/><use x="1326.4" y="413" xlink:href="#tool-T12-pad-1002"/><use x="1424.8" y="413" xlink:href="#tool-T12-pad-1002"/><use x="1523.2" y="413" xlink:href="#tool-T12-pad-1002"/><use x="1621.7" y="413" xlink:href="#tool-T12-pad-1002"/><use x="1720.1" y="413" xlink:href="#tool-T12-pad-1002"/><use x="342.1" y="1003.6" xlink:href="#tool-T12-pad-1002"/><use x="440.6" y="1003.6" xlink:href="#tool-T12-pad-1002"/><use x="539" y="1003.6" xlink:href="#tool-T12-pad-1002"/><use x="637.4" y="1003.6" xlink:href="#tool-T12-pad-1002"/><use x="735.8" y="1003.6" xlink:href="#tool-T12-pad-1002"/><use x="834.3" y="1003.6" xlink:href="#tool-T12-pad-1002"/><use x="932.7" y="1003.6" xlink:href="#tool-T12-pad-1002"/><use x="1031.1" y="1003.6" xlink:href="#tool-T12-pad-1002"/><use x="1129.5" y="1003.6" xlink:href="#tool-T12-pad-1002"/><use x="1228" y="1003.6" xlink:href="#tool-T12-pad-1002"/><use x="1326.4" y="1003.6" xlink:href="#tool-T12-pad-1002"/><use x="1424.8" y="1003.6" xlink:href="#tool-T12-pad-1002"/><use x="342.1" y="609.9" xlink:href="#tool-T12-pad-1002"/><use x="440.6" y="609.9" xlink:href="#tool-T12-pad-1002"/><use x="539" y="609.9" xlink:href="#tool-T12-pad-1002"/><use x="637.4" y="609.9" xlink:href="#tool-T12-pad-1002"/><use x="735.8" y="609.9" xlink:href="#tool-T12-pad-1002"/><use x="834.3" y="609.9" xlink:href="#tool-T12-pad-1002"/><use x="932.7" y="609.9" xlink:href="#tool-T12-pad-1002"/><use x="1031.1" y="609.9" xlink:href="#tool-T12-pad-1002"/><use x="1129.5" y="609.9" xlink:href="#tool-T12-pad-1002"/><use x="1228" y="609.9" xlink:href="#tool-T12-pad-1002"/><use x="1326.4" y="609.9" xlink:href="#tool-T12-pad-1002"/><use x="1424.8" y="609.9" xlink:href="#tool-T12-pad-1002"/><use x="1523.2" y="609.9" xlink:href="#tool-T12-pad-1002"/><use x="1621.7" y="609.9" xlink:href="#tool-T12-pad-1002"/><use x="342.1" y="806.7" xlink:href="#tool-T12-pad-1002"/><use x="440.6" y="806.7" xlink:href="#tool-T12-pad-1002"/><use x="539" y="806.7" xlink:href="#tool-T12-pad-1002"/><use x="637.4" y="806.7" xlink:href="#tool-T12-pad-1002"/><use x="735.8" y="806.7" xlink:href="#tool-T12-pad-1002"/><use x="834.3" y="806.7" xlink:href="#tool-T12-pad-1002"/><use x="932.7" y="806.7" xlink:href="#tool-T12-pad-1002"/><use x="1031.1" y="806.7" xlink:href="#tool-T12-pad-1002"/><use x="1129.5" y="806.7" xlink:href="#tool-T12-pad-1002"/><use x="1228" y="806.7" xlink:href="#tool-T12-pad-1002"/><use x="1326.4" y="806.7" xlink:href="#tool-T12-pad-1002"/><use x="1424.8" y="806.7" xlink:href="#tool-T12-pad-1002"/><use x="1523.2" y="806.7" xlink:href="#tool-T12-pad-1002"/><use x="342.1" y="1594.1" xlink:href="#tool-T12-pad-1002"/><use x="440.6" y="1594.1" xlink:href="#tool-T12-pad-1002"/><use x="539" y="1594.1" xlink:href="#tool-T12-pad-1002"/><use x="637.4" y="1594.1" xlink:href="#tool-T12-pad-1002"/><use x="735.8" y="1594.1" xlink:href="#tool-T12-pad-1002"/><use x="834.3" y="1594.1" xlink:href="#tool-T12-pad-1002"/><use x="932.7" y="1594.1" xlink:href="#tool-T12-pad-1002"/><use x="1031.1" y="1594.1" xlink:href="#tool-T12-pad-1002"/><use x="1129.5" y="1594.1" xlink:href="#tool-T12-pad-1002"/><use x="342.1" y="1200.4" xlink:href="#tool-T12-pad-1002"/><use x="440.6" y="1200.4" xlink:href="#tool-T12-pad-1002"/><use x="539" y="1200.4" xlink:href="#tool-T12-pad-1002"/><use x="637.4" y="1200.4" xlink:href="#tool-T12-pad-1002"/><use x="735.8" y="1200.4" xlink:href="#tool-T12-pad-1002"/><use x="834.3" y="1200.4" xlink:href="#tool-T12-pad-1002"/><use x="932.7" y="1200.4" xlink:href="#tool-T12-pad-1002"/><use x="1031.1" y="1200.4" xlink:href="#tool-T12-pad-1002"/><use x="1129.5" y="1200.4" xlink:href="#tool-T12-pad-1002"/><use x="1228" y="1200.4" xlink:href="#tool-T12-pad-1002"/><use x="1326.4" y="1200.4" xlink:href="#tool-T12-pad-1002"/><use x="342.1" y="1397.3" xlink:href="#tool-T12-pad-1002"/><use x="440.6" y="1397.3" xlink:href="#tool-T12-pad-1002"/><use x="539" y="1397.3" xlink:href="#tool-T12-pad-1002"/><use x="637.4" y="1397.3" xlink:href="#tool-T12-pad-1002"/><use x="735.8" y="1397.3" xlink:href="#tool-T12-pad-1002"/><use x="834.3" y="1397.3" xlink:href="#tool-T12-pad-1002"/><use x="932.7" y="1397.3" xlink:href="#tool-T12-pad-1002"/><use x="1031.1" y="1397.3" xlink:href="#tool-T12-pad-1002"/><use x="1129.5" y="1397.3" xlink:href="#tool-T12-pad-1002"/><use x="1228" y="1397.3" xlink:href="#tool-T12-pad-1002"/><use x="2035.1" y="1570.5" xlink:href="#tool-T13-pad-1003"/><use x="1936.6" y="1570.5" xlink:href="#tool-T13-pad-1003"/><use x="1838.2" y="1570.5" xlink:href="#tool-T13-pad-1003"/><use x="1739.8" y="1570.5" xlink:href="#tool-T13-pad-1003"/><use x="1641.4" y="1570.5" xlink:href="#tool-T13-pad-1003"/><use x="1542.9" y="1570.5" xlink:href="#tool-T13-pad-1003"/><use x="1444.5" y="1570.5" xlink:href="#tool-T13-pad-1003"/><use x="1346.1" y="1570.5" xlink:href="#tool-T13-pad-1003"/><use x="2035.1" y="1373.6" xlink:href="#tool-T13-pad-1003"/><use x="1936.6" y="1373.6" xlink:href="#tool-T13-pad-1003"/><use x="1838.2" y="1373.6" xlink:href="#tool-T13-pad-1003"/><use x="1739.8" y="1373.6" xlink:href="#tool-T13-pad-1003"/><use x="1641.4" y="1373.6" xlink:href="#tool-T13-pad-1003"/><use x="1542.9" y="1373.6" xlink:href="#tool-T13-pad-1003"/><use x="1444.5" y="1373.6" xlink:href="#tool-T13-pad-1003"/><use x="2035.1" y="389.4" xlink:href="#tool-T13-pad-1003"/><use x="1936.6" y="389.4" xlink:href="#tool-T13-pad-1003"/><use x="2035.1" y="586.2" xlink:href="#tool-T13-pad-1003"/><use x="1936.6" y="586.2" xlink:href="#tool-T13-pad-1003"/><use x="1838.2" y="586.2" xlink:href="#tool-T13-pad-1003"/><use x="2035.1" y="1176.8" xlink:href="#tool-T13-pad-1003"/><use x="1936.6" y="1176.8" xlink:href="#tool-T13-pad-1003"/><use x="1838.2" y="1176.8" xlink:href="#tool-T13-pad-1003"/><use x="1739.8" y="1176.8" xlink:href="#tool-T13-pad-1003"/><use x="1641.4" y="1176.8" xlink:href="#tool-T13-pad-1003"/><use x="1542.9" y="1176.8" xlink:href="#tool-T13-pad-1003"/><use x="2035.1" y="783.1" xlink:href="#tool-T13-pad-1003"/><use x="1936.6" y="783.1" xlink:href="#tool-T13-pad-1003"/><use x="1838.2" y="783.1" xlink:href="#tool-T13-pad-1003"/><use x="1739.8" y="783.1" xlink:href="#tool-T13-pad-1003"/><use x="2035.1" y="979.9" xlink:href="#tool-T13-pad-1003"/><use x="1936.6" y="979.9" xlink:href="#tool-T13-pad-1003"/><use x="1838.2" y="979.9" xlink:href="#tool-T13-pad-1003"/><use x="1739.8" y="979.9" xlink:href="#tool-T13-pad-1003"/><use x="1641.4" y="979.9" xlink:href="#tool-T13-pad-1003"/></g></mask></defs><g mask="url(#pcb_bottom_mech-mask)" transform="translate(2377.2,1983.5) scale(-1,-1)"><rect x="7.5" y="7.5" width="2362.2" height="1968.5" fill="currentColor" class="pcb_board-fr4"/><use class="pcb_board-cu" xlink:href="#pcb_bottom-cu"/><g><defs><g id="pcb_bottom-sm" fill="currentColor" stroke="currentColor"><use x="165" y="165" xlink:href="#tool-D10-pad-1012"/><use x="529.5" y="86.2" xlink:href="#tool-D11-pad-1013"/><use x="629.5" y="86.2" xlink:href="#tool-D11-pad-1013"/><use x="729.5" y="86.2" xlink:href="#tool-D11-pad-1013"/><use x="829.5" y="86.2" xlink:href="#tool-D11-pad-1013"/><use x="929.5" y="86.2" xlink:href="#tool-D11-pad-1013"/><use x="1029.5" y="86.2" xlink:href="#tool-D11-pad-1013"/><use x="1129.5" y="86.2" xlink:href="#tool-D11-pad-1013"/><use x="1229.5" y="86.2" xlink:href="#tool-D11-pad-1013"/><use x="1329.5" y="86.2" xlink:href="#tool-D11-pad-1013"/><use x="1429.5" y="86.2" xlink:href="#tool-D11-pad-1013"/><use x="1529.5" y="86.2" xlink:href="#tool-D11-pad-1013"/><use x="1629.5" y="86.2" xlink:href="#tool-D11-pad-1013"/><use x="1729.5" y="86.2" xlink:href="#tool-D11-pad-1013"/><use x="1829.5" y="86.2" xlink:href="#tool-D11-pad-1013"/><use x="429.5" y="86.2" xlink:href="#tool-D12-pad-1014"/><use x="342.1" y="413" xlink:href="#tool-D13-pad-1015"/><use x="440.6" y="413" xlink:href="#tool-D14-pad-1016"/><use x="539" y="413" xlink:href="#tool-D14-pad-1016"/><use x="637.4" y="413" xlink:href="#tool-D14-pad-1016"/><use x="735.8" y="413" xlink:href="#tool-D14-pad-1016"/><use x="834.3" y="413" xlink:href="#tool-D14-pad-1016"/><use x="932.7" y="413" xlink:href="#tool-D14-pad-1016"/><use x="1031.1" y="413" xlink:href="#tool-D14-pad-1016"/><use x="1129.5" y="413" xlink:href="#tool-D14-pad-1016"/><use x="1228" y="413" xlink:href="#tool-D14-pad-1016"/><use x="1326.4" y="413" xlink:href="#tool-D14-pad-1016"/><use x="1424.8" y="413" xlink:href="#tool-D14-pad-1016"/><use x="1523.2" y="413" xlink:href="#tool-D14-pad-1016"/><use x="1621.7" y="413" xlink:href="#tool-D14-pad-1016"/><use x="1720.1" y="413" xlink:href="#tool-D14-pad-1016"/><use x="1936.6" y="1570.5" xlink:href="#tool-D15-pad-1017"/><use x="1838.2" y="1570.5" xlink:href="#tool-D15-pad-1017"/><use x="1739.8" y="1570.5" xlink:href="#tool-D15-pad-1017"/><use x="1641.4" y="1570.5" xlink:href="#tool-D15-pad-1017"/><use x="1542.9" y="1570.5" xlink:href="#tool-D15-pad-1017"/><use x="1444.5" y="1570.5" xlink:href="#tool-D15-pad-1017"/><use x="1346.1" y="1570.5" xlink:href="#tool-D15-pad-1017"/><use x="2035.1" y="1570.5" xlink:href="#tool-D16-pad-1018"/><use x="1936.6" y="1373.6" xlink:href="#tool-D15-pad-1017"/><use x="1838.2" y="1373.6" xlink:href="#tool-D15-pad-1017"/><use x="1739.8" y="1373.6" xlink:href="#tool-D15-pad-1017"/><use x="1641.4" y="1373.6" xlink:href="#tool-D15-pad-1017"/><use x="1542.9" y="1373.6" xlink:href="#tool-D15-pad-1017"/><use x="1444.5" y="1373.6" xlink:href="#tool-D15-pad-1017"/><use x="2035.1" y="1373.6" xlink:href="#tool-D16-pad-1018"/><use x="1936.6" y="389.4" xlink:href="#tool-D15-pad-1017"/><use x="2035.1" y="389.4" xlink:href="#tool-D16-pad-1018"/><use x="1936.6" y="586.2" xlink:href="#tool-D15-pad-1017"/><use x="1838.2" y="586.2" xlink:href="#tool-D15-pad-1017"/><use x="2035.1" y="586.2" xlink:href="#tool-D16-pad-1018"/><use x="342.1" y="1003.6" xlink:href="#tool-D13-pad-1015"/><use x="440.6" y="1003.6" xlink:href="#tool-D14-pad-1016"/><use x="539" y="1003.6" xlink:href="#tool-D14-pad-1016"/><use x="637.4" y="1003.6" xlink:href="#tool-D14-pad-1016"/><use x="735.8" y="1003.6" xlink:href="#tool-D14-pad-1016"/><use x="834.3" y="1003.6" xlink:href="#tool-D14-pad-1016"/><use x="932.7" y="1003.6" xlink:href="#tool-D14-pad-1016"/><use x="1031.1" y="1003.6" xlink:href="#tool-D14-pad-1016"/><use x="1129.5" y="1003.6" xlink:href="#tool-D14-pad-1016"/><use x="1228" y="1003.6" xlink:href="#tool-D14-pad-1016"/><use x="1326.4" y="1003.6" xlink:href="#tool-D14-pad-1016"/><use x="1424.8" y="1003.6" xlink:href="#tool-D14-pad-1016"/><use x="1936.6" y="1176.8" xlink:href="#tool-D15-pad-1017"/><use x="1838.2" y="1176.8" xlink:href="#tool-D15-pad-1017"/><use x="1739.8" y="1176.8" xlink:href="#tool-D15-pad-1017"/><use x="1641.4" y="1176.8" xlink:href="#tool-D15-pad-1017"/><use x="1542.9" y="1176.8" xlink:href="#tool-D15-pad-1017"/><use x="2035.1" y="1176.8" xlink:href="#tool-D16-pad-1018"/><use x="342.1" y="609.9" xlink:href="#tool-D13-pad-1015"/><use x="440.6" y="609.9" xlink:href="#tool-D14-pad-1016"/><use x="539" y="609.9" xlink:href="#tool-D14-pad-1016"/><use x="637.4" y="609.9" xlink:href="#tool-D14-pad-1016"/><use x="735.8" y="609.9" xlink:href="#tool-D14-pad-1016"/><use x="834.3" y="609.9" xlink:href="#tool-D14-pad-1016"/><use x="932.7" y="609.9" xlink:href="#tool-D14-pad-1016"/><use x="1031.1" y="609.9" xlink:href="#tool-D14-pad-1016"/><use x="1129.5" y="609.9" xlink:href="#tool-D14-pad-1016"/><use x="1228" y="609.9" xlink:href="#tool-D14-pad-1016"/><use x="1326.4" y="609.9" xlink:href="#tool-D14-pad-1016"/><use x="1424.8" y="609.9" xlink:href="#tool-D14-pad-1016"/><use x="1523.2" y="609.9" xlink:href="#tool-D14-pad-1016"/><use x="1621.7" y="609.9" xlink:href="#tool-D14-pad-1016"/><use x="1936.6" y="783.1" xlink:href="#tool-D15-pad-1017"/><use x="1838.2" y="783.1" xlink:href="#tool-D15-pad-1017"/><use x="1739.8" y="783.1" xlink:href="#tool-D15-pad-1017"/><use x="2035.1" y="783.1" xlink:href="#tool-D16-pad-1018"/><use x="529.5" y="204.4" xlink:href="#tool-D11-pad-1013"/><use x="629.5" y="204.4" xlink:href="#tool-D11-pad-1013"/><use x="729.5" y="204.4" xlink:href="#tool-D11-pad-1013"/><use x="829.5" y="204.4" xlink:href="#tool-D11-pad-1013"/><use x="929.5" y="204.4" xlink:href="#tool-D11-pad-1013"/><use x="1029.5" y="204.4" xlink:href="#tool-D11-pad-1013"/><use x="1129.5" y="204.4" xlink:href="#tool-D11-pad-1013"/><use x="1229.5" y="204.4" xlink:href="#tool-D11-pad-1013"/><use x="1329.5" y="204.4" xlink:href="#tool-D11-pad-1013"/><use x="1429.5" y="204.4" xlink:href="#tool-D11-pad-1013"/><use x="1529.5" y="204.4" xlink:href="#tool-D11-pad-1013"/><use x="1629.5" y="204.4" xlink:href="#tool-D11-pad-1013"/><use x="1729.5" y="204.4" xlink:href="#tool-D11-pad-1013"/><use x="1829.5" y="204.4" xlink:href="#tool-D11-pad-1013"/><use x="429.5" y="204.4" xlink:href="#tool-D12-pad-1014"/><use x="2212.2" y="165" xlink:href="#tool-D10-pad-1012"/><use x="342.1" y="806.7" xlink:href="#tool-D13-pad-1015"/><use x="440.6" y="806.7" xlink:href="#tool-D14-pad-1016"/><use x="539" y="806.7" xlink:href="#tool-D14-pad-1016"/><use x="637.4" y="806.7" xlink:href="#tool-D14-pad-1016"/><use x="735.8" y="806.7" xlink:href="#tool-D14-pad-1016"/><use x="834.3" y="806.7" xlink:href="#tool-D14-pad-1016"/><use x="932.7" y="806.7" xlink:href="#tool-D14-pad-1016"/><use x="1031.1" y="806.7" xlink:href="#tool-D14-pad-1016"/><use x="1129.5" y="806.7" xlink:href="#tool-D14-pad-1016"/><use x="1228" y="806.7" xlink:href="#tool-D14-pad-1016"/><use x="1326.4" y="806.7" xlink:href="#tool-D14-pad-1016"/><use x="1424.8" y="806.7" xlink:href="#tool-D14-pad-1016"/><use x="1523.2" y="806.7" xlink:href="#tool-D14-pad-1016"/><use x="342.1" y="1594.1" xlink:href="#tool-D13-pad-1015"/><use x="440.6" y="1594.1" xlink:href="#tool-D14-pad-1016"/><use x="539" y="1594.1" xlink:href="#tool-D14-pad-1016"/><use x="637.4" y="1594.1" xlink:href="#tool-D14-pad-1016"/><use x="735.8" y="1594.1" xlink:href="#tool-D14-pad-1016"/><use x="834.3" y="1594.1" xlink:href="#tool-D14-pad-1016"/><use x="932.7" y="1594.1" xlink:href="#tool-D14-pad-1016"/><use x="1031.1" y="1594.1" xlink:href="#tool-D14-pad-1016"/><use x="1129.5" y="1594.1" xlink:href="#tool-D14-pad-1016"/><use x="165" y="1818.5" xlink:href="#tool-D10-pad-1012"/><use x="342.1" y="1200.4" xlink:href="#tool-D13-pad-1015"/><use x="440.6" y="1200.4" xlink:href="#tool-D14-pad-1016"/><use x="539" y="1200.4" xlink:href="#tool-D14-pad-1016"/><use x="637.4" y="1200.4" xlink:href="#tool-D14-pad-1016"/><use x="735.8" y="1200.4" xlink:href="#tool-D14-pad-1016"/><use x="834.3" y="1200.4" xlink:href="#tool-D14-pad-1016"/><use x="932.7" y="1200.4" xlink:href="#tool-D14-pad-1016"/><use x="1031.1" y="1200.4" xlink:href="#tool-D14-pad-1016"/><use x="1129.5" y="1200.4" xlink:href="#tool-D14-pad-1016"/><use x="1228" y="1200.4" xlink:href="#tool-D14-pad-1016"/><use x="1326.4" y="1200.4" xlink:href="#tool-D14-pad-1016"/><use x="2212.2" y="1818.5" xlink:href="#tool-D10-pad-1012"/><use x="342.1" y="1397.3" xlink:href="#tool-D13-pad-1015"/><use x="440.6" y="1397.3" xlink:href="#tool-D14-pad-1016"/><use x="539" y="1397.3" xlink:href="#tool-D14-pad-1016"/><use x="637.4" y="1397.3" xlink:href="#tool-D14-pad-1016"/><use x="735.8" y="1397.3" xlink:href="#tool-D14-pad-1016"/><use x="834.3" y="1397.3" xlink:href="#tool-D14-pad-1016"/><use x="932.7" y="1397.3" xlink:href="#tool-D14-pad-1016"/><use x="1031.1" y="1397.3" xlink:href="#tool-D14-pad-1016"/><use x="1129.5" y="1397.3" xlink:href="#tool-D14-pad-1016"/><use x="1228" y="1397.3" xlink:href="#tool-D14-pad-1016"/><use x="1936.6" y="979.9" xlink:href="#tool-D15-pad-1017"/><use x="1838.2" y="979.9" xlink:href="#tool-D15-pad-1017"/><use x="1739.8" y="979.9" xlink:href="#tool-D15-pad-1017"/><use x="1641.4" y="979.9" xlink:href="#tool-D15-pad-1017"/><use x="2035.1" y="979.9" xlink:href="#tool-D16-pad-1018"/></g><mask id="pcb_bottom-sm_mask" color="#000"><rect x="7.5" y="7.5" width="2362.2" height="1968.5" fill="#fff"/><use xlink:href="#pcb_bottom-sm"/></mask><mask id="pcb_bottom-cu_finish-mask" color="#fff"><use xlink:href="#pcb_bottom-cu"/></mask></defs><g mask="url(#pcb_bottom-sm_mask)"><rect x="7.5" y="7.5" width="2362.2" height="1968.5" fill="currentColor" class="pcb_board-sm"/><g id="pcb_bottom-ss" class="pcb_board-ss" fill="currentColor" stroke="currentColor"></g></g><use class="pcb_board-cf" mask="url(#pcb_bottom-cu_finish-mask)" xlink:href="#pcb_bottom-sm"/></g></g></svg>