<?xml-stylesheet href="https://s3.amazonaws.com/maker.works.boards/css/blackpcb.css" type="text/css"?><svg xmlns="http://www.w3.org/2000/svg" version="1.1" xmlns:xlink="http://www.w3.org/1999/xlink" stroke-width="0" stroke-linecap="round" stroke-linejoin="round" width="2.3622in" height="1.9685000000000001in" id="pcb_top" viewBox="7.5 7.5 2362.2 1968.5"><defs><circle cx="0" cy="0" r="63" id="tool-T10-pad-1000"/><circle cx="0" cy="0" r="21.5" id="tool-T11-pad-1001"/><circle cx="0" cy="0" r="17.5" id="tool-T12-pad-1002"/><circle cx="0" cy="0" r="17.5" id="tool-T13-pad-1003"/><circle cx="0" cy="0" r="108.25" id="tool-D11-pad-1020"/><circle cx="0" cy="0" r="32.5" id="tool-D12-pad-1021"/><rect x="-32.4805" y="-32.4805" width="64.961" height="64.961" transform="rotate(90)" id="tool-D13-pad-1022"/><rect x="-27.55" y="-27.55" width="55.1" height="55.1" id="tool-D14-pad-1023"/><circle cx="0" cy="0" r="27.55" id="tool-D15-pad-1024"/><circle cx="0" cy="0" r="27.55" id="tool-D16-pad-1025"/><rect x="-27.559" y="-27.559" width="55.118" height="55.118" transform="rotate(180)" id="tool-D17-pad-1026"/><circle cx="0" cy="0" r="9.85" id="tool-D11-pad-1028"/><circle cx="0" cy="0" r="9.85" id="tool-D12-pad-1029"/><circle cx="0" cy="0" r="108.25" id="tool-D10-pad-1030"/><circle cx="0" cy="0" r="32.5" id="tool-D11-pad-1031"/><rect x="-32.4805" y="-32.4805" width="64.961" height="64.961" transform="rotate(90)" id="tool-D12-pad-1032"/><rect x="-27.55" y="-27.55" width="55.1" height="55.1" id="tool-D13-pad-1033"/><circle cx="0" cy="0" r="27.55" id="tool-D14-pad-1034"/><circle cx="0" cy="0" r="27.55" id="tool-D15-pad-1035"/><rect x="-27.559" y="-27.559" width="55.118" height="55.118" transform="rotate(180)" id="tool-D16-pad-1036"/><g id="pcb_top-cu" fill="currentColor" stroke="currentColor"><path stroke-width="39.4" fill="none" d="M 1424.8 309.1 L 1424.8 1003.6 M 932.7 301.2 L 932.7 1594.1 M 1229.5 204.4 L 1129.5 304.4 M 629.5 204.4 L 539 294.9 M 1326.4 307.5 L 1326.4 1200.4 M 1720.1 313.8 L 1720.1 413 M 1838.2 586.2 L 1838.2 1570.5 M 929.5 204.4 L 834.3 299.6 M 637.4 296.5 L 637.4 1594.1 M 1129.5 204.4 L 1129.5 86.2 M 440.6 301.4 L 529.5 212.4 M 629.5 86.2 L 629.5 204.4 M 1629.5 204.4 L 1523.2 310.6 M 1629.5 86.2 L 1629.5 204.4 M 1429.5 204.4 L 1326.4 307.5 M 342.1 291.8 L 342.1 1594.1 M 834.3 299.6 L 834.3 1594.1 M 1729.5 204.4 L 1729.5 86.2 M 1542.9 1570.5 L 1542.9 1176.8 M 2035.1 389.4 L 2035.1 1570.5 M 1031.1 302.8 L 1031.1 1594.1 M 729.5 204.4 L 637.4 296.5 M 1229.5 86.2 L 1229.5 204.4 M 1029.5 204.4 L 932.7 301.2 M 429.5 204.4 L 429.5 86.2 M 1029.5 86.2 L 1029.5 204.4 M 729.5 204.4 L 729.5 86.2 M 929.5 204.4 L 929.5 86.2 M 429.5 204.4 L 342.1 291.8 M 1829.5 204.4 L 1720.1 313.8 M 735.8 298.1 L 735.8 1594.1 M 829.5 204.4 L 735.8 298.1 M 440.6 301.4 L 440.6 1594.1 M 1329.5 204.4 L 1228 305.9 M 1444.5 1373.6 L 1444.5 1570.5 M 1129.5 304.4 L 1129.5 1594.1 M 1621.7 312.2 L 1621.7 609.9 M 1641.4 979.9 L 1641.4 1570.5 M 1228 305.9 L 1228 1397.3 M 1523.2 310.6 L 1523.2 806.7 M 1829.5 86.2 L 1829.5 204.4 M 1739.8 783.1 L 1739.8 1570.5 M 1429.5 86.2 L 1429.5 204.4 M 1936.6 389.4 L 1936.6 1570.5 M 1529.5 204.4 L 1529.5 86.2 M 1529.5 204.4 L 1424.8 309.1 M 1729.5 204.4 L 1621.7 312.2 M 529.5 86.2 L 529.5 204.4 M 1129.5 204.4 L 1031.1 302.8 M 1329.5 204.4 L 1329.5 86.2 M 829.5 86.2 L 829.5 204.4 M 539 294.9 L 539 1594.1"/><use x="165" y="165" xlink:href="#tool-D11-pad-1020"/><use x="529.5" y="86.2" xlink:href="#tool-D12-pad-1021"/><use x="629.5" y="86.2" xlink:href="#tool-D12-pad-1021"/><use x="729.5" y="86.2" xlink:href="#tool-D12-pad-1021"/><use x="829.5" y="86.2" xlink:href="#tool-D12-pad-1021"/><use x="929.5" y="86.2" xlink:href="#tool-D12-pad-1021"/><use x="1029.5" y="86.2" xlink:href="#tool-D12-pad-1021"/><use x="1129.5" y="86.2" xlink:href="#tool-D12-pad-1021"/><use x="1229.5" y="86.2" xlink:href="#tool-D12-pad-1021"/><use x="1329.5" y="86.2" xlink:href="#tool-D12-pad-1021"/><use x="1429.5" y="86.2" xlink:href="#tool-D12-pad-1021"/><use x="1529.5" y="86.2" xlink:href="#tool-D12-pad-1021"/><use x="1629.5" y="86.2" xlink:href="#tool-D12-pad-1021"/><use x="1729.5" y="86.2" xlink:href="#tool-D12-pad-1021"/><use x="1829.5" y="86.2" xlink:href="#tool-D12-pad-1021"/><use x="429.5" y="86.2" xlink:href="#tool-D13-pad-1022"/><use x="342.1" y="413" xlink:href="#tool-D14-pad-1023"/><use x="440.6" y="413" xlink:href="#tool-D15-pad-1024"/><use x="539" y="413" xlink:href="#tool-D15-pad-1024"/><use x="637.4" y="413" xlink:href="#tool-D15-pad-1024"/><use x="735.8" y="413" xlink:href="#tool-D15-pad-1024"/><use x="834.3" y="413" xlink:href="#tool-D15-pad-1024"/><use x="932.7" y="413" xlink:href="#tool-D15-pad-1024"/><use x="1031.1" y="413" xlink:href="#tool-D15-pad-1024"/><use x="1129.5" y="413" xlink:href="#tool-D15-pad-1024"/><use x="1228" y="413" xlink:href="#tool-D15-pad-1024"/><use x="1326.4" y="413" xlink:href="#tool-D15-pad-1024"/><use x="1424.8" y="413" xlink:href="#tool-D15-pad-1024"/><use x="1523.2" y="413" xlink:href="#tool-D15-pad-1024"/><use x="1621.7" y="413" xlink:href="#tool-D15-pad-1024"/><use x="1720.1" y="413" xlink:href="#tool-D15-pad-1024"/><use x="1936.6" y="1570.5" xlink:href="#tool-D16-pad-1025"/><use x="1838.2" y="1570.5" xlink:href="#tool-D16-pad-1025"/><use x="1739.8" y="1570.5" xlink:href="#tool-D16-pad-1025"/><use x="1641.4" y="1570.5" xlink:href="#tool-D16-pad-1025"/><use x="1542.9" y="1570.5" xlink:href="#tool-D16-pad-1025"/><use x="1444.5" y="1570.5" xlink:href="#tool-D16-pad-1025"/><use x="1346.1" y="1570.5" xlink:href="#tool-D16-pad-1025"/><use x="2035.1" y="1570.5" xlink:href="#tool-D17-pad-1026"/><use x="1936.6" y="1373.6" xlink:href="#tool-D16-pad-1025"/><use x="1838.2" y="1373.6" xlink:href="#tool-D16-pad-1025"/><use x="1739.8" y="1373.6" xlink:href="#tool-D16-pad-1025"/><use x="1641.4" y="1373.6" xlink:href="#tool-D16-pad-1025"/><use x="1542.9" y="1373.6" xlink:href="#tool-D16-pad-1025"/><use x="1444.5" y="1373.6" xlink:href="#tool-D16-pad-1025"/><use x="2035.1" y="1373.6" xlink:href="#tool-D17-pad-1026"/><use x="1936.6" y="389.4" xlink:href="#tool-D16-pad-1025"/><use x="2035.1" y="389.4" xlink:href="#tool-D17-pad-1026"/><use x="1936.6" y="586.2" xlink:href="#tool-D16-pad-1025"/><use x="1838.2" y="586.2" xlink:href="#tool-D16-pad-1025"/><use x="2035.1" y="586.2" xlink:href="#tool-D17-pad-1026"/><use x="342.1" y="1003.6" xlink:href="#tool-D14-pad-1023"/><use x="440.6" y="1003.6" xlink:href="#tool-D15-pad-1024"/><use x="539" y="1003.6" xlink:href="#tool-D15-pad-1024"/><use x="637.4" y="1003.6" xlink:href="#tool-D15-pad-1024"/><use x="735.8" y="1003.6" xlink:href="#tool-D15-pad-1024"/><use x="834.3" y="1003.6" xlink:href="#tool-D15-pad-1024"/><use x="932.7" y="1003.6" xlink:href="#tool-D15-pad-1024"/><use x="1031.1" y="1003.6" xlink:href="#tool-D15-pad-1024"/><use x="1129.5" y="1003.6" xlink:href="#tool-D15-pad-1024"/><use x="1228" y="1003.6" xlink:href="#tool-D15-pad-1024"/><use x="1326.4" y="1003.6" xlink:href="#tool-D15-pad-1024"/><use x="1424.8" y="1003.6" xlink:href="#tool-D15-pad-1024"/><use x="1936.6" y="1176.8" xlink:href="#tool-D16-pad-1025"/><use x="1838.2" y="1176.8" xlink:href="#tool-D16-pad-1025"/><use x="1739.8" y="1176.8" xlink:href="#tool-D16-pad-1025"/><use x="1641.4" y="1176.8" xlink:href="#tool-D16-pad-1025"/><use x="1542.9" y="1176.8" xlink:href="#tool-D16-pad-1025"/><use x="2035.1" y="1176.8" xlink:href="#tool-D17-pad-1026"/><use x="342.1" y="609.9" xlink:href="#tool-D14-pad-1023"/><use x="440.6" y="609.9" xlink:href="#tool-D15-pad-1024"/><use x="539" y="609.9" xlink:href="#tool-D15-pad-1024"/><use x="637.4" y="609.9" xlink:href="#tool-D15-pad-1024"/><use x="735.8" y="609.9" xlink:href="#tool-D15-pad-1024"/><use x="834.3" y="609.9" xlink:href="#tool-D15-pad-1024"/><use x="932.7" y="609.9" xlink:href="#tool-D15-pad-1024"/><use x="1031.1" y="609.9" xlink:href="#tool-D15-pad-1024"/><use x="1129.5" y="609.9" xlink:href="#tool-D15-pad-1024"/><use x="1228" y="609.9" xlink:href="#tool-D15-pad-1024"/><use x="1326.4" y="609.9" xlink:href="#tool-D15-pad-1024"/><use x="1424.8" y="609.9" xlink:href="#tool-D15-pad-1024"/><use x="1523.2" y="609.9" xlink:href="#tool-D15-pad-1024"/><use x="1621.7" y="609.9" xlink:href="#tool-D15-pad-1024"/><use x="1936.6" y="783.1" xlink:href="#tool-D16-pad-1025"/><use x="1838.2" y="783.1" xlink:href="#tool-D16-pad-1025"/><use x="1739.8" y="783.1" xlink:href="#tool-D16-pad-1025"/><use x="2035.1" y="783.1" xlink:href="#tool-D17-pad-1026"/><use x="529.5" y="204.4" xlink:href="#tool-D12-pad-1021"/><use x="629.5" y="204.4" xlink:href="#tool-D12-pad-1021"/><use x="729.5" y="204.4" xlink:href="#tool-D12-pad-1021"/><use x="829.5" y="204.4" xlink:href="#tool-D12-pad-1021"/><use x="929.5" y="204.4" xlink:href="#tool-D12-pad-1021"/><use x="1029.5" y="204.4" xlink:href="#tool-D12-pad-1021"/><use x="1129.5" y="204.4" xlink:href="#tool-D12-pad-1021"/><use x="1229.5" y="204.4" xlink:href="#tool-D12-pad-1021"/><use x="1329.5" y="204.4" xlink:href="#tool-D12-pad-1021"/><use x="1429.5" y="204.4" xlink:href="#tool-D12-pad-1021"/><use x="1529.5" y="204.4" xlink:href="#tool-D12-pad-1021"/><use x="1629.5" y="204.4" xlink:href="#tool-D12-pad-1021"/><use x="1729.5" y="204.4" xlink:href="#tool-D12-pad-1021"/><use x="1829.5" y="204.4" xlink:href="#tool-D12-pad-1021"/><use x="429.5" y="204.4" xlink:href="#tool-D13-pad-1022"/><use x="2212.2" y="165" xlink:href="#tool-D11-pad-1020"/><use x="342.1" y="806.7" xlink:href="#tool-D14-pad-1023"/><use x="440.6" y="806.7" xlink:href="#tool-D15-pad-1024"/><use x="539" y="806.7" xlink:href="#tool-D15-pad-1024"/><use x="637.4" y="806.7" xlink:href="#tool-D15-pad-1024"/><use x="735.8" y="806.7" xlink:href="#tool-D15-pad-1024"/><use x="834.3" y="806.7" xlink:href="#tool-D15-pad-1024"/><use x="932.7" y="806.7" xlink:href="#tool-D15-pad-1024"/><use x="1031.1" y="806.7" xlink:href="#tool-D15-pad-1024"/><use x="1129.5" y="806.7" xlink:href="#tool-D15-pad-1024"/><use x="1228" y="806.7" xlink:href="#tool-D15-pad-1024"/><use x="1326.4" y="806.7" xlink:href="#tool-D15-pad-1024"/><use x="1424.8" y="806.7" xlink:href="#tool-D15-pad-1024"/><use x="1523.2" y="806.7" xlink:href="#tool-D15-pad-1024"/><use x="342.1" y="1594.1" xlink:href="#tool-D14-pad-1023"/><use x="440.6" y="1594.1" xlink:href="#tool-D15-pad-1024"/><use x="539" y="1594.1" xlink:href="#tool-D15-pad-1024"/><use x="637.4" y="1594.1" xlink:href="#tool-D15-pad-1024"/><use x="735.8" y="1594.1" xlink:href="#tool-D15-pad-1024"/><use x="834.3" y="1594.1" xlink:href="#tool-D15-pad-1024"/><use x="932.7" y="1594.1" xlink:href="#tool-D15-pad-1024"/><use x="1031.1" y="1594.1" xlink:href="#tool-D15-pad-1024"/><use x="1129.5" y="1594.1" xlink:href="#tool-D15-pad-1024"/><use x="165" y="1818.5" xlink:href="#tool-D11-pad-1020"/><use x="342.1" y="1200.4" xlink:href="#tool-D14-pad-1023"/><use x="440.6" y="1200.4" xlink:href="#tool-D15-pad-1024"/><use x="539" y="1200.4" xlink:href="#tool-D15-pad-1024"/><use x="637.4" y="1200.4" xlink:href="#tool-D15-pad-1024"/><use x="735.8" y="1200.4" xlink:href="#tool-D15-pad-1024"/><use x="834.3" y="1200.4" xlink:href="#tool-D15-pad-1024"/><use x="932.7" y="1200.4" xlink:href="#tool-D15-pad-1024"/><use x="1031.1" y="1200.4" xlink:href="#tool-D15-pad-1024"/><use x="1129.5" y="1200.4" xlink:href="#tool-D15-pad-1024"/><use x="1228" y="1200.4" xlink:href="#tool-D15-pad-1024"/><use x="1326.4" y="1200.4" xlink:href="#tool-D15-pad-1024"/><use x="2212.2" y="1818.5" xlink:href="#tool-D11-pad-1020"/><use x="342.1" y="1397.3" xlink:href="#tool-D14-pad-1023"/><use x="440.6" y="1397.3" xlink:href="#tool-D15-pad-1024"/><use x="539" y="1397.3" xlink:href="#tool-D15-pad-1024"/><use x="637.4" y="1397.3" xlink:href="#tool-D15-pad-1024"/><use x="735.8" y="1397.3" xlink:href="#tool-D15-pad-1024"/><use x="834.3" y="1397.3" xlink:href="#tool-D15-pad-1024"/><use x="932.7" y="1397.3" xlink:href="#tool-D15-pad-1024"/><use x="1031.1" y="1397.3" xlink:href="#tool-D15-pad-1024"/><use x="1129.5" y="1397.3" xlink:href="#tool-D15-pad-1024"/><use x="1228" y="1397.3" xlink:href="#tool-D15-pad-1024"/><use x="1936.6" y="979.9" xlink:href="#tool-D16-pad-1025"/><use x="1838.2" y="979.9" xlink:href="#tool-D16-pad-1025"/><use x="1739.8" y="979.9" xlink:href="#tool-D16-pad-1025"/><use x="1641.4" y="979.9" xlink:href="#tool-D16-pad-1025"/><use x="2035.1" y="979.9" xlink:href="#tool-D17-pad-1026"/></g><mask id="pcb_top_mech-mask" fill="#fff" stroke="#fff" fill-rule="evenodd"><path stroke-width="0" d="M 7.5 7.5 L 7.5 1976 L 2369.7 1976 L 2369.7 7.5 Z"/><g id="pcb_top-drl" fill="#000" stroke="#000"><use x="165" y="165" xlink:href="#tool-T10-pad-1000"/><use x="2212.2" y="165" xlink:href="#tool-T10-pad-1000"/><use x="165" y="1818.5" xlink:href="#tool-T10-pad-1000"/><use x="2212.2" y="1818.5" xlink:href="#tool-T10-pad-1000"/><use x="429.5" y="86.2" xlink:href="#tool-T11-pad-1001"/><use x="529.5" y="86.2" xlink:href="#tool-T11-pad-1001"/><use x="629.5" y="86.2" xlink:href="#tool-T11-pad-1001"/><use x="729.5" y="86.2" xlink:href="#tool-T11-pad-1001"/><use x="829.5" y="86.2" xlink:href="#tool-T11-pad-1001"/><use x="929.5" y="86.2" xlink:href="#tool-T11-pad-1001"/><use x="1029.5" y="86.2" xlink:href="#tool-T11-pad-1001"/><use x="1129.5" y="86.2" xlink:href="#tool-T11-pad-1001"/><use x="1229.5" y="86.2" xlink:href="#tool-T11-pad-1001"/><use x="1329.5" y="86.2" xlink:href="#tool-T11-pad-1001"/><use x="1429.5" y="86.2" xlink:href="#tool-T11-pad-1001"/><use x="1529.5" y="86.2" xlink:href="#tool-T11-pad-1001"/><use x="1629.5" y="86.2" xlink:href="#tool-T11-pad-1001"/><use x="1729.5" y="86.2" xlink:href="#tool-T11-pad-1001"/><use x="1829.5" y="86.2" xlink:href="#tool-T11-pad-1001"/><use x="429.5" y="204.4" xlink:href="#tool-T11-pad-1001"/><use x="529.5" y="204.4" xlink:href="#tool-T11-pad-1001"/><use x="629.5" y="204.4" xlink:href="#tool-T11-pad-1001"/><use x="729.5" y="204.4" xlink:href="#tool-T11-pad-1001"/><use x="829.5" y="204.4" xlink:href="#tool-T11-pad-1001"/><use x="929.5" y="204.4" xlink:href="#tool-T11-pad-1001"/><use x="1029.5" y="204.4" xlink:href="#tool-T11-pad-1001"/><use x="1129.5" y="204.4" xlink:href="#tool-T11-pad-1001"/><use x="1229.5" y="204.4" xlink:href="#tool-T11-pad-1001"/><use x="1329.5" y="204.4" xlink:href="#tool-T11-pad-1001"/><use x="1429.5" y="204.4" xlink:href="#tool-T11-pad-1001"/><use x="1529.5" y="204.4" xlink:href="#tool-T11-pad-1001"/><use x="1629.5" y="204.4" xlink:href="#tool-T11-pad-1001"/><use x="1729.5" y="204.4" xlink:href="#tool-T11-pad-1001"/><use x="1829.5" y="204.4" xlink:href="#tool-T11-pad-1001"/><use x="342.1" y="413" xlink:href="#tool-T12-pad-1002"/><use x="440.6" y="413" xlink:href="#tool-T12-pad-1002"/><use x="539" y="413" xlink:href="#tool-T12-pad-1002"/><use x="637.4" y="413" xlink:href="#tool-T12-pad-1002"/><use x="735.8" y="413" xlink:href="#tool-T12-pad-1002"/><use x="834.3" y="413" xlink:href="#tool-T12-pad-1002"/><use x="932.7" y="413" xlink:href="#tool-T12-pad-1002"/><use x="1031.1" y="413" xlink:href="#tool-T12-pad-1002"/><use x="1129.5" y="413" xlink:href="#tool-T12-pad-1002"/><use x="1228" y="413" xlink:href="#tool-T12-pad-1002"/><use x="1326.4" y="413" xlink:href="#tool-T12-pad-1002"/><use x="1424.8" y="413" xlink:href="#tool-T12-pad-1002"/><use x="1523.2" y="413" xlink:href="#tool-T12-pad-1002"/><use x="1621.7" y="413" xlink:href="#tool-T12-pad-1002"/><use x="1720.1" y="413" xlink:href="#tool-T12-pad-1002"/><use x="342.1" y="1003.6" xlink:href="#tool-T12-pad-1002"/><use x="440.6" y="1003.6" xlink:href="#tool-T12-pad-1002"/><use x="539" y="1003.6" xlink:href="#tool-T12-pad-1002"/><use x="637.4" y="1003.6" xlink:href="#tool-T12-pad-1002"/><use x="735.8" y="1003.6" xlink:href="#tool-T12-pad-1002"/><use x="834.3" y="1003.6" xlink:href="#tool-T12-pad-1002"/><use x="932.7" y="1003.6" xlink:href="#tool-T12-pad-1002"/><use x="1031.1" y="1003.6" xlink:href="#tool-T12-pad-1002"/><use x="1129.5" y="1003.6" xlink:href="#tool-T12-pad-1002"/><use x="1228" y="1003.6" xlink:href="#tool-T12-pad-1002"/><use x="1326.4" y="1003.6" xlink:href="#tool-T12-pad-1002"/><use x="1424.8" y="1003.6" xlink:href="#tool-T12-pad-1002"/><use x="342.1" y="609.9" xlink:href="#tool-T12-pad-1002"/><use x="440.6" y="609.9" xlink:href="#tool-T12-pad-1002"/><use x="539" y="609.9" xlink:href="#tool-T12-pad-1002"/><use x="637.4" y="609.9" xlink:href="#tool-T12-pad-1002"/><use x="735.8" y="609.9" xlink:href="#tool-T12-pad-1002"/><use x="834.3" y="609.9" xlink:href="#tool-T12-pad-1002"/><use x="932.7" y="609.9" xlink:href="#tool-T12-pad-1002"/><use x="1031.1" y="609.9" xlink:href="#tool-T12-pad-1002"/><use x="1129.5" y="609.9" xlink:href="#tool-T12-pad-1002"/><use x="1228" y="609.9" xlink:href="#tool-T12-pad-1002"/><use x="1326.4" y="609.9" xlink:href="#tool-T12-pad-1002"/><use x="1424.8" y="609.9" xlink:href="#tool-T12-pad-1002"/><use x="1523.2" y="609.9" xlink:href="#tool-T12-pad-1002"/><use x="1621.7" y="609.9" xlink:href="#tool-T12-pad-1002"/><use x="342.1" y="806.7" xlink:href="#tool-T12-pad-1002"/><use x="440.6" y="806.7" xlink:href="#tool-T12-pad-1002"/><use x="539" y="806.7" xlink:href="#tool-T12-pad-1002"/><use x="637.4" y="806.7" xlink:href="#tool-T12-pad-1002"/><use x="735.8" y="806.7" xlink:href="#tool-T12-pad-1002"/><use x="834.3" y="806.7" xlink:href="#tool-T12-pad-1002"/><use x="932.7" y="806.7" xlink:href="#tool-T12-pad-1002"/><use x="1031.1" y="806.7" xlink:href="#tool-T12-pad-1002"/><use x="1129.5" y="806.7" xlink:href="#tool-T12-pad-1002"/><use x="1228" y="806.7" xlink:href="#tool-T12-pad-1002"/><use x="1326.4" y="806.7" xlink:href="#tool-T12-pad-1002"/><use x="1424.8" y="806.7" xlink:href="#tool-T12-pad-1002"/><use x="1523.2" y="806.7" xlink:href="#tool-T12-pad-1002"/><use x="342.1" y="1594.1" xlink:href="#tool-T12-pad-1002"/><use x="440.6" y="1594.1" xlink:href="#tool-T12-pad-1002"/><use x="539" y="1594.1" xlink:href="#tool-T12-pad-1002"/><use x="637.4" y="1594.1" xlink:href="#tool-T12-pad-1002"/><use x="735.8" y="1594.1" xlink:href="#tool-T12-pad-1002"/><use x="834.3" y="1594.1" xlink:href="#tool-T12-pad-1002"/><use x="932.7" y="1594.1" xlink:href="#tool-T12-pad-1002"/><use x="1031.1" y="1594.1" xlink:href="#tool-T12-pad-1002"/><use x="1129.5" y="1594.1" xlink:href="#tool-T12-pad-1002"/><use x="342.1" y="1200.4" xlink:href="#tool-T12-pad-1002"/><use x="440.6" y="1200.4" xlink:href="#tool-T12-pad-1002"/><use x="539" y="1200.4" xlink:href="#tool-T12-pad-1002"/><use x="637.4" y="1200.4" xlink:href="#tool-T12-pad-1002"/><use x="735.8" y="1200.4" xlink:href="#tool-T12-pad-1002"/><use x="834.3" y="1200.4" xlink:href="#tool-T12-pad-1002"/><use x="932.7" y="1200.4" xlink:href="#tool-T12-pad-1002"/><use x="1031.1" y="1200.4" xlink:href="#tool-T12-pad-1002"/><use x="1129.5" y="1200.4" xlink:href="#tool-T12-pad-1002"/><use x="1228" y="1200.4" xlink:href="#tool-T12-pad-1002"/><use x="1326.4" y="1200.4" xlink:href="#tool-T12-pad-1002"/><use x="342.1" y="1397.3" xlink:href="#tool-T12-pad-1002"/><use x="440.6" y="1397.3" xlink:href="#tool-T12-pad-1002"/><use x="539" y="1397.3" xlink:href="#tool-T12-pad-1002"/><use x="637.4" y="1397.3" xlink:href="#tool-T12-pad-1002"/><use x="735.8" y="1397.3" xlink:href="#tool-T12-pad-1002"/><use x="834.3" y="1397.3" xlink:href="#tool-T12-pad-1002"/><use x="932.7" y="1397.3" xlink:href="#tool-T12-pad-1002"/><use x="1031.1" y="1397.3" xlink:href="#tool-T12-pad-1002"/><use x="1129.5" y="1397.3" xlink:href="#tool-T12-pad-1002"/><use x="1228" y="1397.3" xlink:href="#tool-T12-pad-1002"/><use x="2035.1" y="1570.5" xlink:href="#tool-T13-pad-1003"/><use x="1936.6" y="1570.5" xlink:href="#tool-T13-pad-1003"/><use x="1838.2" y="1570.5" xlink:href="#tool-T13-pad-1003"/><use x="1739.8" y="1570.5" xlink:href="#tool-T13-pad-1003"/><use x="1641.4" y="1570.5" xlink:href="#tool-T13-pad-1003"/><use x="1542.9" y="1570.5" xlink:href="#tool-T13-pad-1003"/><use x="1444.5" y="1570.5" xlink:href="#tool-T13-pad-1003"/><use x="1346.1" y="1570.5" xlink:href="#tool-T13-pad-1003"/><use x="2035.1" y="1373.6" xlink:href="#tool-T13-pad-1003"/><use x="1936.6" y="1373.6" xlink:href="#tool-T13-pad-1003"/><use x="1838.2" y="1373.6" xlink:href="#tool-T13-pad-1003"/><use x="1739.8" y="1373.6" xlink:href="#tool-T13-pad-1003"/><use x="1641.4" y="1373.6" xlink:href="#tool-T13-pad-1003"/><use x="1542.9" y="1373.6" xlink:href="#tool-T13-pad-1003"/><use x="1444.5" y="1373.6" xlink:href="#tool-T13-pad-1003"/><use x="2035.1" y="389.4" xlink:href="#tool-T13-pad-1003"/><use x="1936.6" y="389.4" xlink:href="#tool-T13-pad-1003"/><use x="2035.1" y="586.2" xlink:href="#tool-T13-pad-1003"/><use x="1936.6" y="586.2" xlink:href="#tool-T13-pad-1003"/><use x="1838.2" y="586.2" xlink:href="#tool-T13-pad-1003"/><use x="2035.1" y="1176.8" xlink:href="#tool-T13-pad-1003"/><use x="1936.6" y="1176.8" xlink:href="#tool-T13-pad-1003"/><use x="1838.2" y="1176.8" xlink:href="#tool-T13-pad-1003"/><use x="1739.8" y="1176.8" xlink:href="#tool-T13-pad-1003"/><use x="1641.4" y="1176.8" xlink:href="#tool-T13-pad-1003"/><use x="1542.9" y="1176.8" xlink:href="#tool-T13-pad-1003"/><use x="2035.1" y="783.1" xlink:href="#tool-T13-pad-1003"/><use x="1936.6" y="783.1" xlink:href="#tool-T13-pad-1003"/><use x="1838.2" y="783.1" xlink:href="#tool-T13-pad-1003"/><use x="1739.8" y="783.1" xlink:href="#tool-T13-pad-1003"/><use x="2035.1" y="979.9" xlink:href="#tool-T13-pad-1003"/><use x="1936.6" y="979.9" xlink:href="#tool-T13-pad-1003"/><use x="1838.2" y="979.9" xlink:href="#tool-T13-pad-1003"/><use x="1739.8" y="979.9" xlink:href="#tool-T13-pad-1003"/><use x="1641.4" y="979.9" xlink:href="#tool-T13-pad-1003"/></g></mask></defs><g mask="url(#pcb_top_mech-mask)" transform="translate(0,1983.5) scale(1,-1)"><rect x="7.5" y="7.5" width="2362.2" height="1968.5" fill="currentColor" class="pcb_board-fr4"/><use class="pcb_board-cu" xlink:href="#pcb_top-cu"/><g><defs><g id="pcb_top-sm" fill="currentColor" stroke="currentColor"><use x="165" y="165" xlink:href="#tool-D10-pad-1030"/><use x="529.5" y="86.2" xlink:href="#tool-D11-pad-1031"/><use x="629.5" y="86.2" xlink:href="#tool-D11-pad-1031"/><use x="729.5" y="86.2" xlink:href="#tool-D11-pad-1031"/><use x="829.5" y="86.2" xlink:href="#tool-D11-pad-1031"/><use x="929.5" y="86.2" xlink:href="#tool-D11-pad-1031"/><use x="1029.5" y="86.2" xlink:href="#tool-D11-pad-1031"/><use x="1129.5" y="86.2" xlink:href="#tool-D11-pad-1031"/><use x="1229.5" y="86.2" xlink:href="#tool-D11-pad-1031"/><use x="1329.5" y="86.2" xlink:href="#tool-D11-pad-1031"/><use x="1429.5" y="86.2" xlink:href="#tool-D11-pad-1031"/><use x="1529.5" y="86.2" xlink:href="#tool-D11-pad-1031"/><use x="1629.5" y="86.2" xlink:href="#tool-D11-pad-1031"/><use x="1729.5" y="86.2" xlink:href="#tool-D11-pad-1031"/><use x="1829.5" y="86.2" xlink:href="#tool-D11-pad-1031"/><use x="429.5" y="86.2" xlink:href="#tool-D12-pad-1032"/><use x="342.1" y="413" xlink:href="#tool-D13-pad-1033"/><use x="440.6" y="413" xlink:href="#tool-D14-pad-1034"/><use x="539" y="413" xlink:href="#tool-D14-pad-1034"/><use x="637.4" y="413" xlink:href="#tool-D14-pad-1034"/><use x="735.8" y="413" xlink:href="#tool-D14-pad-1034"/><use x="834.3" y="413" xlink:href="#tool-D14-pad-1034"/><use x="932.7" y="413" xlink:href="#tool-D14-pad-1034"/><use x="1031.1" y="413" xlink:href="#tool-D14-pad-1034"/><use x="1129.5" y="413" xlink:href="#tool-D14-pad-1034"/><use x="1228" y="413" xlink:href="#tool-D14-pad-1034"/><use x="1326.4" y="413" xlink:href="#tool-D14-pad-1034"/><use x="1424.8" y="413" xlink:href="#tool-D14-pad-1034"/><use x="1523.2" y="413" xlink:href="#tool-D14-pad-1034"/><use x="1621.7" y="413" xlink:href="#tool-D14-pad-1034"/><use x="1720.1" y="413" xlink:href="#tool-D14-pad-1034"/><use x="1936.6" y="1570.5" xlink:href="#tool-D15-pad-1035"/><use x="1838.2" y="1570.5" xlink:href="#tool-D15-pad-1035"/><use x="1739.8" y="1570.5" xlink:href="#tool-D15-pad-1035"/><use x="1641.4" y="1570.5" xlink:href="#tool-D15-pad-1035"/><use x="1542.9" y="1570.5" xlink:href="#tool-D15-pad-1035"/><use x="1444.5" y="1570.5" xlink:href="#tool-D15-pad-1035"/><use x="1346.1" y="1570.5" xlink:href="#tool-D15-pad-1035"/><use x="2035.1" y="1570.5" xlink:href="#tool-D16-pad-1036"/><use x="1936.6" y="1373.6" xlink:href="#tool-D15-pad-1035"/><use x="1838.2" y="1373.6" xlink:href="#tool-D15-pad-1035"/><use x="1739.8" y="1373.6" xlink:href="#tool-D15-pad-1035"/><use x="1641.4" y="1373.6" xlink:href="#tool-D15-pad-1035"/><use x="1542.9" y="1373.6" xlink:href="#tool-D15-pad-1035"/><use x="1444.5" y="1373.6" xlink:href="#tool-D15-pad-1035"/><use x="2035.1" y="1373.6" xlink:href="#tool-D16-pad-1036"/><use x="1936.6" y="389.4" xlink:href="#tool-D15-pad-1035"/><use x="2035.1" y="389.4" xlink:href="#tool-D16-pad-1036"/><use x="1936.6" y="586.2" xlink:href="#tool-D15-pad-1035"/><use x="1838.2" y="586.2" xlink:href="#tool-D15-pad-1035"/><use x="2035.1" y="586.2" xlink:href="#tool-D16-pad-1036"/><use x="342.1" y="1003.6" xlink:href="#tool-D13-pad-1033"/><use x="440.6" y="1003.6" xlink:href="#tool-D14-pad-1034"/><use x="539" y="1003.6" xlink:href="#tool-D14-pad-1034"/><use x="637.4" y="1003.6" xlink:href="#tool-D14-pad-1034"/><use x="735.8" y="1003.6" xlink:href="#tool-D14-pad-1034"/><use x="834.3" y="1003.6" xlink:href="#tool-D14-pad-1034"/><use x="932.7" y="1003.6" xlink:href="#tool-D14-pad-1034"/><use x="1031.1" y="1003.6" xlink:href="#tool-D14-pad-1034"/><use x="1129.5" y="1003.6" xlink:href="#tool-D14-pad-1034"/><use x="1228" y="1003.6" xlink:href="#tool-D14-pad-1034"/><use x="1326.4" y="1003.6" xlink:href="#tool-D14-pad-1034"/><use x="1424.8" y="1003.6" xlink:href="#tool-D14-pad-1034"/><use x="1936.6" y="1176.8" xlink:href="#tool-D15-pad-1035"/><use x="1838.2" y="1176.8" xlink:href="#tool-D15-pad-1035"/><use x="1739.8" y="1176.8" xlink:href="#tool-D15-pad-1035"/><use x="1641.4" y="1176.8" xlink:href="#tool-D15-pad-1035"/><use x="1542.9" y="1176.8" xlink:href="#tool-D15-pad-1035"/><use x="2035.1" y="1176.8" xlink:href="#tool-D16-pad-1036"/><use x="342.1" y="609.9" xlink:href="#tool-D13-pad-1033"/><use x="440.6" y="609.9" xlink:href="#tool-D14-pad-1034"/><use x="539" y="609.9" xlink:href="#tool-D14-pad-1034"/><use x="637.4" y="609.9" xlink:href="#tool-D14-pad-1034"/><use x="735.8" y="609.9" xlink:href="#tool-D14-pad-1034"/><use x="834.3" y="609.9" xlink:href="#tool-D14-pad-1034"/><use x="932.7" y="609.9" xlink:href="#tool-D14-pad-1034"/><use x="1031.1" y="609.9" xlink:href="#tool-D14-pad-1034"/><use x="1129.5" y="609.9" xlink:href="#tool-D14-pad-1034"/><use x="1228" y="609.9" xlink:href="#tool-D14-pad-1034"/><use x="1326.4" y="609.9" xlink:href="#tool-D14-pad-1034"/><use x="1424.8" y="609.9" xlink:href="#tool-D14-pad-1034"/><use x="1523.2" y="609.9" xlink:href="#tool-D14-pad-1034"/><use x="1621.7" y="609.9" xlink:href="#tool-D14-pad-1034"/><use x="1936.6" y="783.1" xlink:href="#tool-D15-pad-1035"/><use x="1838.2" y="783.1" xlink:href="#tool-D15-pad-1035"/><use x="1739.8" y="783.1" xlink:href="#tool-D15-pad-1035"/><use x="2035.1" y="783.1" xlink:href="#tool-D16-pad-1036"/><use x="529.5" y="204.4" xlink:href="#tool-D11-pad-1031"/><use x="629.5" y="204.4" xlink:href="#tool-D11-pad-1031"/><use x="729.5" y="204.4" xlink:href="#tool-D11-pad-1031"/><use x="829.5" y="204.4" xlink:href="#tool-D11-pad-1031"/><use x="929.5" y="204.4" xlink:href="#tool-D11-pad-1031"/><use x="1029.5" y="204.4" xlink:href="#tool-D11-pad-1031"/><use x="1129.5" y="204.4" xlink:href="#tool-D11-pad-1031"/><use x="1229.5" y="204.4" xlink:href="#tool-D11-pad-1031"/><use x="1329.5" y="204.4" xlink:href="#tool-D11-pad-1031"/><use x="1429.5" y="204.4" xlink:href="#tool-D11-pad-1031"/><use x="1529.5" y="204.4" xlink:href="#tool-D11-pad-1031"/><use x="1629.5" y="204.4" xlink:href="#tool-D11-pad-1031"/><use x="1729.5" y="204.4" xlink:href="#tool-D11-pad-1031"/><use x="1829.5" y="204.4" xlink:href="#tool-D11-pad-1031"/><use x="429.5" y="204.4" xlink:href="#tool-D12-pad-1032"/><use x="2212.2" y="165" xlink:href="#tool-D10-pad-1030"/><use x="342.1" y="806.7" xlink:href="#tool-D13-pad-1033"/><use x="440.6" y="806.7" xlink:href="#tool-D14-pad-1034"/><use x="539" y="806.7" xlink:href="#tool-D14-pad-1034"/><use x="637.4" y="806.7" xlink:href="#tool-D14-pad-1034"/><use x="735.8" y="806.7" xlink:href="#tool-D14-pad-1034"/><use x="834.3" y="806.7" xlink:href="#tool-D14-pad-1034"/><use x="932.7" y="806.7" xlink:href="#tool-D14-pad-1034"/><use x="1031.1" y="806.7" xlink:href="#tool-D14-pad-1034"/><use x="1129.5" y="806.7" xlink:href="#tool-D14-pad-1034"/><use x="1228" y="806.7" xlink:href="#tool-D14-pad-1034"/><use x="1326.4" y="806.7" xlink:href="#tool-D14-pad-1034"/><use x="1424.8" y="806.7" xlink:href="#tool-D14-pad-1034"/><use x="1523.2" y="806.7" xlink:href="#tool-D14-pad-1034"/><use x="342.1" y="1594.1" xlink:href="#tool-D13-pad-1033"/><use x="440.6" y="1594.1" xlink:href="#tool-D14-pad-1034"/><use x="539" y="1594.1" xlink:href="#tool-D14-pad-1034"/><use x="637.4" y="1594.1" xlink:href="#tool-D14-pad-1034"/><use x="735.8" y="1594.1" xlink:href="#tool-D14-pad-1034"/><use x="834.3" y="1594.1" xlink:href="#tool-D14-pad-1034"/><use x="932.7" y="1594.1" xlink:href="#tool-D14-pad-1034"/><use x="1031.1" y="1594.1" xlink:href="#tool-D14-pad-1034"/><use x="1129.5" y="1594.1" xlink:href="#tool-D14-pad-1034"/><use x="165" y="1818.5" xlink:href="#tool-D10-pad-1030"/><use x="342.1" y="1200.4" xlink:href="#tool-D13-pad-1033"/><use x="440.6" y="1200.4" xlink:href="#tool-D14-pad-1034"/><use x="539" y="1200.4" xlink:href="#tool-D14-pad-1034"/><use x="637.4" y="1200.4" xlink:href="#tool-D14-pad-1034"/><use x="735.8" y="1200.4" xlink:href="#tool-D14-pad-1034"/><use x="834.3" y="1200.4" xlink:href="#tool-D14-pad-1034"/><use x="932.7" y="1200.4" xlink:href="#tool-D14-pad-1034"/><use x="1031.1" y="1200.4" xlink:href="#tool-D14-pad-1034"/><use x="1129.5" y="1200.4" xlink:href="#tool-D14-pad-1034"/><use x="1228" y="1200.4" xlink:href="#tool-D14-pad-1034"/><use x="1326.4" y="1200.4" xlink:href="#tool-D14-pad-1034"/><use x="2212.2" y="1818.5" xlink:href="#tool-D10-pad-1030"/><use x="342.1" y="1397.3" xlink:href="#tool-D13-pad-1033"/><use x="440.6" y="1397.3" xlink:href="#tool-D14-pad-1034"/><use x="539" y="1397.3" xlink:href="#tool-D14-pad-1034"/><use x="637.4" y="1397.3" xlink:href="#tool-D14-pad-1034"/><use x="735.8" y="1397.3" xlink:href="#tool-D14-pad-1034"/><use x="834.3" y="1397.3" xlink:href="#tool-D14-pad-1034"/><use x="932.7" y="1397.3" xlink:href="#tool-D14-pad-1034"/><use x="1031.1" y="1397.3" xlink:href="#tool-D14-pad-1034"/><use x="1129.5" y="1397.3" xlink:href="#tool-D14-pad-1034"/><use x="1228" y="1397.3" xlink:href="#tool-D14-pad-1034"/><use x="1936.6" y="979.9" xlink:href="#tool-D15-pad-1035"/><use x="1838.2" y="979.9" xlink:href="#tool-D15-pad-1035"/><use x="1739.8" y="979.9" xlink:href="#tool-D15-pad-1035"/><use x="1641.4" y="979.9" xlink:href="#tool-D15-pad-1035"/><use x="2035.1" y="979.9" xlink:href="#tool-D16-pad-1036"/></g><mask id="pcb_top-sm_mask" color="#000"><rect x="7.5" y="7.5" width="2362.2" height="1968.5" fill="#fff"/><use xlink:href="#pcb_top-sm"/></mask><mask id="pcb_top-cu_finish-mask" color="#fff"><use xlink:href="#pcb_top-cu"/></mask></defs><g mask="url(#pcb_top-sm_mask)"><rect x="7.5" y="7.5" width="2362.2" height="1968.5" fill="currentColor" class="pcb_board-sm"/><g id="pcb_top-ss" class="pcb_board-ss" fill="currentColor" stroke="currentColor"><path stroke-width="5.9" fill="none" d="M 243.7 326.4 L 243.7 476 M 243.7 476 L 1818.5 476 M 1818.5 476 L 1818.5 326.4 M 1818.5 326.4 L 243.7 326.4"/><use x="219.1" y="413" xlink:href="#tool-D11-pad-1028"/><path d="M 148.4 349.2 L 151.8 349.6 L 151.9 348.1 L 152.1 346.9 L 152.5 345.9 L 153 345.2 L 153.6 344.7 L 154.3 344.3 L 155.1 344.1 L 156 344 L 156.6 344 L 157.3 344.2 L 157.9 344.4 L 158.4 344.7 L 158.8 345 L 159.2 345.4 L 159.5 345.9 L 159.8 346.4 L 159.9 347 L 160.1 347.8 L 160.1 348.8 L 160.2 349.9 L 160.2 369.4 L 163.9 369.4 L 163.9 350.1 L 163.8 348.5 L 163.7 347 L 163.4 345.7 L 163.1 344.7 L 162.5 343.8 L 161.9 342.9 L 161.2 342.3 L 160.3 341.7 L 159.4 341.2 L 158.3 340.9 L 157.2 340.7 L 156 340.7 L 154.2 340.8 L 152.7 341.2 L 151.4 341.9 L 150.3 342.8 L 149.4 344 L 148.8 345.5 L 148.5 347.2 L 148.4 349.2 L 148.4 349.2 Z"/><path d="M 181.6 341.2 L 178.2 341.2 L 178.2 363.2 L 177.5 362.6 L 176.7 362 L 175.8 361.4 L 174.9 360.8 L 173.9 360.3 L 173 359.8 L 172.1 359.4 L 171.2 359 L 171.2 362.4 L 172.7 363.1 L 174 363.9 L 175.2 364.7 L 176.3 365.7 L 177.3 366.7 L 178.2 367.6 L 178.8 368.5 L 179.4 369.5 L 181.6 369.5 L 181.6 341.2 L 181.6 341.2 Z"/><path d="M 190.5 348.5 L 194.1 348.8 L 194.4 347.6 L 194.8 346.5 L 195.3 345.6 L 196 344.9 L 196.8 344.3 L 197.6 343.9 L 198.5 343.6 L 199.5 343.5 L 200.7 343.6 L 201.8 344 L 202.9 344.6 L 203.8 345.4 L 204.5 346.4 L 205.1 347.6 L 205.4 348.9 L 205.5 350.4 L 205.4 351.8 L 205.1 353.1 L 204.5 354.2 L 203.8 355.1 L 202.9 355.8 L 201.9 356.4 L 200.8 356.7 L 199.5 356.8 L 198.6 356.8 L 197.9 356.6 L 197.1 356.4 L 196.5 356 L 195.8 355.6 L 195.3 355.2 L 194.8 354.6 L 194.4 354.1 L 191.1 354.5 L 193.8 369 L 207.9 369 L 207.9 365.6 L 196.6 365.6 L 195.1 358.1 L 196.4 358.8 L 197.7 359.4 L 199 359.7 L 200.4 359.9 L 202.2 359.7 L 203.8 359.2 L 205.3 358.4 L 206.6 357.3 L 207.7 355.9 L 208.5 354.4 L 209 352.6 L 209.2 350.7 L 209 348.9 L 208.6 347.1 L 207.9 345.6 L 206.9 344.1 L 205.5 342.6 L 203.7 341.6 L 201.8 340.9 L 199.5 340.7 L 197.7 340.8 L 196 341.2 L 194.5 341.9 L 193.2 342.8 L 192.2 344 L 191.4 345.3 L 190.8 346.9 L 190.5 348.5 L 190.5 348.5 Z"/><path stroke-width="5.9" fill="none" d="M 2133.5 1657.1 L 2133.5 1507.5 M 2133.5 1507.5 L 1247.7 1507.5 M 1247.7 1507.5 L 1247.7 1657.1 M 1247.7 1657.1 L 2133.5 1657.1"/><use x="2158.1" y="1570.5" xlink:href="#tool-D12-pad-1029"/><path d="M 2166.1 1530.3 L 2169.5 1530.7 L 2169.6 1529.2 L 2169.9 1528 L 2170.2 1527 L 2170.7 1526.3 L 2171.3 1525.8 L 2172 1525.4 L 2172.8 1525.2 L 2173.7 1525.1 L 2174.4 1525.1 L 2175 1525.3 L 2175.6 1525.5 L 2176.1 1525.8 L 2176.6 1526.1 L 2176.9 1526.5 L 2177.3 1527 L 2177.5 1527.5 L 2177.7 1528.1 L 2177.8 1528.9 L 2177.9 1529.9 L 2177.9 1531 L 2177.9 1550.5 L 2181.6 1550.5 L 2181.6 1531.2 L 2181.6 1529.6 L 2181.4 1528.1 L 2181.1 1526.8 L 2180.8 1525.8 L 2180.3 1524.9 L 2179.7 1524 L 2178.9 1523.4 L 2178.1 1522.8 L 2177.1 1522.3 L 2176 1522 L 2174.9 1521.8 L 2173.7 1521.8 L 2171.9 1521.9 L 2170.4 1522.3 L 2169.1 1523 L 2168 1523.9 L 2167.1 1525.1 L 2166.6 1526.6 L 2166.2 1528.3 L 2166.1 1530.3 L 2166.1 1530.3 Z"/><path d="M 2191.6 1537.5 L 2192.8 1535.4 L 2192.3 1535.1 L 2191.4 1534.4 L 2190.7 1533.6 L 2190.2 1532.6 L 2189.9 1531.6 L 2189.8 1530.4 L 2189.8 1530.4 L 2189.9 1529.7 L 2190 1529 L 2190.2 1528.2 L 2190.5 1527.5 L 2190.9 1526.9 L 2191.4 1526.3 L 2191.9 1525.8 L 2192.6 1525.4 L 2193.3 1525.1 L 2194 1524.8 L 2194.8 1524.7 L 2195.6 1524.6 L 2196.8 1524.7 L 2197.9 1525 L 2198.8 1525.5 L 2199.7 1526.2 L 2200.4 1527.1 L 2200.9 1528.1 L 2201.2 1529.1 L 2201.3 1530.3 L 2201.2 1531.5 L 2200.9 1532.6 L 2200.4 1533.5 L 2199.6 1534.4 L 2198.8 1535.1 L 2197.8 1535.6 L 2196.7 1536 L 2195.5 1536 L 2194.3 1536 L 2193.2 1535.6 L 2192.8 1535.4 L 2191.6 1537.5 L 2192.9 1539.6 L 2193.7 1539.2 L 2194.6 1539 L 2195.6 1538.9 L 2196.5 1539 L 2197.4 1539.2 L 2198.2 1539.6 L 2198.8 1540.1 L 2199.4 1540.8 L 2199.8 1541.5 L 2200.1 1542.3 L 2200.1 1543.2 L 2200.1 1544.1 L 2199.8 1545 L 2199.4 1545.7 L 2198.8 1546.4 L 2198.1 1547 L 2197.3 1547.4 L 2196.5 1547.6 L 2195.5 1547.7 L 2194.6 1547.6 L 2193.7 1547.4 L 2192.9 1547 L 2192.2 1546.4 L 2191.7 1545.8 L 2191.3 1545.1 L 2191 1544.3 L 2190.9 1543.4 L 2190.9 1543.4 L 2191 1542.5 L 2191.2 1541.6 L 2191.7 1540.8 L 2192.2 1540.1 L 2192.9 1539.6 L 2191.6 1537.5 L 2190.6 1538 L 2189.7 1538.5 L 2189 1539.1 L 2188.4 1539.8 L 2188 1540.6 L 2187.7 1541.4 L 2187.5 1542.3 L 2187.4 1543.3 L 2187.5 1544.8 L 2187.9 1546.1 L 2188.6 1547.3 L 2189.6 1548.5 L 2190.8 1549.4 L 2192.2 1550 L 2193.8 1550.4 L 2195.5 1550.6 L 2197.3 1550.4 L 2198.8 1550 L 2200.2 1549.4 L 2201.4 1548.4 L 2202.4 1547.3 L 2203.1 1546 L 2203.5 1544.7 L 2203.7 1543.2 L 2203.6 1542.3 L 2203.4 1541.4 L 2203.1 1540.5 L 2202.7 1539.8 L 2202.1 1539.1 L 2201.4 1538.5 L 2200.5 1538 L 2199.5 1537.5 L 2200.7 1537.1 L 2201.8 1536.4 L 2202.7 1535.7 L 2203.5 1534.8 L 2204.1 1533.8 L 2204.5 1532.7 L 2204.7 1531.6 L 2204.8 1530.3 L 2204.7 1528.6 L 2204.2 1527 L 2203.4 1525.5 L 2202.3 1524.2 L 2200.9 1523.2 L 2199.3 1522.4 L 2197.5 1521.9 L 2195.5 1521.8 L 2193.6 1521.9 L 2191.8 1522.4 L 2190.2 1523.2 L 2188.8 1524.3 L 2187.7 1525.6 L 2186.9 1527 L 2186.4 1528.6 L 2186.3 1530.4 L 2186.4 1531.8 L 2186.6 1532.9 L 2187 1534 L 2187.7 1535 L 2188.4 1535.9 L 2189.4 1536.6 L 2190.4 1537.1 L 2191.6 1537.5 L 2191.6 1537.5 Z"/><path stroke-width="5.9" fill="none" d="M 2133.5 1460.3 L 2133.5 1310.6 M 2133.5 1310.6 L 1346.1 1310.6 M 1346.1 1310.6 L 1346.1 1460.3 M 1346.1 1460.3 L 2133.5 1460.3"/><use x="2158.1" y="1373.6" xlink:href="#tool-D12-pad-1029"/><path d="M 2166.1 1333.4 L 2169.5 1333.9 L 2169.6 1332.4 L 2169.9 1331.2 L 2170.2 1330.2 L 2170.7 1329.5 L 2171.3 1328.9 L 2172 1328.6 L 2172.8 1328.3 L 2173.7 1328.2 L 2174.4 1328.3 L 2175 1328.4 L 2175.6 1328.6 L 2176.1 1328.9 L 2176.6 1329.3 L 2176.9 1329.7 L 2177.3 1330.1 L 2177.5 1330.6 L 2177.7 1331.3 L 2177.8 1332.1 L 2177.9 1333.1 L 2177.9 1334.2 L 2177.9 1353.6 L 2181.6 1353.6 L 2181.6 1334.4 L 2181.6 1332.7 L 2181.4 1331.2 L 2181.1 1330 L 2180.8 1328.9 L 2180.3 1328 L 2179.7 1327.2 L 2178.9 1326.5 L 2178.1 1326 L 2177.1 1325.5 L 2176 1325.2 L 2174.9 1325 L 2173.7 1324.9 L 2171.9 1325.1 L 2170.4 1325.5 L 2169.1 1326.1 L 2168 1327.1 L 2167.1 1328.2 L 2166.6 1329.7 L 2166.2 1331.4 L 2166.1 1333.4 L 2166.1 1333.4 Z"/><path d="M 2186.5 1349.9 L 2186.5 1353.2 L 2204.8 1353.2 L 2204.8 1350.5 L 2203.4 1349 L 2202.1 1347.2 L 2200.8 1345.2 L 2199.4 1342.9 L 2198.2 1340.5 L 2197.1 1338.1 L 2196.2 1335.6 L 2195.4 1333.2 L 2194.9 1331.4 L 2194.5 1329.5 L 2194.2 1327.5 L 2194 1325.4 L 2190.5 1325.4 L 2190.6 1327.1 L 2190.8 1329.1 L 2191.2 1331.2 L 2191.8 1333.4 L 2192.5 1335.8 L 2193.3 1338.1 L 2194.3 1340.3 L 2195.4 1342.5 L 2196.6 1344.6 L 2197.8 1346.6 L 2199 1348.3 L 2200.3 1349.9 L 2186.5 1349.9 L 2186.5 1349.9 Z"/><path stroke-width="5.9" fill="none" d="M 2133.5 476 L 2133.5 326.4 M 2133.5 326.4 L 1838.2 326.4 M 1838.2 326.4 L 1838.2 476 M 1838.2 476 L 2133.5 476"/><use x="2158.1" y="389.4" xlink:href="#tool-D12-pad-1029"/><path d="M 2166.1 339.3 L 2169.5 339.8 L 2169.6 338.3 L 2169.9 337.1 L 2170.2 336.1 L 2170.7 335.4 L 2171.3 334.8 L 2172 334.5 L 2172.8 334.2 L 2173.7 334.2 L 2174.4 334.2 L 2175 334.3 L 2175.6 334.5 L 2176.1 334.8 L 2176.6 335.2 L 2176.9 335.6 L 2177.3 336 L 2177.5 336.6 L 2177.7 337.2 L 2177.8 338 L 2177.9 339 L 2177.9 340.1 L 2177.9 359.5 L 2181.6 359.5 L 2181.6 340.3 L 2181.6 338.6 L 2181.4 337.1 L 2181.1 335.9 L 2180.8 334.8 L 2180.3 333.9 L 2179.7 333.1 L 2178.9 332.4 L 2178.1 331.9 L 2177.1 331.4 L 2176 331.1 L 2174.9 330.9 L 2173.7 330.8 L 2171.9 331 L 2170.4 331.4 L 2169.1 332 L 2168 333 L 2167.1 334.2 L 2166.6 335.6 L 2166.2 337.3 L 2166.1 339.3 L 2166.1 339.3 Z"/><path d="M 2204.5 334.6 L 2204.5 331.3 L 2185.8 331.3 L 2185.9 331.9 L 2185.9 332.5 L 2186.1 333.1 L 2186.3 333.7 L 2186.7 334.7 L 2187.2 335.6 L 2187.8 336.6 L 2188.5 337.5 L 2189.4 338.4 L 2190.5 339.5 L 2191.7 340.6 L 2193.1 341.8 L 2195.2 343.5 L 2196.9 345.1 L 2198.3 346.5 L 2199.3 347.7 L 2200 348.8 L 2200.5 349.9 L 2200.8 350.9 L 2200.9 351.9 L 2200.8 352.9 L 2200.5 353.8 L 2200.1 354.6 L 2199.4 355.3 L 2198.6 356 L 2197.7 356.4 L 2196.7 356.7 L 2195.6 356.8 L 2194.4 356.7 L 2193.3 356.4 L 2192.4 355.9 L 2191.6 355.3 L 2190.9 354.4 L 2190.5 353.4 L 2190.2 352.3 L 2190.1 351.1 L 2186.5 351.5 L 2186.8 353.3 L 2187.4 355 L 2188.2 356.4 L 2189.3 357.5 L 2190.6 358.4 L 2192.1 359.1 L 2193.8 359.5 L 2195.6 359.6 L 2197.6 359.5 L 2199.3 359 L 2200.8 358.4 L 2202.1 357.4 L 2203.1 356.2 L 2203.8 354.9 L 2204.3 353.4 L 2204.4 351.8 L 2204.4 351 L 2204.3 350.1 L 2204.1 349.3 L 2203.8 348.5 L 2203.4 347.7 L 2202.9 346.8 L 2202.2 345.9 L 2201.5 345 L 2200.5 344 L 2199.3 342.9 L 2197.9 341.6 L 2196.1 340.1 L 2194.7 338.9 L 2193.6 337.9 L 2192.7 337.1 L 2192.1 336.5 L 2191.7 336 L 2191.3 335.6 L 2191 335.1 L 2190.6 334.6 L 2204.5 334.6 L 2204.5 334.6 Z"/><path stroke-width="5.9" fill="none" d="M 2133.5 672.9 L 2133.5 523.2 M 2133.5 523.2 L 1739.8 523.2 M 1739.8 523.2 L 1739.8 672.9 M 1739.8 672.9 L 2133.5 672.9"/><use x="2158.1" y="586.2" xlink:href="#tool-D12-pad-1029"/><path d="M 2166.1 546 L 2169.5 546.5 L 2169.6 545 L 2169.9 543.8 L 2170.2 542.8 L 2170.7 542.1 L 2171.3 541.5 L 2172 541.2 L 2172.8 540.9 L 2173.7 540.8 L 2174.4 540.9 L 2175 541 L 2175.6 541.2 L 2176.1 541.5 L 2176.6 541.9 L 2176.9 542.3 L 2177.3 542.7 L 2177.5 543.2 L 2177.7 543.9 L 2177.8 544.7 L 2177.9 545.6 L 2177.9 546.8 L 2177.9 566.2 L 2181.6 566.2 L 2181.6 547 L 2181.6 545.3 L 2181.4 543.8 L 2181.1 542.6 L 2180.8 541.5 L 2180.3 540.6 L 2179.7 539.8 L 2178.9 539.1 L 2178.1 538.6 L 2177.1 538.1 L 2176 537.8 L 2174.9 537.6 L 2173.7 537.5 L 2171.9 537.7 L 2170.4 538.1 L 2169.1 538.7 L 2168 539.7 L 2167.1 540.8 L 2166.6 542.3 L 2166.2 544 L 2166.1 546 L 2166.1 546 Z"/><path d="M 2186.3 545.5 L 2189.8 545.9 L 2190.1 544.5 L 2190.6 543.4 L 2191.2 542.4 L 2191.8 541.7 L 2192.6 541.1 L 2193.4 540.7 L 2194.3 540.5 L 2195.3 540.4 L 2196.5 540.5 L 2197.5 540.8 L 2198.5 541.3 L 2199.4 542.1 L 2200.1 543 L 2200.7 544 L 2201 545.1 L 2201.1 546.2 L 2201 547.4 L 2200.7 548.4 L 2200.2 549.4 L 2199.5 550.2 L 2198.7 550.9 L 2197.8 551.4 L 2196.8 551.6 L 2195.6 551.8 L 2195.1 551.7 L 2194.5 551.6 L 2193.8 551.5 L 2193.1 551.4 L 2193.5 554.4 L 2193.7 554.4 L 2193.8 554.4 L 2194 554.4 L 2194.1 554.4 L 2195.2 554.4 L 2196.2 554.6 L 2197.1 555 L 2198.1 555.5 L 2198.8 556.2 L 2199.4 557 L 2199.7 557.9 L 2199.8 559.1 L 2199.7 560 L 2199.5 560.8 L 2199.1 561.6 L 2198.6 562.2 L 2197.9 562.8 L 2197.1 563.2 L 2196.2 563.4 L 2195.2 563.4 L 2194.3 563.4 L 2193.4 563.1 L 2192.6 562.7 L 2191.9 562.2 L 2191.2 561.5 L 2190.8 560.6 L 2190.4 559.6 L 2190.1 558.4 L 2186.7 559 L 2187.1 560.6 L 2187.7 562.1 L 2188.5 563.3 L 2189.5 564.4 L 2190.7 565.2 L 2192.1 565.8 L 2193.5 566.2 L 2195.1 566.3 L 2196.3 566.2 L 2197.3 566 L 2198.4 565.8 L 2199.4 565.3 L 2200.3 564.8 L 2201.1 564.2 L 2201.8 563.4 L 2202.3 562.6 L 2202.8 561.8 L 2203.1 560.8 L 2203.3 559.9 L 2203.4 559 L 2203.3 558.1 L 2203.1 557.2 L 2202.9 556.4 L 2202.4 555.6 L 2201.9 554.9 L 2201.2 554.3 L 2200.4 553.8 L 2199.5 553.3 L 2200.7 552.9 L 2201.7 552.4 L 2202.6 551.7 L 2203.4 550.9 L 2204 549.9 L 2204.4 548.8 L 2204.7 547.7 L 2204.8 546.3 L 2204.6 544.5 L 2204.1 542.9 L 2203.2 541.4 L 2202.1 540.1 L 2200.6 539 L 2199 538.2 L 2197.3 537.7 L 2195.3 537.5 L 2193.5 537.7 L 2191.9 538.1 L 2190.4 538.8 L 2189.1 539.7 L 2188 540.9 L 2187.2 542.3 L 2186.6 543.8 L 2186.3 545.5 L 2186.3 545.5 Z"/><path stroke-width="5.9" fill="none" d="M 243.7 916.9 L 243.7 1066.6 M 243.7 1066.6 L 1523.2 1066.6 M 1523.2 1066.6 L 1523.2 916.9 M 1523.2 916.9 L 243.7 916.9"/><use x="219.1" y="1003.6" xlink:href="#tool-D11-pad-1028"/><path d="M 148.4 939.7 L 151.8 940.2 L 151.9 938.7 L 152.1 937.5 L 152.5 936.5 L 153 935.8 L 153.6 935.2 L 154.3 934.9 L 155.1 934.6 L 156 934.5 L 156.6 934.6 L 157.3 934.7 L 157.9 934.9 L 158.4 935.2 L 158.8 935.6 L 159.2 936 L 159.5 936.4 L 159.8 936.9 L 159.9 937.6 L 160.1 938.4 L 160.1 939.4 L 160.2 940.5 L 160.2 959.9 L 163.9 959.9 L 163.9 940.7 L 163.8 939 L 163.7 937.5 L 163.4 936.3 L 163.1 935.2 L 162.5 934.3 L 161.9 933.5 L 161.2 932.8 L 160.3 932.3 L 159.4 931.8 L 158.3 931.5 L 157.2 931.3 L 156 931.2 L 154.2 931.4 L 152.7 931.8 L 151.4 932.4 L 150.3 933.4 L 149.4 934.5 L 148.8 936 L 148.5 937.7 L 148.4 939.7 L 148.4 939.7 Z"/><path d="M 181.6 931.7 L 178.2 931.7 L 178.2 953.8 L 177.5 953.2 L 176.7 952.6 L 175.8 952 L 174.9 951.4 L 173.9 950.8 L 173 950.3 L 172.1 949.9 L 171.2 949.6 L 171.2 952.9 L 172.7 953.6 L 174 954.4 L 175.2 955.3 L 176.3 956.2 L 177.3 957.2 L 178.2 958.2 L 178.8 959.1 L 179.4 960 L 181.6 960 L 181.6 931.7 L 181.6 931.7 Z"/><path d="M 208.7 935 L 208.7 931.7 L 190 931.7 L 190.1 932.3 L 190.1 932.9 L 190.3 933.5 L 190.5 934.1 L 190.8 935.1 L 191.4 936 L 192 936.9 L 192.7 937.9 L 193.6 938.8 L 194.6 939.9 L 195.8 941 L 197.3 942.1 L 199.4 943.9 L 201.1 945.5 L 202.5 946.9 L 203.4 948.1 L 204.2 949.2 L 204.7 950.3 L 205 951.3 L 205.1 952.3 L 205 953.2 L 204.7 954.2 L 204.2 955 L 203.6 955.7 L 202.8 956.4 L 201.9 956.8 L 200.9 957.1 L 199.8 957.1 L 198.6 957.1 L 197.5 956.8 L 196.6 956.3 L 195.8 955.6 L 195.1 954.8 L 194.6 953.8 L 194.4 952.7 L 194.2 951.5 L 190.7 951.9 L 191 953.7 L 191.6 955.4 L 192.4 956.8 L 193.4 957.9 L 194.7 958.8 L 196.2 959.5 L 197.9 959.9 L 199.8 960 L 201.8 959.9 L 203.5 959.4 L 205 958.8 L 206.3 957.8 L 207.3 956.6 L 208.1 955.3 L 208.5 953.8 L 208.6 952.2 L 208.6 951.4 L 208.4 950.5 L 208.2 949.7 L 207.9 948.9 L 207.5 948.1 L 207 947.2 L 206.4 946.3 L 205.6 945.4 L 204.7 944.4 L 203.5 943.3 L 202 941.9 L 200.3 940.5 L 198.9 939.3 L 197.7 938.2 L 196.9 937.5 L 196.3 936.9 L 195.9 936.4 L 195.5 936 L 195.1 935.5 L 194.9 935 L 208.7 935 L 208.7 935 Z"/><path stroke-width="5.9" fill="none" d="M 2133.5 1263.4 L 2133.5 1113.8 M 2133.5 1113.8 L 1444.5 1113.8 M 1444.5 1113.8 L 1444.5 1263.4 M 1444.5 1263.4 L 2133.5 1263.4"/><use x="2158.1" y="1176.8" xlink:href="#tool-D12-pad-1029"/><path d="M 2166.1 1136.6 L 2169.5 1137 L 2169.6 1135.5 L 2169.9 1134.3 L 2170.2 1133.3 L 2170.7 1132.6 L 2171.3 1132.1 L 2172 1131.7 L 2172.8 1131.5 L 2173.7 1131.4 L 2174.4 1131.4 L 2175 1131.6 L 2175.6 1131.8 L 2176.1 1132.1 L 2176.6 1132.4 L 2176.9 1132.8 L 2177.3 1133.3 L 2177.5 1133.8 L 2177.7 1134.4 L 2177.8 1135.2 L 2177.9 1136.2 L 2177.9 1137.3 L 2177.9 1156.8 L 2181.6 1156.8 L 2181.6 1137.5 L 2181.6 1135.9 L 2181.4 1134.4 L 2181.1 1133.1 L 2180.8 1132.1 L 2180.3 1131.2 L 2179.7 1130.3 L 2178.9 1129.7 L 2178.1 1129.1 L 2177.1 1128.6 L 2176 1128.3 L 2174.9 1128.1 L 2173.7 1128.1 L 2171.9 1128.2 L 2170.4 1128.6 L 2169.1 1129.3 L 2168 1130.2 L 2167.1 1131.4 L 2166.6 1132.9 L 2166.2 1134.6 L 2166.1 1136.6 L 2166.1 1136.6 Z"/><path d="M 2204.3 1149.9 L 2200.8 1149.6 L 2200.6 1150.5 L 2200.3 1151.3 L 2199.9 1152 L 2199.5 1152.5 L 2198.8 1153.2 L 2197.9 1153.6 L 2197 1153.9 L 2196 1154 L 2195.3 1154 L 2194.5 1153.8 L 2193.8 1153.5 L 2193.1 1153.1 L 2192.4 1152.4 L 2191.7 1151.6 L 2191.1 1150.7 L 2190.6 1149.6 L 2190.1 1148.4 L 2189.9 1146.8 L 2189.7 1145.1 L 2189.6 1143.1 L 2191.4 1141.7 L 2191 1141.2 L 2190.5 1140.2 L 2190.2 1139 L 2190.1 1137.7 L 2190.1 1137.7 L 2190.2 1136.8 L 2190.3 1135.9 L 2190.6 1135.1 L 2190.9 1134.3 L 2191.3 1133.5 L 2191.8 1132.8 L 2192.4 1132.3 L 2193 1131.8 L 2193.7 1131.4 L 2194.4 1131.1 L 2195.1 1131 L 2195.9 1130.9 L 2196.9 1131 L 2197.9 1131.4 L 2198.8 1131.9 L 2199.6 1132.7 L 2200.3 1133.6 L 2200.8 1134.8 L 2201.1 1136 L 2201.2 1137.5 L 2201.1 1138.9 L 2200.8 1140.1 L 2200.3 1141.2 L 2199.7 1142.1 L 2198.8 1142.9 L 2197.9 1143.4 L 2196.9 1143.7 L 2195.7 1143.8 L 2194.6 1143.7 L 2193.6 1143.4 L 2192.6 1142.9 L 2191.8 1142.1 L 2191.4 1141.7 L 2189.6 1143.1 L 2190.3 1144 L 2191 1144.7 L 2191.8 1145.4 L 2192.7 1145.9 L 2193.6 1146.3 L 2194.5 1146.6 L 2195.5 1146.8 L 2196.4 1146.8 L 2198.1 1146.7 L 2199.6 1146.2 L 2201 1145.4 L 2202.3 1144.3 L 2203.4 1142.9 L 2204.2 1141.4 L 2204.6 1139.6 L 2204.7 1137.7 L 2204.7 1136.4 L 2204.5 1135.1 L 2204.1 1134 L 2203.6 1132.8 L 2203 1131.7 L 2202.3 1130.8 L 2201.4 1130 L 2200.5 1129.3 L 2199.4 1128.8 L 2198.3 1128.4 L 2197.2 1128.2 L 2195.9 1128.1 L 2193.9 1128.3 L 2192 1128.9 L 2190.3 1129.9 L 2188.9 1131.3 L 2187.7 1133.1 L 2186.8 1135.5 L 2186.3 1138.4 L 2186.2 1141.8 L 2186.3 1145.6 L 2186.9 1148.8 L 2187.9 1151.5 L 2189.2 1153.6 L 2190.6 1155.1 L 2192.3 1156 L 2194.2 1156.7 L 2196.2 1156.9 L 2197.9 1156.8 L 2199.3 1156.4 L 2200.6 1155.8 L 2201.7 1155 L 2202.7 1154 L 2203.4 1152.8 L 2204 1151.4 L 2204.3 1149.9 L 2204.3 1149.9 Z"/><path stroke-width="5.9" fill="none" d="M 243.7 523.2 L 243.7 672.9 M 243.7 672.9 L 1720.1 672.9 M 1720.1 672.9 L 1720.1 523.2 M 1720.1 523.2 L 243.7 523.2"/><use x="219.1" y="609.9" xlink:href="#tool-D11-pad-1028"/><path d="M 148.4 546 L 151.8 546.5 L 151.9 545 L 152.1 543.8 L 152.5 542.8 L 153 542.1 L 153.6 541.5 L 154.3 541.2 L 155.1 540.9 L 156 540.8 L 156.6 540.9 L 157.3 541 L 157.9 541.2 L 158.4 541.5 L 158.8 541.9 L 159.2 542.3 L 159.5 542.7 L 159.8 543.2 L 159.9 543.9 L 160.1 544.7 L 160.1 545.6 L 160.2 546.8 L 160.2 566.2 L 163.9 566.2 L 163.9 547 L 163.8 545.3 L 163.7 543.8 L 163.4 542.6 L 163.1 541.5 L 162.5 540.6 L 161.9 539.8 L 161.2 539.1 L 160.3 538.6 L 159.4 538.1 L 158.3 537.8 L 157.2 537.6 L 156 537.5 L 154.2 537.7 L 152.7 538.1 L 151.4 538.7 L 150.3 539.7 L 149.4 540.8 L 148.8 542.3 L 148.5 544 L 148.4 546 L 148.4 546 Z"/><path d="M 181.6 538 L 178.2 538 L 178.2 560.1 L 177.5 559.5 L 176.7 558.9 L 175.8 558.3 L 174.9 557.7 L 173.9 557.1 L 173 556.6 L 172.1 556.2 L 171.2 555.9 L 171.2 559.2 L 172.7 559.9 L 174 560.7 L 175.2 561.6 L 176.3 562.5 L 177.3 563.5 L 178.2 564.5 L 178.8 565.4 L 179.4 566.3 L 181.6 566.3 L 181.6 538 L 181.6 538 Z"/><path d="M 201.6 538 L 201.6 544.7 L 189.4 544.7 L 189.4 547.9 L 199.4 562.2 L 201.6 560.6 L 192.7 547.9 L 201.6 547.9 L 201.6 547.9 L 201.6 560.6 L 199.4 562.2 L 202.2 566.2 L 205 566.2 L 205 547.9 L 208.8 547.9 L 208.8 544.7 L 205 544.7 L 205 538 L 201.6 538 L 201.6 538 Z"/><path stroke-width="5.9" fill="none" d="M 2133.5 869.7 L 2133.5 720.1 M 2133.5 720.1 L 1641.4 720.1 M 1641.4 720.1 L 1641.4 869.7 M 1641.4 869.7 L 2133.5 869.7"/><use x="2158.1" y="783.1" xlink:href="#tool-D12-pad-1029"/><path d="M 2166.1 742.9 L 2169.5 743.3 L 2169.6 741.8 L 2169.9 740.6 L 2170.2 739.6 L 2170.7 738.9 L 2171.3 738.4 L 2172 738 L 2172.8 737.8 L 2173.7 737.7 L 2174.4 737.7 L 2175 737.9 L 2175.6 738.1 L 2176.1 738.4 L 2176.6 738.7 L 2176.9 739.1 L 2177.3 739.6 L 2177.5 740.1 L 2177.7 740.7 L 2177.8 741.5 L 2177.9 742.5 L 2177.9 743.6 L 2177.9 763.1 L 2181.6 763.1 L 2181.6 743.8 L 2181.6 742.2 L 2181.4 740.7 L 2181.1 739.4 L 2180.8 738.4 L 2180.3 737.5 L 2179.7 736.6 L 2178.9 736 L 2178.1 735.4 L 2177.1 734.9 L 2176 734.6 L 2174.9 734.4 L 2173.7 734.4 L 2171.9 734.5 L 2170.4 734.9 L 2169.1 735.6 L 2168 736.5 L 2167.1 737.7 L 2166.6 739.2 L 2166.2 740.9 L 2166.1 742.9 L 2166.1 742.9 Z"/><path d="M 2197.4 734.9 L 2197.4 741.6 L 2185.2 741.6 L 2185.2 744.8 L 2195.2 759 L 2197.4 757.5 L 2188.6 744.8 L 2197.4 744.8 L 2197.4 744.8 L 2197.4 757.5 L 2195.2 759 L 2198 763.1 L 2200.8 763.1 L 2200.8 744.8 L 2204.7 744.8 L 2204.7 741.6 L 2200.8 741.6 L 2200.8 734.9 L 2197.4 734.9 L 2197.4 734.9 Z"/><path stroke-width="5.9" fill="none" d="M 243.7 720.1 L 243.7 869.7 M 243.7 869.7 L 1621.7 869.7 M 1621.7 869.7 L 1621.7 720.1 M 1621.7 720.1 L 243.7 720.1"/><use x="219.1" y="806.7" xlink:href="#tool-D11-pad-1028"/><path d="M 148.4 742.9 L 151.8 743.3 L 151.9 741.8 L 152.1 740.6 L 152.5 739.6 L 153 738.9 L 153.6 738.4 L 154.3 738 L 155.1 737.8 L 156 737.7 L 156.6 737.7 L 157.3 737.9 L 157.9 738.1 L 158.4 738.4 L 158.8 738.7 L 159.2 739.1 L 159.5 739.6 L 159.8 740.1 L 159.9 740.7 L 160.1 741.5 L 160.1 742.5 L 160.2 743.6 L 160.2 763.1 L 163.9 763.1 L 163.9 743.8 L 163.8 742.2 L 163.7 740.7 L 163.4 739.4 L 163.1 738.4 L 162.5 737.5 L 161.9 736.6 L 161.2 736 L 160.3 735.4 L 159.4 734.9 L 158.3 734.6 L 157.2 734.4 L 156 734.4 L 154.2 734.5 L 152.7 734.9 L 151.4 735.6 L 150.3 736.5 L 149.4 737.7 L 148.8 739.2 L 148.5 740.9 L 148.4 742.9 L 148.4 742.9 Z"/><path d="M 181.6 734.9 L 178.2 734.9 L 178.2 756.9 L 177.5 756.3 L 176.7 755.7 L 175.8 755.1 L 174.9 754.5 L 173.9 754 L 173 753.5 L 172.1 753.1 L 171.2 752.7 L 171.2 756.1 L 172.7 756.8 L 174 757.6 L 175.2 758.4 L 176.3 759.4 L 177.3 760.4 L 178.2 761.3 L 178.8 762.2 L 179.4 763.2 L 181.6 763.2 L 181.6 734.9 L 181.6 734.9 Z"/><path d="M 190.5 742.3 L 194 742.8 L 194.3 741.4 L 194.8 740.2 L 195.3 739.3 L 196 738.5 L 196.8 738 L 197.6 737.5 L 198.5 737.3 L 199.5 737.2 L 200.6 737.3 L 201.7 737.7 L 202.7 738.2 L 203.6 738.9 L 204.4 739.8 L 204.9 740.8 L 205.2 741.9 L 205.3 743.1 L 205.2 744.2 L 204.9 745.3 L 204.4 746.2 L 203.7 747 L 202.9 747.7 L 201.9 748.2 L 200.9 748.5 L 199.8 748.6 L 199.2 748.6 L 198.7 748.5 L 198 748.4 L 197.3 748.2 L 197.7 751.2 L 197.9 751.2 L 198 751.2 L 198.2 751.2 L 198.2 751.2 L 199.4 751.3 L 200.4 751.5 L 201.3 751.9 L 202.3 752.3 L 203 753 L 203.6 753.8 L 203.9 754.8 L 204 755.9 L 203.9 756.8 L 203.7 757.7 L 203.3 758.4 L 202.7 759.1 L 202 759.6 L 201.2 760 L 200.4 760.2 L 199.4 760.3 L 198.4 760.2 L 197.5 760 L 196.8 759.6 L 196 759 L 195.4 758.3 L 194.9 757.5 L 194.5 756.4 L 194.3 755.3 L 190.8 755.8 L 191.3 757.5 L 191.9 759 L 192.7 760.2 L 193.7 761.2 L 194.9 762.1 L 196.2 762.7 L 197.7 763.1 L 199.3 763.2 L 200.5 763.1 L 201.6 762.9 L 202.6 762.6 L 203.6 762.2 L 204.5 761.6 L 205.3 761 L 206 760.3 L 206.6 759.5 L 207 758.6 L 207.3 757.7 L 207.5 756.8 L 207.6 755.8 L 207.5 754.9 L 207.3 754.1 L 207 753.3 L 206.6 752.5 L 206 751.8 L 205.4 751.2 L 204.6 750.6 L 203.7 750.1 L 204.9 749.7 L 205.9 749.2 L 206.8 748.6 L 207.6 747.7 L 208.2 746.8 L 208.6 745.7 L 208.9 744.5 L 209 743.2 L 208.8 741.4 L 208.3 739.8 L 207.4 738.3 L 206.3 736.9 L 204.8 735.8 L 203.2 735 L 201.4 734.5 L 199.5 734.4 L 197.7 734.5 L 196 734.9 L 194.6 735.6 L 193.3 736.6 L 192.2 737.8 L 191.4 739.1 L 190.8 740.6 L 190.5 742.3 L 190.5 742.3 Z"/><path stroke-width="5.9" fill="none" d="M 243.7 1507.5 L 243.7 1657.1 M 243.7 1657.1 L 1228 1657.1 M 1228 1657.1 L 1228 1507.5 M 1228 1507.5 L 243.7 1507.5"/><use x="219.1" y="1594.1" xlink:href="#tool-D11-pad-1028"/><path d="M 168.1 1530.3 L 171.4 1530.7 L 171.6 1529.2 L 171.8 1528 L 172.2 1527 L 172.7 1526.3 L 173.2 1525.8 L 174 1525.4 L 174.7 1525.2 L 175.6 1525.1 L 176.3 1525.1 L 176.9 1525.3 L 177.5 1525.5 L 178.1 1525.8 L 178.5 1526.1 L 178.9 1526.5 L 179.2 1527 L 179.5 1527.5 L 179.6 1528.1 L 179.7 1528.9 L 179.8 1529.9 L 179.9 1531 L 179.9 1550.5 L 183.6 1550.5 L 183.6 1531.2 L 183.5 1529.6 L 183.4 1528.1 L 183.1 1526.8 L 182.7 1525.8 L 182.2 1524.9 L 181.6 1524 L 180.9 1523.4 L 180 1522.8 L 179 1522.3 L 178 1522 L 176.9 1521.8 L 175.6 1521.8 L 173.9 1521.9 L 172.4 1522.3 L 171.1 1523 L 170 1523.9 L 169.1 1525.1 L 168.5 1526.6 L 168.2 1528.3 L 168.1 1530.3 L 168.1 1530.3 Z"/><path d="M 188.8 1528.8 L 192.1 1529.1 L 192.4 1528 L 192.7 1527.1 L 193.2 1526.3 L 193.7 1525.7 L 194.4 1525.2 L 195.1 1524.9 L 195.9 1524.7 L 196.8 1524.6 L 197.5 1524.7 L 198.3 1524.8 L 199 1525 L 199.6 1525.4 L 200.1 1525.8 L 200.7 1526.2 L 201.1 1526.7 L 201.6 1527.3 L 201.9 1528 L 202.3 1528.8 L 202.6 1529.6 L 202.9 1530.6 L 203.1 1531.6 L 203.2 1532.7 L 203.3 1533.8 L 203.4 1534.8 L 203.4 1535 L 203.4 1535.1 L 203.4 1535.3 L 203.3 1535.5 L 201.6 1536.8 L 202.1 1537.5 L 202.6 1538.6 L 202.9 1539.8 L 203 1541.2 L 203 1541.2 L 202.9 1542.6 L 202.6 1543.9 L 202.1 1545 L 201.4 1546 L 200.5 1546.7 L 199.6 1547.3 L 198.6 1547.6 L 197.5 1547.7 L 196.4 1547.6 L 195.4 1547.2 L 194.4 1546.6 L 193.5 1545.8 L 192.8 1544.8 L 192.3 1543.6 L 191.9 1542.3 L 191.8 1540.9 L 191.9 1539.7 L 192.2 1538.5 L 192.7 1537.5 L 193.4 1536.6 L 194.3 1535.8 L 195.3 1535.3 L 196.3 1535 L 197.5 1534.9 L 198.6 1535 L 199.7 1535.3 L 200.6 1535.8 L 201.4 1536.6 L 201.6 1536.8 L 203.3 1535.5 L 202.8 1534.7 L 202.1 1534 L 201.4 1533.4 L 200.5 1532.9 L 199.6 1532.4 L 198.6 1532.1 L 197.7 1531.9 L 196.6 1531.8 L 194.9 1532 L 193.4 1532.5 L 192 1533.2 L 190.7 1534.4 L 189.6 1535.7 L 188.9 1537.3 L 188.4 1539.1 L 188.3 1541 L 188.4 1543.1 L 188.9 1544.9 L 189.7 1546.5 L 190.8 1547.9 L 192.1 1549.1 L 193.6 1549.9 L 195.3 1550.4 L 197.1 1550.6 L 198.5 1550.5 L 199.7 1550.2 L 201 1549.7 L 202.1 1549.1 L 203.2 1548.2 L 204.2 1547.3 L 204.9 1546.2 L 205.6 1544.9 L 206.1 1543.3 L 206.5 1541.5 L 206.7 1539.4 L 206.8 1536.9 L 206.7 1534.4 L 206.5 1532.1 L 206.1 1530.1 L 205.6 1528.3 L 205 1526.8 L 204.2 1525.5 L 203.2 1524.4 L 202.1 1523.4 L 200.9 1522.7 L 199.6 1522.2 L 198.2 1521.9 L 196.7 1521.8 L 195.1 1521.9 L 193.7 1522.2 L 192.4 1522.8 L 191.3 1523.6 L 190.4 1524.6 L 189.6 1525.8 L 189.1 1527.2 L 188.8 1528.8 L 188.8 1528.8 Z"/><path stroke-width="5.9" fill="none" d="M 243.7 1113.8 L 243.7 1263.4 M 243.7 1263.4 L 1424.8 1263.4 M 1424.8 1263.4 L 1424.8 1113.8 M 1424.8 1113.8 L 243.7 1113.8"/><use x="219.1" y="1200.4" xlink:href="#tool-D11-pad-1028"/><path d="M 148.4 1136.6 L 151.8 1137 L 151.9 1135.5 L 152.1 1134.3 L 152.5 1133.3 L 153 1132.6 L 153.6 1132.1 L 154.3 1131.7 L 155.1 1131.5 L 156 1131.4 L 156.6 1131.4 L 157.3 1131.6 L 157.9 1131.8 L 158.4 1132.1 L 158.8 1132.4 L 159.2 1132.8 L 159.5 1133.3 L 159.8 1133.8 L 159.9 1134.4 L 160.1 1135.2 L 160.1 1136.2 L 160.2 1137.3 L 160.2 1156.8 L 163.9 1156.8 L 163.9 1137.5 L 163.8 1135.9 L 163.7 1134.4 L 163.4 1133.1 L 163.1 1132.1 L 162.5 1131.2 L 161.9 1130.3 L 161.2 1129.7 L 160.3 1129.1 L 159.4 1128.6 L 158.3 1128.3 L 157.2 1128.1 L 156 1128.1 L 154.2 1128.2 L 152.7 1128.6 L 151.4 1129.3 L 150.3 1130.2 L 149.4 1131.4 L 148.8 1132.9 L 148.5 1134.6 L 148.4 1136.6 L 148.4 1136.6 Z"/><path d="M 181.6 1128.6 L 178.2 1128.6 L 178.2 1150.6 L 177.5 1150 L 176.7 1149.4 L 175.8 1148.8 L 174.9 1148.2 L 173.9 1147.7 L 173 1147.2 L 172.1 1146.8 L 171.2 1146.4 L 171.2 1149.8 L 172.7 1150.5 L 174 1151.3 L 175.2 1152.1 L 176.3 1153.1 L 177.3 1154.1 L 178.2 1155 L 178.8 1155.9 L 179.4 1156.9 L 181.6 1156.9 L 181.6 1128.6 L 181.6 1128.6 Z"/><path d="M 200.6 1128.6 L 197.1 1128.6 L 197.1 1150.6 L 196.5 1150 L 195.7 1149.4 L 194.8 1148.8 L 193.8 1148.2 L 192.9 1147.7 L 191.9 1147.2 L 191 1146.8 L 190.2 1146.4 L 190.2 1149.8 L 191.6 1150.5 L 192.9 1151.3 L 194.2 1152.1 L 195.3 1153.1 L 196.3 1154.1 L 197.1 1155 L 197.8 1155.9 L 198.4 1156.9 L 200.6 1156.9 L 200.6 1128.6 L 200.6 1128.6 Z"/><path stroke-width="5.9" fill="none" d="M 243.7 1310.6 L 243.7 1460.3 M 243.7 1460.3 L 1326.4 1460.3 M 1326.4 1460.3 L 1326.4 1310.6 M 1326.4 1310.6 L 243.7 1310.6"/><use x="219.1" y="1397.3" xlink:href="#tool-D11-pad-1028"/><path d="M 148.4 1333.4 L 151.8 1333.9 L 151.9 1332.4 L 152.1 1331.2 L 152.5 1330.2 L 153 1329.5 L 153.6 1328.9 L 154.3 1328.6 L 155.1 1328.3 L 156 1328.2 L 156.6 1328.3 L 157.3 1328.4 L 157.9 1328.6 L 158.4 1328.9 L 158.8 1329.3 L 159.2 1329.7 L 159.5 1330.1 L 159.8 1330.6 L 159.9 1331.3 L 160.1 1332.1 L 160.1 1333.1 L 160.2 1334.2 L 160.2 1353.6 L 163.9 1353.6 L 163.9 1334.4 L 163.8 1332.7 L 163.7 1331.2 L 163.4 1330 L 163.1 1328.9 L 162.5 1328 L 161.9 1327.2 L 161.2 1326.5 L 160.3 1326 L 159.4 1325.5 L 158.3 1325.2 L 157.2 1325 L 156 1324.9 L 154.2 1325.1 L 152.7 1325.5 L 151.4 1326.1 L 150.3 1327.1 L 149.4 1328.2 L 148.8 1329.7 L 148.5 1331.4 L 148.4 1333.4 L 148.4 1333.4 Z"/><path d="M 181.6 1325.4 L 178.2 1325.4 L 178.2 1347.5 L 177.5 1346.9 L 176.7 1346.3 L 175.8 1345.7 L 174.9 1345.1 L 173.9 1344.5 L 173 1344 L 172.1 1343.6 L 171.2 1343.3 L 171.2 1346.6 L 172.7 1347.3 L 174 1348.1 L 175.2 1349 L 176.3 1349.9 L 177.3 1350.9 L 178.2 1351.9 L 178.8 1352.8 L 179.4 1353.7 L 181.6 1353.7 L 181.6 1325.4 L 181.6 1325.4 Z"/><path d="M 190.5 1339.3 L 190.5 1341.7 L 190.7 1343.8 L 191 1345.7 L 191.5 1347.3 L 192.1 1348.8 L 192.8 1350.1 L 193.6 1351.2 L 194.5 1352.1 L 195.6 1352.8 L 196.9 1353.3 L 198.2 1353.6 L 199.7 1353.7 L 200.8 1353.6 L 201.8 1353.5 L 202.8 1353.2 L 203.6 1352.8 L 204.5 1352.3 L 205.2 1351.7 L 205.9 1351 L 206.5 1350.2 L 207 1349.3 L 207.5 1348.2 L 207.9 1347.1 L 208.2 1346 L 208.5 1344.6 L 208.7 1343.1 L 208.8 1341.3 L 208.8 1339.3 L 208.8 1336.9 L 208.6 1334.8 L 208.3 1332.9 L 207.9 1331.3 L 207.3 1329.9 L 206.6 1328.6 L 205.7 1327.5 L 204.8 1326.6 L 203.7 1325.9 L 202.5 1325.3 L 201.2 1325 L 199.7 1324.9 L 199.4 1324.9 L 199.7 1327.8 L 200.8 1327.9 L 201.9 1328.4 L 202.8 1329.1 L 203.7 1330.1 L 204.4 1331.5 L 204.9 1333.6 L 205.2 1336.1 L 205.3 1339.3 L 205.2 1342.5 L 204.9 1345.1 L 204.4 1347.1 L 203.7 1348.6 L 202.8 1349.5 L 201.9 1350.3 L 200.8 1350.7 L 199.6 1350.8 L 198.5 1350.7 L 197.5 1350.3 L 196.6 1349.7 L 195.8 1348.8 L 195.1 1347.3 L 194.5 1345.2 L 194.2 1342.5 L 194 1339.3 L 194 1339.3 L 194.2 1336.1 L 194.4 1333.5 L 194.9 1331.5 L 195.6 1330.1 L 196.5 1329.1 L 197.5 1328.4 L 198.5 1327.9 L 199.7 1327.8 L 199.4 1324.9 L 197.7 1325.1 L 196 1325.6 L 194.5 1326.6 L 193.2 1327.9 L 192.1 1329.9 L 191.2 1332.5 L 190.6 1335.6 L 190.5 1339.3 L 190.5 1339.3 Z"/><path stroke-width="5.9" fill="none" d="M 2133.5 1066.6 L 2133.5 916.9 M 2133.5 916.9 L 1542.9 916.9 M 1542.9 916.9 L 1542.9 1066.6 M 1542.9 1066.6 L 2133.5 1066.6"/><use x="2158.1" y="979.9" xlink:href="#tool-D12-pad-1029"/><path d="M 2166.1 939.7 L 2169.5 940.2 L 2169.6 938.7 L 2169.9 937.5 L 2170.2 936.5 L 2170.7 935.8 L 2171.3 935.2 L 2172 934.9 L 2172.8 934.6 L 2173.7 934.5 L 2174.4 934.6 L 2175 934.7 L 2175.6 934.9 L 2176.1 935.2 L 2176.6 935.6 L 2176.9 936 L 2177.3 936.4 L 2177.5 936.9 L 2177.7 937.6 L 2177.8 938.4 L 2177.9 939.4 L 2177.9 940.5 L 2177.9 959.9 L 2181.6 959.9 L 2181.6 940.7 L 2181.6 939 L 2181.4 937.5 L 2181.1 936.3 L 2180.8 935.2 L 2180.3 934.3 L 2179.7 933.5 L 2178.9 932.8 L 2178.1 932.3 L 2177.1 931.8 L 2176 931.5 L 2174.9 931.3 L 2173.7 931.2 L 2171.9 931.4 L 2170.4 931.8 L 2169.1 932.4 L 2168 933.4 L 2167.1 934.5 L 2166.6 936 L 2166.2 937.7 L 2166.1 939.7 L 2166.1 939.7 Z"/><path d="M 2186.3 939.1 L 2189.9 939.4 L 2190.2 938.2 L 2190.6 937.1 L 2191.1 936.2 L 2191.8 935.4 L 2192.6 934.8 L 2193.4 934.4 L 2194.4 934.2 L 2195.4 934.1 L 2196.6 934.2 L 2197.7 934.5 L 2198.7 935.1 L 2199.6 936 L 2200.3 937 L 2200.9 938.2 L 2201.2 939.5 L 2201.3 941 L 2201.2 942.3 L 2200.9 943.6 L 2200.4 944.7 L 2199.7 945.6 L 2198.8 946.4 L 2197.7 946.9 L 2196.6 947.2 L 2195.3 947.3 L 2194.5 947.3 L 2193.7 947.1 L 2193 946.9 L 2192.3 946.6 L 2191.6 946.2 L 2191.1 945.7 L 2190.6 945.2 L 2190.2 944.6 L 2186.9 945 L 2189.6 959.5 L 2203.6 959.5 L 2203.6 956.2 L 2192.4 956.2 L 2190.9 948.6 L 2192.2 949.4 L 2193.5 949.9 L 2194.8 950.3 L 2196.2 950.4 L 2198 950.3 L 2199.6 949.7 L 2201.1 949 L 2202.5 947.9 L 2203.6 946.5 L 2204.4 944.9 L 2204.8 943.2 L 2205 941.3 L 2204.9 939.4 L 2204.4 937.7 L 2203.7 936.1 L 2202.8 934.7 L 2201.3 933.2 L 2199.5 932.1 L 2197.6 931.4 L 2195.4 931.2 L 2193.5 931.4 L 2191.9 931.8 L 2190.4 932.5 L 2189.1 933.4 L 2188 934.5 L 2187.2 935.9 L 2186.6 937.4 L 2186.3 939.1 L 2186.3 939.1 Z"/><path d="M 417.4 1803.1 L 427.5 1804.5 L 427.9 1800.1 L 428.6 1796.4 L 429.7 1793.4 L 431.1 1791.3 L 432.9 1789.7 L 435 1788.6 L 437.4 1787.9 L 440.1 1787.7 L 442.1 1787.8 L 444 1788.2 L 445.7 1788.8 L 447.3 1789.6 L 448.7 1790.7 L 449.9 1791.9 L 450.8 1793.3 L 451.6 1794.9 L 452 1796.8 L 452.4 1799.2 L 452.6 1802.1 L 452.7 1805.5 L 452.7 1863.7 L 463.9 1863.7 L 463.9 1806.1 L 463.7 1801.1 L 463.2 1796.7 L 462.4 1792.9 L 461.3 1789.7 L 459.9 1786.9 L 458 1784.5 L 455.8 1782.5 L 453.2 1780.8 L 450.3 1779.4 L 447.1 1778.5 L 443.8 1777.9 L 440.1 1777.7 L 434.9 1778.1 L 430.3 1779.3 L 426.4 1781.3 L 423.1 1784.1 L 420.5 1787.7 L 418.7 1792.1 L 417.7 1797.2 L 417.4 1803.1 L 417.4 1803.1 Z"/><path d="M 478.4 1806.3 L 488.9 1807.2 L 489.4 1804.2 L 490.2 1801.5 L 491.2 1799 L 492.4 1796.8 L 494 1794.9 L 495.9 1793.2 L 498.2 1791.6 L 500.9 1790.3 L 503.9 1789.2 L 507 1788.4 L 510.4 1787.9 L 513.9 1787.7 L 517 1787.9 L 519.9 1788.2 L 522.7 1788.8 L 525.2 1789.7 L 527.5 1790.7 L 529.5 1791.9 L 531.1 1793.3 L 532.5 1794.9 L 533.5 1796.6 L 534.3 1798.3 L 534.7 1800.2 L 534.9 1802.1 L 534.7 1804 L 534.3 1805.8 L 533.6 1807.5 L 532.6 1809.1 L 531.2 1810.5 L 529.5 1811.8 L 527.4 1813 L 524.9 1814 L 522.7 1814.8 L 519.5 1815.7 L 515.2 1816.9 L 509.9 1818.2 L 504.5 1819.5 L 500 1820.9 L 496.4 1822.2 L 493.6 1823.4 L 490.8 1825.1 L 488.3 1827 L 486.2 1829.1 L 484.5 1831.3 L 483.2 1833.7 L 482.3 1836.3 L 481.8 1839 L 481.6 1841.8 L 481.8 1845 L 482.5 1848.1 L 483.6 1851 L 485.2 1853.8 L 487.3 1856.4 L 489.7 1858.7 L 492.5 1860.6 L 495.8 1862.3 L 499.4 1863.5 L 503.2 1864.4 L 507.2 1865 L 511.4 1865.1 L 515.9 1864.9 L 520.2 1864.4 L 524.2 1863.4 L 527.9 1862.1 L 531.3 1860.4 L 534.3 1858.4 L 536.8 1856 L 539 1853.2 L 540.7 1850.2 L 541.9 1846.9 L 542.8 1843.5 L 543.1 1839.9 L 532.4 1839.1 L 531.7 1842.9 L 530.5 1846.1 L 528.8 1848.9 L 526.6 1851.2 L 523.8 1853 L 520.4 1854.3 L 516.4 1855 L 511.8 1855.3 L 507.1 1855.1 L 503.1 1854.4 L 499.7 1853.2 L 497 1851.6 L 495 1849.6 L 493.5 1847.5 L 492.7 1845.1 L 492.4 1842.6 L 492.6 1840.4 L 493.2 1838.4 L 494.2 1836.7 L 495.6 1835.1 L 497.9 1833.6 L 501.5 1832.1 L 506.4 1830.6 L 512.5 1829.1 L 518.8 1827.6 L 524 1826.2 L 528.2 1824.9 L 531.2 1823.7 L 534.7 1821.9 L 537.7 1819.8 L 540.1 1817.5 L 542.1 1815.1 L 543.7 1812.3 L 544.8 1809.4 L 545.5 1806.3 L 545.6 1803 L 545.4 1799.7 L 544.7 1796.5 L 543.5 1793.3 L 541.8 1790.3 L 539.7 1787.5 L 537.1 1785 L 534.1 1782.9 L 530.7 1781 L 526.9 1779.6 L 523 1778.5 L 518.8 1777.9 L 514.4 1777.7 L 508.9 1777.9 L 503.9 1778.6 L 499.3 1779.6 L 495.2 1781 L 491.5 1782.9 L 488.2 1785.3 L 485.4 1788 L 483 1791.1 L 481 1794.6 L 479.6 1798.3 L 478.7 1802.2 L 478.4 1806.3 L 478.4 1806.3 Z"/><path d="M 582.5 1779.2 L 582.5 1853.7 L 554.6 1853.7 L 554.6 1863.7 L 621.6 1863.7 L 621.6 1853.7 L 593.6 1853.7 L 593.6 1779.2 L 582.5 1779.2 L 582.5 1779.2 Z"/><path d="M 621.2 1804.5 L 621.2 1815 L 653.1 1815 L 653.1 1804.5 L 621.2 1804.5 L 621.2 1804.5 Z"/><path d="M 666.1 1779.2 L 666.1 1863.7 L 727.3 1863.7 L 727.3 1853.7 L 677.3 1853.7 L 677.3 1827.8 L 724.1 1827.8 L 724.1 1817.9 L 677.3 1817.9 L 677.3 1789.1 L 729.2 1789.1 L 729.2 1779.2 L 666.1 1779.2 L 666.1 1779.2 Z"/><path d="M 745 1779.2 L 745 1863.7 L 756.2 1863.7 L 756.2 1829 L 800.2 1829 L 800.2 1863.7 L 811.4 1863.7 L 811.4 1779.2 L 800.2 1779.2 L 800.2 1819 L 756.2 1819 L 756.2 1779.2 L 745 1779.2 L 745 1779.2 Z"/><path d="M 901.4 1786.7 L 898.6 1784.4 L 898.2 1784.2 L 894.2 1789.9 L 896.1 1791.6 L 897.7 1793.6 L 898.9 1795.7 L 899.6 1797.7 L 900.1 1800.1 L 900.5 1802.9 L 900.6 1806.1 L 900.6 1809.9 L 900.6 1809.9 L 897.4 1808.8 L 893.5 1807.8 L 888.9 1806.8 L 883.6 1806 L 880.6 1805.5 L 878.2 1805 L 876.1 1804.5 L 874.5 1803.9 L 873.3 1803.2 L 872.2 1802.5 L 871.3 1801.6 L 870.5 1800.5 L 869.8 1799.4 L 869.4 1798.2 L 869.1 1796.9 L 869 1795.6 L 869.2 1793.6 L 869.8 1791.8 L 870.8 1790.1 L 872.2 1788.7 L 873.9 1787.5 L 876 1786.6 L 878.5 1786.1 L 881.4 1785.9 L 884.3 1786.1 L 887 1786.6 L 889.6 1787.4 L 892 1788.5 L 894.2 1789.9 L 898.2 1784.2 L 895.8 1782.5 L 893 1781 L 890.3 1779.8 L 887.6 1778.9 L 884.8 1778.3 L 881.9 1777.9 L 878.9 1777.8 L 874.1 1778.1 L 870 1779 L 866.4 1780.5 L 863.4 1782.7 L 861 1785.3 L 859.3 1788.3 L 858.3 1791.6 L 857.9 1795.3 L 858.1 1797.5 L 858.4 1799.6 L 859.1 1801.6 L 860 1803.5 L 861.1 1805.3 L 862.4 1806.9 L 863.8 1808.3 L 865.4 1809.5 L 867.1 1810.5 L 868.9 1811.5 L 870.8 1812.3 L 872.8 1812.9 L 874.5 1813.3 L 876.7 1813.7 L 879.2 1814.1 L 882.1 1814.4 L 887.9 1815.2 L 893 1816.1 L 897.2 1817 L 900.6 1818 L 900.6 1819 L 900.6 1819.8 L 900.6 1820.3 L 900.6 1820.7 L 900.5 1823.7 L 899.9 1826.1 L 899 1828.1 L 897.7 1829.7 L 895.5 1831.2 L 892.7 1832.3 L 889.5 1833 L 885.8 1833.2 L 882.5 1833 L 879.5 1832.5 L 877 1831.8 L 875.1 1830.6 L 873.4 1829.1 L 872 1827.1 L 870.8 1824.5 L 869.9 1821.6 L 859.7 1822.9 L 860.5 1826 L 861.6 1828.8 L 862.8 1831.3 L 864.3 1833.4 L 866 1835.3 L 868.2 1837 L 870.6 1838.4 L 873.5 1839.6 L 876.6 1840.6 L 879.9 1841.2 L 883.5 1841.6 L 887.4 1841.8 L 891.1 1841.7 L 894.5 1841.3 L 897.5 1840.7 L 900.1 1839.9 L 902.4 1839 L 904.4 1837.9 L 906 1836.6 L 907.3 1835.3 L 908.4 1833.8 L 909.3 1832.1 L 910 1830.3 L 910.5 1828.2 L 910.8 1826.6 L 910.9 1824.5 L 911 1821.9 L 911.1 1818.6 L 911.1 1804.8 L 911.1 1798.2 L 911.2 1793 L 911.4 1789.1 L 911.7 1786.5 L 912.1 1784.6 L 912.7 1782.7 L 913.4 1780.9 L 914.4 1779.2 L 903.5 1779.2 L 902.8 1780.8 L 902.2 1782.7 L 901.8 1784.6 L 901.4 1786.7 L 901.4 1786.7 Z"/><path d="M 966.9 1779.2 L 966.9 1786.9 L 962.2 1791.8 L 962.3 1791.9 L 964.4 1795 L 965.9 1798.9 L 966.8 1803.5 L 967.1 1808.8 L 966.8 1814.7 L 965.8 1819.7 L 964.4 1824 L 962.2 1827.3 L 959.7 1829.9 L 956.8 1831.7 L 953.7 1832.8 L 950.3 1833.2 L 946.9 1832.9 L 943.9 1831.8 L 941.2 1830 L 938.7 1827.5 L 936.7 1824.3 L 935.3 1820.3 L 934.4 1815.4 L 934.1 1809.7 L 934.1 1809.7 L 934.4 1804.2 L 935.3 1799.4 L 936.9 1795.4 L 939 1792.1 L 941.6 1789.6 L 944.4 1787.8 L 947.5 1786.7 L 950.7 1786.3 L 954 1786.6 L 957 1787.7 L 959.8 1789.4 L 962.2 1791.8 L 966.9 1786.9 L 963.6 1782.9 L 959.7 1780.1 L 955.1 1778.3 L 949.8 1777.8 L 946.2 1778 L 942.7 1778.8 L 939.4 1780.1 L 936.3 1781.8 L 933.4 1784 L 930.8 1786.6 L 928.6 1789.7 L 926.8 1793.1 L 925.3 1796.8 L 924.3 1800.8 L 923.6 1805.1 L 923.4 1809.7 L 923.6 1814.2 L 924.2 1818.4 L 925.1 1822.5 L 926.5 1826.4 L 928.2 1829.9 L 930.3 1833 L 932.8 1835.6 L 935.6 1837.8 L 938.8 1839.5 L 942.1 1840.8 L 945.6 1841.6 L 949.3 1841.8 L 952 1841.6 L 954.5 1841.2 L 956.9 1840.5 L 959.2 1839.4 L 961.2 1838.2 L 963.1 1836.8 L 964.7 1835.1 L 966.2 1833.4 L 966.2 1863.7 L 976.5 1863.7 L 976.5 1779.2 L 966.9 1779.2 L 966.9 1779.2 Z"/><path d="M 1032.8 1786.7 L 1029.9 1784.4 L 1029.5 1784.2 L 1025.6 1789.9 L 1027.5 1791.6 L 1029 1793.6 L 1030.3 1795.7 L 1031 1797.7 L 1031.5 1800.1 L 1031.8 1802.9 L 1031.9 1806.1 L 1031.9 1809.9 L 1031.9 1809.9 L 1028.8 1808.8 L 1024.9 1807.8 L 1020.3 1806.8 L 1015 1806 L 1012 1805.5 L 1009.5 1805 L 1007.5 1804.5 L 1005.9 1803.9 L 1004.7 1803.2 L 1003.6 1802.5 L 1002.7 1801.6 L 1001.8 1800.5 L 1001.2 1799.4 L 1000.8 1798.2 L 1000.5 1796.9 L 1000.4 1795.6 L 1000.6 1793.6 L 1001.2 1791.8 L 1002.2 1790.1 L 1003.6 1788.7 L 1005.3 1787.5 L 1007.4 1786.6 L 1009.9 1786.1 L 1012.7 1785.9 L 1015.6 1786.1 L 1018.4 1786.6 L 1021 1787.4 L 1023.4 1788.5 L 1025.6 1789.9 L 1029.5 1784.2 L 1027.1 1782.5 L 1024.4 1781 L 1021.7 1779.8 L 1019 1778.9 L 1016.2 1778.3 L 1013.3 1777.9 L 1010.3 1777.8 L 1005.5 1778.1 L 1001.3 1779 L 997.7 1780.5 L 994.7 1782.7 L 992.4 1785.3 L 990.7 1788.3 L 989.7 1791.6 L 989.3 1795.3 L 989.5 1797.5 L 989.8 1799.6 L 990.5 1801.6 L 991.4 1803.5 L 992.5 1805.3 L 993.7 1806.9 L 995.2 1808.3 L 996.8 1809.5 L 998.4 1810.5 L 1000.3 1811.5 L 1002.2 1812.3 L 1004.2 1812.9 L 1005.9 1813.3 L 1008.1 1813.7 L 1010.5 1814.1 L 1013.4 1814.4 L 1019.3 1815.2 L 1024.4 1816.1 L 1028.6 1817 L 1031.9 1818 L 1032 1819 L 1032 1819.8 L 1032 1820.3 L 1032 1820.7 L 1031.8 1823.7 L 1031.3 1826.1 L 1030.3 1828.1 L 1029.1 1829.7 L 1026.8 1831.2 L 1024.1 1832.3 L 1020.9 1833 L 1017.2 1833.2 L 1013.8 1833 L 1010.9 1832.5 L 1008.4 1831.8 L 1006.4 1830.6 L 1004.8 1829.1 L 1003.4 1827.1 L 1002.2 1824.5 L 1001.3 1821.6 L 991.1 1822.9 L 991.9 1826 L 992.9 1828.8 L 994.2 1831.3 L 995.7 1833.4 L 997.4 1835.3 L 999.5 1837 L 1002 1838.4 L 1004.8 1839.6 L 1008 1840.6 L 1011.3 1841.2 L 1014.9 1841.6 L 1018.7 1841.8 L 1022.5 1841.7 L 1025.8 1841.3 L 1028.8 1840.7 L 1031.5 1839.9 L 1033.8 1839 L 1035.7 1837.9 L 1037.4 1836.6 L 1038.7 1835.3 L 1039.7 1833.8 L 1040.6 1832.1 L 1041.4 1830.3 L 1041.9 1828.2 L 1042.1 1826.6 L 1042.3 1824.5 L 1042.4 1821.9 L 1042.5 1818.6 L 1042.5 1804.8 L 1042.5 1798.2 L 1042.6 1793 L 1042.8 1789.1 L 1043.1 1786.5 L 1043.5 1784.6 L 1044.1 1782.7 L 1044.8 1780.9 L 1045.7 1779.2 L 1034.9 1779.2 L 1034.2 1780.8 L 1033.6 1782.7 L 1033.1 1784.6 L 1032.8 1786.7 L 1032.8 1786.7 Z"/><path d="M 1058.5 1755.7 L 1058.5 1840.4 L 1068 1840.4 L 1068 1832.5 L 1073.1 1827.5 L 1073.1 1827.5 L 1070.8 1824 L 1069.2 1819.9 L 1068.2 1815 L 1067.9 1809.4 L 1067.9 1809.4 L 1068.2 1803.9 L 1069.1 1799.2 L 1070.6 1795.2 L 1072.7 1791.9 L 1075.3 1789.5 L 1078 1787.7 L 1081 1786.7 L 1084.3 1786.3 L 1087.7 1786.7 L 1090.7 1787.8 L 1093.6 1789.6 L 1096.2 1792.1 L 1098.3 1795.5 L 1099.9 1799.6 L 1100.8 1804.5 L 1101.1 1810.3 L 1100.8 1815.8 L 1099.9 1820.5 L 1098.4 1824.5 L 1096.3 1827.8 L 1093.8 1830.4 L 1091 1832.2 L 1088 1833.3 L 1084.8 1833.6 L 1081.6 1833.2 L 1078.5 1832.1 L 1075.7 1830.2 L 1073.1 1827.5 L 1068 1832.5 L 1069.7 1834.6 L 1071.6 1836.5 L 1073.5 1838.1 L 1075.5 1839.4 L 1077.8 1840.5 L 1080.2 1841.2 L 1082.9 1841.6 L 1085.8 1841.8 L 1089.5 1841.5 L 1093.1 1840.8 L 1096.5 1839.5 L 1099.6 1837.7 L 1102.4 1835.5 L 1104.9 1832.9 L 1106.9 1829.8 L 1108.6 1826.4 L 1110 1822.6 L 1110.9 1818.6 L 1111.5 1814.5 L 1111.7 1810.3 L 1111.5 1805.6 L 1110.8 1801.3 L 1109.8 1797.2 L 1108.3 1793.3 L 1106.4 1789.8 L 1104.2 1786.7 L 1101.6 1784 L 1098.5 1781.8 L 1095.3 1780 L 1091.9 1778.8 L 1088.5 1778 L 1085 1777.8 L 1082.5 1777.9 L 1080.1 1778.3 L 1077.8 1779 L 1075.7 1780 L 1073.7 1781.1 L 1071.9 1782.4 L 1070.3 1783.9 L 1068.9 1785.5 L 1068.9 1755.7 L 1058.5 1755.7 L 1058.5 1755.7 Z"/><path d="M 1146.9 1788.4 L 1148.4 1779.3 L 1146.2 1778.9 L 1144.2 1778.6 L 1142.3 1778.4 L 1140.5 1778.3 L 1137.9 1778.4 L 1135.5 1778.8 L 1133.5 1779.4 L 1131.8 1780.1 L 1130.3 1781.1 L 1129.1 1782.2 L 1128.1 1783.4 L 1127.4 1784.8 L 1126.8 1786.7 L 1126.4 1789.4 L 1126.2 1792.8 L 1126.1 1797.1 L 1126.1 1832.3 L 1118.5 1832.3 L 1118.5 1840.4 L 1126.1 1840.4 L 1126.1 1855.6 L 1136.4 1861.8 L 1136.4 1840.4 L 1146.9 1840.4 L 1146.9 1832.3 L 1136.4 1832.3 L 1136.4 1796.5 L 1136.5 1794.5 L 1136.6 1792.9 L 1136.8 1791.6 L 1137 1790.8 L 1137.3 1790.2 L 1137.7 1789.7 L 1138.2 1789.2 L 1138.8 1788.8 L 1139.5 1788.4 L 1140.3 1788.2 L 1141.2 1788.1 L 1142.3 1788.1 L 1143.2 1788.1 L 1144.4 1788.1 L 1145.5 1788.2 L 1146.9 1788.4 L 1146.9 1788.4 Z"/><path d="M 1199 1798.9 L 1209.7 1797.5 L 1208.2 1793.1 L 1206.1 1789.2 L 1203.4 1785.8 L 1200.3 1783 L 1196.6 1780.7 L 1192.5 1779.1 L 1187.9 1778.1 L 1182.8 1777.8 L 1176.4 1778.3 L 1170.7 1779.8 L 1165.7 1782.4 L 1161.4 1786 L 1158 1790.6 L 1155.5 1796 L 1154.1 1802.2 L 1153.6 1809.3 L 1154.1 1816.6 L 1155.6 1823 L 1158.1 1828.6 L 1161.5 1833.2 L 1165.8 1837 L 1170.7 1839.7 L 1176.1 1841.2 L 1182.2 1841.8 L 1183.1 1841.7 L 1182.3 1833.2 L 1178.9 1832.9 L 1175.7 1832.1 L 1172.9 1830.6 L 1170.3 1828.4 L 1168.1 1825.9 L 1166.5 1822.9 L 1165.4 1819.5 L 1164.9 1815.6 L 1164.9 1815.6 L 1199.1 1815.6 L 1198.6 1819.3 L 1197.7 1822.4 L 1196.6 1825.1 L 1195.1 1827.3 L 1192.5 1829.9 L 1189.5 1831.8 L 1186 1832.9 L 1182.3 1833.2 L 1183.1 1841.7 L 1188.1 1841.3 L 1193.3 1839.7 L 1198.1 1837.1 L 1202.3 1833.4 L 1205.6 1828.8 L 1208.1 1823.4 L 1209.5 1817.1 L 1210 1809.9 L 1210 1809.4 L 1210 1808.7 L 1210 1808 L 1210 1807.1 L 1164.3 1807.1 L 1164.9 1802.4 L 1166 1798.2 L 1167.7 1794.6 L 1170 1791.7 L 1172.7 1789.3 L 1175.8 1787.7 L 1179.2 1786.6 L 1182.8 1786.3 L 1185.6 1786.5 L 1188.1 1787.1 L 1190.5 1788 L 1192.6 1789.3 L 1194.5 1791 L 1196.2 1793.2 L 1197.7 1795.8 L 1199 1798.9 L 1199 1798.9 Z"/><path d="M 1222.6 1779.2 L 1222.6 1840.4 L 1231.9 1840.4 L 1231.9 1831.1 L 1233.7 1834.1 L 1235.4 1836.5 L 1237 1838.4 L 1238.6 1839.7 L 1240.1 1840.6 L 1241.8 1841.3 L 1243.4 1841.7 L 1245.2 1841.8 L 1247.9 1841.6 L 1250.5 1841 L 1253.2 1839.9 L 1255.9 1838.4 L 1252.3 1828.8 L 1250.4 1829.8 L 1248.5 1830.5 L 1246.6 1830.9 L 1244.7 1831 L 1243.1 1830.9 L 1241.5 1830.5 L 1240 1829.9 L 1238.6 1829 L 1237.3 1827.9 L 1236.3 1826.6 L 1235.4 1825.1 L 1234.7 1823.3 L 1234 1820.5 L 1233.4 1817.5 L 1233.1 1814.4 L 1233 1811.2 L 1233 1779.2 L 1222.6 1779.2 L 1222.6 1779.2 Z"/><path d="M 1290.8 1804.5 L 1290.8 1815 L 1322.7 1815 L 1322.7 1804.5 L 1290.8 1804.5 L 1290.8 1804.5 Z"/><path d="M 1392.5 1779.2 L 1359.7 1863.7 L 1371.9 1863.7 L 1393.8 1802.3 L 1395.1 1798.6 L 1396.3 1795.1 L 1397.3 1791.7 L 1398.3 1788.4 L 1399.3 1791.9 L 1400.4 1795.4 L 1401.6 1798.8 L 1402.8 1802.3 L 1425.6 1863.7 L 1437.1 1863.7 L 1404 1779.2 L 1392.5 1779.2 L 1392.5 1779.2 Z"/><path d="M 1481.2 1798.9 L 1491.9 1797.5 L 1490.4 1793.1 L 1488.3 1789.2 L 1485.7 1785.8 L 1482.5 1783 L 1478.9 1780.7 L 1474.7 1779.1 L 1470.1 1778.1 L 1465 1777.8 L 1458.6 1778.3 L 1452.9 1779.8 L 1448 1782.4 L 1443.7 1786 L 1440.3 1790.6 L 1437.8 1796 L 1436.3 1802.2 L 1435.8 1809.3 L 1436.3 1816.6 L 1437.8 1823 L 1440.3 1828.6 L 1443.8 1833.2 L 1448.1 1837 L 1452.9 1839.7 L 1458.4 1841.2 L 1464.4 1841.8 L 1465.3 1841.7 L 1464.5 1833.2 L 1461.1 1832.9 L 1458 1832.1 L 1455.1 1830.6 L 1452.5 1828.4 L 1450.3 1825.9 L 1448.7 1822.9 L 1447.7 1819.5 L 1447.1 1815.6 L 1447.1 1815.6 L 1481.3 1815.6 L 1480.8 1819.3 L 1480 1822.4 L 1478.8 1825.1 L 1477.4 1827.3 L 1474.7 1829.9 L 1471.7 1831.8 L 1468.3 1832.9 L 1464.5 1833.2 L 1465.3 1841.7 L 1470.3 1841.3 L 1475.6 1839.7 L 1480.3 1837.1 L 1484.5 1833.4 L 1487.9 1828.8 L 1490.3 1823.4 L 1491.8 1817.1 L 1492.3 1809.9 L 1492.3 1809.4 L 1492.3 1808.7 L 1492.2 1808 L 1492.2 1807.1 L 1446.6 1807.1 L 1447.1 1802.4 L 1448.2 1798.2 L 1450 1794.6 L 1452.3 1791.7 L 1455 1789.3 L 1458 1787.7 L 1461.4 1786.6 L 1465.1 1786.3 L 1467.8 1786.5 L 1470.3 1787.1 L 1472.7 1788 L 1474.8 1789.3 L 1476.7 1791 L 1478.4 1793.2 L 1479.9 1795.8 L 1481.2 1798.9 L 1481.2 1798.9 Z"/><path d="M 1504.9 1779.2 L 1504.9 1840.4 L 1514.2 1840.4 L 1514.2 1831.1 L 1516 1834.1 L 1517.6 1836.5 L 1519.2 1838.4 L 1520.8 1839.7 L 1522.3 1840.6 L 1524 1841.3 L 1525.7 1841.7 L 1527.5 1841.8 L 1530.1 1841.6 L 1532.7 1841 L 1535.4 1839.9 L 1538.1 1838.4 L 1534.5 1828.8 L 1532.7 1829.8 L 1530.7 1830.5 L 1528.8 1830.9 L 1526.9 1831 L 1525.3 1830.9 L 1523.7 1830.5 L 1522.2 1829.9 L 1520.8 1829 L 1519.5 1827.9 L 1518.5 1826.6 L 1517.6 1825.1 L 1516.9 1823.3 L 1516.2 1820.5 L 1515.6 1817.5 L 1515.3 1814.4 L 1515.2 1811.2 L 1515.2 1779.2 L 1504.9 1779.2 L 1504.9 1779.2 Z"/><path d="M 1540.1 1797.4 L 1550.4 1799 L 1551 1796.2 L 1552 1793.6 L 1553.4 1791.4 L 1555.2 1789.6 L 1557.4 1788.2 L 1559.9 1787.1 L 1562.9 1786.5 L 1566.3 1786.3 L 1569.6 1786.5 L 1572.5 1787 L 1574.9 1787.9 L 1576.9 1789.2 L 1578.4 1790.7 L 1579.5 1792.4 L 1580.1 1794.2 L 1580.3 1796 L 1580.1 1797.7 L 1579.6 1799.2 L 1578.6 1800.5 L 1577.3 1801.6 L 1575.8 1802.3 L 1573.6 1803.2 L 1570.5 1804.1 L 1566.7 1805.1 L 1561.4 1806.5 L 1557 1807.8 L 1553.5 1809 L 1550.8 1810.1 L 1548.8 1811.2 L 1546.9 1812.6 L 1545.4 1814.2 L 1544.2 1815.9 L 1543.2 1817.8 L 1542.5 1819.8 L 1542 1821.9 L 1541.9 1824.2 L 1542 1826.2 L 1542.3 1828.1 L 1542.9 1829.9 L 1543.8 1831.7 L 1544.8 1833.4 L 1546 1834.9 L 1547.3 1836.3 L 1548.8 1837.5 L 1550.2 1838.4 L 1551.7 1839.2 L 1553.5 1839.9 L 1555.5 1840.5 L 1557.6 1841.1 L 1559.8 1841.5 L 1562.1 1841.7 L 1564.4 1841.8 L 1567.9 1841.7 L 1571.2 1841.3 L 1574.2 1840.6 L 1577.1 1839.7 L 1579.6 1838.6 L 1581.8 1837.3 L 1583.6 1835.8 L 1585.1 1834.1 L 1586.3 1832.1 L 1587.3 1829.9 L 1588.1 1827.4 L 1588.7 1824.6 L 1578.6 1823.2 L 1578.1 1825.5 L 1577.2 1827.4 L 1576 1829.2 L 1574.5 1830.6 L 1572.7 1831.8 L 1570.5 1832.6 L 1568 1833.1 L 1565.2 1833.2 L 1561.9 1833.1 L 1559 1832.7 L 1556.8 1831.9 L 1555 1830.9 L 1553.6 1829.7 L 1552.7 1828.3 L 1552.1 1826.9 L 1551.9 1825.3 L 1552 1824.4 L 1552.2 1823.4 L 1552.6 1822.5 L 1553.2 1821.7 L 1553.9 1820.9 L 1554.8 1820.2 L 1555.9 1819.5 L 1557.1 1819 L 1558.3 1818.6 L 1560.2 1818 L 1562.9 1817.2 L 1566.3 1816.3 L 1571.4 1814.9 L 1575.7 1813.6 L 1579.1 1812.5 L 1581.7 1811.5 L 1583.8 1810.5 L 1585.6 1809.2 L 1587.2 1807.7 L 1588.5 1806 L 1589.6 1804.1 L 1590.4 1802 L 1590.8 1799.7 L 1591 1797.1 L 1590.8 1794.6 L 1590.3 1792.1 L 1589.3 1789.7 L 1588 1787.4 L 1586.3 1785.2 L 1584.3 1783.3 L 1581.9 1781.7 L 1579.2 1780.3 L 1576.3 1779.2 L 1573.2 1778.4 L 1569.8 1777.9 L 1566.3 1777.8 L 1560.7 1778.1 L 1555.8 1779 L 1551.6 1780.6 L 1548.1 1782.7 L 1545.3 1785.5 L 1543 1788.9 L 1541.3 1792.9 L 1540.1 1797.4 L 1540.1 1797.4 Z"/><path d="M 1603.4 1779.2 L 1603.4 1840.4 L 1613.8 1840.4 L 1613.8 1779.2 L 1603.4 1779.2 L 1603.4 1779.2 Z"/><path d="M 1603.4 1851.8 L 1603.4 1863.7 L 1613.8 1863.7 L 1613.8 1851.8 L 1603.4 1851.8 L 1603.4 1851.8 Z"/><path d="M 1625.7 1809.8 L 1626.3 1817.7 L 1628.1 1824.6 L 1631 1830.3 L 1635.2 1835 L 1639.4 1838 L 1644 1840.1 L 1649 1841.4 L 1654.4 1841.8 L 1660.5 1841.3 L 1665.9 1839.7 L 1670.8 1837.1 L 1675.1 1833.5 L 1678.6 1829 L 1681.1 1823.6 L 1682.6 1817.5 L 1683.1 1810.6 L 1682.9 1805.1 L 1682.2 1800.1 L 1681.1 1795.7 L 1679.5 1792 L 1677.6 1788.8 L 1675.2 1786 L 1672.4 1783.6 L 1669.2 1781.5 L 1665.8 1779.9 L 1662.1 1778.7 L 1658.4 1778 L 1654.4 1777.8 L 1653.7 1777.8 L 1654.4 1786.3 L 1658.1 1786.7 L 1661.5 1787.8 L 1664.6 1789.6 L 1667.3 1792.2 L 1669.5 1795.5 L 1671.2 1799.6 L 1672.1 1804.5 L 1672.4 1810.1 L 1672.1 1815.5 L 1671.2 1820.1 L 1669.5 1824.1 L 1667.3 1827.3 L 1664.5 1829.9 L 1661.5 1831.7 L 1658.1 1832.8 L 1654.4 1833.2 L 1650.7 1832.8 L 1647.3 1831.8 L 1644.3 1829.9 L 1641.5 1827.4 L 1639.3 1824.1 L 1637.7 1820.1 L 1636.7 1815.3 L 1636.4 1809.8 L 1636.4 1809.8 L 1636.7 1804.3 L 1637.7 1799.5 L 1639.3 1795.5 L 1641.5 1792.1 L 1644.3 1789.6 L 1647.3 1787.8 L 1650.7 1786.7 L 1654.4 1786.3 L 1653.7 1777.8 L 1648.3 1778.3 L 1642.8 1779.8 L 1637.9 1782.4 L 1633.6 1786 L 1630.2 1790.6 L 1627.7 1796.1 L 1626.2 1802.5 L 1625.7 1809.8 L 1625.7 1809.8 Z"/><path d="M 1695.3 1779.2 L 1695.3 1840.4 L 1704.6 1840.4 L 1704.6 1831.7 L 1708.4 1836.1 L 1712.9 1839.3 L 1718.1 1841.2 L 1724.1 1841.8 L 1726.8 1841.7 L 1729.4 1841.3 L 1731.9 1840.6 L 1734.3 1839.8 L 1736.5 1838.7 L 1738.4 1837.5 L 1739.9 1836.1 L 1741.2 1834.6 L 1742.3 1832.9 L 1743.2 1831 L 1743.9 1829 L 1744.5 1826.9 L 1744.7 1825.2 L 1744.9 1822.9 L 1745 1820.1 L 1745.1 1816.8 L 1745.1 1779.2 L 1734.7 1779.2 L 1734.7 1816.4 L 1734.6 1819.4 L 1734.4 1821.9 L 1734 1824.1 L 1733.4 1825.9 L 1732.7 1827.4 L 1731.8 1828.7 L 1730.6 1829.9 L 1729.2 1830.9 L 1727.5 1831.8 L 1725.8 1832.3 L 1723.9 1832.7 L 1721.9 1832.8 L 1718.7 1832.5 L 1715.7 1831.8 L 1713 1830.4 L 1710.5 1828.6 L 1708.4 1826 L 1706.9 1822.5 L 1706 1818 L 1705.6 1812.6 L 1705.6 1779.2 L 1695.3 1779.2 L 1695.3 1779.2 Z"/><path d="M 1830 1779.2 L 1819.6 1779.2 L 1819.6 1845.3 L 1817.6 1843.5 L 1815.3 1841.7 L 1812.7 1839.9 L 1809.8 1838.2 L 1806.8 1836.5 L 1804 1835 L 1801.4 1833.8 L 1798.8 1832.8 L 1798.8 1842.8 L 1803.1 1845 L 1807 1847.3 L 1810.7 1849.9 L 1814.1 1852.7 L 1817.1 1855.6 L 1819.7 1858.5 L 1821.7 1861.3 L 1823.3 1864 L 1830 1864 L 1830 1779.2 L 1830 1779.2 Z"/><path d="M 1862.4 1779.2 L 1862.4 1791 L 1874.2 1791 L 1874.2 1779.2 L 1862.4 1779.2 L 1862.4 1779.2 Z"/><path d="M 1889.4 1820.8 L 1889.6 1828 L 1890.2 1834.4 L 1891.1 1840.1 L 1892.5 1845 L 1894.2 1849.3 L 1896.3 1853.1 L 1898.8 1856.4 L 1901.7 1859.1 L 1904.9 1861.2 L 1908.5 1862.8 L 1912.5 1863.7 L 1916.9 1864 L 1920.3 1863.9 L 1923.4 1863.4 L 1926.2 1862.5 L 1928.9 1861.3 L 1931.4 1859.8 L 1933.6 1858 L 1935.6 1855.8 L 1937.4 1853.4 L 1939 1850.7 L 1940.4 1847.7 L 1941.6 1844.4 L 1942.6 1840.8 L 1943.4 1836.8 L 1944.1 1832.1 L 1944.4 1826.8 L 1944.5 1820.8 L 1944.4 1813.8 L 1943.8 1807.4 L 1942.8 1801.8 L 1941.5 1796.8 L 1939.7 1792.5 L 1937.7 1788.7 L 1935.2 1785.5 L 1932.3 1782.7 L 1929.1 1780.5 L 1925.5 1779 L 1921.4 1778 L 1916.9 1777.7 L 1916.2 1777.8 L 1916.9 1786.2 L 1920.4 1786.7 L 1923.6 1788 L 1926.4 1790.1 L 1929 1793.2 L 1931.1 1797.5 L 1932.7 1803.6 L 1933.6 1811.3 L 1933.9 1820.8 L 1933.6 1830.4 L 1932.7 1838.2 L 1931.1 1844.3 L 1929 1848.6 L 1926.4 1851.6 L 1923.5 1853.7 L 1920.3 1855 L 1916.8 1855.5 L 1913.4 1855.1 L 1910.4 1854 L 1907.7 1852 L 1905.4 1849.4 L 1903.1 1844.7 L 1901.4 1838.4 L 1900.4 1830.5 L 1900.1 1820.8 L 1900.1 1820.8 L 1900.4 1811.3 L 1901.3 1803.5 L 1902.8 1797.5 L 1904.9 1793.1 L 1907.5 1790.1 L 1910.4 1788 L 1913.5 1786.7 L 1916.9 1786.2 L 1916.2 1777.8 L 1911.2 1778.2 L 1906 1779.9 L 1901.6 1782.7 L 1897.8 1786.5 L 1894.1 1792.6 L 1891.5 1800.3 L 1889.9 1809.8 L 1889.4 1820.8 L 1889.4 1820.8 Z"/></g></g><use class="pcb_board-cf" mask="url(#pcb_top-cu_finish-mask)" xlink:href="#pcb_top-sm"/></g></g></svg>