<?xml version="1.0" encoding="utf-8" ?>
<svg baseProfile="tiny" height="71.794486434" version="1.2" width="107.227556434" xmlns="http://www.w3.org/2000/svg" xmlns:ev="http://www.w3.org/2001/xml-events" xmlns:xlink="http://www.w3.org/1999/xlink"><defs /><g id="paths" stroke="green"><path d="M 4.893306967,61.586218967 L 61.586218967,61.586218967 L 68.672832967,66.901179467 L 102.334249467,66.901179467 L 102.334249467,4.893306967 L 68.672832967,4.893306967 L 61.586218967,10.208267467 L 4.893306967,10.208267467 L 4.893306967,61.586218967 Z" fill-opacity="0" stroke-linejoin="round" stroke-width="1.0" /></g><g fill="red" id="top_parts" stroke="red"><line stroke-linecap="round" stroke-width="0.5" x1="79.3736" x2="79.3736" y1="63.7831" y2="8.0114" /><line stroke-linecap="round" stroke-width="0.5" x1="79.3736" x2="90.1453" y1="8.0114" y2="8.0114" /><line stroke-linecap="round" stroke-width="0.5" x1="90.1453" x2="90.1453" y1="8.0114" y2="63.7831" /><line stroke-linecap="round" stroke-width="0.5" x1="90.1453" x2="79.3736" y1="63.7831" y2="63.7831" /><text font-family="monospace" font-size="2" stroke-width="0.1" text-anchor="middle" x="84.759446747" y="35.897243217">J3</text><line stroke-linecap="round" stroke-width="0.5" x1="-6.981" x2="-6.981" y1="57.87" y2="13.9245" /><line stroke-linecap="round" stroke-width="0.5" x1="-6.981" x2="47.5944" y1="13.9245" y2="13.9245" /><line stroke-linecap="round" stroke-width="0.5" x1="47.5944" x2="47.5944" y1="13.9245" y2="57.87" /><line stroke-linecap="round" stroke-width="0.5" x1="47.5944" x2="-6.981" y1="57.87" y2="57.87" /><text font-family="monospace" font-size="2" stroke-width="0.1" text-anchor="middle" x="26.507479667" y="35.897243217">J1</text><circle cx="14.2097" cy="22.7136" r="0.8858" stroke-width="0.5" /><line stroke-linecap="round" stroke-width="0.5" x1="70.3736" x2="70.3736" y1="63.7831" y2="8.0114" /><line stroke-linecap="round" stroke-width="0.5" x1="70.3736" x2="81.1453" y1="8.0114" y2="8.0114" /><line stroke-linecap="round" stroke-width="0.5" x1="81.1453" x2="81.1453" y1="8.0114" y2="63.7831" /><line stroke-linecap="round" stroke-width="0.5" x1="81.1453" x2="70.3736" y1="63.7831" y2="63.7831" /><text font-family="monospace" font-size="2" stroke-width="0.1" text-anchor="middle" x="75.759446967" y="35.897243217">J2</text><line stroke-linecap="round" stroke-width="0.5" x1="50.1591" x2="68.0528" y1="18.978" y2="18.978" /><line stroke-linecap="round" stroke-width="0.5" x1="68.0528" x2="68.0528" y1="18.978" y2="52.285" /><line stroke-linecap="round" stroke-width="0.5" x1="68.0528" x2="50.1591" y1="52.285" y2="52.285" /><line stroke-linecap="round" stroke-width="0.5" x1="50.1591" x2="50.1591" y1="52.285" y2="18.978" /><text font-family="monospace" font-size="2" stroke-width="0.1" text-anchor="middle" x="59.105904067" y="35.631495192">SW1</text><circle cx="53.7378" cy="22.5567" r="0.8858" stroke-width="0.5" /></g><g fill="blue" id="bottom_parts" stroke="blue" /></svg>