<?xml version="1.0" encoding="utf-8" ?>
<svg baseProfile="tiny" height="68.251179434" version="1.2" width="121.400784434" xmlns="http://www.w3.org/2000/svg" xmlns:ev="http://www.w3.org/2001/xml-events" xmlns:xlink="http://www.w3.org/1999/xlink"><defs /><g id="paths" stroke="green"><path d="M 4.893306967,58.042911967 L 61.586218967,58.042911967 L 68.672832967,63.357872467 L 116.507477467,63.357872467 L 116.507477467,4.893306967 L 68.672832967,4.893306967 L 61.586218967,10.208267467 L 4.893306967,10.208267467 L 4.893306967,58.042911967 Z" fill-opacity="0" stroke-linejoin="round" stroke-width="1.0" /></g><g fill="red" id="top_parts" stroke="red"><line stroke-linecap="round" stroke-width="0.5" x1="68.0528" x2="50.1591" y1="50.5134" y2="50.5134" /><line stroke-linecap="round" stroke-width="0.5" x1="50.1591" x2="50.1591" y1="50.5134" y2="17.2063" /><line stroke-linecap="round" stroke-width="0.5" x1="50.1591" x2="68.0528" y1="17.2063" y2="17.2063" /><line stroke-linecap="round" stroke-width="0.5" x1="68.0528" x2="68.0528" y1="17.2063" y2="50.5134" /><text font-family="monospace" font-size="2" stroke-width="0.1" text-anchor="middle" x="59.105904067" y="33.859841692">SW1</text><circle cx="64.474" cy="46.9346" r="0.8858" stroke-width="0.5" /><line stroke-linecap="round" stroke-width="0.5" x1="-6.981" x2="-6.981" y1="56.0983" y2="12.1528" /><line stroke-linecap="round" stroke-width="0.5" x1="-6.981" x2="47.5944" y1="12.1528" y2="12.1528" /><line stroke-linecap="round" stroke-width="0.5" x1="47.5944" x2="47.5944" y1="12.1528" y2="56.0983" /><line stroke-linecap="round" stroke-width="0.5" x1="47.5944" x2="-6.981" y1="56.0983" y2="56.0983" /><text font-family="monospace" font-size="2" stroke-width="0.1" text-anchor="middle" x="26.507479667" y="34.125589717">J1</text><circle cx="14.2097" cy="20.9419" r="0.8858" stroke-width="0.5" /><line stroke-linecap="round" stroke-width="0.5" x1="114.4743" x2="114.4743" y1="6.4127" y2="61.8385" /><line stroke-linecap="round" stroke-width="0.5" x1="114.4743" x2="104.1902" y1="61.8385" y2="61.8385" /><line stroke-linecap="round" stroke-width="0.5" x1="104.1902" x2="104.1902" y1="61.8385" y2="6.4127" /><line stroke-linecap="round" stroke-width="0.5" x1="104.1902" x2="114.4743" y1="6.4127" y2="6.4127" /><line stroke-linecap="round" stroke-width="0.5" x1="114.4743" x2="114.4743" y1="6.4127" y2="61.8385" /><line stroke-linecap="round" stroke-width="0.5" x1="114.4743" x2="104.1902" y1="61.8385" y2="61.8385" /><line stroke-linecap="round" stroke-width="0.5" x1="104.1902" x2="104.1902" y1="61.8385" y2="6.4127" /><line stroke-linecap="round" stroke-width="0.5" x1="104.1902" x2="114.4743" y1="6.4127" y2="6.4127" /><text font-family="monospace" font-size="2" stroke-width="0.1" text-anchor="middle" x="109.332280792" y="34.125589717">J3</text><circle cx="112.4175" cy="59.7817" r="0.4429" stroke-width="0.5" /><line stroke-linecap="round" stroke-width="0.5" x1="102.7772" x2="72.3047" y1="61.3205" y2="61.3205" /><line stroke-linecap="round" stroke-width="0.5" x1="72.3047" x2="72.3047" y1="61.3205" y2="6.7535" /><line stroke-linecap="round" stroke-width="0.5" x1="72.3047" x2="102.7772" y1="6.7535" y2="6.7535" /><line stroke-linecap="round" stroke-width="0.5" x1="102.7772" x2="102.7772" y1="6.7535" y2="61.3205" /><text font-family="monospace" font-size="2" stroke-width="0.1" text-anchor="middle" x="87.540942742" y="34.037007042">J2</text><circle cx="96.6827" cy="55.226" r="0.8858" stroke-width="0.5" /></g><g fill="blue" id="bottom_parts" stroke="blue" /></svg>