<?xml version="1.0" encoding="utf-8" ?>
<svg baseProfile="tiny" height="68.251179434" version="1.2" width="121.400784434" xmlns="http://www.w3.org/2000/svg" xmlns:ev="http://www.w3.org/2001/xml-events" xmlns:xlink="http://www.w3.org/1999/xlink"><defs /><g id="paths" stroke="blue"><path d="M 4.893306967,58.042911967 L 61.586218967,58.042911967 L 68.672832967,63.357872467 L 116.507477467,63.357872467 L 116.507477467,4.893306967 L 68.672832967,4.893306967 L 61.586218967,10.208267467 L 4.893306967,10.208267467 L 4.893306967,58.042911967 Z" fill-opacity="0" stroke-linejoin="round" stroke-width="1.0" /></g><g fill="red" id="holes"><circle cx="64.9524" cy="42.7181" r="1.5945" stroke-width="0.0" /><circle cx="64.9524" cy="33.8598" r="1.5945" stroke-width="0.0" /><circle cx="64.9524" cy="25.0016" r="1.5945" stroke-width="0.0" /><circle cx="53.2594" cy="25.0016" r="1.5945" stroke-width="0.0" /><circle cx="53.2594" cy="33.8598" r="1.5945" stroke-width="0.0" /><circle cx="53.2594" cy="42.7181" r="1.5945" stroke-width="0.0" /><circle cx="16.7634" cy="34.1256" r="2.6575" stroke-width="0.0" /><circle cx="34.4799" cy="51.8421" r="2.6575" stroke-width="0.0" /><circle cx="34.4799" cy="16.4091" r="2.6575" stroke-width="0.0" /><circle cx="16.7634" cy="16.4091" r="2.8346" stroke-width="0.0" /><circle cx="16.7634" cy="51.8421" r="2.8346" stroke-width="0.0" /><circle cx="34.4799" cy="34.1256" r="2.8346" stroke-width="0.0" /><circle cx="109.3323" cy="56.6256" r="1.9488" stroke-width="0.0" /><circle cx="109.3323" cy="47.6256" r="1.9488" stroke-width="0.0" /><circle cx="109.3323" cy="38.6256" r="1.9488" stroke-width="0.0" /><circle cx="109.3323" cy="29.6256" r="1.9488" stroke-width="0.0" /><circle cx="109.3323" cy="20.6256" r="1.9488" stroke-width="0.0" /><circle cx="109.3323" cy="11.6256" r="1.9488" stroke-width="0.0" /><circle cx="87.7181" cy="34.037" r="2.3031" stroke-width="0.0" /><circle cx="87.7181" cy="16.3205" r="2.3031" stroke-width="0.0" /><circle cx="87.7181" cy="51.7535" r="2.3031" stroke-width="0.0" /></g><g id="rulers" stroke="black" /></svg>