<?xml version='1.0' encoding='UTF-8' standalone='no'?>
<svg xmlns="http://www.w3.org/2000/svg" width="550" height="309" x="0" y="0"><text x="42" y="110" font-size="10" font-family="sans-serif" text-anchor="end" alignment-baseline="hanging">J1</text><text x="416" y="200" font-size="10" font-family="sans-serif" text-anchor="end" alignment-baseline="middle">TXD</text><text x="501" y="160" font-size="10" font-family="sans-serif" text-anchor="start" alignment-baseline="hanging">J3</text><text x="451" y="139" font-size="10" font-family="sans-serif" text-anchor="start" alignment-baseline="hanging">GND</text><text x="101" y="170" font-size="10" font-family="sans-serif" text-anchor="end" alignment-baseline="hanging">SJ1-3553NG</text><text x="206" y="120" font-size="10" font-family="sans-serif" text-anchor="end" alignment-baseline="middle">J1_2</text><text x="206" y="140" font-size="10" font-family="sans-serif" text-anchor="end" alignment-baseline="middle">J1_3</text><text x="415" y="210" font-size="10" font-family="sans-serif" text-anchor="end" alignment-baseline="middle">RXD</text><text x="481" y="250" font-size="10" font-family="sans-serif" text-anchor="start" alignment-baseline="hanging">FTDI header</text><text x="326" y="130" font-size="10" font-family="sans-serif" text-anchor="start" alignment-baseline="middle">RXD</text><text x="11" y="239" font-size="10" font-family="sans-serif" text-anchor="start" alignment-baseline="hanging">GND</text><text x="501" y="10" font-size="10" font-family="sans-serif" text-anchor="start" alignment-baseline="hanging">J2</text><text x="206" y="180" font-size="10" font-family="sans-serif" text-anchor="end" alignment-baseline="middle">J1_2</text><text x="305" y="193" font-size="10" font-family="sans-serif" text-anchor="end" alignment-baseline="hanging">JS202011CQN</text><text x="326" y="170" font-size="10" font-family="sans-serif" text-anchor="start" alignment-baseline="middle">TXD</text><text x="415" y="60" font-size="10" font-family="sans-serif" text-anchor="end" alignment-baseline="middle">RXD</text><text x="282" y="96" font-size="10" font-family="sans-serif" text-anchor="end" alignment-baseline="hanging">SW1</text><text x="481" y="100" font-size="10" font-family="sans-serif" text-anchor="start" alignment-baseline="hanging">FTDI header</text><text x="451" y="289" font-size="10" font-family="sans-serif" text-anchor="start" alignment-baseline="hanging">GND</text><text x="106" y="150" font-size="10" font-family="sans-serif" text-anchor="start" alignment-baseline="middle">J1_3</text><text x="106" y="130" font-size="10" font-family="sans-serif" text-anchor="start" alignment-baseline="middle">J1_2</text><text x="416" y="50" font-size="10" font-family="sans-serif" text-anchor="end" alignment-baseline="middle">TXD</text><text x="206" y="160" font-size="10" font-family="sans-serif" text-anchor="end" alignment-baseline="middle">J1_3</text><line x1="226" y1="120" x2="231" y2="120" stroke-width="2" stroke="black"></line><line x1="211" y1="120" x2="216" y2="117" stroke-width="2" stroke="black"></line><line x1="211" y1="120" x2="216" y2="123" stroke-width="2" stroke="black"></line><line x1="216" y1="117" x2="221" y2="117" stroke-width="2" stroke="black"></line><line x1="216" y1="123" x2="221" y2="123" stroke-width="2" stroke="black"></line><line x1="221" y1="117" x2="226" y2="120" stroke-width="2" stroke="black"></line><line x1="221" y1="123" x2="226" y2="120" stroke-width="2" stroke="black"></line><line x1="436" y1="60" x2="441" y2="60" stroke-width="2" stroke="black"></line><line x1="431" y1="57" x2="436" y2="60" stroke-width="2" stroke="black"></line><line x1="431" y1="63" x2="436" y2="60" stroke-width="2" stroke="black"></line><line x1="431" y1="57" x2="421" y2="57" stroke-width="2" stroke="black"></line><line x1="431" y1="63" x2="421" y2="63" stroke-width="2" stroke="black"></line><line x1="421" y1="57" x2="421" y2="63" stroke-width="2" stroke="black"></line><line x1="86" y1="130" x2="81" y2="130" stroke-width="2" stroke="black"></line><line x1="101" y1="130" x2="96" y2="127" stroke-width="2" stroke="black"></line><line x1="101" y1="130" x2="96" y2="133" stroke-width="2" stroke="black"></line><line x1="96" y1="127" x2="91" y2="127" stroke-width="2" stroke="black"></line><line x1="96" y1="133" x2="91" y2="133" stroke-width="2" stroke="black"></line><line x1="91" y1="127" x2="86" y2="130" stroke-width="2" stroke="black"></line><line x1="91" y1="133" x2="86" y2="130" stroke-width="2" stroke="black"></line><line x1="86" y1="150" x2="81" y2="150" stroke-width="2" stroke="black"></line><line x1="101" y1="150" x2="96" y2="147" stroke-width="2" stroke="black"></line><line x1="101" y1="150" x2="96" y2="153" stroke-width="2" stroke="black"></line><line x1="96" y1="147" x2="91" y2="147" stroke-width="2" stroke="black"></line><line x1="96" y1="153" x2="91" y2="153" stroke-width="2" stroke="black"></line><line x1="91" y1="147" x2="86" y2="150" stroke-width="2" stroke="black"></line><line x1="91" y1="153" x2="86" y2="150" stroke-width="2" stroke="black"></line><line x1="226" y1="160" x2="231" y2="160" stroke-width="2" stroke="black"></line><line x1="211" y1="160" x2="216" y2="157" stroke-width="2" stroke="black"></line><line x1="211" y1="160" x2="216" y2="163" stroke-width="2" stroke="black"></line><line x1="216" y1="157" x2="221" y2="157" stroke-width="2" stroke="black"></line><line x1="216" y1="163" x2="221" y2="163" stroke-width="2" stroke="black"></line><line x1="221" y1="157" x2="226" y2="160" stroke-width="2" stroke="black"></line><line x1="221" y1="163" x2="226" y2="160" stroke-width="2" stroke="black"></line><line x1="306" y1="130" x2="301" y2="130" stroke-width="2" stroke="black"></line><line x1="311" y1="133" x2="306" y2="130" stroke-width="2" stroke="black"></line><line x1="311" y1="127" x2="306" y2="130" stroke-width="2" stroke="black"></line><line x1="311" y1="133" x2="321" y2="133" stroke-width="2" stroke="black"></line><line x1="311" y1="127" x2="321" y2="127" stroke-width="2" stroke="black"></line><line x1="321" y1="133" x2="321" y2="127" stroke-width="2" stroke="black"></line><circle cx="278" cy="130" r="2" style="stroke: #000; stroke-width: 1; fill: none;"></circle><circle cx="264" cy="120" r="2" style="stroke: #000; stroke-width: 1; fill: none;"></circle><line x1="276" y1="129" x2="262" y2="123" stroke-width="2" stroke="black"></line><line x1="291" y1="130" x2="281" y2="130" stroke-width="2" stroke="black"></line><line x1="251" y1="120" x2="261" y2="120" stroke-width="2" stroke="black"></line><line x1="251" y1="140" x2="261" y2="140" stroke-width="2" stroke="black"></line><circle cx="264" cy="140" r="2" style="stroke: #000; stroke-width: 1; fill: none;"></circle><line x1="291" y1="170" x2="281" y2="170" stroke-width="2" stroke="black"></line><line x1="251" y1="160" x2="261" y2="160" stroke-width="2" stroke="black"></line><line x1="251" y1="180" x2="261" y2="180" stroke-width="2" stroke="black"></line><circle cx="278" cy="170" r="2" style="stroke: #000; stroke-width: 1; fill: none;"></circle><circle cx="264" cy="160" r="2" style="stroke: #000; stroke-width: 1; fill: none;"></circle><circle cx="264" cy="180" r="2" style="stroke: #000; stroke-width: 1; fill: none;"></circle><line x1="276" y1="169" x2="262" y2="163" stroke-width="2" stroke="black"></line><line x1="270" y1="127" x2="270" y2="130" stroke-width="2" stroke="black"></line><line x1="270" y1="133" x2="270" y2="136" stroke-width="2" stroke="black"></line><line x1="270" y1="139" x2="270" y2="142" stroke-width="2" stroke="black"></line><line x1="270" y1="145" x2="270" y2="148" stroke-width="2" stroke="black"></line><line x1="270" y1="151" x2="270" y2="154" stroke-width="2" stroke="black"></line><line x1="270" y1="163" x2="270" y2="166" stroke-width="2" stroke="black"></line><line x1="270" y1="157" x2="270" y2="160" stroke-width="2" stroke="black"></line><rect width="30" height="70" x="501" y="20" style="stroke: #000; stroke-width: 1; fill: none;"></rect><line x1="491" y1="40" x2="501" y2="40" stroke-width="2" stroke="black"></line><text x="503" y="40" font-size="10" font-family="sans-serif" text-anchor="start" alignment-baseline="middle">CTS</text><line x1="491" y1="80" x2="501" y2="80" stroke-width="2" stroke="black"></line><text x="503" y="80" font-size="10" font-family="sans-serif" text-anchor="start" alignment-baseline="middle">GND</text><line x1="491" y1="70" x2="501" y2="70" stroke-width="2" stroke="black"></line><text x="503" y="70" font-size="10" font-family="sans-serif" text-anchor="start" alignment-baseline="middle">RTS</text><line x1="491" y1="60" x2="501" y2="60" stroke-width="2" stroke="black"></line><text x="503" y="60" font-size="10" font-family="sans-serif" text-anchor="start" alignment-baseline="middle">RXD</text><line x1="491" y1="50" x2="501" y2="50" stroke-width="2" stroke="black"></line><text x="503" y="50" font-size="10" font-family="sans-serif" text-anchor="start" alignment-baseline="middle">TXD</text><line x1="491" y1="30" x2="501" y2="30" stroke-width="2" stroke="black"></line><text x="503" y="30" font-size="10" font-family="sans-serif" text-anchor="start" alignment-baseline="middle">VCC</text><line x1="436" y1="210" x2="441" y2="210" stroke-width="2" stroke="black"></line><line x1="431" y1="207" x2="436" y2="210" stroke-width="2" stroke="black"></line><line x1="431" y1="213" x2="436" y2="210" stroke-width="2" stroke="black"></line><line x1="431" y1="207" x2="421" y2="207" stroke-width="2" stroke="black"></line><line x1="431" y1="213" x2="421" y2="213" stroke-width="2" stroke="black"></line><line x1="421" y1="207" x2="421" y2="213" stroke-width="2" stroke="black"></line><line x1="306" y1="170" x2="301" y2="170" stroke-width="2" stroke="black"></line><line x1="321" y1="170" x2="316" y2="167" stroke-width="2" stroke="black"></line><line x1="321" y1="170" x2="316" y2="173" stroke-width="2" stroke="black"></line><line x1="316" y1="167" x2="306" y2="167" stroke-width="2" stroke="black"></line><line x1="316" y1="173" x2="306" y2="173" stroke-width="2" stroke="black"></line><line x1="306" y1="167" x2="306" y2="173" stroke-width="2" stroke="black"></line><line x1="458" y1="187" x2="464" y2="193" stroke-width="2" stroke="black"></line><line x1="458" y1="193" x2="464" y2="187" stroke-width="2" stroke="black"></line><line x1="21" y1="210" x2="21" y2="220" stroke-width="2" stroke="black"></line><line x1="11" y1="220" x2="31" y2="220" stroke-width="2" stroke="black"></line><line x1="14" y1="225" x2="28" y2="225" stroke-width="2" stroke="black"></line><line x1="17" y1="230" x2="25" y2="230" stroke-width="2" stroke="black"></line><line x1="226" y1="140" x2="231" y2="140" stroke-width="2" stroke="black"></line><line x1="211" y1="140" x2="216" y2="137" stroke-width="2" stroke="black"></line><line x1="211" y1="140" x2="216" y2="143" stroke-width="2" stroke="black"></line><line x1="216" y1="137" x2="221" y2="137" stroke-width="2" stroke="black"></line><line x1="216" y1="143" x2="221" y2="143" stroke-width="2" stroke="black"></line><line x1="221" y1="137" x2="226" y2="140" stroke-width="2" stroke="black"></line><line x1="221" y1="143" x2="226" y2="140" stroke-width="2" stroke="black"></line><line x1="436" y1="200" x2="441" y2="200" stroke-width="2" stroke="black"></line><line x1="421" y1="200" x2="426" y2="197" stroke-width="2" stroke="black"></line><line x1="421" y1="200" x2="426" y2="203" stroke-width="2" stroke="black"></line><line x1="426" y1="197" x2="436" y2="197" stroke-width="2" stroke="black"></line><line x1="426" y1="203" x2="436" y2="203" stroke-width="2" stroke="black"></line><line x1="436" y1="197" x2="436" y2="203" stroke-width="2" stroke="black"></line><line x1="458" y1="37" x2="464" y2="43" stroke-width="2" stroke="black"></line><line x1="458" y1="43" x2="464" y2="37" stroke-width="2" stroke="black"></line><rect width="30" height="70" x="501" y="170" style="stroke: #000; stroke-width: 1; fill: none;"></rect><line x1="491" y1="190" x2="501" y2="190" stroke-width="2" stroke="black"></line><text x="503" y="190" font-size="10" font-family="sans-serif" text-anchor="start" alignment-baseline="middle">CTS</text><line x1="491" y1="230" x2="501" y2="230" stroke-width="2" stroke="black"></line><text x="503" y="230" font-size="10" font-family="sans-serif" text-anchor="start" alignment-baseline="middle">GND</text><line x1="491" y1="220" x2="501" y2="220" stroke-width="2" stroke="black"></line><text x="503" y="220" font-size="10" font-family="sans-serif" text-anchor="start" alignment-baseline="middle">RTS</text><line x1="491" y1="210" x2="501" y2="210" stroke-width="2" stroke="black"></line><text x="503" y="210" font-size="10" font-family="sans-serif" text-anchor="start" alignment-baseline="middle">RXD</text><line x1="491" y1="200" x2="501" y2="200" stroke-width="2" stroke="black"></line><text x="503" y="200" font-size="10" font-family="sans-serif" text-anchor="start" alignment-baseline="middle">TXD</text><line x1="491" y1="180" x2="501" y2="180" stroke-width="2" stroke="black"></line><text x="503" y="180" font-size="10" font-family="sans-serif" text-anchor="start" alignment-baseline="middle">VCC</text><line x1="458" y1="217" x2="464" y2="223" stroke-width="2" stroke="black"></line><line x1="458" y1="223" x2="464" y2="217" stroke-width="2" stroke="black"></line><line x1="461" y1="110" x2="461" y2="120" stroke-width="2" stroke="black"></line><line x1="451" y1="120" x2="471" y2="120" stroke-width="2" stroke="black"></line><line x1="454" y1="125" x2="468" y2="125" stroke-width="2" stroke="black"></line><line x1="457" y1="130" x2="465" y2="130" stroke-width="2" stroke="black"></line><line x1="436" y1="50" x2="441" y2="50" stroke-width="2" stroke="black"></line><line x1="421" y1="50" x2="426" y2="47" stroke-width="2" stroke="black"></line><line x1="421" y1="50" x2="426" y2="53" stroke-width="2" stroke="black"></line><line x1="426" y1="47" x2="436" y2="47" stroke-width="2" stroke="black"></line><line x1="426" y1="53" x2="436" y2="53" stroke-width="2" stroke="black"></line><line x1="436" y1="47" x2="436" y2="53" stroke-width="2" stroke="black"></line><line x1="226" y1="180" x2="231" y2="180" stroke-width="2" stroke="black"></line><line x1="211" y1="180" x2="216" y2="177" stroke-width="2" stroke="black"></line><line x1="211" y1="180" x2="216" y2="183" stroke-width="2" stroke="black"></line><line x1="216" y1="177" x2="221" y2="177" stroke-width="2" stroke="black"></line><line x1="216" y1="183" x2="221" y2="183" stroke-width="2" stroke="black"></line><line x1="221" y1="177" x2="226" y2="180" stroke-width="2" stroke="black"></line><line x1="221" y1="183" x2="226" y2="180" stroke-width="2" stroke="black"></line><line x1="458" y1="67" x2="464" y2="73" stroke-width="2" stroke="black"></line><line x1="458" y1="73" x2="464" y2="67" stroke-width="2" stroke="black"></line><line x1="51" y1="130" x2="48" y2="135" stroke-width="2" stroke="black"></line><line x1="48" y1="135" x2="45" y2="130" stroke-width="2" stroke="black"></line><line x1="44" y1="150" x2="41" y2="145" stroke-width="2" stroke="black"></line><line x1="41" y1="145" x2="38" y2="150" stroke-width="2" stroke="black"></line><line x1="25" y1="130" x2="17" y2="130" stroke-width="2" stroke="black"></line><line x1="25" y1="130" x2="25" y2="150" stroke-width="2" stroke="black"></line><line x1="17" y1="130" x2="17" y2="150" stroke-width="2" stroke="black"></line><line x1="17" y1="150" x2="25" y2="150" stroke-width="2" stroke="black"></line><line x1="61" y1="130" x2="51" y2="130" stroke-width="2" stroke="black"></line><line x1="61" y1="150" x2="44" y2="150" stroke-width="2" stroke="black"></line><line x1="21" y1="150" x2="21" y2="160" stroke-width="2" stroke="black"></line><line x1="458" y1="177" x2="464" y2="183" stroke-width="2" stroke="black"></line><line x1="458" y1="183" x2="464" y2="177" stroke-width="2" stroke="black"></line><line x1="461" y1="260" x2="461" y2="270" stroke-width="2" stroke="black"></line><line x1="451" y1="270" x2="471" y2="270" stroke-width="2" stroke="black"></line><line x1="454" y1="275" x2="468" y2="275" stroke-width="2" stroke="black"></line><line x1="457" y1="280" x2="465" y2="280" stroke-width="2" stroke="black"></line><line x1="458" y1="27" x2="464" y2="33" stroke-width="2" stroke="black"></line><line x1="458" y1="33" x2="464" y2="27" stroke-width="2" stroke="black"></line><line x1="461" y1="200" x2="491" y2="200" stroke-width="2" stroke="black"></line><line x1="461" y1="80" x2="491" y2="80" stroke-width="2" stroke="black"></line><line x1="441" y1="200" x2="461" y2="200" stroke-width="2" stroke="black"></line><line x1="461" y1="110" x2="461" y2="80" stroke-width="2" stroke="black"></line><line x1="81" y1="150" x2="61" y2="150" stroke-width="2" stroke="black"></line><line x1="491" y1="220" x2="471" y2="220" stroke-width="2" stroke="black"></line><line x1="471" y1="180" x2="491" y2="180" stroke-width="2" stroke="black"></line><line x1="461" y1="180" x2="471" y2="180" stroke-width="2" stroke="black"></line><line x1="491" y1="40" x2="461" y2="40" stroke-width="2" stroke="black"></line><line x1="251" y1="180" x2="241" y2="180" stroke-width="2" stroke="black"></line><line x1="81" y1="130" x2="71" y2="130" stroke-width="2" stroke="black"></line><line x1="461" y1="230" x2="461" y2="260" stroke-width="2" stroke="black"></line><line x1="301" y1="170" x2="291" y2="170" stroke-width="2" stroke="black"></line><line x1="461" y1="220" x2="471" y2="220" stroke-width="2" stroke="black"></line><line x1="461" y1="210" x2="491" y2="210" stroke-width="2" stroke="black"></line><line x1="461" y1="210" x2="441" y2="210" stroke-width="2" stroke="black"></line><line x1="21" y1="210" x2="21" y2="160" stroke-width="2" stroke="black"></line><line x1="301" y1="130" x2="291" y2="130" stroke-width="2" stroke="black"></line><line x1="461" y1="70" x2="491" y2="70" stroke-width="2" stroke="black"></line><line x1="491" y1="30" x2="461" y2="30" stroke-width="2" stroke="black"></line><line x1="251" y1="140" x2="231" y2="140" stroke-width="2" stroke="black"></line><line x1="471" y1="190" x2="461" y2="190" stroke-width="2" stroke="black"></line><line x1="471" y1="190" x2="491" y2="190" stroke-width="2" stroke="black"></line><line x1="61" y1="130" x2="71" y2="130" stroke-width="2" stroke="black"></line><line x1="231" y1="160" x2="251" y2="160" stroke-width="2" stroke="black"></line><line x1="241" y1="120" x2="231" y2="120" stroke-width="2" stroke="black"></line><line x1="241" y1="120" x2="251" y2="120" stroke-width="2" stroke="black"></line><line x1="231" y1="180" x2="241" y2="180" stroke-width="2" stroke="black"></line><line x1="461" y1="50" x2="491" y2="50" stroke-width="2" stroke="black"></line><line x1="461" y1="50" x2="441" y2="50" stroke-width="2" stroke="black"></line><line x1="491" y1="230" x2="461" y2="230" stroke-width="2" stroke="black"></line><line x1="461" y1="60" x2="491" y2="60" stroke-width="2" stroke="black"></line><line x1="461" y1="60" x2="441" y2="60" stroke-width="2" stroke="black"></line></svg>