%FSLAX33Y33*%
%MOMM*%
%AMRect-W1500000-H1500000-RO1.000*
21,1,1.5,1.5,0.,0.,180*%
%AMRR-H2200001-W599999-R299999-RO0.500*
21,1,0.000001,2.200001,0.,0.,270*
21,1,0.599999,1.600003,0.,0.,270*
1,1,0.599998,0.8000015,0.0000005*
1,1,0.599998,0.8000015,-0.0000005*
1,1,0.599998,-0.8000015,-0.0000005*
1,1,0.599998,-0.8000015,0.0000005*%
%ADD10C,0.0508*%
%ADD11C,0.4064*%
%ADD12C,0.635*%
%ADD13C,0.7112*%
%ADD14R,2.X2.*%
%ADD15C,2.*%
%ADD16R,1.5X1.5*%
%ADD17C,1.5*%
%ADD18C,1.778*%
%ADD19C,1.5*%
%ADD20Rect-W1500000-H1500000-RO1.000*%
%ADD21RR-H2200001-W599999-R299999-RO0.500*%
D10*
%LNpour fill*%
G01*
X7174Y12700D02*
X7174Y12700D01*
X7174Y12700*
X7183Y12787*
X7183Y12787*
X7208Y12871*
X7208Y12871*
X7249Y12948*
X7249Y12948*
X7305Y13015*
X7305Y13015*
X7372Y13071*
X7372Y13071*
X7449Y13112*
X7449Y13112*
X7533Y13137*
X7533Y13137*
X7620Y13146*
X7620Y13146*
X8890Y13146*
X8890Y13423*
X8816Y13445*
X8816Y13445*
X8737Y13487*
X8737Y13487*
X8667Y13544*
X8667Y13544*
X6654Y15557*
X6471Y15512*
X6471Y15512*
X6229Y15512*
X6229Y15512*
X5994Y15570*
X5994Y15570*
X5779Y15683*
X5779Y15683*
X5598Y15843*
X5598Y15843*
X5460Y16043*
X5460Y16043*
X5374Y16269*
X5374Y16269*
X5345Y16510*
X5345Y16510*
X5374Y16751*
X5374Y16751*
X5460Y16977*
X5460Y16977*
X5598Y17177*
X5598Y17177*
X5779Y17337*
X5779Y17337*
X5994Y17450*
X5994Y17450*
X6229Y17508*
X6229Y17508*
X6471Y17508*
X6471Y17508*
X6706Y17450*
X6706Y17450*
X6921Y17337*
X6921Y17337*
X7102Y17177*
X7102Y17177*
X7240Y16977*
X7240Y16977*
X7326Y16751*
X7326Y16751*
X7355Y16510*
X7355Y16510*
X7326Y16269*
X7326Y16269*
X7302Y16206*
X7807Y15702*
X7885Y15734*
X7885Y17260*
X7885Y17260*
X7888Y17300*
X7888Y17300*
X7897Y17339*
X7897Y17339*
X7913Y17376*
X7913Y17376*
X7933Y17410*
X7934Y17410*
X7960Y17440*
X7960Y17440*
X7990Y17466*
X7990Y17467*
X8024Y17487*
X8024Y17487*
X8061Y17503*
X8061Y17503*
X8100Y17512*
X8100Y17512*
X8140Y17515*
X8140Y17515*
X9640Y17515*
X9640Y17515*
X9680Y17512*
X9680Y17512*
X9719Y17503*
X9719Y17503*
X9756Y17487*
X9756Y17487*
X9790Y17467*
X9790Y17466*
X9820Y17440*
X9820Y17440*
X9846Y17410*
X9847Y17410*
X9867Y17376*
X9867Y17376*
X9883Y17339*
X9883Y17339*
X9892Y17300*
X9892Y17300*
X9895Y17260*
X9895Y17260*
X9895Y16153*
X10655Y15394*
X21692Y15394*
X21692Y15394*
X21781Y15385*
X21781Y15385*
X21867Y15359*
X21867Y15359*
X21946Y15316*
X21946Y15316*
X22016Y15259*
X22016Y15259*
X22289Y14986*
X27178Y14986*
X27249Y19874*
X2861Y19874*
X0446Y12628*
X0446Y0446*
X7174Y0446*
X7174Y12700*
X5218Y3944D02*
X4942Y3944D01*
X4674Y4010*
X4430Y4139*
X4224Y4321*
X4067Y4548*
X3969Y4806*
X3936Y5080*
X3969Y5354*
X4067Y5612*
X4224Y5839*
X4430Y6021*
X4674Y6150*
X4942Y6216*
X5218Y6216*
X5486Y6150*
X5730Y6021*
X5936Y5839*
X6093Y5612*
X6191Y5354*
X6224Y5080*
X6191Y4806*
X6093Y4548*
X5936Y4321*
X5730Y4139*
X5486Y4010*
X5218Y3944*
X2740Y3960D02*
X2740Y4261D01*
X2340Y4261*
X2340Y3960*
X2134Y4010*
X1890Y4139*
X1684Y4321*
X1527Y4548*
X1429Y4806*
X1420Y4880*
X1714Y4880*
X1714Y5280*
X1420Y5280*
X1429Y5354*
X1527Y5612*
X1684Y5839*
X1890Y6021*
X2134Y6150*
X2340Y6200*
X2340Y5899*
X2740Y5899*
X2740Y6200*
X2946Y6150*
X3190Y6021*
X3396Y5839*
X3553Y5612*
X3651Y5354*
X3660Y5280*
X3365Y5280*
X3365Y4880*
X3660Y4880*
X3651Y4806*
X3553Y4548*
X3396Y4321*
X3190Y4139*
X2946Y4010*
X2740Y3960*
X5218Y1404D02*
X4942Y1404D01*
X4674Y1470*
X4430Y1599*
X4224Y1781*
X4067Y2008*
X3969Y2266*
X3936Y2540*
X3969Y2814*
X4067Y3072*
X4224Y3299*
X4430Y3481*
X4674Y3610*
X4942Y3676*
X5218Y3676*
X5486Y3610*
X5730Y3481*
X5936Y3299*
X6093Y3072*
X6191Y2814*
X6224Y2540*
X6191Y2266*
X6093Y2008*
X5936Y1781*
X5730Y1599*
X5486Y1470*
X5218Y1404*
X2740Y1420D02*
X2740Y1721D01*
X2340Y1721*
X2340Y1420*
X2134Y1470*
X1890Y1599*
X1684Y1781*
X1527Y2008*
X1429Y2266*
X1420Y2340*
X1714Y2340*
X1714Y2740*
X1420Y2740*
X1429Y2814*
X1527Y3072*
X1684Y3299*
X1890Y3481*
X2134Y3610*
X2340Y3660*
X2340Y3359*
X2740Y3359*
X2740Y3660*
X2946Y3610*
X3190Y3481*
X3396Y3299*
X3553Y3072*
X3651Y2814*
X3660Y2740*
X3365Y2740*
X3365Y2340*
X3660Y2340*
X3651Y2266*
X3553Y2008*
X3396Y1781*
X3190Y1599*
X2946Y1470*
X2740Y1420*
X0446Y0495D02*
X7175Y0495D01*
X0446Y0545D02*
X7175Y0545D01*
X0446Y0594D02*
X7175Y0594D01*
X0446Y0644D02*
X7175Y0644D01*
X0446Y0693D02*
X7175Y0693D01*
X0446Y0743D02*
X7175Y0743D01*
X0446Y0792D02*
X7175Y0792D01*
X0446Y0842D02*
X7175Y0842D01*
X0446Y0891D02*
X7175Y0891D01*
X0446Y0941D02*
X7175Y0941D01*
X0446Y0990D02*
X7175Y0990D01*
X0446Y1040D02*
X7175Y1040D01*
X0446Y1089D02*
X7175Y1089D01*
X0446Y1139D02*
X7175Y1139D01*
X0446Y1188D02*
X7175Y1188D01*
X0446Y1238D02*
X7175Y1238D01*
X0446Y1288D02*
X7175Y1288D01*
X0446Y1337D02*
X7175Y1337D01*
X0446Y1387D02*
X7175Y1387D01*
X0446Y1436D02*
X2272Y1436D01*
X2340Y1436D02*
X2740Y1436D01*
X2808Y1436D02*
X4812Y1436D01*
X5348Y1436D02*
X7175Y1436D01*
X0446Y1486D02*
X2105Y1486D01*
X2340Y1486D02*
X2740Y1486D01*
X2975Y1486D02*
X4645Y1486D01*
X5515Y1486D02*
X7175Y1486D01*
X0446Y1535D02*
X2010Y1535D01*
X2340Y1535D02*
X2740Y1535D01*
X3070Y1535D02*
X4550Y1535D01*
X5610Y1535D02*
X7175Y1535D01*
X0446Y1585D02*
X1916Y1585D01*
X2340Y1585D02*
X2740Y1585D01*
X3164Y1585D02*
X4456Y1585D01*
X5704Y1585D02*
X7175Y1585D01*
X0446Y1634D02*
X1849Y1634D01*
X2340Y1634D02*
X2740Y1634D01*
X3231Y1634D02*
X4389Y1634D01*
X5771Y1634D02*
X7175Y1634D01*
X0446Y1684D02*
X1794Y1684D01*
X2340Y1684D02*
X2740Y1684D01*
X3286Y1684D02*
X4334Y1684D01*
X5826Y1684D02*
X7175Y1684D01*
X0446Y1733D02*
X1738Y1733D01*
X3342Y1733D02*
X4278Y1733D01*
X5882Y1733D02*
X7175Y1733D01*
X0446Y1783D02*
X1682Y1783D01*
X3398Y1783D02*
X4222Y1783D01*
X5938Y1783D02*
X7175Y1783D01*
X0446Y1832D02*
X1648Y1832D01*
X3432Y1832D02*
X4188Y1832D01*
X5972Y1832D02*
X7175Y1832D01*
X0446Y1882D02*
X1614Y1882D01*
X3466Y1882D02*
X4154Y1882D01*
X6006Y1882D02*
X7175Y1882D01*
X0446Y1931D02*
X1580Y1931D01*
X3500Y1931D02*
X4120Y1931D01*
X6040Y1931D02*
X7175Y1931D01*
X0446Y1981D02*
X1546Y1981D01*
X3534Y1981D02*
X4086Y1981D01*
X6074Y1981D02*
X7175Y1981D01*
X0446Y2030D02*
X1518Y2030D01*
X3562Y2030D02*
X4058Y2030D01*
X6102Y2030D02*
X7175Y2030D01*
X0446Y2080D02*
X1500Y2080D01*
X3580Y2080D02*
X4040Y2080D01*
X6120Y2080D02*
X7175Y2080D01*
X0446Y2130D02*
X1481Y2130D01*
X3599Y2130D02*
X4021Y2130D01*
X6139Y2130D02*
X7175Y2130D01*
X0446Y2179D02*
X1462Y2179D01*
X3618Y2179D02*
X4002Y2179D01*
X6158Y2179D02*
X7175Y2179D01*
X0446Y2229D02*
X1443Y2229D01*
X3637Y2229D02*
X3983Y2229D01*
X6177Y2229D02*
X7175Y2229D01*
X0446Y2278D02*
X1428Y2278D01*
X3652Y2278D02*
X3968Y2278D01*
X6192Y2278D02*
X7175Y2278D01*
X0446Y2328D02*
X1422Y2328D01*
X3658Y2328D02*
X3962Y2328D01*
X6198Y2328D02*
X7175Y2328D01*
X0446Y2377D02*
X1714Y2377D01*
X3366Y2377D02*
X3956Y2377D01*
X6204Y2377D02*
X7175Y2377D01*
X0446Y2427D02*
X1714Y2427D01*
X3366Y2427D02*
X3950Y2427D01*
X6210Y2427D02*
X7175Y2427D01*
X0446Y2476D02*
X1714Y2476D01*
X3366Y2476D02*
X3943Y2476D01*
X6217Y2476D02*
X7175Y2476D01*
X0446Y2526D02*
X1714Y2526D01*
X3366Y2526D02*
X3937Y2526D01*
X6223Y2526D02*
X7175Y2526D01*
X0446Y2575D02*
X1714Y2575D01*
X3366Y2575D02*
X3940Y2575D01*
X6220Y2575D02*
X7175Y2575D01*
X0446Y2625D02*
X1714Y2625D01*
X3366Y2625D02*
X3946Y2625D01*
X6214Y2625D02*
X7175Y2625D01*
X0446Y2674D02*
X1714Y2674D01*
X3366Y2674D02*
X3952Y2674D01*
X6208Y2674D02*
X7175Y2674D01*
X0446Y2724D02*
X1714Y2724D01*
X3366Y2724D02*
X3958Y2724D01*
X6202Y2724D02*
X7175Y2724D01*
X0446Y2773D02*
X1424Y2773D01*
X3656Y2773D02*
X3964Y2773D01*
X6196Y2773D02*
X7175Y2773D01*
X0446Y2823D02*
X1432Y2823D01*
X3648Y2823D02*
X3972Y2823D01*
X6188Y2823D02*
X7175Y2823D01*
X0446Y2872D02*
X1451Y2872D01*
X3629Y2872D02*
X3991Y2872D01*
X6169Y2872D02*
X7175Y2872D01*
X0446Y2922D02*
X1470Y2922D01*
X3610Y2922D02*
X4010Y2922D01*
X6150Y2922D02*
X7175Y2922D01*
X0446Y2972D02*
X1489Y2972D01*
X3591Y2972D02*
X4029Y2972D01*
X6131Y2972D02*
X7175Y2972D01*
X0446Y3021D02*
X1508Y3021D01*
X3572Y3021D02*
X4048Y3021D01*
X6112Y3021D02*
X7175Y3021D01*
X0446Y3071D02*
X1526Y3071D01*
X3554Y3071D02*
X4066Y3071D01*
X6094Y3071D02*
X7175Y3071D01*
X0446Y3120D02*
X1560Y3120D01*
X3520Y3120D02*
X4100Y3120D01*
X6060Y3120D02*
X7175Y3120D01*
X0446Y3170D02*
X1594Y3170D01*
X3486Y3170D02*
X4134Y3170D01*
X6026Y3170D02*
X7175Y3170D01*
X0446Y3219D02*
X1629Y3219D01*
X3451Y3219D02*
X4169Y3219D01*
X5991Y3219D02*
X7175Y3219D01*
X0446Y3269D02*
X1663Y3269D01*
X3417Y3269D02*
X4203Y3269D01*
X5957Y3269D02*
X7175Y3269D01*
X0446Y3318D02*
X1705Y3318D01*
X3375Y3318D02*
X4245Y3318D01*
X5915Y3318D02*
X7175Y3318D01*
X0446Y3368D02*
X1761Y3368D01*
X2340Y3368D02*
X2740Y3368D01*
X3319Y3368D02*
X4301Y3368D01*
X5859Y3368D02*
X7175Y3368D01*
X0446Y3417D02*
X1817Y3417D01*
X2340Y3417D02*
X2740Y3417D01*
X3263Y3417D02*
X4357Y3417D01*
X5803Y3417D02*
X7175Y3417D01*
X0446Y3467D02*
X1873Y3467D01*
X2340Y3467D02*
X2740Y3467D01*
X3207Y3467D02*
X4413Y3467D01*
X5747Y3467D02*
X7175Y3467D01*
X0446Y3516D02*
X1956Y3516D01*
X2340Y3516D02*
X2740Y3516D01*
X3124Y3516D02*
X4496Y3516D01*
X5664Y3516D02*
X7175Y3516D01*
X0446Y3566D02*
X2050Y3566D01*
X2340Y3566D02*
X2740Y3566D01*
X3030Y3566D02*
X4590Y3566D01*
X5570Y3566D02*
X7175Y3566D01*
X0446Y3615D02*
X2157Y3615D01*
X2340Y3615D02*
X2740Y3615D01*
X2923Y3615D02*
X4697Y3615D01*
X5463Y3615D02*
X7175Y3615D01*
X0446Y3665D02*
X4898Y3665D01*
X5262Y3665D02*
X7175Y3665D01*
X0446Y3714D02*
X7175Y3714D01*
X0446Y3764D02*
X7175Y3764D01*
X0446Y3814D02*
X7175Y3814D01*
X0446Y3863D02*
X7175Y3863D01*
X0446Y3913D02*
X7175Y3913D01*
X0446Y3962D02*
X2329Y3962D01*
X2340Y3962D02*
X2740Y3962D01*
X2751Y3962D02*
X4869Y3962D01*
X5291Y3962D02*
X7175Y3962D01*
X0446Y4012D02*
X2131Y4012D01*
X2340Y4012D02*
X2740Y4012D01*
X2949Y4012D02*
X4671Y4012D01*
X5489Y4012D02*
X7175Y4012D01*
X0446Y4061D02*
X2037Y4061D01*
X2340Y4061D02*
X2740Y4061D01*
X3043Y4061D02*
X4577Y4061D01*
X5583Y4061D02*
X7175Y4061D01*
X0446Y4111D02*
X1943Y4111D01*
X2340Y4111D02*
X2740Y4111D01*
X3137Y4111D02*
X4483Y4111D01*
X5677Y4111D02*
X7175Y4111D01*
X0446Y4160D02*
X1865Y4160D01*
X2340Y4160D02*
X2740Y4160D01*
X3215Y4160D02*
X4405Y4160D01*
X5755Y4160D02*
X7175Y4160D01*
X0446Y4210D02*
X1809Y4210D01*
X2340Y4210D02*
X2740Y4210D01*
X3271Y4210D02*
X4349Y4210D01*
X5811Y4210D02*
X7175Y4210D01*
X0446Y4259D02*
X1753Y4259D01*
X2340Y4259D02*
X2740Y4259D01*
X3327Y4259D02*
X4293Y4259D01*
X5867Y4259D02*
X7175Y4259D01*
X0446Y4309D02*
X1697Y4309D01*
X3383Y4309D02*
X4237Y4309D01*
X5923Y4309D02*
X7175Y4309D01*
X0446Y4358D02*
X1658Y4358D01*
X3422Y4358D02*
X4198Y4358D01*
X5962Y4358D02*
X7175Y4358D01*
X0446Y4408D02*
X1624Y4408D01*
X3456Y4408D02*
X4164Y4408D01*
X5996Y4408D02*
X7175Y4408D01*
X0446Y4457D02*
X1589Y4457D01*
X3491Y4457D02*
X4129Y4457D01*
X6031Y4457D02*
X7175Y4457D01*
X0446Y4507D02*
X1555Y4507D01*
X3525Y4507D02*
X4095Y4507D01*
X6065Y4507D02*
X7175Y4507D01*
X0446Y4556D02*
X1524Y4556D01*
X3556Y4556D02*
X4064Y4556D01*
X6096Y4556D02*
X7175Y4556D01*
X0446Y4606D02*
X1505Y4606D01*
X3575Y4606D02*
X4045Y4606D01*
X6115Y4606D02*
X7175Y4606D01*
X0446Y4656D02*
X1486Y4656D01*
X3594Y4656D02*
X4026Y4656D01*
X6134Y4656D02*
X7175Y4656D01*
X0446Y4705D02*
X1467Y4705D01*
X3613Y4705D02*
X4007Y4705D01*
X6153Y4705D02*
X7175Y4705D01*
X0446Y4755D02*
X1449Y4755D01*
X3631Y4755D02*
X3989Y4755D01*
X6171Y4755D02*
X7175Y4755D01*
X0446Y4804D02*
X1430Y4804D01*
X3650Y4804D02*
X3970Y4804D01*
X6190Y4804D02*
X7175Y4804D01*
X0446Y4854D02*
X1423Y4854D01*
X3657Y4854D02*
X3963Y4854D01*
X6197Y4854D02*
X7175Y4854D01*
X0446Y4903D02*
X1714Y4903D01*
X3366Y4903D02*
X3957Y4903D01*
X6203Y4903D02*
X7175Y4903D01*
X0446Y4953D02*
X1714Y4953D01*
X3366Y4953D02*
X3951Y4953D01*
X6209Y4953D02*
X7175Y4953D01*
X0446Y5002D02*
X1714Y5002D01*
X3366Y5002D02*
X3945Y5002D01*
X6215Y5002D02*
X7175Y5002D01*
X0446Y5052D02*
X1714Y5052D01*
X3366Y5052D02*
X3939Y5052D01*
X6221Y5052D02*
X7175Y5052D01*
X0446Y5101D02*
X1714Y5101D01*
X3366Y5101D02*
X3938Y5101D01*
X6222Y5101D02*
X7175Y5101D01*
X0446Y5151D02*
X1714Y5151D01*
X3366Y5151D02*
X3944Y5151D01*
X6216Y5151D02*
X7175Y5151D01*
X0446Y5200D02*
X1714Y5200D01*
X3366Y5200D02*
X3950Y5200D01*
X6210Y5200D02*
X7175Y5200D01*
X0446Y5250D02*
X1714Y5250D01*
X3366Y5250D02*
X3956Y5250D01*
X6204Y5250D02*
X7175Y5250D01*
X0446Y5299D02*
X1422Y5299D01*
X3658Y5299D02*
X3962Y5299D01*
X6198Y5299D02*
X7175Y5299D01*
X0446Y5349D02*
X1428Y5349D01*
X3652Y5349D02*
X3968Y5349D01*
X6192Y5349D02*
X7175Y5349D01*
X0446Y5399D02*
X1446Y5399D01*
X3634Y5399D02*
X3986Y5399D01*
X6174Y5399D02*
X7175Y5399D01*
X0446Y5448D02*
X1465Y5448D01*
X3615Y5448D02*
X4005Y5448D01*
X6155Y5448D02*
X7175Y5448D01*
X0446Y5498D02*
X1484Y5498D01*
X3596Y5498D02*
X4024Y5498D01*
X6136Y5498D02*
X7175Y5498D01*
X0446Y5547D02*
X1502Y5547D01*
X3578Y5547D02*
X4042Y5547D01*
X6118Y5547D02*
X7175Y5547D01*
X0446Y5597D02*
X1521Y5597D01*
X3559Y5597D02*
X4061Y5597D01*
X6099Y5597D02*
X7175Y5597D01*
X0446Y5646D02*
X1551Y5646D01*
X3529Y5646D02*
X4091Y5646D01*
X6069Y5646D02*
X7175Y5646D01*
X0446Y5696D02*
X1585Y5696D01*
X3495Y5696D02*
X4125Y5696D01*
X6035Y5696D02*
X7175Y5696D01*
X0446Y5745D02*
X1619Y5745D01*
X3461Y5745D02*
X4159Y5745D01*
X6001Y5745D02*
X7175Y5745D01*
X0446Y5795D02*
X1653Y5795D01*
X3427Y5795D02*
X4193Y5795D01*
X5967Y5795D02*
X7175Y5795D01*
X0446Y5844D02*
X1690Y5844D01*
X3390Y5844D02*
X4230Y5844D01*
X5930Y5844D02*
X7175Y5844D01*
X0446Y5894D02*
X1746Y5894D01*
X3334Y5894D02*
X4286Y5894D01*
X5874Y5894D02*
X7175Y5894D01*
X0446Y5943D02*
X1802Y5943D01*
X2340Y5943D02*
X2740Y5943D01*
X3278Y5943D02*
X4342Y5943D01*
X5818Y5943D02*
X7175Y5943D01*
X0446Y5993D02*
X1857Y5993D01*
X2340Y5993D02*
X2740Y5993D01*
X3223Y5993D02*
X4397Y5993D01*
X5763Y5993D02*
X7175Y5993D01*
X0446Y6042D02*
X1929Y6042D01*
X2340Y6042D02*
X2740Y6042D01*
X3151Y6042D02*
X4469Y6042D01*
X5691Y6042D02*
X7175Y6042D01*
X0446Y6092D02*
X2024Y6092D01*
X2340Y6092D02*
X2740Y6092D01*
X3056Y6092D02*
X4564Y6092D01*
X5596Y6092D02*
X7175Y6092D01*
X0446Y6141D02*
X2118Y6141D01*
X2340Y6141D02*
X2740Y6141D01*
X2962Y6141D02*
X4658Y6141D01*
X5502Y6141D02*
X7175Y6141D01*
X0446Y6191D02*
X2301Y6191D01*
X2340Y6191D02*
X2740Y6191D01*
X2779Y6191D02*
X4841Y6191D01*
X5319Y6191D02*
X7175Y6191D01*
X0446Y6241D02*
X7175Y6241D01*
X0446Y6290D02*
X7175Y6290D01*
X0446Y6340D02*
X7175Y6340D01*
X0446Y6389D02*
X7175Y6389D01*
X0446Y6439D02*
X7175Y6439D01*
X0446Y6488D02*
X7175Y6488D01*
X0446Y6538D02*
X7175Y6538D01*
X0446Y6587D02*
X7175Y6587D01*
X0446Y6637D02*
X7175Y6637D01*
X0446Y6686D02*
X7175Y6686D01*
X0446Y6736D02*
X7175Y6736D01*
X0446Y6785D02*
X7175Y6785D01*
X0446Y6835D02*
X7175Y6835D01*
X0446Y6884D02*
X7175Y6884D01*
X0446Y6934D02*
X7175Y6934D01*
X0446Y6983D02*
X7175Y6983D01*
X0446Y7033D02*
X7175Y7033D01*
X0446Y7083D02*
X7175Y7083D01*
X0446Y7132D02*
X7175Y7132D01*
X0446Y7182D02*
X7175Y7182D01*
X0446Y7231D02*
X7175Y7231D01*
X0446Y7281D02*
X7175Y7281D01*
X0446Y7330D02*
X7175Y7330D01*
X0446Y7380D02*
X7175Y7380D01*
X0446Y7429D02*
X7175Y7429D01*
X0446Y7479D02*
X7175Y7479D01*
X0446Y7528D02*
X7175Y7528D01*
X0446Y7578D02*
X7175Y7578D01*
X0446Y7627D02*
X7175Y7627D01*
X0446Y7677D02*
X7175Y7677D01*
X0446Y7726D02*
X7175Y7726D01*
X0446Y7776D02*
X7175Y7776D01*
X0446Y7825D02*
X7175Y7825D01*
X0446Y7875D02*
X7175Y7875D01*
X0446Y7925D02*
X7175Y7925D01*
X0446Y7974D02*
X7175Y7974D01*
X0446Y8024D02*
X7175Y8024D01*
X0446Y8073D02*
X7175Y8073D01*
X0446Y8123D02*
X7175Y8123D01*
X0446Y8172D02*
X7175Y8172D01*
X0446Y8222D02*
X7175Y8222D01*
X0446Y8271D02*
X7175Y8271D01*
X0446Y8321D02*
X7175Y8321D01*
X0446Y8370D02*
X7175Y8370D01*
X0446Y8420D02*
X7175Y8420D01*
X0446Y8469D02*
X7175Y8469D01*
X0446Y8519D02*
X7175Y8519D01*
X0446Y8568D02*
X7175Y8568D01*
X0446Y8618D02*
X7175Y8618D01*
X0446Y8667D02*
X7175Y8667D01*
X0446Y8717D02*
X7175Y8717D01*
X0446Y8767D02*
X7175Y8767D01*
X0446Y8816D02*
X7175Y8816D01*
X0446Y8866D02*
X7175Y8866D01*
X0446Y8915D02*
X7175Y8915D01*
X0446Y8965D02*
X7175Y8965D01*
X0446Y9014D02*
X7175Y9014D01*
X0446Y9064D02*
X7175Y9064D01*
X0446Y9113D02*
X7175Y9113D01*
X0446Y9163D02*
X7175Y9163D01*
X0446Y9212D02*
X7175Y9212D01*
X0446Y9262D02*
X7175Y9262D01*
X0446Y9311D02*
X7175Y9311D01*
X0446Y9361D02*
X7175Y9361D01*
X0446Y9410D02*
X7175Y9410D01*
X0446Y9460D02*
X7175Y9460D01*
X0446Y9509D02*
X7175Y9509D01*
X0446Y9559D02*
X7175Y9559D01*
X0446Y9609D02*
X7175Y9609D01*
X0446Y9658D02*
X7175Y9658D01*
X0446Y9708D02*
X7175Y9708D01*
X0446Y9757D02*
X7175Y9757D01*
X0446Y9807D02*
X7175Y9807D01*
X0446Y9856D02*
X7175Y9856D01*
X0446Y9906D02*
X7175Y9906D01*
X0446Y9955D02*
X7175Y9955D01*
X0446Y10005D02*
X7175Y10005D01*
X0446Y10054D02*
X7175Y10054D01*
X0446Y10104D02*
X7175Y10104D01*
X0446Y10153D02*
X7175Y10153D01*
X0446Y10203D02*
X7175Y10203D01*
X0446Y10252D02*
X7175Y10252D01*
X0446Y10302D02*
X7175Y10302D01*
X0446Y10352D02*
X7175Y10352D01*
X0446Y10401D02*
X7175Y10401D01*
X0446Y10451D02*
X7175Y10451D01*
X0446Y10500D02*
X7175Y10500D01*
X0446Y10550D02*
X7175Y10550D01*
X0446Y10599D02*
X7175Y10599D01*
X0446Y10649D02*
X7175Y10649D01*
X0446Y10698D02*
X7175Y10698D01*
X0446Y10748D02*
X7175Y10748D01*
X0446Y10797D02*
X7175Y10797D01*
X0446Y10847D02*
X7175Y10847D01*
X0446Y10896D02*
X7175Y10896D01*
X0446Y10946D02*
X7175Y10946D01*
X0446Y10995D02*
X7175Y10995D01*
X0446Y11045D02*
X7175Y11045D01*
X0446Y11094D02*
X7175Y11094D01*
X0446Y11144D02*
X7175Y11144D01*
X0446Y11194D02*
X7175Y11194D01*
X0446Y11243D02*
X7175Y11243D01*
X0446Y11293D02*
X7175Y11293D01*
X0446Y11342D02*
X7175Y11342D01*
X0446Y11392D02*
X7175Y11392D01*
X0446Y11441D02*
X7175Y11441D01*
X0446Y11491D02*
X7175Y11491D01*
X0446Y11540D02*
X7175Y11540D01*
X0446Y11590D02*
X7175Y11590D01*
X0446Y11639D02*
X7175Y11639D01*
X0446Y11689D02*
X7175Y11689D01*
X0446Y11738D02*
X7175Y11738D01*
X0446Y11788D02*
X7175Y11788D01*
X0446Y11837D02*
X7175Y11837D01*
X0446Y11887D02*
X7175Y11887D01*
X0446Y11936D02*
X7175Y11936D01*
X0446Y11986D02*
X7175Y11986D01*
X0446Y12036D02*
X7175Y12036D01*
X0446Y12085D02*
X7175Y12085D01*
X0446Y12135D02*
X7175Y12135D01*
X0446Y12184D02*
X7175Y12184D01*
X0446Y12234D02*
X7175Y12234D01*
X0446Y12283D02*
X7175Y12283D01*
X0446Y12333D02*
X7175Y12333D01*
X0446Y12382D02*
X7175Y12382D01*
X0446Y12432D02*
X7175Y12432D01*
X0446Y12481D02*
X7175Y12481D01*
X0446Y12531D02*
X7175Y12531D01*
X0446Y12580D02*
X7175Y12580D01*
X0446Y12630D02*
X7175Y12630D01*
X0463Y12679D02*
X7175Y12679D01*
X0479Y12729D02*
X7177Y12729D01*
X0496Y12778D02*
X7182Y12778D01*
X0512Y12828D02*
X7196Y12828D01*
X0529Y12878D02*
X7212Y12878D01*
X0545Y12927D02*
X7239Y12927D01*
X0562Y12977D02*
X7273Y12977D01*
X0578Y13026D02*
X7319Y13026D01*
X0595Y13076D02*
X7382Y13076D01*
X0611Y13125D02*
X7494Y13125D01*
X0628Y13175D02*
X8890Y13175D01*
X0644Y13224D02*
X8890Y13224D01*
X0661Y13274D02*
X8890Y13274D01*
X0677Y13323D02*
X8890Y13323D01*
X0694Y13373D02*
X8890Y13373D01*
X0710Y13422D02*
X8890Y13422D01*
X0727Y13472D02*
X8766Y13472D01*
X0743Y13521D02*
X8696Y13521D01*
X0760Y13571D02*
X8641Y13571D01*
X0776Y13620D02*
X8592Y13620D01*
X0793Y13670D02*
X8542Y13670D01*
X0809Y13720D02*
X8492Y13720D01*
X0826Y13769D02*
X8443Y13769D01*
X0842Y13819D02*
X8393Y13819D01*
X0859Y13868D02*
X8344Y13868D01*
X0875Y13918D02*
X8294Y13918D01*
X0892Y13967D02*
X8245Y13967D01*
X0909Y14017D02*
X8195Y14017D01*
X0925Y14066D02*
X8146Y14066D01*
X0942Y14116D02*
X8096Y14116D01*
X0958Y14165D02*
X8047Y14165D01*
X0975Y14215D02*
X7997Y14215D01*
X0991Y14264D02*
X7948Y14264D01*
X1008Y14314D02*
X7898Y14314D01*
X1024Y14363D02*
X7849Y14363D01*
X1041Y14413D02*
X7799Y14413D01*
X1057Y14462D02*
X7750Y14462D01*
X1074Y14512D02*
X7700Y14512D01*
X1090Y14562D02*
X7650Y14562D01*
X1107Y14611D02*
X7601Y14611D01*
X1123Y14661D02*
X7551Y14661D01*
X1140Y14710D02*
X7502Y14710D01*
X1156Y14760D02*
X7452Y14760D01*
X1173Y14809D02*
X7403Y14809D01*
X1189Y14859D02*
X7353Y14859D01*
X1206Y14908D02*
X7304Y14908D01*
X1222Y14958D02*
X7254Y14958D01*
X1239Y15007D02*
X7205Y15007D01*
X22267Y15007D02*
X27178Y15007D01*
X1255Y15057D02*
X7155Y15057D01*
X22218Y15057D02*
X27179Y15057D01*
X1272Y15106D02*
X7106Y15106D01*
X22168Y15106D02*
X27180Y15106D01*
X1288Y15156D02*
X7056Y15156D01*
X22119Y15156D02*
X27180Y15156D01*
X1305Y15205D02*
X7007Y15205D01*
X22069Y15205D02*
X27181Y15205D01*
X1321Y15255D02*
X6957Y15255D01*
X22020Y15255D02*
X27182Y15255D01*
X1338Y15305D02*
X6908Y15305D01*
X21960Y15305D02*
X27183Y15305D01*
X1354Y15354D02*
X6858Y15354D01*
X21875Y15354D02*
X27183Y15354D01*
X1371Y15404D02*
X6808Y15404D01*
X10644Y15404D02*
X27184Y15404D01*
X1387Y15453D02*
X6759Y15453D01*
X10595Y15453D02*
X27185Y15453D01*
X1404Y15503D02*
X6709Y15503D01*
X10545Y15503D02*
X27186Y15503D01*
X1420Y15552D02*
X6067Y15552D01*
X6633Y15552D02*
X6660Y15552D01*
X10496Y15552D02*
X27186Y15552D01*
X1437Y15602D02*
X5934Y15602D01*
X10446Y15602D02*
X27187Y15602D01*
X1453Y15651D02*
X5839Y15651D01*
X10397Y15651D02*
X27188Y15651D01*
X1470Y15701D02*
X5759Y15701D01*
X10347Y15701D02*
X27188Y15701D01*
X1486Y15750D02*
X5703Y15750D01*
X7758Y15750D02*
X7885Y15750D01*
X10298Y15750D02*
X27189Y15750D01*
X1503Y15800D02*
X5647Y15800D01*
X7708Y15800D02*
X7885Y15800D01*
X10248Y15800D02*
X27190Y15800D01*
X1519Y15849D02*
X5594Y15849D01*
X7659Y15849D02*
X7885Y15849D01*
X10199Y15849D02*
X27191Y15849D01*
X1536Y15899D02*
X5560Y15899D01*
X7609Y15899D02*
X7885Y15899D01*
X10149Y15899D02*
X27191Y15899D01*
X1552Y15948D02*
X5525Y15948D01*
X7560Y15948D02*
X7885Y15948D01*
X10100Y15948D02*
X27192Y15948D01*
X1569Y15998D02*
X5491Y15998D01*
X7510Y15998D02*
X7885Y15998D01*
X10050Y15998D02*
X27193Y15998D01*
X1585Y16047D02*
X5458Y16047D01*
X7461Y16047D02*
X7885Y16047D01*
X10001Y16047D02*
X27193Y16047D01*
X1602Y16097D02*
X5440Y16097D01*
X7411Y16097D02*
X7885Y16097D01*
X9951Y16097D02*
X27194Y16097D01*
X1618Y16147D02*
X5421Y16147D01*
X7361Y16147D02*
X7885Y16147D01*
X9901Y16147D02*
X27195Y16147D01*
X1635Y16196D02*
X5402Y16196D01*
X7312Y16196D02*
X7885Y16196D01*
X9895Y16196D02*
X27196Y16196D01*
X1651Y16246D02*
X5383Y16246D01*
X7317Y16246D02*
X7885Y16246D01*
X9895Y16246D02*
X27196Y16246D01*
X1668Y16295D02*
X5371Y16295D01*
X7329Y16295D02*
X7885Y16295D01*
X9895Y16295D02*
X27197Y16295D01*
X1684Y16345D02*
X5365Y16345D01*
X7335Y16345D02*
X7885Y16345D01*
X9895Y16345D02*
X27198Y16345D01*
X1701Y16394D02*
X5359Y16394D01*
X7341Y16394D02*
X7885Y16394D01*
X9895Y16394D02*
X27199Y16394D01*
X1717Y16444D02*
X5353Y16444D01*
X7347Y16444D02*
X7885Y16444D01*
X9895Y16444D02*
X27199Y16444D01*
X1734Y16493D02*
X5347Y16493D01*
X7353Y16493D02*
X7885Y16493D01*
X9895Y16493D02*
X27200Y16493D01*
X1751Y16543D02*
X5349Y16543D01*
X7351Y16543D02*
X7885Y16543D01*
X9895Y16543D02*
X27201Y16543D01*
X1767Y16592D02*
X5355Y16592D01*
X7345Y16592D02*
X7885Y16592D01*
X9895Y16592D02*
X27201Y16592D01*
X1784Y16642D02*
X5361Y16642D01*
X7339Y16642D02*
X7885Y16642D01*
X9895Y16642D02*
X27202Y16642D01*
X1800Y16691D02*
X5367Y16691D01*
X7333Y16691D02*
X7885Y16691D01*
X9895Y16691D02*
X27203Y16691D01*
X1817Y16741D02*
X5373Y16741D01*
X7327Y16741D02*
X7885Y16741D01*
X9895Y16741D02*
X27204Y16741D01*
X1833Y16790D02*
X5389Y16790D01*
X7311Y16790D02*
X7885Y16790D01*
X9895Y16790D02*
X27204Y16790D01*
X1850Y16840D02*
X5408Y16840D01*
X7292Y16840D02*
X7885Y16840D01*
X9895Y16840D02*
X27205Y16840D01*
X1866Y16889D02*
X5427Y16889D01*
X7273Y16889D02*
X7885Y16889D01*
X9895Y16889D02*
X27206Y16889D01*
X1883Y16939D02*
X5446Y16939D01*
X7254Y16939D02*
X7885Y16939D01*
X9895Y16939D02*
X27206Y16939D01*
X1899Y16989D02*
X5468Y16989D01*
X7232Y16989D02*
X7885Y16989D01*
X9895Y16989D02*
X27207Y16989D01*
X1916Y17038D02*
X5502Y17038D01*
X7198Y17038D02*
X7885Y17038D01*
X9895Y17038D02*
X27208Y17038D01*
X1932Y17088D02*
X5536Y17088D01*
X7164Y17088D02*
X7885Y17088D01*
X9895Y17088D02*
X27209Y17088D01*
X1949Y17137D02*
X5571Y17137D01*
X7129Y17137D02*
X7885Y17137D01*
X9895Y17137D02*
X27209Y17137D01*
X1965Y17187D02*
X5609Y17187D01*
X7091Y17187D02*
X7885Y17187D01*
X9895Y17187D02*
X27210Y17187D01*
X1982Y17236D02*
X5665Y17236D01*
X7035Y17236D02*
X7885Y17236D01*
X9895Y17236D02*
X27211Y17236D01*
X1998Y17286D02*
X5721Y17286D01*
X6979Y17286D02*
X7887Y17286D01*
X9893Y17286D02*
X27211Y17286D01*
X2015Y17335D02*
X5777Y17335D01*
X6923Y17335D02*
X7897Y17335D01*
X9883Y17335D02*
X27212Y17335D01*
X2031Y17385D02*
X5870Y17385D01*
X6830Y17385D02*
X7918Y17385D01*
X9862Y17385D02*
X27213Y17385D01*
X2048Y17434D02*
X5964Y17434D01*
X6736Y17434D02*
X7955Y17434D01*
X9825Y17434D02*
X27214Y17434D01*
X2064Y17484D02*
X6132Y17484D01*
X6568Y17484D02*
X8019Y17484D01*
X9761Y17484D02*
X27214Y17484D01*
X2081Y17533D02*
X27215Y17533D01*
X2097Y17583D02*
X27216Y17583D01*
X2114Y17632D02*
X27217Y17632D01*
X2130Y17682D02*
X27217Y17682D01*
X2147Y17731D02*
X27218Y17731D01*
X2163Y17781D02*
X27219Y17781D01*
X2180Y17831D02*
X27219Y17831D01*
X2196Y17880D02*
X27220Y17880D01*
X2213Y17930D02*
X27221Y17930D01*
X2229Y17979D02*
X27222Y17979D01*
X2246Y18029D02*
X27222Y18029D01*
X2262Y18078D02*
X27223Y18078D01*
X2279Y18128D02*
X27224Y18128D01*
X2295Y18177D02*
X27224Y18177D01*
X2312Y18227D02*
X27225Y18227D01*
X2328Y18276D02*
X27226Y18276D01*
X2345Y18326D02*
X27227Y18326D01*
X2361Y18375D02*
X27227Y18375D01*
X2378Y18425D02*
X27228Y18425D01*
X2394Y18474D02*
X27229Y18474D01*
X2411Y18524D02*
X27230Y18524D01*
X2427Y18573D02*
X27230Y18573D01*
X2444Y18623D02*
X27231Y18623D01*
X2460Y18673D02*
X27232Y18673D01*
X2477Y18722D02*
X27232Y18722D01*
X2493Y18772D02*
X27233Y18772D01*
X2510Y18821D02*
X27234Y18821D01*
X2526Y18871D02*
X27235Y18871D01*
X2543Y18920D02*
X27235Y18920D01*
X2560Y18970D02*
X27236Y18970D01*
X2576Y19019D02*
X27237Y19019D01*
X2593Y19069D02*
X27237Y19069D01*
X2609Y19118D02*
X27238Y19118D01*
X2626Y19168D02*
X27239Y19168D01*
X2642Y19217D02*
X27240Y19217D01*
X2659Y19267D02*
X27240Y19267D01*
X2675Y19316D02*
X27241Y19316D01*
X2692Y19366D02*
X27242Y19366D01*
X2708Y19415D02*
X27243Y19415D01*
X2725Y19465D02*
X27243Y19465D01*
X2741Y19515D02*
X27244Y19515D01*
X2758Y19564D02*
X27245Y19564D01*
X2774Y19614D02*
X27245Y19614D01*
X2791Y19663D02*
X27246Y19663D01*
X2807Y19713D02*
X27247Y19713D01*
X2824Y19762D02*
X27248Y19762D01*
X2840Y19812D02*
X27248Y19812D01*
X2857Y19861D02*
X27249Y19861D01*
%LNbottom copper_traces*%
D11*
X22809Y12776D02*
X24170Y12776D01*
D12*
X12649Y16510D02*
X10592Y18567D01*
D11*
X21819Y12217D02*
X21819Y13310D01*
X29070Y10236D02*
X27330Y10236D01*
X21692Y14935D02*
X10465Y14935D01*
X21819Y13310D02*
X21260Y13868D01*
X8992Y13868D02*
X6350Y16510D01*
X26619Y10947D02*
X26619Y15138D01*
X41986Y14046D02*
X44450Y16510D01*
X24170Y11506D02*
X22530Y11506D01*
X24170Y14046D02*
X22581Y14046D01*
X10465Y14935D02*
X8890Y16510D01*
X27330Y10236D02*
X26619Y10947D01*
X21260Y13868D02*
X8992Y13868D01*
D12*
X2540Y2540D02*
X2540Y5080D01*
X24170Y16510D02*
X12649Y16510D01*
D11*
X48260Y12700D02*
X44450Y16510D01*
X29070Y14046D02*
X41986Y14046D01*
X48260Y2540D02*
X48260Y12700D01*
X22530Y11506D02*
X21819Y12217D01*
X22581Y14046D02*
X21692Y14935D01*
D13*
X22809Y12776D03*
%LNbottom copper component d884e53a61bc2bc3*%
D14*
X24170Y16510D03*
D15*
X29170Y16510D03*
%LNbottom copper component 69ae52b910a5c8af*%
D16*
X44450Y16510D03*
D17*
X46990Y16510D03*
%LNbottom copper component 8889ed7dfd5d4ee6*%
D18*
X2540Y5080D03*
X2540Y2540D03*
X5080Y5080D03*
X5080Y2540D03*
%LNbottom copper component d1eda6cb61111443*%
X48260Y5080D03*
X48260Y2540D03*
X50800Y5080D03*
X50800Y2540D03*
%LNbottom copper component e1997f597a53e994*%
D19*
X6350Y16510D03*
D20*
X8890Y16510D03*
%LNbottom copper component f63e28837d57bac3*%
D21*
X24270Y10236D03*
X24270Y11506D03*
X24270Y12776D03*
X24270Y14046D03*
X29070Y10236D03*
X29070Y11506D03*
X29070Y12776D03*
X29070Y14046D03*
M02*