%FSLAX33Y33*%
%MOMM*%
%AMRect-W1500000-H1500000-RO1.000*
21,1,1.5,1.5,0.,0.,180*%
%ADD10C,0.0508*%
%ADD11C,0.7112*%
%ADD12R,2.X2.*%
%ADD13C,2.*%
%ADD14R,1.5X1.5*%
%ADD15C,1.5*%
%ADD16C,1.778*%
%ADD17C,1.5*%
%ADD18Rect-W1500000-H1500000-RO1.000*%
D10*
%LNpour fill*%
G01*
X52894Y12628D02*
X52894Y12628D01*
X50479Y19874*
X2861Y19874*
X0446Y12628*
X0446Y0446*
X7174Y0446*
X7174Y12700*
X7174Y12700*
X7183Y12787*
X7183Y12787*
X7208Y12871*
X7208Y12871*
X7249Y12948*
X7249Y12948*
X7305Y13015*
X7305Y13015*
X7372Y13071*
X7372Y13071*
X7449Y13112*
X7449Y13112*
X7533Y13137*
X7533Y13137*
X7620Y13146*
X7620Y13146*
X20320Y13146*
X20320Y13146*
X20336Y13144*
X20352Y13145*
X20352Y13145*
X20379Y13140*
X20407Y13137*
X20407Y13137*
X20422Y13133*
X20438Y13130*
X20438Y13130*
X20464Y13120*
X20491Y13112*
X20491Y13112*
X20505Y13104*
X20519Y13099*
X20519Y13099*
X20543Y13084*
X20568Y13071*
X20568Y13071*
X20580Y13061*
X20593Y13052*
X20593Y13052*
X20614Y13033*
X20635Y13015*
X20635Y13015*
X20645Y13003*
X20657Y12992*
X20657Y12992*
X20673Y12969*
X20691Y12948*
X20691Y12948*
X20698Y12934*
X20707Y12921*
X20707Y12921*
X20719Y12895*
X20732Y12871*
X20732Y12871*
X20736Y12855*
X20743Y12841*
X20743Y12841*
X21911Y9336*
X31429Y9336*
X32597Y12841*
X32597Y12841*
X32604Y12855*
X32608Y12871*
X32608Y12871*
X32621Y12895*
X32633Y12921*
X32633Y12921*
X32642Y12934*
X32649Y12948*
X32649Y12948*
X32667Y12969*
X32683Y12992*
X32683Y12992*
X32695Y13003*
X32705Y13015*
X32705Y13015*
X32726Y13033*
X32747Y13052*
X32747Y13052*
X32760Y13061*
X32772Y13071*
X32772Y13071*
X32797Y13084*
X32821Y13099*
X32821Y13099*
X32835Y13104*
X32849Y13112*
X32849Y13112*
X32876Y13120*
X32902Y13130*
X32902Y13130*
X32918Y13133*
X32933Y13137*
X32933Y13137*
X32961Y13140*
X32988Y13145*
X32988Y13145*
X33004Y13144*
X33020Y13146*
X33020Y13146*
X45720Y13146*
X45720Y13146*
X45807Y13137*
X45807Y13137*
X45891Y13112*
X45891Y13112*
X45968Y13071*
X45968Y13071*
X46035Y13015*
X46035Y13015*
X46091Y12948*
X46091Y12948*
X46132Y12871*
X46132Y12871*
X46157Y12787*
X46157Y12787*
X46166Y12700*
X46166Y12700*
X46166Y0446*
X52894Y0446*
X52894Y12628*
X25170Y15255D02*
X23170Y15255D01*
X23130Y15258*
X23091Y15267*
X23054Y15283*
X23020Y15304*
X22990Y15330*
X22964Y15360*
X22943Y15394*
X22927Y15431*
X22918Y15470*
X22915Y15510*
X22915Y17510*
X22918Y17550*
X22927Y17589*
X22943Y17626*
X22964Y17660*
X22990Y17690*
X23020Y17716*
X23054Y17737*
X23091Y17753*
X23130Y17762*
X23170Y17765*
X25170Y17765*
X25210Y17762*
X25249Y17753*
X25286Y17737*
X25320Y17716*
X25350Y17690*
X25376Y17660*
X25397Y17626*
X25413Y17589*
X25422Y17550*
X25425Y17510*
X25425Y15510*
X25422Y15470*
X25413Y15431*
X25397Y15394*
X25376Y15360*
X25350Y15330*
X25320Y15304*
X25286Y15283*
X25249Y15267*
X25210Y15258*
X25170Y15255*
X9640Y15505D02*
X8140Y15505D01*
X8100Y15508*
X8061Y15517*
X8024Y15533*
X7990Y15554*
X7960Y15580*
X7934Y15610*
X7913Y15644*
X7897Y15681*
X7888Y15720*
X7885Y15760*
X7885Y17260*
X7888Y17300*
X7897Y17339*
X7913Y17376*
X7934Y17410*
X7960Y17440*
X7990Y17466*
X8024Y17487*
X8061Y17503*
X8100Y17512*
X8140Y17515*
X9640Y17515*
X9680Y17512*
X9719Y17503*
X9756Y17487*
X9790Y17466*
X9820Y17440*
X9846Y17410*
X9867Y17376*
X9883Y17339*
X9892Y17300*
X9895Y17260*
X9895Y15760*
X9892Y15720*
X9883Y15681*
X9867Y15644*
X9846Y15610*
X9820Y15580*
X9790Y15554*
X9756Y15533*
X9719Y15517*
X9680Y15508*
X9640Y15505*
X45200Y15505D02*
X43700Y15505D01*
X43660Y15508*
X43621Y15517*
X43584Y15533*
X43550Y15554*
X43520Y15580*
X43494Y15610*
X43473Y15644*
X43457Y15681*
X43448Y15720*
X43445Y15760*
X43445Y17260*
X43448Y17300*
X43457Y17339*
X43473Y17376*
X43494Y17410*
X43520Y17440*
X43550Y17466*
X43584Y17487*
X43621Y17503*
X43660Y17512*
X43700Y17515*
X45200Y17515*
X45240Y17512*
X45279Y17503*
X45316Y17487*
X45350Y17466*
X45380Y17440*
X45406Y17410*
X45427Y17376*
X45443Y17339*
X45452Y17300*
X45455Y17260*
X45455Y15760*
X45452Y15720*
X45443Y15681*
X45427Y15644*
X45406Y15610*
X45380Y15580*
X45350Y15554*
X45316Y15533*
X45279Y15517*
X45240Y15508*
X45200Y15505*
X6471Y15512D02*
X6229Y15512D01*
X5994Y15570*
X5779Y15683*
X5598Y15844*
X5460Y16043*
X5374Y16269*
X5345Y16510*
X5374Y16751*
X5460Y16977*
X5598Y17176*
X5779Y17337*
X5994Y17450*
X6229Y17508*
X6471Y17508*
X6706Y17450*
X6921Y17337*
X7102Y17176*
X7240Y16977*
X7326Y16751*
X7355Y16510*
X7326Y16269*
X7240Y16043*
X7102Y15844*
X6921Y15683*
X6706Y15570*
X6471Y15512*
X47190Y15532D02*
X47190Y15829D01*
X46790Y15829*
X46790Y15532*
X46634Y15570*
X46419Y15683*
X46238Y15844*
X46100Y16043*
X46014Y16269*
X46009Y16310*
X46303Y16310*
X46303Y16710*
X46009Y16710*
X46014Y16751*
X46100Y16977*
X46238Y17176*
X46419Y17337*
X46634Y17450*
X46790Y17488*
X46790Y17191*
X47190Y17191*
X47190Y17488*
X47346Y17450*
X47561Y17337*
X47742Y17176*
X47880Y16977*
X47966Y16751*
X47971Y16710*
X47676Y16710*
X47676Y16310*
X47971Y16310*
X47966Y16269*
X47880Y16043*
X47742Y15844*
X47561Y15683*
X47346Y15570*
X47190Y15532*
X2678Y3944D02*
X2402Y3944D01*
X2134Y4010*
X1890Y4139*
X1684Y4321*
X1527Y4548*
X1429Y4806*
X1396Y5080*
X1429Y5354*
X1527Y5612*
X1684Y5839*
X1890Y6021*
X2134Y6150*
X2402Y6216*
X2678Y6216*
X2946Y6150*
X3190Y6021*
X3396Y5839*
X3553Y5612*
X3651Y5354*
X3684Y5080*
X3651Y4806*
X3553Y4548*
X3396Y4321*
X3190Y4139*
X2946Y4010*
X2678Y3944*
X5218Y3944D02*
X5207Y3944D01*
X5207Y4261*
X4953Y4261*
X4953Y3944*
X4942Y3944*
X4674Y4010*
X4430Y4139*
X4224Y4321*
X4067Y4548*
X3969Y4806*
X3951Y4953*
X4255Y4953*
X4255Y5207*
X3951Y5207*
X3969Y5354*
X4067Y5612*
X4224Y5839*
X4430Y6021*
X4674Y6150*
X4942Y6216*
X4953Y6216*
X4953Y5899*
X5207Y5899*
X5207Y6216*
X5218Y6216*
X5486Y6150*
X5730Y6021*
X5936Y5839*
X6093Y5612*
X6191Y5354*
X6209Y5207*
X5905Y5207*
X5905Y4953*
X6209Y4953*
X6191Y4806*
X6093Y4548*
X5936Y4321*
X5730Y4139*
X5486Y4010*
X5218Y3944*
X48398Y3944D02*
X48122Y3944D01*
X47854Y4010*
X47610Y4139*
X47404Y4321*
X47247Y4548*
X47149Y4806*
X47116Y5080*
X47149Y5354*
X47247Y5612*
X47404Y5839*
X47610Y6021*
X47854Y6150*
X48122Y6216*
X48398Y6216*
X48666Y6150*
X48910Y6021*
X49116Y5839*
X49273Y5612*
X49371Y5354*
X49404Y5080*
X49371Y4806*
X49273Y4548*
X49116Y4321*
X48910Y4139*
X48666Y4010*
X48398Y3944*
X50938Y3944D02*
X50927Y3944D01*
X50927Y4261*
X50673Y4261*
X50673Y3944*
X50662Y3944*
X50394Y4010*
X50150Y4139*
X49944Y4321*
X49787Y4548*
X49689Y4806*
X49671Y4953*
X49974Y4953*
X49974Y5207*
X49671Y5207*
X49689Y5354*
X49787Y5612*
X49944Y5839*
X50150Y6021*
X50394Y6150*
X50662Y6216*
X50673Y6216*
X50673Y5899*
X50927Y5899*
X50927Y6216*
X50938Y6216*
X51206Y6150*
X51450Y6021*
X51656Y5839*
X51813Y5612*
X51911Y5354*
X51929Y5207*
X51626Y5207*
X51626Y4953*
X51929Y4953*
X51911Y4806*
X51813Y4548*
X51656Y4321*
X51450Y4139*
X51206Y4010*
X50938Y3944*
X2678Y1404D02*
X2402Y1404D01*
X2134Y1470*
X1890Y1599*
X1684Y1781*
X1527Y2008*
X1429Y2266*
X1396Y2540*
X1429Y2814*
X1527Y3072*
X1684Y3299*
X1890Y3481*
X2134Y3610*
X2402Y3676*
X2678Y3676*
X2946Y3610*
X3190Y3481*
X3396Y3299*
X3553Y3072*
X3651Y2814*
X3684Y2540*
X3651Y2266*
X3553Y2008*
X3396Y1781*
X3190Y1599*
X2946Y1470*
X2678Y1404*
X5218Y1404D02*
X5207Y1404D01*
X5207Y1721*
X4953Y1721*
X4953Y1404*
X4942Y1404*
X4674Y1470*
X4430Y1599*
X4224Y1781*
X4067Y2008*
X3969Y2266*
X3951Y2413*
X4255Y2413*
X4255Y2667*
X3951Y2667*
X3969Y2814*
X4067Y3072*
X4224Y3299*
X4430Y3481*
X4674Y3610*
X4942Y3676*
X4953Y3676*
X4953Y3359*
X5207Y3359*
X5207Y3676*
X5218Y3676*
X5486Y3610*
X5730Y3481*
X5936Y3299*
X6093Y3072*
X6191Y2814*
X6209Y2667*
X5905Y2667*
X5905Y2413*
X6209Y2413*
X6191Y2266*
X6093Y2008*
X5936Y1781*
X5730Y1599*
X5486Y1470*
X5218Y1404*
X48398Y1404D02*
X48122Y1404D01*
X47854Y1470*
X47610Y1599*
X47404Y1781*
X47247Y2008*
X47149Y2266*
X47116Y2540*
X47149Y2814*
X47247Y3072*
X47404Y3299*
X47610Y3481*
X47854Y3610*
X48122Y3676*
X48398Y3676*
X48666Y3610*
X48910Y3481*
X49116Y3299*
X49273Y3072*
X49371Y2814*
X49404Y2540*
X49371Y2266*
X49273Y2008*
X49116Y1781*
X48910Y1599*
X48666Y1470*
X48398Y1404*
X50938Y1404D02*
X50927Y1404D01*
X50927Y1721*
X50673Y1721*
X50673Y1404*
X50662Y1404*
X50394Y1470*
X50150Y1599*
X49944Y1781*
X49787Y2008*
X49689Y2266*
X49671Y2413*
X49974Y2413*
X49974Y2667*
X49671Y2667*
X49689Y2814*
X49787Y3072*
X49944Y3299*
X50150Y3481*
X50394Y3610*
X50662Y3676*
X50673Y3676*
X50673Y3359*
X50927Y3359*
X50927Y3676*
X50938Y3676*
X51206Y3610*
X51450Y3481*
X51656Y3299*
X51813Y3072*
X51911Y2814*
X51929Y2667*
X51626Y2667*
X51626Y2413*
X51929Y2413*
X51911Y2266*
X51813Y2008*
X51656Y1781*
X51450Y1599*
X51206Y1470*
X50938Y1404*
X0446Y0495D02*
X7175Y0495D01*
X46166Y0495D02*
X52895Y0495D01*
X0446Y0545D02*
X7175Y0545D01*
X46166Y0545D02*
X52895Y0545D01*
X0446Y0594D02*
X7175Y0594D01*
X46166Y0594D02*
X52895Y0594D01*
X0446Y0644D02*
X7175Y0644D01*
X46166Y0644D02*
X52895Y0644D01*
X0446Y0693D02*
X7175Y0693D01*
X46166Y0693D02*
X52895Y0693D01*
X0446Y0743D02*
X7175Y0743D01*
X46166Y0743D02*
X52895Y0743D01*
X0446Y0792D02*
X7175Y0792D01*
X46166Y0792D02*
X52895Y0792D01*
X0446Y0842D02*
X7175Y0842D01*
X46166Y0842D02*
X52895Y0842D01*
X0446Y0891D02*
X7175Y0891D01*
X46166Y0891D02*
X52895Y0891D01*
X0446Y0941D02*
X7175Y0941D01*
X46166Y0941D02*
X52895Y0941D01*
X0446Y0990D02*
X7175Y0990D01*
X46166Y0990D02*
X52895Y0990D01*
X0446Y1040D02*
X7175Y1040D01*
X46166Y1040D02*
X52895Y1040D01*
X0446Y1089D02*
X7175Y1089D01*
X46166Y1089D02*
X52895Y1089D01*
X0446Y1139D02*
X7175Y1139D01*
X46166Y1139D02*
X52895Y1139D01*
X0446Y1188D02*
X7175Y1188D01*
X46166Y1188D02*
X52895Y1188D01*
X0446Y1238D02*
X7175Y1238D01*
X46166Y1238D02*
X52895Y1238D01*
X0446Y1288D02*
X7175Y1288D01*
X46166Y1288D02*
X52895Y1288D01*
X0446Y1337D02*
X7175Y1337D01*
X46166Y1337D02*
X52895Y1337D01*
X0446Y1387D02*
X7175Y1387D01*
X46166Y1387D02*
X52895Y1387D01*
X0446Y1436D02*
X2272Y1436D01*
X2808Y1436D02*
X4812Y1436D01*
X4953Y1436D02*
X5207Y1436D01*
X5348Y1436D02*
X7175Y1436D01*
X46166Y1436D02*
X47992Y1436D01*
X48528Y1436D02*
X50532Y1436D01*
X50673Y1436D02*
X50927Y1436D01*
X51068Y1436D02*
X52895Y1436D01*
X0446Y1486D02*
X2105Y1486D01*
X2975Y1486D02*
X4645Y1486D01*
X4953Y1486D02*
X5207Y1486D01*
X5515Y1486D02*
X7175Y1486D01*
X46166Y1486D02*
X47825Y1486D01*
X48695Y1486D02*
X50365Y1486D01*
X50673Y1486D02*
X50927Y1486D01*
X51235Y1486D02*
X52895Y1486D01*
X0446Y1535D02*
X2010Y1535D01*
X3070Y1535D02*
X4550Y1535D01*
X4953Y1535D02*
X5207Y1535D01*
X5610Y1535D02*
X7175Y1535D01*
X46166Y1535D02*
X47730Y1535D01*
X48790Y1535D02*
X50270Y1535D01*
X50673Y1535D02*
X50927Y1535D01*
X51330Y1535D02*
X52895Y1535D01*
X0446Y1585D02*
X1916Y1585D01*
X3164Y1585D02*
X4456Y1585D01*
X4953Y1585D02*
X5207Y1585D01*
X5704Y1585D02*
X7175Y1585D01*
X46166Y1585D02*
X47636Y1585D01*
X48884Y1585D02*
X50176Y1585D01*
X50673Y1585D02*
X50927Y1585D01*
X51424Y1585D02*
X52895Y1585D01*
X0446Y1634D02*
X1849Y1634D01*
X3231Y1634D02*
X4389Y1634D01*
X4953Y1634D02*
X5207Y1634D01*
X5771Y1634D02*
X7175Y1634D01*
X46166Y1634D02*
X47569Y1634D01*
X48951Y1634D02*
X50109Y1634D01*
X50673Y1634D02*
X50927Y1634D01*
X51491Y1634D02*
X52895Y1634D01*
X0446Y1684D02*
X1794Y1684D01*
X3286Y1684D02*
X4334Y1684D01*
X4953Y1684D02*
X5207Y1684D01*
X5826Y1684D02*
X7175Y1684D01*
X46166Y1684D02*
X47514Y1684D01*
X49006Y1684D02*
X50054Y1684D01*
X50673Y1684D02*
X50927Y1684D01*
X51546Y1684D02*
X52895Y1684D01*
X0446Y1733D02*
X1738Y1733D01*
X3342Y1733D02*
X4278Y1733D01*
X5882Y1733D02*
X7175Y1733D01*
X46166Y1733D02*
X47458Y1733D01*
X49062Y1733D02*
X49998Y1733D01*
X51602Y1733D02*
X52895Y1733D01*
X0446Y1783D02*
X1682Y1783D01*
X3398Y1783D02*
X4222Y1783D01*
X5938Y1783D02*
X7175Y1783D01*
X46166Y1783D02*
X47402Y1783D01*
X49118Y1783D02*
X49942Y1783D01*
X51658Y1783D02*
X52895Y1783D01*
X0446Y1832D02*
X1648Y1832D01*
X3432Y1832D02*
X4188Y1832D01*
X5972Y1832D02*
X7175Y1832D01*
X46166Y1832D02*
X47368Y1832D01*
X49152Y1832D02*
X49908Y1832D01*
X51692Y1832D02*
X52895Y1832D01*
X0446Y1882D02*
X1614Y1882D01*
X3466Y1882D02*
X4154Y1882D01*
X6006Y1882D02*
X7175Y1882D01*
X46166Y1882D02*
X47334Y1882D01*
X49186Y1882D02*
X49874Y1882D01*
X51726Y1882D02*
X52895Y1882D01*
X0446Y1931D02*
X1580Y1931D01*
X3500Y1931D02*
X4120Y1931D01*
X6040Y1931D02*
X7175Y1931D01*
X46166Y1931D02*
X47300Y1931D01*
X49220Y1931D02*
X49840Y1931D01*
X51760Y1931D02*
X52895Y1931D01*
X0446Y1981D02*
X1546Y1981D01*
X3534Y1981D02*
X4086Y1981D01*
X6074Y1981D02*
X7175Y1981D01*
X46166Y1981D02*
X47266Y1981D01*
X49254Y1981D02*
X49806Y1981D01*
X51794Y1981D02*
X52895Y1981D01*
X0446Y2030D02*
X1518Y2030D01*
X3562Y2030D02*
X4058Y2030D01*
X6102Y2030D02*
X7175Y2030D01*
X46166Y2030D02*
X47238Y2030D01*
X49282Y2030D02*
X49778Y2030D01*
X51822Y2030D02*
X52895Y2030D01*
X0446Y2080D02*
X1500Y2080D01*
X3580Y2080D02*
X4040Y2080D01*
X6120Y2080D02*
X7175Y2080D01*
X46166Y2080D02*
X47220Y2080D01*
X49300Y2080D02*
X49760Y2080D01*
X51840Y2080D02*
X52895Y2080D01*
X0446Y2130D02*
X1481Y2130D01*
X3599Y2130D02*
X4021Y2130D01*
X6139Y2130D02*
X7175Y2130D01*
X46166Y2130D02*
X47201Y2130D01*
X49319Y2130D02*
X49741Y2130D01*
X51859Y2130D02*
X52895Y2130D01*
X0446Y2179D02*
X1462Y2179D01*
X3618Y2179D02*
X4002Y2179D01*
X6158Y2179D02*
X7175Y2179D01*
X46166Y2179D02*
X47182Y2179D01*
X49338Y2179D02*
X49722Y2179D01*
X51878Y2179D02*
X52895Y2179D01*
X0446Y2229D02*
X1443Y2229D01*
X3637Y2229D02*
X3983Y2229D01*
X6177Y2229D02*
X7175Y2229D01*
X46166Y2229D02*
X47163Y2229D01*
X49357Y2229D02*
X49703Y2229D01*
X51897Y2229D02*
X52895Y2229D01*
X0446Y2278D02*
X1428Y2278D01*
X3652Y2278D02*
X3968Y2278D01*
X6192Y2278D02*
X7175Y2278D01*
X46166Y2278D02*
X47148Y2278D01*
X49372Y2278D02*
X49688Y2278D01*
X51912Y2278D02*
X52895Y2278D01*
X0446Y2328D02*
X1422Y2328D01*
X3658Y2328D02*
X3962Y2328D01*
X6198Y2328D02*
X7175Y2328D01*
X46166Y2328D02*
X47142Y2328D01*
X49378Y2328D02*
X49682Y2328D01*
X51918Y2328D02*
X52895Y2328D01*
X0446Y2377D02*
X1416Y2377D01*
X3664Y2377D02*
X3956Y2377D01*
X6204Y2377D02*
X7175Y2377D01*
X46166Y2377D02*
X47136Y2377D01*
X49384Y2377D02*
X49676Y2377D01*
X51924Y2377D02*
X52895Y2377D01*
X0446Y2427D02*
X1410Y2427D01*
X3670Y2427D02*
X4254Y2427D01*
X5906Y2427D02*
X7175Y2427D01*
X46166Y2427D02*
X47130Y2427D01*
X49390Y2427D02*
X49974Y2427D01*
X51626Y2427D02*
X52895Y2427D01*
X0446Y2476D02*
X1403Y2476D01*
X3677Y2476D02*
X4254Y2476D01*
X5906Y2476D02*
X7175Y2476D01*
X46166Y2476D02*
X47123Y2476D01*
X49397Y2476D02*
X49974Y2476D01*
X51626Y2476D02*
X52895Y2476D01*
X0446Y2526D02*
X1397Y2526D01*
X3683Y2526D02*
X4254Y2526D01*
X5906Y2526D02*
X7175Y2526D01*
X46166Y2526D02*
X47117Y2526D01*
X49403Y2526D02*
X49974Y2526D01*
X51626Y2526D02*
X52895Y2526D01*
X0446Y2575D02*
X1400Y2575D01*
X3680Y2575D02*
X4254Y2575D01*
X5906Y2575D02*
X7175Y2575D01*
X46166Y2575D02*
X47120Y2575D01*
X49400Y2575D02*
X49974Y2575D01*
X51626Y2575D02*
X52895Y2575D01*
X0446Y2625D02*
X1406Y2625D01*
X3674Y2625D02*
X4254Y2625D01*
X5906Y2625D02*
X7175Y2625D01*
X46166Y2625D02*
X47126Y2625D01*
X49394Y2625D02*
X49974Y2625D01*
X51626Y2625D02*
X52895Y2625D01*
X0446Y2674D02*
X1412Y2674D01*
X3668Y2674D02*
X3952Y2674D01*
X6208Y2674D02*
X7175Y2674D01*
X46166Y2674D02*
X47132Y2674D01*
X49388Y2674D02*
X49672Y2674D01*
X51928Y2674D02*
X52895Y2674D01*
X0446Y2724D02*
X1418Y2724D01*
X3662Y2724D02*
X3958Y2724D01*
X6202Y2724D02*
X7175Y2724D01*
X46166Y2724D02*
X47138Y2724D01*
X49382Y2724D02*
X49678Y2724D01*
X51922Y2724D02*
X52895Y2724D01*
X0446Y2773D02*
X1424Y2773D01*
X3656Y2773D02*
X3964Y2773D01*
X6196Y2773D02*
X7175Y2773D01*
X46166Y2773D02*
X47144Y2773D01*
X49376Y2773D02*
X49684Y2773D01*
X51916Y2773D02*
X52895Y2773D01*
X0446Y2823D02*
X1432Y2823D01*
X3648Y2823D02*
X3972Y2823D01*
X6188Y2823D02*
X7175Y2823D01*
X46166Y2823D02*
X47152Y2823D01*
X49368Y2823D02*
X49692Y2823D01*
X51908Y2823D02*
X52895Y2823D01*
X0446Y2872D02*
X1451Y2872D01*
X3629Y2872D02*
X3991Y2872D01*
X6169Y2872D02*
X7175Y2872D01*
X46166Y2872D02*
X47171Y2872D01*
X49349Y2872D02*
X49711Y2872D01*
X51889Y2872D02*
X52895Y2872D01*
X0446Y2922D02*
X1470Y2922D01*
X3610Y2922D02*
X4010Y2922D01*
X6150Y2922D02*
X7175Y2922D01*
X46166Y2922D02*
X47190Y2922D01*
X49330Y2922D02*
X49730Y2922D01*
X51870Y2922D02*
X52895Y2922D01*
X0446Y2972D02*
X1489Y2972D01*
X3591Y2972D02*
X4029Y2972D01*
X6131Y2972D02*
X7175Y2972D01*
X46166Y2972D02*
X47209Y2972D01*
X49311Y2972D02*
X49749Y2972D01*
X51851Y2972D02*
X52895Y2972D01*
X0446Y3021D02*
X1508Y3021D01*
X3572Y3021D02*
X4048Y3021D01*
X6112Y3021D02*
X7175Y3021D01*
X46166Y3021D02*
X47228Y3021D01*
X49292Y3021D02*
X49768Y3021D01*
X51832Y3021D02*
X52895Y3021D01*
X0446Y3071D02*
X1526Y3071D01*
X3554Y3071D02*
X4066Y3071D01*
X6094Y3071D02*
X7175Y3071D01*
X46166Y3071D02*
X47246Y3071D01*
X49274Y3071D02*
X49786Y3071D01*
X51814Y3071D02*
X52895Y3071D01*
X0446Y3120D02*
X1560Y3120D01*
X3520Y3120D02*
X4100Y3120D01*
X6060Y3120D02*
X7175Y3120D01*
X46166Y3120D02*
X47280Y3120D01*
X49240Y3120D02*
X49820Y3120D01*
X51780Y3120D02*
X52895Y3120D01*
X0446Y3170D02*
X1594Y3170D01*
X3486Y3170D02*
X4134Y3170D01*
X6026Y3170D02*
X7175Y3170D01*
X46166Y3170D02*
X47314Y3170D01*
X49206Y3170D02*
X49854Y3170D01*
X51746Y3170D02*
X52895Y3170D01*
X0446Y3219D02*
X1629Y3219D01*
X3451Y3219D02*
X4169Y3219D01*
X5991Y3219D02*
X7175Y3219D01*
X46166Y3219D02*
X47349Y3219D01*
X49171Y3219D02*
X49889Y3219D01*
X51711Y3219D02*
X52895Y3219D01*
X0446Y3269D02*
X1663Y3269D01*
X3417Y3269D02*
X4203Y3269D01*
X5957Y3269D02*
X7175Y3269D01*
X46166Y3269D02*
X47383Y3269D01*
X49137Y3269D02*
X49923Y3269D01*
X51677Y3269D02*
X52895Y3269D01*
X0446Y3318D02*
X1705Y3318D01*
X3375Y3318D02*
X4245Y3318D01*
X5915Y3318D02*
X7175Y3318D01*
X46166Y3318D02*
X47425Y3318D01*
X49095Y3318D02*
X49965Y3318D01*
X51635Y3318D02*
X52895Y3318D01*
X0446Y3368D02*
X1761Y3368D01*
X3319Y3368D02*
X4301Y3368D01*
X4953Y3368D02*
X5207Y3368D01*
X5859Y3368D02*
X7175Y3368D01*
X46166Y3368D02*
X47481Y3368D01*
X49039Y3368D02*
X50021Y3368D01*
X50673Y3368D02*
X50927Y3368D01*
X51579Y3368D02*
X52895Y3368D01*
X0446Y3417D02*
X1817Y3417D01*
X3263Y3417D02*
X4357Y3417D01*
X4953Y3417D02*
X5207Y3417D01*
X5803Y3417D02*
X7175Y3417D01*
X46166Y3417D02*
X47537Y3417D01*
X48983Y3417D02*
X50077Y3417D01*
X50673Y3417D02*
X50927Y3417D01*
X51523Y3417D02*
X52895Y3417D01*
X0446Y3467D02*
X1873Y3467D01*
X3207Y3467D02*
X4413Y3467D01*
X4953Y3467D02*
X5207Y3467D01*
X5747Y3467D02*
X7175Y3467D01*
X46166Y3467D02*
X47593Y3467D01*
X48927Y3467D02*
X50133Y3467D01*
X50673Y3467D02*
X50927Y3467D01*
X51467Y3467D02*
X52895Y3467D01*
X0446Y3516D02*
X1956Y3516D01*
X3124Y3516D02*
X4496Y3516D01*
X4953Y3516D02*
X5207Y3516D01*
X5664Y3516D02*
X7175Y3516D01*
X46166Y3516D02*
X47676Y3516D01*
X48844Y3516D02*
X50216Y3516D01*
X50673Y3516D02*
X50927Y3516D01*
X51384Y3516D02*
X52895Y3516D01*
X0446Y3566D02*
X2050Y3566D01*
X3030Y3566D02*
X4590Y3566D01*
X4953Y3566D02*
X5207Y3566D01*
X5570Y3566D02*
X7175Y3566D01*
X46166Y3566D02*
X47770Y3566D01*
X48750Y3566D02*
X50310Y3566D01*
X50673Y3566D02*
X50927Y3566D01*
X51290Y3566D02*
X52895Y3566D01*
X0446Y3615D02*
X2157Y3615D01*
X2923Y3615D02*
X4697Y3615D01*
X4953Y3615D02*
X5207Y3615D01*
X5463Y3615D02*
X7175Y3615D01*
X46166Y3615D02*
X47877Y3615D01*
X48643Y3615D02*
X50417Y3615D01*
X50673Y3615D02*
X50927Y3615D01*
X51183Y3615D02*
X52895Y3615D01*
X0446Y3665D02*
X2358Y3665D01*
X2722Y3665D02*
X4898Y3665D01*
X4953Y3665D02*
X5207Y3665D01*
X5262Y3665D02*
X7175Y3665D01*
X46166Y3665D02*
X48078Y3665D01*
X48442Y3665D02*
X50618Y3665D01*
X50673Y3665D02*
X50927Y3665D01*
X50982Y3665D02*
X52895Y3665D01*
X0446Y3714D02*
X7175Y3714D01*
X46166Y3714D02*
X52895Y3714D01*
X0446Y3764D02*
X7175Y3764D01*
X46166Y3764D02*
X52895Y3764D01*
X0446Y3814D02*
X7175Y3814D01*
X46166Y3814D02*
X52895Y3814D01*
X0446Y3863D02*
X7175Y3863D01*
X46166Y3863D02*
X52895Y3863D01*
X0446Y3913D02*
X7175Y3913D01*
X46166Y3913D02*
X52895Y3913D01*
X0446Y3962D02*
X2329Y3962D01*
X2751Y3962D02*
X4869Y3962D01*
X4953Y3962D02*
X5207Y3962D01*
X5291Y3962D02*
X7175Y3962D01*
X46166Y3962D02*
X48049Y3962D01*
X48471Y3962D02*
X50589Y3962D01*
X50673Y3962D02*
X50927Y3962D01*
X51011Y3962D02*
X52895Y3962D01*
X0446Y4012D02*
X2131Y4012D01*
X2949Y4012D02*
X4671Y4012D01*
X4953Y4012D02*
X5207Y4012D01*
X5489Y4012D02*
X7175Y4012D01*
X46166Y4012D02*
X47851Y4012D01*
X48669Y4012D02*
X50391Y4012D01*
X50673Y4012D02*
X50927Y4012D01*
X51209Y4012D02*
X52895Y4012D01*
X0446Y4061D02*
X2037Y4061D01*
X3043Y4061D02*
X4577Y4061D01*
X4953Y4061D02*
X5207Y4061D01*
X5583Y4061D02*
X7175Y4061D01*
X46166Y4061D02*
X47757Y4061D01*
X48763Y4061D02*
X50297Y4061D01*
X50673Y4061D02*
X50927Y4061D01*
X51303Y4061D02*
X52895Y4061D01*
X0446Y4111D02*
X1943Y4111D01*
X3137Y4111D02*
X4483Y4111D01*
X4953Y4111D02*
X5207Y4111D01*
X5677Y4111D02*
X7175Y4111D01*
X46166Y4111D02*
X47663Y4111D01*
X48857Y4111D02*
X50203Y4111D01*
X50673Y4111D02*
X50927Y4111D01*
X51397Y4111D02*
X52895Y4111D01*
X0446Y4160D02*
X1865Y4160D01*
X3215Y4160D02*
X4405Y4160D01*
X4953Y4160D02*
X5207Y4160D01*
X5755Y4160D02*
X7175Y4160D01*
X46166Y4160D02*
X47585Y4160D01*
X48935Y4160D02*
X50125Y4160D01*
X50673Y4160D02*
X50927Y4160D01*
X51475Y4160D02*
X52895Y4160D01*
X0446Y4210D02*
X1809Y4210D01*
X3271Y4210D02*
X4349Y4210D01*
X4953Y4210D02*
X5207Y4210D01*
X5811Y4210D02*
X7175Y4210D01*
X46166Y4210D02*
X47529Y4210D01*
X48991Y4210D02*
X50069Y4210D01*
X50673Y4210D02*
X50927Y4210D01*
X51531Y4210D02*
X52895Y4210D01*
X0446Y4259D02*
X1753Y4259D01*
X3327Y4259D02*
X4293Y4259D01*
X4953Y4259D02*
X5207Y4259D01*
X5867Y4259D02*
X7175Y4259D01*
X46166Y4259D02*
X47473Y4259D01*
X49047Y4259D02*
X50013Y4259D01*
X50673Y4259D02*
X50927Y4259D01*
X51587Y4259D02*
X52895Y4259D01*
X0446Y4309D02*
X1697Y4309D01*
X3383Y4309D02*
X4237Y4309D01*
X5923Y4309D02*
X7175Y4309D01*
X46166Y4309D02*
X47417Y4309D01*
X49103Y4309D02*
X49957Y4309D01*
X51643Y4309D02*
X52895Y4309D01*
X0446Y4358D02*
X1658Y4358D01*
X3422Y4358D02*
X4198Y4358D01*
X5962Y4358D02*
X7175Y4358D01*
X46166Y4358D02*
X47378Y4358D01*
X49142Y4358D02*
X49918Y4358D01*
X51682Y4358D02*
X52895Y4358D01*
X0446Y4408D02*
X1624Y4408D01*
X3456Y4408D02*
X4164Y4408D01*
X5996Y4408D02*
X7175Y4408D01*
X46166Y4408D02*
X47344Y4408D01*
X49176Y4408D02*
X49884Y4408D01*
X51716Y4408D02*
X52895Y4408D01*
X0446Y4457D02*
X1589Y4457D01*
X3491Y4457D02*
X4129Y4457D01*
X6031Y4457D02*
X7175Y4457D01*
X46166Y4457D02*
X47309Y4457D01*
X49211Y4457D02*
X49849Y4457D01*
X51751Y4457D02*
X52895Y4457D01*
X0446Y4507D02*
X1555Y4507D01*
X3525Y4507D02*
X4095Y4507D01*
X6065Y4507D02*
X7175Y4507D01*
X46166Y4507D02*
X47275Y4507D01*
X49245Y4507D02*
X49815Y4507D01*
X51785Y4507D02*
X52895Y4507D01*
X0446Y4556D02*
X1524Y4556D01*
X3556Y4556D02*
X4064Y4556D01*
X6096Y4556D02*
X7175Y4556D01*
X46166Y4556D02*
X47244Y4556D01*
X49276Y4556D02*
X49784Y4556D01*
X51816Y4556D02*
X52895Y4556D01*
X0446Y4606D02*
X1505Y4606D01*
X3575Y4606D02*
X4045Y4606D01*
X6115Y4606D02*
X7175Y4606D01*
X46166Y4606D02*
X47225Y4606D01*
X49295Y4606D02*
X49765Y4606D01*
X51835Y4606D02*
X52895Y4606D01*
X0446Y4656D02*
X1486Y4656D01*
X3594Y4656D02*
X4026Y4656D01*
X6134Y4656D02*
X7175Y4656D01*
X46166Y4656D02*
X47206Y4656D01*
X49314Y4656D02*
X49746Y4656D01*
X51854Y4656D02*
X52895Y4656D01*
X0446Y4705D02*
X1467Y4705D01*
X3613Y4705D02*
X4007Y4705D01*
X6153Y4705D02*
X7175Y4705D01*
X46166Y4705D02*
X47187Y4705D01*
X49333Y4705D02*
X49727Y4705D01*
X51873Y4705D02*
X52895Y4705D01*
X0446Y4755D02*
X1449Y4755D01*
X3631Y4755D02*
X3989Y4755D01*
X6171Y4755D02*
X7175Y4755D01*
X46166Y4755D02*
X47169Y4755D01*
X49351Y4755D02*
X49709Y4755D01*
X51891Y4755D02*
X52895Y4755D01*
X0446Y4804D02*
X1430Y4804D01*
X3650Y4804D02*
X3970Y4804D01*
X6190Y4804D02*
X7175Y4804D01*
X46166Y4804D02*
X47150Y4804D01*
X49370Y4804D02*
X49690Y4804D01*
X51910Y4804D02*
X52895Y4804D01*
X0446Y4854D02*
X1423Y4854D01*
X3657Y4854D02*
X3963Y4854D01*
X6197Y4854D02*
X7175Y4854D01*
X46166Y4854D02*
X47143Y4854D01*
X49377Y4854D02*
X49683Y4854D01*
X51917Y4854D02*
X52895Y4854D01*
X0446Y4903D02*
X1417Y4903D01*
X3663Y4903D02*
X3957Y4903D01*
X6203Y4903D02*
X7175Y4903D01*
X46166Y4903D02*
X47137Y4903D01*
X49383Y4903D02*
X49677Y4903D01*
X51923Y4903D02*
X52895Y4903D01*
X0446Y4953D02*
X1411Y4953D01*
X3669Y4953D02*
X3951Y4953D01*
X6209Y4953D02*
X7175Y4953D01*
X46166Y4953D02*
X47131Y4953D01*
X49389Y4953D02*
X49671Y4953D01*
X51929Y4953D02*
X52895Y4953D01*
X0446Y5002D02*
X1405Y5002D01*
X3675Y5002D02*
X4254Y5002D01*
X5906Y5002D02*
X7175Y5002D01*
X46166Y5002D02*
X47125Y5002D01*
X49395Y5002D02*
X49974Y5002D01*
X51626Y5002D02*
X52895Y5002D01*
X0446Y5052D02*
X1399Y5052D01*
X3681Y5052D02*
X4254Y5052D01*
X5906Y5052D02*
X7175Y5052D01*
X46166Y5052D02*
X47119Y5052D01*
X49401Y5052D02*
X49974Y5052D01*
X51626Y5052D02*
X52895Y5052D01*
X0446Y5101D02*
X1398Y5101D01*
X3682Y5101D02*
X4254Y5101D01*
X5906Y5101D02*
X7175Y5101D01*
X46166Y5101D02*
X47118Y5101D01*
X49402Y5101D02*
X49974Y5101D01*
X51626Y5101D02*
X52895Y5101D01*
X0446Y5151D02*
X1404Y5151D01*
X3676Y5151D02*
X4254Y5151D01*
X5906Y5151D02*
X7175Y5151D01*
X46166Y5151D02*
X47124Y5151D01*
X49396Y5151D02*
X49974Y5151D01*
X51626Y5151D02*
X52895Y5151D01*
X0446Y5200D02*
X1410Y5200D01*
X3670Y5200D02*
X4254Y5200D01*
X5906Y5200D02*
X7175Y5200D01*
X46166Y5200D02*
X47130Y5200D01*
X49390Y5200D02*
X49974Y5200D01*
X51626Y5200D02*
X52895Y5200D01*
X0446Y5250D02*
X1416Y5250D01*
X3664Y5250D02*
X3956Y5250D01*
X6204Y5250D02*
X7175Y5250D01*
X46166Y5250D02*
X47136Y5250D01*
X49384Y5250D02*
X49676Y5250D01*
X51924Y5250D02*
X52895Y5250D01*
X0446Y5299D02*
X1422Y5299D01*
X3658Y5299D02*
X3962Y5299D01*
X6198Y5299D02*
X7175Y5299D01*
X46166Y5299D02*
X47142Y5299D01*
X49378Y5299D02*
X49682Y5299D01*
X51918Y5299D02*
X52895Y5299D01*
X0446Y5349D02*
X1428Y5349D01*
X3652Y5349D02*
X3968Y5349D01*
X6192Y5349D02*
X7175Y5349D01*
X46166Y5349D02*
X47148Y5349D01*
X49372Y5349D02*
X49688Y5349D01*
X51912Y5349D02*
X52895Y5349D01*
X0446Y5399D02*
X1446Y5399D01*
X3634Y5399D02*
X3986Y5399D01*
X6174Y5399D02*
X7175Y5399D01*
X46166Y5399D02*
X47166Y5399D01*
X49354Y5399D02*
X49706Y5399D01*
X51894Y5399D02*
X52895Y5399D01*
X0446Y5448D02*
X1465Y5448D01*
X3615Y5448D02*
X4005Y5448D01*
X6155Y5448D02*
X7175Y5448D01*
X46166Y5448D02*
X47185Y5448D01*
X49335Y5448D02*
X49725Y5448D01*
X51875Y5448D02*
X52895Y5448D01*
X0446Y5498D02*
X1484Y5498D01*
X3596Y5498D02*
X4024Y5498D01*
X6136Y5498D02*
X7175Y5498D01*
X46166Y5498D02*
X47204Y5498D01*
X49316Y5498D02*
X49744Y5498D01*
X51856Y5498D02*
X52895Y5498D01*
X0446Y5547D02*
X1502Y5547D01*
X3578Y5547D02*
X4042Y5547D01*
X6118Y5547D02*
X7175Y5547D01*
X46166Y5547D02*
X47222Y5547D01*
X49298Y5547D02*
X49762Y5547D01*
X51838Y5547D02*
X52895Y5547D01*
X0446Y5597D02*
X1521Y5597D01*
X3559Y5597D02*
X4061Y5597D01*
X6099Y5597D02*
X7175Y5597D01*
X46166Y5597D02*
X47241Y5597D01*
X49279Y5597D02*
X49781Y5597D01*
X51819Y5597D02*
X52895Y5597D01*
X0446Y5646D02*
X1551Y5646D01*
X3529Y5646D02*
X4091Y5646D01*
X6069Y5646D02*
X7175Y5646D01*
X46166Y5646D02*
X47271Y5646D01*
X49249Y5646D02*
X49811Y5646D01*
X51789Y5646D02*
X52895Y5646D01*
X0446Y5696D02*
X1585Y5696D01*
X3495Y5696D02*
X4125Y5696D01*
X6035Y5696D02*
X7175Y5696D01*
X46166Y5696D02*
X47305Y5696D01*
X49215Y5696D02*
X49845Y5696D01*
X51755Y5696D02*
X52895Y5696D01*
X0446Y5745D02*
X1619Y5745D01*
X3461Y5745D02*
X4159Y5745D01*
X6001Y5745D02*
X7175Y5745D01*
X46166Y5745D02*
X47339Y5745D01*
X49181Y5745D02*
X49879Y5745D01*
X51721Y5745D02*
X52895Y5745D01*
X0446Y5795D02*
X1653Y5795D01*
X3427Y5795D02*
X4193Y5795D01*
X5967Y5795D02*
X7175Y5795D01*
X46166Y5795D02*
X47373Y5795D01*
X49147Y5795D02*
X49913Y5795D01*
X51687Y5795D02*
X52895Y5795D01*
X0446Y5844D02*
X1690Y5844D01*
X3390Y5844D02*
X4230Y5844D01*
X5930Y5844D02*
X7175Y5844D01*
X46166Y5844D02*
X47410Y5844D01*
X49110Y5844D02*
X49950Y5844D01*
X51650Y5844D02*
X52895Y5844D01*
X0446Y5894D02*
X1746Y5894D01*
X3334Y5894D02*
X4286Y5894D01*
X5874Y5894D02*
X7175Y5894D01*
X46166Y5894D02*
X47466Y5894D01*
X49054Y5894D02*
X50006Y5894D01*
X51594Y5894D02*
X52895Y5894D01*
X0446Y5943D02*
X1802Y5943D01*
X3278Y5943D02*
X4342Y5943D01*
X4953Y5943D02*
X5207Y5943D01*
X5818Y5943D02*
X7175Y5943D01*
X46166Y5943D02*
X47522Y5943D01*
X48998Y5943D02*
X50062Y5943D01*
X50673Y5943D02*
X50927Y5943D01*
X51538Y5943D02*
X52895Y5943D01*
X0446Y5993D02*
X1857Y5993D01*
X3223Y5993D02*
X4397Y5993D01*
X4953Y5993D02*
X5207Y5993D01*
X5763Y5993D02*
X7175Y5993D01*
X46166Y5993D02*
X47577Y5993D01*
X48943Y5993D02*
X50117Y5993D01*
X50673Y5993D02*
X50927Y5993D01*
X51483Y5993D02*
X52895Y5993D01*
X0446Y6042D02*
X1929Y6042D01*
X3151Y6042D02*
X4469Y6042D01*
X4953Y6042D02*
X5207Y6042D01*
X5691Y6042D02*
X7175Y6042D01*
X46166Y6042D02*
X47649Y6042D01*
X48871Y6042D02*
X50189Y6042D01*
X50673Y6042D02*
X50927Y6042D01*
X51411Y6042D02*
X52895Y6042D01*
X0446Y6092D02*
X2024Y6092D01*
X3056Y6092D02*
X4564Y6092D01*
X4953Y6092D02*
X5207Y6092D01*
X5596Y6092D02*
X7175Y6092D01*
X46166Y6092D02*
X47744Y6092D01*
X48776Y6092D02*
X50284Y6092D01*
X50673Y6092D02*
X50927Y6092D01*
X51316Y6092D02*
X52895Y6092D01*
X0446Y6141D02*
X2118Y6141D01*
X2962Y6141D02*
X4658Y6141D01*
X4953Y6141D02*
X5207Y6141D01*
X5502Y6141D02*
X7175Y6141D01*
X46166Y6141D02*
X47838Y6141D01*
X48682Y6141D02*
X50378Y6141D01*
X50673Y6141D02*
X50927Y6141D01*
X51222Y6141D02*
X52895Y6141D01*
X0446Y6191D02*
X2301Y6191D01*
X2779Y6191D02*
X4841Y6191D01*
X4953Y6191D02*
X5207Y6191D01*
X5319Y6191D02*
X7175Y6191D01*
X46166Y6191D02*
X48021Y6191D01*
X48499Y6191D02*
X50561Y6191D01*
X50673Y6191D02*
X50927Y6191D01*
X51039Y6191D02*
X52895Y6191D01*
X0446Y6241D02*
X7175Y6241D01*
X46166Y6241D02*
X52895Y6241D01*
X0446Y6290D02*
X7175Y6290D01*
X46166Y6290D02*
X52895Y6290D01*
X0446Y6340D02*
X7175Y6340D01*
X46166Y6340D02*
X52895Y6340D01*
X0446Y6389D02*
X7175Y6389D01*
X46166Y6389D02*
X52895Y6389D01*
X0446Y6439D02*
X7175Y6439D01*
X46166Y6439D02*
X52895Y6439D01*
X0446Y6488D02*
X7175Y6488D01*
X46166Y6488D02*
X52895Y6488D01*
X0446Y6538D02*
X7175Y6538D01*
X46166Y6538D02*
X52895Y6538D01*
X0446Y6587D02*
X7175Y6587D01*
X46166Y6587D02*
X52895Y6587D01*
X0446Y6637D02*
X7175Y6637D01*
X46166Y6637D02*
X52895Y6637D01*
X0446Y6686D02*
X7175Y6686D01*
X46166Y6686D02*
X52895Y6686D01*
X0446Y6736D02*
X7175Y6736D01*
X46166Y6736D02*
X52895Y6736D01*
X0446Y6785D02*
X7175Y6785D01*
X46166Y6785D02*
X52895Y6785D01*
X0446Y6835D02*
X7175Y6835D01*
X46166Y6835D02*
X52895Y6835D01*
X0446Y6884D02*
X7175Y6884D01*
X46166Y6884D02*
X52895Y6884D01*
X0446Y6934D02*
X7175Y6934D01*
X46166Y6934D02*
X52895Y6934D01*
X0446Y6983D02*
X7175Y6983D01*
X46166Y6983D02*
X52895Y6983D01*
X0446Y7033D02*
X7175Y7033D01*
X46166Y7033D02*
X52895Y7033D01*
X0446Y7083D02*
X7175Y7083D01*
X46166Y7083D02*
X52895Y7083D01*
X0446Y7132D02*
X7175Y7132D01*
X46166Y7132D02*
X52895Y7132D01*
X0446Y7182D02*
X7175Y7182D01*
X46166Y7182D02*
X52895Y7182D01*
X0446Y7231D02*
X7175Y7231D01*
X46166Y7231D02*
X52895Y7231D01*
X0446Y7281D02*
X7175Y7281D01*
X46166Y7281D02*
X52895Y7281D01*
X0446Y7330D02*
X7175Y7330D01*
X46166Y7330D02*
X52895Y7330D01*
X0446Y7380D02*
X7175Y7380D01*
X46166Y7380D02*
X52895Y7380D01*
X0446Y7429D02*
X7175Y7429D01*
X46166Y7429D02*
X52895Y7429D01*
X0446Y7479D02*
X7175Y7479D01*
X46166Y7479D02*
X52895Y7479D01*
X0446Y7528D02*
X7175Y7528D01*
X46166Y7528D02*
X52895Y7528D01*
X0446Y7578D02*
X7175Y7578D01*
X46166Y7578D02*
X52895Y7578D01*
X0446Y7627D02*
X7175Y7627D01*
X46166Y7627D02*
X52895Y7627D01*
X0446Y7677D02*
X7175Y7677D01*
X46166Y7677D02*
X52895Y7677D01*
X0446Y7726D02*
X7175Y7726D01*
X46166Y7726D02*
X52895Y7726D01*
X0446Y7776D02*
X7175Y7776D01*
X46166Y7776D02*
X52895Y7776D01*
X0446Y7825D02*
X7175Y7825D01*
X46166Y7825D02*
X52895Y7825D01*
X0446Y7875D02*
X7175Y7875D01*
X46166Y7875D02*
X52895Y7875D01*
X0446Y7925D02*
X7175Y7925D01*
X46166Y7925D02*
X52895Y7925D01*
X0446Y7974D02*
X7175Y7974D01*
X46166Y7974D02*
X52895Y7974D01*
X0446Y8024D02*
X7175Y8024D01*
X46166Y8024D02*
X52895Y8024D01*
X0446Y8073D02*
X7175Y8073D01*
X46166Y8073D02*
X52895Y8073D01*
X0446Y8123D02*
X7175Y8123D01*
X46166Y8123D02*
X52895Y8123D01*
X0446Y8172D02*
X7175Y8172D01*
X46166Y8172D02*
X52895Y8172D01*
X0446Y8222D02*
X7175Y8222D01*
X46166Y8222D02*
X52895Y8222D01*
X0446Y8271D02*
X7175Y8271D01*
X46166Y8271D02*
X52895Y8271D01*
X0446Y8321D02*
X7175Y8321D01*
X46166Y8321D02*
X52895Y8321D01*
X0446Y8370D02*
X7175Y8370D01*
X46166Y8370D02*
X52895Y8370D01*
X0446Y8420D02*
X7175Y8420D01*
X46166Y8420D02*
X52895Y8420D01*
X0446Y8469D02*
X7175Y8469D01*
X46166Y8469D02*
X52895Y8469D01*
X0446Y8519D02*
X7175Y8519D01*
X46166Y8519D02*
X52895Y8519D01*
X0446Y8568D02*
X7175Y8568D01*
X46166Y8568D02*
X52895Y8568D01*
X0446Y8618D02*
X7175Y8618D01*
X46166Y8618D02*
X52895Y8618D01*
X0446Y8667D02*
X7175Y8667D01*
X46166Y8667D02*
X52895Y8667D01*
X0446Y8717D02*
X7175Y8717D01*
X46166Y8717D02*
X52895Y8717D01*
X0446Y8767D02*
X7175Y8767D01*
X46166Y8767D02*
X52895Y8767D01*
X0446Y8816D02*
X7175Y8816D01*
X46166Y8816D02*
X52895Y8816D01*
X0446Y8866D02*
X7175Y8866D01*
X46166Y8866D02*
X52895Y8866D01*
X0446Y8915D02*
X7175Y8915D01*
X46166Y8915D02*
X52895Y8915D01*
X0446Y8965D02*
X7175Y8965D01*
X46166Y8965D02*
X52895Y8965D01*
X0446Y9014D02*
X7175Y9014D01*
X46166Y9014D02*
X52895Y9014D01*
X0446Y9064D02*
X7175Y9064D01*
X46166Y9064D02*
X52895Y9064D01*
X0446Y9113D02*
X7175Y9113D01*
X46166Y9113D02*
X52895Y9113D01*
X0446Y9163D02*
X7175Y9163D01*
X46166Y9163D02*
X52895Y9163D01*
X0446Y9212D02*
X7175Y9212D01*
X46166Y9212D02*
X52895Y9212D01*
X0446Y9262D02*
X7175Y9262D01*
X46166Y9262D02*
X52895Y9262D01*
X0446Y9311D02*
X7175Y9311D01*
X46166Y9311D02*
X52895Y9311D01*
X0446Y9361D02*
X7175Y9361D01*
X21903Y9361D02*
X31437Y9361D01*
X46166Y9361D02*
X52895Y9361D01*
X0446Y9410D02*
X7175Y9410D01*
X21886Y9410D02*
X31454Y9410D01*
X46166Y9410D02*
X52895Y9410D01*
X0446Y9460D02*
X7175Y9460D01*
X21870Y9460D02*
X31470Y9460D01*
X46166Y9460D02*
X52895Y9460D01*
X0446Y9509D02*
X7175Y9509D01*
X21853Y9509D02*
X31487Y9509D01*
X46166Y9509D02*
X52895Y9509D01*
X0446Y9559D02*
X7175Y9559D01*
X21837Y9559D02*
X31503Y9559D01*
X46166Y9559D02*
X52895Y9559D01*
X0446Y9609D02*
X7175Y9609D01*
X21820Y9609D02*
X31520Y9609D01*
X46166Y9609D02*
X52895Y9609D01*
X0446Y9658D02*
X7175Y9658D01*
X21804Y9658D02*
X31536Y9658D01*
X46166Y9658D02*
X52895Y9658D01*
X0446Y9708D02*
X7175Y9708D01*
X21787Y9708D02*
X31553Y9708D01*
X46166Y9708D02*
X52895Y9708D01*
X0446Y9757D02*
X7175Y9757D01*
X21771Y9757D02*
X31569Y9757D01*
X46166Y9757D02*
X52895Y9757D01*
X0446Y9807D02*
X7175Y9807D01*
X21754Y9807D02*
X31586Y9807D01*
X46166Y9807D02*
X52895Y9807D01*
X0446Y9856D02*
X7175Y9856D01*
X21738Y9856D02*
X31602Y9856D01*
X46166Y9856D02*
X52895Y9856D01*
X0446Y9906D02*
X7175Y9906D01*
X21721Y9906D02*
X31619Y9906D01*
X46166Y9906D02*
X52895Y9906D01*
X0446Y9955D02*
X7175Y9955D01*
X21705Y9955D02*
X31635Y9955D01*
X46166Y9955D02*
X52895Y9955D01*
X0446Y10005D02*
X7175Y10005D01*
X21688Y10005D02*
X31652Y10005D01*
X46166Y10005D02*
X52895Y10005D01*
X0446Y10054D02*
X7175Y10054D01*
X21671Y10054D02*
X31669Y10054D01*
X46166Y10054D02*
X52895Y10054D01*
X0446Y10104D02*
X7175Y10104D01*
X21655Y10104D02*
X31685Y10104D01*
X46166Y10104D02*
X52895Y10104D01*
X0446Y10153D02*
X7175Y10153D01*
X21638Y10153D02*
X31702Y10153D01*
X46166Y10153D02*
X52895Y10153D01*
X0446Y10203D02*
X7175Y10203D01*
X21622Y10203D02*
X31718Y10203D01*
X46166Y10203D02*
X52895Y10203D01*
X0446Y10252D02*
X7175Y10252D01*
X21605Y10252D02*
X31735Y10252D01*
X46166Y10252D02*
X52895Y10252D01*
X0446Y10302D02*
X7175Y10302D01*
X21589Y10302D02*
X31751Y10302D01*
X46166Y10302D02*
X52895Y10302D01*
X0446Y10352D02*
X7175Y10352D01*
X21572Y10352D02*
X31768Y10352D01*
X46166Y10352D02*
X52895Y10352D01*
X0446Y10401D02*
X7175Y10401D01*
X21556Y10401D02*
X31784Y10401D01*
X46166Y10401D02*
X52895Y10401D01*
X0446Y10451D02*
X7175Y10451D01*
X21539Y10451D02*
X31801Y10451D01*
X46166Y10451D02*
X52895Y10451D01*
X0446Y10500D02*
X7175Y10500D01*
X21523Y10500D02*
X31817Y10500D01*
X46166Y10500D02*
X52895Y10500D01*
X0446Y10550D02*
X7175Y10550D01*
X21506Y10550D02*
X31834Y10550D01*
X46166Y10550D02*
X52895Y10550D01*
X0446Y10599D02*
X7175Y10599D01*
X21490Y10599D02*
X31850Y10599D01*
X46166Y10599D02*
X52895Y10599D01*
X0446Y10649D02*
X7175Y10649D01*
X21473Y10649D02*
X31867Y10649D01*
X46166Y10649D02*
X52895Y10649D01*
X0446Y10698D02*
X7175Y10698D01*
X21457Y10698D02*
X31883Y10698D01*
X46166Y10698D02*
X52895Y10698D01*
X0446Y10748D02*
X7175Y10748D01*
X21440Y10748D02*
X31900Y10748D01*
X46166Y10748D02*
X52895Y10748D01*
X0446Y10797D02*
X7175Y10797D01*
X21424Y10797D02*
X31916Y10797D01*
X46166Y10797D02*
X52895Y10797D01*
X0446Y10847D02*
X7175Y10847D01*
X21407Y10847D02*
X31933Y10847D01*
X46166Y10847D02*
X52895Y10847D01*
X0446Y10896D02*
X7175Y10896D01*
X21391Y10896D02*
X31949Y10896D01*
X46166Y10896D02*
X52895Y10896D01*
X0446Y10946D02*
X7175Y10946D01*
X21374Y10946D02*
X31966Y10946D01*
X46166Y10946D02*
X52895Y10946D01*
X0446Y10995D02*
X7175Y10995D01*
X21358Y10995D02*
X31982Y10995D01*
X46166Y10995D02*
X52895Y10995D01*
X0446Y11045D02*
X7175Y11045D01*
X21341Y11045D02*
X31999Y11045D01*
X46166Y11045D02*
X52895Y11045D01*
X0446Y11094D02*
X7175Y11094D01*
X21325Y11094D02*
X32015Y11094D01*
X46166Y11094D02*
X52895Y11094D01*
X0446Y11144D02*
X7175Y11144D01*
X21308Y11144D02*
X32032Y11144D01*
X46166Y11144D02*
X52895Y11144D01*
X0446Y11194D02*
X7175Y11194D01*
X21292Y11194D02*
X32048Y11194D01*
X46166Y11194D02*
X52895Y11194D01*
X0446Y11243D02*
X7175Y11243D01*
X21275Y11243D02*
X32065Y11243D01*
X46166Y11243D02*
X52895Y11243D01*
X0446Y11293D02*
X7175Y11293D01*
X21259Y11293D02*
X32081Y11293D01*
X46166Y11293D02*
X52895Y11293D01*
X0446Y11342D02*
X7175Y11342D01*
X21242Y11342D02*
X32098Y11342D01*
X46166Y11342D02*
X52895Y11342D01*
X0446Y11392D02*
X7175Y11392D01*
X21226Y11392D02*
X32114Y11392D01*
X46166Y11392D02*
X52895Y11392D01*
X0446Y11441D02*
X7175Y11441D01*
X21209Y11441D02*
X32131Y11441D01*
X46166Y11441D02*
X52895Y11441D01*
X0446Y11491D02*
X7175Y11491D01*
X21193Y11491D02*
X32147Y11491D01*
X46166Y11491D02*
X52895Y11491D01*
X0446Y11540D02*
X7175Y11540D01*
X21176Y11540D02*
X32164Y11540D01*
X46166Y11540D02*
X52895Y11540D01*
X0446Y11590D02*
X7175Y11590D01*
X21160Y11590D02*
X32180Y11590D01*
X46166Y11590D02*
X52895Y11590D01*
X0446Y11639D02*
X7175Y11639D01*
X21143Y11639D02*
X32197Y11639D01*
X46166Y11639D02*
X52895Y11639D01*
X0446Y11689D02*
X7175Y11689D01*
X21127Y11689D02*
X32213Y11689D01*
X46166Y11689D02*
X52895Y11689D01*
X0446Y11738D02*
X7175Y11738D01*
X21110Y11738D02*
X32230Y11738D01*
X46166Y11738D02*
X52895Y11738D01*
X0446Y11788D02*
X7175Y11788D01*
X21094Y11788D02*
X32246Y11788D01*
X46166Y11788D02*
X52895Y11788D01*
X0446Y11837D02*
X7175Y11837D01*
X21077Y11837D02*
X32263Y11837D01*
X46166Y11837D02*
X52895Y11837D01*
X0446Y11887D02*
X7175Y11887D01*
X21061Y11887D02*
X32279Y11887D01*
X46166Y11887D02*
X52895Y11887D01*
X0446Y11936D02*
X7175Y11936D01*
X21044Y11936D02*
X32296Y11936D01*
X46166Y11936D02*
X52895Y11936D01*
X0446Y11986D02*
X7175Y11986D01*
X21028Y11986D02*
X32312Y11986D01*
X46166Y11986D02*
X52895Y11986D01*
X0446Y12036D02*
X7175Y12036D01*
X21011Y12036D02*
X32329Y12036D01*
X46166Y12036D02*
X52895Y12036D01*
X0446Y12085D02*
X7175Y12085D01*
X20995Y12085D02*
X32345Y12085D01*
X46166Y12085D02*
X52895Y12085D01*
X0446Y12135D02*
X7175Y12135D01*
X20978Y12135D02*
X32362Y12135D01*
X46166Y12135D02*
X52895Y12135D01*
X0446Y12184D02*
X7175Y12184D01*
X20962Y12184D02*
X32378Y12184D01*
X46166Y12184D02*
X52895Y12184D01*
X0446Y12234D02*
X7175Y12234D01*
X20945Y12234D02*
X32395Y12234D01*
X46166Y12234D02*
X52895Y12234D01*
X0446Y12283D02*
X7175Y12283D01*
X20929Y12283D02*
X32411Y12283D01*
X46166Y12283D02*
X52895Y12283D01*
X0446Y12333D02*
X7175Y12333D01*
X20912Y12333D02*
X32428Y12333D01*
X46166Y12333D02*
X52895Y12333D01*
X0446Y12382D02*
X7175Y12382D01*
X20896Y12382D02*
X32444Y12382D01*
X46166Y12382D02*
X52895Y12382D01*
X0446Y12432D02*
X7175Y12432D01*
X20879Y12432D02*
X32461Y12432D01*
X46166Y12432D02*
X52895Y12432D01*
X0446Y12481D02*
X7175Y12481D01*
X20863Y12481D02*
X32477Y12481D01*
X46166Y12481D02*
X52895Y12481D01*
X0446Y12531D02*
X7175Y12531D01*
X20846Y12531D02*
X32494Y12531D01*
X46166Y12531D02*
X52895Y12531D01*
X0446Y12580D02*
X7175Y12580D01*
X20829Y12580D02*
X32511Y12580D01*
X46166Y12580D02*
X52895Y12580D01*
X0446Y12630D02*
X7175Y12630D01*
X20813Y12630D02*
X32527Y12630D01*
X46166Y12630D02*
X52894Y12630D01*
X0463Y12679D02*
X7175Y12679D01*
X20796Y12679D02*
X32544Y12679D01*
X46166Y12679D02*
X52877Y12679D01*
X0479Y12729D02*
X7177Y12729D01*
X20780Y12729D02*
X32560Y12729D01*
X46163Y12729D02*
X52861Y12729D01*
X0496Y12778D02*
X7182Y12778D01*
X20763Y12778D02*
X32577Y12778D01*
X46158Y12778D02*
X52844Y12778D01*
X0512Y12828D02*
X7196Y12828D01*
X20747Y12828D02*
X32593Y12828D01*
X46144Y12828D02*
X52828Y12828D01*
X0529Y12878D02*
X7212Y12878D01*
X20728Y12878D02*
X32612Y12878D01*
X46128Y12878D02*
X52811Y12878D01*
X0545Y12927D02*
X7239Y12927D01*
X20702Y12927D02*
X32638Y12927D01*
X46101Y12927D02*
X52795Y12927D01*
X0562Y12977D02*
X7273Y12977D01*
X20667Y12977D02*
X32673Y12977D01*
X46067Y12977D02*
X52778Y12977D01*
X0578Y13026D02*
X7319Y13026D01*
X20621Y13026D02*
X32719Y13026D01*
X46021Y13026D02*
X52762Y13026D01*
X0595Y13076D02*
X7382Y13076D01*
X20558Y13076D02*
X32782Y13076D01*
X45958Y13076D02*
X52745Y13076D01*
X0611Y13125D02*
X7494Y13125D01*
X20449Y13125D02*
X32891Y13125D01*
X45846Y13125D02*
X52729Y13125D01*
X0628Y13175D02*
X52712Y13175D01*
X0644Y13224D02*
X52696Y13224D01*
X0661Y13274D02*
X52679Y13274D01*
X0677Y13323D02*
X52663Y13323D01*
X0694Y13373D02*
X52646Y13373D01*
X0710Y13422D02*
X52630Y13422D01*
X0727Y13472D02*
X52613Y13472D01*
X0743Y13521D02*
X52597Y13521D01*
X0760Y13571D02*
X52580Y13571D01*
X0776Y13620D02*
X52564Y13620D01*
X0793Y13670D02*
X52547Y13670D01*
X0809Y13720D02*
X52531Y13720D01*
X0826Y13769D02*
X52514Y13769D01*
X0842Y13819D02*
X52498Y13819D01*
X0859Y13868D02*
X52481Y13868D01*
X0875Y13918D02*
X52465Y13918D01*
X0892Y13967D02*
X52448Y13967D01*
X0909Y14017D02*
X52431Y14017D01*
X0925Y14066D02*
X52415Y14066D01*
X0942Y14116D02*
X52398Y14116D01*
X0958Y14165D02*
X52382Y14165D01*
X0975Y14215D02*
X52365Y14215D01*
X0991Y14264D02*
X52349Y14264D01*
X1008Y14314D02*
X52332Y14314D01*
X1024Y14363D02*
X52316Y14363D01*
X1041Y14413D02*
X52299Y14413D01*
X1057Y14462D02*
X52283Y14462D01*
X1074Y14512D02*
X52266Y14512D01*
X1090Y14562D02*
X52250Y14562D01*
X1107Y14611D02*
X52233Y14611D01*
X1123Y14661D02*
X52217Y14661D01*
X1140Y14710D02*
X52200Y14710D01*
X1156Y14760D02*
X52184Y14760D01*
X1173Y14809D02*
X52167Y14809D01*
X1189Y14859D02*
X52151Y14859D01*
X1206Y14908D02*
X52134Y14908D01*
X1222Y14958D02*
X52118Y14958D01*
X1239Y15007D02*
X52101Y15007D01*
X1255Y15057D02*
X52085Y15057D01*
X1272Y15106D02*
X52068Y15106D01*
X1288Y15156D02*
X52052Y15156D01*
X1305Y15205D02*
X52035Y15205D01*
X1321Y15255D02*
X52019Y15255D01*
X1338Y15305D02*
X23019Y15305D01*
X25321Y15305D02*
X52002Y15305D01*
X1354Y15354D02*
X22969Y15354D01*
X25371Y15354D02*
X51986Y15354D01*
X1371Y15404D02*
X22939Y15404D01*
X25401Y15404D02*
X51969Y15404D01*
X1387Y15453D02*
X22922Y15453D01*
X25418Y15453D02*
X51953Y15453D01*
X1404Y15503D02*
X22915Y15503D01*
X25425Y15503D02*
X51936Y15503D01*
X1420Y15552D02*
X6066Y15552D01*
X6634Y15552D02*
X7992Y15552D01*
X9788Y15552D02*
X22915Y15552D01*
X25425Y15552D02*
X43552Y15552D01*
X45348Y15552D02*
X46706Y15552D01*
X46790Y15552D02*
X47190Y15552D01*
X47274Y15552D02*
X51920Y15552D01*
X1437Y15602D02*
X5933Y15602D01*
X6767Y15602D02*
X7941Y15602D01*
X9839Y15602D02*
X22915Y15602D01*
X25425Y15602D02*
X43501Y15602D01*
X45399Y15602D02*
X46573Y15602D01*
X46790Y15602D02*
X47190Y15602D01*
X47407Y15602D02*
X51903Y15602D01*
X1453Y15651D02*
X5839Y15651D01*
X6861Y15651D02*
X7910Y15651D01*
X9870Y15651D02*
X22915Y15651D01*
X25425Y15651D02*
X43470Y15651D01*
X45430Y15651D02*
X46479Y15651D01*
X46790Y15651D02*
X47190Y15651D01*
X47501Y15651D02*
X51887Y15651D01*
X1470Y15701D02*
X5759Y15701D01*
X6941Y15701D02*
X7893Y15701D01*
X9887Y15701D02*
X22915Y15701D01*
X25425Y15701D02*
X43453Y15701D01*
X45447Y15701D02*
X46399Y15701D01*
X46790Y15701D02*
X47190Y15701D01*
X47581Y15701D02*
X51870Y15701D01*
X1486Y15750D02*
X5703Y15750D01*
X6997Y15750D02*
X7886Y15750D01*
X9894Y15750D02*
X22915Y15750D01*
X25425Y15750D02*
X43446Y15750D01*
X45454Y15750D02*
X46343Y15750D01*
X46790Y15750D02*
X47190Y15750D01*
X47637Y15750D02*
X51854Y15750D01*
X1503Y15800D02*
X5647Y15800D01*
X7053Y15800D02*
X7885Y15800D01*
X9895Y15800D02*
X22915Y15800D01*
X25425Y15800D02*
X43445Y15800D01*
X45455Y15800D02*
X46287Y15800D01*
X46790Y15800D02*
X47190Y15800D01*
X47693Y15800D02*
X51837Y15800D01*
X1519Y15849D02*
X5593Y15849D01*
X7107Y15849D02*
X7885Y15849D01*
X9895Y15849D02*
X22915Y15849D01*
X25425Y15849D02*
X43445Y15849D01*
X45455Y15849D02*
X46233Y15849D01*
X47747Y15849D02*
X51821Y15849D01*
X1536Y15899D02*
X5559Y15899D01*
X7141Y15899D02*
X7885Y15899D01*
X9895Y15899D02*
X22915Y15899D01*
X25425Y15899D02*
X43445Y15899D01*
X45455Y15899D02*
X46199Y15899D01*
X47781Y15899D02*
X51804Y15899D01*
X1552Y15948D02*
X5525Y15948D01*
X7175Y15948D02*
X7885Y15948D01*
X9895Y15948D02*
X22915Y15948D01*
X25425Y15948D02*
X43445Y15948D01*
X45455Y15948D02*
X46165Y15948D01*
X47815Y15948D02*
X51788Y15948D01*
X1569Y15998D02*
X5491Y15998D01*
X7209Y15998D02*
X7885Y15998D01*
X9895Y15998D02*
X22915Y15998D01*
X25425Y15998D02*
X43445Y15998D01*
X45455Y15998D02*
X46131Y15998D01*
X47849Y15998D02*
X51771Y15998D01*
X1585Y16047D02*
X5458Y16047D01*
X7242Y16047D02*
X7885Y16047D01*
X9895Y16047D02*
X22915Y16047D01*
X25425Y16047D02*
X43445Y16047D01*
X45455Y16047D02*
X46098Y16047D01*
X47882Y16047D02*
X51755Y16047D01*
X1602Y16097D02*
X5439Y16097D01*
X7261Y16097D02*
X7885Y16097D01*
X9895Y16097D02*
X22915Y16097D01*
X25425Y16097D02*
X43445Y16097D01*
X45455Y16097D02*
X46079Y16097D01*
X47901Y16097D02*
X51738Y16097D01*
X1618Y16147D02*
X5421Y16147D01*
X7279Y16147D02*
X7885Y16147D01*
X9895Y16147D02*
X22915Y16147D01*
X25425Y16147D02*
X43445Y16147D01*
X45455Y16147D02*
X46061Y16147D01*
X47919Y16147D02*
X51722Y16147D01*
X1635Y16196D02*
X5402Y16196D01*
X7298Y16196D02*
X7885Y16196D01*
X9895Y16196D02*
X22915Y16196D01*
X25425Y16196D02*
X43445Y16196D01*
X45455Y16196D02*
X46042Y16196D01*
X47938Y16196D02*
X51705Y16196D01*
X1651Y16246D02*
X5383Y16246D01*
X7317Y16246D02*
X7885Y16246D01*
X9895Y16246D02*
X22915Y16246D01*
X25425Y16246D02*
X43445Y16246D01*
X45455Y16246D02*
X46023Y16246D01*
X47957Y16246D02*
X51689Y16246D01*
X1668Y16295D02*
X5371Y16295D01*
X7329Y16295D02*
X7885Y16295D01*
X9895Y16295D02*
X22915Y16295D01*
X25425Y16295D02*
X43445Y16295D01*
X45455Y16295D02*
X46011Y16295D01*
X47969Y16295D02*
X51672Y16295D01*
X1684Y16345D02*
X5365Y16345D01*
X7335Y16345D02*
X7885Y16345D01*
X9895Y16345D02*
X22915Y16345D01*
X25425Y16345D02*
X43445Y16345D01*
X45455Y16345D02*
X46303Y16345D01*
X47677Y16345D02*
X51656Y16345D01*
X1701Y16394D02*
X5359Y16394D01*
X7341Y16394D02*
X7885Y16394D01*
X9895Y16394D02*
X22915Y16394D01*
X25425Y16394D02*
X43445Y16394D01*
X45455Y16394D02*
X46303Y16394D01*
X47677Y16394D02*
X51639Y16394D01*
X1717Y16444D02*
X5353Y16444D01*
X7347Y16444D02*
X7885Y16444D01*
X9895Y16444D02*
X22915Y16444D01*
X25425Y16444D02*
X43445Y16444D01*
X45455Y16444D02*
X46303Y16444D01*
X47677Y16444D02*
X51623Y16444D01*
X1734Y16493D02*
X5347Y16493D01*
X7353Y16493D02*
X7885Y16493D01*
X9895Y16493D02*
X22915Y16493D01*
X25425Y16493D02*
X43445Y16493D01*
X45455Y16493D02*
X46303Y16493D01*
X47677Y16493D02*
X51606Y16493D01*
X1751Y16543D02*
X5349Y16543D01*
X7351Y16543D02*
X7885Y16543D01*
X9895Y16543D02*
X22915Y16543D01*
X25425Y16543D02*
X43445Y16543D01*
X45455Y16543D02*
X46303Y16543D01*
X47677Y16543D02*
X51589Y16543D01*
X1767Y16592D02*
X5355Y16592D01*
X7345Y16592D02*
X7885Y16592D01*
X9895Y16592D02*
X22915Y16592D01*
X25425Y16592D02*
X43445Y16592D01*
X45455Y16592D02*
X46303Y16592D01*
X47677Y16592D02*
X51573Y16592D01*
X1784Y16642D02*
X5361Y16642D01*
X7339Y16642D02*
X7885Y16642D01*
X9895Y16642D02*
X22915Y16642D01*
X25425Y16642D02*
X43445Y16642D01*
X45455Y16642D02*
X46303Y16642D01*
X47677Y16642D02*
X51556Y16642D01*
X1800Y16691D02*
X5367Y16691D01*
X7333Y16691D02*
X7885Y16691D01*
X9895Y16691D02*
X22915Y16691D01*
X25425Y16691D02*
X43445Y16691D01*
X45455Y16691D02*
X46303Y16691D01*
X47677Y16691D02*
X51540Y16691D01*
X1817Y16741D02*
X5373Y16741D01*
X7327Y16741D02*
X7885Y16741D01*
X9895Y16741D02*
X22915Y16741D01*
X25425Y16741D02*
X43445Y16741D01*
X45455Y16741D02*
X46013Y16741D01*
X47967Y16741D02*
X51523Y16741D01*
X1833Y16790D02*
X5389Y16790D01*
X7311Y16790D02*
X7885Y16790D01*
X9895Y16790D02*
X22915Y16790D01*
X25425Y16790D02*
X43445Y16790D01*
X45455Y16790D02*
X46029Y16790D01*
X47951Y16790D02*
X51507Y16790D01*
X1850Y16840D02*
X5408Y16840D01*
X7292Y16840D02*
X7885Y16840D01*
X9895Y16840D02*
X22915Y16840D01*
X25425Y16840D02*
X43445Y16840D01*
X45455Y16840D02*
X46048Y16840D01*
X47932Y16840D02*
X51490Y16840D01*
X1866Y16889D02*
X5427Y16889D01*
X7273Y16889D02*
X7885Y16889D01*
X9895Y16889D02*
X22915Y16889D01*
X25425Y16889D02*
X43445Y16889D01*
X45455Y16889D02*
X46067Y16889D01*
X47913Y16889D02*
X51474Y16889D01*
X1883Y16939D02*
X5445Y16939D01*
X7255Y16939D02*
X7885Y16939D01*
X9895Y16939D02*
X22915Y16939D01*
X25425Y16939D02*
X43445Y16939D01*
X45455Y16939D02*
X46085Y16939D01*
X47895Y16939D02*
X51457Y16939D01*
X1899Y16989D02*
X5468Y16989D01*
X7232Y16989D02*
X7885Y16989D01*
X9895Y16989D02*
X22915Y16989D01*
X25425Y16989D02*
X43445Y16989D01*
X45455Y16989D02*
X46108Y16989D01*
X47872Y16989D02*
X51441Y16989D01*
X1916Y17038D02*
X5502Y17038D01*
X7198Y17038D02*
X7885Y17038D01*
X9895Y17038D02*
X22915Y17038D01*
X25425Y17038D02*
X43445Y17038D01*
X45455Y17038D02*
X46142Y17038D01*
X47838Y17038D02*
X51424Y17038D01*
X1932Y17088D02*
X5536Y17088D01*
X7164Y17088D02*
X7885Y17088D01*
X9895Y17088D02*
X22915Y17088D01*
X25425Y17088D02*
X43445Y17088D01*
X45455Y17088D02*
X46176Y17088D01*
X47804Y17088D02*
X51408Y17088D01*
X1949Y17137D02*
X5570Y17137D01*
X7130Y17137D02*
X7885Y17137D01*
X9895Y17137D02*
X22915Y17137D01*
X25425Y17137D02*
X43445Y17137D01*
X45455Y17137D02*
X46210Y17137D01*
X47770Y17137D02*
X51391Y17137D01*
X1965Y17187D02*
X5609Y17187D01*
X7091Y17187D02*
X7885Y17187D01*
X9895Y17187D02*
X22915Y17187D01*
X25425Y17187D02*
X43445Y17187D01*
X45455Y17187D02*
X46249Y17187D01*
X47731Y17187D02*
X51375Y17187D01*
X1982Y17236D02*
X5665Y17236D01*
X7035Y17236D02*
X7885Y17236D01*
X9895Y17236D02*
X22915Y17236D01*
X25425Y17236D02*
X43445Y17236D01*
X45455Y17236D02*
X46305Y17236D01*
X46790Y17236D02*
X47190Y17236D01*
X47675Y17236D02*
X51358Y17236D01*
X1998Y17286D02*
X5721Y17286D01*
X6979Y17286D02*
X7887Y17286D01*
X9893Y17286D02*
X22915Y17286D01*
X25425Y17286D02*
X43447Y17286D01*
X45453Y17286D02*
X46361Y17286D01*
X46790Y17286D02*
X47190Y17286D01*
X47619Y17286D02*
X51342Y17286D01*
X2015Y17335D02*
X5777Y17335D01*
X6923Y17335D02*
X7896Y17335D01*
X9884Y17335D02*
X22915Y17335D01*
X25425Y17335D02*
X43456Y17335D01*
X45444Y17335D02*
X46417Y17335D01*
X46790Y17335D02*
X47190Y17335D01*
X47563Y17335D02*
X51325Y17335D01*
X2031Y17385D02*
X5869Y17385D01*
X6831Y17385D02*
X7918Y17385D01*
X9862Y17385D02*
X22915Y17385D01*
X25425Y17385D02*
X43478Y17385D01*
X45422Y17385D02*
X46509Y17385D01*
X46790Y17385D02*
X47190Y17385D01*
X47471Y17385D02*
X51309Y17385D01*
X2048Y17434D02*
X5964Y17434D01*
X6736Y17434D02*
X7954Y17434D01*
X9826Y17434D02*
X22915Y17434D01*
X25425Y17434D02*
X43514Y17434D01*
X45386Y17434D02*
X46604Y17434D01*
X46790Y17434D02*
X47190Y17434D01*
X47376Y17434D02*
X51292Y17434D01*
X2064Y17484D02*
X6131Y17484D01*
X6569Y17484D02*
X8018Y17484D01*
X9762Y17484D02*
X22915Y17484D01*
X25425Y17484D02*
X43578Y17484D01*
X45322Y17484D02*
X46771Y17484D01*
X46790Y17484D02*
X47190Y17484D01*
X47209Y17484D02*
X51276Y17484D01*
X2081Y17533D02*
X22917Y17533D01*
X25423Y17533D02*
X51259Y17533D01*
X2097Y17583D02*
X22926Y17583D01*
X25414Y17583D02*
X51243Y17583D01*
X2114Y17632D02*
X22947Y17632D01*
X25393Y17632D02*
X51226Y17632D01*
X2130Y17682D02*
X22982Y17682D01*
X25358Y17682D02*
X51210Y17682D01*
X2147Y17731D02*
X23044Y17731D01*
X25296Y17731D02*
X51193Y17731D01*
X2163Y17781D02*
X51177Y17781D01*
X2180Y17831D02*
X51160Y17831D01*
X2196Y17880D02*
X51144Y17880D01*
X2213Y17930D02*
X51127Y17930D01*
X2229Y17979D02*
X51111Y17979D01*
X2246Y18029D02*
X51094Y18029D01*
X2262Y18078D02*
X51078Y18078D01*
X2279Y18128D02*
X51061Y18128D01*
X2295Y18177D02*
X51045Y18177D01*
X2312Y18227D02*
X51028Y18227D01*
X2328Y18276D02*
X51012Y18276D01*
X2345Y18326D02*
X50995Y18326D01*
X2361Y18375D02*
X50979Y18375D01*
X2378Y18425D02*
X50962Y18425D01*
X2394Y18474D02*
X50946Y18474D01*
X2411Y18524D02*
X50929Y18524D01*
X2427Y18573D02*
X50913Y18573D01*
X2444Y18623D02*
X50896Y18623D01*
X2460Y18673D02*
X50880Y18673D01*
X2477Y18722D02*
X50863Y18722D01*
X2493Y18772D02*
X50847Y18772D01*
X2510Y18821D02*
X50830Y18821D01*
X2526Y18871D02*
X50814Y18871D01*
X2543Y18920D02*
X50797Y18920D01*
X2560Y18970D02*
X50780Y18970D01*
X2576Y19019D02*
X50764Y19019D01*
X2593Y19069D02*
X50747Y19069D01*
X2609Y19118D02*
X50731Y19118D01*
X2626Y19168D02*
X50714Y19168D01*
X2642Y19217D02*
X50698Y19217D01*
X2659Y19267D02*
X50681Y19267D01*
X2675Y19316D02*
X50665Y19316D01*
X2692Y19366D02*
X50648Y19366D01*
X2708Y19415D02*
X50632Y19415D01*
X2725Y19465D02*
X50615Y19465D01*
X2741Y19515D02*
X50599Y19515D01*
X2758Y19564D02*
X50582Y19564D01*
X2774Y19614D02*
X50566Y19614D01*
X2791Y19663D02*
X50549Y19663D01*
X2807Y19713D02*
X50533Y19713D01*
X2824Y19762D02*
X50516Y19762D01*
X2840Y19812D02*
X50500Y19812D01*
X2857Y19861D02*
X50483Y19861D01*
%LNtop copper_traces*%
D11*
X22809Y12776D03*
%LNtop copper component d884e53a61bc2bc3*%
D12*
X24170Y16510D03*
D13*
X29170Y16510D03*
%LNtop copper component 69ae52b910a5c8af*%
D14*
X44450Y16510D03*
D15*
X46990Y16510D03*
%LNtop copper component 8889ed7dfd5d4ee6*%
D16*
X2540Y5080D03*
X2540Y2540D03*
X5080Y5080D03*
X5080Y2540D03*
%LNtop copper component d1eda6cb61111443*%
X48260Y5080D03*
X48260Y2540D03*
X50800Y5080D03*
X50800Y2540D03*
%LNtop copper component e1997f597a53e994*%
D17*
X6350Y16510D03*
D18*
X8890Y16510D03*
M02*