%FSLAX33Y33*%
%MOMM*%
%ADD10C,0.15*%
%ADD11C,0.5*%
%ADD12C,0.3*%
%ADD13C,6.45X6.15*%
%ADD14C,6.45X6.15*%
D10*
%LNtop silkscreen_traces*%
%LNtop silkscreen component d884e53a61bc2bc3*%
G01*
X21469Y12209D02*
X21469Y20811D01*
X31871Y20811*
X31871Y12209*
X21469Y12209*
D11*
X24169Y21260D03*
%LNtop silkscreen component 69ae52b910a5c8af*%
D12*
X43200Y14935D02*
X43200Y18085D01*
D13*
X45720Y16510D03*
G36*
X49667Y16385D02*
X49762Y16361D01*
X49744Y16306D01*
X49720Y16258D01*
X49690Y16217D01*
X49654Y16183D01*
X49614Y16156D01*
X49568Y16137D01*
X49519Y16125D01*
X49465Y16122D01*
X49410Y16125D01*
X49360Y16133D01*
X49316Y16148D01*
X49277Y16169D01*
X49243Y16195D01*
X49213Y16226D01*
X49188Y16263D01*
X49167Y16305D01*
X49150Y16351D01*
X49138Y16398D01*
X49131Y16447D01*
X49129Y16497D01*
X49131Y16551D01*
X49139Y16602D01*
X49153Y16649D01*
X49172Y16692D01*
X49195Y16731D01*
X49223Y16765D01*
X49256Y16795D01*
X49293Y16819D01*
X49334Y16838D01*
X49376Y16851D01*
X49420Y16859D01*
X49467Y16862D01*
X49518Y16858D01*
X49566Y16848D01*
X49609Y16831D01*
X49647Y16807D01*
X49681Y16777D01*
X49709Y16741D01*
X49732Y16700D01*
X49749Y16653D01*
X49656Y16631D01*
X49642Y16668D01*
X49626Y16699D01*
X49606Y16725D01*
X49584Y16745D01*
X49559Y16761D01*
X49530Y16772D01*
X49499Y16779D01*
X49465Y16781D01*
X49425Y16778D01*
X49389Y16771D01*
X49356Y16759D01*
X49327Y16741D01*
X49301Y16720D01*
X49280Y16695D01*
X49262Y16667D01*
X49249Y16635D01*
X49239Y16601D01*
X49232Y16567D01*
X49228Y16533D01*
X49226Y16498D01*
X49228Y16453D01*
X49233Y16412D01*
X49241Y16374D01*
X49253Y16338D01*
X49268Y16306D01*
X49287Y16279D01*
X49310Y16255D01*
X49336Y16236D01*
X49364Y16222D01*
X49394Y16211D01*
X49425Y16205D01*
X49457Y16203D01*
X49496Y16206D01*
X49531Y16214D01*
X49563Y16228D01*
X49592Y16249D01*
X49618Y16274D01*
X49638Y16306D01*
X49655Y16342D01*
X49667Y16385D01*
X49667Y16385D01*
X50305Y16218D02*
X50305Y16134D01*
X49831Y16134D01*
X49832Y16150D01*
X49834Y16165D01*
X49837Y16180D01*
X49842Y16195D01*
X49852Y16219D01*
X49865Y16243D01*
X49881Y16267D01*
X49900Y16290D01*
X49922Y16314D01*
X49948Y16341D01*
X49979Y16369D01*
X50015Y16398D01*
X50068Y16444D01*
X50112Y16484D01*
X50147Y16520D01*
X50172Y16550D01*
X50190Y16578D01*
X50203Y16604D01*
X50211Y16630D01*
X50213Y16656D01*
X50211Y16681D01*
X50204Y16704D01*
X50192Y16725D01*
X50176Y16744D01*
X50156Y16760D01*
X50133Y16771D01*
X50107Y16778D01*
X50079Y16780D01*
X50048Y16777D01*
X50021Y16770D01*
X49998Y16758D01*
X49977Y16742D01*
X49960Y16721D01*
X49948Y16696D01*
X49941Y16668D01*
X49938Y16636D01*
X49848Y16646D01*
X49856Y16693D01*
X49870Y16735D01*
X49891Y16770D01*
X49918Y16800D01*
X49951Y16823D01*
X49989Y16839D01*
X50032Y16849D01*
X50080Y16853D01*
X50129Y16849D01*
X50173Y16838D01*
X50211Y16820D01*
X50244Y16795D01*
X50270Y16765D01*
X50289Y16731D01*
X50300Y16694D01*
X50304Y16654D01*
X50303Y16632D01*
X50299Y16611D01*
X50294Y16590D01*
X50286Y16569D01*
X50276Y16548D01*
X50263Y16527D01*
X50247Y16505D01*
X50228Y16482D01*
X50204Y16457D01*
X50173Y16428D01*
X50136Y16394D01*
X50092Y16356D01*
X50056Y16325D01*
X50027Y16300D01*
X50005Y16280D01*
X49991Y16266D01*
X49980Y16254D01*
X49970Y16242D01*
X49961Y16230D01*
X49954Y16218D01*
X50305Y16218D01*
X50305Y16218D01*
G37*
%LNtop silkscreen component 8889ed7dfd5d4ee6*%
G36*
X1321Y1321D02*
X6299Y1321D01*
X6299Y6299D01*
X1321Y6299D01*
X1321Y1321D01*
X0813Y0813D02*
X6807Y0813D01*
X6807Y6807D01*
X0813Y6807D01*
X0813Y0813D01*
G37*
%LNtop silkscreen component d1eda6cb61111443*%
G36*
X47041Y1321D02*
X52019Y1321D01*
X52019Y6299D01*
X47041Y6299D01*
X47041Y1321D01*
X46533Y0813D02*
X52527Y0813D01*
X52527Y6807D01*
X46533Y6807D01*
X46533Y0813D01*
G37*
%LNtop silkscreen component e1997f597a53e994*%
D12*
X10140Y18085D02*
X10140Y14935D01*
D14*
X7620Y16510D03*
G36*
X3667Y16359D02*
X3762Y16335D01*
X3744Y16281D01*
X3721Y16233D01*
X3691Y16192D01*
X3655Y16157D01*
X3614Y16131D01*
X3569Y16112D01*
X3520Y16100D01*
X3466Y16096D01*
X3411Y16099D01*
X3361Y16108D01*
X3317Y16123D01*
X3278Y16143D01*
X3244Y16170D01*
X3214Y16201D01*
X3188Y16238D01*
X3167Y16280D01*
X3151Y16325D01*
X3139Y16372D01*
X3132Y16421D01*
X3129Y16472D01*
X3132Y16526D01*
X3140Y16576D01*
X3153Y16623D01*
X3172Y16667D01*
X3196Y16706D01*
X3224Y16740D01*
X3257Y16769D01*
X3294Y16793D01*
X3334Y16812D01*
X3377Y16826D01*
X3421Y16834D01*
X3467Y16836D01*
X3519Y16833D01*
X3566Y16823D01*
X3609Y16806D01*
X3648Y16782D01*
X3682Y16752D01*
X3710Y16716D01*
X3733Y16675D01*
X3750Y16628D01*
X3657Y16606D01*
X3643Y16642D01*
X3626Y16673D01*
X3607Y16699D01*
X3584Y16720D01*
X3559Y16735D01*
X3531Y16746D01*
X3500Y16753D01*
X3465Y16755D01*
X3426Y16753D01*
X3390Y16745D01*
X3357Y16733D01*
X3327Y16716D01*
X3302Y16694D01*
X3280Y16669D01*
X3263Y16641D01*
X3250Y16610D01*
X3240Y16576D01*
X3233Y16542D01*
X3228Y16507D01*
X3227Y16472D01*
X3229Y16428D01*
X3234Y16387D01*
X3242Y16348D01*
X3254Y16313D01*
X3269Y16281D01*
X3288Y16253D01*
X3310Y16230D01*
X3336Y16211D01*
X3365Y16196D01*
X3395Y16186D01*
X3426Y16179D01*
X3458Y16177D01*
X3496Y16180D01*
X3532Y16189D01*
X3564Y16203D01*
X3593Y16223D01*
X3618Y16249D01*
X3639Y16280D01*
X3655Y16317D01*
X3667Y16359D01*
X3667Y16359D01*
X4174Y16108D02*
X4086Y16108D01*
X4086Y16668D01*
X4069Y16653D01*
X4050Y16638D01*
X4028Y16623D01*
X4003Y16608D01*
X3978Y16594D01*
X3954Y16581D01*
X3932Y16571D01*
X3911Y16563D01*
X3911Y16647D01*
X3946Y16666D01*
X3980Y16686D01*
X4011Y16708D01*
X4040Y16731D01*
X4065Y16756D01*
X4087Y16780D01*
X4104Y16804D01*
X4118Y16827D01*
X4174Y16827D01*
X4174Y16108D01*
X4174Y16108D01*
G37*
%LNtext*%
G36*
X3277Y7791D02*
X2004Y7298D01*
X2004Y7480D01*
X2928Y7811D01*
X2983Y7830D01*
X3036Y7847D01*
X3087Y7863D01*
X3137Y7878D01*
X3085Y7893D01*
X3033Y7909D01*
X2981Y7927D01*
X2928Y7946D01*
X2004Y8290D01*
X2004Y8462D01*
X3277Y7963D01*
X3277Y7791D01*
X3277Y7791D01*
X2830Y9521D02*
X2873Y9689D01*
X2970Y9658D01*
X3056Y9615D01*
X3129Y9562D01*
X3189Y9499D01*
X3237Y9426D01*
X3271Y9346D01*
X3291Y9258D01*
X3298Y9162D01*
X3293Y9064D01*
X3277Y8976D01*
X3251Y8897D01*
X3215Y8828D01*
X3168Y8767D01*
X3112Y8714D01*
X3047Y8669D01*
X2972Y8632D01*
X2891Y8602D01*
X2807Y8581D01*
X2720Y8568D01*
X2631Y8564D01*
X2534Y8569D01*
X2445Y8583D01*
X2361Y8607D01*
X2284Y8640D01*
X2214Y8682D01*
X2154Y8732D01*
X2102Y8790D01*
X2059Y8856D01*
X2025Y8928D01*
X2001Y9004D01*
X1987Y9083D01*
X1982Y9165D01*
X1988Y9257D01*
X2006Y9341D01*
X2037Y9417D01*
X2079Y9486D01*
X2133Y9546D01*
X2196Y9597D01*
X2270Y9637D01*
X2353Y9668D01*
X2392Y9502D01*
X2327Y9477D01*
X2272Y9448D01*
X2226Y9413D01*
X2190Y9373D01*
X2162Y9329D01*
X2142Y9278D01*
X2130Y9223D01*
X2126Y9162D01*
X2131Y9091D01*
X2144Y9027D01*
X2166Y8969D01*
X2197Y8916D01*
X2235Y8871D01*
X2279Y8832D01*
X2329Y8801D01*
X2385Y8778D01*
X2445Y8760D01*
X2506Y8748D01*
X2567Y8740D01*
X2630Y8738D01*
X2708Y8741D01*
X2782Y8750D01*
X2850Y8765D01*
X2913Y8785D01*
X2970Y8812D01*
X3019Y8846D01*
X3061Y8886D01*
X3094Y8932D01*
X3120Y8983D01*
X3139Y9036D01*
X3150Y9091D01*
X3154Y9149D01*
X3149Y9217D01*
X3134Y9279D01*
X3108Y9336D01*
X3073Y9388D01*
X3027Y9433D01*
X2971Y9470D01*
X2906Y9500D01*
X2830Y9521D01*
X2830Y9521D01*
X2830Y10805D02*
X2873Y10973D01*
X2970Y10942D01*
X3056Y10899D01*
X3129Y10846D01*
X3189Y10783D01*
X3237Y10710D01*
X3271Y10630D01*
X3291Y10542D01*
X3298Y10446D01*
X3293Y10348D01*
X3277Y10260D01*
X3251Y10181D01*
X3215Y10112D01*
X3168Y10051D01*
X3112Y9998D01*
X3047Y9953D01*
X2972Y9916D01*
X2891Y9886D01*
X2807Y9865D01*
X2720Y9853D01*
X2631Y9848D01*
X2534Y9853D01*
X2445Y9867D01*
X2361Y9891D01*
X2284Y9924D01*
X2214Y9966D01*
X2154Y10016D01*
X2102Y10074D01*
X2059Y10140D01*
X2025Y10212D01*
X2001Y10288D01*
X1987Y10367D01*
X1982Y10449D01*
X1988Y10541D01*
X2006Y10625D01*
X2037Y10701D01*
X2079Y10770D01*
X2133Y10830D01*
X2196Y10881D01*
X2270Y10921D01*
X2353Y10952D01*
X2392Y10786D01*
X2327Y10761D01*
X2272Y10732D01*
X2226Y10697D01*
X2190Y10657D01*
X2162Y10613D01*
X2142Y10562D01*
X2130Y10507D01*
X2126Y10446D01*
X2131Y10375D01*
X2144Y10311D01*
X2166Y10253D01*
X2197Y10200D01*
X2235Y10155D01*
X2279Y10116D01*
X2329Y10086D01*
X2385Y10062D01*
X2445Y10044D01*
X2506Y10032D01*
X2567Y10024D01*
X2630Y10022D01*
X2708Y10025D01*
X2782Y10034D01*
X2850Y10049D01*
X2913Y10069D01*
X2970Y10096D01*
X3019Y10130D01*
X3061Y10170D01*
X3094Y10216D01*
X3120Y10267D01*
X3139Y10320D01*
X3150Y10375D01*
X3154Y10433D01*
X3149Y10501D01*
X3134Y10563D01*
X3108Y10620D01*
X3073Y10672D01*
X3027Y10717D01*
X2971Y10754D01*
X2906Y10784D01*
X2830Y10805D01*
X2830Y10805D01*
X48997Y7816D02*
X47724Y7323D01*
X47724Y7505D01*
X48648Y7836D01*
X48703Y7855D01*
X48756Y7873D01*
X48807Y7889D01*
X48857Y7903D01*
X48805Y7918D01*
X48753Y7935D01*
X48701Y7953D01*
X48648Y7972D01*
X47724Y8315D01*
X47724Y8487D01*
X48997Y7989D01*
X48997Y7816D01*
X48997Y7816D01*
X48997Y8642D02*
X47724Y8642D01*
X47724Y9562D01*
X47874Y9562D01*
X47874Y8810D01*
X48264Y8810D01*
X48264Y9514D01*
X48413Y9514D01*
X48413Y8810D01*
X48846Y8810D01*
X48846Y9592D01*
X48997Y9592D01*
X48997Y8642D01*
X48997Y8642D01*
X48997Y9828D02*
X47724Y9828D01*
X47724Y10748D01*
X47874Y10748D01*
X47874Y9996D01*
X48264Y9996D01*
X48264Y10700D01*
X48413Y10700D01*
X48413Y9996D01*
X48846Y9996D01*
X48846Y10777D01*
X48997Y10777D01*
X48997Y9828D01*
X48997Y9828D01*
X50961Y7921D02*
X50812Y7921D01*
X50811Y8460D01*
X51283Y8460D01*
X51330Y8397D01*
X51370Y8334D01*
X51404Y8269D01*
X51432Y8204D01*
X51454Y8138D01*
X51470Y8070D01*
X51479Y8002D01*
X51482Y7933D01*
X51477Y7841D01*
X51462Y7754D01*
X51437Y7671D01*
X51402Y7592D01*
X51357Y7520D01*
X51304Y7458D01*
X51241Y7405D01*
X51170Y7361D01*
X51091Y7327D01*
X51009Y7302D01*
X50922Y7288D01*
X50830Y7283D01*
X50739Y7288D01*
X50651Y7302D01*
X50565Y7327D01*
X50483Y7361D01*
X50408Y7404D01*
X50343Y7455D01*
X50288Y7515D01*
X50244Y7584D01*
X50210Y7660D01*
X50186Y7741D01*
X50171Y7828D01*
X50166Y7920D01*
X50169Y7987D01*
X50177Y8051D01*
X50191Y8112D01*
X50211Y8170D01*
X50235Y8222D01*
X50264Y8269D01*
X50298Y8310D01*
X50335Y8345D01*
X50378Y8374D01*
X50427Y8400D01*
X50482Y8423D01*
X50544Y8441D01*
X50585Y8289D01*
X50539Y8274D01*
X50498Y8257D01*
X50463Y8238D01*
X50432Y8218D01*
X50406Y8194D01*
X50382Y8166D01*
X50362Y8134D01*
X50344Y8096D01*
X50329Y8056D01*
X50318Y8013D01*
X50312Y7968D01*
X50310Y7921D01*
X50312Y7865D01*
X50319Y7813D01*
X50330Y7765D01*
X50345Y7721D01*
X50364Y7681D01*
X50386Y7645D01*
X50410Y7613D01*
X50438Y7585D01*
X50467Y7561D01*
X50498Y7539D01*
X50530Y7521D01*
X50564Y7505D01*
X50624Y7484D01*
X50687Y7469D01*
X50752Y7460D01*
X50820Y7456D01*
X50901Y7460D01*
X50976Y7471D01*
X51044Y7489D01*
X51104Y7515D01*
X51158Y7548D01*
X51204Y7587D01*
X51243Y7633D01*
X51275Y7686D01*
X51299Y7743D01*
X51316Y7801D01*
X51327Y7861D01*
X51330Y7924D01*
X51328Y7978D01*
X51320Y8032D01*
X51306Y8085D01*
X51288Y8137D01*
X51267Y8186D01*
X51245Y8229D01*
X51222Y8265D01*
X51198Y8295D01*
X50961Y8295D01*
X50961Y7921D01*
X50961Y7921D01*
X51460Y8707D02*
X50188Y8707D01*
X50188Y8879D01*
X51187Y9548D01*
X50188Y9548D01*
X50188Y9709D01*
X51460Y9709D01*
X51460Y9537D01*
X50460Y8868D01*
X51460Y8868D01*
X51460Y8707D01*
X51460Y8707D01*
X51460Y9992D02*
X50188Y9992D01*
X50188Y10428D01*
X50338Y10428D01*
X50338Y10161D01*
X51310Y10161D01*
X51310Y10161D01*
X51310Y10433D01*
X51309Y10492D01*
X51304Y10545D01*
X51297Y10591D01*
X51287Y10630D01*
X51274Y10664D01*
X51259Y10694D01*
X51241Y10721D01*
X51221Y10744D01*
X51188Y10773D01*
X51151Y10798D01*
X51108Y10819D01*
X51060Y10838D01*
X51006Y10852D01*
X50948Y10863D01*
X50884Y10869D01*
X50814Y10871D01*
X50720Y10867D01*
X50638Y10855D01*
X50567Y10834D01*
X50508Y10805D01*
X50458Y10771D01*
X50418Y10733D01*
X50387Y10691D01*
X50364Y10646D01*
X50353Y10607D01*
X50344Y10558D01*
X50339Y10498D01*
X50338Y10428D01*
X50188Y10428D01*
X50188Y10431D01*
X50189Y10501D01*
X50192Y10562D01*
X50198Y10614D01*
X50206Y10657D01*
X50221Y10710D01*
X50241Y10759D01*
X50267Y10803D01*
X50297Y10844D01*
X50343Y10891D01*
X50394Y10932D01*
X50451Y10967D01*
X50515Y10995D01*
X50583Y11017D01*
X50656Y11032D01*
X50734Y11042D01*
X50817Y11045D01*
X50888Y11043D01*
X50954Y11036D01*
X51016Y11026D01*
X51074Y11011D01*
X51128Y10993D01*
X51176Y10972D01*
X51220Y10949D01*
X51259Y10924D01*
X51294Y10897D01*
X51325Y10869D01*
X51352Y10839D01*
X51375Y10808D01*
X51395Y10775D01*
X51412Y10739D01*
X51427Y10699D01*
X51439Y10656D01*
X51448Y10610D01*
X51455Y10561D01*
X51459Y10508D01*
X51460Y10452D01*
X51460Y9992D01*
X51460Y9992D01*
X13440Y15088D02*
X12383Y17815D01*
X12774Y17815D01*
X13483Y15834D01*
X13524Y15716D01*
X13561Y15603D01*
X13595Y15493D01*
X13626Y15387D01*
X13659Y15499D01*
X13694Y15610D01*
X13732Y15722D01*
X13773Y15834D01*
X14510Y17815D01*
X14878Y17815D01*
X13810Y15088D01*
X13440Y15088D01*
X13440Y15088D01*
X17148Y16044D02*
X17509Y15953D01*
X17441Y15744D01*
X17350Y15561D01*
X17236Y15405D01*
X17100Y15275D01*
X16945Y15172D01*
X16773Y15099D01*
X16584Y15056D01*
X16379Y15041D01*
X16169Y15052D01*
X15980Y15086D01*
X15811Y15142D01*
X15662Y15221D01*
X15532Y15320D01*
X15419Y15440D01*
X15322Y15580D01*
X15242Y15741D01*
X15179Y15914D01*
X15134Y16094D01*
X15107Y16280D01*
X15098Y16472D01*
X15108Y16678D01*
X15138Y16871D01*
X15189Y17050D01*
X15260Y17215D01*
X15350Y17364D01*
X15458Y17494D01*
X15582Y17605D01*
X15724Y17697D01*
X15878Y17769D01*
X16039Y17820D01*
X16208Y17851D01*
X16385Y17861D01*
X16581Y17848D01*
X16762Y17809D01*
X16926Y17744D01*
X17073Y17653D01*
X17202Y17538D01*
X17310Y17402D01*
X17397Y17245D01*
X17462Y17067D01*
X17107Y16983D01*
X17054Y17122D01*
X16990Y17240D01*
X16916Y17339D01*
X16831Y17417D01*
X16735Y17476D01*
X16628Y17519D01*
X16508Y17544D01*
X16377Y17553D01*
X16227Y17543D01*
X16089Y17515D01*
X15964Y17468D01*
X15852Y17402D01*
X15754Y17320D01*
X15672Y17225D01*
X15606Y17118D01*
X15555Y16997D01*
X15518Y16869D01*
X15491Y16739D01*
X15475Y16607D01*
X15470Y16474D01*
X15476Y16305D01*
X15495Y16148D01*
X15527Y16001D01*
X15571Y15866D01*
X15629Y15745D01*
X15701Y15639D01*
X15786Y15551D01*
X15886Y15478D01*
X15996Y15422D01*
X16109Y15382D01*
X16227Y15358D01*
X16350Y15350D01*
X16495Y15361D01*
X16630Y15394D01*
X16752Y15448D01*
X16863Y15525D01*
X16960Y15623D01*
X17039Y15742D01*
X17102Y15882D01*
X17148Y16044D01*
X17148Y16044D01*
X19899Y16044D02*
X20260Y15953D01*
X20192Y15744D01*
X20101Y15561D01*
X19988Y15405D01*
X19852Y15275D01*
X19696Y15172D01*
X19524Y15099D01*
X19336Y15056D01*
X19131Y15041D01*
X18921Y15052D01*
X18731Y15086D01*
X18562Y15142D01*
X18414Y15221D01*
X18284Y15320D01*
X18170Y15440D01*
X18074Y15580D01*
X17993Y15741D01*
X17930Y15914D01*
X17885Y16094D01*
X17858Y16280D01*
X17849Y16472D01*
X17859Y16678D01*
X17890Y16871D01*
X17941Y17050D01*
X18012Y17215D01*
X18102Y17364D01*
X18209Y17494D01*
X18333Y17605D01*
X18475Y17697D01*
X18629Y17769D01*
X18791Y17820D01*
X18960Y17851D01*
X19136Y17861D01*
X19333Y17848D01*
X19513Y17809D01*
X19677Y17744D01*
X19825Y17653D01*
X19954Y17538D01*
X20061Y17402D01*
X20148Y17245D01*
X20214Y17067D01*
X19858Y16983D01*
X19805Y17122D01*
X19742Y17240D01*
X19668Y17339D01*
X19583Y17417D01*
X19487Y17476D01*
X19379Y17519D01*
X19260Y17544D01*
X19129Y17553D01*
X18978Y17543D01*
X18840Y17515D01*
X18715Y17468D01*
X18603Y17402D01*
X18506Y17320D01*
X18424Y17225D01*
X18357Y17118D01*
X18307Y16997D01*
X18269Y16869D01*
X18243Y16739D01*
X18226Y16607D01*
X18221Y16474D01*
X18227Y16305D01*
X18246Y16148D01*
X18278Y16001D01*
X18323Y15866D01*
X18380Y15745D01*
X18452Y15639D01*
X18538Y15551D01*
X18638Y15478D01*
X18747Y15422D01*
X18861Y15382D01*
X18979Y15358D01*
X19101Y15350D01*
X19247Y15361D01*
X19381Y15394D01*
X19504Y15448D01*
X19615Y15525D01*
X19711Y15623D01*
X19791Y15742D01*
X19853Y15882D01*
X19899Y16044D01*
X19899Y16044D01*
X5216Y7896D02*
X5066Y7896D01*
X5066Y8435D01*
X5538Y8435D01*
X5584Y8372D01*
X5625Y8309D01*
X5659Y8244D01*
X5687Y8179D01*
X5709Y8112D01*
X5724Y8045D01*
X5734Y7977D01*
X5737Y7908D01*
X5732Y7816D01*
X5717Y7729D01*
X5692Y7646D01*
X5656Y7567D01*
X5612Y7495D01*
X5558Y7432D01*
X5496Y7379D01*
X5424Y7336D01*
X5346Y7301D01*
X5263Y7277D01*
X5176Y7262D01*
X5085Y7257D01*
X4993Y7262D01*
X4905Y7277D01*
X4820Y7301D01*
X4738Y7335D01*
X4663Y7378D01*
X4598Y7430D01*
X4543Y7490D01*
X4499Y7559D01*
X4465Y7634D01*
X4440Y7716D01*
X4425Y7802D01*
X4421Y7895D01*
X4423Y7962D01*
X4432Y8026D01*
X4446Y8087D01*
X4465Y8144D01*
X4490Y8197D01*
X4519Y8244D01*
X4552Y8284D01*
X4590Y8319D01*
X4633Y8349D01*
X4682Y8375D01*
X4737Y8397D01*
X4798Y8416D01*
X4840Y8264D01*
X4794Y8248D01*
X4753Y8232D01*
X4717Y8213D01*
X4687Y8192D01*
X4661Y8169D01*
X4637Y8141D01*
X4616Y8108D01*
X4598Y8071D01*
X4583Y8030D01*
X4573Y7988D01*
X4567Y7943D01*
X4565Y7896D01*
X4567Y7840D01*
X4573Y7788D01*
X4584Y7740D01*
X4600Y7696D01*
X4619Y7656D01*
X4641Y7620D01*
X4665Y7588D01*
X4692Y7560D01*
X4722Y7536D01*
X4752Y7514D01*
X4785Y7495D01*
X4818Y7480D01*
X4878Y7458D01*
X4941Y7443D01*
X5007Y7434D01*
X5074Y7431D01*
X5156Y7435D01*
X5231Y7446D01*
X5298Y7464D01*
X5359Y7490D01*
X5413Y7522D01*
X5459Y7562D01*
X5498Y7608D01*
X5529Y7660D01*
X5554Y7717D01*
X5571Y7776D01*
X5581Y7836D01*
X5585Y7898D01*
X5582Y7953D01*
X5574Y8006D01*
X5561Y8059D01*
X5543Y8112D01*
X5521Y8161D01*
X5499Y8203D01*
X5476Y8240D01*
X5453Y8270D01*
X5216Y8270D01*
X5216Y7896D01*
X5216Y7896D01*
X5715Y8681D02*
X4442Y8681D01*
X4442Y8854D01*
X5442Y9523D01*
X4442Y9523D01*
X4442Y9684D01*
X5715Y9684D01*
X5715Y9511D01*
X4715Y8843D01*
X5715Y8843D01*
X5715Y8681D01*
X5715Y8681D01*
X5715Y9967D02*
X4442Y9967D01*
X4442Y10403D01*
X4592Y10403D01*
X4592Y10135D01*
X5565Y10135D01*
X5565Y10135D01*
X5565Y10407D01*
X5563Y10467D01*
X5559Y10520D01*
X5552Y10565D01*
X5541Y10605D01*
X5528Y10639D01*
X5513Y10669D01*
X5495Y10696D01*
X5475Y10719D01*
X5443Y10747D01*
X5405Y10772D01*
X5362Y10794D01*
X5314Y10812D01*
X5261Y10827D01*
X5202Y10837D01*
X5138Y10844D01*
X5069Y10846D01*
X4975Y10842D01*
X4893Y10829D01*
X4822Y10809D01*
X4762Y10780D01*
X4713Y10746D01*
X4673Y10707D01*
X4641Y10666D01*
X4619Y10621D01*
X4607Y10582D01*
X4599Y10532D01*
X4594Y10473D01*
X4592Y10403D01*
X4442Y10403D01*
X4442Y10405D01*
X4443Y10475D01*
X4447Y10536D01*
X4453Y10589D01*
X4461Y10632D01*
X4476Y10685D01*
X4496Y10733D01*
X4521Y10778D01*
X4552Y10819D01*
X4597Y10866D01*
X4649Y10907D01*
X4706Y10941D01*
X4769Y10969D01*
X4838Y10991D01*
X4911Y11007D01*
X4989Y11016D01*
X5072Y11019D01*
X5142Y11017D01*
X5208Y11011D01*
X5271Y11000D01*
X5329Y10985D01*
X5382Y10967D01*
X5431Y10947D01*
X5475Y10924D01*
X5514Y10899D01*
X5549Y10871D01*
X5580Y10843D01*
X5606Y10814D01*
X5629Y10783D01*
X5649Y10750D01*
X5666Y10713D01*
X5681Y10674D01*
X5693Y10631D01*
X5703Y10585D01*
X5710Y10535D01*
X5714Y10482D01*
X5715Y10426D01*
X5715Y9967D01*
X5715Y9967D01*
X34224Y16234D02*
X34224Y16553D01*
X35379Y16555D01*
X35379Y15543D01*
X35245Y15444D01*
X35109Y15358D01*
X34971Y15284D01*
X34830Y15224D01*
X34688Y15177D01*
X34544Y15144D01*
X34398Y15124D01*
X34250Y15117D01*
X34053Y15128D01*
X33866Y15160D01*
X33688Y15214D01*
X33520Y15289D01*
X33365Y15385D01*
X33231Y15500D01*
X33118Y15634D01*
X33024Y15787D01*
X32951Y15955D01*
X32898Y16132D01*
X32867Y16318D01*
X32856Y16514D01*
X32867Y16710D01*
X32898Y16899D01*
X32950Y17082D01*
X33023Y17258D01*
X33115Y17419D01*
X33226Y17558D01*
X33355Y17675D01*
X33502Y17770D01*
X33664Y17843D01*
X33838Y17896D01*
X34024Y17927D01*
X34222Y17938D01*
X34366Y17932D01*
X34503Y17914D01*
X34634Y17884D01*
X34757Y17842D01*
X34870Y17789D01*
X34970Y17727D01*
X35057Y17656D01*
X35132Y17575D01*
X35195Y17483D01*
X35251Y17378D01*
X35299Y17259D01*
X35338Y17128D01*
X35013Y17039D01*
X34980Y17138D01*
X34944Y17225D01*
X34904Y17301D01*
X34860Y17366D01*
X34810Y17423D01*
X34749Y17474D01*
X34679Y17518D01*
X34600Y17557D01*
X34513Y17588D01*
X34421Y17611D01*
X34325Y17624D01*
X34224Y17629D01*
X34104Y17624D01*
X33993Y17610D01*
X33890Y17586D01*
X33796Y17553D01*
X33710Y17513D01*
X33633Y17466D01*
X33564Y17414D01*
X33505Y17355D01*
X33452Y17292D01*
X33406Y17226D01*
X33366Y17158D01*
X33333Y17086D01*
X33287Y16956D01*
X33254Y16822D01*
X33235Y16682D01*
X33228Y16537D01*
X33236Y16362D01*
X33260Y16202D01*
X33299Y16057D01*
X33354Y15927D01*
X33424Y15812D01*
X33508Y15713D01*
X33607Y15629D01*
X33720Y15562D01*
X33841Y15510D01*
X33967Y15473D01*
X34096Y15450D01*
X34229Y15443D01*
X34346Y15448D01*
X34461Y15465D01*
X34575Y15494D01*
X34687Y15533D01*
X34792Y15579D01*
X34883Y15626D01*
X34961Y15675D01*
X35026Y15726D01*
X35026Y16234D01*
X34224Y16234D01*
X34224Y16234D01*
X35907Y15164D02*
X35907Y17891D01*
X36278Y17891D01*
X37710Y15750D01*
X37710Y17891D01*
X38056Y17891D01*
X38056Y15164D01*
X37686Y15164D01*
X36253Y17307D01*
X36253Y15164D01*
X35907Y15164D01*
X35907Y15164D01*
X38663Y15164D02*
X38663Y17891D01*
X39597Y17891D01*
X39597Y17569D01*
X39024Y17569D01*
X39024Y15486D01*
X39024Y15486D01*
X39606Y15486D01*
X39733Y15489D01*
X39847Y15498D01*
X39945Y15514D01*
X40029Y15536D01*
X40102Y15564D01*
X40167Y15596D01*
X40224Y15634D01*
X40274Y15677D01*
X40334Y15747D01*
X40388Y15828D01*
X40434Y15920D01*
X40474Y16022D01*
X40505Y16136D01*
X40527Y16262D01*
X40541Y16399D01*
X40545Y16548D01*
X40537Y16749D01*
X40510Y16926D01*
X40466Y17078D01*
X40405Y17206D01*
X40331Y17311D01*
X40249Y17397D01*
X40160Y17465D01*
X40063Y17513D01*
X39980Y17538D01*
X39874Y17555D01*
X39746Y17566D01*
X39597Y17569D01*
X39597Y17891D01*
X39602Y17891D01*
X39752Y17889D01*
X39883Y17881D01*
X39995Y17869D01*
X40088Y17852D01*
X40201Y17820D01*
X40305Y17776D01*
X40401Y17722D01*
X40488Y17657D01*
X40589Y17559D01*
X40676Y17449D01*
X40750Y17326D01*
X40810Y17191D01*
X40857Y17044D01*
X40891Y16887D01*
X40911Y16720D01*
X40917Y16542D01*
X40913Y16391D01*
X40899Y16249D01*
X40877Y16116D01*
X40845Y15992D01*
X40806Y15877D01*
X40762Y15772D01*
X40713Y15678D01*
X40659Y15594D01*
X40601Y15520D01*
X40540Y15454D01*
X40477Y15396D01*
X40410Y15347D01*
X40340Y15305D01*
X40262Y15268D01*
X40177Y15236D01*
X40085Y15210D01*
X39986Y15190D01*
X39880Y15175D01*
X39767Y15167D01*
X39647Y15164D01*
X38663Y15164D01*
X38663Y15164D01*
G37*
M02*