%FSLAX33Y33*%
%MOMM*%
%ADD10C,0.0508*%
%ADD11R,2.X2.*%
%ADD12C,2.*%
%ADD13C,1.778*%
D10*
%LNpour fill*%
G01*
X52742Y12603D02*
X52742Y12603D01*
X50369Y19722*
X2971Y19722*
X0598Y12603*
X0598Y0598*
X7022Y0598*
X7022Y12700*
X7022Y12700*
X7033Y12817*
X7033Y12817*
X7067Y12929*
X7067Y12929*
X7123Y13032*
X7123Y13032*
X7197Y13123*
X7197Y13123*
X7288Y13197*
X7288Y13197*
X7391Y13253*
X7391Y13253*
X7503Y13287*
X7503Y13287*
X7620Y13298*
X7620Y13298*
X45720Y13298*
X45720Y13298*
X45837Y13287*
X45837Y13287*
X45949Y13253*
X45949Y13253*
X46052Y13197*
X46052Y13197*
X46143Y13123*
X46143Y13123*
X46217Y13032*
X46217Y13032*
X46273Y12929*
X46273Y12929*
X46307Y12817*
X46307Y12817*
X46318Y12700*
X46318Y12700*
X46318Y0598*
X52742Y0598*
X52742Y12603*
X25170Y15103D02*
X23170Y15103D01*
X23106Y15108*
X23044Y15123*
X22985Y15147*
X22931Y15180*
X22882Y15222*
X22840Y15271*
X22807Y15325*
X22783Y15384*
X22768Y15446*
X22763Y15510*
X22763Y17510*
X22768Y17574*
X22783Y17636*
X22807Y17695*
X22840Y17749*
X22882Y17798*
X22931Y17840*
X22985Y17873*
X23044Y17897*
X23106Y17912*
X23170Y17917*
X25170Y17917*
X25234Y17912*
X25296Y17897*
X25355Y17873*
X25409Y17840*
X25458Y17798*
X25500Y17749*
X25533Y17695*
X25557Y17636*
X25572Y17574*
X25577Y17510*
X25577Y15510*
X25572Y15446*
X25557Y15384*
X25533Y15325*
X25500Y15271*
X25458Y15222*
X25409Y15180*
X25355Y15147*
X25296Y15123*
X25234Y15108*
X25170Y15103*
X48260Y1244D02*
X47972Y1276D01*
X47698Y1372*
X47452Y1526*
X47246Y1732*
X47092Y1978*
X46996Y2252*
X46964Y2540*
X46996Y2828*
X47092Y3102*
X47246Y3348*
X47452Y3554*
X47698Y3708*
X47860Y3765*
X47860Y3855*
X47698Y3912*
X47452Y4066*
X47246Y4272*
X47092Y4518*
X46996Y4792*
X46964Y5080*
X46996Y5368*
X47092Y5642*
X47246Y5888*
X47452Y6094*
X47698Y6248*
X47972Y6344*
X48260Y6376*
X48548Y6344*
X48822Y6248*
X49068Y6094*
X49274Y5888*
X49428Y5642*
X49485Y5480*
X49575Y5480*
X49632Y5642*
X49786Y5888*
X49992Y6094*
X50238Y6248*
X50512Y6344*
X50597Y6354*
X50597Y5861*
X51003Y5861*
X51003Y6354*
X51088Y6344*
X51362Y6248*
X51608Y6094*
X51814Y5888*
X51968Y5642*
X52064Y5368*
X52096Y5080*
X52064Y4792*
X51968Y4518*
X51814Y4272*
X51608Y4066*
X51362Y3912*
X51200Y3855*
X51200Y3765*
X51362Y3708*
X51608Y3554*
X51814Y3348*
X51968Y3102*
X52064Y2828*
X52096Y2540*
X52064Y2252*
X51968Y1978*
X51814Y1732*
X51608Y1526*
X51362Y1372*
X51088Y1276*
X51003Y1266*
X51003Y1759*
X50597Y1759*
X50597Y1266*
X50512Y1276*
X50238Y1372*
X49992Y1526*
X49786Y1732*
X49632Y1978*
X49575Y2140*
X49485Y2140*
X49428Y1978*
X49274Y1732*
X49068Y1526*
X48822Y1372*
X48548Y1276*
X48260Y1244*
X2540Y1244D02*
X2252Y1276D01*
X1978Y1372*
X1732Y1526*
X1526Y1732*
X1372Y1978*
X1276Y2252*
X1244Y2540*
X1276Y2828*
X1372Y3102*
X1526Y3348*
X1732Y3554*
X1978Y3708*
X2140Y3765*
X2140Y3855*
X1978Y3912*
X1732Y4066*
X1526Y4272*
X1372Y4518*
X1276Y4792*
X1244Y5080*
X1276Y5368*
X1372Y5642*
X1526Y5888*
X1732Y6094*
X1978Y6248*
X2252Y6344*
X2540Y6376*
X2828Y6344*
X3102Y6248*
X3348Y6094*
X3554Y5888*
X3708Y5642*
X3765Y5480*
X3855Y5480*
X3912Y5642*
X4066Y5888*
X4272Y6094*
X4518Y6248*
X4792Y6344*
X4877Y6354*
X4877Y5861*
X5283Y5861*
X5283Y6354*
X5368Y6344*
X5642Y6248*
X5888Y6094*
X6094Y5888*
X6248Y5642*
X6344Y5368*
X6376Y5080*
X6344Y4792*
X6248Y4518*
X6094Y4272*
X5888Y4066*
X5642Y3912*
X5480Y3855*
X5480Y3765*
X5642Y3708*
X5888Y3554*
X6094Y3348*
X6248Y3102*
X6344Y2828*
X6376Y2540*
X6344Y2252*
X6248Y1978*
X6094Y1732*
X5888Y1526*
X5642Y1372*
X5368Y1276*
X5283Y1266*
X5283Y1759*
X4877Y1759*
X4877Y1266*
X4792Y1276*
X4518Y1372*
X4272Y1526*
X4066Y1732*
X3912Y1978*
X3855Y2140*
X3765Y2140*
X3708Y1978*
X3554Y1732*
X3348Y1526*
X3102Y1372*
X2828Y1276*
X2540Y1244*
X0598Y0647D02*
X7022Y0647D01*
X46318Y0647D02*
X52742Y0647D01*
X0598Y0697D02*
X7022Y0697D01*
X46318Y0697D02*
X52742Y0697D01*
X0598Y0746D02*
X7022Y0746D01*
X46318Y0746D02*
X52742Y0746D01*
X0598Y0796D02*
X7022Y0796D01*
X46318Y0796D02*
X52742Y0796D01*
X0598Y0846D02*
X7022Y0846D01*
X46318Y0846D02*
X52742Y0846D01*
X0598Y0895D02*
X7022Y0895D01*
X46318Y0895D02*
X52742Y0895D01*
X0598Y0945D02*
X7022Y0945D01*
X46318Y0945D02*
X52742Y0945D01*
X0598Y0994D02*
X7022Y0994D01*
X46318Y0994D02*
X52742Y0994D01*
X0598Y1044D02*
X7022Y1044D01*
X46318Y1044D02*
X52742Y1044D01*
X0598Y1093D02*
X7022Y1093D01*
X46318Y1093D02*
X52742Y1093D01*
X0598Y1143D02*
X7022Y1143D01*
X46318Y1143D02*
X52742Y1143D01*
X0598Y1192D02*
X7022Y1192D01*
X46318Y1192D02*
X52742Y1192D01*
X0598Y1242D02*
X7022Y1242D01*
X46318Y1242D02*
X52742Y1242D01*
X0598Y1291D02*
X2207Y1291D01*
X2873Y1291D02*
X4747Y1291D01*
X4877Y1291D02*
X5283Y1291D01*
X5413Y1291D02*
X7022Y1291D01*
X46318Y1291D02*
X47927Y1291D01*
X48593Y1291D02*
X50467Y1291D01*
X50597Y1291D02*
X51003Y1291D01*
X51133Y1291D02*
X52742Y1291D01*
X0598Y1341D02*
X2066Y1341D01*
X3014Y1341D02*
X4606Y1341D01*
X4877Y1341D02*
X5283Y1341D01*
X5554Y1341D02*
X7022Y1341D01*
X46318Y1341D02*
X47786Y1341D01*
X48734Y1341D02*
X50326Y1341D01*
X50597Y1341D02*
X51003Y1341D01*
X51274Y1341D02*
X52742Y1341D01*
X0598Y1390D02*
X1948Y1390D01*
X3132Y1390D02*
X4488Y1390D01*
X4877Y1390D02*
X5283Y1390D01*
X5672Y1390D02*
X7022Y1390D01*
X46318Y1390D02*
X47668Y1390D01*
X48852Y1390D02*
X50208Y1390D01*
X50597Y1390D02*
X51003Y1390D01*
X51392Y1390D02*
X52742Y1390D01*
X0598Y1440D02*
X1869Y1440D01*
X3211Y1440D02*
X4409Y1440D01*
X4877Y1440D02*
X5283Y1440D01*
X5751Y1440D02*
X7022Y1440D01*
X46318Y1440D02*
X47589Y1440D01*
X48931Y1440D02*
X50129Y1440D01*
X50597Y1440D02*
X51003Y1440D01*
X51471Y1440D02*
X52742Y1440D01*
X0598Y1489D02*
X1790Y1489D01*
X3290Y1489D02*
X4330Y1489D01*
X4877Y1489D02*
X5283Y1489D01*
X5830Y1489D02*
X7022Y1489D01*
X46318Y1489D02*
X47510Y1489D01*
X49010Y1489D02*
X50050Y1489D01*
X50597Y1489D02*
X51003Y1489D01*
X51550Y1489D02*
X52742Y1489D01*
X0598Y1539D02*
X1719Y1539D01*
X3361Y1539D02*
X4259Y1539D01*
X4877Y1539D02*
X5283Y1539D01*
X5901Y1539D02*
X7022Y1539D01*
X46318Y1539D02*
X47439Y1539D01*
X49081Y1539D02*
X49979Y1539D01*
X50597Y1539D02*
X51003Y1539D01*
X51621Y1539D02*
X52742Y1539D01*
X0598Y1589D02*
X1669Y1589D01*
X3411Y1589D02*
X4209Y1589D01*
X4877Y1589D02*
X5283Y1589D01*
X5951Y1589D02*
X7022Y1589D01*
X46318Y1589D02*
X47389Y1589D01*
X49131Y1589D02*
X49929Y1589D01*
X50597Y1589D02*
X51003Y1589D01*
X51671Y1589D02*
X52742Y1589D01*
X0598Y1638D02*
X1620Y1638D01*
X3460Y1638D02*
X4160Y1638D01*
X4877Y1638D02*
X5283Y1638D01*
X6000Y1638D02*
X7022Y1638D01*
X46318Y1638D02*
X47340Y1638D01*
X49180Y1638D02*
X49880Y1638D01*
X50597Y1638D02*
X51003Y1638D01*
X51720Y1638D02*
X52742Y1638D01*
X0598Y1688D02*
X1570Y1688D01*
X3510Y1688D02*
X4110Y1688D01*
X4877Y1688D02*
X5283Y1688D01*
X6050Y1688D02*
X7022Y1688D01*
X46318Y1688D02*
X47290Y1688D01*
X49230Y1688D02*
X49830Y1688D01*
X50597Y1688D02*
X51003Y1688D01*
X51770Y1688D02*
X52742Y1688D01*
X0598Y1737D02*
X1523Y1737D01*
X3557Y1737D02*
X4063Y1737D01*
X4877Y1737D02*
X5283Y1737D01*
X6097Y1737D02*
X7022Y1737D01*
X46318Y1737D02*
X47243Y1737D01*
X49277Y1737D02*
X49783Y1737D01*
X50597Y1737D02*
X51003Y1737D01*
X51817Y1737D02*
X52742Y1737D01*
X0598Y1787D02*
X1492Y1787D01*
X3588Y1787D02*
X4032Y1787D01*
X6128Y1787D02*
X7022Y1787D01*
X46318Y1787D02*
X47212Y1787D01*
X49308Y1787D02*
X49752Y1787D01*
X51848Y1787D02*
X52742Y1787D01*
X0598Y1836D02*
X1461Y1836D01*
X3619Y1836D02*
X4001Y1836D01*
X6159Y1836D02*
X7022Y1836D01*
X46318Y1836D02*
X47181Y1836D01*
X49339Y1836D02*
X49721Y1836D01*
X51879Y1836D02*
X52742Y1836D01*
X0598Y1886D02*
X1429Y1886D01*
X3651Y1886D02*
X3969Y1886D01*
X6191Y1886D02*
X7022Y1886D01*
X46318Y1886D02*
X47149Y1886D01*
X49371Y1886D02*
X49689Y1886D01*
X51911Y1886D02*
X52742Y1886D01*
X0598Y1935D02*
X1398Y1935D01*
X3682Y1935D02*
X3938Y1935D01*
X6222Y1935D02*
X7022Y1935D01*
X46318Y1935D02*
X47118Y1935D01*
X49402Y1935D02*
X49658Y1935D01*
X51942Y1935D02*
X52742Y1935D01*
X0598Y1985D02*
X1369Y1985D01*
X3711Y1985D02*
X3909Y1985D01*
X6251Y1985D02*
X7022Y1985D01*
X46318Y1985D02*
X47089Y1985D01*
X49431Y1985D02*
X49629Y1985D01*
X51971Y1985D02*
X52742Y1985D01*
X0598Y2034D02*
X1352Y2034D01*
X3728Y2034D02*
X3892Y2034D01*
X6268Y2034D02*
X7022Y2034D01*
X46318Y2034D02*
X47072Y2034D01*
X49448Y2034D02*
X49612Y2034D01*
X51988Y2034D02*
X52742Y2034D01*
X0598Y2084D02*
X1335Y2084D01*
X3745Y2084D02*
X3875Y2084D01*
X6285Y2084D02*
X7022Y2084D01*
X46318Y2084D02*
X47055Y2084D01*
X49465Y2084D02*
X49595Y2084D01*
X52005Y2084D02*
X52742Y2084D01*
X0598Y2133D02*
X1317Y2133D01*
X3763Y2133D02*
X3857Y2133D01*
X6303Y2133D02*
X7022Y2133D01*
X46318Y2133D02*
X47037Y2133D01*
X49483Y2133D02*
X49577Y2133D01*
X52023Y2133D02*
X52742Y2133D01*
X0598Y2183D02*
X1300Y2183D01*
X6320Y2183D02*
X7022Y2183D01*
X46318Y2183D02*
X47020Y2183D01*
X52040Y2183D02*
X52742Y2183D01*
X0598Y2232D02*
X1283Y2232D01*
X6337Y2232D02*
X7022Y2232D01*
X46318Y2232D02*
X47003Y2232D01*
X52057Y2232D02*
X52742Y2232D01*
X0598Y2282D02*
X1272Y2282D01*
X6348Y2282D02*
X7022Y2282D01*
X46318Y2282D02*
X46992Y2282D01*
X52068Y2282D02*
X52742Y2282D01*
X0598Y2331D02*
X1267Y2331D01*
X6353Y2331D02*
X7022Y2331D01*
X46318Y2331D02*
X46987Y2331D01*
X52073Y2331D02*
X52742Y2331D01*
X0598Y2381D02*
X1261Y2381D01*
X6359Y2381D02*
X7022Y2381D01*
X46318Y2381D02*
X46981Y2381D01*
X52079Y2381D02*
X52742Y2381D01*
X0598Y2431D02*
X1256Y2431D01*
X6364Y2431D02*
X7022Y2431D01*
X46318Y2431D02*
X46976Y2431D01*
X52084Y2431D02*
X52742Y2431D01*
X0598Y2480D02*
X1250Y2480D01*
X6370Y2480D02*
X7022Y2480D01*
X46318Y2480D02*
X46970Y2480D01*
X52090Y2480D02*
X52742Y2480D01*
X0598Y2530D02*
X1245Y2530D01*
X6375Y2530D02*
X7022Y2530D01*
X46318Y2530D02*
X46965Y2530D01*
X52095Y2530D02*
X52742Y2530D01*
X0598Y2579D02*
X1248Y2579D01*
X6372Y2579D02*
X7022Y2579D01*
X46318Y2579D02*
X46968Y2579D01*
X52092Y2579D02*
X52742Y2579D01*
X0598Y2629D02*
X1253Y2629D01*
X6367Y2629D02*
X7022Y2629D01*
X46318Y2629D02*
X46973Y2629D01*
X52087Y2629D02*
X52742Y2629D01*
X0598Y2678D02*
X1259Y2678D01*
X6361Y2678D02*
X7022Y2678D01*
X46318Y2678D02*
X46979Y2678D01*
X52081Y2678D02*
X52742Y2678D01*
X0598Y2728D02*
X1264Y2728D01*
X6356Y2728D02*
X7022Y2728D01*
X46318Y2728D02*
X46984Y2728D01*
X52076Y2728D02*
X52742Y2728D01*
X0598Y2777D02*
X1270Y2777D01*
X6350Y2777D02*
X7022Y2777D01*
X46318Y2777D02*
X46990Y2777D01*
X52070Y2777D02*
X52742Y2777D01*
X0598Y2827D02*
X1276Y2827D01*
X6344Y2827D02*
X7022Y2827D01*
X46318Y2827D02*
X46996Y2827D01*
X52064Y2827D02*
X52742Y2827D01*
X0598Y2876D02*
X1293Y2876D01*
X6327Y2876D02*
X7022Y2876D01*
X46318Y2876D02*
X47013Y2876D01*
X52047Y2876D02*
X52742Y2876D01*
X0598Y2926D02*
X1310Y2926D01*
X6310Y2926D02*
X7022Y2926D01*
X46318Y2926D02*
X47030Y2926D01*
X52030Y2926D02*
X52742Y2926D01*
X0598Y2975D02*
X1327Y2975D01*
X6293Y2975D02*
X7022Y2975D01*
X46318Y2975D02*
X47047Y2975D01*
X52013Y2975D02*
X52742Y2975D01*
X0598Y3025D02*
X1345Y3025D01*
X6275Y3025D02*
X7022Y3025D01*
X46318Y3025D02*
X47065Y3025D01*
X51995Y3025D02*
X52742Y3025D01*
X0598Y3074D02*
X1362Y3074D01*
X6258Y3074D02*
X7022Y3074D01*
X46318Y3074D02*
X47082Y3074D01*
X51978Y3074D02*
X52742Y3074D01*
X0598Y3124D02*
X1385Y3124D01*
X6235Y3124D02*
X7022Y3124D01*
X46318Y3124D02*
X47105Y3124D01*
X51955Y3124D02*
X52742Y3124D01*
X0598Y3173D02*
X1416Y3173D01*
X6204Y3173D02*
X7022Y3173D01*
X46318Y3173D02*
X47136Y3173D01*
X51924Y3173D02*
X52742Y3173D01*
X0598Y3223D02*
X1447Y3223D01*
X6173Y3223D02*
X7022Y3223D01*
X46318Y3223D02*
X47167Y3223D01*
X51893Y3223D02*
X52742Y3223D01*
X0598Y3273D02*
X1479Y3273D01*
X6141Y3273D02*
X7022Y3273D01*
X46318Y3273D02*
X47199Y3273D01*
X51861Y3273D02*
X52742Y3273D01*
X0598Y3322D02*
X1510Y3322D01*
X6110Y3322D02*
X7022Y3322D01*
X46318Y3322D02*
X47230Y3322D01*
X51830Y3322D02*
X52742Y3322D01*
X0598Y3372D02*
X1549Y3372D01*
X6071Y3372D02*
X7022Y3372D01*
X46318Y3372D02*
X47269Y3372D01*
X51791Y3372D02*
X52742Y3372D01*
X0598Y3421D02*
X1599Y3421D01*
X6021Y3421D02*
X7022Y3421D01*
X46318Y3421D02*
X47319Y3421D01*
X51741Y3421D02*
X52742Y3421D01*
X0598Y3471D02*
X1648Y3471D01*
X5972Y3471D02*
X7022Y3471D01*
X46318Y3471D02*
X47368Y3471D01*
X51692Y3471D02*
X52742Y3471D01*
X0598Y3520D02*
X1698Y3520D01*
X5922Y3520D02*
X7022Y3520D01*
X46318Y3520D02*
X47418Y3520D01*
X51642Y3520D02*
X52742Y3520D01*
X0598Y3570D02*
X1757Y3570D01*
X5863Y3570D02*
X7022Y3570D01*
X46318Y3570D02*
X47477Y3570D01*
X51583Y3570D02*
X52742Y3570D01*
X0598Y3619D02*
X1836Y3619D01*
X5784Y3619D02*
X7022Y3619D01*
X46318Y3619D02*
X47556Y3619D01*
X51504Y3619D02*
X52742Y3619D01*
X0598Y3669D02*
X1915Y3669D01*
X5705Y3669D02*
X7022Y3669D01*
X46318Y3669D02*
X47635Y3669D01*
X51425Y3669D02*
X52742Y3669D01*
X0598Y3718D02*
X2006Y3718D01*
X5614Y3718D02*
X7022Y3718D01*
X46318Y3718D02*
X47726Y3718D01*
X51334Y3718D02*
X52742Y3718D01*
X0598Y3768D02*
X2140Y3768D01*
X5480Y3768D02*
X7022Y3768D01*
X46318Y3768D02*
X47860Y3768D01*
X51200Y3768D02*
X52742Y3768D01*
X0598Y3817D02*
X2140Y3817D01*
X5480Y3817D02*
X7022Y3817D01*
X46318Y3817D02*
X47860Y3817D01*
X51200Y3817D02*
X52742Y3817D01*
X0598Y3867D02*
X2106Y3867D01*
X5514Y3867D02*
X7022Y3867D01*
X46318Y3867D02*
X47826Y3867D01*
X51234Y3867D02*
X52742Y3867D01*
X0598Y3916D02*
X1970Y3916D01*
X5650Y3916D02*
X7022Y3916D01*
X46318Y3916D02*
X47690Y3916D01*
X51370Y3916D02*
X52742Y3916D01*
X0598Y3966D02*
X1891Y3966D01*
X5729Y3966D02*
X7022Y3966D01*
X46318Y3966D02*
X47611Y3966D01*
X51449Y3966D02*
X52742Y3966D01*
X0598Y4015D02*
X1812Y4015D01*
X5808Y4015D02*
X7022Y4015D01*
X46318Y4015D02*
X47532Y4015D01*
X51528Y4015D02*
X52742Y4015D01*
X0598Y4065D02*
X1734Y4065D01*
X5886Y4065D02*
X7022Y4065D01*
X46318Y4065D02*
X47454Y4065D01*
X51606Y4065D02*
X52742Y4065D01*
X0598Y4115D02*
X1683Y4115D01*
X5937Y4115D02*
X7022Y4115D01*
X46318Y4115D02*
X47403Y4115D01*
X51657Y4115D02*
X52742Y4115D01*
X0598Y4164D02*
X1634Y4164D01*
X5986Y4164D02*
X7022Y4164D01*
X46318Y4164D02*
X47354Y4164D01*
X51706Y4164D02*
X52742Y4164D01*
X0598Y4214D02*
X1584Y4214D01*
X6036Y4214D02*
X7022Y4214D01*
X46318Y4214D02*
X47304Y4214D01*
X51756Y4214D02*
X52742Y4214D01*
X0598Y4263D02*
X1535Y4263D01*
X6085Y4263D02*
X7022Y4263D01*
X46318Y4263D02*
X47255Y4263D01*
X51805Y4263D02*
X52742Y4263D01*
X0598Y4313D02*
X1500Y4313D01*
X6120Y4313D02*
X7022Y4313D01*
X46318Y4313D02*
X47220Y4313D01*
X51840Y4313D02*
X52742Y4313D01*
X0598Y4362D02*
X1469Y4362D01*
X6151Y4362D02*
X7022Y4362D01*
X46318Y4362D02*
X47189Y4362D01*
X51871Y4362D02*
X52742Y4362D01*
X0598Y4412D02*
X1438Y4412D01*
X6182Y4412D02*
X7022Y4412D01*
X46318Y4412D02*
X47158Y4412D01*
X51902Y4412D02*
X52742Y4412D01*
X0598Y4461D02*
X1407Y4461D01*
X6213Y4461D02*
X7022Y4461D01*
X46318Y4461D02*
X47127Y4461D01*
X51933Y4461D02*
X52742Y4461D01*
X0598Y4511D02*
X1376Y4511D01*
X6244Y4511D02*
X7022Y4511D01*
X46318Y4511D02*
X47096Y4511D01*
X51964Y4511D02*
X52742Y4511D01*
X0598Y4560D02*
X1357Y4560D01*
X6263Y4560D02*
X7022Y4560D01*
X46318Y4560D02*
X47077Y4560D01*
X51983Y4560D02*
X52742Y4560D01*
X0598Y4610D02*
X1339Y4610D01*
X6281Y4610D02*
X7022Y4610D01*
X46318Y4610D02*
X47059Y4610D01*
X52001Y4610D02*
X52742Y4610D01*
X0598Y4659D02*
X1322Y4659D01*
X6298Y4659D02*
X7022Y4659D01*
X46318Y4659D02*
X47042Y4659D01*
X52018Y4659D02*
X52742Y4659D01*
X0598Y4709D02*
X1305Y4709D01*
X6315Y4709D02*
X7022Y4709D01*
X46318Y4709D02*
X47025Y4709D01*
X52035Y4709D02*
X52742Y4709D01*
X0598Y4758D02*
X1287Y4758D01*
X6333Y4758D02*
X7022Y4758D01*
X46318Y4758D02*
X47007Y4758D01*
X52053Y4758D02*
X52742Y4758D01*
X0598Y4808D02*
X1274Y4808D01*
X6346Y4808D02*
X7022Y4808D01*
X46318Y4808D02*
X46994Y4808D01*
X52066Y4808D02*
X52742Y4808D01*
X0598Y4857D02*
X1268Y4857D01*
X6352Y4857D02*
X7022Y4857D01*
X46318Y4857D02*
X46988Y4857D01*
X52072Y4857D02*
X52742Y4857D01*
X0598Y4907D02*
X1263Y4907D01*
X6357Y4907D02*
X7022Y4907D01*
X46318Y4907D02*
X46983Y4907D01*
X52077Y4907D02*
X52742Y4907D01*
X0598Y4957D02*
X1257Y4957D01*
X6363Y4957D02*
X7022Y4957D01*
X46318Y4957D02*
X46977Y4957D01*
X52083Y4957D02*
X52742Y4957D01*
X0598Y5006D02*
X1252Y5006D01*
X6368Y5006D02*
X7022Y5006D01*
X46318Y5006D02*
X46972Y5006D01*
X52088Y5006D02*
X52742Y5006D01*
X0598Y5056D02*
X1246Y5056D01*
X6374Y5056D02*
X7022Y5056D01*
X46318Y5056D02*
X46966Y5056D01*
X52094Y5056D02*
X52742Y5056D01*
X0598Y5105D02*
X1246Y5105D01*
X6374Y5105D02*
X7022Y5105D01*
X46318Y5105D02*
X46966Y5105D01*
X52094Y5105D02*
X52742Y5105D01*
X0598Y5155D02*
X1252Y5155D01*
X6368Y5155D02*
X7022Y5155D01*
X46318Y5155D02*
X46972Y5155D01*
X52088Y5155D02*
X52742Y5155D01*
X0598Y5204D02*
X1257Y5204D01*
X6363Y5204D02*
X7022Y5204D01*
X46318Y5204D02*
X46977Y5204D01*
X52083Y5204D02*
X52742Y5204D01*
X0598Y5254D02*
X1263Y5254D01*
X6357Y5254D02*
X7022Y5254D01*
X46318Y5254D02*
X46983Y5254D01*
X52077Y5254D02*
X52742Y5254D01*
X0598Y5303D02*
X1268Y5303D01*
X6352Y5303D02*
X7022Y5303D01*
X46318Y5303D02*
X46988Y5303D01*
X52072Y5303D02*
X52742Y5303D01*
X0598Y5353D02*
X1274Y5353D01*
X6346Y5353D02*
X7022Y5353D01*
X46318Y5353D02*
X46994Y5353D01*
X52066Y5353D02*
X52742Y5353D01*
X0598Y5402D02*
X1288Y5402D01*
X6332Y5402D02*
X7022Y5402D01*
X46318Y5402D02*
X47008Y5402D01*
X52052Y5402D02*
X52742Y5402D01*
X0598Y5452D02*
X1305Y5452D01*
X6315Y5452D02*
X7022Y5452D01*
X46318Y5452D02*
X47025Y5452D01*
X52035Y5452D02*
X52742Y5452D01*
X0598Y5501D02*
X1322Y5501D01*
X3758Y5501D02*
X3862Y5501D01*
X6298Y5501D02*
X7022Y5501D01*
X46318Y5501D02*
X47042Y5501D01*
X49478Y5501D02*
X49582Y5501D01*
X52018Y5501D02*
X52742Y5501D01*
X0598Y5551D02*
X1340Y5551D01*
X3740Y5551D02*
X3880Y5551D01*
X6280Y5551D02*
X7022Y5551D01*
X46318Y5551D02*
X47060Y5551D01*
X49460Y5551D02*
X49600Y5551D01*
X52000Y5551D02*
X52742Y5551D01*
X0598Y5600D02*
X1357Y5600D01*
X3723Y5600D02*
X3897Y5600D01*
X6263Y5600D02*
X7022Y5600D01*
X46318Y5600D02*
X47077Y5600D01*
X49443Y5600D02*
X49617Y5600D01*
X51983Y5600D02*
X52742Y5600D01*
X0598Y5650D02*
X1376Y5650D01*
X3704Y5650D02*
X3916Y5650D01*
X6244Y5650D02*
X7022Y5650D01*
X46318Y5650D02*
X47096Y5650D01*
X49424Y5650D02*
X49636Y5650D01*
X51964Y5650D02*
X52742Y5650D01*
X0598Y5699D02*
X1408Y5699D01*
X3672Y5699D02*
X3948Y5699D01*
X6212Y5699D02*
X7022Y5699D01*
X46318Y5699D02*
X47128Y5699D01*
X49392Y5699D02*
X49668Y5699D01*
X51932Y5699D02*
X52742Y5699D01*
X0598Y5749D02*
X1439Y5749D01*
X3641Y5749D02*
X3979Y5749D01*
X6181Y5749D02*
X7022Y5749D01*
X46318Y5749D02*
X47159Y5749D01*
X49361Y5749D02*
X49699Y5749D01*
X51901Y5749D02*
X52742Y5749D01*
X0598Y5799D02*
X1470Y5799D01*
X3610Y5799D02*
X4010Y5799D01*
X6150Y5799D02*
X7022Y5799D01*
X46318Y5799D02*
X47190Y5799D01*
X49330Y5799D02*
X49730Y5799D01*
X51870Y5799D02*
X52742Y5799D01*
X0598Y5848D02*
X1501Y5848D01*
X3579Y5848D02*
X4041Y5848D01*
X6119Y5848D02*
X7022Y5848D01*
X46318Y5848D02*
X47221Y5848D01*
X49299Y5848D02*
X49761Y5848D01*
X51839Y5848D02*
X52742Y5848D01*
X0598Y5898D02*
X1535Y5898D01*
X3545Y5898D02*
X4075Y5898D01*
X4877Y5898D02*
X5283Y5898D01*
X6085Y5898D02*
X7022Y5898D01*
X46318Y5898D02*
X47255Y5898D01*
X49265Y5898D02*
X49795Y5898D01*
X50597Y5898D02*
X51003Y5898D01*
X51805Y5898D02*
X52742Y5898D01*
X0598Y5947D02*
X1585Y5947D01*
X3495Y5947D02*
X4125Y5947D01*
X4877Y5947D02*
X5283Y5947D01*
X6035Y5947D02*
X7022Y5947D01*
X46318Y5947D02*
X47305Y5947D01*
X49215Y5947D02*
X49845Y5947D01*
X50597Y5947D02*
X51003Y5947D01*
X51755Y5947D02*
X52742Y5947D01*
X0598Y5997D02*
X1634Y5997D01*
X3446Y5997D02*
X4174Y5997D01*
X4877Y5997D02*
X5283Y5997D01*
X5986Y5997D02*
X7022Y5997D01*
X46318Y5997D02*
X47354Y5997D01*
X49166Y5997D02*
X49894Y5997D01*
X50597Y5997D02*
X51003Y5997D01*
X51706Y5997D02*
X52742Y5997D01*
X0598Y6046D02*
X1684Y6046D01*
X3396Y6046D02*
X4224Y6046D01*
X4877Y6046D02*
X5283Y6046D01*
X5936Y6046D02*
X7022Y6046D01*
X46318Y6046D02*
X47404Y6046D01*
X49116Y6046D02*
X49944Y6046D01*
X50597Y6046D02*
X51003Y6046D01*
X51656Y6046D02*
X52742Y6046D01*
X0598Y6096D02*
X1735Y6096D01*
X3345Y6096D02*
X4275Y6096D01*
X4877Y6096D02*
X5283Y6096D01*
X5885Y6096D02*
X7022Y6096D01*
X46318Y6096D02*
X47455Y6096D01*
X49065Y6096D02*
X49995Y6096D01*
X50597Y6096D02*
X51003Y6096D01*
X51605Y6096D02*
X52742Y6096D01*
X0598Y6145D02*
X1814Y6145D01*
X3266Y6145D02*
X4354Y6145D01*
X4877Y6145D02*
X5283Y6145D01*
X5806Y6145D02*
X7022Y6145D01*
X46318Y6145D02*
X47534Y6145D01*
X48986Y6145D02*
X50074Y6145D01*
X50597Y6145D02*
X51003Y6145D01*
X51526Y6145D02*
X52742Y6145D01*
X0598Y6195D02*
X1892Y6195D01*
X3188Y6195D02*
X4432Y6195D01*
X4877Y6195D02*
X5283Y6195D01*
X5728Y6195D02*
X7022Y6195D01*
X46318Y6195D02*
X47612Y6195D01*
X48908Y6195D02*
X50152Y6195D01*
X50597Y6195D02*
X51003Y6195D01*
X51448Y6195D02*
X52742Y6195D01*
X0598Y6244D02*
X1971Y6244D01*
X3109Y6244D02*
X4511Y6244D01*
X4877Y6244D02*
X5283Y6244D01*
X5649Y6244D02*
X7022Y6244D01*
X46318Y6244D02*
X47691Y6244D01*
X48829Y6244D02*
X50231Y6244D01*
X50597Y6244D02*
X51003Y6244D01*
X51369Y6244D02*
X52742Y6244D01*
X0598Y6294D02*
X2108Y6294D01*
X2972Y6294D02*
X4648Y6294D01*
X4877Y6294D02*
X5283Y6294D01*
X5512Y6294D02*
X7022Y6294D01*
X46318Y6294D02*
X47828Y6294D01*
X48692Y6294D02*
X50368Y6294D01*
X50597Y6294D02*
X51003Y6294D01*
X51232Y6294D02*
X52742Y6294D01*
X0598Y6343D02*
X2249Y6343D01*
X2831Y6343D02*
X4789Y6343D01*
X4877Y6343D02*
X5283Y6343D01*
X5371Y6343D02*
X7022Y6343D01*
X46318Y6343D02*
X47969Y6343D01*
X48551Y6343D02*
X50509Y6343D01*
X50597Y6343D02*
X51003Y6343D01*
X51091Y6343D02*
X52742Y6343D01*
X0598Y6393D02*
X7022Y6393D01*
X46318Y6393D02*
X52742Y6393D01*
X0598Y6442D02*
X7022Y6442D01*
X46318Y6442D02*
X52742Y6442D01*
X0598Y6492D02*
X7022Y6492D01*
X46318Y6492D02*
X52742Y6492D01*
X0598Y6542D02*
X7022Y6542D01*
X46318Y6542D02*
X52742Y6542D01*
X0598Y6591D02*
X7022Y6591D01*
X46318Y6591D02*
X52742Y6591D01*
X0598Y6641D02*
X7022Y6641D01*
X46318Y6641D02*
X52742Y6641D01*
X0598Y6690D02*
X7022Y6690D01*
X46318Y6690D02*
X52742Y6690D01*
X0598Y6740D02*
X7022Y6740D01*
X46318Y6740D02*
X52742Y6740D01*
X0598Y6789D02*
X7022Y6789D01*
X46318Y6789D02*
X52742Y6789D01*
X0598Y6839D02*
X7022Y6839D01*
X46318Y6839D02*
X52742Y6839D01*
X0598Y6888D02*
X7022Y6888D01*
X46318Y6888D02*
X52742Y6888D01*
X0598Y6938D02*
X7022Y6938D01*
X46318Y6938D02*
X52742Y6938D01*
X0598Y6987D02*
X7022Y6987D01*
X46318Y6987D02*
X52742Y6987D01*
X0598Y7037D02*
X7022Y7037D01*
X46318Y7037D02*
X52742Y7037D01*
X0598Y7086D02*
X7022Y7086D01*
X46318Y7086D02*
X52742Y7086D01*
X0598Y7136D02*
X7022Y7136D01*
X46318Y7136D02*
X52742Y7136D01*
X0598Y7185D02*
X7022Y7185D01*
X46318Y7185D02*
X52742Y7185D01*
X0598Y7235D02*
X7022Y7235D01*
X46318Y7235D02*
X52742Y7235D01*
X0598Y7284D02*
X7022Y7284D01*
X46318Y7284D02*
X52742Y7284D01*
X0598Y7334D02*
X7022Y7334D01*
X46318Y7334D02*
X52742Y7334D01*
X0598Y7384D02*
X7022Y7384D01*
X46318Y7384D02*
X52742Y7384D01*
X0598Y7433D02*
X7022Y7433D01*
X46318Y7433D02*
X52742Y7433D01*
X0598Y7483D02*
X7022Y7483D01*
X46318Y7483D02*
X52742Y7483D01*
X0598Y7532D02*
X7022Y7532D01*
X46318Y7532D02*
X52742Y7532D01*
X0598Y7582D02*
X7022Y7582D01*
X46318Y7582D02*
X52742Y7582D01*
X0598Y7631D02*
X7022Y7631D01*
X46318Y7631D02*
X52742Y7631D01*
X0598Y7681D02*
X7022Y7681D01*
X46318Y7681D02*
X52742Y7681D01*
X0598Y7730D02*
X7022Y7730D01*
X46318Y7730D02*
X52742Y7730D01*
X0598Y7780D02*
X7022Y7780D01*
X46318Y7780D02*
X52742Y7780D01*
X0598Y7829D02*
X7022Y7829D01*
X46318Y7829D02*
X52742Y7829D01*
X0598Y7879D02*
X7022Y7879D01*
X46318Y7879D02*
X52742Y7879D01*
X0598Y7928D02*
X7022Y7928D01*
X46318Y7928D02*
X52742Y7928D01*
X0598Y7978D02*
X7022Y7978D01*
X46318Y7978D02*
X52742Y7978D01*
X0598Y8027D02*
X7022Y8027D01*
X46318Y8027D02*
X52742Y8027D01*
X0598Y8077D02*
X7022Y8077D01*
X46318Y8077D02*
X52742Y8077D01*
X0598Y8126D02*
X7022Y8126D01*
X46318Y8126D02*
X52742Y8126D01*
X0598Y8176D02*
X7022Y8176D01*
X46318Y8176D02*
X52742Y8176D01*
X0598Y8226D02*
X7022Y8226D01*
X46318Y8226D02*
X52742Y8226D01*
X0598Y8275D02*
X7022Y8275D01*
X46318Y8275D02*
X52742Y8275D01*
X0598Y8325D02*
X7022Y8325D01*
X46318Y8325D02*
X52742Y8325D01*
X0598Y8374D02*
X7022Y8374D01*
X46318Y8374D02*
X52742Y8374D01*
X0598Y8424D02*
X7022Y8424D01*
X46318Y8424D02*
X52742Y8424D01*
X0598Y8473D02*
X7022Y8473D01*
X46318Y8473D02*
X52742Y8473D01*
X0598Y8523D02*
X7022Y8523D01*
X46318Y8523D02*
X52742Y8523D01*
X0598Y8572D02*
X7022Y8572D01*
X46318Y8572D02*
X52742Y8572D01*
X0598Y8622D02*
X7022Y8622D01*
X46318Y8622D02*
X52742Y8622D01*
X0598Y8671D02*
X7022Y8671D01*
X46318Y8671D02*
X52742Y8671D01*
X0598Y8721D02*
X7022Y8721D01*
X46318Y8721D02*
X52742Y8721D01*
X0598Y8770D02*
X7022Y8770D01*
X46318Y8770D02*
X52742Y8770D01*
X0598Y8820D02*
X7022Y8820D01*
X46318Y8820D02*
X52742Y8820D01*
X0598Y8869D02*
X7022Y8869D01*
X46318Y8869D02*
X52742Y8869D01*
X0598Y8919D02*
X7022Y8919D01*
X46318Y8919D02*
X52742Y8919D01*
X0598Y8968D02*
X7022Y8968D01*
X46318Y8968D02*
X52742Y8968D01*
X0598Y9018D02*
X7022Y9018D01*
X46318Y9018D02*
X52742Y9018D01*
X0598Y9068D02*
X7022Y9068D01*
X46318Y9068D02*
X52742Y9068D01*
X0598Y9117D02*
X7022Y9117D01*
X46318Y9117D02*
X52742Y9117D01*
X0598Y9167D02*
X7022Y9167D01*
X46318Y9167D02*
X52742Y9167D01*
X0598Y9216D02*
X7022Y9216D01*
X46318Y9216D02*
X52742Y9216D01*
X0598Y9266D02*
X7022Y9266D01*
X46318Y9266D02*
X52742Y9266D01*
X0598Y9315D02*
X7022Y9315D01*
X46318Y9315D02*
X52742Y9315D01*
X0598Y9365D02*
X7022Y9365D01*
X46318Y9365D02*
X52742Y9365D01*
X0598Y9414D02*
X7022Y9414D01*
X46318Y9414D02*
X52742Y9414D01*
X0598Y9464D02*
X7022Y9464D01*
X46318Y9464D02*
X52742Y9464D01*
X0598Y9513D02*
X7022Y9513D01*
X46318Y9513D02*
X52742Y9513D01*
X0598Y9563D02*
X7022Y9563D01*
X46318Y9563D02*
X52742Y9563D01*
X0598Y9612D02*
X7022Y9612D01*
X46318Y9612D02*
X52742Y9612D01*
X0598Y9662D02*
X7022Y9662D01*
X46318Y9662D02*
X52742Y9662D01*
X0598Y9711D02*
X7022Y9711D01*
X46318Y9711D02*
X52742Y9711D01*
X0598Y9761D02*
X7022Y9761D01*
X46318Y9761D02*
X52742Y9761D01*
X0598Y9810D02*
X7022Y9810D01*
X46318Y9810D02*
X52742Y9810D01*
X0598Y9860D02*
X7022Y9860D01*
X46318Y9860D02*
X52742Y9860D01*
X0598Y9910D02*
X7022Y9910D01*
X46318Y9910D02*
X52742Y9910D01*
X0598Y9959D02*
X7022Y9959D01*
X46318Y9959D02*
X52742Y9959D01*
X0598Y10009D02*
X7022Y10009D01*
X46318Y10009D02*
X52742Y10009D01*
X0598Y10058D02*
X7022Y10058D01*
X46318Y10058D02*
X52742Y10058D01*
X0598Y10108D02*
X7022Y10108D01*
X46318Y10108D02*
X52742Y10108D01*
X0598Y10157D02*
X7022Y10157D01*
X46318Y10157D02*
X52742Y10157D01*
X0598Y10207D02*
X7022Y10207D01*
X46318Y10207D02*
X52742Y10207D01*
X0598Y10256D02*
X7022Y10256D01*
X46318Y10256D02*
X52742Y10256D01*
X0598Y10306D02*
X7022Y10306D01*
X46318Y10306D02*
X52742Y10306D01*
X0598Y10355D02*
X7022Y10355D01*
X46318Y10355D02*
X52742Y10355D01*
X0598Y10405D02*
X7022Y10405D01*
X46318Y10405D02*
X52742Y10405D01*
X0598Y10454D02*
X7022Y10454D01*
X46318Y10454D02*
X52742Y10454D01*
X0598Y10504D02*
X7022Y10504D01*
X46318Y10504D02*
X52742Y10504D01*
X0598Y10553D02*
X7022Y10553D01*
X46318Y10553D02*
X52742Y10553D01*
X0598Y10603D02*
X7022Y10603D01*
X46318Y10603D02*
X52742Y10603D01*
X0598Y10652D02*
X7022Y10652D01*
X46318Y10652D02*
X52742Y10652D01*
X0598Y10702D02*
X7022Y10702D01*
X46318Y10702D02*
X52742Y10702D01*
X0598Y10752D02*
X7022Y10752D01*
X46318Y10752D02*
X52742Y10752D01*
X0598Y10801D02*
X7022Y10801D01*
X46318Y10801D02*
X52742Y10801D01*
X0598Y10851D02*
X7022Y10851D01*
X46318Y10851D02*
X52742Y10851D01*
X0598Y10900D02*
X7022Y10900D01*
X46318Y10900D02*
X52742Y10900D01*
X0598Y10950D02*
X7022Y10950D01*
X46318Y10950D02*
X52742Y10950D01*
X0598Y10999D02*
X7022Y10999D01*
X46318Y10999D02*
X52742Y10999D01*
X0598Y11049D02*
X7022Y11049D01*
X46318Y11049D02*
X52742Y11049D01*
X0598Y11098D02*
X7022Y11098D01*
X46318Y11098D02*
X52742Y11098D01*
X0598Y11148D02*
X7022Y11148D01*
X46318Y11148D02*
X52742Y11148D01*
X0598Y11197D02*
X7022Y11197D01*
X46318Y11197D02*
X52742Y11197D01*
X0598Y11247D02*
X7022Y11247D01*
X46318Y11247D02*
X52742Y11247D01*
X0598Y11296D02*
X7022Y11296D01*
X46318Y11296D02*
X52742Y11296D01*
X0598Y11346D02*
X7022Y11346D01*
X46318Y11346D02*
X52742Y11346D01*
X0598Y11395D02*
X7022Y11395D01*
X46318Y11395D02*
X52742Y11395D01*
X0598Y11445D02*
X7022Y11445D01*
X46318Y11445D02*
X52742Y11445D01*
X0598Y11495D02*
X7022Y11495D01*
X46318Y11495D02*
X52742Y11495D01*
X0598Y11544D02*
X7022Y11544D01*
X46318Y11544D02*
X52742Y11544D01*
X0598Y11594D02*
X7022Y11594D01*
X46318Y11594D02*
X52742Y11594D01*
X0598Y11643D02*
X7022Y11643D01*
X46318Y11643D02*
X52742Y11643D01*
X0598Y11693D02*
X7022Y11693D01*
X46318Y11693D02*
X52742Y11693D01*
X0598Y11742D02*
X7022Y11742D01*
X46318Y11742D02*
X52742Y11742D01*
X0598Y11792D02*
X7022Y11792D01*
X46318Y11792D02*
X52742Y11792D01*
X0598Y11841D02*
X7022Y11841D01*
X46318Y11841D02*
X52742Y11841D01*
X0598Y11891D02*
X7022Y11891D01*
X46318Y11891D02*
X52742Y11891D01*
X0598Y11940D02*
X7022Y11940D01*
X46318Y11940D02*
X52742Y11940D01*
X0598Y11990D02*
X7022Y11990D01*
X46318Y11990D02*
X52742Y11990D01*
X0598Y12039D02*
X7022Y12039D01*
X46318Y12039D02*
X52742Y12039D01*
X0598Y12089D02*
X7022Y12089D01*
X46318Y12089D02*
X52742Y12089D01*
X0598Y12138D02*
X7022Y12138D01*
X46318Y12138D02*
X52742Y12138D01*
X0598Y12188D02*
X7022Y12188D01*
X46318Y12188D02*
X52742Y12188D01*
X0598Y12237D02*
X7022Y12237D01*
X46318Y12237D02*
X52742Y12237D01*
X0598Y12287D02*
X7022Y12287D01*
X46318Y12287D02*
X52742Y12287D01*
X0598Y12337D02*
X7022Y12337D01*
X46318Y12337D02*
X52742Y12337D01*
X0598Y12386D02*
X7022Y12386D01*
X46318Y12386D02*
X52742Y12386D01*
X0598Y12436D02*
X7022Y12436D01*
X46318Y12436D02*
X52742Y12436D01*
X0598Y12485D02*
X7022Y12485D01*
X46318Y12485D02*
X52742Y12485D01*
X0598Y12535D02*
X7022Y12535D01*
X46318Y12535D02*
X52742Y12535D01*
X0598Y12584D02*
X7022Y12584D01*
X46318Y12584D02*
X52742Y12584D01*
X0608Y12634D02*
X7022Y12634D01*
X46318Y12634D02*
X52732Y12634D01*
X0625Y12683D02*
X7022Y12683D01*
X46318Y12683D02*
X52715Y12683D01*
X0641Y12733D02*
X7025Y12733D01*
X46315Y12733D02*
X52699Y12733D01*
X0658Y12782D02*
X7030Y12782D01*
X46310Y12782D02*
X52682Y12782D01*
X0674Y12832D02*
X7038Y12832D01*
X46302Y12832D02*
X52666Y12832D01*
X0691Y12881D02*
X7053Y12881D01*
X46287Y12881D02*
X52649Y12881D01*
X0707Y12931D02*
X7069Y12931D01*
X46271Y12931D02*
X52633Y12931D01*
X0724Y12980D02*
X7095Y12980D01*
X46245Y12980D02*
X52616Y12980D01*
X0740Y13030D02*
X7122Y13030D01*
X46218Y13030D02*
X52600Y13030D01*
X0757Y13079D02*
X7162Y13079D01*
X46178Y13079D02*
X52583Y13079D01*
X0773Y13129D02*
X7205Y13129D01*
X46135Y13129D02*
X52567Y13129D01*
X0790Y13179D02*
X7265Y13179D01*
X46075Y13179D02*
X52550Y13179D01*
X0806Y13228D02*
X7346Y13228D01*
X45994Y13228D02*
X52534Y13228D01*
X0823Y13278D02*
X7474Y13278D01*
X45866Y13278D02*
X52517Y13278D01*
X0839Y13327D02*
X52501Y13327D01*
X0856Y13377D02*
X52484Y13377D01*
X0872Y13426D02*
X52468Y13426D01*
X0889Y13476D02*
X52451Y13476D01*
X0905Y13525D02*
X52435Y13525D01*
X0922Y13575D02*
X52418Y13575D01*
X0938Y13624D02*
X52402Y13624D01*
X0955Y13674D02*
X52385Y13674D01*
X0971Y13723D02*
X52369Y13723D01*
X0988Y13773D02*
X52352Y13773D01*
X1004Y13822D02*
X52336Y13822D01*
X1021Y13872D02*
X52319Y13872D01*
X1037Y13921D02*
X52303Y13921D01*
X1054Y13971D02*
X52286Y13971D01*
X1070Y14021D02*
X52270Y14021D01*
X1087Y14070D02*
X52253Y14070D01*
X1103Y14120D02*
X52237Y14120D01*
X1120Y14169D02*
X52220Y14169D01*
X1136Y14219D02*
X52204Y14219D01*
X1153Y14268D02*
X52187Y14268D01*
X1169Y14318D02*
X52171Y14318D01*
X1186Y14367D02*
X52154Y14367D01*
X1203Y14417D02*
X52138Y14417D01*
X1219Y14466D02*
X52121Y14466D01*
X1236Y14516D02*
X52104Y14516D01*
X1252Y14565D02*
X52088Y14565D01*
X1269Y14615D02*
X52071Y14615D01*
X1285Y14664D02*
X52055Y14664D01*
X1302Y14714D02*
X52038Y14714D01*
X1318Y14763D02*
X52022Y14763D01*
X1335Y14813D02*
X52005Y14813D01*
X1351Y14863D02*
X51989Y14863D01*
X1368Y14912D02*
X51972Y14912D01*
X1384Y14962D02*
X51956Y14962D01*
X1401Y15011D02*
X51939Y15011D01*
X1417Y15061D02*
X51923Y15061D01*
X1434Y15110D02*
X23094Y15110D01*
X25246Y15110D02*
X51906Y15110D01*
X1450Y15160D02*
X22964Y15160D01*
X25376Y15160D02*
X51890Y15160D01*
X1467Y15209D02*
X22896Y15209D01*
X25444Y15209D02*
X51873Y15209D01*
X1483Y15259D02*
X22850Y15259D01*
X25490Y15259D02*
X51857Y15259D01*
X1500Y15308D02*
X22817Y15308D01*
X25523Y15308D02*
X51840Y15308D01*
X1516Y15358D02*
X22793Y15358D01*
X25547Y15358D02*
X51824Y15358D01*
X1533Y15407D02*
X22777Y15407D01*
X25563Y15407D02*
X51807Y15407D01*
X1549Y15457D02*
X22767Y15457D01*
X25573Y15457D02*
X51791Y15457D01*
X1566Y15506D02*
X22763Y15506D01*
X25577Y15506D02*
X51774Y15506D01*
X1582Y15556D02*
X22762Y15556D01*
X25578Y15556D02*
X51758Y15556D01*
X1599Y15605D02*
X22762Y15605D01*
X25578Y15605D02*
X51741Y15605D01*
X1615Y15655D02*
X22762Y15655D01*
X25578Y15655D02*
X51725Y15655D01*
X1632Y15705D02*
X22762Y15705D01*
X25578Y15705D02*
X51708Y15705D01*
X1648Y15754D02*
X22762Y15754D01*
X25578Y15754D02*
X51692Y15754D01*
X1665Y15804D02*
X22762Y15804D01*
X25578Y15804D02*
X51675Y15804D01*
X1681Y15853D02*
X22762Y15853D01*
X25578Y15853D02*
X51659Y15853D01*
X1698Y15903D02*
X22762Y15903D01*
X25578Y15903D02*
X51642Y15903D01*
X1714Y15952D02*
X22762Y15952D01*
X25578Y15952D02*
X51626Y15952D01*
X1731Y16002D02*
X22762Y16002D01*
X25578Y16002D02*
X51609Y16002D01*
X1747Y16051D02*
X22762Y16051D01*
X25578Y16051D02*
X51593Y16051D01*
X1764Y16101D02*
X22762Y16101D01*
X25578Y16101D02*
X51576Y16101D01*
X1780Y16150D02*
X22762Y16150D01*
X25578Y16150D02*
X51560Y16150D01*
X1797Y16200D02*
X22762Y16200D01*
X25578Y16200D02*
X51543Y16200D01*
X1813Y16249D02*
X22762Y16249D01*
X25578Y16249D02*
X51527Y16249D01*
X1830Y16299D02*
X22762Y16299D01*
X25578Y16299D02*
X51510Y16299D01*
X1846Y16348D02*
X22762Y16348D01*
X25578Y16348D02*
X51494Y16348D01*
X1863Y16398D02*
X22762Y16398D01*
X25578Y16398D02*
X51477Y16398D01*
X1879Y16448D02*
X22762Y16448D01*
X25578Y16448D02*
X51461Y16448D01*
X1896Y16497D02*
X22762Y16497D01*
X25578Y16497D02*
X51444Y16497D01*
X1912Y16547D02*
X22762Y16547D01*
X25578Y16547D02*
X51428Y16547D01*
X1929Y16596D02*
X22762Y16596D01*
X25578Y16596D02*
X51411Y16596D01*
X1945Y16646D02*
X22762Y16646D01*
X25578Y16646D02*
X51395Y16646D01*
X1962Y16695D02*
X22762Y16695D01*
X25578Y16695D02*
X51378Y16695D01*
X1978Y16745D02*
X22762Y16745D01*
X25578Y16745D02*
X51362Y16745D01*
X1995Y16794D02*
X22762Y16794D01*
X25578Y16794D02*
X51345Y16794D01*
X2011Y16844D02*
X22762Y16844D01*
X25578Y16844D02*
X51329Y16844D01*
X2028Y16893D02*
X22762Y16893D01*
X25578Y16893D02*
X51312Y16893D01*
X2045Y16943D02*
X22762Y16943D01*
X25578Y16943D02*
X51295Y16943D01*
X2061Y16992D02*
X22762Y16992D01*
X25578Y16992D02*
X51279Y16992D01*
X2078Y17042D02*
X22762Y17042D01*
X25578Y17042D02*
X51262Y17042D01*
X2094Y17091D02*
X22762Y17091D01*
X25578Y17091D02*
X51246Y17091D01*
X2111Y17141D02*
X22762Y17141D01*
X25578Y17141D02*
X51229Y17141D01*
X2127Y17190D02*
X22762Y17190D01*
X25578Y17190D02*
X51213Y17190D01*
X2144Y17240D02*
X22762Y17240D01*
X25578Y17240D02*
X51196Y17240D01*
X2160Y17290D02*
X22762Y17290D01*
X25578Y17290D02*
X51180Y17290D01*
X2177Y17339D02*
X22762Y17339D01*
X25578Y17339D02*
X51163Y17339D01*
X2193Y17389D02*
X22762Y17389D01*
X25578Y17389D02*
X51147Y17389D01*
X2210Y17438D02*
X22762Y17438D01*
X25578Y17438D02*
X51130Y17438D01*
X2226Y17488D02*
X22762Y17488D01*
X25578Y17488D02*
X51114Y17488D01*
X2243Y17537D02*
X22764Y17537D01*
X25576Y17537D02*
X51097Y17537D01*
X2259Y17587D02*
X22770Y17587D01*
X25570Y17587D02*
X51081Y17587D01*
X2276Y17636D02*
X22782Y17636D01*
X25558Y17636D02*
X51064Y17636D01*
X2292Y17686D02*
X22803Y17686D01*
X25537Y17686D02*
X51048Y17686D01*
X2309Y17735D02*
X22831Y17735D01*
X25509Y17735D02*
X51031Y17735D01*
X2325Y17785D02*
X22870Y17785D01*
X25470Y17785D02*
X51015Y17785D01*
X2342Y17834D02*
X22924Y17834D01*
X25416Y17834D02*
X50998Y17834D01*
X2358Y17884D02*
X23011Y17884D01*
X25329Y17884D02*
X50982Y17884D01*
X2375Y17933D02*
X50965Y17933D01*
X2391Y17983D02*
X50949Y17983D01*
X2408Y18032D02*
X50932Y18032D01*
X2424Y18082D02*
X50916Y18082D01*
X2441Y18132D02*
X50899Y18132D01*
X2457Y18181D02*
X50883Y18181D01*
X2474Y18231D02*
X50866Y18231D01*
X2490Y18280D02*
X50850Y18280D01*
X2507Y18330D02*
X50833Y18330D01*
X2523Y18379D02*
X50817Y18379D01*
X2540Y18429D02*
X50800Y18429D01*
X2556Y18478D02*
X50784Y18478D01*
X2573Y18528D02*
X50767Y18528D01*
X2589Y18577D02*
X50751Y18577D01*
X2606Y18627D02*
X50734Y18627D01*
X2622Y18676D02*
X50718Y18676D01*
X2639Y18726D02*
X50701Y18726D01*
X2655Y18775D02*
X50685Y18775D01*
X2672Y18825D02*
X50668Y18825D01*
X2688Y18874D02*
X50652Y18874D01*
X2705Y18924D02*
X50635Y18924D01*
X2721Y18974D02*
X50619Y18974D01*
X2738Y19023D02*
X50602Y19023D01*
X2754Y19073D02*
X50586Y19073D01*
X2771Y19122D02*
X50569Y19122D01*
X2787Y19172D02*
X50553Y19172D01*
X2804Y19221D02*
X50536Y19221D01*
X2820Y19271D02*
X50520Y19271D01*
X2837Y19320D02*
X50503Y19320D01*
X2854Y19370D02*
X50487Y19370D01*
X2870Y19419D02*
X50470Y19419D01*
X2887Y19469D02*
X50453Y19469D01*
X2903Y19518D02*
X50437Y19518D01*
X2920Y19568D02*
X50420Y19568D01*
X2936Y19617D02*
X50404Y19617D01*
X2953Y19667D02*
X50387Y19667D01*
X2969Y19716D02*
X50371Y19716D01*
X49575Y2940D02*
X49575Y2940D01*
X49632Y3103*
X49632Y3103*
X49786Y3348*
X49786Y3348*
X49992Y3554*
X49992Y3554*
X50237Y3708*
X50237Y3708*
X50400Y3765*
X50400Y3855*
X50237Y3912*
X50237Y3912*
X49992Y4066*
X49992Y4066*
X49786Y4272*
X49786Y4272*
X49632Y4517*
X49632Y4517*
X49575Y4680*
X49485Y4680*
X49428Y4517*
X49428Y4517*
X49274Y4272*
X49274Y4272*
X49068Y4066*
X49068Y4066*
X48823Y3912*
X48823Y3912*
X48660Y3855*
X48660Y3765*
X48823Y3708*
X48823Y3708*
X49068Y3554*
X49068Y3554*
X49274Y3348*
X49274Y3348*
X49428Y3103*
X49428Y3103*
X49485Y2940*
X49575Y2940*
X49468Y2989D02*
X49592Y2989D01*
X49450Y3039D02*
X49610Y3039D01*
X49433Y3088D02*
X49627Y3088D01*
X49406Y3138D02*
X49654Y3138D01*
X49375Y3187D02*
X49685Y3187D01*
X49344Y3237D02*
X49716Y3237D01*
X49312Y3287D02*
X49748Y3287D01*
X49281Y3336D02*
X49779Y3336D01*
X49236Y3386D02*
X49824Y3386D01*
X49187Y3435D02*
X49873Y3435D01*
X49137Y3485D02*
X49923Y3485D01*
X49088Y3534D02*
X49972Y3534D01*
X49020Y3584D02*
X50040Y3584D01*
X48942Y3633D02*
X50118Y3633D01*
X48863Y3683D02*
X50197Y3683D01*
X48753Y3732D02*
X50307Y3732D01*
X48660Y3782D02*
X50400Y3782D01*
X48660Y3831D02*
X50400Y3831D01*
X48734Y3881D02*
X50326Y3881D01*
X48852Y3930D02*
X50208Y3930D01*
X48931Y3980D02*
X50129Y3980D01*
X49009Y4029D02*
X50051Y4029D01*
X49081Y4079D02*
X49979Y4079D01*
X49130Y4129D02*
X49930Y4129D01*
X49180Y4178D02*
X49880Y4178D01*
X49229Y4228D02*
X49831Y4228D01*
X49277Y4277D02*
X49783Y4277D01*
X49308Y4327D02*
X49752Y4327D01*
X49339Y4376D02*
X49721Y4376D01*
X49370Y4426D02*
X49690Y4426D01*
X49401Y4475D02*
X49659Y4475D01*
X49431Y4525D02*
X49629Y4525D01*
X49448Y4574D02*
X49612Y4574D01*
X49465Y4624D02*
X49595Y4624D01*
X49483Y4673D02*
X49577Y4673D01*
X3855Y2940D02*
X3855Y2940D01*
X3912Y3103*
X3912Y3103*
X4066Y3348*
X4066Y3348*
X4272Y3554*
X4272Y3554*
X4517Y3708*
X4517Y3708*
X4680Y3765*
X4680Y3855*
X4517Y3912*
X4517Y3912*
X4272Y4066*
X4272Y4066*
X4066Y4272*
X4066Y4272*
X3912Y4517*
X3912Y4517*
X3855Y4680*
X3765Y4680*
X3708Y4517*
X3708Y4517*
X3554Y4272*
X3554Y4272*
X3348Y4066*
X3348Y4066*
X3103Y3912*
X3103Y3912*
X2940Y3855*
X2940Y3765*
X3103Y3708*
X3103Y3708*
X3348Y3554*
X3348Y3554*
X3554Y3348*
X3554Y3348*
X3708Y3103*
X3708Y3103*
X3765Y2940*
X3855Y2940*
X3748Y2989D02*
X3872Y2989D01*
X3730Y3039D02*
X3890Y3039D01*
X3713Y3088D02*
X3907Y3088D01*
X3686Y3138D02*
X3934Y3138D01*
X3655Y3187D02*
X3965Y3187D01*
X3624Y3237D02*
X3996Y3237D01*
X3592Y3287D02*
X4028Y3287D01*
X3561Y3336D02*
X4059Y3336D01*
X3516Y3386D02*
X4104Y3386D01*
X3467Y3435D02*
X4153Y3435D01*
X3417Y3485D02*
X4203Y3485D01*
X3368Y3534D02*
X4252Y3534D01*
X3300Y3584D02*
X4320Y3584D01*
X3222Y3633D02*
X4398Y3633D01*
X3143Y3683D02*
X4477Y3683D01*
X3033Y3732D02*
X4587Y3732D01*
X2940Y3782D02*
X4680Y3782D01*
X2940Y3831D02*
X4680Y3831D01*
X3014Y3881D02*
X4606Y3881D01*
X3132Y3930D02*
X4488Y3930D01*
X3211Y3980D02*
X4409Y3980D01*
X3289Y4029D02*
X4331Y4029D01*
X3361Y4079D02*
X4259Y4079D01*
X3410Y4129D02*
X4210Y4129D01*
X3460Y4178D02*
X4160Y4178D01*
X3509Y4228D02*
X4111Y4228D01*
X3557Y4277D02*
X4063Y4277D01*
X3588Y4327D02*
X4032Y4327D01*
X3619Y4376D02*
X4001Y4376D01*
X3650Y4426D02*
X3970Y4426D01*
X3681Y4475D02*
X3939Y4475D01*
X3711Y4525D02*
X3909Y4525D01*
X3728Y4574D02*
X3892Y4574D01*
X3745Y4624D02*
X3875Y4624D01*
X3763Y4673D02*
X3857Y4673D01*
%LNtop copper_traces*%
%LNtop copper component d884e53a61bc2bc3*%
D11*
X24170Y16510D03*
D12*
X29170Y16510D03*
%LNtop copper component 8889ed7dfd5d4ee6*%
D13*
X2540Y5080D03*
X2540Y2540D03*
X5080Y5080D03*
X5080Y2540D03*
%LNtop copper component d1eda6cb61111443*%
X48260Y5080D03*
X48260Y2540D03*
X50800Y5080D03*
X50800Y2540D03*
M02*