<?xml version="1.0" encoding="utf-8" ?>
<svg baseProfile="tiny" height="104.286611624" version="1.2" width="54.786612834" xmlns="http://www.w3.org/2000/svg" xmlns:ev="http://www.w3.org/2001/xml-events" xmlns:xlink="http://www.w3.org/1999/xlink"><defs /><g id="paths" stroke="green"><path d="M 4.893306967,99.393304657 L 49.893305867,99.393304657 L 49.893305867,4.893306967 L 4.893306967,4.893306967 L 4.893306967,99.393304657 Z" fill-opacity="0" stroke-linejoin="round" stroke-width="1.0" /></g><g fill="red" id="top_parts" stroke="red"><line stroke-linecap="round" stroke-width="0.5" x1="3.1217" x2="15.665" y1="5.3717" y2="5.3717" /><line stroke-linecap="round" stroke-width="0.5" x1="15.665" x2="15.665" y1="5.3717" y2="98.915" /><line stroke-linecap="round" stroke-width="0.5" x1="15.665" x2="3.1217" y1="98.915" y2="98.915" /><line stroke-linecap="round" stroke-width="0.5" x1="3.1217" x2="3.1217" y1="98.915" y2="5.3717" /><text font-family="monospace" font-size="2" stroke-width="0.1" text-anchor="middle" x="9.393306857" y="52.143305812">J2</text><line stroke-linecap="round" stroke-width="0.5" x1="14.3717" x2="40.415" y1="3.1217" y2="3.1217" /><line stroke-linecap="round" stroke-width="0.5" x1="40.415" x2="40.415" y1="3.1217" y2="101.165" /><line stroke-linecap="round" stroke-width="0.5" x1="40.415" x2="14.3717" y1="101.165" y2="101.165" /><line stroke-linecap="round" stroke-width="0.5" x1="14.3717" x2="14.3717" y1="101.165" y2="3.1217" /><text font-family="monospace" font-size="2" stroke-width="0.1" text-anchor="middle" x="27.393306417" y="52.143305812">J1</text><line stroke-linecap="round" stroke-width="0.5" x1="39.1217" x2="51.665" y1="5.3717" y2="5.3717" /><line stroke-linecap="round" stroke-width="0.5" x1="51.665" x2="51.665" y1="5.3717" y2="98.915" /><line stroke-linecap="round" stroke-width="0.5" x1="51.665" x2="39.1217" y1="98.915" y2="98.915" /><line stroke-linecap="round" stroke-width="0.5" x1="39.1217" x2="39.1217" y1="98.915" y2="5.3717" /><text font-family="monospace" font-size="2" stroke-width="0.1" text-anchor="middle" x="45.393305977" y="52.143305812">J3</text></g><g fill="blue" id="bottom_parts" stroke="blue" /></svg>