%FSLAX33Y33*%
%MOMM*%
%AMRect-W1650000-H1650000-RO1.500*
21,1,1.65,1.65,0.,0.,90*%
%AMRect-W1650000-H1650000-RO1.000*
21,1,1.65,1.65,0.,0.,180*%
%AMRR-H1470000-W1285000-R300000-RO0.000*
21,1,0.685,1.47,0.,0.,360*
21,1,1.285,0.87,0.,0.,360*
1,1,0.6,-0.3425,0.435*
1,1,0.6,0.3425,0.435*
1,1,0.6,0.3425,-0.435*
1,1,0.6,-0.3425,-0.435*%
%AMRect-W1500000-H1500000-RO0.500*
21,1,1.5,1.5,0.,0.,270*%
%AMRect-W670710-H1320710-RO1.000*
21,1,0.67071,1.32071,0.,0.,180*%
%AMRect-W1700000-H1700000-RO1.000*
21,1,1.7,1.7,0.,0.,180*%
%AMRect-W2052833-H422672-RO1.000*
21,1,2.052833,0.422672,0.,0.,180*%
%AMRR-H422672-W2052833-R211336-RO1.000*
21,1,1.630161,0.422672,0.,0.,180*
1,1,0.422672,0.8150805,-0.*
1,1,0.422672,-0.8150805,-0.*
1,1,0.422672,-0.8150805,0.*
1,1,0.422672,0.8150805,0.*%
%ADD10C,1.0668*%
%ADD11C,1.65*%
%ADD12Rect-W1650000-H1650000-RO1.500*%
%ADD13C,1.65*%
%ADD14Rect-W1650000-H1650000-RO1.000*%
%ADD15RR-H1470000-W1285000-R300000-RO0.000*%
%ADD16C,1.5*%
%ADD17C,3.*%
%ADD18Rect-W1500000-H1500000-RO0.500*%
%ADD19Rect-W670710-H1320710-RO1.000*%
%ADD20R,0.67071X1.32071*%
%ADD21C,1.7*%
%ADD22Rect-W1700000-H1700000-RO1.000*%
%ADD23Rect-W2052833-H422672-RO1.000*%
%ADD24RR-H422672-W2052833-R211336-RO1.000*%
D10*
%LNtop solder mask_traces*%
G01*
X22993Y14110D03*
X16726Y12225D03*
X19975Y4125D03*
X24650Y6600D03*
X16726Y11100D03*
X23775Y9975D03*
X29375Y8850D03*
X19800Y5425D03*
%LNtop solder mask component d42eb884927d70f7*%
D11*
X18441Y16122D03*
X20981Y16122D03*
D12*
X15901Y16122D03*
%LNtop solder mask component 88a1b529ef9425af*%
D13*
X32600Y6490D03*
X32600Y9030D03*
X32600Y11570D03*
X32600Y14110D03*
X32600Y16650D03*
D14*
X32600Y3950D03*
%LNtop solder mask component da4715df17963b43*%
D15*
X9243Y13282D03*
X11188Y13282D03*
%LNtop solder mask component be73e84ce829f6fc*%
D16*
X4700Y8850D03*
X4700Y11350D03*
X6700Y11350D03*
D17*
X1990Y16120D03*
X1990Y4080D03*
D18*
X6700Y8850D03*
%LNtop solder mask component c67acca82e982272*%
D19*
X11315Y9510D03*
X9215Y9510D03*
%LNtop solder mask component 37d77bcb1c3adade*%
D20*
X9215Y3225D03*
X11315Y3225D03*
%LNtop solder mask component a382895390425a59*%
D19*
X11315Y6475D03*
X9215Y6475D03*
%LNtop solder mask component a2960183214ca6c9*%
D21*
X27025Y8735D03*
X27025Y12235D03*
X27025Y15735D03*
D22*
X27025Y5235D03*
%LNtop solder mask component 16f672dc61fb389c*%
D23*
X21725Y3475D03*
D24*
X21725Y4125D03*
X21725Y4775D03*
X21725Y5425D03*
X21725Y6075D03*
X21725Y6725D03*
X21725Y7375D03*
X21725Y8025D03*
X21725Y8675D03*
X21725Y9325D03*
X21725Y9975D03*
X21725Y10625D03*
X21725Y11275D03*
X21725Y11925D03*
X14875Y11925D03*
X14875Y11275D03*
X14875Y10625D03*
X14875Y9975D03*
X14875Y9325D03*
X14875Y8675D03*
X14875Y8025D03*
X14875Y7375D03*
X14875Y6725D03*
X14875Y6075D03*
X14875Y5425D03*
X14875Y4775D03*
X14875Y4125D03*
X14875Y3475D03*
%LNtop solder mask component 28ac0c2b65682105*%
D19*
X11343Y16950D03*
X9243Y16950D03*
M02*