<?xml-stylesheet href="https://s3.amazonaws.com/maker.works.boards/css/blackpcb.css" type="text/css"?><svg xmlns="http://www.w3.org/2000/svg" version="1.1" xmlns:xlink="http://www.w3.org/1999/xlink" stroke-width="0" stroke-linecap="round" stroke-linejoin="round" width="0.5in" height="1.05in" id="pcb_bottom" viewBox="7.5 7.5 500 1050"><defs><circle cx="0" cy="0" r="20.5" id="tool-T10-pad-1000"/><rect x="-31.5" y="-31.5" width="63" height="63" id="tool-D11-pad-1002"/><circle cx="0" cy="0" r="31.5" id="tool-D12-pad-1003"/><rect x="-31.5" y="-31.5" width="63" height="63" id="tool-D10-pad-1004"/><circle cx="0" cy="0" r="31.5" id="tool-D11-pad-1005"/><g id="pcb_bottom-cu" fill="currentColor" stroke="currentColor"><path stroke-width="60" fill="none" d="M 57.5 82.5 L 207.5 82.5 M 57.5 282.5 L 207.5 282.5 M 57.5 682.5 L 207.5 682.5 M 57.5 882.5 L 207.5 882.5 M 307.5 82.5 L 457.5 82.5 M 57.5 482.5 L 207.5 482.5 M 457.5 182.5 L 307.5 182.5 M 207.5 782.5 L 57.5 782.5 M 457.5 382.5 L 307.5 382.5 M 457.5 882.5 L 307.5 882.5 M 457.5 682.5 L 307.5 682.5 M 207.5 582.5 L 57.5 582.5 M 307.5 782.5 L 457.5 782.5 M 457.5 582.5 L 307.5 582.5 M 307.5 482.5 L 457.5 482.5 M 307.5 982.5 L 457.5 982.5 M 207.5 182.5 L 57.5 182.5 M 207.5 982.5 L 57.5 982.5 M 207.5 382.5 L 57.5 382.5 M 307.5 282.5 L 457.5 282.5"/><use x="57.5" y="982.5" xlink:href="#tool-D11-pad-1002"/><use x="57.5" y="882.5" xlink:href="#tool-D12-pad-1003"/><use x="57.5" y="782.5" xlink:href="#tool-D12-pad-1003"/><use x="57.5" y="682.5" xlink:href="#tool-D12-pad-1003"/><use x="57.5" y="582.5" xlink:href="#tool-D12-pad-1003"/><use x="57.5" y="482.5" xlink:href="#tool-D12-pad-1003"/><use x="57.5" y="382.5" xlink:href="#tool-D12-pad-1003"/><use x="57.5" y="282.5" xlink:href="#tool-D12-pad-1003"/><use x="57.5" y="182.5" xlink:href="#tool-D12-pad-1003"/><use x="57.5" y="82.5" xlink:href="#tool-D12-pad-1003"/><use x="207.5" y="982.5" xlink:href="#tool-D11-pad-1002"/><use x="207.5" y="882.5" xlink:href="#tool-D12-pad-1003"/><use x="207.5" y="782.5" xlink:href="#tool-D12-pad-1003"/><use x="207.5" y="682.5" xlink:href="#tool-D12-pad-1003"/><use x="207.5" y="582.5" xlink:href="#tool-D12-pad-1003"/><use x="207.5" y="482.5" xlink:href="#tool-D12-pad-1003"/><use x="207.5" y="382.5" xlink:href="#tool-D12-pad-1003"/><use x="207.5" y="282.5" xlink:href="#tool-D12-pad-1003"/><use x="207.5" y="182.5" xlink:href="#tool-D12-pad-1003"/><use x="207.5" y="82.5" xlink:href="#tool-D12-pad-1003"/><use x="307.5" y="982.5" xlink:href="#tool-D12-pad-1003"/><use x="307.5" y="882.5" xlink:href="#tool-D12-pad-1003"/><use x="307.5" y="782.5" xlink:href="#tool-D12-pad-1003"/><use x="307.5" y="682.5" xlink:href="#tool-D12-pad-1003"/><use x="307.5" y="582.5" xlink:href="#tool-D12-pad-1003"/><use x="307.5" y="482.5" xlink:href="#tool-D12-pad-1003"/><use x="307.5" y="382.5" xlink:href="#tool-D12-pad-1003"/><use x="307.5" y="282.5" xlink:href="#tool-D12-pad-1003"/><use x="307.5" y="182.5" xlink:href="#tool-D12-pad-1003"/><use x="307.5" y="82.5" xlink:href="#tool-D12-pad-1003"/><use x="457.5" y="982.5" xlink:href="#tool-D11-pad-1002"/><use x="457.5" y="882.5" xlink:href="#tool-D12-pad-1003"/><use x="457.5" y="782.5" xlink:href="#tool-D12-pad-1003"/><use x="457.5" y="682.5" xlink:href="#tool-D12-pad-1003"/><use x="457.5" y="582.5" xlink:href="#tool-D12-pad-1003"/><use x="457.5" y="482.5" xlink:href="#tool-D12-pad-1003"/><use x="457.5" y="382.5" xlink:href="#tool-D12-pad-1003"/><use x="457.5" y="282.5" xlink:href="#tool-D12-pad-1003"/><use x="457.5" y="182.5" xlink:href="#tool-D12-pad-1003"/><use x="457.5" y="82.5" xlink:href="#tool-D12-pad-1003"/></g><mask id="pcb_bottom_mech-mask" fill="#fff" stroke="#fff" fill-rule="evenodd"><path stroke-width="0" d="M 7.5 7.5 L 7.5 1057.5 L 507.5 1057.5 L 507.5 7.5 Z"/><g id="pcb_bottom-drl" fill="#000" stroke="#000"><use x="57.5" y="982.5" xlink:href="#tool-T10-pad-1000"/><use x="57.5" y="882.5" xlink:href="#tool-T10-pad-1000"/><use x="57.5" y="782.5" xlink:href="#tool-T10-pad-1000"/><use x="57.5" y="682.5" xlink:href="#tool-T10-pad-1000"/><use x="57.5" y="582.5" xlink:href="#tool-T10-pad-1000"/><use x="57.5" y="482.5" xlink:href="#tool-T10-pad-1000"/><use x="57.5" y="382.5" xlink:href="#tool-T10-pad-1000"/><use x="57.5" y="282.5" xlink:href="#tool-T10-pad-1000"/><use x="57.5" y="182.5" xlink:href="#tool-T10-pad-1000"/><use x="57.5" y="82.5" xlink:href="#tool-T10-pad-1000"/><use x="207.5" y="982.5" xlink:href="#tool-T10-pad-1000"/><use x="207.5" y="882.5" xlink:href="#tool-T10-pad-1000"/><use x="207.5" y="782.5" xlink:href="#tool-T10-pad-1000"/><use x="207.5" y="682.5" xlink:href="#tool-T10-pad-1000"/><use x="207.5" y="582.5" xlink:href="#tool-T10-pad-1000"/><use x="207.5" y="482.5" xlink:href="#tool-T10-pad-1000"/><use x="207.5" y="382.5" xlink:href="#tool-T10-pad-1000"/><use x="207.5" y="282.5" xlink:href="#tool-T10-pad-1000"/><use x="207.5" y="182.5" xlink:href="#tool-T10-pad-1000"/><use x="207.5" y="82.5" xlink:href="#tool-T10-pad-1000"/><use x="307.5" y="982.5" xlink:href="#tool-T10-pad-1000"/><use x="307.5" y="882.5" xlink:href="#tool-T10-pad-1000"/><use x="307.5" y="782.5" xlink:href="#tool-T10-pad-1000"/><use x="307.5" y="682.5" xlink:href="#tool-T10-pad-1000"/><use x="307.5" y="582.5" xlink:href="#tool-T10-pad-1000"/><use x="307.5" y="482.5" xlink:href="#tool-T10-pad-1000"/><use x="307.5" y="382.5" xlink:href="#tool-T10-pad-1000"/><use x="307.5" y="282.5" xlink:href="#tool-T10-pad-1000"/><use x="307.5" y="182.5" xlink:href="#tool-T10-pad-1000"/><use x="307.5" y="82.5" xlink:href="#tool-T10-pad-1000"/><use x="457.5" y="982.5" xlink:href="#tool-T10-pad-1000"/><use x="457.5" y="882.5" xlink:href="#tool-T10-pad-1000"/><use x="457.5" y="782.5" xlink:href="#tool-T10-pad-1000"/><use x="457.5" y="682.5" xlink:href="#tool-T10-pad-1000"/><use x="457.5" y="582.5" xlink:href="#tool-T10-pad-1000"/><use x="457.5" y="482.5" xlink:href="#tool-T10-pad-1000"/><use x="457.5" y="382.5" xlink:href="#tool-T10-pad-1000"/><use x="457.5" y="282.5" xlink:href="#tool-T10-pad-1000"/><use x="457.5" y="182.5" xlink:href="#tool-T10-pad-1000"/><use x="457.5" y="82.5" xlink:href="#tool-T10-pad-1000"/></g></mask></defs><g mask="url(#pcb_bottom_mech-mask)" transform="translate(515,1065) scale(-1,-1)"><rect x="7.5" y="7.5" width="500" height="1050" fill="currentColor" class="pcb_board-fr4"/><use class="pcb_board-cu" xlink:href="#pcb_bottom-cu"/><g><defs><g id="pcb_bottom-sm" fill="currentColor" stroke="currentColor"><use x="57.5" y="982.5" xlink:href="#tool-D10-pad-1004"/><use x="57.5" y="882.5" xlink:href="#tool-D11-pad-1005"/><use x="57.5" y="782.5" xlink:href="#tool-D11-pad-1005"/><use x="57.5" y="682.5" xlink:href="#tool-D11-pad-1005"/><use x="57.5" y="582.5" xlink:href="#tool-D11-pad-1005"/><use x="57.5" y="482.5" xlink:href="#tool-D11-pad-1005"/><use x="57.5" y="382.5" xlink:href="#tool-D11-pad-1005"/><use x="57.5" y="282.5" xlink:href="#tool-D11-pad-1005"/><use x="57.5" y="182.5" xlink:href="#tool-D11-pad-1005"/><use x="57.5" y="82.5" xlink:href="#tool-D11-pad-1005"/><use x="207.5" y="982.5" xlink:href="#tool-D10-pad-1004"/><use x="207.5" y="882.5" xlink:href="#tool-D11-pad-1005"/><use x="207.5" y="782.5" xlink:href="#tool-D11-pad-1005"/><use x="207.5" y="682.5" xlink:href="#tool-D11-pad-1005"/><use x="207.5" y="582.5" xlink:href="#tool-D11-pad-1005"/><use x="207.5" y="482.5" xlink:href="#tool-D11-pad-1005"/><use x="207.5" y="382.5" xlink:href="#tool-D11-pad-1005"/><use x="207.5" y="282.5" xlink:href="#tool-D11-pad-1005"/><use x="207.5" y="182.5" xlink:href="#tool-D11-pad-1005"/><use x="207.5" y="82.5" xlink:href="#tool-D11-pad-1005"/><use x="307.5" y="982.5" xlink:href="#tool-D11-pad-1005"/><use x="307.5" y="882.5" xlink:href="#tool-D11-pad-1005"/><use x="307.5" y="782.5" xlink:href="#tool-D11-pad-1005"/><use x="307.5" y="682.5" xlink:href="#tool-D11-pad-1005"/><use x="307.5" y="582.5" xlink:href="#tool-D11-pad-1005"/><use x="307.5" y="482.5" xlink:href="#tool-D11-pad-1005"/><use x="307.5" y="382.5" xlink:href="#tool-D11-pad-1005"/><use x="307.5" y="282.5" xlink:href="#tool-D11-pad-1005"/><use x="307.5" y="182.5" xlink:href="#tool-D11-pad-1005"/><use x="307.5" y="82.5" xlink:href="#tool-D11-pad-1005"/><use x="457.5" y="982.5" xlink:href="#tool-D10-pad-1004"/><use x="457.5" y="882.5" xlink:href="#tool-D11-pad-1005"/><use x="457.5" y="782.5" xlink:href="#tool-D11-pad-1005"/><use x="457.5" y="682.5" xlink:href="#tool-D11-pad-1005"/><use x="457.5" y="582.5" xlink:href="#tool-D11-pad-1005"/><use x="457.5" y="482.5" xlink:href="#tool-D11-pad-1005"/><use x="457.5" y="382.5" xlink:href="#tool-D11-pad-1005"/><use x="457.5" y="282.5" xlink:href="#tool-D11-pad-1005"/><use x="457.5" y="182.5" xlink:href="#tool-D11-pad-1005"/><use x="457.5" y="82.5" xlink:href="#tool-D11-pad-1005"/></g><mask id="pcb_bottom-sm_mask" color="#000"><rect x="7.5" y="7.5" width="500" height="1050" fill="#fff"/><use xlink:href="#pcb_bottom-sm"/></mask><mask id="pcb_bottom-cu_finish-mask" color="#fff"><use xlink:href="#pcb_bottom-cu"/></mask></defs><g mask="url(#pcb_bottom-sm_mask)"><rect x="7.5" y="7.5" width="500" height="1050" fill="currentColor" class="pcb_board-sm"/><g id="pcb_bottom-ss" class="pcb_board-ss" fill="currentColor" stroke="currentColor"></g></g><use class="pcb_board-cf" mask="url(#pcb_bottom-cu_finish-mask)" xlink:href="#pcb_bottom-sm"/></g></g></svg>