<?xml version="1.0" encoding="utf-8" ?>
<svg baseProfile="tiny" height="86.286612064" version="1.2" width="198.786609314" xmlns="http://www.w3.org/2000/svg" xmlns:ev="http://www.w3.org/2001/xml-events" xmlns:xlink="http://www.w3.org/1999/xlink"><defs /><g id="paths" stroke="green"><path d="M 4.893306967,81.393305097 L 4.893306967,36.393306197 L 13.893306747,4.893306967 L 184.893302567,4.893306967 L 193.893302347,40.893306087 L 193.893302347,81.393305097 L 166.893303007,81.393305097 L 166.893303007,40.893306087 L 148.893303447,40.893306087 L 144.393303557,49.893305867 L 108.393304437,49.893305867 L 103.893304547,40.893306087 L 31.893306307,40.893306087 L 31.893306307,81.393305097 L 4.893306967,81.393305097 Z" fill-opacity="0" stroke-linejoin="round" stroke-width="1.0" /></g><g fill="red" id="top_parts" stroke="red"><line stroke-linecap="round" stroke-width="0.5" x1="169.5933" x2="191.1933" y1="57.0933" y2="57.0933" /><line stroke-linecap="round" stroke-width="0.5" x1="191.1933" x2="191.1933" y1="57.0933" y2="78.6933" /><line stroke-linecap="round" stroke-width="0.5" x1="191.1933" x2="169.5933" y1="78.6933" y2="78.6933" /><line stroke-linecap="round" stroke-width="0.5" x1="169.5933" x2="169.5933" y1="78.6933" y2="57.0933" /><text font-family="monospace" font-size="2" stroke-width="0.1" text-anchor="middle" x="180.393302677" y="67.893305427">J3</text><line stroke-linecap="round" stroke-width="0.5" x1="150.665" x2="150.665" y1="39.1217" y2="51.665" /><line stroke-linecap="round" stroke-width="0.5" x1="150.665" x2="102.1217" y1="51.665" y2="51.665" /><line stroke-linecap="round" stroke-width="0.5" x1="102.1217" x2="102.1217" y1="51.665" y2="39.1217" /><line stroke-linecap="round" stroke-width="0.5" x1="102.1217" x2="150.665" y1="39.1217" y2="39.1217" /><text font-family="monospace" font-size="2" stroke-width="0.1" text-anchor="middle" x="126.393303997" y="45.393305977">J4</text><line stroke-linecap="round" stroke-width="0.5" x1="7.5933" x2="29.1933" y1="57.0933" y2="57.0933" /><line stroke-linecap="round" stroke-width="0.5" x1="29.1933" x2="29.1933" y1="57.0933" y2="78.6933" /><line stroke-linecap="round" stroke-width="0.5" x1="29.1933" x2="7.5933" y1="78.6933" y2="78.6933" /><line stroke-linecap="round" stroke-width="0.5" x1="7.5933" x2="7.5933" y1="78.6933" y2="57.0933" /><text font-family="monospace" font-size="2" stroke-width="0.1" text-anchor="middle" x="18.393306637" y="67.893305427">J2</text><line stroke-linecap="round" stroke-width="0.5" x1="49.787" x2="49.787" y1="37.9524" y2="7.8343" /><line stroke-linecap="round" stroke-width="0.5" x1="49.787" x2="148.9996" y1="7.8343" y2="7.8343" /><line stroke-linecap="round" stroke-width="0.5" x1="148.9996" x2="148.9996" y1="7.8343" y2="37.9524" /><line stroke-linecap="round" stroke-width="0.5" x1="148.9996" x2="49.787" y1="37.9524" y2="37.9524" /><text font-family="monospace" font-size="2" stroke-width="0.1" text-anchor="middle" x="99.393304657" y="22.893306527">J1</text></g><g fill="blue" id="bottom_parts" stroke="blue" /></svg>