<?xml version="1.0" encoding="utf-8" ?>
<svg baseProfile="tiny" height="121.893304437" version="1.2" width="198.786609314" xmlns="http://www.w3.org/2000/svg" xmlns:ev="http://www.w3.org/2001/xml-events" xmlns:xlink="http://www.w3.org/1999/xlink"><defs /><g id="paths" stroke="blue"><path d="M 4.893306967,81.393305097 L 4.893306967,36.393306197 L 13.893306747,4.893306967 L 184.893302567,4.893306967 L 193.893302347,40.893306087 L 193.893302347,81.393305097 L 166.893303007,81.393305097 L 166.893303007,40.893306087 L 148.893303447,40.893306087 L 144.393303557,49.893305867 L 108.393304437,49.893305867 L 103.893304547,40.893306087 L 31.893306307,40.893306087 L 31.893306307,81.393305097 L 4.893306967,81.393305097 Z" fill-opacity="0" stroke-linejoin="round" stroke-width="1.0" /></g><g fill="red" id="holes"><circle cx="180.3933" cy="58.8933" r="0.585" stroke-width="0.0" /><circle cx="184.8933" cy="18.3933" r="0.585" stroke-width="0.0" /><circle cx="13.8933" cy="18.3933" r="0.585" stroke-width="0.0" /><circle cx="189.3933" cy="58.8933" r="0.585" stroke-width="0.0" /><circle cx="144.3933" cy="39.9933" r="0.585" stroke-width="0.0" /><circle cx="189.3933" cy="40.8933" r="0.585" stroke-width="0.0" /><circle cx="117.3933" cy="39.9933" r="0.585" stroke-width="0.0" /><circle cx="180.3933" cy="40.8933" r="0.585" stroke-width="0.0" /><circle cx="108.3933" cy="22.8933" r="0.585" stroke-width="0.0" /><circle cx="135.3933" cy="39.9933" r="0.585" stroke-width="0.0" /><circle cx="144.3933" cy="22.8933" r="0.585" stroke-width="0.0" /><circle cx="135.3933" cy="22.8933" r="0.585" stroke-width="0.0" /><circle cx="22.8933" cy="9.3933" r="0.585" stroke-width="0.0" /><circle cx="126.3933" cy="39.9933" r="0.585" stroke-width="0.0" /><circle cx="171.3933" cy="58.8933" r="0.585" stroke-width="0.0" /><circle cx="117.3933" cy="22.8933" r="0.585" stroke-width="0.0" /><circle cx="171.3933" cy="22.8933" r="0.585" stroke-width="0.0" /><circle cx="27.3933" cy="27.3933" r="0.585" stroke-width="0.0" /><circle cx="16.1433" cy="13.8933" r="0.585" stroke-width="0.0" /><circle cx="182.6433" cy="13.8933" r="0.585" stroke-width="0.0" /><circle cx="180.3933" cy="49.8933" r="0.585" stroke-width="0.0" /><circle cx="27.3933" cy="40.8933" r="0.585" stroke-width="0.0" /><circle cx="108.3933" cy="39.9933" r="0.585" stroke-width="0.0" /><circle cx="153.3933" cy="22.8933" r="0.585" stroke-width="0.0" /><circle cx="189.3933" cy="49.8933" r="0.585" stroke-width="0.0" /><circle cx="20.6433" cy="34.1433" r="0.585" stroke-width="0.0" /><circle cx="175.8933" cy="31.8933" r="0.585" stroke-width="0.0" /><circle cx="171.3933" cy="49.8933" r="0.585" stroke-width="0.0" /><circle cx="126.3933" cy="22.8933" r="0.585" stroke-width="0.0" /><circle cx="180.3933" cy="9.3933" r="0.585" stroke-width="0.0" /><circle cx="175.8933" cy="9.3933" r="0.585" stroke-width="0.0" /><circle cx="18.3933" cy="9.3933" r="0.585" stroke-width="0.0" /><circle cx="34.1433" cy="34.1433" r="0.585" stroke-width="0.0" /><circle cx="162.3933" cy="22.8933" r="0.585" stroke-width="0.0" /><circle cx="175.8933" cy="63.3933" r="1.8" stroke-width="0.0" /><circle cx="175.8933" cy="72.3933" r="1.8" stroke-width="0.0" /><circle cx="184.8933" cy="63.3933" r="1.8" stroke-width="0.0" /><circle cx="184.8933" cy="72.3933" r="1.8" stroke-width="0.0" /><circle cx="139.8933" cy="45.3933" r="1.8602" stroke-width="0.0" /><circle cx="130.8933" cy="45.3933" r="1.8602" stroke-width="0.0" /><circle cx="121.8933" cy="45.3933" r="1.8602" stroke-width="0.0" /><circle cx="112.8933" cy="45.3933" r="1.8602" stroke-width="0.0" /><circle cx="13.8933" cy="63.3933" r="1.8" stroke-width="0.0" /><circle cx="13.8933" cy="72.3933" r="1.8" stroke-width="0.0" /><circle cx="22.8933" cy="63.3933" r="1.8" stroke-width="0.0" /><circle cx="22.8933" cy="72.3933" r="1.8" stroke-width="0.0" /><circle cx="67.8933" cy="27.3933" r="2.3917" stroke-width="0.0" /><circle cx="76.8933" cy="27.3933" r="2.3917" stroke-width="0.0" /><circle cx="85.8933" cy="27.3933" r="2.3917" stroke-width="0.0" /><circle cx="94.8933" cy="27.3933" r="2.3917" stroke-width="0.0" /><circle cx="103.8933" cy="27.3933" r="2.3917" stroke-width="0.0" /><circle cx="112.8933" cy="27.3933" r="2.3917" stroke-width="0.0" /><circle cx="121.8933" cy="27.3933" r="2.3917" stroke-width="0.0" /><circle cx="130.8933" cy="27.3933" r="2.3917" stroke-width="0.0" /><circle cx="67.8933" cy="18.3933" r="2.3917" stroke-width="0.0" /><circle cx="76.8933" cy="18.3933" r="2.3917" stroke-width="0.0" /><circle cx="85.8933" cy="18.3933" r="2.3917" stroke-width="0.0" /><circle cx="94.8933" cy="18.3933" r="2.3917" stroke-width="0.0" /><circle cx="103.8933" cy="18.3933" r="2.3917" stroke-width="0.0" /><circle cx="112.8933" cy="18.3933" r="2.3917" stroke-width="0.0" /><circle cx="121.8933" cy="18.3933" r="2.3917" stroke-width="0.0" /><circle cx="130.8933" cy="18.3933" r="2.3917" stroke-width="0.0" /></g><g id="rulers" stroke="black"><line stroke-width="1.0" x1="13.8933" x2="184.8933" y1="108.3933" y2="108.3933" /><text font-family="monospace" font-size="5" stroke-width="0.3" x="99.393304657" y="113.393304437">48.2600mm</text><text font-family="monospace" font-size="5" stroke-width="0.3" x="99.393304657" y="119.393304437">(Δx=48.2600mm)</text><line stroke-width="1.0" x1="22.8933" x2="175.8933" y1="90.3933" y2="90.3933" /><text font-family="monospace" font-size="5" stroke-width="0.3" x="99.393304657" y="95.393304877">43.1800mm</text><text font-family="monospace" font-size="5" stroke-width="0.3" x="99.393304657" y="101.393304877">(Δx=43.1800mm)</text></g></svg>