<?xml version='1.0' encoding='UTF-8' standalone='no'?>
<svg xmlns="http://www.w3.org/2000/svg" width="416.5" height="451" x="0" y="0"><text x="358.5" y="184" font-size="10" font-family="sans-serif" text-anchor="end" alignment-baseline="hanging">12V</text><text x="48.5" y="430" font-size="10" font-family="sans-serif" text-anchor="start" alignment-baseline="hanging">GND</text><text x="385.5" y="380" font-size="10" font-family="sans-serif" text-anchor="start" alignment-baseline="middle">cv</text><text x="38.5" y="55" font-size="10" font-family="sans-serif" text-anchor="start" alignment-baseline="hanging">-12V</text><text x="335.5" y="60" font-size="10" font-family="sans-serif" text-anchor="start" alignment-baseline="middle">gate</text><text x="310.5" y="330" font-size="10" font-family="sans-serif" text-anchor="end" alignment-baseline="hanging">J4</text><text x="80.5" y="260" font-size="10" font-family="sans-serif" text-anchor="start" alignment-baseline="hanging">GND</text><text x="190.5" y="286" font-size="10" font-family="sans-serif" text-anchor="start" alignment-baseline="hanging">5V</text><text x="351.5" y="146" font-size="10" font-family="sans-serif" text-anchor="end" alignment-baseline="hanging">5V</text><text x="102.5" y="441" font-size="10" font-family="sans-serif" text-anchor="end" alignment-baseline="hanging">-12V</text><text x="125.5" y="220" font-size="10" font-family="sans serif" text-anchor="start" alignment-baseline="hanging">Eurorack power connector - 16 pin</text><text x="150.5" y="330" font-size="10" font-family="sans-serif" text-anchor="start" alignment-baseline="hanging">J3</text><text x="190.5" y="10" font-size="10" font-family="sans serif" text-anchor="start" alignment-baseline="hanging">J1</text><text x="10.5" y="320" font-size="10" font-family="sans-serif" text-anchor="start" alignment-baseline="hanging">J2</text><text x="335.5" y="100" font-size="10" font-family="sans-serif" text-anchor="start" alignment-baseline="middle">cv</text><text x="223.5" y="288" font-size="10" font-family="sans-serif" text-anchor="start" alignment-baseline="hanging">12V</text><text x="385.5" y="350" font-size="10" font-family="sans-serif" text-anchor="start" alignment-baseline="middle">gate</text><line x1="200.5" y1="320" x2="200.5" y2="300" stroke-width="2" stroke="black"></line><line x1="200.5" y1="300" x2="193.5" y2="307" stroke-width="2" stroke="black"></line><line x1="200.5" y1="300" x2="207.5" y2="307" stroke-width="2" stroke="black"></line><line x1="90.5" y1="400" x2="90.5" y2="420" stroke-width="2" stroke="black"></line><line x1="90.5" y1="420" x2="97.5" y2="413" stroke-width="2" stroke="black"></line><line x1="90.5" y1="420" x2="83.5" y2="413" stroke-width="2" stroke="black"></line><line x1="365.5" y1="350" x2="360.5" y2="350" stroke-width="2" stroke="black"></line><line x1="380.5" y1="350" x2="375.5" y2="353" stroke-width="2" stroke="black"></line><line x1="380.5" y1="350" x2="375.5" y2="347" stroke-width="2" stroke="black"></line><line x1="375.5" y1="353" x2="370.5" y2="353" stroke-width="2" stroke="black"></line><line x1="375.5" y1="347" x2="370.5" y2="347" stroke-width="2" stroke="black"></line><line x1="370.5" y1="353" x2="365.5" y2="350" stroke-width="2" stroke="black"></line><line x1="370.5" y1="347" x2="365.5" y2="350" stroke-width="2" stroke="black"></line><line x1="365.5" y1="380" x2="360.5" y2="380" stroke-width="2" stroke="black"></line><line x1="380.5" y1="380" x2="375.5" y2="383" stroke-width="2" stroke="black"></line><line x1="380.5" y1="380" x2="375.5" y2="377" stroke-width="2" stroke="black"></line><line x1="375.5" y1="383" x2="370.5" y2="383" stroke-width="2" stroke="black"></line><line x1="375.5" y1="377" x2="370.5" y2="377" stroke-width="2" stroke="black"></line><line x1="370.5" y1="383" x2="365.5" y2="380" stroke-width="2" stroke="black"></line><line x1="370.5" y1="377" x2="365.5" y2="380" stroke-width="2" stroke="black"></line><line x1="230.5" y1="320" x2="230.5" y2="300" stroke-width="2" stroke="black"></line><line x1="230.5" y1="300" x2="223.5" y2="307" stroke-width="2" stroke="black"></line><line x1="230.5" y1="300" x2="237.5" y2="307" stroke-width="2" stroke="black"></line><rect width="20" height="50" x="10.5" y="330" style="stroke: #000; stroke-width: 1; fill: none;"></rect><line x1="40.5" y1="340" x2="30.5" y2="340" stroke-width="2" stroke="black"></line><text x="28.5" y="340" font-size="10" font-family="sans-serif" text-anchor="end" alignment-baseline="middle">1</text><line x1="40.5" y1="350" x2="30.5" y2="350" stroke-width="2" stroke="black"></line><text x="28.5" y="350" font-size="10" font-family="sans-serif" text-anchor="end" alignment-baseline="middle">2</text><line x1="40.5" y1="360" x2="30.5" y2="360" stroke-width="2" stroke="black"></line><text x="28.5" y="360" font-size="10" font-family="sans-serif" text-anchor="end" alignment-baseline="middle">3</text><line x1="40.5" y1="370" x2="30.5" y2="370" stroke-width="2" stroke="black"></line><text x="28.5" y="370" font-size="10" font-family="sans-serif" text-anchor="end" alignment-baseline="middle">4</text><line x1="60.5" y1="400" x2="60.5" y2="410" stroke-width="2" stroke="black"></line><line x1="50.5" y1="410" x2="70.5" y2="410" stroke-width="2" stroke="black"></line><line x1="53.5" y1="415" x2="67.5" y2="415" stroke-width="2" stroke="black"></line><line x1="56.5" y1="420" x2="64.5" y2="420" stroke-width="2" stroke="black"></line><rect width="20" height="50" x="150.5" y="340" style="stroke: #000; stroke-width: 1; fill: none;"></rect><line x1="180.5" y1="350" x2="170.5" y2="350" stroke-width="2" stroke="black"></line><text x="168.5" y="350" font-size="10" font-family="sans-serif" text-anchor="end" alignment-baseline="middle">1</text><line x1="180.5" y1="360" x2="170.5" y2="360" stroke-width="2" stroke="black"></line><text x="168.5" y="360" font-size="10" font-family="sans-serif" text-anchor="end" alignment-baseline="middle">2</text><line x1="180.5" y1="370" x2="170.5" y2="370" stroke-width="2" stroke="black"></line><text x="168.5" y="370" font-size="10" font-family="sans-serif" text-anchor="end" alignment-baseline="middle">3</text><line x1="180.5" y1="380" x2="170.5" y2="380" stroke-width="2" stroke="black"></line><text x="168.5" y="380" font-size="10" font-family="sans-serif" text-anchor="end" alignment-baseline="middle">4</text><rect width="20" height="50" x="290.5" y="340" style="stroke: #000; stroke-width: 1; fill: none;"></rect><line x1="320.5" y1="350" x2="310.5" y2="350" stroke-width="2" stroke="black"></line><text x="308.5" y="350" font-size="10" font-family="sans-serif" text-anchor="end" alignment-baseline="middle">1</text><line x1="320.5" y1="360" x2="310.5" y2="360" stroke-width="2" stroke="black"></line><text x="308.5" y="360" font-size="10" font-family="sans-serif" text-anchor="end" alignment-baseline="middle">2</text><line x1="320.5" y1="370" x2="310.5" y2="370" stroke-width="2" stroke="black"></line><text x="308.5" y="370" font-size="10" font-family="sans-serif" text-anchor="end" alignment-baseline="middle">3</text><line x1="320.5" y1="380" x2="310.5" y2="380" stroke-width="2" stroke="black"></line><text x="308.5" y="380" font-size="10" font-family="sans-serif" text-anchor="end" alignment-baseline="middle">4</text><line x1="315.5" y1="60" x2="310.5" y2="60" stroke-width="2" stroke="black"></line><line x1="330.5" y1="60" x2="325.5" y2="63" stroke-width="2" stroke="black"></line><line x1="330.5" y1="60" x2="325.5" y2="57" stroke-width="2" stroke="black"></line><line x1="325.5" y1="63" x2="320.5" y2="63" stroke-width="2" stroke="black"></line><line x1="325.5" y1="57" x2="320.5" y2="57" stroke-width="2" stroke="black"></line><line x1="320.5" y1="63" x2="315.5" y2="60" stroke-width="2" stroke="black"></line><line x1="320.5" y1="57" x2="315.5" y2="60" stroke-width="2" stroke="black"></line><rect width="70" height="170" x="165.5" y="35" style="stroke: #000; stroke-width: 1; fill: none;"></rect><line x1="235.5" y1="50" x2="240.5" y2="50" stroke-width="2" stroke="black"></line><line x1="235.5" y1="70" x2="240.5" y2="70" stroke-width="2" stroke="black"></line><line x1="235.5" y1="90" x2="240.5" y2="90" stroke-width="2" stroke="black"></line><line x1="235.5" y1="110" x2="240.5" y2="110" stroke-width="2" stroke="black"></line><line x1="235.5" y1="130" x2="240.5" y2="130" stroke-width="2" stroke="black"></line><line x1="235.5" y1="150" x2="240.5" y2="150" stroke-width="2" stroke="black"></line><line x1="235.5" y1="170" x2="240.5" y2="170" stroke-width="2" stroke="black"></line><line x1="235.5" y1="190" x2="240.5" y2="190" stroke-width="2" stroke="black"></line><line x1="160.5" y1="50" x2="165.5" y2="50" stroke-width="2" stroke="black"></line><line x1="160.5" y1="70" x2="165.5" y2="70" stroke-width="2" stroke="black"></line><line x1="160.5" y1="90" x2="165.5" y2="90" stroke-width="2" stroke="black"></line><line x1="160.5" y1="110" x2="165.5" y2="110" stroke-width="2" stroke="black"></line><line x1="160.5" y1="130" x2="165.5" y2="130" stroke-width="2" stroke="black"></line><line x1="160.5" y1="150" x2="165.5" y2="150" stroke-width="2" stroke="black"></line><line x1="160.5" y1="170" x2="165.5" y2="170" stroke-width="2" stroke="black"></line><line x1="160.5" y1="190" x2="165.5" y2="190" stroke-width="2" stroke="black"></line><text x="172.5" y="50" font-size="10" font-family="sans-serif" text-anchor="start" alignment-baseline="middle">-12v</text><text x="172.5" y="70" font-size="10" font-family="sans-serif" text-anchor="start" alignment-baseline="middle">-12v</text><text x="172.5" y="90" font-size="10" font-family="sans-serif" text-anchor="start" alignment-baseline="middle">GND</text><text x="172.5" y="110" font-size="10" font-family="sans-serif" text-anchor="start" alignment-baseline="middle">GND</text><text x="172.5" y="130" font-size="10" font-family="sans-serif" text-anchor="start" alignment-baseline="middle">GND</text><text x="172.5" y="150" font-size="10" font-family="sans-serif" text-anchor="start" alignment-baseline="middle">GND</text><text x="172.5" y="170" font-size="10" font-family="sans-serif" text-anchor="start" alignment-baseline="middle">GND</text><text x="172.5" y="190" font-size="10" font-family="sans-serif" text-anchor="start" alignment-baseline="middle">GND</text><text x="228.5" y="190" font-size="10" font-family="sans-serif" text-anchor="end" alignment-baseline="middle">+12v</text><text x="228.5" y="170" font-size="10" font-family="sans-serif" text-anchor="end" alignment-baseline="middle">+12v</text><text x="228.5" y="150" font-size="10" font-family="sans-serif" text-anchor="end" alignment-baseline="middle">+5v</text><text x="228.5" y="130" font-size="10" font-family="sans-serif" text-anchor="end" alignment-baseline="middle">+5v</text><text x="228.5" y="110" font-size="10" font-family="sans-serif" text-anchor="end" alignment-baseline="middle">CV</text><text x="228.5" y="90" font-size="10" font-family="sans-serif" text-anchor="end" alignment-baseline="middle">CV</text><text x="228.5" y="70" font-size="10" font-family="sans-serif" text-anchor="end" alignment-baseline="middle">Gate</text><text x="228.5" y="50" font-size="10" font-family="sans-serif" text-anchor="end" alignment-baseline="middle">Gate</text><line x1="90.5" y1="60" x2="70.5" y2="60" stroke-width="2" stroke="black"></line><line x1="70.5" y1="60" x2="77.5" y2="67" stroke-width="2" stroke="black"></line><line x1="70.5" y1="60" x2="77.5" y2="53" stroke-width="2" stroke="black"></line><line x1="315.5" y1="100" x2="310.5" y2="100" stroke-width="2" stroke="black"></line><line x1="330.5" y1="100" x2="325.5" y2="103" stroke-width="2" stroke="black"></line><line x1="330.5" y1="100" x2="325.5" y2="97" stroke-width="2" stroke="black"></line><line x1="325.5" y1="103" x2="320.5" y2="103" stroke-width="2" stroke="black"></line><line x1="325.5" y1="97" x2="320.5" y2="97" stroke-width="2" stroke="black"></line><line x1="320.5" y1="103" x2="315.5" y2="100" stroke-width="2" stroke="black"></line><line x1="320.5" y1="97" x2="315.5" y2="100" stroke-width="2" stroke="black"></line><line x1="310.5" y1="140" x2="330.5" y2="140" stroke-width="2" stroke="black"></line><line x1="330.5" y1="140" x2="323.5" y2="133" stroke-width="2" stroke="black"></line><line x1="330.5" y1="140" x2="323.5" y2="147" stroke-width="2" stroke="black"></line><line x1="310.5" y1="180" x2="330.5" y2="180" stroke-width="2" stroke="black"></line><line x1="330.5" y1="180" x2="323.5" y2="173" stroke-width="2" stroke="black"></line><line x1="330.5" y1="180" x2="323.5" y2="187" stroke-width="2" stroke="black"></line><line x1="90.5" y1="230" x2="90.5" y2="240" stroke-width="2" stroke="black"></line><line x1="80.5" y1="240" x2="100.5" y2="240" stroke-width="2" stroke="black"></line><line x1="83.5" y1="245" x2="97.5" y2="245" stroke-width="2" stroke="black"></line><line x1="86.5" y1="250" x2="94.5" y2="250" stroke-width="2" stroke="black"></line><circle cx="60.5" cy="340" r="2" style="stroke: #000; stroke-width: 1; fill: none;"></circle><circle cx="200.5" cy="380" r="2" style="stroke: #000; stroke-width: 1; fill: none;"></circle><circle cx="340.5" cy="380" r="2" style="stroke: #000; stroke-width: 1; fill: none;"></circle><circle cx="200.5" cy="350" r="2" style="stroke: #000; stroke-width: 1; fill: none;"></circle><circle cx="340.5" cy="350" r="2" style="stroke: #000; stroke-width: 1; fill: none;"></circle><circle cx="60.5" cy="370" r="2" style="stroke: #000; stroke-width: 1; fill: none;"></circle><circle cx="90.5" cy="170" r="2" style="stroke: #000; stroke-width: 1; fill: none;"></circle><circle cx="90.5" cy="110" r="2" style="stroke: #000; stroke-width: 1; fill: none;"></circle><circle cx="90.5" cy="150" r="2" style="stroke: #000; stroke-width: 1; fill: none;"></circle><circle cx="280.5" cy="100" r="2" style="stroke: #000; stroke-width: 1; fill: none;"></circle><circle cx="120.5" cy="60" r="2" style="stroke: #000; stroke-width: 1; fill: none;"></circle><circle cx="90.5" cy="190" r="2" style="stroke: #000; stroke-width: 1; fill: none;"></circle><circle cx="280.5" cy="180" r="2" style="stroke: #000; stroke-width: 1; fill: none;"></circle><circle cx="280.5" cy="140" r="2" style="stroke: #000; stroke-width: 1; fill: none;"></circle><circle cx="90.5" cy="130" r="2" style="stroke: #000; stroke-width: 1; fill: none;"></circle><circle cx="280.5" cy="60" r="2" style="stroke: #000; stroke-width: 1; fill: none;"></circle><line x1="60.5" y1="340" x2="90.5" y2="340" stroke-width="2" stroke="black"></line><line x1="200.5" y1="380" x2="230.5" y2="380" stroke-width="2" stroke="black"></line><line x1="340.5" y1="380" x2="320.5" y2="380" stroke-width="2" stroke="black"></line><line x1="340.5" y1="380" x2="340.5" y2="370" stroke-width="2" stroke="black"></line><line x1="180.5" y1="380" x2="200.5" y2="380" stroke-width="2" stroke="black"></line><line x1="360.5" y1="380" x2="340.5" y2="380" stroke-width="2" stroke="black"></line><line x1="60.5" y1="350" x2="60.5" y2="340" stroke-width="2" stroke="black"></line><line x1="200.5" y1="350" x2="180.5" y2="350" stroke-width="2" stroke="black"></line><line x1="200.5" y1="350" x2="200.5" y2="320" stroke-width="2" stroke="black"></line><line x1="60.5" y1="360" x2="40.5" y2="360" stroke-width="2" stroke="black"></line><line x1="340.5" y1="350" x2="340.5" y2="360" stroke-width="2" stroke="black"></line><line x1="40.5" y1="350" x2="60.5" y2="350" stroke-width="2" stroke="black"></line><line x1="320.5" y1="350" x2="340.5" y2="350" stroke-width="2" stroke="black"></line><line x1="200.5" y1="360" x2="200.5" y2="350" stroke-width="2" stroke="black"></line><line x1="200.5" y1="360" x2="180.5" y2="360" stroke-width="2" stroke="black"></line><line x1="60.5" y1="370" x2="40.5" y2="370" stroke-width="2" stroke="black"></line><line x1="60.5" y1="370" x2="60.5" y2="400" stroke-width="2" stroke="black"></line><line x1="60.5" y1="370" x2="60.5" y2="360" stroke-width="2" stroke="black"></line><line x1="320.5" y1="360" x2="340.5" y2="360" stroke-width="2" stroke="black"></line><line x1="320.5" y1="370" x2="340.5" y2="370" stroke-width="2" stroke="black"></line><line x1="230.5" y1="320" x2="230.5" y2="380" stroke-width="2" stroke="black"></line><line x1="200.5" y1="370" x2="180.5" y2="370" stroke-width="2" stroke="black"></line><line x1="200.5" y1="370" x2="200.5" y2="380" stroke-width="2" stroke="black"></line><line x1="90.5" y1="400" x2="90.5" y2="340" stroke-width="2" stroke="black"></line><line x1="360.5" y1="350" x2="340.5" y2="350" stroke-width="2" stroke="black"></line><line x1="40.5" y1="340" x2="60.5" y2="340" stroke-width="2" stroke="black"></line><line x1="90.5" y1="170" x2="160.5" y2="170" stroke-width="2" stroke="black"></line><line x1="90.5" y1="90" x2="90.5" y2="110" stroke-width="2" stroke="black"></line><line x1="90.5" y1="90" x2="160.5" y2="90" stroke-width="2" stroke="black"></line><line x1="90.5" y1="150" x2="90.5" y2="170" stroke-width="2" stroke="black"></line><line x1="280.5" y1="50" x2="240.5" y2="50" stroke-width="2" stroke="black"></line><line x1="160.5" y1="150" x2="90.5" y2="150" stroke-width="2" stroke="black"></line><line x1="240.5" y1="170" x2="280.5" y2="170" stroke-width="2" stroke="black"></line><line x1="120.5" y1="60" x2="90.5" y2="60" stroke-width="2" stroke="black"></line><line x1="310.5" y1="100" x2="280.5" y2="100" stroke-width="2" stroke="black"></line><line x1="90.5" y1="190" x2="90.5" y2="170" stroke-width="2" stroke="black"></line><line x1="280.5" y1="180" x2="280.5" y2="170" stroke-width="2" stroke="black"></line><line x1="280.5" y1="150" x2="240.5" y2="150" stroke-width="2" stroke="black"></line><line x1="280.5" y1="140" x2="280.5" y2="150" stroke-width="2" stroke="black"></line><line x1="280.5" y1="140" x2="310.5" y2="140" stroke-width="2" stroke="black"></line><line x1="90.5" y1="130" x2="90.5" y2="150" stroke-width="2" stroke="black"></line><line x1="90.5" y1="130" x2="160.5" y2="130" stroke-width="2" stroke="black"></line><line x1="90.5" y1="130" x2="90.5" y2="110" stroke-width="2" stroke="black"></line><line x1="160.5" y1="110" x2="90.5" y2="110" stroke-width="2" stroke="black"></line><line x1="310.5" y1="180" x2="280.5" y2="180" stroke-width="2" stroke="black"></line><line x1="280.5" y1="90" x2="240.5" y2="90" stroke-width="2" stroke="black"></line><line x1="280.5" y1="90" x2="280.5" y2="100" stroke-width="2" stroke="black"></line><line x1="90.5" y1="230" x2="90.5" y2="190" stroke-width="2" stroke="black"></line><line x1="280.5" y1="60" x2="310.5" y2="60" stroke-width="2" stroke="black"></line><line x1="280.5" y1="60" x2="280.5" y2="50" stroke-width="2" stroke="black"></line><line x1="280.5" y1="70" x2="240.5" y2="70" stroke-width="2" stroke="black"></line><line x1="280.5" y1="70" x2="280.5" y2="60" stroke-width="2" stroke="black"></line><line x1="280.5" y1="130" x2="240.5" y2="130" stroke-width="2" stroke="black"></line><line x1="280.5" y1="130" x2="280.5" y2="140" stroke-width="2" stroke="black"></line><line x1="120.5" y1="70" x2="160.5" y2="70" stroke-width="2" stroke="black"></line><line x1="120.5" y1="70" x2="120.5" y2="60" stroke-width="2" stroke="black"></line><line x1="280.5" y1="110" x2="240.5" y2="110" stroke-width="2" stroke="black"></line><line x1="280.5" y1="110" x2="280.5" y2="100" stroke-width="2" stroke="black"></line><line x1="120.5" y1="50" x2="160.5" y2="50" stroke-width="2" stroke="black"></line><line x1="120.5" y1="50" x2="120.5" y2="60" stroke-width="2" stroke="black"></line><line x1="160.5" y1="190" x2="90.5" y2="190" stroke-width="2" stroke="black"></line><line x1="280.5" y1="190" x2="240.5" y2="190" stroke-width="2" stroke="black"></line><line x1="280.5" y1="190" x2="280.5" y2="180" stroke-width="2" stroke="black"></line></svg>