%FSLAX33Y33*%
%MOMM*%
%AMRect-W1500000-H1500000-RO1.500*
21,1,1.5,1.5,0.,0.,90*%
%AMRR-H1920000-W2520000-R960000-RO0.000*
21,1,0.6,1.92,0.,0.,360*
1,1,1.92,-0.3,0.*
1,1,1.92,0.3,0.*
1,1,1.92,0.3,-0.*
1,1,1.92,-0.3,0.*%
%AMRect-W1650000-H1650000-RO1.000*
21,1,1.65,1.65,0.,0.,180*%
%AMRect-W1900000-H1900000-RO1.500*
21,1,1.9,1.9,0.,0.,90*%
%ADD10C,0.0508*%
%ADD11C,0.508*%
%ADD12C,1.5*%
%ADD13Rect-W1500000-H1500000-RO1.500*%
%ADD14R,1.92X2.52*%
%ADD15RR-H1920000-W2520000-R960000-RO0.000*%
%ADD16C,1.65*%
%ADD17Rect-W1650000-H1650000-RO1.000*%
%ADD18C,1.9*%
%ADD19Rect-W1900000-H1900000-RO1.500*%
D10*
%LNpour fill*%
G01*
X30908Y15908D02*
X30908Y15908D01*
X29745Y15908*
X29727Y15803*
X30007Y15705*
X30007Y15705*
X30240Y15559*
X30240Y15559*
X30434Y15365*
X30434Y15365*
X30580Y15132*
X30580Y15132*
X30671Y14873*
X30671Y14873*
X30701Y14600*
X30701Y14600*
X30671Y14327*
X30671Y14327*
X30580Y14068*
X30580Y14068*
X30434Y13835*
X30434Y13835*
X30240Y13641*
X30240Y13641*
X30007Y13495*
X30007Y13495*
X29748Y13404*
X29748Y13404*
X29588Y13387*
X29588Y13273*
X29748Y13256*
X29748Y13256*
X30007Y13165*
X30007Y13165*
X30240Y13019*
X30240Y13019*
X30434Y12825*
X30434Y12825*
X30580Y12592*
X30580Y12592*
X30671Y12333*
X30671Y12333*
X30701Y12060*
X30701Y12060*
X30671Y11787*
X30671Y11787*
X30580Y11528*
X30580Y11528*
X30434Y11295*
X30434Y11295*
X30240Y11101*
X30240Y11101*
X30007Y10955*
X30007Y10955*
X29748Y10864*
X29748Y10864*
X29588Y10847*
X29588Y10733*
X29748Y10716*
X29748Y10716*
X30007Y10625*
X30007Y10625*
X30240Y10479*
X30240Y10479*
X30434Y10285*
X30434Y10285*
X30580Y10052*
X30580Y10052*
X30671Y9793*
X30671Y9793*
X30701Y9520*
X30701Y9520*
X30671Y9247*
X30671Y9247*
X30580Y8988*
X30580Y8988*
X30434Y8755*
X30434Y8755*
X30240Y8561*
X30240Y8561*
X30007Y8415*
X30007Y8415*
X29748Y8324*
X29748Y8324*
X29588Y8307*
X29588Y8193*
X29748Y8176*
X29748Y8176*
X30007Y8085*
X30007Y8085*
X30240Y7939*
X30240Y7939*
X30434Y7745*
X30434Y7745*
X30580Y7512*
X30580Y7512*
X30671Y7253*
X30671Y7253*
X30701Y6980*
X30701Y6980*
X30671Y6707*
X30671Y6707*
X30580Y6448*
X30580Y6448*
X30434Y6215*
X30434Y6215*
X30240Y6021*
X30240Y6021*
X30007Y5875*
X30007Y5875*
X29748Y5784*
X29748Y5784*
X29588Y5767*
X29588Y5653*
X29748Y5636*
X29748Y5636*
X30007Y5545*
X30007Y5545*
X30240Y5399*
X30240Y5399*
X30434Y5205*
X30434Y5205*
X30580Y4972*
X30580Y4972*
X30671Y4713*
X30671Y4713*
X30701Y4440*
X30701Y4440*
X30671Y4167*
X30671Y4167*
X30580Y3908*
X30580Y3908*
X30434Y3675*
X30434Y3675*
X30240Y3481*
X30240Y3481*
X30007Y3335*
X30007Y3335*
X29748Y3244*
X29748Y3244*
X29475Y3214*
X29475Y3214*
X29202Y3244*
X29202Y3244*
X28943Y3335*
X28943Y3335*
X28710Y3481*
X28710Y3481*
X28516Y3675*
X28516Y3675*
X28370Y3908*
X28370Y3908*
X28279Y4167*
X28279Y4167*
X28249Y4440*
X28249Y4440*
X28279Y4713*
X28279Y4713*
X28370Y4972*
X28370Y4972*
X28516Y5205*
X28516Y5205*
X28710Y5399*
X28710Y5399*
X28943Y5545*
X28943Y5545*
X29202Y5636*
X29202Y5636*
X29362Y5653*
X29362Y5767*
X29202Y5784*
X29202Y5784*
X28943Y5875*
X28943Y5875*
X28710Y6021*
X28710Y6021*
X28516Y6215*
X28516Y6215*
X28370Y6448*
X28370Y6448*
X28279Y6707*
X28279Y6707*
X28249Y6980*
X28249Y6980*
X28279Y7253*
X28279Y7253*
X28370Y7512*
X28370Y7512*
X28516Y7745*
X28516Y7745*
X28710Y7939*
X28710Y7939*
X28943Y8085*
X28943Y8085*
X29202Y8176*
X29202Y8176*
X29362Y8193*
X29362Y8307*
X29202Y8324*
X29202Y8324*
X28943Y8415*
X28943Y8415*
X28710Y8561*
X28710Y8561*
X28516Y8755*
X28516Y8755*
X28370Y8988*
X28370Y8988*
X28279Y9247*
X28279Y9247*
X28249Y9520*
X28249Y9520*
X28279Y9793*
X28279Y9793*
X28370Y10052*
X28370Y10052*
X28516Y10285*
X28516Y10285*
X28710Y10479*
X28710Y10479*
X28943Y10625*
X28943Y10625*
X29202Y10716*
X29202Y10716*
X29362Y10733*
X29362Y10847*
X29202Y10864*
X29202Y10864*
X28943Y10955*
X28943Y10955*
X28710Y11101*
X28710Y11101*
X28516Y11295*
X28516Y11295*
X28370Y11528*
X28370Y11528*
X28279Y11787*
X28279Y11787*
X28249Y12060*
X28249Y12060*
X28279Y12333*
X28279Y12333*
X28370Y12592*
X28370Y12592*
X28516Y12825*
X28516Y12825*
X28710Y13019*
X28710Y13019*
X28943Y13165*
X28943Y13165*
X29202Y13256*
X29202Y13256*
X29362Y13273*
X29362Y13387*
X29202Y13404*
X29202Y13404*
X28943Y13495*
X28943Y13495*
X28710Y13641*
X28710Y13641*
X28516Y13835*
X28516Y13835*
X28370Y14068*
X28370Y14068*
X28279Y14327*
X28279Y14327*
X28249Y14600*
X28249Y14600*
X28279Y14873*
X28279Y14873*
X28370Y15132*
X28370Y15132*
X28516Y15365*
X28516Y15365*
X28710Y15559*
X28710Y15559*
X28943Y15705*
X28943Y15705*
X29223Y15803*
X29205Y15908*
X18197Y15908*
X16355Y14527*
X16355Y14527*
X16341Y14518*
X16329Y14508*
X16329Y14508*
X16292Y14488*
X16256Y14466*
X16256Y14466*
X16241Y14461*
X16226Y14453*
X16226Y14453*
X16186Y14441*
X16147Y14427*
X16147Y14427*
X16131Y14424*
X16115Y14420*
X16115Y14420*
X16074Y14416*
X16032Y14409*
X16032Y14409*
X16016Y14410*
X16000Y14408*
X16000Y14408*
X9513Y14408*
X9485Y14320*
X9524Y14292*
X9524Y14292*
X9692Y14124*
X9692Y14124*
X9828Y13930*
X9828Y13930*
X9928Y13715*
X9928Y13715*
X9990Y13486*
X9990Y13486*
X10010Y13250*
X10010Y13250*
X9990Y13014*
X9990Y13014*
X9928Y12785*
X9928Y12785*
X9828Y12570*
X9828Y12570*
X9692Y12376*
X9692Y12376*
X9524Y12208*
X9524Y12208*
X9330Y12072*
X9330Y12072*
X9115Y11972*
X9115Y11972*
X8886Y11910*
X8886Y11910*
X8650Y11890*
X8650Y11890*
X8050Y11890*
X8050Y11890*
X7814Y11910*
X7814Y11910*
X7585Y11972*
X7585Y11972*
X7370Y12072*
X7370Y12072*
X7176Y12208*
X7176Y12208*
X7008Y12376*
X7008Y12376*
X6872Y12570*
X6872Y12570*
X6772Y12785*
X6772Y12785*
X6710Y13014*
X6710Y13014*
X6690Y13250*
X6690Y13250*
X6710Y13486*
X6710Y13486*
X6772Y13715*
X6772Y13715*
X6872Y13930*
X6872Y13930*
X7008Y14124*
X7008Y14124*
X7176Y14292*
X7176Y14292*
X7215Y14320*
X7187Y14408*
X3916Y14408*
X3893Y14312*
X4032Y14239*
X4032Y14239*
X4249Y14047*
X4249Y14047*
X4414Y13808*
X4414Y13808*
X4516Y13537*
X4516Y13537*
X4551Y13250*
X4551Y13250*
X4516Y12963*
X4516Y12963*
X4414Y12692*
X4414Y12692*
X4249Y12453*
X4249Y12453*
X4032Y12261*
X4032Y12261*
X3776Y12127*
X3776Y12127*
X3495Y12058*
X3495Y12058*
X3205Y12058*
X3205Y12058*
X2924Y12127*
X2924Y12127*
X2668Y12261*
X2668Y12261*
X2451Y12453*
X2451Y12453*
X2286Y12692*
X2286Y12692*
X2184Y12963*
X2184Y12963*
X2149Y13250*
X2149Y13250*
X2184Y13537*
X2184Y13537*
X2286Y13808*
X2286Y13808*
X2451Y14047*
X2451Y14047*
X2668Y14239*
X2668Y14239*
X2807Y14312*
X2784Y14408*
X0592Y14408*
X0592Y2092*
X2784Y2092*
X2807Y2188*
X2668Y2261*
X2668Y2261*
X2451Y2453*
X2451Y2453*
X2286Y2692*
X2286Y2692*
X2184Y2963*
X2184Y2963*
X2149Y3250*
X2149Y3250*
X2184Y3537*
X2184Y3537*
X2286Y3808*
X2286Y3808*
X2451Y4047*
X2451Y4047*
X2668Y4239*
X2668Y4239*
X2924Y4373*
X2924Y4373*
X3205Y4442*
X3205Y4442*
X3495Y4442*
X3495Y4442*
X3776Y4373*
X3776Y4373*
X4032Y4239*
X4032Y4239*
X4249Y4047*
X4249Y4047*
X4414Y3808*
X4414Y3808*
X4516Y3537*
X4516Y3537*
X4551Y3250*
X4551Y3250*
X4516Y2963*
X4516Y2963*
X4414Y2692*
X4414Y2692*
X4249Y2453*
X4249Y2453*
X4032Y2261*
X4032Y2261*
X3893Y2188*
X3916Y2092*
X7187Y2092*
X7215Y2180*
X7176Y2208*
X7176Y2208*
X7008Y2376*
X7008Y2376*
X6872Y2570*
X6872Y2570*
X6772Y2785*
X6772Y2785*
X6710Y3014*
X6710Y3014*
X6690Y3250*
X6690Y3250*
X6710Y3486*
X6710Y3486*
X6772Y3715*
X6772Y3715*
X6872Y3930*
X6872Y3930*
X7008Y4124*
X7008Y4124*
X7176Y4292*
X7176Y4292*
X7370Y4428*
X7370Y4428*
X7585Y4528*
X7585Y4528*
X7814Y4590*
X7814Y4590*
X8050Y4610*
X8050Y4610*
X8650Y4610*
X8650Y4610*
X8886Y4590*
X8886Y4590*
X9115Y4528*
X9115Y4528*
X9330Y4428*
X9330Y4428*
X9524Y4292*
X9524Y4292*
X9692Y4124*
X9692Y4124*
X9828Y3930*
X9828Y3930*
X9928Y3715*
X9928Y3715*
X9990Y3486*
X9990Y3486*
X10010Y3250*
X10010Y3250*
X9990Y3014*
X9990Y3014*
X9928Y2785*
X9928Y2785*
X9828Y2570*
X9828Y2570*
X9692Y2376*
X9692Y2376*
X9524Y2208*
X9524Y2208*
X9485Y2180*
X9513Y2092*
X16000Y2092*
X16000Y2092*
X16016Y2090*
X16032Y2091*
X16032Y2091*
X16074Y2084*
X16115Y2080*
X16115Y2080*
X16131Y2076*
X16147Y2073*
X16147Y2073*
X16186Y2059*
X16226Y2047*
X16226Y2047*
X16241Y2039*
X16256Y2034*
X16256Y2034*
X16292Y2012*
X16329Y1992*
X16329Y1992*
X16341Y1982*
X16355Y1973*
X16355Y1973*
X18197Y0592*
X30908Y0592*
X30908Y15908*
X23375Y11924D02*
X23074Y11958D01*
X22789Y12058*
X22533Y12219*
X22319Y12433*
X22158Y12689*
X22058Y12974*
X22024Y13275*
X22058Y13576*
X22158Y13861*
X22319Y14117*
X22533Y14331*
X22789Y14492*
X23074Y14592*
X23375Y14626*
X23676Y14592*
X23961Y14492*
X24217Y14331*
X24431Y14117*
X24592Y13861*
X24692Y13576*
X24726Y13275*
X24692Y12974*
X24592Y12689*
X24431Y12433*
X24217Y12219*
X23961Y12058*
X23676Y11958*
X23375Y11924*
X15250Y3470D02*
X13100Y3470D01*
X12972Y3483*
X12849Y3520*
X12736Y3580*
X12637Y3662*
X11337Y4962*
X11255Y5061*
X11195Y5174*
X11158Y5297*
X11145Y5425*
X11145Y8975*
X11158Y9103*
X11195Y9226*
X11255Y9339*
X11337Y9438*
X12523Y10625*
X12499Y10825*
X12532Y11100*
X12631Y11360*
X12788Y11588*
X12996Y11772*
X13242Y11901*
X13511Y11968*
X13789Y11968*
X14058Y11901*
X14304Y11772*
X14512Y11588*
X14669Y11360*
X14768Y11100*
X14801Y10825*
X14768Y10550*
X14669Y10290*
X14512Y10062*
X14304Y9878*
X14058Y9749*
X13789Y9682*
X13511Y9682*
X13449Y9698*
X13250Y9499*
X13298Y9415*
X13511Y9468*
X13789Y9468*
X14058Y9401*
X14304Y9272*
X14512Y9088*
X14669Y8860*
X14741Y8671*
X14845Y8690*
X14845Y9525*
X14858Y9653*
X14895Y9776*
X14955Y9889*
X15037Y9988*
X15807Y10758*
X15799Y10825*
X15832Y11100*
X15931Y11360*
X16088Y11588*
X16296Y11772*
X16542Y11901*
X16811Y11968*
X17089Y11968*
X17358Y11901*
X17604Y11772*
X17812Y11588*
X17969Y11360*
X18068Y11100*
X18101Y10825*
X18068Y10550*
X17969Y10290*
X17812Y10062*
X17604Y9878*
X17358Y9749*
X17089Y9682*
X16811Y9682*
X16629Y9727*
X16295Y9393*
X16359Y9305*
X16542Y9401*
X16811Y9468*
X17089Y9468*
X17358Y9401*
X17604Y9272*
X17812Y9088*
X17969Y8860*
X18068Y8600*
X18101Y8325*
X18068Y8050*
X17969Y7790*
X17812Y7562*
X17604Y7378*
X17358Y7249*
X17089Y7182*
X16811Y7182*
X16542Y7249*
X16296Y7378*
X16134Y7521*
X16105Y7424*
X16045Y7311*
X15963Y7212*
X14777Y6025*
X14801Y5825*
X14768Y5550*
X14669Y5290*
X14512Y5062*
X14286Y4862*
X14317Y4780*
X14979Y4780*
X15799Y5600*
X15799Y6575*
X15804Y6638*
X15819Y6699*
X15843Y6757*
X15876Y6811*
X15916Y6859*
X15964Y6899*
X16018Y6932*
X16076Y6956*
X16137Y6971*
X16200Y6976*
X17700Y6976*
X17763Y6971*
X17824Y6956*
X17882Y6932*
X17936Y6899*
X17984Y6859*
X18024Y6811*
X18057Y6757*
X18081Y6699*
X18096Y6638*
X18101Y6575*
X18101Y5075*
X18096Y5012*
X18081Y4951*
X18057Y4893*
X18024Y4839*
X17984Y4791*
X17936Y4751*
X17882Y4718*
X17824Y4694*
X17763Y4679*
X17700Y4674*
X16725Y4674*
X15713Y3662*
X15614Y3580*
X15501Y3520*
X15378Y3483*
X15250Y3470*
X4310Y6589D02*
X3550Y6589D01*
X3550Y7090*
X3150Y7090*
X3150Y6589*
X2390Y6589*
X2327Y6594*
X2266Y6609*
X2208Y6633*
X2154Y6666*
X2106Y6706*
X2066Y6754*
X2033Y6808*
X2009Y6866*
X1994Y6927*
X1989Y6990*
X1989Y8050*
X2490Y8050*
X2490Y8450*
X1989Y8450*
X1989Y9510*
X1994Y9573*
X2009Y9634*
X2033Y9692*
X2066Y9746*
X2106Y9794*
X2154Y9834*
X2208Y9867*
X2266Y9891*
X2327Y9906*
X2390Y9911*
X3150Y9911*
X3150Y9410*
X3550Y9410*
X3550Y9911*
X4310Y9911*
X4373Y9906*
X4434Y9891*
X4492Y9867*
X4546Y9834*
X4594Y9794*
X4634Y9746*
X4667Y9692*
X4691Y9634*
X4706Y9573*
X4711Y9510*
X4711Y8450*
X4210Y8450*
X4210Y8050*
X4711Y8050*
X4711Y6990*
X4706Y6927*
X4691Y6866*
X4667Y6808*
X4634Y6754*
X4594Y6706*
X4546Y6666*
X4492Y6633*
X4434Y6609*
X4373Y6594*
X4310Y6589*
X23375Y6924D02*
X23074Y6958D01*
X22789Y7058*
X22533Y7219*
X22319Y7433*
X22158Y7689*
X22058Y7974*
X22024Y8275*
X22058Y8576*
X22158Y8861*
X22319Y9117*
X22533Y9331*
X22789Y9492*
X23074Y9592*
X23375Y9626*
X23676Y9592*
X23961Y9492*
X24217Y9331*
X24431Y9117*
X24592Y8861*
X24692Y8576*
X24726Y8275*
X24692Y7974*
X24592Y7689*
X24431Y7433*
X24217Y7219*
X23961Y7058*
X23676Y6958*
X23375Y6924*
X8495Y7058D02*
X8205Y7058D01*
X7924Y7127*
X7668Y7262*
X7451Y7454*
X7287Y7692*
X7184Y7963*
X7149Y8250*
X7184Y8537*
X7287Y8808*
X7451Y9046*
X7668Y9238*
X7924Y9373*
X8205Y9442*
X8495Y9442*
X8776Y9373*
X9032Y9238*
X9249Y9046*
X9413Y8808*
X9516Y8537*
X9551Y8250*
X9516Y7963*
X9413Y7692*
X9249Y7454*
X9032Y7262*
X8776Y7127*
X8495Y7058*
X18131Y0641D02*
X30909Y0641D01*
X18065Y0691D02*
X30909Y0691D01*
X17999Y0740D02*
X30909Y0740D01*
X17933Y0790D02*
X30909Y0790D01*
X17867Y0839D02*
X30909Y0839D01*
X17801Y0889D02*
X30909Y0889D01*
X17735Y0938D02*
X30909Y0938D01*
X17669Y0988D02*
X30909Y0988D01*
X17603Y1037D02*
X30909Y1037D01*
X17537Y1087D02*
X30909Y1087D01*
X17471Y1136D02*
X30909Y1136D01*
X17405Y1186D02*
X30909Y1186D01*
X17339Y1235D02*
X30909Y1235D01*
X17273Y1285D02*
X30909Y1285D01*
X17207Y1334D02*
X30909Y1334D01*
X17141Y1384D02*
X30909Y1384D01*
X17074Y1434D02*
X30909Y1434D01*
X17008Y1483D02*
X30909Y1483D01*
X16942Y1533D02*
X30909Y1533D01*
X16876Y1582D02*
X30909Y1582D01*
X16810Y1632D02*
X30909Y1632D01*
X16744Y1681D02*
X30909Y1681D01*
X16678Y1731D02*
X30909Y1731D01*
X16612Y1780D02*
X30909Y1780D01*
X16546Y1830D02*
X30909Y1830D01*
X16480Y1879D02*
X30909Y1879D01*
X16414Y1929D02*
X30909Y1929D01*
X16346Y1978D02*
X30909Y1978D01*
X16265Y2028D02*
X30909Y2028D01*
X16124Y2077D02*
X30909Y2077D01*
X0592Y2127D02*
X2793Y2127D01*
X3907Y2127D02*
X7199Y2127D01*
X9501Y2127D02*
X30909Y2127D01*
X0592Y2176D02*
X2805Y2176D01*
X3895Y2176D02*
X7214Y2176D01*
X9486Y2176D02*
X30909Y2176D01*
X0592Y2226D02*
X2736Y2226D01*
X3964Y2226D02*
X7158Y2226D01*
X9542Y2226D02*
X30909Y2226D01*
X0592Y2276D02*
X2652Y2276D01*
X4048Y2276D02*
X7108Y2276D01*
X9592Y2276D02*
X30909Y2276D01*
X0592Y2325D02*
X2596Y2325D01*
X4104Y2325D02*
X7059Y2325D01*
X9641Y2325D02*
X30909Y2325D01*
X0592Y2375D02*
X2540Y2375D01*
X4160Y2375D02*
X7009Y2375D01*
X9691Y2375D02*
X30909Y2375D01*
X0592Y2424D02*
X2484Y2424D01*
X4216Y2424D02*
X6974Y2424D01*
X9726Y2424D02*
X30909Y2424D01*
X0592Y2474D02*
X2437Y2474D01*
X4263Y2474D02*
X6940Y2474D01*
X9760Y2474D02*
X30909Y2474D01*
X0592Y2523D02*
X2403Y2523D01*
X4297Y2523D02*
X6905Y2523D01*
X9795Y2523D02*
X30909Y2523D01*
X0592Y2573D02*
X2369Y2573D01*
X4331Y2573D02*
X6871Y2573D01*
X9829Y2573D02*
X30909Y2573D01*
X0592Y2622D02*
X2335Y2622D01*
X4365Y2622D02*
X6848Y2622D01*
X9852Y2622D02*
X30909Y2622D01*
X0592Y2672D02*
X2300Y2672D01*
X4400Y2672D02*
X6825Y2672D01*
X9875Y2672D02*
X30909Y2672D01*
X0592Y2721D02*
X2275Y2721D01*
X4425Y2721D02*
X6802Y2721D01*
X9898Y2721D02*
X30909Y2721D01*
X0592Y2771D02*
X2257Y2771D01*
X4443Y2771D02*
X6779Y2771D01*
X9921Y2771D02*
X30909Y2771D01*
X0592Y2820D02*
X2238Y2820D01*
X4462Y2820D02*
X6763Y2820D01*
X9937Y2820D02*
X30909Y2820D01*
X0592Y2870D02*
X2219Y2870D01*
X4481Y2870D02*
X6749Y2870D01*
X9951Y2870D02*
X30909Y2870D01*
X0592Y2919D02*
X2200Y2919D01*
X4500Y2919D02*
X6736Y2919D01*
X9964Y2919D02*
X30909Y2919D01*
X0592Y2969D02*
X2183Y2969D01*
X4517Y2969D02*
X6723Y2969D01*
X9977Y2969D02*
X30909Y2969D01*
X0592Y3018D02*
X2177Y3018D01*
X4523Y3018D02*
X6710Y3018D01*
X9990Y3018D02*
X30909Y3018D01*
X0592Y3068D02*
X2171Y3068D01*
X4529Y3068D02*
X6706Y3068D01*
X9994Y3068D02*
X30909Y3068D01*
X0592Y3118D02*
X2165Y3118D01*
X4535Y3118D02*
X6702Y3118D01*
X9998Y3118D02*
X30909Y3118D01*
X0592Y3167D02*
X2159Y3167D01*
X4541Y3167D02*
X6697Y3167D01*
X10003Y3167D02*
X30909Y3167D01*
X0592Y3217D02*
X2153Y3217D01*
X4547Y3217D02*
X6693Y3217D01*
X10007Y3217D02*
X29452Y3217D01*
X29498Y3217D02*
X30909Y3217D01*
X0592Y3266D02*
X2151Y3266D01*
X4549Y3266D02*
X6691Y3266D01*
X10009Y3266D02*
X29141Y3266D01*
X29809Y3266D02*
X30909Y3266D01*
X0592Y3316D02*
X2157Y3316D01*
X4543Y3316D02*
X6696Y3316D01*
X10004Y3316D02*
X29000Y3316D01*
X29950Y3316D02*
X30909Y3316D01*
X0592Y3365D02*
X2163Y3365D01*
X4537Y3365D02*
X6700Y3365D01*
X10000Y3365D02*
X28896Y3365D01*
X30054Y3365D02*
X30909Y3365D01*
X0592Y3415D02*
X2169Y3415D01*
X4531Y3415D02*
X6704Y3415D01*
X9996Y3415D02*
X28817Y3415D01*
X30133Y3415D02*
X30909Y3415D01*
X0592Y3464D02*
X2175Y3464D01*
X4525Y3464D02*
X6709Y3464D01*
X9991Y3464D02*
X28738Y3464D01*
X30212Y3464D02*
X30909Y3464D01*
X0592Y3514D02*
X2181Y3514D01*
X4519Y3514D02*
X6718Y3514D01*
X9982Y3514D02*
X12869Y3514D01*
X15481Y3514D02*
X28678Y3514D01*
X30272Y3514D02*
X30909Y3514D01*
X0592Y3563D02*
X2194Y3563D01*
X4506Y3563D02*
X6731Y3563D01*
X9969Y3563D02*
X12768Y3563D01*
X15582Y3563D02*
X28629Y3563D01*
X30321Y3563D02*
X30909Y3563D01*
X0592Y3613D02*
X2212Y3613D01*
X4488Y3613D02*
X6745Y3613D01*
X9955Y3613D02*
X12696Y3613D01*
X15654Y3613D02*
X28579Y3613D01*
X30371Y3613D02*
X30909Y3613D01*
X0592Y3662D02*
X2231Y3662D01*
X4469Y3662D02*
X6758Y3662D01*
X9942Y3662D02*
X12636Y3662D01*
X15714Y3662D02*
X28530Y3662D01*
X30420Y3662D02*
X30909Y3662D01*
X0592Y3712D02*
X2250Y3712D01*
X4450Y3712D02*
X6771Y3712D01*
X9929Y3712D02*
X12586Y3712D01*
X15764Y3712D02*
X28494Y3712D01*
X30456Y3712D02*
X30909Y3712D01*
X0592Y3761D02*
X2269Y3761D01*
X4431Y3761D02*
X6794Y3761D01*
X9906Y3761D02*
X12537Y3761D01*
X15813Y3761D02*
X28463Y3761D01*
X30487Y3761D02*
X30909Y3761D01*
X0592Y3811D02*
X2289Y3811D01*
X4411Y3811D02*
X6817Y3811D01*
X9883Y3811D02*
X12487Y3811D01*
X15863Y3811D02*
X28431Y3811D01*
X30519Y3811D02*
X30909Y3811D01*
X0592Y3860D02*
X2323Y3860D01*
X4377Y3860D02*
X6840Y3860D01*
X9860Y3860D02*
X12438Y3860D01*
X15912Y3860D02*
X28400Y3860D01*
X30550Y3860D02*
X30909Y3860D01*
X0592Y3910D02*
X2357Y3910D01*
X4343Y3910D02*
X6863Y3910D01*
X9837Y3910D02*
X12388Y3910D01*
X15962Y3910D02*
X28370Y3910D01*
X30580Y3910D02*
X30909Y3910D01*
X0592Y3960D02*
X2391Y3960D01*
X4309Y3960D02*
X6893Y3960D01*
X9807Y3960D02*
X12339Y3960D01*
X16011Y3960D02*
X28352Y3960D01*
X30598Y3960D02*
X30909Y3960D01*
X0592Y4009D02*
X2425Y4009D01*
X4275Y4009D02*
X6928Y4009D01*
X9772Y4009D02*
X12289Y4009D01*
X16061Y4009D02*
X28335Y4009D01*
X30615Y4009D02*
X30909Y4009D01*
X0592Y4059D02*
X2465Y4059D01*
X4235Y4059D02*
X6962Y4059D01*
X9738Y4059D02*
X12240Y4059D01*
X16110Y4059D02*
X28318Y4059D01*
X30632Y4059D02*
X30909Y4059D01*
X0592Y4108D02*
X2521Y4108D01*
X4179Y4108D02*
X6997Y4108D01*
X9703Y4108D02*
X12190Y4108D01*
X16160Y4108D02*
X28300Y4108D01*
X30650Y4108D02*
X30909Y4108D01*
X0592Y4158D02*
X2577Y4158D01*
X4123Y4158D02*
X7042Y4158D01*
X9658Y4158D02*
X12141Y4158D01*
X16209Y4158D02*
X28283Y4158D01*
X30667Y4158D02*
X30909Y4158D01*
X0592Y4207D02*
X2633Y4207D01*
X4067Y4207D02*
X7091Y4207D01*
X9609Y4207D02*
X12091Y4207D01*
X16259Y4207D02*
X28275Y4207D01*
X30675Y4207D02*
X30909Y4207D01*
X0592Y4257D02*
X2703Y4257D01*
X3997Y4257D02*
X7141Y4257D01*
X9559Y4257D02*
X12042Y4257D01*
X16308Y4257D02*
X28270Y4257D01*
X30680Y4257D02*
X30909Y4257D01*
X0592Y4306D02*
X2797Y4306D01*
X3903Y4306D02*
X7196Y4306D01*
X9504Y4306D02*
X11992Y4306D01*
X16358Y4306D02*
X28264Y4306D01*
X30686Y4306D02*
X30909Y4306D01*
X0592Y4356D02*
X2891Y4356D01*
X3809Y4356D02*
X7267Y4356D01*
X9433Y4356D02*
X11943Y4356D01*
X16407Y4356D02*
X28258Y4356D01*
X30692Y4356D02*
X30909Y4356D01*
X0592Y4405D02*
X3055Y4405D01*
X3645Y4405D02*
X7338Y4405D01*
X9362Y4405D02*
X11893Y4405D01*
X16457Y4405D02*
X28253Y4405D01*
X30697Y4405D02*
X30909Y4405D01*
X0592Y4455D02*
X7428Y4455D01*
X9272Y4455D02*
X11843Y4455D01*
X16507Y4455D02*
X28251Y4455D01*
X30699Y4455D02*
X30909Y4455D01*
X0592Y4504D02*
X7534Y4504D01*
X9166Y4504D02*
X11794Y4504D01*
X16556Y4504D02*
X28256Y4504D01*
X30694Y4504D02*
X30909Y4504D01*
X0592Y4554D02*
X7682Y4554D01*
X9018Y4554D02*
X11744Y4554D01*
X16606Y4554D02*
X28262Y4554D01*
X30688Y4554D02*
X30909Y4554D01*
X0592Y4603D02*
X7975Y4603D01*
X8725Y4603D02*
X11695Y4603D01*
X16655Y4603D02*
X28267Y4603D01*
X30683Y4603D02*
X30909Y4603D01*
X0592Y4653D02*
X11645Y4653D01*
X16705Y4653D02*
X28273Y4653D01*
X30677Y4653D02*
X30909Y4653D01*
X0592Y4702D02*
X11596Y4702D01*
X17846Y4702D02*
X28279Y4702D01*
X30671Y4702D02*
X30909Y4702D01*
X0592Y4752D02*
X11546Y4752D01*
X17938Y4752D02*
X28293Y4752D01*
X30657Y4752D02*
X30909Y4752D01*
X0592Y4802D02*
X11497Y4802D01*
X14309Y4802D02*
X15000Y4802D01*
X17993Y4802D02*
X28311Y4802D01*
X30639Y4802D02*
X30909Y4802D01*
X0592Y4851D02*
X11447Y4851D01*
X14290Y4851D02*
X15049Y4851D01*
X18032Y4851D02*
X28328Y4851D01*
X30622Y4851D02*
X30909Y4851D01*
X0592Y4901D02*
X11398Y4901D01*
X14330Y4901D02*
X15099Y4901D01*
X18061Y4901D02*
X28345Y4901D01*
X30605Y4901D02*
X30909Y4901D01*
X0592Y4950D02*
X11348Y4950D01*
X14386Y4950D02*
X15148Y4950D01*
X18081Y4950D02*
X28363Y4950D01*
X30587Y4950D02*
X30909Y4950D01*
X0592Y5000D02*
X11305Y5000D01*
X14442Y5000D02*
X15198Y5000D01*
X18093Y5000D02*
X28388Y5000D01*
X30562Y5000D02*
X30909Y5000D01*
X0592Y5049D02*
X11265Y5049D01*
X14498Y5049D02*
X15248Y5049D01*
X18099Y5049D02*
X28419Y5049D01*
X30531Y5049D02*
X30909Y5049D01*
X0592Y5099D02*
X11235Y5099D01*
X14537Y5099D02*
X15297Y5099D01*
X18101Y5099D02*
X28450Y5099D01*
X30500Y5099D02*
X30909Y5099D01*
X0592Y5148D02*
X11209Y5148D01*
X14572Y5148D02*
X15347Y5148D01*
X18101Y5148D02*
X28481Y5148D01*
X30469Y5148D02*
X30909Y5148D01*
X0592Y5198D02*
X11187Y5198D01*
X14606Y5198D02*
X15396Y5198D01*
X18101Y5198D02*
X28512Y5198D01*
X30438Y5198D02*
X30909Y5198D01*
X0592Y5247D02*
X11172Y5247D01*
X14640Y5247D02*
X15446Y5247D01*
X18101Y5247D02*
X28559Y5247D01*
X30391Y5247D02*
X30909Y5247D01*
X0592Y5297D02*
X11157Y5297D01*
X14672Y5297D02*
X15495Y5297D01*
X18101Y5297D02*
X28609Y5297D01*
X30341Y5297D02*
X30909Y5297D01*
X0592Y5346D02*
X11152Y5346D01*
X14691Y5346D02*
X15545Y5346D01*
X18101Y5346D02*
X28658Y5346D01*
X30292Y5346D02*
X30909Y5346D01*
X0592Y5396D02*
X11148Y5396D01*
X14710Y5396D02*
X15594Y5396D01*
X18101Y5396D02*
X28708Y5396D01*
X30242Y5396D02*
X30909Y5396D01*
X0592Y5445D02*
X11145Y5445D01*
X14728Y5445D02*
X15644Y5445D01*
X18101Y5445D02*
X28785Y5445D01*
X30165Y5445D02*
X30909Y5445D01*
X0592Y5495D02*
X11145Y5495D01*
X14747Y5495D02*
X15693Y5495D01*
X18101Y5495D02*
X28864Y5495D01*
X30086Y5495D02*
X30909Y5495D01*
X0592Y5545D02*
X11145Y5545D01*
X14766Y5545D02*
X15743Y5545D01*
X18101Y5545D02*
X28943Y5545D01*
X30007Y5545D02*
X30909Y5545D01*
X0592Y5594D02*
X11145Y5594D01*
X14773Y5594D02*
X15792Y5594D01*
X18101Y5594D02*
X29084Y5594D01*
X29866Y5594D02*
X30909Y5594D01*
X0592Y5644D02*
X11145Y5644D01*
X14779Y5644D02*
X15799Y5644D01*
X18101Y5644D02*
X29276Y5644D01*
X29674Y5644D02*
X30909Y5644D01*
X0592Y5693D02*
X11145Y5693D01*
X14785Y5693D02*
X15799Y5693D01*
X18101Y5693D02*
X29362Y5693D01*
X29588Y5693D02*
X30909Y5693D01*
X0592Y5743D02*
X11145Y5743D01*
X14791Y5743D02*
X15799Y5743D01*
X18101Y5743D02*
X29362Y5743D01*
X29588Y5743D02*
X30909Y5743D01*
X0592Y5792D02*
X11145Y5792D01*
X14797Y5792D02*
X15799Y5792D01*
X18101Y5792D02*
X29181Y5792D01*
X29769Y5792D02*
X30909Y5792D01*
X0592Y5842D02*
X11145Y5842D01*
X14799Y5842D02*
X15799Y5842D01*
X18101Y5842D02*
X29039Y5842D01*
X29911Y5842D02*
X30909Y5842D01*
X0592Y5891D02*
X11145Y5891D01*
X14793Y5891D02*
X15799Y5891D01*
X18101Y5891D02*
X28918Y5891D01*
X30032Y5891D02*
X30909Y5891D01*
X0592Y5941D02*
X11145Y5941D01*
X14787Y5941D02*
X15799Y5941D01*
X18101Y5941D02*
X28839Y5941D01*
X30111Y5941D02*
X30909Y5941D01*
X0592Y5990D02*
X11145Y5990D01*
X14781Y5990D02*
X15799Y5990D01*
X18101Y5990D02*
X28760Y5990D01*
X30190Y5990D02*
X30909Y5990D01*
X0592Y6040D02*
X11145Y6040D01*
X14791Y6040D02*
X15799Y6040D01*
X18101Y6040D02*
X28692Y6040D01*
X30258Y6040D02*
X30909Y6040D01*
X0592Y6089D02*
X11145Y6089D01*
X14841Y6089D02*
X15799Y6089D01*
X18101Y6089D02*
X28643Y6089D01*
X30307Y6089D02*
X30909Y6089D01*
X0592Y6139D02*
X11145Y6139D01*
X14891Y6139D02*
X15799Y6139D01*
X18101Y6139D02*
X28593Y6139D01*
X30357Y6139D02*
X30909Y6139D01*
X0592Y6188D02*
X11145Y6188D01*
X14940Y6188D02*
X15799Y6188D01*
X18101Y6188D02*
X28544Y6188D01*
X30406Y6188D02*
X30909Y6188D01*
X0592Y6238D02*
X11145Y6238D01*
X14990Y6238D02*
X15799Y6238D01*
X18101Y6238D02*
X28502Y6238D01*
X30448Y6238D02*
X30909Y6238D01*
X0592Y6287D02*
X11145Y6287D01*
X15039Y6287D02*
X15799Y6287D01*
X18101Y6287D02*
X28471Y6287D01*
X30479Y6287D02*
X30909Y6287D01*
X0592Y6337D02*
X11145Y6337D01*
X15089Y6337D02*
X15799Y6337D01*
X18101Y6337D02*
X28440Y6337D01*
X30510Y6337D02*
X30909Y6337D01*
X0592Y6387D02*
X11145Y6387D01*
X15138Y6387D02*
X15799Y6387D01*
X18101Y6387D02*
X28409Y6387D01*
X30541Y6387D02*
X30909Y6387D01*
X0592Y6436D02*
X11145Y6436D01*
X15188Y6436D02*
X15799Y6436D01*
X18101Y6436D02*
X28378Y6436D01*
X30572Y6436D02*
X30909Y6436D01*
X0592Y6486D02*
X11145Y6486D01*
X15237Y6486D02*
X15799Y6486D01*
X18101Y6486D02*
X28357Y6486D01*
X30593Y6486D02*
X30909Y6486D01*
X0592Y6535D02*
X11145Y6535D01*
X15287Y6535D02*
X15799Y6535D01*
X18101Y6535D02*
X28340Y6535D01*
X30610Y6535D02*
X30909Y6535D01*
X0592Y6585D02*
X11145Y6585D01*
X15336Y6585D02*
X15800Y6585D01*
X18100Y6585D02*
X28323Y6585D01*
X30627Y6585D02*
X30909Y6585D01*
X0592Y6634D02*
X2205Y6634D01*
X3150Y6634D02*
X3550Y6634D01*
X4495Y6634D02*
X11145Y6634D01*
X15386Y6634D02*
X15803Y6634D01*
X18097Y6634D02*
X28305Y6634D01*
X30645Y6634D02*
X30909Y6634D01*
X0592Y6684D02*
X2133Y6684D01*
X3150Y6684D02*
X3550Y6684D01*
X4567Y6684D02*
X11145Y6684D01*
X15435Y6684D02*
X15815Y6684D01*
X18085Y6684D02*
X28288Y6684D01*
X30662Y6684D02*
X30909Y6684D01*
X0592Y6733D02*
X2083Y6733D01*
X3150Y6733D02*
X3550Y6733D01*
X4617Y6733D02*
X11145Y6733D01*
X15485Y6733D02*
X15833Y6733D01*
X18067Y6733D02*
X28277Y6733D01*
X30673Y6733D02*
X30909Y6733D01*
X0592Y6783D02*
X2048Y6783D01*
X3150Y6783D02*
X3550Y6783D01*
X4652Y6783D02*
X11145Y6783D01*
X15534Y6783D02*
X15858Y6783D01*
X18042Y6783D02*
X28271Y6783D01*
X30679Y6783D02*
X30909Y6783D01*
X0592Y6832D02*
X2022Y6832D01*
X3150Y6832D02*
X3550Y6832D01*
X4678Y6832D02*
X11145Y6832D01*
X15584Y6832D02*
X15894Y6832D01*
X18006Y6832D02*
X28266Y6832D01*
X30684Y6832D02*
X30909Y6832D01*
X0592Y6882D02*
X2005Y6882D01*
X3150Y6882D02*
X3550Y6882D01*
X4695Y6882D02*
X11145Y6882D01*
X15633Y6882D02*
X15943Y6882D01*
X17957Y6882D02*
X28260Y6882D01*
X30690Y6882D02*
X30909Y6882D01*
X0592Y6931D02*
X1993Y6931D01*
X3150Y6931D02*
X3550Y6931D01*
X4707Y6931D02*
X11145Y6931D01*
X15683Y6931D02*
X16016Y6931D01*
X17884Y6931D02*
X23308Y6931D01*
X23442Y6931D02*
X28254Y6931D01*
X30696Y6931D02*
X30909Y6931D01*
X0592Y6981D02*
X1989Y6981D01*
X3150Y6981D02*
X3550Y6981D01*
X4711Y6981D02*
X11145Y6981D01*
X15733Y6981D02*
X23008Y6981D01*
X23742Y6981D02*
X28249Y6981D01*
X30701Y6981D02*
X30909Y6981D01*
X0592Y7030D02*
X1989Y7030D01*
X3150Y7030D02*
X3550Y7030D01*
X4711Y7030D02*
X11145Y7030D01*
X15782Y7030D02*
X22866Y7030D01*
X23884Y7030D02*
X28255Y7030D01*
X30695Y7030D02*
X30909Y7030D01*
X0592Y7080D02*
X1989Y7080D01*
X3150Y7080D02*
X3550Y7080D01*
X4711Y7080D02*
X8114Y7080D01*
X8586Y7080D02*
X11145Y7080D01*
X15832Y7080D02*
X22753Y7080D01*
X23997Y7080D02*
X28260Y7080D01*
X30690Y7080D02*
X30909Y7080D01*
X0592Y7129D02*
X1989Y7129D01*
X4711Y7129D02*
X7919Y7129D01*
X8781Y7129D02*
X11145Y7129D01*
X15881Y7129D02*
X22674Y7129D01*
X24076Y7129D02*
X28266Y7129D01*
X30684Y7129D02*
X30909Y7129D01*
X0592Y7179D02*
X1989Y7179D01*
X4711Y7179D02*
X7825Y7179D01*
X8875Y7179D02*
X11145Y7179D01*
X15931Y7179D02*
X22595Y7179D01*
X24155Y7179D02*
X28271Y7179D01*
X30679Y7179D02*
X30909Y7179D01*
X0592Y7229D02*
X1989Y7229D01*
X4711Y7229D02*
X7730Y7229D01*
X8970Y7229D02*
X11145Y7229D01*
X15977Y7229D02*
X16623Y7229D01*
X17277Y7229D02*
X22523Y7229D01*
X24227Y7229D02*
X28277Y7229D01*
X30673Y7229D02*
X30909Y7229D01*
X0592Y7278D02*
X1989Y7278D01*
X4711Y7278D02*
X7649Y7278D01*
X9051Y7278D02*
X11145Y7278D01*
X16018Y7278D02*
X16486Y7278D01*
X17414Y7278D02*
X22473Y7278D01*
X24277Y7278D02*
X28289Y7278D01*
X30661Y7278D02*
X30909Y7278D01*
X0592Y7328D02*
X1989Y7328D01*
X4711Y7328D02*
X7593Y7328D01*
X9107Y7328D02*
X11145Y7328D01*
X16054Y7328D02*
X16391Y7328D01*
X17509Y7328D02*
X22423Y7328D01*
X24327Y7328D02*
X28306Y7328D01*
X30644Y7328D02*
X30909Y7328D01*
X0592Y7377D02*
X1989Y7377D01*
X4711Y7377D02*
X7537Y7377D01*
X9163Y7377D02*
X11145Y7377D01*
X16080Y7377D02*
X16297Y7377D01*
X17603Y7377D02*
X22374Y7377D01*
X24376Y7377D02*
X28323Y7377D01*
X30627Y7377D02*
X30909Y7377D01*
X0592Y7427D02*
X1989Y7427D01*
X4711Y7427D02*
X7481Y7427D01*
X9219Y7427D02*
X11145Y7427D01*
X16106Y7427D02*
X16241Y7427D01*
X17659Y7427D02*
X22324Y7427D01*
X24426Y7427D02*
X28341Y7427D01*
X30609Y7427D02*
X30909Y7427D01*
X0592Y7476D02*
X1989Y7476D01*
X4711Y7476D02*
X7435Y7476D01*
X9265Y7476D02*
X11145Y7476D01*
X16121Y7476D02*
X16185Y7476D01*
X17715Y7476D02*
X22291Y7476D01*
X24459Y7476D02*
X28358Y7476D01*
X30592Y7476D02*
X30909Y7476D01*
X0592Y7526D02*
X1989Y7526D01*
X4711Y7526D02*
X7401Y7526D01*
X9299Y7526D02*
X11145Y7526D01*
X17771Y7526D02*
X22260Y7526D01*
X24490Y7526D02*
X28379Y7526D01*
X30571Y7526D02*
X30909Y7526D01*
X0592Y7575D02*
X1989Y7575D01*
X4711Y7575D02*
X7367Y7575D01*
X9333Y7575D02*
X11145Y7575D01*
X17821Y7575D02*
X22229Y7575D01*
X24521Y7575D02*
X28410Y7575D01*
X30540Y7575D02*
X30909Y7575D01*
X0592Y7625D02*
X1989Y7625D01*
X4711Y7625D02*
X7333Y7625D01*
X9367Y7625D02*
X11145Y7625D01*
X17855Y7625D02*
X22198Y7625D01*
X24552Y7625D02*
X28441Y7625D01*
X30509Y7625D02*
X30909Y7625D01*
X0592Y7674D02*
X1989Y7674D01*
X4711Y7674D02*
X7298Y7674D01*
X9402Y7674D02*
X11145Y7674D01*
X17890Y7674D02*
X22167Y7674D01*
X24583Y7674D02*
X28472Y7674D01*
X30478Y7674D02*
X30909Y7674D01*
X0592Y7724D02*
X1989Y7724D01*
X4711Y7724D02*
X7274Y7724D01*
X9426Y7724D02*
X11145Y7724D01*
X17924Y7724D02*
X22145Y7724D01*
X24605Y7724D02*
X28504Y7724D01*
X30446Y7724D02*
X30909Y7724D01*
X0592Y7773D02*
X1989Y7773D01*
X4711Y7773D02*
X7255Y7773D01*
X9445Y7773D02*
X11145Y7773D01*
X17958Y7773D02*
X22128Y7773D01*
X24622Y7773D02*
X28545Y7773D01*
X30405Y7773D02*
X30909Y7773D01*
X0592Y7823D02*
X1989Y7823D01*
X4711Y7823D02*
X7237Y7823D01*
X9463Y7823D02*
X11145Y7823D01*
X17982Y7823D02*
X22111Y7823D01*
X24639Y7823D02*
X28595Y7823D01*
X30355Y7823D02*
X30909Y7823D01*
X0592Y7872D02*
X1989Y7872D01*
X4711Y7872D02*
X7218Y7872D01*
X9482Y7872D02*
X11145Y7872D01*
X18001Y7872D02*
X22093Y7872D01*
X24657Y7872D02*
X28644Y7872D01*
X30306Y7872D02*
X30909Y7872D01*
X0592Y7922D02*
X1989Y7922D01*
X4711Y7922D02*
X7199Y7922D01*
X9501Y7922D02*
X11145Y7922D01*
X18019Y7922D02*
X22076Y7922D01*
X24674Y7922D02*
X28694Y7922D01*
X30256Y7922D02*
X30909Y7922D01*
X0592Y7971D02*
X1989Y7971D01*
X4711Y7971D02*
X7183Y7971D01*
X9517Y7971D02*
X11145Y7971D01*
X18038Y7971D02*
X22059Y7971D01*
X24691Y7971D02*
X28763Y7971D01*
X30187Y7971D02*
X30909Y7971D01*
X0592Y8021D02*
X1989Y8021D01*
X4711Y8021D02*
X7177Y8021D01*
X9523Y8021D02*
X11145Y8021D01*
X18057Y8021D02*
X22052Y8021D01*
X24698Y8021D02*
X28842Y8021D01*
X30108Y8021D02*
X30909Y8021D01*
X0592Y8071D02*
X2490Y8071D01*
X4210Y8071D02*
X7171Y8071D01*
X9529Y8071D02*
X11145Y8071D01*
X18070Y8071D02*
X22047Y8071D01*
X24703Y8071D02*
X28921Y8071D01*
X30029Y8071D02*
X30909Y8071D01*
X0592Y8120D02*
X2490Y8120D01*
X4210Y8120D02*
X7165Y8120D01*
X9535Y8120D02*
X11145Y8120D01*
X18076Y8120D02*
X22041Y8120D01*
X24709Y8120D02*
X29044Y8120D01*
X29906Y8120D02*
X30909Y8120D01*
X0592Y8170D02*
X2490Y8170D01*
X4210Y8170D02*
X7159Y8170D01*
X9541Y8170D02*
X11145Y8170D01*
X18082Y8170D02*
X22036Y8170D01*
X24714Y8170D02*
X29186Y8170D01*
X29764Y8170D02*
X30909Y8170D01*
X0592Y8219D02*
X2490Y8219D01*
X4210Y8219D02*
X7152Y8219D01*
X9548Y8219D02*
X11145Y8219D01*
X18088Y8219D02*
X22030Y8219D01*
X24720Y8219D02*
X29362Y8219D01*
X29588Y8219D02*
X30909Y8219D01*
X0592Y8269D02*
X2490Y8269D01*
X4210Y8269D02*
X7151Y8269D01*
X9549Y8269D02*
X11145Y8269D01*
X18094Y8269D02*
X22024Y8269D01*
X24726Y8269D02*
X29362Y8269D01*
X29588Y8269D02*
X30909Y8269D01*
X0592Y8318D02*
X2490Y8318D01*
X4210Y8318D02*
X7157Y8318D01*
X9543Y8318D02*
X11145Y8318D01*
X18100Y8318D02*
X22029Y8318D01*
X24721Y8318D02*
X29260Y8318D01*
X29690Y8318D02*
X30909Y8318D01*
X0592Y8368D02*
X2490Y8368D01*
X4210Y8368D02*
X7163Y8368D01*
X9537Y8368D02*
X11145Y8368D01*
X18096Y8368D02*
X22034Y8368D01*
X24716Y8368D02*
X29079Y8368D01*
X29871Y8368D02*
X30909Y8368D01*
X0592Y8417D02*
X2490Y8417D01*
X4210Y8417D02*
X7169Y8417D01*
X9531Y8417D02*
X11145Y8417D01*
X18090Y8417D02*
X22040Y8417D01*
X24710Y8417D02*
X28940Y8417D01*
X30010Y8417D02*
X30909Y8417D01*
X0592Y8467D02*
X1989Y8467D01*
X4711Y8467D02*
X7175Y8467D01*
X9525Y8467D02*
X11145Y8467D01*
X18084Y8467D02*
X22045Y8467D01*
X24705Y8467D02*
X28861Y8467D01*
X30089Y8467D02*
X30909Y8467D01*
X0592Y8516D02*
X1989Y8516D01*
X4711Y8516D02*
X7181Y8516D01*
X9519Y8516D02*
X11145Y8516D01*
X18078Y8516D02*
X22051Y8516D01*
X24699Y8516D02*
X28782Y8516D01*
X30168Y8516D02*
X30909Y8516D01*
X0592Y8566D02*
X1989Y8566D01*
X4711Y8566D02*
X7194Y8566D01*
X9506Y8566D02*
X11145Y8566D01*
X18072Y8566D02*
X22057Y8566D01*
X24693Y8566D02*
X28706Y8566D01*
X30244Y8566D02*
X30909Y8566D01*
X0592Y8615D02*
X1989Y8615D01*
X4711Y8615D02*
X7213Y8615D01*
X9487Y8615D02*
X11145Y8615D01*
X18062Y8615D02*
X22072Y8615D01*
X24678Y8615D02*
X28657Y8615D01*
X30293Y8615D02*
X30909Y8615D01*
X0592Y8665D02*
X1989Y8665D01*
X4711Y8665D02*
X7232Y8665D01*
X9468Y8665D02*
X11145Y8665D01*
X18043Y8665D02*
X22089Y8665D01*
X24661Y8665D02*
X28607Y8665D01*
X30343Y8665D02*
X30909Y8665D01*
X0592Y8714D02*
X1989Y8714D01*
X4711Y8714D02*
X7251Y8714D01*
X9449Y8714D02*
X11145Y8714D01*
X14725Y8714D02*
X14845Y8714D01*
X18025Y8714D02*
X22106Y8714D01*
X24644Y8714D02*
X28558Y8714D01*
X30392Y8714D02*
X30909Y8714D01*
X0592Y8764D02*
X1989Y8764D01*
X4711Y8764D02*
X7270Y8764D01*
X9430Y8764D02*
X11145Y8764D01*
X14706Y8764D02*
X14845Y8764D01*
X18006Y8764D02*
X22124Y8764D01*
X24626Y8764D02*
X28511Y8764D01*
X30439Y8764D02*
X30909Y8764D01*
X0592Y8813D02*
X1989Y8813D01*
X4711Y8813D02*
X7290Y8813D01*
X9410Y8813D02*
X11145Y8813D01*
X14687Y8813D02*
X14845Y8813D01*
X17987Y8813D02*
X22141Y8813D01*
X24609Y8813D02*
X28480Y8813D01*
X30470Y8813D02*
X30909Y8813D01*
X0592Y8863D02*
X1989Y8863D01*
X4711Y8863D02*
X7324Y8863D01*
X9376Y8863D02*
X11145Y8863D01*
X14667Y8863D02*
X14845Y8863D01*
X17967Y8863D02*
X22159Y8863D01*
X24591Y8863D02*
X28449Y8863D01*
X30501Y8863D02*
X30909Y8863D01*
X0592Y8913D02*
X1989Y8913D01*
X4711Y8913D02*
X7358Y8913D01*
X9342Y8913D02*
X11145Y8913D01*
X14633Y8913D02*
X14845Y8913D01*
X17933Y8913D02*
X22190Y8913D01*
X24560Y8913D02*
X28418Y8913D01*
X30532Y8913D02*
X30909Y8913D01*
X0592Y8962D02*
X1989Y8962D01*
X4711Y8962D02*
X7393Y8962D01*
X9307Y8962D02*
X11145Y8962D01*
X14599Y8962D02*
X14845Y8962D01*
X17899Y8962D02*
X22221Y8962D01*
X24529Y8962D02*
X28387Y8962D01*
X30563Y8962D02*
X30909Y8962D01*
X0592Y9012D02*
X1989Y9012D01*
X4711Y9012D02*
X7427Y9012D01*
X9273Y9012D02*
X11148Y9012D01*
X14565Y9012D02*
X14845Y9012D01*
X17865Y9012D02*
X22252Y9012D01*
X24498Y9012D02*
X28362Y9012D01*
X30588Y9012D02*
X30909Y9012D01*
X0592Y9061D02*
X1989Y9061D01*
X4711Y9061D02*
X7467Y9061D01*
X9233Y9061D02*
X11153Y9061D01*
X14531Y9061D02*
X14845Y9061D01*
X17831Y9061D02*
X22283Y9061D01*
X24467Y9061D02*
X28345Y9061D01*
X30605Y9061D02*
X30909Y9061D01*
X0592Y9111D02*
X1989Y9111D01*
X4711Y9111D02*
X7523Y9111D01*
X9177Y9111D02*
X11160Y9111D01*
X14487Y9111D02*
X14845Y9111D01*
X17787Y9111D02*
X22314Y9111D01*
X24436Y9111D02*
X28328Y9111D01*
X30622Y9111D02*
X30909Y9111D01*
X0592Y9160D02*
X1989Y9160D01*
X4711Y9160D02*
X7579Y9160D01*
X9121Y9160D02*
X11175Y9160D01*
X14431Y9160D02*
X14845Y9160D01*
X17731Y9160D02*
X22361Y9160D01*
X24389Y9160D02*
X28310Y9160D01*
X30640Y9160D02*
X30909Y9160D01*
X0592Y9210D02*
X1989Y9210D01*
X4711Y9210D02*
X7635Y9210D01*
X9065Y9210D02*
X11190Y9210D01*
X14375Y9210D02*
X14845Y9210D01*
X17675Y9210D02*
X22411Y9210D01*
X24339Y9210D02*
X28293Y9210D01*
X30657Y9210D02*
X30909Y9210D01*
X0592Y9259D02*
X1989Y9259D01*
X4711Y9259D02*
X7707Y9259D01*
X8993Y9259D02*
X11213Y9259D01*
X14319Y9259D02*
X14845Y9259D01*
X17619Y9259D02*
X22460Y9259D01*
X24290Y9259D02*
X28278Y9259D01*
X30672Y9259D02*
X30909Y9259D01*
X0592Y9309D02*
X1989Y9309D01*
X4711Y9309D02*
X7801Y9309D01*
X8899Y9309D02*
X11239Y9309D01*
X14235Y9309D02*
X14845Y9309D01*
X16357Y9309D02*
X16365Y9309D01*
X17535Y9309D02*
X22510Y9309D01*
X24240Y9309D02*
X28273Y9309D01*
X30677Y9309D02*
X30909Y9309D01*
X0592Y9358D02*
X1989Y9358D01*
X4711Y9358D02*
X7896Y9358D01*
X8804Y9358D02*
X11271Y9358D01*
X14140Y9358D02*
X14845Y9358D01*
X16321Y9358D02*
X16460Y9358D01*
X17440Y9358D02*
X22575Y9358D01*
X24175Y9358D02*
X28267Y9358D01*
X30683Y9358D02*
X30909Y9358D01*
X0592Y9408D02*
X1989Y9408D01*
X4711Y9408D02*
X8065Y9408D01*
X8635Y9408D02*
X11312Y9408D01*
X14032Y9408D02*
X14845Y9408D01*
X16310Y9408D02*
X16568Y9408D01*
X17332Y9408D02*
X22654Y9408D01*
X24096Y9408D02*
X28262Y9408D01*
X30688Y9408D02*
X30909Y9408D01*
X0592Y9457D02*
X1989Y9457D01*
X3150Y9457D02*
X3550Y9457D01*
X4711Y9457D02*
X11356Y9457D01*
X13274Y9457D02*
X13469Y9457D01*
X13831Y9457D02*
X14845Y9457D01*
X16359Y9457D02*
X16769Y9457D01*
X17131Y9457D02*
X22733Y9457D01*
X24017Y9457D02*
X28256Y9457D01*
X30694Y9457D02*
X30909Y9457D01*
X0592Y9507D02*
X1989Y9507D01*
X3150Y9507D02*
X3550Y9507D01*
X4711Y9507D02*
X11405Y9507D01*
X13259Y9507D02*
X14845Y9507D01*
X16409Y9507D02*
X22830Y9507D01*
X23920Y9507D02*
X28250Y9507D01*
X30700Y9507D02*
X30909Y9507D01*
X0592Y9556D02*
X1992Y9556D01*
X3150Y9556D02*
X3550Y9556D01*
X4708Y9556D02*
X11455Y9556D01*
X13308Y9556D02*
X14848Y9556D01*
X16458Y9556D02*
X22972Y9556D01*
X23778Y9556D02*
X28253Y9556D01*
X30697Y9556D02*
X30909Y9556D01*
X0592Y9606D02*
X2002Y9606D01*
X3150Y9606D02*
X3550Y9606D01*
X4698Y9606D02*
X11504Y9606D01*
X13358Y9606D02*
X14853Y9606D01*
X16508Y9606D02*
X23195Y9606D01*
X23555Y9606D02*
X28259Y9606D01*
X30691Y9606D02*
X30909Y9606D01*
X0592Y9655D02*
X2017Y9655D01*
X3150Y9655D02*
X3550Y9655D01*
X4683Y9655D02*
X11554Y9655D01*
X13407Y9655D02*
X14858Y9655D01*
X16557Y9655D02*
X28264Y9655D01*
X30686Y9655D02*
X30909Y9655D01*
X0592Y9705D02*
X2040Y9705D01*
X3150Y9705D02*
X3550Y9705D01*
X4660Y9705D02*
X11603Y9705D01*
X13882Y9705D02*
X14873Y9705D01*
X16607Y9705D02*
X16718Y9705D01*
X17182Y9705D02*
X28270Y9705D01*
X30680Y9705D02*
X30909Y9705D01*
X0592Y9755D02*
X2073Y9755D01*
X3150Y9755D02*
X3550Y9755D01*
X4627Y9755D02*
X11653Y9755D01*
X14070Y9755D02*
X14888Y9755D01*
X17370Y9755D02*
X28275Y9755D01*
X30675Y9755D02*
X30909Y9755D01*
X0592Y9804D02*
X2118Y9804D01*
X3150Y9804D02*
X3550Y9804D01*
X4582Y9804D02*
X11702Y9804D01*
X14164Y9804D02*
X14910Y9804D01*
X17464Y9804D02*
X28284Y9804D01*
X30666Y9804D02*
X30909Y9804D01*
X0592Y9854D02*
X2185Y9854D01*
X3150Y9854D02*
X3550Y9854D01*
X4515Y9854D02*
X11752Y9854D01*
X14258Y9854D02*
X14936Y9854D01*
X17558Y9854D02*
X28301Y9854D01*
X30649Y9854D02*
X30909Y9854D01*
X0592Y9903D02*
X2314Y9903D01*
X3150Y9903D02*
X3550Y9903D01*
X4386Y9903D02*
X11801Y9903D01*
X14333Y9903D02*
X14967Y9903D01*
X17633Y9903D02*
X28318Y9903D01*
X30632Y9903D02*
X30909Y9903D01*
X0592Y9953D02*
X11851Y9953D01*
X14389Y9953D02*
X15007Y9953D01*
X17689Y9953D02*
X28336Y9953D01*
X30614Y9953D02*
X30909Y9953D01*
X0592Y10002D02*
X11901Y10002D01*
X14445Y10002D02*
X15051Y10002D01*
X17745Y10002D02*
X28353Y10002D01*
X30597Y10002D02*
X30909Y10002D01*
X0592Y10052D02*
X11950Y10052D01*
X14501Y10052D02*
X15100Y10052D01*
X17801Y10052D02*
X28370Y10052D01*
X30580Y10052D02*
X30909Y10052D01*
X0592Y10101D02*
X12000Y10101D01*
X14539Y10101D02*
X15150Y10101D01*
X17839Y10101D02*
X28401Y10101D01*
X30549Y10101D02*
X30909Y10101D01*
X0592Y10151D02*
X12049Y10151D01*
X14573Y10151D02*
X15199Y10151D01*
X17873Y10151D02*
X28433Y10151D01*
X30517Y10151D02*
X30909Y10151D01*
X0592Y10200D02*
X12099Y10200D01*
X14607Y10200D02*
X15249Y10200D01*
X17907Y10200D02*
X28464Y10200D01*
X30486Y10200D02*
X30909Y10200D01*
X0592Y10250D02*
X12148Y10250D01*
X14642Y10250D02*
X15298Y10250D01*
X17942Y10250D02*
X28495Y10250D01*
X30455Y10250D02*
X30909Y10250D01*
X0592Y10299D02*
X12198Y10299D01*
X14673Y10299D02*
X15348Y10299D01*
X17973Y10299D02*
X28531Y10299D01*
X30419Y10299D02*
X30909Y10299D01*
X0592Y10349D02*
X12247Y10349D01*
X14692Y10349D02*
X15397Y10349D01*
X17992Y10349D02*
X28581Y10349D01*
X30369Y10349D02*
X30909Y10349D01*
X0592Y10398D02*
X12297Y10398D01*
X14711Y10398D02*
X15447Y10398D01*
X18011Y10398D02*
X28631Y10398D01*
X30319Y10398D02*
X30909Y10398D01*
X0592Y10448D02*
X12346Y10448D01*
X14729Y10448D02*
X15496Y10448D01*
X18029Y10448D02*
X28680Y10448D01*
X30270Y10448D02*
X30909Y10448D01*
X0592Y10498D02*
X12396Y10498D01*
X14748Y10498D02*
X15546Y10498D01*
X18048Y10498D02*
X28741Y10498D01*
X30209Y10498D02*
X30909Y10498D01*
X0592Y10547D02*
X12445Y10547D01*
X14767Y10547D02*
X15595Y10547D01*
X18067Y10547D02*
X28820Y10547D01*
X30130Y10547D02*
X30909Y10547D01*
X0592Y10597D02*
X12495Y10597D01*
X14774Y10597D02*
X15645Y10597D01*
X18074Y10597D02*
X28898Y10597D01*
X30052Y10597D02*
X30909Y10597D01*
X0592Y10646D02*
X12520Y10646D01*
X14780Y10646D02*
X15694Y10646D01*
X18080Y10646D02*
X29005Y10646D01*
X29945Y10646D02*
X30909Y10646D01*
X0592Y10696D02*
X12514Y10696D01*
X14786Y10696D02*
X15744Y10696D01*
X18086Y10696D02*
X29146Y10696D01*
X29804Y10696D02*
X30909Y10696D01*
X0592Y10745D02*
X12508Y10745D01*
X14792Y10745D02*
X15793Y10745D01*
X18092Y10745D02*
X29362Y10745D01*
X29588Y10745D02*
X30909Y10745D01*
X0592Y10795D02*
X12502Y10795D01*
X14798Y10795D02*
X15802Y10795D01*
X18098Y10795D02*
X29362Y10795D01*
X29588Y10795D02*
X30909Y10795D01*
X0592Y10844D02*
X12501Y10844D01*
X14799Y10844D02*
X15801Y10844D01*
X18099Y10844D02*
X29362Y10844D01*
X29588Y10844D02*
X30909Y10844D01*
X0592Y10894D02*
X12507Y10894D01*
X14793Y10894D02*
X15807Y10894D01*
X18093Y10894D02*
X29119Y10894D01*
X29831Y10894D02*
X30909Y10894D01*
X0592Y10943D02*
X12513Y10943D01*
X14787Y10943D02*
X15813Y10943D01*
X18087Y10943D02*
X28978Y10943D01*
X29972Y10943D02*
X30909Y10943D01*
X0592Y10993D02*
X12519Y10993D01*
X14781Y10993D02*
X15819Y10993D01*
X18081Y10993D02*
X28884Y10993D01*
X30066Y10993D02*
X30909Y10993D01*
X0592Y11042D02*
X12525Y11042D01*
X14775Y11042D02*
X15825Y11042D01*
X18075Y11042D02*
X28805Y11042D01*
X30145Y11042D02*
X30909Y11042D01*
X0592Y11092D02*
X12531Y11092D01*
X14769Y11092D02*
X15831Y11092D01*
X18069Y11092D02*
X28726Y11092D01*
X30224Y11092D02*
X30909Y11092D01*
X0592Y11141D02*
X12548Y11141D01*
X14752Y11141D02*
X15848Y11141D01*
X18052Y11141D02*
X28671Y11141D01*
X30279Y11141D02*
X30909Y11141D01*
X0592Y11191D02*
X12566Y11191D01*
X14734Y11191D02*
X15866Y11191D01*
X18034Y11191D02*
X28621Y11191D01*
X30329Y11191D02*
X30909Y11191D01*
X0592Y11240D02*
X12585Y11240D01*
X14715Y11240D02*
X15885Y11240D01*
X18015Y11240D02*
X28572Y11240D01*
X30378Y11240D02*
X30909Y11240D01*
X0592Y11290D02*
X12604Y11290D01*
X14696Y11290D02*
X15904Y11290D01*
X17996Y11290D02*
X28522Y11290D01*
X30428Y11290D02*
X30909Y11290D01*
X0592Y11340D02*
X12623Y11340D01*
X14677Y11340D02*
X15923Y11340D01*
X17977Y11340D02*
X28489Y11340D01*
X30461Y11340D02*
X30909Y11340D01*
X0592Y11389D02*
X12651Y11389D01*
X14649Y11389D02*
X15951Y11389D01*
X17949Y11389D02*
X28458Y11389D01*
X30492Y11389D02*
X30909Y11389D01*
X0592Y11439D02*
X12685Y11439D01*
X14615Y11439D02*
X15985Y11439D01*
X17915Y11439D02*
X28427Y11439D01*
X30523Y11439D02*
X30909Y11439D01*
X0592Y11488D02*
X12719Y11488D01*
X14581Y11488D02*
X16019Y11488D01*
X17881Y11488D02*
X28396Y11488D01*
X30554Y11488D02*
X30909Y11488D01*
X0592Y11538D02*
X12753Y11538D01*
X14547Y11538D02*
X16053Y11538D01*
X17847Y11538D02*
X28367Y11538D01*
X30583Y11538D02*
X30909Y11538D01*
X0592Y11587D02*
X12787Y11587D01*
X14513Y11587D02*
X16087Y11587D01*
X17813Y11587D02*
X28350Y11587D01*
X30600Y11587D02*
X30909Y11587D01*
X0592Y11637D02*
X12843Y11637D01*
X14457Y11637D02*
X16143Y11637D01*
X17757Y11637D02*
X28332Y11637D01*
X30618Y11637D02*
X30909Y11637D01*
X0592Y11686D02*
X12899Y11686D01*
X14401Y11686D02*
X16199Y11686D01*
X17701Y11686D02*
X28315Y11686D01*
X30635Y11686D02*
X30909Y11686D01*
X0592Y11736D02*
X12955Y11736D01*
X14345Y11736D02*
X16255Y11736D01*
X17645Y11736D02*
X28298Y11736D01*
X30652Y11736D02*
X30909Y11736D01*
X0592Y11785D02*
X13020Y11785D01*
X14280Y11785D02*
X16320Y11785D01*
X17580Y11785D02*
X28280Y11785D01*
X30670Y11785D02*
X30909Y11785D01*
X0592Y11835D02*
X13115Y11835D01*
X14185Y11835D02*
X16415Y11835D01*
X17485Y11835D02*
X28274Y11835D01*
X30676Y11835D02*
X30909Y11835D01*
X0592Y11884D02*
X13209Y11884D01*
X14091Y11884D02*
X16509Y11884D01*
X17391Y11884D02*
X28269Y11884D01*
X30681Y11884D02*
X30909Y11884D01*
X0592Y11934D02*
X7727Y11934D01*
X8973Y11934D02*
X13373Y11934D01*
X13927Y11934D02*
X16673Y11934D01*
X17227Y11934D02*
X23285Y11934D01*
X23465Y11934D02*
X28263Y11934D01*
X30687Y11934D02*
X30909Y11934D01*
X0592Y11983D02*
X7560Y11983D01*
X9140Y11983D02*
X23001Y11983D01*
X23749Y11983D02*
X28258Y11983D01*
X30692Y11983D02*
X30909Y11983D01*
X0592Y12033D02*
X7454Y12033D01*
X9246Y12033D02*
X22859Y12033D01*
X23891Y12033D02*
X28252Y12033D01*
X30698Y12033D02*
X30909Y12033D01*
X0592Y12082D02*
X3105Y12082D01*
X3595Y12082D02*
X7355Y12082D01*
X9345Y12082D02*
X22749Y12082D01*
X24001Y12082D02*
X28252Y12082D01*
X30698Y12082D02*
X30909Y12082D01*
X0592Y12132D02*
X2915Y12132D01*
X3785Y12132D02*
X7285Y12132D01*
X9415Y12132D02*
X22670Y12132D01*
X24080Y12132D02*
X28257Y12132D01*
X30693Y12132D02*
X30909Y12132D01*
X0592Y12182D02*
X2820Y12182D01*
X3880Y12182D02*
X7214Y12182D01*
X9486Y12182D02*
X22591Y12182D01*
X24159Y12182D02*
X28263Y12182D01*
X30687Y12182D02*
X30909Y12182D01*
X0592Y12231D02*
X2726Y12231D01*
X3974Y12231D02*
X7153Y12231D01*
X9547Y12231D02*
X22520Y12231D01*
X24230Y12231D02*
X28268Y12231D01*
X30682Y12231D02*
X30909Y12231D01*
X0592Y12281D02*
X2646Y12281D01*
X4054Y12281D02*
X7103Y12281D01*
X9597Y12281D02*
X22470Y12281D01*
X24280Y12281D02*
X28274Y12281D01*
X30676Y12281D02*
X30909Y12281D01*
X0592Y12330D02*
X2590Y12330D01*
X4110Y12330D02*
X7054Y12330D01*
X9646Y12330D02*
X22421Y12330D01*
X24329Y12330D02*
X28279Y12330D01*
X30671Y12330D02*
X30909Y12330D01*
X0592Y12380D02*
X2535Y12380D01*
X4165Y12380D02*
X7005Y12380D01*
X9695Y12380D02*
X22371Y12380D01*
X24379Y12380D02*
X28296Y12380D01*
X30654Y12380D02*
X30909Y12380D01*
X0592Y12429D02*
X2479Y12429D01*
X4221Y12429D02*
X6971Y12429D01*
X9729Y12429D02*
X22322Y12429D01*
X24428Y12429D02*
X28313Y12429D01*
X30637Y12429D02*
X30909Y12429D01*
X0592Y12479D02*
X2434Y12479D01*
X4266Y12479D02*
X6936Y12479D01*
X9764Y12479D02*
X22290Y12479D01*
X24460Y12479D02*
X28331Y12479D01*
X30619Y12479D02*
X30909Y12479D01*
X0592Y12528D02*
X2400Y12528D01*
X4300Y12528D02*
X6901Y12528D01*
X9799Y12528D02*
X22258Y12528D01*
X24492Y12528D02*
X28348Y12528D01*
X30602Y12528D02*
X30909Y12528D01*
X0592Y12578D02*
X2365Y12578D01*
X4335Y12578D02*
X6869Y12578D01*
X9831Y12578D02*
X22227Y12578D01*
X24523Y12578D02*
X28365Y12578D01*
X30585Y12578D02*
X30909Y12578D01*
X0592Y12627D02*
X2331Y12627D01*
X4369Y12627D02*
X6845Y12627D01*
X9855Y12627D02*
X22196Y12627D01*
X24554Y12627D02*
X28393Y12627D01*
X30557Y12627D02*
X30909Y12627D01*
X0592Y12677D02*
X2297Y12677D01*
X4403Y12677D02*
X6822Y12677D01*
X9878Y12677D02*
X22165Y12677D01*
X24585Y12677D02*
X28424Y12677D01*
X30526Y12677D02*
X30909Y12677D01*
X0592Y12726D02*
X2273Y12726D01*
X4427Y12726D02*
X6799Y12726D01*
X9901Y12726D02*
X22144Y12726D01*
X24606Y12726D02*
X28455Y12726D01*
X30495Y12726D02*
X30909Y12726D01*
X0592Y12776D02*
X2255Y12776D01*
X4445Y12776D02*
X6776Y12776D01*
X9924Y12776D02*
X22127Y12776D01*
X24623Y12776D02*
X28486Y12776D01*
X30464Y12776D02*
X30909Y12776D01*
X0592Y12825D02*
X2236Y12825D01*
X4464Y12825D02*
X6761Y12825D01*
X9939Y12825D02*
X22110Y12825D01*
X24640Y12825D02*
X28517Y12825D01*
X30433Y12825D02*
X30909Y12825D01*
X0592Y12875D02*
X2217Y12875D01*
X4483Y12875D02*
X6748Y12875D01*
X9952Y12875D02*
X22092Y12875D01*
X24658Y12875D02*
X28567Y12875D01*
X30383Y12875D02*
X30909Y12875D01*
X0592Y12924D02*
X2198Y12924D01*
X4502Y12924D02*
X6735Y12924D01*
X9965Y12924D02*
X22075Y12924D01*
X24675Y12924D02*
X28617Y12924D01*
X30333Y12924D02*
X30909Y12924D01*
X0592Y12974D02*
X2183Y12974D01*
X4517Y12974D02*
X6721Y12974D01*
X9979Y12974D02*
X22058Y12974D01*
X24692Y12974D02*
X28666Y12974D01*
X30284Y12974D02*
X30909Y12974D01*
X0592Y13024D02*
X2176Y13024D01*
X4524Y13024D02*
X6710Y13024D01*
X9990Y13024D02*
X22052Y13024D01*
X24698Y13024D02*
X28719Y13024D01*
X30231Y13024D02*
X30909Y13024D01*
X0592Y13073D02*
X2170Y13073D01*
X4530Y13073D02*
X6705Y13073D01*
X9995Y13073D02*
X22046Y13073D01*
X24704Y13073D02*
X28797Y13073D01*
X30153Y13073D02*
X30909Y13073D01*
X0592Y13123D02*
X2164Y13123D01*
X4536Y13123D02*
X6701Y13123D01*
X9999Y13123D02*
X22041Y13123D01*
X24709Y13123D02*
X28876Y13123D01*
X30074Y13123D02*
X30909Y13123D01*
X0592Y13172D02*
X2158Y13172D01*
X4542Y13172D02*
X6697Y13172D01*
X10003Y13172D02*
X22035Y13172D01*
X24715Y13172D02*
X28965Y13172D01*
X29985Y13172D02*
X30909Y13172D01*
X0592Y13222D02*
X2152Y13222D01*
X4548Y13222D02*
X6692Y13222D01*
X10008Y13222D02*
X22030Y13222D01*
X24720Y13222D02*
X29106Y13222D01*
X29844Y13222D02*
X30909Y13222D01*
X0592Y13271D02*
X2152Y13271D01*
X4548Y13271D02*
X6692Y13271D01*
X10008Y13271D02*
X22024Y13271D01*
X24726Y13271D02*
X29343Y13271D01*
X29607Y13271D02*
X30909Y13271D01*
X0592Y13321D02*
X2158Y13321D01*
X4542Y13321D02*
X6696Y13321D01*
X10004Y13321D02*
X22029Y13321D01*
X24721Y13321D02*
X29362Y13321D01*
X29588Y13321D02*
X30909Y13321D01*
X0592Y13370D02*
X2164Y13370D01*
X4536Y13370D02*
X6701Y13370D01*
X9999Y13370D02*
X22034Y13370D01*
X24716Y13370D02*
X29362Y13370D01*
X29588Y13370D02*
X30909Y13370D01*
X0592Y13420D02*
X2170Y13420D01*
X4530Y13420D02*
X6705Y13420D01*
X9995Y13420D02*
X22040Y13420D01*
X24710Y13420D02*
X29159Y13420D01*
X29791Y13420D02*
X30909Y13420D01*
X0592Y13469D02*
X2176Y13469D01*
X4524Y13469D02*
X6709Y13469D01*
X9991Y13469D02*
X22046Y13469D01*
X24704Y13469D02*
X29018Y13469D01*
X29932Y13469D02*
X30909Y13469D01*
X0592Y13519D02*
X2182Y13519D01*
X4518Y13519D02*
X6719Y13519D01*
X9981Y13519D02*
X22051Y13519D01*
X24699Y13519D02*
X28906Y13519D01*
X30044Y13519D02*
X30909Y13519D01*
X0592Y13568D02*
X2196Y13568D01*
X4504Y13568D02*
X6733Y13568D01*
X9967Y13568D02*
X22057Y13568D01*
X24693Y13568D02*
X28827Y13568D01*
X30123Y13568D02*
X30909Y13568D01*
X0592Y13618D02*
X2214Y13618D01*
X4486Y13618D02*
X6746Y13618D01*
X9954Y13618D02*
X22072Y13618D01*
X24678Y13618D02*
X28748Y13618D01*
X30202Y13618D02*
X30909Y13618D01*
X0592Y13667D02*
X2233Y13667D01*
X4467Y13667D02*
X6759Y13667D01*
X9941Y13667D02*
X22090Y13667D01*
X24660Y13667D02*
X28685Y13667D01*
X30265Y13667D02*
X30909Y13667D01*
X0592Y13717D02*
X2252Y13717D01*
X4448Y13717D02*
X6773Y13717D01*
X9927Y13717D02*
X22107Y13717D01*
X24643Y13717D02*
X28635Y13717D01*
X30315Y13717D02*
X30909Y13717D01*
X0592Y13766D02*
X2271Y13766D01*
X4429Y13766D02*
X6796Y13766D01*
X9904Y13766D02*
X22124Y13766D01*
X24626Y13766D02*
X28586Y13766D01*
X30364Y13766D02*
X30909Y13766D01*
X0592Y13816D02*
X2292Y13816D01*
X4408Y13816D02*
X6819Y13816D01*
X9881Y13816D02*
X22142Y13816D01*
X24608Y13816D02*
X28536Y13816D01*
X30414Y13816D02*
X30909Y13816D01*
X0592Y13866D02*
X2326Y13866D01*
X4374Y13866D02*
X6842Y13866D01*
X9858Y13866D02*
X22160Y13866D01*
X24590Y13866D02*
X28498Y13866D01*
X30452Y13866D02*
X30909Y13866D01*
X0592Y13915D02*
X2360Y13915D01*
X4340Y13915D02*
X6865Y13915D01*
X9835Y13915D02*
X22191Y13915D01*
X24559Y13915D02*
X28467Y13915D01*
X30483Y13915D02*
X30909Y13915D01*
X0592Y13965D02*
X2395Y13965D01*
X4305Y13965D02*
X6896Y13965D01*
X9804Y13965D02*
X22222Y13965D01*
X24528Y13965D02*
X28435Y13965D01*
X30515Y13965D02*
X30909Y13965D01*
X0592Y14014D02*
X2429Y14014D01*
X4271Y14014D02*
X6931Y14014D01*
X9769Y14014D02*
X22254Y14014D01*
X24496Y14014D02*
X28404Y14014D01*
X30546Y14014D02*
X30909Y14014D01*
X0592Y14064D02*
X2471Y14064D01*
X4229Y14064D02*
X6966Y14064D01*
X9734Y14064D02*
X22285Y14064D01*
X24465Y14064D02*
X28373Y14064D01*
X30577Y14064D02*
X30909Y14064D01*
X0592Y14113D02*
X2526Y14113D01*
X4174Y14113D02*
X7000Y14113D01*
X9700Y14113D02*
X22316Y14113D01*
X24434Y14113D02*
X28355Y14113D01*
X30595Y14113D02*
X30909Y14113D01*
X0592Y14163D02*
X2582Y14163D01*
X4118Y14163D02*
X7047Y14163D01*
X9653Y14163D02*
X22364Y14163D01*
X24386Y14163D02*
X28337Y14163D01*
X30613Y14163D02*
X30909Y14163D01*
X0592Y14212D02*
X2638Y14212D01*
X4062Y14212D02*
X7096Y14212D01*
X9604Y14212D02*
X22413Y14212D01*
X24337Y14212D02*
X28320Y14212D01*
X30630Y14212D02*
X30909Y14212D01*
X0592Y14262D02*
X2712Y14262D01*
X3988Y14262D02*
X7146Y14262D01*
X9554Y14262D02*
X22463Y14262D01*
X24287Y14262D02*
X28303Y14262D01*
X30647Y14262D02*
X30909Y14262D01*
X0592Y14311D02*
X2807Y14311D01*
X3893Y14311D02*
X7204Y14311D01*
X9496Y14311D02*
X22512Y14311D01*
X24238Y14311D02*
X28285Y14311D01*
X30665Y14311D02*
X30909Y14311D01*
X0592Y14361D02*
X2796Y14361D01*
X3904Y14361D02*
X7203Y14361D01*
X9497Y14361D02*
X22579Y14361D01*
X24171Y14361D02*
X28276Y14361D01*
X30674Y14361D02*
X30909Y14361D01*
X16039Y14410D02*
X22658Y14410D01*
X24092Y14410D02*
X28270Y14410D01*
X30680Y14410D02*
X30909Y14410D01*
X16238Y14460D02*
X22737Y14460D01*
X24013Y14460D02*
X28265Y14460D01*
X30685Y14460D02*
X30909Y14460D01*
X16330Y14509D02*
X22837Y14509D01*
X23913Y14509D02*
X28259Y14509D01*
X30691Y14509D02*
X30909Y14509D01*
X16398Y14559D02*
X22979Y14559D01*
X23771Y14559D02*
X28254Y14559D01*
X30696Y14559D02*
X30909Y14559D01*
X16464Y14608D02*
X23217Y14608D01*
X23533Y14608D02*
X28250Y14608D01*
X30700Y14608D02*
X30909Y14608D01*
X16530Y14658D02*
X28256Y14658D01*
X30694Y14658D02*
X30909Y14658D01*
X16596Y14708D02*
X28261Y14708D01*
X30689Y14708D02*
X30909Y14708D01*
X16662Y14757D02*
X28267Y14757D01*
X30683Y14757D02*
X30909Y14757D01*
X16728Y14807D02*
X28272Y14807D01*
X30678Y14807D02*
X30909Y14807D01*
X16794Y14856D02*
X28278Y14856D01*
X30672Y14856D02*
X30909Y14856D01*
X16860Y14906D02*
X28291Y14906D01*
X30659Y14906D02*
X30909Y14906D01*
X16926Y14955D02*
X28309Y14955D01*
X30641Y14955D02*
X30909Y14955D01*
X16992Y15005D02*
X28326Y15005D01*
X30624Y15005D02*
X30909Y15005D01*
X17058Y15054D02*
X28343Y15054D01*
X30607Y15054D02*
X30909Y15054D01*
X17124Y15104D02*
X28361Y15104D01*
X30589Y15104D02*
X30909Y15104D01*
X17190Y15153D02*
X28384Y15153D01*
X30566Y15153D02*
X30909Y15153D01*
X17256Y15203D02*
X28415Y15203D01*
X30535Y15203D02*
X30909Y15203D01*
X17322Y15252D02*
X28446Y15252D01*
X30504Y15252D02*
X30909Y15252D01*
X17388Y15302D02*
X28477Y15302D01*
X30473Y15302D02*
X30909Y15302D01*
X17454Y15351D02*
X28508Y15351D01*
X30442Y15351D02*
X30909Y15351D01*
X17520Y15401D02*
X28553Y15401D01*
X30397Y15401D02*
X30909Y15401D01*
X17587Y15451D02*
X28603Y15451D01*
X30347Y15451D02*
X30909Y15451D01*
X17653Y15500D02*
X28652Y15500D01*
X30298Y15500D02*
X30909Y15500D01*
X17719Y15550D02*
X28702Y15550D01*
X30248Y15550D02*
X30909Y15550D01*
X17785Y15599D02*
X28775Y15599D01*
X30175Y15599D02*
X30909Y15599D01*
X17851Y15649D02*
X28854Y15649D01*
X30096Y15649D02*
X30909Y15649D01*
X17917Y15698D02*
X28933Y15698D01*
X30017Y15698D02*
X30909Y15698D01*
X17983Y15748D02*
X29066Y15748D01*
X29884Y15748D02*
X30909Y15748D01*
X18049Y15797D02*
X29208Y15797D01*
X29742Y15797D02*
X30909Y15797D01*
X18115Y15847D02*
X29216Y15847D01*
X29734Y15847D02*
X30909Y15847D01*
X18181Y15896D02*
X29208Y15896D01*
X29742Y15896D02*
X30909Y15896D01*
X12631Y6360D02*
X12631Y6360D01*
X12631Y6360*
X12788Y6588*
X12788Y6588*
X12996Y6772*
X12996Y6772*
X13242Y6901*
X13242Y6901*
X13511Y6968*
X13511Y6968*
X13789Y6968*
X13789Y6968*
X13851Y6953*
X14049Y7151*
X14002Y7235*
X13789Y7182*
X13789Y7182*
X13511Y7182*
X13511Y7182*
X13242Y7249*
X13242Y7249*
X12996Y7378*
X12996Y7378*
X12788Y7562*
X12788Y7562*
X12631Y7790*
X12631Y7790*
X12559Y7979*
X12455Y7960*
X12455Y6190*
X12559Y6171*
X12631Y6360*
X12455Y6220D02*
X12578Y6220D01*
X12455Y6270D02*
X12597Y6270D01*
X12455Y6319D02*
X12615Y6319D01*
X12455Y6369D02*
X12637Y6369D01*
X12455Y6418D02*
X12671Y6418D01*
X12455Y6468D02*
X12705Y6468D01*
X12455Y6517D02*
X12740Y6517D01*
X12455Y6567D02*
X12774Y6567D01*
X12455Y6617D02*
X12820Y6617D01*
X12455Y6666D02*
X12876Y6666D01*
X12455Y6716D02*
X12932Y6716D01*
X12455Y6765D02*
X12988Y6765D01*
X12455Y6815D02*
X13077Y6815D01*
X12455Y6864D02*
X13171Y6864D01*
X12455Y6914D02*
X13293Y6914D01*
X12455Y6963D02*
X13494Y6963D01*
X13806Y6963D02*
X13862Y6963D01*
X12455Y7013D02*
X13911Y7013D01*
X12455Y7062D02*
X13961Y7062D01*
X12455Y7112D02*
X14011Y7112D01*
X12455Y7161D02*
X14044Y7161D01*
X12455Y7211D02*
X13396Y7211D01*
X13904Y7211D02*
X14016Y7211D01*
X12455Y7260D02*
X13220Y7260D01*
X12455Y7310D02*
X13125Y7310D01*
X12455Y7359D02*
X13031Y7359D01*
X12455Y7409D02*
X12961Y7409D01*
X12455Y7459D02*
X12905Y7459D01*
X12455Y7508D02*
X12849Y7508D01*
X12455Y7558D02*
X12793Y7558D01*
X12455Y7607D02*
X12757Y7607D01*
X12455Y7657D02*
X12723Y7657D01*
X12455Y7706D02*
X12689Y7706D01*
X12455Y7756D02*
X12655Y7756D01*
X12455Y7805D02*
X12625Y7805D01*
X12455Y7855D02*
X12606Y7855D01*
X12455Y7904D02*
X12588Y7904D01*
X12455Y7954D02*
X12569Y7954D01*
%LNbottom copper_traces*%
D11*
X11800Y5425D02*
X11800Y8975D01*
X12375Y2650D02*
X22750Y2650D01*
X5850Y5825D02*
X9200Y5825D01*
X12375Y2650*
X3350Y8325D02*
X5850Y5825D01*
X22750Y2650D02*
X23375Y3275D01*
X16950Y5825D02*
X15250Y4125D01*
X15500Y7675D02*
X15500Y9525D01*
X11800Y8975D02*
X13650Y10825D01*
X15500Y9525D02*
X16800Y10825D01*
X13100Y4125D02*
X11800Y5425D01*
X13650Y5825D02*
X15500Y7675D01*
X15250Y4125D02*
X13100Y4125D01*
%LNbottom copper component 371277481632569b*%
D12*
X16950Y8325D03*
X16950Y10825D03*
X13650Y10825D03*
X13650Y8325D03*
X13650Y5825D03*
D13*
X16950Y5825D03*
%LNbottom copper component b0d286859ff6c8ae*%
D14*
X3350Y8250D03*
D15*
X8350Y3250D03*
X8350Y13250D03*
%LNbottom copper component 88a1b529ef9425af*%
D16*
X29475Y4440D03*
X29475Y6980D03*
X29475Y9520D03*
X29475Y12060D03*
X29475Y14600D03*
D17*
X29475Y1900D03*
%LNbottom copper component 7681f6a6543890c3*%
D18*
X23375Y8275D03*
X23375Y13275D03*
D19*
X23375Y3275D03*
M02*