<?xml-stylesheet href="https://s3.amazonaws.com/maker.works.boards/css/blackpcb.css" type="text/css"?><svg xmlns="http://www.w3.org/2000/svg" version="1.1" xmlns:xlink="http://www.w3.org/1999/xlink" stroke-width="0" stroke-linecap="round" stroke-linejoin="round" width="1.5551in" height="0.8857999999999999in" id="pcb_bottom" viewBox="7.5 7.5 1555.1 885.8"><defs><circle cx="0" cy="0" r="13" id="tool-T10-pad-1000"/><circle cx="0" cy="0" r="20.5" id="tool-T11-pad-1001"/><circle cx="0" cy="0" r="19.5" id="tool-T12-pad-1002"/><circle cx="0" cy="0" r="22.65" id="tool-D11-pad-1004"/><circle cx="0" cy="0" r="31.5" id="tool-D12-pad-1005"/><rect x="-29.55" y="-29.55" width="59.1" height="59.1" id="tool-D13-pad-1006"/><circle cx="0" cy="0" r="29.55" id="tool-D14-pad-1007"/><circle cx="0" cy="0" r="22.65" id="tool-D10-pad-1009"/><circle cx="0" cy="0" r="31.5" id="tool-D11-pad-1010"/><rect x="-29.55" y="-29.55" width="59.1" height="59.1" id="tool-D12-pad-1011"/><circle cx="0" cy="0" r="29.55" id="tool-D13-pad-1012"/><g id="pcb_bottom-cu" fill="currentColor" stroke="currentColor"><path stroke-width="20" fill="none" d="M 973.4 455.3 L 1303 455.3 M 966.8 427.8 L 919.5 380.5 M 966.8 427.8 L 1304.9 427.8 M 1340.2 292.5 L 1297.3 292.5 M 973.4 455.3 L 919.5 509.3 M 1340.2 392.5 L 1304.9 427.8 M 1340.2 592.5 L 965.5 592.5 M 994.1 692.5 L 919.5 767.1 M 1340.2 492.5 L 1303 455.3 M 965.5 592.5 L 919.5 638.5 M 976.8 308.7 L 919.5 251.4 M 1340.2 692.5 L 994.1 692.5 M 989.5 192.5 L 919.5 122.5 M 1281.1 308.7 L 976.8 308.7 M 1297.3 292.5 L 1281.1 308.7 M 1340.2 192.5 L 989.5 192.5"/><use x="134.9" y="122.5" xlink:href="#tool-D11-pad-1004"/><use x="834.9" y="122.5" xlink:href="#tool-D11-pad-1004"/><use x="134.9" y="767.1" xlink:href="#tool-D11-pad-1004"/><use x="834.9" y="767.1" xlink:href="#tool-D11-pad-1004"/><use x="919.5" y="251.5" xlink:href="#tool-D12-pad-1005"/><use x="1219.5" y="251.5" xlink:href="#tool-D12-pad-1005"/><use x="134.9" y="251.4" xlink:href="#tool-D11-pad-1004"/><use x="834.9" y="251.4" xlink:href="#tool-D11-pad-1004"/><use x="1340.2" y="792.5" xlink:href="#tool-D13-pad-1006"/><use x="1340.2" y="692.5" xlink:href="#tool-D14-pad-1007"/><use x="1340.2" y="592.5" xlink:href="#tool-D14-pad-1007"/><use x="1340.2" y="492.5" xlink:href="#tool-D14-pad-1007"/><use x="1340.2" y="392.5" xlink:href="#tool-D14-pad-1007"/><use x="1340.2" y="292.5" xlink:href="#tool-D14-pad-1007"/><use x="1340.2" y="192.5" xlink:href="#tool-D14-pad-1007"/><use x="1340.2" y="92.5" xlink:href="#tool-D14-pad-1007"/><use x="919.5" y="509.5" xlink:href="#tool-D12-pad-1005"/><use x="1219.5" y="509.5" xlink:href="#tool-D12-pad-1005"/><use x="134.9" y="509.3" xlink:href="#tool-D11-pad-1004"/><use x="834.9" y="509.3" xlink:href="#tool-D11-pad-1004"/><use x="134.9" y="638.2" xlink:href="#tool-D11-pad-1004"/><use x="834.9" y="638.2" xlink:href="#tool-D11-pad-1004"/><use x="919.5" y="122.5" xlink:href="#tool-D12-pad-1005"/><use x="1219.5" y="122.5" xlink:href="#tool-D12-pad-1005"/><use x="134.9" y="379.5" xlink:href="#tool-D11-pad-1004"/><use x="834.9" y="379.5" xlink:href="#tool-D11-pad-1004"/><use x="919.5" y="767.5" xlink:href="#tool-D12-pad-1005"/><use x="1219.5" y="767.5" xlink:href="#tool-D12-pad-1005"/><use x="919.5" y="380.5" xlink:href="#tool-D12-pad-1005"/><use x="1219.5" y="380.5" xlink:href="#tool-D12-pad-1005"/><use x="919.5" y="638.5" xlink:href="#tool-D12-pad-1005"/><use x="1219.5" y="638.5" xlink:href="#tool-D12-pad-1005"/></g><mask id="pcb_bottom_mech-mask" fill="#fff" stroke="#fff" fill-rule="evenodd"><path stroke-width="0" d="M 7.5 7.5 L 7.5 893.3 L 1562.6 893.3 L 1562.6 7.5 Z"/><g id="pcb_bottom-drl" fill="#000" stroke="#000"><use x="134.9" y="122.5" xlink:href="#tool-T10-pad-1000"/><use x="834.9" y="122.5" xlink:href="#tool-T10-pad-1000"/><use x="134.9" y="767.1" xlink:href="#tool-T10-pad-1000"/><use x="834.9" y="767.1" xlink:href="#tool-T10-pad-1000"/><use x="134.9" y="251.4" xlink:href="#tool-T10-pad-1000"/><use x="834.9" y="251.4" xlink:href="#tool-T10-pad-1000"/><use x="134.9" y="509.3" xlink:href="#tool-T10-pad-1000"/><use x="834.9" y="509.3" xlink:href="#tool-T10-pad-1000"/><use x="134.9" y="638.2" xlink:href="#tool-T10-pad-1000"/><use x="834.9" y="638.2" xlink:href="#tool-T10-pad-1000"/><use x="134.9" y="379.5" xlink:href="#tool-T10-pad-1000"/><use x="834.9" y="379.5" xlink:href="#tool-T10-pad-1000"/><use x="919.5" y="251.5" xlink:href="#tool-T11-pad-1001"/><use x="1219.5" y="251.5" xlink:href="#tool-T11-pad-1001"/><use x="919.5" y="509.5" xlink:href="#tool-T11-pad-1001"/><use x="1219.5" y="509.5" xlink:href="#tool-T11-pad-1001"/><use x="919.5" y="122.5" xlink:href="#tool-T11-pad-1001"/><use x="1219.5" y="122.5" xlink:href="#tool-T11-pad-1001"/><use x="919.5" y="767.5" xlink:href="#tool-T11-pad-1001"/><use x="1219.5" y="767.5" xlink:href="#tool-T11-pad-1001"/><use x="919.5" y="380.5" xlink:href="#tool-T11-pad-1001"/><use x="1219.5" y="380.5" xlink:href="#tool-T11-pad-1001"/><use x="919.5" y="638.5" xlink:href="#tool-T11-pad-1001"/><use x="1219.5" y="638.5" xlink:href="#tool-T11-pad-1001"/><use x="1340.2" y="792.5" xlink:href="#tool-T12-pad-1002"/><use x="1340.2" y="692.5" xlink:href="#tool-T12-pad-1002"/><use x="1340.2" y="592.5" xlink:href="#tool-T12-pad-1002"/><use x="1340.2" y="492.5" xlink:href="#tool-T12-pad-1002"/><use x="1340.2" y="392.5" xlink:href="#tool-T12-pad-1002"/><use x="1340.2" y="292.5" xlink:href="#tool-T12-pad-1002"/><use x="1340.2" y="192.5" xlink:href="#tool-T12-pad-1002"/><use x="1340.2" y="92.5" xlink:href="#tool-T12-pad-1002"/></g></mask></defs><g mask="url(#pcb_bottom_mech-mask)" transform="translate(1570.1,900.8) scale(-1,-1)"><rect x="7.5" y="7.5" width="1555.1" height="885.8" fill="currentColor" class="pcb_board-fr4"/><use class="pcb_board-cu" xlink:href="#pcb_bottom-cu"/><g><defs><g id="pcb_bottom-sm" fill="currentColor" stroke="currentColor"><use x="134.9" y="122.5" xlink:href="#tool-D10-pad-1009"/><use x="834.9" y="122.5" xlink:href="#tool-D10-pad-1009"/><use x="134.9" y="767.1" xlink:href="#tool-D10-pad-1009"/><use x="834.9" y="767.1" xlink:href="#tool-D10-pad-1009"/><use x="919.5" y="251.5" xlink:href="#tool-D11-pad-1010"/><use x="1219.5" y="251.5" xlink:href="#tool-D11-pad-1010"/><use x="134.9" y="251.4" xlink:href="#tool-D10-pad-1009"/><use x="834.9" y="251.4" xlink:href="#tool-D10-pad-1009"/><use x="1340.2" y="792.5" xlink:href="#tool-D12-pad-1011"/><use x="1340.2" y="692.5" xlink:href="#tool-D13-pad-1012"/><use x="1340.2" y="592.5" xlink:href="#tool-D13-pad-1012"/><use x="1340.2" y="492.5" xlink:href="#tool-D13-pad-1012"/><use x="1340.2" y="392.5" xlink:href="#tool-D13-pad-1012"/><use x="1340.2" y="292.5" xlink:href="#tool-D13-pad-1012"/><use x="1340.2" y="192.5" xlink:href="#tool-D13-pad-1012"/><use x="1340.2" y="92.5" xlink:href="#tool-D13-pad-1012"/><use x="919.5" y="509.5" xlink:href="#tool-D11-pad-1010"/><use x="1219.5" y="509.5" xlink:href="#tool-D11-pad-1010"/><use x="134.9" y="509.3" xlink:href="#tool-D10-pad-1009"/><use x="834.9" y="509.3" xlink:href="#tool-D10-pad-1009"/><use x="134.9" y="638.2" xlink:href="#tool-D10-pad-1009"/><use x="834.9" y="638.2" xlink:href="#tool-D10-pad-1009"/><use x="919.5" y="122.5" xlink:href="#tool-D11-pad-1010"/><use x="1219.5" y="122.5" xlink:href="#tool-D11-pad-1010"/><use x="134.9" y="379.5" xlink:href="#tool-D10-pad-1009"/><use x="834.9" y="379.5" xlink:href="#tool-D10-pad-1009"/><use x="919.5" y="767.5" xlink:href="#tool-D11-pad-1010"/><use x="1219.5" y="767.5" xlink:href="#tool-D11-pad-1010"/><use x="919.5" y="380.5" xlink:href="#tool-D11-pad-1010"/><use x="1219.5" y="380.5" xlink:href="#tool-D11-pad-1010"/><use x="919.5" y="638.5" xlink:href="#tool-D11-pad-1010"/><use x="1219.5" y="638.5" xlink:href="#tool-D11-pad-1010"/></g><mask id="pcb_bottom-sm_mask" color="#000"><rect x="7.5" y="7.5" width="1555.1" height="885.8" fill="#fff"/><use xlink:href="#pcb_bottom-sm"/></mask><mask id="pcb_bottom-cu_finish-mask" color="#fff"><use xlink:href="#pcb_bottom-cu"/></mask></defs><g mask="url(#pcb_bottom-sm_mask)"><rect x="7.5" y="7.5" width="1555.1" height="885.8" fill="currentColor" class="pcb_board-sm"/><g id="pcb_bottom-ss" class="pcb_board-ss" fill="currentColor" stroke="currentColor"><path stroke-width="8" fill="none" d="M 490 300.5 L 490 300.5 M 490 300.5 L 490 292.9 M 490 292.9 L 449.1 277.7 M 449.1 277.7 L 446.8 276.9 M 446.8 276.9 L 444.5 276.1 M 444.5 276.1 L 442.2 275.4 M 442.2 275.4 L 439.9 274.7 M 439.9 274.7 L 439.9 274.7 M 439.9 274.7 L 442.1 274 M 442.1 274 L 444.3 273.3 M 444.3 273.3 L 446.7 272.5 M 446.7 272.5 L 449.1 271.7 M 449.1 271.7 L 490 257.1 M 490 257.1 L 490 249 M 490 249 L 433.7 270.8 M 433.7 270.8 L 433.7 278.4 M 433.7 278.4 L 490 300.5 M 433 322.5 L 433 322.5 M 433 322.5 L 433.6 325.6 M 433.6 325.6 L 434.7 328.4 M 434.7 328.4 L 436.2 330.8 M 436.2 330.8 L 438.1 332.9 M 438.1 332.9 L 440.4 334.7 M 440.4 334.7 L 443 336.1 M 443 336.1 L 445.9 337.1 M 445.9 337.1 L 446.8 330 M 446.8 330 L 444.8 329.1 M 444.8 329.1 L 444.8 329.1 M 444.8 329.1 L 443.1 328.1 M 443.1 328.1 L 443 328.1 M 443 328.1 L 441.6 327 M 441.6 327 L 441.6 327 M 441.6 327 L 440.4 325.7 M 440.4 325.7 L 440.4 325.7 M 440.4 325.7 L 439.5 324.3 M 439.5 324.3 L 439.5 324.3 M 439.5 324.3 L 438.9 322.7 M 438.9 322.7 L 438.9 322.7 M 438.9 322.7 L 438.6 321 M 438.6 321 L 438.6 321 M 438.6 321 L 438.4 319.2 M 438.4 319.2 L 438.4 319.2 M 438.4 319.2 L 438.6 316.8 M 438.6 316.8 L 438.6 316.8 M 438.6 316.8 L 439.3 314.5 M 439.3 314.5 L 439.3 314.5 M 439.3 314.5 L 440.5 312.5 M 440.5 312.5 L 440.5 312.5 M 440.5 312.5 L 442 310.6 M 442 310.6 L 442 310.6 M 442 310.6 L 444 309.1 M 444 309.1 L 444 309.1 M 444 309.1 L 446.4 308 M 446.4 308 L 446.4 308 M 446.4 308 L 449.2 307.2 M 449.2 307.2 L 449.2 307.2 M 449.2 307.2 L 452.3 306.8 M 452.3 306.8 L 452.3 306.8 M 452.3 306.8 L 452.3 337.3 M 452.3 337.3 L 452.9 337.3 M 452.9 337.3 L 453.4 337.3 M 453.4 337.3 L 453.8 337.3 M 453.8 337.3 L 454.2 337.3 M 454.2 337.3 L 459 337 M 459 337 L 463.1 336 M 463.1 336 L 466.8 334.4 M 466.8 334.4 L 469.9 332.1 M 469.9 332.1 L 472.3 329.4 M 472.3 329.4 L 474 326.2 M 474 326.2 L 475.1 322.7 M 475.1 322.7 L 475.4 318.8 M 475.4 318.8 L 475.1 314.7 M 475.1 314.7 L 474 311.1 M 474 311.1 L 472.2 307.9 M 472.2 307.9 L 469.7 305 M 469.7 305 L 466.6 302.7 M 466.6 302.7 L 462.9 301 M 462.9 301 L 458.6 300.1 M 458.6 300.1 L 453.8 299.7 M 453.8 299.7 L 449 300.1 M 449 300.1 L 444.9 301 M 444.9 301 L 441.3 302.7 M 441.3 302.7 L 438.3 305 M 438.3 305 L 435.9 307.8 M 435.9 307.8 L 434.2 311.1 M 434.2 311.1 L 433.1 314.9 M 433.1 314.9 L 432.8 319.2 M 432.8 319.2 L 433 322.5 M 458 307.2 L 458 307.2 M 458 307.2 L 458 330 M 458 330 L 460.5 329.7 M 460.5 329.7 L 462.5 329.2 M 462.5 329.2 L 464.3 328.4 M 464.3 328.4 L 465.7 327.4 M 465.7 327.4 L 467.5 325.6 M 467.5 325.6 L 468.8 323.6 M 468.8 323.6 L 469.5 321.4 M 469.5 321.4 L 469.7 318.8 M 469.7 318.8 L 469.5 316.6 M 469.5 316.6 L 469 314.5 M 469 314.5 L 467.9 312.5 M 467.9 312.5 L 466.6 310.8 M 466.6 310.8 L 464.8 309.4 M 464.8 309.4 L 462.8 308.3 M 462.8 308.3 L 460.6 307.6 M 460.6 307.6 L 458 307.2 M 455.1 352.6 L 455.1 352.6 M 455.1 352.6 L 455.1 352.6 M 455.1 352.6 L 457.2 352.7 M 457.2 352.7 L 457.2 352.7 M 457.2 352.7 L 459.3 352.9 M 459.3 352.9 L 459.3 352.9 M 459.3 352.9 L 461.2 353.3 M 461.2 353.3 L 461.2 353.3 M 461.2 353.3 L 463.1 353.8 M 463.1 353.8 L 463.1 353.8 M 463.1 353.8 L 464.3 354.2 M 464.3 354.2 L 464.3 354.2 M 464.3 354.2 L 465.3 354.8 M 465.3 354.8 L 465.3 354.8 M 465.3 354.8 L 466.2 355.5 M 466.2 355.5 L 466.2 355.5 M 466.2 355.5 L 466.9 356.4 M 466.9 356.4 L 466.9 356.4 M 466.9 356.4 L 467.5 357.3 M 467.5 357.3 L 467.5 357.3 M 467.5 357.3 L 468 358.3 M 468 358.3 L 468 358.3 M 468 358.3 L 468.2 359.4 M 468.2 359.4 L 468.2 359.4 M 468.2 359.4 L 468.3 360.5 M 468.3 360.5 L 468.3 360.5 M 468.3 360.5 L 468.2 361.7 M 468.2 361.7 L 468.2 361.7 M 468.2 361.7 L 467.9 363 M 467.9 363 L 467.9 363 M 467.9 363 L 467.5 364.3 M 467.5 364.3 L 467.5 364.3 M 467.5 364.3 L 466.8 365.5 M 466.8 365.5 L 473.2 367.9 M 473.2 367.9 L 474.2 366.1 M 474.2 366.1 L 474.9 364.3 M 474.9 364.3 L 475.3 362.5 M 475.3 362.5 L 475.4 360.8 M 475.4 360.8 L 475.3 359.6 M 475.3 359.6 L 475.1 358.5 M 475.1 358.5 L 474.6 357.4 M 474.6 357.4 L 474 356.4 M 474 356.4 L 473.2 355.3 M 473.2 355.3 L 471.9 354.3 M 471.9 354.3 L 470.3 353.1 M 470.3 353.1 L 468.3 351.9 M 468.3 351.9 L 468.3 351.9 M 468.3 351.9 L 474.5 351.9 M 474.5 351.9 L 474.5 345.7 M 474.5 345.7 L 433.7 345.7 M 433.7 345.7 L 433.7 352.6 M 433.7 352.6 L 455.1 352.6 M 432.9 389 L 432.9 389 M 432.9 389 L 433.2 391.2 M 433.2 391.2 L 433.7 393.4 M 433.7 393.4 L 434.5 395.3 M 434.5 395.3 L 435.4 397.1 M 435.4 397.1 L 436.5 398.7 M 436.5 398.7 L 437.7 400 M 437.7 400 L 439.2 401.1 M 439.2 401.1 L 440.7 402 M 440.7 402 L 442.3 402.7 M 442.3 402.7 L 444 403 M 444 403 L 445.7 403.1 M 445.7 403.1 L 447.4 403.1 M 447.4 403.1 L 448.9 402.7 M 448.9 402.7 L 450.3 402.2 M 450.3 402.2 L 451.6 401.5 M 451.6 401.5 L 452.7 400.6 M 452.7 400.6 L 453.7 399.5 M 453.7 399.5 L 454.5 398.3 M 454.5 398.3 L 455.2 396.9 M 455.2 396.9 L 455.9 395.2 M 455.9 395.2 L 456.6 392.9 M 456.6 392.9 L 457.5 390.1 M 457.5 390.1 L 458.4 386.7 M 458.4 386.7 L 459 384.4 M 459 384.4 L 459 384.4 M 459 384.4 L 459.5 382.6 M 459.5 382.6 L 459.5 382.6 M 459.5 382.6 L 459.9 381.4 M 459.9 381.4 L 459.9 381.4 M 459.9 381.4 L 460.2 380.6 M 460.2 380.6 L 460.2 380.6 M 460.2 380.6 L 460.6 379.7 M 460.6 379.7 L 460.6 379.7 M 460.6 379.7 L 461 379 M 461 379 L 461 379 M 461 379 L 461.5 378.4 M 461.5 378.4 L 461.5 378.4 M 461.5 378.4 L 462 377.9 M 462 377.9 L 462 377.9 M 462 377.9 L 462.6 377.5 M 462.6 377.5 L 462.6 377.5 M 462.6 377.5 L 463.2 377.3 M 463.2 377.3 L 463.2 377.3 M 463.2 377.3 L 463.8 377.1 M 463.8 377.1 L 463.8 377.1 M 463.8 377.1 L 464.5 377.1 M 464.5 377.1 L 464.5 377.1 M 464.5 377.1 L 465.5 377.2 M 465.5 377.2 L 465.5 377.2 M 465.5 377.2 L 466.5 377.6 M 466.5 377.6 L 466.5 377.6 M 466.5 377.6 L 467.3 378.2 M 467.3 378.2 L 467.3 378.2 M 467.3 378.2 L 468.2 379.1 M 468.2 379.1 L 468.2 379.1 M 468.2 379.1 L 468.9 380.3 M 468.9 380.3 L 468.9 380.3 M 468.9 380.3 L 469.4 381.8 M 469.4 381.8 L 469.4 381.8 M 469.4 381.8 L 469.7 383.7 M 469.7 383.7 L 469.7 383.7 M 469.7 383.7 L 469.8 385.9 M 469.8 385.9 L 469.8 385.9 M 469.8 385.9 L 469.7 387.9 M 469.7 387.9 L 469.7 387.9 M 469.7 387.9 L 469.3 389.5 M 469.3 389.5 L 469.3 389.5 M 469.3 389.5 L 468.8 391 M 468.8 391 L 468.8 391 M 468.8 391 L 468 392.2 M 468 392.2 L 468 392.2 M 468 392.2 L 467 393.2 M 467 393.2 L 467 393.2 M 467 393.2 L 465.9 394 M 465.9 394 L 465.9 394 M 465.9 394 L 464.5 394.5 M 464.5 394.5 L 464.5 394.5 M 464.5 394.5 L 463.1 394.9 M 463.1 394.9 L 464 401.6 M 464 401.6 L 465.8 401.2 M 465.8 401.2 L 467.5 400.7 M 467.5 400.7 L 469 400 M 469 400 L 470.3 399.2 M 470.3 399.2 L 471.4 398.2 M 471.4 398.2 L 472.4 397 M 472.4 397 L 473.3 395.6 M 473.3 395.6 L 474 393.9 M 474 393.9 L 474.6 392 M 474.6 392 L 475.1 389.9 M 475.1 389.9 L 475.3 387.8 M 475.3 387.8 L 475.4 385.5 M 475.4 385.5 L 475.4 383.9 M 475.4 383.9 L 475.2 382.3 M 475.2 382.3 L 474.9 380.9 M 474.9 380.9 L 474.6 379.5 M 474.6 379.5 L 474.2 378.1 M 474.2 378.1 L 473.7 377 M 473.7 377 L 473.1 376 M 473.1 376 L 472.6 375.1 M 472.6 375.1 L 471.8 374 M 471.8 374 L 470.8 373.1 M 470.8 373.1 L 469.8 372.3 M 469.8 372.3 L 468.7 371.7 M 468.7 371.7 L 467.5 371.1 M 467.5 371.1 L 466.3 370.7 M 466.3 370.7 L 465 370.5 M 465 370.5 L 463.7 370.4 M 463.7 370.4 L 462.2 370.5 M 462.2 370.5 L 460.8 370.8 M 460.8 370.8 L 459.5 371.3 M 459.5 371.3 L 458.2 371.9 M 458.2 371.9 L 457 372.8 M 457 372.8 L 456 373.8 M 456 373.8 L 455.1 375 M 455.1 375 L 454.3 376.4 M 454.3 376.4 L 453.6 378.2 M 453.6 378.2 L 452.8 380.5 M 452.8 380.5 L 451.9 383.4 M 451.9 383.4 L 451 386.9 M 451 386.9 L 451 386.9 M 451 386.9 L 450.3 389.5 M 450.3 389.5 L 450.3 389.5 M 450.3 389.5 L 449.7 391.6 M 449.7 391.6 L 449.7 391.6 M 449.7 391.6 L 449.2 393.1 M 449.2 393.1 L 449.2 393.1 M 449.2 393.1 L 448.6 394 M 448.6 394 L 448.6 394 M 448.6 394 L 447.9 394.9 M 447.9 394.9 L 447.9 394.9 M 447.9 394.9 L 447.1 395.6 M 447.1 395.6 L 447.1 395.6 M 447.1 395.6 L 446 395.9 M 446 395.9 L 446 395.9 M 446 395.9 L 444.9 396.1 M 444.9 396.1 L 444.9 396.1 M 444.9 396.1 L 443.7 395.9 M 443.7 395.9 L 443.7 395.9 M 443.7 395.9 L 442.5 395.5 M 442.5 395.5 L 442.5 395.5 M 442.5 395.5 L 441.4 394.8 M 441.4 394.8 L 441.4 394.8 M 441.4 394.8 L 440.4 393.8 M 440.4 393.8 L 440.4 393.8 M 440.4 393.8 L 439.5 392.5 M 439.5 392.5 L 439.5 392.5 M 439.5 392.5 L 438.9 390.8 M 438.9 390.8 L 438.9 390.8 M 438.9 390.8 L 438.6 388.9 M 438.6 388.9 L 438.6 388.9 M 438.6 388.9 L 438.4 386.7 M 438.4 386.7 L 438.4 386.7 M 438.4 386.7 L 438.6 384.4 M 438.6 384.4 L 438.6 384.4 M 438.6 384.4 L 439 382.5 M 439 382.5 L 439 382.5 M 439 382.5 L 439.7 380.7 M 439.7 380.7 L 439.7 380.7 M 439.7 380.7 L 440.6 379.3 M 440.6 379.3 L 440.6 379.3 M 440.6 379.3 L 441.8 378.1 M 441.8 378.1 L 441.8 378.1 M 441.8 378.1 L 443.3 377.2 M 443.3 377.2 L 443.3 377.2 M 443.3 377.2 L 445 376.5 M 445 376.5 L 445 376.5 M 445 376.5 L 446.9 376.1 M 446.9 376.1 L 445.8 369.3 M 445.8 369.3 L 442.8 370 M 442.8 370 L 440.2 371.2 M 440.2 371.2 L 437.9 372.7 M 437.9 372.7 L 436.1 374.6 M 436.1 374.6 L 434.6 376.9 M 434.6 376.9 L 433.6 379.7 M 433.6 379.7 L 433 383 M 433 383 L 432.8 386.7 M 432.8 386.7 L 432.9 389 M 490 418.3 L 490 418.3 M 490 418.3 L 490 411.4 M 490 411.4 L 482.1 411.4 M 482.1 411.4 L 482.1 418.3 M 482.1 418.3 L 490 418.3 M 474.5 418.3 L 474.5 418.3 M 474.5 418.3 L 474.5 411.4 M 474.5 411.4 L 433.7 411.4 M 433.7 411.4 L 433.7 418.3 M 433.7 418.3 L 474.5 418.3 M 432.9 448.1 L 432.9 448.1 M 432.9 448.1 L 433.4 450.6 M 433.4 450.6 L 434.2 453 M 434.2 453 L 435.3 455.3 M 435.3 455.3 L 436.6 457.4 M 436.6 457.4 L 438.3 459.3 M 438.3 459.3 L 440.1 460.9 M 440.1 460.9 L 442.3 462.2 M 442.3 462.2 L 444.7 463.2 M 444.7 463.2 L 447.6 464 M 447.6 464 L 450.9 464.4 M 450.9 464.4 L 454.7 464.5 M 454.7 464.5 L 459.3 464.2 M 459.3 464.2 L 463.3 463.2 M 463.3 463.2 L 466.9 461.6 M 466.9 461.6 L 469.9 459.2 M 469.9 459.2 L 472.3 456.4 M 472.3 456.4 L 474 453.1 M 474 453.1 L 475.1 449.5 M 475.1 449.5 L 475.4 445.5 M 475.4 445.5 L 475.1 441.8 M 475.1 441.8 L 474.3 438.5 M 474.3 438.5 L 472.9 435.4 M 472.9 435.4 L 470.9 432.6 M 470.9 432.6 L 467.8 429.9 M 467.8 429.9 L 464 427.9 M 464 427.9 L 459.4 426.7 M 459.4 426.7 L 454.1 426.3 M 454.1 426.3 L 449.2 426.7 M 449.2 426.7 L 445 427.7 M 445 427.7 L 441.3 429.3 M 441.3 429.3 L 438.3 431.6 M 438.3 431.6 L 435.9 434.5 M 435.9 434.5 L 434.2 437.7 M 434.2 437.7 L 433.1 441.4 M 433.1 441.4 L 432.8 445.5 M 432.8 445.5 L 432.9 448.1 M 454.1 433.4 L 454.1 433.4 M 454.1 433.4 L 450.4 433.6 M 450.4 433.6 L 447.2 434.3 M 447.2 434.3 L 444.5 435.3 M 444.5 435.3 L 442.3 436.8 M 442.3 436.8 L 440.6 438.7 M 440.6 438.7 L 439.4 440.7 M 439.4 440.7 L 438.7 443 M 438.7 443 L 438.4 445.5 M 438.4 445.5 L 438.7 447.9 M 438.7 447.9 L 439.4 450.2 M 439.4 450.2 L 440.6 452.2 M 440.6 452.2 L 442.4 454 M 442.4 454 L 444.6 455.5 M 444.6 455.5 L 447.3 456.6 M 447.3 456.6 L 450.6 457.2 M 450.6 457.2 L 454.3 457.5 M 454.3 457.5 L 457.9 457.2 M 457.9 457.2 L 461 456.6 M 461 456.6 L 463.6 455.5 M 463.6 455.5 L 465.8 454 M 465.8 454 L 467.5 452.2 M 467.5 452.2 L 468.7 450.1 M 468.7 450.1 L 469.5 447.9 M 469.5 447.9 L 469.7 445.5 M 469.7 445.5 L 469.5 443 M 469.5 443 L 468.7 440.7 M 468.7 440.7 L 467.5 438.7 M 467.5 438.7 L 465.8 436.8 M 465.8 436.8 L 463.6 435.3 M 463.6 435.3 L 461 434.3 M 461 434.3 L 457.8 433.6 M 457.8 433.6 L 454.1 433.4 M 456 479.6 L 456 479.6 M 456 479.6 L 456 479.6 M 456 479.6 L 459.6 479.8 M 459.6 479.8 L 459.6 479.8 M 459.6 479.8 L 462.6 480.4 M 462.6 480.4 L 462.6 480.4 M 462.6 480.4 L 464.9 481.4 M 464.9 481.4 L 464.9 481.4 M 464.9 481.4 L 466.6 482.8 M 466.6 482.8 L 466.6 482.8 M 466.6 482.8 L 467.9 484.5 M 467.9 484.5 L 467.9 484.5 M 467.9 484.5 L 468.8 486.3 M 468.8 486.3 L 468.8 486.3 M 468.8 486.3 L 469.3 488.3 M 469.3 488.3 L 469.3 488.3 M 469.3 488.3 L 469.5 490.5 M 469.5 490.5 L 469.5 490.5 M 469.5 490.5 L 469.4 491.8 M 469.4 491.8 L 469.4 491.8 M 469.4 491.8 L 469.2 493.1 M 469.2 493.1 L 469.2 493.1 M 469.2 493.1 L 468.8 494.2 M 468.8 494.2 L 468.8 494.2 M 468.8 494.2 L 468.2 495.3 M 468.2 495.3 L 468.2 495.3 M 468.2 495.3 L 467.5 496.2 M 467.5 496.2 L 467.5 496.2 M 467.5 496.2 L 466.8 497 M 466.8 497 L 466.8 497 M 466.8 497 L 465.8 497.7 M 465.8 497.7 L 465.8 497.7 M 465.8 497.7 L 464.9 498.1 M 464.9 498.1 L 464.9 498.1 M 464.9 498.1 L 463.7 498.5 M 463.7 498.5 L 463.7 498.5 M 463.7 498.5 L 462.2 498.8 M 462.2 498.8 L 462.2 498.8 M 462.2 498.8 L 460.5 498.9 M 460.5 498.9 L 460.5 498.9 M 460.5 498.9 L 458.5 499 M 458.5 499 L 458.5 499 M 458.5 499 L 433.7 499 M 433.7 499 L 433.7 505.8 M 433.7 505.8 L 458.8 505.8 M 458.8 505.8 L 461 505.8 M 461 505.8 L 462.9 505.7 M 462.9 505.7 L 464.4 505.6 M 464.4 505.6 L 465.5 505.5 M 465.5 505.5 L 466.9 505.1 M 466.9 505.1 L 468.2 504.6 M 468.2 504.6 L 469.5 504 M 469.5 504 L 470.6 503.3 M 470.6 503.3 L 471.6 502.4 M 471.6 502.4 L 472.6 501.4 M 472.6 501.4 L 473.4 500.1 M 473.4 500.1 L 474.1 498.7 M 474.1 498.7 L 474.7 497.1 M 474.7 497.1 L 475.1 495.5 M 475.1 495.5 L 475.3 493.7 M 475.3 493.7 L 475.4 491.9 M 475.4 491.9 L 475 487.9 M 475 487.9 L 473.7 484.4 M 473.7 484.4 L 471.6 481.4 M 471.6 481.4 L 468.7 478.9 M 468.7 478.9 L 468.7 478.9 M 468.7 478.9 L 474.5 478.9 M 474.5 478.9 L 474.5 472.7 M 474.5 472.7 L 433.7 472.7 M 433.7 472.7 L 433.7 479.6 M 433.7 479.6 L 456 479.6 M 490.3 562.5 L 490.3 562.5 M 490.3 562.5 L 490.3 558.1 M 490.3 558.1 L 488.4 557 M 488.4 557 L 488.4 557 M 488.4 557 L 486.6 555.6 M 486.6 555.6 L 486.6 555.6 M 486.6 555.6 L 484.7 553.9 M 484.7 553.9 L 484.7 553.9 M 484.7 553.9 L 482.7 551.9 M 482.7 551.9 L 482.7 551.9 M 482.7 551.9 L 480.8 549.6 M 480.8 549.6 L 480.8 549.6 M 480.8 549.6 L 479.1 547.2 M 479.1 547.2 L 479.1 547.2 M 479.1 547.2 L 477.5 544.5 M 477.5 544.5 L 477.5 544.5 M 477.5 544.5 L 476.1 541.8 M 476.1 541.8 L 469.5 541.8 M 469.5 541.8 L 470.1 543.4 M 470.1 543.4 L 471 545.1 M 471 545.1 L 471.9 547 M 471.9 547 L 473 549 M 473 549 L 474.2 550.9 M 474.2 550.9 L 475.4 552.7 M 475.4 552.7 L 476.6 554.2 M 476.6 554.2 L 477.8 555.6 M 477.8 555.6 L 477.8 555.6 M 477.8 555.6 L 433.7 555.6 M 433.7 555.6 L 433.7 562.5 M 433.7 562.5 L 490.3 562.5 M 441.6 591.9 L 441.6 591.9 M 441.6 591.9 L 441.6 584.1 M 441.6 584.1 L 433.7 584.1 M 433.7 584.1 L 433.7 591.9 M 433.7 591.9 L 441.6 591.9 M 490.3 628.1 L 490.3 628.1 M 490.3 628.1 L 490.3 623.7 M 490.3 623.7 L 488.4 622.7 M 488.4 622.7 L 488.4 622.7 M 488.4 622.7 L 486.6 621.3 M 486.6 621.3 L 486.6 621.3 M 486.6 621.3 L 484.7 619.6 M 484.7 619.6 L 484.7 619.6 M 484.7 619.6 L 482.7 617.6 M 482.7 617.6 L 482.7 617.6 M 482.7 617.6 L 480.8 615.3 M 480.8 615.3 L 480.8 615.3 M 480.8 615.3 L 479.1 612.9 M 479.1 612.9 L 479.1 612.9 M 479.1 612.9 L 477.5 610.2 M 477.5 610.2 L 477.5 610.2 M 477.5 610.2 L 476.1 607.4 M 476.1 607.4 L 469.5 607.4 M 469.5 607.4 L 470.1 609 M 470.1 609 L 471 610.8 M 471 610.8 L 471.9 612.7 M 471.9 612.7 L 473 614.7 M 473 614.7 L 474.2 616.6 M 474.2 616.6 L 475.4 618.3 M 475.4 618.3 L 476.6 619.9 M 476.6 619.9 L 477.8 621.2 M 477.8 621.2 L 477.8 621.2 M 477.8 621.2 L 433.7 621.2 M 433.7 621.2 L 433.7 628.1 M 433.7 628.1 L 490.3 628.1 M 564.7 53.7 L 564.7 53.7 M 564.7 53.7 L 564.7 53.7 M 564.7 53.7 L 564.7 64.4 M 564.7 64.4 L 564.7 64.4 M 564.7 64.4 L 564.7 66 M 564.7 66 L 564.7 66 M 564.7 66 L 564.7 67.4 M 564.7 67.4 L 564.7 67.4 M 564.7 67.4 L 564.6 68.5 M 564.6 68.5 L 564.6 68.5 M 564.6 68.5 L 564.4 69.4 M 564.4 69.4 L 564.4 69.4 M 564.4 69.4 L 564.1 70.5 M 564.1 70.5 L 564.1 70.5 M 564.1 70.5 L 563.7 71.6 M 563.7 71.6 L 563.7 71.6 M 563.7 71.6 L 563.2 72.6 M 563.2 72.6 L 563.2 72.6 M 563.2 72.6 L 562.6 73.6 M 562.6 73.6 L 562.6 73.6 M 562.6 73.6 L 561.8 74.7 M 561.8 74.7 L 561.8 74.7 M 561.8 74.7 L 560.8 75.8 M 560.8 75.8 L 560.8 75.8 M 560.8 75.8 L 559.5 77 M 559.5 77 L 559.5 77 M 559.5 77 L 558 78.2 M 558 78.2 L 558 78.2 M 558 78.2 L 556.1 79.6 M 556.1 79.6 L 556.1 79.6 M 556.1 79.6 L 554 81.2 M 554 81.2 L 554 81.2 M 554 81.2 L 551.4 82.9 M 551.4 82.9 L 551.4 82.9 M 551.4 82.9 L 548.4 84.9 M 548.4 84.9 L 548.4 84.9 M 548.4 84.9 L 534.1 94 M 534.1 94 L 534.1 105.4 M 534.1 105.4 L 552.9 93.4 M 552.9 93.4 L 555.5 91.6 M 555.5 91.6 L 557.9 89.7 M 557.9 89.7 L 560.1 87.8 M 560.1 87.8 L 562 85.8 M 562 85.8 L 562.9 84.8 M 562.9 84.8 L 563.8 83.5 M 563.8 83.5 L 564.6 82.1 M 564.6 82.1 L 565.5 80.3 M 565.5 80.3 L 565.5 80.3 M 565.5 80.3 L 566.4 85 M 566.4 85 L 567.8 89 M 567.8 89 L 569.6 92.3 M 569.6 92.3 L 571.9 95 M 571.9 95 L 574.6 97.1 M 574.6 97.1 L 577.5 98.6 M 577.5 98.6 L 580.8 99.5 M 580.8 99.5 L 584.3 99.8 M 584.3 99.8 L 587.1 99.6 M 587.1 99.6 L 589.7 99.1 M 589.7 99.1 L 592.3 98.2 M 592.3 98.2 L 594.7 96.9 M 594.7 96.9 L 596.9 95.4 M 596.9 95.4 L 598.7 93.6 M 598.7 93.6 L 600.1 91.5 M 600.1 91.5 L 601.2 89.2 M 601.2 89.2 L 602.1 86.6 M 602.1 86.6 L 602.6 83.3 M 602.6 83.3 L 603 79.5 M 603 79.5 L 603.1 75.2 M 603.1 75.2 L 603.1 44.6 M 603.1 44.6 L 534.1 44.6 M 534.1 44.6 L 534.1 53.7 M 534.1 53.7 L 564.7 53.7 M 572.7 53.8 L 572.7 53.8 M 572.7 53.8 L 572.7 73.4 M 572.7 73.4 L 572.7 76.4 M 572.7 76.4 L 573 79 M 573 79 L 573.4 81.2 M 573.4 81.2 L 574 83.2 M 574 83.2 L 574.7 84.9 M 574.7 84.9 L 575.6 86.3 M 575.6 86.3 L 576.8 87.5 M 576.8 87.5 L 578.1 88.6 M 578.1 88.6 L 579.5 89.4 M 579.5 89.4 L 581 89.9 M 581 89.9 L 582.7 90.3 M 582.7 90.3 L 584.3 90.4 M 584.3 90.4 L 586.6 90.2 M 586.6 90.2 L 588.8 89.5 M 588.8 89.5 L 590.6 88.4 M 590.6 88.4 L 592.3 86.8 M 592.3 86.8 L 593.7 84.8 M 593.7 84.8 L 594.7 82.3 M 594.7 82.3 L 595.3 79.2 M 595.3 79.2 L 595.5 75.6 M 595.5 75.6 L 595.5 53.8 M 595.5 53.8 L 572.7 53.8 M 533.2 138.2 L 533.2 138.2 M 533.2 138.2 L 534 142 M 534 142 L 535.3 145.4 M 535.3 145.4 L 537.2 148.4 M 537.2 148.4 L 539.5 150.9 M 539.5 150.9 L 542.3 153.1 M 542.3 153.1 L 545.5 154.8 M 545.5 154.8 L 549.1 156 M 549.1 156 L 550.2 147.3 M 550.2 147.3 L 547.7 146.2 M 547.7 146.2 L 547.7 146.2 M 547.7 146.2 L 545.5 145 M 545.5 145 L 545.5 145 M 545.5 145 L 543.8 143.6 M 543.8 143.6 L 543.8 143.6 M 543.8 143.6 L 542.3 142.1 M 542.3 142.1 L 542.3 142.1 M 542.3 142.1 L 541.3 140.3 M 541.3 140.3 L 541.3 140.3 M 541.3 140.3 L 540.5 138.4 M 540.5 138.4 L 540.5 138.4 M 540.5 138.4 L 540.1 136.4 M 540.1 136.4 L 540.1 136.4 M 540.1 136.4 L 539.9 134.1 M 539.9 134.1 L 539.9 134.1 M 539.9 134.1 L 540.2 131.1 M 540.2 131.1 L 540.2 131.1 M 540.2 131.1 L 541 128.3 M 541 128.3 L 541 128.3 M 541 128.3 L 542.3 125.8 M 542.3 125.8 L 542.4 125.8 M 542.4 125.8 L 544.3 123.6 M 544.3 123.6 L 544.3 123.6 M 544.3 123.6 L 546.7 121.8 M 546.7 121.8 L 546.7 121.8 M 546.7 121.8 L 549.6 120.4 M 549.6 120.4 L 549.6 120.4 M 549.6 120.4 L 553.1 119.4 M 553.1 119.4 L 553.1 119.4 M 553.1 119.4 L 556.9 119 M 556.9 119 L 556.9 119 M 556.9 119 L 556.9 156.3 M 556.9 156.3 L 557.6 156.3 M 557.6 156.3 L 558.2 156.3 M 558.2 156.3 L 558.8 156.3 M 558.8 156.3 L 559.2 156.3 M 559.2 156.3 L 565 155.9 M 565 155.9 L 570.2 154.7 M 570.2 154.7 L 574.6 152.7 M 574.6 152.7 L 578.4 149.9 M 578.4 149.9 L 581.4 146.6 M 581.4 146.6 L 583.5 142.7 M 583.5 142.7 L 584.8 138.4 M 584.8 138.4 L 585.2 133.6 M 585.2 133.6 L 584.8 128.6 M 584.8 128.6 L 583.4 124.2 M 583.4 124.2 L 581.3 120.2 M 581.3 120.2 L 578.2 116.8 M 578.2 116.8 L 574.4 113.9 M 574.4 113.9 L 569.9 111.9 M 569.9 111.9 L 564.6 110.6 M 564.6 110.6 L 558.6 110.3 M 558.6 110.3 L 552.9 110.6 M 552.9 110.6 L 547.8 111.8 M 547.8 111.8 L 543.4 113.8 M 543.4 113.8 L 539.7 116.7 M 539.7 116.7 L 536.8 120.1 M 536.8 120.1 L 534.7 124.2 M 534.7 124.2 L 533.4 128.8 M 533.4 128.8 L 533 134 M 533 134 L 533.2 138.2 M 563.9 119.5 L 563.9 119.5 M 563.9 119.5 L 563.9 147.4 M 563.9 147.4 L 566.8 146.9 M 566.8 146.9 L 569.4 146.3 M 569.4 146.3 L 571.6 145.4 M 571.6 145.4 L 573.4 144.2 M 573.4 144.2 L 575.5 142 M 575.5 142 L 577 139.5 M 577 139.5 L 577.9 136.8 M 577.9 136.8 L 578.2 133.7 M 578.2 133.7 L 578 130.9 M 578 130.9 L 577.3 128.3 M 577.3 128.3 L 576 126 M 576 126 L 574.4 123.8 M 574.4 123.8 L 572.2 122.1 M 572.2 122.1 L 569.8 120.8 M 569.8 120.8 L 567 119.9 M 567 119.9 L 563.9 119.5 M 533.2 191.9 L 533.2 191.9 M 533.2 191.9 L 534 195.6 M 534 195.6 L 535.3 199 M 535.3 199 L 537.2 202 M 537.2 202 L 539.5 204.6 M 539.5 204.6 L 542.3 206.7 M 542.3 206.7 L 545.5 208.4 M 545.5 208.4 L 549.1 209.7 M 549.1 209.7 L 550.2 200.9 M 550.2 200.9 L 547.7 199.9 M 547.7 199.9 L 547.7 199.9 M 547.7 199.9 L 545.5 198.7 M 545.5 198.7 L 545.5 198.7 M 545.5 198.7 L 543.8 197.3 M 543.8 197.3 L 543.8 197.3 M 543.8 197.3 L 542.3 195.7 M 542.3 195.7 L 542.3 195.7 M 542.3 195.7 L 541.3 194 M 541.3 194 L 541.3 194 M 541.3 194 L 540.5 192.1 M 540.5 192.1 L 540.5 192.1 M 540.5 192.1 L 540.1 190 M 540.1 190 L 540.1 190 M 540.1 190 L 539.9 187.7 M 539.9 187.7 L 539.9 187.7 M 539.9 187.7 L 540.2 184.7 M 540.2 184.7 L 540.2 184.7 M 540.2 184.7 L 541 182 M 541 182 L 541 182 M 541 182 L 542.3 179.5 M 542.3 179.5 L 542.4 179.5 M 542.4 179.5 L 544.3 177.3 M 544.3 177.3 L 544.3 177.3 M 544.3 177.3 L 546.7 175.4 M 546.7 175.4 L 546.7 175.4 M 546.7 175.4 L 549.6 174 M 549.6 174 L 549.6 174 M 549.6 174 L 553.1 173.1 M 553.1 173.1 L 553.1 173.1 M 553.1 173.1 L 556.9 172.6 M 556.9 172.6 L 556.9 172.6 M 556.9 172.6 L 556.9 209.9 M 556.9 209.9 L 557.6 209.9 M 557.6 209.9 L 558.2 209.9 M 558.2 209.9 L 558.8 209.9 M 558.8 209.9 L 559.2 209.9 M 559.2 209.9 L 565 209.5 M 565 209.5 L 570.2 208.4 M 570.2 208.4 L 574.6 206.4 M 574.6 206.4 L 578.4 203.6 M 578.4 203.6 L 581.4 200.2 M 581.4 200.2 L 583.5 196.3 M 583.5 196.3 L 584.8 192 M 584.8 192 L 585.2 187.2 M 585.2 187.2 L 584.8 182.3 M 584.8 182.3 L 583.4 177.9 M 583.4 177.9 L 581.3 173.9 M 581.3 173.9 L 578.2 170.4 M 578.2 170.4 L 574.4 167.5 M 574.4 167.5 L 569.9 165.5 M 569.9 165.5 L 564.6 164.3 M 564.6 164.3 L 558.6 163.9 M 558.6 163.9 L 552.9 164.3 M 552.9 164.3 L 547.8 165.5 M 547.8 165.5 L 543.4 167.5 M 543.4 167.5 L 539.7 170.3 M 539.7 170.3 L 536.8 173.8 M 536.8 173.8 L 534.7 177.9 M 534.7 177.9 L 533.4 182.5 M 533.4 182.5 L 533 187.7 M 533 187.7 L 533.2 191.9 M 563.9 173.1 L 563.9 173.1 M 563.9 173.1 L 563.9 201 M 563.9 201 L 566.8 200.6 M 566.8 200.6 L 569.4 199.9 M 569.4 199.9 L 571.6 199 M 571.6 199 L 573.4 197.8 M 573.4 197.8 L 575.5 195.6 M 575.5 195.6 L 577 193.2 M 577 193.2 L 577.9 190.4 M 577.9 190.4 L 578.2 187.3 M 578.2 187.3 L 578 184.5 M 578 184.5 L 577.3 181.9 M 577.3 181.9 L 576 179.6 M 576 179.6 L 574.4 177.5 M 574.4 177.5 L 572.2 175.7 M 572.2 175.7 L 569.8 174.4 M 569.8 174.4 L 567 173.5 M 567 173.5 L 563.9 173.1 M 533.4 243.1 L 533.4 243.1 M 533.4 243.1 L 534.8 246.9 M 534.8 246.9 L 537.1 250.1 M 537.1 250.1 L 540.4 252.8 M 540.4 252.8 L 540.4 252.8 M 540.4 252.8 L 534.1 252.8 M 534.1 252.8 L 534.1 260.6 M 534.1 260.6 L 603.1 260.6 M 603.1 260.6 L 603.1 252.2 M 603.1 252.2 L 578.3 252.2 M 578.3 252.2 L 578.3 252.2 M 578.3 252.2 L 579.8 251 M 579.8 251 L 581.1 249.7 M 581.1 249.7 L 582.3 248.1 M 582.3 248.1 L 583.3 246.5 M 583.3 246.5 L 584.1 244.6 M 584.1 244.6 L 584.7 242.7 M 584.7 242.7 L 585.1 240.6 M 585.1 240.6 L 585.2 238.4 M 585.2 238.4 L 585 235.4 M 585 235.4 L 584.4 232.5 M 584.4 232.5 L 583.4 229.8 M 583.4 229.8 L 581.9 227.3 M 581.9 227.3 L 580.1 224.9 M 580.1 224.9 L 578 222.9 M 578 222.9 L 575.5 221.2 M 575.5 221.2 L 572.6 219.8 M 572.6 219.8 L 569.5 218.7 M 569.5 218.7 L 566.2 217.9 M 566.2 217.9 L 562.7 217.5 M 562.7 217.5 L 559 217.3 M 559 217.3 L 555.3 217.5 M 555.3 217.5 L 551.8 218 M 551.8 218 L 548.5 218.8 M 548.5 218.8 L 545.5 220.1 M 545.5 220.1 L 542.7 221.6 M 542.7 221.6 L 540.2 223.4 M 540.2 223.4 L 538.1 225.5 M 538.1 225.5 L 536.2 227.8 M 536.2 227.8 L 534.8 230.4 M 534.8 230.4 L 533.8 233.1 M 533.8 233.1 L 533.2 235.9 M 533.2 235.9 L 533 238.8 M 533 238.8 L 533.4 243.1 M 559 226 L 559 226 M 559 226 L 554.5 226.2 M 554.5 226.2 L 550.6 227 M 550.6 227 L 547.3 228.2 M 547.3 228.2 L 544.7 230 M 544.7 230 L 542.6 232.1 M 542.6 232.1 L 541.1 234.5 M 541.1 234.5 L 540.2 236.9 M 540.2 236.9 L 539.9 239.6 M 539.9 239.6 L 540.2 242.3 M 540.2 242.3 L 541 244.7 M 541 244.7 L 542.5 247 M 542.5 247 L 544.5 249 M 544.5 249 L 547 250.7 M 547 250.7 L 550.2 251.9 M 550.2 251.9 L 554 252.7 M 554 252.7 L 558.3 252.9 M 558.3 252.9 L 563.1 252.7 M 563.1 252.7 L 567.2 251.9 M 567.2 251.9 L 570.6 250.7 M 570.6 250.7 L 573.4 249 M 573.4 249 L 575.5 246.9 M 575.5 246.9 L 577 244.5 M 577 244.5 L 577.9 242 M 577.9 242 L 578.2 239.2 M 578.2 239.2 L 577.9 236.5 M 577.9 236.5 L 577.1 234 M 577.1 234 L 575.6 231.8 M 575.6 231.8 L 573.6 229.8 M 573.6 229.8 L 571 228.1 M 571 228.1 L 567.7 226.9 M 567.7 226.9 L 563.7 226.2 M 563.7 226.2 L 559 226 M 533.1 321.6 L 533.1 321.6 M 533.1 321.6 L 533.5 324.4 M 533.5 324.4 L 534.1 326.9 M 534.1 326.9 L 535 329.3 M 535 329.3 L 536.1 331.5 M 536.1 331.5 L 537.5 333.4 M 537.5 333.4 L 539 335.1 M 539 335.1 L 540.8 336.4 M 540.8 336.4 L 542.7 337.5 M 542.7 337.5 L 544.7 338.3 M 544.7 338.3 L 546.7 338.8 M 546.7 338.8 L 548.8 338.9 M 548.8 338.9 L 550.8 338.8 M 550.8 338.8 L 552.7 338.4 M 552.7 338.4 L 554.5 337.8 M 554.5 337.8 L 556 336.9 M 556 336.9 L 557.4 335.8 M 557.4 335.8 L 558.6 334.5 M 558.6 334.5 L 559.6 333 M 559.6 333 L 560.5 331.3 M 560.5 331.3 L 561.3 329.2 M 561.3 329.2 L 562.2 326.4 M 562.2 326.4 L 563.2 322.9 M 563.2 322.9 L 564.4 318.8 M 564.4 318.8 L 564.4 318.8 M 564.4 318.8 L 565.2 316 M 565.2 316 L 565.2 316 M 565.2 316 L 565.8 313.8 M 565.8 313.8 L 565.8 313.8 M 565.8 313.8 L 566.2 312.2 M 566.2 312.2 L 566.2 312.2 M 566.2 312.2 L 566.6 311.3 M 566.6 311.3 L 566.6 311.3 M 566.6 311.3 L 567 310.3 M 567 310.3 L 567 310.3 M 567 310.3 L 567.6 309.4 M 567.6 309.4 L 567.6 309.4 M 567.6 309.4 L 568.2 308.6 M 568.2 308.6 L 568.2 308.6 M 568.2 308.6 L 568.8 308 M 568.8 308 L 568.8 308 M 568.8 308 L 569.5 307.6 M 569.5 307.6 L 569.5 307.6 M 569.5 307.6 L 570.2 307.2 M 570.2 307.2 L 570.2 307.2 M 570.2 307.2 L 571 307 M 571 307 L 571 307 M 571 307 L 571.8 307 M 571.8 307 L 571.8 307 M 571.8 307 L 573.1 307.1 M 573.1 307.1 L 573.1 307.1 M 573.1 307.1 L 574.2 307.6 M 574.2 307.6 L 574.2 307.6 M 574.2 307.6 L 575.3 308.4 M 575.3 308.4 L 575.3 308.4 M 575.3 308.4 L 576.3 309.5 M 576.3 309.5 L 576.3 309.5 M 576.3 309.5 L 577.2 310.9 M 577.2 310.9 L 577.2 310.9 M 577.2 310.9 L 577.8 312.8 M 577.8 312.8 L 577.8 312.8 M 577.8 312.8 L 578.2 315.1 M 578.2 315.1 L 578.2 315.1 M 578.2 315.1 L 578.3 317.8 M 578.3 317.8 L 578.3 317.8 M 578.3 317.8 L 578.1 320.2 M 578.1 320.2 L 578.1 320.2 M 578.1 320.2 L 577.7 322.2 M 577.7 322.2 L 577.7 322.2 M 577.7 322.2 L 577.1 324 M 577.1 324 L 577.1 324 M 577.1 324 L 576.1 325.5 M 576.1 325.5 L 576.1 325.5 M 576.1 325.5 L 574.9 326.7 M 574.9 326.7 L 574.9 326.7 M 574.9 326.7 L 573.5 327.7 M 573.5 327.7 L 573.5 327.7 M 573.5 327.7 L 571.9 328.4 M 571.9 328.4 L 571.9 328.4 M 571.9 328.4 L 570.1 328.8 M 570.1 328.8 L 571.2 337 M 571.2 337 L 573.5 336.6 M 573.5 336.6 L 575.5 335.9 M 575.5 335.9 L 577.3 335.1 M 577.3 335.1 L 578.9 334.1 M 578.9 334.1 L 580.3 332.9 M 580.3 332.9 L 581.5 331.4 M 581.5 331.4 L 582.6 329.6 M 582.6 329.6 L 583.5 327.5 M 583.5 327.5 L 584.2 325.2 M 584.2 325.2 L 584.8 322.7 M 584.8 322.7 L 585.1 320.1 M 585.1 320.1 L 585.2 317.2 M 585.2 317.2 L 585.1 315.3 M 585.1 315.3 L 584.9 313.4 M 584.9 313.4 L 584.6 311.6 M 584.6 311.6 L 584.2 309.9 M 584.2 309.9 L 583.6 308.3 M 583.6 308.3 L 583.1 306.8 M 583.1 306.8 L 582.4 305.6 M 582.4 305.6 L 581.7 304.5 M 581.7 304.5 L 580.7 303.2 M 580.7 303.2 L 579.6 302.1 M 579.6 302.1 L 578.4 301.2 M 578.4 301.2 L 577 300.3 M 577 300.3 L 575.5 299.7 M 575.5 299.7 L 574 299.2 M 574 299.2 L 572.5 298.9 M 572.5 298.9 L 570.8 298.8 M 570.8 298.8 L 569 298.9 M 569 298.9 L 567.3 299.3 M 567.3 299.3 L 565.6 299.9 M 565.6 299.9 L 564.1 300.7 M 564.1 300.7 L 562.7 301.7 M 562.7 301.7 L 561.4 303 M 561.4 303 L 560.3 304.4 M 560.3 304.4 L 559.4 306.1 M 559.4 306.1 L 558.4 308.3 M 558.4 308.3 L 557.5 311.2 M 557.5 311.2 L 556.4 314.7 M 556.4 314.7 L 555.3 319.1 M 555.3 319.1 L 555.3 319.1 M 555.3 319.1 L 554.5 322.2 M 554.5 322.2 L 554.5 322.2 M 554.5 322.2 L 553.7 324.7 M 553.7 324.7 L 553.7 324.7 M 553.7 324.7 L 553 326.5 M 553 326.5 L 553 326.5 M 553 326.5 L 552.4 327.7 M 552.4 327.7 L 552.4 327.7 M 552.4 327.7 L 551.5 328.8 M 551.5 328.8 L 551.5 328.8 M 551.5 328.8 L 550.5 329.6 M 550.5 329.6 L 550.5 329.6 M 550.5 329.6 L 549.2 330.1 M 549.2 330.1 L 549.2 330.1 M 549.2 330.1 L 547.9 330.2 M 547.9 330.2 L 547.9 330.2 M 547.9 330.2 L 546.3 330.1 M 546.3 330.1 L 546.3 330.1 M 546.3 330.1 L 544.9 329.5 M 544.9 329.5 L 544.9 329.5 M 544.9 329.5 L 543.5 328.6 M 543.5 328.6 L 543.5 328.6 M 543.5 328.6 L 542.3 327.4 M 542.3 327.4 L 542.3 327.4 M 542.3 327.4 L 541.2 325.8 M 541.2 325.8 L 541.2 325.8 M 541.2 325.8 L 540.5 323.8 M 540.5 323.8 L 540.5 323.8 M 540.5 323.8 L 540.1 321.5 M 540.1 321.5 L 540.1 321.4 M 540.1 321.4 L 539.9 318.7 M 539.9 318.7 L 539.9 318.7 M 539.9 318.7 L 540.1 316 M 540.1 316 L 540.1 316 M 540.1 316 L 540.6 313.6 M 540.6 313.6 L 540.6 313.6 M 540.6 313.6 L 541.4 311.5 M 541.4 311.5 L 541.4 311.5 M 541.4 311.5 L 542.6 309.7 M 542.6 309.7 L 542.6 309.7 M 542.6 309.7 L 544.1 308.2 M 544.1 308.2 L 544.1 308.2 M 544.1 308.2 L 545.8 307.1 M 545.8 307.1 L 545.8 307.1 M 545.8 307.1 L 547.9 306.3 M 547.9 306.3 L 547.9 306.3 M 547.9 306.3 L 550.3 305.8 M 550.3 305.8 L 549 297.4 M 549 297.4 L 545.3 298.3 M 545.3 298.3 L 542 299.7 M 542 299.7 L 539.3 301.6 M 539.3 301.6 L 537 303.9 M 537 303.9 L 535.3 306.8 M 535.3 306.8 L 534 310.2 M 534 310.2 L 533.2 314.2 M 533.2 314.2 L 533 318.8 M 533 318.8 L 533.1 321.6 M 584.1 411.5 L 584.1 411.5 M 584.1 411.5 L 584.1 403.3 M 584.1 403.3 L 555.2 394.7 M 555.2 394.7 L 555.2 394.7 M 555.2 394.7 L 545.5 391.9 M 545.5 391.9 L 545.5 391.9 M 545.5 391.9 L 555.1 389.4 M 555.1 389.4 L 555.1 389.4 M 555.1 389.4 L 584.1 381.9 M 584.1 381.9 L 584.1 373.2 M 584.1 373.2 L 554.8 365.2 M 554.8 365.2 L 550.6 364.2 M 550.6 364.2 L 547.5 363.4 M 547.5 363.4 L 545.4 362.9 M 545.4 362.9 L 544.5 362.6 M 544.5 362.6 L 544.5 362.6 M 544.5 362.6 L 555.2 359.6 M 555.2 359.6 L 555.2 359.6 M 555.2 359.6 L 584.1 351.7 M 584.1 351.7 L 584.1 343 M 584.1 343 L 534.1 358.2 M 534.1 358.2 L 534.1 367.1 M 534.1 367.1 L 572.6 377.2 M 572.6 377.2 L 572.6 377.2 M 572.6 377.2 L 564 379.2 M 564 379.2 L 534.1 387.1 M 534.1 387.1 L 534.1 395.9 M 534.1 395.9 L 584.1 411.5 M 603.1 427.2 L 603.1 427.2 M 603.1 427.2 L 603.1 418.7 M 603.1 418.7 L 593.4 418.7 M 593.4 418.7 L 593.4 427.2 M 593.4 427.2 L 603.1 427.2 M 584.1 427.2 L 584.1 427.2 M 584.1 427.2 L 584.1 418.7 M 584.1 418.7 L 534.1 418.7 M 534.1 418.7 L 534.1 427.2 M 534.1 427.2 L 584.1 427.2 M 533.5 454.9 L 533.5 454.9 M 533.5 454.9 L 533.6 456.4 M 533.6 456.4 L 533.9 458.1 M 533.9 458.1 L 534.2 459.8 M 534.2 459.8 L 541.6 458.6 M 541.6 458.6 L 541.5 457.5 M 541.5 457.5 L 541.5 457.5 M 541.5 457.5 L 541.4 456.5 M 541.4 456.5 L 541.4 456.5 M 541.4 456.5 L 541.3 455.6 M 541.3 455.6 L 541.3 455.6 M 541.3 455.6 L 541.3 454.9 M 541.3 454.9 L 541.3 454.9 M 541.3 454.9 L 541.4 454 M 541.4 454 L 541.4 454 M 541.4 454 L 541.5 453.2 M 541.5 453.2 L 541.5 453.2 M 541.5 453.2 L 541.6 452.5 M 541.6 452.5 L 541.7 452.5 M 541.7 452.5 L 541.9 452 M 541.9 452 L 541.9 452 M 541.9 452 L 542.3 451.5 M 542.3 451.5 L 542.3 451.5 M 542.3 451.5 L 542.7 451.1 M 542.7 451.1 L 542.7 451.1 M 542.7 451.1 L 543.1 450.8 M 543.1 450.8 L 543.1 450.8 M 543.1 450.8 L 543.6 450.5 M 543.6 450.5 L 543.6 450.5 M 543.6 450.5 L 544.3 450.3 M 544.3 450.3 L 544.3 450.3 M 544.3 450.3 L 545.3 450.2 M 545.3 450.2 L 545.3 450.2 M 545.3 450.2 L 546.6 450.1 M 546.6 450.1 L 546.6 450.1 M 546.6 450.1 L 548.2 450.1 M 548.2 450.1 L 548.2 450.1 M 548.2 450.1 L 577.5 450.1 M 577.5 450.1 L 577.5 450.1 M 577.5 450.1 L 577.5 458.6 M 577.5 458.6 L 584.1 458.6 M 584.1 458.6 L 584.1 450.1 M 584.1 450.1 L 584.1 450.1 M 584.1 450.1 L 601.5 450.1 M 601.5 450.1 L 596.5 441.7 M 596.5 441.7 L 584.1 441.7 M 584.1 441.7 L 584.1 441.7 M 584.1 441.7 L 584.1 435.5 M 584.1 435.5 L 577.5 435.5 M 577.5 435.5 L 577.5 441.7 M 577.5 441.7 L 577.5 441.7 M 577.5 441.7 L 548.7 441.7 M 548.7 441.7 L 545.3 441.8 M 545.3 441.8 L 542.4 441.9 M 542.4 441.9 L 540.2 442.3 M 540.2 442.3 L 538.7 442.7 M 538.7 442.7 L 537.6 443.3 M 537.6 443.3 L 536.6 444.1 M 536.6 444.1 L 535.7 445.1 M 535.7 445.1 L 534.9 446.3 M 534.9 446.3 L 534.3 447.7 M 534.3 447.7 L 533.8 449.4 M 533.8 449.4 L 533.5 451.2 M 533.5 451.2 L 533.4 453.4 M 533.4 453.4 L 533.5 454.9 M 533.3 491 L 533.3 491 M 533.3 491 L 534.2 494.6 M 534.2 494.6 L 535.7 497.9 M 535.7 497.9 L 537.8 500.8 M 537.8 500.8 L 540.5 503.4 M 540.5 503.4 L 543.6 505.4 M 543.6 505.4 L 547.2 506.9 M 547.2 506.9 L 551.3 507.9 M 551.3 507.9 L 552.4 499.5 M 552.4 499.5 L 549.4 499 M 549.4 499 L 549.4 499 M 549.4 499 L 546.9 498.1 M 546.9 498.1 L 546.9 498.1 M 546.9 498.1 L 544.7 496.8 M 544.7 496.8 L 544.7 496.8 M 544.7 496.8 L 543 495.3 M 543 495.3 L 543 495.3 M 543 495.3 L 541.6 493.5 M 541.6 493.5 L 541.6 493.5 M 541.6 493.5 L 540.6 491.6 M 540.6 491.6 L 540.6 491.6 M 540.6 491.6 L 540.1 489.4 M 540.1 489.4 L 540.1 489.4 M 540.1 489.4 L 539.9 486.9 M 539.9 486.9 L 539.9 486.9 M 539.9 486.9 L 540.2 484 M 540.2 484 L 540.2 484 M 540.2 484 L 541 481.3 M 541 481.3 L 541 481.3 M 541 481.3 L 542.5 479 M 542.5 479 L 542.5 479 M 542.5 479 L 544.5 476.9 M 544.5 476.9 L 544.5 476.9 M 544.5 476.9 L 547.1 475.2 M 547.1 475.2 L 547.1 475.2 M 547.1 475.2 L 550.4 474 M 550.4 474 L 550.4 474 M 550.4 474 L 554.4 473.2 M 554.4 473.2 L 554.4 473.2 M 554.4 473.2 L 559.1 473 M 559.1 473 L 559.1 473 M 559.1 473 L 563.8 473.2 M 563.8 473.2 L 563.8 473.2 M 563.8 473.2 L 567.7 474 M 567.7 474 L 567.7 474 M 567.7 474 L 571 475.3 M 571 475.3 L 571 475.3 M 571 475.3 L 573.7 477 M 573.7 477 L 573.7 477 M 573.7 477 L 575.7 479.2 M 575.7 479.2 L 575.7 479.2 M 575.7 479.2 L 577.1 481.6 M 577.1 481.6 L 577.1 481.6 M 577.1 481.6 L 578 484.4 M 578 484.4 L 578 484.4 M 578 484.4 L 578.3 487.4 M 578.3 487.4 L 578.3 487.4 M 578.3 487.4 L 578.1 489.5 M 578.1 489.5 L 578.1 489.5 M 578.1 489.5 L 577.6 491.4 M 577.6 491.4 L 577.6 491.4 M 577.6 491.4 L 576.8 493.1 M 576.8 493.1 L 576.8 493.1 M 576.8 493.1 L 575.7 494.7 M 575.7 494.7 L 575.7 494.7 M 575.7 494.7 L 574.3 496 M 574.3 496 L 574.3 496 M 574.3 496 L 572.5 497.2 M 572.5 497.2 L 572.5 497.2 M 572.5 497.2 L 570.5 498.1 M 570.5 498.1 L 570.5 498.1 M 570.5 498.1 L 568.1 498.8 M 568.1 498.8 L 569.4 507 M 569.4 507 L 573 506.1 M 573 506.1 L 576.1 504.7 M 576.1 504.7 L 578.8 502.8 M 578.8 502.8 L 581.1 500.4 M 581.1 500.4 L 582.9 497.7 M 582.9 497.7 L 584.2 494.5 M 584.2 494.5 L 584.9 491 M 584.9 491 L 585.2 487.1 M 585.2 487.1 L 585 483.9 M 585 483.9 L 584.4 480.9 M 584.4 480.9 L 583.5 478 M 583.5 478 L 582.2 475.2 M 582.2 475.2 L 580.5 472.6 M 580.5 472.6 L 578.4 470.4 M 578.4 470.4 L 575.9 468.5 M 575.9 468.5 L 573.1 467 M 573.1 467 L 569.9 465.8 M 569.9 465.8 L 566.5 465 M 566.5 465 L 562.8 464.5 M 562.8 464.5 L 558.9 464.3 M 558.9 464.3 L 553 464.7 M 553 464.7 L 547.8 465.9 M 547.8 465.9 L 543.4 467.8 M 543.4 467.8 L 539.7 470.6 M 539.7 470.6 L 536.8 473.9 M 536.8 473.9 L 534.6 477.8 M 534.6 477.8 L 533.4 482.2 M 533.4 482.2 L 533 487.1 M 533 487.1 L 533.3 491 M 561.4 523.6 L 561.4 523.6 M 561.4 523.6 L 561.4 523.6 M 561.4 523.6 L 564.2 523.7 M 564.2 523.7 L 564.2 523.7 M 564.2 523.7 L 566.7 523.9 M 566.7 523.9 L 566.7 523.9 M 566.7 523.9 L 568.8 524.4 M 568.8 524.4 L 568.8 524.4 M 568.8 524.4 L 570.7 525 M 570.7 525 L 570.7 525 M 570.7 525 L 572.3 525.8 M 572.3 525.8 L 572.3 525.8 M 572.3 525.8 L 573.7 526.9 M 573.7 526.9 L 573.7 526.9 M 573.7 526.9 L 574.9 528.2 M 574.9 528.2 L 574.9 528.2 M 574.9 528.2 L 576 529.7 M 576 529.7 L 576 529.7 M 576 529.7 L 576.8 531.4 M 576.8 531.4 L 576.8 531.4 M 576.8 531.4 L 577.5 533.2 M 577.5 533.2 L 577.5 533.2 M 577.5 533.2 L 577.8 535 M 577.8 535 L 577.8 535 M 577.8 535 L 577.9 536.8 M 577.9 536.8 L 577.9 536.8 M 577.9 536.8 L 577.8 539.2 M 577.8 539.2 L 577.8 539.2 M 577.8 539.2 L 577.2 541.3 M 577.2 541.3 L 577.2 541.3 M 577.2 541.3 L 576.3 543.1 M 576.3 543.1 L 576.3 543.1 M 576.3 543.1 L 575.1 544.7 M 575.1 544.7 L 575 544.7 M 575 544.7 L 573.4 545.8 M 573.4 545.8 L 573.4 545.8 M 573.4 545.8 L 571.3 546.7 M 571.3 546.7 L 571.3 546.7 M 571.3 546.7 L 568.7 547.2 M 568.7 547.2 L 568.7 547.2 M 568.7 547.2 L 565.8 547.4 M 565.8 547.4 L 565.8 547.4 M 565.8 547.4 L 534.1 547.4 M 534.1 547.4 L 534.1 555.8 M 534.1 555.8 L 565.8 555.8 M 565.8 555.8 L 569.2 555.7 M 569.2 555.7 L 572.3 555.4 M 572.3 555.4 L 574.8 554.9 M 574.8 554.9 L 577 554.1 M 577 554.1 L 578.8 553.1 M 578.8 553.1 L 580.4 551.8 M 580.4 551.8 L 581.8 550.1 M 581.8 550.1 L 583 548.2 M 583 548.2 L 584 546.1 M 584 546.1 L 584.7 543.8 M 584.7 543.8 L 585.1 541.3 M 585.1 541.3 L 585.2 538.6 M 585.2 538.6 L 584.8 534.3 M 584.8 534.3 L 583.5 530.3 M 583.5 530.3 L 581.4 526.8 M 581.4 526.8 L 578.3 523.6 M 578.3 523.6 L 578.3 523.6 M 578.3 523.6 L 603.1 523.6 M 603.1 523.6 L 603.1 515.1 M 603.1 515.1 L 534.1 515.1 M 534.1 515.1 L 534.1 523.6 M 534.1 523.6 L 561.4 523.6 M 561.4 604 L 561.4 604 M 561.4 604 L 561.4 604 M 561.4 604 L 564.2 604.1 M 564.2 604.1 L 564.2 604.1 M 564.2 604.1 L 566.7 604.4 M 566.7 604.4 L 566.7 604.4 M 566.7 604.4 L 568.8 604.8 M 568.8 604.8 L 568.8 604.8 M 568.8 604.8 L 570.7 605.5 M 570.7 605.5 L 570.7 605.5 M 570.7 605.5 L 572.3 606.3 M 572.3 606.3 L 572.3 606.3 M 572.3 606.3 L 573.7 607.3 M 573.7 607.3 L 573.7 607.3 M 573.7 607.3 L 574.9 608.6 M 574.9 608.6 L 574.9 608.6 M 574.9 608.6 L 576 610.2 M 576 610.2 L 576 610.2 M 576 610.2 L 576.8 611.9 M 576.8 611.9 L 576.8 611.9 M 576.8 611.9 L 577.5 613.6 M 577.5 613.6 L 577.5 613.6 M 577.5 613.6 L 577.8 615.4 M 577.8 615.4 L 577.8 615.4 M 577.8 615.4 L 577.9 617.3 M 577.9 617.3 L 577.9 617.3 M 577.9 617.3 L 577.8 619.7 M 577.8 619.7 L 577.8 619.7 M 577.8 619.7 L 577.2 621.8 M 577.2 621.8 L 577.2 621.8 M 577.2 621.8 L 576.3 623.6 M 576.3 623.6 L 576.3 623.6 M 576.3 623.6 L 575.1 625.1 M 575.1 625.1 L 575 625.1 M 575 625.1 L 573.4 626.3 M 573.4 626.3 L 573.4 626.3 M 573.4 626.3 L 571.3 627.1 M 571.3 627.1 L 571.3 627.1 M 571.3 627.1 L 568.7 627.7 M 568.7 627.7 L 568.7 627.7 M 568.7 627.7 L 565.8 627.9 M 565.8 627.9 L 565.8 627.9 M 565.8 627.9 L 534.1 627.9 M 534.1 627.9 L 534.1 636.3 M 534.1 636.3 L 565.8 636.3 M 565.8 636.3 L 569.2 636.2 M 569.2 636.2 L 572.3 635.8 M 572.3 635.8 L 574.8 635.3 M 574.8 635.3 L 577 634.5 M 577 634.5 L 578.8 633.5 M 578.8 633.5 L 580.4 632.2 M 580.4 632.2 L 581.8 630.6 M 581.8 630.6 L 583 628.7 M 583 628.7 L 584 626.5 M 584 626.5 L 584.7 624.2 M 584.7 624.2 L 585.1 621.7 M 585.1 621.7 L 585.2 619 M 585.2 619 L 584.8 614.7 M 584.8 614.7 L 583.5 610.8 M 583.5 610.8 L 581.4 607.2 M 581.4 607.2 L 578.3 604 M 578.3 604 L 578.3 604 M 578.3 604 L 603.1 604 M 603.1 604 L 603.1 595.6 M 603.1 595.6 L 534.1 595.6 M 534.1 595.6 L 534.1 604 M 534.1 604 L 561.4 604 M 533.2 672.7 L 533.2 672.7 M 533.2 672.7 L 533.7 675.8 M 533.7 675.8 L 534.7 678.8 M 534.7 678.8 L 536 681.6 M 536 681.6 L 537.7 684.2 M 537.7 684.2 L 539.7 686.4 M 539.7 686.4 L 542 688.4 M 542 688.4 L 544.6 690 M 544.6 690 L 547.6 691.3 M 547.6 691.3 L 551.2 692.2 M 551.2 692.2 L 555.2 692.7 M 555.2 692.7 L 559.8 692.9 M 559.8 692.9 L 565.4 692.5 M 565.4 692.5 L 570.4 691.3 M 570.4 691.3 L 574.7 689.2 M 574.7 689.2 L 578.4 686.4 M 578.4 686.4 L 581.4 682.9 M 581.4 682.9 L 583.5 678.9 M 583.5 678.9 L 584.8 674.4 M 584.8 674.4 L 585.2 669.5 M 585.2 669.5 L 584.9 665.1 M 584.9 665.1 L 583.8 661 M 583.8 661 L 582.1 657.2 M 582.1 657.2 L 579.7 653.8 M 579.7 653.8 L 575.8 650.4 M 575.8 650.4 L 571.2 648 M 571.2 648 L 565.6 646.6 M 565.6 646.6 L 559.1 646.1 M 559.1 646.1 L 553.1 646.5 M 553.1 646.5 L 547.9 647.7 M 547.9 647.7 L 543.4 649.7 M 543.4 649.7 L 539.7 652.5 M 539.7 652.5 L 536.8 656 M 536.8 656 L 534.7 660 M 534.7 660 L 533.4 664.5 M 533.4 664.5 L 533 669.5 M 533 669.5 L 533.2 672.7 M 559.1 654.8 L 559.1 654.8 M 559.1 654.8 L 554.6 655 M 554.6 655 L 550.7 655.8 M 550.7 655.8 L 547.4 657.1 M 547.4 657.1 L 544.7 659 M 544.7 659 L 542.6 661.2 M 542.6 661.2 L 541.1 663.7 M 541.1 663.7 L 540.2 666.5 M 540.2 666.5 L 539.9 669.5 M 539.9 669.5 L 540.2 672.5 M 540.2 672.5 L 541.1 675.3 M 541.1 675.3 L 542.6 677.8 M 542.6 677.8 L 544.7 680 M 544.7 680 L 547.4 681.8 M 547.4 681.8 L 550.8 683.2 M 550.8 683.2 L 554.7 684 M 554.7 684 L 559.4 684.2 M 559.4 684.2 L 563.7 684 M 563.7 684 L 567.5 683.2 M 567.5 683.2 L 570.8 681.8 M 570.8 681.8 L 573.4 680 M 573.4 680 L 575.5 677.8 M 575.5 677.8 L 577 675.3 M 577 675.3 L 577.9 672.5 M 577.9 672.5 L 578.2 669.5 M 578.2 669.5 L 577.9 666.5 M 577.9 666.5 L 577 663.7 M 577 663.7 L 575.5 661.2 M 575.5 661.2 L 573.4 659 M 573.4 659 L 570.8 657.1 M 570.8 657.1 L 567.5 655.8 M 567.5 655.8 L 563.6 655 M 563.6 655 L 559.1 654.8 M 603.1 711.1 L 603.1 711.1 M 603.1 711.1 L 603.1 702.7 M 603.1 702.7 L 534.1 702.7 M 534.1 702.7 L 534.1 711.1 M 534.1 711.1 L 603.1 711.1 M 533.4 747.1 L 533.4 747.1 M 533.4 747.1 L 534.8 750.8 M 534.8 750.8 L 537.1 754.1 M 537.1 754.1 L 540.4 756.7 M 540.4 756.7 L 540.4 756.8 M 540.4 756.8 L 534.1 756.8 M 534.1 756.8 L 534.1 764.6 M 534.1 764.6 L 603.1 764.6 M 603.1 764.6 L 603.1 756.2 M 603.1 756.2 L 578.3 756.2 M 578.3 756.2 L 578.3 756.2 M 578.3 756.2 L 579.8 755 M 579.8 755 L 581.1 753.6 M 581.1 753.6 L 582.3 752.1 M 582.3 752.1 L 583.3 750.4 M 583.3 750.4 L 584.1 748.6 M 584.1 748.6 L 584.7 746.6 M 584.7 746.6 L 585.1 744.6 M 585.1 744.6 L 585.2 742.4 M 585.2 742.4 L 585 739.4 M 585 739.4 L 584.4 736.5 M 584.4 736.5 L 583.4 733.8 M 583.4 733.8 L 581.9 731.2 M 581.9 731.2 L 580.1 728.9 M 580.1 728.9 L 578 726.9 M 578 726.9 L 575.5 725.1 M 575.5 725.1 L 572.6 723.7 M 572.6 723.7 L 569.5 722.7 M 569.5 722.7 L 566.2 721.9 M 566.2 721.9 L 562.7 721.4 M 562.7 721.4 L 559 721.2 M 559 721.2 L 555.3 721.4 M 555.3 721.4 L 551.8 721.9 M 551.8 721.9 L 548.5 722.8 M 548.5 722.8 L 545.5 724 M 545.5 724 L 542.7 725.5 M 542.7 725.5 L 540.2 727.3 M 540.2 727.3 L 538.1 729.4 M 538.1 729.4 L 536.2 731.8 M 536.2 731.8 L 534.8 734.3 M 534.8 734.3 L 533.8 737 M 533.8 737 L 533.2 739.8 M 533.2 739.8 L 533 742.7 M 533 742.7 L 533.4 747.1 M 559 729.9 L 559 729.9 M 559 729.9 L 554.5 730.2 M 554.5 730.2 L 550.6 731 M 550.6 731 L 547.3 732.2 M 547.3 732.2 L 544.7 734 M 544.7 734 L 542.6 736.1 M 542.6 736.1 L 541.1 738.4 M 541.1 738.4 L 540.2 740.9 M 540.2 740.9 L 539.9 743.6 M 539.9 743.6 L 540.2 746.2 M 540.2 746.2 L 541 748.7 M 541 748.7 L 542.5 751 M 542.5 751 L 544.5 753 M 544.5 753 L 547 754.7 M 547 754.7 L 550.2 755.9 M 550.2 755.9 L 554 756.6 M 554 756.6 L 558.3 756.9 M 558.3 756.9 L 563.1 756.6 M 563.1 756.6 L 567.2 755.9 M 567.2 755.9 L 570.6 754.7 M 570.6 754.7 L 573.4 752.9 M 573.4 752.9 L 575.5 750.8 M 575.5 750.8 L 577 748.5 M 577 748.5 L 577.9 746 M 577.9 746 L 578.2 743.2 M 578.2 743.2 L 577.9 740.5 M 577.9 740.5 L 577.1 738 M 577.1 738 L 575.6 735.7 M 575.6 735.7 L 573.6 733.7 M 573.6 733.7 L 571 732.1 M 571 732.1 L 567.7 730.9 M 567.7 730.9 L 563.7 730.2 M 563.7 730.2 L 559 729.9 M 533.2 803.1 L 533.2 803.1 M 533.2 803.1 L 534 806.9 M 534 806.9 L 535.3 810.3 M 535.3 810.3 L 537.2 813.2 M 537.2 813.2 L 539.5 815.8 M 539.5 815.8 L 542.3 818 M 542.3 818 L 545.5 819.7 M 545.5 819.7 L 549.1 820.9 M 549.1 820.9 L 550.2 812.2 M 550.2 812.2 L 547.7 811.1 M 547.7 811.1 L 547.7 811.1 M 547.7 811.1 L 545.5 809.9 M 545.5 809.9 L 545.5 809.9 M 545.5 809.9 L 543.8 808.5 M 543.8 808.5 L 543.8 808.5 M 543.8 808.5 L 542.3 806.9 M 542.3 806.9 L 542.3 806.9 M 542.3 806.9 L 541.3 805.2 M 541.3 805.2 L 541.3 805.2 M 541.3 805.2 L 540.5 803.3 M 540.5 803.3 L 540.5 803.3 M 540.5 803.3 L 540.1 801.2 M 540.1 801.2 L 540.1 801.2 M 540.1 801.2 L 539.9 799 M 539.9 799 L 539.9 799 M 539.9 799 L 540.2 796 M 540.2 796 L 540.2 796 M 540.2 796 L 541 793.2 M 541 793.2 L 541 793.2 M 541 793.2 L 542.3 790.7 M 542.3 790.7 L 542.4 790.7 M 542.4 790.7 L 544.3 788.5 M 544.3 788.5 L 544.3 788.5 M 544.3 788.5 L 546.7 786.6 M 546.7 786.6 L 546.7 786.6 M 546.7 786.6 L 549.6 785.3 M 549.6 785.3 L 549.6 785.3 M 549.6 785.3 L 553.1 784.3 M 553.1 784.3 L 553.1 784.3 M 553.1 784.3 L 556.9 783.8 M 556.9 783.8 L 556.9 783.8 M 556.9 783.8 L 556.9 821.2 M 556.9 821.2 L 557.6 821.2 M 557.6 821.2 L 558.2 821.2 M 558.2 821.2 L 558.8 821.2 M 558.8 821.2 L 559.2 821.2 M 559.2 821.2 L 565 820.8 M 565 820.8 L 570.2 819.6 M 570.2 819.6 L 574.6 817.6 M 574.6 817.6 L 578.4 814.8 M 578.4 814.8 L 581.4 811.4 M 581.4 811.4 L 583.5 807.6 M 583.5 807.6 L 584.8 803.2 M 584.8 803.2 L 585.2 798.5 M 585.2 798.5 L 584.8 793.5 M 584.8 793.5 L 583.4 789.1 M 583.4 789.1 L 581.3 785.1 M 581.3 785.1 L 578.2 781.6 M 578.2 781.6 L 574.4 778.8 M 574.4 778.8 L 569.9 776.8 M 569.9 776.8 L 564.6 775.5 M 564.6 775.5 L 558.6 775.1 M 558.6 775.1 L 552.9 775.5 M 552.9 775.5 L 547.8 776.7 M 547.8 776.7 L 543.4 778.7 M 543.4 778.7 L 539.7 781.6 M 539.7 781.6 L 536.8 785.1 M 536.8 785.1 L 534.7 789.1 M 534.7 789.1 L 533.4 793.7 M 533.4 793.7 L 533 799 M 533 799 L 533.2 803.1 M 563.9 784.4 L 563.9 784.4 M 563.9 784.4 L 563.9 812.3 M 563.9 812.3 L 566.8 811.9 M 566.8 811.9 L 569.4 811.2 M 569.4 811.2 L 571.6 810.3 M 571.6 810.3 L 573.4 809.1 M 573.4 809.1 L 575.5 806.9 M 575.5 806.9 L 577 804.4 M 577 804.4 L 577.9 801.6 M 577.9 801.6 L 578.2 798.6 M 578.2 798.6 L 578 795.8 M 578 795.8 L 577.3 793.2 M 577.3 793.2 L 576 790.8 M 576 790.8 L 574.4 788.8 M 574.4 788.8 L 572.2 787 M 572.2 787 L 569.8 785.6 M 569.8 785.6 L 567 784.8 M 567 784.8 L 563.9 784.4 M 560.3 839.9 L 560.3 839.9 M 560.3 839.9 L 560.3 839.9 M 560.3 839.9 L 562.9 840 M 562.9 840 L 562.9 840 M 562.9 840 L 565.4 840.3 M 565.4 840.3 L 565.4 840.3 M 565.4 840.3 L 567.9 840.7 M 567.9 840.7 L 567.9 840.7 M 567.9 840.7 L 570.2 841.4 M 570.2 841.4 L 570.2 841.4 M 570.2 841.4 L 571.6 841.9 M 571.6 841.9 L 571.6 841.9 M 571.6 841.9 L 572.8 842.6 M 572.8 842.6 L 572.8 842.6 M 572.8 842.6 L 573.9 843.5 M 573.9 843.5 L 573.9 843.5 M 573.9 843.5 L 574.8 844.5 M 574.8 844.5 L 574.8 844.5 M 574.8 844.5 L 575.5 845.6 M 575.5 845.6 L 575.5 845.6 M 575.5 845.6 L 576.1 846.9 M 576.1 846.9 L 576.1 846.9 M 576.1 846.9 L 576.4 848.2 M 576.4 848.2 L 576.4 848.2 M 576.4 848.2 L 576.5 849.5 M 576.5 849.5 L 576.5 849.5 M 576.5 849.5 L 576.4 851.1 M 576.4 851.1 L 576.4 851.1 M 576.4 851.1 L 576 852.6 M 576 852.6 L 576 852.6 M 576 852.6 L 575.5 854.2 M 575.5 854.2 L 575.5 854.2 M 575.5 854.2 L 574.7 855.7 M 574.7 855.7 L 582.5 858.6 M 582.5 858.6 L 583.7 856.4 M 583.7 856.4 L 584.5 854.3 M 584.5 854.3 L 585 852.1 M 585 852.1 L 585.2 849.9 M 585.2 849.9 L 585.1 848.5 M 585.1 848.5 L 584.8 847.1 M 584.8 847.1 L 584.2 845.8 M 584.2 845.8 L 583.5 844.5 M 583.5 844.5 L 582.4 843.2 M 582.4 843.2 L 580.9 841.9 M 580.9 841.9 L 578.9 840.6 M 578.9 840.6 L 576.5 839.1 M 576.5 839.1 L 576.5 839.1 M 576.5 839.1 L 584.1 839.1 M 584.1 839.1 L 584.1 831.5 M 584.1 831.5 L 534.1 831.5 M 534.1 831.5 L 534.1 839.9 M 534.1 839.9 L 560.3 839.9"/></g></g><use class="pcb_board-cf" mask="url(#pcb_bottom-cu_finish-mask)" xlink:href="#pcb_bottom-sm"/></g></g></svg>