%FSLAX33Y33*%
%MOMM*%
%ADD10C,0.15*%
D10*
%LNbottom silkscreen_traces*%
%LNbottom silkscreen component 1fd03bca117f9aec*%
G01*
X8940Y33411D02*
X8940Y31911D01*
X11960Y31911*
X11960Y33411*
X8940Y33411*
G36*
X12004Y30816D02*
X12004Y31532D01*
X11687Y31532D01*
X11642Y31530D01*
X11602Y31527D01*
X11569Y31521D01*
X11541Y31512D01*
X11517Y31501D01*
X11496Y31486D01*
X11478Y31467D01*
X11461Y31444D01*
X11448Y31419D01*
X11439Y31393D01*
X11434Y31365D01*
X11432Y31336D01*
X11435Y31300D01*
X11444Y31266D01*
X11459Y31236D01*
X11481Y31208D01*
X11509Y31184D01*
X11544Y31165D01*
X11585Y31151D01*
X11609Y31146D01*
X11624Y31223D01*
X11604Y31229D01*
X11587Y31237D01*
X11572Y31247D01*
X11559Y31258D01*
X11548Y31272D01*
X11540Y31287D01*
X11534Y31303D01*
X11530Y31319D01*
X11529Y31336D01*
X11532Y31361D01*
X11539Y31383D01*
X11550Y31402D01*
X11566Y31420D01*
X11587Y31434D01*
X11614Y31444D01*
X11645Y31450D01*
X11683Y31453D01*
X11909Y31453D01*
X11909Y31216D01*
X11909Y31216D01*
X11706Y31216D01*
X11675Y31217D01*
X11648Y31219D01*
X11624Y31223D01*
X11609Y31146D01*
X11633Y31141D01*
X11616Y31132D01*
X11600Y31124D01*
X11587Y31115D01*
X11576Y31106D01*
X11556Y31086D01*
X11536Y31063D01*
X11516Y31038D01*
X11498Y31011D01*
X11373Y30816D01*
X11492Y30816D01*
X11587Y30965D01*
X11607Y30995D01*
X11625Y31022D01*
X11641Y31044D01*
X11655Y31063D01*
X11668Y31079D01*
X11681Y31092D01*
X11692Y31103D01*
X11703Y31111D01*
X11714Y31118D01*
X11725Y31123D01*
X11736Y31127D01*
X11747Y31130D01*
X11756Y31132D01*
X11768Y31133D01*
X11782Y31133D01*
X11799Y31134D01*
X11909Y31134D01*
X11909Y30816D01*
X12004Y30816D01*
X12004Y30816D01*
X10988Y30816D02*
X11076Y30816D01*
X11076Y31376D01*
X11093Y31361D01*
X11112Y31346D01*
X11134Y31330D01*
X11159Y31315D01*
X11184Y31301D01*
X11208Y31289D01*
X11230Y31278D01*
X11251Y31270D01*
X11251Y31355D01*
X11216Y31373D01*
X11182Y31393D01*
X11151Y31415D01*
X11123Y31439D01*
X11097Y31463D01*
X11075Y31487D01*
X11058Y31511D01*
X11044Y31535D01*
X10988Y31535D01*
X10988Y30816D01*
X10988Y30816D01*
G37*
%LNbottom silkscreen component 48f42d382d4c7276*%
X8940Y6611D02*
X8940Y5111D01*
X11960Y5111*
X11960Y6611*
X8940Y6611*
G36*
X12004Y4016D02*
X12004Y4732D01*
X11687Y4732D01*
X11642Y4730D01*
X11602Y4727D01*
X11569Y4721D01*
X11541Y4712D01*
X11517Y4701D01*
X11496Y4686D01*
X11478Y4667D01*
X11461Y4644D01*
X11448Y4619D01*
X11439Y4593D01*
X11434Y4565D01*
X11432Y4536D01*
X11435Y4500D01*
X11444Y4466D01*
X11459Y4436D01*
X11481Y4408D01*
X11509Y4384D01*
X11544Y4365D01*
X11585Y4351D01*
X11609Y4346D01*
X11624Y4423D01*
X11604Y4429D01*
X11587Y4437D01*
X11572Y4447D01*
X11559Y4458D01*
X11548Y4472D01*
X11540Y4487D01*
X11534Y4503D01*
X11530Y4519D01*
X11529Y4536D01*
X11532Y4561D01*
X11539Y4583D01*
X11550Y4602D01*
X11566Y4620D01*
X11587Y4634D01*
X11614Y4644D01*
X11645Y4650D01*
X11683Y4653D01*
X11909Y4653D01*
X11909Y4416D01*
X11909Y4416D01*
X11706Y4416D01*
X11675Y4417D01*
X11648Y4419D01*
X11624Y4423D01*
X11609Y4346D01*
X11633Y4341D01*
X11616Y4332D01*
X11600Y4324D01*
X11587Y4315D01*
X11576Y4306D01*
X11556Y4286D01*
X11536Y4263D01*
X11516Y4238D01*
X11498Y4211D01*
X11373Y4016D01*
X11492Y4016D01*
X11587Y4165D01*
X11607Y4195D01*
X11625Y4222D01*
X11641Y4244D01*
X11655Y4263D01*
X11668Y4279D01*
X11681Y4292D01*
X11692Y4303D01*
X11703Y4311D01*
X11714Y4318D01*
X11725Y4323D01*
X11736Y4327D01*
X11747Y4330D01*
X11756Y4332D01*
X11768Y4333D01*
X11782Y4333D01*
X11799Y4334D01*
X11909Y4334D01*
X11909Y4016D01*
X12004Y4016D01*
X12004Y4016D01*
X11319Y4203D02*
X11227Y4211D01*
X11220Y4180D01*
X11210Y4152D01*
X11196Y4129D01*
X11179Y4110D01*
X11159Y4095D01*
X11138Y4084D01*
X11114Y4078D01*
X11089Y4076D01*
X11058Y4079D01*
X11030Y4088D01*
X11005Y4103D01*
X10981Y4124D01*
X10962Y4150D01*
X10948Y4179D01*
X10940Y4213D01*
X10937Y4251D01*
X10940Y4286D01*
X10948Y4318D01*
X10961Y4346D01*
X10980Y4369D01*
X11002Y4388D01*
X11028Y4402D01*
X11058Y4410D01*
X11090Y4413D01*
X11111Y4412D01*
X11131Y4408D01*
X11149Y4402D01*
X11167Y4393D01*
X11183Y4383D01*
X11198Y4371D01*
X11210Y4358D01*
X11221Y4343D01*
X11303Y4354D01*
X11234Y4722D01*
X10878Y4722D01*
X10878Y4638D01*
X11164Y4638D01*
X11202Y4445D01*
X11170Y4465D01*
X11136Y4479D01*
X11102Y4488D01*
X11067Y4490D01*
X11022Y4486D01*
X10980Y4474D01*
X10943Y4454D01*
X10909Y4425D01*
X10880Y4391D01*
X10860Y4351D01*
X10848Y4307D01*
X10844Y4258D01*
X10848Y4212D01*
X10858Y4168D01*
X10876Y4128D01*
X10901Y4091D01*
X10938Y4052D01*
X10982Y4025D01*
X11032Y4009D01*
X11089Y4004D01*
X11135Y4007D01*
X11178Y4017D01*
X11215Y4034D01*
X11248Y4058D01*
X11276Y4088D01*
X11297Y4122D01*
X11311Y4160D01*
X11319Y4203D01*
X11319Y4203D01*
G37*
%LNbottom silkscreen component 145f1bd0c0621054*%
X8940Y26686D02*
X8940Y25186D01*
X11960Y25186*
X11960Y26686*
X8940Y26686*
G36*
X12004Y24091D02*
X12004Y24807D01*
X11687Y24807D01*
X11642Y24805D01*
X11602Y24802D01*
X11569Y24796D01*
X11541Y24787D01*
X11517Y24776D01*
X11496Y24761D01*
X11478Y24742D01*
X11461Y24719D01*
X11448Y24694D01*
X11439Y24668D01*
X11434Y24640D01*
X11432Y24611D01*
X11435Y24575D01*
X11444Y24541D01*
X11459Y24511D01*
X11481Y24483D01*
X11509Y24459D01*
X11544Y24440D01*
X11585Y24426D01*
X11609Y24421D01*
X11624Y24498D01*
X11604Y24504D01*
X11587Y24512D01*
X11572Y24522D01*
X11559Y24533D01*
X11548Y24547D01*
X11540Y24562D01*
X11534Y24578D01*
X11530Y24594D01*
X11529Y24611D01*
X11532Y24636D01*
X11539Y24658D01*
X11550Y24677D01*
X11566Y24695D01*
X11587Y24709D01*
X11614Y24719D01*
X11645Y24725D01*
X11683Y24728D01*
X11909Y24728D01*
X11909Y24491D01*
X11909Y24491D01*
X11706Y24491D01*
X11675Y24492D01*
X11648Y24494D01*
X11624Y24498D01*
X11609Y24421D01*
X11633Y24416D01*
X11616Y24407D01*
X11600Y24399D01*
X11587Y24390D01*
X11576Y24381D01*
X11556Y24361D01*
X11536Y24338D01*
X11516Y24313D01*
X11498Y24286D01*
X11373Y24091D01*
X11492Y24091D01*
X11587Y24240D01*
X11607Y24270D01*
X11625Y24297D01*
X11641Y24319D01*
X11655Y24338D01*
X11668Y24354D01*
X11681Y24367D01*
X11692Y24378D01*
X11703Y24386D01*
X11714Y24393D01*
X11725Y24398D01*
X11736Y24402D01*
X11747Y24405D01*
X11756Y24407D01*
X11768Y24408D01*
X11782Y24408D01*
X11799Y24409D01*
X11909Y24409D01*
X11909Y24091D01*
X12004Y24091D01*
X12004Y24091D01*
X10857Y24175D02*
X10857Y24091D01*
X11330Y24091D01*
X11330Y24107D01*
X11328Y24122D01*
X11325Y24137D01*
X11320Y24152D01*
X11309Y24176D01*
X11296Y24200D01*
X11280Y24224D01*
X11262Y24247D01*
X11240Y24271D01*
X11213Y24298D01*
X11182Y24326D01*
X11147Y24355D01*
X11093Y24401D01*
X11049Y24441D01*
X11014Y24477D01*
X10989Y24507D01*
X10971Y24535D01*
X10958Y24561D01*
X10951Y24587D01*
X10948Y24613D01*
X10951Y24638D01*
X10958Y24661D01*
X10969Y24682D01*
X10986Y24701D01*
X11006Y24717D01*
X11029Y24728D01*
X11054Y24735D01*
X11083Y24737D01*
X11113Y24734D01*
X11140Y24727D01*
X11164Y24715D01*
X11185Y24699D01*
X11201Y24678D01*
X11213Y24653D01*
X11221Y24625D01*
X11223Y24593D01*
X11313Y24603D01*
X11306Y24650D01*
X11291Y24692D01*
X11271Y24727D01*
X11244Y24757D01*
X11211Y24780D01*
X11173Y24796D01*
X11129Y24806D01*
X11081Y24810D01*
X11032Y24806D01*
X10989Y24795D01*
X10951Y24777D01*
X10918Y24752D01*
X10892Y24722D01*
X10873Y24688D01*
X10862Y24651D01*
X10858Y24611D01*
X10859Y24589D01*
X10862Y24568D01*
X10868Y24547D01*
X10875Y24526D01*
X10886Y24505D01*
X10899Y24484D01*
X10915Y24462D01*
X10934Y24439D01*
X10958Y24414D01*
X10988Y24385D01*
X11025Y24351D01*
X11069Y24313D01*
X11105Y24282D01*
X11134Y24257D01*
X11156Y24237D01*
X11171Y24223D01*
X11182Y24211D01*
X11191Y24199D01*
X11200Y24187D01*
X11208Y24175D01*
X10857Y24175D01*
X10857Y24175D01*
G37*
%LNbottom silkscreen component 5d6e294dc6e30267*%
X8940Y13311D02*
X8940Y11811D01*
X11960Y11811*
X11960Y13311*
X8940Y13311*
G36*
X12004Y10716D02*
X12004Y11432D01*
X11687Y11432D01*
X11642Y11430D01*
X11602Y11427D01*
X11569Y11421D01*
X11541Y11412D01*
X11517Y11401D01*
X11496Y11386D01*
X11478Y11367D01*
X11461Y11344D01*
X11448Y11319D01*
X11439Y11293D01*
X11434Y11265D01*
X11432Y11236D01*
X11435Y11200D01*
X11444Y11166D01*
X11459Y11136D01*
X11481Y11108D01*
X11509Y11084D01*
X11544Y11065D01*
X11585Y11051D01*
X11609Y11046D01*
X11624Y11123D01*
X11604Y11129D01*
X11587Y11137D01*
X11572Y11147D01*
X11559Y11158D01*
X11548Y11172D01*
X11540Y11187D01*
X11534Y11203D01*
X11530Y11219D01*
X11529Y11236D01*
X11532Y11261D01*
X11539Y11283D01*
X11550Y11302D01*
X11566Y11320D01*
X11587Y11334D01*
X11614Y11344D01*
X11645Y11350D01*
X11683Y11353D01*
X11909Y11353D01*
X11909Y11116D01*
X11909Y11116D01*
X11706Y11116D01*
X11675Y11117D01*
X11648Y11119D01*
X11624Y11123D01*
X11609Y11046D01*
X11633Y11041D01*
X11616Y11032D01*
X11600Y11024D01*
X11587Y11015D01*
X11576Y11006D01*
X11556Y10986D01*
X11536Y10963D01*
X11516Y10938D01*
X11498Y10911D01*
X11373Y10716D01*
X11492Y10716D01*
X11587Y10865D01*
X11607Y10895D01*
X11625Y10922D01*
X11641Y10944D01*
X11655Y10963D01*
X11668Y10979D01*
X11681Y10992D01*
X11692Y11003D01*
X11703Y11011D01*
X11714Y11018D01*
X11725Y11023D01*
X11736Y11027D01*
X11747Y11030D01*
X11756Y11032D01*
X11768Y11033D01*
X11782Y11033D01*
X11799Y11034D01*
X11909Y11034D01*
X11909Y10716D01*
X12004Y10716D01*
X12004Y10716D01*
X11037Y10716D02*
X11037Y10887D01*
X11348Y10887D01*
X11348Y10968D01*
X11093Y11330D01*
X11037Y11291D01*
X11261Y10968D01*
X11037Y10968D01*
X11037Y10968D01*
X11037Y11291D01*
X11093Y11330D01*
X11021Y11432D01*
X10949Y11432D01*
X10949Y10968D01*
X10853Y10968D01*
X10853Y10887D01*
X10949Y10887D01*
X10949Y10716D01*
X11037Y10716D01*
X11037Y10716D01*
G37*
%LNbottom silkscreen component 23d714dbf6837599*%
X8940Y20011D02*
X8940Y18511D01*
X11960Y18511*
X11960Y20011*
X8940Y20011*
G36*
X12004Y17416D02*
X12004Y18132D01*
X11687Y18132D01*
X11642Y18130D01*
X11602Y18127D01*
X11569Y18121D01*
X11541Y18112D01*
X11517Y18101D01*
X11496Y18086D01*
X11478Y18067D01*
X11461Y18044D01*
X11448Y18019D01*
X11439Y17993D01*
X11434Y17965D01*
X11432Y17936D01*
X11435Y17900D01*
X11444Y17866D01*
X11459Y17836D01*
X11481Y17808D01*
X11509Y17784D01*
X11544Y17765D01*
X11585Y17751D01*
X11609Y17746D01*
X11624Y17823D01*
X11604Y17829D01*
X11587Y17837D01*
X11572Y17847D01*
X11559Y17858D01*
X11548Y17872D01*
X11540Y17887D01*
X11534Y17903D01*
X11530Y17919D01*
X11529Y17936D01*
X11532Y17961D01*
X11539Y17983D01*
X11550Y18002D01*
X11566Y18020D01*
X11587Y18034D01*
X11614Y18044D01*
X11645Y18050D01*
X11683Y18053D01*
X11909Y18053D01*
X11909Y17816D01*
X11909Y17816D01*
X11706Y17816D01*
X11675Y17817D01*
X11648Y17819D01*
X11624Y17823D01*
X11609Y17746D01*
X11633Y17741D01*
X11616Y17732D01*
X11600Y17724D01*
X11587Y17715D01*
X11576Y17706D01*
X11556Y17686D01*
X11536Y17663D01*
X11516Y17638D01*
X11498Y17611D01*
X11373Y17416D01*
X11492Y17416D01*
X11587Y17565D01*
X11607Y17595D01*
X11625Y17622D01*
X11641Y17644D01*
X11655Y17663D01*
X11668Y17679D01*
X11681Y17692D01*
X11692Y17703D01*
X11703Y17711D01*
X11714Y17718D01*
X11725Y17723D01*
X11736Y17727D01*
X11747Y17730D01*
X11756Y17732D01*
X11768Y17733D01*
X11782Y17733D01*
X11799Y17734D01*
X11909Y17734D01*
X11909Y17416D01*
X12004Y17416D01*
X12004Y17416D01*
X11318Y17605D02*
X11230Y17616D01*
X11222Y17582D01*
X11210Y17552D01*
X11196Y17528D01*
X11179Y17509D01*
X11160Y17494D01*
X11139Y17484D01*
X11115Y17478D01*
X11090Y17476D01*
X11061Y17479D01*
X11033Y17487D01*
X11008Y17500D01*
X10986Y17519D01*
X10967Y17542D01*
X10954Y17567D01*
X10946Y17595D01*
X10943Y17625D01*
X10945Y17654D01*
X10953Y17681D01*
X10965Y17704D01*
X10982Y17725D01*
X11004Y17742D01*
X11027Y17755D01*
X11054Y17762D01*
X11083Y17764D01*
X11096Y17764D01*
X11111Y17762D01*
X11127Y17759D01*
X11145Y17755D01*
X11135Y17832D01*
X11131Y17831D01*
X11127Y17831D01*
X11124Y17831D01*
X11121Y17831D01*
X11094Y17833D01*
X11068Y17838D01*
X11043Y17847D01*
X11020Y17860D01*
X11000Y17877D01*
X10986Y17897D01*
X10978Y17922D01*
X10975Y17950D01*
X10977Y17974D01*
X10983Y17995D01*
X10993Y18014D01*
X11008Y18031D01*
X11025Y18044D01*
X11045Y18054D01*
X11068Y18060D01*
X11092Y18062D01*
X11117Y18060D01*
X11139Y18054D01*
X11160Y18044D01*
X11178Y18030D01*
X11193Y18012D01*
X11206Y17990D01*
X11215Y17964D01*
X11222Y17933D01*
X11310Y17949D01*
X11299Y17991D01*
X11283Y18027D01*
X11262Y18059D01*
X11236Y18086D01*
X11206Y18107D01*
X11172Y18122D01*
X11135Y18132D01*
X11094Y18135D01*
X11066Y18133D01*
X11038Y18128D01*
X11012Y18120D01*
X10986Y18109D01*
X10963Y18096D01*
X10943Y18080D01*
X10925Y18061D01*
X10911Y18041D01*
X10899Y18019D01*
X10891Y17996D01*
X10886Y17973D01*
X10885Y17949D01*
X10886Y17926D01*
X10891Y17904D01*
X10899Y17884D01*
X10910Y17864D01*
X10924Y17846D01*
X10941Y17830D01*
X10960Y17816D01*
X10983Y17803D01*
X10953Y17794D01*
X10927Y17781D01*
X10904Y17764D01*
X10885Y17743D01*
X10869Y17718D01*
X10858Y17691D01*
X10852Y17660D01*
X10850Y17627D01*
X10854Y17582D01*
X10867Y17541D01*
X10888Y17503D01*
X10918Y17468D01*
X10954Y17440D01*
X10995Y17419D01*
X11041Y17407D01*
X11091Y17403D01*
X11136Y17407D01*
X11177Y17417D01*
X11214Y17435D01*
X11247Y17459D01*
X11275Y17489D01*
X11296Y17524D01*
X11311Y17562D01*
X11318Y17605D01*
X11318Y17605D01*
G37*
M02*