%FSLAX33Y33*%
%MOMM*%
%AMRR-H1600000-W3900000-R800000-RO0.000*
21,1,2.3,1.6,0.,0.,360*
1,1,1.6,-1.15,0.*
1,1,1.6,1.15,0.*
1,1,1.6,1.15,-0.*
1,1,1.6,-1.15,0.*%
%AMRR-H4099999-W1600000-R800000-RO0.000*
21,1,1.6,2.499999,0.,0.,360*
1,1,1.6,0.,1.2499995*
1,1,1.6,0.,1.2499995*
1,1,1.6,0.,-1.2499995*
1,1,1.6,-0.,-1.2499995*%
%ADD10C,0.0508*%
%ADD11R,4.6X1.6*%
%ADD12RR-H1600000-W3900000-R800000-RO0.000*%
%ADD13RR-H4099999-W1600000-R800000-RO0.000*%
%ADD14C,1.778*%
D10*
%LNpour fill*%
G01*
X8712Y9688D02*
X8712Y9688D01*
X8727Y9703*
X10998Y9703*
X10998Y16081*
X10951Y16101*
X10853Y16002*
X10851Y16001*
X10711Y15903*
X10709Y15902*
X10555Y15830*
X10553Y15829*
X10388Y15785*
X10386Y15784*
X10216Y15770*
X10214Y15770*
X10044Y15784*
X10042Y15785*
X9877Y15829*
X9875Y15830*
X9721Y15902*
X9719Y15903*
X9579Y16001*
X9577Y16002*
X9457Y16122*
X9456Y16124*
X9358Y16264*
X9357Y16266*
X9285Y16420*
X9284Y16422*
X9240Y16587*
X9239Y16589*
X9225Y16758*
X9225Y16759*
X9225Y19261*
X9225Y19262*
X9239Y19431*
X9240Y19433*
X9284Y19598*
X9285Y19600*
X9357Y19754*
X9358Y19756*
X9456Y19896*
X9457Y19898*
X9577Y20018*
X9579Y20019*
X9719Y20117*
X9721Y20118*
X9875Y20190*
X9877Y20191*
X10042Y20235*
X10044Y20236*
X10214Y20250*
X10216Y20250*
X10386Y20236*
X10388Y20235*
X10553Y20191*
X10555Y20190*
X10709Y20118*
X10711Y20117*
X10851Y20019*
X10853Y20018*
X10951Y19919*
X10998Y19939*
X10998Y21158*
X0432Y21158*
X0432Y19939*
X0479Y19919*
X0577Y20018*
X0579Y20019*
X0719Y20117*
X0721Y20118*
X0875Y20190*
X0877Y20191*
X1042Y20235*
X1044Y20236*
X1214Y20250*
X1216Y20250*
X1386Y20236*
X1388Y20235*
X1553Y20191*
X1555Y20190*
X1709Y20118*
X1711Y20117*
X1851Y20019*
X1853Y20018*
X1973Y19898*
X1974Y19896*
X2072Y19756*
X2073Y19754*
X2145Y19600*
X2146Y19598*
X2190Y19433*
X2191Y19431*
X2205Y19262*
X2206Y19261*
X2206Y16759*
X2205Y16758*
X2191Y16589*
X2190Y16587*
X2146Y16422*
X2145Y16420*
X2073Y16266*
X2072Y16264*
X1974Y16124*
X1973Y16122*
X1853Y16002*
X1851Y16001*
X1711Y15903*
X1709Y15902*
X1555Y15830*
X1553Y15829*
X1388Y15785*
X1386Y15784*
X1216Y15770*
X1214Y15770*
X1044Y15784*
X1042Y15785*
X0877Y15829*
X0875Y15830*
X0721Y15902*
X0719Y15903*
X0579Y16001*
X0577Y16002*
X0479Y16101*
X0432Y16081*
X0432Y9703*
X2703Y9703*
X2718Y9688*
X2718Y0432*
X8712Y0432*
X8712Y9688*
X5836Y19026D02*
X5836Y19026D01*
X6065Y19082*
X6068Y19083*
X6277Y19193*
X6280Y19195*
X6456Y19351*
X6458Y19354*
X6592Y19548*
X6594Y19551*
X6677Y19771*
X6678Y19774*
X6707Y20008*
X6707Y20012*
X6678Y20246*
X6677Y20249*
X6594Y20469*
X6592Y20472*
X6458Y20666*
X6456Y20669*
X6280Y20825*
X6277Y20827*
X6068Y20937*
X6065Y20938*
X5836Y20994*
X5833Y20994*
X5597Y20994*
X5594Y20994*
X5365Y20938*
X5362Y20937*
X5153Y20827*
X5150Y20825*
X4974Y20669*
X4972Y20666*
X4838Y20472*
X4836Y20469*
X4753Y20249*
X4752Y20246*
X4723Y20012*
X4723Y20008*
X4752Y19774*
X4753Y19771*
X4836Y19551*
X4838Y19548*
X4972Y19354*
X4974Y19351*
X5150Y19195*
X5153Y19193*
X5362Y19083*
X5365Y19082*
X5594Y19026*
X5597Y19026*
X5833Y19026*
X5836Y19026*
X5658Y16034D02*
X5658Y16034D01*
X5658Y16226*
X5772Y16226*
X5772Y16034*
X5787Y16020*
X6866Y16020*
X6867Y16020*
X7036Y16034*
X7038Y16035*
X7203Y16079*
X7205Y16080*
X7359Y16152*
X7361Y16153*
X7501Y16251*
X7503Y16252*
X7623Y16372*
X7624Y16374*
X7722Y16514*
X7723Y16516*
X7795Y16670*
X7796Y16672*
X7840Y16837*
X7841Y16839*
X7849Y16936*
X7834Y16953*
X7649Y16953*
X7649Y17067*
X7834Y17067*
X7849Y17084*
X7841Y17181*
X7840Y17183*
X7796Y17348*
X7795Y17350*
X7723Y17504*
X7722Y17506*
X7624Y17646*
X7623Y17648*
X7503Y17768*
X7501Y17769*
X7361Y17867*
X7359Y17868*
X7205Y17940*
X7203Y17941*
X7038Y17985*
X7036Y17986*
X6867Y18000*
X6866Y18001*
X5787Y18001*
X5772Y17986*
X5772Y17794*
X5658Y17794*
X5658Y17986*
X5643Y18001*
X4564Y18001*
X4563Y18000*
X4394Y17986*
X4392Y17985*
X4227Y17941*
X4225Y17940*
X4071Y17868*
X4069Y17867*
X3929Y17769*
X3927Y17768*
X3807Y17648*
X3806Y17646*
X3708Y17506*
X3707Y17504*
X3635Y17350*
X3634Y17348*
X3590Y17183*
X3589Y17181*
X3581Y17084*
X3596Y17067*
X3781Y17067*
X3781Y16953*
X3596Y16953*
X3581Y16936*
X3589Y16839*
X3590Y16837*
X3634Y16672*
X3635Y16670*
X3707Y16516*
X3708Y16514*
X3806Y16374*
X3807Y16372*
X3927Y16252*
X3929Y16251*
X4069Y16153*
X4071Y16152*
X4225Y16080*
X4227Y16079*
X4392Y16035*
X4394Y16034*
X4563Y16020*
X4564Y16020*
X5643Y16020*
X5658Y16034*
X8017Y10019D02*
X8017Y10019D01*
X8044Y10021*
X8046Y10021*
X8073Y10028*
X8075Y10028*
X8101Y10039*
X8103Y10040*
X8127Y10054*
X8128Y10056*
X8150Y10074*
X8151Y10075*
X8169Y10097*
X8171Y10098*
X8185Y10122*
X8186Y10124*
X8197Y10150*
X8197Y10152*
X8204Y10179*
X8204Y10181*
X8206Y10209*
X8207Y10210*
X8207Y11810*
X8206Y11811*
X8204Y11839*
X8204Y11841*
X8197Y11868*
X8197Y11870*
X8186Y11896*
X8185Y11898*
X8171Y11922*
X8169Y11923*
X8151Y11945*
X8150Y11946*
X8128Y11964*
X8127Y11966*
X8103Y11980*
X8101Y11981*
X8075Y11992*
X8073Y11992*
X8046Y11999*
X8044Y11999*
X8016Y12001*
X8015Y12002*
X3415Y12002*
X3414Y12001*
X3386Y11999*
X3384Y11999*
X3357Y11992*
X3355Y11992*
X3329Y11981*
X3327Y11980*
X3303Y11966*
X3302Y11964*
X3280Y11946*
X3279Y11945*
X3261Y11923*
X3259Y11922*
X3245Y11898*
X3244Y11896*
X3233Y11870*
X3233Y11868*
X3226Y11841*
X3226Y11839*
X3224Y11812*
X3224Y11811*
X3224Y10209*
X3224Y10208*
X3226Y10181*
X3226Y10179*
X3233Y10152*
X3233Y10150*
X3244Y10124*
X3245Y10122*
X3259Y10098*
X3261Y10097*
X3279Y10075*
X3280Y10074*
X3302Y10056*
X3303Y10054*
X3327Y10040*
X3329Y10039*
X3355Y10028*
X3357Y10028*
X3384Y10021*
X3386Y10021*
X3413Y10019*
X3414Y10019*
X8016Y10019*
X8017Y10019*
X4577Y6548D02*
X4577Y6548D01*
X4827Y6609*
X4830Y6610*
X5058Y6730*
X5060Y6732*
X5253Y6902*
X5255Y6905*
X5401Y7117*
X5402Y7119*
X5494Y7360*
X5494Y7363*
X5526Y7618*
X5526Y7622*
X5494Y7877*
X5494Y7880*
X5402Y8121*
X5401Y8123*
X5255Y8335*
X5253Y8338*
X5060Y8508*
X5058Y8510*
X4830Y8630*
X4827Y8631*
X4577Y8692*
X4574Y8693*
X4316Y8693*
X4313Y8692*
X4063Y8631*
X4060Y8630*
X3832Y8510*
X3830Y8508*
X3637Y8338*
X3635Y8335*
X3489Y8123*
X3488Y8121*
X3396Y7880*
X3396Y7877*
X3365Y7622*
X3365Y7618*
X3396Y7363*
X3396Y7360*
X3488Y7119*
X3489Y7117*
X3635Y6905*
X3637Y6902*
X3830Y6732*
X3832Y6730*
X4060Y6610*
X4063Y6609*
X4313Y6548*
X4316Y6547*
X4574Y6547*
X4577Y6548*
X6928Y6562D02*
X6928Y6562D01*
X6928Y6753*
X7042Y6753*
X7042Y6562*
X7057Y6547*
X7114Y6547*
X7117Y6548*
X7367Y6609*
X7370Y6610*
X7598Y6730*
X7600Y6732*
X7793Y6902*
X7795Y6905*
X7941Y7117*
X7942Y7119*
X8034Y7360*
X8034Y7363*
X8057Y7546*
X8042Y7563*
X7858Y7563*
X7858Y7677*
X8042Y7677*
X8057Y7694*
X8034Y7877*
X8034Y7880*
X7942Y8121*
X7941Y8123*
X7795Y8335*
X7793Y8338*
X7600Y8508*
X7598Y8510*
X7370Y8630*
X7367Y8631*
X7117Y8692*
X7114Y8693*
X7057Y8693*
X7042Y8678*
X7042Y8487*
X6928Y8487*
X6928Y8678*
X6913Y8693*
X6856Y8693*
X6853Y8692*
X6603Y8631*
X6600Y8630*
X6372Y8510*
X6370Y8508*
X6177Y8338*
X6175Y8335*
X6029Y8123*
X6028Y8121*
X5936Y7880*
X5936Y7877*
X5904Y7622*
X5904Y7618*
X5936Y7363*
X5936Y7360*
X6028Y7119*
X6029Y7117*
X6175Y6905*
X6177Y6902*
X6370Y6732*
X6372Y6730*
X6600Y6610*
X6603Y6609*
X6853Y6548*
X6856Y6547*
X6913Y6547*
X6928Y6562*
X4577Y4008D02*
X4577Y4008D01*
X4827Y4069*
X4830Y4070*
X5058Y4190*
X5060Y4192*
X5253Y4362*
X5255Y4365*
X5401Y4577*
X5402Y4579*
X5494Y4820*
X5494Y4823*
X5526Y5078*
X5526Y5082*
X5494Y5337*
X5494Y5340*
X5402Y5581*
X5401Y5583*
X5255Y5795*
X5253Y5798*
X5060Y5968*
X5058Y5970*
X4830Y6090*
X4827Y6091*
X4577Y6152*
X4574Y6153*
X4316Y6153*
X4313Y6152*
X4063Y6091*
X4060Y6090*
X3832Y5970*
X3830Y5968*
X3637Y5798*
X3635Y5795*
X3489Y5583*
X3488Y5581*
X3396Y5340*
X3396Y5337*
X3365Y5082*
X3365Y5078*
X3396Y4823*
X3396Y4820*
X3488Y4579*
X3489Y4577*
X3635Y4365*
X3637Y4362*
X3830Y4192*
X3832Y4190*
X4060Y4070*
X4063Y4069*
X4313Y4008*
X4316Y4007*
X4574Y4007*
X4577Y4008*
X6928Y4022D02*
X6928Y4022D01*
X6928Y4213*
X7042Y4213*
X7042Y4022*
X7057Y4007*
X7114Y4007*
X7117Y4008*
X7367Y4069*
X7370Y4070*
X7598Y4190*
X7600Y4192*
X7793Y4362*
X7795Y4365*
X7941Y4577*
X7942Y4579*
X8034Y4820*
X8034Y4823*
X8057Y5006*
X8042Y5023*
X7858Y5023*
X7858Y5137*
X8042Y5137*
X8057Y5154*
X8034Y5337*
X8034Y5340*
X7942Y5581*
X7941Y5583*
X7795Y5795*
X7793Y5798*
X7600Y5968*
X7598Y5970*
X7370Y6090*
X7367Y6091*
X7117Y6152*
X7114Y6153*
X7057Y6153*
X7042Y6138*
X7042Y5947*
X6928Y5947*
X6928Y6138*
X6913Y6153*
X6856Y6153*
X6853Y6152*
X6603Y6091*
X6600Y6090*
X6372Y5970*
X6370Y5968*
X6177Y5798*
X6175Y5795*
X6029Y5583*
X6028Y5581*
X5936Y5340*
X5936Y5337*
X5904Y5082*
X5904Y5078*
X5936Y4823*
X5936Y4820*
X6028Y4579*
X6029Y4577*
X6175Y4365*
X6177Y4362*
X6370Y4192*
X6372Y4190*
X6600Y4070*
X6603Y4069*
X6853Y4008*
X6856Y4007*
X6913Y4007*
X6928Y4022*
X2718Y0456D02*
X8712Y0456D01*
X2718Y0505D02*
X8712Y0505D01*
X2718Y0555D02*
X8712Y0555D01*
X2718Y0605D02*
X8712Y0605D01*
X2718Y0654D02*
X8712Y0654D01*
X2718Y0704D02*
X8712Y0704D01*
X2718Y0753D02*
X8712Y0753D01*
X2718Y0803D02*
X8712Y0803D01*
X2718Y0852D02*
X8712Y0852D01*
X2718Y0902D02*
X8712Y0902D01*
X2718Y0951D02*
X8712Y0951D01*
X2718Y1001D02*
X8712Y1001D01*
X2718Y1050D02*
X8712Y1050D01*
X2718Y1100D02*
X8712Y1100D01*
X2718Y1149D02*
X8712Y1149D01*
X2718Y1199D02*
X8712Y1199D01*
X2718Y1248D02*
X8712Y1248D01*
X2718Y1298D02*
X8712Y1298D01*
X2718Y1347D02*
X8712Y1347D01*
X2718Y1397D02*
X8712Y1397D01*
X2718Y1447D02*
X8712Y1447D01*
X2718Y1496D02*
X8712Y1496D01*
X2718Y1546D02*
X8712Y1546D01*
X2718Y1595D02*
X8712Y1595D01*
X2718Y1645D02*
X8712Y1645D01*
X2718Y1694D02*
X8712Y1694D01*
X2718Y1744D02*
X8712Y1744D01*
X2718Y1793D02*
X8712Y1793D01*
X2718Y1843D02*
X8712Y1843D01*
X2718Y1892D02*
X8712Y1892D01*
X2718Y1942D02*
X8712Y1942D01*
X2718Y1991D02*
X8712Y1991D01*
X2718Y2041D02*
X8712Y2041D01*
X2718Y2090D02*
X8712Y2090D01*
X2718Y2140D02*
X8712Y2140D01*
X2718Y2189D02*
X8712Y2189D01*
X2718Y2239D02*
X8712Y2239D01*
X2718Y2289D02*
X8712Y2289D01*
X2718Y2338D02*
X8712Y2338D01*
X2718Y2388D02*
X8712Y2388D01*
X2718Y2437D02*
X8712Y2437D01*
X2718Y2487D02*
X8712Y2487D01*
X2718Y2536D02*
X8712Y2536D01*
X2718Y2586D02*
X8712Y2586D01*
X2718Y2635D02*
X8712Y2635D01*
X2718Y2685D02*
X8712Y2685D01*
X2718Y2734D02*
X8712Y2734D01*
X2718Y2784D02*
X8712Y2784D01*
X2718Y2833D02*
X8712Y2833D01*
X2718Y2883D02*
X8712Y2883D01*
X2718Y2932D02*
X8712Y2932D01*
X2718Y2982D02*
X8712Y2982D01*
X2718Y3031D02*
X8712Y3031D01*
X2718Y3081D02*
X8712Y3081D01*
X2718Y3131D02*
X8712Y3131D01*
X2718Y3180D02*
X8712Y3180D01*
X2718Y3230D02*
X8712Y3230D01*
X2718Y3279D02*
X8712Y3279D01*
X2718Y3329D02*
X8712Y3329D01*
X2718Y3378D02*
X8712Y3378D01*
X2718Y3428D02*
X8712Y3428D01*
X2718Y3477D02*
X8712Y3477D01*
X2718Y3527D02*
X8712Y3527D01*
X2718Y3576D02*
X8712Y3576D01*
X2718Y3626D02*
X8712Y3626D01*
X2718Y3675D02*
X8712Y3675D01*
X2718Y3725D02*
X8712Y3725D01*
X2718Y3774D02*
X8712Y3774D01*
X2718Y3824D02*
X8712Y3824D01*
X2718Y3873D02*
X8712Y3873D01*
X2718Y3923D02*
X8712Y3923D01*
X2718Y3973D02*
X8712Y3973D01*
X2718Y4022D02*
X4254Y4022D01*
X4636Y4022D02*
X6794Y4022D01*
X6928Y4022D02*
X7042Y4022D01*
X7176Y4022D02*
X8712Y4022D01*
X2718Y4072D02*
X4058Y4072D01*
X4832Y4072D02*
X6598Y4072D01*
X6928Y4072D02*
X7042Y4072D01*
X7372Y4072D02*
X8712Y4072D01*
X2718Y4121D02*
X3963Y4121D01*
X4927Y4121D02*
X6503Y4121D01*
X6928Y4121D02*
X7042Y4121D01*
X7467Y4121D02*
X8712Y4121D01*
X2718Y4171D02*
X3869Y4171D01*
X5021Y4171D02*
X6409Y4171D01*
X6928Y4171D02*
X7042Y4171D01*
X7561Y4171D02*
X8712Y4171D01*
X2718Y4220D02*
X3798Y4220D01*
X5092Y4220D02*
X6338Y4220D01*
X7632Y4220D02*
X8712Y4220D01*
X2718Y4270D02*
X3742Y4270D01*
X5148Y4270D02*
X6282Y4270D01*
X7688Y4270D02*
X8712Y4270D01*
X2718Y4319D02*
X3686Y4319D01*
X5204Y4319D02*
X6226Y4319D01*
X7744Y4319D02*
X8712Y4319D01*
X2718Y4369D02*
X3632Y4369D01*
X5258Y4369D02*
X6172Y4369D01*
X7798Y4369D02*
X8712Y4369D01*
X2718Y4418D02*
X3598Y4418D01*
X5292Y4418D02*
X6138Y4418D01*
X7832Y4418D02*
X8712Y4418D01*
X2718Y4468D02*
X3564Y4468D01*
X5326Y4468D02*
X6104Y4468D01*
X7866Y4468D02*
X8712Y4468D01*
X2718Y4517D02*
X3530Y4517D01*
X5360Y4517D02*
X6070Y4517D01*
X7900Y4517D02*
X8712Y4517D01*
X2718Y4567D02*
X3496Y4567D01*
X5394Y4567D02*
X6036Y4567D01*
X7934Y4567D02*
X8712Y4567D01*
X2718Y4616D02*
X3473Y4616D01*
X5417Y4616D02*
X6013Y4616D01*
X7957Y4616D02*
X8712Y4616D01*
X2718Y4666D02*
X3455Y4666D01*
X5435Y4666D02*
X5995Y4666D01*
X7975Y4666D02*
X8712Y4666D01*
X2718Y4716D02*
X3436Y4716D01*
X5454Y4716D02*
X5976Y4716D01*
X7994Y4716D02*
X8712Y4716D01*
X2718Y4765D02*
X3417Y4765D01*
X5473Y4765D02*
X5957Y4765D01*
X8013Y4765D02*
X8712Y4765D01*
X2718Y4815D02*
X3398Y4815D01*
X5492Y4815D02*
X5938Y4815D01*
X8032Y4815D02*
X8712Y4815D01*
X2718Y4864D02*
X3391Y4864D01*
X5499Y4864D02*
X5931Y4864D01*
X8039Y4864D02*
X8712Y4864D01*
X2718Y4914D02*
X3385Y4914D01*
X5505Y4914D02*
X5925Y4914D01*
X8045Y4914D02*
X8712Y4914D01*
X2718Y4963D02*
X3379Y4963D01*
X5512Y4963D02*
X5919Y4963D01*
X8051Y4963D02*
X8712Y4963D01*
X2718Y5013D02*
X3372Y5013D01*
X5518Y5013D02*
X5912Y5013D01*
X8051Y5013D02*
X8712Y5013D01*
X2718Y5062D02*
X3366Y5062D01*
X5524Y5062D02*
X5906Y5062D01*
X7858Y5062D02*
X8712Y5062D01*
X2718Y5112D02*
X3368Y5112D01*
X5522Y5112D02*
X5908Y5112D01*
X7858Y5112D02*
X8712Y5112D01*
X2718Y5161D02*
X3374Y5161D01*
X5516Y5161D02*
X5914Y5161D01*
X8056Y5161D02*
X8712Y5161D01*
X2718Y5211D02*
X3380Y5211D01*
X5510Y5211D02*
X5920Y5211D01*
X8050Y5211D02*
X8712Y5211D01*
X2718Y5260D02*
X3386Y5260D01*
X5504Y5260D02*
X5926Y5260D01*
X8044Y5260D02*
X8712Y5260D01*
X2718Y5310D02*
X3392Y5310D01*
X5498Y5310D02*
X5932Y5310D01*
X8038Y5310D02*
X8712Y5310D01*
X2718Y5359D02*
X3404Y5359D01*
X5486Y5359D02*
X5944Y5359D01*
X8026Y5359D02*
X8712Y5359D01*
X2718Y5409D02*
X3422Y5409D01*
X5468Y5409D02*
X5962Y5409D01*
X8008Y5409D02*
X8712Y5409D01*
X2718Y5458D02*
X3441Y5458D01*
X5449Y5458D02*
X5981Y5458D01*
X7989Y5458D02*
X8712Y5458D01*
X2718Y5508D02*
X3460Y5508D01*
X5430Y5508D02*
X6000Y5508D01*
X7970Y5508D02*
X8712Y5508D01*
X2718Y5558D02*
X3479Y5558D01*
X5411Y5558D02*
X6019Y5558D01*
X7951Y5558D02*
X8712Y5558D01*
X2718Y5607D02*
X3505Y5607D01*
X5385Y5607D02*
X6045Y5607D01*
X7925Y5607D02*
X8712Y5607D01*
X2718Y5657D02*
X3539Y5657D01*
X5351Y5657D02*
X6079Y5657D01*
X7891Y5657D02*
X8712Y5657D01*
X2718Y5706D02*
X3574Y5706D01*
X5316Y5706D02*
X6114Y5706D01*
X7856Y5706D02*
X8712Y5706D01*
X2718Y5756D02*
X3608Y5756D01*
X5282Y5756D02*
X6148Y5756D01*
X7822Y5756D02*
X8712Y5756D01*
X2718Y5805D02*
X3646Y5805D01*
X5244Y5805D02*
X6186Y5805D01*
X7784Y5805D02*
X8712Y5805D01*
X2718Y5855D02*
X3702Y5855D01*
X5188Y5855D02*
X6242Y5855D01*
X7728Y5855D02*
X8712Y5855D01*
X2718Y5904D02*
X3758Y5904D01*
X5132Y5904D02*
X6298Y5904D01*
X7672Y5904D02*
X8712Y5904D01*
X2718Y5954D02*
X3813Y5954D01*
X5077Y5954D02*
X6353Y5954D01*
X6928Y5954D02*
X7042Y5954D01*
X7617Y5954D02*
X8712Y5954D01*
X2718Y6003D02*
X3896Y6003D01*
X4994Y6003D02*
X6436Y6003D01*
X6928Y6003D02*
X7042Y6003D01*
X7534Y6003D02*
X8712Y6003D01*
X2718Y6053D02*
X3990Y6053D01*
X4900Y6053D02*
X6530Y6053D01*
X6928Y6053D02*
X7042Y6053D01*
X7440Y6053D02*
X8712Y6053D01*
X2718Y6102D02*
X4110Y6102D01*
X4780Y6102D02*
X6650Y6102D01*
X6928Y6102D02*
X7042Y6102D01*
X7320Y6102D02*
X8712Y6102D01*
X2718Y6152D02*
X4311Y6152D01*
X4579Y6152D02*
X6851Y6152D01*
X6914Y6152D02*
X7056Y6152D01*
X7119Y6152D02*
X8712Y6152D01*
X2718Y6201D02*
X8712Y6201D01*
X2718Y6251D02*
X8712Y6251D01*
X2718Y6300D02*
X8712Y6300D01*
X2718Y6350D02*
X8712Y6350D01*
X2718Y6400D02*
X8712Y6400D01*
X2718Y6449D02*
X8712Y6449D01*
X2718Y6499D02*
X8712Y6499D01*
X2718Y6548D02*
X4311Y6548D01*
X4579Y6548D02*
X6851Y6548D01*
X6914Y6548D02*
X7056Y6548D01*
X7119Y6548D02*
X8712Y6548D01*
X2718Y6598D02*
X4110Y6598D01*
X4780Y6598D02*
X6650Y6598D01*
X6928Y6598D02*
X7042Y6598D01*
X7320Y6598D02*
X8712Y6598D01*
X2718Y6647D02*
X3990Y6647D01*
X4900Y6647D02*
X6530Y6647D01*
X6928Y6647D02*
X7042Y6647D01*
X7440Y6647D02*
X8712Y6647D01*
X2718Y6697D02*
X3896Y6697D01*
X4994Y6697D02*
X6436Y6697D01*
X6928Y6697D02*
X7042Y6697D01*
X7534Y6697D02*
X8712Y6697D01*
X2718Y6746D02*
X3813Y6746D01*
X5077Y6746D02*
X6353Y6746D01*
X6928Y6746D02*
X7042Y6746D01*
X7617Y6746D02*
X8712Y6746D01*
X2718Y6796D02*
X3758Y6796D01*
X5132Y6796D02*
X6298Y6796D01*
X7672Y6796D02*
X8712Y6796D01*
X2718Y6845D02*
X3702Y6845D01*
X5188Y6845D02*
X6242Y6845D01*
X7728Y6845D02*
X8712Y6845D01*
X2718Y6895D02*
X3646Y6895D01*
X5244Y6895D02*
X6186Y6895D01*
X7784Y6895D02*
X8712Y6895D01*
X2718Y6944D02*
X3608Y6944D01*
X5282Y6944D02*
X6148Y6944D01*
X7822Y6944D02*
X8712Y6944D01*
X2718Y6994D02*
X3574Y6994D01*
X5316Y6994D02*
X6114Y6994D01*
X7856Y6994D02*
X8712Y6994D01*
X2718Y7043D02*
X3539Y7043D01*
X5351Y7043D02*
X6079Y7043D01*
X7891Y7043D02*
X8712Y7043D01*
X2718Y7093D02*
X3505Y7093D01*
X5385Y7093D02*
X6045Y7093D01*
X7925Y7093D02*
X8712Y7093D01*
X2718Y7142D02*
X3479Y7142D01*
X5411Y7142D02*
X6019Y7142D01*
X7951Y7142D02*
X8712Y7142D01*
X2718Y7192D02*
X3460Y7192D01*
X5430Y7192D02*
X6000Y7192D01*
X7970Y7192D02*
X8712Y7192D01*
X2718Y7242D02*
X3441Y7242D01*
X5449Y7242D02*
X5981Y7242D01*
X7989Y7242D02*
X8712Y7242D01*
X2718Y7291D02*
X3422Y7291D01*
X5468Y7291D02*
X5962Y7291D01*
X8008Y7291D02*
X8712Y7291D01*
X2718Y7341D02*
X3404Y7341D01*
X5486Y7341D02*
X5944Y7341D01*
X8026Y7341D02*
X8712Y7341D01*
X2718Y7390D02*
X3392Y7390D01*
X5498Y7390D02*
X5932Y7390D01*
X8038Y7390D02*
X8712Y7390D01*
X2718Y7440D02*
X3386Y7440D01*
X5504Y7440D02*
X5926Y7440D01*
X8044Y7440D02*
X8712Y7440D01*
X2718Y7489D02*
X3380Y7489D01*
X5510Y7489D02*
X5920Y7489D01*
X8050Y7489D02*
X8712Y7489D01*
X2718Y7539D02*
X3374Y7539D01*
X5516Y7539D02*
X5914Y7539D01*
X8056Y7539D02*
X8712Y7539D01*
X2718Y7588D02*
X3368Y7588D01*
X5522Y7588D02*
X5908Y7588D01*
X7858Y7588D02*
X8712Y7588D01*
X2718Y7638D02*
X3366Y7638D01*
X5524Y7638D02*
X5906Y7638D01*
X7858Y7638D02*
X8712Y7638D01*
X2718Y7687D02*
X3372Y7687D01*
X5518Y7687D02*
X5912Y7687D01*
X8051Y7687D02*
X8712Y7687D01*
X2718Y7737D02*
X3379Y7737D01*
X5512Y7737D02*
X5919Y7737D01*
X8051Y7737D02*
X8712Y7737D01*
X2718Y7786D02*
X3385Y7786D01*
X5505Y7786D02*
X5925Y7786D01*
X8045Y7786D02*
X8712Y7786D01*
X2718Y7836D02*
X3391Y7836D01*
X5499Y7836D02*
X5931Y7836D01*
X8039Y7836D02*
X8712Y7836D01*
X2718Y7885D02*
X3398Y7885D01*
X5492Y7885D02*
X5938Y7885D01*
X8032Y7885D02*
X8712Y7885D01*
X2718Y7935D02*
X3417Y7935D01*
X5473Y7935D02*
X5957Y7935D01*
X8013Y7935D02*
X8712Y7935D01*
X2718Y7984D02*
X3436Y7984D01*
X5454Y7984D02*
X5976Y7984D01*
X7994Y7984D02*
X8712Y7984D01*
X2718Y8034D02*
X3455Y8034D01*
X5435Y8034D02*
X5995Y8034D01*
X7975Y8034D02*
X8712Y8034D01*
X2718Y8084D02*
X3473Y8084D01*
X5417Y8084D02*
X6013Y8084D01*
X7957Y8084D02*
X8712Y8084D01*
X2718Y8133D02*
X3496Y8133D01*
X5394Y8133D02*
X6036Y8133D01*
X7934Y8133D02*
X8712Y8133D01*
X2718Y8183D02*
X3530Y8183D01*
X5360Y8183D02*
X6070Y8183D01*
X7900Y8183D02*
X8712Y8183D01*
X2718Y8232D02*
X3564Y8232D01*
X5326Y8232D02*
X6104Y8232D01*
X7866Y8232D02*
X8712Y8232D01*
X2718Y8282D02*
X3598Y8282D01*
X5292Y8282D02*
X6138Y8282D01*
X7832Y8282D02*
X8712Y8282D01*
X2718Y8331D02*
X3632Y8331D01*
X5258Y8331D02*
X6172Y8331D01*
X7798Y8331D02*
X8712Y8331D01*
X2718Y8381D02*
X3686Y8381D01*
X5204Y8381D02*
X6226Y8381D01*
X7744Y8381D02*
X8712Y8381D01*
X2718Y8430D02*
X3742Y8430D01*
X5148Y8430D02*
X6282Y8430D01*
X7688Y8430D02*
X8712Y8430D01*
X2718Y8480D02*
X3798Y8480D01*
X5092Y8480D02*
X6338Y8480D01*
X7632Y8480D02*
X8712Y8480D01*
X2718Y8529D02*
X3869Y8529D01*
X5021Y8529D02*
X6409Y8529D01*
X6928Y8529D02*
X7042Y8529D01*
X7561Y8529D02*
X8712Y8529D01*
X2718Y8579D02*
X3963Y8579D01*
X4927Y8579D02*
X6503Y8579D01*
X6928Y8579D02*
X7042Y8579D01*
X7467Y8579D02*
X8712Y8579D01*
X2718Y8628D02*
X4058Y8628D01*
X4832Y8628D02*
X6598Y8628D01*
X6928Y8628D02*
X7042Y8628D01*
X7372Y8628D02*
X8712Y8628D01*
X2718Y8678D02*
X4254Y8678D01*
X4636Y8678D02*
X6794Y8678D01*
X6928Y8678D02*
X7042Y8678D01*
X7176Y8678D02*
X8712Y8678D01*
X2718Y8727D02*
X8712Y8727D01*
X2718Y8777D02*
X8712Y8777D01*
X2718Y8826D02*
X8712Y8826D01*
X2718Y8876D02*
X8712Y8876D01*
X2718Y8926D02*
X8712Y8926D01*
X2718Y8975D02*
X8712Y8975D01*
X2718Y9025D02*
X8712Y9025D01*
X2718Y9074D02*
X8712Y9074D01*
X2718Y9124D02*
X8712Y9124D01*
X2718Y9173D02*
X8712Y9173D01*
X2718Y9223D02*
X8712Y9223D01*
X2718Y9272D02*
X8712Y9272D01*
X2718Y9322D02*
X8712Y9322D01*
X2718Y9371D02*
X8712Y9371D01*
X2718Y9421D02*
X8712Y9421D01*
X2718Y9470D02*
X8712Y9470D01*
X2718Y9520D02*
X8712Y9520D01*
X2718Y9569D02*
X8712Y9569D01*
X2718Y9619D02*
X8712Y9619D01*
X2718Y9669D02*
X8712Y9669D01*
X0432Y9718D02*
X10998Y9718D01*
X0432Y9768D02*
X10998Y9768D01*
X0432Y9817D02*
X10998Y9817D01*
X0432Y9867D02*
X10998Y9867D01*
X0432Y9916D02*
X10998Y9916D01*
X0432Y9966D02*
X10998Y9966D01*
X0432Y10015D02*
X10998Y10015D01*
X0432Y10065D02*
X3291Y10065D01*
X8139Y10065D02*
X10998Y10065D01*
X0432Y10114D02*
X3250Y10114D01*
X8180Y10114D02*
X10998Y10114D01*
X0432Y10164D02*
X3230Y10164D01*
X8200Y10164D02*
X10998Y10164D01*
X0432Y10213D02*
X3224Y10213D01*
X8207Y10213D02*
X10998Y10213D01*
X0432Y10263D02*
X3224Y10263D01*
X8207Y10263D02*
X10998Y10263D01*
X0432Y10312D02*
X3224Y10312D01*
X8207Y10312D02*
X10998Y10312D01*
X0432Y10362D02*
X3224Y10362D01*
X8207Y10362D02*
X10998Y10362D01*
X0432Y10411D02*
X3224Y10411D01*
X8207Y10411D02*
X10998Y10411D01*
X0432Y10461D02*
X3224Y10461D01*
X8207Y10461D02*
X10998Y10461D01*
X0432Y10511D02*
X3224Y10511D01*
X8207Y10511D02*
X10998Y10511D01*
X0432Y10560D02*
X3224Y10560D01*
X8207Y10560D02*
X10998Y10560D01*
X0432Y10610D02*
X3224Y10610D01*
X8207Y10610D02*
X10998Y10610D01*
X0432Y10659D02*
X3224Y10659D01*
X8207Y10659D02*
X10998Y10659D01*
X0432Y10709D02*
X3224Y10709D01*
X8207Y10709D02*
X10998Y10709D01*
X0432Y10758D02*
X3224Y10758D01*
X8207Y10758D02*
X10998Y10758D01*
X0432Y10808D02*
X3224Y10808D01*
X8207Y10808D02*
X10998Y10808D01*
X0432Y10857D02*
X3224Y10857D01*
X8207Y10857D02*
X10998Y10857D01*
X0432Y10907D02*
X3224Y10907D01*
X8207Y10907D02*
X10998Y10907D01*
X0432Y10956D02*
X3224Y10956D01*
X8207Y10956D02*
X10998Y10956D01*
X0432Y11006D02*
X3224Y11006D01*
X8207Y11006D02*
X10998Y11006D01*
X0432Y11055D02*
X3224Y11055D01*
X8207Y11055D02*
X10998Y11055D01*
X0432Y11105D02*
X3224Y11105D01*
X8207Y11105D02*
X10998Y11105D01*
X0432Y11154D02*
X3224Y11154D01*
X8207Y11154D02*
X10998Y11154D01*
X0432Y11204D02*
X3224Y11204D01*
X8207Y11204D02*
X10998Y11204D01*
X0432Y11253D02*
X3224Y11253D01*
X8207Y11253D02*
X10998Y11253D01*
X0432Y11303D02*
X3224Y11303D01*
X8207Y11303D02*
X10998Y11303D01*
X0432Y11353D02*
X3224Y11353D01*
X8207Y11353D02*
X10998Y11353D01*
X0432Y11402D02*
X3224Y11402D01*
X8207Y11402D02*
X10998Y11402D01*
X0432Y11452D02*
X3224Y11452D01*
X8207Y11452D02*
X10998Y11452D01*
X0432Y11501D02*
X3224Y11501D01*
X8207Y11501D02*
X10998Y11501D01*
X0432Y11551D02*
X3224Y11551D01*
X8207Y11551D02*
X10998Y11551D01*
X0432Y11600D02*
X3224Y11600D01*
X8207Y11600D02*
X10998Y11600D01*
X0432Y11650D02*
X3224Y11650D01*
X8207Y11650D02*
X10998Y11650D01*
X0432Y11699D02*
X3224Y11699D01*
X8207Y11699D02*
X10998Y11699D01*
X0432Y11749D02*
X3224Y11749D01*
X8207Y11749D02*
X10998Y11749D01*
X0432Y11798D02*
X3224Y11798D01*
X8207Y11798D02*
X10998Y11798D01*
X0432Y11848D02*
X3228Y11848D01*
X8202Y11848D02*
X10998Y11848D01*
X0432Y11897D02*
X3245Y11897D01*
X8185Y11897D02*
X10998Y11897D01*
X0432Y11947D02*
X3281Y11947D01*
X8149Y11947D02*
X10998Y11947D01*
X0432Y11996D02*
X3373Y11996D01*
X8057Y11996D02*
X10998Y11996D01*
X0432Y12046D02*
X10998Y12046D01*
X0432Y12095D02*
X10998Y12095D01*
X0432Y12145D02*
X10998Y12145D01*
X0432Y12195D02*
X10998Y12195D01*
X0432Y12244D02*
X10998Y12244D01*
X0432Y12294D02*
X10998Y12294D01*
X0432Y12343D02*
X10998Y12343D01*
X0432Y12393D02*
X10998Y12393D01*
X0432Y12442D02*
X10998Y12442D01*
X0432Y12492D02*
X10998Y12492D01*
X0432Y12541D02*
X10998Y12541D01*
X0432Y12591D02*
X10998Y12591D01*
X0432Y12640D02*
X10998Y12640D01*
X0432Y12690D02*
X10998Y12690D01*
X0432Y12739D02*
X10998Y12739D01*
X0432Y12789D02*
X10998Y12789D01*
X0432Y12838D02*
X10998Y12838D01*
X0432Y12888D02*
X10998Y12888D01*
X0432Y12937D02*
X10998Y12937D01*
X0432Y12987D02*
X10998Y12987D01*
X0432Y13037D02*
X10998Y13037D01*
X0432Y13086D02*
X10998Y13086D01*
X0432Y13136D02*
X10998Y13136D01*
X0432Y13185D02*
X10998Y13185D01*
X0432Y13235D02*
X10998Y13235D01*
X0432Y13284D02*
X10998Y13284D01*
X0432Y13334D02*
X10998Y13334D01*
X0432Y13383D02*
X10998Y13383D01*
X0432Y13433D02*
X10998Y13433D01*
X0432Y13482D02*
X10998Y13482D01*
X0432Y13532D02*
X10998Y13532D01*
X0432Y13581D02*
X10998Y13581D01*
X0432Y13631D02*
X10998Y13631D01*
X0432Y13680D02*
X10998Y13680D01*
X0432Y13730D02*
X10998Y13730D01*
X0432Y13780D02*
X10998Y13780D01*
X0432Y13829D02*
X10998Y13829D01*
X0432Y13879D02*
X10998Y13879D01*
X0432Y13928D02*
X10998Y13928D01*
X0432Y13978D02*
X10998Y13978D01*
X0432Y14027D02*
X10998Y14027D01*
X0432Y14077D02*
X10998Y14077D01*
X0432Y14126D02*
X10998Y14126D01*
X0432Y14176D02*
X10998Y14176D01*
X0432Y14225D02*
X10998Y14225D01*
X0432Y14275D02*
X10998Y14275D01*
X0432Y14324D02*
X10998Y14324D01*
X0432Y14374D02*
X10998Y14374D01*
X0432Y14423D02*
X10998Y14423D01*
X0432Y14473D02*
X10998Y14473D01*
X0432Y14522D02*
X10998Y14522D01*
X0432Y14572D02*
X10998Y14572D01*
X0432Y14622D02*
X10998Y14622D01*
X0432Y14671D02*
X10998Y14671D01*
X0432Y14721D02*
X10998Y14721D01*
X0432Y14770D02*
X10998Y14770D01*
X0432Y14820D02*
X10998Y14820D01*
X0432Y14869D02*
X10998Y14869D01*
X0432Y14919D02*
X10998Y14919D01*
X0432Y14968D02*
X10998Y14968D01*
X0432Y15018D02*
X10998Y15018D01*
X0432Y15067D02*
X10998Y15067D01*
X0432Y15117D02*
X10998Y15117D01*
X0432Y15166D02*
X10998Y15166D01*
X0432Y15216D02*
X10998Y15216D01*
X0432Y15265D02*
X10998Y15265D01*
X0432Y15315D02*
X10998Y15315D01*
X0432Y15364D02*
X10998Y15364D01*
X0432Y15414D02*
X10998Y15414D01*
X0432Y15464D02*
X10998Y15464D01*
X0432Y15513D02*
X10998Y15513D01*
X0432Y15563D02*
X10998Y15563D01*
X0432Y15612D02*
X10998Y15612D01*
X0432Y15662D02*
X10998Y15662D01*
X0432Y15711D02*
X10998Y15711D01*
X0432Y15761D02*
X10998Y15761D01*
X0432Y15810D02*
X0947Y15810D01*
X1483Y15810D02*
X9947Y15810D01*
X10483Y15810D02*
X10998Y15810D01*
X0432Y15860D02*
X0811Y15860D01*
X1619Y15860D02*
X9811Y15860D01*
X10619Y15860D02*
X10998Y15860D01*
X0432Y15909D02*
X0709Y15909D01*
X1721Y15909D02*
X9709Y15909D01*
X10721Y15909D02*
X10998Y15909D01*
X0432Y15959D02*
X0639Y15959D01*
X1791Y15959D02*
X9639Y15959D01*
X10791Y15959D02*
X10998Y15959D01*
X0432Y16008D02*
X0571Y16008D01*
X1859Y16008D02*
X9571Y16008D01*
X10859Y16008D02*
X10998Y16008D01*
X0432Y16058D02*
X0522Y16058D01*
X1908Y16058D02*
X4306Y16058D01*
X5658Y16058D02*
X5772Y16058D01*
X7124Y16058D02*
X9522Y16058D01*
X10908Y16058D02*
X10998Y16058D01*
X1958Y16107D02*
X4166Y16107D01*
X5658Y16107D02*
X5772Y16107D01*
X7264Y16107D02*
X9472Y16107D01*
X1997Y16157D02*
X4063Y16157D01*
X5658Y16157D02*
X5772Y16157D01*
X7367Y16157D02*
X9433Y16157D01*
X2032Y16206D02*
X3992Y16206D01*
X5658Y16206D02*
X5772Y16206D01*
X7438Y16206D02*
X9398Y16206D01*
X2067Y16256D02*
X3923Y16256D01*
X7507Y16256D02*
X9363Y16256D01*
X2092Y16306D02*
X3874Y16306D01*
X7556Y16306D02*
X9338Y16306D01*
X2115Y16355D02*
X3824Y16355D01*
X7606Y16355D02*
X9315Y16355D01*
X2138Y16405D02*
X3784Y16405D01*
X7646Y16405D02*
X9292Y16405D01*
X2155Y16454D02*
X3750Y16454D01*
X7680Y16454D02*
X9275Y16454D01*
X2168Y16504D02*
X3715Y16504D01*
X7715Y16504D02*
X9262Y16504D01*
X2181Y16553D02*
X3689Y16553D01*
X7741Y16553D02*
X9249Y16553D01*
X2192Y16603D02*
X3666Y16603D01*
X7764Y16603D02*
X9238Y16603D01*
X2196Y16652D02*
X3643Y16652D01*
X7787Y16652D02*
X9234Y16652D01*
X2201Y16702D02*
X3626Y16702D01*
X7804Y16702D02*
X9229Y16702D01*
X2205Y16751D02*
X3613Y16751D01*
X7817Y16751D02*
X9225Y16751D01*
X2206Y16801D02*
X3599Y16801D01*
X7831Y16801D02*
X9225Y16801D01*
X2206Y16850D02*
X3588Y16850D01*
X7842Y16850D02*
X9225Y16850D01*
X2206Y16900D02*
X3584Y16900D01*
X7846Y16900D02*
X9225Y16900D01*
X2206Y16949D02*
X3593Y16949D01*
X7837Y16949D02*
X9225Y16949D01*
X2206Y16999D02*
X3781Y16999D01*
X7649Y16999D02*
X9225Y16999D01*
X2206Y17048D02*
X3781Y17048D01*
X7649Y17048D02*
X9225Y17048D01*
X2206Y17098D02*
X3582Y17098D01*
X7848Y17098D02*
X9225Y17098D01*
X2206Y17148D02*
X3586Y17148D01*
X7844Y17148D02*
X9225Y17148D01*
X2206Y17197D02*
X3593Y17197D01*
X7837Y17197D02*
X9225Y17197D01*
X2206Y17247D02*
X3607Y17247D01*
X7823Y17247D02*
X9225Y17247D01*
X2206Y17296D02*
X3620Y17296D01*
X7810Y17296D02*
X9225Y17296D01*
X2206Y17346D02*
X3633Y17346D01*
X7797Y17346D02*
X9225Y17346D01*
X2206Y17395D02*
X3656Y17395D01*
X7774Y17395D02*
X9225Y17395D01*
X2206Y17445D02*
X3679Y17445D01*
X7751Y17445D02*
X9225Y17445D01*
X2206Y17494D02*
X3702Y17494D01*
X7728Y17494D02*
X9225Y17494D01*
X2206Y17544D02*
X3734Y17544D01*
X7696Y17544D02*
X9225Y17544D01*
X2206Y17593D02*
X3769Y17593D01*
X7661Y17593D02*
X9225Y17593D01*
X2206Y17643D02*
X3803Y17643D01*
X7627Y17643D02*
X9225Y17643D01*
X2206Y17692D02*
X3852Y17692D01*
X7578Y17692D02*
X9225Y17692D01*
X2206Y17742D02*
X3901Y17742D01*
X7529Y17742D02*
X9225Y17742D01*
X2206Y17791D02*
X3961Y17791D01*
X7469Y17791D02*
X9225Y17791D01*
X2206Y17841D02*
X4031Y17841D01*
X5658Y17841D02*
X5772Y17841D01*
X7399Y17841D02*
X9225Y17841D01*
X2206Y17890D02*
X4118Y17890D01*
X5658Y17890D02*
X5772Y17890D01*
X7312Y17890D02*
X9225Y17890D01*
X2206Y17940D02*
X4224Y17940D01*
X5658Y17940D02*
X5772Y17940D01*
X7206Y17940D02*
X9225Y17940D01*
X2206Y17990D02*
X4439Y17990D01*
X5654Y17990D02*
X5776Y17990D01*
X6991Y17990D02*
X9225Y17990D01*
X2206Y18039D02*
X9225Y18039D01*
X2206Y18089D02*
X9225Y18089D01*
X2206Y18138D02*
X9225Y18138D01*
X2206Y18188D02*
X9225Y18188D01*
X2206Y18237D02*
X9225Y18237D01*
X2206Y18287D02*
X9225Y18287D01*
X2206Y18336D02*
X9225Y18336D01*
X2206Y18386D02*
X9225Y18386D01*
X2206Y18435D02*
X9225Y18435D01*
X2206Y18485D02*
X9225Y18485D01*
X2206Y18534D02*
X9225Y18534D01*
X2206Y18584D02*
X9225Y18584D01*
X2206Y18633D02*
X9225Y18633D01*
X2206Y18683D02*
X9225Y18683D01*
X2206Y18733D02*
X9225Y18733D01*
X2206Y18782D02*
X9225Y18782D01*
X2206Y18832D02*
X9225Y18832D01*
X2206Y18881D02*
X9225Y18881D01*
X2206Y18931D02*
X9225Y18931D01*
X2206Y18980D02*
X9225Y18980D01*
X2206Y19030D02*
X5579Y19030D01*
X5851Y19030D02*
X9225Y19030D01*
X2206Y19079D02*
X5378Y19079D01*
X6052Y19079D02*
X9225Y19079D01*
X2206Y19129D02*
X5276Y19129D01*
X6154Y19129D02*
X9225Y19129D01*
X2206Y19178D02*
X5181Y19178D01*
X6249Y19178D02*
X9225Y19178D01*
X2206Y19228D02*
X5113Y19228D01*
X6317Y19228D02*
X9225Y19228D01*
X2204Y19277D02*
X5057Y19277D01*
X6373Y19277D02*
X9226Y19277D01*
X2200Y19327D02*
X5002Y19327D01*
X6428Y19327D02*
X9230Y19327D01*
X2195Y19376D02*
X4956Y19376D01*
X6474Y19376D02*
X9235Y19376D01*
X2191Y19426D02*
X4922Y19426D01*
X6508Y19426D02*
X9239Y19426D01*
X2179Y19475D02*
X4888Y19475D01*
X6542Y19475D02*
X9251Y19475D01*
X2166Y19525D02*
X4854Y19525D01*
X6576Y19525D02*
X9264Y19525D01*
X2152Y19575D02*
X4827Y19575D01*
X6603Y19575D02*
X9278Y19575D01*
X2134Y19624D02*
X4808Y19624D01*
X6622Y19624D02*
X9296Y19624D01*
X2111Y19674D02*
X4790Y19674D01*
X6640Y19674D02*
X9319Y19674D01*
X2088Y19723D02*
X4771Y19723D01*
X6659Y19723D02*
X9342Y19723D01*
X2061Y19773D02*
X4752Y19773D01*
X6678Y19773D02*
X9369Y19773D01*
X2026Y19822D02*
X4746Y19822D01*
X6684Y19822D02*
X9404Y19822D01*
X1991Y19872D02*
X4740Y19872D01*
X6690Y19872D02*
X9439Y19872D01*
X0475Y19921D02*
X0481Y19921D01*
X1949Y19921D02*
X4734Y19921D01*
X6696Y19921D02*
X9481Y19921D01*
X10949Y19921D02*
X10956Y19921D01*
X0432Y19971D02*
X0530Y19971D01*
X1900Y19971D02*
X4728Y19971D01*
X6702Y19971D02*
X9530Y19971D01*
X10900Y19971D02*
X10998Y19971D01*
X0432Y20020D02*
X0580Y20020D01*
X1850Y20020D02*
X4725Y20020D01*
X6705Y20020D02*
X9580Y20020D01*
X10850Y20020D02*
X10998Y20020D01*
X0432Y20070D02*
X0651Y20070D01*
X1779Y20070D02*
X4731Y20070D01*
X6699Y20070D02*
X9651Y20070D01*
X10779Y20070D02*
X10998Y20070D01*
X0432Y20119D02*
X0723Y20119D01*
X1707Y20119D02*
X4737Y20119D01*
X6693Y20119D02*
X9723Y20119D01*
X10707Y20119D02*
X10998Y20119D01*
X0432Y20169D02*
X0829Y20169D01*
X1601Y20169D02*
X4743Y20169D01*
X6687Y20169D02*
X9829Y20169D01*
X10601Y20169D02*
X10998Y20169D01*
X0432Y20218D02*
X0979Y20218D01*
X1451Y20218D02*
X4749Y20218D01*
X6681Y20218D02*
X9979Y20218D01*
X10451Y20218D02*
X10998Y20218D01*
X0432Y20268D02*
X4760Y20268D01*
X6670Y20268D02*
X10998Y20268D01*
X0432Y20317D02*
X4779Y20317D01*
X6651Y20317D02*
X10998Y20317D01*
X0432Y20367D02*
X4798Y20367D01*
X6632Y20367D02*
X10998Y20367D01*
X0432Y20417D02*
X4816Y20417D01*
X6614Y20417D02*
X10998Y20417D01*
X0432Y20466D02*
X4835Y20466D01*
X6595Y20466D02*
X10998Y20466D01*
X0432Y20516D02*
X4868Y20516D01*
X6562Y20516D02*
X10998Y20516D01*
X0432Y20565D02*
X4902Y20565D01*
X6528Y20565D02*
X10998Y20565D01*
X0432Y20615D02*
X4936Y20615D01*
X6494Y20615D02*
X10998Y20615D01*
X0432Y20664D02*
X4970Y20664D01*
X6460Y20664D02*
X10998Y20664D01*
X0432Y20714D02*
X5025Y20714D01*
X6405Y20714D02*
X10998Y20714D01*
X0432Y20763D02*
X5081Y20763D01*
X6349Y20763D02*
X10998Y20763D01*
X0432Y20813D02*
X5137Y20813D01*
X6293Y20813D02*
X10998Y20813D01*
X0432Y20862D02*
X5221Y20862D01*
X6209Y20862D02*
X10998Y20862D01*
X0432Y20912D02*
X5315Y20912D01*
X6115Y20912D02*
X10998Y20912D01*
X0432Y20961D02*
X5461Y20961D01*
X5969Y20961D02*
X10998Y20961D01*
X0432Y21011D02*
X10998Y21011D01*
X0432Y21060D02*
X10998Y21060D01*
X0432Y21110D02*
X10998Y21110D01*
%LNbottom copper_traces*%
%LNbottom copper component baff75c958aad604*%
D11*
X5715Y11010D03*
D12*
X5715Y17010D03*
D13*
X1215Y18010D03*
X10215Y18010D03*
%LNbottom copper component 7efe99aa22ff84f7*%
D14*
X4445Y7620D03*
X4445Y5080D03*
X6985Y7620D03*
X6985Y5080D03*
M02*