%FSLAX33Y33*%
%MOMM*%
%ADD10C,0.254*%
%ADD11C,0.15*%
%ADD12C,0.5*%
D10*
%LNpath-1*%
G01*
X6985Y3810D02*
X6985Y2667D01*
X6985Y3810*
%LNpath-2*%
X4445Y1651D02*
X4445Y3810D01*
X4445Y2794*
X4445Y1651*
%LNtop silkscreen_traces*%
%LNtop silkscreen component baff75c958aad604*%
D11*
X0715Y10010D02*
X0715Y15510D01*
X10715Y10010D02*
X10715Y15510D01*
X0715Y10010D02*
X2715Y10010D01*
X10715Y10010D02*
X8715Y10010D01*
D12*
X5715Y9535D03*
%LNtop silkscreen component 7efe99aa22ff84f7*%
G36*
X3226Y3861D02*
X8204Y3861D01*
X8204Y8839D01*
X3226Y8839D01*
X3226Y3861D01*
X2718Y3353D02*
X8712Y3353D01*
X8712Y9347D01*
X2718Y9347D01*
X2718Y3353D01*
G37*
%LNtext*%
G36*
X5570Y2071D02*
X5577Y2178D01*
X5600Y2273D01*
X5638Y2355D01*
X5691Y2425D01*
X5756Y2481D01*
X5830Y2521D01*
X5913Y2545D01*
X6005Y2553D01*
X6066Y2549D01*
X6125Y2538D01*
X6180Y2519D01*
X6232Y2493D01*
X6280Y2460D01*
X6321Y2421D01*
X6357Y2376D01*
X6386Y2325D01*
X6409Y2270D01*
X6426Y2211D01*
X6436Y2148D01*
X6439Y2081D01*
X6436Y2014D01*
X6425Y1950D01*
X6408Y1890D01*
X6383Y1834D01*
X6353Y1783D01*
X6316Y1738D01*
X6273Y1700D01*
X6225Y1669D01*
X6173Y1644D01*
X6119Y1627D01*
X6088Y1621D01*
X6069Y1721D01*
X6128Y1739D01*
X6180Y1769D01*
X6227Y1811D01*
X6266Y1864D01*
X6293Y1926D01*
X6310Y1999D01*
X6315Y2082D01*
X6313Y2136D01*
X6306Y2186D01*
X6294Y2233D01*
X6278Y2276D01*
X6257Y2315D01*
X6231Y2349D01*
X6202Y2379D01*
X6168Y2404D01*
X6131Y2424D01*
X6091Y2438D01*
X6050Y2447D01*
X6006Y2450D01*
X5944Y2444D01*
X5887Y2428D01*
X5834Y2400D01*
X5786Y2362D01*
X5746Y2311D01*
X5717Y2245D01*
X5700Y2164D01*
X5694Y2069D01*
X5694Y2069D01*
X5699Y1991D01*
X5716Y1922D01*
X5743Y1862D01*
X5782Y1810D01*
X5829Y1769D01*
X5882Y1739D01*
X5940Y1721D01*
X6004Y1715D01*
X6069Y1721D01*
X6088Y1621D01*
X6063Y1616D01*
X6004Y1612D01*
X5942Y1616D01*
X5883Y1628D01*
X5827Y1647D01*
X5775Y1675D01*
X5728Y1708D01*
X5686Y1748D01*
X5651Y1793D01*
X5622Y1844D01*
X5599Y1898D01*
X5583Y1954D01*
X5573Y2012D01*
X5570Y2071D01*
X5570Y2071D01*
X7012Y1628D02*
X7012Y1725D01*
X6970Y1676D01*
X6921Y1641D01*
X6865Y1620D01*
X6803Y1613D01*
X6774Y1615D01*
X6746Y1619D01*
X6719Y1626D01*
X6694Y1635D01*
X6670Y1647D01*
X6650Y1661D01*
X6633Y1675D01*
X6619Y1692D01*
X6607Y1709D01*
X6598Y1729D01*
X6590Y1751D01*
X6584Y1774D01*
X6581Y1793D01*
X6579Y1817D01*
X6578Y1845D01*
X6577Y1879D01*
X6577Y2287D01*
X6689Y2287D01*
X6689Y1921D01*
X6689Y1881D01*
X6691Y1848D01*
X6693Y1822D01*
X6696Y1803D01*
X6703Y1783D01*
X6712Y1764D01*
X6725Y1748D01*
X6741Y1734D01*
X6759Y1723D01*
X6779Y1716D01*
X6801Y1711D01*
X6825Y1709D01*
X6850Y1711D01*
X6874Y1716D01*
X6897Y1724D01*
X6919Y1735D01*
X6940Y1749D01*
X6957Y1765D01*
X6971Y1784D01*
X6981Y1805D01*
X6989Y1830D01*
X6995Y1859D01*
X6999Y1894D01*
X7000Y1934D01*
X7000Y2287D01*
X7111Y2287D01*
X7111Y1628D01*
X7012Y1628D01*
X7012Y1628D01*
X7530Y1728D02*
X7546Y1629D01*
X7523Y1625D01*
X7501Y1622D01*
X7481Y1620D01*
X7462Y1619D01*
X7433Y1621D01*
X7408Y1624D01*
X7386Y1630D01*
X7367Y1639D01*
X7352Y1649D01*
X7339Y1661D01*
X7328Y1674D01*
X7320Y1689D01*
X7314Y1709D01*
X7310Y1738D01*
X7308Y1775D01*
X7307Y1821D01*
X7307Y2200D01*
X7225Y2200D01*
X7225Y2287D01*
X7307Y2287D01*
X7307Y2450D01*
X7418Y2517D01*
X7418Y2287D01*
X7530Y2287D01*
X7530Y2200D01*
X7418Y2200D01*
X7418Y1815D01*
X7418Y1793D01*
X7419Y1775D01*
X7421Y1762D01*
X7424Y1753D01*
X7427Y1747D01*
X7431Y1741D01*
X7437Y1736D01*
X7443Y1732D01*
X7450Y1728D01*
X7459Y1726D01*
X7469Y1724D01*
X7481Y1723D01*
X7491Y1724D01*
X7503Y1725D01*
X7515Y1726D01*
X7530Y1728D01*
X7530Y1728D01*
X8090Y1840D02*
X8205Y1826D01*
X8189Y1778D01*
X8166Y1736D01*
X8138Y1700D01*
X8104Y1669D01*
X8065Y1645D01*
X8020Y1627D01*
X7970Y1617D01*
X7916Y1613D01*
X7847Y1619D01*
X7786Y1635D01*
X7733Y1663D01*
X7687Y1702D01*
X7649Y1751D01*
X7623Y1809D01*
X7607Y1876D01*
X7602Y1952D01*
X7607Y2030D01*
X7623Y2099D01*
X7650Y2159D01*
X7687Y2210D01*
X7733Y2250D01*
X7786Y2279D01*
X7844Y2296D01*
X7909Y2301D01*
X7919Y2301D01*
X7911Y2210D01*
X7874Y2206D01*
X7840Y2197D01*
X7809Y2181D01*
X7781Y2158D01*
X7758Y2130D01*
X7741Y2098D01*
X7729Y2061D01*
X7723Y2021D01*
X7723Y2021D01*
X8091Y2021D01*
X8086Y2059D01*
X8077Y2093D01*
X8065Y2122D01*
X8049Y2145D01*
X8020Y2173D01*
X7988Y2194D01*
X7951Y2206D01*
X7911Y2210D01*
X7919Y2301D01*
X7972Y2296D01*
X8029Y2279D01*
X8080Y2251D01*
X8125Y2212D01*
X8162Y2162D01*
X8188Y2103D01*
X8204Y2035D01*
X8209Y1959D01*
X8209Y1953D01*
X8209Y1946D01*
X8209Y1938D01*
X8208Y1929D01*
X7717Y1929D01*
X7723Y1878D01*
X7736Y1833D01*
X7754Y1795D01*
X7779Y1763D01*
X7808Y1737D01*
X7841Y1719D01*
X7877Y1708D01*
X7916Y1705D01*
X7946Y1707D01*
X7973Y1713D01*
X7998Y1723D01*
X8021Y1737D01*
X8042Y1756D01*
X8060Y1779D01*
X8076Y1807D01*
X8090Y1840D01*
X8090Y1840D01*
X8344Y1628D02*
X8344Y2287D01*
X8445Y2287D01*
X8445Y2187D01*
X8463Y2219D01*
X8482Y2245D01*
X8499Y2265D01*
X8516Y2279D01*
X8532Y2289D01*
X8550Y2296D01*
X8568Y2300D01*
X8587Y2301D01*
X8616Y2299D01*
X8644Y2292D01*
X8673Y2281D01*
X8702Y2265D01*
X8664Y2162D01*
X8643Y2173D01*
X8623Y2180D01*
X8602Y2185D01*
X8582Y2186D01*
X8564Y2185D01*
X8547Y2181D01*
X8531Y2174D01*
X8516Y2164D01*
X8502Y2152D01*
X8491Y2138D01*
X8482Y2121D01*
X8474Y2103D01*
X8466Y2073D01*
X8460Y2041D01*
X8457Y2007D01*
X8456Y1973D01*
X8456Y1628D01*
X8344Y1628D01*
X8344Y1628D01*
X3520Y0984D02*
X3640Y0954D01*
X3618Y0884D01*
X3587Y0823D01*
X3550Y0771D01*
X3504Y0728D01*
X3452Y0694D01*
X3395Y0669D01*
X3332Y0655D01*
X3264Y0650D01*
X3194Y0654D01*
X3131Y0665D01*
X3074Y0683D01*
X3025Y0710D01*
X2981Y0743D01*
X2944Y0783D01*
X2911Y0830D01*
X2885Y0883D01*
X2864Y0941D01*
X2849Y1001D01*
X2840Y1063D01*
X2837Y1127D01*
X2840Y1195D01*
X2850Y1260D01*
X2867Y1319D01*
X2891Y1374D01*
X2921Y1424D01*
X2957Y1467D01*
X2998Y1504D01*
X3045Y1535D01*
X3097Y1559D01*
X3150Y1576D01*
X3207Y1586D01*
X3266Y1590D01*
X3331Y1586D01*
X3391Y1573D01*
X3446Y1551D01*
X3495Y1520D01*
X3538Y1482D01*
X3574Y1437D01*
X3603Y1385D01*
X3625Y1325D01*
X3506Y1297D01*
X3489Y1343D01*
X3468Y1383D01*
X3443Y1416D01*
X3415Y1442D01*
X3383Y1462D01*
X3347Y1476D01*
X3307Y1484D01*
X3263Y1487D01*
X3213Y1484D01*
X3167Y1474D01*
X3125Y1459D01*
X3088Y1437D01*
X3055Y1409D01*
X3028Y1378D01*
X3006Y1342D01*
X2989Y1302D01*
X2977Y1259D01*
X2968Y1216D01*
X2962Y1172D01*
X2961Y1127D01*
X2963Y1071D01*
X2969Y1019D01*
X2980Y0970D01*
X2994Y0925D01*
X3014Y0884D01*
X3038Y0849D01*
X3066Y0820D01*
X3100Y0796D01*
X3136Y0777D01*
X3174Y0763D01*
X3213Y0755D01*
X3254Y0753D01*
X3303Y0756D01*
X3347Y0767D01*
X3388Y0786D01*
X3425Y0811D01*
X3457Y0844D01*
X3484Y0883D01*
X3505Y0930D01*
X3520Y0984D01*
X3520Y0984D01*
X4225Y0877D02*
X4340Y0863D01*
X4324Y0815D01*
X4301Y0773D01*
X4273Y0737D01*
X4239Y0706D01*
X4200Y0682D01*
X4155Y0664D01*
X4106Y0654D01*
X4051Y0650D01*
X3982Y0656D01*
X3921Y0673D01*
X3868Y0701D01*
X3822Y0739D01*
X3785Y0788D01*
X3758Y0846D01*
X3742Y0913D01*
X3737Y0989D01*
X3742Y1067D01*
X3758Y1137D01*
X3785Y1196D01*
X3823Y1247D01*
X3869Y1287D01*
X3921Y1316D01*
X3980Y1333D01*
X4045Y1339D01*
X4054Y1338D01*
X4046Y1247D01*
X4009Y1244D01*
X3975Y1234D01*
X3944Y1218D01*
X3917Y1196D01*
X3893Y1168D01*
X3876Y1135D01*
X3864Y1099D01*
X3859Y1058D01*
X3859Y1058D01*
X4226Y1058D01*
X4221Y1097D01*
X4212Y1131D01*
X4200Y1159D01*
X4184Y1183D01*
X4155Y1211D01*
X4123Y1231D01*
X4086Y1243D01*
X4046Y1247D01*
X4054Y1338D01*
X4108Y1333D01*
X4165Y1316D01*
X4216Y1288D01*
X4260Y1249D01*
X4297Y1199D01*
X4323Y1141D01*
X4339Y1073D01*
X4344Y0996D01*
X4344Y0990D01*
X4344Y0983D01*
X4344Y0975D01*
X4343Y0966D01*
X3852Y0966D01*
X3859Y0915D01*
X3871Y0870D01*
X3889Y0832D01*
X3914Y0800D01*
X3943Y0775D01*
X3976Y0757D01*
X4012Y0746D01*
X4051Y0742D01*
X4081Y0744D01*
X4108Y0750D01*
X4133Y0760D01*
X4156Y0774D01*
X4177Y0793D01*
X4195Y0816D01*
X4211Y0844D01*
X4225Y0877D01*
X4225Y0877D01*
X4481Y0665D02*
X4481Y1324D01*
X4581Y1324D01*
X4581Y1230D01*
X4621Y1278D01*
X4670Y1312D01*
X4726Y1332D01*
X4791Y1339D01*
X4820Y1337D01*
X4848Y1333D01*
X4874Y1327D01*
X4900Y1317D01*
X4923Y1306D01*
X4944Y1293D01*
X4961Y1278D01*
X4975Y1261D01*
X4986Y1243D01*
X4996Y1223D01*
X5004Y1202D01*
X5009Y1179D01*
X5012Y1160D01*
X5014Y1136D01*
X5015Y1106D01*
X5016Y1070D01*
X5016Y0665D01*
X4904Y0665D01*
X4904Y1066D01*
X4903Y1098D01*
X4901Y1126D01*
X4897Y1149D01*
X4891Y1168D01*
X4883Y1184D01*
X4873Y1198D01*
X4860Y1211D01*
X4845Y1222D01*
X4828Y1231D01*
X4809Y1237D01*
X4789Y1241D01*
X4767Y1242D01*
X4733Y1239D01*
X4701Y1231D01*
X4671Y1217D01*
X4644Y1197D01*
X4621Y1169D01*
X4605Y1131D01*
X4595Y1083D01*
X4592Y1025D01*
X4592Y0665D01*
X4481Y0665D01*
X4481Y0665D01*
X5431Y0765D02*
X5447Y0667D01*
X5424Y0662D01*
X5402Y0659D01*
X5382Y0657D01*
X5362Y0657D01*
X5334Y0658D01*
X5308Y0661D01*
X5287Y0667D01*
X5268Y0676D01*
X5253Y0686D01*
X5240Y0698D01*
X5229Y0712D01*
X5221Y0726D01*
X5215Y0746D01*
X5211Y0775D01*
X5208Y0812D01*
X5207Y0858D01*
X5207Y1237D01*
X5125Y1237D01*
X5125Y1324D01*
X5207Y1324D01*
X5207Y1487D01*
X5318Y1554D01*
X5318Y1324D01*
X5431Y1324D01*
X5431Y1237D01*
X5318Y1237D01*
X5318Y0852D01*
X5319Y0830D01*
X5320Y0813D01*
X5322Y0800D01*
X5324Y0791D01*
X5328Y0784D01*
X5332Y0778D01*
X5337Y0773D01*
X5343Y0769D01*
X5351Y0765D01*
X5360Y0763D01*
X5370Y0761D01*
X5382Y0761D01*
X5392Y0761D01*
X5403Y0762D01*
X5416Y0763D01*
X5431Y0765D01*
X5431Y0765D01*
X5991Y0877D02*
X6106Y0863D01*
X6089Y0815D01*
X6067Y0773D01*
X6039Y0737D01*
X6005Y0706D01*
X5965Y0682D01*
X5921Y0664D01*
X5871Y0654D01*
X5816Y0650D01*
X5748Y0656D01*
X5687Y0673D01*
X5633Y0701D01*
X5587Y0739D01*
X5550Y0788D01*
X5524Y0846D01*
X5508Y0913D01*
X5502Y0989D01*
X5508Y1067D01*
X5524Y1137D01*
X5551Y1196D01*
X5588Y1247D01*
X5634Y1287D01*
X5686Y1316D01*
X5745Y1333D01*
X5810Y1339D01*
X5819Y1338D01*
X5811Y1247D01*
X5774Y1244D01*
X5741Y1234D01*
X5710Y1218D01*
X5682Y1196D01*
X5659Y1168D01*
X5641Y1135D01*
X5630Y1099D01*
X5624Y1058D01*
X5624Y1058D01*
X5992Y1058D01*
X5986Y1097D01*
X5977Y1131D01*
X5965Y1159D01*
X5950Y1183D01*
X5921Y1211D01*
X5888Y1231D01*
X5852Y1243D01*
X5811Y1247D01*
X5819Y1338D01*
X5873Y1333D01*
X5930Y1316D01*
X5981Y1288D01*
X6026Y1249D01*
X6062Y1199D01*
X6089Y1141D01*
X6104Y1073D01*
X6110Y0996D01*
X6110Y0990D01*
X6109Y0983D01*
X6109Y0975D01*
X6109Y0966D01*
X5618Y0966D01*
X5624Y0915D01*
X5636Y0870D01*
X5655Y0832D01*
X5679Y0800D01*
X5709Y0775D01*
X5741Y0757D01*
X5777Y0746D01*
X5817Y0742D01*
X5846Y0744D01*
X5874Y0750D01*
X5899Y0760D01*
X5922Y0774D01*
X5942Y0793D01*
X5961Y0816D01*
X5977Y0844D01*
X5991Y0877D01*
X5991Y0877D01*
X6245Y0665D02*
X6245Y1324D01*
X6345Y1324D01*
X6345Y1224D01*
X6364Y1256D01*
X6382Y1282D01*
X6400Y1302D01*
X6416Y1316D01*
X6433Y1326D01*
X6450Y1333D01*
X6469Y1337D01*
X6488Y1339D01*
X6516Y1337D01*
X6545Y1330D01*
X6574Y1319D01*
X6603Y1303D01*
X6564Y1199D01*
X6544Y1210D01*
X6523Y1217D01*
X6503Y1222D01*
X6482Y1223D01*
X6464Y1222D01*
X6448Y1218D01*
X6432Y1211D01*
X6417Y1201D01*
X6403Y1189D01*
X6392Y1175D01*
X6382Y1159D01*
X6375Y1140D01*
X6367Y1110D01*
X6361Y1078D01*
X6358Y1045D01*
X6356Y1010D01*
X6356Y0665D01*
X6245Y0665D01*
X6245Y0665D01*
G37*
M02*