%FSLAX33Y33*%
%MOMM*%
%AMRR-H1600000-W3900000-R800000-RO0.000*
21,1,2.3,1.6,0.,0.,360*
1,1,1.6,-1.15,0.*
1,1,1.6,1.15,0.*
1,1,1.6,1.15,-0.*
1,1,1.6,-1.15,0.*%
%AMRR-H4099999-W1600000-R800000-RO0.000*
21,1,1.6,2.499999,0.,0.,360*
1,1,1.6,0.,1.2499995*
1,1,1.6,0.,1.2499995*
1,1,1.6,0.,-1.2499995*
1,1,1.6,-0.,-1.2499995*%
%ADD10C,0.0508*%
%ADD11R,4.6X1.6*%
%ADD12RR-H1600000-W3900000-R800000-RO0.000*%
%ADD13RR-H4099999-W1600000-R800000-RO0.000*%
%ADD14C,1.778*%
D10*
%LNpour fill*%
G01*
X8712Y9688D02*
X8712Y9688D01*
X8727Y9703*
X10998Y9703*
X10998Y16027*
X10951Y16047*
X10877Y15973*
X10875Y15971*
X10730Y15870*
X10728Y15869*
X10568Y15794*
X10566Y15793*
X10395Y15747*
X10393Y15747*
X10216Y15731*
X10214Y15731*
X10037Y15747*
X10035Y15747*
X9864Y15793*
X9862Y15794*
X9702Y15869*
X9700Y15870*
X9555Y15971*
X9553Y15973*
X9428Y16098*
X9426Y16100*
X9325Y16245*
X9324Y16247*
X9249Y16407*
X9248Y16409*
X9202Y16580*
X9202Y16582*
X9186Y16758*
X9186Y16759*
X9186Y19261*
X9186Y19262*
X9202Y19438*
X9202Y19440*
X9248Y19611*
X9249Y19613*
X9324Y19773*
X9325Y19775*
X9426Y19920*
X9428Y19922*
X9553Y20047*
X9555Y20049*
X9700Y20150*
X9702Y20151*
X9862Y20226*
X9864Y20227*
X10035Y20273*
X10037Y20273*
X10214Y20289*
X10216Y20289*
X10393Y20273*
X10395Y20273*
X10566Y20227*
X10568Y20226*
X10728Y20151*
X10730Y20150*
X10875Y20049*
X10877Y20047*
X10951Y19973*
X10998Y19993*
X10998Y21158*
X0432Y21158*
X0432Y19993*
X0479Y19973*
X0553Y20047*
X0555Y20049*
X0700Y20150*
X0702Y20151*
X0862Y20226*
X0864Y20227*
X1035Y20273*
X1037Y20273*
X1214Y20289*
X1216Y20289*
X1393Y20273*
X1395Y20273*
X1566Y20227*
X1568Y20226*
X1728Y20151*
X1730Y20150*
X1875Y20049*
X1877Y20047*
X2002Y19922*
X2004Y19920*
X2105Y19775*
X2106Y19773*
X2181Y19613*
X2182Y19611*
X2228Y19440*
X2228Y19438*
X2244Y19262*
X2244Y19261*
X2244Y16759*
X2244Y16758*
X2228Y16582*
X2228Y16580*
X2182Y16409*
X2181Y16407*
X2106Y16247*
X2105Y16245*
X2004Y16100*
X2002Y16098*
X1877Y15973*
X1875Y15971*
X1730Y15870*
X1728Y15869*
X1568Y15794*
X1566Y15793*
X1395Y15747*
X1393Y15747*
X1216Y15731*
X1214Y15731*
X1037Y15747*
X1035Y15747*
X0864Y15793*
X0862Y15794*
X0702Y15869*
X0700Y15870*
X0555Y15971*
X0553Y15973*
X0479Y16047*
X0432Y16027*
X0432Y9703*
X2703Y9703*
X2718Y9688*
X2718Y0432*
X8712Y0432*
X8712Y9688*
X5841Y18988D02*
X5841Y18988D01*
X6079Y19047*
X6082Y19048*
X6299Y19162*
X6301Y19164*
X6485Y19326*
X6487Y19328*
X6626Y19530*
X6627Y19533*
X6714Y19762*
X6715Y19765*
X6745Y20008*
X6745Y20012*
X6715Y20255*
X6714Y20258*
X6627Y20487*
X6626Y20490*
X6487Y20692*
X6485Y20694*
X6301Y20856*
X6299Y20858*
X6082Y20972*
X6079Y20973*
X5841Y21032*
X5838Y21032*
X5592Y21032*
X5589Y21032*
X5351Y20973*
X5348Y20972*
X5131Y20858*
X5129Y20856*
X4945Y20694*
X4943Y20692*
X4804Y20490*
X4803Y20487*
X4716Y20258*
X4715Y20255*
X4685Y20012*
X4685Y20008*
X4715Y19765*
X4716Y19762*
X4803Y19533*
X4804Y19530*
X4943Y19328*
X4945Y19326*
X5129Y19164*
X5131Y19162*
X5348Y19048*
X5351Y19047*
X5589Y18988*
X5592Y18988*
X5838Y18988*
X5841Y18988*
X5639Y15996D02*
X5639Y15996D01*
X5639Y16235*
X5791Y16235*
X5791Y15996*
X5806Y15981*
X6866Y15981*
X6867Y15981*
X7043Y15997*
X7045Y15997*
X7216Y16043*
X7218Y16044*
X7378Y16119*
X7380Y16120*
X7525Y16221*
X7527Y16223*
X7652Y16348*
X7654Y16350*
X7755Y16495*
X7756Y16497*
X7831Y16657*
X7832Y16659*
X7878Y16830*
X7878Y16832*
X7886Y16917*
X7870Y16934*
X7640Y16934*
X7640Y17086*
X7870Y17086*
X7886Y17103*
X7878Y17188*
X7878Y17190*
X7832Y17361*
X7831Y17363*
X7756Y17523*
X7755Y17525*
X7654Y17670*
X7652Y17672*
X7527Y17797*
X7525Y17799*
X7380Y17900*
X7378Y17901*
X7218Y17976*
X7216Y17977*
X7045Y18023*
X7043Y18023*
X6867Y18039*
X6866Y18039*
X5806Y18039*
X5791Y18024*
X5791Y17785*
X5639Y17785*
X5639Y18024*
X5624Y18039*
X4564Y18039*
X4563Y18039*
X4387Y18023*
X4385Y18023*
X4214Y17977*
X4212Y17976*
X4052Y17901*
X4050Y17900*
X3905Y17799*
X3903Y17797*
X3778Y17672*
X3776Y17670*
X3675Y17525*
X3674Y17523*
X3599Y17363*
X3598Y17361*
X3552Y17190*
X3552Y17188*
X3544Y17103*
X3560Y17086*
X3790Y17086*
X3790Y16934*
X3560Y16934*
X3544Y16917*
X3552Y16832*
X3552Y16830*
X3598Y16659*
X3599Y16657*
X3674Y16497*
X3675Y16495*
X3776Y16350*
X3778Y16348*
X3903Y16223*
X3905Y16221*
X4050Y16120*
X4052Y16119*
X4212Y16044*
X4214Y16043*
X4385Y15997*
X4387Y15997*
X4563Y15981*
X4564Y15981*
X5624Y15981*
X5639Y15996*
X8017Y9980D02*
X8017Y9980D01*
X8050Y9983*
X8052Y9983*
X8085Y9991*
X8087Y9992*
X8118Y10005*
X8120Y10006*
X8149Y10024*
X8151Y10025*
X8177Y10047*
X8178Y10048*
X8200Y10074*
X8201Y10076*
X8219Y10105*
X8220Y10107*
X8233Y10138*
X8234Y10140*
X8242Y10173*
X8242Y10175*
X8245Y10209*
X8245Y10210*
X8245Y11810*
X8245Y11811*
X8242Y11845*
X8242Y11847*
X8234Y11880*
X8233Y11882*
X8220Y11913*
X8219Y11915*
X8201Y11944*
X8200Y11946*
X8178Y11972*
X8177Y11973*
X8151Y11995*
X8149Y11996*
X8120Y12014*
X8118Y12015*
X8087Y12028*
X8085Y12029*
X8052Y12037*
X8050Y12037*
X8016Y12040*
X8015Y12040*
X3415Y12040*
X3414Y12040*
X3380Y12037*
X3378Y12037*
X3345Y12029*
X3343Y12028*
X3312Y12015*
X3310Y12014*
X3281Y11996*
X3279Y11995*
X3253Y11973*
X3252Y11972*
X3230Y11946*
X3229Y11944*
X3211Y11915*
X3210Y11913*
X3197Y11882*
X3196Y11880*
X3188Y11847*
X3188Y11845*
X3185Y11812*
X3185Y11811*
X3185Y10209*
X3185Y10208*
X3188Y10175*
X3188Y10173*
X3196Y10140*
X3197Y10138*
X3210Y10107*
X3211Y10105*
X3229Y10076*
X3230Y10074*
X3252Y10048*
X3253Y10047*
X3279Y10025*
X3281Y10024*
X3310Y10006*
X3312Y10005*
X3343Y9992*
X3345Y9991*
X3378Y9983*
X3380Y9983*
X3413Y9980*
X3414Y9980*
X8016Y9980*
X8017Y9980*
X4581Y6510D02*
X4581Y6510D01*
X4840Y6574*
X4843Y6575*
X5079Y6699*
X5082Y6700*
X5281Y6877*
X5283Y6879*
X5435Y7099*
X5436Y7102*
X5531Y7351*
X5531Y7354*
X5564Y7618*
X5564Y7622*
X5531Y7886*
X5531Y7889*
X5436Y8138*
X5435Y8141*
X5283Y8361*
X5281Y8363*
X5082Y8540*
X5079Y8541*
X4843Y8665*
X4840Y8666*
X4581Y8730*
X4578Y8731*
X4312Y8731*
X4309Y8730*
X4050Y8666*
X4047Y8665*
X3811Y8541*
X3808Y8540*
X3609Y8363*
X3607Y8361*
X3455Y8141*
X3454Y8138*
X3359Y7889*
X3359Y7886*
X3326Y7622*
X3326Y7618*
X3359Y7354*
X3359Y7351*
X3454Y7102*
X3455Y7099*
X3607Y6879*
X3609Y6877*
X3808Y6700*
X3811Y6699*
X4047Y6575*
X4050Y6574*
X4309Y6510*
X4312Y6509*
X4578Y6509*
X4581Y6510*
X6909Y6524D02*
X6909Y6524D01*
X6909Y6763*
X7061Y6763*
X7061Y6524*
X7076Y6509*
X7118Y6509*
X7121Y6510*
X7380Y6574*
X7383Y6575*
X7619Y6699*
X7622Y6700*
X7821Y6877*
X7823Y6879*
X7975Y7099*
X7976Y7102*
X8071Y7351*
X8071Y7354*
X8092Y7527*
X8077Y7544*
X7849Y7544*
X7849Y7696*
X8077Y7696*
X8092Y7713*
X8071Y7886*
X8071Y7889*
X7976Y8138*
X7975Y8141*
X7823Y8361*
X7821Y8363*
X7622Y8540*
X7619Y8541*
X7383Y8665*
X7380Y8666*
X7121Y8730*
X7118Y8731*
X7076Y8731*
X7061Y8716*
X7061Y8477*
X6909Y8477*
X6909Y8716*
X6894Y8731*
X6852Y8731*
X6849Y8730*
X6590Y8666*
X6587Y8665*
X6351Y8541*
X6348Y8540*
X6149Y8363*
X6147Y8361*
X5995Y8141*
X5994Y8138*
X5899Y7889*
X5899Y7886*
X5866Y7622*
X5866Y7618*
X5899Y7354*
X5899Y7351*
X5994Y7102*
X5995Y7099*
X6147Y6879*
X6149Y6877*
X6348Y6700*
X6351Y6699*
X6587Y6575*
X6590Y6574*
X6849Y6510*
X6852Y6509*
X6894Y6509*
X6909Y6524*
X4581Y3970D02*
X4581Y3970D01*
X4840Y4034*
X4843Y4035*
X5079Y4159*
X5082Y4160*
X5281Y4337*
X5283Y4339*
X5435Y4559*
X5436Y4562*
X5531Y4811*
X5531Y4814*
X5564Y5078*
X5564Y5082*
X5531Y5346*
X5531Y5349*
X5436Y5598*
X5435Y5601*
X5283Y5821*
X5281Y5823*
X5082Y6000*
X5079Y6001*
X4843Y6125*
X4840Y6126*
X4581Y6190*
X4578Y6191*
X4312Y6191*
X4309Y6190*
X4050Y6126*
X4047Y6125*
X3811Y6001*
X3808Y6000*
X3609Y5823*
X3607Y5821*
X3455Y5601*
X3454Y5598*
X3359Y5349*
X3359Y5346*
X3326Y5082*
X3326Y5078*
X3359Y4814*
X3359Y4811*
X3454Y4562*
X3455Y4559*
X3607Y4339*
X3609Y4337*
X3808Y4160*
X3811Y4159*
X4047Y4035*
X4050Y4034*
X4309Y3970*
X4312Y3969*
X4578Y3969*
X4581Y3970*
X6909Y3984D02*
X6909Y3984D01*
X6909Y4223*
X7061Y4223*
X7061Y3984*
X7076Y3969*
X7118Y3969*
X7121Y3970*
X7380Y4034*
X7383Y4035*
X7619Y4159*
X7622Y4160*
X7821Y4337*
X7823Y4339*
X7975Y4559*
X7976Y4562*
X8071Y4811*
X8071Y4814*
X8092Y4987*
X8077Y5004*
X7849Y5004*
X7849Y5156*
X8077Y5156*
X8092Y5173*
X8071Y5346*
X8071Y5349*
X7976Y5598*
X7975Y5601*
X7823Y5821*
X7821Y5823*
X7622Y6000*
X7619Y6001*
X7383Y6125*
X7380Y6126*
X7121Y6190*
X7118Y6191*
X7076Y6191*
X7061Y6176*
X7061Y5937*
X6909Y5937*
X6909Y6176*
X6894Y6191*
X6852Y6191*
X6849Y6190*
X6590Y6126*
X6587Y6125*
X6351Y6001*
X6348Y6000*
X6149Y5823*
X6147Y5821*
X5995Y5601*
X5994Y5598*
X5899Y5349*
X5899Y5346*
X5866Y5082*
X5866Y5078*
X5899Y4814*
X5899Y4811*
X5994Y4562*
X5995Y4559*
X6147Y4339*
X6149Y4337*
X6348Y4160*
X6351Y4159*
X6587Y4035*
X6590Y4034*
X6849Y3970*
X6852Y3969*
X6894Y3969*
X6909Y3984*
X2718Y0456D02*
X8712Y0456D01*
X2718Y0505D02*
X8712Y0505D01*
X2718Y0555D02*
X8712Y0555D01*
X2718Y0605D02*
X8712Y0605D01*
X2718Y0654D02*
X8712Y0654D01*
X2718Y0704D02*
X8712Y0704D01*
X2718Y0753D02*
X8712Y0753D01*
X2718Y0803D02*
X8712Y0803D01*
X2718Y0852D02*
X8712Y0852D01*
X2718Y0902D02*
X8712Y0902D01*
X2718Y0951D02*
X8712Y0951D01*
X2718Y1001D02*
X8712Y1001D01*
X2718Y1050D02*
X8712Y1050D01*
X2718Y1100D02*
X8712Y1100D01*
X2718Y1149D02*
X8712Y1149D01*
X2718Y1199D02*
X8712Y1199D01*
X2718Y1248D02*
X8712Y1248D01*
X2718Y1298D02*
X8712Y1298D01*
X2718Y1347D02*
X8712Y1347D01*
X2718Y1397D02*
X8712Y1397D01*
X2718Y1447D02*
X8712Y1447D01*
X2718Y1496D02*
X8712Y1496D01*
X2718Y1546D02*
X8712Y1546D01*
X2718Y1595D02*
X8712Y1595D01*
X2718Y1645D02*
X8712Y1645D01*
X2718Y1694D02*
X8712Y1694D01*
X2718Y1744D02*
X8712Y1744D01*
X2718Y1793D02*
X8712Y1793D01*
X2718Y1843D02*
X8712Y1843D01*
X2718Y1892D02*
X8712Y1892D01*
X2718Y1942D02*
X8712Y1942D01*
X2718Y1991D02*
X8712Y1991D01*
X2718Y2041D02*
X8712Y2041D01*
X2718Y2090D02*
X8712Y2090D01*
X2718Y2140D02*
X8712Y2140D01*
X2718Y2189D02*
X8712Y2189D01*
X2718Y2239D02*
X8712Y2239D01*
X2718Y2289D02*
X8712Y2289D01*
X2718Y2338D02*
X8712Y2338D01*
X2718Y2388D02*
X8712Y2388D01*
X2718Y2437D02*
X8712Y2437D01*
X2718Y2487D02*
X8712Y2487D01*
X2718Y2536D02*
X8712Y2536D01*
X2718Y2586D02*
X8712Y2586D01*
X2718Y2635D02*
X8712Y2635D01*
X2718Y2685D02*
X8712Y2685D01*
X2718Y2734D02*
X8712Y2734D01*
X2718Y2784D02*
X8712Y2784D01*
X2718Y2833D02*
X8712Y2833D01*
X2718Y2883D02*
X8712Y2883D01*
X2718Y2932D02*
X8712Y2932D01*
X2718Y2982D02*
X8712Y2982D01*
X2718Y3031D02*
X8712Y3031D01*
X2718Y3081D02*
X8712Y3081D01*
X2718Y3131D02*
X8712Y3131D01*
X2718Y3180D02*
X8712Y3180D01*
X2718Y3230D02*
X8712Y3230D01*
X2718Y3279D02*
X8712Y3279D01*
X2718Y3329D02*
X8712Y3329D01*
X2718Y3378D02*
X8712Y3378D01*
X2718Y3428D02*
X8712Y3428D01*
X2718Y3477D02*
X8712Y3477D01*
X2718Y3527D02*
X8712Y3527D01*
X2718Y3576D02*
X8712Y3576D01*
X2718Y3626D02*
X8712Y3626D01*
X2718Y3675D02*
X8712Y3675D01*
X2718Y3725D02*
X8712Y3725D01*
X2718Y3774D02*
X8712Y3774D01*
X2718Y3824D02*
X8712Y3824D01*
X2718Y3873D02*
X8712Y3873D01*
X2718Y3923D02*
X8712Y3923D01*
X2718Y3973D02*
X4297Y3973D01*
X4593Y3973D02*
X6837Y3973D01*
X6897Y3973D02*
X7073Y3973D01*
X7133Y3973D02*
X8712Y3973D01*
X2718Y4022D02*
X4096Y4022D01*
X4794Y4022D02*
X6636Y4022D01*
X6909Y4022D02*
X7061Y4022D01*
X7334Y4022D02*
X8712Y4022D01*
X2718Y4072D02*
X3976Y4072D01*
X4914Y4072D02*
X6516Y4072D01*
X6909Y4072D02*
X7061Y4072D01*
X7454Y4072D02*
X8712Y4072D01*
X2718Y4121D02*
X3882Y4121D01*
X5008Y4121D02*
X6422Y4121D01*
X6909Y4121D02*
X7061Y4121D01*
X7548Y4121D02*
X8712Y4121D01*
X2718Y4171D02*
X3797Y4171D01*
X5093Y4171D02*
X6337Y4171D01*
X6909Y4171D02*
X7061Y4171D01*
X7633Y4171D02*
X8712Y4171D01*
X2718Y4220D02*
X3741Y4220D01*
X5149Y4220D02*
X6281Y4220D01*
X6909Y4220D02*
X7061Y4220D01*
X7689Y4220D02*
X8712Y4220D01*
X2718Y4270D02*
X3685Y4270D01*
X5205Y4270D02*
X6225Y4270D01*
X7745Y4270D02*
X8712Y4270D01*
X2718Y4319D02*
X3629Y4319D01*
X5261Y4319D02*
X6169Y4319D01*
X7801Y4319D02*
X8712Y4319D01*
X2718Y4369D02*
X3586Y4369D01*
X5304Y4369D02*
X6126Y4369D01*
X7844Y4369D02*
X8712Y4369D01*
X2718Y4418D02*
X3552Y4418D01*
X5338Y4418D02*
X6092Y4418D01*
X7878Y4418D02*
X8712Y4418D01*
X2718Y4468D02*
X3518Y4468D01*
X5372Y4468D02*
X6058Y4468D01*
X7912Y4468D02*
X8712Y4468D01*
X2718Y4517D02*
X3484Y4517D01*
X5406Y4517D02*
X6024Y4517D01*
X7946Y4517D02*
X8712Y4517D01*
X2718Y4567D02*
X3452Y4567D01*
X5438Y4567D02*
X5992Y4567D01*
X7978Y4567D02*
X8712Y4567D01*
X2718Y4616D02*
X3433Y4616D01*
X5457Y4616D02*
X5973Y4616D01*
X7997Y4616D02*
X8712Y4616D01*
X2718Y4666D02*
X3414Y4666D01*
X5476Y4666D02*
X5954Y4666D01*
X8016Y4666D02*
X8712Y4666D01*
X2718Y4716D02*
X3395Y4716D01*
X5495Y4716D02*
X5935Y4716D01*
X8035Y4716D02*
X8712Y4716D01*
X2718Y4765D02*
X3377Y4765D01*
X5513Y4765D02*
X5917Y4765D01*
X8053Y4765D02*
X8712Y4765D01*
X2718Y4815D02*
X3358Y4815D01*
X5532Y4815D02*
X5898Y4815D01*
X8072Y4815D02*
X8712Y4815D01*
X2718Y4864D02*
X3352Y4864D01*
X5538Y4864D02*
X5892Y4864D01*
X8078Y4864D02*
X8712Y4864D01*
X2718Y4914D02*
X3346Y4914D01*
X5544Y4914D02*
X5886Y4914D01*
X8084Y4914D02*
X8712Y4914D01*
X2718Y4963D02*
X3340Y4963D01*
X5550Y4963D02*
X5880Y4963D01*
X8090Y4963D02*
X8712Y4963D01*
X2718Y5013D02*
X3334Y5013D01*
X5556Y5013D02*
X5874Y5013D01*
X7849Y5013D02*
X8712Y5013D01*
X2718Y5062D02*
X3328Y5062D01*
X5562Y5062D02*
X5868Y5062D01*
X7849Y5062D02*
X8712Y5062D01*
X2718Y5112D02*
X3330Y5112D01*
X5560Y5112D02*
X5870Y5112D01*
X7849Y5112D02*
X8712Y5112D01*
X2718Y5161D02*
X3336Y5161D01*
X5554Y5161D02*
X5876Y5161D01*
X8082Y5161D02*
X8712Y5161D01*
X2718Y5211D02*
X3342Y5211D01*
X5548Y5211D02*
X5882Y5211D01*
X8088Y5211D02*
X8712Y5211D01*
X2718Y5260D02*
X3348Y5260D01*
X5542Y5260D02*
X5888Y5260D01*
X8082Y5260D02*
X8712Y5260D01*
X2718Y5310D02*
X3354Y5310D01*
X5536Y5310D02*
X5894Y5310D01*
X8076Y5310D02*
X8712Y5310D01*
X2718Y5359D02*
X3363Y5359D01*
X5527Y5359D02*
X5903Y5359D01*
X8067Y5359D02*
X8712Y5359D01*
X2718Y5409D02*
X3382Y5409D01*
X5508Y5409D02*
X5922Y5409D01*
X8048Y5409D02*
X8712Y5409D01*
X2718Y5458D02*
X3401Y5458D01*
X5489Y5458D02*
X5941Y5458D01*
X8029Y5458D02*
X8712Y5458D01*
X2718Y5508D02*
X3419Y5508D01*
X5471Y5508D02*
X5959Y5508D01*
X8011Y5508D02*
X8712Y5508D01*
X2718Y5558D02*
X3438Y5558D01*
X5452Y5558D02*
X5978Y5558D01*
X7992Y5558D02*
X8712Y5558D01*
X2718Y5607D02*
X3459Y5607D01*
X5431Y5607D02*
X5999Y5607D01*
X7971Y5607D02*
X8712Y5607D01*
X2718Y5657D02*
X3493Y5657D01*
X5397Y5657D02*
X6033Y5657D01*
X7937Y5657D02*
X8712Y5657D01*
X2718Y5706D02*
X3528Y5706D01*
X5362Y5706D02*
X6068Y5706D01*
X7902Y5706D02*
X8712Y5706D01*
X2718Y5756D02*
X3562Y5756D01*
X5328Y5756D02*
X6102Y5756D01*
X7868Y5756D02*
X8712Y5756D01*
X2718Y5805D02*
X3596Y5805D01*
X5294Y5805D02*
X6136Y5805D01*
X7834Y5805D02*
X8712Y5805D01*
X2718Y5855D02*
X3645Y5855D01*
X5245Y5855D02*
X6185Y5855D01*
X7785Y5855D02*
X8712Y5855D01*
X2718Y5904D02*
X3701Y5904D01*
X5189Y5904D02*
X6241Y5904D01*
X7729Y5904D02*
X8712Y5904D01*
X2718Y5954D02*
X3756Y5954D01*
X5134Y5954D02*
X6296Y5954D01*
X6909Y5954D02*
X7061Y5954D01*
X7674Y5954D02*
X8712Y5954D01*
X2718Y6003D02*
X3814Y6003D01*
X5076Y6003D02*
X6354Y6003D01*
X6909Y6003D02*
X7061Y6003D01*
X7616Y6003D02*
X8712Y6003D01*
X2718Y6053D02*
X3909Y6053D01*
X4981Y6053D02*
X6449Y6053D01*
X6909Y6053D02*
X7061Y6053D01*
X7521Y6053D02*
X8712Y6053D01*
X2718Y6102D02*
X4003Y6102D01*
X4887Y6102D02*
X6543Y6102D01*
X6909Y6102D02*
X7061Y6102D01*
X7427Y6102D02*
X8712Y6102D01*
X2718Y6152D02*
X4153Y6152D01*
X4737Y6152D02*
X6693Y6152D01*
X6909Y6152D02*
X7061Y6152D01*
X7277Y6152D02*
X8712Y6152D01*
X2718Y6201D02*
X8712Y6201D01*
X2718Y6251D02*
X8712Y6251D01*
X2718Y6300D02*
X8712Y6300D01*
X2718Y6350D02*
X8712Y6350D01*
X2718Y6400D02*
X8712Y6400D01*
X2718Y6449D02*
X8712Y6449D01*
X2718Y6499D02*
X8712Y6499D01*
X2718Y6548D02*
X4153Y6548D01*
X4737Y6548D02*
X6693Y6548D01*
X6909Y6548D02*
X7061Y6548D01*
X7277Y6548D02*
X8712Y6548D01*
X2718Y6598D02*
X4003Y6598D01*
X4887Y6598D02*
X6543Y6598D01*
X6909Y6598D02*
X7061Y6598D01*
X7427Y6598D02*
X8712Y6598D01*
X2718Y6647D02*
X3909Y6647D01*
X4981Y6647D02*
X6449Y6647D01*
X6909Y6647D02*
X7061Y6647D01*
X7521Y6647D02*
X8712Y6647D01*
X2718Y6697D02*
X3814Y6697D01*
X5076Y6697D02*
X6354Y6697D01*
X6909Y6697D02*
X7061Y6697D01*
X7616Y6697D02*
X8712Y6697D01*
X2718Y6746D02*
X3756Y6746D01*
X5134Y6746D02*
X6296Y6746D01*
X6909Y6746D02*
X7061Y6746D01*
X7674Y6746D02*
X8712Y6746D01*
X2718Y6796D02*
X3701Y6796D01*
X5189Y6796D02*
X6241Y6796D01*
X7729Y6796D02*
X8712Y6796D01*
X2718Y6845D02*
X3645Y6845D01*
X5245Y6845D02*
X6185Y6845D01*
X7785Y6845D02*
X8712Y6845D01*
X2718Y6895D02*
X3596Y6895D01*
X5294Y6895D02*
X6136Y6895D01*
X7834Y6895D02*
X8712Y6895D01*
X2718Y6944D02*
X3562Y6944D01*
X5328Y6944D02*
X6102Y6944D01*
X7868Y6944D02*
X8712Y6944D01*
X2718Y6994D02*
X3528Y6994D01*
X5362Y6994D02*
X6068Y6994D01*
X7902Y6994D02*
X8712Y6994D01*
X2718Y7043D02*
X3493Y7043D01*
X5397Y7043D02*
X6033Y7043D01*
X7937Y7043D02*
X8712Y7043D01*
X2718Y7093D02*
X3459Y7093D01*
X5431Y7093D02*
X5999Y7093D01*
X7971Y7093D02*
X8712Y7093D01*
X2718Y7142D02*
X3438Y7142D01*
X5452Y7142D02*
X5978Y7142D01*
X7992Y7142D02*
X8712Y7142D01*
X2718Y7192D02*
X3419Y7192D01*
X5471Y7192D02*
X5959Y7192D01*
X8011Y7192D02*
X8712Y7192D01*
X2718Y7242D02*
X3401Y7242D01*
X5489Y7242D02*
X5941Y7242D01*
X8029Y7242D02*
X8712Y7242D01*
X2718Y7291D02*
X3382Y7291D01*
X5508Y7291D02*
X5922Y7291D01*
X8048Y7291D02*
X8712Y7291D01*
X2718Y7341D02*
X3363Y7341D01*
X5527Y7341D02*
X5903Y7341D01*
X8067Y7341D02*
X8712Y7341D01*
X2718Y7390D02*
X3354Y7390D01*
X5536Y7390D02*
X5894Y7390D01*
X8076Y7390D02*
X8712Y7390D01*
X2718Y7440D02*
X3348Y7440D01*
X5542Y7440D02*
X5888Y7440D01*
X8082Y7440D02*
X8712Y7440D01*
X2718Y7489D02*
X3342Y7489D01*
X5548Y7489D02*
X5882Y7489D01*
X8088Y7489D02*
X8712Y7489D01*
X2718Y7539D02*
X3336Y7539D01*
X5554Y7539D02*
X5876Y7539D01*
X8082Y7539D02*
X8712Y7539D01*
X2718Y7588D02*
X3330Y7588D01*
X5560Y7588D02*
X5870Y7588D01*
X7849Y7588D02*
X8712Y7588D01*
X2718Y7638D02*
X3328Y7638D01*
X5562Y7638D02*
X5868Y7638D01*
X7849Y7638D02*
X8712Y7638D01*
X2718Y7687D02*
X3334Y7687D01*
X5556Y7687D02*
X5874Y7687D01*
X7849Y7687D02*
X8712Y7687D01*
X2718Y7737D02*
X3340Y7737D01*
X5550Y7737D02*
X5880Y7737D01*
X8090Y7737D02*
X8712Y7737D01*
X2718Y7786D02*
X3346Y7786D01*
X5544Y7786D02*
X5886Y7786D01*
X8084Y7786D02*
X8712Y7786D01*
X2718Y7836D02*
X3352Y7836D01*
X5538Y7836D02*
X5892Y7836D01*
X8078Y7836D02*
X8712Y7836D01*
X2718Y7885D02*
X3358Y7885D01*
X5532Y7885D02*
X5898Y7885D01*
X8072Y7885D02*
X8712Y7885D01*
X2718Y7935D02*
X3377Y7935D01*
X5513Y7935D02*
X5917Y7935D01*
X8053Y7935D02*
X8712Y7935D01*
X2718Y7984D02*
X3395Y7984D01*
X5495Y7984D02*
X5935Y7984D01*
X8035Y7984D02*
X8712Y7984D01*
X2718Y8034D02*
X3414Y8034D01*
X5476Y8034D02*
X5954Y8034D01*
X8016Y8034D02*
X8712Y8034D01*
X2718Y8084D02*
X3433Y8084D01*
X5457Y8084D02*
X5973Y8084D01*
X7997Y8084D02*
X8712Y8084D01*
X2718Y8133D02*
X3452Y8133D01*
X5438Y8133D02*
X5992Y8133D01*
X7978Y8133D02*
X8712Y8133D01*
X2718Y8183D02*
X3484Y8183D01*
X5406Y8183D02*
X6024Y8183D01*
X7946Y8183D02*
X8712Y8183D01*
X2718Y8232D02*
X3518Y8232D01*
X5372Y8232D02*
X6058Y8232D01*
X7912Y8232D02*
X8712Y8232D01*
X2718Y8282D02*
X3552Y8282D01*
X5338Y8282D02*
X6092Y8282D01*
X7878Y8282D02*
X8712Y8282D01*
X2718Y8331D02*
X3586Y8331D01*
X5304Y8331D02*
X6126Y8331D01*
X7844Y8331D02*
X8712Y8331D01*
X2718Y8381D02*
X3629Y8381D01*
X5261Y8381D02*
X6169Y8381D01*
X7801Y8381D02*
X8712Y8381D01*
X2718Y8430D02*
X3685Y8430D01*
X5205Y8430D02*
X6225Y8430D01*
X7745Y8430D02*
X8712Y8430D01*
X2718Y8480D02*
X3741Y8480D01*
X5149Y8480D02*
X6281Y8480D01*
X6909Y8480D02*
X7061Y8480D01*
X7689Y8480D02*
X8712Y8480D01*
X2718Y8529D02*
X3797Y8529D01*
X5093Y8529D02*
X6337Y8529D01*
X6909Y8529D02*
X7061Y8529D01*
X7633Y8529D02*
X8712Y8529D01*
X2718Y8579D02*
X3882Y8579D01*
X5008Y8579D02*
X6422Y8579D01*
X6909Y8579D02*
X7061Y8579D01*
X7548Y8579D02*
X8712Y8579D01*
X2718Y8628D02*
X3976Y8628D01*
X4914Y8628D02*
X6516Y8628D01*
X6909Y8628D02*
X7061Y8628D01*
X7454Y8628D02*
X8712Y8628D01*
X2718Y8678D02*
X4096Y8678D01*
X4794Y8678D02*
X6636Y8678D01*
X6909Y8678D02*
X7061Y8678D01*
X7334Y8678D02*
X8712Y8678D01*
X2718Y8727D02*
X4297Y8727D01*
X4593Y8727D02*
X6837Y8727D01*
X6897Y8727D02*
X7073Y8727D01*
X7133Y8727D02*
X8712Y8727D01*
X2718Y8777D02*
X8712Y8777D01*
X2718Y8826D02*
X8712Y8826D01*
X2718Y8876D02*
X8712Y8876D01*
X2718Y8926D02*
X8712Y8926D01*
X2718Y8975D02*
X8712Y8975D01*
X2718Y9025D02*
X8712Y9025D01*
X2718Y9074D02*
X8712Y9074D01*
X2718Y9124D02*
X8712Y9124D01*
X2718Y9173D02*
X8712Y9173D01*
X2718Y9223D02*
X8712Y9223D01*
X2718Y9272D02*
X8712Y9272D01*
X2718Y9322D02*
X8712Y9322D01*
X2718Y9371D02*
X8712Y9371D01*
X2718Y9421D02*
X8712Y9421D01*
X2718Y9470D02*
X8712Y9470D01*
X2718Y9520D02*
X8712Y9520D01*
X2718Y9569D02*
X8712Y9569D01*
X2718Y9619D02*
X8712Y9619D01*
X2718Y9669D02*
X8712Y9669D01*
X0432Y9718D02*
X10998Y9718D01*
X0432Y9768D02*
X10998Y9768D01*
X0432Y9817D02*
X10998Y9817D01*
X0432Y9867D02*
X10998Y9867D01*
X0432Y9916D02*
X10998Y9916D01*
X0432Y9966D02*
X10998Y9966D01*
X0432Y10015D02*
X3295Y10015D01*
X8135Y10015D02*
X10998Y10015D01*
X0432Y10065D02*
X3238Y10065D01*
X8192Y10065D02*
X10998Y10065D01*
X0432Y10114D02*
X3207Y10114D01*
X8223Y10114D02*
X10998Y10114D01*
X0432Y10164D02*
X3191Y10164D01*
X8239Y10164D02*
X10998Y10164D01*
X0432Y10213D02*
X3185Y10213D01*
X8245Y10213D02*
X10998Y10213D01*
X0432Y10263D02*
X3185Y10263D01*
X8245Y10263D02*
X10998Y10263D01*
X0432Y10312D02*
X3185Y10312D01*
X8245Y10312D02*
X10998Y10312D01*
X0432Y10362D02*
X3185Y10362D01*
X8245Y10362D02*
X10998Y10362D01*
X0432Y10411D02*
X3185Y10411D01*
X8245Y10411D02*
X10998Y10411D01*
X0432Y10461D02*
X3185Y10461D01*
X8245Y10461D02*
X10998Y10461D01*
X0432Y10511D02*
X3185Y10511D01*
X8245Y10511D02*
X10998Y10511D01*
X0432Y10560D02*
X3185Y10560D01*
X8245Y10560D02*
X10998Y10560D01*
X0432Y10610D02*
X3185Y10610D01*
X8245Y10610D02*
X10998Y10610D01*
X0432Y10659D02*
X3185Y10659D01*
X8245Y10659D02*
X10998Y10659D01*
X0432Y10709D02*
X3185Y10709D01*
X8245Y10709D02*
X10998Y10709D01*
X0432Y10758D02*
X3185Y10758D01*
X8245Y10758D02*
X10998Y10758D01*
X0432Y10808D02*
X3185Y10808D01*
X8245Y10808D02*
X10998Y10808D01*
X0432Y10857D02*
X3185Y10857D01*
X8245Y10857D02*
X10998Y10857D01*
X0432Y10907D02*
X3185Y10907D01*
X8245Y10907D02*
X10998Y10907D01*
X0432Y10956D02*
X3185Y10956D01*
X8245Y10956D02*
X10998Y10956D01*
X0432Y11006D02*
X3185Y11006D01*
X8245Y11006D02*
X10998Y11006D01*
X0432Y11055D02*
X3185Y11055D01*
X8245Y11055D02*
X10998Y11055D01*
X0432Y11105D02*
X3185Y11105D01*
X8245Y11105D02*
X10998Y11105D01*
X0432Y11154D02*
X3185Y11154D01*
X8245Y11154D02*
X10998Y11154D01*
X0432Y11204D02*
X3185Y11204D01*
X8245Y11204D02*
X10998Y11204D01*
X0432Y11253D02*
X3185Y11253D01*
X8245Y11253D02*
X10998Y11253D01*
X0432Y11303D02*
X3185Y11303D01*
X8245Y11303D02*
X10998Y11303D01*
X0432Y11353D02*
X3185Y11353D01*
X8245Y11353D02*
X10998Y11353D01*
X0432Y11402D02*
X3185Y11402D01*
X8245Y11402D02*
X10998Y11402D01*
X0432Y11452D02*
X3185Y11452D01*
X8245Y11452D02*
X10998Y11452D01*
X0432Y11501D02*
X3185Y11501D01*
X8245Y11501D02*
X10998Y11501D01*
X0432Y11551D02*
X3185Y11551D01*
X8245Y11551D02*
X10998Y11551D01*
X0432Y11600D02*
X3185Y11600D01*
X8245Y11600D02*
X10998Y11600D01*
X0432Y11650D02*
X3185Y11650D01*
X8245Y11650D02*
X10998Y11650D01*
X0432Y11699D02*
X3185Y11699D01*
X8245Y11699D02*
X10998Y11699D01*
X0432Y11749D02*
X3185Y11749D01*
X8245Y11749D02*
X10998Y11749D01*
X0432Y11798D02*
X3185Y11798D01*
X8245Y11798D02*
X10998Y11798D01*
X0432Y11848D02*
X3189Y11848D01*
X8241Y11848D02*
X10998Y11848D01*
X0432Y11897D02*
X3203Y11897D01*
X8227Y11897D02*
X10998Y11897D01*
X0432Y11947D02*
X3231Y11947D01*
X8199Y11947D02*
X10998Y11947D01*
X0432Y11996D02*
X3281Y11996D01*
X8149Y11996D02*
X10998Y11996D01*
X0432Y12046D02*
X10998Y12046D01*
X0432Y12095D02*
X10998Y12095D01*
X0432Y12145D02*
X10998Y12145D01*
X0432Y12195D02*
X10998Y12195D01*
X0432Y12244D02*
X10998Y12244D01*
X0432Y12294D02*
X10998Y12294D01*
X0432Y12343D02*
X10998Y12343D01*
X0432Y12393D02*
X10998Y12393D01*
X0432Y12442D02*
X10998Y12442D01*
X0432Y12492D02*
X10998Y12492D01*
X0432Y12541D02*
X10998Y12541D01*
X0432Y12591D02*
X10998Y12591D01*
X0432Y12640D02*
X10998Y12640D01*
X0432Y12690D02*
X10998Y12690D01*
X0432Y12739D02*
X10998Y12739D01*
X0432Y12789D02*
X10998Y12789D01*
X0432Y12838D02*
X10998Y12838D01*
X0432Y12888D02*
X10998Y12888D01*
X0432Y12937D02*
X10998Y12937D01*
X0432Y12987D02*
X10998Y12987D01*
X0432Y13037D02*
X10998Y13037D01*
X0432Y13086D02*
X10998Y13086D01*
X0432Y13136D02*
X10998Y13136D01*
X0432Y13185D02*
X10998Y13185D01*
X0432Y13235D02*
X10998Y13235D01*
X0432Y13284D02*
X10998Y13284D01*
X0432Y13334D02*
X10998Y13334D01*
X0432Y13383D02*
X10998Y13383D01*
X0432Y13433D02*
X10998Y13433D01*
X0432Y13482D02*
X10998Y13482D01*
X0432Y13532D02*
X10998Y13532D01*
X0432Y13581D02*
X10998Y13581D01*
X0432Y13631D02*
X10998Y13631D01*
X0432Y13680D02*
X10998Y13680D01*
X0432Y13730D02*
X10998Y13730D01*
X0432Y13780D02*
X10998Y13780D01*
X0432Y13829D02*
X10998Y13829D01*
X0432Y13879D02*
X10998Y13879D01*
X0432Y13928D02*
X10998Y13928D01*
X0432Y13978D02*
X10998Y13978D01*
X0432Y14027D02*
X10998Y14027D01*
X0432Y14077D02*
X10998Y14077D01*
X0432Y14126D02*
X10998Y14126D01*
X0432Y14176D02*
X10998Y14176D01*
X0432Y14225D02*
X10998Y14225D01*
X0432Y14275D02*
X10998Y14275D01*
X0432Y14324D02*
X10998Y14324D01*
X0432Y14374D02*
X10998Y14374D01*
X0432Y14423D02*
X10998Y14423D01*
X0432Y14473D02*
X10998Y14473D01*
X0432Y14522D02*
X10998Y14522D01*
X0432Y14572D02*
X10998Y14572D01*
X0432Y14622D02*
X10998Y14622D01*
X0432Y14671D02*
X10998Y14671D01*
X0432Y14721D02*
X10998Y14721D01*
X0432Y14770D02*
X10998Y14770D01*
X0432Y14820D02*
X10998Y14820D01*
X0432Y14869D02*
X10998Y14869D01*
X0432Y14919D02*
X10998Y14919D01*
X0432Y14968D02*
X10998Y14968D01*
X0432Y15018D02*
X10998Y15018D01*
X0432Y15067D02*
X10998Y15067D01*
X0432Y15117D02*
X10998Y15117D01*
X0432Y15166D02*
X10998Y15166D01*
X0432Y15216D02*
X10998Y15216D01*
X0432Y15265D02*
X10998Y15265D01*
X0432Y15315D02*
X10998Y15315D01*
X0432Y15364D02*
X10998Y15364D01*
X0432Y15414D02*
X10998Y15414D01*
X0432Y15464D02*
X10998Y15464D01*
X0432Y15513D02*
X10998Y15513D01*
X0432Y15563D02*
X10998Y15563D01*
X0432Y15612D02*
X10998Y15612D01*
X0432Y15662D02*
X10998Y15662D01*
X0432Y15711D02*
X10998Y15711D01*
X0432Y15761D02*
X0985Y15761D01*
X1445Y15761D02*
X9985Y15761D01*
X10445Y15761D02*
X10998Y15761D01*
X0432Y15810D02*
X0827Y15810D01*
X1603Y15810D02*
X9827Y15810D01*
X10603Y15810D02*
X10998Y15810D01*
X0432Y15860D02*
X0721Y15860D01*
X1709Y15860D02*
X9721Y15860D01*
X10709Y15860D02*
X10998Y15860D01*
X0432Y15909D02*
X0643Y15909D01*
X1787Y15909D02*
X9643Y15909D01*
X10787Y15909D02*
X10998Y15909D01*
X0432Y15959D02*
X0573Y15959D01*
X1857Y15959D02*
X9573Y15959D01*
X10857Y15959D02*
X10998Y15959D01*
X0432Y16008D02*
X0517Y16008D01*
X1913Y16008D02*
X4344Y16008D01*
X5639Y16008D02*
X5791Y16008D01*
X7086Y16008D02*
X9517Y16008D01*
X10913Y16008D02*
X10998Y16008D01*
X1962Y16058D02*
X4182Y16058D01*
X5639Y16058D02*
X5791Y16058D01*
X7248Y16058D02*
X9468Y16058D01*
X2009Y16107D02*
X4076Y16107D01*
X5639Y16107D02*
X5791Y16107D01*
X7354Y16107D02*
X9421Y16107D01*
X2044Y16157D02*
X3997Y16157D01*
X5639Y16157D02*
X5791Y16157D01*
X7433Y16157D02*
X9386Y16157D01*
X2078Y16206D02*
X3926Y16206D01*
X5639Y16206D02*
X5791Y16206D01*
X7504Y16206D02*
X9352Y16206D01*
X2111Y16256D02*
X3870Y16256D01*
X7560Y16256D02*
X9319Y16256D01*
X2134Y16306D02*
X3820Y16306D01*
X7610Y16306D02*
X9296Y16306D01*
X2157Y16355D02*
X3773Y16355D01*
X7657Y16355D02*
X9273Y16355D01*
X2180Y16405D02*
X3738Y16405D01*
X7692Y16405D02*
X9250Y16405D01*
X2194Y16454D02*
X3703Y16454D01*
X7727Y16454D02*
X9236Y16454D01*
X2207Y16504D02*
X3670Y16504D01*
X7760Y16504D02*
X9223Y16504D01*
X2221Y16553D02*
X3647Y16553D01*
X7783Y16553D02*
X9209Y16553D01*
X2230Y16603D02*
X3624Y16603D01*
X7806Y16603D02*
X9200Y16603D01*
X2234Y16652D02*
X3601Y16652D01*
X7829Y16652D02*
X9196Y16652D01*
X2239Y16702D02*
X3587Y16702D01*
X7843Y16702D02*
X9191Y16702D01*
X2243Y16751D02*
X3573Y16751D01*
X7857Y16751D02*
X9187Y16751D01*
X2244Y16801D02*
X3560Y16801D01*
X7870Y16801D02*
X9186Y16801D01*
X2244Y16850D02*
X3550Y16850D01*
X7880Y16850D02*
X9186Y16850D01*
X2244Y16900D02*
X3546Y16900D01*
X7884Y16900D02*
X9186Y16900D01*
X2244Y16949D02*
X3790Y16949D01*
X7640Y16949D02*
X9186Y16949D01*
X2244Y16999D02*
X3790Y16999D01*
X7640Y16999D02*
X9186Y16999D01*
X2244Y17048D02*
X3790Y17048D01*
X7640Y17048D02*
X9186Y17048D01*
X2244Y17098D02*
X3549Y17098D01*
X7881Y17098D02*
X9186Y17098D01*
X2244Y17148D02*
X3548Y17148D01*
X7882Y17148D02*
X9186Y17148D01*
X2244Y17197D02*
X3554Y17197D01*
X7876Y17197D02*
X9186Y17197D01*
X2244Y17247D02*
X3567Y17247D01*
X7863Y17247D02*
X9186Y17247D01*
X2244Y17296D02*
X3581Y17296D01*
X7849Y17296D02*
X9186Y17296D01*
X2244Y17346D02*
X3594Y17346D01*
X7836Y17346D02*
X9186Y17346D01*
X2244Y17395D02*
X3614Y17395D01*
X7816Y17395D02*
X9186Y17395D01*
X2244Y17445D02*
X3637Y17445D01*
X7793Y17445D02*
X9186Y17445D01*
X2244Y17494D02*
X3660Y17494D01*
X7770Y17494D02*
X9186Y17494D01*
X2244Y17544D02*
X3688Y17544D01*
X7742Y17544D02*
X9186Y17544D01*
X2244Y17593D02*
X3722Y17593D01*
X7708Y17593D02*
X9186Y17593D01*
X2244Y17643D02*
X3757Y17643D01*
X7673Y17643D02*
X9186Y17643D01*
X2244Y17692D02*
X3798Y17692D01*
X7632Y17692D02*
X9186Y17692D01*
X2244Y17742D02*
X3848Y17742D01*
X7582Y17742D02*
X9186Y17742D01*
X2244Y17791D02*
X3897Y17791D01*
X5639Y17791D02*
X5791Y17791D01*
X7533Y17791D02*
X9186Y17791D01*
X2244Y17841D02*
X3965Y17841D01*
X5639Y17841D02*
X5791Y17841D01*
X7465Y17841D02*
X9186Y17841D01*
X2244Y17890D02*
X4036Y17890D01*
X5639Y17890D02*
X5791Y17890D01*
X7394Y17890D02*
X9186Y17890D01*
X2244Y17940D02*
X4135Y17940D01*
X5639Y17940D02*
X5791Y17940D01*
X7295Y17940D02*
X9186Y17940D01*
X2244Y17990D02*
X4261Y17990D01*
X5639Y17990D02*
X5791Y17990D01*
X7169Y17990D02*
X9186Y17990D01*
X2244Y18039D02*
X9186Y18039D01*
X2244Y18089D02*
X9186Y18089D01*
X2244Y18138D02*
X9186Y18138D01*
X2244Y18188D02*
X9186Y18188D01*
X2244Y18237D02*
X9186Y18237D01*
X2244Y18287D02*
X9186Y18287D01*
X2244Y18336D02*
X9186Y18336D01*
X2244Y18386D02*
X9186Y18386D01*
X2244Y18435D02*
X9186Y18435D01*
X2244Y18485D02*
X9186Y18485D01*
X2244Y18534D02*
X9186Y18534D01*
X2244Y18584D02*
X9186Y18584D01*
X2244Y18633D02*
X9186Y18633D01*
X2244Y18683D02*
X9186Y18683D01*
X2244Y18733D02*
X9186Y18733D01*
X2244Y18782D02*
X9186Y18782D01*
X2244Y18832D02*
X9186Y18832D01*
X2244Y18881D02*
X9186Y18881D01*
X2244Y18931D02*
X9186Y18931D01*
X2244Y18980D02*
X9186Y18980D01*
X2244Y19030D02*
X5421Y19030D01*
X6009Y19030D02*
X9186Y19030D01*
X2244Y19079D02*
X5289Y19079D01*
X6141Y19079D02*
X9186Y19079D01*
X2244Y19129D02*
X5194Y19129D01*
X6236Y19129D02*
X9186Y19129D01*
X2244Y19178D02*
X5112Y19178D01*
X6318Y19178D02*
X9186Y19178D01*
X2244Y19228D02*
X5056Y19228D01*
X6374Y19228D02*
X9186Y19228D01*
X2242Y19277D02*
X5000Y19277D01*
X6430Y19277D02*
X9188Y19277D01*
X2238Y19327D02*
X4945Y19327D01*
X6485Y19327D02*
X9192Y19327D01*
X2234Y19376D02*
X4910Y19376D01*
X6520Y19376D02*
X9196Y19376D01*
X2229Y19426D02*
X4876Y19426D01*
X6554Y19426D02*
X9201Y19426D01*
X2218Y19475D02*
X4842Y19475D01*
X6588Y19475D02*
X9212Y19475D01*
X2205Y19525D02*
X4808Y19525D01*
X6622Y19525D02*
X9225Y19525D01*
X2192Y19575D02*
X4787Y19575D01*
X6643Y19575D02*
X9238Y19575D01*
X2176Y19624D02*
X4768Y19624D01*
X6662Y19624D02*
X9254Y19624D01*
X2153Y19674D02*
X4749Y19674D01*
X6681Y19674D02*
X9277Y19674D01*
X2130Y19723D02*
X4730Y19723D01*
X6700Y19723D02*
X9300Y19723D01*
X2107Y19773D02*
X4714Y19773D01*
X6716Y19773D02*
X9323Y19773D01*
X2072Y19822D02*
X4708Y19822D01*
X6722Y19822D02*
X9358Y19822D01*
X2038Y19872D02*
X4702Y19872D01*
X6728Y19872D02*
X9392Y19872D01*
X2003Y19921D02*
X4696Y19921D01*
X6734Y19921D02*
X9427Y19921D01*
X1954Y19971D02*
X4690Y19971D01*
X6740Y19971D02*
X9476Y19971D01*
X0432Y20020D02*
X0526Y20020D01*
X1904Y20020D02*
X4686Y20020D01*
X6744Y20020D02*
X9526Y20020D01*
X10904Y20020D02*
X10998Y20020D01*
X0432Y20070D02*
X0585Y20070D01*
X1845Y20070D02*
X4692Y20070D01*
X6738Y20070D02*
X9585Y20070D01*
X10845Y20070D02*
X10998Y20070D01*
X0432Y20119D02*
X0656Y20119D01*
X1774Y20119D02*
X4698Y20119D01*
X6732Y20119D02*
X9656Y20119D01*
X10774Y20119D02*
X10998Y20119D01*
X0432Y20169D02*
X0739Y20169D01*
X1691Y20169D02*
X4705Y20169D01*
X6725Y20169D02*
X9739Y20169D01*
X10691Y20169D02*
X10998Y20169D01*
X0432Y20218D02*
X0845Y20218D01*
X1585Y20218D02*
X4711Y20218D01*
X6719Y20218D02*
X9845Y20218D01*
X10585Y20218D02*
X10998Y20218D01*
X0432Y20268D02*
X1017Y20268D01*
X1413Y20268D02*
X4719Y20268D01*
X6711Y20268D02*
X10017Y20268D01*
X10413Y20268D02*
X10998Y20268D01*
X0432Y20317D02*
X4738Y20317D01*
X6692Y20317D02*
X10998Y20317D01*
X0432Y20367D02*
X4757Y20367D01*
X6673Y20367D02*
X10998Y20367D01*
X0432Y20417D02*
X4776Y20417D01*
X6654Y20417D02*
X10998Y20417D01*
X0432Y20466D02*
X4795Y20466D01*
X6635Y20466D02*
X10998Y20466D01*
X0432Y20516D02*
X4822Y20516D01*
X6608Y20516D02*
X10998Y20516D01*
X0432Y20565D02*
X4856Y20565D01*
X6574Y20565D02*
X10998Y20565D01*
X0432Y20615D02*
X4890Y20615D01*
X6540Y20615D02*
X10998Y20615D01*
X0432Y20664D02*
X4924Y20664D01*
X6506Y20664D02*
X10998Y20664D01*
X0432Y20714D02*
X4968Y20714D01*
X6462Y20714D02*
X10998Y20714D01*
X0432Y20763D02*
X5024Y20763D01*
X6406Y20763D02*
X10998Y20763D01*
X0432Y20813D02*
X5080Y20813D01*
X6350Y20813D02*
X10998Y20813D01*
X0432Y20862D02*
X5139Y20862D01*
X6291Y20862D02*
X10998Y20862D01*
X0432Y20912D02*
X5234Y20912D01*
X6196Y20912D02*
X10998Y20912D01*
X0432Y20961D02*
X5328Y20961D01*
X6102Y20961D02*
X10998Y20961D01*
X0432Y21011D02*
X5504Y21011D01*
X5926Y21011D02*
X10998Y21011D01*
X0432Y21060D02*
X10998Y21060D01*
X0432Y21110D02*
X10998Y21110D01*
%LNbottom copper_traces*%
%LNbottom copper component baff75c958aad604*%
D11*
X5715Y11010D03*
D12*
X5715Y17010D03*
D13*
X1215Y18010D03*
X10215Y18010D03*
%LNbottom copper component 7efe99aa22ff84f7*%
D14*
X4445Y7620D03*
X4445Y5080D03*
X6985Y7620D03*
X6985Y5080D03*
M02*