%FSLAX33Y33*%
%MOMM*%
%AMRR-H3200000-W1600000-R800000-RO0.000*
21,1,1.6,1.6,0.,0.,360*
1,1,1.6,0.,0.8*
1,1,1.6,0.,0.8*
1,1,1.6,0.,-0.8*
1,1,1.6,-0.,-0.8*%
%AMRR-H1600000-W3200000-R800000-RO0.000*
21,1,1.6,1.6,0.,0.,360*
1,1,1.6,-0.8,0.*
1,1,1.6,0.8,0.*
1,1,1.6,0.8,-0.*
1,1,1.6,-0.8,0.*%
%ADD10C,0.0508*%
%ADD11R,3.2X1.6*%
%ADD12RR-H3200000-W1600000-R800000-RO0.000*%
%ADD13RR-H1600000-W3200000-R800000-RO0.000*%
%ADD14C,1.778*%
D10*
%LNpour fill*%
G01*
X8712Y9688D02*
X8712Y9688D01*
X8727Y9703*
X10998Y9703*
X10998Y18625*
X0432Y18625*
X0432Y9703*
X2703Y9703*
X2718Y9688*
X2718Y0432*
X8712Y0432*
X8712Y9688*
X8139Y17354D02*
X8139Y17354D01*
X8115Y17537*
X8114Y17540*
X8016Y17778*
X8014Y17781*
X7857Y17985*
X7855Y17987*
X7651Y18144*
X7648Y18146*
X7410Y18244*
X7407Y18245*
X7152Y18279*
X7151Y18279*
X6422Y18279*
X6407Y18264*
X6407Y17352*
X6422Y17337*
X8124Y17337*
X8139Y17354*
X6293Y17352D02*
X6293Y17352D01*
X6293Y18264*
X6278Y18279*
X5549Y18279*
X5548Y18279*
X5293Y18245*
X5290Y18244*
X5052Y18146*
X5049Y18144*
X4845Y17987*
X4843Y17985*
X4686Y17781*
X4684Y17778*
X4586Y17540*
X4585Y17537*
X4561Y17354*
X4576Y17337*
X6278Y17337*
X6293Y17352*
X7152Y16281D02*
X7152Y16281D01*
X7407Y16315*
X7410Y16316*
X7648Y16414*
X7651Y16416*
X7855Y16573*
X7857Y16575*
X8014Y16779*
X8016Y16782*
X8114Y17020*
X8115Y17023*
X8139Y17206*
X8124Y17223*
X6422Y17223*
X6407Y17208*
X6407Y16296*
X6422Y16281*
X7151Y16281*
X7152Y16281*
X6293Y16296D02*
X6293Y16296D01*
X6293Y17208*
X6278Y17223*
X4576Y17223*
X4561Y17206*
X4585Y17023*
X4586Y17020*
X4684Y16782*
X4686Y16779*
X4843Y16575*
X4845Y16573*
X5049Y16416*
X5052Y16414*
X5290Y16316*
X5293Y16315*
X5548Y16281*
X5549Y16281*
X6278Y16281*
X6293Y16296*
X1907Y12515D02*
X1907Y12515D01*
X1910Y12516*
X2148Y12614*
X2151Y12616*
X2355Y12773*
X2357Y12775*
X2514Y12979*
X2516Y12982*
X2614Y13220*
X2615Y13223*
X2649Y13478*
X2649Y13479*
X2649Y15081*
X2649Y15082*
X2615Y15337*
X2614Y15340*
X2516Y15578*
X2514Y15581*
X2357Y15785*
X2355Y15787*
X2151Y15944*
X2148Y15946*
X1910Y16044*
X1907Y16045*
X1652Y16079*
X1648Y16079*
X1393Y16045*
X1390Y16044*
X1152Y15946*
X1149Y15944*
X0945Y15787*
X0943Y15785*
X0786Y15581*
X0784Y15578*
X0686Y15340*
X0685Y15337*
X0651Y15082*
X0651Y15081*
X0651Y13479*
X0651Y13478*
X0685Y13223*
X0686Y13220*
X0784Y12982*
X0786Y12979*
X0943Y12775*
X0945Y12773*
X1149Y12616*
X1152Y12614*
X1390Y12516*
X1393Y12515*
X1648Y12481*
X1652Y12481*
X1907Y12515*
X8140Y10304D02*
X8140Y10304D01*
X8140Y12256*
X8126Y12271*
X4574Y12271*
X4559Y12256*
X4559Y10304*
X4574Y10290*
X8126Y10290*
X8140Y10304*
X8064Y7694D02*
X8064Y7694D01*
X8037Y7900*
X8036Y7903*
X7929Y8163*
X7927Y8166*
X7756Y8389*
X7754Y8391*
X7531Y8562*
X7528Y8564*
X7268Y8671*
X7265Y8672*
X7059Y8699*
X7042Y8684*
X7042Y7692*
X7057Y7677*
X8049Y7677*
X8064Y7694*
X6928Y7692D02*
X6928Y7692D01*
X6928Y8684*
X6911Y8699*
X6705Y8672*
X6702Y8671*
X6442Y8564*
X6439Y8562*
X6216Y8391*
X6214Y8389*
X6043Y8166*
X6041Y8163*
X5934Y7903*
X5933Y7900*
X5906Y7694*
X5921Y7677*
X6913Y7677*
X6928Y7692*
X7265Y6568D02*
X7265Y6568D01*
X7268Y6569*
X7528Y6676*
X7531Y6678*
X7754Y6849*
X7756Y6851*
X7927Y7074*
X7929Y7077*
X8036Y7337*
X8037Y7340*
X8064Y7546*
X8049Y7563*
X7057Y7563*
X7042Y7548*
X7042Y6556*
X7059Y6541*
X7265Y6568*
X6928Y6556D02*
X6928Y6556D01*
X6928Y7548*
X6913Y7563*
X5921Y7563*
X5906Y7546*
X5933Y7340*
X5934Y7337*
X6041Y7077*
X6043Y7074*
X6214Y6851*
X6216Y6849*
X6439Y6678*
X6442Y6676*
X6702Y6569*
X6705Y6568*
X6911Y6541*
X6928Y6556*
X4725Y6568D02*
X4725Y6568D01*
X4728Y6569*
X4988Y6676*
X4991Y6678*
X5214Y6849*
X5216Y6851*
X5387Y7074*
X5389Y7077*
X5496Y7337*
X5497Y7340*
X5534Y7618*
X5534Y7622*
X5497Y7900*
X5496Y7903*
X5389Y8163*
X5387Y8166*
X5216Y8389*
X5214Y8391*
X4991Y8562*
X4988Y8564*
X4728Y8671*
X4725Y8672*
X4447Y8709*
X4443Y8709*
X4165Y8672*
X4162Y8671*
X3902Y8564*
X3899Y8562*
X3676Y8391*
X3674Y8389*
X3503Y8166*
X3501Y8163*
X3394Y7903*
X3393Y7900*
X3356Y7622*
X3356Y7618*
X3393Y7340*
X3394Y7337*
X3501Y7077*
X3503Y7074*
X3674Y6851*
X3676Y6849*
X3899Y6678*
X3902Y6676*
X4162Y6569*
X4165Y6568*
X4443Y6531*
X4447Y6531*
X4725Y6568*
X8064Y5154D02*
X8064Y5154D01*
X8037Y5360*
X8036Y5363*
X7929Y5623*
X7927Y5626*
X7756Y5849*
X7754Y5851*
X7531Y6022*
X7528Y6024*
X7268Y6131*
X7265Y6132*
X7059Y6159*
X7042Y6144*
X7042Y5152*
X7057Y5137*
X8049Y5137*
X8064Y5154*
X6928Y5152D02*
X6928Y5152D01*
X6928Y6144*
X6911Y6159*
X6705Y6132*
X6702Y6131*
X6442Y6024*
X6439Y6022*
X6216Y5851*
X6214Y5849*
X6043Y5626*
X6041Y5623*
X5934Y5363*
X5933Y5360*
X5906Y5154*
X5921Y5137*
X6913Y5137*
X6928Y5152*
X7265Y4028D02*
X7265Y4028D01*
X7268Y4029*
X7528Y4136*
X7531Y4138*
X7754Y4309*
X7756Y4311*
X7927Y4534*
X7929Y4537*
X8036Y4797*
X8037Y4800*
X8064Y5006*
X8049Y5023*
X7057Y5023*
X7042Y5008*
X7042Y4016*
X7059Y4001*
X7265Y4028*
X6928Y4016D02*
X6928Y4016D01*
X6928Y5008*
X6913Y5023*
X5921Y5023*
X5906Y5006*
X5933Y4800*
X5934Y4797*
X6041Y4537*
X6043Y4534*
X6214Y4311*
X6216Y4309*
X6439Y4138*
X6442Y4136*
X6702Y4029*
X6705Y4028*
X6911Y4001*
X6928Y4016*
X4725Y4028D02*
X4725Y4028D01*
X4728Y4029*
X4988Y4136*
X4991Y4138*
X5214Y4309*
X5216Y4311*
X5387Y4534*
X5389Y4537*
X5496Y4797*
X5497Y4800*
X5534Y5078*
X5534Y5082*
X5497Y5360*
X5496Y5363*
X5389Y5623*
X5387Y5626*
X5216Y5849*
X5214Y5851*
X4991Y6022*
X4988Y6024*
X4728Y6131*
X4725Y6132*
X4447Y6169*
X4443Y6169*
X4165Y6132*
X4162Y6131*
X3902Y6024*
X3899Y6022*
X3676Y5851*
X3674Y5849*
X3503Y5626*
X3501Y5623*
X3394Y5363*
X3393Y5360*
X3356Y5082*
X3356Y5078*
X3393Y4800*
X3394Y4797*
X3501Y4537*
X3503Y4534*
X3674Y4311*
X3676Y4309*
X3899Y4138*
X3902Y4136*
X4162Y4029*
X4165Y4028*
X4443Y3991*
X4447Y3991*
X4725Y4028*
X2718Y0456D02*
X8712Y0456D01*
X2718Y0505D02*
X8712Y0505D01*
X2718Y0555D02*
X8712Y0555D01*
X2718Y0605D02*
X8712Y0605D01*
X2718Y0654D02*
X8712Y0654D01*
X2718Y0704D02*
X8712Y0704D01*
X2718Y0753D02*
X8712Y0753D01*
X2718Y0803D02*
X8712Y0803D01*
X2718Y0852D02*
X8712Y0852D01*
X2718Y0902D02*
X8712Y0902D01*
X2718Y0951D02*
X8712Y0951D01*
X2718Y1001D02*
X8712Y1001D01*
X2718Y1050D02*
X8712Y1050D01*
X2718Y1100D02*
X8712Y1100D01*
X2718Y1149D02*
X8712Y1149D01*
X2718Y1199D02*
X8712Y1199D01*
X2718Y1248D02*
X8712Y1248D01*
X2718Y1298D02*
X8712Y1298D01*
X2718Y1347D02*
X8712Y1347D01*
X2718Y1397D02*
X8712Y1397D01*
X2718Y1447D02*
X8712Y1447D01*
X2718Y1496D02*
X8712Y1496D01*
X2718Y1546D02*
X8712Y1546D01*
X2718Y1595D02*
X8712Y1595D01*
X2718Y1645D02*
X8712Y1645D01*
X2718Y1694D02*
X8712Y1694D01*
X2718Y1744D02*
X8712Y1744D01*
X2718Y1793D02*
X8712Y1793D01*
X2718Y1843D02*
X8712Y1843D01*
X2718Y1892D02*
X8712Y1892D01*
X2718Y1942D02*
X8712Y1942D01*
X2718Y1991D02*
X8712Y1991D01*
X2718Y2041D02*
X8712Y2041D01*
X2718Y2090D02*
X8712Y2090D01*
X2718Y2140D02*
X8712Y2140D01*
X2718Y2189D02*
X8712Y2189D01*
X2718Y2239D02*
X8712Y2239D01*
X2718Y2289D02*
X8712Y2289D01*
X2718Y2338D02*
X8712Y2338D01*
X2718Y2388D02*
X8712Y2388D01*
X2718Y2437D02*
X8712Y2437D01*
X2718Y2487D02*
X8712Y2487D01*
X2718Y2536D02*
X8712Y2536D01*
X2718Y2586D02*
X8712Y2586D01*
X2718Y2635D02*
X8712Y2635D01*
X2718Y2685D02*
X8712Y2685D01*
X2718Y2734D02*
X8712Y2734D01*
X2718Y2784D02*
X8712Y2784D01*
X2718Y2833D02*
X8712Y2833D01*
X2718Y2883D02*
X8712Y2883D01*
X2718Y2932D02*
X8712Y2932D01*
X2718Y2982D02*
X8712Y2982D01*
X2718Y3031D02*
X8712Y3031D01*
X2718Y3081D02*
X8712Y3081D01*
X2718Y3131D02*
X8712Y3131D01*
X2718Y3180D02*
X8712Y3180D01*
X2718Y3230D02*
X8712Y3230D01*
X2718Y3279D02*
X8712Y3279D01*
X2718Y3329D02*
X8712Y3329D01*
X2718Y3378D02*
X8712Y3378D01*
X2718Y3428D02*
X8712Y3428D01*
X2718Y3477D02*
X8712Y3477D01*
X2718Y3527D02*
X8712Y3527D01*
X2718Y3576D02*
X8712Y3576D01*
X2718Y3626D02*
X8712Y3626D01*
X2718Y3675D02*
X8712Y3675D01*
X2718Y3725D02*
X8712Y3725D01*
X2718Y3774D02*
X8712Y3774D01*
X2718Y3824D02*
X8712Y3824D01*
X2718Y3873D02*
X8712Y3873D01*
X2718Y3923D02*
X8712Y3923D01*
X2718Y3973D02*
X8712Y3973D01*
X2718Y4022D02*
X4210Y4022D01*
X4680Y4022D02*
X6750Y4022D01*
X6928Y4022D02*
X7042Y4022D01*
X7220Y4022D02*
X8712Y4022D01*
X2718Y4072D02*
X4059Y4072D01*
X4831Y4072D02*
X6599Y4072D01*
X6928Y4072D02*
X7042Y4072D01*
X7371Y4072D02*
X8712Y4072D01*
X2718Y4121D02*
X3939Y4121D01*
X4951Y4121D02*
X6479Y4121D01*
X6928Y4121D02*
X7042Y4121D01*
X7491Y4121D02*
X8712Y4121D01*
X2718Y4171D02*
X3857Y4171D01*
X5033Y4171D02*
X6397Y4171D01*
X6928Y4171D02*
X7042Y4171D01*
X7573Y4171D02*
X8712Y4171D01*
X2718Y4220D02*
X3792Y4220D01*
X5098Y4220D02*
X6332Y4220D01*
X6928Y4220D02*
X7042Y4220D01*
X7638Y4220D02*
X8712Y4220D01*
X2718Y4270D02*
X3728Y4270D01*
X5162Y4270D02*
X6268Y4270D01*
X6928Y4270D02*
X7042Y4270D01*
X7702Y4270D02*
X8712Y4270D01*
X2718Y4319D02*
X3668Y4319D01*
X5222Y4319D02*
X6208Y4319D01*
X6928Y4319D02*
X7042Y4319D01*
X7762Y4319D02*
X8712Y4319D01*
X2718Y4369D02*
X3630Y4369D01*
X5260Y4369D02*
X6170Y4369D01*
X6928Y4369D02*
X7042Y4369D01*
X7800Y4369D02*
X8712Y4369D01*
X2718Y4418D02*
X3592Y4418D01*
X5298Y4418D02*
X6132Y4418D01*
X6928Y4418D02*
X7042Y4418D01*
X7838Y4418D02*
X8712Y4418D01*
X2718Y4468D02*
X3554Y4468D01*
X5336Y4468D02*
X6094Y4468D01*
X6928Y4468D02*
X7042Y4468D01*
X7876Y4468D02*
X8712Y4468D01*
X2718Y4517D02*
X3516Y4517D01*
X5374Y4517D02*
X6056Y4517D01*
X6928Y4517D02*
X7042Y4517D01*
X7914Y4517D02*
X8712Y4517D01*
X2718Y4567D02*
X3489Y4567D01*
X5401Y4567D02*
X6029Y4567D01*
X6928Y4567D02*
X7042Y4567D01*
X7941Y4567D02*
X8712Y4567D01*
X2718Y4616D02*
X3469Y4616D01*
X5421Y4616D02*
X6009Y4616D01*
X6928Y4616D02*
X7042Y4616D01*
X7961Y4616D02*
X8712Y4616D01*
X2718Y4666D02*
X3448Y4666D01*
X5442Y4666D02*
X5988Y4666D01*
X6928Y4666D02*
X7042Y4666D01*
X7982Y4666D02*
X8712Y4666D01*
X2718Y4716D02*
X3428Y4716D01*
X5462Y4716D02*
X5968Y4716D01*
X6928Y4716D02*
X7042Y4716D01*
X8002Y4716D02*
X8712Y4716D01*
X2718Y4765D02*
X3407Y4765D01*
X5483Y4765D02*
X5947Y4765D01*
X6928Y4765D02*
X7042Y4765D01*
X8023Y4765D02*
X8712Y4765D01*
X2718Y4815D02*
X3391Y4815D01*
X5499Y4815D02*
X5931Y4815D01*
X6928Y4815D02*
X7042Y4815D01*
X8039Y4815D02*
X8712Y4815D01*
X2718Y4864D02*
X3385Y4864D01*
X5505Y4864D02*
X5925Y4864D01*
X6928Y4864D02*
X7042Y4864D01*
X8045Y4864D02*
X8712Y4864D01*
X2718Y4914D02*
X3378Y4914D01*
X5512Y4914D02*
X5918Y4914D01*
X6928Y4914D02*
X7042Y4914D01*
X8052Y4914D02*
X8712Y4914D01*
X2718Y4963D02*
X3372Y4963D01*
X5518Y4963D02*
X5912Y4963D01*
X6928Y4963D02*
X7042Y4963D01*
X8058Y4963D02*
X8712Y4963D01*
X2718Y5013D02*
X3365Y5013D01*
X5525Y5013D02*
X5912Y5013D01*
X6923Y5013D02*
X7047Y5013D01*
X8058Y5013D02*
X8712Y5013D01*
X2718Y5062D02*
X3359Y5062D01*
X5531Y5062D02*
X8712Y5062D01*
X2718Y5112D02*
X3360Y5112D01*
X5530Y5112D02*
X8712Y5112D01*
X2718Y5161D02*
X3367Y5161D01*
X5523Y5161D02*
X5907Y5161D01*
X6928Y5161D02*
X7042Y5161D01*
X8063Y5161D02*
X8712Y5161D01*
X2718Y5211D02*
X3373Y5211D01*
X5517Y5211D02*
X5913Y5211D01*
X6928Y5211D02*
X7042Y5211D01*
X8057Y5211D02*
X8712Y5211D01*
X2718Y5260D02*
X3380Y5260D01*
X5510Y5260D02*
X5920Y5260D01*
X6928Y5260D02*
X7042Y5260D01*
X8050Y5260D02*
X8712Y5260D01*
X2718Y5310D02*
X3386Y5310D01*
X5504Y5310D02*
X5926Y5310D01*
X6928Y5310D02*
X7042Y5310D01*
X8044Y5310D02*
X8712Y5310D01*
X2718Y5359D02*
X3393Y5359D01*
X5497Y5359D02*
X5933Y5359D01*
X6928Y5359D02*
X7042Y5359D01*
X8037Y5359D02*
X8712Y5359D01*
X2718Y5409D02*
X3413Y5409D01*
X5477Y5409D02*
X5953Y5409D01*
X6928Y5409D02*
X7042Y5409D01*
X8017Y5409D02*
X8712Y5409D01*
X2718Y5458D02*
X3433Y5458D01*
X5457Y5458D02*
X5973Y5458D01*
X6928Y5458D02*
X7042Y5458D01*
X7997Y5458D02*
X8712Y5458D01*
X2718Y5508D02*
X3454Y5508D01*
X5436Y5508D02*
X5994Y5508D01*
X6928Y5508D02*
X7042Y5508D01*
X7976Y5508D02*
X8712Y5508D01*
X2718Y5558D02*
X3474Y5558D01*
X5416Y5558D02*
X6014Y5558D01*
X6928Y5558D02*
X7042Y5558D01*
X7956Y5558D02*
X8712Y5558D01*
X2718Y5607D02*
X3495Y5607D01*
X5395Y5607D02*
X6035Y5607D01*
X6928Y5607D02*
X7042Y5607D01*
X7935Y5607D02*
X8712Y5607D01*
X2718Y5657D02*
X3527Y5657D01*
X5363Y5657D02*
X6067Y5657D01*
X6928Y5657D02*
X7042Y5657D01*
X7903Y5657D02*
X8712Y5657D01*
X2718Y5706D02*
X3565Y5706D01*
X5325Y5706D02*
X6105Y5706D01*
X6928Y5706D02*
X7042Y5706D01*
X7865Y5706D02*
X8712Y5706D01*
X2718Y5756D02*
X3603Y5756D01*
X5287Y5756D02*
X6143Y5756D01*
X6928Y5756D02*
X7042Y5756D01*
X7827Y5756D02*
X8712Y5756D01*
X2718Y5805D02*
X3641Y5805D01*
X5249Y5805D02*
X6181Y5805D01*
X6928Y5805D02*
X7042Y5805D01*
X7789Y5805D02*
X8712Y5805D01*
X2718Y5855D02*
X3681Y5855D01*
X5209Y5855D02*
X6221Y5855D01*
X6928Y5855D02*
X7042Y5855D01*
X7749Y5855D02*
X8712Y5855D01*
X2718Y5904D02*
X3746Y5904D01*
X5144Y5904D02*
X6286Y5904D01*
X6928Y5904D02*
X7042Y5904D01*
X7684Y5904D02*
X8712Y5904D01*
X2718Y5954D02*
X3810Y5954D01*
X5080Y5954D02*
X6350Y5954D01*
X6928Y5954D02*
X7042Y5954D01*
X7620Y5954D02*
X8712Y5954D01*
X2718Y6003D02*
X3875Y6003D01*
X5015Y6003D02*
X6415Y6003D01*
X6928Y6003D02*
X7042Y6003D01*
X7555Y6003D02*
X8712Y6003D01*
X2718Y6053D02*
X3973Y6053D01*
X4917Y6053D02*
X6513Y6053D01*
X6928Y6053D02*
X7042Y6053D01*
X7457Y6053D02*
X8712Y6053D01*
X2718Y6102D02*
X4092Y6102D01*
X4798Y6102D02*
X6632Y6102D01*
X6928Y6102D02*
X7042Y6102D01*
X7338Y6102D02*
X8712Y6102D01*
X2718Y6152D02*
X4316Y6152D01*
X4574Y6152D02*
X6856Y6152D01*
X6919Y6152D02*
X7051Y6152D01*
X7114Y6152D02*
X8712Y6152D01*
X2718Y6201D02*
X8712Y6201D01*
X2718Y6251D02*
X8712Y6251D01*
X2718Y6300D02*
X8712Y6300D01*
X2718Y6350D02*
X8712Y6350D01*
X2718Y6400D02*
X8712Y6400D01*
X2718Y6449D02*
X8712Y6449D01*
X2718Y6499D02*
X8712Y6499D01*
X2718Y6548D02*
X4316Y6548D01*
X4574Y6548D02*
X6856Y6548D01*
X6919Y6548D02*
X7051Y6548D01*
X7114Y6548D02*
X8712Y6548D01*
X2718Y6598D02*
X4092Y6598D01*
X4798Y6598D02*
X6632Y6598D01*
X6928Y6598D02*
X7042Y6598D01*
X7338Y6598D02*
X8712Y6598D01*
X2718Y6647D02*
X3973Y6647D01*
X4917Y6647D02*
X6513Y6647D01*
X6928Y6647D02*
X7042Y6647D01*
X7457Y6647D02*
X8712Y6647D01*
X2718Y6697D02*
X3875Y6697D01*
X5015Y6697D02*
X6415Y6697D01*
X6928Y6697D02*
X7042Y6697D01*
X7555Y6697D02*
X8712Y6697D01*
X2718Y6746D02*
X3810Y6746D01*
X5080Y6746D02*
X6350Y6746D01*
X6928Y6746D02*
X7042Y6746D01*
X7620Y6746D02*
X8712Y6746D01*
X2718Y6796D02*
X3746Y6796D01*
X5144Y6796D02*
X6286Y6796D01*
X6928Y6796D02*
X7042Y6796D01*
X7684Y6796D02*
X8712Y6796D01*
X2718Y6845D02*
X3681Y6845D01*
X5209Y6845D02*
X6221Y6845D01*
X6928Y6845D02*
X7042Y6845D01*
X7749Y6845D02*
X8712Y6845D01*
X2718Y6895D02*
X3641Y6895D01*
X5249Y6895D02*
X6181Y6895D01*
X6928Y6895D02*
X7042Y6895D01*
X7789Y6895D02*
X8712Y6895D01*
X2718Y6944D02*
X3603Y6944D01*
X5287Y6944D02*
X6143Y6944D01*
X6928Y6944D02*
X7042Y6944D01*
X7827Y6944D02*
X8712Y6944D01*
X2718Y6994D02*
X3565Y6994D01*
X5325Y6994D02*
X6105Y6994D01*
X6928Y6994D02*
X7042Y6994D01*
X7865Y6994D02*
X8712Y6994D01*
X2718Y7043D02*
X3527Y7043D01*
X5363Y7043D02*
X6067Y7043D01*
X6928Y7043D02*
X7042Y7043D01*
X7903Y7043D02*
X8712Y7043D01*
X2718Y7093D02*
X3495Y7093D01*
X5395Y7093D02*
X6035Y7093D01*
X6928Y7093D02*
X7042Y7093D01*
X7935Y7093D02*
X8712Y7093D01*
X2718Y7142D02*
X3474Y7142D01*
X5416Y7142D02*
X6014Y7142D01*
X6928Y7142D02*
X7042Y7142D01*
X7956Y7142D02*
X8712Y7142D01*
X2718Y7192D02*
X3454Y7192D01*
X5436Y7192D02*
X5994Y7192D01*
X6928Y7192D02*
X7042Y7192D01*
X7976Y7192D02*
X8712Y7192D01*
X2718Y7242D02*
X3433Y7242D01*
X5457Y7242D02*
X5973Y7242D01*
X6928Y7242D02*
X7042Y7242D01*
X7997Y7242D02*
X8712Y7242D01*
X2718Y7291D02*
X3413Y7291D01*
X5477Y7291D02*
X5953Y7291D01*
X6928Y7291D02*
X7042Y7291D01*
X8017Y7291D02*
X8712Y7291D01*
X2718Y7341D02*
X3393Y7341D01*
X5497Y7341D02*
X5933Y7341D01*
X6928Y7341D02*
X7042Y7341D01*
X8037Y7341D02*
X8712Y7341D01*
X2718Y7390D02*
X3386Y7390D01*
X5504Y7390D02*
X5926Y7390D01*
X6928Y7390D02*
X7042Y7390D01*
X8044Y7390D02*
X8712Y7390D01*
X2718Y7440D02*
X3380Y7440D01*
X5510Y7440D02*
X5920Y7440D01*
X6928Y7440D02*
X7042Y7440D01*
X8050Y7440D02*
X8712Y7440D01*
X2718Y7489D02*
X3373Y7489D01*
X5517Y7489D02*
X5913Y7489D01*
X6928Y7489D02*
X7042Y7489D01*
X8057Y7489D02*
X8712Y7489D01*
X2718Y7539D02*
X3367Y7539D01*
X5523Y7539D02*
X5907Y7539D01*
X6928Y7539D02*
X7042Y7539D01*
X8063Y7539D02*
X8712Y7539D01*
X2718Y7588D02*
X3360Y7588D01*
X5530Y7588D02*
X8712Y7588D01*
X2718Y7638D02*
X3359Y7638D01*
X5531Y7638D02*
X8712Y7638D01*
X2718Y7687D02*
X3365Y7687D01*
X5525Y7687D02*
X5912Y7687D01*
X6923Y7687D02*
X7047Y7687D01*
X8058Y7687D02*
X8712Y7687D01*
X2718Y7737D02*
X3372Y7737D01*
X5518Y7737D02*
X5912Y7737D01*
X6928Y7737D02*
X7042Y7737D01*
X8058Y7737D02*
X8712Y7737D01*
X2718Y7786D02*
X3378Y7786D01*
X5512Y7786D02*
X5918Y7786D01*
X6928Y7786D02*
X7042Y7786D01*
X8052Y7786D02*
X8712Y7786D01*
X2718Y7836D02*
X3385Y7836D01*
X5505Y7836D02*
X5925Y7836D01*
X6928Y7836D02*
X7042Y7836D01*
X8045Y7836D02*
X8712Y7836D01*
X2718Y7885D02*
X3391Y7885D01*
X5499Y7885D02*
X5931Y7885D01*
X6928Y7885D02*
X7042Y7885D01*
X8039Y7885D02*
X8712Y7885D01*
X2718Y7935D02*
X3407Y7935D01*
X5483Y7935D02*
X5947Y7935D01*
X6928Y7935D02*
X7042Y7935D01*
X8023Y7935D02*
X8712Y7935D01*
X2718Y7984D02*
X3428Y7984D01*
X5462Y7984D02*
X5968Y7984D01*
X6928Y7984D02*
X7042Y7984D01*
X8002Y7984D02*
X8712Y7984D01*
X2718Y8034D02*
X3448Y8034D01*
X5442Y8034D02*
X5988Y8034D01*
X6928Y8034D02*
X7042Y8034D01*
X7982Y8034D02*
X8712Y8034D01*
X2718Y8084D02*
X3469Y8084D01*
X5421Y8084D02*
X6009Y8084D01*
X6928Y8084D02*
X7042Y8084D01*
X7961Y8084D02*
X8712Y8084D01*
X2718Y8133D02*
X3489Y8133D01*
X5401Y8133D02*
X6029Y8133D01*
X6928Y8133D02*
X7042Y8133D01*
X7941Y8133D02*
X8712Y8133D01*
X2718Y8183D02*
X3516Y8183D01*
X5374Y8183D02*
X6056Y8183D01*
X6928Y8183D02*
X7042Y8183D01*
X7914Y8183D02*
X8712Y8183D01*
X2718Y8232D02*
X3554Y8232D01*
X5336Y8232D02*
X6094Y8232D01*
X6928Y8232D02*
X7042Y8232D01*
X7876Y8232D02*
X8712Y8232D01*
X2718Y8282D02*
X3592Y8282D01*
X5298Y8282D02*
X6132Y8282D01*
X6928Y8282D02*
X7042Y8282D01*
X7838Y8282D02*
X8712Y8282D01*
X2718Y8331D02*
X3630Y8331D01*
X5260Y8331D02*
X6170Y8331D01*
X6928Y8331D02*
X7042Y8331D01*
X7800Y8331D02*
X8712Y8331D01*
X2718Y8381D02*
X3668Y8381D01*
X5222Y8381D02*
X6208Y8381D01*
X6928Y8381D02*
X7042Y8381D01*
X7762Y8381D02*
X8712Y8381D01*
X2718Y8430D02*
X3728Y8430D01*
X5162Y8430D02*
X6268Y8430D01*
X6928Y8430D02*
X7042Y8430D01*
X7702Y8430D02*
X8712Y8430D01*
X2718Y8480D02*
X3792Y8480D01*
X5098Y8480D02*
X6332Y8480D01*
X6928Y8480D02*
X7042Y8480D01*
X7638Y8480D02*
X8712Y8480D01*
X2718Y8529D02*
X3857Y8529D01*
X5033Y8529D02*
X6397Y8529D01*
X6928Y8529D02*
X7042Y8529D01*
X7573Y8529D02*
X8712Y8529D01*
X2718Y8579D02*
X3939Y8579D01*
X4951Y8579D02*
X6479Y8579D01*
X6928Y8579D02*
X7042Y8579D01*
X7491Y8579D02*
X8712Y8579D01*
X2718Y8628D02*
X4059Y8628D01*
X4831Y8628D02*
X6599Y8628D01*
X6928Y8628D02*
X7042Y8628D01*
X7371Y8628D02*
X8712Y8628D01*
X2718Y8678D02*
X4210Y8678D01*
X4680Y8678D02*
X6750Y8678D01*
X6928Y8678D02*
X7042Y8678D01*
X7220Y8678D02*
X8712Y8678D01*
X2718Y8727D02*
X8712Y8727D01*
X2718Y8777D02*
X8712Y8777D01*
X2718Y8826D02*
X8712Y8826D01*
X2718Y8876D02*
X8712Y8876D01*
X2718Y8926D02*
X8712Y8926D01*
X2718Y8975D02*
X8712Y8975D01*
X2718Y9025D02*
X8712Y9025D01*
X2718Y9074D02*
X8712Y9074D01*
X2718Y9124D02*
X8712Y9124D01*
X2718Y9173D02*
X8712Y9173D01*
X2718Y9223D02*
X8712Y9223D01*
X2718Y9272D02*
X8712Y9272D01*
X2718Y9322D02*
X8712Y9322D01*
X2718Y9371D02*
X8712Y9371D01*
X2718Y9421D02*
X8712Y9421D01*
X2718Y9470D02*
X8712Y9470D01*
X2718Y9520D02*
X8712Y9520D01*
X2718Y9569D02*
X8712Y9569D01*
X2718Y9619D02*
X8712Y9619D01*
X2718Y9669D02*
X8712Y9669D01*
X0432Y9718D02*
X10998Y9718D01*
X0432Y9768D02*
X10998Y9768D01*
X0432Y9817D02*
X10998Y9817D01*
X0432Y9867D02*
X10998Y9867D01*
X0432Y9916D02*
X10998Y9916D01*
X0432Y9966D02*
X10998Y9966D01*
X0432Y10015D02*
X10998Y10015D01*
X0432Y10065D02*
X10998Y10065D01*
X0432Y10114D02*
X10998Y10114D01*
X0432Y10164D02*
X10998Y10164D01*
X0432Y10213D02*
X10998Y10213D01*
X0432Y10263D02*
X10998Y10263D01*
X0432Y10312D02*
X4559Y10312D01*
X8140Y10312D02*
X10998Y10312D01*
X0432Y10362D02*
X4559Y10362D01*
X8140Y10362D02*
X10998Y10362D01*
X0432Y10411D02*
X4559Y10411D01*
X8140Y10411D02*
X10998Y10411D01*
X0432Y10461D02*
X4559Y10461D01*
X8140Y10461D02*
X10998Y10461D01*
X0432Y10511D02*
X4559Y10511D01*
X8140Y10511D02*
X10998Y10511D01*
X0432Y10560D02*
X4559Y10560D01*
X8140Y10560D02*
X10998Y10560D01*
X0432Y10610D02*
X4559Y10610D01*
X8140Y10610D02*
X10998Y10610D01*
X0432Y10659D02*
X4559Y10659D01*
X8140Y10659D02*
X10998Y10659D01*
X0432Y10709D02*
X4559Y10709D01*
X8140Y10709D02*
X10998Y10709D01*
X0432Y10758D02*
X4559Y10758D01*
X8140Y10758D02*
X10998Y10758D01*
X0432Y10808D02*
X4559Y10808D01*
X8140Y10808D02*
X10998Y10808D01*
X0432Y10857D02*
X4559Y10857D01*
X8140Y10857D02*
X10998Y10857D01*
X0432Y10907D02*
X4559Y10907D01*
X8140Y10907D02*
X10998Y10907D01*
X0432Y10956D02*
X4559Y10956D01*
X8140Y10956D02*
X10998Y10956D01*
X0432Y11006D02*
X4559Y11006D01*
X8140Y11006D02*
X10998Y11006D01*
X0432Y11055D02*
X4559Y11055D01*
X8140Y11055D02*
X10998Y11055D01*
X0432Y11105D02*
X4559Y11105D01*
X8140Y11105D02*
X10998Y11105D01*
X0432Y11154D02*
X4559Y11154D01*
X8140Y11154D02*
X10998Y11154D01*
X0432Y11204D02*
X4559Y11204D01*
X8140Y11204D02*
X10998Y11204D01*
X0432Y11253D02*
X4559Y11253D01*
X8140Y11253D02*
X10998Y11253D01*
X0432Y11303D02*
X4559Y11303D01*
X8140Y11303D02*
X10998Y11303D01*
X0432Y11353D02*
X4559Y11353D01*
X8140Y11353D02*
X10998Y11353D01*
X0432Y11402D02*
X4559Y11402D01*
X8140Y11402D02*
X10998Y11402D01*
X0432Y11452D02*
X4559Y11452D01*
X8140Y11452D02*
X10998Y11452D01*
X0432Y11501D02*
X4559Y11501D01*
X8140Y11501D02*
X10998Y11501D01*
X0432Y11551D02*
X4559Y11551D01*
X8140Y11551D02*
X10998Y11551D01*
X0432Y11600D02*
X4559Y11600D01*
X8140Y11600D02*
X10998Y11600D01*
X0432Y11650D02*
X4559Y11650D01*
X8140Y11650D02*
X10998Y11650D01*
X0432Y11699D02*
X4559Y11699D01*
X8140Y11699D02*
X10998Y11699D01*
X0432Y11749D02*
X4559Y11749D01*
X8140Y11749D02*
X10998Y11749D01*
X0432Y11798D02*
X4559Y11798D01*
X8140Y11798D02*
X10998Y11798D01*
X0432Y11848D02*
X4559Y11848D01*
X8140Y11848D02*
X10998Y11848D01*
X0432Y11897D02*
X4559Y11897D01*
X8140Y11897D02*
X10998Y11897D01*
X0432Y11947D02*
X4559Y11947D01*
X8140Y11947D02*
X10998Y11947D01*
X0432Y11996D02*
X4559Y11996D01*
X8140Y11996D02*
X10998Y11996D01*
X0432Y12046D02*
X4559Y12046D01*
X8140Y12046D02*
X10998Y12046D01*
X0432Y12095D02*
X4559Y12095D01*
X8140Y12095D02*
X10998Y12095D01*
X0432Y12145D02*
X4559Y12145D01*
X8140Y12145D02*
X10998Y12145D01*
X0432Y12195D02*
X4559Y12195D01*
X8140Y12195D02*
X10998Y12195D01*
X0432Y12244D02*
X4559Y12244D01*
X8140Y12244D02*
X10998Y12244D01*
X0432Y12294D02*
X10998Y12294D01*
X0432Y12343D02*
X10998Y12343D01*
X0432Y12393D02*
X10998Y12393D01*
X0432Y12442D02*
X10998Y12442D01*
X0432Y12492D02*
X1568Y12492D01*
X1732Y12492D02*
X10998Y12492D01*
X0432Y12541D02*
X1328Y12541D01*
X1972Y12541D02*
X10998Y12541D01*
X0432Y12591D02*
X1208Y12591D01*
X2092Y12591D02*
X10998Y12591D01*
X0432Y12640D02*
X1117Y12640D01*
X2183Y12640D02*
X10998Y12640D01*
X0432Y12690D02*
X1053Y12690D01*
X2247Y12690D02*
X10998Y12690D01*
X0432Y12739D02*
X0988Y12739D01*
X2312Y12739D02*
X10998Y12739D01*
X0432Y12789D02*
X0932Y12789D01*
X2368Y12789D02*
X10998Y12789D01*
X0432Y12838D02*
X0894Y12838D01*
X2406Y12838D02*
X10998Y12838D01*
X0432Y12888D02*
X0856Y12888D01*
X2444Y12888D02*
X10998Y12888D01*
X0432Y12937D02*
X0818Y12937D01*
X2482Y12937D02*
X10998Y12937D01*
X0432Y12987D02*
X0782Y12987D01*
X2518Y12987D02*
X10998Y12987D01*
X0432Y13037D02*
X0762Y13037D01*
X2538Y13037D02*
X10998Y13037D01*
X0432Y13086D02*
X0741Y13086D01*
X2559Y13086D02*
X10998Y13086D01*
X0432Y13136D02*
X0721Y13136D01*
X2579Y13136D02*
X10998Y13136D01*
X0432Y13185D02*
X0700Y13185D01*
X2600Y13185D02*
X10998Y13185D01*
X0432Y13235D02*
X0683Y13235D01*
X2617Y13235D02*
X10998Y13235D01*
X0432Y13284D02*
X0677Y13284D01*
X2623Y13284D02*
X10998Y13284D01*
X0432Y13334D02*
X0670Y13334D01*
X2630Y13334D02*
X10998Y13334D01*
X0432Y13383D02*
X0664Y13383D01*
X2636Y13383D02*
X10998Y13383D01*
X0432Y13433D02*
X0657Y13433D01*
X2643Y13433D02*
X10998Y13433D01*
X0432Y13482D02*
X0651Y13482D01*
X2649Y13482D02*
X10998Y13482D01*
X0432Y13532D02*
X0651Y13532D01*
X2649Y13532D02*
X10998Y13532D01*
X0432Y13581D02*
X0651Y13581D01*
X2649Y13581D02*
X10998Y13581D01*
X0432Y13631D02*
X0651Y13631D01*
X2649Y13631D02*
X10998Y13631D01*
X0432Y13680D02*
X0651Y13680D01*
X2649Y13680D02*
X10998Y13680D01*
X0432Y13730D02*
X0651Y13730D01*
X2649Y13730D02*
X10998Y13730D01*
X0432Y13779D02*
X0651Y13779D01*
X2649Y13779D02*
X10998Y13779D01*
X0432Y13829D02*
X0651Y13829D01*
X2649Y13829D02*
X10998Y13829D01*
X0432Y13879D02*
X0651Y13879D01*
X2649Y13879D02*
X10998Y13879D01*
X0432Y13928D02*
X0651Y13928D01*
X2649Y13928D02*
X10998Y13928D01*
X0432Y13978D02*
X0651Y13978D01*
X2649Y13978D02*
X10998Y13978D01*
X0432Y14027D02*
X0651Y14027D01*
X2649Y14027D02*
X10998Y14027D01*
X0432Y14077D02*
X0651Y14077D01*
X2649Y14077D02*
X10998Y14077D01*
X0432Y14126D02*
X0651Y14126D01*
X2649Y14126D02*
X10998Y14126D01*
X0432Y14176D02*
X0651Y14176D01*
X2649Y14176D02*
X10998Y14176D01*
X0432Y14225D02*
X0651Y14225D01*
X2649Y14225D02*
X10998Y14225D01*
X0432Y14275D02*
X0651Y14275D01*
X2649Y14275D02*
X10998Y14275D01*
X0432Y14324D02*
X0651Y14324D01*
X2649Y14324D02*
X10998Y14324D01*
X0432Y14374D02*
X0651Y14374D01*
X2649Y14374D02*
X10998Y14374D01*
X0432Y14423D02*
X0651Y14423D01*
X2649Y14423D02*
X10998Y14423D01*
X0432Y14473D02*
X0651Y14473D01*
X2649Y14473D02*
X10998Y14473D01*
X0432Y14522D02*
X0651Y14522D01*
X2649Y14522D02*
X10998Y14522D01*
X0432Y14572D02*
X0651Y14572D01*
X2649Y14572D02*
X10998Y14572D01*
X0432Y14622D02*
X0651Y14622D01*
X2649Y14622D02*
X10998Y14622D01*
X0432Y14671D02*
X0651Y14671D01*
X2649Y14671D02*
X10998Y14671D01*
X0432Y14721D02*
X0651Y14721D01*
X2649Y14721D02*
X10998Y14721D01*
X0432Y14770D02*
X0651Y14770D01*
X2649Y14770D02*
X10998Y14770D01*
X0432Y14820D02*
X0651Y14820D01*
X2649Y14820D02*
X10998Y14820D01*
X0432Y14869D02*
X0651Y14869D01*
X2649Y14869D02*
X10998Y14869D01*
X0432Y14919D02*
X0651Y14919D01*
X2649Y14919D02*
X10998Y14919D01*
X0432Y14968D02*
X0651Y14968D01*
X2649Y14968D02*
X10998Y14968D01*
X0432Y15018D02*
X0651Y15018D01*
X2649Y15018D02*
X10998Y15018D01*
X0432Y15067D02*
X0651Y15067D01*
X2649Y15067D02*
X10998Y15067D01*
X0432Y15117D02*
X0656Y15117D01*
X2644Y15117D02*
X10998Y15117D01*
X0432Y15166D02*
X0662Y15166D01*
X2638Y15166D02*
X10998Y15166D01*
X0432Y15216D02*
X0669Y15216D01*
X2631Y15216D02*
X10998Y15216D01*
X0432Y15265D02*
X0675Y15265D01*
X2625Y15265D02*
X10998Y15265D01*
X0432Y15315D02*
X0682Y15315D01*
X2618Y15315D02*
X10998Y15315D01*
X0432Y15364D02*
X0696Y15364D01*
X2604Y15364D02*
X10998Y15364D01*
X0432Y15414D02*
X0716Y15414D01*
X2584Y15414D02*
X10998Y15414D01*
X0432Y15464D02*
X0737Y15464D01*
X2563Y15464D02*
X10998Y15464D01*
X0432Y15513D02*
X0757Y15513D01*
X2543Y15513D02*
X10998Y15513D01*
X0432Y15563D02*
X0778Y15563D01*
X2522Y15563D02*
X10998Y15563D01*
X0432Y15612D02*
X0810Y15612D01*
X2490Y15612D02*
X10998Y15612D01*
X0432Y15662D02*
X0848Y15662D01*
X2452Y15662D02*
X10998Y15662D01*
X0432Y15711D02*
X0886Y15711D01*
X2414Y15711D02*
X10998Y15711D01*
X0432Y15761D02*
X0924Y15761D01*
X2376Y15761D02*
X10998Y15761D01*
X0432Y15810D02*
X0975Y15810D01*
X2325Y15810D02*
X10998Y15810D01*
X0432Y15860D02*
X1039Y15860D01*
X2261Y15860D02*
X10998Y15860D01*
X0432Y15909D02*
X1104Y15909D01*
X2196Y15909D02*
X10998Y15909D01*
X0432Y15959D02*
X1183Y15959D01*
X2117Y15959D02*
X10998Y15959D01*
X0432Y16008D02*
X1303Y16008D01*
X1997Y16008D02*
X10998Y16008D01*
X0432Y16058D02*
X1489Y16058D01*
X1811Y16058D02*
X10998Y16058D01*
X0432Y16107D02*
X10998Y16107D01*
X0432Y16157D02*
X10998Y16157D01*
X0432Y16206D02*
X10998Y16206D01*
X0432Y16256D02*
X10998Y16256D01*
X0432Y16306D02*
X5363Y16306D01*
X6293Y16306D02*
X6407Y16306D01*
X7337Y16306D02*
X10998Y16306D01*
X0432Y16355D02*
X5195Y16355D01*
X6293Y16355D02*
X6407Y16355D01*
X7505Y16355D02*
X10998Y16355D01*
X0432Y16405D02*
X5075Y16405D01*
X6293Y16405D02*
X6407Y16405D01*
X7625Y16405D02*
X10998Y16405D01*
X0432Y16454D02*
X4999Y16454D01*
X6293Y16454D02*
X6407Y16454D01*
X7701Y16454D02*
X10998Y16454D01*
X0432Y16504D02*
X4935Y16504D01*
X6293Y16504D02*
X6407Y16504D01*
X7765Y16504D02*
X10998Y16504D01*
X0432Y16553D02*
X4870Y16553D01*
X6293Y16553D02*
X6407Y16553D01*
X7830Y16553D02*
X10998Y16553D01*
X0432Y16603D02*
X4821Y16603D01*
X6293Y16603D02*
X6407Y16603D01*
X7879Y16603D02*
X10998Y16603D01*
X0432Y16652D02*
X4783Y16652D01*
X6293Y16652D02*
X6407Y16652D01*
X7917Y16652D02*
X10998Y16652D01*
X0432Y16702D02*
X4745Y16702D01*
X6293Y16702D02*
X6407Y16702D01*
X7955Y16702D02*
X10998Y16702D01*
X0432Y16751D02*
X4707Y16751D01*
X6293Y16751D02*
X6407Y16751D01*
X7993Y16751D02*
X10998Y16751D01*
X0432Y16801D02*
X4676Y16801D01*
X6293Y16801D02*
X6407Y16801D01*
X8024Y16801D02*
X10998Y16801D01*
X0432Y16850D02*
X4656Y16850D01*
X6293Y16850D02*
X6407Y16850D01*
X8044Y16850D02*
X10998Y16850D01*
X0432Y16900D02*
X4635Y16900D01*
X6293Y16900D02*
X6407Y16900D01*
X8065Y16900D02*
X10998Y16900D01*
X0432Y16949D02*
X4615Y16949D01*
X6293Y16949D02*
X6407Y16949D01*
X8085Y16949D02*
X10998Y16949D01*
X0432Y16999D02*
X4594Y16999D01*
X6293Y16999D02*
X6407Y16999D01*
X8106Y16999D02*
X10998Y16999D01*
X0432Y17048D02*
X4581Y17048D01*
X6293Y17048D02*
X6407Y17048D01*
X8119Y17048D02*
X10998Y17048D01*
X0432Y17098D02*
X4575Y17098D01*
X6293Y17098D02*
X6407Y17098D01*
X8125Y17098D02*
X10998Y17098D01*
X0432Y17148D02*
X4568Y17148D01*
X6293Y17148D02*
X6407Y17148D01*
X8132Y17148D02*
X10998Y17148D01*
X0432Y17197D02*
X4562Y17197D01*
X6293Y17197D02*
X6407Y17197D01*
X8138Y17197D02*
X10998Y17197D01*
X0432Y17247D02*
X10998Y17247D01*
X0432Y17296D02*
X10998Y17296D01*
X0432Y17346D02*
X4568Y17346D01*
X6286Y17346D02*
X6414Y17346D01*
X8132Y17346D02*
X10998Y17346D01*
X0432Y17395D02*
X4566Y17395D01*
X6293Y17395D02*
X6407Y17395D01*
X8134Y17395D02*
X10998Y17395D01*
X0432Y17445D02*
X4573Y17445D01*
X6293Y17445D02*
X6407Y17445D01*
X8127Y17445D02*
X10998Y17445D01*
X0432Y17494D02*
X4579Y17494D01*
X6293Y17494D02*
X6407Y17494D01*
X8121Y17494D02*
X10998Y17494D01*
X0432Y17544D02*
X4587Y17544D01*
X6293Y17544D02*
X6407Y17544D01*
X8113Y17544D02*
X10998Y17544D01*
X0432Y17593D02*
X4608Y17593D01*
X6293Y17593D02*
X6407Y17593D01*
X8092Y17593D02*
X10998Y17593D01*
X0432Y17643D02*
X4628Y17643D01*
X6293Y17643D02*
X6407Y17643D01*
X8072Y17643D02*
X10998Y17643D01*
X0432Y17692D02*
X4649Y17692D01*
X6293Y17692D02*
X6407Y17692D01*
X8051Y17692D02*
X10998Y17692D01*
X0432Y17742D02*
X4669Y17742D01*
X6293Y17742D02*
X6407Y17742D01*
X8031Y17742D02*
X10998Y17742D01*
X0432Y17791D02*
X4694Y17791D01*
X6293Y17791D02*
X6407Y17791D01*
X8006Y17791D02*
X10998Y17791D01*
X0432Y17841D02*
X4732Y17841D01*
X6293Y17841D02*
X6407Y17841D01*
X7968Y17841D02*
X10998Y17841D01*
X0432Y17890D02*
X4770Y17890D01*
X6293Y17890D02*
X6407Y17890D01*
X7930Y17890D02*
X10998Y17890D01*
X0432Y17940D02*
X4808Y17940D01*
X6293Y17940D02*
X6407Y17940D01*
X7892Y17940D02*
X10998Y17940D01*
X0432Y17990D02*
X4848Y17990D01*
X6293Y17990D02*
X6407Y17990D01*
X7852Y17990D02*
X10998Y17990D01*
X0432Y18039D02*
X4912Y18039D01*
X6293Y18039D02*
X6407Y18039D01*
X7788Y18039D02*
X10998Y18039D01*
X0432Y18089D02*
X4977Y18089D01*
X6293Y18089D02*
X6407Y18089D01*
X7723Y18089D02*
X10998Y18089D01*
X0432Y18138D02*
X5041Y18138D01*
X6293Y18138D02*
X6407Y18138D01*
X7659Y18138D02*
X10998Y18138D01*
X0432Y18188D02*
X5153Y18188D01*
X6293Y18188D02*
X6407Y18188D01*
X7547Y18188D02*
X10998Y18188D01*
X0432Y18237D02*
X5273Y18237D01*
X6293Y18237D02*
X6407Y18237D01*
X7427Y18237D02*
X10998Y18237D01*
X0432Y18287D02*
X10998Y18287D01*
X0432Y18336D02*
X10998Y18336D01*
X0432Y18386D02*
X10998Y18386D01*
X0432Y18435D02*
X10998Y18435D01*
X0432Y18485D02*
X10998Y18485D01*
X0432Y18534D02*
X10998Y18534D01*
X0432Y18584D02*
X10998Y18584D01*
%LNbottom copper_traces*%
%LNbottom copper component 660640c951ed724f*%
D11*
X6350Y11280D03*
D12*
X1650Y14280D03*
D13*
X6350Y17280D03*
%LNbottom copper component 7efe99aa22ff84f7*%
D14*
X4445Y7620D03*
X4445Y5080D03*
X6985Y7620D03*
X6985Y5080D03*
M02*