%FSLAX33Y33*%
%MOMM*%
%LNbottom silkscreen_traces*%
%LNtext*%
G36*
G01*
X8604Y12319D02*
X8886Y13046D01*
X8781Y13046D01*
X8592Y12518D01*
X8581Y12487D01*
X8571Y12456D01*
X8562Y12427D01*
X8554Y12399D01*
X8545Y12429D01*
X8536Y12458D01*
X8526Y12488D01*
X8515Y12518D01*
X8319Y13046D01*
X8220Y13046D01*
X8505Y12319D01*
X8604Y12319D01*
X8604Y12319D01*
X7841Y12489D02*
X7748Y12477D01*
X7762Y12439D01*
X7780Y12405D01*
X7802Y12376D01*
X7829Y12352D01*
X7861Y12332D01*
X7897Y12318D01*
X7936Y12310D01*
X7980Y12307D01*
X8035Y12312D01*
X8084Y12325D01*
X8127Y12347D01*
X8163Y12378D01*
X8193Y12417D01*
X8214Y12464D01*
X8227Y12517D01*
X8231Y12578D01*
X8227Y12641D01*
X8214Y12696D01*
X8193Y12744D01*
X8163Y12784D01*
X8126Y12816D01*
X8084Y12839D01*
X8037Y12853D01*
X7985Y12858D01*
X7978Y12857D01*
X7984Y12784D01*
X8014Y12782D01*
X8041Y12774D01*
X8065Y12761D01*
X8088Y12743D01*
X8106Y12721D01*
X8120Y12695D01*
X8129Y12666D01*
X8134Y12633D01*
X8134Y12633D01*
X7840Y12633D01*
X7844Y12664D01*
X7851Y12691D01*
X7861Y12714D01*
X7873Y12733D01*
X7896Y12755D01*
X7922Y12771D01*
X7952Y12781D01*
X7984Y12784D01*
X7978Y12857D01*
X7935Y12853D01*
X7889Y12840D01*
X7848Y12817D01*
X7812Y12786D01*
X7783Y12746D01*
X7762Y12699D01*
X7750Y12645D01*
X7745Y12583D01*
X7746Y12579D01*
X7746Y12573D01*
X7746Y12567D01*
X7746Y12560D01*
X8139Y12560D01*
X8134Y12519D01*
X8124Y12483D01*
X8109Y12452D01*
X8090Y12427D01*
X8066Y12406D01*
X8040Y12392D01*
X8011Y12383D01*
X7980Y12381D01*
X7956Y12382D01*
X7934Y12387D01*
X7914Y12395D01*
X7896Y12406D01*
X7879Y12421D01*
X7865Y12440D01*
X7852Y12462D01*
X7841Y12489D01*
X7841Y12489D01*
X7637Y12319D02*
X7637Y12846D01*
X7557Y12846D01*
X7557Y12766D01*
X7542Y12792D01*
X7527Y12812D01*
X7513Y12829D01*
X7500Y12840D01*
X7487Y12848D01*
X7473Y12853D01*
X7458Y12857D01*
X7443Y12858D01*
X7420Y12856D01*
X7397Y12851D01*
X7374Y12842D01*
X7351Y12829D01*
X7382Y12746D01*
X7398Y12755D01*
X7415Y12761D01*
X7431Y12764D01*
X7447Y12765D01*
X7462Y12764D01*
X7475Y12761D01*
X7488Y12756D01*
X7500Y12748D01*
X7511Y12738D01*
X7520Y12727D01*
X7527Y12714D01*
X7533Y12699D01*
X7540Y12675D01*
X7544Y12649D01*
X7547Y12623D01*
X7548Y12595D01*
X7548Y12319D01*
X7637Y12319D01*
X7637Y12319D01*
X7334Y12476D02*
X7245Y12490D01*
X7240Y12465D01*
X7231Y12443D01*
X7219Y12424D01*
X7204Y12409D01*
X7185Y12396D01*
X7163Y12388D01*
X7138Y12382D01*
X7109Y12381D01*
X7080Y12382D01*
X7055Y12387D01*
X7035Y12395D01*
X7018Y12406D01*
X7005Y12419D01*
X6995Y12433D01*
X6990Y12448D01*
X6988Y12464D01*
X6990Y12479D01*
X6995Y12491D01*
X7003Y12502D01*
X7014Y12512D01*
X7027Y12518D01*
X7046Y12525D01*
X7072Y12533D01*
X7106Y12542D01*
X7151Y12554D01*
X7189Y12565D01*
X7219Y12576D01*
X7242Y12585D01*
X7260Y12595D01*
X7275Y12607D01*
X7288Y12620D01*
X7299Y12635D01*
X7308Y12652D01*
X7314Y12669D01*
X7318Y12687D01*
X7319Y12706D01*
X7318Y12723D01*
X7315Y12740D01*
X7310Y12756D01*
X7303Y12771D01*
X7294Y12786D01*
X7284Y12799D01*
X7272Y12810D01*
X7259Y12821D01*
X7247Y12828D01*
X7234Y12835D01*
X7219Y12841D01*
X7202Y12847D01*
X7184Y12852D01*
X7165Y12855D01*
X7145Y12857D01*
X7125Y12858D01*
X7095Y12857D01*
X7067Y12853D01*
X7040Y12848D01*
X7016Y12840D01*
X6994Y12830D01*
X6975Y12819D01*
X6959Y12806D01*
X6947Y12792D01*
X6936Y12775D01*
X6928Y12756D01*
X6921Y12734D01*
X6916Y12710D01*
X7003Y12698D01*
X7008Y12717D01*
X7015Y12734D01*
X7025Y12749D01*
X7038Y12762D01*
X7054Y12771D01*
X7072Y12779D01*
X7094Y12783D01*
X7118Y12784D01*
X7147Y12783D01*
X7171Y12779D01*
X7191Y12773D01*
X7206Y12764D01*
X7218Y12753D01*
X7226Y12742D01*
X7231Y12730D01*
X7233Y12716D01*
X7232Y12708D01*
X7230Y12700D01*
X7226Y12692D01*
X7222Y12685D01*
X7215Y12678D01*
X7208Y12672D01*
X7198Y12666D01*
X7187Y12661D01*
X7177Y12658D01*
X7161Y12653D01*
X7138Y12647D01*
X7109Y12638D01*
X7065Y12626D01*
X7028Y12615D01*
X6999Y12606D01*
X6976Y12597D01*
X6959Y12588D01*
X6943Y12577D01*
X6929Y12565D01*
X6918Y12550D01*
X6908Y12534D01*
X6902Y12516D01*
X6898Y12496D01*
X6896Y12474D01*
X6898Y12452D01*
X6903Y12430D01*
X6911Y12410D01*
X6922Y12390D01*
X6937Y12371D01*
X6954Y12355D01*
X6974Y12341D01*
X6997Y12329D01*
X7023Y12319D01*
X7050Y12312D01*
X7078Y12308D01*
X7109Y12307D01*
X7157Y12310D01*
X7199Y12318D01*
X7235Y12331D01*
X7265Y12350D01*
X7290Y12374D01*
X7309Y12403D01*
X7324Y12437D01*
X7334Y12476D01*
X7334Y12476D01*
X6789Y12319D02*
X6789Y12846D01*
X6700Y12846D01*
X6700Y12319D01*
X6789Y12319D01*
X6789Y12319D01*
X6789Y12944D02*
X6789Y13046D01*
X6700Y13046D01*
X6700Y12944D01*
X6789Y12944D01*
X6789Y12944D01*
X6598Y12582D02*
X6592Y12651D01*
X6577Y12710D01*
X6552Y12759D01*
X6516Y12799D01*
X6480Y12825D01*
X6441Y12843D01*
X6397Y12854D01*
X6350Y12858D01*
X6299Y12853D01*
X6252Y12840D01*
X6210Y12818D01*
X6173Y12787D01*
X6143Y12748D01*
X6121Y12702D01*
X6108Y12649D01*
X6104Y12590D01*
X6106Y12542D01*
X6112Y12499D01*
X6121Y12462D01*
X6134Y12430D01*
X6151Y12402D01*
X6172Y12378D01*
X6196Y12357D01*
X6223Y12339D01*
X6253Y12325D01*
X6284Y12315D01*
X6317Y12309D01*
X6350Y12307D01*
X6357Y12308D01*
X6350Y12381D01*
X6319Y12384D01*
X6290Y12393D01*
X6263Y12409D01*
X6240Y12431D01*
X6221Y12460D01*
X6207Y12495D01*
X6198Y12537D01*
X6196Y12585D01*
X6198Y12631D01*
X6207Y12671D01*
X6221Y12705D01*
X6240Y12733D01*
X6264Y12756D01*
X6290Y12771D01*
X6319Y12781D01*
X6350Y12784D01*
X6383Y12781D01*
X6412Y12771D01*
X6438Y12756D01*
X6462Y12734D01*
X6481Y12705D01*
X6495Y12671D01*
X6503Y12630D01*
X6506Y12582D01*
X6506Y12582D01*
X6503Y12535D01*
X6495Y12494D01*
X6481Y12459D01*
X6462Y12431D01*
X6438Y12409D01*
X6412Y12393D01*
X6383Y12384D01*
X6350Y12381D01*
X6357Y12308D01*
X6403Y12312D01*
X6450Y12325D01*
X6493Y12347D01*
X6529Y12378D01*
X6559Y12417D01*
X6580Y12465D01*
X6593Y12520D01*
X6598Y12582D01*
X6598Y12582D01*
X5999Y12319D02*
X5999Y12846D01*
X5919Y12846D01*
X5919Y12771D01*
X5887Y12809D01*
X5848Y12836D01*
X5803Y12852D01*
X5751Y12858D01*
X5728Y12857D01*
X5705Y12853D01*
X5684Y12848D01*
X5664Y12841D01*
X5645Y12831D01*
X5629Y12821D01*
X5615Y12809D01*
X5604Y12796D01*
X5595Y12781D01*
X5587Y12765D01*
X5581Y12748D01*
X5576Y12730D01*
X5574Y12715D01*
X5572Y12696D01*
X5571Y12672D01*
X5571Y12643D01*
X5571Y12319D01*
X5660Y12319D01*
X5660Y12639D01*
X5661Y12665D01*
X5663Y12687D01*
X5666Y12706D01*
X5671Y12721D01*
X5677Y12734D01*
X5685Y12745D01*
X5696Y12755D01*
X5708Y12764D01*
X5722Y12771D01*
X5737Y12776D01*
X5753Y12779D01*
X5770Y12780D01*
X5798Y12778D01*
X5823Y12771D01*
X5847Y12760D01*
X5869Y12744D01*
X5887Y12722D01*
X5900Y12692D01*
X5907Y12653D01*
X5910Y12607D01*
X5910Y12319D01*
X5999Y12319D01*
X5999Y12319D01*
X4840Y12319D02*
X4930Y12319D01*
X4930Y12888D01*
X4947Y12873D01*
X4967Y12857D01*
X4989Y12842D01*
X5014Y12827D01*
X5040Y12812D01*
X5064Y12800D01*
X5087Y12789D01*
X5108Y12780D01*
X5108Y12867D01*
X5072Y12885D01*
X5038Y12906D01*
X5006Y12928D01*
X4977Y12952D01*
X4951Y12977D01*
X4929Y13001D01*
X4912Y13025D01*
X4898Y13049D01*
X4840Y13049D01*
X4840Y12319D01*
X4840Y12319D01*
X4562Y12319D02*
X4562Y12421D01*
X4460Y12421D01*
X4460Y12319D01*
X4562Y12319D01*
X4562Y12319D01*
X4329Y12678D02*
X4328Y12739D01*
X4323Y12794D01*
X4314Y12843D01*
X4303Y12885D01*
X4288Y12922D01*
X4270Y12955D01*
X4249Y12983D01*
X4224Y13007D01*
X4196Y13025D01*
X4165Y13039D01*
X4130Y13047D01*
X4092Y13049D01*
X4064Y13048D01*
X4037Y13043D01*
X4013Y13036D01*
X3990Y13026D01*
X3968Y13013D01*
X3949Y12997D01*
X3932Y12979D01*
X3917Y12958D01*
X3903Y12934D01*
X3891Y12908D01*
X3880Y12880D01*
X3871Y12850D01*
X3864Y12815D01*
X3859Y12775D01*
X3856Y12729D01*
X3855Y12678D01*
X3857Y12617D01*
X3862Y12562D01*
X3870Y12513D01*
X3881Y12471D01*
X3896Y12434D01*
X3914Y12401D01*
X3936Y12373D01*
X3960Y12350D01*
X3988Y12331D01*
X4019Y12317D01*
X4054Y12309D01*
X4092Y12307D01*
X4099Y12307D01*
X4092Y12380D01*
X4063Y12384D01*
X4036Y12395D01*
X4011Y12414D01*
X3989Y12440D01*
X3970Y12477D01*
X3957Y12529D01*
X3950Y12596D01*
X3947Y12678D01*
X3950Y12760D01*
X3957Y12827D01*
X3970Y12879D01*
X3989Y12916D01*
X4011Y12942D01*
X4036Y12961D01*
X4063Y12972D01*
X4093Y12975D01*
X4122Y12972D01*
X4149Y12962D01*
X4172Y12946D01*
X4191Y12923D01*
X4212Y12883D01*
X4226Y12829D01*
X4235Y12760D01*
X4238Y12678D01*
X4238Y12678D01*
X4235Y12596D01*
X4227Y12529D01*
X4214Y12476D01*
X4196Y12439D01*
X4174Y12413D01*
X4149Y12395D01*
X4122Y12384D01*
X4092Y12380D01*
X4099Y12307D01*
X4142Y12311D01*
X4186Y12325D01*
X4225Y12349D01*
X4257Y12382D01*
X4289Y12435D01*
X4311Y12501D01*
X4325Y12582D01*
X4329Y12678D01*
X4329Y12678D01*
X3714Y12319D02*
X3714Y12421D01*
X3613Y12421D01*
X3613Y12319D01*
X3714Y12319D01*
X3714Y12319D01*
X3482Y12678D02*
X3480Y12739D01*
X3475Y12794D01*
X3467Y12843D01*
X3456Y12885D01*
X3441Y12922D01*
X3423Y12955D01*
X3401Y12983D01*
X3377Y13007D01*
X3349Y13025D01*
X3318Y13039D01*
X3283Y13047D01*
X3245Y13049D01*
X3217Y13048D01*
X3190Y13043D01*
X3165Y13036D01*
X3142Y13026D01*
X3121Y13013D01*
X3102Y12997D01*
X3085Y12979D01*
X3069Y12958D01*
X3056Y12934D01*
X3044Y12908D01*
X3033Y12880D01*
X3024Y12850D01*
X3017Y12815D01*
X3012Y12775D01*
X3009Y12729D01*
X3008Y12678D01*
X3009Y12617D01*
X3014Y12562D01*
X3023Y12513D01*
X3034Y12471D01*
X3049Y12434D01*
X3067Y12401D01*
X3088Y12373D01*
X3113Y12350D01*
X3141Y12331D01*
X3172Y12317D01*
X3207Y12309D01*
X3245Y12307D01*
X3252Y12307D01*
X3245Y12380D01*
X3215Y12384D01*
X3188Y12395D01*
X3164Y12414D01*
X3141Y12440D01*
X3123Y12477D01*
X3110Y12529D01*
X3102Y12596D01*
X3100Y12678D01*
X3102Y12760D01*
X3110Y12827D01*
X3123Y12879D01*
X3141Y12916D01*
X3164Y12942D01*
X3189Y12961D01*
X3216Y12972D01*
X3246Y12975D01*
X3275Y12972D01*
X3301Y12962D01*
X3324Y12946D01*
X3344Y12923D01*
X3364Y12883D01*
X3379Y12829D01*
X3387Y12760D01*
X3390Y12678D01*
X3390Y12678D01*
X3388Y12596D01*
X3380Y12529D01*
X3367Y12476D01*
X3348Y12439D01*
X3326Y12413D01*
X3302Y12395D01*
X3274Y12384D01*
X3245Y12380D01*
X3252Y12307D01*
X3295Y12311D01*
X3339Y12325D01*
X3377Y12349D01*
X3410Y12382D01*
X3442Y12435D01*
X3464Y12501D01*
X3478Y12582D01*
X3482Y12678D01*
X3482Y12678D01*
X9451Y14732D02*
X9451Y15459D01*
X9178Y15459D01*
X9138Y15458D01*
X9103Y15454D01*
X9071Y15447D01*
X9044Y15437D01*
X9020Y15425D01*
X8999Y15409D01*
X8981Y15391D01*
X8965Y15369D01*
X8953Y15346D01*
X8944Y15322D01*
X8938Y15298D01*
X8937Y15273D01*
X8938Y15250D01*
X8943Y15228D01*
X8951Y15206D01*
X8962Y15185D01*
X8976Y15166D01*
X8994Y15148D01*
X9014Y15133D01*
X9038Y15119D01*
X9067Y15050D01*
X9080Y15056D01*
X9100Y15061D01*
X9125Y15065D01*
X9153Y15067D01*
X9186Y15068D01*
X9354Y15068D01*
X9354Y14818D01*
X9354Y14818D01*
X9173Y14818D01*
X9152Y14818D01*
X9134Y14819D01*
X9119Y14820D01*
X9108Y14821D01*
X9092Y14825D01*
X9077Y14829D01*
X9064Y14835D01*
X9052Y14841D01*
X9042Y14849D01*
X9032Y14858D01*
X9023Y14869D01*
X9016Y14882D01*
X9009Y14895D01*
X9005Y14910D01*
X9002Y14926D01*
X9001Y14943D01*
X9002Y14963D01*
X9006Y14981D01*
X9013Y14998D01*
X9022Y15014D01*
X9033Y15027D01*
X9047Y15039D01*
X9062Y15049D01*
X9067Y15050D01*
X9038Y15119D01*
X9073Y15177D01*
X9060Y15187D01*
X9050Y15198D01*
X9042Y15212D01*
X9036Y15227D01*
X9033Y15244D01*
X9031Y15262D01*
X9032Y15279D01*
X9036Y15296D01*
X9041Y15311D01*
X9049Y15326D01*
X9058Y15338D01*
X9070Y15349D01*
X9083Y15357D01*
X9098Y15363D01*
X9117Y15368D01*
X9142Y15371D01*
X9173Y15373D01*
X9209Y15373D01*
X9354Y15373D01*
X9354Y15154D01*
X9354Y15154D01*
X9197Y15154D01*
X9167Y15154D01*
X9142Y15156D01*
X9121Y15158D01*
X9105Y15162D01*
X9088Y15168D01*
X9073Y15177D01*
X9038Y15119D01*
X9007Y15108D01*
X8980Y15093D01*
X8957Y15075D01*
X8937Y15053D01*
X8921Y15029D01*
X8910Y15002D01*
X8904Y14974D01*
X8901Y14943D01*
X8903Y14918D01*
X8907Y14894D01*
X8914Y14870D01*
X8923Y14848D01*
X8934Y14827D01*
X8947Y14809D01*
X8961Y14793D01*
X8976Y14780D01*
X8993Y14769D01*
X9012Y14759D01*
X9033Y14751D01*
X9056Y14744D01*
X9081Y14739D01*
X9109Y14735D01*
X9140Y14733D01*
X9173Y14732D01*
X9451Y14732D01*
X9451Y14732D01*
X8781Y14732D02*
X8781Y15259D01*
X8701Y15259D01*
X8701Y15179D01*
X8686Y15205D01*
X8671Y15225D01*
X8657Y15242D01*
X8644Y15253D01*
X8631Y15261D01*
X8617Y15266D01*
X8602Y15270D01*
X8587Y15271D01*
X8564Y15269D01*
X8541Y15264D01*
X8518Y15255D01*
X8495Y15242D01*
X8526Y15159D01*
X8542Y15168D01*
X8559Y15174D01*
X8575Y15177D01*
X8591Y15178D01*
X8606Y15177D01*
X8619Y15174D01*
X8632Y15169D01*
X8644Y15161D01*
X8655Y15151D01*
X8664Y15140D01*
X8671Y15127D01*
X8677Y15112D01*
X8684Y15088D01*
X8688Y15062D01*
X8691Y15036D01*
X8692Y15008D01*
X8692Y14732D01*
X8781Y14732D01*
X8781Y14732D01*
X8081Y14902D02*
X7989Y14890D01*
X8002Y14852D01*
X8020Y14818D01*
X8043Y14789D01*
X8070Y14765D01*
X8102Y14745D01*
X8137Y14731D01*
X8177Y14723D01*
X8221Y14720D01*
X8276Y14725D01*
X8324Y14738D01*
X8367Y14760D01*
X8404Y14791D01*
X8434Y14830D01*
X8455Y14877D01*
X8468Y14930D01*
X8472Y14991D01*
X8468Y15054D01*
X8455Y15109D01*
X8433Y15157D01*
X8403Y15197D01*
X8367Y15229D01*
X8325Y15252D01*
X8278Y15266D01*
X8226Y15271D01*
X8218Y15270D01*
X8225Y15197D01*
X8254Y15195D01*
X8281Y15187D01*
X8306Y15174D01*
X8328Y15156D01*
X8347Y15134D01*
X8361Y15108D01*
X8370Y15079D01*
X8375Y15046D01*
X8375Y15046D01*
X8080Y15046D01*
X8085Y15077D01*
X8092Y15104D01*
X8102Y15127D01*
X8114Y15146D01*
X8137Y15168D01*
X8163Y15184D01*
X8192Y15194D01*
X8225Y15197D01*
X8218Y15270D01*
X8175Y15266D01*
X8130Y15253D01*
X8089Y15230D01*
X8053Y15199D01*
X8024Y15159D01*
X8003Y15112D01*
X7990Y15058D01*
X7986Y14996D01*
X7986Y14992D01*
X7986Y14986D01*
X7986Y14980D01*
X7987Y14973D01*
X8380Y14973D01*
X8375Y14932D01*
X8365Y14896D01*
X8350Y14865D01*
X8330Y14840D01*
X8307Y14819D01*
X8281Y14805D01*
X8252Y14796D01*
X8220Y14794D01*
X8197Y14795D01*
X8175Y14800D01*
X8155Y14808D01*
X8136Y14819D01*
X8120Y14834D01*
X8105Y14853D01*
X8092Y14875D01*
X8081Y14902D01*
X8081Y14902D01*
X7533Y14797D02*
X7558Y14777D01*
X7561Y14775D01*
X7595Y14825D01*
X7579Y14839D01*
X7566Y14856D01*
X7555Y14874D01*
X7549Y14891D01*
X7544Y14912D01*
X7542Y14936D01*
X7541Y14964D01*
X7541Y14996D01*
X7541Y14996D01*
X7568Y14987D01*
X7601Y14978D01*
X7641Y14970D01*
X7686Y14963D01*
X7712Y14959D01*
X7733Y14954D01*
X7751Y14950D01*
X7764Y14945D01*
X7775Y14939D01*
X7785Y14933D01*
X7793Y14925D01*
X7800Y14916D01*
X7805Y14906D01*
X7809Y14896D01*
X7811Y14885D01*
X7812Y14873D01*
X7810Y14856D01*
X7805Y14841D01*
X7797Y14827D01*
X7785Y14814D01*
X7770Y14803D01*
X7752Y14796D01*
X7730Y14792D01*
X7706Y14790D01*
X7681Y14791D01*
X7657Y14796D01*
X7635Y14803D01*
X7614Y14813D01*
X7595Y14825D01*
X7561Y14775D01*
X7582Y14761D01*
X7605Y14748D01*
X7629Y14737D01*
X7652Y14730D01*
X7676Y14724D01*
X7701Y14721D01*
X7727Y14720D01*
X7768Y14723D01*
X7804Y14731D01*
X7835Y14744D01*
X7861Y14763D01*
X7881Y14785D01*
X7896Y14811D01*
X7904Y14839D01*
X7907Y14871D01*
X7906Y14890D01*
X7903Y14908D01*
X7897Y14925D01*
X7890Y14942D01*
X7880Y14957D01*
X7869Y14970D01*
X7857Y14982D01*
X7843Y14993D01*
X7829Y15002D01*
X7813Y15010D01*
X7797Y15017D01*
X7779Y15022D01*
X7764Y15026D01*
X7746Y15029D01*
X7725Y15032D01*
X7700Y15036D01*
X7649Y15042D01*
X7606Y15050D01*
X7570Y15058D01*
X7541Y15066D01*
X7540Y15075D01*
X7540Y15081D01*
X7540Y15086D01*
X7540Y15090D01*
X7542Y15115D01*
X7546Y15136D01*
X7554Y15153D01*
X7565Y15167D01*
X7585Y15180D01*
X7608Y15189D01*
X7635Y15195D01*
X7667Y15197D01*
X7697Y15195D01*
X7722Y15191D01*
X7743Y15184D01*
X7760Y15175D01*
X7774Y15162D01*
X7786Y15144D01*
X7796Y15123D01*
X7805Y15097D01*
X7892Y15109D01*
X7885Y15135D01*
X7876Y15159D01*
X7865Y15180D01*
X7853Y15199D01*
X7838Y15215D01*
X7819Y15230D01*
X7798Y15242D01*
X7774Y15252D01*
X7747Y15260D01*
X7718Y15266D01*
X7687Y15270D01*
X7654Y15271D01*
X7622Y15270D01*
X7593Y15267D01*
X7567Y15262D01*
X7545Y15255D01*
X7525Y15246D01*
X7508Y15237D01*
X7494Y15226D01*
X7483Y15215D01*
X7473Y15202D01*
X7466Y15188D01*
X7460Y15172D01*
X7455Y15154D01*
X7453Y15140D01*
X7451Y15122D01*
X7451Y15099D01*
X7450Y15072D01*
X7450Y14953D01*
X7450Y14896D01*
X7449Y14851D01*
X7447Y14817D01*
X7445Y14795D01*
X7441Y14779D01*
X7436Y14763D01*
X7430Y14747D01*
X7422Y14732D01*
X7515Y14732D01*
X7522Y14746D01*
X7527Y14762D01*
X7531Y14779D01*
X7533Y14797D01*
X7533Y14797D01*
X6970Y14732D02*
X6970Y14798D01*
X7011Y14840D01*
X7010Y14841D01*
X6992Y14868D01*
X6979Y14902D01*
X6971Y14942D01*
X6969Y14987D01*
X6971Y15038D01*
X6979Y15081D01*
X6992Y15117D01*
X7010Y15146D01*
X7032Y15168D01*
X7057Y15184D01*
X7084Y15194D01*
X7113Y15197D01*
X7142Y15194D01*
X7168Y15185D01*
X7191Y15169D01*
X7212Y15148D01*
X7230Y15120D01*
X7242Y15086D01*
X7250Y15044D01*
X7252Y14995D01*
X7252Y14995D01*
X7250Y14948D01*
X7242Y14907D01*
X7228Y14872D01*
X7210Y14844D01*
X7187Y14822D01*
X7163Y14806D01*
X7137Y14797D01*
X7109Y14794D01*
X7081Y14797D01*
X7055Y14805D01*
X7031Y14820D01*
X7011Y14840D01*
X6970Y14798D01*
X6998Y14764D01*
X7032Y14740D01*
X7072Y14725D01*
X7117Y14720D01*
X7148Y14722D01*
X7178Y14729D01*
X7206Y14740D01*
X7233Y14755D01*
X7258Y14774D01*
X7280Y14796D01*
X7299Y14822D01*
X7315Y14852D01*
X7328Y14884D01*
X7337Y14919D01*
X7342Y14956D01*
X7344Y14995D01*
X7343Y15033D01*
X7338Y15070D01*
X7329Y15105D01*
X7318Y15138D01*
X7303Y15168D01*
X7285Y15195D01*
X7264Y15218D01*
X7239Y15237D01*
X7212Y15252D01*
X7183Y15262D01*
X7153Y15269D01*
X7121Y15271D01*
X7098Y15270D01*
X7076Y15266D01*
X7056Y15259D01*
X7037Y15251D01*
X7019Y15240D01*
X7003Y15228D01*
X6989Y15214D01*
X6976Y15198D01*
X6976Y15459D01*
X6887Y15459D01*
X6887Y14732D01*
X6970Y14732D01*
X6970Y14732D01*
X6665Y14732D02*
X6747Y14732D01*
X6747Y15459D01*
X6658Y15459D01*
X6658Y15200D01*
X6628Y15231D01*
X6594Y15253D01*
X6556Y15266D01*
X6514Y15271D01*
X6490Y15270D01*
X6466Y15266D01*
X6444Y15260D01*
X6422Y15251D01*
X6401Y15240D01*
X6382Y15228D01*
X6365Y15213D01*
X6350Y15196D01*
X6337Y15177D01*
X6325Y15157D01*
X6315Y15135D01*
X6306Y15111D01*
X6299Y15085D01*
X6294Y15059D01*
X6291Y15031D01*
X6290Y15003D01*
X6295Y14939D01*
X6307Y14883D01*
X6328Y14835D01*
X6357Y14794D01*
X6393Y14762D01*
X6431Y14739D01*
X6473Y14725D01*
X6518Y14720D01*
X6562Y14725D01*
X6601Y14740D01*
X6635Y14764D01*
X6661Y14794D01*
X6617Y14832D01*
X6590Y14811D01*
X6560Y14798D01*
X6526Y14794D01*
X6497Y14797D01*
X6471Y14806D01*
X6447Y14822D01*
X6424Y14844D01*
X6406Y14873D01*
X6392Y14908D01*
X6384Y14949D01*
X6382Y14996D01*
X6384Y15044D01*
X6392Y15086D01*
X6405Y15120D01*
X6423Y15148D01*
X6444Y15170D01*
X6468Y15185D01*
X6494Y15194D01*
X6522Y15197D01*
X6550Y15194D01*
X6576Y15185D01*
X6601Y15169D01*
X6623Y15146D01*
X6641Y15118D01*
X6655Y15084D01*
X6663Y15045D01*
X6665Y14999D01*
X6665Y14999D01*
X6664Y14955D01*
X6659Y14918D01*
X6651Y14887D01*
X6640Y14862D01*
X6617Y14832D01*
X6661Y14794D01*
X6665Y14798D01*
X6665Y14732D01*
X6665Y14732D01*
X6215Y14995D02*
X6210Y15064D01*
X6195Y15123D01*
X6169Y15172D01*
X6134Y15212D01*
X6098Y15238D01*
X6058Y15256D01*
X6015Y15267D01*
X5968Y15271D01*
X5916Y15266D01*
X5869Y15253D01*
X5827Y15231D01*
X5790Y15200D01*
X5760Y15161D01*
X5739Y15115D01*
X5726Y15062D01*
X5721Y15003D01*
X5723Y14955D01*
X5729Y14912D01*
X5739Y14875D01*
X5752Y14843D01*
X5769Y14815D01*
X5789Y14791D01*
X5813Y14770D01*
X5841Y14752D01*
X5871Y14738D01*
X5902Y14728D01*
X5934Y14722D01*
X5968Y14720D01*
X5974Y14721D01*
X5968Y14794D01*
X5936Y14797D01*
X5907Y14806D01*
X5881Y14822D01*
X5857Y14844D01*
X5838Y14873D01*
X5824Y14908D01*
X5816Y14950D01*
X5813Y14998D01*
X5816Y15044D01*
X5824Y15084D01*
X5838Y15118D01*
X5858Y15146D01*
X5881Y15169D01*
X5907Y15184D01*
X5936Y15194D01*
X5968Y15197D01*
X6000Y15194D01*
X6029Y15184D01*
X6056Y15169D01*
X6079Y15147D01*
X6098Y15118D01*
X6112Y15084D01*
X6120Y15043D01*
X6123Y14995D01*
X6123Y14995D01*
X6120Y14948D01*
X6112Y14907D01*
X6098Y14872D01*
X6079Y14844D01*
X6056Y14822D01*
X6029Y14806D01*
X6000Y14797D01*
X5968Y14794D01*
X5974Y14721D01*
X6021Y14725D01*
X6068Y14738D01*
X6110Y14760D01*
X6147Y14791D01*
X6177Y14830D01*
X6198Y14878D01*
X6211Y14933D01*
X6215Y14995D01*
X6215Y14995D01*
X5273Y14797D02*
X5298Y14777D01*
X5301Y14775D01*
X5335Y14825D01*
X5319Y14839D01*
X5306Y14856D01*
X5295Y14874D01*
X5288Y14891D01*
X5284Y14912D01*
X5281Y14936D01*
X5280Y14964D01*
X5280Y14996D01*
X5280Y14996D01*
X5308Y14987D01*
X5341Y14978D01*
X5381Y14970D01*
X5426Y14963D01*
X5452Y14959D01*
X5473Y14954D01*
X5491Y14950D01*
X5504Y14945D01*
X5515Y14939D01*
X5524Y14933D01*
X5532Y14925D01*
X5539Y14916D01*
X5545Y14906D01*
X5549Y14896D01*
X5551Y14885D01*
X5552Y14873D01*
X5550Y14856D01*
X5545Y14841D01*
X5537Y14827D01*
X5525Y14814D01*
X5510Y14803D01*
X5491Y14796D01*
X5470Y14792D01*
X5446Y14790D01*
X5421Y14791D01*
X5397Y14796D01*
X5375Y14803D01*
X5354Y14813D01*
X5335Y14825D01*
X5301Y14775D01*
X5322Y14761D01*
X5345Y14748D01*
X5368Y14737D01*
X5392Y14730D01*
X5416Y14724D01*
X5441Y14721D01*
X5467Y14720D01*
X5508Y14723D01*
X5544Y14731D01*
X5575Y14744D01*
X5600Y14763D01*
X5621Y14785D01*
X5635Y14811D01*
X5644Y14839D01*
X5647Y14871D01*
X5646Y14890D01*
X5643Y14908D01*
X5637Y14925D01*
X5629Y14942D01*
X5620Y14957D01*
X5609Y14970D01*
X5597Y14982D01*
X5583Y14993D01*
X5569Y15002D01*
X5553Y15010D01*
X5536Y15017D01*
X5519Y15022D01*
X5504Y15026D01*
X5486Y15029D01*
X5465Y15032D01*
X5440Y15036D01*
X5389Y15042D01*
X5346Y15050D01*
X5310Y15058D01*
X5280Y15066D01*
X5280Y15075D01*
X5280Y15081D01*
X5280Y15086D01*
X5280Y15090D01*
X5281Y15115D01*
X5286Y15136D01*
X5294Y15153D01*
X5305Y15167D01*
X5324Y15180D01*
X5348Y15189D01*
X5375Y15195D01*
X5407Y15197D01*
X5436Y15195D01*
X5462Y15191D01*
X5483Y15184D01*
X5500Y15175D01*
X5514Y15162D01*
X5526Y15144D01*
X5536Y15123D01*
X5544Y15097D01*
X5632Y15109D01*
X5625Y15135D01*
X5616Y15159D01*
X5605Y15180D01*
X5592Y15199D01*
X5577Y15215D01*
X5559Y15230D01*
X5538Y15242D01*
X5514Y15252D01*
X5487Y15260D01*
X5458Y15266D01*
X5427Y15270D01*
X5394Y15271D01*
X5362Y15270D01*
X5333Y15267D01*
X5307Y15262D01*
X5284Y15255D01*
X5265Y15246D01*
X5248Y15237D01*
X5234Y15226D01*
X5222Y15215D01*
X5213Y15202D01*
X5205Y15188D01*
X5199Y15172D01*
X5195Y15154D01*
X5193Y15140D01*
X5191Y15122D01*
X5190Y15099D01*
X5190Y15072D01*
X5190Y14953D01*
X5190Y14896D01*
X5189Y14851D01*
X5187Y14817D01*
X5184Y14795D01*
X5181Y14779D01*
X5176Y14763D01*
X5170Y14747D01*
X5162Y14732D01*
X5255Y14732D01*
X5261Y14746D01*
X5266Y14762D01*
X5270Y14779D01*
X5273Y14797D01*
X5273Y14797D01*
X5053Y14732D02*
X5053Y15259D01*
X4972Y15259D01*
X4972Y15179D01*
X4957Y15205D01*
X4943Y15225D01*
X4929Y15242D01*
X4916Y15253D01*
X4902Y15261D01*
X4888Y15266D01*
X4874Y15270D01*
X4858Y15271D01*
X4836Y15269D01*
X4813Y15264D01*
X4790Y15255D01*
X4766Y15242D01*
X4797Y15159D01*
X4814Y15168D01*
X4830Y15174D01*
X4846Y15177D01*
X4863Y15178D01*
X4877Y15177D01*
X4890Y15174D01*
X4903Y15169D01*
X4915Y15161D01*
X4926Y15151D01*
X4935Y15140D01*
X4943Y15127D01*
X4948Y15112D01*
X4955Y15088D01*
X4960Y15062D01*
X4962Y15036D01*
X4963Y15008D01*
X4963Y14732D01*
X5053Y14732D01*
X5053Y14732D01*
X4372Y14732D02*
X4372Y14798D01*
X4412Y14840D01*
X4411Y14841D01*
X4393Y14868D01*
X4380Y14902D01*
X4373Y14942D01*
X4370Y14987D01*
X4373Y15038D01*
X4380Y15081D01*
X4394Y15117D01*
X4412Y15146D01*
X4434Y15168D01*
X4458Y15184D01*
X4485Y15194D01*
X4514Y15197D01*
X4543Y15194D01*
X4569Y15185D01*
X4593Y15169D01*
X4614Y15148D01*
X4631Y15120D01*
X4644Y15086D01*
X4651Y15044D01*
X4654Y14995D01*
X4654Y14995D01*
X4651Y14948D01*
X4643Y14907D01*
X4630Y14872D01*
X4611Y14844D01*
X4589Y14822D01*
X4565Y14806D01*
X4539Y14797D01*
X4510Y14794D01*
X4482Y14797D01*
X4456Y14805D01*
X4433Y14820D01*
X4412Y14840D01*
X4372Y14798D01*
X4400Y14764D01*
X4433Y14740D01*
X4473Y14725D01*
X4519Y14720D01*
X4550Y14722D01*
X4579Y14729D01*
X4608Y14740D01*
X4635Y14755D01*
X4660Y14774D01*
X4682Y14796D01*
X4701Y14822D01*
X4717Y14852D01*
X4729Y14884D01*
X4738Y14919D01*
X4744Y14956D01*
X4746Y14995D01*
X4744Y15033D01*
X4739Y15070D01*
X4731Y15105D01*
X4719Y15138D01*
X4705Y15168D01*
X4686Y15195D01*
X4665Y15218D01*
X4640Y15237D01*
X4613Y15252D01*
X4585Y15262D01*
X4555Y15269D01*
X4523Y15271D01*
X4500Y15270D01*
X4478Y15266D01*
X4457Y15259D01*
X4438Y15251D01*
X4420Y15240D01*
X4404Y15228D01*
X4390Y15214D01*
X4378Y15198D01*
X4378Y15459D01*
X4289Y15459D01*
X4289Y14732D01*
X4372Y14732D01*
X4372Y14732D01*
X3784Y14732D02*
X3867Y14732D01*
X3867Y15459D01*
X3777Y15459D01*
X3777Y15200D01*
X3747Y15231D01*
X3713Y15253D01*
X3675Y15266D01*
X3633Y15271D01*
X3609Y15270D01*
X3586Y15266D01*
X3563Y15260D01*
X3541Y15251D01*
X3520Y15240D01*
X3501Y15228D01*
X3484Y15213D01*
X3469Y15196D01*
X3456Y15177D01*
X3444Y15157D01*
X3434Y15135D01*
X3426Y15111D01*
X3419Y15085D01*
X3414Y15059D01*
X3411Y15031D01*
X3410Y15003D01*
X3414Y14939D01*
X3426Y14883D01*
X3447Y14835D01*
X3477Y14794D01*
X3512Y14762D01*
X3550Y14739D01*
X3592Y14725D01*
X3637Y14720D01*
X3681Y14725D01*
X3721Y14740D01*
X3755Y14764D01*
X3781Y14794D01*
X3736Y14832D01*
X3709Y14811D01*
X3679Y14798D01*
X3645Y14794D01*
X3616Y14797D01*
X3590Y14806D01*
X3566Y14822D01*
X3544Y14844D01*
X3525Y14873D01*
X3512Y14908D01*
X3504Y14949D01*
X3501Y14996D01*
X3503Y15044D01*
X3511Y15086D01*
X3524Y15120D01*
X3542Y15148D01*
X3563Y15170D01*
X3587Y15185D01*
X3613Y15194D01*
X3641Y15197D01*
X3669Y15194D01*
X3695Y15185D01*
X3720Y15169D01*
X3742Y15146D01*
X3761Y15118D01*
X3774Y15084D01*
X3782Y15045D01*
X3785Y14999D01*
X3785Y14999D01*
X3783Y14955D01*
X3778Y14918D01*
X3770Y14887D01*
X3759Y14862D01*
X3736Y14832D01*
X3781Y14794D01*
X3784Y14798D01*
X3784Y14732D01*
X3784Y14732D01*
X2957Y14797D02*
X2982Y14777D01*
X2985Y14775D01*
X3019Y14825D01*
X3003Y14839D01*
X2990Y14856D01*
X2979Y14874D01*
X2973Y14891D01*
X2968Y14912D01*
X2966Y14936D01*
X2965Y14964D01*
X2965Y14996D01*
X2965Y14996D01*
X2992Y14987D01*
X3025Y14978D01*
X3065Y14970D01*
X3110Y14963D01*
X3136Y14959D01*
X3157Y14954D01*
X3175Y14950D01*
X3188Y14945D01*
X3199Y14939D01*
X3209Y14933D01*
X3217Y14925D01*
X3224Y14916D01*
X3229Y14906D01*
X3233Y14896D01*
X3235Y14885D01*
X3236Y14873D01*
X3234Y14856D01*
X3229Y14841D01*
X3221Y14827D01*
X3209Y14814D01*
X3194Y14803D01*
X3176Y14796D01*
X3154Y14792D01*
X3130Y14790D01*
X3105Y14791D01*
X3081Y14796D01*
X3059Y14803D01*
X3038Y14813D01*
X3019Y14825D01*
X2985Y14775D01*
X3006Y14761D01*
X3030Y14748D01*
X3053Y14737D01*
X3076Y14730D01*
X3100Y14724D01*
X3125Y14721D01*
X3151Y14720D01*
X3192Y14723D01*
X3228Y14731D01*
X3259Y14744D01*
X3285Y14763D01*
X3305Y14785D01*
X3320Y14811D01*
X3328Y14839D01*
X3331Y14871D01*
X3330Y14890D01*
X3327Y14908D01*
X3321Y14925D01*
X3314Y14942D01*
X3304Y14957D01*
X3293Y14970D01*
X3281Y14982D01*
X3267Y14993D01*
X3253Y15002D01*
X3237Y15010D01*
X3221Y15017D01*
X3203Y15022D01*
X3188Y15026D01*
X3170Y15029D01*
X3149Y15032D01*
X3124Y15036D01*
X3073Y15042D01*
X3030Y15050D01*
X2994Y15058D01*
X2965Y15066D01*
X2964Y15075D01*
X2964Y15081D01*
X2964Y15086D01*
X2964Y15090D01*
X2966Y15115D01*
X2970Y15136D01*
X2978Y15153D01*
X2989Y15167D01*
X3009Y15180D01*
X3032Y15189D01*
X3059Y15195D01*
X3091Y15197D01*
X3121Y15195D01*
X3146Y15191D01*
X3167Y15184D01*
X3184Y15175D01*
X3198Y15162D01*
X3210Y15144D01*
X3220Y15123D01*
X3229Y15097D01*
X3316Y15109D01*
X3309Y15135D01*
X3300Y15159D01*
X3289Y15180D01*
X3277Y15199D01*
X3262Y15215D01*
X3243Y15230D01*
X3222Y15242D01*
X3198Y15252D01*
X3171Y15260D01*
X3142Y15266D01*
X3111Y15270D01*
X3078Y15271D01*
X3046Y15270D01*
X3017Y15267D01*
X2991Y15262D01*
X2969Y15255D01*
X2949Y15246D01*
X2932Y15237D01*
X2918Y15226D01*
X2907Y15215D01*
X2897Y15202D01*
X2890Y15188D01*
X2884Y15172D01*
X2879Y15154D01*
X2877Y15140D01*
X2875Y15122D01*
X2875Y15099D01*
X2874Y15072D01*
X2874Y14953D01*
X2874Y14896D01*
X2873Y14851D01*
X2871Y14817D01*
X2869Y14795D01*
X2865Y14779D01*
X2860Y14763D01*
X2854Y14747D01*
X2846Y14732D01*
X2939Y14732D01*
X2946Y14746D01*
X2951Y14762D01*
X2955Y14779D01*
X2957Y14797D01*
X2957Y14797D01*
X2737Y14732D02*
X2737Y15259D01*
X2657Y15259D01*
X2657Y15179D01*
X2641Y15205D01*
X2627Y15225D01*
X2613Y15242D01*
X2600Y15253D01*
X2586Y15261D01*
X2572Y15266D01*
X2558Y15270D01*
X2542Y15271D01*
X2520Y15269D01*
X2497Y15264D01*
X2474Y15255D01*
X2451Y15242D01*
X2481Y15159D01*
X2498Y15168D01*
X2514Y15174D01*
X2531Y15177D01*
X2547Y15178D01*
X2561Y15177D01*
X2575Y15174D01*
X2587Y15169D01*
X2599Y15161D01*
X2610Y15151D01*
X2619Y15140D01*
X2627Y15127D01*
X2633Y15112D01*
X2639Y15088D01*
X2644Y15062D01*
X2647Y15036D01*
X2648Y15008D01*
X2648Y14732D01*
X2737Y14732D01*
X2737Y14732D01*
X2399Y14732D02*
X2399Y15259D01*
X2318Y15259D01*
X2318Y15179D01*
X2303Y15205D01*
X2289Y15225D01*
X2275Y15242D01*
X2261Y15253D01*
X2248Y15261D01*
X2234Y15266D01*
X2219Y15270D01*
X2204Y15271D01*
X2181Y15269D01*
X2159Y15264D01*
X2136Y15255D01*
X2112Y15242D01*
X2143Y15159D01*
X2159Y15168D01*
X2176Y15174D01*
X2192Y15177D01*
X2209Y15178D01*
X2223Y15177D01*
X2236Y15174D01*
X2249Y15169D01*
X2261Y15161D01*
X2272Y15151D01*
X2281Y15140D01*
X2289Y15127D01*
X2294Y15112D01*
X2301Y15088D01*
X2306Y15062D01*
X2308Y15036D01*
X2309Y15008D01*
X2309Y14732D01*
X2399Y14732D01*
X2399Y14732D01*
X1699Y14902D02*
X1606Y14890D01*
X1620Y14852D01*
X1637Y14818D01*
X1660Y14789D01*
X1687Y14765D01*
X1719Y14745D01*
X1754Y14731D01*
X1794Y14723D01*
X1838Y14720D01*
X1893Y14725D01*
X1942Y14738D01*
X1984Y14760D01*
X2021Y14791D01*
X2051Y14830D01*
X2072Y14877D01*
X2085Y14930D01*
X2089Y14991D01*
X2085Y15054D01*
X2072Y15109D01*
X2051Y15157D01*
X2021Y15197D01*
X1984Y15229D01*
X1942Y15252D01*
X1895Y15266D01*
X1843Y15271D01*
X1836Y15270D01*
X1842Y15197D01*
X1872Y15195D01*
X1899Y15187D01*
X1923Y15174D01*
X1945Y15156D01*
X1964Y15134D01*
X1978Y15108D01*
X1987Y15079D01*
X1992Y15046D01*
X1992Y15046D01*
X1698Y15046D01*
X1702Y15077D01*
X1709Y15104D01*
X1719Y15127D01*
X1731Y15146D01*
X1754Y15168D01*
X1780Y15184D01*
X1810Y15194D01*
X1842Y15197D01*
X1836Y15270D01*
X1793Y15266D01*
X1747Y15253D01*
X1706Y15230D01*
X1670Y15199D01*
X1641Y15159D01*
X1620Y15112D01*
X1608Y15058D01*
X1603Y14996D01*
X1603Y14992D01*
X1603Y14986D01*
X1604Y14980D01*
X1604Y14973D01*
X1997Y14973D01*
X1992Y14932D01*
X1982Y14896D01*
X1967Y14865D01*
X1948Y14840D01*
X1924Y14819D01*
X1898Y14805D01*
X1869Y14796D01*
X1838Y14794D01*
X1814Y14795D01*
X1792Y14800D01*
X1772Y14808D01*
X1754Y14819D01*
X1737Y14834D01*
X1723Y14853D01*
X1710Y14875D01*
X1699Y14902D01*
X1699Y14902D01*
X1496Y14732D02*
X1496Y15459D01*
X1407Y15459D01*
X1407Y14732D01*
X1496Y14732D01*
X1496Y14732D01*
X8302Y13385D02*
X8285Y13461D01*
X8272Y13457D01*
X8261Y13455D01*
X8251Y13454D01*
X8243Y13454D01*
X8230Y13455D01*
X8219Y13458D01*
X8209Y13464D01*
X8202Y13472D01*
X8196Y13484D01*
X8192Y13503D01*
X8189Y13529D01*
X8189Y13562D01*
X8189Y14116D01*
X8099Y14116D01*
X8099Y13560D01*
X8101Y13515D01*
X8106Y13478D01*
X8113Y13448D01*
X8125Y13425D01*
X8143Y13403D01*
X8167Y13388D01*
X8197Y13378D01*
X8232Y13375D01*
X8250Y13376D01*
X8267Y13378D01*
X8285Y13380D01*
X8302Y13385D01*
X8302Y13385D01*
X8189Y14213D02*
X8189Y14316D01*
X8099Y14316D01*
X8099Y14213D01*
X8189Y14213D01*
X8189Y14213D01*
X7619Y13654D02*
X7643Y13634D01*
X7647Y13632D01*
X7681Y13682D01*
X7665Y13696D01*
X7651Y13713D01*
X7640Y13731D01*
X7634Y13748D01*
X7630Y13769D01*
X7627Y13793D01*
X7626Y13821D01*
X7626Y13853D01*
X7626Y13853D01*
X7653Y13844D01*
X7687Y13835D01*
X7726Y13827D01*
X7772Y13820D01*
X7797Y13816D01*
X7819Y13811D01*
X7836Y13807D01*
X7850Y13802D01*
X7860Y13796D01*
X7870Y13790D01*
X7878Y13782D01*
X7885Y13773D01*
X7890Y13763D01*
X7894Y13753D01*
X7897Y13742D01*
X7897Y13730D01*
X7896Y13713D01*
X7891Y13698D01*
X7882Y13684D01*
X7870Y13671D01*
X7855Y13660D01*
X7837Y13653D01*
X7816Y13649D01*
X7791Y13647D01*
X7766Y13648D01*
X7742Y13653D01*
X7720Y13660D01*
X7699Y13670D01*
X7681Y13682D01*
X7647Y13632D01*
X7667Y13618D01*
X7691Y13605D01*
X7714Y13594D01*
X7737Y13587D01*
X7762Y13581D01*
X7787Y13578D01*
X7813Y13577D01*
X7853Y13580D01*
X7889Y13588D01*
X7920Y13601D01*
X7946Y13620D01*
X7966Y13642D01*
X7981Y13668D01*
X7990Y13696D01*
X7993Y13728D01*
X7991Y13747D01*
X7988Y13765D01*
X7983Y13782D01*
X7975Y13799D01*
X7965Y13814D01*
X7955Y13827D01*
X7942Y13839D01*
X7929Y13850D01*
X7914Y13859D01*
X7899Y13867D01*
X7882Y13874D01*
X7865Y13879D01*
X7850Y13883D01*
X7832Y13886D01*
X7810Y13889D01*
X7785Y13893D01*
X7735Y13899D01*
X7691Y13907D01*
X7655Y13915D01*
X7626Y13923D01*
X7626Y13932D01*
X7626Y13938D01*
X7626Y13943D01*
X7625Y13947D01*
X7627Y13972D01*
X7632Y13993D01*
X7640Y14010D01*
X7651Y14024D01*
X7670Y14037D01*
X7693Y14046D01*
X7721Y14052D01*
X7752Y14054D01*
X7782Y14052D01*
X7807Y14048D01*
X7828Y14041D01*
X7845Y14032D01*
X7860Y14019D01*
X7872Y14001D01*
X7882Y13980D01*
X7890Y13954D01*
X7977Y13966D01*
X7970Y13992D01*
X7961Y14016D01*
X7951Y14037D01*
X7938Y14056D01*
X7923Y14072D01*
X7905Y14087D01*
X7883Y14099D01*
X7859Y14109D01*
X7832Y14117D01*
X7803Y14123D01*
X7773Y14127D01*
X7740Y14128D01*
X7707Y14127D01*
X7678Y14124D01*
X7653Y14119D01*
X7630Y14112D01*
X7610Y14103D01*
X7593Y14094D01*
X7579Y14083D01*
X7568Y14072D01*
X7559Y14059D01*
X7551Y14045D01*
X7545Y14029D01*
X7540Y14011D01*
X7538Y13997D01*
X7537Y13979D01*
X7536Y13956D01*
X7536Y13929D01*
X7536Y13810D01*
X7535Y13753D01*
X7534Y13708D01*
X7532Y13674D01*
X7530Y13652D01*
X7526Y13636D01*
X7521Y13620D01*
X7515Y13604D01*
X7507Y13589D01*
X7601Y13589D01*
X7607Y13603D01*
X7612Y13619D01*
X7616Y13636D01*
X7619Y13654D01*
X7619Y13654D01*
X7053Y13782D02*
X6966Y13771D01*
X6976Y13728D01*
X6991Y13690D01*
X7013Y13657D01*
X7039Y13628D01*
X7071Y13606D01*
X7105Y13590D01*
X7143Y13580D01*
X7185Y13577D01*
X7236Y13582D01*
X7282Y13595D01*
X7323Y13617D01*
X7359Y13648D01*
X7388Y13687D01*
X7408Y13734D01*
X7420Y13788D01*
X7425Y13850D01*
X7423Y13892D01*
X7417Y13930D01*
X7409Y13966D01*
X7396Y14000D01*
X7380Y14030D01*
X7361Y14056D01*
X7337Y14078D01*
X7310Y14096D01*
X7281Y14110D01*
X7250Y14120D01*
X7218Y14126D01*
X7184Y14128D01*
X7143Y14125D01*
X7106Y14117D01*
X7073Y14103D01*
X7044Y14084D01*
X7019Y14060D01*
X6999Y14032D01*
X6984Y13999D01*
X6974Y13961D01*
X7061Y13948D01*
X7068Y13973D01*
X7078Y13994D01*
X7090Y14013D01*
X7105Y14028D01*
X7121Y14039D01*
X7140Y14048D01*
X7159Y14053D01*
X7181Y14054D01*
X7213Y14051D01*
X7242Y14042D01*
X7268Y14027D01*
X7291Y14006D01*
X7309Y13978D01*
X7322Y13944D01*
X7330Y13902D01*
X7333Y13853D01*
X7330Y13803D01*
X7323Y13761D01*
X7310Y13726D01*
X7292Y13699D01*
X7270Y13678D01*
X7245Y13663D01*
X7217Y13654D01*
X7186Y13651D01*
X7161Y13653D01*
X7138Y13659D01*
X7117Y13669D01*
X7098Y13683D01*
X7082Y13701D01*
X7069Y13724D01*
X7060Y13751D01*
X7053Y13782D01*
X7053Y13782D01*
X6889Y13589D02*
X6889Y14316D01*
X6799Y14316D01*
X6799Y13902D01*
X6588Y14116D01*
X6473Y14116D01*
X6674Y13920D01*
X6452Y13589D01*
X6562Y13589D01*
X6736Y13858D01*
X6799Y13798D01*
X6799Y13589D01*
X6889Y13589D01*
X6889Y13589D01*
X5755Y13654D02*
X5780Y13634D01*
X5783Y13632D01*
X5817Y13682D01*
X5801Y13696D01*
X5788Y13713D01*
X5777Y13731D01*
X5771Y13748D01*
X5766Y13769D01*
X5763Y13793D01*
X5763Y13821D01*
X5763Y13853D01*
X5763Y13853D01*
X5790Y13844D01*
X5823Y13835D01*
X5863Y13827D01*
X5908Y13820D01*
X5934Y13816D01*
X5955Y13811D01*
X5973Y13807D01*
X5986Y13802D01*
X5997Y13796D01*
X6007Y13790D01*
X6015Y13782D01*
X6022Y13773D01*
X6027Y13763D01*
X6031Y13753D01*
X6033Y13742D01*
X6034Y13730D01*
X6032Y13713D01*
X6027Y13698D01*
X6019Y13684D01*
X6007Y13671D01*
X5992Y13660D01*
X5974Y13653D01*
X5952Y13649D01*
X5928Y13647D01*
X5903Y13648D01*
X5879Y13653D01*
X5857Y13660D01*
X5836Y13670D01*
X5817Y13682D01*
X5783Y13632D01*
X5804Y13618D01*
X5827Y13605D01*
X5851Y13594D01*
X5874Y13587D01*
X5898Y13581D01*
X5923Y13578D01*
X5949Y13577D01*
X5990Y13580D01*
X6026Y13588D01*
X6057Y13601D01*
X6083Y13620D01*
X6103Y13642D01*
X6118Y13668D01*
X6126Y13696D01*
X6129Y13728D01*
X6128Y13747D01*
X6125Y13765D01*
X6119Y13782D01*
X6112Y13799D01*
X6102Y13814D01*
X6091Y13827D01*
X6079Y13839D01*
X6065Y13850D01*
X6051Y13859D01*
X6035Y13867D01*
X6019Y13874D01*
X6001Y13879D01*
X5986Y13883D01*
X5968Y13886D01*
X5947Y13889D01*
X5922Y13893D01*
X5871Y13899D01*
X5828Y13907D01*
X5792Y13915D01*
X5763Y13923D01*
X5762Y13932D01*
X5762Y13938D01*
X5762Y13943D01*
X5762Y13947D01*
X5764Y13972D01*
X5768Y13993D01*
X5776Y14010D01*
X5787Y14024D01*
X5807Y14037D01*
X5830Y14046D01*
X5857Y14052D01*
X5889Y14054D01*
X5919Y14052D01*
X5944Y14048D01*
X5965Y14041D01*
X5982Y14032D01*
X5996Y14019D01*
X6008Y14001D01*
X6018Y13980D01*
X6027Y13954D01*
X6114Y13966D01*
X6107Y13992D01*
X6098Y14016D01*
X6087Y14037D01*
X6075Y14056D01*
X6059Y14072D01*
X6041Y14087D01*
X6020Y14099D01*
X5996Y14109D01*
X5969Y14117D01*
X5940Y14123D01*
X5909Y14127D01*
X5876Y14128D01*
X5844Y14127D01*
X5815Y14124D01*
X5789Y14119D01*
X5767Y14112D01*
X5747Y14103D01*
X5730Y14094D01*
X5716Y14083D01*
X5705Y14072D01*
X5695Y14059D01*
X5688Y14045D01*
X5681Y14029D01*
X5677Y14011D01*
X5675Y13997D01*
X5673Y13979D01*
X5673Y13956D01*
X5672Y13929D01*
X5672Y13810D01*
X5672Y13753D01*
X5671Y13708D01*
X5669Y13674D01*
X5667Y13652D01*
X5663Y13636D01*
X5658Y13620D01*
X5652Y13604D01*
X5644Y13589D01*
X5737Y13589D01*
X5744Y13603D01*
X5749Y13619D01*
X5753Y13636D01*
X5755Y13654D01*
X5755Y13654D01*
X5192Y13589D02*
X5192Y13655D01*
X5233Y13697D01*
X5232Y13698D01*
X5214Y13725D01*
X5201Y13759D01*
X5193Y13799D01*
X5191Y13844D01*
X5193Y13895D01*
X5201Y13938D01*
X5214Y13974D01*
X5232Y14003D01*
X5254Y14025D01*
X5279Y14041D01*
X5306Y14051D01*
X5335Y14054D01*
X5363Y14051D01*
X5390Y14042D01*
X5413Y14026D01*
X5434Y14005D01*
X5452Y13977D01*
X5464Y13943D01*
X5472Y13901D01*
X5474Y13852D01*
X5474Y13852D01*
X5472Y13805D01*
X5464Y13764D01*
X5450Y13729D01*
X5432Y13701D01*
X5409Y13679D01*
X5385Y13663D01*
X5359Y13654D01*
X5331Y13651D01*
X5303Y13654D01*
X5277Y13662D01*
X5253Y13677D01*
X5233Y13697D01*
X5192Y13655D01*
X5220Y13621D01*
X5254Y13597D01*
X5294Y13582D01*
X5339Y13577D01*
X5370Y13579D01*
X5400Y13586D01*
X5428Y13597D01*
X5455Y13612D01*
X5480Y13631D01*
X5502Y13653D01*
X5521Y13679D01*
X5537Y13709D01*
X5550Y13741D01*
X5559Y13776D01*
X5564Y13813D01*
X5566Y13852D01*
X5564Y13890D01*
X5560Y13927D01*
X5551Y13962D01*
X5540Y13995D01*
X5525Y14025D01*
X5507Y14052D01*
X5486Y14075D01*
X5461Y14094D01*
X5434Y14109D01*
X5405Y14119D01*
X5375Y14126D01*
X5343Y14128D01*
X5320Y14127D01*
X5298Y14123D01*
X5278Y14116D01*
X5259Y14108D01*
X5241Y14097D01*
X5225Y14085D01*
X5211Y14071D01*
X5198Y14055D01*
X5198Y14316D01*
X5109Y14316D01*
X5109Y13589D01*
X5192Y13589D01*
X5192Y13589D01*
X4625Y13654D02*
X4650Y13634D01*
X4653Y13632D01*
X4687Y13682D01*
X4671Y13696D01*
X4658Y13713D01*
X4647Y13731D01*
X4641Y13748D01*
X4636Y13769D01*
X4633Y13793D01*
X4632Y13821D01*
X4632Y13853D01*
X4632Y13853D01*
X4660Y13844D01*
X4693Y13835D01*
X4733Y13827D01*
X4778Y13820D01*
X4804Y13816D01*
X4825Y13811D01*
X4843Y13807D01*
X4856Y13802D01*
X4867Y13796D01*
X4876Y13790D01*
X4885Y13782D01*
X4891Y13773D01*
X4897Y13763D01*
X4901Y13753D01*
X4903Y13742D01*
X4904Y13730D01*
X4902Y13713D01*
X4897Y13698D01*
X4889Y13684D01*
X4877Y13671D01*
X4862Y13660D01*
X4843Y13653D01*
X4822Y13649D01*
X4798Y13647D01*
X4773Y13648D01*
X4749Y13653D01*
X4727Y13660D01*
X4706Y13670D01*
X4687Y13682D01*
X4653Y13632D01*
X4674Y13618D01*
X4697Y13605D01*
X4721Y13594D01*
X4744Y13587D01*
X4768Y13581D01*
X4793Y13578D01*
X4819Y13577D01*
X4860Y13580D01*
X4896Y13588D01*
X4927Y13601D01*
X4952Y13620D01*
X4973Y13642D01*
X4987Y13668D01*
X4996Y13696D01*
X4999Y13728D01*
X4998Y13747D01*
X4995Y13765D01*
X4989Y13782D01*
X4981Y13799D01*
X4972Y13814D01*
X4961Y13827D01*
X4949Y13839D01*
X4935Y13850D01*
X4921Y13859D01*
X4905Y13867D01*
X4889Y13874D01*
X4871Y13879D01*
X4856Y13883D01*
X4838Y13886D01*
X4817Y13889D01*
X4792Y13893D01*
X4741Y13899D01*
X4698Y13907D01*
X4662Y13915D01*
X4632Y13923D01*
X4632Y13932D01*
X4632Y13938D01*
X4632Y13943D01*
X4632Y13947D01*
X4634Y13972D01*
X4638Y13993D01*
X4646Y14010D01*
X4657Y14024D01*
X4676Y14037D01*
X4700Y14046D01*
X4727Y14052D01*
X4759Y14054D01*
X4788Y14052D01*
X4814Y14048D01*
X4835Y14041D01*
X4852Y14032D01*
X4866Y14019D01*
X4878Y14001D01*
X4888Y13980D01*
X4896Y13954D01*
X4984Y13966D01*
X4977Y13992D01*
X4968Y14016D01*
X4957Y14037D01*
X4945Y14056D01*
X4929Y14072D01*
X4911Y14087D01*
X4890Y14099D01*
X4866Y14109D01*
X4839Y14117D01*
X4810Y14123D01*
X4779Y14127D01*
X4746Y14128D01*
X4714Y14127D01*
X4685Y14124D01*
X4659Y14119D01*
X4636Y14112D01*
X4617Y14103D01*
X4600Y14094D01*
X4586Y14083D01*
X4574Y14072D01*
X4565Y14059D01*
X4558Y14045D01*
X4551Y14029D01*
X4547Y14011D01*
X4545Y13997D01*
X4543Y13979D01*
X4542Y13956D01*
X4542Y13929D01*
X4542Y13810D01*
X4542Y13753D01*
X4541Y13708D01*
X4539Y13674D01*
X4536Y13652D01*
X4533Y13636D01*
X4528Y13620D01*
X4522Y13604D01*
X4514Y13589D01*
X4607Y13589D01*
X4613Y13603D01*
X4619Y13619D01*
X4622Y13636D01*
X4625Y13654D01*
X4625Y13654D01*
X4404Y13387D02*
X4404Y14116D01*
X4322Y14116D01*
X4322Y14047D01*
X4279Y14005D01*
X4279Y14004D01*
X4298Y13975D01*
X4312Y13939D01*
X4320Y13897D01*
X4323Y13849D01*
X4323Y13849D01*
X4320Y13802D01*
X4313Y13761D01*
X4300Y13727D01*
X4282Y13699D01*
X4260Y13678D01*
X4236Y13663D01*
X4210Y13654D01*
X4182Y13651D01*
X4153Y13654D01*
X4127Y13663D01*
X4102Y13679D01*
X4080Y13701D01*
X4062Y13730D01*
X4048Y13765D01*
X4040Y13808D01*
X4038Y13857D01*
X4040Y13904D01*
X4048Y13945D01*
X4061Y13979D01*
X4079Y14008D01*
X4101Y14030D01*
X4125Y14045D01*
X4150Y14055D01*
X4178Y14058D01*
X4206Y14054D01*
X4232Y14044D01*
X4256Y14028D01*
X4279Y14005D01*
X4322Y14047D01*
X4308Y14066D01*
X4292Y14083D01*
X4275Y14096D01*
X4257Y14108D01*
X4238Y14116D01*
X4217Y14123D01*
X4194Y14127D01*
X4170Y14128D01*
X4137Y14126D01*
X4106Y14119D01*
X4077Y14108D01*
X4051Y14093D01*
X4026Y14074D01*
X4005Y14051D01*
X3987Y14025D01*
X3973Y13995D01*
X3961Y13963D01*
X3953Y13929D01*
X3948Y13893D01*
X3946Y13856D01*
X3948Y13817D01*
X3954Y13780D01*
X3963Y13744D01*
X3975Y13711D01*
X3992Y13680D01*
X4011Y13654D01*
X4034Y13631D01*
X4060Y13612D01*
X4088Y13596D01*
X4116Y13586D01*
X4146Y13579D01*
X4176Y13577D01*
X4198Y13578D01*
X4218Y13582D01*
X4238Y13588D01*
X4256Y13596D01*
X4273Y13606D01*
X4288Y13617D01*
X4302Y13630D01*
X4314Y13644D01*
X4314Y13387D01*
X4404Y13387D01*
X4404Y13387D01*
X3644Y13669D02*
X3631Y13590D01*
X3649Y13587D01*
X3667Y13584D01*
X3683Y13583D01*
X3698Y13582D01*
X3721Y13583D01*
X3741Y13586D01*
X3759Y13591D01*
X3774Y13597D01*
X3786Y13606D01*
X3797Y13615D01*
X3805Y13626D01*
X3811Y13638D01*
X3816Y13654D01*
X3820Y13677D01*
X3822Y13707D01*
X3822Y13743D01*
X3822Y14046D01*
X3888Y14046D01*
X3888Y14116D01*
X3822Y14116D01*
X3822Y14246D01*
X3734Y14300D01*
X3734Y14116D01*
X3644Y14116D01*
X3644Y14046D01*
X3734Y14046D01*
X3734Y13738D01*
X3733Y13721D01*
X3732Y13707D01*
X3731Y13696D01*
X3729Y13689D01*
X3726Y13684D01*
X3723Y13679D01*
X3718Y13675D01*
X3713Y13672D01*
X3708Y13669D01*
X3700Y13667D01*
X3692Y13666D01*
X3683Y13665D01*
X3675Y13666D01*
X3666Y13666D01*
X3655Y13667D01*
X3644Y13669D01*
X3644Y13669D01*
X3196Y13759D02*
X3104Y13747D01*
X3117Y13709D01*
X3135Y13675D01*
X3157Y13646D01*
X3184Y13622D01*
X3216Y13602D01*
X3252Y13588D01*
X3291Y13580D01*
X3335Y13577D01*
X3390Y13582D01*
X3439Y13595D01*
X3482Y13617D01*
X3518Y13648D01*
X3548Y13687D01*
X3569Y13734D01*
X3582Y13787D01*
X3586Y13848D01*
X3582Y13911D01*
X3569Y13966D01*
X3548Y14014D01*
X3518Y14054D01*
X3481Y14086D01*
X3439Y14109D01*
X3392Y14123D01*
X3340Y14128D01*
X3333Y14127D01*
X3339Y14054D01*
X3369Y14052D01*
X3396Y14044D01*
X3420Y14031D01*
X3443Y14013D01*
X3461Y13991D01*
X3475Y13965D01*
X3484Y13936D01*
X3489Y13903D01*
X3489Y13903D01*
X3195Y13903D01*
X3199Y13934D01*
X3206Y13961D01*
X3216Y13984D01*
X3229Y14003D01*
X3251Y14025D01*
X3278Y14041D01*
X3307Y14051D01*
X3339Y14054D01*
X3333Y14127D01*
X3290Y14123D01*
X3244Y14110D01*
X3203Y14087D01*
X3167Y14056D01*
X3138Y14016D01*
X3117Y13969D01*
X3105Y13915D01*
X3101Y13853D01*
X3101Y13849D01*
X3101Y13843D01*
X3101Y13837D01*
X3101Y13830D01*
X3494Y13830D01*
X3489Y13789D01*
X3479Y13753D01*
X3464Y13722D01*
X3445Y13697D01*
X3421Y13676D01*
X3395Y13662D01*
X3366Y13653D01*
X3335Y13651D01*
X3311Y13652D01*
X3289Y13657D01*
X3269Y13665D01*
X3251Y13676D01*
X3234Y13691D01*
X3220Y13710D01*
X3207Y13732D01*
X3196Y13759D01*
X3196Y13759D01*
X2992Y13589D02*
X2992Y14116D01*
X2912Y14116D01*
X2912Y14036D01*
X2897Y14062D01*
X2882Y14082D01*
X2869Y14099D01*
X2855Y14110D01*
X2842Y14118D01*
X2828Y14123D01*
X2813Y14127D01*
X2798Y14128D01*
X2775Y14126D01*
X2752Y14121D01*
X2729Y14112D01*
X2706Y14099D01*
X2737Y14016D01*
X2753Y14025D01*
X2770Y14031D01*
X2786Y14034D01*
X2802Y14035D01*
X2817Y14034D01*
X2830Y14031D01*
X2843Y14026D01*
X2855Y14018D01*
X2866Y14008D01*
X2875Y13997D01*
X2882Y13984D01*
X2888Y13969D01*
X2895Y13945D01*
X2899Y13919D01*
X2902Y13893D01*
X2903Y13865D01*
X2903Y13589D01*
X2992Y13589D01*
X2992Y13589D01*
G37*
M02*