%FSLAX33Y33*%
%MOMM*%
%LNbottom silkscreen_traces*%
%LNtext*%
G36*
G01*
X9699Y13893D02*
X9682Y13969D01*
X9669Y13965D01*
X9658Y13963D01*
X9648Y13962D01*
X9640Y13962D01*
X9627Y13963D01*
X9616Y13966D01*
X9606Y13972D01*
X9599Y13980D01*
X9593Y13992D01*
X9589Y14011D01*
X9586Y14037D01*
X9586Y14070D01*
X9586Y14624D01*
X9496Y14624D01*
X9496Y14068D01*
X9498Y14023D01*
X9503Y13986D01*
X9510Y13956D01*
X9522Y13933D01*
X9540Y13911D01*
X9564Y13896D01*
X9594Y13886D01*
X9629Y13883D01*
X9647Y13884D01*
X9664Y13886D01*
X9682Y13888D01*
X9699Y13893D01*
X9699Y13893D01*
X9586Y14721D02*
X9586Y14824D01*
X9496Y14824D01*
X9496Y14721D01*
X9586Y14721D01*
X9586Y14721D01*
X9016Y14162D02*
X9040Y14142D01*
X9044Y14140D01*
X9078Y14190D01*
X9062Y14204D01*
X9048Y14221D01*
X9037Y14239D01*
X9031Y14256D01*
X9027Y14277D01*
X9024Y14301D01*
X9023Y14329D01*
X9023Y14361D01*
X9023Y14361D01*
X9050Y14352D01*
X9084Y14343D01*
X9123Y14335D01*
X9169Y14328D01*
X9194Y14324D01*
X9216Y14319D01*
X9233Y14315D01*
X9247Y14310D01*
X9257Y14304D01*
X9267Y14298D01*
X9275Y14290D01*
X9282Y14281D01*
X9287Y14271D01*
X9291Y14261D01*
X9294Y14250D01*
X9294Y14238D01*
X9293Y14221D01*
X9288Y14206D01*
X9279Y14192D01*
X9267Y14179D01*
X9252Y14168D01*
X9234Y14161D01*
X9213Y14157D01*
X9188Y14155D01*
X9163Y14156D01*
X9139Y14161D01*
X9117Y14168D01*
X9096Y14178D01*
X9078Y14190D01*
X9044Y14140D01*
X9064Y14126D01*
X9088Y14113D01*
X9111Y14102D01*
X9134Y14095D01*
X9159Y14089D01*
X9184Y14086D01*
X9210Y14085D01*
X9250Y14088D01*
X9286Y14096D01*
X9317Y14109D01*
X9343Y14128D01*
X9363Y14150D01*
X9378Y14176D01*
X9387Y14204D01*
X9390Y14236D01*
X9388Y14255D01*
X9385Y14273D01*
X9380Y14290D01*
X9372Y14307D01*
X9362Y14322D01*
X9352Y14335D01*
X9339Y14347D01*
X9326Y14358D01*
X9311Y14367D01*
X9296Y14375D01*
X9279Y14382D01*
X9262Y14387D01*
X9247Y14391D01*
X9229Y14394D01*
X9207Y14397D01*
X9182Y14401D01*
X9132Y14407D01*
X9088Y14415D01*
X9052Y14423D01*
X9023Y14431D01*
X9023Y14440D01*
X9023Y14446D01*
X9023Y14451D01*
X9022Y14455D01*
X9024Y14480D01*
X9029Y14501D01*
X9037Y14518D01*
X9048Y14532D01*
X9067Y14545D01*
X9090Y14554D01*
X9118Y14560D01*
X9149Y14562D01*
X9179Y14560D01*
X9204Y14556D01*
X9225Y14549D01*
X9242Y14540D01*
X9257Y14527D01*
X9269Y14509D01*
X9279Y14488D01*
X9287Y14462D01*
X9374Y14474D01*
X9367Y14500D01*
X9358Y14524D01*
X9348Y14545D01*
X9335Y14564D01*
X9320Y14580D01*
X9302Y14595D01*
X9280Y14607D01*
X9256Y14617D01*
X9229Y14625D01*
X9200Y14631D01*
X9170Y14635D01*
X9137Y14636D01*
X9104Y14635D01*
X9075Y14632D01*
X9050Y14627D01*
X9027Y14620D01*
X9007Y14611D01*
X8990Y14602D01*
X8976Y14591D01*
X8965Y14580D01*
X8956Y14567D01*
X8948Y14553D01*
X8942Y14537D01*
X8937Y14519D01*
X8935Y14505D01*
X8934Y14487D01*
X8933Y14464D01*
X8933Y14437D01*
X8933Y14318D01*
X8932Y14261D01*
X8931Y14216D01*
X8929Y14182D01*
X8927Y14160D01*
X8923Y14144D01*
X8918Y14128D01*
X8912Y14112D01*
X8904Y14097D01*
X8998Y14097D01*
X9004Y14111D01*
X9009Y14127D01*
X9013Y14144D01*
X9016Y14162D01*
X9016Y14162D01*
X8450Y14290D02*
X8363Y14279D01*
X8373Y14236D01*
X8388Y14198D01*
X8410Y14165D01*
X8436Y14136D01*
X8468Y14114D01*
X8502Y14098D01*
X8540Y14088D01*
X8582Y14085D01*
X8633Y14090D01*
X8679Y14103D01*
X8720Y14125D01*
X8756Y14156D01*
X8785Y14195D01*
X8805Y14242D01*
X8817Y14296D01*
X8822Y14358D01*
X8820Y14400D01*
X8814Y14438D01*
X8806Y14474D01*
X8793Y14508D01*
X8777Y14538D01*
X8758Y14564D01*
X8734Y14586D01*
X8707Y14604D01*
X8678Y14618D01*
X8647Y14628D01*
X8615Y14634D01*
X8581Y14636D01*
X8540Y14633D01*
X8503Y14625D01*
X8470Y14611D01*
X8441Y14592D01*
X8416Y14568D01*
X8396Y14540D01*
X8381Y14507D01*
X8371Y14469D01*
X8458Y14456D01*
X8465Y14481D01*
X8475Y14502D01*
X8487Y14521D01*
X8502Y14536D01*
X8518Y14547D01*
X8537Y14556D01*
X8556Y14561D01*
X8578Y14562D01*
X8610Y14559D01*
X8639Y14550D01*
X8665Y14535D01*
X8688Y14514D01*
X8706Y14486D01*
X8719Y14452D01*
X8727Y14410D01*
X8730Y14361D01*
X8727Y14311D01*
X8720Y14269D01*
X8707Y14234D01*
X8689Y14207D01*
X8667Y14186D01*
X8642Y14171D01*
X8614Y14162D01*
X8583Y14159D01*
X8558Y14161D01*
X8535Y14167D01*
X8514Y14177D01*
X8495Y14191D01*
X8479Y14209D01*
X8466Y14232D01*
X8457Y14259D01*
X8450Y14290D01*
X8450Y14290D01*
X8286Y14097D02*
X8286Y14824D01*
X8196Y14824D01*
X8196Y14410D01*
X7985Y14624D01*
X7870Y14624D01*
X8071Y14428D01*
X7849Y14097D01*
X7959Y14097D01*
X8133Y14366D01*
X8196Y14306D01*
X8196Y14097D01*
X8286Y14097D01*
X8286Y14097D01*
X7152Y14162D02*
X7177Y14142D01*
X7180Y14140D01*
X7214Y14190D01*
X7198Y14204D01*
X7185Y14221D01*
X7174Y14239D01*
X7168Y14256D01*
X7163Y14277D01*
X7160Y14301D01*
X7160Y14329D01*
X7160Y14361D01*
X7160Y14361D01*
X7187Y14352D01*
X7220Y14343D01*
X7260Y14335D01*
X7305Y14328D01*
X7331Y14324D01*
X7352Y14319D01*
X7370Y14315D01*
X7383Y14310D01*
X7394Y14304D01*
X7404Y14298D01*
X7412Y14290D01*
X7419Y14281D01*
X7424Y14271D01*
X7428Y14261D01*
X7430Y14250D01*
X7431Y14238D01*
X7429Y14221D01*
X7424Y14206D01*
X7416Y14192D01*
X7404Y14179D01*
X7389Y14168D01*
X7371Y14161D01*
X7349Y14157D01*
X7325Y14155D01*
X7300Y14156D01*
X7276Y14161D01*
X7254Y14168D01*
X7233Y14178D01*
X7214Y14190D01*
X7180Y14140D01*
X7201Y14126D01*
X7224Y14113D01*
X7248Y14102D01*
X7271Y14095D01*
X7295Y14089D01*
X7320Y14086D01*
X7346Y14085D01*
X7387Y14088D01*
X7423Y14096D01*
X7454Y14109D01*
X7480Y14128D01*
X7500Y14150D01*
X7515Y14176D01*
X7523Y14204D01*
X7526Y14236D01*
X7525Y14255D01*
X7522Y14273D01*
X7516Y14290D01*
X7509Y14307D01*
X7499Y14322D01*
X7488Y14335D01*
X7476Y14347D01*
X7462Y14358D01*
X7448Y14367D01*
X7432Y14375D01*
X7416Y14382D01*
X7398Y14387D01*
X7383Y14391D01*
X7365Y14394D01*
X7344Y14397D01*
X7319Y14401D01*
X7268Y14407D01*
X7225Y14415D01*
X7189Y14423D01*
X7160Y14431D01*
X7159Y14440D01*
X7159Y14446D01*
X7159Y14451D01*
X7159Y14455D01*
X7161Y14480D01*
X7165Y14501D01*
X7173Y14518D01*
X7184Y14532D01*
X7204Y14545D01*
X7227Y14554D01*
X7254Y14560D01*
X7286Y14562D01*
X7316Y14560D01*
X7341Y14556D01*
X7362Y14549D01*
X7379Y14540D01*
X7393Y14527D01*
X7405Y14509D01*
X7415Y14488D01*
X7424Y14462D01*
X7511Y14474D01*
X7504Y14500D01*
X7495Y14524D01*
X7484Y14545D01*
X7472Y14564D01*
X7456Y14580D01*
X7438Y14595D01*
X7417Y14607D01*
X7393Y14617D01*
X7366Y14625D01*
X7337Y14631D01*
X7306Y14635D01*
X7273Y14636D01*
X7241Y14635D01*
X7212Y14632D01*
X7186Y14627D01*
X7164Y14620D01*
X7144Y14611D01*
X7127Y14602D01*
X7113Y14591D01*
X7102Y14580D01*
X7092Y14567D01*
X7085Y14553D01*
X7078Y14537D01*
X7074Y14519D01*
X7072Y14505D01*
X7070Y14487D01*
X7070Y14464D01*
X7069Y14437D01*
X7069Y14318D01*
X7069Y14261D01*
X7068Y14216D01*
X7066Y14182D01*
X7064Y14160D01*
X7060Y14144D01*
X7055Y14128D01*
X7049Y14112D01*
X7041Y14097D01*
X7134Y14097D01*
X7141Y14111D01*
X7146Y14127D01*
X7150Y14144D01*
X7152Y14162D01*
X7152Y14162D01*
X6589Y14097D02*
X6589Y14163D01*
X6630Y14205D01*
X6629Y14206D01*
X6611Y14233D01*
X6598Y14267D01*
X6590Y14307D01*
X6588Y14352D01*
X6590Y14403D01*
X6598Y14446D01*
X6611Y14482D01*
X6629Y14511D01*
X6651Y14533D01*
X6676Y14549D01*
X6703Y14559D01*
X6732Y14562D01*
X6760Y14559D01*
X6787Y14550D01*
X6810Y14534D01*
X6831Y14513D01*
X6849Y14485D01*
X6861Y14451D01*
X6869Y14409D01*
X6871Y14360D01*
X6871Y14360D01*
X6869Y14313D01*
X6861Y14272D01*
X6847Y14237D01*
X6829Y14209D01*
X6806Y14187D01*
X6782Y14171D01*
X6756Y14162D01*
X6728Y14159D01*
X6700Y14162D01*
X6674Y14170D01*
X6650Y14185D01*
X6630Y14205D01*
X6589Y14163D01*
X6617Y14129D01*
X6651Y14105D01*
X6691Y14090D01*
X6736Y14085D01*
X6767Y14087D01*
X6797Y14094D01*
X6825Y14105D01*
X6852Y14120D01*
X6877Y14139D01*
X6899Y14161D01*
X6918Y14187D01*
X6934Y14217D01*
X6947Y14249D01*
X6956Y14284D01*
X6961Y14321D01*
X6963Y14360D01*
X6961Y14398D01*
X6957Y14435D01*
X6948Y14470D01*
X6937Y14503D01*
X6922Y14533D01*
X6904Y14560D01*
X6883Y14583D01*
X6858Y14602D01*
X6831Y14617D01*
X6802Y14627D01*
X6772Y14634D01*
X6740Y14636D01*
X6717Y14635D01*
X6695Y14631D01*
X6675Y14624D01*
X6656Y14616D01*
X6638Y14605D01*
X6622Y14593D01*
X6608Y14579D01*
X6595Y14563D01*
X6595Y14824D01*
X6506Y14824D01*
X6506Y14097D01*
X6589Y14097D01*
X6589Y14097D01*
X6022Y14162D02*
X6047Y14142D01*
X6050Y14140D01*
X6084Y14190D01*
X6068Y14204D01*
X6055Y14221D01*
X6044Y14239D01*
X6038Y14256D01*
X6033Y14277D01*
X6030Y14301D01*
X6029Y14329D01*
X6029Y14361D01*
X6029Y14361D01*
X6057Y14352D01*
X6090Y14343D01*
X6130Y14335D01*
X6175Y14328D01*
X6201Y14324D01*
X6222Y14319D01*
X6240Y14315D01*
X6253Y14310D01*
X6264Y14304D01*
X6273Y14298D01*
X6282Y14290D01*
X6288Y14281D01*
X6294Y14271D01*
X6298Y14261D01*
X6300Y14250D01*
X6301Y14238D01*
X6299Y14221D01*
X6294Y14206D01*
X6286Y14192D01*
X6274Y14179D01*
X6259Y14168D01*
X6240Y14161D01*
X6219Y14157D01*
X6195Y14155D01*
X6170Y14156D01*
X6146Y14161D01*
X6124Y14168D01*
X6103Y14178D01*
X6084Y14190D01*
X6050Y14140D01*
X6071Y14126D01*
X6094Y14113D01*
X6118Y14102D01*
X6141Y14095D01*
X6165Y14089D01*
X6190Y14086D01*
X6216Y14085D01*
X6257Y14088D01*
X6293Y14096D01*
X6324Y14109D01*
X6349Y14128D01*
X6370Y14150D01*
X6384Y14176D01*
X6393Y14204D01*
X6396Y14236D01*
X6395Y14255D01*
X6392Y14273D01*
X6386Y14290D01*
X6378Y14307D01*
X6369Y14322D01*
X6358Y14335D01*
X6346Y14347D01*
X6332Y14358D01*
X6318Y14367D01*
X6302Y14375D01*
X6286Y14382D01*
X6268Y14387D01*
X6253Y14391D01*
X6235Y14394D01*
X6214Y14397D01*
X6189Y14401D01*
X6138Y14407D01*
X6095Y14415D01*
X6059Y14423D01*
X6029Y14431D01*
X6029Y14440D01*
X6029Y14446D01*
X6029Y14451D01*
X6029Y14455D01*
X6031Y14480D01*
X6035Y14501D01*
X6043Y14518D01*
X6054Y14532D01*
X6073Y14545D01*
X6097Y14554D01*
X6124Y14560D01*
X6156Y14562D01*
X6185Y14560D01*
X6211Y14556D01*
X6232Y14549D01*
X6249Y14540D01*
X6263Y14527D01*
X6275Y14509D01*
X6285Y14488D01*
X6293Y14462D01*
X6381Y14474D01*
X6374Y14500D01*
X6365Y14524D01*
X6354Y14545D01*
X6342Y14564D01*
X6326Y14580D01*
X6308Y14595D01*
X6287Y14607D01*
X6263Y14617D01*
X6236Y14625D01*
X6207Y14631D01*
X6176Y14635D01*
X6143Y14636D01*
X6111Y14635D01*
X6082Y14632D01*
X6056Y14627D01*
X6033Y14620D01*
X6014Y14611D01*
X5997Y14602D01*
X5983Y14591D01*
X5971Y14580D01*
X5962Y14567D01*
X5955Y14553D01*
X5948Y14537D01*
X5944Y14519D01*
X5942Y14505D01*
X5940Y14487D01*
X5939Y14464D01*
X5939Y14437D01*
X5939Y14318D01*
X5939Y14261D01*
X5938Y14216D01*
X5936Y14182D01*
X5933Y14160D01*
X5930Y14144D01*
X5925Y14128D01*
X5919Y14112D01*
X5911Y14097D01*
X6004Y14097D01*
X6010Y14111D01*
X6016Y14127D01*
X6019Y14144D01*
X6022Y14162D01*
X6022Y14162D01*
X5801Y13895D02*
X5801Y14624D01*
X5719Y14624D01*
X5719Y14555D01*
X5676Y14513D01*
X5676Y14512D01*
X5695Y14483D01*
X5709Y14447D01*
X5717Y14405D01*
X5720Y14357D01*
X5720Y14357D01*
X5717Y14310D01*
X5710Y14269D01*
X5697Y14235D01*
X5679Y14207D01*
X5657Y14186D01*
X5633Y14171D01*
X5607Y14162D01*
X5579Y14159D01*
X5550Y14162D01*
X5524Y14171D01*
X5499Y14187D01*
X5477Y14209D01*
X5459Y14238D01*
X5445Y14273D01*
X5437Y14316D01*
X5435Y14365D01*
X5437Y14412D01*
X5445Y14453D01*
X5458Y14487D01*
X5476Y14516D01*
X5498Y14538D01*
X5522Y14553D01*
X5547Y14563D01*
X5575Y14566D01*
X5603Y14562D01*
X5629Y14552D01*
X5653Y14536D01*
X5676Y14513D01*
X5719Y14555D01*
X5705Y14574D01*
X5689Y14591D01*
X5672Y14604D01*
X5654Y14616D01*
X5635Y14624D01*
X5614Y14631D01*
X5591Y14635D01*
X5567Y14636D01*
X5534Y14634D01*
X5503Y14627D01*
X5474Y14616D01*
X5448Y14601D01*
X5423Y14582D01*
X5402Y14559D01*
X5384Y14533D01*
X5370Y14503D01*
X5358Y14471D01*
X5350Y14437D01*
X5345Y14401D01*
X5343Y14364D01*
X5345Y14325D01*
X5351Y14288D01*
X5360Y14252D01*
X5372Y14219D01*
X5389Y14188D01*
X5408Y14162D01*
X5431Y14139D01*
X5457Y14120D01*
X5485Y14104D01*
X5513Y14094D01*
X5543Y14087D01*
X5573Y14085D01*
X5595Y14086D01*
X5615Y14090D01*
X5635Y14096D01*
X5653Y14104D01*
X5670Y14114D01*
X5685Y14125D01*
X5699Y14138D01*
X5711Y14152D01*
X5711Y13895D01*
X5801Y13895D01*
X5801Y13895D01*
X5041Y14177D02*
X5028Y14098D01*
X5046Y14095D01*
X5064Y14092D01*
X5080Y14091D01*
X5095Y14090D01*
X5118Y14091D01*
X5138Y14094D01*
X5156Y14099D01*
X5171Y14105D01*
X5183Y14114D01*
X5194Y14123D01*
X5202Y14134D01*
X5208Y14146D01*
X5213Y14162D01*
X5217Y14185D01*
X5219Y14215D01*
X5219Y14251D01*
X5219Y14554D01*
X5285Y14554D01*
X5285Y14624D01*
X5219Y14624D01*
X5219Y14754D01*
X5131Y14808D01*
X5131Y14624D01*
X5041Y14624D01*
X5041Y14554D01*
X5131Y14554D01*
X5131Y14246D01*
X5130Y14229D01*
X5129Y14215D01*
X5128Y14204D01*
X5126Y14197D01*
X5123Y14192D01*
X5120Y14187D01*
X5115Y14183D01*
X5110Y14180D01*
X5105Y14177D01*
X5097Y14175D01*
X5089Y14174D01*
X5080Y14173D01*
X5072Y14174D01*
X5063Y14174D01*
X5052Y14175D01*
X5041Y14177D01*
X5041Y14177D01*
X4593Y14267D02*
X4501Y14255D01*
X4514Y14217D01*
X4532Y14183D01*
X4554Y14154D01*
X4581Y14130D01*
X4613Y14110D01*
X4649Y14096D01*
X4688Y14088D01*
X4732Y14085D01*
X4787Y14090D01*
X4836Y14103D01*
X4879Y14125D01*
X4915Y14156D01*
X4945Y14195D01*
X4966Y14242D01*
X4979Y14295D01*
X4983Y14356D01*
X4979Y14419D01*
X4966Y14474D01*
X4945Y14522D01*
X4915Y14562D01*
X4878Y14594D01*
X4836Y14617D01*
X4789Y14631D01*
X4737Y14636D01*
X4730Y14635D01*
X4736Y14562D01*
X4766Y14560D01*
X4793Y14552D01*
X4817Y14539D01*
X4840Y14521D01*
X4858Y14499D01*
X4872Y14473D01*
X4881Y14444D01*
X4886Y14411D01*
X4886Y14411D01*
X4592Y14411D01*
X4596Y14442D01*
X4603Y14469D01*
X4613Y14492D01*
X4626Y14511D01*
X4648Y14533D01*
X4675Y14549D01*
X4704Y14559D01*
X4736Y14562D01*
X4730Y14635D01*
X4687Y14631D01*
X4641Y14618D01*
X4600Y14595D01*
X4564Y14564D01*
X4535Y14524D01*
X4514Y14477D01*
X4502Y14423D01*
X4498Y14361D01*
X4498Y14357D01*
X4498Y14351D01*
X4498Y14345D01*
X4498Y14338D01*
X4891Y14338D01*
X4886Y14297D01*
X4876Y14261D01*
X4861Y14230D01*
X4842Y14205D01*
X4818Y14184D01*
X4792Y14170D01*
X4763Y14161D01*
X4732Y14159D01*
X4708Y14160D01*
X4686Y14165D01*
X4666Y14173D01*
X4648Y14184D01*
X4631Y14199D01*
X4617Y14218D01*
X4604Y14240D01*
X4593Y14267D01*
X4593Y14267D01*
X4389Y14097D02*
X4389Y14624D01*
X4309Y14624D01*
X4309Y14544D01*
X4294Y14570D01*
X4279Y14590D01*
X4266Y14607D01*
X4252Y14618D01*
X4239Y14626D01*
X4225Y14631D01*
X4210Y14635D01*
X4195Y14636D01*
X4172Y14634D01*
X4149Y14629D01*
X4126Y14620D01*
X4103Y14607D01*
X4134Y14524D01*
X4150Y14533D01*
X4167Y14539D01*
X4183Y14542D01*
X4199Y14543D01*
X4214Y14542D01*
X4227Y14539D01*
X4240Y14534D01*
X4252Y14526D01*
X4263Y14516D01*
X4272Y14505D01*
X4279Y14492D01*
X4285Y14477D01*
X4292Y14453D01*
X4296Y14427D01*
X4299Y14401D01*
X4300Y14373D01*
X4300Y14097D01*
X4389Y14097D01*
X4389Y14097D01*
X9747Y12954D02*
X10029Y13681D01*
X9924Y13681D01*
X9735Y13153D01*
X9724Y13122D01*
X9714Y13091D01*
X9705Y13062D01*
X9697Y13034D01*
X9688Y13064D01*
X9679Y13093D01*
X9669Y13123D01*
X9658Y13153D01*
X9461Y13681D01*
X9363Y13681D01*
X9648Y12954D01*
X9747Y12954D01*
X9747Y12954D01*
X8984Y13124D02*
X8891Y13112D01*
X8905Y13074D01*
X8923Y13040D01*
X8945Y13011D01*
X8972Y12987D01*
X9004Y12967D01*
X9040Y12953D01*
X9079Y12945D01*
X9123Y12942D01*
X9178Y12947D01*
X9227Y12960D01*
X9270Y12982D01*
X9306Y13013D01*
X9336Y13052D01*
X9357Y13099D01*
X9370Y13152D01*
X9374Y13213D01*
X9370Y13276D01*
X9357Y13331D01*
X9336Y13379D01*
X9306Y13419D01*
X9269Y13451D01*
X9227Y13474D01*
X9180Y13488D01*
X9128Y13493D01*
X9121Y13492D01*
X9127Y13419D01*
X9157Y13417D01*
X9184Y13409D01*
X9208Y13396D01*
X9231Y13378D01*
X9249Y13356D01*
X9263Y13330D01*
X9272Y13301D01*
X9277Y13268D01*
X9277Y13268D01*
X8983Y13268D01*
X8987Y13299D01*
X8994Y13326D01*
X9004Y13349D01*
X9016Y13368D01*
X9039Y13390D01*
X9065Y13406D01*
X9095Y13416D01*
X9127Y13419D01*
X9121Y13492D01*
X9078Y13488D01*
X9032Y13475D01*
X8991Y13452D01*
X8955Y13421D01*
X8926Y13381D01*
X8905Y13334D01*
X8893Y13280D01*
X8888Y13218D01*
X8889Y13214D01*
X8889Y13208D01*
X8889Y13202D01*
X8889Y13195D01*
X9282Y13195D01*
X9277Y13154D01*
X9267Y13118D01*
X9252Y13087D01*
X9233Y13062D01*
X9209Y13041D01*
X9183Y13027D01*
X9154Y13018D01*
X9123Y13016D01*
X9099Y13017D01*
X9077Y13022D01*
X9057Y13030D01*
X9039Y13041D01*
X9022Y13056D01*
X9008Y13075D01*
X8995Y13097D01*
X8984Y13124D01*
X8984Y13124D01*
X8780Y12954D02*
X8780Y13481D01*
X8700Y13481D01*
X8700Y13401D01*
X8685Y13427D01*
X8670Y13447D01*
X8656Y13464D01*
X8643Y13475D01*
X8630Y13483D01*
X8616Y13488D01*
X8601Y13492D01*
X8586Y13493D01*
X8563Y13491D01*
X8540Y13486D01*
X8517Y13477D01*
X8494Y13464D01*
X8525Y13381D01*
X8541Y13390D01*
X8558Y13396D01*
X8574Y13399D01*
X8590Y13400D01*
X8605Y13399D01*
X8618Y13396D01*
X8631Y13391D01*
X8643Y13383D01*
X8654Y13373D01*
X8663Y13362D01*
X8670Y13349D01*
X8676Y13334D01*
X8683Y13310D01*
X8687Y13284D01*
X8690Y13258D01*
X8691Y13230D01*
X8691Y12954D01*
X8780Y12954D01*
X8780Y12954D01*
X8477Y13111D02*
X8388Y13125D01*
X8383Y13100D01*
X8374Y13078D01*
X8362Y13059D01*
X8347Y13044D01*
X8328Y13031D01*
X8306Y13023D01*
X8281Y13017D01*
X8252Y13016D01*
X8223Y13017D01*
X8198Y13022D01*
X8178Y13030D01*
X8161Y13041D01*
X8148Y13054D01*
X8138Y13068D01*
X8133Y13083D01*
X8131Y13099D01*
X8133Y13114D01*
X8138Y13126D01*
X8146Y13137D01*
X8157Y13147D01*
X8170Y13153D01*
X8189Y13160D01*
X8215Y13168D01*
X8249Y13177D01*
X8294Y13189D01*
X8332Y13200D01*
X8362Y13211D01*
X8385Y13220D01*
X8403Y13230D01*
X8418Y13242D01*
X8431Y13255D01*
X8442Y13270D01*
X8451Y13287D01*
X8457Y13304D01*
X8461Y13322D01*
X8462Y13341D01*
X8461Y13358D01*
X8458Y13375D01*
X8453Y13391D01*
X8446Y13406D01*
X8437Y13421D01*
X8427Y13434D01*
X8415Y13445D01*
X8402Y13456D01*
X8390Y13463D01*
X8377Y13470D01*
X8362Y13476D01*
X8345Y13482D01*
X8327Y13487D01*
X8308Y13490D01*
X8288Y13492D01*
X8268Y13493D01*
X8238Y13492D01*
X8210Y13488D01*
X8183Y13483D01*
X8159Y13475D01*
X8137Y13465D01*
X8118Y13454D01*
X8102Y13441D01*
X8090Y13427D01*
X8079Y13410D01*
X8071Y13391D01*
X8064Y13369D01*
X8059Y13345D01*
X8146Y13333D01*
X8151Y13352D01*
X8158Y13369D01*
X8168Y13384D01*
X8181Y13397D01*
X8197Y13406D01*
X8215Y13414D01*
X8237Y13418D01*
X8261Y13419D01*
X8290Y13418D01*
X8314Y13414D01*
X8334Y13408D01*
X8349Y13399D01*
X8361Y13388D01*
X8369Y13377D01*
X8374Y13365D01*
X8376Y13351D01*
X8375Y13343D01*
X8373Y13335D01*
X8369Y13327D01*
X8365Y13320D01*
X8358Y13313D01*
X8351Y13307D01*
X8341Y13301D01*
X8330Y13296D01*
X8320Y13293D01*
X8304Y13288D01*
X8281Y13282D01*
X8252Y13273D01*
X8208Y13261D01*
X8171Y13250D01*
X8142Y13241D01*
X8119Y13232D01*
X8102Y13223D01*
X8086Y13212D01*
X8072Y13200D01*
X8061Y13185D01*
X8051Y13169D01*
X8045Y13151D01*
X8041Y13131D01*
X8039Y13109D01*
X8041Y13087D01*
X8046Y13065D01*
X8054Y13045D01*
X8065Y13025D01*
X8080Y13006D01*
X8097Y12990D01*
X8117Y12976D01*
X8140Y12964D01*
X8166Y12954D01*
X8193Y12947D01*
X8221Y12943D01*
X8252Y12942D01*
X8300Y12945D01*
X8342Y12953D01*
X8378Y12966D01*
X8408Y12985D01*
X8433Y13009D01*
X8452Y13038D01*
X8467Y13072D01*
X8477Y13111D01*
X8477Y13111D01*
X7932Y12954D02*
X7932Y13481D01*
X7843Y13481D01*
X7843Y12954D01*
X7932Y12954D01*
X7932Y12954D01*
X7932Y13579D02*
X7932Y13681D01*
X7843Y13681D01*
X7843Y13579D01*
X7932Y13579D01*
X7932Y13579D01*
X7741Y13217D02*
X7735Y13286D01*
X7720Y13345D01*
X7695Y13394D01*
X7659Y13434D01*
X7623Y13460D01*
X7584Y13478D01*
X7540Y13489D01*
X7493Y13493D01*
X7442Y13488D01*
X7395Y13475D01*
X7353Y13453D01*
X7316Y13422D01*
X7286Y13383D01*
X7264Y13337D01*
X7251Y13284D01*
X7247Y13225D01*
X7249Y13177D01*
X7255Y13134D01*
X7264Y13097D01*
X7277Y13065D01*
X7294Y13037D01*
X7315Y13013D01*
X7339Y12992D01*
X7366Y12974D01*
X7396Y12960D01*
X7427Y12950D01*
X7460Y12944D01*
X7493Y12942D01*
X7500Y12943D01*
X7493Y13016D01*
X7462Y13019D01*
X7433Y13028D01*
X7406Y13044D01*
X7383Y13066D01*
X7364Y13095D01*
X7350Y13130D01*
X7341Y13172D01*
X7339Y13220D01*
X7341Y13266D01*
X7350Y13306D01*
X7364Y13340D01*
X7383Y13368D01*
X7407Y13391D01*
X7433Y13406D01*
X7462Y13416D01*
X7493Y13419D01*
X7526Y13416D01*
X7555Y13406D01*
X7581Y13391D01*
X7605Y13369D01*
X7624Y13340D01*
X7638Y13306D01*
X7646Y13265D01*
X7649Y13217D01*
X7649Y13217D01*
X7646Y13170D01*
X7638Y13129D01*
X7624Y13094D01*
X7605Y13066D01*
X7581Y13044D01*
X7555Y13028D01*
X7526Y13019D01*
X7493Y13016D01*
X7500Y12943D01*
X7546Y12947D01*
X7593Y12960D01*
X7636Y12982D01*
X7672Y13013D01*
X7702Y13052D01*
X7723Y13100D01*
X7736Y13155D01*
X7741Y13217D01*
X7741Y13217D01*
X7142Y12954D02*
X7142Y13481D01*
X7062Y13481D01*
X7062Y13406D01*
X7030Y13444D01*
X6991Y13471D01*
X6946Y13487D01*
X6894Y13493D01*
X6871Y13492D01*
X6848Y13488D01*
X6827Y13483D01*
X6807Y13476D01*
X6788Y13466D01*
X6772Y13456D01*
X6758Y13444D01*
X6747Y13431D01*
X6738Y13416D01*
X6730Y13400D01*
X6724Y13383D01*
X6719Y13365D01*
X6717Y13350D01*
X6715Y13331D01*
X6714Y13307D01*
X6714Y13278D01*
X6714Y12954D01*
X6803Y12954D01*
X6803Y13274D01*
X6804Y13300D01*
X6806Y13322D01*
X6809Y13341D01*
X6814Y13356D01*
X6820Y13369D01*
X6828Y13380D01*
X6839Y13390D01*
X6851Y13399D01*
X6865Y13406D01*
X6880Y13411D01*
X6896Y13414D01*
X6913Y13415D01*
X6941Y13413D01*
X6966Y13406D01*
X6990Y13395D01*
X7012Y13379D01*
X7030Y13357D01*
X7043Y13327D01*
X7050Y13288D01*
X7053Y13242D01*
X7053Y12954D01*
X7142Y12954D01*
X7142Y12954D01*
X5983Y12954D02*
X6073Y12954D01*
X6073Y13523D01*
X6090Y13508D01*
X6110Y13492D01*
X6132Y13477D01*
X6157Y13462D01*
X6183Y13447D01*
X6207Y13435D01*
X6230Y13424D01*
X6251Y13415D01*
X6251Y13502D01*
X6215Y13520D01*
X6181Y13541D01*
X6149Y13563D01*
X6120Y13587D01*
X6094Y13612D01*
X6072Y13636D01*
X6055Y13660D01*
X6041Y13684D01*
X5983Y13684D01*
X5983Y12954D01*
X5983Y12954D01*
X5705Y12954D02*
X5705Y13056D01*
X5603Y13056D01*
X5603Y12954D01*
X5705Y12954D01*
X5705Y12954D01*
X5136Y12954D02*
X5225Y12954D01*
X5225Y13523D01*
X5243Y13508D01*
X5263Y13492D01*
X5285Y13477D01*
X5310Y13462D01*
X5335Y13447D01*
X5360Y13435D01*
X5382Y13424D01*
X5404Y13415D01*
X5404Y13502D01*
X5368Y13520D01*
X5334Y13541D01*
X5302Y13563D01*
X5273Y13587D01*
X5247Y13612D01*
X5225Y13636D01*
X5207Y13660D01*
X5194Y13684D01*
X5136Y13684D01*
X5136Y12954D01*
X5136Y12954D01*
X4857Y12954D02*
X4857Y13056D01*
X4756Y13056D01*
X4756Y12954D01*
X4857Y12954D01*
X4857Y12954D01*
X4625Y13313D02*
X4623Y13374D01*
X4618Y13429D01*
X4610Y13478D01*
X4599Y13520D01*
X4584Y13557D01*
X4566Y13590D01*
X4544Y13618D01*
X4520Y13642D01*
X4492Y13660D01*
X4461Y13674D01*
X4426Y13682D01*
X4388Y13684D01*
X4360Y13683D01*
X4333Y13678D01*
X4308Y13671D01*
X4285Y13661D01*
X4264Y13648D01*
X4245Y13632D01*
X4228Y13614D01*
X4212Y13593D01*
X4199Y13569D01*
X4187Y13543D01*
X4176Y13515D01*
X4167Y13485D01*
X4160Y13450D01*
X4155Y13410D01*
X4152Y13364D01*
X4151Y13313D01*
X4152Y13252D01*
X4157Y13197D01*
X4166Y13148D01*
X4177Y13106D01*
X4192Y13069D01*
X4210Y13036D01*
X4231Y13008D01*
X4256Y12985D01*
X4284Y12966D01*
X4315Y12952D01*
X4350Y12944D01*
X4388Y12942D01*
X4395Y12942D01*
X4388Y13015D01*
X4358Y13019D01*
X4331Y13030D01*
X4307Y13049D01*
X4284Y13075D01*
X4266Y13112D01*
X4253Y13164D01*
X4245Y13231D01*
X4243Y13313D01*
X4245Y13395D01*
X4253Y13462D01*
X4266Y13514D01*
X4284Y13551D01*
X4307Y13577D01*
X4332Y13596D01*
X4359Y13607D01*
X4389Y13610D01*
X4418Y13607D01*
X4444Y13597D01*
X4467Y13581D01*
X4487Y13558D01*
X4507Y13518D01*
X4522Y13464D01*
X4530Y13395D01*
X4533Y13313D01*
X4533Y13313D01*
X4531Y13231D01*
X4523Y13164D01*
X4510Y13111D01*
X4491Y13074D01*
X4469Y13048D01*
X4445Y13030D01*
X4417Y13019D01*
X4388Y13015D01*
X4395Y12942D01*
X4438Y12946D01*
X4482Y12960D01*
X4520Y12984D01*
X4553Y13017D01*
X4585Y13070D01*
X4607Y13136D01*
X4621Y13217D01*
X4625Y13313D01*
X4625Y13313D01*
X10848Y15240D02*
X10848Y15967D01*
X10575Y15967D01*
X10535Y15966D01*
X10500Y15962D01*
X10468Y15955D01*
X10441Y15945D01*
X10417Y15933D01*
X10396Y15917D01*
X10378Y15899D01*
X10362Y15877D01*
X10350Y15854D01*
X10341Y15830D01*
X10335Y15806D01*
X10334Y15781D01*
X10335Y15758D01*
X10340Y15736D01*
X10348Y15714D01*
X10359Y15693D01*
X10373Y15674D01*
X10391Y15656D01*
X10411Y15641D01*
X10435Y15627D01*
X10464Y15558D01*
X10477Y15564D01*
X10497Y15569D01*
X10522Y15573D01*
X10550Y15575D01*
X10583Y15576D01*
X10751Y15576D01*
X10751Y15326D01*
X10751Y15326D01*
X10570Y15326D01*
X10549Y15326D01*
X10531Y15327D01*
X10516Y15328D01*
X10505Y15329D01*
X10489Y15333D01*
X10474Y15337D01*
X10461Y15343D01*
X10449Y15349D01*
X10439Y15357D01*
X10429Y15366D01*
X10420Y15377D01*
X10413Y15390D01*
X10406Y15403D01*
X10402Y15418D01*
X10399Y15434D01*
X10398Y15451D01*
X10399Y15471D01*
X10403Y15489D01*
X10410Y15506D01*
X10419Y15522D01*
X10430Y15535D01*
X10444Y15547D01*
X10459Y15557D01*
X10464Y15558D01*
X10435Y15627D01*
X10470Y15685D01*
X10457Y15695D01*
X10447Y15706D01*
X10439Y15720D01*
X10433Y15735D01*
X10430Y15752D01*
X10428Y15770D01*
X10429Y15787D01*
X10433Y15804D01*
X10438Y15819D01*
X10446Y15834D01*
X10455Y15846D01*
X10467Y15857D01*
X10480Y15865D01*
X10495Y15871D01*
X10514Y15876D01*
X10539Y15879D01*
X10570Y15881D01*
X10606Y15881D01*
X10751Y15881D01*
X10751Y15662D01*
X10751Y15662D01*
X10594Y15662D01*
X10564Y15662D01*
X10539Y15664D01*
X10518Y15666D01*
X10502Y15670D01*
X10485Y15676D01*
X10470Y15685D01*
X10435Y15627D01*
X10404Y15616D01*
X10377Y15601D01*
X10354Y15583D01*
X10334Y15561D01*
X10318Y15537D01*
X10307Y15510D01*
X10301Y15482D01*
X10298Y15451D01*
X10300Y15426D01*
X10304Y15402D01*
X10311Y15378D01*
X10320Y15356D01*
X10331Y15335D01*
X10344Y15317D01*
X10358Y15301D01*
X10373Y15288D01*
X10390Y15277D01*
X10409Y15267D01*
X10430Y15259D01*
X10453Y15252D01*
X10478Y15247D01*
X10506Y15243D01*
X10537Y15241D01*
X10570Y15240D01*
X10848Y15240D01*
X10848Y15240D01*
X10178Y15240D02*
X10178Y15767D01*
X10098Y15767D01*
X10098Y15687D01*
X10083Y15713D01*
X10068Y15733D01*
X10054Y15750D01*
X10041Y15761D01*
X10028Y15769D01*
X10014Y15774D01*
X9999Y15778D01*
X9984Y15779D01*
X9961Y15777D01*
X9938Y15772D01*
X9915Y15763D01*
X9892Y15750D01*
X9923Y15667D01*
X9939Y15676D01*
X9956Y15682D01*
X9972Y15685D01*
X9988Y15686D01*
X10003Y15685D01*
X10016Y15682D01*
X10029Y15677D01*
X10041Y15669D01*
X10052Y15659D01*
X10061Y15648D01*
X10068Y15635D01*
X10074Y15620D01*
X10081Y15596D01*
X10085Y15570D01*
X10088Y15544D01*
X10089Y15516D01*
X10089Y15240D01*
X10178Y15240D01*
X10178Y15240D01*
X9478Y15410D02*
X9386Y15398D01*
X9399Y15360D01*
X9417Y15326D01*
X9440Y15297D01*
X9467Y15273D01*
X9499Y15253D01*
X9534Y15239D01*
X9574Y15231D01*
X9618Y15228D01*
X9673Y15233D01*
X9721Y15246D01*
X9764Y15268D01*
X9801Y15299D01*
X9831Y15338D01*
X9852Y15385D01*
X9865Y15438D01*
X9869Y15499D01*
X9865Y15562D01*
X9852Y15617D01*
X9830Y15665D01*
X9800Y15705D01*
X9764Y15737D01*
X9722Y15760D01*
X9675Y15774D01*
X9623Y15779D01*
X9615Y15778D01*
X9622Y15705D01*
X9651Y15703D01*
X9678Y15695D01*
X9703Y15682D01*
X9725Y15664D01*
X9744Y15642D01*
X9758Y15616D01*
X9767Y15587D01*
X9772Y15554D01*
X9772Y15554D01*
X9477Y15554D01*
X9482Y15585D01*
X9489Y15612D01*
X9499Y15635D01*
X9511Y15654D01*
X9534Y15676D01*
X9560Y15692D01*
X9589Y15702D01*
X9622Y15705D01*
X9615Y15778D01*
X9572Y15774D01*
X9527Y15761D01*
X9486Y15738D01*
X9450Y15707D01*
X9421Y15667D01*
X9400Y15620D01*
X9387Y15566D01*
X9383Y15504D01*
X9383Y15500D01*
X9383Y15494D01*
X9383Y15488D01*
X9384Y15481D01*
X9777Y15481D01*
X9772Y15440D01*
X9762Y15404D01*
X9747Y15373D01*
X9727Y15348D01*
X9704Y15327D01*
X9678Y15313D01*
X9649Y15304D01*
X9617Y15302D01*
X9594Y15303D01*
X9572Y15308D01*
X9552Y15316D01*
X9533Y15327D01*
X9517Y15342D01*
X9502Y15361D01*
X9489Y15383D01*
X9478Y15410D01*
X9478Y15410D01*
X8930Y15305D02*
X8955Y15285D01*
X8958Y15283D01*
X8992Y15333D01*
X8976Y15347D01*
X8963Y15364D01*
X8952Y15382D01*
X8946Y15399D01*
X8941Y15420D01*
X8939Y15444D01*
X8938Y15472D01*
X8938Y15504D01*
X8938Y15504D01*
X8965Y15495D01*
X8998Y15486D01*
X9038Y15478D01*
X9083Y15471D01*
X9109Y15467D01*
X9130Y15462D01*
X9148Y15458D01*
X9161Y15453D01*
X9172Y15447D01*
X9182Y15441D01*
X9190Y15433D01*
X9197Y15424D01*
X9202Y15414D01*
X9206Y15404D01*
X9208Y15393D01*
X9209Y15381D01*
X9207Y15364D01*
X9202Y15349D01*
X9194Y15335D01*
X9182Y15322D01*
X9167Y15311D01*
X9149Y15304D01*
X9127Y15300D01*
X9103Y15298D01*
X9078Y15299D01*
X9054Y15304D01*
X9032Y15311D01*
X9011Y15321D01*
X8992Y15333D01*
X8958Y15283D01*
X8979Y15269D01*
X9002Y15256D01*
X9026Y15245D01*
X9049Y15238D01*
X9073Y15232D01*
X9098Y15229D01*
X9124Y15228D01*
X9165Y15231D01*
X9201Y15239D01*
X9232Y15252D01*
X9258Y15271D01*
X9278Y15293D01*
X9293Y15319D01*
X9301Y15347D01*
X9304Y15379D01*
X9303Y15398D01*
X9300Y15416D01*
X9294Y15433D01*
X9287Y15450D01*
X9277Y15465D01*
X9266Y15478D01*
X9254Y15490D01*
X9240Y15501D01*
X9226Y15510D01*
X9210Y15518D01*
X9194Y15525D01*
X9176Y15530D01*
X9161Y15534D01*
X9143Y15537D01*
X9122Y15540D01*
X9097Y15544D01*
X9046Y15550D01*
X9003Y15558D01*
X8967Y15566D01*
X8938Y15574D01*
X8937Y15583D01*
X8937Y15589D01*
X8937Y15594D01*
X8937Y15598D01*
X8939Y15623D01*
X8943Y15644D01*
X8951Y15661D01*
X8962Y15675D01*
X8982Y15688D01*
X9005Y15697D01*
X9032Y15703D01*
X9064Y15705D01*
X9094Y15703D01*
X9119Y15699D01*
X9140Y15692D01*
X9157Y15683D01*
X9171Y15670D01*
X9183Y15652D01*
X9193Y15631D01*
X9202Y15605D01*
X9289Y15617D01*
X9282Y15643D01*
X9273Y15667D01*
X9262Y15688D01*
X9250Y15707D01*
X9235Y15723D01*
X9216Y15738D01*
X9195Y15750D01*
X9171Y15760D01*
X9144Y15768D01*
X9115Y15774D01*
X9084Y15778D01*
X9051Y15779D01*
X9019Y15778D01*
X8990Y15775D01*
X8964Y15770D01*
X8942Y15763D01*
X8922Y15754D01*
X8905Y15745D01*
X8891Y15734D01*
X8880Y15723D01*
X8870Y15710D01*
X8863Y15696D01*
X8857Y15680D01*
X8852Y15662D01*
X8850Y15648D01*
X8848Y15630D01*
X8848Y15607D01*
X8847Y15580D01*
X8847Y15461D01*
X8847Y15404D01*
X8846Y15359D01*
X8844Y15325D01*
X8842Y15303D01*
X8838Y15287D01*
X8833Y15271D01*
X8827Y15255D01*
X8819Y15240D01*
X8912Y15240D01*
X8919Y15254D01*
X8924Y15270D01*
X8928Y15287D01*
X8930Y15305D01*
X8930Y15305D01*
X8367Y15240D02*
X8367Y15306D01*
X8408Y15348D01*
X8407Y15349D01*
X8389Y15376D01*
X8376Y15410D01*
X8368Y15450D01*
X8366Y15495D01*
X8368Y15546D01*
X8376Y15589D01*
X8389Y15625D01*
X8407Y15654D01*
X8429Y15676D01*
X8454Y15692D01*
X8481Y15702D01*
X8510Y15705D01*
X8539Y15702D01*
X8565Y15693D01*
X8588Y15677D01*
X8609Y15656D01*
X8627Y15628D01*
X8639Y15594D01*
X8647Y15552D01*
X8649Y15503D01*
X8649Y15503D01*
X8647Y15456D01*
X8639Y15415D01*
X8625Y15380D01*
X8607Y15352D01*
X8584Y15330D01*
X8560Y15314D01*
X8534Y15305D01*
X8506Y15302D01*
X8478Y15305D01*
X8452Y15313D01*
X8428Y15328D01*
X8408Y15348D01*
X8367Y15306D01*
X8395Y15272D01*
X8429Y15248D01*
X8469Y15233D01*
X8514Y15228D01*
X8545Y15230D01*
X8575Y15237D01*
X8603Y15248D01*
X8630Y15263D01*
X8655Y15282D01*
X8677Y15304D01*
X8696Y15330D01*
X8712Y15360D01*
X8725Y15392D01*
X8734Y15427D01*
X8739Y15464D01*
X8741Y15503D01*
X8740Y15541D01*
X8735Y15578D01*
X8726Y15613D01*
X8715Y15646D01*
X8700Y15676D01*
X8682Y15703D01*
X8661Y15726D01*
X8636Y15745D01*
X8609Y15760D01*
X8580Y15770D01*
X8550Y15777D01*
X8518Y15779D01*
X8495Y15778D01*
X8473Y15774D01*
X8453Y15767D01*
X8434Y15759D01*
X8416Y15748D01*
X8400Y15736D01*
X8386Y15722D01*
X8373Y15706D01*
X8373Y15967D01*
X8284Y15967D01*
X8284Y15240D01*
X8367Y15240D01*
X8367Y15240D01*
X8062Y15240D02*
X8144Y15240D01*
X8144Y15967D01*
X8055Y15967D01*
X8055Y15708D01*
X8025Y15739D01*
X7991Y15761D01*
X7953Y15774D01*
X7911Y15779D01*
X7887Y15778D01*
X7863Y15774D01*
X7841Y15768D01*
X7819Y15759D01*
X7798Y15748D01*
X7779Y15736D01*
X7762Y15721D01*
X7747Y15704D01*
X7734Y15685D01*
X7722Y15665D01*
X7712Y15643D01*
X7703Y15619D01*
X7696Y15593D01*
X7691Y15567D01*
X7688Y15539D01*
X7687Y15511D01*
X7692Y15447D01*
X7704Y15391D01*
X7725Y15343D01*
X7754Y15302D01*
X7790Y15270D01*
X7828Y15247D01*
X7870Y15233D01*
X7915Y15228D01*
X7959Y15233D01*
X7998Y15248D01*
X8032Y15272D01*
X8058Y15302D01*
X8014Y15340D01*
X7987Y15319D01*
X7957Y15306D01*
X7923Y15302D01*
X7894Y15305D01*
X7868Y15314D01*
X7844Y15330D01*
X7821Y15352D01*
X7803Y15381D01*
X7789Y15416D01*
X7781Y15457D01*
X7779Y15504D01*
X7781Y15552D01*
X7789Y15594D01*
X7802Y15628D01*
X7820Y15656D01*
X7841Y15678D01*
X7865Y15693D01*
X7891Y15702D01*
X7919Y15705D01*
X7947Y15702D01*
X7973Y15693D01*
X7998Y15677D01*
X8020Y15654D01*
X8038Y15626D01*
X8052Y15592D01*
X8060Y15553D01*
X8062Y15507D01*
X8062Y15507D01*
X8061Y15463D01*
X8056Y15426D01*
X8048Y15395D01*
X8037Y15370D01*
X8014Y15340D01*
X8058Y15302D01*
X8062Y15306D01*
X8062Y15240D01*
X8062Y15240D01*
X7612Y15503D02*
X7607Y15572D01*
X7592Y15631D01*
X7566Y15680D01*
X7531Y15720D01*
X7495Y15746D01*
X7455Y15764D01*
X7412Y15775D01*
X7365Y15779D01*
X7313Y15774D01*
X7266Y15761D01*
X7224Y15739D01*
X7187Y15708D01*
X7157Y15669D01*
X7136Y15623D01*
X7123Y15570D01*
X7118Y15511D01*
X7120Y15463D01*
X7126Y15420D01*
X7136Y15383D01*
X7149Y15351D01*
X7166Y15323D01*
X7186Y15299D01*
X7210Y15278D01*
X7238Y15260D01*
X7268Y15246D01*
X7299Y15236D01*
X7331Y15230D01*
X7365Y15228D01*
X7371Y15229D01*
X7365Y15302D01*
X7333Y15305D01*
X7304Y15314D01*
X7278Y15330D01*
X7254Y15352D01*
X7235Y15381D01*
X7221Y15416D01*
X7213Y15458D01*
X7210Y15506D01*
X7213Y15552D01*
X7221Y15592D01*
X7235Y15626D01*
X7255Y15654D01*
X7278Y15677D01*
X7304Y15692D01*
X7333Y15702D01*
X7365Y15705D01*
X7397Y15702D01*
X7426Y15692D01*
X7453Y15677D01*
X7476Y15655D01*
X7495Y15626D01*
X7509Y15592D01*
X7517Y15551D01*
X7520Y15503D01*
X7520Y15503D01*
X7517Y15456D01*
X7509Y15415D01*
X7495Y15380D01*
X7476Y15352D01*
X7453Y15330D01*
X7426Y15314D01*
X7397Y15305D01*
X7365Y15302D01*
X7371Y15229D01*
X7418Y15233D01*
X7465Y15246D01*
X7507Y15268D01*
X7544Y15299D01*
X7574Y15338D01*
X7595Y15386D01*
X7608Y15441D01*
X7612Y15503D01*
X7612Y15503D01*
X6670Y15305D02*
X6695Y15285D01*
X6698Y15283D01*
X6732Y15333D01*
X6716Y15347D01*
X6703Y15364D01*
X6692Y15382D01*
X6685Y15399D01*
X6681Y15420D01*
X6678Y15444D01*
X6677Y15472D01*
X6677Y15504D01*
X6677Y15504D01*
X6705Y15495D01*
X6738Y15486D01*
X6778Y15478D01*
X6823Y15471D01*
X6849Y15467D01*
X6870Y15462D01*
X6888Y15458D01*
X6901Y15453D01*
X6912Y15447D01*
X6921Y15441D01*
X6929Y15433D01*
X6936Y15424D01*
X6942Y15414D01*
X6946Y15404D01*
X6948Y15393D01*
X6949Y15381D01*
X6947Y15364D01*
X6942Y15349D01*
X6934Y15335D01*
X6922Y15322D01*
X6907Y15311D01*
X6888Y15304D01*
X6867Y15300D01*
X6843Y15298D01*
X6818Y15299D01*
X6794Y15304D01*
X6772Y15311D01*
X6751Y15321D01*
X6732Y15333D01*
X6698Y15283D01*
X6719Y15269D01*
X6742Y15256D01*
X6765Y15245D01*
X6789Y15238D01*
X6813Y15232D01*
X6838Y15229D01*
X6864Y15228D01*
X6905Y15231D01*
X6941Y15239D01*
X6972Y15252D01*
X6997Y15271D01*
X7018Y15293D01*
X7032Y15319D01*
X7041Y15347D01*
X7044Y15379D01*
X7043Y15398D01*
X7040Y15416D01*
X7034Y15433D01*
X7026Y15450D01*
X7017Y15465D01*
X7006Y15478D01*
X6994Y15490D01*
X6980Y15501D01*
X6966Y15510D01*
X6950Y15518D01*
X6933Y15525D01*
X6916Y15530D01*
X6901Y15534D01*
X6883Y15537D01*
X6862Y15540D01*
X6837Y15544D01*
X6786Y15550D01*
X6743Y15558D01*
X6707Y15566D01*
X6677Y15574D01*
X6677Y15583D01*
X6677Y15589D01*
X6677Y15594D01*
X6677Y15598D01*
X6678Y15623D01*
X6683Y15644D01*
X6691Y15661D01*
X6702Y15675D01*
X6721Y15688D01*
X6745Y15697D01*
X6772Y15703D01*
X6804Y15705D01*
X6833Y15703D01*
X6859Y15699D01*
X6880Y15692D01*
X6897Y15683D01*
X6911Y15670D01*
X6923Y15652D01*
X6933Y15631D01*
X6941Y15605D01*
X7029Y15617D01*
X7022Y15643D01*
X7013Y15667D01*
X7002Y15688D01*
X6989Y15707D01*
X6974Y15723D01*
X6956Y15738D01*
X6935Y15750D01*
X6911Y15760D01*
X6884Y15768D01*
X6855Y15774D01*
X6824Y15778D01*
X6791Y15779D01*
X6759Y15778D01*
X6730Y15775D01*
X6704Y15770D01*
X6681Y15763D01*
X6662Y15754D01*
X6645Y15745D01*
X6631Y15734D01*
X6619Y15723D01*
X6610Y15710D01*
X6602Y15696D01*
X6596Y15680D01*
X6592Y15662D01*
X6590Y15648D01*
X6588Y15630D01*
X6587Y15607D01*
X6587Y15580D01*
X6587Y15461D01*
X6587Y15404D01*
X6586Y15359D01*
X6584Y15325D01*
X6581Y15303D01*
X6578Y15287D01*
X6573Y15271D01*
X6567Y15255D01*
X6559Y15240D01*
X6652Y15240D01*
X6658Y15254D01*
X6663Y15270D01*
X6667Y15287D01*
X6670Y15305D01*
X6670Y15305D01*
X6450Y15240D02*
X6450Y15767D01*
X6369Y15767D01*
X6369Y15687D01*
X6354Y15713D01*
X6340Y15733D01*
X6326Y15750D01*
X6313Y15761D01*
X6299Y15769D01*
X6285Y15774D01*
X6271Y15778D01*
X6255Y15779D01*
X6233Y15777D01*
X6210Y15772D01*
X6187Y15763D01*
X6163Y15750D01*
X6194Y15667D01*
X6211Y15676D01*
X6227Y15682D01*
X6243Y15685D01*
X6260Y15686D01*
X6274Y15685D01*
X6287Y15682D01*
X6300Y15677D01*
X6312Y15669D01*
X6323Y15659D01*
X6332Y15648D01*
X6340Y15635D01*
X6345Y15620D01*
X6352Y15596D01*
X6357Y15570D01*
X6359Y15544D01*
X6360Y15516D01*
X6360Y15240D01*
X6450Y15240D01*
X6450Y15240D01*
X5769Y15240D02*
X5769Y15306D01*
X5809Y15348D01*
X5808Y15349D01*
X5790Y15376D01*
X5777Y15410D01*
X5770Y15450D01*
X5767Y15495D01*
X5770Y15546D01*
X5777Y15589D01*
X5791Y15625D01*
X5809Y15654D01*
X5831Y15676D01*
X5855Y15692D01*
X5882Y15702D01*
X5911Y15705D01*
X5940Y15702D01*
X5966Y15693D01*
X5990Y15677D01*
X6011Y15656D01*
X6028Y15628D01*
X6041Y15594D01*
X6048Y15552D01*
X6051Y15503D01*
X6051Y15503D01*
X6048Y15456D01*
X6040Y15415D01*
X6027Y15380D01*
X6008Y15352D01*
X5986Y15330D01*
X5962Y15314D01*
X5936Y15305D01*
X5907Y15302D01*
X5879Y15305D01*
X5853Y15313D01*
X5830Y15328D01*
X5809Y15348D01*
X5769Y15306D01*
X5797Y15272D01*
X5830Y15248D01*
X5870Y15233D01*
X5916Y15228D01*
X5947Y15230D01*
X5976Y15237D01*
X6005Y15248D01*
X6032Y15263D01*
X6057Y15282D01*
X6079Y15304D01*
X6098Y15330D01*
X6114Y15360D01*
X6126Y15392D01*
X6135Y15427D01*
X6141Y15464D01*
X6143Y15503D01*
X6141Y15541D01*
X6136Y15578D01*
X6128Y15613D01*
X6116Y15646D01*
X6102Y15676D01*
X6083Y15703D01*
X6062Y15726D01*
X6037Y15745D01*
X6010Y15760D01*
X5982Y15770D01*
X5952Y15777D01*
X5920Y15779D01*
X5897Y15778D01*
X5875Y15774D01*
X5854Y15767D01*
X5835Y15759D01*
X5817Y15748D01*
X5801Y15736D01*
X5787Y15722D01*
X5775Y15706D01*
X5775Y15967D01*
X5686Y15967D01*
X5686Y15240D01*
X5769Y15240D01*
X5769Y15240D01*
X5181Y15240D02*
X5264Y15240D01*
X5264Y15967D01*
X5174Y15967D01*
X5174Y15708D01*
X5144Y15739D01*
X5110Y15761D01*
X5072Y15774D01*
X5030Y15779D01*
X5006Y15778D01*
X4983Y15774D01*
X4960Y15768D01*
X4938Y15759D01*
X4917Y15748D01*
X4898Y15736D01*
X4881Y15721D01*
X4866Y15704D01*
X4853Y15685D01*
X4841Y15665D01*
X4831Y15643D01*
X4823Y15619D01*
X4816Y15593D01*
X4811Y15567D01*
X4808Y15539D01*
X4807Y15511D01*
X4811Y15447D01*
X4823Y15391D01*
X4844Y15343D01*
X4874Y15302D01*
X4909Y15270D01*
X4947Y15247D01*
X4989Y15233D01*
X5034Y15228D01*
X5078Y15233D01*
X5118Y15248D01*
X5152Y15272D01*
X5178Y15302D01*
X5133Y15340D01*
X5106Y15319D01*
X5076Y15306D01*
X5042Y15302D01*
X5013Y15305D01*
X4987Y15314D01*
X4963Y15330D01*
X4941Y15352D01*
X4922Y15381D01*
X4909Y15416D01*
X4901Y15457D01*
X4898Y15504D01*
X4900Y15552D01*
X4908Y15594D01*
X4921Y15628D01*
X4939Y15656D01*
X4960Y15678D01*
X4984Y15693D01*
X5010Y15702D01*
X5038Y15705D01*
X5066Y15702D01*
X5092Y15693D01*
X5117Y15677D01*
X5139Y15654D01*
X5158Y15626D01*
X5171Y15592D01*
X5179Y15553D01*
X5182Y15507D01*
X5182Y15507D01*
X5180Y15463D01*
X5175Y15426D01*
X5167Y15395D01*
X5156Y15370D01*
X5133Y15340D01*
X5178Y15302D01*
X5181Y15306D01*
X5181Y15240D01*
X5181Y15240D01*
X4354Y15305D02*
X4379Y15285D01*
X4382Y15283D01*
X4416Y15333D01*
X4400Y15347D01*
X4387Y15364D01*
X4376Y15382D01*
X4370Y15399D01*
X4365Y15420D01*
X4363Y15444D01*
X4362Y15472D01*
X4362Y15504D01*
X4362Y15504D01*
X4389Y15495D01*
X4422Y15486D01*
X4462Y15478D01*
X4507Y15471D01*
X4533Y15467D01*
X4554Y15462D01*
X4572Y15458D01*
X4585Y15453D01*
X4596Y15447D01*
X4606Y15441D01*
X4614Y15433D01*
X4621Y15424D01*
X4626Y15414D01*
X4630Y15404D01*
X4632Y15393D01*
X4633Y15381D01*
X4631Y15364D01*
X4626Y15349D01*
X4618Y15335D01*
X4606Y15322D01*
X4591Y15311D01*
X4573Y15304D01*
X4551Y15300D01*
X4527Y15298D01*
X4502Y15299D01*
X4478Y15304D01*
X4456Y15311D01*
X4435Y15321D01*
X4416Y15333D01*
X4382Y15283D01*
X4403Y15269D01*
X4427Y15256D01*
X4450Y15245D01*
X4473Y15238D01*
X4497Y15232D01*
X4522Y15229D01*
X4548Y15228D01*
X4589Y15231D01*
X4625Y15239D01*
X4656Y15252D01*
X4682Y15271D01*
X4702Y15293D01*
X4717Y15319D01*
X4725Y15347D01*
X4728Y15379D01*
X4727Y15398D01*
X4724Y15416D01*
X4718Y15433D01*
X4711Y15450D01*
X4701Y15465D01*
X4690Y15478D01*
X4678Y15490D01*
X4664Y15501D01*
X4650Y15510D01*
X4634Y15518D01*
X4618Y15525D01*
X4600Y15530D01*
X4585Y15534D01*
X4567Y15537D01*
X4546Y15540D01*
X4521Y15544D01*
X4470Y15550D01*
X4427Y15558D01*
X4391Y15566D01*
X4362Y15574D01*
X4361Y15583D01*
X4361Y15589D01*
X4361Y15594D01*
X4361Y15598D01*
X4363Y15623D01*
X4367Y15644D01*
X4375Y15661D01*
X4386Y15675D01*
X4406Y15688D01*
X4429Y15697D01*
X4456Y15703D01*
X4488Y15705D01*
X4518Y15703D01*
X4543Y15699D01*
X4564Y15692D01*
X4581Y15683D01*
X4595Y15670D01*
X4607Y15652D01*
X4617Y15631D01*
X4626Y15605D01*
X4713Y15617D01*
X4706Y15643D01*
X4697Y15667D01*
X4686Y15688D01*
X4674Y15707D01*
X4659Y15723D01*
X4640Y15738D01*
X4619Y15750D01*
X4595Y15760D01*
X4568Y15768D01*
X4539Y15774D01*
X4508Y15778D01*
X4475Y15779D01*
X4443Y15778D01*
X4414Y15775D01*
X4388Y15770D01*
X4366Y15763D01*
X4346Y15754D01*
X4329Y15745D01*
X4315Y15734D01*
X4304Y15723D01*
X4294Y15710D01*
X4287Y15696D01*
X4281Y15680D01*
X4276Y15662D01*
X4274Y15648D01*
X4272Y15630D01*
X4272Y15607D01*
X4271Y15580D01*
X4271Y15461D01*
X4271Y15404D01*
X4270Y15359D01*
X4268Y15325D01*
X4266Y15303D01*
X4262Y15287D01*
X4257Y15271D01*
X4251Y15255D01*
X4243Y15240D01*
X4336Y15240D01*
X4343Y15254D01*
X4348Y15270D01*
X4352Y15287D01*
X4354Y15305D01*
X4354Y15305D01*
X4134Y15240D02*
X4134Y15767D01*
X4054Y15767D01*
X4054Y15687D01*
X4038Y15713D01*
X4024Y15733D01*
X4010Y15750D01*
X3997Y15761D01*
X3983Y15769D01*
X3969Y15774D01*
X3955Y15778D01*
X3939Y15779D01*
X3917Y15777D01*
X3894Y15772D01*
X3871Y15763D01*
X3848Y15750D01*
X3878Y15667D01*
X3895Y15676D01*
X3911Y15682D01*
X3928Y15685D01*
X3944Y15686D01*
X3958Y15685D01*
X3972Y15682D01*
X3984Y15677D01*
X3996Y15669D01*
X4007Y15659D01*
X4016Y15648D01*
X4024Y15635D01*
X4030Y15620D01*
X4036Y15596D01*
X4041Y15570D01*
X4044Y15544D01*
X4045Y15516D01*
X4045Y15240D01*
X4134Y15240D01*
X4134Y15240D01*
X3796Y15240D02*
X3796Y15767D01*
X3715Y15767D01*
X3715Y15687D01*
X3700Y15713D01*
X3686Y15733D01*
X3672Y15750D01*
X3658Y15761D01*
X3645Y15769D01*
X3631Y15774D01*
X3616Y15778D01*
X3601Y15779D01*
X3578Y15777D01*
X3556Y15772D01*
X3533Y15763D01*
X3509Y15750D01*
X3540Y15667D01*
X3556Y15676D01*
X3573Y15682D01*
X3589Y15685D01*
X3606Y15686D01*
X3620Y15685D01*
X3633Y15682D01*
X3646Y15677D01*
X3658Y15669D01*
X3669Y15659D01*
X3678Y15648D01*
X3686Y15635D01*
X3691Y15620D01*
X3698Y15596D01*
X3703Y15570D01*
X3705Y15544D01*
X3706Y15516D01*
X3706Y15240D01*
X3796Y15240D01*
X3796Y15240D01*
X3096Y15410D02*
X3003Y15398D01*
X3017Y15360D01*
X3034Y15326D01*
X3057Y15297D01*
X3084Y15273D01*
X3116Y15253D01*
X3151Y15239D01*
X3191Y15231D01*
X3235Y15228D01*
X3290Y15233D01*
X3339Y15246D01*
X3381Y15268D01*
X3418Y15299D01*
X3448Y15338D01*
X3469Y15385D01*
X3482Y15438D01*
X3486Y15499D01*
X3482Y15562D01*
X3469Y15617D01*
X3448Y15665D01*
X3418Y15705D01*
X3381Y15737D01*
X3339Y15760D01*
X3292Y15774D01*
X3240Y15779D01*
X3233Y15778D01*
X3239Y15705D01*
X3269Y15703D01*
X3296Y15695D01*
X3320Y15682D01*
X3342Y15664D01*
X3361Y15642D01*
X3375Y15616D01*
X3384Y15587D01*
X3389Y15554D01*
X3389Y15554D01*
X3095Y15554D01*
X3099Y15585D01*
X3106Y15612D01*
X3116Y15635D01*
X3128Y15654D01*
X3151Y15676D01*
X3177Y15692D01*
X3207Y15702D01*
X3239Y15705D01*
X3233Y15778D01*
X3190Y15774D01*
X3144Y15761D01*
X3103Y15738D01*
X3067Y15707D01*
X3038Y15667D01*
X3017Y15620D01*
X3005Y15566D01*
X3000Y15504D01*
X3000Y15500D01*
X3000Y15494D01*
X3001Y15488D01*
X3001Y15481D01*
X3394Y15481D01*
X3389Y15440D01*
X3379Y15404D01*
X3364Y15373D01*
X3345Y15348D01*
X3321Y15327D01*
X3295Y15313D01*
X3266Y15304D01*
X3235Y15302D01*
X3211Y15303D01*
X3189Y15308D01*
X3169Y15316D01*
X3151Y15327D01*
X3134Y15342D01*
X3120Y15361D01*
X3107Y15383D01*
X3096Y15410D01*
X3096Y15410D01*
X2893Y15240D02*
X2893Y15967D01*
X2804Y15967D01*
X2804Y15240D01*
X2893Y15240D01*
X2893Y15240D01*
G37*
M02*