<?xml-stylesheet href="https://s3.amazonaws.com/maker.works.boards/css/blackpcb.css" type="text/css"?><svg xmlns="http://www.w3.org/2000/svg" version="1.1" xmlns:xlink="http://www.w3.org/1999/xlink" stroke-width="0" stroke-linecap="round" stroke-linejoin="round" width="1.2598in" height="0.6496000000000001in" id="pcb_bottom" viewBox="7.5 7.5 1259.8 649.6"><defs><circle cx="0" cy="0" r="17.5" id="tool-T10-pad-1000"/><circle cx="0" cy="0" r="64" id="tool-T11-pad-1001"/><circle cx="0" cy="0" r="17.5" id="tool-T12-pad-1002"/><circle cx="0" cy="0" r="63" id="tool-T13-pad-1003"/><circle cx="0" cy="0" r="29.35" id="tool-D11-pad-1005"/><circle cx="0" cy="0" r="29.55" id="tool-D12-pad-1006"/><circle cx="0" cy="0" r="29.35" id="tool-D10-pad-1008"/><circle cx="0" cy="0" r="29.55" id="tool-D11-pad-1009"/><g id="pcb_bottom-cu" fill="currentColor" stroke="currentColor"><path stroke-width="20" fill="none" d="M 458.5 466.4 L 499.6 507.5 M 499.6 507.5 L 637.4 507.5 M 458.5 407.3 L 458.5 466.4 M 637.4 507.5 L 822.7 322.3 M 558.5 457.3 L 808.5 207.3"/><use x="822.7" y="207.3" xlink:href="#tool-D11-pad-1005"/><use x="822.7" y="307.3" xlink:href="#tool-D11-pad-1005"/><use x="822.7" y="407.3" xlink:href="#tool-D11-pad-1005"/><use x="822.7" y="507.3" xlink:href="#tool-D11-pad-1005"/><use x="922.7" y="457.3" xlink:href="#tool-D11-pad-1005"/><use x="922.7" y="357.3" xlink:href="#tool-D11-pad-1005"/><use x="922.7" y="257.3" xlink:href="#tool-D11-pad-1005"/><use x="922.7" y="157.3" xlink:href="#tool-D11-pad-1005"/><use x="558.5" y="457.3" xlink:href="#tool-D12-pad-1006"/><use x="558.5" y="357.3" xlink:href="#tool-D12-pad-1006"/><use x="558.5" y="257.3" xlink:href="#tool-D12-pad-1006"/><use x="458.5" y="207.3" xlink:href="#tool-D12-pad-1006"/><use x="458.5" y="307.3" xlink:href="#tool-D12-pad-1006"/><use x="458.5" y="407.3" xlink:href="#tool-D12-pad-1006"/></g><mask id="pcb_bottom_mech-mask" fill="#fff" stroke="#fff" fill-rule="evenodd"><path stroke-width="0" d="M 7.5 7.5 L 7.5 657.1 L 1267.3 657.1 L 1267.3 7.5 Z"/><g id="pcb_bottom-drl" fill="#000" stroke="#000"><use x="822.7" y="207.3" xlink:href="#tool-T10-pad-1000"/><use x="822.7" y="307.3" xlink:href="#tool-T10-pad-1000"/><use x="822.7" y="407.3" xlink:href="#tool-T10-pad-1000"/><use x="822.7" y="507.3" xlink:href="#tool-T10-pad-1000"/><use x="922.7" y="457.3" xlink:href="#tool-T10-pad-1000"/><use x="922.7" y="357.3" xlink:href="#tool-T10-pad-1000"/><use x="922.7" y="257.3" xlink:href="#tool-T10-pad-1000"/><use x="922.7" y="157.3" xlink:href="#tool-T10-pad-1000"/><use x="1172.7" y="107.3" xlink:href="#tool-T11-pad-1001"/><use x="1172.7" y="557.3" xlink:href="#tool-T11-pad-1001"/><use x="558.5" y="457.3" xlink:href="#tool-T12-pad-1002"/><use x="558.5" y="357.3" xlink:href="#tool-T12-pad-1002"/><use x="558.5" y="257.3" xlink:href="#tool-T12-pad-1002"/><use x="458.5" y="207.3" xlink:href="#tool-T12-pad-1002"/><use x="458.5" y="307.3" xlink:href="#tool-T12-pad-1002"/><use x="458.5" y="407.3" xlink:href="#tool-T12-pad-1002"/><use x="208.5" y="532.3" xlink:href="#tool-T13-pad-1003"/><use x="208.5" y="132.3" xlink:href="#tool-T13-pad-1003"/></g></mask></defs><g mask="url(#pcb_bottom_mech-mask)" transform="translate(1274.8,664.6) scale(-1,-1)"><rect x="7.5" y="7.5" width="1259.8" height="649.6" fill="currentColor" class="pcb_board-fr4"/><use class="pcb_board-cu" xlink:href="#pcb_bottom-cu"/><g><defs><g id="pcb_bottom-sm" fill="currentColor" stroke="currentColor"><use x="822.7" y="207.3" xlink:href="#tool-D10-pad-1008"/><use x="822.7" y="307.3" xlink:href="#tool-D10-pad-1008"/><use x="822.7" y="407.3" xlink:href="#tool-D10-pad-1008"/><use x="822.7" y="507.3" xlink:href="#tool-D10-pad-1008"/><use x="922.7" y="457.3" xlink:href="#tool-D10-pad-1008"/><use x="922.7" y="357.3" xlink:href="#tool-D10-pad-1008"/><use x="922.7" y="257.3" xlink:href="#tool-D10-pad-1008"/><use x="922.7" y="157.3" xlink:href="#tool-D10-pad-1008"/><use x="558.5" y="457.3" xlink:href="#tool-D11-pad-1009"/><use x="558.5" y="357.3" xlink:href="#tool-D11-pad-1009"/><use x="558.5" y="257.3" xlink:href="#tool-D11-pad-1009"/><use x="458.5" y="207.3" xlink:href="#tool-D11-pad-1009"/><use x="458.5" y="307.3" xlink:href="#tool-D11-pad-1009"/><use x="458.5" y="407.3" xlink:href="#tool-D11-pad-1009"/></g><mask id="pcb_bottom-sm_mask" color="#000"><rect x="7.5" y="7.5" width="1259.8" height="649.6" fill="#fff"/><use xlink:href="#pcb_bottom-sm"/></mask><mask id="pcb_bottom-cu_finish-mask" color="#fff"><use xlink:href="#pcb_bottom-cu"/></mask></defs><g mask="url(#pcb_bottom-sm_mask)"><rect x="7.5" y="7.5" width="1259.8" height="649.6" fill="currentColor" class="pcb_board-sm"/><g id="pcb_bottom-ss" class="pcb_board-ss" fill="currentColor" stroke="currentColor"><path stroke-width="8" fill="none" d="M 329.7 361.2 L 329.7 361.2 M 329.7 361.2 L 329.5 360 M 329.5 360 L 329.1 358.9 M 329.1 358.9 L 328.6 357.9 M 328.6 357.9 L 327.9 356.9 M 327.9 356.9 L 327.1 356.1 M 327.1 356.1 L 326.2 355.4 M 326.2 355.4 L 325.1 354.7 M 325.1 354.7 L 324 354.2 M 324 354.2 L 322.7 353.9 M 322.7 353.9 L 321.5 353.7 M 321.5 353.7 L 320.2 353.6 M 320.2 353.6 L 318.3 353.8 M 318.3 353.8 L 316.6 354.2 M 316.6 354.2 L 315 354.9 M 315 354.9 L 313.6 356 M 313.6 356 L 312.5 357.3 M 312.5 357.3 L 311.7 358.7 M 311.7 358.7 L 311.2 360.2 M 311.2 360.2 L 311.1 361.9 M 311.1 361.9 L 311.2 362.9 M 311.2 362.9 L 311.3 363.8 M 311.3 363.8 L 311.6 364.7 M 311.6 364.7 L 312 365.7 M 312 365.7 L 312.5 366.6 M 312.5 366.6 L 313.2 367.3 M 313.2 367.3 L 314 368.1 M 314 368.1 L 314.8 368.7 M 314.8 368.7 L 314.8 368.8 M 314.8 368.8 L 312.8 368.7 M 312.8 368.7 L 312.8 368.7 M 312.8 368.7 L 311.1 368.5 M 311.1 368.5 L 311.1 368.5 M 311.1 368.5 L 309.5 368.2 M 309.5 368.2 L 309.5 368.2 M 309.5 368.2 L 308.3 367.8 M 308.3 367.8 L 308.3 367.8 M 308.3 367.8 L 307.2 367.3 M 307.2 367.3 L 307.2 367.3 M 307.2 367.3 L 306.3 366.7 M 306.3 366.7 L 306.3 366.7 M 306.3 366.7 L 305.5 366 M 305.5 366 L 305.5 366 M 305.5 366 L 304.8 365.2 M 304.8 365.2 L 304.8 365.2 M 304.8 365.2 L 304.4 364.5 M 304.4 364.5 L 304.4 364.5 M 304.4 364.5 L 304.1 363.8 M 304.1 363.8 L 304.1 363.8 M 304.1 363.8 L 303.9 363.1 M 303.9 363.1 L 303.9 363.1 M 303.9 363.1 L 303.9 362.3 M 303.9 362.3 L 303.9 362.3 M 303.9 362.3 L 304 361.3 M 304 361.3 L 304 361.3 M 304 361.3 L 304.2 360.4 M 304.2 360.4 L 304.2 360.4 M 304.2 360.4 L 304.7 359.5 M 304.7 359.5 L 304.7 359.5 M 304.7 359.5 L 305.4 358.8 M 305.4 358.8 L 305.4 358.8 M 305.4 358.8 L 305.9 358.4 M 305.9 358.4 L 305.9 358.4 M 305.9 358.4 L 306.6 358.1 M 306.6 358.1 L 306.6 358.1 M 306.6 358.1 L 307.4 357.7 M 307.4 357.7 L 307.4 357.7 M 307.4 357.7 L 308.3 357.5 M 308.3 357.5 L 308.1 354.1 M 308.1 354.1 L 306.5 354.4 M 306.5 354.4 L 305.1 354.9 M 305.1 354.9 L 304 355.7 M 304 355.7 L 302.9 356.6 M 302.9 356.6 L 302.1 357.8 M 302.1 357.8 L 301.6 359 M 301.6 359 L 301.2 360.5 M 301.2 360.5 L 301.1 362.1 M 301.1 362.1 L 301.3 364.2 M 301.3 364.2 L 301.9 366.1 M 301.9 366.1 L 302.9 367.7 M 302.9 367.7 L 304.3 369.2 M 304.3 369.2 L 306.4 370.5 M 306.4 370.5 L 309.1 371.4 M 309.1 371.4 L 312.3 372 M 312.3 372 L 316.2 372.1 M 316.2 372.1 L 319.5 372 M 319.5 372 L 322.4 371.5 M 322.4 371.5 L 324.8 370.6 M 324.8 370.6 L 326.6 369.4 M 326.6 369.4 L 328 368 M 328 368 L 329 366.3 M 329 366.3 L 329.6 364.5 M 329.6 364.5 L 329.8 362.4 M 329.8 362.4 L 329.7 361.2 M 320.2 368.2 L 320.2 368.2 M 320.2 368.2 L 321.1 368.2 M 321.1 368.2 L 322 368 M 322 368 L 322.8 367.8 M 322.8 367.8 L 323.6 367.5 M 323.6 367.5 L 324.4 367 M 324.4 367 L 325.1 366.5 M 325.1 366.5 L 325.6 366 M 325.6 366 L 326.1 365.3 M 326.1 365.3 L 326.5 364.6 M 326.5 364.6 L 326.8 363.9 M 326.8 363.9 L 326.9 363.2 M 326.9 363.2 L 327 362.5 M 327 362.5 L 326.9 361.4 M 326.9 361.4 L 326.6 360.4 M 326.6 360.4 L 326 359.5 M 326 359.5 L 325.2 358.7 M 325.2 358.7 L 324.3 358 M 324.3 358 L 323.1 357.5 M 323.1 357.5 L 321.9 357.2 M 321.9 357.2 L 320.4 357.1 M 320.4 357.1 L 319 357.2 M 319 357.2 L 317.8 357.5 M 317.8 357.5 L 316.7 358 M 316.7 358 L 315.8 358.7 M 315.8 358.7 L 315.1 359.5 M 315.1 359.5 L 314.5 360.4 M 314.5 360.4 L 314.2 361.4 M 314.2 361.4 L 314.1 362.6 M 314.1 362.6 L 314.2 363.7 M 314.2 363.7 L 314.5 364.7 M 314.5 364.7 L 315.1 365.7 M 315.1 365.7 L 315.8 366.6 M 315.8 366.6 L 316.7 367.3 M 316.7 367.3 L 317.7 367.8 M 317.7 367.8 L 318.9 368.1 M 318.9 368.1 L 320.2 368.2 M 317.4 329 L 317.4 329 M 317.4 329 L 317.4 339.5 M 317.4 339.5 L 320.9 339.5 M 320.9 339.5 L 320.9 329 M 320.9 329 L 317.4 329 M 329.7 304.3 L 329.7 304.3 M 329.7 304.3 L 329.5 303.1 M 329.5 303.1 L 329.1 302 M 329.1 302 L 328.6 301 M 328.6 301 L 327.9 300.1 M 327.9 300.1 L 327.1 299.2 M 327.1 299.2 L 326.2 298.5 M 326.2 298.5 L 325.1 297.9 M 325.1 297.9 L 324 297.3 M 324 297.3 L 322.7 297 M 322.7 297 L 321.5 296.8 M 321.5 296.8 L 320.2 296.7 M 320.2 296.7 L 318.3 296.9 M 318.3 296.9 L 316.6 297.3 M 316.6 297.3 L 315 298.1 M 315 298.1 L 313.6 299.2 M 313.6 299.2 L 312.5 300.4 M 312.5 300.4 L 311.7 301.8 M 311.7 301.8 L 311.2 303.4 M 311.2 303.4 L 311.1 305 M 311.1 305 L 311.2 306 M 311.2 306 L 311.3 306.9 M 311.3 306.9 L 311.6 307.9 M 311.6 307.9 L 312 308.8 M 312 308.8 L 312.5 309.7 M 312.5 309.7 L 313.2 310.5 M 313.2 310.5 L 314 311.2 M 314 311.2 L 314.8 311.8 M 314.8 311.8 L 314.8 311.9 M 314.8 311.9 L 312.8 311.8 M 312.8 311.8 L 312.8 311.8 M 312.8 311.8 L 311.1 311.6 M 311.1 311.6 L 311.1 311.6 M 311.1 311.6 L 309.5 311.3 M 309.5 311.3 L 309.5 311.3 M 309.5 311.3 L 308.3 310.9 M 308.3 310.9 L 308.3 310.9 M 308.3 310.9 L 307.2 310.4 M 307.2 310.4 L 307.2 310.4 M 307.2 310.4 L 306.3 309.8 M 306.3 309.8 L 306.3 309.8 M 306.3 309.8 L 305.5 309.1 M 305.5 309.1 L 305.5 309.1 M 305.5 309.1 L 304.8 308.3 M 304.8 308.3 L 304.8 308.3 M 304.8 308.3 L 304.4 307.7 M 304.4 307.7 L 304.4 307.7 M 304.4 307.7 L 304.1 306.9 M 304.1 306.9 L 304.1 306.9 M 304.1 306.9 L 303.9 306.2 M 303.9 306.2 L 303.9 306.2 M 303.9 306.2 L 303.9 305.4 M 303.9 305.4 L 303.9 305.4 M 303.9 305.4 L 304 304.4 M 304 304.4 L 304 304.4 M 304 304.4 L 304.2 303.5 M 304.2 303.5 L 304.2 303.5 M 304.2 303.5 L 304.7 302.7 M 304.7 302.7 L 304.7 302.7 M 304.7 302.7 L 305.4 301.9 M 305.4 301.9 L 305.4 301.9 M 305.4 301.9 L 305.9 301.5 M 305.9 301.5 L 305.9 301.5 M 305.9 301.5 L 306.6 301.2 M 306.6 301.2 L 306.6 301.2 M 306.6 301.2 L 307.4 300.9 M 307.4 300.9 L 307.4 300.9 M 307.4 300.9 L 308.3 300.6 M 308.3 300.6 L 308.1 297.2 M 308.1 297.2 L 306.5 297.5 M 306.5 297.5 L 305.1 298.1 M 305.1 298.1 L 304 298.8 M 304 298.8 L 302.9 299.7 M 302.9 299.7 L 302.1 300.9 M 302.1 300.9 L 301.6 302.2 M 301.6 302.2 L 301.2 303.6 M 301.2 303.6 L 301.1 305.2 M 301.1 305.2 L 301.3 307.3 M 301.3 307.3 L 301.9 309.2 M 301.9 309.2 L 302.9 310.8 M 302.9 310.8 L 304.3 312.3 M 304.3 312.3 L 306.4 313.6 M 306.4 313.6 L 309.1 314.5 M 309.1 314.5 L 312.3 315.1 M 312.3 315.1 L 316.2 315.3 M 316.2 315.3 L 319.5 315.1 M 319.5 315.1 L 322.4 314.6 M 322.4 314.6 L 324.8 313.8 M 324.8 313.8 L 326.6 312.5 M 326.6 312.5 L 328 311.1 M 328 311.1 L 329 309.4 M 329 309.4 L 329.6 307.6 M 329.6 307.6 L 329.8 305.5 M 329.8 305.5 L 329.7 304.3 M 320.2 311.3 L 320.2 311.3 M 320.2 311.3 L 321.1 311.3 M 321.1 311.3 L 322 311.1 M 322 311.1 L 322.8 310.9 M 322.8 310.9 L 323.6 310.6 M 323.6 310.6 L 324.4 310.1 M 324.4 310.1 L 325.1 309.7 M 325.1 309.7 L 325.6 309.1 M 325.6 309.1 L 326.1 308.4 M 326.1 308.4 L 326.5 307.7 M 326.5 307.7 L 326.8 307 M 326.8 307 L 326.9 306.3 M 326.9 306.3 L 327 305.6 M 327 305.6 L 326.9 304.5 M 326.9 304.5 L 326.6 303.5 M 326.6 303.5 L 326 302.6 M 326 302.6 L 325.2 301.8 M 325.2 301.8 L 324.3 301.1 M 324.3 301.1 L 323.1 300.6 M 323.1 300.6 L 321.9 300.3 M 321.9 300.3 L 320.4 300.2 M 320.4 300.2 L 319 300.3 M 319 300.3 L 317.8 300.6 M 317.8 300.6 L 316.7 301.1 M 316.7 301.1 L 315.8 301.8 M 315.8 301.8 L 315.1 302.6 M 315.1 302.6 L 314.5 303.5 M 314.5 303.5 L 314.2 304.6 M 314.2 304.6 L 314.1 305.7 M 314.1 305.7 L 314.2 306.8 M 314.2 306.8 L 314.5 307.9 M 314.5 307.9 L 315.1 308.8 M 315.1 308.8 L 315.8 309.7 M 315.8 309.7 L 316.7 310.4 M 316.7 310.4 L 317.7 310.9 M 317.7 310.9 L 318.9 311.2 M 318.9 311.2 L 320.2 311.3 M 92.3 175.1 L 92.3 175.1 M 92.3 175.1 L 92.3 159.2 M 92.3 159.2 L 87.1 159.2 M 87.1 159.2 L 87.1 175.1 M 87.1 175.1 L 92.3 175.1 M 92.3 194.7 L 92.3 194.7 M 92.3 194.7 L 92.3 178.8 M 92.3 178.8 L 87.1 178.8 M 87.1 178.8 L 87.1 194.7 M 87.1 194.7 L 92.3 194.7 M 92.3 214.4 L 92.3 214.4 M 92.3 214.4 L 92.3 198.5 M 92.3 198.5 L 87.1 198.5 M 87.1 198.5 L 87.1 214.4 M 87.1 214.4 L 92.3 214.4 M 92.3 234.1 L 92.3 234.1 M 92.3 234.1 L 92.3 218.2 M 92.3 218.2 L 87.1 218.2 M 87.1 218.2 L 87.1 234.1 M 87.1 234.1 L 92.3 234.1 M 92.3 253.8 L 92.3 253.8 M 92.3 253.8 L 92.3 237.9 M 92.3 237.9 L 87.1 237.9 M 87.1 237.9 L 87.1 253.8 M 87.1 253.8 L 92.3 253.8 M 92.3 273.4 L 92.3 273.4 M 92.3 273.4 L 92.3 257.5 M 92.3 257.5 L 87.1 257.5 M 87.1 257.5 L 87.1 273.4 M 87.1 273.4 L 92.3 273.4 M 92.3 293.1 L 92.3 293.1 M 92.3 293.1 L 92.3 277.2 M 92.3 277.2 L 87.1 277.2 M 87.1 277.2 L 87.1 293.1 M 87.1 293.1 L 92.3 293.1 M 92.3 312.7 L 92.3 312.7 M 92.3 312.7 L 92.3 296.8 M 92.3 296.8 L 87.1 296.8 M 87.1 296.8 L 87.1 312.7 M 87.1 312.7 L 92.3 312.7 M 92.3 332.4 L 92.3 332.4 M 92.3 332.4 L 92.3 316.5 M 92.3 316.5 L 87.1 316.5 M 87.1 316.5 L 87.1 332.4 M 87.1 332.4 L 92.3 332.4 M 92.3 352.1 L 92.3 352.1 M 92.3 352.1 L 92.3 336.2 M 92.3 336.2 L 87.1 336.2 M 87.1 336.2 L 87.1 352.1 M 87.1 352.1 L 92.3 352.1 M 92.3 371.8 L 92.3 371.8 M 92.3 371.8 L 92.3 355.8 M 92.3 355.8 L 87.1 355.8 M 87.1 355.8 L 87.1 371.8 M 87.1 371.8 L 92.3 371.8 M 92.3 391.4 L 92.3 391.4 M 92.3 391.4 L 92.3 375.5 M 92.3 375.5 L 87.1 375.5 M 87.1 375.5 L 87.1 391.4 M 87.1 391.4 L 92.3 391.4 M 92.3 411.1 L 92.3 411.1 M 92.3 411.1 L 92.3 395.2 M 92.3 395.2 L 87.1 395.2 M 87.1 395.2 L 87.1 411.1 M 87.1 411.1 L 92.3 411.1 M 92.3 430.7 L 92.3 430.7 M 92.3 430.7 L 92.3 414.8 M 92.3 414.8 L 87.1 414.8 M 87.1 414.8 L 87.1 430.7 M 87.1 430.7 L 92.3 430.7 M 92.3 450.4 L 92.3 450.4 M 92.3 450.4 L 92.3 434.5 M 92.3 434.5 L 87.1 434.5 M 87.1 434.5 L 87.1 450.4 M 87.1 450.4 L 92.3 450.4 M 92.3 470.1 L 92.3 470.1 M 92.3 470.1 L 92.3 454.2 M 92.3 454.2 L 87.1 454.2 M 87.1 454.2 L 87.1 470.1 M 87.1 470.1 L 92.3 470.1 M 92.3 489.7 L 92.3 489.7 M 92.3 489.7 L 92.3 473.8 M 92.3 473.8 L 87.1 473.8 M 87.1 473.8 L 87.1 489.7 M 87.1 489.7 L 92.3 489.7 M 92.3 509.4 L 92.3 509.4 M 92.3 509.4 L 92.3 493.5 M 92.3 493.5 L 87.1 493.5 M 87.1 493.5 L 87.1 509.4 M 87.1 509.4 L 92.3 509.4 M 290.2 360.8 L 290.2 360.8 M 290.2 360.8 L 289.6 358.8 M 289.6 358.8 L 288.5 357.1 M 288.5 357.1 L 287 355.6 M 287 355.6 L 285.6 354.6 M 285.6 354.6 L 284 353.9 M 284 353.9 L 282.3 353.5 M 282.3 353.5 L 280.4 353.4 M 280.4 353.4 L 278.5 353.5 M 278.5 353.5 L 276.8 354 M 276.8 354 L 275.2 354.8 M 275.2 354.8 L 273.9 355.9 M 273.9 355.9 L 272.7 357.2 M 272.7 357.2 L 271.9 358.7 M 271.9 358.7 L 271.5 360.3 M 271.5 360.3 L 271.3 362.1 M 271.3 362.1 L 271.4 363.5 M 271.4 363.5 L 271.8 364.8 M 271.8 364.8 L 272.3 366.1 M 272.3 366.1 L 273.1 367.4 M 273.1 367.4 L 273.1 367.5 M 273.1 367.5 L 265.5 365.9 M 265.5 365.9 L 265.5 365.9 M 265.5 365.9 L 265.5 354.7 M 265.5 354.7 L 262.2 354.7 M 262.2 354.7 L 262.2 368.7 M 262.2 368.7 L 276.6 371.4 M 276.6 371.4 L 277.1 368.2 M 277.1 368.2 L 276.5 367.8 M 276.5 367.8 L 276.5 367.8 M 276.5 367.8 L 276 367.3 M 276 367.3 L 276 367.3 M 276 367.3 L 275.5 366.7 M 275.5 366.7 L 275.5 366.7 M 275.5 366.7 L 275.1 366 M 275.1 366 L 275.1 366 M 275.1 366 L 274.7 365.4 M 274.7 365.4 L 274.7 365.4 M 274.7 365.4 L 274.5 364.6 M 274.5 364.6 L 274.5 364.6 M 274.5 364.6 L 274.4 363.8 M 274.4 363.8 L 274.4 363.8 M 274.4 363.8 L 274.4 363 M 274.4 363 L 274.4 363 M 274.4 363 L 274.4 361.8 M 274.4 361.8 L 274.4 361.8 M 274.4 361.8 L 274.7 360.6 M 274.7 360.6 L 274.7 360.6 M 274.7 360.6 L 275.3 359.5 M 275.3 359.5 L 275.3 359.5 M 275.3 359.5 L 276 358.7 M 276 358.7 L 276 358.6 M 276 358.6 L 277 357.9 M 277 357.9 L 277 357.9 M 277 357.9 L 278.1 357.4 M 278.1 357.4 L 278.1 357.4 M 278.1 357.4 L 279.3 357.1 M 279.3 357.1 L 279.3 357.1 M 279.3 357.1 L 280.7 357 M 280.7 357 L 280.7 357 M 280.7 357 L 282.2 357.1 M 282.2 357.1 L 282.2 357.1 M 282.2 357.1 L 283.6 357.4 M 283.6 357.4 L 283.6 357.4 M 283.6 357.4 L 284.7 358 M 284.7 358 L 284.7 358 M 284.7 358 L 285.7 358.7 M 285.7 358.7 L 285.7 358.7 M 285.7 358.7 L 286.6 359.6 M 286.6 359.6 L 286.6 359.6 M 286.6 359.6 L 287.1 360.6 M 287.1 360.6 L 287.1 360.6 M 287.1 360.6 L 287.5 361.8 M 287.5 361.8 L 287.5 361.8 M 287.5 361.8 L 287.6 363 M 287.6 363 L 287.6 363 M 287.6 363 L 287.5 364 M 287.5 364 L 287.5 364 M 287.5 364 L 287.3 364.9 M 287.3 364.9 L 287.3 364.9 M 287.3 364.9 L 286.9 365.8 M 286.9 365.8 L 286.9 365.8 M 286.9 365.8 L 286.3 366.5 M 286.3 366.5 L 286.3 366.5 M 286.3 366.5 L 285.5 367.2 M 285.5 367.2 L 285.5 367.2 M 285.5 367.2 L 284.6 367.7 M 284.6 367.7 L 284.6 367.7 M 284.6 367.7 L 283.5 368.1 M 283.5 368.1 L 283.5 368.1 M 283.5 368.1 L 282.3 368.4 M 282.3 368.4 L 282.6 372 M 282.6 372 L 284.3 371.7 M 284.3 371.7 L 285.8 371.1 M 285.8 371.1 L 287.1 370.3 M 287.1 370.3 L 288.3 369.2 M 288.3 369.2 L 289.2 367.9 M 289.2 367.9 L 289.9 366.5 M 289.9 366.5 L 290.3 364.8 M 290.3 364.8 L 290.5 363 M 290.5 363 L 290.2 360.8 M 278.1 329 L 278.1 329 M 278.1 329 L 278.1 339.5 M 278.1 339.5 L 281.5 339.5 M 281.5 339.5 L 281.5 329 M 281.5 329 L 278.1 329 M 290.2 303.9 L 290.2 303.9 M 290.2 303.9 L 289.6 301.9 M 289.6 301.9 L 288.5 300.2 M 288.5 300.2 L 287 298.7 M 287 298.7 L 285.6 297.7 M 285.6 297.7 L 284 297 M 284 297 L 282.3 296.6 M 282.3 296.6 L 280.4 296.5 M 280.4 296.5 L 278.5 296.6 M 278.5 296.6 L 276.8 297.1 M 276.8 297.1 L 275.2 297.9 M 275.2 297.9 L 273.9 299 M 273.9 299 L 272.7 300.3 M 272.7 300.3 L 271.9 301.8 M 271.9 301.8 L 271.5 303.4 M 271.5 303.4 L 271.3 305.2 M 271.3 305.2 L 271.4 306.6 M 271.4 306.6 L 271.8 307.9 M 271.8 307.9 L 272.3 309.3 M 272.3 309.3 L 273.1 310.5 M 273.1 310.5 L 273.1 310.6 M 273.1 310.6 L 265.5 309 M 265.5 309 L 265.5 309 M 265.5 309 L 265.5 297.8 M 265.5 297.8 L 262.2 297.8 M 262.2 297.8 L 262.2 311.8 M 262.2 311.8 L 276.6 314.5 M 276.6 314.5 L 277.1 311.3 M 277.1 311.3 L 276.5 310.9 M 276.5 310.9 L 276.5 310.9 M 276.5 310.9 L 276 310.4 M 276 310.4 L 276 310.4 M 276 310.4 L 275.5 309.8 M 275.5 309.8 L 275.5 309.8 M 275.5 309.8 L 275.1 309.2 M 275.1 309.2 L 275.1 309.2 M 275.1 309.2 L 274.7 308.5 M 274.7 308.5 L 274.7 308.5 M 274.7 308.5 L 274.5 307.7 M 274.5 307.7 L 274.5 307.7 M 274.5 307.7 L 274.4 306.9 M 274.4 306.9 L 274.4 306.9 M 274.4 306.9 L 274.4 306.2 M 274.4 306.2 L 274.4 306.2 M 274.4 306.2 L 274.4 304.9 M 274.4 304.9 L 274.4 304.9 M 274.4 304.9 L 274.7 303.7 M 274.7 303.7 L 274.7 303.7 M 274.7 303.7 L 275.3 302.7 M 275.3 302.7 L 275.3 302.7 M 275.3 302.7 L 276 301.8 M 276 301.8 L 276 301.8 M 276 301.8 L 277 301 M 277 301 L 277 301 M 277 301 L 278.1 300.5 M 278.1 300.5 L 278.1 300.5 M 278.1 300.5 L 279.3 300.2 M 279.3 300.2 L 279.3 300.2 M 279.3 300.2 L 280.7 300.1 M 280.7 300.1 L 280.7 300.1 M 280.7 300.1 L 282.2 300.2 M 282.2 300.2 L 282.2 300.2 M 282.2 300.2 L 283.6 300.5 M 283.6 300.5 L 283.6 300.5 M 283.6 300.5 L 284.7 301.1 M 284.7 301.1 L 284.7 301.1 M 284.7 301.1 L 285.7 301.8 M 285.7 301.8 L 285.7 301.8 M 285.7 301.8 L 286.6 302.8 M 286.6 302.8 L 286.6 302.8 M 286.6 302.8 L 287.1 303.8 M 287.1 303.8 L 287.1 303.8 M 287.1 303.8 L 287.5 304.9 M 287.5 304.9 L 287.5 304.9 M 287.5 304.9 L 287.6 306.1 M 287.6 306.1 L 287.6 306.1 M 287.6 306.1 L 287.5 307.1 M 287.5 307.1 L 287.5 307.1 M 287.5 307.1 L 287.3 308 M 287.3 308 L 287.3 308 M 287.3 308 L 286.9 308.9 M 286.9 308.9 L 286.9 308.9 M 286.9 308.9 L 286.3 309.7 M 286.3 309.7 L 286.3 309.7 M 286.3 309.7 L 285.5 310.3 M 285.5 310.3 L 285.5 310.3 M 285.5 310.3 L 284.6 310.8 M 284.6 310.8 L 284.6 310.8 M 284.6 310.8 L 283.5 311.3 M 283.5 311.3 L 283.5 311.3 M 283.5 311.3 L 282.3 311.5 M 282.3 311.5 L 282.6 315.1 M 282.6 315.1 L 284.3 314.8 M 284.3 314.8 L 285.8 314.3 M 285.8 314.3 L 287.1 313.4 M 287.1 313.4 L 288.3 312.3 M 288.3 312.3 L 289.2 311 M 289.2 311 L 289.9 309.6 M 289.9 309.6 L 290.3 307.9 M 290.3 307.9 L 290.5 306.1 M 290.5 306.1 L 290.2 303.9 M 357.6 387.3 L 357.6 387.3 M 357.6 387.3 L 357.6 387.3 M 357.6 387.3 L 355.8 387.2 M 355.8 387.2 L 355.8 387.2 M 355.8 387.2 L 354.3 386.9 M 354.3 386.9 L 354.3 386.9 M 354.3 386.9 L 353.1 386.4 M 353.1 386.4 L 353.1 386.4 M 353.1 386.4 L 352.2 385.7 M 352.2 385.7 L 352.2 385.7 M 352.2 385.7 L 351.6 384.9 M 351.6 384.9 L 351.6 384.9 M 351.6 384.9 L 351.2 383.9 M 351.2 383.9 L 351.2 383.9 M 351.2 383.9 L 350.9 382.9 M 350.9 382.9 L 350.9 382.9 M 350.9 382.9 L 350.8 381.9 M 350.8 381.9 L 350.8 381.9 M 350.8 381.9 L 350.8 381.2 M 350.8 381.2 L 350.8 381.2 M 350.8 381.2 L 351 380.6 M 351 380.6 L 351 380.6 M 351 380.6 L 351.2 380 M 351.2 380 L 351.2 380 M 351.2 380 L 351.4 379.4 M 351.4 379.4 L 351.4 379.4 M 351.4 379.4 L 351.8 379 M 351.8 379 L 351.8 379 M 351.8 379 L 352.2 378.6 M 352.2 378.6 L 352.2 378.6 M 352.2 378.6 L 352.6 378.2 M 352.6 378.2 L 352.6 378.2 M 352.6 378.2 L 353.1 378 M 353.1 378 L 353.1 378 M 353.1 378 L 353.7 377.8 M 353.7 377.8 L 353.7 377.8 M 353.7 377.8 L 354.5 377.7 M 354.5 377.7 L 354.5 377.7 M 354.5 377.7 L 355.3 377.6 M 355.3 377.6 L 355.3 377.6 M 355.3 377.6 L 356.3 377.6 M 356.3 377.6 L 356.3 377.6 M 356.3 377.6 L 368.7 377.6 M 368.7 377.6 L 368.7 374.2 M 368.7 374.2 L 356.2 374.2 M 356.2 374.2 L 355.1 374.2 M 355.1 374.2 L 354.1 374.2 M 354.1 374.2 L 353.4 374.3 M 353.4 374.3 L 352.8 374.4 M 352.8 374.4 L 352.1 374.5 M 352.1 374.5 L 351.4 374.8 M 351.4 374.8 L 350.8 375.1 M 350.8 375.1 L 350.3 375.5 M 350.3 375.5 L 349.7 375.9 M 349.7 375.9 L 349.3 376.4 M 349.3 376.4 L 348.9 377 M 348.9 377 L 348.5 377.7 M 348.5 377.7 L 348.2 378.6 M 348.2 378.6 L 348 379.4 M 348 379.4 L 347.9 380.3 M 347.9 380.3 L 347.9 381.1 M 347.9 381.1 L 348.1 383.1 M 348.1 383.1 L 348.7 384.9 M 348.7 384.9 L 349.7 386.4 M 349.7 386.4 L 351.2 387.6 M 351.2 387.6 L 351.2 387.7 M 351.2 387.7 L 348.3 387.7 M 348.3 387.7 L 348.3 390.7 M 348.3 390.7 L 368.7 390.7 M 368.7 390.7 L 368.7 387.3 M 368.7 387.3 L 357.6 387.3 M 369 359 L 369 359 M 369 359 L 368.7 357.5 M 368.7 357.5 L 368.1 356.2 M 368.1 356.2 L 367.2 355 M 367.2 355 L 366.1 354 M 366.1 354 L 364.8 353.1 M 364.8 353.1 L 363.3 352.5 M 363.3 352.5 L 361.7 352.1 M 361.7 352.1 L 361.3 355.5 M 361.3 355.5 L 362.5 355.8 M 362.5 355.8 L 362.5 355.8 M 362.5 355.8 L 363.5 356.1 M 363.5 356.1 L 363.5 356.1 M 363.5 356.1 L 364.4 356.6 M 364.4 356.6 L 364.4 356.6 M 364.4 356.6 L 365.1 357.3 M 365.1 357.3 L 365.1 357.3 M 365.1 357.3 L 365.6 358 M 365.6 358 L 365.6 358 M 365.6 358 L 366 358.8 M 366 358.8 L 366 358.8 M 366 358.8 L 366.3 359.7 M 366.3 359.7 L 366.3 359.7 M 366.3 359.7 L 366.4 360.6 M 366.4 360.6 L 366.4 360.6 M 366.4 360.6 L 366.2 361.9 M 366.2 361.9 L 366.2 361.9 M 366.2 361.9 L 365.9 363 M 365.9 363 L 365.9 363 M 365.9 363 L 365.3 364 M 365.3 364 L 365.3 364 M 365.3 364 L 364.5 364.8 M 364.5 364.8 L 364.5 364.8 M 364.5 364.8 L 363.4 365.5 M 363.4 365.5 L 363.4 365.5 M 363.4 365.5 L 362.1 366 M 362.1 366 L 362.1 366 M 362.1 366 L 360.4 366.3 M 360.4 366.3 L 360.4 366.3 M 360.4 366.3 L 358.5 366.4 M 358.5 366.4 L 358.5 366.4 M 358.5 366.4 L 356.6 366.3 M 356.6 366.3 L 356.6 366.3 M 356.6 366.3 L 355 366 M 355 366 L 355 366 M 355 366 L 353.6 365.5 M 353.6 365.5 L 353.6 365.5 M 353.6 365.5 L 352.5 364.7 M 352.5 364.7 L 352.5 364.7 M 352.5 364.7 L 351.7 363.8 M 351.7 363.8 L 351.7 363.8 M 351.7 363.8 L 351.1 362.9 M 351.1 362.9 L 351.1 362.9 M 351.1 362.9 L 350.8 361.7 M 350.8 361.7 L 350.8 361.7 M 350.8 361.7 L 350.6 360.5 M 350.6 360.5 L 350.6 360.5 M 350.6 360.5 L 350.7 359.6 M 350.7 359.6 L 350.7 359.6 M 350.7 359.6 L 350.9 358.9 M 350.9 358.9 L 350.9 358.9 M 350.9 358.9 L 351.2 358.2 M 351.2 358.2 L 351.2 358.2 M 351.2 358.2 L 351.7 357.5 M 351.7 357.5 L 351.7 357.5 M 351.7 357.5 L 352.3 356.9 M 352.3 356.9 L 352.3 356.9 M 352.3 356.9 L 353 356.5 M 353 356.5 L 353 356.5 M 353 356.5 L 353.8 356.1 M 353.8 356.1 L 353.8 356.1 M 353.8 356.1 L 354.8 355.8 M 354.8 355.8 L 354.3 352.5 M 354.3 352.5 L 352.9 352.9 M 352.9 352.9 L 351.6 353.4 M 351.6 353.4 L 350.5 354.2 M 350.5 354.2 L 349.5 355.2 M 349.5 355.2 L 348.8 356.3 M 348.8 356.3 L 348.3 357.6 M 348.3 357.6 L 348 359 M 348 359 L 347.9 360.6 M 347.9 360.6 L 347.9 361.9 M 347.9 361.9 L 348.2 363.1 M 348.2 363.1 L 348.6 364.3 M 348.6 364.3 L 349.1 365.5 M 349.1 365.5 L 349.8 366.5 M 349.8 366.5 L 350.6 367.4 M 350.6 367.4 L 351.6 368.2 M 351.6 368.2 L 352.8 368.8 M 352.8 368.8 L 354.1 369.3 M 354.1 369.3 L 355.5 369.6 M 355.5 369.6 L 357 369.8 M 357 369.8 L 358.6 369.9 M 358.6 369.9 L 361 369.7 M 361 369.7 L 363.1 369.3 M 363.1 369.3 L 364.9 368.4 M 364.9 368.4 L 366.4 367.3 M 366.4 367.3 L 367.6 366 M 367.6 366 L 368.5 364.4 M 368.5 364.4 L 369 362.6 M 369 362.6 L 369.2 360.6 M 369.2 360.6 L 369 359 M 356.8 329 L 356.8 329 M 356.8 329 L 356.8 339.5 M 356.8 339.5 L 360.3 339.5 M 360.3 339.5 L 360.3 329 M 360.3 329 L 356.8 329 M 366.7 307.3 L 366.7 307.3 M 366.7 307.3 L 366.7 307.3 M 366.7 307.3 L 364.7 306.9 M 364.7 306.9 L 364.7 306.9 M 364.7 306.9 L 362.8 306.6 M 362.8 306.6 L 362.8 306.6 M 362.8 306.6 L 361 306.1 M 361 306.1 L 361 306.1 M 361 306.1 L 358.5 305.3 M 358.5 305.3 L 358.5 305.3 M 358.5 305.3 L 356 304.4 M 356 304.4 L 356 304.4 M 356 304.4 L 353.6 303.3 M 353.6 303.3 L 353.6 303.3 M 353.6 303.3 L 351.2 302 M 351.2 302 L 351.2 302 M 351.2 302 L 349 300.7 M 349 300.7 L 349 300.7 M 349 300.7 L 346.9 299.4 M 346.9 299.4 L 346.9 299.4 M 346.9 299.4 L 345.1 298 M 345.1 298 L 345.1 298 M 345.1 298 L 343.6 296.7 M 343.6 296.7 L 340.9 296.7 M 340.9 296.7 L 340.9 314.9 M 340.9 314.9 L 344.2 314.9 M 344.2 314.9 L 344.2 301.1 M 344.2 301.1 L 344.2 301.1 M 344.2 301.1 L 345.8 302.4 M 345.8 302.4 L 347.6 303.6 M 347.6 303.6 L 349.5 304.9 M 349.5 304.9 L 351.6 306 M 351.6 306 L 353.8 307.1 M 353.8 307.1 L 356.1 308.1 M 356.1 308.1 L 358.4 309 M 358.4 309 L 360.7 309.7 M 360.7 309.7 L 363 310.2 M 363 310.2 L 365.1 310.6 M 365.1 310.6 L 367 310.8 M 367 310.8 L 368.7 311 M 368.7 311 L 368.7 307.4 M 368.7 307.4 L 366.7 307.3 M 396.9 387.3 L 396.9 387.3 M 396.9 387.3 L 396.9 387.3 M 396.9 387.3 L 395.1 387.2 M 395.1 387.2 L 395.1 387.2 M 395.1 387.2 L 393.6 386.9 M 393.6 386.9 L 393.6 386.9 M 393.6 386.9 L 392.5 386.4 M 392.5 386.4 L 392.5 386.4 M 392.5 386.4 L 391.6 385.7 M 391.6 385.7 L 391.6 385.7 M 391.6 385.7 L 391 384.9 M 391 384.9 L 391 384.9 M 391 384.9 L 390.5 383.9 M 390.5 383.9 L 390.5 383.9 M 390.5 383.9 L 390.3 382.9 M 390.3 382.9 L 390.3 382.9 M 390.3 382.9 L 390.2 381.9 M 390.2 381.9 L 390.2 381.9 M 390.2 381.9 L 390.2 381.2 M 390.2 381.2 L 390.2 381.2 M 390.2 381.2 L 390.3 380.6 M 390.3 380.6 L 390.3 380.6 M 390.3 380.6 L 390.5 380 M 390.5 380 L 390.5 380 M 390.5 380 L 390.8 379.4 M 390.8 379.4 L 390.8 379.4 M 390.8 379.4 L 391.2 379 M 391.2 379 L 391.2 379 M 391.2 379 L 391.6 378.6 M 391.6 378.6 L 391.6 378.6 M 391.6 378.6 L 392 378.2 M 392 378.2 L 392 378.2 M 392 378.2 L 392.5 378 M 392.5 378 L 392.5 378 M 392.5 378 L 393.1 377.8 M 393.1 377.8 L 393.1 377.8 M 393.1 377.8 L 393.8 377.7 M 393.8 377.7 L 393.8 377.7 M 393.8 377.7 L 394.7 377.6 M 394.7 377.6 L 394.7 377.6 M 394.7 377.6 L 395.7 377.6 M 395.7 377.6 L 395.7 377.6 M 395.7 377.6 L 408.1 377.6 M 408.1 377.6 L 408.1 374.2 M 408.1 374.2 L 395.5 374.2 M 395.5 374.2 L 394.4 374.2 M 394.4 374.2 L 393.5 374.2 M 393.5 374.2 L 392.7 374.3 M 392.7 374.3 L 392.2 374.4 M 392.2 374.4 L 391.5 374.5 M 391.5 374.5 L 390.8 374.8 M 390.8 374.8 L 390.2 375.1 M 390.2 375.1 L 389.6 375.5 M 389.6 375.5 L 389.1 375.9 M 389.1 375.9 L 388.6 376.4 M 388.6 376.4 L 388.2 377 M 388.2 377 L 387.9 377.7 M 387.9 377.7 L 387.6 378.6 M 387.6 378.6 L 387.4 379.4 M 387.4 379.4 L 387.3 380.3 M 387.3 380.3 L 387.2 381.1 M 387.2 381.1 L 387.5 383.1 M 387.5 383.1 L 388.1 384.9 M 388.1 384.9 L 389.1 386.4 M 389.1 386.4 L 390.6 387.6 M 390.6 387.6 L 390.6 387.7 M 390.6 387.7 L 387.7 387.7 M 387.7 387.7 L 387.7 390.7 M 387.7 390.7 L 408.1 390.7 M 408.1 390.7 L 408.1 387.3 M 408.1 387.3 L 396.9 387.3 M 408.4 359 L 408.4 359 M 408.4 359 L 408.1 357.5 M 408.1 357.5 L 407.4 356.2 M 407.4 356.2 L 406.6 355 M 406.6 355 L 405.5 354 M 405.5 354 L 404.2 353.1 M 404.2 353.1 L 402.7 352.5 M 402.7 352.5 L 401.1 352.1 M 401.1 352.1 L 400.6 355.5 M 400.6 355.5 L 401.8 355.8 M 401.8 355.8 L 401.8 355.8 M 401.8 355.8 L 402.9 356.1 M 402.9 356.1 L 402.9 356.1 M 402.9 356.1 L 403.8 356.6 M 403.8 356.6 L 403.8 356.6 M 403.8 356.6 L 404.5 357.3 M 404.5 357.3 L 404.5 357.3 M 404.5 357.3 L 405 358 M 405 358 L 405 358 M 405 358 L 405.4 358.8 M 405.4 358.8 L 405.4 358.8 M 405.4 358.8 L 405.6 359.7 M 405.6 359.7 L 405.6 359.7 M 405.6 359.7 L 405.7 360.6 M 405.7 360.6 L 405.7 360.6 M 405.7 360.6 L 405.6 361.9 M 405.6 361.9 L 405.6 361.9 M 405.6 361.9 L 405.3 363 M 405.3 363 L 405.3 363 M 405.3 363 L 404.7 364 M 404.7 364 L 404.7 364 M 404.7 364 L 403.8 364.8 M 403.8 364.8 L 403.8 364.8 M 403.8 364.8 L 402.8 365.5 M 402.8 365.5 L 402.8 365.5 M 402.8 365.5 L 401.4 366 M 401.4 366 L 401.4 366 M 401.4 366 L 399.8 366.3 M 399.8 366.3 L 399.8 366.3 M 399.8 366.3 L 397.9 366.4 M 397.9 366.4 L 397.9 366.4 M 397.9 366.4 L 396 366.3 M 396 366.3 L 396 366.3 M 396 366.3 L 394.4 366 M 394.4 366 L 394.4 366 M 394.4 366 L 393 365.5 M 393 365.5 L 393 365.5 M 393 365.5 L 391.9 364.7 M 391.9 364.7 L 391.9 364.7 M 391.9 364.7 L 391.1 363.8 M 391.1 363.8 L 391.1 363.8 M 391.1 363.8 L 390.5 362.9 M 390.5 362.9 L 390.5 362.9 M 390.5 362.9 L 390.1 361.7 M 390.1 361.7 L 390.1 361.7 M 390.1 361.7 L 390 360.5 M 390 360.5 L 390 360.5 M 390 360.5 L 390.1 359.6 M 390.1 359.6 L 390.1 359.6 M 390.1 359.6 L 390.3 358.9 M 390.3 358.9 L 390.3 358.9 M 390.3 358.9 L 390.6 358.2 M 390.6 358.2 L 390.6 358.2 M 390.6 358.2 L 391.1 357.5 M 391.1 357.5 L 391.1 357.5 M 391.1 357.5 L 391.7 356.9 M 391.7 356.9 L 391.7 356.9 M 391.7 356.9 L 392.4 356.5 M 392.4 356.5 L 392.4 356.5 M 392.4 356.5 L 393.2 356.1 M 393.2 356.1 L 393.2 356.1 M 393.2 356.1 L 394.2 355.8 M 394.2 355.8 L 393.6 352.5 M 393.6 352.5 L 392.2 352.9 M 392.2 352.9 L 390.9 353.4 M 390.9 353.4 L 389.8 354.2 M 389.8 354.2 L 388.9 355.2 M 388.9 355.2 L 388.2 356.3 M 388.2 356.3 L 387.7 357.6 M 387.7 357.6 L 387.3 359 M 387.3 359 L 387.2 360.6 M 387.2 360.6 L 387.3 361.9 M 387.3 361.9 L 387.5 363.1 M 387.5 363.1 L 387.9 364.3 M 387.9 364.3 L 388.5 365.5 M 388.5 365.5 L 389.2 366.5 M 389.2 366.5 L 390 367.4 M 390 367.4 L 391 368.2 M 391 368.2 L 392.2 368.8 M 392.2 368.8 L 393.5 369.3 M 393.5 369.3 L 394.9 369.6 M 394.9 369.6 L 396.4 369.8 M 396.4 369.8 L 398 369.9 M 398 369.9 L 400.4 369.7 M 400.4 369.7 L 402.5 369.3 M 402.5 369.3 L 404.3 368.4 M 404.3 368.4 L 405.8 367.3 M 405.8 367.3 L 407 366 M 407 366 L 407.9 364.4 M 407.9 364.4 L 408.4 362.6 M 408.4 362.6 L 408.5 360.6 M 408.5 360.6 L 408.4 359 M 396.2 329 L 396.2 329 M 396.2 329 L 396.2 339.5 M 396.2 339.5 L 399.6 339.5 M 399.6 339.5 L 399.6 329 M 399.6 329 L 396.2 329 M 408.4 303.9 L 408.4 303.9 M 408.4 303.9 L 407.9 302.1 M 407.9 302.1 L 407.2 300.6 M 407.2 300.6 L 406.1 299.2 M 406.1 299.2 L 404.8 298.1 M 404.8 298.1 L 403.4 297.3 M 403.4 297.3 L 401.8 296.8 M 401.8 296.8 L 400 296.6 M 400 296.6 L 398.8 296.7 M 398.8 296.7 L 397.6 297 M 397.6 297 L 396.5 297.4 M 396.5 297.4 L 395.5 298 M 395.5 298 L 394.7 298.7 M 394.7 298.7 L 393.9 299.6 M 393.9 299.6 L 393.3 300.7 M 393.3 300.7 L 392.8 301.9 M 392.8 301.9 L 392.8 301.9 M 392.8 301.9 L 392.3 301 M 392.3 301 L 391.8 300.1 M 391.8 300.1 L 391.2 299.4 M 391.2 299.4 L 390.6 298.8 M 390.6 298.8 L 389.8 298.4 M 389.8 298.4 L 389 298.1 M 389 298.1 L 388.1 297.9 M 388.1 297.9 L 387.1 297.8 M 387.1 297.8 L 385.7 297.9 M 385.7 297.9 L 384.3 298.4 M 384.3 298.4 L 383.1 299 M 383.1 299 L 381.9 300 M 381.9 300 L 381 301.2 M 381 301.2 L 380.3 302.6 M 380.3 302.6 L 379.9 304.2 M 379.9 304.2 L 379.8 306 M 379.8 306 L 379.9 307.7 M 379.9 307.7 L 380.3 309.3 M 380.3 309.3 L 381 310.6 M 381 310.6 L 381.9 311.8 M 381.9 311.8 L 383 312.8 M 383 312.8 L 384.2 313.5 M 384.2 313.5 L 385.6 313.9 M 385.6 313.9 L 387.1 314 M 387.1 314 L 388.1 314 M 388.1 314 L 389 313.8 M 389 313.8 L 389.8 313.4 M 389.8 313.4 L 390.5 313 M 390.5 313 L 391.2 312.4 M 391.2 312.4 L 391.8 311.7 M 391.8 311.7 L 392.3 310.8 M 392.3 310.8 L 392.8 309.8 M 392.8 309.8 L 392.8 309.8 M 392.8 309.8 L 393.2 311 M 393.2 311 L 393.8 312.1 M 393.8 312.1 L 394.5 313 M 394.5 313 L 395.3 313.8 M 395.3 313.8 L 396.3 314.4 M 396.3 314.4 L 397.4 314.8 M 397.4 314.8 L 398.6 315.1 M 398.6 315.1 L 399.9 315.2 M 399.9 315.2 L 401.7 315 M 401.7 315 L 403.3 314.5 M 403.3 314.5 L 404.8 313.7 M 404.8 313.7 L 406.1 312.6 M 406.1 312.6 L 407.1 311.2 M 407.1 311.2 L 407.9 309.7 M 407.9 309.7 L 408.4 307.9 M 408.4 307.9 L 408.6 305.9 M 408.6 305.9 L 408.4 303.9 M 386.9 310.5 L 386.9 310.5 M 386.9 310.5 L 387.9 310.4 M 387.9 310.4 L 388.8 310.2 M 388.8 310.2 L 389.5 309.8 M 389.5 309.8 L 390.2 309.2 M 390.2 309.2 L 390.8 308.5 M 390.8 308.5 L 391.2 307.7 M 391.2 307.7 L 391.4 306.9 M 391.4 306.9 L 391.5 305.9 M 391.5 305.9 L 391.4 304.9 M 391.4 304.9 L 391.2 304.1 M 391.2 304.1 L 390.8 303.3 M 390.8 303.3 L 390.2 302.6 M 390.2 302.6 L 389.5 302 M 389.5 302 L 388.8 301.6 M 388.8 301.6 L 388 301.4 M 388 301.4 L 387.1 301.3 M 387.1 301.3 L 386.2 301.4 M 386.2 301.4 L 385.4 301.6 M 385.4 301.6 L 384.6 302.1 M 384.6 302.1 L 383.9 302.7 M 383.9 302.7 L 383.4 303.3 M 383.4 303.3 L 383 304.1 M 383 304.1 L 382.7 305 M 382.7 305 L 382.7 305.9 M 382.7 305.9 L 382.7 306.9 M 382.7 306.9 L 383 307.7 M 383 307.7 L 383.4 308.5 M 383.4 308.5 L 383.9 309.2 M 383.9 309.2 L 384.6 309.8 M 384.6 309.8 L 385.3 310.2 M 385.3 310.2 L 386.1 310.4 M 386.1 310.4 L 386.9 310.5 M 399.9 311.6 L 399.9 311.6 M 399.9 311.6 L 400.7 311.6 M 400.7 311.6 L 401.4 311.4 M 401.4 311.4 L 402.1 311.2 M 402.1 311.2 L 402.8 310.9 M 402.8 310.9 L 403.5 310.5 M 403.5 310.5 L 404 310.1 M 404 310.1 L 404.5 309.5 M 404.5 309.5 L 405 308.8 M 405 308.8 L 405.3 308.1 M 405.3 308.1 L 405.5 307.4 M 405.5 307.4 L 405.7 306.6 M 405.7 306.6 L 405.7 305.8 M 405.7 305.8 L 405.6 304.7 M 405.6 304.7 L 405.3 303.6 M 405.3 303.6 L 404.8 302.6 M 404.8 302.6 L 404.1 301.8 M 404.1 301.8 L 403.3 301 M 403.3 301 L 402.3 300.6 M 402.3 300.6 L 401.2 300.3 M 401.2 300.3 L 400.1 300.1 M 400.1 300.1 L 398.9 300.3 M 398.9 300.3 L 397.8 300.6 M 397.8 300.6 L 396.8 301.1 M 396.8 301.1 L 395.9 301.8 M 395.9 301.8 L 395.2 302.7 M 395.2 302.7 L 394.7 303.7 M 394.7 303.7 L 394.4 304.8 M 394.4 304.8 L 394.3 306 M 394.3 306 L 394.4 307.1 M 394.4 307.1 L 394.7 308.2 M 394.7 308.2 L 395.2 309.2 M 395.2 309.2 L 395.9 310 M 395.9 310 L 396.8 310.7 M 396.8 310.7 L 397.7 311.2 M 397.7 311.2 L 398.8 311.5 M 398.8 311.5 L 399.9 311.6 M 211.6 361.1 L 211.6 361.1 M 211.6 361.1 L 211.1 359.3 M 211.1 359.3 L 210.3 357.7 M 210.3 357.7 L 209.2 356.2 M 209.2 356.2 L 207.8 355.1 M 207.8 355.1 L 206.3 354.2 M 206.3 354.2 L 204.7 353.8 M 204.7 353.8 L 202.9 353.6 M 202.9 353.6 L 201.6 353.6 M 201.6 353.6 L 200.4 353.9 M 200.4 353.9 L 199.4 354.4 M 199.4 354.4 L 198.4 354.9 M 198.4 354.9 L 197.5 355.7 M 197.5 355.7 L 196.9 356.6 M 196.9 356.6 L 196.4 357.7 M 196.4 357.7 L 196 358.8 M 196 358.8 L 196 358.8 M 196 358.8 L 195.5 357.9 M 195.5 357.9 L 194.9 357.1 M 194.9 357.1 L 194.3 356.5 M 194.3 356.5 L 193.6 355.9 M 193.6 355.9 L 192.8 355.5 M 192.8 355.5 L 192 355.2 M 192 355.2 L 191.2 355 M 191.2 355 L 190.3 354.9 M 190.3 354.9 L 189.3 355 M 189.3 355 L 188.4 355.2 M 188.4 355.2 L 187.5 355.5 M 187.5 355.5 L 186.6 356 M 186.6 356 L 185.8 356.6 M 185.8 356.6 L 185.1 357.2 M 185.1 357.2 L 184.5 358.1 M 184.5 358.1 L 184 359 M 184 359 L 183.5 359.9 M 183.5 359.9 L 183.2 361 M 183.2 361 L 183 362.1 M 183 362.1 L 183 363.2 M 183 363.2 L 183.1 364.8 M 183.1 364.8 L 183.4 366.2 M 183.4 366.2 L 184 367.6 M 184 367.6 L 184.9 368.8 M 184.9 368.8 L 185.9 369.8 M 185.9 369.8 L 187.2 370.6 M 187.2 370.6 L 188.6 371.2 M 188.6 371.2 L 190.2 371.6 M 190.2 371.6 L 190.8 368.2 M 190.8 368.2 L 189.7 368 M 189.7 368 L 189.7 368 M 189.7 368 L 188.6 367.6 M 188.6 367.6 L 188.6 367.6 M 188.6 367.6 L 187.8 367.1 M 187.8 367.1 L 187.8 367.1 M 187.8 367.1 L 187 366.5 M 187 366.5 L 187 366.5 M 187 366.5 L 186.5 365.8 M 186.5 365.8 L 186.5 365.8 M 186.5 365.8 L 186.1 365 M 186.1 365 L 186.1 365 M 186.1 365 L 185.8 364.1 M 185.8 364.1 L 185.8 364.1 M 185.8 364.1 L 185.8 363.1 M 185.8 363.1 L 185.8 363.1 M 185.8 363.1 L 185.8 362.1 M 185.8 362.1 L 185.8 362.1 M 185.8 362.1 L 186.1 361.2 M 186.1 361.2 L 186.1 361.2 M 186.1 361.2 L 186.5 360.5 M 186.5 360.5 L 186.5 360.5 M 186.5 360.5 L 187 359.8 M 187 359.8 L 187 359.8 M 187 359.8 L 187.7 359.2 M 187.7 359.2 L 187.7 359.2 M 187.7 359.2 L 188.4 358.8 M 188.4 358.8 L 188.4 358.8 M 188.4 358.8 L 189.3 358.6 M 189.3 358.6 L 189.3 358.6 M 189.3 358.6 L 190.2 358.5 M 190.2 358.5 L 190.2 358.5 M 190.2 358.5 L 191.3 358.6 M 191.3 358.6 L 191.3 358.6 M 191.3 358.6 L 192.3 358.9 M 192.3 358.9 L 192.3 358.9 M 192.3 358.9 L 193.1 359.5 M 193.1 359.5 L 193.1 359.5 M 193.1 359.5 L 193.8 360.3 M 193.8 360.3 L 193.8 360.3 M 193.8 360.3 L 194.3 361.2 M 194.3 361.2 L 194.3 361.2 M 194.3 361.2 L 194.6 362.1 M 194.6 362.1 L 194.6 362.1 M 194.6 362.1 L 194.9 363.2 M 194.9 363.2 L 194.9 363.2 M 194.9 363.2 L 194.9 364.2 M 194.9 364.2 L 194.9 364.2 M 194.9 364.2 L 194.9 364.4 M 194.9 364.4 L 194.9 364.4 M 194.9 364.4 L 194.9 364.5 M 194.9 364.5 L 194.9 364.5 M 194.9 364.5 L 194.9 364.6 M 194.9 364.6 L 194.9 364.6 M 194.9 364.6 L 194.9 364.8 M 194.9 364.8 L 197.9 365.2 M 197.9 365.2 L 197.7 364.5 M 197.7 364.5 L 197.7 364.5 M 197.7 364.5 L 197.6 363.8 M 197.6 363.8 L 197.6 363.8 M 197.6 363.8 L 197.5 363.2 M 197.5 363.2 L 197.5 363.2 M 197.5 363.2 L 197.5 362.7 M 197.5 362.7 L 197.5 362.7 M 197.5 362.7 L 197.6 361.6 M 197.6 361.6 L 197.6 361.6 M 197.6 361.6 L 197.9 360.5 M 197.9 360.5 L 197.9 360.5 M 197.9 360.5 L 198.4 359.6 M 198.4 359.6 L 198.4 359.6 M 198.4 359.6 L 199 358.8 M 199 358.8 L 199 358.8 M 199 358.8 L 199.9 358.1 M 199.9 358.1 L 199.9 358.1 M 199.9 358.1 L 200.8 357.6 M 200.8 357.6 L 200.8 357.6 M 200.8 357.6 L 201.8 357.3 M 201.8 357.3 L 201.9 357.3 M 201.9 357.3 L 203 357.2 M 203 357.2 L 203 357.2 M 203 357.2 L 204.2 357.3 M 204.2 357.3 L 204.2 357.3 M 204.2 357.3 L 205.3 357.6 M 205.3 357.6 L 205.3 357.6 M 205.3 357.6 L 206.3 358.2 M 206.3 358.2 L 206.3 358.2 M 206.3 358.2 L 207.2 358.9 M 207.2 358.9 L 207.2 358.9 M 207.2 358.9 L 207.9 359.8 M 207.9 359.8 L 207.9 359.8 M 207.9 359.8 L 208.5 360.8 M 208.5 360.8 L 208.5 360.8 M 208.5 360.8 L 208.8 361.9 M 208.8 361.9 L 208.8 361.9 M 208.8 361.9 L 208.9 363 M 208.9 363 L 208.9 363 M 208.9 363 L 208.8 364 M 208.8 364 L 208.8 364 M 208.8 364 L 208.6 364.9 M 208.6 364.9 L 208.6 364.9 M 208.6 364.9 L 208.2 365.8 M 208.2 365.8 L 208.2 365.8 M 208.2 365.8 L 207.6 366.5 M 207.6 366.5 L 207.6 366.5 M 207.6 366.5 L 206.8 367.2 M 206.8 367.2 L 206.8 367.2 M 206.8 367.2 L 205.9 367.8 M 205.9 367.8 L 205.9 367.8 M 205.9 367.8 L 204.7 368.2 M 204.7 368.2 L 204.7 368.2 M 204.7 368.2 L 203.4 368.6 M 203.4 368.6 L 203.8 372 M 203.8 372 L 205.5 371.7 M 205.5 371.7 L 207 371.1 M 207 371.1 L 208.3 370.3 M 208.3 370.3 L 209.5 369.2 M 209.5 369.2 L 210.5 367.9 M 210.5 367.9 L 211.2 366.4 M 211.2 366.4 L 211.6 364.8 M 211.6 364.8 L 211.7 363.1 M 211.7 363.1 L 211.6 361.1 M 199.3 329 L 199.3 329 M 199.3 329 L 199.3 339.5 M 199.3 339.5 L 202.8 339.5 M 202.8 339.5 L 202.8 329 M 202.8 329 L 199.3 329 M 211.6 304.2 L 211.6 304.2 M 211.6 304.2 L 211.1 302.4 M 211.1 302.4 L 210.3 300.8 M 210.3 300.8 L 209.2 299.4 M 209.2 299.4 L 207.8 298.2 M 207.8 298.2 L 206.3 297.3 M 206.3 297.3 L 204.7 296.9 M 204.7 296.9 L 202.9 296.7 M 202.9 296.7 L 201.6 296.8 M 201.6 296.8 L 200.4 297 M 200.4 297 L 199.4 297.5 M 199.4 297.5 L 198.4 298.1 M 198.4 298.1 L 197.5 298.8 M 197.5 298.8 L 196.9 299.7 M 196.9 299.7 L 196.4 300.8 M 196.4 300.8 L 196 301.9 M 196 301.9 L 196 301.9 M 196 301.9 L 195.5 301 M 195.5 301 L 194.9 300.3 M 194.9 300.3 L 194.3 299.6 M 194.3 299.6 L 193.6 299 M 193.6 299 L 192.8 298.6 M 192.8 298.6 L 192 298.3 M 192 298.3 L 191.2 298.1 M 191.2 298.1 L 190.3 298.1 M 190.3 298.1 L 189.3 298.1 M 189.3 298.1 L 188.4 298.3 M 188.4 298.3 L 187.5 298.6 M 187.5 298.6 L 186.6 299.1 M 186.6 299.1 L 185.8 299.7 M 185.8 299.7 L 185.1 300.3 M 185.1 300.3 L 184.5 301.2 M 184.5 301.2 L 184 302.1 M 184 302.1 L 183.5 303.1 M 183.5 303.1 L 183.2 304.1 M 183.2 304.1 L 183 305.2 M 183 305.2 L 183 306.3 M 183 306.3 L 183.1 307.9 M 183.1 307.9 L 183.4 309.4 M 183.4 309.4 L 184 310.7 M 184 310.7 L 184.9 311.9 M 184.9 311.9 L 185.9 312.9 M 185.9 312.9 L 187.2 313.7 M 187.2 313.7 L 188.6 314.4 M 188.6 314.4 L 190.2 314.7 M 190.2 314.7 L 190.8 311.3 M 190.8 311.3 L 189.7 311.1 M 189.7 311.1 L 189.7 311.1 M 189.7 311.1 L 188.6 310.7 M 188.6 310.7 L 188.6 310.7 M 188.6 310.7 L 187.8 310.2 M 187.8 310.2 L 187.8 310.2 M 187.8 310.2 L 187 309.6 M 187 309.6 L 187 309.6 M 187 309.6 L 186.5 308.9 M 186.5 308.9 L 186.5 308.9 M 186.5 308.9 L 186.1 308.1 M 186.1 308.1 L 186.1 308.1 M 186.1 308.1 L 185.8 307.2 M 185.8 307.2 L 185.8 307.2 M 185.8 307.2 L 185.8 306.2 M 185.8 306.2 L 185.8 306.2 M 185.8 306.2 L 185.8 305.3 M 185.8 305.3 L 185.8 305.3 M 185.8 305.3 L 186.1 304.4 M 186.1 304.4 L 186.1 304.4 M 186.1 304.4 L 186.5 303.6 M 186.5 303.6 L 186.5 303.6 M 186.5 303.6 L 187 302.9 M 187 302.9 L 187 302.9 M 187 302.9 L 187.7 302.3 M 187.7 302.3 L 187.7 302.3 M 187.7 302.3 L 188.4 301.9 M 188.4 301.9 L 188.4 301.9 M 188.4 301.9 L 189.3 301.7 M 189.3 301.7 L 189.3 301.7 M 189.3 301.7 L 190.2 301.6 M 190.2 301.6 L 190.2 301.6 M 190.2 301.6 L 191.3 301.7 M 191.3 301.7 L 191.3 301.7 M 191.3 301.7 L 192.3 302 M 192.3 302 L 192.3 302 M 192.3 302 L 193.1 302.6 M 193.1 302.6 L 193.1 302.6 M 193.1 302.6 L 193.8 303.4 M 193.8 303.4 L 193.8 303.4 M 193.8 303.4 L 194.3 304.3 M 194.3 304.3 L 194.3 304.3 M 194.3 304.3 L 194.6 305.3 M 194.6 305.3 L 194.6 305.3 M 194.6 305.3 L 194.9 306.3 M 194.9 306.3 L 194.9 306.3 M 194.9 306.3 L 194.9 307.3 M 194.9 307.3 L 194.9 307.3 M 194.9 307.3 L 194.9 307.5 M 194.9 307.5 L 194.9 307.5 M 194.9 307.5 L 194.9 307.6 M 194.9 307.6 L 194.9 307.6 M 194.9 307.6 L 194.9 307.7 M 194.9 307.7 L 194.9 307.7 M 194.9 307.7 L 194.9 307.9 M 194.9 307.9 L 197.9 308.3 M 197.9 308.3 L 197.7 307.6 M 197.7 307.6 L 197.7 307.6 M 197.7 307.6 L 197.6 306.9 M 197.6 306.9 L 197.6 306.9 M 197.6 306.9 L 197.5 306.4 M 197.5 306.4 L 197.5 306.4 M 197.5 306.4 L 197.5 305.8 M 197.5 305.8 L 197.5 305.8 M 197.5 305.8 L 197.6 304.7 M 197.6 304.7 L 197.6 304.7 M 197.6 304.7 L 197.9 303.7 M 197.9 303.7 L 197.9 303.6 M 197.9 303.6 L 198.4 302.7 M 198.4 302.7 L 198.4 302.7 M 198.4 302.7 L 199 301.9 M 199 301.9 L 199 301.9 M 199 301.9 L 199.9 301.2 M 199.9 301.2 L 199.9 301.2 M 199.9 301.2 L 200.8 300.7 M 200.8 300.7 L 200.8 300.7 M 200.8 300.7 L 201.8 300.4 M 201.8 300.4 L 201.9 300.4 M 201.9 300.4 L 203 300.3 M 203 300.3 L 203 300.3 M 203 300.3 L 204.2 300.4 M 204.2 300.4 L 204.2 300.4 M 204.2 300.4 L 205.3 300.7 M 205.3 300.7 L 205.3 300.7 M 205.3 300.7 L 206.3 301.3 M 206.3 301.3 L 206.3 301.3 M 206.3 301.3 L 207.2 302 M 207.2 302 L 207.2 302 M 207.2 302 L 207.9 302.9 M 207.9 302.9 L 207.9 302.9 M 207.9 302.9 L 208.5 303.9 M 208.5 303.9 L 208.5 303.9 M 208.5 303.9 L 208.8 305 M 208.8 305 L 208.8 305 M 208.8 305 L 208.9 306.2 M 208.9 306.2 L 208.9 306.2 M 208.9 306.2 L 208.8 307.1 M 208.8 307.1 L 208.8 307.1 M 208.8 307.1 L 208.6 308.1 M 208.6 308.1 L 208.6 308.1 M 208.6 308.1 L 208.2 308.9 M 208.2 308.9 L 208.2 308.9 M 208.2 308.9 L 207.6 309.7 M 207.6 309.7 L 207.6 309.7 M 207.6 309.7 L 206.8 310.3 M 206.8 310.3 L 206.8 310.3 M 206.8 310.3 L 205.9 310.9 M 205.9 310.9 L 205.9 310.9 M 205.9 310.9 L 204.7 311.3 M 204.7 311.3 L 204.7 311.3 M 204.7 311.3 L 203.4 311.7 M 203.4 311.7 L 203.8 315.1 M 203.8 315.1 L 205.5 314.8 M 205.5 314.8 L 207 314.2 M 207 314.2 L 208.3 313.4 M 208.3 313.4 L 209.5 312.3 M 209.5 312.3 L 210.5 311 M 210.5 311 L 211.2 309.5 M 211.2 309.5 L 211.6 307.9 M 211.6 307.9 L 211.7 306.2 M 211.7 306.2 L 211.6 304.2 M 62.5 484 L 62.5 484 M 62.5 484 L 62.5 484 M 62.5 484 L 62.5 477.5 M 62.5 477.5 L 62.5 477.5 M 62.5 477.5 L 62.5 476.5 M 62.5 476.5 L 62.5 476.5 M 62.5 476.5 L 62.6 475.6 M 62.6 475.6 L 62.6 475.6 M 62.6 475.6 L 62.7 474.9 M 62.7 474.9 L 62.7 474.9 M 62.7 474.9 L 62.7 474.4 M 62.7 474.4 L 62.7 474.4 M 62.7 474.4 L 62.9 473.7 M 62.9 473.7 L 62.9 473.7 M 62.9 473.7 L 63.2 473.1 M 63.2 473.1 L 63.2 473.1 M 63.2 473.1 L 63.5 472.5 M 63.5 472.5 L 63.5 472.5 M 63.5 472.5 L 63.8 471.8 M 63.8 471.8 L 63.8 471.8 M 63.8 471.8 L 64.4 471.2 M 64.4 471.2 L 64.4 471.2 M 64.4 471.2 L 65 470.5 M 65 470.5 L 65 470.5 M 65 470.5 L 65.8 469.7 M 65.8 469.7 L 65.8 469.7 M 65.8 469.7 L 66.7 469 M 66.7 469 L 66.7 469 M 66.7 469 L 67.8 468.1 M 67.8 468.1 L 67.8 468.1 M 67.8 468.1 L 69.2 467.2 M 69.2 467.2 L 69.2 467.2 M 69.2 467.2 L 70.7 466.1 M 70.7 466.1 L 70.7 466.1 M 70.7 466.1 L 72.5 464.9 M 72.5 464.9 L 72.5 464.9 M 72.5 464.9 L 81.3 459.4 M 81.3 459.4 L 81.3 452.3 M 81.3 452.3 L 69.8 459.7 M 69.8 459.7 L 68.2 460.8 M 68.2 460.8 L 66.8 461.9 M 66.8 461.9 L 65.4 463.1 M 65.4 463.1 L 64.2 464.3 M 64.2 464.3 L 63.7 465 M 63.7 465 L 63.2 465.7 M 63.2 465.7 L 62.6 466.7 M 62.6 466.7 L 62.1 467.7 M 62.1 467.7 L 62.1 467.7 M 62.1 467.7 L 61.5 464.9 M 61.5 464.9 L 60.6 462.4 M 60.6 462.4 L 59.5 460.4 M 59.5 460.4 L 58.2 458.7 M 58.2 458.7 L 56.5 457.4 M 56.5 457.4 L 54.7 456.5 M 54.7 456.5 L 52.7 456 M 52.7 456 L 50.6 455.8 M 50.6 455.8 L 48.9 455.9 M 48.9 455.9 L 47.3 456.2 M 47.3 456.2 L 45.7 456.8 M 45.7 456.8 L 44.2 457.5 M 44.2 457.5 L 42.9 458.5 M 42.9 458.5 L 41.8 459.6 M 41.8 459.6 L 40.9 460.8 M 40.9 460.8 L 40.2 462.3 M 40.2 462.3 L 39.7 463.9 M 39.7 463.9 L 39.4 465.8 M 39.4 465.8 L 39.2 468.2 M 39.2 468.2 L 39.1 470.8 M 39.1 470.8 L 39.1 489.5 M 39.1 489.5 L 81.3 489.5 M 81.3 489.5 L 81.3 484 M 81.3 484 L 62.5 484 M 57.7 484 L 57.7 484 M 57.7 484 L 57.7 471.9 M 57.7 471.9 L 57.7 470.1 M 57.7 470.1 L 57.5 468.5 M 57.5 468.5 L 57.3 467.1 M 57.3 467.1 L 56.9 466 M 56.9 466 L 56.4 464.9 M 56.4 464.9 L 55.9 464 M 55.9 464 L 55.2 463.3 M 55.2 463.3 L 54.4 462.7 M 54.4 462.7 L 53.5 462.2 M 53.5 462.2 L 52.5 461.8 M 52.5 461.8 L 51.6 461.6 M 51.6 461.6 L 50.6 461.6 M 50.6 461.6 L 49.2 461.7 M 49.2 461.7 L 47.9 462.1 M 47.9 462.1 L 46.7 462.8 M 46.7 462.8 L 45.6 463.7 M 45.6 463.7 L 44.8 465 M 44.8 465 L 44.2 466.5 M 44.2 466.5 L 43.8 468.4 M 43.8 468.4 L 43.7 470.6 M 43.7 470.6 L 43.7 484 M 43.7 484 L 57.7 484 M 81.9 436.7 L 81.9 436.7 M 81.9 436.7 L 81.6 435 M 81.6 435 L 81.2 433.4 M 81.2 433.4 L 80.5 432 M 80.5 432 L 79.6 430.7 M 79.6 430.7 L 78.6 429.6 M 78.6 429.6 L 77.4 428.6 M 77.4 428.6 L 76 427.9 M 76 427.9 L 74.5 427.4 M 74.5 427.4 L 72.5 426.9 M 72.5 426.9 L 70.4 426.7 M 70.4 426.7 L 67.9 426.6 M 67.9 426.6 L 39.1 426.6 M 39.1 426.6 L 39.1 432.2 M 39.1 432.2 L 68.2 432.2 M 68.2 432.2 L 68.2 432.2 M 68.2 432.2 L 69.9 432.2 M 69.9 432.2 L 69.9 432.2 M 69.9 432.2 L 71.3 432.3 M 71.3 432.3 L 71.3 432.3 M 71.3 432.3 L 72.5 432.5 M 72.5 432.5 L 72.5 432.5 M 72.5 432.5 L 73.5 432.8 M 73.5 432.8 L 73.5 432.8 M 73.5 432.8 L 74.3 433.1 M 74.3 433.1 L 74.3 433.1 M 74.3 433.1 L 74.9 433.6 M 74.9 433.6 L 74.9 433.6 M 74.9 433.6 L 75.6 434.2 M 75.6 434.2 L 75.6 434.2 M 75.6 434.2 L 76.1 434.9 M 76.1 434.9 L 76.1 434.9 M 76.1 434.9 L 76.5 435.7 M 76.5 435.7 L 76.5 435.7 M 76.5 435.7 L 76.8 436.6 M 76.8 436.6 L 76.8 436.6 M 76.8 436.6 L 77 437.5 M 77 437.5 L 77 437.5 M 77 437.5 L 77.1 438.5 M 77.1 438.5 L 77.1 438.5 M 77.1 438.5 L 76.9 439.9 M 76.9 439.9 L 76.9 439.9 M 76.9 439.9 L 76.6 441.1 M 76.6 441.1 L 76.6 441.1 M 76.6 441.1 L 76 442.1 M 76 442.1 L 76 442.1 M 76 442.1 L 75.3 443 M 75.3 443 L 75.3 443 M 75.3 443 L 74.2 443.8 M 74.2 443.8 L 74.2 443.8 M 74.2 443.8 L 72.7 444.3 M 72.7 444.3 L 72.7 444.3 M 72.7 444.3 L 70.8 444.7 M 70.8 444.7 L 70.8 444.7 M 70.8 444.7 L 68.6 444.8 M 68.6 444.8 L 69.4 449.9 M 69.4 449.9 L 72.3 449.7 M 72.3 449.7 L 74.9 449.2 M 74.9 449.2 L 77 448.3 M 77 448.3 L 78.8 447 M 78.8 447 L 80.2 445.4 M 80.2 445.4 L 81.2 443.4 M 81.2 443.4 L 81.8 441.1 M 81.8 441.1 L 82 438.5 M 82 438.5 L 81.9 436.7 M 38.9 400.1 L 38.9 400.1 M 38.9 400.1 L 38.9 403.4 M 38.9 403.4 L 40.3 404.2 M 40.3 404.2 L 40.3 404.2 M 40.3 404.2 L 41.7 405.2 M 41.7 405.2 L 41.7 405.2 M 41.7 405.2 L 43.1 406.5 M 43.1 406.5 L 43.1 406.5 M 43.1 406.5 L 44.5 408 M 44.5 408 L 44.5 408 M 44.5 408 L 45.9 409.7 M 45.9 409.7 L 45.9 409.7 M 45.9 409.7 L 47.2 411.5 M 47.2 411.5 L 47.2 411.5 M 47.2 411.5 L 48.4 413.5 M 48.4 413.5 L 48.4 413.5 M 48.4 413.5 L 49.5 415.6 M 49.5 415.6 L 54.5 415.6 M 54.5 415.6 L 54 414.4 M 54 414.4 L 53.4 413.1 M 53.4 413.1 L 52.7 411.6 M 52.7 411.6 L 51.8 410.1 M 51.8 410.1 L 50.9 408.7 M 50.9 408.7 L 50 407.4 M 50 407.4 L 49.1 406.2 M 49.1 406.2 L 48.2 405.2 M 48.2 405.2 L 48.2 405.2 M 48.2 405.2 L 81.3 405.2 M 81.3 405.2 L 81.3 400.1 M 81.3 400.1 L 38.9 400.1 M 38.9 371.6 L 38.9 371.6 M 38.9 371.6 L 38.9 374.9 M 38.9 374.9 L 40.3 375.7 M 40.3 375.7 L 40.3 375.7 M 40.3 375.7 L 41.7 376.8 M 41.7 376.8 L 41.7 376.8 M 41.7 376.8 L 43.1 378 M 43.1 378 L 43.1 378 M 43.1 378 L 44.5 379.5 M 44.5 379.5 L 44.5 379.5 M 44.5 379.5 L 45.9 381.2 M 45.9 381.2 L 45.9 381.2 M 45.9 381.2 L 47.2 383.1 M 47.2 383.1 L 47.2 383.1 M 47.2 383.1 L 48.4 385 M 48.4 385 L 48.4 385 M 48.4 385 L 49.5 387.1 M 49.5 387.1 L 54.5 387.1 M 54.5 387.1 L 54 385.9 M 54 385.9 L 53.4 384.6 M 53.4 384.6 L 52.7 383.2 M 52.7 383.2 L 51.8 381.7 M 51.8 381.7 L 50.9 380.3 M 50.9 380.3 L 50 379 M 50 379 L 49.1 377.8 M 49.1 377.8 L 48.2 376.8 M 48.2 376.8 L 48.2 376.8 M 48.2 376.8 L 81.3 376.8 M 81.3 376.8 L 81.3 371.6 M 81.3 371.6 L 38.9 371.6 M 63.4 326.5 L 63.4 326.5 M 63.4 326.5 L 63.4 342.4 M 63.4 342.4 L 68.6 342.4 M 68.6 342.4 L 68.6 326.5 M 68.6 326.5 L 63.4 326.5 M 62.5 298.1 L 62.5 298.1 M 62.5 298.1 L 62.5 298 M 62.5 298 L 62.5 291.5 M 62.5 291.5 L 62.5 291.5 M 62.5 291.5 L 62.5 290.5 M 62.5 290.5 L 62.5 290.5 M 62.5 290.5 L 62.6 289.7 M 62.6 289.7 L 62.6 289.7 M 62.6 289.7 L 62.7 289 M 62.7 289 L 62.7 289 M 62.7 289 L 62.7 288.4 M 62.7 288.4 L 62.7 288.4 M 62.7 288.4 L 62.9 287.8 M 62.9 287.8 L 62.9 287.8 M 62.9 287.8 L 63.2 287.1 M 63.2 287.1 L 63.2 287.1 M 63.2 287.1 L 63.5 286.5 M 63.5 286.5 L 63.5 286.5 M 63.5 286.5 L 63.8 285.8 M 63.8 285.8 L 63.8 285.8 M 63.8 285.8 L 64.4 285.2 M 64.4 285.2 L 64.4 285.2 M 64.4 285.2 L 65 284.5 M 65 284.5 L 65 284.5 M 65 284.5 L 65.8 283.8 M 65.8 283.8 L 65.8 283.8 M 65.8 283.8 L 66.7 283 M 66.7 283 L 66.7 283 M 66.7 283 L 67.8 282.1 M 67.8 282.1 L 67.8 282.1 M 67.8 282.1 L 69.2 281.2 M 69.2 281.2 L 69.2 281.2 M 69.2 281.2 L 70.7 280.1 M 70.7 280.1 L 70.7 280.1 M 70.7 280.1 L 72.5 279 M 72.5 279 L 72.5 279 M 72.5 279 L 81.3 273.4 M 81.3 273.4 L 81.3 266.4 M 81.3 266.4 L 69.8 273.7 M 69.8 273.7 L 68.2 274.8 M 68.2 274.8 L 66.8 276 M 66.8 276 L 65.4 277.1 M 65.4 277.1 L 64.2 278.4 M 64.2 278.4 L 63.7 279 M 63.7 279 L 63.2 279.8 M 63.2 279.8 L 62.6 280.7 M 62.6 280.7 L 62.1 281.8 M 62.1 281.8 L 62.1 281.8 M 62.1 281.8 L 61.5 278.9 M 61.5 278.9 L 60.6 276.4 M 60.6 276.4 L 59.5 274.4 M 59.5 274.4 L 58.2 272.7 M 58.2 272.7 L 56.5 271.5 M 56.5 271.5 L 54.7 270.6 M 54.7 270.6 L 52.7 270 M 52.7 270 L 50.6 269.8 M 50.6 269.8 L 48.9 269.9 M 48.9 269.9 L 47.3 270.3 M 47.3 270.3 L 45.7 270.8 M 45.7 270.8 L 44.2 271.6 M 44.2 271.6 L 42.9 272.5 M 42.9 272.5 L 41.8 273.6 M 41.8 273.6 L 40.9 274.9 M 40.9 274.9 L 40.2 276.3 M 40.2 276.3 L 39.7 277.9 M 39.7 277.9 L 39.4 279.9 M 39.4 279.9 L 39.2 282.2 M 39.2 282.2 L 39.1 284.9 M 39.1 284.9 L 39.1 303.6 M 39.1 303.6 L 81.3 303.6 M 81.3 303.6 L 81.3 298.1 M 81.3 298.1 L 62.5 298.1 M 57.7 298 L 57.7 298 M 57.7 298 L 57.7 286 M 57.7 286 L 57.7 284.2 M 57.7 284.2 L 57.5 282.6 M 57.5 282.6 L 57.3 281.2 M 57.3 281.2 L 56.9 280 M 56.9 280 L 56.4 279 M 56.4 279 L 55.9 278.1 M 55.9 278.1 L 55.2 277.3 M 55.2 277.3 L 54.4 276.7 M 54.4 276.7 L 53.5 276.2 M 53.5 276.2 L 52.5 275.9 M 52.5 275.9 L 51.6 275.6 M 51.6 275.6 L 50.6 275.6 M 50.6 275.6 L 49.2 275.7 M 49.2 275.7 L 47.9 276.1 M 47.9 276.1 L 46.7 276.8 M 46.7 276.8 L 45.6 277.8 M 45.6 277.8 L 44.8 279 M 44.8 279 L 44.2 280.6 M 44.2 280.6 L 43.8 282.5 M 43.8 282.5 L 43.7 284.6 M 43.7 284.6 L 43.7 298 M 43.7 298 L 57.7 298 M 81.9 250.7 L 81.9 250.7 M 81.9 250.7 L 81.6 249 M 81.6 249 L 81.2 247.5 M 81.2 247.5 L 80.5 246 M 80.5 246 L 79.6 244.7 M 79.6 244.7 L 78.6 243.6 M 78.6 243.6 L 77.4 242.7 M 77.4 242.7 L 76 241.9 M 76 241.9 L 74.5 241.4 M 74.5 241.4 L 72.5 241 M 72.5 241 L 70.4 240.8 M 70.4 240.8 L 67.9 240.7 M 67.9 240.7 L 39.1 240.7 M 39.1 240.7 L 39.1 246.2 M 39.1 246.2 L 68.2 246.2 M 68.2 246.2 L 68.2 246.2 M 68.2 246.2 L 69.9 246.3 M 69.9 246.3 L 69.9 246.3 M 69.9 246.3 L 71.3 246.4 M 71.3 246.4 L 71.3 246.4 M 71.3 246.4 L 72.5 246.6 M 72.5 246.6 L 72.5 246.6 M 72.5 246.6 L 73.5 246.8 M 73.5 246.8 L 73.5 246.8 M 73.5 246.8 L 74.3 247.2 M 74.3 247.2 L 74.3 247.2 M 74.3 247.2 L 74.9 247.6 M 74.9 247.6 L 74.9 247.6 M 74.9 247.6 L 75.6 248.2 M 75.6 248.2 L 75.6 248.2 M 75.6 248.2 L 76.1 248.9 M 76.1 248.9 L 76.1 248.9 M 76.1 248.9 L 76.5 249.7 M 76.5 249.7 L 76.5 249.7 M 76.5 249.7 L 76.8 250.6 M 76.8 250.6 L 76.8 250.6 M 76.8 250.6 L 77 251.6 M 77 251.6 L 77 251.6 M 77 251.6 L 77.1 252.6 M 77.1 252.6 L 77.1 252.6 M 77.1 252.6 L 76.9 253.9 M 76.9 253.9 L 76.9 253.9 M 76.9 253.9 L 76.6 255.1 M 76.6 255.1 L 76.6 255.1 M 76.6 255.1 L 76 256.2 M 76 256.2 L 76 256.2 M 76 256.2 L 75.3 257.1 M 75.3 257.1 L 75.3 257.1 M 75.3 257.1 L 74.2 257.8 M 74.2 257.8 L 74.2 257.8 M 74.2 257.8 L 72.7 258.3 M 72.7 258.3 L 72.7 258.3 M 72.7 258.3 L 70.8 258.7 M 70.8 258.7 L 70.8 258.7 M 70.8 258.7 L 68.6 258.9 M 68.6 258.9 L 69.4 263.9 M 69.4 263.9 L 72.3 263.8 M 72.3 263.8 L 74.9 263.2 M 74.9 263.2 L 77 262.3 M 77 262.3 L 78.8 261 M 78.8 261 L 80.2 259.4 M 80.2 259.4 L 81.2 257.5 M 81.2 257.5 L 81.8 255.2 M 81.8 255.2 L 82 252.5 M 82 252.5 L 81.9 250.7 M 71.2 211.8 L 71.2 211.8 M 71.2 211.8 L 71.2 211.8 M 71.2 211.8 L 71.2 206.1 M 71.2 206.1 L 66.5 206.1 M 66.5 206.1 L 66.5 211.8 M 66.5 211.8 L 66.4 211.8 M 66.4 211.8 L 39.1 211.8 M 39.1 211.8 L 39.1 216 M 39.1 216 L 66.4 235.3 M 66.4 235.3 L 71.2 235.3 M 71.2 235.3 L 71.2 217 M 71.2 217 L 71.2 217 M 71.2 217 L 81.3 217 M 81.3 217 L 81.3 211.8 M 81.3 211.8 L 71.2 211.8 M 47.5 217 L 47.5 217 M 47.5 217 L 66.4 230.2 M 66.4 230.2 L 66.4 217 M 66.4 217 L 47.5 217 M 81.7 183.9 L 81.7 183.9 M 81.7 183.9 L 80.7 180.9 M 80.7 180.9 L 79.2 178.3 M 79.2 178.3 L 76.9 176.1 M 76.9 176.1 L 74.7 174.7 M 74.7 174.7 L 72.3 173.6 M 72.3 173.6 L 69.7 173 M 69.7 173 L 67 172.8 M 67 172.8 L 64.1 173 M 64.1 173 L 61.5 173.7 M 61.5 173.7 L 59.2 174.9 M 59.2 174.9 L 57.1 176.6 M 57.1 176.6 L 55.5 178.6 M 55.5 178.6 L 54.3 180.8 M 54.3 180.8 L 53.6 183.2 M 53.6 183.2 L 53.3 185.9 M 53.3 185.9 L 53.5 188 M 53.5 188 L 54 190 M 54 190 L 54.8 191.9 M 54.8 191.9 L 56 193.9 M 56 193.9 L 56 193.9 M 56 193.9 L 44.6 191.6 M 44.6 191.6 L 44.5 191.6 M 44.5 191.6 L 44.5 174.8 M 44.5 174.8 L 39.6 174.8 M 39.6 174.8 L 39.6 195.8 M 39.6 195.8 L 61.3 199.8 M 61.3 199.8 L 61.9 195 M 61.9 195 L 61.1 194.4 M 61.1 194.4 L 61.1 194.4 M 61.1 194.4 L 60.3 193.6 M 60.3 193.6 L 60.3 193.6 M 60.3 193.6 L 59.6 192.8 M 59.6 192.8 L 59.6 192.8 M 59.6 192.8 L 59 191.8 M 59 191.8 L 59 191.8 M 59 191.8 L 58.5 190.8 M 58.5 190.8 L 58.5 190.8 M 58.5 190.8 L 58.1 189.7 M 58.1 189.7 L 58.1 189.7 M 58.1 189.7 L 57.9 188.5 M 57.9 188.5 L 57.9 188.5 M 57.9 188.5 L 57.9 187.3 M 57.9 187.3 L 57.9 187.3 M 57.9 187.3 L 58 185.4 M 58 185.4 L 58 185.4 M 58 185.4 L 58.5 183.6 M 58.5 183.6 L 58.5 183.6 M 58.5 183.6 L 59.3 182.1 M 59.3 182.1 L 59.3 182.1 M 59.3 182.1 L 60.4 180.7 M 60.4 180.7 L 60.4 180.7 M 60.4 180.7 L 61.8 179.7 M 61.8 179.7 L 61.8 179.7 M 61.8 179.7 L 63.5 178.9 M 63.5 178.9 L 63.5 178.9 M 63.5 178.9 L 65.3 178.4 M 65.3 178.4 L 65.3 178.4 M 65.3 178.4 L 67.5 178.2 M 67.5 178.2 L 67.5 178.2 M 67.5 178.2 L 69.7 178.4 M 69.7 178.4 L 69.7 178.4 M 69.7 178.4 L 71.7 178.9 M 71.7 178.9 L 71.7 178.9 M 71.7 178.9 L 73.4 179.7 M 73.4 179.7 L 73.4 179.7 M 73.4 179.7 L 74.9 180.8 M 74.9 180.8 L 74.9 180.8 M 74.9 180.8 L 76.2 182.2 M 76.2 182.2 L 76.2 182.2 M 76.2 182.2 L 77.1 183.7 M 77.1 183.7 L 77.1 183.7 M 77.1 183.7 L 77.6 185.4 M 77.6 185.4 L 77.6 185.4 M 77.6 185.4 L 77.8 187.2 M 77.8 187.2 L 77.8 187.2 M 77.8 187.2 L 77.7 188.7 M 77.7 188.7 L 77.7 188.7 M 77.7 188.7 L 77.3 190.1 M 77.3 190.1 L 77.3 190.1 M 77.3 190.1 L 76.7 191.4 M 76.7 191.4 L 76.7 191.4 M 76.7 191.4 L 75.8 192.5 M 75.8 192.5 L 75.8 192.5 M 75.8 192.5 L 74.7 193.5 M 74.7 193.5 L 74.7 193.5 M 74.7 193.5 L 73.3 194.4 M 73.3 194.4 L 73.3 194.4 M 73.3 194.4 L 71.7 194.9 M 71.7 194.9 L 71.7 194.9 M 71.7 194.9 L 69.8 195.3 M 69.8 195.3 L 70.3 200.8 M 70.3 200.8 L 72.8 200.3 M 72.8 200.3 L 75.1 199.5 M 75.1 199.5 L 77.1 198.2 M 77.1 198.2 L 78.8 196.6 M 78.8 196.6 L 80.2 194.7 M 80.2 194.7 L 81.2 192.4 M 81.2 192.4 L 81.8 189.9 M 81.8 189.9 L 82 187.2 M 82 187.2 L 81.7 183.9 M 243.8 357.5 L 243.8 357.5 M 243.8 357.5 L 243.8 357.5 M 243.8 357.5 L 243.8 353.7 M 243.8 353.7 L 240.7 353.7 M 240.7 353.7 L 240.7 357.5 M 240.7 357.5 L 240.7 357.5 M 240.7 357.5 L 222.5 357.5 M 222.5 357.5 L 222.5 360.3 M 222.5 360.3 L 240.7 373.1 M 240.7 373.1 L 243.8 373.1 M 243.8 373.1 L 243.8 360.9 M 243.8 360.9 L 243.8 360.9 M 243.8 360.9 L 250.6 360.9 M 250.6 360.9 L 250.6 357.5 M 250.6 357.5 L 243.8 357.5 M 228.1 361 L 228.1 361 M 228.1 361 L 240.7 369.7 M 240.7 369.7 L 240.7 361 M 240.7 361 L 228.1 361 M 238.7 329 L 238.7 329 M 238.7 329 L 238.7 339.5 M 238.7 339.5 L 242.1 339.5 M 242.1 339.5 L 242.1 329 M 242.1 329 L 238.7 329 M 243.8 300.6 L 243.8 300.6 M 243.8 300.6 L 243.8 300.6 M 243.8 300.6 L 243.8 296.8 M 243.8 296.8 L 240.7 296.8 M 240.7 296.8 L 240.7 300.6 M 240.7 300.6 L 240.7 300.6 M 240.7 300.6 L 222.5 300.6 M 222.5 300.6 L 222.5 303.4 M 222.5 303.4 L 240.7 316.2 M 240.7 316.2 L 243.8 316.2 M 243.8 316.2 L 243.8 304 M 243.8 304 L 243.8 304 M 243.8 304 L 250.6 304 M 250.6 304 L 250.6 300.6 M 250.6 300.6 L 243.8 300.6 M 228.1 304.1 L 228.1 304.1 M 228.1 304.1 L 240.7 312.9 M 240.7 312.9 L 240.7 304.1 M 240.7 304.1 L 228.1 304.1 M 104.2 359 L 104.2 359 M 104.2 359 L 104.2 361.2 M 104.2 361.2 L 105.1 361.8 M 105.1 361.8 L 105.1 361.8 M 105.1 361.8 L 106.1 362.4 M 106.1 362.4 L 106.1 362.4 M 106.1 362.4 L 107 363.3 M 107 363.3 L 107 363.3 M 107 363.3 L 108 364.3 M 108 364.3 L 108 364.3 M 108 364.3 L 108.9 365.4 M 108.9 365.4 L 108.9 365.4 M 108.9 365.4 L 109.8 366.6 M 109.8 366.6 L 109.8 366.6 M 109.8 366.6 L 110.6 368 M 110.6 368 L 110.6 368 M 110.6 368 L 111.3 369.4 M 111.3 369.4 L 114.6 369.4 M 114.6 369.4 L 114.3 368.6 M 114.3 368.6 L 113.9 367.7 M 113.9 367.7 L 113.4 366.7 M 113.4 366.7 L 112.8 365.7 M 112.8 365.7 L 112.2 364.8 M 112.2 364.8 L 111.6 363.9 M 111.6 363.9 L 111 363.1 M 111 363.1 L 110.4 362.5 M 110.4 362.5 L 110.5 362.4 M 110.5 362.4 L 132.5 362.4 M 132.5 362.4 L 132.5 359 M 132.5 359 L 104.2 359 M 120.6 329 L 120.6 329 M 120.6 329 L 120.6 339.5 M 120.6 339.5 L 124 339.5 M 124 339.5 L 124 329 M 124 329 L 120.6 329 M 104.2 302.1 L 104.2 302.1 M 104.2 302.1 L 104.2 304.3 M 104.2 304.3 L 105.1 304.9 M 105.1 304.9 L 105.1 304.9 M 105.1 304.9 L 106.1 305.5 M 106.1 305.5 L 106.1 305.5 M 106.1 305.5 L 107 306.4 M 107 306.4 L 107 306.4 M 107 306.4 L 108 307.4 M 108 307.4 L 108 307.4 M 108 307.4 L 108.9 308.5 M 108.9 308.5 L 108.9 308.5 M 108.9 308.5 L 109.8 309.7 M 109.8 309.7 L 109.8 309.7 M 109.8 309.7 L 110.6 311.1 M 110.6 311.1 L 110.6 311.1 M 110.6 311.1 L 111.3 312.5 M 111.3 312.5 L 114.6 312.5 M 114.6 312.5 L 114.3 311.7 M 114.3 311.7 L 113.9 310.8 M 113.9 310.8 L 113.4 309.9 M 113.4 309.9 L 112.8 308.9 M 112.8 308.9 L 112.2 307.9 M 112.2 307.9 L 111.6 307 M 111.6 307 L 111 306.2 M 111 306.2 L 110.4 305.6 M 110.4 305.6 L 110.5 305.6 M 110.5 305.6 L 132.5 305.6 M 132.5 305.6 L 132.5 302.1 M 132.5 302.1 L 104.2 302.1 M 168.6 353.9 L 168.6 353.9 M 168.6 353.9 L 168.6 367.7 M 168.6 367.7 L 168.6 367.7 M 168.6 367.7 L 168.1 367.4 M 168.1 367.4 L 168.1 367.4 M 168.1 367.4 L 167.6 367 M 167.6 367 L 167.6 367 M 167.6 367 L 167.1 366.6 M 167.1 366.6 L 167.1 366.6 M 167.1 366.6 L 166.7 366.2 M 166.7 366.2 L 166.7 366.2 M 166.7 366.2 L 166.1 365.6 M 166.1 365.6 L 166.1 365.6 M 166.1 365.6 L 165.3 364.8 M 165.3 364.8 L 165.3 364.8 M 165.3 364.8 L 164.3 363.6 M 164.3 363.6 L 164.3 363.6 M 164.3 363.6 L 163.1 362.2 M 163.1 362.2 L 161.6 360.5 M 161.6 360.5 L 160.3 359 M 160.3 359 L 159.2 357.8 M 159.2 357.8 L 158.2 356.9 M 158.2 356.9 L 157.3 356.1 M 157.3 356.1 L 156.4 355.5 M 156.4 355.5 L 155.5 355 M 155.5 355 L 154.7 354.6 M 154.7 354.6 L 153.9 354.3 M 153.9 354.3 L 153.1 354.1 M 153.1 354.1 L 152.2 354 M 152.2 354 L 151.4 353.9 M 151.4 353.9 L 149.8 354 M 149.8 354 L 148.4 354.5 M 148.4 354.5 L 147 355.2 M 147 355.2 L 145.8 356.2 M 145.8 356.2 L 144.9 357.5 M 144.9 357.5 L 144.2 359 M 144.2 359 L 143.7 360.7 M 143.7 360.7 L 143.6 362.7 M 143.6 362.7 L 143.7 364.6 M 143.7 364.6 L 144.1 366.3 M 144.1 366.3 L 144.7 367.8 M 144.7 367.8 L 145.7 369 M 145.7 369 L 146.8 370.1 M 146.8 370.1 L 148.2 370.9 M 148.2 370.9 L 149.9 371.5 M 149.9 371.5 L 151.7 371.8 M 151.7 371.8 L 152.1 368.3 M 152.1 368.3 L 150.8 368.2 M 150.8 368.2 L 150.8 368.2 M 150.8 368.2 L 149.7 367.9 M 149.7 367.9 L 149.7 367.9 M 149.7 367.9 L 148.8 367.4 M 148.8 367.4 L 148.8 367.4 M 148.8 367.4 L 147.9 366.8 M 147.9 366.8 L 147.9 366.8 M 147.9 366.8 L 147.3 365.9 M 147.3 365.9 L 147.3 365.9 M 147.3 365.9 L 146.8 365 M 146.8 365 L 146.8 365 M 146.8 365 L 146.5 363.9 M 146.5 363.9 L 146.5 363.9 M 146.5 363.9 L 146.4 362.7 M 146.4 362.7 L 146.4 362.7 M 146.4 362.7 L 146.5 361.6 M 146.5 361.6 L 146.5 361.6 M 146.5 361.6 L 146.8 360.6 M 146.8 360.6 L 146.8 360.6 M 146.8 360.6 L 147.2 359.7 M 147.2 359.7 L 147.2 359.7 M 147.2 359.7 L 147.9 358.9 M 147.9 358.9 L 147.9 358.9 M 147.9 358.9 L 148.6 358.2 M 148.6 358.2 L 148.6 358.2 M 148.6 358.2 L 149.4 357.8 M 149.4 357.8 L 149.4 357.8 M 149.4 357.8 L 150.3 357.5 M 150.3 357.5 L 150.3 357.5 M 150.3 357.5 L 151.3 357.4 M 151.3 357.4 L 151.3 357.4 M 151.3 357.4 L 152.3 357.5 M 152.3 357.5 L 152.3 357.5 M 152.3 357.5 L 153.4 357.8 M 153.4 357.8 L 153.4 357.8 M 153.4 357.8 L 154.4 358.3 M 154.4 358.3 L 154.4 358.3 M 154.4 358.3 L 155.5 359 M 155.5 359 L 155.5 359 M 155.5 359 L 156.7 360 M 156.7 360 L 156.7 360 M 156.7 360 L 158.1 361.4 M 158.1 361.4 L 158.1 361.4 M 158.1 361.4 L 159.7 363.1 M 159.7 363.1 L 159.7 363.1 M 159.7 363.1 L 161.5 365.3 M 161.5 365.3 L 161.5 365.3 M 161.5 365.3 L 162.7 366.6 M 162.7 366.6 L 163.8 367.9 M 163.8 367.9 L 164.8 368.9 M 164.8 368.9 L 165.7 369.8 M 165.7 369.8 L 166.7 370.5 M 166.7 370.5 L 167.6 371.1 M 167.6 371.1 L 168.5 371.6 M 168.5 371.6 L 169.5 372 M 169.5 372 L 170.1 372.2 M 170.1 372.2 L 170.6 372.4 M 170.6 372.4 L 171.2 372.4 M 171.2 372.4 L 171.8 372.5 M 171.8 372.5 L 171.8 353.9 M 171.8 353.9 L 168.6 353.9 M 159.9 329 L 159.9 329 M 159.9 329 L 159.9 339.5 M 159.9 339.5 L 163.4 339.5 M 163.4 339.5 L 163.4 329 M 163.4 329 L 159.9 329 M 168.6 297 L 168.6 297 M 168.6 297 L 168.6 310.8 M 168.6 310.8 L 168.6 310.8 M 168.6 310.8 L 168.1 310.5 M 168.1 310.5 L 168.1 310.5 M 168.1 310.5 L 167.6 310.1 M 167.6 310.1 L 167.6 310.1 M 167.6 310.1 L 167.1 309.7 M 167.1 309.7 L 167.1 309.7 M 167.1 309.7 L 166.7 309.4 M 166.7 309.4 L 166.7 309.4 M 166.7 309.4 L 166.1 308.8 M 166.1 308.8 L 166.1 308.8 M 166.1 308.8 L 165.3 307.9 M 165.3 307.9 L 165.3 307.9 M 165.3 307.9 L 164.3 306.8 M 164.3 306.8 L 164.3 306.8 M 164.3 306.8 L 163.1 305.3 M 163.1 305.3 L 161.6 303.6 M 161.6 303.6 L 160.3 302.1 M 160.3 302.1 L 159.2 300.9 M 159.2 300.9 L 158.2 300 M 158.2 300 L 157.3 299.3 M 157.3 299.3 L 156.4 298.6 M 156.4 298.6 L 155.5 298.1 M 155.5 298.1 L 154.7 297.7 M 154.7 297.7 L 153.9 297.4 M 153.9 297.4 L 153.1 297.2 M 153.1 297.2 L 152.2 297.1 M 152.2 297.1 L 151.4 297 M 151.4 297 L 149.8 297.1 M 149.8 297.1 L 148.4 297.6 M 148.4 297.6 L 147 298.3 M 147 298.3 L 145.8 299.4 M 145.8 299.4 L 144.9 300.6 M 144.9 300.6 L 144.2 302.1 M 144.2 302.1 L 143.7 303.9 M 143.7 303.9 L 143.6 305.8 M 143.6 305.8 L 143.7 307.7 M 143.7 307.7 L 144.1 309.4 M 144.1 309.4 L 144.7 310.9 M 144.7 310.9 L 145.7 312.2 M 145.7 312.2 L 146.8 313.2 M 146.8 313.2 L 148.2 314 M 148.2 314 L 149.9 314.6 M 149.9 314.6 L 151.7 314.9 M 151.7 314.9 L 152.1 311.4 M 152.1 311.4 L 150.8 311.3 M 150.8 311.3 L 150.8 311.3 M 150.8 311.3 L 149.7 311 M 149.7 311 L 149.7 311 M 149.7 311 L 148.8 310.5 M 148.8 310.5 L 148.8 310.5 M 148.8 310.5 L 147.9 309.9 M 147.9 309.9 L 147.9 309.9 M 147.9 309.9 L 147.3 309.1 M 147.3 309.1 L 147.3 309.1 M 147.3 309.1 L 146.8 308.1 M 146.8 308.1 L 146.8 308.1 M 146.8 308.1 L 146.5 307.1 M 146.5 307.1 L 146.5 307.1 M 146.5 307.1 L 146.4 305.8 M 146.4 305.8 L 146.4 305.8 M 146.4 305.8 L 146.5 304.7 M 146.5 304.7 L 146.5 304.7 M 146.5 304.7 L 146.8 303.7 M 146.8 303.7 L 146.8 303.7 M 146.8 303.7 L 147.2 302.8 M 147.2 302.8 L 147.2 302.8 M 147.2 302.8 L 147.9 302 M 147.9 302 L 147.9 302 M 147.9 302 L 148.6 301.4 M 148.6 301.4 L 148.6 301.4 M 148.6 301.4 L 149.4 300.9 M 149.4 300.9 L 149.4 300.9 M 149.4 300.9 L 150.3 300.6 M 150.3 300.6 L 150.3 300.6 M 150.3 300.6 L 151.3 300.5 M 151.3 300.5 L 151.3 300.5 M 151.3 300.5 L 152.3 300.6 M 152.3 300.6 L 152.3 300.6 M 152.3 300.6 L 153.4 300.9 M 153.4 300.9 L 153.4 300.9 M 153.4 300.9 L 154.4 301.4 M 154.4 301.4 L 154.4 301.4 M 154.4 301.4 L 155.5 302.1 M 155.5 302.1 L 155.5 302.1 M 155.5 302.1 L 156.7 303.1 M 156.7 303.1 L 156.7 303.1 M 156.7 303.1 L 158.1 304.5 M 158.1 304.5 L 158.1 304.5 M 158.1 304.5 L 159.7 306.2 M 159.7 306.2 L 159.7 306.2 M 159.7 306.2 L 161.5 308.4 M 161.5 308.4 L 161.5 308.4 M 161.5 308.4 L 162.7 309.7 M 162.7 309.7 L 163.8 311 M 163.8 311 L 164.8 312 M 164.8 312 L 165.7 312.9 M 165.7 312.9 L 166.7 313.6 M 166.7 313.6 L 167.6 314.2 M 167.6 314.2 L 168.5 314.7 M 168.5 314.7 L 169.5 315.2 M 169.5 315.2 L 170.1 315.4 M 170.1 315.4 L 170.6 315.5 M 170.6 315.5 L 171.2 315.6 M 171.2 315.6 L 171.8 315.6 M 171.8 315.6 L 171.8 297 M 171.8 297 L 168.6 297"/></g></g><use class="pcb_board-cf" mask="url(#pcb_bottom-cu_finish-mask)" xlink:href="#pcb_bottom-sm"/></g></g></svg>