<?xml-stylesheet href="https://s3.amazonaws.com/maker.works.boards/css/blackpcb.css" type="text/css"?><svg xmlns="http://www.w3.org/2000/svg" version="1.1" xmlns:xlink="http://www.w3.org/1999/xlink" stroke-width="0" stroke-linecap="round" stroke-linejoin="round" width="1.2598in" height="0.6496000000000001in" id="pcb_top" viewBox="7.5 7.5 1259.8 649.6"><defs><circle cx="0" cy="0" r="17.5" id="tool-T10-pad-1000"/><circle cx="0" cy="0" r="64" id="tool-T11-pad-1001"/><circle cx="0" cy="0" r="17.5" id="tool-T12-pad-1002"/><circle cx="0" cy="0" r="63" id="tool-T13-pad-1003"/><circle cx="0" cy="0" r="29.35" id="tool-D11-pad-1011"/><circle cx="0" cy="0" r="29.55" id="tool-D12-pad-1012"/><circle cx="0" cy="0" r="9.85" id="tool-D11-pad-1014"/><circle cx="0" cy="0" r="9.85" id="tool-D12-pad-1015"/><circle cx="0" cy="0" r="29.35" id="tool-D10-pad-1016"/><circle cx="0" cy="0" r="29.55" id="tool-D11-pad-1017"/><g id="pcb_top-cu" fill="currentColor" stroke="currentColor"><path stroke-width="20" fill="none" d="M 869.7 397.3 L 922.7 450.2 M 662.2 257.3 L 762.2 357.3 M 520.5 145.3 L 838.2 145.3 M 838.2 145.3 L 869.7 176.8 M 869.7 357.3 L 869.7 397.3 M 762.2 357.3 L 869.7 357.3 M 389.4 376.4 L 389.4 432.7 M 743.7 407.3 L 822.7 407.3 M 693.7 357.3 L 743.7 407.3 M 869.7 307.3 L 919.7 357.3 M 869.7 176.8 L 869.7 307.3 M 558.5 257.3 L 662.2 257.3 M 458.5 307.3 L 389.4 376.4 M 558.5 357.3 L 693.7 357.3 M 389.4 432.7 L 464.2 507.5 M 458.5 207.3 L 520.5 145.3 M 464.2 507.5 L 822.5 507.5"/><use x="822.7" y="207.3" xlink:href="#tool-D11-pad-1011"/><use x="822.7" y="307.3" xlink:href="#tool-D11-pad-1011"/><use x="822.7" y="407.3" xlink:href="#tool-D11-pad-1011"/><use x="822.7" y="507.3" xlink:href="#tool-D11-pad-1011"/><use x="922.7" y="457.3" xlink:href="#tool-D11-pad-1011"/><use x="922.7" y="357.3" xlink:href="#tool-D11-pad-1011"/><use x="922.7" y="257.3" xlink:href="#tool-D11-pad-1011"/><use x="922.7" y="157.3" xlink:href="#tool-D11-pad-1011"/><use x="558.5" y="457.3" xlink:href="#tool-D12-pad-1012"/><use x="558.5" y="357.3" xlink:href="#tool-D12-pad-1012"/><use x="558.5" y="257.3" xlink:href="#tool-D12-pad-1012"/><use x="458.5" y="207.3" xlink:href="#tool-D12-pad-1012"/><use x="458.5" y="307.3" xlink:href="#tool-D12-pad-1012"/><use x="458.5" y="407.3" xlink:href="#tool-D12-pad-1012"/></g><mask id="pcb_top_mech-mask" fill="#fff" stroke="#fff" fill-rule="evenodd"><path stroke-width="0" d="M 7.5 7.5 L 7.5 657.1 L 1267.3 657.1 L 1267.3 7.5 Z"/><g id="pcb_top-drl" fill="#000" stroke="#000"><use x="822.7" y="207.3" xlink:href="#tool-T10-pad-1000"/><use x="822.7" y="307.3" xlink:href="#tool-T10-pad-1000"/><use x="822.7" y="407.3" xlink:href="#tool-T10-pad-1000"/><use x="822.7" y="507.3" xlink:href="#tool-T10-pad-1000"/><use x="922.7" y="457.3" xlink:href="#tool-T10-pad-1000"/><use x="922.7" y="357.3" xlink:href="#tool-T10-pad-1000"/><use x="922.7" y="257.3" xlink:href="#tool-T10-pad-1000"/><use x="922.7" y="157.3" xlink:href="#tool-T10-pad-1000"/><use x="1172.7" y="107.3" xlink:href="#tool-T11-pad-1001"/><use x="1172.7" y="557.3" xlink:href="#tool-T11-pad-1001"/><use x="558.5" y="457.3" xlink:href="#tool-T12-pad-1002"/><use x="558.5" y="357.3" xlink:href="#tool-T12-pad-1002"/><use x="558.5" y="257.3" xlink:href="#tool-T12-pad-1002"/><use x="458.5" y="207.3" xlink:href="#tool-T12-pad-1002"/><use x="458.5" y="307.3" xlink:href="#tool-T12-pad-1002"/><use x="458.5" y="407.3" xlink:href="#tool-T12-pad-1002"/><use x="208.5" y="532.3" xlink:href="#tool-T13-pad-1003"/><use x="208.5" y="132.3" xlink:href="#tool-T13-pad-1003"/></g></mask></defs><g mask="url(#pcb_top_mech-mask)" transform="translate(0,664.6) scale(1,-1)"><rect x="7.5" y="7.5" width="1259.8" height="649.6" fill="currentColor" class="pcb_board-fr4"/><use class="pcb_board-cu" xlink:href="#pcb_top-cu"/><g><defs><g id="pcb_top-sm" fill="currentColor" stroke="currentColor"><use x="822.7" y="207.3" xlink:href="#tool-D10-pad-1016"/><use x="822.7" y="307.3" xlink:href="#tool-D10-pad-1016"/><use x="822.7" y="407.3" xlink:href="#tool-D10-pad-1016"/><use x="822.7" y="507.3" xlink:href="#tool-D10-pad-1016"/><use x="922.7" y="457.3" xlink:href="#tool-D10-pad-1016"/><use x="922.7" y="357.3" xlink:href="#tool-D10-pad-1016"/><use x="922.7" y="257.3" xlink:href="#tool-D10-pad-1016"/><use x="922.7" y="157.3" xlink:href="#tool-D10-pad-1016"/><use x="558.5" y="457.3" xlink:href="#tool-D11-pad-1017"/><use x="558.5" y="357.3" xlink:href="#tool-D11-pad-1017"/><use x="558.5" y="257.3" xlink:href="#tool-D11-pad-1017"/><use x="458.5" y="207.3" xlink:href="#tool-D11-pad-1017"/><use x="458.5" y="307.3" xlink:href="#tool-D11-pad-1017"/><use x="458.5" y="407.3" xlink:href="#tool-D11-pad-1017"/></g><mask id="pcb_top-sm_mask" color="#000"><rect x="7.5" y="7.5" width="1259.8" height="649.6" fill="#fff"/><use xlink:href="#pcb_top-sm"/></mask><mask id="pcb_top-cu_finish-mask" color="#fff"><use xlink:href="#pcb_top-cu"/></mask></defs><g mask="url(#pcb_top-sm_mask)"><rect x="7.5" y="7.5" width="1259.8" height="649.6" fill="currentColor" class="pcb_board-sm"/><g id="pcb_top-ss" class="pcb_board-ss" fill="currentColor" stroke="currentColor"><path stroke-width="5.9" fill="none" d="M 1274.8 22.1 L 759.9 22.1 M 759.9 22.1 L 759.9 642.5 M 759.9 642.5 L 1274.8 642.5 M 1585.5 642.5"/><use x="748.8" y="200.2" xlink:href="#tool-D11-pad-1014"/><path stroke-width="5.9" fill="none" d="M 25.6 600 L 750 600 M 750 600 L 750 64.6 M 750 64.6 L 25.6 64.6 M 25.6 64.6 L 25.6 600"/><use x="760.3" y="467.1" xlink:href="#tool-D12-pad-1015"/></g></g><use class="pcb_board-cf" mask="url(#pcb_top-cu_finish-mask)" xlink:href="#pcb_top-sm"/></g></g></svg>