<?xml-stylesheet href="https://s3.amazonaws.com/maker.works.boards/css/blackpcb_tss.css" type="text/css"?><svg xmlns="http://www.w3.org/2000/svg" version="1.1" xmlns:xlink="http://www.w3.org/1999/xlink" width="1.68765in" height="1.4592in" viewBox="37.05 73.1 1687.65 1459.2" stroke-linecap="round" stroke-linejoin="round" stroke-width="0" stroke="#000"><defs><rect x="-19.7" y="-88.6" width="39.4" height="177.2" id="tool-D11-pad-1033"/><g id="tool-D12-pad-1034"><rect x="-194" y="-10" width="388" height="20" transform="rotate(360)"/><rect x="-200" y="-4" width="400" height="8" transform="rotate(360)"/><circle cx="-194" cy="4" r="6"/><circle cx="194" cy="4" r="6"/><circle cx="194" cy="-4" r="6"/><circle cx="-194" cy="-4" r="6"/></g></defs><g fill="currentColor" stroke="currentColor" transform="translate(0,1605.3999999999999) scale(1,-1)"><path stroke-width="3.9" fill="none" d="M 922.9 342.1 L 922.9 1444.5 M 922.9 1444.5 L 1257.5 1444.5 M 1257.5 1444.5 L 1257.5 342.1 M 1257.5 342.1 L 922.9 342.1 M 932.7 352 L 932.7 1434.7 M 932.7 1434.7 L 1247.7 1434.7 M 1247.7 1434.7 L 1247.7 352 M 1247.7 352 L 932.7 352"/><use x="942.5" y="894.3" xlink:href="#tool-D11-pad-1033"/><use x="1090.2" y="1468.3" xlink:href="#tool-D12-pad-1034"/><path d="M 976.5 1489.3 L 976.5 1532.3 L 995.6 1532.3 L 998.2 1532.2 L 1000.6 1532 L 1002.6 1531.6 L 1004.3 1531.1 L 1005.7 1530.4 L 1007 1529.5 L 1008.1 1528.4 L 1009.1 1527 L 1009.9 1525.5 L 1010.4 1523.9 L 1010.7 1522.3 L 1010.8 1520.5 L 1010.7 1518.3 L 1010.1 1516.3 L 1009.2 1514.5 L 1007.9 1512.9 L 1006.2 1511.4 L 1004.1 1510.3 L 1001.6 1509.4 L 1000.2 1509.2 L 999.3 1513.8 L 1000.5 1514.1 L 1001.6 1514.6 L 1002.5 1515.2 L 1003.2 1515.8 L 1003.8 1516.7 L 1004.4 1517.6 L 1004.7 1518.5 L 1004.9 1519.5 L 1005 1520.5 L 1004.9 1522 L 1004.4 1523.3 L 1003.8 1524.5 L 1002.8 1525.6 L 1001.5 1526.4 L 999.9 1527 L 998 1527.4 L 995.8 1527.5 L 982.2 1527.5 L 982.2 1513.3 L 982.2 1513.3 L 994.4 1513.3 L 996.3 1513.4 L 997.9 1513.5 L 999.3 1513.8 L 1000.2 1509.2 L 998.8 1508.8 L 999.8 1508.3 L 1000.7 1507.8 L 1001.5 1507.2 L 1002.2 1506.7 L 1003.4 1505.5 L 1004.6 1504.2 L 1005.8 1502.7 L 1006.9 1501 L 1014.4 1489.3 L 1007.2 1489.3 L 1001.6 1498.2 L 1000.3 1500.1 L 999.3 1501.7 L 998.3 1503 L 997.4 1504.2 L 996.7 1505.1 L 995.9 1505.9 L 995.2 1506.6 L 994.5 1507 L 993.9 1507.4 L 993.2 1507.7 L 992.6 1508 L 991.9 1508.2 L 991.4 1508.3 L 990.7 1508.3 L 989.8 1508.4 L 988.8 1508.4 L 982.2 1508.4 L 982.2 1489.3 L 976.5 1489.3 L 976.5 1489.3 Z"/><path d="M 1040.4 1499.3 L 1045.8 1498.6 L 1045.1 1496.4 L 1044 1494.4 L 1042.7 1492.7 L 1041 1491.2 L 1039.2 1490.1 L 1037.1 1489.3 L 1034.7 1488.8 L 1032.1 1488.6 L 1028.9 1488.9 L 1026 1489.7 L 1023.5 1491 L 1021.3 1492.8 L 1019.6 1495.1 L 1018.3 1497.9 L 1017.6 1501 L 1017.3 1504.6 L 1017.6 1508.3 L 1018.3 1511.6 L 1019.6 1514.4 L 1021.4 1516.8 L 1023.6 1518.7 L 1026 1520.1 L 1028.8 1520.8 L 1031.9 1521.1 L 1032.3 1521.1 L 1031.9 1516.8 L 1030.2 1516.6 L 1028.6 1516.2 L 1027.1 1515.4 L 1025.8 1514.4 L 1024.7 1513.1 L 1023.9 1511.5 L 1023.3 1509.8 L 1023.1 1507.9 L 1023.1 1507.9 L 1040.5 1507.9 L 1040.2 1509.7 L 1039.8 1511.3 L 1039.2 1512.7 L 1038.4 1513.8 L 1037.1 1515.1 L 1035.6 1516 L 1033.8 1516.6 L 1031.9 1516.8 L 1032.3 1521.1 L 1034.8 1520.8 L 1037.5 1520.1 L 1039.9 1518.7 L 1042.1 1516.9 L 1043.8 1514.5 L 1045 1511.8 L 1045.8 1508.6 L 1046 1504.9 L 1046 1504.7 L 1046 1504.4 L 1046 1504 L 1046 1503.5 L 1022.8 1503.5 L 1023.1 1501.1 L 1023.6 1499 L 1024.5 1497.2 L 1025.7 1495.6 L 1027.1 1494.5 L 1028.6 1493.6 L 1030.3 1493.1 L 1032.2 1492.9 L 1033.6 1493.1 L 1034.9 1493.3 L 1036 1493.8 L 1037.1 1494.5 L 1038.1 1495.3 L 1039 1496.4 L 1039.7 1497.8 L 1040.4 1499.3 L 1040.4 1499.3 Z"/><path d="M 1072.7 1489.3 L 1072.7 1493.2 L 1070.3 1495.7 L 1070.3 1495.8 L 1071.4 1497.4 L 1072.1 1499.4 L 1072.6 1501.7 L 1072.7 1504.4 L 1072.6 1507.4 L 1072.1 1509.9 L 1071.4 1512.1 L 1070.3 1513.8 L 1069 1515.1 L 1067.5 1516 L 1065.9 1516.6 L 1064.2 1516.8 L 1062.5 1516.6 L 1061 1516 L 1059.6 1515.1 L 1058.3 1513.9 L 1057.3 1512.3 L 1056.6 1510.2 L 1056.1 1507.7 L 1056 1504.8 L 1056 1504.8 L 1056.1 1502 L 1056.6 1499.6 L 1057.4 1497.6 L 1058.5 1495.9 L 1059.8 1494.6 L 1061.2 1493.7 L 1062.8 1493.1 L 1064.4 1492.9 L 1066.1 1493.1 L 1067.7 1493.6 L 1069 1494.5 L 1070.3 1495.7 L 1072.7 1493.2 L 1071 1491.2 L 1069 1489.8 L 1066.6 1488.9 L 1064 1488.6 L 1062.1 1488.7 L 1060.4 1489.1 L 1058.7 1489.7 L 1057.1 1490.6 L 1055.6 1491.8 L 1054.4 1493.1 L 1053.2 1494.7 L 1052.3 1496.4 L 1051.5 1498.3 L 1051 1500.3 L 1050.6 1502.5 L 1050.6 1504.8 L 1050.6 1507.1 L 1050.9 1509.3 L 1051.4 1511.4 L 1052.1 1513.3 L 1053 1515.1 L 1054 1516.6 L 1055.3 1518 L 1056.8 1519.1 L 1058.4 1520 L 1060.1 1520.6 L 1061.8 1521 L 1063.7 1521.1 L 1065.1 1521 L 1066.4 1520.8 L 1067.6 1520.5 L 1068.7 1519.9 L 1069.8 1519.3 L 1070.7 1518.6 L 1071.6 1517.8 L 1072.3 1516.8 L 1072.3 1532.3 L 1077.5 1532.3 L 1077.5 1489.3 L 1072.7 1489.3 L 1072.7 1489.3 Z"/><path d="M 1108.2 1489.3 L 1098.7 1520.4 L 1104.2 1520.4 L 1109.1 1502.5 L 1111 1495.8 L 1111.1 1496.4 L 1111.4 1497.7 L 1111.9 1499.6 L 1112.6 1502.2 L 1117.5 1520.4 L 1122.9 1520.4 L 1127.6 1502.4 L 1129.2 1496.4 L 1131 1502.4 L 1136.3 1520.4 L 1141.4 1520.4 L 1131.7 1489.3 L 1126.2 1489.3 L 1121.2 1507.9 L 1120.1 1513.2 L 1113.8 1489.3 L 1108.2 1489.3 L 1108.2 1489.3 Z"/><path d="M 1145.8 1489.3 L 1145.8 1520.4 L 1151.1 1520.4 L 1151.1 1489.3 L 1145.8 1489.3 L 1145.8 1489.3 Z"/><path d="M 1145.8 1526.2 L 1145.8 1532.3 L 1151.1 1532.3 L 1151.1 1526.2 L 1145.8 1526.2 L 1145.8 1526.2 Z"/><path d="M 1159.1 1489.3 L 1159.1 1520.4 L 1163.8 1520.4 L 1163.8 1515.7 L 1164.7 1517.2 L 1165.6 1518.4 L 1166.4 1519.4 L 1167.2 1520.1 L 1168 1520.5 L 1168.8 1520.8 L 1169.7 1521 L 1170.6 1521.1 L 1171.9 1521 L 1173.3 1520.7 L 1174.6 1520.2 L 1176 1519.4 L 1174.2 1514.5 L 1173.2 1515 L 1172.3 1515.4 L 1171.3 1515.6 L 1170.3 1515.7 L 1169.5 1515.6 L 1168.7 1515.4 L 1167.9 1515.1 L 1167.2 1514.6 L 1166.6 1514.1 L 1166 1513.4 L 1165.6 1512.6 L 1165.3 1511.8 L 1164.9 1510.3 L 1164.6 1508.8 L 1164.4 1507.2 L 1164.4 1505.6 L 1164.4 1489.3 L 1159.1 1489.3 L 1159.1 1489.3 Z"/><path d="M 1200.5 1499.3 L 1205.9 1498.6 L 1205.1 1496.4 L 1204 1494.4 L 1202.7 1492.7 L 1201.1 1491.2 L 1199.2 1490.1 L 1197.1 1489.3 L 1194.8 1488.8 L 1192.2 1488.6 L 1189 1488.9 L 1186.1 1489.7 L 1183.6 1491 L 1181.4 1492.8 L 1179.6 1495.1 L 1178.4 1497.9 L 1177.6 1501 L 1177.4 1504.6 L 1177.6 1508.3 L 1178.4 1511.6 L 1179.7 1514.4 L 1181.4 1516.8 L 1183.6 1518.7 L 1186.1 1520.1 L 1188.8 1520.8 L 1191.9 1521.1 L 1192.3 1521.1 L 1191.9 1516.8 L 1190.2 1516.6 L 1188.6 1516.2 L 1187.2 1515.4 L 1185.8 1514.4 L 1184.7 1513.1 L 1184 1511.5 L 1183.4 1509.8 L 1183.1 1507.9 L 1183.1 1507.9 L 1200.5 1507.9 L 1200.3 1509.7 L 1199.8 1511.3 L 1199.2 1512.7 L 1198.5 1513.8 L 1197.1 1515.1 L 1195.6 1516 L 1193.9 1516.6 L 1191.9 1516.8 L 1192.3 1521.1 L 1194.9 1520.8 L 1197.6 1520.1 L 1200 1518.7 L 1202.1 1516.9 L 1203.8 1514.5 L 1205.1 1511.8 L 1205.8 1508.6 L 1206 1504.9 L 1206 1504.7 L 1206 1504.4 L 1206 1504 L 1206 1503.5 L 1182.8 1503.5 L 1183.1 1501.1 L 1183.7 1499 L 1184.6 1497.2 L 1185.7 1495.6 L 1187.1 1494.5 L 1188.6 1493.6 L 1190.4 1493.1 L 1192.2 1492.9 L 1193.6 1493.1 L 1194.9 1493.3 L 1196.1 1493.8 L 1197.2 1494.5 L 1198.2 1495.3 L 1199 1496.4 L 1199.8 1497.8 L 1200.5 1499.3 L 1200.5 1499.3 Z"/><path d="M 1289.5 738 L 1289.5 745.8 L 1281.8 745.8 L 1281.8 749.1 L 1289.5 749.1 L 1289.5 756.9 L 1292.9 756.9 L 1292.9 749.1 L 1300.7 749.1 L 1300.7 745.8 L 1292.9 745.8 L 1292.9 738 L 1289.5 738 L 1289.5 738 Z"/><path d="M 1304.6 740.8 L 1308.2 741.1 L 1308.5 739.9 L 1309 738.8 L 1309.5 737.9 L 1310.2 737.1 L 1311 736.5 L 1311.8 736.1 L 1312.7 735.8 L 1313.8 735.7 L 1315 735.8 L 1316.1 736.2 L 1317.1 736.8 L 1318.1 737.7 L 1318.8 738.7 L 1319.4 739.9 L 1319.7 741.2 L 1319.8 742.7 L 1319.7 744.2 L 1319.4 745.4 L 1318.9 746.5 L 1318.1 747.5 L 1317.2 748.2 L 1316.2 748.8 L 1315 749.1 L 1313.7 749.2 L 1312.9 749.2 L 1312.1 749 L 1311.4 748.8 L 1310.6 748.4 L 1310 748 L 1309.4 747.5 L 1308.9 747 L 1308.5 746.4 L 1305.2 746.9 L 1308 761.6 L 1322.2 761.6 L 1322.2 758.2 L 1310.8 758.2 L 1309.2 750.5 L 1310.5 751.3 L 1311.9 751.9 L 1313.2 752.2 L 1314.6 752.3 L 1316.4 752.1 L 1318.1 751.7 L 1319.6 750.8 L 1321 749.7 L 1322.1 748.3 L 1322.9 746.8 L 1323.4 745 L 1323.6 743.1 L 1323.4 741.2 L 1323 739.4 L 1322.3 737.8 L 1321.3 736.3 L 1319.8 734.8 L 1318 733.7 L 1316 733.1 L 1313.8 732.9 L 1311.9 733 L 1310.2 733.4 L 1308.7 734.1 L 1307.4 735 L 1306.3 736.2 L 1305.5 737.6 L 1304.9 739.1 L 1304.6 740.8 L 1304.6 740.8 Z"/><path d="M 1336.4 733.3 L 1325.3 761.9 L 1329.4 761.9 L 1336.9 741.2 L 1337.3 739.9 L 1337.7 738.7 L 1338.1 737.6 L 1338.4 736.5 L 1338.7 737.7 L 1339.1 738.8 L 1339.5 740 L 1339.9 741.2 L 1347.7 761.9 L 1351.5 761.9 L 1340.3 733.3 L 1336.4 733.3 L 1336.4 733.3 Z"/><path d="M 1289.5 838 L 1289.5 845.8 L 1281.8 845.8 L 1281.8 849.1 L 1289.5 849.1 L 1289.5 856.9 L 1292.9 856.9 L 1292.9 849.1 L 1300.7 849.1 L 1300.7 845.8 L 1292.9 845.8 L 1292.9 838 L 1289.5 838 L 1289.5 838 Z"/><path d="M 1317.8 833.3 L 1314.3 833.3 L 1314.3 855.7 L 1313.6 855.1 L 1312.8 854.5 L 1311.9 853.9 L 1311 853.3 L 1309.9 852.7 L 1309 852.3 L 1308.1 851.8 L 1307.3 851.5 L 1307.3 854.9 L 1308.7 855.6 L 1310 856.4 L 1311.3 857.3 L 1312.4 858.2 L 1313.4 859.2 L 1314.3 860.2 L 1315 861.1 L 1315.5 862.1 L 1317.8 862.1 L 1317.8 833.3 L 1317.8 833.3 Z"/><path d="M 1345.3 836.7 L 1345.3 833.3 L 1326.4 833.3 L 1326.4 834 L 1326.4 834.6 L 1326.6 835.2 L 1326.8 835.8 L 1327.2 836.7 L 1327.7 837.7 L 1328.4 838.6 L 1329.1 839.6 L 1330 840.5 L 1331 841.6 L 1332.3 842.7 L 1333.7 843.9 L 1335.8 845.7 L 1337.6 847.3 L 1339 848.8 L 1340 850 L 1340.7 851.1 L 1341.2 852.1 L 1341.6 853.2 L 1341.6 854.2 L 1341.6 855.2 L 1341.3 856.1 L 1340.8 857 L 1340.1 857.7 L 1339.4 858.4 L 1338.4 858.8 L 1337.4 859.1 L 1336.2 859.2 L 1335.1 859.1 L 1334 858.8 L 1333 858.3 L 1332.2 857.7 L 1331.5 856.8 L 1331 855.8 L 1330.7 854.7 L 1330.6 853.4 L 1327 853.8 L 1327.3 855.7 L 1327.9 857.3 L 1328.7 858.8 L 1329.8 859.9 L 1331.1 860.9 L 1332.7 861.6 L 1334.4 861.9 L 1336.3 862.1 L 1338.3 861.9 L 1340 861.5 L 1341.6 860.8 L 1342.9 859.8 L 1343.9 858.6 L 1344.7 857.2 L 1345.1 855.8 L 1345.3 854.1 L 1345.2 853.3 L 1345.1 852.4 L 1344.9 851.6 L 1344.5 850.8 L 1344.2 849.9 L 1343.6 849 L 1343 848.2 L 1342.2 847.3 L 1341.3 846.2 L 1340.1 845.1 L 1338.6 843.7 L 1336.8 842.2 L 1335.3 841 L 1334.2 840 L 1333.3 839.2 L 1332.7 838.6 L 1332.3 838.1 L 1331.9 837.7 L 1331.6 837.2 L 1331.2 836.7 L 1345.3 836.7 L 1345.3 836.7 Z"/><path d="M 1358.7 833.3 L 1347.6 861.9 L 1351.7 861.9 L 1359.1 841.2 L 1359.5 839.9 L 1359.9 838.7 L 1360.3 837.6 L 1360.6 836.5 L 1361 837.7 L 1361.4 838.8 L 1361.8 840 L 1362.2 841.2 L 1369.9 861.9 L 1373.8 861.9 L 1362.5 833.3 L 1358.7 833.3 L 1358.7 833.3 Z"/><path d="M 1280.8 1241.9 L 1280.8 1245.5 L 1291.6 1245.5 L 1291.6 1241.9 L 1280.8 1241.9 L 1280.8 1241.9 Z"/><path d="M 1307.8 1233.3 L 1304.3 1233.3 L 1304.3 1255.7 L 1303.6 1255.1 L 1302.8 1254.5 L 1301.9 1253.9 L 1300.9 1253.3 L 1299.9 1252.7 L 1299 1252.3 L 1298.1 1251.8 L 1297.2 1251.5 L 1297.2 1254.9 L 1298.6 1255.6 L 1300 1256.4 L 1301.2 1257.3 L 1302.4 1258.2 L 1303.4 1259.2 L 1304.3 1260.2 L 1305 1261.1 L 1305.5 1262.1 L 1307.8 1262.1 L 1307.8 1233.3 L 1307.8 1233.3 Z"/><path d="M 1335.3 1236.7 L 1335.3 1233.3 L 1316.3 1233.3 L 1316.3 1234 L 1316.4 1234.6 L 1316.6 1235.2 L 1316.8 1235.8 L 1317.1 1236.7 L 1317.7 1237.7 L 1318.3 1238.6 L 1319 1239.6 L 1319.9 1240.5 L 1321 1241.6 L 1322.2 1242.7 L 1323.6 1243.9 L 1325.8 1245.7 L 1327.6 1247.3 L 1329 1248.8 L 1329.9 1250 L 1330.7 1251.1 L 1331.2 1252.1 L 1331.5 1253.2 L 1331.6 1254.2 L 1331.5 1255.2 L 1331.2 1256.1 L 1330.8 1257 L 1330.1 1257.7 L 1329.3 1258.4 L 1328.4 1258.8 L 1327.3 1259.1 L 1326.2 1259.2 L 1325 1259.1 L 1323.9 1258.8 L 1323 1258.3 L 1322.1 1257.7 L 1321.5 1256.8 L 1321 1255.8 L 1320.7 1254.7 L 1320.6 1253.4 L 1317 1253.8 L 1317.3 1255.7 L 1317.9 1257.3 L 1318.7 1258.8 L 1319.8 1259.9 L 1321.1 1260.9 L 1322.6 1261.6 L 1324.4 1261.9 L 1326.3 1262.1 L 1328.2 1261.9 L 1330 1261.5 L 1331.5 1260.8 L 1332.8 1259.8 L 1333.9 1258.6 L 1334.6 1257.2 L 1335.1 1255.8 L 1335.2 1254.1 L 1335.2 1253.3 L 1335 1252.4 L 1334.8 1251.6 L 1334.5 1250.8 L 1334.1 1249.9 L 1333.6 1249 L 1332.9 1248.2 L 1332.2 1247.3 L 1331.2 1246.2 L 1330 1245.1 L 1328.5 1243.7 L 1326.8 1242.2 L 1325.3 1241 L 1324.2 1240 L 1323.3 1239.2 L 1322.7 1238.6 L 1322.3 1238.1 L 1321.9 1237.7 L 1321.5 1237.2 L 1321.2 1236.7 L 1335.3 1236.7 L 1335.3 1236.7 Z"/><path d="M 1348.6 1233.3 L 1337.5 1261.9 L 1341.6 1261.9 L 1349.1 1241.2 L 1349.5 1239.9 L 1349.9 1238.7 L 1350.3 1237.6 L 1350.6 1236.5 L 1350.9 1237.7 L 1351.3 1238.8 L 1351.7 1240 L 1352.1 1241.2 L 1359.9 1261.9 L 1363.7 1261.9 L 1352.5 1233.3 L 1348.6 1233.3 L 1348.6 1233.3 Z"/><path d="M 1296 1144.5 L 1296 1147.9 L 1308.2 1147.9 L 1308.2 1137.3 L 1306.8 1136.3 L 1305.3 1135.4 L 1303.9 1134.6 L 1302.4 1134 L 1300.9 1133.5 L 1299.4 1133.1 L 1297.9 1132.9 L 1296.3 1132.9 L 1294.2 1132.9 L 1292.3 1133.3 L 1290.4 1133.8 L 1288.6 1134.6 L 1287 1135.6 L 1285.6 1136.9 L 1284.4 1138.2 L 1283.4 1139.9 L 1282.7 1141.6 L 1282.1 1143.5 L 1281.8 1145.5 L 1281.7 1147.5 L 1281.8 1149.5 L 1282.1 1151.6 L 1282.7 1153.4 L 1283.4 1155.3 L 1284.4 1157 L 1285.6 1158.5 L 1286.9 1159.7 L 1288.4 1160.7 L 1290.1 1161.5 L 1292 1162 L 1293.9 1162.3 L 1296 1162.5 L 1297.5 1162.4 L 1299 1162.2 L 1300.3 1161.9 L 1301.6 1161.4 L 1302.8 1160.9 L 1303.9 1160.3 L 1304.8 1159.5 L 1305.6 1158.6 L 1306.2 1157.7 L 1306.8 1156.6 L 1307.3 1155.3 L 1307.7 1154 L 1304.3 1153 L 1304 1154 L 1303.6 1155 L 1303.2 1155.8 L 1302.7 1156.4 L 1302.2 1157 L 1301.6 1157.6 L 1300.8 1158.1 L 1300 1158.4 L 1299.1 1158.8 L 1298.1 1159 L 1297.1 1159.2 L 1296 1159.2 L 1294.8 1159.2 L 1293.6 1159 L 1292.5 1158.8 L 1291.6 1158.4 L 1290.6 1158 L 1289.8 1157.5 L 1289.1 1156.9 L 1288.5 1156.3 L 1287.9 1155.7 L 1287.5 1155 L 1287 1154.3 L 1286.7 1153.5 L 1286.2 1152.1 L 1285.8 1150.7 L 1285.6 1149.3 L 1285.6 1147.7 L 1285.6 1145.9 L 1285.9 1144.2 L 1286.3 1142.7 L 1286.9 1141.3 L 1287.6 1140.1 L 1288.5 1139.1 L 1289.5 1138.2 L 1290.7 1137.5 L 1292 1136.9 L 1293.3 1136.6 L 1294.7 1136.3 L 1296.1 1136.2 L 1297.3 1136.3 L 1298.5 1136.5 L 1299.7 1136.8 L 1300.9 1137.2 L 1302 1137.7 L 1303 1138.2 L 1303.8 1138.7 L 1304.5 1139.2 L 1304.5 1144.5 L 1296 1144.5 L 1296 1144.5 Z"/><path d="M 1313.7 1133.3 L 1313.7 1161.9 L 1317.6 1161.9 L 1332.6 1139.5 L 1332.6 1161.9 L 1336.3 1161.9 L 1336.3 1133.3 L 1332.4 1133.3 L 1317.3 1155.8 L 1317.3 1133.3 L 1313.7 1133.3 L 1313.7 1133.3 Z"/><path d="M 1342.6 1133.3 L 1342.6 1161.9 L 1352.4 1161.9 L 1352.4 1158.6 L 1346.4 1158.6 L 1346.4 1136.7 L 1346.4 1136.7 L 1352.5 1136.7 L 1353.9 1136.8 L 1355.1 1136.8 L 1356.1 1137 L 1357 1137.2 L 1357.7 1137.5 L 1358.4 1137.9 L 1359 1138.2 L 1359.5 1138.7 L 1360.2 1139.5 L 1360.7 1140.3 L 1361.2 1141.3 L 1361.6 1142.3 L 1362 1143.5 L 1362.2 1144.9 L 1362.3 1146.3 L 1362.4 1147.9 L 1362.3 1150 L 1362 1151.8 L 1361.6 1153.4 L 1360.9 1154.7 L 1360.1 1155.9 L 1359.3 1156.8 L 1358.4 1157.5 L 1357.3 1158 L 1356.5 1158.2 L 1355.3 1158.4 L 1354 1158.6 L 1352.4 1158.6 L 1352.4 1161.9 L 1352.5 1161.9 L 1354.1 1161.9 L 1355.5 1161.9 L 1356.6 1161.7 L 1357.6 1161.6 L 1358.8 1161.2 L 1359.9 1160.8 L 1360.9 1160.2 L 1361.8 1159.5 L 1362.9 1158.5 L 1363.8 1157.3 L 1364.5 1156 L 1365.2 1154.6 L 1365.7 1153.1 L 1366 1151.4 L 1366.2 1149.7 L 1366.3 1147.8 L 1366.2 1146.2 L 1366.1 1144.7 L 1365.9 1143.3 L 1365.5 1142 L 1365.1 1140.8 L 1364.7 1139.7 L 1364.2 1138.7 L 1363.6 1137.9 L 1363 1137.1 L 1362.3 1136.4 L 1361.7 1135.8 L 1361 1135.3 L 1360.3 1134.8 L 1359.4 1134.4 L 1358.5 1134.1 L 1357.6 1133.8 L 1356.5 1133.6 L 1355.4 1133.4 L 1354.2 1133.4 L 1353 1133.3 L 1342.6 1133.3 L 1342.6 1133.3 Z"/><path d="M 1296 1044.5 L 1296 1047.9 L 1308.2 1047.9 L 1308.2 1037.3 L 1306.8 1036.3 L 1305.3 1035.4 L 1303.9 1034.6 L 1302.4 1034 L 1300.9 1033.5 L 1299.4 1033.1 L 1297.9 1032.9 L 1296.3 1032.9 L 1294.2 1032.9 L 1292.3 1033.3 L 1290.4 1033.8 L 1288.6 1034.6 L 1287 1035.6 L 1285.6 1036.9 L 1284.4 1038.2 L 1283.4 1039.9 L 1282.7 1041.6 L 1282.1 1043.5 L 1281.8 1045.5 L 1281.7 1047.5 L 1281.8 1049.5 L 1282.1 1051.6 L 1282.7 1053.4 L 1283.4 1055.3 L 1284.4 1057 L 1285.6 1058.5 L 1286.9 1059.7 L 1288.4 1060.7 L 1290.1 1061.5 L 1292 1062 L 1293.9 1062.3 L 1296 1062.5 L 1297.5 1062.4 L 1299 1062.2 L 1300.3 1061.9 L 1301.6 1061.4 L 1302.8 1060.9 L 1303.9 1060.3 L 1304.8 1059.5 L 1305.6 1058.6 L 1306.2 1057.7 L 1306.8 1056.6 L 1307.3 1055.3 L 1307.7 1054 L 1304.3 1053 L 1304 1054 L 1303.6 1055 L 1303.2 1055.8 L 1302.7 1056.4 L 1302.2 1057 L 1301.6 1057.6 L 1300.8 1058.1 L 1300 1058.4 L 1299.1 1058.8 L 1298.1 1059 L 1297.1 1059.2 L 1296 1059.2 L 1294.8 1059.2 L 1293.6 1059 L 1292.5 1058.8 L 1291.6 1058.4 L 1290.6 1058 L 1289.8 1057.5 L 1289.1 1056.9 L 1288.5 1056.3 L 1287.9 1055.7 L 1287.5 1055 L 1287 1054.3 L 1286.7 1053.5 L 1286.2 1052.1 L 1285.8 1050.7 L 1285.6 1049.3 L 1285.6 1047.7 L 1285.6 1045.9 L 1285.9 1044.2 L 1286.3 1042.7 L 1286.9 1041.3 L 1287.6 1040.1 L 1288.5 1039.1 L 1289.5 1038.2 L 1290.7 1037.5 L 1292 1036.9 L 1293.3 1036.6 L 1294.7 1036.3 L 1296.1 1036.2 L 1297.3 1036.3 L 1298.5 1036.5 L 1299.7 1036.8 L 1300.9 1037.2 L 1302 1037.7 L 1303 1038.2 L 1303.8 1038.7 L 1304.5 1039.2 L 1304.5 1044.5 L 1296 1044.5 L 1296 1044.5 Z"/><path d="M 1313.7 1033.3 L 1313.7 1061.9 L 1317.6 1061.9 L 1332.6 1039.5 L 1332.6 1061.9 L 1336.3 1061.9 L 1336.3 1033.3 L 1332.4 1033.3 L 1317.3 1055.8 L 1317.3 1033.3 L 1313.7 1033.3 L 1313.7 1033.3 Z"/><path d="M 1342.6 1033.3 L 1342.6 1061.9 L 1352.4 1061.9 L 1352.4 1058.6 L 1346.4 1058.6 L 1346.4 1036.7 L 1346.4 1036.7 L 1352.5 1036.7 L 1353.9 1036.8 L 1355.1 1036.8 L 1356.1 1037 L 1357 1037.2 L 1357.7 1037.5 L 1358.4 1037.9 L 1359 1038.2 L 1359.5 1038.7 L 1360.2 1039.5 L 1360.7 1040.3 L 1361.2 1041.3 L 1361.6 1042.3 L 1362 1043.5 L 1362.2 1044.9 L 1362.3 1046.3 L 1362.4 1047.9 L 1362.3 1050 L 1362 1051.8 L 1361.6 1053.4 L 1360.9 1054.7 L 1360.1 1055.9 L 1359.3 1056.8 L 1358.4 1057.5 L 1357.3 1058 L 1356.5 1058.2 L 1355.3 1058.4 L 1354 1058.6 L 1352.4 1058.6 L 1352.4 1061.9 L 1352.5 1061.9 L 1354.1 1061.9 L 1355.5 1061.9 L 1356.6 1061.7 L 1357.6 1061.6 L 1358.8 1061.2 L 1359.9 1060.8 L 1360.9 1060.2 L 1361.8 1059.5 L 1362.9 1058.5 L 1363.8 1057.3 L 1364.5 1056 L 1365.2 1054.6 L 1365.7 1053.1 L 1366 1051.4 L 1366.2 1049.7 L 1366.3 1047.8 L 1366.2 1046.2 L 1366.1 1044.7 L 1365.9 1043.3 L 1365.5 1042 L 1365.1 1040.8 L 1364.7 1039.7 L 1364.2 1038.7 L 1363.6 1037.9 L 1363 1037.1 L 1362.3 1036.4 L 1361.7 1035.8 L 1361 1035.3 L 1360.3 1034.8 L 1359.4 1034.4 L 1358.5 1034.1 L 1357.6 1033.8 L 1356.5 1033.6 L 1355.4 1033.4 L 1354.2 1033.4 L 1353 1033.3 L 1342.6 1033.3 L 1342.6 1033.3 Z"/><path d="M 1296 944.5 L 1296 947.9 L 1308.2 947.9 L 1308.2 937.3 L 1306.8 936.3 L 1305.3 935.4 L 1303.9 934.6 L 1302.4 934 L 1300.9 933.5 L 1299.4 933.1 L 1297.9 932.9 L 1296.3 932.9 L 1294.2 932.9 L 1292.3 933.3 L 1290.4 933.8 L 1288.6 934.6 L 1287 935.6 L 1285.6 936.9 L 1284.4 938.2 L 1283.4 939.9 L 1282.7 941.6 L 1282.1 943.5 L 1281.8 945.5 L 1281.7 947.5 L 1281.8 949.5 L 1282.1 951.6 L 1282.7 953.4 L 1283.4 955.3 L 1284.4 957 L 1285.6 958.5 L 1286.9 959.7 L 1288.4 960.7 L 1290.1 961.5 L 1292 962 L 1293.9 962.3 L 1296 962.5 L 1297.5 962.4 L 1299 962.2 L 1300.3 961.9 L 1301.6 961.4 L 1302.8 960.9 L 1303.9 960.3 L 1304.8 959.5 L 1305.6 958.6 L 1306.2 957.7 L 1306.8 956.6 L 1307.3 955.3 L 1307.7 954 L 1304.3 953 L 1304 954 L 1303.6 955 L 1303.2 955.8 L 1302.7 956.4 L 1302.2 957 L 1301.6 957.6 L 1300.8 958.1 L 1300 958.4 L 1299.1 958.8 L 1298.1 959 L 1297.1 959.2 L 1296 959.2 L 1294.8 959.2 L 1293.6 959 L 1292.5 958.8 L 1291.6 958.4 L 1290.6 958 L 1289.8 957.5 L 1289.1 956.9 L 1288.5 956.3 L 1287.9 955.7 L 1287.5 955 L 1287 954.3 L 1286.7 953.5 L 1286.2 952.1 L 1285.8 950.7 L 1285.6 949.3 L 1285.6 947.7 L 1285.6 945.9 L 1285.9 944.2 L 1286.3 942.7 L 1286.9 941.3 L 1287.6 940.1 L 1288.5 939.1 L 1289.5 938.2 L 1290.7 937.5 L 1292 936.9 L 1293.3 936.6 L 1294.7 936.3 L 1296.1 936.2 L 1297.3 936.3 L 1298.5 936.5 L 1299.7 936.8 L 1300.9 937.2 L 1302 937.7 L 1303 938.2 L 1303.8 938.7 L 1304.5 939.2 L 1304.5 944.5 L 1296 944.5 L 1296 944.5 Z"/><path d="M 1313.7 933.3 L 1313.7 961.9 L 1317.6 961.9 L 1332.6 939.5 L 1332.6 961.9 L 1336.3 961.9 L 1336.3 933.3 L 1332.4 933.3 L 1317.3 955.8 L 1317.3 933.3 L 1313.7 933.3 L 1313.7 933.3 Z"/><path d="M 1342.6 933.3 L 1342.6 961.9 L 1352.4 961.9 L 1352.4 958.6 L 1346.4 958.6 L 1346.4 936.7 L 1346.4 936.7 L 1352.5 936.7 L 1353.9 936.8 L 1355.1 936.8 L 1356.1 937 L 1357 937.2 L 1357.7 937.5 L 1358.4 937.9 L 1359 938.2 L 1359.5 938.7 L 1360.2 939.5 L 1360.7 940.3 L 1361.2 941.3 L 1361.6 942.3 L 1362 943.5 L 1362.2 944.9 L 1362.3 946.3 L 1362.4 947.9 L 1362.3 950 L 1362 951.8 L 1361.6 953.4 L 1360.9 954.7 L 1360.1 955.9 L 1359.3 956.8 L 1358.4 957.5 L 1357.3 958 L 1356.5 958.2 L 1355.3 958.4 L 1354 958.6 L 1352.4 958.6 L 1352.4 961.9 L 1352.5 961.9 L 1354.1 961.9 L 1355.5 961.9 L 1356.6 961.7 L 1357.6 961.6 L 1358.8 961.2 L 1359.9 960.8 L 1360.9 960.2 L 1361.8 959.5 L 1362.9 958.5 L 1363.8 957.3 L 1364.5 956 L 1365.2 954.6 L 1365.7 953.1 L 1366 951.4 L 1366.2 949.7 L 1366.3 947.8 L 1366.2 946.2 L 1366.1 944.7 L 1365.9 943.3 L 1365.5 942 L 1365.1 940.8 L 1364.7 939.7 L 1364.2 938.7 L 1363.6 937.9 L 1363 937.1 L 1362.3 936.4 L 1361.7 935.8 L 1361 935.3 L 1360.3 934.8 L 1359.4 934.4 L 1358.5 934.1 L 1357.6 933.8 L 1356.5 933.6 L 1355.4 933.4 L 1354.2 933.4 L 1353 933.3 L 1342.6 933.3 L 1342.6 933.3 Z"/><path d="M 816.3 828 L 816.3 835.8 L 808.5 835.8 L 808.5 839.1 L 816.3 839.1 L 816.3 846.9 L 819.6 846.9 L 819.6 839.1 L 827.4 839.1 L 827.4 835.8 L 819.6 835.8 L 819.6 828 L 816.3 828 L 816.3 828 Z"/><path d="M 844.5 823.3 L 841 823.3 L 841 845.7 L 840.3 845.1 L 839.5 844.5 L 838.7 843.9 L 837.7 843.3 L 836.7 842.7 L 835.7 842.3 L 834.8 841.8 L 834 841.5 L 834 844.9 L 835.4 845.6 L 836.8 846.4 L 838 847.3 L 839.2 848.2 L 840.2 849.2 L 841 850.2 L 841.7 851.1 L 842.3 852.1 L 844.5 852.1 L 844.5 823.3 L 844.5 823.3 Z"/><path d="M 872 826.7 L 872 823.3 L 853.1 823.3 L 853.1 824 L 853.2 824.6 L 853.3 825.2 L 853.5 825.8 L 853.9 826.7 L 854.4 827.7 L 855.1 828.6 L 855.8 829.6 L 856.7 830.5 L 857.8 831.6 L 859 832.7 L 860.4 833.9 L 862.6 835.7 L 864.3 837.3 L 865.7 838.8 L 866.7 840 L 867.5 841.1 L 868 842.1 L 868.2 843.2 L 868.4 844.2 L 868.3 845.2 L 868 846.1 L 867.5 847 L 866.9 847.7 L 866.1 848.4 L 865.1 848.8 L 864.1 849.1 L 863 849.2 L 861.8 849.1 L 860.7 848.8 L 859.7 848.3 L 858.9 847.7 L 858.2 846.8 L 857.8 845.8 L 857.5 844.7 L 857.4 843.4 L 853.8 843.8 L 854.1 845.7 L 854.6 847.3 L 855.5 848.8 L 856.6 849.9 L 857.9 850.9 L 859.4 851.6 L 861.1 851.9 L 863.1 852.1 L 865 851.9 L 866.8 851.5 L 868.2 850.8 L 869.6 849.8 L 870.6 848.6 L 871.4 847.2 L 871.8 845.8 L 872 844.1 L 871.9 843.3 L 871.8 842.4 L 871.6 841.6 L 871.3 840.8 L 870.8 839.9 L 870.3 839 L 869.7 838.2 L 869 837.3 L 868 836.2 L 866.8 835.1 L 865.3 833.7 L 863.5 832.2 L 862.1 831 L 860.9 830 L 860.1 829.2 L 859.5 828.6 L 859 828.1 L 858.6 827.7 L 858.3 827.2 L 858 826.7 L 872 826.7 L 872 826.7 Z"/><path d="M 885.4 823.3 L 874.3 851.9 L 878.4 851.9 L 885.8 831.2 L 886.3 829.9 L 886.7 828.7 L 887 827.6 L 887.3 826.5 L 887.7 827.7 L 888.1 828.8 L 888.5 830 L 888.9 831.2 L 896.6 851.9 L 900.5 851.9 L 889.3 823.3 L 885.4 823.3 L 885.4 823.3 Z"/><path d="M 838.5 738 L 838.5 745.8 L 830.7 745.8 L 830.7 749.1 L 838.5 749.1 L 838.5 756.9 L 841.9 756.9 L 841.9 749.1 L 849.7 749.1 L 849.7 745.8 L 841.9 745.8 L 841.9 738 L 838.5 738 L 838.5 738 Z"/><path d="M 853.5 740.8 L 857.2 741.1 L 857.5 739.9 L 857.9 738.8 L 858.4 737.9 L 859.2 737.1 L 859.9 736.5 L 860.8 736.1 L 861.7 735.8 L 862.7 735.7 L 864 735.8 L 865.1 736.2 L 866.1 736.8 L 867 737.7 L 867.8 738.7 L 868.4 739.9 L 868.7 741.2 L 868.8 742.7 L 868.7 744.2 L 868.4 745.4 L 867.9 746.5 L 867.1 747.5 L 866.2 748.2 L 865.1 748.8 L 864 749.1 L 862.7 749.2 L 861.9 749.2 L 861.1 749 L 860.3 748.8 L 859.6 748.4 L 859 748 L 858.4 747.5 L 857.9 747 L 857.5 746.4 L 854.2 746.9 L 856.9 761.6 L 871.2 761.6 L 871.2 758.2 L 859.7 758.2 L 858.2 750.5 L 859.5 751.3 L 860.8 751.9 L 862.2 752.2 L 863.6 752.3 L 865.4 752.1 L 867.1 751.7 L 868.6 750.8 L 869.9 749.7 L 871.1 748.3 L 871.9 746.8 L 872.4 745 L 872.5 743.1 L 872.4 741.2 L 871.9 739.4 L 871.2 737.8 L 870.3 736.3 L 868.8 734.8 L 867 733.7 L 865 733.1 L 862.7 732.9 L 860.9 733 L 859.2 733.4 L 857.7 734.1 L 856.4 735 L 855.3 736.2 L 854.4 737.6 L 853.8 739.1 L 853.5 740.8 L 853.5 740.8 Z"/><path d="M 885.4 733.3 L 874.3 761.9 L 878.4 761.9 L 885.8 741.2 L 886.3 739.9 L 886.7 738.7 L 887 737.6 L 887.3 736.5 L 887.7 737.7 L 888.1 738.8 L 888.5 740 L 888.9 741.2 L 896.6 761.9 L 900.5 761.9 L 889.3 733.3 L 885.4 733.3 L 885.4 733.3 Z"/><path d="M 828.4 944.5 L 828.4 947.9 L 840.5 947.9 L 840.5 937.3 L 839.1 936.3 L 837.7 935.4 L 836.2 934.6 L 834.8 934 L 833.3 933.5 L 831.8 933.1 L 830.2 932.9 L 828.7 932.9 L 826.6 932.9 L 824.7 933.3 L 822.8 933.8 L 821 934.6 L 819.4 935.6 L 818 936.9 L 816.8 938.2 L 815.8 939.9 L 815 941.6 L 814.5 943.5 L 814.2 945.5 L 814 947.5 L 814.2 949.5 L 814.5 951.6 L 815 953.4 L 815.8 955.3 L 816.8 957 L 817.9 958.5 L 819.3 959.7 L 820.8 960.7 L 822.5 961.5 L 824.4 962 L 826.3 962.3 L 828.4 962.5 L 829.9 962.4 L 831.4 962.2 L 832.7 961.9 L 834 961.4 L 835.2 960.9 L 836.2 960.3 L 837.1 959.5 L 837.9 958.6 L 838.6 957.7 L 839.2 956.6 L 839.7 955.3 L 840.1 954 L 836.7 953 L 836.4 954 L 836 955 L 835.5 955.8 L 835.1 956.4 L 834.5 957 L 833.9 957.6 L 833.2 958.1 L 832.3 958.4 L 831.4 958.8 L 830.5 959 L 829.5 959.2 L 828.4 959.2 L 827.1 959.2 L 826 959 L 824.9 958.8 L 823.9 958.4 L 823 958 L 822.2 957.5 L 821.5 956.9 L 820.8 956.3 L 820.3 955.7 L 819.8 955 L 819.4 954.3 L 819 953.5 L 818.6 952.1 L 818.2 950.7 L 818 949.3 L 818 947.7 L 818.1 945.9 L 818.3 944.2 L 818.7 942.7 L 819.3 941.3 L 820 940.1 L 820.9 939.1 L 821.9 938.2 L 823.1 937.5 L 824.4 936.9 L 825.7 936.6 L 827.1 936.3 L 828.4 936.2 L 829.7 936.3 L 830.9 936.5 L 832.1 936.8 L 833.2 937.2 L 834.4 937.7 L 835.3 938.2 L 836.2 938.7 L 836.8 939.2 L 836.8 944.5 L 828.4 944.5 L 828.4 944.5 Z"/><path d="M 846.1 933.3 L 846.1 961.9 L 850 961.9 L 865 939.5 L 865 961.9 L 868.6 961.9 L 868.6 933.3 L 864.7 933.3 L 849.7 955.8 L 849.7 933.3 L 846.1 933.3 L 846.1 933.3 Z"/><path d="M 875 933.3 L 875 961.9 L 884.8 961.9 L 884.8 958.6 L 878.8 958.6 L 878.8 936.7 L 878.8 936.7 L 884.9 936.7 L 886.2 936.8 L 887.4 936.8 L 888.5 937 L 889.4 937.2 L 890.1 937.5 L 890.8 937.9 L 891.4 938.2 L 891.9 938.7 L 892.5 939.5 L 893.1 940.3 L 893.6 941.3 L 894 942.3 L 894.4 943.5 L 894.6 944.9 L 894.7 946.3 L 894.8 947.9 L 894.7 950 L 894.4 951.8 L 894 953.4 L 893.3 954.7 L 892.5 955.9 L 891.7 956.8 L 890.7 957.5 L 889.7 958 L 888.8 958.2 L 887.7 958.4 L 886.4 958.6 L 884.8 958.6 L 884.8 961.9 L 884.9 961.9 L 886.4 961.9 L 887.8 961.9 L 889 961.7 L 890 961.6 L 891.2 961.2 L 892.3 960.8 L 893.2 960.2 L 894.2 959.5 L 895.2 958.5 L 896.2 957.3 L 896.9 956 L 897.5 954.6 L 898.1 953.1 L 898.4 951.4 L 898.6 949.7 L 898.7 947.8 L 898.6 946.2 L 898.5 944.7 L 898.2 943.3 L 897.9 942 L 897.5 940.8 L 897 939.7 L 896.5 938.7 L 896 937.9 L 895.3 937.1 L 894.7 936.4 L 894 935.8 L 893.4 935.3 L 892.6 934.8 L 891.8 934.4 L 890.9 934.1 L 889.9 933.8 L 888.9 933.6 L 887.8 933.4 L 886.6 933.4 L 885.3 933.3 L 875 933.3 L 875 933.3 Z"/><path d="M 828.4 1044.5 L 828.4 1047.9 L 840.5 1047.9 L 840.5 1037.3 L 839.1 1036.3 L 837.7 1035.4 L 836.2 1034.6 L 834.8 1034 L 833.3 1033.5 L 831.8 1033.1 L 830.2 1032.9 L 828.7 1032.9 L 826.6 1032.9 L 824.7 1033.3 L 822.8 1033.8 L 821 1034.6 L 819.4 1035.6 L 818 1036.9 L 816.8 1038.2 L 815.8 1039.9 L 815 1041.6 L 814.5 1043.5 L 814.2 1045.5 L 814 1047.5 L 814.2 1049.5 L 814.5 1051.6 L 815 1053.4 L 815.8 1055.3 L 816.8 1057 L 817.9 1058.5 L 819.3 1059.7 L 820.8 1060.7 L 822.5 1061.5 L 824.4 1062 L 826.3 1062.3 L 828.4 1062.5 L 829.9 1062.4 L 831.4 1062.2 L 832.7 1061.9 L 834 1061.4 L 835.2 1060.9 L 836.2 1060.3 L 837.1 1059.5 L 837.9 1058.6 L 838.6 1057.7 L 839.2 1056.6 L 839.7 1055.3 L 840.1 1054 L 836.7 1053 L 836.4 1054 L 836 1055 L 835.5 1055.8 L 835.1 1056.4 L 834.5 1057 L 833.9 1057.6 L 833.2 1058.1 L 832.3 1058.4 L 831.4 1058.8 L 830.5 1059 L 829.5 1059.2 L 828.4 1059.2 L 827.1 1059.2 L 826 1059 L 824.9 1058.8 L 823.9 1058.4 L 823 1058 L 822.2 1057.5 L 821.5 1056.9 L 820.8 1056.3 L 820.3 1055.7 L 819.8 1055 L 819.4 1054.3 L 819 1053.5 L 818.6 1052.1 L 818.2 1050.7 L 818 1049.3 L 818 1047.7 L 818.1 1045.9 L 818.3 1044.2 L 818.7 1042.7 L 819.3 1041.3 L 820 1040.1 L 820.9 1039.1 L 821.9 1038.2 L 823.1 1037.5 L 824.4 1036.9 L 825.7 1036.6 L 827.1 1036.3 L 828.4 1036.2 L 829.7 1036.3 L 830.9 1036.5 L 832.1 1036.8 L 833.2 1037.2 L 834.4 1037.7 L 835.3 1038.2 L 836.2 1038.7 L 836.8 1039.2 L 836.8 1044.5 L 828.4 1044.5 L 828.4 1044.5 Z"/><path d="M 846.1 1033.3 L 846.1 1061.9 L 850 1061.9 L 865 1039.5 L 865 1061.9 L 868.6 1061.9 L 868.6 1033.3 L 864.7 1033.3 L 849.7 1055.8 L 849.7 1033.3 L 846.1 1033.3 L 846.1 1033.3 Z"/><path d="M 875 1033.3 L 875 1061.9 L 884.8 1061.9 L 884.8 1058.6 L 878.8 1058.6 L 878.8 1036.7 L 878.8 1036.7 L 884.9 1036.7 L 886.2 1036.8 L 887.4 1036.8 L 888.5 1037 L 889.4 1037.2 L 890.1 1037.5 L 890.8 1037.9 L 891.4 1038.2 L 891.9 1038.7 L 892.5 1039.5 L 893.1 1040.3 L 893.6 1041.3 L 894 1042.3 L 894.4 1043.5 L 894.6 1044.9 L 894.7 1046.3 L 894.8 1047.9 L 894.7 1050 L 894.4 1051.8 L 894 1053.4 L 893.3 1054.7 L 892.5 1055.9 L 891.7 1056.8 L 890.7 1057.5 L 889.7 1058 L 888.8 1058.2 L 887.7 1058.4 L 886.4 1058.6 L 884.8 1058.6 L 884.8 1061.9 L 884.9 1061.9 L 886.4 1061.9 L 887.8 1061.9 L 889 1061.7 L 890 1061.6 L 891.2 1061.2 L 892.3 1060.8 L 893.2 1060.2 L 894.2 1059.5 L 895.2 1058.5 L 896.2 1057.3 L 896.9 1056 L 897.5 1054.6 L 898.1 1053.1 L 898.4 1051.4 L 898.6 1049.7 L 898.7 1047.8 L 898.6 1046.2 L 898.5 1044.7 L 898.2 1043.3 L 897.9 1042 L 897.5 1040.8 L 897 1039.7 L 896.5 1038.7 L 896 1037.9 L 895.3 1037.1 L 894.7 1036.4 L 894 1035.8 L 893.4 1035.3 L 892.6 1034.8 L 891.8 1034.4 L 890.9 1034.1 L 889.9 1033.8 L 888.9 1033.6 L 887.8 1033.4 L 886.6 1033.4 L 885.3 1033.3 L 875 1033.3 L 875 1033.3 Z"/><path d="M 828.4 1144.5 L 828.4 1147.9 L 840.5 1147.9 L 840.5 1137.3 L 839.1 1136.3 L 837.7 1135.4 L 836.2 1134.6 L 834.8 1134 L 833.3 1133.5 L 831.8 1133.1 L 830.2 1132.9 L 828.7 1132.9 L 826.6 1132.9 L 824.7 1133.3 L 822.8 1133.8 L 821 1134.6 L 819.4 1135.6 L 818 1136.9 L 816.8 1138.2 L 815.8 1139.9 L 815 1141.6 L 814.5 1143.5 L 814.2 1145.5 L 814 1147.5 L 814.2 1149.5 L 814.5 1151.6 L 815 1153.4 L 815.8 1155.3 L 816.8 1157 L 817.9 1158.5 L 819.3 1159.7 L 820.8 1160.7 L 822.5 1161.5 L 824.4 1162 L 826.3 1162.3 L 828.4 1162.5 L 829.9 1162.4 L 831.4 1162.2 L 832.7 1161.9 L 834 1161.4 L 835.2 1160.9 L 836.2 1160.3 L 837.1 1159.5 L 837.9 1158.6 L 838.6 1157.7 L 839.2 1156.6 L 839.7 1155.3 L 840.1 1154 L 836.7 1153 L 836.4 1154 L 836 1155 L 835.5 1155.8 L 835.1 1156.4 L 834.5 1157 L 833.9 1157.6 L 833.2 1158.1 L 832.3 1158.4 L 831.4 1158.8 L 830.5 1159 L 829.5 1159.2 L 828.4 1159.2 L 827.1 1159.2 L 826 1159 L 824.9 1158.8 L 823.9 1158.4 L 823 1158 L 822.2 1157.5 L 821.5 1156.9 L 820.8 1156.3 L 820.3 1155.7 L 819.8 1155 L 819.4 1154.3 L 819 1153.5 L 818.6 1152.1 L 818.2 1150.7 L 818 1149.3 L 818 1147.7 L 818.1 1145.9 L 818.3 1144.2 L 818.7 1142.7 L 819.3 1141.3 L 820 1140.1 L 820.9 1139.1 L 821.9 1138.2 L 823.1 1137.5 L 824.4 1136.9 L 825.7 1136.6 L 827.1 1136.3 L 828.4 1136.2 L 829.7 1136.3 L 830.9 1136.5 L 832.1 1136.8 L 833.2 1137.2 L 834.4 1137.7 L 835.3 1138.2 L 836.2 1138.7 L 836.8 1139.2 L 836.8 1144.5 L 828.4 1144.5 L 828.4 1144.5 Z"/><path d="M 846.1 1133.3 L 846.1 1161.9 L 850 1161.9 L 865 1139.5 L 865 1161.9 L 868.6 1161.9 L 868.6 1133.3 L 864.7 1133.3 L 849.7 1155.8 L 849.7 1133.3 L 846.1 1133.3 L 846.1 1133.3 Z"/><path d="M 875 1133.3 L 875 1161.9 L 884.8 1161.9 L 884.8 1158.6 L 878.8 1158.6 L 878.8 1136.7 L 878.8 1136.7 L 884.9 1136.7 L 886.2 1136.8 L 887.4 1136.8 L 888.5 1137 L 889.4 1137.2 L 890.1 1137.5 L 890.8 1137.9 L 891.4 1138.2 L 891.9 1138.7 L 892.5 1139.5 L 893.1 1140.3 L 893.6 1141.3 L 894 1142.3 L 894.4 1143.5 L 894.6 1144.9 L 894.7 1146.3 L 894.8 1147.9 L 894.7 1150 L 894.4 1151.8 L 894 1153.4 L 893.3 1154.7 L 892.5 1155.9 L 891.7 1156.8 L 890.7 1157.5 L 889.7 1158 L 888.8 1158.2 L 887.7 1158.4 L 886.4 1158.6 L 884.8 1158.6 L 884.8 1161.9 L 884.9 1161.9 L 886.4 1161.9 L 887.8 1161.9 L 889 1161.7 L 890 1161.6 L 891.2 1161.2 L 892.3 1160.8 L 893.2 1160.2 L 894.2 1159.5 L 895.2 1158.5 L 896.2 1157.3 L 896.9 1156 L 897.5 1154.6 L 898.1 1153.1 L 898.4 1151.4 L 898.6 1149.7 L 898.7 1147.8 L 898.6 1146.2 L 898.5 1144.7 L 898.2 1143.3 L 897.9 1142 L 897.5 1140.8 L 897 1139.7 L 896.5 1138.7 L 896 1137.9 L 895.3 1137.1 L 894.7 1136.4 L 894 1135.8 L 893.4 1135.3 L 892.6 1134.8 L 891.8 1134.4 L 890.9 1134.1 L 889.9 1133.8 L 888.9 1133.6 L 887.8 1133.4 L 886.6 1133.4 L 885.3 1133.3 L 875 1133.3 L 875 1133.3 Z"/><path d="M 817.6 1241.9 L 817.6 1245.5 L 828.4 1245.5 L 828.4 1241.9 L 817.6 1241.9 L 817.6 1241.9 Z"/><path d="M 844.5 1233.3 L 841 1233.3 L 841 1255.7 L 840.3 1255.1 L 839.5 1254.5 L 838.7 1253.9 L 837.7 1253.3 L 836.7 1252.7 L 835.7 1252.3 L 834.8 1251.8 L 834 1251.5 L 834 1254.9 L 835.4 1255.6 L 836.8 1256.4 L 838 1257.3 L 839.2 1258.2 L 840.2 1259.2 L 841 1260.2 L 841.7 1261.1 L 842.3 1262.1 L 844.5 1262.1 L 844.5 1233.3 L 844.5 1233.3 Z"/><path d="M 872 1236.7 L 872 1233.3 L 853.1 1233.3 L 853.1 1234 L 853.2 1234.6 L 853.3 1235.2 L 853.5 1235.8 L 853.9 1236.7 L 854.4 1237.7 L 855.1 1238.6 L 855.8 1239.6 L 856.7 1240.5 L 857.8 1241.6 L 859 1242.7 L 860.4 1243.9 L 862.6 1245.7 L 864.3 1247.3 L 865.7 1248.8 L 866.7 1250 L 867.5 1251.1 L 868 1252.1 L 868.2 1253.2 L 868.4 1254.2 L 868.3 1255.2 L 868 1256.1 L 867.5 1257 L 866.9 1257.7 L 866.1 1258.4 L 865.1 1258.8 L 864.1 1259.1 L 863 1259.2 L 861.8 1259.1 L 860.7 1258.8 L 859.7 1258.3 L 858.9 1257.7 L 858.2 1256.8 L 857.8 1255.8 L 857.5 1254.7 L 857.4 1253.4 L 853.8 1253.8 L 854.1 1255.7 L 854.6 1257.3 L 855.5 1258.8 L 856.6 1259.9 L 857.9 1260.9 L 859.4 1261.6 L 861.1 1261.9 L 863.1 1262.1 L 865 1261.9 L 866.8 1261.5 L 868.2 1260.8 L 869.6 1259.8 L 870.6 1258.6 L 871.4 1257.2 L 871.8 1255.8 L 872 1254.1 L 871.9 1253.3 L 871.8 1252.4 L 871.6 1251.6 L 871.3 1250.8 L 870.8 1249.9 L 870.3 1249 L 869.7 1248.2 L 869 1247.3 L 868 1246.2 L 866.8 1245.1 L 865.3 1243.7 L 863.5 1242.2 L 862.1 1241 L 860.9 1240 L 860.1 1239.2 L 859.5 1238.6 L 859 1238.1 L 858.6 1237.7 L 858.3 1237.2 L 858 1236.7 L 872 1236.7 L 872 1236.7 Z"/><path d="M 885.4 1233.3 L 874.3 1261.9 L 878.4 1261.9 L 885.8 1241.2 L 886.3 1239.9 L 886.7 1238.7 L 887 1237.6 L 887.3 1236.5 L 887.7 1237.7 L 888.1 1238.8 L 888.5 1240 L 888.9 1241.2 L 896.6 1261.9 L 900.5 1261.9 L 889.3 1233.3 L 885.4 1233.3 L 885.4 1233.3 Z"/><path stroke-width="5.9" fill="none" d="M 394.9 947.5 L 394.9 1036 M 394.9 1036 L 722.5 1036 M 722.5 1036 L 722.5 947.5 M 722.5 947.5 L 394.9 947.5 M 1594.1 1262.8 A 74.85051770028048 74.85051770028048 0 0 1 1491.8 1262.8 M 1491.8 1154 A 74.85051770028048 74.85051770028048 0 0 1 1594.1 1154"/><path d="M 1443.3 1217.5 L 1443.3 1209.8 L 1451 1209.8 L 1451 1206.6 L 1443.3 1206.6 L 1443.3 1198.9 L 1440.1 1198.9 L 1440.1 1206.6 L 1432.4 1206.6 L 1432.4 1209.8 L 1440.1 1209.8 L 1440.1 1217.5 L 1443.3 1217.5 L 1443.3 1217.5 Z"/><path stroke-width="5.9" fill="none" d="M 1594.1 947.9 A 74.85051770028048 74.85051770028048 0 0 1 1491.8 947.9 M 1491.8 839 A 74.85051770028048 74.85051770028048 0 0 1 1594.1 839"/><path d="M 1443.3 902.5 L 1443.3 894.8 L 1451 894.8 L 1451 891.6 L 1443.3 891.6 L 1443.3 883.9 L 1440.1 883.9 L 1440.1 891.6 L 1432.4 891.6 L 1432.4 894.8 L 1440.1 894.8 L 1440.1 902.5 L 1443.3 902.5 L 1443.3 902.5 Z"/><path stroke-width="5.9" fill="none" d="M 369.7 482.9 L 369.7 1303.8 M 369.7 1303.8 L 747.7 1303.8 M 747.7 1303.8 L 747.7 482.9 M 747.7 482.9 L 369.7 482.9"/><path stroke-width="19.7" fill="none" d="M 46.9 1090.2 L 46.9 1287 M 46.9 1287 L 361.8 1287 M 361.8 1287 L 361.8 1090.2 M 361.8 1090.2 L 46.9 1090.2 M 46.9 893.3 L 46.9 1090.2 M 46.9 1090.2 L 361.8 1090.2 M 361.8 1090.2 L 361.8 893.3 M 361.8 893.3 L 46.9 893.3 M 46.9 499.6 L 46.9 696.5 M 46.9 696.5 L 361.8 696.5 M 361.8 696.5 L 361.8 499.6 M 361.8 499.6 L 46.9 499.6 M 46.9 696.5 L 46.9 893.3 M 46.9 893.3 L 361.8 893.3 M 361.8 893.3 L 361.8 696.5 M 361.8 696.5 L 46.9 696.5"/><path d="M 158.6 1185.8 L 158.6 1192.8 L 179.9 1192.8 L 179.9 1185.8 L 158.6 1185.8 L 158.6 1185.8 Z"/><path d="M 211.7 1168.9 L 204.8 1168.9 L 204.8 1213 L 203.4 1211.8 L 201.9 1210.6 L 200.1 1209.4 L 198.2 1208.2 L 196.2 1207.1 L 194.4 1206.2 L 192.6 1205.3 L 190.9 1204.7 L 190.9 1211.4 L 193.8 1212.8 L 196.4 1214.4 L 198.8 1216.1 L 201.1 1218 L 203.1 1219.9 L 204.8 1221.8 L 206.2 1223.7 L 207.2 1225.5 L 211.7 1225.5 L 211.7 1168.9 L 211.7 1168.9 Z"/><path d="M 265.8 1175.6 L 265.8 1168.9 L 228.5 1168.9 L 228.6 1170.1 L 228.7 1171.4 L 229 1172.5 L 229.4 1173.7 L 230.2 1175.6 L 231.2 1177.5 L 232.4 1179.4 L 233.9 1181.2 L 235.6 1183.1 L 237.7 1185.2 L 240.2 1187.4 L 242.9 1189.7 L 247.2 1193.3 L 250.6 1196.5 L 253.4 1199.3 L 255.4 1201.7 L 256.8 1203.9 L 257.8 1206 L 258.4 1208 L 258.6 1210 L 258.4 1212 L 257.9 1213.8 L 256.9 1215.5 L 255.6 1216.9 L 254.1 1218.2 L 252.3 1219.1 L 250.3 1219.6 L 248 1219.8 L 245.6 1219.6 L 243.5 1219 L 241.6 1218.1 L 240 1216.8 L 238.7 1215.1 L 237.7 1213.2 L 237.1 1211 L 236.9 1208.5 L 229.8 1209.2 L 230.5 1213 L 231.6 1216.2 L 233.2 1219 L 235.3 1221.4 L 237.9 1223.2 L 240.9 1224.5 L 244.3 1225.3 L 248.1 1225.5 L 252 1225.2 L 255.4 1224.4 L 258.4 1223 L 261 1221 L 263.1 1218.6 L 264.5 1216 L 265.4 1213.1 L 265.7 1209.9 L 265.6 1208.2 L 265.4 1206.5 L 264.9 1204.9 L 264.3 1203.2 L 263.5 1201.6 L 262.5 1199.9 L 261.2 1198.1 L 259.7 1196.3 L 257.9 1194.4 L 255.5 1192 L 252.5 1189.4 L 249.1 1186.4 L 246.2 1184 L 244 1182 L 242.2 1180.5 L 241.1 1179.3 L 240.2 1178.4 L 239.5 1177.5 L 238.8 1176.5 L 238.1 1175.6 L 265.8 1175.6 L 265.8 1175.6 Z"/><path d="M 292.1 1168.9 L 270.3 1225.3 L 278.4 1225.3 L 293 1184.4 L 293.8 1181.9 L 294.6 1179.6 L 295.3 1177.3 L 296 1175.1 L 296.6 1177.4 L 297.4 1179.7 L 298.2 1182 L 299 1184.4 L 314.2 1225.3 L 321.8 1225.3 L 299.8 1168.9 L 292.1 1168.9 L 292.1 1168.9 Z"/><path d="M 179.9 994.2 L 179.9 1000.8 L 203.8 1000.8 L 203.8 979.9 L 201 977.9 L 198.2 976.1 L 195.4 974.5 L 192.5 973.3 L 189.5 972.3 L 186.6 971.7 L 183.5 971.2 L 180.5 971.1 L 176.4 971.3 L 172.5 972 L 168.9 973.1 L 165.4 974.7 L 162.2 976.6 L 159.4 979 L 157.1 981.8 L 155.1 984.9 L 153.6 988.4 L 152.5 992.1 L 151.9 995.9 L 151.7 1000 L 151.9 1004 L 152.5 1007.9 L 153.6 1011.7 L 155.1 1015.3 L 157 1018.7 L 159.3 1021.6 L 162 1024 L 165 1025.9 L 168.4 1027.5 L 171.9 1028.5 L 175.8 1029.2 L 179.9 1029.4 L 182.9 1029.3 L 185.7 1028.9 L 188.4 1028.3 L 191 1027.4 L 193.3 1026.3 L 195.4 1025.1 L 197.1 1023.6 L 198.7 1021.9 L 200 1020 L 201.2 1017.8 L 202.1 1015.4 L 203 1012.7 L 196.2 1010.8 L 195.6 1012.9 L 194.8 1014.7 L 194 1016.2 L 193.1 1017.6 L 192 1018.8 L 190.8 1019.8 L 189.4 1020.7 L 187.7 1021.5 L 185.9 1022.2 L 184 1022.7 L 182 1022.9 L 179.9 1023 L 177.5 1022.9 L 175.2 1022.6 L 173.1 1022.1 L 171.1 1021.4 L 169.3 1020.6 L 167.7 1019.7 L 166.3 1018.6 L 165.1 1017.3 L 164 1016 L 163.1 1014.7 L 162.2 1013.3 L 161.5 1011.8 L 160.6 1009.1 L 159.9 1006.3 L 159.5 1003.4 L 159.4 1000.5 L 159.5 996.8 L 160 993.5 L 160.8 990.5 L 161.9 987.8 L 163.4 985.5 L 165.1 983.4 L 167.2 981.7 L 169.5 980.3 L 172 979.2 L 174.6 978.4 L 177.3 978 L 180.1 977.8 L 182.5 977.9 L 184.8 978.3 L 187.2 978.9 L 189.5 979.7 L 191.7 980.6 L 193.6 981.6 L 195.2 982.6 L 196.5 983.7 L 196.5 994.2 L 179.9 994.2 L 179.9 994.2 Z"/><path d="M 214.7 972.1 L 214.7 1028.4 L 222.4 1028.4 L 252 984.2 L 252 1028.4 L 259.2 1028.4 L 259.2 972.1 L 251.5 972.1 L 221.9 1016.4 L 221.9 972.1 L 214.7 972.1 L 214.7 972.1 Z"/><path d="M 271.7 972.1 L 271.7 1028.4 L 291 1028.4 L 291 1021.8 L 279.1 1021.8 L 279.1 978.7 L 279.1 978.7 L 291.2 978.7 L 293.8 978.8 L 296.1 979 L 298.2 979.3 L 299.9 979.7 L 301.4 980.3 L 302.8 981 L 304 981.8 L 305 982.7 L 306.2 984.1 L 307.3 985.8 L 308.3 987.7 L 309.1 989.8 L 309.7 992.2 L 310.2 994.8 L 310.5 997.6 L 310.6 1000.7 L 310.4 1004.8 L 309.9 1008.5 L 309 1011.6 L 307.7 1014.3 L 306.2 1016.4 L 304.5 1018.2 L 302.6 1019.6 L 300.6 1020.6 L 298.9 1021.1 L 296.7 1021.5 L 294.1 1021.7 L 291 1021.8 L 291 1028.4 L 291.1 1028.4 L 294.2 1028.4 L 296.9 1028.2 L 299.2 1028 L 301.1 1027.6 L 303.4 1026.9 L 305.6 1026 L 307.6 1024.9 L 309.4 1023.6 L 311.5 1021.6 L 313.3 1019.3 L 314.8 1016.8 L 316 1014 L 317 1010.9 L 317.7 1007.7 L 318.1 1004.2 L 318.3 1000.6 L 318.2 997.4 L 317.9 994.5 L 317.4 991.8 L 316.8 989.2 L 316 986.8 L 315.1 984.6 L 314 982.7 L 312.9 981 L 311.7 979.4 L 310.5 978.1 L 309.2 976.9 L 307.8 975.8 L 306.3 975 L 304.7 974.2 L 303 973.6 L 301.1 973 L 299 972.6 L 296.8 972.3 L 294.5 972.1 L 292 972.1 L 271.7 972.1 L 271.7 972.1 Z"/><path d="M 156.1 784.3 L 156.1 799.8 L 140.8 799.8 L 140.8 806.2 L 156.1 806.2 L 156.1 821.6 L 162.6 821.6 L 162.6 806.2 L 178 806.2 L 178 799.8 L 162.6 799.8 L 162.6 784.3 L 156.1 784.3 L 156.1 784.3 Z"/><path d="M 211.7 775.2 L 204.8 775.2 L 204.8 819.3 L 203.4 818.1 L 201.9 816.9 L 200.1 815.7 L 198.2 814.5 L 196.2 813.4 L 194.4 812.5 L 192.6 811.6 L 190.9 811 L 190.9 817.7 L 193.8 819.1 L 196.4 820.7 L 198.8 822.4 L 201.1 824.3 L 203.1 826.2 L 204.8 828.1 L 206.2 830 L 207.2 831.8 L 211.7 831.8 L 211.7 775.2 L 211.7 775.2 Z"/><path d="M 265.8 781.9 L 265.8 775.2 L 228.5 775.2 L 228.6 776.4 L 228.7 777.7 L 229 778.8 L 229.4 780 L 230.2 781.9 L 231.2 783.8 L 232.4 785.6 L 233.9 787.5 L 235.6 789.4 L 237.7 791.5 L 240.2 793.7 L 242.9 796 L 247.2 799.6 L 250.6 802.8 L 253.4 805.6 L 255.4 808 L 256.8 810.2 L 257.8 812.3 L 258.4 814.3 L 258.6 816.3 L 258.4 818.3 L 257.9 820.1 L 256.9 821.8 L 255.6 823.2 L 254.1 824.5 L 252.3 825.4 L 250.3 825.9 L 248 826.1 L 245.6 825.9 L 243.5 825.3 L 241.6 824.4 L 240 823.1 L 238.7 821.4 L 237.7 819.5 L 237.1 817.3 L 236.9 814.8 L 229.8 815.5 L 230.5 819.3 L 231.6 822.5 L 233.2 825.3 L 235.3 827.7 L 237.9 829.5 L 240.9 830.8 L 244.3 831.6 L 248.1 831.8 L 252 831.5 L 255.4 830.7 L 258.4 829.3 L 261 827.3 L 263.1 824.9 L 264.5 822.3 L 265.4 819.4 L 265.7 816.2 L 265.6 814.5 L 265.4 812.8 L 264.9 811.2 L 264.3 809.5 L 263.5 807.9 L 262.5 806.2 L 261.2 804.4 L 259.7 802.6 L 257.9 800.6 L 255.5 798.3 L 252.5 795.7 L 249.1 792.7 L 246.2 790.3 L 244 788.3 L 242.2 786.8 L 241.1 785.6 L 240.2 784.7 L 239.5 783.8 L 238.8 782.8 L 238.1 781.9 L 265.8 781.9 L 265.8 781.9 Z"/><path d="M 292.1 775.2 L 270.3 831.6 L 278.4 831.6 L 293 790.6 L 293.8 788.2 L 294.6 785.9 L 295.3 783.6 L 296 781.4 L 296.6 783.7 L 297.4 786 L 298.2 788.3 L 299 790.6 L 314.2 831.6 L 321.8 831.6 L 299.8 775.2 L 292.1 775.2 L 292.1 775.2 Z"/><path d="M 199.9 587.5 L 199.9 602.9 L 184.5 602.9 L 184.5 609.4 L 199.9 609.4 L 199.9 624.7 L 206.4 624.7 L 206.4 609.4 L 221.8 609.4 L 221.8 602.9 L 206.4 602.9 L 206.4 587.5 L 199.9 587.5 L 199.9 587.5 Z"/><path d="M 229.4 593.1 L 236.7 593.8 L 237.2 591.2 L 238 589.1 L 239.1 587.3 L 240.4 585.8 L 242 584.6 L 243.7 583.8 L 245.5 583.2 L 247.5 583.1 L 249.9 583.3 L 252.1 584 L 254.2 585.2 L 256 586.9 L 257.5 588.9 L 258.6 591.2 L 259.2 593.9 L 259.4 596.9 L 259.2 599.7 L 258.6 602.1 L 257.6 604.4 L 256.1 606.2 L 254.3 607.7 L 252.3 608.8 L 250 609.4 L 247.4 609.6 L 245.8 609.5 L 244.2 609.2 L 242.8 608.8 L 241.4 608.1 L 240.1 607.3 L 239 606.4 L 238 605.3 L 237.1 604.2 L 230.6 605 L 236.1 634 L 264.2 634 L 264.2 627.3 L 241.6 627.3 L 238.6 612.2 L 241.2 613.8 L 243.8 614.9 L 246.5 615.5 L 249.3 615.7 L 252.8 615.4 L 256 614.5 L 259 612.9 L 261.7 610.6 L 263.9 607.9 L 265.5 604.8 L 266.5 601.3 L 266.8 597.5 L 266.5 593.8 L 265.7 590.3 L 264.3 587.2 L 262.3 584.2 L 259.4 581.2 L 255.9 579.1 L 251.9 577.8 L 247.5 577.4 L 243.8 577.7 L 240.5 578.5 L 237.6 579.8 L 235 581.7 L 232.8 584 L 231.2 586.7 L 230 589.7 L 229.4 593.1 L 229.4 593.1 Z"/><path d="M 292.1 578.4 L 270.3 634.7 L 278.4 634.7 L 293 593.8 L 293.8 591.4 L 294.6 589 L 295.3 586.8 L 296 584.5 L 296.6 586.9 L 297.4 589.2 L 298.2 591.5 L 299 593.8 L 314.2 634.7 L 321.8 634.7 L 299.8 578.4 L 292.1 578.4 L 292.1 578.4 Z"/><path stroke-width="5.9" fill="none" d="M 1594.1 632.9 A 74.85051770028048 74.85051770028048 0 0 1 1491.8 632.9 M 1491.8 524 A 74.85051770028048 74.85051770028048 0 0 1 1594.1 524"/><path d="M 1443.3 587.6 L 1443.3 579.9 L 1451 579.9 L 1451 576.6 L 1443.3 576.6 L 1443.3 569 L 1440.1 569 L 1440.1 576.6 L 1432.4 576.6 L 1432.4 579.9 L 1440.1 579.9 L 1440.1 587.6 L 1443.3 587.6 L 1443.3 587.6 Z"/><path stroke-width="5.9" fill="none" d="M 394.9 1144.3 L 394.9 1232.9 M 394.9 1232.9 L 722.5 1232.9 M 722.5 1232.9 L 722.5 1144.3 M 722.5 1144.3 L 394.9 1144.3 M 394.9 750.6 L 394.9 839.2 M 394.9 839.2 L 722.5 839.2 M 722.5 839.2 L 722.5 750.6 M 722.5 750.6 L 394.9 750.6 M 394.9 553.8 L 394.9 642.3 M 394.9 642.3 L 722.5 642.3 M 722.5 642.3 L 722.5 553.8 M 722.5 553.8 L 394.9 553.8"/><path d="M 619.2 149.5 L 620 144.1 L 618.8 143.9 L 617.6 143.7 L 616.4 143.6 L 615.4 143.6 L 613.8 143.6 L 612.4 143.8 L 611.2 144.2 L 610.2 144.6 L 609.4 145.2 L 608.6 145.8 L 608.1 146.6 L 607.6 147.4 L 607.3 148.5 L 607 150.1 L 606.9 152.1 L 606.8 154.7 L 606.8 175.5 L 602.3 175.5 L 602.3 180.3 L 606.8 180.3 L 606.8 189.3 L 613 193 L 613 180.3 L 619.2 180.3 L 619.2 175.5 L 613 175.5 L 613 154.3 L 613 153.1 L 613.1 152.1 L 613.1 151.4 L 613.3 150.9 L 613.5 150.6 L 613.7 150.3 L 614 150 L 614.4 149.7 L 614.7 149.5 L 615.3 149.4 L 615.8 149.3 L 616.4 149.3 L 617 149.3 L 617.6 149.4 L 618.4 149.4 L 619.2 149.5 L 619.2 149.5 Z"/><path d="M 650 155.7 L 656.4 154.9 L 655.5 152.3 L 654.2 150 L 652.7 148 L 650.8 146.3 L 648.6 144.9 L 646.2 144 L 643.4 143.4 L 640.4 143.2 L 636.6 143.5 L 633.3 144.4 L 630.3 146 L 627.8 148.1 L 625.7 150.8 L 624.3 154 L 623.4 157.7 L 623.1 161.9 L 623.4 166.2 L 624.3 170 L 625.8 173.3 L 627.8 176.1 L 630.4 178.3 L 633.2 179.9 L 636.5 180.8 L 640.1 181.2 L 640.6 181.1 L 640.1 176.1 L 638.1 175.9 L 636.2 175.4 L 634.5 174.5 L 633 173.2 L 631.7 171.7 L 630.8 169.9 L 630.1 167.9 L 629.8 165.7 L 629.8 165.7 L 650.1 165.7 L 649.8 167.8 L 649.3 169.7 L 648.6 171.2 L 647.8 172.5 L 646.2 174.1 L 644.4 175.2 L 642.4 175.9 L 640.1 176.1 L 640.6 181.1 L 643.5 180.8 L 646.7 179.9 L 649.5 178.4 L 651.9 176.2 L 654 173.5 L 655.4 170.2 L 656.3 166.5 L 656.6 162.3 L 656.6 161.9 L 656.6 161.6 L 656.6 161.1 L 656.6 160.6 L 629.5 160.6 L 629.8 157.8 L 630.5 155.3 L 631.5 153.2 L 632.9 151.4 L 634.5 150.1 L 636.3 149.1 L 638.2 148.5 L 640.5 148.3 L 642.1 148.4 L 643.6 148.7 L 645 149.3 L 646.2 150.1 L 647.3 151.1 L 648.4 152.3 L 649.2 153.9 L 650 155.7 L 650 155.7 Z"/><path d="M 664 144 L 664 180.3 L 669.5 180.3 L 669.5 174.8 L 670.6 176.6 L 671.6 178.1 L 672.6 179.2 L 673.5 179.9 L 674.4 180.5 L 675.4 180.8 L 676.4 181.1 L 677.4 181.2 L 679 181 L 680.6 180.6 L 682.1 180.1 L 683.8 179.2 L 681.6 173.4 L 680.5 174 L 679.4 174.5 L 678.2 174.7 L 677.1 174.8 L 676.1 174.7 L 675.2 174.5 L 674.3 174.1 L 673.5 173.6 L 672.7 172.9 L 672.1 172.1 L 671.6 171.2 L 671.2 170.2 L 670.8 168.5 L 670.5 166.8 L 670.3 164.9 L 670.2 163.1 L 670.2 144 L 664 144 L 664 144 Z"/><path d="M 687.4 144 L 687.4 180.3 L 692.9 180.3 L 692.9 175.3 L 693.8 176.5 L 694.9 177.7 L 696.1 178.6 L 697.5 179.5 L 698.9 180.3 L 700.5 180.8 L 702.1 181 L 703.9 181.2 L 705.8 181 L 707.6 180.7 L 709.2 180.2 L 710.5 179.5 L 711.7 178.6 L 712.7 177.5 L 713.6 176.2 L 714.2 174.8 L 716.5 177.6 L 719.1 179.5 L 722.1 180.8 L 725.4 181.2 L 727.9 181 L 730.1 180.4 L 732.1 179.5 L 733.7 178.2 L 734.9 176.5 L 735.8 174.4 L 736.4 171.9 L 736.6 169 L 736.6 144 L 730.5 144 L 730.5 166.9 L 730.5 168.6 L 730.3 170.1 L 730.1 171.3 L 729.9 172.2 L 729.5 173 L 729 173.7 L 728.4 174.3 L 727.7 174.8 L 726.9 175.3 L 726 175.6 L 725 175.8 L 724 175.8 L 722.2 175.6 L 720.5 175.2 L 719 174.4 L 717.7 173.3 L 716.6 171.8 L 715.8 170 L 715.3 167.7 L 715.1 165.1 L 715.1 144 L 709 144 L 709 167.6 L 708.9 169.5 L 708.6 171.2 L 708.1 172.6 L 707.5 173.8 L 706.6 174.7 L 705.5 175.3 L 704.2 175.7 L 702.5 175.8 L 701.3 175.7 L 700.1 175.5 L 698.9 175.1 L 697.7 174.5 L 696.7 173.7 L 695.8 172.8 L 695.1 171.7 L 694.5 170.5 L 694.1 169 L 693.8 167.2 L 693.6 165.2 L 693.6 162.9 L 693.6 144 L 687.4 144 L 687.4 144 Z"/><path d="M 745.8 144 L 745.8 180.3 L 751.9 180.3 L 751.9 144 L 745.8 144 L 745.8 144 Z"/><path d="M 745.8 187.1 L 745.8 194.2 L 751.9 194.2 L 751.9 187.1 L 745.8 187.1 L 745.8 187.1 Z"/><path d="M 761.3 144 L 761.3 180.3 L 766.8 180.3 L 766.8 175.2 L 769 177.8 L 771.7 179.7 L 774.8 180.8 L 778.4 181.2 L 780 181.1 L 781.5 180.8 L 783 180.5 L 784.4 180 L 785.7 179.4 L 786.8 178.6 L 787.7 177.8 L 788.5 176.9 L 789.2 175.9 L 789.7 174.8 L 790.1 173.6 L 790.4 172.3 L 790.6 171.3 L 790.7 170 L 790.7 168.3 L 790.8 166.4 L 790.8 144 L 784.6 144 L 784.6 166.1 L 784.6 167.9 L 784.4 169.4 L 784.2 170.7 L 783.9 171.8 L 783.5 172.6 L 782.9 173.4 L 782.2 174.1 L 781.4 174.7 L 780.4 175.2 L 779.4 175.5 L 778.2 175.8 L 777.1 175.8 L 775.2 175.6 L 773.4 175.2 L 771.8 174.4 L 770.3 173.3 L 769 171.8 L 768.1 169.7 L 767.6 167.1 L 767.4 163.9 L 767.4 144 L 761.3 144 L 761.3 144 Z"/><path d="M 823.9 148.5 L 822.2 147.2 L 821.9 147 L 819.6 150.5 L 820.7 151.4 L 821.6 152.6 L 822.4 153.8 L 822.8 155 L 823.1 156.4 L 823.3 158.1 L 823.4 160 L 823.4 162.3 L 823.4 162.3 L 821.5 161.6 L 819.2 161 L 816.5 160.5 L 813.3 159.9 L 811.6 159.7 L 810.1 159.4 L 808.9 159 L 808 158.7 L 807.2 158.3 L 806.6 157.9 L 806 157.3 L 805.5 156.7 L 805.1 156 L 804.9 155.3 L 804.7 154.5 L 804.7 153.8 L 804.8 152.6 L 805.1 151.5 L 805.7 150.5 L 806.6 149.7 L 807.6 149 L 808.8 148.4 L 810.3 148.1 L 812 148.1 L 813.7 148.1 L 815.3 148.4 L 816.9 148.9 L 818.3 149.6 L 819.6 150.5 L 821.9 147 L 820.5 146 L 818.9 145.1 L 817.3 144.4 L 815.7 143.9 L 814 143.5 L 812.3 143.3 L 810.5 143.2 L 807.7 143.4 L 805.2 144 L 803.1 144.9 L 801.3 146.1 L 799.9 147.7 L 798.9 149.5 L 798.3 151.4 L 798.1 153.6 L 798.2 154.9 L 798.4 156.2 L 798.8 157.3 L 799.3 158.5 L 800 159.5 L 800.7 160.5 L 801.6 161.3 L 802.5 162 L 803.5 162.7 L 804.6 163.2 L 805.7 163.6 L 806.9 164 L 808 164.3 L 809.2 164.5 L 810.7 164.7 L 812.4 164.9 L 815.9 165.4 L 818.9 165.9 L 821.4 166.5 L 823.4 167.1 L 823.4 167.7 L 823.4 168.1 L 823.4 168.4 L 823.4 168.7 L 823.3 170.4 L 823 171.9 L 822.4 173.1 L 821.7 174 L 820.3 174.9 L 818.7 175.5 L 816.8 175.9 L 814.7 176 L 812.6 176 L 810.9 175.7 L 809.4 175.2 L 808.2 174.5 L 807.3 173.6 L 806.4 172.4 L 805.8 170.9 L 805.2 169.2 L 799.2 170 L 799.7 171.8 L 800.3 173.5 L 801 174.9 L 801.9 176.2 L 802.9 177.3 L 804.2 178.3 L 805.6 179.2 L 807.3 179.9 L 809.2 180.5 L 811.2 180.8 L 813.3 181.1 L 815.5 181.2 L 817.8 181.1 L 819.7 180.9 L 821.6 180.5 L 823.1 180.1 L 824.5 179.5 L 825.6 178.8 L 826.6 178.1 L 827.4 177.3 L 828 176.4 L 828.5 175.5 L 829 174.4 L 829.3 173.1 L 829.4 172.2 L 829.5 170.9 L 829.6 169.4 L 829.6 167.5 L 829.6 159.2 L 829.6 155.3 L 829.7 152.2 L 829.8 149.9 L 830 148.4 L 830.2 147.3 L 830.6 146.2 L 831 145.1 L 831.6 144 L 825.1 144 L 824.7 145 L 824.3 146.1 L 824.1 147.3 L 823.9 148.5 L 823.9 148.5 Z"/><path d="M 839 144 L 839 194.2 L 845.1 194.2 L 845.1 144 L 839 144 L 839 144 Z"/><path d="M 852.2 154.9 L 858.3 155.8 L 858.7 154.1 L 859.3 152.6 L 860.1 151.3 L 861.2 150.2 L 862.5 149.4 L 864 148.8 L 865.7 148.4 L 867.7 148.3 L 869.7 148.4 L 871.4 148.7 L 872.8 149.2 L 874 150 L 874.9 150.9 L 875.5 151.9 L 875.9 152.9 L 876 154 L 875.9 155 L 875.6 155.9 L 875 156.7 L 874.2 157.3 L 873.4 157.8 L 872 158.2 L 870.2 158.8 L 867.9 159.4 L 864.8 160.3 L 862.2 161 L 860.1 161.7 L 858.6 162.4 L 857.3 163.1 L 856.3 163.9 L 855.3 164.8 L 854.6 165.8 L 854 166.9 L 853.6 168.1 L 853.3 169.4 L 853.2 170.7 L 853.3 171.9 L 853.5 173.1 L 853.9 174.1 L 854.4 175.2 L 855 176.2 L 855.6 177.1 L 856.5 177.9 L 857.4 178.6 L 858.2 179.2 L 859.1 179.6 L 860.1 180 L 861.3 180.4 L 862.5 180.7 L 863.9 181 L 865.2 181.1 L 866.6 181.2 L 868.7 181.1 L 870.6 180.8 L 872.4 180.5 L 874.1 179.9 L 875.6 179.3 L 876.9 178.5 L 878 177.6 L 878.9 176.6 L 879.6 175.5 L 880.2 174.2 L 880.6 172.7 L 881 171 L 875 170.1 L 874.7 171.5 L 874.2 172.7 L 873.5 173.6 L 872.6 174.5 L 871.5 175.2 L 870.2 175.7 L 868.8 176 L 867.1 176.1 L 865.1 176 L 863.4 175.7 L 862.1 175.3 L 861 174.7 L 860.2 174 L 859.6 173.2 L 859.3 172.3 L 859.2 171.4 L 859.2 170.8 L 859.4 170.3 L 859.6 169.7 L 859.9 169.3 L 860.4 168.8 L 860.9 168.4 L 861.6 168 L 862.3 167.6 L 863 167.4 L 864.1 167.1 L 865.7 166.6 L 867.7 166 L 870.8 165.2 L 873.3 164.5 L 875.3 163.8 L 876.8 163.2 L 878.1 162.6 L 879.2 161.8 L 880.1 161 L 880.9 160 L 881.6 158.8 L 882 157.6 L 882.3 156.2 L 882.4 154.7 L 882.3 153.2 L 881.9 151.7 L 881.4 150.3 L 880.6 148.9 L 879.6 147.6 L 878.4 146.5 L 877 145.5 L 875.4 144.7 L 873.6 144 L 871.8 143.6 L 869.8 143.3 L 867.7 143.2 L 864.4 143.4 L 861.5 144 L 859 144.9 L 856.9 146.2 L 855.3 147.8 L 853.9 149.8 L 852.9 152.1 L 852.2 154.9 L 852.2 154.9 Z"/><path d="M 932.8 148.5 L 931.1 147.2 L 930.9 147 L 928.5 150.5 L 929.7 151.4 L 930.6 152.6 L 931.3 153.8 L 931.8 155 L 932.1 156.4 L 932.2 158.1 L 932.3 160 L 932.3 162.3 L 932.3 162.3 L 930.4 161.6 L 928.1 161 L 925.4 160.5 L 922.3 159.9 L 920.5 159.7 L 919 159.4 L 917.8 159 L 916.9 158.7 L 916.2 158.3 L 915.5 157.9 L 914.9 157.3 L 914.5 156.7 L 914.1 156 L 913.8 155.3 L 913.6 154.5 L 913.6 153.8 L 913.7 152.6 L 914.1 151.5 L 914.7 150.5 L 915.5 149.7 L 916.5 149 L 917.8 148.4 L 919.2 148.1 L 920.9 148.1 L 922.7 148.1 L 924.3 148.4 L 925.8 148.9 L 927.3 149.6 L 928.5 150.5 L 930.9 147 L 929.5 146 L 927.8 145.1 L 926.2 144.4 L 924.6 143.9 L 923 143.5 L 921.2 143.3 L 919.5 143.2 L 916.6 143.4 L 914.2 144 L 912 144.9 L 910.3 146.1 L 908.8 147.7 L 907.9 149.5 L 907.3 151.4 L 907 153.6 L 907.1 154.9 L 907.3 156.2 L 907.7 157.3 L 908.2 158.5 L 908.9 159.5 L 909.7 160.5 L 910.5 161.3 L 911.4 162 L 912.5 162.7 L 913.5 163.2 L 914.7 163.6 L 915.8 164 L 916.9 164.3 L 918.1 164.5 L 919.6 164.7 L 921.3 164.9 L 924.8 165.4 L 927.8 165.9 L 930.3 166.5 L 932.3 167.1 L 932.3 167.7 L 932.3 168.1 L 932.3 168.4 L 932.3 168.7 L 932.2 170.4 L 931.9 171.9 L 931.4 173.1 L 930.6 174 L 929.3 174.9 L 927.7 175.5 L 925.8 175.9 L 923.6 176 L 921.6 176 L 919.8 175.7 L 918.4 175.2 L 917.2 174.5 L 916.2 173.6 L 915.4 172.4 L 914.7 170.9 L 914.1 169.2 L 908.1 170 L 908.6 171.8 L 909.2 173.5 L 909.9 174.9 L 910.8 176.2 L 911.8 177.3 L 913.1 178.3 L 914.5 179.2 L 916.2 179.9 L 918.1 180.5 L 920.1 180.8 L 922.2 181.1 L 924.5 181.2 L 926.7 181.1 L 928.7 180.9 L 930.5 180.5 L 932 180.1 L 933.4 179.5 L 934.5 178.8 L 935.5 178.1 L 936.3 177.3 L 936.9 176.4 L 937.5 175.5 L 937.9 174.4 L 938.2 173.1 L 938.4 172.2 L 938.4 170.9 L 938.5 169.4 L 938.5 167.5 L 938.5 159.2 L 938.6 155.3 L 938.6 152.2 L 938.8 149.9 L 938.9 148.4 L 939.2 147.3 L 939.5 146.2 L 939.9 145.1 L 940.5 144 L 934 144 L 933.6 145 L 933.2 146.1 L 933 147.3 L 932.8 148.5 L 932.8 148.5 Z"/><path d="M 971.6 144 L 971.6 148.6 L 968.8 151.5 L 968.9 151.6 L 970.1 153.4 L 971 155.7 L 971.6 158.5 L 971.7 161.6 L 971.5 165.1 L 971 168.1 L 970.1 170.6 L 968.8 172.6 L 967.3 174.1 L 965.6 175.2 L 963.8 175.8 L 961.8 176 L 959.8 175.8 L 958 175.2 L 956.4 174.2 L 954.9 172.7 L 953.7 170.8 L 952.9 168.4 L 952.3 165.5 L 952.1 162.1 L 952.1 162.1 L 952.3 158.9 L 952.9 156 L 953.8 153.7 L 955.1 151.7 L 956.6 150.2 L 958.3 149.2 L 960.1 148.5 L 962 148.3 L 964 148.5 L 965.8 149.1 L 967.4 150.1 L 968.8 151.5 L 971.6 148.6 L 969.7 146.2 L 967.3 144.5 L 964.6 143.6 L 961.5 143.2 L 959.4 143.4 L 957.3 143.8 L 955.3 144.5 L 953.5 145.6 L 951.8 146.9 L 950.3 148.5 L 949 150.3 L 947.9 152.3 L 946.9 154.5 L 946.4 156.9 L 946 159.4 L 945.8 162.1 L 946 164.8 L 946.3 167.3 L 946.9 169.7 L 947.7 172 L 948.7 174.1 L 949.9 175.9 L 951.4 177.5 L 953.1 178.8 L 954.9 179.8 L 956.9 180.6 L 959 181 L 961.2 181.2 L 962.8 181.1 L 964.3 180.8 L 965.7 180.4 L 967 179.8 L 968.2 179 L 969.4 178.2 L 970.3 177.2 L 971.2 176.2 L 971.2 194.2 L 977.3 194.2 L 977.3 144 L 971.6 144 L 971.6 144 Z"/><path d="M 1010.7 148.5 L 1009 147.2 L 1008.8 147 L 1006.4 150.5 L 1007.5 151.4 L 1008.4 152.6 L 1009.2 153.8 L 1009.6 155 L 1009.9 156.4 L 1010.1 158.1 L 1010.2 160 L 1010.2 162.3 L 1010.2 162.3 L 1008.3 161.6 L 1006 161 L 1003.2 160.5 L 1000.1 159.9 L 998.4 159.7 L 996.9 159.4 L 995.7 159 L 994.7 158.7 L 994 158.3 L 993.4 157.9 L 992.8 157.3 L 992.3 156.7 L 991.9 156 L 991.7 155.3 L 991.5 154.5 L 991.5 153.8 L 991.6 152.6 L 991.9 151.5 L 992.5 150.5 L 993.3 149.7 L 994.4 149 L 995.6 148.4 L 997.1 148.1 L 998.8 148.1 L 1000.5 148.1 L 1002.1 148.4 L 1003.7 148.9 L 1005.1 149.6 L 1006.4 150.5 L 1008.8 147 L 1007.3 146 L 1005.7 145.1 L 1004.1 144.4 L 1002.5 143.9 L 1000.8 143.5 L 999.1 143.3 L 997.3 143.2 L 994.5 143.4 L 992 144 L 989.9 144.9 L 988.1 146.1 L 986.7 147.7 L 985.7 149.5 L 985.1 151.4 L 984.9 153.6 L 985 154.9 L 985.2 156.2 L 985.6 157.3 L 986.1 158.5 L 986.8 159.5 L 987.5 160.5 L 988.4 161.3 L 989.3 162 L 990.3 162.7 L 991.4 163.2 L 992.5 163.6 L 993.7 164 L 994.7 164.3 L 996 164.5 L 997.5 164.7 L 999.2 164.9 L 1002.7 165.4 L 1005.6 165.9 L 1008.2 166.5 L 1010.2 167.1 L 1010.2 167.7 L 1010.2 168.1 L 1010.2 168.4 L 1010.2 168.7 L 1010.1 170.4 L 1009.8 171.9 L 1009.2 173.1 L 1008.4 174 L 1007.1 174.9 L 1005.5 175.5 L 1003.6 175.9 L 1001.4 176 L 999.4 176 L 997.7 175.7 L 996.2 175.2 L 995.1 174.5 L 994.1 173.6 L 993.2 172.4 L 992.5 170.9 L 992 169.2 L 986 170 L 986.4 171.8 L 987.1 173.5 L 987.8 174.9 L 988.7 176.2 L 989.7 177.3 L 991 178.3 L 992.4 179.2 L 994.1 179.9 L 996 180.5 L 997.9 180.8 L 1000.1 181.1 L 1002.3 181.2 L 1004.5 181.1 L 1006.6 180.9 L 1008.3 180.5 L 1009.9 180.1 L 1011.2 179.5 L 1012.4 178.8 L 1013.4 178.1 L 1014.2 177.3 L 1014.8 176.4 L 1015.3 175.5 L 1015.8 174.4 L 1016.1 173.1 L 1016.2 172.2 L 1016.3 170.9 L 1016.4 169.4 L 1016.4 167.5 L 1016.4 159.2 L 1016.4 155.3 L 1016.5 152.2 L 1016.6 149.9 L 1016.8 148.4 L 1017 147.3 L 1017.4 146.2 L 1017.8 145.1 L 1018.3 144 L 1011.9 144 L 1011.5 145 L 1011.1 146.1 L 1010.8 147.3 L 1010.7 148.5 L 1010.7 148.5 Z"/><path d="M 1025.9 130.1 L 1025.9 180.3 L 1031.5 180.3 L 1031.5 175.6 L 1034.5 172.7 L 1034.5 172.7 L 1033.2 170.6 L 1032.3 168.2 L 1031.7 165.3 L 1031.5 162 L 1031.5 162 L 1031.7 158.7 L 1032.2 155.9 L 1033.1 153.5 L 1034.4 151.6 L 1035.8 150.2 L 1037.5 149.1 L 1039.3 148.5 L 1041.2 148.3 L 1043.2 148.5 L 1045 149.2 L 1046.7 150.2 L 1048.2 151.8 L 1049.5 153.7 L 1050.4 156.2 L 1051 159.1 L 1051.2 162.5 L 1051 165.7 L 1050.5 168.6 L 1049.5 170.9 L 1048.3 172.9 L 1046.8 174.4 L 1045.2 175.5 L 1043.4 176.1 L 1041.5 176.3 L 1039.5 176.1 L 1037.8 175.4 L 1036.1 174.3 L 1034.5 172.7 L 1031.5 175.6 L 1032.5 176.9 L 1033.6 178.1 L 1034.8 179 L 1036 179.8 L 1037.3 180.4 L 1038.8 180.8 L 1040.3 181.1 L 1042.1 181.2 L 1044.3 181 L 1046.4 180.6 L 1048.4 179.8 L 1050.3 178.8 L 1051.9 177.5 L 1053.4 175.9 L 1054.6 174.1 L 1055.6 172 L 1056.4 169.8 L 1057 167.5 L 1057.3 165 L 1057.4 162.5 L 1057.3 159.7 L 1056.9 157.1 L 1056.3 154.7 L 1055.5 152.4 L 1054.3 150.3 L 1053 148.5 L 1051.4 146.9 L 1049.6 145.6 L 1047.7 144.5 L 1045.7 143.8 L 1043.7 143.4 L 1041.6 143.2 L 1040.1 143.3 L 1038.7 143.5 L 1037.3 144 L 1036.1 144.5 L 1034.9 145.2 L 1033.9 146 L 1032.9 146.8 L 1032.1 147.8 L 1032.1 130.1 L 1025.9 130.1 L 1025.9 130.1 Z"/><path d="M 1078.3 149.5 L 1079.2 144.1 L 1077.9 143.9 L 1076.7 143.7 L 1075.6 143.6 L 1074.5 143.6 L 1072.9 143.6 L 1071.6 143.8 L 1070.3 144.2 L 1069.4 144.6 L 1068.5 145.2 L 1067.8 145.8 L 1067.2 146.6 L 1066.8 147.4 L 1066.4 148.5 L 1066.2 150.1 L 1066 152.1 L 1066 154.7 L 1066 175.5 L 1061.5 175.5 L 1061.5 180.3 L 1066 180.3 L 1066 189.3 L 1072.1 193 L 1072.1 180.3 L 1078.3 180.3 L 1078.3 175.5 L 1072.1 175.5 L 1072.1 154.3 L 1072.1 153.1 L 1072.2 152.1 L 1072.3 151.4 L 1072.4 150.9 L 1072.6 150.6 L 1072.9 150.3 L 1073.1 150 L 1073.5 149.7 L 1073.9 149.5 L 1074.4 149.4 L 1074.9 149.3 L 1075.6 149.3 L 1076.1 149.3 L 1076.8 149.4 L 1077.5 149.4 L 1078.3 149.5 L 1078.3 149.5 Z"/><path d="M 1109.2 155.7 L 1115.5 154.9 L 1114.6 152.3 L 1113.4 150 L 1111.8 148 L 1109.9 146.3 L 1107.8 144.9 L 1105.3 144 L 1102.6 143.4 L 1099.5 143.2 L 1095.8 143.5 L 1092.4 144.4 L 1089.5 146 L 1086.9 148.1 L 1084.9 150.8 L 1083.4 154 L 1082.5 157.7 L 1082.3 161.9 L 1082.5 166.2 L 1083.4 170 L 1084.9 173.3 L 1086.9 176.1 L 1089.5 178.3 L 1092.4 179.9 L 1095.6 180.8 L 1099.2 181.2 L 1099.7 181.1 L 1099.3 176.1 L 1097.2 175.9 L 1095.4 175.4 L 1093.7 174.5 L 1092.1 173.2 L 1090.8 171.7 L 1089.9 169.9 L 1089.3 167.9 L 1089 165.7 L 1089 165.7 L 1109.2 165.7 L 1108.9 167.8 L 1108.4 169.7 L 1107.8 171.2 L 1106.9 172.5 L 1105.3 174.1 L 1103.5 175.2 L 1101.5 175.9 L 1099.3 176.1 L 1099.7 181.1 L 1102.7 180.8 L 1105.8 179.9 L 1108.6 178.4 L 1111.1 176.2 L 1113.1 173.5 L 1114.5 170.2 L 1115.4 166.5 L 1115.7 162.3 L 1115.7 161.9 L 1115.7 161.6 L 1115.7 161.1 L 1115.7 160.6 L 1088.6 160.6 L 1089 157.8 L 1089.6 155.3 L 1090.6 153.2 L 1092 151.4 L 1093.6 150.1 L 1095.4 149.1 L 1097.4 148.5 L 1099.6 148.3 L 1101.2 148.4 L 1102.7 148.7 L 1104.1 149.3 L 1105.4 150.1 L 1106.5 151.1 L 1107.5 152.3 L 1108.4 153.9 L 1109.2 155.7 L 1109.2 155.7 Z"/><path d="M 1123.2 144 L 1123.2 180.3 L 1128.7 180.3 L 1128.7 174.8 L 1129.7 176.6 L 1130.7 178.1 L 1131.7 179.2 L 1132.6 179.9 L 1133.5 180.5 L 1134.5 180.8 L 1135.5 181.1 L 1136.6 181.2 L 1138.1 181 L 1139.7 180.6 L 1141.3 180.1 L 1142.9 179.2 L 1140.8 173.4 L 1139.6 174 L 1138.5 174.5 L 1137.4 174.7 L 1136.2 174.8 L 1135.3 174.7 L 1134.4 174.5 L 1133.4 174.1 L 1132.6 173.6 L 1131.9 172.9 L 1131.2 172.1 L 1130.7 171.2 L 1130.3 170.2 L 1129.9 168.5 L 1129.6 166.8 L 1129.4 164.9 L 1129.3 163.1 L 1129.3 144 L 1123.2 144 L 1123.2 144 Z"/><path d="M 1714.9 804.8 L 1699.5 804.8 L 1699.5 789.4 L 1693 789.4 L 1693 804.8 L 1677.7 804.8 L 1677.7 811.3 L 1693 811.3 L 1693 826.7 L 1699.5 826.7 L 1699.5 811.3 L 1714.9 811.3 L 1714.9 804.8 L 1714.9 804.8 Z"/><path d="M 1724 860.4 L 1724 853.4 L 1679.9 853.4 L 1681.1 852.1 L 1682.3 850.6 L 1683.5 848.8 L 1684.7 846.9 L 1685.8 844.9 L 1686.8 843.1 L 1687.6 841.3 L 1688.3 839.6 L 1681.6 839.6 L 1680.1 842.4 L 1678.6 845.1 L 1676.8 847.5 L 1675 849.8 L 1673.1 851.8 L 1671.2 853.5 L 1669.3 854.9 L 1667.5 855.9 L 1667.5 860.4 L 1724 860.4 L 1724 860.4 Z"/><path d="M 1717.4 914.5 L 1724 914.5 L 1724 877.2 L 1722.8 877.2 L 1721.6 877.4 L 1720.4 877.7 L 1719.2 878 L 1717.3 878.8 L 1715.5 879.9 L 1713.6 881.1 L 1711.8 882.6 L 1709.8 884.3 L 1707.7 886.4 L 1705.5 888.8 L 1703.2 891.6 L 1699.6 895.8 L 1696.4 899.4 L 1693.6 902.1 L 1691.2 904.1 L 1689.1 905.5 L 1687 906.5 L 1684.9 907.1 L 1682.9 907.3 L 1681 907.1 L 1679.2 906.6 L 1677.5 905.6 L 1676 904.4 L 1674.7 902.8 L 1673.9 901 L 1673.3 898.9 L 1673.2 896.7 L 1673.4 894.3 L 1673.9 892.2 L 1674.9 890.3 L 1676.2 888.7 L 1677.8 887.3 L 1679.7 886.4 L 1681.9 885.8 L 1684.5 885.6 L 1683.8 878.5 L 1680 879.2 L 1676.7 880.3 L 1673.9 881.9 L 1671.6 884 L 1669.8 886.6 L 1668.5 889.6 L 1667.7 893 L 1667.5 896.8 L 1667.7 900.7 L 1668.6 904.1 L 1670 907.1 L 1671.9 909.7 L 1674.3 911.8 L 1677 913.2 L 1679.9 914.1 L 1683.1 914.4 L 1684.8 914.3 L 1686.4 914 L 1688.1 913.6 L 1689.7 913 L 1691.4 912.2 L 1693.1 911.2 L 1694.8 909.9 L 1696.6 908.4 L 1698.6 906.6 L 1700.9 904.2 L 1703.6 901.2 L 1706.6 897.7 L 1709 894.9 L 1710.9 892.6 L 1712.5 890.9 L 1713.6 889.7 L 1714.6 888.9 L 1715.5 888.1 L 1716.4 887.5 L 1717.4 886.8 L 1717.4 914.5 L 1717.4 914.5 Z"/><path d="M 1724 940.8 L 1667.7 919 L 1667.7 927.1 L 1708.6 941.7 L 1711 942.5 L 1713.4 943.3 L 1715.6 944 L 1717.9 944.7 L 1715.5 945.3 L 1713.2 946.1 L 1710.9 946.9 L 1708.6 947.7 L 1667.7 962.9 L 1667.7 970.5 L 1724 948.4 L 1724 940.8 L 1724 940.8 Z"/><path d="M 540.8 224 L 540.8 274.2 L 577.1 274.2 L 577.1 268.2 L 547.5 268.2 L 547.5 252.9 L 575.2 252.9 L 575.2 247 L 547.5 247 L 547.5 229.9 L 578.2 229.9 L 578.2 224 L 540.8 224 L 540.8 224 Z"/><path d="M 610.4 224 L 610.4 229.4 L 608.1 226.7 L 605.4 224.7 L 602.3 223.6 L 598.9 223.2 L 597.3 223.3 L 595.8 223.5 L 594.3 223.9 L 592.9 224.4 L 591.6 225.1 L 590.5 225.8 L 589.5 226.6 L 588.7 227.5 L 588.1 228.5 L 587.6 229.6 L 587.1 230.8 L 586.8 232.1 L 586.7 233.1 L 586.6 234.4 L 586.5 236 L 586.4 237.9 L 586.4 260.3 L 592.6 260.3 L 592.6 240.2 L 592.6 238 L 592.7 236.2 L 592.8 234.7 L 593 233.7 L 593.4 232.6 L 593.9 231.6 L 594.6 230.6 L 595.5 229.9 L 596.4 229.3 L 597.5 228.9 L 598.8 228.6 L 600.1 228.5 L 601.5 228.6 L 602.8 228.9 L 604 229.3 L 605.3 229.9 L 606.4 230.7 L 607.3 231.6 L 608.1 232.6 L 608.7 233.8 L 609.2 235.1 L 609.5 236.8 L 609.7 238.7 L 609.7 240.9 L 609.7 260.3 L 615.9 260.3 L 615.9 224 L 610.4 224 L 610.4 224 Z"/><path d="M 625.5 224 L 625.5 260.3 L 631 260.3 L 631 254.8 L 632 256.6 L 633 258.1 L 634 259.2 L 634.9 259.9 L 635.8 260.5 L 636.8 260.8 L 637.8 261.1 L 638.8 261.2 L 640.4 261 L 642 260.6 L 643.6 260.1 L 645.2 259.2 L 643.1 253.4 L 641.9 254 L 640.8 254.5 L 639.7 254.7 L 638.6 254.8 L 637.6 254.7 L 636.6 254.5 L 635.8 254.1 L 634.9 253.6 L 634.2 252.9 L 633.6 252.1 L 633.1 251.2 L 632.6 250.2 L 632.2 248.5 L 631.9 246.8 L 631.7 244.9 L 631.6 243.1 L 631.6 224 L 625.5 224 L 625.5 224 Z"/><path d="M 646.6 242.2 L 646.9 246.9 L 647.9 251 L 649.7 254.4 L 652.1 257.1 L 654.6 258.9 L 657.3 260.1 L 660.3 260.9 L 663.6 261.2 L 667.1 260.8 L 670.4 259.9 L 673.2 258.4 L 675.8 256.2 L 677.9 253.6 L 679.4 250.4 L 680.3 246.8 L 680.6 242.7 L 680.4 239.4 L 680 236.4 L 679.4 233.9 L 678.4 231.7 L 677.3 229.8 L 675.9 228.1 L 674.2 226.7 L 672.3 225.5 L 670.3 224.5 L 668.1 223.8 L 665.9 223.4 L 663.6 223.2 L 663.1 223.2 L 663.6 228.3 L 665.8 228.5 L 667.8 229.2 L 669.6 230.2 L 671.2 231.8 L 672.5 233.7 L 673.5 236.2 L 674 239 L 674.2 242.4 L 674 245.6 L 673.4 248.3 L 672.5 250.6 L 671.2 252.6 L 669.5 254.1 L 667.7 255.2 L 665.7 255.8 L 663.6 256 L 661.4 255.8 L 659.4 255.2 L 657.5 254.1 L 655.9 252.6 L 654.6 250.6 L 653.6 248.3 L 653.1 245.5 L 652.9 242.2 L 652.9 242.2 L 653.1 238.9 L 653.6 236.1 L 654.6 233.7 L 655.9 231.8 L 657.5 230.2 L 659.4 229.2 L 661.4 228.5 L 663.6 228.3 L 663.1 223.2 L 659.9 223.5 L 656.7 224.4 L 653.8 226 L 651.2 228.1 L 649.2 230.8 L 647.7 234.1 L 646.8 237.9 L 646.6 242.2 L 646.6 242.2 Z"/><path d="M 687.7 224 L 687.7 260.3 L 693.2 260.3 L 693.2 254.8 L 694.3 256.6 L 695.3 258.1 L 696.2 259.2 L 697.1 259.9 L 698.1 260.5 L 699 260.8 L 700.1 261.1 L 701.1 261.2 L 702.7 261 L 704.2 260.6 L 705.8 260.1 L 707.4 259.2 L 705.3 253.4 L 704.2 254 L 703.1 254.5 L 701.9 254.7 L 700.8 254.8 L 699.8 254.7 L 698.9 254.5 L 698 254.1 L 697.1 253.6 L 696.4 252.9 L 695.8 252.1 L 695.3 251.2 L 694.9 250.2 L 694.4 248.5 L 694.1 246.8 L 693.9 244.9 L 693.8 243.1 L 693.8 224 L 687.7 224 L 687.7 224 Z"/><path d="M 734.7 228.5 L 733.1 227.2 L 732.8 227 L 730.5 230.5 L 731.6 231.4 L 732.5 232.6 L 733.2 233.8 L 733.7 235 L 734 236.4 L 734.2 238.1 L 734.2 240 L 734.2 242.3 L 734.2 242.3 L 732.4 241.6 L 730.1 241 L 727.3 240.5 L 724.2 239.9 L 722.5 239.7 L 721 239.4 L 719.7 239 L 718.8 238.7 L 718.1 238.3 L 717.4 237.9 L 716.9 237.3 L 716.4 236.7 L 716 236 L 715.8 235.3 L 715.6 234.5 L 715.6 233.8 L 715.6 232.6 L 716 231.5 L 716.6 230.5 L 717.4 229.7 L 718.4 229 L 719.7 228.4 L 721.2 228.1 L 722.9 228.1 L 724.6 228.1 L 726.2 228.4 L 727.8 228.9 L 729.2 229.6 L 730.5 230.5 L 732.8 227 L 731.4 226 L 729.8 225.1 L 728.2 224.4 L 726.6 223.9 L 724.9 223.5 L 723.2 223.3 L 721.4 223.2 L 718.6 223.4 L 716.1 224 L 714 224.9 L 712.2 226.1 L 710.8 227.7 L 709.8 229.5 L 709.2 231.4 L 709 233.6 L 709.1 234.9 L 709.3 236.2 L 709.7 237.3 L 710.2 238.5 L 710.8 239.5 L 711.6 240.5 L 712.5 241.3 L 713.4 242 L 714.4 242.7 L 715.5 243.2 L 716.6 243.6 L 717.8 244 L 718.8 244.3 L 720.1 244.5 L 721.6 244.7 L 723.3 244.9 L 726.8 245.4 L 729.7 245.9 L 732.2 246.5 L 734.2 247.1 L 734.3 247.7 L 734.3 248.1 L 734.3 248.4 L 734.3 248.7 L 734.2 250.4 L 733.8 251.9 L 733.3 253.1 L 732.5 254 L 731.2 254.9 L 729.6 255.5 L 727.7 255.9 L 725.5 256 L 723.5 256 L 721.8 255.7 L 720.3 255.2 L 719.1 254.5 L 718.2 253.6 L 717.3 252.4 L 716.6 250.9 L 716.1 249.2 L 710.1 250 L 710.5 251.8 L 711.1 253.5 L 711.9 254.9 L 712.7 256.2 L 713.8 257.3 L 715.1 258.3 L 716.5 259.2 L 718.2 259.9 L 720 260.5 L 722 260.8 L 724.2 261.1 L 726.4 261.2 L 728.6 261.1 L 730.6 260.9 L 732.4 260.5 L 734 260.1 L 735.3 259.5 L 736.5 258.8 L 737.5 258.1 L 738.2 257.3 L 738.9 256.4 L 739.4 255.5 L 739.8 254.4 L 740.2 253.1 L 740.3 252.2 L 740.4 250.9 L 740.5 249.4 L 740.5 247.5 L 740.5 239.2 L 740.5 235.3 L 740.6 232.2 L 740.7 229.9 L 740.8 228.4 L 741.1 227.3 L 741.4 226.2 L 741.9 225.1 L 742.4 224 L 736 224 L 735.6 225 L 735.2 226.1 L 734.9 227.3 L 734.7 228.5 L 734.7 228.5 Z"/><path d="M 773.7 237.3 L 779.7 236.6 L 779 233.6 L 778 231 L 776.5 228.7 L 774.7 226.8 L 772.5 225.2 L 770.1 224.1 L 767.5 223.4 L 764.6 223.2 L 761.1 223.5 L 757.9 224.4 L 755.1 226 L 752.7 228.1 L 750.7 230.8 L 749.3 234 L 748.4 237.8 L 748.1 242.1 L 748.2 244.9 L 748.6 247.6 L 749.2 250.1 L 750.1 252.3 L 751.2 254.4 L 752.5 256.2 L 754.2 257.7 L 756 259 L 758.1 259.9 L 760.2 260.6 L 762.4 261 L 764.7 261.2 L 767.5 261 L 770.1 260.4 L 772.3 259.5 L 774.4 258.2 L 776 256.5 L 777.4 254.5 L 778.4 252.3 L 779.2 249.7 L 773.2 248.8 L 772.7 250.5 L 772 251.9 L 771.2 253.2 L 770.1 254.2 L 769 255.1 L 767.8 255.6 L 766.4 256 L 764.9 256.1 L 762.7 255.9 L 760.7 255.3 L 758.9 254.2 L 757.3 252.8 L 756.1 250.8 L 755.2 248.4 L 754.6 245.6 L 754.4 242.2 L 754.6 238.8 L 755.1 235.9 L 756 233.5 L 757.3 231.6 L 758.8 230.1 L 760.5 229.1 L 762.4 228.5 L 764.5 228.3 L 766.3 228.4 L 767.9 228.8 L 769.3 229.5 L 770.6 230.5 L 771.7 231.8 L 772.6 233.3 L 773.2 235.2 L 773.7 237.3 L 773.7 237.3 Z"/><path d="M 785.1 224 L 785.1 274.2 L 791.2 274.2 L 791.2 245.6 L 805.8 260.3 L 813.7 260.3 L 799.8 246.9 L 815.1 224 L 807.5 224 L 795.5 242.6 L 791.2 238.4 L 791.2 224 L 785.1 224 L 785.1 224 Z"/><path d="M 839.5 210.1 L 839.5 260.3 L 845.1 260.3 L 845.1 255.6 L 848.1 252.7 L 848.1 252.7 L 846.7 250.6 L 845.8 248.2 L 845.2 245.3 L 845 242 L 845 242 L 845.2 238.7 L 845.7 235.9 L 846.6 233.5 L 847.9 231.6 L 849.4 230.2 L 851 229.1 L 852.8 228.5 L 854.7 228.3 L 856.7 228.5 L 858.5 229.2 L 860.2 230.2 L 861.8 231.8 L 863.1 233.7 L 864 236.2 L 864.5 239.1 L 864.7 242.5 L 864.5 245.7 L 864 248.6 L 863.1 250.9 L 861.8 252.9 L 860.3 254.4 L 858.7 255.5 L 856.9 256.1 L 855 256.3 L 853.1 256.1 L 851.3 255.4 L 849.6 254.3 L 848.1 252.7 L 845.1 255.6 L 846.1 256.9 L 847.2 258.1 L 848.3 259 L 849.5 259.8 L 850.8 260.4 L 852.3 260.8 L 853.9 261.1 L 855.6 261.2 L 857.9 261 L 860 260.6 L 861.9 259.8 L 863.8 258.8 L 865.5 257.5 L 866.9 255.9 L 868.1 254.1 L 869.2 252 L 869.9 249.8 L 870.5 247.5 L 870.8 245 L 871 242.5 L 870.8 239.7 L 870.5 237.1 L 869.9 234.7 L 869 232.4 L 867.9 230.3 L 866.5 228.5 L 864.9 226.9 L 863.2 225.6 L 861.2 224.5 L 859.2 223.8 L 857.2 223.4 L 855.1 223.2 L 853.6 223.3 L 852.2 223.5 L 850.9 224 L 849.6 224.5 L 848.4 225.2 L 847.4 226 L 846.4 226.8 L 845.6 227.8 L 845.6 210.1 L 839.5 210.1 L 839.5 210.1 Z"/><path d="M 876.1 242.2 L 876.4 246.9 L 877.5 251 L 879.2 254.4 L 881.7 257.1 L 884.2 258.9 L 886.9 260.1 L 889.9 260.9 L 893.1 261.2 L 896.7 260.8 L 899.9 259.9 L 902.8 258.4 L 905.4 256.2 L 907.4 253.6 L 908.9 250.4 L 909.8 246.8 L 910.1 242.7 L 910 239.4 L 909.6 236.4 L 908.9 233.9 L 908 231.7 L 906.8 229.8 L 905.4 228.1 L 903.8 226.7 L 901.9 225.5 L 899.8 224.5 L 897.7 223.8 L 895.5 223.4 L 893.1 223.2 L 892.7 223.2 L 893.1 228.3 L 895.3 228.5 L 897.3 229.2 L 899.1 230.2 L 900.7 231.8 L 902.1 233.7 L 903 236.2 L 903.6 239 L 903.8 242.4 L 903.6 245.6 L 903 248.3 L 902.1 250.6 L 900.7 252.6 L 899.1 254.1 L 897.3 255.2 L 895.3 255.8 L 893.1 256 L 890.9 255.8 L 888.9 255.2 L 887.1 254.1 L 885.5 252.6 L 884.1 250.6 L 883.2 248.3 L 882.6 245.5 L 882.4 242.2 L 882.4 242.2 L 882.6 238.9 L 883.2 236.1 L 884.1 233.7 L 885.5 231.8 L 887.1 230.2 L 888.9 229.2 L 890.9 228.5 L 893.1 228.3 L 892.7 223.2 L 889.5 223.5 L 886.2 224.4 L 883.3 226 L 880.8 228.1 L 878.8 230.8 L 877.3 234.1 L 876.4 237.9 L 876.1 242.2 L 876.1 242.2 Z"/><path d="M 924 224 L 912.9 260.3 L 919.3 260.3 L 925.1 239.4 L 927.2 231.6 L 927.4 232.3 L 927.7 233.8 L 928.3 236 L 929.1 239.1 L 934.9 260.3 L 941.2 260.3 L 946.6 239.3 L 948.4 232.3 L 950.5 239.4 L 956.7 260.3 L 962.7 260.3 L 951.4 224 L 945 224 L 939.2 245.8 L 937.8 251.9 L 930.5 224 L 924 224 L 924 224 Z"/><path d="M 992.7 235.7 L 999.1 234.9 L 998.2 232.3 L 996.9 230 L 995.4 228 L 993.5 226.3 L 991.3 224.9 L 988.9 224 L 986.1 223.4 L 983.1 223.2 L 979.4 223.5 L 976 224.4 L 973 226 L 970.5 228.1 L 968.4 230.8 L 967 234 L 966.1 237.7 L 965.8 241.9 L 966.1 246.2 L 967 250 L 968.5 253.3 L 970.5 256.1 L 973.1 258.3 L 976 259.9 L 979.2 260.8 L 982.8 261.2 L 983.3 261.1 L 982.9 256.1 L 980.8 255.9 L 979 255.4 L 977.3 254.5 L 975.7 253.2 L 974.4 251.7 L 973.5 249.9 L 972.9 247.9 L 972.5 245.7 L 972.5 245.7 L 992.8 245.7 L 992.5 247.8 L 992 249.7 L 991.3 251.2 L 990.5 252.5 L 988.9 254.1 L 987.1 255.2 L 985.1 255.9 L 982.9 256.1 L 983.3 261.1 L 986.2 260.8 L 989.4 259.9 L 992.2 258.4 L 994.7 256.2 L 996.7 253.5 L 998.1 250.2 L 999 246.5 L 999.3 242.3 L 999.3 241.9 L 999.3 241.6 L 999.3 241.1 L 999.2 240.6 L 972.2 240.6 L 972.5 237.8 L 973.2 235.3 L 974.2 233.2 L 975.6 231.4 L 977.2 230.1 L 979 229.1 L 981 228.5 L 983.2 228.3 L 984.8 228.4 L 986.3 228.7 L 987.7 229.3 L 988.9 230.1 L 990.1 231.1 L 991.1 232.3 L 991.9 233.9 L 992.7 235.7 L 992.7 235.7 Z"/><path d="M 1006.8 224 L 1006.8 260.3 L 1012.3 260.3 L 1012.3 254.8 L 1013.3 256.6 L 1014.3 258.1 L 1015.3 259.2 L 1016.2 259.9 L 1017.1 260.5 L 1018.1 260.8 L 1019.1 261.1 L 1020.1 261.2 L 1021.7 261 L 1023.3 260.6 L 1024.9 260.1 L 1026.4 259.2 L 1024.4 253.4 L 1023.2 254 L 1022.1 254.5 L 1021 254.7 L 1019.8 254.8 L 1018.8 254.7 L 1017.9 254.5 L 1017 254.1 L 1016.2 253.6 L 1015.5 252.9 L 1014.8 252.1 L 1014.3 251.2 L 1013.9 250.2 L 1013.4 248.5 L 1013.1 246.8 L 1012.9 244.9 L 1012.9 243.1 L 1012.9 224 L 1006.8 224 L 1006.8 224 Z"/><path d="M 1047.1 234.9 L 1053.2 235.8 L 1053.6 234.1 L 1054.2 232.6 L 1055 231.3 L 1056 230.2 L 1057.3 229.4 L 1058.8 228.8 L 1060.6 228.4 L 1062.6 228.3 L 1064.5 228.4 L 1066.3 228.7 L 1067.7 229.2 L 1068.9 230 L 1069.8 230.9 L 1070.4 231.9 L 1070.8 232.9 L 1070.9 234 L 1070.8 235 L 1070.5 235.9 L 1069.9 236.7 L 1069.1 237.3 L 1068.2 237.8 L 1066.9 238.2 L 1065.1 238.8 L 1062.8 239.4 L 1059.7 240.3 L 1057.1 241 L 1055 241.7 L 1053.4 242.4 L 1052.2 243.1 L 1051.1 243.9 L 1050.2 244.8 L 1049.5 245.8 L 1048.9 246.9 L 1048.4 248.1 L 1048.2 249.4 L 1048.1 250.7 L 1048.2 251.9 L 1048.4 253.1 L 1048.8 254.1 L 1049.2 255.2 L 1049.8 256.2 L 1050.5 257.1 L 1051.4 257.9 L 1052.3 258.6 L 1053.1 259.2 L 1054 259.6 L 1055 260 L 1056.2 260.4 L 1057.4 260.7 L 1058.8 261 L 1060.1 261.1 L 1061.5 261.2 L 1063.6 261.1 L 1065.5 260.8 L 1067.3 260.5 L 1069 259.9 L 1070.5 259.3 L 1071.8 258.5 L 1072.9 257.6 L 1073.8 256.6 L 1074.5 255.5 L 1075.1 254.2 L 1075.5 252.7 L 1075.9 251 L 1069.9 250.1 L 1069.5 251.5 L 1069.1 252.7 L 1068.4 253.6 L 1067.5 254.5 L 1066.4 255.2 L 1065.1 255.7 L 1063.6 256 L 1061.9 256.1 L 1060 256 L 1058.3 255.7 L 1056.9 255.3 L 1055.9 254.7 L 1055.1 254 L 1054.5 253.2 L 1054.2 252.3 L 1054.1 251.4 L 1054.1 250.8 L 1054.3 250.3 L 1054.5 249.7 L 1054.8 249.3 L 1055.3 248.8 L 1055.8 248.4 L 1056.4 248 L 1057.2 247.6 L 1057.9 247.4 L 1059 247.1 L 1060.6 246.6 L 1062.6 246 L 1065.6 245.2 L 1068.2 244.5 L 1070.2 243.8 L 1071.7 243.2 L 1072.9 242.6 L 1074 241.8 L 1075 241 L 1075.8 240 L 1076.4 238.8 L 1076.9 237.6 L 1077.1 236.2 L 1077.3 234.7 L 1077.1 233.2 L 1076.8 231.7 L 1076.2 230.3 L 1075.5 228.9 L 1074.5 227.6 L 1073.2 226.5 L 1071.9 225.5 L 1070.3 224.7 L 1068.5 224 L 1066.7 223.6 L 1064.7 223.3 L 1062.6 223.2 L 1059.3 223.4 L 1056.4 224 L 1053.9 224.9 L 1051.8 226.2 L 1050.1 227.8 L 1048.8 229.8 L 1047.8 232.1 L 1047.1 234.9 L 1047.1 234.9 Z"/><path d="M 1108.2 237.3 L 1114.3 236.6 L 1113.6 233.6 L 1112.5 231 L 1111.1 228.7 L 1109.2 226.8 L 1107.1 225.2 L 1104.7 224.1 L 1102.1 223.4 L 1099.2 223.2 L 1095.6 223.5 L 1092.5 224.4 L 1089.7 226 L 1087.2 228.1 L 1085.2 230.8 L 1083.8 234 L 1083 237.8 L 1082.7 242.1 L 1082.8 244.9 L 1083.2 247.6 L 1083.8 250.1 L 1084.6 252.3 L 1085.7 254.4 L 1087.1 256.2 L 1088.7 257.7 L 1090.6 259 L 1092.6 259.9 L 1094.7 260.6 L 1096.9 261 L 1099.2 261.2 L 1102.1 261 L 1104.6 260.4 L 1106.9 259.5 L 1108.9 258.2 L 1110.6 256.5 L 1112 254.5 L 1113 252.3 L 1113.7 249.7 L 1107.7 248.8 L 1107.2 250.5 L 1106.6 251.9 L 1105.7 253.2 L 1104.7 254.2 L 1103.6 255.1 L 1102.3 255.6 L 1101 256 L 1099.5 256.1 L 1097.3 255.9 L 1095.3 255.3 L 1093.5 254.2 L 1091.9 252.8 L 1090.6 250.8 L 1089.7 248.4 L 1089.2 245.6 L 1089 242.2 L 1089.2 238.8 L 1089.7 235.9 L 1090.6 233.5 L 1091.8 231.6 L 1093.3 230.1 L 1095 229.1 L 1097 228.5 L 1099.1 228.3 L 1100.8 228.4 L 1102.5 228.8 L 1103.9 229.5 L 1105.2 230.5 L 1106.3 231.8 L 1107.1 233.3 L 1107.8 235.2 L 1108.2 237.3 L 1108.2 237.3 Z"/><path d="M 1119.5 224 L 1119.5 260.3 L 1125 260.3 L 1125 254.8 L 1126.1 256.6 L 1127.1 258.1 L 1128 259.2 L 1129 259.9 L 1129.9 260.5 L 1130.8 260.8 L 1131.8 261.1 L 1132.9 261.2 L 1134.5 261 L 1136 260.6 L 1137.6 260.1 L 1139.2 259.2 L 1137.1 253.4 L 1136 254 L 1134.9 254.5 L 1133.7 254.7 L 1132.6 254.8 L 1131.6 254.7 L 1130.7 254.5 L 1129.8 254.1 L 1129 253.6 L 1128.2 252.9 L 1127.6 252.1 L 1127.1 251.2 L 1126.7 250.2 L 1126.2 248.5 L 1125.9 246.8 L 1125.7 244.9 L 1125.6 243.1 L 1125.6 224 L 1119.5 224 L 1119.5 224 Z"/><path d="M 1167.7 235.7 L 1174.1 234.9 L 1173.2 232.3 L 1171.9 230 L 1170.4 228 L 1168.5 226.3 L 1166.3 224.9 L 1163.9 224 L 1161.1 223.4 L 1158.1 223.2 L 1154.4 223.5 L 1151 224.4 L 1148 226 L 1145.5 228.1 L 1143.4 230.8 L 1142 234 L 1141.1 237.7 L 1140.8 241.9 L 1141.1 246.2 L 1142 250 L 1143.5 253.3 L 1145.5 256.1 L 1148.1 258.3 L 1151 259.9 L 1154.2 260.8 L 1157.8 261.2 L 1158.3 261.1 L 1157.9 256.1 L 1155.8 255.9 L 1154 255.4 L 1152.3 254.5 L 1150.7 253.2 L 1149.4 251.7 L 1148.5 249.9 L 1147.9 247.9 L 1147.5 245.7 L 1147.5 245.7 L 1167.8 245.7 L 1167.5 247.8 L 1167 249.7 L 1166.3 251.2 L 1165.5 252.5 L 1163.9 254.1 L 1162.1 255.2 L 1160.1 255.9 L 1157.9 256.1 L 1158.3 261.1 L 1161.2 260.8 L 1164.4 259.9 L 1167.2 258.4 L 1169.7 256.2 L 1171.7 253.5 L 1173.1 250.2 L 1174 246.5 L 1174.3 242.3 L 1174.3 241.9 L 1174.3 241.6 L 1174.3 241.1 L 1174.2 240.6 L 1147.2 240.6 L 1147.5 237.8 L 1148.2 235.3 L 1149.2 233.2 L 1150.6 231.4 L 1152.2 230.1 L 1154 229.1 L 1156 228.5 L 1158.2 228.3 L 1159.8 228.4 L 1161.3 228.7 L 1162.7 229.3 L 1163.9 230.1 L 1165.1 231.1 L 1166.1 232.3 L 1166.9 233.9 L 1167.7 235.7 L 1167.7 235.7 Z"/><path d="M 1188.5 224 L 1177.4 260.3 L 1183.8 260.3 L 1189.5 239.4 L 1191.7 231.6 L 1191.9 232.3 L 1192.2 233.8 L 1192.8 236 L 1193.6 239.1 L 1199.4 260.3 L 1205.6 260.3 L 1211.1 239.3 L 1212.9 232.3 L 1215 239.4 L 1221.2 260.3 L 1227.2 260.3 L 1215.8 224 L 1209.5 224 L 1203.7 245.8 L 1202.3 251.9 L 1194.9 224 L 1188.5 224 L 1188.5 224 Z"/><path d="M 1714.6 515.9 L 1699.2 515.9 L 1699.2 500.6 L 1692.7 500.6 L 1692.7 515.9 L 1677.4 515.9 L 1677.4 522.4 L 1692.7 522.4 L 1692.7 537.8 L 1699.2 537.8 L 1699.2 522.4 L 1714.6 522.4 L 1714.6 515.9 L 1714.6 515.9 Z"/><path d="M 1709 545.4 L 1708.4 552.7 L 1710.8 553.2 L 1713 554 L 1714.9 555.1 L 1716.4 556.4 L 1717.5 558 L 1718.4 559.7 L 1718.8 561.6 L 1719 563.5 L 1718.8 565.9 L 1718.1 568.2 L 1716.9 570.2 L 1715.3 572 L 1713.2 573.5 L 1710.9 574.6 L 1708.2 575.3 L 1705.3 575.5 L 1702.5 575.3 L 1700 574.6 L 1697.8 573.6 L 1695.9 572.1 L 1694.4 570.3 L 1693.4 568.3 L 1692.7 566 L 1692.5 563.4 L 1692.6 561.8 L 1692.9 560.3 L 1693.4 558.8 L 1694 557.4 L 1694.8 556.1 L 1695.8 555 L 1696.8 554 L 1698 553.2 L 1697.1 546.7 L 1668.2 552.1 L 1668.2 580.1 L 1674.8 580.1 L 1674.8 557.7 L 1689.9 554.6 L 1688.4 557.2 L 1687.3 559.8 L 1686.6 562.5 L 1686.4 565.3 L 1686.7 568.8 L 1687.7 572.1 L 1689.3 575.1 L 1691.5 577.7 L 1694.2 579.9 L 1697.3 581.5 L 1700.8 582.5 L 1704.6 582.8 L 1708.3 582.5 L 1711.8 581.7 L 1714.9 580.3 L 1717.9 578.3 L 1720.8 575.4 L 1723 571.9 L 1724.3 568 L 1724.7 563.5 L 1724.4 559.9 L 1723.6 556.6 L 1722.3 553.6 L 1720.4 551 L 1718.1 548.8 L 1715.4 547.1 L 1712.4 546 L 1709 545.4 L 1709 545.4 Z"/><path d="M 1723.8 608.1 L 1667.4 586.3 L 1667.4 594.4 L 1708.3 609 L 1710.8 609.9 L 1713.1 610.6 L 1715.4 611.4 L 1717.6 612 L 1715.3 612.7 L 1712.9 613.4 L 1710.6 614.2 L 1708.3 615 L 1667.4 630.3 L 1667.4 637.9 L 1723.8 615.8 L 1723.8 608.1 L 1723.8 608.1 Z"/><path d="M 1706.8 1121.6 L 1699.9 1121.6 L 1699.9 1142.9 L 1706.8 1142.9 L 1706.8 1121.6 L 1706.8 1121.6 Z"/><path d="M 1723.8 1174.7 L 1723.8 1167.7 L 1679.7 1167.7 L 1680.8 1166.4 L 1682 1164.9 L 1683.2 1163.1 L 1684.4 1161.2 L 1685.5 1159.2 L 1686.5 1157.3 L 1687.3 1155.6 L 1688 1153.9 L 1681.3 1153.9 L 1679.9 1156.7 L 1678.3 1159.4 L 1676.6 1161.8 L 1674.7 1164 L 1672.8 1166 L 1670.9 1167.7 L 1669 1169.1 L 1667.1 1170.2 L 1667.1 1174.7 L 1723.8 1174.7 L 1723.8 1174.7 Z"/><path d="M 1717.1 1228.8 L 1723.8 1228.8 L 1723.8 1191.5 L 1722.5 1191.5 L 1721.3 1191.7 L 1720.1 1191.9 L 1719 1192.3 L 1717.1 1193.1 L 1715.2 1194.2 L 1713.3 1195.4 L 1711.4 1196.9 L 1709.5 1198.6 L 1707.5 1200.7 L 1705.3 1203.1 L 1702.9 1205.9 L 1699.4 1210.1 L 1696.2 1213.6 L 1693.4 1216.4 L 1691 1218.3 L 1688.8 1219.7 L 1686.7 1220.8 L 1684.6 1221.4 L 1682.7 1221.6 L 1680.7 1221.4 L 1678.9 1220.8 L 1677.2 1219.9 L 1675.7 1218.6 L 1674.5 1217 L 1673.6 1215.2 L 1673.1 1213.2 L 1672.9 1211 L 1673.1 1208.6 L 1673.6 1206.4 L 1674.6 1204.6 L 1675.9 1202.9 L 1677.5 1201.6 L 1679.5 1200.7 L 1681.7 1200.1 L 1684.2 1199.9 L 1683.4 1192.8 L 1679.7 1193.4 L 1676.4 1194.5 L 1673.6 1196.2 L 1671.3 1198.3 L 1669.5 1200.9 L 1668.2 1203.9 L 1667.4 1207.3 L 1667.1 1211.1 L 1667.4 1214.9 L 1668.3 1218.4 L 1669.7 1221.4 L 1671.7 1224 L 1674 1226 L 1676.7 1227.5 L 1679.6 1228.4 L 1682.8 1228.7 L 1684.5 1228.6 L 1686.2 1228.3 L 1687.8 1227.9 L 1689.5 1227.3 L 1691.1 1226.5 L 1692.8 1225.5 L 1694.5 1224.2 L 1696.4 1222.7 L 1698.3 1220.8 L 1700.6 1218.4 L 1703.3 1215.5 L 1706.2 1212 L 1708.7 1209.2 L 1710.6 1206.9 L 1712.2 1205.2 L 1713.4 1204 L 1714.3 1203.2 L 1715.2 1202.4 L 1716.2 1201.7 L 1717.1 1201.1 L 1717.1 1228.8 L 1717.1 1228.8 Z"/><path d="M 1723.8 1255.1 L 1667.4 1233.2 L 1667.4 1241.3 L 1708.3 1256 L 1710.8 1256.8 L 1713.1 1257.6 L 1715.4 1258.3 L 1717.6 1258.9 L 1715.3 1259.6 L 1712.9 1260.3 L 1710.6 1261.1 L 1708.3 1262 L 1667.4 1277.2 L 1667.4 1284.8 L 1723.8 1262.7 L 1723.8 1255.1 L 1723.8 1255.1 Z"/><path d="M 739.7 73.7 L 725.8 109.5 L 730.9 109.5 L 740.2 83.5 L 740.8 82 L 741.2 80.5 L 741.7 79 L 742.1 77.7 L 742.5 79.1 L 743 80.6 L 743.5 82 L 744 83.5 L 753.7 109.5 L 758.5 109.5 L 744.5 73.7 L 739.7 73.7 L 739.7 73.7 Z"/><path d="M 777.2 82.1 L 781.8 81.5 L 781.1 79.6 L 780.2 78 L 779.1 76.6 L 777.8 75.3 L 776.2 74.4 L 774.5 73.7 L 772.5 73.3 L 770.4 73.1 L 767.7 73.4 L 765.3 74 L 763.1 75.1 L 761.3 76.6 L 759.9 78.6 L 758.8 80.8 L 758.2 83.5 L 758 86.5 L 758.2 89.5 L 758.8 92.3 L 759.9 94.6 L 761.4 96.6 L 763.2 98.2 L 765.3 99.4 L 767.5 100 L 770.1 100.2 L 770.5 100.2 L 770.2 96.6 L 768.7 96.5 L 767.4 96.1 L 766.2 95.5 L 765.1 94.6 L 764.2 93.5 L 763.5 92.2 L 763 90.8 L 762.8 89.2 L 762.8 89.2 L 777.3 89.2 L 777.1 90.7 L 776.7 92 L 776.2 93.2 L 775.6 94.1 L 774.5 95.2 L 773.2 96 L 771.8 96.5 L 770.2 96.6 L 770.5 100.2 L 772.6 100 L 774.8 99.4 L 776.8 98.2 L 778.6 96.7 L 780.1 94.7 L 781.1 92.4 L 781.7 89.7 L 781.9 86.8 L 781.9 86.5 L 781.9 86.2 L 781.9 85.9 L 781.9 85.6 L 762.5 85.6 L 762.8 83.6 L 763.3 81.8 L 764 80.3 L 765 79 L 766.1 78 L 767.4 77.3 L 768.8 76.9 L 770.4 76.8 L 771.6 76.8 L 772.6 77.1 L 773.6 77.5 L 774.5 78 L 775.3 78.8 L 776 79.7 L 776.7 80.8 L 777.2 82.1 L 777.2 82.1 Z"/><path d="M 787.2 73.7 L 787.2 99.7 L 791.2 99.7 L 791.2 95.7 L 791.9 97 L 792.6 98 L 793.3 98.8 L 794 99.4 L 794.6 99.7 L 795.3 100 L 796 100.2 L 796.8 100.2 L 797.9 100.1 L 799 99.9 L 800.2 99.4 L 801.3 98.8 L 799.8 94.7 L 799 95.2 L 798.2 95.5 L 797.4 95.6 L 796.6 95.7 L 795.9 95.6 L 795.2 95.5 L 794.6 95.2 L 794 94.8 L 793.4 94.4 L 793 93.8 L 792.7 93.1 L 792.3 92.4 L 792 91.2 L 791.8 90 L 791.7 88.6 L 791.6 87.3 L 791.6 73.7 L 787.2 73.7 L 787.2 73.7 Z"/><path d="M 802.2 81.5 L 806.5 82.1 L 806.8 80.9 L 807.2 79.8 L 807.8 78.9 L 808.6 78.1 L 809.5 77.5 L 810.6 77.1 L 811.8 76.8 L 813.2 76.8 L 814.6 76.8 L 815.8 77.1 L 816.9 77.5 L 817.7 78 L 818.4 78.6 L 818.8 79.3 L 819.1 80.1 L 819.2 80.9 L 819.1 81.6 L 818.9 82.2 L 818.4 82.7 L 817.9 83.2 L 817.3 83.5 L 816.3 83.9 L 815 84.3 L 813.4 84.7 L 811.2 85.3 L 809.3 85.8 L 807.8 86.4 L 806.7 86.8 L 805.8 87.3 L 805.1 87.9 L 804.4 88.5 L 803.9 89.3 L 803.4 90.1 L 803.1 90.9 L 803 91.8 L 802.9 92.8 L 802.9 93.6 L 803.1 94.4 L 803.3 95.2 L 803.7 96 L 804.1 96.7 L 804.6 97.3 L 805.2 97.9 L 805.8 98.4 L 806.4 98.8 L 807.1 99.1 L 807.8 99.4 L 808.6 99.7 L 809.5 99.9 L 810.5 100.1 L 811.4 100.2 L 812.5 100.2 L 813.9 100.2 L 815.3 100 L 816.6 99.7 L 817.8 99.4 L 818.9 98.9 L 819.8 98.3 L 820.6 97.7 L 821.2 97 L 821.7 96.2 L 822.1 95.2 L 822.5 94.2 L 822.7 93 L 818.4 92.4 L 818.2 93.3 L 817.9 94.2 L 817.4 94.9 L 816.7 95.5 L 816 96 L 815 96.4 L 814 96.6 L 812.8 96.6 L 811.4 96.6 L 810.2 96.4 L 809.2 96 L 808.4 95.6 L 807.9 95.1 L 807.5 94.5 L 807.2 93.9 L 807.1 93.3 L 807.2 92.9 L 807.3 92.5 L 807.5 92.1 L 807.7 91.8 L 808 91.4 L 808.4 91.1 L 808.8 90.8 L 809.4 90.6 L 809.9 90.4 L 810.7 90.2 L 811.8 89.9 L 813.2 89.4 L 815.4 88.8 L 817.2 88.3 L 818.6 87.8 L 819.7 87.4 L 820.6 86.9 L 821.4 86.4 L 822.1 85.8 L 822.7 85.1 L 823.1 84.3 L 823.4 83.4 L 823.6 82.4 L 823.7 81.3 L 823.6 80.3 L 823.4 79.2 L 823 78.2 L 822.4 77.2 L 821.7 76.3 L 820.8 75.5 L 819.9 74.8 L 818.7 74.2 L 817.5 73.7 L 816.2 73.4 L 814.7 73.2 L 813.2 73.1 L 810.9 73.2 L 808.8 73.6 L 807 74.3 L 805.5 75.2 L 804.4 76.4 L 803.4 77.9 L 802.7 79.5 L 802.2 81.5 L 802.2 81.5 Z"/><path d="M 829 73.7 L 829 99.7 L 833.3 99.7 L 833.3 73.7 L 829 73.7 L 829 73.7 Z"/><path d="M 829 104.5 L 829 109.5 L 833.3 109.5 L 833.3 104.5 L 829 104.5 L 829 104.5 Z"/><path d="M 838.4 86.7 L 838.6 90.1 L 839.4 92.9 L 840.6 95.4 L 842.4 97.3 L 844.2 98.6 L 846.1 99.5 L 848.2 100.1 L 850.6 100.2 L 853.1 100 L 855.4 99.4 L 857.5 98.2 L 859.3 96.7 L 860.8 94.8 L 861.8 92.5 L 862.5 90 L 862.7 87.1 L 862.6 84.7 L 862.3 82.6 L 861.8 80.7 L 861.2 79.2 L 860.3 77.8 L 859.4 76.6 L 858.2 75.6 L 856.8 74.7 L 855.3 74 L 853.8 73.5 L 852.2 73.2 L 850.6 73.1 L 850.3 73.2 L 850.6 76.8 L 852.1 76.9 L 853.6 77.4 L 854.9 78.1 L 856 79.2 L 856.9 80.6 L 857.6 82.4 L 858.1 84.4 L 858.2 86.8 L 858.1 89.1 L 857.6 91 L 856.9 92.7 L 856 94.1 L 854.8 95.2 L 853.5 96 L 852.1 96.4 L 850.6 96.6 L 849 96.4 L 847.5 96 L 846.2 95.2 L 845.1 94.1 L 844.2 92.7 L 843.4 91 L 843.1 89 L 842.9 86.7 L 842.9 86.7 L 843.1 84.4 L 843.4 82.3 L 844.2 80.6 L 845.1 79.2 L 846.2 78.1 L 847.5 77.4 L 849 76.9 L 850.6 76.8 L 850.3 73.2 L 848 73.4 L 845.6 74 L 843.6 75.1 L 841.8 76.6 L 840.3 78.6 L 839.2 80.9 L 838.6 83.6 L 838.4 86.7 L 838.4 86.7 Z"/><path d="M 867.9 73.7 L 867.9 99.7 L 871.8 99.7 L 871.8 96 L 873.4 97.8 L 875.3 99.2 L 877.5 100 L 880.1 100.2 L 881.2 100.2 L 882.3 100 L 883.4 99.7 L 884.4 99.4 L 885.3 99 L 886.1 98.4 L 886.8 97.8 L 887.3 97.2 L 887.7 96.5 L 888.1 95.7 L 888.4 94.9 L 888.7 93.9 L 888.8 93.2 L 888.8 92.3 L 888.9 91.1 L 888.9 89.7 L 888.9 73.7 L 884.5 73.7 L 884.5 89.5 L 884.5 90.8 L 884.4 91.8 L 884.2 92.8 L 884 93.5 L 883.7 94.2 L 883.3 94.7 L 882.8 95.2 L 882.2 95.6 L 881.5 96 L 880.8 96.2 L 880 96.4 L 879.1 96.4 L 877.8 96.3 L 876.5 96 L 875.3 95.4 L 874.3 94.6 L 873.4 93.6 L 872.7 92.1 L 872.4 90.2 L 872.2 87.9 L 872.2 73.7 L 867.9 73.7 L 867.9 73.7 Z"/><path d="M 924.9 73.7 L 920.5 73.7 L 920.5 101.7 L 919.6 101 L 918.6 100.2 L 917.5 99.5 L 916.3 98.7 L 915.1 98 L 913.9 97.4 L 912.7 96.9 L 911.7 96.4 L 911.7 100.7 L 913.5 101.6 L 915.1 102.6 L 916.7 103.7 L 918.1 104.9 L 919.4 106.1 L 920.5 107.3 L 921.4 108.5 L 922 109.7 L 924.9 109.7 L 924.9 73.7 L 924.9 73.7 Z"/><path d="M 938.6 73.7 L 938.6 78.7 L 943.6 78.7 L 943.6 73.7 L 938.6 73.7 L 938.6 73.7 Z"/><path d="M 950 91.4 L 950.1 94.4 L 950.3 97.1 L 950.8 99.5 L 951.3 101.6 L 952.1 103.4 L 952.9 105 L 954 106.4 L 955.2 107.5 L 956.6 108.5 L 958.1 109.1 L 959.8 109.5 L 961.7 109.7 L 963.1 109.6 L 964.4 109.4 L 965.6 109 L 966.8 108.5 L 967.8 107.9 L 968.7 107.1 L 969.6 106.2 L 970.3 105.1 L 971 104 L 971.6 102.7 L 972.1 101.4 L 972.5 99.8 L 972.9 98.1 L 973.2 96.2 L 973.3 93.9 L 973.4 91.4 L 973.3 88.4 L 973.1 85.7 L 972.6 83.3 L 972.1 81.2 L 971.3 79.4 L 970.5 77.8 L 969.4 76.4 L 968.2 75.2 L 966.8 74.3 L 965.3 73.6 L 963.6 73.2 L 961.7 73.1 L 961.4 73.1 L 961.7 76.7 L 963.1 76.9 L 964.5 77.5 L 965.7 78.4 L 966.8 79.7 L 967.7 81.5 L 968.3 84 L 968.7 87.3 L 968.8 91.4 L 968.7 95.4 L 968.3 98.7 L 967.7 101.3 L 966.8 103.1 L 965.7 104.4 L 964.5 105.3 L 963.1 105.8 L 961.6 106 L 960.2 105.8 L 958.9 105.4 L 957.8 104.6 L 956.8 103.4 L 955.8 101.5 L 955.1 98.8 L 954.7 95.4 L 954.5 91.4 L 954.5 91.4 L 954.7 87.3 L 955.1 84 L 955.7 81.5 L 956.6 79.6 L 957.7 78.4 L 958.9 77.5 L 960.2 76.9 L 961.7 76.7 L 961.4 73.1 L 959.2 73.3 L 957.1 74 L 955.2 75.2 L 953.6 76.8 L 952 79.4 L 950.9 82.7 L 950.3 86.7 L 950 91.4 L 950 91.4 Z"/><path d="M 980.3 73.7 L 980.3 78.7 L 985.3 78.7 L 985.3 73.7 L 980.3 73.7 L 980.3 73.7 Z"/><path d="M 1008.3 73.7 L 1003.9 73.7 L 1003.9 101.7 L 1003 101 L 1002 100.2 L 1000.9 99.5 L 999.7 98.7 L 998.4 98 L 997.3 97.4 L 996.2 96.9 L 995.1 96.4 L 995.1 100.7 L 996.9 101.6 L 998.5 102.6 L 1000.1 103.7 L 1001.5 104.9 L 1002.8 106.1 L 1003.9 107.3 L 1004.8 108.5 L 1005.5 109.7 L 1008.3 109.7 L 1008.3 73.7 L 1008.3 73.7 Z"/></g></svg>