<?xml-stylesheet href="https://s3.amazonaws.com/maker.works.boards/css/blackpcb.css" type="text/css"?><svg xmlns="http://www.w3.org/2000/svg" version="1.1" xmlns:xlink="http://www.w3.org/1999/xlink" stroke-width="0" stroke-linecap="round" stroke-linejoin="round" width="1.2in" height="0.66in" id="pcb_bottom" viewBox="7.5 7.5 1200 660"><defs><circle cx="0" cy="0" r="21.5" id="tool-T10-pad-1000"/><circle cx="0" cy="0" r="126" id="tool-T11-pad-1001"/><circle cx="0" cy="0" r="44.5" id="tool-T12-pad-1002"/><rect x="-32.5" y="-32.5" width="65" height="65" id="tool-D11-pad-1004"/><circle cx="0" cy="0" r="32.5" id="tool-D12-pad-1005"/><circle cx="0" cy="0" r="56.1" id="tool-D13-pad-1006"/><rect x="-56.1" y="-56.1" width="112.2" height="112.2" id="tool-D14-pad-1007"/><rect x="-32.5" y="-32.5" width="65" height="65" id="tool-D10-pad-1008"/><circle cx="0" cy="0" r="32.5" id="tool-D11-pad-1009"/><circle cx="0" cy="0" r="56.1" id="tool-D12-pad-1010"/><rect x="-56.1" y="-56.1" width="112.2" height="112.2" id="tool-D13-pad-1011"/><g id="pcb_bottom-cu" fill="currentColor" stroke="currentColor"><path stroke-width="30" fill="none" d="M 216.5 312.5 L 492.1 588.1 M 492.1 588.1 L 640.1 588.1 M 816.5 312.5 L 1016.5 312.5 M 640.1 588.1 L 776.5 451.7 M 776.5 451.7 L 776.5 352.5 M 776.5 352.5 L 816.5 312.5"/><use x="216.5" y="412.5" xlink:href="#tool-D11-pad-1004"/><use x="216.5" y="312.5" xlink:href="#tool-D12-pad-1005"/><use x="216.5" y="212.5" xlink:href="#tool-D12-pad-1005"/><use x="522" y="84.2" xlink:href="#tool-D13-pad-1006"/><use x="364.5" y="312.5" xlink:href="#tool-D13-pad-1006"/><use x="640.1" y="588.1" xlink:href="#tool-D13-pad-1006"/><use x="868.5" y="430.6" xlink:href="#tool-D13-pad-1006"/><use x="800.6" y="152.1" xlink:href="#tool-D14-pad-1007"/><use x="1016.5" y="412.5" xlink:href="#tool-D11-pad-1004"/><use x="1016.5" y="312.5" xlink:href="#tool-D12-pad-1005"/><use x="1016.5" y="212.5" xlink:href="#tool-D12-pad-1005"/></g><mask id="pcb_bottom_mech-mask" fill="#fff" stroke="#fff" fill-rule="evenodd"><path stroke-width="0" d="M 107.5 7.5 Z M 107.5 7.5 A 100 100 0 0 0 7.5 107.5 L 7.5 567.5 A 100 100 0 0 0 107.5 667.5 L 1107.5 667.5 A 100 100 0 0 0 1207.5 567.5 L 1207.5 107.5 A 100 100 0 0 0 1107.5 7.5 Z"/><g id="pcb_bottom-drl" fill="#000" stroke="#000"><use x="216.5" y="412.5" xlink:href="#tool-T10-pad-1000"/><use x="216.5" y="312.5" xlink:href="#tool-T10-pad-1000"/><use x="216.5" y="212.5" xlink:href="#tool-T10-pad-1000"/><use x="1016.5" y="412.5" xlink:href="#tool-T10-pad-1000"/><use x="1016.5" y="312.5" xlink:href="#tool-T10-pad-1000"/><use x="1016.5" y="212.5" xlink:href="#tool-T10-pad-1000"/><use x="616.5" y="336.1" xlink:href="#tool-T11-pad-1001"/><use x="522" y="84.2" xlink:href="#tool-T12-pad-1002"/><use x="364.5" y="312.5" xlink:href="#tool-T12-pad-1002"/><use x="640.1" y="588.1" xlink:href="#tool-T12-pad-1002"/><use x="868.5" y="430.6" xlink:href="#tool-T12-pad-1002"/><use x="800.6" y="152.1" xlink:href="#tool-T12-pad-1002"/></g></mask></defs><g mask="url(#pcb_bottom_mech-mask)" transform="translate(1215,675) scale(-1,-1)"><rect x="7.5" y="7.5" width="1200" height="660" fill="currentColor" class="pcb_board-fr4"/><use class="pcb_board-cu" xlink:href="#pcb_bottom-cu"/><g><defs><g id="pcb_bottom-sm" fill="currentColor" stroke="currentColor"><use x="216.5" y="412.5" xlink:href="#tool-D10-pad-1008"/><use x="216.5" y="312.5" xlink:href="#tool-D11-pad-1009"/><use x="216.5" y="212.5" xlink:href="#tool-D11-pad-1009"/><use x="522" y="84.2" xlink:href="#tool-D12-pad-1010"/><use x="364.5" y="312.5" xlink:href="#tool-D12-pad-1010"/><use x="640.1" y="588.1" xlink:href="#tool-D12-pad-1010"/><use x="868.5" y="430.6" xlink:href="#tool-D12-pad-1010"/><use x="800.6" y="152.1" xlink:href="#tool-D13-pad-1011"/><use x="1016.5" y="412.5" xlink:href="#tool-D10-pad-1008"/><use x="1016.5" y="312.5" xlink:href="#tool-D11-pad-1009"/><use x="1016.5" y="212.5" xlink:href="#tool-D11-pad-1009"/></g><mask id="pcb_bottom-sm_mask" color="#000"><rect x="7.5" y="7.5" width="1200" height="660" fill="#fff"/><use xlink:href="#pcb_bottom-sm"/></mask><mask id="pcb_bottom-cu_finish-mask" color="#fff"><use xlink:href="#pcb_bottom-cu"/></mask></defs><g mask="url(#pcb_bottom-sm_mask)"><rect x="7.5" y="7.5" width="1200" height="660" fill="currentColor" class="pcb_board-sm"/><g id="pcb_bottom-ss" class="pcb_board-ss" fill="currentColor" stroke="currentColor"></g></g><use class="pcb_board-cf" mask="url(#pcb_bottom-cu_finish-mask)" xlink:href="#pcb_bottom-sm"/></g></g></svg>