<?xml-stylesheet href="https://s3.amazonaws.com/maker.works.boards/css/blackpcb.css" type="text/css"?><svg xmlns="http://www.w3.org/2000/svg" version="1.1" xmlns:xlink="http://www.w3.org/1999/xlink" stroke-width="0" stroke-linecap="round" stroke-linejoin="round" width="1.2in" height="0.66in" id="pcb_top" viewBox="7.5 7.5 1200 660"><defs><circle cx="0" cy="0" r="21.5" id="tool-T10-pad-1000"/><circle cx="0" cy="0" r="126" id="tool-T11-pad-1001"/><circle cx="0" cy="0" r="44.5" id="tool-T12-pad-1002"/><rect x="-32.5" y="-32.5" width="65" height="65" id="tool-D11-pad-1013"/><circle cx="0" cy="0" r="32.5" id="tool-D12-pad-1014"/><circle cx="0" cy="0" r="56.1" id="tool-D13-pad-1015"/><rect x="-56.1" y="-56.1" width="112.2" height="112.2" id="tool-D14-pad-1016"/><circle cx="0" cy="0" r="9.85" id="tool-D11-pad-1018"/><rect x="-32.5" y="-32.5" width="65" height="65" id="tool-D10-pad-1020"/><circle cx="0" cy="0" r="32.5" id="tool-D11-pad-1021"/><circle cx="0" cy="0" r="56.1" id="tool-D12-pad-1022"/><rect x="-56.1" y="-56.1" width="112.2" height="112.2" id="tool-D13-pad-1023"/><g id="pcb_top-cu" fill="currentColor" stroke="currentColor"><path stroke-width="30" fill="none" d="M 216.5 412.5 L 301.5 497.5 M 301.5 497.5 L 801.6 497.5 M 868.5 430.6 L 998.4 430.6 M 960.4 152.1 L 1016.5 208.2 M 531.5 197.5 L 231.5 197.5 M 801.6 497.5 L 868.5 430.6 M 576.9 152.1 L 960.4 152.1 M 576.9 152.1 L 531.5 197.5"/><use x="216.5" y="412.5" xlink:href="#tool-D11-pad-1013"/><use x="216.5" y="312.5" xlink:href="#tool-D12-pad-1014"/><use x="216.5" y="212.5" xlink:href="#tool-D12-pad-1014"/><use x="522" y="84.2" xlink:href="#tool-D13-pad-1015"/><use x="364.5" y="312.5" xlink:href="#tool-D13-pad-1015"/><use x="640.1" y="588.1" xlink:href="#tool-D13-pad-1015"/><use x="868.5" y="430.6" xlink:href="#tool-D13-pad-1015"/><use x="800.6" y="152.1" xlink:href="#tool-D14-pad-1016"/><use x="1016.5" y="412.5" xlink:href="#tool-D11-pad-1013"/><use x="1016.5" y="312.5" xlink:href="#tool-D12-pad-1014"/><use x="1016.5" y="212.5" xlink:href="#tool-D12-pad-1014"/></g><mask id="pcb_top_mech-mask" fill="#fff" stroke="#fff" fill-rule="evenodd"><path stroke-width="0" d="M 107.5 7.5 Z M 107.5 7.5 A 100 100 0 0 0 7.5 107.5 L 7.5 567.5 A 100 100 0 0 0 107.5 667.5 L 1107.5 667.5 A 100 100 0 0 0 1207.5 567.5 L 1207.5 107.5 A 100 100 0 0 0 1107.5 7.5 Z"/><g id="pcb_top-drl" fill="#000" stroke="#000"><use x="216.5" y="412.5" xlink:href="#tool-T10-pad-1000"/><use x="216.5" y="312.5" xlink:href="#tool-T10-pad-1000"/><use x="216.5" y="212.5" xlink:href="#tool-T10-pad-1000"/><use x="1016.5" y="412.5" xlink:href="#tool-T10-pad-1000"/><use x="1016.5" y="312.5" xlink:href="#tool-T10-pad-1000"/><use x="1016.5" y="212.5" xlink:href="#tool-T10-pad-1000"/><use x="616.5" y="336.1" xlink:href="#tool-T11-pad-1001"/><use x="522" y="84.2" xlink:href="#tool-T12-pad-1002"/><use x="364.5" y="312.5" xlink:href="#tool-T12-pad-1002"/><use x="640.1" y="588.1" xlink:href="#tool-T12-pad-1002"/><use x="868.5" y="430.6" xlink:href="#tool-T12-pad-1002"/><use x="800.6" y="152.1" xlink:href="#tool-T12-pad-1002"/></g></mask></defs><g mask="url(#pcb_top_mech-mask)" transform="translate(0,675) scale(1,-1)"><rect x="7.5" y="7.5" width="1200" height="660" fill="currentColor" class="pcb_board-fr4"/><use class="pcb_board-cu" xlink:href="#pcb_top-cu"/><g><defs><g id="pcb_top-sm" fill="currentColor" stroke="currentColor"><use x="216.5" y="412.5" xlink:href="#tool-D10-pad-1020"/><use x="216.5" y="312.5" xlink:href="#tool-D11-pad-1021"/><use x="216.5" y="212.5" xlink:href="#tool-D11-pad-1021"/><use x="522" y="84.2" xlink:href="#tool-D12-pad-1022"/><use x="364.5" y="312.5" xlink:href="#tool-D12-pad-1022"/><use x="640.1" y="588.1" xlink:href="#tool-D12-pad-1022"/><use x="868.5" y="430.6" xlink:href="#tool-D12-pad-1022"/><use x="800.6" y="152.1" xlink:href="#tool-D13-pad-1023"/><use x="1016.5" y="412.5" xlink:href="#tool-D10-pad-1020"/><use x="1016.5" y="312.5" xlink:href="#tool-D11-pad-1021"/><use x="1016.5" y="212.5" xlink:href="#tool-D11-pad-1021"/></g><mask id="pcb_top-sm_mask" color="#000"><rect x="7.5" y="7.5" width="1200" height="660" fill="#fff"/><use xlink:href="#pcb_top-sm"/></mask><mask id="pcb_top-cu_finish-mask" color="#fff"><use xlink:href="#pcb_top-cu"/></mask></defs><g mask="url(#pcb_top-sm_mask)"><rect x="7.5" y="7.5" width="1200" height="660" fill="currentColor" class="pcb_board-sm"/><g id="pcb_top-ss" class="pcb_board-ss" fill="currentColor" stroke="currentColor"><path stroke-width="5.9" fill="none" d="M 149.8 479.2 L 283.2 479.2 M 149.8 479.2 L 149.8 145.8 M 149.8 145.8 L 283.2 145.8 M 283.2 145.8 L 283.2 479.2"/><use x="137" y="412.5" xlink:href="#tool-D11-pad-1018"/><path stroke-width="5.9" fill="none" d="M 303.5 23.1 L 303.5 649.1 M 303.5 649.1 L 929.5 649.1 M 929.5 649.1 L 929.5 23.1 M 929.5 23.1 L 303.5 23.1"/><use x="947.2" y="142.2" xlink:href="#tool-D11-pad-1018"/><path stroke-width="5.9" fill="none" d="M 949.8 479.2 L 1083.2 479.2 M 949.8 479.2 L 949.8 145.8 M 949.8 145.8 L 1083.2 145.8 M 1083.2 145.8 L 1083.2 479.2"/><use x="937" y="412.5" xlink:href="#tool-D11-pad-1018"/><path stroke-width="8" fill="none" d="M 957.7 550.4 L 957.7 550.4 M 957.7 550.4 L 957.7 550.4 M 957.7 550.4 L 971.9 550.4 M 971.9 550.4 L 971.9 555.4 M 971.9 555.4 L 937.9 555.4 M 937.9 555.4 L 937.9 550.4 M 937.9 550.4 L 952.1 550.4 M 952.1 550.4 L 952.1 550.4 M 952.1 550.4 L 952.1 512.5 M 952.1 512.5 L 957.7 512.5 M 957.7 512.5 L 957.7 550.4 M 980.2 555.4 L 980.2 555.4 M 980.2 555.4 L 974.9 555.4 M 974.9 555.4 L 974.9 549.4 M 974.9 549.4 L 980.2 549.4 M 980.2 549.4 L 980.2 555.4 M 980.2 543.6 L 980.2 543.6 M 980.2 543.6 L 974.9 543.6 M 974.9 543.6 L 974.9 512.5 M 974.9 512.5 L 980.2 512.5 M 980.2 512.5 L 980.2 543.6 M 993.4 515.7 L 993.4 515.7 M 993.4 515.7 L 993.5 515.7 M 993.5 515.7 L 994.2 514.9 M 994.2 514.9 L 995 514.2 M 995 514.2 L 995.9 513.5 M 995.9 513.5 L 996.9 512.9 M 996.9 512.9 L 998 512.5 M 998 512.5 L 999.2 512.1 M 999.2 512.1 L 1000.4 511.9 M 1000.4 511.9 L 1001.6 511.8 M 1001.6 511.8 L 1003.4 511.9 M 1003.4 511.9 L 1005.2 512.3 M 1005.2 512.3 L 1006.9 513 M 1006.9 513 L 1008.5 513.8 M 1008.5 513.8 L 1010.1 515 M 1010.1 515 L 1011.4 516.3 M 1011.4 516.3 L 1012.5 517.9 M 1012.5 517.9 L 1013.5 519.7 M 1013.5 519.7 L 1014.2 521.7 M 1014.2 521.7 L 1014.8 523.8 M 1014.8 523.8 L 1015.1 526 M 1015.1 526 L 1015.2 528.3 M 1015.2 528.3 L 1015.1 530.5 M 1015.1 530.5 L 1014.8 532.6 M 1014.8 532.6 L 1014.3 534.5 M 1014.3 534.5 L 1013.6 536.5 M 1013.6 536.5 L 1012.8 538.2 M 1012.8 538.2 L 1011.7 539.8 M 1011.7 539.8 L 1010.5 541.1 M 1010.5 541.1 L 1009 542.3 M 1009 542.3 L 1007.5 543.1 M 1007.5 543.1 L 1005.8 543.8 M 1005.8 543.8 L 1004 544.2 M 1004 544.2 L 1002 544.3 M 1002 544.3 L 1000.6 544.2 M 1000.6 544.2 L 999.2 544 M 999.2 544 L 998 543.6 M 998 543.6 L 996.9 543.1 M 996.9 543.1 L 995.8 542.5 M 995.8 542.5 L 994.8 541.6 M 994.8 541.6 L 993.9 540.7 M 993.9 540.7 L 993 539.5 M 993 539.5 L 993 539.5 M 993 539.5 L 993 543.6 M 993 543.6 L 988.2 543.6 M 988.2 543.6 L 988.2 500.6 M 988.2 500.6 L 993.4 500.6 M 993.4 500.6 L 993.4 515.7 M 993 527.9 L 993 527.9 M 993 527.9 L 993.1 525.1 M 993.1 525.1 L 993.6 522.7 M 993.6 522.7 L 994.4 520.6 M 994.4 520.6 L 995.4 519 M 995.4 519 L 996.7 517.7 M 996.7 517.7 L 998.1 516.9 M 998.1 516.9 L 999.6 516.3 M 999.6 516.3 L 1001.3 516.1 M 1001.3 516.1 L 1003 516.3 M 1003 516.3 L 1004.5 516.9 M 1004.5 516.9 L 1006 517.8 M 1006 517.8 L 1007.3 519.1 M 1007.3 519.1 L 1008.4 520.8 M 1008.4 520.8 L 1009.2 522.9 M 1009.2 522.9 L 1009.7 525.4 M 1009.7 525.4 L 1009.8 528.3 M 1009.8 528.3 L 1009.7 531.1 M 1009.7 531.1 L 1009.2 533.5 M 1009.2 533.5 L 1008.4 535.6 M 1008.4 535.6 L 1007.4 537.2 M 1007.4 537.2 L 1006.1 538.5 M 1006.1 538.5 L 1004.7 539.4 M 1004.7 539.4 L 1003.2 540 M 1003.2 540 L 1001.6 540.2 M 1001.6 540.2 L 999.9 540 M 999.9 540 L 998.4 539.4 M 998.4 539.4 L 996.9 538.4 M 996.9 538.4 L 995.6 537 M 995.6 537 L 994.4 535.3 M 994.4 535.3 L 993.6 533.2 M 993.6 533.2 L 993.1 530.7 M 993.1 530.7 L 993 527.9 M 1051.2 511.9 L 1051.2 511.9 M 1051.2 511.9 L 1052.9 512.1 M 1052.9 512.1 L 1054.5 512.5 M 1054.5 512.5 L 1056 513.1 M 1056 513.1 L 1057.3 513.8 M 1057.3 513.8 L 1058.6 514.6 M 1058.6 514.6 L 1059.6 515.6 M 1059.6 515.6 L 1060.4 516.7 M 1060.4 516.7 L 1061.1 517.9 M 1061.1 517.9 L 1061.6 519.1 M 1061.6 519.1 L 1061.9 520.3 M 1061.9 520.3 L 1061.9 521.6 M 1061.9 521.6 L 1061.9 522.9 M 1061.9 522.9 L 1061.6 524.1 M 1061.6 524.1 L 1061.2 525.2 M 1061.2 525.2 L 1060.7 526.1 M 1060.7 526.1 L 1060 527 M 1060 527 L 1059.2 527.7 M 1059.2 527.7 L 1058.3 528.4 M 1058.3 528.4 L 1057.2 528.9 M 1057.2 528.9 L 1055.9 529.4 M 1055.9 529.4 L 1054.2 530 M 1054.2 530 L 1052 530.6 M 1052 530.6 L 1049.4 531.4 M 1049.4 531.4 L 1049.4 531.4 M 1049.4 531.4 L 1047.7 531.8 M 1047.7 531.8 L 1047.7 531.8 M 1047.7 531.8 L 1046.3 532.2 M 1046.3 532.2 L 1046.3 532.2 M 1046.3 532.2 L 1045.4 532.5 M 1045.4 532.5 L 1045.4 532.5 M 1045.4 532.5 L 1044.8 532.7 M 1044.8 532.7 L 1044.8 532.7 M 1044.8 532.7 L 1044.1 533 M 1044.1 533 L 1044.1 533 M 1044.1 533 L 1043.6 533.3 M 1043.6 533.3 L 1043.6 533.3 M 1043.6 533.3 L 1043.1 533.7 M 1043.1 533.7 L 1043.1 533.7 M 1043.1 533.7 L 1042.7 534.1 M 1042.7 534.1 L 1042.7 534.1 M 1042.7 534.1 L 1042.5 534.5 M 1042.5 534.5 L 1042.5 534.5 M 1042.5 534.5 L 1042.3 535 M 1042.3 535 L 1042.3 535 M 1042.3 535 L 1042.1 535.5 M 1042.1 535.5 L 1042.1 535.5 M 1042.1 535.5 L 1042.1 536 M 1042.1 536 L 1042.1 536 M 1042.1 536 L 1042.2 536.8 M 1042.2 536.8 L 1042.2 536.8 M 1042.2 536.8 L 1042.5 537.5 M 1042.5 537.5 L 1042.5 537.5 M 1042.5 537.5 L 1043 538.2 M 1043 538.2 L 1043 538.2 M 1043 538.2 L 1043.6 538.8 M 1043.6 538.8 L 1043.6 538.8 M 1043.6 538.8 L 1044.5 539.3 M 1044.5 539.3 L 1044.5 539.3 M 1044.5 539.3 L 1045.7 539.7 M 1045.7 539.7 L 1045.7 539.7 M 1045.7 539.7 L 1047.1 539.9 M 1047.1 539.9 L 1047.1 539.9 M 1047.1 539.9 L 1048.8 540 M 1048.8 540 L 1048.8 540 M 1048.8 540 L 1050.3 539.9 M 1050.3 539.9 L 1050.3 539.9 M 1050.3 539.9 L 1051.6 539.7 M 1051.6 539.7 L 1051.6 539.7 M 1051.6 539.7 L 1052.7 539.2 M 1052.7 539.2 L 1052.7 539.2 M 1052.7 539.2 L 1053.6 538.6 M 1053.6 538.6 L 1053.6 538.6 M 1053.6 538.6 L 1054.4 537.9 M 1054.4 537.9 L 1054.4 537.9 M 1054.4 537.9 L 1055 537 M 1055 537 L 1055 537 M 1055 537 L 1055.4 536 M 1055.4 536 L 1055.4 536 M 1055.4 536 L 1055.6 534.9 M 1055.6 534.9 L 1060.8 535.6 M 1060.8 535.6 L 1060.5 537 M 1060.5 537 L 1060.1 538.3 M 1060.1 538.3 L 1059.6 539.4 M 1059.6 539.4 L 1059 540.4 M 1059 540.4 L 1058.2 541.2 M 1058.2 541.2 L 1057.3 542 M 1057.3 542 L 1056.2 542.7 M 1056.2 542.7 L 1054.9 543.2 M 1054.9 543.2 L 1053.4 543.7 M 1053.4 543.7 L 1051.9 544 M 1051.9 544 L 1050.3 544.2 M 1050.3 544.2 L 1048.5 544.3 M 1048.5 544.3 L 1047.3 544.3 M 1047.3 544.3 L 1046.1 544.2 M 1046.1 544.2 L 1045 544 M 1045 544 L 1043.9 543.7 M 1043.9 543.7 L 1042.9 543.3 M 1042.9 543.3 L 1042 543 M 1042 543 L 1041.2 542.6 M 1041.2 542.6 L 1040.6 542.1 M 1040.6 542.1 L 1039.8 541.5 M 1039.8 541.5 L 1039.1 540.8 M 1039.1 540.8 L 1038.5 540.1 M 1038.5 540.1 L 1038 539.2 M 1038 539.2 L 1037.6 538.3 M 1037.6 538.3 L 1037.3 537.3 M 1037.3 537.3 L 1037.1 536.4 M 1037.1 536.4 L 1037 535.3 M 1037 535.3 L 1037.1 534.2 M 1037.1 534.2 L 1037.3 533.2 M 1037.3 533.2 L 1037.7 532.1 M 1037.7 532.1 L 1038.2 531.2 M 1038.2 531.2 L 1038.8 530.3 M 1038.8 530.3 L 1039.6 529.5 M 1039.6 529.5 L 1040.5 528.8 M 1040.5 528.8 L 1041.6 528.2 M 1041.6 528.2 L 1042.9 527.7 M 1042.9 527.7 L 1044.7 527.1 M 1044.7 527.1 L 1046.9 526.4 M 1046.9 526.4 L 1049.6 525.7 M 1049.6 525.7 L 1049.6 525.7 M 1049.6 525.7 L 1051.6 525.2 M 1051.6 525.2 L 1051.6 525.2 M 1051.6 525.2 L 1053.1 524.7 M 1053.1 524.7 L 1053.1 524.7 M 1053.1 524.7 L 1054.3 524.3 M 1054.3 524.3 L 1054.3 524.3 M 1054.3 524.3 L 1055 523.9 M 1055 523.9 L 1055 523.9 M 1055 523.9 L 1055.7 523.4 M 1055.7 523.4 L 1055.7 523.4 M 1055.7 523.4 L 1056.2 522.7 M 1056.2 522.7 L 1056.2 522.7 M 1056.2 522.7 L 1056.5 521.9 M 1056.5 521.9 L 1056.5 521.9 M 1056.5 521.9 L 1056.6 521.1 M 1056.6 521.1 L 1056.6 521.1 M 1056.6 521.1 L 1056.5 520.1 M 1056.5 520.1 L 1056.5 520.1 M 1056.5 520.1 L 1056.1 519.2 M 1056.1 519.2 L 1056.1 519.2 M 1056.1 519.2 L 1055.6 518.4 M 1055.6 518.4 L 1055.6 518.4 M 1055.6 518.4 L 1054.8 517.6 M 1054.8 517.6 L 1054.8 517.6 M 1054.8 517.6 L 1053.8 516.9 M 1053.8 516.9 L 1053.8 516.9 M 1053.8 516.9 L 1052.6 516.5 M 1052.6 516.5 L 1052.6 516.5 M 1052.6 516.5 L 1051.1 516.2 M 1051.1 516.2 L 1051.1 516.2 M 1051.1 516.2 L 1049.4 516.1 M 1049.4 516.1 L 1049.4 516.1 M 1049.4 516.1 L 1047.7 516.2 M 1047.7 516.2 L 1047.7 516.2 M 1047.7 516.2 L 1046.2 516.5 M 1046.2 516.5 L 1046.2 516.5 M 1046.2 516.5 L 1044.9 517.1 M 1044.9 517.1 L 1044.9 517.1 M 1044.9 517.1 L 1043.8 517.8 M 1043.8 517.8 L 1043.8 517.8 M 1043.8 517.8 L 1042.9 518.7 M 1042.9 518.7 L 1042.9 518.7 M 1042.9 518.7 L 1042.1 519.8 M 1042.1 519.8 L 1042.1 519.8 M 1042.1 519.8 L 1041.6 521.1 M 1041.6 521.1 L 1041.6 521.1 M 1041.6 521.1 L 1041.3 522.6 M 1041.3 522.6 L 1036.2 521.8 M 1036.2 521.8 L 1036.8 519.5 M 1036.8 519.5 L 1037.6 517.5 M 1037.6 517.5 L 1038.8 515.7 M 1038.8 515.7 L 1040.2 514.4 M 1040.2 514.4 L 1042 513.2 M 1042 513.2 L 1044.1 512.5 M 1044.1 512.5 L 1046.6 512 M 1046.6 512 L 1049.4 511.8 M 1049.4 511.8 L 1051.2 511.9 M 1073.5 529.5 L 1073.5 529.5 M 1073.5 529.5 L 1073.5 529.5 M 1073.5 529.5 L 1073.6 531.2 M 1073.6 531.2 L 1073.6 531.2 M 1073.6 531.2 L 1073.7 532.8 M 1073.7 532.8 L 1073.7 532.8 M 1073.7 532.8 L 1074 534.1 M 1074 534.1 L 1074 534.1 M 1074 534.1 L 1074.4 535.3 M 1074.4 535.3 L 1074.4 535.3 M 1074.4 535.3 L 1074.9 536.2 M 1074.9 536.2 L 1074.9 536.3 M 1074.9 536.3 L 1075.6 537.1 M 1075.6 537.1 L 1075.6 537.1 M 1075.6 537.1 L 1076.4 537.9 M 1076.4 537.9 L 1076.4 537.9 M 1076.4 537.9 L 1077.3 538.6 M 1077.3 538.6 L 1077.3 538.6 M 1077.3 538.6 L 1078.4 539.1 M 1078.4 539.1 L 1078.4 539.1 M 1078.4 539.1 L 1079.5 539.5 M 1079.5 539.5 L 1079.5 539.5 M 1079.5 539.5 L 1080.6 539.7 M 1080.6 539.7 L 1080.6 539.7 M 1080.6 539.7 L 1081.8 539.8 M 1081.8 539.8 L 1081.8 539.8 M 1081.8 539.8 L 1083.2 539.7 M 1083.2 539.7 L 1083.2 539.7 M 1083.2 539.7 L 1084.5 539.4 M 1084.5 539.4 L 1084.5 539.4 M 1084.5 539.4 L 1085.6 538.8 M 1085.6 538.8 L 1085.6 538.8 M 1085.6 538.8 L 1086.6 538 M 1086.6 538 L 1086.6 538 M 1086.6 538 L 1087.4 536.9 M 1087.4 536.9 L 1087.4 536.9 M 1087.4 536.9 L 1087.9 535.6 M 1087.9 535.6 L 1087.9 535.6 M 1087.9 535.6 L 1088.2 534.1 M 1088.2 534.1 L 1088.2 534.1 M 1088.2 534.1 L 1088.3 532.2 M 1088.3 532.2 L 1088.3 532.2 M 1088.3 532.2 L 1088.3 512.5 M 1088.3 512.5 L 1093.6 512.5 M 1093.6 512.5 L 1093.6 532.2 M 1093.6 532.2 L 1093.5 534.4 M 1093.5 534.4 L 1093.3 536.2 M 1093.3 536.2 L 1092.9 537.9 M 1092.9 537.9 L 1092.5 539.2 M 1092.5 539.2 L 1091.8 540.3 M 1091.8 540.3 L 1091 541.3 M 1091 541.3 L 1090 542.2 M 1090 542.2 L 1088.8 542.9 M 1088.8 542.9 L 1087.5 543.5 M 1087.5 543.5 L 1086 544 M 1086 544 L 1084.5 544.2 M 1084.5 544.2 L 1082.9 544.3 M 1082.9 544.3 L 1080.1 544 M 1080.1 544 L 1077.7 543.2 M 1077.7 543.2 L 1075.5 541.9 M 1075.5 541.9 L 1073.5 540 M 1073.5 540 L 1073.5 540 M 1073.5 540 L 1073.5 555.4 M 1073.5 555.4 L 1068.2 555.4 M 1068.2 555.4 L 1068.2 512.5 M 1068.2 512.5 L 1073.5 512.5 M 1073.5 512.5 L 1073.5 529.5 M 1115.1 512.1 L 1115.1 512.1 M 1115.1 512.1 L 1117.7 513.1 M 1117.7 513.1 L 1120 514.8 M 1120 514.8 L 1122 517.1 M 1122 517.1 L 1122 517.1 M 1122 517.1 L 1122 512.5 M 1122 512.5 L 1126.7 512.5 M 1126.7 512.5 L 1126.7 543.6 M 1126.7 543.6 L 1121.5 543.6 M 1121.5 543.6 L 1121.5 526.9 M 1121.5 526.9 L 1121.5 526.9 M 1121.5 526.9 L 1121.4 525.1 M 1121.4 525.1 L 1121.4 525.1 M 1121.4 525.1 L 1121.2 523.4 M 1121.2 523.4 L 1121.2 523.4 M 1121.2 523.4 L 1121 522 M 1121 522 L 1121 522 M 1121 522 L 1120.6 520.8 M 1120.6 520.8 L 1120.6 520.8 M 1120.6 520.8 L 1120.1 519.9 M 1120.1 519.9 L 1120.1 519.9 M 1120.1 519.9 L 1119.4 519 M 1119.4 519 L 1119.4 519 M 1119.4 519 L 1118.6 518.2 M 1118.6 518.2 L 1118.6 518.2 M 1118.6 518.2 L 1117.7 517.5 M 1117.7 517.5 L 1117.7 517.5 M 1117.7 517.5 L 1116.6 517 M 1116.6 517 L 1116.6 517 M 1116.6 517 L 1115.5 516.6 M 1115.5 516.6 L 1115.5 516.6 M 1115.5 516.6 L 1114.4 516.4 M 1114.4 516.4 L 1114.4 516.4 M 1114.4 516.4 L 1113.2 516.3 M 1113.2 516.3 L 1113.2 516.3 M 1113.2 516.3 L 1112 516.4 M 1112 516.4 L 1112 516.4 M 1112 516.4 L 1111 516.6 M 1111 516.6 L 1111 516.6 M 1111 516.6 L 1110.1 517 M 1110.1 517 L 1110.1 517 M 1110.1 517 L 1109.2 517.5 M 1109.2 517.5 L 1109.2 517.5 M 1109.2 517.5 L 1108.4 518.2 M 1108.4 518.2 L 1108.4 518.2 M 1108.4 518.2 L 1107.9 518.9 M 1107.9 518.9 L 1107.9 518.9 M 1107.9 518.9 L 1107.4 519.8 M 1107.4 519.8 L 1107.4 519.8 M 1107.4 519.8 L 1107.1 520.8 M 1107.1 520.8 L 1107.1 520.8 M 1107.1 520.8 L 1106.9 521.7 M 1106.9 521.7 L 1106.9 521.7 M 1106.9 521.7 L 1106.8 522.9 M 1106.8 522.9 L 1106.8 522.9 M 1106.8 522.9 L 1106.8 524.5 M 1106.8 524.5 L 1106.8 524.5 M 1106.8 524.5 L 1106.8 526.4 M 1106.8 526.4 L 1106.8 526.4 M 1106.8 526.4 L 1106.8 543.6 M 1106.8 543.6 L 1101.5 543.6 M 1101.5 543.6 L 1101.5 524.4 M 1101.5 524.4 L 1101.6 522.8 M 1101.6 522.8 L 1101.6 521.4 M 1101.6 521.4 L 1101.7 520.3 M 1101.7 520.3 L 1101.8 519.4 M 1101.8 519.4 L 1102.1 518.3 M 1102.1 518.3 L 1102.5 517.3 M 1102.5 517.3 L 1102.9 516.4 M 1102.9 516.4 L 1103.4 515.5 M 1103.4 515.5 L 1104.1 514.7 M 1104.1 514.7 L 1104.9 514.1 M 1104.9 514.1 L 1105.9 513.4 M 1105.9 513.4 L 1107 512.9 M 1107 512.9 L 1108.2 512.4 M 1108.2 512.4 L 1109.5 512.1 M 1109.5 512.1 L 1110.8 511.9 M 1110.8 511.9 L 1112.1 511.8 M 1112.1 511.8 L 1115.1 512.1 M 1140.3 529.5 L 1140.3 529.5 M 1140.3 529.5 L 1140.3 529.5 M 1140.3 529.5 L 1140.4 532.2 M 1140.4 532.2 L 1140.4 532.2 M 1140.4 532.2 L 1140.8 534.5 M 1140.8 534.5 L 1140.8 534.5 M 1140.8 534.5 L 1141.6 536.3 M 1141.6 536.3 L 1141.6 536.3 M 1141.6 536.3 L 1142.7 537.6 M 1142.7 537.6 L 1142.7 537.6 M 1142.7 537.6 L 1144 538.6 M 1144 538.6 L 1144 538.6 M 1144 538.6 L 1145.4 539.2 M 1145.4 539.2 L 1145.4 539.2 M 1145.4 539.2 L 1146.9 539.6 M 1146.9 539.6 L 1146.9 539.6 M 1146.9 539.6 L 1148.5 539.8 M 1148.5 539.8 L 1148.5 539.8 M 1148.5 539.8 L 1149.5 539.7 M 1149.5 539.7 L 1149.5 539.7 M 1149.5 539.7 L 1150.5 539.5 M 1150.5 539.5 L 1150.5 539.5 M 1150.5 539.5 L 1151.4 539.2 M 1151.4 539.2 L 1151.4 539.2 M 1151.4 539.2 L 1152.2 538.8 M 1152.2 538.8 L 1152.2 538.8 M 1152.2 538.8 L 1152.9 538.3 M 1152.9 538.3 L 1152.9 538.3 M 1152.9 538.3 L 1153.5 537.7 M 1153.5 537.7 L 1153.5 537.7 M 1153.5 537.7 L 1154 537 M 1154 537 L 1154 537 M 1154 537 L 1154.4 536.2 M 1154.4 536.2 L 1154.4 536.2 M 1154.4 536.2 L 1154.7 535.3 M 1154.7 535.3 L 1154.7 535.3 M 1154.7 535.3 L 1154.9 534.2 M 1154.9 534.2 L 1154.9 534.2 M 1154.9 534.2 L 1155 532.9 M 1155 532.9 L 1155 532.9 M 1155 532.9 L 1155 531.4 M 1155 531.4 L 1155 531.4 M 1155 531.4 L 1155 512.5 M 1155 512.5 L 1160.3 512.5 M 1160.3 512.5 L 1160.3 531.6 M 1160.3 531.6 L 1160.2 533.3 M 1160.2 533.3 L 1160.2 534.7 M 1160.2 534.7 L 1160.1 535.9 M 1160.1 535.9 L 1159.9 536.8 M 1159.9 536.8 L 1159.7 537.9 M 1159.7 537.9 L 1159.3 538.8 M 1159.3 538.8 L 1158.9 539.8 M 1158.9 539.8 L 1158.3 540.6 M 1158.3 540.6 L 1157.7 541.4 M 1157.7 541.4 L 1156.9 542.1 M 1156.9 542.1 L 1155.9 542.7 M 1155.9 542.7 L 1154.8 543.3 M 1154.8 543.3 L 1153.6 543.7 M 1153.6 543.7 L 1152.3 544 M 1152.3 544 L 1151 544.2 M 1151 544.2 L 1149.6 544.3 M 1149.6 544.3 L 1146.6 544 M 1146.6 544 L 1143.9 543 M 1143.9 543 L 1141.6 541.4 M 1141.6 541.4 L 1139.7 539.2 M 1139.7 539.2 L 1139.7 539.2 M 1139.7 539.2 L 1139.7 543.6 M 1139.7 543.6 L 1135 543.6 M 1135 543.6 L 1135 512.5 M 1135 512.5 L 1140.3 512.5 M 1140.3 512.5 L 1140.3 529.5 M 1177.5 512.1 L 1177.5 512.1 M 1177.5 512.1 L 1178.5 512.2 M 1178.5 512.2 L 1179.5 512.4 M 1179.5 512.4 L 1180.6 512.6 M 1180.6 512.6 L 1179.9 517.2 M 1179.9 517.2 L 1179.2 517.1 M 1179.2 517.1 L 1179.2 517.1 M 1179.2 517.1 L 1178.6 517 M 1178.6 517 L 1178.6 517 M 1178.6 517 L 1178 517 M 1178 517 L 1178 517 M 1178 517 L 1177.5 517 M 1177.5 517 L 1177.5 517 M 1177.5 517 L 1177 517 M 1177 517 L 1177 517 M 1177 517 L 1176.5 517.1 M 1176.5 517.1 L 1176.5 517.1 M 1176.5 517.1 L 1176.1 517.2 M 1176.1 517.2 L 1176.1 517.2 M 1176.1 517.2 L 1175.7 517.4 M 1175.7 517.4 L 1175.7 517.4 M 1175.7 517.4 L 1175.5 517.6 M 1175.5 517.6 L 1175.5 517.6 M 1175.5 517.6 L 1175.2 517.8 M 1175.2 517.8 L 1175.2 517.8 M 1175.2 517.8 L 1175 518.1 M 1175 518.1 L 1175 518.1 M 1175 518.1 L 1174.8 518.4 M 1174.8 518.4 L 1174.8 518.4 M 1174.8 518.4 L 1174.7 518.8 M 1174.7 518.8 L 1174.7 518.8 M 1174.7 518.8 L 1174.6 519.5 M 1174.6 519.5 L 1174.6 519.5 M 1174.6 519.5 L 1174.5 520.3 M 1174.5 520.3 L 1174.5 520.3 M 1174.5 520.3 L 1174.5 521.3 M 1174.5 521.3 L 1174.5 521.3 M 1174.5 521.3 L 1174.5 539.5 M 1174.5 539.5 L 1174.5 539.5 M 1174.5 539.5 L 1179.9 539.5 M 1179.9 539.5 L 1179.9 543.6 M 1179.9 543.6 L 1174.5 543.6 M 1174.5 543.6 L 1174.5 543.6 M 1174.5 543.6 L 1174.5 554.4 M 1174.5 554.4 L 1169.4 551.3 M 1169.4 551.3 L 1169.4 543.6 M 1169.4 543.6 L 1169.3 543.6 M 1169.3 543.6 L 1165.5 543.6 M 1165.5 543.6 L 1165.5 539.5 M 1165.5 539.5 L 1169.3 539.5 M 1169.3 539.5 L 1169.4 539.5 M 1169.4 539.5 L 1169.4 521.6 M 1169.4 521.6 L 1169.4 519.4 M 1169.4 519.4 L 1169.5 517.7 M 1169.5 517.7 L 1169.7 516.3 M 1169.7 516.3 L 1170 515.4 M 1170 515.4 L 1170.4 514.7 M 1170.4 514.7 L 1170.8 514.1 M 1170.8 514.1 L 1171.5 513.5 M 1171.5 513.5 L 1172.2 513 M 1172.2 513 L 1173.1 512.6 M 1173.1 512.6 L 1174.1 512.3 M 1174.1 512.3 L 1175.3 512.2 M 1175.3 512.2 L 1176.6 512.1 M 1176.6 512.1 L 1177.5 512.1 M 53.2 550.4 L 53.2 550.4 M 53.2 550.4 L 53.2 550.4 M 53.2 550.4 L 67.3 550.4 M 67.3 550.4 L 67.3 555.4 M 67.3 555.4 L 33.4 555.4 M 33.4 555.4 L 33.4 550.4 M 33.4 550.4 L 47.5 550.4 M 47.5 550.4 L 47.5 550.4 M 47.5 550.4 L 47.5 512.5 M 47.5 512.5 L 53.2 512.5 M 53.2 512.5 L 53.2 550.4 M 75.6 555.4 L 75.6 555.4 M 75.6 555.4 L 70.4 555.4 M 70.4 555.4 L 70.4 549.4 M 70.4 549.4 L 75.6 549.4 M 75.6 549.4 L 75.6 555.4 M 75.6 543.6 L 75.6 543.6 M 75.6 543.6 L 70.4 543.6 M 70.4 543.6 L 70.4 512.5 M 70.4 512.5 L 75.6 512.5 M 75.6 512.5 L 75.6 543.6 M 88.9 515.7 L 88.9 515.7 M 88.9 515.7 L 88.9 515.7 M 88.9 515.7 L 89.6 514.9 M 89.6 514.9 L 90.5 514.2 M 90.5 514.2 L 91.4 513.5 M 91.4 513.5 L 92.3 512.9 M 92.3 512.9 L 93.4 512.5 M 93.4 512.5 L 94.6 512.1 M 94.6 512.1 L 95.8 511.9 M 95.8 511.9 L 97.1 511.8 M 97.1 511.8 L 98.9 511.9 M 98.9 511.9 L 100.6 512.3 M 100.6 512.3 L 102.3 513 M 102.3 513 L 104 513.8 M 104 513.8 L 105.5 515 M 105.5 515 L 106.8 516.3 M 106.8 516.3 L 108 517.9 M 108 517.9 L 108.9 519.7 M 108.9 519.7 L 109.7 521.7 M 109.7 521.7 L 110.2 523.8 M 110.2 523.8 L 110.5 526 M 110.5 526 L 110.6 528.3 M 110.6 528.3 L 110.5 530.5 M 110.5 530.5 L 110.3 532.6 M 110.3 532.6 L 109.7 534.5 M 109.7 534.5 L 109.1 536.5 M 109.1 536.5 L 108.2 538.2 M 108.2 538.2 L 107.1 539.8 M 107.1 539.8 L 105.9 541.1 M 105.9 541.1 L 104.5 542.3 M 104.5 542.3 L 102.9 543.1 M 102.9 543.1 L 101.2 543.8 M 101.2 543.8 L 99.4 544.2 M 99.4 544.2 L 97.5 544.3 M 97.5 544.3 L 96 544.2 M 96 544.2 L 94.7 544 M 94.7 544 L 93.4 543.6 M 93.4 543.6 L 92.3 543.1 M 92.3 543.1 L 91.2 542.5 M 91.2 542.5 L 90.3 541.6 M 90.3 541.6 L 89.4 540.7 M 89.4 540.7 L 88.4 539.5 M 88.4 539.5 L 88.4 539.5 M 88.4 539.5 L 88.4 543.6 M 88.4 543.6 L 83.6 543.6 M 83.6 543.6 L 83.6 500.6 M 83.6 500.6 L 88.9 500.6 M 88.9 500.6 L 88.9 515.7 M 88.4 527.9 L 88.4 527.9 M 88.4 527.9 L 88.6 525.1 M 88.6 525.1 L 89 522.7 M 89 522.7 L 89.8 520.6 M 89.8 520.6 L 90.8 519 M 90.8 519 L 92.1 517.7 M 92.1 517.7 L 93.5 516.9 M 93.5 516.9 L 95.1 516.3 M 95.1 516.3 L 96.7 516.1 M 96.7 516.1 L 98.4 516.3 M 98.4 516.3 L 100 516.9 M 100 516.9 L 101.4 517.8 M 101.4 517.8 L 102.7 519.1 M 102.7 519.1 L 103.8 520.8 M 103.8 520.8 L 104.6 522.9 M 104.6 522.9 L 105.1 525.4 M 105.1 525.4 L 105.3 528.3 M 105.3 528.3 L 105.1 531.1 M 105.1 531.1 L 104.6 533.5 M 104.6 533.5 L 103.9 535.6 M 103.9 535.6 L 102.8 537.2 M 102.8 537.2 L 101.5 538.5 M 101.5 538.5 L 100.1 539.4 M 100.1 539.4 L 98.6 540 M 98.6 540 L 96.9 540.2 M 96.9 540.2 L 95.3 540 M 95.3 540 L 93.8 539.4 M 93.8 539.4 L 92.3 538.4 M 92.3 538.4 L 91 537 M 91 537 L 89.9 535.3 M 89.9 535.3 L 89.1 533.2 M 89.1 533.2 L 88.6 530.7 M 88.6 530.7 L 88.4 527.9 M 146.6 511.9 L 146.6 511.9 M 146.6 511.9 L 148.3 512.1 M 148.3 512.1 L 149.9 512.5 M 149.9 512.5 L 151.4 513.1 M 151.4 513.1 L 152.8 513.8 M 152.8 513.8 L 154 514.6 M 154 514.6 L 155 515.6 M 155 515.6 L 155.8 516.7 M 155.8 516.7 L 156.5 517.9 M 156.5 517.9 L 157 519.1 M 157 519.1 L 157.3 520.3 M 157.3 520.3 L 157.4 521.6 M 157.4 521.6 L 157.3 522.9 M 157.3 522.9 L 157.1 524.1 M 157.1 524.1 L 156.7 525.2 M 156.7 525.2 L 156.1 526.1 M 156.1 526.1 L 155.5 527 M 155.5 527 L 154.6 527.7 M 154.6 527.7 L 153.7 528.4 M 153.7 528.4 L 152.7 528.9 M 152.7 528.9 L 151.4 529.4 M 151.4 529.4 L 149.6 530 M 149.6 530 L 147.5 530.6 M 147.5 530.6 L 144.9 531.4 M 144.9 531.4 L 144.9 531.4 M 144.9 531.4 L 143.1 531.8 M 143.1 531.8 L 143.1 531.8 M 143.1 531.8 L 141.8 532.2 M 141.8 532.2 L 141.8 532.2 M 141.8 532.2 L 140.8 532.5 M 140.8 532.5 L 140.8 532.5 M 140.8 532.5 L 140.2 532.7 M 140.2 532.7 L 140.2 532.7 M 140.2 532.7 L 139.5 533 M 139.5 533 L 139.5 533 M 139.5 533 L 139 533.3 M 139 533.3 L 139 533.3 M 139 533.3 L 138.5 533.7 M 138.5 533.7 L 138.5 533.7 M 138.5 533.7 L 138.2 534.1 M 138.2 534.1 L 138.2 534.1 M 138.2 534.1 L 137.9 534.5 M 137.9 534.5 L 137.9 534.5 M 137.9 534.5 L 137.7 535 M 137.7 535 L 137.7 535 M 137.7 535 L 137.6 535.5 M 137.6 535.5 L 137.6 535.5 M 137.6 535.5 L 137.5 536 M 137.5 536 L 137.5 536 M 137.5 536 L 137.6 536.8 M 137.6 536.8 L 137.6 536.8 M 137.6 536.8 L 137.9 537.5 M 137.9 537.5 L 137.9 537.5 M 137.9 537.5 L 138.4 538.2 M 138.4 538.2 L 138.4 538.2 M 138.4 538.2 L 139.1 538.8 M 139.1 538.8 L 139.1 538.8 M 139.1 538.8 L 140 539.3 M 140 539.3 L 140 539.3 M 140 539.3 L 141.2 539.7 M 141.2 539.7 L 141.2 539.7 M 141.2 539.7 L 142.6 539.9 M 142.6 539.9 L 142.6 539.9 M 142.6 539.9 L 144.3 540 M 144.3 540 L 144.3 540 M 144.3 540 L 145.7 539.9 M 145.7 539.9 L 145.7 539.9 M 145.7 539.9 L 147 539.7 M 147 539.7 L 147 539.7 M 147 539.7 L 148.1 539.2 M 148.1 539.2 L 148.1 539.2 M 148.1 539.2 L 149 538.6 M 149 538.6 L 149 538.6 M 149 538.6 L 149.8 537.9 M 149.8 537.9 L 149.8 537.9 M 149.8 537.9 L 150.4 537 M 150.4 537 L 150.4 537 M 150.4 537 L 150.8 536 M 150.8 536 L 150.8 536 M 150.8 536 L 151.1 534.9 M 151.1 534.9 L 156.2 535.6 M 156.2 535.6 L 155.9 537 M 155.9 537 L 155.5 538.3 M 155.5 538.3 L 155 539.4 M 155 539.4 L 154.4 540.4 M 154.4 540.4 L 153.6 541.2 M 153.6 541.2 L 152.7 542 M 152.7 542 L 151.6 542.7 M 151.6 542.7 L 150.3 543.2 M 150.3 543.2 L 148.9 543.7 M 148.9 543.7 L 147.3 544 M 147.3 544 L 145.7 544.2 M 145.7 544.2 L 143.9 544.3 M 143.9 544.3 L 142.7 544.3 M 142.7 544.3 L 141.6 544.2 M 141.6 544.2 L 140.4 544 M 140.4 544 L 139.4 543.7 M 139.4 543.7 L 138.3 543.3 M 138.3 543.3 L 137.5 543 M 137.5 543 L 136.7 542.6 M 136.7 542.6 L 136 542.1 M 136 542.1 L 135.2 541.5 M 135.2 541.5 L 134.5 540.8 M 134.5 540.8 L 133.9 540.1 M 133.9 540.1 L 133.4 539.2 M 133.4 539.2 L 133 538.3 M 133 538.3 L 132.7 537.3 M 132.7 537.3 L 132.5 536.4 M 132.5 536.4 L 132.5 535.3 M 132.5 535.3 L 132.5 534.2 M 132.5 534.2 L 132.7 533.2 M 132.7 533.2 L 133.1 532.1 M 133.1 532.1 L 133.6 531.2 M 133.6 531.2 L 134.3 530.3 M 134.3 530.3 L 135.1 529.5 M 135.1 529.5 L 136 528.8 M 136 528.8 L 137 528.2 M 137 528.2 L 138.4 527.7 M 138.4 527.7 L 140.1 527.1 M 140.1 527.1 L 142.4 526.4 M 142.4 526.4 L 145.1 525.7 M 145.1 525.7 L 145.1 525.7 M 145.1 525.7 L 147 525.2 M 147 525.2 L 147 525.2 M 147 525.2 L 148.6 524.7 M 148.6 524.7 L 148.6 524.7 M 148.6 524.7 L 149.7 524.3 M 149.7 524.3 L 149.7 524.3 M 149.7 524.3 L 150.5 523.9 M 150.5 523.9 L 150.5 523.9 M 150.5 523.9 L 151.1 523.4 M 151.1 523.4 L 151.1 523.4 M 151.1 523.4 L 151.6 522.7 M 151.6 522.7 L 151.6 522.7 M 151.6 522.7 L 151.9 521.9 M 151.9 521.9 L 151.9 521.9 M 151.9 521.9 L 152 521.1 M 152 521.1 L 152 521.1 M 152 521.1 L 151.9 520.1 M 151.9 520.1 L 151.9 520.1 M 151.9 520.1 L 151.6 519.2 M 151.6 519.2 L 151.6 519.2 M 151.6 519.2 L 151 518.4 M 151 518.4 L 151 518.4 M 151 518.4 L 150.3 517.6 M 150.3 517.6 L 150.3 517.6 M 150.3 517.6 L 149.2 516.9 M 149.2 516.9 L 149.2 516.9 M 149.2 516.9 L 148 516.5 M 148 516.5 L 148 516.5 M 148 516.5 L 146.6 516.2 M 146.6 516.2 L 146.6 516.2 M 146.6 516.2 L 144.8 516.1 M 144.8 516.1 L 144.8 516.1 M 144.8 516.1 L 143.1 516.2 M 143.1 516.2 L 143.1 516.2 M 143.1 516.2 L 141.6 516.5 M 141.6 516.5 L 141.6 516.5 M 141.6 516.5 L 140.3 517.1 M 140.3 517.1 L 140.3 517.1 M 140.3 517.1 L 139.2 517.8 M 139.2 517.8 L 139.2 517.8 M 139.2 517.8 L 138.3 518.7 M 138.3 518.7 L 138.3 518.7 M 138.3 518.7 L 137.6 519.8 M 137.6 519.8 L 137.6 519.8 M 137.6 519.8 L 137.1 521.1 M 137.1 521.1 L 137.1 521.1 M 137.1 521.1 L 136.8 522.6 M 136.8 522.6 L 131.6 521.8 M 131.6 521.8 L 132.2 519.5 M 132.2 519.5 L 133.1 517.5 M 133.1 517.5 L 134.2 515.7 M 134.2 515.7 L 135.6 514.4 M 135.6 514.4 L 137.4 513.2 M 137.4 513.2 L 139.5 512.5 M 139.5 512.5 L 142 512 M 142 512 L 144.9 511.8 M 144.9 511.8 L 146.6 511.9 M 168.9 529.5 L 168.9 529.5 M 168.9 529.5 L 168.9 529.5 M 168.9 529.5 L 169 531.2 M 169 531.2 L 169 531.2 M 169 531.2 L 169.2 532.8 M 169.2 532.8 L 169.2 532.8 M 169.2 532.8 L 169.4 534.1 M 169.4 534.1 L 169.4 534.1 M 169.4 534.1 L 169.8 535.3 M 169.8 535.3 L 169.8 535.3 M 169.8 535.3 L 170.3 536.2 M 170.3 536.2 L 170.3 536.3 M 170.3 536.3 L 171 537.1 M 171 537.1 L 171 537.1 M 171 537.1 L 171.8 537.9 M 171.8 537.9 L 171.8 537.9 M 171.8 537.9 L 172.8 538.6 M 172.8 538.6 L 172.8 538.6 M 172.8 538.6 L 173.8 539.1 M 173.8 539.1 L 173.8 539.1 M 173.8 539.1 L 174.9 539.5 M 174.9 539.5 L 174.9 539.5 M 174.9 539.5 L 176 539.7 M 176 539.7 L 176 539.7 M 176 539.7 L 177.2 539.8 M 177.2 539.8 L 177.2 539.8 M 177.2 539.8 L 178.7 539.7 M 178.7 539.7 L 178.7 539.7 M 178.7 539.7 L 180 539.4 M 180 539.4 L 180 539.4 M 180 539.4 L 181.1 538.8 M 181.1 538.8 L 181.1 538.8 M 181.1 538.8 L 182 538 M 182 538 L 182 538 M 182 538 L 182.8 536.9 M 182.8 536.9 L 182.8 536.9 M 182.8 536.9 L 183.3 535.6 M 183.3 535.6 L 183.3 535.6 M 183.3 535.6 L 183.6 534.1 M 183.6 534.1 L 183.6 534.1 M 183.6 534.1 L 183.8 532.2 M 183.8 532.2 L 183.8 532.2 M 183.8 532.2 L 183.8 512.5 M 183.8 512.5 L 189 512.5 M 189 512.5 L 189 532.2 M 189 532.2 L 188.9 534.4 M 188.9 534.4 L 188.7 536.2 M 188.7 536.2 L 188.4 537.9 M 188.4 537.9 L 187.9 539.2 M 187.9 539.2 L 187.3 540.3 M 187.3 540.3 L 186.4 541.3 M 186.4 541.3 L 185.5 542.2 M 185.5 542.2 L 184.3 542.9 M 184.3 542.9 L 182.9 543.5 M 182.9 543.5 L 181.5 544 M 181.5 544 L 179.9 544.2 M 179.9 544.2 L 178.2 544.3 M 178.2 544.3 L 175.6 544 M 175.6 544 L 173.1 543.2 M 173.1 543.2 L 170.9 541.9 M 170.9 541.9 L 169 540 M 169 540 L 168.9 540 M 168.9 540 L 168.9 555.4 M 168.9 555.4 L 163.7 555.4 M 163.7 555.4 L 163.7 512.5 M 163.7 512.5 L 168.9 512.5 M 168.9 512.5 L 168.9 529.5 M 210.5 512.1 L 210.5 512.1 M 210.5 512.1 L 213.1 513.1 M 213.1 513.1 L 215.5 514.8 M 215.5 514.8 L 217.4 517.1 M 217.4 517.1 L 217.5 517.1 M 217.5 517.1 L 217.5 512.5 M 217.5 512.5 L 222.1 512.5 M 222.1 512.5 L 222.1 543.6 M 222.1 543.6 L 216.9 543.6 M 216.9 543.6 L 216.9 526.9 M 216.9 526.9 L 216.9 526.9 M 216.9 526.9 L 216.8 525.1 M 216.8 525.1 L 216.8 525.1 M 216.8 525.1 L 216.7 523.4 M 216.7 523.4 L 216.7 523.4 M 216.7 523.4 L 216.4 522 M 216.4 522 L 216.4 522 M 216.4 522 L 216 520.8 M 216 520.8 L 216 520.8 M 216 520.8 L 215.5 519.9 M 215.5 519.9 L 215.5 519.9 M 215.5 519.9 L 214.9 519 M 214.9 519 L 214.9 519 M 214.9 519 L 214 518.2 M 214 518.2 L 214 518.2 M 214 518.2 L 213.1 517.5 M 213.1 517.5 L 213.1 517.5 M 213.1 517.5 L 212 517 M 212 517 L 212 517 M 212 517 L 210.9 516.6 M 210.9 516.6 L 210.9 516.6 M 210.9 516.6 L 209.8 516.4 M 209.8 516.4 L 209.8 516.4 M 209.8 516.4 L 208.6 516.3 M 208.6 516.3 L 208.6 516.3 M 208.6 516.3 L 207.5 516.4 M 207.5 516.4 L 207.5 516.4 M 207.5 516.4 L 206.4 516.6 M 206.4 516.6 L 206.4 516.6 M 206.4 516.6 L 205.5 517 M 205.5 517 L 205.5 517 M 205.5 517 L 204.6 517.5 M 204.6 517.5 L 204.6 517.5 M 204.6 517.5 L 203.9 518.2 M 203.9 518.2 L 203.9 518.2 M 203.9 518.2 L 203.3 518.9 M 203.3 518.9 L 203.3 518.9 M 203.3 518.9 L 202.8 519.8 M 202.8 519.8 L 202.8 519.8 M 202.8 519.8 L 202.5 520.8 M 202.5 520.8 L 202.5 520.8 M 202.5 520.8 L 202.4 521.7 M 202.4 521.7 L 202.4 521.7 M 202.4 521.7 L 202.3 522.9 M 202.3 522.9 L 202.3 522.9 M 202.3 522.9 L 202.2 524.5 M 202.2 524.5 L 202.2 524.5 M 202.2 524.5 L 202.2 526.4 M 202.2 526.4 L 202.2 526.4 M 202.2 526.4 L 202.2 543.6 M 202.2 543.6 L 196.9 543.6 M 196.9 543.6 L 196.9 524.4 M 196.9 524.4 L 197 522.8 M 197 522.8 L 197 521.4 M 197 521.4 L 197.1 520.3 M 197.1 520.3 L 197.3 519.4 M 197.3 519.4 L 197.5 518.3 M 197.5 518.3 L 197.9 517.3 M 197.9 517.3 L 198.4 516.4 M 198.4 516.4 L 198.9 515.5 M 198.9 515.5 L 199.5 514.7 M 199.5 514.7 L 200.4 514.1 M 200.4 514.1 L 201.3 513.4 M 201.3 513.4 L 202.4 512.9 M 202.4 512.9 L 203.6 512.4 M 203.6 512.4 L 204.9 512.1 M 204.9 512.1 L 206.2 511.9 M 206.2 511.9 L 207.6 511.8 M 207.6 511.8 L 210.5 512.1 M 235.7 529.5 L 235.7 529.5 M 235.7 529.5 L 235.7 529.5 M 235.7 529.5 L 235.8 532.2 M 235.8 532.2 L 235.8 532.2 M 235.8 532.2 L 236.3 534.5 M 236.3 534.5 L 236.3 534.5 M 236.3 534.5 L 237.1 536.3 M 237.1 536.3 L 237.1 536.3 M 237.1 536.3 L 238.1 537.6 M 238.1 537.6 L 238.1 537.6 M 238.1 537.6 L 239.4 538.6 M 239.4 538.6 L 239.4 538.6 M 239.4 538.6 L 240.8 539.2 M 240.8 539.2 L 240.8 539.2 M 240.8 539.2 L 242.3 539.6 M 242.3 539.6 L 242.3 539.6 M 242.3 539.6 L 244 539.8 M 244 539.8 L 244 539.8 M 244 539.8 L 245 539.7 M 245 539.7 L 245 539.7 M 245 539.7 L 245.9 539.5 M 245.9 539.5 L 245.9 539.5 M 245.9 539.5 L 246.8 539.2 M 246.8 539.2 L 246.8 539.2 M 246.8 539.2 L 247.6 538.8 M 247.6 538.8 L 247.7 538.8 M 247.7 538.8 L 248.4 538.3 M 248.4 538.3 L 248.4 538.3 M 248.4 538.3 L 249 537.7 M 249 537.7 L 249 537.7 M 249 537.7 L 249.5 537 M 249.5 537 L 249.5 537 M 249.5 537 L 249.8 536.2 M 249.8 536.2 L 249.8 536.2 M 249.8 536.2 L 250.1 535.3 M 250.1 535.3 L 250.1 535.3 M 250.1 535.3 L 250.3 534.2 M 250.3 534.2 L 250.3 534.2 M 250.3 534.2 L 250.4 532.9 M 250.4 532.9 L 250.4 532.9 M 250.4 532.9 L 250.5 531.4 M 250.5 531.4 L 250.5 531.4 M 250.5 531.4 L 250.5 512.5 M 250.5 512.5 L 255.7 512.5 M 255.7 512.5 L 255.7 531.6 M 255.7 531.6 L 255.6 533.3 M 255.6 533.3 L 255.6 534.7 M 255.6 534.7 L 255.5 535.9 M 255.5 535.9 L 255.4 536.8 M 255.4 536.8 L 255.1 537.9 M 255.1 537.9 L 254.7 538.8 M 254.7 538.8 L 254.3 539.8 M 254.3 539.8 L 253.8 540.6 M 253.8 540.6 L 253.1 541.4 M 253.1 541.4 L 252.3 542.1 M 252.3 542.1 L 251.3 542.7 M 251.3 542.7 L 250.2 543.3 M 250.2 543.3 L 249 543.7 M 249 543.7 L 247.8 544 M 247.8 544 L 246.4 544.2 M 246.4 544.2 L 245.1 544.3 M 245.1 544.3 L 242 544 M 242 544 L 239.4 543 M 239.4 543 L 237.1 541.4 M 237.1 541.4 L 235.2 539.2 M 235.2 539.2 L 235.1 539.2 M 235.1 539.2 L 235.1 543.6 M 235.1 543.6 L 230.5 543.6 M 230.5 543.6 L 230.5 512.5 M 230.5 512.5 L 235.7 512.5 M 235.7 512.5 L 235.7 529.5 M 273 512.1 L 273 512.1 M 273 512.1 L 274 512.2 M 274 512.2 L 275 512.4 M 275 512.4 L 276 512.6 M 276 512.6 L 275.3 517.2 M 275.3 517.2 L 274.6 517.1 M 274.6 517.1 L 274.6 517.1 M 274.6 517.1 L 274 517 M 274 517 L 274 517 M 274 517 L 273.4 517 M 273.4 517 L 273.4 517 M 273.4 517 L 273 517 M 273 517 L 273 517 M 273 517 L 272.4 517 M 272.4 517 L 272.4 517 M 272.4 517 L 271.9 517.1 M 271.9 517.1 L 271.9 517.1 M 271.9 517.1 L 271.5 517.2 M 271.5 517.2 L 271.5 517.2 M 271.5 517.2 L 271.2 517.4 M 271.2 517.4 L 271.2 517.4 M 271.2 517.4 L 270.9 517.6 M 270.9 517.6 L 270.9 517.6 M 270.9 517.6 L 270.6 517.8 M 270.6 517.8 L 270.6 517.8 M 270.6 517.8 L 270.4 518.1 M 270.4 518.1 L 270.4 518.1 M 270.4 518.1 L 270.3 518.4 M 270.3 518.4 L 270.3 518.4 M 270.3 518.4 L 270.1 518.8 M 270.1 518.8 L 270.1 518.8 M 270.1 518.8 L 270.1 519.5 M 270.1 519.5 L 270.1 519.5 M 270.1 519.5 L 270 520.3 M 270 520.3 L 270 520.3 M 270 520.3 L 270 521.3 M 270 521.3 L 270 521.3 M 270 521.3 L 270 539.5 M 270 539.5 L 270 539.5 M 270 539.5 L 275.3 539.5 M 275.3 539.5 L 275.3 543.6 M 275.3 543.6 L 270 543.6 M 270 543.6 L 270 543.6 M 270 543.6 L 270 554.4 M 270 554.4 L 264.8 551.3 M 264.8 551.3 L 264.8 543.6 M 264.8 543.6 L 264.7 543.6 M 264.7 543.6 L 260.9 543.6 M 260.9 543.6 L 260.9 539.5 M 260.9 539.5 L 264.7 539.5 M 264.7 539.5 L 264.8 539.5 M 264.8 539.5 L 264.8 521.6 M 264.8 521.6 L 264.8 519.4 M 264.8 519.4 L 264.9 517.7 M 264.9 517.7 L 265.1 516.3 M 265.1 516.3 L 265.4 515.4 M 265.4 515.4 L 265.8 514.7 M 265.8 514.7 L 266.3 514.1 M 266.3 514.1 L 266.9 513.5 M 266.9 513.5 L 267.6 513 M 267.6 513 L 268.5 512.6 M 268.5 512.6 L 269.5 512.3 M 269.5 512.3 L 270.7 512.2 M 270.7 512.2 L 272.1 512.1 M 272.1 512.1 L 273 512.1 M 979.7 71.9 L 979.7 71.9 M 979.7 71.9 L 981.9 72.2 M 981.9 72.2 L 983.9 72.7 M 983.9 72.7 L 985.8 73.5 M 985.8 73.5 L 987.5 74.4 M 987.5 74.4 L 989 75.5 M 989 75.5 L 990.3 76.8 M 990.3 76.8 L 991.4 78.2 M 991.4 78.2 L 992.3 79.7 M 992.3 79.7 L 992.9 81.3 M 992.9 81.3 L 993.2 82.9 M 993.2 82.9 L 993.4 84.6 M 993.4 84.6 L 993.2 86.3 M 993.2 86.3 L 992.9 87.9 M 992.9 87.9 L 992.3 89.4 M 992.3 89.4 L 991.6 90.7 M 991.6 90.7 L 990.6 92 M 990.6 92 L 989.3 93.1 M 989.3 93.1 L 987.8 94.2 M 987.8 94.2 L 986 95.1 M 986 95.1 L 984.5 95.7 M 984.5 95.7 L 982.4 96.4 M 982.4 96.4 L 979.7 97.1 M 979.7 97.1 L 976.6 97.9 M 976.6 97.9 L 976.6 97.9 M 976.6 97.9 L 973.4 98.6 M 973.4 98.6 L 973.4 98.6 M 973.4 98.6 L 970.9 99.4 M 970.9 99.4 L 970.9 99.4 M 970.9 99.4 L 969.1 100.1 M 969.1 100.1 L 969.1 100.1 M 969.1 100.1 L 968 100.9 M 968 100.9 L 968 100.9 M 968 100.9 L 967.2 101.7 M 967.2 101.7 L 967.2 101.7 M 967.2 101.7 L 966.7 102.6 M 966.7 102.6 L 966.7 102.6 M 966.7 102.6 L 966.4 103.6 M 966.4 103.6 L 966.4 103.6 M 966.4 103.6 L 966.3 104.7 M 966.3 104.7 L 966.3 104.7 M 966.3 104.7 L 966.4 106 M 966.4 106 L 966.4 106 M 966.4 106 L 966.9 107.2 M 966.9 107.2 L 966.9 107.2 M 966.9 107.2 L 967.6 108.3 M 967.6 108.3 L 967.6 108.3 M 967.6 108.3 L 968.6 109.3 M 968.6 109.3 L 968.7 109.3 M 968.7 109.3 L 970 110.1 M 970 110.1 L 970 110.1 M 970 110.1 L 971.7 110.7 M 971.7 110.7 L 971.7 110.7 M 971.7 110.7 L 973.8 111.1 M 973.8 111.1 L 973.8 111.1 M 973.8 111.1 L 976.2 111.2 M 976.2 111.2 L 976.2 111.2 M 976.2 111.2 L 978.5 111 M 978.5 111 L 978.5 111 M 978.5 111 L 980.5 110.7 M 980.5 110.7 L 980.5 110.7 M 980.5 110.7 L 982.3 110 M 982.3 110 L 982.3 110 M 982.3 110 L 983.7 109.1 M 983.7 109.1 L 983.7 109.1 M 983.7 109.1 L 984.8 107.9 M 984.8 107.9 L 984.8 107.9 M 984.8 107.9 L 985.7 106.5 M 985.7 106.5 L 985.7 106.5 M 985.7 106.5 L 986.3 104.9 M 986.3 104.9 L 986.3 104.9 M 986.3 104.9 L 986.7 103 M 986.7 103 L 992.1 103.4 M 992.1 103.4 L 991.9 105.2 M 991.9 105.2 L 991.5 106.9 M 991.5 106.9 L 990.8 108.6 M 990.8 108.6 L 990 110.1 M 990 110.1 L 988.9 111.5 M 988.9 111.5 L 987.6 112.7 M 987.6 112.7 L 986.1 113.8 M 986.1 113.8 L 984.4 114.6 M 984.4 114.6 L 982.5 115.3 M 982.5 115.3 L 980.5 115.8 M 980.5 115.8 L 978.3 116.1 M 978.3 116.1 L 976 116.2 M 976 116.2 L 973.8 116.1 M 973.8 116.1 L 971.8 115.8 M 971.8 115.8 L 969.9 115.3 M 969.9 115.3 L 968.1 114.7 M 968.1 114.7 L 966.4 113.9 M 966.4 113.9 L 965 112.9 M 965 112.9 L 963.7 111.8 M 963.7 111.8 L 962.7 110.4 M 962.7 110.4 L 961.9 109 M 961.9 109 L 961.3 107.5 M 961.3 107.5 L 961 105.9 M 961 105.9 L 960.8 104.4 M 960.8 104.4 L 961 102.9 M 961 102.9 L 961.2 101.5 M 961.2 101.5 L 961.7 100.3 M 961.7 100.3 L 962.3 99 M 962.3 99 L 963.2 97.9 M 963.2 97.9 L 964.3 96.8 M 964.3 96.8 L 965.5 95.9 M 965.5 95.9 L 966.9 95 M 966.9 95 L 968.3 94.4 M 968.3 94.4 L 970.2 93.7 M 970.2 93.7 L 972.5 93.1 M 972.5 93.1 L 975.2 92.3 M 975.2 92.3 L 977.9 91.7 M 977.9 91.7 L 977.9 91.7 M 977.9 91.7 L 980.1 91.1 M 980.1 91.1 L 980.1 91.1 M 980.1 91.1 L 981.8 90.6 M 981.8 90.6 L 981.8 90.6 M 981.8 90.6 L 982.9 90.3 M 982.9 90.3 L 982.9 90.3 M 982.9 90.3 L 984.1 89.7 M 984.1 89.7 L 984.1 89.7 M 984.1 89.7 L 985.2 89.1 M 985.2 89.1 L 985.2 89.1 M 985.2 89.1 L 986.1 88.4 M 986.1 88.4 L 986.1 88.4 M 986.1 88.4 L 986.8 87.7 M 986.8 87.7 L 986.8 87.7 M 986.8 87.7 L 987.3 86.9 M 987.3 86.9 L 987.3 86.9 M 987.3 86.9 L 987.6 86 M 987.6 86 L 987.6 86 M 987.6 86 L 987.9 85.1 M 987.9 85.1 L 987.9 85.1 M 987.9 85.1 L 987.9 84.2 M 987.9 84.2 L 987.9 84.2 M 987.9 84.2 L 987.9 83.2 M 987.9 83.2 L 987.9 83.2 M 987.9 83.2 L 987.6 82.2 M 987.6 82.2 L 987.6 82.2 M 987.6 82.2 L 987.2 81.3 M 987.2 81.3 L 987.2 81.3 M 987.2 81.3 L 986.7 80.5 M 986.7 80.5 L 986.7 80.5 M 986.7 80.5 L 986 79.7 M 986 79.7 L 986 79.7 M 986 79.7 L 985.2 79 M 985.2 79 L 985.2 79 M 985.2 79 L 984.2 78.3 M 984.2 78.3 L 984.2 78.3 M 984.2 78.3 L 983 77.8 M 983 77.8 L 983 77.8 M 983 77.8 L 981.7 77.4 M 981.7 77.4 L 981.7 77.4 M 981.7 77.4 L 980.3 77.1 M 980.3 77.1 L 980.3 77.1 M 980.3 77.1 L 978.8 76.9 M 978.8 76.9 L 978.8 76.9 M 978.8 76.9 L 977.2 76.8 M 977.2 76.8 L 977.2 76.8 M 977.2 76.8 L 975.5 76.9 M 975.5 76.9 L 975.5 76.9 M 975.5 76.9 L 973.8 77.1 M 973.8 77.1 L 973.8 77.1 M 973.8 77.1 L 972.1 77.6 M 972.1 77.6 L 972.1 77.6 M 972.1 77.6 L 970.6 78.1 M 970.6 78.1 L 970.6 78.1 M 970.6 78.1 L 969.3 78.8 M 969.3 78.8 L 969.3 78.8 M 969.3 78.8 L 968.1 79.6 M 968.1 79.6 L 968.1 79.6 M 968.1 79.6 L 967.1 80.5 M 967.1 80.5 L 967.1 80.5 M 967.1 80.5 L 966.3 81.5 M 966.3 81.5 L 966.3 81.5 M 966.3 81.5 L 965.7 82.6 M 965.7 82.6 L 965.7 82.6 M 965.7 82.6 L 965.2 83.8 M 965.2 83.8 L 965.2 83.8 M 965.2 83.8 L 964.8 85.2 M 964.8 85.2 L 964.8 85.2 M 964.8 85.2 L 964.5 86.8 M 964.5 86.8 L 959.2 86.3 M 959.2 86.3 L 959.4 84.2 M 959.4 84.2 L 959.9 82.2 M 959.9 82.2 L 960.6 80.3 M 960.6 80.3 L 961.6 78.6 M 961.6 78.6 L 962.8 77 M 962.8 77 L 964.2 75.6 M 964.2 75.6 L 965.9 74.4 M 965.9 74.4 L 967.7 73.5 M 967.7 73.5 L 969.8 72.7 M 969.8 72.7 L 972.1 72.2 M 972.1 72.2 L 974.7 71.9 M 974.7 71.9 L 977.5 71.8 M 977.5 71.8 L 979.7 71.9 M 1005.6 115.4 L 1005.6 115.4 M 1005.6 115.4 L 1000.4 115.4 M 1000.4 115.4 L 1000.4 72.5 M 1000.4 72.5 L 1005.6 72.5 M 1005.6 72.5 L 1005.6 115.4 M 1029.5 72 L 1029.5 72 M 1029.5 72 L 1031.8 72.5 M 1031.8 72.5 L 1033.9 73.3 M 1033.9 73.3 L 1035.8 74.5 M 1035.8 74.5 L 1037.4 75.9 M 1037.4 75.9 L 1038.7 77.6 M 1038.7 77.6 L 1039.7 79.6 M 1039.7 79.6 L 1040.5 81.8 M 1040.5 81.8 L 1035.1 82.5 M 1035.1 82.5 L 1034.5 81 M 1034.5 81 L 1034.5 81 M 1034.5 81 L 1033.7 79.6 M 1033.7 79.6 L 1033.7 79.6 M 1033.7 79.6 L 1032.9 78.5 M 1032.9 78.5 L 1032.9 78.5 M 1032.9 78.5 L 1031.9 77.7 M 1031.9 77.7 L 1031.9 77.7 M 1031.9 77.7 L 1030.8 77 M 1030.8 77 L 1030.8 77 M 1030.8 77 L 1029.6 76.5 M 1029.6 76.5 L 1029.6 76.5 M 1029.6 76.5 L 1028.3 76.2 M 1028.3 76.2 L 1028.3 76.2 M 1028.3 76.2 L 1026.9 76.1 M 1026.9 76.1 L 1026.9 76.1 M 1026.9 76.1 L 1025 76.3 M 1025 76.3 L 1025 76.3 M 1025 76.3 L 1023.3 76.8 M 1023.3 76.8 L 1023.3 76.8 M 1023.3 76.8 L 1021.8 77.7 M 1021.8 77.7 L 1021.8 77.7 M 1021.8 77.7 L 1020.4 78.8 M 1020.4 78.8 L 1020.4 78.8 M 1020.4 78.8 L 1019.2 80.4 M 1019.2 80.4 L 1019.2 80.4 M 1019.2 80.4 L 1018.4 82.2 M 1018.4 82.2 L 1018.4 82.2 M 1018.4 82.2 L 1017.8 84.3 M 1017.8 84.3 L 1017.8 84.3 M 1017.8 84.3 L 1017.5 86.7 M 1017.5 86.7 L 1017.5 86.7 M 1017.5 86.7 L 1040.7 86.7 M 1040.7 86.7 L 1040.7 87.1 M 1040.7 87.1 L 1040.7 87.5 M 1040.7 87.5 L 1040.7 87.9 M 1040.7 87.9 L 1040.7 88.1 M 1040.7 88.1 L 1040.5 91.8 M 1040.5 91.8 L 1039.7 94.9 M 1039.7 94.9 L 1038.5 97.7 M 1038.5 97.7 L 1036.8 100.1 M 1036.8 100.1 L 1034.6 101.9 M 1034.6 101.9 L 1032.2 103.2 M 1032.2 103.2 L 1029.5 104 M 1029.5 104 L 1026.6 104.3 M 1026.6 104.3 L 1023.5 104 M 1023.5 104 L 1020.7 103.2 M 1020.7 103.2 L 1018.3 101.9 M 1018.3 101.9 L 1016.1 100 M 1016.1 100 L 1014.4 97.6 M 1014.4 97.6 L 1013.1 94.7 M 1013.1 94.7 L 1012.3 91.5 M 1012.3 91.5 L 1012.1 87.8 M 1012.1 87.8 L 1012.3 84.2 M 1012.3 84.2 L 1013.1 81 M 1013.1 81 L 1014.3 78.3 M 1014.3 78.3 L 1016 76 M 1016 76 L 1018.2 74.2 M 1018.2 74.2 L 1020.8 72.9 M 1020.8 72.9 L 1023.6 72.1 M 1023.6 72.1 L 1026.9 71.8 M 1026.9 71.8 L 1029.5 72 M 1017.8 91 L 1017.8 91 M 1017.8 91 L 1035.2 91 M 1035.2 91 L 1034.9 92.9 M 1034.9 92.9 L 1034.5 94.5 M 1034.5 94.5 L 1033.9 95.8 M 1033.9 95.8 L 1033.2 96.9 M 1033.2 96.9 L 1031.8 98.2 M 1031.8 98.2 L 1030.3 99.2 M 1030.3 99.2 L 1028.6 99.8 M 1028.6 99.8 L 1026.6 100 M 1026.6 100 L 1024.9 99.8 M 1024.9 99.8 L 1023.3 99.4 M 1023.3 99.4 L 1021.8 98.6 M 1021.8 98.6 L 1020.5 97.5 M 1020.5 97.5 L 1019.4 96.2 M 1019.4 96.2 L 1018.6 94.7 M 1018.6 94.7 L 1018.1 93 M 1018.1 93 L 1017.8 91 M 1062.8 72 L 1062.8 72 M 1062.8 72 L 1065.2 72.5 M 1065.2 72.5 L 1067.3 73.3 M 1067.3 73.3 L 1069.2 74.5 M 1069.2 74.5 L 1070.7 75.9 M 1070.7 75.9 L 1072.1 77.6 M 1072.1 77.6 L 1073.1 79.6 M 1073.1 79.6 L 1073.9 81.8 M 1073.9 81.8 L 1068.5 82.5 M 1068.5 82.5 L 1067.9 81 M 1067.9 81 L 1067.9 81 M 1067.9 81 L 1067.1 79.6 M 1067.1 79.6 L 1067.1 79.6 M 1067.1 79.6 L 1066.2 78.5 M 1066.2 78.5 L 1066.2 78.5 M 1066.2 78.5 L 1065.2 77.7 M 1065.2 77.7 L 1065.2 77.7 M 1065.2 77.7 L 1064.2 77 M 1064.2 77 L 1064.2 77 M 1064.2 77 L 1063 76.5 M 1063 76.5 L 1063 76.5 M 1063 76.5 L 1061.7 76.2 M 1061.7 76.2 L 1061.7 76.2 M 1061.7 76.2 L 1060.3 76.1 M 1060.3 76.1 L 1060.3 76.1 M 1060.3 76.1 L 1058.4 76.3 M 1058.4 76.3 L 1058.4 76.3 M 1058.4 76.3 L 1056.7 76.8 M 1056.7 76.8 L 1056.7 76.8 M 1056.7 76.8 L 1055.1 77.7 M 1055.1 77.7 L 1055.1 77.7 M 1055.1 77.7 L 1053.8 78.8 M 1053.8 78.8 L 1053.8 78.8 M 1053.8 78.8 L 1052.6 80.4 M 1052.6 80.4 L 1052.6 80.4 M 1052.6 80.4 L 1051.7 82.2 M 1051.7 82.2 L 1051.7 82.2 M 1051.7 82.2 L 1051.1 84.3 M 1051.1 84.3 L 1051.1 84.3 M 1051.1 84.3 L 1050.8 86.7 M 1050.8 86.7 L 1050.8 86.7 M 1050.8 86.7 L 1074 86.7 M 1074 86.7 L 1074.1 87.1 M 1074.1 87.1 L 1074.1 87.5 M 1074.1 87.5 L 1074.1 87.9 M 1074.1 87.9 L 1074.1 88.1 M 1074.1 88.1 L 1073.8 91.8 M 1073.8 91.8 L 1073.1 94.9 M 1073.1 94.9 L 1071.9 97.7 M 1071.9 97.7 L 1070.1 100.1 M 1070.1 100.1 L 1068 101.9 M 1068 101.9 L 1065.6 103.2 M 1065.6 103.2 L 1062.9 104 M 1062.9 104 L 1059.9 104.3 M 1059.9 104.3 L 1056.9 104 M 1056.9 104 L 1054.1 103.2 M 1054.1 103.2 L 1051.6 101.9 M 1051.6 101.9 L 1049.5 100 M 1049.5 100 L 1047.7 97.6 M 1047.7 97.6 L 1046.4 94.7 M 1046.4 94.7 L 1045.7 91.5 M 1045.7 91.5 L 1045.5 87.8 M 1045.5 87.8 L 1045.7 84.2 M 1045.7 84.2 L 1046.4 81 M 1046.4 81 L 1047.7 78.3 M 1047.7 78.3 L 1049.4 76 M 1049.4 76 L 1051.6 74.2 M 1051.6 74.2 L 1054.1 72.9 M 1054.1 72.9 L 1057 72.1 M 1057 72.1 L 1060.3 71.8 M 1060.3 71.8 L 1062.8 72 M 1051.2 91 L 1051.2 91 M 1051.2 91 L 1068.5 91 M 1068.5 91 L 1068.3 92.9 M 1068.3 92.9 L 1067.9 94.5 M 1067.9 94.5 L 1067.3 95.8 M 1067.3 95.8 L 1066.6 96.9 M 1066.6 96.9 L 1065.2 98.2 M 1065.2 98.2 L 1063.6 99.2 M 1063.6 99.2 L 1061.9 99.8 M 1061.9 99.8 L 1060 100 M 1060 100 L 1058.2 99.8 M 1058.2 99.8 L 1056.7 99.4 M 1056.7 99.4 L 1055.2 98.6 M 1055.2 98.6 L 1053.9 97.5 M 1053.9 97.5 L 1052.8 96.2 M 1052.8 96.2 L 1052 94.7 M 1052 94.7 L 1051.4 93 M 1051.4 93 L 1051.2 91 M 1105.8 103.6 L 1105.8 103.6 M 1105.8 103.6 L 1100.5 103.6 M 1100.5 103.6 L 1093.6 84.6 M 1093.6 84.6 L 1093 83 M 1093 83 L 1092.5 81.4 M 1092.5 81.4 L 1092 80 M 1092 80 L 1091.6 78.7 M 1091.6 78.7 L 1091.6 78.7 M 1091.6 78.7 L 1091.1 80.3 M 1091.1 80.3 L 1090.6 81.9 M 1090.6 81.9 L 1090.1 83.4 M 1090.1 83.4 L 1089.6 85 M 1089.6 85 L 1082.9 103.6 M 1082.9 103.6 L 1077.4 103.6 M 1077.4 103.6 L 1089.2 72.5 M 1089.2 72.5 L 1094.1 72.5 M 1094.1 72.5 L 1105.8 103.6 M 1126.2 72 L 1126.2 72 M 1126.2 72 L 1128.5 72.5 M 1128.5 72.5 L 1130.6 73.3 M 1130.6 73.3 L 1132.5 74.5 M 1132.5 74.5 L 1134.1 75.9 M 1134.1 75.9 L 1135.5 77.6 M 1135.5 77.6 L 1136.5 79.6 M 1136.5 79.6 L 1137.3 81.8 M 1137.3 81.8 L 1131.9 82.5 M 1131.9 82.5 L 1131.2 81 M 1131.2 81 L 1131.2 81 M 1131.2 81 L 1130.5 79.6 M 1130.5 79.6 L 1130.5 79.6 M 1130.5 79.6 L 1129.6 78.5 M 1129.6 78.5 L 1129.6 78.5 M 1129.6 78.5 L 1128.6 77.7 M 1128.6 77.7 L 1128.6 77.7 M 1128.6 77.7 L 1127.5 77 M 1127.5 77 L 1127.5 77 M 1127.5 77 L 1126.3 76.5 M 1126.3 76.5 L 1126.3 76.5 M 1126.3 76.5 L 1125.1 76.2 M 1125.1 76.2 L 1125.1 76.2 M 1125.1 76.2 L 1123.6 76.1 M 1123.6 76.1 L 1123.6 76.1 M 1123.6 76.1 L 1121.8 76.3 M 1121.8 76.3 L 1121.8 76.3 M 1121.8 76.3 L 1120.1 76.8 M 1120.1 76.8 L 1120.1 76.8 M 1120.1 76.8 L 1118.5 77.7 M 1118.5 77.7 L 1118.5 77.7 M 1118.5 77.7 L 1117.1 78.8 M 1117.1 78.8 L 1117.1 78.8 M 1117.1 78.8 L 1116 80.4 M 1116 80.4 L 1116 80.4 M 1116 80.4 L 1115.1 82.2 M 1115.1 82.2 L 1115.1 82.2 M 1115.1 82.2 L 1114.5 84.3 M 1114.5 84.3 L 1114.5 84.3 M 1114.5 84.3 L 1114.2 86.7 M 1114.2 86.7 L 1114.2 86.7 M 1114.2 86.7 L 1137.4 86.7 M 1137.4 86.7 L 1137.4 87.1 M 1137.4 87.1 L 1137.5 87.5 M 1137.5 87.5 L 1137.5 87.9 M 1137.5 87.9 L 1137.5 88.1 M 1137.5 88.1 L 1137.2 91.8 M 1137.2 91.8 L 1136.5 94.9 M 1136.5 94.9 L 1135.2 97.7 M 1135.2 97.7 L 1133.5 100.1 M 1133.5 100.1 L 1131.4 101.9 M 1131.4 101.9 L 1129 103.2 M 1129 103.2 L 1126.3 104 M 1126.3 104 L 1123.3 104.3 M 1123.3 104.3 L 1120.3 104 M 1120.3 104 L 1117.5 103.2 M 1117.5 103.2 L 1115 101.9 M 1115 101.9 L 1112.9 100 M 1112.9 100 L 1111.1 97.6 M 1111.1 97.6 L 1109.8 94.7 M 1109.8 94.7 L 1109.1 91.5 M 1109.1 91.5 L 1108.8 87.8 M 1108.8 87.8 L 1109.1 84.2 M 1109.1 84.2 L 1109.8 81 M 1109.8 81 L 1111 78.3 M 1111 78.3 L 1112.8 76 M 1112.8 76 L 1115 74.2 M 1115 74.2 L 1117.5 72.9 M 1117.5 72.9 L 1120.4 72.1 M 1120.4 72.1 L 1123.6 71.8 M 1123.6 71.8 L 1126.2 72 M 1114.5 91 L 1114.5 91 M 1114.5 91 L 1131.9 91 M 1131.9 91 L 1131.6 92.9 M 1131.6 92.9 L 1131.2 94.5 M 1131.2 94.5 L 1130.6 95.8 M 1130.6 95.8 L 1129.9 96.9 M 1129.9 96.9 L 1128.6 98.2 M 1128.6 98.2 L 1127 99.2 M 1127 99.2 L 1125.3 99.8 M 1125.3 99.8 L 1123.4 100 M 1123.4 100 L 1121.6 99.8 M 1121.6 99.8 L 1120 99.4 M 1120 99.4 L 1118.6 98.6 M 1118.6 98.6 L 1117.3 97.5 M 1117.3 97.5 L 1116.2 96.2 M 1116.2 96.2 L 1115.3 94.7 M 1115.3 94.7 L 1114.8 93 M 1114.8 93 L 1114.5 91 M 76.6 330.4 L 76.6 330.4 M 76.6 330.4 L 76.6 330.4 M 76.6 330.4 L 90.8 330.4 M 90.8 330.4 L 90.8 335.4 M 90.8 335.4 L 56.8 335.4 M 56.8 335.4 L 56.8 330.4 M 56.8 330.4 L 71 330.4 M 71 330.4 L 71 330.4 M 71 330.4 L 71 292.5 M 71 292.5 L 76.6 292.5 M 76.6 292.5 L 76.6 330.4 M 99 335.4 L 99 335.4 M 99 335.4 L 93.8 335.4 M 93.8 335.4 L 93.8 329.4 M 93.8 329.4 L 99 329.4 M 99 329.4 L 99 335.4 M 99 323.6 L 99 323.6 M 99 323.6 L 93.8 323.6 M 93.8 323.6 L 93.8 292.5 M 93.8 292.5 L 99 292.5 M 99 292.5 L 99 323.6 M 112.3 295.7 L 112.3 295.7 M 112.3 295.7 L 112.4 295.7 M 112.4 295.7 L 113.1 294.9 M 113.1 294.9 L 113.9 294.2 M 113.9 294.2 L 114.8 293.5 M 114.8 293.5 L 115.8 292.9 M 115.8 292.9 L 116.9 292.5 M 116.9 292.5 L 118.1 292.1 M 118.1 292.1 L 119.2 291.9 M 119.2 291.9 L 120.5 291.8 M 120.5 291.8 L 122.3 291.9 M 122.3 291.9 L 124 292.3 M 124 292.3 L 125.7 293 M 125.7 293 L 127.4 293.8 M 127.4 293.8 L 128.9 295 M 128.9 295 L 130.3 296.3 M 130.3 296.3 L 131.4 297.9 M 131.4 297.9 L 132.4 299.7 M 132.4 299.7 L 133.1 301.7 M 133.1 301.7 L 133.6 303.8 M 133.6 303.8 L 134 306 M 134 306 L 134.1 308.3 M 134.1 308.3 L 134 310.5 M 134 310.5 L 133.7 312.6 M 133.7 312.6 L 133.2 314.5 M 133.2 314.5 L 132.5 316.5 M 132.5 316.5 L 131.7 318.2 M 131.7 318.2 L 130.6 319.8 M 130.6 319.8 L 129.4 321.1 M 129.4 321.1 L 127.9 322.3 M 127.9 322.3 L 126.4 323.1 M 126.4 323.1 L 124.7 323.8 M 124.7 323.8 L 122.9 324.2 M 122.9 324.2 L 120.9 324.3 M 120.9 324.3 L 119.5 324.2 M 119.5 324.2 L 118.1 324 M 118.1 324 L 116.9 323.6 M 116.9 323.6 L 115.7 323.1 M 115.7 323.1 L 114.7 322.5 M 114.7 322.5 L 113.7 321.6 M 113.7 321.6 L 112.8 320.7 M 112.8 320.7 L 111.9 319.5 M 111.9 319.5 L 111.9 319.5 M 111.9 319.5 L 111.9 323.6 M 111.9 323.6 L 107.1 323.6 M 107.1 323.6 L 107.1 280.6 M 107.1 280.6 L 112.3 280.6 M 112.3 280.6 L 112.3 295.7 M 111.9 307.9 L 111.9 307.9 M 111.9 307.9 L 112 305.1 M 112 305.1 L 112.5 302.7 M 112.5 302.7 L 113.2 300.6 M 113.2 300.6 L 114.3 299 M 114.3 299 L 115.6 297.7 M 115.6 297.7 L 117 296.9 M 117 296.9 L 118.5 296.3 M 118.5 296.3 L 120.2 296.1 M 120.2 296.1 L 121.9 296.3 M 121.9 296.3 L 123.4 296.9 M 123.4 296.9 L 124.9 297.8 M 124.9 297.8 L 126.2 299.1 M 126.2 299.1 L 127.3 300.8 M 127.3 300.8 L 128.1 302.9 M 128.1 302.9 L 128.6 305.4 M 128.6 305.4 L 128.7 308.3 M 128.7 308.3 L 128.6 311.1 M 128.6 311.1 L 128.1 313.5 M 128.1 313.5 L 127.3 315.6 M 127.3 315.6 L 126.3 317.2 M 126.3 317.2 L 125 318.5 M 125 318.5 L 123.6 319.4 M 123.6 319.4 L 122.1 320 M 122.1 320 L 120.4 320.2 M 120.4 320.2 L 118.8 320 M 118.8 320 L 117.2 319.4 M 117.2 319.4 L 115.8 318.4 M 115.8 318.4 L 114.5 317 M 114.5 317 L 113.3 315.3 M 113.3 315.3 L 112.5 313.2 M 112.5 313.2 L 112 310.7 M 112 310.7 L 111.9 307.9 M 1112.7 330.4 L 1112.7 330.4 M 1112.7 330.4 L 1112.7 330.4 M 1112.7 330.4 L 1126.9 330.4 M 1126.9 330.4 L 1126.9 335.4 M 1126.9 335.4 L 1092.9 335.4 M 1092.9 335.4 L 1092.9 330.4 M 1092.9 330.4 L 1107.1 330.4 M 1107.1 330.4 L 1107.1 330.4 M 1107.1 330.4 L 1107.1 292.5 M 1107.1 292.5 L 1112.7 292.5 M 1112.7 292.5 L 1112.7 330.4 M 1135.2 335.4 L 1135.2 335.4 M 1135.2 335.4 L 1129.9 335.4 M 1129.9 335.4 L 1129.9 329.4 M 1129.9 329.4 L 1135.2 329.4 M 1135.2 329.4 L 1135.2 335.4 M 1135.2 323.6 L 1135.2 323.6 M 1135.2 323.6 L 1129.9 323.6 M 1129.9 323.6 L 1129.9 292.5 M 1129.9 292.5 L 1135.2 292.5 M 1135.2 292.5 L 1135.2 323.6 M 1148.4 295.7 L 1148.4 295.7 M 1148.4 295.7 L 1148.5 295.7 M 1148.5 295.7 L 1149.2 294.9 M 1149.2 294.9 L 1150 294.2 M 1150 294.2 L 1150.9 293.5 M 1150.9 293.5 L 1151.9 292.9 M 1151.9 292.9 L 1153 292.5 M 1153 292.5 L 1154.2 292.1 M 1154.2 292.1 L 1155.4 291.9 M 1155.4 291.9 L 1156.6 291.8 M 1156.6 291.8 L 1158.4 291.9 M 1158.4 291.9 L 1160.2 292.3 M 1160.2 292.3 L 1161.9 293 M 1161.9 293 L 1163.5 293.8 M 1163.5 293.8 L 1165.1 295 M 1165.1 295 L 1166.4 296.3 M 1166.4 296.3 L 1167.5 297.9 M 1167.5 297.9 L 1168.5 299.7 M 1168.5 299.7 L 1169.2 301.7 M 1169.2 301.7 L 1169.8 303.8 M 1169.8 303.8 L 1170.1 306 M 1170.1 306 L 1170.2 308.3 M 1170.2 308.3 L 1170.1 310.5 M 1170.1 310.5 L 1169.8 312.6 M 1169.8 312.6 L 1169.3 314.5 M 1169.3 314.5 L 1168.6 316.5 M 1168.6 316.5 L 1167.8 318.2 M 1167.8 318.2 L 1166.7 319.8 M 1166.7 319.8 L 1165.5 321.1 M 1165.5 321.1 L 1164 322.3 M 1164 322.3 L 1162.5 323.1 M 1162.5 323.1 L 1160.8 323.8 M 1160.8 323.8 L 1159 324.2 M 1159 324.2 L 1157 324.3 M 1157 324.3 L 1155.6 324.2 M 1155.6 324.2 L 1154.2 324 M 1154.2 324 L 1153 323.6 M 1153 323.6 L 1151.9 323.1 M 1151.9 323.1 L 1150.8 322.5 M 1150.8 322.5 L 1149.8 321.6 M 1149.8 321.6 L 1148.9 320.7 M 1148.9 320.7 L 1148 319.5 M 1148 319.5 L 1148 319.5 M 1148 319.5 L 1148 323.6 M 1148 323.6 L 1143.2 323.6 M 1143.2 323.6 L 1143.2 280.6 M 1143.2 280.6 L 1148.4 280.6 M 1148.4 280.6 L 1148.4 295.7 M 1148 307.9 L 1148 307.9 M 1148 307.9 L 1148.1 305.1 M 1148.1 305.1 L 1148.6 302.7 M 1148.6 302.7 L 1149.4 300.6 M 1149.4 300.6 L 1150.4 299 M 1150.4 299 L 1151.7 297.7 M 1151.7 297.7 L 1153.1 296.9 M 1153.1 296.9 L 1154.6 296.3 M 1154.6 296.3 L 1156.3 296.1 M 1156.3 296.1 L 1158 296.3 M 1158 296.3 L 1159.5 296.9 M 1159.5 296.9 L 1161 297.8 M 1161 297.8 L 1162.3 299.1 M 1162.3 299.1 L 1163.4 300.8 M 1163.4 300.8 L 1164.2 302.9 M 1164.2 302.9 L 1164.7 305.4 M 1164.7 305.4 L 1164.8 308.3 M 1164.8 308.3 L 1164.7 311.1 M 1164.7 311.1 L 1164.2 313.5 M 1164.2 313.5 L 1163.4 315.6 M 1163.4 315.6 L 1162.4 317.2 M 1162.4 317.2 L 1161.1 318.5 M 1161.1 318.5 L 1159.7 319.4 M 1159.7 319.4 L 1158.2 320 M 1158.2 320 L 1156.6 320.2 M 1156.6 320.2 L 1154.9 320 M 1154.9 320 L 1153.4 319.4 M 1153.4 319.4 L 1151.9 318.4 M 1151.9 318.4 L 1150.6 317 M 1150.6 317 L 1149.4 315.3 M 1149.4 315.3 L 1148.6 313.2 M 1148.6 313.2 L 1148.1 310.7 M 1148.1 310.7 L 1148 307.9 M 106.3 71.9 L 106.3 71.9 M 106.3 71.9 L 108.4 72.2 M 108.4 72.2 L 110.4 72.7 M 110.4 72.7 L 112.3 73.5 M 112.3 73.5 L 114 74.4 M 114 74.4 L 115.6 75.5 M 115.6 75.5 L 116.9 76.8 M 116.9 76.8 L 117.9 78.2 M 117.9 78.2 L 118.8 79.7 M 118.8 79.7 L 119.4 81.3 M 119.4 81.3 L 119.8 82.9 M 119.8 82.9 L 119.9 84.6 M 119.9 84.6 L 119.8 86.3 M 119.8 86.3 L 119.5 87.9 M 119.5 87.9 L 118.9 89.4 M 118.9 89.4 L 118.1 90.7 M 118.1 90.7 L 117.1 92 M 117.1 92 L 115.8 93.1 M 115.8 93.1 L 114.4 94.2 M 114.4 94.2 L 112.6 95.1 M 112.6 95.1 L 111 95.7 M 111 95.7 L 108.9 96.4 M 108.9 96.4 L 106.3 97.1 M 106.3 97.1 L 103.1 97.9 M 103.1 97.9 L 103.1 97.9 M 103.1 97.9 L 99.9 98.6 M 99.9 98.6 L 99.9 98.6 M 99.9 98.6 L 97.5 99.4 M 97.5 99.4 L 97.5 99.4 M 97.5 99.4 L 95.6 100.1 M 95.6 100.1 L 95.6 100.1 M 95.6 100.1 L 94.5 100.9 M 94.5 100.9 L 94.5 100.9 M 94.5 100.9 L 93.8 101.7 M 93.8 101.7 L 93.8 101.7 M 93.8 101.7 L 93.2 102.6 M 93.2 102.6 L 93.2 102.6 M 93.2 102.6 L 92.9 103.6 M 92.9 103.6 L 92.9 103.6 M 92.9 103.6 L 92.9 104.7 M 92.9 104.7 L 92.9 104.7 M 92.9 104.7 L 93 106 M 93 106 L 93 106 M 93 106 L 93.4 107.2 M 93.4 107.2 L 93.4 107.2 M 93.4 107.2 L 94.2 108.3 M 94.2 108.3 L 94.2 108.3 M 94.2 108.3 L 95.2 109.3 M 95.2 109.3 L 95.2 109.3 M 95.2 109.3 L 96.6 110.1 M 96.6 110.1 L 96.6 110.1 M 96.6 110.1 L 98.2 110.7 M 98.2 110.7 L 98.2 110.7 M 98.2 110.7 L 100.3 111.1 M 100.3 111.1 L 100.3 111.1 M 100.3 111.1 L 102.7 111.2 M 102.7 111.2 L 102.7 111.2 M 102.7 111.2 L 105.1 111 M 105.1 111 L 105.1 111 M 105.1 111 L 107.1 110.7 M 107.1 110.7 L 107.1 110.7 M 107.1 110.7 L 108.8 110 M 108.8 110 L 108.8 110 M 108.8 110 L 110.2 109.1 M 110.2 109.1 L 110.2 109.1 M 110.2 109.1 L 111.4 107.9 M 111.4 107.9 L 111.4 107.9 M 111.4 107.9 L 112.2 106.5 M 112.2 106.5 L 112.2 106.5 M 112.2 106.5 L 112.9 104.9 M 112.9 104.9 L 112.9 104.9 M 112.9 104.9 L 113.2 103 M 113.2 103 L 118.6 103.4 M 118.6 103.4 L 118.4 105.2 M 118.4 105.2 L 118 106.9 M 118 106.9 L 117.4 108.6 M 117.4 108.6 L 116.5 110.1 M 116.5 110.1 L 115.4 111.5 M 115.4 111.5 L 114.1 112.7 M 114.1 112.7 L 112.6 113.8 M 112.6 113.8 L 110.9 114.6 M 110.9 114.6 L 109 115.3 M 109 115.3 L 107 115.8 M 107 115.8 L 104.8 116.1 M 104.8 116.1 L 102.5 116.2 M 102.5 116.2 L 100.4 116.1 M 100.4 116.1 L 98.4 115.8 M 98.4 115.8 L 96.4 115.3 M 96.4 115.3 L 94.6 114.7 M 94.6 114.7 L 93 113.9 M 93 113.9 L 91.5 112.9 M 91.5 112.9 L 90.3 111.8 M 90.3 111.8 L 89.2 110.4 M 89.2 110.4 L 88.4 109 M 88.4 109 L 87.9 107.5 M 87.9 107.5 L 87.5 105.9 M 87.5 105.9 L 87.4 104.4 M 87.4 104.4 L 87.5 102.9 M 87.5 102.9 L 87.8 101.5 M 87.8 101.5 L 88.2 100.3 M 88.2 100.3 L 88.9 99 M 88.9 99 L 89.7 97.9 M 89.7 97.9 L 90.8 96.8 M 90.8 96.8 L 92 95.9 M 92 95.9 L 93.5 95 M 93.5 95 L 94.9 94.4 M 94.9 94.4 L 96.8 93.7 M 96.8 93.7 L 99 93.1 M 99 93.1 L 101.8 92.3 M 101.8 92.3 L 104.5 91.7 M 104.5 91.7 L 104.5 91.7 M 104.5 91.7 L 106.6 91.1 M 106.6 91.1 L 106.6 91.1 M 106.6 91.1 L 108.3 90.6 M 108.3 90.6 L 108.3 90.6 M 108.3 90.6 L 109.4 90.3 M 109.4 90.3 L 109.4 90.3 M 109.4 90.3 L 110.6 89.7 M 110.6 89.7 L 110.7 89.7 M 110.7 89.7 L 111.8 89.1 M 111.8 89.1 L 111.8 89.1 M 111.8 89.1 L 112.6 88.4 M 112.6 88.4 L 112.6 88.4 M 112.6 88.4 L 113.3 87.7 M 113.3 87.7 L 113.3 87.7 M 113.3 87.7 L 113.8 86.9 M 113.8 86.9 L 113.8 86.9 M 113.8 86.9 L 114.2 86 M 114.2 86 L 114.2 86 M 114.2 86 L 114.4 85.1 M 114.4 85.1 L 114.4 85.1 M 114.4 85.1 L 114.5 84.2 M 114.5 84.2 L 114.5 84.2 M 114.5 84.2 L 114.4 83.2 M 114.4 83.2 L 114.4 83.2 M 114.4 83.2 L 114.2 82.2 M 114.2 82.2 L 114.2 82.2 M 114.2 82.2 L 113.8 81.3 M 113.8 81.3 L 113.8 81.3 M 113.8 81.3 L 113.2 80.5 M 113.2 80.5 L 113.2 80.5 M 113.2 80.5 L 112.5 79.7 M 112.5 79.7 L 112.5 79.7 M 112.5 79.7 L 111.7 79 M 111.7 79 L 111.7 79 M 111.7 79 L 110.7 78.3 M 110.7 78.3 L 110.7 78.3 M 110.7 78.3 L 109.5 77.8 M 109.5 77.8 L 109.5 77.8 M 109.5 77.8 L 108.2 77.4 M 108.2 77.4 L 108.2 77.4 M 108.2 77.4 L 106.8 77.1 M 106.8 77.1 L 106.8 77.1 M 106.8 77.1 L 105.4 76.9 M 105.4 76.9 L 105.4 76.9 M 105.4 76.9 L 103.8 76.8 M 103.8 76.8 L 103.8 76.8 M 103.8 76.8 L 102 76.9 M 102 76.9 L 102 76.9 M 102 76.9 L 100.3 77.1 M 100.3 77.1 L 100.3 77.1 M 100.3 77.1 L 98.7 77.6 M 98.7 77.6 L 98.7 77.6 M 98.7 77.6 L 97.2 78.1 M 97.2 78.1 L 97.2 78.1 M 97.2 78.1 L 95.8 78.8 M 95.8 78.8 L 95.8 78.8 M 95.8 78.8 L 94.6 79.6 M 94.6 79.6 L 94.6 79.6 M 94.6 79.6 L 93.6 80.5 M 93.6 80.5 L 93.6 80.5 M 93.6 80.5 L 92.9 81.5 M 92.9 81.5 L 92.9 81.5 M 92.9 81.5 L 92.2 82.6 M 92.2 82.6 L 92.2 82.6 M 92.2 82.6 L 91.7 83.8 M 91.7 83.8 L 91.7 83.8 M 91.7 83.8 L 91.3 85.2 M 91.3 85.2 L 91.3 85.2 M 91.3 85.2 L 91.1 86.8 M 91.1 86.8 L 85.8 86.3 M 85.8 86.3 L 86 84.2 M 86 84.2 L 86.4 82.2 M 86.4 82.2 L 87.1 80.3 M 87.1 80.3 L 88.1 78.6 M 88.1 78.6 L 89.4 77 M 89.4 77 L 90.8 75.6 M 90.8 75.6 L 92.4 74.4 M 92.4 74.4 L 94.3 73.5 M 94.3 73.5 L 96.4 72.7 M 96.4 72.7 L 98.7 72.2 M 98.7 72.2 L 101.2 71.9 M 101.2 71.9 L 104 71.8 M 104 71.8 L 106.3 71.9 M 132.1 115.4 L 132.1 115.4 M 132.1 115.4 L 126.9 115.4 M 126.9 115.4 L 126.9 72.5 M 126.9 72.5 L 132.1 72.5 M 132.1 72.5 L 132.1 115.4 M 156 72 L 156 72 M 156 72 L 158.3 72.5 M 158.3 72.5 L 160.5 73.3 M 160.5 73.3 L 162.3 74.5 M 162.3 74.5 L 163.9 75.9 M 163.9 75.9 L 165.3 77.6 M 165.3 77.6 L 166.3 79.6 M 166.3 79.6 L 167.1 81.8 M 167.1 81.8 L 161.7 82.5 M 161.7 82.5 L 161 81 M 161 81 L 161 81 M 161 81 L 160.3 79.6 M 160.3 79.6 L 160.3 79.6 M 160.3 79.6 L 159.4 78.5 M 159.4 78.5 L 159.4 78.5 M 159.4 78.5 L 158.4 77.7 M 158.4 77.7 L 158.4 77.7 M 158.4 77.7 L 157.3 77 M 157.3 77 L 157.3 77 M 157.3 77 L 156.1 76.5 M 156.1 76.5 L 156.1 76.5 M 156.1 76.5 L 154.8 76.2 M 154.8 76.2 L 154.8 76.2 M 154.8 76.2 L 153.4 76.1 M 153.4 76.1 L 153.4 76.1 M 153.4 76.1 L 151.6 76.3 M 151.6 76.3 L 151.6 76.3 M 151.6 76.3 L 149.9 76.8 M 149.9 76.8 L 149.9 76.8 M 149.9 76.8 L 148.3 77.7 M 148.3 77.7 L 148.3 77.7 M 148.3 77.7 L 146.9 78.8 M 146.9 78.8 L 146.9 78.8 M 146.9 78.8 L 145.8 80.4 M 145.8 80.4 L 145.8 80.4 M 145.8 80.4 L 144.9 82.2 M 144.9 82.2 L 144.9 82.2 M 144.9 82.2 L 144.3 84.3 M 144.3 84.3 L 144.3 84.3 M 144.3 84.3 L 144 86.7 M 144 86.7 L 144 86.7 M 144 86.7 L 167.2 86.7 M 167.2 86.7 L 167.2 87.1 M 167.2 87.1 L 167.2 87.5 M 167.2 87.5 L 167.3 87.9 M 167.3 87.9 L 167.3 88.1 M 167.3 88.1 L 167 91.8 M 167 91.8 L 166.3 94.9 M 166.3 94.9 L 165 97.7 M 165 97.7 L 163.3 100.1 M 163.3 100.1 L 161.2 101.9 M 161.2 101.9 L 158.8 103.2 M 158.8 103.2 L 156.1 104 M 156.1 104 L 153.1 104.3 M 153.1 104.3 L 150.1 104 M 150.1 104 L 147.3 103.2 M 147.3 103.2 L 144.8 101.9 M 144.8 101.9 L 142.7 100 M 142.7 100 L 140.9 97.6 M 140.9 97.6 L 139.6 94.7 M 139.6 94.7 L 138.9 91.5 M 138.9 91.5 L 138.6 87.8 M 138.6 87.8 L 138.8 84.2 M 138.8 84.2 L 139.6 81 M 139.6 81 L 140.8 78.3 M 140.8 78.3 L 142.6 76 M 142.6 76 L 144.8 74.2 M 144.8 74.2 L 147.3 72.9 M 147.3 72.9 L 150.2 72.1 M 150.2 72.1 L 153.4 71.8 M 153.4 71.8 L 156 72 M 144.3 91 L 144.3 91 M 144.3 91 L 161.7 91 M 161.7 91 L 161.4 92.9 M 161.4 92.9 L 161 94.5 M 161 94.5 L 160.5 95.8 M 160.5 95.8 L 159.7 96.9 M 159.7 96.9 L 158.4 98.2 M 158.4 98.2 L 156.8 99.2 M 156.8 99.2 L 155.1 99.8 M 155.1 99.8 L 153.2 100 M 153.2 100 L 151.4 99.8 M 151.4 99.8 L 149.8 99.4 M 149.8 99.4 L 148.4 98.6 M 148.4 98.6 L 147.1 97.5 M 147.1 97.5 L 146 96.2 M 146 96.2 L 145.1 94.7 M 145.1 94.7 L 144.6 93 M 144.6 93 L 144.3 91 M 189.4 72 L 189.4 72 M 189.4 72 L 191.7 72.5 M 191.7 72.5 L 193.8 73.3 M 193.8 73.3 L 195.7 74.5 M 195.7 74.5 L 197.3 75.9 M 197.3 75.9 L 198.6 77.6 M 198.6 77.6 L 199.7 79.6 M 199.7 79.6 L 200.5 81.8 M 200.5 81.8 L 195 82.5 M 195 82.5 L 194.4 81 M 194.4 81 L 194.4 81 M 194.4 81 L 193.6 79.6 M 193.6 79.6 L 193.6 79.6 M 193.6 79.6 L 192.7 78.5 M 192.7 78.5 L 192.7 78.5 M 192.7 78.5 L 191.8 77.7 M 191.8 77.7 L 191.8 77.7 M 191.8 77.7 L 190.7 77 M 190.7 77 L 190.7 77 M 190.7 77 L 189.5 76.5 M 189.5 76.5 L 189.5 76.5 M 189.5 76.5 L 188.2 76.2 M 188.2 76.2 L 188.2 76.2 M 188.2 76.2 L 186.8 76.1 M 186.8 76.1 L 186.8 76.1 M 186.8 76.1 L 184.9 76.3 M 184.9 76.3 L 184.9 76.3 M 184.9 76.3 L 183.2 76.8 M 183.2 76.8 L 183.2 76.8 M 183.2 76.8 L 181.7 77.7 M 181.7 77.7 L 181.7 77.7 M 181.7 77.7 L 180.3 78.8 M 180.3 78.8 L 180.3 78.8 M 180.3 78.8 L 179.1 80.4 M 179.1 80.4 L 179.1 80.4 M 179.1 80.4 L 178.2 82.2 M 178.2 82.2 L 178.2 82.2 M 178.2 82.2 L 177.7 84.3 M 177.7 84.3 L 177.7 84.3 M 177.7 84.3 L 177.4 86.7 M 177.4 86.7 L 177.4 86.7 M 177.4 86.7 L 200.6 86.7 M 200.6 86.7 L 200.6 87.1 M 200.6 87.1 L 200.6 87.5 M 200.6 87.5 L 200.6 87.9 M 200.6 87.9 L 200.6 88.1 M 200.6 88.1 L 200.4 91.8 M 200.4 91.8 L 199.6 94.9 M 199.6 94.9 L 198.4 97.7 M 198.4 97.7 L 196.7 100.1 M 196.7 100.1 L 194.5 101.9 M 194.5 101.9 L 192.1 103.2 M 192.1 103.2 L 189.5 104 M 189.5 104 L 186.5 104.3 M 186.5 104.3 L 183.4 104 M 183.4 104 L 180.6 103.2 M 180.6 103.2 L 178.2 101.9 M 178.2 101.9 L 176 100 M 176 100 L 174.2 97.6 M 174.2 97.6 L 173 94.7 M 173 94.7 L 172.2 91.5 M 172.2 91.5 L 172 87.8 M 172 87.8 L 172.2 84.2 M 172.2 84.2 L 173 81 M 173 81 L 174.2 78.3 M 174.2 78.3 L 176 76 M 176 76 L 178.1 74.2 M 178.1 74.2 L 180.6 72.9 M 180.6 72.9 L 183.6 72.1 M 183.6 72.1 L 186.8 71.8 M 186.8 71.8 L 189.4 72 M 177.7 91 L 177.7 91 M 177.7 91 L 195.1 91 M 195.1 91 L 194.8 92.9 M 194.8 92.9 L 194.4 94.5 M 194.4 94.5 L 193.8 95.8 M 193.8 95.8 L 193.1 96.9 M 193.1 96.9 L 191.7 98.2 M 191.7 98.2 L 190.2 99.2 M 190.2 99.2 L 188.4 99.8 M 188.4 99.8 L 186.6 100 M 186.6 100 L 184.8 99.8 M 184.8 99.8 L 183.2 99.4 M 183.2 99.4 L 181.8 98.6 M 181.8 98.6 L 180.5 97.5 M 180.5 97.5 L 179.4 96.2 M 179.4 96.2 L 178.5 94.7 M 178.5 94.7 L 178 93 M 178 93 L 177.7 91 M 232.4 103.6 L 232.4 103.6 M 232.4 103.6 L 227 103.6 M 227 103.6 L 220.1 84.6 M 220.1 84.6 L 219.5 83 M 219.5 83 L 219 81.4 M 219 81.4 L 218.5 80 M 218.5 80 L 218.1 78.7 M 218.1 78.7 L 218.1 78.7 M 218.1 78.7 L 217.7 80.3 M 217.7 80.3 L 217.1 81.9 M 217.1 81.9 L 216.6 83.4 M 216.6 83.4 L 216.1 85 M 216.1 85 L 209.4 103.6 M 209.4 103.6 L 203.9 103.6 M 203.9 103.6 L 215.7 72.5 M 215.7 72.5 L 220.6 72.5 M 220.6 72.5 L 232.4 103.6 M 252.7 72 L 252.7 72 M 252.7 72 L 255.1 72.5 M 255.1 72.5 L 257.2 73.3 M 257.2 73.3 L 259 74.5 M 259 74.5 L 260.6 75.9 M 260.6 75.9 L 262 77.6 M 262 77.6 L 263.1 79.6 M 263.1 79.6 L 263.8 81.8 M 263.8 81.8 L 258.4 82.5 M 258.4 82.5 L 257.7 81 M 257.7 81 L 257.7 81 M 257.7 81 L 257 79.6 M 257 79.6 L 257 79.6 M 257 79.6 L 256.1 78.5 M 256.1 78.5 L 256.1 78.5 M 256.1 78.5 L 255.1 77.7 M 255.1 77.7 L 255.1 77.7 M 255.1 77.7 L 254.1 77 M 254.1 77 L 254.1 77 M 254.1 77 L 252.9 76.5 M 252.9 76.5 L 252.9 76.5 M 252.9 76.5 L 251.6 76.2 M 251.6 76.2 L 251.6 76.2 M 251.6 76.2 L 250.2 76.1 M 250.2 76.1 L 250.2 76.1 M 250.2 76.1 L 248.3 76.3 M 248.3 76.3 L 248.3 76.3 M 248.3 76.3 L 246.6 76.8 M 246.6 76.8 L 246.6 76.8 M 246.6 76.8 L 245.1 77.7 M 245.1 77.7 L 245.1 77.7 M 245.1 77.7 L 243.7 78.8 M 243.7 78.8 L 243.7 78.8 M 243.7 78.8 L 242.5 80.4 M 242.5 80.4 L 242.5 80.4 M 242.5 80.4 L 241.6 82.2 M 241.6 82.2 L 241.6 82.2 M 241.6 82.2 L 241 84.3 M 241 84.3 L 241 84.3 M 241 84.3 L 240.8 86.7 M 240.8 86.7 L 240.8 86.7 M 240.8 86.7 L 264 86.7 M 264 86.7 L 264 87.1 M 264 87.1 L 264 87.5 M 264 87.5 L 264 87.9 M 264 87.9 L 264 88.1 M 264 88.1 L 263.8 91.8 M 263.8 91.8 L 263 94.9 M 263 94.9 L 261.8 97.7 M 261.8 97.7 L 260.1 100.1 M 260.1 100.1 L 257.9 101.9 M 257.9 101.9 L 255.5 103.2 M 255.5 103.2 L 252.8 104 M 252.8 104 L 249.9 104.3 M 249.9 104.3 L 246.8 104 M 246.8 104 L 244 103.2 M 244 103.2 L 241.6 101.9 M 241.6 101.9 L 239.4 100 M 239.4 100 L 237.6 97.6 M 237.6 97.6 L 236.4 94.7 M 236.4 94.7 L 235.6 91.5 M 235.6 91.5 L 235.3 87.8 M 235.3 87.8 L 235.6 84.2 M 235.6 84.2 L 236.4 81 M 236.4 81 L 237.6 78.3 M 237.6 78.3 L 239.4 76 M 239.4 76 L 241.5 74.2 M 241.5 74.2 L 244 72.9 M 244 72.9 L 246.9 72.1 M 246.9 72.1 L 250.1 71.8 M 250.1 71.8 L 252.7 72 M 241.1 91 L 241.1 91 M 241.1 91 L 258.4 91 M 258.4 91 L 258.2 92.9 M 258.2 92.9 L 257.8 94.5 M 257.8 94.5 L 257.2 95.8 M 257.2 95.8 L 256.4 96.9 M 256.4 96.9 L 255.1 98.2 M 255.1 98.2 L 253.6 99.2 M 253.6 99.2 L 251.8 99.8 M 251.8 99.8 L 249.9 100 M 249.9 100 L 248.2 99.8 M 248.2 99.8 L 246.6 99.4 M 246.6 99.4 L 245.1 98.6 M 245.1 98.6 L 243.8 97.5 M 243.8 97.5 L 242.7 96.2 M 242.7 96.2 L 241.9 94.7 M 241.9 94.7 L 241.4 93 M 241.4 93 L 241.1 91"/></g></g><use class="pcb_board-cf" mask="url(#pcb_top-cu_finish-mask)" xlink:href="#pcb_top-sm"/></g></g></svg>