<?xml version='1.0' encoding='UTF-8' standalone='no'?>
<svg xmlns="http://www.w3.org/2000/svg" width="670" height="215" x="0" y="0"><text x="230" y="30" font-size="10" font-family="sans-serif" text-anchor="end" alignment-baseline="middle">J1-1</text><text x="420" y="120" font-size="10" font-family="sans-serif" text-anchor="start" alignment-baseline="middle">J2-3</text><text x="548" y="189" font-size="10" font-family="sans-serif" text-anchor="start" alignment-baseline="hanging">SS-6488-NF</text><text x="65" y="140" font-size="10" font-family="sans-serif" text-anchor="start" alignment-baseline="hanging">SS-6488-NF</text><text x="420" y="40" font-size="10" font-family="sans-serif" text-anchor="start" alignment-baseline="middle">J3-1</text><text x="420" y="160" font-size="10" font-family="sans-serif" text-anchor="start" alignment-baseline="middle">J2-6</text><text x="510" y="40" font-size="10" font-family="sans-serif" text-anchor="end" alignment-baseline="middle">J2-2</text><text x="640" y="40" font-size="10" font-family="sans-serif" text-anchor="start" alignment-baseline="middle">J2-6</text><text x="420" y="20" font-size="10" font-family="sans-serif" text-anchor="start" alignment-baseline="middle">J2-1</text><text x="510" y="50" font-size="10" font-family="sans-serif" text-anchor="end" alignment-baseline="middle">J2-3</text><text x="230" y="70" font-size="10" font-family="sans-serif" text-anchor="end" alignment-baseline="middle">J1-2</text><text x="160" y="100" font-size="10" font-family="sans-serif" text-anchor="start" alignment-baseline="middle">J1-6</text><text x="420" y="140" font-size="10" font-family="sans-serif" text-anchor="start" alignment-baseline="middle">J3-3</text><text x="420" y="80" font-size="10" font-family="sans-serif" text-anchor="start" alignment-baseline="middle">J3-2</text><text x="640" y="150" font-size="10" font-family="sans-serif" text-anchor="start" alignment-baseline="middle">J3-6</text><text x="230" y="130" font-size="10" font-family="sans-serif" text-anchor="end" alignment-baseline="middle">J1-3</text><text x="565" y="120" font-size="10" font-family="sans-serif" text-anchor="start" alignment-baseline="hanging">J3</text><text x="546" y="79" font-size="10" font-family="sans-serif" text-anchor="start" alignment-baseline="hanging">SS-6488-NF</text><text x="510" y="150" font-size="10" font-family="sans-serif" text-anchor="end" alignment-baseline="middle">J3-2</text><text x="510" y="160" font-size="10" font-family="sans-serif" text-anchor="end" alignment-baseline="middle">J3-3</text><text x="30" y="90" font-size="10" font-family="sans-serif" text-anchor="end" alignment-baseline="middle">J1-1</text><text x="230" y="170" font-size="10" font-family="sans-serif" text-anchor="end" alignment-baseline="middle">J1-6</text><text x="420" y="60" font-size="10" font-family="sans-serif" text-anchor="start" alignment-baseline="middle">J2-2</text><text x="565" y="10" font-size="10" font-family="sans-serif" text-anchor="start" alignment-baseline="hanging">J2</text><text x="420" y="180" font-size="10" font-family="sans-serif" text-anchor="start" alignment-baseline="middle">J3-6</text><text x="30" y="100" font-size="10" font-family="sans-serif" text-anchor="end" alignment-baseline="middle">J1-2</text><text x="510" y="140" font-size="10" font-family="sans-serif" text-anchor="end" alignment-baseline="middle">J3-1</text><text x="85" y="70" font-size="10" font-family="sans-serif" text-anchor="start" alignment-baseline="hanging">J1</text><text x="510" y="30" font-size="10" font-family="sans-serif" text-anchor="end" alignment-baseline="middle">J2-1</text><text x="30" y="110" font-size="10" font-family="sans-serif" text-anchor="end" alignment-baseline="middle">J1-3</text><text x="274" y="205" font-size="10" font-family="sans-serif" text-anchor="start" alignment-baseline="hanging">1004P1T1B1M1QEH</text><rect width="20" height="50" x="85" y="80" style="stroke: #000; stroke-width: 1; fill: none;"></rect><line x1="75" y1="90" x2="85" y2="90" stroke-width="2" stroke="black"></line><text x="87" y="90" font-size="10" font-family="sans-serif" text-anchor="start" alignment-baseline="middle">1</text><line x1="75" y1="100" x2="85" y2="100" stroke-width="2" stroke="black"></line><text x="87" y="100" font-size="10" font-family="sans-serif" text-anchor="start" alignment-baseline="middle">2</text><line x1="75" y1="110" x2="85" y2="110" stroke-width="2" stroke="black"></line><text x="87" y="110" font-size="10" font-family="sans-serif" text-anchor="start" alignment-baseline="middle">3</text><line x1="75" y1="120" x2="85" y2="120" stroke-width="2" stroke="black"></line><text x="87" y="120" font-size="10" font-family="sans-serif" text-anchor="start" alignment-baseline="middle">4</text><line x1="115" y1="90" x2="105" y2="90" stroke-width="2" stroke="black"></line><text x="103" y="90" font-size="10" font-family="sans-serif" text-anchor="end" alignment-baseline="middle">5</text><line x1="115" y1="100" x2="105" y2="100" stroke-width="2" stroke="black"></line><text x="103" y="100" font-size="10" font-family="sans-serif" text-anchor="end" alignment-baseline="middle">6</text><line x1="115" y1="110" x2="105" y2="110" stroke-width="2" stroke="black"></line><text x="103" y="110" font-size="10" font-family="sans-serif" text-anchor="end" alignment-baseline="middle">7</text><line x1="115" y1="120" x2="105" y2="120" stroke-width="2" stroke="black"></line><text x="103" y="120" font-size="10" font-family="sans-serif" text-anchor="end" alignment-baseline="middle">8</text><line x1="140" y1="100" x2="135" y2="100" stroke-width="2" stroke="black"></line><line x1="155" y1="100" x2="150" y2="97" stroke-width="2" stroke="black"></line><line x1="155" y1="100" x2="150" y2="103" stroke-width="2" stroke="black"></line><line x1="150" y1="97" x2="145" y2="97" stroke-width="2" stroke="black"></line><line x1="150" y1="103" x2="145" y2="103" stroke-width="2" stroke="black"></line><line x1="145" y1="97" x2="140" y2="100" stroke-width="2" stroke="black"></line><line x1="145" y1="103" x2="140" y2="100" stroke-width="2" stroke="black"></line><line x1="622" y1="137" x2="628" y2="143" stroke-width="2" stroke="black"></line><line x1="622" y1="143" x2="628" y2="137" stroke-width="2" stroke="black"></line><line x1="622" y1="27" x2="628" y2="33" stroke-width="2" stroke="black"></line><line x1="622" y1="33" x2="628" y2="27" stroke-width="2" stroke="black"></line><line x1="325" y1="41" x2="325" y2="38" stroke-width="2" stroke="black"></line><line x1="325" y1="35" x2="325" y2="32" stroke-width="2" stroke="black"></line><line x1="325" y1="29" x2="325" y2="26" stroke-width="2" stroke="black"></line><line x1="325" y1="23" x2="325" y2="20" stroke-width="2" stroke="black"></line><line x1="325" y1="17" x2="325" y2="14" stroke-width="2" stroke="black"></line><line x1="325" y1="91" x2="325" y2="88" stroke-width="2" stroke="black"></line><line x1="325" y1="85" x2="325" y2="82" stroke-width="2" stroke="black"></line><line x1="325" y1="79" x2="325" y2="76" stroke-width="2" stroke="black"></line><line x1="325" y1="73" x2="325" y2="70" stroke-width="2" stroke="black"></line><line x1="325" y1="67" x2="325" y2="64" stroke-width="2" stroke="black"></line><line x1="325" y1="61" x2="325" y2="58" stroke-width="2" stroke="black"></line><circle cx="332" cy="40" r="3" style="stroke: #000; stroke-width: 1; fill: none;"></circle><line x1="321" y1="30" x2="333" y2="23" stroke-width="2" stroke="black"></line><circle cx="318" cy="30" r="3" style="stroke: #000; stroke-width: 1; fill: none;"></circle><circle cx="332" cy="20" r="3" style="stroke: #000; stroke-width: 1; fill: none;"></circle><circle cx="332" cy="80" r="3" style="stroke: #000; stroke-width: 1; fill: none;"></circle><line x1="321" y1="70" x2="333" y2="63" stroke-width="2" stroke="black"></line><circle cx="318" cy="70" r="3" style="stroke: #000; stroke-width: 1; fill: none;"></circle><circle cx="332" cy="60" r="3" style="stroke: #000; stroke-width: 1; fill: none;"></circle><line x1="530" y1="40" x2="535" y2="40" stroke-width="2" stroke="black"></line><line x1="515" y1="40" x2="520" y2="37" stroke-width="2" stroke="black"></line><line x1="515" y1="40" x2="520" y2="43" stroke-width="2" stroke="black"></line><line x1="520" y1="37" x2="525" y2="37" stroke-width="2" stroke="black"></line><line x1="520" y1="43" x2="525" y2="43" stroke-width="2" stroke="black"></line><line x1="525" y1="37" x2="530" y2="40" stroke-width="2" stroke="black"></line><line x1="525" y1="43" x2="530" y2="40" stroke-width="2" stroke="black"></line><line x1="522" y1="167" x2="528" y2="173" stroke-width="2" stroke="black"></line><line x1="522" y1="173" x2="528" y2="167" stroke-width="2" stroke="black"></line><line x1="325" y1="181" x2="325" y2="178" stroke-width="2" stroke="black"></line><line x1="325" y1="175" x2="325" y2="172" stroke-width="2" stroke="black"></line><line x1="325" y1="169" x2="325" y2="166" stroke-width="2" stroke="black"></line><line x1="325" y1="163" x2="325" y2="160" stroke-width="2" stroke="black"></line><line x1="325" y1="157" x2="325" y2="154" stroke-width="2" stroke="black"></line><line x1="325" y1="151" x2="325" y2="148" stroke-width="2" stroke="black"></line><line x1="325" y1="145" x2="325" y2="142" stroke-width="2" stroke="black"></line><line x1="325" y1="139" x2="325" y2="136" stroke-width="2" stroke="black"></line><line x1="325" y1="133" x2="325" y2="130" stroke-width="2" stroke="black"></line><line x1="325" y1="127" x2="325" y2="124" stroke-width="2" stroke="black"></line><line x1="325" y1="121" x2="325" y2="118" stroke-width="2" stroke="black"></line><circle cx="332" cy="180" r="3" style="stroke: #000; stroke-width: 1; fill: none;"></circle><line x1="321" y1="170" x2="333" y2="163" stroke-width="2" stroke="black"></line><circle cx="318" cy="170" r="3" style="stroke: #000; stroke-width: 1; fill: none;"></circle><circle cx="332" cy="160" r="3" style="stroke: #000; stroke-width: 1; fill: none;"></circle><circle cx="332" cy="140" r="3" style="stroke: #000; stroke-width: 1; fill: none;"></circle><line x1="321" y1="130" x2="333" y2="123" stroke-width="2" stroke="black"></line><circle cx="318" cy="130" r="3" style="stroke: #000; stroke-width: 1; fill: none;"></circle><circle cx="332" cy="120" r="3" style="stroke: #000; stroke-width: 1; fill: none;"></circle><line x1="42" y1="117" x2="48" y2="123" stroke-width="2" stroke="black"></line><line x1="42" y1="123" x2="48" y2="117" stroke-width="2" stroke="black"></line><line x1="142" y1="87" x2="148" y2="93" stroke-width="2" stroke="black"></line><line x1="142" y1="93" x2="148" y2="87" stroke-width="2" stroke="black"></line><line x1="530" y1="50" x2="535" y2="50" stroke-width="2" stroke="black"></line><line x1="515" y1="50" x2="520" y2="47" stroke-width="2" stroke="black"></line><line x1="515" y1="50" x2="520" y2="53" stroke-width="2" stroke="black"></line><line x1="520" y1="47" x2="525" y2="47" stroke-width="2" stroke="black"></line><line x1="520" y1="53" x2="525" y2="53" stroke-width="2" stroke="black"></line><line x1="525" y1="47" x2="530" y2="50" stroke-width="2" stroke="black"></line><line x1="525" y1="53" x2="530" y2="50" stroke-width="2" stroke="black"></line><line x1="620" y1="40" x2="615" y2="40" stroke-width="2" stroke="black"></line><line x1="635" y1="40" x2="630" y2="37" stroke-width="2" stroke="black"></line><line x1="635" y1="40" x2="630" y2="43" stroke-width="2" stroke="black"></line><line x1="630" y1="37" x2="625" y2="37" stroke-width="2" stroke="black"></line><line x1="630" y1="43" x2="625" y2="43" stroke-width="2" stroke="black"></line><line x1="625" y1="37" x2="620" y2="40" stroke-width="2" stroke="black"></line><line x1="625" y1="43" x2="620" y2="40" stroke-width="2" stroke="black"></line><line x1="50" y1="110" x2="55" y2="110" stroke-width="2" stroke="black"></line><line x1="35" y1="110" x2="40" y2="107" stroke-width="2" stroke="black"></line><line x1="35" y1="110" x2="40" y2="113" stroke-width="2" stroke="black"></line><line x1="40" y1="107" x2="45" y2="107" stroke-width="2" stroke="black"></line><line x1="40" y1="113" x2="45" y2="113" stroke-width="2" stroke="black"></line><line x1="45" y1="107" x2="50" y2="110" stroke-width="2" stroke="black"></line><line x1="45" y1="113" x2="50" y2="110" stroke-width="2" stroke="black"></line><line x1="530" y1="150" x2="535" y2="150" stroke-width="2" stroke="black"></line><line x1="515" y1="150" x2="520" y2="147" stroke-width="2" stroke="black"></line><line x1="515" y1="150" x2="520" y2="153" stroke-width="2" stroke="black"></line><line x1="520" y1="147" x2="525" y2="147" stroke-width="2" stroke="black"></line><line x1="520" y1="153" x2="525" y2="153" stroke-width="2" stroke="black"></line><line x1="525" y1="147" x2="530" y2="150" stroke-width="2" stroke="black"></line><line x1="525" y1="153" x2="530" y2="150" stroke-width="2" stroke="black"></line><line x1="400" y1="120" x2="395" y2="120" stroke-width="2" stroke="black"></line><line x1="415" y1="120" x2="410" y2="117" stroke-width="2" stroke="black"></line><line x1="415" y1="120" x2="410" y2="123" stroke-width="2" stroke="black"></line><line x1="410" y1="117" x2="405" y2="117" stroke-width="2" stroke="black"></line><line x1="410" y1="123" x2="405" y2="123" stroke-width="2" stroke="black"></line><line x1="405" y1="117" x2="400" y2="120" stroke-width="2" stroke="black"></line><line x1="405" y1="123" x2="400" y2="120" stroke-width="2" stroke="black"></line><line x1="530" y1="140" x2="535" y2="140" stroke-width="2" stroke="black"></line><line x1="515" y1="140" x2="520" y2="137" stroke-width="2" stroke="black"></line><line x1="515" y1="140" x2="520" y2="143" stroke-width="2" stroke="black"></line><line x1="520" y1="137" x2="525" y2="137" stroke-width="2" stroke="black"></line><line x1="520" y1="143" x2="525" y2="143" stroke-width="2" stroke="black"></line><line x1="525" y1="137" x2="530" y2="140" stroke-width="2" stroke="black"></line><line x1="525" y1="143" x2="530" y2="140" stroke-width="2" stroke="black"></line><line x1="50" y1="90" x2="55" y2="90" stroke-width="2" stroke="black"></line><line x1="35" y1="90" x2="40" y2="87" stroke-width="2" stroke="black"></line><line x1="35" y1="90" x2="40" y2="93" stroke-width="2" stroke="black"></line><line x1="40" y1="87" x2="45" y2="87" stroke-width="2" stroke="black"></line><line x1="40" y1="93" x2="45" y2="93" stroke-width="2" stroke="black"></line><line x1="45" y1="87" x2="50" y2="90" stroke-width="2" stroke="black"></line><line x1="45" y1="93" x2="50" y2="90" stroke-width="2" stroke="black"></line><line x1="400" y1="180" x2="395" y2="180" stroke-width="2" stroke="black"></line><line x1="415" y1="180" x2="410" y2="177" stroke-width="2" stroke="black"></line><line x1="415" y1="180" x2="410" y2="183" stroke-width="2" stroke="black"></line><line x1="410" y1="177" x2="405" y2="177" stroke-width="2" stroke="black"></line><line x1="410" y1="183" x2="405" y2="183" stroke-width="2" stroke="black"></line><line x1="405" y1="177" x2="400" y2="180" stroke-width="2" stroke="black"></line><line x1="405" y1="183" x2="400" y2="180" stroke-width="2" stroke="black"></line><rect width="20" height="50" x="565" y="20" style="stroke: #000; stroke-width: 1; fill: none;"></rect><line x1="555" y1="30" x2="565" y2="30" stroke-width="2" stroke="black"></line><text x="567" y="30" font-size="10" font-family="sans-serif" text-anchor="start" alignment-baseline="middle">1</text><line x1="555" y1="40" x2="565" y2="40" stroke-width="2" stroke="black"></line><text x="567" y="40" font-size="10" font-family="sans-serif" text-anchor="start" alignment-baseline="middle">2</text><line x1="555" y1="50" x2="565" y2="50" stroke-width="2" stroke="black"></line><text x="567" y="50" font-size="10" font-family="sans-serif" text-anchor="start" alignment-baseline="middle">3</text><line x1="555" y1="60" x2="565" y2="60" stroke-width="2" stroke="black"></line><text x="567" y="60" font-size="10" font-family="sans-serif" text-anchor="start" alignment-baseline="middle">4</text><line x1="595" y1="30" x2="585" y2="30" stroke-width="2" stroke="black"></line><text x="583" y="30" font-size="10" font-family="sans-serif" text-anchor="end" alignment-baseline="middle">5</text><line x1="595" y1="40" x2="585" y2="40" stroke-width="2" stroke="black"></line><text x="583" y="40" font-size="10" font-family="sans-serif" text-anchor="end" alignment-baseline="middle">6</text><line x1="595" y1="50" x2="585" y2="50" stroke-width="2" stroke="black"></line><text x="583" y="50" font-size="10" font-family="sans-serif" text-anchor="end" alignment-baseline="middle">7</text><line x1="595" y1="60" x2="585" y2="60" stroke-width="2" stroke="black"></line><text x="583" y="60" font-size="10" font-family="sans-serif" text-anchor="end" alignment-baseline="middle">8</text><line x1="622" y1="167" x2="628" y2="173" stroke-width="2" stroke="black"></line><line x1="622" y1="173" x2="628" y2="167" stroke-width="2" stroke="black"></line><line x1="622" y1="47" x2="628" y2="53" stroke-width="2" stroke="black"></line><line x1="622" y1="53" x2="628" y2="47" stroke-width="2" stroke="black"></line><line x1="250" y1="30" x2="255" y2="30" stroke-width="2" stroke="black"></line><line x1="235" y1="30" x2="240" y2="27" stroke-width="2" stroke="black"></line><line x1="235" y1="30" x2="240" y2="33" stroke-width="2" stroke="black"></line><line x1="240" y1="27" x2="245" y2="27" stroke-width="2" stroke="black"></line><line x1="240" y1="33" x2="245" y2="33" stroke-width="2" stroke="black"></line><line x1="245" y1="27" x2="250" y2="30" stroke-width="2" stroke="black"></line><line x1="245" y1="33" x2="250" y2="30" stroke-width="2" stroke="black"></line><line x1="250" y1="170" x2="255" y2="170" stroke-width="2" stroke="black"></line><line x1="235" y1="170" x2="240" y2="167" stroke-width="2" stroke="black"></line><line x1="235" y1="170" x2="240" y2="173" stroke-width="2" stroke="black"></line><line x1="240" y1="167" x2="245" y2="167" stroke-width="2" stroke="black"></line><line x1="240" y1="173" x2="245" y2="173" stroke-width="2" stroke="black"></line><line x1="245" y1="167" x2="250" y2="170" stroke-width="2" stroke="black"></line><line x1="245" y1="173" x2="250" y2="170" stroke-width="2" stroke="black"></line><line x1="522" y1="57" x2="528" y2="63" stroke-width="2" stroke="black"></line><line x1="522" y1="63" x2="528" y2="57" stroke-width="2" stroke="black"></line><rect width="20" height="50" x="565" y="130" style="stroke: #000; stroke-width: 1; fill: none;"></rect><line x1="555" y1="140" x2="565" y2="140" stroke-width="2" stroke="black"></line><text x="567" y="140" font-size="10" font-family="sans-serif" text-anchor="start" alignment-baseline="middle">1</text><line x1="555" y1="150" x2="565" y2="150" stroke-width="2" stroke="black"></line><text x="567" y="150" font-size="10" font-family="sans-serif" text-anchor="start" alignment-baseline="middle">2</text><line x1="555" y1="160" x2="565" y2="160" stroke-width="2" stroke="black"></line><text x="567" y="160" font-size="10" font-family="sans-serif" text-anchor="start" alignment-baseline="middle">3</text><line x1="555" y1="170" x2="565" y2="170" stroke-width="2" stroke="black"></line><text x="567" y="170" font-size="10" font-family="sans-serif" text-anchor="start" alignment-baseline="middle">4</text><line x1="595" y1="140" x2="585" y2="140" stroke-width="2" stroke="black"></line><text x="583" y="140" font-size="10" font-family="sans-serif" text-anchor="end" alignment-baseline="middle">5</text><line x1="595" y1="150" x2="585" y2="150" stroke-width="2" stroke="black"></line><text x="583" y="150" font-size="10" font-family="sans-serif" text-anchor="end" alignment-baseline="middle">6</text><line x1="595" y1="160" x2="585" y2="160" stroke-width="2" stroke="black"></line><text x="583" y="160" font-size="10" font-family="sans-serif" text-anchor="end" alignment-baseline="middle">7</text><line x1="595" y1="170" x2="585" y2="170" stroke-width="2" stroke="black"></line><text x="583" y="170" font-size="10" font-family="sans-serif" text-anchor="end" alignment-baseline="middle">8</text><line x1="355" y1="20" x2="335" y2="20" stroke-width="2" stroke="black"></line><text x="373" y="20" font-size="10" font-family="sans-serif" text-anchor="end" alignment-baseline="middle">1</text><line x1="295" y1="30" x2="315" y2="30" stroke-width="2" stroke="black"></line><text x="283" y="30" font-size="10" font-family="sans-serif" text-anchor="end" alignment-baseline="middle">2</text><line x1="355" y1="40" x2="335" y2="40" stroke-width="2" stroke="black"></line><text x="373" y="40" font-size="10" font-family="sans-serif" text-anchor="end" alignment-baseline="middle">3</text><line x1="355" y1="60" x2="335" y2="60" stroke-width="2" stroke="black"></line><text x="367" y="60" font-size="10" font-family="sans-serif" text-anchor="start" alignment-baseline="middle">4</text><line x1="295" y1="70" x2="315" y2="70" stroke-width="2" stroke="black"></line><text x="283" y="70" font-size="10" font-family="sans-serif" text-anchor="end" alignment-baseline="middle">5</text><line x1="355" y1="80" x2="335" y2="80" stroke-width="2" stroke="black"></line><text x="373" y="80" font-size="10" font-family="sans-serif" text-anchor="end" alignment-baseline="middle">6</text><line x1="355" y1="120" x2="335" y2="120" stroke-width="2" stroke="black"></line><text x="373" y="120" font-size="10" font-family="sans-serif" text-anchor="end" alignment-baseline="middle">7</text><line x1="295" y1="130" x2="315" y2="130" stroke-width="2" stroke="black"></line><text x="277" y="130" font-size="10" font-family="sans-serif" text-anchor="start" alignment-baseline="middle">8</text><line x1="355" y1="140" x2="335" y2="140" stroke-width="2" stroke="black"></line><text x="373" y="140" font-size="10" font-family="sans-serif" text-anchor="end" alignment-baseline="middle">9</text><line x1="335" y1="160" x2="355" y2="160" stroke-width="2" stroke="black"></line><text x="367" y="160" font-size="10" font-family="sans-serif" text-anchor="start" alignment-baseline="middle">10</text><line x1="295" y1="170" x2="315" y2="170" stroke-width="2" stroke="black"></line><text x="277" y="170" font-size="10" font-family="sans-serif" text-anchor="start" alignment-baseline="middle">11</text><line x1="335" y1="180" x2="355" y2="180" stroke-width="2" stroke="black"></line><text x="367" y="180" font-size="10" font-family="sans-serif" text-anchor="start" alignment-baseline="middle">12</text><line x1="400" y1="20" x2="395" y2="20" stroke-width="2" stroke="black"></line><line x1="415" y1="20" x2="410" y2="17" stroke-width="2" stroke="black"></line><line x1="415" y1="20" x2="410" y2="23" stroke-width="2" stroke="black"></line><line x1="410" y1="17" x2="405" y2="17" stroke-width="2" stroke="black"></line><line x1="410" y1="23" x2="405" y2="23" stroke-width="2" stroke="black"></line><line x1="405" y1="17" x2="400" y2="20" stroke-width="2" stroke="black"></line><line x1="405" y1="23" x2="400" y2="20" stroke-width="2" stroke="black"></line><line x1="400" y1="160" x2="395" y2="160" stroke-width="2" stroke="black"></line><line x1="415" y1="160" x2="410" y2="157" stroke-width="2" stroke="black"></line><line x1="415" y1="160" x2="410" y2="163" stroke-width="2" stroke="black"></line><line x1="410" y1="157" x2="405" y2="157" stroke-width="2" stroke="black"></line><line x1="410" y1="163" x2="405" y2="163" stroke-width="2" stroke="black"></line><line x1="405" y1="157" x2="400" y2="160" stroke-width="2" stroke="black"></line><line x1="405" y1="163" x2="400" y2="160" stroke-width="2" stroke="black"></line><line x1="400" y1="140" x2="395" y2="140" stroke-width="2" stroke="black"></line><line x1="415" y1="140" x2="410" y2="137" stroke-width="2" stroke="black"></line><line x1="415" y1="140" x2="410" y2="143" stroke-width="2" stroke="black"></line><line x1="410" y1="137" x2="405" y2="137" stroke-width="2" stroke="black"></line><line x1="410" y1="143" x2="405" y2="143" stroke-width="2" stroke="black"></line><line x1="405" y1="137" x2="400" y2="140" stroke-width="2" stroke="black"></line><line x1="405" y1="143" x2="400" y2="140" stroke-width="2" stroke="black"></line><line x1="620" y1="150" x2="615" y2="150" stroke-width="2" stroke="black"></line><line x1="635" y1="150" x2="630" y2="147" stroke-width="2" stroke="black"></line><line x1="635" y1="150" x2="630" y2="153" stroke-width="2" stroke="black"></line><line x1="630" y1="147" x2="625" y2="147" stroke-width="2" stroke="black"></line><line x1="630" y1="153" x2="625" y2="153" stroke-width="2" stroke="black"></line><line x1="625" y1="147" x2="620" y2="150" stroke-width="2" stroke="black"></line><line x1="625" y1="153" x2="620" y2="150" stroke-width="2" stroke="black"></line><line x1="400" y1="60" x2="395" y2="60" stroke-width="2" stroke="black"></line><line x1="415" y1="60" x2="410" y2="57" stroke-width="2" stroke="black"></line><line x1="415" y1="60" x2="410" y2="63" stroke-width="2" stroke="black"></line><line x1="410" y1="57" x2="405" y2="57" stroke-width="2" stroke="black"></line><line x1="410" y1="63" x2="405" y2="63" stroke-width="2" stroke="black"></line><line x1="405" y1="57" x2="400" y2="60" stroke-width="2" stroke="black"></line><line x1="405" y1="63" x2="400" y2="60" stroke-width="2" stroke="black"></line><line x1="250" y1="130" x2="255" y2="130" stroke-width="2" stroke="black"></line><line x1="235" y1="130" x2="240" y2="127" stroke-width="2" stroke="black"></line><line x1="235" y1="130" x2="240" y2="133" stroke-width="2" stroke="black"></line><line x1="240" y1="127" x2="245" y2="127" stroke-width="2" stroke="black"></line><line x1="240" y1="133" x2="245" y2="133" stroke-width="2" stroke="black"></line><line x1="245" y1="127" x2="250" y2="130" stroke-width="2" stroke="black"></line><line x1="245" y1="133" x2="250" y2="130" stroke-width="2" stroke="black"></line><line x1="622" y1="57" x2="628" y2="63" stroke-width="2" stroke="black"></line><line x1="622" y1="63" x2="628" y2="57" stroke-width="2" stroke="black"></line><line x1="142" y1="117" x2="148" y2="123" stroke-width="2" stroke="black"></line><line x1="142" y1="123" x2="148" y2="117" stroke-width="2" stroke="black"></line><line x1="530" y1="160" x2="535" y2="160" stroke-width="2" stroke="black"></line><line x1="515" y1="160" x2="520" y2="157" stroke-width="2" stroke="black"></line><line x1="515" y1="160" x2="520" y2="163" stroke-width="2" stroke="black"></line><line x1="520" y1="157" x2="525" y2="157" stroke-width="2" stroke="black"></line><line x1="520" y1="163" x2="525" y2="163" stroke-width="2" stroke="black"></line><line x1="525" y1="157" x2="530" y2="160" stroke-width="2" stroke="black"></line><line x1="525" y1="163" x2="530" y2="160" stroke-width="2" stroke="black"></line><line x1="622" y1="157" x2="628" y2="163" stroke-width="2" stroke="black"></line><line x1="622" y1="163" x2="628" y2="157" stroke-width="2" stroke="black"></line><line x1="50" y1="100" x2="55" y2="100" stroke-width="2" stroke="black"></line><line x1="35" y1="100" x2="40" y2="97" stroke-width="2" stroke="black"></line><line x1="35" y1="100" x2="40" y2="103" stroke-width="2" stroke="black"></line><line x1="40" y1="97" x2="45" y2="97" stroke-width="2" stroke="black"></line><line x1="40" y1="103" x2="45" y2="103" stroke-width="2" stroke="black"></line><line x1="45" y1="97" x2="50" y2="100" stroke-width="2" stroke="black"></line><line x1="45" y1="103" x2="50" y2="100" stroke-width="2" stroke="black"></line><line x1="530" y1="30" x2="535" y2="30" stroke-width="2" stroke="black"></line><line x1="515" y1="30" x2="520" y2="27" stroke-width="2" stroke="black"></line><line x1="515" y1="30" x2="520" y2="33" stroke-width="2" stroke="black"></line><line x1="520" y1="27" x2="525" y2="27" stroke-width="2" stroke="black"></line><line x1="520" y1="33" x2="525" y2="33" stroke-width="2" stroke="black"></line><line x1="525" y1="27" x2="530" y2="30" stroke-width="2" stroke="black"></line><line x1="525" y1="33" x2="530" y2="30" stroke-width="2" stroke="black"></line><line x1="142" y1="107" x2="148" y2="113" stroke-width="2" stroke="black"></line><line x1="142" y1="113" x2="148" y2="107" stroke-width="2" stroke="black"></line><line x1="400" y1="40" x2="395" y2="40" stroke-width="2" stroke="black"></line><line x1="415" y1="40" x2="410" y2="37" stroke-width="2" stroke="black"></line><line x1="415" y1="40" x2="410" y2="43" stroke-width="2" stroke="black"></line><line x1="410" y1="37" x2="405" y2="37" stroke-width="2" stroke="black"></line><line x1="410" y1="43" x2="405" y2="43" stroke-width="2" stroke="black"></line><line x1="405" y1="37" x2="400" y2="40" stroke-width="2" stroke="black"></line><line x1="405" y1="43" x2="400" y2="40" stroke-width="2" stroke="black"></line><line x1="250" y1="70" x2="255" y2="70" stroke-width="2" stroke="black"></line><line x1="235" y1="70" x2="240" y2="67" stroke-width="2" stroke="black"></line><line x1="235" y1="70" x2="240" y2="73" stroke-width="2" stroke="black"></line><line x1="240" y1="67" x2="245" y2="67" stroke-width="2" stroke="black"></line><line x1="240" y1="73" x2="245" y2="73" stroke-width="2" stroke="black"></line><line x1="245" y1="67" x2="250" y2="70" stroke-width="2" stroke="black"></line><line x1="245" y1="73" x2="250" y2="70" stroke-width="2" stroke="black"></line><line x1="400" y1="80" x2="395" y2="80" stroke-width="2" stroke="black"></line><line x1="415" y1="80" x2="410" y2="77" stroke-width="2" stroke="black"></line><line x1="415" y1="80" x2="410" y2="83" stroke-width="2" stroke="black"></line><line x1="410" y1="77" x2="405" y2="77" stroke-width="2" stroke="black"></line><line x1="410" y1="83" x2="405" y2="83" stroke-width="2" stroke="black"></line><line x1="405" y1="77" x2="400" y2="80" stroke-width="2" stroke="black"></line><line x1="405" y1="83" x2="400" y2="80" stroke-width="2" stroke="black"></line><line x1="555" y1="170" x2="525" y2="170" stroke-width="2" stroke="black"></line><line x1="525" y1="60" x2="555" y2="60" stroke-width="2" stroke="black"></line><line x1="355" y1="40" x2="395" y2="40" stroke-width="2" stroke="black"></line><line x1="555" y1="150" x2="535" y2="150" stroke-width="2" stroke="black"></line><line x1="535" y1="160" x2="555" y2="160" stroke-width="2" stroke="black"></line><line x1="595" y1="160" x2="625" y2="160" stroke-width="2" stroke="black"></line><line x1="255" y1="170" x2="295" y2="170" stroke-width="2" stroke="black"></line><line x1="355" y1="20" x2="395" y2="20" stroke-width="2" stroke="black"></line><line x1="395" y1="60" x2="355" y2="60" stroke-width="2" stroke="black"></line><line x1="395" y1="80" x2="355" y2="80" stroke-width="2" stroke="black"></line><line x1="255" y1="130" x2="295" y2="130" stroke-width="2" stroke="black"></line><line x1="395" y1="120" x2="355" y2="120" stroke-width="2" stroke="black"></line><line x1="115" y1="120" x2="145" y2="120" stroke-width="2" stroke="black"></line><line x1="535" y1="40" x2="555" y2="40" stroke-width="2" stroke="black"></line><line x1="75" y1="90" x2="55" y2="90" stroke-width="2" stroke="black"></line><line x1="595" y1="30" x2="625" y2="30" stroke-width="2" stroke="black"></line><line x1="355" y1="180" x2="375" y2="180" stroke-width="2" stroke="black"></line><line x1="535" y1="140" x2="555" y2="140" stroke-width="2" stroke="black"></line><line x1="75" y1="120" x2="45" y2="120" stroke-width="2" stroke="black"></line><line x1="595" y1="60" x2="625" y2="60" stroke-width="2" stroke="black"></line><line x1="595" y1="40" x2="615" y2="40" stroke-width="2" stroke="black"></line><line x1="55" y1="100" x2="75" y2="100" stroke-width="2" stroke="black"></line><line x1="615" y1="150" x2="595" y2="150" stroke-width="2" stroke="black"></line><line x1="145" y1="110" x2="115" y2="110" stroke-width="2" stroke="black"></line><line x1="535" y1="30" x2="555" y2="30" stroke-width="2" stroke="black"></line><line x1="255" y1="30" x2="295" y2="30" stroke-width="2" stroke="black"></line><line x1="115" y1="100" x2="135" y2="100" stroke-width="2" stroke="black"></line><line x1="295" y1="70" x2="255" y2="70" stroke-width="2" stroke="black"></line><line x1="625" y1="140" x2="595" y2="140" stroke-width="2" stroke="black"></line><line x1="625" y1="50" x2="595" y2="50" stroke-width="2" stroke="black"></line><line x1="115" y1="90" x2="145" y2="90" stroke-width="2" stroke="black"></line><line x1="395" y1="140" x2="355" y2="140" stroke-width="2" stroke="black"></line><line x1="625" y1="170" x2="595" y2="170" stroke-width="2" stroke="black"></line><line x1="375" y1="160" x2="355" y2="160" stroke-width="2" stroke="black"></line><line x1="375" y1="160" x2="395" y2="160" stroke-width="2" stroke="black"></line><line x1="55" y1="110" x2="75" y2="110" stroke-width="2" stroke="black"></line><line x1="395" y1="180" x2="375" y2="180" stroke-width="2" stroke="black"></line><line x1="555" y1="50" x2="535" y2="50" stroke-width="2" stroke="black"></line></svg>