<?xml version='1.0' encoding='UTF-8' standalone='no'?>
<svg xmlns="http://www.w3.org/2000/svg" width="609" height="301" x="0" y="0"><text x="559" y="149" font-size="10" font-family="sans-serif" text-anchor="start" alignment-baseline="hanging">J3</text><text x="592" y="239" font-size="10" font-family="sans-serif" text-anchor="end" alignment-baseline="hanging">826629-6</text><text x="490" y="121" font-size="10" font-family="sans-serif" text-anchor="start" alignment-baseline="hanging">GND</text><text x="445" y="52" font-size="10" font-family="sans-serif" text-anchor="end" alignment-baseline="middle">RXD</text><text x="70" y="152" font-size="10" font-family="sans-serif" text-anchor="end" alignment-baseline="hanging">SJ1-3553NG</text><text x="205" y="112" font-size="10" font-family="sans-serif" text-anchor="end" alignment-baseline="middle">J1_2</text><text x="205" y="132" font-size="10" font-family="sans-serif" text-anchor="end" alignment-baseline="middle">J1_3</text><text x="205" y="122" font-size="10" font-family="sans-serif" text-anchor="end" alignment-baseline="middle">RXD</text><text x="490" y="281" font-size="10" font-family="sans-serif" text-anchor="start" alignment-baseline="hanging">GND</text><text x="80" y="82" font-size="10" font-family="sans-serif" text-anchor="end" alignment-baseline="hanging">J1</text><text x="20" y="211" font-size="10" font-family="sans-serif" text-anchor="start" alignment-baseline="hanging">GND</text><text x="445" y="202" font-size="10" font-family="sans-serif" text-anchor="end" alignment-baseline="middle">TXD</text><text x="315" y="122" font-size="10" font-family="sans-serif" text-anchor="start" alignment-baseline="middle">TXD</text><text x="444" y="212" font-size="10" font-family="sans-serif" text-anchor="end" alignment-baseline="middle">RXD</text><text x="115" y="122" font-size="10" font-family="sans-serif" text-anchor="start" alignment-baseline="middle">J1_3</text><text x="315" y="112" font-size="10" font-family="sans-serif" text-anchor="start" alignment-baseline="middle">J1_3</text><text x="250" y="92" font-size="10" font-family="sans-serif" text-anchor="start" alignment-baseline="hanging">SW1</text><text x="115" y="102" font-size="10" font-family="sans-serif" text-anchor="start" alignment-baseline="middle">J1_2</text><text x="548" y="10" font-size="10" font-family="sans-serif" text-anchor="start" alignment-baseline="hanging">J2</text><text x="315" y="132" font-size="10" font-family="sans-serif" text-anchor="start" alignment-baseline="middle">J1_2</text><text x="445" y="42" font-size="10" font-family="sans-serif" text-anchor="end" alignment-baseline="middle">TXD</text><text x="510" y="68" font-size="10" font-family="sans-serif" text-anchor="start" alignment-baseline="hanging">GS009S-5.0-03P-1</text><text x="225" y="147" font-size="10" font-family="sans-serif" text-anchor="start" alignment-baseline="hanging">JS202011CQN</text><line x1="225" y1="112" x2="230" y2="112" stroke-width="2" stroke="black"></line><line x1="210" y1="112" x2="215" y2="109" stroke-width="2" stroke="black"></line><line x1="210" y1="112" x2="215" y2="115" stroke-width="2" stroke="black"></line><line x1="215" y1="109" x2="220" y2="109" stroke-width="2" stroke="black"></line><line x1="215" y1="115" x2="220" y2="115" stroke-width="2" stroke="black"></line><line x1="220" y1="109" x2="225" y2="112" stroke-width="2" stroke="black"></line><line x1="220" y1="115" x2="225" y2="112" stroke-width="2" stroke="black"></line><line x1="95" y1="102" x2="90" y2="102" stroke-width="2" stroke="black"></line><line x1="110" y1="102" x2="105" y2="99" stroke-width="2" stroke="black"></line><line x1="110" y1="102" x2="105" y2="105" stroke-width="2" stroke="black"></line><line x1="105" y1="99" x2="100" y2="99" stroke-width="2" stroke="black"></line><line x1="105" y1="105" x2="100" y2="105" stroke-width="2" stroke="black"></line><line x1="100" y1="99" x2="95" y2="102" stroke-width="2" stroke="black"></line><line x1="100" y1="105" x2="95" y2="102" stroke-width="2" stroke="black"></line><line x1="95" y1="122" x2="90" y2="122" stroke-width="2" stroke="black"></line><line x1="110" y1="122" x2="105" y2="119" stroke-width="2" stroke="black"></line><line x1="110" y1="122" x2="105" y2="125" stroke-width="2" stroke="black"></line><line x1="105" y1="119" x2="100" y2="119" stroke-width="2" stroke="black"></line><line x1="105" y1="125" x2="100" y2="125" stroke-width="2" stroke="black"></line><line x1="100" y1="119" x2="95" y2="122" stroke-width="2" stroke="black"></line><line x1="100" y1="125" x2="95" y2="122" stroke-width="2" stroke="black"></line><line x1="500" y1="252" x2="500" y2="262" stroke-width="2" stroke="black"></line><line x1="490" y1="262" x2="510" y2="262" stroke-width="2" stroke="black"></line><line x1="493" y1="267" x2="507" y2="267" stroke-width="2" stroke="black"></line><line x1="496" y1="272" x2="504" y2="272" stroke-width="2" stroke="black"></line><line x1="295" y1="112" x2="290" y2="112" stroke-width="2" stroke="black"></line><line x1="310" y1="112" x2="305" y2="109" stroke-width="2" stroke="black"></line><line x1="310" y1="112" x2="305" y2="115" stroke-width="2" stroke="black"></line><line x1="305" y1="109" x2="300" y2="109" stroke-width="2" stroke="black"></line><line x1="305" y1="115" x2="300" y2="115" stroke-width="2" stroke="black"></line><line x1="300" y1="109" x2="295" y2="112" stroke-width="2" stroke="black"></line><line x1="300" y1="115" x2="295" y2="112" stroke-width="2" stroke="black"></line><line x1="225" y1="122" x2="230" y2="122" stroke-width="2" stroke="black"></line><line x1="220" y1="125" x2="225" y2="122" stroke-width="2" stroke="black"></line><line x1="220" y1="119" x2="225" y2="122" stroke-width="2" stroke="black"></line><line x1="220" y1="125" x2="210" y2="125" stroke-width="2" stroke="black"></line><line x1="220" y1="119" x2="210" y2="119" stroke-width="2" stroke="black"></line><line x1="210" y1="125" x2="210" y2="119" stroke-width="2" stroke="black"></line><line x1="295" y1="122" x2="290" y2="122" stroke-width="2" stroke="black"></line><line x1="310" y1="122" x2="305" y2="119" stroke-width="2" stroke="black"></line><line x1="310" y1="122" x2="305" y2="125" stroke-width="2" stroke="black"></line><line x1="305" y1="119" x2="295" y2="119" stroke-width="2" stroke="black"></line><line x1="305" y1="125" x2="295" y2="125" stroke-width="2" stroke="black"></line><line x1="295" y1="119" x2="295" y2="125" stroke-width="2" stroke="black"></line><line x1="517" y1="189" x2="523" y2="195" stroke-width="2" stroke="black"></line><line x1="517" y1="195" x2="523" y2="189" stroke-width="2" stroke="black"></line><line x1="465" y1="52" x2="470" y2="52" stroke-width="2" stroke="black"></line><line x1="460" y1="49" x2="465" y2="52" stroke-width="2" stroke="black"></line><line x1="460" y1="55" x2="465" y2="52" stroke-width="2" stroke="black"></line><line x1="460" y1="49" x2="450" y2="49" stroke-width="2" stroke="black"></line><line x1="460" y1="55" x2="450" y2="55" stroke-width="2" stroke="black"></line><line x1="450" y1="49" x2="450" y2="55" stroke-width="2" stroke="black"></line><rect width="20" height="70" x="560" y="162" style="stroke: #000; stroke-width: 1; fill: none;"></rect><line x1="550" y1="172" x2="560" y2="172" stroke-width="2" stroke="black"></line><text x="562" y="172" font-size="10" font-family="sans-serif" text-anchor="start" alignment-baseline="middle">1</text><line x1="550" y1="182" x2="560" y2="182" stroke-width="2" stroke="black"></line><text x="562" y="182" font-size="10" font-family="sans-serif" text-anchor="start" alignment-baseline="middle">2</text><line x1="550" y1="192" x2="560" y2="192" stroke-width="2" stroke="black"></line><text x="562" y="192" font-size="10" font-family="sans-serif" text-anchor="start" alignment-baseline="middle">3</text><line x1="550" y1="202" x2="560" y2="202" stroke-width="2" stroke="black"></line><text x="562" y="202" font-size="10" font-family="sans-serif" text-anchor="start" alignment-baseline="middle">4</text><line x1="550" y1="212" x2="560" y2="212" stroke-width="2" stroke="black"></line><text x="562" y="212" font-size="10" font-family="sans-serif" text-anchor="start" alignment-baseline="middle">5</text><line x1="550" y1="222" x2="560" y2="222" stroke-width="2" stroke="black"></line><text x="562" y="222" font-size="10" font-family="sans-serif" text-anchor="start" alignment-baseline="middle">6</text><line x1="465" y1="42" x2="470" y2="42" stroke-width="2" stroke="black"></line><line x1="450" y1="42" x2="455" y2="39" stroke-width="2" stroke="black"></line><line x1="450" y1="42" x2="455" y2="45" stroke-width="2" stroke="black"></line><line x1="455" y1="39" x2="465" y2="39" stroke-width="2" stroke="black"></line><line x1="455" y1="45" x2="465" y2="45" stroke-width="2" stroke="black"></line><line x1="465" y1="39" x2="465" y2="45" stroke-width="2" stroke="black"></line><line x1="465" y1="212" x2="470" y2="212" stroke-width="2" stroke="black"></line><line x1="460" y1="209" x2="465" y2="212" stroke-width="2" stroke="black"></line><line x1="460" y1="215" x2="465" y2="212" stroke-width="2" stroke="black"></line><line x1="460" y1="209" x2="450" y2="209" stroke-width="2" stroke="black"></line><line x1="460" y1="215" x2="450" y2="215" stroke-width="2" stroke="black"></line><line x1="450" y1="209" x2="450" y2="215" stroke-width="2" stroke="black"></line><line x1="30" y1="182" x2="30" y2="192" stroke-width="2" stroke="black"></line><line x1="20" y1="192" x2="40" y2="192" stroke-width="2" stroke="black"></line><line x1="23" y1="197" x2="37" y2="197" stroke-width="2" stroke="black"></line><line x1="26" y1="202" x2="34" y2="202" stroke-width="2" stroke="black"></line><line x1="225" y1="132" x2="230" y2="132" stroke-width="2" stroke="black"></line><line x1="210" y1="132" x2="215" y2="129" stroke-width="2" stroke="black"></line><line x1="210" y1="132" x2="215" y2="135" stroke-width="2" stroke="black"></line><line x1="215" y1="129" x2="220" y2="129" stroke-width="2" stroke="black"></line><line x1="215" y1="135" x2="220" y2="135" stroke-width="2" stroke="black"></line><line x1="220" y1="129" x2="225" y2="132" stroke-width="2" stroke="black"></line><line x1="220" y1="135" x2="225" y2="132" stroke-width="2" stroke="black"></line><rect width="20" height="40" x="250" y="102" style="stroke: #000; stroke-width: 1; fill: none;"></rect><line x1="240" y1="112" x2="250" y2="112" stroke-width="2" stroke="black"></line><text x="252" y="112" font-size="10" font-family="sans-serif" text-anchor="start" alignment-baseline="middle">1</text><line x1="240" y1="122" x2="250" y2="122" stroke-width="2" stroke="black"></line><text x="252" y="122" font-size="10" font-family="sans-serif" text-anchor="start" alignment-baseline="middle">2</text><line x1="240" y1="132" x2="250" y2="132" stroke-width="2" stroke="black"></line><text x="252" y="132" font-size="10" font-family="sans-serif" text-anchor="start" alignment-baseline="middle">3</text><line x1="280" y1="112" x2="270" y2="112" stroke-width="2" stroke="black"></line><text x="268" y="112" font-size="10" font-family="sans-serif" text-anchor="end" alignment-baseline="middle">4</text><line x1="280" y1="122" x2="270" y2="122" stroke-width="2" stroke="black"></line><text x="268" y="122" font-size="10" font-family="sans-serif" text-anchor="end" alignment-baseline="middle">5</text><line x1="280" y1="132" x2="270" y2="132" stroke-width="2" stroke="black"></line><text x="268" y="132" font-size="10" font-family="sans-serif" text-anchor="end" alignment-baseline="middle">6</text><line x1="60" y1="102" x2="57" y2="107" stroke-width="2" stroke="black"></line><line x1="57" y1="107" x2="54" y2="102" stroke-width="2" stroke="black"></line><line x1="53" y1="122" x2="50" y2="117" stroke-width="2" stroke="black"></line><line x1="50" y1="117" x2="47" y2="122" stroke-width="2" stroke="black"></line><line x1="34" y1="102" x2="26" y2="102" stroke-width="2" stroke="black"></line><line x1="34" y1="102" x2="34" y2="122" stroke-width="2" stroke="black"></line><line x1="26" y1="102" x2="26" y2="122" stroke-width="2" stroke="black"></line><line x1="26" y1="122" x2="34" y2="122" stroke-width="2" stroke="black"></line><line x1="70" y1="102" x2="60" y2="102" stroke-width="2" stroke="black"></line><line x1="70" y1="122" x2="53" y2="122" stroke-width="2" stroke="black"></line><line x1="30" y1="122" x2="30" y2="132" stroke-width="2" stroke="black"></line><line x1="500" y1="92" x2="500" y2="102" stroke-width="2" stroke="black"></line><line x1="490" y1="102" x2="510" y2="102" stroke-width="2" stroke="black"></line><line x1="493" y1="107" x2="507" y2="107" stroke-width="2" stroke="black"></line><line x1="496" y1="112" x2="504" y2="112" stroke-width="2" stroke="black"></line><rect width="20" height="40" x="550" y="22" style="stroke: #000; stroke-width: 1; fill: none;"></rect><line x1="540" y1="32" x2="550" y2="32" stroke-width="2" stroke="black"></line><text x="552" y="32" font-size="10" font-family="sans-serif" text-anchor="start" alignment-baseline="middle">1</text><line x1="540" y1="42" x2="550" y2="42" stroke-width="2" stroke="black"></line><text x="552" y="42" font-size="10" font-family="sans-serif" text-anchor="start" alignment-baseline="middle">2</text><line x1="540" y1="52" x2="550" y2="52" stroke-width="2" stroke="black"></line><text x="552" y="52" font-size="10" font-family="sans-serif" text-anchor="start" alignment-baseline="middle">3</text><line x1="465" y1="202" x2="470" y2="202" stroke-width="2" stroke="black"></line><line x1="450" y1="202" x2="455" y2="199" stroke-width="2" stroke="black"></line><line x1="450" y1="202" x2="455" y2="205" stroke-width="2" stroke="black"></line><line x1="455" y1="199" x2="465" y2="199" stroke-width="2" stroke="black"></line><line x1="455" y1="205" x2="465" y2="205" stroke-width="2" stroke="black"></line><line x1="465" y1="199" x2="465" y2="205" stroke-width="2" stroke="black"></line><line x1="295" y1="132" x2="290" y2="132" stroke-width="2" stroke="black"></line><line x1="310" y1="132" x2="305" y2="129" stroke-width="2" stroke="black"></line><line x1="310" y1="132" x2="305" y2="135" stroke-width="2" stroke="black"></line><line x1="305" y1="129" x2="300" y2="129" stroke-width="2" stroke="black"></line><line x1="305" y1="135" x2="300" y2="135" stroke-width="2" stroke="black"></line><line x1="300" y1="129" x2="295" y2="132" stroke-width="2" stroke="black"></line><line x1="300" y1="135" x2="295" y2="132" stroke-width="2" stroke="black"></line><line x1="517" y1="219" x2="523" y2="225" stroke-width="2" stroke="black"></line><line x1="517" y1="225" x2="523" y2="219" stroke-width="2" stroke="black"></line><line x1="517" y1="179" x2="523" y2="185" stroke-width="2" stroke="black"></line><line x1="517" y1="185" x2="523" y2="179" stroke-width="2" stroke="black"></line><line x1="530" y1="182" x2="550" y2="182" stroke-width="2" stroke="black"></line><line x1="550" y1="202" x2="510" y2="202" stroke-width="2" stroke="black"></line><line x1="530" y1="192" x2="520" y2="192" stroke-width="2" stroke="black"></line><line x1="470" y1="42" x2="540" y2="42" stroke-width="2" stroke="black"></line><line x1="500" y1="172" x2="550" y2="172" stroke-width="2" stroke="black"></line><line x1="500" y1="172" x2="500" y2="252" stroke-width="2" stroke="black"></line><line x1="30" y1="162" x2="30" y2="182" stroke-width="2" stroke="black"></line><line x1="30" y1="162" x2="30" y2="132" stroke-width="2" stroke="black"></line><line x1="550" y1="192" x2="530" y2="192" stroke-width="2" stroke="black"></line><line x1="290" y1="122" x2="280" y2="122" stroke-width="2" stroke="black"></line><line x1="500" y1="32" x2="540" y2="32" stroke-width="2" stroke="black"></line><line x1="500" y1="32" x2="500" y2="92" stroke-width="2" stroke="black"></line><line x1="470" y1="202" x2="510" y2="202" stroke-width="2" stroke="black"></line><line x1="230" y1="132" x2="240" y2="132" stroke-width="2" stroke="black"></line><line x1="510" y1="212" x2="550" y2="212" stroke-width="2" stroke="black"></line><line x1="510" y1="212" x2="470" y2="212" stroke-width="2" stroke="black"></line><line x1="470" y1="52" x2="540" y2="52" stroke-width="2" stroke="black"></line><line x1="230" y1="122" x2="240" y2="122" stroke-width="2" stroke="black"></line><line x1="230" y1="112" x2="240" y2="112" stroke-width="2" stroke="black"></line><line x1="550" y1="222" x2="520" y2="222" stroke-width="2" stroke="black"></line><line x1="70" y1="102" x2="90" y2="102" stroke-width="2" stroke="black"></line><line x1="80" y1="122" x2="70" y2="122" stroke-width="2" stroke="black"></line><line x1="290" y1="112" x2="280" y2="112" stroke-width="2" stroke="black"></line><line x1="90" y1="122" x2="80" y2="122" stroke-width="2" stroke="black"></line><line x1="290" y1="132" x2="280" y2="132" stroke-width="2" stroke="black"></line><line x1="520" y1="182" x2="530" y2="182" stroke-width="2" stroke="black"></line></svg>