<?xml version='1.0' encoding='UTF-8' standalone='no'?>
<svg xmlns="http://www.w3.org/2000/svg" width="621" height="301" x="0" y="0"><text x="571" y="149" font-size="10" font-family="sans-serif" text-anchor="start" alignment-baseline="hanging">J3</text><text x="604" y="239" font-size="10" font-family="sans-serif" text-anchor="end" alignment-baseline="hanging">826629-6</text><text x="502" y="121" font-size="10" font-family="sans-serif" text-anchor="start" alignment-baseline="hanging">GND</text><text x="457" y="52" font-size="10" font-family="sans-serif" text-anchor="end" alignment-baseline="middle">RXD</text><text x="217" y="112" font-size="10" font-family="sans-serif" text-anchor="end" alignment-baseline="middle">J1_2</text><text x="217" y="132" font-size="10" font-family="sans-serif" text-anchor="end" alignment-baseline="middle">J1_3</text><text x="217" y="122" font-size="10" font-family="sans-serif" text-anchor="end" alignment-baseline="middle">RXD</text><text x="502" y="281" font-size="10" font-family="sans-serif" text-anchor="start" alignment-baseline="hanging">GND</text><text x="32" y="211" font-size="10" font-family="sans-serif" text-anchor="start" alignment-baseline="hanging">GND</text><text x="457" y="202" font-size="10" font-family="sans-serif" text-anchor="end" alignment-baseline="middle">TXD</text><text x="327" y="122" font-size="10" font-family="sans-serif" text-anchor="start" alignment-baseline="middle">TXD</text><text x="99" y="77" font-size="10" font-family="sans-serif" text-anchor="end" alignment-baseline="hanging">J1</text><text x="456" y="212" font-size="10" font-family="sans-serif" text-anchor="end" alignment-baseline="middle">RXD</text><text x="127" y="122" font-size="10" font-family="sans-serif" text-anchor="start" alignment-baseline="middle">J1_3</text><text x="327" y="112" font-size="10" font-family="sans-serif" text-anchor="start" alignment-baseline="middle">J1_3</text><text x="262" y="92" font-size="10" font-family="sans-serif" text-anchor="start" alignment-baseline="hanging">SW1</text><text x="127" y="102" font-size="10" font-family="sans-serif" text-anchor="start" alignment-baseline="middle">J1_2</text><text x="560" y="10" font-size="10" font-family="sans-serif" text-anchor="start" alignment-baseline="hanging">J2</text><text x="327" y="132" font-size="10" font-family="sans-serif" text-anchor="start" alignment-baseline="middle">J1_2</text><text x="457" y="42" font-size="10" font-family="sans-serif" text-anchor="end" alignment-baseline="middle">TXD</text><text x="522" y="68" font-size="10" font-family="sans-serif" text-anchor="start" alignment-baseline="hanging">GS009S-5.0-03P-1</text><text x="237" y="147" font-size="10" font-family="sans-serif" text-anchor="start" alignment-baseline="hanging">JS202011CQN</text><text x="70" y="81" font-size="10" font-family="sans-serif" text-anchor="end" alignment-baseline="hanging">SJ1-3553NG</text><rect width="20" height="70" x="572" y="162" style="stroke: #000; stroke-width: 1; fill: none;"></rect><line x1="562" y1="172" x2="572" y2="172" stroke-width="2" stroke="black"></line><text x="574" y="172" font-size="10" font-family="sans-serif" text-anchor="start" alignment-baseline="middle">1</text><line x1="562" y1="182" x2="572" y2="182" stroke-width="2" stroke="black"></line><text x="574" y="182" font-size="10" font-family="sans-serif" text-anchor="start" alignment-baseline="middle">2</text><line x1="562" y1="192" x2="572" y2="192" stroke-width="2" stroke="black"></line><text x="574" y="192" font-size="10" font-family="sans-serif" text-anchor="start" alignment-baseline="middle">3</text><line x1="562" y1="202" x2="572" y2="202" stroke-width="2" stroke="black"></line><text x="574" y="202" font-size="10" font-family="sans-serif" text-anchor="start" alignment-baseline="middle">4</text><line x1="562" y1="212" x2="572" y2="212" stroke-width="2" stroke="black"></line><text x="574" y="212" font-size="10" font-family="sans-serif" text-anchor="start" alignment-baseline="middle">5</text><line x1="562" y1="222" x2="572" y2="222" stroke-width="2" stroke="black"></line><text x="574" y="222" font-size="10" font-family="sans-serif" text-anchor="start" alignment-baseline="middle">6</text><line x1="237" y1="132" x2="242" y2="132" stroke-width="2" stroke="black"></line><line x1="222" y1="132" x2="227" y2="129" stroke-width="2" stroke="black"></line><line x1="222" y1="132" x2="227" y2="135" stroke-width="2" stroke="black"></line><line x1="227" y1="129" x2="232" y2="129" stroke-width="2" stroke="black"></line><line x1="227" y1="135" x2="232" y2="135" stroke-width="2" stroke="black"></line><line x1="232" y1="129" x2="237" y2="132" stroke-width="2" stroke="black"></line><line x1="232" y1="135" x2="237" y2="132" stroke-width="2" stroke="black"></line><line x1="307" y1="122" x2="302" y2="122" stroke-width="2" stroke="black"></line><line x1="322" y1="122" x2="317" y2="119" stroke-width="2" stroke="black"></line><line x1="322" y1="122" x2="317" y2="125" stroke-width="2" stroke="black"></line><line x1="317" y1="119" x2="307" y2="119" stroke-width="2" stroke="black"></line><line x1="317" y1="125" x2="307" y2="125" stroke-width="2" stroke="black"></line><line x1="307" y1="119" x2="307" y2="125" stroke-width="2" stroke="black"></line><rect width="20" height="40" x="262" y="102" style="stroke: #000; stroke-width: 1; fill: none;"></rect><line x1="252" y1="112" x2="262" y2="112" stroke-width="2" stroke="black"></line><text x="264" y="112" font-size="10" font-family="sans-serif" text-anchor="start" alignment-baseline="middle">1</text><line x1="252" y1="122" x2="262" y2="122" stroke-width="2" stroke="black"></line><text x="264" y="122" font-size="10" font-family="sans-serif" text-anchor="start" alignment-baseline="middle">2</text><line x1="252" y1="132" x2="262" y2="132" stroke-width="2" stroke="black"></line><text x="264" y="132" font-size="10" font-family="sans-serif" text-anchor="start" alignment-baseline="middle">3</text><line x1="292" y1="112" x2="282" y2="112" stroke-width="2" stroke="black"></line><text x="280" y="112" font-size="10" font-family="sans-serif" text-anchor="end" alignment-baseline="middle">4</text><line x1="292" y1="122" x2="282" y2="122" stroke-width="2" stroke="black"></line><text x="280" y="122" font-size="10" font-family="sans-serif" text-anchor="end" alignment-baseline="middle">5</text><line x1="292" y1="132" x2="282" y2="132" stroke-width="2" stroke="black"></line><text x="280" y="132" font-size="10" font-family="sans-serif" text-anchor="end" alignment-baseline="middle">6</text><line x1="307" y1="132" x2="302" y2="132" stroke-width="2" stroke="black"></line><line x1="322" y1="132" x2="317" y2="129" stroke-width="2" stroke="black"></line><line x1="322" y1="132" x2="317" y2="135" stroke-width="2" stroke="black"></line><line x1="317" y1="129" x2="312" y2="129" stroke-width="2" stroke="black"></line><line x1="317" y1="135" x2="312" y2="135" stroke-width="2" stroke="black"></line><line x1="312" y1="129" x2="307" y2="132" stroke-width="2" stroke="black"></line><line x1="312" y1="135" x2="307" y2="132" stroke-width="2" stroke="black"></line><line x1="529" y1="219" x2="535" y2="225" stroke-width="2" stroke="black"></line><line x1="529" y1="225" x2="535" y2="219" stroke-width="2" stroke="black"></line><line x1="529" y1="189" x2="535" y2="195" stroke-width="2" stroke="black"></line><line x1="529" y1="195" x2="535" y2="189" stroke-width="2" stroke="black"></line><line x1="107" y1="102" x2="102" y2="102" stroke-width="2" stroke="black"></line><line x1="122" y1="102" x2="117" y2="99" stroke-width="2" stroke="black"></line><line x1="122" y1="102" x2="117" y2="105" stroke-width="2" stroke="black"></line><line x1="117" y1="99" x2="112" y2="99" stroke-width="2" stroke="black"></line><line x1="117" y1="105" x2="112" y2="105" stroke-width="2" stroke="black"></line><line x1="112" y1="99" x2="107" y2="102" stroke-width="2" stroke="black"></line><line x1="112" y1="105" x2="107" y2="102" stroke-width="2" stroke="black"></line><line x1="107" y1="122" x2="102" y2="122" stroke-width="2" stroke="black"></line><line x1="122" y1="122" x2="117" y2="119" stroke-width="2" stroke="black"></line><line x1="122" y1="122" x2="117" y2="125" stroke-width="2" stroke="black"></line><line x1="117" y1="119" x2="112" y2="119" stroke-width="2" stroke="black"></line><line x1="117" y1="125" x2="112" y2="125" stroke-width="2" stroke="black"></line><line x1="112" y1="119" x2="107" y2="122" stroke-width="2" stroke="black"></line><line x1="112" y1="125" x2="107" y2="122" stroke-width="2" stroke="black"></line><line x1="512" y1="92" x2="512" y2="102" stroke-width="2" stroke="black"></line><line x1="502" y1="102" x2="522" y2="102" stroke-width="2" stroke="black"></line><line x1="505" y1="107" x2="519" y2="107" stroke-width="2" stroke="black"></line><line x1="508" y1="112" x2="516" y2="112" stroke-width="2" stroke="black"></line><line x1="477" y1="52" x2="482" y2="52" stroke-width="2" stroke="black"></line><line x1="472" y1="49" x2="477" y2="52" stroke-width="2" stroke="black"></line><line x1="472" y1="55" x2="477" y2="52" stroke-width="2" stroke="black"></line><line x1="472" y1="49" x2="462" y2="49" stroke-width="2" stroke="black"></line><line x1="472" y1="55" x2="462" y2="55" stroke-width="2" stroke="black"></line><line x1="462" y1="49" x2="462" y2="55" stroke-width="2" stroke="black"></line><rect width="20" height="40" x="562" y="22" style="stroke: #000; stroke-width: 1; fill: none;"></rect><line x1="552" y1="32" x2="562" y2="32" stroke-width="2" stroke="black"></line><text x="564" y="32" font-size="10" font-family="sans-serif" text-anchor="start" alignment-baseline="middle">1</text><line x1="552" y1="42" x2="562" y2="42" stroke-width="2" stroke="black"></line><text x="564" y="42" font-size="10" font-family="sans-serif" text-anchor="start" alignment-baseline="middle">2</text><line x1="552" y1="52" x2="562" y2="52" stroke-width="2" stroke="black"></line><text x="564" y="52" font-size="10" font-family="sans-serif" text-anchor="start" alignment-baseline="middle">3</text><line x1="307" y1="112" x2="302" y2="112" stroke-width="2" stroke="black"></line><line x1="322" y1="112" x2="317" y2="109" stroke-width="2" stroke="black"></line><line x1="322" y1="112" x2="317" y2="115" stroke-width="2" stroke="black"></line><line x1="317" y1="109" x2="312" y2="109" stroke-width="2" stroke="black"></line><line x1="317" y1="115" x2="312" y2="115" stroke-width="2" stroke="black"></line><line x1="312" y1="109" x2="307" y2="112" stroke-width="2" stroke="black"></line><line x1="312" y1="115" x2="307" y2="112" stroke-width="2" stroke="black"></line><line x1="237" y1="122" x2="242" y2="122" stroke-width="2" stroke="black"></line><line x1="232" y1="125" x2="237" y2="122" stroke-width="2" stroke="black"></line><line x1="232" y1="119" x2="237" y2="122" stroke-width="2" stroke="black"></line><line x1="232" y1="125" x2="222" y2="125" stroke-width="2" stroke="black"></line><line x1="232" y1="119" x2="222" y2="119" stroke-width="2" stroke="black"></line><line x1="222" y1="125" x2="222" y2="119" stroke-width="2" stroke="black"></line><line x1="512" y1="252" x2="512" y2="262" stroke-width="2" stroke="black"></line><line x1="502" y1="262" x2="522" y2="262" stroke-width="2" stroke="black"></line><line x1="505" y1="267" x2="519" y2="267" stroke-width="2" stroke="black"></line><line x1="508" y1="272" x2="516" y2="272" stroke-width="2" stroke="black"></line><line x1="477" y1="42" x2="482" y2="42" stroke-width="2" stroke="black"></line><line x1="462" y1="42" x2="467" y2="39" stroke-width="2" stroke="black"></line><line x1="462" y1="42" x2="467" y2="45" stroke-width="2" stroke="black"></line><line x1="467" y1="39" x2="477" y2="39" stroke-width="2" stroke="black"></line><line x1="467" y1="45" x2="477" y2="45" stroke-width="2" stroke="black"></line><line x1="477" y1="39" x2="477" y2="45" stroke-width="2" stroke="black"></line><line x1="237" y1="112" x2="242" y2="112" stroke-width="2" stroke="black"></line><line x1="222" y1="112" x2="227" y2="109" stroke-width="2" stroke="black"></line><line x1="222" y1="112" x2="227" y2="115" stroke-width="2" stroke="black"></line><line x1="227" y1="109" x2="232" y2="109" stroke-width="2" stroke="black"></line><line x1="227" y1="115" x2="232" y2="115" stroke-width="2" stroke="black"></line><line x1="232" y1="109" x2="237" y2="112" stroke-width="2" stroke="black"></line><line x1="232" y1="115" x2="237" y2="112" stroke-width="2" stroke="black"></line><line x1="477" y1="202" x2="482" y2="202" stroke-width="2" stroke="black"></line><line x1="462" y1="202" x2="467" y2="199" stroke-width="2" stroke="black"></line><line x1="462" y1="202" x2="467" y2="205" stroke-width="2" stroke="black"></line><line x1="467" y1="199" x2="477" y2="199" stroke-width="2" stroke="black"></line><line x1="467" y1="205" x2="477" y2="205" stroke-width="2" stroke="black"></line><line x1="477" y1="199" x2="477" y2="205" stroke-width="2" stroke="black"></line><line x1="477" y1="212" x2="482" y2="212" stroke-width="2" stroke="black"></line><line x1="472" y1="209" x2="477" y2="212" stroke-width="2" stroke="black"></line><line x1="472" y1="215" x2="477" y2="212" stroke-width="2" stroke="black"></line><line x1="472" y1="209" x2="462" y2="209" stroke-width="2" stroke="black"></line><line x1="472" y1="215" x2="462" y2="215" stroke-width="2" stroke="black"></line><line x1="462" y1="209" x2="462" y2="215" stroke-width="2" stroke="black"></line><line x1="72" y1="102" x2="69" y2="107" stroke-width="2" stroke="black"></line><line x1="69" y1="107" x2="66" y2="102" stroke-width="2" stroke="black"></line><line x1="65" y1="122" x2="62" y2="117" stroke-width="2" stroke="black"></line><line x1="62" y1="117" x2="59" y2="122" stroke-width="2" stroke="black"></line><line x1="46" y1="102" x2="38" y2="102" stroke-width="2" stroke="black"></line><line x1="46" y1="102" x2="46" y2="122" stroke-width="2" stroke="black"></line><line x1="38" y1="102" x2="38" y2="122" stroke-width="2" stroke="black"></line><line x1="38" y1="122" x2="46" y2="122" stroke-width="2" stroke="black"></line><line x1="82" y1="102" x2="72" y2="102" stroke-width="2" stroke="black"></line><line x1="82" y1="122" x2="65" y2="122" stroke-width="2" stroke="black"></line><line x1="42" y1="122" x2="42" y2="132" stroke-width="2" stroke="black"></line><line x1="42" y1="182" x2="42" y2="192" stroke-width="2" stroke="black"></line><line x1="32" y1="192" x2="52" y2="192" stroke-width="2" stroke="black"></line><line x1="35" y1="197" x2="49" y2="197" stroke-width="2" stroke="black"></line><line x1="38" y1="202" x2="46" y2="202" stroke-width="2" stroke="black"></line><line x1="529" y1="179" x2="535" y2="185" stroke-width="2" stroke="black"></line><line x1="529" y1="185" x2="535" y2="179" stroke-width="2" stroke="black"></line><line x1="522" y1="202" x2="562" y2="202" stroke-width="2" stroke="black"></line><line x1="522" y1="202" x2="482" y2="202" stroke-width="2" stroke="black"></line><line x1="542" y1="182" x2="562" y2="182" stroke-width="2" stroke="black"></line><line x1="542" y1="182" x2="532" y2="182" stroke-width="2" stroke="black"></line><line x1="522" y1="212" x2="562" y2="212" stroke-width="2" stroke="black"></line><line x1="522" y1="212" x2="482" y2="212" stroke-width="2" stroke="black"></line><line x1="512" y1="172" x2="562" y2="172" stroke-width="2" stroke="black"></line><line x1="512" y1="172" x2="512" y2="252" stroke-width="2" stroke="black"></line><line x1="542" y1="192" x2="562" y2="192" stroke-width="2" stroke="black"></line><line x1="542" y1="192" x2="532" y2="192" stroke-width="2" stroke="black"></line><line x1="532" y1="222" x2="562" y2="222" stroke-width="2" stroke="black"></line><line x1="482" y1="42" x2="552" y2="42" stroke-width="2" stroke="black"></line><line x1="552" y1="52" x2="482" y2="52" stroke-width="2" stroke="black"></line><line x1="302" y1="122" x2="292" y2="122" stroke-width="2" stroke="black"></line><line x1="512" y1="32" x2="552" y2="32" stroke-width="2" stroke="black"></line><line x1="512" y1="32" x2="512" y2="92" stroke-width="2" stroke="black"></line><line x1="242" y1="132" x2="252" y2="132" stroke-width="2" stroke="black"></line><line x1="42" y1="182" x2="42" y2="132" stroke-width="2" stroke="black"></line><line x1="242" y1="122" x2="252" y2="122" stroke-width="2" stroke="black"></line><line x1="242" y1="112" x2="252" y2="112" stroke-width="2" stroke="black"></line><line x1="82" y1="102" x2="102" y2="102" stroke-width="2" stroke="black"></line><line x1="302" y1="112" x2="292" y2="112" stroke-width="2" stroke="black"></line><line x1="102" y1="122" x2="82" y2="122" stroke-width="2" stroke="black"></line><line x1="302" y1="132" x2="292" y2="132" stroke-width="2" stroke="black"></line></svg>