<?xml version="1.0" encoding="utf-8" ?>
<svg baseProfile="tiny" height="98.369288934" version="1.2" width="140.888972934" xmlns="http://www.w3.org/2000/svg" xmlns:ev="http://www.w3.org/2001/xml-events" xmlns:xlink="http://www.w3.org/1999/xlink"><defs /><g id="paths" stroke="green"><path d="M 4.893306967,93.475981967 L 135.995665967,93.475981967 L 135.995665967,4.893306967 L 4.893306967,4.893306967 L 4.893306967,93.475981967 Z" fill-opacity="0" stroke-linejoin="round" stroke-width="1.0" /></g><g fill="red" id="top_parts" stroke="red"><line stroke-linecap="round" stroke-width="0.5" x1="81.3457" x2="48.9134" y1="49.9819" y2="49.9819" /><line stroke-linecap="round" stroke-width="0.5" x1="48.9134" x2="48.9134" y1="49.9819" y2="12.9543" /><line stroke-linecap="round" stroke-width="0.5" x1="48.9134" x2="81.3457" y1="12.9543" y2="12.9543" /><line stroke-linecap="round" stroke-width="0.5" x1="81.3457" x2="81.3457" y1="12.9543" y2="49.9819" /><text font-family="monospace" font-size="2" stroke-width="0.1" text-anchor="middle" x="65.1295224237" y="31.468109467">U1</text><line stroke-linecap="round" stroke-width="0.5" x1="7.2198" x2="41.5431" y1="11.413" y2="11.413" /><line stroke-linecap="round" stroke-width="0.5" x1="41.5431" x2="41.5431" y1="11.413" y2="86.9563" /><line stroke-linecap="round" stroke-width="0.5" x1="41.5431" x2="7.2198" y1="86.9563" y2="86.9563" /><line stroke-linecap="round" stroke-width="0.5" x1="7.2198" x2="7.2198" y1="86.9563" y2="11.413" /><text font-family="monospace" font-size="2" stroke-width="0.1" text-anchor="middle" x="24.381495467" y="49.184644467">J1</text><line stroke-linecap="round" stroke-width="0.5" x1="95.9917" x2="115.7634" y1="21.2988" y2="21.2988" /><line stroke-linecap="round" stroke-width="0.5" x1="115.7634" x2="115.7634" y1="21.2988" y2="77.0705" /><line stroke-linecap="round" stroke-width="0.5" x1="115.7634" x2="95.9917" y1="77.0705" y2="77.0705" /><line stroke-linecap="round" stroke-width="0.5" x1="95.9917" x2="95.9917" y1="77.0705" y2="21.2988" /><text font-family="monospace" font-size="2" stroke-width="0.1" text-anchor="middle" x="105.877556467" y="49.1846480103">J2</text><line stroke-linecap="round" stroke-width="0.5" x1="81.3457" x2="48.9134" y1="88.9583" y2="88.9583" /><line stroke-linecap="round" stroke-width="0.5" x1="48.9134" x2="48.9134" y1="88.9583" y2="51.9307" /><line stroke-linecap="round" stroke-width="0.5" x1="48.9134" x2="81.3457" y1="51.9307" y2="51.9307" /><line stroke-linecap="round" stroke-width="0.5" x1="81.3457" x2="81.3457" y1="51.9307" y2="88.9583" /><text font-family="monospace" font-size="2" stroke-width="0.1" text-anchor="middle" x="65.1295224237" y="70.444486467">U2</text></g><g fill="blue" id="bottom_parts" stroke="blue"><line stroke-linecap="round" stroke-width="0.5" x1="25.6571" x2="25.6571" y1="25.2319" y2="12.9012" /><line stroke-linecap="round" stroke-width="0.5" x1="25.6571" x2="19.5626" y1="12.9012" y2="12.9012" /><line stroke-linecap="round" stroke-width="0.5" x1="19.5626" x2="19.5626" y1="12.9012" y2="25.2319" /><line stroke-linecap="round" stroke-width="0.5" x1="19.5626" x2="25.6571" y1="25.2319" y2="25.2319" /><text font-family="monospace" font-size="2" stroke-width="0.1" text-anchor="middle" x="22.609841967" y="19.066534967">L1</text><line stroke-linecap="round" stroke-width="0.5" x1="27.039" x2="27.039" y1="13.7149" y2="24.4182" /><line stroke-linecap="round" stroke-width="0.5" x1="27.039" x2="32.3539" y1="24.4182" y2="24.4182" /><line stroke-linecap="round" stroke-width="0.5" x1="32.3539" x2="32.3539" y1="24.4182" y2="13.7149" /><line stroke-linecap="round" stroke-width="0.5" x1="32.3539" x2="27.039" y1="13.7149" y2="13.7149" /><text font-family="monospace" font-size="2" stroke-width="0.1" text-anchor="middle" x="29.696455967" y="19.066534967">C2</text><line stroke-linecap="round" stroke-width="0.5" x1="39.4406" x2="39.4406" y1="24.4182" y2="13.7149" /><line stroke-linecap="round" stroke-width="0.5" x1="39.4406" x2="34.1256" y1="13.7149" y2="13.7149" /><line stroke-linecap="round" stroke-width="0.5" x1="34.1256" x2="34.1256" y1="13.7149" y2="24.4182" /><line stroke-linecap="round" stroke-width="0.5" x1="34.1256" x2="39.4406" y1="24.4182" y2="24.4182" /><text font-family="monospace" font-size="2" stroke-width="0.1" text-anchor="middle" x="36.783069967" y="19.066534967">C3</text><line stroke-linecap="round" stroke-width="0.5" x1="12.8657" x2="12.8657" y1="13.7149" y2="24.4182" /><line stroke-linecap="round" stroke-width="0.5" x1="12.8657" x2="18.1807" y1="24.4182" y2="24.4182" /><line stroke-linecap="round" stroke-width="0.5" x1="18.1807" x2="18.1807" y1="24.4182" y2="13.7149" /><line stroke-linecap="round" stroke-width="0.5" x1="18.1807" x2="12.8657" y1="13.7149" y2="13.7149" /><text font-family="monospace" font-size="2" stroke-width="0.1" text-anchor="middle" x="15.523227967" y="19.066534967">C1</text><line stroke-linecap="round" stroke-width="0.5" x1="62.472" x2="62.472" y1="65.0928" y2="75.7961" /><line stroke-linecap="round" stroke-width="0.5" x1="62.472" x2="67.787" y1="75.7961" y2="75.7961" /><line stroke-linecap="round" stroke-width="0.5" x1="67.787" x2="67.787" y1="75.7961" y2="65.0928" /><line stroke-linecap="round" stroke-width="0.5" x1="67.787" x2="62.472" y1="65.0928" y2="65.0928" /><text font-family="monospace" font-size="2" stroke-width="0.1" text-anchor="middle" x="65.129525967" y="70.444486467">C5</text><line stroke-linecap="round" stroke-width="0.5" x1="62.472" x2="62.472" y1="26.1165" y2="36.8198" /><line stroke-linecap="round" stroke-width="0.5" x1="62.472" x2="67.787" y1="36.8198" y2="36.8198" /><line stroke-linecap="round" stroke-width="0.5" x1="67.787" x2="67.787" y1="36.8198" y2="26.1165" /><line stroke-linecap="round" stroke-width="0.5" x1="67.787" x2="62.472" y1="26.1165" y2="26.1165" /><text font-family="monospace" font-size="2" stroke-width="0.1" text-anchor="middle" x="65.129525967" y="31.468109467">C4</text></g></svg>