<?xml version="1.0" encoding="utf-8" ?>
<svg baseProfile="tiny" height="115.834249467" version="1.2" width="218.082279967" xmlns="http://www.w3.org/2000/svg" xmlns:ev="http://www.w3.org/2001/xml-events" xmlns:xlink="http://www.w3.org/1999/xlink"><defs /><g id="paths" stroke="blue"><path d="M 4.893306967,93.475981967 L 135.995665967,93.475981967 L 135.995665967,4.893306967 L 4.893306967,4.893306967 L 4.893306967,93.475981967 Z" fill-opacity="0" stroke-linejoin="round" stroke-width="1.0" /></g><g fill="red" id="holes"><circle cx="61.5862" cy="50.9563" r="0.45" stroke-width="0.0" /><circle cx="94.8933" cy="31.0654" r="0.45" stroke-width="0.0" /><circle cx="87.8067" cy="67.7386" r="0.45" stroke-width="0.0" /><circle cx="91.1728" cy="37.226" r="0.45" stroke-width="0.0" /><circle cx="89.5783" cy="76.2024" r="0.45" stroke-width="0.0" /><circle cx="93.1217" cy="53.6846" r="0.45" stroke-width="0.0" /><circle cx="42.8067" cy="44.5783" r="0.45" stroke-width="0.0" /><circle cx="36.7831" cy="90.8185" r="0.45" stroke-width="0.0" /><circle cx="54.4996" cy="50.9563" r="0.45" stroke-width="0.0" /><circle cx="50.9563" cy="50.9563" r="0.45" stroke-width="0.0" /><circle cx="86.035" cy="72.039" r="0.45" stroke-width="0.0" /><circle cx="65.1295" cy="21.1039" r="0.45" stroke-width="0.0" /><circle cx="65.1295" cy="86.1638" r="0.45" stroke-width="0.0" /><circle cx="83.4661" cy="35.6846" r="0.45" stroke-width="0.0" /><circle cx="71.5961" cy="78.5055" r="0.45" stroke-width="0.0" /><circle cx="58.0429" cy="90.8185" r="0.45" stroke-width="0.0" /><circle cx="59.1945" cy="66.9898" r="0.45" stroke-width="0.0" /><circle cx="43.8697" cy="90.8185" r="0.45" stroke-width="0.0" /><circle cx="79.3028" cy="50.9563" r="0.45" stroke-width="0.0" /><circle cx="45.0213" cy="18.8008" r="0.45" stroke-width="0.0" /><circle cx="35.1709" cy="55.474" r="0.45" stroke-width="0.0" /><circle cx="12.7949" cy="31.1846" r="0.45" stroke-width="0.0" /><circle cx="29.6965" cy="90.8185" r="0.45" stroke-width="0.0" /><circle cx="65.1295" cy="90.8185" r="0.45" stroke-width="0.0" /><circle cx="79.3028" cy="90.8185" r="0.45" stroke-width="0.0" /><circle cx="87.8067" cy="41.8323" r="0.45" stroke-width="0.0" /><circle cx="45.0213" cy="35.6315" r="0.45" stroke-width="0.0" /><circle cx="50.9563" cy="90.8185" r="0.45" stroke-width="0.0" /><circle cx="72.2161" cy="90.8185" r="0.45" stroke-width="0.0" /><circle cx="72.039" cy="39.5291" r="0.45" stroke-width="0.0" /><circle cx="125.3657" cy="15.5232" r="5.6693" stroke-width="0.0" /><circle cx="59.1945" cy="28.0134" r="0.45" stroke-width="0.0" /><circle cx="65.1295" cy="60.0803" r="0.45" stroke-width="0.0" /><circle cx="86.3894" cy="90.8185" r="0.45" stroke-width="0.0" /><circle cx="35.9681" cy="31.1846" r="0.45" stroke-width="0.0" /><circle cx="93.476" cy="90.8185" r="0.45" stroke-width="0.0" /><circle cx="86.035" cy="80.8087" r="0.45" stroke-width="0.0" /><circle cx="65.1295" cy="46.4386" r="0.45" stroke-width="0.0" /><circle cx="87.8067" cy="28.0134" r="0.45" stroke-width="0.0" /><circle cx="89.5783" cy="62.6846" r="0.45" stroke-width="0.0" /><circle cx="45.0213" cy="40.1846" r="0.45" stroke-width="0.0" /><circle cx="65.1295" cy="50.9563" r="0.45" stroke-width="0.0" /><circle cx="83.4661" cy="62.3835" r="0.45" stroke-width="0.0" /><circle cx="15.5232" cy="90.8185" r="0.45" stroke-width="0.0" /><circle cx="93.1217" cy="85.415" r="0.45" stroke-width="0.0" /><circle cx="75.7594" cy="50.9563" r="0.45" stroke-width="0.0" /><circle cx="8.4366" cy="90.8185" r="0.45" stroke-width="0.0" /><circle cx="125.3657" cy="82.8461" r="5.6693" stroke-width="0.0" /><circle cx="22.6098" cy="90.8185" r="0.45" stroke-width="0.0" /><circle cx="91.35" cy="57.7772" r="0.45" stroke-width="0.0" /><circle cx="107.6492" cy="90.8185" r="0.45" stroke-width="0.0" /><circle cx="68.6728" cy="50.9563" r="0.45" stroke-width="0.0" /><circle cx="94.8933" cy="23.4071" r="0.45" stroke-width="0.0" /><circle cx="72.2161" cy="50.9563" r="0.45" stroke-width="0.0" /><circle cx="45.0213" cy="57.7772" r="0.45" stroke-width="0.0" /><circle cx="42.8067" cy="16.5343" r="0.45" stroke-width="0.0" /><circle cx="15.5232" cy="82.8461" r="5.6693" stroke-width="0.0" /><circle cx="100.5626" cy="90.8185" r="0.45" stroke-width="0.0" /><circle cx="19.8815" cy="31.1846" r="1.8602" stroke-width="0.0" /><circle cx="19.8815" cy="40.1846" r="1.8602" stroke-width="0.0" /><circle cx="19.8815" cy="49.1846" r="1.8602" stroke-width="0.0" /><circle cx="19.8815" cy="58.1846" r="1.8602" stroke-width="0.0" /><circle cx="19.8815" cy="67.1846" r="1.8602" stroke-width="0.0" /><circle cx="28.8815" cy="31.1846" r="1.8602" stroke-width="0.0" /><circle cx="28.8815" cy="40.1846" r="1.8602" stroke-width="0.0" /><circle cx="28.8815" cy="49.1846" r="1.8602" stroke-width="0.0" /><circle cx="28.8815" cy="58.1846" r="1.8602" stroke-width="0.0" /><circle cx="28.8815" cy="67.1846" r="1.8602" stroke-width="0.0" /><circle cx="110.3776" cy="26.6846" r="1.9488" stroke-width="0.0" /><circle cx="110.3776" cy="35.6846" r="1.9488" stroke-width="0.0" /><circle cx="110.3776" cy="44.6846" r="1.9488" stroke-width="0.0" /><circle cx="110.3776" cy="53.6846" r="1.9488" stroke-width="0.0" /><circle cx="110.3776" cy="62.6846" r="1.9488" stroke-width="0.0" /><circle cx="110.3776" cy="71.6846" r="1.9488" stroke-width="0.0" /><circle cx="101.3776" cy="44.6846" r="1.9488" stroke-width="0.0" /><circle cx="101.3776" cy="35.6846" r="1.9488" stroke-width="0.0" /><circle cx="101.3776" cy="26.6846" r="1.9488" stroke-width="0.0" /><circle cx="101.3776" cy="71.6846" r="1.9488" stroke-width="0.0" /><circle cx="101.3776" cy="62.6846" r="1.9488" stroke-width="0.0" /><circle cx="101.3776" cy="53.6846" r="1.9488" stroke-width="0.0" /></g><g id="rulers" stroke="black"><line stroke-width="1.0" x1="144.8539" x2="144.8539" y1="93.476" y2="82.8461" /><text font-family="monospace" font-size="5" stroke-width="0.3" x="149.853933467" y="88.161021467">3.0000mm</text><text font-family="monospace" font-size="5" stroke-width="0.3" x="149.853933467" y="94.161021467">(Δy=3.0000mm)</text><line stroke-width="1.0" x1="4.8933" x2="15.5232" y1="102.3342" y2="102.3342" /><text font-family="monospace" font-size="5" stroke-width="0.3" x="10.208267467" y="107.334249467">3.0000mm</text><text font-family="monospace" font-size="5" stroke-width="0.3" x="10.208267467" y="113.334249467">(Δx=3.0000mm)</text><line stroke-width="1.0" x1="143.0823" x2="143.0823" y1="82.8461" y2="15.5232" /><text font-family="monospace" font-size="5" stroke-width="0.3" x="148.082279967" y="49.184644467">19.0000mm</text><text font-family="monospace" font-size="5" stroke-width="0.3" x="148.082279967" y="55.184644467">(Δy=19.0000mm)</text><line stroke-width="1.0" x1="135.9957" x2="125.3657" y1="102.3342" y2="102.3342" /><text font-family="monospace" font-size="5" stroke-width="0.3" x="130.680705467" y="97.334249467">3.0000mm</text><text font-family="monospace" font-size="5" stroke-width="0.3" x="130.680705467" y="103.334249467">(Δx=3.0000mm)</text><line stroke-width="1.0" x1="15.5232" x2="125.3657" y1="100.5626" y2="100.5626" /><text font-family="monospace" font-size="5" stroke-width="0.3" x="70.444486467" y="105.562595967">31.0000mm</text><text font-family="monospace" font-size="5" stroke-width="0.3" x="70.444486467" y="111.562595967">(Δx=31.0000mm)</text><line stroke-width="1.0" x1="144.8539" x2="144.8539" y1="15.5232" y2="4.8933" /><text font-family="monospace" font-size="5" stroke-width="0.3" x="149.853933467" y="10.208267467">3.0000mm</text><text font-family="monospace" font-size="5" stroke-width="0.3" x="149.853933467" y="16.208267467">(Δy=3.0000mm)</text></g></svg>