<?xml version='1.0' encoding='UTF-8' standalone='no'?>
<svg xmlns="http://www.w3.org/2000/svg" width="969" height="1115" x="0" y="0"><text x="350" y="210" font-size="10" font-family="sans-serif" text-anchor="middle" alignment-baseline="middle">D1-</text><text x="340" y="850" font-size="10" font-family="sans-serif" text-anchor="middle" alignment-baseline="middle">D2+</text><text x="795" y="230" font-size="10" font-family="sans-serif" text-anchor="middle" alignment-baseline="middle" transform="rotate(270 795 230)">U1-CTS</text><text x="785" y="220" font-size="10" font-family="sans-serif" text-anchor="middle" alignment-baseline="middle" transform="rotate(270 785 220)">U1-RTS</text><text x="725" y="860" font-size="10" font-family="sans-serif" text-anchor="middle" alignment-baseline="middle">U2-CTS</text><text x="820" y="840" font-size="10" font-family="sans-serif" text-anchor="middle" alignment-baseline="middle">U2-RTS</text><text x="720" y="830" font-size="10" font-family="sans-serif" text-anchor="middle" alignment-baseline="middle">U2-RXD</text><text x="210" y="265" font-size="10" font-family="sans-serif" text-anchor="start" alignment-baseline="hanging">USB 2.0/1.1 header</text><text x="130" y="471" font-size="10" font-family="sans-serif" text-anchor="start" alignment-baseline="hanging">L1</text><text x="480" y="985" font-size="10" font-family="sans-serif" text-anchor="start" alignment-baseline="hanging">GND</text><text x="204" y="555" font-size="10" font-family="sans-serif" text-anchor="start" alignment-baseline="hanging">100nF</text><text x="519" y="10" font-size="10" font-family="sans-serif" text-anchor="start" alignment-baseline="hanging">U1-3V3-OUT</text><text x="787" y="724" font-size="10" font-family="sans-serif" text-anchor="start" alignment-baseline="hanging">C5</text><text x="230" y="185" font-size="10" font-family="sans-serif" text-anchor="start" alignment-baseline="hanging">J1-1</text><text x="750" y="797" font-size="10" font-family="sans-serif" text-anchor="start" alignment-baseline="hanging">GND</text><text x="101" y="556" font-size="10" font-family="sans serif" text-anchor="start" alignment-baseline="hanging">C1</text><text x="690" y="1095" font-size="10" font-family="sans-serif" text-anchor="start" alignment-baseline="hanging">GND</text><text x="250" y="617" font-size="10" font-family="sans-serif" text-anchor="start" alignment-baseline="hanging">GND</text><text x="480" y="15" font-size="10" font-family="sans-serif" text-anchor="start" alignment-baseline="hanging">VCC</text><text x="309" y="321" font-size="10" font-family="sans-serif" text-anchor="start" alignment-baseline="hanging">GND</text><text x="880" y="795" font-size="10" font-family="sans-serif" text-anchor="start" alignment-baseline="hanging">J2B</text><text x="10" y="445" font-size="10" font-family="sans-serif" text-anchor="start" alignment-baseline="hanging">Vusb</text><text x="281" y="556" font-size="10" font-family="sans serif" text-anchor="start" alignment-baseline="hanging">C3</text><text x="830" y="745" font-size="10" font-family="sans-serif" text-anchor="start" alignment-baseline="hanging">VCC</text><text x="480" y="655" font-size="10" font-family="sans-serif" text-anchor="start" alignment-baseline="hanging">VCC</text><text x="305" y="552" font-size="10" font-family="sans serif" text-anchor="end" alignment-baseline="hanging">4.7uF</text><text x="750" y="167" font-size="10" font-family="sans-serif" text-anchor="start" alignment-baseline="hanging">GND</text><text x="310" y="445" font-size="10" font-family="sans-serif" text-anchor="start" alignment-baseline="hanging">VCC</text><text x="99" y="486" font-size="10" font-family="sans-serif" text-anchor="start" alignment-baseline="hanging">MI0805K400R-10</text><text x="519" y="650" font-size="10" font-family="sans-serif" text-anchor="start" alignment-baseline="hanging">U2-3V3-OUT</text><text x="679" y="20" font-size="10" font-family="sans-serif" text-anchor="start" alignment-baseline="hanging">U1-3V3-OUT</text><text x="900" y="255" font-size="10" font-family="sans-serif" text-anchor="start" alignment-baseline="hanging">FTDI header</text><text x="669" y="650" font-size="10" font-family="sans-serif" text-anchor="start" alignment-baseline="hanging">U2-3V3-OUT</text><text x="220" y="815" font-size="10" font-family="sans-serif" text-anchor="start" alignment-baseline="hanging">J1-2</text><text x="910" y="165" font-size="10" font-family="sans-serif" text-anchor="start" alignment-baseline="hanging">J2A</text><text x="310" y="125" font-size="10" font-family="sans-serif" text-anchor="start" alignment-baseline="hanging">Vusb</text><text x="690" y="465" font-size="10" font-family="sans-serif" text-anchor="start" alignment-baseline="hanging">GND</text><text x="480" y="355" font-size="10" font-family="sans-serif" text-anchor="start" alignment-baseline="hanging">GND</text><text x="860" y="314" font-size="10" font-family="sans-serif" text-anchor="start" alignment-baseline="hanging">GND</text><text x="570" y="153" font-size="10" font-family="sans-serif" text-anchor="start" alignment-baseline="hanging">U1</text><text x="860" y="105" font-size="10" font-family="sans-serif" text-anchor="start" alignment-baseline="hanging">VCC</text><text x="69" y="615" font-size="10" font-family="sans-serif" text-anchor="start" alignment-baseline="hanging">GND</text><text x="179" y="615" font-size="10" font-family="sans-serif" text-anchor="start" alignment-baseline="hanging">GND</text><text x="593" y="414" font-size="10" font-family="sans-serif" text-anchor="start" alignment-baseline="hanging">FT232RL</text><text x="593" y="1044" font-size="10" font-family="sans-serif" text-anchor="start" alignment-baseline="hanging">FT232RL</text><text x="309" y="951" font-size="10" font-family="sans-serif" text-anchor="start" alignment-baseline="hanging">GND</text><text x="121" y="552" font-size="10" font-family="sans serif" text-anchor="end" alignment-baseline="hanging">10nF</text><text x="208" y="543" font-size="10" font-family="sans-serif" text-anchor="start" alignment-baseline="hanging">C2</text><text x="570" y="783" font-size="10" font-family="sans-serif" text-anchor="start" alignment-baseline="hanging">U2</text><text x="830" y="944" font-size="10" font-family="sans-serif" text-anchor="start" alignment-baseline="hanging">GND</text><text x="779" y="738" font-size="10" font-family="sans-serif" text-anchor="start" alignment-baseline="hanging">100nF</text><text x="779" y="108" font-size="10" font-family="sans-serif" text-anchor="start" alignment-baseline="hanging">100nF</text><text x="870" y="885" font-size="10" font-family="sans-serif" text-anchor="start" alignment-baseline="hanging">FTDI header</text><text x="787" y="94" font-size="10" font-family="sans-serif" text-anchor="start" alignment-baseline="hanging">C4</text><text x="310" y="755" font-size="10" font-family="sans-serif" text-anchor="start" alignment-baseline="hanging">Vusb</text><text x="200" y="895" font-size="10" font-family="sans-serif" text-anchor="start" alignment-baseline="hanging">USB 2.0/1.1 header</text><path d="M70,562 C 75,556 85,556 90,562" style="stroke: #000; stroke-width: 1; fill: none;"></path><line x1="70" y1="550" x2="90" y2="550" stroke-width="2" stroke="black"></line><line x1="80" y1="565" x2="80" y2="558" stroke-width="2" stroke="black"></line><line x1="80" y1="550" x2="80" y2="545" stroke-width="2" stroke="black"></line><line x1="697" y1="332" x2="703" y2="338" stroke-width="2" stroke="black"></line><line x1="697" y1="338" x2="703" y2="332" stroke-width="2" stroke="black"></line><line x1="527" y1="932" x2="533" y2="938" stroke-width="2" stroke="black"></line><line x1="527" y1="938" x2="533" y2="932" stroke-width="2" stroke="black"></line><line x1="200" y1="550" x2="180" y2="550" stroke-width="2" stroke="black"></line><line x1="200" y1="560" x2="180" y2="560" stroke-width="2" stroke="black"></line><line x1="190" y1="545" x2="190" y2="550" stroke-width="2" stroke="black"></line><line x1="190" y1="560" x2="190" y2="565" stroke-width="2" stroke="black"></line><line x1="527" y1="1022" x2="533" y2="1028" stroke-width="2" stroke="black"></line><line x1="527" y1="1028" x2="533" y2="1022" stroke-width="2" stroke="black"></line><line x1="320" y1="785" x2="320" y2="765" stroke-width="2" stroke="black"></line><line x1="320" y1="765" x2="313" y2="772" stroke-width="2" stroke="black"></line><line x1="320" y1="765" x2="327" y2="772" stroke-width="2" stroke="black"></line><line x1="760" y1="135" x2="760" y2="145" stroke-width="2" stroke="black"></line><line x1="750" y1="145" x2="770" y2="145" stroke-width="2" stroke="black"></line><line x1="753" y1="150" x2="767" y2="150" stroke-width="2" stroke="black"></line><line x1="756" y1="155" x2="764" y2="155" stroke-width="2" stroke="black"></line><line x1="190" y1="585" x2="190" y2="595" stroke-width="2" stroke="black"></line><line x1="180" y1="595" x2="200" y2="595" stroke-width="2" stroke="black"></line><line x1="183" y1="600" x2="197" y2="600" stroke-width="2" stroke="black"></line><line x1="186" y1="605" x2="194" y2="605" stroke-width="2" stroke="black"></line><rect width="40" height="60" x="220" y="825" style="stroke: #000; stroke-width: 1; fill: none;"></rect><line x1="270" y1="855" x2="260" y2="855" stroke-width="2" stroke="black"></line><text x="258" y="855" font-size="10" font-family="sans-serif" text-anchor="end" alignment-baseline="middle">D2+</text><line x1="270" y1="845" x2="260" y2="845" stroke-width="2" stroke="black"></line><text x="258" y="845" font-size="10" font-family="sans-serif" text-anchor="end" alignment-baseline="middle">D2-</text><line x1="270" y1="875" x2="260" y2="875" stroke-width="2" stroke="black"></line><text x="258" y="875" font-size="10" font-family="sans-serif" text-anchor="end" alignment-baseline="middle">GND</text><line x1="270" y1="865" x2="260" y2="865" stroke-width="2" stroke="black"></line><text x="258" y="865" font-size="10" font-family="sans-serif" text-anchor="end" alignment-baseline="middle">SHIELD</text><line x1="270" y1="835" x2="260" y2="835" stroke-width="2" stroke="black"></line><text x="258" y="835" font-size="10" font-family="sans-serif" text-anchor="end" alignment-baseline="middle">VBUS</text><line x1="697" y1="872" x2="703" y2="878" stroke-width="2" stroke="black"></line><line x1="697" y1="878" x2="703" y2="872" stroke-width="2" stroke="black"></line><line x1="320" y1="925" x2="320" y2="935" stroke-width="2" stroke="black"></line><line x1="310" y1="935" x2="330" y2="935" stroke-width="2" stroke="black"></line><line x1="313" y1="940" x2="327" y2="940" stroke-width="2" stroke="black"></line><line x1="316" y1="945" x2="324" y2="945" stroke-width="2" stroke="black"></line><line x1="710" y1="55" x2="710" y2="35" stroke-width="2" stroke="black"></line><line x1="710" y1="35" x2="703" y2="42" stroke-width="2" stroke="black"></line><line x1="710" y1="35" x2="717" y2="42" stroke-width="2" stroke="black"></line><path d="M 125 515 A 5 5 0 1 0 115 515" style="stroke: #000; stroke-width: 1; fill: none;"></path><path d="M 135 515 A 5 5 0 1 0 125 515" style="stroke: #000; stroke-width: 1; fill: none;"></path><path d="M 145 515 A 5 5 0 1 0 135 515" style="stroke: #000; stroke-width: 1; fill: none;"></path><path d="M 155 515 A 5 5 0 1 0 145 515" style="stroke: #000; stroke-width: 1; fill: none;"></path><line x1="110" y1="515" x2="115" y2="515" stroke-width="2" stroke="black"></line><line x1="155" y1="515" x2="160" y2="515" stroke-width="2" stroke="black"></line><line x1="320" y1="475" x2="320" y2="455" stroke-width="2" stroke="black"></line><line x1="320" y1="455" x2="313" y2="462" stroke-width="2" stroke="black"></line><line x1="320" y1="455" x2="327" y2="462" stroke-width="2" stroke="black"></line><line x1="320" y1="155" x2="320" y2="135" stroke-width="2" stroke="black"></line><line x1="320" y1="135" x2="313" y2="142" stroke-width="2" stroke="black"></line><line x1="320" y1="135" x2="327" y2="142" stroke-width="2" stroke="black"></line><line x1="697" y1="902" x2="703" y2="908" stroke-width="2" stroke="black"></line><line x1="697" y1="908" x2="703" y2="902" stroke-width="2" stroke="black"></line><line x1="560" y1="895" x2="570" y2="895" stroke-width="2" stroke="black"></line><line x1="670" y1="1025" x2="660" y2="1025" stroke-width="2" stroke="black"></line><line x1="670" y1="925" x2="660" y2="925" stroke-width="2" stroke="black"></line><line x1="670" y1="935" x2="660" y2="935" stroke-width="2" stroke="black"></line><line x1="670" y1="995" x2="660" y2="995" stroke-width="2" stroke="black"></line><line x1="670" y1="1005" x2="660" y2="1005" stroke-width="2" stroke="black"></line><line x1="670" y1="955" x2="660" y2="955" stroke-width="2" stroke="black"></line><line x1="670" y1="945" x2="660" y2="945" stroke-width="2" stroke="black"></line><line x1="670" y1="965" x2="660" y2="965" stroke-width="2" stroke="black"></line><line x1="670" y1="865" x2="660" y2="865" stroke-width="2" stroke="black"></line><line x1="670" y1="895" x2="660" y2="895" stroke-width="2" stroke="black"></line><line x1="670" y1="885" x2="660" y2="885" stroke-width="2" stroke="black"></line><line x1="670" y1="1015" x2="660" y2="1015" stroke-width="2" stroke="black"></line><line x1="670" y1="905" x2="660" y2="905" stroke-width="2" stroke="black"></line><line x1="670" y1="835" x2="660" y2="835" stroke-width="2" stroke="black"></line><line x1="670" y1="855" x2="660" y2="855" stroke-width="2" stroke="black"></line><line x1="670" y1="875" x2="660" y2="875" stroke-width="2" stroke="black"></line><line x1="670" y1="825" x2="660" y2="825" stroke-width="2" stroke="black"></line><rect width="90" height="240" x="570" y="795" style="stroke: #000; stroke-width: 1; fill: none;"></rect><text x="655" y="825" font-size="10" font-family="sans-serif" text-anchor="end" alignment-baseline="middle">TXD</text><text x="655" y="875" font-size="10" font-family="sans-serif" text-anchor="end" alignment-baseline="middle">DTRn</text><text x="655" y="855" font-size="10" font-family="sans-serif" text-anchor="end" alignment-baseline="middle">RTSn</text><line x1="560" y1="805" x2="570" y2="805" stroke-width="2" stroke="black"></line><text x="575" y="805" font-size="10" font-family="sans-serif" text-anchor="start" alignment-baseline="middle">VCCIO</text><text x="655" y="835" font-size="10" font-family="sans-serif" text-anchor="end" alignment-baseline="middle">RXD</text><text x="655" y="905" font-size="10" font-family="sans-serif" text-anchor="end" alignment-baseline="middle">RIn</text><text x="655" y="1015" font-size="10" font-family="sans-serif" text-anchor="end" alignment-baseline="middle">GND</text><line x1="560" y1="1015" x2="570" y2="1015" stroke-width="2" stroke="black"></line><text x="575" y="1015" font-size="10" font-family="sans-serif" text-anchor="start" alignment-baseline="middle">NC</text><text x="655" y="885" font-size="10" font-family="sans-serif" text-anchor="end" alignment-baseline="middle">DSRn</text><text x="655" y="895" font-size="10" font-family="sans-serif" text-anchor="end" alignment-baseline="middle">DCDn</text><text x="655" y="865" font-size="10" font-family="sans-serif" text-anchor="end" alignment-baseline="middle">CTSn</text><text x="655" y="965" font-size="10" font-family="sans-serif" text-anchor="end" alignment-baseline="middle">CBUS4</text><text x="655" y="945" font-size="10" font-family="sans-serif" text-anchor="end" alignment-baseline="middle">CBUS2</text><text x="655" y="955" font-size="10" font-family="sans-serif" text-anchor="end" alignment-baseline="middle">CBUS3</text><line x1="560" y1="855" x2="570" y2="855" stroke-width="2" stroke="black"></line><text x="575" y="855" font-size="10" font-family="sans-serif" text-anchor="start" alignment-baseline="middle">USBDP</text><line x1="560" y1="845" x2="570" y2="845" stroke-width="2" stroke="black"></line><text x="575" y="845" font-size="10" font-family="sans-serif" text-anchor="start" alignment-baseline="middle">USBDM</text><line x1="670" y1="805" x2="660" y2="805" stroke-width="2" stroke="black"></line><text x="655" y="805" font-size="10" font-family="sans-serif" text-anchor="end" alignment-baseline="middle">3V3OUT</text><text x="655" y="1005" font-size="10" font-family="sans-serif" text-anchor="end" alignment-baseline="middle">GND</text><line x1="560" y1="885" x2="570" y2="885" stroke-width="2" stroke="black"></line><text x="575" y="885" font-size="10" font-family="sans-serif" text-anchor="start" alignment-baseline="middle">RESETn</text><line x1="560" y1="815" x2="570" y2="815" stroke-width="2" stroke="black"></line><text x="575" y="815" font-size="10" font-family="sans-serif" text-anchor="start" alignment-baseline="middle">VCC</text><text x="655" y="995" font-size="10" font-family="sans-serif" text-anchor="end" alignment-baseline="middle">GND</text><text x="655" y="935" font-size="10" font-family="sans-serif" text-anchor="end" alignment-baseline="middle">CBUS1</text><text x="655" y="925" font-size="10" font-family="sans-serif" text-anchor="end" alignment-baseline="middle">CBUS0</text><line x1="560" y1="1025" x2="570" y2="1025" stroke-width="2" stroke="black"></line><text x="575" y="1025" font-size="10" font-family="sans-serif" text-anchor="start" alignment-baseline="middle">NC</text><text x="655" y="1025" font-size="10" font-family="sans-serif" text-anchor="end" alignment-baseline="middle">AGND</text><text x="575" y="895" font-size="10" font-family="sans-serif" text-anchor="start" alignment-baseline="middle">TEST</text><line x1="560" y1="925" x2="570" y2="925" stroke-width="2" stroke="black"></line><text x="575" y="925" font-size="10" font-family="sans-serif" text-anchor="start" alignment-baseline="middle">OSCI</text><line x1="560" y1="935" x2="570" y2="935" stroke-width="2" stroke="black"></line><text x="575" y="935" font-size="10" font-family="sans-serif" text-anchor="start" alignment-baseline="middle">OSCO</text><line x1="697" y1="262" x2="703" y2="268" stroke-width="2" stroke="black"></line><line x1="697" y1="268" x2="703" y2="262" stroke-width="2" stroke="black"></line><line x1="527" y1="382" x2="533" y2="388" stroke-width="2" stroke="black"></line><line x1="527" y1="388" x2="533" y2="382" stroke-width="2" stroke="black"></line><line x1="527" y1="1012" x2="533" y2="1018" stroke-width="2" stroke="black"></line><line x1="527" y1="1018" x2="533" y2="1012" stroke-width="2" stroke="black"></line><line x1="20" y1="475" x2="20" y2="455" stroke-width="2" stroke="black"></line><line x1="20" y1="455" x2="13" y2="462" stroke-width="2" stroke="black"></line><line x1="20" y1="455" x2="27" y2="462" stroke-width="2" stroke="black"></line><rect width="40" height="70" x="880" y="805" style="stroke: #000; stroke-width: 1; fill: none;"></rect><line x1="870" y1="855" x2="880" y2="855" stroke-width="2" stroke="black"></line><text x="882" y="855" font-size="10" font-family="sans-serif" text-anchor="start" alignment-baseline="middle">CTS</text><line x1="870" y1="865" x2="880" y2="865" stroke-width="2" stroke="black"></line><text x="882" y="865" font-size="10" font-family="sans-serif" text-anchor="start" alignment-baseline="middle">GND</text><line x1="870" y1="845" x2="880" y2="845" stroke-width="2" stroke="black"></line><text x="882" y="845" font-size="10" font-family="sans-serif" text-anchor="start" alignment-baseline="middle">RTS</text><line x1="870" y1="835" x2="880" y2="835" stroke-width="2" stroke="black"></line><text x="882" y="835" font-size="10" font-family="sans-serif" text-anchor="start" alignment-baseline="middle">RXD</text><line x1="870" y1="825" x2="880" y2="825" stroke-width="2" stroke="black"></line><text x="882" y="825" font-size="10" font-family="sans-serif" text-anchor="start" alignment-baseline="middle">TXD</text><line x1="870" y1="815" x2="880" y2="815" stroke-width="2" stroke="black"></line><text x="882" y="815" font-size="10" font-family="sans-serif" text-anchor="start" alignment-baseline="middle">VCC</text><line x1="697" y1="952" x2="703" y2="958" stroke-width="2" stroke="black"></line><line x1="697" y1="958" x2="703" y2="952" stroke-width="2" stroke="black"></line><line x1="320" y1="295" x2="320" y2="305" stroke-width="2" stroke="black"></line><line x1="310" y1="305" x2="330" y2="305" stroke-width="2" stroke="black"></line><line x1="313" y1="310" x2="327" y2="310" stroke-width="2" stroke="black"></line><line x1="316" y1="315" x2="324" y2="315" stroke-width="2" stroke="black"></line><line x1="700" y1="1065" x2="700" y2="1075" stroke-width="2" stroke="black"></line><line x1="690" y1="1075" x2="710" y2="1075" stroke-width="2" stroke="black"></line><line x1="693" y1="1080" x2="707" y2="1080" stroke-width="2" stroke="black"></line><line x1="696" y1="1085" x2="704" y2="1085" stroke-width="2" stroke="black"></line><line x1="697" y1="272" x2="703" y2="278" stroke-width="2" stroke="black"></line><line x1="697" y1="278" x2="703" y2="272" stroke-width="2" stroke="black"></line><line x1="560" y1="265" x2="570" y2="265" stroke-width="2" stroke="black"></line><line x1="670" y1="395" x2="660" y2="395" stroke-width="2" stroke="black"></line><line x1="670" y1="295" x2="660" y2="295" stroke-width="2" stroke="black"></line><line x1="670" y1="305" x2="660" y2="305" stroke-width="2" stroke="black"></line><line x1="670" y1="365" x2="660" y2="365" stroke-width="2" stroke="black"></line><line x1="670" y1="375" x2="660" y2="375" stroke-width="2" stroke="black"></line><line x1="670" y1="325" x2="660" y2="325" stroke-width="2" stroke="black"></line><line x1="670" y1="315" x2="660" y2="315" stroke-width="2" stroke="black"></line><line x1="670" y1="335" x2="660" y2="335" stroke-width="2" stroke="black"></line><line x1="670" y1="235" x2="660" y2="235" stroke-width="2" stroke="black"></line><line x1="670" y1="265" x2="660" y2="265" stroke-width="2" stroke="black"></line><line x1="670" y1="255" x2="660" y2="255" stroke-width="2" stroke="black"></line><line x1="670" y1="385" x2="660" y2="385" stroke-width="2" stroke="black"></line><line x1="670" y1="275" x2="660" y2="275" stroke-width="2" stroke="black"></line><line x1="670" y1="205" x2="660" y2="205" stroke-width="2" stroke="black"></line><line x1="670" y1="225" x2="660" y2="225" stroke-width="2" stroke="black"></line><line x1="670" y1="245" x2="660" y2="245" stroke-width="2" stroke="black"></line><line x1="670" y1="195" x2="660" y2="195" stroke-width="2" stroke="black"></line><rect width="90" height="240" x="570" y="165" style="stroke: #000; stroke-width: 1; fill: none;"></rect><text x="655" y="195" font-size="10" font-family="sans-serif" text-anchor="end" alignment-baseline="middle">TXD</text><text x="655" y="245" font-size="10" font-family="sans-serif" text-anchor="end" alignment-baseline="middle">DTRn</text><text x="655" y="225" font-size="10" font-family="sans-serif" text-anchor="end" alignment-baseline="middle">RTSn</text><line x1="560" y1="175" x2="570" y2="175" stroke-width="2" stroke="black"></line><text x="575" y="175" font-size="10" font-family="sans-serif" text-anchor="start" alignment-baseline="middle">VCCIO</text><text x="655" y="205" font-size="10" font-family="sans-serif" text-anchor="end" alignment-baseline="middle">RXD</text><text x="655" y="275" font-size="10" font-family="sans-serif" text-anchor="end" alignment-baseline="middle">RIn</text><text x="655" y="385" font-size="10" font-family="sans-serif" text-anchor="end" alignment-baseline="middle">GND</text><line x1="560" y1="385" x2="570" y2="385" stroke-width="2" stroke="black"></line><text x="575" y="385" font-size="10" font-family="sans-serif" text-anchor="start" alignment-baseline="middle">NC</text><text x="655" y="255" font-size="10" font-family="sans-serif" text-anchor="end" alignment-baseline="middle">DSRn</text><text x="655" y="265" font-size="10" font-family="sans-serif" text-anchor="end" alignment-baseline="middle">DCDn</text><text x="655" y="235" font-size="10" font-family="sans-serif" text-anchor="end" alignment-baseline="middle">CTSn</text><text x="655" y="335" font-size="10" font-family="sans-serif" text-anchor="end" alignment-baseline="middle">CBUS4</text><text x="655" y="315" font-size="10" font-family="sans-serif" text-anchor="end" alignment-baseline="middle">CBUS2</text><text x="655" y="325" font-size="10" font-family="sans-serif" text-anchor="end" alignment-baseline="middle">CBUS3</text><line x1="560" y1="225" x2="570" y2="225" stroke-width="2" stroke="black"></line><text x="575" y="225" font-size="10" font-family="sans-serif" text-anchor="start" alignment-baseline="middle">USBDP</text><line x1="560" y1="215" x2="570" y2="215" stroke-width="2" stroke="black"></line><text x="575" y="215" font-size="10" font-family="sans-serif" text-anchor="start" alignment-baseline="middle">USBDM</text><line x1="670" y1="175" x2="660" y2="175" stroke-width="2" stroke="black"></line><text x="655" y="175" font-size="10" font-family="sans-serif" text-anchor="end" alignment-baseline="middle">3V3OUT</text><text x="655" y="375" font-size="10" font-family="sans-serif" text-anchor="end" alignment-baseline="middle">GND</text><line x1="560" y1="255" x2="570" y2="255" stroke-width="2" stroke="black"></line><text x="575" y="255" font-size="10" font-family="sans-serif" text-anchor="start" alignment-baseline="middle">RESETn</text><line x1="560" y1="185" x2="570" y2="185" stroke-width="2" stroke="black"></line><text x="575" y="185" font-size="10" font-family="sans-serif" text-anchor="start" alignment-baseline="middle">VCC</text><text x="655" y="365" font-size="10" font-family="sans-serif" text-anchor="end" alignment-baseline="middle">GND</text><text x="655" y="305" font-size="10" font-family="sans-serif" text-anchor="end" alignment-baseline="middle">CBUS1</text><text x="655" y="295" font-size="10" font-family="sans-serif" text-anchor="end" alignment-baseline="middle">CBUS0</text><line x1="560" y1="395" x2="570" y2="395" stroke-width="2" stroke="black"></line><text x="575" y="395" font-size="10" font-family="sans-serif" text-anchor="start" alignment-baseline="middle">NC</text><text x="655" y="395" font-size="10" font-family="sans-serif" text-anchor="end" alignment-baseline="middle">AGND</text><text x="575" y="265" font-size="10" font-family="sans-serif" text-anchor="start" alignment-baseline="middle">TEST</text><line x1="560" y1="295" x2="570" y2="295" stroke-width="2" stroke="black"></line><text x="575" y="295" font-size="10" font-family="sans-serif" text-anchor="start" alignment-baseline="middle">OSCI</text><line x1="560" y1="305" x2="570" y2="305" stroke-width="2" stroke="black"></line><text x="575" y="305" font-size="10" font-family="sans-serif" text-anchor="start" alignment-baseline="middle">OSCO</text><line x1="490" y1="685" x2="490" y2="665" stroke-width="2" stroke="black"></line><line x1="490" y1="665" x2="483" y2="672" stroke-width="2" stroke="black"></line><line x1="490" y1="665" x2="497" y2="672" stroke-width="2" stroke="black"></line><line x1="260" y1="585" x2="260" y2="595" stroke-width="2" stroke="black"></line><line x1="250" y1="595" x2="270" y2="595" stroke-width="2" stroke="black"></line><line x1="253" y1="600" x2="267" y2="600" stroke-width="2" stroke="black"></line><line x1="256" y1="605" x2="264" y2="605" stroke-width="2" stroke="black"></line><line x1="527" y1="882" x2="533" y2="888" stroke-width="2" stroke="black"></line><line x1="527" y1="888" x2="533" y2="882" stroke-width="2" stroke="black"></line><line x1="697" y1="242" x2="703" y2="248" stroke-width="2" stroke="black"></line><line x1="697" y1="248" x2="703" y2="242" stroke-width="2" stroke="black"></line><line x1="770" y1="730" x2="750" y2="730" stroke-width="2" stroke="black"></line><line x1="770" y1="740" x2="750" y2="740" stroke-width="2" stroke="black"></line><line x1="760" y1="725" x2="760" y2="730" stroke-width="2" stroke="black"></line><line x1="760" y1="740" x2="760" y2="745" stroke-width="2" stroke="black"></line><line x1="870" y1="135" x2="870" y2="115" stroke-width="2" stroke="black"></line><line x1="870" y1="115" x2="863" y2="122" stroke-width="2" stroke="black"></line><line x1="870" y1="115" x2="877" y2="122" stroke-width="2" stroke="black"></line><line x1="697" y1="292" x2="703" y2="298" stroke-width="2" stroke="black"></line><line x1="697" y1="298" x2="703" y2="292" stroke-width="2" stroke="black"></line><line x1="550" y1="45" x2="550" y2="25" stroke-width="2" stroke="black"></line><line x1="550" y1="25" x2="543" y2="32" stroke-width="2" stroke="black"></line><line x1="550" y1="25" x2="557" y2="32" stroke-width="2" stroke="black"></line><line x1="760" y1="765" x2="760" y2="775" stroke-width="2" stroke="black"></line><line x1="750" y1="775" x2="770" y2="775" stroke-width="2" stroke="black"></line><line x1="753" y1="780" x2="767" y2="780" stroke-width="2" stroke="black"></line><line x1="756" y1="785" x2="764" y2="785" stroke-width="2" stroke="black"></line><line x1="770" y1="100" x2="750" y2="100" stroke-width="2" stroke="black"></line><line x1="770" y1="110" x2="750" y2="110" stroke-width="2" stroke="black"></line><line x1="760" y1="95" x2="760" y2="100" stroke-width="2" stroke="black"></line><line x1="760" y1="110" x2="760" y2="115" stroke-width="2" stroke="black"></line><path d="M250,562 C 255,556 265,556 270,562" style="stroke: #000; stroke-width: 1; fill: none;"></path><line x1="250" y1="550" x2="270" y2="550" stroke-width="2" stroke="black"></line><line x1="260" y1="565" x2="260" y2="558" stroke-width="2" stroke="black"></line><line x1="260" y1="550" x2="260" y2="545" stroke-width="2" stroke="black"></line><line x1="550" y1="685" x2="550" y2="665" stroke-width="2" stroke="black"></line><line x1="550" y1="665" x2="543" y2="672" stroke-width="2" stroke="black"></line><line x1="550" y1="665" x2="557" y2="672" stroke-width="2" stroke="black"></line><rect width="40" height="70" x="910" y="175" style="stroke: #000; stroke-width: 1; fill: none;"></rect><line x1="900" y1="225" x2="910" y2="225" stroke-width="2" stroke="black"></line><text x="912" y="225" font-size="10" font-family="sans-serif" text-anchor="start" alignment-baseline="middle">CTS</text><line x1="900" y1="235" x2="910" y2="235" stroke-width="2" stroke="black"></line><text x="912" y="235" font-size="10" font-family="sans-serif" text-anchor="start" alignment-baseline="middle">GND</text><line x1="900" y1="215" x2="910" y2="215" stroke-width="2" stroke="black"></line><text x="912" y="215" font-size="10" font-family="sans-serif" text-anchor="start" alignment-baseline="middle">RTS</text><line x1="900" y1="205" x2="910" y2="205" stroke-width="2" stroke="black"></line><text x="912" y="205" font-size="10" font-family="sans-serif" text-anchor="start" alignment-baseline="middle">RXD</text><line x1="900" y1="195" x2="910" y2="195" stroke-width="2" stroke="black"></line><text x="912" y="195" font-size="10" font-family="sans-serif" text-anchor="start" alignment-baseline="middle">TXD</text><line x1="900" y1="185" x2="910" y2="185" stroke-width="2" stroke="black"></line><text x="912" y="185" font-size="10" font-family="sans-serif" text-anchor="start" alignment-baseline="middle">VCC</text><line x1="527" y1="252" x2="533" y2="258" stroke-width="2" stroke="black"></line><line x1="527" y1="258" x2="533" y2="252" stroke-width="2" stroke="black"></line><line x1="527" y1="922" x2="533" y2="928" stroke-width="2" stroke="black"></line><line x1="527" y1="928" x2="533" y2="922" stroke-width="2" stroke="black"></line><line x1="697" y1="962" x2="703" y2="968" stroke-width="2" stroke="black"></line><line x1="697" y1="968" x2="703" y2="962" stroke-width="2" stroke="black"></line><line x1="870" y1="285" x2="870" y2="295" stroke-width="2" stroke="black"></line><line x1="860" y1="295" x2="880" y2="295" stroke-width="2" stroke="black"></line><line x1="863" y1="300" x2="877" y2="300" stroke-width="2" stroke="black"></line><line x1="866" y1="305" x2="874" y2="305" stroke-width="2" stroke="black"></line><line x1="527" y1="302" x2="533" y2="308" stroke-width="2" stroke="black"></line><line x1="527" y1="308" x2="533" y2="302" stroke-width="2" stroke="black"></line><line x1="527" y1="392" x2="533" y2="398" stroke-width="2" stroke="black"></line><line x1="527" y1="398" x2="533" y2="392" stroke-width="2" stroke="black"></line><line x1="840" y1="915" x2="840" y2="925" stroke-width="2" stroke="black"></line><line x1="830" y1="925" x2="850" y2="925" stroke-width="2" stroke="black"></line><line x1="833" y1="930" x2="847" y2="930" stroke-width="2" stroke="black"></line><line x1="836" y1="935" x2="844" y2="935" stroke-width="2" stroke="black"></line><line x1="697" y1="252" x2="703" y2="258" stroke-width="2" stroke="black"></line><line x1="697" y1="258" x2="703" y2="252" stroke-width="2" stroke="black"></line><line x1="697" y1="312" x2="703" y2="318" stroke-width="2" stroke="black"></line><line x1="697" y1="318" x2="703" y2="312" stroke-width="2" stroke="black"></line><line x1="700" y1="435" x2="700" y2="445" stroke-width="2" stroke="black"></line><line x1="690" y1="445" x2="710" y2="445" stroke-width="2" stroke="black"></line><line x1="693" y1="450" x2="707" y2="450" stroke-width="2" stroke="black"></line><line x1="696" y1="455" x2="704" y2="455" stroke-width="2" stroke="black"></line><line x1="697" y1="882" x2="703" y2="888" stroke-width="2" stroke="black"></line><line x1="697" y1="888" x2="703" y2="882" stroke-width="2" stroke="black"></line><line x1="697" y1="302" x2="703" y2="308" stroke-width="2" stroke="black"></line><line x1="697" y1="308" x2="703" y2="302" stroke-width="2" stroke="black"></line><line x1="697" y1="892" x2="703" y2="898" stroke-width="2" stroke="black"></line><line x1="697" y1="898" x2="703" y2="892" stroke-width="2" stroke="black"></line><line x1="697" y1="922" x2="703" y2="928" stroke-width="2" stroke="black"></line><line x1="697" y1="928" x2="703" y2="922" stroke-width="2" stroke="black"></line><line x1="490" y1="45" x2="490" y2="25" stroke-width="2" stroke="black"></line><line x1="490" y1="25" x2="483" y2="32" stroke-width="2" stroke="black"></line><line x1="490" y1="25" x2="497" y2="32" stroke-width="2" stroke="black"></line><line x1="697" y1="942" x2="703" y2="948" stroke-width="2" stroke="black"></line><line x1="697" y1="948" x2="703" y2="942" stroke-width="2" stroke="black"></line><line x1="527" y1="292" x2="533" y2="298" stroke-width="2" stroke="black"></line><line x1="527" y1="298" x2="533" y2="292" stroke-width="2" stroke="black"></line><line x1="697" y1="932" x2="703" y2="938" stroke-width="2" stroke="black"></line><line x1="697" y1="938" x2="703" y2="932" stroke-width="2" stroke="black"></line><line x1="490" y1="955" x2="490" y2="965" stroke-width="2" stroke="black"></line><line x1="480" y1="965" x2="500" y2="965" stroke-width="2" stroke="black"></line><line x1="483" y1="970" x2="497" y2="970" stroke-width="2" stroke="black"></line><line x1="486" y1="975" x2="494" y2="975" stroke-width="2" stroke="black"></line><line x1="700" y1="685" x2="700" y2="665" stroke-width="2" stroke="black"></line><line x1="700" y1="665" x2="693" y2="672" stroke-width="2" stroke="black"></line><line x1="700" y1="665" x2="707" y2="672" stroke-width="2" stroke="black"></line><line x1="80" y1="585" x2="80" y2="595" stroke-width="2" stroke="black"></line><line x1="70" y1="595" x2="90" y2="595" stroke-width="2" stroke="black"></line><line x1="73" y1="600" x2="87" y2="600" stroke-width="2" stroke="black"></line><line x1="76" y1="605" x2="84" y2="605" stroke-width="2" stroke="black"></line><line x1="840" y1="775" x2="840" y2="755" stroke-width="2" stroke="black"></line><line x1="840" y1="755" x2="833" y2="762" stroke-width="2" stroke="black"></line><line x1="840" y1="755" x2="847" y2="762" stroke-width="2" stroke="black"></line><line x1="490" y1="325" x2="490" y2="335" stroke-width="2" stroke="black"></line><line x1="480" y1="335" x2="500" y2="335" stroke-width="2" stroke="black"></line><line x1="483" y1="340" x2="497" y2="340" stroke-width="2" stroke="black"></line><line x1="486" y1="345" x2="494" y2="345" stroke-width="2" stroke="black"></line><rect width="40" height="60" x="230" y="195" style="stroke: #000; stroke-width: 1; fill: none;"></rect><line x1="280" y1="225" x2="270" y2="225" stroke-width="2" stroke="black"></line><text x="268" y="225" font-size="10" font-family="sans-serif" text-anchor="end" alignment-baseline="middle">D1+</text><line x1="280" y1="215" x2="270" y2="215" stroke-width="2" stroke="black"></line><text x="268" y="215" font-size="10" font-family="sans-serif" text-anchor="end" alignment-baseline="middle">D1-</text><line x1="280" y1="245" x2="270" y2="245" stroke-width="2" stroke="black"></line><text x="268" y="245" font-size="10" font-family="sans-serif" text-anchor="end" alignment-baseline="middle">GND</text><line x1="280" y1="235" x2="270" y2="235" stroke-width="2" stroke="black"></line><text x="268" y="235" font-size="10" font-family="sans-serif" text-anchor="end" alignment-baseline="middle">KEY</text><line x1="280" y1="205" x2="270" y2="205" stroke-width="2" stroke="black"></line><text x="268" y="205" font-size="10" font-family="sans-serif" text-anchor="end" alignment-baseline="middle">VBUS</text><line x1="697" y1="322" x2="703" y2="328" stroke-width="2" stroke="black"></line><line x1="697" y1="328" x2="703" y2="322" stroke-width="2" stroke="black"></line><circle cx="700" cy="395" r="2" style="stroke: #000; stroke-width: 1; fill: none;"></circle><circle cx="710" cy="75" r="2" style="stroke: #000; stroke-width: 1; fill: none;"></circle><circle cx="190" cy="515" r="2" style="stroke: #000; stroke-width: 1; fill: none;"></circle><circle cx="320" cy="245" r="2" style="stroke: #000; stroke-width: 1; fill: none;"></circle><circle cx="80" cy="515" r="2" style="stroke: #000; stroke-width: 1; fill: none;"></circle><circle cx="260" cy="515" r="2" style="stroke: #000; stroke-width: 1; fill: none;"></circle><circle cx="700" cy="1015" r="2" style="stroke: #000; stroke-width: 1; fill: none;"></circle><circle cx="700" cy="385" r="2" style="stroke: #000; stroke-width: 1; fill: none;"></circle><circle cx="700" cy="1025" r="2" style="stroke: #000; stroke-width: 1; fill: none;"></circle><circle cx="700" cy="375" r="2" style="stroke: #000; stroke-width: 1; fill: none;"></circle><circle cx="700" cy="1005" r="2" style="stroke: #000; stroke-width: 1; fill: none;"></circle><circle cx="320" cy="875" r="2" style="stroke: #000; stroke-width: 1; fill: none;"></circle><circle cx="700" cy="705" r="2" style="stroke: #000; stroke-width: 1; fill: none;"></circle><line x1="700" y1="395" x2="700" y2="425" stroke-width="2" stroke="black"></line><line x1="780" y1="195" x2="900" y2="195" stroke-width="2" stroke="black"></line><line x1="670" y1="395" x2="700" y2="395" stroke-width="2" stroke="black"></line><line x1="20" y1="515" x2="20" y2="475" stroke-width="2" stroke="black"></line><line x1="760" y1="745" x2="760" y2="755" stroke-width="2" stroke="black"></line><line x1="260" y1="585" x2="260" y2="575" stroke-width="2" stroke="black"></line><line x1="560" y1="295" x2="530" y2="295" stroke-width="2" stroke="black"></line><line x1="790" y1="235" x2="670" y2="235" stroke-width="2" stroke="black"></line><line x1="670" y1="225" x2="780" y2="225" stroke-width="2" stroke="black"></line><line x1="670" y1="325" x2="700" y2="325" stroke-width="2" stroke="black"></line><line x1="670" y1="315" x2="700" y2="315" stroke-width="2" stroke="black"></line><line x1="550" y1="45" x2="550" y2="175" stroke-width="2" stroke="black"></line><line x1="770" y1="855" x2="770" y2="845" stroke-width="2" stroke="black"></line><line x1="320" y1="245" x2="320" y2="295" stroke-width="2" stroke="black"></line><line x1="320" y1="245" x2="280" y2="245" stroke-width="2" stroke="black"></line><line x1="560" y1="395" x2="530" y2="395" stroke-width="2" stroke="black"></line><line x1="710" y1="55" x2="710" y2="75" stroke-width="2" stroke="black"></line><line x1="530" y1="385" x2="560" y2="385" stroke-width="2" stroke="black"></line><line x1="80" y1="515" x2="110" y2="515" stroke-width="2" stroke="black"></line><line x1="80" y1="515" x2="20" y2="515" stroke-width="2" stroke="black"></line><line x1="670" y1="995" x2="700" y2="995" stroke-width="2" stroke="black"></line><line x1="670" y1="305" x2="700" y2="305" stroke-width="2" stroke="black"></line><line x1="700" y1="435" x2="700" y2="425" stroke-width="2" stroke="black"></line><line x1="700" y1="935" x2="670" y2="935" stroke-width="2" stroke="black"></line><line x1="410" y1="845" x2="560" y2="845" stroke-width="2" stroke="black"></line><line x1="670" y1="265" x2="700" y2="265" stroke-width="2" stroke="black"></line><line x1="260" y1="515" x2="190" y2="515" stroke-width="2" stroke="black"></line><line x1="260" y1="515" x2="320" y2="515" stroke-width="2" stroke="black"></line><line x1="260" y1="515" x2="260" y2="545" stroke-width="2" stroke="black"></line><line x1="190" y1="545" x2="190" y2="515" stroke-width="2" stroke="black"></line><line x1="560" y1="175" x2="550" y2="175" stroke-width="2" stroke="black"></line><line x1="870" y1="845" x2="770" y2="845" stroke-width="2" stroke="black"></line><line x1="490" y1="815" x2="560" y2="815" stroke-width="2" stroke="black"></line><line x1="490" y1="815" x2="490" y2="685" stroke-width="2" stroke="black"></line><line x1="490" y1="895" x2="490" y2="955" stroke-width="2" stroke="black"></line><line x1="490" y1="895" x2="560" y2="895" stroke-width="2" stroke="black"></line><line x1="670" y1="965" x2="700" y2="965" stroke-width="2" stroke="black"></line><line x1="700" y1="895" x2="670" y2="895" stroke-width="2" stroke="black"></line><line x1="320" y1="155" x2="320" y2="205" stroke-width="2" stroke="black"></line><line x1="780" y1="865" x2="780" y2="855" stroke-width="2" stroke="black"></line><line x1="560" y1="885" x2="530" y2="885" stroke-width="2" stroke="black"></line><line x1="770" y1="835" x2="670" y2="835" stroke-width="2" stroke="black"></line><line x1="670" y1="195" x2="780" y2="195" stroke-width="2" stroke="black"></line><line x1="530" y1="255" x2="560" y2="255" stroke-width="2" stroke="black"></line><line x1="780" y1="215" x2="900" y2="215" stroke-width="2" stroke="black"></line><line x1="780" y1="215" x2="780" y2="225" stroke-width="2" stroke="black"></line><line x1="870" y1="285" x2="870" y2="235" stroke-width="2" stroke="black"></line><line x1="700" y1="925" x2="670" y2="925" stroke-width="2" stroke="black"></line><line x1="700" y1="885" x2="670" y2="885" stroke-width="2" stroke="black"></line><line x1="700" y1="385" x2="700" y2="395" stroke-width="2" stroke="black"></line><line x1="760" y1="125" x2="760" y2="115" stroke-width="2" stroke="black"></line><line x1="490" y1="265" x2="560" y2="265" stroke-width="2" stroke="black"></line><line x1="490" y1="185" x2="490" y2="45" stroke-width="2" stroke="black"></line><line x1="490" y1="185" x2="560" y2="185" stroke-width="2" stroke="black"></line><line x1="760" y1="765" x2="760" y2="755" stroke-width="2" stroke="black"></line><line x1="840" y1="865" x2="870" y2="865" stroke-width="2" stroke="black"></line><line x1="870" y1="855" x2="780" y2="855" stroke-width="2" stroke="black"></line><line x1="280" y1="205" x2="320" y2="205" stroke-width="2" stroke="black"></line><line x1="700" y1="1025" x2="700" y2="1055" stroke-width="2" stroke="black"></line><line x1="700" y1="1025" x2="670" y2="1025" stroke-width="2" stroke="black"></line><line x1="700" y1="1025" x2="700" y2="1015" stroke-width="2" stroke="black"></line><line x1="700" y1="335" x2="670" y2="335" stroke-width="2" stroke="black"></line><line x1="560" y1="925" x2="530" y2="925" stroke-width="2" stroke="black"></line><line x1="420" y1="215" x2="280" y2="215" stroke-width="2" stroke="black"></line><line x1="420" y1="215" x2="560" y2="215" stroke-width="2" stroke="black"></line><line x1="560" y1="1015" x2="530" y2="1015" stroke-width="2" stroke="black"></line><line x1="780" y1="205" x2="900" y2="205" stroke-width="2" stroke="black"></line><line x1="870" y1="185" x2="870" y2="135" stroke-width="2" stroke="black"></line><line x1="700" y1="255" x2="670" y2="255" stroke-width="2" stroke="black"></line><line x1="160" y1="515" x2="190" y2="515" stroke-width="2" stroke="black"></line><line x1="710" y1="175" x2="710" y2="75" stroke-width="2" stroke="black"></line><line x1="710" y1="175" x2="670" y2="175" stroke-width="2" stroke="black"></line><line x1="870" y1="835" x2="770" y2="835" stroke-width="2" stroke="black"></line><line x1="320" y1="835" x2="320" y2="785" stroke-width="2" stroke="black"></line><line x1="320" y1="835" x2="270" y2="835" stroke-width="2" stroke="black"></line><line x1="560" y1="225" x2="420" y2="225" stroke-width="2" stroke="black"></line><line x1="760" y1="75" x2="710" y2="75" stroke-width="2" stroke="black"></line><line x1="900" y1="235" x2="870" y2="235" stroke-width="2" stroke="black"></line><line x1="80" y1="545" x2="80" y2="515" stroke-width="2" stroke="black"></line><line x1="670" y1="205" x2="780" y2="205" stroke-width="2" stroke="black"></line><line x1="80" y1="565" x2="80" y2="585" stroke-width="2" stroke="black"></line><line x1="190" y1="575" x2="190" y2="585" stroke-width="2" stroke="black"></line><line x1="190" y1="575" x2="190" y2="565" stroke-width="2" stroke="black"></line><line x1="760" y1="135" x2="760" y2="125" stroke-width="2" stroke="black"></line><line x1="270" y1="845" x2="410" y2="845" stroke-width="2" stroke="black"></line><line x1="560" y1="805" x2="550" y2="805" stroke-width="2" stroke="black"></line><line x1="670" y1="275" x2="700" y2="275" stroke-width="2" stroke="black"></line><line x1="320" y1="235" x2="320" y2="245" stroke-width="2" stroke="black"></line><line x1="320" y1="235" x2="280" y2="235" stroke-width="2" stroke="black"></line><line x1="760" y1="725" x2="760" y2="705" stroke-width="2" stroke="black"></line><line x1="840" y1="815" x2="870" y2="815" stroke-width="2" stroke="black"></line><line x1="870" y1="825" x2="770" y2="825" stroke-width="2" stroke="black"></line><line x1="700" y1="375" x2="670" y2="375" stroke-width="2" stroke="black"></line><line x1="700" y1="375" x2="700" y2="385" stroke-width="2" stroke="black"></line><line x1="700" y1="375" x2="700" y2="365" stroke-width="2" stroke="black"></line><line x1="670" y1="385" x2="700" y2="385" stroke-width="2" stroke="black"></line><line x1="270" y1="865" x2="320" y2="865" stroke-width="2" stroke="black"></line><line x1="760" y1="95" x2="760" y2="75" stroke-width="2" stroke="black"></line><line x1="670" y1="905" x2="700" y2="905" stroke-width="2" stroke="black"></line><line x1="280" y1="225" x2="420" y2="225" stroke-width="2" stroke="black"></line><line x1="700" y1="1065" x2="700" y2="1055" stroke-width="2" stroke="black"></line><line x1="550" y1="685" x2="550" y2="805" stroke-width="2" stroke="black"></line><line x1="670" y1="825" x2="770" y2="825" stroke-width="2" stroke="black"></line><line x1="790" y1="225" x2="900" y2="225" stroke-width="2" stroke="black"></line><line x1="790" y1="225" x2="790" y2="235" stroke-width="2" stroke="black"></line><line x1="670" y1="245" x2="700" y2="245" stroke-width="2" stroke="black"></line><line x1="670" y1="875" x2="700" y2="875" stroke-width="2" stroke="black"></line><line x1="670" y1="1015" x2="700" y2="1015" stroke-width="2" stroke="black"></line><line x1="700" y1="1005" x2="700" y2="1015" stroke-width="2" stroke="black"></line><line x1="700" y1="1005" x2="670" y2="1005" stroke-width="2" stroke="black"></line><line x1="700" y1="1005" x2="700" y2="995" stroke-width="2" stroke="black"></line><line x1="670" y1="855" x2="770" y2="855" stroke-width="2" stroke="black"></line><line x1="840" y1="775" x2="840" y2="815" stroke-width="2" stroke="black"></line><line x1="530" y1="1025" x2="560" y2="1025" stroke-width="2" stroke="black"></line><line x1="490" y1="325" x2="490" y2="265" stroke-width="2" stroke="black"></line><line x1="670" y1="805" x2="700" y2="805" stroke-width="2" stroke="black"></line><line x1="670" y1="865" x2="780" y2="865" stroke-width="2" stroke="black"></line><line x1="900" y1="185" x2="870" y2="185" stroke-width="2" stroke="black"></line><line x1="560" y1="935" x2="530" y2="935" stroke-width="2" stroke="black"></line><line x1="410" y1="855" x2="560" y2="855" stroke-width="2" stroke="black"></line><line x1="410" y1="855" x2="270" y2="855" stroke-width="2" stroke="black"></line><line x1="320" y1="475" x2="320" y2="515" stroke-width="2" stroke="black"></line><line x1="320" y1="875" x2="320" y2="905" stroke-width="2" stroke="black"></line><line x1="320" y1="875" x2="270" y2="875" stroke-width="2" stroke="black"></line><line x1="320" y1="875" x2="320" y2="865" stroke-width="2" stroke="black"></line><line x1="320" y1="925" x2="320" y2="905" stroke-width="2" stroke="black"></line><line x1="670" y1="945" x2="700" y2="945" stroke-width="2" stroke="black"></line><line x1="670" y1="955" x2="700" y2="955" stroke-width="2" stroke="black"></line><line x1="840" y1="915" x2="840" y2="865" stroke-width="2" stroke="black"></line><line x1="530" y1="305" x2="560" y2="305" stroke-width="2" stroke="black"></line><line x1="700" y1="295" x2="670" y2="295" stroke-width="2" stroke="black"></line><line x1="260" y1="565" x2="260" y2="575" stroke-width="2" stroke="black"></line><line x1="670" y1="365" x2="700" y2="365" stroke-width="2" stroke="black"></line><line x1="700" y1="705" x2="700" y2="805" stroke-width="2" stroke="black"></line><line x1="700" y1="705" x2="700" y2="685" stroke-width="2" stroke="black"></line><line x1="700" y1="705" x2="760" y2="705" stroke-width="2" stroke="black"></line></svg>