<?xml-stylesheet href="https://s3.amazonaws.com/maker.works.boards/css/blackpcb.css" type="text/css"?><svg xmlns="http://www.w3.org/2000/svg" version="1.1" xmlns:xlink="http://www.w3.org/1999/xlink" stroke-width="0" stroke-linecap="round" stroke-linejoin="round" width="0.5in" height="1.05in" id="pcb_top" viewBox="7.5 7.5 500 1050"><defs><circle cx="0" cy="0" r="20.5" id="tool-T10-pad-1000"/><rect x="-31.5" y="-31.5" width="63" height="63" id="tool-D10-pad-1006"/><circle cx="0" cy="0" r="31.5" id="tool-D11-pad-1007"/><circle cx="0" cy="0" r="9.85" id="tool-D11-pad-1009"/><rect x="-31.5" y="-31.5" width="63" height="63" id="tool-D10-pad-1010"/><circle cx="0" cy="0" r="31.5" id="tool-D11-pad-1011"/><g id="pcb_top-cu" fill="currentColor" stroke="currentColor"><use x="57.5" y="982.5" xlink:href="#tool-D10-pad-1006"/><use x="57.5" y="882.5" xlink:href="#tool-D11-pad-1007"/><use x="57.5" y="782.5" xlink:href="#tool-D11-pad-1007"/><use x="57.5" y="682.5" xlink:href="#tool-D11-pad-1007"/><use x="57.5" y="582.5" xlink:href="#tool-D11-pad-1007"/><use x="57.5" y="482.5" xlink:href="#tool-D11-pad-1007"/><use x="57.5" y="382.5" xlink:href="#tool-D11-pad-1007"/><use x="57.5" y="282.5" xlink:href="#tool-D11-pad-1007"/><use x="57.5" y="182.5" xlink:href="#tool-D11-pad-1007"/><use x="57.5" y="82.5" xlink:href="#tool-D11-pad-1007"/><use x="207.5" y="982.5" xlink:href="#tool-D10-pad-1006"/><use x="207.5" y="882.5" xlink:href="#tool-D11-pad-1007"/><use x="207.5" y="782.5" xlink:href="#tool-D11-pad-1007"/><use x="207.5" y="682.5" xlink:href="#tool-D11-pad-1007"/><use x="207.5" y="582.5" xlink:href="#tool-D11-pad-1007"/><use x="207.5" y="482.5" xlink:href="#tool-D11-pad-1007"/><use x="207.5" y="382.5" xlink:href="#tool-D11-pad-1007"/><use x="207.5" y="282.5" xlink:href="#tool-D11-pad-1007"/><use x="207.5" y="182.5" xlink:href="#tool-D11-pad-1007"/><use x="207.5" y="82.5" xlink:href="#tool-D11-pad-1007"/><use x="307.5" y="982.5" xlink:href="#tool-D11-pad-1007"/><use x="307.5" y="882.5" xlink:href="#tool-D11-pad-1007"/><use x="307.5" y="782.5" xlink:href="#tool-D11-pad-1007"/><use x="307.5" y="682.5" xlink:href="#tool-D11-pad-1007"/><use x="307.5" y="582.5" xlink:href="#tool-D11-pad-1007"/><use x="307.5" y="482.5" xlink:href="#tool-D11-pad-1007"/><use x="307.5" y="382.5" xlink:href="#tool-D11-pad-1007"/><use x="307.5" y="282.5" xlink:href="#tool-D11-pad-1007"/><use x="307.5" y="182.5" xlink:href="#tool-D11-pad-1007"/><use x="307.5" y="82.5" xlink:href="#tool-D11-pad-1007"/><use x="457.5" y="982.5" xlink:href="#tool-D10-pad-1006"/><use x="457.5" y="882.5" xlink:href="#tool-D11-pad-1007"/><use x="457.5" y="782.5" xlink:href="#tool-D11-pad-1007"/><use x="457.5" y="682.5" xlink:href="#tool-D11-pad-1007"/><use x="457.5" y="582.5" xlink:href="#tool-D11-pad-1007"/><use x="457.5" y="482.5" xlink:href="#tool-D11-pad-1007"/><use x="457.5" y="382.5" xlink:href="#tool-D11-pad-1007"/><use x="457.5" y="282.5" xlink:href="#tool-D11-pad-1007"/><use x="457.5" y="182.5" xlink:href="#tool-D11-pad-1007"/><use x="457.5" y="82.5" xlink:href="#tool-D11-pad-1007"/></g><mask id="pcb_top_mech-mask" fill="#fff" stroke="#fff" fill-rule="evenodd"><path stroke-width="0" d="M 7.5 7.5 L 7.5 1057.5 L 507.5 1057.5 L 507.5 7.5 Z"/><g id="pcb_top-drl" fill="#000" stroke="#000"><use x="57.5" y="982.5" xlink:href="#tool-T10-pad-1000"/><use x="57.5" y="882.5" xlink:href="#tool-T10-pad-1000"/><use x="57.5" y="782.5" xlink:href="#tool-T10-pad-1000"/><use x="57.5" y="682.5" xlink:href="#tool-T10-pad-1000"/><use x="57.5" y="582.5" xlink:href="#tool-T10-pad-1000"/><use x="57.5" y="482.5" xlink:href="#tool-T10-pad-1000"/><use x="57.5" y="382.5" xlink:href="#tool-T10-pad-1000"/><use x="57.5" y="282.5" xlink:href="#tool-T10-pad-1000"/><use x="57.5" y="182.5" xlink:href="#tool-T10-pad-1000"/><use x="57.5" y="82.5" xlink:href="#tool-T10-pad-1000"/><use x="207.5" y="982.5" xlink:href="#tool-T10-pad-1000"/><use x="207.5" y="882.5" xlink:href="#tool-T10-pad-1000"/><use x="207.5" y="782.5" xlink:href="#tool-T10-pad-1000"/><use x="207.5" y="682.5" xlink:href="#tool-T10-pad-1000"/><use x="207.5" y="582.5" xlink:href="#tool-T10-pad-1000"/><use x="207.5" y="482.5" xlink:href="#tool-T10-pad-1000"/><use x="207.5" y="382.5" xlink:href="#tool-T10-pad-1000"/><use x="207.5" y="282.5" xlink:href="#tool-T10-pad-1000"/><use x="207.5" y="182.5" xlink:href="#tool-T10-pad-1000"/><use x="207.5" y="82.5" xlink:href="#tool-T10-pad-1000"/><use x="307.5" y="982.5" xlink:href="#tool-T10-pad-1000"/><use x="307.5" y="882.5" xlink:href="#tool-T10-pad-1000"/><use x="307.5" y="782.5" xlink:href="#tool-T10-pad-1000"/><use x="307.5" y="682.5" xlink:href="#tool-T10-pad-1000"/><use x="307.5" y="582.5" xlink:href="#tool-T10-pad-1000"/><use x="307.5" y="482.5" xlink:href="#tool-T10-pad-1000"/><use x="307.5" y="382.5" xlink:href="#tool-T10-pad-1000"/><use x="307.5" y="282.5" xlink:href="#tool-T10-pad-1000"/><use x="307.5" y="182.5" xlink:href="#tool-T10-pad-1000"/><use x="307.5" y="82.5" xlink:href="#tool-T10-pad-1000"/><use x="457.5" y="982.5" xlink:href="#tool-T10-pad-1000"/><use x="457.5" y="882.5" xlink:href="#tool-T10-pad-1000"/><use x="457.5" y="782.5" xlink:href="#tool-T10-pad-1000"/><use x="457.5" y="682.5" xlink:href="#tool-T10-pad-1000"/><use x="457.5" y="582.5" xlink:href="#tool-T10-pad-1000"/><use x="457.5" y="482.5" xlink:href="#tool-T10-pad-1000"/><use x="457.5" y="382.5" xlink:href="#tool-T10-pad-1000"/><use x="457.5" y="282.5" xlink:href="#tool-T10-pad-1000"/><use x="457.5" y="182.5" xlink:href="#tool-T10-pad-1000"/><use x="457.5" y="82.5" xlink:href="#tool-T10-pad-1000"/></g></mask></defs><g mask="url(#pcb_top_mech-mask)" transform="translate(0,1065) scale(1,-1)"><rect x="7.5" y="7.5" width="500" height="1050" fill="currentColor" class="pcb_board-fr4"/><use class="pcb_board-cu" xlink:href="#pcb_top-cu"/><g><defs><g id="pcb_top-sm" fill="currentColor" stroke="currentColor"><use x="57.5" y="982.5" xlink:href="#tool-D10-pad-1010"/><use x="57.5" y="882.5" xlink:href="#tool-D11-pad-1011"/><use x="57.5" y="782.5" xlink:href="#tool-D11-pad-1011"/><use x="57.5" y="682.5" xlink:href="#tool-D11-pad-1011"/><use x="57.5" y="582.5" xlink:href="#tool-D11-pad-1011"/><use x="57.5" y="482.5" xlink:href="#tool-D11-pad-1011"/><use x="57.5" y="382.5" xlink:href="#tool-D11-pad-1011"/><use x="57.5" y="282.5" xlink:href="#tool-D11-pad-1011"/><use x="57.5" y="182.5" xlink:href="#tool-D11-pad-1011"/><use x="57.5" y="82.5" xlink:href="#tool-D11-pad-1011"/><use x="207.5" y="982.5" xlink:href="#tool-D10-pad-1010"/><use x="207.5" y="882.5" xlink:href="#tool-D11-pad-1011"/><use x="207.5" y="782.5" xlink:href="#tool-D11-pad-1011"/><use x="207.5" y="682.5" xlink:href="#tool-D11-pad-1011"/><use x="207.5" y="582.5" xlink:href="#tool-D11-pad-1011"/><use x="207.5" y="482.5" xlink:href="#tool-D11-pad-1011"/><use x="207.5" y="382.5" xlink:href="#tool-D11-pad-1011"/><use x="207.5" y="282.5" xlink:href="#tool-D11-pad-1011"/><use x="207.5" y="182.5" xlink:href="#tool-D11-pad-1011"/><use x="207.5" y="82.5" xlink:href="#tool-D11-pad-1011"/><use x="307.5" y="982.5" xlink:href="#tool-D11-pad-1011"/><use x="307.5" y="882.5" xlink:href="#tool-D11-pad-1011"/><use x="307.5" y="782.5" xlink:href="#tool-D11-pad-1011"/><use x="307.5" y="682.5" xlink:href="#tool-D11-pad-1011"/><use x="307.5" y="582.5" xlink:href="#tool-D11-pad-1011"/><use x="307.5" y="482.5" xlink:href="#tool-D11-pad-1011"/><use x="307.5" y="382.5" xlink:href="#tool-D11-pad-1011"/><use x="307.5" y="282.5" xlink:href="#tool-D11-pad-1011"/><use x="307.5" y="182.5" xlink:href="#tool-D11-pad-1011"/><use x="307.5" y="82.5" xlink:href="#tool-D11-pad-1011"/><use x="457.5" y="982.5" xlink:href="#tool-D10-pad-1010"/><use x="457.5" y="882.5" xlink:href="#tool-D11-pad-1011"/><use x="457.5" y="782.5" xlink:href="#tool-D11-pad-1011"/><use x="457.5" y="682.5" xlink:href="#tool-D11-pad-1011"/><use x="457.5" y="582.5" xlink:href="#tool-D11-pad-1011"/><use x="457.5" y="482.5" xlink:href="#tool-D11-pad-1011"/><use x="457.5" y="382.5" xlink:href="#tool-D11-pad-1011"/><use x="457.5" y="282.5" xlink:href="#tool-D11-pad-1011"/><use x="457.5" y="182.5" xlink:href="#tool-D11-pad-1011"/><use x="457.5" y="82.5" xlink:href="#tool-D11-pad-1011"/></g><mask id="pcb_top-sm_mask" color="#000"><rect x="7.5" y="7.5" width="500" height="1050" fill="#fff"/><use xlink:href="#pcb_top-sm"/></mask><mask id="pcb_top-cu_finish-mask" color="#fff"><use xlink:href="#pcb_top-cu"/></mask></defs><g mask="url(#pcb_top-sm_mask)"><rect x="7.5" y="7.5" width="500" height="1050" fill="currentColor" class="pcb_board-sm"/><g id="pcb_top-ss" class="pcb_board-ss" fill="currentColor" stroke="currentColor"><path stroke-width="5.9" fill="none" d="M 7.5 32.5 L 7.5 1032.5 M 7.5 1032.5 L 107.5 1032.5 M 107.5 1032.5 L 107.5 32.5 M 107.5 32.5 L 7.5 32.5 M 132.5 7.5 L 132.5 1057.5 M 132.5 1057.5 L 382.5 1057.5 M 382.5 1057.5 L 382.5 7.5 M 382.5 7.5 L 132.5 7.5"/><use x="103" y="982.5" xlink:href="#tool-D11-pad-1009"/><path stroke-width="5.9" fill="none" d="M 407.5 32.5 L 407.5 1032.5 M 407.5 1032.5 L 507.5 1032.5 M 507.5 1032.5 L 507.5 32.5 M 507.5 32.5 L 407.5 32.5"/></g></g><use class="pcb_board-cf" mask="url(#pcb_top-cu_finish-mask)" xlink:href="#pcb_top-sm"/></g></g></svg>