%FSLAX33Y33*%
%MOMM*%
%AMRect-W2049999-H2049999-RO1.500*
21,1,2.049999,2.049999,0.,0.,90*%
%AMRect-W2049999-H2049999-RO0.500*
21,1,2.049999,2.049999,0.,0.,270*%
%ADD10C,0.0508*%
%ADD11C,2.049999*%
%ADD12Rect-W2049999-H2049999-RO1.500*%
%ADD13C,2.54*%
%ADD14C,2.049999*%
%ADD15Rect-W2049999-H2049999-RO0.500*%
%ADD16C,5.5*%
D10*
%LNpour fill*%
G01*
X86691Y0453D02*
X86691Y0453D01*
X87013Y0530*
X87319Y0657*
X87602Y0830*
X87854Y1046*
X88070Y1298*
X88243Y1581*
X88370Y1887*
X88447Y2209*
X88468Y2475*
X88468Y22925*
X88447Y23191*
X88370Y23513*
X88243Y23819*
X88070Y24102*
X87854Y24354*
X87602Y24570*
X87319Y24743*
X87013Y24870*
X86691Y24947*
X86425Y24968*
X2475Y24968*
X2209Y24947*
X1887Y24870*
X1581Y24743*
X1298Y24570*
X1046Y24354*
X0830Y24102*
X0657Y23819*
X0530Y23513*
X0453Y23191*
X0432Y22925*
X0432Y2475*
X0453Y2209*
X0530Y1887*
X0657Y1581*
X0830Y1298*
X1046Y1046*
X1298Y0830*
X1581Y0657*
X1887Y0530*
X2209Y0453*
X2475Y0432*
X86425Y0432*
X86691Y0453*
X3734Y18636D02*
X3734Y18636D01*
X3734Y18865*
X3886Y18865*
X3886Y18636*
X3903Y18621*
X4472Y18685*
X4474Y18685*
X5102Y18905*
X5104Y18906*
X5667Y19260*
X5669Y19261*
X6139Y19731*
X6140Y19733*
X6494Y20296*
X6495Y20298*
X6715Y20926*
X6715Y20928*
X6779Y21497*
X6764Y21514*
X6535Y21514*
X6535Y21666*
X6764Y21666*
X6779Y21683*
X6715Y22252*
X6715Y22254*
X6495Y22882*
X6494Y22884*
X6140Y23447*
X6139Y23449*
X5669Y23919*
X5667Y23920*
X5104Y24274*
X5102Y24275*
X4474Y24495*
X4472Y24495*
X3903Y24559*
X3886Y24544*
X3886Y24315*
X3734Y24315*
X3734Y24544*
X3717Y24559*
X3148Y24495*
X3146Y24495*
X2518Y24275*
X2516Y24274*
X1953Y23920*
X1951Y23919*
X1481Y23449*
X1480Y23447*
X1126Y22884*
X1125Y22882*
X0905Y22254*
X0905Y22252*
X0841Y21683*
X0856Y21666*
X1085Y21666*
X1085Y21514*
X0856Y21514*
X0841Y21497*
X0905Y20928*
X0905Y20926*
X1125Y20298*
X1126Y20296*
X1480Y19733*
X1481Y19731*
X1951Y19261*
X1953Y19260*
X2516Y18906*
X2518Y18905*
X3146Y18685*
X3148Y18685*
X3717Y18621*
X3734Y18636*
X85752Y18685D02*
X85752Y18685D01*
X85754Y18685*
X86382Y18905*
X86384Y18906*
X86947Y19260*
X86949Y19261*
X87419Y19731*
X87420Y19733*
X87774Y20296*
X87775Y20298*
X87995Y20926*
X87995Y20928*
X88059Y21497*
X88044Y21514*
X87815Y21514*
X87815Y21666*
X88044Y21666*
X88059Y21683*
X87995Y22252*
X87995Y22254*
X87775Y22882*
X87774Y22884*
X87420Y23447*
X87419Y23449*
X86949Y23919*
X86947Y23920*
X86384Y24274*
X86382Y24275*
X85754Y24495*
X85752Y24495*
X85183Y24559*
X85166Y24544*
X85166Y24315*
X85014Y24315*
X85014Y24544*
X84997Y24559*
X84428Y24495*
X84426Y24495*
X83798Y24275*
X83796Y24274*
X83233Y23920*
X83231Y23919*
X82761Y23449*
X82760Y23447*
X82406Y22884*
X82405Y22882*
X82185Y22254*
X82185Y22252*
X82121Y21683*
X82136Y21666*
X82365Y21666*
X82365Y21514*
X82136Y21514*
X82121Y21497*
X82185Y20928*
X82185Y20926*
X82405Y20298*
X82406Y20296*
X82760Y19733*
X82761Y19731*
X83231Y19261*
X83233Y19260*
X83796Y18906*
X83798Y18905*
X84426Y18685*
X84428Y18685*
X85089Y18610*
X85091Y18610*
X85752Y18685*
X54688Y21398D02*
X54688Y21398D01*
X54691Y21398*
X55005Y21508*
X55008Y21510*
X55290Y21687*
X55292Y21688*
X55528Y21924*
X55529Y21926*
X55706Y22208*
X55708Y22211*
X55818Y22525*
X55818Y22528*
X55856Y22859*
X55856Y22861*
X55818Y23192*
X55818Y23195*
X55708Y23509*
X55706Y23512*
X55529Y23794*
X55528Y23796*
X55292Y24032*
X55290Y24033*
X55008Y24210*
X55005Y24212*
X54691Y24322*
X54688Y24322*
X54357Y24360*
X54355Y24360*
X54024Y24322*
X54021Y24322*
X53707Y24212*
X53704Y24210*
X53422Y24033*
X53420Y24032*
X53184Y23796*
X53183Y23794*
X53006Y23512*
X53004Y23509*
X52894Y23195*
X52894Y23192*
X52856Y22861*
X52856Y22859*
X52894Y22528*
X52894Y22525*
X53004Y22211*
X53006Y22208*
X53183Y21926*
X53184Y21924*
X53420Y21688*
X53422Y21687*
X53704Y21510*
X53707Y21508*
X54021Y21398*
X54024Y21398*
X54355Y21360*
X54357Y21360*
X54688Y21398*
X34368Y21398D02*
X34368Y21398D01*
X34371Y21398*
X34685Y21508*
X34688Y21510*
X34970Y21687*
X34972Y21688*
X35208Y21924*
X35209Y21926*
X35386Y22208*
X35388Y22211*
X35498Y22525*
X35498Y22528*
X35536Y22859*
X35536Y22861*
X35498Y23192*
X35498Y23195*
X35388Y23509*
X35386Y23512*
X35209Y23794*
X35208Y23796*
X34972Y24032*
X34970Y24033*
X34688Y24210*
X34685Y24212*
X34371Y24322*
X34368Y24322*
X34037Y24360*
X34035Y24360*
X33704Y24322*
X33701Y24322*
X33387Y24212*
X33384Y24210*
X33102Y24033*
X33100Y24032*
X32864Y23796*
X32863Y23794*
X32686Y23512*
X32684Y23509*
X32574Y23195*
X32574Y23192*
X32536Y22861*
X32536Y22859*
X32574Y22528*
X32574Y22525*
X32684Y22211*
X32686Y22208*
X32863Y21926*
X32864Y21924*
X33100Y21688*
X33102Y21687*
X33384Y21510*
X33387Y21508*
X33701Y21398*
X33704Y21398*
X34035Y21360*
X34037Y21360*
X34368Y21398*
X76565Y16445D02*
X76565Y16445D01*
X76598Y16448*
X76600Y16448*
X76633Y16456*
X76635Y16457*
X76666Y16470*
X76668Y16471*
X76697Y16489*
X76699Y16490*
X76725Y16512*
X76726Y16513*
X76748Y16539*
X76749Y16541*
X76767Y16570*
X76768Y16572*
X76781Y16603*
X76782Y16605*
X76790Y16638*
X76790Y16640*
X76793Y16674*
X76793Y16675*
X76793Y18725*
X76793Y18726*
X76790Y18760*
X76790Y18762*
X76782Y18795*
X76781Y18797*
X76768Y18828*
X76767Y18830*
X76749Y18859*
X76748Y18861*
X76726Y18887*
X76725Y18888*
X76699Y18910*
X76697Y18911*
X76668Y18929*
X76666Y18930*
X76635Y18943*
X76633Y18944*
X76600Y18952*
X76598Y18952*
X76564Y18955*
X76563Y18955*
X74513Y18955*
X74512Y18955*
X74478Y18952*
X74476Y18952*
X74443Y18944*
X74441Y18943*
X74410Y18930*
X74408Y18929*
X74379Y18911*
X74377Y18910*
X74351Y18888*
X74350Y18887*
X74328Y18861*
X74327Y18859*
X74309Y18830*
X74308Y18828*
X74295Y18797*
X74294Y18795*
X74286Y18762*
X74286Y18760*
X74283Y18727*
X74283Y18726*
X74283Y16674*
X74283Y16674*
X74286Y16640*
X74286Y16638*
X74294Y16605*
X74295Y16603*
X74308Y16572*
X74309Y16570*
X74327Y16541*
X74328Y16539*
X74350Y16513*
X74351Y16512*
X74377Y16490*
X74379Y16489*
X74408Y16471*
X74410Y16470*
X74441Y16457*
X74443Y16456*
X74476Y16448*
X74478Y16448*
X74512Y16445*
X74512Y16445*
X76564Y16445*
X76565Y16445*
X13132Y16477D02*
X13132Y16477D01*
X13135Y16477*
X13397Y16569*
X13400Y16570*
X13635Y16718*
X13637Y16720*
X13834Y16917*
X13836Y16919*
X13984Y17154*
X13985Y17157*
X14077Y17419*
X14077Y17422*
X14109Y17699*
X14109Y17701*
X14077Y17978*
X14077Y17981*
X13985Y18243*
X13984Y18246*
X13836Y18481*
X13834Y18483*
X13637Y18680*
X13635Y18682*
X13400Y18830*
X13397Y18831*
X13135Y18923*
X13132Y18923*
X12855Y18955*
X12853Y18955*
X12576Y18923*
X12573Y18923*
X12311Y18831*
X12308Y18830*
X12073Y18682*
X12071Y18680*
X11874Y18483*
X11872Y18481*
X11724Y18246*
X11723Y18243*
X11631Y17981*
X11631Y17978*
X11599Y17701*
X11599Y17699*
X11631Y17422*
X11631Y17419*
X11723Y17157*
X11724Y17154*
X11872Y16919*
X11874Y16917*
X12071Y16720*
X12073Y16718*
X12308Y16570*
X12311Y16569*
X12573Y16477*
X12576Y16477*
X12853Y16445*
X12855Y16445*
X13132Y16477*
X34368Y13778D02*
X34368Y13778D01*
X34371Y13778*
X34685Y13888*
X34688Y13890*
X34970Y14067*
X34972Y14068*
X35208Y14304*
X35209Y14306*
X35386Y14588*
X35388Y14591*
X35498Y14905*
X35498Y14908*
X35536Y15239*
X35536Y15241*
X35498Y15572*
X35498Y15575*
X35388Y15889*
X35386Y15892*
X35209Y16174*
X35208Y16176*
X34972Y16412*
X34970Y16413*
X34688Y16590*
X34685Y16592*
X34371Y16702*
X34368Y16702*
X34037Y16740*
X34035Y16740*
X33704Y16702*
X33701Y16702*
X33387Y16592*
X33384Y16590*
X33102Y16413*
X33100Y16412*
X32864Y16176*
X32863Y16174*
X32686Y15892*
X32684Y15889*
X32574Y15575*
X32574Y15572*
X32536Y15241*
X32536Y15239*
X32574Y14908*
X32574Y14905*
X32684Y14591*
X32686Y14588*
X32863Y14306*
X32864Y14304*
X33100Y14068*
X33102Y14067*
X33384Y13890*
X33387Y13888*
X33701Y13778*
X33704Y13778*
X34035Y13740*
X34037Y13740*
X34368Y13778*
X54688Y11238D02*
X54688Y11238D01*
X54691Y11238*
X55005Y11348*
X55008Y11350*
X55290Y11527*
X55292Y11528*
X55528Y11764*
X55529Y11766*
X55706Y12048*
X55708Y12051*
X55818Y12365*
X55818Y12368*
X55856Y12699*
X55856Y12701*
X55818Y13032*
X55818Y13035*
X55708Y13349*
X55706Y13352*
X55529Y13634*
X55528Y13636*
X55292Y13872*
X55290Y13873*
X55008Y14050*
X55005Y14052*
X54691Y14162*
X54688Y14162*
X54357Y14200*
X54355Y14200*
X54024Y14162*
X54021Y14162*
X53707Y14052*
X53704Y14050*
X53422Y13873*
X53420Y13872*
X53184Y13636*
X53183Y13634*
X53006Y13352*
X53004Y13349*
X52894Y13035*
X52894Y13032*
X52856Y12701*
X52856Y12699*
X52894Y12368*
X52894Y12365*
X53004Y12051*
X53006Y12048*
X53183Y11766*
X53184Y11764*
X53420Y11528*
X53422Y11527*
X53704Y11350*
X53707Y11348*
X54021Y11238*
X54024Y11238*
X54355Y11200*
X54357Y11200*
X54688Y11238*
X75816Y11477D02*
X75816Y11477D01*
X75819Y11477*
X76081Y11569*
X76084Y11570*
X76319Y11718*
X76321Y11720*
X76518Y11917*
X76520Y11919*
X76668Y12154*
X76669Y12157*
X76761Y12419*
X76761Y12422*
X76793Y12699*
X76793Y12701*
X76761Y12978*
X76761Y12981*
X76669Y13243*
X76668Y13246*
X76520Y13481*
X76518Y13483*
X76321Y13680*
X76319Y13682*
X76084Y13830*
X76081Y13831*
X75819Y13923*
X75816Y13923*
X75539Y13955*
X75537Y13955*
X75260Y13923*
X75257Y13923*
X74995Y13831*
X74992Y13830*
X74757Y13682*
X74755Y13680*
X74558Y13483*
X74556Y13481*
X74408Y13246*
X74407Y13243*
X74315Y12981*
X74315Y12978*
X74283Y12701*
X74283Y12699*
X74315Y12422*
X74315Y12419*
X74407Y12157*
X74408Y12154*
X74556Y11919*
X74558Y11917*
X74755Y11720*
X74757Y11718*
X74992Y11570*
X74995Y11569*
X75257Y11477*
X75260Y11477*
X75537Y11445*
X75539Y11445*
X75816Y11477*
X13132Y11477D02*
X13132Y11477D01*
X13135Y11477*
X13397Y11569*
X13400Y11570*
X13635Y11718*
X13637Y11720*
X13834Y11917*
X13836Y11919*
X13984Y12154*
X13985Y12157*
X14077Y12419*
X14077Y12422*
X14109Y12699*
X14109Y12701*
X14077Y12978*
X14077Y12981*
X13985Y13243*
X13984Y13246*
X13836Y13481*
X13834Y13483*
X13637Y13680*
X13635Y13682*
X13400Y13830*
X13397Y13831*
X13135Y13923*
X13132Y13923*
X12855Y13955*
X12853Y13955*
X12576Y13923*
X12573Y13923*
X12311Y13831*
X12308Y13830*
X12073Y13682*
X12071Y13680*
X11874Y13483*
X11872Y13481*
X11724Y13246*
X11723Y13243*
X11631Y12981*
X11631Y12978*
X11599Y12701*
X11599Y12699*
X11631Y12422*
X11631Y12419*
X11723Y12157*
X11724Y12154*
X11872Y11919*
X11874Y11917*
X12071Y11720*
X12073Y11718*
X12308Y11570*
X12311Y11569*
X12573Y11477*
X12576Y11477*
X12853Y11445*
X12855Y11445*
X13132Y11477*
X34368Y8698D02*
X34368Y8698D01*
X34371Y8698*
X34685Y8808*
X34688Y8810*
X34970Y8987*
X34972Y8988*
X35208Y9224*
X35209Y9226*
X35386Y9508*
X35388Y9511*
X35498Y9825*
X35498Y9828*
X35536Y10159*
X35536Y10161*
X35498Y10492*
X35498Y10495*
X35388Y10809*
X35386Y10812*
X35209Y11094*
X35208Y11096*
X34972Y11332*
X34970Y11333*
X34688Y11510*
X34685Y11512*
X34371Y11622*
X34368Y11622*
X34037Y11660*
X34035Y11660*
X33704Y11622*
X33701Y11622*
X33387Y11512*
X33384Y11510*
X33102Y11333*
X33100Y11332*
X32864Y11096*
X32863Y11094*
X32686Y10812*
X32684Y10809*
X32574Y10495*
X32574Y10492*
X32536Y10161*
X32536Y10159*
X32574Y9828*
X32574Y9825*
X32684Y9511*
X32686Y9508*
X32863Y9226*
X32864Y9224*
X33100Y8988*
X33102Y8987*
X33384Y8810*
X33387Y8808*
X33701Y8698*
X33704Y8698*
X34035Y8660*
X34037Y8660*
X34368Y8698*
X13881Y6445D02*
X13881Y6445D01*
X13914Y6448*
X13916Y6448*
X13949Y6456*
X13951Y6457*
X13982Y6470*
X13984Y6471*
X14013Y6489*
X14015Y6490*
X14041Y6512*
X14042Y6513*
X14064Y6539*
X14065Y6541*
X14083Y6570*
X14084Y6572*
X14097Y6603*
X14098Y6605*
X14106Y6638*
X14106Y6640*
X14109Y6674*
X14109Y6675*
X14109Y8725*
X14109Y8726*
X14106Y8760*
X14106Y8762*
X14098Y8795*
X14097Y8797*
X14084Y8828*
X14083Y8830*
X14065Y8859*
X14064Y8861*
X14042Y8887*
X14041Y8888*
X14015Y8910*
X14013Y8911*
X13984Y8929*
X13982Y8930*
X13951Y8943*
X13949Y8944*
X13916Y8952*
X13914Y8952*
X13880Y8955*
X13879Y8955*
X11829Y8955*
X11828Y8955*
X11794Y8952*
X11792Y8952*
X11759Y8944*
X11757Y8943*
X11726Y8930*
X11724Y8929*
X11695Y8911*
X11693Y8910*
X11667Y8888*
X11666Y8887*
X11644Y8861*
X11643Y8859*
X11625Y8830*
X11624Y8828*
X11611Y8797*
X11610Y8795*
X11602Y8762*
X11602Y8760*
X11599Y8727*
X11599Y8726*
X11599Y6674*
X11599Y6674*
X11602Y6640*
X11602Y6638*
X11610Y6605*
X11611Y6603*
X11624Y6572*
X11625Y6570*
X11643Y6541*
X11644Y6539*
X11666Y6513*
X11667Y6512*
X11693Y6490*
X11695Y6489*
X11724Y6471*
X11726Y6470*
X11757Y6457*
X11759Y6456*
X11792Y6448*
X11794Y6448*
X11828Y6445*
X11828Y6445*
X13880Y6445*
X13881Y6445*
X75816Y6477D02*
X75816Y6477D01*
X75819Y6477*
X76081Y6569*
X76084Y6570*
X76319Y6718*
X76321Y6720*
X76518Y6917*
X76520Y6919*
X76668Y7154*
X76669Y7157*
X76761Y7419*
X76761Y7422*
X76793Y7699*
X76793Y7701*
X76761Y7978*
X76761Y7981*
X76669Y8243*
X76668Y8246*
X76520Y8481*
X76518Y8483*
X76321Y8680*
X76319Y8682*
X76084Y8830*
X76081Y8831*
X75819Y8923*
X75816Y8923*
X75539Y8955*
X75537Y8955*
X75260Y8923*
X75257Y8923*
X74995Y8831*
X74992Y8830*
X74757Y8682*
X74755Y8680*
X74558Y8483*
X74556Y8481*
X74408Y8246*
X74407Y8243*
X74315Y7981*
X74315Y7978*
X74283Y7701*
X74283Y7699*
X74315Y7422*
X74315Y7419*
X74407Y7157*
X74408Y7154*
X74556Y6919*
X74558Y6917*
X74755Y6720*
X74757Y6718*
X74992Y6570*
X74995Y6569*
X75257Y6477*
X75260Y6477*
X75537Y6445*
X75539Y6445*
X75816Y6477*
X85752Y0905D02*
X85752Y0905D01*
X85754Y0905*
X86382Y1125*
X86384Y1126*
X86947Y1480*
X86949Y1481*
X87419Y1951*
X87420Y1953*
X87774Y2516*
X87775Y2518*
X87995Y3146*
X87995Y3148*
X88059Y3717*
X88044Y3734*
X87815Y3734*
X87815Y3886*
X88044Y3886*
X88059Y3903*
X87995Y4472*
X87995Y4474*
X87775Y5102*
X87774Y5104*
X87420Y5667*
X87419Y5669*
X86949Y6139*
X86947Y6140*
X86384Y6494*
X86382Y6495*
X85754Y6715*
X85752Y6715*
X85091Y6790*
X85089Y6790*
X84428Y6715*
X84426Y6715*
X83798Y6495*
X83796Y6494*
X83233Y6140*
X83231Y6139*
X82761Y5669*
X82760Y5667*
X82406Y5104*
X82405Y5102*
X82185Y4474*
X82185Y4472*
X82121Y3903*
X82136Y3886*
X82365Y3886*
X82365Y3734*
X82136Y3734*
X82121Y3717*
X82185Y3148*
X82185Y3146*
X82405Y2518*
X82406Y2516*
X82760Y1953*
X82761Y1951*
X83231Y1481*
X83233Y1480*
X83796Y1126*
X83798Y1125*
X84426Y0905*
X84428Y0905*
X84997Y0841*
X85014Y0856*
X85014Y1085*
X85166Y1085*
X85166Y0856*
X85183Y0841*
X85752Y0905*
X3734Y0856D02*
X3734Y0856D01*
X3734Y1085*
X3886Y1085*
X3886Y0856*
X3903Y0841*
X4472Y0905*
X4474Y0905*
X5102Y1125*
X5104Y1126*
X5667Y1480*
X5669Y1481*
X6139Y1951*
X6140Y1953*
X6494Y2516*
X6495Y2518*
X6715Y3146*
X6715Y3148*
X6779Y3717*
X6764Y3734*
X6535Y3734*
X6535Y3886*
X6764Y3886*
X6779Y3903*
X6715Y4472*
X6715Y4474*
X6495Y5102*
X6494Y5104*
X6140Y5667*
X6139Y5669*
X5669Y6139*
X5667Y6140*
X5104Y6494*
X5102Y6495*
X4474Y6715*
X4472Y6715*
X3903Y6779*
X3886Y6764*
X3886Y6535*
X3734Y6535*
X3734Y6764*
X3717Y6779*
X3148Y6715*
X3146Y6715*
X2518Y6495*
X2516Y6494*
X1953Y6140*
X1951Y6139*
X1481Y5669*
X1480Y5667*
X1126Y5104*
X1125Y5102*
X0905Y4474*
X0905Y4472*
X0841Y3903*
X0856Y3886*
X1085Y3886*
X1085Y3734*
X0856Y3734*
X0841Y3717*
X0905Y3148*
X0905Y3146*
X1125Y2518*
X1126Y2516*
X1480Y1953*
X1481Y1951*
X1951Y1481*
X1953Y1480*
X2516Y1126*
X2518Y1125*
X3146Y0905*
X3148Y0905*
X3717Y0841*
X3734Y0856*
X54688Y1078D02*
X54688Y1078D01*
X54691Y1078*
X55005Y1188*
X55008Y1190*
X55290Y1367*
X55292Y1368*
X55528Y1604*
X55529Y1606*
X55706Y1888*
X55708Y1891*
X55818Y2205*
X55818Y2208*
X55856Y2539*
X55856Y2541*
X55818Y2872*
X55818Y2875*
X55708Y3189*
X55706Y3192*
X55529Y3474*
X55528Y3476*
X55292Y3712*
X55290Y3713*
X55008Y3890*
X55005Y3892*
X54691Y4002*
X54688Y4002*
X54357Y4040*
X54355Y4040*
X54024Y4002*
X54021Y4002*
X53707Y3892*
X53704Y3890*
X53422Y3713*
X53420Y3712*
X53184Y3476*
X53183Y3474*
X53006Y3192*
X53004Y3189*
X52894Y2875*
X52894Y2872*
X52856Y2541*
X52856Y2539*
X52894Y2208*
X52894Y2205*
X53004Y1891*
X53006Y1888*
X53183Y1606*
X53184Y1604*
X53420Y1368*
X53422Y1367*
X53704Y1190*
X53707Y1188*
X54021Y1078*
X54024Y1078*
X54355Y1040*
X54357Y1040*
X54688Y1078*
X2196Y0456D02*
X86704Y0456D01*
X1990Y0505D02*
X86910Y0505D01*
X1827Y0555D02*
X87073Y0555D01*
X1707Y0605D02*
X87193Y0605D01*
X1588Y0654D02*
X87312Y0654D01*
X1505Y0704D02*
X87395Y0704D01*
X1424Y0753D02*
X87476Y0753D01*
X1343Y0803D02*
X87557Y0803D01*
X1272Y0852D02*
X3615Y0852D01*
X3730Y0852D02*
X3890Y0852D01*
X4005Y0852D02*
X84895Y0852D01*
X85010Y0852D02*
X85170Y0852D01*
X85285Y0852D02*
X87628Y0852D01*
X1214Y0902D02*
X3176Y0902D01*
X3734Y0902D02*
X3886Y0902D01*
X4444Y0902D02*
X84456Y0902D01*
X85014Y0902D02*
X85166Y0902D01*
X85724Y0902D02*
X87686Y0902D01*
X1156Y0951D02*
X3015Y0951D01*
X3734Y0951D02*
X3886Y0951D01*
X4605Y0951D02*
X84295Y0951D01*
X85014Y0951D02*
X85166Y0951D01*
X85885Y0951D02*
X87744Y0951D01*
X1098Y1001D02*
X2873Y1001D01*
X3734Y1001D02*
X3886Y1001D01*
X4747Y1001D02*
X84153Y1001D01*
X85014Y1001D02*
X85166Y1001D01*
X86027Y1001D02*
X87802Y1001D01*
X1042Y1050D02*
X2732Y1050D01*
X3734Y1050D02*
X3886Y1050D01*
X4888Y1050D02*
X54267Y1050D01*
X54445Y1050D02*
X84012Y1050D01*
X85014Y1050D02*
X85166Y1050D01*
X86168Y1050D02*
X87858Y1050D01*
X0999Y1100D02*
X2590Y1100D01*
X5030Y1100D02*
X53959Y1100D01*
X54753Y1100D02*
X83870Y1100D01*
X86310Y1100D02*
X87901Y1100D01*
X0957Y1149D02*
X2479Y1149D01*
X5141Y1149D02*
X53818Y1149D01*
X54894Y1149D02*
X83759Y1149D01*
X86421Y1149D02*
X87943Y1149D01*
X0915Y1199D02*
X2400Y1199D01*
X5220Y1199D02*
X53689Y1199D01*
X55023Y1199D02*
X83680Y1199D01*
X86500Y1199D02*
X87985Y1199D01*
X0873Y1248D02*
X2321Y1248D01*
X5299Y1248D02*
X53610Y1248D01*
X55102Y1248D02*
X83601Y1248D01*
X86579Y1248D02*
X88027Y1248D01*
X0830Y1298D02*
X2242Y1298D01*
X5378Y1298D02*
X53532Y1298D01*
X55180Y1298D02*
X83522Y1298D01*
X86658Y1298D02*
X88070Y1298D01*
X0800Y1347D02*
X2164Y1347D01*
X5456Y1347D02*
X53453Y1347D01*
X55259Y1347D02*
X83444Y1347D01*
X86736Y1347D02*
X88100Y1347D01*
X0770Y1397D02*
X2085Y1397D01*
X5535Y1397D02*
X53391Y1397D01*
X55321Y1397D02*
X83365Y1397D01*
X86815Y1397D02*
X88130Y1397D01*
X0739Y1447D02*
X2006Y1447D01*
X5614Y1447D02*
X53342Y1447D01*
X55370Y1447D02*
X83286Y1447D01*
X86894Y1447D02*
X88161Y1447D01*
X0709Y1496D02*
X1936Y1496D01*
X5684Y1496D02*
X53292Y1496D01*
X55420Y1496D02*
X83216Y1496D01*
X86964Y1496D02*
X88191Y1496D01*
X0678Y1546D02*
X1887Y1546D01*
X5733Y1546D02*
X53243Y1546D01*
X55469Y1546D02*
X83167Y1546D01*
X87013Y1546D02*
X88222Y1546D01*
X0651Y1595D02*
X1837Y1595D01*
X5783Y1595D02*
X53193Y1595D01*
X55519Y1595D02*
X83117Y1595D01*
X87063Y1595D02*
X88249Y1595D01*
X0631Y1645D02*
X1788Y1645D01*
X5832Y1645D02*
X53158Y1645D01*
X55554Y1645D02*
X83068Y1645D01*
X87112Y1645D02*
X88269Y1645D01*
X0610Y1694D02*
X1738Y1694D01*
X5882Y1694D02*
X53127Y1694D01*
X55585Y1694D02*
X83018Y1694D01*
X87162Y1694D02*
X88290Y1694D01*
X0589Y1744D02*
X1689Y1744D01*
X5931Y1744D02*
X53096Y1744D01*
X55616Y1744D02*
X82969Y1744D01*
X87211Y1744D02*
X88311Y1744D01*
X0569Y1793D02*
X1639Y1793D01*
X5981Y1793D02*
X53065Y1793D01*
X55647Y1793D02*
X82919Y1793D01*
X87261Y1793D02*
X88331Y1793D01*
X0548Y1843D02*
X1590Y1843D01*
X6030Y1843D02*
X53034Y1843D01*
X55678Y1843D02*
X82870Y1843D01*
X87310Y1843D02*
X88352Y1843D01*
X0529Y1892D02*
X1540Y1892D01*
X6080Y1892D02*
X53004Y1892D01*
X55708Y1892D02*
X82820Y1892D01*
X87360Y1892D02*
X88371Y1892D01*
X0517Y1942D02*
X1491Y1942D01*
X6129Y1942D02*
X52986Y1942D01*
X55726Y1942D02*
X82771Y1942D01*
X87409Y1942D02*
X88383Y1942D01*
X0505Y1991D02*
X1456Y1991D01*
X6164Y1991D02*
X52969Y1991D01*
X55743Y1991D02*
X82736Y1991D01*
X87444Y1991D02*
X88395Y1991D01*
X0493Y2041D02*
X1425Y2041D01*
X6195Y2041D02*
X52952Y2041D01*
X55760Y2041D02*
X82705Y2041D01*
X87475Y2041D02*
X88407Y2041D01*
X0481Y2090D02*
X1393Y2090D01*
X6227Y2090D02*
X52934Y2090D01*
X55778Y2090D02*
X82673Y2090D01*
X87507Y2090D02*
X88419Y2090D01*
X0469Y2140D02*
X1362Y2140D01*
X6258Y2140D02*
X52917Y2140D01*
X55795Y2140D02*
X82642Y2140D01*
X87538Y2140D02*
X88431Y2140D01*
X0458Y2189D02*
X1331Y2189D01*
X6289Y2189D02*
X52900Y2189D01*
X55812Y2189D02*
X82611Y2189D01*
X87569Y2189D02*
X88442Y2189D01*
X0450Y2239D02*
X1300Y2239D01*
X6320Y2239D02*
X52890Y2239D01*
X55822Y2239D02*
X82580Y2239D01*
X87600Y2239D02*
X88450Y2239D01*
X0447Y2289D02*
X1269Y2289D01*
X6351Y2289D02*
X52885Y2289D01*
X55827Y2289D02*
X82549Y2289D01*
X87631Y2289D02*
X88453Y2289D01*
X0443Y2338D02*
X1238Y2338D01*
X6382Y2338D02*
X52879Y2338D01*
X55833Y2338D02*
X82518Y2338D01*
X87662Y2338D02*
X88457Y2338D01*
X0439Y2388D02*
X1207Y2388D01*
X6413Y2388D02*
X52873Y2388D01*
X55839Y2388D02*
X82487Y2388D01*
X87693Y2388D02*
X88461Y2388D01*
X0435Y2437D02*
X1176Y2437D01*
X6444Y2437D02*
X52868Y2437D01*
X55844Y2437D02*
X82456Y2437D01*
X87724Y2437D02*
X88465Y2437D01*
X0432Y2487D02*
X1144Y2487D01*
X6476Y2487D02*
X52862Y2487D01*
X55850Y2487D02*
X82424Y2487D01*
X87756Y2487D02*
X88468Y2487D01*
X0432Y2536D02*
X1119Y2536D01*
X6501Y2536D02*
X52857Y2536D01*
X55855Y2536D02*
X82399Y2536D01*
X87781Y2536D02*
X88468Y2536D01*
X0432Y2586D02*
X1101Y2586D01*
X6519Y2586D02*
X52861Y2586D01*
X55851Y2586D02*
X82381Y2586D01*
X87799Y2586D02*
X88468Y2586D01*
X0432Y2635D02*
X1084Y2635D01*
X6536Y2635D02*
X52867Y2635D01*
X55845Y2635D02*
X82364Y2635D01*
X87816Y2635D02*
X88468Y2635D01*
X0432Y2685D02*
X1067Y2685D01*
X6553Y2685D02*
X52873Y2685D01*
X55839Y2685D02*
X82347Y2685D01*
X87833Y2685D02*
X88468Y2685D01*
X0432Y2734D02*
X1049Y2734D01*
X6571Y2734D02*
X52878Y2734D01*
X55834Y2734D02*
X82329Y2734D01*
X87851Y2734D02*
X88468Y2734D01*
X0432Y2784D02*
X1032Y2784D01*
X6588Y2784D02*
X52884Y2784D01*
X55828Y2784D02*
X82312Y2784D01*
X87868Y2784D02*
X88468Y2784D01*
X0432Y2833D02*
X1015Y2833D01*
X6605Y2833D02*
X52889Y2833D01*
X55823Y2833D02*
X82295Y2833D01*
X87885Y2833D02*
X88468Y2833D01*
X0432Y2883D02*
X0997Y2883D01*
X6623Y2883D02*
X52897Y2883D01*
X55815Y2883D02*
X82277Y2883D01*
X87903Y2883D02*
X88468Y2883D01*
X0432Y2932D02*
X0980Y2932D01*
X6640Y2932D02*
X52914Y2932D01*
X55798Y2932D02*
X82260Y2932D01*
X87920Y2932D02*
X88468Y2932D01*
X0432Y2982D02*
X0963Y2982D01*
X6657Y2982D02*
X52932Y2982D01*
X55780Y2982D02*
X82243Y2982D01*
X87937Y2982D02*
X88468Y2982D01*
X0432Y3031D02*
X0945Y3031D01*
X6675Y3031D02*
X52949Y3031D01*
X55763Y3031D02*
X82225Y3031D01*
X87955Y3031D02*
X88468Y3031D01*
X0432Y3081D02*
X0928Y3081D01*
X6692Y3081D02*
X52966Y3081D01*
X55746Y3081D02*
X82208Y3081D01*
X87972Y3081D02*
X88468Y3081D01*
X0432Y3131D02*
X0911Y3131D01*
X6709Y3131D02*
X52984Y3131D01*
X55728Y3131D02*
X82191Y3131D01*
X87989Y3131D02*
X88468Y3131D01*
X0432Y3180D02*
X0901Y3180D01*
X6719Y3180D02*
X53001Y3180D01*
X55711Y3180D02*
X82181Y3180D01*
X87999Y3180D02*
X88468Y3180D01*
X0432Y3230D02*
X0896Y3230D01*
X6724Y3230D02*
X53029Y3230D01*
X55683Y3230D02*
X82176Y3230D01*
X88004Y3230D02*
X88468Y3230D01*
X0432Y3279D02*
X0890Y3279D01*
X6730Y3279D02*
X53060Y3279D01*
X55652Y3279D02*
X82170Y3279D01*
X88010Y3279D02*
X88468Y3279D01*
X0432Y3329D02*
X0884Y3329D01*
X6736Y3329D02*
X53091Y3329D01*
X55621Y3329D02*
X82164Y3329D01*
X88016Y3329D02*
X88468Y3329D01*
X0432Y3378D02*
X0879Y3378D01*
X6741Y3378D02*
X53123Y3378D01*
X55589Y3378D02*
X82159Y3378D01*
X88021Y3378D02*
X88468Y3378D01*
X0432Y3428D02*
X0873Y3428D01*
X6747Y3428D02*
X53154Y3428D01*
X55558Y3428D02*
X82153Y3428D01*
X88027Y3428D02*
X88468Y3428D01*
X0432Y3477D02*
X0868Y3477D01*
X6752Y3477D02*
X53186Y3477D01*
X55526Y3477D02*
X82148Y3477D01*
X88032Y3477D02*
X88468Y3477D01*
X0432Y3527D02*
X0862Y3527D01*
X6758Y3527D02*
X53235Y3527D01*
X55477Y3527D02*
X82142Y3527D01*
X88038Y3527D02*
X88468Y3527D01*
X0432Y3576D02*
X0857Y3576D01*
X6763Y3576D02*
X53285Y3576D01*
X55427Y3576D02*
X82137Y3576D01*
X88043Y3576D02*
X88468Y3576D01*
X0432Y3626D02*
X0851Y3626D01*
X6769Y3626D02*
X53334Y3626D01*
X55378Y3626D02*
X82131Y3626D01*
X88049Y3626D02*
X88468Y3626D01*
X0432Y3675D02*
X0845Y3675D01*
X6775Y3675D02*
X53384Y3675D01*
X55328Y3675D02*
X82125Y3675D01*
X88055Y3675D02*
X88468Y3675D01*
X0432Y3725D02*
X0848Y3725D01*
X6772Y3725D02*
X53441Y3725D01*
X55271Y3725D02*
X82128Y3725D01*
X88052Y3725D02*
X88468Y3725D01*
X0432Y3774D02*
X1085Y3774D01*
X6535Y3774D02*
X53519Y3774D01*
X55193Y3774D02*
X82365Y3774D01*
X87815Y3774D02*
X88468Y3774D01*
X0432Y3824D02*
X1085Y3824D01*
X6535Y3824D02*
X53598Y3824D01*
X55114Y3824D02*
X82365Y3824D01*
X87815Y3824D02*
X88468Y3824D01*
X0432Y3873D02*
X1085Y3873D01*
X6535Y3873D02*
X53677Y3873D01*
X55035Y3873D02*
X82365Y3873D01*
X87815Y3873D02*
X88468Y3873D01*
X0432Y3923D02*
X0843Y3923D01*
X6777Y3923D02*
X53796Y3923D01*
X54916Y3923D02*
X82123Y3923D01*
X88057Y3923D02*
X88468Y3923D01*
X0432Y3973D02*
X0849Y3973D01*
X6771Y3973D02*
X53938Y3973D01*
X54774Y3973D02*
X82129Y3973D01*
X88051Y3973D02*
X88468Y3973D01*
X0432Y4022D02*
X0854Y4022D01*
X6766Y4022D02*
X54199Y4022D01*
X54513Y4022D02*
X82134Y4022D01*
X88046Y4022D02*
X88468Y4022D01*
X0432Y4072D02*
X0860Y4072D01*
X6760Y4072D02*
X82140Y4072D01*
X88040Y4072D02*
X88468Y4072D01*
X0432Y4121D02*
X0865Y4121D01*
X6755Y4121D02*
X82145Y4121D01*
X88035Y4121D02*
X88468Y4121D01*
X0432Y4171D02*
X0871Y4171D01*
X6749Y4171D02*
X82151Y4171D01*
X88029Y4171D02*
X88468Y4171D01*
X0432Y4220D02*
X0876Y4220D01*
X6744Y4220D02*
X82156Y4220D01*
X88024Y4220D02*
X88468Y4220D01*
X0432Y4270D02*
X0882Y4270D01*
X6738Y4270D02*
X82162Y4270D01*
X88018Y4270D02*
X88468Y4270D01*
X0432Y4319D02*
X0888Y4319D01*
X6732Y4319D02*
X82168Y4319D01*
X88012Y4319D02*
X88468Y4319D01*
X0432Y4369D02*
X0893Y4369D01*
X6727Y4369D02*
X82173Y4369D01*
X88007Y4369D02*
X88468Y4369D01*
X0432Y4418D02*
X0899Y4418D01*
X6721Y4418D02*
X82179Y4418D01*
X88001Y4418D02*
X88468Y4418D01*
X0432Y4468D02*
X0904Y4468D01*
X6716Y4468D02*
X82184Y4468D01*
X87996Y4468D02*
X88468Y4468D01*
X0432Y4517D02*
X0920Y4517D01*
X6700Y4517D02*
X82200Y4517D01*
X87980Y4517D02*
X88468Y4517D01*
X0432Y4567D02*
X0938Y4567D01*
X6682Y4567D02*
X82218Y4567D01*
X87962Y4567D02*
X88468Y4567D01*
X0432Y4616D02*
X0955Y4616D01*
X6665Y4616D02*
X82235Y4616D01*
X87945Y4616D02*
X88468Y4616D01*
X0432Y4666D02*
X0972Y4666D01*
X6648Y4666D02*
X82252Y4666D01*
X87928Y4666D02*
X88468Y4666D01*
X0432Y4716D02*
X0990Y4716D01*
X6630Y4716D02*
X82270Y4716D01*
X87910Y4716D02*
X88468Y4716D01*
X0432Y4765D02*
X1007Y4765D01*
X6613Y4765D02*
X82287Y4765D01*
X87893Y4765D02*
X88468Y4765D01*
X0432Y4815D02*
X1024Y4815D01*
X6596Y4815D02*
X82304Y4815D01*
X87876Y4815D02*
X88468Y4815D01*
X0432Y4864D02*
X1042Y4864D01*
X6578Y4864D02*
X82322Y4864D01*
X87858Y4864D02*
X88468Y4864D01*
X0432Y4914D02*
X1059Y4914D01*
X6561Y4914D02*
X82339Y4914D01*
X87841Y4914D02*
X88468Y4914D01*
X0432Y4963D02*
X1076Y4963D01*
X6544Y4963D02*
X82356Y4963D01*
X87824Y4963D02*
X88468Y4963D01*
X0432Y5013D02*
X1094Y5013D01*
X6526Y5013D02*
X82374Y5013D01*
X87806Y5013D02*
X88468Y5013D01*
X0432Y5062D02*
X1111Y5062D01*
X6509Y5062D02*
X82391Y5062D01*
X87789Y5062D02*
X88468Y5062D01*
X0432Y5112D02*
X1131Y5112D01*
X6489Y5112D02*
X82411Y5112D01*
X87769Y5112D02*
X88468Y5112D01*
X0432Y5161D02*
X1162Y5161D01*
X6458Y5161D02*
X82442Y5161D01*
X87738Y5161D02*
X88468Y5161D01*
X0432Y5211D02*
X1193Y5211D01*
X6427Y5211D02*
X82473Y5211D01*
X87707Y5211D02*
X88468Y5211D01*
X0432Y5260D02*
X1224Y5260D01*
X6396Y5260D02*
X82504Y5260D01*
X87676Y5260D02*
X88468Y5260D01*
X0432Y5310D02*
X1255Y5310D01*
X6365Y5310D02*
X82535Y5310D01*
X87645Y5310D02*
X88468Y5310D01*
X0432Y5359D02*
X1287Y5359D01*
X6333Y5359D02*
X82567Y5359D01*
X87613Y5359D02*
X88468Y5359D01*
X0432Y5409D02*
X1318Y5409D01*
X6302Y5409D02*
X82598Y5409D01*
X87582Y5409D02*
X88468Y5409D01*
X0432Y5458D02*
X1349Y5458D01*
X6271Y5458D02*
X82629Y5458D01*
X87551Y5458D02*
X88468Y5458D01*
X0432Y5508D02*
X1380Y5508D01*
X6240Y5508D02*
X82660Y5508D01*
X87520Y5508D02*
X88468Y5508D01*
X0432Y5558D02*
X1411Y5558D01*
X6209Y5558D02*
X82691Y5558D01*
X87489Y5558D02*
X88468Y5558D01*
X0432Y5607D02*
X1442Y5607D01*
X6178Y5607D02*
X82722Y5607D01*
X87458Y5607D02*
X88468Y5607D01*
X0432Y5657D02*
X1473Y5657D01*
X6147Y5657D02*
X82753Y5657D01*
X87427Y5657D02*
X88468Y5657D01*
X0432Y5706D02*
X1519Y5706D01*
X6101Y5706D02*
X82799Y5706D01*
X87381Y5706D02*
X88468Y5706D01*
X0432Y5756D02*
X1568Y5756D01*
X6052Y5756D02*
X82848Y5756D01*
X87332Y5756D02*
X88468Y5756D01*
X0432Y5805D02*
X1618Y5805D01*
X6002Y5805D02*
X82898Y5805D01*
X87282Y5805D02*
X88468Y5805D01*
X0432Y5855D02*
X1667Y5855D01*
X5953Y5855D02*
X82947Y5855D01*
X87233Y5855D02*
X88468Y5855D01*
X0432Y5904D02*
X1717Y5904D01*
X5903Y5904D02*
X82997Y5904D01*
X87183Y5904D02*
X88468Y5904D01*
X0432Y5954D02*
X1766Y5954D01*
X5854Y5954D02*
X83046Y5954D01*
X87134Y5954D02*
X88468Y5954D01*
X0432Y6003D02*
X1816Y6003D01*
X5804Y6003D02*
X83096Y6003D01*
X87084Y6003D02*
X88468Y6003D01*
X0432Y6053D02*
X1865Y6053D01*
X5755Y6053D02*
X83145Y6053D01*
X87035Y6053D02*
X88468Y6053D01*
X0432Y6102D02*
X1915Y6102D01*
X5705Y6102D02*
X83195Y6102D01*
X86985Y6102D02*
X88468Y6102D01*
X0432Y6152D02*
X1972Y6152D01*
X5648Y6152D02*
X83252Y6152D01*
X86928Y6152D02*
X88468Y6152D01*
X0432Y6201D02*
X2050Y6201D01*
X5570Y6201D02*
X83330Y6201D01*
X86850Y6201D02*
X88468Y6201D01*
X0432Y6251D02*
X2129Y6251D01*
X5491Y6251D02*
X83409Y6251D01*
X86771Y6251D02*
X88468Y6251D01*
X0432Y6300D02*
X2208Y6300D01*
X5412Y6300D02*
X83488Y6300D01*
X86692Y6300D02*
X88468Y6300D01*
X0432Y6350D02*
X2287Y6350D01*
X5333Y6350D02*
X83567Y6350D01*
X86613Y6350D02*
X88468Y6350D01*
X0432Y6400D02*
X2366Y6400D01*
X5254Y6400D02*
X83646Y6400D01*
X86534Y6400D02*
X88468Y6400D01*
X0432Y6449D02*
X2445Y6449D01*
X5175Y6449D02*
X11789Y6449D01*
X13919Y6449D02*
X75504Y6449D01*
X75572Y6449D02*
X83725Y6449D01*
X86455Y6449D02*
X88468Y6449D01*
X0432Y6499D02*
X2528Y6499D01*
X5092Y6499D02*
X11683Y6499D01*
X14025Y6499D02*
X75196Y6499D01*
X75880Y6499D02*
X83808Y6499D01*
X86372Y6499D02*
X88468Y6499D01*
X0432Y6548D02*
X2670Y6548D01*
X3734Y6548D02*
X3886Y6548D01*
X4950Y6548D02*
X11638Y6548D01*
X14070Y6548D02*
X75055Y6548D01*
X76021Y6548D02*
X83950Y6548D01*
X86230Y6548D02*
X88468Y6548D01*
X0432Y6598D02*
X2811Y6598D01*
X3734Y6598D02*
X3886Y6598D01*
X4809Y6598D02*
X11613Y6598D01*
X14095Y6598D02*
X74949Y6598D01*
X76127Y6598D02*
X84091Y6598D01*
X86089Y6598D02*
X88468Y6598D01*
X0432Y6647D02*
X2953Y6647D01*
X3734Y6647D02*
X3886Y6647D01*
X4667Y6647D02*
X11602Y6647D01*
X14106Y6647D02*
X74870Y6647D01*
X76206Y6647D02*
X84233Y6647D01*
X85947Y6647D02*
X88468Y6647D01*
X0432Y6697D02*
X3095Y6697D01*
X3734Y6697D02*
X3886Y6697D01*
X4525Y6697D02*
X11599Y6697D01*
X14109Y6697D02*
X74791Y6697D01*
X76285Y6697D02*
X84375Y6697D01*
X85805Y6697D02*
X88468Y6697D01*
X0432Y6746D02*
X3424Y6746D01*
X3734Y6746D02*
X3886Y6746D01*
X4196Y6746D02*
X11599Y6746D01*
X14109Y6746D02*
X74728Y6746D01*
X76348Y6746D02*
X84704Y6746D01*
X85476Y6746D02*
X88468Y6746D01*
X0432Y6796D02*
X11599Y6796D01*
X14109Y6796D02*
X74679Y6796D01*
X76397Y6796D02*
X88468Y6796D01*
X0432Y6845D02*
X11599Y6845D01*
X14109Y6845D02*
X74629Y6845D01*
X76447Y6845D02*
X88468Y6845D01*
X0432Y6895D02*
X11599Y6895D01*
X14109Y6895D02*
X74580Y6895D01*
X76496Y6895D02*
X88468Y6895D01*
X0432Y6944D02*
X11599Y6944D01*
X14109Y6944D02*
X74540Y6944D01*
X76536Y6944D02*
X88468Y6944D01*
X0432Y6994D02*
X11599Y6994D01*
X14109Y6994D02*
X74509Y6994D01*
X76567Y6994D02*
X88468Y6994D01*
X0432Y7043D02*
X11599Y7043D01*
X14109Y7043D02*
X74478Y7043D01*
X76598Y7043D02*
X88468Y7043D01*
X0432Y7093D02*
X11599Y7093D01*
X14109Y7093D02*
X74447Y7093D01*
X76629Y7093D02*
X88468Y7093D01*
X0432Y7142D02*
X11599Y7142D01*
X14109Y7142D02*
X74416Y7142D01*
X76660Y7142D02*
X88468Y7142D01*
X0432Y7192D02*
X11599Y7192D01*
X14109Y7192D02*
X74395Y7192D01*
X76681Y7192D02*
X88468Y7192D01*
X0432Y7242D02*
X11599Y7242D01*
X14109Y7242D02*
X74377Y7242D01*
X76699Y7242D02*
X88468Y7242D01*
X0432Y7291D02*
X11599Y7291D01*
X14109Y7291D02*
X74360Y7291D01*
X76716Y7291D02*
X88468Y7291D01*
X0432Y7341D02*
X11599Y7341D01*
X14109Y7341D02*
X74343Y7341D01*
X76733Y7341D02*
X88468Y7341D01*
X0432Y7390D02*
X11599Y7390D01*
X14109Y7390D02*
X74325Y7390D01*
X76751Y7390D02*
X88468Y7390D01*
X0432Y7440D02*
X11599Y7440D01*
X14109Y7440D02*
X74313Y7440D01*
X76763Y7440D02*
X88468Y7440D01*
X0432Y7489D02*
X11599Y7489D01*
X14109Y7489D02*
X74307Y7489D01*
X76769Y7489D02*
X88468Y7489D01*
X0432Y7539D02*
X11599Y7539D01*
X14109Y7539D02*
X74301Y7539D01*
X76775Y7539D02*
X88468Y7539D01*
X0432Y7588D02*
X11599Y7588D01*
X14109Y7588D02*
X74296Y7588D01*
X76780Y7588D02*
X88468Y7588D01*
X0432Y7638D02*
X11599Y7638D01*
X14109Y7638D02*
X74290Y7638D01*
X76786Y7638D02*
X88468Y7638D01*
X0432Y7687D02*
X11599Y7687D01*
X14109Y7687D02*
X74285Y7687D01*
X76791Y7687D02*
X88468Y7687D01*
X0432Y7737D02*
X11599Y7737D01*
X14109Y7737D02*
X74287Y7737D01*
X76789Y7737D02*
X88468Y7737D01*
X0432Y7786D02*
X11599Y7786D01*
X14109Y7786D02*
X74293Y7786D01*
X76783Y7786D02*
X88468Y7786D01*
X0432Y7836D02*
X11599Y7836D01*
X14109Y7836D02*
X74299Y7836D01*
X76777Y7836D02*
X88468Y7836D01*
X0432Y7885D02*
X11599Y7885D01*
X14109Y7885D02*
X74304Y7885D01*
X76772Y7885D02*
X88468Y7885D01*
X0432Y7935D02*
X11599Y7935D01*
X14109Y7935D02*
X74310Y7935D01*
X76766Y7935D02*
X88468Y7935D01*
X0432Y7984D02*
X11599Y7984D01*
X14109Y7984D02*
X74317Y7984D01*
X76759Y7984D02*
X88468Y7984D01*
X0432Y8034D02*
X11599Y8034D01*
X14109Y8034D02*
X74334Y8034D01*
X76742Y8034D02*
X88468Y8034D01*
X0432Y8084D02*
X11599Y8084D01*
X14109Y8084D02*
X74351Y8084D01*
X76725Y8084D02*
X88468Y8084D01*
X0432Y8133D02*
X11599Y8133D01*
X14109Y8133D02*
X74369Y8133D01*
X76707Y8133D02*
X88468Y8133D01*
X0432Y8183D02*
X11599Y8183D01*
X14109Y8183D02*
X74386Y8183D01*
X76690Y8183D02*
X88468Y8183D01*
X0432Y8232D02*
X11599Y8232D01*
X14109Y8232D02*
X74403Y8232D01*
X76673Y8232D02*
X88468Y8232D01*
X0432Y8282D02*
X11599Y8282D01*
X14109Y8282D02*
X74431Y8282D01*
X76645Y8282D02*
X88468Y8282D01*
X0432Y8331D02*
X11599Y8331D01*
X14109Y8331D02*
X74462Y8331D01*
X76614Y8331D02*
X88468Y8331D01*
X0432Y8381D02*
X11599Y8381D01*
X14109Y8381D02*
X74493Y8381D01*
X76583Y8381D02*
X88468Y8381D01*
X0432Y8430D02*
X11599Y8430D01*
X14109Y8430D02*
X74524Y8430D01*
X76552Y8430D02*
X88468Y8430D01*
X0432Y8480D02*
X11599Y8480D01*
X14109Y8480D02*
X74555Y8480D01*
X76521Y8480D02*
X88468Y8480D01*
X0432Y8529D02*
X11599Y8529D01*
X14109Y8529D02*
X74604Y8529D01*
X76472Y8529D02*
X88468Y8529D01*
X0432Y8579D02*
X11599Y8579D01*
X14109Y8579D02*
X74654Y8579D01*
X76422Y8579D02*
X88468Y8579D01*
X0432Y8628D02*
X11599Y8628D01*
X14109Y8628D02*
X74703Y8628D01*
X76373Y8628D02*
X88468Y8628D01*
X0432Y8678D02*
X11599Y8678D01*
X14109Y8678D02*
X33879Y8678D01*
X34193Y8678D02*
X74753Y8678D01*
X76323Y8678D02*
X88468Y8678D01*
X0432Y8727D02*
X11600Y8727D01*
X14108Y8727D02*
X33618Y8727D01*
X34454Y8727D02*
X74830Y8727D01*
X76246Y8727D02*
X88468Y8727D01*
X0432Y8777D02*
X11606Y8777D01*
X14102Y8777D02*
X33476Y8777D01*
X34596Y8777D02*
X74908Y8777D01*
X76168Y8777D02*
X88468Y8777D01*
X0432Y8826D02*
X11623Y8826D01*
X14085Y8826D02*
X33357Y8826D01*
X34715Y8826D02*
X74987Y8826D01*
X76089Y8826D02*
X88468Y8826D01*
X0432Y8876D02*
X11657Y8876D01*
X14051Y8876D02*
X33278Y8876D01*
X34794Y8876D02*
X75124Y8876D01*
X75952Y8876D02*
X88468Y8876D01*
X0432Y8926D02*
X11718Y8926D01*
X13990Y8926D02*
X33199Y8926D01*
X34873Y8926D02*
X75279Y8926D01*
X75797Y8926D02*
X88468Y8926D01*
X0432Y8975D02*
X33121Y8975D01*
X34951Y8975D02*
X88468Y8975D01*
X0432Y9025D02*
X33064Y9025D01*
X35008Y9025D02*
X88468Y9025D01*
X0432Y9074D02*
X33014Y9074D01*
X35058Y9074D02*
X88468Y9074D01*
X0432Y9124D02*
X32965Y9124D01*
X35107Y9124D02*
X88468Y9124D01*
X0432Y9173D02*
X32915Y9173D01*
X35157Y9173D02*
X88468Y9173D01*
X0432Y9223D02*
X32866Y9223D01*
X35206Y9223D02*
X88468Y9223D01*
X0432Y9272D02*
X32834Y9272D01*
X35238Y9272D02*
X88468Y9272D01*
X0432Y9322D02*
X32803Y9322D01*
X35269Y9322D02*
X88468Y9322D01*
X0432Y9371D02*
X32771Y9371D01*
X35301Y9371D02*
X88468Y9371D01*
X0432Y9421D02*
X32740Y9421D01*
X35332Y9421D02*
X88468Y9421D01*
X0432Y9470D02*
X32709Y9470D01*
X35363Y9470D02*
X88468Y9470D01*
X0432Y9520D02*
X32681Y9520D01*
X35391Y9520D02*
X88468Y9520D01*
X0432Y9569D02*
X32664Y9569D01*
X35408Y9569D02*
X88468Y9569D01*
X0432Y9619D02*
X32646Y9619D01*
X35426Y9619D02*
X88468Y9619D01*
X0432Y9669D02*
X32629Y9669D01*
X35443Y9669D02*
X88468Y9669D01*
X0432Y9718D02*
X32612Y9718D01*
X35460Y9718D02*
X88468Y9718D01*
X0432Y9768D02*
X32594Y9768D01*
X35478Y9768D02*
X88468Y9768D01*
X0432Y9817D02*
X32577Y9817D01*
X35495Y9817D02*
X88468Y9817D01*
X0432Y9867D02*
X32569Y9867D01*
X35503Y9867D02*
X88468Y9867D01*
X0432Y9916D02*
X32564Y9916D01*
X35508Y9916D02*
X88468Y9916D01*
X0432Y9966D02*
X32558Y9966D01*
X35514Y9966D02*
X88468Y9966D01*
X0432Y10015D02*
X32553Y10015D01*
X35519Y10015D02*
X88468Y10015D01*
X0432Y10065D02*
X32547Y10065D01*
X35525Y10065D02*
X88468Y10065D01*
X0432Y10114D02*
X32541Y10114D01*
X35531Y10114D02*
X88468Y10114D01*
X0432Y10164D02*
X32537Y10164D01*
X35535Y10164D02*
X88468Y10164D01*
X0432Y10213D02*
X32542Y10213D01*
X35530Y10213D02*
X88468Y10213D01*
X0432Y10263D02*
X32548Y10263D01*
X35524Y10263D02*
X88468Y10263D01*
X0432Y10312D02*
X32553Y10312D01*
X35519Y10312D02*
X88468Y10312D01*
X0432Y10362D02*
X32559Y10362D01*
X35513Y10362D02*
X88468Y10362D01*
X0432Y10411D02*
X32565Y10411D01*
X35507Y10411D02*
X88468Y10411D01*
X0432Y10461D02*
X32570Y10461D01*
X35502Y10461D02*
X88468Y10461D01*
X0432Y10511D02*
X32580Y10511D01*
X35492Y10511D02*
X88468Y10511D01*
X0432Y10560D02*
X32597Y10560D01*
X35475Y10560D02*
X88468Y10560D01*
X0432Y10610D02*
X32614Y10610D01*
X35458Y10610D02*
X88468Y10610D01*
X0432Y10659D02*
X32632Y10659D01*
X35440Y10659D02*
X88468Y10659D01*
X0432Y10709D02*
X32649Y10709D01*
X35423Y10709D02*
X88468Y10709D01*
X0432Y10758D02*
X32666Y10758D01*
X35406Y10758D02*
X88468Y10758D01*
X0432Y10808D02*
X32684Y10808D01*
X35388Y10808D02*
X88468Y10808D01*
X0432Y10857D02*
X32714Y10857D01*
X35358Y10857D02*
X88468Y10857D01*
X0432Y10907D02*
X32745Y10907D01*
X35327Y10907D02*
X88468Y10907D01*
X0432Y10956D02*
X32776Y10956D01*
X35296Y10956D02*
X88468Y10956D01*
X0432Y11006D02*
X32807Y11006D01*
X35265Y11006D02*
X88468Y11006D01*
X0432Y11055D02*
X32838Y11055D01*
X35234Y11055D02*
X88468Y11055D01*
X0432Y11105D02*
X32873Y11105D01*
X35199Y11105D02*
X88468Y11105D01*
X0432Y11154D02*
X32923Y11154D01*
X35149Y11154D02*
X88468Y11154D01*
X0432Y11204D02*
X32972Y11204D01*
X35100Y11204D02*
X54323Y11204D01*
X54389Y11204D02*
X88468Y11204D01*
X0432Y11253D02*
X33022Y11253D01*
X35050Y11253D02*
X53978Y11253D01*
X54734Y11253D02*
X88468Y11253D01*
X0432Y11303D02*
X33071Y11303D01*
X35001Y11303D02*
X53836Y11303D01*
X54876Y11303D02*
X88468Y11303D01*
X0432Y11353D02*
X33133Y11353D01*
X34939Y11353D02*
X53699Y11353D01*
X55013Y11353D02*
X88468Y11353D01*
X0432Y11402D02*
X33212Y11402D01*
X34860Y11402D02*
X53620Y11402D01*
X55092Y11402D02*
X88468Y11402D01*
X0432Y11452D02*
X12798Y11452D01*
X12910Y11452D02*
X33290Y11452D01*
X34782Y11452D02*
X53542Y11452D01*
X55170Y11452D02*
X75482Y11452D01*
X75594Y11452D02*
X88468Y11452D01*
X0432Y11501D02*
X12505Y11501D01*
X13203Y11501D02*
X33369Y11501D01*
X34703Y11501D02*
X53463Y11501D01*
X55249Y11501D02*
X75189Y11501D01*
X75887Y11501D02*
X88468Y11501D01*
X0432Y11551D02*
X12363Y11551D01*
X13345Y11551D02*
X33498Y11551D01*
X34574Y11551D02*
X53398Y11551D01*
X55314Y11551D02*
X75047Y11551D01*
X76029Y11551D02*
X88468Y11551D01*
X0432Y11600D02*
X12261Y11600D01*
X13447Y11600D02*
X33639Y11600D01*
X34433Y11600D02*
X53348Y11600D01*
X55364Y11600D02*
X74945Y11600D01*
X76131Y11600D02*
X88468Y11600D01*
X0432Y11650D02*
X12182Y11650D01*
X13526Y11650D02*
X33947Y11650D01*
X34125Y11650D02*
X53299Y11650D01*
X55413Y11650D02*
X74866Y11650D01*
X76210Y11650D02*
X88468Y11650D01*
X0432Y11699D02*
X12103Y11699D01*
X13605Y11699D02*
X53249Y11699D01*
X55463Y11699D02*
X74787Y11699D01*
X76289Y11699D02*
X88468Y11699D01*
X0432Y11749D02*
X12042Y11749D01*
X13666Y11749D02*
X53200Y11749D01*
X55512Y11749D02*
X74726Y11749D01*
X76350Y11749D02*
X88468Y11749D01*
X0432Y11798D02*
X11992Y11798D01*
X13716Y11798D02*
X53162Y11798D01*
X55550Y11798D02*
X74676Y11798D01*
X76400Y11798D02*
X88468Y11798D01*
X0432Y11848D02*
X11943Y11848D01*
X13765Y11848D02*
X53131Y11848D01*
X55581Y11848D02*
X74627Y11848D01*
X76449Y11848D02*
X88468Y11848D01*
X0432Y11897D02*
X11893Y11897D01*
X13815Y11897D02*
X53100Y11897D01*
X55612Y11897D02*
X74577Y11897D01*
X76499Y11897D02*
X88468Y11897D01*
X0432Y11947D02*
X11855Y11947D01*
X13853Y11947D02*
X53069Y11947D01*
X55643Y11947D02*
X74539Y11947D01*
X76537Y11947D02*
X88468Y11947D01*
X0432Y11996D02*
X11824Y11996D01*
X13884Y11996D02*
X53038Y11996D01*
X55674Y11996D02*
X74508Y11996D01*
X76568Y11996D02*
X88468Y11996D01*
X0432Y12046D02*
X11792Y12046D01*
X13916Y12046D02*
X53007Y12046D01*
X55705Y12046D02*
X74476Y12046D01*
X76600Y12046D02*
X88468Y12046D01*
X0432Y12095D02*
X11761Y12095D01*
X13947Y12095D02*
X52989Y12095D01*
X55723Y12095D02*
X74445Y12095D01*
X76631Y12095D02*
X88468Y12095D01*
X0432Y12145D02*
X11730Y12145D01*
X13978Y12145D02*
X52971Y12145D01*
X55741Y12145D02*
X74414Y12145D01*
X76662Y12145D02*
X88468Y12145D01*
X0432Y12195D02*
X11710Y12195D01*
X13998Y12195D02*
X52954Y12195D01*
X55758Y12195D02*
X74394Y12195D01*
X76682Y12195D02*
X88468Y12195D01*
X0432Y12244D02*
X11693Y12244D01*
X14015Y12244D02*
X52937Y12244D01*
X55775Y12244D02*
X74377Y12244D01*
X76699Y12244D02*
X88468Y12244D01*
X0432Y12294D02*
X11675Y12294D01*
X14033Y12294D02*
X52919Y12294D01*
X55793Y12294D02*
X74359Y12294D01*
X76717Y12294D02*
X88468Y12294D01*
X0432Y12343D02*
X11658Y12343D01*
X14050Y12343D02*
X52902Y12343D01*
X55810Y12343D02*
X74342Y12343D01*
X76734Y12343D02*
X88468Y12343D01*
X0432Y12393D02*
X11641Y12393D01*
X14067Y12393D02*
X52891Y12393D01*
X55821Y12393D02*
X74325Y12393D01*
X76751Y12393D02*
X88468Y12393D01*
X0432Y12442D02*
X11628Y12442D01*
X14080Y12442D02*
X52885Y12442D01*
X55827Y12442D02*
X74312Y12442D01*
X76764Y12442D02*
X88468Y12442D01*
X0432Y12492D02*
X11623Y12492D01*
X14085Y12492D02*
X52880Y12492D01*
X55832Y12492D02*
X74307Y12492D01*
X76769Y12492D02*
X88468Y12492D01*
X0432Y12541D02*
X11617Y12541D01*
X14091Y12541D02*
X52874Y12541D01*
X55838Y12541D02*
X74301Y12541D01*
X76775Y12541D02*
X88468Y12541D01*
X0432Y12591D02*
X11612Y12591D01*
X14096Y12591D02*
X52869Y12591D01*
X55843Y12591D02*
X74296Y12591D01*
X76780Y12591D02*
X88468Y12591D01*
X0432Y12640D02*
X11606Y12640D01*
X14102Y12640D02*
X52863Y12640D01*
X55849Y12640D02*
X74290Y12640D01*
X76786Y12640D02*
X88468Y12640D01*
X0432Y12690D02*
X11600Y12690D01*
X14108Y12690D02*
X52857Y12690D01*
X55855Y12690D02*
X74284Y12690D01*
X76792Y12690D02*
X88468Y12690D01*
X0432Y12739D02*
X11604Y12739D01*
X14104Y12739D02*
X52861Y12739D01*
X55851Y12739D02*
X74288Y12739D01*
X76788Y12739D02*
X88468Y12739D01*
X0432Y12789D02*
X11609Y12789D01*
X14099Y12789D02*
X52866Y12789D01*
X55846Y12789D02*
X74293Y12789D01*
X76783Y12789D02*
X88468Y12789D01*
X0432Y12838D02*
X11615Y12838D01*
X14093Y12838D02*
X52872Y12838D01*
X55840Y12838D02*
X74299Y12838D01*
X76777Y12838D02*
X88468Y12838D01*
X0432Y12888D02*
X11620Y12888D01*
X14088Y12888D02*
X52877Y12888D01*
X55835Y12888D02*
X74304Y12888D01*
X76772Y12888D02*
X88468Y12888D01*
X0432Y12937D02*
X11626Y12937D01*
X14082Y12937D02*
X52883Y12937D01*
X55829Y12937D02*
X74310Y12937D01*
X76766Y12937D02*
X88468Y12937D01*
X0432Y12987D02*
X11633Y12987D01*
X14075Y12987D02*
X52889Y12987D01*
X55823Y12987D02*
X74317Y12987D01*
X76759Y12987D02*
X88468Y12987D01*
X0432Y13037D02*
X11651Y13037D01*
X14057Y13037D02*
X52895Y13037D01*
X55817Y13037D02*
X74335Y13037D01*
X76741Y13037D02*
X88468Y13037D01*
X0432Y13086D02*
X11668Y13086D01*
X14040Y13086D02*
X52912Y13086D01*
X55800Y13086D02*
X74352Y13086D01*
X76724Y13086D02*
X88468Y13086D01*
X0432Y13136D02*
X11685Y13136D01*
X14023Y13136D02*
X52929Y13136D01*
X55783Y13136D02*
X74369Y13136D01*
X76707Y13136D02*
X88468Y13136D01*
X0432Y13185D02*
X11703Y13185D01*
X14005Y13185D02*
X52947Y13185D01*
X55765Y13185D02*
X74387Y13185D01*
X76689Y13185D02*
X88468Y13185D01*
X0432Y13235D02*
X11720Y13235D01*
X13988Y13235D02*
X52964Y13235D01*
X55748Y13235D02*
X74404Y13235D01*
X76672Y13235D02*
X88468Y13235D01*
X0432Y13284D02*
X11748Y13284D01*
X13960Y13284D02*
X52981Y13284D01*
X55731Y13284D02*
X74432Y13284D01*
X76644Y13284D02*
X88468Y13284D01*
X0432Y13334D02*
X11780Y13334D01*
X13928Y13334D02*
X52999Y13334D01*
X55713Y13334D02*
X74464Y13334D01*
X76612Y13334D02*
X88468Y13334D01*
X0432Y13383D02*
X11811Y13383D01*
X13897Y13383D02*
X53025Y13383D01*
X55687Y13383D02*
X74495Y13383D01*
X76581Y13383D02*
X88468Y13383D01*
X0432Y13433D02*
X11842Y13433D01*
X13866Y13433D02*
X53056Y13433D01*
X55656Y13433D02*
X74526Y13433D01*
X76550Y13433D02*
X88468Y13433D01*
X0432Y13482D02*
X11873Y13482D01*
X13835Y13482D02*
X53087Y13482D01*
X55625Y13482D02*
X74557Y13482D01*
X76519Y13482D02*
X88468Y13482D01*
X0432Y13532D02*
X11923Y13532D01*
X13785Y13532D02*
X53119Y13532D01*
X55593Y13532D02*
X74607Y13532D01*
X76469Y13532D02*
X88468Y13532D01*
X0432Y13581D02*
X11972Y13581D01*
X13736Y13581D02*
X53150Y13581D01*
X55562Y13581D02*
X74656Y13581D01*
X76420Y13581D02*
X88468Y13581D01*
X0432Y13631D02*
X12022Y13631D01*
X13686Y13631D02*
X53181Y13631D01*
X55531Y13631D02*
X74706Y13631D01*
X76370Y13631D02*
X88468Y13631D01*
X0432Y13680D02*
X12071Y13680D01*
X13637Y13680D02*
X53229Y13680D01*
X55483Y13680D02*
X74755Y13680D01*
X76321Y13680D02*
X88468Y13680D01*
X0432Y13730D02*
X12150Y13730D01*
X13558Y13730D02*
X53278Y13730D01*
X55434Y13730D02*
X74834Y13730D01*
X76242Y13730D02*
X88468Y13730D01*
X0432Y13780D02*
X12228Y13780D01*
X13480Y13780D02*
X33698Y13780D01*
X34374Y13780D02*
X53328Y13780D01*
X55384Y13780D02*
X74912Y13780D01*
X76164Y13780D02*
X88468Y13780D01*
X0432Y13829D02*
X12307Y13829D01*
X13401Y13829D02*
X33556Y13829D01*
X34516Y13829D02*
X53377Y13829D01*
X55335Y13829D02*
X74991Y13829D01*
X76085Y13829D02*
X88468Y13829D01*
X0432Y13879D02*
X12447Y13879D01*
X13261Y13879D02*
X33414Y13879D01*
X34658Y13879D02*
X53430Y13879D01*
X55282Y13879D02*
X75131Y13879D01*
X75945Y13879D02*
X88468Y13879D01*
X0432Y13928D02*
X12617Y13928D01*
X13091Y13928D02*
X33323Y13928D01*
X34749Y13928D02*
X53509Y13928D01*
X55203Y13928D02*
X75301Y13928D01*
X75775Y13928D02*
X88468Y13928D01*
X0432Y13978D02*
X33244Y13978D01*
X34828Y13978D02*
X53588Y13978D01*
X55124Y13978D02*
X88468Y13978D01*
X0432Y14027D02*
X33165Y14027D01*
X34907Y14027D02*
X53667Y14027D01*
X55045Y14027D02*
X88468Y14027D01*
X0432Y14077D02*
X33092Y14077D01*
X34980Y14077D02*
X53778Y14077D01*
X54934Y14077D02*
X88468Y14077D01*
X0432Y14126D02*
X33042Y14126D01*
X35030Y14126D02*
X53920Y14126D01*
X54792Y14126D02*
X88468Y14126D01*
X0432Y14176D02*
X32993Y14176D01*
X35079Y14176D02*
X54143Y14176D01*
X54569Y14176D02*
X88468Y14176D01*
X0432Y14225D02*
X32943Y14225D01*
X35129Y14225D02*
X88468Y14225D01*
X0432Y14275D02*
X32894Y14275D01*
X35178Y14275D02*
X88468Y14275D01*
X0432Y14324D02*
X32851Y14324D01*
X35221Y14324D02*
X88468Y14324D01*
X0432Y14374D02*
X32820Y14374D01*
X35252Y14374D02*
X88468Y14374D01*
X0432Y14423D02*
X32789Y14423D01*
X35283Y14423D02*
X88468Y14423D01*
X0432Y14473D02*
X32758Y14473D01*
X35314Y14473D02*
X88468Y14473D01*
X0432Y14522D02*
X32727Y14522D01*
X35345Y14522D02*
X88468Y14522D01*
X0432Y14572D02*
X32696Y14572D01*
X35376Y14572D02*
X88468Y14572D01*
X0432Y14622D02*
X32673Y14622D01*
X35399Y14622D02*
X88468Y14622D01*
X0432Y14671D02*
X32656Y14671D01*
X35416Y14671D02*
X88468Y14671D01*
X0432Y14721D02*
X32639Y14721D01*
X35433Y14721D02*
X88468Y14721D01*
X0432Y14770D02*
X32621Y14770D01*
X35451Y14770D02*
X88468Y14770D01*
X0432Y14820D02*
X32604Y14820D01*
X35468Y14820D02*
X88468Y14820D01*
X0432Y14869D02*
X32587Y14869D01*
X35485Y14869D02*
X88468Y14869D01*
X0432Y14919D02*
X32572Y14919D01*
X35500Y14919D02*
X88468Y14919D01*
X0432Y14968D02*
X32567Y14968D01*
X35505Y14968D02*
X88468Y14968D01*
X0432Y15018D02*
X32561Y15018D01*
X35511Y15018D02*
X88468Y15018D01*
X0432Y15067D02*
X32556Y15067D01*
X35516Y15067D02*
X88468Y15067D01*
X0432Y15117D02*
X32550Y15117D01*
X35522Y15117D02*
X88468Y15117D01*
X0432Y15166D02*
X32545Y15166D01*
X35527Y15166D02*
X88468Y15166D01*
X0432Y15216D02*
X32539Y15216D01*
X35533Y15216D02*
X88468Y15216D01*
X0432Y15265D02*
X32539Y15265D01*
X35533Y15265D02*
X88468Y15265D01*
X0432Y15315D02*
X32545Y15315D01*
X35527Y15315D02*
X88468Y15315D01*
X0432Y15364D02*
X32550Y15364D01*
X35522Y15364D02*
X88468Y15364D01*
X0432Y15414D02*
X32556Y15414D01*
X35516Y15414D02*
X88468Y15414D01*
X0432Y15464D02*
X32561Y15464D01*
X35511Y15464D02*
X88468Y15464D01*
X0432Y15513D02*
X32567Y15513D01*
X35505Y15513D02*
X88468Y15513D01*
X0432Y15563D02*
X32573Y15563D01*
X35499Y15563D02*
X88468Y15563D01*
X0432Y15612D02*
X32587Y15612D01*
X35485Y15612D02*
X88468Y15612D01*
X0432Y15662D02*
X32605Y15662D01*
X35467Y15662D02*
X88468Y15662D01*
X0432Y15711D02*
X32622Y15711D01*
X35450Y15711D02*
X88468Y15711D01*
X0432Y15761D02*
X32639Y15761D01*
X35433Y15761D02*
X88468Y15761D01*
X0432Y15810D02*
X32657Y15810D01*
X35415Y15810D02*
X88468Y15810D01*
X0432Y15860D02*
X32674Y15860D01*
X35398Y15860D02*
X88468Y15860D01*
X0432Y15909D02*
X32696Y15909D01*
X35376Y15909D02*
X88468Y15909D01*
X0432Y15959D02*
X32728Y15959D01*
X35344Y15959D02*
X88468Y15959D01*
X0432Y16008D02*
X32759Y16008D01*
X35313Y16008D02*
X88468Y16008D01*
X0432Y16058D02*
X32790Y16058D01*
X35282Y16058D02*
X88468Y16058D01*
X0432Y16107D02*
X32821Y16107D01*
X35251Y16107D02*
X88468Y16107D01*
X0432Y16157D02*
X32852Y16157D01*
X35220Y16157D02*
X88468Y16157D01*
X0432Y16206D02*
X32895Y16206D01*
X35177Y16206D02*
X88468Y16206D01*
X0432Y16256D02*
X32944Y16256D01*
X35128Y16256D02*
X88468Y16256D01*
X0432Y16306D02*
X32994Y16306D01*
X35078Y16306D02*
X88468Y16306D01*
X0432Y16355D02*
X33043Y16355D01*
X35029Y16355D02*
X88468Y16355D01*
X0432Y16405D02*
X33093Y16405D01*
X34979Y16405D02*
X88468Y16405D01*
X0432Y16454D02*
X12775Y16454D01*
X12933Y16454D02*
X33167Y16454D01*
X34905Y16454D02*
X74452Y16454D01*
X76624Y16454D02*
X88468Y16454D01*
X0432Y16504D02*
X12498Y16504D01*
X13210Y16504D02*
X33246Y16504D01*
X34826Y16504D02*
X74361Y16504D01*
X76715Y16504D02*
X88468Y16504D01*
X0432Y16553D02*
X12356Y16553D01*
X13352Y16553D02*
X33325Y16553D01*
X34747Y16553D02*
X74319Y16553D01*
X76757Y16553D02*
X88468Y16553D01*
X0432Y16603D02*
X12257Y16603D01*
X13451Y16603D02*
X33418Y16603D01*
X34654Y16603D02*
X74295Y16603D01*
X76781Y16603D02*
X88468Y16603D01*
X0432Y16652D02*
X12178Y16652D01*
X13530Y16652D02*
X33560Y16652D01*
X34512Y16652D02*
X74285Y16652D01*
X76791Y16652D02*
X88468Y16652D01*
X0432Y16702D02*
X12099Y16702D01*
X13609Y16702D02*
X33701Y16702D01*
X34371Y16702D02*
X74283Y16702D01*
X76793Y16702D02*
X88468Y16702D01*
X0432Y16751D02*
X12039Y16751D01*
X13669Y16751D02*
X74283Y16751D01*
X76793Y16751D02*
X88468Y16751D01*
X0432Y16801D02*
X11990Y16801D01*
X13718Y16801D02*
X74283Y16801D01*
X76793Y16801D02*
X88468Y16801D01*
X0432Y16850D02*
X11940Y16850D01*
X13768Y16850D02*
X74283Y16850D01*
X76793Y16850D02*
X88468Y16850D01*
X0432Y16900D02*
X11891Y16900D01*
X13817Y16900D02*
X74283Y16900D01*
X76793Y16900D02*
X88468Y16900D01*
X0432Y16949D02*
X11853Y16949D01*
X13855Y16949D02*
X74283Y16949D01*
X76793Y16949D02*
X88468Y16949D01*
X0432Y16999D02*
X11822Y16999D01*
X13886Y16999D02*
X74283Y16999D01*
X76793Y16999D02*
X88468Y16999D01*
X0432Y17048D02*
X11791Y17048D01*
X13917Y17048D02*
X74283Y17048D01*
X76793Y17048D02*
X88468Y17048D01*
X0432Y17098D02*
X11760Y17098D01*
X13948Y17098D02*
X74283Y17098D01*
X76793Y17098D02*
X88468Y17098D01*
X0432Y17148D02*
X11729Y17148D01*
X13979Y17148D02*
X74283Y17148D01*
X76793Y17148D02*
X88468Y17148D01*
X0432Y17197D02*
X11709Y17197D01*
X13999Y17197D02*
X74283Y17197D01*
X76793Y17197D02*
X88468Y17197D01*
X0432Y17247D02*
X11692Y17247D01*
X14016Y17247D02*
X74283Y17247D01*
X76793Y17247D02*
X88468Y17247D01*
X0432Y17296D02*
X11674Y17296D01*
X14034Y17296D02*
X74283Y17296D01*
X76793Y17296D02*
X88468Y17296D01*
X0432Y17346D02*
X11657Y17346D01*
X14051Y17346D02*
X74283Y17346D01*
X76793Y17346D02*
X88468Y17346D01*
X0432Y17395D02*
X11640Y17395D01*
X14068Y17395D02*
X74283Y17395D01*
X76793Y17395D02*
X88468Y17395D01*
X0432Y17445D02*
X11628Y17445D01*
X14080Y17445D02*
X74283Y17445D01*
X76793Y17445D02*
X88468Y17445D01*
X0432Y17494D02*
X11622Y17494D01*
X14086Y17494D02*
X74283Y17494D01*
X76793Y17494D02*
X88468Y17494D01*
X0432Y17544D02*
X11617Y17544D01*
X14091Y17544D02*
X74283Y17544D01*
X76793Y17544D02*
X88468Y17544D01*
X0432Y17593D02*
X11611Y17593D01*
X14097Y17593D02*
X74283Y17593D01*
X76793Y17593D02*
X88468Y17593D01*
X0432Y17643D02*
X11606Y17643D01*
X14102Y17643D02*
X74283Y17643D01*
X76793Y17643D02*
X88468Y17643D01*
X0432Y17692D02*
X11600Y17692D01*
X14108Y17692D02*
X74283Y17692D01*
X76793Y17692D02*
X88468Y17692D01*
X0432Y17742D02*
X11604Y17742D01*
X14104Y17742D02*
X74283Y17742D01*
X76793Y17742D02*
X88468Y17742D01*
X0432Y17791D02*
X11610Y17791D01*
X14098Y17791D02*
X74283Y17791D01*
X76793Y17791D02*
X88468Y17791D01*
X0432Y17841D02*
X11615Y17841D01*
X14093Y17841D02*
X74283Y17841D01*
X76793Y17841D02*
X88468Y17841D01*
X0432Y17890D02*
X11621Y17890D01*
X14087Y17890D02*
X74283Y17890D01*
X76793Y17890D02*
X88468Y17890D01*
X0432Y17940D02*
X11626Y17940D01*
X14082Y17940D02*
X74283Y17940D01*
X76793Y17940D02*
X88468Y17940D01*
X0432Y17990D02*
X11634Y17990D01*
X14074Y17990D02*
X74283Y17990D01*
X76793Y17990D02*
X88468Y17990D01*
X0432Y18039D02*
X11652Y18039D01*
X14056Y18039D02*
X74283Y18039D01*
X76793Y18039D02*
X88468Y18039D01*
X0432Y18089D02*
X11669Y18089D01*
X14039Y18089D02*
X74283Y18089D01*
X76793Y18089D02*
X88468Y18089D01*
X0432Y18138D02*
X11686Y18138D01*
X14022Y18138D02*
X74283Y18138D01*
X76793Y18138D02*
X88468Y18138D01*
X0432Y18188D02*
X11704Y18188D01*
X14004Y18188D02*
X74283Y18188D01*
X76793Y18188D02*
X88468Y18188D01*
X0432Y18237D02*
X11721Y18237D01*
X13987Y18237D02*
X74283Y18237D01*
X76793Y18237D02*
X88468Y18237D01*
X0432Y18287D02*
X11750Y18287D01*
X13958Y18287D02*
X74283Y18287D01*
X76793Y18287D02*
X88468Y18287D01*
X0432Y18336D02*
X11781Y18336D01*
X13927Y18336D02*
X74283Y18336D01*
X76793Y18336D02*
X88468Y18336D01*
X0432Y18386D02*
X11812Y18386D01*
X13896Y18386D02*
X74283Y18386D01*
X76793Y18386D02*
X88468Y18386D01*
X0432Y18435D02*
X11843Y18435D01*
X13865Y18435D02*
X74283Y18435D01*
X76793Y18435D02*
X88468Y18435D01*
X0432Y18485D02*
X11876Y18485D01*
X13832Y18485D02*
X74283Y18485D01*
X76793Y18485D02*
X88468Y18485D01*
X0432Y18534D02*
X11925Y18534D01*
X13783Y18534D02*
X74283Y18534D01*
X76793Y18534D02*
X88468Y18534D01*
X0432Y18584D02*
X11975Y18584D01*
X13733Y18584D02*
X74283Y18584D01*
X76793Y18584D02*
X88468Y18584D01*
X0432Y18633D02*
X3604Y18633D01*
X3731Y18633D02*
X3889Y18633D01*
X4016Y18633D02*
X12024Y18633D01*
X13684Y18633D02*
X74283Y18633D01*
X76793Y18633D02*
X84884Y18633D01*
X85296Y18633D02*
X88468Y18633D01*
X0432Y18683D02*
X3164Y18683D01*
X3734Y18683D02*
X3886Y18683D01*
X4456Y18683D02*
X12075Y18683D01*
X13633Y18683D02*
X74283Y18683D01*
X76793Y18683D02*
X84444Y18683D01*
X85736Y18683D02*
X88468Y18683D01*
X0432Y18733D02*
X3011Y18733D01*
X3734Y18733D02*
X3886Y18733D01*
X4609Y18733D02*
X12154Y18733D01*
X13554Y18733D02*
X74284Y18733D01*
X76792Y18733D02*
X84291Y18733D01*
X85889Y18733D02*
X88468Y18733D01*
X0432Y18782D02*
X2869Y18782D01*
X3734Y18782D02*
X3886Y18782D01*
X4751Y18782D02*
X12232Y18782D01*
X13476Y18782D02*
X74291Y18782D01*
X76785Y18782D02*
X84149Y18782D01*
X86031Y18782D02*
X88468Y18782D01*
X0432Y18832D02*
X2728Y18832D01*
X3734Y18832D02*
X3886Y18832D01*
X4892Y18832D02*
X12313Y18832D01*
X13395Y18832D02*
X74310Y18832D01*
X76766Y18832D02*
X84008Y18832D01*
X86172Y18832D02*
X88468Y18832D01*
X0432Y18881D02*
X2586Y18881D01*
X5034Y18881D02*
X12454Y18881D01*
X13254Y18881D02*
X74345Y18881D01*
X76731Y18881D02*
X83866Y18881D01*
X86314Y18881D02*
X88468Y18881D01*
X0432Y18931D02*
X2477Y18931D01*
X5143Y18931D02*
X12640Y18931D01*
X13068Y18931D02*
X74411Y18931D01*
X76665Y18931D02*
X83757Y18931D01*
X86423Y18931D02*
X88468Y18931D01*
X0432Y18980D02*
X2398Y18980D01*
X5222Y18980D02*
X83678Y18980D01*
X86502Y18980D02*
X88468Y18980D01*
X0432Y19030D02*
X2319Y19030D01*
X5301Y19030D02*
X83599Y19030D01*
X86581Y19030D02*
X88468Y19030D01*
X0432Y19079D02*
X2240Y19079D01*
X5380Y19079D02*
X83520Y19079D01*
X86660Y19079D02*
X88468Y19079D01*
X0432Y19129D02*
X2162Y19129D01*
X5458Y19129D02*
X83442Y19129D01*
X86738Y19129D02*
X88468Y19129D01*
X0432Y19178D02*
X2083Y19178D01*
X5537Y19178D02*
X83363Y19178D01*
X86817Y19178D02*
X88468Y19178D01*
X0432Y19228D02*
X2004Y19228D01*
X5616Y19228D02*
X83284Y19228D01*
X86896Y19228D02*
X88468Y19228D01*
X0432Y19277D02*
X1935Y19277D01*
X5685Y19277D02*
X83215Y19277D01*
X86965Y19277D02*
X88468Y19277D01*
X0432Y19327D02*
X1886Y19327D01*
X5734Y19327D02*
X83166Y19327D01*
X87014Y19327D02*
X88468Y19327D01*
X0432Y19376D02*
X1836Y19376D01*
X5784Y19376D02*
X83116Y19376D01*
X87064Y19376D02*
X88468Y19376D01*
X0432Y19426D02*
X1787Y19426D01*
X5833Y19426D02*
X83067Y19426D01*
X87113Y19426D02*
X88468Y19426D01*
X0432Y19475D02*
X1737Y19475D01*
X5883Y19475D02*
X83017Y19475D01*
X87163Y19475D02*
X88468Y19475D01*
X0432Y19525D02*
X1687Y19525D01*
X5933Y19525D02*
X82967Y19525D01*
X87213Y19525D02*
X88468Y19525D01*
X0432Y19575D02*
X1638Y19575D01*
X5982Y19575D02*
X82918Y19575D01*
X87262Y19575D02*
X88468Y19575D01*
X0432Y19624D02*
X1588Y19624D01*
X6032Y19624D02*
X82868Y19624D01*
X87312Y19624D02*
X88468Y19624D01*
X0432Y19674D02*
X1539Y19674D01*
X6081Y19674D02*
X82819Y19674D01*
X87361Y19674D02*
X88468Y19674D01*
X0432Y19723D02*
X1489Y19723D01*
X6131Y19723D02*
X82769Y19723D01*
X87411Y19723D02*
X88468Y19723D01*
X0432Y19773D02*
X1455Y19773D01*
X6165Y19773D02*
X82735Y19773D01*
X87445Y19773D02*
X88468Y19773D01*
X0432Y19822D02*
X1424Y19822D01*
X6196Y19822D02*
X82704Y19822D01*
X87476Y19822D02*
X88468Y19822D01*
X0432Y19872D02*
X1393Y19872D01*
X6227Y19872D02*
X82673Y19872D01*
X87507Y19872D02*
X88468Y19872D01*
X0432Y19921D02*
X1362Y19921D01*
X6258Y19921D02*
X82642Y19921D01*
X87538Y19921D02*
X88468Y19921D01*
X0432Y19971D02*
X1330Y19971D01*
X6290Y19971D02*
X82610Y19971D01*
X87570Y19971D02*
X88468Y19971D01*
X0432Y20020D02*
X1299Y20020D01*
X6321Y20020D02*
X82579Y20020D01*
X87601Y20020D02*
X88468Y20020D01*
X0432Y20070D02*
X1268Y20070D01*
X6352Y20070D02*
X82548Y20070D01*
X87632Y20070D02*
X88468Y20070D01*
X0432Y20119D02*
X1237Y20119D01*
X6383Y20119D02*
X82517Y20119D01*
X87663Y20119D02*
X88468Y20119D01*
X0432Y20169D02*
X1206Y20169D01*
X6414Y20169D02*
X82486Y20169D01*
X87694Y20169D02*
X88468Y20169D01*
X0432Y20218D02*
X1175Y20218D01*
X6445Y20218D02*
X82455Y20218D01*
X87725Y20218D02*
X88468Y20218D01*
X0432Y20268D02*
X1144Y20268D01*
X6476Y20268D02*
X82424Y20268D01*
X87756Y20268D02*
X88468Y20268D01*
X0432Y20317D02*
X1118Y20317D01*
X6502Y20317D02*
X82398Y20317D01*
X87782Y20317D02*
X88468Y20317D01*
X0432Y20367D02*
X1101Y20367D01*
X6519Y20367D02*
X82381Y20367D01*
X87799Y20367D02*
X88468Y20367D01*
X0432Y20417D02*
X1084Y20417D01*
X6536Y20417D02*
X82364Y20417D01*
X87816Y20417D02*
X88468Y20417D01*
X0432Y20466D02*
X1066Y20466D01*
X6554Y20466D02*
X82346Y20466D01*
X87834Y20466D02*
X88468Y20466D01*
X0432Y20516D02*
X1049Y20516D01*
X6571Y20516D02*
X82329Y20516D01*
X87851Y20516D02*
X88468Y20516D01*
X0432Y20565D02*
X1032Y20565D01*
X6588Y20565D02*
X82312Y20565D01*
X87868Y20565D02*
X88468Y20565D01*
X0432Y20615D02*
X1014Y20615D01*
X6606Y20615D02*
X82294Y20615D01*
X87886Y20615D02*
X88468Y20615D01*
X0432Y20664D02*
X0997Y20664D01*
X6623Y20664D02*
X82277Y20664D01*
X87903Y20664D02*
X88468Y20664D01*
X0432Y20714D02*
X0980Y20714D01*
X6640Y20714D02*
X82260Y20714D01*
X87920Y20714D02*
X88468Y20714D01*
X0432Y20763D02*
X0962Y20763D01*
X6658Y20763D02*
X82242Y20763D01*
X87938Y20763D02*
X88468Y20763D01*
X0432Y20813D02*
X0945Y20813D01*
X6675Y20813D02*
X82225Y20813D01*
X87955Y20813D02*
X88468Y20813D01*
X0432Y20862D02*
X0928Y20862D01*
X6692Y20862D02*
X82208Y20862D01*
X87972Y20862D02*
X88468Y20862D01*
X0432Y20912D02*
X0910Y20912D01*
X6710Y20912D02*
X82190Y20912D01*
X87990Y20912D02*
X88468Y20912D01*
X0432Y20961D02*
X0901Y20961D01*
X6719Y20961D02*
X82181Y20961D01*
X87999Y20961D02*
X88468Y20961D01*
X0432Y21011D02*
X0895Y21011D01*
X6725Y21011D02*
X82175Y21011D01*
X88005Y21011D02*
X88468Y21011D01*
X0432Y21060D02*
X0890Y21060D01*
X6730Y21060D02*
X82170Y21060D01*
X88010Y21060D02*
X88468Y21060D01*
X0432Y21110D02*
X0884Y21110D01*
X6736Y21110D02*
X82164Y21110D01*
X88016Y21110D02*
X88468Y21110D01*
X0432Y21159D02*
X0879Y21159D01*
X6741Y21159D02*
X82159Y21159D01*
X88021Y21159D02*
X88468Y21159D01*
X0432Y21209D02*
X0873Y21209D01*
X6747Y21209D02*
X82153Y21209D01*
X88027Y21209D02*
X88468Y21209D01*
X0432Y21259D02*
X0868Y21259D01*
X6752Y21259D02*
X82148Y21259D01*
X88032Y21259D02*
X88468Y21259D01*
X0432Y21308D02*
X0862Y21308D01*
X6758Y21308D02*
X82142Y21308D01*
X88038Y21308D02*
X88468Y21308D01*
X0432Y21358D02*
X0856Y21358D01*
X6764Y21358D02*
X82136Y21358D01*
X88044Y21358D02*
X88468Y21358D01*
X0432Y21407D02*
X0851Y21407D01*
X6769Y21407D02*
X33676Y21407D01*
X34396Y21407D02*
X53996Y21407D01*
X54716Y21407D02*
X82131Y21407D01*
X88049Y21407D02*
X88468Y21407D01*
X0432Y21457D02*
X0845Y21457D01*
X6775Y21457D02*
X33534Y21457D01*
X34538Y21457D02*
X53854Y21457D01*
X54858Y21457D02*
X82125Y21457D01*
X88055Y21457D02*
X88468Y21457D01*
X0432Y21506D02*
X0849Y21506D01*
X6771Y21506D02*
X33393Y21506D01*
X34679Y21506D02*
X53713Y21506D01*
X54999Y21506D02*
X82129Y21506D01*
X88051Y21506D02*
X88468Y21506D01*
X0432Y21556D02*
X1085Y21556D01*
X6535Y21556D02*
X33311Y21556D01*
X34761Y21556D02*
X53631Y21556D01*
X55081Y21556D02*
X82365Y21556D01*
X87815Y21556D02*
X88468Y21556D01*
X0432Y21605D02*
X1085Y21605D01*
X6535Y21605D02*
X33232Y21605D01*
X34840Y21605D02*
X53552Y21605D01*
X55160Y21605D02*
X82365Y21605D01*
X87815Y21605D02*
X88468Y21605D01*
X0432Y21655D02*
X1085Y21655D01*
X6535Y21655D02*
X33153Y21655D01*
X34919Y21655D02*
X53473Y21655D01*
X55239Y21655D02*
X82365Y21655D01*
X87815Y21655D02*
X88468Y21655D01*
X0432Y21704D02*
X0843Y21704D01*
X6777Y21704D02*
X33084Y21704D01*
X34988Y21704D02*
X53404Y21704D01*
X55308Y21704D02*
X82123Y21704D01*
X88057Y21704D02*
X88468Y21704D01*
X0432Y21754D02*
X0849Y21754D01*
X6771Y21754D02*
X33035Y21754D01*
X35037Y21754D02*
X53355Y21754D01*
X55357Y21754D02*
X82129Y21754D01*
X88051Y21754D02*
X88468Y21754D01*
X0432Y21803D02*
X0854Y21803D01*
X6766Y21803D02*
X32985Y21803D01*
X35087Y21803D02*
X53305Y21803D01*
X55407Y21803D02*
X82134Y21803D01*
X88046Y21803D02*
X88468Y21803D01*
X0432Y21853D02*
X0860Y21853D01*
X6760Y21853D02*
X32935Y21853D01*
X35137Y21853D02*
X53255Y21853D01*
X55457Y21853D02*
X82140Y21853D01*
X88040Y21853D02*
X88468Y21853D01*
X0432Y21902D02*
X0865Y21902D01*
X6755Y21902D02*
X32886Y21902D01*
X35186Y21902D02*
X53206Y21902D01*
X55506Y21902D02*
X82145Y21902D01*
X88035Y21902D02*
X88468Y21902D01*
X0432Y21952D02*
X0871Y21952D01*
X6749Y21952D02*
X32846Y21952D01*
X35226Y21952D02*
X53166Y21952D01*
X55546Y21952D02*
X82151Y21952D01*
X88029Y21952D02*
X88468Y21952D01*
X0432Y22001D02*
X0877Y22001D01*
X6743Y22001D02*
X32815Y22001D01*
X35257Y22001D02*
X53135Y22001D01*
X55577Y22001D02*
X82157Y22001D01*
X88023Y22001D02*
X88468Y22001D01*
X0432Y22051D02*
X0882Y22051D01*
X6738Y22051D02*
X32784Y22051D01*
X35288Y22051D02*
X53104Y22051D01*
X55608Y22051D02*
X82162Y22051D01*
X88018Y22051D02*
X88468Y22051D01*
X0432Y22101D02*
X0888Y22101D01*
X6732Y22101D02*
X32753Y22101D01*
X35319Y22101D02*
X53073Y22101D01*
X55639Y22101D02*
X82168Y22101D01*
X88012Y22101D02*
X88468Y22101D01*
X0432Y22150D02*
X0893Y22150D01*
X6727Y22150D02*
X32722Y22150D01*
X35350Y22150D02*
X53042Y22150D01*
X55670Y22150D02*
X82173Y22150D01*
X88007Y22150D02*
X88468Y22150D01*
X0432Y22200D02*
X0899Y22200D01*
X6721Y22200D02*
X32691Y22200D01*
X35381Y22200D02*
X53011Y22200D01*
X55701Y22200D02*
X82179Y22200D01*
X88001Y22200D02*
X88468Y22200D01*
X0432Y22249D02*
X0905Y22249D01*
X6715Y22249D02*
X32671Y22249D01*
X35401Y22249D02*
X52991Y22249D01*
X55721Y22249D02*
X82185Y22249D01*
X87995Y22249D02*
X88468Y22249D01*
X0432Y22299D02*
X0921Y22299D01*
X6699Y22299D02*
X32653Y22299D01*
X35419Y22299D02*
X52973Y22299D01*
X55739Y22299D02*
X82201Y22299D01*
X87979Y22299D02*
X88468Y22299D01*
X0432Y22348D02*
X0938Y22348D01*
X6682Y22348D02*
X32636Y22348D01*
X35436Y22348D02*
X52956Y22348D01*
X55756Y22348D02*
X82218Y22348D01*
X87962Y22348D02*
X88468Y22348D01*
X0432Y22398D02*
X0956Y22398D01*
X6664Y22398D02*
X32619Y22398D01*
X35453Y22398D02*
X52939Y22398D01*
X55773Y22398D02*
X82236Y22398D01*
X87944Y22398D02*
X88468Y22398D01*
X0432Y22447D02*
X0973Y22447D01*
X6647Y22447D02*
X32601Y22447D01*
X35471Y22447D02*
X52921Y22447D01*
X55791Y22447D02*
X82253Y22447D01*
X87927Y22447D02*
X88468Y22447D01*
X0432Y22497D02*
X0990Y22497D01*
X6630Y22497D02*
X32584Y22497D01*
X35488Y22497D02*
X52904Y22497D01*
X55808Y22497D02*
X82270Y22497D01*
X87910Y22497D02*
X88468Y22497D01*
X0432Y22546D02*
X1008Y22546D01*
X6612Y22546D02*
X32572Y22546D01*
X35500Y22546D02*
X52892Y22546D01*
X55820Y22546D02*
X82288Y22546D01*
X87892Y22546D02*
X88468Y22546D01*
X0432Y22596D02*
X1025Y22596D01*
X6595Y22596D02*
X32566Y22596D01*
X35506Y22596D02*
X52886Y22596D01*
X55826Y22596D02*
X82305Y22596D01*
X87875Y22596D02*
X88468Y22596D01*
X0432Y22645D02*
X1042Y22645D01*
X6578Y22645D02*
X32560Y22645D01*
X35512Y22645D02*
X52880Y22645D01*
X55832Y22645D02*
X82322Y22645D01*
X87858Y22645D02*
X88468Y22645D01*
X0432Y22695D02*
X1060Y22695D01*
X6560Y22695D02*
X32555Y22695D01*
X35517Y22695D02*
X52875Y22695D01*
X55837Y22695D02*
X82340Y22695D01*
X87840Y22695D02*
X88468Y22695D01*
X0432Y22744D02*
X1077Y22744D01*
X6543Y22744D02*
X32549Y22744D01*
X35523Y22744D02*
X52869Y22744D01*
X55843Y22744D02*
X82357Y22744D01*
X87823Y22744D02*
X88468Y22744D01*
X0432Y22794D02*
X1094Y22794D01*
X6526Y22794D02*
X32544Y22794D01*
X35528Y22794D02*
X52864Y22794D01*
X55848Y22794D02*
X82374Y22794D01*
X87806Y22794D02*
X88468Y22794D01*
X0432Y22843D02*
X1112Y22843D01*
X6508Y22843D02*
X32538Y22843D01*
X35534Y22843D02*
X52858Y22843D01*
X55854Y22843D02*
X82392Y22843D01*
X87788Y22843D02*
X88468Y22843D01*
X0432Y22893D02*
X1132Y22893D01*
X6488Y22893D02*
X32540Y22893D01*
X35532Y22893D02*
X52860Y22893D01*
X55852Y22893D02*
X82412Y22893D01*
X87768Y22893D02*
X88468Y22893D01*
X0433Y22943D02*
X1163Y22943D01*
X6457Y22943D02*
X32546Y22943D01*
X35526Y22943D02*
X52866Y22943D01*
X55846Y22943D02*
X82443Y22943D01*
X87737Y22943D02*
X88467Y22943D01*
X0437Y22992D02*
X1194Y22992D01*
X6426Y22992D02*
X32551Y22992D01*
X35521Y22992D02*
X52871Y22992D01*
X55841Y22992D02*
X82474Y22992D01*
X87706Y22992D02*
X88463Y22992D01*
X0441Y23042D02*
X1225Y23042D01*
X6395Y23042D02*
X32557Y23042D01*
X35515Y23042D02*
X52877Y23042D01*
X55835Y23042D02*
X82505Y23042D01*
X87675Y23042D02*
X88459Y23042D01*
X0445Y23091D02*
X1256Y23091D01*
X6364Y23091D02*
X32562Y23091D01*
X35510Y23091D02*
X52882Y23091D01*
X55830Y23091D02*
X82536Y23091D01*
X87644Y23091D02*
X88455Y23091D01*
X0449Y23141D02*
X1287Y23141D01*
X6333Y23141D02*
X32568Y23141D01*
X35504Y23141D02*
X52888Y23141D01*
X55824Y23141D02*
X82567Y23141D01*
X87613Y23141D02*
X88451Y23141D01*
X0453Y23190D02*
X1318Y23190D01*
X6302Y23190D02*
X32573Y23190D01*
X35499Y23190D02*
X52893Y23190D01*
X55819Y23190D02*
X82598Y23190D01*
X87582Y23190D02*
X88447Y23190D01*
X0465Y23240D02*
X1350Y23240D01*
X6270Y23240D02*
X32590Y23240D01*
X35482Y23240D02*
X52910Y23240D01*
X55802Y23240D02*
X82630Y23240D01*
X87550Y23240D02*
X88435Y23240D01*
X0476Y23289D02*
X1381Y23289D01*
X6239Y23289D02*
X32607Y23289D01*
X35465Y23289D02*
X52927Y23289D01*
X55785Y23289D02*
X82661Y23289D01*
X87519Y23289D02*
X88424Y23289D01*
X0488Y23339D02*
X1412Y23339D01*
X6208Y23339D02*
X32625Y23339D01*
X35447Y23339D02*
X52945Y23339D01*
X55767Y23339D02*
X82692Y23339D01*
X87488Y23339D02*
X88412Y23339D01*
X0500Y23388D02*
X1443Y23388D01*
X6177Y23388D02*
X32642Y23388D01*
X35430Y23388D02*
X52962Y23388D01*
X55750Y23388D02*
X82723Y23388D01*
X87457Y23388D02*
X88400Y23388D01*
X0512Y23438D02*
X1474Y23438D01*
X6146Y23438D02*
X32659Y23438D01*
X35413Y23438D02*
X52979Y23438D01*
X55733Y23438D02*
X82754Y23438D01*
X87426Y23438D02*
X88388Y23438D01*
X0524Y23487D02*
X1520Y23487D01*
X6100Y23487D02*
X32677Y23487D01*
X35395Y23487D02*
X52997Y23487D01*
X55715Y23487D02*
X82800Y23487D01*
X87380Y23487D02*
X88376Y23487D01*
X0540Y23537D02*
X1569Y23537D01*
X6051Y23537D02*
X32701Y23537D01*
X35371Y23537D02*
X53021Y23537D01*
X55691Y23537D02*
X82849Y23537D01*
X87331Y23537D02*
X88360Y23537D01*
X0561Y23586D02*
X1619Y23586D01*
X6001Y23586D02*
X32732Y23586D01*
X35340Y23586D02*
X53052Y23586D01*
X55660Y23586D02*
X82899Y23586D01*
X87281Y23586D02*
X88339Y23586D01*
X0581Y23636D02*
X1668Y23636D01*
X5952Y23636D02*
X32763Y23636D01*
X35309Y23636D02*
X53083Y23636D01*
X55629Y23636D02*
X82948Y23636D01*
X87232Y23636D02*
X88319Y23636D01*
X0602Y23686D02*
X1718Y23686D01*
X5902Y23686D02*
X32795Y23686D01*
X35277Y23686D02*
X53115Y23686D01*
X55597Y23686D02*
X82998Y23686D01*
X87182Y23686D02*
X88298Y23686D01*
X0622Y23735D02*
X1768Y23735D01*
X5852Y23735D02*
X32826Y23735D01*
X35246Y23735D02*
X53146Y23735D01*
X55566Y23735D02*
X83048Y23735D01*
X87132Y23735D02*
X88278Y23735D01*
X0643Y23785D02*
X1817Y23785D01*
X5803Y23785D02*
X32857Y23785D01*
X35215Y23785D02*
X53177Y23785D01*
X55535Y23785D02*
X83097Y23785D01*
X87083Y23785D02*
X88257Y23785D01*
X0666Y23834D02*
X1867Y23834D01*
X5753Y23834D02*
X32902Y23834D01*
X35170Y23834D02*
X53222Y23834D01*
X55490Y23834D02*
X83147Y23834D01*
X87033Y23834D02*
X88234Y23834D01*
X0696Y23884D02*
X1916Y23884D01*
X5704Y23884D02*
X32952Y23884D01*
X35120Y23884D02*
X53272Y23884D01*
X55440Y23884D02*
X83196Y23884D01*
X86984Y23884D02*
X88204Y23884D01*
X0727Y23933D02*
X1974Y23933D01*
X5646Y23933D02*
X33002Y23933D01*
X35070Y23933D02*
X53322Y23933D01*
X55390Y23933D02*
X83254Y23933D01*
X86926Y23933D02*
X88173Y23933D01*
X0757Y23983D02*
X2052Y23983D01*
X5568Y23983D02*
X33051Y23983D01*
X35021Y23983D02*
X53371Y23983D01*
X55341Y23983D02*
X83332Y23983D01*
X86848Y23983D02*
X88143Y23983D01*
X0787Y24032D02*
X2131Y24032D01*
X5489Y24032D02*
X33101Y24032D01*
X34971Y24032D02*
X53421Y24032D01*
X55291Y24032D02*
X83411Y24032D01*
X86769Y24032D02*
X88113Y24032D01*
X0818Y24082D02*
X2210Y24082D01*
X5410Y24082D02*
X33179Y24082D01*
X34893Y24082D02*
X53499Y24082D01*
X55213Y24082D02*
X83490Y24082D01*
X86690Y24082D02*
X88082Y24082D01*
X0855Y24131D02*
X2289Y24131D01*
X5331Y24131D02*
X33258Y24131D01*
X34814Y24131D02*
X53578Y24131D01*
X55134Y24131D02*
X83569Y24131D01*
X86611Y24131D02*
X88045Y24131D01*
X0897Y24181D02*
X2368Y24181D01*
X5252Y24181D02*
X33337Y24181D01*
X34735Y24181D02*
X53657Y24181D01*
X55055Y24181D02*
X83648Y24181D01*
X86532Y24181D02*
X88003Y24181D01*
X0940Y24230D02*
X2447Y24230D01*
X5173Y24230D02*
X33440Y24230D01*
X34632Y24230D02*
X53760Y24230D01*
X54952Y24230D02*
X83727Y24230D01*
X86453Y24230D02*
X87960Y24230D01*
X0982Y24280D02*
X2532Y24280D01*
X5088Y24280D02*
X33581Y24280D01*
X34491Y24280D02*
X53901Y24280D01*
X54811Y24280D02*
X83812Y24280D01*
X86368Y24280D02*
X87918Y24280D01*
X1024Y24329D02*
X2674Y24329D01*
X3734Y24329D02*
X3886Y24329D01*
X4946Y24329D02*
X33766Y24329D01*
X34306Y24329D02*
X54086Y24329D01*
X54626Y24329D02*
X83954Y24329D01*
X85014Y24329D02*
X85166Y24329D01*
X86226Y24329D02*
X87876Y24329D01*
X1074Y24379D02*
X2815Y24379D01*
X3734Y24379D02*
X3886Y24379D01*
X4805Y24379D02*
X84095Y24379D01*
X85014Y24379D02*
X85166Y24379D01*
X86085Y24379D02*
X87826Y24379D01*
X1132Y24428D02*
X2957Y24428D01*
X3734Y24428D02*
X3886Y24428D01*
X4663Y24428D02*
X84237Y24428D01*
X85014Y24428D02*
X85166Y24428D01*
X85943Y24428D02*
X87768Y24428D01*
X1190Y24478D02*
X3098Y24478D01*
X3734Y24478D02*
X3886Y24478D01*
X4522Y24478D02*
X84378Y24478D01*
X85014Y24478D02*
X85166Y24478D01*
X85802Y24478D02*
X87710Y24478D01*
X1248Y24528D02*
X3435Y24528D01*
X3734Y24528D02*
X3886Y24528D01*
X4185Y24528D02*
X84715Y24528D01*
X85014Y24528D02*
X85166Y24528D01*
X85465Y24528D02*
X87652Y24528D01*
X1310Y24577D02*
X87590Y24577D01*
X1391Y24627D02*
X87509Y24627D01*
X1471Y24676D02*
X87429Y24676D01*
X1552Y24726D02*
X87348Y24726D01*
X1658Y24775D02*
X87242Y24775D01*
X1778Y24825D02*
X87122Y24825D01*
X1905Y24874D02*
X86995Y24874D01*
X2111Y24924D02*
X86789Y24924D01*
%LNtop copper_traces*%
%LNtop copper component d471e9cb206998b3*%
D11*
X12854Y12700D03*
X12854Y17700D03*
D12*
X12854Y7700D03*
%LNtop copper component c304839c2677ef3f*%
D13*
X34036Y22860D03*
X34036Y10160D03*
X54356Y22860D03*
X54356Y2540D03*
X54356Y12700D03*
X34036Y15240D03*
%LNtop copper component 0150211cd070c59b*%
D14*
X75538Y12700D03*
X75538Y7700D03*
D15*
X75538Y17700D03*
%LNtop copper component a88b08866a0f6951*%
D16*
X85090Y21590D03*
%LNtop copper component 451a96529c5ac4a0*%
X3810Y21590D03*
%LNtop copper component b250d4b8687d3700*%
X85090Y3810D03*
%LNtop copper component 4ed973ee168ef51e*%
X3810Y3810D03*
M02*