%FSLAX33Y33*%
%MOMM*%
%LNbottom silkscreen_traces*%
%LNbottom silkscreen component c304839c2677ef3f*%
G36*
G01*
X60452Y2404D02*
X60452Y2603D01*
X60649Y2603D01*
X60649Y2686D01*
X60452Y2686D01*
X60452Y2884D01*
X60367Y2884D01*
X60367Y2686D01*
X60169Y2686D01*
X60169Y2603D01*
X60367Y2603D01*
X60367Y2404D01*
X60452Y2404D01*
X60452Y2404D01*
X60064Y2640D02*
X60057Y2726D01*
X60039Y2802D01*
X60009Y2868D01*
X59966Y2924D01*
X59914Y2969D01*
X59855Y3001D01*
X59789Y3020D01*
X59715Y3026D01*
X59666Y3023D01*
X59620Y3014D01*
X59575Y2999D01*
X59534Y2978D01*
X59496Y2952D01*
X59462Y2920D01*
X59434Y2885D01*
X59410Y2844D01*
X59392Y2799D01*
X59379Y2752D01*
X59371Y2702D01*
X59368Y2649D01*
X59371Y2595D01*
X59379Y2544D01*
X59393Y2496D01*
X59413Y2451D01*
X59437Y2410D01*
X59467Y2374D01*
X59501Y2344D01*
X59539Y2318D01*
X59581Y2299D01*
X59624Y2285D01*
X59649Y2280D01*
X59664Y2361D01*
X59617Y2375D01*
X59575Y2399D01*
X59537Y2432D01*
X59507Y2475D01*
X59485Y2525D01*
X59472Y2583D01*
X59467Y2649D01*
X59469Y2692D01*
X59475Y2732D01*
X59484Y2770D01*
X59497Y2804D01*
X59514Y2835D01*
X59534Y2863D01*
X59558Y2887D01*
X59585Y2907D01*
X59615Y2923D01*
X59646Y2934D01*
X59680Y2941D01*
X59715Y2943D01*
X59764Y2939D01*
X59810Y2926D01*
X59852Y2904D01*
X59891Y2873D01*
X59923Y2832D01*
X59946Y2779D01*
X59960Y2715D01*
X59964Y2639D01*
X59964Y2639D01*
X59960Y2576D01*
X59947Y2521D01*
X59925Y2473D01*
X59894Y2432D01*
X59856Y2399D01*
X59814Y2375D01*
X59767Y2361D01*
X59716Y2356D01*
X59664Y2361D01*
X59649Y2280D01*
X59669Y2276D01*
X59716Y2274D01*
X59766Y2277D01*
X59813Y2286D01*
X59858Y2302D01*
X59899Y2323D01*
X59937Y2350D01*
X59970Y2382D01*
X59999Y2418D01*
X60022Y2459D01*
X60040Y2502D01*
X60053Y2547D01*
X60061Y2593D01*
X60064Y2640D01*
X60064Y2640D01*
X58910Y2286D02*
X58910Y2363D01*
X58944Y2324D01*
X58983Y2296D01*
X59027Y2280D01*
X59077Y2274D01*
X59100Y2275D01*
X59122Y2279D01*
X59144Y2284D01*
X59164Y2292D01*
X59183Y2301D01*
X59200Y2312D01*
X59213Y2324D01*
X59224Y2337D01*
X59233Y2351D01*
X59241Y2367D01*
X59247Y2384D01*
X59252Y2403D01*
X59254Y2418D01*
X59256Y2437D01*
X59257Y2460D01*
X59257Y2486D01*
X59257Y2813D01*
X59168Y2813D01*
X59168Y2521D01*
X59168Y2489D01*
X59167Y2462D01*
X59165Y2441D01*
X59163Y2426D01*
X59157Y2410D01*
X59149Y2395D01*
X59139Y2382D01*
X59127Y2371D01*
X59112Y2362D01*
X59096Y2356D01*
X59079Y2352D01*
X59059Y2351D01*
X59040Y2352D01*
X59020Y2356D01*
X59002Y2363D01*
X58984Y2372D01*
X58968Y2383D01*
X58954Y2396D01*
X58943Y2411D01*
X58934Y2428D01*
X58928Y2447D01*
X58923Y2471D01*
X58920Y2499D01*
X58920Y2531D01*
X58920Y2813D01*
X58830Y2813D01*
X58830Y2286D01*
X58910Y2286D01*
X58910Y2286D01*
X58495Y2366D02*
X58482Y2287D01*
X58501Y2284D01*
X58518Y2281D01*
X58535Y2280D01*
X58550Y2279D01*
X58573Y2280D01*
X58593Y2283D01*
X58611Y2288D01*
X58625Y2294D01*
X58638Y2303D01*
X58648Y2312D01*
X58657Y2323D01*
X58663Y2335D01*
X58668Y2351D01*
X58671Y2374D01*
X58673Y2404D01*
X58674Y2440D01*
X58674Y2743D01*
X58739Y2743D01*
X58739Y2813D01*
X58674Y2813D01*
X58674Y2943D01*
X58585Y2997D01*
X58585Y2813D01*
X58495Y2813D01*
X58495Y2743D01*
X58585Y2743D01*
X58585Y2435D01*
X58585Y2418D01*
X58584Y2404D01*
X58583Y2393D01*
X58580Y2386D01*
X58578Y2381D01*
X58574Y2376D01*
X58570Y2372D01*
X58565Y2369D01*
X58559Y2366D01*
X58552Y2364D01*
X58544Y2363D01*
X58535Y2362D01*
X58527Y2363D01*
X58517Y2363D01*
X58507Y2364D01*
X58495Y2366D01*
X58495Y2366D01*
X58408Y2084D02*
X58408Y2813D01*
X58327Y2813D01*
X58327Y2744D01*
X58283Y2702D01*
X58283Y2701D01*
X58302Y2672D01*
X58316Y2636D01*
X58324Y2594D01*
X58327Y2546D01*
X58327Y2546D01*
X58325Y2499D01*
X58317Y2458D01*
X58304Y2424D01*
X58286Y2396D01*
X58264Y2375D01*
X58240Y2360D01*
X58214Y2351D01*
X58186Y2348D01*
X58158Y2351D01*
X58131Y2360D01*
X58107Y2376D01*
X58084Y2398D01*
X58066Y2427D01*
X58053Y2462D01*
X58045Y2505D01*
X58042Y2554D01*
X58045Y2601D01*
X58052Y2642D01*
X58065Y2676D01*
X58083Y2705D01*
X58105Y2727D01*
X58129Y2742D01*
X58155Y2752D01*
X58182Y2755D01*
X58210Y2751D01*
X58236Y2741D01*
X58261Y2725D01*
X58283Y2702D01*
X58327Y2744D01*
X58312Y2763D01*
X58296Y2780D01*
X58279Y2793D01*
X58262Y2805D01*
X58243Y2813D01*
X58222Y2820D01*
X58199Y2824D01*
X58174Y2825D01*
X58141Y2823D01*
X58110Y2816D01*
X58082Y2805D01*
X58055Y2790D01*
X58031Y2771D01*
X58010Y2748D01*
X57992Y2722D01*
X57977Y2692D01*
X57965Y2660D01*
X57957Y2626D01*
X57952Y2590D01*
X57951Y2553D01*
X57952Y2514D01*
X57958Y2477D01*
X57967Y2441D01*
X57980Y2408D01*
X57996Y2377D01*
X58015Y2351D01*
X58038Y2328D01*
X58064Y2309D01*
X58092Y2293D01*
X58121Y2283D01*
X58150Y2276D01*
X58180Y2274D01*
X58202Y2275D01*
X58223Y2279D01*
X58242Y2285D01*
X58260Y2293D01*
X58277Y2303D01*
X58293Y2314D01*
X58307Y2327D01*
X58319Y2341D01*
X58319Y2084D01*
X58408Y2084D01*
X58408Y2084D01*
X57498Y2286D02*
X57498Y2363D01*
X57531Y2324D01*
X57570Y2296D01*
X57615Y2280D01*
X57665Y2274D01*
X57688Y2275D01*
X57710Y2279D01*
X57731Y2284D01*
X57752Y2292D01*
X57771Y2301D01*
X57787Y2312D01*
X57801Y2324D01*
X57812Y2337D01*
X57821Y2351D01*
X57829Y2367D01*
X57835Y2384D01*
X57840Y2403D01*
X57842Y2418D01*
X57844Y2437D01*
X57845Y2460D01*
X57845Y2486D01*
X57845Y2813D01*
X57756Y2813D01*
X57756Y2521D01*
X57755Y2489D01*
X57754Y2462D01*
X57753Y2441D01*
X57750Y2426D01*
X57745Y2410D01*
X57737Y2395D01*
X57727Y2382D01*
X57715Y2371D01*
X57700Y2362D01*
X57684Y2356D01*
X57666Y2352D01*
X57647Y2351D01*
X57627Y2352D01*
X57608Y2356D01*
X57590Y2363D01*
X57572Y2372D01*
X57555Y2383D01*
X57542Y2396D01*
X57530Y2411D01*
X57522Y2428D01*
X57515Y2447D01*
X57511Y2471D01*
X57508Y2499D01*
X57507Y2531D01*
X57507Y2813D01*
X57418Y2813D01*
X57418Y2286D01*
X57498Y2286D01*
X57498Y2286D01*
X57083Y2366D02*
X57070Y2287D01*
X57088Y2284D01*
X57106Y2281D01*
X57122Y2280D01*
X57138Y2279D01*
X57160Y2280D01*
X57181Y2283D01*
X57198Y2288D01*
X57213Y2294D01*
X57225Y2303D01*
X57236Y2312D01*
X57244Y2323D01*
X57251Y2335D01*
X57255Y2351D01*
X57259Y2374D01*
X57261Y2404D01*
X57262Y2440D01*
X57262Y2743D01*
X57327Y2743D01*
X57327Y2813D01*
X57262Y2813D01*
X57262Y2943D01*
X57173Y2997D01*
X57173Y2813D01*
X57083Y2813D01*
X57083Y2743D01*
X57173Y2743D01*
X57173Y2435D01*
X57172Y2418D01*
X57172Y2404D01*
X57170Y2393D01*
X57168Y2386D01*
X57165Y2381D01*
X57162Y2376D01*
X57158Y2372D01*
X57153Y2369D01*
X57147Y2366D01*
X57140Y2364D01*
X57132Y2363D01*
X57122Y2362D01*
X57114Y2363D01*
X57105Y2363D01*
X57095Y2364D01*
X57083Y2366D01*
X57083Y2366D01*
X63411Y14479D02*
X63314Y14455D01*
X63333Y14399D01*
X63357Y14350D01*
X63387Y14309D01*
X63423Y14274D01*
X63465Y14247D01*
X63511Y14227D01*
X63561Y14215D01*
X63616Y14212D01*
X63672Y14215D01*
X63722Y14224D01*
X63767Y14239D01*
X63807Y14259D01*
X63841Y14286D01*
X63872Y14318D01*
X63898Y14355D01*
X63919Y14398D01*
X63936Y14444D01*
X63948Y14492D01*
X63955Y14542D01*
X63957Y14593D01*
X63955Y14648D01*
X63947Y14699D01*
X63933Y14747D01*
X63914Y14791D01*
X63890Y14831D01*
X63861Y14866D01*
X63828Y14895D01*
X63790Y14920D01*
X63749Y14939D01*
X63706Y14953D01*
X63661Y14961D01*
X63614Y14964D01*
X63562Y14960D01*
X63514Y14950D01*
X63470Y14932D01*
X63431Y14908D01*
X63396Y14878D01*
X63367Y14841D01*
X63344Y14799D01*
X63327Y14752D01*
X63422Y14730D01*
X63436Y14767D01*
X63453Y14798D01*
X63472Y14824D01*
X63495Y14845D01*
X63521Y14861D01*
X63549Y14872D01*
X63581Y14879D01*
X63616Y14881D01*
X63656Y14879D01*
X63693Y14871D01*
X63726Y14859D01*
X63756Y14841D01*
X63782Y14819D01*
X63804Y14794D01*
X63822Y14765D01*
X63835Y14733D01*
X63845Y14699D01*
X63852Y14664D01*
X63857Y14629D01*
X63858Y14594D01*
X63856Y14549D01*
X63851Y14507D01*
X63843Y14468D01*
X63831Y14432D01*
X63816Y14399D01*
X63797Y14371D01*
X63774Y14347D01*
X63747Y14328D01*
X63718Y14313D01*
X63688Y14303D01*
X63656Y14296D01*
X63624Y14294D01*
X63585Y14297D01*
X63549Y14306D01*
X63516Y14320D01*
X63487Y14341D01*
X63461Y14367D01*
X63440Y14399D01*
X63423Y14436D01*
X63411Y14479D01*
X63411Y14479D01*
X63241Y14487D02*
X63235Y14556D01*
X63220Y14615D01*
X63195Y14664D01*
X63159Y14704D01*
X63123Y14730D01*
X63084Y14748D01*
X63040Y14759D01*
X62993Y14763D01*
X62942Y14758D01*
X62895Y14745D01*
X62853Y14723D01*
X62816Y14692D01*
X62786Y14653D01*
X62764Y14607D01*
X62751Y14554D01*
X62747Y14495D01*
X62749Y14447D01*
X62755Y14404D01*
X62764Y14367D01*
X62777Y14335D01*
X62794Y14307D01*
X62815Y14283D01*
X62839Y14262D01*
X62866Y14244D01*
X62896Y14230D01*
X62927Y14220D01*
X62960Y14214D01*
X62993Y14212D01*
X63000Y14213D01*
X62993Y14286D01*
X62962Y14289D01*
X62933Y14298D01*
X62906Y14314D01*
X62883Y14336D01*
X62864Y14365D01*
X62850Y14400D01*
X62841Y14442D01*
X62839Y14490D01*
X62841Y14536D01*
X62850Y14576D01*
X62864Y14610D01*
X62883Y14638D01*
X62907Y14661D01*
X62933Y14676D01*
X62962Y14686D01*
X62993Y14689D01*
X63026Y14686D01*
X63055Y14676D01*
X63081Y14661D01*
X63105Y14639D01*
X63124Y14610D01*
X63138Y14576D01*
X63146Y14535D01*
X63149Y14487D01*
X63149Y14487D01*
X63146Y14440D01*
X63138Y14399D01*
X63124Y14364D01*
X63105Y14336D01*
X63081Y14314D01*
X63055Y14298D01*
X63026Y14289D01*
X62993Y14286D01*
X63000Y14213D01*
X63046Y14217D01*
X63094Y14230D01*
X63136Y14252D01*
X63172Y14283D01*
X63202Y14322D01*
X63223Y14370D01*
X63236Y14425D01*
X63241Y14487D01*
X63241Y14487D01*
X62642Y14224D02*
X62642Y14751D01*
X62562Y14751D01*
X62562Y14677D01*
X62549Y14695D01*
X62533Y14712D01*
X62516Y14726D01*
X62496Y14739D01*
X62475Y14750D01*
X62452Y14757D01*
X62428Y14761D01*
X62403Y14763D01*
X62375Y14761D01*
X62349Y14757D01*
X62327Y14749D01*
X62307Y14738D01*
X62289Y14725D01*
X62275Y14709D01*
X62263Y14691D01*
X62254Y14670D01*
X62220Y14711D01*
X62182Y14740D01*
X62139Y14757D01*
X62091Y14763D01*
X62054Y14760D01*
X62022Y14752D01*
X61994Y14738D01*
X61971Y14719D01*
X61952Y14695D01*
X61939Y14664D01*
X61931Y14628D01*
X61928Y14586D01*
X61928Y14224D01*
X62017Y14224D01*
X62017Y14556D01*
X62018Y14581D01*
X62019Y14602D01*
X62022Y14619D01*
X62026Y14633D01*
X62031Y14644D01*
X62038Y14654D01*
X62047Y14663D01*
X62057Y14671D01*
X62069Y14677D01*
X62082Y14682D01*
X62096Y14684D01*
X62111Y14685D01*
X62138Y14683D01*
X62162Y14676D01*
X62184Y14665D01*
X62203Y14648D01*
X62219Y14627D01*
X62231Y14600D01*
X62238Y14568D01*
X62240Y14530D01*
X62240Y14224D01*
X62329Y14224D01*
X62329Y14566D01*
X62331Y14594D01*
X62335Y14618D01*
X62341Y14639D01*
X62351Y14656D01*
X62364Y14669D01*
X62380Y14678D01*
X62399Y14684D01*
X62422Y14685D01*
X62441Y14684D01*
X62459Y14680D01*
X62476Y14674D01*
X62492Y14666D01*
X62507Y14654D01*
X62520Y14641D01*
X62530Y14625D01*
X62539Y14607D01*
X62545Y14586D01*
X62549Y14561D01*
X62552Y14531D01*
X62553Y14497D01*
X62553Y14224D01*
X62642Y14224D01*
X62642Y14224D01*
X61796Y14224D02*
X61796Y14751D01*
X61716Y14751D01*
X61716Y14677D01*
X61703Y14695D01*
X61687Y14712D01*
X61670Y14726D01*
X61650Y14739D01*
X61629Y14750D01*
X61606Y14757D01*
X61582Y14761D01*
X61556Y14763D01*
X61528Y14761D01*
X61503Y14757D01*
X61480Y14749D01*
X61460Y14738D01*
X61443Y14725D01*
X61428Y14709D01*
X61417Y14691D01*
X61407Y14670D01*
X61374Y14711D01*
X61336Y14740D01*
X61292Y14757D01*
X61245Y14763D01*
X61208Y14760D01*
X61175Y14752D01*
X61148Y14738D01*
X61124Y14719D01*
X61106Y14695D01*
X61093Y14664D01*
X61085Y14628D01*
X61082Y14586D01*
X61082Y14224D01*
X61171Y14224D01*
X61171Y14556D01*
X61171Y14581D01*
X61173Y14602D01*
X61176Y14619D01*
X61179Y14633D01*
X61185Y14644D01*
X61192Y14654D01*
X61200Y14663D01*
X61211Y14671D01*
X61223Y14677D01*
X61236Y14682D01*
X61250Y14684D01*
X61265Y14685D01*
X61291Y14683D01*
X61315Y14676D01*
X61337Y14665D01*
X61357Y14648D01*
X61373Y14627D01*
X61384Y14600D01*
X61391Y14568D01*
X61394Y14530D01*
X61394Y14224D01*
X61483Y14224D01*
X61483Y14566D01*
X61484Y14594D01*
X61488Y14618D01*
X61495Y14639D01*
X61505Y14656D01*
X61517Y14669D01*
X61533Y14678D01*
X61553Y14684D01*
X61576Y14685D01*
X61595Y14684D01*
X61612Y14680D01*
X61629Y14674D01*
X61646Y14666D01*
X61661Y14654D01*
X61673Y14641D01*
X61684Y14625D01*
X61692Y14607D01*
X61698Y14586D01*
X61703Y14561D01*
X61706Y14531D01*
X61707Y14497D01*
X61707Y14224D01*
X61796Y14224D01*
X61796Y14224D01*
X60983Y14487D02*
X60978Y14556D01*
X60962Y14615D01*
X60937Y14664D01*
X60901Y14704D01*
X60866Y14730D01*
X60826Y14748D01*
X60783Y14759D01*
X60736Y14763D01*
X60684Y14758D01*
X60637Y14745D01*
X60595Y14723D01*
X60558Y14692D01*
X60528Y14653D01*
X60506Y14607D01*
X60493Y14554D01*
X60489Y14495D01*
X60491Y14447D01*
X60497Y14404D01*
X60506Y14367D01*
X60520Y14335D01*
X60537Y14307D01*
X60557Y14283D01*
X60581Y14262D01*
X60608Y14244D01*
X60638Y14230D01*
X60669Y14220D01*
X60702Y14214D01*
X60736Y14212D01*
X60742Y14213D01*
X60736Y14286D01*
X60704Y14289D01*
X60675Y14298D01*
X60649Y14314D01*
X60625Y14336D01*
X60606Y14365D01*
X60592Y14400D01*
X60584Y14442D01*
X60581Y14490D01*
X60584Y14536D01*
X60592Y14576D01*
X60606Y14610D01*
X60625Y14638D01*
X60649Y14661D01*
X60675Y14676D01*
X60704Y14686D01*
X60736Y14689D01*
X60768Y14686D01*
X60797Y14676D01*
X60823Y14661D01*
X60847Y14639D01*
X60866Y14610D01*
X60880Y14576D01*
X60888Y14535D01*
X60891Y14487D01*
X60891Y14487D01*
X60888Y14440D01*
X60880Y14399D01*
X60866Y14364D01*
X60847Y14336D01*
X60823Y14314D01*
X60797Y14298D01*
X60768Y14289D01*
X60736Y14286D01*
X60742Y14213D01*
X60788Y14217D01*
X60836Y14230D01*
X60878Y14252D01*
X60915Y14283D01*
X60944Y14322D01*
X60966Y14370D01*
X60979Y14425D01*
X60983Y14487D01*
X60983Y14487D01*
X60384Y14224D02*
X60384Y14751D01*
X60304Y14751D01*
X60304Y14676D01*
X60272Y14714D01*
X60233Y14741D01*
X60188Y14757D01*
X60136Y14763D01*
X60113Y14762D01*
X60091Y14758D01*
X60069Y14753D01*
X60049Y14746D01*
X60030Y14736D01*
X60014Y14726D01*
X60000Y14714D01*
X59989Y14701D01*
X59980Y14686D01*
X59972Y14670D01*
X59966Y14653D01*
X59961Y14635D01*
X59959Y14620D01*
X59958Y14601D01*
X59957Y14577D01*
X59956Y14548D01*
X59956Y14224D01*
X60046Y14224D01*
X60046Y14544D01*
X60046Y14570D01*
X60048Y14592D01*
X60052Y14611D01*
X60056Y14626D01*
X60062Y14639D01*
X60071Y14650D01*
X60081Y14661D01*
X60093Y14669D01*
X60107Y14676D01*
X60122Y14681D01*
X60138Y14684D01*
X60155Y14685D01*
X60183Y14683D01*
X60208Y14676D01*
X60232Y14665D01*
X60254Y14649D01*
X60272Y14627D01*
X60285Y14597D01*
X60293Y14558D01*
X60295Y14512D01*
X60295Y14224D01*
X60384Y14224D01*
X60384Y14224D01*
X59570Y14487D02*
X59565Y14556D01*
X59550Y14615D01*
X59525Y14664D01*
X59489Y14704D01*
X59453Y14730D01*
X59414Y14748D01*
X59370Y14759D01*
X59323Y14763D01*
X59271Y14758D01*
X59225Y14745D01*
X59183Y14723D01*
X59146Y14692D01*
X59116Y14653D01*
X59094Y14607D01*
X59081Y14554D01*
X59077Y14495D01*
X59079Y14447D01*
X59084Y14404D01*
X59094Y14367D01*
X59107Y14335D01*
X59124Y14307D01*
X59145Y14283D01*
X59169Y14262D01*
X59196Y14244D01*
X59226Y14230D01*
X59257Y14220D01*
X59290Y14214D01*
X59323Y14212D01*
X59329Y14213D01*
X59323Y14286D01*
X59291Y14289D01*
X59262Y14298D01*
X59236Y14314D01*
X59213Y14336D01*
X59193Y14365D01*
X59180Y14400D01*
X59171Y14442D01*
X59169Y14490D01*
X59171Y14536D01*
X59180Y14576D01*
X59194Y14610D01*
X59213Y14638D01*
X59237Y14661D01*
X59263Y14676D01*
X59292Y14686D01*
X59323Y14689D01*
X59355Y14686D01*
X59385Y14676D01*
X59411Y14661D01*
X59434Y14639D01*
X59454Y14610D01*
X59468Y14576D01*
X59476Y14535D01*
X59479Y14487D01*
X59479Y14487D01*
X59476Y14440D01*
X59468Y14399D01*
X59454Y14364D01*
X59434Y14336D01*
X59411Y14314D01*
X59385Y14298D01*
X59355Y14289D01*
X59323Y14286D01*
X59329Y14213D01*
X59376Y14217D01*
X59423Y14230D01*
X59465Y14252D01*
X59502Y14283D01*
X59532Y14322D01*
X59553Y14370D01*
X59566Y14425D01*
X59570Y14487D01*
X59570Y14487D01*
X58973Y14224D02*
X58973Y14751D01*
X58893Y14751D01*
X58893Y14671D01*
X58878Y14697D01*
X58863Y14717D01*
X58849Y14734D01*
X58836Y14745D01*
X58823Y14753D01*
X58809Y14758D01*
X58794Y14762D01*
X58779Y14763D01*
X58756Y14761D01*
X58733Y14756D01*
X58710Y14747D01*
X58687Y14734D01*
X58718Y14651D01*
X58734Y14660D01*
X58750Y14666D01*
X58767Y14669D01*
X58783Y14670D01*
X58797Y14669D01*
X58811Y14666D01*
X58824Y14661D01*
X58836Y14653D01*
X58846Y14643D01*
X58856Y14632D01*
X58863Y14619D01*
X58869Y14604D01*
X58875Y14580D01*
X58880Y14554D01*
X58883Y14528D01*
X58884Y14500D01*
X58884Y14224D01*
X58973Y14224D01*
X58973Y14224D01*
X58341Y14224D02*
X58341Y14951D01*
X58242Y14951D01*
X57860Y14380D01*
X57860Y14951D01*
X57768Y14951D01*
X57768Y14224D01*
X57867Y14224D01*
X58249Y14796D01*
X58249Y14224D01*
X58341Y14224D01*
X58341Y14224D01*
X57685Y14212D02*
X57474Y14964D01*
X57402Y14964D01*
X57613Y14212D01*
X57685Y14212D01*
X57685Y14212D01*
X57404Y14224D02*
X57144Y14901D01*
X57075Y14875D01*
X57083Y14840D01*
X57092Y14805D01*
X57102Y14771D01*
X57114Y14736D01*
X57194Y14523D01*
X57194Y14523D01*
X56948Y14523D01*
X57023Y14724D01*
X57040Y14768D01*
X57054Y14808D01*
X57066Y14843D01*
X57075Y14875D01*
X57144Y14901D01*
X57125Y14951D01*
X57021Y14951D01*
X56723Y14224D01*
X56833Y14224D01*
X56918Y14444D01*
X57222Y14444D01*
X57302Y14224D01*
X57404Y14224D01*
X57404Y14224D01*
X60420Y22824D02*
X60420Y22914D01*
X60145Y22914D01*
X60145Y22824D01*
X60420Y22824D01*
X60420Y22824D01*
X60065Y22960D02*
X60058Y23046D01*
X60040Y23122D01*
X60010Y23188D01*
X59967Y23244D01*
X59915Y23289D01*
X59856Y23321D01*
X59790Y23340D01*
X59716Y23346D01*
X59667Y23343D01*
X59621Y23334D01*
X59576Y23319D01*
X59535Y23298D01*
X59497Y23272D01*
X59463Y23240D01*
X59435Y23205D01*
X59411Y23164D01*
X59393Y23119D01*
X59380Y23072D01*
X59372Y23022D01*
X59369Y22969D01*
X59372Y22915D01*
X59380Y22864D01*
X59394Y22816D01*
X59414Y22771D01*
X59438Y22730D01*
X59468Y22694D01*
X59502Y22664D01*
X59540Y22638D01*
X59582Y22619D01*
X59625Y22605D01*
X59650Y22600D01*
X59665Y22681D01*
X59618Y22695D01*
X59576Y22719D01*
X59538Y22752D01*
X59508Y22795D01*
X59486Y22845D01*
X59473Y22903D01*
X59468Y22969D01*
X59470Y23012D01*
X59476Y23052D01*
X59485Y23090D01*
X59498Y23124D01*
X59515Y23155D01*
X59535Y23183D01*
X59559Y23207D01*
X59586Y23227D01*
X59616Y23243D01*
X59647Y23254D01*
X59681Y23261D01*
X59716Y23263D01*
X59765Y23259D01*
X59811Y23246D01*
X59853Y23224D01*
X59892Y23193D01*
X59924Y23152D01*
X59947Y23099D01*
X59961Y23035D01*
X59965Y22959D01*
X59965Y22959D01*
X59961Y22896D01*
X59948Y22841D01*
X59926Y22793D01*
X59895Y22752D01*
X59857Y22719D01*
X59815Y22695D01*
X59768Y22681D01*
X59717Y22676D01*
X59665Y22681D01*
X59650Y22600D01*
X59670Y22596D01*
X59717Y22594D01*
X59767Y22597D01*
X59814Y22606D01*
X59859Y22622D01*
X59900Y22643D01*
X59938Y22670D01*
X59971Y22702D01*
X60000Y22738D01*
X60023Y22779D01*
X60041Y22822D01*
X60054Y22867D01*
X60062Y22913D01*
X60065Y22960D01*
X60065Y22960D01*
X58911Y22606D02*
X58911Y22683D01*
X58945Y22644D01*
X58984Y22616D01*
X59028Y22600D01*
X59078Y22594D01*
X59101Y22595D01*
X59123Y22599D01*
X59145Y22604D01*
X59165Y22612D01*
X59184Y22621D01*
X59201Y22632D01*
X59214Y22644D01*
X59225Y22657D01*
X59234Y22671D01*
X59242Y22687D01*
X59248Y22704D01*
X59253Y22723D01*
X59255Y22738D01*
X59257Y22757D01*
X59258Y22780D01*
X59258Y22806D01*
X59258Y23133D01*
X59169Y23133D01*
X59169Y22841D01*
X59169Y22809D01*
X59168Y22782D01*
X59166Y22761D01*
X59164Y22746D01*
X59158Y22730D01*
X59150Y22715D01*
X59140Y22702D01*
X59128Y22691D01*
X59113Y22682D01*
X59097Y22676D01*
X59080Y22672D01*
X59060Y22671D01*
X59041Y22672D01*
X59022Y22676D01*
X59003Y22683D01*
X58985Y22692D01*
X58969Y22703D01*
X58955Y22716D01*
X58944Y22731D01*
X58935Y22748D01*
X58929Y22767D01*
X58924Y22791D01*
X58921Y22819D01*
X58921Y22851D01*
X58921Y23133D01*
X58831Y23133D01*
X58831Y22606D01*
X58911Y22606D01*
X58911Y22606D01*
X58496Y22686D02*
X58483Y22607D01*
X58502Y22604D01*
X58519Y22601D01*
X58536Y22600D01*
X58551Y22599D01*
X58574Y22600D01*
X58594Y22603D01*
X58612Y22608D01*
X58626Y22614D01*
X58639Y22623D01*
X58649Y22632D01*
X58658Y22643D01*
X58664Y22655D01*
X58669Y22671D01*
X58672Y22694D01*
X58674Y22724D01*
X58675Y22760D01*
X58675Y23063D01*
X58740Y23063D01*
X58740Y23133D01*
X58675Y23133D01*
X58675Y23263D01*
X58586Y23317D01*
X58586Y23133D01*
X58496Y23133D01*
X58496Y23063D01*
X58586Y23063D01*
X58586Y22755D01*
X58586Y22738D01*
X58585Y22724D01*
X58584Y22713D01*
X58581Y22706D01*
X58579Y22701D01*
X58575Y22696D01*
X58571Y22692D01*
X58566Y22689D01*
X58560Y22686D01*
X58553Y22684D01*
X58545Y22683D01*
X58536Y22682D01*
X58528Y22683D01*
X58518Y22683D01*
X58508Y22684D01*
X58496Y22686D01*
X58496Y22686D01*
X58409Y22404D02*
X58409Y23133D01*
X58328Y23133D01*
X58328Y23064D01*
X58284Y23022D01*
X58284Y23021D01*
X58304Y22992D01*
X58317Y22956D01*
X58325Y22914D01*
X58328Y22866D01*
X58328Y22866D01*
X58326Y22819D01*
X58318Y22778D01*
X58305Y22744D01*
X58287Y22716D01*
X58265Y22695D01*
X58242Y22680D01*
X58216Y22671D01*
X58187Y22668D01*
X58159Y22671D01*
X58132Y22680D01*
X58108Y22696D01*
X58085Y22718D01*
X58067Y22747D01*
X58054Y22782D01*
X58046Y22825D01*
X58043Y22874D01*
X58046Y22921D01*
X58053Y22962D01*
X58066Y22996D01*
X58084Y23025D01*
X58106Y23047D01*
X58130Y23062D01*
X58156Y23072D01*
X58183Y23075D01*
X58211Y23071D01*
X58237Y23061D01*
X58262Y23045D01*
X58284Y23022D01*
X58328Y23064D01*
X58313Y23083D01*
X58297Y23100D01*
X58280Y23113D01*
X58263Y23125D01*
X58244Y23133D01*
X58223Y23140D01*
X58200Y23144D01*
X58175Y23145D01*
X58142Y23143D01*
X58111Y23136D01*
X58083Y23125D01*
X58056Y23110D01*
X58032Y23091D01*
X58011Y23068D01*
X57993Y23042D01*
X57978Y23012D01*
X57966Y22980D01*
X57958Y22946D01*
X57953Y22910D01*
X57952Y22873D01*
X57953Y22834D01*
X57959Y22797D01*
X57968Y22761D01*
X57981Y22728D01*
X57997Y22697D01*
X58016Y22671D01*
X58039Y22648D01*
X58065Y22629D01*
X58093Y22613D01*
X58122Y22603D01*
X58151Y22596D01*
X58181Y22594D01*
X58203Y22595D01*
X58224Y22599D01*
X58243Y22605D01*
X58261Y22613D01*
X58278Y22623D01*
X58294Y22634D01*
X58308Y22647D01*
X58320Y22661D01*
X58320Y22404D01*
X58409Y22404D01*
X58409Y22404D01*
X57499Y22606D02*
X57499Y22683D01*
X57532Y22644D01*
X57571Y22616D01*
X57616Y22600D01*
X57666Y22594D01*
X57689Y22595D01*
X57711Y22599D01*
X57732Y22604D01*
X57753Y22612D01*
X57772Y22621D01*
X57788Y22632D01*
X57802Y22644D01*
X57813Y22657D01*
X57822Y22671D01*
X57830Y22687D01*
X57836Y22704D01*
X57841Y22723D01*
X57843Y22738D01*
X57845Y22757D01*
X57846Y22780D01*
X57846Y22806D01*
X57846Y23133D01*
X57757Y23133D01*
X57757Y22841D01*
X57756Y22809D01*
X57755Y22782D01*
X57754Y22761D01*
X57751Y22746D01*
X57746Y22730D01*
X57738Y22715D01*
X57728Y22702D01*
X57716Y22691D01*
X57701Y22682D01*
X57685Y22676D01*
X57667Y22672D01*
X57648Y22671D01*
X57628Y22672D01*
X57609Y22676D01*
X57591Y22683D01*
X57573Y22692D01*
X57556Y22703D01*
X57543Y22716D01*
X57531Y22731D01*
X57523Y22748D01*
X57516Y22767D01*
X57512Y22791D01*
X57509Y22819D01*
X57508Y22851D01*
X57508Y23133D01*
X57419Y23133D01*
X57419Y22606D01*
X57499Y22606D01*
X57499Y22606D01*
X57084Y22686D02*
X57071Y22607D01*
X57089Y22604D01*
X57107Y22601D01*
X57123Y22600D01*
X57139Y22599D01*
X57162Y22600D01*
X57182Y22603D01*
X57199Y22608D01*
X57214Y22614D01*
X57226Y22623D01*
X57237Y22632D01*
X57245Y22643D01*
X57252Y22655D01*
X57256Y22671D01*
X57260Y22694D01*
X57262Y22724D01*
X57263Y22760D01*
X57263Y23063D01*
X57328Y23063D01*
X57328Y23133D01*
X57263Y23133D01*
X57263Y23263D01*
X57174Y23317D01*
X57174Y23133D01*
X57084Y23133D01*
X57084Y23063D01*
X57174Y23063D01*
X57174Y22755D01*
X57173Y22738D01*
X57173Y22724D01*
X57171Y22713D01*
X57169Y22706D01*
X57166Y22701D01*
X57163Y22696D01*
X57159Y22692D01*
X57154Y22689D01*
X57148Y22686D01*
X57141Y22684D01*
X57133Y22683D01*
X57123Y22682D01*
X57115Y22683D01*
X57106Y22683D01*
X57096Y22684D01*
X57084Y22686D01*
X57084Y22686D01*
X31496Y10024D02*
X31496Y10223D01*
X31693Y10223D01*
X31693Y10306D01*
X31496Y10306D01*
X31496Y10504D01*
X31411Y10504D01*
X31411Y10306D01*
X31213Y10306D01*
X31213Y10223D01*
X31411Y10223D01*
X31411Y10024D01*
X31496Y10024D01*
X31496Y10024D01*
X31062Y9906D02*
X31062Y10633D01*
X30966Y10633D01*
X30966Y9906D01*
X31062Y9906D01*
X31062Y9906D01*
X30807Y9906D02*
X30807Y10433D01*
X30727Y10433D01*
X30727Y10358D01*
X30695Y10396D01*
X30656Y10423D01*
X30611Y10439D01*
X30559Y10445D01*
X30536Y10444D01*
X30514Y10440D01*
X30492Y10435D01*
X30472Y10428D01*
X30453Y10418D01*
X30437Y10408D01*
X30423Y10396D01*
X30412Y10383D01*
X30403Y10368D01*
X30395Y10352D01*
X30389Y10335D01*
X30384Y10317D01*
X30382Y10302D01*
X30381Y10283D01*
X30380Y10259D01*
X30379Y10230D01*
X30379Y9906D01*
X30469Y9906D01*
X30469Y10226D01*
X30469Y10252D01*
X30471Y10274D01*
X30474Y10293D01*
X30479Y10308D01*
X30485Y10321D01*
X30493Y10332D01*
X30504Y10342D01*
X30516Y10351D01*
X30530Y10358D01*
X30545Y10363D01*
X30561Y10366D01*
X30578Y10367D01*
X30606Y10365D01*
X30631Y10358D01*
X30655Y10347D01*
X30677Y10331D01*
X30695Y10309D01*
X30708Y10279D01*
X30716Y10240D01*
X30718Y10194D01*
X30718Y9906D01*
X30807Y9906D01*
X30807Y9906D01*
X30242Y9704D02*
X30242Y10433D01*
X30161Y10433D01*
X30161Y10364D01*
X30117Y10322D01*
X30118Y10321D01*
X30137Y10292D01*
X30151Y10256D01*
X30159Y10214D01*
X30161Y10166D01*
X30161Y10166D01*
X30159Y10119D01*
X30151Y10078D01*
X30138Y10044D01*
X30120Y10016D01*
X30099Y9995D01*
X30075Y9980D01*
X30049Y9971D01*
X30021Y9968D01*
X29992Y9971D01*
X29965Y9980D01*
X29941Y9996D01*
X29919Y10018D01*
X29900Y10047D01*
X29887Y10082D01*
X29879Y10125D01*
X29876Y10174D01*
X29879Y10221D01*
X29887Y10262D01*
X29900Y10296D01*
X29918Y10325D01*
X29939Y10347D01*
X29963Y10362D01*
X29989Y10372D01*
X30017Y10375D01*
X30044Y10371D01*
X30070Y10361D01*
X30095Y10345D01*
X30117Y10322D01*
X30161Y10364D01*
X30146Y10383D01*
X30130Y10400D01*
X30114Y10413D01*
X30096Y10425D01*
X30077Y10433D01*
X30056Y10440D01*
X30033Y10444D01*
X30008Y10445D01*
X29975Y10443D01*
X29945Y10436D01*
X29916Y10425D01*
X29889Y10410D01*
X29865Y10391D01*
X29844Y10368D01*
X29826Y10342D01*
X29811Y10312D01*
X29800Y10280D01*
X29792Y10246D01*
X29787Y10210D01*
X29785Y10173D01*
X29787Y10134D01*
X29792Y10097D01*
X29801Y10061D01*
X29814Y10028D01*
X29830Y9997D01*
X29850Y9971D01*
X29872Y9948D01*
X29898Y9929D01*
X29926Y9913D01*
X29955Y9903D01*
X29984Y9896D01*
X30015Y9894D01*
X30036Y9895D01*
X30057Y9899D01*
X30076Y9905D01*
X30095Y9913D01*
X30112Y9923D01*
X30127Y9934D01*
X30141Y9947D01*
X30153Y9961D01*
X30153Y9704D01*
X30242Y9704D01*
X30242Y9704D01*
X29332Y9906D02*
X29332Y9983D01*
X29366Y9944D01*
X29405Y9916D01*
X29449Y9900D01*
X29499Y9894D01*
X29522Y9895D01*
X29544Y9899D01*
X29566Y9904D01*
X29586Y9912D01*
X29605Y9921D01*
X29621Y9932D01*
X29635Y9944D01*
X29646Y9957D01*
X29655Y9971D01*
X29663Y9987D01*
X29669Y10004D01*
X29674Y10023D01*
X29676Y10038D01*
X29678Y10057D01*
X29679Y10080D01*
X29679Y10106D01*
X29679Y10433D01*
X29590Y10433D01*
X29590Y10141D01*
X29590Y10109D01*
X29589Y10082D01*
X29587Y10061D01*
X29585Y10046D01*
X29579Y10030D01*
X29571Y10015D01*
X29561Y10002D01*
X29549Y9991D01*
X29534Y9982D01*
X29518Y9976D01*
X29501Y9972D01*
X29481Y9971D01*
X29462Y9972D01*
X29442Y9976D01*
X29424Y9983D01*
X29406Y9992D01*
X29390Y10003D01*
X29376Y10016D01*
X29365Y10031D01*
X29356Y10048D01*
X29350Y10067D01*
X29345Y10091D01*
X29342Y10119D01*
X29341Y10151D01*
X29341Y10433D01*
X29252Y10433D01*
X29252Y9906D01*
X29332Y9906D01*
X29332Y9906D01*
X28917Y9986D02*
X28904Y9907D01*
X28923Y9904D01*
X28940Y9901D01*
X28956Y9900D01*
X28972Y9899D01*
X28995Y9900D01*
X29015Y9903D01*
X29032Y9908D01*
X29047Y9914D01*
X29060Y9923D01*
X29070Y9932D01*
X29079Y9943D01*
X29085Y9955D01*
X29090Y9971D01*
X29093Y9994D01*
X29095Y10024D01*
X29096Y10060D01*
X29096Y10363D01*
X29161Y10363D01*
X29161Y10433D01*
X29096Y10433D01*
X29096Y10563D01*
X29007Y10617D01*
X29007Y10433D01*
X28917Y10433D01*
X28917Y10363D01*
X29007Y10363D01*
X29007Y10055D01*
X29007Y10038D01*
X29006Y10024D01*
X29004Y10013D01*
X29002Y10006D01*
X29000Y10001D01*
X28996Y9996D01*
X28992Y9992D01*
X28987Y9989D01*
X28981Y9986D01*
X28974Y9984D01*
X28966Y9983D01*
X28956Y9982D01*
X28948Y9983D01*
X28939Y9983D01*
X28929Y9984D01*
X28917Y9986D01*
X28917Y9986D01*
X31210Y15204D02*
X31210Y15294D01*
X30935Y15294D01*
X30935Y15204D01*
X31210Y15204D01*
X31210Y15204D01*
X30809Y14986D02*
X30809Y15713D01*
X30713Y15713D01*
X30713Y14986D01*
X30809Y14986D01*
X30809Y14986D01*
X30554Y14986D02*
X30554Y15513D01*
X30474Y15513D01*
X30474Y15438D01*
X30442Y15476D01*
X30403Y15503D01*
X30358Y15519D01*
X30306Y15525D01*
X30283Y15524D01*
X30261Y15520D01*
X30239Y15515D01*
X30219Y15508D01*
X30200Y15498D01*
X30184Y15488D01*
X30170Y15476D01*
X30159Y15463D01*
X30150Y15448D01*
X30142Y15432D01*
X30136Y15415D01*
X30131Y15397D01*
X30129Y15382D01*
X30128Y15363D01*
X30127Y15339D01*
X30126Y15310D01*
X30126Y14986D01*
X30216Y14986D01*
X30216Y15306D01*
X30216Y15332D01*
X30218Y15354D01*
X30221Y15373D01*
X30226Y15388D01*
X30232Y15401D01*
X30240Y15412D01*
X30251Y15422D01*
X30263Y15431D01*
X30277Y15438D01*
X30292Y15443D01*
X30308Y15446D01*
X30325Y15447D01*
X30353Y15445D01*
X30378Y15438D01*
X30402Y15427D01*
X30424Y15411D01*
X30442Y15389D01*
X30455Y15359D01*
X30463Y15320D01*
X30465Y15274D01*
X30465Y14986D01*
X30554Y14986D01*
X30554Y14986D01*
X29989Y14784D02*
X29989Y15513D01*
X29908Y15513D01*
X29908Y15444D01*
X29864Y15402D01*
X29865Y15401D01*
X29884Y15372D01*
X29898Y15336D01*
X29906Y15294D01*
X29909Y15246D01*
X29909Y15246D01*
X29906Y15199D01*
X29898Y15158D01*
X29885Y15124D01*
X29867Y15096D01*
X29846Y15075D01*
X29822Y15060D01*
X29796Y15051D01*
X29768Y15048D01*
X29739Y15051D01*
X29712Y15060D01*
X29688Y15076D01*
X29666Y15098D01*
X29647Y15127D01*
X29634Y15162D01*
X29626Y15205D01*
X29623Y15254D01*
X29626Y15301D01*
X29634Y15342D01*
X29647Y15376D01*
X29665Y15405D01*
X29686Y15427D01*
X29710Y15442D01*
X29736Y15452D01*
X29764Y15455D01*
X29791Y15451D01*
X29817Y15441D01*
X29842Y15425D01*
X29864Y15402D01*
X29908Y15444D01*
X29893Y15463D01*
X29877Y15480D01*
X29861Y15493D01*
X29843Y15505D01*
X29824Y15513D01*
X29803Y15520D01*
X29780Y15524D01*
X29755Y15525D01*
X29722Y15523D01*
X29692Y15516D01*
X29663Y15505D01*
X29636Y15490D01*
X29612Y15471D01*
X29591Y15448D01*
X29573Y15422D01*
X29558Y15392D01*
X29547Y15360D01*
X29539Y15326D01*
X29534Y15290D01*
X29532Y15253D01*
X29534Y15214D01*
X29539Y15177D01*
X29548Y15141D01*
X29561Y15108D01*
X29577Y15077D01*
X29597Y15051D01*
X29619Y15028D01*
X29645Y15009D01*
X29673Y14993D01*
X29702Y14983D01*
X29732Y14976D01*
X29762Y14974D01*
X29783Y14975D01*
X29804Y14979D01*
X29823Y14985D01*
X29842Y14993D01*
X29859Y15003D01*
X29874Y15014D01*
X29888Y15027D01*
X29900Y15041D01*
X29900Y14784D01*
X29989Y14784D01*
X29989Y14784D01*
X29079Y14986D02*
X29079Y15063D01*
X29113Y15024D01*
X29152Y14996D01*
X29196Y14980D01*
X29246Y14974D01*
X29269Y14975D01*
X29291Y14979D01*
X29313Y14984D01*
X29333Y14992D01*
X29352Y15001D01*
X29369Y15012D01*
X29382Y15024D01*
X29393Y15037D01*
X29402Y15051D01*
X29410Y15067D01*
X29416Y15084D01*
X29421Y15103D01*
X29423Y15118D01*
X29425Y15137D01*
X29426Y15160D01*
X29426Y15186D01*
X29426Y15513D01*
X29337Y15513D01*
X29337Y15221D01*
X29337Y15189D01*
X29336Y15162D01*
X29334Y15141D01*
X29332Y15126D01*
X29326Y15110D01*
X29318Y15095D01*
X29308Y15082D01*
X29296Y15071D01*
X29281Y15062D01*
X29265Y15056D01*
X29248Y15052D01*
X29228Y15051D01*
X29209Y15052D01*
X29189Y15056D01*
X29171Y15063D01*
X29153Y15072D01*
X29137Y15083D01*
X29123Y15096D01*
X29112Y15111D01*
X29103Y15128D01*
X29097Y15147D01*
X29092Y15171D01*
X29089Y15199D01*
X29088Y15231D01*
X29088Y15513D01*
X28999Y15513D01*
X28999Y14986D01*
X29079Y14986D01*
X29079Y14986D01*
X28664Y15066D02*
X28651Y14987D01*
X28670Y14984D01*
X28687Y14981D01*
X28703Y14980D01*
X28719Y14979D01*
X28742Y14980D01*
X28762Y14983D01*
X28780Y14988D01*
X28794Y14994D01*
X28807Y15003D01*
X28817Y15012D01*
X28826Y15023D01*
X28832Y15035D01*
X28837Y15051D01*
X28840Y15074D01*
X28842Y15104D01*
X28843Y15140D01*
X28843Y15443D01*
X28908Y15443D01*
X28908Y15513D01*
X28843Y15513D01*
X28843Y15643D01*
X28754Y15697D01*
X28754Y15513D01*
X28664Y15513D01*
X28664Y15443D01*
X28754Y15443D01*
X28754Y15135D01*
X28754Y15118D01*
X28753Y15104D01*
X28751Y15093D01*
X28749Y15086D01*
X28747Y15081D01*
X28743Y15076D01*
X28739Y15072D01*
X28734Y15069D01*
X28728Y15066D01*
X28721Y15064D01*
X28713Y15063D01*
X28703Y15062D01*
X28695Y15063D01*
X28686Y15063D01*
X28676Y15064D01*
X28664Y15066D01*
X28664Y15066D01*
X31153Y22861D02*
X31056Y22837D01*
X31075Y22781D01*
X31099Y22732D01*
X31129Y22691D01*
X31165Y22656D01*
X31207Y22629D01*
X31253Y22609D01*
X31303Y22597D01*
X31358Y22594D01*
X31414Y22597D01*
X31464Y22606D01*
X31509Y22621D01*
X31549Y22641D01*
X31583Y22668D01*
X31614Y22700D01*
X31640Y22737D01*
X31661Y22780D01*
X31678Y22826D01*
X31690Y22874D01*
X31697Y22924D01*
X31699Y22975D01*
X31697Y23030D01*
X31689Y23081D01*
X31675Y23129D01*
X31656Y23173D01*
X31632Y23213D01*
X31603Y23248D01*
X31570Y23277D01*
X31532Y23302D01*
X31491Y23321D01*
X31448Y23335D01*
X31403Y23343D01*
X31356Y23346D01*
X31304Y23342D01*
X31256Y23332D01*
X31212Y23314D01*
X31173Y23290D01*
X31138Y23260D01*
X31109Y23223D01*
X31086Y23181D01*
X31069Y23134D01*
X31164Y23112D01*
X31178Y23149D01*
X31195Y23180D01*
X31214Y23206D01*
X31237Y23227D01*
X31263Y23243D01*
X31291Y23254D01*
X31323Y23261D01*
X31358Y23263D01*
X31398Y23261D01*
X31435Y23253D01*
X31468Y23241D01*
X31498Y23223D01*
X31524Y23201D01*
X31546Y23176D01*
X31564Y23147D01*
X31577Y23115D01*
X31587Y23081D01*
X31594Y23046D01*
X31599Y23011D01*
X31600Y22976D01*
X31598Y22931D01*
X31593Y22889D01*
X31585Y22850D01*
X31573Y22814D01*
X31558Y22781D01*
X31539Y22753D01*
X31516Y22729D01*
X31489Y22710D01*
X31460Y22695D01*
X31430Y22685D01*
X31398Y22678D01*
X31366Y22676D01*
X31327Y22679D01*
X31291Y22688D01*
X31258Y22702D01*
X31229Y22723D01*
X31203Y22749D01*
X31182Y22781D01*
X31165Y22818D01*
X31153Y22861D01*
X31153Y22861D01*
X30983Y22869D02*
X30977Y22938D01*
X30962Y22997D01*
X30937Y23046D01*
X30901Y23086D01*
X30865Y23112D01*
X30826Y23130D01*
X30782Y23141D01*
X30735Y23145D01*
X30684Y23140D01*
X30637Y23127D01*
X30595Y23105D01*
X30558Y23074D01*
X30528Y23035D01*
X30506Y22989D01*
X30493Y22936D01*
X30489Y22877D01*
X30491Y22829D01*
X30497Y22786D01*
X30506Y22749D01*
X30519Y22717D01*
X30536Y22689D01*
X30557Y22665D01*
X30581Y22644D01*
X30608Y22626D01*
X30638Y22612D01*
X30669Y22602D01*
X30702Y22596D01*
X30735Y22594D01*
X30742Y22595D01*
X30735Y22668D01*
X30704Y22671D01*
X30675Y22680D01*
X30648Y22696D01*
X30625Y22718D01*
X30606Y22747D01*
X30592Y22782D01*
X30583Y22824D01*
X30581Y22872D01*
X30583Y22918D01*
X30592Y22958D01*
X30606Y22992D01*
X30625Y23020D01*
X30649Y23043D01*
X30675Y23058D01*
X30704Y23068D01*
X30735Y23071D01*
X30768Y23068D01*
X30797Y23058D01*
X30823Y23043D01*
X30847Y23021D01*
X30866Y22992D01*
X30880Y22958D01*
X30888Y22917D01*
X30891Y22869D01*
X30891Y22869D01*
X30888Y22822D01*
X30880Y22781D01*
X30866Y22746D01*
X30847Y22718D01*
X30823Y22696D01*
X30797Y22680D01*
X30768Y22671D01*
X30735Y22668D01*
X30742Y22595D01*
X30788Y22599D01*
X30836Y22612D01*
X30878Y22634D01*
X30914Y22665D01*
X30944Y22704D01*
X30965Y22752D01*
X30978Y22807D01*
X30983Y22869D01*
X30983Y22869D01*
X30384Y22606D02*
X30384Y23133D01*
X30304Y23133D01*
X30304Y23058D01*
X30272Y23096D01*
X30233Y23123D01*
X30188Y23139D01*
X30136Y23145D01*
X30113Y23144D01*
X30090Y23140D01*
X30069Y23135D01*
X30049Y23128D01*
X30030Y23118D01*
X30014Y23108D01*
X30000Y23096D01*
X29989Y23083D01*
X29980Y23068D01*
X29972Y23052D01*
X29966Y23035D01*
X29961Y23017D01*
X29959Y23002D01*
X29957Y22983D01*
X29956Y22959D01*
X29956Y22930D01*
X29956Y22606D01*
X30045Y22606D01*
X30045Y22926D01*
X30046Y22952D01*
X30048Y22974D01*
X30051Y22993D01*
X30056Y23008D01*
X30062Y23021D01*
X30070Y23032D01*
X30081Y23043D01*
X30093Y23051D01*
X30107Y23058D01*
X30122Y23063D01*
X30138Y23066D01*
X30155Y23067D01*
X30183Y23065D01*
X30208Y23058D01*
X30232Y23047D01*
X30254Y23031D01*
X30272Y23009D01*
X30285Y22979D01*
X30292Y22940D01*
X30295Y22894D01*
X30295Y22606D01*
X30384Y22606D01*
X30384Y22606D01*
X29624Y22686D02*
X29611Y22607D01*
X29630Y22604D01*
X29647Y22601D01*
X29663Y22600D01*
X29679Y22599D01*
X29702Y22600D01*
X29722Y22603D01*
X29739Y22608D01*
X29754Y22614D01*
X29767Y22623D01*
X29777Y22632D01*
X29785Y22643D01*
X29792Y22655D01*
X29797Y22671D01*
X29800Y22694D01*
X29802Y22724D01*
X29803Y22760D01*
X29803Y23063D01*
X29868Y23063D01*
X29868Y23133D01*
X29803Y23133D01*
X29803Y23263D01*
X29714Y23317D01*
X29714Y23133D01*
X29624Y23133D01*
X29624Y23063D01*
X29714Y23063D01*
X29714Y22755D01*
X29714Y22738D01*
X29713Y22724D01*
X29711Y22713D01*
X29709Y22706D01*
X29707Y22701D01*
X29703Y22696D01*
X29699Y22692D01*
X29694Y22689D01*
X29688Y22686D01*
X29681Y22684D01*
X29673Y22683D01*
X29663Y22682D01*
X29655Y22683D01*
X29646Y22683D01*
X29636Y22684D01*
X29624Y22686D01*
X29624Y22686D01*
X29538Y22606D02*
X29538Y23133D01*
X29458Y23133D01*
X29458Y23053D01*
X29442Y23079D01*
X29428Y23099D01*
X29414Y23116D01*
X29401Y23127D01*
X29387Y23135D01*
X29373Y23140D01*
X29359Y23144D01*
X29343Y23145D01*
X29321Y23143D01*
X29298Y23138D01*
X29275Y23129D01*
X29252Y23116D01*
X29282Y23033D01*
X29299Y23042D01*
X29315Y23048D01*
X29332Y23051D01*
X29348Y23052D01*
X29362Y23051D01*
X29376Y23048D01*
X29388Y23043D01*
X29400Y23035D01*
X29411Y23025D01*
X29420Y23014D01*
X29428Y23001D01*
X29434Y22986D01*
X29440Y22962D01*
X29445Y22936D01*
X29448Y22910D01*
X29449Y22882D01*
X29449Y22606D01*
X29538Y22606D01*
X29538Y22606D01*
X29232Y22869D02*
X29227Y22938D01*
X29211Y22997D01*
X29186Y23046D01*
X29150Y23086D01*
X29115Y23112D01*
X29075Y23130D01*
X29032Y23141D01*
X28985Y23145D01*
X28933Y23140D01*
X28886Y23127D01*
X28844Y23105D01*
X28807Y23074D01*
X28777Y23035D01*
X28755Y22989D01*
X28743Y22936D01*
X28738Y22877D01*
X28740Y22829D01*
X28746Y22786D01*
X28755Y22749D01*
X28769Y22717D01*
X28786Y22689D01*
X28806Y22665D01*
X28830Y22644D01*
X28858Y22626D01*
X28887Y22612D01*
X28918Y22602D01*
X28951Y22596D01*
X28985Y22594D01*
X28991Y22595D01*
X28985Y22668D01*
X28953Y22671D01*
X28924Y22680D01*
X28898Y22696D01*
X28874Y22718D01*
X28855Y22747D01*
X28841Y22782D01*
X28833Y22824D01*
X28830Y22872D01*
X28833Y22918D01*
X28841Y22958D01*
X28855Y22992D01*
X28874Y23020D01*
X28898Y23043D01*
X28924Y23058D01*
X28953Y23068D01*
X28985Y23071D01*
X29017Y23068D01*
X29046Y23058D01*
X29072Y23043D01*
X29096Y23021D01*
X29115Y22992D01*
X29129Y22958D01*
X29137Y22917D01*
X29140Y22869D01*
X29140Y22869D01*
X29137Y22822D01*
X29129Y22781D01*
X29115Y22746D01*
X29096Y22718D01*
X29072Y22696D01*
X29046Y22680D01*
X29017Y22671D01*
X28985Y22668D01*
X28991Y22595D01*
X29037Y22599D01*
X29085Y22612D01*
X29127Y22634D01*
X29164Y22665D01*
X29193Y22704D01*
X29215Y22752D01*
X29228Y22807D01*
X29232Y22869D01*
X29232Y22869D01*
X28636Y22606D02*
X28636Y23333D01*
X28546Y23333D01*
X28546Y22606D01*
X28636Y22606D01*
X28636Y22606D01*
G37*
%LNtext*%
G36*
X40894Y8121D02*
X42167Y7628D01*
X42167Y7810D01*
X41242Y8141D01*
X41187Y8160D01*
X41134Y8178D01*
X41083Y8193D01*
X41034Y8208D01*
X41086Y8223D01*
X41138Y8240D01*
X41190Y8257D01*
X41242Y8276D01*
X42167Y8620D01*
X42167Y8792D01*
X40894Y8294D01*
X40894Y8121D01*
X40894Y8121D01*
X41191Y9456D02*
X41171Y9618D01*
X41104Y9595D01*
X41045Y9563D01*
X40994Y9524D01*
X40951Y9476D01*
X40917Y9421D01*
X40893Y9359D01*
X40878Y9289D01*
X40873Y9212D01*
X40881Y9116D01*
X40904Y9031D01*
X40943Y8956D01*
X40998Y8891D01*
X41066Y8840D01*
X41147Y8803D01*
X41241Y8780D01*
X41347Y8773D01*
X41457Y8780D01*
X41554Y8803D01*
X41638Y8840D01*
X41708Y8893D01*
X41765Y8957D01*
X41805Y9030D01*
X41829Y9113D01*
X41837Y9204D01*
X41836Y9217D01*
X41708Y9205D01*
X41704Y9154D01*
X41690Y9106D01*
X41668Y9063D01*
X41636Y9024D01*
X41597Y8992D01*
X41552Y8967D01*
X41501Y8951D01*
X41444Y8943D01*
X41444Y8943D01*
X41444Y9458D01*
X41498Y9450D01*
X41545Y9438D01*
X41585Y9421D01*
X41618Y9399D01*
X41658Y9359D01*
X41686Y9313D01*
X41703Y9262D01*
X41708Y9205D01*
X41836Y9217D01*
X41829Y9292D01*
X41805Y9372D01*
X41766Y9443D01*
X41711Y9506D01*
X41642Y9557D01*
X41559Y9594D01*
X41464Y9616D01*
X41357Y9623D01*
X41349Y9623D01*
X41339Y9623D01*
X41328Y9622D01*
X41315Y9622D01*
X41315Y8934D01*
X41244Y8943D01*
X41181Y8960D01*
X41127Y8986D01*
X41082Y9020D01*
X41047Y9061D01*
X41022Y9107D01*
X41007Y9158D01*
X41002Y9213D01*
X41004Y9255D01*
X41013Y9293D01*
X41027Y9328D01*
X41047Y9360D01*
X41073Y9389D01*
X41105Y9414D01*
X41145Y9437D01*
X41191Y9456D01*
X41191Y9456D01*
X40894Y9812D02*
X41816Y9812D01*
X41816Y9953D01*
X41676Y9953D01*
X41721Y9979D01*
X41758Y10005D01*
X41786Y10029D01*
X41806Y10052D01*
X41819Y10076D01*
X41829Y10100D01*
X41835Y10126D01*
X41837Y10152D01*
X41834Y10192D01*
X41824Y10232D01*
X41809Y10272D01*
X41786Y10313D01*
X41641Y10259D01*
X41656Y10231D01*
X41667Y10202D01*
X41673Y10173D01*
X41675Y10145D01*
X41673Y10120D01*
X41668Y10096D01*
X41658Y10074D01*
X41645Y10053D01*
X41628Y10034D01*
X41608Y10018D01*
X41585Y10005D01*
X41559Y9994D01*
X41516Y9983D01*
X41472Y9975D01*
X41425Y9970D01*
X41377Y9968D01*
X40894Y9968D01*
X40894Y9812D01*
X40894Y9812D01*
X41169Y10343D02*
X41194Y10498D01*
X41150Y10507D01*
X41111Y10523D01*
X41079Y10544D01*
X41051Y10570D01*
X41029Y10603D01*
X41014Y10642D01*
X41005Y10686D01*
X41002Y10737D01*
X41004Y10787D01*
X41013Y10830D01*
X41026Y10867D01*
X41045Y10896D01*
X41068Y10919D01*
X41093Y10936D01*
X41120Y10945D01*
X41148Y10949D01*
X41173Y10946D01*
X41196Y10937D01*
X41215Y10923D01*
X41232Y10903D01*
X41243Y10881D01*
X41255Y10847D01*
X41269Y10801D01*
X41285Y10743D01*
X41306Y10663D01*
X41325Y10597D01*
X41343Y10544D01*
X41360Y10505D01*
X41377Y10473D01*
X41398Y10446D01*
X41421Y10423D01*
X41447Y10404D01*
X41476Y10389D01*
X41506Y10378D01*
X41538Y10372D01*
X41571Y10370D01*
X41601Y10371D01*
X41631Y10377D01*
X41658Y10385D01*
X41685Y10398D01*
X41710Y10413D01*
X41733Y10431D01*
X41754Y10452D01*
X41773Y10475D01*
X41786Y10494D01*
X41797Y10518D01*
X41808Y10544D01*
X41818Y10574D01*
X41826Y10606D01*
X41832Y10639D01*
X41836Y10673D01*
X41837Y10709D01*
X41835Y10762D01*
X41829Y10811D01*
X41819Y10857D01*
X41806Y10900D01*
X41789Y10938D01*
X41769Y10971D01*
X41746Y10998D01*
X41721Y11021D01*
X41692Y11039D01*
X41659Y11054D01*
X41621Y11066D01*
X41578Y11074D01*
X41557Y10922D01*
X41591Y10914D01*
X41621Y10901D01*
X41646Y10884D01*
X41668Y10861D01*
X41686Y10834D01*
X41698Y10801D01*
X41706Y10763D01*
X41708Y10720D01*
X41706Y10670D01*
X41699Y10628D01*
X41688Y10593D01*
X41673Y10567D01*
X41654Y10546D01*
X41634Y10532D01*
X41613Y10523D01*
X41589Y10521D01*
X41575Y10522D01*
X41561Y10525D01*
X41547Y10531D01*
X41535Y10540D01*
X41523Y10551D01*
X41512Y10564D01*
X41502Y10581D01*
X41493Y10600D01*
X41487Y10617D01*
X41479Y10646D01*
X41467Y10686D01*
X41453Y10738D01*
X41432Y10814D01*
X41413Y10878D01*
X41396Y10930D01*
X41381Y10969D01*
X41365Y11000D01*
X41346Y11027D01*
X41324Y11051D01*
X41299Y11072D01*
X41270Y11088D01*
X41238Y11100D01*
X41203Y11107D01*
X41165Y11109D01*
X41126Y11106D01*
X41089Y11098D01*
X41053Y11084D01*
X41018Y11064D01*
X40985Y11038D01*
X40957Y11008D01*
X40932Y10973D01*
X40911Y10932D01*
X40894Y10888D01*
X40883Y10840D01*
X40876Y10790D01*
X40873Y10738D01*
X40878Y10653D01*
X40892Y10579D01*
X40915Y10516D01*
X40948Y10464D01*
X40990Y10421D01*
X41041Y10387D01*
X41100Y10361D01*
X41169Y10343D01*
X41169Y10343D01*
X40894Y11296D02*
X41816Y11296D01*
X41816Y11452D01*
X40894Y11452D01*
X40894Y11296D01*
X40894Y11296D01*
X41987Y11296D02*
X42167Y11296D01*
X42167Y11452D01*
X41987Y11452D01*
X41987Y11296D01*
X41987Y11296D01*
X41355Y11632D02*
X41475Y11641D01*
X41578Y11667D01*
X41664Y11712D01*
X41734Y11774D01*
X41779Y11837D01*
X41811Y11906D01*
X41830Y11982D01*
X41837Y12064D01*
X41829Y12155D01*
X41806Y12237D01*
X41767Y12310D01*
X41712Y12375D01*
X41644Y12428D01*
X41564Y12465D01*
X41472Y12488D01*
X41368Y12496D01*
X41284Y12492D01*
X41209Y12482D01*
X41144Y12466D01*
X41088Y12442D01*
X41040Y12413D01*
X40997Y12377D01*
X40961Y12335D01*
X40930Y12287D01*
X40905Y12235D01*
X40887Y12180D01*
X40877Y12123D01*
X40873Y12064D01*
X40874Y12053D01*
X41002Y12064D01*
X41007Y12120D01*
X41024Y12171D01*
X41051Y12217D01*
X41090Y12258D01*
X41140Y12292D01*
X41202Y12316D01*
X41275Y12330D01*
X41360Y12335D01*
X41441Y12330D01*
X41511Y12316D01*
X41570Y12291D01*
X41619Y12257D01*
X41658Y12216D01*
X41685Y12170D01*
X41702Y12120D01*
X41707Y12064D01*
X41702Y12008D01*
X41686Y11957D01*
X41658Y11911D01*
X41620Y11870D01*
X41570Y11836D01*
X41510Y11812D01*
X41438Y11797D01*
X41355Y11792D01*
X41355Y11792D01*
X41272Y11797D01*
X41200Y11812D01*
X41139Y11836D01*
X41090Y11870D01*
X41051Y11911D01*
X41024Y11957D01*
X41007Y12008D01*
X41002Y12064D01*
X40874Y12053D01*
X40881Y11972D01*
X40904Y11889D01*
X40943Y11816D01*
X40997Y11751D01*
X41066Y11699D01*
X41149Y11662D01*
X41245Y11639D01*
X41355Y11632D01*
X41355Y11632D01*
X40894Y12679D02*
X41816Y12679D01*
X41816Y12819D01*
X41685Y12819D01*
X41751Y12876D01*
X41799Y12944D01*
X41827Y13023D01*
X41837Y13113D01*
X41835Y13154D01*
X41829Y13193D01*
X41820Y13230D01*
X41807Y13266D01*
X41791Y13299D01*
X41772Y13327D01*
X41751Y13351D01*
X41728Y13371D01*
X41703Y13387D01*
X41675Y13400D01*
X41645Y13411D01*
X41613Y13419D01*
X41587Y13423D01*
X41553Y13426D01*
X41511Y13428D01*
X41461Y13428D01*
X40894Y13428D01*
X40894Y13272D01*
X41455Y13272D01*
X41500Y13271D01*
X41538Y13267D01*
X41571Y13262D01*
X41598Y13254D01*
X41620Y13243D01*
X41640Y13228D01*
X41658Y13210D01*
X41673Y13189D01*
X41686Y13165D01*
X41694Y13138D01*
X41700Y13110D01*
X41701Y13080D01*
X41697Y13032D01*
X41686Y12987D01*
X41666Y12946D01*
X41638Y12908D01*
X41599Y12876D01*
X41546Y12853D01*
X41479Y12840D01*
X41398Y12835D01*
X40894Y12835D01*
X40894Y12679D01*
X40894Y12679D01*
X40894Y14707D02*
X40894Y14551D01*
X41890Y14551D01*
X41863Y14520D01*
X41836Y14485D01*
X41809Y14446D01*
X41782Y14403D01*
X41757Y14358D01*
X41735Y14316D01*
X41717Y14276D01*
X41701Y14238D01*
X41852Y14238D01*
X41885Y14302D01*
X41921Y14361D01*
X41960Y14416D01*
X42002Y14467D01*
X42045Y14513D01*
X42088Y14551D01*
X42130Y14582D01*
X42172Y14606D01*
X42172Y14707D01*
X40894Y14707D01*
X40894Y14707D01*
X40894Y15195D02*
X41072Y15195D01*
X41072Y15373D01*
X40894Y15373D01*
X40894Y15195D01*
X40894Y15195D01*
X41044Y16422D02*
X40894Y16422D01*
X40894Y15581D01*
X40922Y15582D01*
X40949Y15585D01*
X40976Y15591D01*
X41003Y15599D01*
X41045Y15618D01*
X41088Y15641D01*
X41130Y15669D01*
X41172Y15702D01*
X41215Y15742D01*
X41262Y15789D01*
X41311Y15844D01*
X41365Y15907D01*
X41445Y16002D01*
X41517Y16081D01*
X41580Y16142D01*
X41634Y16187D01*
X41683Y16219D01*
X41731Y16242D01*
X41777Y16255D01*
X41822Y16260D01*
X41867Y16256D01*
X41908Y16243D01*
X41945Y16223D01*
X41979Y16194D01*
X42007Y16158D01*
X42027Y16117D01*
X42039Y16071D01*
X42043Y16020D01*
X42038Y15967D01*
X42026Y15919D01*
X42004Y15877D01*
X41975Y15840D01*
X41938Y15810D01*
X41894Y15789D01*
X41844Y15776D01*
X41787Y15771D01*
X41804Y15611D01*
X41888Y15625D01*
X41962Y15650D01*
X42025Y15687D01*
X42078Y15735D01*
X42119Y15793D01*
X42148Y15861D01*
X42166Y15938D01*
X42172Y16024D01*
X42166Y16111D01*
X42147Y16188D01*
X42115Y16256D01*
X42070Y16314D01*
X42017Y16361D01*
X41957Y16394D01*
X41891Y16414D01*
X41819Y16421D01*
X41781Y16419D01*
X41743Y16413D01*
X41705Y16403D01*
X41668Y16389D01*
X41631Y16371D01*
X41593Y16348D01*
X41553Y16319D01*
X41513Y16286D01*
X41468Y16243D01*
X41416Y16189D01*
X41356Y16123D01*
X41289Y16045D01*
X41235Y15981D01*
X41190Y15929D01*
X41155Y15890D01*
X41129Y15864D01*
X41108Y15845D01*
X41087Y15828D01*
X41065Y15812D01*
X41044Y15798D01*
X41044Y16422D01*
X41044Y16422D01*
X40894Y16678D02*
X41072Y16678D01*
X41072Y16856D01*
X40894Y16856D01*
X40894Y16678D01*
X40894Y16678D01*
X41522Y17084D02*
X41629Y17087D01*
X41725Y17096D01*
X41811Y17110D01*
X41885Y17130D01*
X41950Y17156D01*
X42007Y17188D01*
X42056Y17225D01*
X42097Y17268D01*
X42130Y17317D01*
X42153Y17372D01*
X42167Y17432D01*
X42172Y17499D01*
X42169Y17549D01*
X42162Y17595D01*
X42149Y17638D01*
X42131Y17679D01*
X42108Y17716D01*
X42080Y17749D01*
X42048Y17779D01*
X42012Y17806D01*
X41971Y17830D01*
X41926Y17851D01*
X41876Y17870D01*
X41823Y17885D01*
X41762Y17898D01*
X41692Y17907D01*
X41611Y17912D01*
X41522Y17914D01*
X41415Y17911D01*
X41319Y17902D01*
X41234Y17888D01*
X41160Y17868D01*
X41095Y17842D01*
X41038Y17810D01*
X40989Y17773D01*
X40947Y17730D01*
X40915Y17681D01*
X40891Y17627D01*
X40877Y17566D01*
X40872Y17499D01*
X40873Y17487D01*
X41001Y17499D01*
X41007Y17551D01*
X41027Y17598D01*
X41059Y17641D01*
X41105Y17680D01*
X41170Y17712D01*
X41261Y17735D01*
X41378Y17749D01*
X41522Y17753D01*
X41666Y17749D01*
X41783Y17735D01*
X41874Y17712D01*
X41939Y17680D01*
X41984Y17641D01*
X42017Y17598D01*
X42036Y17550D01*
X42043Y17497D01*
X42037Y17446D01*
X42020Y17400D01*
X41991Y17360D01*
X41951Y17325D01*
X41881Y17290D01*
X41786Y17265D01*
X41666Y17250D01*
X41522Y17245D01*
X41522Y17245D01*
X41378Y17249D01*
X41261Y17263D01*
X41170Y17286D01*
X41105Y17318D01*
X41059Y17357D01*
X41027Y17400D01*
X41007Y17447D01*
X41001Y17499D01*
X40873Y17487D01*
X40881Y17412D01*
X40905Y17335D01*
X40947Y17267D01*
X41004Y17210D01*
X41096Y17155D01*
X41213Y17115D01*
X41355Y17092D01*
X41522Y17084D01*
X41522Y17084D01*
X44196Y1267D02*
X45381Y1723D01*
X45335Y1843D01*
X45274Y1830D01*
X45213Y1814D01*
X45152Y1795D01*
X45092Y1774D01*
X44719Y1635D01*
X44719Y1635D01*
X44719Y2066D01*
X45071Y1933D01*
X45148Y1905D01*
X45217Y1880D01*
X45280Y1860D01*
X45335Y1843D01*
X45381Y1723D01*
X45469Y1756D01*
X45469Y1938D01*
X44196Y2459D01*
X44196Y2267D01*
X44581Y2118D01*
X44581Y1586D01*
X44196Y1446D01*
X44196Y1267D01*
X44196Y1267D01*
X44471Y2511D02*
X44496Y2665D01*
X44452Y2675D01*
X44413Y2690D01*
X44381Y2711D01*
X44353Y2738D01*
X44331Y2770D01*
X44316Y2809D01*
X44307Y2853D01*
X44304Y2904D01*
X44306Y2954D01*
X44315Y2998D01*
X44328Y3034D01*
X44347Y3064D01*
X44370Y3086D01*
X44395Y3103D01*
X44422Y3112D01*
X44450Y3116D01*
X44475Y3113D01*
X44498Y3104D01*
X44517Y3090D01*
X44534Y3070D01*
X44545Y3048D01*
X44557Y3014D01*
X44571Y2968D01*
X44587Y2910D01*
X44608Y2831D01*
X44627Y2764D01*
X44645Y2711D01*
X44662Y2672D01*
X44679Y2640D01*
X44700Y2613D01*
X44723Y2590D01*
X44749Y2571D01*
X44778Y2556D01*
X44808Y2545D01*
X44840Y2539D01*
X44873Y2537D01*
X44903Y2538D01*
X44933Y2544D01*
X44960Y2553D01*
X44987Y2565D01*
X45012Y2580D01*
X45035Y2598D01*
X45056Y2619D01*
X45075Y2642D01*
X45088Y2662D01*
X45099Y2685D01*
X45110Y2711D01*
X45120Y2741D01*
X45128Y2773D01*
X45134Y2806D01*
X45138Y2841D01*
X45139Y2876D01*
X45137Y2929D01*
X45131Y2978D01*
X45121Y3024D01*
X45108Y3067D01*
X45091Y3105D01*
X45071Y3138D01*
X45048Y3166D01*
X45023Y3188D01*
X44994Y3206D01*
X44961Y3221D01*
X44923Y3233D01*
X44880Y3242D01*
X44859Y3089D01*
X44893Y3081D01*
X44923Y3069D01*
X44948Y3051D01*
X44970Y3028D01*
X44988Y3001D01*
X45000Y2968D01*
X45008Y2930D01*
X45010Y2887D01*
X45008Y2837D01*
X45001Y2795D01*
X44990Y2761D01*
X44975Y2734D01*
X44956Y2714D01*
X44936Y2699D01*
X44915Y2691D01*
X44891Y2688D01*
X44877Y2689D01*
X44863Y2693D01*
X44849Y2698D01*
X44837Y2707D01*
X44825Y2718D01*
X44814Y2731D01*
X44804Y2748D01*
X44795Y2767D01*
X44789Y2784D01*
X44781Y2813D01*
X44769Y2853D01*
X44755Y2905D01*
X44734Y2981D01*
X44715Y3046D01*
X44698Y3097D01*
X44683Y3136D01*
X44667Y3167D01*
X44648Y3195D01*
X44626Y3219D01*
X44601Y3239D01*
X44572Y3255D01*
X44540Y3267D01*
X44505Y3274D01*
X44467Y3276D01*
X44428Y3274D01*
X44391Y3265D01*
X44355Y3251D01*
X44320Y3231D01*
X44287Y3205D01*
X44259Y3175D01*
X44234Y3140D01*
X44213Y3099D01*
X44196Y3055D01*
X44185Y3008D01*
X44178Y2958D01*
X44175Y2905D01*
X44180Y2820D01*
X44194Y2746D01*
X44217Y2683D01*
X44250Y2631D01*
X44292Y2588D01*
X44343Y2554D01*
X44402Y2528D01*
X44471Y2511D01*
X44471Y2511D01*
X44336Y3803D02*
X44198Y3826D01*
X44192Y3794D01*
X44187Y3763D01*
X44185Y3735D01*
X44184Y3708D01*
X44186Y3668D01*
X44191Y3632D01*
X44199Y3602D01*
X44211Y3576D01*
X44225Y3554D01*
X44242Y3536D01*
X44261Y3521D01*
X44282Y3510D01*
X44309Y3502D01*
X44350Y3496D01*
X44402Y3492D01*
X44466Y3491D01*
X44996Y3491D01*
X44996Y3376D01*
X45118Y3376D01*
X45118Y3491D01*
X45346Y3491D01*
X45440Y3646D01*
X45118Y3646D01*
X45118Y3803D01*
X44996Y3803D01*
X44996Y3646D01*
X44457Y3646D01*
X44427Y3647D01*
X44402Y3648D01*
X44384Y3651D01*
X44371Y3654D01*
X44362Y3659D01*
X44354Y3665D01*
X44347Y3673D01*
X44341Y3681D01*
X44336Y3692D01*
X44333Y3704D01*
X44330Y3718D01*
X44330Y3735D01*
X44330Y3749D01*
X44331Y3765D01*
X44333Y3783D01*
X44336Y3803D01*
X44336Y3803D01*
X44196Y3954D02*
X45118Y3954D01*
X45118Y4095D01*
X44978Y4095D01*
X45023Y4121D01*
X45060Y4147D01*
X45088Y4171D01*
X45108Y4194D01*
X45121Y4218D01*
X45131Y4242D01*
X45137Y4268D01*
X45139Y4295D01*
X45136Y4334D01*
X45126Y4374D01*
X45111Y4415D01*
X45088Y4455D01*
X44943Y4402D01*
X44958Y4373D01*
X44969Y4344D01*
X44975Y4316D01*
X44977Y4287D01*
X44975Y4262D01*
X44970Y4238D01*
X44960Y4216D01*
X44947Y4195D01*
X44930Y4176D01*
X44910Y4160D01*
X44887Y4147D01*
X44861Y4137D01*
X44818Y4125D01*
X44774Y4117D01*
X44727Y4112D01*
X44679Y4111D01*
X44196Y4111D01*
X44196Y3954D01*
X44196Y3954D01*
X44657Y4490D02*
X44777Y4499D01*
X44880Y4526D01*
X44966Y4570D01*
X45036Y4632D01*
X45081Y4695D01*
X45113Y4764D01*
X45132Y4840D01*
X45139Y4922D01*
X45131Y5013D01*
X45108Y5095D01*
X45069Y5169D01*
X45014Y5233D01*
X44946Y5286D01*
X44866Y5324D01*
X44774Y5346D01*
X44670Y5354D01*
X44586Y5351D01*
X44511Y5341D01*
X44446Y5324D01*
X44390Y5300D01*
X44342Y5271D01*
X44299Y5235D01*
X44263Y5193D01*
X44232Y5145D01*
X44207Y5093D01*
X44189Y5038D01*
X44179Y4982D01*
X44175Y4922D01*
X44176Y4912D01*
X44304Y4922D01*
X44309Y4978D01*
X44326Y5029D01*
X44353Y5075D01*
X44392Y5116D01*
X44442Y5150D01*
X44504Y5174D01*
X44577Y5188D01*
X44662Y5193D01*
X44743Y5188D01*
X44813Y5174D01*
X44872Y5150D01*
X44921Y5116D01*
X44960Y5074D01*
X44987Y5028D01*
X45004Y4978D01*
X45009Y4922D01*
X45004Y4866D01*
X44988Y4815D01*
X44960Y4769D01*
X44922Y4728D01*
X44872Y4694D01*
X44812Y4670D01*
X44740Y4655D01*
X44657Y4651D01*
X44657Y4651D01*
X44574Y4655D01*
X44502Y4670D01*
X44441Y4694D01*
X44392Y4728D01*
X44353Y4769D01*
X44326Y4815D01*
X44309Y4866D01*
X44304Y4922D01*
X44176Y4912D01*
X44183Y4830D01*
X44206Y4747D01*
X44245Y4674D01*
X44299Y4609D01*
X44368Y4557D01*
X44451Y4520D01*
X44547Y4498D01*
X44657Y4490D01*
X44657Y4490D01*
X44196Y6135D02*
X44312Y6135D01*
X44385Y6064D01*
X44387Y6066D01*
X44435Y6098D01*
X44493Y6120D01*
X44563Y6133D01*
X44643Y6138D01*
X44731Y6133D01*
X44807Y6120D01*
X44870Y6097D01*
X44921Y6065D01*
X44960Y6026D01*
X44987Y5984D01*
X45004Y5936D01*
X45009Y5885D01*
X45004Y5835D01*
X44988Y5790D01*
X44962Y5748D01*
X44924Y5711D01*
X44876Y5681D01*
X44815Y5659D01*
X44742Y5646D01*
X44656Y5641D01*
X44656Y5641D01*
X44573Y5646D01*
X44501Y5660D01*
X44441Y5683D01*
X44391Y5716D01*
X44353Y5755D01*
X44326Y5797D01*
X44309Y5843D01*
X44304Y5892D01*
X44309Y5941D01*
X44325Y5987D01*
X44351Y6028D01*
X44385Y6064D01*
X44312Y6135D01*
X44252Y6086D01*
X44209Y6027D01*
X44184Y5957D01*
X44175Y5877D01*
X44179Y5823D01*
X44190Y5772D01*
X44209Y5722D01*
X44236Y5675D01*
X44269Y5631D01*
X44309Y5593D01*
X44354Y5559D01*
X44406Y5531D01*
X44462Y5509D01*
X44523Y5493D01*
X44587Y5484D01*
X44656Y5481D01*
X44724Y5484D01*
X44788Y5492D01*
X44849Y5507D01*
X44907Y5527D01*
X44960Y5553D01*
X45006Y5584D01*
X45046Y5622D01*
X45079Y5665D01*
X45105Y5712D01*
X45124Y5762D01*
X45135Y5815D01*
X45139Y5870D01*
X45137Y5911D01*
X45130Y5949D01*
X45119Y5985D01*
X45104Y6019D01*
X45085Y6050D01*
X45063Y6078D01*
X45039Y6103D01*
X45012Y6125D01*
X45469Y6125D01*
X45469Y6280D01*
X44196Y6280D01*
X44196Y6135D01*
X44196Y6135D01*
X43841Y6519D02*
X43988Y6502D01*
X43982Y6526D01*
X43977Y6550D01*
X43975Y6571D01*
X43974Y6591D01*
X43975Y6616D01*
X43978Y6638D01*
X43984Y6657D01*
X43991Y6674D01*
X44001Y6689D01*
X44012Y6703D01*
X44025Y6715D01*
X44040Y6726D01*
X44056Y6734D01*
X44081Y6745D01*
X44114Y6758D01*
X44156Y6773D01*
X44163Y6776D01*
X44172Y6779D01*
X44182Y6783D01*
X44194Y6787D01*
X45118Y6437D01*
X45118Y6606D01*
X44584Y6798D01*
X44533Y6816D01*
X44480Y6833D01*
X44426Y6849D01*
X44371Y6865D01*
X44424Y6879D01*
X44477Y6894D01*
X44529Y6911D01*
X44581Y6929D01*
X45118Y7126D01*
X45118Y7282D01*
X44180Y6931D01*
X44110Y6905D01*
X44052Y6881D01*
X44006Y6861D01*
X43971Y6844D01*
X43935Y6822D01*
X43904Y6799D01*
X43878Y6774D01*
X43858Y6748D01*
X43842Y6720D01*
X43831Y6689D01*
X43824Y6656D01*
X43822Y6620D01*
X43823Y6596D01*
X43827Y6572D01*
X43833Y6546D01*
X43841Y6519D01*
X43841Y6519D01*
X44196Y7415D02*
X45118Y7415D01*
X45118Y7556D01*
X44987Y7556D01*
X45053Y7612D01*
X45101Y7680D01*
X45129Y7759D01*
X45139Y7849D01*
X45137Y7890D01*
X45131Y7929D01*
X45122Y7967D01*
X45109Y8002D01*
X45093Y8035D01*
X45074Y8063D01*
X45053Y8087D01*
X45030Y8107D01*
X45005Y8123D01*
X44977Y8136D01*
X44947Y8147D01*
X44915Y8156D01*
X44889Y8159D01*
X44855Y8162D01*
X44813Y8164D01*
X44763Y8164D01*
X44196Y8164D01*
X44196Y8008D01*
X44757Y8008D01*
X44802Y8007D01*
X44840Y8003D01*
X44873Y7998D01*
X44900Y7990D01*
X44922Y7979D01*
X44942Y7964D01*
X44960Y7946D01*
X44975Y7925D01*
X44988Y7901D01*
X44996Y7875D01*
X45002Y7846D01*
X45003Y7816D01*
X44999Y7768D01*
X44988Y7723D01*
X44968Y7682D01*
X44940Y7644D01*
X44901Y7612D01*
X44848Y7589D01*
X44781Y7576D01*
X44700Y7571D01*
X44196Y7571D01*
X44196Y7415D01*
X44196Y7415D01*
X44493Y9035D02*
X44473Y9196D01*
X44406Y9173D01*
X44347Y9142D01*
X44296Y9103D01*
X44253Y9055D01*
X44219Y9000D01*
X44195Y8937D01*
X44180Y8868D01*
X44175Y8791D01*
X44183Y8695D01*
X44206Y8610D01*
X44245Y8535D01*
X44300Y8470D01*
X44368Y8418D01*
X44449Y8381D01*
X44543Y8359D01*
X44649Y8352D01*
X44759Y8359D01*
X44856Y8382D01*
X44940Y8419D01*
X45010Y8472D01*
X45067Y8536D01*
X45107Y8609D01*
X45131Y8691D01*
X45139Y8782D01*
X45138Y8795D01*
X45010Y8784D01*
X45006Y8732D01*
X44992Y8685D01*
X44970Y8642D01*
X44938Y8603D01*
X44899Y8570D01*
X44854Y8546D01*
X44803Y8530D01*
X44746Y8522D01*
X44746Y8522D01*
X44746Y9037D01*
X44800Y9029D01*
X44847Y9017D01*
X44887Y9000D01*
X44920Y8978D01*
X44960Y8938D01*
X44988Y8892D01*
X45005Y8841D01*
X45010Y8784D01*
X45138Y8795D01*
X45131Y8871D01*
X45107Y8950D01*
X45068Y9022D01*
X45013Y9084D01*
X44944Y9136D01*
X44861Y9172D01*
X44766Y9194D01*
X44659Y9202D01*
X44651Y9202D01*
X44641Y9201D01*
X44630Y9201D01*
X44617Y9201D01*
X44617Y8513D01*
X44546Y8522D01*
X44483Y8539D01*
X44429Y8565D01*
X44384Y8599D01*
X44349Y8640D01*
X44324Y8686D01*
X44309Y8737D01*
X44304Y8792D01*
X44306Y8833D01*
X44315Y8872D01*
X44329Y8907D01*
X44349Y8939D01*
X44375Y8967D01*
X44407Y8993D01*
X44447Y9016D01*
X44493Y9035D01*
X44493Y9035D01*
X44196Y9669D02*
X45381Y10124D01*
X45335Y10244D01*
X45274Y10231D01*
X45213Y10215D01*
X45152Y10197D01*
X45092Y10176D01*
X44719Y10036D01*
X44719Y10036D01*
X44719Y10467D01*
X45071Y10335D01*
X45148Y10306D01*
X45217Y10282D01*
X45280Y10261D01*
X45335Y10244D01*
X45381Y10124D01*
X45469Y10158D01*
X45469Y10339D01*
X44196Y10860D01*
X44196Y10668D01*
X44581Y10520D01*
X44581Y9987D01*
X44196Y9848D01*
X44196Y9669D01*
X44196Y9669D01*
X44605Y10937D02*
X44619Y11096D01*
X44573Y11104D01*
X44532Y11115D01*
X44495Y11130D01*
X44462Y11149D01*
X44433Y11172D01*
X44407Y11201D01*
X44383Y11236D01*
X44363Y11277D01*
X44347Y11321D01*
X44335Y11369D01*
X44328Y11419D01*
X44325Y11472D01*
X44327Y11519D01*
X44333Y11563D01*
X44341Y11604D01*
X44354Y11642D01*
X44370Y11677D01*
X44388Y11706D01*
X44409Y11732D01*
X44433Y11752D01*
X44458Y11768D01*
X44485Y11779D01*
X44513Y11786D01*
X44542Y11788D01*
X44571Y11786D01*
X44598Y11779D01*
X44623Y11768D01*
X44646Y11753D01*
X44668Y11733D01*
X44687Y11707D01*
X44705Y11676D01*
X44721Y11639D01*
X44733Y11605D01*
X44747Y11556D01*
X44764Y11492D01*
X44783Y11412D01*
X44804Y11331D01*
X44824Y11263D01*
X44844Y11208D01*
X44863Y11166D01*
X44888Y11124D01*
X44916Y11087D01*
X44947Y11056D01*
X44981Y11031D01*
X45018Y11011D01*
X45056Y10997D01*
X45097Y10989D01*
X45140Y10986D01*
X45187Y10989D01*
X45233Y10999D01*
X45277Y11017D01*
X45320Y11040D01*
X45359Y11071D01*
X45394Y11108D01*
X45423Y11151D01*
X45447Y11200D01*
X45466Y11254D01*
X45480Y11311D01*
X45488Y11371D01*
X45490Y11434D01*
X45488Y11502D01*
X45479Y11567D01*
X45465Y11627D01*
X45445Y11683D01*
X45419Y11734D01*
X45389Y11779D01*
X45352Y11817D01*
X45311Y11850D01*
X45265Y11875D01*
X45216Y11894D01*
X45165Y11907D01*
X45110Y11912D01*
X45098Y11751D01*
X45155Y11740D01*
X45204Y11722D01*
X45246Y11696D01*
X45280Y11663D01*
X45307Y11621D01*
X45327Y11570D01*
X45338Y11510D01*
X45342Y11441D01*
X45338Y11370D01*
X45328Y11309D01*
X45310Y11258D01*
X45286Y11218D01*
X45257Y11187D01*
X45224Y11166D01*
X45189Y11153D01*
X45151Y11148D01*
X45118Y11151D01*
X45088Y11161D01*
X45062Y11176D01*
X45038Y11198D01*
X45016Y11232D01*
X44993Y11285D01*
X44970Y11359D01*
X44947Y11452D01*
X44925Y11546D01*
X44904Y11625D01*
X44884Y11687D01*
X44866Y11733D01*
X44839Y11785D01*
X44808Y11830D01*
X44774Y11867D01*
X44736Y11897D01*
X44696Y11921D01*
X44652Y11937D01*
X44605Y11947D01*
X44555Y11950D01*
X44505Y11947D01*
X44457Y11936D01*
X44410Y11918D01*
X44364Y11892D01*
X44322Y11860D01*
X44284Y11821D01*
X44252Y11776D01*
X44224Y11725D01*
X44202Y11669D01*
X44187Y11609D01*
X44177Y11546D01*
X44174Y11480D01*
X44177Y11397D01*
X44187Y11321D01*
X44203Y11252D01*
X44225Y11190D01*
X44253Y11135D01*
X44288Y11086D01*
X44329Y11043D01*
X44376Y11007D01*
X44428Y10978D01*
X44484Y10956D01*
X44543Y10943D01*
X44605Y10937D01*
X44605Y10937D01*
X44196Y12180D02*
X45469Y12180D01*
X45469Y12616D01*
X45319Y12616D01*
X45319Y12349D01*
X44346Y12349D01*
X44346Y12349D01*
X44346Y12621D01*
X44348Y12680D01*
X44352Y12733D01*
X44359Y12779D01*
X44370Y12818D01*
X44383Y12852D01*
X44398Y12882D01*
X44416Y12909D01*
X44436Y12932D01*
X44468Y12961D01*
X44506Y12986D01*
X44549Y13007D01*
X44597Y13026D01*
X44650Y13040D01*
X44709Y13051D01*
X44773Y13057D01*
X44842Y13059D01*
X44936Y13055D01*
X45018Y13043D01*
X45089Y13022D01*
X45149Y12993D01*
X45198Y12959D01*
X45238Y12921D01*
X45270Y12879D01*
X45292Y12834D01*
X45304Y12795D01*
X45312Y12746D01*
X45317Y12686D01*
X45319Y12616D01*
X45469Y12616D01*
X45469Y12619D01*
X45468Y12689D01*
X45464Y12750D01*
X45458Y12802D01*
X45450Y12845D01*
X45435Y12898D01*
X45415Y12947D01*
X45390Y12991D01*
X45359Y13032D01*
X45314Y13079D01*
X45262Y13120D01*
X45205Y13155D01*
X45142Y13183D01*
X45073Y13205D01*
X45000Y13220D01*
X44922Y13230D01*
X44839Y13233D01*
X44769Y13231D01*
X44703Y13224D01*
X44640Y13214D01*
X44582Y13199D01*
X44529Y13181D01*
X44480Y13160D01*
X44436Y13137D01*
X44397Y13112D01*
X44362Y13085D01*
X44331Y13057D01*
X44305Y13027D01*
X44282Y12996D01*
X44262Y12963D01*
X44245Y12927D01*
X44230Y12887D01*
X44218Y12844D01*
X44208Y12798D01*
X44201Y12749D01*
X44197Y12696D01*
X44196Y12640D01*
X44196Y12180D01*
X44196Y12180D01*
X44196Y13990D02*
X44196Y13833D01*
X45192Y13833D01*
X45165Y13803D01*
X45138Y13768D01*
X45111Y13729D01*
X45084Y13685D01*
X45059Y13641D01*
X45037Y13598D01*
X45019Y13559D01*
X45003Y13521D01*
X45154Y13521D01*
X45187Y13584D01*
X45223Y13644D01*
X45262Y13699D01*
X45304Y13750D01*
X45347Y13796D01*
X45390Y13834D01*
X45432Y13865D01*
X45474Y13889D01*
X45474Y13990D01*
X44196Y13990D01*
X44196Y13990D01*
X44824Y14390D02*
X44931Y14393D01*
X45027Y14402D01*
X45113Y14416D01*
X45187Y14436D01*
X45252Y14462D01*
X45309Y14494D01*
X45358Y14531D01*
X45399Y14574D01*
X45432Y14623D01*
X45455Y14678D01*
X45469Y14738D01*
X45474Y14805D01*
X45471Y14855D01*
X45464Y14901D01*
X45451Y14944D01*
X45433Y14985D01*
X45410Y15022D01*
X45382Y15055D01*
X45350Y15085D01*
X45314Y15112D01*
X45273Y15136D01*
X45228Y15157D01*
X45178Y15176D01*
X45125Y15191D01*
X45064Y15204D01*
X44994Y15213D01*
X44913Y15218D01*
X44824Y15220D01*
X44717Y15217D01*
X44621Y15208D01*
X44536Y15194D01*
X44462Y15174D01*
X44397Y15148D01*
X44340Y15116D01*
X44291Y15079D01*
X44249Y15036D01*
X44217Y14987D01*
X44193Y14933D01*
X44179Y14872D01*
X44174Y14805D01*
X44175Y14793D01*
X44303Y14805D01*
X44309Y14857D01*
X44329Y14904D01*
X44361Y14947D01*
X44407Y14986D01*
X44472Y15018D01*
X44563Y15041D01*
X44680Y15055D01*
X44824Y15059D01*
X44968Y15055D01*
X45085Y15041D01*
X45176Y15018D01*
X45241Y14986D01*
X45286Y14947D01*
X45319Y14904D01*
X45338Y14856D01*
X45345Y14803D01*
X45339Y14752D01*
X45322Y14706D01*
X45293Y14666D01*
X45253Y14631D01*
X45183Y14596D01*
X45088Y14571D01*
X44968Y14556D01*
X44824Y14551D01*
X44824Y14551D01*
X44680Y14555D01*
X44563Y14569D01*
X44472Y14592D01*
X44407Y14624D01*
X44361Y14663D01*
X44329Y14706D01*
X44309Y14753D01*
X44303Y14805D01*
X44175Y14793D01*
X44183Y14718D01*
X44207Y14641D01*
X44249Y14573D01*
X44306Y14516D01*
X44398Y14461D01*
X44515Y14421D01*
X44657Y14398D01*
X44824Y14390D01*
X44824Y14390D01*
X44196Y15447D02*
X45469Y15447D01*
X45469Y15616D01*
X44946Y15616D01*
X44946Y16277D01*
X45469Y16277D01*
X45469Y16446D01*
X44196Y16446D01*
X44196Y16277D01*
X44796Y16277D01*
X44796Y15616D01*
X44196Y15616D01*
X44196Y15447D01*
X44196Y15447D01*
X44196Y17344D02*
X44196Y17199D01*
X45469Y17199D01*
X45469Y17356D01*
X45015Y17356D01*
X45069Y17408D01*
X45108Y17468D01*
X45131Y17535D01*
X45139Y17608D01*
X45137Y17650D01*
X45130Y17691D01*
X45120Y17731D01*
X45105Y17769D01*
X45086Y17806D01*
X45063Y17839D01*
X45037Y17868D01*
X45008Y17894D01*
X44976Y17917D01*
X44940Y17938D01*
X44901Y17956D01*
X44858Y17971D01*
X44814Y17983D01*
X44768Y17992D01*
X44720Y17997D01*
X44671Y17999D01*
X44559Y17992D01*
X44461Y17970D01*
X44376Y17933D01*
X44305Y17882D01*
X44248Y17820D01*
X44208Y17753D01*
X44183Y17680D01*
X44175Y17600D01*
X44184Y17523D01*
X44209Y17455D01*
X44252Y17395D01*
X44305Y17350D01*
X44372Y17428D01*
X44334Y17475D01*
X44311Y17528D01*
X44304Y17587D01*
X44309Y17637D01*
X44326Y17683D01*
X44354Y17725D01*
X44393Y17764D01*
X44443Y17797D01*
X44503Y17820D01*
X44575Y17834D01*
X44658Y17839D01*
X44742Y17835D01*
X44815Y17821D01*
X44876Y17799D01*
X44924Y17768D01*
X44962Y17730D01*
X44989Y17688D01*
X45005Y17643D01*
X45010Y17594D01*
X45005Y17545D01*
X44988Y17499D01*
X44960Y17456D01*
X44921Y17417D01*
X44872Y17385D01*
X44813Y17361D01*
X44743Y17347D01*
X44664Y17343D01*
X44664Y17343D01*
X44587Y17345D01*
X44521Y17354D01*
X44467Y17368D01*
X44424Y17388D01*
X44372Y17428D01*
X44305Y17350D01*
X44311Y17344D01*
X44196Y17344D01*
X44196Y17344D01*
X44196Y18187D02*
X45118Y18187D01*
X45118Y18328D01*
X44978Y18328D01*
X45023Y18354D01*
X45060Y18380D01*
X45088Y18404D01*
X45108Y18427D01*
X45121Y18451D01*
X45131Y18475D01*
X45137Y18501D01*
X45139Y18528D01*
X45136Y18567D01*
X45126Y18607D01*
X45111Y18648D01*
X45088Y18688D01*
X44943Y18634D01*
X44958Y18606D01*
X44969Y18577D01*
X44975Y18548D01*
X44977Y18520D01*
X44975Y18495D01*
X44970Y18471D01*
X44960Y18449D01*
X44947Y18428D01*
X44930Y18409D01*
X44910Y18393D01*
X44887Y18380D01*
X44861Y18370D01*
X44818Y18358D01*
X44774Y18350D01*
X44727Y18345D01*
X44679Y18344D01*
X44196Y18344D01*
X44196Y18187D01*
X44196Y18187D01*
X44493Y19412D02*
X44473Y19574D01*
X44406Y19551D01*
X44347Y19519D01*
X44296Y19480D01*
X44253Y19432D01*
X44219Y19377D01*
X44195Y19315D01*
X44180Y19245D01*
X44175Y19168D01*
X44183Y19072D01*
X44206Y18987D01*
X44245Y18912D01*
X44300Y18848D01*
X44368Y18796D01*
X44449Y18759D01*
X44543Y18736D01*
X44649Y18729D01*
X44759Y18736D01*
X44856Y18759D01*
X44940Y18796D01*
X45010Y18849D01*
X45067Y18913D01*
X45107Y18986D01*
X45131Y19069D01*
X45139Y19160D01*
X45138Y19173D01*
X45010Y19161D01*
X45006Y19110D01*
X44992Y19062D01*
X44970Y19019D01*
X44938Y18980D01*
X44899Y18948D01*
X44854Y18923D01*
X44803Y18907D01*
X44746Y18899D01*
X44746Y18899D01*
X44746Y19414D01*
X44800Y19406D01*
X44847Y19394D01*
X44887Y19377D01*
X44920Y19355D01*
X44960Y19315D01*
X44988Y19269D01*
X45005Y19218D01*
X45010Y19161D01*
X45138Y19173D01*
X45131Y19248D01*
X45107Y19328D01*
X45068Y19399D01*
X45013Y19462D01*
X44944Y19513D01*
X44861Y19550D01*
X44766Y19572D01*
X44659Y19579D01*
X44651Y19579D01*
X44641Y19579D01*
X44630Y19578D01*
X44617Y19578D01*
X44617Y18890D01*
X44546Y18899D01*
X44483Y18916D01*
X44429Y18942D01*
X44384Y18976D01*
X44349Y19017D01*
X44324Y19063D01*
X44309Y19114D01*
X44304Y19169D01*
X44306Y19211D01*
X44315Y19249D01*
X44329Y19284D01*
X44349Y19316D01*
X44375Y19345D01*
X44407Y19370D01*
X44447Y19393D01*
X44493Y19412D01*
X44493Y19412D01*
X44310Y20372D02*
X44276Y20329D01*
X44271Y20322D01*
X44359Y20263D01*
X44384Y20291D01*
X44413Y20315D01*
X44445Y20333D01*
X44475Y20344D01*
X44511Y20352D01*
X44553Y20357D01*
X44601Y20359D01*
X44659Y20359D01*
X44659Y20359D01*
X44642Y20311D01*
X44627Y20252D01*
X44613Y20183D01*
X44600Y20103D01*
X44593Y20059D01*
X44585Y20021D01*
X44577Y19991D01*
X44568Y19967D01*
X44559Y19948D01*
X44547Y19932D01*
X44533Y19917D01*
X44518Y19905D01*
X44500Y19896D01*
X44482Y19889D01*
X44463Y19885D01*
X44443Y19884D01*
X44413Y19887D01*
X44386Y19896D01*
X44361Y19910D01*
X44339Y19931D01*
X44321Y19957D01*
X44308Y19989D01*
X44300Y20027D01*
X44298Y20069D01*
X44300Y20113D01*
X44307Y20155D01*
X44320Y20194D01*
X44337Y20230D01*
X44359Y20263D01*
X44271Y20322D01*
X44247Y20286D01*
X44223Y20245D01*
X44206Y20204D01*
X44192Y20164D01*
X44183Y20121D01*
X44177Y20077D01*
X44175Y20032D01*
X44180Y19961D01*
X44194Y19898D01*
X44217Y19844D01*
X44249Y19799D01*
X44289Y19763D01*
X44334Y19737D01*
X44384Y19722D01*
X44439Y19717D01*
X44472Y19719D01*
X44504Y19725D01*
X44534Y19734D01*
X44563Y19748D01*
X44589Y19764D01*
X44613Y19783D01*
X44634Y19805D01*
X44653Y19829D01*
X44669Y19854D01*
X44682Y19882D01*
X44694Y19911D01*
X44704Y19941D01*
X44710Y19967D01*
X44716Y19999D01*
X44722Y20036D01*
X44727Y20080D01*
X44739Y20168D01*
X44752Y20244D01*
X44766Y20308D01*
X44781Y20359D01*
X44796Y20359D01*
X44807Y20359D01*
X44816Y20359D01*
X44822Y20359D01*
X44866Y20357D01*
X44903Y20348D01*
X44933Y20335D01*
X44957Y20315D01*
X44980Y20282D01*
X44996Y20241D01*
X45006Y20193D01*
X45009Y20137D01*
X45007Y20086D01*
X45000Y20041D01*
X44988Y20004D01*
X44971Y19974D01*
X44948Y19950D01*
X44917Y19929D01*
X44879Y19911D01*
X44834Y19897D01*
X44855Y19744D01*
X44902Y19756D01*
X44944Y19771D01*
X44981Y19790D01*
X45013Y19812D01*
X45042Y19839D01*
X45067Y19871D01*
X45088Y19908D01*
X45106Y19951D01*
X45121Y19997D01*
X45131Y20048D01*
X45137Y20102D01*
X45139Y20160D01*
X45137Y20216D01*
X45132Y20267D01*
X45123Y20312D01*
X45111Y20352D01*
X45096Y20386D01*
X45080Y20416D01*
X45061Y20440D01*
X45041Y20460D01*
X45019Y20476D01*
X44994Y20490D01*
X44966Y20501D01*
X44935Y20509D01*
X44911Y20512D01*
X44879Y20515D01*
X44839Y20516D01*
X44791Y20517D01*
X44582Y20517D01*
X44483Y20517D01*
X44404Y20519D01*
X44346Y20522D01*
X44307Y20527D01*
X44278Y20533D01*
X44250Y20541D01*
X44223Y20553D01*
X44196Y20566D01*
X44196Y20403D01*
X44221Y20392D01*
X44249Y20383D01*
X44278Y20376D01*
X44310Y20372D01*
X44310Y20372D01*
X44196Y20760D02*
X45469Y20760D01*
X45469Y20916D01*
X44743Y20916D01*
X45118Y21286D01*
X45118Y21488D01*
X44776Y21136D01*
X44196Y21524D01*
X44196Y21331D01*
X44667Y21026D01*
X44561Y20916D01*
X44196Y20916D01*
X44196Y20760D01*
X44196Y20760D01*
X44657Y21590D02*
X44777Y21599D01*
X44880Y21625D01*
X44966Y21670D01*
X45036Y21732D01*
X45081Y21795D01*
X45113Y21864D01*
X45132Y21940D01*
X45139Y22022D01*
X45131Y22113D01*
X45108Y22195D01*
X45069Y22268D01*
X45014Y22333D01*
X44946Y22386D01*
X44866Y22423D01*
X44774Y22446D01*
X44670Y22454D01*
X44586Y22450D01*
X44511Y22440D01*
X44446Y22423D01*
X44390Y22400D01*
X44342Y22370D01*
X44299Y22335D01*
X44263Y22293D01*
X44232Y22245D01*
X44207Y22193D01*
X44189Y22138D01*
X44179Y22081D01*
X44175Y22022D01*
X44176Y22011D01*
X44304Y22022D01*
X44309Y22078D01*
X44326Y22129D01*
X44353Y22175D01*
X44392Y22216D01*
X44442Y22249D01*
X44504Y22274D01*
X44577Y22288D01*
X44662Y22293D01*
X44743Y22288D01*
X44813Y22273D01*
X44872Y22249D01*
X44921Y22215D01*
X44960Y22174D01*
X44987Y22128D01*
X45004Y22077D01*
X45009Y22022D01*
X45004Y21966D01*
X44988Y21915D01*
X44960Y21869D01*
X44922Y21828D01*
X44872Y21794D01*
X44812Y21770D01*
X44740Y21755D01*
X44657Y21750D01*
X44657Y21750D01*
X44574Y21755D01*
X44502Y21770D01*
X44441Y21794D01*
X44392Y21828D01*
X44353Y21869D01*
X44326Y21915D01*
X44309Y21966D01*
X44304Y22022D01*
X44176Y22011D01*
X44183Y21930D01*
X44206Y21847D01*
X44245Y21773D01*
X44299Y21709D01*
X44368Y21657D01*
X44451Y21620D01*
X44547Y21597D01*
X44657Y21590D01*
X44657Y21590D01*
X44196Y23241D02*
X44331Y23241D01*
X44263Y23182D01*
X44214Y23114D01*
X44185Y23036D01*
X44175Y22948D01*
X44177Y22908D01*
X44183Y22869D01*
X44193Y22832D01*
X44206Y22796D01*
X44223Y22763D01*
X44242Y22734D01*
X44262Y22710D01*
X44285Y22691D01*
X44310Y22675D01*
X44338Y22662D01*
X44368Y22651D01*
X44401Y22643D01*
X44427Y22639D01*
X44460Y22636D01*
X44500Y22634D01*
X44547Y22633D01*
X45118Y22633D01*
X45118Y22790D01*
X44607Y22790D01*
X44550Y22790D01*
X44504Y22792D01*
X44468Y22795D01*
X44442Y22799D01*
X44413Y22808D01*
X44387Y22822D01*
X44364Y22840D01*
X44345Y22862D01*
X44330Y22887D01*
X44319Y22915D01*
X44312Y22946D01*
X44310Y22980D01*
X44312Y23014D01*
X44319Y23048D01*
X44330Y23080D01*
X44346Y23112D01*
X44365Y23140D01*
X44388Y23164D01*
X44414Y23184D01*
X44444Y23199D01*
X44478Y23210D01*
X44520Y23218D01*
X44568Y23223D01*
X44624Y23224D01*
X45118Y23224D01*
X45118Y23381D01*
X44196Y23381D01*
X44196Y23241D01*
X44196Y23241D01*
X44336Y23967D02*
X44198Y23989D01*
X44192Y23957D01*
X44187Y23927D01*
X44185Y23898D01*
X44184Y23871D01*
X44186Y23831D01*
X44191Y23796D01*
X44199Y23765D01*
X44211Y23739D01*
X44225Y23718D01*
X44242Y23699D01*
X44261Y23685D01*
X44282Y23673D01*
X44309Y23665D01*
X44350Y23659D01*
X44402Y23655D01*
X44466Y23654D01*
X44996Y23654D01*
X44996Y23540D01*
X45118Y23540D01*
X45118Y23654D01*
X45346Y23654D01*
X45440Y23810D01*
X45118Y23810D01*
X45118Y23967D01*
X44996Y23967D01*
X44996Y23810D01*
X44457Y23810D01*
X44427Y23810D01*
X44402Y23812D01*
X44384Y23814D01*
X44371Y23818D01*
X44362Y23823D01*
X44354Y23829D01*
X44347Y23836D01*
X44341Y23845D01*
X44336Y23855D01*
X44333Y23867D01*
X44330Y23882D01*
X44330Y23898D01*
X44330Y23912D01*
X44331Y23928D01*
X44333Y23947D01*
X44336Y23967D01*
X44336Y23967D01*
G37*
M02*