%FSLAX33Y33*%
%MOMM*%
%LNbottom silkscreen_traces*%
%LNbottom silkscreen component c304839c2677ef3f*%
G36*
G01*
X60452Y2404D02*
X60452Y2603D01*
X60649Y2603D01*
X60649Y2686D01*
X60452Y2686D01*
X60452Y2884D01*
X60367Y2884D01*
X60367Y2686D01*
X60169Y2686D01*
X60169Y2603D01*
X60367Y2603D01*
X60367Y2404D01*
X60452Y2404D01*
X60452Y2404D01*
X60064Y2640D02*
X60057Y2726D01*
X60039Y2802D01*
X60009Y2868D01*
X59966Y2924D01*
X59914Y2969D01*
X59855Y3001D01*
X59789Y3020D01*
X59715Y3026D01*
X59666Y3023D01*
X59620Y3014D01*
X59575Y2999D01*
X59534Y2978D01*
X59496Y2952D01*
X59462Y2920D01*
X59434Y2885D01*
X59410Y2844D01*
X59392Y2799D01*
X59379Y2752D01*
X59371Y2702D01*
X59368Y2649D01*
X59371Y2595D01*
X59379Y2544D01*
X59393Y2496D01*
X59413Y2451D01*
X59437Y2410D01*
X59467Y2374D01*
X59501Y2344D01*
X59539Y2318D01*
X59581Y2299D01*
X59624Y2285D01*
X59649Y2280D01*
X59664Y2361D01*
X59617Y2375D01*
X59575Y2399D01*
X59537Y2432D01*
X59507Y2475D01*
X59485Y2525D01*
X59472Y2583D01*
X59467Y2649D01*
X59469Y2692D01*
X59475Y2732D01*
X59484Y2770D01*
X59497Y2804D01*
X59514Y2835D01*
X59534Y2863D01*
X59558Y2887D01*
X59585Y2907D01*
X59615Y2923D01*
X59646Y2934D01*
X59680Y2941D01*
X59715Y2943D01*
X59764Y2939D01*
X59810Y2926D01*
X59852Y2904D01*
X59891Y2873D01*
X59923Y2832D01*
X59946Y2779D01*
X59960Y2715D01*
X59964Y2639D01*
X59964Y2639D01*
X59960Y2576D01*
X59947Y2521D01*
X59925Y2473D01*
X59894Y2432D01*
X59856Y2399D01*
X59814Y2375D01*
X59767Y2361D01*
X59716Y2356D01*
X59664Y2361D01*
X59649Y2280D01*
X59669Y2276D01*
X59716Y2274D01*
X59766Y2277D01*
X59813Y2286D01*
X59858Y2302D01*
X59899Y2323D01*
X59937Y2350D01*
X59970Y2382D01*
X59999Y2418D01*
X60022Y2459D01*
X60040Y2502D01*
X60053Y2547D01*
X60061Y2593D01*
X60064Y2640D01*
X60064Y2640D01*
X58910Y2286D02*
X58910Y2363D01*
X58944Y2324D01*
X58983Y2296D01*
X59027Y2280D01*
X59077Y2274D01*
X59100Y2275D01*
X59122Y2279D01*
X59144Y2284D01*
X59164Y2292D01*
X59183Y2301D01*
X59200Y2312D01*
X59213Y2324D01*
X59224Y2337D01*
X59233Y2351D01*
X59241Y2367D01*
X59247Y2384D01*
X59252Y2403D01*
X59254Y2418D01*
X59256Y2437D01*
X59257Y2460D01*
X59257Y2486D01*
X59257Y2813D01*
X59168Y2813D01*
X59168Y2521D01*
X59168Y2489D01*
X59167Y2462D01*
X59165Y2441D01*
X59163Y2426D01*
X59157Y2410D01*
X59149Y2395D01*
X59139Y2382D01*
X59127Y2371D01*
X59112Y2362D01*
X59096Y2356D01*
X59079Y2352D01*
X59059Y2351D01*
X59040Y2352D01*
X59020Y2356D01*
X59002Y2363D01*
X58984Y2372D01*
X58968Y2383D01*
X58954Y2396D01*
X58943Y2411D01*
X58934Y2428D01*
X58928Y2447D01*
X58923Y2471D01*
X58920Y2499D01*
X58920Y2531D01*
X58920Y2813D01*
X58830Y2813D01*
X58830Y2286D01*
X58910Y2286D01*
X58910Y2286D01*
X58495Y2366D02*
X58482Y2287D01*
X58501Y2284D01*
X58518Y2281D01*
X58535Y2280D01*
X58550Y2279D01*
X58573Y2280D01*
X58593Y2283D01*
X58611Y2288D01*
X58625Y2294D01*
X58638Y2303D01*
X58648Y2312D01*
X58657Y2323D01*
X58663Y2335D01*
X58668Y2351D01*
X58671Y2374D01*
X58673Y2404D01*
X58674Y2440D01*
X58674Y2743D01*
X58739Y2743D01*
X58739Y2813D01*
X58674Y2813D01*
X58674Y2943D01*
X58585Y2997D01*
X58585Y2813D01*
X58495Y2813D01*
X58495Y2743D01*
X58585Y2743D01*
X58585Y2435D01*
X58585Y2418D01*
X58584Y2404D01*
X58583Y2393D01*
X58580Y2386D01*
X58578Y2381D01*
X58574Y2376D01*
X58570Y2372D01*
X58565Y2369D01*
X58559Y2366D01*
X58552Y2364D01*
X58544Y2363D01*
X58535Y2362D01*
X58527Y2363D01*
X58517Y2363D01*
X58507Y2364D01*
X58495Y2366D01*
X58495Y2366D01*
X58408Y2084D02*
X58408Y2813D01*
X58327Y2813D01*
X58327Y2744D01*
X58283Y2702D01*
X58283Y2701D01*
X58302Y2672D01*
X58316Y2636D01*
X58324Y2594D01*
X58327Y2546D01*
X58327Y2546D01*
X58325Y2499D01*
X58317Y2458D01*
X58304Y2424D01*
X58286Y2396D01*
X58264Y2375D01*
X58240Y2360D01*
X58214Y2351D01*
X58186Y2348D01*
X58158Y2351D01*
X58131Y2360D01*
X58107Y2376D01*
X58084Y2398D01*
X58066Y2427D01*
X58053Y2462D01*
X58045Y2505D01*
X58042Y2554D01*
X58045Y2601D01*
X58052Y2642D01*
X58065Y2676D01*
X58083Y2705D01*
X58105Y2727D01*
X58129Y2742D01*
X58155Y2752D01*
X58182Y2755D01*
X58210Y2751D01*
X58236Y2741D01*
X58261Y2725D01*
X58283Y2702D01*
X58327Y2744D01*
X58312Y2763D01*
X58296Y2780D01*
X58279Y2793D01*
X58262Y2805D01*
X58243Y2813D01*
X58222Y2820D01*
X58199Y2824D01*
X58174Y2825D01*
X58141Y2823D01*
X58110Y2816D01*
X58082Y2805D01*
X58055Y2790D01*
X58031Y2771D01*
X58010Y2748D01*
X57992Y2722D01*
X57977Y2692D01*
X57965Y2660D01*
X57957Y2626D01*
X57952Y2590D01*
X57951Y2553D01*
X57952Y2514D01*
X57958Y2477D01*
X57967Y2441D01*
X57980Y2408D01*
X57996Y2377D01*
X58015Y2351D01*
X58038Y2328D01*
X58064Y2309D01*
X58092Y2293D01*
X58121Y2283D01*
X58150Y2276D01*
X58180Y2274D01*
X58202Y2275D01*
X58223Y2279D01*
X58242Y2285D01*
X58260Y2293D01*
X58277Y2303D01*
X58293Y2314D01*
X58307Y2327D01*
X58319Y2341D01*
X58319Y2084D01*
X58408Y2084D01*
X58408Y2084D01*
X57498Y2286D02*
X57498Y2363D01*
X57531Y2324D01*
X57570Y2296D01*
X57615Y2280D01*
X57665Y2274D01*
X57688Y2275D01*
X57710Y2279D01*
X57731Y2284D01*
X57752Y2292D01*
X57771Y2301D01*
X57787Y2312D01*
X57801Y2324D01*
X57812Y2337D01*
X57821Y2351D01*
X57829Y2367D01*
X57835Y2384D01*
X57840Y2403D01*
X57842Y2418D01*
X57844Y2437D01*
X57845Y2460D01*
X57845Y2486D01*
X57845Y2813D01*
X57756Y2813D01*
X57756Y2521D01*
X57755Y2489D01*
X57754Y2462D01*
X57753Y2441D01*
X57750Y2426D01*
X57745Y2410D01*
X57737Y2395D01*
X57727Y2382D01*
X57715Y2371D01*
X57700Y2362D01*
X57684Y2356D01*
X57666Y2352D01*
X57647Y2351D01*
X57627Y2352D01*
X57608Y2356D01*
X57590Y2363D01*
X57572Y2372D01*
X57555Y2383D01*
X57542Y2396D01*
X57530Y2411D01*
X57522Y2428D01*
X57515Y2447D01*
X57511Y2471D01*
X57508Y2499D01*
X57507Y2531D01*
X57507Y2813D01*
X57418Y2813D01*
X57418Y2286D01*
X57498Y2286D01*
X57498Y2286D01*
X57083Y2366D02*
X57070Y2287D01*
X57088Y2284D01*
X57106Y2281D01*
X57122Y2280D01*
X57138Y2279D01*
X57160Y2280D01*
X57181Y2283D01*
X57198Y2288D01*
X57213Y2294D01*
X57225Y2303D01*
X57236Y2312D01*
X57244Y2323D01*
X57251Y2335D01*
X57255Y2351D01*
X57259Y2374D01*
X57261Y2404D01*
X57262Y2440D01*
X57262Y2743D01*
X57327Y2743D01*
X57327Y2813D01*
X57262Y2813D01*
X57262Y2943D01*
X57173Y2997D01*
X57173Y2813D01*
X57083Y2813D01*
X57083Y2743D01*
X57173Y2743D01*
X57173Y2435D01*
X57172Y2418D01*
X57172Y2404D01*
X57170Y2393D01*
X57168Y2386D01*
X57165Y2381D01*
X57162Y2376D01*
X57158Y2372D01*
X57153Y2369D01*
X57147Y2366D01*
X57140Y2364D01*
X57132Y2363D01*
X57122Y2362D01*
X57114Y2363D01*
X57105Y2363D01*
X57095Y2364D01*
X57083Y2366D01*
X57083Y2366D01*
X63411Y14479D02*
X63314Y14455D01*
X63333Y14399D01*
X63357Y14350D01*
X63387Y14309D01*
X63423Y14274D01*
X63465Y14247D01*
X63511Y14227D01*
X63561Y14215D01*
X63616Y14212D01*
X63672Y14215D01*
X63722Y14224D01*
X63767Y14239D01*
X63807Y14259D01*
X63841Y14286D01*
X63872Y14318D01*
X63898Y14355D01*
X63919Y14398D01*
X63936Y14444D01*
X63948Y14492D01*
X63955Y14542D01*
X63957Y14593D01*
X63955Y14648D01*
X63947Y14699D01*
X63933Y14747D01*
X63914Y14791D01*
X63890Y14831D01*
X63861Y14866D01*
X63828Y14895D01*
X63790Y14920D01*
X63749Y14939D01*
X63706Y14953D01*
X63661Y14961D01*
X63614Y14964D01*
X63562Y14960D01*
X63514Y14950D01*
X63470Y14932D01*
X63431Y14908D01*
X63396Y14878D01*
X63367Y14841D01*
X63344Y14799D01*
X63327Y14752D01*
X63422Y14730D01*
X63436Y14767D01*
X63453Y14798D01*
X63472Y14824D01*
X63495Y14845D01*
X63521Y14861D01*
X63549Y14872D01*
X63581Y14879D01*
X63616Y14881D01*
X63656Y14879D01*
X63693Y14871D01*
X63726Y14859D01*
X63756Y14841D01*
X63782Y14819D01*
X63804Y14794D01*
X63822Y14765D01*
X63835Y14733D01*
X63845Y14699D01*
X63852Y14664D01*
X63857Y14629D01*
X63858Y14594D01*
X63856Y14549D01*
X63851Y14507D01*
X63843Y14468D01*
X63831Y14432D01*
X63816Y14399D01*
X63797Y14371D01*
X63774Y14347D01*
X63747Y14328D01*
X63718Y14313D01*
X63688Y14303D01*
X63656Y14296D01*
X63624Y14294D01*
X63585Y14297D01*
X63549Y14306D01*
X63516Y14320D01*
X63487Y14341D01*
X63461Y14367D01*
X63440Y14399D01*
X63423Y14436D01*
X63411Y14479D01*
X63411Y14479D01*
X63241Y14487D02*
X63235Y14556D01*
X63220Y14615D01*
X63195Y14664D01*
X63159Y14704D01*
X63123Y14730D01*
X63084Y14748D01*
X63040Y14759D01*
X62993Y14763D01*
X62942Y14758D01*
X62895Y14745D01*
X62853Y14723D01*
X62816Y14692D01*
X62786Y14653D01*
X62764Y14607D01*
X62751Y14554D01*
X62747Y14495D01*
X62749Y14447D01*
X62755Y14404D01*
X62764Y14367D01*
X62777Y14335D01*
X62794Y14307D01*
X62815Y14283D01*
X62839Y14262D01*
X62866Y14244D01*
X62896Y14230D01*
X62927Y14220D01*
X62960Y14214D01*
X62993Y14212D01*
X63000Y14213D01*
X62993Y14286D01*
X62962Y14289D01*
X62933Y14298D01*
X62906Y14314D01*
X62883Y14336D01*
X62864Y14365D01*
X62850Y14400D01*
X62841Y14442D01*
X62839Y14490D01*
X62841Y14536D01*
X62850Y14576D01*
X62864Y14610D01*
X62883Y14638D01*
X62907Y14661D01*
X62933Y14676D01*
X62962Y14686D01*
X62993Y14689D01*
X63026Y14686D01*
X63055Y14676D01*
X63081Y14661D01*
X63105Y14639D01*
X63124Y14610D01*
X63138Y14576D01*
X63146Y14535D01*
X63149Y14487D01*
X63149Y14487D01*
X63146Y14440D01*
X63138Y14399D01*
X63124Y14364D01*
X63105Y14336D01*
X63081Y14314D01*
X63055Y14298D01*
X63026Y14289D01*
X62993Y14286D01*
X63000Y14213D01*
X63046Y14217D01*
X63094Y14230D01*
X63136Y14252D01*
X63172Y14283D01*
X63202Y14322D01*
X63223Y14370D01*
X63236Y14425D01*
X63241Y14487D01*
X63241Y14487D01*
X62642Y14224D02*
X62642Y14751D01*
X62562Y14751D01*
X62562Y14677D01*
X62549Y14695D01*
X62533Y14712D01*
X62516Y14726D01*
X62496Y14739D01*
X62475Y14750D01*
X62452Y14757D01*
X62428Y14761D01*
X62403Y14763D01*
X62375Y14761D01*
X62349Y14757D01*
X62327Y14749D01*
X62307Y14738D01*
X62289Y14725D01*
X62275Y14709D01*
X62263Y14691D01*
X62254Y14670D01*
X62220Y14711D01*
X62182Y14740D01*
X62139Y14757D01*
X62091Y14763D01*
X62054Y14760D01*
X62022Y14752D01*
X61994Y14738D01*
X61971Y14719D01*
X61952Y14695D01*
X61939Y14664D01*
X61931Y14628D01*
X61928Y14586D01*
X61928Y14224D01*
X62017Y14224D01*
X62017Y14556D01*
X62018Y14581D01*
X62019Y14602D01*
X62022Y14619D01*
X62026Y14633D01*
X62031Y14644D01*
X62038Y14654D01*
X62047Y14663D01*
X62057Y14671D01*
X62069Y14677D01*
X62082Y14682D01*
X62096Y14684D01*
X62111Y14685D01*
X62138Y14683D01*
X62162Y14676D01*
X62184Y14665D01*
X62203Y14648D01*
X62219Y14627D01*
X62231Y14600D01*
X62238Y14568D01*
X62240Y14530D01*
X62240Y14224D01*
X62329Y14224D01*
X62329Y14566D01*
X62331Y14594D01*
X62335Y14618D01*
X62341Y14639D01*
X62351Y14656D01*
X62364Y14669D01*
X62380Y14678D01*
X62399Y14684D01*
X62422Y14685D01*
X62441Y14684D01*
X62459Y14680D01*
X62476Y14674D01*
X62492Y14666D01*
X62507Y14654D01*
X62520Y14641D01*
X62530Y14625D01*
X62539Y14607D01*
X62545Y14586D01*
X62549Y14561D01*
X62552Y14531D01*
X62553Y14497D01*
X62553Y14224D01*
X62642Y14224D01*
X62642Y14224D01*
X61796Y14224D02*
X61796Y14751D01*
X61716Y14751D01*
X61716Y14677D01*
X61703Y14695D01*
X61687Y14712D01*
X61670Y14726D01*
X61650Y14739D01*
X61629Y14750D01*
X61606Y14757D01*
X61582Y14761D01*
X61556Y14763D01*
X61528Y14761D01*
X61503Y14757D01*
X61480Y14749D01*
X61460Y14738D01*
X61443Y14725D01*
X61428Y14709D01*
X61417Y14691D01*
X61407Y14670D01*
X61374Y14711D01*
X61336Y14740D01*
X61292Y14757D01*
X61245Y14763D01*
X61208Y14760D01*
X61175Y14752D01*
X61148Y14738D01*
X61124Y14719D01*
X61106Y14695D01*
X61093Y14664D01*
X61085Y14628D01*
X61082Y14586D01*
X61082Y14224D01*
X61171Y14224D01*
X61171Y14556D01*
X61171Y14581D01*
X61173Y14602D01*
X61176Y14619D01*
X61179Y14633D01*
X61185Y14644D01*
X61192Y14654D01*
X61200Y14663D01*
X61211Y14671D01*
X61223Y14677D01*
X61236Y14682D01*
X61250Y14684D01*
X61265Y14685D01*
X61291Y14683D01*
X61315Y14676D01*
X61337Y14665D01*
X61357Y14648D01*
X61373Y14627D01*
X61384Y14600D01*
X61391Y14568D01*
X61394Y14530D01*
X61394Y14224D01*
X61483Y14224D01*
X61483Y14566D01*
X61484Y14594D01*
X61488Y14618D01*
X61495Y14639D01*
X61505Y14656D01*
X61517Y14669D01*
X61533Y14678D01*
X61553Y14684D01*
X61576Y14685D01*
X61595Y14684D01*
X61612Y14680D01*
X61629Y14674D01*
X61646Y14666D01*
X61661Y14654D01*
X61673Y14641D01*
X61684Y14625D01*
X61692Y14607D01*
X61698Y14586D01*
X61703Y14561D01*
X61706Y14531D01*
X61707Y14497D01*
X61707Y14224D01*
X61796Y14224D01*
X61796Y14224D01*
X60983Y14487D02*
X60978Y14556D01*
X60962Y14615D01*
X60937Y14664D01*
X60901Y14704D01*
X60866Y14730D01*
X60826Y14748D01*
X60783Y14759D01*
X60736Y14763D01*
X60684Y14758D01*
X60637Y14745D01*
X60595Y14723D01*
X60558Y14692D01*
X60528Y14653D01*
X60506Y14607D01*
X60493Y14554D01*
X60489Y14495D01*
X60491Y14447D01*
X60497Y14404D01*
X60506Y14367D01*
X60520Y14335D01*
X60537Y14307D01*
X60557Y14283D01*
X60581Y14262D01*
X60608Y14244D01*
X60638Y14230D01*
X60669Y14220D01*
X60702Y14214D01*
X60736Y14212D01*
X60742Y14213D01*
X60736Y14286D01*
X60704Y14289D01*
X60675Y14298D01*
X60649Y14314D01*
X60625Y14336D01*
X60606Y14365D01*
X60592Y14400D01*
X60584Y14442D01*
X60581Y14490D01*
X60584Y14536D01*
X60592Y14576D01*
X60606Y14610D01*
X60625Y14638D01*
X60649Y14661D01*
X60675Y14676D01*
X60704Y14686D01*
X60736Y14689D01*
X60768Y14686D01*
X60797Y14676D01*
X60823Y14661D01*
X60847Y14639D01*
X60866Y14610D01*
X60880Y14576D01*
X60888Y14535D01*
X60891Y14487D01*
X60891Y14487D01*
X60888Y14440D01*
X60880Y14399D01*
X60866Y14364D01*
X60847Y14336D01*
X60823Y14314D01*
X60797Y14298D01*
X60768Y14289D01*
X60736Y14286D01*
X60742Y14213D01*
X60788Y14217D01*
X60836Y14230D01*
X60878Y14252D01*
X60915Y14283D01*
X60944Y14322D01*
X60966Y14370D01*
X60979Y14425D01*
X60983Y14487D01*
X60983Y14487D01*
X60384Y14224D02*
X60384Y14751D01*
X60304Y14751D01*
X60304Y14676D01*
X60272Y14714D01*
X60233Y14741D01*
X60188Y14757D01*
X60136Y14763D01*
X60113Y14762D01*
X60091Y14758D01*
X60069Y14753D01*
X60049Y14746D01*
X60030Y14736D01*
X60014Y14726D01*
X60000Y14714D01*
X59989Y14701D01*
X59980Y14686D01*
X59972Y14670D01*
X59966Y14653D01*
X59961Y14635D01*
X59959Y14620D01*
X59958Y14601D01*
X59957Y14577D01*
X59956Y14548D01*
X59956Y14224D01*
X60046Y14224D01*
X60046Y14544D01*
X60046Y14570D01*
X60048Y14592D01*
X60052Y14611D01*
X60056Y14626D01*
X60062Y14639D01*
X60071Y14650D01*
X60081Y14661D01*
X60093Y14669D01*
X60107Y14676D01*
X60122Y14681D01*
X60138Y14684D01*
X60155Y14685D01*
X60183Y14683D01*
X60208Y14676D01*
X60232Y14665D01*
X60254Y14649D01*
X60272Y14627D01*
X60285Y14597D01*
X60293Y14558D01*
X60295Y14512D01*
X60295Y14224D01*
X60384Y14224D01*
X60384Y14224D01*
X59570Y14487D02*
X59565Y14556D01*
X59550Y14615D01*
X59525Y14664D01*
X59489Y14704D01*
X59453Y14730D01*
X59414Y14748D01*
X59370Y14759D01*
X59323Y14763D01*
X59271Y14758D01*
X59225Y14745D01*
X59183Y14723D01*
X59146Y14692D01*
X59116Y14653D01*
X59094Y14607D01*
X59081Y14554D01*
X59077Y14495D01*
X59079Y14447D01*
X59084Y14404D01*
X59094Y14367D01*
X59107Y14335D01*
X59124Y14307D01*
X59145Y14283D01*
X59169Y14262D01*
X59196Y14244D01*
X59226Y14230D01*
X59257Y14220D01*
X59290Y14214D01*
X59323Y14212D01*
X59329Y14213D01*
X59323Y14286D01*
X59291Y14289D01*
X59262Y14298D01*
X59236Y14314D01*
X59213Y14336D01*
X59193Y14365D01*
X59180Y14400D01*
X59171Y14442D01*
X59169Y14490D01*
X59171Y14536D01*
X59180Y14576D01*
X59194Y14610D01*
X59213Y14638D01*
X59237Y14661D01*
X59263Y14676D01*
X59292Y14686D01*
X59323Y14689D01*
X59355Y14686D01*
X59385Y14676D01*
X59411Y14661D01*
X59434Y14639D01*
X59454Y14610D01*
X59468Y14576D01*
X59476Y14535D01*
X59479Y14487D01*
X59479Y14487D01*
X59476Y14440D01*
X59468Y14399D01*
X59454Y14364D01*
X59434Y14336D01*
X59411Y14314D01*
X59385Y14298D01*
X59355Y14289D01*
X59323Y14286D01*
X59329Y14213D01*
X59376Y14217D01*
X59423Y14230D01*
X59465Y14252D01*
X59502Y14283D01*
X59532Y14322D01*
X59553Y14370D01*
X59566Y14425D01*
X59570Y14487D01*
X59570Y14487D01*
X58973Y14224D02*
X58973Y14751D01*
X58893Y14751D01*
X58893Y14671D01*
X58878Y14697D01*
X58863Y14717D01*
X58849Y14734D01*
X58836Y14745D01*
X58823Y14753D01*
X58809Y14758D01*
X58794Y14762D01*
X58779Y14763D01*
X58756Y14761D01*
X58733Y14756D01*
X58710Y14747D01*
X58687Y14734D01*
X58718Y14651D01*
X58734Y14660D01*
X58750Y14666D01*
X58767Y14669D01*
X58783Y14670D01*
X58797Y14669D01*
X58811Y14666D01*
X58824Y14661D01*
X58836Y14653D01*
X58846Y14643D01*
X58856Y14632D01*
X58863Y14619D01*
X58869Y14604D01*
X58875Y14580D01*
X58880Y14554D01*
X58883Y14528D01*
X58884Y14500D01*
X58884Y14224D01*
X58973Y14224D01*
X58973Y14224D01*
X58341Y14224D02*
X58341Y14951D01*
X58242Y14951D01*
X57860Y14380D01*
X57860Y14951D01*
X57768Y14951D01*
X57768Y14224D01*
X57867Y14224D01*
X58249Y14796D01*
X58249Y14224D01*
X58341Y14224D01*
X58341Y14224D01*
X57685Y14212D02*
X57474Y14964D01*
X57402Y14964D01*
X57613Y14212D01*
X57685Y14212D01*
X57685Y14212D01*
X57404Y14224D02*
X57144Y14901D01*
X57075Y14875D01*
X57083Y14840D01*
X57092Y14805D01*
X57102Y14771D01*
X57114Y14736D01*
X57194Y14523D01*
X57194Y14523D01*
X56948Y14523D01*
X57023Y14724D01*
X57040Y14768D01*
X57054Y14808D01*
X57066Y14843D01*
X57075Y14875D01*
X57144Y14901D01*
X57125Y14951D01*
X57021Y14951D01*
X56723Y14224D01*
X56833Y14224D01*
X56918Y14444D01*
X57222Y14444D01*
X57302Y14224D01*
X57404Y14224D01*
X57404Y14224D01*
X60420Y22824D02*
X60420Y22914D01*
X60145Y22914D01*
X60145Y22824D01*
X60420Y22824D01*
X60420Y22824D01*
X60065Y22960D02*
X60058Y23046D01*
X60040Y23122D01*
X60010Y23188D01*
X59967Y23244D01*
X59915Y23289D01*
X59856Y23321D01*
X59790Y23340D01*
X59716Y23346D01*
X59667Y23343D01*
X59621Y23334D01*
X59576Y23319D01*
X59535Y23298D01*
X59497Y23272D01*
X59463Y23240D01*
X59435Y23205D01*
X59411Y23164D01*
X59393Y23119D01*
X59380Y23072D01*
X59372Y23022D01*
X59369Y22969D01*
X59372Y22915D01*
X59380Y22864D01*
X59394Y22816D01*
X59414Y22771D01*
X59438Y22730D01*
X59468Y22694D01*
X59502Y22664D01*
X59540Y22638D01*
X59582Y22619D01*
X59625Y22605D01*
X59650Y22600D01*
X59665Y22681D01*
X59618Y22695D01*
X59576Y22719D01*
X59538Y22752D01*
X59508Y22795D01*
X59486Y22845D01*
X59473Y22903D01*
X59468Y22969D01*
X59470Y23012D01*
X59476Y23052D01*
X59485Y23090D01*
X59498Y23124D01*
X59515Y23155D01*
X59535Y23183D01*
X59559Y23207D01*
X59586Y23227D01*
X59616Y23243D01*
X59647Y23254D01*
X59681Y23261D01*
X59716Y23263D01*
X59765Y23259D01*
X59811Y23246D01*
X59853Y23224D01*
X59892Y23193D01*
X59924Y23152D01*
X59947Y23099D01*
X59961Y23035D01*
X59965Y22959D01*
X59965Y22959D01*
X59961Y22896D01*
X59948Y22841D01*
X59926Y22793D01*
X59895Y22752D01*
X59857Y22719D01*
X59815Y22695D01*
X59768Y22681D01*
X59717Y22676D01*
X59665Y22681D01*
X59650Y22600D01*
X59670Y22596D01*
X59717Y22594D01*
X59767Y22597D01*
X59814Y22606D01*
X59859Y22622D01*
X59900Y22643D01*
X59938Y22670D01*
X59971Y22702D01*
X60000Y22738D01*
X60023Y22779D01*
X60041Y22822D01*
X60054Y22867D01*
X60062Y22913D01*
X60065Y22960D01*
X60065Y22960D01*
X58911Y22606D02*
X58911Y22683D01*
X58945Y22644D01*
X58984Y22616D01*
X59028Y22600D01*
X59078Y22594D01*
X59101Y22595D01*
X59123Y22599D01*
X59145Y22604D01*
X59165Y22612D01*
X59184Y22621D01*
X59201Y22632D01*
X59214Y22644D01*
X59225Y22657D01*
X59234Y22671D01*
X59242Y22687D01*
X59248Y22704D01*
X59253Y22723D01*
X59255Y22738D01*
X59257Y22757D01*
X59258Y22780D01*
X59258Y22806D01*
X59258Y23133D01*
X59169Y23133D01*
X59169Y22841D01*
X59169Y22809D01*
X59168Y22782D01*
X59166Y22761D01*
X59164Y22746D01*
X59158Y22730D01*
X59150Y22715D01*
X59140Y22702D01*
X59128Y22691D01*
X59113Y22682D01*
X59097Y22676D01*
X59080Y22672D01*
X59060Y22671D01*
X59041Y22672D01*
X59022Y22676D01*
X59003Y22683D01*
X58985Y22692D01*
X58969Y22703D01*
X58955Y22716D01*
X58944Y22731D01*
X58935Y22748D01*
X58929Y22767D01*
X58924Y22791D01*
X58921Y22819D01*
X58921Y22851D01*
X58921Y23133D01*
X58831Y23133D01*
X58831Y22606D01*
X58911Y22606D01*
X58911Y22606D01*
X58496Y22686D02*
X58483Y22607D01*
X58502Y22604D01*
X58519Y22601D01*
X58536Y22600D01*
X58551Y22599D01*
X58574Y22600D01*
X58594Y22603D01*
X58612Y22608D01*
X58626Y22614D01*
X58639Y22623D01*
X58649Y22632D01*
X58658Y22643D01*
X58664Y22655D01*
X58669Y22671D01*
X58672Y22694D01*
X58674Y22724D01*
X58675Y22760D01*
X58675Y23063D01*
X58740Y23063D01*
X58740Y23133D01*
X58675Y23133D01*
X58675Y23263D01*
X58586Y23317D01*
X58586Y23133D01*
X58496Y23133D01*
X58496Y23063D01*
X58586Y23063D01*
X58586Y22755D01*
X58586Y22738D01*
X58585Y22724D01*
X58584Y22713D01*
X58581Y22706D01*
X58579Y22701D01*
X58575Y22696D01*
X58571Y22692D01*
X58566Y22689D01*
X58560Y22686D01*
X58553Y22684D01*
X58545Y22683D01*
X58536Y22682D01*
X58528Y22683D01*
X58518Y22683D01*
X58508Y22684D01*
X58496Y22686D01*
X58496Y22686D01*
X58409Y22404D02*
X58409Y23133D01*
X58328Y23133D01*
X58328Y23064D01*
X58284Y23022D01*
X58284Y23021D01*
X58304Y22992D01*
X58317Y22956D01*
X58325Y22914D01*
X58328Y22866D01*
X58328Y22866D01*
X58326Y22819D01*
X58318Y22778D01*
X58305Y22744D01*
X58287Y22716D01*
X58265Y22695D01*
X58242Y22680D01*
X58216Y22671D01*
X58187Y22668D01*
X58159Y22671D01*
X58132Y22680D01*
X58108Y22696D01*
X58085Y22718D01*
X58067Y22747D01*
X58054Y22782D01*
X58046Y22825D01*
X58043Y22874D01*
X58046Y22921D01*
X58053Y22962D01*
X58066Y22996D01*
X58084Y23025D01*
X58106Y23047D01*
X58130Y23062D01*
X58156Y23072D01*
X58183Y23075D01*
X58211Y23071D01*
X58237Y23061D01*
X58262Y23045D01*
X58284Y23022D01*
X58328Y23064D01*
X58313Y23083D01*
X58297Y23100D01*
X58280Y23113D01*
X58263Y23125D01*
X58244Y23133D01*
X58223Y23140D01*
X58200Y23144D01*
X58175Y23145D01*
X58142Y23143D01*
X58111Y23136D01*
X58083Y23125D01*
X58056Y23110D01*
X58032Y23091D01*
X58011Y23068D01*
X57993Y23042D01*
X57978Y23012D01*
X57966Y22980D01*
X57958Y22946D01*
X57953Y22910D01*
X57952Y22873D01*
X57953Y22834D01*
X57959Y22797D01*
X57968Y22761D01*
X57981Y22728D01*
X57997Y22697D01*
X58016Y22671D01*
X58039Y22648D01*
X58065Y22629D01*
X58093Y22613D01*
X58122Y22603D01*
X58151Y22596D01*
X58181Y22594D01*
X58203Y22595D01*
X58224Y22599D01*
X58243Y22605D01*
X58261Y22613D01*
X58278Y22623D01*
X58294Y22634D01*
X58308Y22647D01*
X58320Y22661D01*
X58320Y22404D01*
X58409Y22404D01*
X58409Y22404D01*
X57499Y22606D02*
X57499Y22683D01*
X57532Y22644D01*
X57571Y22616D01*
X57616Y22600D01*
X57666Y22594D01*
X57689Y22595D01*
X57711Y22599D01*
X57732Y22604D01*
X57753Y22612D01*
X57772Y22621D01*
X57788Y22632D01*
X57802Y22644D01*
X57813Y22657D01*
X57822Y22671D01*
X57830Y22687D01*
X57836Y22704D01*
X57841Y22723D01*
X57843Y22738D01*
X57845Y22757D01*
X57846Y22780D01*
X57846Y22806D01*
X57846Y23133D01*
X57757Y23133D01*
X57757Y22841D01*
X57756Y22809D01*
X57755Y22782D01*
X57754Y22761D01*
X57751Y22746D01*
X57746Y22730D01*
X57738Y22715D01*
X57728Y22702D01*
X57716Y22691D01*
X57701Y22682D01*
X57685Y22676D01*
X57667Y22672D01*
X57648Y22671D01*
X57628Y22672D01*
X57609Y22676D01*
X57591Y22683D01*
X57573Y22692D01*
X57556Y22703D01*
X57543Y22716D01*
X57531Y22731D01*
X57523Y22748D01*
X57516Y22767D01*
X57512Y22791D01*
X57509Y22819D01*
X57508Y22851D01*
X57508Y23133D01*
X57419Y23133D01*
X57419Y22606D01*
X57499Y22606D01*
X57499Y22606D01*
X57084Y22686D02*
X57071Y22607D01*
X57089Y22604D01*
X57107Y22601D01*
X57123Y22600D01*
X57139Y22599D01*
X57162Y22600D01*
X57182Y22603D01*
X57199Y22608D01*
X57214Y22614D01*
X57226Y22623D01*
X57237Y22632D01*
X57245Y22643D01*
X57252Y22655D01*
X57256Y22671D01*
X57260Y22694D01*
X57262Y22724D01*
X57263Y22760D01*
X57263Y23063D01*
X57328Y23063D01*
X57328Y23133D01*
X57263Y23133D01*
X57263Y23263D01*
X57174Y23317D01*
X57174Y23133D01*
X57084Y23133D01*
X57084Y23063D01*
X57174Y23063D01*
X57174Y22755D01*
X57173Y22738D01*
X57173Y22724D01*
X57171Y22713D01*
X57169Y22706D01*
X57166Y22701D01*
X57163Y22696D01*
X57159Y22692D01*
X57154Y22689D01*
X57148Y22686D01*
X57141Y22684D01*
X57133Y22683D01*
X57123Y22682D01*
X57115Y22683D01*
X57106Y22683D01*
X57096Y22684D01*
X57084Y22686D01*
X57084Y22686D01*
X31496Y10024D02*
X31496Y10223D01*
X31693Y10223D01*
X31693Y10306D01*
X31496Y10306D01*
X31496Y10504D01*
X31411Y10504D01*
X31411Y10306D01*
X31213Y10306D01*
X31213Y10223D01*
X31411Y10223D01*
X31411Y10024D01*
X31496Y10024D01*
X31496Y10024D01*
X31062Y9906D02*
X31062Y10633D01*
X30966Y10633D01*
X30966Y9906D01*
X31062Y9906D01*
X31062Y9906D01*
X30807Y9906D02*
X30807Y10433D01*
X30727Y10433D01*
X30727Y10358D01*
X30695Y10396D01*
X30656Y10423D01*
X30611Y10439D01*
X30559Y10445D01*
X30536Y10444D01*
X30514Y10440D01*
X30492Y10435D01*
X30472Y10428D01*
X30453Y10418D01*
X30437Y10408D01*
X30423Y10396D01*
X30412Y10383D01*
X30403Y10368D01*
X30395Y10352D01*
X30389Y10335D01*
X30384Y10317D01*
X30382Y10302D01*
X30381Y10283D01*
X30380Y10259D01*
X30379Y10230D01*
X30379Y9906D01*
X30469Y9906D01*
X30469Y10226D01*
X30469Y10252D01*
X30471Y10274D01*
X30474Y10293D01*
X30479Y10308D01*
X30485Y10321D01*
X30493Y10332D01*
X30504Y10342D01*
X30516Y10351D01*
X30530Y10358D01*
X30545Y10363D01*
X30561Y10366D01*
X30578Y10367D01*
X30606Y10365D01*
X30631Y10358D01*
X30655Y10347D01*
X30677Y10331D01*
X30695Y10309D01*
X30708Y10279D01*
X30716Y10240D01*
X30718Y10194D01*
X30718Y9906D01*
X30807Y9906D01*
X30807Y9906D01*
X30242Y9704D02*
X30242Y10433D01*
X30161Y10433D01*
X30161Y10364D01*
X30117Y10322D01*
X30118Y10321D01*
X30137Y10292D01*
X30151Y10256D01*
X30159Y10214D01*
X30161Y10166D01*
X30161Y10166D01*
X30159Y10119D01*
X30151Y10078D01*
X30138Y10044D01*
X30120Y10016D01*
X30099Y9995D01*
X30075Y9980D01*
X30049Y9971D01*
X30021Y9968D01*
X29992Y9971D01*
X29965Y9980D01*
X29941Y9996D01*
X29919Y10018D01*
X29900Y10047D01*
X29887Y10082D01*
X29879Y10125D01*
X29876Y10174D01*
X29879Y10221D01*
X29887Y10262D01*
X29900Y10296D01*
X29918Y10325D01*
X29939Y10347D01*
X29963Y10362D01*
X29989Y10372D01*
X30017Y10375D01*
X30044Y10371D01*
X30070Y10361D01*
X30095Y10345D01*
X30117Y10322D01*
X30161Y10364D01*
X30146Y10383D01*
X30130Y10400D01*
X30114Y10413D01*
X30096Y10425D01*
X30077Y10433D01*
X30056Y10440D01*
X30033Y10444D01*
X30008Y10445D01*
X29975Y10443D01*
X29945Y10436D01*
X29916Y10425D01*
X29889Y10410D01*
X29865Y10391D01*
X29844Y10368D01*
X29826Y10342D01*
X29811Y10312D01*
X29800Y10280D01*
X29792Y10246D01*
X29787Y10210D01*
X29785Y10173D01*
X29787Y10134D01*
X29792Y10097D01*
X29801Y10061D01*
X29814Y10028D01*
X29830Y9997D01*
X29850Y9971D01*
X29872Y9948D01*
X29898Y9929D01*
X29926Y9913D01*
X29955Y9903D01*
X29984Y9896D01*
X30015Y9894D01*
X30036Y9895D01*
X30057Y9899D01*
X30076Y9905D01*
X30095Y9913D01*
X30112Y9923D01*
X30127Y9934D01*
X30141Y9947D01*
X30153Y9961D01*
X30153Y9704D01*
X30242Y9704D01*
X30242Y9704D01*
X29332Y9906D02*
X29332Y9983D01*
X29366Y9944D01*
X29405Y9916D01*
X29449Y9900D01*
X29499Y9894D01*
X29522Y9895D01*
X29544Y9899D01*
X29566Y9904D01*
X29586Y9912D01*
X29605Y9921D01*
X29621Y9932D01*
X29635Y9944D01*
X29646Y9957D01*
X29655Y9971D01*
X29663Y9987D01*
X29669Y10004D01*
X29674Y10023D01*
X29676Y10038D01*
X29678Y10057D01*
X29679Y10080D01*
X29679Y10106D01*
X29679Y10433D01*
X29590Y10433D01*
X29590Y10141D01*
X29590Y10109D01*
X29589Y10082D01*
X29587Y10061D01*
X29585Y10046D01*
X29579Y10030D01*
X29571Y10015D01*
X29561Y10002D01*
X29549Y9991D01*
X29534Y9982D01*
X29518Y9976D01*
X29501Y9972D01*
X29481Y9971D01*
X29462Y9972D01*
X29442Y9976D01*
X29424Y9983D01*
X29406Y9992D01*
X29390Y10003D01*
X29376Y10016D01*
X29365Y10031D01*
X29356Y10048D01*
X29350Y10067D01*
X29345Y10091D01*
X29342Y10119D01*
X29341Y10151D01*
X29341Y10433D01*
X29252Y10433D01*
X29252Y9906D01*
X29332Y9906D01*
X29332Y9906D01*
X28917Y9986D02*
X28904Y9907D01*
X28923Y9904D01*
X28940Y9901D01*
X28956Y9900D01*
X28972Y9899D01*
X28995Y9900D01*
X29015Y9903D01*
X29032Y9908D01*
X29047Y9914D01*
X29060Y9923D01*
X29070Y9932D01*
X29079Y9943D01*
X29085Y9955D01*
X29090Y9971D01*
X29093Y9994D01*
X29095Y10024D01*
X29096Y10060D01*
X29096Y10363D01*
X29161Y10363D01*
X29161Y10433D01*
X29096Y10433D01*
X29096Y10563D01*
X29007Y10617D01*
X29007Y10433D01*
X28917Y10433D01*
X28917Y10363D01*
X29007Y10363D01*
X29007Y10055D01*
X29007Y10038D01*
X29006Y10024D01*
X29004Y10013D01*
X29002Y10006D01*
X29000Y10001D01*
X28996Y9996D01*
X28992Y9992D01*
X28987Y9989D01*
X28981Y9986D01*
X28974Y9984D01*
X28966Y9983D01*
X28956Y9982D01*
X28948Y9983D01*
X28939Y9983D01*
X28929Y9984D01*
X28917Y9986D01*
X28917Y9986D01*
X31210Y15204D02*
X31210Y15294D01*
X30935Y15294D01*
X30935Y15204D01*
X31210Y15204D01*
X31210Y15204D01*
X30809Y14986D02*
X30809Y15713D01*
X30713Y15713D01*
X30713Y14986D01*
X30809Y14986D01*
X30809Y14986D01*
X30554Y14986D02*
X30554Y15513D01*
X30474Y15513D01*
X30474Y15438D01*
X30442Y15476D01*
X30403Y15503D01*
X30358Y15519D01*
X30306Y15525D01*
X30283Y15524D01*
X30261Y15520D01*
X30239Y15515D01*
X30219Y15508D01*
X30200Y15498D01*
X30184Y15488D01*
X30170Y15476D01*
X30159Y15463D01*
X30150Y15448D01*
X30142Y15432D01*
X30136Y15415D01*
X30131Y15397D01*
X30129Y15382D01*
X30128Y15363D01*
X30127Y15339D01*
X30126Y15310D01*
X30126Y14986D01*
X30216Y14986D01*
X30216Y15306D01*
X30216Y15332D01*
X30218Y15354D01*
X30221Y15373D01*
X30226Y15388D01*
X30232Y15401D01*
X30240Y15412D01*
X30251Y15422D01*
X30263Y15431D01*
X30277Y15438D01*
X30292Y15443D01*
X30308Y15446D01*
X30325Y15447D01*
X30353Y15445D01*
X30378Y15438D01*
X30402Y15427D01*
X30424Y15411D01*
X30442Y15389D01*
X30455Y15359D01*
X30463Y15320D01*
X30465Y15274D01*
X30465Y14986D01*
X30554Y14986D01*
X30554Y14986D01*
X29989Y14784D02*
X29989Y15513D01*
X29908Y15513D01*
X29908Y15444D01*
X29864Y15402D01*
X29865Y15401D01*
X29884Y15372D01*
X29898Y15336D01*
X29906Y15294D01*
X29909Y15246D01*
X29909Y15246D01*
X29906Y15199D01*
X29898Y15158D01*
X29885Y15124D01*
X29867Y15096D01*
X29846Y15075D01*
X29822Y15060D01*
X29796Y15051D01*
X29768Y15048D01*
X29739Y15051D01*
X29712Y15060D01*
X29688Y15076D01*
X29666Y15098D01*
X29647Y15127D01*
X29634Y15162D01*
X29626Y15205D01*
X29623Y15254D01*
X29626Y15301D01*
X29634Y15342D01*
X29647Y15376D01*
X29665Y15405D01*
X29686Y15427D01*
X29710Y15442D01*
X29736Y15452D01*
X29764Y15455D01*
X29791Y15451D01*
X29817Y15441D01*
X29842Y15425D01*
X29864Y15402D01*
X29908Y15444D01*
X29893Y15463D01*
X29877Y15480D01*
X29861Y15493D01*
X29843Y15505D01*
X29824Y15513D01*
X29803Y15520D01*
X29780Y15524D01*
X29755Y15525D01*
X29722Y15523D01*
X29692Y15516D01*
X29663Y15505D01*
X29636Y15490D01*
X29612Y15471D01*
X29591Y15448D01*
X29573Y15422D01*
X29558Y15392D01*
X29547Y15360D01*
X29539Y15326D01*
X29534Y15290D01*
X29532Y15253D01*
X29534Y15214D01*
X29539Y15177D01*
X29548Y15141D01*
X29561Y15108D01*
X29577Y15077D01*
X29597Y15051D01*
X29619Y15028D01*
X29645Y15009D01*
X29673Y14993D01*
X29702Y14983D01*
X29732Y14976D01*
X29762Y14974D01*
X29783Y14975D01*
X29804Y14979D01*
X29823Y14985D01*
X29842Y14993D01*
X29859Y15003D01*
X29874Y15014D01*
X29888Y15027D01*
X29900Y15041D01*
X29900Y14784D01*
X29989Y14784D01*
X29989Y14784D01*
X29079Y14986D02*
X29079Y15063D01*
X29113Y15024D01*
X29152Y14996D01*
X29196Y14980D01*
X29246Y14974D01*
X29269Y14975D01*
X29291Y14979D01*
X29313Y14984D01*
X29333Y14992D01*
X29352Y15001D01*
X29369Y15012D01*
X29382Y15024D01*
X29393Y15037D01*
X29402Y15051D01*
X29410Y15067D01*
X29416Y15084D01*
X29421Y15103D01*
X29423Y15118D01*
X29425Y15137D01*
X29426Y15160D01*
X29426Y15186D01*
X29426Y15513D01*
X29337Y15513D01*
X29337Y15221D01*
X29337Y15189D01*
X29336Y15162D01*
X29334Y15141D01*
X29332Y15126D01*
X29326Y15110D01*
X29318Y15095D01*
X29308Y15082D01*
X29296Y15071D01*
X29281Y15062D01*
X29265Y15056D01*
X29248Y15052D01*
X29228Y15051D01*
X29209Y15052D01*
X29189Y15056D01*
X29171Y15063D01*
X29153Y15072D01*
X29137Y15083D01*
X29123Y15096D01*
X29112Y15111D01*
X29103Y15128D01*
X29097Y15147D01*
X29092Y15171D01*
X29089Y15199D01*
X29088Y15231D01*
X29088Y15513D01*
X28999Y15513D01*
X28999Y14986D01*
X29079Y14986D01*
X29079Y14986D01*
X28664Y15066D02*
X28651Y14987D01*
X28670Y14984D01*
X28687Y14981D01*
X28703Y14980D01*
X28719Y14979D01*
X28742Y14980D01*
X28762Y14983D01*
X28780Y14988D01*
X28794Y14994D01*
X28807Y15003D01*
X28817Y15012D01*
X28826Y15023D01*
X28832Y15035D01*
X28837Y15051D01*
X28840Y15074D01*
X28842Y15104D01*
X28843Y15140D01*
X28843Y15443D01*
X28908Y15443D01*
X28908Y15513D01*
X28843Y15513D01*
X28843Y15643D01*
X28754Y15697D01*
X28754Y15513D01*
X28664Y15513D01*
X28664Y15443D01*
X28754Y15443D01*
X28754Y15135D01*
X28754Y15118D01*
X28753Y15104D01*
X28751Y15093D01*
X28749Y15086D01*
X28747Y15081D01*
X28743Y15076D01*
X28739Y15072D01*
X28734Y15069D01*
X28728Y15066D01*
X28721Y15064D01*
X28713Y15063D01*
X28703Y15062D01*
X28695Y15063D01*
X28686Y15063D01*
X28676Y15064D01*
X28664Y15066D01*
X28664Y15066D01*
X31153Y22861D02*
X31056Y22837D01*
X31075Y22781D01*
X31099Y22732D01*
X31129Y22691D01*
X31165Y22656D01*
X31207Y22629D01*
X31253Y22609D01*
X31303Y22597D01*
X31358Y22594D01*
X31414Y22597D01*
X31464Y22606D01*
X31509Y22621D01*
X31549Y22641D01*
X31583Y22668D01*
X31614Y22700D01*
X31640Y22737D01*
X31661Y22780D01*
X31678Y22826D01*
X31690Y22874D01*
X31697Y22924D01*
X31699Y22975D01*
X31697Y23030D01*
X31689Y23081D01*
X31675Y23129D01*
X31656Y23173D01*
X31632Y23213D01*
X31603Y23248D01*
X31570Y23277D01*
X31532Y23302D01*
X31491Y23321D01*
X31448Y23335D01*
X31403Y23343D01*
X31356Y23346D01*
X31304Y23342D01*
X31256Y23332D01*
X31212Y23314D01*
X31173Y23290D01*
X31138Y23260D01*
X31109Y23223D01*
X31086Y23181D01*
X31069Y23134D01*
X31164Y23112D01*
X31178Y23149D01*
X31195Y23180D01*
X31214Y23206D01*
X31237Y23227D01*
X31263Y23243D01*
X31291Y23254D01*
X31323Y23261D01*
X31358Y23263D01*
X31398Y23261D01*
X31435Y23253D01*
X31468Y23241D01*
X31498Y23223D01*
X31524Y23201D01*
X31546Y23176D01*
X31564Y23147D01*
X31577Y23115D01*
X31587Y23081D01*
X31594Y23046D01*
X31599Y23011D01*
X31600Y22976D01*
X31598Y22931D01*
X31593Y22889D01*
X31585Y22850D01*
X31573Y22814D01*
X31558Y22781D01*
X31539Y22753D01*
X31516Y22729D01*
X31489Y22710D01*
X31460Y22695D01*
X31430Y22685D01*
X31398Y22678D01*
X31366Y22676D01*
X31327Y22679D01*
X31291Y22688D01*
X31258Y22702D01*
X31229Y22723D01*
X31203Y22749D01*
X31182Y22781D01*
X31165Y22818D01*
X31153Y22861D01*
X31153Y22861D01*
X30983Y22869D02*
X30977Y22938D01*
X30962Y22997D01*
X30937Y23046D01*
X30901Y23086D01*
X30865Y23112D01*
X30826Y23130D01*
X30782Y23141D01*
X30735Y23145D01*
X30684Y23140D01*
X30637Y23127D01*
X30595Y23105D01*
X30558Y23074D01*
X30528Y23035D01*
X30506Y22989D01*
X30493Y22936D01*
X30489Y22877D01*
X30491Y22829D01*
X30497Y22786D01*
X30506Y22749D01*
X30519Y22717D01*
X30536Y22689D01*
X30557Y22665D01*
X30581Y22644D01*
X30608Y22626D01*
X30638Y22612D01*
X30669Y22602D01*
X30702Y22596D01*
X30735Y22594D01*
X30742Y22595D01*
X30735Y22668D01*
X30704Y22671D01*
X30675Y22680D01*
X30648Y22696D01*
X30625Y22718D01*
X30606Y22747D01*
X30592Y22782D01*
X30583Y22824D01*
X30581Y22872D01*
X30583Y22918D01*
X30592Y22958D01*
X30606Y22992D01*
X30625Y23020D01*
X30649Y23043D01*
X30675Y23058D01*
X30704Y23068D01*
X30735Y23071D01*
X30768Y23068D01*
X30797Y23058D01*
X30823Y23043D01*
X30847Y23021D01*
X30866Y22992D01*
X30880Y22958D01*
X30888Y22917D01*
X30891Y22869D01*
X30891Y22869D01*
X30888Y22822D01*
X30880Y22781D01*
X30866Y22746D01*
X30847Y22718D01*
X30823Y22696D01*
X30797Y22680D01*
X30768Y22671D01*
X30735Y22668D01*
X30742Y22595D01*
X30788Y22599D01*
X30836Y22612D01*
X30878Y22634D01*
X30914Y22665D01*
X30944Y22704D01*
X30965Y22752D01*
X30978Y22807D01*
X30983Y22869D01*
X30983Y22869D01*
X30384Y22606D02*
X30384Y23133D01*
X30304Y23133D01*
X30304Y23058D01*
X30272Y23096D01*
X30233Y23123D01*
X30188Y23139D01*
X30136Y23145D01*
X30113Y23144D01*
X30090Y23140D01*
X30069Y23135D01*
X30049Y23128D01*
X30030Y23118D01*
X30014Y23108D01*
X30000Y23096D01*
X29989Y23083D01*
X29980Y23068D01*
X29972Y23052D01*
X29966Y23035D01*
X29961Y23017D01*
X29959Y23002D01*
X29957Y22983D01*
X29956Y22959D01*
X29956Y22930D01*
X29956Y22606D01*
X30045Y22606D01*
X30045Y22926D01*
X30046Y22952D01*
X30048Y22974D01*
X30051Y22993D01*
X30056Y23008D01*
X30062Y23021D01*
X30070Y23032D01*
X30081Y23043D01*
X30093Y23051D01*
X30107Y23058D01*
X30122Y23063D01*
X30138Y23066D01*
X30155Y23067D01*
X30183Y23065D01*
X30208Y23058D01*
X30232Y23047D01*
X30254Y23031D01*
X30272Y23009D01*
X30285Y22979D01*
X30292Y22940D01*
X30295Y22894D01*
X30295Y22606D01*
X30384Y22606D01*
X30384Y22606D01*
X29624Y22686D02*
X29611Y22607D01*
X29630Y22604D01*
X29647Y22601D01*
X29663Y22600D01*
X29679Y22599D01*
X29702Y22600D01*
X29722Y22603D01*
X29739Y22608D01*
X29754Y22614D01*
X29767Y22623D01*
X29777Y22632D01*
X29785Y22643D01*
X29792Y22655D01*
X29797Y22671D01*
X29800Y22694D01*
X29802Y22724D01*
X29803Y22760D01*
X29803Y23063D01*
X29868Y23063D01*
X29868Y23133D01*
X29803Y23133D01*
X29803Y23263D01*
X29714Y23317D01*
X29714Y23133D01*
X29624Y23133D01*
X29624Y23063D01*
X29714Y23063D01*
X29714Y22755D01*
X29714Y22738D01*
X29713Y22724D01*
X29711Y22713D01*
X29709Y22706D01*
X29707Y22701D01*
X29703Y22696D01*
X29699Y22692D01*
X29694Y22689D01*
X29688Y22686D01*
X29681Y22684D01*
X29673Y22683D01*
X29663Y22682D01*
X29655Y22683D01*
X29646Y22683D01*
X29636Y22684D01*
X29624Y22686D01*
X29624Y22686D01*
X29538Y22606D02*
X29538Y23133D01*
X29458Y23133D01*
X29458Y23053D01*
X29442Y23079D01*
X29428Y23099D01*
X29414Y23116D01*
X29401Y23127D01*
X29387Y23135D01*
X29373Y23140D01*
X29359Y23144D01*
X29343Y23145D01*
X29321Y23143D01*
X29298Y23138D01*
X29275Y23129D01*
X29252Y23116D01*
X29282Y23033D01*
X29299Y23042D01*
X29315Y23048D01*
X29332Y23051D01*
X29348Y23052D01*
X29362Y23051D01*
X29376Y23048D01*
X29388Y23043D01*
X29400Y23035D01*
X29411Y23025D01*
X29420Y23014D01*
X29428Y23001D01*
X29434Y22986D01*
X29440Y22962D01*
X29445Y22936D01*
X29448Y22910D01*
X29449Y22882D01*
X29449Y22606D01*
X29538Y22606D01*
X29538Y22606D01*
X29232Y22869D02*
X29227Y22938D01*
X29211Y22997D01*
X29186Y23046D01*
X29150Y23086D01*
X29115Y23112D01*
X29075Y23130D01*
X29032Y23141D01*
X28985Y23145D01*
X28933Y23140D01*
X28886Y23127D01*
X28844Y23105D01*
X28807Y23074D01*
X28777Y23035D01*
X28755Y22989D01*
X28743Y22936D01*
X28738Y22877D01*
X28740Y22829D01*
X28746Y22786D01*
X28755Y22749D01*
X28769Y22717D01*
X28786Y22689D01*
X28806Y22665D01*
X28830Y22644D01*
X28858Y22626D01*
X28887Y22612D01*
X28918Y22602D01*
X28951Y22596D01*
X28985Y22594D01*
X28991Y22595D01*
X28985Y22668D01*
X28953Y22671D01*
X28924Y22680D01*
X28898Y22696D01*
X28874Y22718D01*
X28855Y22747D01*
X28841Y22782D01*
X28833Y22824D01*
X28830Y22872D01*
X28833Y22918D01*
X28841Y22958D01*
X28855Y22992D01*
X28874Y23020D01*
X28898Y23043D01*
X28924Y23058D01*
X28953Y23068D01*
X28985Y23071D01*
X29017Y23068D01*
X29046Y23058D01*
X29072Y23043D01*
X29096Y23021D01*
X29115Y22992D01*
X29129Y22958D01*
X29137Y22917D01*
X29140Y22869D01*
X29140Y22869D01*
X29137Y22822D01*
X29129Y22781D01*
X29115Y22746D01*
X29096Y22718D01*
X29072Y22696D01*
X29046Y22680D01*
X29017Y22671D01*
X28985Y22668D01*
X28991Y22595D01*
X29037Y22599D01*
X29085Y22612D01*
X29127Y22634D01*
X29164Y22665D01*
X29193Y22704D01*
X29215Y22752D01*
X29228Y22807D01*
X29232Y22869D01*
X29232Y22869D01*
X28636Y22606D02*
X28636Y23333D01*
X28546Y23333D01*
X28546Y22606D01*
X28636Y22606D01*
X28636Y22606D01*
G37*
M02*