<?xml version='1.0' encoding='UTF-8' standalone='no'?>
<svg xmlns="http://www.w3.org/2000/svg" width="675" height="244" x="0" y="0"><text x="389" y="90" font-size="10" font-family="sans-serif" text-anchor="end" alignment-baseline="middle">sniff-b+</text><text x="249" y="30" font-size="10" font-family="sans-serif" text-anchor="start" alignment-baseline="middle">sniff-a+</text><text x="389" y="110" font-size="10" font-family="sans-serif" text-anchor="end" alignment-baseline="middle">sniff-a-</text><text x="427" y="148" font-size="10" font-family="sans-serif" text-anchor="start" alignment-baseline="hanging">OS202013MT5QN1</text><text x="389" y="70" font-size="10" font-family="sans-serif" text-anchor="end" alignment-baseline="middle">sniff-a+</text><text x="249" y="160" font-size="10" font-family="sans-serif" text-anchor="start" alignment-baseline="middle">sniff-b+</text><text x="249" y="40" font-size="10" font-family="sans-serif" text-anchor="start" alignment-baseline="middle">sniff-a-</text><text x="574" y="40" font-size="10" font-family="sans-serif" text-anchor="start" alignment-baseline="hanging">J2</text><text x="13" y="224" font-size="10" font-family="sans-serif" text-anchor="start" alignment-baseline="hanging">A00-216-262-450</text><text x="464" y="50" font-size="10" font-family="sans-serif" text-anchor="start" alignment-baseline="hanging">SW1</text><text x="389" y="130" font-size="10" font-family="sans-serif" text-anchor="end" alignment-baseline="middle">sniff-b-</text><text x="10" y="116" font-size="10" font-family="sans-serif" text-anchor="start" alignment-baseline="hanging">A00-216-262-450</text><text x="94" y="120" font-size="10" font-family="sans-serif" text-anchor="start" alignment-baseline="hanging">J1B</text><text x="249" y="190" font-size="10" font-family="sans-serif" text-anchor="start" alignment-baseline="middle">sniff-b-</text><text x="81" y="10" font-size="10" font-family="sans-serif" text-anchor="start" alignment-baseline="hanging">J1A</text><text x="556" y="106" font-size="10" font-family="sans-serif" text-anchor="start" alignment-baseline="hanging">SS-6488-NF</text><line x1="229" y1="160" x2="224" y2="160" stroke-width="2" stroke="black"></line><line x1="244" y1="160" x2="239" y2="157" stroke-width="2" stroke="black"></line><line x1="244" y1="160" x2="239" y2="163" stroke-width="2" stroke="black"></line><line x1="239" y1="157" x2="234" y2="157" stroke-width="2" stroke="black"></line><line x1="239" y1="163" x2="234" y2="163" stroke-width="2" stroke="black"></line><line x1="234" y1="157" x2="229" y2="160" stroke-width="2" stroke="black"></line><line x1="234" y1="163" x2="229" y2="160" stroke-width="2" stroke="black"></line><line x1="229" y1="190" x2="224" y2="190" stroke-width="2" stroke="black"></line><line x1="244" y1="190" x2="239" y2="187" stroke-width="2" stroke="black"></line><line x1="244" y1="190" x2="239" y2="193" stroke-width="2" stroke="black"></line><line x1="239" y1="187" x2="234" y2="187" stroke-width="2" stroke="black"></line><line x1="239" y1="193" x2="234" y2="193" stroke-width="2" stroke="black"></line><line x1="234" y1="187" x2="229" y2="190" stroke-width="2" stroke="black"></line><line x1="234" y1="193" x2="229" y2="190" stroke-width="2" stroke="black"></line><rect width="50" height="90" x="44" y="130" style="stroke: #000; stroke-width: 1; fill: none;"></rect><line x1="104" y1="140" x2="94" y2="140" stroke-width="2" stroke="black"></line><line x1="104" y1="150" x2="94" y2="150" stroke-width="2" stroke="black"></line><line x1="104" y1="160" x2="94" y2="160" stroke-width="2" stroke="black"></line><line x1="104" y1="170" x2="94" y2="170" stroke-width="2" stroke="black"></line><line x1="104" y1="180" x2="94" y2="180" stroke-width="2" stroke="black"></line><line x1="104" y1="190" x2="94" y2="190" stroke-width="2" stroke="black"></line><line x1="104" y1="200" x2="94" y2="200" stroke-width="2" stroke="black"></line><line x1="104" y1="210" x2="94" y2="210" stroke-width="2" stroke="black"></line><text x="92" y="210" font-size="10" font-family="sans-serif" text-anchor="end" alignment-baseline="middle">8B (n/c)</text><text x="92" y="200" font-size="10" font-family="sans-serif" text-anchor="end" alignment-baseline="middle">7B (n/c)</text><text x="92" y="180" font-size="10" font-family="sans-serif" text-anchor="end" alignment-baseline="middle">5B (n/c)</text><text x="92" y="170" font-size="10" font-family="sans-serif" text-anchor="end" alignment-baseline="middle">4B (n/c)</text><text x="92" y="140" font-size="10" font-family="sans-serif" text-anchor="end" alignment-baseline="middle">1B (TX+)</text><text x="92" y="150" font-size="10" font-family="sans-serif" text-anchor="end" alignment-baseline="middle">2B (TX-)</text><text x="92" y="160" font-size="10" font-family="sans-serif" text-anchor="end" alignment-baseline="middle">3B (RX+)</text><text x="92" y="190" font-size="10" font-family="sans-serif" text-anchor="end" alignment-baseline="middle">6B (RX-)</text><line x1="229" y1="40" x2="224" y2="40" stroke-width="2" stroke="black"></line><line x1="244" y1="40" x2="239" y2="37" stroke-width="2" stroke="black"></line><line x1="244" y1="40" x2="239" y2="43" stroke-width="2" stroke="black"></line><line x1="239" y1="37" x2="234" y2="37" stroke-width="2" stroke="black"></line><line x1="239" y1="43" x2="234" y2="43" stroke-width="2" stroke="black"></line><line x1="234" y1="37" x2="229" y2="40" stroke-width="2" stroke="black"></line><line x1="234" y1="43" x2="229" y2="40" stroke-width="2" stroke="black"></line><rect width="20" height="50" x="574" y="50" style="stroke: #000; stroke-width: 1; fill: none;"></rect><line x1="564" y1="60" x2="574" y2="60" stroke-width="2" stroke="black"></line><text x="576" y="60" font-size="10" font-family="sans-serif" text-anchor="start" alignment-baseline="middle">1</text><line x1="564" y1="70" x2="574" y2="70" stroke-width="2" stroke="black"></line><text x="576" y="70" font-size="10" font-family="sans-serif" text-anchor="start" alignment-baseline="middle">2</text><line x1="564" y1="80" x2="574" y2="80" stroke-width="2" stroke="black"></line><text x="576" y="80" font-size="10" font-family="sans-serif" text-anchor="start" alignment-baseline="middle">3</text><line x1="564" y1="90" x2="574" y2="90" stroke-width="2" stroke="black"></line><text x="576" y="90" font-size="10" font-family="sans-serif" text-anchor="start" alignment-baseline="middle">4</text><line x1="604" y1="60" x2="594" y2="60" stroke-width="2" stroke="black"></line><text x="592" y="60" font-size="10" font-family="sans-serif" text-anchor="end" alignment-baseline="middle">5</text><line x1="604" y1="70" x2="594" y2="70" stroke-width="2" stroke="black"></line><text x="592" y="70" font-size="10" font-family="sans-serif" text-anchor="end" alignment-baseline="middle">6</text><line x1="604" y1="80" x2="594" y2="80" stroke-width="2" stroke="black"></line><text x="592" y="80" font-size="10" font-family="sans-serif" text-anchor="end" alignment-baseline="middle">7</text><line x1="604" y1="90" x2="594" y2="90" stroke-width="2" stroke="black"></line><text x="592" y="90" font-size="10" font-family="sans-serif" text-anchor="end" alignment-baseline="middle">8</text><line x1="409" y1="110" x2="414" y2="110" stroke-width="2" stroke="black"></line><line x1="394" y1="110" x2="399" y2="107" stroke-width="2" stroke="black"></line><line x1="394" y1="110" x2="399" y2="113" stroke-width="2" stroke="black"></line><line x1="399" y1="107" x2="404" y2="107" stroke-width="2" stroke="black"></line><line x1="399" y1="113" x2="404" y2="113" stroke-width="2" stroke="black"></line><line x1="404" y1="107" x2="409" y2="110" stroke-width="2" stroke="black"></line><line x1="404" y1="113" x2="409" y2="110" stroke-width="2" stroke="black"></line><line x1="474" y1="131" x2="474" y2="128" stroke-width="2" stroke="black"></line><line x1="474" y1="125" x2="474" y2="122" stroke-width="2" stroke="black"></line><line x1="474" y1="119" x2="474" y2="116" stroke-width="2" stroke="black"></line><line x1="474" y1="113" x2="474" y2="110" stroke-width="2" stroke="black"></line><line x1="474" y1="107" x2="474" y2="104" stroke-width="2" stroke="black"></line><line x1="474" y1="101" x2="474" y2="98" stroke-width="2" stroke="black"></line><line x1="474" y1="95" x2="474" y2="92" stroke-width="2" stroke="black"></line><line x1="474" y1="89" x2="474" y2="86" stroke-width="2" stroke="black"></line><line x1="474" y1="83" x2="474" y2="80" stroke-width="2" stroke="black"></line><line x1="474" y1="77" x2="474" y2="74" stroke-width="2" stroke="black"></line><line x1="474" y1="71" x2="474" y2="68" stroke-width="2" stroke="black"></line><line x1="444" y1="130" x2="464" y2="130" stroke-width="2" stroke="black"></line><circle cx="467" cy="130" r="3" style="stroke: #000; stroke-width: 1; fill: none;"></circle><line x1="484" y1="120" x2="504" y2="120" stroke-width="2" stroke="black"></line><line x1="478" y1="120" x2="466" y2="113" stroke-width="2" stroke="black"></line><circle cx="481" cy="120" r="3" style="stroke: #000; stroke-width: 1; fill: none;"></circle><line x1="444" y1="110" x2="464" y2="110" stroke-width="2" stroke="black"></line><circle cx="467" cy="110" r="3" style="stroke: #000; stroke-width: 1; fill: none;"></circle><line x1="444" y1="90" x2="464" y2="90" stroke-width="2" stroke="black"></line><circle cx="467" cy="90" r="3" style="stroke: #000; stroke-width: 1; fill: none;"></circle><line x1="484" y1="80" x2="504" y2="80" stroke-width="2" stroke="black"></line><line x1="478" y1="80" x2="466" y2="73" stroke-width="2" stroke="black"></line><circle cx="481" cy="80" r="3" style="stroke: #000; stroke-width: 1; fill: none;"></circle><line x1="444" y1="70" x2="464" y2="70" stroke-width="2" stroke="black"></line><circle cx="467" cy="70" r="3" style="stroke: #000; stroke-width: 1; fill: none;"></circle><rect width="50" height="90" x="44" y="20" style="stroke: #000; stroke-width: 1; fill: none;"></rect><line x1="104" y1="30" x2="94" y2="30" stroke-width="2" stroke="black"></line><line x1="104" y1="40" x2="94" y2="40" stroke-width="2" stroke="black"></line><line x1="104" y1="50" x2="94" y2="50" stroke-width="2" stroke="black"></line><line x1="104" y1="60" x2="94" y2="60" stroke-width="2" stroke="black"></line><line x1="104" y1="70" x2="94" y2="70" stroke-width="2" stroke="black"></line><line x1="104" y1="80" x2="94" y2="80" stroke-width="2" stroke="black"></line><line x1="104" y1="90" x2="94" y2="90" stroke-width="2" stroke="black"></line><line x1="104" y1="100" x2="94" y2="100" stroke-width="2" stroke="black"></line><text x="92" y="30" font-size="10" font-family="sans-serif" text-anchor="end" alignment-baseline="middle">1A (TX+)</text><text x="92" y="40" font-size="10" font-family="sans-serif" text-anchor="end" alignment-baseline="middle">2A (TX-)</text><text x="92" y="50" font-size="10" font-family="sans-serif" text-anchor="end" alignment-baseline="middle">3A (RX+)</text><text x="92" y="60" font-size="10" font-family="sans-serif" text-anchor="end" alignment-baseline="middle">4A (n/c)</text><text x="92" y="70" font-size="10" font-family="sans-serif" text-anchor="end" alignment-baseline="middle">5A (n/c)</text><text x="92" y="90" font-size="10" font-family="sans-serif" text-anchor="end" alignment-baseline="middle">7A (n/c)</text><text x="92" y="100" font-size="10" font-family="sans-serif" text-anchor="end" alignment-baseline="middle">8A (n/c)</text><text x="92" y="80" font-size="10" font-family="sans-serif" text-anchor="end" alignment-baseline="middle">6A (RX-)</text><line x1="409" y1="70" x2="414" y2="70" stroke-width="2" stroke="black"></line><line x1="394" y1="70" x2="399" y2="67" stroke-width="2" stroke="black"></line><line x1="394" y1="70" x2="399" y2="73" stroke-width="2" stroke="black"></line><line x1="399" y1="67" x2="404" y2="67" stroke-width="2" stroke="black"></line><line x1="399" y1="73" x2="404" y2="73" stroke-width="2" stroke="black"></line><line x1="404" y1="67" x2="409" y2="70" stroke-width="2" stroke="black"></line><line x1="404" y1="73" x2="409" y2="70" stroke-width="2" stroke="black"></line><line x1="229" y1="30" x2="224" y2="30" stroke-width="2" stroke="black"></line><line x1="244" y1="30" x2="239" y2="27" stroke-width="2" stroke="black"></line><line x1="244" y1="30" x2="239" y2="33" stroke-width="2" stroke="black"></line><line x1="239" y1="27" x2="234" y2="27" stroke-width="2" stroke="black"></line><line x1="239" y1="33" x2="234" y2="33" stroke-width="2" stroke="black"></line><line x1="234" y1="27" x2="229" y2="30" stroke-width="2" stroke="black"></line><line x1="234" y1="33" x2="229" y2="30" stroke-width="2" stroke="black"></line><line x1="409" y1="90" x2="414" y2="90" stroke-width="2" stroke="black"></line><line x1="394" y1="90" x2="399" y2="87" stroke-width="2" stroke="black"></line><line x1="394" y1="90" x2="399" y2="93" stroke-width="2" stroke="black"></line><line x1="399" y1="87" x2="404" y2="87" stroke-width="2" stroke="black"></line><line x1="399" y1="93" x2="404" y2="93" stroke-width="2" stroke="black"></line><line x1="404" y1="87" x2="409" y2="90" stroke-width="2" stroke="black"></line><line x1="404" y1="93" x2="409" y2="90" stroke-width="2" stroke="black"></line><line x1="409" y1="130" x2="414" y2="130" stroke-width="2" stroke="black"></line><line x1="394" y1="130" x2="399" y2="127" stroke-width="2" stroke="black"></line><line x1="394" y1="130" x2="399" y2="133" stroke-width="2" stroke="black"></line><line x1="399" y1="127" x2="404" y2="127" stroke-width="2" stroke="black"></line><line x1="399" y1="133" x2="404" y2="133" stroke-width="2" stroke="black"></line><line x1="404" y1="127" x2="409" y2="130" stroke-width="2" stroke="black"></line><line x1="404" y1="133" x2="409" y2="130" stroke-width="2" stroke="black"></line><circle cx="134" cy="40" r="2" style="stroke: #000; stroke-width: 1; fill: none;"></circle><circle cx="124" cy="30" r="2" style="stroke: #000; stroke-width: 1; fill: none;"></circle><circle cx="174" cy="190" r="2" style="stroke: #000; stroke-width: 1; fill: none;"></circle><circle cx="144" cy="160" r="2" style="stroke: #000; stroke-width: 1; fill: none;"></circle><line x1="534" y1="80" x2="564" y2="80" stroke-width="2" stroke="black"></line><line x1="534" y1="80" x2="504" y2="80" stroke-width="2" stroke="black"></line><line x1="664" y1="120" x2="504" y2="120" stroke-width="2" stroke="black"></line><line x1="424" y1="130" x2="414" y2="130" stroke-width="2" stroke="black"></line><line x1="424" y1="130" x2="444" y2="130" stroke-width="2" stroke="black"></line><line x1="664" y1="70" x2="604" y2="70" stroke-width="2" stroke="black"></line><line x1="664" y1="70" x2="664" y2="120" stroke-width="2" stroke="black"></line><line x1="414" y1="70" x2="444" y2="70" stroke-width="2" stroke="black"></line><line x1="104" y1="50" x2="144" y2="50" stroke-width="2" stroke="black"></line><line x1="134" y1="40" x2="224" y2="40" stroke-width="2" stroke="black"></line><line x1="134" y1="40" x2="134" y2="150" stroke-width="2" stroke="black"></line><line x1="414" y1="90" x2="444" y2="90" stroke-width="2" stroke="black"></line><line x1="104" y1="150" x2="134" y2="150" stroke-width="2" stroke="black"></line><line x1="164" y1="180" x2="164" y2="70" stroke-width="2" stroke="black"></line><line x1="184" y1="200" x2="104" y2="200" stroke-width="2" stroke="black"></line><line x1="104" y1="180" x2="164" y2="180" stroke-width="2" stroke="black"></line><line x1="104" y1="40" x2="134" y2="40" stroke-width="2" stroke="black"></line><line x1="154" y1="170" x2="104" y2="170" stroke-width="2" stroke="black"></line><line x1="154" y1="170" x2="154" y2="60" stroke-width="2" stroke="black"></line><line x1="194" y1="100" x2="104" y2="100" stroke-width="2" stroke="black"></line><line x1="104" y1="60" x2="154" y2="60" stroke-width="2" stroke="black"></line><line x1="194" y1="210" x2="104" y2="210" stroke-width="2" stroke="black"></line><line x1="194" y1="210" x2="194" y2="100" stroke-width="2" stroke="black"></line><line x1="104" y1="70" x2="164" y2="70" stroke-width="2" stroke="black"></line><line x1="414" y1="110" x2="444" y2="110" stroke-width="2" stroke="black"></line><line x1="124" y1="30" x2="104" y2="30" stroke-width="2" stroke="black"></line><line x1="124" y1="30" x2="224" y2="30" stroke-width="2" stroke="black"></line><line x1="174" y1="190" x2="224" y2="190" stroke-width="2" stroke="black"></line><line x1="174" y1="190" x2="104" y2="190" stroke-width="2" stroke="black"></line><line x1="174" y1="80" x2="174" y2="190" stroke-width="2" stroke="black"></line><line x1="104" y1="80" x2="174" y2="80" stroke-width="2" stroke="black"></line><line x1="144" y1="160" x2="144" y2="50" stroke-width="2" stroke="black"></line><line x1="144" y1="160" x2="224" y2="160" stroke-width="2" stroke="black"></line><line x1="144" y1="160" x2="104" y2="160" stroke-width="2" stroke="black"></line><line x1="184" y1="90" x2="184" y2="200" stroke-width="2" stroke="black"></line><line x1="184" y1="90" x2="104" y2="90" stroke-width="2" stroke="black"></line><line x1="124" y1="140" x2="104" y2="140" stroke-width="2" stroke="black"></line><line x1="124" y1="140" x2="124" y2="30" stroke-width="2" stroke="black"></line></svg>