<?xml version='1.0' encoding='UTF-8' standalone='no'?>
<svg xmlns="http://www.w3.org/2000/svg" width="893" height="635" x="0" y="0"><text x="335" y="248" font-size="10" font-family="sans-serif" text-anchor="start" alignment-baseline="hanging">10k</text><text x="138" y="180" font-size="10" font-family="sans-serif" text-anchor="start" alignment-baseline="hanging">S2</text><text x="806" y="330" font-size="10" font-family="sans-serif" text-anchor="start" alignment-baseline="hanging">ESQ-108-14-L-S</text><text x="491" y="330" font-size="10" font-family="sans-serif" text-anchor="start" alignment-baseline="hanging">VCC</text><text x="560" y="406" font-size="10" font-family="sans-serif" text-anchor="start" alignment-baseline="hanging">VCC</text><text x="197" y="71" font-size="10" font-family="sans-serif" text-anchor="start" alignment-baseline="hanging">R1</text><text x="137" y="101" font-size="10" font-family="sans-serif" text-anchor="start" alignment-baseline="hanging">S1</text><text x="421" y="246" font-size="10" font-family="sans-serif" text-anchor="start" alignment-baseline="hanging">VCC</text><text x="760" y="164" font-size="10" font-family="sans-serif" text-anchor="start" alignment-baseline="hanging">VCC</text><text x="87" y="299" font-size="10" font-family="sans-serif" text-anchor="start" alignment-baseline="hanging">Reed switch</text><text x="137" y="340" font-size="10" font-family="sans-serif" text-anchor="start" alignment-baseline="hanging">S4</text><text x="87" y="377" font-size="10" font-family="sans-serif" text-anchor="start" alignment-baseline="hanging">Reed switch</text><text x="466" y="360" font-size="10" font-family="sans-serif" text-anchor="start" alignment-baseline="middle">out4</text><text x="256" y="120" font-size="10" font-family="sans-serif" text-anchor="start" alignment-baseline="middle">out1</text><text x="396" y="280" font-size="10" font-family="sans-serif" text-anchor="start" alignment-baseline="middle">out3</text><text x="606" y="520" font-size="10" font-family="sans-serif" text-anchor="start" alignment-baseline="middle">out6</text><text x="815" y="198" font-size="10" font-family="sans-serif" text-anchor="start" alignment-baseline="hanging">J8</text><text x="11" y="615" font-size="10" font-family="sans-serif" text-anchor="start" alignment-baseline="hanging">GND</text><text x="736" y="280" font-size="10" font-family="sans-serif" text-anchor="end" alignment-baseline="middle">out5</text><text x="475" y="406" font-size="10" font-family="sans-serif" text-anchor="start" alignment-baseline="hanging">10k</text><text x="546" y="477" font-size="10" font-family="sans-serif" text-anchor="start" alignment-baseline="hanging">R6</text><text x="281" y="90" font-size="10" font-family="sans-serif" text-anchor="start" alignment-baseline="hanging">VCC</text><text x="761" y="365" font-size="10" font-family="sans-serif" text-anchor="start" alignment-baseline="hanging">GND</text><text x="87" y="540" font-size="10" font-family="sans-serif" text-anchor="start" alignment-baseline="hanging">Reed switch</text><text x="86" y="458" font-size="10" font-family="sans-serif" text-anchor="start" alignment-baseline="hanging">Reed switch</text><text x="139" y="500" font-size="10" font-family="sans-serif" text-anchor="start" alignment-baseline="hanging">S6</text><text x="736" y="290" font-size="10" font-family="sans-serif" text-anchor="end" alignment-baseline="middle">out6</text><text x="543" y="490" font-size="10" font-family="sans-serif" text-anchor="start" alignment-baseline="hanging">10k</text><text x="536" y="440" font-size="10" font-family="sans-serif" text-anchor="start" alignment-baseline="middle">out5</text><text x="406" y="328" font-size="10" font-family="sans-serif" text-anchor="start" alignment-baseline="hanging">10k</text><text x="86" y="220" font-size="10" font-family="sans-serif" text-anchor="start" alignment-baseline="hanging">Reed switch</text><text x="265" y="152" font-size="10" font-family="sans-serif" text-anchor="start" alignment-baseline="hanging">R2</text><text x="736" y="250" font-size="10" font-family="sans-serif" text-anchor="end" alignment-baseline="middle">out2</text><text x="736" y="240" font-size="10" font-family="sans-serif" text-anchor="end" alignment-baseline="middle">out1</text><text x="326" y="200" font-size="10" font-family="sans-serif" text-anchor="start" alignment-baseline="middle">out2</text><text x="138" y="261" font-size="10" font-family="sans-serif" text-anchor="start" alignment-baseline="hanging">S3</text><text x="736" y="270" font-size="10" font-family="sans-serif" text-anchor="end" alignment-baseline="middle">out4</text><text x="211" y="10" font-size="10" font-family="sans-serif" text-anchor="start" alignment-baseline="hanging">VCC</text><text x="736" y="260" font-size="10" font-family="sans-serif" text-anchor="end" alignment-baseline="middle">out3</text><text x="137" y="420" font-size="10" font-family="sans-serif" text-anchor="start" alignment-baseline="hanging">S5</text><text x="263" y="166" font-size="10" font-family="sans-serif" text-anchor="start" alignment-baseline="hanging">10k</text><text x="194" y="83" font-size="10" font-family="sans-serif" text-anchor="start" alignment-baseline="hanging">10k</text><text x="85" y="141" font-size="10" font-family="sans-serif" text-anchor="start" alignment-baseline="hanging">Reed switch</text><text x="408" y="316" font-size="10" font-family="sans-serif" text-anchor="start" alignment-baseline="hanging">R4</text><text x="337" y="235" font-size="10" font-family="sans-serif" text-anchor="start" alignment-baseline="hanging">R3</text><text x="477" y="395" font-size="10" font-family="sans-serif" text-anchor="start" alignment-baseline="hanging">R5</text><text x="351" y="170" font-size="10" font-family="sans-serif" text-anchor="start" alignment-baseline="hanging">VCC</text><rect width="30" height="20" x="101" y="350" style="stroke: #000; stroke-width: 1; fill: none;"></rect><line x1="91" y1="360" x2="101" y2="360" stroke-width="2" stroke="black"></line><text x="103" y="360" font-size="10" font-family="sans-serif" text-anchor="start" alignment-baseline="middle">1</text><line x1="141" y1="360" x2="131" y2="360" stroke-width="2" stroke="black"></line><text x="129" y="360" font-size="10" font-family="sans-serif" text-anchor="end" alignment-baseline="middle">2</text><line x1="571" y1="500" x2="566" y2="497" stroke-width="2" stroke="black"></line><line x1="566" y1="497" x2="576" y2="492" stroke-width="2" stroke="black"></line><line x1="576" y1="492" x2="566" y2="487" stroke-width="2" stroke="black"></line><line x1="566" y1="487" x2="576" y2="482" stroke-width="2" stroke="black"></line><line x1="576" y1="482" x2="566" y2="477" stroke-width="2" stroke="black"></line><line x1="566" y1="477" x2="576" y2="472" stroke-width="2" stroke="black"></line><line x1="576" y1="472" x2="571" y2="470" stroke-width="2" stroke="black"></line><line x1="571" y1="510" x2="571" y2="500" stroke-width="2" stroke="black"></line><line x1="571" y1="470" x2="571" y2="460" stroke-width="2" stroke="black"></line><line x1="756" y1="250" x2="761" y2="250" stroke-width="2" stroke="black"></line><line x1="741" y1="250" x2="746" y2="247" stroke-width="2" stroke="black"></line><line x1="741" y1="250" x2="746" y2="253" stroke-width="2" stroke="black"></line><line x1="746" y1="247" x2="756" y2="247" stroke-width="2" stroke="black"></line><line x1="746" y1="253" x2="756" y2="253" stroke-width="2" stroke="black"></line><line x1="756" y1="247" x2="756" y2="253" stroke-width="2" stroke="black"></line><line x1="756" y1="280" x2="761" y2="280" stroke-width="2" stroke="black"></line><line x1="741" y1="280" x2="746" y2="277" stroke-width="2" stroke="black"></line><line x1="741" y1="280" x2="746" y2="283" stroke-width="2" stroke="black"></line><line x1="746" y1="277" x2="756" y2="277" stroke-width="2" stroke="black"></line><line x1="746" y1="283" x2="756" y2="283" stroke-width="2" stroke="black"></line><line x1="756" y1="277" x2="756" y2="283" stroke-width="2" stroke="black"></line><line x1="361" y1="260" x2="356" y2="257" stroke-width="2" stroke="black"></line><line x1="356" y1="257" x2="366" y2="252" stroke-width="2" stroke="black"></line><line x1="366" y1="252" x2="356" y2="247" stroke-width="2" stroke="black"></line><line x1="356" y1="247" x2="366" y2="242" stroke-width="2" stroke="black"></line><line x1="366" y1="242" x2="356" y2="237" stroke-width="2" stroke="black"></line><line x1="356" y1="237" x2="366" y2="232" stroke-width="2" stroke="black"></line><line x1="366" y1="232" x2="361" y2="230" stroke-width="2" stroke="black"></line><line x1="361" y1="270" x2="361" y2="260" stroke-width="2" stroke="black"></line><line x1="361" y1="230" x2="361" y2="220" stroke-width="2" stroke="black"></line><line x1="446" y1="360" x2="441" y2="360" stroke-width="2" stroke="black"></line><line x1="461" y1="360" x2="456" y2="363" stroke-width="2" stroke="black"></line><line x1="461" y1="360" x2="456" y2="357" stroke-width="2" stroke="black"></line><line x1="456" y1="363" x2="446" y2="363" stroke-width="2" stroke="black"></line><line x1="456" y1="357" x2="446" y2="357" stroke-width="2" stroke="black"></line><line x1="446" y1="363" x2="446" y2="357" stroke-width="2" stroke="black"></line><line x1="501" y1="360" x2="501" y2="340" stroke-width="2" stroke="black"></line><line x1="501" y1="340" x2="494" y2="347" stroke-width="2" stroke="black"></line><line x1="501" y1="340" x2="508" y2="347" stroke-width="2" stroke="black"></line><line x1="361" y1="200" x2="361" y2="180" stroke-width="2" stroke="black"></line><line x1="361" y1="180" x2="354" y2="187" stroke-width="2" stroke="black"></line><line x1="361" y1="180" x2="368" y2="187" stroke-width="2" stroke="black"></line><line x1="221" y1="100" x2="216" y2="97" stroke-width="2" stroke="black"></line><line x1="216" y1="97" x2="226" y2="92" stroke-width="2" stroke="black"></line><line x1="226" y1="92" x2="216" y2="87" stroke-width="2" stroke="black"></line><line x1="216" y1="87" x2="226" y2="82" stroke-width="2" stroke="black"></line><line x1="226" y1="82" x2="216" y2="77" stroke-width="2" stroke="black"></line><line x1="216" y1="77" x2="226" y2="72" stroke-width="2" stroke="black"></line><line x1="226" y1="72" x2="221" y2="70" stroke-width="2" stroke="black"></line><line x1="221" y1="110" x2="221" y2="100" stroke-width="2" stroke="black"></line><line x1="221" y1="70" x2="221" y2="60" stroke-width="2" stroke="black"></line><line x1="756" y1="240" x2="761" y2="240" stroke-width="2" stroke="black"></line><line x1="741" y1="240" x2="746" y2="237" stroke-width="2" stroke="black"></line><line x1="741" y1="240" x2="746" y2="243" stroke-width="2" stroke="black"></line><line x1="746" y1="237" x2="756" y2="237" stroke-width="2" stroke="black"></line><line x1="746" y1="243" x2="756" y2="243" stroke-width="2" stroke="black"></line><line x1="756" y1="237" x2="756" y2="243" stroke-width="2" stroke="black"></line><line x1="756" y1="260" x2="761" y2="260" stroke-width="2" stroke="black"></line><line x1="741" y1="260" x2="746" y2="257" stroke-width="2" stroke="black"></line><line x1="741" y1="260" x2="746" y2="263" stroke-width="2" stroke="black"></line><line x1="746" y1="257" x2="756" y2="257" stroke-width="2" stroke="black"></line><line x1="746" y1="263" x2="756" y2="263" stroke-width="2" stroke="black"></line><line x1="756" y1="257" x2="756" y2="263" stroke-width="2" stroke="black"></line><line x1="501" y1="420" x2="496" y2="417" stroke-width="2" stroke="black"></line><line x1="496" y1="417" x2="506" y2="412" stroke-width="2" stroke="black"></line><line x1="506" y1="412" x2="496" y2="407" stroke-width="2" stroke="black"></line><line x1="496" y1="407" x2="506" y2="402" stroke-width="2" stroke="black"></line><line x1="506" y1="402" x2="496" y2="397" stroke-width="2" stroke="black"></line><line x1="496" y1="397" x2="506" y2="392" stroke-width="2" stroke="black"></line><line x1="506" y1="392" x2="501" y2="390" stroke-width="2" stroke="black"></line><line x1="501" y1="430" x2="501" y2="420" stroke-width="2" stroke="black"></line><line x1="501" y1="390" x2="501" y2="380" stroke-width="2" stroke="black"></line><rect width="30" height="100" x="806" y="215" style="stroke: #000; stroke-width: 1; fill: none;"></rect><line x1="801" y1="230" x2="806" y2="230" stroke-width="2" stroke="black"></line><text x="810" y="234" font-size="10" font-family="sans serif" text-anchor="start" alignment-baseline="hanging">Pin 1</text><line x1="801" y1="240" x2="806" y2="240" stroke-width="2" stroke="black"></line><text x="810" y="244" font-size="10" font-family="sans serif" text-anchor="start" alignment-baseline="hanging">Pin 2</text><line x1="801" y1="250" x2="806" y2="250" stroke-width="2" stroke="black"></line><text x="810" y="254" font-size="10" font-family="sans serif" text-anchor="start" alignment-baseline="hanging">Pin 3</text><line x1="801" y1="260" x2="806" y2="260" stroke-width="2" stroke="black"></line><text x="810" y="264" font-size="10" font-family="sans serif" text-anchor="start" alignment-baseline="hanging">Pin 4</text><line x1="801" y1="270" x2="806" y2="270" stroke-width="2" stroke="black"></line><text x="810" y="274" font-size="10" font-family="sans serif" text-anchor="start" alignment-baseline="hanging">Pin 5</text><line x1="801" y1="280" x2="806" y2="280" stroke-width="2" stroke="black"></line><text x="810" y="284" font-size="10" font-family="sans serif" text-anchor="start" alignment-baseline="hanging">Pin 6</text><line x1="801" y1="290" x2="806" y2="290" stroke-width="2" stroke="black"></line><text x="810" y="294" font-size="10" font-family="sans serif" text-anchor="start" alignment-baseline="hanging">Pin 7</text><line x1="801" y1="300" x2="806" y2="300" stroke-width="2" stroke="black"></line><text x="810" y="304" font-size="10" font-family="sans serif" text-anchor="start" alignment-baseline="hanging">Pin 8</text><line x1="431" y1="340" x2="426" y2="337" stroke-width="2" stroke="black"></line><line x1="426" y1="337" x2="436" y2="332" stroke-width="2" stroke="black"></line><line x1="436" y1="332" x2="426" y2="327" stroke-width="2" stroke="black"></line><line x1="426" y1="327" x2="436" y2="322" stroke-width="2" stroke="black"></line><line x1="436" y1="322" x2="426" y2="317" stroke-width="2" stroke="black"></line><line x1="426" y1="317" x2="436" y2="312" stroke-width="2" stroke="black"></line><line x1="436" y1="312" x2="431" y2="310" stroke-width="2" stroke="black"></line><line x1="431" y1="350" x2="431" y2="340" stroke-width="2" stroke="black"></line><line x1="431" y1="310" x2="431" y2="300" stroke-width="2" stroke="black"></line><line x1="756" y1="270" x2="761" y2="270" stroke-width="2" stroke="black"></line><line x1="741" y1="270" x2="746" y2="267" stroke-width="2" stroke="black"></line><line x1="741" y1="270" x2="746" y2="273" stroke-width="2" stroke="black"></line><line x1="746" y1="267" x2="756" y2="267" stroke-width="2" stroke="black"></line><line x1="746" y1="273" x2="756" y2="273" stroke-width="2" stroke="black"></line><line x1="756" y1="267" x2="756" y2="273" stroke-width="2" stroke="black"></line><line x1="291" y1="180" x2="286" y2="177" stroke-width="2" stroke="black"></line><line x1="286" y1="177" x2="296" y2="172" stroke-width="2" stroke="black"></line><line x1="296" y1="172" x2="286" y2="167" stroke-width="2" stroke="black"></line><line x1="286" y1="167" x2="296" y2="162" stroke-width="2" stroke="black"></line><line x1="296" y1="162" x2="286" y2="157" stroke-width="2" stroke="black"></line><line x1="286" y1="157" x2="296" y2="152" stroke-width="2" stroke="black"></line><line x1="296" y1="152" x2="291" y2="150" stroke-width="2" stroke="black"></line><line x1="291" y1="190" x2="291" y2="180" stroke-width="2" stroke="black"></line><line x1="291" y1="150" x2="291" y2="140" stroke-width="2" stroke="black"></line><rect width="30" height="20" x="101" y="430" style="stroke: #000; stroke-width: 1; fill: none;"></rect><line x1="91" y1="440" x2="101" y2="440" stroke-width="2" stroke="black"></line><text x="103" y="440" font-size="10" font-family="sans-serif" text-anchor="start" alignment-baseline="middle">1</text><line x1="141" y1="440" x2="131" y2="440" stroke-width="2" stroke="black"></line><text x="129" y="440" font-size="10" font-family="sans-serif" text-anchor="end" alignment-baseline="middle">2</text><line x1="291" y1="120" x2="291" y2="100" stroke-width="2" stroke="black"></line><line x1="291" y1="100" x2="284" y2="107" stroke-width="2" stroke="black"></line><line x1="291" y1="100" x2="298" y2="107" stroke-width="2" stroke="black"></line><rect width="30" height="20" x="101" y="190" style="stroke: #000; stroke-width: 1; fill: none;"></rect><line x1="91" y1="200" x2="101" y2="200" stroke-width="2" stroke="black"></line><text x="103" y="200" font-size="10" font-family="sans-serif" text-anchor="start" alignment-baseline="middle">1</text><line x1="141" y1="200" x2="131" y2="200" stroke-width="2" stroke="black"></line><text x="129" y="200" font-size="10" font-family="sans-serif" text-anchor="end" alignment-baseline="middle">2</text><line x1="756" y1="290" x2="761" y2="290" stroke-width="2" stroke="black"></line><line x1="741" y1="290" x2="746" y2="287" stroke-width="2" stroke="black"></line><line x1="741" y1="290" x2="746" y2="293" stroke-width="2" stroke="black"></line><line x1="746" y1="287" x2="756" y2="287" stroke-width="2" stroke="black"></line><line x1="746" y1="293" x2="756" y2="293" stroke-width="2" stroke="black"></line><line x1="756" y1="287" x2="756" y2="293" stroke-width="2" stroke="black"></line><line x1="376" y1="280" x2="371" y2="280" stroke-width="2" stroke="black"></line><line x1="391" y1="280" x2="386" y2="283" stroke-width="2" stroke="black"></line><line x1="391" y1="280" x2="386" y2="277" stroke-width="2" stroke="black"></line><line x1="386" y1="283" x2="376" y2="283" stroke-width="2" stroke="black"></line><line x1="386" y1="277" x2="376" y2="277" stroke-width="2" stroke="black"></line><line x1="376" y1="283" x2="376" y2="277" stroke-width="2" stroke="black"></line><line x1="571" y1="440" x2="571" y2="420" stroke-width="2" stroke="black"></line><line x1="571" y1="420" x2="564" y2="427" stroke-width="2" stroke="black"></line><line x1="571" y1="420" x2="578" y2="427" stroke-width="2" stroke="black"></line><rect width="30" height="20" x="101" y="110" style="stroke: #000; stroke-width: 1; fill: none;"></rect><line x1="91" y1="120" x2="101" y2="120" stroke-width="2" stroke="black"></line><text x="103" y="120" font-size="10" font-family="sans-serif" text-anchor="start" alignment-baseline="middle">1</text><line x1="141" y1="120" x2="131" y2="120" stroke-width="2" stroke="black"></line><text x="129" y="120" font-size="10" font-family="sans-serif" text-anchor="end" alignment-baseline="middle">2</text><line x1="236" y1="120" x2="231" y2="120" stroke-width="2" stroke="black"></line><line x1="251" y1="120" x2="246" y2="123" stroke-width="2" stroke="black"></line><line x1="251" y1="120" x2="246" y2="117" stroke-width="2" stroke="black"></line><line x1="246" y1="123" x2="236" y2="123" stroke-width="2" stroke="black"></line><line x1="246" y1="117" x2="236" y2="117" stroke-width="2" stroke="black"></line><line x1="236" y1="123" x2="236" y2="117" stroke-width="2" stroke="black"></line><line x1="221" y1="40" x2="221" y2="20" stroke-width="2" stroke="black"></line><line x1="221" y1="20" x2="214" y2="27" stroke-width="2" stroke="black"></line><line x1="221" y1="20" x2="228" y2="27" stroke-width="2" stroke="black"></line><line x1="306" y1="200" x2="301" y2="200" stroke-width="2" stroke="black"></line><line x1="321" y1="200" x2="316" y2="203" stroke-width="2" stroke="black"></line><line x1="321" y1="200" x2="316" y2="197" stroke-width="2" stroke="black"></line><line x1="316" y1="203" x2="306" y2="203" stroke-width="2" stroke="black"></line><line x1="316" y1="197" x2="306" y2="197" stroke-width="2" stroke="black"></line><line x1="306" y1="203" x2="306" y2="197" stroke-width="2" stroke="black"></line><line x1="516" y1="440" x2="511" y2="440" stroke-width="2" stroke="black"></line><line x1="531" y1="440" x2="526" y2="443" stroke-width="2" stroke="black"></line><line x1="531" y1="440" x2="526" y2="437" stroke-width="2" stroke="black"></line><line x1="526" y1="443" x2="516" y2="443" stroke-width="2" stroke="black"></line><line x1="526" y1="437" x2="516" y2="437" stroke-width="2" stroke="black"></line><line x1="516" y1="443" x2="516" y2="437" stroke-width="2" stroke="black"></line><line x1="431" y1="280" x2="431" y2="260" stroke-width="2" stroke="black"></line><line x1="431" y1="260" x2="424" y2="267" stroke-width="2" stroke="black"></line><line x1="431" y1="260" x2="438" y2="267" stroke-width="2" stroke="black"></line><line x1="586" y1="520" x2="581" y2="520" stroke-width="2" stroke="black"></line><line x1="601" y1="520" x2="596" y2="523" stroke-width="2" stroke="black"></line><line x1="601" y1="520" x2="596" y2="517" stroke-width="2" stroke="black"></line><line x1="596" y1="523" x2="586" y2="523" stroke-width="2" stroke="black"></line><line x1="596" y1="517" x2="586" y2="517" stroke-width="2" stroke="black"></line><line x1="586" y1="523" x2="586" y2="517" stroke-width="2" stroke="black"></line><line x1="771" y1="200" x2="771" y2="180" stroke-width="2" stroke="black"></line><line x1="771" y1="180" x2="764" y2="187" stroke-width="2" stroke="black"></line><line x1="771" y1="180" x2="778" y2="187" stroke-width="2" stroke="black"></line><rect width="30" height="20" x="101" y="270" style="stroke: #000; stroke-width: 1; fill: none;"></rect><line x1="91" y1="280" x2="101" y2="280" stroke-width="2" stroke="black"></line><text x="103" y="280" font-size="10" font-family="sans-serif" text-anchor="start" alignment-baseline="middle">1</text><line x1="141" y1="280" x2="131" y2="280" stroke-width="2" stroke="black"></line><text x="129" y="280" font-size="10" font-family="sans-serif" text-anchor="end" alignment-baseline="middle">2</text><rect width="30" height="20" x="101" y="510" style="stroke: #000; stroke-width: 1; fill: none;"></rect><line x1="91" y1="520" x2="101" y2="520" stroke-width="2" stroke="black"></line><text x="103" y="520" font-size="10" font-family="sans-serif" text-anchor="start" alignment-baseline="middle">1</text><line x1="141" y1="520" x2="131" y2="520" stroke-width="2" stroke="black"></line><text x="129" y="520" font-size="10" font-family="sans-serif" text-anchor="end" alignment-baseline="middle">2</text><line x1="21" y1="580" x2="21" y2="590" stroke-width="2" stroke="black"></line><line x1="11" y1="590" x2="31" y2="590" stroke-width="2" stroke="black"></line><line x1="14" y1="595" x2="28" y2="595" stroke-width="2" stroke="black"></line><line x1="17" y1="600" x2="25" y2="600" stroke-width="2" stroke="black"></line><line x1="771" y1="330" x2="771" y2="340" stroke-width="2" stroke="black"></line><line x1="761" y1="340" x2="781" y2="340" stroke-width="2" stroke="black"></line><line x1="764" y1="345" x2="778" y2="345" stroke-width="2" stroke="black"></line><line x1="767" y1="350" x2="775" y2="350" stroke-width="2" stroke="black"></line><circle cx="361" cy="280" r="2" style="stroke: #000; stroke-width: 1; fill: none;"></circle><circle cx="21" cy="360" r="2" style="stroke: #000; stroke-width: 1; fill: none;"></circle><circle cx="291" cy="200" r="2" style="stroke: #000; stroke-width: 1; fill: none;"></circle><circle cx="571" cy="520" r="2" style="stroke: #000; stroke-width: 1; fill: none;"></circle><circle cx="431" cy="360" r="2" style="stroke: #000; stroke-width: 1; fill: none;"></circle><circle cx="21" cy="440" r="2" style="stroke: #000; stroke-width: 1; fill: none;"></circle><circle cx="21" cy="200" r="2" style="stroke: #000; stroke-width: 1; fill: none;"></circle><circle cx="21" cy="280" r="2" style="stroke: #000; stroke-width: 1; fill: none;"></circle><circle cx="501" cy="440" r="2" style="stroke: #000; stroke-width: 1; fill: none;"></circle><circle cx="21" cy="520" r="2" style="stroke: #000; stroke-width: 1; fill: none;"></circle><circle cx="221" cy="120" r="2" style="stroke: #000; stroke-width: 1; fill: none;"></circle><line x1="781" y1="290" x2="761" y2="290" stroke-width="2" stroke="black"></line><line x1="91" y1="120" x2="21" y2="120" stroke-width="2" stroke="black"></line><line x1="801" y1="300" x2="771" y2="300" stroke-width="2" stroke="black"></line><line x1="801" y1="250" x2="781" y2="250" stroke-width="2" stroke="black"></line><line x1="771" y1="230" x2="771" y2="200" stroke-width="2" stroke="black"></line><line x1="141" y1="280" x2="361" y2="280" stroke-width="2" stroke="black"></line><line x1="91" y1="360" x2="21" y2="360" stroke-width="2" stroke="black"></line><line x1="771" y1="330" x2="771" y2="300" stroke-width="2" stroke="black"></line><line x1="801" y1="260" x2="781" y2="260" stroke-width="2" stroke="black"></line><line x1="801" y1="280" x2="781" y2="280" stroke-width="2" stroke="black"></line><line x1="301" y1="200" x2="291" y2="200" stroke-width="2" stroke="black"></line><line x1="571" y1="520" x2="581" y2="520" stroke-width="2" stroke="black"></line><line x1="431" y1="360" x2="441" y2="360" stroke-width="2" stroke="black"></line><line x1="21" y1="440" x2="21" y2="360" stroke-width="2" stroke="black"></line><line x1="431" y1="350" x2="431" y2="360" stroke-width="2" stroke="black"></line><line x1="91" y1="440" x2="21" y2="440" stroke-width="2" stroke="black"></line><line x1="371" y1="280" x2="361" y2="280" stroke-width="2" stroke="black"></line><line x1="291" y1="190" x2="291" y2="200" stroke-width="2" stroke="black"></line><line x1="141" y1="520" x2="571" y2="520" stroke-width="2" stroke="black"></line><line x1="761" y1="280" x2="781" y2="280" stroke-width="2" stroke="black"></line><line x1="21" y1="200" x2="21" y2="120" stroke-width="2" stroke="black"></line><line x1="21" y1="280" x2="91" y2="280" stroke-width="2" stroke="black"></line><line x1="21" y1="280" x2="21" y2="360" stroke-width="2" stroke="black"></line><line x1="21" y1="280" x2="21" y2="200" stroke-width="2" stroke="black"></line><line x1="501" y1="440" x2="511" y2="440" stroke-width="2" stroke="black"></line><line x1="801" y1="230" x2="771" y2="230" stroke-width="2" stroke="black"></line><line x1="501" y1="430" x2="501" y2="440" stroke-width="2" stroke="black"></line><line x1="291" y1="120" x2="291" y2="140" stroke-width="2" stroke="black"></line><line x1="141" y1="200" x2="291" y2="200" stroke-width="2" stroke="black"></line><line x1="761" y1="250" x2="781" y2="250" stroke-width="2" stroke="black"></line><line x1="761" y1="260" x2="781" y2="260" stroke-width="2" stroke="black"></line><line x1="91" y1="200" x2="21" y2="200" stroke-width="2" stroke="black"></line><line x1="781" y1="240" x2="761" y2="240" stroke-width="2" stroke="black"></line><line x1="781" y1="240" x2="801" y2="240" stroke-width="2" stroke="black"></line><line x1="501" y1="360" x2="501" y2="380" stroke-width="2" stroke="black"></line><line x1="141" y1="440" x2="501" y2="440" stroke-width="2" stroke="black"></line><line x1="431" y1="280" x2="431" y2="300" stroke-width="2" stroke="black"></line><line x1="221" y1="40" x2="221" y2="60" stroke-width="2" stroke="black"></line><line x1="21" y1="520" x2="91" y2="520" stroke-width="2" stroke="black"></line><line x1="21" y1="520" x2="21" y2="440" stroke-width="2" stroke="black"></line><line x1="21" y1="520" x2="21" y2="580" stroke-width="2" stroke="black"></line><line x1="571" y1="510" x2="571" y2="520" stroke-width="2" stroke="black"></line><line x1="801" y1="290" x2="781" y2="290" stroke-width="2" stroke="black"></line><line x1="361" y1="270" x2="361" y2="280" stroke-width="2" stroke="black"></line><line x1="141" y1="360" x2="431" y2="360" stroke-width="2" stroke="black"></line><line x1="781" y1="270" x2="761" y2="270" stroke-width="2" stroke="black"></line><line x1="781" y1="270" x2="801" y2="270" stroke-width="2" stroke="black"></line><line x1="571" y1="460" x2="571" y2="440" stroke-width="2" stroke="black"></line><line x1="361" y1="220" x2="361" y2="200" stroke-width="2" stroke="black"></line><line x1="221" y1="120" x2="231" y2="120" stroke-width="2" stroke="black"></line><line x1="221" y1="120" x2="221" y2="110" stroke-width="2" stroke="black"></line><line x1="221" y1="120" x2="141" y2="120" stroke-width="2" stroke="black"></line></svg>