<?xml version="1.0" encoding="utf-8" ?>
<svg baseProfile="tiny" height="55.849604934" version="1.2" width="101.912595934" xmlns="http://www.w3.org/2000/svg" xmlns:ev="http://www.w3.org/2001/xml-events" xmlns:xlink="http://www.w3.org/1999/xlink"><defs /><g id="paths" stroke="green"><path d="M 4.893306967,50.956297967 L 97.019288967,50.956297967 L 97.019288967,4.893306967 L 4.893306967,4.893306967 L 4.893306967,50.956297967 Z" fill-opacity="0" stroke-linejoin="round" stroke-width="1.0" /></g><g fill="red" id="top_parts" stroke="red"><line stroke-linecap="round" stroke-width="0.5" x1="70.2836" x2="70.2836" y1="43.3736" y2="8.9327" /><line stroke-linecap="round" stroke-width="0.5" x1="70.2836" x2="81.2353" y1="8.9327" y2="8.9327" /><line stroke-linecap="round" stroke-width="0.5" x1="81.2353" x2="81.2353" y1="8.9327" y2="43.3736" /><line stroke-linecap="round" stroke-width="0.5" x1="81.2353" x2="70.2836" y1="43.3736" y2="43.3736" /><text font-family="monospace" font-size="2" stroke-width="0.1" text-anchor="middle" x="75.759446967" y="26.153148967">R2</text><line stroke-linecap="round" stroke-width="0.5" x1="28.8106" x2="28.8106" y1="29.6598" y2="40.3631" /><line stroke-linecap="round" stroke-width="0.5" x1="28.8106" x2="23.4957" y1="40.3631" y2="40.3631" /><line stroke-linecap="round" stroke-width="0.5" x1="23.4957" x2="23.4957" y1="40.3631" y2="29.6598" /><line stroke-linecap="round" stroke-width="0.5" x1="23.4957" x2="28.8106" y1="29.6598" y2="29.6598" /><text font-family="monospace" font-size="2" stroke-width="0.1" text-anchor="middle" x="26.153148967" y="35.011416467">R4</text><line stroke-linecap="round" stroke-width="0.5" x1="95.4085" x2="95.4085" y1="8.9327" y2="43.3736" /><line stroke-linecap="round" stroke-width="0.5" x1="95.4085" x2="84.4568" y1="43.3736" y2="43.3736" /><line stroke-linecap="round" stroke-width="0.5" x1="84.4568" x2="84.4568" y1="43.3736" y2="8.9327" /><line stroke-linecap="round" stroke-width="0.5" x1="84.4568" x2="95.4085" y1="8.9327" y2="8.9327" /><text font-family="monospace" font-size="2" stroke-width="0.1" text-anchor="middle" x="89.932674967" y="26.153148967">C2</text><line stroke-linecap="round" stroke-width="0.5" x1="24.1157" x2="49.4504" y1="7.5508" y2="7.5508" /><line stroke-linecap="round" stroke-width="0.5" x1="49.4504" x2="49.4504" y1="7.5508" y2="27.039" /><line stroke-linecap="round" stroke-width="0.5" x1="49.4504" x2="24.1157" y1="27.039" y2="27.039" /><line stroke-linecap="round" stroke-width="0.5" x1="24.1157" x2="24.1157" y1="27.039" y2="7.5508" /><text font-family="monospace" font-size="2" stroke-width="0.1" text-anchor="middle" x="36.783069967" y="17.294881467">U1</text><line stroke-linecap="round" stroke-width="0.5" x1="67.062" x2="67.062" y1="8.9327" y2="43.3736" /><line stroke-linecap="round" stroke-width="0.5" x1="67.062" x2="56.1104" y1="43.3736" y2="43.3736" /><line stroke-linecap="round" stroke-width="0.5" x1="56.1104" x2="56.1104" y1="43.3736" y2="8.9327" /><line stroke-linecap="round" stroke-width="0.5" x1="56.1104" x2="67.062" y1="8.9327" y2="8.9327" /><text font-family="monospace" font-size="2" stroke-width="0.1" text-anchor="middle" x="61.586218967" y="26.153148967">R1</text><line stroke-linecap="round" stroke-width="0.5" x1="20.0232" x2="7.4799" y1="43.1965" y2="43.1965" /><line stroke-linecap="round" stroke-width="0.5" x1="7.4799" x2="7.4799" y1="43.1965" y2="12.6531" /><line stroke-linecap="round" stroke-width="0.5" x1="7.4799" x2="20.0232" y1="12.6531" y2="12.6531" /><line stroke-linecap="round" stroke-width="0.5" x1="20.0232" x2="20.0232" y1="12.6531" y2="43.1965" /><text font-family="monospace" font-size="2" stroke-width="0.1" text-anchor="middle" x="13.751574467" y="27.924802467">J1</text><line stroke-linecap="round" stroke-width="0.5" x1="50.0705" x2="50.0705" y1="29.6598" y2="40.3631" /><line stroke-linecap="round" stroke-width="0.5" x1="50.0705" x2="44.7555" y1="40.3631" y2="40.3631" /><line stroke-linecap="round" stroke-width="0.5" x1="44.7555" x2="44.7555" y1="40.3631" y2="29.6598" /><line stroke-linecap="round" stroke-width="0.5" x1="44.7555" x2="50.0705" y1="29.6598" y2="29.6598" /><text font-family="monospace" font-size="2" stroke-width="0.1" text-anchor="middle" x="47.412990967" y="35.011416467">C1</text><line stroke-linecap="round" stroke-width="0.5" x1="39.4406" x2="39.4406" y1="29.6598" y2="40.3631" /><line stroke-linecap="round" stroke-width="0.5" x1="39.4406" x2="34.1256" y1="40.3631" y2="40.3631" /><line stroke-linecap="round" stroke-width="0.5" x1="34.1256" x2="34.1256" y1="40.3631" y2="29.6598" /><line stroke-linecap="round" stroke-width="0.5" x1="34.1256" x2="39.4406" y1="29.6598" y2="29.6598" /><text font-family="monospace" font-size="2" stroke-width="0.1" text-anchor="middle" x="36.783069967" y="35.011416467">D1</text></g><g fill="blue" id="bottom_parts" stroke="blue" /></svg>