<?xml version="1.0" encoding="utf-8" ?>
<svg baseProfile="tiny" height="55.849604934" version="1.2" width="101.912595934" xmlns="http://www.w3.org/2000/svg" xmlns:ev="http://www.w3.org/2001/xml-events" xmlns:xlink="http://www.w3.org/1999/xlink"><defs /><g id="paths" stroke="blue"><path d="M 4.893306967,50.956297967 L 97.019288967,50.956297967 L 97.019288967,4.893306967 L 4.893306967,4.893306967 L 4.893306967,50.956297967 Z" fill-opacity="0" stroke-linejoin="round" stroke-width="1.0" /></g><g fill="red" id="holes"><circle cx="36.7831" cy="22.6098" r="0.585" stroke-width="0.0" /><circle cx="38.5547" cy="13.7516" r="0.585" stroke-width="0.0" /><circle cx="42.098" cy="35.0114" r="0.585" stroke-width="0.0" /><circle cx="68.6728" cy="43.8697" r="0.585" stroke-width="0.0" /><circle cx="53.4367" cy="15.0449" r="0.585" stroke-width="0.0" /><circle cx="31.4681" cy="35.0114" r="0.585" stroke-width="0.0" /><circle cx="68.6728" cy="8.4366" r="0.585" stroke-width="0.0" /><circle cx="82.8461" cy="8.4366" r="0.585" stroke-width="0.0" /><circle cx="82.8461" cy="43.8697" r="0.585" stroke-width="0.0" /><circle cx="75.7594" cy="39.6531" r="1.8602" stroke-width="0.0" /><circle cx="75.7594" cy="12.6531" r="1.8602" stroke-width="0.0" /><circle cx="89.9327" cy="12.6531" r="1.8602" stroke-width="0.0" /><circle cx="89.9327" cy="39.6531" r="1.8602" stroke-width="0.0" /><circle cx="61.5862" cy="12.6531" r="1.8602" stroke-width="0.0" /><circle cx="61.5862" cy="39.6531" r="1.8602" stroke-width="0.0" /><circle cx="13.7516" cy="36.9248" r="1.9488" stroke-width="0.0" /><circle cx="13.7516" cy="27.9248" r="1.9488" stroke-width="0.0" /><circle cx="13.7516" cy="18.9248" r="1.9488" stroke-width="0.0" /></g><g id="rulers" stroke="black" /></svg>