<?xml version="1.0" encoding="utf-8" ?>
<svg baseProfile="tiny" height="73.314565467" version="1.2" width="128.4645655" xmlns="http://www.w3.org/2000/svg" xmlns:ev="http://www.w3.org/2001/xml-events" xmlns:xlink="http://www.w3.org/1999/xlink"><defs /><g id="paths" stroke="blue"><path d="M 12.4015745,50.956297967 L 104.5275565,50.956297967 L 104.5275565,4.893306967 L 12.4015745,4.893306967 L 12.4015745,50.956297967 Z" fill-opacity="0" stroke-linejoin="round" stroke-width="1.0" /></g><g fill="red" id="holes"><circle cx="44.2913" cy="22.6098" r="0.585" stroke-width="0.0" /><circle cx="46.063" cy="13.7516" r="0.585" stroke-width="0.0" /><circle cx="49.6063" cy="35.0114" r="0.585" stroke-width="0.0" /><circle cx="76.1811" cy="43.8697" r="0.585" stroke-width="0.0" /><circle cx="60.9449" cy="15.0449" r="0.585" stroke-width="0.0" /><circle cx="38.9764" cy="35.0114" r="0.585" stroke-width="0.0" /><circle cx="76.1811" cy="8.4366" r="0.585" stroke-width="0.0" /><circle cx="90.3543" cy="8.4366" r="0.585" stroke-width="0.0" /><circle cx="90.3543" cy="43.8697" r="0.585" stroke-width="0.0" /><circle cx="83.2677" cy="39.6531" r="1.8602" stroke-width="0.0" /><circle cx="83.2677" cy="12.6531" r="1.8602" stroke-width="0.0" /><circle cx="97.4409" cy="12.6531" r="1.8602" stroke-width="0.0" /><circle cx="97.4409" cy="39.6531" r="1.8602" stroke-width="0.0" /><circle cx="69.0945" cy="12.6531" r="1.8602" stroke-width="0.0" /><circle cx="69.0945" cy="39.6531" r="1.8602" stroke-width="0.0" /><circle cx="21.2598" cy="36.9248" r="1.9488" stroke-width="0.0" /><circle cx="21.2598" cy="27.9248" r="1.9488" stroke-width="0.0" /><circle cx="21.2598" cy="18.9248" r="1.9488" stroke-width="0.0" /></g><g id="rulers" stroke="black"><line stroke-width="1.0" x1="3.5433" x2="3.5433" y1="4.8933" y2="50.9563" /><text font-family="monospace" font-size="5" stroke-width="0.3" x="8.543307" y="27.924802467">13.0000mm</text><text font-family="monospace" font-size="5" stroke-width="0.3" x="8.543307" y="33.924802467">(Δy=13.0000mm)</text><line stroke-width="1.0" x1="12.4016" x2="104.5276" y1="59.8146" y2="59.8146" /><text font-family="monospace" font-size="5" stroke-width="0.3" x="58.4645655" y="64.814565467">26.0000mm</text><text font-family="monospace" font-size="5" stroke-width="0.3" x="58.4645655" y="70.814565467">(Δx=26.0000mm)</text></g></svg>