<?xml version='1.0' encoding='UTF-8' standalone='no'?>
<svg xmlns="http://www.w3.org/2000/svg" width="895" height="301" x="0" y="0"><text x="625" y="105" font-size="10" font-family="sans-serif" text-anchor="middle" alignment-baseline="middle">disch</text><text x="495" y="285" font-size="10" font-family="sans-serif" text-anchor="middle" alignment-baseline="middle">thres / trigger</text><text x="158" y="149" font-size="10" font-family="sans-serif" text-anchor="end" alignment-baseline="hanging">300</text><text x="120" y="250" font-size="10" font-family="sans-serif" text-anchor="start" alignment-baseline="hanging">GND</text><text x="264" y="140" font-size="10" font-family="sans-serif" text-anchor="start" alignment-baseline="hanging">10nF</text><text x="163" y="197" font-size="10" font-family="sans-serif" text-anchor="start" alignment-baseline="hanging">LED</text><text x="684" y="210" font-size="10" font-family="sans-serif" text-anchor="start" alignment-baseline="hanging">47uF</text><text x="264" y="119" font-size="10" font-family="sans-serif" text-anchor="start" alignment-baseline="hanging">C1</text><text x="660" y="250" font-size="10" font-family="sans-serif" text-anchor="start" alignment-baseline="hanging">GND</text><text x="163" y="187" font-size="10" font-family="sans-serif" text-anchor="start" alignment-baseline="hanging">D1</text><text x="684" y="200" font-size="10" font-family="sans-serif" text-anchor="start" alignment-baseline="hanging">10v</text><text x="70" y="10" font-size="10" font-family="sans-serif" text-anchor="start" alignment-baseline="hanging">VCC</text><text x="264" y="130" font-size="10" font-family="sans-serif" text-anchor="start" alignment-baseline="hanging">10v</text><text x="698" y="143" font-size="10" font-family="sans-serif" text-anchor="end" alignment-baseline="hanging">R2</text><text x="720" y="115" font-size="10" font-family="sans-serif" text-anchor="start" alignment-baseline="hanging">Values of R1, R2 and C2 are
intended to be changed to change
the oscillation frequency</text><text x="699" y="73" font-size="10" font-family="sans-serif" text-anchor="end" alignment-baseline="hanging">R1</text><text x="290" y="250" font-size="10" font-family="sans-serif" text-anchor="start" alignment-baseline="hanging">GND</text><text x="708" y="157" font-size="10" font-family="sans-serif" text-anchor="end" alignment-baseline="hanging">100K</text><text x="70" y="250" font-size="10" font-family="sans-serif" text-anchor="start" alignment-baseline="hanging">GND</text><text x="410" y="60" font-size="10" font-family="sans-serif" text-anchor="start" alignment-baseline="hanging">U1</text><text x="10" y="130" font-size="10" font-family="sans-serif" text-anchor="start" alignment-baseline="hanging">J1</text><text x="340" y="10" font-size="10" font-family="sans-serif" text-anchor="start" alignment-baseline="hanging">VCC</text><text x="159" y="133" font-size="10" font-family="sans-serif" text-anchor="end" alignment-baseline="hanging">R4</text><text x="410" y="170" font-size="10" font-family="sans-serif" text-anchor="start" alignment-baseline="hanging">SA555D</text><text x="698" y="89" font-size="10" font-family="sans-serif" text-anchor="end" alignment-baseline="hanging">10K</text><text x="535" y="80" font-size="10" font-family="sans-serif" text-anchor="start" alignment-baseline="middle">Output</text><text x="660" y="10" font-size="10" font-family="sans-serif" text-anchor="start" alignment-baseline="hanging">VCC</text><text x="684" y="189" font-size="10" font-family="sans-serif" text-anchor="start" alignment-baseline="hanging">C2</text><text x="205" y="100" font-size="10" font-family="sans-serif" text-anchor="start" alignment-baseline="middle">Output</text><text x="510" y="250" font-size="10" font-family="sans-serif" text-anchor="start" alignment-baseline="hanging">GND</text><line x1="670" y1="220" x2="670" y2="230" stroke-width="2" stroke="black"></line><line x1="660" y1="230" x2="680" y2="230" stroke-width="2" stroke="black"></line><line x1="663" y1="235" x2="677" y2="235" stroke-width="2" stroke="black"></line><line x1="666" y1="240" x2="674" y2="240" stroke-width="2" stroke="black"></line><line x1="670" y1="40" x2="670" y2="20" stroke-width="2" stroke="black"></line><line x1="670" y1="20" x2="663" y2="27" stroke-width="2" stroke="black"></line><line x1="670" y1="20" x2="677" y2="27" stroke-width="2" stroke="black"></line><rect width="80" height="90" x="410" y="70" style="stroke: #000; stroke-width: 1; fill: none;"></rect><line x1="400" y1="80" x2="410" y2="80" stroke-width="2" stroke="black"></line><text x="412" y="80" font-size="10" font-family="sans-serif" text-anchor="start" alignment-baseline="middle">VCC</text><line x1="400" y1="150" x2="410" y2="150" stroke-width="2" stroke="black"></line><text x="412" y="150" font-size="10" font-family="sans-serif" text-anchor="start" alignment-baseline="middle">!RESET</text><line x1="400" y1="100" x2="410" y2="100" stroke-width="2" stroke="black"></line><text x="412" y="100" font-size="10" font-family="sans-serif" text-anchor="start" alignment-baseline="middle">CONT</text><line x1="500" y1="110" x2="490" y2="110" stroke-width="2" stroke="black"></line><text x="488" y="110" font-size="10" font-family="sans-serif" text-anchor="end" alignment-baseline="middle">DISCH</text><line x1="500" y1="80" x2="490" y2="80" stroke-width="2" stroke="black"></line><text x="488" y="80" font-size="10" font-family="sans-serif" text-anchor="end" alignment-baseline="middle">OUT</text><line x1="400" y1="110" x2="410" y2="110" stroke-width="2" stroke="black"></line><text x="412" y="110" font-size="10" font-family="sans-serif" text-anchor="start" alignment-baseline="middle">THRES</text><line x1="400" y1="130" x2="410" y2="130" stroke-width="2" stroke="black"></line><text x="412" y="130" font-size="10" font-family="sans-serif" text-anchor="start" alignment-baseline="middle">TRIG</text><line x1="500" y1="150" x2="490" y2="150" stroke-width="2" stroke="black"></line><text x="488" y="150" font-size="10" font-family="sans-serif" text-anchor="end" alignment-baseline="middle">GND</text><line x1="80" y1="220" x2="80" y2="230" stroke-width="2" stroke="black"></line><line x1="70" y1="230" x2="90" y2="230" stroke-width="2" stroke="black"></line><line x1="73" y1="235" x2="87" y2="235" stroke-width="2" stroke="black"></line><line x1="76" y1="240" x2="84" y2="240" stroke-width="2" stroke="black"></line><line x1="680" y1="197" x2="660" y2="197" stroke-width="2" stroke="black"></line><line x1="680" y1="203" x2="660" y2="203" stroke-width="2" stroke="black"></line><line x1="670" y1="190" x2="670" y2="197" stroke-width="2" stroke="black"></line><line x1="670" y1="204" x2="670" y2="210" stroke-width="2" stroke="black"></line><line x1="520" y1="220" x2="520" y2="230" stroke-width="2" stroke="black"></line><line x1="510" y1="230" x2="530" y2="230" stroke-width="2" stroke="black"></line><line x1="513" y1="235" x2="527" y2="235" stroke-width="2" stroke="black"></line><line x1="516" y1="240" x2="524" y2="240" stroke-width="2" stroke="black"></line><line x1="130" y1="220" x2="130" y2="230" stroke-width="2" stroke="black"></line><line x1="120" y1="230" x2="140" y2="230" stroke-width="2" stroke="black"></line><line x1="123" y1="235" x2="137" y2="235" stroke-width="2" stroke="black"></line><line x1="126" y1="240" x2="134" y2="240" stroke-width="2" stroke="black"></line><line x1="515" y1="80" x2="510" y2="80" stroke-width="2" stroke="black"></line><line x1="530" y1="80" x2="525" y2="83" stroke-width="2" stroke="black"></line><line x1="530" y1="80" x2="525" y2="77" stroke-width="2" stroke="black"></line><line x1="525" y1="83" x2="515" y2="83" stroke-width="2" stroke="black"></line><line x1="525" y1="77" x2="515" y2="77" stroke-width="2" stroke="black"></line><line x1="515" y1="83" x2="515" y2="77" stroke-width="2" stroke="black"></line><line x1="80" y1="40" x2="80" y2="20" stroke-width="2" stroke="black"></line><line x1="80" y1="20" x2="73" y2="27" stroke-width="2" stroke="black"></line><line x1="80" y1="20" x2="87" y2="27" stroke-width="2" stroke="black"></line><line x1="300" y1="220" x2="300" y2="230" stroke-width="2" stroke="black"></line><line x1="290" y1="230" x2="310" y2="230" stroke-width="2" stroke="black"></line><line x1="293" y1="235" x2="307" y2="235" stroke-width="2" stroke="black"></line><line x1="296" y1="240" x2="304" y2="240" stroke-width="2" stroke="black"></line><rect width="20" height="40" x="0" y="120" transform="rotate(180 20,120)" style="stroke: #000; stroke-width: 1; fill: none;"></rect><line x1="50" y1="110" x2="40" y2="110" stroke-width="2" stroke="black"></line><text x="35" y="110" font-size="10" font-family="sans-serif" text-anchor="end" alignment-baseline="middle">1</text><line x1="50" y1="100" x2="40" y2="100" stroke-width="2" stroke="black"></line><text x="35" y="100" font-size="10" font-family="sans-serif" text-anchor="end" alignment-baseline="middle">2</text><line x1="50" y1="90" x2="40" y2="90" stroke-width="2" stroke="black"></line><text x="35" y="90" font-size="10" font-family="sans-serif" text-anchor="end" alignment-baseline="middle">3</text><line x1="130" y1="120" x2="135" y2="123" stroke-width="2" stroke="black"></line><line x1="135" y1="123" x2="125" y2="128" stroke-width="2" stroke="black"></line><line x1="125" y1="128" x2="135" y2="133" stroke-width="2" stroke="black"></line><line x1="135" y1="133" x2="125" y2="138" stroke-width="2" stroke="black"></line><line x1="125" y1="138" x2="135" y2="143" stroke-width="2" stroke="black"></line><line x1="135" y1="143" x2="125" y2="148" stroke-width="2" stroke="black"></line><line x1="125" y1="148" x2="130" y2="150" stroke-width="2" stroke="black"></line><line x1="130" y1="110" x2="130" y2="120" stroke-width="2" stroke="black"></line><line x1="130" y1="150" x2="130" y2="160" stroke-width="2" stroke="black"></line><line x1="310" y1="127" x2="290" y2="127" stroke-width="2" stroke="black"></line><line x1="310" y1="133" x2="290" y2="133" stroke-width="2" stroke="black"></line><line x1="300" y1="120" x2="300" y2="127" stroke-width="2" stroke="black"></line><line x1="300" y1="134" x2="300" y2="140" stroke-width="2" stroke="black"></line><line x1="185" y1="100" x2="180" y2="100" stroke-width="2" stroke="black"></line><line x1="200" y1="100" x2="195" y2="103" stroke-width="2" stroke="black"></line><line x1="200" y1="100" x2="195" y2="97" stroke-width="2" stroke="black"></line><line x1="195" y1="103" x2="185" y2="103" stroke-width="2" stroke="black"></line><line x1="195" y1="97" x2="185" y2="97" stroke-width="2" stroke="black"></line><line x1="185" y1="103" x2="185" y2="97" stroke-width="2" stroke="black"></line><line x1="140" y1="180" x2="120" y2="180" stroke-width="2" stroke="black"></line><line x1="140" y1="200" x2="120" y2="200" stroke-width="2" stroke="black"></line><line x1="140" y1="180" x2="130" y2="200" stroke-width="2" stroke="black"></line><line x1="120" y1="180" x2="130" y2="200" stroke-width="2" stroke="black"></line><line x1="142" y1="185" x2="152" y2="195" stroke-width="2" stroke="black"></line><line x1="152" y1="195" x2="152" y2="190" stroke-width="2" stroke="black"></line><line x1="152" y1="195" x2="147" y2="195" stroke-width="2" stroke="black"></line><line x1="138" y1="192" x2="148" y2="202" stroke-width="2" stroke="black"></line><line x1="148" y1="202" x2="148" y2="197" stroke-width="2" stroke="black"></line><line x1="148" y1="202" x2="143" y2="202" stroke-width="2" stroke="black"></line><line x1="130" y1="170" x2="130" y2="180" stroke-width="2" stroke="black"></line><line x1="130" y1="200" x2="130" y2="210" stroke-width="2" stroke="black"></line><line x1="350" y1="40" x2="350" y2="20" stroke-width="2" stroke="black"></line><line x1="350" y1="20" x2="343" y2="27" stroke-width="2" stroke="black"></line><line x1="350" y1="20" x2="357" y2="27" stroke-width="2" stroke="black"></line><line x1="670" y1="130" x2="675" y2="133" stroke-width="2" stroke="black"></line><line x1="675" y1="133" x2="665" y2="138" stroke-width="2" stroke="black"></line><line x1="665" y1="138" x2="675" y2="143" stroke-width="2" stroke="black"></line><line x1="675" y1="143" x2="665" y2="148" stroke-width="2" stroke="black"></line><line x1="665" y1="148" x2="675" y2="153" stroke-width="2" stroke="black"></line><line x1="675" y1="153" x2="665" y2="158" stroke-width="2" stroke="black"></line><line x1="665" y1="158" x2="670" y2="160" stroke-width="2" stroke="black"></line><line x1="670" y1="120" x2="670" y2="130" stroke-width="2" stroke="black"></line><line x1="670" y1="160" x2="670" y2="170" stroke-width="2" stroke="black"></line><line x1="670" y1="60" x2="675" y2="63" stroke-width="2" stroke="black"></line><line x1="675" y1="63" x2="665" y2="68" stroke-width="2" stroke="black"></line><line x1="665" y1="68" x2="675" y2="73" stroke-width="2" stroke="black"></line><line x1="675" y1="73" x2="665" y2="78" stroke-width="2" stroke="black"></line><line x1="665" y1="78" x2="675" y2="83" stroke-width="2" stroke="black"></line><line x1="675" y1="83" x2="665" y2="88" stroke-width="2" stroke="black"></line><line x1="665" y1="88" x2="670" y2="90" stroke-width="2" stroke="black"></line><line x1="670" y1="50" x2="670" y2="60" stroke-width="2" stroke="black"></line><line x1="670" y1="90" x2="670" y2="100" stroke-width="2" stroke="black"></line><circle cx="130" cy="100" r="2" style="stroke: #000; stroke-width: 1; fill: none;"></circle><circle cx="670" cy="180" r="2" style="stroke: #000; stroke-width: 1; fill: none;"></circle><circle cx="350" cy="80" r="2" style="stroke: #000; stroke-width: 1; fill: none;"></circle><circle cx="390" cy="130" r="2" style="stroke: #000; stroke-width: 1; fill: none;"></circle><circle cx="670" cy="110" r="2" style="stroke: #000; stroke-width: 1; fill: none;"></circle><line x1="130" y1="100" x2="180" y2="100" stroke-width="2" stroke="black"></line><line x1="130" y1="100" x2="50" y2="100" stroke-width="2" stroke="black"></line><line x1="130" y1="100" x2="130" y2="110" stroke-width="2" stroke="black"></line><line x1="50" y1="90" x2="80" y2="90" stroke-width="2" stroke="black"></line><line x1="350" y1="80" x2="400" y2="80" stroke-width="2" stroke="black"></line><line x1="350" y1="40" x2="350" y2="80" stroke-width="2" stroke="black"></line><line x1="80" y1="40" x2="80" y2="90" stroke-width="2" stroke="black"></line><line x1="390" y1="130" x2="390" y2="290" stroke-width="2" stroke="black"></line><line x1="670" y1="190" x2="670" y2="180" stroke-width="2" stroke="black"></line><line x1="670" y1="220" x2="670" y2="210" stroke-width="2" stroke="black"></line><line x1="350" y1="150" x2="350" y2="80" stroke-width="2" stroke="black"></line><line x1="370" y1="150" x2="400" y2="150" stroke-width="2" stroke="black"></line><line x1="370" y1="150" x2="350" y2="150" stroke-width="2" stroke="black"></line><line x1="670" y1="50" x2="670" y2="40" stroke-width="2" stroke="black"></line><line x1="600" y1="180" x2="670" y2="180" stroke-width="2" stroke="black"></line><line x1="390" y1="110" x2="400" y2="110" stroke-width="2" stroke="black"></line><line x1="390" y1="110" x2="390" y2="130" stroke-width="2" stroke="black"></line><line x1="500" y1="150" x2="520" y2="150" stroke-width="2" stroke="black"></line><line x1="670" y1="110" x2="580" y2="110" stroke-width="2" stroke="black"></line><line x1="670" y1="110" x2="670" y2="120" stroke-width="2" stroke="black"></line><line x1="670" y1="110" x2="670" y2="100" stroke-width="2" stroke="black"></line><line x1="600" y1="290" x2="390" y2="290" stroke-width="2" stroke="black"></line><line x1="600" y1="290" x2="600" y2="180" stroke-width="2" stroke="black"></line><line x1="670" y1="170" x2="670" y2="180" stroke-width="2" stroke="black"></line><line x1="500" y1="80" x2="510" y2="80" stroke-width="2" stroke="black"></line><line x1="130" y1="220" x2="130" y2="210" stroke-width="2" stroke="black"></line><line x1="300" y1="100" x2="300" y2="120" stroke-width="2" stroke="black"></line><line x1="130" y1="160" x2="130" y2="170" stroke-width="2" stroke="black"></line><line x1="80" y1="110" x2="50" y2="110" stroke-width="2" stroke="black"></line><line x1="80" y1="110" x2="80" y2="220" stroke-width="2" stroke="black"></line><line x1="500" y1="110" x2="580" y2="110" stroke-width="2" stroke="black"></line><line x1="400" y1="130" x2="390" y2="130" stroke-width="2" stroke="black"></line><line x1="520" y1="220" x2="520" y2="150" stroke-width="2" stroke="black"></line><line x1="300" y1="140" x2="300" y2="220" stroke-width="2" stroke="black"></line><line x1="400" y1="100" x2="300" y2="100" stroke-width="2" stroke="black"></line></svg>