<?xml version='1.0' encoding='UTF-8' standalone='no'?>
<svg xmlns="http://www.w3.org/2000/svg" width="885" height="301" x="0" y="0"><text x="615" y="105" font-size="10" font-family="sans-serif" text-anchor="middle" alignment-baseline="middle">disch</text><text x="485" y="285" font-size="10" font-family="sans-serif" text-anchor="middle" alignment-baseline="middle">thres / trigger</text><text x="10" y="70" font-size="10" font-family="sans-serif" text-anchor="start" alignment-baseline="hanging">J1</text><text x="148" y="149" font-size="10" font-family="sans-serif" text-anchor="end" alignment-baseline="hanging">300</text><text x="110" y="250" font-size="10" font-family="sans-serif" text-anchor="start" alignment-baseline="hanging">GND</text><text x="254" y="140" font-size="10" font-family="sans-serif" text-anchor="start" alignment-baseline="hanging">10nF</text><text x="153" y="197" font-size="10" font-family="sans-serif" text-anchor="start" alignment-baseline="hanging">LED</text><text x="674" y="210" font-size="10" font-family="sans-serif" text-anchor="start" alignment-baseline="hanging">47uF</text><text x="153" y="187" font-size="10" font-family="sans-serif" text-anchor="start" alignment-baseline="hanging">D1</text><text x="650" y="250" font-size="10" font-family="sans-serif" text-anchor="start" alignment-baseline="hanging">GND</text><text x="254" y="119" font-size="10" font-family="sans-serif" text-anchor="start" alignment-baseline="hanging">C1</text><text x="674" y="200" font-size="10" font-family="sans-serif" text-anchor="start" alignment-baseline="hanging">10v</text><text x="60" y="10" font-size="10" font-family="sans-serif" text-anchor="start" alignment-baseline="hanging">VCC</text><text x="254" y="130" font-size="10" font-family="sans-serif" text-anchor="start" alignment-baseline="hanging">10v</text><text x="688" y="143" font-size="10" font-family="sans-serif" text-anchor="end" alignment-baseline="hanging">R2</text><text x="710" y="115" font-size="10" font-family="sans-serif" text-anchor="start" alignment-baseline="hanging">Values of R1, R2 and C2 are
intended to be changed to change
the oscillation frequency</text><text x="688" y="89" font-size="10" font-family="sans-serif" text-anchor="end" alignment-baseline="hanging">10K</text><text x="280" y="250" font-size="10" font-family="sans-serif" text-anchor="start" alignment-baseline="hanging">GND</text><text x="698" y="157" font-size="10" font-family="sans-serif" text-anchor="end" alignment-baseline="hanging">100K</text><text x="60" y="250" font-size="10" font-family="sans-serif" text-anchor="start" alignment-baseline="hanging">GND</text><text x="400" y="60" font-size="10" font-family="sans-serif" text-anchor="start" alignment-baseline="hanging">U1</text><text x="330" y="10" font-size="10" font-family="sans-serif" text-anchor="start" alignment-baseline="hanging">VCC</text><text x="149" y="133" font-size="10" font-family="sans-serif" text-anchor="end" alignment-baseline="hanging">R4</text><text x="400" y="170" font-size="10" font-family="sans-serif" text-anchor="start" alignment-baseline="hanging">SA555D</text><text x="689" y="73" font-size="10" font-family="sans-serif" text-anchor="end" alignment-baseline="hanging">R1</text><text x="525" y="80" font-size="10" font-family="sans-serif" text-anchor="start" alignment-baseline="middle">Output</text><text x="650" y="10" font-size="10" font-family="sans-serif" text-anchor="start" alignment-baseline="hanging">VCC</text><text x="674" y="189" font-size="10" font-family="sans-serif" text-anchor="start" alignment-baseline="hanging">C2</text><text x="195" y="100" font-size="10" font-family="sans-serif" text-anchor="start" alignment-baseline="middle">Output</text><text x="500" y="250" font-size="10" font-family="sans-serif" text-anchor="start" alignment-baseline="hanging">GND</text><line x1="660" y1="220" x2="660" y2="230" stroke-width="2" stroke="black"></line><line x1="650" y1="230" x2="670" y2="230" stroke-width="2" stroke="black"></line><line x1="653" y1="235" x2="667" y2="235" stroke-width="2" stroke="black"></line><line x1="656" y1="240" x2="664" y2="240" stroke-width="2" stroke="black"></line><line x1="660" y1="40" x2="660" y2="20" stroke-width="2" stroke="black"></line><line x1="660" y1="20" x2="653" y2="27" stroke-width="2" stroke="black"></line><line x1="660" y1="20" x2="667" y2="27" stroke-width="2" stroke="black"></line><line x1="300" y1="127" x2="280" y2="127" stroke-width="2" stroke="black"></line><line x1="300" y1="133" x2="280" y2="133" stroke-width="2" stroke="black"></line><line x1="290" y1="120" x2="290" y2="127" stroke-width="2" stroke="black"></line><line x1="290" y1="134" x2="290" y2="140" stroke-width="2" stroke="black"></line><line x1="70" y1="220" x2="70" y2="230" stroke-width="2" stroke="black"></line><line x1="60" y1="230" x2="80" y2="230" stroke-width="2" stroke="black"></line><line x1="63" y1="235" x2="77" y2="235" stroke-width="2" stroke="black"></line><line x1="66" y1="240" x2="74" y2="240" stroke-width="2" stroke="black"></line><line x1="670" y1="197" x2="650" y2="197" stroke-width="2" stroke="black"></line><line x1="670" y1="203" x2="650" y2="203" stroke-width="2" stroke="black"></line><line x1="660" y1="190" x2="660" y2="197" stroke-width="2" stroke="black"></line><line x1="660" y1="204" x2="660" y2="210" stroke-width="2" stroke="black"></line><rect width="80" height="90" x="400" y="70" style="stroke: #000; stroke-width: 1; fill: none;"></rect><line x1="390" y1="80" x2="400" y2="80" stroke-width="2" stroke="black"></line><text x="402" y="80" font-size="10" font-family="sans-serif" text-anchor="start" alignment-baseline="middle">VCC</text><line x1="390" y1="150" x2="400" y2="150" stroke-width="2" stroke="black"></line><text x="402" y="150" font-size="10" font-family="sans-serif" text-anchor="start" alignment-baseline="middle">!RESET</text><line x1="390" y1="100" x2="400" y2="100" stroke-width="2" stroke="black"></line><text x="402" y="100" font-size="10" font-family="sans-serif" text-anchor="start" alignment-baseline="middle">CONT</text><line x1="490" y1="110" x2="480" y2="110" stroke-width="2" stroke="black"></line><text x="478" y="110" font-size="10" font-family="sans-serif" text-anchor="end" alignment-baseline="middle">DISCH</text><line x1="490" y1="80" x2="480" y2="80" stroke-width="2" stroke="black"></line><text x="478" y="80" font-size="10" font-family="sans-serif" text-anchor="end" alignment-baseline="middle">OUT</text><line x1="390" y1="110" x2="400" y2="110" stroke-width="2" stroke="black"></line><text x="402" y="110" font-size="10" font-family="sans-serif" text-anchor="start" alignment-baseline="middle">THRES</text><line x1="390" y1="130" x2="400" y2="130" stroke-width="2" stroke="black"></line><text x="402" y="130" font-size="10" font-family="sans-serif" text-anchor="start" alignment-baseline="middle">TRIG</text><line x1="490" y1="150" x2="480" y2="150" stroke-width="2" stroke="black"></line><text x="478" y="150" font-size="10" font-family="sans-serif" text-anchor="end" alignment-baseline="middle">GND</text><line x1="510" y1="220" x2="510" y2="230" stroke-width="2" stroke="black"></line><line x1="500" y1="230" x2="520" y2="230" stroke-width="2" stroke="black"></line><line x1="503" y1="235" x2="517" y2="235" stroke-width="2" stroke="black"></line><line x1="506" y1="240" x2="514" y2="240" stroke-width="2" stroke="black"></line><line x1="120" y1="220" x2="120" y2="230" stroke-width="2" stroke="black"></line><line x1="110" y1="230" x2="130" y2="230" stroke-width="2" stroke="black"></line><line x1="113" y1="235" x2="127" y2="235" stroke-width="2" stroke="black"></line><line x1="116" y1="240" x2="124" y2="240" stroke-width="2" stroke="black"></line><line x1="505" y1="80" x2="500" y2="80" stroke-width="2" stroke="black"></line><line x1="520" y1="80" x2="515" y2="83" stroke-width="2" stroke="black"></line><line x1="520" y1="80" x2="515" y2="77" stroke-width="2" stroke="black"></line><line x1="515" y1="83" x2="505" y2="83" stroke-width="2" stroke="black"></line><line x1="515" y1="77" x2="505" y2="77" stroke-width="2" stroke="black"></line><line x1="505" y1="83" x2="505" y2="77" stroke-width="2" stroke="black"></line><line x1="70" y1="40" x2="70" y2="20" stroke-width="2" stroke="black"></line><line x1="70" y1="20" x2="63" y2="27" stroke-width="2" stroke="black"></line><line x1="70" y1="20" x2="77" y2="27" stroke-width="2" stroke="black"></line><line x1="120" y1="120" x2="125" y2="123" stroke-width="2" stroke="black"></line><line x1="125" y1="123" x2="115" y2="128" stroke-width="2" stroke="black"></line><line x1="115" y1="128" x2="125" y2="133" stroke-width="2" stroke="black"></line><line x1="125" y1="133" x2="115" y2="138" stroke-width="2" stroke="black"></line><line x1="115" y1="138" x2="125" y2="143" stroke-width="2" stroke="black"></line><line x1="125" y1="143" x2="115" y2="148" stroke-width="2" stroke="black"></line><line x1="115" y1="148" x2="120" y2="150" stroke-width="2" stroke="black"></line><line x1="120" y1="110" x2="120" y2="120" stroke-width="2" stroke="black"></line><line x1="120" y1="150" x2="120" y2="160" stroke-width="2" stroke="black"></line><rect width="20" height="40" x="-10" y="120" transform="rotate(180 10,120)" style="stroke: #000; stroke-width: 1; fill: none;"></rect><line x1="40" y1="110" x2="30" y2="110" stroke-width="2" stroke="black"></line><text x="25" y="110" font-size="10" font-family="sans-serif" text-anchor="end" alignment-baseline="middle">1</text><line x1="40" y1="100" x2="30" y2="100" stroke-width="2" stroke="black"></line><text x="25" y="100" font-size="10" font-family="sans-serif" text-anchor="end" alignment-baseline="middle">2</text><line x1="40" y1="90" x2="30" y2="90" stroke-width="2" stroke="black"></line><text x="25" y="90" font-size="10" font-family="sans-serif" text-anchor="end" alignment-baseline="middle">3</text><line x1="290" y1="220" x2="290" y2="230" stroke-width="2" stroke="black"></line><line x1="280" y1="230" x2="300" y2="230" stroke-width="2" stroke="black"></line><line x1="283" y1="235" x2="297" y2="235" stroke-width="2" stroke="black"></line><line x1="286" y1="240" x2="294" y2="240" stroke-width="2" stroke="black"></line><line x1="175" y1="100" x2="170" y2="100" stroke-width="2" stroke="black"></line><line x1="190" y1="100" x2="185" y2="103" stroke-width="2" stroke="black"></line><line x1="190" y1="100" x2="185" y2="97" stroke-width="2" stroke="black"></line><line x1="185" y1="103" x2="175" y2="103" stroke-width="2" stroke="black"></line><line x1="185" y1="97" x2="175" y2="97" stroke-width="2" stroke="black"></line><line x1="175" y1="103" x2="175" y2="97" stroke-width="2" stroke="black"></line><line x1="130" y1="180" x2="110" y2="180" stroke-width="2" stroke="black"></line><line x1="130" y1="200" x2="110" y2="200" stroke-width="2" stroke="black"></line><line x1="130" y1="180" x2="120" y2="200" stroke-width="2" stroke="black"></line><line x1="110" y1="180" x2="120" y2="200" stroke-width="2" stroke="black"></line><line x1="132" y1="185" x2="142" y2="195" stroke-width="2" stroke="black"></line><line x1="142" y1="195" x2="142" y2="190" stroke-width="2" stroke="black"></line><line x1="142" y1="195" x2="137" y2="195" stroke-width="2" stroke="black"></line><line x1="128" y1="192" x2="138" y2="202" stroke-width="2" stroke="black"></line><line x1="138" y1="202" x2="138" y2="197" stroke-width="2" stroke="black"></line><line x1="138" y1="202" x2="133" y2="202" stroke-width="2" stroke="black"></line><line x1="120" y1="170" x2="120" y2="180" stroke-width="2" stroke="black"></line><line x1="120" y1="200" x2="120" y2="210" stroke-width="2" stroke="black"></line><line x1="340" y1="40" x2="340" y2="20" stroke-width="2" stroke="black"></line><line x1="340" y1="20" x2="333" y2="27" stroke-width="2" stroke="black"></line><line x1="340" y1="20" x2="347" y2="27" stroke-width="2" stroke="black"></line><line x1="660" y1="130" x2="665" y2="133" stroke-width="2" stroke="black"></line><line x1="665" y1="133" x2="655" y2="138" stroke-width="2" stroke="black"></line><line x1="655" y1="138" x2="665" y2="143" stroke-width="2" stroke="black"></line><line x1="665" y1="143" x2="655" y2="148" stroke-width="2" stroke="black"></line><line x1="655" y1="148" x2="665" y2="153" stroke-width="2" stroke="black"></line><line x1="665" y1="153" x2="655" y2="158" stroke-width="2" stroke="black"></line><line x1="655" y1="158" x2="660" y2="160" stroke-width="2" stroke="black"></line><line x1="660" y1="120" x2="660" y2="130" stroke-width="2" stroke="black"></line><line x1="660" y1="160" x2="660" y2="170" stroke-width="2" stroke="black"></line><line x1="660" y1="60" x2="665" y2="63" stroke-width="2" stroke="black"></line><line x1="665" y1="63" x2="655" y2="68" stroke-width="2" stroke="black"></line><line x1="655" y1="68" x2="665" y2="73" stroke-width="2" stroke="black"></line><line x1="665" y1="73" x2="655" y2="78" stroke-width="2" stroke="black"></line><line x1="655" y1="78" x2="665" y2="83" stroke-width="2" stroke="black"></line><line x1="665" y1="83" x2="655" y2="88" stroke-width="2" stroke="black"></line><line x1="655" y1="88" x2="660" y2="90" stroke-width="2" stroke="black"></line><line x1="660" y1="50" x2="660" y2="60" stroke-width="2" stroke="black"></line><line x1="660" y1="90" x2="660" y2="100" stroke-width="2" stroke="black"></line><circle cx="660" cy="180" r="2" style="stroke: #000; stroke-width: 1; fill: none;"></circle><circle cx="340" cy="80" r="2" style="stroke: #000; stroke-width: 1; fill: none;"></circle><circle cx="380" cy="130" r="2" style="stroke: #000; stroke-width: 1; fill: none;"></circle><circle cx="660" cy="110" r="2" style="stroke: #000; stroke-width: 1; fill: none;"></circle><circle cx="120" cy="100" r="2" style="stroke: #000; stroke-width: 1; fill: none;"></circle><line x1="40" y1="90" x2="70" y2="90" stroke-width="2" stroke="black"></line><line x1="340" y1="80" x2="390" y2="80" stroke-width="2" stroke="black"></line><line x1="340" y1="40" x2="340" y2="80" stroke-width="2" stroke="black"></line><line x1="70" y1="40" x2="70" y2="90" stroke-width="2" stroke="black"></line><line x1="380" y1="130" x2="380" y2="290" stroke-width="2" stroke="black"></line><line x1="660" y1="190" x2="660" y2="180" stroke-width="2" stroke="black"></line><line x1="660" y1="220" x2="660" y2="210" stroke-width="2" stroke="black"></line><line x1="340" y1="150" x2="340" y2="80" stroke-width="2" stroke="black"></line><line x1="360" y1="150" x2="390" y2="150" stroke-width="2" stroke="black"></line><line x1="360" y1="150" x2="340" y2="150" stroke-width="2" stroke="black"></line><line x1="660" y1="50" x2="660" y2="40" stroke-width="2" stroke="black"></line><line x1="590" y1="180" x2="660" y2="180" stroke-width="2" stroke="black"></line><line x1="380" y1="110" x2="390" y2="110" stroke-width="2" stroke="black"></line><line x1="380" y1="110" x2="380" y2="130" stroke-width="2" stroke="black"></line><line x1="660" y1="110" x2="570" y2="110" stroke-width="2" stroke="black"></line><line x1="660" y1="110" x2="660" y2="120" stroke-width="2" stroke="black"></line><line x1="660" y1="110" x2="660" y2="100" stroke-width="2" stroke="black"></line><line x1="590" y1="290" x2="380" y2="290" stroke-width="2" stroke="black"></line><line x1="590" y1="290" x2="590" y2="180" stroke-width="2" stroke="black"></line><line x1="660" y1="170" x2="660" y2="180" stroke-width="2" stroke="black"></line><line x1="490" y1="80" x2="500" y2="80" stroke-width="2" stroke="black"></line><line x1="120" y1="220" x2="120" y2="210" stroke-width="2" stroke="black"></line><line x1="290" y1="120" x2="290" y2="100" stroke-width="2" stroke="black"></line><line x1="510" y1="150" x2="490" y2="150" stroke-width="2" stroke="black"></line><line x1="120" y1="160" x2="120" y2="170" stroke-width="2" stroke="black"></line><line x1="70" y1="110" x2="40" y2="110" stroke-width="2" stroke="black"></line><line x1="70" y1="110" x2="70" y2="220" stroke-width="2" stroke="black"></line><line x1="490" y1="110" x2="570" y2="110" stroke-width="2" stroke="black"></line><line x1="390" y1="130" x2="380" y2="130" stroke-width="2" stroke="black"></line><line x1="510" y1="220" x2="510" y2="150" stroke-width="2" stroke="black"></line><line x1="120" y1="100" x2="170" y2="100" stroke-width="2" stroke="black"></line><line x1="120" y1="100" x2="40" y2="100" stroke-width="2" stroke="black"></line><line x1="120" y1="100" x2="120" y2="110" stroke-width="2" stroke="black"></line><line x1="290" y1="140" x2="290" y2="220" stroke-width="2" stroke="black"></line><line x1="390" y1="100" x2="290" y2="100" stroke-width="2" stroke="black"></line></svg>