<?xml-stylesheet href="https://s3.amazonaws.com/maker.works.boards/css/blackpcb.css" type="text/css"?><svg xmlns="http://www.w3.org/2000/svg" version="1.1" xmlns:xlink="http://www.w3.org/1999/xlink" stroke-width="0" stroke-linecap="round" stroke-linejoin="round" width="3.5in" height="1in" id="pcb_bottom" viewBox="7.5 7.5 3500 1000"><defs><circle cx="0" cy="0" r="63" id="tool-T10-pad-1000"/><circle cx="0" cy="0" r="26.5" id="tool-T11-pad-1001"/><circle cx="0" cy="0" r="26.5" id="tool-T12-pad-1002"/><circle cx="0" cy="0" r="25" id="tool-T13-pad-1003"/><circle cx="0" cy="0" r="108.25" id="tool-D11-pad-1005"/><circle cx="0" cy="0" r="40.35" id="tool-D12-pad-1006"/><rect x="-40.3545" y="-40.3545" width="80.709" height="80.709" transform="rotate(270)" id="tool-D13-pad-1007"/><circle cx="0" cy="0" r="40.35" id="tool-D14-pad-1008"/><rect x="-40.3545" y="-40.3545" width="80.709" height="80.709" transform="rotate(90)" id="tool-D15-pad-1009"/><circle cx="0" cy="0" r="50" id="tool-D16-pad-1010"/><circle cx="0" cy="0" r="108.25" id="tool-D10-pad-1012"/><circle cx="0" cy="0" r="40.35" id="tool-D11-pad-1013"/><rect x="-40.3545" y="-40.3545" width="80.709" height="80.709" transform="rotate(270)" id="tool-D12-pad-1014"/><circle cx="0" cy="0" r="40.35" id="tool-D13-pad-1015"/><rect x="-40.3545" y="-40.3545" width="80.709" height="80.709" transform="rotate(90)" id="tool-D14-pad-1016"/><circle cx="0" cy="0" r="50" id="tool-D15-pad-1017"/><g id="pcb_bottom-cu" fill="currentColor" stroke="currentColor"><path stroke-width="50" fill="none" d="M 1144.4 704.4 L 1347.5 907.5 M 2147.5 507.5 L 2983.6 507.5 M 1247.5 507.5 L 1347.5 607.5 M 2983.6 310.6 L 2350.6 310.6 M 2983.6 704.4 L 2350.6 704.4 M 1250.6 310.6 L 1347.5 407.5 M 2350.6 310.6 L 2147.5 107.5 M 511.4 310.6 L 1250.6 310.6 M 511.4 507.5 L 1247.5 507.5 M 2350.6 704.4 L 2147.5 907.5 M 511.4 704.4 L 1144.4 704.4"/><use x="157.5" y="157.5" xlink:href="#tool-D11-pad-1005"/><use x="511.4" y="507.5" xlink:href="#tool-D12-pad-1006"/><use x="511.4" y="310.6" xlink:href="#tool-D12-pad-1006"/><use x="511.4" y="704.4" xlink:href="#tool-D13-pad-1007"/><use x="2983.6" y="507.5" xlink:href="#tool-D14-pad-1008"/><use x="2983.6" y="704.4" xlink:href="#tool-D14-pad-1008"/><use x="2983.6" y="310.6" xlink:href="#tool-D15-pad-1009"/><use x="3357.5" y="857.5" xlink:href="#tool-D11-pad-1005"/><use x="3357.5" y="157.5" xlink:href="#tool-D11-pad-1005"/><use x="157.5" y="857.5" xlink:href="#tool-D11-pad-1005"/><use x="1347.5" y="907.5" xlink:href="#tool-D16-pad-1010"/><use x="1347.5" y="407.5" xlink:href="#tool-D16-pad-1010"/><use x="2147.5" y="907.5" xlink:href="#tool-D16-pad-1010"/><use x="2147.5" y="107.5" xlink:href="#tool-D16-pad-1010"/><use x="2147.5" y="507.5" xlink:href="#tool-D16-pad-1010"/><use x="1347.5" y="607.5" xlink:href="#tool-D16-pad-1010"/></g><mask id="pcb_bottom_mech-mask" fill="#fff" stroke="#fff" fill-rule="evenodd"><path stroke-width="0" d="M 3507.5 1007.5 L 3507.5 7.5 L 7.5 7.5 L 7.5 1007.5 Z"/><g id="pcb_bottom-drl" fill="#000" stroke="#000"><use x="157.5" y="157.5" xlink:href="#tool-T10-pad-1000"/><use x="3357.5" y="857.5" xlink:href="#tool-T10-pad-1000"/><use x="3357.5" y="157.5" xlink:href="#tool-T10-pad-1000"/><use x="157.5" y="857.5" xlink:href="#tool-T10-pad-1000"/><use x="511.4" y="507.5" xlink:href="#tool-T11-pad-1001"/><use x="511.4" y="310.6" xlink:href="#tool-T11-pad-1001"/><use x="511.4" y="704.4" xlink:href="#tool-T11-pad-1001"/><use x="2983.6" y="507.5" xlink:href="#tool-T12-pad-1002"/><use x="2983.6" y="704.4" xlink:href="#tool-T12-pad-1002"/><use x="2983.6" y="310.6" xlink:href="#tool-T12-pad-1002"/><use x="1347.5" y="907.5" xlink:href="#tool-T13-pad-1003"/><use x="1347.5" y="407.5" xlink:href="#tool-T13-pad-1003"/><use x="2147.5" y="907.5" xlink:href="#tool-T13-pad-1003"/><use x="2147.5" y="107.5" xlink:href="#tool-T13-pad-1003"/><use x="2147.5" y="507.5" xlink:href="#tool-T13-pad-1003"/><use x="1347.5" y="607.5" xlink:href="#tool-T13-pad-1003"/></g></mask></defs><g mask="url(#pcb_bottom_mech-mask)" transform="translate(3515,1015) scale(-1,-1)"><rect x="7.5" y="7.5" width="3500" height="1000" fill="currentColor" class="pcb_board-fr4"/><use class="pcb_board-cu" xlink:href="#pcb_bottom-cu"/><g><defs><g id="pcb_bottom-sm" fill="currentColor" stroke="currentColor"><use x="157.5" y="157.5" xlink:href="#tool-D10-pad-1012"/><use x="511.4" y="507.5" xlink:href="#tool-D11-pad-1013"/><use x="511.4" y="310.6" xlink:href="#tool-D11-pad-1013"/><use x="511.4" y="704.4" xlink:href="#tool-D12-pad-1014"/><use x="2983.6" y="507.5" xlink:href="#tool-D13-pad-1015"/><use x="2983.6" y="704.4" xlink:href="#tool-D13-pad-1015"/><use x="2983.6" y="310.6" xlink:href="#tool-D14-pad-1016"/><use x="3357.5" y="857.5" xlink:href="#tool-D10-pad-1012"/><use x="3357.5" y="157.5" xlink:href="#tool-D10-pad-1012"/><use x="157.5" y="857.5" xlink:href="#tool-D10-pad-1012"/><use x="1347.5" y="907.5" xlink:href="#tool-D15-pad-1017"/><use x="1347.5" y="407.5" xlink:href="#tool-D15-pad-1017"/><use x="2147.5" y="907.5" xlink:href="#tool-D15-pad-1017"/><use x="2147.5" y="107.5" xlink:href="#tool-D15-pad-1017"/><use x="2147.5" y="507.5" xlink:href="#tool-D15-pad-1017"/><use x="1347.5" y="607.5" xlink:href="#tool-D15-pad-1017"/></g><mask id="pcb_bottom-sm_mask" color="#000"><rect x="7.5" y="7.5" width="3500" height="1000" fill="#fff"/><use xlink:href="#pcb_bottom-sm"/></mask><mask id="pcb_bottom-cu_finish-mask" color="#fff"><use xlink:href="#pcb_bottom-cu"/></mask></defs><g mask="url(#pcb_bottom-sm_mask)"><rect x="7.5" y="7.5" width="3500" height="1000" fill="currentColor" class="pcb_board-sm"/><g id="pcb_bottom-ss" class="pcb_board-ss" fill="currentColor" stroke="currentColor"><path d="M 2387.5 102.1 L 2387.5 110 L 2395.3 110 L 2395.3 113.2 L 2387.5 113.2 L 2387.5 121 L 2384.2 121 L 2384.2 113.2 L 2376.4 113.2 L 2376.4 110 L 2384.2 110 L 2384.2 102.1 L 2387.5 102.1 L 2387.5 102.1 Z"/><path d="M 2372.2 111.4 L 2371.9 114.8 L 2371.2 117.8 L 2370.1 120.4 L 2368.4 122.6 L 2366.3 124.4 L 2364 125.6 L 2361.4 126.4 L 2358.5 126.6 L 2356.6 126.5 L 2354.7 126.2 L 2353 125.6 L 2351.4 124.7 L 2349.9 123.7 L 2348.5 122.5 L 2347.4 121.1 L 2346.5 119.5 L 2345.8 117.7 L 2345.3 115.8 L 2344.9 113.9 L 2344.8 111.8 L 2344.9 109.7 L 2345.3 107.7 L 2345.8 105.8 L 2346.6 104 L 2347.5 102.4 L 2348.7 101 L 2350.1 99.8 L 2351.6 98.8 L 2353.2 98 L 2354.9 97.5 L 2355.9 97.3 L 2356.5 100.5 L 2354.6 101 L 2353 101.9 L 2351.5 103.2 L 2350.3 104.9 L 2349.4 106.9 L 2348.9 109.2 L 2348.7 111.8 L 2348.8 113.5 L 2349 115.1 L 2349.4 116.6 L 2349.9 117.9 L 2350.6 119.1 L 2351.4 120.2 L 2352.3 121.2 L 2353.4 121.9 L 2354.5 122.6 L 2355.8 123 L 2357.1 123.3 L 2358.5 123.4 L 2360.4 123.2 L 2362.2 122.7 L 2363.9 121.8 L 2365.4 120.6 L 2366.7 119 L 2367.6 116.9 L 2368.1 114.4 L 2368.3 111.4 L 2368.3 111.4 L 2368.1 108.9 L 2367.6 106.8 L 2366.8 104.9 L 2365.5 103.2 L 2364 101.9 L 2362.4 101 L 2360.5 100.5 L 2358.5 100.3 L 2356.5 100.5 L 2355.9 97.3 L 2356.7 97.1 L 2358.5 97 L 2360.5 97.1 L 2362.3 97.5 L 2364.1 98.1 L 2365.7 99 L 2367.2 100 L 2368.5 101.3 L 2369.7 102.7 L 2370.6 104.3 L 2371.3 106 L 2371.8 107.8 L 2372.1 109.6 L 2372.2 111.4 L 2372.2 111.4 Z"/><path d="M 2326.8 97.5 L 2326.8 100.5 L 2328.1 99 L 2329.7 97.9 L 2331.4 97.3 L 2333.4 97 L 2334.3 97.1 L 2335.1 97.2 L 2336 97.4 L 2336.8 97.7 L 2337.5 98.1 L 2338.2 98.5 L 2338.7 99 L 2339.2 99.5 L 2339.5 100.1 L 2339.8 100.7 L 2340.1 101.4 L 2340.3 102.1 L 2340.3 102.7 L 2340.4 103.4 L 2340.5 104.4 L 2340.5 105.4 L 2340.5 118.2 L 2336.9 118.2 L 2336.9 106.8 L 2336.9 105.5 L 2336.9 104.4 L 2336.8 103.6 L 2336.8 103 L 2336.5 102.4 L 2336.2 101.8 L 2335.8 101.3 L 2335.3 100.8 L 2334.7 100.5 L 2334.1 100.3 L 2333.4 100.1 L 2332.7 100.1 L 2331.9 100.1 L 2331.1 100.3 L 2330.4 100.5 L 2329.7 100.9 L 2329.1 101.3 L 2328.5 101.8 L 2328.1 102.4 L 2327.7 103.1 L 2327.5 103.8 L 2327.3 104.8 L 2327.2 105.9 L 2327.2 107.1 L 2327.2 118.2 L 2323.6 118.2 L 2323.6 97.5 L 2326.8 97.5 L 2326.8 97.5 Z"/><path d="M 2310.5 100.6 L 2309.9 97.5 L 2310.7 97.4 L 2311.4 97.3 L 2312 97.3 L 2312.6 97.2 L 2313.5 97.3 L 2314.3 97.4 L 2315 97.6 L 2315.6 97.8 L 2316.1 98.2 L 2316.5 98.5 L 2316.8 99 L 2317.1 99.4 L 2317.3 100.1 L 2317.4 101 L 2317.5 102.1 L 2317.5 103.6 L 2317.5 115.5 L 2320.1 115.5 L 2320.1 118.2 L 2317.5 118.2 L 2317.5 123.4 L 2314 125.5 L 2314 118.2 L 2310.5 118.2 L 2310.5 115.5 L 2314 115.5 L 2314 103.4 L 2314 102.7 L 2314 102.1 L 2313.9 101.7 L 2313.8 101.4 L 2313.7 101.2 L 2313.6 101 L 2313.4 100.9 L 2313.2 100.8 L 2313 100.6 L 2312.7 100.6 L 2312.4 100.5 L 2312 100.5 L 2311.7 100.5 L 2311.3 100.5 L 2310.9 100.6 L 2310.5 100.6 L 2310.5 100.6 Z"/><path d="M 2307 89.5 L 2307 118.2 L 2303.8 118.2 L 2303.8 115.5 L 2302.1 113.9 L 2302.1 113.8 L 2302.9 112.7 L 2303.4 111.3 L 2303.7 109.6 L 2303.8 107.7 L 2303.8 107.7 L 2303.8 105.9 L 2303.4 104.3 L 2302.9 102.9 L 2302.2 101.8 L 2301.4 101 L 2300.4 100.4 L 2299.4 100.1 L 2298.3 99.9 L 2297.2 100.1 L 2296.1 100.4 L 2295.2 101 L 2294.3 101.9 L 2293.6 103.1 L 2293.1 104.4 L 2292.7 106.1 L 2292.6 108.1 L 2292.7 109.9 L 2293 111.5 L 2293.5 112.9 L 2294.2 114 L 2295.1 114.9 L 2296 115.5 L 2297.1 115.8 L 2298.1 116 L 2299.2 115.8 L 2300.3 115.4 L 2301.2 114.8 L 2302.1 113.9 L 2303.8 115.5 L 2303.2 116.3 L 2302.6 116.9 L 2301.9 117.5 L 2301.3 117.9 L 2300.5 118.2 L 2299.7 118.5 L 2298.8 118.7 L 2297.8 118.7 L 2296.5 118.6 L 2295.3 118.4 L 2294.2 117.9 L 2293.1 117.3 L 2292.2 116.6 L 2291.4 115.7 L 2290.6 114.7 L 2290.1 113.5 L 2289.6 112.2 L 2289.3 110.9 L 2289.1 109.5 L 2289 108 L 2289.1 106.5 L 2289.3 105 L 2289.7 103.6 L 2290.2 102.3 L 2290.8 101.1 L 2291.6 100.1 L 2292.5 99.2 L 2293.5 98.4 L 2294.6 97.8 L 2295.7 97.4 L 2296.9 97.1 L 2298.1 97 L 2298.9 97.1 L 2299.7 97.2 L 2300.5 97.5 L 2301.2 97.8 L 2301.9 98.2 L 2302.5 98.6 L 2303.1 99.1 L 2303.5 99.7 L 2303.5 89.5 L 2307 89.5 L 2307 89.5 Z"/><path d="M 2271.2 97.5 L 2271.2 100.5 L 2272.5 99 L 2274 97.9 L 2275.8 97.3 L 2277.8 97 L 2278.7 97.1 L 2279.5 97.2 L 2280.4 97.4 L 2281.2 97.7 L 2281.9 98.1 L 2282.6 98.5 L 2283.1 99 L 2283.6 99.5 L 2283.9 100.1 L 2284.2 100.7 L 2284.5 101.4 L 2284.7 102.1 L 2284.7 102.7 L 2284.8 103.4 L 2284.9 104.4 L 2284.9 105.4 L 2284.9 118.2 L 2281.4 118.2 L 2281.4 106.8 L 2281.3 105.5 L 2281.3 104.4 L 2281.2 103.6 L 2281.1 103 L 2280.9 102.4 L 2280.6 101.8 L 2280.2 101.3 L 2279.7 100.8 L 2279.2 100.5 L 2278.5 100.3 L 2277.8 100.1 L 2277.1 100.1 L 2276.3 100.1 L 2275.5 100.3 L 2274.8 100.5 L 2274.1 100.9 L 2273.4 101.3 L 2272.9 101.8 L 2272.5 102.4 L 2272.1 103.1 L 2271.9 103.8 L 2271.7 104.8 L 2271.6 105.9 L 2271.6 107.1 L 2271.6 118.2 L 2268.1 118.2 L 2268.1 97.5 L 2271.2 97.5 L 2271.2 97.5 Z"/><path d="M 2254.9 100.6 L 2254.4 97.5 L 2255.1 97.4 L 2255.8 97.3 L 2256.4 97.3 L 2257 97.2 L 2257.9 97.3 L 2258.7 97.4 L 2259.4 97.6 L 2260 97.8 L 2260.5 98.2 L 2260.9 98.5 L 2261.2 99 L 2261.5 99.4 L 2261.6 100.1 L 2261.8 101 L 2261.9 102.1 L 2261.9 103.6 L 2261.9 115.5 L 2264.5 115.5 L 2264.5 118.2 L 2261.9 118.2 L 2261.9 123.4 L 2258.4 125.5 L 2258.4 118.2 L 2254.9 118.2 L 2254.9 115.5 L 2258.4 115.5 L 2258.4 103.4 L 2258.4 102.7 L 2258.4 102.1 L 2258.3 101.7 L 2258.2 101.4 L 2258.1 101.2 L 2258 101 L 2257.8 100.9 L 2257.6 100.8 L 2257.4 100.6 L 2257.1 100.6 L 2256.8 100.5 L 2256.4 100.5 L 2256.1 100.5 L 2255.7 100.5 L 2255.3 100.6 L 2254.9 100.6 L 2254.9 100.6 Z"/><path d="M 2504 577.5 L 2500.2 576.6 L 2500.9 574.4 L 2501.9 572.5 L 2503.1 570.8 L 2504.5 569.5 L 2506.1 568.4 L 2507.9 567.6 L 2509.9 567.1 L 2512.1 567 L 2514.3 567.1 L 2516.2 567.5 L 2518 568.1 L 2519.6 568.9 L 2520.9 569.9 L 2522.1 571.2 L 2523.2 572.7 L 2524 574.4 L 2524.7 576.2 L 2525.1 578.1 L 2525.4 580 L 2525.5 582 L 2525.4 584.2 L 2525.1 586.2 L 2524.5 588.1 L 2523.8 589.8 L 2522.9 591.4 L 2521.7 592.8 L 2520.4 593.9 L 2518.9 594.9 L 2517.3 595.6 L 2515.6 596.2 L 2513.8 596.5 L 2512 596.6 L 2509.9 596.5 L 2508.1 596.1 L 2506.3 595.4 L 2504.8 594.4 L 2503.4 593.2 L 2502.3 591.8 L 2501.4 590.1 L 2500.7 588.3 L 2504.4 587.4 L 2505 588.9 L 2505.6 590.1 L 2506.4 591.1 L 2507.3 591.9 L 2508.3 592.6 L 2509.4 593 L 2510.7 593.3 L 2512.1 593.4 L 2513.6 593.3 L 2515.1 593 L 2516.4 592.5 L 2517.6 591.8 L 2518.6 590.9 L 2519.5 589.9 L 2520.2 588.8 L 2520.7 587.5 L 2521.1 586.2 L 2521.4 584.8 L 2521.6 583.4 L 2521.6 582.1 L 2521.5 580.3 L 2521.3 578.6 L 2521 577.1 L 2520.5 575.7 L 2519.9 574.4 L 2519.2 573.3 L 2518.3 572.3 L 2517.2 571.6 L 2516.1 571 L 2514.9 570.6 L 2513.6 570.3 L 2512.4 570.3 L 2510.8 570.4 L 2509.4 570.7 L 2508.1 571.3 L 2507 572.1 L 2506 573.1 L 2505.1 574.4 L 2504.5 575.8 L 2504 577.5 L 2504 577.5 Z"/><path d="M 2497.3 577.9 L 2497.1 580.6 L 2496.5 582.9 L 2495.5 584.8 L 2494.1 586.4 L 2492.7 587.4 L 2491.1 588.1 L 2489.4 588.6 L 2487.5 588.7 L 2485.5 588.5 L 2483.7 588 L 2482 587.1 L 2480.6 585.9 L 2479.4 584.4 L 2478.5 582.6 L 2478 580.5 L 2477.9 578.2 L 2477.9 576.3 L 2478.2 574.6 L 2478.5 573.1 L 2479 571.9 L 2479.7 570.8 L 2480.5 569.8 L 2481.5 569 L 2482.5 568.3 L 2483.7 567.7 L 2484.9 567.3 L 2486.2 567.1 L 2487.5 567 L 2487.8 567.1 L 2487.5 569.9 L 2486.3 570.1 L 2485.2 570.4 L 2484.1 571 L 2483.2 571.9 L 2482.5 573.1 L 2481.9 574.4 L 2481.6 576.1 L 2481.5 578 L 2481.6 579.8 L 2481.9 581.4 L 2482.5 582.7 L 2483.2 583.8 L 2484.2 584.7 L 2485.2 585.3 L 2486.3 585.7 L 2487.5 585.8 L 2488.8 585.7 L 2490 585.3 L 2491 584.7 L 2491.9 583.8 L 2492.7 582.7 L 2493.2 581.4 L 2493.6 579.7 L 2493.7 577.9 L 2493.7 577.9 L 2493.6 576 L 2493.2 574.4 L 2492.7 573 L 2491.9 571.9 L 2491 571 L 2490 570.4 L 2488.8 570.1 L 2487.5 569.9 L 2487.8 567.1 L 2489.6 567.2 L 2491.5 567.7 L 2493.2 568.6 L 2494.6 569.8 L 2495.8 571.4 L 2496.6 573.2 L 2497.1 575.4 L 2497.3 577.9 L 2497.3 577.9 Z"/><path d="M 2473.7 567.5 L 2473.7 588.2 L 2470.6 588.2 L 2470.6 585.3 L 2470.1 586 L 2469.4 586.7 L 2468.8 587.3 L 2468 587.8 L 2467.1 588.2 L 2466.2 588.5 L 2465.3 588.6 L 2464.3 588.7 L 2463.2 588.6 L 2462.2 588.5 L 2461.3 588.2 L 2460.5 587.7 L 2459.8 587.2 L 2459.3 586.6 L 2458.8 585.9 L 2458.4 585.1 L 2457.1 586.7 L 2455.6 587.8 L 2453.9 588.5 L 2452 588.7 L 2450.6 588.6 L 2449.3 588.3 L 2448.2 587.7 L 2447.3 587 L 2446.6 586 L 2446 584.8 L 2445.7 583.4 L 2445.6 581.8 L 2445.6 567.5 L 2449.1 567.5 L 2449.1 580.6 L 2449.2 581.6 L 2449.2 582.4 L 2449.3 583.1 L 2449.5 583.6 L 2449.7 584 L 2449.9 584.4 L 2450.3 584.8 L 2450.7 585.1 L 2451.2 585.3 L 2451.7 585.5 L 2452.2 585.6 L 2452.8 585.6 L 2453.9 585.6 L 2454.8 585.3 L 2455.7 584.9 L 2456.4 584.2 L 2457.1 583.4 L 2457.5 582.3 L 2457.8 581 L 2457.9 579.5 L 2457.9 567.5 L 2461.4 567.5 L 2461.4 581 L 2461.5 582.1 L 2461.6 583 L 2461.9 583.8 L 2462.3 584.5 L 2462.8 585 L 2463.4 585.4 L 2464.2 585.6 L 2465.1 585.6 L 2465.8 585.6 L 2466.5 585.5 L 2467.2 585.2 L 2467.8 584.9 L 2468.4 584.4 L 2468.9 583.9 L 2469.3 583.3 L 2469.7 582.6 L 2469.9 581.8 L 2470.1 580.8 L 2470.2 579.6 L 2470.2 578.2 L 2470.2 567.5 L 2473.7 567.5 L 2473.7 567.5 Z"/><path d="M 2440.4 567.5 L 2440.4 588.2 L 2437.3 588.2 L 2437.3 585.3 L 2436.8 586 L 2436.1 586.7 L 2435.5 587.3 L 2434.7 587.8 L 2433.8 588.2 L 2432.9 588.5 L 2432 588.6 L 2431 588.7 L 2429.9 588.6 L 2428.9 588.5 L 2428 588.2 L 2427.2 587.7 L 2426.5 587.2 L 2425.9 586.6 L 2425.5 585.9 L 2425.1 585.1 L 2423.8 586.7 L 2422.3 587.8 L 2420.6 588.5 L 2418.7 588.7 L 2417.3 588.6 L 2416 588.3 L 2414.9 587.7 L 2414 587 L 2413.2 586 L 2412.7 584.8 L 2412.4 583.4 L 2412.3 581.8 L 2412.3 567.5 L 2415.8 567.5 L 2415.8 580.6 L 2415.8 581.6 L 2415.9 582.4 L 2416 583.1 L 2416.1 583.6 L 2416.4 584 L 2416.6 584.4 L 2416.9 584.8 L 2417.4 585.1 L 2417.9 585.3 L 2418.4 585.5 L 2418.9 585.6 L 2419.5 585.6 L 2420.5 585.6 L 2421.5 585.3 L 2422.3 584.9 L 2423.1 584.2 L 2423.8 583.4 L 2424.2 582.3 L 2424.5 581 L 2424.6 579.5 L 2424.6 567.5 L 2428.1 567.5 L 2428.1 581 L 2428.1 582.1 L 2428.3 583 L 2428.6 583.8 L 2429 584.5 L 2429.4 585 L 2430.1 585.4 L 2430.8 585.6 L 2431.8 585.6 L 2432.5 585.6 L 2433.2 585.5 L 2433.8 585.2 L 2434.5 584.9 L 2435.1 584.4 L 2435.6 583.9 L 2436 583.3 L 2436.3 582.6 L 2436.6 581.8 L 2436.8 580.8 L 2436.9 579.6 L 2436.9 578.2 L 2436.9 567.5 L 2440.4 567.5 L 2440.4 567.5 Z"/><path d="M 2408.4 577.9 L 2408.2 580.6 L 2407.6 582.9 L 2406.6 584.8 L 2405.2 586.4 L 2403.8 587.4 L 2402.2 588.1 L 2400.5 588.6 L 2398.7 588.7 L 2396.6 588.5 L 2394.8 588 L 2393.1 587.1 L 2391.7 585.9 L 2390.5 584.4 L 2389.6 582.6 L 2389.1 580.5 L 2389 578.2 L 2389 576.3 L 2389.3 574.6 L 2389.6 573.1 L 2390.2 571.9 L 2390.8 570.8 L 2391.6 569.8 L 2392.6 569 L 2393.6 568.3 L 2394.8 567.7 L 2396 567.3 L 2397.3 567.1 L 2398.7 567 L 2398.9 567.1 L 2398.7 569.9 L 2397.4 570.1 L 2396.3 570.4 L 2395.3 571 L 2394.3 571.9 L 2393.6 573.1 L 2393 574.4 L 2392.7 576.1 L 2392.6 578 L 2392.7 579.8 L 2393 581.4 L 2393.6 582.7 L 2394.3 583.8 L 2395.3 584.7 L 2396.3 585.3 L 2397.4 585.7 L 2398.7 585.8 L 2399.9 585.7 L 2401.1 585.3 L 2402.1 584.7 L 2403.1 583.8 L 2403.8 582.7 L 2404.4 581.4 L 2404.7 579.7 L 2404.8 577.9 L 2404.8 577.9 L 2404.7 576 L 2404.4 574.4 L 2403.8 573 L 2403.1 571.9 L 2402.1 571 L 2401.1 570.4 L 2399.9 570.1 L 2398.7 569.9 L 2398.9 567.1 L 2400.7 567.2 L 2402.6 567.7 L 2404.3 568.6 L 2405.7 569.8 L 2406.9 571.4 L 2407.7 573.2 L 2408.2 575.4 L 2408.4 577.9 L 2408.4 577.9 Z"/><path d="M 2384.8 567.5 L 2384.8 588.2 L 2381.7 588.2 L 2381.7 585.3 L 2380.4 586.8 L 2378.9 587.9 L 2377.1 588.5 L 2375.1 588.7 L 2374.2 588.7 L 2373.3 588.5 L 2372.4 588.3 L 2371.6 588.1 L 2370.9 587.7 L 2370.3 587.3 L 2369.7 586.8 L 2369.3 586.3 L 2368.9 585.7 L 2368.6 585.1 L 2368.4 584.4 L 2368.2 583.7 L 2368.1 583.1 L 2368.1 582.3 L 2368 581.4 L 2368 580.3 L 2368 567.5 L 2371.5 567.5 L 2371.5 580.1 L 2371.5 581.1 L 2371.6 582 L 2371.8 582.7 L 2371.9 583.3 L 2372.1 583.8 L 2372.5 584.3 L 2372.9 584.7 L 2373.4 585 L 2373.9 585.3 L 2374.5 585.5 L 2375.1 585.6 L 2375.8 585.6 L 2376.9 585.6 L 2377.9 585.3 L 2378.8 584.9 L 2379.7 584.2 L 2380.4 583.4 L 2380.9 582.2 L 2381.2 580.6 L 2381.3 578.8 L 2381.3 567.5 L 2384.8 567.5 L 2384.8 567.5 Z"/><path d="M 2352.8 577.9 L 2352.6 580.6 L 2352 582.9 L 2351 584.8 L 2349.6 586.4 L 2348.2 587.4 L 2346.6 588.1 L 2344.9 588.6 L 2343.1 588.7 L 2341 588.5 L 2339.2 588 L 2337.5 587.1 L 2336.1 585.9 L 2334.9 584.4 L 2334 582.6 L 2333.5 580.5 L 2333.4 578.2 L 2333.4 576.3 L 2333.6 574.6 L 2334 573.1 L 2334.5 571.9 L 2335.2 570.8 L 2336 569.8 L 2337 569 L 2338.1 568.3 L 2339.2 567.7 L 2340.5 567.3 L 2341.8 567.1 L 2343.1 567 L 2343.3 567.1 L 2343.1 569.9 L 2341.8 570.1 L 2340.6 570.4 L 2339.6 571 L 2338.7 571.9 L 2337.9 573.1 L 2337.4 574.4 L 2337.1 576.1 L 2337 578 L 2337.1 579.8 L 2337.4 581.4 L 2338 582.7 L 2338.7 583.8 L 2339.7 584.7 L 2340.7 585.3 L 2341.8 585.7 L 2343.1 585.8 L 2344.3 585.7 L 2345.5 585.3 L 2346.5 584.7 L 2347.4 583.8 L 2348.2 582.7 L 2348.8 581.4 L 2349.1 579.7 L 2349.2 577.9 L 2349.2 577.9 L 2349.1 576 L 2348.8 574.4 L 2348.2 573 L 2347.4 571.9 L 2346.5 571 L 2345.5 570.4 L 2344.3 570.1 L 2343.1 569.9 L 2343.3 567.1 L 2345.1 567.2 L 2347 567.7 L 2348.6 568.6 L 2350.1 569.8 L 2351.3 571.4 L 2352.1 573.2 L 2352.6 575.4 L 2352.8 577.9 L 2352.8 577.9 Z"/><path d="M 2329.3 567.5 L 2329.3 588.2 L 2326.1 588.2 L 2326.1 585.1 L 2325.5 586.1 L 2324.9 586.9 L 2324.4 587.6 L 2323.9 588 L 2323.4 588.3 L 2322.8 588.5 L 2322.2 588.7 L 2321.6 588.7 L 2320.7 588.6 L 2319.8 588.4 L 2318.9 588.1 L 2318 587.6 L 2319.2 584.3 L 2319.9 584.7 L 2320.5 584.9 L 2321.2 585 L 2321.8 585.1 L 2322.3 585 L 2322.9 584.9 L 2323.4 584.7 L 2323.9 584.4 L 2324.3 584 L 2324.7 583.6 L 2324.9 583.1 L 2325.2 582.5 L 2325.4 581.5 L 2325.6 580.5 L 2325.7 579.5 L 2325.8 578.4 L 2325.8 567.5 L 2329.3 567.5 L 2329.3 567.5 Z"/><path d="M 2304.4 567.5 L 2304.4 596.1 L 2300.5 596.1 L 2285.5 573.6 L 2285.5 596.1 L 2281.8 596.1 L 2281.8 567.5 L 2285.7 567.5 L 2300.8 590 L 2300.8 567.5 L 2304.4 567.5 L 2304.4 567.5 Z"/><path d="M 2278.6 567 L 2270.3 596.6 L 2267.4 596.6 L 2275.7 567 L 2278.6 567 L 2278.6 567 Z"/><path d="M 2267.5 567.5 L 2257.3 594.2 L 2254.5 593.1 L 2254.9 591.8 L 2255.2 590.4 L 2255.6 589 L 2256.1 587.7 L 2259.2 579.3 L 2259.2 579.3 L 2249.5 579.3 L 2252.5 587.2 L 2253.2 588.9 L 2253.7 590.5 L 2254.2 591.9 L 2254.5 593.1 L 2257.3 594.2 L 2256.5 596.1 L 2252.4 596.1 L 2240.7 567.5 L 2245 567.5 L 2248.4 576.2 L 2260.3 576.2 L 2263.5 567.5 L 2267.5 567.5 L 2267.5 567.5 Z"/><path d="M 2386.2 906.1 L 2386.2 909.6 L 2375.4 909.6 L 2375.4 906.1 L 2386.2 906.1 L 2386.2 906.1 Z"/><path d="M 2372.3 911.4 L 2372 914.8 L 2371.3 917.8 L 2370.1 920.4 L 2368.4 922.6 L 2366.4 924.4 L 2364 925.6 L 2361.4 926.4 L 2358.5 926.6 L 2356.6 926.5 L 2354.8 926.2 L 2353 925.6 L 2351.4 924.7 L 2349.9 923.7 L 2348.6 922.5 L 2347.5 921.1 L 2346.5 919.5 L 2345.8 917.7 L 2345.3 915.8 L 2345 913.9 L 2344.9 911.8 L 2345 909.7 L 2345.3 907.7 L 2345.8 905.8 L 2346.6 904 L 2347.6 902.4 L 2348.8 901 L 2350.1 899.8 L 2351.6 898.8 L 2353.2 898 L 2354.9 897.5 L 2355.9 897.3 L 2356.5 900.5 L 2354.7 901 L 2353 901.9 L 2351.5 903.2 L 2350.3 904.9 L 2349.5 906.9 L 2349 909.2 L 2348.8 911.8 L 2348.8 913.5 L 2349.1 915.1 L 2349.4 916.6 L 2349.9 917.9 L 2350.6 919.1 L 2351.4 920.2 L 2352.3 921.2 L 2353.4 921.9 L 2354.6 922.6 L 2355.8 923 L 2357.1 923.3 L 2358.5 923.4 L 2360.5 923.2 L 2362.3 922.7 L 2363.9 921.8 L 2365.5 920.6 L 2366.7 919 L 2367.6 916.9 L 2368.2 914.4 L 2368.3 911.4 L 2368.3 911.4 L 2368.2 908.9 L 2367.7 906.8 L 2366.8 904.9 L 2365.6 903.2 L 2364.1 901.9 L 2362.4 901 L 2360.6 900.5 L 2358.6 900.3 L 2356.5 900.5 L 2355.9 897.3 L 2356.7 897.1 L 2358.6 897 L 2360.5 897.1 L 2362.4 897.5 L 2364.2 898.1 L 2365.8 899 L 2367.3 900 L 2368.6 901.3 L 2369.7 902.7 L 2370.6 904.3 L 2371.3 906 L 2371.8 907.8 L 2372.1 909.6 L 2372.3 911.4 L 2372.3 911.4 Z"/><path d="M 2326.8 897.5 L 2326.8 900.5 L 2328.2 899 L 2329.7 897.9 L 2331.4 897.3 L 2333.4 897 L 2334.3 897.1 L 2335.2 897.2 L 2336 897.4 L 2336.8 897.7 L 2337.6 898.1 L 2338.2 898.5 L 2338.8 899 L 2339.2 899.5 L 2339.5 900.1 L 2339.9 900.7 L 2340.1 901.4 L 2340.3 902.1 L 2340.4 902.7 L 2340.5 903.4 L 2340.5 904.4 L 2340.5 905.4 L 2340.5 918.2 L 2337 918.2 L 2337 906.8 L 2337 905.5 L 2336.9 904.4 L 2336.9 903.6 L 2336.8 903 L 2336.6 902.4 L 2336.2 901.8 L 2335.8 901.3 L 2335.4 900.8 L 2334.8 900.5 L 2334.2 900.3 L 2333.5 900.1 L 2332.7 900.1 L 2331.9 900.1 L 2331.2 900.3 L 2330.5 900.5 L 2329.7 900.9 L 2329.1 901.3 L 2328.6 901.8 L 2328.1 902.4 L 2327.8 903.1 L 2327.5 903.8 L 2327.3 904.8 L 2327.2 905.9 L 2327.2 907.1 L 2327.2 918.2 L 2323.7 918.2 L 2323.7 897.5 L 2326.8 897.5 L 2326.8 897.5 Z"/><path d="M 2310.5 900.6 L 2310 897.5 L 2310.7 897.4 L 2311.4 897.3 L 2312.1 897.3 L 2312.7 897.2 L 2313.6 897.3 L 2314.4 897.4 L 2315.1 897.6 L 2315.6 897.8 L 2316.1 898.2 L 2316.5 898.5 L 2316.9 899 L 2317.1 899.4 L 2317.3 900.1 L 2317.4 901 L 2317.5 902.1 L 2317.5 903.6 L 2317.5 915.5 L 2320.1 915.5 L 2320.1 918.2 L 2317.5 918.2 L 2317.5 923.4 L 2314 925.5 L 2314 918.2 L 2310.5 918.2 L 2310.5 915.5 L 2314 915.5 L 2314 903.4 L 2314 902.7 L 2314 902.1 L 2314 901.7 L 2313.8 901.4 L 2313.8 901.2 L 2313.6 901 L 2313.4 900.9 L 2313.2 900.8 L 2313 900.6 L 2312.7 900.6 L 2312.4 900.5 L 2312.1 900.5 L 2311.8 900.5 L 2311.4 900.5 L 2311 900.6 L 2310.5 900.6 L 2310.5 900.6 Z"/><path d="M 2307.1 889.5 L 2307.1 918.2 L 2303.9 918.2 L 2303.9 915.5 L 2302.1 913.9 L 2302.1 913.8 L 2302.9 912.7 L 2303.4 911.3 L 2303.8 909.6 L 2303.9 907.7 L 2303.9 907.7 L 2303.8 905.9 L 2303.5 904.3 L 2303 902.9 L 2302.3 901.8 L 2301.4 901 L 2300.5 900.4 L 2299.5 900.1 L 2298.3 899.9 L 2297.2 900.1 L 2296.2 900.4 L 2295.2 901 L 2294.3 901.9 L 2293.6 903.1 L 2293.1 904.4 L 2292.8 906.1 L 2292.7 908.1 L 2292.8 909.9 L 2293.1 911.5 L 2293.6 912.9 L 2294.3 914 L 2295.1 914.9 L 2296.1 915.5 L 2297.1 915.8 L 2298.2 916 L 2299.3 915.8 L 2300.3 915.4 L 2301.3 914.8 L 2302.1 913.9 L 2303.9 915.5 L 2303.3 916.3 L 2302.7 916.9 L 2302 917.5 L 2301.3 917.9 L 2300.6 918.2 L 2299.7 918.5 L 2298.8 918.7 L 2297.9 918.7 L 2296.6 918.6 L 2295.3 918.4 L 2294.2 917.9 L 2293.2 917.3 L 2292.2 916.6 L 2291.4 915.7 L 2290.7 914.7 L 2290.1 913.5 L 2289.6 912.2 L 2289.3 910.9 L 2289.1 909.5 L 2289.1 908 L 2289.1 906.5 L 2289.4 905 L 2289.7 903.6 L 2290.2 902.3 L 2290.8 901.1 L 2291.6 900.1 L 2292.5 899.2 L 2293.5 898.4 L 2294.6 897.8 L 2295.8 897.4 L 2296.9 897.1 L 2298.1 897 L 2299 897.1 L 2299.8 897.2 L 2300.5 897.5 L 2301.2 897.8 L 2301.9 898.2 L 2302.5 898.6 L 2303.1 899.1 L 2303.6 899.7 L 2303.6 889.5 L 2307.1 889.5 L 2307.1 889.5 Z"/><path d="M 2271.2 897.5 L 2271.2 900.5 L 2272.5 899 L 2274.1 897.9 L 2275.8 897.3 L 2277.8 897 L 2278.7 897.1 L 2279.6 897.2 L 2280.4 897.4 L 2281.2 897.7 L 2282 898.1 L 2282.6 898.5 L 2283.2 899 L 2283.6 899.5 L 2284 900.1 L 2284.3 900.7 L 2284.5 901.4 L 2284.7 902.1 L 2284.8 902.7 L 2284.9 903.4 L 2284.9 904.4 L 2284.9 905.4 L 2284.9 918.2 L 2281.4 918.2 L 2281.4 906.8 L 2281.4 905.5 L 2281.3 904.4 L 2281.3 903.6 L 2281.2 903 L 2281 902.4 L 2280.6 901.8 L 2280.3 901.3 L 2279.8 900.8 L 2279.2 900.5 L 2278.6 900.3 L 2277.9 900.1 L 2277.1 900.1 L 2276.3 900.1 L 2275.6 900.3 L 2274.9 900.5 L 2274.2 900.9 L 2273.5 901.3 L 2273 901.8 L 2272.5 902.4 L 2272.2 903.1 L 2271.9 903.8 L 2271.8 904.8 L 2271.6 905.9 L 2271.6 907.1 L 2271.6 918.2 L 2268.1 918.2 L 2268.1 897.5 L 2271.2 897.5 L 2271.2 897.5 Z"/><path d="M 2254.9 900.6 L 2254.4 897.5 L 2255.1 897.4 L 2255.8 897.3 L 2256.4 897.3 L 2257.1 897.2 L 2258 897.3 L 2258.8 897.4 L 2259.4 897.6 L 2260 897.8 L 2260.5 898.2 L 2260.9 898.5 L 2261.2 899 L 2261.5 899.4 L 2261.7 900.1 L 2261.8 901 L 2261.9 902.1 L 2261.9 903.6 L 2261.9 915.5 L 2264.5 915.5 L 2264.5 918.2 L 2261.9 918.2 L 2261.9 923.4 L 2258.4 925.5 L 2258.4 918.2 L 2254.9 918.2 L 2254.9 915.5 L 2258.4 915.5 L 2258.4 903.4 L 2258.4 902.7 L 2258.4 902.1 L 2258.3 901.7 L 2258.2 901.4 L 2258.1 901.2 L 2258 901 L 2257.9 900.9 L 2257.7 900.8 L 2257.4 900.6 L 2257.1 900.6 L 2256.8 900.5 L 2256.4 900.5 L 2256.1 900.5 L 2255.8 900.5 L 2255.4 900.6 L 2254.9 900.6 L 2254.9 900.6 Z"/><path d="M 1247.5 402.1 L 1247.5 410 L 1255.3 410 L 1255.3 413.2 L 1247.5 413.2 L 1247.5 421 L 1244.2 421 L 1244.2 413.2 L 1236.4 413.2 L 1236.4 410 L 1244.2 410 L 1244.2 402.1 L 1247.5 402.1 L 1247.5 402.1 Z"/><path d="M 1230.4 397.5 L 1230.4 426.1 L 1226.6 426.1 L 1226.6 397.5 L 1230.4 397.5 L 1230.4 397.5 Z"/><path d="M 1220.4 397.5 L 1220.4 418.2 L 1217.2 418.2 L 1217.2 415.3 L 1216 416.8 L 1214.4 417.9 L 1212.7 418.5 L 1210.6 418.7 L 1209.7 418.7 L 1208.8 418.5 L 1208 418.3 L 1207.2 418.1 L 1206.4 417.7 L 1205.8 417.3 L 1205.3 416.8 L 1204.8 416.3 L 1204.5 415.7 L 1204.2 415.1 L 1203.9 414.4 L 1203.7 413.7 L 1203.6 413.1 L 1203.6 412.3 L 1203.6 411.4 L 1203.5 410.3 L 1203.5 397.5 L 1207.1 397.5 L 1207.1 410.1 L 1207.1 411.1 L 1207.1 412 L 1207.3 412.7 L 1207.5 413.3 L 1207.7 413.8 L 1208 414.3 L 1208.4 414.7 L 1208.9 415 L 1209.5 415.3 L 1210.1 415.5 L 1210.7 415.6 L 1211.4 415.6 L 1212.5 415.6 L 1213.4 415.3 L 1214.4 414.9 L 1215.3 414.2 L 1216 413.4 L 1216.5 412.2 L 1216.8 410.6 L 1216.9 408.8 L 1216.9 397.5 L 1220.4 397.5 L 1220.4 397.5 Z"/><path d="M 1198.1 389.5 L 1198.1 418.2 L 1194.9 418.2 L 1194.9 415.5 L 1193.2 413.9 L 1193.2 413.8 L 1194 412.7 L 1194.5 411.3 L 1194.9 409.6 L 1194.9 407.7 L 1194.9 407.7 L 1194.9 405.9 L 1194.5 404.3 L 1194 402.9 L 1193.3 401.8 L 1192.5 401 L 1191.6 400.4 L 1190.5 400.1 L 1189.4 399.9 L 1188.3 400.1 L 1187.2 400.4 L 1186.3 401 L 1185.4 401.9 L 1184.7 403.1 L 1184.2 404.4 L 1183.8 406.1 L 1183.7 408.1 L 1183.8 409.9 L 1184.2 411.5 L 1184.7 412.9 L 1185.4 414 L 1186.2 414.9 L 1187.1 415.5 L 1188.2 415.8 L 1189.3 416 L 1190.3 415.8 L 1191.4 415.4 L 1192.3 414.8 L 1193.2 413.9 L 1194.9 415.5 L 1194.4 416.3 L 1193.7 416.9 L 1193.1 417.5 L 1192.4 417.9 L 1191.6 418.2 L 1190.8 418.5 L 1189.9 418.7 L 1188.9 418.7 L 1187.6 418.6 L 1186.4 418.4 L 1185.3 417.9 L 1184.2 417.3 L 1183.3 416.6 L 1182.5 415.7 L 1181.8 414.7 L 1181.2 413.5 L 1180.7 412.2 L 1180.4 410.9 L 1180.2 409.5 L 1180.1 408 L 1180.2 406.5 L 1180.4 405 L 1180.8 403.6 L 1181.3 402.3 L 1181.9 401.1 L 1182.7 400.1 L 1183.6 399.2 L 1184.6 398.4 L 1185.7 397.8 L 1186.8 397.4 L 1188 397.1 L 1189.2 397 L 1190 397.1 L 1190.8 397.2 L 1191.6 397.5 L 1192.3 397.8 L 1193 398.2 L 1193.6 398.6 L 1194.2 399.1 L 1194.6 399.7 L 1194.6 389.5 L 1198.1 389.5 L 1198.1 389.5 Z"/><path d="M 1162.3 397.5 L 1162.3 400.5 L 1163.6 399 L 1165.2 397.9 L 1166.9 397.3 L 1168.9 397 L 1169.8 397.1 L 1170.6 397.2 L 1171.5 397.4 L 1172.3 397.7 L 1173.1 398.1 L 1173.7 398.5 L 1174.2 399 L 1174.7 399.5 L 1175 400.1 L 1175.3 400.7 L 1175.6 401.4 L 1175.8 402.1 L 1175.8 402.7 L 1175.9 403.4 L 1176 404.4 L 1176 405.4 L 1176 418.2 L 1172.5 418.2 L 1172.5 406.8 L 1172.5 405.5 L 1172.4 404.4 L 1172.3 403.6 L 1172.3 403 L 1172 402.4 L 1171.7 401.8 L 1171.3 401.3 L 1170.8 400.8 L 1170.3 400.5 L 1169.6 400.3 L 1169 400.1 L 1168.2 400.1 L 1167.4 400.1 L 1166.6 400.3 L 1165.9 400.5 L 1165.2 400.9 L 1164.6 401.3 L 1164 401.8 L 1163.6 402.4 L 1163.2 403.1 L 1163 403.8 L 1162.8 404.8 L 1162.7 405.9 L 1162.7 407.1 L 1162.7 418.2 L 1159.2 418.2 L 1159.2 397.5 L 1162.3 397.5 L 1162.3 397.5 Z"/><path d="M 1146 400.6 L 1145.5 397.5 L 1146.2 397.4 L 1146.9 397.3 L 1147.5 397.3 L 1148.1 397.2 L 1149 397.3 L 1149.8 397.4 L 1150.5 397.6 L 1151.1 397.8 L 1151.6 398.2 L 1152 398.5 L 1152.3 399 L 1152.6 399.4 L 1152.8 400.1 L 1152.9 401 L 1153 402.1 L 1153 403.6 L 1153 415.5 L 1155.6 415.5 L 1155.6 418.2 L 1153 418.2 L 1153 423.4 L 1149.5 425.5 L 1149.5 418.2 L 1146 418.2 L 1146 415.5 L 1149.5 415.5 L 1149.5 403.4 L 1149.5 402.7 L 1149.5 402.1 L 1149.4 401.7 L 1149.3 401.4 L 1149.2 401.2 L 1149.1 401 L 1148.9 400.9 L 1148.7 400.8 L 1148.5 400.6 L 1148.2 400.6 L 1147.9 400.5 L 1147.5 400.5 L 1147.2 400.5 L 1146.8 400.5 L 1146.4 400.6 L 1146 400.6 L 1146 400.6 Z"/><path d="M 1236.2 606.1 L 1236.2 609.6 L 1225.4 609.6 L 1225.4 606.1 L 1236.2 606.1 L 1236.2 606.1 Z"/><path d="M 1220.5 597.5 L 1220.5 626.1 L 1216.7 626.1 L 1216.7 597.5 L 1220.5 597.5 L 1220.5 597.5 Z"/><path d="M 1210.4 597.5 L 1210.4 618.2 L 1207.3 618.2 L 1207.3 615.3 L 1206 616.8 L 1204.5 617.9 L 1202.7 618.5 L 1200.6 618.7 L 1199.7 618.7 L 1198.9 618.5 L 1198 618.3 L 1197.2 618.1 L 1196.5 617.7 L 1195.8 617.3 L 1195.3 616.8 L 1194.9 616.3 L 1194.5 615.7 L 1194.2 615.1 L 1194 614.4 L 1193.8 613.7 L 1193.7 613.1 L 1193.6 612.3 L 1193.6 611.4 L 1193.6 610.3 L 1193.6 597.5 L 1197.1 597.5 L 1197.1 610.1 L 1197.1 611.1 L 1197.2 612 L 1197.3 612.7 L 1197.5 613.3 L 1197.7 613.8 L 1198.1 614.3 L 1198.5 614.7 L 1199 615 L 1199.5 615.3 L 1200.1 615.5 L 1200.7 615.6 L 1201.4 615.6 L 1202.5 615.6 L 1203.5 615.3 L 1204.4 614.9 L 1205.3 614.2 L 1206 613.4 L 1206.5 612.2 L 1206.8 610.6 L 1206.9 608.8 L 1206.9 597.5 L 1210.4 597.5 L 1210.4 597.5 Z"/><path d="M 1188.2 589.5 L 1188.2 618.2 L 1185 618.2 L 1185 615.5 L 1183.2 613.9 L 1183.3 613.8 L 1184 612.7 L 1184.6 611.3 L 1184.9 609.6 L 1185 607.7 L 1185 607.7 L 1184.9 605.9 L 1184.6 604.3 L 1184.1 602.9 L 1183.4 601.8 L 1182.5 601 L 1181.6 600.4 L 1180.6 600.1 L 1179.5 599.9 L 1178.3 600.1 L 1177.3 600.4 L 1176.3 601 L 1175.5 601.9 L 1174.7 603.1 L 1174.2 604.4 L 1173.9 606.1 L 1173.8 608.1 L 1173.9 609.9 L 1174.2 611.5 L 1174.7 612.9 L 1175.4 614 L 1176.2 614.9 L 1177.2 615.5 L 1178.2 615.8 L 1179.3 616 L 1180.4 615.8 L 1181.4 615.4 L 1182.4 614.8 L 1183.2 613.9 L 1185 615.5 L 1184.4 616.3 L 1183.8 616.9 L 1183.1 617.5 L 1182.4 617.9 L 1181.7 618.2 L 1180.8 618.5 L 1179.9 618.7 L 1179 618.7 L 1177.7 618.6 L 1176.5 618.4 L 1175.3 617.9 L 1174.3 617.3 L 1173.3 616.6 L 1172.5 615.7 L 1171.8 614.7 L 1171.2 613.5 L 1170.8 612.2 L 1170.5 610.9 L 1170.3 609.5 L 1170.2 608 L 1170.3 606.5 L 1170.5 605 L 1170.8 603.6 L 1171.3 602.3 L 1171.9 601.1 L 1172.7 600.1 L 1173.6 599.2 L 1174.6 598.4 L 1175.7 597.8 L 1176.9 597.4 L 1178.1 597.1 L 1179.2 597 L 1180.1 597.1 L 1180.9 597.2 L 1181.6 597.5 L 1182.4 597.8 L 1183.1 598.2 L 1183.6 598.6 L 1184.2 599.1 L 1184.7 599.7 L 1184.7 589.5 L 1188.2 589.5 L 1188.2 589.5 Z"/><path d="M 1152.3 597.5 L 1152.3 600.5 L 1153.7 599 L 1155.2 597.9 L 1156.9 597.3 L 1158.9 597 L 1159.8 597.1 L 1160.7 597.2 L 1161.6 597.4 L 1162.3 597.7 L 1163.1 598.1 L 1163.8 598.5 L 1164.3 599 L 1164.7 599.5 L 1165.1 600.1 L 1165.4 600.7 L 1165.6 601.4 L 1165.8 602.1 L 1165.9 602.7 L 1166 603.4 L 1166 604.4 L 1166 605.4 L 1166 618.2 L 1162.5 618.2 L 1162.5 606.8 L 1162.5 605.5 L 1162.5 604.4 L 1162.4 603.6 L 1162.3 603 L 1162.1 602.4 L 1161.8 601.8 L 1161.4 601.3 L 1160.9 600.8 L 1160.3 600.5 L 1159.7 600.3 L 1159 600.1 L 1158.2 600.1 L 1157.5 600.1 L 1156.7 600.3 L 1156 600.5 L 1155.3 600.9 L 1154.6 601.3 L 1154.1 601.8 L 1153.6 602.4 L 1153.3 603.1 L 1153.1 603.8 L 1152.9 604.8 L 1152.7 605.9 L 1152.7 607.1 L 1152.7 618.2 L 1149.2 618.2 L 1149.2 597.5 L 1152.3 597.5 L 1152.3 597.5 Z"/><path d="M 1136 600.6 L 1135.5 597.5 L 1136.2 597.4 L 1136.9 597.3 L 1137.5 597.3 L 1138.2 597.2 L 1139.1 597.3 L 1139.9 597.4 L 1140.6 597.6 L 1141.1 597.8 L 1141.6 598.2 L 1142 598.5 L 1142.4 599 L 1142.6 599.4 L 1142.8 600.1 L 1142.9 601 L 1143 602.1 L 1143.1 603.6 L 1143.1 615.5 L 1145.6 615.5 L 1145.6 618.2 L 1143.1 618.2 L 1143.1 623.4 L 1139.5 625.5 L 1139.5 618.2 L 1136 618.2 L 1136 615.5 L 1139.5 615.5 L 1139.5 603.4 L 1139.5 602.7 L 1139.5 602.1 L 1139.4 601.7 L 1139.4 601.4 L 1139.3 601.2 L 1139.1 601 L 1139 600.9 L 1138.8 600.8 L 1138.5 600.6 L 1138.2 600.6 L 1137.9 600.5 L 1137.5 600.5 L 1137.2 600.5 L 1136.9 600.5 L 1136.5 600.6 L 1136 600.6 L 1136 600.6 Z"/><path d="M 1234 907.5 L 1230.2 906.6 L 1230.9 904.4 L 1231.9 902.5 L 1233.1 900.8 L 1234.5 899.5 L 1236.1 898.4 L 1237.9 897.6 L 1239.9 897.1 L 1242.1 897 L 1244.3 897.1 L 1246.2 897.5 L 1248 898.1 L 1249.6 898.9 L 1250.9 899.9 L 1252.1 901.2 L 1253.2 902.7 L 1254 904.4 L 1254.7 906.2 L 1255.1 908.1 L 1255.4 910 L 1255.5 912 L 1255.4 914.2 L 1255.1 916.2 L 1254.5 918.1 L 1253.8 919.8 L 1252.9 921.4 L 1251.7 922.8 L 1250.4 923.9 L 1248.9 924.9 L 1247.3 925.6 L 1245.6 926.2 L 1243.8 926.5 L 1242 926.6 L 1239.9 926.5 L 1238.1 926.1 L 1236.3 925.4 L 1234.8 924.4 L 1233.4 923.2 L 1232.3 921.8 L 1231.4 920.1 L 1230.7 918.3 L 1234.4 917.4 L 1235 918.9 L 1235.6 920.1 L 1236.4 921.1 L 1237.3 921.9 L 1238.3 922.6 L 1239.4 923 L 1240.7 923.3 L 1242.1 923.4 L 1243.6 923.3 L 1245.1 923 L 1246.4 922.5 L 1247.6 921.8 L 1248.6 920.9 L 1249.5 919.9 L 1250.2 918.8 L 1250.7 917.5 L 1251.1 916.2 L 1251.4 914.8 L 1251.6 913.4 L 1251.6 912.1 L 1251.5 910.3 L 1251.3 908.6 L 1251 907.1 L 1250.5 905.7 L 1249.9 904.4 L 1249.2 903.3 L 1248.3 902.3 L 1247.2 901.6 L 1246.1 901 L 1244.9 900.6 L 1243.6 900.3 L 1242.4 900.3 L 1240.8 900.4 L 1239.4 900.7 L 1238.1 901.3 L 1237 902.1 L 1236 903.1 L 1235.1 904.4 L 1234.5 905.8 L 1234 907.5 L 1234 907.5 Z"/><path d="M 1227.3 907.9 L 1227.1 910.6 L 1226.5 912.9 L 1225.5 914.8 L 1224.1 916.4 L 1222.7 917.4 L 1221.1 918.1 L 1219.4 918.6 L 1217.5 918.7 L 1215.5 918.5 L 1213.7 918 L 1212 917.1 L 1210.6 915.9 L 1209.4 914.4 L 1208.5 912.6 L 1208 910.5 L 1207.9 908.2 L 1207.9 906.3 L 1208.2 904.6 L 1208.5 903.1 L 1209 901.9 L 1209.7 900.8 L 1210.5 899.8 L 1211.5 899 L 1212.5 898.3 L 1213.7 897.7 L 1214.9 897.3 L 1216.2 897.1 L 1217.5 897 L 1217.8 897.1 L 1217.5 899.9 L 1216.3 900.1 L 1215.2 900.4 L 1214.1 901 L 1213.2 901.9 L 1212.5 903.1 L 1211.9 904.4 L 1211.6 906.1 L 1211.5 908 L 1211.6 909.8 L 1211.9 911.4 L 1212.5 912.7 L 1213.2 913.8 L 1214.2 914.7 L 1215.2 915.3 L 1216.3 915.7 L 1217.5 915.8 L 1218.8 915.7 L 1220 915.3 L 1221 914.7 L 1221.9 913.8 L 1222.7 912.7 L 1223.2 911.4 L 1223.6 909.7 L 1223.7 907.9 L 1223.7 907.9 L 1223.6 906 L 1223.2 904.4 L 1222.7 903 L 1221.9 901.9 L 1221 901 L 1220 900.4 L 1218.8 900.1 L 1217.5 899.9 L 1217.8 897.1 L 1219.6 897.2 L 1221.5 897.7 L 1223.2 898.6 L 1224.6 899.8 L 1225.8 901.4 L 1226.6 903.2 L 1227.1 905.4 L 1227.3 907.9 L 1227.3 907.9 Z"/><path d="M 1203.7 897.5 L 1203.7 918.2 L 1200.6 918.2 L 1200.6 915.3 L 1199.3 916.8 L 1197.8 917.9 L 1196 918.5 L 1194 918.7 L 1193.1 918.7 L 1192.1 918.5 L 1191.3 918.3 L 1190.5 918.1 L 1189.8 917.7 L 1189.2 917.3 L 1188.6 916.8 L 1188.2 916.3 L 1187.8 915.7 L 1187.5 915.1 L 1187.3 914.4 L 1187.1 913.7 L 1187 913.1 L 1186.9 912.3 L 1186.9 911.4 L 1186.9 910.3 L 1186.9 897.5 L 1190.4 897.5 L 1190.4 910.1 L 1190.4 911.1 L 1190.5 912 L 1190.6 912.7 L 1190.8 913.3 L 1191 913.8 L 1191.4 914.3 L 1191.8 914.7 L 1192.3 915 L 1192.8 915.3 L 1193.4 915.5 L 1194 915.6 L 1194.7 915.6 L 1195.8 915.6 L 1196.8 915.3 L 1197.7 914.9 L 1198.6 914.2 L 1199.3 913.4 L 1199.8 912.2 L 1200.1 910.6 L 1200.2 908.8 L 1200.2 897.5 L 1203.7 897.5 L 1203.7 897.5 Z"/><path d="M 1173.8 900.6 L 1173.3 897.5 L 1174 897.4 L 1174.7 897.3 L 1175.3 897.3 L 1176 897.2 L 1176.9 897.3 L 1177.7 897.4 L 1178.3 897.6 L 1178.9 897.8 L 1179.4 898.2 L 1179.8 898.5 L 1180.1 899 L 1180.4 899.4 L 1180.6 900.1 L 1180.7 901 L 1180.8 902.1 L 1180.8 903.6 L 1180.8 915.5 L 1183.4 915.5 L 1183.4 918.2 L 1180.8 918.2 L 1180.8 923.4 L 1177.3 925.5 L 1177.3 918.2 L 1173.8 918.2 L 1173.8 915.5 L 1177.3 915.5 L 1177.3 903.4 L 1177.3 902.7 L 1177.3 902.1 L 1177.2 901.7 L 1177.1 901.4 L 1177.1 901.2 L 1176.9 901 L 1176.8 900.9 L 1176.6 900.8 L 1176.3 900.6 L 1176 900.6 L 1175.7 900.5 L 1175.3 900.5 L 1175 900.5 L 1174.7 900.5 L 1174.3 900.6 L 1173.8 900.6 L 1173.8 900.6 Z"/><path d="M 1170.4 897.5 L 1170.4 918.2 L 1167.3 918.2 L 1167.3 915.1 L 1166.6 916.1 L 1166.1 916.9 L 1165.5 917.6 L 1165 918 L 1164.5 918.3 L 1163.9 918.5 L 1163.4 918.7 L 1162.7 918.7 L 1161.9 918.6 L 1161 918.4 L 1160.1 918.1 L 1159.2 917.6 L 1160.3 914.3 L 1161 914.7 L 1161.6 914.9 L 1162.3 915 L 1162.9 915.1 L 1163.5 915 L 1164 914.9 L 1164.5 914.7 L 1165 914.4 L 1165.4 914 L 1165.8 913.6 L 1166.1 913.1 L 1166.3 912.5 L 1166.6 911.5 L 1166.8 910.5 L 1166.9 909.5 L 1166.9 908.4 L 1166.9 897.5 L 1170.4 897.5 L 1170.4 897.5 Z"/><path d="M 1158.4 907.9 L 1158.2 910.6 L 1157.5 912.9 L 1156.6 914.8 L 1155.1 916.4 L 1153.8 917.4 L 1152.2 918.1 L 1150.5 918.6 L 1148.6 918.7 L 1146.6 918.5 L 1144.7 918 L 1143.1 917.1 L 1141.6 915.9 L 1140.5 914.4 L 1139.6 912.6 L 1139.1 910.5 L 1138.9 908.2 L 1139 906.3 L 1139.2 904.6 L 1139.6 903.1 L 1140.1 901.9 L 1140.8 900.8 L 1141.6 899.8 L 1142.5 899 L 1143.6 898.3 L 1144.8 897.7 L 1146 897.3 L 1147.3 897.1 L 1148.6 897 L 1148.9 897.1 L 1148.6 899.9 L 1147.4 900.1 L 1146.2 900.4 L 1145.2 901 L 1144.3 901.9 L 1143.5 903.1 L 1143 904.4 L 1142.7 906.1 L 1142.5 908 L 1142.7 909.8 L 1143 911.4 L 1143.5 912.7 L 1144.3 913.8 L 1145.2 914.7 L 1146.2 915.3 L 1147.4 915.7 L 1148.6 915.8 L 1149.9 915.7 L 1151 915.3 L 1152.1 914.7 L 1153 913.8 L 1153.8 912.7 L 1154.3 911.4 L 1154.6 909.7 L 1154.7 907.9 L 1154.7 907.9 L 1154.6 906 L 1154.3 904.4 L 1153.8 903 L 1153 901.9 L 1152.1 901 L 1151 900.4 L 1149.9 900.1 L 1148.6 899.9 L 1148.9 897.1 L 1150.7 897.2 L 1152.6 897.7 L 1154.2 898.6 L 1155.7 899.8 L 1156.8 901.4 L 1157.7 903.2 L 1158.2 905.4 L 1158.4 907.9 L 1158.4 907.9 Z"/><path d="M 1134.9 897.5 L 1134.9 926.1 L 1131.4 926.1 L 1131.4 897.5 L 1134.9 897.5 L 1134.9 897.5 Z"/></g></g><use class="pcb_board-cf" mask="url(#pcb_bottom-cu_finish-mask)" xlink:href="#pcb_bottom-sm"/></g></g></svg>