<?xml-stylesheet href="https://s3.amazonaws.com/maker.works.boards/css/blackpcb.css" type="text/css"?><svg xmlns="http://www.w3.org/2000/svg" version="1.1" xmlns:xlink="http://www.w3.org/1999/xlink" stroke-width="0" stroke-linecap="round" stroke-linejoin="round" width="3.5in" height="1in" id="pcb_bottom" viewBox="7.5 7.5 3500 1000"><defs><circle cx="0" cy="0" r="63" id="tool-T10-pad-1000"/><circle cx="0" cy="0" r="26.5" id="tool-T11-pad-1001"/><circle cx="0" cy="0" r="26.5" id="tool-T12-pad-1002"/><circle cx="0" cy="0" r="25" id="tool-T13-pad-1003"/><circle cx="0" cy="0" r="108.25" id="tool-D11-pad-1005"/><circle cx="0" cy="0" r="40.35" id="tool-D12-pad-1006"/><rect x="-40.3545" y="-40.3545" width="80.709" height="80.709" transform="rotate(270)" id="tool-D13-pad-1007"/><circle cx="0" cy="0" r="40.35" id="tool-D14-pad-1008"/><rect x="-40.3545" y="-40.3545" width="80.709" height="80.709" transform="rotate(90)" id="tool-D15-pad-1009"/><circle cx="0" cy="0" r="50" id="tool-D16-pad-1010"/><circle cx="0" cy="0" r="108.25" id="tool-D10-pad-1012"/><circle cx="0" cy="0" r="40.35" id="tool-D11-pad-1013"/><rect x="-40.3545" y="-40.3545" width="80.709" height="80.709" transform="rotate(270)" id="tool-D12-pad-1014"/><circle cx="0" cy="0" r="40.35" id="tool-D13-pad-1015"/><rect x="-40.3545" y="-40.3545" width="80.709" height="80.709" transform="rotate(90)" id="tool-D14-pad-1016"/><circle cx="0" cy="0" r="50" id="tool-D15-pad-1017"/><g id="pcb_bottom-cu" fill="currentColor" stroke="currentColor"><path stroke-width="50" fill="none" d="M 1144.4 704.4 L 1347.5 907.5 M 2147.5 507.5 L 2983.6 507.5 M 1247.5 507.5 L 1347.5 607.5 M 2983.6 310.6 L 2350.6 310.6 M 2983.6 704.4 L 2350.6 704.4 M 1250.6 310.6 L 1347.5 407.5 M 2350.6 310.6 L 2147.5 107.5 M 511.4 310.6 L 1250.6 310.6 M 511.4 507.5 L 1247.5 507.5 M 2350.6 704.4 L 2147.5 907.5 M 511.4 704.4 L 1144.4 704.4"/><use x="157.5" y="157.5" xlink:href="#tool-D11-pad-1005"/><use x="511.4" y="507.5" xlink:href="#tool-D12-pad-1006"/><use x="511.4" y="310.6" xlink:href="#tool-D12-pad-1006"/><use x="511.4" y="704.4" xlink:href="#tool-D13-pad-1007"/><use x="2983.6" y="507.5" xlink:href="#tool-D14-pad-1008"/><use x="2983.6" y="704.4" xlink:href="#tool-D14-pad-1008"/><use x="2983.6" y="310.6" xlink:href="#tool-D15-pad-1009"/><use x="3357.5" y="857.5" xlink:href="#tool-D11-pad-1005"/><use x="3357.5" y="157.5" xlink:href="#tool-D11-pad-1005"/><use x="157.5" y="857.5" xlink:href="#tool-D11-pad-1005"/><use x="1347.5" y="907.5" xlink:href="#tool-D16-pad-1010"/><use x="1347.5" y="407.5" xlink:href="#tool-D16-pad-1010"/><use x="2147.5" y="907.5" xlink:href="#tool-D16-pad-1010"/><use x="2147.5" y="107.5" xlink:href="#tool-D16-pad-1010"/><use x="2147.5" y="507.5" xlink:href="#tool-D16-pad-1010"/><use x="1347.5" y="607.5" xlink:href="#tool-D16-pad-1010"/></g><mask id="pcb_bottom_mech-mask" fill="#fff" stroke="#fff" fill-rule="evenodd"><path stroke-width="0" d="M 7.5 107.5 Z M 7.5 107.5 A 100 100 0 0 1 107.5 7.5 L 3407.5 7.5 A 100 100 0 0 1 3507.5 107.5 L 3507.5 907.5 A 100 100 0 0 1 3407.5 1007.5 L 107.5 1007.5 A 100 100 0 0 1 7.5 907.5 Z"/><g id="pcb_bottom-drl" fill="#000" stroke="#000"><use x="157.5" y="157.5" xlink:href="#tool-T10-pad-1000"/><use x="3357.5" y="857.5" xlink:href="#tool-T10-pad-1000"/><use x="3357.5" y="157.5" xlink:href="#tool-T10-pad-1000"/><use x="157.5" y="857.5" xlink:href="#tool-T10-pad-1000"/><use x="511.4" y="507.5" xlink:href="#tool-T11-pad-1001"/><use x="511.4" y="310.6" xlink:href="#tool-T11-pad-1001"/><use x="511.4" y="704.4" xlink:href="#tool-T11-pad-1001"/><use x="2983.6" y="507.5" xlink:href="#tool-T12-pad-1002"/><use x="2983.6" y="704.4" xlink:href="#tool-T12-pad-1002"/><use x="2983.6" y="310.6" xlink:href="#tool-T12-pad-1002"/><use x="1347.5" y="907.5" xlink:href="#tool-T13-pad-1003"/><use x="1347.5" y="407.5" xlink:href="#tool-T13-pad-1003"/><use x="2147.5" y="907.5" xlink:href="#tool-T13-pad-1003"/><use x="2147.5" y="107.5" xlink:href="#tool-T13-pad-1003"/><use x="2147.5" y="507.5" xlink:href="#tool-T13-pad-1003"/><use x="1347.5" y="607.5" xlink:href="#tool-T13-pad-1003"/></g></mask></defs><g mask="url(#pcb_bottom_mech-mask)" transform="translate(3515,1015) scale(-1,-1)"><rect x="7.5" y="7.5" width="3500" height="1000" fill="currentColor" class="pcb_board-fr4"/><use class="pcb_board-cu" xlink:href="#pcb_bottom-cu"/><g><defs><g id="pcb_bottom-sm" fill="currentColor" stroke="currentColor"><use x="157.5" y="157.5" xlink:href="#tool-D10-pad-1012"/><use x="511.4" y="507.5" xlink:href="#tool-D11-pad-1013"/><use x="511.4" y="310.6" xlink:href="#tool-D11-pad-1013"/><use x="511.4" y="704.4" xlink:href="#tool-D12-pad-1014"/><use x="2983.6" y="507.5" xlink:href="#tool-D13-pad-1015"/><use x="2983.6" y="704.4" xlink:href="#tool-D13-pad-1015"/><use x="2983.6" y="310.6" xlink:href="#tool-D14-pad-1016"/><use x="3357.5" y="857.5" xlink:href="#tool-D10-pad-1012"/><use x="3357.5" y="157.5" xlink:href="#tool-D10-pad-1012"/><use x="157.5" y="857.5" xlink:href="#tool-D10-pad-1012"/><use x="1347.5" y="907.5" xlink:href="#tool-D15-pad-1017"/><use x="1347.5" y="407.5" xlink:href="#tool-D15-pad-1017"/><use x="2147.5" y="907.5" xlink:href="#tool-D15-pad-1017"/><use x="2147.5" y="107.5" xlink:href="#tool-D15-pad-1017"/><use x="2147.5" y="507.5" xlink:href="#tool-D15-pad-1017"/><use x="1347.5" y="607.5" xlink:href="#tool-D15-pad-1017"/></g><mask id="pcb_bottom-sm_mask" color="#000"><rect x="7.5" y="7.5" width="3500" height="1000" fill="#fff"/><use xlink:href="#pcb_bottom-sm"/></mask><mask id="pcb_bottom-cu_finish-mask" color="#fff"><use xlink:href="#pcb_bottom-cu"/></mask></defs><g mask="url(#pcb_bottom-sm_mask)"><rect x="7.5" y="7.5" width="3500" height="1000" fill="currentColor" class="pcb_board-sm"/><g id="pcb_bottom-ss" class="pcb_board-ss" fill="currentColor" stroke="currentColor"><path d="M 2387.5 102.1 L 2387.5 110 L 2395.3 110 L 2395.3 113.2 L 2387.5 113.2 L 2387.5 121 L 2384.2 121 L 2384.2 113.2 L 2376.4 113.2 L 2376.4 110 L 2384.2 110 L 2384.2 102.1 L 2387.5 102.1 L 2387.5 102.1 Z"/><path d="M 2372.2 111.4 L 2371.9 114.8 L 2371.2 117.8 L 2370.1 120.4 L 2368.4 122.6 L 2366.3 124.4 L 2364 125.6 L 2361.4 126.4 L 2358.5 126.6 L 2356.6 126.5 L 2354.7 126.2 L 2353 125.6 L 2351.4 124.7 L 2349.9 123.7 L 2348.5 122.5 L 2347.4 121.1 L 2346.5 119.5 L 2345.8 117.7 L 2345.3 115.8 L 2344.9 113.9 L 2344.8 111.8 L 2344.9 109.7 L 2345.3 107.7 L 2345.8 105.8 L 2346.6 104 L 2347.5 102.4 L 2348.7 101 L 2350.1 99.8 L 2351.6 98.8 L 2353.2 98 L 2354.9 97.5 L 2355.9 97.3 L 2356.5 100.5 L 2354.6 101 L 2353 101.9 L 2351.5 103.2 L 2350.3 104.9 L 2349.4 106.9 L 2348.9 109.2 L 2348.7 111.8 L 2348.8 113.5 L 2349 115.1 L 2349.4 116.6 L 2349.9 117.9 L 2350.6 119.1 L 2351.4 120.2 L 2352.3 121.2 L 2353.4 121.9 L 2354.5 122.6 L 2355.8 123 L 2357.1 123.3 L 2358.5 123.4 L 2360.4 123.2 L 2362.2 122.7 L 2363.9 121.8 L 2365.4 120.6 L 2366.7 119 L 2367.6 116.9 L 2368.1 114.4 L 2368.3 111.4 L 2368.3 111.4 L 2368.1 108.9 L 2367.6 106.8 L 2366.8 104.9 L 2365.5 103.2 L 2364 101.9 L 2362.4 101 L 2360.5 100.5 L 2358.5 100.3 L 2356.5 100.5 L 2355.9 97.3 L 2356.7 97.1 L 2358.5 97 L 2360.5 97.1 L 2362.3 97.5 L 2364.1 98.1 L 2365.7 99 L 2367.2 100 L 2368.5 101.3 L 2369.7 102.7 L 2370.6 104.3 L 2371.3 106 L 2371.8 107.8 L 2372.1 109.6 L 2372.2 111.4 L 2372.2 111.4 Z"/><path d="M 2326.8 97.5 L 2326.8 100.5 L 2328.1 99 L 2329.7 97.9 L 2331.4 97.3 L 2333.4 97 L 2334.3 97.1 L 2335.1 97.2 L 2336 97.4 L 2336.8 97.7 L 2337.5 98.1 L 2338.2 98.5 L 2338.7 99 L 2339.2 99.5 L 2339.5 100.1 L 2339.8 100.7 L 2340.1 101.4 L 2340.3 102.1 L 2340.3 102.7 L 2340.4 103.4 L 2340.5 104.4 L 2340.5 105.4 L 2340.5 118.2 L 2336.9 118.2 L 2336.9 106.8 L 2336.9 105.5 L 2336.9 104.4 L 2336.8 103.6 L 2336.8 103 L 2336.5 102.4 L 2336.2 101.8 L 2335.8 101.3 L 2335.3 100.8 L 2334.7 100.5 L 2334.1 100.3 L 2333.4 100.1 L 2332.7 100.1 L 2331.9 100.1 L 2331.1 100.3 L 2330.4 100.5 L 2329.7 100.9 L 2329.1 101.3 L 2328.5 101.8 L 2328.1 102.4 L 2327.7 103.1 L 2327.5 103.8 L 2327.3 104.8 L 2327.2 105.9 L 2327.2 107.1 L 2327.2 118.2 L 2323.6 118.2 L 2323.6 97.5 L 2326.8 97.5 L 2326.8 97.5 Z"/><path d="M 2310.5 100.6 L 2309.9 97.5 L 2310.7 97.4 L 2311.4 97.3 L 2312 97.3 L 2312.6 97.2 L 2313.5 97.3 L 2314.3 97.4 L 2315 97.6 L 2315.6 97.8 L 2316.1 98.2 L 2316.5 98.5 L 2316.8 99 L 2317.1 99.4 L 2317.3 100.1 L 2317.4 101 L 2317.5 102.1 L 2317.5 103.6 L 2317.5 115.5 L 2320.1 115.5 L 2320.1 118.2 L 2317.5 118.2 L 2317.5 123.4 L 2314 125.5 L 2314 118.2 L 2310.5 118.2 L 2310.5 115.5 L 2314 115.5 L 2314 103.4 L 2314 102.7 L 2314 102.1 L 2313.9 101.7 L 2313.8 101.4 L 2313.7 101.2 L 2313.6 101 L 2313.4 100.9 L 2313.2 100.8 L 2313 100.6 L 2312.7 100.6 L 2312.4 100.5 L 2312 100.5 L 2311.7 100.5 L 2311.3 100.5 L 2310.9 100.6 L 2310.5 100.6 L 2310.5 100.6 Z"/><path d="M 2307 89.5 L 2307 118.2 L 2303.8 118.2 L 2303.8 115.5 L 2302.1 113.9 L 2302.1 113.8 L 2302.9 112.7 L 2303.4 111.3 L 2303.7 109.6 L 2303.8 107.7 L 2303.8 107.7 L 2303.8 105.9 L 2303.4 104.3 L 2302.9 102.9 L 2302.2 101.8 L 2301.4 101 L 2300.4 100.4 L 2299.4 100.1 L 2298.3 99.9 L 2297.2 100.1 L 2296.1 100.4 L 2295.2 101 L 2294.3 101.9 L 2293.6 103.1 L 2293.1 104.4 L 2292.7 106.1 L 2292.6 108.1 L 2292.7 109.9 L 2293 111.5 L 2293.5 112.9 L 2294.2 114 L 2295.1 114.9 L 2296 115.5 L 2297.1 115.8 L 2298.1 116 L 2299.2 115.8 L 2300.3 115.4 L 2301.2 114.8 L 2302.1 113.9 L 2303.8 115.5 L 2303.2 116.3 L 2302.6 116.9 L 2301.9 117.5 L 2301.3 117.9 L 2300.5 118.2 L 2299.7 118.5 L 2298.8 118.7 L 2297.8 118.7 L 2296.5 118.6 L 2295.3 118.4 L 2294.2 117.9 L 2293.1 117.3 L 2292.2 116.6 L 2291.4 115.7 L 2290.6 114.7 L 2290.1 113.5 L 2289.6 112.2 L 2289.3 110.9 L 2289.1 109.5 L 2289 108 L 2289.1 106.5 L 2289.3 105 L 2289.7 103.6 L 2290.2 102.3 L 2290.8 101.1 L 2291.6 100.1 L 2292.5 99.2 L 2293.5 98.4 L 2294.6 97.8 L 2295.7 97.4 L 2296.9 97.1 L 2298.1 97 L 2298.9 97.1 L 2299.7 97.2 L 2300.5 97.5 L 2301.2 97.8 L 2301.9 98.2 L 2302.5 98.6 L 2303.1 99.1 L 2303.5 99.7 L 2303.5 89.5 L 2307 89.5 L 2307 89.5 Z"/><path d="M 2271.2 97.5 L 2271.2 100.5 L 2272.5 99 L 2274 97.9 L 2275.8 97.3 L 2277.8 97 L 2278.7 97.1 L 2279.5 97.2 L 2280.4 97.4 L 2281.2 97.7 L 2281.9 98.1 L 2282.6 98.5 L 2283.1 99 L 2283.6 99.5 L 2283.9 100.1 L 2284.2 100.7 L 2284.5 101.4 L 2284.7 102.1 L 2284.7 102.7 L 2284.8 103.4 L 2284.9 104.4 L 2284.9 105.4 L 2284.9 118.2 L 2281.4 118.2 L 2281.4 106.8 L 2281.3 105.5 L 2281.3 104.4 L 2281.2 103.6 L 2281.1 103 L 2280.9 102.4 L 2280.6 101.8 L 2280.2 101.3 L 2279.7 100.8 L 2279.2 100.5 L 2278.5 100.3 L 2277.8 100.1 L 2277.1 100.1 L 2276.3 100.1 L 2275.5 100.3 L 2274.8 100.5 L 2274.1 100.9 L 2273.4 101.3 L 2272.9 101.8 L 2272.5 102.4 L 2272.1 103.1 L 2271.9 103.8 L 2271.7 104.8 L 2271.6 105.9 L 2271.6 107.1 L 2271.6 118.2 L 2268.1 118.2 L 2268.1 97.5 L 2271.2 97.5 L 2271.2 97.5 Z"/><path d="M 2254.9 100.6 L 2254.4 97.5 L 2255.1 97.4 L 2255.8 97.3 L 2256.4 97.3 L 2257 97.2 L 2257.9 97.3 L 2258.7 97.4 L 2259.4 97.6 L 2260 97.8 L 2260.5 98.2 L 2260.9 98.5 L 2261.2 99 L 2261.5 99.4 L 2261.6 100.1 L 2261.8 101 L 2261.9 102.1 L 2261.9 103.6 L 2261.9 115.5 L 2264.5 115.5 L 2264.5 118.2 L 2261.9 118.2 L 2261.9 123.4 L 2258.4 125.5 L 2258.4 118.2 L 2254.9 118.2 L 2254.9 115.5 L 2258.4 115.5 L 2258.4 103.4 L 2258.4 102.7 L 2258.4 102.1 L 2258.3 101.7 L 2258.2 101.4 L 2258.1 101.2 L 2258 101 L 2257.8 100.9 L 2257.6 100.8 L 2257.4 100.6 L 2257.1 100.6 L 2256.8 100.5 L 2256.4 100.5 L 2256.1 100.5 L 2255.7 100.5 L 2255.3 100.6 L 2254.9 100.6 L 2254.9 100.6 Z"/><path d="M 2504 577.5 L 2500.2 576.6 L 2500.9 574.4 L 2501.9 572.5 L 2503.1 570.8 L 2504.5 569.5 L 2506.1 568.4 L 2507.9 567.6 L 2509.9 567.1 L 2512.1 567 L 2514.3 567.1 L 2516.2 567.5 L 2518 568.1 L 2519.6 568.9 L 2520.9 569.9 L 2522.1 571.2 L 2523.2 572.7 L 2524 574.4 L 2524.7 576.2 L 2525.1 578.1 L 2525.4 580 L 2525.5 582 L 2525.4 584.2 L 2525.1 586.2 L 2524.5 588.1 L 2523.8 589.8 L 2522.9 591.4 L 2521.7 592.8 L 2520.4 593.9 L 2518.9 594.9 L 2517.3 595.6 L 2515.6 596.2 L 2513.8 596.5 L 2512 596.6 L 2509.9 596.5 L 2508.1 596.1 L 2506.3 595.4 L 2504.8 594.4 L 2503.4 593.2 L 2502.3 591.8 L 2501.4 590.1 L 2500.7 588.3 L 2504.4 587.4 L 2505 588.9 L 2505.6 590.1 L 2506.4 591.1 L 2507.3 591.9 L 2508.3 592.6 L 2509.4 593 L 2510.7 593.3 L 2512.1 593.4 L 2513.6 593.3 L 2515.1 593 L 2516.4 592.5 L 2517.6 591.8 L 2518.6 590.9 L 2519.5 589.9 L 2520.2 588.8 L 2520.7 587.5 L 2521.1 586.2 L 2521.4 584.8 L 2521.6 583.4 L 2521.6 582.1 L 2521.5 580.3 L 2521.3 578.6 L 2521 577.1 L 2520.5 575.7 L 2519.9 574.4 L 2519.2 573.3 L 2518.3 572.3 L 2517.2 571.6 L 2516.1 571 L 2514.9 570.6 L 2513.6 570.3 L 2512.4 570.3 L 2510.8 570.4 L 2509.4 570.7 L 2508.1 571.3 L 2507 572.1 L 2506 573.1 L 2505.1 574.4 L 2504.5 575.8 L 2504 577.5 L 2504 577.5 Z"/><path d="M 2497.3 577.9 L 2497.1 580.6 L 2496.5 582.9 L 2495.5 584.8 L 2494.1 586.4 L 2492.7 587.4 L 2491.1 588.1 L 2489.4 588.6 L 2487.5 588.7 L 2485.5 588.5 L 2483.7 588 L 2482 587.1 L 2480.6 585.9 L 2479.4 584.4 L 2478.5 582.6 L 2478 580.5 L 2477.9 578.2 L 2477.9 576.3 L 2478.2 574.6 L 2478.5 573.1 L 2479 571.9 L 2479.7 570.8 L 2480.5 569.8 L 2481.5 569 L 2482.5 568.3 L 2483.7 567.7 L 2484.9 567.3 L 2486.2 567.1 L 2487.5 567 L 2487.8 567.1 L 2487.5 569.9 L 2486.3 570.1 L 2485.2 570.4 L 2484.1 571 L 2483.2 571.9 L 2482.5 573.1 L 2481.9 574.4 L 2481.6 576.1 L 2481.5 578 L 2481.6 579.8 L 2481.9 581.4 L 2482.5 582.7 L 2483.2 583.8 L 2484.2 584.7 L 2485.2 585.3 L 2486.3 585.7 L 2487.5 585.8 L 2488.8 585.7 L 2490 585.3 L 2491 584.7 L 2491.9 583.8 L 2492.7 582.7 L 2493.2 581.4 L 2493.6 579.7 L 2493.7 577.9 L 2493.7 577.9 L 2493.6 576 L 2493.2 574.4 L 2492.7 573 L 2491.9 571.9 L 2491 571 L 2490 570.4 L 2488.8 570.1 L 2487.5 569.9 L 2487.8 567.1 L 2489.6 567.2 L 2491.5 567.7 L 2493.2 568.6 L 2494.6 569.8 L 2495.8 571.4 L 2496.6 573.2 L 2497.1 575.4 L 2497.3 577.9 L 2497.3 577.9 Z"/><path d="M 2473.7 567.5 L 2473.7 588.2 L 2470.6 588.2 L 2470.6 585.3 L 2470.1 586 L 2469.4 586.7 L 2468.8 587.3 L 2468 587.8 L 2467.1 588.2 L 2466.2 588.5 L 2465.3 588.6 L 2464.3 588.7 L 2463.2 588.6 L 2462.2 588.5 L 2461.3 588.2 L 2460.5 587.7 L 2459.8 587.2 L 2459.3 586.6 L 2458.8 585.9 L 2458.4 585.1 L 2457.1 586.7 L 2455.6 587.8 L 2453.9 588.5 L 2452 588.7 L 2450.6 588.6 L 2449.3 588.3 L 2448.2 587.7 L 2447.3 587 L 2446.6 586 L 2446 584.8 L 2445.7 583.4 L 2445.6 581.8 L 2445.6 567.5 L 2449.1 567.5 L 2449.1 580.6 L 2449.2 581.6 L 2449.2 582.4 L 2449.3 583.1 L 2449.5 583.6 L 2449.7 584 L 2449.9 584.4 L 2450.3 584.8 L 2450.7 585.1 L 2451.2 585.3 L 2451.7 585.5 L 2452.2 585.6 L 2452.8 585.6 L 2453.9 585.6 L 2454.8 585.3 L 2455.7 584.9 L 2456.4 584.2 L 2457.1 583.4 L 2457.5 582.3 L 2457.8 581 L 2457.9 579.5 L 2457.9 567.5 L 2461.4 567.5 L 2461.4 581 L 2461.5 582.1 L 2461.6 583 L 2461.9 583.8 L 2462.3 584.5 L 2462.8 585 L 2463.4 585.4 L 2464.2 585.6 L 2465.1 585.6 L 2465.8 585.6 L 2466.5 585.5 L 2467.2 585.2 L 2467.8 584.9 L 2468.4 584.4 L 2468.9 583.9 L 2469.3 583.3 L 2469.7 582.6 L 2469.9 581.8 L 2470.1 580.8 L 2470.2 579.6 L 2470.2 578.2 L 2470.2 567.5 L 2473.7 567.5 L 2473.7 567.5 Z"/><path d="M 2440.4 567.5 L 2440.4 588.2 L 2437.3 588.2 L 2437.3 585.3 L 2436.8 586 L 2436.1 586.7 L 2435.5 587.3 L 2434.7 587.8 L 2433.8 588.2 L 2432.9 588.5 L 2432 588.6 L 2431 588.7 L 2429.9 588.6 L 2428.9 588.5 L 2428 588.2 L 2427.2 587.7 L 2426.5 587.2 L 2425.9 586.6 L 2425.5 585.9 L 2425.1 585.1 L 2423.8 586.7 L 2422.3 587.8 L 2420.6 588.5 L 2418.7 588.7 L 2417.3 588.6 L 2416 588.3 L 2414.9 587.7 L 2414 587 L 2413.2 586 L 2412.7 584.8 L 2412.4 583.4 L 2412.3 581.8 L 2412.3 567.5 L 2415.8 567.5 L 2415.8 580.6 L 2415.8 581.6 L 2415.9 582.4 L 2416 583.1 L 2416.1 583.6 L 2416.4 584 L 2416.6 584.4 L 2416.9 584.8 L 2417.4 585.1 L 2417.9 585.3 L 2418.4 585.5 L 2418.9 585.6 L 2419.5 585.6 L 2420.5 585.6 L 2421.5 585.3 L 2422.3 584.9 L 2423.1 584.2 L 2423.8 583.4 L 2424.2 582.3 L 2424.5 581 L 2424.6 579.5 L 2424.6 567.5 L 2428.1 567.5 L 2428.1 581 L 2428.1 582.1 L 2428.3 583 L 2428.6 583.8 L 2429 584.5 L 2429.4 585 L 2430.1 585.4 L 2430.8 585.6 L 2431.8 585.6 L 2432.5 585.6 L 2433.2 585.5 L 2433.8 585.2 L 2434.5 584.9 L 2435.1 584.4 L 2435.6 583.9 L 2436 583.3 L 2436.3 582.6 L 2436.6 581.8 L 2436.8 580.8 L 2436.9 579.6 L 2436.9 578.2 L 2436.9 567.5 L 2440.4 567.5 L 2440.4 567.5 Z"/><path d="M 2408.4 577.9 L 2408.2 580.6 L 2407.6 582.9 L 2406.6 584.8 L 2405.2 586.4 L 2403.8 587.4 L 2402.2 588.1 L 2400.5 588.6 L 2398.7 588.7 L 2396.6 588.5 L 2394.8 588 L 2393.1 587.1 L 2391.7 585.9 L 2390.5 584.4 L 2389.6 582.6 L 2389.1 580.5 L 2389 578.2 L 2389 576.3 L 2389.3 574.6 L 2389.6 573.1 L 2390.2 571.9 L 2390.8 570.8 L 2391.6 569.8 L 2392.6 569 L 2393.6 568.3 L 2394.8 567.7 L 2396 567.3 L 2397.3 567.1 L 2398.7 567 L 2398.9 567.1 L 2398.7 569.9 L 2397.4 570.1 L 2396.3 570.4 L 2395.3 571 L 2394.3 571.9 L 2393.6 573.1 L 2393 574.4 L 2392.7 576.1 L 2392.6 578 L 2392.7 579.8 L 2393 581.4 L 2393.6 582.7 L 2394.3 583.8 L 2395.3 584.7 L 2396.3 585.3 L 2397.4 585.7 L 2398.7 585.8 L 2399.9 585.7 L 2401.1 585.3 L 2402.1 584.7 L 2403.1 583.8 L 2403.8 582.7 L 2404.4 581.4 L 2404.7 579.7 L 2404.8 577.9 L 2404.8 577.9 L 2404.7 576 L 2404.4 574.4 L 2403.8 573 L 2403.1 571.9 L 2402.1 571 L 2401.1 570.4 L 2399.9 570.1 L 2398.7 569.9 L 2398.9 567.1 L 2400.7 567.2 L 2402.6 567.7 L 2404.3 568.6 L 2405.7 569.8 L 2406.9 571.4 L 2407.7 573.2 L 2408.2 575.4 L 2408.4 577.9 L 2408.4 577.9 Z"/><path d="M 2384.8 567.5 L 2384.8 588.2 L 2381.7 588.2 L 2381.7 585.3 L 2380.4 586.8 L 2378.9 587.9 L 2377.1 588.5 L 2375.1 588.7 L 2374.2 588.7 L 2373.3 588.5 L 2372.4 588.3 L 2371.6 588.1 L 2370.9 587.7 L 2370.3 587.3 L 2369.7 586.8 L 2369.3 586.3 L 2368.9 585.7 L 2368.6 585.1 L 2368.4 584.4 L 2368.2 583.7 L 2368.1 583.1 L 2368.1 582.3 L 2368 581.4 L 2368 580.3 L 2368 567.5 L 2371.5 567.5 L 2371.5 580.1 L 2371.5 581.1 L 2371.6 582 L 2371.8 582.7 L 2371.9 583.3 L 2372.1 583.8 L 2372.5 584.3 L 2372.9 584.7 L 2373.4 585 L 2373.9 585.3 L 2374.5 585.5 L 2375.1 585.6 L 2375.8 585.6 L 2376.9 585.6 L 2377.9 585.3 L 2378.8 584.9 L 2379.7 584.2 L 2380.4 583.4 L 2380.9 582.2 L 2381.2 580.6 L 2381.3 578.8 L 2381.3 567.5 L 2384.8 567.5 L 2384.8 567.5 Z"/><path d="M 2352.8 577.9 L 2352.6 580.6 L 2352 582.9 L 2351 584.8 L 2349.6 586.4 L 2348.2 587.4 L 2346.6 588.1 L 2344.9 588.6 L 2343.1 588.7 L 2341 588.5 L 2339.2 588 L 2337.5 587.1 L 2336.1 585.9 L 2334.9 584.4 L 2334 582.6 L 2333.5 580.5 L 2333.4 578.2 L 2333.4 576.3 L 2333.6 574.6 L 2334 573.1 L 2334.5 571.9 L 2335.2 570.8 L 2336 569.8 L 2337 569 L 2338.1 568.3 L 2339.2 567.7 L 2340.5 567.3 L 2341.8 567.1 L 2343.1 567 L 2343.3 567.1 L 2343.1 569.9 L 2341.8 570.1 L 2340.6 570.4 L 2339.6 571 L 2338.7 571.9 L 2337.9 573.1 L 2337.4 574.4 L 2337.1 576.1 L 2337 578 L 2337.1 579.8 L 2337.4 581.4 L 2338 582.7 L 2338.7 583.8 L 2339.7 584.7 L 2340.7 585.3 L 2341.8 585.7 L 2343.1 585.8 L 2344.3 585.7 L 2345.5 585.3 L 2346.5 584.7 L 2347.4 583.8 L 2348.2 582.7 L 2348.8 581.4 L 2349.1 579.7 L 2349.2 577.9 L 2349.2 577.9 L 2349.1 576 L 2348.8 574.4 L 2348.2 573 L 2347.4 571.9 L 2346.5 571 L 2345.5 570.4 L 2344.3 570.1 L 2343.1 569.9 L 2343.3 567.1 L 2345.1 567.2 L 2347 567.7 L 2348.6 568.6 L 2350.1 569.8 L 2351.3 571.4 L 2352.1 573.2 L 2352.6 575.4 L 2352.8 577.9 L 2352.8 577.9 Z"/><path d="M 2329.3 567.5 L 2329.3 588.2 L 2326.1 588.2 L 2326.1 585.1 L 2325.5 586.1 L 2324.9 586.9 L 2324.4 587.6 L 2323.9 588 L 2323.4 588.3 L 2322.8 588.5 L 2322.2 588.7 L 2321.6 588.7 L 2320.7 588.6 L 2319.8 588.4 L 2318.9 588.1 L 2318 587.6 L 2319.2 584.3 L 2319.9 584.7 L 2320.5 584.9 L 2321.2 585 L 2321.8 585.1 L 2322.3 585 L 2322.9 584.9 L 2323.4 584.7 L 2323.9 584.4 L 2324.3 584 L 2324.7 583.6 L 2324.9 583.1 L 2325.2 582.5 L 2325.4 581.5 L 2325.6 580.5 L 2325.7 579.5 L 2325.8 578.4 L 2325.8 567.5 L 2329.3 567.5 L 2329.3 567.5 Z"/><path d="M 2304.4 567.5 L 2304.4 596.1 L 2300.5 596.1 L 2285.5 573.6 L 2285.5 596.1 L 2281.8 596.1 L 2281.8 567.5 L 2285.7 567.5 L 2300.8 590 L 2300.8 567.5 L 2304.4 567.5 L 2304.4 567.5 Z"/><path d="M 2278.6 567 L 2270.3 596.6 L 2267.4 596.6 L 2275.7 567 L 2278.6 567 L 2278.6 567 Z"/><path d="M 2267.5 567.5 L 2257.3 594.2 L 2254.5 593.1 L 2254.9 591.8 L 2255.2 590.4 L 2255.6 589 L 2256.1 587.7 L 2259.2 579.3 L 2259.2 579.3 L 2249.5 579.3 L 2252.5 587.2 L 2253.2 588.9 L 2253.7 590.5 L 2254.2 591.9 L 2254.5 593.1 L 2257.3 594.2 L 2256.5 596.1 L 2252.4 596.1 L 2240.7 567.5 L 2245 567.5 L 2248.4 576.2 L 2260.3 576.2 L 2263.5 567.5 L 2267.5 567.5 L 2267.5 567.5 Z"/><path d="M 2386.2 906.1 L 2386.2 909.6 L 2375.4 909.6 L 2375.4 906.1 L 2386.2 906.1 L 2386.2 906.1 Z"/><path d="M 2372.3 911.4 L 2372 914.8 L 2371.3 917.8 L 2370.1 920.4 L 2368.4 922.6 L 2366.4 924.4 L 2364 925.6 L 2361.4 926.4 L 2358.5 926.6 L 2356.6 926.5 L 2354.8 926.2 L 2353 925.6 L 2351.4 924.7 L 2349.9 923.7 L 2348.6 922.5 L 2347.5 921.1 L 2346.5 919.5 L 2345.8 917.7 L 2345.3 915.8 L 2345 913.9 L 2344.9 911.8 L 2345 909.7 L 2345.3 907.7 L 2345.8 905.8 L 2346.6 904 L 2347.6 902.4 L 2348.8 901 L 2350.1 899.8 L 2351.6 898.8 L 2353.2 898 L 2354.9 897.5 L 2355.9 897.3 L 2356.5 900.5 L 2354.7 901 L 2353 901.9 L 2351.5 903.2 L 2350.3 904.9 L 2349.5 906.9 L 2349 909.2 L 2348.8 911.8 L 2348.8 913.5 L 2349.1 915.1 L 2349.4 916.6 L 2349.9 917.9 L 2350.6 919.1 L 2351.4 920.2 L 2352.3 921.2 L 2353.4 921.9 L 2354.6 922.6 L 2355.8 923 L 2357.1 923.3 L 2358.5 923.4 L 2360.5 923.2 L 2362.3 922.7 L 2363.9 921.8 L 2365.5 920.6 L 2366.7 919 L 2367.6 916.9 L 2368.2 914.4 L 2368.3 911.4 L 2368.3 911.4 L 2368.2 908.9 L 2367.7 906.8 L 2366.8 904.9 L 2365.6 903.2 L 2364.1 901.9 L 2362.4 901 L 2360.6 900.5 L 2358.6 900.3 L 2356.5 900.5 L 2355.9 897.3 L 2356.7 897.1 L 2358.6 897 L 2360.5 897.1 L 2362.4 897.5 L 2364.2 898.1 L 2365.8 899 L 2367.3 900 L 2368.6 901.3 L 2369.7 902.7 L 2370.6 904.3 L 2371.3 906 L 2371.8 907.8 L 2372.1 909.6 L 2372.3 911.4 L 2372.3 911.4 Z"/><path d="M 2326.8 897.5 L 2326.8 900.5 L 2328.2 899 L 2329.7 897.9 L 2331.4 897.3 L 2333.4 897 L 2334.3 897.1 L 2335.2 897.2 L 2336 897.4 L 2336.8 897.7 L 2337.6 898.1 L 2338.2 898.5 L 2338.8 899 L 2339.2 899.5 L 2339.5 900.1 L 2339.9 900.7 L 2340.1 901.4 L 2340.3 902.1 L 2340.4 902.7 L 2340.5 903.4 L 2340.5 904.4 L 2340.5 905.4 L 2340.5 918.2 L 2337 918.2 L 2337 906.8 L 2337 905.5 L 2336.9 904.4 L 2336.9 903.6 L 2336.8 903 L 2336.6 902.4 L 2336.2 901.8 L 2335.8 901.3 L 2335.4 900.8 L 2334.8 900.5 L 2334.2 900.3 L 2333.5 900.1 L 2332.7 900.1 L 2331.9 900.1 L 2331.2 900.3 L 2330.5 900.5 L 2329.7 900.9 L 2329.1 901.3 L 2328.6 901.8 L 2328.1 902.4 L 2327.8 903.1 L 2327.5 903.8 L 2327.3 904.8 L 2327.2 905.9 L 2327.2 907.1 L 2327.2 918.2 L 2323.7 918.2 L 2323.7 897.5 L 2326.8 897.5 L 2326.8 897.5 Z"/><path d="M 2310.5 900.6 L 2310 897.5 L 2310.7 897.4 L 2311.4 897.3 L 2312.1 897.3 L 2312.7 897.2 L 2313.6 897.3 L 2314.4 897.4 L 2315.1 897.6 L 2315.6 897.8 L 2316.1 898.2 L 2316.5 898.5 L 2316.9 899 L 2317.1 899.4 L 2317.3 900.1 L 2317.4 901 L 2317.5 902.1 L 2317.5 903.6 L 2317.5 915.5 L 2320.1 915.5 L 2320.1 918.2 L 2317.5 918.2 L 2317.5 923.4 L 2314 925.5 L 2314 918.2 L 2310.5 918.2 L 2310.5 915.5 L 2314 915.5 L 2314 903.4 L 2314 902.7 L 2314 902.1 L 2314 901.7 L 2313.8 901.4 L 2313.8 901.2 L 2313.6 901 L 2313.4 900.9 L 2313.2 900.8 L 2313 900.6 L 2312.7 900.6 L 2312.4 900.5 L 2312.1 900.5 L 2311.8 900.5 L 2311.4 900.5 L 2311 900.6 L 2310.5 900.6 L 2310.5 900.6 Z"/><path d="M 2307.1 889.5 L 2307.1 918.2 L 2303.9 918.2 L 2303.9 915.5 L 2302.1 913.9 L 2302.1 913.8 L 2302.9 912.7 L 2303.4 911.3 L 2303.8 909.6 L 2303.9 907.7 L 2303.9 907.7 L 2303.8 905.9 L 2303.5 904.3 L 2303 902.9 L 2302.3 901.8 L 2301.4 901 L 2300.5 900.4 L 2299.5 900.1 L 2298.3 899.9 L 2297.2 900.1 L 2296.2 900.4 L 2295.2 901 L 2294.3 901.9 L 2293.6 903.1 L 2293.1 904.4 L 2292.8 906.1 L 2292.7 908.1 L 2292.8 909.9 L 2293.1 911.5 L 2293.6 912.9 L 2294.3 914 L 2295.1 914.9 L 2296.1 915.5 L 2297.1 915.8 L 2298.2 916 L 2299.3 915.8 L 2300.3 915.4 L 2301.3 914.8 L 2302.1 913.9 L 2303.9 915.5 L 2303.3 916.3 L 2302.7 916.9 L 2302 917.5 L 2301.3 917.9 L 2300.6 918.2 L 2299.7 918.5 L 2298.8 918.7 L 2297.9 918.7 L 2296.6 918.6 L 2295.3 918.4 L 2294.2 917.9 L 2293.2 917.3 L 2292.2 916.6 L 2291.4 915.7 L 2290.7 914.7 L 2290.1 913.5 L 2289.6 912.2 L 2289.3 910.9 L 2289.1 909.5 L 2289.1 908 L 2289.1 906.5 L 2289.4 905 L 2289.7 903.6 L 2290.2 902.3 L 2290.8 901.1 L 2291.6 900.1 L 2292.5 899.2 L 2293.5 898.4 L 2294.6 897.8 L 2295.8 897.4 L 2296.9 897.1 L 2298.1 897 L 2299 897.1 L 2299.8 897.2 L 2300.5 897.5 L 2301.2 897.8 L 2301.9 898.2 L 2302.5 898.6 L 2303.1 899.1 L 2303.6 899.7 L 2303.6 889.5 L 2307.1 889.5 L 2307.1 889.5 Z"/><path d="M 2271.2 897.5 L 2271.2 900.5 L 2272.5 899 L 2274.1 897.9 L 2275.8 897.3 L 2277.8 897 L 2278.7 897.1 L 2279.6 897.2 L 2280.4 897.4 L 2281.2 897.7 L 2282 898.1 L 2282.6 898.5 L 2283.2 899 L 2283.6 899.5 L 2284 900.1 L 2284.3 900.7 L 2284.5 901.4 L 2284.7 902.1 L 2284.8 902.7 L 2284.9 903.4 L 2284.9 904.4 L 2284.9 905.4 L 2284.9 918.2 L 2281.4 918.2 L 2281.4 906.8 L 2281.4 905.5 L 2281.3 904.4 L 2281.3 903.6 L 2281.2 903 L 2281 902.4 L 2280.6 901.8 L 2280.3 901.3 L 2279.8 900.8 L 2279.2 900.5 L 2278.6 900.3 L 2277.9 900.1 L 2277.1 900.1 L 2276.3 900.1 L 2275.6 900.3 L 2274.9 900.5 L 2274.2 900.9 L 2273.5 901.3 L 2273 901.8 L 2272.5 902.4 L 2272.2 903.1 L 2271.9 903.8 L 2271.8 904.8 L 2271.6 905.9 L 2271.6 907.1 L 2271.6 918.2 L 2268.1 918.2 L 2268.1 897.5 L 2271.2 897.5 L 2271.2 897.5 Z"/><path d="M 2254.9 900.6 L 2254.4 897.5 L 2255.1 897.4 L 2255.8 897.3 L 2256.4 897.3 L 2257.1 897.2 L 2258 897.3 L 2258.8 897.4 L 2259.4 897.6 L 2260 897.8 L 2260.5 898.2 L 2260.9 898.5 L 2261.2 899 L 2261.5 899.4 L 2261.7 900.1 L 2261.8 901 L 2261.9 902.1 L 2261.9 903.6 L 2261.9 915.5 L 2264.5 915.5 L 2264.5 918.2 L 2261.9 918.2 L 2261.9 923.4 L 2258.4 925.5 L 2258.4 918.2 L 2254.9 918.2 L 2254.9 915.5 L 2258.4 915.5 L 2258.4 903.4 L 2258.4 902.7 L 2258.4 902.1 L 2258.3 901.7 L 2258.2 901.4 L 2258.1 901.2 L 2258 901 L 2257.9 900.9 L 2257.7 900.8 L 2257.4 900.6 L 2257.1 900.6 L 2256.8 900.5 L 2256.4 900.5 L 2256.1 900.5 L 2255.8 900.5 L 2255.4 900.6 L 2254.9 900.6 L 2254.9 900.6 Z"/><path d="M 1247.5 402.1 L 1247.5 410 L 1255.3 410 L 1255.3 413.2 L 1247.5 413.2 L 1247.5 421 L 1244.2 421 L 1244.2 413.2 L 1236.4 413.2 L 1236.4 410 L 1244.2 410 L 1244.2 402.1 L 1247.5 402.1 L 1247.5 402.1 Z"/><path d="M 1230.4 397.5 L 1230.4 426.1 L 1226.6 426.1 L 1226.6 397.5 L 1230.4 397.5 L 1230.4 397.5 Z"/><path d="M 1220.4 397.5 L 1220.4 418.2 L 1217.2 418.2 L 1217.2 415.3 L 1216 416.8 L 1214.4 417.9 L 1212.7 418.5 L 1210.6 418.7 L 1209.7 418.7 L 1208.8 418.5 L 1208 418.3 L 1207.2 418.1 L 1206.4 417.7 L 1205.8 417.3 L 1205.3 416.8 L 1204.8 416.3 L 1204.5 415.7 L 1204.2 415.1 L 1203.9 414.4 L 1203.7 413.7 L 1203.6 413.1 L 1203.6 412.3 L 1203.6 411.4 L 1203.5 410.3 L 1203.5 397.5 L 1207.1 397.5 L 1207.1 410.1 L 1207.1 411.1 L 1207.1 412 L 1207.3 412.7 L 1207.5 413.3 L 1207.7 413.8 L 1208 414.3 L 1208.4 414.7 L 1208.9 415 L 1209.5 415.3 L 1210.1 415.5 L 1210.7 415.6 L 1211.4 415.6 L 1212.5 415.6 L 1213.4 415.3 L 1214.4 414.9 L 1215.3 414.2 L 1216 413.4 L 1216.5 412.2 L 1216.8 410.6 L 1216.9 408.8 L 1216.9 397.5 L 1220.4 397.5 L 1220.4 397.5 Z"/><path d="M 1198.1 389.5 L 1198.1 418.2 L 1194.9 418.2 L 1194.9 415.5 L 1193.2 413.9 L 1193.2 413.8 L 1194 412.7 L 1194.5 411.3 L 1194.9 409.6 L 1194.9 407.7 L 1194.9 407.7 L 1194.9 405.9 L 1194.5 404.3 L 1194 402.9 L 1193.3 401.8 L 1192.5 401 L 1191.6 400.4 L 1190.5 400.1 L 1189.4 399.9 L 1188.3 400.1 L 1187.2 400.4 L 1186.3 401 L 1185.4 401.9 L 1184.7 403.1 L 1184.2 404.4 L 1183.8 406.1 L 1183.7 408.1 L 1183.8 409.9 L 1184.2 411.5 L 1184.7 412.9 L 1185.4 414 L 1186.2 414.9 L 1187.1 415.5 L 1188.2 415.8 L 1189.3 416 L 1190.3 415.8 L 1191.4 415.4 L 1192.3 414.8 L 1193.2 413.9 L 1194.9 415.5 L 1194.4 416.3 L 1193.7 416.9 L 1193.1 417.5 L 1192.4 417.9 L 1191.6 418.2 L 1190.8 418.5 L 1189.9 418.7 L 1188.9 418.7 L 1187.6 418.6 L 1186.4 418.4 L 1185.3 417.9 L 1184.2 417.3 L 1183.3 416.6 L 1182.5 415.7 L 1181.8 414.7 L 1181.2 413.5 L 1180.7 412.2 L 1180.4 410.9 L 1180.2 409.5 L 1180.1 408 L 1180.2 406.5 L 1180.4 405 L 1180.8 403.6 L 1181.3 402.3 L 1181.9 401.1 L 1182.7 400.1 L 1183.6 399.2 L 1184.6 398.4 L 1185.7 397.8 L 1186.8 397.4 L 1188 397.1 L 1189.2 397 L 1190 397.1 L 1190.8 397.2 L 1191.6 397.5 L 1192.3 397.8 L 1193 398.2 L 1193.6 398.6 L 1194.2 399.1 L 1194.6 399.7 L 1194.6 389.5 L 1198.1 389.5 L 1198.1 389.5 Z"/><path d="M 1162.3 397.5 L 1162.3 400.5 L 1163.6 399 L 1165.2 397.9 L 1166.9 397.3 L 1168.9 397 L 1169.8 397.1 L 1170.6 397.2 L 1171.5 397.4 L 1172.3 397.7 L 1173.1 398.1 L 1173.7 398.5 L 1174.2 399 L 1174.7 399.5 L 1175 400.1 L 1175.3 400.7 L 1175.6 401.4 L 1175.8 402.1 L 1175.8 402.7 L 1175.9 403.4 L 1176 404.4 L 1176 405.4 L 1176 418.2 L 1172.5 418.2 L 1172.5 406.8 L 1172.5 405.5 L 1172.4 404.4 L 1172.3 403.6 L 1172.3 403 L 1172 402.4 L 1171.7 401.8 L 1171.3 401.3 L 1170.8 400.8 L 1170.3 400.5 L 1169.6 400.3 L 1169 400.1 L 1168.2 400.1 L 1167.4 400.1 L 1166.6 400.3 L 1165.9 400.5 L 1165.2 400.9 L 1164.6 401.3 L 1164 401.8 L 1163.6 402.4 L 1163.2 403.1 L 1163 403.8 L 1162.8 404.8 L 1162.7 405.9 L 1162.7 407.1 L 1162.7 418.2 L 1159.2 418.2 L 1159.2 397.5 L 1162.3 397.5 L 1162.3 397.5 Z"/><path d="M 1146 400.6 L 1145.5 397.5 L 1146.2 397.4 L 1146.9 397.3 L 1147.5 397.3 L 1148.1 397.2 L 1149 397.3 L 1149.8 397.4 L 1150.5 397.6 L 1151.1 397.8 L 1151.6 398.2 L 1152 398.5 L 1152.3 399 L 1152.6 399.4 L 1152.8 400.1 L 1152.9 401 L 1153 402.1 L 1153 403.6 L 1153 415.5 L 1155.6 415.5 L 1155.6 418.2 L 1153 418.2 L 1153 423.4 L 1149.5 425.5 L 1149.5 418.2 L 1146 418.2 L 1146 415.5 L 1149.5 415.5 L 1149.5 403.4 L 1149.5 402.7 L 1149.5 402.1 L 1149.4 401.7 L 1149.3 401.4 L 1149.2 401.2 L 1149.1 401 L 1148.9 400.9 L 1148.7 400.8 L 1148.5 400.6 L 1148.2 400.6 L 1147.9 400.5 L 1147.5 400.5 L 1147.2 400.5 L 1146.8 400.5 L 1146.4 400.6 L 1146 400.6 L 1146 400.6 Z"/><path d="M 1236.2 606.1 L 1236.2 609.6 L 1225.4 609.6 L 1225.4 606.1 L 1236.2 606.1 L 1236.2 606.1 Z"/><path d="M 1220.5 597.5 L 1220.5 626.1 L 1216.7 626.1 L 1216.7 597.5 L 1220.5 597.5 L 1220.5 597.5 Z"/><path d="M 1210.4 597.5 L 1210.4 618.2 L 1207.3 618.2 L 1207.3 615.3 L 1206 616.8 L 1204.5 617.9 L 1202.7 618.5 L 1200.6 618.7 L 1199.7 618.7 L 1198.9 618.5 L 1198 618.3 L 1197.2 618.1 L 1196.5 617.7 L 1195.8 617.3 L 1195.3 616.8 L 1194.9 616.3 L 1194.5 615.7 L 1194.2 615.1 L 1194 614.4 L 1193.8 613.7 L 1193.7 613.1 L 1193.6 612.3 L 1193.6 611.4 L 1193.6 610.3 L 1193.6 597.5 L 1197.1 597.5 L 1197.1 610.1 L 1197.1 611.1 L 1197.2 612 L 1197.3 612.7 L 1197.5 613.3 L 1197.7 613.8 L 1198.1 614.3 L 1198.5 614.7 L 1199 615 L 1199.5 615.3 L 1200.1 615.5 L 1200.7 615.6 L 1201.4 615.6 L 1202.5 615.6 L 1203.5 615.3 L 1204.4 614.9 L 1205.3 614.2 L 1206 613.4 L 1206.5 612.2 L 1206.8 610.6 L 1206.9 608.8 L 1206.9 597.5 L 1210.4 597.5 L 1210.4 597.5 Z"/><path d="M 1188.2 589.5 L 1188.2 618.2 L 1185 618.2 L 1185 615.5 L 1183.2 613.9 L 1183.3 613.8 L 1184 612.7 L 1184.6 611.3 L 1184.9 609.6 L 1185 607.7 L 1185 607.7 L 1184.9 605.9 L 1184.6 604.3 L 1184.1 602.9 L 1183.4 601.8 L 1182.5 601 L 1181.6 600.4 L 1180.6 600.1 L 1179.5 599.9 L 1178.3 600.1 L 1177.3 600.4 L 1176.3 601 L 1175.5 601.9 L 1174.7 603.1 L 1174.2 604.4 L 1173.9 606.1 L 1173.8 608.1 L 1173.9 609.9 L 1174.2 611.5 L 1174.7 612.9 L 1175.4 614 L 1176.2 614.9 L 1177.2 615.5 L 1178.2 615.8 L 1179.3 616 L 1180.4 615.8 L 1181.4 615.4 L 1182.4 614.8 L 1183.2 613.9 L 1185 615.5 L 1184.4 616.3 L 1183.8 616.9 L 1183.1 617.5 L 1182.4 617.9 L 1181.7 618.2 L 1180.8 618.5 L 1179.9 618.7 L 1179 618.7 L 1177.7 618.6 L 1176.5 618.4 L 1175.3 617.9 L 1174.3 617.3 L 1173.3 616.6 L 1172.5 615.7 L 1171.8 614.7 L 1171.2 613.5 L 1170.8 612.2 L 1170.5 610.9 L 1170.3 609.5 L 1170.2 608 L 1170.3 606.5 L 1170.5 605 L 1170.8 603.6 L 1171.3 602.3 L 1171.9 601.1 L 1172.7 600.1 L 1173.6 599.2 L 1174.6 598.4 L 1175.7 597.8 L 1176.9 597.4 L 1178.1 597.1 L 1179.2 597 L 1180.1 597.1 L 1180.9 597.2 L 1181.6 597.5 L 1182.4 597.8 L 1183.1 598.2 L 1183.6 598.6 L 1184.2 599.1 L 1184.7 599.7 L 1184.7 589.5 L 1188.2 589.5 L 1188.2 589.5 Z"/><path d="M 1152.3 597.5 L 1152.3 600.5 L 1153.7 599 L 1155.2 597.9 L 1156.9 597.3 L 1158.9 597 L 1159.8 597.1 L 1160.7 597.2 L 1161.6 597.4 L 1162.3 597.7 L 1163.1 598.1 L 1163.8 598.5 L 1164.3 599 L 1164.7 599.5 L 1165.1 600.1 L 1165.4 600.7 L 1165.6 601.4 L 1165.8 602.1 L 1165.9 602.7 L 1166 603.4 L 1166 604.4 L 1166 605.4 L 1166 618.2 L 1162.5 618.2 L 1162.5 606.8 L 1162.5 605.5 L 1162.5 604.4 L 1162.4 603.6 L 1162.3 603 L 1162.1 602.4 L 1161.8 601.8 L 1161.4 601.3 L 1160.9 600.8 L 1160.3 600.5 L 1159.7 600.3 L 1159 600.1 L 1158.2 600.1 L 1157.5 600.1 L 1156.7 600.3 L 1156 600.5 L 1155.3 600.9 L 1154.6 601.3 L 1154.1 601.8 L 1153.6 602.4 L 1153.3 603.1 L 1153.1 603.8 L 1152.9 604.8 L 1152.7 605.9 L 1152.7 607.1 L 1152.7 618.2 L 1149.2 618.2 L 1149.2 597.5 L 1152.3 597.5 L 1152.3 597.5 Z"/><path d="M 1136 600.6 L 1135.5 597.5 L 1136.2 597.4 L 1136.9 597.3 L 1137.5 597.3 L 1138.2 597.2 L 1139.1 597.3 L 1139.9 597.4 L 1140.6 597.6 L 1141.1 597.8 L 1141.6 598.2 L 1142 598.5 L 1142.4 599 L 1142.6 599.4 L 1142.8 600.1 L 1142.9 601 L 1143 602.1 L 1143.1 603.6 L 1143.1 615.5 L 1145.6 615.5 L 1145.6 618.2 L 1143.1 618.2 L 1143.1 623.4 L 1139.5 625.5 L 1139.5 618.2 L 1136 618.2 L 1136 615.5 L 1139.5 615.5 L 1139.5 603.4 L 1139.5 602.7 L 1139.5 602.1 L 1139.4 601.7 L 1139.4 601.4 L 1139.3 601.2 L 1139.1 601 L 1139 600.9 L 1138.8 600.8 L 1138.5 600.6 L 1138.2 600.6 L 1137.9 600.5 L 1137.5 600.5 L 1137.2 600.5 L 1136.9 600.5 L 1136.5 600.6 L 1136 600.6 L 1136 600.6 Z"/><path d="M 1234 907.5 L 1230.2 906.6 L 1230.9 904.4 L 1231.9 902.5 L 1233.1 900.8 L 1234.5 899.5 L 1236.1 898.4 L 1237.9 897.6 L 1239.9 897.1 L 1242.1 897 L 1244.3 897.1 L 1246.2 897.5 L 1248 898.1 L 1249.6 898.9 L 1250.9 899.9 L 1252.1 901.2 L 1253.2 902.7 L 1254 904.4 L 1254.7 906.2 L 1255.1 908.1 L 1255.4 910 L 1255.5 912 L 1255.4 914.2 L 1255.1 916.2 L 1254.5 918.1 L 1253.8 919.8 L 1252.9 921.4 L 1251.7 922.8 L 1250.4 923.9 L 1248.9 924.9 L 1247.3 925.6 L 1245.6 926.2 L 1243.8 926.5 L 1242 926.6 L 1239.9 926.5 L 1238.1 926.1 L 1236.3 925.4 L 1234.8 924.4 L 1233.4 923.2 L 1232.3 921.8 L 1231.4 920.1 L 1230.7 918.3 L 1234.4 917.4 L 1235 918.9 L 1235.6 920.1 L 1236.4 921.1 L 1237.3 921.9 L 1238.3 922.6 L 1239.4 923 L 1240.7 923.3 L 1242.1 923.4 L 1243.6 923.3 L 1245.1 923 L 1246.4 922.5 L 1247.6 921.8 L 1248.6 920.9 L 1249.5 919.9 L 1250.2 918.8 L 1250.7 917.5 L 1251.1 916.2 L 1251.4 914.8 L 1251.6 913.4 L 1251.6 912.1 L 1251.5 910.3 L 1251.3 908.6 L 1251 907.1 L 1250.5 905.7 L 1249.9 904.4 L 1249.2 903.3 L 1248.3 902.3 L 1247.2 901.6 L 1246.1 901 L 1244.9 900.6 L 1243.6 900.3 L 1242.4 900.3 L 1240.8 900.4 L 1239.4 900.7 L 1238.1 901.3 L 1237 902.1 L 1236 903.1 L 1235.1 904.4 L 1234.5 905.8 L 1234 907.5 L 1234 907.5 Z"/><path d="M 1227.3 907.9 L 1227.1 910.6 L 1226.5 912.9 L 1225.5 914.8 L 1224.1 916.4 L 1222.7 917.4 L 1221.1 918.1 L 1219.4 918.6 L 1217.5 918.7 L 1215.5 918.5 L 1213.7 918 L 1212 917.1 L 1210.6 915.9 L 1209.4 914.4 L 1208.5 912.6 L 1208 910.5 L 1207.9 908.2 L 1207.9 906.3 L 1208.2 904.6 L 1208.5 903.1 L 1209 901.9 L 1209.7 900.8 L 1210.5 899.8 L 1211.5 899 L 1212.5 898.3 L 1213.7 897.7 L 1214.9 897.3 L 1216.2 897.1 L 1217.5 897 L 1217.8 897.1 L 1217.5 899.9 L 1216.3 900.1 L 1215.2 900.4 L 1214.1 901 L 1213.2 901.9 L 1212.5 903.1 L 1211.9 904.4 L 1211.6 906.1 L 1211.5 908 L 1211.6 909.8 L 1211.9 911.4 L 1212.5 912.7 L 1213.2 913.8 L 1214.2 914.7 L 1215.2 915.3 L 1216.3 915.7 L 1217.5 915.8 L 1218.8 915.7 L 1220 915.3 L 1221 914.7 L 1221.9 913.8 L 1222.7 912.7 L 1223.2 911.4 L 1223.6 909.7 L 1223.7 907.9 L 1223.7 907.9 L 1223.6 906 L 1223.2 904.4 L 1222.7 903 L 1221.9 901.9 L 1221 901 L 1220 900.4 L 1218.8 900.1 L 1217.5 899.9 L 1217.8 897.1 L 1219.6 897.2 L 1221.5 897.7 L 1223.2 898.6 L 1224.6 899.8 L 1225.8 901.4 L 1226.6 903.2 L 1227.1 905.4 L 1227.3 907.9 L 1227.3 907.9 Z"/><path d="M 1203.7 897.5 L 1203.7 918.2 L 1200.6 918.2 L 1200.6 915.3 L 1199.3 916.8 L 1197.8 917.9 L 1196 918.5 L 1194 918.7 L 1193.1 918.7 L 1192.1 918.5 L 1191.3 918.3 L 1190.5 918.1 L 1189.8 917.7 L 1189.2 917.3 L 1188.6 916.8 L 1188.2 916.3 L 1187.8 915.7 L 1187.5 915.1 L 1187.3 914.4 L 1187.1 913.7 L 1187 913.1 L 1186.9 912.3 L 1186.9 911.4 L 1186.9 910.3 L 1186.9 897.5 L 1190.4 897.5 L 1190.4 910.1 L 1190.4 911.1 L 1190.5 912 L 1190.6 912.7 L 1190.8 913.3 L 1191 913.8 L 1191.4 914.3 L 1191.8 914.7 L 1192.3 915 L 1192.8 915.3 L 1193.4 915.5 L 1194 915.6 L 1194.7 915.6 L 1195.8 915.6 L 1196.8 915.3 L 1197.7 914.9 L 1198.6 914.2 L 1199.3 913.4 L 1199.8 912.2 L 1200.1 910.6 L 1200.2 908.8 L 1200.2 897.5 L 1203.7 897.5 L 1203.7 897.5 Z"/><path d="M 1173.8 900.6 L 1173.3 897.5 L 1174 897.4 L 1174.7 897.3 L 1175.3 897.3 L 1176 897.2 L 1176.9 897.3 L 1177.7 897.4 L 1178.3 897.6 L 1178.9 897.8 L 1179.4 898.2 L 1179.8 898.5 L 1180.1 899 L 1180.4 899.4 L 1180.6 900.1 L 1180.7 901 L 1180.8 902.1 L 1180.8 903.6 L 1180.8 915.5 L 1183.4 915.5 L 1183.4 918.2 L 1180.8 918.2 L 1180.8 923.4 L 1177.3 925.5 L 1177.3 918.2 L 1173.8 918.2 L 1173.8 915.5 L 1177.3 915.5 L 1177.3 903.4 L 1177.3 902.7 L 1177.3 902.1 L 1177.2 901.7 L 1177.1 901.4 L 1177.1 901.2 L 1176.9 901 L 1176.8 900.9 L 1176.6 900.8 L 1176.3 900.6 L 1176 900.6 L 1175.7 900.5 L 1175.3 900.5 L 1175 900.5 L 1174.7 900.5 L 1174.3 900.6 L 1173.8 900.6 L 1173.8 900.6 Z"/><path d="M 1170.4 897.5 L 1170.4 918.2 L 1167.3 918.2 L 1167.3 915.1 L 1166.6 916.1 L 1166.1 916.9 L 1165.5 917.6 L 1165 918 L 1164.5 918.3 L 1163.9 918.5 L 1163.4 918.7 L 1162.7 918.7 L 1161.9 918.6 L 1161 918.4 L 1160.1 918.1 L 1159.2 917.6 L 1160.3 914.3 L 1161 914.7 L 1161.6 914.9 L 1162.3 915 L 1162.9 915.1 L 1163.5 915 L 1164 914.9 L 1164.5 914.7 L 1165 914.4 L 1165.4 914 L 1165.8 913.6 L 1166.1 913.1 L 1166.3 912.5 L 1166.6 911.5 L 1166.8 910.5 L 1166.9 909.5 L 1166.9 908.4 L 1166.9 897.5 L 1170.4 897.5 L 1170.4 897.5 Z"/><path d="M 1158.4 907.9 L 1158.2 910.6 L 1157.5 912.9 L 1156.6 914.8 L 1155.1 916.4 L 1153.8 917.4 L 1152.2 918.1 L 1150.5 918.6 L 1148.6 918.7 L 1146.6 918.5 L 1144.7 918 L 1143.1 917.1 L 1141.6 915.9 L 1140.5 914.4 L 1139.6 912.6 L 1139.1 910.5 L 1138.9 908.2 L 1139 906.3 L 1139.2 904.6 L 1139.6 903.1 L 1140.1 901.9 L 1140.8 900.8 L 1141.6 899.8 L 1142.5 899 L 1143.6 898.3 L 1144.8 897.7 L 1146 897.3 L 1147.3 897.1 L 1148.6 897 L 1148.9 897.1 L 1148.6 899.9 L 1147.4 900.1 L 1146.2 900.4 L 1145.2 901 L 1144.3 901.9 L 1143.5 903.1 L 1143 904.4 L 1142.7 906.1 L 1142.5 908 L 1142.7 909.8 L 1143 911.4 L 1143.5 912.7 L 1144.3 913.8 L 1145.2 914.7 L 1146.2 915.3 L 1147.4 915.7 L 1148.6 915.8 L 1149.9 915.7 L 1151 915.3 L 1152.1 914.7 L 1153 913.8 L 1153.8 912.7 L 1154.3 911.4 L 1154.6 909.7 L 1154.7 907.9 L 1154.7 907.9 L 1154.6 906 L 1154.3 904.4 L 1153.8 903 L 1153 901.9 L 1152.1 901 L 1151 900.4 L 1149.9 900.1 L 1148.6 899.9 L 1148.9 897.1 L 1150.7 897.2 L 1152.6 897.7 L 1154.2 898.6 L 1155.7 899.8 L 1156.8 901.4 L 1157.7 903.2 L 1158.2 905.4 L 1158.4 907.9 L 1158.4 907.9 Z"/><path d="M 1134.9 897.5 L 1134.9 926.1 L 1131.4 926.1 L 1131.4 897.5 L 1134.9 897.5 L 1134.9 897.5 Z"/><path d="M 1617.5 327.2 L 1667.6 307.8 L 1667.6 315 L 1631.2 328 L 1629 328.8 L 1626.9 329.5 L 1624.9 330.1 L 1623 330.6 L 1625.1 331.2 L 1627.1 331.9 L 1629.2 332.6 L 1631.2 333.3 L 1667.6 346.9 L 1667.6 353.6 L 1617.5 334 L 1617.5 327.2 L 1617.5 327.2 Z"/><path d="M 1629.2 379.8 L 1628.4 386.2 L 1625.8 385.3 L 1623.4 384 L 1621.4 382.5 L 1619.7 380.6 L 1618.4 378.4 L 1617.5 376 L 1616.9 373.2 L 1616.7 370.2 L 1617 366.4 L 1617.9 363.1 L 1619.4 360.1 L 1621.6 357.5 L 1624.3 355.5 L 1627.5 354.1 L 1631.2 353.2 L 1635.3 352.9 L 1639.7 353.2 L 1643.5 354.1 L 1646.8 355.5 L 1649.5 357.6 L 1651.8 360.1 L 1653.4 363 L 1654.3 366.3 L 1654.6 369.9 L 1654.6 370.4 L 1649.5 369.9 L 1649.4 367.9 L 1648.8 366 L 1648 364.3 L 1646.7 362.8 L 1645.2 361.5 L 1643.4 360.5 L 1641.4 359.9 L 1639.2 359.6 L 1639.2 359.6 L 1639.2 379.9 L 1641.3 379.5 L 1643.1 379.1 L 1644.7 378.4 L 1646 377.5 L 1647.6 376 L 1648.7 374.2 L 1649.4 372.1 L 1649.5 369.9 L 1654.6 370.4 L 1654.3 373.3 L 1653.4 376.5 L 1651.8 379.3 L 1649.7 381.8 L 1646.9 383.8 L 1643.7 385.2 L 1639.9 386.1 L 1635.7 386.4 L 1635.4 386.4 L 1635 386.4 L 1634.6 386.3 L 1634.1 386.3 L 1634.1 359.2 L 1631.3 359.6 L 1628.8 360.3 L 1626.7 361.3 L 1624.9 362.6 L 1623.5 364.2 L 1622.5 366 L 1621.9 368.1 L 1621.8 370.2 L 1621.8 371.9 L 1622.2 373.4 L 1622.7 374.7 L 1623.5 376 L 1624.5 377.1 L 1625.8 378.1 L 1627.4 379 L 1629.2 379.8 L 1629.2 379.8 Z"/><path d="M 1617.5 393.8 L 1653.8 393.8 L 1653.8 399.4 L 1648.3 399.4 L 1650.1 400.4 L 1651.5 401.4 L 1652.6 402.3 L 1653.4 403.2 L 1653.9 404.2 L 1654.3 405.1 L 1654.5 406.2 L 1654.6 407.2 L 1654.5 408.8 L 1654.1 410.3 L 1653.5 411.9 L 1652.6 413.5 L 1646.9 411.4 L 1647.5 410.3 L 1647.9 409.2 L 1648.2 408 L 1648.2 406.9 L 1648.2 405.9 L 1648 405 L 1647.6 404.1 L 1647.1 403.3 L 1646.4 402.5 L 1645.6 401.9 L 1644.7 401.4 L 1643.7 401 L 1642 400.5 L 1640.3 400.2 L 1638.4 400 L 1636.5 399.9 L 1617.5 399.9 L 1617.5 393.8 L 1617.5 393.8 Z"/><path d="M 1628.3 414.7 L 1629.3 420.8 L 1627.6 421.2 L 1626 421.8 L 1624.8 422.6 L 1623.7 423.6 L 1622.8 424.9 L 1622.2 426.5 L 1621.9 428.2 L 1621.8 430.2 L 1621.8 432.2 L 1622.2 433.9 L 1622.7 435.3 L 1623.4 436.5 L 1624.4 437.4 L 1625.3 438.1 L 1626.4 438.4 L 1627.5 438.6 L 1628.5 438.4 L 1629.4 438.1 L 1630.1 437.5 L 1630.8 436.8 L 1631.2 435.9 L 1631.7 434.5 L 1632.3 432.7 L 1632.9 430.5 L 1633.7 427.3 L 1634.5 424.7 L 1635.2 422.6 L 1635.8 421.1 L 1636.5 419.8 L 1637.3 418.8 L 1638.2 417.9 L 1639.3 417.1 L 1640.4 416.5 L 1641.6 416.1 L 1642.9 415.8 L 1644.2 415.8 L 1645.3 415.8 L 1646.5 416 L 1647.6 416.4 L 1648.6 416.9 L 1649.6 417.5 L 1650.5 418.2 L 1651.4 419 L 1652.1 419.9 L 1652.6 420.6 L 1653.1 421.6 L 1653.5 422.6 L 1653.9 423.8 L 1654.2 425.1 L 1654.4 426.4 L 1654.6 427.7 L 1654.6 429.1 L 1654.5 431.2 L 1654.3 433.1 L 1653.9 434.9 L 1653.4 436.6 L 1652.7 438.1 L 1651.9 439.4 L 1651 440.5 L 1650.1 441.4 L 1648.9 442.1 L 1647.6 442.7 L 1646.1 443.2 L 1644.4 443.5 L 1643.6 437.5 L 1644.9 437.2 L 1646.1 436.7 L 1647.1 436 L 1648 435.1 L 1648.7 434 L 1649.2 432.7 L 1649.5 431.2 L 1649.5 429.5 L 1649.5 427.6 L 1649.2 425.9 L 1648.8 424.5 L 1648.2 423.5 L 1647.4 422.7 L 1646.6 422.1 L 1645.8 421.8 L 1644.9 421.7 L 1644.3 421.8 L 1643.8 421.9 L 1643.2 422.1 L 1642.7 422.5 L 1642.3 422.9 L 1641.8 423.4 L 1641.4 424.1 L 1641.1 424.8 L 1640.8 425.5 L 1640.5 426.6 L 1640.1 428.2 L 1639.5 430.3 L 1638.7 433.2 L 1637.9 435.8 L 1637.3 437.8 L 1636.7 439.4 L 1636 440.6 L 1635.3 441.6 L 1634.4 442.6 L 1633.4 443.4 L 1632.3 444 L 1631 444.5 L 1629.7 444.8 L 1628.2 444.9 L 1626.6 444.7 L 1625.2 444.4 L 1623.8 443.9 L 1622.4 443.1 L 1621.1 442.1 L 1620 440.9 L 1619 439.5 L 1618.2 437.9 L 1617.5 436.2 L 1617.1 434.3 L 1616.8 432.3 L 1616.7 430.3 L 1616.9 426.9 L 1617.4 424 L 1618.3 421.5 L 1619.6 419.5 L 1621.3 417.8 L 1623.3 416.4 L 1625.6 415.4 L 1628.3 414.7 L 1628.3 414.7 Z"/><path d="M 1617.5 452.2 L 1653.8 452.2 L 1653.8 458.4 L 1617.5 458.4 L 1617.5 452.2 L 1617.5 452.2 Z"/><path d="M 1660.5 452.2 L 1667.6 452.2 L 1667.6 458.4 L 1660.5 458.4 L 1660.5 452.2 L 1660.5 452.2 Z"/><path d="M 1635.6 465.5 L 1640.4 465.8 L 1644.4 466.8 L 1647.8 468.6 L 1650.6 471 L 1652.3 473.5 L 1653.6 476.2 L 1654.4 479.2 L 1654.6 482.5 L 1654.3 486 L 1653.4 489.3 L 1651.9 492.1 L 1649.7 494.7 L 1647 496.8 L 1643.9 498.2 L 1640.3 499.2 L 1636.2 499.5 L 1632.9 499.3 L 1629.9 498.9 L 1627.3 498.3 L 1625.1 497.3 L 1623.2 496.2 L 1621.6 494.8 L 1620.1 493.1 L 1618.9 491.2 L 1617.9 489.2 L 1617.2 487 L 1616.8 484.8 L 1616.7 482.5 L 1616.7 482 L 1621.8 482.5 L 1621.9 484.7 L 1622.6 486.7 L 1623.7 488.5 L 1625.2 490.1 L 1627.2 491.4 L 1629.6 492.4 L 1632.5 492.9 L 1635.8 493.1 L 1639 492.9 L 1641.8 492.4 L 1644.1 491.4 L 1646 490.1 L 1647.6 488.4 L 1648.6 486.6 L 1649.3 484.7 L 1649.5 482.5 L 1649.3 480.3 L 1648.7 478.2 L 1647.6 476.4 L 1646.1 474.8 L 1644.1 473.5 L 1641.8 472.5 L 1638.9 471.9 L 1635.6 471.8 L 1635.6 471.8 L 1632.4 471.9 L 1629.5 472.5 L 1627.1 473.5 L 1625.2 474.8 L 1623.7 476.4 L 1622.6 478.2 L 1621.9 480.3 L 1621.8 482.5 L 1616.7 482 L 1617 478.8 L 1617.9 475.6 L 1619.4 472.7 L 1621.6 470.1 L 1624.3 468.1 L 1627.5 466.6 L 1631.3 465.7 L 1635.6 465.5 L 1635.6 465.5 Z"/><path d="M 1617.5 506.7 L 1653.8 506.7 L 1653.8 512.2 L 1648.6 512.2 L 1651.2 514.4 L 1653.1 517.1 L 1654.2 520.2 L 1654.6 523.8 L 1654.5 525.4 L 1654.3 526.9 L 1654 528.4 L 1653.4 529.8 L 1652.8 531.1 L 1652.1 532.2 L 1651.2 533.1 L 1650.3 533.9 L 1649.4 534.5 L 1648.2 535.1 L 1647.1 535.5 L 1645.8 535.8 L 1644.8 536 L 1643.4 536.1 L 1641.8 536.2 L 1639.8 536.2 L 1617.5 536.2 L 1617.5 530 L 1639.6 530 L 1641.4 530 L 1642.9 529.8 L 1644.2 529.6 L 1645.2 529.3 L 1646.1 528.9 L 1646.9 528.3 L 1647.6 527.6 L 1648.2 526.8 L 1648.7 525.8 L 1649 524.7 L 1649.2 523.6 L 1649.3 522.5 L 1649.1 520.6 L 1648.7 518.8 L 1647.9 517.2 L 1646.8 515.7 L 1645.3 514.4 L 1643.2 513.5 L 1640.5 513 L 1637.3 512.8 L 1617.5 512.8 L 1617.5 506.7 L 1617.5 506.7 Z"/><path d="M 1617.5 586.5 L 1617.5 580.4 L 1656.7 580.4 L 1655.6 579.2 L 1654.6 577.8 L 1653.5 576.2 L 1652.5 574.5 L 1651.5 572.8 L 1650.6 571.1 L 1649.9 569.5 L 1649.3 568.1 L 1655.2 568.1 L 1656.5 570.6 L 1657.9 572.9 L 1659.5 575.1 L 1661.1 577.1 L 1662.8 578.9 L 1664.5 580.4 L 1666.2 581.6 L 1667.8 582.5 L 1667.8 586.5 L 1617.5 586.5 L 1617.5 586.5 Z"/><path d="M 1617.5 605.7 L 1624.5 605.7 L 1624.5 612.7 L 1617.5 612.7 L 1617.5 605.7 L 1617.5 605.7 Z"/><path d="M 1617.5 644.9 L 1617.5 638.7 L 1656.7 638.7 L 1655.6 637.5 L 1654.6 636.2 L 1653.5 634.6 L 1652.5 632.9 L 1651.5 631.2 L 1650.6 629.5 L 1649.9 627.9 L 1649.3 626.4 L 1655.2 626.4 L 1656.5 628.9 L 1657.9 631.3 L 1659.5 633.4 L 1661.1 635.5 L 1662.8 637.3 L 1664.5 638.8 L 1666.2 640 L 1667.8 640.9 L 1667.8 644.9 L 1617.5 644.9 L 1617.5 644.9 Z"/><path d="M 1617.5 664.1 L 1624.5 664.1 L 1624.5 671.1 L 1617.5 671.1 L 1617.5 664.1 L 1617.5 664.1 Z"/><path d="M 1642.2 680.1 L 1646.4 680.2 L 1650.2 680.6 L 1653.6 681.1 L 1656.5 681.9 L 1659.1 682.9 L 1661.3 684.2 L 1663.2 685.6 L 1664.9 687.3 L 1666.2 689.3 L 1667.1 691.4 L 1667.6 693.8 L 1667.8 696.4 L 1667.7 698.4 L 1667.4 700.2 L 1666.9 701.9 L 1666.2 703.5 L 1665.3 705 L 1664.2 706.3 L 1662.9 707.5 L 1661.5 708.5 L 1659.9 709.5 L 1658.1 710.3 L 1656.2 711 L 1654.1 711.6 L 1651.7 712.1 L 1648.9 712.5 L 1645.7 712.7 L 1642.2 712.8 L 1638 712.7 L 1634.2 712.3 L 1630.9 711.8 L 1628 711 L 1625.4 709.9 L 1623.2 708.7 L 1621.2 707.2 L 1619.6 705.5 L 1618.3 703.6 L 1617.4 701.5 L 1616.8 699.1 L 1616.6 696.4 L 1616.7 696 L 1621.7 696.4 L 1621.9 698.5 L 1622.7 700.3 L 1624 702 L 1625.8 703.6 L 1628.4 704.8 L 1631.9 705.7 L 1636.6 706.3 L 1642.2 706.4 L 1647.9 706.3 L 1652.5 705.7 L 1656.1 704.8 L 1658.6 703.6 L 1660.4 702 L 1661.7 700.3 L 1662.5 698.4 L 1662.7 696.4 L 1662.5 694.4 L 1661.8 692.5 L 1660.7 691 L 1659.1 689.6 L 1656.4 688.2 L 1652.6 687.2 L 1647.9 686.6 L 1642.2 686.4 L 1642.2 686.4 L 1636.6 686.6 L 1631.9 687.1 L 1628.4 688.1 L 1625.8 689.3 L 1624 690.8 L 1622.7 692.5 L 1621.9 694.4 L 1621.7 696.4 L 1616.7 696 L 1617 693 L 1617.9 690 L 1619.6 687.3 L 1621.8 685.1 L 1625.5 682.9 L 1630.1 681.3 L 1635.6 680.4 L 1642.2 680.1 L 1642.2 680.1 Z"/><path d="M 1747.5 57.4 L 1794.2 75.3 L 1792.3 80.1 L 1789.9 79.5 L 1787.5 78.9 L 1785.1 78.2 L 1782.8 77.3 L 1768.1 71.9 L 1768.1 71.9 L 1768.1 88.8 L 1781.9 83.6 L 1785 82.5 L 1787.7 81.5 L 1790.2 80.7 L 1792.3 80.1 L 1794.2 75.3 L 1797.6 76.6 L 1797.6 83.8 L 1747.5 104.3 L 1747.5 96.8 L 1762.7 90.9 L 1762.7 69.9 L 1747.5 64.4 L 1747.5 57.4 L 1747.5 57.4 Z"/><path d="M 1758.3 106.4 L 1759.3 112.4 L 1757.6 112.8 L 1756 113.4 L 1754.8 114.2 L 1753.7 115.3 L 1752.8 116.6 L 1752.2 118.1 L 1751.9 119.8 L 1751.8 121.8 L 1751.8 123.8 L 1752.2 125.5 L 1752.7 126.9 L 1753.4 128.1 L 1754.4 129 L 1755.3 129.7 L 1756.4 130 L 1757.5 130.2 L 1758.5 130.1 L 1759.4 129.7 L 1760.1 129.2 L 1760.8 128.4 L 1761.2 127.5 L 1761.7 126.2 L 1762.3 124.4 L 1762.9 122.1 L 1763.7 119 L 1764.5 116.3 L 1765.2 114.2 L 1765.8 112.7 L 1766.5 111.4 L 1767.3 110.4 L 1768.2 109.5 L 1769.3 108.7 L 1770.4 108.1 L 1771.6 107.7 L 1772.9 107.5 L 1774.2 107.4 L 1775.3 107.4 L 1776.5 107.7 L 1777.6 108 L 1778.6 108.5 L 1779.6 109.1 L 1780.5 109.8 L 1781.4 110.6 L 1782.1 111.5 L 1782.6 112.3 L 1783.1 113.2 L 1783.5 114.2 L 1783.9 115.4 L 1784.2 116.7 L 1784.4 118 L 1784.6 119.4 L 1784.6 120.7 L 1784.5 122.8 L 1784.3 124.7 L 1783.9 126.6 L 1783.4 128.2 L 1782.7 129.7 L 1781.9 131 L 1781 132.1 L 1780.1 133 L 1778.9 133.7 L 1777.6 134.3 L 1776.1 134.8 L 1774.4 135.1 L 1773.6 129.1 L 1774.9 128.8 L 1776.1 128.3 L 1777.1 127.6 L 1778 126.7 L 1778.7 125.6 L 1779.2 124.4 L 1779.5 122.9 L 1779.5 121.2 L 1779.5 119.2 L 1779.2 117.5 L 1778.8 116.2 L 1778.2 115.1 L 1777.4 114.4 L 1776.6 113.8 L 1775.8 113.4 L 1774.9 113.3 L 1774.3 113.4 L 1773.8 113.5 L 1773.2 113.7 L 1772.7 114.1 L 1772.3 114.5 L 1771.8 115 L 1771.4 115.7 L 1771.1 116.4 L 1770.8 117.1 L 1770.5 118.2 L 1770.1 119.8 L 1769.5 121.9 L 1768.7 124.9 L 1767.9 127.4 L 1767.3 129.4 L 1766.7 131 L 1766 132.2 L 1765.3 133.3 L 1764.4 134.2 L 1763.4 135 L 1762.3 135.6 L 1761 136.1 L 1759.7 136.4 L 1758.2 136.5 L 1756.6 136.4 L 1755.2 136 L 1753.8 135.5 L 1752.4 134.7 L 1751.1 133.7 L 1750 132.5 L 1749 131.1 L 1748.2 129.5 L 1747.5 127.8 L 1747.1 125.9 L 1746.8 124 L 1746.7 121.9 L 1746.9 118.5 L 1747.4 115.6 L 1748.3 113.1 L 1749.6 111.1 L 1751.3 109.4 L 1753.3 108.1 L 1755.6 107 L 1758.3 106.4 L 1758.3 106.4 Z"/><path d="M 1753 157.2 L 1747.6 158.1 L 1747.3 156.9 L 1747.1 155.6 L 1747.1 154.5 L 1747 153.5 L 1747.1 151.9 L 1747.3 150.5 L 1747.6 149.3 L 1748.1 148.3 L 1748.6 147.4 L 1749.3 146.7 L 1750.1 146.1 L 1750.9 145.7 L 1751.9 145.4 L 1753.6 145.1 L 1755.6 145 L 1758.1 144.9 L 1779 144.9 L 1779 140.4 L 1783.8 140.4 L 1783.8 144.9 L 1792.8 144.9 L 1796.5 151 L 1783.8 151 L 1783.8 157.2 L 1779 157.2 L 1779 151 L 1757.8 151 L 1756.6 151.1 L 1755.6 151.1 L 1754.9 151.2 L 1754.4 151.4 L 1754 151.6 L 1753.7 151.8 L 1753.4 152.1 L 1753.2 152.4 L 1753 152.9 L 1752.9 153.3 L 1752.8 153.9 L 1752.8 154.5 L 1752.8 155.1 L 1752.8 155.7 L 1752.9 156.4 L 1753 157.2 L 1753 157.2 Z"/><path d="M 1747.5 163.2 L 1783.8 163.2 L 1783.8 168.7 L 1778.3 168.7 L 1780.1 169.7 L 1781.5 170.8 L 1782.6 171.7 L 1783.4 172.6 L 1783.9 173.6 L 1784.3 174.5 L 1784.5 175.5 L 1784.6 176.6 L 1784.5 178.1 L 1784.1 179.7 L 1783.5 181.3 L 1782.6 182.9 L 1776.9 180.8 L 1777.5 179.7 L 1777.9 178.5 L 1778.2 177.4 L 1778.2 176.3 L 1778.2 175.3 L 1778 174.4 L 1777.6 173.5 L 1777.1 172.7 L 1776.4 171.9 L 1775.6 171.3 L 1774.7 170.8 L 1773.7 170.4 L 1772 169.9 L 1770.3 169.6 L 1768.4 169.4 L 1766.5 169.4 L 1747.5 169.4 L 1747.5 163.2 L 1747.5 163.2 Z"/><path d="M 1765.6 184.3 L 1770.4 184.6 L 1774.4 185.7 L 1777.8 187.4 L 1780.6 189.9 L 1782.3 192.3 L 1783.6 195.1 L 1784.4 198.1 L 1784.6 201.3 L 1784.3 204.9 L 1783.4 208.1 L 1781.9 211 L 1779.7 213.5 L 1777 215.6 L 1773.9 217.1 L 1770.3 218 L 1766.2 218.3 L 1762.9 218.2 L 1759.9 217.8 L 1757.3 217.1 L 1755.1 216.2 L 1753.2 215 L 1751.6 213.6 L 1750.1 211.9 L 1748.9 210.1 L 1747.9 208 L 1747.2 205.8 L 1746.8 203.6 L 1746.7 201.3 L 1746.7 200.9 L 1751.8 201.3 L 1751.9 203.5 L 1752.6 205.5 L 1753.7 207.3 L 1755.2 208.9 L 1757.2 210.3 L 1759.6 211.2 L 1762.5 211.8 L 1765.8 211.9 L 1769 211.8 L 1771.8 211.2 L 1774.1 210.3 L 1776 208.9 L 1777.6 207.3 L 1778.6 205.5 L 1779.3 203.5 L 1779.5 201.3 L 1779.3 199.1 L 1778.7 197.1 L 1777.6 195.3 L 1776.1 193.6 L 1774.1 192.3 L 1771.8 191.4 L 1768.9 190.8 L 1765.6 190.6 L 1765.6 190.6 L 1762.4 190.8 L 1759.5 191.4 L 1757.1 192.3 L 1755.2 193.6 L 1753.7 195.3 L 1752.6 197.1 L 1751.9 199.1 L 1751.8 201.3 L 1746.7 200.9 L 1747 197.7 L 1747.9 194.4 L 1749.4 191.5 L 1751.6 189 L 1754.3 186.9 L 1757.5 185.5 L 1761.3 184.6 L 1765.6 184.3 L 1765.6 184.3 Z"/><path d="M 1747.5 249 L 1752.1 249 L 1754.9 246.2 L 1755 246.3 L 1756.9 247.6 L 1759.2 248.4 L 1761.9 249 L 1765.1 249.2 L 1768.6 249 L 1771.6 248.4 L 1774 247.5 L 1776 246.3 L 1777.6 244.7 L 1778.6 243.1 L 1779.3 241.2 L 1779.5 239.2 L 1779.3 237.2 L 1778.7 235.5 L 1777.7 233.8 L 1776.2 232.3 L 1774.3 231.2 L 1771.9 230.3 L 1769 229.8 L 1765.6 229.6 L 1765.6 229.6 L 1762.3 229.8 L 1759.5 230.3 L 1757.1 231.2 L 1755.2 232.5 L 1753.7 234.1 L 1752.6 235.7 L 1751.9 237.5 L 1751.8 239.5 L 1751.9 241.4 L 1752.6 243.2 L 1753.6 244.8 L 1754.9 246.2 L 1752.1 249 L 1749.7 247.1 L 1748 244.8 L 1747 242 L 1746.7 238.9 L 1746.8 236.8 L 1747.3 234.7 L 1748 232.8 L 1749.1 230.9 L 1750.4 229.2 L 1751.9 227.7 L 1753.7 226.4 L 1755.8 225.3 L 1758 224.4 L 1760.4 223.8 L 1762.9 223.4 L 1765.6 223.3 L 1768.3 223.4 L 1770.8 223.7 L 1773.2 224.3 L 1775.5 225.1 L 1777.6 226.1 L 1779.4 227.3 L 1781 228.8 L 1782.3 230.5 L 1783.3 232.4 L 1784 234.4 L 1784.5 236.4 L 1784.6 238.6 L 1784.5 240.2 L 1784.3 241.7 L 1783.8 243.1 L 1783.2 244.5 L 1782.5 245.7 L 1781.6 246.8 L 1780.7 247.8 L 1779.6 248.6 L 1797.6 248.6 L 1797.6 254.7 L 1747.5 254.7 L 1747.5 249 L 1747.5 249 Z"/><path d="M 1733.5 264.2 L 1739.3 263.5 L 1739.1 264.4 L 1738.9 265.4 L 1738.8 266.2 L 1738.8 267 L 1738.8 268 L 1738.9 268.8 L 1739.2 269.6 L 1739.4 270.3 L 1739.8 270.8 L 1740.3 271.4 L 1740.8 271.9 L 1741.4 272.3 L 1742 272.6 L 1743 273.1 L 1744.3 273.6 L 1745.9 274.2 L 1746.2 274.3 L 1746.6 274.4 L 1746.9 274.5 L 1747.4 274.7 L 1783.8 260.9 L 1783.8 267.6 L 1762.8 275.1 L 1760.8 275.8 L 1758.7 276.5 L 1756.6 277.1 L 1754.4 277.8 L 1756.5 278.3 L 1758.6 278.9 L 1760.6 279.6 L 1762.7 280.3 L 1783.8 288.1 L 1783.8 294.2 L 1746.9 280.4 L 1744.1 279.4 L 1741.8 278.4 L 1740 277.6 L 1738.6 276.9 L 1737.2 276.1 L 1736 275.2 L 1735 274.2 L 1734.2 273.2 L 1733.6 272.1 L 1733.1 270.8 L 1732.9 269.5 L 1732.8 268.1 L 1732.8 267.2 L 1733 266.2 L 1733.2 265.2 L 1733.5 264.2 L 1733.5 264.2 Z"/><path d="M 1747.5 299.4 L 1783.8 299.4 L 1783.8 305 L 1778.6 305 L 1781.2 307.2 L 1783.1 309.9 L 1784.2 313 L 1784.6 316.5 L 1784.5 318.1 L 1784.3 319.7 L 1784 321.2 L 1783.4 322.5 L 1782.8 323.8 L 1782.1 324.9 L 1781.2 325.9 L 1780.3 326.7 L 1779.4 327.3 L 1778.2 327.8 L 1777.1 328.2 L 1775.8 328.6 L 1774.8 328.7 L 1773.4 328.8 L 1771.8 328.9 L 1769.8 328.9 L 1747.5 328.9 L 1747.5 322.8 L 1769.6 322.8 L 1771.4 322.7 L 1772.9 322.6 L 1774.2 322.4 L 1775.2 322.1 L 1776.1 321.6 L 1776.9 321 L 1777.6 320.3 L 1778.2 319.5 L 1778.7 318.6 L 1779 317.5 L 1779.2 316.4 L 1779.3 315.2 L 1779.1 313.3 L 1778.7 311.6 L 1777.9 309.9 L 1776.8 308.4 L 1775.3 307.2 L 1773.2 306.3 L 1770.5 305.8 L 1767.3 305.6 L 1747.5 305.6 L 1747.5 299.4 L 1747.5 299.4 Z"/><path d="M 1759.2 363.2 L 1758.4 369.5 L 1755.8 368.6 L 1753.4 367.4 L 1751.4 365.9 L 1749.7 364 L 1748.4 361.8 L 1747.5 359.4 L 1746.9 356.6 L 1746.7 353.6 L 1747 349.8 L 1747.9 346.5 L 1749.4 343.5 L 1751.6 341 L 1754.3 338.9 L 1757.5 337.5 L 1761.2 336.6 L 1765.3 336.3 L 1769.7 336.6 L 1773.5 337.5 L 1776.8 339 L 1779.5 341 L 1781.8 343.6 L 1783.4 346.4 L 1784.3 349.7 L 1784.6 353.2 L 1784.6 353.8 L 1779.5 353.3 L 1779.4 351.3 L 1778.8 349.4 L 1778 347.7 L 1776.7 346.2 L 1775.2 344.9 L 1773.4 344 L 1771.4 343.3 L 1769.2 343 L 1769.2 343 L 1769.2 363.3 L 1771.3 363 L 1773.1 362.5 L 1774.7 361.8 L 1776 361 L 1777.6 359.4 L 1778.7 357.6 L 1779.4 355.6 L 1779.5 353.3 L 1784.6 353.8 L 1784.3 356.8 L 1783.4 359.9 L 1781.8 362.7 L 1779.7 365.1 L 1776.9 367.2 L 1773.7 368.6 L 1769.9 369.5 L 1765.7 369.8 L 1765.4 369.8 L 1765 369.7 L 1764.6 369.7 L 1764.1 369.7 L 1764.1 342.7 L 1761.3 343 L 1758.8 343.7 L 1756.7 344.7 L 1754.9 346 L 1753.5 347.7 L 1752.5 349.5 L 1751.9 351.5 L 1751.8 353.6 L 1751.8 355.3 L 1752.2 356.8 L 1752.7 358.2 L 1753.5 359.4 L 1754.5 360.5 L 1755.8 361.6 L 1757.4 362.5 L 1759.2 363.2 L 1759.2 363.2 Z"/><path d="M 1747.5 388.2 L 1794.2 406.1 L 1792.3 410.8 L 1789.9 410.3 L 1787.5 409.7 L 1785.1 409 L 1782.8 408.1 L 1768.1 402.6 L 1768.1 402.6 L 1768.1 419.6 L 1781.9 414.4 L 1785 413.2 L 1787.7 412.3 L 1790.2 411.5 L 1792.3 410.8 L 1794.2 406.1 L 1797.6 407.4 L 1797.6 414.5 L 1747.5 435.1 L 1747.5 427.5 L 1762.7 421.7 L 1762.7 400.7 L 1747.5 395.2 L 1747.5 388.2 L 1747.5 388.2 Z"/><path d="M 1763.6 438.1 L 1764.2 444.4 L 1762.3 444.7 L 1760.7 445.1 L 1759.3 445.7 L 1758 446.4 L 1756.8 447.3 L 1755.8 448.5 L 1754.9 449.9 L 1754.1 451.5 L 1753.4 453.2 L 1753 455.1 L 1752.7 457.1 L 1752.6 459.2 L 1752.7 461 L 1752.9 462.7 L 1753.2 464.4 L 1753.7 465.8 L 1754.4 467.2 L 1755.1 468.4 L 1755.9 469.4 L 1756.8 470.2 L 1757.8 470.8 L 1758.9 471.2 L 1760 471.5 L 1761.1 471.6 L 1762.3 471.5 L 1763.3 471.2 L 1764.3 470.8 L 1765.2 470.2 L 1766.1 469.4 L 1766.8 468.4 L 1767.5 467.2 L 1768.2 465.7 L 1768.6 464.4 L 1769.2 462.5 L 1769.9 459.9 L 1770.6 456.8 L 1771.4 453.6 L 1772.2 450.9 L 1773 448.8 L 1773.8 447.1 L 1774.7 445.5 L 1775.8 444 L 1777.1 442.8 L 1778.4 441.8 L 1779.9 441 L 1781.4 440.5 L 1783 440.1 L 1784.7 440 L 1786.5 440.1 L 1788.3 440.5 L 1790.1 441.2 L 1791.8 442.1 L 1793.3 443.4 L 1794.7 444.8 L 1795.8 446.5 L 1796.8 448.4 L 1797.5 450.6 L 1798.1 452.8 L 1798.4 455.2 L 1798.4 457.7 L 1798.4 460.3 L 1798 462.9 L 1797.5 465.3 L 1796.7 467.5 L 1795.6 469.5 L 1794.5 471.2 L 1793 472.7 L 1791.4 474 L 1789.6 475 L 1787.7 475.8 L 1785.6 476.3 L 1783.5 476.5 L 1783 470.1 L 1785.3 469.7 L 1787.2 469 L 1788.8 468 L 1790.2 466.7 L 1791.2 465 L 1792 463 L 1792.5 460.6 L 1792.6 457.9 L 1792.5 455.1 L 1792.1 452.7 L 1791.4 450.7 L 1790.4 449.2 L 1789.3 447.9 L 1788 447.1 L 1786.6 446.6 L 1785.1 446.4 L 1783.8 446.5 L 1782.6 446.9 L 1781.6 447.5 L 1780.6 448.4 L 1779.8 449.7 L 1778.9 451.8 L 1778 454.7 L 1777.1 458.4 L 1776.2 462.1 L 1775.4 465.2 L 1774.6 467.6 L 1773.9 469.4 L 1772.8 471.5 L 1771.6 473.2 L 1770.3 474.7 L 1768.8 475.9 L 1767.2 476.8 L 1765.5 477.5 L 1763.6 477.9 L 1761.6 478 L 1759.7 477.9 L 1757.8 477.4 L 1755.9 476.7 L 1754.1 475.7 L 1752.5 474.4 L 1751 472.9 L 1749.7 471.1 L 1748.6 469.1 L 1747.7 466.9 L 1747.1 464.5 L 1746.8 462.1 L 1746.6 459.5 L 1746.8 456.2 L 1747.1 453.2 L 1747.8 450.5 L 1748.6 448.1 L 1749.7 445.9 L 1751.1 444 L 1752.7 442.3 L 1754.6 440.8 L 1756.6 439.7 L 1758.8 438.8 L 1761.2 438.3 L 1763.6 438.1 L 1763.6 438.1 Z"/><path d="M 1747.5 487 L 1797.6 487 L 1797.6 504.2 L 1791.7 504.2 L 1791.7 493.7 L 1753.4 493.7 L 1753.4 493.7 L 1753.4 504.4 L 1753.5 506.7 L 1753.6 508.8 L 1753.9 510.6 L 1754.4 512.1 L 1754.9 513.5 L 1755.5 514.7 L 1756.2 515.7 L 1756.9 516.6 L 1758.2 517.8 L 1759.7 518.8 L 1761.4 519.6 L 1763.3 520.3 L 1765.4 520.9 L 1767.7 521.3 L 1770.2 521.6 L 1772.9 521.6 L 1776.6 521.5 L 1779.9 521 L 1782.7 520.2 L 1785 519 L 1786.9 517.7 L 1788.5 516.2 L 1789.8 514.5 L 1790.6 512.8 L 1791.1 511.2 L 1791.4 509.3 L 1791.6 506.9 L 1791.7 504.2 L 1797.6 504.2 L 1797.6 504.3 L 1797.6 507.1 L 1797.4 509.5 L 1797.2 511.5 L 1796.9 513.2 L 1796.3 515.3 L 1795.5 517.2 L 1794.5 519 L 1793.3 520.6 L 1791.5 522.4 L 1789.5 524 L 1787.2 525.4 L 1784.7 526.5 L 1782 527.4 L 1779.2 528 L 1776.1 528.4 L 1772.8 528.5 L 1770.1 528.4 L 1767.5 528.1 L 1765 527.7 L 1762.7 527.1 L 1760.6 526.4 L 1758.7 525.6 L 1756.9 524.7 L 1755.4 523.7 L 1754 522.7 L 1752.8 521.6 L 1751.8 520.4 L 1750.9 519.2 L 1750.1 517.9 L 1749.4 516.4 L 1748.8 514.9 L 1748.4 513.2 L 1748 511.4 L 1747.7 509.4 L 1747.5 507.3 L 1747.5 505.1 L 1747.5 487 L 1747.5 487 Z"/><path d="M 1747.5 558.3 L 1747.5 552.1 L 1786.7 552.1 L 1785.6 550.9 L 1784.6 549.5 L 1783.5 548 L 1782.5 546.3 L 1781.5 544.5 L 1780.6 542.9 L 1779.9 541.3 L 1779.3 539.8 L 1785.2 539.8 L 1786.5 542.3 L 1787.9 544.7 L 1789.5 546.8 L 1791.1 548.8 L 1792.8 550.6 L 1794.5 552.1 L 1796.2 553.4 L 1797.8 554.3 L 1797.8 558.3 L 1747.5 558.3 L 1747.5 558.3 Z"/><path d="M 1772.2 574 L 1776.4 574.2 L 1780.2 574.5 L 1783.6 575.1 L 1786.5 575.8 L 1789.1 576.9 L 1791.3 578.1 L 1793.2 579.6 L 1794.9 581.3 L 1796.2 583.2 L 1797.1 585.4 L 1797.6 587.7 L 1797.8 590.4 L 1797.7 592.3 L 1797.4 594.2 L 1796.9 595.8 L 1796.2 597.5 L 1795.3 598.9 L 1794.2 600.2 L 1792.9 601.4 L 1791.5 602.5 L 1789.9 603.4 L 1788.1 604.2 L 1786.2 605 L 1784.1 605.6 L 1781.7 606.1 L 1778.9 606.4 L 1775.7 606.6 L 1772.2 606.7 L 1768 606.6 L 1764.2 606.2 L 1760.9 605.7 L 1758 604.9 L 1755.4 603.9 L 1753.2 602.6 L 1751.2 601.2 L 1749.6 599.5 L 1748.3 597.5 L 1747.4 595.4 L 1746.8 593 L 1746.6 590.4 L 1746.7 589.9 L 1751.7 590.4 L 1751.9 592.4 L 1752.7 594.3 L 1754 596 L 1755.8 597.5 L 1758.4 598.8 L 1761.9 599.7 L 1766.6 600.2 L 1772.2 600.4 L 1777.9 600.2 L 1782.5 599.7 L 1786.1 598.8 L 1788.6 597.5 L 1790.4 596 L 1791.7 594.3 L 1792.5 592.4 L 1792.7 590.3 L 1792.5 588.3 L 1791.8 586.5 L 1790.7 584.9 L 1789.1 583.5 L 1786.4 582.1 L 1782.6 581.2 L 1777.9 580.6 L 1772.2 580.4 L 1772.2 580.4 L 1766.6 580.5 L 1761.9 581.1 L 1758.4 582 L 1755.8 583.2 L 1754 584.8 L 1752.7 586.5 L 1751.9 588.3 L 1751.7 590.4 L 1746.7 589.9 L 1747 586.9 L 1747.9 583.9 L 1749.6 581.2 L 1751.8 579 L 1755.5 576.8 L 1760.1 575.3 L 1765.6 574.4 L 1772.2 574 L 1772.2 574 Z"/><path d="M 1747.5 615.6 L 1797.6 615.6 L 1797.6 622.3 L 1777 622.3 L 1777 648.3 L 1797.6 648.3 L 1797.6 655 L 1747.5 655 L 1747.5 648.3 L 1771.1 648.3 L 1771.1 622.3 L 1747.5 622.3 L 1747.5 615.6 L 1747.5 615.6 Z"/><path d="M 1747.5 690.3 L 1747.5 684.6 L 1797.6 684.6 L 1797.6 690.8 L 1779.7 690.8 L 1781.9 692.9 L 1783.4 695.2 L 1784.3 697.9 L 1784.6 700.7 L 1784.5 702.4 L 1784.3 704 L 1783.9 705.6 L 1783.3 707.1 L 1782.5 708.5 L 1781.6 709.8 L 1780.6 711 L 1779.5 712 L 1778.2 712.9 L 1776.8 713.7 L 1775.3 714.4 L 1773.6 715 L 1771.8 715.5 L 1770 715.8 L 1768.1 716 L 1766.2 716.1 L 1761.8 715.8 L 1757.9 715 L 1754.6 713.5 L 1751.8 711.5 L 1749.5 709.1 L 1748 706.4 L 1747 703.6 L 1746.7 700.4 L 1747 697.4 L 1748 694.7 L 1749.7 692.3 L 1751.8 690.6 L 1754.4 693.6 L 1752.9 695.5 L 1752 697.6 L 1751.8 699.9 L 1751.9 701.9 L 1752.6 703.7 L 1753.7 705.3 L 1755.3 706.9 L 1757.2 708.2 L 1759.6 709.1 L 1762.4 709.6 L 1765.7 709.8 L 1769 709.7 L 1771.9 709.1 L 1774.3 708.2 L 1776.2 707 L 1777.7 705.5 L 1778.7 703.9 L 1779.4 702.1 L 1779.5 700.2 L 1779.4 698.2 L 1778.7 696.4 L 1777.6 694.7 L 1776 693.2 L 1774.1 691.9 L 1771.8 691 L 1769 690.5 L 1765.9 690.3 L 1765.9 690.3 L 1762.9 690.4 L 1760.3 690.7 L 1758.2 691.3 L 1756.5 692.1 L 1754.4 693.6 L 1751.8 690.6 L 1752 690.3 L 1747.5 690.3 L 1747.5 690.3 Z"/><path d="M 1747.5 723.5 L 1783.8 723.5 L 1783.8 729.1 L 1778.3 729.1 L 1780.1 730.1 L 1781.5 731.1 L 1782.6 732.1 L 1783.4 733 L 1783.9 733.9 L 1784.3 734.9 L 1784.5 735.9 L 1784.6 736.9 L 1784.5 738.5 L 1784.1 740.1 L 1783.5 741.7 L 1782.6 743.2 L 1776.9 741.1 L 1777.5 740 L 1777.9 738.9 L 1778.2 737.7 L 1778.2 736.6 L 1778.2 735.6 L 1778 734.7 L 1777.6 733.8 L 1777.1 733 L 1776.4 732.3 L 1775.6 731.6 L 1774.7 731.1 L 1773.7 730.7 L 1772 730.3 L 1770.3 729.9 L 1768.4 729.7 L 1766.5 729.7 L 1747.5 729.7 L 1747.5 723.5 L 1747.5 723.5 Z"/><path d="M 1759.2 771.8 L 1758.4 778.1 L 1755.8 777.2 L 1753.4 776 L 1751.4 774.4 L 1749.7 772.5 L 1748.4 770.4 L 1747.5 767.9 L 1746.9 765.2 L 1746.7 762.1 L 1747 758.4 L 1747.9 755 L 1749.4 752.1 L 1751.6 749.5 L 1754.3 747.5 L 1757.5 746 L 1761.2 745.1 L 1765.3 744.9 L 1769.7 745.1 L 1773.5 746 L 1776.8 747.5 L 1779.5 749.6 L 1781.8 752.1 L 1783.4 755 L 1784.3 758.2 L 1784.6 761.8 L 1784.6 762.3 L 1779.5 761.9 L 1779.4 759.9 L 1778.8 758 L 1778 756.3 L 1776.7 754.7 L 1775.2 753.5 L 1773.4 752.5 L 1771.4 751.9 L 1769.2 751.6 L 1769.2 751.6 L 1769.2 771.8 L 1771.3 771.5 L 1773.1 771 L 1774.7 770.4 L 1776 769.5 L 1777.6 767.9 L 1778.7 766.1 L 1779.4 764.1 L 1779.5 761.9 L 1784.6 762.3 L 1784.3 765.3 L 1783.4 768.4 L 1781.8 771.2 L 1779.7 773.7 L 1776.9 775.7 L 1773.7 777.2 L 1769.9 778.1 L 1765.7 778.3 L 1765.4 778.3 L 1765 778.3 L 1764.6 778.3 L 1764.1 778.3 L 1764.1 751.2 L 1761.3 751.6 L 1758.8 752.2 L 1756.7 753.2 L 1754.9 754.6 L 1753.5 756.2 L 1752.5 758 L 1751.9 760 L 1751.8 762.2 L 1751.8 763.8 L 1752.2 765.3 L 1752.7 766.7 L 1753.5 768 L 1754.5 769.1 L 1755.8 770.1 L 1757.4 771 L 1759.2 771.8 L 1759.2 771.8 Z"/><path d="M 1752 809.5 L 1750.6 807.9 L 1750.5 807.6 L 1753.9 805.3 L 1754.9 806.4 L 1756 807.3 L 1757.3 808 L 1758.5 808.4 L 1759.9 808.8 L 1761.6 809 L 1763.4 809 L 1765.7 809 L 1765.7 809 L 1765.1 807.1 L 1764.5 804.8 L 1763.9 802.1 L 1763.4 799 L 1763.1 797.2 L 1762.8 795.7 L 1762.5 794.5 L 1762.1 793.6 L 1761.8 792.9 L 1761.3 792.2 L 1760.8 791.6 L 1760.2 791.2 L 1759.5 790.8 L 1758.8 790.5 L 1758 790.4 L 1757.2 790.3 L 1756 790.5 L 1755 790.8 L 1754 791.4 L 1753.1 792.2 L 1752.4 793.2 L 1751.9 794.5 L 1751.6 796 L 1751.5 797.6 L 1751.6 799.4 L 1751.9 801 L 1752.4 802.5 L 1753.1 804 L 1753.9 805.3 L 1750.5 807.6 L 1749.5 806.2 L 1748.6 804.5 L 1747.9 802.9 L 1747.3 801.4 L 1747 799.7 L 1746.8 797.9 L 1746.7 796.2 L 1746.9 793.4 L 1747.4 790.9 L 1748.3 788.8 L 1749.6 787 L 1751.2 785.6 L 1752.9 784.5 L 1754.9 784 L 1757.1 783.8 L 1758.4 783.8 L 1759.6 784.1 L 1760.8 784.4 L 1761.9 785 L 1763 785.6 L 1763.9 786.4 L 1764.7 787.2 L 1765.5 788.2 L 1766.1 789.2 L 1766.6 790.3 L 1767.1 791.4 L 1767.5 792.6 L 1767.7 793.6 L 1768 794.9 L 1768.2 796.3 L 1768.4 798.1 L 1768.9 801.5 L 1769.4 804.5 L 1769.9 807 L 1770.5 809 L 1771.1 809 L 1771.6 809 L 1771.9 809 L 1772.1 809 L 1773.9 809 L 1775.3 808.6 L 1776.5 808.1 L 1777.5 807.3 L 1778.4 806 L 1779 804.4 L 1779.4 802.5 L 1779.5 800.3 L 1779.4 798.3 L 1779.2 796.5 L 1778.7 795.1 L 1778 793.9 L 1777.1 792.9 L 1775.9 792.1 L 1774.4 791.4 L 1772.6 790.8 L 1773.4 784.8 L 1775.3 785.3 L 1776.9 785.9 L 1778.4 786.6 L 1779.7 787.5 L 1780.8 788.6 L 1781.8 789.8 L 1782.6 791.3 L 1783.3 793 L 1783.9 794.8 L 1784.3 796.8 L 1784.5 798.9 L 1784.6 801.2 L 1784.5 803.4 L 1784.4 805.4 L 1784 807.2 L 1783.5 808.8 L 1782.9 810.1 L 1782.3 811.3 L 1781.6 812.2 L 1780.8 813 L 1779.9 813.6 L 1778.9 814.2 L 1777.8 814.6 L 1776.6 814.9 L 1775.6 815.1 L 1774.4 815.2 L 1772.8 815.2 L 1770.9 815.3 L 1762.7 815.3 L 1758.8 815.3 L 1755.7 815.3 L 1753.4 815.5 L 1751.9 815.6 L 1750.7 815.9 L 1749.6 816.2 L 1748.6 816.7 L 1747.5 817.2 L 1747.5 810.8 L 1748.5 810.3 L 1749.6 810 L 1750.7 809.7 L 1752 809.5 L 1752 809.5 Z"/><path d="M 1747.5 824.8 L 1797.6 824.8 L 1797.6 831 L 1769 831 L 1783.8 845.5 L 1783.8 853.5 L 1770.3 839.6 L 1747.5 854.9 L 1747.5 847.3 L 1766 835.3 L 1761.9 831 L 1747.5 831 L 1747.5 824.8 L 1747.5 824.8 Z"/><path d="M 1765.6 857.5 L 1770.4 857.9 L 1774.4 858.9 L 1777.8 860.6 L 1780.6 863.1 L 1782.3 865.6 L 1783.6 868.3 L 1784.4 871.3 L 1784.6 874.5 L 1784.3 878.1 L 1783.4 881.3 L 1781.9 884.2 L 1779.7 886.8 L 1777 888.8 L 1773.9 890.3 L 1770.3 891.2 L 1766.2 891.5 L 1762.9 891.4 L 1759.9 891 L 1757.3 890.3 L 1755.1 889.4 L 1753.2 888.2 L 1751.6 886.8 L 1750.1 885.2 L 1748.9 883.3 L 1747.9 881.2 L 1747.2 879.1 L 1746.8 876.8 L 1746.7 874.5 L 1746.7 874.1 L 1751.8 874.5 L 1751.9 876.7 L 1752.6 878.7 L 1753.7 880.5 L 1755.2 882.1 L 1757.2 883.4 L 1759.6 884.4 L 1762.5 885 L 1765.8 885.2 L 1769 885 L 1771.8 884.4 L 1774.1 883.4 L 1776 882.1 L 1777.6 880.5 L 1778.6 878.7 L 1779.3 876.7 L 1779.5 874.5 L 1779.3 872.3 L 1778.7 870.3 L 1777.6 868.5 L 1776.1 866.9 L 1774.1 865.5 L 1771.8 864.6 L 1768.9 864 L 1765.6 863.8 L 1765.6 863.8 L 1762.4 864 L 1759.5 864.6 L 1757.1 865.5 L 1755.2 866.9 L 1753.7 868.5 L 1752.6 870.3 L 1751.9 872.3 L 1751.8 874.5 L 1746.7 874.1 L 1747 870.9 L 1747.9 867.6 L 1749.4 864.7 L 1751.6 862.2 L 1754.3 860.1 L 1757.5 858.7 L 1761.3 857.8 L 1765.6 857.5 L 1765.6 857.5 Z"/><path d="M 1747.5 922.5 L 1752.8 922.5 L 1750.1 920.2 L 1748.2 917.5 L 1747.1 914.4 L 1746.7 911 L 1746.8 909.4 L 1747 907.9 L 1747.4 906.4 L 1747.9 905 L 1748.6 903.7 L 1749.3 902.5 L 1750.1 901.6 L 1751 900.8 L 1752 900.2 L 1753.1 899.7 L 1754.3 899.3 L 1755.6 899 L 1756.6 898.8 L 1757.9 898.7 L 1759.5 898.6 L 1761.3 898.6 L 1783.8 898.6 L 1783.8 904.7 L 1763.7 904.7 L 1761.4 904.7 L 1759.6 904.8 L 1758.2 904.9 L 1757.2 905.1 L 1756 905.5 L 1755 906 L 1754.1 906.7 L 1753.4 907.6 L 1752.8 908.6 L 1752.3 909.7 L 1752.1 910.9 L 1752 912.2 L 1752.1 913.6 L 1752.3 914.9 L 1752.8 916.2 L 1753.4 917.4 L 1754.2 918.5 L 1755.1 919.5 L 1756.1 920.3 L 1757.3 920.8 L 1758.6 921.3 L 1760.3 921.6 L 1762.1 921.8 L 1764.4 921.8 L 1783.8 921.8 L 1783.8 928 L 1747.5 928 L 1747.5 922.5 L 1747.5 922.5 Z"/><path d="M 1753 951.1 L 1747.6 951.9 L 1747.3 950.7 L 1747.1 949.5 L 1747.1 948.4 L 1747 947.3 L 1747.1 945.7 L 1747.3 944.4 L 1747.6 943.1 L 1748.1 942.1 L 1748.6 941.3 L 1749.3 940.5 L 1750.1 940 L 1750.9 939.5 L 1751.9 939.2 L 1753.6 939 L 1755.6 938.8 L 1758.1 938.8 L 1779 938.8 L 1779 934.3 L 1783.8 934.3 L 1783.8 938.8 L 1792.8 938.8 L 1796.5 944.9 L 1783.8 944.9 L 1783.8 951.1 L 1779 951.1 L 1779 944.9 L 1757.8 944.9 L 1756.6 944.9 L 1755.6 945 L 1754.9 945.1 L 1754.4 945.2 L 1754 945.4 L 1753.7 945.6 L 1753.4 945.9 L 1753.2 946.3 L 1753 946.7 L 1752.9 947.1 L 1752.8 947.7 L 1752.8 948.4 L 1752.8 948.9 L 1752.8 949.5 L 1752.9 950.3 L 1753 951.1 L 1753 951.1 Z"/></g></g><use class="pcb_board-cf" mask="url(#pcb_bottom-cu_finish-mask)" xlink:href="#pcb_bottom-sm"/></g></g></svg>