<?xml-stylesheet href="https://s3.amazonaws.com/maker.works.boards/css/blackpcb_tcu.css" type="text/css"?><svg xmlns="http://www.w3.org/2000/svg" version="1.1" xmlns:xlink="http://www.w3.org/1999/xlink" width="3.468in" height="0.968in" viewBox="23.5 23.5 3468 968" stroke-linecap="round" stroke-linejoin="round" stroke-width="0" stroke="#000"><defs><circle cx="0" cy="0" r="108.25" id="tool-D11-pad-1019"/><circle cx="0" cy="0" r="40.35" id="tool-D12-pad-1020"/><rect x="-40.3545" y="-40.3545" width="80.709" height="80.709" transform="rotate(270)" id="tool-D13-pad-1021"/><circle cx="0" cy="0" r="40.35" id="tool-D14-pad-1022"/><rect x="-40.3545" y="-40.3545" width="80.709" height="80.709" transform="rotate(90)" id="tool-D15-pad-1023"/><circle cx="0" cy="0" r="50" id="tool-D16-pad-1024"/></defs><g fill="currentColor" stroke="currentColor" transform="translate(0,1015) scale(1,-1)"><path stroke-width="2" fill="none" d="M 3490.5 990.5 L 3490.5 990.5 M 3490.5 990.5 L 24.5 990.5 M 24.5 990.5 L 24.5 24.5 M 24.5 24.5 L 3490.5 24.5 M 3490.5 24.5 L 3490.5 990.5 M 154.5 741.2 L 154.5 741.2 M 154.5 741.2 L 154.5 750.2 M 154.5 750.2 L 160.5 750.2 M 160.5 750.2 L 160.5 741.2 M 160.5 741.2 L 161.2 740.6 M 161.2 740.6 L 183.6 743.1 M 183.6 743.1 L 183.6 743.1 M 183.6 743.1 L 208.4 751.8 M 208.4 751.8 L 208.4 751.8 M 208.4 751.8 L 230.6 765.8 M 230.6 765.8 L 230.7 765.8 M 230.7 765.8 L 249.2 784.3 M 249.2 784.3 L 249.2 784.4 M 249.2 784.4 L 263.2 806.6 M 263.2 806.6 L 263.2 806.6 M 263.2 806.6 L 271.9 831.4 M 271.9 831.4 L 271.9 831.4 M 271.9 831.4 L 274.4 853.8 M 274.4 853.8 L 273.8 854.5 M 273.8 854.5 L 264.8 854.5 M 264.8 854.5 L 264.8 860.5 M 264.8 860.5 L 273.8 860.5 M 273.8 860.5 L 274.4 861.2 M 274.4 861.2 L 271.9 883.6 M 271.9 883.6 L 271.9 883.6 M 271.9 883.6 L 263.2 908.4 M 263.2 908.4 L 263.2 908.4 M 263.2 908.4 L 249.2 930.6 M 249.2 930.6 L 249.2 930.7 M 249.2 930.7 L 230.7 949.2 M 230.7 949.2 L 230.6 949.2 M 230.6 949.2 L 208.4 963.2 M 208.4 963.2 L 208.4 963.2 M 208.4 963.2 L 183.6 971.9 M 183.6 971.9 L 183.6 971.9 M 183.6 971.9 L 161.2 974.4 M 161.2 974.4 L 160.5 973.8 M 160.5 973.8 L 160.5 964.8 M 160.5 964.8 L 154.5 964.8 M 154.5 964.8 L 154.5 973.8 M 154.5 973.8 L 153.8 974.4 M 153.8 974.4 L 131.4 971.9 M 131.4 971.9 L 131.4 971.9 M 131.4 971.9 L 106.6 963.2 M 106.6 963.2 L 106.6 963.2 M 106.6 963.2 L 84.4 949.2 M 84.4 949.2 L 84.3 949.2 M 84.3 949.2 L 65.8 930.7 M 65.8 930.7 L 65.8 930.6 M 65.8 930.6 L 51.8 908.4 M 51.8 908.4 L 51.8 908.4 M 51.8 908.4 L 43.1 883.6 M 43.1 883.6 L 43.1 883.6 M 43.1 883.6 L 40.6 861.2 M 40.6 861.2 L 41.2 860.5 M 41.2 860.5 L 50.2 860.5 M 50.2 860.5 L 50.2 854.5 M 50.2 854.5 L 41.2 854.5 M 41.2 854.5 L 40.6 853.8 M 40.6 853.8 L 43.1 831.4 M 43.1 831.4 L 43.1 831.4 M 43.1 831.4 L 51.8 806.6 M 51.8 806.6 L 51.8 806.6 M 51.8 806.6 L 65.8 784.4 M 65.8 784.4 L 65.8 784.3 M 65.8 784.3 L 84.3 765.8 M 84.3 765.8 L 84.4 765.8 M 84.4 765.8 L 106.6 751.8 M 106.6 751.8 L 106.6 751.8 M 106.6 751.8 L 131.4 743.1 M 131.4 743.1 L 131.4 743.1 M 131.4 743.1 L 153.8 740.6 M 153.8 740.6 L 154.5 741.2 M 3383.6 743.1 L 3383.6 743.1 M 3383.6 743.1 L 3383.6 743.1 M 3383.6 743.1 L 3408.4 751.8 M 3408.4 751.8 L 3408.4 751.8 M 3408.4 751.8 L 3430.6 765.8 M 3430.6 765.8 L 3430.7 765.8 M 3430.7 765.8 L 3449.2 784.3 M 3449.2 784.3 L 3449.2 784.4 M 3449.2 784.4 L 3463.2 806.6 M 3463.2 806.6 L 3463.2 806.6 M 3463.2 806.6 L 3471.9 831.4 M 3471.9 831.4 L 3471.9 831.4 M 3471.9 831.4 L 3474.4 853.8 M 3474.4 853.8 L 3473.8 854.5 M 3473.8 854.5 L 3464.8 854.5 M 3464.8 854.5 L 3464.8 860.5 M 3464.8 860.5 L 3473.8 860.5 M 3473.8 860.5 L 3474.4 861.2 M 3474.4 861.2 L 3471.9 883.6 M 3471.9 883.6 L 3471.9 883.6 M 3471.9 883.6 L 3463.2 908.4 M 3463.2 908.4 L 3463.2 908.4 M 3463.2 908.4 L 3449.2 930.6 M 3449.2 930.6 L 3449.2 930.7 M 3449.2 930.7 L 3430.7 949.2 M 3430.7 949.2 L 3430.6 949.2 M 3430.6 949.2 L 3408.4 963.2 M 3408.4 963.2 L 3408.4 963.2 M 3408.4 963.2 L 3383.6 971.9 M 3383.6 971.9 L 3383.6 971.9 M 3383.6 971.9 L 3361.2 974.4 M 3361.2 974.4 L 3360.5 973.8 M 3360.5 973.8 L 3360.5 964.8 M 3360.5 964.8 L 3354.5 964.8 M 3354.5 964.8 L 3354.5 973.8 M 3354.5 973.8 L 3353.8 974.4 M 3353.8 974.4 L 3331.4 971.9 M 3331.4 971.9 L 3331.4 971.9 M 3331.4 971.9 L 3306.6 963.2 M 3306.6 963.2 L 3306.6 963.2 M 3306.6 963.2 L 3284.4 949.2 M 3284.4 949.2 L 3284.3 949.2 M 3284.3 949.2 L 3265.8 930.7 M 3265.8 930.7 L 3265.8 930.6 M 3265.8 930.6 L 3251.8 908.4 M 3251.8 908.4 L 3251.8 908.4 M 3251.8 908.4 L 3243.1 883.6 M 3243.1 883.6 L 3243.1 883.6 M 3243.1 883.6 L 3240.6 861.2 M 3240.6 861.2 L 3241.2 860.5 M 3241.2 860.5 L 3250.2 860.5 M 3250.2 860.5 L 3250.2 854.5 M 3250.2 854.5 L 3241.2 854.5 M 3241.2 854.5 L 3240.6 853.8 M 3240.6 853.8 L 3243.1 831.4 M 3243.1 831.4 L 3243.1 831.4 M 3243.1 831.4 L 3251.8 806.6 M 3251.8 806.6 L 3251.8 806.6 M 3251.8 806.6 L 3265.8 784.4 M 3265.8 784.4 L 3265.8 784.3 M 3265.8 784.3 L 3284.3 765.8 M 3284.3 765.8 L 3284.4 765.8 M 3284.4 765.8 L 3306.6 751.8 M 3306.6 751.8 L 3306.6 751.8 M 3306.6 751.8 L 3331.4 743.1 M 3331.4 743.1 L 3331.4 743.1 M 3331.4 743.1 L 3353.8 740.6 M 3353.8 740.6 L 3354.5 741.2 M 3354.5 741.2 L 3354.5 750.2 M 3354.5 750.2 L 3360.5 750.2 M 3360.5 750.2 L 3360.5 741.2 M 3360.5 741.2 L 3361.2 740.6 M 3361.2 740.6 L 3383.6 743.1 M 2160.6 849.9 L 2160.6 849.9 M 2160.6 849.9 L 2160.7 849.9 M 2160.7 849.9 L 2173.1 854.3 M 2173.1 854.3 L 2173.2 854.4 M 2173.2 854.4 L 2184.3 861.3 M 2184.3 861.3 L 2184.4 861.4 M 2184.4 861.4 L 2193.6 870.6 M 2193.6 870.6 L 2193.7 870.7 M 2193.7 870.7 L 2200.6 881.8 M 2200.6 881.8 L 2200.7 881.9 M 2200.7 881.9 L 2205.1 894.3 M 2205.1 894.3 L 2205.1 894.4 M 2205.1 894.4 L 2206.6 907.5 M 2206.6 907.5 L 2206.6 907.5 M 2206.6 907.5 L 2205.1 920.6 M 2205.1 920.6 L 2205.1 920.7 M 2205.1 920.7 L 2200.7 933.1 M 2200.7 933.1 L 2200.6 933.2 M 2200.6 933.2 L 2193.7 944.3 M 2193.7 944.3 L 2193.6 944.4 M 2193.6 944.4 L 2184.4 953.6 M 2184.4 953.6 L 2184.3 953.7 M 2184.3 953.7 L 2173.2 960.6 M 2173.2 960.6 L 2173.1 960.7 M 2173.1 960.7 L 2160.7 965.1 M 2160.7 965.1 L 2160.6 965.1 M 2160.6 965.1 L 2147.5 966.6 M 2147.5 966.6 L 2147.5 966.6 M 2147.5 966.6 L 2134.4 965.1 M 2134.4 965.1 L 2134.3 965.1 M 2134.3 965.1 L 2121.9 960.7 M 2121.9 960.7 L 2121.8 960.6 M 2121.8 960.6 L 2110.7 953.7 M 2110.7 953.7 L 2110.6 953.6 M 2110.6 953.6 L 2101.4 944.4 M 2101.4 944.4 L 2101.3 944.3 M 2101.3 944.3 L 2094.4 933.2 M 2094.4 933.2 L 2094.3 933.1 M 2094.3 933.1 L 2089.9 920.7 M 2089.9 920.7 L 2089.9 920.6 M 2089.9 920.6 L 2088.4 907.5 M 2088.4 907.5 L 2088.4 907.5 M 2088.4 907.5 L 2089.9 894.4 M 2089.9 894.4 L 2089.9 894.3 M 2089.9 894.3 L 2094.3 881.9 M 2094.3 881.9 L 2094.4 881.8 M 2094.4 881.8 L 2101.3 870.7 M 2101.3 870.7 L 2101.4 870.6 M 2101.4 870.6 L 2110.6 861.4 M 2110.6 861.4 L 2110.7 861.3 M 2110.7 861.3 L 2121.8 854.4 M 2121.8 854.4 L 2121.9 854.3 M 2121.9 854.3 L 2134.3 849.9 M 2134.3 849.9 L 2134.4 849.9 M 2134.4 849.9 L 2147.5 848.4 M 2147.5 848.4 L 2147.5 848.4 M 2147.5 848.4 L 2160.6 849.9 M 1360.6 849.9 L 1360.6 849.9 M 1360.6 849.9 L 1360.7 849.9 M 1360.7 849.9 L 1373.1 854.3 M 1373.1 854.3 L 1373.2 854.4 M 1373.2 854.4 L 1384.3 861.3 M 1384.3 861.3 L 1384.4 861.4 M 1384.4 861.4 L 1393.6 870.6 M 1393.6 870.6 L 1393.7 870.7 M 1393.7 870.7 L 1400.6 881.8 M 1400.6 881.8 L 1400.7 881.9 M 1400.7 881.9 L 1405.1 894.3 M 1405.1 894.3 L 1405.1 894.4 M 1405.1 894.4 L 1406.6 907.5 M 1406.6 907.5 L 1406.6 907.5 M 1406.6 907.5 L 1405.1 920.6 M 1405.1 920.6 L 1405.1 920.7 M 1405.1 920.7 L 1400.7 933.1 M 1400.7 933.1 L 1400.6 933.2 M 1400.6 933.2 L 1393.7 944.3 M 1393.7 944.3 L 1393.6 944.4 M 1393.6 944.4 L 1384.4 953.6 M 1384.4 953.6 L 1384.3 953.7 M 1384.3 953.7 L 1373.2 960.6 M 1373.2 960.6 L 1373.1 960.7 M 1373.1 960.7 L 1360.7 965.1 M 1360.7 965.1 L 1360.6 965.1 M 1360.6 965.1 L 1347.5 966.6 M 1347.5 966.6 L 1347.5 966.6 M 1347.5 966.6 L 1334.4 965.1 M 1334.4 965.1 L 1334.3 965.1 M 1334.3 965.1 L 1321.9 960.7 M 1321.9 960.7 L 1321.8 960.6 M 1321.8 960.6 L 1310.7 953.7 M 1310.7 953.7 L 1310.6 953.6 M 1310.6 953.6 L 1301.4 944.4 M 1301.4 944.4 L 1301.3 944.3 M 1301.3 944.3 L 1294.4 933.2 M 1294.4 933.2 L 1294.3 933.1 M 1294.3 933.1 L 1289.9 920.7 M 1289.9 920.7 L 1289.9 920.6 M 1289.9 920.6 L 1288.4 907.5 M 1288.4 907.5 L 1288.4 907.5 M 1288.4 907.5 L 1289.9 894.4 M 1289.9 894.4 L 1289.9 894.3 M 1289.9 894.3 L 1294.3 881.9 M 1294.3 881.9 L 1294.4 881.8 M 1294.4 881.8 L 1301.3 870.7 M 1301.3 870.7 L 1301.4 870.6 M 1301.4 870.6 L 1310.6 861.4 M 1310.6 861.4 L 1310.7 861.3 M 1310.7 861.3 L 1321.8 854.4 M 1321.8 854.4 L 1321.9 854.3 M 1321.9 854.3 L 1334.3 849.9 M 1334.3 849.9 L 1334.4 849.9 M 1334.4 849.9 L 1347.5 848.4 M 1347.5 848.4 L 1347.5 848.4 M 1347.5 848.4 L 1360.6 849.9 M 551.9 654.9 L 551.9 654.9 M 551.9 654.9 L 553.2 655.1 M 553.2 655.1 L 553.2 655.1 M 553.2 655.1 L 554.5 655.4 M 554.5 655.4 L 554.6 655.4 M 554.6 655.4 L 555.8 655.9 M 555.8 655.9 L 555.9 656 M 555.9 656 L 557.1 656.7 M 557.1 656.7 L 557.1 656.7 M 557.1 656.7 L 558.2 657.6 M 558.2 657.6 L 558.2 657.6 M 558.2 657.6 L 559.1 658.6 M 559.1 658.6 L 559.1 658.7 M 559.1 658.7 L 559.8 659.9 M 559.8 659.9 L 559.9 659.9 M 559.9 659.9 L 560.4 661.2 M 560.4 661.2 L 560.4 661.2 M 560.4 661.2 L 560.7 662.5 M 560.7 662.5 L 560.7 662.6 M 560.7 662.6 L 560.8 664 M 560.8 664 L 560.8 664 M 560.8 664 L 560.8 744.7 M 560.8 744.7 L 560.8 744.7 M 560.8 744.7 L 560.7 746.1 M 560.7 746.1 L 560.7 746.2 M 560.7 746.2 L 560.4 747.5 M 560.4 747.5 L 560.4 747.5 M 560.4 747.5 L 559.9 748.8 M 559.9 748.8 L 559.8 748.8 M 559.8 748.8 L 559.1 750 M 559.1 750 L 559.1 750.1 M 559.1 750.1 L 558.2 751.1 M 558.2 751.1 L 558.2 751.1 M 558.2 751.1 L 557.1 752 M 557.1 752 L 557.1 752 M 557.1 752 L 555.9 752.7 M 555.9 752.7 L 555.8 752.8 M 555.8 752.8 L 554.6 753.3 M 554.6 753.3 L 554.5 753.3 M 554.5 753.3 L 553.2 753.6 M 553.2 753.6 L 553.2 753.6 M 553.2 753.6 L 551.8 753.8 M 551.8 753.8 L 551.8 753.8 M 551.8 753.8 L 471.1 753.8 M 471.1 753.8 L 471 753.8 M 471 753.8 L 469.7 753.6 M 469.7 753.6 L 469.6 753.6 M 469.6 753.6 L 468.3 753.3 M 468.3 753.3 L 468.2 753.3 M 468.2 753.3 L 467 752.8 M 467 752.8 L 466.9 752.7 M 466.9 752.7 L 465.8 752 M 465.8 752 L 465.7 752 M 465.7 752 L 464.7 751.1 M 464.7 751.1 L 464.7 751.1 M 464.7 751.1 L 463.8 750.1 M 463.8 750.1 L 463.8 750 M 463.8 750 L 463.1 748.8 M 463.1 748.8 L 463 748.8 M 463 748.8 L 462.5 747.5 M 462.5 747.5 L 462.5 747.5 M 462.5 747.5 L 462.1 746.2 M 462.1 746.2 L 462.1 746.1 M 462.1 746.1 L 462 744.8 M 462 744.8 L 462 744.7 M 462 744.7 L 462 664 M 462 664 L 462 664 M 462 664 L 462.1 662.6 M 462.1 662.6 L 462.1 662.5 M 462.1 662.5 L 462.5 661.2 M 462.5 661.2 L 462.5 661.2 M 462.5 661.2 L 463 659.9 M 463 659.9 L 463.1 659.9 M 463.1 659.9 L 463.8 658.7 M 463.8 658.7 L 463.8 658.6 M 463.8 658.6 L 464.7 657.6 M 464.7 657.6 L 464.7 657.6 M 464.7 657.6 L 465.7 656.7 M 465.7 656.7 L 465.8 656.7 M 465.8 656.7 L 466.9 656 M 466.9 656 L 467 655.9 M 467 655.9 L 468.2 655.4 M 468.2 655.4 L 468.3 655.4 M 468.3 655.4 L 469.6 655.1 M 469.6 655.1 L 469.7 655.1 M 469.7 655.1 L 471 654.9 M 471 654.9 L 471 654.9 M 471 654.9 L 551.8 654.9 M 551.8 654.9 L 551.9 654.9 M 2994.5 656.2 L 2994.5 656.2 M 2994.5 656.2 L 2994.6 656.2 M 2994.6 656.2 L 3004.9 659.8 M 3004.9 659.8 L 3005.1 659.9 M 3005.1 659.9 L 3014.3 665.7 M 3014.3 665.7 L 3014.4 665.8 M 3014.4 665.8 L 3022.1 673.5 M 3022.1 673.5 L 3022.2 673.6 M 3022.2 673.6 L 3028.1 682.9 M 3028.1 682.9 L 3028.1 683 M 3028.1 683 L 3031.7 693.3 M 3031.7 693.3 L 3031.7 693.4 M 3031.7 693.4 L 3033 704.3 M 3033 704.3 L 3033 704.4 M 3033 704.4 L 3031.7 715.3 M 3031.7 715.3 L 3031.7 715.4 M 3031.7 715.4 L 3028.1 725.7 M 3028.1 725.7 L 3028.1 725.8 M 3028.1 725.8 L 3022.2 735.1 M 3022.2 735.1 L 3022.1 735.2 M 3022.1 735.2 L 3014.4 742.9 M 3014.4 742.9 L 3014.3 743 M 3014.3 743 L 3005.1 748.8 M 3005.1 748.8 L 3004.9 748.9 M 3004.9 748.9 L 2994.6 752.5 M 2994.6 752.5 L 2994.5 752.5 M 2994.5 752.5 L 2983.6 753.8 M 2983.6 753.8 L 2983.5 753.8 M 2983.5 753.8 L 2972.6 752.5 M 2972.6 752.5 L 2972.5 752.5 M 2972.5 752.5 L 2962.2 748.9 M 2962.2 748.9 L 2962.1 748.8 M 2962.1 748.8 L 2952.8 743 M 2952.8 743 L 2952.7 742.9 M 2952.7 742.9 L 2945 735.2 M 2945 735.2 L 2944.9 735.1 M 2944.9 735.1 L 2939.1 725.8 M 2939.1 725.8 L 2939 725.7 M 2939 725.7 L 2935.4 715.4 M 2935.4 715.4 L 2935.4 715.3 M 2935.4 715.3 L 2934.2 704.4 M 2934.2 704.4 L 2934.2 704.3 M 2934.2 704.3 L 2935.4 693.4 M 2935.4 693.4 L 2935.4 693.3 M 2935.4 693.3 L 2939 683 M 2939 683 L 2939.1 682.9 M 2939.1 682.9 L 2944.9 673.6 M 2944.9 673.6 L 2945 673.5 M 2945 673.5 L 2952.7 665.8 M 2952.7 665.8 L 2952.8 665.7 M 2952.8 665.7 L 2962.1 659.9 M 2962.1 659.9 L 2962.2 659.8 M 2962.2 659.8 L 2972.5 656.2 M 2972.5 656.2 L 2972.6 656.2 M 2972.6 656.2 L 2983.5 654.9 M 2983.5 654.9 L 2983.6 654.9 M 2983.6 654.9 L 2994.5 656.2 M 1360.6 549.9 L 1360.6 549.9 M 1360.6 549.9 L 1360.7 549.9 M 1360.7 549.9 L 1373.1 554.3 M 1373.1 554.3 L 1373.2 554.4 M 1373.2 554.4 L 1384.3 561.3 M 1384.3 561.3 L 1384.4 561.4 M 1384.4 561.4 L 1393.6 570.6 M 1393.6 570.6 L 1393.7 570.7 M 1393.7 570.7 L 1400.6 581.8 M 1400.6 581.8 L 1400.7 581.9 M 1400.7 581.9 L 1405.1 594.3 M 1405.1 594.3 L 1405.1 594.4 M 1405.1 594.4 L 1406.6 607.5 M 1406.6 607.5 L 1406.6 607.5 M 1406.6 607.5 L 1405.1 620.6 M 1405.1 620.6 L 1405.1 620.7 M 1405.1 620.7 L 1400.7 633.1 M 1400.7 633.1 L 1400.6 633.2 M 1400.6 633.2 L 1393.7 644.3 M 1393.7 644.3 L 1393.6 644.4 M 1393.6 644.4 L 1384.4 653.6 M 1384.4 653.6 L 1384.3 653.7 M 1384.3 653.7 L 1373.2 660.6 M 1373.2 660.6 L 1373.1 660.7 M 1373.1 660.7 L 1360.7 665.1 M 1360.7 665.1 L 1360.6 665.1 M 1360.6 665.1 L 1347.5 666.6 M 1347.5 666.6 L 1347.5 666.6 M 1347.5 666.6 L 1334.4 665.1 M 1334.4 665.1 L 1334.3 665.1 M 1334.3 665.1 L 1321.9 660.7 M 1321.9 660.7 L 1321.8 660.6 M 1321.8 660.6 L 1310.7 653.7 M 1310.7 653.7 L 1310.6 653.6 M 1310.6 653.6 L 1301.4 644.4 M 1301.4 644.4 L 1301.3 644.3 M 1301.3 644.3 L 1294.4 633.2 M 1294.4 633.2 L 1294.3 633.1 M 1294.3 633.1 L 1289.9 620.7 M 1289.9 620.7 L 1289.9 620.6 M 1289.9 620.6 L 1288.4 607.5 M 1288.4 607.5 L 1288.4 607.5 M 1288.4 607.5 L 1289.9 594.4 M 1289.9 594.4 L 1289.9 594.3 M 1289.9 594.3 L 1294.3 581.9 M 1294.3 581.9 L 1294.4 581.8 M 1294.4 581.8 L 1301.3 570.7 M 1301.3 570.7 L 1301.4 570.6 M 1301.4 570.6 L 1310.6 561.4 M 1310.6 561.4 L 1310.7 561.3 M 1310.7 561.3 L 1321.8 554.4 M 1321.8 554.4 L 1321.9 554.3 M 1321.9 554.3 L 1334.3 549.9 M 1334.3 549.9 L 1334.4 549.9 M 1334.4 549.9 L 1347.5 548.4 M 1347.5 548.4 L 1347.5 548.4 M 1347.5 548.4 L 1360.6 549.9 M 2160.6 449.9 L 2160.6 449.9 M 2160.6 449.9 L 2160.7 449.9 M 2160.7 449.9 L 2173.1 454.3 M 2173.1 454.3 L 2173.2 454.4 M 2173.2 454.4 L 2184.3 461.3 M 2184.3 461.3 L 2184.4 461.4 M 2184.4 461.4 L 2193.6 470.6 M 2193.6 470.6 L 2193.7 470.7 M 2193.7 470.7 L 2200.6 481.8 M 2200.6 481.8 L 2200.7 481.9 M 2200.7 481.9 L 2205.1 494.3 M 2205.1 494.3 L 2205.1 494.4 M 2205.1 494.4 L 2206.6 507.5 M 2206.6 507.5 L 2206.6 507.5 M 2206.6 507.5 L 2205.1 520.6 M 2205.1 520.6 L 2205.1 520.7 M 2205.1 520.7 L 2200.7 533.1 M 2200.7 533.1 L 2200.6 533.2 M 2200.6 533.2 L 2193.7 544.3 M 2193.7 544.3 L 2193.6 544.4 M 2193.6 544.4 L 2184.4 553.6 M 2184.4 553.6 L 2184.3 553.7 M 2184.3 553.7 L 2173.2 560.6 M 2173.2 560.6 L 2173.1 560.7 M 2173.1 560.7 L 2160.7 565.1 M 2160.7 565.1 L 2160.6 565.1 M 2160.6 565.1 L 2147.5 566.6 M 2147.5 566.6 L 2147.5 566.6 M 2147.5 566.6 L 2134.4 565.1 M 2134.4 565.1 L 2134.3 565.1 M 2134.3 565.1 L 2121.9 560.7 M 2121.9 560.7 L 2121.8 560.6 M 2121.8 560.6 L 2110.7 553.7 M 2110.7 553.7 L 2110.6 553.6 M 2110.6 553.6 L 2101.4 544.4 M 2101.4 544.4 L 2101.3 544.3 M 2101.3 544.3 L 2094.4 533.2 M 2094.4 533.2 L 2094.3 533.1 M 2094.3 533.1 L 2089.9 520.7 M 2089.9 520.7 L 2089.9 520.6 M 2089.9 520.6 L 2088.4 507.5 M 2088.4 507.5 L 2088.4 507.5 M 2088.4 507.5 L 2089.9 494.4 M 2089.9 494.4 L 2089.9 494.3 M 2089.9 494.3 L 2094.3 481.9 M 2094.3 481.9 L 2094.4 481.8 M 2094.4 481.8 L 2101.3 470.7 M 2101.3 470.7 L 2101.4 470.6 M 2101.4 470.6 L 2110.6 461.4 M 2110.6 461.4 L 2110.7 461.3 M 2110.7 461.3 L 2121.8 454.4 M 2121.8 454.4 L 2121.9 454.3 M 2121.9 454.3 L 2134.3 449.9 M 2134.3 449.9 L 2134.4 449.9 M 2134.4 449.9 L 2147.5 448.4 M 2147.5 448.4 L 2147.5 448.4 M 2147.5 448.4 L 2160.6 449.9 M 2994.5 459.4 L 2994.5 459.4 M 2994.5 459.4 L 2994.6 459.4 M 2994.6 459.4 L 3004.9 463 M 3004.9 463 L 3005.1 463 M 3005.1 463 L 3014.3 468.8 M 3014.3 468.8 L 3014.4 468.9 M 3014.4 468.9 L 3022.1 476.7 M 3022.1 476.7 L 3022.2 476.8 M 3022.2 476.8 L 3028.1 486 M 3028.1 486 L 3028.1 486.1 M 3028.1 486.1 L 3031.7 496.4 M 3031.7 496.4 L 3031.7 496.6 M 3031.7 496.6 L 3033 507.5 M 3033 507.5 L 3033 507.5 M 3033 507.5 L 3031.7 518.4 M 3031.7 518.4 L 3031.7 518.6 M 3031.7 518.6 L 3028.1 528.9 M 3028.1 528.9 L 3028.1 529 M 3028.1 529 L 3022.2 538.2 M 3022.2 538.2 L 3022.1 538.3 M 3022.1 538.3 L 3014.4 546.1 M 3014.4 546.1 L 3014.3 546.2 M 3014.3 546.2 L 3005.1 552 M 3005.1 552 L 3004.9 552 M 3004.9 552 L 2994.6 555.6 M 2994.6 555.6 L 2994.5 555.6 M 2994.5 555.6 L 2983.6 556.9 M 2983.6 556.9 L 2983.5 556.9 M 2983.5 556.9 L 2972.6 555.6 M 2972.6 555.6 L 2972.5 555.6 M 2972.5 555.6 L 2962.2 552 M 2962.2 552 L 2962.1 552 M 2962.1 552 L 2952.8 546.2 M 2952.8 546.2 L 2952.7 546.1 M 2952.7 546.1 L 2945 538.3 M 2945 538.3 L 2944.9 538.2 M 2944.9 538.2 L 2939.1 529 M 2939.1 529 L 2939 528.9 M 2939 528.9 L 2935.4 518.6 M 2935.4 518.6 L 2935.4 518.4 M 2935.4 518.4 L 2934.2 507.5 M 2934.2 507.5 L 2934.2 507.5 M 2934.2 507.5 L 2935.4 496.6 M 2935.4 496.6 L 2935.4 496.4 M 2935.4 496.4 L 2939 486.1 M 2939 486.1 L 2939.1 486 M 2939.1 486 L 2944.9 476.8 M 2944.9 476.8 L 2945 476.7 M 2945 476.7 L 2952.7 468.9 M 2952.7 468.9 L 2952.8 468.8 M 2952.8 468.8 L 2962.1 463 M 2962.1 463 L 2962.2 463 M 2962.2 463 L 2972.5 459.4 M 2972.5 459.4 L 2972.6 459.4 M 2972.6 459.4 L 2983.5 458.1 M 2983.5 458.1 L 2983.6 458.1 M 2983.6 458.1 L 2994.5 459.4 M 522.4 459.4 L 522.4 459.4 M 522.4 459.4 L 522.5 459.4 M 522.5 459.4 L 532.8 463 M 532.8 463 L 532.9 463 M 532.9 463 L 542.2 468.8 M 542.2 468.8 L 542.3 468.9 M 542.3 468.9 L 550 476.7 M 550 476.7 L 550.1 476.8 M 550.1 476.8 L 555.9 486 M 555.9 486 L 556 486.1 M 556 486.1 L 559.6 496.4 M 559.6 496.4 L 559.6 496.6 M 559.6 496.6 L 560.8 507.5 M 560.8 507.5 L 560.8 507.5 M 560.8 507.5 L 559.6 518.4 M 559.6 518.4 L 559.6 518.6 M 559.6 518.6 L 556 528.9 M 556 528.9 L 555.9 529 M 555.9 529 L 550.1 538.2 M 550.1 538.2 L 550 538.3 M 550 538.3 L 542.3 546.1 M 542.3 546.1 L 542.2 546.2 M 542.2 546.2 L 532.9 552 M 532.9 552 L 532.8 552 M 532.8 552 L 522.5 555.6 M 522.5 555.6 L 522.4 555.6 M 522.4 555.6 L 511.5 556.9 M 511.5 556.9 L 511.4 556.9 M 511.4 556.9 L 500.5 555.6 M 500.5 555.6 L 500.4 555.6 M 500.4 555.6 L 490.1 552 M 490.1 552 L 489.9 552 M 489.9 552 L 480.7 546.2 M 480.7 546.2 L 480.6 546.1 M 480.6 546.1 L 472.9 538.3 M 472.9 538.3 L 472.8 538.2 M 472.8 538.2 L 466.9 529 M 466.9 529 L 466.9 528.9 M 466.9 528.9 L 463.3 518.6 M 463.3 518.6 L 463.3 518.4 M 463.3 518.4 L 462 507.5 M 462 507.5 L 462 507.5 M 462 507.5 L 463.3 496.6 M 463.3 496.6 L 463.3 496.4 M 463.3 496.4 L 466.9 486.1 M 466.9 486.1 L 466.9 486 M 466.9 486 L 472.8 476.8 M 472.8 476.8 L 472.9 476.7 M 472.9 476.7 L 480.6 468.9 M 480.6 468.9 L 480.7 468.8 M 480.7 468.8 L 489.9 463 M 489.9 463 L 490.1 463 M 490.1 463 L 500.4 459.4 M 500.4 459.4 L 500.5 459.4 M 500.5 459.4 L 511.4 458.1 M 511.4 458.1 L 511.5 458.1 M 511.5 458.1 L 522.4 459.4 M 1360.6 349.9 L 1360.6 349.9 M 1360.6 349.9 L 1360.7 349.9 M 1360.7 349.9 L 1373.1 354.3 M 1373.1 354.3 L 1373.2 354.4 M 1373.2 354.4 L 1384.3 361.3 M 1384.3 361.3 L 1384.4 361.4 M 1384.4 361.4 L 1393.6 370.6 M 1393.6 370.6 L 1393.7 370.7 M 1393.7 370.7 L 1400.6 381.8 M 1400.6 381.8 L 1400.7 381.9 M 1400.7 381.9 L 1405.1 394.3 M 1405.1 394.3 L 1405.1 394.4 M 1405.1 394.4 L 1406.6 407.5 M 1406.6 407.5 L 1406.6 407.5 M 1406.6 407.5 L 1405.1 420.6 M 1405.1 420.6 L 1405.1 420.7 M 1405.1 420.7 L 1400.7 433.1 M 1400.7 433.1 L 1400.6 433.2 M 1400.6 433.2 L 1393.7 444.3 M 1393.7 444.3 L 1393.6 444.4 M 1393.6 444.4 L 1384.4 453.6 M 1384.4 453.6 L 1384.3 453.7 M 1384.3 453.7 L 1373.2 460.6 M 1373.2 460.6 L 1373.1 460.7 M 1373.1 460.7 L 1360.7 465.1 M 1360.7 465.1 L 1360.6 465.1 M 1360.6 465.1 L 1347.5 466.6 M 1347.5 466.6 L 1347.5 466.6 M 1347.5 466.6 L 1334.4 465.1 M 1334.4 465.1 L 1334.3 465.1 M 1334.3 465.1 L 1321.9 460.7 M 1321.9 460.7 L 1321.8 460.6 M 1321.8 460.6 L 1310.7 453.7 M 1310.7 453.7 L 1310.6 453.6 M 1310.6 453.6 L 1301.4 444.4 M 1301.4 444.4 L 1301.3 444.3 M 1301.3 444.3 L 1294.4 433.2 M 1294.4 433.2 L 1294.3 433.1 M 1294.3 433.1 L 1289.9 420.7 M 1289.9 420.7 L 1289.9 420.6 M 1289.9 420.6 L 1288.4 407.5 M 1288.4 407.5 L 1288.4 407.5 M 1288.4 407.5 L 1289.9 394.4 M 1289.9 394.4 L 1289.9 394.3 M 1289.9 394.3 L 1294.3 381.9 M 1294.3 381.9 L 1294.4 381.8 M 1294.4 381.8 L 1301.3 370.7 M 1301.3 370.7 L 1301.4 370.6 M 1301.4 370.6 L 1310.6 361.4 M 1310.6 361.4 L 1310.7 361.3 M 1310.7 361.3 L 1321.8 354.4 M 1321.8 354.4 L 1321.9 354.3 M 1321.9 354.3 L 1334.3 349.9 M 1334.3 349.9 L 1334.4 349.9 M 1334.4 349.9 L 1347.5 348.4 M 1347.5 348.4 L 1347.5 348.4 M 1347.5 348.4 L 1360.6 349.9 M 3024 261.2 L 3024 261.2 M 3024 261.2 L 3025.3 261.4 M 3025.3 261.4 L 3025.4 261.4 M 3025.4 261.4 L 3026.7 261.7 M 3026.7 261.7 L 3026.8 261.7 M 3026.8 261.7 L 3028 262.2 M 3028 262.2 L 3028.1 262.3 M 3028.1 262.3 L 3029.2 263 M 3029.2 263 L 3029.3 263 M 3029.3 263 L 3030.3 263.9 M 3030.3 263.9 L 3030.3 263.9 M 3030.3 263.9 L 3031.2 264.9 M 3031.2 264.9 L 3031.2 265 M 3031.2 265 L 3031.9 266.2 M 3031.9 266.2 L 3032 266.2 M 3032 266.2 L 3032.5 267.5 M 3032.5 267.5 L 3032.5 267.5 M 3032.5 267.5 L 3032.9 268.8 M 3032.9 268.8 L 3032.9 268.9 M 3032.9 268.9 L 3033 270.3 M 3033 270.3 L 3033 270.3 M 3033 270.3 L 3033 351 M 3033 351 L 3033 351 M 3033 351 L 3032.9 352.4 M 3032.9 352.4 L 3032.9 352.5 M 3032.9 352.5 L 3032.5 353.8 M 3032.5 353.8 L 3032.5 353.8 M 3032.5 353.8 L 3032 355.1 M 3032 355.1 L 3031.9 355.1 M 3031.9 355.1 L 3031.2 356.3 M 3031.2 356.3 L 3031.2 356.4 M 3031.2 356.4 L 3030.3 357.4 M 3030.3 357.4 L 3030.3 357.4 M 3030.3 357.4 L 3029.3 358.3 M 3029.3 358.3 L 3029.2 358.3 M 3029.2 358.3 L 3028.1 359 M 3028.1 359 L 3028 359.1 M 3028 359.1 L 3026.8 359.6 M 3026.8 359.6 L 3026.7 359.6 M 3026.7 359.6 L 3025.4 359.9 M 3025.4 359.9 L 3025.3 359.9 M 3025.3 359.9 L 3024 360.1 M 3024 360.1 L 3023.9 360.1 M 3023.9 360.1 L 2943.2 360.1 M 2943.2 360.1 L 2943.2 360.1 M 2943.2 360.1 L 2941.8 359.9 M 2941.8 359.9 L 2941.8 359.9 M 2941.8 359.9 L 2940.5 359.6 M 2940.5 359.6 L 2940.4 359.6 M 2940.4 359.6 L 2939.2 359.1 M 2939.2 359.1 L 2939.1 359 M 2939.1 359 L 2937.9 358.3 M 2937.9 358.3 L 2937.9 358.3 M 2937.9 358.3 L 2936.8 357.4 M 2936.8 357.4 L 2936.8 357.4 M 2936.8 357.4 L 2935.9 356.4 M 2935.9 356.4 L 2935.9 356.3 M 2935.9 356.3 L 2935.2 355.1 M 2935.2 355.1 L 2935.1 355.1 M 2935.1 355.1 L 2934.6 353.8 M 2934.6 353.8 L 2934.6 353.8 M 2934.6 353.8 L 2934.3 352.5 M 2934.3 352.5 L 2934.3 352.4 M 2934.3 352.4 L 2934.2 351.1 M 2934.2 351.1 L 2934.2 351 M 2934.2 351 L 2934.2 270.3 M 2934.2 270.3 L 2934.2 270.3 M 2934.2 270.3 L 2934.3 268.9 M 2934.3 268.9 L 2934.3 268.8 M 2934.3 268.8 L 2934.6 267.5 M 2934.6 267.5 L 2934.6 267.5 M 2934.6 267.5 L 2935.1 266.2 M 2935.1 266.2 L 2935.2 266.2 M 2935.2 266.2 L 2935.9 265 M 2935.9 265 L 2935.9 264.9 M 2935.9 264.9 L 2936.8 263.9 M 2936.8 263.9 L 2936.8 263.9 M 2936.8 263.9 L 2937.9 263 M 2937.9 263 L 2937.9 263 M 2937.9 263 L 2939.1 262.3 M 2939.1 262.3 L 2939.2 262.2 M 2939.2 262.2 L 2940.4 261.7 M 2940.4 261.7 L 2940.5 261.7 M 2940.5 261.7 L 2941.8 261.4 M 2941.8 261.4 L 2941.8 261.4 M 2941.8 261.4 L 2943.2 261.2 M 2943.2 261.2 L 2943.2 261.2 M 2943.2 261.2 L 3024 261.2 M 3024 261.2 L 3024 261.2 M 522.4 262.5 L 522.4 262.5 M 522.4 262.5 L 522.5 262.5 M 522.5 262.5 L 532.8 266.1 M 532.8 266.1 L 532.9 266.2 M 532.9 266.2 L 542.2 272 M 542.2 272 L 542.3 272.1 M 542.3 272.1 L 550 279.8 M 550 279.8 L 550.1 279.9 M 550.1 279.9 L 555.9 289.2 M 555.9 289.2 L 556 289.3 M 556 289.3 L 559.6 299.6 M 559.6 299.6 L 559.6 299.7 M 559.6 299.7 L 560.8 310.6 M 560.8 310.6 L 560.8 310.7 M 560.8 310.7 L 559.6 321.6 M 559.6 321.6 L 559.6 321.7 M 559.6 321.7 L 556 332 M 556 332 L 555.9 332.1 M 555.9 332.1 L 550.1 341.4 M 550.1 341.4 L 550 341.5 M 550 341.5 L 542.3 349.2 M 542.3 349.2 L 542.2 349.3 M 542.2 349.3 L 532.9 355.1 M 532.9 355.1 L 532.8 355.2 M 532.8 355.2 L 522.5 358.8 M 522.5 358.8 L 522.4 358.8 M 522.4 358.8 L 511.5 360.1 M 511.5 360.1 L 511.4 360.1 M 511.4 360.1 L 500.5 358.8 M 500.5 358.8 L 500.4 358.8 M 500.4 358.8 L 490.1 355.2 M 490.1 355.2 L 489.9 355.1 M 489.9 355.1 L 480.7 349.3 M 480.7 349.3 L 480.6 349.2 M 480.6 349.2 L 472.9 341.5 M 472.9 341.5 L 472.8 341.4 M 472.8 341.4 L 466.9 332.1 M 466.9 332.1 L 466.9 332 M 466.9 332 L 463.3 321.7 M 463.3 321.7 L 463.3 321.6 M 463.3 321.6 L 462 310.7 M 462 310.7 L 462 310.6 M 462 310.6 L 463.3 299.7 M 463.3 299.7 L 463.3 299.6 M 463.3 299.6 L 466.9 289.3 M 466.9 289.3 L 466.9 289.2 M 466.9 289.2 L 472.8 279.9 M 472.8 279.9 L 472.9 279.8 M 472.9 279.8 L 480.6 272.1 M 480.6 272.1 L 480.7 272 M 480.7 272 L 489.9 266.2 M 489.9 266.2 L 490.1 266.1 M 490.1 266.1 L 500.4 262.5 M 500.4 262.5 L 500.5 262.5 M 500.5 262.5 L 511.4 261.2 M 511.4 261.2 L 511.5 261.2 M 511.5 261.2 L 522.4 262.5 M 154.5 41.2 L 154.5 41.2 M 154.5 41.2 L 154.5 50.2 M 154.5 50.2 L 160.5 50.2 M 160.5 50.2 L 160.5 41.2 M 160.5 41.2 L 161.2 40.6 M 161.2 40.6 L 183.6 43.1 M 183.6 43.1 L 183.6 43.1 M 183.6 43.1 L 208.4 51.8 M 208.4 51.8 L 208.4 51.8 M 208.4 51.8 L 230.6 65.8 M 230.6 65.8 L 230.7 65.8 M 230.7 65.8 L 249.2 84.3 M 249.2 84.3 L 249.2 84.4 M 249.2 84.4 L 263.2 106.6 M 263.2 106.6 L 263.2 106.6 M 263.2 106.6 L 271.9 131.4 M 271.9 131.4 L 271.9 131.4 M 271.9 131.4 L 274.4 153.8 M 274.4 153.8 L 273.8 154.5 M 273.8 154.5 L 264.8 154.5 M 264.8 154.5 L 264.8 160.5 M 264.8 160.5 L 273.8 160.5 M 273.8 160.5 L 274.4 161.2 M 274.4 161.2 L 271.9 183.6 M 271.9 183.6 L 271.9 183.6 M 271.9 183.6 L 263.2 208.4 M 263.2 208.4 L 263.2 208.4 M 263.2 208.4 L 249.2 230.6 M 249.2 230.6 L 249.2 230.7 M 249.2 230.7 L 230.7 249.2 M 230.7 249.2 L 230.6 249.2 M 230.6 249.2 L 208.4 263.2 M 208.4 263.2 L 208.4 263.2 M 208.4 263.2 L 183.6 271.9 M 183.6 271.9 L 183.6 271.9 M 183.6 271.9 L 161.2 274.4 M 161.2 274.4 L 160.5 273.8 M 160.5 273.8 L 160.5 264.8 M 160.5 264.8 L 154.5 264.8 M 154.5 264.8 L 154.5 273.8 M 154.5 273.8 L 153.8 274.4 M 153.8 274.4 L 131.4 271.9 M 131.4 271.9 L 131.4 271.9 M 131.4 271.9 L 106.6 263.2 M 106.6 263.2 L 106.6 263.2 M 106.6 263.2 L 84.4 249.2 M 84.4 249.2 L 84.3 249.2 M 84.3 249.2 L 65.8 230.7 M 65.8 230.7 L 65.8 230.6 M 65.8 230.6 L 51.8 208.4 M 51.8 208.4 L 51.8 208.4 M 51.8 208.4 L 43.1 183.6 M 43.1 183.6 L 43.1 183.6 M 43.1 183.6 L 40.6 161.2 M 40.6 161.2 L 41.2 160.5 M 41.2 160.5 L 50.2 160.5 M 50.2 160.5 L 50.2 154.5 M 50.2 154.5 L 41.2 154.5 M 41.2 154.5 L 40.6 153.8 M 40.6 153.8 L 43.1 131.4 M 43.1 131.4 L 43.1 131.4 M 43.1 131.4 L 51.8 106.6 M 51.8 106.6 L 51.8 106.6 M 51.8 106.6 L 65.8 84.4 M 65.8 84.4 L 65.8 84.3 M 65.8 84.3 L 84.3 65.8 M 84.3 65.8 L 84.4 65.8 M 84.4 65.8 L 106.6 51.8 M 106.6 51.8 L 106.6 51.8 M 106.6 51.8 L 131.4 43.1 M 131.4 43.1 L 131.4 43.1 M 131.4 43.1 L 153.8 40.6 M 153.8 40.6 L 154.5 41.2 M 3383.6 43.1 L 3383.6 43.1 M 3383.6 43.1 L 3383.6 43.1 M 3383.6 43.1 L 3408.4 51.8 M 3408.4 51.8 L 3408.4 51.8 M 3408.4 51.8 L 3430.6 65.8 M 3430.6 65.8 L 3430.7 65.8 M 3430.7 65.8 L 3449.2 84.3 M 3449.2 84.3 L 3449.2 84.4 M 3449.2 84.4 L 3463.2 106.6 M 3463.2 106.6 L 3463.2 106.6 M 3463.2 106.6 L 3471.9 131.4 M 3471.9 131.4 L 3471.9 131.4 M 3471.9 131.4 L 3474.4 153.8 M 3474.4 153.8 L 3473.8 154.5 M 3473.8 154.5 L 3464.8 154.5 M 3464.8 154.5 L 3464.8 160.5 M 3464.8 160.5 L 3473.8 160.5 M 3473.8 160.5 L 3474.4 161.2 M 3474.4 161.2 L 3471.9 183.6 M 3471.9 183.6 L 3471.9 183.6 M 3471.9 183.6 L 3463.2 208.4 M 3463.2 208.4 L 3463.2 208.4 M 3463.2 208.4 L 3449.2 230.6 M 3449.2 230.6 L 3449.2 230.7 M 3449.2 230.7 L 3430.7 249.2 M 3430.7 249.2 L 3430.6 249.2 M 3430.6 249.2 L 3408.4 263.2 M 3408.4 263.2 L 3408.4 263.2 M 3408.4 263.2 L 3383.6 271.9 M 3383.6 271.9 L 3383.6 271.9 M 3383.6 271.9 L 3361.2 274.4 M 3361.2 274.4 L 3360.5 273.8 M 3360.5 273.8 L 3360.5 264.8 M 3360.5 264.8 L 3354.5 264.8 M 3354.5 264.8 L 3354.5 273.8 M 3354.5 273.8 L 3353.8 274.4 M 3353.8 274.4 L 3331.4 271.9 M 3331.4 271.9 L 3331.4 271.9 M 3331.4 271.9 L 3306.6 263.2 M 3306.6 263.2 L 3306.6 263.2 M 3306.6 263.2 L 3284.4 249.2 M 3284.4 249.2 L 3284.3 249.2 M 3284.3 249.2 L 3265.8 230.7 M 3265.8 230.7 L 3265.8 230.6 M 3265.8 230.6 L 3251.8 208.4 M 3251.8 208.4 L 3251.8 208.4 M 3251.8 208.4 L 3243.1 183.6 M 3243.1 183.6 L 3243.1 183.6 M 3243.1 183.6 L 3240.6 161.2 M 3240.6 161.2 L 3241.2 160.5 M 3241.2 160.5 L 3250.2 160.5 M 3250.2 160.5 L 3250.2 154.5 M 3250.2 154.5 L 3241.2 154.5 M 3241.2 154.5 L 3240.6 153.8 M 3240.6 153.8 L 3243.1 131.4 M 3243.1 131.4 L 3243.1 131.4 M 3243.1 131.4 L 3251.8 106.6 M 3251.8 106.6 L 3251.8 106.6 M 3251.8 106.6 L 3265.8 84.4 M 3265.8 84.4 L 3265.8 84.3 M 3265.8 84.3 L 3284.3 65.8 M 3284.3 65.8 L 3284.4 65.8 M 3284.4 65.8 L 3306.6 51.8 M 3306.6 51.8 L 3306.6 51.8 M 3306.6 51.8 L 3331.4 43.1 M 3331.4 43.1 L 3331.4 43.1 M 3331.4 43.1 L 3353.8 40.6 M 3353.8 40.6 L 3354.5 41.2 M 3354.5 41.2 L 3354.5 50.2 M 3354.5 50.2 L 3360.5 50.2 M 3360.5 50.2 L 3360.5 41.2 M 3360.5 41.2 L 3361.2 40.6 M 3361.2 40.6 L 3383.6 43.1 M 2160.6 49.9 L 2160.6 49.9 M 2160.6 49.9 L 2160.7 49.9 M 2160.7 49.9 L 2173.1 54.3 M 2173.1 54.3 L 2173.2 54.4 M 2173.2 54.4 L 2184.3 61.3 M 2184.3 61.3 L 2184.4 61.4 M 2184.4 61.4 L 2193.6 70.6 M 2193.6 70.6 L 2193.7 70.7 M 2193.7 70.7 L 2200.6 81.8 M 2200.6 81.8 L 2200.7 81.9 M 2200.7 81.9 L 2205.1 94.3 M 2205.1 94.3 L 2205.1 94.4 M 2205.1 94.4 L 2206.6 107.5 M 2206.6 107.5 L 2206.6 107.5 M 2206.6 107.5 L 2205.1 120.6 M 2205.1 120.6 L 2205.1 120.7 M 2205.1 120.7 L 2200.7 133.1 M 2200.7 133.1 L 2200.6 133.2 M 2200.6 133.2 L 2193.7 144.3 M 2193.7 144.3 L 2193.6 144.4 M 2193.6 144.4 L 2184.4 153.6 M 2184.4 153.6 L 2184.3 153.7 M 2184.3 153.7 L 2173.2 160.6 M 2173.2 160.6 L 2173.1 160.7 M 2173.1 160.7 L 2160.7 165.1 M 2160.7 165.1 L 2160.6 165.1 M 2160.6 165.1 L 2147.5 166.6 M 2147.5 166.6 L 2147.5 166.6 M 2147.5 166.6 L 2134.4 165.1 M 2134.4 165.1 L 2134.3 165.1 M 2134.3 165.1 L 2121.9 160.7 M 2121.9 160.7 L 2121.8 160.6 M 2121.8 160.6 L 2110.7 153.7 M 2110.7 153.7 L 2110.6 153.6 M 2110.6 153.6 L 2101.4 144.4 M 2101.4 144.4 L 2101.3 144.3 M 2101.3 144.3 L 2094.4 133.2 M 2094.4 133.2 L 2094.3 133.1 M 2094.3 133.1 L 2089.9 120.7 M 2089.9 120.7 L 2089.9 120.6 M 2089.9 120.6 L 2088.4 107.5 M 2088.4 107.5 L 2088.4 107.5 M 2088.4 107.5 L 2089.9 94.4 M 2089.9 94.4 L 2089.9 94.3 M 2089.9 94.3 L 2094.3 81.9 M 2094.3 81.9 L 2094.4 81.8 M 2094.4 81.8 L 2101.3 70.7 M 2101.3 70.7 L 2101.4 70.6 M 2101.4 70.6 L 2110.6 61.4 M 2110.6 61.4 L 2110.7 61.3 M 2110.7 61.3 L 2121.8 54.4 M 2121.8 54.4 L 2121.9 54.3 M 2121.9 54.3 L 2134.3 49.9 M 2134.3 49.9 L 2134.4 49.9 M 2134.4 49.9 L 2147.5 48.4 M 2147.5 48.4 L 2147.5 48.4 M 2147.5 48.4 L 2160.6 49.9 M 24.5 25.5 L 3490.5 25.5 M 24.5 27.4 L 3490.5 27.4 M 24.5 29.4 L 3490.5 29.4 M 24.5 31.3 L 3490.5 31.3 M 24.5 33.2 L 3490.5 33.2 M 24.5 35.2 L 3490.5 35.2 M 24.5 37.1 L 3490.5 37.1 M 24.5 39.1 L 3490.5 39.1 M 24.5 41 L 149.8 41 M 154.4 41 L 160.6 41 M 165.2 41 L 3349.8 41 M 3354.4 41 L 3360.6 41 M 3365.2 41 L 3490.5 41 M 24.5 43 L 132.5 43 M 154.5 43 L 160.5 43 M 182.5 43 L 3332.5 43 M 3354.5 43 L 3360.5 43 M 3382.5 43 L 3490.5 43 M 24.5 44.9 L 126.2 44.9 M 154.5 44.9 L 160.5 44.9 M 188.8 44.9 L 3326.2 44.9 M 3354.5 44.9 L 3360.5 44.9 M 3388.8 44.9 L 3490.5 44.9 M 24.5 46.9 L 120.6 46.9 M 154.5 46.9 L 160.5 46.9 M 194.4 46.9 L 3320.6 46.9 M 3354.5 46.9 L 3360.5 46.9 M 3394.4 46.9 L 3490.5 46.9 M 24.5 48.8 L 115.1 48.8 M 154.5 48.8 L 160.5 48.8 M 199.9 48.8 L 2144 48.8 M 2151 48.8 L 3315.1 48.8 M 3354.5 48.8 L 3360.5 48.8 M 3399.9 48.8 L 3490.5 48.8 M 24.5 50.8 L 109.5 50.8 M 205.5 50.8 L 2131.9 50.8 M 2163.1 50.8 L 3309.5 50.8 M 3405.5 50.8 L 3490.5 50.8 M 24.5 52.7 L 105.1 52.7 M 209.9 52.7 L 2126.3 52.7 M 2168.7 52.7 L 3305.1 52.7 M 3409.9 52.7 L 3490.5 52.7 M 24.5 54.7 L 102 54.7 M 213 54.7 L 2121.2 54.7 M 2173.8 54.7 L 3302 54.7 M 3413 54.7 L 3490.5 54.7 M 24.5 56.6 L 98.9 56.6 M 216.1 56.6 L 2118.1 56.6 M 2176.9 56.6 L 3298.9 56.6 M 3416.1 56.6 L 3490.5 56.6 M 24.5 58.6 L 95.8 58.6 M 219.2 58.6 L 2115.1 58.6 M 2179.9 58.6 L 3295.8 58.6 M 3419.2 58.6 L 3490.5 58.6 M 24.5 60.5 L 92.7 60.5 M 222.3 60.5 L 2111.9 60.5 M 2183.1 60.5 L 3292.7 60.5 M 3422.3 60.5 L 3490.5 60.5 M 24.5 62.5 L 89.6 62.5 M 225.4 62.5 L 2109.5 62.5 M 2185.5 62.5 L 3289.6 62.5 M 3425.4 62.5 L 3490.5 62.5 M 24.5 64.5 L 86.5 64.5 M 228.5 64.5 L 2107.6 64.5 M 2187.4 64.5 L 3286.5 64.5 M 3428.5 64.5 L 3490.5 64.5 M 24.5 66.4 L 83.7 66.4 M 231.3 66.4 L 2105.6 66.4 M 2189.4 66.4 L 3283.7 66.4 M 3431.3 66.4 L 3490.5 66.4 M 24.5 68.4 L 81.8 68.4 M 233.2 68.4 L 2103.7 68.4 M 2191.3 68.4 L 3281.8 68.4 M 3433.2 68.4 L 3490.5 68.4 M 24.5 70.3 L 79.8 70.3 M 235.2 70.3 L 2101.7 70.3 M 2193.3 70.3 L 3279.8 70.3 M 3435.2 70.3 L 3490.5 70.3 M 24.5 72.3 L 77.9 72.3 M 237.1 72.3 L 2100.3 72.3 M 2194.7 72.3 L 3277.9 72.3 M 3437.1 72.3 L 3490.5 72.3 M 24.5 74.2 L 75.9 74.2 M 239.1 74.2 L 2099.1 74.2 M 2195.9 74.2 L 3275.9 74.2 M 3439.1 74.2 L 3490.5 74.2 M 24.5 76.2 L 74 76.2 M 241 76.2 L 2097.9 76.2 M 2197.1 76.2 L 3274 76.2 M 3441 76.2 L 3490.5 76.2 M 24.5 78.1 L 72 78.1 M 243 78.1 L 2096.7 78.1 M 2198.3 78.1 L 3272 78.1 M 3443 78.1 L 3490.5 78.1 M 24.5 80.1 L 70.1 80.1 M 244.9 80.1 L 2095.5 80.1 M 2199.5 80.1 L 3270.1 80.1 M 3444.9 80.1 L 3490.5 80.1 M 24.5 82 L 68.1 82 M 246.9 82 L 2094.3 82 M 2200.7 82 L 3268.1 82 M 3446.9 82 L 3490.5 82 M 24.5 84 L 66.2 84 M 248.8 84 L 2093.6 84 M 2201.4 84 L 3266.2 84 M 3448.8 84 L 3490.5 84 M 24.5 85.9 L 64.8 85.9 M 250.2 85.9 L 2092.9 85.9 M 2202.1 85.9 L 3264.8 85.9 M 3450.2 85.9 L 3490.5 85.9 M 24.5 87.9 L 63.6 87.9 M 251.4 87.9 L 2092.2 87.9 M 2202.8 87.9 L 3263.6 87.9 M 3451.4 87.9 L 3490.5 87.9 M 24.5 89.8 L 62.3 89.8 M 252.7 89.8 L 2091.5 89.8 M 2203.5 89.8 L 3262.3 89.8 M 3452.7 89.8 L 3490.5 89.8 M 24.5 91.8 L 61.1 91.8 M 253.9 91.8 L 2090.8 91.8 M 2204.2 91.8 L 3261.1 91.8 M 3453.9 91.8 L 3490.5 91.8 M 24.5 93.7 L 59.9 93.7 M 255.1 93.7 L 2090.2 93.7 M 2204.8 93.7 L 3259.9 93.7 M 3455.1 93.7 L 3490.5 93.7 M 24.5 95.6 L 58.7 95.6 M 256.3 95.6 L 2089.8 95.6 M 2205.2 95.6 L 3258.7 95.6 M 3456.3 95.6 L 3490.5 95.6 M 24.5 97.6 L 57.5 97.6 M 257.5 97.6 L 2089.6 97.6 M 2205.4 97.6 L 3257.5 97.6 M 3457.5 97.6 L 3490.5 97.6 M 24.5 99.5 L 56.2 99.5 M 258.8 99.5 L 2089.4 99.5 M 2205.6 99.5 L 3256.2 99.5 M 3458.8 99.5 L 3490.5 99.5 M 24.5 101.5 L 55 101.5 M 260 101.5 L 2089.1 101.5 M 2205.9 101.5 L 3255 101.5 M 3460 101.5 L 3490.5 101.5 M 24.5 103.4 L 53.8 103.4 M 261.2 103.4 L 2088.9 103.4 M 2206.1 103.4 L 3253.8 103.4 M 3461.2 103.4 L 3490.5 103.4 M 24.5 105.4 L 52.5 105.4 M 262.5 105.4 L 2088.7 105.4 M 2206.3 105.4 L 3252.5 105.4 M 3462.5 105.4 L 3490.5 105.4 M 24.5 107.3 L 51.6 107.3 M 263.4 107.3 L 2088.5 107.3 M 2206.5 107.3 L 3251.6 107.3 M 3463.4 107.3 L 3490.5 107.3 M 24.5 109.3 L 50.8 109.3 M 264.2 109.3 L 2088.6 109.3 M 2206.4 109.3 L 3250.8 109.3 M 3464.2 109.3 L 3490.5 109.3 M 24.5 111.2 L 50.2 111.2 M 264.8 111.2 L 2088.9 111.2 M 2206.1 111.2 L 3250.2 111.2 M 3464.8 111.2 L 3490.5 111.2 M 24.5 113.2 L 49.5 113.2 M 265.5 113.2 L 2089.1 113.2 M 2205.9 113.2 L 3249.5 113.2 M 3465.5 113.2 L 3490.5 113.2 M 24.5 115.1 L 48.8 115.1 M 266.2 115.1 L 2089.3 115.1 M 2205.7 115.1 L 3248.8 115.1 M 3466.2 115.1 L 3490.5 115.1 M 24.5 117.1 L 48.1 117.1 M 266.9 117.1 L 2089.5 117.1 M 2205.5 117.1 L 3248.1 117.1 M 3466.9 117.1 L 3490.5 117.1 M 24.5 119 L 47.5 119 M 267.5 119 L 2089.7 119 M 2205.3 119 L 3247.5 119 M 3467.5 119 L 3490.5 119 M 24.5 121 L 46.8 121 M 268.2 121 L 2090.1 121 M 2204.9 121 L 3246.8 121 M 3468.2 121 L 3490.5 121 M 24.5 122.9 L 46.1 122.9 M 268.9 122.9 L 2090.7 122.9 M 2204.3 122.9 L 3246.1 122.9 M 3468.9 122.9 L 3490.5 122.9 M 24.5 124.9 L 45.4 124.9 M 269.6 124.9 L 2091.4 124.9 M 2203.6 124.9 L 3245.4 124.9 M 3469.6 124.9 L 3490.5 124.9 M 24.5 126.8 L 44.7 126.8 M 270.3 126.8 L 2092.1 126.8 M 2202.9 126.8 L 3244.7 126.8 M 3470.3 126.8 L 3490.5 126.8 M 24.5 128.8 L 44 128.8 M 271 128.8 L 2092.8 128.8 M 2202.2 128.8 L 3244 128.8 M 3471 128.8 L 3490.5 128.8 M 24.5 130.8 L 43.4 130.8 M 271.6 130.8 L 2093.5 130.8 M 2201.5 130.8 L 3243.4 130.8 M 3471.6 130.8 L 3490.5 130.8 M 24.5 132.7 L 43 132.7 M 272 132.7 L 2094.2 132.7 M 2200.8 132.7 L 3243 132.7 M 3472 132.7 L 3490.5 132.7 M 24.5 134.7 L 42.8 134.7 M 272.2 134.7 L 2095.3 134.7 M 2199.7 134.7 L 3242.8 134.7 M 3472.2 134.7 L 3490.5 134.7 M 24.5 136.6 L 42.5 136.6 M 272.5 136.6 L 2096.5 136.6 M 2198.5 136.6 L 3242.5 136.6 M 3472.5 136.6 L 3490.5 136.6 M 24.5 138.6 L 42.3 138.6 M 272.7 138.6 L 2097.7 138.6 M 2197.3 138.6 L 3242.3 138.6 M 3472.7 138.6 L 3490.5 138.6 M 24.5 140.5 L 42.1 140.5 M 272.9 140.5 L 2099 140.5 M 2196 140.5 L 3242.1 140.5 M 3472.9 140.5 L 3490.5 140.5 M 24.5 142.5 L 41.9 142.5 M 273.1 142.5 L 2100.2 142.5 M 2194.8 142.5 L 3241.9 142.5 M 3473.1 142.5 L 3490.5 142.5 M 24.5 144.4 L 41.7 144.4 M 273.3 144.4 L 2101.4 144.4 M 2193.6 144.4 L 3241.7 144.4 M 3473.3 144.4 L 3490.5 144.4 M 24.5 146.4 L 41.4 146.4 M 273.6 146.4 L 2103.4 146.4 M 2191.6 146.4 L 3241.4 146.4 M 3473.6 146.4 L 3490.5 146.4 M 24.5 148.3 L 41.2 148.3 M 273.8 148.3 L 2105.3 148.3 M 2189.7 148.3 L 3241.2 148.3 M 3473.8 148.3 L 3490.5 148.3 M 24.5 150.3 L 41 150.3 M 274 150.3 L 2107.3 150.3 M 2187.7 150.3 L 3241 150.3 M 3474 150.3 L 3490.5 150.3 M 24.5 152.2 L 40.8 152.2 M 274.2 152.2 L 2109.2 152.2 M 2185.8 152.2 L 3240.8 152.2 M 3474.2 152.2 L 3490.5 152.2 M 24.5 154.2 L 40.9 154.2 M 274.1 154.2 L 2111.5 154.2 M 2183.5 154.2 L 3240.9 154.2 M 3474.1 154.2 L 3490.5 154.2 M 24.5 156.1 L 50.2 156.1 M 264.8 156.1 L 2114.5 156.1 M 2180.5 156.1 L 3250.2 156.1 M 3464.8 156.1 L 3490.5 156.1 M 24.5 158.1 L 50.2 158.1 M 264.8 158.1 L 2117.7 158.1 M 2177.3 158.1 L 3250.2 158.1 M 3464.8 158.1 L 3490.5 158.1 M 24.5 160 L 50.2 160 M 264.8 160 L 2120.8 160 M 2174.2 160 L 3250.2 160 M 3464.8 160 L 3490.5 160 M 24.5 161.9 L 40.7 161.9 M 274.3 161.9 L 2125.5 161.9 M 2169.5 161.9 L 3240.7 161.9 M 3474.3 161.9 L 3490.5 161.9 M 24.5 163.9 L 40.9 163.9 M 274.1 163.9 L 2131 163.9 M 2164 163.9 L 3240.9 163.9 M 3474.1 163.9 L 3490.5 163.9 M 24.5 165.8 L 41.1 165.8 M 273.9 165.8 L 2141.3 165.8 M 2153.7 165.8 L 3241.1 165.8 M 3473.9 165.8 L 3490.5 165.8 M 24.5 167.8 L 41.4 167.8 M 273.6 167.8 L 3241.4 167.8 M 3473.6 167.8 L 3490.5 167.8 M 24.5 169.7 L 41.6 169.7 M 273.4 169.7 L 3241.6 169.7 M 3473.4 169.7 L 3490.5 169.7 M 24.5 171.7 L 41.8 171.7 M 273.2 171.7 L 3241.8 171.7 M 3473.2 171.7 L 3490.5 171.7 M 24.5 173.6 L 42 173.6 M 273 173.6 L 3242 173.6 M 3473 173.6 L 3490.5 173.6 M 24.5 175.6 L 42.2 175.6 M 272.8 175.6 L 3242.2 175.6 M 3472.8 175.6 L 3490.5 175.6 M 24.5 177.5 L 42.5 177.5 M 272.5 177.5 L 3242.5 177.5 M 3472.5 177.5 L 3490.5 177.5 M 24.5 179.5 L 42.7 179.5 M 272.3 179.5 L 3242.7 179.5 M 3472.3 179.5 L 3490.5 179.5 M 24.5 181.4 L 42.9 181.4 M 272.1 181.4 L 3242.9 181.4 M 3472.1 181.4 L 3490.5 181.4 M 24.5 183.4 L 43.1 183.4 M 271.9 183.4 L 3243.1 183.4 M 3471.9 183.4 L 3490.5 183.4 M 24.5 185.3 L 43.7 185.3 M 271.3 185.3 L 3243.7 185.3 M 3471.3 185.3 L 3490.5 185.3 M 24.5 187.3 L 44.4 187.3 M 270.6 187.3 L 3244.4 187.3 M 3470.6 187.3 L 3490.5 187.3 M 24.5 189.2 L 45.1 189.2 M 269.9 189.2 L 3245.1 189.2 M 3469.9 189.2 L 3490.5 189.2 M 24.5 191.2 L 45.8 191.2 M 269.2 191.2 L 3245.8 191.2 M 3469.2 191.2 L 3490.5 191.2 M 24.5 193.2 L 46.5 193.2 M 268.5 193.2 L 3246.5 193.2 M 3468.5 193.2 L 3490.5 193.2 M 24.5 195.1 L 47.1 195.1 M 267.9 195.1 L 3247.1 195.1 M 3467.9 195.1 L 3490.5 195.1 M 24.5 197.1 L 47.8 197.1 M 267.2 197.1 L 3247.8 197.1 M 3467.2 197.1 L 3490.5 197.1 M 24.5 199 L 48.5 199 M 266.5 199 L 3248.5 199 M 3466.5 199 L 3490.5 199 M 24.5 201 L 49.2 201 M 265.8 201 L 3249.2 201 M 3465.8 201 L 3490.5 201 M 24.5 202.9 L 49.9 202.9 M 265.1 202.9 L 3249.9 202.9 M 3465.1 202.9 L 3490.5 202.9 M 24.5 204.9 L 50.6 204.9 M 264.4 204.9 L 3250.6 204.9 M 3464.4 204.9 L 3490.5 204.9 M 24.5 206.8 L 51.2 206.8 M 263.8 206.8 L 3251.2 206.8 M 3463.8 206.8 L 3490.5 206.8 M 24.5 208.8 L 52 208.8 M 263 208.8 L 3252 208.8 M 3463 208.8 L 3490.5 208.8 M 24.5 210.7 L 53.2 210.7 M 261.8 210.7 L 3253.2 210.7 M 3461.8 210.7 L 3490.5 210.7 M 24.5 212.7 L 54.5 212.7 M 260.5 212.7 L 3254.5 212.7 M 3460.5 212.7 L 3490.5 212.7 M 24.5 214.6 L 55.7 214.6 M 259.3 214.6 L 3255.7 214.6 M 3459.3 214.6 L 3490.5 214.6 M 24.5 216.6 L 56.9 216.6 M 258.1 216.6 L 3256.9 216.6 M 3458.1 216.6 L 3490.5 216.6 M 24.5 218.5 L 58.2 218.5 M 256.8 218.5 L 3258.2 218.5 M 3456.8 218.5 L 3490.5 218.5 M 24.5 220.5 L 59.4 220.5 M 255.6 220.5 L 3259.4 220.5 M 3455.6 220.5 L 3490.5 220.5 M 24.5 222.4 L 60.6 222.4 M 254.4 222.4 L 3260.6 222.4 M 3454.4 222.4 L 3490.5 222.4 M 24.5 224.4 L 61.8 224.4 M 253.2 224.4 L 3261.8 224.4 M 3453.2 224.4 L 3490.5 224.4 M 24.5 226.3 L 63.1 226.3 M 251.9 226.3 L 3263.1 226.3 M 3451.9 226.3 L 3490.5 226.3 M 24.5 228.2 L 64.3 228.2 M 250.7 228.2 L 3264.3 228.2 M 3450.7 228.2 L 3490.5 228.2 M 24.5 230.2 L 65.5 230.2 M 249.5 230.2 L 3265.5 230.2 M 3449.5 230.2 L 3490.5 230.2 M 24.5 232.1 L 67.3 232.1 M 247.7 232.1 L 3267.3 232.1 M 3447.7 232.1 L 3490.5 232.1 M 24.5 234.1 L 69.2 234.1 M 245.8 234.1 L 3269.2 234.1 M 3445.8 234.1 L 3490.5 234.1 M 24.5 236 L 71.2 236 M 243.8 236 L 3271.2 236 M 3443.8 236 L 3490.5 236 M 24.5 238 L 73.1 238 M 241.9 238 L 3273.1 238 M 3441.9 238 L 3490.5 238 M 24.5 239.9 L 75.1 239.9 M 239.9 239.9 L 3275.1 239.9 M 3439.9 239.9 L 3490.5 239.9 M 24.5 241.9 L 77 241.9 M 238 241.9 L 3277 241.9 M 3438 241.9 L 3490.5 241.9 M 24.5 243.8 L 79 243.8 M 236 243.8 L 3279 243.8 M 3436 243.8 L 3490.5 243.8 M 24.5 245.8 L 80.9 245.8 M 234.1 245.8 L 3280.9 245.8 M 3434.1 245.8 L 3490.5 245.8 M 24.5 247.7 L 82.9 247.7 M 232.1 247.7 L 3282.9 247.7 M 3432.1 247.7 L 3490.5 247.7 M 24.5 249.7 L 85.1 249.7 M 229.9 249.7 L 3285.1 249.7 M 3429.9 249.7 L 3490.5 249.7 M 24.5 251.6 L 88.2 251.6 M 226.8 251.6 L 3288.2 251.6 M 3426.8 251.6 L 3490.5 251.6 M 24.5 253.6 L 91.3 253.6 M 223.7 253.6 L 3291.3 253.6 M 3423.7 253.6 L 3490.5 253.6 M 24.5 255.5 L 94.4 255.5 M 220.6 255.5 L 3294.4 255.5 M 3420.6 255.5 L 3490.5 255.5 M 24.5 257.5 L 97.5 257.5 M 217.5 257.5 L 3297.5 257.5 M 3417.5 257.5 L 3490.5 257.5 M 24.5 259.5 L 100.6 259.5 M 214.4 259.5 L 3300.6 259.5 M 3414.4 259.5 L 3490.5 259.5 M 24.5 261.4 L 103.8 261.4 M 211.2 261.4 L 510.1 261.4 M 512.8 261.4 L 2941.6 261.4 M 3025.5 261.4 L 3303.8 261.4 M 3411.2 261.4 L 3490.5 261.4 M 24.5 263.4 L 107 263.4 M 208 263.4 L 498 263.4 M 524.9 263.4 L 2937.5 263.4 M 3029.7 263.4 L 3307 263.4 M 3408 263.4 L 3490.5 263.4 M 24.5 265.3 L 112.6 265.3 M 154.5 265.3 L 160.5 265.3 M 202.4 265.3 L 492.4 265.3 M 530.5 265.3 L 2935.7 265.3 M 3031.4 265.3 L 3312.6 265.3 M 3354.5 265.3 L 3360.5 265.3 M 3402.4 265.3 L 3490.5 265.3 M 24.5 267.3 L 118.2 267.3 M 154.5 267.3 L 160.5 267.3 M 196.8 267.3 L 488.2 267.3 M 534.6 267.3 L 2934.7 267.3 M 3032.4 267.3 L 3318.2 267.3 M 3354.5 267.3 L 3360.5 267.3 M 3396.8 267.3 L 3490.5 267.3 M 24.5 269.2 L 123.8 269.2 M 154.5 269.2 L 160.5 269.2 M 191.2 269.2 L 485.1 269.2 M 537.7 269.2 L 2934.3 269.2 M 3032.9 269.2 L 3323.8 269.2 M 3354.5 269.2 L 3360.5 269.2 M 3391.2 269.2 L 3490.5 269.2 M 24.5 271.2 L 129.4 271.2 M 154.5 271.2 L 160.5 271.2 M 185.6 271.2 L 482 271.2 M 540.8 271.2 L 2934.2 271.2 M 3033 271.2 L 3329.4 271.2 M 3354.5 271.2 L 3360.5 271.2 M 3385.6 271.2 L 3490.5 271.2 M 24.5 273.1 L 142.3 273.1 M 154.5 273.1 L 160.5 273.1 M 172.7 273.1 L 479.5 273.1 M 543.3 273.1 L 2934.2 273.1 M 3033 273.1 L 3342.3 273.1 M 3354.5 273.1 L 3360.5 273.1 M 3372.7 273.1 L 3490.5 273.1 M 24.5 275.1 L 477.6 275.1 M 545.3 275.1 L 2934.2 275.1 M 3033 275.1 L 3490.5 275.1 M 24.5 277 L 475.6 277 M 547.2 277 L 2934.2 277 M 3033 277 L 3490.5 277 M 24.5 279 L 473.7 279 M 549.2 279 L 2934.2 279 M 3033 279 L 3490.5 279 M 24.5 280.9 L 472.1 280.9 M 550.7 280.9 L 2934.2 280.9 M 3033 280.9 L 3490.5 280.9 M 24.5 282.9 L 470.9 282.9 M 551.9 282.9 L 2934.2 282.9 M 3033 282.9 L 3490.5 282.9 M 24.5 284.8 L 469.7 284.8 M 553.2 284.8 L 2934.2 284.8 M 3033 284.8 L 3490.5 284.8 M 24.5 286.8 L 468.5 286.8 M 554.4 286.8 L 2934.2 286.8 M 3033 286.8 L 3490.5 286.8 M 24.5 288.7 L 467.3 288.7 M 555.6 288.7 L 2934.2 288.7 M 3033 288.7 L 3490.5 288.7 M 24.5 290.6 L 466.4 290.6 M 556.4 290.6 L 2934.2 290.6 M 3033 290.6 L 3490.5 290.6 M 24.5 292.6 L 465.7 292.6 M 557.1 292.6 L 2934.2 292.6 M 3033 292.6 L 3490.5 292.6 M 24.5 294.5 L 465.1 294.5 M 557.8 294.5 L 2934.2 294.5 M 3033 294.5 L 3490.5 294.5 M 24.5 296.5 L 464.4 296.5 M 558.5 296.5 L 2934.2 296.5 M 3033 296.5 L 3490.5 296.5 M 24.5 298.4 L 463.7 298.4 M 559.2 298.4 L 2934.2 298.4 M 3033 298.4 L 3490.5 298.4 M 24.5 300.4 L 463.2 300.4 M 559.7 300.4 L 2934.2 300.4 M 3033 300.4 L 3490.5 300.4 M 24.5 302.3 L 463 302.3 M 559.9 302.3 L 2934.2 302.3 M 3033 302.3 L 3490.5 302.3 M 24.5 304.3 L 462.7 304.3 M 560.1 304.3 L 2934.2 304.3 M 3033 304.3 L 3490.5 304.3 M 24.5 306.2 L 462.5 306.2 M 560.3 306.2 L 2934.2 306.2 M 3033 306.2 L 3490.5 306.2 M 24.5 308.2 L 462.3 308.2 M 560.6 308.2 L 2934.2 308.2 M 3033 308.2 L 3490.5 308.2 M 24.5 310.1 L 462.1 310.1 M 560.8 310.1 L 2934.2 310.1 M 3033 310.1 L 3490.5 310.1 M 24.5 312.1 L 462.2 312.1 M 560.7 312.1 L 2934.2 312.1 M 3033 312.1 L 3490.5 312.1 M 24.5 314 L 462.4 314 M 560.5 314 L 2934.2 314 M 3033 314 L 3490.5 314 M 24.5 316 L 462.7 316 M 560.2 316 L 2934.2 316 M 3033 316 L 3490.5 316 M 24.5 317.9 L 462.9 317.9 M 560 317.9 L 2934.2 317.9 M 3033 317.9 L 3490.5 317.9 M 24.5 319.9 L 463.1 319.9 M 559.8 319.9 L 2934.2 319.9 M 3033 319.9 L 3490.5 319.9 M 24.5 321.8 L 463.4 321.8 M 559.5 321.8 L 2934.2 321.8 M 3033 321.8 L 3490.5 321.8 M 24.5 323.8 L 464 323.8 M 558.8 323.8 L 2934.2 323.8 M 3033 323.8 L 3490.5 323.8 M 24.5 325.8 L 464.7 325.8 M 558.2 325.8 L 2934.2 325.8 M 3033 325.8 L 3490.5 325.8 M 24.5 327.7 L 465.4 327.7 M 557.5 327.7 L 2934.2 327.7 M 3033 327.7 L 3490.5 327.7 M 24.5 329.7 L 466.1 329.7 M 556.8 329.7 L 2934.2 329.7 M 3033 329.7 L 3490.5 329.7 M 24.5 331.6 L 466.8 331.6 M 556.1 331.6 L 2934.2 331.6 M 3033 331.6 L 3490.5 331.6 M 24.5 333.6 L 467.9 333.6 M 555 333.6 L 2934.2 333.6 M 3033 333.6 L 3490.5 333.6 M 24.5 335.5 L 469.1 335.5 M 553.8 335.5 L 2934.2 335.5 M 3033 335.5 L 3490.5 335.5 M 24.5 337.5 L 470.3 337.5 M 552.6 337.5 L 2934.2 337.5 M 3033 337.5 L 3490.5 337.5 M 24.5 339.4 L 471.5 339.4 M 551.4 339.4 L 2934.2 339.4 M 3033 339.4 L 3490.5 339.4 M 24.5 341.4 L 472.7 341.4 M 550.1 341.4 L 2934.2 341.4 M 3033 341.4 L 3490.5 341.4 M 24.5 343.3 L 474.7 343.3 M 548.2 343.3 L 2934.2 343.3 M 3033 343.3 L 3490.5 343.3 M 24.5 345.3 L 476.6 345.3 M 546.2 345.3 L 2934.2 345.3 M 3033 345.3 L 3490.5 345.3 M 24.5 347.2 L 478.6 347.2 M 544.3 347.2 L 2934.2 347.2 M 3033 347.2 L 3490.5 347.2 M 24.5 349.2 L 480.5 349.2 M 542.3 349.2 L 1341.3 349.2 M 1353.7 349.2 L 2934.2 349.2 M 3033 349.2 L 3490.5 349.2 M 24.5 351.1 L 483.6 351.1 M 539.3 351.1 L 1331 351.1 M 1364 351.1 L 2934.2 351.1 M 3032.9 351.1 L 3490.5 351.1 M 24.5 353.1 L 486.6 353.1 M 536.2 353.1 L 1325.5 353.1 M 1369.5 353.1 L 2934.4 353.1 M 3032.7 353.1 L 3490.5 353.1 M 24.5 355 L 489.7 355 M 533.1 355 L 1320.8 355 M 1374.2 355 L 2935.1 355 M 3032 355 L 3490.5 355 M 24.5 356.9 L 495.1 356.9 M 527.7 356.9 L 1317.7 356.9 M 1377.3 356.9 L 2936.4 356.9 M 3030.7 356.9 L 3490.5 356.9 M 24.5 358.9 L 501.2 358.9 M 521.6 358.9 L 1314.5 358.9 M 1380.5 358.9 L 2938.8 358.9 M 3028.3 358.9 L 3490.5 358.9 M 24.5 360.8 L 1311.5 360.8 M 1383.5 360.8 L 3490.5 360.8 M 24.5 362.8 L 1309.2 362.8 M 1385.8 362.8 L 3490.5 362.8 M 24.5 364.7 L 1307.3 364.7 M 1387.7 364.7 L 3490.5 364.7 M 24.5 366.7 L 1305.3 366.7 M 1389.7 366.7 L 3490.5 366.7 M 24.5 368.6 L 1303.4 368.6 M 1391.6 368.6 L 3490.5 368.6 M 24.5 370.6 L 1301.4 370.6 M 1393.6 370.6 L 3490.5 370.6 M 24.5 372.5 L 1300.2 372.5 M 1394.8 372.5 L 3490.5 372.5 M 24.5 374.5 L 1299 374.5 M 1396 374.5 L 3490.5 374.5 M 24.5 376.4 L 1297.7 376.4 M 1397.3 376.4 L 3490.5 376.4 M 24.5 378.4 L 1296.5 378.4 M 1398.5 378.4 L 3490.5 378.4 M 24.5 380.3 L 1295.3 380.3 M 1399.7 380.3 L 3490.5 380.3 M 24.5 382.3 L 1294.2 382.3 M 1400.8 382.3 L 3490.5 382.3 M 24.5 384.2 L 1293.5 384.2 M 1401.5 384.2 L 3490.5 384.2 M 24.5 386.2 L 1292.8 386.2 M 1402.2 386.2 L 3490.5 386.2 M 24.5 388.2 L 1292.1 388.2 M 1402.9 388.2 L 3490.5 388.2 M 24.5 390.1 L 1291.4 390.1 M 1403.6 390.1 L 3490.5 390.1 M 24.5 392.1 L 1290.7 392.1 M 1404.3 392.1 L 3490.5 392.1 M 24.5 394 L 1290.1 394 M 1404.9 394 L 3490.5 394 M 24.5 396 L 1289.7 396 M 1405.3 396 L 3490.5 396 M 24.5 397.9 L 1289.5 397.9 M 1405.5 397.9 L 3490.5 397.9 M 24.5 399.9 L 1289.3 399.9 M 1405.7 399.9 L 3490.5 399.9 M 24.5 401.8 L 1289.1 401.8 M 1405.9 401.8 L 3490.5 401.8 M 24.5 403.8 L 1288.9 403.8 M 1406.1 403.8 L 3490.5 403.8 M 24.5 405.7 L 1288.6 405.7 M 1406.4 405.7 L 3490.5 405.7 M 24.5 407.7 L 1288.5 407.7 M 1406.5 407.7 L 3490.5 407.7 M 24.5 409.6 L 1288.7 409.6 M 1406.3 409.6 L 3490.5 409.6 M 24.5 411.6 L 1288.9 411.6 M 1406.1 411.6 L 3490.5 411.6 M 24.5 413.5 L 1289.1 413.5 M 1405.9 413.5 L 3490.5 413.5 M 24.5 415.5 L 1289.4 415.5 M 1405.6 415.5 L 3490.5 415.5 M 24.5 417.4 L 1289.6 417.4 M 1405.4 417.4 L 3490.5 417.4 M 24.5 419.4 L 1289.8 419.4 M 1405.2 419.4 L 3490.5 419.4 M 24.5 421.3 L 1290.2 421.3 M 1404.8 421.3 L 3490.5 421.3 M 24.5 423.2 L 1290.8 423.2 M 1404.2 423.2 L 3490.5 423.2 M 24.5 425.2 L 1291.5 425.2 M 1403.5 425.2 L 3490.5 425.2 M 24.5 427.1 L 1292.2 427.1 M 1402.8 427.1 L 3490.5 427.1 M 24.5 429.1 L 1292.9 429.1 M 1402.1 429.1 L 3490.5 429.1 M 24.5 431 L 1293.6 431 M 1401.4 431 L 3490.5 431 M 24.5 433 L 1294.3 433 M 1400.7 433 L 3490.5 433 M 24.5 434.9 L 1295.5 434.9 M 1399.5 434.9 L 3490.5 434.9 M 24.5 436.9 L 1296.7 436.9 M 1398.3 436.9 L 3490.5 436.9 M 24.5 438.8 L 1297.9 438.8 M 1397.1 438.8 L 3490.5 438.8 M 24.5 440.8 L 1299.1 440.8 M 1395.9 440.8 L 3490.5 440.8 M 24.5 442.7 L 1300.3 442.7 M 1394.7 442.7 L 3490.5 442.7 M 24.5 444.7 L 1301.7 444.7 M 1393.3 444.7 L 3490.5 444.7 M 24.5 446.6 L 1303.7 446.6 M 1391.3 446.6 L 3490.5 446.6 M 24.5 448.6 L 1305.6 448.6 M 1389.4 448.6 L 2146.2 448.6 M 2148.8 448.6 L 3490.5 448.6 M 24.5 450.5 L 1307.6 450.5 M 1387.4 450.5 L 2132.6 450.5 M 2162.4 450.5 L 3490.5 450.5 M 24.5 452.5 L 1309.5 452.5 M 1385.5 452.5 L 2127 452.5 M 2168 452.5 L 3490.5 452.5 M 24.5 454.5 L 1311.9 454.5 M 1383.1 454.5 L 2121.6 454.5 M 2173.4 454.5 L 3490.5 454.5 M 24.5 456.4 L 1315.1 456.4 M 1379.9 456.4 L 2118.5 456.4 M 2176.5 456.4 L 3490.5 456.4 M 24.5 458.4 L 509.2 458.4 M 513.6 458.4 L 1318.1 458.4 M 1376.9 458.4 L 2115.5 458.4 M 2179.5 458.4 L 2981.4 458.4 M 2985.8 458.4 L 3490.5 458.4 M 24.5 460.3 L 497.7 460.3 M 525.2 460.3 L 1321.2 460.3 M 1373.8 460.3 L 2112.3 460.3 M 2182.7 460.3 L 2969.8 460.3 M 2997.3 460.3 L 3490.5 460.3 M 24.5 462.3 L 492.1 462.3 M 530.8 462.3 L 1326.3 462.3 M 1368.7 462.3 L 2109.8 462.3 M 2185.2 462.3 L 2964.2 462.3 M 3002.9 462.3 L 3490.5 462.3 M 24.5 464.2 L 488.1 464.2 M 534.8 464.2 L 1331.9 464.2 M 1363.1 464.2 L 2107.8 464.2 M 2187.2 464.2 L 2960.2 464.2 M 3006.9 464.2 L 3490.5 464.2 M 24.5 466.2 L 485 466.2 M 537.9 466.2 L 1344 466.2 M 1351 466.2 L 2105.9 466.2 M 2189.1 466.2 L 2957.1 466.2 M 3010 466.2 L 3490.5 466.2 M 24.5 468.1 L 481.9 468.1 M 541 468.1 L 2103.9 468.1 M 2191.1 468.1 L 2954 468.1 M 3013.1 468.1 L 3490.5 468.1 M 24.5 470.1 L 479.5 470.1 M 543.4 470.1 L 2102 470.1 M 2193 470.1 L 2951.6 470.1 M 3015.5 470.1 L 3490.5 470.1 M 24.5 472 L 477.5 472 M 545.4 472 L 2100.5 472 M 2194.5 472 L 2949.6 472 M 3017.5 472 L 3490.5 472 M 24.5 474 L 475.6 474 M 547.3 474 L 2099.3 474 M 2195.7 474 L 2947.7 474 M 3019.4 474 L 3490.5 474 M 24.5 475.9 L 473.6 475.9 M 549.3 475.9 L 2098.1 475.9 M 2196.9 475.9 L 2945.7 475.9 M 3021.4 475.9 L 3490.5 475.9 M 24.5 477.9 L 472.1 477.9 M 550.8 477.9 L 2096.8 477.9 M 2198.2 477.9 L 2944.2 477.9 M 3022.9 477.9 L 3490.5 477.9 M 24.5 479.8 L 470.9 479.8 M 552 479.8 L 2095.6 479.8 M 2199.4 479.8 L 2943 479.8 M 3024.1 479.8 L 3490.5 479.8 M 24.5 481.8 L 469.6 481.8 M 553.2 481.8 L 2094.4 481.8 M 2200.6 481.8 L 2941.8 481.8 M 3025.4 481.8 L 3490.5 481.8 M 24.5 483.7 L 468.4 483.7 M 554.5 483.7 L 2093.7 483.7 M 2201.3 483.7 L 2940.5 483.7 M 3026.6 483.7 L 3490.5 483.7 M 24.5 485.6 L 467.2 485.6 M 555.7 485.6 L 2093 485.6 M 2202 485.6 L 2939.3 485.6 M 3027.8 485.6 L 3490.5 485.6 M 24.5 487.6 L 466.4 487.6 M 556.5 487.6 L 2092.3 487.6 M 2202.7 487.6 L 2938.5 487.6 M 3028.6 487.6 L 3490.5 487.6 M 24.5 489.5 L 465.7 489.5 M 557.1 489.5 L 2091.6 489.5 M 2203.4 489.5 L 2937.9 489.5 M 3029.3 489.5 L 3490.5 489.5 M 24.5 491.5 L 465 491.5 M 557.9 491.5 L 2090.9 491.5 M 2204.1 491.5 L 2937.1 491.5 M 3030 491.5 L 3490.5 491.5 M 24.5 493.4 L 464.4 493.4 M 558.5 493.4 L 2090.3 493.4 M 2204.7 493.4 L 2936.5 493.4 M 3030.6 493.4 L 3490.5 493.4 M 24.5 495.4 L 463.7 495.4 M 559.2 495.4 L 2089.8 495.4 M 2205.2 495.4 L 2935.8 495.4 M 3031.3 495.4 L 3490.5 495.4 M 24.5 497.3 L 463.2 497.3 M 559.7 497.3 L 2089.6 497.3 M 2205.4 497.3 L 2935.3 497.3 M 3031.8 497.3 L 3490.5 497.3 M 24.5 499.3 L 463 499.3 M 559.9 499.3 L 2089.4 499.3 M 2205.6 499.3 L 2935.1 499.3 M 3032 499.3 L 3490.5 499.3 M 24.5 501.2 L 462.7 501.2 M 560.1 501.2 L 2089.2 501.2 M 2205.8 501.2 L 2934.9 501.2 M 3032.3 501.2 L 3490.5 501.2 M 24.5 503.2 L 462.5 503.2 M 560.3 503.2 L 2089 503.2 M 2206 503.2 L 2934.7 503.2 M 3032.5 503.2 L 3490.5 503.2 M 24.5 505.1 L 462.3 505.1 M 560.6 505.1 L 2088.7 505.1 M 2206.3 505.1 L 2934.4 505.1 M 3032.7 505.1 L 3490.5 505.1 M 24.5 507.1 L 462.1 507.1 M 560.8 507.1 L 2088.5 507.1 M 2206.5 507.1 L 2934.2 507.1 M 3032.9 507.1 L 3490.5 507.1 M 24.5 509 L 462.2 509 M 560.6 509 L 2088.6 509 M 2206.4 509 L 2934.4 509 M 3032.8 509 L 3490.5 509 M 24.5 511 L 462.4 511 M 560.5 511 L 2088.8 511 M 2206.2 511 L 2934.5 511 M 3032.6 511 L 3490.5 511 M 24.5 512.9 L 462.7 512.9 M 560.2 512.9 L 2089.1 512.9 M 2205.9 512.9 L 2934.8 512.9 M 3032.3 512.9 L 3490.5 512.9 M 24.5 514.9 L 462.9 514.9 M 560 514.9 L 2089.3 514.9 M 2205.7 514.9 L 2935 514.9 M 3032.1 514.9 L 3490.5 514.9 M 24.5 516.8 L 463.1 516.8 M 559.8 516.8 L 2089.5 516.8 M 2205.5 516.8 L 2935.2 516.8 M 3031.9 516.8 L 3490.5 516.8 M 24.5 518.8 L 463.4 518.8 M 559.5 518.8 L 2089.7 518.8 M 2205.3 518.8 L 2935.5 518.8 M 3031.6 518.8 L 3490.5 518.8 M 24.5 520.8 L 464.1 520.8 M 558.8 520.8 L 2090 520.8 M 2205 520.8 L 2936.2 520.8 M 3030.9 520.8 L 3490.5 520.8 M 24.5 522.7 L 464.7 522.7 M 558.1 522.7 L 2090.6 522.7 M 2204.4 522.7 L 2936.9 522.7 M 3030.3 522.7 L 3490.5 522.7 M 24.5 524.7 L 465.4 524.7 M 557.5 524.7 L 2091.3 524.7 M 2203.7 524.7 L 2937.5 524.7 M 3029.6 524.7 L 3490.5 524.7 M 24.5 526.6 L 466.1 526.6 M 556.8 526.6 L 2092 526.6 M 2203 526.6 L 2938.2 526.6 M 3028.9 526.6 L 3490.5 526.6 M 24.5 528.6 L 466.8 528.6 M 556.1 528.6 L 2092.7 528.6 M 2202.3 528.6 L 2938.9 528.6 M 3028.2 528.6 L 3490.5 528.6 M 24.5 530.5 L 467.9 530.5 M 555 530.5 L 2093.4 530.5 M 2201.6 530.5 L 2940 530.5 M 3027.1 530.5 L 3490.5 530.5 M 24.5 532.5 L 469.2 532.5 M 553.7 532.5 L 2094.1 532.5 M 2200.9 532.5 L 2941.3 532.5 M 3025.8 532.5 L 3490.5 532.5 M 24.5 534.4 L 470.4 534.4 M 552.5 534.4 L 2095.1 534.4 M 2199.9 534.4 L 2942.5 534.4 M 3024.6 534.4 L 3490.5 534.4 M 24.5 536.4 L 471.6 536.4 M 551.3 536.4 L 2096.3 536.4 M 2198.7 536.4 L 2943.7 536.4 M 3023.4 536.4 L 3490.5 536.4 M 24.5 538.3 L 472.8 538.3 M 550.1 538.3 L 2097.5 538.3 M 2197.5 538.3 L 2944.9 538.3 M 3022.2 538.3 L 3490.5 538.3 M 24.5 540.3 L 474.8 540.3 M 548.1 540.3 L 2098.8 540.3 M 2196.2 540.3 L 2946.9 540.3 M 3020.2 540.3 L 3490.5 540.3 M 24.5 542.2 L 476.7 542.2 M 546.2 542.2 L 2100 542.2 M 2195 542.2 L 2948.8 542.2 M 3018.3 542.2 L 3490.5 542.2 M 24.5 544.2 L 478.7 544.2 M 544.2 544.2 L 2101.2 544.2 M 2193.8 544.2 L 2950.8 544.2 M 3016.3 544.2 L 3490.5 544.2 M 24.5 546.1 L 480.6 546.1 M 542.3 546.1 L 2103.1 546.1 M 2191.9 546.1 L 2952.7 546.1 M 3014.4 546.1 L 3490.5 546.1 M 24.5 548.1 L 483.7 548.1 M 539.2 548.1 L 2105.1 548.1 M 2189.9 548.1 L 2955.8 548.1 M 3011.3 548.1 L 3490.5 548.1 M 24.5 550 L 486.8 550 M 536.1 550 L 1334.2 550 M 1360.8 550 L 2107 550 M 2188 550 L 2958.9 550 M 3008.2 550 L 3490.5 550 M 24.5 551.9 L 489.9 551.9 M 533 551.9 L 1328.6 551.9 M 1366.4 551.9 L 2109 551.9 M 2186 551.9 L 2962 551.9 M 3005.1 551.9 L 3490.5 551.9 M 24.5 553.9 L 495.4 553.9 M 527.5 553.9 L 1323 553.9 M 1372 553.9 L 2111 553.9 M 2184 553.9 L 2967.5 553.9 M 2999.6 553.9 L 3490.5 553.9 M 24.5 555.8 L 502.1 555.8 M 520.8 555.8 L 1319.4 555.8 M 1375.6 555.8 L 2114.2 555.8 M 2180.8 555.8 L 2974.2 555.8 M 2992.9 555.8 L 3490.5 555.8 M 24.5 557.8 L 1316.3 557.8 M 1378.7 557.8 L 2117.3 557.8 M 2177.7 557.8 L 3490.5 557.8 M 24.5 559.7 L 1313.2 559.7 M 1381.8 559.7 L 2120.4 559.7 M 2174.6 559.7 L 3490.5 559.7 M 24.5 561.7 L 1310.3 561.7 M 1384.7 561.7 L 2124.7 561.7 M 2170.3 561.7 L 3490.5 561.7 M 24.5 563.6 L 1308.4 563.6 M 1386.6 563.6 L 2130.3 563.6 M 2164.7 563.6 L 3490.5 563.6 M 24.5 565.6 L 1306.4 565.6 M 1388.6 565.6 L 2139.1 565.6 M 2155.9 565.6 L 3490.5 565.6 M 24.5 567.5 L 1304.5 567.5 M 1390.5 567.5 L 3490.5 567.5 M 24.5 569.5 L 1302.5 569.5 M 1392.5 569.5 L 3490.5 569.5 M 24.5 571.4 L 1300.8 571.4 M 1394.2 571.4 L 3490.5 571.4 M 24.5 573.4 L 1299.6 573.4 M 1395.4 573.4 L 3490.5 573.4 M 24.5 575.3 L 1298.4 575.3 M 1396.6 575.3 L 3490.5 575.3 M 24.5 577.3 L 1297.2 577.3 M 1397.8 577.3 L 3490.5 577.3 M 24.5 579.2 L 1296 579.2 M 1399 579.2 L 3490.5 579.2 M 24.5 581.2 L 1294.7 581.2 M 1400.3 581.2 L 3490.5 581.2 M 24.5 583.2 L 1293.8 583.2 M 1401.2 583.2 L 3490.5 583.2 M 24.5 585.1 L 1293.2 585.1 M 1401.8 585.1 L 3490.5 585.1 M 24.5 587.1 L 1292.5 587.1 M 1402.5 587.1 L 3490.5 587.1 M 24.5 589 L 1291.8 589 M 1403.2 589 L 3490.5 589 M 24.5 591 L 1291.1 591 M 1403.9 591 L 3490.5 591 M 24.5 592.9 L 1290.5 592.9 M 1404.5 592.9 L 3490.5 592.9 M 24.5 594.9 L 1289.9 594.9 M 1405.1 594.9 L 3490.5 594.9 M 24.5 596.8 L 1289.7 596.8 M 1405.3 596.8 L 3490.5 596.8 M 24.5 598.8 L 1289.4 598.8 M 1405.6 598.8 L 3490.5 598.8 M 24.5 600.7 L 1289.2 600.7 M 1405.8 600.7 L 3490.5 600.7 M 24.5 602.7 L 1289 602.7 M 1406 602.7 L 3490.5 602.7 M 24.5 604.6 L 1288.8 604.6 M 1406.2 604.6 L 3490.5 604.6 M 24.5 606.6 L 1288.6 606.6 M 1406.4 606.6 L 3490.5 606.6 M 24.5 608.5 L 1288.6 608.5 M 1406.4 608.5 L 3490.5 608.5 M 24.5 610.5 L 1288.8 610.5 M 1406.2 610.5 L 3490.5 610.5 M 24.5 612.4 L 1289 612.4 M 1406 612.4 L 3490.5 612.4 M 24.5 614.4 L 1289.2 614.4 M 1405.8 614.4 L 3490.5 614.4 M 24.5 616.3 L 1289.4 616.3 M 1405.6 616.3 L 3490.5 616.3 M 24.5 618.2 L 1289.7 618.2 M 1405.3 618.2 L 3490.5 618.2 M 24.5 620.2 L 1289.9 620.2 M 1405.1 620.2 L 3490.5 620.2 M 24.5 622.1 L 1290.5 622.1 M 1404.5 622.1 L 3490.5 622.1 M 24.5 624.1 L 1291.2 624.1 M 1403.8 624.1 L 3490.5 624.1 M 24.5 626 L 1291.8 626 M 1403.2 626 L 3490.5 626 M 24.5 628 L 1292.5 628 M 1402.5 628 L 3490.5 628 M 24.5 629.9 L 1293.2 629.9 M 1401.8 629.9 L 3490.5 629.9 M 24.5 631.9 L 1293.9 631.9 M 1401.1 631.9 L 3490.5 631.9 M 24.5 633.8 L 1294.7 633.8 M 1400.3 633.8 L 3490.5 633.8 M 24.5 635.8 L 1296 635.8 M 1399 635.8 L 3490.5 635.8 M 24.5 637.7 L 1297.2 637.7 M 1397.8 637.7 L 3490.5 637.7 M 24.5 639.7 L 1298.4 639.7 M 1396.6 639.7 L 3490.5 639.7 M 24.5 641.6 L 1299.7 641.6 M 1395.3 641.6 L 3490.5 641.6 M 24.5 643.6 L 1300.9 643.6 M 1394.1 643.6 L 3490.5 643.6 M 24.5 645.5 L 1302.6 645.5 M 1392.4 645.5 L 3490.5 645.5 M 24.5 647.5 L 1304.5 647.5 M 1390.5 647.5 L 3490.5 647.5 M 24.5 649.5 L 1306.5 649.5 M 1388.5 649.5 L 3490.5 649.5 M 24.5 651.4 L 1308.4 651.4 M 1386.6 651.4 L 3490.5 651.4 M 24.5 653.4 L 1310.4 653.4 M 1384.6 653.4 L 3490.5 653.4 M 24.5 655.3 L 468.7 655.3 M 554.2 655.3 L 1313.3 655.3 M 1381.7 655.3 L 2980.5 655.3 M 2986.7 655.3 L 3490.5 655.3 M 24.5 657.3 L 465.1 657.3 M 557.8 657.3 L 1316.4 657.3 M 1378.6 657.3 L 2969.5 657.3 M 2997.6 657.3 L 3490.5 657.3 M 24.5 659.2 L 463.4 659.2 M 559.4 659.2 L 1319.5 659.2 M 1375.5 659.2 L 2964 659.2 M 3003.2 659.2 L 3490.5 659.2 M 24.5 661.2 L 462.5 661.2 M 560.4 661.2 L 1323.2 661.2 M 1371.8 661.2 L 2960.1 661.2 M 3007.1 661.2 L 3490.5 661.2 M 24.5 663.1 L 462.1 663.1 M 560.8 663.1 L 1328.8 663.1 M 1366.2 663.1 L 2956.9 663.1 M 3010.2 663.1 L 3490.5 663.1 M 24.5 665.1 L 462 665.1 M 560.8 665.1 L 1334.3 665.1 M 1360.7 665.1 L 2953.8 665.1 M 3013.3 665.1 L 3490.5 665.1 M 24.5 667 L 462 667 M 560.8 667 L 2951.5 667 M 3015.6 667 L 3490.5 667 M 24.5 669 L 462 669 M 560.8 669 L 2949.5 669 M 3017.6 669 L 3490.5 669 M 24.5 670.9 L 462 670.9 M 560.8 670.9 L 2947.6 670.9 M 3019.5 670.9 L 3490.5 670.9 M 24.5 672.9 L 462 672.9 M 560.8 672.9 L 2945.6 672.9 M 3021.5 672.9 L 3490.5 672.9 M 24.5 674.8 L 462 674.8 M 560.8 674.8 L 2944.2 674.8 M 3023 674.8 L 3490.5 674.8 M 24.5 676.8 L 462 676.8 M 560.8 676.8 L 2942.9 676.8 M 3024.2 676.8 L 3490.5 676.8 M 24.5 678.7 L 462 678.7 M 560.8 678.7 L 2941.7 678.7 M 3025.4 678.7 L 3490.5 678.7 M 24.5 680.6 L 462 680.6 M 560.8 680.6 L 2940.5 680.6 M 3026.6 680.6 L 3490.5 680.6 M 24.5 682.6 L 462 682.6 M 560.8 682.6 L 2939.3 682.6 M 3027.9 682.6 L 3490.5 682.6 M 24.5 684.5 L 462 684.5 M 560.8 684.5 L 2938.5 684.5 M 3028.6 684.5 L 3490.5 684.5 M 24.5 686.5 L 462 686.5 M 560.8 686.5 L 2937.8 686.5 M 3029.3 686.5 L 3490.5 686.5 M 24.5 688.4 L 462 688.4 M 560.8 688.4 L 2937.1 688.4 M 3030 688.4 L 3490.5 688.4 M 24.5 690.4 L 462 690.4 M 560.8 690.4 L 2936.4 690.4 M 3030.7 690.4 L 3490.5 690.4 M 24.5 692.3 L 462 692.3 M 560.8 692.3 L 2935.8 692.3 M 3031.4 692.3 L 3490.5 692.3 M 24.5 694.3 L 462 694.3 M 560.8 694.3 L 2935.3 694.3 M 3031.8 694.3 L 3490.5 694.3 M 24.5 696.2 L 462 696.2 M 560.8 696.2 L 2935.1 696.2 M 3032.1 696.2 L 3490.5 696.2 M 24.5 698.2 L 462 698.2 M 560.8 698.2 L 2934.9 698.2 M 3032.3 698.2 L 3490.5 698.2 M 24.5 700.1 L 462 700.1 M 560.8 700.1 L 2934.6 700.1 M 3032.5 700.1 L 3490.5 700.1 M 24.5 702.1 L 462 702.1 M 560.8 702.1 L 2934.4 702.1 M 3032.7 702.1 L 3490.5 702.1 M 24.5 704 L 462 704 M 560.8 704 L 2934.2 704 M 3032.9 704 L 3490.5 704 M 24.5 706 L 462 706 M 560.8 706 L 2934.4 706 M 3032.8 706 L 3490.5 706 M 24.5 707.9 L 462 707.9 M 560.8 707.9 L 2934.6 707.9 M 3032.5 707.9 L 3490.5 707.9 M 24.5 709.9 L 462 709.9 M 560.8 709.9 L 2934.8 709.9 M 3032.3 709.9 L 3490.5 709.9 M 24.5 711.8 L 462 711.8 M 560.8 711.8 L 2935 711.8 M 3032.1 711.8 L 3490.5 711.8 M 24.5 713.8 L 462 713.8 M 560.8 713.8 L 2935.2 713.8 M 3031.9 713.8 L 3490.5 713.8 M 24.5 715.8 L 462 715.8 M 560.8 715.8 L 2935.5 715.8 M 3031.6 715.8 L 3490.5 715.8 M 24.5 717.7 L 462 717.7 M 560.8 717.7 L 2936.2 717.7 M 3030.9 717.7 L 3490.5 717.7 M 24.5 719.7 L 462 719.7 M 560.8 719.7 L 2936.9 719.7 M 3030.2 719.7 L 3490.5 719.7 M 24.5 721.6 L 462 721.6 M 560.8 721.6 L 2937.6 721.6 M 3029.5 721.6 L 3490.5 721.6 M 24.5 723.6 L 462 723.6 M 560.8 723.6 L 2938.3 723.6 M 3028.8 723.6 L 3490.5 723.6 M 24.5 725.5 L 462 725.5 M 560.8 725.5 L 2939 725.5 M 3028.2 725.5 L 3490.5 725.5 M 24.5 727.5 L 462 727.5 M 560.8 727.5 L 2940.1 727.5 M 3027 727.5 L 3490.5 727.5 M 24.5 729.4 L 462 729.4 M 560.8 729.4 L 2941.3 729.4 M 3025.8 729.4 L 3490.5 729.4 M 24.5 731.4 L 462 731.4 M 560.8 731.4 L 2942.5 731.4 M 3024.6 731.4 L 3490.5 731.4 M 24.5 733.3 L 462 733.3 M 560.8 733.3 L 2943.8 733.3 M 3023.4 733.3 L 3490.5 733.3 M 24.5 735.3 L 462 735.3 M 560.8 735.3 L 2945.1 735.3 M 3022.1 735.3 L 3490.5 735.3 M 24.5 737.2 L 462 737.2 M 560.8 737.2 L 2947 737.2 M 3020.1 737.2 L 3490.5 737.2 M 24.5 739.2 L 462 739.2 M 560.8 739.2 L 2949 739.2 M 3018.2 739.2 L 3490.5 739.2 M 24.5 741.1 L 149.4 741.1 M 154.4 741.1 L 160.6 741.1 M 165.6 741.1 L 462 741.1 M 560.8 741.1 L 2950.9 741.1 M 3016.2 741.1 L 3349.4 741.1 M 3354.4 741.1 L 3360.6 741.1 M 3365.6 741.1 L 3490.5 741.1 M 24.5 743.1 L 132.1 743.1 M 154.5 743.1 L 160.5 743.1 M 182.9 743.1 L 462 743.1 M 560.8 743.1 L 2952.9 743.1 M 3014.2 743.1 L 3332.1 743.1 M 3354.5 743.1 L 3360.5 743.1 M 3382.9 743.1 L 3490.5 743.1 M 24.5 745 L 126 745 M 154.5 745 L 160.5 745 M 189 745 L 462.1 745 M 560.8 745 L 2956 745 M 3011.1 745 L 3326 745 M 3354.5 745 L 3360.5 745 M 3389 745 L 3490.5 745 M 24.5 746.9 L 120.5 746.9 M 154.5 746.9 L 160.5 746.9 M 194.5 746.9 L 462.3 746.9 M 560.5 746.9 L 2959.1 746.9 M 3008.1 746.9 L 3320.5 746.9 M 3354.5 746.9 L 3360.5 746.9 M 3394.5 746.9 L 3490.5 746.9 M 24.5 748.9 L 114.9 748.9 M 154.5 748.9 L 160.5 748.9 M 200.1 748.9 L 463.1 748.9 M 559.8 748.9 L 2962.3 748.9 M 3004.9 748.9 L 3314.9 748.9 M 3354.5 748.9 L 3360.5 748.9 M 3400.1 748.9 L 3490.5 748.9 M 24.5 750.8 L 109.3 750.8 M 205.7 750.8 L 464.5 750.8 M 558.4 750.8 L 2967.8 750.8 M 2999.3 750.8 L 3309.3 750.8 M 3405.7 750.8 L 3490.5 750.8 M 24.5 752.8 L 105 752.8 M 210 752.8 L 467.1 752.8 M 555.8 752.8 L 2975.1 752.8 M 2992 752.8 L 3305 752.8 M 3410 752.8 L 3490.5 752.8 M 24.5 754.7 L 101.9 754.7 M 213.1 754.7 L 3301.9 754.7 M 3413.1 754.7 L 3490.5 754.7 M 24.5 756.7 L 98.8 756.7 M 216.2 756.7 L 3298.8 756.7 M 3416.2 756.7 L 3490.5 756.7 M 24.5 758.6 L 95.7 758.6 M 219.3 758.6 L 3295.7 758.6 M 3419.3 758.6 L 3490.5 758.6 M 24.5 760.6 L 92.6 760.6 M 222.4 760.6 L 3292.6 760.6 M 3422.4 760.6 L 3490.5 760.6 M 24.5 762.5 L 89.5 762.5 M 225.5 762.5 L 3289.5 762.5 M 3425.5 762.5 L 3490.5 762.5 M 24.5 764.5 L 86.4 764.5 M 228.6 764.5 L 3286.4 764.5 M 3428.6 764.5 L 3490.5 764.5 M 24.5 766.4 L 83.7 766.4 M 231.3 766.4 L 3283.7 766.4 M 3431.3 766.4 L 3490.5 766.4 M 24.5 768.4 L 81.8 768.4 M 233.2 768.4 L 3281.8 768.4 M 3433.2 768.4 L 3490.5 768.4 M 24.5 770.3 L 79.8 770.3 M 235.2 770.3 L 3279.8 770.3 M 3435.2 770.3 L 3490.5 770.3 M 24.5 772.3 L 77.9 772.3 M 237.1 772.3 L 3277.9 772.3 M 3437.1 772.3 L 3490.5 772.3 M 24.5 774.2 L 75.9 774.2 M 239.1 774.2 L 3275.9 774.2 M 3439.1 774.2 L 3490.5 774.2 M 24.5 776.2 L 73.9 776.2 M 241.1 776.2 L 3273.9 776.2 M 3441.1 776.2 L 3490.5 776.2 M 24.5 778.2 L 72 778.2 M 243 778.2 L 3272 778.2 M 3443 778.2 L 3490.5 778.2 M 24.5 780.1 L 70 780.1 M 245 780.1 L 3270 780.1 M 3445 780.1 L 3490.5 780.1 M 24.5 782.1 L 68.1 782.1 M 246.9 782.1 L 3268.1 782.1 M 3446.9 782.1 L 3490.5 782.1 M 24.5 784 L 66.1 784 M 248.9 784 L 3266.1 784 M 3448.9 784 L 3490.5 784 M 24.5 786 L 64.8 786 M 250.2 786 L 3264.8 786 M 3450.2 786 L 3490.5 786 M 24.5 787.9 L 63.6 787.9 M 251.4 787.9 L 3263.6 787.9 M 3451.4 787.9 L 3490.5 787.9 M 24.5 789.9 L 62.3 789.9 M 252.7 789.9 L 3262.3 789.9 M 3452.7 789.9 L 3490.5 789.9 M 24.5 791.8 L 61.1 791.8 M 253.9 791.8 L 3261.1 791.8 M 3453.9 791.8 L 3490.5 791.8 M 24.5 793.8 L 59.9 793.8 M 255.1 793.8 L 3259.9 793.8 M 3455.1 793.8 L 3490.5 793.8 M 24.5 795.7 L 58.6 795.7 M 256.4 795.7 L 3258.6 795.7 M 3456.4 795.7 L 3490.5 795.7 M 24.5 797.7 L 57.4 797.7 M 257.6 797.7 L 3257.4 797.7 M 3457.6 797.7 L 3490.5 797.7 M 24.5 799.6 L 56.2 799.6 M 258.8 799.6 L 3256.2 799.6 M 3458.8 799.6 L 3490.5 799.6 M 24.5 801.6 L 55 801.6 M 260 801.6 L 3255 801.6 M 3460 801.6 L 3490.5 801.6 M 24.5 803.5 L 53.8 803.5 M 261.2 803.5 L 3253.8 803.5 M 3461.2 803.5 L 3490.5 803.5 M 24.5 805.5 L 52.5 805.5 M 262.5 805.5 L 3252.5 805.5 M 3462.5 805.5 L 3490.5 805.5 M 24.5 807.4 L 51.5 807.4 M 263.5 807.4 L 3251.5 807.4 M 3463.5 807.4 L 3490.5 807.4 M 24.5 809.4 L 50.8 809.4 M 264.2 809.4 L 3250.8 809.4 M 3464.2 809.4 L 3490.5 809.4 M 24.5 811.3 L 50.2 811.3 M 264.8 811.3 L 3250.2 811.3 M 3464.8 811.3 L 3490.5 811.3 M 24.5 813.2 L 49.5 813.2 M 265.5 813.2 L 3249.5 813.2 M 3465.5 813.2 L 3490.5 813.2 M 24.5 815.2 L 48.8 815.2 M 266.2 815.2 L 3248.8 815.2 M 3466.2 815.2 L 3490.5 815.2 M 24.5 817.1 L 48.1 817.1 M 266.9 817.1 L 3248.1 817.1 M 3466.9 817.1 L 3490.5 817.1 M 24.5 819.1 L 47.4 819.1 M 267.6 819.1 L 3247.4 819.1 M 3467.6 819.1 L 3490.5 819.1 M 24.5 821 L 46.8 821 M 268.2 821 L 3246.8 821 M 3468.2 821 L 3490.5 821 M 24.5 823 L 46.1 823 M 268.9 823 L 3246.1 823 M 3468.9 823 L 3490.5 823 M 24.5 824.9 L 45.4 824.9 M 269.6 824.9 L 3245.4 824.9 M 3469.6 824.9 L 3490.5 824.9 M 24.5 826.9 L 44.7 826.9 M 270.3 826.9 L 3244.7 826.9 M 3470.3 826.9 L 3490.5 826.9 M 24.5 828.8 L 44 828.8 M 271 828.8 L 3244 828.8 M 3471 828.8 L 3490.5 828.8 M 24.5 830.8 L 43.3 830.8 M 271.7 830.8 L 3243.3 830.8 M 3471.7 830.8 L 3490.5 830.8 M 24.5 832.7 L 43 832.7 M 272 832.7 L 3243 832.7 M 3472 832.7 L 3490.5 832.7 M 24.5 834.7 L 42.7 834.7 M 272.3 834.7 L 3242.7 834.7 M 3472.3 834.7 L 3490.5 834.7 M 24.5 836.6 L 42.5 836.6 M 272.5 836.6 L 3242.5 836.6 M 3472.5 836.6 L 3490.5 836.6 M 24.5 838.6 L 42.3 838.6 M 272.7 838.6 L 3242.3 838.6 M 3472.7 838.6 L 3490.5 838.6 M 24.5 840.5 L 42.1 840.5 M 272.9 840.5 L 3242.1 840.5 M 3472.9 840.5 L 3490.5 840.5 M 24.5 842.5 L 41.9 842.5 M 273.1 842.5 L 3241.9 842.5 M 3473.1 842.5 L 3490.5 842.5 M 24.5 844.5 L 41.7 844.5 M 273.3 844.5 L 3241.7 844.5 M 3473.3 844.5 L 3490.5 844.5 M 24.5 846.4 L 41.4 846.4 M 273.6 846.4 L 3241.4 846.4 M 3473.6 846.4 L 3490.5 846.4 M 24.5 848.4 L 41.2 848.4 M 273.8 848.4 L 3241.2 848.4 M 3473.8 848.4 L 3490.5 848.4 M 24.5 850.3 L 41 850.3 M 274 850.3 L 1333.3 850.3 M 1361.7 850.3 L 2133.3 850.3 M 2161.7 850.3 L 3241 850.3 M 3474 850.3 L 3490.5 850.3 M 24.5 852.3 L 40.8 852.3 M 274.2 852.3 L 1327.7 852.3 M 1367.3 852.3 L 2127.7 852.3 M 2167.3 852.3 L 3240.8 852.3 M 3474.2 852.3 L 3490.5 852.3 M 24.5 854.2 L 40.9 854.2 M 274.1 854.2 L 1322.2 854.2 M 1372.8 854.2 L 2122.2 854.2 M 2172.8 854.2 L 3240.9 854.2 M 3474.1 854.2 L 3490.5 854.2 M 24.5 856.2 L 50.2 856.2 M 264.8 856.2 L 1319 856.2 M 1376 856.2 L 2119 856.2 M 2176 856.2 L 3250.2 856.2 M 3464.8 856.2 L 3490.5 856.2 M 24.5 858.1 L 50.2 858.1 M 264.8 858.1 L 1315.8 858.1 M 1379.2 858.1 L 2115.8 858.1 M 2179.2 858.1 L 3250.2 858.1 M 3464.8 858.1 L 3490.5 858.1 M 24.5 860.1 L 50.2 860.1 M 264.8 860.1 L 1312.7 860.1 M 1382.3 860.1 L 2112.7 860.1 M 2182.3 860.1 L 3250.2 860.1 M 3464.8 860.1 L 3490.5 860.1 M 24.5 862 L 40.7 862 M 274.3 862 L 1310 862 M 1385 862 L 2110 862 M 2185 862 L 3240.7 862 M 3474.3 862 L 3490.5 862 M 24.5 864 L 40.9 864 M 274.1 864 L 1308.1 864 M 1386.9 864 L 2108.1 864 M 2186.9 864 L 3240.9 864 M 3474.1 864 L 3490.5 864 M 24.5 865.9 L 41.1 865.9 M 273.9 865.9 L 1306.1 865.9 M 1388.9 865.9 L 2106.1 865.9 M 2188.9 865.9 L 3241.1 865.9 M 3473.9 865.9 L 3490.5 865.9 M 24.5 867.9 L 41.4 867.9 M 273.6 867.9 L 1304.2 867.9 M 1390.8 867.9 L 2104.2 867.9 M 2190.8 867.9 L 3241.4 867.9 M 3473.6 867.9 L 3490.5 867.9 M 24.5 869.8 L 41.6 869.8 M 273.4 869.8 L 1302.2 869.8 M 1392.8 869.8 L 2102.2 869.8 M 2192.8 869.8 L 3241.6 869.8 M 3473.4 869.8 L 3490.5 869.8 M 24.5 871.8 L 41.8 871.8 M 273.2 871.8 L 1300.6 871.8 M 1394.4 871.8 L 2100.6 871.8 M 2194.4 871.8 L 3241.8 871.8 M 3473.2 871.8 L 3490.5 871.8 M 24.5 873.7 L 42 873.7 M 273 873.7 L 1299.4 873.7 M 1395.6 873.7 L 2099.4 873.7 M 2195.6 873.7 L 3242 873.7 M 3473 873.7 L 3490.5 873.7 M 24.5 875.6 L 42.2 875.6 M 272.8 875.6 L 1298.2 875.6 M 1396.8 875.6 L 2098.2 875.6 M 2196.8 875.6 L 3242.2 875.6 M 3472.8 875.6 L 3490.5 875.6 M 24.5 877.6 L 42.5 877.6 M 272.5 877.6 L 1297 877.6 M 1398 877.6 L 2097 877.6 M 2198 877.6 L 3242.5 877.6 M 3472.5 877.6 L 3490.5 877.6 M 24.5 879.5 L 42.7 879.5 M 272.3 879.5 L 1295.8 879.5 M 1399.2 879.5 L 2095.8 879.5 M 2199.2 879.5 L 3242.7 879.5 M 3472.3 879.5 L 3490.5 879.5 M 24.5 881.5 L 42.9 881.5 M 272.1 881.5 L 1294.5 881.5 M 1400.5 881.5 L 2094.5 881.5 M 2200.5 881.5 L 3242.9 881.5 M 3472.1 881.5 L 3490.5 881.5 M 24.5 883.4 L 43.1 883.4 M 271.9 883.4 L 1293.8 883.4 M 1401.2 883.4 L 2093.8 883.4 M 2201.2 883.4 L 3243.1 883.4 M 3471.9 883.4 L 3490.5 883.4 M 24.5 885.4 L 43.8 885.4 M 271.2 885.4 L 1293.1 885.4 M 1401.9 885.4 L 2093.1 885.4 M 2201.9 885.4 L 3243.8 885.4 M 3471.2 885.4 L 3490.5 885.4 M 24.5 887.3 L 44.4 887.3 M 270.6 887.3 L 1292.4 887.3 M 1402.6 887.3 L 2092.4 887.3 M 2202.6 887.3 L 3244.4 887.3 M 3470.6 887.3 L 3490.5 887.3 M 24.5 889.3 L 45.1 889.3 M 269.9 889.3 L 1291.7 889.3 M 1403.3 889.3 L 2091.7 889.3 M 2203.3 889.3 L 3245.1 889.3 M 3469.9 889.3 L 3490.5 889.3 M 24.5 891.2 L 45.8 891.2 M 269.2 891.2 L 1291 891.2 M 1404 891.2 L 2091 891.2 M 2204 891.2 L 3245.8 891.2 M 3469.2 891.2 L 3490.5 891.2 M 24.5 893.2 L 46.5 893.2 M 268.5 893.2 L 1290.3 893.2 M 1404.7 893.2 L 2090.3 893.2 M 2204.7 893.2 L 3246.5 893.2 M 3468.5 893.2 L 3490.5 893.2 M 24.5 895.1 L 47.2 895.1 M 267.8 895.1 L 1289.9 895.1 M 1405.1 895.1 L 2089.9 895.1 M 2205.1 895.1 L 3247.2 895.1 M 3467.8 895.1 L 3490.5 895.1 M 24.5 897.1 L 47.9 897.1 M 267.1 897.1 L 1289.6 897.1 M 1405.4 897.1 L 2089.6 897.1 M 2205.4 897.1 L 3247.9 897.1 M 3467.1 897.1 L 3490.5 897.1 M 24.5 899 L 48.5 899 M 266.5 899 L 1289.4 899 M 1405.6 899 L 2089.4 899 M 2205.6 899 L 3248.5 899 M 3466.5 899 L 3490.5 899 M 24.5 901 L 49.2 901 M 265.8 901 L 1289.2 901 M 1405.8 901 L 2089.2 901 M 2205.8 901 L 3249.2 901 M 3465.8 901 L 3490.5 901 M 24.5 902.9 L 49.9 902.9 M 265.1 902.9 L 1289 902.9 M 1406 902.9 L 2089 902.9 M 2206 902.9 L 3249.9 902.9 M 3465.1 902.9 L 3490.5 902.9 M 24.5 904.9 L 50.6 904.9 M 264.4 904.9 L 1288.8 904.9 M 1406.2 904.9 L 2088.8 904.9 M 2206.2 904.9 L 3250.6 904.9 M 3464.4 904.9 L 3490.5 904.9 M 24.5 906.8 L 51.3 906.8 M 263.7 906.8 L 1288.5 906.8 M 1406.5 906.8 L 2088.5 906.8 M 2206.5 906.8 L 3251.3 906.8 M 3463.7 906.8 L 3490.5 906.8 M 24.5 908.8 L 52.1 908.8 M 262.9 908.8 L 1288.6 908.8 M 1406.4 908.8 L 2088.6 908.8 M 2206.4 908.8 L 3252.1 908.8 M 3462.9 908.8 L 3490.5 908.8 M 24.5 910.8 L 53.3 910.8 M 261.7 910.8 L 1288.8 910.8 M 1406.2 910.8 L 2088.8 910.8 M 2206.2 910.8 L 3253.3 910.8 M 3461.7 910.8 L 3490.5 910.8 M 24.5 912.7 L 54.5 912.7 M 260.5 912.7 L 1289 912.7 M 1406 912.7 L 2089 912.7 M 2206 912.7 L 3254.5 912.7 M 3460.5 912.7 L 3490.5 912.7 M 24.5 914.7 L 55.7 914.7 M 259.3 914.7 L 1289.3 914.7 M 1405.7 914.7 L 2089.3 914.7 M 2205.7 914.7 L 3255.7 914.7 M 3459.3 914.7 L 3490.5 914.7 M 24.5 916.6 L 56.9 916.6 M 258.1 916.6 L 1289.5 916.6 M 1405.5 916.6 L 2089.5 916.6 M 2205.5 916.6 L 3256.9 916.6 M 3458.1 916.6 L 3490.5 916.6 M 24.5 918.6 L 58.2 918.6 M 256.8 918.6 L 1289.7 918.6 M 1405.3 918.6 L 2089.7 918.6 M 2205.3 918.6 L 3258.2 918.6 M 3456.8 918.6 L 3490.5 918.6 M 24.5 920.5 L 59.4 920.5 M 255.6 920.5 L 1289.9 920.5 M 1405.1 920.5 L 2089.9 920.5 M 2205.1 920.5 L 3259.4 920.5 M 3455.6 920.5 L 3490.5 920.5 M 24.5 922.5 L 60.6 922.5 M 254.4 922.5 L 1290.6 922.5 M 1404.4 922.5 L 2090.6 922.5 M 2204.4 922.5 L 3260.6 922.5 M 3454.4 922.5 L 3490.5 922.5 M 24.5 924.4 L 61.9 924.4 M 253.1 924.4 L 1291.2 924.4 M 1403.8 924.4 L 2091.2 924.4 M 2203.8 924.4 L 3261.9 924.4 M 3453.1 924.4 L 3490.5 924.4 M 24.5 926.4 L 63.1 926.4 M 251.9 926.4 L 1291.9 926.4 M 1403.1 926.4 L 2091.9 926.4 M 2203.1 926.4 L 3263.1 926.4 M 3451.9 926.4 L 3490.5 926.4 M 24.5 928.3 L 64.3 928.3 M 250.7 928.3 L 1292.6 928.3 M 1402.4 928.3 L 2092.6 928.3 M 2202.4 928.3 L 3264.3 928.3 M 3450.7 928.3 L 3490.5 928.3 M 24.5 930.3 L 65.5 930.3 M 249.5 930.3 L 1293.3 930.3 M 1401.7 930.3 L 2093.3 930.3 M 2201.7 930.3 L 3265.5 930.3 M 3449.5 930.3 L 3490.5 930.3 M 24.5 932.2 L 67.3 932.2 M 247.7 932.2 L 1294 932.2 M 1401 932.2 L 2094 932.2 M 2201 932.2 L 3267.3 932.2 M 3447.7 932.2 L 3490.5 932.2 M 24.5 934.2 L 69.3 934.2 M 245.7 934.2 L 1294.9 934.2 M 1400.1 934.2 L 2094.9 934.2 M 2200.1 934.2 L 3269.3 934.2 M 3445.7 934.2 L 3490.5 934.2 M 24.5 936.1 L 71.2 936.1 M 243.8 936.1 L 1296.2 936.1 M 1398.8 936.1 L 2096.2 936.1 M 2198.8 936.1 L 3271.2 936.1 M 3443.8 936.1 L 3490.5 936.1 M 24.5 938.1 L 73.2 938.1 M 241.8 938.1 L 1297.4 938.1 M 1397.6 938.1 L 2097.4 938.1 M 2197.6 938.1 L 3273.2 938.1 M 3441.8 938.1 L 3490.5 938.1 M 24.5 940 L 75.1 940 M 239.9 940 L 1298.6 940 M 1396.4 940 L 2098.6 940 M 2196.4 940 L 3275.1 940 M 3439.9 940 L 3490.5 940 M 24.5 941.9 L 77.1 941.9 M 237.9 941.9 L 1299.9 941.9 M 1395.1 941.9 L 2099.9 941.9 M 2195.1 941.9 L 3277.1 941.9 M 3437.9 941.9 L 3490.5 941.9 M 24.5 943.9 L 79 943.9 M 236 943.9 L 1301.1 943.9 M 1393.9 943.9 L 2101.1 943.9 M 2193.9 943.9 L 3279 943.9 M 3436 943.9 L 3490.5 943.9 M 24.5 945.8 L 81 945.8 M 234 945.8 L 1302.9 945.8 M 1392.1 945.8 L 2102.9 945.8 M 2192.1 945.8 L 3281 945.8 M 3434 945.8 L 3490.5 945.8 M 24.5 947.8 L 82.9 947.8 M 232.1 947.8 L 1304.8 947.8 M 1390.2 947.8 L 2104.8 947.8 M 2190.2 947.8 L 3282.9 947.8 M 3432.1 947.8 L 3490.5 947.8 M 24.5 949.7 L 85.2 949.7 M 229.8 949.7 L 1306.8 949.7 M 1388.2 949.7 L 2106.8 949.7 M 2188.2 949.7 L 3285.2 949.7 M 3429.8 949.7 L 3490.5 949.7 M 24.5 951.7 L 88.3 951.7 M 226.7 951.7 L 1308.7 951.7 M 1386.3 951.7 L 2108.7 951.7 M 2186.3 951.7 L 3288.3 951.7 M 3426.7 951.7 L 3490.5 951.7 M 24.5 953.6 L 91.4 953.6 M 223.6 953.6 L 1310.7 953.6 M 1384.3 953.6 L 2110.7 953.6 M 2184.3 953.6 L 3291.4 953.6 M 3423.6 953.6 L 3490.5 953.6 M 24.5 955.6 L 94.5 955.6 M 220.5 955.6 L 1313.8 955.6 M 1381.2 955.6 L 2113.8 955.6 M 2181.2 955.6 L 3294.5 955.6 M 3420.5 955.6 L 3490.5 955.6 M 24.5 957.5 L 97.6 957.5 M 217.4 957.5 L 1316.9 957.5 M 1378.1 957.5 L 2116.9 957.5 M 2178.1 957.5 L 3297.6 957.5 M 3417.4 957.5 L 3490.5 957.5 M 24.5 959.5 L 100.7 959.5 M 214.3 959.5 L 1320 959.5 M 1375 959.5 L 2120 959.5 M 2175 959.5 L 3300.7 959.5 M 3414.3 959.5 L 3490.5 959.5 M 24.5 961.4 L 103.8 961.4 M 211.2 961.4 L 1324 961.4 M 1371 961.4 L 2124 961.4 M 2171 961.4 L 3303.8 961.4 M 3411.2 961.4 L 3490.5 961.4 M 24.5 963.4 L 107.2 963.4 M 207.8 963.4 L 1329.6 963.4 M 1365.4 963.4 L 2129.6 963.4 M 2165.4 963.4 L 3307.2 963.4 M 3407.8 963.4 L 3490.5 963.4 M 24.5 965.3 L 112.8 965.3 M 154.5 965.3 L 160.5 965.3 M 202.2 965.3 L 1336.9 965.3 M 1358.1 965.3 L 2136.9 965.3 M 2158.1 965.3 L 3312.8 965.3 M 3354.5 965.3 L 3360.5 965.3 M 3402.2 965.3 L 3490.5 965.3 M 24.5 967.3 L 118.3 967.3 M 154.5 967.3 L 160.5 967.3 M 196.7 967.3 L 3318.3 967.3 M 3354.5 967.3 L 3360.5 967.3 M 3396.7 967.3 L 3490.5 967.3 M 24.5 969.2 L 123.9 969.2 M 154.5 969.2 L 160.5 969.2 M 191.1 969.2 L 3323.9 969.2 M 3354.5 969.2 L 3360.5 969.2 M 3391.1 969.2 L 3490.5 969.2 M 24.5 971.2 L 129.5 971.2 M 154.5 971.2 L 160.5 971.2 M 185.5 971.2 L 3329.5 971.2 M 3354.5 971.2 L 3360.5 971.2 M 3385.5 971.2 L 3490.5 971.2 M 24.5 973.2 L 142.7 973.2 M 154.5 973.2 L 160.5 973.2 M 172.3 973.2 L 3342.7 973.2 M 3354.5 973.2 L 3360.5 973.2 M 3372.3 973.2 L 3490.5 973.2 M 24.5 975.1 L 3490.5 975.1 M 24.5 977.1 L 3490.5 977.1 M 24.5 979 L 3490.5 979 M 24.5 981 L 3490.5 981 M 24.5 982.9 L 3490.5 982.9 M 24.5 984.9 L 3490.5 984.9 M 24.5 986.8 L 3490.5 986.8 M 24.5 988.8 L 3490.5 988.8"/><use x="157.5" y="157.5" xlink:href="#tool-D11-pad-1019"/><use x="511.4" y="507.5" xlink:href="#tool-D12-pad-1020"/><use x="511.4" y="310.6" xlink:href="#tool-D12-pad-1020"/><use x="511.4" y="704.4" xlink:href="#tool-D13-pad-1021"/><use x="2983.6" y="507.5" xlink:href="#tool-D14-pad-1022"/><use x="2983.6" y="704.4" xlink:href="#tool-D14-pad-1022"/><use x="2983.6" y="310.6" xlink:href="#tool-D15-pad-1023"/><use x="3357.5" y="857.5" xlink:href="#tool-D11-pad-1019"/><use x="3357.5" y="157.5" xlink:href="#tool-D11-pad-1019"/><use x="157.5" y="857.5" xlink:href="#tool-D11-pad-1019"/><use x="1347.5" y="907.5" xlink:href="#tool-D16-pad-1024"/><use x="1347.5" y="407.5" xlink:href="#tool-D16-pad-1024"/><use x="2147.5" y="907.5" xlink:href="#tool-D16-pad-1024"/><use x="2147.5" y="107.5" xlink:href="#tool-D16-pad-1024"/><use x="2147.5" y="507.5" xlink:href="#tool-D16-pad-1024"/><use x="1347.5" y="607.5" xlink:href="#tool-D16-pad-1024"/></g></svg>