%FSLAX33Y33*%
%MOMM*%
%LNbottom silkscreen_traces*%
%LNtext*%
G36*
G01*
X16500Y9098D02*
X17409Y9098D01*
X17409Y9409D01*
X17302Y9409D01*
X17302Y9218D01*
X16607Y9218D01*
X16607Y9218D01*
X16607Y9412D01*
X16608Y9455D01*
X16611Y9493D01*
X16617Y9525D01*
X16624Y9553D01*
X16633Y9578D01*
X16644Y9599D01*
X16657Y9619D01*
X16671Y9635D01*
X16694Y9655D01*
X16721Y9673D01*
X16752Y9689D01*
X16786Y9702D01*
X16824Y9712D01*
X16866Y9720D01*
X16912Y9724D01*
X16961Y9726D01*
X17029Y9723D01*
X17087Y9714D01*
X17138Y9699D01*
X17181Y9679D01*
X17216Y9654D01*
X17245Y9627D01*
X17267Y9597D01*
X17283Y9565D01*
X17291Y9537D01*
X17297Y9502D01*
X17301Y9459D01*
X17302Y9409D01*
X17409Y9409D01*
X17409Y9411D01*
X17408Y9461D01*
X17406Y9505D01*
X17402Y9542D01*
X17396Y9573D01*
X17385Y9611D01*
X17371Y9645D01*
X17353Y9677D01*
X17331Y9706D01*
X17298Y9740D01*
X17262Y9769D01*
X17221Y9794D01*
X17176Y9814D01*
X17127Y9830D01*
X17074Y9841D01*
X17019Y9847D01*
X16960Y9850D01*
X16909Y9848D01*
X16862Y9844D01*
X16817Y9836D01*
X16776Y9825D01*
X16738Y9812D01*
X16703Y9798D01*
X16671Y9781D01*
X16644Y9763D01*
X16619Y9744D01*
X16597Y9724D01*
X16578Y9703D01*
X16561Y9681D01*
X16547Y9657D01*
X16535Y9631D01*
X16524Y9603D01*
X16516Y9572D01*
X16509Y9539D01*
X16504Y9504D01*
X16501Y9466D01*
X16500Y9426D01*
X16500Y9098D01*
X16500Y9098D01*
X16773Y9957D02*
X16885Y9957D01*
X16885Y10300D01*
X16773Y10300D01*
X16773Y9957D01*
X16773Y9957D01*
X14000Y9098D02*
X14909Y9098D01*
X14909Y9409D01*
X14802Y9409D01*
X14802Y9218D01*
X14107Y9218D01*
X14107Y9218D01*
X14107Y9412D01*
X14108Y9455D01*
X14111Y9493D01*
X14117Y9525D01*
X14124Y9553D01*
X14133Y9578D01*
X14144Y9599D01*
X14157Y9619D01*
X14171Y9635D01*
X14194Y9655D01*
X14221Y9673D01*
X14252Y9689D01*
X14286Y9702D01*
X14324Y9712D01*
X14366Y9720D01*
X14412Y9724D01*
X14461Y9726D01*
X14529Y9723D01*
X14587Y9714D01*
X14638Y9699D01*
X14681Y9679D01*
X14716Y9654D01*
X14745Y9627D01*
X14767Y9597D01*
X14783Y9565D01*
X14791Y9537D01*
X14797Y9502D01*
X14801Y9459D01*
X14802Y9409D01*
X14909Y9409D01*
X14909Y9411D01*
X14908Y9461D01*
X14906Y9505D01*
X14902Y9542D01*
X14896Y9573D01*
X14885Y9611D01*
X14871Y9645D01*
X14853Y9677D01*
X14831Y9706D01*
X14798Y9740D01*
X14762Y9769D01*
X14721Y9794D01*
X14676Y9814D01*
X14627Y9830D01*
X14574Y9841D01*
X14519Y9847D01*
X14460Y9850D01*
X14409Y9848D01*
X14362Y9844D01*
X14317Y9836D01*
X14276Y9825D01*
X14238Y9812D01*
X14203Y9798D01*
X14171Y9781D01*
X14144Y9763D01*
X14119Y9744D01*
X14097Y9724D01*
X14078Y9703D01*
X14061Y9681D01*
X14047Y9657D01*
X14035Y9631D01*
X14024Y9603D01*
X14016Y9572D01*
X14009Y9539D01*
X14004Y9504D01*
X14001Y9466D01*
X14000Y9426D01*
X14000Y9098D01*
X14000Y9098D01*
X14147Y10235D02*
X14396Y10235D01*
X14396Y9988D01*
X14500Y9988D01*
X14500Y10235D01*
X14748Y10235D01*
X14748Y10341D01*
X14500Y10341D01*
X14500Y10588D01*
X14396Y10588D01*
X14396Y10341D01*
X14147Y10341D01*
X14147Y10235D01*
X14147Y10235D01*
X11857Y9023D02*
X11963Y9023D01*
X11964Y9408D01*
X11627Y9408D01*
X11593Y9364D01*
X11565Y9318D01*
X11540Y9272D01*
X11520Y9226D01*
X11505Y9178D01*
X11493Y9130D01*
X11487Y9081D01*
X11484Y9032D01*
X11488Y8967D01*
X11499Y8904D01*
X11517Y8845D01*
X11542Y8789D01*
X11574Y8737D01*
X11612Y8693D01*
X11657Y8655D01*
X11708Y8623D01*
X11764Y8599D01*
X11823Y8582D01*
X11885Y8571D01*
X11950Y8568D01*
X12015Y8571D01*
X12078Y8581D01*
X12139Y8599D01*
X12198Y8623D01*
X12252Y8654D01*
X12298Y8691D01*
X12337Y8734D01*
X12369Y8783D01*
X12393Y8837D01*
X12411Y8895D01*
X12421Y8957D01*
X12425Y9023D01*
X12423Y9071D01*
X12417Y9117D01*
X12407Y9160D01*
X12393Y9201D01*
X12375Y9239D01*
X12354Y9272D01*
X12331Y9301D01*
X12304Y9326D01*
X12273Y9347D01*
X12238Y9366D01*
X12199Y9382D01*
X12155Y9395D01*
X12125Y9286D01*
X12158Y9275D01*
X12187Y9263D01*
X12213Y9250D01*
X12234Y9235D01*
X12253Y9219D01*
X12270Y9199D01*
X12285Y9175D01*
X12298Y9149D01*
X12308Y9120D01*
X12316Y9089D01*
X12320Y9057D01*
X12322Y9023D01*
X12320Y8984D01*
X12315Y8946D01*
X12308Y8912D01*
X12297Y8881D01*
X12283Y8852D01*
X12267Y8826D01*
X12250Y8804D01*
X12230Y8784D01*
X12210Y8766D01*
X12188Y8751D01*
X12165Y8738D01*
X12141Y8726D01*
X12098Y8711D01*
X12053Y8700D01*
X12006Y8694D01*
X11958Y8692D01*
X11899Y8694D01*
X11846Y8702D01*
X11798Y8715D01*
X11754Y8733D01*
X11716Y8757D01*
X11683Y8785D01*
X11655Y8818D01*
X11633Y8855D01*
X11615Y8896D01*
X11603Y8938D01*
X11595Y8981D01*
X11593Y9025D01*
X11595Y9064D01*
X11601Y9102D01*
X11610Y9140D01*
X11623Y9178D01*
X11638Y9213D01*
X11654Y9243D01*
X11670Y9269D01*
X11687Y9291D01*
X11857Y9291D01*
X11857Y9023D01*
X11857Y9023D01*
X11500Y9585D02*
X12409Y9585D01*
X12409Y9708D01*
X11695Y10186D01*
X12409Y10186D01*
X12409Y10301D01*
X11500Y10301D01*
X11500Y10177D01*
X12214Y9700D01*
X11500Y9700D01*
X11500Y9585D01*
X11500Y9585D01*
X11500Y10503D02*
X12409Y10503D01*
X12409Y10814D01*
X12302Y10814D01*
X12302Y10623D01*
X11607Y10623D01*
X11607Y10623D01*
X11607Y10817D01*
X11608Y10860D01*
X11611Y10898D01*
X11617Y10930D01*
X11624Y10958D01*
X11633Y10983D01*
X11644Y11004D01*
X11657Y11024D01*
X11671Y11040D01*
X11694Y11060D01*
X11721Y11078D01*
X11752Y11094D01*
X11786Y11107D01*
X11824Y11117D01*
X11866Y11125D01*
X11912Y11129D01*
X11961Y11131D01*
X12029Y11128D01*
X12087Y11119D01*
X12138Y11104D01*
X12181Y11084D01*
X12216Y11059D01*
X12245Y11032D01*
X12267Y11002D01*
X12283Y10970D01*
X12291Y10942D01*
X12297Y10907D01*
X12301Y10864D01*
X12302Y10814D01*
X12409Y10814D01*
X12409Y10816D01*
X12408Y10866D01*
X12406Y10910D01*
X12402Y10947D01*
X12396Y10978D01*
X12385Y11016D01*
X12371Y11050D01*
X12353Y11082D01*
X12331Y11111D01*
X12298Y11145D01*
X12262Y11174D01*
X12221Y11199D01*
X12176Y11219D01*
X12127Y11235D01*
X12074Y11246D01*
X12019Y11252D01*
X11960Y11255D01*
X11909Y11253D01*
X11862Y11249D01*
X11817Y11241D01*
X11776Y11230D01*
X11738Y11217D01*
X11703Y11203D01*
X11671Y11186D01*
X11644Y11168D01*
X11619Y11149D01*
X11597Y11129D01*
X11578Y11108D01*
X11561Y11086D01*
X11547Y11062D01*
X11535Y11036D01*
X11524Y11008D01*
X11516Y10977D01*
X11509Y10944D01*
X11504Y10909D01*
X11501Y10871D01*
X11500Y10831D01*
X11500Y10503D01*
X11500Y10503D01*
X19000Y8358D02*
X19909Y8006D01*
X19909Y8136D01*
X19249Y8372D01*
X19210Y8386D01*
X19172Y8398D01*
X19135Y8410D01*
X19100Y8420D01*
X19137Y8431D01*
X19174Y8443D01*
X19211Y8455D01*
X19249Y8469D01*
X19909Y8714D01*
X19909Y8837D01*
X19000Y8481D01*
X19000Y8358D01*
X19000Y8358D01*
X19000Y8940D02*
X19909Y8940D01*
X19909Y9281D01*
X19907Y9331D01*
X19902Y9375D01*
X19894Y9414D01*
X19881Y9448D01*
X19866Y9478D01*
X19846Y9504D01*
X19823Y9527D01*
X19797Y9547D01*
X19768Y9563D01*
X19738Y9574D01*
X19708Y9580D01*
X19677Y9583D01*
X19648Y9581D01*
X19620Y9575D01*
X19593Y9565D01*
X19567Y9551D01*
X19542Y9533D01*
X19520Y9511D01*
X19501Y9485D01*
X19484Y9455D01*
X19398Y9420D01*
X19405Y9404D01*
X19411Y9378D01*
X19416Y9347D01*
X19419Y9312D01*
X19420Y9271D01*
X19420Y9060D01*
X19107Y9060D01*
X19107Y9060D01*
X19107Y9287D01*
X19108Y9314D01*
X19108Y9336D01*
X19110Y9355D01*
X19112Y9369D01*
X19116Y9389D01*
X19122Y9407D01*
X19128Y9423D01*
X19136Y9438D01*
X19146Y9451D01*
X19158Y9463D01*
X19171Y9474D01*
X19187Y9484D01*
X19204Y9492D01*
X19223Y9497D01*
X19242Y9501D01*
X19264Y9502D01*
X19288Y9500D01*
X19311Y9495D01*
X19332Y9487D01*
X19352Y9476D01*
X19369Y9462D01*
X19384Y9445D01*
X19396Y9425D01*
X19398Y9420D01*
X19484Y9455D01*
X19556Y9412D01*
X19568Y9428D01*
X19583Y9441D01*
X19600Y9451D01*
X19619Y9458D01*
X19639Y9463D01*
X19662Y9464D01*
X19684Y9463D01*
X19705Y9459D01*
X19724Y9452D01*
X19742Y9442D01*
X19758Y9430D01*
X19771Y9416D01*
X19781Y9399D01*
X19789Y9380D01*
X19795Y9357D01*
X19799Y9326D01*
X19801Y9287D01*
X19802Y9242D01*
X19802Y9060D01*
X19527Y9060D01*
X19527Y9060D01*
X19527Y9257D01*
X19528Y9294D01*
X19530Y9326D01*
X19533Y9352D01*
X19538Y9372D01*
X19546Y9393D01*
X19556Y9412D01*
X19484Y9455D01*
X19469Y9494D01*
X19451Y9528D01*
X19428Y9558D01*
X19401Y9582D01*
X19371Y9602D01*
X19338Y9616D01*
X19302Y9624D01*
X19264Y9627D01*
X19232Y9625D01*
X19202Y9620D01*
X19173Y9611D01*
X19145Y9600D01*
X19119Y9585D01*
X19096Y9569D01*
X19077Y9552D01*
X19060Y9533D01*
X19046Y9512D01*
X19034Y9488D01*
X19024Y9462D01*
X19015Y9433D01*
X19009Y9402D01*
X19004Y9367D01*
X19001Y9328D01*
X19000Y9287D01*
X19000Y8940D01*
X19000Y8940D01*
X19909Y10389D02*
X19909Y10509D01*
X19384Y10509D01*
X19319Y10507D01*
X19261Y10501D01*
X19210Y10492D01*
X19166Y10478D01*
X19128Y10459D01*
X19093Y10435D01*
X19062Y10403D01*
X19035Y10366D01*
X19013Y10322D01*
X18997Y10273D01*
X18988Y10216D01*
X18984Y10154D01*
X18987Y10093D01*
X18996Y10038D01*
X19009Y9988D01*
X19029Y9945D01*
X19053Y9907D01*
X19082Y9875D01*
X19117Y9849D01*
X19156Y9829D01*
X19201Y9814D01*
X19255Y9803D01*
X19315Y9796D01*
X19384Y9794D01*
X19909Y9794D01*
X19909Y9914D01*
X19384Y9914D01*
X19329Y9916D01*
X19282Y9920D01*
X19242Y9927D01*
X19210Y9936D01*
X19183Y9949D01*
X19160Y9966D01*
X19140Y9987D01*
X19123Y10012D01*
X19110Y10040D01*
X19101Y10072D01*
X19095Y10106D01*
X19093Y10143D01*
X19097Y10205D01*
X19108Y10257D01*
X19127Y10299D01*
X19153Y10332D01*
X19190Y10357D01*
X19241Y10375D01*
X19306Y10385D01*
X19384Y10389D01*
X19909Y10389D01*
X19909Y10389D01*
X19292Y10668D02*
X19302Y10782D01*
X19269Y10787D01*
X19240Y10795D01*
X19213Y10806D01*
X19190Y10819D01*
X19169Y10836D01*
X19151Y10857D01*
X19134Y10882D01*
X19119Y10911D01*
X19108Y10943D01*
X19099Y10977D01*
X19094Y11013D01*
X19092Y11050D01*
X19094Y11084D01*
X19098Y11115D01*
X19104Y11145D01*
X19113Y11172D01*
X19124Y11197D01*
X19137Y11218D01*
X19152Y11236D01*
X19169Y11250D01*
X19187Y11262D01*
X19206Y11270D01*
X19226Y11275D01*
X19247Y11276D01*
X19268Y11275D01*
X19287Y11270D01*
X19305Y11262D01*
X19322Y11251D01*
X19337Y11237D01*
X19351Y11218D01*
X19364Y11196D01*
X19375Y11169D01*
X19383Y11146D01*
X19393Y11111D01*
X19405Y11065D01*
X19420Y11008D01*
X19434Y10950D01*
X19449Y10901D01*
X19463Y10862D01*
X19476Y10832D01*
X19494Y10802D01*
X19514Y10775D01*
X19537Y10753D01*
X19561Y10735D01*
X19587Y10721D01*
X19614Y10711D01*
X19644Y10705D01*
X19674Y10703D01*
X19708Y10706D01*
X19741Y10713D01*
X19772Y10725D01*
X19803Y10742D01*
X19831Y10764D01*
X19855Y10790D01*
X19876Y10821D01*
X19894Y10856D01*
X19907Y10895D01*
X19917Y10936D01*
X19923Y10978D01*
X19925Y11023D01*
X19923Y11072D01*
X19916Y11118D01*
X19906Y11161D01*
X19892Y11201D01*
X19874Y11238D01*
X19852Y11270D01*
X19826Y11297D01*
X19796Y11320D01*
X19764Y11339D01*
X19729Y11352D01*
X19692Y11361D01*
X19653Y11365D01*
X19644Y11249D01*
X19685Y11242D01*
X19720Y11229D01*
X19750Y11211D01*
X19775Y11187D01*
X19794Y11157D01*
X19808Y11120D01*
X19816Y11077D01*
X19819Y11028D01*
X19816Y10977D01*
X19809Y10934D01*
X19796Y10898D01*
X19779Y10869D01*
X19758Y10847D01*
X19734Y10832D01*
X19709Y10822D01*
X19682Y10819D01*
X19659Y10821D01*
X19637Y10828D01*
X19618Y10839D01*
X19602Y10854D01*
X19586Y10879D01*
X19569Y10917D01*
X19553Y10970D01*
X19537Y11036D01*
X19521Y11103D01*
X19506Y11159D01*
X19492Y11204D01*
X19479Y11237D01*
X19459Y11274D01*
X19437Y11306D01*
X19413Y11333D01*
X19386Y11354D01*
X19357Y11371D01*
X19326Y11383D01*
X19292Y11390D01*
X19257Y11392D01*
X19221Y11389D01*
X19186Y11382D01*
X19153Y11369D01*
X19120Y11351D01*
X19090Y11328D01*
X19063Y11300D01*
X19040Y11268D01*
X19020Y11231D01*
X19005Y11191D01*
X18993Y11148D01*
X18987Y11103D01*
X18984Y11056D01*
X18987Y10997D01*
X18993Y10943D01*
X19005Y10893D01*
X19020Y10849D01*
X19041Y10810D01*
X19066Y10775D01*
X19095Y10744D01*
X19129Y10718D01*
X19166Y10697D01*
X19206Y10682D01*
X19248Y10672D01*
X19292Y10668D01*
X19292Y10668D01*
G37*
M02*