<?xml version='1.0' encoding='UTF-8' standalone='no'?>
<svg xmlns="http://www.w3.org/2000/svg" width="565" height="567" x="0" y="0"><text x="489" y="412" font-size="10" font-family="sans-serif" text-anchor="start" alignment-baseline="hanging">R5</text><text x="489" y="92" font-size="10" font-family="sans-serif" text-anchor="start" alignment-baseline="hanging">R1</text><text x="65" y="313" font-size="10" font-family="sans-serif" text-anchor="end" alignment-baseline="middle">button-01</text><text x="488" y="444" font-size="10" font-family="sans-serif" text-anchor="start" alignment-baseline="hanging">10k</text><text x="487" y="364" font-size="10" font-family="sans-serif" text-anchor="start" alignment-baseline="hanging">10k</text><text x="65" y="363" font-size="10" font-family="sans-serif" text-anchor="end" alignment-baseline="middle">button-04</text><text x="65" y="373" font-size="10" font-family="sans-serif" text-anchor="end" alignment-baseline="middle">button-04</text><text x="295" y="433" font-size="10" font-family="sans-serif" text-anchor="end" alignment-baseline="middle">button-05</text><text x="65" y="333" font-size="10" font-family="sans-serif" text-anchor="end" alignment-baseline="middle">button-02</text><text x="65" y="353" font-size="10" font-family="sans-serif" text-anchor="end" alignment-baseline="middle">button-03</text><text x="65" y="303" font-size="10" font-family="sans-serif" text-anchor="end" alignment-baseline="middle">button-01</text><text x="350" y="528" font-size="10" font-family="sans-serif" text-anchor="end" alignment-baseline="middle" transform="rotate(270 350 528)">active</text><text x="406" y="211" font-size="10" font-family="sans-serif" text-anchor="start" alignment-baseline="hanging">SW2</text><text x="65" y="343" font-size="10" font-family="sans-serif" text-anchor="end" alignment-baseline="middle">button-03</text><text x="55" y="123" font-size="10" font-family="sans-serif" text-anchor="end" alignment-baseline="middle">button-01</text><text x="55" y="143" font-size="10" font-family="sans-serif" text-anchor="end" alignment-baseline="middle">button-02</text><text x="55" y="153" font-size="10" font-family="sans-serif" text-anchor="end" alignment-baseline="middle">button-02</text><text x="55" y="213" font-size="10" font-family="sans-serif" text-anchor="end" alignment-baseline="middle">button-05</text><text x="490" y="174" font-size="10" font-family="sans-serif" text-anchor="start" alignment-baseline="hanging">R2</text><text x="114" y="248" font-size="10" font-family="sans-serif" text-anchor="start" alignment-baseline="hanging">HDR12</text><text x="486" y="283" font-size="10" font-family="sans-serif" text-anchor="start" alignment-baseline="hanging">10k</text><text x="488" y="124" font-size="10" font-family="sans-serif" text-anchor="start" alignment-baseline="hanging">10k</text><text x="124" y="428" font-size="10" font-family="sans-serif" text-anchor="start" alignment-baseline="hanging">HDR12</text><text x="65" y="403" font-size="10" font-family="sans-serif" text-anchor="end" alignment-baseline="middle">active</text><text x="489" y="335" font-size="10" font-family="sans-serif" text-anchor="start" alignment-baseline="hanging">R4</text><text x="295" y="273" font-size="10" font-family="sans-serif" text-anchor="end" alignment-baseline="middle">button-03</text><text x="125" y="103" font-size="10" font-family="sans-serif" text-anchor="start" alignment-baseline="hanging">J1</text><text x="55" y="203" font-size="10" font-family="sans-serif" text-anchor="end" alignment-baseline="middle">button-05</text><text x="295" y="113" font-size="10" font-family="sans-serif" text-anchor="end" alignment-baseline="middle">button-01</text><text x="487" y="202" font-size="10" font-family="sans-serif" text-anchor="start" alignment-baseline="hanging">10k</text><text x="65" y="323" font-size="10" font-family="sans-serif" text-anchor="end" alignment-baseline="middle">button-02</text><text x="406" y="131" font-size="10" font-family="sans-serif" text-anchor="start" alignment-baseline="hanging">SW1</text><text x="65" y="393" font-size="10" font-family="sans-serif" text-anchor="end" alignment-baseline="middle">button-05</text><text x="295" y="353" font-size="10" font-family="sans-serif" text-anchor="end" alignment-baseline="middle">button-04</text><text x="406" y="371" font-size="10" font-family="sans-serif" text-anchor="start" alignment-baseline="hanging">SW4</text><text x="55" y="173" font-size="10" font-family="sans-serif" text-anchor="end" alignment-baseline="middle">button-03</text><text x="489" y="253" font-size="10" font-family="sans-serif" text-anchor="start" alignment-baseline="hanging">R3</text><text x="55" y="183" font-size="10" font-family="sans-serif" text-anchor="end" alignment-baseline="middle">button-04</text><text x="135" y="283" font-size="10" font-family="sans-serif" text-anchor="start" alignment-baseline="hanging">J2</text><text x="55" y="133" font-size="10" font-family="sans-serif" text-anchor="end" alignment-baseline="middle">button-01</text><text x="550" y="48" font-size="10" font-family="sans-serif" text-anchor="end" alignment-baseline="middle" transform="rotate(90 550 48)">inactive</text><text x="55" y="233" font-size="10" font-family="sans-serif" text-anchor="end" alignment-baseline="middle">inactive</text><text x="55" y="223" font-size="10" font-family="sans-serif" text-anchor="end" alignment-baseline="middle">active</text><text x="406" y="291" font-size="10" font-family="sans-serif" text-anchor="start" alignment-baseline="hanging">SW3</text><text x="55" y="163" font-size="10" font-family="sans-serif" text-anchor="end" alignment-baseline="middle">button-03</text><text x="65" y="383" font-size="10" font-family="sans-serif" text-anchor="end" alignment-baseline="middle">button-05</text><text x="295" y="193" font-size="10" font-family="sans-serif" text-anchor="end" alignment-baseline="middle">button-02</text><text x="55" y="193" font-size="10" font-family="sans-serif" text-anchor="end" alignment-baseline="middle">button-04</text><text x="65" y="413" font-size="10" font-family="sans-serif" text-anchor="end" alignment-baseline="middle">inactive</text><text x="406" y="451" font-size="10" font-family="sans-serif" text-anchor="start" alignment-baseline="hanging">SW5</text><line x1="75" y1="213" x2="80" y2="213" stroke-width="2" stroke="black"></line><line x1="60" y1="213" x2="65" y2="210" stroke-width="2" stroke="black"></line><line x1="60" y1="213" x2="65" y2="216" stroke-width="2" stroke="black"></line><line x1="65" y1="210" x2="75" y2="210" stroke-width="2" stroke="black"></line><line x1="65" y1="216" x2="75" y2="216" stroke-width="2" stroke="black"></line><line x1="75" y1="210" x2="75" y2="216" stroke-width="2" stroke="black"></line><line x1="85" y1="363" x2="90" y2="363" stroke-width="2" stroke="black"></line><line x1="70" y1="363" x2="75" y2="360" stroke-width="2" stroke="black"></line><line x1="70" y1="363" x2="75" y2="366" stroke-width="2" stroke="black"></line><line x1="75" y1="360" x2="85" y2="360" stroke-width="2" stroke="black"></line><line x1="75" y1="366" x2="85" y2="366" stroke-width="2" stroke="black"></line><line x1="85" y1="360" x2="85" y2="366" stroke-width="2" stroke="black"></line><line x1="85" y1="393" x2="90" y2="393" stroke-width="2" stroke="black"></line><line x1="70" y1="393" x2="75" y2="390" stroke-width="2" stroke="black"></line><line x1="70" y1="393" x2="75" y2="396" stroke-width="2" stroke="black"></line><line x1="75" y1="390" x2="85" y2="390" stroke-width="2" stroke="black"></line><line x1="75" y1="396" x2="85" y2="396" stroke-width="2" stroke="black"></line><line x1="85" y1="390" x2="85" y2="396" stroke-width="2" stroke="black"></line><line x1="480" y1="113" x2="483" y2="108" stroke-width="2" stroke="black"></line><line x1="483" y1="108" x2="488" y2="118" stroke-width="2" stroke="black"></line><line x1="488" y1="118" x2="493" y2="108" stroke-width="2" stroke="black"></line><line x1="493" y1="108" x2="498" y2="118" stroke-width="2" stroke="black"></line><line x1="498" y1="118" x2="503" y2="108" stroke-width="2" stroke="black"></line><line x1="503" y1="108" x2="508" y2="118" stroke-width="2" stroke="black"></line><line x1="508" y1="118" x2="510" y2="113" stroke-width="2" stroke="black"></line><line x1="470" y1="113" x2="480" y2="113" stroke-width="2" stroke="black"></line><line x1="510" y1="113" x2="520" y2="113" stroke-width="2" stroke="black"></line><line x1="380" y1="193" x2="400" y2="193" stroke-width="2" stroke="black"></line><line x1="380" y1="233" x2="400" y2="233" stroke-width="2" stroke="black"></line><line x1="390" y1="233" x2="390" y2="223" stroke-width="2" stroke="black"></line><line x1="390" y1="193" x2="390" y2="203" stroke-width="2" stroke="black"></line><circle cx="390" cy="206" r="3" style="stroke: #000; stroke-width: 1; fill: none;"></circle><circle cx="390" cy="220" r="3" style="stroke: #000; stroke-width: 1; fill: none;"></circle><line x1="390" y1="209" x2="382" y2="215" stroke-width="2" stroke="black"></line><line x1="75" y1="233" x2="80" y2="233" stroke-width="2" stroke="black"></line><line x1="70" y1="230" x2="75" y2="233" stroke-width="2" stroke="black"></line><line x1="70" y1="236" x2="75" y2="233" stroke-width="2" stroke="black"></line><line x1="70" y1="230" x2="60" y2="230" stroke-width="2" stroke="black"></line><line x1="70" y1="236" x2="60" y2="236" stroke-width="2" stroke="black"></line><line x1="60" y1="230" x2="60" y2="236" stroke-width="2" stroke="black"></line><line x1="315" y1="273" x2="320" y2="273" stroke-width="2" stroke="black"></line><line x1="300" y1="273" x2="305" y2="270" stroke-width="2" stroke="black"></line><line x1="300" y1="273" x2="305" y2="276" stroke-width="2" stroke="black"></line><line x1="305" y1="270" x2="315" y2="270" stroke-width="2" stroke="black"></line><line x1="305" y1="276" x2="315" y2="276" stroke-width="2" stroke="black"></line><line x1="315" y1="270" x2="315" y2="276" stroke-width="2" stroke="black"></line><line x1="315" y1="433" x2="320" y2="433" stroke-width="2" stroke="black"></line><line x1="300" y1="433" x2="305" y2="430" stroke-width="2" stroke="black"></line><line x1="300" y1="433" x2="305" y2="436" stroke-width="2" stroke="black"></line><line x1="305" y1="430" x2="315" y2="430" stroke-width="2" stroke="black"></line><line x1="305" y1="436" x2="315" y2="436" stroke-width="2" stroke="black"></line><line x1="315" y1="430" x2="315" y2="436" stroke-width="2" stroke="black"></line><line x1="85" y1="343" x2="90" y2="343" stroke-width="2" stroke="black"></line><line x1="70" y1="343" x2="75" y2="340" stroke-width="2" stroke="black"></line><line x1="70" y1="343" x2="75" y2="346" stroke-width="2" stroke="black"></line><line x1="75" y1="340" x2="85" y2="340" stroke-width="2" stroke="black"></line><line x1="75" y1="346" x2="85" y2="346" stroke-width="2" stroke="black"></line><line x1="85" y1="340" x2="85" y2="346" stroke-width="2" stroke="black"></line><line x1="380" y1="353" x2="400" y2="353" stroke-width="2" stroke="black"></line><line x1="380" y1="393" x2="400" y2="393" stroke-width="2" stroke="black"></line><line x1="390" y1="393" x2="390" y2="383" stroke-width="2" stroke="black"></line><line x1="390" y1="353" x2="390" y2="363" stroke-width="2" stroke="black"></line><circle cx="390" cy="366" r="3" style="stroke: #000; stroke-width: 1; fill: none;"></circle><circle cx="390" cy="380" r="3" style="stroke: #000; stroke-width: 1; fill: none;"></circle><line x1="390" y1="369" x2="382" y2="375" stroke-width="2" stroke="black"></line><line x1="85" y1="323" x2="90" y2="323" stroke-width="2" stroke="black"></line><line x1="70" y1="323" x2="75" y2="320" stroke-width="2" stroke="black"></line><line x1="70" y1="323" x2="75" y2="326" stroke-width="2" stroke="black"></line><line x1="75" y1="320" x2="85" y2="320" stroke-width="2" stroke="black"></line><line x1="75" y1="326" x2="85" y2="326" stroke-width="2" stroke="black"></line><line x1="85" y1="320" x2="85" y2="326" stroke-width="2" stroke="black"></line><line x1="75" y1="133" x2="80" y2="133" stroke-width="2" stroke="black"></line><line x1="60" y1="133" x2="65" y2="130" stroke-width="2" stroke="black"></line><line x1="60" y1="133" x2="65" y2="136" stroke-width="2" stroke="black"></line><line x1="65" y1="130" x2="75" y2="130" stroke-width="2" stroke="black"></line><line x1="65" y1="136" x2="75" y2="136" stroke-width="2" stroke="black"></line><line x1="75" y1="130" x2="75" y2="136" stroke-width="2" stroke="black"></line><rect width="20" height="130" x="130" y="293" style="stroke: #000; stroke-width: 1; fill: none;"></rect><line x1="120" y1="303" x2="130" y2="303" stroke-width="2" stroke="black"></line><text x="132" y="303" font-size="10" font-family="sans-serif" text-anchor="start" alignment-baseline="middle">1</text><line x1="120" y1="313" x2="130" y2="313" stroke-width="2" stroke="black"></line><text x="132" y="313" font-size="10" font-family="sans-serif" text-anchor="start" alignment-baseline="middle">2</text><line x1="120" y1="323" x2="130" y2="323" stroke-width="2" stroke="black"></line><text x="132" y="323" font-size="10" font-family="sans-serif" text-anchor="start" alignment-baseline="middle">3</text><line x1="120" y1="333" x2="130" y2="333" stroke-width="2" stroke="black"></line><text x="132" y="333" font-size="10" font-family="sans-serif" text-anchor="start" alignment-baseline="middle">4</text><line x1="120" y1="343" x2="130" y2="343" stroke-width="2" stroke="black"></line><text x="132" y="343" font-size="10" font-family="sans-serif" text-anchor="start" alignment-baseline="middle">5</text><line x1="120" y1="353" x2="130" y2="353" stroke-width="2" stroke="black"></line><text x="132" y="353" font-size="10" font-family="sans-serif" text-anchor="start" alignment-baseline="middle">6</text><line x1="120" y1="363" x2="130" y2="363" stroke-width="2" stroke="black"></line><text x="132" y="363" font-size="10" font-family="sans-serif" text-anchor="start" alignment-baseline="middle">7</text><line x1="120" y1="373" x2="130" y2="373" stroke-width="2" stroke="black"></line><text x="132" y="373" font-size="10" font-family="sans-serif" text-anchor="start" alignment-baseline="middle">8</text><line x1="120" y1="383" x2="130" y2="383" stroke-width="2" stroke="black"></line><text x="132" y="383" font-size="10" font-family="sans-serif" text-anchor="start" alignment-baseline="middle">9</text><line x1="120" y1="393" x2="130" y2="393" stroke-width="2" stroke="black"></line><text x="132" y="393" font-size="10" font-family="sans-serif" text-anchor="start" alignment-baseline="middle">10</text><line x1="120" y1="403" x2="130" y2="403" stroke-width="2" stroke="black"></line><text x="132" y="403" font-size="10" font-family="sans-serif" text-anchor="start" alignment-baseline="middle">11</text><line x1="120" y1="413" x2="130" y2="413" stroke-width="2" stroke="black"></line><text x="132" y="413" font-size="10" font-family="sans-serif" text-anchor="start" alignment-baseline="middle">12</text><line x1="85" y1="373" x2="90" y2="373" stroke-width="2" stroke="black"></line><line x1="70" y1="373" x2="75" y2="370" stroke-width="2" stroke="black"></line><line x1="70" y1="373" x2="75" y2="376" stroke-width="2" stroke="black"></line><line x1="75" y1="370" x2="85" y2="370" stroke-width="2" stroke="black"></line><line x1="75" y1="376" x2="85" y2="376" stroke-width="2" stroke="black"></line><line x1="85" y1="370" x2="85" y2="376" stroke-width="2" stroke="black"></line><line x1="85" y1="413" x2="90" y2="413" stroke-width="2" stroke="black"></line><line x1="80" y1="410" x2="85" y2="413" stroke-width="2" stroke="black"></line><line x1="80" y1="416" x2="85" y2="413" stroke-width="2" stroke="black"></line><line x1="80" y1="410" x2="70" y2="410" stroke-width="2" stroke="black"></line><line x1="80" y1="416" x2="70" y2="416" stroke-width="2" stroke="black"></line><line x1="70" y1="410" x2="70" y2="416" stroke-width="2" stroke="black"></line><line x1="75" y1="123" x2="80" y2="123" stroke-width="2" stroke="black"></line><line x1="60" y1="123" x2="65" y2="120" stroke-width="2" stroke="black"></line><line x1="60" y1="123" x2="65" y2="126" stroke-width="2" stroke="black"></line><line x1="65" y1="120" x2="75" y2="120" stroke-width="2" stroke="black"></line><line x1="65" y1="126" x2="75" y2="126" stroke-width="2" stroke="black"></line><line x1="75" y1="120" x2="75" y2="126" stroke-width="2" stroke="black"></line><line x1="75" y1="203" x2="80" y2="203" stroke-width="2" stroke="black"></line><line x1="60" y1="203" x2="65" y2="200" stroke-width="2" stroke="black"></line><line x1="60" y1="203" x2="65" y2="206" stroke-width="2" stroke="black"></line><line x1="65" y1="200" x2="75" y2="200" stroke-width="2" stroke="black"></line><line x1="65" y1="206" x2="75" y2="206" stroke-width="2" stroke="black"></line><line x1="75" y1="200" x2="75" y2="206" stroke-width="2" stroke="black"></line><line x1="75" y1="183" x2="80" y2="183" stroke-width="2" stroke="black"></line><line x1="60" y1="183" x2="65" y2="180" stroke-width="2" stroke="black"></line><line x1="60" y1="183" x2="65" y2="186" stroke-width="2" stroke="black"></line><line x1="65" y1="180" x2="75" y2="180" stroke-width="2" stroke="black"></line><line x1="65" y1="186" x2="75" y2="186" stroke-width="2" stroke="black"></line><line x1="75" y1="180" x2="75" y2="186" stroke-width="2" stroke="black"></line><line x1="85" y1="303" x2="90" y2="303" stroke-width="2" stroke="black"></line><line x1="70" y1="303" x2="75" y2="300" stroke-width="2" stroke="black"></line><line x1="70" y1="303" x2="75" y2="306" stroke-width="2" stroke="black"></line><line x1="75" y1="300" x2="85" y2="300" stroke-width="2" stroke="black"></line><line x1="75" y1="306" x2="85" y2="306" stroke-width="2" stroke="black"></line><line x1="85" y1="300" x2="85" y2="306" stroke-width="2" stroke="black"></line><line x1="417" y1="310" x2="423" y2="316" stroke-width="2" stroke="black"></line><line x1="417" y1="316" x2="423" y2="310" stroke-width="2" stroke="black"></line><line x1="480" y1="193" x2="483" y2="188" stroke-width="2" stroke="black"></line><line x1="483" y1="188" x2="488" y2="198" stroke-width="2" stroke="black"></line><line x1="488" y1="198" x2="493" y2="188" stroke-width="2" stroke="black"></line><line x1="493" y1="188" x2="498" y2="198" stroke-width="2" stroke="black"></line><line x1="498" y1="198" x2="503" y2="188" stroke-width="2" stroke="black"></line><line x1="503" y1="188" x2="508" y2="198" stroke-width="2" stroke="black"></line><line x1="508" y1="198" x2="510" y2="193" stroke-width="2" stroke="black"></line><line x1="470" y1="193" x2="480" y2="193" stroke-width="2" stroke="black"></line><line x1="510" y1="193" x2="520" y2="193" stroke-width="2" stroke="black"></line><line x1="85" y1="403" x2="90" y2="403" stroke-width="2" stroke="black"></line><line x1="80" y1="400" x2="85" y2="403" stroke-width="2" stroke="black"></line><line x1="80" y1="406" x2="85" y2="403" stroke-width="2" stroke="black"></line><line x1="80" y1="400" x2="70" y2="400" stroke-width="2" stroke="black"></line><line x1="80" y1="406" x2="70" y2="406" stroke-width="2" stroke="black"></line><line x1="70" y1="400" x2="70" y2="406" stroke-width="2" stroke="black"></line><line x1="380" y1="433" x2="400" y2="433" stroke-width="2" stroke="black"></line><line x1="380" y1="473" x2="400" y2="473" stroke-width="2" stroke="black"></line><line x1="390" y1="473" x2="390" y2="463" stroke-width="2" stroke="black"></line><line x1="390" y1="433" x2="390" y2="443" stroke-width="2" stroke="black"></line><circle cx="390" cy="446" r="3" style="stroke: #000; stroke-width: 1; fill: none;"></circle><circle cx="390" cy="460" r="3" style="stroke: #000; stroke-width: 1; fill: none;"></circle><line x1="390" y1="449" x2="382" y2="455" stroke-width="2" stroke="black"></line><line x1="417" y1="150" x2="423" y2="156" stroke-width="2" stroke="black"></line><line x1="417" y1="156" x2="423" y2="150" stroke-width="2" stroke="black"></line><line x1="85" y1="313" x2="90" y2="313" stroke-width="2" stroke="black"></line><line x1="70" y1="313" x2="75" y2="310" stroke-width="2" stroke="black"></line><line x1="70" y1="313" x2="75" y2="316" stroke-width="2" stroke="black"></line><line x1="75" y1="310" x2="85" y2="310" stroke-width="2" stroke="black"></line><line x1="75" y1="316" x2="85" y2="316" stroke-width="2" stroke="black"></line><line x1="85" y1="310" x2="85" y2="316" stroke-width="2" stroke="black"></line><line x1="480" y1="353" x2="483" y2="348" stroke-width="2" stroke="black"></line><line x1="483" y1="348" x2="488" y2="358" stroke-width="2" stroke="black"></line><line x1="488" y1="358" x2="493" y2="348" stroke-width="2" stroke="black"></line><line x1="493" y1="348" x2="498" y2="358" stroke-width="2" stroke="black"></line><line x1="498" y1="358" x2="503" y2="348" stroke-width="2" stroke="black"></line><line x1="503" y1="348" x2="508" y2="358" stroke-width="2" stroke="black"></line><line x1="508" y1="358" x2="510" y2="353" stroke-width="2" stroke="black"></line><line x1="470" y1="353" x2="480" y2="353" stroke-width="2" stroke="black"></line><line x1="510" y1="353" x2="520" y2="353" stroke-width="2" stroke="black"></line><line x1="550" y1="68" x2="550" y2="73" stroke-width="2" stroke="black"></line><line x1="553" y1="63" x2="550" y2="68" stroke-width="2" stroke="black"></line><line x1="547" y1="63" x2="550" y2="68" stroke-width="2" stroke="black"></line><line x1="553" y1="63" x2="553" y2="53" stroke-width="2" stroke="black"></line><line x1="547" y1="63" x2="547" y2="53" stroke-width="2" stroke="black"></line><line x1="553" y1="53" x2="547" y2="53" stroke-width="2" stroke="black"></line><line x1="417" y1="230" x2="423" y2="236" stroke-width="2" stroke="black"></line><line x1="417" y1="236" x2="423" y2="230" stroke-width="2" stroke="black"></line><line x1="75" y1="153" x2="80" y2="153" stroke-width="2" stroke="black"></line><line x1="60" y1="153" x2="65" y2="150" stroke-width="2" stroke="black"></line><line x1="60" y1="153" x2="65" y2="156" stroke-width="2" stroke="black"></line><line x1="65" y1="150" x2="75" y2="150" stroke-width="2" stroke="black"></line><line x1="65" y1="156" x2="75" y2="156" stroke-width="2" stroke="black"></line><line x1="75" y1="150" x2="75" y2="156" stroke-width="2" stroke="black"></line><line x1="85" y1="353" x2="90" y2="353" stroke-width="2" stroke="black"></line><line x1="70" y1="353" x2="75" y2="350" stroke-width="2" stroke="black"></line><line x1="70" y1="353" x2="75" y2="356" stroke-width="2" stroke="black"></line><line x1="75" y1="350" x2="85" y2="350" stroke-width="2" stroke="black"></line><line x1="75" y1="356" x2="85" y2="356" stroke-width="2" stroke="black"></line><line x1="85" y1="350" x2="85" y2="356" stroke-width="2" stroke="black"></line><line x1="75" y1="163" x2="80" y2="163" stroke-width="2" stroke="black"></line><line x1="60" y1="163" x2="65" y2="160" stroke-width="2" stroke="black"></line><line x1="60" y1="163" x2="65" y2="166" stroke-width="2" stroke="black"></line><line x1="65" y1="160" x2="75" y2="160" stroke-width="2" stroke="black"></line><line x1="65" y1="166" x2="75" y2="166" stroke-width="2" stroke="black"></line><line x1="75" y1="160" x2="75" y2="166" stroke-width="2" stroke="black"></line><line x1="315" y1="193" x2="320" y2="193" stroke-width="2" stroke="black"></line><line x1="300" y1="193" x2="305" y2="190" stroke-width="2" stroke="black"></line><line x1="300" y1="193" x2="305" y2="196" stroke-width="2" stroke="black"></line><line x1="305" y1="190" x2="315" y2="190" stroke-width="2" stroke="black"></line><line x1="305" y1="196" x2="315" y2="196" stroke-width="2" stroke="black"></line><line x1="315" y1="190" x2="315" y2="196" stroke-width="2" stroke="black"></line><line x1="417" y1="470" x2="423" y2="476" stroke-width="2" stroke="black"></line><line x1="417" y1="476" x2="423" y2="470" stroke-width="2" stroke="black"></line><line x1="75" y1="223" x2="80" y2="223" stroke-width="2" stroke="black"></line><line x1="70" y1="220" x2="75" y2="223" stroke-width="2" stroke="black"></line><line x1="70" y1="226" x2="75" y2="223" stroke-width="2" stroke="black"></line><line x1="70" y1="220" x2="60" y2="220" stroke-width="2" stroke="black"></line><line x1="70" y1="226" x2="60" y2="226" stroke-width="2" stroke="black"></line><line x1="60" y1="220" x2="60" y2="226" stroke-width="2" stroke="black"></line><rect width="20" height="130" x="120" y="113" style="stroke: #000; stroke-width: 1; fill: none;"></rect><line x1="110" y1="123" x2="120" y2="123" stroke-width="2" stroke="black"></line><text x="122" y="123" font-size="10" font-family="sans-serif" text-anchor="start" alignment-baseline="middle">1</text><line x1="110" y1="133" x2="120" y2="133" stroke-width="2" stroke="black"></line><text x="122" y="133" font-size="10" font-family="sans-serif" text-anchor="start" alignment-baseline="middle">2</text><line x1="110" y1="143" x2="120" y2="143" stroke-width="2" stroke="black"></line><text x="122" y="143" font-size="10" font-family="sans-serif" text-anchor="start" alignment-baseline="middle">3</text><line x1="110" y1="153" x2="120" y2="153" stroke-width="2" stroke="black"></line><text x="122" y="153" font-size="10" font-family="sans-serif" text-anchor="start" alignment-baseline="middle">4</text><line x1="110" y1="163" x2="120" y2="163" stroke-width="2" stroke="black"></line><text x="122" y="163" font-size="10" font-family="sans-serif" text-anchor="start" alignment-baseline="middle">5</text><line x1="110" y1="173" x2="120" y2="173" stroke-width="2" stroke="black"></line><text x="122" y="173" font-size="10" font-family="sans-serif" text-anchor="start" alignment-baseline="middle">6</text><line x1="110" y1="183" x2="120" y2="183" stroke-width="2" stroke="black"></line><text x="122" y="183" font-size="10" font-family="sans-serif" text-anchor="start" alignment-baseline="middle">7</text><line x1="110" y1="193" x2="120" y2="193" stroke-width="2" stroke="black"></line><text x="122" y="193" font-size="10" font-family="sans-serif" text-anchor="start" alignment-baseline="middle">8</text><line x1="110" y1="203" x2="120" y2="203" stroke-width="2" stroke="black"></line><text x="122" y="203" font-size="10" font-family="sans-serif" text-anchor="start" alignment-baseline="middle">9</text><line x1="110" y1="213" x2="120" y2="213" stroke-width="2" stroke="black"></line><text x="122" y="213" font-size="10" font-family="sans-serif" text-anchor="start" alignment-baseline="middle">10</text><line x1="110" y1="223" x2="120" y2="223" stroke-width="2" stroke="black"></line><text x="122" y="223" font-size="10" font-family="sans-serif" text-anchor="start" alignment-baseline="middle">11</text><line x1="110" y1="233" x2="120" y2="233" stroke-width="2" stroke="black"></line><text x="122" y="233" font-size="10" font-family="sans-serif" text-anchor="start" alignment-baseline="middle">12</text><line x1="417" y1="390" x2="423" y2="396" stroke-width="2" stroke="black"></line><line x1="417" y1="396" x2="423" y2="390" stroke-width="2" stroke="black"></line><line x1="480" y1="273" x2="483" y2="268" stroke-width="2" stroke="black"></line><line x1="483" y1="268" x2="488" y2="278" stroke-width="2" stroke="black"></line><line x1="488" y1="278" x2="493" y2="268" stroke-width="2" stroke="black"></line><line x1="493" y1="268" x2="498" y2="278" stroke-width="2" stroke="black"></line><line x1="498" y1="278" x2="503" y2="268" stroke-width="2" stroke="black"></line><line x1="503" y1="268" x2="508" y2="278" stroke-width="2" stroke="black"></line><line x1="508" y1="278" x2="510" y2="273" stroke-width="2" stroke="black"></line><line x1="470" y1="273" x2="480" y2="273" stroke-width="2" stroke="black"></line><line x1="510" y1="273" x2="520" y2="273" stroke-width="2" stroke="black"></line><line x1="350" y1="508" x2="350" y2="503" stroke-width="2" stroke="black"></line><line x1="347" y1="513" x2="350" y2="508" stroke-width="2" stroke="black"></line><line x1="353" y1="513" x2="350" y2="508" stroke-width="2" stroke="black"></line><line x1="347" y1="513" x2="347" y2="523" stroke-width="2" stroke="black"></line><line x1="353" y1="513" x2="353" y2="523" stroke-width="2" stroke="black"></line><line x1="347" y1="523" x2="353" y2="523" stroke-width="2" stroke="black"></line><line x1="75" y1="173" x2="80" y2="173" stroke-width="2" stroke="black"></line><line x1="60" y1="173" x2="65" y2="170" stroke-width="2" stroke="black"></line><line x1="60" y1="173" x2="65" y2="176" stroke-width="2" stroke="black"></line><line x1="65" y1="170" x2="75" y2="170" stroke-width="2" stroke="black"></line><line x1="65" y1="176" x2="75" y2="176" stroke-width="2" stroke="black"></line><line x1="75" y1="170" x2="75" y2="176" stroke-width="2" stroke="black"></line><line x1="480" y1="433" x2="483" y2="428" stroke-width="2" stroke="black"></line><line x1="483" y1="428" x2="488" y2="438" stroke-width="2" stroke="black"></line><line x1="488" y1="438" x2="493" y2="428" stroke-width="2" stroke="black"></line><line x1="493" y1="428" x2="498" y2="438" stroke-width="2" stroke="black"></line><line x1="498" y1="438" x2="503" y2="428" stroke-width="2" stroke="black"></line><line x1="503" y1="428" x2="508" y2="438" stroke-width="2" stroke="black"></line><line x1="508" y1="438" x2="510" y2="433" stroke-width="2" stroke="black"></line><line x1="470" y1="433" x2="480" y2="433" stroke-width="2" stroke="black"></line><line x1="510" y1="433" x2="520" y2="433" stroke-width="2" stroke="black"></line><line x1="380" y1="273" x2="400" y2="273" stroke-width="2" stroke="black"></line><line x1="380" y1="313" x2="400" y2="313" stroke-width="2" stroke="black"></line><line x1="390" y1="313" x2="390" y2="303" stroke-width="2" stroke="black"></line><line x1="390" y1="273" x2="390" y2="283" stroke-width="2" stroke="black"></line><circle cx="390" cy="286" r="3" style="stroke: #000; stroke-width: 1; fill: none;"></circle><circle cx="390" cy="300" r="3" style="stroke: #000; stroke-width: 1; fill: none;"></circle><line x1="390" y1="289" x2="382" y2="295" stroke-width="2" stroke="black"></line><line x1="85" y1="383" x2="90" y2="383" stroke-width="2" stroke="black"></line><line x1="70" y1="383" x2="75" y2="380" stroke-width="2" stroke="black"></line><line x1="70" y1="383" x2="75" y2="386" stroke-width="2" stroke="black"></line><line x1="75" y1="380" x2="85" y2="380" stroke-width="2" stroke="black"></line><line x1="75" y1="386" x2="85" y2="386" stroke-width="2" stroke="black"></line><line x1="85" y1="380" x2="85" y2="386" stroke-width="2" stroke="black"></line><line x1="75" y1="143" x2="80" y2="143" stroke-width="2" stroke="black"></line><line x1="60" y1="143" x2="65" y2="140" stroke-width="2" stroke="black"></line><line x1="60" y1="143" x2="65" y2="146" stroke-width="2" stroke="black"></line><line x1="65" y1="140" x2="75" y2="140" stroke-width="2" stroke="black"></line><line x1="65" y1="146" x2="75" y2="146" stroke-width="2" stroke="black"></line><line x1="75" y1="140" x2="75" y2="146" stroke-width="2" stroke="black"></line><line x1="85" y1="333" x2="90" y2="333" stroke-width="2" stroke="black"></line><line x1="70" y1="333" x2="75" y2="330" stroke-width="2" stroke="black"></line><line x1="70" y1="333" x2="75" y2="336" stroke-width="2" stroke="black"></line><line x1="75" y1="330" x2="85" y2="330" stroke-width="2" stroke="black"></line><line x1="75" y1="336" x2="85" y2="336" stroke-width="2" stroke="black"></line><line x1="85" y1="330" x2="85" y2="336" stroke-width="2" stroke="black"></line><line x1="380" y1="113" x2="400" y2="113" stroke-width="2" stroke="black"></line><line x1="380" y1="153" x2="400" y2="153" stroke-width="2" stroke="black"></line><line x1="390" y1="153" x2="390" y2="143" stroke-width="2" stroke="black"></line><line x1="390" y1="113" x2="390" y2="123" stroke-width="2" stroke="black"></line><circle cx="390" cy="126" r="3" style="stroke: #000; stroke-width: 1; fill: none;"></circle><circle cx="390" cy="140" r="3" style="stroke: #000; stroke-width: 1; fill: none;"></circle><line x1="390" y1="129" x2="382" y2="135" stroke-width="2" stroke="black"></line><line x1="75" y1="193" x2="80" y2="193" stroke-width="2" stroke="black"></line><line x1="60" y1="193" x2="65" y2="190" stroke-width="2" stroke="black"></line><line x1="60" y1="193" x2="65" y2="196" stroke-width="2" stroke="black"></line><line x1="65" y1="190" x2="75" y2="190" stroke-width="2" stroke="black"></line><line x1="65" y1="196" x2="75" y2="196" stroke-width="2" stroke="black"></line><line x1="75" y1="190" x2="75" y2="196" stroke-width="2" stroke="black"></line><line x1="315" y1="113" x2="320" y2="113" stroke-width="2" stroke="black"></line><line x1="300" y1="113" x2="305" y2="110" stroke-width="2" stroke="black"></line><line x1="300" y1="113" x2="305" y2="116" stroke-width="2" stroke="black"></line><line x1="305" y1="110" x2="315" y2="110" stroke-width="2" stroke="black"></line><line x1="305" y1="116" x2="315" y2="116" stroke-width="2" stroke="black"></line><line x1="315" y1="110" x2="315" y2="116" stroke-width="2" stroke="black"></line><line x1="315" y1="353" x2="320" y2="353" stroke-width="2" stroke="black"></line><line x1="300" y1="353" x2="305" y2="350" stroke-width="2" stroke="black"></line><line x1="300" y1="353" x2="305" y2="356" stroke-width="2" stroke="black"></line><line x1="305" y1="350" x2="315" y2="350" stroke-width="2" stroke="black"></line><line x1="305" y1="356" x2="315" y2="356" stroke-width="2" stroke="black"></line><line x1="315" y1="350" x2="315" y2="356" stroke-width="2" stroke="black"></line><circle cx="350" cy="473" r="2" style="stroke: #000; stroke-width: 1; fill: none;"></circle><circle cx="550" cy="113" r="2" style="stroke: #000; stroke-width: 1; fill: none;"></circle><circle cx="550" cy="193" r="2" style="stroke: #000; stroke-width: 1; fill: none;"></circle><circle cx="550" cy="353" r="2" style="stroke: #000; stroke-width: 1; fill: none;"></circle><circle cx="550" cy="273" r="2" style="stroke: #000; stroke-width: 1; fill: none;"></circle><circle cx="350" cy="393" r="2" style="stroke: #000; stroke-width: 1; fill: none;"></circle><circle cx="350" cy="313" r="2" style="stroke: #000; stroke-width: 1; fill: none;"></circle><circle cx="350" cy="233" r="2" style="stroke: #000; stroke-width: 1; fill: none;"></circle><line x1="110" y1="163" x2="90" y2="163" stroke-width="2" stroke="black"></line><line x1="90" y1="173" x2="110" y2="173" stroke-width="2" stroke="black"></line><line x1="80" y1="123" x2="90" y2="123" stroke-width="2" stroke="black"></line><line x1="410" y1="153" x2="400" y2="153" stroke-width="2" stroke="black"></line><line x1="90" y1="193" x2="80" y2="193" stroke-width="2" stroke="black"></line><line x1="90" y1="193" x2="110" y2="193" stroke-width="2" stroke="black"></line><line x1="380" y1="153" x2="350" y2="153" stroke-width="2" stroke="black"></line><line x1="380" y1="473" x2="350" y2="473" stroke-width="2" stroke="black"></line><line x1="120" y1="363" x2="90" y2="363" stroke-width="2" stroke="black"></line><line x1="350" y1="503" x2="350" y2="473" stroke-width="2" stroke="black"></line><line x1="410" y1="233" x2="400" y2="233" stroke-width="2" stroke="black"></line><line x1="380" y1="193" x2="320" y2="193" stroke-width="2" stroke="black"></line><line x1="90" y1="313" x2="120" y2="313" stroke-width="2" stroke="black"></line><line x1="400" y1="393" x2="410" y2="393" stroke-width="2" stroke="black"></line><line x1="550" y1="113" x2="520" y2="113" stroke-width="2" stroke="black"></line><line x1="550" y1="113" x2="550" y2="73" stroke-width="2" stroke="black"></line><line x1="430" y1="353" x2="470" y2="353" stroke-width="2" stroke="black"></line><line x1="430" y1="353" x2="400" y2="353" stroke-width="2" stroke="black"></line><line x1="90" y1="203" x2="80" y2="203" stroke-width="2" stroke="black"></line><line x1="550" y1="193" x2="520" y2="193" stroke-width="2" stroke="black"></line><line x1="550" y1="193" x2="550" y2="113" stroke-width="2" stroke="black"></line><line x1="80" y1="163" x2="90" y2="163" stroke-width="2" stroke="black"></line><line x1="420" y1="153" x2="410" y2="153" stroke-width="2" stroke="black"></line><line x1="90" y1="213" x2="110" y2="213" stroke-width="2" stroke="black"></line><line x1="90" y1="323" x2="120" y2="323" stroke-width="2" stroke="black"></line><line x1="550" y1="353" x2="520" y2="353" stroke-width="2" stroke="black"></line><line x1="550" y1="353" x2="550" y2="433" stroke-width="2" stroke="black"></line><line x1="90" y1="403" x2="120" y2="403" stroke-width="2" stroke="black"></line><line x1="320" y1="353" x2="380" y2="353" stroke-width="2" stroke="black"></line><line x1="90" y1="383" x2="120" y2="383" stroke-width="2" stroke="black"></line><line x1="550" y1="273" x2="520" y2="273" stroke-width="2" stroke="black"></line><line x1="550" y1="273" x2="550" y2="193" stroke-width="2" stroke="black"></line><line x1="550" y1="273" x2="550" y2="353" stroke-width="2" stroke="black"></line><line x1="400" y1="113" x2="470" y2="113" stroke-width="2" stroke="black"></line><line x1="420" y1="233" x2="410" y2="233" stroke-width="2" stroke="black"></line><line x1="410" y1="473" x2="420" y2="473" stroke-width="2" stroke="black"></line><line x1="410" y1="473" x2="400" y2="473" stroke-width="2" stroke="black"></line><line x1="110" y1="203" x2="90" y2="203" stroke-width="2" stroke="black"></line><line x1="350" y1="393" x2="380" y2="393" stroke-width="2" stroke="black"></line><line x1="350" y1="393" x2="350" y2="473" stroke-width="2" stroke="black"></line><line x1="120" y1="413" x2="90" y2="413" stroke-width="2" stroke="black"></line><line x1="120" y1="373" x2="90" y2="373" stroke-width="2" stroke="black"></line><line x1="90" y1="353" x2="120" y2="353" stroke-width="2" stroke="black"></line><line x1="80" y1="173" x2="90" y2="173" stroke-width="2" stroke="black"></line><line x1="90" y1="153" x2="80" y2="153" stroke-width="2" stroke="black"></line><line x1="90" y1="153" x2="110" y2="153" stroke-width="2" stroke="black"></line><line x1="400" y1="273" x2="470" y2="273" stroke-width="2" stroke="black"></line><line x1="110" y1="233" x2="80" y2="233" stroke-width="2" stroke="black"></line><line x1="120" y1="333" x2="90" y2="333" stroke-width="2" stroke="black"></line><line x1="470" y1="193" x2="400" y2="193" stroke-width="2" stroke="black"></line><line x1="90" y1="183" x2="80" y2="183" stroke-width="2" stroke="black"></line><line x1="90" y1="183" x2="110" y2="183" stroke-width="2" stroke="black"></line><line x1="120" y1="343" x2="90" y2="343" stroke-width="2" stroke="black"></line><line x1="90" y1="223" x2="80" y2="223" stroke-width="2" stroke="black"></line><line x1="90" y1="223" x2="110" y2="223" stroke-width="2" stroke="black"></line><line x1="110" y1="133" x2="90" y2="133" stroke-width="2" stroke="black"></line><line x1="350" y1="313" x2="380" y2="313" stroke-width="2" stroke="black"></line><line x1="350" y1="313" x2="350" y2="393" stroke-width="2" stroke="black"></line><line x1="380" y1="433" x2="320" y2="433" stroke-width="2" stroke="black"></line><line x1="400" y1="313" x2="410" y2="313" stroke-width="2" stroke="black"></line><line x1="380" y1="113" x2="320" y2="113" stroke-width="2" stroke="black"></line><line x1="110" y1="123" x2="90" y2="123" stroke-width="2" stroke="black"></line><line x1="80" y1="213" x2="90" y2="213" stroke-width="2" stroke="black"></line><line x1="420" y1="393" x2="410" y2="393" stroke-width="2" stroke="black"></line><line x1="120" y1="303" x2="90" y2="303" stroke-width="2" stroke="black"></line><line x1="80" y1="133" x2="90" y2="133" stroke-width="2" stroke="black"></line><line x1="380" y1="273" x2="320" y2="273" stroke-width="2" stroke="black"></line><line x1="90" y1="393" x2="120" y2="393" stroke-width="2" stroke="black"></line><line x1="90" y1="143" x2="80" y2="143" stroke-width="2" stroke="black"></line><line x1="90" y1="143" x2="110" y2="143" stroke-width="2" stroke="black"></line><line x1="400" y1="433" x2="470" y2="433" stroke-width="2" stroke="black"></line><line x1="420" y1="313" x2="410" y2="313" stroke-width="2" stroke="black"></line><line x1="520" y1="433" x2="550" y2="433" stroke-width="2" stroke="black"></line><line x1="350" y1="233" x2="380" y2="233" stroke-width="2" stroke="black"></line><line x1="350" y1="233" x2="350" y2="313" stroke-width="2" stroke="black"></line><line x1="350" y1="233" x2="350" y2="153" stroke-width="2" stroke="black"></line></svg>