<?xml version='1.0' encoding='UTF-8' standalone='no'?>
<svg xmlns="http://www.w3.org/2000/svg" width="162" height="217" x="0" y="0"><text x="146" y="160" font-size="10" font-family="sans-serif" text-anchor="start" alignment-baseline="middle">4</text><text x="16" y="140" font-size="10" font-family="sans-serif" text-anchor="end" alignment-baseline="middle">1</text><text x="71" y="10" font-size="10" font-family="sans-serif" text-anchor="start" alignment-baseline="hanging">J1</text><text x="16" y="30" font-size="10" font-family="sans-serif" text-anchor="end" alignment-baseline="middle">1</text><text x="51" y="77" font-size="10" font-family="sans-serif" text-anchor="start" alignment-baseline="hanging">SS-6488-NF</text><text x="146" y="30" font-size="10" font-family="sans-serif" text-anchor="start" alignment-baseline="middle">5</text><text x="146" y="180" font-size="10" font-family="sans-serif" text-anchor="start" alignment-baseline="middle">6</text><text x="146" y="140" font-size="10" font-family="sans-serif" text-anchor="start" alignment-baseline="middle">2</text><text x="16" y="60" font-size="10" font-family="sans-serif" text-anchor="end" alignment-baseline="middle">4</text><text x="146" y="40" font-size="10" font-family="sans-serif" text-anchor="start" alignment-baseline="middle">6</text><text x="43" y="197" font-size="10" font-family="sans-serif" text-anchor="start" alignment-baseline="hanging">A-2004-2-4-LP-R</text><text x="16" y="50" font-size="10" font-family="sans-serif" text-anchor="end" alignment-baseline="middle">3</text><text x="16" y="160" font-size="10" font-family="sans-serif" text-anchor="end" alignment-baseline="middle">3</text><text x="16" y="40" font-size="10" font-family="sans-serif" text-anchor="end" alignment-baseline="middle">2</text><text x="16" y="180" font-size="10" font-family="sans-serif" text-anchor="end" alignment-baseline="middle">5</text><text x="71" y="120" font-size="10" font-family="sans-serif" text-anchor="start" alignment-baseline="hanging">J2</text><line x1="126" y1="180" x2="121" y2="180" stroke-width="2" stroke="black"></line><line x1="141" y1="180" x2="136" y2="177" stroke-width="2" stroke="black"></line><line x1="141" y1="180" x2="136" y2="183" stroke-width="2" stroke="black"></line><line x1="136" y1="177" x2="131" y2="177" stroke-width="2" stroke="black"></line><line x1="136" y1="183" x2="131" y2="183" stroke-width="2" stroke="black"></line><line x1="131" y1="177" x2="126" y2="180" stroke-width="2" stroke="black"></line><line x1="131" y1="183" x2="126" y2="180" stroke-width="2" stroke="black"></line><line x1="128" y1="57" x2="134" y2="63" stroke-width="2" stroke="black"></line><line x1="128" y1="63" x2="134" y2="57" stroke-width="2" stroke="black"></line><line x1="36" y1="30" x2="41" y2="30" stroke-width="2" stroke="black"></line><line x1="21" y1="30" x2="26" y2="27" stroke-width="2" stroke="black"></line><line x1="21" y1="30" x2="26" y2="33" stroke-width="2" stroke="black"></line><line x1="26" y1="27" x2="31" y2="27" stroke-width="2" stroke="black"></line><line x1="26" y1="33" x2="31" y2="33" stroke-width="2" stroke="black"></line><line x1="31" y1="27" x2="36" y2="30" stroke-width="2" stroke="black"></line><line x1="31" y1="33" x2="36" y2="30" stroke-width="2" stroke="black"></line><line x1="126" y1="140" x2="121" y2="140" stroke-width="2" stroke="black"></line><line x1="141" y1="140" x2="136" y2="137" stroke-width="2" stroke="black"></line><line x1="141" y1="140" x2="136" y2="143" stroke-width="2" stroke="black"></line><line x1="136" y1="137" x2="131" y2="137" stroke-width="2" stroke="black"></line><line x1="136" y1="143" x2="131" y2="143" stroke-width="2" stroke="black"></line><line x1="131" y1="137" x2="126" y2="140" stroke-width="2" stroke="black"></line><line x1="131" y1="143" x2="126" y2="140" stroke-width="2" stroke="black"></line><line x1="128" y1="47" x2="134" y2="53" stroke-width="2" stroke="black"></line><line x1="128" y1="53" x2="134" y2="47" stroke-width="2" stroke="black"></line><line x1="36" y1="60" x2="41" y2="60" stroke-width="2" stroke="black"></line><line x1="21" y1="60" x2="26" y2="57" stroke-width="2" stroke="black"></line><line x1="21" y1="60" x2="26" y2="63" stroke-width="2" stroke="black"></line><line x1="26" y1="57" x2="31" y2="57" stroke-width="2" stroke="black"></line><line x1="26" y1="63" x2="31" y2="63" stroke-width="2" stroke="black"></line><line x1="31" y1="57" x2="36" y2="60" stroke-width="2" stroke="black"></line><line x1="31" y1="63" x2="36" y2="60" stroke-width="2" stroke="black"></line><line x1="126" y1="30" x2="121" y2="30" stroke-width="2" stroke="black"></line><line x1="141" y1="30" x2="136" y2="27" stroke-width="2" stroke="black"></line><line x1="141" y1="30" x2="136" y2="33" stroke-width="2" stroke="black"></line><line x1="136" y1="27" x2="131" y2="27" stroke-width="2" stroke="black"></line><line x1="136" y1="33" x2="131" y2="33" stroke-width="2" stroke="black"></line><line x1="131" y1="27" x2="126" y2="30" stroke-width="2" stroke="black"></line><line x1="131" y1="33" x2="126" y2="30" stroke-width="2" stroke="black"></line><line x1="36" y1="180" x2="41" y2="180" stroke-width="2" stroke="black"></line><line x1="21" y1="180" x2="26" y2="177" stroke-width="2" stroke="black"></line><line x1="21" y1="180" x2="26" y2="183" stroke-width="2" stroke="black"></line><line x1="26" y1="177" x2="31" y2="177" stroke-width="2" stroke="black"></line><line x1="26" y1="183" x2="31" y2="183" stroke-width="2" stroke="black"></line><line x1="31" y1="177" x2="36" y2="180" stroke-width="2" stroke="black"></line><line x1="31" y1="183" x2="36" y2="180" stroke-width="2" stroke="black"></line><rect width="20" height="50" x="71" y="20" style="stroke: #000; stroke-width: 1; fill: none;"></rect><line x1="61" y1="30" x2="71" y2="30" stroke-width="2" stroke="black"></line><text x="73" y="30" font-size="10" font-family="sans-serif" text-anchor="start" alignment-baseline="middle">1</text><line x1="61" y1="40" x2="71" y2="40" stroke-width="2" stroke="black"></line><text x="73" y="40" font-size="10" font-family="sans-serif" text-anchor="start" alignment-baseline="middle">2</text><line x1="61" y1="50" x2="71" y2="50" stroke-width="2" stroke="black"></line><text x="73" y="50" font-size="10" font-family="sans-serif" text-anchor="start" alignment-baseline="middle">3</text><line x1="61" y1="60" x2="71" y2="60" stroke-width="2" stroke="black"></line><text x="73" y="60" font-size="10" font-family="sans-serif" text-anchor="start" alignment-baseline="middle">4</text><line x1="101" y1="30" x2="91" y2="30" stroke-width="2" stroke="black"></line><text x="89" y="30" font-size="10" font-family="sans-serif" text-anchor="end" alignment-baseline="middle">5</text><line x1="101" y1="40" x2="91" y2="40" stroke-width="2" stroke="black"></line><text x="89" y="40" font-size="10" font-family="sans-serif" text-anchor="end" alignment-baseline="middle">6</text><line x1="101" y1="50" x2="91" y2="50" stroke-width="2" stroke="black"></line><text x="89" y="50" font-size="10" font-family="sans-serif" text-anchor="end" alignment-baseline="middle">7</text><line x1="101" y1="60" x2="91" y2="60" stroke-width="2" stroke="black"></line><text x="89" y="60" font-size="10" font-family="sans-serif" text-anchor="end" alignment-baseline="middle">8</text><rect width="20" height="60" x="71" y="130" style="stroke: #000; stroke-width: 1; fill: none;"></rect><line x1="61" y1="140" x2="71" y2="140" stroke-width="2" stroke="black"></line><text x="73" y="140" font-size="10" font-family="sans-serif" text-anchor="start" alignment-baseline="middle">1</text><line x1="101" y1="140" x2="91" y2="140" stroke-width="2" stroke="black"></line><text x="89" y="140" font-size="10" font-family="sans-serif" text-anchor="end" alignment-baseline="middle">2</text><line x1="61" y1="160" x2="71" y2="160" stroke-width="2" stroke="black"></line><text x="73" y="160" font-size="10" font-family="sans-serif" text-anchor="start" alignment-baseline="middle">3</text><line x1="101" y1="160" x2="91" y2="160" stroke-width="2" stroke="black"></line><text x="89" y="160" font-size="10" font-family="sans-serif" text-anchor="end" alignment-baseline="middle">4</text><line x1="61" y1="180" x2="71" y2="180" stroke-width="2" stroke="black"></line><text x="73" y="180" font-size="10" font-family="sans-serif" text-anchor="start" alignment-baseline="middle">5</text><line x1="101" y1="180" x2="91" y2="180" stroke-width="2" stroke="black"></line><text x="89" y="180" font-size="10" font-family="sans-serif" text-anchor="end" alignment-baseline="middle">6</text><line x1="36" y1="140" x2="41" y2="140" stroke-width="2" stroke="black"></line><line x1="21" y1="140" x2="26" y2="137" stroke-width="2" stroke="black"></line><line x1="21" y1="140" x2="26" y2="143" stroke-width="2" stroke="black"></line><line x1="26" y1="137" x2="31" y2="137" stroke-width="2" stroke="black"></line><line x1="26" y1="143" x2="31" y2="143" stroke-width="2" stroke="black"></line><line x1="31" y1="137" x2="36" y2="140" stroke-width="2" stroke="black"></line><line x1="31" y1="143" x2="36" y2="140" stroke-width="2" stroke="black"></line><line x1="36" y1="50" x2="41" y2="50" stroke-width="2" stroke="black"></line><line x1="21" y1="50" x2="26" y2="47" stroke-width="2" stroke="black"></line><line x1="21" y1="50" x2="26" y2="53" stroke-width="2" stroke="black"></line><line x1="26" y1="47" x2="31" y2="47" stroke-width="2" stroke="black"></line><line x1="26" y1="53" x2="31" y2="53" stroke-width="2" stroke="black"></line><line x1="31" y1="47" x2="36" y2="50" stroke-width="2" stroke="black"></line><line x1="31" y1="53" x2="36" y2="50" stroke-width="2" stroke="black"></line><line x1="126" y1="160" x2="121" y2="160" stroke-width="2" stroke="black"></line><line x1="141" y1="160" x2="136" y2="157" stroke-width="2" stroke="black"></line><line x1="141" y1="160" x2="136" y2="163" stroke-width="2" stroke="black"></line><line x1="136" y1="157" x2="131" y2="157" stroke-width="2" stroke="black"></line><line x1="136" y1="163" x2="131" y2="163" stroke-width="2" stroke="black"></line><line x1="131" y1="157" x2="126" y2="160" stroke-width="2" stroke="black"></line><line x1="131" y1="163" x2="126" y2="160" stroke-width="2" stroke="black"></line><line x1="36" y1="40" x2="41" y2="40" stroke-width="2" stroke="black"></line><line x1="21" y1="40" x2="26" y2="37" stroke-width="2" stroke="black"></line><line x1="21" y1="40" x2="26" y2="43" stroke-width="2" stroke="black"></line><line x1="26" y1="37" x2="31" y2="37" stroke-width="2" stroke="black"></line><line x1="26" y1="43" x2="31" y2="43" stroke-width="2" stroke="black"></line><line x1="31" y1="37" x2="36" y2="40" stroke-width="2" stroke="black"></line><line x1="31" y1="43" x2="36" y2="40" stroke-width="2" stroke="black"></line><line x1="126" y1="40" x2="121" y2="40" stroke-width="2" stroke="black"></line><line x1="141" y1="40" x2="136" y2="37" stroke-width="2" stroke="black"></line><line x1="141" y1="40" x2="136" y2="43" stroke-width="2" stroke="black"></line><line x1="136" y1="37" x2="131" y2="37" stroke-width="2" stroke="black"></line><line x1="136" y1="43" x2="131" y2="43" stroke-width="2" stroke="black"></line><line x1="131" y1="37" x2="126" y2="40" stroke-width="2" stroke="black"></line><line x1="131" y1="43" x2="126" y2="40" stroke-width="2" stroke="black"></line><line x1="36" y1="160" x2="41" y2="160" stroke-width="2" stroke="black"></line><line x1="21" y1="160" x2="26" y2="157" stroke-width="2" stroke="black"></line><line x1="21" y1="160" x2="26" y2="163" stroke-width="2" stroke="black"></line><line x1="26" y1="157" x2="31" y2="157" stroke-width="2" stroke="black"></line><line x1="26" y1="163" x2="31" y2="163" stroke-width="2" stroke="black"></line><line x1="31" y1="157" x2="36" y2="160" stroke-width="2" stroke="black"></line><line x1="31" y1="163" x2="36" y2="160" stroke-width="2" stroke="black"></line><line x1="101" y1="60" x2="131" y2="60" stroke-width="2" stroke="black"></line><line x1="131" y1="50" x2="101" y2="50" stroke-width="2" stroke="black"></line><line x1="41" y1="50" x2="51" y2="50" stroke-width="2" stroke="black"></line><line x1="61" y1="50" x2="51" y2="50" stroke-width="2" stroke="black"></line><line x1="61" y1="30" x2="51" y2="30" stroke-width="2" stroke="black"></line><line x1="61" y1="60" x2="51" y2="60" stroke-width="2" stroke="black"></line><line x1="61" y1="160" x2="41" y2="160" stroke-width="2" stroke="black"></line><line x1="41" y1="40" x2="51" y2="40" stroke-width="2" stroke="black"></line><line x1="101" y1="160" x2="121" y2="160" stroke-width="2" stroke="black"></line><line x1="41" y1="60" x2="51" y2="60" stroke-width="2" stroke="black"></line><line x1="121" y1="180" x2="101" y2="180" stroke-width="2" stroke="black"></line><line x1="61" y1="180" x2="41" y2="180" stroke-width="2" stroke="black"></line><line x1="111" y1="40" x2="121" y2="40" stroke-width="2" stroke="black"></line><line x1="121" y1="140" x2="101" y2="140" stroke-width="2" stroke="black"></line><line x1="121" y1="30" x2="111" y2="30" stroke-width="2" stroke="black"></line><line x1="41" y1="30" x2="51" y2="30" stroke-width="2" stroke="black"></line><line x1="101" y1="40" x2="111" y2="40" stroke-width="2" stroke="black"></line><line x1="61" y1="40" x2="51" y2="40" stroke-width="2" stroke="black"></line><line x1="101" y1="30" x2="111" y2="30" stroke-width="2" stroke="black"></line><line x1="41" y1="140" x2="61" y2="140" stroke-width="2" stroke="black"></line></svg>