<?xml-stylesheet href="https://s3.amazonaws.com/maker.works.boards/css/blackpcb.css" type="text/css"?><svg xmlns="http://www.w3.org/2000/svg" version="1.1" xmlns:xlink="http://www.w3.org/1999/xlink" stroke-width="0" stroke-linecap="round" stroke-linejoin="round" width="1.5748in" height="1.4173in" id="pcb_bottom" viewBox="7.5 7.5 1574.8 1417.3"><defs><circle cx="0" cy="0" r="88.5" id="tool-T10-pad-1000"/><circle cx="0" cy="0" r="17.5" id="tool-T11-pad-1001"/><circle cx="0" cy="0" r="64" id="tool-T12-pad-1002"/><circle cx="0" cy="0" r="17.5" id="tool-T13-pad-1003"/><circle cx="0" cy="0" r="64" id="tool-T14-pad-1004"/><circle cx="0" cy="0" r="17.5" id="tool-T15-pad-1005"/><circle cx="0" cy="0" r="64" id="tool-T16-pad-1006"/><circle cx="0" cy="0" r="29.35" id="tool-D11-pad-1008"/><circle cx="0" cy="0" r="29.35" id="tool-D12-pad-1009"/><g id="tool-D13-pad-1010"><rect x="-26.7715" y="-25" width="53.543" height="50" transform="rotate(360)"/><circle cx="0" cy="25" r="26.7715"/><circle cx="0" cy="25" r="26.7715"/><circle cx="0" cy="-25" r="26.7715"/><circle cx="0" cy="-25" r="26.7715"/></g><circle cx="0" cy="0" r="29.35" id="tool-D14-pad-1011"/><circle cx="0" cy="0" r="29.35" id="tool-D10-pad-1012"/><circle cx="0" cy="0" r="29.35" id="tool-D11-pad-1013"/><g id="tool-D12-pad-1014"><rect x="-26.7715" y="-25" width="53.543" height="50" transform="rotate(360)"/><circle cx="0" cy="25" r="26.7715"/><circle cx="0" cy="25" r="26.7715"/><circle cx="0" cy="-25" r="26.7715"/><circle cx="0" cy="-25" r="26.7715"/></g><circle cx="0" cy="0" r="29.35" id="tool-D13-pad-1015"/><g id="pcb_bottom-cu" fill="currentColor" stroke="currentColor"><path stroke-width="20" fill="none" d="M 454.7 358.2 L 636 358.2"/><use x="454.7" y="458.2" xlink:href="#tool-D11-pad-1008"/><use x="454.7" y="358.2" xlink:href="#tool-D11-pad-1008"/><use x="454.7" y="258.2" xlink:href="#tool-D11-pad-1008"/><use x="454.7" y="158.2" xlink:href="#tool-D11-pad-1008"/><use x="354.7" y="208.2" xlink:href="#tool-D11-pad-1008"/><use x="354.7" y="308.2" xlink:href="#tool-D11-pad-1008"/><use x="354.7" y="408.2" xlink:href="#tool-D11-pad-1008"/><use x="354.7" y="508.2" xlink:href="#tool-D11-pad-1008"/><use x="1135.1" y="208.2" xlink:href="#tool-D12-pad-1009"/><use x="1135.1" y="308.2" xlink:href="#tool-D12-pad-1009"/><use x="1135.1" y="408.2" xlink:href="#tool-D12-pad-1009"/><use x="1135.1" y="508.2" xlink:href="#tool-D12-pad-1009"/><use x="1235.1" y="458.2" xlink:href="#tool-D12-pad-1009"/><use x="1235.1" y="358.2" xlink:href="#tool-D12-pad-1009"/><use x="1235.1" y="258.2" xlink:href="#tool-D12-pad-1009"/><use x="1235.1" y="158.2" xlink:href="#tool-D12-pad-1009"/><use x="639" y="171.1" xlink:href="#tool-D13-pad-1010"/><use x="794.9" y="171.1" xlink:href="#tool-D13-pad-1010"/><use x="950.8" y="171.1" xlink:href="#tool-D13-pad-1010"/><use x="639" y="361.2" xlink:href="#tool-D13-pad-1010"/><use x="794.9" y="361.2" xlink:href="#tool-D13-pad-1010"/><use x="950.8" y="361.2" xlink:href="#tool-D13-pad-1010"/><use x="639" y="551.4" xlink:href="#tool-D13-pad-1010"/><use x="794.9" y="551.4" xlink:href="#tool-D13-pad-1010"/><use x="950.8" y="551.4" xlink:href="#tool-D13-pad-1010"/><use x="639" y="741.6" xlink:href="#tool-D13-pad-1010"/><use x="794.9" y="741.6" xlink:href="#tool-D13-pad-1010"/><use x="950.8" y="741.6" xlink:href="#tool-D13-pad-1010"/><use x="919.7" y="970.5" xlink:href="#tool-D14-pad-1011"/><use x="819.7" y="970.5" xlink:href="#tool-D14-pad-1011"/><use x="719.7" y="970.5" xlink:href="#tool-D14-pad-1011"/><use x="619.7" y="970.5" xlink:href="#tool-D14-pad-1011"/><use x="669.7" y="1070.5" xlink:href="#tool-D14-pad-1011"/><use x="769.7" y="1070.5" xlink:href="#tool-D14-pad-1011"/><use x="869.7" y="1070.5" xlink:href="#tool-D14-pad-1011"/><use x="969.7" y="1070.5" xlink:href="#tool-D14-pad-1011"/></g><mask id="pcb_bottom_mech-mask" fill="#fff" stroke="#fff" fill-rule="evenodd"><path stroke-width="0" d="M 7.5 7.5 Z M 7.5 7.5 L 7.5 991.8 L 401.2 1424.8 L 1188.6 1424.8 L 1582.3 991.8 L 1582.3 7.5 Z"/><g id="pcb_bottom-drl" fill="#000" stroke="#000"><use x="294.1" y="1066.6" xlink:href="#tool-T10-pad-1000"/><use x="1295.3" y="1066.6" xlink:href="#tool-T10-pad-1000"/><use x="454.7" y="458.2" xlink:href="#tool-T11-pad-1001"/><use x="454.7" y="358.2" xlink:href="#tool-T11-pad-1001"/><use x="454.7" y="258.2" xlink:href="#tool-T11-pad-1001"/><use x="454.7" y="158.2" xlink:href="#tool-T11-pad-1001"/><use x="354.7" y="208.2" xlink:href="#tool-T11-pad-1001"/><use x="354.7" y="308.2" xlink:href="#tool-T11-pad-1001"/><use x="354.7" y="408.2" xlink:href="#tool-T11-pad-1001"/><use x="354.7" y="508.2" xlink:href="#tool-T11-pad-1001"/><use x="104.7" y="558.2" xlink:href="#tool-T12-pad-1002"/><use x="104.7" y="108.2" xlink:href="#tool-T12-pad-1002"/><use x="1135.1" y="208.2" xlink:href="#tool-T13-pad-1003"/><use x="1135.1" y="308.2" xlink:href="#tool-T13-pad-1003"/><use x="1135.1" y="408.2" xlink:href="#tool-T13-pad-1003"/><use x="1135.1" y="508.2" xlink:href="#tool-T13-pad-1003"/><use x="1235.1" y="458.2" xlink:href="#tool-T13-pad-1003"/><use x="1235.1" y="358.2" xlink:href="#tool-T13-pad-1003"/><use x="1235.1" y="258.2" xlink:href="#tool-T13-pad-1003"/><use x="1235.1" y="158.2" xlink:href="#tool-T13-pad-1003"/><use x="1485.1" y="108.2" xlink:href="#tool-T14-pad-1004"/><use x="1485.1" y="558.2" xlink:href="#tool-T14-pad-1004"/><use x="919.7" y="970.5" xlink:href="#tool-T15-pad-1005"/><use x="819.7" y="970.5" xlink:href="#tool-T15-pad-1005"/><use x="719.7" y="970.5" xlink:href="#tool-T15-pad-1005"/><use x="619.7" y="970.5" xlink:href="#tool-T15-pad-1005"/><use x="669.7" y="1070.5" xlink:href="#tool-T15-pad-1005"/><use x="769.7" y="1070.5" xlink:href="#tool-T15-pad-1005"/><use x="869.7" y="1070.5" xlink:href="#tool-T15-pad-1005"/><use x="969.7" y="1070.5" xlink:href="#tool-T15-pad-1005"/><use x="1019.7" y="1320.5" xlink:href="#tool-T16-pad-1006"/><use x="569.7" y="1320.5" xlink:href="#tool-T16-pad-1006"/></g></mask></defs><g mask="url(#pcb_bottom_mech-mask)" transform="translate(1589.8,1432.3) scale(-1,-1)"><rect x="7.5" y="7.5" width="1574.8" height="1417.3" fill="currentColor" class="pcb_board-fr4"/><use class="pcb_board-cu" xlink:href="#pcb_bottom-cu"/><g><defs><g id="pcb_bottom-sm" fill="currentColor" stroke="currentColor"><use x="454.7" y="458.2" xlink:href="#tool-D10-pad-1012"/><use x="454.7" y="358.2" xlink:href="#tool-D10-pad-1012"/><use x="454.7" y="258.2" xlink:href="#tool-D10-pad-1012"/><use x="454.7" y="158.2" xlink:href="#tool-D10-pad-1012"/><use x="354.7" y="208.2" xlink:href="#tool-D10-pad-1012"/><use x="354.7" y="308.2" xlink:href="#tool-D10-pad-1012"/><use x="354.7" y="408.2" xlink:href="#tool-D10-pad-1012"/><use x="354.7" y="508.2" xlink:href="#tool-D10-pad-1012"/><use x="1135.1" y="208.2" xlink:href="#tool-D11-pad-1013"/><use x="1135.1" y="308.2" xlink:href="#tool-D11-pad-1013"/><use x="1135.1" y="408.2" xlink:href="#tool-D11-pad-1013"/><use x="1135.1" y="508.2" xlink:href="#tool-D11-pad-1013"/><use x="1235.1" y="458.2" xlink:href="#tool-D11-pad-1013"/><use x="1235.1" y="358.2" xlink:href="#tool-D11-pad-1013"/><use x="1235.1" y="258.2" xlink:href="#tool-D11-pad-1013"/><use x="1235.1" y="158.2" xlink:href="#tool-D11-pad-1013"/><use x="639" y="171.1" xlink:href="#tool-D12-pad-1014"/><use x="794.9" y="171.1" xlink:href="#tool-D12-pad-1014"/><use x="950.8" y="171.1" xlink:href="#tool-D12-pad-1014"/><use x="639" y="361.2" xlink:href="#tool-D12-pad-1014"/><use x="794.9" y="361.2" xlink:href="#tool-D12-pad-1014"/><use x="950.8" y="361.2" xlink:href="#tool-D12-pad-1014"/><use x="639" y="551.4" xlink:href="#tool-D12-pad-1014"/><use x="794.9" y="551.4" xlink:href="#tool-D12-pad-1014"/><use x="950.8" y="551.4" xlink:href="#tool-D12-pad-1014"/><use x="639" y="741.6" xlink:href="#tool-D12-pad-1014"/><use x="794.9" y="741.6" xlink:href="#tool-D12-pad-1014"/><use x="950.8" y="741.6" xlink:href="#tool-D12-pad-1014"/><use x="919.7" y="970.5" xlink:href="#tool-D13-pad-1015"/><use x="819.7" y="970.5" xlink:href="#tool-D13-pad-1015"/><use x="719.7" y="970.5" xlink:href="#tool-D13-pad-1015"/><use x="619.7" y="970.5" xlink:href="#tool-D13-pad-1015"/><use x="669.7" y="1070.5" xlink:href="#tool-D13-pad-1015"/><use x="769.7" y="1070.5" xlink:href="#tool-D13-pad-1015"/><use x="869.7" y="1070.5" xlink:href="#tool-D13-pad-1015"/><use x="969.7" y="1070.5" xlink:href="#tool-D13-pad-1015"/></g><mask id="pcb_bottom-sm_mask" color="#000"><rect x="7.5" y="7.5" width="1574.8" height="1417.3" fill="#fff"/><use xlink:href="#pcb_bottom-sm"/></mask><mask id="pcb_bottom-cu_finish-mask" color="#fff"><use xlink:href="#pcb_bottom-cu"/></mask></defs><g mask="url(#pcb_bottom-sm_mask)"><rect x="7.5" y="7.5" width="1574.8" height="1417.3" fill="currentColor" class="pcb_board-sm"/><g id="pcb_bottom-ss" class="pcb_board-ss" fill="currentColor" stroke="currentColor"></g></g><use class="pcb_board-cf" mask="url(#pcb_bottom-cu_finish-mask)" xlink:href="#pcb_bottom-sm"/></g></g></svg>