<?xml-stylesheet href="https://s3.amazonaws.com/maker.works.boards/css/blackpcb.css" type="text/css"?><svg xmlns="http://www.w3.org/2000/svg" version="1.1" xmlns:xlink="http://www.w3.org/1999/xlink" stroke-width="0" stroke-linecap="round" stroke-linejoin="round" width="1.5748in" height="1.4173in" id="pcb_top" viewBox="7.5 7.5 1574.8 1417.3"><defs><circle cx="0" cy="0" r="88.5" id="tool-T10-pad-1000"/><circle cx="0" cy="0" r="17.5" id="tool-T11-pad-1001"/><circle cx="0" cy="0" r="64" id="tool-T12-pad-1002"/><circle cx="0" cy="0" r="17.5" id="tool-T13-pad-1003"/><circle cx="0" cy="0" r="64" id="tool-T14-pad-1004"/><circle cx="0" cy="0" r="17.5" id="tool-T15-pad-1005"/><circle cx="0" cy="0" r="64" id="tool-T16-pad-1006"/><circle cx="0" cy="0" r="29.35" id="tool-D11-pad-1017"/><circle cx="0" cy="0" r="29.35" id="tool-D12-pad-1018"/><g id="tool-D13-pad-1019"><rect x="-26.7715" y="-25" width="53.543" height="50" transform="rotate(360)"/><circle cx="0" cy="25" r="26.7715"/><circle cx="0" cy="25" r="26.7715"/><circle cx="0" cy="-25" r="26.7715"/><circle cx="0" cy="-25" r="26.7715"/></g><circle cx="0" cy="0" r="29.35" id="tool-D14-pad-1020"/><circle cx="0" cy="0" r="9.85" id="tool-D11-pad-1022"/><circle cx="0" cy="0" r="9.85" id="tool-D12-pad-1023"/><circle cx="0" cy="0" r="9.85" id="tool-D13-pad-1024"/><circle cx="0" cy="0" r="9.85" id="tool-D14-pad-1025"/><circle cx="0" cy="0" r="29.35" id="tool-D10-pad-1026"/><circle cx="0" cy="0" r="29.35" id="tool-D11-pad-1027"/><g id="tool-D12-pad-1028"><rect x="-26.7715" y="-25" width="53.543" height="50" transform="rotate(360)"/><circle cx="0" cy="25" r="26.7715"/><circle cx="0" cy="25" r="26.7715"/><circle cx="0" cy="-25" r="26.7715"/><circle cx="0" cy="-25" r="26.7715"/></g><circle cx="0" cy="0" r="29.35" id="tool-D13-pad-1029"/><g id="pcb_top-cu" fill="currentColor" stroke="currentColor"><path stroke-width="20" fill="none" d="M 1184.7 551.4 L 994.5 741.6 M 769.7 766.8 L 794.9 741.6 M 539 271.1 L 539 386.2 M 994.5 741.6 L 950.8 741.6 M 454.7 258.2 L 401.2 311.8 M 401.2 479.9 L 472.7 551.4 M 889.4 265.6 L 794.9 171.1 M 819.7 970.5 L 819.7 825.6 M 852 418.3 L 794.9 361.2 M 991.9 551.4 L 950.8 551.4 M 1135.1 208.2 L 988 208.2 M 1135.1 308.2 L 1003.8 308.2 M 539 386.2 L 467 458.2 M 1235.1 358.2 L 1184.7 408.6 M 639 171.1 L 539 271.1 M 919.7 970.5 L 919.7 823.6 M 919.7 823.6 L 889.4 793.3 M 346.5 609.9 L 532.3 609.9 M 988 208.2 L 950.8 171.1 M 852 793.3 L 852 418.3 M 719.7 626.6 L 794.9 551.4 M 294.9 368.1 L 294.9 558.2 M 769.7 1070.5 L 769.7 766.8 M 819.7 825.6 L 852 793.3 M 1003.8 308.2 L 950.8 361.2 M 401.2 311.8 L 401.2 479.9 M 294.9 558.2 L 346.5 609.9 M 889.4 793.3 L 889.4 265.6 M 1135.1 408.2 L 991.9 551.4 M 532.3 609.9 L 639 716.6 M 354.7 308.2 L 294.9 368.1 M 472.7 551.4 L 639 551.4 M 719.7 970.5 L 719.7 626.6 M 1184.7 408.6 L 1184.7 551.4"/><use x="454.7" y="458.2" xlink:href="#tool-D11-pad-1017"/><use x="454.7" y="358.2" xlink:href="#tool-D11-pad-1017"/><use x="454.7" y="258.2" xlink:href="#tool-D11-pad-1017"/><use x="454.7" y="158.2" xlink:href="#tool-D11-pad-1017"/><use x="354.7" y="208.2" xlink:href="#tool-D11-pad-1017"/><use x="354.7" y="308.2" xlink:href="#tool-D11-pad-1017"/><use x="354.7" y="408.2" xlink:href="#tool-D11-pad-1017"/><use x="354.7" y="508.2" xlink:href="#tool-D11-pad-1017"/><use x="1135.1" y="208.2" xlink:href="#tool-D12-pad-1018"/><use x="1135.1" y="308.2" xlink:href="#tool-D12-pad-1018"/><use x="1135.1" y="408.2" xlink:href="#tool-D12-pad-1018"/><use x="1135.1" y="508.2" xlink:href="#tool-D12-pad-1018"/><use x="1235.1" y="458.2" xlink:href="#tool-D12-pad-1018"/><use x="1235.1" y="358.2" xlink:href="#tool-D12-pad-1018"/><use x="1235.1" y="258.2" xlink:href="#tool-D12-pad-1018"/><use x="1235.1" y="158.2" xlink:href="#tool-D12-pad-1018"/><use x="639" y="171.1" xlink:href="#tool-D13-pad-1019"/><use x="794.9" y="171.1" xlink:href="#tool-D13-pad-1019"/><use x="950.8" y="171.1" xlink:href="#tool-D13-pad-1019"/><use x="639" y="361.2" xlink:href="#tool-D13-pad-1019"/><use x="794.9" y="361.2" xlink:href="#tool-D13-pad-1019"/><use x="950.8" y="361.2" xlink:href="#tool-D13-pad-1019"/><use x="639" y="551.4" xlink:href="#tool-D13-pad-1019"/><use x="794.9" y="551.4" xlink:href="#tool-D13-pad-1019"/><use x="950.8" y="551.4" xlink:href="#tool-D13-pad-1019"/><use x="639" y="741.6" xlink:href="#tool-D13-pad-1019"/><use x="794.9" y="741.6" xlink:href="#tool-D13-pad-1019"/><use x="950.8" y="741.6" xlink:href="#tool-D13-pad-1019"/><use x="919.7" y="970.5" xlink:href="#tool-D14-pad-1020"/><use x="819.7" y="970.5" xlink:href="#tool-D14-pad-1020"/><use x="719.7" y="970.5" xlink:href="#tool-D14-pad-1020"/><use x="619.7" y="970.5" xlink:href="#tool-D14-pad-1020"/><use x="669.7" y="1070.5" xlink:href="#tool-D14-pad-1020"/><use x="769.7" y="1070.5" xlink:href="#tool-D14-pad-1020"/><use x="869.7" y="1070.5" xlink:href="#tool-D14-pad-1020"/><use x="969.7" y="1070.5" xlink:href="#tool-D14-pad-1020"/></g><mask id="pcb_top_mech-mask" fill="#fff" stroke="#fff" fill-rule="evenodd"><path stroke-width="0" d="M 7.5 7.5 Z M 7.5 7.5 L 7.5 991.8 L 401.2 1424.8 L 1188.6 1424.8 L 1582.3 991.8 L 1582.3 7.5 Z"/><g id="pcb_top-drl" fill="#000" stroke="#000"><use x="294.1" y="1066.6" xlink:href="#tool-T10-pad-1000"/><use x="1295.3" y="1066.6" xlink:href="#tool-T10-pad-1000"/><use x="454.7" y="458.2" xlink:href="#tool-T11-pad-1001"/><use x="454.7" y="358.2" xlink:href="#tool-T11-pad-1001"/><use x="454.7" y="258.2" xlink:href="#tool-T11-pad-1001"/><use x="454.7" y="158.2" xlink:href="#tool-T11-pad-1001"/><use x="354.7" y="208.2" xlink:href="#tool-T11-pad-1001"/><use x="354.7" y="308.2" xlink:href="#tool-T11-pad-1001"/><use x="354.7" y="408.2" xlink:href="#tool-T11-pad-1001"/><use x="354.7" y="508.2" xlink:href="#tool-T11-pad-1001"/><use x="104.7" y="558.2" xlink:href="#tool-T12-pad-1002"/><use x="104.7" y="108.2" xlink:href="#tool-T12-pad-1002"/><use x="1135.1" y="208.2" xlink:href="#tool-T13-pad-1003"/><use x="1135.1" y="308.2" xlink:href="#tool-T13-pad-1003"/><use x="1135.1" y="408.2" xlink:href="#tool-T13-pad-1003"/><use x="1135.1" y="508.2" xlink:href="#tool-T13-pad-1003"/><use x="1235.1" y="458.2" xlink:href="#tool-T13-pad-1003"/><use x="1235.1" y="358.2" xlink:href="#tool-T13-pad-1003"/><use x="1235.1" y="258.2" xlink:href="#tool-T13-pad-1003"/><use x="1235.1" y="158.2" xlink:href="#tool-T13-pad-1003"/><use x="1485.1" y="108.2" xlink:href="#tool-T14-pad-1004"/><use x="1485.1" y="558.2" xlink:href="#tool-T14-pad-1004"/><use x="919.7" y="970.5" xlink:href="#tool-T15-pad-1005"/><use x="819.7" y="970.5" xlink:href="#tool-T15-pad-1005"/><use x="719.7" y="970.5" xlink:href="#tool-T15-pad-1005"/><use x="619.7" y="970.5" xlink:href="#tool-T15-pad-1005"/><use x="669.7" y="1070.5" xlink:href="#tool-T15-pad-1005"/><use x="769.7" y="1070.5" xlink:href="#tool-T15-pad-1005"/><use x="869.7" y="1070.5" xlink:href="#tool-T15-pad-1005"/><use x="969.7" y="1070.5" xlink:href="#tool-T15-pad-1005"/><use x="1019.7" y="1320.5" xlink:href="#tool-T16-pad-1006"/><use x="569.7" y="1320.5" xlink:href="#tool-T16-pad-1006"/></g></mask></defs><g mask="url(#pcb_top_mech-mask)" transform="translate(0,1432.3) scale(1,-1)"><rect x="7.5" y="7.5" width="1574.8" height="1417.3" fill="currentColor" class="pcb_board-fr4"/><use class="pcb_board-cu" xlink:href="#pcb_top-cu"/><g><defs><g id="pcb_top-sm" fill="currentColor" stroke="currentColor"><use x="454.7" y="458.2" xlink:href="#tool-D10-pad-1026"/><use x="454.7" y="358.2" xlink:href="#tool-D10-pad-1026"/><use x="454.7" y="258.2" xlink:href="#tool-D10-pad-1026"/><use x="454.7" y="158.2" xlink:href="#tool-D10-pad-1026"/><use x="354.7" y="208.2" xlink:href="#tool-D10-pad-1026"/><use x="354.7" y="308.2" xlink:href="#tool-D10-pad-1026"/><use x="354.7" y="408.2" xlink:href="#tool-D10-pad-1026"/><use x="354.7" y="508.2" xlink:href="#tool-D10-pad-1026"/><use x="1135.1" y="208.2" xlink:href="#tool-D11-pad-1027"/><use x="1135.1" y="308.2" xlink:href="#tool-D11-pad-1027"/><use x="1135.1" y="408.2" xlink:href="#tool-D11-pad-1027"/><use x="1135.1" y="508.2" xlink:href="#tool-D11-pad-1027"/><use x="1235.1" y="458.2" xlink:href="#tool-D11-pad-1027"/><use x="1235.1" y="358.2" xlink:href="#tool-D11-pad-1027"/><use x="1235.1" y="258.2" xlink:href="#tool-D11-pad-1027"/><use x="1235.1" y="158.2" xlink:href="#tool-D11-pad-1027"/><use x="639" y="171.1" xlink:href="#tool-D12-pad-1028"/><use x="794.9" y="171.1" xlink:href="#tool-D12-pad-1028"/><use x="950.8" y="171.1" xlink:href="#tool-D12-pad-1028"/><use x="639" y="361.2" xlink:href="#tool-D12-pad-1028"/><use x="794.9" y="361.2" xlink:href="#tool-D12-pad-1028"/><use x="950.8" y="361.2" xlink:href="#tool-D12-pad-1028"/><use x="639" y="551.4" xlink:href="#tool-D12-pad-1028"/><use x="794.9" y="551.4" xlink:href="#tool-D12-pad-1028"/><use x="950.8" y="551.4" xlink:href="#tool-D12-pad-1028"/><use x="639" y="741.6" xlink:href="#tool-D12-pad-1028"/><use x="794.9" y="741.6" xlink:href="#tool-D12-pad-1028"/><use x="950.8" y="741.6" xlink:href="#tool-D12-pad-1028"/><use x="919.7" y="970.5" xlink:href="#tool-D13-pad-1029"/><use x="819.7" y="970.5" xlink:href="#tool-D13-pad-1029"/><use x="719.7" y="970.5" xlink:href="#tool-D13-pad-1029"/><use x="619.7" y="970.5" xlink:href="#tool-D13-pad-1029"/><use x="669.7" y="1070.5" xlink:href="#tool-D13-pad-1029"/><use x="769.7" y="1070.5" xlink:href="#tool-D13-pad-1029"/><use x="869.7" y="1070.5" xlink:href="#tool-D13-pad-1029"/><use x="969.7" y="1070.5" xlink:href="#tool-D13-pad-1029"/></g><mask id="pcb_top-sm_mask" color="#000"><rect x="7.5" y="7.5" width="1574.8" height="1417.3" fill="#fff"/><use xlink:href="#pcb_top-sm"/></mask><mask id="pcb_top-cu_finish-mask" color="#fff"><use xlink:href="#pcb_top-cu"/></mask></defs><g mask="url(#pcb_top-sm_mask)"><rect x="7.5" y="7.5" width="1574.8" height="1417.3" fill="currentColor" class="pcb_board-sm"/><g id="pcb_top-ss" class="pcb_board-ss" fill="currentColor" stroke="currentColor"><path stroke-width="5.9" fill="none" d="M 0 643.5 L 517.5 643.5 M 517.5 643.5 L 517.5 23 M 517.5 23 L 0 23 M -308.1 23"/><use x="528.6" y="465.3" xlink:href="#tool-D11-pad-1022"/><path stroke-width="5.9" fill="none" d="M 1589.8 23 L 1072.3 23 M 1072.3 23 L 1072.3 643.5 M 1072.3 643.5 L 1589.8 643.5 M 1897.9 643.5"/><use x="1061.2" y="201.2" xlink:href="#tool-D12-pad-1023"/><path stroke-width="5.9" fill="none" d="M 537 23.4 L 537 889.2 M 537 889.2 L 1052.8 889.2 M 1052.8 889.2 L 1052.8 23.4 M 1052.8 23.4 L 537 23.4"/><use x="527.2" y="168.1" xlink:href="#tool-D13-pad-1024"/><path stroke-width="5.9" fill="none" d="M 1104.9 1432.3 L 1104.9 907.7 M 1104.9 907.7 L 484.4 907.7 M 484.4 907.7 L 484.4 1432.3 M 484.4 1733.3"/><use x="926.8" y="896.7" xlink:href="#tool-D14-pad-1025"/></g></g><use class="pcb_board-cf" mask="url(#pcb_top-cu_finish-mask)" xlink:href="#pcb_top-sm"/></g></g></svg>