<?xml version='1.0' encoding='UTF-8' standalone='no'?>
<svg xmlns="http://www.w3.org/2000/svg" width="438" height="350.5" x="0" y="0"><text x="23" y="176" font-size="10" font-family="sans-serif" text-anchor="end" alignment-baseline="hanging">P3</text><text x="192" y="140" font-size="10" font-family="sans-serif" text-anchor="start" alignment-baseline="hanging">Teensy 2.0</text><text x="23" y="16" font-size="10" font-family="sans-serif" text-anchor="end" alignment-baseline="hanging">P1</text><text x="414" y="23" font-size="10" font-family="sans-serif" text-anchor="start" alignment-baseline="hanging">P4</text><text x="415" y="102" font-size="10" font-family="sans-serif" text-anchor="start" alignment-baseline="hanging">P5</text><text x="290" y="324" font-size="10" font-family="sans-serif" text-anchor="end" alignment-baseline="hanging">U7</text><text x="23" y="96" font-size="10" font-family="sans-serif" text-anchor="end" alignment-baseline="hanging">P2</text><text x="212" y="125" font-size="10" font-family="sans-serif" text-anchor="start" alignment-baseline="hanging">U1</text><text x="414" y="184" font-size="10" font-family="sans-serif" text-anchor="start" alignment-baseline="hanging">P6</text><rect width="29" height="80" x="33" y="170" style="stroke: #000; stroke-width: 1; fill: none;"></rect><line x1="72" y1="180" x2="62" y2="180" stroke-width="2" stroke="black"></line><text x="57" y="180" font-size="10" font-family="sans-serif" text-anchor="end" alignment-baseline="middle">1</text><line x1="72" y1="200" x2="62" y2="200" stroke-width="2" stroke="black"></line><text x="57" y="200" font-size="10" font-family="sans-serif" text-anchor="end" alignment-baseline="middle">2</text><line x1="72" y1="220" x2="62" y2="220" stroke-width="2" stroke="black"></line><text x="57" y="220" font-size="10" font-family="sans-serif" text-anchor="end" alignment-baseline="middle">3</text><line x1="72" y1="240" x2="62" y2="240" stroke-width="2" stroke="black"></line><text x="57" y="240" font-size="10" font-family="sans-serif" text-anchor="end" alignment-baseline="middle">4</text><rect width="20" height="100" x="172" y="220" transform="rotate(90 172,320)" style="stroke: #000; stroke-width: 1; fill: none;"></rect><line x1="182" y1="310" x2="182" y2="320" stroke-width="2" stroke="black"></line><text x="182" y="322" font-size="10" font-family="sans-serif" text-anchor="start" alignment-baseline="middle" transform="rotate(90 182 322)">1</text><line x1="202" y1="310" x2="202" y2="320" stroke-width="2" stroke="black"></line><text x="202" y="322" font-size="10" font-family="sans-serif" text-anchor="start" alignment-baseline="middle" transform="rotate(90 202 322)">2</text><line x1="222" y1="310" x2="222" y2="320" stroke-width="2" stroke="black"></line><text x="222" y="322" font-size="10" font-family="sans-serif" text-anchor="start" alignment-baseline="middle" transform="rotate(90 222 322)">3</text><line x1="242" y1="310" x2="242" y2="320" stroke-width="2" stroke="black"></line><text x="242" y="322" font-size="10" font-family="sans-serif" text-anchor="start" alignment-baseline="middle" transform="rotate(90 242 322)">4</text><line x1="262" y1="310" x2="262" y2="320" stroke-width="2" stroke="black"></line><text x="262" y="322" font-size="10" font-family="sans-serif" text-anchor="start" alignment-baseline="middle" transform="rotate(90 262 322)">5</text><rect width="29" height="80" x="353" y="90" transform="rotate(180 382,90)" style="stroke: #000; stroke-width: 1; fill: none;"></rect><line x1="372" y1="80" x2="382" y2="80" stroke-width="2" stroke="black"></line><text x="387" y="80" font-size="10" font-family="sans-serif" text-anchor="start" alignment-baseline="middle">1</text><line x1="372" y1="60" x2="382" y2="60" stroke-width="2" stroke="black"></line><text x="387" y="60" font-size="10" font-family="sans-serif" text-anchor="start" alignment-baseline="middle">2</text><line x1="372" y1="40" x2="382" y2="40" stroke-width="2" stroke="black"></line><text x="387" y="40" font-size="10" font-family="sans-serif" text-anchor="start" alignment-baseline="middle">3</text><line x1="372" y1="20" x2="382" y2="20" stroke-width="2" stroke="black"></line><text x="387" y="20" font-size="10" font-family="sans-serif" text-anchor="start" alignment-baseline="middle">4</text><line x1="302" y1="20" x2="296" y2="20" stroke-width="2" stroke="black"></line><line x1="302" y1="40" x2="296" y2="40" stroke-width="2" stroke="black"></line><line x1="302" y1="60" x2="296" y2="60" stroke-width="2" stroke="black"></line><line x1="302" y1="80" x2="296" y2="80" stroke-width="2" stroke="black"></line><line x1="302" y1="100" x2="296" y2="100" stroke-width="2" stroke="black"></line><line x1="302" y1="120" x2="296" y2="120" stroke-width="2" stroke="black"></line><line x1="302" y1="140" x2="296" y2="140" stroke-width="2" stroke="black"></line><line x1="302" y1="160" x2="296" y2="160" stroke-width="2" stroke="black"></line><line x1="302" y1="180" x2="296" y2="180" stroke-width="2" stroke="black"></line><line x1="302" y1="200" x2="296" y2="200" stroke-width="2" stroke="black"></line><line x1="302" y1="220" x2="296" y2="220" stroke-width="2" stroke="black"></line><line x1="302" y1="240" x2="296" y2="240" stroke-width="2" stroke="black"></line><line x1="262" y1="260" x2="262" y2="250" stroke-width="2" stroke="black"></line><line x1="242" y1="260" x2="242" y2="250" stroke-width="2" stroke="black"></line><line x1="222" y1="260" x2="222" y2="250" stroke-width="2" stroke="black"></line><line x1="202" y1="260" x2="202" y2="250" stroke-width="2" stroke="black"></line><line x1="182" y1="260" x2="182" y2="250" stroke-width="2" stroke="black"></line><rect width="149" height="235" x="147" y="15" style="stroke: #000; stroke-width: 1; fill: none;"></rect><line x1="142" y1="20" x2="147" y2="20" stroke-width="2" stroke="black"></line><text x="152" y="20" font-size="10" font-family="sans-serif" text-anchor="start" alignment-baseline="middle">GND</text><line x1="142" y1="40" x2="147" y2="40" stroke-width="2" stroke="black"></line><text x="152" y="40" font-size="10" font-family="sans-serif" text-anchor="start" alignment-baseline="middle">PB0</text><line x1="142" y1="60" x2="147" y2="60" stroke-width="2" stroke="black"></line><text x="152" y="60" font-size="10" font-family="sans-serif" text-anchor="start" alignment-baseline="middle">PB1</text><line x1="142" y1="80" x2="147" y2="80" stroke-width="2" stroke="black"></line><text x="152" y="80" font-size="10" font-family="sans-serif" text-anchor="start" alignment-baseline="middle">PB2</text><line x1="142" y1="100" x2="147" y2="100" stroke-width="2" stroke="black"></line><text x="152" y="100" font-size="10" font-family="sans-serif" text-anchor="start" alignment-baseline="middle">PB3</text><line x1="142" y1="120" x2="147" y2="120" stroke-width="2" stroke="black"></line><text x="152" y="120" font-size="10" font-family="sans-serif" text-anchor="start" alignment-baseline="middle">PB7</text><line x1="142" y1="140" x2="147" y2="140" stroke-width="2" stroke="black"></line><text x="152" y="140" font-size="10" font-family="sans-serif" text-anchor="start" alignment-baseline="middle">PD0</text><line x1="142" y1="160" x2="147" y2="160" stroke-width="2" stroke="black"></line><text x="152" y="160" font-size="10" font-family="sans-serif" text-anchor="start" alignment-baseline="middle">PD1</text><line x1="142" y1="180" x2="147" y2="180" stroke-width="2" stroke="black"></line><text x="152" y="180" font-size="10" font-family="sans-serif" text-anchor="start" alignment-baseline="middle">PD2</text><line x1="142" y1="200" x2="147" y2="200" stroke-width="2" stroke="black"></line><text x="152" y="200" font-size="10" font-family="sans-serif" text-anchor="start" alignment-baseline="middle">PD3</text><line x1="142" y1="220" x2="147" y2="220" stroke-width="2" stroke="black"></line><text x="152" y="220" font-size="10" font-family="sans-serif" text-anchor="start" alignment-baseline="middle">PC6</text><line x1="142" y1="240" x2="147" y2="240" stroke-width="2" stroke="black"></line><text x="152" y="240" font-size="10" font-family="sans-serif" text-anchor="start" alignment-baseline="middle">PC7</text><line x1="182" y1="260" x2="182" y2="250" stroke-width="2" stroke="black"></line><text x="182" y="245" font-size="10" font-family="sans-serif" text-anchor="end" alignment-baseline="middle" transform="rotate(90 182 245)">PD5</text><line x1="202" y1="260" x2="202" y2="250" stroke-width="2" stroke="black"></line><text x="202" y="245" font-size="10" font-family="sans-serif" text-anchor="end" alignment-baseline="middle" transform="rotate(90 202 245)">VCC</text><line x1="222" y1="260" x2="222" y2="250" stroke-width="2" stroke="black"></line><text x="222" y="245" font-size="10" font-family="sans-serif" text-anchor="end" alignment-baseline="middle" transform="rotate(90 222 245)">GND</text><line x1="242" y1="260" x2="242" y2="250" stroke-width="2" stroke="black"></line><text x="242" y="245" font-size="10" font-family="sans-serif" text-anchor="end" alignment-baseline="middle" transform="rotate(90 242 245)">RST</text><line x1="262" y1="260" x2="262" y2="250" stroke-width="2" stroke="black"></line><text x="262" y="245" font-size="10" font-family="sans-serif" text-anchor="end" alignment-baseline="middle" transform="rotate(90 262 245)">PD4</text><line x1="302" y1="240" x2="296" y2="240" stroke-width="2" stroke="black"></line><text x="291" y="240" font-size="10" font-family="sans-serif" text-anchor="end" alignment-baseline="middle">PD6</text><line x1="302" y1="220" x2="296" y2="220" stroke-width="2" stroke="black"></line><text x="291" y="220" font-size="10" font-family="sans-serif" text-anchor="end" alignment-baseline="middle">PD7</text><line x1="302" y1="200" x2="296" y2="200" stroke-width="2" stroke="black"></line><text x="291" y="200" font-size="10" font-family="sans-serif" text-anchor="end" alignment-baseline="middle">PB4</text><line x1="302" y1="180" x2="296" y2="180" stroke-width="2" stroke="black"></line><text x="291" y="180" font-size="10" font-family="sans-serif" text-anchor="end" alignment-baseline="middle">PB5</text><line x1="302" y1="160" x2="296" y2="160" stroke-width="2" stroke="black"></line><text x="291" y="160" font-size="10" font-family="sans-serif" text-anchor="end" alignment-baseline="middle">PB6</text><line x1="302" y1="140" x2="296" y2="140" stroke-width="2" stroke="black"></line><text x="291" y="140" font-size="10" font-family="sans-serif" text-anchor="end" alignment-baseline="middle">PF7</text><line x1="302" y1="120" x2="296" y2="120" stroke-width="2" stroke="black"></line><text x="291" y="120" font-size="10" font-family="sans-serif" text-anchor="end" alignment-baseline="middle">PF6</text><line x1="302" y1="100" x2="296" y2="100" stroke-width="2" stroke="black"></line><text x="291" y="100" font-size="10" font-family="sans-serif" text-anchor="end" alignment-baseline="middle">PF5</text><line x1="302" y1="80" x2="296" y2="80" stroke-width="2" stroke="black"></line><text x="291" y="80" font-size="10" font-family="sans-serif" text-anchor="end" alignment-baseline="middle">PF4</text><line x1="302" y1="60" x2="296" y2="60" stroke-width="2" stroke="black"></line><text x="291" y="60" font-size="10" font-family="sans-serif" text-anchor="end" alignment-baseline="middle">PF1</text><line x1="302" y1="40" x2="296" y2="40" stroke-width="2" stroke="black"></line><text x="291" y="40" font-size="10" font-family="sans-serif" text-anchor="end" alignment-baseline="middle">PF0</text><line x1="302" y1="20" x2="296" y2="20" stroke-width="2" stroke="black"></line><text x="291" y="20" font-size="10" font-family="sans-serif" text-anchor="end" alignment-baseline="middle">VCC</text><rect width="29" height="80" x="353" y="250" transform="rotate(180 382,250)" style="stroke: #000; stroke-width: 1; fill: none;"></rect><line x1="372" y1="240" x2="382" y2="240" stroke-width="2" stroke="black"></line><text x="387" y="240" font-size="10" font-family="sans-serif" text-anchor="start" alignment-baseline="middle">1</text><line x1="372" y1="220" x2="382" y2="220" stroke-width="2" stroke="black"></line><text x="387" y="220" font-size="10" font-family="sans-serif" text-anchor="start" alignment-baseline="middle">2</text><line x1="372" y1="200" x2="382" y2="200" stroke-width="2" stroke="black"></line><text x="387" y="200" font-size="10" font-family="sans-serif" text-anchor="start" alignment-baseline="middle">3</text><line x1="372" y1="180" x2="382" y2="180" stroke-width="2" stroke="black"></line><text x="387" y="180" font-size="10" font-family="sans-serif" text-anchor="start" alignment-baseline="middle">4</text><rect width="29" height="80" x="33" y="90" style="stroke: #000; stroke-width: 1; fill: none;"></rect><line x1="72" y1="100" x2="62" y2="100" stroke-width="2" stroke="black"></line><text x="57" y="100" font-size="10" font-family="sans-serif" text-anchor="end" alignment-baseline="middle">1</text><line x1="72" y1="120" x2="62" y2="120" stroke-width="2" stroke="black"></line><text x="57" y="120" font-size="10" font-family="sans-serif" text-anchor="end" alignment-baseline="middle">2</text><line x1="72" y1="140" x2="62" y2="140" stroke-width="2" stroke="black"></line><text x="57" y="140" font-size="10" font-family="sans-serif" text-anchor="end" alignment-baseline="middle">3</text><line x1="72" y1="160" x2="62" y2="160" stroke-width="2" stroke="black"></line><text x="57" y="160" font-size="10" font-family="sans-serif" text-anchor="end" alignment-baseline="middle">4</text><rect width="29" height="80" x="33" y="10" style="stroke: #000; stroke-width: 1; fill: none;"></rect><line x1="72" y1="20" x2="62" y2="20" stroke-width="2" stroke="black"></line><text x="57" y="20" font-size="10" font-family="sans-serif" text-anchor="end" alignment-baseline="middle">1</text><line x1="72" y1="40" x2="62" y2="40" stroke-width="2" stroke="black"></line><text x="57" y="40" font-size="10" font-family="sans-serif" text-anchor="end" alignment-baseline="middle">2</text><line x1="72" y1="60" x2="62" y2="60" stroke-width="2" stroke="black"></line><text x="57" y="60" font-size="10" font-family="sans-serif" text-anchor="end" alignment-baseline="middle">3</text><line x1="72" y1="80" x2="62" y2="80" stroke-width="2" stroke="black"></line><text x="57" y="80" font-size="10" font-family="sans-serif" text-anchor="end" alignment-baseline="middle">4</text><rect width="29" height="80" x="353" y="170" transform="rotate(180 382,170)" style="stroke: #000; stroke-width: 1; fill: none;"></rect><line x1="372" y1="160" x2="382" y2="160" stroke-width="2" stroke="black"></line><text x="387" y="160" font-size="10" font-family="sans-serif" text-anchor="start" alignment-baseline="middle">1</text><line x1="372" y1="140" x2="382" y2="140" stroke-width="2" stroke="black"></line><text x="387" y="140" font-size="10" font-family="sans-serif" text-anchor="start" alignment-baseline="middle">2</text><line x1="372" y1="120" x2="382" y2="120" stroke-width="2" stroke="black"></line><text x="387" y="120" font-size="10" font-family="sans-serif" text-anchor="start" alignment-baseline="middle">3</text><line x1="372" y1="100" x2="382" y2="100" stroke-width="2" stroke="black"></line><text x="387" y="100" font-size="10" font-family="sans-serif" text-anchor="start" alignment-baseline="middle">4</text><line x1="142" y1="40" x2="72" y2="40" stroke-width="2" stroke="black"></line><line x1="372" y1="120" x2="302" y2="120" stroke-width="2" stroke="black"></line><line x1="202" y1="260" x2="202" y2="310" stroke-width="2" stroke="black"></line><line x1="372" y1="240" x2="302" y2="240" stroke-width="2" stroke="black"></line><line x1="372" y1="20" x2="302" y2="20" stroke-width="2" stroke="black"></line><line x1="302" y1="200" x2="372" y2="200" stroke-width="2" stroke="black"></line><line x1="182" y1="310" x2="182" y2="260" stroke-width="2" stroke="black"></line><line x1="302" y1="100" x2="372" y2="100" stroke-width="2" stroke="black"></line><line x1="372" y1="80" x2="302" y2="80" stroke-width="2" stroke="black"></line><line x1="372" y1="60" x2="302" y2="60" stroke-width="2" stroke="black"></line><line x1="302" y1="40" x2="372" y2="40" stroke-width="2" stroke="black"></line><line x1="242" y1="310" x2="242" y2="260" stroke-width="2" stroke="black"></line><line x1="372" y1="180" x2="302" y2="180" stroke-width="2" stroke="black"></line><line x1="302" y1="220" x2="372" y2="220" stroke-width="2" stroke="black"></line><line x1="222" y1="310" x2="222" y2="260" stroke-width="2" stroke="black"></line><line x1="142" y1="160" x2="72" y2="160" stroke-width="2" stroke="black"></line><line x1="142" y1="120" x2="72" y2="120" stroke-width="2" stroke="black"></line><line x1="142" y1="100" x2="72" y2="100" stroke-width="2" stroke="black"></line><line x1="142" y1="140" x2="72" y2="140" stroke-width="2" stroke="black"></line><line x1="142" y1="80" x2="72" y2="80" stroke-width="2" stroke="black"></line><line x1="142" y1="200" x2="72" y2="200" stroke-width="2" stroke="black"></line><line x1="262" y1="310" x2="262" y2="260" stroke-width="2" stroke="black"></line><line x1="142" y1="240" x2="72" y2="240" stroke-width="2" stroke="black"></line><line x1="302" y1="160" x2="372" y2="160" stroke-width="2" stroke="black"></line><line x1="72" y1="20" x2="142" y2="20" stroke-width="2" stroke="black"></line><line x1="72" y1="60" x2="142" y2="60" stroke-width="2" stroke="black"></line><line x1="142" y1="180" x2="72" y2="180" stroke-width="2" stroke="black"></line><line x1="142" y1="220" x2="72" y2="220" stroke-width="2" stroke="black"></line><line x1="302" y1="140" x2="372" y2="140" stroke-width="2" stroke="black"></line></svg>