<?xml version="1.0" encoding="utf-8" ?>
<svg baseProfile="tiny" height="99.786611734" version="1.2" width="324.786606234" xmlns="http://www.w3.org/2000/svg" xmlns:ev="http://www.w3.org/2001/xml-events" xmlns:xlink="http://www.w3.org/1999/xlink"><defs /><g id="paths" stroke="green"><path d="M 4.893306967,85.893304987 L 4.893306967,13.893306747 A 8.99999644365 8.99999644365 0 0,1 13.8933032037 4.893306967 L 310.893299487,4.893306967 A 9.00000249245 9.00000249245 0 0,1 319.893299267 13.893306747 L 319.893299267,85.893304987 A 8.99999644365 8.99999644365 0 0,1 310.893299487 94.893304767 L 13.893306747,94.893304767 A 8.99999039486 8.99999039486 0 0,1 4.893306967 85.8933085303 L 4.893306967,85.893304987 Z" fill-opacity="0" stroke-linejoin="round" stroke-width="1.0" /></g><g fill="red" id="top_parts" stroke="red"><line stroke-linecap="round" stroke-width="0.5" x1="34.3169" x2="34.3169" y1="78.2398" y2="21.5468" /><line stroke-linecap="round" stroke-width="0.5" x1="34.3169" x2="67.2697" y1="21.5468" y2="21.5468" /><line stroke-linecap="round" stroke-width="0.5" x1="67.2697" x2="67.2697" y1="21.5468" y2="78.2398" /><line stroke-linecap="round" stroke-width="0.5" x1="67.2697" x2="34.3169" y1="78.2398" y2="78.2398" /><text font-family="monospace" font-size="2" stroke-width="0.1" text-anchor="middle" x="50.793305845" y="49.893305867">J1</text><line stroke-linecap="round" stroke-width="0.5" x1="288.6697" x2="288.6697" y1="21.5468" y2="78.2398" /><line stroke-linecap="round" stroke-width="0.5" x1="288.6697" x2="255.7169" y1="78.2398" y2="78.2398" /><line stroke-linecap="round" stroke-width="0.5" x1="255.7169" x2="255.7169" y1="78.2398" y2="21.5468" /><line stroke-linecap="round" stroke-width="0.5" x1="255.7169" x2="288.6697" y1="21.5468" y2="21.5468" /><text font-family="monospace" font-size="2" stroke-width="0.1" text-anchor="middle" x="272.193300433" y="49.893305867">J2</text></g><g fill="blue" id="bottom_parts" stroke="blue" /></svg>