<?xml version="1.0" encoding="utf-8" ?>
<svg baseProfile="tiny" height="117.393304547" version="1.2" width="332.436606047" xmlns="http://www.w3.org/2000/svg" xmlns:ev="http://www.w3.org/2001/xml-events" xmlns:xlink="http://www.w3.org/1999/xlink"><defs /><g id="paths" stroke="blue"><path d="M 12.54330678,85.893304987 L 12.54330678,13.893306747 A 8.99999644365 8.99999644365 0 0,1 21.5433030167 4.893306967 L 318.5432993,4.893306967 A 9.00000249245 9.00000249245 0 0,1 327.54329908 13.893306747 L 327.54329908,85.893304987 A 8.99999644365 8.99999644365 0 0,1 318.5432993 94.893304767 L 21.54330656,94.893304767 A 8.99999039486 8.99999039486 0 0,1 12.54330678 85.8933085303 L 12.54330678,85.893304987 Z" fill-opacity="0" stroke-linejoin="round" stroke-width="1.0" /></g><g fill="red" id="holes"><circle cx="58.089" cy="49.8933" r="2.3917" stroke-width="0.0" /><circle cx="58.089" cy="32.1768" r="2.3917" stroke-width="0.0" /><circle cx="58.089" cy="67.6098" r="2.3917" stroke-width="0.0" /><circle cx="133.1433" cy="13.8933" r="2.25" stroke-width="0.0" /><circle cx="133.1433" cy="58.8933" r="2.25" stroke-width="0.0" /><circle cx="205.1433" cy="13.8933" r="2.25" stroke-width="0.0" /><circle cx="205.1433" cy="85.8933" r="2.25" stroke-width="0.0" /><circle cx="205.1433" cy="49.8933" r="2.25" stroke-width="0.0" /><circle cx="133.1433" cy="40.8933" r="2.25" stroke-width="0.0" /><circle cx="280.1976" cy="49.8933" r="2.3917" stroke-width="0.0" /><circle cx="280.1976" cy="67.6098" r="2.3917" stroke-width="0.0" /><circle cx="280.1976" cy="32.1768" r="2.3917" stroke-width="0.0" /><circle cx="314.0433" cy="18.3933" r="5.6693" stroke-width="0.0" /><circle cx="26.0433" cy="18.3933" r="5.6693" stroke-width="0.0" /><circle cx="314.0433" cy="81.3933" r="5.6693" stroke-width="0.0" /><circle cx="26.0433" cy="81.3933" r="5.6693" stroke-width="0.0" /></g><g id="rulers" stroke="black"><line stroke-width="1.0" x1="12.5433" x2="327.5433" y1="103.8933" y2="103.8933" /><text font-family="monospace" font-size="5" stroke-width="0.3" x="170.04330293" y="108.893304547">88.9000mm</text><text font-family="monospace" font-size="5" stroke-width="0.3" x="170.04330293" y="114.893304547">(Δx=88.9000mm)</text><line stroke-width="1.0" x1="3.5433" x2="3.5433" y1="4.8933" y2="94.8933" /><text font-family="monospace" font-size="5" stroke-width="0.3" x="8.543307" y="49.893305867">25.4000mm</text><text font-family="monospace" font-size="5" stroke-width="0.3" x="8.543307" y="55.893305867">(Δy=25.4000mm)</text></g></svg>