<?xml version='1.0' encoding='UTF-8' standalone='no'?>
<svg xmlns="http://www.w3.org/2000/svg" width="508" height="315" x="0" y="0"><text x="178" y="50" font-size="10" font-family="sans-serif" text-anchor="middle" alignment-baseline="middle">+Input</text><text x="358" y="40" font-size="10" font-family="sans-serif" text-anchor="middle" alignment-baseline="middle">+Output</text><text x="158" y="60" font-size="10" font-family="sans-serif" text-anchor="middle" alignment-baseline="middle">-Input</text><text x="358" y="80" font-size="10" font-family="sans-serif" text-anchor="middle" alignment-baseline="middle">-Output</text><text x="138" y="80" font-size="10" font-family="sans-serif" text-anchor="middle" alignment-baseline="middle">Control</text><text x="343" y="60" font-size="10" font-family="sans-serif" text-anchor="middle" alignment-baseline="middle">common-or-na</text><text x="338" y="295" font-size="10" font-family="sans-serif" text-anchor="middle" alignment-baseline="hanging">Chassis GND</text><text x="337" y="114" font-size="10" font-family="sans-serif" text-anchor="start" alignment-baseline="hanging">Screw terminal, 3 pin, 5 mm pitch</text><text x="356" y="235" font-size="10" font-family="sans-serif" text-anchor="start" alignment-baseline="hanging">M4</text><text x="58" y="235" font-size="10" font-family="sans-serif" text-anchor="start" alignment-baseline="hanging">M1</text><text x="158" y="175" font-size="10" font-family="sans-serif" text-anchor="start" alignment-baseline="hanging">Mounting Hole M3</text><text x="171" y="126" font-size="10" font-family="sans-serif" text-anchor="end" alignment-baseline="hanging">Screw terminal, 3 pin, 5 mm pitch</text><text x="158" y="235" font-size="10" font-family="sans-serif" text-anchor="start" alignment-baseline="hanging">M2</text><text x="218" y="95" font-size="10" font-family="sans-serif" text-anchor="start" alignment-baseline="hanging">ASD10H-12S5</text><text x="77" y="20" font-size="10" font-family="sans-serif" text-anchor="end" alignment-baseline="hanging">J1</text><text x="148" y="295" font-size="10" font-family="sans-serif" text-anchor="middle" alignment-baseline="hanging">Chassis GND</text><text x="358" y="175" font-size="10" font-family="sans-serif" text-anchor="start" alignment-baseline="hanging">Mounting Hole M3</text><text x="58" y="175" font-size="10" font-family="sans-serif" text-anchor="start" alignment-baseline="hanging">Mounting Hole M3</text><text x="248" y="295" font-size="10" font-family="sans-serif" text-anchor="middle" alignment-baseline="hanging">Chassis GND</text><text x="258" y="175" font-size="10" font-family="sans-serif" text-anchor="start" alignment-baseline="hanging">Mounting Hole M3</text><text x="389" y="10" font-size="10" font-family="sans-serif" text-anchor="start" alignment-baseline="hanging">J2</text><text x="258" y="235" font-size="10" font-family="sans-serif" text-anchor="start" alignment-baseline="hanging">M3</text><text x="208" y="35" font-size="10" font-family="sans-serif" text-anchor="start" alignment-baseline="hanging">U1</text><text x="438" y="295" font-size="10" font-family="sans-serif" text-anchor="middle" alignment-baseline="hanging">Chassis GND</text><circle cx="188" cy="215" r="20" style="stroke: #000; stroke-width: 1; fill: none;"></circle><line x1="218" y1="215" x2="208" y2="215" stroke-width="2" stroke="black"></line><line x1="438" y1="265" x2="438" y2="275" stroke-width="2" stroke="black"></line><line x1="428" y1="275" x2="448" y2="275" stroke-width="2" stroke="black"></line><line x1="428" y1="275" x2="423" y2="285" stroke-width="2" stroke="black"></line><line x1="438" y1="275" x2="433" y2="285" stroke-width="2" stroke="black"></line><line x1="448" y1="275" x2="443" y2="285" stroke-width="2" stroke="black"></line><line x1="338" y1="265" x2="338" y2="275" stroke-width="2" stroke="black"></line><line x1="328" y1="275" x2="348" y2="275" stroke-width="2" stroke="black"></line><line x1="328" y1="275" x2="323" y2="285" stroke-width="2" stroke="black"></line><line x1="338" y1="275" x2="333" y2="285" stroke-width="2" stroke="black"></line><line x1="348" y1="275" x2="343" y2="285" stroke-width="2" stroke="black"></line><line x1="248" y1="265" x2="248" y2="275" stroke-width="2" stroke="black"></line><line x1="238" y1="275" x2="258" y2="275" stroke-width="2" stroke="black"></line><line x1="238" y1="275" x2="233" y2="285" stroke-width="2" stroke="black"></line><line x1="248" y1="275" x2="243" y2="285" stroke-width="2" stroke="black"></line><line x1="258" y1="275" x2="253" y2="285" stroke-width="2" stroke="black"></line><line x1="148" y1="265" x2="148" y2="275" stroke-width="2" stroke="black"></line><line x1="138" y1="275" x2="158" y2="275" stroke-width="2" stroke="black"></line><line x1="138" y1="275" x2="133" y2="285" stroke-width="2" stroke="black"></line><line x1="148" y1="275" x2="143" y2="285" stroke-width="2" stroke="black"></line><line x1="158" y1="275" x2="153" y2="285" stroke-width="2" stroke="black"></line><circle cx="88" cy="45" r="10" style="stroke: #000; stroke-width: 1; fill: none;"></circle><rect width="40" height="80" x="108" y="105" transform="rotate(180 108,105)" style="stroke: #000; stroke-width: 1; fill: none;"></rect><line x1="78" y1="105" x2="78" y2="25" stroke-width="2" stroke="black"></line><circle cx="88" cy="85" r="10" style="stroke: #000; stroke-width: 1; fill: none;"></circle><circle cx="88" cy="65" r="10" style="stroke: #000; stroke-width: 1; fill: none;"></circle><line x1="118" y1="85" x2="108" y2="85" stroke-width="2" stroke="black"></line><text x="103" y="85" font-size="10" font-family="sans-serif" text-anchor="end" alignment-baseline="middle">1</text><line x1="118" y1="65" x2="108" y2="65" stroke-width="2" stroke="black"></line><text x="103" y="65" font-size="10" font-family="sans-serif" text-anchor="end" alignment-baseline="middle">2</text><line x1="118" y1="45" x2="108" y2="45" stroke-width="2" stroke="black"></line><text x="103" y="45" font-size="10" font-family="sans-serif" text-anchor="end" alignment-baseline="middle">3</text><circle cx="388" cy="215" r="20" style="stroke: #000; stroke-width: 1; fill: none;"></circle><line x1="418" y1="215" x2="408" y2="215" stroke-width="2" stroke="black"></line><circle cx="288" cy="215" r="20" style="stroke: #000; stroke-width: 1; fill: none;"></circle><line x1="318" y1="215" x2="308" y2="215" stroke-width="2" stroke="black"></line><circle cx="408" cy="85" r="10" style="stroke: #000; stroke-width: 1; fill: none;"></circle><rect width="40" height="80" x="388" y="25" style="stroke: #000; stroke-width: 1; fill: none;"></rect><line x1="418" y1="25" x2="418" y2="105" stroke-width="2" stroke="black"></line><circle cx="408" cy="45" r="10" style="stroke: #000; stroke-width: 1; fill: none;"></circle><circle cx="408" cy="65" r="10" style="stroke: #000; stroke-width: 1; fill: none;"></circle><line x1="378" y1="45" x2="388" y2="45" stroke-width="2" stroke="black"></line><text x="393" y="45" font-size="10" font-family="sans-serif" text-anchor="start" alignment-baseline="middle">1</text><line x1="378" y1="65" x2="388" y2="65" stroke-width="2" stroke="black"></line><text x="393" y="65" font-size="10" font-family="sans-serif" text-anchor="start" alignment-baseline="middle">2</text><line x1="378" y1="85" x2="388" y2="85" stroke-width="2" stroke="black"></line><text x="393" y="85" font-size="10" font-family="sans-serif" text-anchor="start" alignment-baseline="middle">3</text><rect width="90" height="40" x="208" y="45" style="stroke: #000; stroke-width: 1; fill: none;"></rect><line x1="198" y1="55" x2="208" y2="55" stroke-width="2" stroke="black"></line><line x1="198" y1="75" x2="208" y2="75" stroke-width="2" stroke="black"></line><line x1="198" y1="65" x2="208" y2="65" stroke-width="2" stroke="black"></line><text x="210" y="65" font-size="10" font-family="sans-serif" text-anchor="start" alignment-baseline="middle">-Input</text><line x1="308" y1="55" x2="298" y2="55" stroke-width="2" stroke="black"></line><line x1="308" y1="65" x2="298" y2="65" stroke-width="2" stroke="black"></line><line x1="308" y1="75" x2="298" y2="75" stroke-width="2" stroke="black"></line><text x="210" y="55" font-size="10" font-family="sans-serif" text-anchor="start" alignment-baseline="middle">+Input</text><text x="296" y="55" font-size="10" font-family="sans-serif" text-anchor="end" alignment-baseline="middle">+Output</text><text x="296" y="75" font-size="10" font-family="sans-serif" text-anchor="end" alignment-baseline="middle">-Output</text><text x="210" y="75" font-size="10" font-family="sans-serif" text-anchor="start" alignment-baseline="middle">Control</text><text x="296" y="65" font-size="10" font-family="sans-serif" text-anchor="end" alignment-baseline="middle">Common</text><circle cx="88" cy="215" r="20" style="stroke: #000; stroke-width: 1; fill: none;"></circle><line x1="118" y1="215" x2="108" y2="215" stroke-width="2" stroke="black"></line><line x1="338" y1="55" x2="308" y2="55" stroke-width="2" stroke="black"></line><line x1="118" y1="215" x2="148" y2="215" stroke-width="2" stroke="black"></line><line x1="158" y1="75" x2="198" y2="75" stroke-width="2" stroke="black"></line><line x1="118" y1="65" x2="198" y2="65" stroke-width="2" stroke="black"></line><line x1="338" y1="215" x2="338" y2="265" stroke-width="2" stroke="black"></line><line x1="158" y1="45" x2="158" y2="55" stroke-width="2" stroke="black"></line><line x1="158" y1="45" x2="118" y2="45" stroke-width="2" stroke="black"></line><line x1="148" y1="265" x2="148" y2="215" stroke-width="2" stroke="black"></line><line x1="378" y1="65" x2="308" y2="65" stroke-width="2" stroke="black"></line><line x1="338" y1="85" x2="338" y2="75" stroke-width="2" stroke="black"></line><line x1="158" y1="85" x2="158" y2="75" stroke-width="2" stroke="black"></line><line x1="308" y1="75" x2="338" y2="75" stroke-width="2" stroke="black"></line><line x1="198" y1="55" x2="158" y2="55" stroke-width="2" stroke="black"></line><line x1="338" y1="45" x2="338" y2="55" stroke-width="2" stroke="black"></line><line x1="338" y1="45" x2="378" y2="45" stroke-width="2" stroke="black"></line><line x1="438" y1="215" x2="418" y2="215" stroke-width="2" stroke="black"></line><line x1="438" y1="215" x2="438" y2="265" stroke-width="2" stroke="black"></line><line x1="118" y1="85" x2="158" y2="85" stroke-width="2" stroke="black"></line><line x1="378" y1="85" x2="338" y2="85" stroke-width="2" stroke="black"></line><line x1="248" y1="215" x2="248" y2="265" stroke-width="2" stroke="black"></line><line x1="248" y1="215" x2="218" y2="215" stroke-width="2" stroke="black"></line><line x1="318" y1="215" x2="338" y2="215" stroke-width="2" stroke="black"></line></svg>