<?xml version="1.0" encoding="utf-8" ?>
<svg baseProfile="tiny" height="190.495270934" version="1.2" width="222.385033934" xmlns="http://www.w3.org/2000/svg" xmlns:ev="http://www.w3.org/2001/xml-events" xmlns:xlink="http://www.w3.org/1999/xlink"><defs /><g id="paths" stroke="green"><path d="M 4.893306967,185.601963967 L 217.491726967,185.601963967 L 217.491726967,4.893306967 L 4.893306967,4.893306967 L 4.893306967,185.601963967 Z" fill-opacity="0" stroke-linejoin="round" stroke-width="1.0" /></g><g fill="red" id="top_parts" stroke="red"><text font-family="monospace" font-size="2" stroke-width="0.1" text-anchor="middle" x="105.877556467" y="174.972042967">J0</text><line stroke-linecap="round" stroke-width="0.5" x1="25.7988" x2="168.2398" y1="139.539" y2="139.539" /><line stroke-linecap="round" stroke-width="0.5" x1="168.2398" x2="168.2398" y1="139.539" y2="153.7122" /><line stroke-linecap="round" stroke-width="0.5" x1="168.2398" x2="25.7988" y1="153.7122" y2="153.7122" /><line stroke-linecap="round" stroke-width="0.5" x1="25.7988" x2="25.7988" y1="153.7122" y2="139.539" /><text font-family="monospace" font-size="2" stroke-width="0.1" text-anchor="middle" x="97.019288967" y="146.625586967">J15</text><line stroke-linecap="round" stroke-width="0.5" x1="196.5862" x2="116.1531" y1="47.413" y2="47.413" /><line stroke-linecap="round" stroke-width="0.5" x1="116.1531" x2="116.1531" y1="47.413" y2="33.2398" /><line stroke-linecap="round" stroke-width="0.5" x1="116.1531" x2="196.5862" y1="33.2398" y2="33.2398" /><line stroke-linecap="round" stroke-width="0.5" x1="196.5862" x2="196.5862" y1="33.2398" y2="47.413" /><text font-family="monospace" font-size="2" stroke-width="0.1" text-anchor="middle" x="156.369681217" y="40.326376967">J8</text><line stroke-linecap="round" stroke-width="0.5" x1="196.5862" x2="125.0114" y1="65.1295" y2="65.1295" /><line stroke-linecap="round" stroke-width="0.5" x1="125.0114" x2="125.0114" y1="65.1295" y2="50.9563" /><line stroke-linecap="round" stroke-width="0.5" x1="125.0114" x2="196.5862" y1="50.9563" y2="50.9563" /><line stroke-linecap="round" stroke-width="0.5" x1="196.5862" x2="196.5862" y1="50.9563" y2="65.1295" /><text font-family="monospace" font-size="2" stroke-width="0.1" text-anchor="middle" x="160.798814967" y="58.042911967">J7</text><line stroke-linecap="round" stroke-width="0.5" x1="196.5862" x2="169.3028" y1="153.7122" y2="153.7122" /><line stroke-linecap="round" stroke-width="0.5" x1="169.3028" x2="169.3028" y1="153.7122" y2="139.539" /><line stroke-linecap="round" stroke-width="0.5" x1="169.3028" x2="196.5862" y1="139.539" y2="139.539" /><line stroke-linecap="round" stroke-width="0.5" x1="196.5862" x2="196.5862" y1="139.539" y2="153.7122" /><text font-family="monospace" font-size="2" stroke-width="0.1" text-anchor="middle" x="182.944483717" y="146.625586967">J2</text><line stroke-linecap="round" stroke-width="0.5" x1="196.5862" x2="160.4445" y1="135.9957" y2="135.9957" /><line stroke-linecap="round" stroke-width="0.5" x1="160.4445" x2="160.4445" y1="135.9957" y2="121.8224" /><line stroke-linecap="round" stroke-width="0.5" x1="160.4445" x2="196.5862" y1="121.8224" y2="121.8224" /><line stroke-linecap="round" stroke-width="0.5" x1="196.5862" x2="196.5862" y1="121.8224" y2="135.9957" /><text font-family="monospace" font-size="2" stroke-width="0.1" text-anchor="middle" x="178.515349967" y="128.909051967">J3</text><line stroke-linecap="round" stroke-width="0.5" x1="25.7988" x2="141.665" y1="86.3894" y2="86.3894" /><line stroke-linecap="round" stroke-width="0.5" x1="141.665" x2="141.665" y1="86.3894" y2="100.5626" /><line stroke-linecap="round" stroke-width="0.5" x1="141.665" x2="25.7988" y1="100.5626" y2="100.5626" /><line stroke-linecap="round" stroke-width="0.5" x1="25.7988" x2="25.7988" y1="100.5626" y2="86.3894" /><text font-family="monospace" font-size="2" stroke-width="0.1" text-anchor="middle" x="83.731887717" y="93.475981967">J12</text><line stroke-linecap="round" stroke-width="0.5" x1="196.5862" x2="133.8697" y1="82.8461" y2="82.8461" /><line stroke-linecap="round" stroke-width="0.5" x1="133.8697" x2="133.8697" y1="82.8461" y2="68.6728" /><line stroke-linecap="round" stroke-width="0.5" x1="133.8697" x2="196.5862" y1="68.6728" y2="68.6728" /><line stroke-linecap="round" stroke-width="0.5" x1="196.5862" x2="196.5862" y1="68.6728" y2="82.8461" /><text font-family="monospace" font-size="2" stroke-width="0.1" text-anchor="middle" x="165.227948717" y="75.759446967">J6</text><line stroke-linecap="round" stroke-width="0.5" x1="26.1531" x2="159.0272" y1="121.8224" y2="121.8224" /><line stroke-linecap="round" stroke-width="0.5" x1="159.0272" x2="159.0272" y1="121.8224" y2="135.9957" /><line stroke-linecap="round" stroke-width="0.5" x1="159.0272" x2="26.1531" y1="135.9957" y2="135.9957" /><line stroke-linecap="round" stroke-width="0.5" x1="26.1531" x2="26.1531" y1="135.9957" y2="121.8224" /><text font-family="monospace" font-size="2" stroke-width="0.1" text-anchor="middle" x="92.590155217" y="128.909051967">J14</text><line stroke-linecap="round" stroke-width="0.5" x1="196.5862" x2="151.5862" y1="118.2791" y2="118.2791" /><line stroke-linecap="round" stroke-width="0.5" x1="151.5862" x2="151.5862" y1="118.2791" y2="104.1059" /><line stroke-linecap="round" stroke-width="0.5" x1="151.5862" x2="196.5862" y1="104.1059" y2="104.1059" /><line stroke-linecap="round" stroke-width="0.5" x1="196.5862" x2="196.5862" y1="104.1059" y2="118.2791" /><text font-family="monospace" font-size="2" stroke-width="0.1" text-anchor="middle" x="174.086216217" y="111.192516967">J4</text><text font-family="monospace" font-size="2" stroke-width="0.1" text-anchor="middle" x="105.877556467" y="164.342121967">J1</text><line stroke-linecap="round" stroke-width="0.5" x1="25.7988" x2="150.5232" y1="104.1059" y2="104.1059" /><line stroke-linecap="round" stroke-width="0.5" x1="150.5232" x2="150.5232" y1="104.1059" y2="118.2791" /><line stroke-linecap="round" stroke-width="0.5" x1="150.5232" x2="25.7988" y1="118.2791" y2="118.2791" /><line stroke-linecap="round" stroke-width="0.5" x1="25.7988" x2="25.7988" y1="118.2791" y2="104.1059" /><text font-family="monospace" font-size="2" stroke-width="0.1" text-anchor="middle" x="88.161021467" y="111.192516967">J13</text><line stroke-linecap="round" stroke-width="0.5" x1="25.7988" x2="115.0902" y1="33.2398" y2="33.2398" /><line stroke-linecap="round" stroke-width="0.5" x1="115.0902" x2="115.0902" y1="33.2398" y2="47.413" /><line stroke-linecap="round" stroke-width="0.5" x1="115.0902" x2="25.7988" y1="47.413" y2="47.413" /><line stroke-linecap="round" stroke-width="0.5" x1="25.7988" x2="25.7988" y1="47.413" y2="33.2398" /><text font-family="monospace" font-size="2" stroke-width="0.1" text-anchor="middle" x="70.444486467" y="40.326376967">J9</text><line stroke-linecap="round" stroke-width="0.5" x1="25.7988" x2="132.8067" y1="68.6728" y2="68.6728" /><line stroke-linecap="round" stroke-width="0.5" x1="132.8067" x2="132.8067" y1="68.6728" y2="82.8461" /><line stroke-linecap="round" stroke-width="0.5" x1="132.8067" x2="25.7988" y1="82.8461" y2="82.8461" /><line stroke-linecap="round" stroke-width="0.5" x1="25.7988" x2="25.7988" y1="82.8461" y2="68.6728" /><text font-family="monospace" font-size="2" stroke-width="0.1" text-anchor="middle" x="79.302753967" y="75.759446967">J11</text><line stroke-linecap="round" stroke-width="0.5" x1="25.7988" x2="123.9484" y1="50.9563" y2="50.9563" /><line stroke-linecap="round" stroke-width="0.5" x1="123.9484" x2="123.9484" y1="50.9563" y2="65.1295" /><line stroke-linecap="round" stroke-width="0.5" x1="123.9484" x2="25.7988" y1="65.1295" y2="65.1295" /><line stroke-linecap="round" stroke-width="0.5" x1="25.7988" x2="25.7988" y1="65.1295" y2="50.9563" /><text font-family="monospace" font-size="2" stroke-width="0.1" text-anchor="middle" x="74.873620217" y="58.042911967">J10</text><line stroke-linecap="round" stroke-width="0.5" x1="196.5862" x2="142.7279" y1="100.5626" y2="100.5626" /><line stroke-linecap="round" stroke-width="0.5" x1="142.7279" x2="142.7279" y1="100.5626" y2="86.3894" /><line stroke-linecap="round" stroke-width="0.5" x1="142.7279" x2="196.5862" y1="86.3894" y2="86.3894" /><line stroke-linecap="round" stroke-width="0.5" x1="196.5862" x2="196.5862" y1="86.3894" y2="100.5626" /><text font-family="monospace" font-size="2" stroke-width="0.1" text-anchor="middle" x="169.657082467" y="93.475981967">J5</text></g><g fill="blue" id="bottom_parts" stroke="blue" /></svg>