<?xml version="1.0" encoding="utf-8" ?>
<svg baseProfile="tiny" height="202.64527451" version="1.2" width="296.035033967" xmlns="http://www.w3.org/2000/svg" xmlns:ev="http://www.w3.org/2001/xml-events" xmlns:xlink="http://www.w3.org/1999/xlink"><defs /><g id="paths" stroke="blue"><path d="M 4.893306967,182.058656967 L 217.491726967,182.058656967 L 217.491726967,4.893306967 L 4.893306967,4.893306967 L 4.893306967,182.058656967 Z" fill-opacity="0" stroke-linejoin="round" stroke-width="1.0" /></g><g fill="red" id="holes"><circle cx="19.0665" cy="167.8854" r="5.6693" stroke-width="0.0" /><circle cx="42.8776" cy="174.972" r="1.9488" stroke-width="0.0" /><circle cx="51.8776" cy="174.972" r="1.9488" stroke-width="0.0" /><circle cx="60.8776" cy="174.972" r="1.9488" stroke-width="0.0" /><circle cx="69.8776" cy="174.972" r="1.9488" stroke-width="0.0" /><circle cx="78.8776" cy="174.972" r="1.9488" stroke-width="0.0" /><circle cx="87.8776" cy="174.972" r="1.9488" stroke-width="0.0" /><circle cx="96.8776" cy="174.972" r="1.9488" stroke-width="0.0" /><circle cx="105.8776" cy="174.972" r="1.9488" stroke-width="0.0" /><circle cx="114.8776" cy="174.972" r="1.9488" stroke-width="0.0" /><circle cx="123.8776" cy="174.972" r="1.9488" stroke-width="0.0" /><circle cx="132.8776" cy="174.972" r="1.9488" stroke-width="0.0" /><circle cx="141.8776" cy="174.972" r="1.9488" stroke-width="0.0" /><circle cx="150.8776" cy="174.972" r="1.9488" stroke-width="0.0" /><circle cx="159.8776" cy="174.972" r="1.9488" stroke-width="0.0" /><circle cx="168.8776" cy="174.972" r="1.9488" stroke-width="0.0" /><circle cx="35.0114" cy="145.5626" r="1.5945" stroke-width="0.0" /><circle cx="43.8697" cy="145.5626" r="1.5945" stroke-width="0.0" /><circle cx="52.728" cy="145.5626" r="1.5945" stroke-width="0.0" /><circle cx="61.5862" cy="145.5626" r="1.5945" stroke-width="0.0" /><circle cx="70.4445" cy="145.5626" r="1.5945" stroke-width="0.0" /><circle cx="79.3028" cy="145.5626" r="1.5945" stroke-width="0.0" /><circle cx="88.161" cy="145.5626" r="1.5945" stroke-width="0.0" /><circle cx="97.0193" cy="145.5626" r="1.5945" stroke-width="0.0" /><circle cx="105.8776" cy="145.5626" r="1.5945" stroke-width="0.0" /><circle cx="114.7358" cy="145.5626" r="1.5945" stroke-width="0.0" /><circle cx="123.5941" cy="145.5626" r="1.5945" stroke-width="0.0" /><circle cx="132.4524" cy="145.5626" r="1.5945" stroke-width="0.0" /><circle cx="141.3106" cy="145.5626" r="1.5945" stroke-width="0.0" /><circle cx="150.1689" cy="145.5626" r="1.5945" stroke-width="0.0" /><circle cx="159.0272" cy="145.5626" r="1.5945" stroke-width="0.0" /><circle cx="187.3736" cy="41.3894" r="1.5945" stroke-width="0.0" /><circle cx="178.5153" cy="41.3894" r="1.5945" stroke-width="0.0" /><circle cx="169.6571" cy="41.3894" r="1.5945" stroke-width="0.0" /><circle cx="160.7988" cy="41.3894" r="1.5945" stroke-width="0.0" /><circle cx="151.9405" cy="41.3894" r="1.5945" stroke-width="0.0" /><circle cx="143.0823" cy="41.3894" r="1.5945" stroke-width="0.0" /><circle cx="134.224" cy="41.3894" r="1.5945" stroke-width="0.0" /><circle cx="125.3657" cy="41.3894" r="1.5945" stroke-width="0.0" /><circle cx="187.3736" cy="59.1059" r="1.5945" stroke-width="0.0" /><circle cx="178.5153" cy="59.1059" r="1.5945" stroke-width="0.0" /><circle cx="169.6571" cy="59.1059" r="1.5945" stroke-width="0.0" /><circle cx="160.7988" cy="59.1059" r="1.5945" stroke-width="0.0" /><circle cx="151.9405" cy="59.1059" r="1.5945" stroke-width="0.0" /><circle cx="143.0823" cy="59.1059" r="1.5945" stroke-width="0.0" /><circle cx="134.224" cy="59.1059" r="1.5945" stroke-width="0.0" /><circle cx="187.3736" cy="147.6886" r="1.5945" stroke-width="0.0" /><circle cx="178.5153" cy="147.6886" r="1.5945" stroke-width="0.0" /><circle cx="187.3736" cy="129.972" r="1.5945" stroke-width="0.0" /><circle cx="178.5153" cy="129.972" r="1.5945" stroke-width="0.0" /><circle cx="169.6571" cy="129.972" r="1.5945" stroke-width="0.0" /><circle cx="35.0114" cy="92.413" r="1.5945" stroke-width="0.0" /><circle cx="43.8697" cy="92.413" r="1.5945" stroke-width="0.0" /><circle cx="52.728" cy="92.413" r="1.5945" stroke-width="0.0" /><circle cx="61.5862" cy="92.413" r="1.5945" stroke-width="0.0" /><circle cx="70.4445" cy="92.413" r="1.5945" stroke-width="0.0" /><circle cx="79.3028" cy="92.413" r="1.5945" stroke-width="0.0" /><circle cx="88.161" cy="92.413" r="1.5945" stroke-width="0.0" /><circle cx="97.0193" cy="92.413" r="1.5945" stroke-width="0.0" /><circle cx="105.8776" cy="92.413" r="1.5945" stroke-width="0.0" /><circle cx="114.7358" cy="92.413" r="1.5945" stroke-width="0.0" /><circle cx="123.5941" cy="92.413" r="1.5945" stroke-width="0.0" /><circle cx="132.4524" cy="92.413" r="1.5945" stroke-width="0.0" /><circle cx="187.3736" cy="76.8224" r="1.5945" stroke-width="0.0" /><circle cx="178.5153" cy="76.8224" r="1.5945" stroke-width="0.0" /><circle cx="169.6571" cy="76.8224" r="1.5945" stroke-width="0.0" /><circle cx="160.7988" cy="76.8224" r="1.5945" stroke-width="0.0" /><circle cx="151.9405" cy="76.8224" r="1.5945" stroke-width="0.0" /><circle cx="143.0823" cy="76.8224" r="1.5945" stroke-width="0.0" /><circle cx="35.0114" cy="127.8461" r="1.5945" stroke-width="0.0" /><circle cx="43.8697" cy="127.8461" r="1.5945" stroke-width="0.0" /><circle cx="52.728" cy="127.8461" r="1.5945" stroke-width="0.0" /><circle cx="61.5862" cy="127.8461" r="1.5945" stroke-width="0.0" /><circle cx="70.4445" cy="127.8461" r="1.5945" stroke-width="0.0" /><circle cx="79.3028" cy="127.8461" r="1.5945" stroke-width="0.0" /><circle cx="88.161" cy="127.8461" r="1.5945" stroke-width="0.0" /><circle cx="97.0193" cy="127.8461" r="1.5945" stroke-width="0.0" /><circle cx="105.8776" cy="127.8461" r="1.5945" stroke-width="0.0" /><circle cx="114.7358" cy="127.8461" r="1.5945" stroke-width="0.0" /><circle cx="123.5941" cy="127.8461" r="1.5945" stroke-width="0.0" /><circle cx="132.4524" cy="127.8461" r="1.5945" stroke-width="0.0" /><circle cx="141.3106" cy="127.8461" r="1.5945" stroke-width="0.0" /><circle cx="150.1689" cy="127.8461" r="1.5945" stroke-width="0.0" /><circle cx="187.3736" cy="112.2555" r="1.5945" stroke-width="0.0" /><circle cx="178.5153" cy="112.2555" r="1.5945" stroke-width="0.0" /><circle cx="169.6571" cy="112.2555" r="1.5945" stroke-width="0.0" /><circle cx="160.7988" cy="112.2555" r="1.5945" stroke-width="0.0" /><circle cx="42.8776" cy="164.3421" r="1.9488" stroke-width="0.0" /><circle cx="51.8776" cy="164.3421" r="1.9488" stroke-width="0.0" /><circle cx="60.8776" cy="164.3421" r="1.9488" stroke-width="0.0" /><circle cx="69.8776" cy="164.3421" r="1.9488" stroke-width="0.0" /><circle cx="78.8776" cy="164.3421" r="1.9488" stroke-width="0.0" /><circle cx="87.8776" cy="164.3421" r="1.9488" stroke-width="0.0" /><circle cx="96.8776" cy="164.3421" r="1.9488" stroke-width="0.0" /><circle cx="105.8776" cy="164.3421" r="1.9488" stroke-width="0.0" /><circle cx="114.8776" cy="164.3421" r="1.9488" stroke-width="0.0" /><circle cx="123.8776" cy="164.3421" r="1.9488" stroke-width="0.0" /><circle cx="132.8776" cy="164.3421" r="1.9488" stroke-width="0.0" /><circle cx="141.8776" cy="164.3421" r="1.9488" stroke-width="0.0" /><circle cx="150.8776" cy="164.3421" r="1.9488" stroke-width="0.0" /><circle cx="159.8776" cy="164.3421" r="1.9488" stroke-width="0.0" /><circle cx="168.8776" cy="164.3421" r="1.9488" stroke-width="0.0" /><circle cx="203.3185" cy="167.8854" r="5.6693" stroke-width="0.0" /><circle cx="35.0114" cy="110.1295" r="1.5945" stroke-width="0.0" /><circle cx="43.8697" cy="110.1295" r="1.5945" stroke-width="0.0" /><circle cx="52.728" cy="110.1295" r="1.5945" stroke-width="0.0" /><circle cx="61.5862" cy="110.1295" r="1.5945" stroke-width="0.0" /><circle cx="70.4445" cy="110.1295" r="1.5945" stroke-width="0.0" /><circle cx="79.3028" cy="110.1295" r="1.5945" stroke-width="0.0" /><circle cx="88.161" cy="110.1295" r="1.5945" stroke-width="0.0" /><circle cx="97.0193" cy="110.1295" r="1.5945" stroke-width="0.0" /><circle cx="105.8776" cy="110.1295" r="1.5945" stroke-width="0.0" /><circle cx="114.7358" cy="110.1295" r="1.5945" stroke-width="0.0" /><circle cx="123.5941" cy="110.1295" r="1.5945" stroke-width="0.0" /><circle cx="132.4524" cy="110.1295" r="1.5945" stroke-width="0.0" /><circle cx="141.3106" cy="110.1295" r="1.5945" stroke-width="0.0" /><circle cx="35.0114" cy="39.2634" r="1.5945" stroke-width="0.0" /><circle cx="43.8697" cy="39.2634" r="1.5945" stroke-width="0.0" /><circle cx="52.728" cy="39.2634" r="1.5945" stroke-width="0.0" /><circle cx="61.5862" cy="39.2634" r="1.5945" stroke-width="0.0" /><circle cx="70.4445" cy="39.2634" r="1.5945" stroke-width="0.0" /><circle cx="79.3028" cy="39.2634" r="1.5945" stroke-width="0.0" /><circle cx="88.161" cy="39.2634" r="1.5945" stroke-width="0.0" /><circle cx="97.0193" cy="39.2634" r="1.5945" stroke-width="0.0" /><circle cx="105.8776" cy="39.2634" r="1.5945" stroke-width="0.0" /><circle cx="19.0665" cy="19.0665" r="5.6693" stroke-width="0.0" /><circle cx="35.0114" cy="74.6965" r="1.5945" stroke-width="0.0" /><circle cx="43.8697" cy="74.6965" r="1.5945" stroke-width="0.0" /><circle cx="52.728" cy="74.6965" r="1.5945" stroke-width="0.0" /><circle cx="61.5862" cy="74.6965" r="1.5945" stroke-width="0.0" /><circle cx="70.4445" cy="74.6965" r="1.5945" stroke-width="0.0" /><circle cx="79.3028" cy="74.6965" r="1.5945" stroke-width="0.0" /><circle cx="88.161" cy="74.6965" r="1.5945" stroke-width="0.0" /><circle cx="97.0193" cy="74.6965" r="1.5945" stroke-width="0.0" /><circle cx="105.8776" cy="74.6965" r="1.5945" stroke-width="0.0" /><circle cx="114.7358" cy="74.6965" r="1.5945" stroke-width="0.0" /><circle cx="123.5941" cy="74.6965" r="1.5945" stroke-width="0.0" /><circle cx="203.3185" cy="19.0665" r="5.6693" stroke-width="0.0" /><circle cx="35.0114" cy="56.9799" r="1.5945" stroke-width="0.0" /><circle cx="43.8697" cy="56.9799" r="1.5945" stroke-width="0.0" /><circle cx="52.728" cy="56.9799" r="1.5945" stroke-width="0.0" /><circle cx="61.5862" cy="56.9799" r="1.5945" stroke-width="0.0" /><circle cx="70.4445" cy="56.9799" r="1.5945" stroke-width="0.0" /><circle cx="79.3028" cy="56.9799" r="1.5945" stroke-width="0.0" /><circle cx="88.161" cy="56.9799" r="1.5945" stroke-width="0.0" /><circle cx="97.0193" cy="56.9799" r="1.5945" stroke-width="0.0" /><circle cx="105.8776" cy="56.9799" r="1.5945" stroke-width="0.0" /><circle cx="114.7358" cy="56.9799" r="1.5945" stroke-width="0.0" /><circle cx="187.3736" cy="94.539" r="1.5945" stroke-width="0.0" /><circle cx="178.5153" cy="94.539" r="1.5945" stroke-width="0.0" /><circle cx="169.6571" cy="94.539" r="1.5945" stroke-width="0.0" /><circle cx="160.7988" cy="94.539" r="1.5945" stroke-width="0.0" /><circle cx="151.9405" cy="94.539" r="1.5945" stroke-width="0.0" /></g><g id="rulers" stroke="black"><line stroke-width="1.0" x1="4.8933" x2="217.4917" y1="189.1453" y2="189.1453" /><text font-family="monospace" font-size="5" stroke-width="0.3" x="111.192517134" y="194.14527451">60.0000mm</text><text font-family="monospace" font-size="5" stroke-width="0.3" x="111.192517134" y="200.14527451">(Δx=60.0000mm, Δy=0.0000mm)</text><line stroke-width="1.0" x1="221.035" x2="221.035" y1="167.8854" y2="19.0665" /><text font-family="monospace" font-size="5" stroke-width="0.3" x="226.035033967" y="93.475981967">42.0000mm</text><text font-family="monospace" font-size="5" stroke-width="0.3" x="226.035033967" y="99.475981967">(Δy=42.0000mm)</text></g></svg>