%FSLAX33Y33*%
%MOMM*%
%AMRect-W2000000-H2000000-RO1.000*
21,1,2.,2.,0.,0.,180*%
%ADD10C,0.0508*%
%ADD11C,2.*%
%ADD12Rect-W2000000-H2000000-RO1.000*%
%ADD13C,3.*%
%ADD14C,6.35*%
D10*
%LNpour fill*%
G01*
X34475Y24475D02*
X34475Y24475D01*
X0525Y24475*
X0525Y17525*
X11098Y17525*
X11170Y18207*
X11170Y18209*
X11389Y18884*
X11390Y18886*
X11745Y19500*
X11746Y19502*
X12221Y20029*
X12223Y20031*
X12797Y20448*
X12799Y20449*
X13447Y20738*
X13449Y20738*
X14143Y20886*
X14145Y20886*
X14855Y20886*
X14857Y20886*
X15551Y20738*
X15553Y20738*
X16201Y20449*
X16203Y20448*
X16777Y20031*
X16779Y20029*
X17254Y19502*
X17255Y19500*
X17610Y18886*
X17611Y18884*
X17830Y18209*
X17830Y18207*
X17902Y17525*
X34475Y17525*
X34475Y24475*
X5383Y18433D02*
X5383Y18433D01*
X5386Y18434*
X5749Y18561*
X5752Y18562*
X6077Y18767*
X6080Y18769*
X6351Y19040*
X6353Y19043*
X6558Y19368*
X6559Y19371*
X6686Y19734*
X6687Y19737*
X6705Y19903*
X6690Y19920*
X6475Y19920*
X6475Y20320*
X6690Y20320*
X6705Y20337*
X6687Y20503*
X6686Y20506*
X6559Y20869*
X6558Y20872*
X6353Y21197*
X6351Y21200*
X6080Y21471*
X6077Y21473*
X5752Y21678*
X5749Y21679*
X5386Y21806*
X5383Y21807*
X5217Y21825*
X5200Y21810*
X5200Y21595*
X4800Y21595*
X4800Y21810*
X4783Y21825*
X4617Y21807*
X4614Y21806*
X4251Y21679*
X4248Y21678*
X3923Y21473*
X3920Y21471*
X3649Y21200*
X3647Y21197*
X3442Y20872*
X3441Y20869*
X3314Y20506*
X3313Y20503*
X3295Y20337*
X3310Y20320*
X3525Y20320*
X3525Y19920*
X3310Y19920*
X3295Y19903*
X3313Y19737*
X3314Y19734*
X3441Y19371*
X3442Y19368*
X3647Y19043*
X3649Y19040*
X3920Y18769*
X3923Y18767*
X4248Y18562*
X4251Y18561*
X4614Y18434*
X4617Y18433*
X4783Y18415*
X4800Y18430*
X4800Y18645*
X5200Y18645*
X5200Y18430*
X5217Y18415*
X5383Y18433*
X23924Y18785D02*
X23924Y18785D01*
X23924Y19025*
X24076Y19025*
X24076Y18785*
X24091Y18770*
X25001Y18770*
X25002Y18770*
X25035Y18773*
X25037Y18773*
X25070Y18781*
X25072Y18782*
X25103Y18795*
X25105Y18796*
X25134Y18814*
X25136Y18815*
X25162Y18837*
X25163Y18838*
X25185Y18864*
X25186Y18866*
X25204Y18895*
X25205Y18897*
X25218Y18928*
X25219Y18930*
X25227Y18963*
X25227Y18965*
X25230Y18999*
X25230Y19000*
X25230Y19909*
X25215Y19924*
X24975Y19924*
X24975Y20076*
X25215Y20076*
X25230Y20091*
X25230Y21000*
X25230Y21001*
X25227Y21035*
X25227Y21037*
X25219Y21070*
X25218Y21072*
X25205Y21103*
X25204Y21105*
X25186Y21134*
X25185Y21136*
X25163Y21162*
X25162Y21163*
X25136Y21185*
X25134Y21186*
X25105Y21204*
X25103Y21205*
X25072Y21218*
X25070Y21219*
X25037Y21227*
X25035Y21227*
X25001Y21230*
X25000Y21230*
X24091Y21230*
X24076Y21215*
X24076Y20975*
X23924Y20975*
X23924Y21215*
X23909Y21230*
X23000Y21230*
X22999Y21230*
X22965Y21227*
X22963Y21227*
X22930Y21219*
X22928Y21218*
X22897Y21205*
X22895Y21204*
X22866Y21186*
X22864Y21185*
X22838Y21163*
X22837Y21162*
X22815Y21136*
X22814Y21134*
X22796Y21105*
X22795Y21103*
X22782Y21072*
X22781Y21070*
X22773Y21037*
X22773Y21035*
X22770Y21002*
X22770Y21001*
X22770Y20091*
X22785Y20076*
X23025Y20076*
X23025Y19924*
X22785Y19924*
X22770Y19909*
X22770Y18999*
X22770Y18998*
X22773Y18965*
X22773Y18963*
X22781Y18930*
X22782Y18928*
X22795Y18897*
X22796Y18895*
X22814Y18866*
X22815Y18864*
X22837Y18838*
X22838Y18837*
X22864Y18815*
X22866Y18814*
X22895Y18796*
X22897Y18795*
X22928Y18782*
X22930Y18781*
X22963Y18773*
X22965Y18773*
X22998Y18770*
X22999Y18770*
X23909Y18770*
X23924Y18785*
X0525Y17550D02*
X11100Y17550D01*
X17900Y17550D02*
X34475Y17550D01*
X0525Y17599D02*
X11106Y17599D01*
X17894Y17599D02*
X34475Y17599D01*
X0525Y17649D02*
X11111Y17649D01*
X17889Y17649D02*
X34475Y17649D01*
X0525Y17698D02*
X11116Y17698D01*
X17884Y17698D02*
X34475Y17698D01*
X0525Y17748D02*
X11121Y17748D01*
X17879Y17748D02*
X34475Y17748D01*
X0525Y17797D02*
X11126Y17797D01*
X17874Y17797D02*
X34475Y17797D01*
X0525Y17847D02*
X11132Y17847D01*
X17868Y17847D02*
X34475Y17847D01*
X0525Y17896D02*
X11137Y17896D01*
X17863Y17896D02*
X34475Y17896D01*
X0525Y17946D02*
X11142Y17946D01*
X17858Y17946D02*
X34475Y17946D01*
X0525Y17995D02*
X11147Y17995D01*
X17853Y17995D02*
X34475Y17995D01*
X0525Y18045D02*
X11153Y18045D01*
X17847Y18045D02*
X34475Y18045D01*
X0525Y18094D02*
X11158Y18094D01*
X17842Y18094D02*
X34475Y18094D01*
X0525Y18144D02*
X11163Y18144D01*
X17837Y18144D02*
X34475Y18144D01*
X0525Y18193D02*
X11168Y18193D01*
X17832Y18193D02*
X34475Y18193D01*
X0525Y18243D02*
X11181Y18243D01*
X17819Y18243D02*
X34475Y18243D01*
X0525Y18292D02*
X11197Y18292D01*
X17803Y18292D02*
X34475Y18292D01*
X0525Y18342D02*
X11213Y18342D01*
X17787Y18342D02*
X34475Y18342D01*
X0525Y18392D02*
X11229Y18392D01*
X17771Y18392D02*
X34475Y18392D01*
X0525Y18441D02*
X4594Y18441D01*
X4800Y18441D02*
X5200Y18441D01*
X5406Y18441D02*
X11245Y18441D01*
X17755Y18441D02*
X34475Y18441D01*
X0525Y18491D02*
X4452Y18491D01*
X4800Y18491D02*
X5200Y18491D01*
X5548Y18491D02*
X11262Y18491D01*
X17738Y18491D02*
X34475Y18491D01*
X0525Y18540D02*
X4311Y18540D01*
X4800Y18540D02*
X5200Y18540D01*
X5689Y18540D02*
X11278Y18540D01*
X17722Y18540D02*
X34475Y18540D01*
X0525Y18590D02*
X4205Y18590D01*
X4800Y18590D02*
X5200Y18590D01*
X5795Y18590D02*
X11294Y18590D01*
X17706Y18590D02*
X34475Y18590D01*
X0525Y18639D02*
X4126Y18639D01*
X4800Y18639D02*
X5200Y18639D01*
X5874Y18639D02*
X11310Y18639D01*
X17690Y18639D02*
X34475Y18639D01*
X0525Y18689D02*
X4047Y18689D01*
X5953Y18689D02*
X11326Y18689D01*
X17674Y18689D02*
X34475Y18689D01*
X0525Y18738D02*
X3968Y18738D01*
X6032Y18738D02*
X11342Y18738D01*
X17658Y18738D02*
X34475Y18738D01*
X0525Y18788D02*
X3901Y18788D01*
X6099Y18788D02*
X11358Y18788D01*
X17642Y18788D02*
X22914Y18788D01*
X23924Y18788D02*
X24076Y18788D01*
X25086Y18788D02*
X34475Y18788D01*
X0525Y18837D02*
X3852Y18837D01*
X6148Y18837D02*
X11374Y18837D01*
X17626Y18837D02*
X22838Y18837D01*
X23924Y18837D02*
X24076Y18837D01*
X25162Y18837D02*
X34475Y18837D01*
X0525Y18887D02*
X3802Y18887D01*
X6198Y18887D02*
X11391Y18887D01*
X17609Y18887D02*
X22801Y18887D01*
X23924Y18887D02*
X24076Y18887D01*
X25199Y18887D02*
X34475Y18887D01*
X0525Y18936D02*
X3753Y18936D01*
X6247Y18936D02*
X11419Y18936D01*
X17581Y18936D02*
X22780Y18936D01*
X23924Y18936D02*
X24076Y18936D01*
X25220Y18936D02*
X34475Y18936D01*
X0525Y18986D02*
X3703Y18986D01*
X6297Y18986D02*
X11448Y18986D01*
X17552Y18986D02*
X22771Y18986D01*
X23924Y18986D02*
X24076Y18986D01*
X25229Y18986D02*
X34475Y18986D01*
X0525Y19035D02*
X3654Y19035D01*
X6346Y19035D02*
X11477Y19035D01*
X17523Y19035D02*
X22770Y19035D01*
X25230Y19035D02*
X34475Y19035D01*
X0525Y19085D02*
X3620Y19085D01*
X6380Y19085D02*
X11505Y19085D01*
X17495Y19085D02*
X22770Y19085D01*
X25230Y19085D02*
X34475Y19085D01*
X0525Y19134D02*
X3589Y19134D01*
X6411Y19134D02*
X11534Y19134D01*
X17466Y19134D02*
X22770Y19134D01*
X25230Y19134D02*
X34475Y19134D01*
X0525Y19184D02*
X3558Y19184D01*
X6442Y19184D02*
X11562Y19184D01*
X17438Y19184D02*
X22770Y19184D01*
X25230Y19184D02*
X34475Y19184D01*
X0525Y19234D02*
X3527Y19234D01*
X6473Y19234D02*
X11591Y19234D01*
X17409Y19234D02*
X22770Y19234D01*
X25230Y19234D02*
X34475Y19234D01*
X0525Y19283D02*
X3496Y19283D01*
X6504Y19283D02*
X11620Y19283D01*
X17380Y19283D02*
X22770Y19283D01*
X25230Y19283D02*
X34475Y19283D01*
X0525Y19333D02*
X3465Y19333D01*
X6535Y19333D02*
X11648Y19333D01*
X17352Y19333D02*
X22770Y19333D01*
X25230Y19333D02*
X34475Y19333D01*
X0525Y19382D02*
X3437Y19382D01*
X6563Y19382D02*
X11677Y19382D01*
X17323Y19382D02*
X22770Y19382D01*
X25230Y19382D02*
X34475Y19382D01*
X0525Y19432D02*
X3420Y19432D01*
X6580Y19432D02*
X11705Y19432D01*
X17295Y19432D02*
X22770Y19432D01*
X25230Y19432D02*
X34475Y19432D01*
X0525Y19481D02*
X3402Y19481D01*
X6598Y19481D02*
X11734Y19481D01*
X17266Y19481D02*
X22770Y19481D01*
X25230Y19481D02*
X34475Y19481D01*
X0525Y19531D02*
X3385Y19531D01*
X6615Y19531D02*
X11772Y19531D01*
X17228Y19531D02*
X22770Y19531D01*
X25230Y19531D02*
X34475Y19531D01*
X0525Y19580D02*
X3368Y19580D01*
X6632Y19580D02*
X11817Y19580D01*
X17183Y19580D02*
X22770Y19580D01*
X25230Y19580D02*
X34475Y19580D01*
X0525Y19630D02*
X3350Y19630D01*
X6650Y19630D02*
X11861Y19630D01*
X17139Y19630D02*
X22770Y19630D01*
X25230Y19630D02*
X34475Y19630D01*
X0525Y19679D02*
X3333Y19679D01*
X6667Y19679D02*
X11906Y19679D01*
X17094Y19679D02*
X22770Y19679D01*
X25230Y19679D02*
X34475Y19679D01*
X0525Y19729D02*
X3316Y19729D01*
X6684Y19729D02*
X11950Y19729D01*
X17050Y19729D02*
X22770Y19729D01*
X25230Y19729D02*
X34475Y19729D01*
X0525Y19778D02*
X3309Y19778D01*
X6691Y19778D02*
X11995Y19778D01*
X17005Y19778D02*
X22770Y19778D01*
X25230Y19778D02*
X34475Y19778D01*
X0525Y19828D02*
X3303Y19828D01*
X6697Y19828D02*
X12040Y19828D01*
X16960Y19828D02*
X22770Y19828D01*
X25230Y19828D02*
X34475Y19828D01*
X0525Y19877D02*
X3298Y19877D01*
X6702Y19877D02*
X12084Y19877D01*
X16916Y19877D02*
X22770Y19877D01*
X25230Y19877D02*
X34475Y19877D01*
X0525Y19927D02*
X3525Y19927D01*
X6475Y19927D02*
X12129Y19927D01*
X16871Y19927D02*
X23025Y19927D01*
X24975Y19927D02*
X34475Y19927D01*
X0525Y19977D02*
X3525Y19977D01*
X6475Y19977D02*
X12173Y19977D01*
X16827Y19977D02*
X23025Y19977D01*
X24975Y19977D02*
X34475Y19977D01*
X0525Y20026D02*
X3525Y20026D01*
X6475Y20026D02*
X12218Y20026D01*
X16782Y20026D02*
X23025Y20026D01*
X24975Y20026D02*
X34475Y20026D01*
X0525Y20076D02*
X3525Y20076D01*
X6475Y20076D02*
X12284Y20076D01*
X16716Y20076D02*
X23025Y20076D01*
X24975Y20076D02*
X34475Y20076D01*
X0525Y20125D02*
X3525Y20125D01*
X6475Y20125D02*
X12352Y20125D01*
X16648Y20125D02*
X22770Y20125D01*
X25230Y20125D02*
X34475Y20125D01*
X0525Y20175D02*
X3525Y20175D01*
X6475Y20175D02*
X12421Y20175D01*
X16579Y20175D02*
X22770Y20175D01*
X25230Y20175D02*
X34475Y20175D01*
X0525Y20224D02*
X3525Y20224D01*
X6475Y20224D02*
X12489Y20224D01*
X16511Y20224D02*
X22770Y20224D01*
X25230Y20224D02*
X34475Y20224D01*
X0525Y20274D02*
X3525Y20274D01*
X6475Y20274D02*
X12557Y20274D01*
X16443Y20274D02*
X22770Y20274D01*
X25230Y20274D02*
X34475Y20274D01*
X0525Y20323D02*
X3307Y20323D01*
X6693Y20323D02*
X12625Y20323D01*
X16375Y20323D02*
X22770Y20323D01*
X25230Y20323D02*
X34475Y20323D01*
X0525Y20373D02*
X3299Y20373D01*
X6701Y20373D02*
X12693Y20373D01*
X16307Y20373D02*
X22770Y20373D01*
X25230Y20373D02*
X34475Y20373D01*
X0525Y20422D02*
X3304Y20422D01*
X6696Y20422D02*
X12761Y20422D01*
X16239Y20422D02*
X22770Y20422D01*
X25230Y20422D02*
X34475Y20422D01*
X0525Y20472D02*
X3310Y20472D01*
X6690Y20472D02*
X12850Y20472D01*
X16150Y20472D02*
X22770Y20472D01*
X25230Y20472D02*
X34475Y20472D01*
X0525Y20521D02*
X3319Y20521D01*
X6681Y20521D02*
X12961Y20521D01*
X16039Y20521D02*
X22770Y20521D01*
X25230Y20521D02*
X34475Y20521D01*
X0525Y20571D02*
X3337Y20571D01*
X6663Y20571D02*
X13072Y20571D01*
X15928Y20571D02*
X22770Y20571D01*
X25230Y20571D02*
X34475Y20571D01*
X0525Y20620D02*
X3354Y20620D01*
X6646Y20620D02*
X13183Y20620D01*
X15817Y20620D02*
X22770Y20620D01*
X25230Y20620D02*
X34475Y20620D01*
X0525Y20670D02*
X3371Y20670D01*
X6629Y20670D02*
X13295Y20670D01*
X15705Y20670D02*
X22770Y20670D01*
X25230Y20670D02*
X34475Y20670D01*
X0525Y20719D02*
X3389Y20719D01*
X6611Y20719D02*
X13406Y20719D01*
X15594Y20719D02*
X22770Y20719D01*
X25230Y20719D02*
X34475Y20719D01*
X0525Y20769D02*
X3406Y20769D01*
X6594Y20769D02*
X13593Y20769D01*
X15407Y20769D02*
X22770Y20769D01*
X25230Y20769D02*
X34475Y20769D01*
X0525Y20819D02*
X3423Y20819D01*
X6577Y20819D02*
X13826Y20819D01*
X15174Y20819D02*
X22770Y20819D01*
X25230Y20819D02*
X34475Y20819D01*
X0525Y20868D02*
X3441Y20868D01*
X6559Y20868D02*
X14059Y20868D01*
X14941Y20868D02*
X22770Y20868D01*
X25230Y20868D02*
X34475Y20868D01*
X0525Y20918D02*
X3471Y20918D01*
X6529Y20918D02*
X22770Y20918D01*
X25230Y20918D02*
X34475Y20918D01*
X0525Y20967D02*
X3502Y20967D01*
X6498Y20967D02*
X22770Y20967D01*
X25230Y20967D02*
X34475Y20967D01*
X0525Y21017D02*
X3533Y21017D01*
X6467Y21017D02*
X22772Y21017D01*
X23924Y21017D02*
X24076Y21017D01*
X25228Y21017D02*
X34475Y21017D01*
X0525Y21066D02*
X3564Y21066D01*
X6436Y21066D02*
X22780Y21066D01*
X23924Y21066D02*
X24076Y21066D01*
X25220Y21066D02*
X34475Y21066D01*
X0525Y21116D02*
X3596Y21116D01*
X6404Y21116D02*
X22802Y21116D01*
X23924Y21116D02*
X24076Y21116D01*
X25198Y21116D02*
X34475Y21116D01*
X0525Y21165D02*
X3627Y21165D01*
X6373Y21165D02*
X22841Y21165D01*
X23924Y21165D02*
X24076Y21165D01*
X25159Y21165D02*
X34475Y21165D01*
X0525Y21215D02*
X3664Y21215D01*
X6336Y21215D02*
X22920Y21215D01*
X23924Y21215D02*
X24076Y21215D01*
X25080Y21215D02*
X34475Y21215D01*
X0525Y21264D02*
X3713Y21264D01*
X6287Y21264D02*
X34475Y21264D01*
X0525Y21314D02*
X3763Y21314D01*
X6237Y21314D02*
X34475Y21314D01*
X0525Y21363D02*
X3812Y21363D01*
X6188Y21363D02*
X34475Y21363D01*
X0525Y21413D02*
X3862Y21413D01*
X6138Y21413D02*
X34475Y21413D01*
X0525Y21462D02*
X3912Y21462D01*
X6088Y21462D02*
X34475Y21462D01*
X0525Y21512D02*
X3984Y21512D01*
X6016Y21512D02*
X34475Y21512D01*
X0525Y21561D02*
X4063Y21561D01*
X5937Y21561D02*
X34475Y21561D01*
X0525Y21611D02*
X4142Y21611D01*
X4800Y21611D02*
X5200Y21611D01*
X5858Y21611D02*
X34475Y21611D01*
X0525Y21661D02*
X4221Y21661D01*
X4800Y21661D02*
X5200Y21661D01*
X5779Y21661D02*
X34475Y21661D01*
X0525Y21710D02*
X4340Y21710D01*
X4800Y21710D02*
X5200Y21710D01*
X5660Y21710D02*
X34475Y21710D01*
X0525Y21760D02*
X4481Y21760D01*
X4800Y21760D02*
X5200Y21760D01*
X5519Y21760D02*
X34475Y21760D01*
X0525Y21809D02*
X4639Y21809D01*
X4800Y21809D02*
X5200Y21809D01*
X5361Y21809D02*
X34475Y21809D01*
X0525Y21859D02*
X34475Y21859D01*
X0525Y21908D02*
X34475Y21908D01*
X0525Y21958D02*
X34475Y21958D01*
X0525Y22007D02*
X34475Y22007D01*
X0525Y22057D02*
X34475Y22057D01*
X0525Y22106D02*
X34475Y22106D01*
X0525Y22156D02*
X34475Y22156D01*
X0525Y22205D02*
X34475Y22205D01*
X0525Y22255D02*
X34475Y22255D01*
X0525Y22304D02*
X34475Y22304D01*
X0525Y22354D02*
X34475Y22354D01*
X0525Y22403D02*
X34475Y22403D01*
X0525Y22453D02*
X34475Y22453D01*
X0525Y22503D02*
X34475Y22503D01*
X0525Y22552D02*
X34475Y22552D01*
X0525Y22602D02*
X34475Y22602D01*
X0525Y22651D02*
X34475Y22651D01*
X0525Y22701D02*
X34475Y22701D01*
X0525Y22750D02*
X34475Y22750D01*
X0525Y22800D02*
X34475Y22800D01*
X0525Y22849D02*
X34475Y22849D01*
X0525Y22899D02*
X34475Y22899D01*
X0525Y22948D02*
X34475Y22948D01*
X0525Y22998D02*
X34475Y22998D01*
X0525Y23047D02*
X34475Y23047D01*
X0525Y23097D02*
X34475Y23097D01*
X0525Y23146D02*
X34475Y23146D01*
X0525Y23196D02*
X34475Y23196D01*
X0525Y23245D02*
X34475Y23245D01*
X0525Y23295D02*
X34475Y23295D01*
X0525Y23345D02*
X34475Y23345D01*
X0525Y23394D02*
X34475Y23394D01*
X0525Y23444D02*
X34475Y23444D01*
X0525Y23493D02*
X34475Y23493D01*
X0525Y23543D02*
X34475Y23543D01*
X0525Y23592D02*
X34475Y23592D01*
X0525Y23642D02*
X34475Y23642D01*
X0525Y23691D02*
X34475Y23691D01*
X0525Y23741D02*
X34475Y23741D01*
X0525Y23790D02*
X34475Y23790D01*
X0525Y23840D02*
X34475Y23840D01*
X0525Y23889D02*
X34475Y23889D01*
X0525Y23939D02*
X34475Y23939D01*
X0525Y23988D02*
X34475Y23988D01*
X0525Y24038D02*
X34475Y24038D01*
X0525Y24087D02*
X34475Y24087D01*
X0525Y24137D02*
X34475Y24137D01*
X0525Y24187D02*
X34475Y24187D01*
X0525Y24236D02*
X34475Y24236D01*
X0525Y24286D02*
X34475Y24286D01*
X0525Y24335D02*
X34475Y24335D01*
X0525Y24385D02*
X34475Y24385D01*
X0525Y24434D02*
X34475Y24434D01*
%LNpour fill*%
X34475Y7475D02*
X34475Y7475D01*
X17902Y7475*
X17830Y6793*
X17830Y6791*
X17611Y6116*
X17610Y6114*
X17255Y5500*
X17254Y5498*
X16779Y4971*
X16777Y4969*
X16203Y4552*
X16201Y4551*
X15553Y4262*
X15551Y4262*
X14857Y4114*
X14855Y4114*
X14145Y4114*
X14143Y4114*
X13449Y4262*
X13447Y4262*
X12799Y4551*
X12797Y4552*
X12223Y4969*
X12221Y4971*
X11746Y5498*
X11745Y5500*
X11390Y6114*
X11389Y6116*
X11170Y6791*
X11170Y6793*
X11098Y7475*
X0525Y7475*
X0525Y0525*
X34475Y0525*
X34475Y7475*
X5383Y3193D02*
X5383Y3193D01*
X5386Y3194*
X5749Y3321*
X5752Y3322*
X6077Y3527*
X6080Y3529*
X6351Y3800*
X6353Y3803*
X6558Y4128*
X6559Y4131*
X6686Y4494*
X6687Y4497*
X6705Y4663*
X6690Y4680*
X6475Y4680*
X6475Y5080*
X6690Y5080*
X6705Y5097*
X6687Y5263*
X6686Y5266*
X6559Y5629*
X6558Y5632*
X6353Y5957*
X6351Y5960*
X6080Y6231*
X6077Y6233*
X5752Y6438*
X5749Y6439*
X5386Y6566*
X5383Y6567*
X5217Y6585*
X5200Y6570*
X5200Y6355*
X4800Y6355*
X4800Y6570*
X4783Y6585*
X4617Y6567*
X4614Y6566*
X4251Y6439*
X4248Y6438*
X3923Y6233*
X3920Y6231*
X3649Y5960*
X3647Y5957*
X3442Y5632*
X3441Y5629*
X3314Y5266*
X3313Y5263*
X3295Y5097*
X3310Y5080*
X3525Y5080*
X3525Y4680*
X3310Y4680*
X3295Y4663*
X3313Y4497*
X3314Y4494*
X3441Y4131*
X3442Y4128*
X3647Y3803*
X3649Y3800*
X3920Y3529*
X3923Y3527*
X4248Y3322*
X4251Y3321*
X4614Y3194*
X4617Y3193*
X4783Y3175*
X4800Y3190*
X4800Y3405*
X5200Y3405*
X5200Y3190*
X5217Y3175*
X5383Y3193*
X24272Y3801D02*
X24272Y3801D01*
X24275Y3802*
X24532Y3892*
X24535Y3893*
X24766Y4038*
X24768Y4040*
X24960Y4232*
X24962Y4234*
X25107Y4465*
X25108Y4468*
X25198Y4725*
X25199Y4728*
X25219Y4907*
X25204Y4924*
X24975Y4924*
X24975Y5076*
X25204Y5076*
X25219Y5093*
X25199Y5272*
X25198Y5275*
X25108Y5532*
X25107Y5535*
X24962Y5766*
X24960Y5768*
X24768Y5960*
X24766Y5962*
X24535Y6107*
X24532Y6108*
X24275Y6198*
X24272Y6199*
X24093Y6219*
X24076Y6204*
X24076Y5967*
X23924Y5967*
X23924Y6204*
X23907Y6219*
X23728Y6199*
X23725Y6198*
X23468Y6108*
X23465Y6107*
X23234Y5962*
X23232Y5960*
X23040Y5768*
X23038Y5766*
X22893Y5535*
X22892Y5532*
X22802Y5275*
X22801Y5272*
X22781Y5093*
X22796Y5076*
X23025Y5076*
X23025Y4924*
X22796Y4924*
X22781Y4907*
X22801Y4728*
X22802Y4725*
X22892Y4468*
X22893Y4465*
X23038Y4234*
X23040Y4232*
X23232Y4040*
X23234Y4038*
X23465Y3893*
X23468Y3892*
X23725Y3802*
X23728Y3801*
X23907Y3781*
X23924Y3796*
X23924Y4033*
X24076Y4033*
X24076Y3796*
X24093Y3781*
X24272Y3801*
X0525Y0550D02*
X34475Y0550D01*
X0525Y0599D02*
X34475Y0599D01*
X0525Y0649D02*
X34475Y0649D01*
X0525Y0698D02*
X34475Y0698D01*
X0525Y0748D02*
X34475Y0748D01*
X0525Y0797D02*
X34475Y0797D01*
X0525Y0847D02*
X34475Y0847D01*
X0525Y0896D02*
X34475Y0896D01*
X0525Y0946D02*
X34475Y0946D01*
X0525Y0995D02*
X34475Y0995D01*
X0525Y1045D02*
X34475Y1045D01*
X0525Y1094D02*
X34475Y1094D01*
X0525Y1144D02*
X34475Y1144D01*
X0525Y1193D02*
X34475Y1193D01*
X0525Y1243D02*
X34475Y1243D01*
X0525Y1292D02*
X34475Y1292D01*
X0525Y1342D02*
X34475Y1342D01*
X0525Y1392D02*
X34475Y1392D01*
X0525Y1441D02*
X34475Y1441D01*
X0525Y1491D02*
X34475Y1491D01*
X0525Y1540D02*
X34475Y1540D01*
X0525Y1590D02*
X34475Y1590D01*
X0525Y1639D02*
X34475Y1639D01*
X0525Y1689D02*
X34475Y1689D01*
X0525Y1738D02*
X34475Y1738D01*
X0525Y1788D02*
X34475Y1788D01*
X0525Y1837D02*
X34475Y1837D01*
X0525Y1887D02*
X34475Y1887D01*
X0525Y1936D02*
X34475Y1936D01*
X0525Y1986D02*
X34475Y1986D01*
X0525Y2035D02*
X34475Y2035D01*
X0525Y2085D02*
X34475Y2085D01*
X0525Y2134D02*
X34475Y2134D01*
X0525Y2184D02*
X34475Y2184D01*
X0525Y2234D02*
X34475Y2234D01*
X0525Y2283D02*
X34475Y2283D01*
X0525Y2333D02*
X34475Y2333D01*
X0525Y2382D02*
X34475Y2382D01*
X0525Y2432D02*
X34475Y2432D01*
X0525Y2481D02*
X34475Y2481D01*
X0525Y2531D02*
X34475Y2531D01*
X0525Y2580D02*
X34475Y2580D01*
X0525Y2630D02*
X34475Y2630D01*
X0525Y2679D02*
X34475Y2679D01*
X0525Y2729D02*
X34475Y2729D01*
X0525Y2778D02*
X34475Y2778D01*
X0525Y2828D02*
X34475Y2828D01*
X0525Y2877D02*
X34475Y2877D01*
X0525Y2927D02*
X34475Y2927D01*
X0525Y2977D02*
X34475Y2977D01*
X0525Y3026D02*
X34475Y3026D01*
X0525Y3076D02*
X34475Y3076D01*
X0525Y3125D02*
X34475Y3125D01*
X0525Y3175D02*
X34475Y3175D01*
X0525Y3224D02*
X4528Y3224D01*
X4800Y3224D02*
X5200Y3224D01*
X5472Y3224D02*
X34475Y3224D01*
X0525Y3274D02*
X4386Y3274D01*
X4800Y3274D02*
X5200Y3274D01*
X5614Y3274D02*
X34475Y3274D01*
X0525Y3323D02*
X4247Y3323D01*
X4800Y3323D02*
X5200Y3323D01*
X5753Y3323D02*
X34475Y3323D01*
X0525Y3373D02*
X4168Y3373D01*
X4800Y3373D02*
X5200Y3373D01*
X5832Y3373D02*
X34475Y3373D01*
X0525Y3422D02*
X4089Y3422D01*
X5911Y3422D02*
X34475Y3422D01*
X0525Y3472D02*
X4010Y3472D01*
X5990Y3472D02*
X34475Y3472D01*
X0525Y3521D02*
X3932Y3521D01*
X6068Y3521D02*
X34475Y3521D01*
X0525Y3571D02*
X3878Y3571D01*
X6122Y3571D02*
X34475Y3571D01*
X0525Y3620D02*
X3829Y3620D01*
X6171Y3620D02*
X34475Y3620D01*
X0525Y3670D02*
X3779Y3670D01*
X6221Y3670D02*
X34475Y3670D01*
X0525Y3719D02*
X3730Y3719D01*
X6270Y3719D02*
X34475Y3719D01*
X0525Y3769D02*
X3680Y3769D01*
X6320Y3769D02*
X34475Y3769D01*
X0525Y3819D02*
X3637Y3819D01*
X6363Y3819D02*
X23677Y3819D01*
X23924Y3819D02*
X24076Y3819D01*
X24323Y3819D02*
X34475Y3819D01*
X0525Y3868D02*
X3606Y3868D01*
X6394Y3868D02*
X23535Y3868D01*
X23924Y3868D02*
X24076Y3868D01*
X24465Y3868D02*
X34475Y3868D01*
X0525Y3918D02*
X3575Y3918D01*
X6425Y3918D02*
X23426Y3918D01*
X23924Y3918D02*
X24076Y3918D01*
X24574Y3918D02*
X34475Y3918D01*
X0525Y3967D02*
X3544Y3967D01*
X6456Y3967D02*
X23347Y3967D01*
X23924Y3967D02*
X24076Y3967D01*
X24653Y3967D02*
X34475Y3967D01*
X0525Y4017D02*
X3512Y4017D01*
X6488Y4017D02*
X23268Y4017D01*
X23924Y4017D02*
X24076Y4017D01*
X24732Y4017D02*
X34475Y4017D01*
X0525Y4066D02*
X3481Y4066D01*
X6519Y4066D02*
X23206Y4066D01*
X24794Y4066D02*
X34475Y4066D01*
X0525Y4116D02*
X3450Y4116D01*
X6550Y4116D02*
X14136Y4116D01*
X14864Y4116D02*
X23156Y4116D01*
X24844Y4116D02*
X34475Y4116D01*
X0525Y4165D02*
X3429Y4165D01*
X6571Y4165D02*
X13903Y4165D01*
X15097Y4165D02*
X23107Y4165D01*
X24893Y4165D02*
X34475Y4165D01*
X0525Y4215D02*
X3412Y4215D01*
X6588Y4215D02*
X13670Y4215D01*
X15330Y4215D02*
X23057Y4215D01*
X24943Y4215D02*
X34475Y4215D01*
X0525Y4264D02*
X3394Y4264D01*
X6606Y4264D02*
X13443Y4264D01*
X15557Y4264D02*
X23019Y4264D01*
X24981Y4264D02*
X34475Y4264D01*
X0525Y4314D02*
X3377Y4314D01*
X6623Y4314D02*
X13331Y4314D01*
X15669Y4314D02*
X22988Y4314D01*
X25012Y4314D02*
X34475Y4314D01*
X0525Y4363D02*
X3360Y4363D01*
X6640Y4363D02*
X13220Y4363D01*
X15780Y4363D02*
X22957Y4363D01*
X25043Y4363D02*
X34475Y4363D01*
X0525Y4413D02*
X3342Y4413D01*
X6658Y4413D02*
X13109Y4413D01*
X15891Y4413D02*
X22926Y4413D01*
X25074Y4413D02*
X34475Y4413D01*
X0525Y4462D02*
X3325Y4462D01*
X6675Y4462D02*
X12998Y4462D01*
X16002Y4462D02*
X22895Y4462D01*
X25105Y4462D02*
X34475Y4462D01*
X0525Y4512D02*
X3312Y4512D01*
X6688Y4512D02*
X12886Y4512D01*
X16114Y4512D02*
X22876Y4512D01*
X25124Y4512D02*
X34475Y4512D01*
X0525Y4561D02*
X3306Y4561D01*
X6694Y4561D02*
X12784Y4561D01*
X16216Y4561D02*
X22859Y4561D01*
X25141Y4561D02*
X34475Y4561D01*
X0525Y4611D02*
X3301Y4611D01*
X6699Y4611D02*
X12716Y4611D01*
X16284Y4611D02*
X22841Y4611D01*
X25159Y4611D02*
X34475Y4611D01*
X0525Y4661D02*
X3295Y4661D01*
X6705Y4661D02*
X12647Y4661D01*
X16353Y4661D02*
X22824Y4661D01*
X25176Y4661D02*
X34475Y4661D01*
X0525Y4710D02*
X3525Y4710D01*
X6475Y4710D02*
X12579Y4710D01*
X16421Y4710D02*
X22807Y4710D01*
X25193Y4710D02*
X34475Y4710D01*
X0525Y4760D02*
X3525Y4760D01*
X6475Y4760D02*
X12511Y4760D01*
X16489Y4760D02*
X22797Y4760D01*
X25203Y4760D02*
X34475Y4760D01*
X0525Y4809D02*
X3525Y4809D01*
X6475Y4809D02*
X12443Y4809D01*
X16557Y4809D02*
X22792Y4809D01*
X25208Y4809D02*
X34475Y4809D01*
X0525Y4859D02*
X3525Y4859D01*
X6475Y4859D02*
X12375Y4859D01*
X16625Y4859D02*
X22786Y4859D01*
X25214Y4859D02*
X34475Y4859D01*
X0525Y4908D02*
X3525Y4908D01*
X6475Y4908D02*
X12307Y4908D01*
X16693Y4908D02*
X22782Y4908D01*
X25218Y4908D02*
X34475Y4908D01*
X0525Y4958D02*
X3525Y4958D01*
X6475Y4958D02*
X12238Y4958D01*
X16762Y4958D02*
X23025Y4958D01*
X24975Y4958D02*
X34475Y4958D01*
X0525Y5007D02*
X3525Y5007D01*
X6475Y5007D02*
X12188Y5007D01*
X16812Y5007D02*
X23025Y5007D01*
X24975Y5007D02*
X34475Y5007D01*
X0525Y5057D02*
X3525Y5057D01*
X6475Y5057D02*
X12143Y5057D01*
X16857Y5057D02*
X23025Y5057D01*
X24975Y5057D02*
X34475Y5057D01*
X0525Y5106D02*
X3296Y5106D01*
X6704Y5106D02*
X12099Y5106D01*
X16901Y5106D02*
X22782Y5106D01*
X25218Y5106D02*
X34475Y5106D01*
X0525Y5156D02*
X3301Y5156D01*
X6699Y5156D02*
X12054Y5156D01*
X16946Y5156D02*
X22788Y5156D01*
X25212Y5156D02*
X34475Y5156D01*
X0525Y5205D02*
X3307Y5205D01*
X6693Y5205D02*
X12010Y5205D01*
X16990Y5205D02*
X22793Y5205D01*
X25207Y5205D02*
X34475Y5205D01*
X0525Y5255D02*
X3312Y5255D01*
X6688Y5255D02*
X11965Y5255D01*
X17035Y5255D02*
X22799Y5255D01*
X25201Y5255D02*
X34475Y5255D01*
X0525Y5304D02*
X3327Y5304D01*
X6673Y5304D02*
X11920Y5304D01*
X17080Y5304D02*
X22812Y5304D01*
X25188Y5304D02*
X34475Y5304D01*
X0525Y5354D02*
X3345Y5354D01*
X6655Y5354D02*
X11876Y5354D01*
X17124Y5354D02*
X22829Y5354D01*
X25171Y5354D02*
X34475Y5354D01*
X0525Y5403D02*
X3362Y5403D01*
X6638Y5403D02*
X11831Y5403D01*
X17169Y5403D02*
X22846Y5403D01*
X25154Y5403D02*
X34475Y5403D01*
X0525Y5453D02*
X3379Y5453D01*
X6621Y5453D02*
X11787Y5453D01*
X17213Y5453D02*
X22864Y5453D01*
X25136Y5453D02*
X34475Y5453D01*
X0525Y5503D02*
X3397Y5503D01*
X6603Y5503D02*
X11743Y5503D01*
X17257Y5503D02*
X22881Y5503D01*
X25119Y5503D02*
X34475Y5503D01*
X0525Y5552D02*
X3414Y5552D01*
X6586Y5552D02*
X11715Y5552D01*
X17285Y5552D02*
X22904Y5552D01*
X25096Y5552D02*
X34475Y5552D01*
X0525Y5602D02*
X3431Y5602D01*
X6569Y5602D02*
X11686Y5602D01*
X17314Y5602D02*
X22935Y5602D01*
X25065Y5602D02*
X34475Y5602D01*
X0525Y5651D02*
X3454Y5651D01*
X6546Y5651D02*
X11658Y5651D01*
X17342Y5651D02*
X22966Y5651D01*
X25034Y5651D02*
X34475Y5651D01*
X0525Y5701D02*
X3486Y5701D01*
X6514Y5701D02*
X11629Y5701D01*
X17371Y5701D02*
X22997Y5701D01*
X25003Y5701D02*
X34475Y5701D01*
X0525Y5750D02*
X3517Y5750D01*
X6483Y5750D02*
X11600Y5750D01*
X17400Y5750D02*
X23028Y5750D01*
X24972Y5750D02*
X34475Y5750D01*
X0525Y5800D02*
X3548Y5800D01*
X6452Y5800D02*
X11572Y5800D01*
X17428Y5800D02*
X23072Y5800D01*
X24928Y5800D02*
X34475Y5800D01*
X0525Y5849D02*
X3579Y5849D01*
X6421Y5849D02*
X11543Y5849D01*
X17457Y5849D02*
X23121Y5849D01*
X24879Y5849D02*
X34475Y5849D01*
X0525Y5899D02*
X3610Y5899D01*
X6390Y5899D02*
X11515Y5899D01*
X17485Y5899D02*
X23171Y5899D01*
X24829Y5899D02*
X34475Y5899D01*
X0525Y5948D02*
X3641Y5948D01*
X6359Y5948D02*
X11486Y5948D01*
X17514Y5948D02*
X23220Y5948D01*
X24780Y5948D02*
X34475Y5948D01*
X0525Y5998D02*
X3687Y5998D01*
X6313Y5998D02*
X11457Y5998D01*
X17543Y5998D02*
X23291Y5998D01*
X23924Y5998D02*
X24076Y5998D01*
X24709Y5998D02*
X34475Y5998D01*
X0525Y6047D02*
X3736Y6047D01*
X6264Y6047D02*
X11429Y6047D01*
X17571Y6047D02*
X23370Y6047D01*
X23924Y6047D02*
X24076Y6047D01*
X24630Y6047D02*
X34475Y6047D01*
X0525Y6097D02*
X3786Y6097D01*
X6214Y6097D02*
X11400Y6097D01*
X17600Y6097D02*
X23449Y6097D01*
X23924Y6097D02*
X24076Y6097D01*
X24551Y6097D02*
X34475Y6097D01*
X0525Y6146D02*
X3836Y6146D01*
X6164Y6146D02*
X11379Y6146D01*
X17621Y6146D02*
X23576Y6146D01*
X23924Y6146D02*
X24076Y6146D01*
X24424Y6146D02*
X34475Y6146D01*
X0525Y6196D02*
X3885Y6196D01*
X6115Y6196D02*
X11363Y6196D01*
X17637Y6196D02*
X23718Y6196D01*
X23924Y6196D02*
X24076Y6196D01*
X24282Y6196D02*
X34475Y6196D01*
X0525Y6245D02*
X3942Y6245D01*
X6058Y6245D02*
X11347Y6245D01*
X17653Y6245D02*
X34475Y6245D01*
X0525Y6295D02*
X4021Y6295D01*
X5979Y6295D02*
X11331Y6295D01*
X17669Y6295D02*
X34475Y6295D01*
X0525Y6345D02*
X4100Y6345D01*
X5900Y6345D02*
X11315Y6345D01*
X17685Y6345D02*
X34475Y6345D01*
X0525Y6394D02*
X4179Y6394D01*
X4800Y6394D02*
X5200Y6394D01*
X5821Y6394D02*
X11299Y6394D01*
X17701Y6394D02*
X34475Y6394D01*
X0525Y6444D02*
X4264Y6444D01*
X4800Y6444D02*
X5200Y6444D01*
X5736Y6444D02*
X11283Y6444D01*
X17717Y6444D02*
X34475Y6444D01*
X0525Y6493D02*
X4406Y6493D01*
X4800Y6493D02*
X5200Y6493D01*
X5594Y6493D02*
X11267Y6493D01*
X17733Y6493D02*
X34475Y6493D01*
X0525Y6543D02*
X4547Y6543D01*
X4800Y6543D02*
X5200Y6543D01*
X5453Y6543D02*
X11251Y6543D01*
X17749Y6543D02*
X34475Y6543D01*
X0525Y6592D02*
X11235Y6592D01*
X17765Y6592D02*
X34475Y6592D01*
X0525Y6642D02*
X11219Y6642D01*
X17781Y6642D02*
X34475Y6642D01*
X0525Y6691D02*
X11202Y6691D01*
X17798Y6691D02*
X34475Y6691D01*
X0525Y6741D02*
X11186Y6741D01*
X17814Y6741D02*
X34475Y6741D01*
X0525Y6790D02*
X11170Y6790D01*
X17830Y6790D02*
X34475Y6790D01*
X0525Y6840D02*
X11165Y6840D01*
X17835Y6840D02*
X34475Y6840D01*
X0525Y6889D02*
X11159Y6889D01*
X17841Y6889D02*
X34475Y6889D01*
X0525Y6939D02*
X11154Y6939D01*
X17846Y6939D02*
X34475Y6939D01*
X0525Y6988D02*
X11149Y6988D01*
X17851Y6988D02*
X34475Y6988D01*
X0525Y7038D02*
X11144Y7038D01*
X17856Y7038D02*
X34475Y7038D01*
X0525Y7087D02*
X11139Y7087D01*
X17861Y7087D02*
X34475Y7087D01*
X0525Y7137D02*
X11133Y7137D01*
X17867Y7137D02*
X34475Y7137D01*
X0525Y7187D02*
X11128Y7187D01*
X17872Y7187D02*
X34475Y7187D01*
X0525Y7236D02*
X11123Y7236D01*
X17877Y7236D02*
X34475Y7236D01*
X0525Y7286D02*
X11118Y7286D01*
X17882Y7286D02*
X34475Y7286D01*
X0525Y7335D02*
X11113Y7335D01*
X17887Y7335D02*
X34475Y7335D01*
X0525Y7385D02*
X11107Y7385D01*
X17893Y7385D02*
X34475Y7385D01*
X0525Y7434D02*
X11102Y7434D01*
X17898Y7434D02*
X34475Y7434D01*
%LNpour fill*%
X34475Y17271D02*
X34475Y17271D01*
X17881Y17271*
X17830Y16793*
X17830Y16791*
X17611Y16116*
X17610Y16114*
X17255Y15500*
X17254Y15498*
X16779Y14971*
X16777Y14969*
X16203Y14552*
X16201Y14551*
X15553Y14262*
X15551Y14262*
X14857Y14114*
X14855Y14114*
X14591Y14114*
X14576Y14129*
X14576Y14350*
X14424Y14350*
X14424Y14129*
X14409Y14114*
X14145Y14114*
X14143Y14114*
X13449Y14262*
X13447Y14262*
X12799Y14551*
X12797Y14552*
X12223Y14969*
X12221Y14971*
X11746Y15498*
X11745Y15500*
X11390Y16114*
X11389Y16116*
X11170Y16791*
X11170Y16793*
X11119Y17271*
X0525Y17271*
X0525Y7729*
X11119Y7729*
X11170Y8207*
X11170Y8209*
X11389Y8884*
X11390Y8886*
X11745Y9500*
X11746Y9502*
X12221Y10029*
X12223Y10031*
X12797Y10448*
X12799Y10449*
X13447Y10738*
X13449Y10738*
X14143Y10886*
X14145Y10886*
X14409Y10886*
X14424Y10871*
X14424Y10650*
X14576Y10650*
X14576Y10871*
X14591Y10886*
X14855Y10886*
X14857Y10886*
X15551Y10738*
X15553Y10738*
X16201Y10449*
X16203Y10448*
X16777Y10031*
X16779Y10029*
X17254Y9502*
X17255Y9500*
X17610Y8886*
X17611Y8884*
X17830Y8209*
X17830Y8207*
X17881Y7729*
X34475Y7729*
X34475Y17271*
X5383Y13353D02*
X5383Y13353D01*
X5386Y13354*
X5749Y13481*
X5752Y13482*
X6077Y13687*
X6080Y13689*
X6351Y13960*
X6353Y13963*
X6558Y14288*
X6559Y14291*
X6686Y14654*
X6687Y14657*
X6705Y14823*
X6690Y14840*
X6475Y14840*
X6475Y15240*
X6690Y15240*
X6705Y15257*
X6687Y15423*
X6686Y15426*
X6559Y15789*
X6558Y15792*
X6353Y16117*
X6351Y16120*
X6080Y16391*
X6077Y16393*
X5752Y16598*
X5749Y16599*
X5386Y16726*
X5383Y16727*
X5217Y16745*
X5200Y16730*
X5200Y16515*
X4800Y16515*
X4800Y16730*
X4783Y16745*
X4617Y16727*
X4614Y16726*
X4251Y16599*
X4248Y16598*
X3923Y16393*
X3920Y16391*
X3649Y16120*
X3647Y16117*
X3442Y15792*
X3441Y15789*
X3314Y15426*
X3313Y15423*
X3295Y15257*
X3310Y15240*
X3525Y15240*
X3525Y14840*
X3310Y14840*
X3295Y14823*
X3313Y14657*
X3314Y14654*
X3441Y14291*
X3442Y14288*
X3647Y13963*
X3649Y13960*
X3920Y13689*
X3923Y13687*
X4248Y13482*
X4251Y13481*
X4614Y13354*
X4617Y13353*
X4999Y13310*
X5001Y13310*
X5383Y13353*
X24272Y13801D02*
X24272Y13801D01*
X24275Y13802*
X24532Y13892*
X24535Y13893*
X24766Y14038*
X24768Y14040*
X24960Y14232*
X24962Y14234*
X25107Y14465*
X25108Y14468*
X25198Y14725*
X25199Y14728*
X25219Y14907*
X25204Y14924*
X24975Y14924*
X24975Y15076*
X25204Y15076*
X25219Y15093*
X25199Y15272*
X25198Y15275*
X25108Y15532*
X25107Y15535*
X24962Y15766*
X24960Y15768*
X24768Y15960*
X24766Y15962*
X24535Y16107*
X24532Y16108*
X24275Y16198*
X24272Y16199*
X24093Y16219*
X24076Y16204*
X24076Y15967*
X23924Y15967*
X23924Y16204*
X23907Y16219*
X23728Y16199*
X23725Y16198*
X23468Y16108*
X23465Y16107*
X23234Y15962*
X23232Y15960*
X23040Y15768*
X23038Y15766*
X22893Y15535*
X22892Y15532*
X22802Y15275*
X22801Y15272*
X22781Y15093*
X22796Y15076*
X23025Y15076*
X23025Y14924*
X22796Y14924*
X22781Y14907*
X22801Y14728*
X22802Y14725*
X22892Y14468*
X22893Y14465*
X23038Y14234*
X23040Y14232*
X23232Y14040*
X23234Y14038*
X23465Y13893*
X23468Y13892*
X23725Y13802*
X23728Y13801*
X23907Y13781*
X23924Y13796*
X23924Y14033*
X24076Y14033*
X24076Y13796*
X24093Y13781*
X24272Y13801*
X5383Y8273D02*
X5383Y8273D01*
X5386Y8274*
X5749Y8401*
X5752Y8402*
X6077Y8607*
X6080Y8609*
X6351Y8880*
X6353Y8883*
X6558Y9208*
X6559Y9211*
X6686Y9574*
X6687Y9577*
X6705Y9743*
X6690Y9760*
X6475Y9760*
X6475Y10160*
X6690Y10160*
X6705Y10177*
X6687Y10343*
X6686Y10346*
X6559Y10709*
X6558Y10712*
X6353Y11037*
X6351Y11040*
X6080Y11311*
X6077Y11313*
X5752Y11518*
X5749Y11519*
X5386Y11646*
X5383Y11647*
X5001Y11690*
X4999Y11690*
X4617Y11647*
X4614Y11646*
X4251Y11519*
X4248Y11518*
X3923Y11313*
X3920Y11311*
X3649Y11040*
X3647Y11037*
X3442Y10712*
X3441Y10709*
X3314Y10346*
X3313Y10343*
X3295Y10177*
X3310Y10160*
X3525Y10160*
X3525Y9760*
X3310Y9760*
X3295Y9743*
X3313Y9577*
X3314Y9574*
X3441Y9211*
X3442Y9208*
X3647Y8883*
X3649Y8880*
X3920Y8609*
X3923Y8607*
X4248Y8402*
X4251Y8401*
X4614Y8274*
X4617Y8273*
X4783Y8255*
X4800Y8270*
X4800Y8485*
X5200Y8485*
X5200Y8270*
X5217Y8255*
X5383Y8273*
X24272Y8801D02*
X24272Y8801D01*
X24275Y8802*
X24532Y8892*
X24535Y8893*
X24766Y9038*
X24768Y9040*
X24960Y9232*
X24962Y9234*
X25107Y9465*
X25108Y9468*
X25198Y9725*
X25199Y9728*
X25219Y9907*
X25204Y9924*
X24975Y9924*
X24975Y10076*
X25204Y10076*
X25219Y10093*
X25199Y10272*
X25198Y10275*
X25108Y10532*
X25107Y10535*
X24962Y10766*
X24960Y10768*
X24768Y10960*
X24766Y10962*
X24535Y11107*
X24532Y11108*
X24275Y11198*
X24272Y11199*
X24093Y11219*
X24076Y11204*
X24076Y10967*
X23924Y10967*
X23924Y11204*
X23907Y11219*
X23728Y11199*
X23725Y11198*
X23468Y11108*
X23465Y11107*
X23234Y10962*
X23232Y10960*
X23040Y10768*
X23038Y10766*
X22893Y10535*
X22892Y10532*
X22802Y10275*
X22801Y10272*
X22781Y10093*
X22796Y10076*
X23025Y10076*
X23025Y9924*
X22796Y9924*
X22781Y9907*
X22801Y9728*
X22802Y9725*
X22892Y9468*
X22893Y9465*
X23038Y9234*
X23040Y9232*
X23232Y9040*
X23234Y9038*
X23465Y8893*
X23468Y8892*
X23725Y8802*
X23728Y8801*
X23907Y8781*
X23924Y8796*
X23924Y9033*
X24076Y9033*
X24076Y8796*
X24093Y8781*
X24272Y8801*
X0525Y7753D02*
X11122Y7753D01*
X17878Y7753D02*
X34475Y7753D01*
X0525Y7802D02*
X11127Y7802D01*
X17873Y7802D02*
X34475Y7802D01*
X0525Y7852D02*
X11132Y7852D01*
X17868Y7852D02*
X34475Y7852D01*
X0525Y7901D02*
X11137Y7901D01*
X17863Y7901D02*
X34475Y7901D01*
X0525Y7951D02*
X11143Y7951D01*
X17857Y7951D02*
X34475Y7951D01*
X0525Y8000D02*
X11148Y8000D01*
X17852Y8000D02*
X34475Y8000D01*
X0525Y8050D02*
X11153Y8050D01*
X17847Y8050D02*
X34475Y8050D01*
X0525Y8099D02*
X11158Y8099D01*
X17842Y8099D02*
X34475Y8099D01*
X0525Y8149D02*
X11163Y8149D01*
X17837Y8149D02*
X34475Y8149D01*
X0525Y8199D02*
X11169Y8199D01*
X17831Y8199D02*
X34475Y8199D01*
X0525Y8248D02*
X11183Y8248D01*
X17817Y8248D02*
X34475Y8248D01*
X0525Y8298D02*
X4547Y8298D01*
X4800Y8298D02*
X5200Y8298D01*
X5453Y8298D02*
X11199Y8298D01*
X17801Y8298D02*
X34475Y8298D01*
X0525Y8347D02*
X4405Y8347D01*
X4800Y8347D02*
X5200Y8347D01*
X5595Y8347D02*
X11215Y8347D01*
X17785Y8347D02*
X34475Y8347D01*
X0525Y8397D02*
X4264Y8397D01*
X4800Y8397D02*
X5200Y8397D01*
X5736Y8397D02*
X11231Y8397D01*
X17769Y8397D02*
X34475Y8397D01*
X0525Y8446D02*
X4178Y8446D01*
X4800Y8446D02*
X5200Y8446D01*
X5822Y8446D02*
X11247Y8446D01*
X17753Y8446D02*
X34475Y8446D01*
X0525Y8496D02*
X4100Y8496D01*
X5900Y8496D02*
X11263Y8496D01*
X17737Y8496D02*
X34475Y8496D01*
X0525Y8545D02*
X4021Y8545D01*
X5979Y8545D02*
X11279Y8545D01*
X17721Y8545D02*
X34475Y8545D01*
X0525Y8595D02*
X3942Y8595D01*
X6058Y8595D02*
X11295Y8595D01*
X17705Y8595D02*
X34475Y8595D01*
X0525Y8644D02*
X3885Y8644D01*
X6115Y8644D02*
X11311Y8644D01*
X17689Y8644D02*
X34475Y8644D01*
X0525Y8694D02*
X3835Y8694D01*
X6165Y8694D02*
X11328Y8694D01*
X17672Y8694D02*
X34475Y8694D01*
X0525Y8743D02*
X3786Y8743D01*
X6214Y8743D02*
X11344Y8743D01*
X17656Y8743D02*
X34475Y8743D01*
X0525Y8793D02*
X3736Y8793D01*
X6264Y8793D02*
X11360Y8793D01*
X17640Y8793D02*
X23799Y8793D01*
X23920Y8793D02*
X24080Y8793D01*
X24201Y8793D02*
X34475Y8793D01*
X0525Y8842D02*
X3687Y8842D01*
X6313Y8842D02*
X11376Y8842D01*
X17624Y8842D02*
X23608Y8842D01*
X23924Y8842D02*
X24076Y8842D01*
X24392Y8842D02*
X34475Y8842D01*
X0525Y8892D02*
X3641Y8892D01*
X6359Y8892D02*
X11394Y8892D01*
X17606Y8892D02*
X23467Y8892D01*
X23924Y8892D02*
X24076Y8892D01*
X24533Y8892D02*
X34475Y8892D01*
X0525Y8941D02*
X3610Y8941D01*
X6390Y8941D02*
X11422Y8941D01*
X17578Y8941D02*
X23388Y8941D01*
X23924Y8941D02*
X24076Y8941D01*
X24612Y8941D02*
X34475Y8941D01*
X0525Y8991D02*
X3579Y8991D01*
X6421Y8991D02*
X11451Y8991D01*
X17549Y8991D02*
X23309Y8991D01*
X23924Y8991D02*
X24076Y8991D01*
X24691Y8991D02*
X34475Y8991D01*
X0525Y9041D02*
X3548Y9041D01*
X6452Y9041D02*
X11479Y9041D01*
X17521Y9041D02*
X23231Y9041D01*
X24769Y9041D02*
X34475Y9041D01*
X0525Y9090D02*
X3517Y9090D01*
X6483Y9090D02*
X11508Y9090D01*
X17492Y9090D02*
X23182Y9090D01*
X24818Y9090D02*
X34475Y9090D01*
X0525Y9140D02*
X3485Y9140D01*
X6515Y9140D02*
X11537Y9140D01*
X17463Y9140D02*
X23132Y9140D01*
X24868Y9140D02*
X34475Y9140D01*
X0525Y9189D02*
X3454Y9189D01*
X6546Y9189D02*
X11565Y9189D01*
X17435Y9189D02*
X23083Y9189D01*
X24917Y9189D02*
X34475Y9189D01*
X0525Y9239D02*
X3431Y9239D01*
X6569Y9239D02*
X11594Y9239D01*
X17406Y9239D02*
X23035Y9239D01*
X24965Y9239D02*
X34475Y9239D01*
X0525Y9288D02*
X3414Y9288D01*
X6586Y9288D02*
X11622Y9288D01*
X17378Y9288D02*
X23004Y9288D01*
X24996Y9288D02*
X34475Y9288D01*
X0525Y9338D02*
X3397Y9338D01*
X6603Y9338D02*
X11651Y9338D01*
X17349Y9338D02*
X22973Y9338D01*
X25027Y9338D02*
X34475Y9338D01*
X0525Y9387D02*
X3379Y9387D01*
X6621Y9387D02*
X11680Y9387D01*
X17320Y9387D02*
X22942Y9387D01*
X25058Y9387D02*
X34475Y9387D01*
X0525Y9437D02*
X3362Y9437D01*
X6638Y9437D02*
X11708Y9437D01*
X17292Y9437D02*
X22911Y9437D01*
X25089Y9437D02*
X34475Y9437D01*
X0525Y9486D02*
X3345Y9486D01*
X6655Y9486D02*
X11737Y9486D01*
X17263Y9486D02*
X22885Y9486D01*
X25115Y9486D02*
X34475Y9486D01*
X0525Y9536D02*
X3327Y9536D01*
X6673Y9536D02*
X11777Y9536D01*
X17223Y9536D02*
X22868Y9536D01*
X25132Y9536D02*
X34475Y9536D01*
X0525Y9585D02*
X3312Y9585D01*
X6688Y9585D02*
X11821Y9585D01*
X17179Y9585D02*
X22850Y9585D01*
X25150Y9585D02*
X34475Y9585D01*
X0525Y9635D02*
X3307Y9635D01*
X6693Y9635D02*
X11866Y9635D01*
X17134Y9635D02*
X22833Y9635D01*
X25167Y9635D02*
X34475Y9635D01*
X0525Y9684D02*
X3301Y9684D01*
X6699Y9684D02*
X11910Y9684D01*
X17090Y9684D02*
X22816Y9684D01*
X25184Y9684D02*
X34475Y9684D01*
X0525Y9734D02*
X3296Y9734D01*
X6704Y9734D02*
X11955Y9734D01*
X17045Y9734D02*
X22800Y9734D01*
X25200Y9734D02*
X34475Y9734D01*
X0525Y9783D02*
X3525Y9783D01*
X6475Y9783D02*
X12000Y9783D01*
X17000Y9783D02*
X22795Y9783D01*
X25205Y9783D02*
X34475Y9783D01*
X0525Y9833D02*
X3525Y9833D01*
X6475Y9833D02*
X12044Y9833D01*
X16956Y9833D02*
X22789Y9833D01*
X25211Y9833D02*
X34475Y9833D01*
X0525Y9883D02*
X3525Y9883D01*
X6475Y9883D02*
X12089Y9883D01*
X16911Y9883D02*
X22783Y9883D01*
X25217Y9883D02*
X34475Y9883D01*
X0525Y9932D02*
X3525Y9932D01*
X6475Y9932D02*
X12133Y9932D01*
X16867Y9932D02*
X23025Y9932D01*
X24975Y9932D02*
X34475Y9932D01*
X0525Y9982D02*
X3525Y9982D01*
X6475Y9982D02*
X12178Y9982D01*
X16822Y9982D02*
X23025Y9982D01*
X24975Y9982D02*
X34475Y9982D01*
X0525Y10031D02*
X3525Y10031D01*
X6475Y10031D02*
X12223Y10031D01*
X16777Y10031D02*
X23025Y10031D01*
X24975Y10031D02*
X34475Y10031D01*
X0525Y10081D02*
X3525Y10081D01*
X6475Y10081D02*
X12291Y10081D01*
X16709Y10081D02*
X22792Y10081D01*
X25208Y10081D02*
X34475Y10081D01*
X0525Y10130D02*
X3525Y10130D01*
X6475Y10130D02*
X12359Y10130D01*
X16641Y10130D02*
X22785Y10130D01*
X25215Y10130D02*
X34475Y10130D01*
X0525Y10180D02*
X3295Y10180D01*
X6705Y10180D02*
X12428Y10180D01*
X16572Y10180D02*
X22790Y10180D01*
X25210Y10180D02*
X34475Y10180D01*
X0525Y10229D02*
X3301Y10229D01*
X6699Y10229D02*
X12496Y10229D01*
X16504Y10229D02*
X22796Y10229D01*
X25204Y10229D02*
X34475Y10229D01*
X0525Y10279D02*
X3306Y10279D01*
X6694Y10279D02*
X12564Y10279D01*
X16436Y10279D02*
X22803Y10279D01*
X25197Y10279D02*
X34475Y10279D01*
X0525Y10328D02*
X3312Y10328D01*
X6688Y10328D02*
X12632Y10328D01*
X16368Y10328D02*
X22820Y10328D01*
X25180Y10328D02*
X34475Y10328D01*
X0525Y10378D02*
X3325Y10378D01*
X6675Y10378D02*
X12700Y10378D01*
X16300Y10378D02*
X22838Y10378D01*
X25162Y10378D02*
X34475Y10378D01*
X0525Y10427D02*
X3342Y10427D01*
X6658Y10427D02*
X12768Y10427D01*
X16232Y10427D02*
X22855Y10427D01*
X25145Y10427D02*
X34475Y10427D01*
X0525Y10477D02*
X3360Y10477D01*
X6640Y10477D02*
X12861Y10477D01*
X16139Y10477D02*
X22872Y10477D01*
X25128Y10477D02*
X34475Y10477D01*
X0525Y10526D02*
X3377Y10526D01*
X6623Y10526D02*
X12972Y10526D01*
X16028Y10526D02*
X22890Y10526D01*
X25110Y10526D02*
X34475Y10526D01*
X0525Y10576D02*
X3394Y10576D01*
X6606Y10576D02*
X13084Y10576D01*
X15916Y10576D02*
X22919Y10576D01*
X25081Y10576D02*
X34475Y10576D01*
X0525Y10625D02*
X3412Y10625D01*
X6588Y10625D02*
X13195Y10625D01*
X15805Y10625D02*
X22950Y10625D01*
X25050Y10625D02*
X34475Y10625D01*
X0525Y10675D02*
X3429Y10675D01*
X6571Y10675D02*
X13306Y10675D01*
X14424Y10675D02*
X14576Y10675D01*
X15694Y10675D02*
X22981Y10675D01*
X25019Y10675D02*
X34475Y10675D01*
X0525Y10725D02*
X3450Y10725D01*
X6550Y10725D02*
X13417Y10725D01*
X14424Y10725D02*
X14576Y10725D01*
X15583Y10725D02*
X23012Y10725D01*
X24988Y10725D02*
X34475Y10725D01*
X0525Y10774D02*
X3481Y10774D01*
X6519Y10774D02*
X13617Y10774D01*
X14424Y10774D02*
X14576Y10774D01*
X15383Y10774D02*
X23046Y10774D01*
X24954Y10774D02*
X34475Y10774D01*
X0525Y10824D02*
X3513Y10824D01*
X6487Y10824D02*
X13850Y10824D01*
X14424Y10824D02*
X14576Y10824D01*
X15150Y10824D02*
X23095Y10824D01*
X24905Y10824D02*
X34475Y10824D01*
X0525Y10873D02*
X3544Y10873D01*
X6456Y10873D02*
X14083Y10873D01*
X14422Y10873D02*
X14578Y10873D01*
X14917Y10873D02*
X23145Y10873D01*
X24855Y10873D02*
X34475Y10873D01*
X0525Y10923D02*
X3575Y10923D01*
X6425Y10923D02*
X23194Y10923D01*
X24806Y10923D02*
X34475Y10923D01*
X0525Y10972D02*
X3606Y10972D01*
X6394Y10972D02*
X23250Y10972D01*
X23924Y10972D02*
X24076Y10972D01*
X24750Y10972D02*
X34475Y10972D01*
X0525Y11022D02*
X3637Y11022D01*
X6363Y11022D02*
X23329Y11022D01*
X23924Y11022D02*
X24076Y11022D01*
X24671Y11022D02*
X34475Y11022D01*
X0525Y11071D02*
X3680Y11071D01*
X6320Y11071D02*
X23408Y11071D01*
X23924Y11071D02*
X24076Y11071D01*
X24592Y11071D02*
X34475Y11071D01*
X0525Y11121D02*
X3730Y11121D01*
X6270Y11121D02*
X23503Y11121D01*
X23924Y11121D02*
X24076Y11121D01*
X24497Y11121D02*
X34475Y11121D01*
X0525Y11170D02*
X3779Y11170D01*
X6221Y11170D02*
X23645Y11170D01*
X23924Y11170D02*
X24076Y11170D01*
X24355Y11170D02*
X34475Y11170D01*
X0525Y11220D02*
X3829Y11220D01*
X6171Y11220D02*
X34475Y11220D01*
X0525Y11269D02*
X3878Y11269D01*
X6122Y11269D02*
X34475Y11269D01*
X0525Y11319D02*
X3932Y11319D01*
X6068Y11319D02*
X34475Y11319D01*
X0525Y11368D02*
X4011Y11368D01*
X5989Y11368D02*
X34475Y11368D01*
X0525Y11418D02*
X4090Y11418D01*
X5910Y11418D02*
X34475Y11418D01*
X0525Y11467D02*
X4168Y11467D01*
X5832Y11467D02*
X34475Y11467D01*
X0525Y11517D02*
X4247Y11517D01*
X5753Y11517D02*
X34475Y11517D01*
X0525Y11567D02*
X4387Y11567D01*
X5613Y11567D02*
X34475Y11567D01*
X0525Y11616D02*
X4528Y11616D01*
X5472Y11616D02*
X34475Y11616D01*
X0525Y11666D02*
X4786Y11666D01*
X5214Y11666D02*
X34475Y11666D01*
X0525Y11715D02*
X34475Y11715D01*
X0525Y11765D02*
X34475Y11765D01*
X0525Y11814D02*
X34475Y11814D01*
X0525Y11864D02*
X34475Y11864D01*
X0525Y11913D02*
X34475Y11913D01*
X0525Y11963D02*
X34475Y11963D01*
X0525Y12012D02*
X34475Y12012D01*
X0525Y12062D02*
X34475Y12062D01*
X0525Y12111D02*
X34475Y12111D01*
X0525Y12161D02*
X34475Y12161D01*
X0525Y12210D02*
X34475Y12210D01*
X0525Y12260D02*
X34475Y12260D01*
X0525Y12309D02*
X34475Y12309D01*
X0525Y12359D02*
X34475Y12359D01*
X0525Y12409D02*
X34475Y12409D01*
X0525Y12458D02*
X34475Y12458D01*
X0525Y12508D02*
X34475Y12508D01*
X0525Y12557D02*
X34475Y12557D01*
X0525Y12607D02*
X34475Y12607D01*
X0525Y12656D02*
X34475Y12656D01*
X0525Y12706D02*
X34475Y12706D01*
X0525Y12755D02*
X34475Y12755D01*
X0525Y12805D02*
X34475Y12805D01*
X0525Y12854D02*
X34475Y12854D01*
X0525Y12904D02*
X34475Y12904D01*
X0525Y12953D02*
X34475Y12953D01*
X0525Y13003D02*
X34475Y13003D01*
X0525Y13052D02*
X34475Y13052D01*
X0525Y13102D02*
X34475Y13102D01*
X0525Y13152D02*
X34475Y13152D01*
X0525Y13201D02*
X34475Y13201D01*
X0525Y13251D02*
X34475Y13251D01*
X0525Y13300D02*
X34475Y13300D01*
X0525Y13350D02*
X4650Y13350D01*
X5350Y13350D02*
X34475Y13350D01*
X0525Y13399D02*
X4485Y13399D01*
X5515Y13399D02*
X34475Y13399D01*
X0525Y13449D02*
X4343Y13449D01*
X5657Y13449D02*
X34475Y13449D01*
X0525Y13498D02*
X4223Y13498D01*
X5777Y13498D02*
X34475Y13498D01*
X0525Y13548D02*
X4144Y13548D01*
X5856Y13548D02*
X34475Y13548D01*
X0525Y13597D02*
X4065Y13597D01*
X5935Y13597D02*
X34475Y13597D01*
X0525Y13647D02*
X3986Y13647D01*
X6014Y13647D02*
X34475Y13647D01*
X0525Y13696D02*
X3913Y13696D01*
X6087Y13696D02*
X34475Y13696D01*
X0525Y13746D02*
X3863Y13746D01*
X6137Y13746D02*
X34475Y13746D01*
X0525Y13795D02*
X3814Y13795D01*
X6186Y13795D02*
X23777Y13795D01*
X23923Y13795D02*
X24077Y13795D01*
X24223Y13795D02*
X34475Y13795D01*
X0525Y13845D02*
X3764Y13845D01*
X6236Y13845D02*
X23601Y13845D01*
X23924Y13845D02*
X24076Y13845D01*
X24399Y13845D02*
X34475Y13845D01*
X0525Y13894D02*
X3715Y13894D01*
X6285Y13894D02*
X23463Y13894D01*
X23924Y13894D02*
X24076Y13894D01*
X24537Y13894D02*
X34475Y13894D01*
X0525Y13944D02*
X3665Y13944D01*
X6335Y13944D02*
X23384Y13944D01*
X23924Y13944D02*
X24076Y13944D01*
X24616Y13944D02*
X34475Y13944D01*
X0525Y13994D02*
X3628Y13994D01*
X6372Y13994D02*
X23305Y13994D01*
X23924Y13994D02*
X24076Y13994D01*
X24695Y13994D02*
X34475Y13994D01*
X0525Y14043D02*
X3596Y14043D01*
X6404Y14043D02*
X23229Y14043D01*
X24771Y14043D02*
X34475Y14043D01*
X0525Y14093D02*
X3565Y14093D01*
X6435Y14093D02*
X23179Y14093D01*
X24821Y14093D02*
X34475Y14093D01*
X0525Y14142D02*
X3534Y14142D01*
X6466Y14142D02*
X14011Y14142D01*
X14424Y14142D02*
X14576Y14142D01*
X14989Y14142D02*
X23130Y14142D01*
X24870Y14142D02*
X34475Y14142D01*
X0525Y14192D02*
X3503Y14192D01*
X6497Y14192D02*
X13778Y14192D01*
X14424Y14192D02*
X14576Y14192D01*
X15222Y14192D02*
X23080Y14192D01*
X24920Y14192D02*
X34475Y14192D01*
X0525Y14241D02*
X3472Y14241D01*
X6528Y14241D02*
X13545Y14241D01*
X14424Y14241D02*
X14576Y14241D01*
X15455Y14241D02*
X23034Y14241D01*
X24966Y14241D02*
X34475Y14241D01*
X0525Y14291D02*
X3441Y14291D01*
X6559Y14291D02*
X13383Y14291D01*
X14424Y14291D02*
X14576Y14291D01*
X15617Y14291D02*
X23002Y14291D01*
X24998Y14291D02*
X34475Y14291D01*
X0525Y14340D02*
X3424Y14340D01*
X6576Y14340D02*
X13272Y14340D01*
X14424Y14340D02*
X14576Y14340D01*
X15728Y14340D02*
X22971Y14340D01*
X25029Y14340D02*
X34475Y14340D01*
X0525Y14390D02*
X3406Y14390D01*
X6594Y14390D02*
X13161Y14390D01*
X15839Y14390D02*
X22940Y14390D01*
X25060Y14390D02*
X34475Y14390D01*
X0525Y14439D02*
X3389Y14439D01*
X6611Y14439D02*
X13049Y14439D01*
X15951Y14439D02*
X22909Y14439D01*
X25091Y14439D02*
X34475Y14439D01*
X0525Y14489D02*
X3372Y14489D01*
X6628Y14489D02*
X12938Y14489D01*
X16062Y14489D02*
X22884Y14489D01*
X25116Y14489D02*
X34475Y14489D01*
X0525Y14538D02*
X3354Y14538D01*
X6646Y14538D02*
X12827Y14538D01*
X16173Y14538D02*
X22867Y14538D01*
X25133Y14538D02*
X34475Y14538D01*
X0525Y14588D02*
X3337Y14588D01*
X6663Y14588D02*
X12747Y14588D01*
X16253Y14588D02*
X22850Y14588D01*
X25150Y14588D02*
X34475Y14588D01*
X0525Y14637D02*
X3320Y14637D01*
X6680Y14637D02*
X12679Y14637D01*
X16321Y14637D02*
X22832Y14637D01*
X25168Y14637D02*
X34475Y14637D01*
X0525Y14687D02*
X3310Y14687D01*
X6690Y14687D02*
X12611Y14687D01*
X16389Y14687D02*
X22815Y14687D01*
X25185Y14687D02*
X34475Y14687D01*
X0525Y14736D02*
X3304Y14736D01*
X6696Y14736D02*
X12543Y14736D01*
X16457Y14736D02*
X22800Y14736D01*
X25200Y14736D02*
X34475Y14736D01*
X0525Y14786D02*
X3299Y14786D01*
X6701Y14786D02*
X12475Y14786D01*
X16525Y14786D02*
X22794Y14786D01*
X25206Y14786D02*
X34475Y14786D01*
X0525Y14836D02*
X3305Y14836D01*
X6695Y14836D02*
X12407Y14836D01*
X16593Y14836D02*
X22789Y14836D01*
X25211Y14836D02*
X34475Y14836D01*
X0525Y14885D02*
X3525Y14885D01*
X6475Y14885D02*
X12338Y14885D01*
X16662Y14885D02*
X22783Y14885D01*
X25217Y14885D02*
X34475Y14885D01*
X0525Y14935D02*
X3525Y14935D01*
X6475Y14935D02*
X12270Y14935D01*
X16730Y14935D02*
X23025Y14935D01*
X24975Y14935D02*
X34475Y14935D01*
X0525Y14984D02*
X3525Y14984D01*
X6475Y14984D02*
X12209Y14984D01*
X16791Y14984D02*
X23025Y14984D01*
X24975Y14984D02*
X34475Y14984D01*
X0525Y15034D02*
X3525Y15034D01*
X6475Y15034D02*
X12164Y15034D01*
X16836Y15034D02*
X23025Y15034D01*
X24975Y15034D02*
X34475Y15034D01*
X0525Y15083D02*
X3525Y15083D01*
X6475Y15083D02*
X12120Y15083D01*
X16880Y15083D02*
X22790Y15083D01*
X25210Y15083D02*
X34475Y15083D01*
X0525Y15133D02*
X3525Y15133D01*
X6475Y15133D02*
X12075Y15133D01*
X16925Y15133D02*
X22785Y15133D01*
X25215Y15133D02*
X34475Y15133D01*
X0525Y15182D02*
X3525Y15182D01*
X6475Y15182D02*
X12030Y15182D01*
X16970Y15182D02*
X22791Y15182D01*
X25209Y15182D02*
X34475Y15182D01*
X0525Y15232D02*
X3525Y15232D01*
X6475Y15232D02*
X11986Y15232D01*
X17014Y15232D02*
X22796Y15232D01*
X25204Y15232D02*
X34475Y15232D01*
X0525Y15281D02*
X3297Y15281D01*
X6703Y15281D02*
X11941Y15281D01*
X17059Y15281D02*
X22804Y15281D01*
X25196Y15281D02*
X34475Y15281D01*
X0525Y15331D02*
X3303Y15331D01*
X6697Y15331D02*
X11897Y15331D01*
X17103Y15331D02*
X22821Y15331D01*
X25179Y15331D02*
X34475Y15331D01*
X0525Y15380D02*
X3309Y15380D01*
X6691Y15380D02*
X11852Y15380D01*
X17148Y15380D02*
X22838Y15380D01*
X25162Y15380D02*
X34475Y15380D01*
X0525Y15430D02*
X3315Y15430D01*
X6685Y15430D02*
X11808Y15430D01*
X17192Y15430D02*
X22856Y15430D01*
X25144Y15430D02*
X34475Y15430D01*
X0525Y15479D02*
X3333Y15479D01*
X6667Y15479D02*
X11763Y15479D01*
X17237Y15479D02*
X22873Y15479D01*
X25127Y15479D02*
X34475Y15479D01*
X0525Y15529D02*
X3350Y15529D01*
X6650Y15529D02*
X11728Y15529D01*
X17272Y15529D02*
X22890Y15529D01*
X25110Y15529D02*
X34475Y15529D01*
X0525Y15578D02*
X3367Y15578D01*
X6633Y15578D02*
X11699Y15578D01*
X17301Y15578D02*
X22920Y15578D01*
X25080Y15578D02*
X34475Y15578D01*
X0525Y15628D02*
X3385Y15628D01*
X6615Y15628D02*
X11671Y15628D01*
X17329Y15628D02*
X22951Y15628D01*
X25049Y15628D02*
X34475Y15628D01*
X0525Y15678D02*
X3402Y15678D01*
X6598Y15678D02*
X11642Y15678D01*
X17358Y15678D02*
X22982Y15678D01*
X25018Y15678D02*
X34475Y15678D01*
X0525Y15727D02*
X3419Y15727D01*
X6581Y15727D02*
X11614Y15727D01*
X17386Y15727D02*
X23014Y15727D01*
X24986Y15727D02*
X34475Y15727D01*
X0525Y15777D02*
X3437Y15777D01*
X6563Y15777D02*
X11585Y15777D01*
X17415Y15777D02*
X23048Y15777D01*
X24952Y15777D02*
X34475Y15777D01*
X0525Y15826D02*
X3464Y15826D01*
X6536Y15826D02*
X11556Y15826D01*
X17444Y15826D02*
X23098Y15826D01*
X24902Y15826D02*
X34475Y15826D01*
X0525Y15876D02*
X3495Y15876D01*
X6505Y15876D02*
X11528Y15876D01*
X17472Y15876D02*
X23147Y15876D01*
X24853Y15876D02*
X34475Y15876D01*
X0525Y15925D02*
X3526Y15925D01*
X6474Y15925D02*
X11499Y15925D01*
X17501Y15925D02*
X23197Y15925D01*
X24803Y15925D02*
X34475Y15925D01*
X0525Y15975D02*
X3557Y15975D01*
X6443Y15975D02*
X11471Y15975D01*
X17529Y15975D02*
X23254Y15975D01*
X23924Y15975D02*
X24076Y15975D01*
X24746Y15975D02*
X34475Y15975D01*
X0525Y16024D02*
X3588Y16024D01*
X6412Y16024D02*
X11442Y16024D01*
X17558Y16024D02*
X23333Y16024D01*
X23924Y16024D02*
X24076Y16024D01*
X24667Y16024D02*
X34475Y16024D01*
X0525Y16074D02*
X3620Y16074D01*
X6380Y16074D02*
X11414Y16074D01*
X17586Y16074D02*
X23412Y16074D01*
X23924Y16074D02*
X24076Y16074D01*
X24588Y16074D02*
X34475Y16074D01*
X0525Y16123D02*
X3652Y16123D01*
X6348Y16123D02*
X11387Y16123D01*
X17613Y16123D02*
X23510Y16123D01*
X23924Y16123D02*
X24076Y16123D01*
X24490Y16123D02*
X34475Y16123D01*
X0525Y16173D02*
X3702Y16173D01*
X6298Y16173D02*
X11371Y16173D01*
X17629Y16173D02*
X23652Y16173D01*
X23924Y16173D02*
X24076Y16173D01*
X24348Y16173D02*
X34475Y16173D01*
X0525Y16222D02*
X3751Y16222D01*
X6249Y16222D02*
X11355Y16222D01*
X17645Y16222D02*
X34475Y16222D01*
X0525Y16272D02*
X3801Y16272D01*
X6199Y16272D02*
X11339Y16272D01*
X17661Y16272D02*
X34475Y16272D01*
X0525Y16321D02*
X3851Y16321D01*
X6149Y16321D02*
X11323Y16321D01*
X17677Y16321D02*
X34475Y16321D01*
X0525Y16371D02*
X3900Y16371D01*
X6100Y16371D02*
X11307Y16371D01*
X17693Y16371D02*
X34475Y16371D01*
X0525Y16420D02*
X3966Y16420D01*
X6034Y16420D02*
X11290Y16420D01*
X17710Y16420D02*
X34475Y16420D01*
X0525Y16470D02*
X4045Y16470D01*
X5955Y16470D02*
X11274Y16470D01*
X17726Y16470D02*
X34475Y16470D01*
X0525Y16520D02*
X4124Y16520D01*
X4800Y16520D02*
X5200Y16520D01*
X5876Y16520D02*
X11258Y16520D01*
X17742Y16520D02*
X34475Y16520D01*
X0525Y16569D02*
X4203Y16569D01*
X4800Y16569D02*
X5200Y16569D01*
X5797Y16569D02*
X11242Y16569D01*
X17758Y16569D02*
X34475Y16569D01*
X0525Y16619D02*
X4307Y16619D01*
X4800Y16619D02*
X5200Y16619D01*
X5693Y16619D02*
X11226Y16619D01*
X17774Y16619D02*
X34475Y16619D01*
X0525Y16668D02*
X4449Y16668D01*
X4800Y16668D02*
X5200Y16668D01*
X5551Y16668D02*
X11210Y16668D01*
X17790Y16668D02*
X34475Y16668D01*
X0525Y16718D02*
X4590Y16718D01*
X4800Y16718D02*
X5200Y16718D01*
X5410Y16718D02*
X11194Y16718D01*
X17806Y16718D02*
X34475Y16718D01*
X0525Y16767D02*
X11178Y16767D01*
X17822Y16767D02*
X34475Y16767D01*
X0525Y16817D02*
X11167Y16817D01*
X17833Y16817D02*
X34475Y16817D01*
X0525Y16866D02*
X11162Y16866D01*
X17838Y16866D02*
X34475Y16866D01*
X0525Y16916D02*
X11157Y16916D01*
X17843Y16916D02*
X34475Y16916D01*
X0525Y16965D02*
X11151Y16965D01*
X17849Y16965D02*
X34475Y16965D01*
X0525Y17015D02*
X11146Y17015D01*
X17854Y17015D02*
X34475Y17015D01*
X0525Y17064D02*
X11141Y17064D01*
X17859Y17064D02*
X34475Y17064D01*
X0525Y17114D02*
X11136Y17114D01*
X17864Y17114D02*
X34475Y17114D01*
X0525Y17163D02*
X11131Y17163D01*
X17869Y17163D02*
X34475Y17163D01*
X0525Y17213D02*
X11125Y17213D01*
X17875Y17213D02*
X34475Y17213D01*
X0525Y17262D02*
X11120Y17262D01*
X17880Y17262D02*
X34475Y17262D01*
%LNbottom copper_traces*%
%LNbottom copper component a11a46aa72a432f6*%
D11*
X24000Y5000D03*
X24000Y10000D03*
X24000Y15000D03*
D12*
X24000Y20000D03*
%LNbottom copper component f0fb2731934dc838*%
D13*
X5000Y20120D03*
X5000Y15040D03*
X5000Y9960D03*
X5000Y4880D03*
%LNbottom copper component 8d7f5a6846472cc6*%
D14*
X14500Y17500D03*
%LNbottom copper component f5205f3a868a2325*%
X14500Y7500D03*
M02*